<svg width="104" height="104" viewBox="0 0 104 104" fill="none" xmlns="http://www.w3.org/2000/svg">
<circle cx="52" cy="52" r="52" fill="#F0F4F7"/>
<path d="M32.6953 70.6769C32.6953 68.7806 33.768 67.0475 35.4652 66.2017L65.6176 51.1757C67.022 50.4759 68.6734 50.4759 70.0778 51.1757L100.23 66.2017C101.927 67.0475 103 68.7806 103 70.6769V98C103 100.761 100.761 103 98.0001 103H37.6953C34.9339 103 32.6953 100.761 32.6953 98V70.6769Z" fill="white" stroke="#B8C0CC" stroke-width="2"/>
<path d="M67.3613 25.7619H70.2856C71.3952 25.7619 72.2947 26.6614 72.2947 27.7709C72.2947 28.8805 71.3952 29.78 70.2856 29.78H67.3613V25.7619Z" stroke="#53A1FF" stroke-width="2"/>
<path d="M67.3535 33.789V24.7619" stroke="#53A1FF" stroke-width="2"/>
<path d="M84.1806 50.8403C84.1806 60.271 76.6344 67.8945 67.352 67.8945C58.0697 67.8945 50.5234 60.271 50.5234 50.8403C50.5234 41.4096 58.0697 33.786 67.352 33.786C76.6344 33.786 84.1806 41.4096 84.1806 50.8403Z" fill="white" stroke="#B8C0CC" stroke-width="2"/>
<rect x="42.5996" y="51.8403" width="50.4952" height="51.1597" rx="5" fill="white" stroke="#B8C0CC" stroke-width="2"/>
<rect x="50.5234" y="61.4191" width="34.6476" height="5.0211" rx="1" stroke="#B8C0CC" stroke-width="2"/>
<path d="M56.4668 88.6476C56.4668 87.2853 57.5712 86.181 58.9335 86.181C60.2958 86.181 61.4001 87.2853 61.4001 88.6476V103H56.4668V88.6476Z" stroke="#B8C0CC" stroke-width="2"/>
<path d="M65.3809 88.6476C65.3809 87.2853 66.4852 86.181 67.8475 86.181C69.2098 86.181 70.3142 87.2853 70.3142 88.6476V103H65.3809V88.6476Z" stroke="#53A1FF" stroke-width="2"/>
<path d="M74.2949 88.6476C74.2949 87.2853 75.3993 86.181 76.7616 86.181C78.1239 86.181 79.2283 87.2853 79.2283 88.6476V103H74.2949V88.6476Z" stroke="#B8C0CC" stroke-width="2"/>
<path d="M48.543 83.2571C48.543 80.4957 50.7815 78.2571 53.543 78.2571H82.1525C84.9139 78.2571 87.1525 80.4957 87.1525 83.2571V103H48.543V83.2571Z" stroke="#B8C0CC" stroke-width="2"/>
</svg>
