<svg width="106" height="105" viewBox="0 0 106 105" fill="none" xmlns="http://www.w3.org/2000/svg">
<circle cx="52.5" cy="52.5" r="52.5" fill="#F0F4F7"/>
<rect x="33" y="23" width="48" height="78" rx="5" fill="white" stroke="#B8C0CC" stroke-width="2"/>
<path d="M48 41H73" stroke="#B8C0CC" stroke-width="2" stroke-linecap="round"/>
<path d="M48 48H73" stroke="#B8C0CC" stroke-width="2" stroke-linecap="round"/>
<path d="M48 55H73" stroke="#B8C0CC" stroke-width="2" stroke-linecap="round"/>
<path d="M48 62H73" stroke="#B8C0CC" stroke-width="2" stroke-linecap="round"/>
<rect x="63" y="91" width="8" height="10" rx="4" fill="white" stroke="#B8C0CC" stroke-width="2"/>
<rect x="93" y="91" width="8" height="10" rx="4" fill="white" stroke="#B8C0CC" stroke-width="2"/>
<path d="M67.4472 73.1056C67.786 72.428 68.4785 72 69.2361 72H94.7639C95.5215 72 96.214 72.428 96.5528 73.1056L100.553 81.1056C101.218 82.4354 100.251 84 98.7639 84H65.2361C63.7493 84 62.7823 82.4354 63.4472 81.1056L67.4472 73.1056Z" fill="white" stroke="#B8C0CC" stroke-width="2"/>
<circle cx="90.5" cy="84.5" r="5.5" stroke="#B8C0CC" stroke-width="2"/>
<rect x="59" y="84" width="46" height="12" rx="4" fill="white" stroke="#B8C0CC" stroke-width="2"/>
<rect x="75" y="88" width="14" height="4" rx="2" stroke="#53A1FF" stroke-width="2"/>
<circle cx="67" cy="90" r="2" stroke="#B8C0CC" stroke-width="2"/>
<circle cx="97" cy="90" r="2" stroke="#B8C0CC" stroke-width="2"/>
<path d="M28 46L36 46V57.5858L33.4142 55C32.6332 54.2189 31.3668 54.219 30.5858 55L28 57.5858L28 46Z" fill="white" stroke="#53A1FF" stroke-width="2"/>
<circle cx="32" cy="39" r="8" fill="white" stroke="#53A1FF" stroke-width="2"/>
</svg>
