<svg width="105" height="105" viewBox="0 0 105 105" fill="none" xmlns="http://www.w3.org/2000/svg">
<circle cx="52.5" cy="52.5" r="52.5" fill="#F0F4F7"/>
<rect x="40" y="26" width="54" height="78" rx="5" fill="white" stroke="#B8C0CC" stroke-width="2"/>
<path d="M75.3327 51C75.3327 55.9873 71.3652 60 66.5082 60C61.6511 60 57.6836 55.9873 57.6836 51C57.6836 46.0127 61.6511 42 66.5082 42C71.3652 42 75.3327 46.0127 75.3327 51Z" stroke="#B8C0CC" stroke-width="2"/>
<path d="M63.0434 39.5396L66.8227 35.3081L70.602 39.5396L67.5197 42.9907C67.14 43.4158 66.5045 43.4147 66.1236 42.9883L63.0434 39.5396Z" fill="#53A1FF"/>
<ellipse rx="2.87998" ry="2.94042" transform="matrix(0.747801 -0.663923 0.613186 0.789938 64.7672 37.2349)" fill="#53A1FF"/>
<ellipse rx="2.87998" ry="2.94042" transform="matrix(0.747801 -0.663923 0.613186 0.789938 68.8903 37.2349)" fill="#53A1FF"/>
<path d="M46.8594 95L86.1576 95" stroke="#B8C0CC" stroke-width="2" stroke-linecap="round"/>
<rect x="52.2715" y="69.5" width="28.4737" height="1" rx="0.5" stroke="#B8C0CC"/>
<rect x="52.2715" y="77.5" width="28.4737" height="1" rx="0.5" stroke="#B8C0CC"/>
<rect x="52.2715" y="85.5" width="20.614" height="1" rx="0.5" stroke="#B8C0CC"/>
<path d="M81.2536 86.39C81.0541 86.6218 80.6951 86.6217 80.4956 86.3898L78.7362 84.344C78.4643 84.0279 77.9752 84.0271 77.7023 84.3422C77.4806 84.5981 77.4799 84.9778 77.7007 85.2345L80.4954 88.4841C80.6949 88.7161 81.0541 88.7161 81.2536 88.4841L88.131 80.4874C88.3505 80.2322 88.3505 79.8549 88.131 79.5997C87.8595 79.2841 87.3708 79.284 87.0991 79.5995L81.2536 86.39Z" fill="#53A1FF" stroke="#53A1FF"/>
</svg>
