<svg width="68" height="74" viewBox="0 0 68 74" fill="none" xmlns="http://www.w3.org/2000/svg">
<path d="M33.9145 33.6609C32.5889 33.6609 31.5144 34.7354 31.5144 36.0609C31.5143 37.0193 32.0775 37.8441 32.8896 38.2288V41.1464C32.8896 41.7122 33.3483 42.1711 33.9143 42.1711C34.4803 42.1711 34.939 41.7124 34.939 41.1464V38.2288C35.7513 37.8441 36.3145 37.0193 36.3145 36.0609C36.3145 34.7354 35.24 33.6609 33.9145 33.6609Z" fill="#B8C0CC"/>
<path d="M1.28096 13.1935C8.25517 13.1935 14.6482 7.96774 14.6482 1H53.0891C53.0891 7.96774 59.4882 13.1935 66.469 13.1935C66.469 30.6129 68.7637 55.5806 33.8595 73C-1.01156 55.5806 1.28096 30.6129 1.28096 13.1935Z" stroke="#B8C0CC" stroke-width="1.88" stroke-linejoin="round"/>
<path d="M42.875 26.875V21.25C42.875 16.2794 38.8456 12.25 33.875 12.25C28.9045 12.25 24.875 16.2794 24.875 21.25V26.875" stroke="#30A3C7" stroke-width="1.88"/>
<rect x="20.19" y="27.815" width="27.37" height="20.62" rx="2.06" stroke="#30A3C7" stroke-width="1.88"/>
</svg>
