<svg width="370" height="459" viewBox="0 0 370 459" fill="none" xmlns="http://www.w3.org/2000/svg">
<g filter="url(#filter0_d)">
<rect x="95" y="8" width="214" height="400" rx="14" fill="white"/>
</g>
<path d="M156.766 139.162C155.266 139.162 154.12 138.61 153.328 137.506C152.536 136.39 152.14 134.77 152.14 132.646C152.14 130.534 152.536 128.926 153.328 127.822C154.12 126.706 155.266 126.148 156.766 126.148C158.266 126.148 159.412 126.706 160.204 127.822C160.996 128.926 161.392 130.534 161.392 132.646C161.392 134.758 160.996 136.372 160.204 137.488C159.412 138.604 158.266 139.162 156.766 139.162ZM156.766 137.344C157.582 137.344 158.176 136.972 158.548 136.228C158.92 135.472 159.106 134.278 159.106 132.646C159.106 131.002 158.92 129.814 158.548 129.082C158.176 128.338 157.582 127.966 156.766 127.966C155.95 127.966 155.356 128.338 154.984 129.082C154.612 129.826 154.426 131.014 154.426 132.646C154.426 134.278 154.612 135.472 154.984 136.228C155.356 136.972 155.95 137.344 156.766 137.344ZM168.225 130.882C169.017 130.882 169.713 131.056 170.313 131.404C170.925 131.74 171.399 132.214 171.735 132.826C172.071 133.438 172.239 134.14 172.239 134.932C172.239 135.76 172.047 136.492 171.663 137.128C171.291 137.764 170.757 138.262 170.061 138.622C169.377 138.97 168.585 139.144 167.685 139.144C166.941 139.144 166.209 139.024 165.489 138.784C164.781 138.532 164.175 138.196 163.671 137.776C163.395 137.536 163.257 137.254 163.257 136.93C163.257 136.666 163.329 136.444 163.473 136.264C163.629 136.072 163.809 135.976 164.013 135.976C164.133 135.976 164.247 136 164.355 136.048C164.463 136.084 164.589 136.15 164.733 136.246C165.213 136.582 165.681 136.84 166.137 137.02C166.593 137.2 167.079 137.29 167.595 137.29C168.387 137.29 168.993 137.092 169.413 136.696C169.833 136.3 170.043 135.736 170.043 135.004C170.043 134.296 169.827 133.738 169.395 133.33C168.975 132.91 168.393 132.7 167.649 132.7C167.181 132.7 166.761 132.766 166.389 132.898C166.029 133.03 165.657 133.252 165.273 133.564C165.045 133.72 164.811 133.798 164.571 133.798C164.331 133.798 164.127 133.726 163.959 133.582C163.791 133.438 163.707 133.246 163.707 133.006V127.39C163.707 127.054 163.803 126.79 163.995 126.598C164.187 126.406 164.457 126.31 164.805 126.31H170.799C171.519 126.31 171.879 126.61 171.879 127.21C171.879 127.81 171.519 128.11 170.799 128.11H165.975V131.53C166.587 131.098 167.337 130.882 168.225 130.882ZM178.973 139.108C178.049 139.144 177.587 138.826 177.587 138.154C177.587 137.866 177.665 137.65 177.821 137.506C177.965 137.35 178.199 137.26 178.523 137.236L179.099 137.2C179.591 137.176 179.963 137.02 180.215 136.732C180.467 136.444 180.593 136.006 180.593 135.418V127.372C180.593 127.024 180.695 126.748 180.899 126.544C181.115 126.328 181.397 126.22 181.745 126.22C182.105 126.22 182.387 126.328 182.591 126.544C182.807 126.748 182.915 127.024 182.915 127.372V135.418C182.915 137.686 181.793 138.904 179.549 139.072L178.973 139.108ZM189.276 129.982C190.5 129.982 191.406 130.288 191.994 130.9C192.594 131.5 192.894 132.418 192.894 133.654V138.046C192.894 138.37 192.798 138.628 192.606 138.82C192.414 139 192.15 139.09 191.814 139.09C191.502 139.09 191.244 138.994 191.04 138.802C190.848 138.61 190.752 138.358 190.752 138.046V137.65C190.548 138.118 190.224 138.484 189.78 138.748C189.348 139.012 188.844 139.144 188.268 139.144C187.68 139.144 187.146 139.024 186.666 138.784C186.186 138.544 185.808 138.214 185.532 137.794C185.256 137.374 185.118 136.906 185.118 136.39C185.118 135.742 185.28 135.232 185.604 134.86C185.94 134.488 186.48 134.218 187.224 134.05C187.968 133.882 188.994 133.798 190.302 133.798H190.752V133.384C190.752 132.796 190.626 132.37 190.374 132.106C190.122 131.83 189.714 131.692 189.15 131.692C188.802 131.692 188.448 131.746 188.088 131.854C187.728 131.95 187.302 132.094 186.81 132.286C186.498 132.442 186.27 132.52 186.126 132.52C185.91 132.52 185.73 132.442 185.586 132.286C185.454 132.13 185.388 131.926 185.388 131.674C185.388 131.47 185.436 131.296 185.532 131.152C185.64 130.996 185.814 130.852 186.054 130.72C186.474 130.492 186.972 130.312 187.548 130.18C188.136 130.048 188.712 129.982 189.276 129.982ZM188.718 137.524C189.318 137.524 189.804 137.326 190.176 136.93C190.56 136.522 190.752 136 190.752 135.364V134.986H190.428C189.624 134.986 189 135.022 188.556 135.094C188.112 135.166 187.794 135.292 187.602 135.472C187.41 135.652 187.314 135.898 187.314 136.21C187.314 136.594 187.446 136.912 187.71 137.164C187.986 137.404 188.322 137.524 188.718 137.524ZM200.293 129.982C201.349 129.982 202.135 130.282 202.651 130.882C203.167 131.482 203.425 132.388 203.425 133.6V138.028C203.425 138.364 203.323 138.628 203.119 138.82C202.927 139.012 202.657 139.108 202.309 139.108C201.961 139.108 201.685 139.012 201.481 138.82C201.277 138.628 201.175 138.364 201.175 138.028V133.726C201.175 133.042 201.043 132.544 200.779 132.232C200.527 131.92 200.125 131.764 199.573 131.764C198.925 131.764 198.403 131.968 198.007 132.376C197.623 132.784 197.431 133.33 197.431 134.014V138.028C197.431 138.364 197.329 138.628 197.125 138.82C196.921 139.012 196.645 139.108 196.297 139.108C195.949 139.108 195.673 139.012 195.469 138.82C195.277 138.628 195.181 138.364 195.181 138.028V131.062C195.181 130.75 195.283 130.498 195.487 130.306C195.691 130.114 195.967 130.018 196.315 130.018C196.627 130.018 196.879 130.114 197.071 130.306C197.275 130.486 197.377 130.726 197.377 131.026V131.512C197.677 131.02 198.079 130.642 198.583 130.378C199.087 130.114 199.657 129.982 200.293 129.982ZM218.391 137.128C219.111 137.128 219.471 137.434 219.471 138.046C219.471 138.682 219.111 139 218.391 139H211.551C211.239 139 210.993 138.91 210.813 138.73C210.633 138.538 210.543 138.304 210.543 138.028C210.543 137.668 210.681 137.344 210.957 137.056L215.061 132.646C215.565 132.094 215.931 131.59 216.159 131.134C216.399 130.666 216.519 130.204 216.519 129.748C216.519 129.184 216.357 128.752 216.033 128.452C215.709 128.152 215.247 128.002 214.647 128.002C214.155 128.002 213.675 128.098 213.207 128.29C212.751 128.47 212.289 128.722 211.821 129.046C211.701 129.13 211.581 129.202 211.461 129.262C211.341 129.31 211.221 129.334 211.101 129.334C210.897 129.334 210.717 129.238 210.561 129.046C210.417 128.854 210.345 128.626 210.345 128.362C210.345 128.182 210.375 128.026 210.435 127.894C210.507 127.762 210.615 127.636 210.759 127.516C211.287 127.096 211.905 126.766 212.613 126.526C213.321 126.274 214.029 126.148 214.737 126.148C215.973 126.148 216.957 126.46 217.689 127.084C218.433 127.708 218.805 128.548 218.805 129.604C218.805 130.336 218.649 131.026 218.337 131.674C218.025 132.31 217.497 133.024 216.753 133.816L213.639 137.128H218.391ZM225.637 139.162C224.137 139.162 222.991 138.61 222.199 137.506C221.407 136.39 221.011 134.77 221.011 132.646C221.011 130.534 221.407 128.926 222.199 127.822C222.991 126.706 224.137 126.148 225.637 126.148C227.137 126.148 228.283 126.706 229.075 127.822C229.867 128.926 230.263 130.534 230.263 132.646C230.263 134.758 229.867 136.372 229.075 137.488C228.283 138.604 227.137 139.162 225.637 139.162ZM225.637 137.344C226.453 137.344 227.047 136.972 227.419 136.228C227.791 135.472 227.977 134.278 227.977 132.646C227.977 131.002 227.791 129.814 227.419 129.082C227.047 128.338 226.453 127.966 225.637 127.966C224.821 127.966 224.227 128.338 223.855 129.082C223.483 129.826 223.297 131.014 223.297 132.646C223.297 134.278 223.483 135.472 223.855 136.228C224.227 136.972 224.821 137.344 225.637 137.344ZM239.994 137.128C240.714 137.128 241.074 137.434 241.074 138.046C241.074 138.682 240.714 139 239.994 139H233.154C232.842 139 232.596 138.91 232.416 138.73C232.236 138.538 232.146 138.304 232.146 138.028C232.146 137.668 232.284 137.344 232.56 137.056L236.664 132.646C237.168 132.094 237.534 131.59 237.762 131.134C238.002 130.666 238.122 130.204 238.122 129.748C238.122 129.184 237.96 128.752 237.636 128.452C237.312 128.152 236.85 128.002 236.25 128.002C235.758 128.002 235.278 128.098 234.81 128.29C234.354 128.47 233.892 128.722 233.424 129.046C233.304 129.13 233.184 129.202 233.064 129.262C232.944 129.31 232.824 129.334 232.704 129.334C232.5 129.334 232.32 129.238 232.164 129.046C232.02 128.854 231.948 128.626 231.948 128.362C231.948 128.182 231.978 128.026 232.038 127.894C232.11 127.762 232.218 127.636 232.362 127.516C232.89 127.096 233.508 126.766 234.216 126.526C234.924 126.274 235.632 126.148 236.34 126.148C237.576 126.148 238.56 126.46 239.292 127.084C240.036 127.708 240.408 128.548 240.408 129.604C240.408 130.336 240.252 131.026 239.94 131.674C239.628 132.31 239.1 133.024 238.356 133.816L235.242 137.128H239.994ZM250.859 137.128C251.579 137.128 251.939 137.434 251.939 138.046C251.939 138.682 251.579 139 250.859 139H244.775C244.043 139 243.677 138.682 243.677 138.046C243.677 137.434 244.043 137.128 244.775 137.128H246.647V128.92L244.919 129.982C244.751 130.078 244.601 130.126 244.469 130.126C244.217 130.126 244.001 130.018 243.821 129.802C243.653 129.586 243.569 129.346 243.569 129.082C243.569 128.734 243.725 128.464 244.037 128.272L246.827 126.544C247.187 126.328 247.529 126.22 247.853 126.22C248.189 126.22 248.459 126.322 248.663 126.526C248.867 126.73 248.969 127.012 248.969 127.372V137.128H250.859Z" fill="#6772E5"/>
<path d="M155.935 180.08C155.615 180.08 155.359 179.989 155.167 179.808C154.986 179.616 154.895 179.365 154.895 179.056V170.416H151.983C151.343 170.416 151.023 170.133 151.023 169.568C151.023 169.003 151.343 168.72 151.983 168.72H159.871C160.511 168.72 160.831 169.003 160.831 169.568C160.831 170.133 160.511 170.416 159.871 170.416H156.959V179.056C156.959 179.365 156.863 179.616 156.671 179.808C156.49 179.989 156.245 180.08 155.935 180.08ZM166.818 172.016C167.127 172.016 167.372 172.101 167.554 172.272C167.735 172.443 167.826 172.672 167.826 172.96V179.168C167.826 179.445 167.73 179.669 167.538 179.84C167.356 180.011 167.116 180.096 166.818 180.096C166.53 180.096 166.3 180.016 166.13 179.856C165.959 179.696 165.874 179.477 165.874 179.2V178.8C165.628 179.227 165.298 179.557 164.882 179.792C164.466 180.016 163.996 180.128 163.474 180.128C161.554 180.128 160.594 179.051 160.594 176.896V172.96C160.594 172.672 160.684 172.443 160.866 172.272C161.047 172.101 161.287 172.016 161.586 172.016C161.895 172.016 162.14 172.101 162.322 172.272C162.503 172.443 162.594 172.672 162.594 172.96V176.912C162.594 177.467 162.706 177.877 162.93 178.144C163.154 178.411 163.506 178.544 163.986 178.544C164.54 178.544 164.983 178.363 165.314 178C165.655 177.627 165.826 177.136 165.826 176.528V172.96C165.826 172.672 165.916 172.443 166.098 172.272C166.279 172.101 166.519 172.016 166.818 172.016ZM176.099 177.856C176.281 177.856 176.425 177.925 176.531 178.064C176.649 178.203 176.707 178.389 176.707 178.624C176.707 178.955 176.51 179.232 176.115 179.456C175.753 179.659 175.342 179.824 174.883 179.952C174.425 180.069 173.987 180.128 173.571 180.128C172.313 180.128 171.315 179.765 170.579 179.04C169.843 178.315 169.475 177.323 169.475 176.064C169.475 175.264 169.635 174.555 169.955 173.936C170.275 173.317 170.723 172.837 171.299 172.496C171.886 172.155 172.547 171.984 173.283 171.984C173.987 171.984 174.601 172.139 175.123 172.448C175.646 172.757 176.051 173.195 176.339 173.76C176.627 174.325 176.771 174.992 176.771 175.76C176.771 176.219 176.569 176.448 176.163 176.448H171.443C171.507 177.184 171.715 177.728 172.067 178.08C172.419 178.421 172.931 178.592 173.603 178.592C173.945 178.592 174.243 178.549 174.499 178.464C174.766 178.379 175.065 178.261 175.395 178.112C175.715 177.941 175.95 177.856 176.099 177.856ZM173.331 173.392C172.787 173.392 172.35 173.563 172.019 173.904C171.699 174.245 171.507 174.736 171.443 175.376H175.059C175.038 174.725 174.878 174.235 174.579 173.904C174.281 173.563 173.865 173.392 173.331 173.392ZM186.511 180.144C185.178 180.144 184.159 179.653 183.455 178.672C182.751 177.68 182.399 176.24 182.399 174.352C182.399 172.475 182.751 171.045 183.455 170.064C184.159 169.072 185.178 168.576 186.511 168.576C187.844 168.576 188.863 169.072 189.567 170.064C190.271 171.045 190.623 172.475 190.623 174.352C190.623 176.229 190.271 177.664 189.567 178.656C188.863 179.648 187.844 180.144 186.511 180.144ZM186.511 178.528C187.236 178.528 187.764 178.197 188.095 177.536C188.426 176.864 188.591 175.803 188.591 174.352C188.591 172.891 188.426 171.835 188.095 171.184C187.764 170.523 187.236 170.192 186.511 170.192C185.786 170.192 185.258 170.523 184.927 171.184C184.596 171.845 184.431 172.901 184.431 174.352C184.431 175.803 184.596 176.864 184.927 177.536C185.258 178.197 185.786 178.528 186.511 178.528ZM199.321 178.336C199.961 178.336 200.281 178.608 200.281 179.152C200.281 179.717 199.961 180 199.321 180H193.913C193.262 180 192.937 179.717 192.937 179.152C192.937 178.608 193.262 178.336 193.913 178.336H195.577V171.04L194.041 171.984C193.891 172.069 193.758 172.112 193.641 172.112C193.417 172.112 193.225 172.016 193.065 171.824C192.915 171.632 192.841 171.419 192.841 171.184C192.841 170.875 192.979 170.635 193.257 170.464L195.737 168.928C196.057 168.736 196.361 168.64 196.649 168.64C196.947 168.64 197.187 168.731 197.369 168.912C197.55 169.093 197.641 169.344 197.641 169.664V178.336H199.321ZM202.882 174.4C202.541 174.4 202.258 174.288 202.034 174.064C201.81 173.829 201.698 173.541 201.698 173.2C201.698 172.859 201.81 172.576 202.034 172.352C202.258 172.128 202.541 172.016 202.882 172.016C203.224 172.016 203.506 172.128 203.73 172.352C203.954 172.576 204.066 172.859 204.066 173.2C204.066 173.541 203.954 173.829 203.73 174.064C203.506 174.288 203.224 174.4 202.882 174.4ZM202.882 180.096C202.541 180.096 202.258 179.984 202.034 179.76C201.81 179.525 201.698 179.237 201.698 178.896C201.698 178.555 201.81 178.272 202.034 178.048C202.258 177.813 202.541 177.696 202.882 177.696C203.224 177.696 203.506 177.813 203.73 178.048C203.954 178.272 204.066 178.555 204.066 178.896C204.066 179.237 203.954 179.525 203.73 179.76C203.506 179.984 203.224 180.096 202.882 180.096ZM209.667 180.144C208.334 180.144 207.315 179.653 206.611 178.672C205.907 177.68 205.555 176.24 205.555 174.352C205.555 172.475 205.907 171.045 206.611 170.064C207.315 169.072 208.334 168.576 209.667 168.576C211.001 168.576 212.019 169.072 212.723 170.064C213.427 171.045 213.779 172.475 213.779 174.352C213.779 176.229 213.427 177.664 212.723 178.656C212.019 179.648 211.001 180.144 209.667 180.144ZM209.667 178.528C210.393 178.528 210.921 178.197 211.251 177.536C211.582 176.864 211.747 175.803 211.747 174.352C211.747 172.891 211.582 171.835 211.251 171.184C210.921 170.523 210.393 170.192 209.667 170.192C208.942 170.192 208.414 170.523 208.083 171.184C207.753 171.845 207.587 172.901 207.587 174.352C207.587 175.803 207.753 176.864 208.083 177.536C208.414 178.197 208.942 178.528 209.667 178.528ZM219.261 180.144C217.928 180.144 216.909 179.653 216.205 178.672C215.501 177.68 215.149 176.24 215.149 174.352C215.149 172.475 215.501 171.045 216.205 170.064C216.909 169.072 217.928 168.576 219.261 168.576C220.594 168.576 221.613 169.072 222.317 170.064C223.021 171.045 223.373 172.475 223.373 174.352C223.373 176.229 223.021 177.664 222.317 178.656C221.613 179.648 220.594 180.144 219.261 180.144ZM219.261 178.528C219.986 178.528 220.514 178.197 220.845 177.536C221.176 176.864 221.341 175.803 221.341 174.352C221.341 172.891 221.176 171.835 220.845 171.184C220.514 170.523 219.986 170.192 219.261 170.192C218.536 170.192 218.008 170.523 217.677 171.184C217.346 171.845 217.181 172.901 217.181 174.352C217.181 175.803 217.346 176.864 217.677 177.536C218.008 178.197 218.536 178.528 219.261 178.528ZM233.934 171.984C234.606 171.984 235.204 172.155 235.726 172.496C236.26 172.837 236.67 173.323 236.958 173.952C237.257 174.571 237.406 175.285 237.406 176.096C237.406 176.907 237.257 177.616 236.958 178.224C236.67 178.832 236.265 179.301 235.742 179.632C235.22 179.963 234.617 180.128 233.934 180.128C233.38 180.128 232.884 180.011 232.446 179.776C232.009 179.541 231.673 179.216 231.438 178.8V182.064C231.438 182.341 231.348 182.56 231.166 182.72C230.985 182.88 230.745 182.96 230.446 182.96C230.148 182.96 229.902 182.875 229.71 182.704C229.529 182.533 229.438 182.309 229.438 182.032V172.96C229.438 172.672 229.524 172.443 229.694 172.272C229.876 172.101 230.116 172.016 230.414 172.016C230.713 172.016 230.953 172.101 231.134 172.272C231.316 172.443 231.406 172.672 231.406 172.96V173.36C231.641 172.923 231.977 172.587 232.414 172.352C232.862 172.107 233.369 171.984 233.934 171.984ZM233.406 178.576C234.036 178.576 234.526 178.363 234.878 177.936C235.23 177.499 235.406 176.885 235.406 176.096C235.406 175.285 235.23 174.656 234.878 174.208C234.526 173.76 234.036 173.536 233.406 173.536C232.766 173.536 232.27 173.755 231.918 174.192C231.577 174.629 231.406 175.253 231.406 176.064C231.406 176.864 231.577 177.483 231.918 177.92C232.27 178.357 232.766 178.576 233.406 178.576ZM248.344 171.984C249.197 171.984 249.848 172.24 250.296 172.752C250.754 173.253 250.984 174.069 250.984 175.2V179.136C250.984 179.445 250.888 179.685 250.696 179.856C250.514 180.016 250.274 180.096 249.976 180.096C249.688 180.096 249.448 180.016 249.256 179.856C249.074 179.685 248.984 179.445 248.984 179.136V175.2C248.984 174.613 248.877 174.197 248.664 173.952C248.461 173.696 248.146 173.568 247.72 173.568C247.197 173.568 246.781 173.749 246.472 174.112C246.162 174.464 246.008 174.949 246.008 175.568V179.136C246.008 179.445 245.912 179.685 245.72 179.856C245.538 180.016 245.304 180.096 245.016 180.096C244.728 180.096 244.488 180.016 244.296 179.856C244.104 179.685 244.008 179.445 244.008 179.136V175.2C244.008 174.613 243.901 174.197 243.688 173.952C243.485 173.696 243.17 173.568 242.744 173.568C242.221 173.568 241.805 173.749 241.496 174.112C241.197 174.464 241.048 174.949 241.048 175.568V179.136C241.048 179.445 240.952 179.685 240.76 179.856C240.568 180.016 240.328 180.096 240.04 180.096C239.752 180.096 239.512 180.016 239.32 179.856C239.138 179.685 239.048 179.445 239.048 179.136V172.944C239.048 172.645 239.144 172.416 239.336 172.256C239.528 172.096 239.768 172.016 240.056 172.016C240.333 172.016 240.557 172.096 240.728 172.256C240.909 172.405 241 172.624 241 172.912V173.296C241.245 172.869 241.57 172.544 241.976 172.32C242.392 172.096 242.866 171.984 243.4 171.984C244.573 171.984 245.357 172.475 245.752 173.456C245.986 173.008 246.333 172.651 246.792 172.384C247.25 172.117 247.768 171.984 248.344 171.984Z" fill="#6772E5"/>
<path d="M141 262C153.15 262 163 252.15 163 240C163 227.85 153.15 218 141 218C128.85 218 119 227.85 119 240C119 252.15 128.85 262 141 262Z" fill="#6772E5" fill-opacity="0.4"/>
<rect x="119" y="287" width="166" height="13" rx="6" fill="#F2F4F5"/>
<rect x="119" y="314" width="166" height="14" rx="6" fill="#F2F4F5"/>
<rect x="190" y="223" width="95" height="11" rx="5.5" fill="#F2F4F5"/>
<rect x="190" y="246" width="95" height="11" rx="5.5" fill="#F2F4F5"/>
<rect x="119" y="356" width="166" height="28" rx="6" fill="#6772E5"/>
<path d="M154.62 373.768C154.684 373.907 154.716 374.045 154.716 374.184C154.716 374.429 154.614 374.637 154.412 374.808C154.22 374.979 153.996 375.064 153.74 375.064C153.569 375.064 153.409 375.021 153.26 374.936C153.11 374.84 152.993 374.696 152.908 374.504L151.948 372.36H146.316L145.356 374.504C145.27 374.696 145.153 374.84 145.004 374.936C144.854 375.021 144.689 375.064 144.508 375.064C144.262 375.064 144.038 374.979 143.836 374.808C143.633 374.637 143.532 374.429 143.532 374.184C143.532 374.045 143.564 373.907 143.628 373.768L148.044 364.28C148.14 364.067 148.284 363.907 148.476 363.8C148.678 363.683 148.892 363.624 149.116 363.624C149.34 363.624 149.548 363.683 149.74 363.8C149.942 363.907 150.092 364.067 150.188 364.28L154.62 373.768ZM147.02 370.76H151.244L149.132 366.008L147.02 370.76ZM162.623 363.64C162.921 363.64 163.167 363.725 163.359 363.896C163.551 364.067 163.647 364.291 163.647 364.568V374.136C163.647 374.424 163.556 374.653 163.375 374.824C163.193 374.995 162.953 375.08 162.655 375.08C162.356 375.08 162.116 374.995 161.935 374.824C161.753 374.653 161.663 374.424 161.663 374.136V373.736C161.428 374.173 161.087 374.515 160.639 374.76C160.201 375.005 159.7 375.128 159.135 375.128C158.463 375.128 157.86 374.957 157.327 374.616C156.804 374.275 156.393 373.795 156.095 373.176C155.807 372.547 155.663 371.827 155.663 371.016C155.663 370.205 155.807 369.496 156.095 368.888C156.393 368.28 156.804 367.811 157.327 367.48C157.849 367.149 158.452 366.984 159.135 366.984C159.7 366.984 160.201 367.101 160.639 367.336C161.076 367.571 161.412 367.901 161.647 368.328V364.536C161.647 364.269 161.732 364.056 161.903 363.896C162.084 363.725 162.324 363.64 162.623 363.64ZM159.663 373.576C160.303 373.576 160.793 373.357 161.135 372.92C161.487 372.483 161.663 371.859 161.663 371.048C161.663 370.237 161.487 369.619 161.135 369.192C160.793 368.755 160.308 368.536 159.679 368.536C159.039 368.536 158.543 368.749 158.191 369.176C157.839 369.603 157.663 370.216 157.663 371.016C157.663 371.827 157.839 372.456 158.191 372.904C158.543 373.352 159.033 373.576 159.663 373.576ZM172.232 363.64C172.531 363.64 172.776 363.725 172.968 363.896C173.16 364.067 173.256 364.291 173.256 364.568V374.136C173.256 374.424 173.165 374.653 172.984 374.824C172.803 374.995 172.563 375.08 172.264 375.08C171.965 375.08 171.725 374.995 171.544 374.824C171.363 374.653 171.272 374.424 171.272 374.136V373.736C171.037 374.173 170.696 374.515 170.248 374.76C169.811 375.005 169.309 375.128 168.744 375.128C168.072 375.128 167.469 374.957 166.936 374.616C166.413 374.275 166.003 373.795 165.704 373.176C165.416 372.547 165.272 371.827 165.272 371.016C165.272 370.205 165.416 369.496 165.704 368.888C166.003 368.28 166.413 367.811 166.936 367.48C167.459 367.149 168.061 366.984 168.744 366.984C169.309 366.984 169.811 367.101 170.248 367.336C170.685 367.571 171.021 367.901 171.256 368.328V364.536C171.256 364.269 171.341 364.056 171.512 363.896C171.693 363.725 171.933 363.64 172.232 363.64ZM169.272 373.576C169.912 373.576 170.403 373.357 170.744 372.92C171.096 372.483 171.272 371.859 171.272 371.048C171.272 370.237 171.096 369.619 170.744 369.192C170.403 368.755 169.917 368.536 169.288 368.536C168.648 368.536 168.152 368.749 167.8 369.176C167.448 369.603 167.272 370.216 167.272 371.016C167.272 371.827 167.448 372.456 167.8 372.904C168.152 373.352 168.643 373.576 169.272 373.576ZM183.721 373.608C184.255 373.64 184.521 373.88 184.521 374.328C184.521 374.584 184.415 374.781 184.201 374.92C183.999 375.048 183.705 375.101 183.321 375.08L182.889 375.048C181.097 374.92 180.201 373.96 180.201 372.168V368.68H179.401C179.113 368.68 178.889 368.616 178.729 368.488C178.58 368.36 178.505 368.173 178.505 367.928C178.505 367.683 178.58 367.496 178.729 367.368C178.889 367.24 179.113 367.176 179.401 367.176H180.201V365.704C180.201 365.416 180.292 365.187 180.473 365.016C180.655 364.845 180.9 364.76 181.209 364.76C181.508 364.76 181.748 364.845 181.929 365.016C182.111 365.187 182.201 365.416 182.201 365.704V367.176H183.561C183.849 367.176 184.068 367.24 184.217 367.368C184.377 367.496 184.457 367.683 184.457 367.928C184.457 368.173 184.377 368.36 184.217 368.488C184.068 368.616 183.849 368.68 183.561 368.68H182.201V372.312C182.201 373.101 182.564 373.523 183.289 373.576L183.721 373.608ZM189.131 375.128C188.331 375.128 187.627 374.963 187.019 374.632C186.422 374.301 185.958 373.827 185.627 373.208C185.297 372.589 185.131 371.869 185.131 371.048C185.131 370.227 185.297 369.512 185.627 368.904C185.958 368.285 186.422 367.811 187.019 367.48C187.627 367.149 188.331 366.984 189.131 366.984C189.931 366.984 190.63 367.149 191.227 367.48C191.835 367.811 192.299 368.285 192.619 368.904C192.95 369.512 193.115 370.227 193.115 371.048C193.115 371.869 192.95 372.589 192.619 373.208C192.299 373.827 191.835 374.301 191.227 374.632C190.63 374.963 189.931 375.128 189.131 375.128ZM189.115 373.576C189.766 373.576 190.262 373.363 190.603 372.936C190.945 372.509 191.115 371.88 191.115 371.048C191.115 370.227 190.945 369.603 190.603 369.176C190.262 368.739 189.771 368.52 189.131 368.52C188.491 368.52 187.995 368.739 187.643 369.176C187.302 369.603 187.131 370.227 187.131 371.048C187.131 371.88 187.302 372.509 187.643 372.936C187.985 373.363 188.475 373.576 189.115 373.576ZM202.582 375.128C201.804 375.128 201.116 374.963 200.518 374.632C199.932 374.301 199.478 373.832 199.158 373.224C198.838 372.616 198.678 371.907 198.678 371.096C198.678 370.285 198.844 369.571 199.174 368.952C199.516 368.323 199.99 367.837 200.598 367.496C201.206 367.155 201.905 366.984 202.694 366.984C203.11 366.984 203.526 367.043 203.942 367.16C204.369 367.277 204.742 367.437 205.062 367.64C205.404 367.864 205.574 368.147 205.574 368.488C205.574 368.723 205.516 368.915 205.398 369.064C205.292 369.203 205.148 369.272 204.966 369.272C204.849 369.272 204.726 369.245 204.598 369.192C204.47 369.139 204.342 369.075 204.214 369C203.98 368.861 203.756 368.755 203.542 368.68C203.329 368.595 203.084 368.552 202.806 368.552C202.145 368.552 201.633 368.771 201.27 369.208C200.918 369.635 200.742 370.253 200.742 371.064C200.742 371.864 200.918 372.483 201.27 372.92C201.633 373.347 202.145 373.56 202.806 373.56C203.073 373.56 203.308 373.523 203.51 373.448C203.724 373.363 203.958 373.251 204.214 373.112C204.374 373.016 204.513 372.947 204.63 372.904C204.748 372.851 204.865 372.824 204.982 372.824C205.153 372.824 205.297 372.899 205.414 373.048C205.532 373.197 205.59 373.384 205.59 373.608C205.59 373.789 205.548 373.949 205.462 374.088C205.388 374.216 205.26 374.333 205.078 374.44C204.748 374.653 204.364 374.824 203.926 374.952C203.489 375.069 203.041 375.128 202.582 375.128ZM210.315 366.984C211.403 366.984 212.208 367.256 212.731 367.8C213.264 368.333 213.531 369.149 213.531 370.248V374.152C213.531 374.44 213.445 374.669 213.275 374.84C213.104 375 212.869 375.08 212.571 375.08C212.293 375.08 212.064 374.995 211.883 374.824C211.712 374.653 211.627 374.429 211.627 374.152V373.8C211.445 374.216 211.157 374.541 210.763 374.776C210.379 375.011 209.931 375.128 209.419 375.128C208.896 375.128 208.421 375.021 207.995 374.808C207.568 374.595 207.232 374.301 206.987 373.928C206.741 373.555 206.619 373.139 206.619 372.68C206.619 372.104 206.763 371.651 207.051 371.32C207.349 370.989 207.829 370.749 208.491 370.6C209.152 370.451 210.064 370.376 211.227 370.376H211.627V370.008C211.627 369.485 211.515 369.107 211.291 368.872C211.067 368.627 210.704 368.504 210.203 368.504C209.893 368.504 209.579 368.552 209.259 368.648C208.939 368.733 208.56 368.861 208.123 369.032C207.845 369.171 207.643 369.24 207.515 369.24C207.323 369.24 207.163 369.171 207.035 369.032C206.917 368.893 206.859 368.712 206.859 368.488C206.859 368.307 206.901 368.152 206.987 368.024C207.083 367.885 207.237 367.757 207.451 367.64C207.824 367.437 208.267 367.277 208.779 367.16C209.301 367.043 209.813 366.984 210.315 366.984ZM209.819 373.688C210.352 373.688 210.784 373.512 211.115 373.16C211.456 372.797 211.627 372.333 211.627 371.768V371.432H211.339C210.624 371.432 210.069 371.464 209.675 371.528C209.28 371.592 208.997 371.704 208.827 371.864C208.656 372.024 208.571 372.243 208.571 372.52C208.571 372.861 208.688 373.144 208.923 373.368C209.168 373.581 209.467 373.688 209.819 373.688ZM216.555 375.096C216.267 375.096 216.027 375.016 215.835 374.856C215.654 374.685 215.563 374.445 215.563 374.136V364.584C215.563 364.275 215.654 364.04 215.835 363.88C216.027 363.72 216.267 363.64 216.555 363.64C216.843 363.64 217.083 363.72 217.275 363.88C217.467 364.04 217.563 364.275 217.563 364.584V374.136C217.563 374.445 217.467 374.685 217.275 374.856C217.083 375.016 216.843 375.096 216.555 375.096ZM225.818 372.856C225.999 372.856 226.143 372.925 226.25 373.064C226.367 373.203 226.426 373.389 226.426 373.624C226.426 373.955 226.229 374.232 225.834 374.456C225.471 374.659 225.061 374.824 224.602 374.952C224.143 375.069 223.706 375.128 223.29 375.128C222.031 375.128 221.034 374.765 220.298 374.04C219.562 373.315 219.194 372.323 219.194 371.064C219.194 370.264 219.354 369.555 219.674 368.936C219.994 368.317 220.442 367.837 221.018 367.496C221.605 367.155 222.266 366.984 223.002 366.984C223.706 366.984 224.319 367.139 224.842 367.448C225.365 367.757 225.77 368.195 226.058 368.76C226.346 369.325 226.49 369.992 226.49 370.76C226.49 371.219 226.287 371.448 225.882 371.448H221.162C221.226 372.184 221.434 372.728 221.786 373.08C222.138 373.421 222.65 373.592 223.322 373.592C223.663 373.592 223.962 373.549 224.218 373.464C224.485 373.379 224.783 373.261 225.114 373.112C225.434 372.941 225.669 372.856 225.818 372.856ZM223.05 368.392C222.506 368.392 222.069 368.563 221.738 368.904C221.418 369.245 221.226 369.736 221.162 370.376H224.778C224.757 369.725 224.597 369.235 224.298 368.904C223.999 368.563 223.583 368.392 223.05 368.392ZM232.67 366.984C233.609 366.984 234.307 367.251 234.766 367.784C235.225 368.317 235.454 369.123 235.454 370.2V374.136C235.454 374.435 235.363 374.669 235.182 374.84C235.011 375.011 234.771 375.096 234.462 375.096C234.153 375.096 233.907 375.011 233.726 374.84C233.545 374.669 233.454 374.435 233.454 374.136V370.312C233.454 369.704 233.337 369.261 233.102 368.984C232.878 368.707 232.521 368.568 232.03 368.568C231.454 368.568 230.99 368.749 230.638 369.112C230.297 369.475 230.126 369.96 230.126 370.568V374.136C230.126 374.435 230.035 374.669 229.854 374.84C229.673 375.011 229.427 375.096 229.118 375.096C228.809 375.096 228.563 375.011 228.382 374.84C228.211 374.669 228.126 374.435 228.126 374.136V367.944C228.126 367.667 228.217 367.443 228.398 367.272C228.579 367.101 228.825 367.016 229.134 367.016C229.411 367.016 229.635 367.101 229.806 367.272C229.987 367.432 230.078 367.645 230.078 367.912V368.344C230.345 367.907 230.702 367.571 231.15 367.336C231.598 367.101 232.105 366.984 232.67 366.984ZM244.013 363.64C244.312 363.64 244.557 363.725 244.749 363.896C244.941 364.067 245.037 364.291 245.037 364.568V374.136C245.037 374.424 244.947 374.653 244.765 374.824C244.584 374.995 244.344 375.08 244.045 375.08C243.747 375.08 243.507 374.995 243.325 374.824C243.144 374.653 243.053 374.424 243.053 374.136V373.736C242.819 374.173 242.477 374.515 242.029 374.76C241.592 375.005 241.091 375.128 240.525 375.128C239.853 375.128 239.251 374.957 238.717 374.616C238.195 374.275 237.784 373.795 237.485 373.176C237.197 372.547 237.053 371.827 237.053 371.016C237.053 370.205 237.197 369.496 237.485 368.888C237.784 368.28 238.195 367.811 238.717 367.48C239.24 367.149 239.843 366.984 240.525 366.984C241.091 366.984 241.592 367.101 242.029 367.336C242.467 367.571 242.803 367.901 243.037 368.328V364.536C243.037 364.269 243.123 364.056 243.293 363.896C243.475 363.725 243.715 363.64 244.013 363.64ZM241.053 373.576C241.693 373.576 242.184 373.357 242.525 372.92C242.877 372.483 243.053 371.859 243.053 371.048C243.053 370.237 242.877 369.619 242.525 369.192C242.184 368.755 241.699 368.536 241.069 368.536C240.429 368.536 239.933 368.749 239.581 369.176C239.229 369.603 239.053 370.216 239.053 371.016C239.053 371.827 239.229 372.456 239.581 372.904C239.933 373.352 240.424 373.576 241.053 373.576ZM250.487 366.984C251.575 366.984 252.38 367.256 252.903 367.8C253.436 368.333 253.703 369.149 253.703 370.248V374.152C253.703 374.44 253.617 374.669 253.447 374.84C253.276 375 253.041 375.08 252.743 375.08C252.465 375.08 252.236 374.995 252.055 374.824C251.884 374.653 251.799 374.429 251.799 374.152V373.8C251.617 374.216 251.329 374.541 250.935 374.776C250.551 375.011 250.103 375.128 249.591 375.128C249.068 375.128 248.593 375.021 248.167 374.808C247.74 374.595 247.404 374.301 247.159 373.928C246.913 373.555 246.791 373.139 246.791 372.68C246.791 372.104 246.935 371.651 247.223 371.32C247.521 370.989 248.001 370.749 248.663 370.6C249.324 370.451 250.236 370.376 251.399 370.376H251.799V370.008C251.799 369.485 251.687 369.107 251.463 368.872C251.239 368.627 250.876 368.504 250.375 368.504C250.065 368.504 249.751 368.552 249.431 368.648C249.111 368.733 248.732 368.861 248.295 369.032C248.017 369.171 247.815 369.24 247.687 369.24C247.495 369.24 247.335 369.171 247.207 369.032C247.089 368.893 247.031 368.712 247.031 368.488C247.031 368.307 247.073 368.152 247.159 368.024C247.255 367.885 247.409 367.757 247.623 367.64C247.996 367.437 248.439 367.277 248.951 367.16C249.473 367.043 249.985 366.984 250.487 366.984ZM249.991 373.688C250.524 373.688 250.956 373.512 251.287 373.16C251.628 372.797 251.799 372.333 251.799 371.768V371.432H251.511C250.796 371.432 250.241 371.464 249.847 371.528C249.452 371.592 249.169 371.704 248.999 371.864C248.828 372.024 248.743 372.243 248.743 372.52C248.743 372.861 248.86 373.144 249.095 373.368C249.34 373.581 249.639 373.688 249.991 373.688ZM260.103 367.016C260.381 366.995 260.599 367.053 260.759 367.192C260.919 367.331 260.999 367.539 260.999 367.816C260.999 368.104 260.93 368.317 260.791 368.456C260.653 368.595 260.402 368.685 260.039 368.728L259.559 368.776C258.93 368.84 258.466 369.053 258.167 369.416C257.879 369.779 257.735 370.232 257.735 370.776V374.136C257.735 374.445 257.639 374.685 257.447 374.856C257.255 375.016 257.015 375.096 256.727 375.096C256.439 375.096 256.199 375.016 256.007 374.856C255.826 374.685 255.735 374.445 255.735 374.136V367.944C255.735 367.645 255.826 367.416 256.007 367.256C256.199 367.096 256.434 367.016 256.711 367.016C256.989 367.016 257.213 367.096 257.383 367.256C257.554 367.405 257.639 367.624 257.639 367.912V368.552C257.842 368.083 258.141 367.72 258.535 367.464C258.941 367.208 259.389 367.064 259.879 367.032L260.103 367.016Z" fill="white"/>
<rect x="119" y="32" width="30" height="30" rx="15" fill="#F2F4F5"/>
<path d="M143.056 97.922C143.112 98.0433 143.14 98.1647 143.14 98.286C143.14 98.5007 143.051 98.6827 142.874 98.832C142.706 98.9813 142.51 99.056 142.286 99.056C142.137 99.056 141.997 99.0187 141.866 98.944C141.735 98.86 141.633 98.734 141.558 98.566L140.718 96.69H135.79L134.95 98.566C134.875 98.734 134.773 98.86 134.642 98.944C134.511 99.0187 134.367 99.056 134.208 99.056C133.993 99.056 133.797 98.9813 133.62 98.832C133.443 98.6827 133.354 98.5007 133.354 98.286C133.354 98.1647 133.382 98.0433 133.438 97.922L137.302 89.62C137.386 89.4333 137.512 89.2933 137.68 89.2C137.857 89.0973 138.044 89.046 138.24 89.046C138.436 89.046 138.618 89.0973 138.786 89.2C138.963 89.2933 139.094 89.4333 139.178 89.62L143.056 97.922ZM136.406 95.29H140.102L138.254 91.132L136.406 95.29ZM148.281 91.986C148.869 91.986 149.391 92.1353 149.849 92.434C150.315 92.7327 150.675 93.1573 150.927 93.708C151.188 94.2493 151.319 94.8747 151.319 95.584C151.319 96.2933 151.188 96.914 150.927 97.446C150.675 97.978 150.32 98.3887 149.863 98.678C149.405 98.9673 148.878 99.112 148.281 99.112C147.795 99.112 147.361 99.0093 146.979 98.804C146.596 98.5987 146.302 98.314 146.097 97.95V100.806C146.097 101.049 146.017 101.24 145.859 101.38C145.7 101.52 145.49 101.59 145.229 101.59C144.967 101.59 144.753 101.515 144.585 101.366C144.426 101.217 144.347 101.021 144.347 100.778V92.84C144.347 92.588 144.421 92.3873 144.571 92.238C144.729 92.0887 144.939 92.014 145.201 92.014C145.462 92.014 145.672 92.0887 145.831 92.238C145.989 92.3873 146.069 92.588 146.069 92.84V93.19C146.274 92.8073 146.568 92.5133 146.951 92.308C147.343 92.0933 147.786 91.986 148.281 91.986ZM147.819 97.754C148.369 97.754 148.799 97.5673 149.107 97.194C149.415 96.8113 149.569 96.2747 149.569 95.584C149.569 94.8747 149.415 94.324 149.107 93.932C148.799 93.54 148.369 93.344 147.819 93.344C147.259 93.344 146.825 93.5353 146.517 93.918C146.218 94.3007 146.069 94.8467 146.069 95.556C146.069 96.256 146.218 96.7973 146.517 97.18C146.825 97.5627 147.259 97.754 147.819 97.754ZM156.689 91.986C157.277 91.986 157.799 92.1353 158.257 92.434C158.723 92.7327 159.083 93.1573 159.335 93.708C159.596 94.2493 159.727 94.8747 159.727 95.584C159.727 96.2933 159.596 96.914 159.335 97.446C159.083 97.978 158.728 98.3887 158.271 98.678C157.813 98.9673 157.286 99.112 156.689 99.112C156.203 99.112 155.769 99.0093 155.387 98.804C155.004 98.5987 154.71 98.314 154.505 97.95V100.806C154.505 101.049 154.425 101.24 154.267 101.38C154.108 101.52 153.898 101.59 153.637 101.59C153.375 101.59 153.161 101.515 152.993 101.366C152.834 101.217 152.755 101.021 152.755 100.778V92.84C152.755 92.588 152.829 92.3873 152.979 92.238C153.137 92.0887 153.347 92.014 153.609 92.014C153.87 92.014 154.08 92.0887 154.239 92.238C154.397 92.3873 154.477 92.588 154.477 92.84V93.19C154.682 92.8073 154.976 92.5133 155.359 92.308C155.751 92.0933 156.194 91.986 156.689 91.986ZM156.227 97.754C156.777 97.754 157.207 97.5673 157.515 97.194C157.823 96.8113 157.977 96.2747 157.977 95.584C157.977 94.8747 157.823 94.324 157.515 93.932C157.207 93.54 156.777 93.344 156.227 93.344C155.667 93.344 155.233 93.5353 154.925 93.918C154.626 94.3007 154.477 94.8467 154.477 95.556C154.477 96.256 154.626 96.7973 154.925 97.18C155.233 97.5627 155.667 97.754 156.227 97.754ZM164.285 99.112C163.585 99.112 162.969 98.9673 162.437 98.678C161.914 98.3887 161.508 97.9733 161.219 97.432C160.93 96.8907 160.785 96.2607 160.785 95.542C160.785 94.8233 160.93 94.198 161.219 93.666C161.508 93.1247 161.914 92.7093 162.437 92.42C162.969 92.1307 163.585 91.986 164.285 91.986C164.985 91.986 165.596 92.1307 166.119 92.42C166.651 92.7093 167.057 93.1247 167.337 93.666C167.626 94.198 167.771 94.8233 167.771 95.542C167.771 96.2607 167.626 96.8907 167.337 97.432C167.057 97.9733 166.651 98.3887 166.119 98.678C165.596 98.9673 164.985 99.112 164.285 99.112ZM164.271 97.754C164.84 97.754 165.274 97.5673 165.573 97.194C165.872 96.8207 166.021 96.27 166.021 95.542C166.021 94.8233 165.872 94.2773 165.573 93.904C165.274 93.5213 164.845 93.33 164.285 93.33C163.725 93.33 163.291 93.5213 162.983 93.904C162.684 94.2773 162.535 94.8233 162.535 95.542C162.535 96.27 162.684 96.8207 162.983 97.194C163.282 97.5673 163.711 97.754 164.271 97.754ZM170.084 99.084C169.832 99.084 169.622 99.014 169.454 98.874C169.295 98.7247 169.216 98.5147 169.216 98.244V92.84C169.216 92.5693 169.295 92.364 169.454 92.224C169.622 92.084 169.832 92.014 170.084 92.014C170.336 92.014 170.546 92.084 170.714 92.224C170.882 92.364 170.966 92.5693 170.966 92.84V98.244C170.966 98.5147 170.882 98.7247 170.714 98.874C170.546 99.014 170.336 99.084 170.084 99.084ZM170.084 90.768C169.766 90.768 169.514 90.684 169.328 90.516C169.141 90.3387 169.048 90.11 169.048 89.83C169.048 89.55 169.141 89.326 169.328 89.158C169.514 88.99 169.766 88.906 170.084 88.906C170.392 88.906 170.639 88.99 170.826 89.158C171.022 89.326 171.12 89.55 171.12 89.83C171.12 90.11 171.026 90.3387 170.84 90.516C170.653 90.684 170.401 90.768 170.084 90.768ZM176.746 91.986C177.568 91.986 178.179 92.2193 178.58 92.686C178.982 93.1527 179.182 93.8573 179.182 94.8V98.244C179.182 98.5053 179.103 98.7107 178.944 98.86C178.795 99.0093 178.585 99.084 178.314 99.084C178.044 99.084 177.829 99.0093 177.67 98.86C177.512 98.7107 177.432 98.5053 177.432 98.244V94.898C177.432 94.366 177.33 93.9787 177.124 93.736C176.928 93.4933 176.616 93.372 176.186 93.372C175.682 93.372 175.276 93.5307 174.968 93.848C174.67 94.1653 174.52 94.59 174.52 95.122V98.244C174.52 98.5053 174.441 98.7107 174.282 98.86C174.124 99.0093 173.909 99.084 173.638 99.084C173.368 99.084 173.153 99.0093 172.994 98.86C172.845 98.7107 172.77 98.5053 172.77 98.244V92.826C172.77 92.5833 172.85 92.3873 173.008 92.238C173.167 92.0887 173.382 92.014 173.652 92.014C173.895 92.014 174.091 92.0887 174.24 92.238C174.399 92.378 174.478 92.5647 174.478 92.798V93.176C174.712 92.7933 175.024 92.4993 175.416 92.294C175.808 92.0887 176.252 91.986 176.746 91.986ZM184.516 97.782C184.982 97.81 185.216 98.02 185.216 98.412C185.216 98.636 185.122 98.8087 184.936 98.93C184.758 99.042 184.502 99.0887 184.166 99.07L183.788 99.042C182.22 98.93 181.436 98.09 181.436 96.522V93.47H180.736C180.484 93.47 180.288 93.414 180.148 93.302C180.017 93.19 179.952 93.0267 179.952 92.812C179.952 92.5973 180.017 92.434 180.148 92.322C180.288 92.21 180.484 92.154 180.736 92.154H181.436V90.866C181.436 90.614 181.515 90.4133 181.674 90.264C181.832 90.1147 182.047 90.04 182.318 90.04C182.579 90.04 182.789 90.1147 182.948 90.264C183.106 90.4133 183.186 90.614 183.186 90.866V92.154H184.376C184.628 92.154 184.819 92.21 184.95 92.322C185.09 92.434 185.16 92.5973 185.16 92.812C185.16 93.0267 185.09 93.19 184.95 93.302C184.819 93.414 184.628 93.47 184.376 93.47H183.186V96.648C183.186 97.3387 183.503 97.7073 184.138 97.754L184.516 97.782ZM194.262 91.986C195.008 91.986 195.578 92.21 195.97 92.658C196.371 93.0967 196.572 93.8107 196.572 94.8V98.244C196.572 98.5147 196.488 98.7247 196.32 98.874C196.161 99.014 195.951 99.084 195.69 99.084C195.438 99.084 195.228 99.014 195.06 98.874C194.901 98.7247 194.822 98.5147 194.822 98.244V94.8C194.822 94.2867 194.728 93.9227 194.542 93.708C194.364 93.484 194.089 93.372 193.716 93.372C193.258 93.372 192.894 93.5307 192.624 93.848C192.353 94.156 192.218 94.5807 192.218 95.122V98.244C192.218 98.5147 192.134 98.7247 191.966 98.874C191.807 99.014 191.602 99.084 191.35 99.084C191.098 99.084 190.888 99.014 190.72 98.874C190.552 98.7247 190.468 98.5147 190.468 98.244V94.8C190.468 94.2867 190.374 93.9227 190.188 93.708C190.01 93.484 189.735 93.372 189.362 93.372C188.904 93.372 188.54 93.5307 188.27 93.848C188.008 94.156 187.878 94.5807 187.878 95.122V98.244C187.878 98.5147 187.794 98.7247 187.626 98.874C187.458 99.014 187.248 99.084 186.996 99.084C186.744 99.084 186.534 99.014 186.366 98.874C186.207 98.7247 186.128 98.5147 186.128 98.244V92.826C186.128 92.5647 186.212 92.364 186.38 92.224C186.548 92.084 186.758 92.014 187.01 92.014C187.252 92.014 187.448 92.084 187.598 92.224C187.756 92.3547 187.836 92.546 187.836 92.798V93.134C188.05 92.7607 188.335 92.476 188.69 92.28C189.054 92.084 189.469 91.986 189.936 91.986C190.962 91.986 191.648 92.4153 191.994 93.274C192.199 92.882 192.502 92.5693 192.904 92.336C193.305 92.1027 193.758 91.986 194.262 91.986ZM203.768 97.124C203.927 97.124 204.053 97.1847 204.146 97.306C204.249 97.4273 204.3 97.5907 204.3 97.796C204.3 98.0853 204.128 98.328 203.782 98.524C203.465 98.7013 203.106 98.846 202.704 98.958C202.303 99.0607 201.92 99.112 201.556 99.112C200.455 99.112 199.582 98.7947 198.938 98.16C198.294 97.5253 197.972 96.6573 197.972 95.556C197.972 94.856 198.112 94.2353 198.392 93.694C198.672 93.1527 199.064 92.7327 199.568 92.434C200.082 92.1353 200.66 91.986 201.304 91.986C201.92 91.986 202.457 92.1213 202.914 92.392C203.372 92.6627 203.726 93.0453 203.978 93.54C204.23 94.0347 204.356 94.618 204.356 95.29C204.356 95.6913 204.179 95.892 203.824 95.892H199.694C199.75 96.536 199.932 97.012 200.24 97.32C200.548 97.6187 200.996 97.768 201.584 97.768C201.883 97.768 202.144 97.7307 202.368 97.656C202.602 97.5813 202.863 97.4787 203.152 97.348C203.432 97.1987 203.638 97.124 203.768 97.124ZM201.346 93.218C200.87 93.218 200.488 93.3673 200.198 93.666C199.918 93.9647 199.75 94.394 199.694 94.954H202.858C202.84 94.3847 202.7 93.9553 202.438 93.666C202.177 93.3673 201.813 93.218 201.346 93.218ZM209.764 91.986C210.585 91.986 211.197 92.2193 211.598 92.686C211.999 93.1527 212.2 93.8573 212.2 94.8V98.244C212.2 98.5053 212.121 98.7107 211.962 98.86C211.813 99.0093 211.603 99.084 211.332 99.084C211.061 99.084 210.847 99.0093 210.688 98.86C210.529 98.7107 210.45 98.5053 210.45 98.244V94.898C210.45 94.366 210.347 93.9787 210.142 93.736C209.946 93.4933 209.633 93.372 209.204 93.372C208.7 93.372 208.294 93.5307 207.986 93.848C207.687 94.1653 207.538 94.59 207.538 95.122V98.244C207.538 98.5053 207.459 98.7107 207.3 98.86C207.141 99.0093 206.927 99.084 206.656 99.084C206.385 99.084 206.171 99.0093 206.012 98.86C205.863 98.7107 205.788 98.5053 205.788 98.244V92.826C205.788 92.5833 205.867 92.3873 206.026 92.238C206.185 92.0887 206.399 92.014 206.67 92.014C206.913 92.014 207.109 92.0887 207.258 92.238C207.417 92.378 207.496 92.5647 207.496 92.798V93.176C207.729 92.7933 208.042 92.4993 208.434 92.294C208.826 92.0887 209.269 91.986 209.764 91.986ZM217.533 97.782C218 97.81 218.233 98.02 218.233 98.412C218.233 98.636 218.14 98.8087 217.953 98.93C217.776 99.042 217.519 99.0887 217.183 99.07L216.805 99.042C215.237 98.93 214.453 98.09 214.453 96.522V93.47H213.753C213.501 93.47 213.305 93.414 213.165 93.302C213.035 93.19 212.969 93.0267 212.969 92.812C212.969 92.5973 213.035 92.434 213.165 92.322C213.305 92.21 213.501 92.154 213.753 92.154H214.453V90.866C214.453 90.614 214.533 90.4133 214.691 90.264C214.85 90.1147 215.065 90.04 215.335 90.04C215.597 90.04 215.807 90.1147 215.965 90.264C216.124 90.4133 216.203 90.614 216.203 90.866V92.154H217.393C217.645 92.154 217.837 92.21 217.967 92.322C218.107 92.434 218.177 92.5973 218.177 92.812C218.177 93.0267 218.107 93.19 217.967 93.302C217.837 93.414 217.645 93.47 217.393 93.47H216.203V96.648C216.203 97.3387 216.521 97.7073 217.155 97.754L217.533 97.782ZM229.176 93.904C229.745 94.0627 230.184 94.352 230.492 94.772C230.809 95.192 230.968 95.7053 230.968 96.312C230.968 97.152 230.665 97.81 230.058 98.286C229.461 98.762 228.635 99 227.58 99H223.968C223.697 99 223.483 98.9253 223.324 98.776C223.175 98.6267 223.1 98.4167 223.1 98.146V89.984C223.1 89.7133 223.175 89.5033 223.324 89.354C223.483 89.2047 223.697 89.13 223.968 89.13H227.44C228.467 89.13 229.269 89.3587 229.848 89.816C230.436 90.264 230.73 90.894 230.73 91.706C230.73 92.2287 230.59 92.6813 230.31 93.064C230.039 93.4467 229.661 93.7267 229.176 93.904ZM224.864 93.288H227.146C228.387 93.288 229.008 92.826 229.008 91.902C229.008 91.4353 228.854 91.09 228.546 90.866C228.238 90.642 227.771 90.53 227.146 90.53H224.864V93.288ZM227.384 97.6C228.037 97.6 228.513 97.4833 228.812 97.25C229.111 97.0167 229.26 96.6527 229.26 96.158C229.26 95.6633 229.106 95.2947 228.798 95.052C228.499 94.8093 228.028 94.688 227.384 94.688H224.864V97.6H227.384ZM235.625 99.112C234.925 99.112 234.309 98.9673 233.777 98.678C233.254 98.3887 232.848 97.9733 232.559 97.432C232.269 96.8907 232.125 96.2607 232.125 95.542C232.125 94.8233 232.269 94.198 232.559 93.666C232.848 93.1247 233.254 92.7093 233.777 92.42C234.309 92.1307 234.925 91.986 235.625 91.986C236.325 91.986 236.936 92.1307 237.459 92.42C237.991 92.7093 238.397 93.1247 238.677 93.666C238.966 94.198 239.111 94.8233 239.111 95.542C239.111 96.2607 238.966 96.8907 238.677 97.432C238.397 97.9733 237.991 98.3887 237.459 98.678C236.936 98.9673 236.325 99.112 235.625 99.112ZM235.611 97.754C236.18 97.754 236.614 97.5673 236.913 97.194C237.211 96.8207 237.361 96.27 237.361 95.542C237.361 94.8233 237.211 94.2773 236.913 93.904C236.614 93.5213 236.185 93.33 235.625 93.33C235.065 93.33 234.631 93.5213 234.323 93.904C234.024 94.2773 233.875 94.8233 233.875 95.542C233.875 96.27 234.024 96.8207 234.323 97.194C234.621 97.5673 235.051 97.754 235.611 97.754ZM243.678 99.112C242.978 99.112 242.362 98.9673 241.83 98.678C241.307 98.3887 240.901 97.9733 240.612 97.432C240.322 96.8907 240.178 96.2607 240.178 95.542C240.178 94.8233 240.322 94.198 240.612 93.666C240.901 93.1247 241.307 92.7093 241.83 92.42C242.362 92.1307 242.978 91.986 243.678 91.986C244.378 91.986 244.989 92.1307 245.512 92.42C246.044 92.7093 246.45 93.1247 246.73 93.666C247.019 94.198 247.164 94.8233 247.164 95.542C247.164 96.2607 247.019 96.8907 246.73 97.432C246.45 97.9733 246.044 98.3887 245.512 98.678C244.989 98.9673 244.378 99.112 243.678 99.112ZM243.664 97.754C244.233 97.754 244.667 97.5673 244.966 97.194C245.264 96.8207 245.414 96.27 245.414 95.542C245.414 94.8233 245.264 94.2773 244.966 93.904C244.667 93.5213 244.238 93.33 243.678 93.33C243.118 93.33 242.684 93.5213 242.376 93.904C242.077 94.2773 241.928 94.8233 241.928 95.542C241.928 96.27 242.077 96.8207 242.376 97.194C242.674 97.5673 243.104 97.754 243.664 97.754ZM254.698 97.642C254.885 97.8193 254.978 98.02 254.978 98.244C254.978 98.4587 254.899 98.65 254.74 98.818C254.591 98.986 254.414 99.07 254.208 99.07C254.003 99.07 253.812 98.986 253.634 98.818L250.358 95.85V98.244C250.358 98.5147 250.274 98.72 250.106 98.86C249.938 99 249.728 99.07 249.476 99.07C249.224 99.07 249.014 99 248.846 98.86C248.688 98.72 248.608 98.5147 248.608 98.244V89.886C248.608 89.6153 248.688 89.41 248.846 89.27C249.014 89.13 249.224 89.06 249.476 89.06C249.728 89.06 249.938 89.13 250.106 89.27C250.274 89.41 250.358 89.6153 250.358 89.886V95.15L253.354 92.28C253.522 92.112 253.714 92.028 253.928 92.028C254.143 92.028 254.33 92.1073 254.488 92.266C254.647 92.4247 254.726 92.6113 254.726 92.826C254.726 93.0407 254.638 93.2367 254.46 93.414L252.262 95.458L254.698 97.642ZM261.436 97.124C261.595 97.124 261.721 97.1847 261.814 97.306C261.917 97.4273 261.968 97.5907 261.968 97.796C261.968 98.0853 261.796 98.328 261.45 98.524C261.133 98.7013 260.774 98.846 260.372 98.958C259.971 99.0607 259.588 99.112 259.224 99.112C258.123 99.112 257.25 98.7947 256.606 98.16C255.962 97.5253 255.64 96.6573 255.64 95.556C255.64 94.856 255.78 94.2353 256.06 93.694C256.34 93.1527 256.732 92.7327 257.236 92.434C257.75 92.1353 258.328 91.986 258.972 91.986C259.588 91.986 260.125 92.1213 260.582 92.392C261.04 92.6627 261.394 93.0453 261.646 93.54C261.898 94.0347 262.024 94.618 262.024 95.29C262.024 95.6913 261.847 95.892 261.492 95.892H257.362C257.418 96.536 257.6 97.012 257.908 97.32C258.216 97.6187 258.664 97.768 259.252 97.768C259.551 97.768 259.812 97.7307 260.036 97.656C260.27 97.5813 260.531 97.4787 260.82 97.348C261.1 97.1987 261.306 97.124 261.436 97.124ZM259.014 93.218C258.538 93.218 258.156 93.3673 257.866 93.666C257.586 93.9647 257.418 94.394 257.362 94.954H260.526C260.508 94.3847 260.368 93.9553 260.106 93.666C259.845 93.3673 259.481 93.218 259.014 93.218ZM269.168 89.06C269.429 89.06 269.644 89.1347 269.812 89.284C269.98 89.4333 270.064 89.6293 270.064 89.872V98.244C270.064 98.496 269.985 98.6967 269.826 98.846C269.667 98.9953 269.457 99.07 269.196 99.07C268.935 99.07 268.725 98.9953 268.566 98.846C268.407 98.6967 268.328 98.496 268.328 98.244V97.894C268.123 98.2767 267.824 98.5753 267.432 98.79C267.049 99.0047 266.611 99.112 266.116 99.112C265.528 99.112 265.001 98.9627 264.534 98.664C264.077 98.3653 263.717 97.9453 263.456 97.404C263.204 96.8533 263.078 96.2233 263.078 95.514C263.078 94.8047 263.204 94.184 263.456 93.652C263.717 93.12 264.077 92.7093 264.534 92.42C264.991 92.1307 265.519 91.986 266.116 91.986C266.611 91.986 267.049 92.0887 267.432 92.294C267.815 92.4993 268.109 92.7887 268.314 93.162V89.844C268.314 89.6107 268.389 89.424 268.538 89.284C268.697 89.1347 268.907 89.06 269.168 89.06ZM266.578 97.754C267.138 97.754 267.567 97.5627 267.866 97.18C268.174 96.7973 268.328 96.2513 268.328 95.542C268.328 94.8327 268.174 94.2913 267.866 93.918C267.567 93.5353 267.143 93.344 266.592 93.344C266.032 93.344 265.598 93.5307 265.29 93.904C264.982 94.2773 264.828 94.814 264.828 95.514C264.828 96.2233 264.982 96.774 265.29 97.166C265.598 97.558 266.027 97.754 266.578 97.754Z" fill="#6772E5"/>
<rect x="167" y="32" width="118" height="30" rx="8" fill="#F2F4F5"/>
<g filter="url(#filter1_d)">
<rect x="273" y="112" width="73" height="71" rx="12" fill="white"/>
</g>
<path d="M330.494 159.056C330.876 158.369 330.578 157.515 329.873 157.171C329.164 156.825 328.313 157.125 327.923 157.812C326.699 159.966 325.11 161.871 323.187 163.489C314.299 170.964 300.972 169.764 293.478 160.813C285.985 151.861 287.12 138.497 296.008 131.022C304.896 123.546 318.223 124.747 325.716 133.698C327.93 136.342 329.442 139.411 330.173 142.705L328.851 141.585C328.252 141.078 327.355 141.155 326.85 141.757C326.346 142.357 326.422 143.252 327.02 143.758L331.297 147.378C331.718 147.735 332.35 147.681 332.705 147.258L336.282 142.998C336.789 142.395 336.712 141.495 336.112 140.987C335.51 140.477 334.609 140.554 334.101 141.159L333.023 142.443C332.224 138.571 330.479 134.964 327.889 131.87C323.77 126.949 317.995 123.923 311.627 123.35C305.259 122.776 299.061 124.723 294.175 128.833C289.289 132.943 286.3 138.722 285.758 145.108C285.216 151.493 287.186 157.72 291.305 162.641C295.424 167.561 301.2 170.587 307.567 171.161C313.935 171.735 320.133 169.787 325.019 165.678C327.254 163.798 329.091 161.575 330.494 159.056Z" fill="#6772E5"/>
<path d="M296 147C296 154.72 302.28 161 310 161C317.72 161 324 154.72 324 147C324 139.28 317.72 133 310 133C302.28 133 296 139.28 296 147ZM321.276 147C321.276 153.218 316.218 158.276 310 158.276C303.782 158.276 298.724 153.218 298.724 147C298.724 140.782 303.782 135.724 310 135.724C316.218 135.724 321.276 140.782 321.276 147Z" fill="#6772E5"/>
<path d="M310.024 141.012C310.024 140.453 309.571 140 309.012 140C308.453 140 308 140.453 308 141.012V148.81L314.159 152.833C314.659 153.159 315.33 152.994 315.621 152.474C315.887 151.999 315.738 151.4 315.281 151.105L310.024 147.709V141.012Z" fill="#6772E5" stroke="#6772E5" stroke-width="0.5"/>
<g filter="url(#filter2_d)">
<rect x="24" y="316" width="105" height="105" rx="12" fill="white"/>
</g>
<path d="M66.9704 400.94H98.5965C101.91 400.94 104.596 398.254 104.596 394.94V358.817C104.596 355.503 101.91 352.817 98.5965 352.817H49.6781C46.3644 352.817 43.6781 355.503 43.6781 358.817V375.916" stroke="#D7DEE2" stroke-width="2" stroke-linecap="round"/>
<path d="M56.2067 373.029C48.789 373.029 42.7822 379.497 42.7822 387.466C42.7822 395.435 48.789 401.903 56.2067 401.903C63.6378 401.903 69.658 395.435 69.658 387.466C69.658 379.497 63.6378 373.029 56.2067 373.029ZM56.2201 399.015C50.2806 399.015 45.4698 393.847 45.4698 387.466C45.4698 381.085 50.2806 375.916 56.2201 375.916C62.1597 375.916 66.9704 381.085 66.9704 387.466C66.9704 393.847 62.1597 399.015 56.2201 399.015Z" fill="#D7DEE2"/>
<path d="M56.8923 381.255C56.8923 380.699 56.4411 380.247 55.8845 380.247C55.3279 380.247 54.8766 380.699 54.8766 381.255V388.91L61.0273 392.874C61.5182 393.191 62.1743 393.03 62.4626 392.522C62.7298 392.051 62.5813 391.453 62.1248 391.162L56.8923 387.827V381.255Z" fill="#D7DEE2" stroke="#D7DEE2" stroke-width="0.5"/>
<ellipse rx="2.23965" ry="2.40617" transform="matrix(-1 0 0 1 91.6064 366.773)" fill="#D7DEE2"/>
<ellipse rx="2.23965" ry="2.40617" transform="matrix(-1 0 0 1 91.6064 379.285)" fill="#D7DEE2"/>
<ellipse rx="2.23965" ry="2.40617" transform="matrix(-1 0 0 1 91.6064 391.797)" fill="#D7DEE2"/>
<ellipse rx="2.23965" ry="2.40617" transform="matrix(-1 0 0 1 79.9602 366.773)" fill="#D7DEE2"/>
<ellipse rx="2.23965" ry="2.40617" transform="matrix(-1 0 0 1 79.9602 379.285)" fill="#6772E5"/>
<ellipse rx="2.23965" ry="2.40617" transform="matrix(-1 0 0 1 79.9602 391.797)" fill="#D7DEE2"/>
<ellipse rx="2.23965" ry="2.40617" transform="matrix(-1 0 0 1 68.314 366.773)" fill="#D7DEE2"/>
<ellipse rx="2.23965" ry="2.40617" transform="matrix(-1 0 0 1 56.668 366.773)" fill="#D7DEE2"/>
<rect width="3.58344" height="9.62468" rx="1.79172" transform="matrix(-1 0 0 1 93.3972 347.042)" fill="#D7DEE2"/>
<rect width="3.58344" height="9.62468" rx="1.79172" transform="matrix(-1 0 0 1 75.9287 347.042)" fill="#D7DEE2"/>
<rect width="3.58344" height="9.62468" rx="1.79172" transform="matrix(-1 0 0 1 58.4597 347.042)" fill="#D7DEE2"/>
<g filter="url(#filter3_d)">
<ellipse cx="103.793" cy="346.158" rx="13.2074" ry="14.1576" fill="white"/>
</g>
<mask id="path-34-inside-1" fill="white">
<path d="M98.9667 338.667C99.3527 338.277 99.4107 337.645 99.0408 337.239C98.7011 336.867 98.1246 336.825 97.7688 337.182C96.1753 338.782 95.0865 340.96 94.7831 343.414C94.7197 343.926 95.1359 344.357 95.6522 344.357C96.136 344.357 96.5301 343.977 96.5999 343.498C96.877 341.599 97.732 339.915 98.9667 338.667ZM110.85 343.499C110.92 343.977 111.314 344.357 111.797 344.357C112.313 344.357 112.729 343.925 112.665 343.413C112.355 340.962 111.268 338.786 109.683 337.186C109.327 336.827 108.749 336.869 108.409 337.244C108.043 337.648 108.101 338.275 108.483 338.663C109.711 339.912 110.572 341.598 110.85 343.499ZM109.153 344.853C109.153 341.809 107.669 339.26 105.082 338.586V337.912C105.082 337.089 104.476 336.424 103.725 336.424C102.974 336.424 102.368 337.089 102.368 337.912V338.586C99.772 339.26 98.2975 341.799 98.2975 344.853V349.81L96.675 351.589C96.5549 351.721 96.4883 351.892 96.4883 352.071C96.4883 352.465 96.8082 352.785 97.2029 352.785H110.247C110.642 352.785 110.962 352.465 110.962 352.071C110.962 351.892 110.895 351.721 110.775 351.589L109.153 349.81V344.853ZM103.725 355.76C104.556 355.76 105.262 355.112 105.466 354.272C105.531 354.004 105.301 353.777 105.025 353.777H102.411C102.133 353.777 101.903 354.006 101.968 354.276C102.175 355.127 102.88 355.76 103.725 355.76Z"/>
</mask>
<path d="M105.082 338.586H103.082V340.132L104.578 340.521L105.082 338.586ZM102.368 338.586L102.871 340.522L104.368 340.133V338.586H102.368ZM98.2975 349.81L99.775 351.158L100.297 350.586V349.81H98.2975ZM109.153 349.81H107.153V350.586L107.675 351.158L109.153 349.81ZM105.466 354.272L103.522 353.8L105.466 354.272ZM110.775 351.589L109.298 352.937L110.775 351.589ZM108.483 338.663L109.908 337.26L108.483 338.663ZM109.683 337.186L111.103 335.778L109.683 337.186ZM96.675 351.589L95.1974 350.241L96.675 351.589ZM112.665 343.413L114.649 343.163L112.665 343.413ZM110.85 343.499L108.871 343.789L110.85 343.499ZM97.7688 337.182L99.1859 338.593L97.7688 337.182ZM98.9667 338.667L97.5447 337.26L98.9667 338.667ZM96.3517 335.771C94.4406 337.69 93.1554 340.28 92.7982 343.169L96.7679 343.66C97.0176 341.641 97.9099 339.875 99.1859 338.593L96.3517 335.771ZM98.579 343.787C98.7957 342.302 99.4604 341.012 100.389 340.073L97.5447 337.26C96.0035 338.819 94.9583 340.897 94.6209 343.209L98.579 343.787ZM114.649 343.163C114.285 340.28 113.004 337.695 111.103 335.778L108.262 338.594C109.533 339.876 110.426 341.643 110.68 343.663L114.649 343.163ZM107.057 340.066C107.985 341.009 108.654 342.303 108.871 343.789L112.829 343.21C112.49 340.893 111.438 338.816 109.908 337.26L107.057 340.066ZM111.153 344.853C111.153 341.24 109.347 337.631 105.586 336.651L104.578 340.521C105.992 340.89 107.153 342.377 107.153 344.853H111.153ZM107.082 338.586V337.912H103.082V338.586H107.082ZM107.082 337.912C107.082 336.161 105.749 334.424 103.725 334.424V338.424C103.488 338.424 103.306 338.315 103.208 338.207C103.113 338.103 103.082 337.993 103.082 337.912H107.082ZM103.725 334.424C101.701 334.424 100.368 336.161 100.368 337.912H104.368C104.368 337.993 104.338 338.103 104.243 338.207C104.145 338.315 103.963 338.424 103.725 338.424V334.424ZM100.368 337.912V338.586H104.368V337.912H100.368ZM101.865 336.65C98.0933 337.63 96.2975 341.232 96.2975 344.853H100.297C100.297 342.365 101.451 340.891 102.871 340.522L101.865 336.65ZM96.2975 344.853V349.81H100.297V344.853H96.2975ZM96.82 348.463L95.1974 350.241L98.1525 352.937L99.775 351.158L96.82 348.463ZM97.2029 354.785H110.247V350.785H97.2029V354.785ZM112.253 350.241L110.63 348.463L107.675 351.158L109.298 352.937L112.253 350.241ZM111.153 349.81V344.853H107.153V349.81H111.153ZM105.025 351.777H102.411V355.777H105.025V351.777ZM100.025 354.748C100.413 356.347 101.812 357.76 103.725 357.76V353.76C103.766 353.76 103.807 353.768 103.843 353.782C103.878 353.795 103.9 353.811 103.911 353.821C103.932 353.838 103.92 353.837 103.912 353.804L100.025 354.748ZM103.725 357.76C105.647 357.76 107.03 356.306 107.409 354.744L103.522 353.8C103.516 353.827 103.504 353.835 103.515 353.824C103.524 353.817 103.544 353.801 103.581 353.786C103.62 353.771 103.67 353.76 103.725 353.76V357.76ZM105.025 355.777C104.624 355.777 104.214 355.614 103.908 355.284C103.578 354.929 103.382 354.378 103.522 353.8L107.409 354.744C107.861 352.885 106.233 351.777 105.025 351.777V355.777ZM112.962 352.071C112.962 351.394 112.709 350.741 112.253 350.241L109.298 352.937C109.082 352.7 108.962 352.391 108.962 352.071H112.962ZM110.247 354.785C111.747 354.785 112.962 353.57 112.962 352.071H108.962C108.962 351.361 109.537 350.785 110.247 350.785V354.785ZM106.927 335.901C105.746 337.205 106.045 339.037 107.057 340.066L109.908 337.26C110.156 337.512 110.341 338.09 109.891 338.587L106.927 335.901ZM94.4883 352.071C94.4883 353.57 95.7036 354.785 97.2029 354.785V350.785C97.9128 350.785 98.4883 351.361 98.4883 352.071H94.4883ZM111.103 335.778C109.855 334.519 107.953 334.769 106.927 335.901L109.891 338.587C109.544 338.97 108.799 339.135 108.262 338.594L111.103 335.778ZM95.1974 350.241C94.7412 350.741 94.4883 351.394 94.4883 352.071H98.4883C98.4883 352.391 98.3685 352.7 98.1525 352.937L95.1974 350.241ZM111.797 346.357C113.401 346.357 114.878 344.982 114.649 343.163L110.68 343.663C110.58 342.869 111.225 342.357 111.797 342.357V346.357ZM111.797 342.357C112.42 342.357 112.772 342.822 112.829 343.21L108.871 343.789C109.068 345.132 110.208 346.357 111.797 346.357V342.357ZM95.6522 346.357C97.2421 346.357 98.3827 345.132 98.579 343.787L94.6209 343.209C94.6775 342.821 95.0299 342.357 95.6522 342.357V346.357ZM92.7982 343.169C92.5734 344.986 94.0503 346.357 95.6522 346.357V342.357C96.2216 342.357 96.866 342.867 96.7679 343.66L92.7982 343.169ZM100.518 335.891C99.4922 334.766 97.5982 334.519 96.3517 335.771L99.1859 338.593C98.651 339.13 97.91 338.967 97.5633 338.587L100.518 335.891ZM102.411 351.777C101.191 351.777 99.5749 352.897 100.025 354.748L103.912 353.804C104.052 354.379 103.858 354.928 103.53 355.282C103.225 355.612 102.815 355.777 102.411 355.777V351.777ZM97.5633 338.587C97.3482 338.351 97.2764 338.063 97.2913 337.831C97.3055 337.609 97.3966 337.41 97.5447 337.26L100.389 340.073C101.407 339.043 101.712 337.2 100.518 335.891L97.5633 338.587Z" fill="#6772E5" mask="url(#path-34-inside-1)"/>
<defs>
<filter id="filter0_d" x="81" y="0" width="242" height="428" filterUnits="userSpaceOnUse" color-interpolation-filters="sRGB">
<feFlood flood-opacity="0" result="BackgroundImageFix"/>
<feColorMatrix in="SourceAlpha" type="matrix" values="0 0 0 0 0 0 0 0 0 0 0 0 0 0 0 0 0 0 127 0"/>
<feOffset dy="6"/>
<feGaussianBlur stdDeviation="7"/>
<feColorMatrix type="matrix" values="0 0 0 0 0.403922 0 0 0 0 0.447059 0 0 0 0 0.898039 0 0 0 0.16 0"/>
<feBlend mode="normal" in2="BackgroundImageFix" result="effect1_dropShadow"/>
<feBlend mode="normal" in="SourceGraphic" in2="effect1_dropShadow" result="shape"/>
</filter>
<filter id="filter1_d" x="249" y="102" width="121" height="119" filterUnits="userSpaceOnUse" color-interpolation-filters="sRGB">
<feFlood flood-opacity="0" result="BackgroundImageFix"/>
<feColorMatrix in="SourceAlpha" type="matrix" values="0 0 0 0 0 0 0 0 0 0 0 0 0 0 0 0 0 0 127 0"/>
<feOffset dy="14"/>
<feGaussianBlur stdDeviation="12"/>
<feColorMatrix type="matrix" values="0 0 0 0 0.403922 0 0 0 0 0.447059 0 0 0 0 0.898039 0 0 0 0.2 0"/>
<feBlend mode="normal" in2="BackgroundImageFix" result="effect1_dropShadow"/>
<feBlend mode="normal" in="SourceGraphic" in2="effect1_dropShadow" result="shape"/>
</filter>
<filter id="filter2_d" x="0" y="306" width="153" height="153" filterUnits="userSpaceOnUse" color-interpolation-filters="sRGB">
<feFlood flood-opacity="0" result="BackgroundImageFix"/>
<feColorMatrix in="SourceAlpha" type="matrix" values="0 0 0 0 0 0 0 0 0 0 0 0 0 0 0 0 0 0 127 0"/>
<feOffset dy="14"/>
<feGaussianBlur stdDeviation="12"/>
<feColorMatrix type="matrix" values="0 0 0 0 0.403922 0 0 0 0 0.447059 0 0 0 0 0.898039 0 0 0 0.2 0"/>
<feBlend mode="normal" in2="BackgroundImageFix" result="effect1_dropShadow"/>
<feBlend mode="normal" in="SourceGraphic" in2="effect1_dropShadow" result="shape"/>
</filter>
<filter id="filter3_d" x="76.5853" y="324" width="54.4147" height="56.3152" filterUnits="userSpaceOnUse" color-interpolation-filters="sRGB">
<feFlood flood-opacity="0" result="BackgroundImageFix"/>
<feColorMatrix in="SourceAlpha" type="matrix" values="0 0 0 0 0 0 0 0 0 0 0 0 0 0 0 0 0 0 127 0"/>
<feOffset dy="6"/>
<feGaussianBlur stdDeviation="7"/>
<feColorMatrix type="matrix" values="0 0 0 0 0.403922 0 0 0 0 0.447059 0 0 0 0 0.898039 0 0 0 0.16 0"/>
<feBlend mode="normal" in2="BackgroundImageFix" result="effect1_dropShadow"/>
<feBlend mode="normal" in="SourceGraphic" in2="effect1_dropShadow" result="shape"/>
</filter>
</defs>
</svg>
