<svg width="399" height="482" viewBox="0 0 399 482" fill="none" xmlns="http://www.w3.org/2000/svg">
<g filter="url(#filter0_d)">
<rect x="104" y="8" width="214" height="426" rx="14" fill="white"/>
</g>
<path d="M160.095 169.753C158.428 169.753 157.155 169.14 156.275 167.913C155.395 166.673 154.955 164.873 154.955 162.513C154.955 160.166 155.395 158.38 156.275 157.153C157.155 155.913 158.428 155.293 160.095 155.293C161.761 155.293 163.035 155.913 163.915 157.153C164.795 158.38 165.235 160.166 165.235 162.513C165.235 164.86 164.795 166.653 163.915 167.893C163.035 169.133 161.761 169.753 160.095 169.753ZM160.095 167.733C161.001 167.733 161.661 167.32 162.075 166.493C162.488 165.653 162.695 164.326 162.695 162.513C162.695 160.686 162.488 159.366 162.075 158.553C161.661 157.726 161.001 157.313 160.095 157.313C159.188 157.313 158.528 157.726 158.115 158.553C157.701 159.38 157.495 160.7 157.495 162.513C157.495 164.326 157.701 165.653 158.115 166.493C158.528 167.32 159.188 167.733 160.095 167.733ZM172.827 160.553C173.707 160.553 174.48 160.746 175.147 161.133C175.827 161.506 176.354 162.033 176.727 162.713C177.1 163.393 177.287 164.173 177.287 165.053C177.287 165.973 177.074 166.786 176.647 167.493C176.234 168.2 175.64 168.753 174.867 169.153C174.107 169.54 173.227 169.733 172.227 169.733C171.4 169.733 170.587 169.6 169.787 169.333C169 169.053 168.327 168.68 167.767 168.213C167.46 167.946 167.307 167.633 167.307 167.273C167.307 166.98 167.387 166.733 167.547 166.533C167.72 166.32 167.92 166.213 168.147 166.213C168.28 166.213 168.407 166.24 168.527 166.293C168.647 166.333 168.787 166.406 168.947 166.513C169.48 166.886 170 167.173 170.507 167.373C171.014 167.573 171.554 167.673 172.127 167.673C173.007 167.673 173.68 167.453 174.147 167.013C174.614 166.573 174.847 165.946 174.847 165.133C174.847 164.346 174.607 163.726 174.127 163.273C173.66 162.806 173.014 162.573 172.187 162.573C171.667 162.573 171.2 162.646 170.787 162.793C170.387 162.94 169.974 163.186 169.547 163.533C169.294 163.706 169.034 163.793 168.767 163.793C168.5 163.793 168.274 163.713 168.087 163.553C167.9 163.393 167.807 163.18 167.807 162.913V156.673C167.807 156.3 167.914 156.006 168.127 155.793C168.34 155.58 168.64 155.473 169.027 155.473H175.687C176.487 155.473 176.887 155.806 176.887 156.473C176.887 157.14 176.487 157.473 175.687 157.473H170.327V161.273C171.007 160.793 171.84 160.553 172.827 160.553ZM184.769 169.693C183.742 169.733 183.229 169.38 183.229 168.633C183.229 168.313 183.315 168.073 183.489 167.913C183.649 167.74 183.909 167.64 184.269 167.613L184.909 167.573C185.455 167.546 185.869 167.373 186.149 167.053C186.429 166.733 186.569 166.246 186.569 165.593V156.653C186.569 156.266 186.682 155.96 186.909 155.733C187.149 155.493 187.462 155.373 187.849 155.373C188.249 155.373 188.562 155.493 188.789 155.733C189.029 155.96 189.149 156.266 189.149 156.653V165.593C189.149 168.113 187.902 169.466 185.409 169.653L184.769 169.693ZM196.217 159.553C197.577 159.553 198.583 159.893 199.237 160.573C199.903 161.24 200.237 162.26 200.237 163.633V168.513C200.237 168.873 200.13 169.16 199.917 169.373C199.703 169.573 199.41 169.673 199.037 169.673C198.69 169.673 198.403 169.566 198.177 169.353C197.963 169.14 197.857 168.86 197.857 168.513V168.073C197.63 168.593 197.27 169 196.777 169.293C196.297 169.586 195.737 169.733 195.097 169.733C194.443 169.733 193.85 169.6 193.317 169.333C192.783 169.066 192.363 168.7 192.057 168.233C191.75 167.766 191.597 167.246 191.597 166.673C191.597 165.953 191.777 165.386 192.137 164.973C192.51 164.56 193.11 164.26 193.937 164.073C194.763 163.886 195.903 163.793 197.357 163.793H197.857V163.333C197.857 162.68 197.717 162.206 197.437 161.913C197.157 161.606 196.703 161.453 196.077 161.453C195.69 161.453 195.297 161.513 194.897 161.633C194.497 161.74 194.023 161.9 193.477 162.113C193.13 162.286 192.877 162.373 192.717 162.373C192.477 162.373 192.277 162.286 192.117 162.113C191.97 161.94 191.897 161.713 191.897 161.433C191.897 161.206 191.95 161.013 192.057 160.853C192.177 160.68 192.37 160.52 192.637 160.373C193.103 160.12 193.657 159.92 194.297 159.773C194.95 159.626 195.59 159.553 196.217 159.553ZM195.597 167.933C196.263 167.933 196.803 167.713 197.217 167.273C197.643 166.82 197.857 166.24 197.857 165.533V165.113H197.497C196.603 165.113 195.91 165.153 195.417 165.233C194.923 165.313 194.57 165.453 194.357 165.653C194.143 165.853 194.037 166.126 194.037 166.473C194.037 166.9 194.183 167.253 194.477 167.533C194.783 167.8 195.157 167.933 195.597 167.933ZM208.458 159.553C209.631 159.553 210.504 159.886 211.078 160.553C211.651 161.22 211.938 162.226 211.938 163.573V168.493C211.938 168.866 211.824 169.16 211.598 169.373C211.384 169.586 211.084 169.693 210.698 169.693C210.311 169.693 210.004 169.586 209.778 169.373C209.551 169.16 209.438 168.866 209.438 168.493V163.713C209.438 162.953 209.291 162.4 208.998 162.053C208.718 161.706 208.271 161.533 207.658 161.533C206.938 161.533 206.358 161.76 205.918 162.213C205.491 162.666 205.278 163.273 205.278 164.033V168.493C205.278 168.866 205.164 169.16 204.938 169.373C204.711 169.586 204.404 169.693 204.018 169.693C203.631 169.693 203.324 169.586 203.098 169.373C202.884 169.16 202.778 168.866 202.778 168.493V160.753C202.778 160.406 202.891 160.126 203.118 159.913C203.344 159.7 203.651 159.593 204.038 159.593C204.384 159.593 204.664 159.7 204.878 159.913C205.104 160.113 205.218 160.38 205.218 160.713V161.253C205.551 160.706 205.998 160.286 206.558 159.993C207.118 159.7 207.751 159.553 208.458 159.553ZM228.566 167.493C229.366 167.493 229.766 167.833 229.766 168.513C229.766 169.22 229.366 169.573 228.566 169.573H220.966C220.62 169.573 220.346 169.473 220.146 169.273C219.946 169.06 219.846 168.8 219.846 168.493C219.846 168.093 220 167.733 220.306 167.413L224.866 162.513C225.426 161.9 225.833 161.34 226.086 160.833C226.353 160.313 226.486 159.8 226.486 159.293C226.486 158.666 226.306 158.186 225.946 157.853C225.586 157.52 225.073 157.353 224.406 157.353C223.86 157.353 223.326 157.46 222.806 157.673C222.3 157.873 221.786 158.153 221.266 158.513C221.133 158.606 221 158.686 220.866 158.753C220.733 158.806 220.6 158.833 220.466 158.833C220.24 158.833 220.04 158.726 219.866 158.513C219.706 158.3 219.626 158.046 219.626 157.753C219.626 157.553 219.66 157.38 219.726 157.233C219.806 157.086 219.926 156.946 220.086 156.813C220.673 156.346 221.36 155.98 222.146 155.713C222.933 155.433 223.72 155.293 224.506 155.293C225.88 155.293 226.973 155.64 227.786 156.333C228.613 157.026 229.026 157.96 229.026 159.133C229.026 159.946 228.853 160.713 228.506 161.433C228.16 162.14 227.573 162.933 226.746 163.813L223.286 167.493H228.566ZM236.618 169.753C234.951 169.753 233.678 169.14 232.798 167.913C231.918 166.673 231.478 164.873 231.478 162.513C231.478 160.166 231.918 158.38 232.798 157.153C233.678 155.913 234.951 155.293 236.618 155.293C238.285 155.293 239.558 155.913 240.438 157.153C241.318 158.38 241.758 160.166 241.758 162.513C241.758 164.86 241.318 166.653 240.438 167.893C239.558 169.133 238.285 169.753 236.618 169.753ZM236.618 167.733C237.525 167.733 238.185 167.32 238.598 166.493C239.011 165.653 239.218 164.326 239.218 162.513C239.218 160.686 239.011 159.366 238.598 158.553C238.185 157.726 237.525 157.313 236.618 157.313C235.711 157.313 235.051 157.726 234.638 158.553C234.225 159.38 234.018 160.7 234.018 162.513C234.018 164.326 234.225 165.653 234.638 166.493C235.051 167.32 235.711 167.733 236.618 167.733ZM252.57 167.493C253.37 167.493 253.77 167.833 253.77 168.513C253.77 169.22 253.37 169.573 252.57 169.573H244.97C244.624 169.573 244.35 169.473 244.15 169.273C243.95 169.06 243.85 168.8 243.85 168.493C243.85 168.093 244.004 167.733 244.31 167.413L248.87 162.513C249.43 161.9 249.837 161.34 250.09 160.833C250.357 160.313 250.49 159.8 250.49 159.293C250.49 158.666 250.31 158.186 249.95 157.853C249.59 157.52 249.077 157.353 248.41 157.353C247.864 157.353 247.33 157.46 246.81 157.673C246.304 157.873 245.79 158.153 245.27 158.513C245.137 158.606 245.004 158.686 244.87 158.753C244.737 158.806 244.604 158.833 244.47 158.833C244.244 158.833 244.044 158.726 243.87 158.513C243.71 158.3 243.63 158.046 243.63 157.753C243.63 157.553 243.664 157.38 243.73 157.233C243.81 157.086 243.93 156.946 244.09 156.813C244.677 156.346 245.364 155.98 246.15 155.713C246.937 155.433 247.724 155.293 248.51 155.293C249.884 155.293 250.977 155.64 251.79 156.333C252.617 157.026 253.03 157.96 253.03 159.133C253.03 159.946 252.857 160.713 252.51 161.433C252.164 162.14 251.577 162.933 250.75 163.813L247.29 167.493H252.57ZM264.642 167.493C265.442 167.493 265.842 167.833 265.842 168.513C265.842 169.22 265.442 169.573 264.642 169.573H257.882C257.069 169.573 256.662 169.22 256.662 168.513C256.662 167.833 257.069 167.493 257.882 167.493H259.962V158.373L258.042 159.553C257.855 159.66 257.689 159.713 257.542 159.713C257.262 159.713 257.022 159.593 256.822 159.353C256.635 159.113 256.542 158.846 256.542 158.553C256.542 158.166 256.715 157.866 257.062 157.653L260.162 155.733C260.562 155.493 260.942 155.373 261.302 155.373C261.675 155.373 261.975 155.486 262.202 155.713C262.429 155.94 262.542 156.253 262.542 156.653V167.493H264.642Z" fill="#FF2E63"/>
<path d="M170.353 197.237C170.073 197.237 169.849 197.157 169.681 196.999C169.522 196.831 169.443 196.611 169.443 196.341V188.781H166.895C166.335 188.781 166.055 188.533 166.055 188.039C166.055 187.544 166.335 187.297 166.895 187.297H173.797C174.357 187.297 174.637 187.544 174.637 188.039C174.637 188.533 174.357 188.781 173.797 188.781H171.249V196.341C171.249 196.611 171.165 196.831 170.997 196.999C170.838 197.157 170.623 197.237 170.353 197.237ZM179.875 190.181C180.145 190.181 180.36 190.255 180.519 190.405C180.677 190.554 180.757 190.755 180.757 191.007V196.439C180.757 196.681 180.673 196.877 180.505 197.027C180.346 197.176 180.136 197.251 179.875 197.251C179.623 197.251 179.422 197.181 179.273 197.041C179.123 196.901 179.049 196.709 179.049 196.467V196.117C178.834 196.49 178.545 196.779 178.181 196.985C177.817 197.181 177.406 197.279 176.949 197.279C175.269 197.279 174.429 196.336 174.429 194.451V191.007C174.429 190.755 174.508 190.554 174.667 190.405C174.825 190.255 175.035 190.181 175.297 190.181C175.567 190.181 175.782 190.255 175.941 190.405C176.099 190.554 176.179 190.755 176.179 191.007V194.465C176.179 194.95 176.277 195.309 176.473 195.543C176.669 195.776 176.977 195.893 177.397 195.893C177.882 195.893 178.269 195.734 178.559 195.417C178.857 195.09 179.007 194.661 179.007 194.129V191.007C179.007 190.755 179.086 190.554 179.245 190.405C179.403 190.255 179.613 190.181 179.875 190.181ZM187.996 195.291C188.155 195.291 188.281 195.351 188.374 195.473C188.477 195.594 188.528 195.757 188.528 195.963C188.528 196.252 188.355 196.495 188.01 196.691C187.693 196.868 187.333 197.013 186.932 197.125C186.531 197.227 186.148 197.279 185.784 197.279C184.683 197.279 183.81 196.961 183.166 196.327C182.522 195.692 182.2 194.824 182.2 193.723C182.2 193.023 182.34 192.402 182.62 191.861C182.9 191.319 183.292 190.899 183.796 190.601C184.309 190.302 184.888 190.153 185.532 190.153C186.148 190.153 186.685 190.288 187.142 190.559C187.599 190.829 187.954 191.212 188.206 191.707C188.458 192.201 188.584 192.785 188.584 193.457C188.584 193.858 188.407 194.059 188.052 194.059H183.922C183.978 194.703 184.16 195.179 184.468 195.487C184.776 195.785 185.224 195.935 185.812 195.935C186.111 195.935 186.372 195.897 186.596 195.823C186.829 195.748 187.091 195.645 187.38 195.515C187.66 195.365 187.865 195.291 187.996 195.291ZM185.574 191.385C185.098 191.385 184.715 191.534 184.426 191.833C184.146 192.131 183.978 192.561 183.922 193.121H187.086C187.067 192.551 186.927 192.122 186.666 191.833C186.405 191.534 186.041 191.385 185.574 191.385ZM197.106 197.293C195.94 197.293 195.048 196.863 194.432 196.005C193.816 195.137 193.508 193.877 193.508 192.225C193.508 190.582 193.816 189.331 194.432 188.473C195.048 187.605 195.94 187.171 197.106 187.171C198.273 187.171 199.164 187.605 199.78 188.473C200.396 189.331 200.704 190.582 200.704 192.225C200.704 193.867 200.396 195.123 199.78 195.991C199.164 196.859 198.273 197.293 197.106 197.293ZM197.106 195.879C197.741 195.879 198.203 195.589 198.492 195.011C198.782 194.423 198.926 193.494 198.926 192.225C198.926 190.946 198.782 190.022 198.492 189.453C198.203 188.874 197.741 188.585 197.106 188.585C196.472 188.585 196.01 188.874 195.72 189.453C195.431 190.031 195.286 190.955 195.286 192.225C195.286 193.494 195.431 194.423 195.72 195.011C196.01 195.589 196.472 195.879 197.106 195.879ZM208.315 195.711C208.875 195.711 209.155 195.949 209.155 196.425C209.155 196.919 208.875 197.167 208.315 197.167H203.583C203.013 197.167 202.729 196.919 202.729 196.425C202.729 195.949 203.013 195.711 203.583 195.711H205.039V189.327L203.695 190.153C203.564 190.227 203.447 190.265 203.345 190.265C203.149 190.265 202.981 190.181 202.841 190.013C202.71 189.845 202.645 189.658 202.645 189.453C202.645 189.182 202.766 188.972 203.009 188.823L205.179 187.479C205.459 187.311 205.725 187.227 205.977 187.227C206.238 187.227 206.448 187.306 206.607 187.465C206.765 187.623 206.845 187.843 206.845 188.123V195.711H208.315ZM211.431 192.267C211.133 192.267 210.885 192.169 210.689 191.973C210.493 191.767 210.395 191.515 210.395 191.217C210.395 190.918 210.493 190.671 210.689 190.475C210.885 190.279 211.133 190.181 211.431 190.181C211.73 190.181 211.977 190.279 212.173 190.475C212.369 190.671 212.467 190.918 212.467 191.217C212.467 191.515 212.369 191.767 212.173 191.973C211.977 192.169 211.73 192.267 211.431 192.267ZM211.431 197.251C211.133 197.251 210.885 197.153 210.689 196.957C210.493 196.751 210.395 196.499 210.395 196.201C210.395 195.902 210.493 195.655 210.689 195.459C210.885 195.253 211.133 195.151 211.431 195.151C211.73 195.151 211.977 195.253 212.173 195.459C212.369 195.655 212.467 195.902 212.467 196.201C212.467 196.499 212.369 196.751 212.173 196.957C211.977 197.153 211.73 197.251 211.431 197.251ZM217.368 197.293C216.201 197.293 215.31 196.863 214.694 196.005C214.078 195.137 213.77 193.877 213.77 192.225C213.77 190.582 214.078 189.331 214.694 188.473C215.31 187.605 216.201 187.171 217.368 187.171C218.535 187.171 219.426 187.605 220.042 188.473C220.658 189.331 220.966 190.582 220.966 192.225C220.966 193.867 220.658 195.123 220.042 195.991C219.426 196.859 218.535 197.293 217.368 197.293ZM217.368 195.879C218.003 195.879 218.465 195.589 218.754 195.011C219.043 194.423 219.188 193.494 219.188 192.225C219.188 190.946 219.043 190.022 218.754 189.453C218.465 188.874 218.003 188.585 217.368 188.585C216.733 188.585 216.271 188.874 215.982 189.453C215.693 190.031 215.548 190.955 215.548 192.225C215.548 193.494 215.693 194.423 215.982 195.011C216.271 195.589 216.733 195.879 217.368 195.879ZM225.762 197.293C224.596 197.293 223.704 196.863 223.088 196.005C222.472 195.137 222.164 193.877 222.164 192.225C222.164 190.582 222.472 189.331 223.088 188.473C223.704 187.605 224.596 187.171 225.762 187.171C226.929 187.171 227.82 187.605 228.436 188.473C229.052 189.331 229.36 190.582 229.36 192.225C229.36 193.867 229.052 195.123 228.436 195.991C227.82 196.859 226.929 197.293 225.762 197.293ZM225.762 195.879C226.397 195.879 226.859 195.589 227.148 195.011C227.438 194.423 227.582 193.494 227.582 192.225C227.582 190.946 227.438 190.022 227.148 189.453C226.859 188.874 226.397 188.585 225.762 188.585C225.128 188.585 224.666 188.874 224.376 189.453C224.087 190.031 223.942 190.955 223.942 192.225C223.942 193.494 224.087 194.423 224.376 195.011C224.666 195.589 225.128 195.879 225.762 195.879ZM238.602 190.153C239.19 190.153 239.712 190.302 240.17 190.601C240.636 190.899 240.996 191.324 241.248 191.875C241.509 192.416 241.64 193.041 241.64 193.751C241.64 194.46 241.509 195.081 241.248 195.613C240.996 196.145 240.641 196.555 240.184 196.845C239.726 197.134 239.199 197.279 238.602 197.279C238.116 197.279 237.682 197.176 237.3 196.971C236.917 196.765 236.623 196.481 236.418 196.117V198.973C236.418 199.215 236.338 199.407 236.18 199.547C236.021 199.687 235.811 199.757 235.55 199.757C235.288 199.757 235.074 199.682 234.906 199.533C234.747 199.383 234.668 199.187 234.668 198.945V191.007C234.668 190.755 234.742 190.554 234.892 190.405C235.05 190.255 235.26 190.181 235.522 190.181C235.783 190.181 235.993 190.255 236.152 190.405C236.31 190.554 236.39 190.755 236.39 191.007V191.357C236.595 190.974 236.889 190.68 237.272 190.475C237.664 190.26 238.107 190.153 238.602 190.153ZM238.14 195.921C238.69 195.921 239.12 195.734 239.428 195.361C239.736 194.978 239.89 194.441 239.89 193.751C239.89 193.041 239.736 192.491 239.428 192.099C239.12 191.707 238.69 191.511 238.14 191.511C237.58 191.511 237.146 191.702 236.838 192.085C236.539 192.467 236.39 193.013 236.39 193.723C236.39 194.423 236.539 194.964 236.838 195.347C237.146 195.729 237.58 195.921 238.14 195.921ZM251.21 190.153C251.957 190.153 252.526 190.377 252.918 190.825C253.319 191.263 253.52 191.977 253.52 192.967V196.411C253.52 196.681 253.436 196.891 253.268 197.041C253.109 197.181 252.899 197.251 252.638 197.251C252.386 197.251 252.176 197.181 252.008 197.041C251.849 196.891 251.77 196.681 251.77 196.411V192.967C251.77 192.453 251.677 192.089 251.49 191.875C251.313 191.651 251.037 191.539 250.664 191.539C250.207 191.539 249.843 191.697 249.572 192.015C249.301 192.323 249.166 192.747 249.166 193.289V196.411C249.166 196.681 249.082 196.891 248.914 197.041C248.755 197.181 248.55 197.251 248.298 197.251C248.046 197.251 247.836 197.181 247.668 197.041C247.5 196.891 247.416 196.681 247.416 196.411V192.967C247.416 192.453 247.323 192.089 247.136 191.875C246.959 191.651 246.683 191.539 246.31 191.539C245.853 191.539 245.489 191.697 245.218 192.015C244.957 192.323 244.826 192.747 244.826 193.289V196.411C244.826 196.681 244.742 196.891 244.574 197.041C244.406 197.181 244.196 197.251 243.944 197.251C243.692 197.251 243.482 197.181 243.314 197.041C243.155 196.891 243.076 196.681 243.076 196.411V190.993C243.076 190.731 243.16 190.531 243.328 190.391C243.496 190.251 243.706 190.181 243.958 190.181C244.201 190.181 244.397 190.251 244.546 190.391C244.705 190.521 244.784 190.713 244.784 190.965V191.301C244.999 190.927 245.283 190.643 245.638 190.447C246.002 190.251 246.417 190.153 246.884 190.153C247.911 190.153 248.597 190.582 248.942 191.441C249.147 191.049 249.451 190.736 249.852 190.503C250.253 190.269 250.706 190.153 251.21 190.153Z" fill="#FF2E63"/>
<path d="M151.965 273.43C163.925 273.43 173.62 263.708 173.62 251.715C173.62 239.722 163.925 230 151.965 230C140.006 230 130.31 239.722 130.31 251.715C130.31 263.708 140.006 273.43 151.965 273.43Z" fill="#FF2E63" fill-opacity="0.4"/>
<rect x="130.31" y="302.383" width="161.69" height="14.4766" rx="6" fill="#F2F4F5"/>
<rect x="130.31" y="331.336" width="161.69" height="14.4766" rx="6" fill="#F2F4F5"/>
<rect x="199.606" y="232.896" width="92.3941" height="11.5813" rx="5.79065" fill="#F2F4F5"/>
<rect x="199.606" y="258.953" width="92.3941" height="11.5813" rx="5.79065" fill="#F2F4F5"/>
<rect x="130" y="375.047" width="161.69" height="28.9532" rx="6" fill="#FF2E63"/>
<path d="M164.291 392.917C164.355 393.056 164.387 393.195 164.387 393.333C164.387 393.579 164.286 393.787 164.083 393.957C163.891 394.128 163.667 394.213 163.411 394.213C163.241 394.213 163.081 394.171 162.931 394.085C162.782 393.989 162.665 393.845 162.579 393.653L161.619 391.509H155.987L155.027 393.653C154.942 393.845 154.825 393.989 154.675 394.085C154.526 394.171 154.361 394.213 154.179 394.213C153.934 394.213 153.71 394.128 153.507 393.957C153.305 393.787 153.203 393.579 153.203 393.333C153.203 393.195 153.235 393.056 153.299 392.917L157.715 383.429C157.811 383.216 157.955 383.056 158.147 382.949C158.35 382.832 158.563 382.773 158.787 382.773C159.011 382.773 159.219 382.832 159.411 382.949C159.614 383.056 159.763 383.216 159.859 383.429L164.291 392.917ZM156.691 389.909H160.915L158.803 385.157L156.691 389.909ZM172.294 382.789C172.593 382.789 172.838 382.875 173.03 383.045C173.222 383.216 173.318 383.44 173.318 383.717V393.285C173.318 393.573 173.228 393.803 173.046 393.973C172.865 394.144 172.625 394.229 172.326 394.229C172.028 394.229 171.788 394.144 171.606 393.973C171.425 393.803 171.334 393.573 171.334 393.285V392.885C171.1 393.323 170.758 393.664 170.31 393.909C169.873 394.155 169.372 394.277 168.806 394.277C168.134 394.277 167.532 394.107 166.998 393.765C166.476 393.424 166.065 392.944 165.766 392.325C165.478 391.696 165.334 390.976 165.334 390.165C165.334 389.355 165.478 388.645 165.766 388.037C166.065 387.429 166.476 386.96 166.998 386.629C167.521 386.299 168.124 386.133 168.806 386.133C169.372 386.133 169.873 386.251 170.31 386.485C170.748 386.72 171.084 387.051 171.318 387.477V383.685C171.318 383.419 171.404 383.205 171.574 383.045C171.756 382.875 171.996 382.789 172.294 382.789ZM169.334 392.725C169.974 392.725 170.465 392.507 170.806 392.069C171.158 391.632 171.334 391.008 171.334 390.197C171.334 389.387 171.158 388.768 170.806 388.341C170.465 387.904 169.98 387.685 169.35 387.685C168.71 387.685 168.214 387.899 167.862 388.325C167.51 388.752 167.334 389.365 167.334 390.165C167.334 390.976 167.51 391.605 167.862 392.053C168.214 392.501 168.705 392.725 169.334 392.725ZM181.904 382.789C182.202 382.789 182.448 382.875 182.64 383.045C182.832 383.216 182.928 383.44 182.928 383.717V393.285C182.928 393.573 182.837 393.803 182.656 393.973C182.474 394.144 182.234 394.229 181.936 394.229C181.637 394.229 181.397 394.144 181.216 393.973C181.034 393.803 180.944 393.573 180.944 393.285V392.885C180.709 393.323 180.368 393.664 179.92 393.909C179.482 394.155 178.981 394.277 178.416 394.277C177.744 394.277 177.141 394.107 176.608 393.765C176.085 393.424 175.674 392.944 175.376 392.325C175.088 391.696 174.944 390.976 174.944 390.165C174.944 389.355 175.088 388.645 175.376 388.037C175.674 387.429 176.085 386.96 176.608 386.629C177.13 386.299 177.733 386.133 178.416 386.133C178.981 386.133 179.482 386.251 179.92 386.485C180.357 386.72 180.693 387.051 180.928 387.477V383.685C180.928 383.419 181.013 383.205 181.184 383.045C181.365 382.875 181.605 382.789 181.904 382.789ZM178.944 392.725C179.584 392.725 180.074 392.507 180.416 392.069C180.768 391.632 180.944 391.008 180.944 390.197C180.944 389.387 180.768 388.768 180.416 388.341C180.074 387.904 179.589 387.685 178.96 387.685C178.32 387.685 177.824 387.899 177.472 388.325C177.12 388.752 176.944 389.365 176.944 390.165C176.944 390.976 177.12 391.605 177.472 392.053C177.824 392.501 178.314 392.725 178.944 392.725ZM193.393 392.757C193.926 392.789 194.193 393.029 194.193 393.477C194.193 393.733 194.086 393.931 193.873 394.069C193.67 394.197 193.377 394.251 192.993 394.229L192.561 394.197C190.769 394.069 189.873 393.109 189.873 391.317V387.829H189.073C188.785 387.829 188.561 387.765 188.401 387.637C188.252 387.509 188.177 387.323 188.177 387.077C188.177 386.832 188.252 386.645 188.401 386.517C188.561 386.389 188.785 386.325 189.073 386.325H189.873V384.853C189.873 384.565 189.964 384.336 190.145 384.165C190.326 383.995 190.572 383.909 190.881 383.909C191.18 383.909 191.42 383.995 191.601 384.165C191.782 384.336 191.873 384.565 191.873 384.853V386.325H193.233C193.521 386.325 193.74 386.389 193.889 386.517C194.049 386.645 194.129 386.832 194.129 387.077C194.129 387.323 194.049 387.509 193.889 387.637C193.74 387.765 193.521 387.829 193.233 387.829H191.873V391.461C191.873 392.251 192.236 392.672 192.961 392.725L193.393 392.757ZM198.803 394.277C198.003 394.277 197.299 394.112 196.691 393.781C196.094 393.451 195.63 392.976 195.299 392.357C194.968 391.739 194.803 391.019 194.803 390.197C194.803 389.376 194.968 388.661 195.299 388.053C195.63 387.435 196.094 386.96 196.691 386.629C197.299 386.299 198.003 386.133 198.803 386.133C199.603 386.133 200.302 386.299 200.899 386.629C201.507 386.96 201.971 387.435 202.291 388.053C202.622 388.661 202.787 389.376 202.787 390.197C202.787 391.019 202.622 391.739 202.291 392.357C201.971 392.976 201.507 393.451 200.899 393.781C200.302 394.112 199.603 394.277 198.803 394.277ZM198.787 392.725C199.438 392.725 199.934 392.512 200.275 392.085C200.616 391.659 200.787 391.029 200.787 390.197C200.787 389.376 200.616 388.752 200.275 388.325C199.934 387.888 199.443 387.669 198.803 387.669C198.163 387.669 197.667 387.888 197.315 388.325C196.974 388.752 196.803 389.376 196.803 390.197C196.803 391.029 196.974 391.659 197.315 392.085C197.656 392.512 198.147 392.725 198.787 392.725ZM212.254 394.277C211.475 394.277 210.787 394.112 210.19 393.781C209.603 393.451 209.15 392.981 208.83 392.373C208.51 391.765 208.35 391.056 208.35 390.245C208.35 389.435 208.515 388.72 208.846 388.101C209.187 387.472 209.662 386.987 210.27 386.645C210.878 386.304 211.577 386.133 212.366 386.133C212.782 386.133 213.198 386.192 213.614 386.309C214.041 386.427 214.414 386.587 214.734 386.789C215.075 387.013 215.246 387.296 215.246 387.637C215.246 387.872 215.187 388.064 215.07 388.213C214.963 388.352 214.819 388.421 214.638 388.421C214.521 388.421 214.398 388.395 214.27 388.341C214.142 388.288 214.014 388.224 213.886 388.149C213.651 388.011 213.427 387.904 213.214 387.829C213.001 387.744 212.755 387.701 212.478 387.701C211.817 387.701 211.305 387.92 210.942 388.357C210.59 388.784 210.414 389.403 210.414 390.213C210.414 391.013 210.59 391.632 210.942 392.069C211.305 392.496 211.817 392.709 212.478 392.709C212.745 392.709 212.979 392.672 213.182 392.597C213.395 392.512 213.63 392.4 213.886 392.261C214.046 392.165 214.185 392.096 214.302 392.053C214.419 392 214.537 391.973 214.654 391.973C214.825 391.973 214.969 392.048 215.086 392.197C215.203 392.347 215.262 392.533 215.262 392.757C215.262 392.939 215.219 393.099 215.134 393.237C215.059 393.365 214.931 393.483 214.75 393.589C214.419 393.803 214.035 393.973 213.598 394.101C213.161 394.219 212.713 394.277 212.254 394.277ZM219.987 386.133C221.075 386.133 221.88 386.405 222.403 386.949C222.936 387.483 223.203 388.299 223.203 389.397V393.301C223.203 393.589 223.117 393.819 222.947 393.989C222.776 394.149 222.541 394.229 222.243 394.229C221.965 394.229 221.736 394.144 221.555 393.973C221.384 393.803 221.299 393.579 221.299 393.301V392.949C221.117 393.365 220.829 393.691 220.435 393.925C220.051 394.16 219.603 394.277 219.091 394.277C218.568 394.277 218.093 394.171 217.667 393.957C217.24 393.744 216.904 393.451 216.659 393.077C216.413 392.704 216.291 392.288 216.291 391.829C216.291 391.253 216.435 390.8 216.723 390.469C217.021 390.139 217.501 389.899 218.163 389.749C218.824 389.6 219.736 389.525 220.899 389.525H221.299V389.157C221.299 388.635 221.187 388.256 220.963 388.021C220.739 387.776 220.376 387.653 219.875 387.653C219.565 387.653 219.251 387.701 218.931 387.797C218.611 387.883 218.232 388.011 217.795 388.181C217.517 388.32 217.315 388.389 217.187 388.389C216.995 388.389 216.835 388.32 216.707 388.181C216.589 388.043 216.531 387.861 216.531 387.637C216.531 387.456 216.573 387.301 216.659 387.173C216.755 387.035 216.909 386.907 217.123 386.789C217.496 386.587 217.939 386.427 218.451 386.309C218.973 386.192 219.485 386.133 219.987 386.133ZM219.491 392.837C220.024 392.837 220.456 392.661 220.787 392.309C221.128 391.947 221.299 391.483 221.299 390.917V390.581H221.011C220.296 390.581 219.741 390.613 219.347 390.677C218.952 390.741 218.669 390.853 218.499 391.013C218.328 391.173 218.243 391.392 218.243 391.669C218.243 392.011 218.36 392.293 218.595 392.517C218.84 392.731 219.139 392.837 219.491 392.837ZM226.227 394.245C225.939 394.245 225.699 394.165 225.507 394.005C225.326 393.835 225.235 393.595 225.235 393.285V383.733C225.235 383.424 225.326 383.189 225.507 383.029C225.699 382.869 225.939 382.789 226.227 382.789C226.515 382.789 226.755 382.869 226.947 383.029C227.139 383.189 227.235 383.424 227.235 383.733V393.285C227.235 393.595 227.139 393.835 226.947 394.005C226.755 394.165 226.515 394.245 226.227 394.245ZM235.49 392.005C235.671 392.005 235.815 392.075 235.922 392.213C236.039 392.352 236.098 392.539 236.098 392.773C236.098 393.104 235.9 393.381 235.506 393.605C235.143 393.808 234.732 393.973 234.274 394.101C233.815 394.219 233.378 394.277 232.962 394.277C231.703 394.277 230.706 393.915 229.97 393.189C229.234 392.464 228.866 391.472 228.866 390.213C228.866 389.413 229.026 388.704 229.346 388.085C229.666 387.467 230.114 386.987 230.69 386.645C231.276 386.304 231.938 386.133 232.674 386.133C233.378 386.133 233.991 386.288 234.514 386.597C235.036 386.907 235.442 387.344 235.73 387.909C236.018 388.475 236.162 389.141 236.162 389.909C236.162 390.368 235.959 390.597 235.554 390.597H230.834C230.898 391.333 231.106 391.877 231.458 392.229C231.81 392.571 232.322 392.741 232.994 392.741C233.335 392.741 233.634 392.699 233.89 392.613C234.156 392.528 234.455 392.411 234.786 392.261C235.106 392.091 235.34 392.005 235.49 392.005ZM232.722 387.541C232.178 387.541 231.74 387.712 231.41 388.053C231.09 388.395 230.898 388.885 230.834 389.525H234.45C234.428 388.875 234.268 388.384 233.97 388.053C233.671 387.712 233.255 387.541 232.722 387.541ZM242.342 386.133C243.28 386.133 243.979 386.4 244.438 386.933C244.896 387.467 245.126 388.272 245.126 389.349V393.285C245.126 393.584 245.035 393.819 244.854 393.989C244.683 394.16 244.443 394.245 244.134 394.245C243.824 394.245 243.579 394.16 243.398 393.989C243.216 393.819 243.126 393.584 243.126 393.285V389.461C243.126 388.853 243.008 388.411 242.774 388.133C242.55 387.856 242.192 387.717 241.702 387.717C241.126 387.717 240.662 387.899 240.31 388.261C239.968 388.624 239.798 389.109 239.798 389.717V393.285C239.798 393.584 239.707 393.819 239.526 393.989C239.344 394.16 239.099 394.245 238.79 394.245C238.48 394.245 238.235 394.16 238.054 393.989C237.883 393.819 237.798 393.584 237.798 393.285V387.093C237.798 386.816 237.888 386.592 238.07 386.421C238.251 386.251 238.496 386.165 238.806 386.165C239.083 386.165 239.307 386.251 239.478 386.421C239.659 386.581 239.75 386.795 239.75 387.061V387.493C240.016 387.056 240.374 386.72 240.822 386.485C241.27 386.251 241.776 386.133 242.342 386.133ZM253.685 382.789C253.984 382.789 254.229 382.875 254.421 383.045C254.613 383.216 254.709 383.44 254.709 383.717V393.285C254.709 393.573 254.618 393.803 254.437 393.973C254.256 394.144 254.016 394.229 253.717 394.229C253.418 394.229 253.178 394.144 252.997 393.973C252.816 393.803 252.725 393.573 252.725 393.285V392.885C252.49 393.323 252.149 393.664 251.701 393.909C251.264 394.155 250.762 394.277 250.197 394.277C249.525 394.277 248.922 394.107 248.389 393.765C247.866 393.424 247.456 392.944 247.157 392.325C246.869 391.696 246.725 390.976 246.725 390.165C246.725 389.355 246.869 388.645 247.157 388.037C247.456 387.429 247.866 386.96 248.389 386.629C248.912 386.299 249.514 386.133 250.197 386.133C250.762 386.133 251.264 386.251 251.701 386.485C252.138 386.72 252.474 387.051 252.709 387.477V383.685C252.709 383.419 252.794 383.205 252.965 383.045C253.146 382.875 253.386 382.789 253.685 382.789ZM250.725 392.725C251.365 392.725 251.856 392.507 252.197 392.069C252.549 391.632 252.725 391.008 252.725 390.197C252.725 389.387 252.549 388.768 252.197 388.341C251.856 387.904 251.37 387.685 250.741 387.685C250.101 387.685 249.605 387.899 249.253 388.325C248.901 388.752 248.725 389.365 248.725 390.165C248.725 390.976 248.901 391.605 249.253 392.053C249.605 392.501 250.096 392.725 250.725 392.725ZM260.158 386.133C261.246 386.133 262.052 386.405 262.574 386.949C263.108 387.483 263.374 388.299 263.374 389.397V393.301C263.374 393.589 263.289 393.819 263.118 393.989C262.948 394.149 262.713 394.229 262.414 394.229C262.137 394.229 261.908 394.144 261.726 393.973C261.556 393.803 261.47 393.579 261.47 393.301V392.949C261.289 393.365 261.001 393.691 260.606 393.925C260.222 394.16 259.774 394.277 259.262 394.277C258.74 394.277 258.265 394.171 257.838 393.957C257.412 393.744 257.076 393.451 256.83 393.077C256.585 392.704 256.462 392.288 256.462 391.829C256.462 391.253 256.606 390.8 256.894 390.469C257.193 390.139 257.673 389.899 258.334 389.749C258.996 389.6 259.908 389.525 261.07 389.525H261.47V389.157C261.47 388.635 261.358 388.256 261.134 388.021C260.91 387.776 260.548 387.653 260.046 387.653C259.737 387.653 259.422 387.701 259.102 387.797C258.782 387.883 258.404 388.011 257.966 388.181C257.689 388.32 257.486 388.389 257.358 388.389C257.166 388.389 257.006 388.32 256.878 388.181C256.761 388.043 256.702 387.861 256.702 387.637C256.702 387.456 256.745 387.301 256.83 387.173C256.926 387.035 257.081 386.907 257.294 386.789C257.668 386.587 258.11 386.427 258.622 386.309C259.145 386.192 259.657 386.133 260.158 386.133ZM259.662 392.837C260.196 392.837 260.628 392.661 260.958 392.309C261.3 391.947 261.47 391.483 261.47 390.917V390.581H261.182C260.468 390.581 259.913 390.613 259.518 390.677C259.124 390.741 258.841 390.853 258.67 391.013C258.5 391.173 258.414 391.392 258.414 391.669C258.414 392.011 258.532 392.293 258.766 392.517C259.012 392.731 259.31 392.837 259.662 392.837ZM269.775 386.165C270.052 386.144 270.271 386.203 270.431 386.341C270.591 386.48 270.671 386.688 270.671 386.965C270.671 387.253 270.602 387.467 270.463 387.605C270.324 387.744 270.074 387.835 269.711 387.877L269.231 387.925C268.602 387.989 268.138 388.203 267.839 388.565C267.551 388.928 267.407 389.381 267.407 389.925V393.285C267.407 393.595 267.311 393.835 267.119 394.005C266.927 394.165 266.687 394.245 266.399 394.245C266.111 394.245 265.871 394.165 265.679 394.005C265.498 393.835 265.407 393.595 265.407 393.285V387.093C265.407 386.795 265.498 386.565 265.679 386.405C265.871 386.245 266.106 386.165 266.383 386.165C266.66 386.165 266.884 386.245 267.055 386.405C267.226 386.555 267.311 386.773 267.311 387.061V387.701C267.514 387.232 267.812 386.869 268.207 386.613C268.612 386.357 269.06 386.213 269.551 386.181L269.775 386.165Z" fill="white"/>
<rect x="132.012" y="38" width="30.1863" height="30" rx="15" fill="#F2F4F5"/>
<path d="M142.164 109.751C142.228 109.89 142.26 110.029 142.26 110.167C142.26 110.413 142.158 110.621 141.956 110.791C141.764 110.962 141.54 111.047 141.284 111.047C141.113 111.047 140.953 111.005 140.804 110.919C140.654 110.823 140.537 110.679 140.452 110.487L139.492 108.343H133.86L132.9 110.487C132.814 110.679 132.697 110.823 132.548 110.919C132.398 111.005 132.233 111.047 132.052 111.047C131.806 111.047 131.582 110.962 131.38 110.791C131.177 110.621 131.076 110.413 131.076 110.167C131.076 110.029 131.108 109.89 131.172 109.751L135.588 100.263C135.684 100.05 135.828 99.8901 136.02 99.7834C136.222 99.6661 136.436 99.6074 136.66 99.6074C136.884 99.6074 137.092 99.6661 137.284 99.7834C137.486 99.8901 137.636 100.05 137.732 100.263L142.164 109.751ZM134.564 106.743H138.788L136.676 101.991L134.564 106.743ZM148.135 102.967C148.807 102.967 149.404 103.138 149.927 103.479C150.46 103.821 150.871 104.306 151.159 104.935C151.457 105.554 151.607 106.269 151.607 107.079C151.607 107.89 151.457 108.599 151.159 109.207C150.871 109.815 150.465 110.285 149.943 110.615C149.42 110.946 148.817 111.111 148.135 111.111C147.58 111.111 147.084 110.994 146.647 110.759C146.209 110.525 145.873 110.199 145.639 109.783V113.047C145.639 113.325 145.548 113.543 145.367 113.703C145.185 113.863 144.945 113.943 144.647 113.943C144.348 113.943 144.103 113.858 143.911 113.687C143.729 113.517 143.639 113.293 143.639 113.015V103.943C143.639 103.655 143.724 103.426 143.895 103.255C144.076 103.085 144.316 102.999 144.615 102.999C144.913 102.999 145.153 103.085 145.335 103.255C145.516 103.426 145.607 103.655 145.607 103.943V104.343C145.841 103.906 146.177 103.57 146.615 103.335C147.063 103.09 147.569 102.967 148.135 102.967ZM147.607 109.559C148.236 109.559 148.727 109.346 149.079 108.919C149.431 108.482 149.607 107.869 149.607 107.079C149.607 106.269 149.431 105.639 149.079 105.191C148.727 104.743 148.236 104.519 147.607 104.519C146.967 104.519 146.471 104.738 146.119 105.175C145.777 105.613 145.607 106.237 145.607 107.047C145.607 107.847 145.777 108.466 146.119 108.903C146.471 109.341 146.967 109.559 147.607 109.559ZM157.744 102.967C158.416 102.967 159.013 103.138 159.536 103.479C160.069 103.821 160.48 104.306 160.768 104.935C161.067 105.554 161.216 106.269 161.216 107.079C161.216 107.89 161.067 108.599 160.768 109.207C160.48 109.815 160.075 110.285 159.552 110.615C159.029 110.946 158.427 111.111 157.744 111.111C157.189 111.111 156.693 110.994 156.256 110.759C155.819 110.525 155.483 110.199 155.248 109.783V113.047C155.248 113.325 155.157 113.543 154.976 113.703C154.795 113.863 154.555 113.943 154.256 113.943C153.957 113.943 153.712 113.858 153.52 113.687C153.339 113.517 153.248 113.293 153.248 113.015V103.943C153.248 103.655 153.333 103.426 153.504 103.255C153.685 103.085 153.925 102.999 154.224 102.999C154.523 102.999 154.763 103.085 154.944 103.255C155.125 103.426 155.216 103.655 155.216 103.943V104.343C155.451 103.906 155.787 103.57 156.224 103.335C156.672 103.09 157.179 102.967 157.744 102.967ZM157.216 109.559C157.845 109.559 158.336 109.346 158.688 108.919C159.04 108.482 159.216 107.869 159.216 107.079C159.216 106.269 159.04 105.639 158.688 105.191C158.336 104.743 157.845 104.519 157.216 104.519C156.576 104.519 156.08 104.738 155.728 105.175C155.387 105.613 155.216 106.237 155.216 107.047C155.216 107.847 155.387 108.466 155.728 108.903C156.08 109.341 156.576 109.559 157.216 109.559ZM166.425 111.111C165.625 111.111 164.921 110.946 164.313 110.615C163.716 110.285 163.252 109.81 162.921 109.191C162.591 108.573 162.425 107.853 162.425 107.031C162.425 106.21 162.591 105.495 162.921 104.887C163.252 104.269 163.716 103.794 164.313 103.463C164.921 103.133 165.625 102.967 166.425 102.967C167.225 102.967 167.924 103.133 168.521 103.463C169.129 103.794 169.593 104.269 169.913 104.887C170.244 105.495 170.409 106.21 170.409 107.031C170.409 107.853 170.244 108.573 169.913 109.191C169.593 109.81 169.129 110.285 168.521 110.615C167.924 110.946 167.225 111.111 166.425 111.111ZM166.409 109.559C167.06 109.559 167.556 109.346 167.897 108.919C168.239 108.493 168.409 107.863 168.409 107.031C168.409 106.21 168.239 105.586 167.897 105.159C167.556 104.722 167.065 104.503 166.425 104.503C165.785 104.503 165.289 104.722 164.937 105.159C164.596 105.586 164.425 106.21 164.425 107.031C164.425 107.863 164.596 108.493 164.937 108.919C165.279 109.346 165.769 109.559 166.409 109.559ZM173.053 111.079C172.765 111.079 172.525 110.999 172.333 110.839C172.151 110.669 172.061 110.429 172.061 110.119V103.943C172.061 103.634 172.151 103.399 172.333 103.239C172.525 103.079 172.765 102.999 173.053 102.999C173.341 102.999 173.581 103.079 173.773 103.239C173.965 103.399 174.061 103.634 174.061 103.943V110.119C174.061 110.429 173.965 110.669 173.773 110.839C173.581 110.999 173.341 111.079 173.053 111.079ZM173.053 101.575C172.69 101.575 172.402 101.479 172.189 101.287C171.975 101.085 171.869 100.823 171.869 100.503C171.869 100.183 171.975 99.9274 172.189 99.7354C172.402 99.5434 172.69 99.4474 173.053 99.4474C173.405 99.4474 173.687 99.5434 173.901 99.7354C174.125 99.9274 174.237 100.183 174.237 100.503C174.237 100.823 174.13 101.085 173.917 101.287C173.703 101.479 173.415 101.575 173.053 101.575ZM180.667 102.967C181.606 102.967 182.304 103.234 182.763 103.767C183.222 104.301 183.451 105.106 183.451 106.183V110.119C183.451 110.418 183.36 110.653 183.179 110.823C183.008 110.994 182.768 111.079 182.459 111.079C182.15 111.079 181.904 110.994 181.723 110.823C181.542 110.653 181.451 110.418 181.451 110.119V106.295C181.451 105.687 181.334 105.245 181.099 104.967C180.875 104.69 180.518 104.551 180.027 104.551C179.451 104.551 178.987 104.733 178.635 105.095C178.294 105.458 178.123 105.943 178.123 106.551V110.119C178.123 110.418 178.032 110.653 177.851 110.823C177.67 110.994 177.424 111.079 177.115 111.079C176.806 111.079 176.56 110.994 176.379 110.823C176.208 110.653 176.123 110.418 176.123 110.119V103.927C176.123 103.65 176.214 103.426 176.395 103.255C176.576 103.085 176.822 102.999 177.131 102.999C177.408 102.999 177.632 103.085 177.803 103.255C177.984 103.415 178.075 103.629 178.075 103.895V104.327C178.342 103.89 178.699 103.554 179.147 103.319C179.595 103.085 180.102 102.967 180.667 102.967ZM189.546 109.591C190.08 109.623 190.346 109.863 190.346 110.311C190.346 110.567 190.24 110.765 190.026 110.903C189.824 111.031 189.53 111.085 189.146 111.063L188.714 111.031C186.922 110.903 186.026 109.943 186.026 108.151V104.663H185.226C184.938 104.663 184.714 104.599 184.554 104.471C184.405 104.343 184.33 104.157 184.33 103.911C184.33 103.666 184.405 103.479 184.554 103.351C184.714 103.223 184.938 103.159 185.226 103.159H186.026V101.687C186.026 101.399 186.117 101.17 186.298 100.999C186.48 100.829 186.725 100.743 187.034 100.743C187.333 100.743 187.573 100.829 187.754 100.999C187.936 101.17 188.026 101.399 188.026 101.687V103.159H189.386C189.674 103.159 189.893 103.223 190.042 103.351C190.202 103.479 190.282 103.666 190.282 103.911C190.282 104.157 190.202 104.343 190.042 104.471C189.893 104.599 189.674 104.663 189.386 104.663H188.026V108.295C188.026 109.085 188.389 109.506 189.114 109.559L189.546 109.591ZM200.685 102.967C201.538 102.967 202.189 103.223 202.637 103.735C203.095 104.237 203.325 105.053 203.325 106.183V110.119C203.325 110.429 203.229 110.669 203.037 110.839C202.855 110.999 202.615 111.079 202.317 111.079C202.029 111.079 201.789 110.999 201.597 110.839C201.415 110.669 201.325 110.429 201.325 110.119V106.183C201.325 105.597 201.218 105.181 201.005 104.935C200.802 104.679 200.487 104.551 200.061 104.551C199.538 104.551 199.122 104.733 198.813 105.095C198.503 105.447 198.349 105.933 198.349 106.551V110.119C198.349 110.429 198.253 110.669 198.061 110.839C197.879 110.999 197.645 111.079 197.357 111.079C197.069 111.079 196.829 110.999 196.637 110.839C196.445 110.669 196.349 110.429 196.349 110.119V106.183C196.349 105.597 196.242 105.181 196.029 104.935C195.826 104.679 195.511 104.551 195.085 104.551C194.562 104.551 194.146 104.733 193.837 105.095C193.538 105.447 193.389 105.933 193.389 106.551V110.119C193.389 110.429 193.293 110.669 193.101 110.839C192.909 110.999 192.669 111.079 192.381 111.079C192.093 111.079 191.853 110.999 191.661 110.839C191.479 110.669 191.389 110.429 191.389 110.119V103.927C191.389 103.629 191.485 103.399 191.677 103.239C191.869 103.079 192.109 102.999 192.397 102.999C192.674 102.999 192.898 103.079 193.069 103.239C193.25 103.389 193.341 103.607 193.341 103.895V104.279C193.586 103.853 193.911 103.527 194.317 103.303C194.733 103.079 195.207 102.967 195.741 102.967C196.914 102.967 197.698 103.458 198.093 104.439C198.327 103.991 198.674 103.634 199.133 103.367C199.591 103.101 200.109 102.967 200.685 102.967ZM211.549 108.839C211.731 108.839 211.875 108.909 211.981 109.047C212.099 109.186 212.157 109.373 212.157 109.607C212.157 109.938 211.96 110.215 211.565 110.439C211.203 110.642 210.792 110.807 210.333 110.935C209.875 111.053 209.437 111.111 209.021 111.111C207.763 111.111 206.765 110.749 206.029 110.023C205.293 109.298 204.925 108.306 204.925 107.047C204.925 106.247 205.085 105.538 205.405 104.919C205.725 104.301 206.173 103.821 206.749 103.479C207.336 103.138 207.997 102.967 208.733 102.967C209.437 102.967 210.051 103.122 210.573 103.431C211.096 103.741 211.501 104.178 211.789 104.743C212.077 105.309 212.221 105.975 212.221 106.743C212.221 107.202 212.019 107.431 211.613 107.431H206.893C206.957 108.167 207.165 108.711 207.517 109.063C207.869 109.405 208.381 109.575 209.053 109.575C209.395 109.575 209.693 109.533 209.949 109.447C210.216 109.362 210.515 109.245 210.845 109.095C211.165 108.925 211.4 108.839 211.549 108.839ZM208.781 104.375C208.237 104.375 207.8 104.546 207.469 104.887C207.149 105.229 206.957 105.719 206.893 106.359H210.509C210.488 105.709 210.328 105.218 210.029 104.887C209.731 104.546 209.315 104.375 208.781 104.375ZM218.401 102.967C219.34 102.967 220.039 103.234 220.497 103.767C220.956 104.301 221.185 105.106 221.185 106.183V110.119C221.185 110.418 221.095 110.653 220.913 110.823C220.743 110.994 220.503 111.079 220.193 111.079C219.884 111.079 219.639 110.994 219.457 110.823C219.276 110.653 219.185 110.418 219.185 110.119V106.295C219.185 105.687 219.068 105.245 218.833 104.967C218.609 104.69 218.252 104.551 217.761 104.551C217.185 104.551 216.721 104.733 216.369 105.095C216.028 105.458 215.857 105.943 215.857 106.551V110.119C215.857 110.418 215.767 110.653 215.585 110.823C215.404 110.994 215.159 111.079 214.849 111.079C214.54 111.079 214.295 110.994 214.113 110.823C213.943 110.653 213.857 110.418 213.857 110.119V103.927C213.857 103.65 213.948 103.426 214.129 103.255C214.311 103.085 214.556 102.999 214.865 102.999C215.143 102.999 215.367 103.085 215.537 103.255C215.719 103.415 215.809 103.629 215.809 103.895V104.327C216.076 103.89 216.433 103.554 216.881 103.319C217.329 103.085 217.836 102.967 218.401 102.967ZM227.281 109.591C227.814 109.623 228.081 109.863 228.081 110.311C228.081 110.567 227.974 110.765 227.761 110.903C227.558 111.031 227.265 111.085 226.881 111.063L226.449 111.031C224.657 110.903 223.761 109.943 223.761 108.151V104.663H222.961C222.673 104.663 222.449 104.599 222.289 104.471C222.14 104.343 222.065 104.157 222.065 103.911C222.065 103.666 222.14 103.479 222.289 103.351C222.449 103.223 222.673 103.159 222.961 103.159H223.761V101.687C223.761 101.399 223.852 101.17 224.033 100.999C224.214 100.829 224.46 100.743 224.769 100.743C225.068 100.743 225.308 100.829 225.489 100.999C225.67 101.17 225.761 101.399 225.761 101.687V103.159H227.121C227.409 103.159 227.628 103.223 227.777 103.351C227.937 103.479 228.017 103.666 228.017 103.911C228.017 104.157 227.937 104.343 227.777 104.471C227.628 104.599 227.409 104.663 227.121 104.663H225.761V108.295C225.761 109.085 226.124 109.506 226.849 109.559L227.281 109.591ZM240.587 105.159C241.238 105.341 241.739 105.671 242.091 106.151C242.454 106.631 242.635 107.218 242.635 107.911C242.635 108.871 242.288 109.623 241.595 110.167C240.912 110.711 239.968 110.983 238.763 110.983H234.635C234.326 110.983 234.08 110.898 233.899 110.727C233.728 110.557 233.643 110.317 233.643 110.007V100.679C233.643 100.37 233.728 100.13 233.899 99.9594C234.08 99.7887 234.326 99.7034 234.635 99.7034H238.603C239.776 99.7034 240.694 99.9647 241.355 100.487C242.027 100.999 242.363 101.719 242.363 102.647C242.363 103.245 242.203 103.762 241.883 104.199C241.574 104.637 241.142 104.957 240.587 105.159ZM235.659 104.455H238.267C239.686 104.455 240.395 103.927 240.395 102.871C240.395 102.338 240.219 101.943 239.867 101.687C239.515 101.431 238.982 101.303 238.267 101.303H235.659V104.455ZM238.539 109.383C239.286 109.383 239.83 109.25 240.171 108.983C240.512 108.717 240.683 108.301 240.683 107.735C240.683 107.17 240.507 106.749 240.155 106.471C239.814 106.194 239.275 106.055 238.539 106.055H235.659V109.383H238.539ZM247.957 111.111C247.157 111.111 246.453 110.946 245.845 110.615C245.247 110.285 244.783 109.81 244.453 109.191C244.122 108.573 243.957 107.853 243.957 107.031C243.957 106.21 244.122 105.495 244.453 104.887C244.783 104.269 245.247 103.794 245.845 103.463C246.453 103.133 247.157 102.967 247.957 102.967C248.757 102.967 249.455 103.133 250.053 103.463C250.661 103.794 251.125 104.269 251.445 104.887C251.775 105.495 251.941 106.21 251.941 107.031C251.941 107.853 251.775 108.573 251.445 109.191C251.125 109.81 250.661 110.285 250.053 110.615C249.455 110.946 248.757 111.111 247.957 111.111ZM247.941 109.559C248.591 109.559 249.087 109.346 249.429 108.919C249.77 108.493 249.941 107.863 249.941 107.031C249.941 106.21 249.77 105.586 249.429 105.159C249.087 104.722 248.597 104.503 247.957 104.503C247.317 104.503 246.821 104.722 246.469 105.159C246.127 105.586 245.957 106.21 245.957 107.031C245.957 107.863 246.127 108.493 246.469 108.919C246.81 109.346 247.301 109.559 247.941 109.559ZM257.16 111.111C256.36 111.111 255.656 110.946 255.048 110.615C254.451 110.285 253.987 109.81 253.656 109.191C253.325 108.573 253.16 107.853 253.16 107.031C253.16 106.21 253.325 105.495 253.656 104.887C253.987 104.269 254.451 103.794 255.048 103.463C255.656 103.133 256.36 102.967 257.16 102.967C257.96 102.967 258.659 103.133 259.256 103.463C259.864 103.794 260.328 104.269 260.648 104.887C260.979 105.495 261.144 106.21 261.144 107.031C261.144 107.853 260.979 108.573 260.648 109.191C260.328 109.81 259.864 110.285 259.256 110.615C258.659 110.946 257.96 111.111 257.16 111.111ZM257.144 109.559C257.795 109.559 258.291 109.346 258.632 108.919C258.973 108.493 259.144 107.863 259.144 107.031C259.144 106.21 258.973 105.586 258.632 105.159C258.291 104.722 257.8 104.503 257.16 104.503C256.52 104.503 256.024 104.722 255.672 105.159C255.331 105.586 255.16 106.21 255.16 107.031C255.16 107.863 255.331 108.493 255.672 108.919C256.013 109.346 256.504 109.559 257.144 109.559ZM269.755 109.431C269.968 109.634 270.075 109.863 270.075 110.119C270.075 110.365 269.984 110.583 269.803 110.775C269.632 110.967 269.43 111.063 269.195 111.063C268.96 111.063 268.742 110.967 268.539 110.775L264.795 107.383V110.119C264.795 110.429 264.699 110.663 264.507 110.823C264.315 110.983 264.075 111.063 263.787 111.063C263.499 111.063 263.259 110.983 263.067 110.823C262.886 110.663 262.795 110.429 262.795 110.119V100.567C262.795 100.258 262.886 100.023 263.067 99.8634C263.259 99.7034 263.499 99.6234 263.787 99.6234C264.075 99.6234 264.315 99.7034 264.507 99.8634C264.699 100.023 264.795 100.258 264.795 100.567V106.583L268.219 103.303C268.411 103.111 268.63 103.015 268.875 103.015C269.12 103.015 269.334 103.106 269.515 103.287C269.696 103.469 269.787 103.682 269.787 103.927C269.787 104.173 269.686 104.397 269.483 104.599L266.971 106.935L269.755 109.431ZM277.456 108.839C277.637 108.839 277.781 108.909 277.888 109.047C278.005 109.186 278.064 109.373 278.064 109.607C278.064 109.938 277.866 110.215 277.472 110.439C277.109 110.642 276.698 110.807 276.24 110.935C275.781 111.053 275.344 111.111 274.928 111.111C273.669 111.111 272.672 110.749 271.936 110.023C271.2 109.298 270.832 108.306 270.832 107.047C270.832 106.247 270.992 105.538 271.312 104.919C271.632 104.301 272.08 103.821 272.656 103.479C273.242 103.138 273.904 102.967 274.64 102.967C275.344 102.967 275.957 103.122 276.48 103.431C277.002 103.741 277.408 104.178 277.696 104.743C277.984 105.309 278.128 105.975 278.128 106.743C278.128 107.202 277.925 107.431 277.52 107.431H272.8C272.864 108.167 273.072 108.711 273.424 109.063C273.776 109.405 274.288 109.575 274.96 109.575C275.301 109.575 275.6 109.533 275.856 109.447C276.122 109.362 276.421 109.245 276.752 109.095C277.072 108.925 277.306 108.839 277.456 108.839ZM274.688 104.375C274.144 104.375 273.706 104.546 273.376 104.887C273.056 105.229 272.864 105.719 272.8 106.359H276.416C276.394 105.709 276.234 105.218 275.936 104.887C275.637 104.546 275.221 104.375 274.688 104.375ZM286.292 99.6234C286.59 99.6234 286.836 99.7087 287.028 99.8794C287.22 100.05 287.316 100.274 287.316 100.551V110.119C287.316 110.407 287.225 110.637 287.044 110.807C286.862 110.978 286.622 111.063 286.324 111.063C286.025 111.063 285.785 110.978 285.604 110.807C285.422 110.637 285.332 110.407 285.332 110.119V109.719C285.097 110.157 284.756 110.498 284.308 110.743C283.87 110.989 283.369 111.111 282.804 111.111C282.132 111.111 281.529 110.941 280.996 110.599C280.473 110.258 280.062 109.778 279.764 109.159C279.476 108.53 279.332 107.81 279.332 106.999C279.332 106.189 279.476 105.479 279.764 104.871C280.062 104.263 280.473 103.794 280.996 103.463C281.518 103.133 282.121 102.967 282.804 102.967C283.369 102.967 283.87 103.085 284.308 103.319C284.745 103.554 285.081 103.885 285.316 104.311V100.519C285.316 100.253 285.401 100.039 285.572 99.8794C285.753 99.7087 285.993 99.6234 286.292 99.6234ZM283.332 109.559C283.972 109.559 284.462 109.341 284.804 108.903C285.156 108.466 285.332 107.842 285.332 107.031C285.332 106.221 285.156 105.602 284.804 105.175C284.462 104.738 283.977 104.519 283.348 104.519C282.708 104.519 282.212 104.733 281.86 105.159C281.508 105.586 281.332 106.199 281.332 106.999C281.332 107.81 281.508 108.439 281.86 108.887C282.212 109.335 282.702 109.559 283.332 109.559Z" fill="#FF2E63"/>
<rect x="192.385" y="38" width="97.6025" height="30" rx="8" fill="#F2F4F5"/>
<g filter="url(#filter1_d)">
<rect x="285.908" y="131.376" width="89.0923" height="81.1842" rx="12" fill="white"/>
</g>
<path d="M314.241 172.339C314.241 181.321 321.514 188.628 330.454 188.628C339.394 188.628 346.667 181.321 346.667 172.339C346.667 163.356 339.394 156.049 330.454 156.049C321.514 156.049 314.241 163.356 314.241 172.339ZM343.513 172.339C343.513 179.573 337.655 185.459 330.454 185.459C323.253 185.459 317.395 179.573 317.395 172.339C317.395 165.104 323.253 159.218 330.454 159.218C337.655 159.218 343.513 165.104 343.513 172.339Z" fill="#FF2E63"/>
<path d="M330.679 165.99C330.679 165.307 330.125 164.753 329.442 164.753C328.758 164.753 328.204 165.307 328.204 165.99V174.809L335.835 179.459C336.403 179.806 337.145 179.623 337.487 179.053C337.828 178.486 337.645 177.75 337.078 177.408L330.679 173.552V165.99Z" fill="#FF2E63" stroke="#FF2E63" stroke-width="0.5"/>
<path d="M353.331 185.233C353.758 184.471 353.426 183.521 352.641 183.14C351.857 182.76 350.919 183.091 350.487 183.849C349.117 186.25 347.342 188.375 345.195 190.181C335.29 198.512 320.486 197.231 312.195 187.326C303.903 177.422 305.216 162.586 315.12 154.255C325.025 145.925 339.829 147.205 348.12 157.11C350.57 160.036 352.238 163.436 353.038 167.088L351.578 165.855C350.911 165.292 349.914 165.377 349.352 166.046C348.788 166.715 348.873 167.715 349.541 168.279L354.352 172.341C354.773 172.697 355.403 172.643 355.759 172.22L359.829 167.385C360.391 166.717 360.307 165.719 359.64 165.156C358.974 164.594 357.98 164.679 357.418 165.346L356.205 166.786C355.332 162.492 353.408 158.496 350.542 155.073C345.984 149.628 339.578 146.292 332.505 145.68C325.432 145.069 318.538 147.254 313.093 151.833C307.648 156.413 304.304 162.839 303.677 169.928C303.05 177.016 305.214 183.918 309.773 189.363C314.331 194.808 320.736 198.144 327.81 198.756C334.883 199.368 341.777 197.183 347.222 192.603C349.712 190.508 351.762 188.035 353.331 185.233Z" fill="#FF2E63"/>
<g filter="url(#filter2_d)">
<rect x="24" y="323.542" width="131.265" height="120.377" rx="12" fill="white"/>
</g>
<path d="M77.3214 419.024H117.338C120.652 419.024 123.338 416.338 123.338 413.024V370.098C123.338 366.784 120.652 364.098 117.338 364.098H54.8349C51.5212 364.098 48.8349 366.784 48.8349 370.098V390.463" stroke="#D7DEE2" stroke-width="2" stroke-linecap="round"/>
<path d="M64.1574 387.167C55.0855 387.167 47.7393 394.55 47.7393 403.645C47.7393 412.741 55.0855 420.123 64.1574 420.123C73.2456 420.123 80.6083 412.741 80.6083 403.645C80.6083 394.55 73.2456 387.167 64.1574 387.167ZM64.1738 416.828C56.9098 416.828 51.0262 410.929 51.0262 403.645C51.0262 396.362 56.9098 390.463 64.1738 390.463C71.4379 390.463 77.3214 396.362 77.3214 403.645C77.3214 410.929 71.4379 416.828 64.1738 416.828Z" fill="#D7DEE2"/>
<path d="M64.9959 396.639C64.9959 395.958 64.4441 395.406 63.7633 395.406C63.0826 395.406 62.5307 395.958 62.5307 396.639V405.293L70.1499 409.877C70.7079 410.212 71.4323 410.034 71.7706 409.477C72.1125 408.915 71.9301 408.182 71.3647 407.846L64.9959 404.057V396.639Z" fill="#D7DEE2" stroke="#D7DEE2" stroke-width="0.5"/>
<ellipse rx="2.73908" ry="2.74631" transform="matrix(-1 0 0 1 107.451 380.027)" fill="#D7DEE2"/>
<ellipse rx="2.73908" ry="2.74631" transform="matrix(-1 0 0 1 107.451 394.308)" fill="#D7DEE2"/>
<ellipse rx="2.73908" ry="2.74631" transform="matrix(-1 0 0 1 107.451 408.589)" fill="#D7DEE2"/>
<ellipse rx="2.73908" ry="2.74631" transform="matrix(-1 0 0 1 93.2078 380.027)" fill="#D7DEE2"/>
<ellipse rx="2.73908" ry="2.74631" transform="matrix(-1 0 0 1 93.2078 394.308)" fill="#FF2E63"/>
<ellipse rx="2.73908" ry="2.74631" transform="matrix(-1 0 0 1 93.2078 408.589)" fill="#D7DEE2"/>
<ellipse rx="2.73908" ry="2.74631" transform="matrix(-1 0 0 1 78.9646 380.027)" fill="#D7DEE2"/>
<ellipse rx="2.73908" ry="2.74631" transform="matrix(-1 0 0 1 64.7215 380.027)" fill="#D7DEE2"/>
<rect width="4.38253" height="10.9852" rx="2" transform="matrix(-1 0 0 1 109.641 357.507)" fill="#D7DEE2"/>
<rect width="4.38253" height="10.9852" rx="2" transform="matrix(-1 0 0 1 88.2774 357.507)" fill="#D7DEE2"/>
<rect width="4.38253" height="10.9852" rx="2" transform="matrix(-1 0 0 1 66.9128 357.507)" fill="#D7DEE2"/>
<g filter="url(#filter3_d)">
<ellipse cx="122.355" cy="356.498" rx="16.1526" ry="16.1589" fill="white"/>
</g>
<mask id="path-34-inside-1" fill="white">
<path d="M116.49 347.913C116.936 347.496 117 346.785 116.573 346.349L116.425 346.198C116.069 345.833 115.493 345.792 115.117 346.134C113.089 347.979 111.704 350.526 111.331 353.403C111.258 353.967 111.717 354.442 112.286 354.442H112.509C113.039 354.442 113.472 354.026 113.552 353.501C113.887 351.3 114.951 349.349 116.49 347.913ZM130.992 353.501C131.072 354.026 131.505 354.442 132.036 354.442H132.256C132.826 354.442 133.285 353.965 133.21 353.4C132.83 350.527 131.447 347.982 129.43 346.139C129.053 345.794 128.474 345.837 128.118 346.203L127.973 346.353C127.55 346.788 127.613 347.495 128.055 347.91C129.586 349.347 130.656 351.299 130.992 353.501ZM128.91 355.008C128.91 351.534 127.096 348.625 123.932 347.856V347.086C123.932 346.147 123.191 345.388 122.272 345.388C121.354 345.388 120.613 346.147 120.613 347.086V347.856C117.438 348.625 115.634 351.522 115.634 355.008V360.667L113.651 362.696C113.504 362.846 113.422 363.048 113.422 363.258C113.422 363.702 113.782 364.062 114.226 364.062H130.319C130.763 364.062 131.123 363.702 131.123 363.258C131.123 363.048 131.041 362.846 130.894 362.696L128.91 360.667V355.008ZM122.272 367.457C123.313 367.457 124.193 366.682 124.418 365.69C124.479 365.421 124.25 365.194 123.974 365.194H120.553C120.275 365.194 120.045 365.423 120.107 365.694C120.336 366.7 121.214 367.457 122.272 367.457Z"/>
</mask>
<path d="M123.932 347.856H121.932V349.427L123.459 349.799L123.932 347.856ZM120.613 347.856L121.084 349.799L122.613 349.429V347.856H120.613ZM115.634 360.667L117.064 362.065L117.634 361.482V360.667H115.634ZM128.91 360.667H126.91V361.482L127.48 362.065L128.91 360.667ZM124.418 365.69L126.369 366.132L124.418 365.69ZM130.894 362.696L129.464 364.094L130.894 362.696ZM127.973 346.353L129.408 347.746L127.973 346.353ZM128.055 347.91L129.424 346.452L128.055 347.91ZM129.43 346.139L128.081 347.615L129.43 346.139ZM128.118 346.203L126.683 344.81L128.118 346.203ZM113.651 362.696L112.221 361.298L113.651 362.696ZM133.21 353.4L131.227 353.662L133.21 353.4ZM130.992 353.501L129.015 353.803L130.992 353.501ZM120.107 365.694L118.157 366.138L120.107 365.694ZM116.49 347.913L115.126 346.45L116.49 347.913ZM118.004 344.951L117.855 344.8L114.995 347.596L115.143 347.747L118.004 344.951ZM113.771 344.655C111.401 346.81 109.783 349.787 109.348 353.146L113.315 353.659C113.625 351.264 114.777 349.147 116.462 347.614L113.771 344.655ZM112.286 356.442H112.509V352.442H112.286V356.442ZM115.529 353.802C115.796 352.053 116.639 350.509 117.855 349.375L115.126 346.45C113.262 348.19 111.979 350.547 111.575 353.2L115.529 353.802ZM132.036 356.442H132.256V352.442H132.036V356.442ZM135.193 353.138C134.75 349.787 133.136 346.816 130.78 344.663L128.081 347.615C129.758 349.148 130.91 351.266 131.227 353.662L135.193 353.138ZM126.683 344.81L126.537 344.96L129.408 347.746L129.553 347.596L126.683 344.81ZM126.686 349.368C127.899 350.507 128.748 352.055 129.015 353.803L132.969 353.199C132.563 350.543 131.273 348.188 129.424 346.452L126.686 349.368ZM130.91 355.008C130.91 350.867 128.692 346.955 124.404 345.912L123.459 349.799C125.5 350.295 126.91 352.2 126.91 355.008H130.91ZM125.932 347.856V347.086H121.932V347.856H125.932ZM125.932 347.086C125.932 345.085 124.338 343.388 122.272 343.388V347.388C122.043 347.388 121.932 347.208 121.932 347.086H125.932ZM122.272 343.388C120.207 343.388 118.613 345.085 118.613 347.086H122.613C122.613 347.208 122.501 347.388 122.272 347.388V343.388ZM118.613 347.086V347.856H122.613V347.086H118.613ZM120.142 345.912C115.84 346.954 113.634 350.858 113.634 355.008H117.634C117.634 352.187 119.035 350.296 121.084 349.799L120.142 345.912ZM113.634 355.008V360.667H117.634V355.008H113.634ZM114.204 359.269L112.221 361.298L115.081 364.094L117.064 362.065L114.204 359.269ZM114.226 366.062H130.319V362.062H114.226V366.062ZM132.324 361.298L130.34 359.269L127.48 362.065L129.464 364.094L132.324 361.298ZM130.91 360.667V355.008H126.91V360.667H130.91ZM123.974 363.194H120.553V367.194H123.974V363.194ZM118.157 366.138C118.579 367.993 120.219 369.457 122.272 369.457V365.457C122.231 365.457 122.193 365.445 122.154 365.413C122.111 365.377 122.073 365.32 122.057 365.25L118.157 366.138ZM122.272 369.457C124.331 369.457 125.956 367.951 126.369 366.132L122.468 365.247C122.454 365.308 122.416 365.371 122.364 365.414C122.317 365.454 122.285 365.457 122.272 365.457V369.457ZM123.974 367.194C123.572 367.194 123.164 367.031 122.86 366.705C122.534 366.355 122.339 365.816 122.468 365.247L126.369 366.132C126.784 364.303 125.197 363.194 123.974 363.194V367.194ZM133.123 363.258C133.123 362.525 132.836 361.822 132.324 361.298L129.464 364.094C129.245 363.871 129.123 363.571 129.123 363.258H133.123ZM130.319 366.062C131.868 366.062 133.123 364.807 133.123 363.258H129.123C129.123 362.598 129.658 362.062 130.319 362.062V366.062ZM126.537 344.96C125.23 346.307 125.545 348.296 126.686 349.368L129.424 346.452C129.579 346.598 129.672 346.795 129.685 347.011C129.7 347.238 129.626 347.522 129.408 347.746L126.537 344.96ZM111.422 363.258C111.422 364.807 112.677 366.062 114.226 366.062V362.062C114.886 362.062 115.422 362.598 115.422 363.258H111.422ZM130.78 344.663C129.533 343.523 127.723 343.739 126.683 344.81L129.553 347.596C129.226 347.934 128.573 348.065 128.081 347.615L130.78 344.663ZM112.221 361.298C111.708 361.822 111.422 362.525 111.422 363.258H115.422C115.422 363.571 115.299 363.871 115.081 364.094L112.221 361.298ZM132.256 356.442C133.914 356.442 135.441 355.018 135.193 353.138L131.227 353.662C131.128 352.913 131.737 352.442 132.256 352.442V356.442ZM132.036 352.442C132.609 352.442 132.918 352.867 132.969 353.199L129.015 353.803C129.226 355.185 130.401 356.442 132.036 356.442V352.442ZM112.509 356.442C114.143 356.442 115.319 355.185 115.529 353.802L111.575 353.2C111.626 352.867 111.935 352.442 112.509 352.442V356.442ZM109.348 353.146C109.105 355.024 110.631 356.442 112.286 356.442V352.442C112.803 352.442 113.412 352.911 113.315 353.659L109.348 353.146ZM117.855 344.8C116.816 343.736 115.015 343.523 113.771 344.655L116.462 347.614C115.971 348.06 115.323 347.931 114.995 347.596L117.855 344.8ZM120.553 363.194C119.317 363.194 117.742 364.316 118.157 366.138L122.057 365.25C122.186 365.815 121.993 366.353 121.669 366.702C121.366 367.029 120.957 367.194 120.553 367.194V363.194ZM115.143 347.747C114.923 347.522 114.849 347.237 114.863 347.01C114.877 346.794 114.97 346.596 115.126 346.45L117.855 349.375C119.004 348.303 119.323 346.301 118.004 344.951L115.143 347.747Z" fill="#FF2E63" mask="url(#path-34-inside-1)"/>
<defs>
<filter id="filter0_d" x="90" y="0" width="242" height="454" filterUnits="userSpaceOnUse" color-interpolation-filters="sRGB">
<feFlood flood-opacity="0" result="BackgroundImageFix"/>
<feColorMatrix in="SourceAlpha" type="matrix" values="0 0 0 0 0 0 0 0 0 0 0 0 0 0 0 0 0 0 127 0"/>
<feOffset dy="6"/>
<feGaussianBlur stdDeviation="7"/>
<feColorMatrix type="matrix" values="0 0 0 0 0.615686 0 0 0 0 0.00392157 0 0 0 0 0.568627 0 0 0 0.16 0"/>
<feBlend mode="normal" in2="BackgroundImageFix" result="effect1_dropShadow"/>
<feBlend mode="normal" in="SourceGraphic" in2="effect1_dropShadow" result="shape"/>
</filter>
<filter id="filter1_d" x="261.908" y="121.376" width="137.092" height="129.184" filterUnits="userSpaceOnUse" color-interpolation-filters="sRGB">
<feFlood flood-opacity="0" result="BackgroundImageFix"/>
<feColorMatrix in="SourceAlpha" type="matrix" values="0 0 0 0 0 0 0 0 0 0 0 0 0 0 0 0 0 0 127 0"/>
<feOffset dy="14"/>
<feGaussianBlur stdDeviation="12"/>
<feColorMatrix type="matrix" values="0 0 0 0 0.615686 0 0 0 0 0.00392157 0 0 0 0 0.568627 0 0 0 0.2 0"/>
<feBlend mode="normal" in2="BackgroundImageFix" result="effect1_dropShadow"/>
<feBlend mode="normal" in="SourceGraphic" in2="effect1_dropShadow" result="shape"/>
</filter>
<filter id="filter2_d" x="0" y="313.542" width="179.265" height="168.377" filterUnits="userSpaceOnUse" color-interpolation-filters="sRGB">
<feFlood flood-opacity="0" result="BackgroundImageFix"/>
<feColorMatrix in="SourceAlpha" type="matrix" values="0 0 0 0 0 0 0 0 0 0 0 0 0 0 0 0 0 0 127 0"/>
<feOffset dy="14"/>
<feGaussianBlur stdDeviation="12"/>
<feColorMatrix type="matrix" values="0 0 0 0 0.615686 0 0 0 0 0.00392157 0 0 0 0 0.568627 0 0 0 0.2 0"/>
<feBlend mode="normal" in2="BackgroundImageFix" result="effect1_dropShadow"/>
<feBlend mode="normal" in="SourceGraphic" in2="effect1_dropShadow" result="shape"/>
</filter>
<filter id="filter3_d" x="92.2023" y="332.339" width="60.3051" height="60.3178" filterUnits="userSpaceOnUse" color-interpolation-filters="sRGB">
<feFlood flood-opacity="0" result="BackgroundImageFix"/>
<feColorMatrix in="SourceAlpha" type="matrix" values="0 0 0 0 0 0 0 0 0 0 0 0 0 0 0 0 0 0 127 0"/>
<feOffset dy="6"/>
<feGaussianBlur stdDeviation="7"/>
<feColorMatrix type="matrix" values="0 0 0 0 0.354839 0 0 0 0 0 0 0 0 0 1 0 0 0 0.16 0"/>
<feBlend mode="normal" in2="BackgroundImageFix" result="effect1_dropShadow"/>
<feBlend mode="normal" in="SourceGraphic" in2="effect1_dropShadow" result="shape"/>
</filter>
</defs>
</svg>
