<svg width="335" height="428" viewBox="0 0 335 428" fill="none" xmlns="http://www.w3.org/2000/svg">
<g filter="url(#filter0_d)">
<rect x="89.4131" y="8" width="174.98" height="373.239" rx="14" fill="white"/>
</g>
<path d="M136.292 136.144C134.959 136.144 133.94 135.653 133.236 134.672C132.532 133.68 132.18 132.24 132.18 130.352C132.18 128.475 132.532 127.045 133.236 126.064C133.94 125.072 134.959 124.576 136.292 124.576C137.626 124.576 138.644 125.072 139.348 126.064C140.052 127.045 140.404 128.475 140.404 130.352C140.404 132.229 140.052 133.664 139.348 134.656C138.644 135.648 137.626 136.144 136.292 136.144ZM136.292 134.528C137.018 134.528 137.546 134.197 137.876 133.536C138.207 132.864 138.372 131.803 138.372 130.352C138.372 128.891 138.207 127.835 137.876 127.184C137.546 126.523 137.018 126.192 136.292 126.192C135.567 126.192 135.039 126.523 134.708 127.184C134.378 127.845 134.212 128.901 134.212 130.352C134.212 131.803 134.378 132.864 134.708 133.536C135.039 134.197 135.567 134.528 136.292 134.528ZM146.478 128.784C147.182 128.784 147.801 128.939 148.334 129.248C148.878 129.547 149.299 129.968 149.598 130.512C149.897 131.056 150.046 131.68 150.046 132.384C150.046 133.12 149.875 133.771 149.534 134.336C149.203 134.901 148.729 135.344 148.11 135.664C147.502 135.973 146.798 136.128 145.998 136.128C145.337 136.128 144.686 136.021 144.046 135.808C143.417 135.584 142.878 135.285 142.43 134.912C142.185 134.699 142.062 134.448 142.062 134.16C142.062 133.925 142.126 133.728 142.254 133.568C142.393 133.397 142.553 133.312 142.734 133.312C142.841 133.312 142.942 133.333 143.038 133.376C143.134 133.408 143.246 133.467 143.374 133.552C143.801 133.851 144.217 134.08 144.622 134.24C145.027 134.4 145.459 134.48 145.918 134.48C146.622 134.48 147.161 134.304 147.534 133.952C147.907 133.6 148.094 133.099 148.094 132.448C148.094 131.819 147.902 131.323 147.518 130.96C147.145 130.587 146.627 130.4 145.966 130.4C145.55 130.4 145.177 130.459 144.846 130.576C144.526 130.693 144.195 130.891 143.854 131.168C143.651 131.307 143.443 131.376 143.23 131.376C143.017 131.376 142.835 131.312 142.686 131.184C142.537 131.056 142.462 130.885 142.462 130.672V125.68C142.462 125.381 142.547 125.147 142.718 124.976C142.889 124.805 143.129 124.72 143.438 124.72H148.766C149.406 124.72 149.726 124.987 149.726 125.52C149.726 126.053 149.406 126.32 148.766 126.32H144.478V129.36C145.022 128.976 145.689 128.784 146.478 128.784ZM156.031 136.096C155.21 136.128 154.799 135.845 154.799 135.248C154.799 134.992 154.869 134.8 155.007 134.672C155.135 134.533 155.343 134.453 155.631 134.432L156.143 134.4C156.581 134.379 156.911 134.24 157.135 133.984C157.359 133.728 157.471 133.339 157.471 132.816V125.664C157.471 125.355 157.562 125.109 157.743 124.928C157.935 124.736 158.186 124.64 158.495 124.64C158.815 124.64 159.066 124.736 159.247 124.928C159.439 125.109 159.535 125.355 159.535 125.664V132.816C159.535 134.832 158.538 135.915 156.543 136.064L156.031 136.096ZM165.19 127.984C166.278 127.984 167.083 128.256 167.606 128.8C168.139 129.333 168.406 130.149 168.406 131.248V135.152C168.406 135.44 168.32 135.669 168.15 135.84C167.979 136 167.744 136.08 167.446 136.08C167.168 136.08 166.939 135.995 166.758 135.824C166.587 135.653 166.502 135.429 166.502 135.152V134.8C166.32 135.216 166.032 135.541 165.638 135.776C165.254 136.011 164.806 136.128 164.294 136.128C163.771 136.128 163.296 136.021 162.87 135.808C162.443 135.595 162.107 135.301 161.862 134.928C161.616 134.555 161.494 134.139 161.494 133.68C161.494 133.104 161.638 132.651 161.926 132.32C162.224 131.989 162.704 131.749 163.366 131.6C164.027 131.451 164.939 131.376 166.102 131.376H166.502V131.008C166.502 130.485 166.39 130.107 166.166 129.872C165.942 129.627 165.579 129.504 165.078 129.504C164.768 129.504 164.454 129.552 164.134 129.648C163.814 129.733 163.435 129.861 162.998 130.032C162.72 130.171 162.518 130.24 162.39 130.24C162.198 130.24 162.038 130.171 161.91 130.032C161.792 129.893 161.734 129.712 161.734 129.488C161.734 129.307 161.776 129.152 161.862 129.024C161.958 128.885 162.112 128.757 162.326 128.64C162.699 128.437 163.142 128.277 163.654 128.16C164.176 128.043 164.688 127.984 165.19 127.984ZM164.694 134.688C165.227 134.688 165.659 134.512 165.99 134.16C166.331 133.797 166.502 133.333 166.502 132.768V132.432H166.214C165.499 132.432 164.944 132.464 164.55 132.528C164.155 132.592 163.872 132.704 163.702 132.864C163.531 133.024 163.446 133.243 163.446 133.52C163.446 133.861 163.563 134.144 163.798 134.368C164.043 134.581 164.342 134.688 164.694 134.688ZM174.982 127.984C175.921 127.984 176.62 128.251 177.078 128.784C177.537 129.317 177.766 130.123 177.766 131.2V135.136C177.766 135.435 177.676 135.669 177.494 135.84C177.324 136.011 177.084 136.096 176.774 136.096C176.465 136.096 176.22 136.011 176.038 135.84C175.857 135.669 175.766 135.435 175.766 135.136V131.312C175.766 130.704 175.649 130.261 175.414 129.984C175.19 129.707 174.833 129.568 174.342 129.568C173.766 129.568 173.302 129.749 172.95 130.112C172.609 130.475 172.438 130.96 172.438 131.568V135.136C172.438 135.435 172.348 135.669 172.166 135.84C171.985 136.011 171.74 136.096 171.43 136.096C171.121 136.096 170.876 136.011 170.694 135.84C170.524 135.669 170.438 135.435 170.438 135.136V128.944C170.438 128.667 170.529 128.443 170.71 128.272C170.892 128.101 171.137 128.016 171.446 128.016C171.724 128.016 171.948 128.101 172.118 128.272C172.3 128.432 172.39 128.645 172.39 128.912V129.344C172.657 128.907 173.014 128.571 173.462 128.336C173.91 128.101 174.417 127.984 174.982 127.984ZM191.07 134.336C191.71 134.336 192.03 134.608 192.03 135.152C192.03 135.717 191.71 136 191.07 136H184.99C184.712 136 184.494 135.92 184.334 135.76C184.174 135.589 184.094 135.381 184.094 135.136C184.094 134.816 184.216 134.528 184.462 134.272L188.11 130.352C188.558 129.861 188.883 129.413 189.086 129.008C189.299 128.592 189.406 128.181 189.406 127.776C189.406 127.275 189.262 126.891 188.974 126.624C188.686 126.357 188.275 126.224 187.742 126.224C187.304 126.224 186.878 126.309 186.462 126.48C186.056 126.64 185.646 126.864 185.23 127.152C185.123 127.227 185.016 127.291 184.91 127.344C184.803 127.387 184.696 127.408 184.59 127.408C184.408 127.408 184.248 127.323 184.11 127.152C183.982 126.981 183.918 126.779 183.918 126.544C183.918 126.384 183.944 126.245 183.998 126.128C184.062 126.011 184.158 125.899 184.286 125.792C184.755 125.419 185.304 125.125 185.934 124.912C186.563 124.688 187.192 124.576 187.822 124.576C188.92 124.576 189.795 124.853 190.446 125.408C191.107 125.963 191.438 126.709 191.438 127.648C191.438 128.299 191.299 128.912 191.022 129.488C190.744 130.053 190.275 130.688 189.614 131.392L186.846 134.336H191.07ZM197.511 136.144C196.178 136.144 195.159 135.653 194.455 134.672C193.751 133.68 193.399 132.24 193.399 130.352C193.399 128.475 193.751 127.045 194.455 126.064C195.159 125.072 196.178 124.576 197.511 124.576C198.844 124.576 199.863 125.072 200.567 126.064C201.271 127.045 201.623 128.475 201.623 130.352C201.623 132.229 201.271 133.664 200.567 134.656C199.863 135.648 198.844 136.144 197.511 136.144ZM197.511 134.528C198.236 134.528 198.764 134.197 199.095 133.536C199.426 132.864 199.591 131.803 199.591 130.352C199.591 128.891 199.426 127.835 199.095 127.184C198.764 126.523 198.236 126.192 197.511 126.192C196.786 126.192 196.258 126.523 195.927 127.184C195.596 127.845 195.431 128.901 195.431 130.352C195.431 131.803 195.596 132.864 195.927 133.536C196.258 134.197 196.786 134.528 197.511 134.528ZM210.273 134.336C210.913 134.336 211.233 134.608 211.233 135.152C211.233 135.717 210.913 136 210.273 136H204.193C203.915 136 203.697 135.92 203.537 135.76C203.377 135.589 203.297 135.381 203.297 135.136C203.297 134.816 203.419 134.528 203.665 134.272L207.313 130.352C207.761 129.861 208.086 129.413 208.289 129.008C208.502 128.592 208.609 128.181 208.609 127.776C208.609 127.275 208.465 126.891 208.177 126.624C207.889 126.357 207.478 126.224 206.945 126.224C206.507 126.224 206.081 126.309 205.665 126.48C205.259 126.64 204.849 126.864 204.433 127.152C204.326 127.227 204.219 127.291 204.113 127.344C204.006 127.387 203.899 127.408 203.793 127.408C203.611 127.408 203.451 127.323 203.313 127.152C203.185 126.981 203.121 126.779 203.121 126.544C203.121 126.384 203.147 126.245 203.201 126.128C203.265 126.011 203.361 125.899 203.489 125.792C203.958 125.419 204.507 125.125 205.137 124.912C205.766 124.688 206.395 124.576 207.025 124.576C208.123 124.576 208.998 124.853 209.649 125.408C210.31 125.963 210.641 126.709 210.641 127.648C210.641 128.299 210.502 128.912 210.225 129.488C209.947 130.053 209.478 130.688 208.817 131.392L206.049 134.336H210.273ZM219.93 134.336C220.57 134.336 220.89 134.608 220.89 135.152C220.89 135.717 220.57 136 219.93 136H214.522C213.871 136 213.546 135.717 213.546 135.152C213.546 134.608 213.871 134.336 214.522 134.336H216.186V127.04L214.65 127.984C214.501 128.069 214.367 128.112 214.25 128.112C214.026 128.112 213.834 128.016 213.674 127.824C213.525 127.632 213.45 127.419 213.45 127.184C213.45 126.875 213.589 126.635 213.866 126.464L216.346 124.928C216.666 124.736 216.97 124.64 217.258 124.64C217.557 124.64 217.797 124.731 217.978 124.912C218.159 125.093 218.25 125.344 218.25 125.664V134.336H219.93Z" fill="#6772E5"/>
<path d="M136.631 168.07C136.351 168.07 136.127 167.991 135.959 167.832C135.8 167.664 135.721 167.445 135.721 167.174V159.614H133.173C132.613 159.614 132.333 159.367 132.333 158.872C132.333 158.377 132.613 158.13 133.173 158.13H140.075C140.635 158.13 140.915 158.377 140.915 158.872C140.915 159.367 140.635 159.614 140.075 159.614H137.527V167.174C137.527 167.445 137.443 167.664 137.275 167.832C137.116 167.991 136.902 168.07 136.631 168.07ZM146.153 161.014C146.424 161.014 146.638 161.089 146.797 161.238C146.956 161.387 147.035 161.588 147.035 161.84V167.272C147.035 167.515 146.951 167.711 146.783 167.86C146.624 168.009 146.414 168.084 146.153 168.084C145.901 168.084 145.7 168.014 145.551 167.874C145.402 167.734 145.327 167.543 145.327 167.3V166.95C145.112 167.323 144.823 167.613 144.459 167.818C144.095 168.014 143.684 168.112 143.227 168.112C141.547 168.112 140.707 167.169 140.707 165.284V161.84C140.707 161.588 140.786 161.387 140.945 161.238C141.104 161.089 141.314 161.014 141.575 161.014C141.846 161.014 142.06 161.089 142.219 161.238C142.378 161.387 142.457 161.588 142.457 161.84V165.298C142.457 165.783 142.555 166.143 142.751 166.376C142.947 166.609 143.255 166.726 143.675 166.726C144.16 166.726 144.548 166.567 144.837 166.25C145.136 165.923 145.285 165.494 145.285 164.962V161.84C145.285 161.588 145.364 161.387 145.523 161.238C145.682 161.089 145.892 161.014 146.153 161.014ZM154.274 166.124C154.433 166.124 154.559 166.185 154.652 166.306C154.755 166.427 154.806 166.591 154.806 166.796C154.806 167.085 154.634 167.328 154.288 167.524C153.971 167.701 153.612 167.846 153.21 167.958C152.809 168.061 152.426 168.112 152.062 168.112C150.961 168.112 150.088 167.795 149.444 167.16C148.8 166.525 148.478 165.657 148.478 164.556C148.478 163.856 148.618 163.235 148.898 162.694C149.178 162.153 149.57 161.733 150.074 161.434C150.588 161.135 151.166 160.986 151.81 160.986C152.426 160.986 152.963 161.121 153.42 161.392C153.878 161.663 154.232 162.045 154.484 162.54C154.736 163.035 154.862 163.618 154.862 164.29C154.862 164.691 154.685 164.892 154.33 164.892H150.2C150.256 165.536 150.438 166.012 150.746 166.32C151.054 166.619 151.502 166.768 152.09 166.768C152.389 166.768 152.65 166.731 152.874 166.656C153.108 166.581 153.369 166.479 153.658 166.348C153.938 166.199 154.144 166.124 154.274 166.124ZM151.852 162.218C151.376 162.218 150.994 162.367 150.704 162.666C150.424 162.965 150.256 163.394 150.2 163.954H153.364C153.346 163.385 153.206 162.955 152.944 162.666C152.683 162.367 152.319 162.218 151.852 162.218ZM163.385 168.126C162.218 168.126 161.327 167.697 160.711 166.838C160.095 165.97 159.787 164.71 159.787 163.058C159.787 161.415 160.095 160.165 160.711 159.306C161.327 158.438 162.218 158.004 163.385 158.004C164.551 158.004 165.443 158.438 166.059 159.306C166.675 160.165 166.983 161.415 166.983 163.058C166.983 164.701 166.675 165.956 166.059 166.824C165.443 167.692 164.551 168.126 163.385 168.126ZM163.385 166.712C164.019 166.712 164.481 166.423 164.771 165.844C165.06 165.256 165.205 164.327 165.205 163.058C165.205 161.779 165.06 160.855 164.771 160.286C164.481 159.707 164.019 159.418 163.385 159.418C162.75 159.418 162.288 159.707 161.999 160.286C161.709 160.865 161.565 161.789 161.565 163.058C161.565 164.327 161.709 165.256 161.999 165.844C162.288 166.423 162.75 166.712 163.385 166.712ZM174.593 166.544C175.153 166.544 175.433 166.782 175.433 167.258C175.433 167.753 175.153 168 174.593 168H169.861C169.292 168 169.007 167.753 169.007 167.258C169.007 166.782 169.292 166.544 169.861 166.544H171.317V160.16L169.973 160.986C169.842 161.061 169.726 161.098 169.623 161.098C169.427 161.098 169.259 161.014 169.119 160.846C168.988 160.678 168.923 160.491 168.923 160.286C168.923 160.015 169.044 159.805 169.287 159.656L171.457 158.312C171.737 158.144 172.003 158.06 172.255 158.06C172.516 158.06 172.726 158.139 172.885 158.298C173.044 158.457 173.123 158.676 173.123 158.956V166.544H174.593ZM177.71 163.1C177.411 163.1 177.164 163.002 176.968 162.806C176.772 162.601 176.674 162.349 176.674 162.05C176.674 161.751 176.772 161.504 176.968 161.308C177.164 161.112 177.411 161.014 177.71 161.014C178.008 161.014 178.256 161.112 178.452 161.308C178.648 161.504 178.746 161.751 178.746 162.05C178.746 162.349 178.648 162.601 178.452 162.806C178.256 163.002 178.008 163.1 177.71 163.1ZM177.71 168.084C177.411 168.084 177.164 167.986 176.968 167.79C176.772 167.585 176.674 167.333 176.674 167.034C176.674 166.735 176.772 166.488 176.968 166.292C177.164 166.087 177.411 165.984 177.71 165.984C178.008 165.984 178.256 166.087 178.452 166.292C178.648 166.488 178.746 166.735 178.746 167.034C178.746 167.333 178.648 167.585 178.452 167.79C178.256 167.986 178.008 168.084 177.71 168.084ZM183.646 168.126C182.48 168.126 181.588 167.697 180.972 166.838C180.356 165.97 180.048 164.71 180.048 163.058C180.048 161.415 180.356 160.165 180.972 159.306C181.588 158.438 182.48 158.004 183.646 158.004C184.813 158.004 185.704 158.438 186.32 159.306C186.936 160.165 187.244 161.415 187.244 163.058C187.244 164.701 186.936 165.956 186.32 166.824C185.704 167.692 184.813 168.126 183.646 168.126ZM183.646 166.712C184.281 166.712 184.743 166.423 185.032 165.844C185.322 165.256 185.466 164.327 185.466 163.058C185.466 161.779 185.322 160.855 185.032 160.286C184.743 159.707 184.281 159.418 183.646 159.418C183.012 159.418 182.55 159.707 182.26 160.286C181.971 160.865 181.826 161.789 181.826 163.058C181.826 164.327 181.971 165.256 182.26 165.844C182.55 166.423 183.012 166.712 183.646 166.712ZM192.041 168.126C190.874 168.126 189.983 167.697 189.367 166.838C188.751 165.97 188.443 164.71 188.443 163.058C188.443 161.415 188.751 160.165 189.367 159.306C189.983 158.438 190.874 158.004 192.041 158.004C193.207 158.004 194.099 158.438 194.715 159.306C195.331 160.165 195.639 161.415 195.639 163.058C195.639 164.701 195.331 165.956 194.715 166.824C194.099 167.692 193.207 168.126 192.041 168.126ZM192.041 166.712C192.675 166.712 193.137 166.423 193.427 165.844C193.716 165.256 193.861 164.327 193.861 163.058C193.861 161.779 193.716 160.855 193.427 160.286C193.137 159.707 192.675 159.418 192.041 159.418C191.406 159.418 190.944 159.707 190.655 160.286C190.365 160.865 190.221 161.789 190.221 163.058C190.221 164.327 190.365 165.256 190.655 165.844C190.944 166.423 191.406 166.712 192.041 166.712ZM204.88 160.986C205.468 160.986 205.991 161.135 206.448 161.434C206.915 161.733 207.274 162.157 207.526 162.708C207.787 163.249 207.918 163.875 207.918 164.584C207.918 165.293 207.787 165.914 207.526 166.446C207.274 166.978 206.919 167.389 206.462 167.678C206.005 167.967 205.477 168.112 204.88 168.112C204.395 168.112 203.961 168.009 203.578 167.804C203.195 167.599 202.901 167.314 202.696 166.95V169.806C202.696 170.049 202.617 170.24 202.458 170.38C202.299 170.52 202.089 170.59 201.828 170.59C201.567 170.59 201.352 170.515 201.184 170.366C201.025 170.217 200.946 170.021 200.946 169.778V161.84C200.946 161.588 201.021 161.387 201.17 161.238C201.329 161.089 201.539 161.014 201.8 161.014C202.061 161.014 202.271 161.089 202.43 161.238C202.589 161.387 202.668 161.588 202.668 161.84V162.19C202.873 161.807 203.167 161.513 203.55 161.308C203.942 161.093 204.385 160.986 204.88 160.986ZM204.418 166.754C204.969 166.754 205.398 166.567 205.706 166.194C206.014 165.811 206.168 165.275 206.168 164.584C206.168 163.875 206.014 163.324 205.706 162.932C205.398 162.54 204.969 162.344 204.418 162.344C203.858 162.344 203.424 162.535 203.116 162.918C202.817 163.301 202.668 163.847 202.668 164.556C202.668 165.256 202.817 165.797 203.116 166.18C203.424 166.563 203.858 166.754 204.418 166.754ZM217.488 160.986C218.235 160.986 218.804 161.21 219.196 161.658C219.598 162.097 219.798 162.811 219.798 163.8V167.244C219.798 167.515 219.714 167.725 219.546 167.874C219.388 168.014 219.178 168.084 218.916 168.084C218.664 168.084 218.454 168.014 218.286 167.874C218.128 167.725 218.048 167.515 218.048 167.244V163.8C218.048 163.287 217.955 162.923 217.768 162.708C217.591 162.484 217.316 162.372 216.942 162.372C216.485 162.372 216.121 162.531 215.85 162.848C215.58 163.156 215.444 163.581 215.444 164.122V167.244C215.444 167.515 215.36 167.725 215.192 167.874C215.034 168.014 214.828 168.084 214.576 168.084C214.324 168.084 214.114 168.014 213.946 167.874C213.778 167.725 213.694 167.515 213.694 167.244V163.8C213.694 163.287 213.601 162.923 213.414 162.708C213.237 162.484 212.962 162.372 212.588 162.372C212.131 162.372 211.767 162.531 211.496 162.848C211.235 163.156 211.104 163.581 211.104 164.122V167.244C211.104 167.515 211.02 167.725 210.852 167.874C210.684 168.014 210.474 168.084 210.222 168.084C209.97 168.084 209.76 168.014 209.592 167.874C209.434 167.725 209.354 167.515 209.354 167.244V161.826C209.354 161.565 209.438 161.364 209.606 161.224C209.774 161.084 209.984 161.014 210.236 161.014C210.479 161.014 210.675 161.084 210.824 161.224C210.983 161.355 211.062 161.546 211.062 161.798V162.134C211.277 161.761 211.562 161.476 211.916 161.28C212.28 161.084 212.696 160.986 213.162 160.986C214.189 160.986 214.875 161.415 215.22 162.274C215.426 161.882 215.729 161.569 216.13 161.336C216.532 161.103 216.984 160.986 217.488 160.986Z" fill="#6772E5"/>
<path d="M128.633 240.556C138.412 240.556 146.339 232.038 146.339 221.53C146.339 211.023 138.412 202.505 128.633 202.505C118.854 202.505 110.926 211.023 110.926 221.53C110.926 232.038 118.854 240.556 128.633 240.556Z" fill="#6772E5" fill-opacity="0.4"/>
<rect x="110.926" y="265.922" width="132.208" height="12.6836" rx="6" fill="#F2F4F5"/>
<rect x="110.926" y="291.29" width="132.208" height="12.6836" rx="6" fill="#F2F4F5"/>
<rect x="167.587" y="205.042" width="75.5473" height="10.1469" rx="5.07346" fill="#F2F4F5"/>
<rect x="167.587" y="227.872" width="75.5473" height="10.1469" rx="5.07346" fill="#F2F4F5"/>
<rect x="110.672" y="329.587" width="132.208" height="25.3673" rx="6" fill="#6772E5"/>
<path d="M163.619 347.073C163.683 347.212 163.715 347.351 163.715 347.489C163.715 347.735 163.614 347.943 163.411 348.113C163.219 348.284 162.995 348.369 162.739 348.369C162.568 348.369 162.408 348.327 162.259 348.241C162.11 348.145 161.992 348.001 161.907 347.809L160.947 345.665H155.315L154.355 347.809C154.27 348.001 154.152 348.145 154.003 348.241C153.854 348.327 153.688 348.369 153.507 348.369C153.262 348.369 153.038 348.284 152.835 348.113C152.632 347.943 152.531 347.735 152.531 347.489C152.531 347.351 152.563 347.212 152.627 347.073L157.043 337.585C157.139 337.372 157.283 337.212 157.475 337.105C157.678 336.988 157.891 336.929 158.115 336.929C158.339 336.929 158.547 336.988 158.739 337.105C158.942 337.212 159.091 337.372 159.187 337.585L163.619 347.073ZM156.019 344.065H160.243L158.131 339.313L156.019 344.065ZM171.622 336.945C171.921 336.945 172.166 337.031 172.358 337.201C172.55 337.372 172.646 337.596 172.646 337.873V347.441C172.646 347.729 172.555 347.959 172.374 348.129C172.193 348.3 171.953 348.385 171.654 348.385C171.355 348.385 171.115 348.3 170.934 348.129C170.753 347.959 170.662 347.729 170.662 347.441V347.041C170.427 347.479 170.086 347.82 169.638 348.065C169.201 348.311 168.699 348.433 168.134 348.433C167.462 348.433 166.859 348.263 166.326 347.921C165.803 347.58 165.393 347.1 165.094 346.481C164.806 345.852 164.662 345.132 164.662 344.321C164.662 343.511 164.806 342.801 165.094 342.193C165.393 341.585 165.803 341.116 166.326 340.785C166.849 340.455 167.451 340.289 168.134 340.289C168.699 340.289 169.201 340.407 169.638 340.641C170.075 340.876 170.411 341.207 170.646 341.633V337.841C170.646 337.575 170.731 337.361 170.902 337.201C171.083 337.031 171.323 336.945 171.622 336.945ZM168.662 346.881C169.302 346.881 169.793 346.663 170.134 346.225C170.486 345.788 170.662 345.164 170.662 344.353C170.662 343.543 170.486 342.924 170.134 342.497C169.793 342.06 169.307 341.841 168.678 341.841C168.038 341.841 167.542 342.055 167.19 342.481C166.838 342.908 166.662 343.521 166.662 344.321C166.662 345.132 166.838 345.761 167.19 346.209C167.542 346.657 168.033 346.881 168.662 346.881ZM181.231 336.945C181.53 336.945 181.775 337.031 181.967 337.201C182.159 337.372 182.255 337.596 182.255 337.873V347.441C182.255 347.729 182.165 347.959 181.983 348.129C181.802 348.3 181.562 348.385 181.263 348.385C180.965 348.385 180.725 348.3 180.543 348.129C180.362 347.959 180.271 347.729 180.271 347.441V347.041C180.037 347.479 179.695 347.82 179.247 348.065C178.81 348.311 178.309 348.433 177.743 348.433C177.071 348.433 176.469 348.263 175.935 347.921C175.413 347.58 175.002 347.1 174.703 346.481C174.415 345.852 174.271 345.132 174.271 344.321C174.271 343.511 174.415 342.801 174.703 342.193C175.002 341.585 175.413 341.116 175.935 340.785C176.458 340.455 177.061 340.289 177.743 340.289C178.309 340.289 178.81 340.407 179.247 340.641C179.685 340.876 180.021 341.207 180.255 341.633V337.841C180.255 337.575 180.341 337.361 180.511 337.201C180.693 337.031 180.933 336.945 181.231 336.945ZM178.271 346.881C178.911 346.881 179.402 346.663 179.743 346.225C180.095 345.788 180.271 345.164 180.271 344.353C180.271 343.543 180.095 342.924 179.743 342.497C179.402 342.06 178.917 341.841 178.287 341.841C177.647 341.841 177.151 342.055 176.799 342.481C176.447 342.908 176.271 343.521 176.271 344.321C176.271 345.132 176.447 345.761 176.799 346.209C177.151 346.657 177.642 346.881 178.271 346.881ZM192.72 346.913C193.254 346.945 193.52 347.185 193.52 347.633C193.52 347.889 193.414 348.087 193.2 348.225C192.998 348.353 192.704 348.407 192.32 348.385L191.888 348.353C190.096 348.225 189.2 347.265 189.2 345.473V341.985H188.4C188.112 341.985 187.888 341.921 187.728 341.793C187.579 341.665 187.504 341.479 187.504 341.233C187.504 340.988 187.579 340.801 187.728 340.673C187.888 340.545 188.112 340.481 188.4 340.481H189.2V339.009C189.2 338.721 189.291 338.492 189.472 338.321C189.654 338.151 189.899 338.065 190.208 338.065C190.507 338.065 190.747 338.151 190.928 338.321C191.11 338.492 191.2 338.721 191.2 339.009V340.481H192.56C192.848 340.481 193.067 340.545 193.216 340.673C193.376 340.801 193.456 340.988 193.456 341.233C193.456 341.479 193.376 341.665 193.216 341.793C193.067 341.921 192.848 341.985 192.56 341.985H191.2V345.617C191.2 346.407 191.563 346.828 192.288 346.881L192.72 346.913ZM198.131 348.433C197.331 348.433 196.627 348.268 196.019 347.937C195.421 347.607 194.957 347.132 194.627 346.513C194.296 345.895 194.131 345.175 194.131 344.353C194.131 343.532 194.296 342.817 194.627 342.209C194.957 341.591 195.421 341.116 196.019 340.785C196.627 340.455 197.331 340.289 198.131 340.289C198.931 340.289 199.629 340.455 200.227 340.785C200.835 341.116 201.299 341.591 201.619 342.209C201.949 342.817 202.115 343.532 202.115 344.353C202.115 345.175 201.949 345.895 201.619 346.513C201.299 347.132 200.835 347.607 200.227 347.937C199.629 348.268 198.931 348.433 198.131 348.433ZM198.115 346.881C198.765 346.881 199.261 346.668 199.603 346.241C199.944 345.815 200.115 345.185 200.115 344.353C200.115 343.532 199.944 342.908 199.603 342.481C199.261 342.044 198.771 341.825 198.131 341.825C197.491 341.825 196.995 342.044 196.643 342.481C196.301 342.908 196.131 343.532 196.131 344.353C196.131 345.185 196.301 345.815 196.643 346.241C196.984 346.668 197.475 346.881 198.115 346.881ZM150.589 370.433C149.811 370.433 149.123 370.268 148.525 369.937C147.939 369.607 147.485 369.137 147.165 368.529C146.845 367.921 146.685 367.212 146.685 366.401C146.685 365.591 146.851 364.876 147.181 364.257C147.523 363.628 147.997 363.143 148.605 362.801C149.213 362.46 149.912 362.289 150.701 362.289C151.117 362.289 151.533 362.348 151.949 362.465C152.376 362.583 152.749 362.743 153.069 362.945C153.411 363.169 153.581 363.452 153.581 363.793C153.581 364.028 153.523 364.22 153.405 364.369C153.299 364.508 153.155 364.577 152.973 364.577C152.856 364.577 152.733 364.551 152.605 364.497C152.477 364.444 152.349 364.38 152.221 364.305C151.987 364.167 151.763 364.06 151.549 363.985C151.336 363.9 151.091 363.857 150.813 363.857C150.152 363.857 149.64 364.076 149.277 364.513C148.925 364.94 148.749 365.559 148.749 366.369C148.749 367.169 148.925 367.788 149.277 368.225C149.64 368.652 150.152 368.865 150.813 368.865C151.08 368.865 151.315 368.828 151.517 368.753C151.731 368.668 151.965 368.556 152.221 368.417C152.381 368.321 152.52 368.252 152.637 368.209C152.755 368.156 152.872 368.129 152.989 368.129C153.16 368.129 153.304 368.204 153.421 368.353C153.539 368.503 153.597 368.689 153.597 368.913C153.597 369.095 153.555 369.255 153.469 369.393C153.395 369.521 153.267 369.639 153.085 369.745C152.755 369.959 152.371 370.129 151.933 370.257C151.496 370.375 151.048 370.433 150.589 370.433ZM158.322 362.289C159.41 362.289 160.215 362.561 160.738 363.105C161.271 363.639 161.538 364.455 161.538 365.553V369.457C161.538 369.745 161.453 369.975 161.282 370.145C161.111 370.305 160.877 370.385 160.578 370.385C160.301 370.385 160.071 370.3 159.89 370.129C159.719 369.959 159.634 369.735 159.634 369.457V369.105C159.453 369.521 159.165 369.847 158.77 370.081C158.386 370.316 157.938 370.433 157.426 370.433C156.903 370.433 156.429 370.327 156.002 370.113C155.575 369.9 155.239 369.607 154.994 369.233C154.749 368.86 154.626 368.444 154.626 367.985C154.626 367.409 154.77 366.956 155.058 366.625C155.357 366.295 155.837 366.055 156.498 365.905C157.159 365.756 158.071 365.681 159.234 365.681H159.634V365.313C159.634 364.791 159.522 364.412 159.298 364.177C159.074 363.932 158.711 363.809 158.21 363.809C157.901 363.809 157.586 363.857 157.266 363.953C156.946 364.039 156.567 364.167 156.13 364.337C155.853 364.476 155.65 364.545 155.522 364.545C155.33 364.545 155.17 364.476 155.042 364.337C154.925 364.199 154.866 364.017 154.866 363.793C154.866 363.612 154.909 363.457 154.994 363.329C155.09 363.191 155.245 363.063 155.458 362.945C155.831 362.743 156.274 362.583 156.786 362.465C157.309 362.348 157.821 362.289 158.322 362.289ZM157.826 368.993C158.359 368.993 158.791 368.817 159.122 368.465C159.463 368.103 159.634 367.639 159.634 367.073V366.737H159.346C158.631 366.737 158.077 366.769 157.682 366.833C157.287 366.897 157.005 367.009 156.834 367.169C156.663 367.329 156.578 367.548 156.578 367.825C156.578 368.167 156.695 368.449 156.93 368.673C157.175 368.887 157.474 368.993 157.826 368.993ZM164.562 370.401C164.274 370.401 164.034 370.321 163.842 370.161C163.661 369.991 163.57 369.751 163.57 369.441V359.889C163.57 359.58 163.661 359.345 163.842 359.185C164.034 359.025 164.274 358.945 164.562 358.945C164.85 358.945 165.09 359.025 165.282 359.185C165.474 359.345 165.57 359.58 165.57 359.889V369.441C165.57 369.751 165.474 369.991 165.282 370.161C165.09 370.321 164.85 370.401 164.562 370.401ZM173.825 368.161C174.006 368.161 174.15 368.231 174.257 368.369C174.374 368.508 174.433 368.695 174.433 368.929C174.433 369.26 174.236 369.537 173.841 369.761C173.478 369.964 173.068 370.129 172.609 370.257C172.15 370.375 171.713 370.433 171.297 370.433C170.038 370.433 169.041 370.071 168.305 369.345C167.569 368.62 167.201 367.628 167.201 366.369C167.201 365.569 167.361 364.86 167.681 364.241C168.001 363.623 168.449 363.143 169.025 362.801C169.612 362.46 170.273 362.289 171.009 362.289C171.713 362.289 172.326 362.444 172.849 362.753C173.372 363.063 173.777 363.5 174.065 364.065C174.353 364.631 174.497 365.297 174.497 366.065C174.497 366.524 174.294 366.753 173.889 366.753H169.169C169.233 367.489 169.441 368.033 169.793 368.385C170.145 368.727 170.657 368.897 171.329 368.897C171.67 368.897 171.969 368.855 172.225 368.769C172.492 368.684 172.79 368.567 173.121 368.417C173.441 368.247 173.676 368.161 173.825 368.161ZM171.057 363.697C170.513 363.697 170.076 363.868 169.745 364.209C169.425 364.551 169.233 365.041 169.169 365.681H172.785C172.764 365.031 172.604 364.54 172.305 364.209C172.006 363.868 171.59 363.697 171.057 363.697ZM180.677 362.289C181.616 362.289 182.314 362.556 182.773 363.089C183.232 363.623 183.461 364.428 183.461 365.505V369.441C183.461 369.74 183.37 369.975 183.189 370.145C183.018 370.316 182.778 370.401 182.469 370.401C182.16 370.401 181.914 370.316 181.733 370.145C181.552 369.975 181.461 369.74 181.461 369.441V365.617C181.461 365.009 181.344 364.567 181.109 364.289C180.885 364.012 180.528 363.873 180.037 363.873C179.461 363.873 178.997 364.055 178.645 364.417C178.304 364.78 178.133 365.265 178.133 365.873V369.441C178.133 369.74 178.042 369.975 177.861 370.145C177.68 370.316 177.434 370.401 177.125 370.401C176.816 370.401 176.57 370.316 176.389 370.145C176.218 369.975 176.133 369.74 176.133 369.441V363.249C176.133 362.972 176.224 362.748 176.405 362.577C176.586 362.407 176.832 362.321 177.141 362.321C177.418 362.321 177.642 362.407 177.813 362.577C177.994 362.737 178.085 362.951 178.085 363.217V363.649C178.352 363.212 178.709 362.876 179.157 362.641C179.605 362.407 180.112 362.289 180.677 362.289ZM192.02 358.945C192.319 358.945 192.564 359.031 192.756 359.201C192.948 359.372 193.044 359.596 193.044 359.873V369.441C193.044 369.729 192.954 369.959 192.772 370.129C192.591 370.3 192.351 370.385 192.052 370.385C191.754 370.385 191.514 370.3 191.332 370.129C191.151 369.959 191.06 369.729 191.06 369.441V369.041C190.826 369.479 190.484 369.82 190.036 370.065C189.599 370.311 189.098 370.433 188.532 370.433C187.86 370.433 187.258 370.263 186.724 369.921C186.202 369.58 185.791 369.1 185.492 368.481C185.204 367.852 185.06 367.132 185.06 366.321C185.06 365.511 185.204 364.801 185.492 364.193C185.791 363.585 186.202 363.116 186.724 362.785C187.247 362.455 187.85 362.289 188.532 362.289C189.098 362.289 189.599 362.407 190.036 362.641C190.474 362.876 190.81 363.207 191.044 363.633V359.841C191.044 359.575 191.13 359.361 191.3 359.201C191.482 359.031 191.722 358.945 192.02 358.945ZM189.06 368.881C189.7 368.881 190.191 368.663 190.532 368.225C190.884 367.788 191.06 367.164 191.06 366.353C191.06 365.543 190.884 364.924 190.532 364.497C190.191 364.06 189.706 363.841 189.076 363.841C188.436 363.841 187.94 364.055 187.588 364.481C187.236 364.908 187.06 365.521 187.06 366.321C187.06 367.132 187.236 367.761 187.588 368.209C187.94 368.657 188.431 368.881 189.06 368.881ZM198.494 362.289C199.582 362.289 200.387 362.561 200.91 363.105C201.443 363.639 201.71 364.455 201.71 365.553V369.457C201.71 369.745 201.624 369.975 201.454 370.145C201.283 370.305 201.048 370.385 200.75 370.385C200.472 370.385 200.243 370.3 200.062 370.129C199.891 369.959 199.806 369.735 199.806 369.457V369.105C199.624 369.521 199.336 369.847 198.942 370.081C198.558 370.316 198.11 370.433 197.598 370.433C197.075 370.433 196.6 370.327 196.174 370.113C195.747 369.9 195.411 369.607 195.166 369.233C194.92 368.86 194.798 368.444 194.798 367.985C194.798 367.409 194.942 366.956 195.23 366.625C195.528 366.295 196.008 366.055 196.67 365.905C197.331 365.756 198.243 365.681 199.406 365.681H199.806V365.313C199.806 364.791 199.694 364.412 199.47 364.177C199.246 363.932 198.883 363.809 198.382 363.809C198.072 363.809 197.758 363.857 197.438 363.953C197.118 364.039 196.739 364.167 196.302 364.337C196.024 364.476 195.822 364.545 195.694 364.545C195.502 364.545 195.342 364.476 195.214 364.337C195.096 364.199 195.038 364.017 195.038 363.793C195.038 363.612 195.08 363.457 195.166 363.329C195.262 363.191 195.416 363.063 195.63 362.945C196.003 362.743 196.446 362.583 196.958 362.465C197.48 362.348 197.992 362.289 198.494 362.289ZM197.998 368.993C198.531 368.993 198.963 368.817 199.294 368.465C199.635 368.103 199.806 367.639 199.806 367.073V366.737H199.518C198.803 366.737 198.248 366.769 197.854 366.833C197.459 366.897 197.176 367.009 197.006 367.169C196.835 367.329 196.75 367.548 196.75 367.825C196.75 368.167 196.867 368.449 197.102 368.673C197.347 368.887 197.646 368.993 197.998 368.993ZM208.11 362.321C208.388 362.3 208.606 362.359 208.766 362.497C208.926 362.636 209.006 362.844 209.006 363.121C209.006 363.409 208.937 363.623 208.798 363.761C208.66 363.9 208.409 363.991 208.046 364.033L207.566 364.081C206.937 364.145 206.473 364.359 206.174 364.721C205.886 365.084 205.742 365.537 205.742 366.081V369.441C205.742 369.751 205.646 369.991 205.454 370.161C205.262 370.321 205.022 370.401 204.734 370.401C204.446 370.401 204.206 370.321 204.014 370.161C203.833 369.991 203.742 369.751 203.742 369.441V363.249C203.742 362.951 203.833 362.721 204.014 362.561C204.206 362.401 204.441 362.321 204.718 362.321C204.996 362.321 205.22 362.401 205.39 362.561C205.561 362.711 205.646 362.929 205.646 363.217V363.857C205.849 363.388 206.148 363.025 206.542 362.769C206.948 362.513 207.396 362.369 207.886 362.337L208.11 362.321Z" fill="white"/>
<rect x="112.318" y="34.2844" width="24.6823" height="26.2844" rx="12.3411" fill="#F2F4F5"/>
<path d="M125.976 101.286C126.024 101.39 126.048 101.494 126.048 101.598C126.048 101.782 125.972 101.938 125.82 102.066C125.676 102.194 125.508 102.258 125.316 102.258C125.188 102.258 125.068 102.226 124.956 102.162C124.844 102.09 124.756 101.982 124.692 101.838L123.972 100.23H119.748L119.028 101.838C118.964 101.982 118.876 102.09 118.764 102.162C118.652 102.226 118.528 102.258 118.392 102.258C118.208 102.258 118.04 102.194 117.888 102.066C117.736 101.938 117.66 101.782 117.66 101.598C117.66 101.494 117.684 101.39 117.732 101.286L121.044 94.1702C121.116 94.0102 121.224 93.8902 121.368 93.8102C121.52 93.7222 121.68 93.6782 121.848 93.6782C122.016 93.6782 122.172 93.7222 122.316 93.8102C122.468 93.8902 122.58 94.0102 122.652 94.1702L125.976 101.286ZM120.276 99.0302H123.444L121.86 95.4662L120.276 99.0302ZM130.455 96.1982C130.959 96.1982 131.407 96.3262 131.799 96.5822C132.199 96.8382 132.507 97.2022 132.723 97.6742C132.947 98.1382 133.059 98.6742 133.059 99.2822C133.059 99.8902 132.947 100.422 132.723 100.878C132.507 101.334 132.203 101.686 131.811 101.934C131.419 102.182 130.967 102.306 130.455 102.306C130.039 102.306 129.667 102.218 129.339 102.042C129.011 101.866 128.759 101.622 128.583 101.31V103.758C128.583 103.966 128.515 104.13 128.379 104.25C128.243 104.37 128.063 104.43 127.839 104.43C127.615 104.43 127.431 104.366 127.287 104.238C127.151 104.11 127.083 103.942 127.083 103.734V96.9302C127.083 96.7142 127.147 96.5422 127.275 96.4142C127.411 96.2862 127.591 96.2222 127.815 96.2222C128.039 96.2222 128.219 96.2862 128.355 96.4142C128.491 96.5422 128.559 96.7142 128.559 96.9302V97.2302C128.735 96.9022 128.987 96.6502 129.315 96.4742C129.651 96.2902 130.031 96.1982 130.455 96.1982ZM130.059 101.142C130.531 101.142 130.899 100.982 131.163 100.662C131.427 100.334 131.559 99.8742 131.559 99.2822C131.559 98.6742 131.427 98.2022 131.163 97.8662C130.899 97.5302 130.531 97.3622 130.059 97.3622C129.579 97.3622 129.207 97.5262 128.943 97.8542C128.687 98.1822 128.559 98.6502 128.559 99.2582C128.559 99.8582 128.687 100.322 128.943 100.65C129.207 100.978 129.579 101.142 130.059 101.142ZM137.662 96.1982C138.166 96.1982 138.614 96.3262 139.006 96.5822C139.406 96.8382 139.714 97.2022 139.93 97.6742C140.154 98.1382 140.266 98.6742 140.266 99.2822C140.266 99.8902 140.154 100.422 139.93 100.878C139.714 101.334 139.41 101.686 139.018 101.934C138.626 102.182 138.174 102.306 137.662 102.306C137.246 102.306 136.874 102.218 136.546 102.042C136.218 101.866 135.966 101.622 135.79 101.31V103.758C135.79 103.966 135.722 104.13 135.586 104.25C135.45 104.37 135.27 104.43 135.046 104.43C134.822 104.43 134.638 104.366 134.494 104.238C134.358 104.11 134.29 103.942 134.29 103.734V96.9302C134.29 96.7142 134.354 96.5422 134.482 96.4142C134.618 96.2862 134.798 96.2222 135.022 96.2222C135.246 96.2222 135.426 96.2862 135.562 96.4142C135.698 96.5422 135.766 96.7142 135.766 96.9302V97.2302C135.942 96.9022 136.194 96.6502 136.522 96.4742C136.858 96.2902 137.238 96.1982 137.662 96.1982ZM137.266 101.142C137.738 101.142 138.106 100.982 138.37 100.662C138.634 100.334 138.766 99.8742 138.766 99.2822C138.766 98.6742 138.634 98.2022 138.37 97.8662C138.106 97.5302 137.738 97.3622 137.266 97.3622C136.786 97.3622 136.414 97.5262 136.15 97.8542C135.894 98.1822 135.766 98.6502 135.766 99.2582C135.766 99.8582 135.894 100.322 136.15 100.65C136.414 100.978 136.786 101.142 137.266 101.142ZM144.173 102.306C143.573 102.306 143.045 102.182 142.589 101.934C142.141 101.686 141.793 101.33 141.545 100.866C141.297 100.402 141.173 99.8622 141.173 99.2462C141.173 98.6302 141.297 98.0942 141.545 97.6382C141.793 97.1742 142.141 96.8182 142.589 96.5702C143.045 96.3222 143.573 96.1982 144.173 96.1982C144.773 96.1982 145.297 96.3222 145.745 96.5702C146.201 96.8182 146.549 97.1742 146.789 97.6382C147.037 98.0942 147.161 98.6302 147.161 99.2462C147.161 99.8622 147.037 100.402 146.789 100.866C146.549 101.33 146.201 101.686 145.745 101.934C145.297 102.182 144.773 102.306 144.173 102.306ZM144.161 101.142C144.649 101.142 145.021 100.982 145.277 100.662C145.533 100.342 145.661 99.8702 145.661 99.2462C145.661 98.6302 145.533 98.1622 145.277 97.8422C145.021 97.5142 144.653 97.3502 144.173 97.3502C143.693 97.3502 143.321 97.5142 143.057 97.8422C142.801 98.1622 142.673 98.6302 142.673 99.2462C142.673 99.8702 142.801 100.342 143.057 100.662C143.313 100.982 143.681 101.142 144.161 101.142ZM149.143 102.282C148.927 102.282 148.747 102.222 148.603 102.102C148.467 101.974 148.399 101.794 148.399 101.562V96.9302C148.399 96.6982 148.467 96.5222 148.603 96.4022C148.747 96.2822 148.927 96.2222 149.143 96.2222C149.359 96.2222 149.539 96.2822 149.683 96.4022C149.827 96.5222 149.899 96.6982 149.899 96.9302V101.562C149.899 101.794 149.827 101.974 149.683 102.102C149.539 102.222 149.359 102.282 149.143 102.282ZM149.143 95.1542C148.871 95.1542 148.655 95.0822 148.495 94.9382C148.335 94.7862 148.255 94.5902 148.255 94.3502C148.255 94.1102 148.335 93.9182 148.495 93.7742C148.655 93.6302 148.871 93.5582 149.143 93.5582C149.407 93.5582 149.619 93.6302 149.779 93.7742C149.947 93.9182 150.031 94.1102 150.031 94.3502C150.031 94.5902 149.951 94.7862 149.791 94.9382C149.631 95.0822 149.415 95.1542 149.143 95.1542ZM154.854 96.1982C155.558 96.1982 156.082 96.3982 156.426 96.7982C156.77 97.1982 156.942 97.8022 156.942 98.6102V101.562C156.942 101.786 156.874 101.962 156.738 102.09C156.61 102.218 156.43 102.282 156.198 102.282C155.966 102.282 155.782 102.218 155.646 102.09C155.51 101.962 155.442 101.786 155.442 101.562V98.6942C155.442 98.2382 155.354 97.9062 155.178 97.6982C155.01 97.4902 154.742 97.3862 154.374 97.3862C153.942 97.3862 153.594 97.5222 153.33 97.7942C153.074 98.0662 152.946 98.4302 152.946 98.8862V101.562C152.946 101.786 152.878 101.962 152.742 102.09C152.606 102.218 152.422 102.282 152.19 102.282C151.958 102.282 151.774 102.218 151.638 102.09C151.51 101.962 151.446 101.786 151.446 101.562V96.9182C151.446 96.7102 151.514 96.5422 151.65 96.4142C151.786 96.2862 151.97 96.2222 152.202 96.2222C152.41 96.2222 152.578 96.2862 152.706 96.4142C152.842 96.5342 152.91 96.6942 152.91 96.8942V97.2182C153.11 96.8902 153.378 96.6382 153.714 96.4622C154.05 96.2862 154.43 96.1982 154.854 96.1982ZM161.514 101.166C161.914 101.19 162.114 101.37 162.114 101.706C162.114 101.898 162.034 102.046 161.874 102.15C161.722 102.246 161.502 102.286 161.214 102.27L160.89 102.246C159.546 102.15 158.874 101.43 158.874 100.086V97.4702H158.274C158.058 97.4702 157.89 97.4222 157.77 97.3262C157.658 97.2302 157.602 97.0902 157.602 96.9062C157.602 96.7222 157.658 96.5822 157.77 96.4862C157.89 96.3902 158.058 96.3422 158.274 96.3422H158.874V95.2382C158.874 95.0222 158.942 94.8502 159.078 94.7222C159.214 94.5942 159.398 94.5302 159.63 94.5302C159.854 94.5302 160.034 94.5942 160.17 94.7222C160.306 94.8502 160.374 95.0222 160.374 95.2382V96.3422H161.394C161.61 96.3422 161.774 96.3902 161.886 96.4862C162.006 96.5822 162.066 96.7222 162.066 96.9062C162.066 97.0902 162.006 97.2302 161.886 97.3262C161.774 97.4222 161.61 97.4702 161.394 97.4702H160.374V100.194C160.374 100.786 160.646 101.102 161.19 101.142L161.514 101.166ZM169.867 96.1982C170.507 96.1982 170.995 96.3902 171.331 96.7742C171.675 97.1502 171.847 97.7622 171.847 98.6102V101.562C171.847 101.794 171.775 101.974 171.631 102.102C171.495 102.222 171.315 102.282 171.091 102.282C170.875 102.282 170.695 102.222 170.551 102.102C170.415 101.974 170.347 101.794 170.347 101.562V98.6102C170.347 98.1702 170.267 97.8582 170.107 97.6742C169.955 97.4822 169.719 97.3862 169.399 97.3862C169.007 97.3862 168.695 97.5222 168.463 97.7942C168.231 98.0582 168.115 98.4222 168.115 98.8862V101.562C168.115 101.794 168.043 101.974 167.899 102.102C167.763 102.222 167.587 102.282 167.371 102.282C167.155 102.282 166.975 102.222 166.831 102.102C166.687 101.974 166.615 101.794 166.615 101.562V98.6102C166.615 98.1702 166.535 97.8582 166.375 97.6742C166.223 97.4822 165.987 97.3862 165.667 97.3862C165.275 97.3862 164.963 97.5222 164.731 97.7942C164.507 98.0582 164.395 98.4222 164.395 98.8862V101.562C164.395 101.794 164.323 101.974 164.179 102.102C164.035 102.222 163.855 102.282 163.639 102.282C163.423 102.282 163.243 102.222 163.099 102.102C162.963 101.974 162.895 101.794 162.895 101.562V96.9182C162.895 96.6942 162.967 96.5222 163.111 96.4022C163.255 96.2822 163.435 96.2222 163.651 96.2222C163.859 96.2222 164.027 96.2822 164.155 96.4022C164.291 96.5142 164.359 96.6782 164.359 96.8942V97.1822C164.543 96.8622 164.787 96.6182 165.091 96.4502C165.403 96.2822 165.759 96.1982 166.159 96.1982C167.039 96.1982 167.627 96.5662 167.923 97.3022C168.099 96.9662 168.359 96.6982 168.703 96.4982C169.047 96.2982 169.435 96.1982 169.867 96.1982ZM178.016 100.602C178.152 100.602 178.26 100.654 178.34 100.758C178.428 100.862 178.472 101.002 178.472 101.178C178.472 101.426 178.324 101.634 178.028 101.802C177.756 101.954 177.448 102.078 177.104 102.174C176.76 102.262 176.432 102.306 176.12 102.306C175.176 102.306 174.428 102.034 173.876 101.49C173.324 100.946 173.048 100.202 173.048 99.2582C173.048 98.6582 173.168 98.1262 173.408 97.6622C173.648 97.1982 173.984 96.8382 174.416 96.5822C174.856 96.3262 175.352 96.1982 175.904 96.1982C176.432 96.1982 176.892 96.3142 177.284 96.5462C177.676 96.7782 177.98 97.1062 178.196 97.5302C178.412 97.9542 178.52 98.4542 178.52 99.0302C178.52 99.3742 178.368 99.5462 178.064 99.5462H174.524C174.572 100.098 174.728 100.506 174.992 100.77C175.256 101.026 175.64 101.154 176.144 101.154C176.4 101.154 176.624 101.122 176.816 101.058C177.016 100.994 177.24 100.906 177.488 100.794C177.728 100.666 177.904 100.602 178.016 100.602ZM175.94 97.2542C175.532 97.2542 175.204 97.3822 174.956 97.6382C174.716 97.8942 174.572 98.2622 174.524 98.7422H177.236C177.22 98.2542 177.1 97.8862 176.876 97.6382C176.652 97.3822 176.34 97.2542 175.94 97.2542ZM183.155 96.1982C183.859 96.1982 184.383 96.3982 184.727 96.7982C185.071 97.1982 185.243 97.8022 185.243 98.6102V101.562C185.243 101.786 185.175 101.962 185.039 102.09C184.911 102.218 184.731 102.282 184.499 102.282C184.267 102.282 184.083 102.218 183.947 102.09C183.811 101.962 183.743 101.786 183.743 101.562V98.6942C183.743 98.2382 183.655 97.9062 183.479 97.6982C183.311 97.4902 183.043 97.3862 182.675 97.3862C182.243 97.3862 181.895 97.5222 181.631 97.7942C181.375 98.0662 181.247 98.4302 181.247 98.8862V101.562C181.247 101.786 181.179 101.962 181.043 102.09C180.907 102.218 180.723 102.282 180.491 102.282C180.259 102.282 180.075 102.218 179.939 102.09C179.811 101.962 179.747 101.786 179.747 101.562V96.9182C179.747 96.7102 179.815 96.5422 179.951 96.4142C180.087 96.2862 180.271 96.2222 180.503 96.2222C180.711 96.2222 180.879 96.2862 181.007 96.4142C181.143 96.5342 181.211 96.6942 181.211 96.8942V97.2182C181.411 96.8902 181.679 96.6382 182.015 96.4622C182.351 96.2862 182.731 96.1982 183.155 96.1982ZM189.814 101.166C190.214 101.19 190.414 101.37 190.414 101.706C190.414 101.898 190.334 102.046 190.174 102.15C190.022 102.246 189.802 102.286 189.514 102.27L189.19 102.246C187.846 102.15 187.174 101.43 187.174 100.086V97.4702H186.574C186.358 97.4702 186.19 97.4222 186.07 97.3262C185.958 97.2302 185.902 97.0902 185.902 96.9062C185.902 96.7222 185.958 96.5822 186.07 96.4862C186.19 96.3902 186.358 96.3422 186.574 96.3422H187.174V95.2382C187.174 95.0222 187.242 94.8502 187.378 94.7222C187.514 94.5942 187.698 94.5302 187.93 94.5302C188.154 94.5302 188.334 94.5942 188.47 94.7222C188.606 94.8502 188.674 95.0222 188.674 95.2382V96.3422H189.694C189.91 96.3422 190.074 96.3902 190.186 96.4862C190.306 96.5822 190.366 96.7222 190.366 96.9062C190.366 97.0902 190.306 97.2302 190.186 97.3262C190.074 97.4222 189.91 97.4702 189.694 97.4702H188.674V100.194C188.674 100.786 188.946 101.102 189.49 101.142L189.814 101.166ZM199.794 97.8422C200.282 97.9782 200.658 98.2262 200.922 98.5862C201.194 98.9462 201.33 99.3862 201.33 99.9062C201.33 100.626 201.07 101.19 200.55 101.598C200.038 102.006 199.33 102.21 198.426 102.21H195.33C195.098 102.21 194.914 102.146 194.778 102.018C194.65 101.89 194.586 101.71 194.586 101.478V94.4822C194.586 94.2502 194.65 94.0702 194.778 93.9422C194.914 93.8142 195.098 93.7502 195.33 93.7502H198.306C199.186 93.7502 199.874 93.9462 200.37 94.3382C200.874 94.7222 201.126 95.2622 201.126 95.9582C201.126 96.4062 201.006 96.7942 200.766 97.1222C200.534 97.4502 200.21 97.6902 199.794 97.8422ZM196.098 97.3142H198.054C199.118 97.3142 199.65 96.9182 199.65 96.1262C199.65 95.7262 199.518 95.4302 199.254 95.2382C198.99 95.0462 198.59 94.9502 198.054 94.9502H196.098V97.3142ZM198.258 101.01C198.818 101.01 199.226 100.91 199.482 100.71C199.738 100.51 199.866 100.198 199.866 99.7742C199.866 99.3502 199.734 99.0342 199.47 98.8262C199.214 98.6182 198.81 98.5142 198.258 98.5142H196.098V101.01H198.258ZM205.321 102.306C204.721 102.306 204.193 102.182 203.737 101.934C203.289 101.686 202.941 101.33 202.693 100.866C202.445 100.402 202.321 99.8622 202.321 99.2462C202.321 98.6302 202.445 98.0942 202.693 97.6382C202.941 97.1742 203.289 96.8182 203.737 96.5702C204.193 96.3222 204.721 96.1982 205.321 96.1982C205.921 96.1982 206.445 96.3222 206.893 96.5702C207.349 96.8182 207.697 97.1742 207.937 97.6382C208.185 98.0942 208.309 98.6302 208.309 99.2462C208.309 99.8622 208.185 100.402 207.937 100.866C207.697 101.33 207.349 101.686 206.893 101.934C206.445 102.182 205.921 102.306 205.321 102.306ZM205.309 101.142C205.797 101.142 206.169 100.982 206.425 100.662C206.681 100.342 206.809 99.8702 206.809 99.2462C206.809 98.6302 206.681 98.1622 206.425 97.8422C206.169 97.5142 205.801 97.3502 205.321 97.3502C204.841 97.3502 204.469 97.5142 204.205 97.8422C203.949 98.1622 203.821 98.6302 203.821 99.2462C203.821 99.8702 203.949 100.342 204.205 100.662C204.461 100.982 204.829 101.142 205.309 101.142ZM212.224 102.306C211.624 102.306 211.096 102.182 210.64 101.934C210.192 101.686 209.844 101.33 209.596 100.866C209.348 100.402 209.224 99.8622 209.224 99.2462C209.224 98.6302 209.348 98.0942 209.596 97.6382C209.844 97.1742 210.192 96.8182 210.64 96.5702C211.096 96.3222 211.624 96.1982 212.224 96.1982C212.824 96.1982 213.348 96.3222 213.796 96.5702C214.252 96.8182 214.6 97.1742 214.84 97.6382C215.088 98.0942 215.212 98.6302 215.212 99.2462C215.212 99.8622 215.088 100.402 214.84 100.866C214.6 101.33 214.252 101.686 213.796 101.934C213.348 102.182 212.824 102.306 212.224 102.306ZM212.212 101.142C212.7 101.142 213.072 100.982 213.328 100.662C213.584 100.342 213.712 99.8702 213.712 99.2462C213.712 98.6302 213.584 98.1622 213.328 97.8422C213.072 97.5142 212.704 97.3502 212.224 97.3502C211.744 97.3502 211.372 97.5142 211.108 97.8422C210.852 98.1622 210.724 98.6302 210.724 99.2462C210.724 99.8702 210.852 100.342 211.108 100.662C211.364 100.982 211.732 101.142 212.212 101.142ZM221.67 101.046C221.83 101.198 221.91 101.37 221.91 101.562C221.91 101.746 221.842 101.91 221.706 102.054C221.578 102.198 221.426 102.27 221.25 102.27C221.074 102.27 220.91 102.198 220.758 102.054L217.95 99.5102V101.562C217.95 101.794 217.878 101.97 217.734 102.09C217.59 102.21 217.41 102.27 217.194 102.27C216.978 102.27 216.798 102.21 216.654 102.09C216.518 101.97 216.45 101.794 216.45 101.562V94.3982C216.45 94.1662 216.518 93.9902 216.654 93.8702C216.798 93.7502 216.978 93.6902 217.194 93.6902C217.41 93.6902 217.59 93.7502 217.734 93.8702C217.878 93.9902 217.95 94.1662 217.95 94.3982V98.9102L220.518 96.4502C220.662 96.3062 220.826 96.2342 221.01 96.2342C221.194 96.2342 221.354 96.3022 221.49 96.4382C221.626 96.5742 221.694 96.7342 221.694 96.9182C221.694 97.1022 221.618 97.2702 221.466 97.4222L219.582 99.1742L221.67 101.046ZM227.445 100.602C227.581 100.602 227.689 100.654 227.769 100.758C227.857 100.862 227.901 101.002 227.901 101.178C227.901 101.426 227.753 101.634 227.457 101.802C227.185 101.954 226.877 102.078 226.533 102.174C226.189 102.262 225.861 102.306 225.549 102.306C224.605 102.306 223.857 102.034 223.305 101.49C222.753 100.946 222.477 100.202 222.477 99.2582C222.477 98.6582 222.597 98.1262 222.837 97.6622C223.077 97.1982 223.413 96.8382 223.845 96.5822C224.285 96.3262 224.781 96.1982 225.333 96.1982C225.861 96.1982 226.321 96.3142 226.713 96.5462C227.105 96.7782 227.409 97.1062 227.625 97.5302C227.841 97.9542 227.949 98.4542 227.949 99.0302C227.949 99.3742 227.797 99.5462 227.493 99.5462H223.953C224.001 100.098 224.157 100.506 224.421 100.77C224.685 101.026 225.069 101.154 225.573 101.154C225.829 101.154 226.053 101.122 226.245 101.058C226.445 100.994 226.669 100.906 226.917 100.794C227.157 100.666 227.333 100.602 227.445 100.602ZM225.369 97.2542C224.961 97.2542 224.633 97.3822 224.385 97.6382C224.145 97.8942 224.001 98.2622 223.953 98.7422H226.665C226.649 98.2542 226.529 97.8862 226.305 97.6382C226.081 97.3822 225.769 97.2542 225.369 97.2542ZM234.072 93.6902C234.296 93.6902 234.48 93.7542 234.624 93.8822C234.768 94.0102 234.84 94.1782 234.84 94.3862V101.562C234.84 101.778 234.772 101.95 234.636 102.078C234.5 102.206 234.32 102.27 234.096 102.27C233.872 102.27 233.692 102.206 233.556 102.078C233.42 101.95 233.352 101.778 233.352 101.562V101.262C233.176 101.59 232.92 101.846 232.584 102.03C232.256 102.214 231.88 102.306 231.456 102.306C230.952 102.306 230.5 102.178 230.1 101.922C229.708 101.666 229.4 101.306 229.176 100.842C228.96 100.37 228.852 99.8302 228.852 99.2222C228.852 98.6142 228.96 98.0822 229.176 97.6262C229.4 97.1702 229.708 96.8182 230.1 96.5702C230.492 96.3222 230.944 96.1982 231.456 96.1982C231.88 96.1982 232.256 96.2862 232.584 96.4622C232.912 96.6382 233.164 96.8862 233.34 97.2062V94.3622C233.34 94.1622 233.404 94.0022 233.532 93.8822C233.668 93.7542 233.848 93.6902 234.072 93.6902ZM231.852 101.142C232.332 101.142 232.7 100.978 232.956 100.65C233.22 100.322 233.352 99.8542 233.352 99.2462C233.352 98.6382 233.22 98.1742 232.956 97.8542C232.7 97.5262 232.336 97.3622 231.864 97.3622C231.384 97.3622 231.012 97.5222 230.748 97.8422C230.484 98.1622 230.352 98.6222 230.352 99.2222C230.352 99.8302 230.484 100.302 230.748 100.638C231.012 100.974 231.38 101.142 231.852 101.142Z" fill="#6772E5"/>
<rect x="161.682" y="34.2844" width="79.806" height="26.2844" rx="8" fill="#F2F4F5"/>
<g filter="url(#filter1_d)">
<rect x="238.152" y="116.096" width="72.8476" height="71.1293" rx="12" fill="white"/>
</g>
<path d="M261.32 151.985C261.32 159.854 267.266 166.257 274.576 166.257C281.886 166.257 287.833 159.854 287.833 151.985C287.833 144.115 281.886 137.712 274.576 137.712C267.266 137.712 261.32 144.115 261.32 151.985ZM285.254 151.985C285.254 158.323 280.464 163.48 274.576 163.48C268.688 163.48 263.898 158.323 263.898 151.985C263.898 145.646 268.688 140.489 274.576 140.489C280.464 140.489 285.254 145.646 285.254 151.985Z" fill="#6772E5"/>
<path d="M274.76 146.35C274.76 145.792 274.307 145.339 273.749 145.339C273.19 145.339 272.737 145.792 272.737 146.35V154.149L278.896 158.171C279.395 158.497 280.067 158.333 280.358 157.812C280.624 157.338 280.475 156.738 280.018 156.443L274.76 153.048V146.35Z" fill="#6772E5" stroke="#6772E5" stroke-width="0.5"/>
<path d="M293.282 163.282C293.632 162.612 293.366 161.785 292.728 161.454C292.083 161.119 291.305 161.417 290.945 162.09C289.827 164.185 288.379 166.04 286.629 167.617C278.53 174.916 266.426 173.794 259.646 165.116C252.867 156.438 253.94 143.44 262.039 136.141C270.137 128.842 282.242 129.964 289.021 138.642C291.024 141.206 292.388 144.185 293.042 147.385L291.842 146.298C291.301 145.809 290.486 145.888 290.025 146.476C289.566 147.06 289.63 147.927 290.168 148.414L294.005 151.886C294.411 152.253 295.022 152.193 295.368 151.753L298.589 147.652C299.053 147.062 298.988 146.187 298.445 145.695C297.899 145.201 297.077 145.282 296.611 145.875L295.632 147.12C294.918 143.358 293.345 139.857 291.002 136.857C287.275 132.087 282.037 129.164 276.253 128.628C270.47 128.092 264.833 130.007 260.381 134.019C255.929 138.032 253.194 143.662 252.682 149.872C252.169 156.083 253.939 162.13 257.666 166.901C261.393 171.672 266.631 174.594 272.414 175.13C278.198 175.666 283.835 173.752 288.287 169.739C290.323 167.904 291.999 165.736 293.282 163.282Z" fill="#6772E5"/>
<g filter="url(#filter2_d)">
<rect x="24" y="284.862" width="107.114" height="105.138" rx="12" fill="white"/>
</g>
<path d="M67.599 368.118H99.225C102.539 368.118 105.225 365.431 105.225 362.118V325.994C105.225 322.68 102.539 319.994 99.225 319.994H50.3066C46.9929 319.994 44.3066 322.68 44.3066 325.994V343.093" stroke="#D7DEE2" stroke-width="2" stroke-linecap="round"/>
<path d="M56.8352 340.206C49.4175 340.206 43.4108 346.674 43.4108 354.643C43.4108 362.613 49.4175 369.08 56.8352 369.08C64.2664 369.08 70.2865 362.613 70.2865 354.643C70.2865 346.674 64.2664 340.206 56.8352 340.206ZM56.8487 366.193C50.9091 366.193 46.0983 361.024 46.0983 354.643C46.0983 348.262 50.9091 343.094 56.8487 343.094C62.7882 343.094 67.599 348.262 67.599 354.643C67.599 361.024 62.7882 366.193 56.8487 366.193Z" fill="#D7DEE2"/>
<path d="M57.5209 348.433C57.5209 347.876 57.0696 347.425 56.513 347.425C55.9564 347.425 55.5052 347.876 55.5052 348.433V356.087L61.6558 360.052C62.1468 360.368 62.8028 360.207 63.0911 359.699C63.3583 359.228 63.2098 358.631 62.7533 358.34L57.5209 355.004V348.433Z" fill="#D7DEE2" stroke="#D7DEE2" stroke-width="0.5"/>
<ellipse rx="2.23965" ry="2.40617" transform="matrix(-1 0 0 1 92.2349 333.95)" fill="#D7DEE2"/>
<ellipse rx="2.23965" ry="2.40617" transform="matrix(-1 0 0 1 92.2349 346.463)" fill="#D7DEE2"/>
<ellipse rx="2.23965" ry="2.40617" transform="matrix(-1 0 0 1 92.2349 358.975)" fill="#D7DEE2"/>
<ellipse rx="2.23965" ry="2.40617" transform="matrix(-1 0 0 1 80.5887 333.95)" fill="#D7DEE2"/>
<ellipse rx="2.23965" ry="2.40617" transform="matrix(-1 0 0 1 80.5887 346.463)" fill="#6772E5"/>
<ellipse rx="2.23965" ry="2.40617" transform="matrix(-1 0 0 1 80.5887 358.975)" fill="#D7DEE2"/>
<ellipse rx="2.23965" ry="2.40617" transform="matrix(-1 0 0 1 68.9425 333.95)" fill="#D7DEE2"/>
<ellipse rx="2.23965" ry="2.40617" transform="matrix(-1 0 0 1 57.2965 333.95)" fill="#D7DEE2"/>
<rect width="3.58344" height="9.62468" rx="1.79172" transform="matrix(-1 0 0 1 94.0258 314.22)" fill="#D7DEE2"/>
<rect width="3.58344" height="9.62468" rx="1.79172" transform="matrix(-1 0 0 1 76.5573 314.22)" fill="#D7DEE2"/>
<rect width="3.58344" height="9.62468" rx="1.79172" transform="matrix(-1 0 0 1 59.0882 314.22)" fill="#D7DEE2"/>
<g filter="url(#filter3_d)">
<ellipse cx="104.421" cy="313.335" rx="13.2074" ry="14.1576" fill="white"/>
</g>
<mask id="path-34-inside-1" fill="white">
<path d="M99.5953 305.844C99.9812 305.454 100.039 304.822 99.6694 304.417C99.3296 304.044 98.7531 304.002 98.3974 304.36C96.8038 305.96 95.7151 308.138 95.4116 310.592C95.3482 311.104 95.7645 311.534 96.2807 311.534C96.7645 311.534 97.1586 311.154 97.2285 310.675C97.5055 308.777 98.3605 307.093 99.5953 305.844ZM111.479 310.677C111.549 311.155 111.942 311.534 112.425 311.534C112.942 311.534 113.358 311.103 113.293 310.591C112.984 308.139 111.897 305.963 110.311 304.364C109.956 304.005 109.377 304.047 109.038 304.422C108.672 304.825 108.729 305.452 109.111 305.841C110.34 307.09 111.2 308.776 111.479 310.677ZM109.781 312.03C109.781 308.986 108.298 306.438 105.711 305.763V305.089C105.711 304.266 105.104 303.602 104.354 303.602C103.603 303.602 102.997 304.266 102.997 305.089V305.763C100.401 306.438 98.926 308.976 98.926 312.03V316.988L97.3035 318.767C97.1834 318.898 97.1168 319.07 97.1168 319.248C97.1168 319.643 97.4368 319.963 97.8314 319.963H110.876C111.271 319.963 111.591 319.643 111.591 319.248C111.591 319.07 111.524 318.898 111.404 318.767L109.781 316.988V312.03ZM104.354 322.937C105.185 322.937 105.891 322.289 106.095 321.45C106.16 321.181 105.93 320.954 105.654 320.954H103.04C102.762 320.954 102.531 321.184 102.597 321.454C102.804 322.305 103.508 322.937 104.354 322.937Z"/>
</mask>
<path d="M105.711 305.763H103.711V307.309L105.206 307.699L105.711 305.763ZM102.997 305.763L103.5 307.699L104.997 307.31V305.763H102.997ZM98.926 316.988L100.404 318.336L100.926 317.763V316.988H98.926ZM109.781 316.988H107.781V317.763L108.304 318.336L109.781 316.988ZM106.095 321.45L104.151 320.978L106.095 321.45ZM111.404 318.767L109.926 320.114L111.404 318.767ZM109.111 305.841L110.537 304.438L109.111 305.841ZM110.311 304.364L111.732 302.956L110.311 304.364ZM97.3035 318.767L95.826 317.419L97.3035 318.767ZM113.293 310.591L115.277 310.34L113.293 310.591ZM111.479 310.677L109.5 310.966L111.479 310.677ZM98.3974 304.36L99.8145 305.771L98.3974 304.36ZM99.5953 305.844L98.1733 304.438L99.5953 305.844ZM96.9803 302.948C95.0691 304.867 93.784 307.457 93.4267 310.346L97.3965 310.837C97.6461 308.818 98.5385 307.052 99.8145 305.771L96.9803 302.948ZM99.2075 310.964C99.4242 309.479 100.089 308.189 101.017 307.251L98.1733 304.438C96.6321 305.996 95.5868 308.074 95.2494 310.387L99.2075 310.964ZM115.277 310.34C114.914 307.458 113.632 304.873 111.732 302.956L108.891 305.772C110.161 307.053 111.054 308.821 111.309 310.841L115.277 310.34ZM107.686 307.243C108.613 308.186 109.282 309.481 109.5 310.966L113.458 310.387C113.119 308.07 112.067 305.993 110.537 304.438L107.686 307.243ZM111.781 312.03C111.781 308.418 109.975 304.808 106.215 303.828L105.206 307.699C106.62 308.067 107.781 309.554 107.781 312.03H111.781ZM107.711 305.763V305.089H103.711V305.763H107.711ZM107.711 305.089C107.711 303.338 106.378 301.602 104.354 301.602V305.602C104.116 305.602 103.934 305.492 103.836 305.385C103.741 305.281 103.711 305.17 103.711 305.089H107.711ZM104.354 301.602C102.329 301.602 100.997 303.338 100.997 305.089H104.997C104.997 305.17 104.966 305.281 104.871 305.385C104.773 305.492 104.591 305.602 104.354 305.602V301.602ZM100.997 305.089V305.763H104.997V305.089H100.997ZM102.494 303.828C98.7218 304.807 96.926 308.41 96.926 312.03H100.926C100.926 309.543 102.079 308.068 103.5 307.699L102.494 303.828ZM96.926 312.03V316.988H100.926V312.03H96.926ZM97.4485 315.64L95.826 317.419L98.781 320.114L100.404 318.336L97.4485 315.64ZM97.8314 321.963H110.876V317.963H97.8314V321.963ZM112.881 317.419L111.259 315.64L108.304 318.336L109.926 320.114L112.881 317.419ZM111.781 316.988V312.03H107.781V316.988H111.781ZM105.654 318.954H103.04V322.954H105.654V318.954ZM100.654 321.926C101.042 323.524 102.44 324.937 104.354 324.937V320.937C104.394 320.937 104.436 320.945 104.472 320.959C104.506 320.973 104.528 320.988 104.54 320.998C104.56 321.016 104.549 321.015 104.54 320.981L100.654 321.926ZM104.354 324.937C106.276 324.937 107.659 323.483 108.038 321.922L104.151 320.978C104.145 321.004 104.132 321.012 104.144 321.002C104.152 320.995 104.173 320.979 104.21 320.964C104.249 320.949 104.298 320.937 104.354 320.937V324.937ZM105.654 322.954C105.253 322.954 104.842 322.792 104.536 322.462C104.207 322.107 104.011 321.555 104.151 320.978L108.038 321.922C108.49 320.063 106.861 318.954 105.654 318.954V322.954ZM113.591 319.248C113.591 318.571 113.338 317.919 112.881 317.419L109.926 320.114C109.71 319.878 109.591 319.569 109.591 319.248H113.591ZM110.876 321.963C112.375 321.963 113.591 320.747 113.591 319.248H109.591C109.591 318.538 110.166 317.963 110.876 317.963V321.963ZM107.556 303.079C106.374 304.383 106.674 306.215 107.686 307.243L110.537 304.438C110.784 304.69 110.97 305.268 110.52 305.764L107.556 303.079ZM95.1168 319.248C95.1168 320.747 96.3322 321.963 97.8314 321.963V317.963C98.5413 317.963 99.1168 318.538 99.1168 319.248H95.1168ZM111.732 302.956C110.484 301.696 108.581 301.946 107.556 303.079L110.52 305.764C110.173 306.147 109.427 306.313 108.891 305.772L111.732 302.956ZM95.826 317.419C95.3697 317.919 95.1168 318.571 95.1168 319.248H99.1168C99.1168 319.569 98.9971 319.878 98.781 320.114L95.826 317.419ZM112.425 313.534C114.03 313.534 115.507 312.159 115.277 310.34L111.309 310.841C111.209 310.047 111.854 309.534 112.425 309.534V313.534ZM112.425 309.534C113.048 309.534 113.401 309.999 113.458 310.387L109.5 310.966C109.697 312.31 110.836 313.534 112.425 313.534V309.534ZM96.2807 313.534C97.8706 313.534 99.0112 312.309 99.2075 310.964L95.2494 310.387C95.306 309.999 95.6584 309.534 96.2807 309.534V313.534ZM93.4267 310.346C93.2019 312.164 94.6788 313.534 96.2807 313.534V309.534C96.8502 309.534 97.4945 310.044 97.3965 310.837L93.4267 310.346ZM101.147 303.069C100.121 301.944 98.2267 301.697 96.9803 302.948L99.8145 305.771C99.2796 306.308 98.5385 306.145 98.1919 305.765L101.147 303.069ZM103.04 318.954C101.82 318.954 100.203 320.074 100.654 321.926L104.54 320.981C104.68 321.556 104.486 322.105 104.159 322.46C103.854 322.79 103.443 322.954 103.04 322.954V318.954ZM98.1919 305.765C97.9768 305.529 97.905 305.24 97.9199 305.008C97.9341 304.787 98.0251 304.588 98.1733 304.438L101.017 307.251C102.036 306.221 102.341 304.377 101.147 303.069L98.1919 305.765Z" fill="#6772E5" mask="url(#path-34-inside-1)"/>
<defs>
<filter id="filter0_d" x="75.4131" y="0" width="202.98" height="401.239" filterUnits="userSpaceOnUse" color-interpolation-filters="sRGB">
<feFlood flood-opacity="0" result="BackgroundImageFix"/>
<feColorMatrix in="SourceAlpha" type="matrix" values="0 0 0 0 0 0 0 0 0 0 0 0 0 0 0 0 0 0 127 0"/>
<feOffset dy="6"/>
<feGaussianBlur stdDeviation="7"/>
<feColorMatrix type="matrix" values="0 0 0 0 0.403922 0 0 0 0 0.447059 0 0 0 0 0.898039 0 0 0 0.16 0"/>
<feBlend mode="normal" in2="BackgroundImageFix" result="effect1_dropShadow"/>
<feBlend mode="normal" in="SourceGraphic" in2="effect1_dropShadow" result="shape"/>
</filter>
<filter id="filter1_d" x="214.152" y="106.096" width="120.848" height="119.129" filterUnits="userSpaceOnUse" color-interpolation-filters="sRGB">
<feFlood flood-opacity="0" result="BackgroundImageFix"/>
<feColorMatrix in="SourceAlpha" type="matrix" values="0 0 0 0 0 0 0 0 0 0 0 0 0 0 0 0 0 0 127 0"/>
<feOffset dy="14"/>
<feGaussianBlur stdDeviation="12"/>
<feColorMatrix type="matrix" values="0 0 0 0 0.403922 0 0 0 0 0.447059 0 0 0 0 0.898039 0 0 0 0.2 0"/>
<feBlend mode="normal" in2="BackgroundImageFix" result="effect1_dropShadow"/>
<feBlend mode="normal" in="SourceGraphic" in2="effect1_dropShadow" result="shape"/>
</filter>
<filter id="filter2_d" x="0" y="274.862" width="155.114" height="153.138" filterUnits="userSpaceOnUse" color-interpolation-filters="sRGB">
<feFlood flood-opacity="0" result="BackgroundImageFix"/>
<feColorMatrix in="SourceAlpha" type="matrix" values="0 0 0 0 0 0 0 0 0 0 0 0 0 0 0 0 0 0 127 0"/>
<feOffset dy="14"/>
<feGaussianBlur stdDeviation="12"/>
<feColorMatrix type="matrix" values="0 0 0 0 0.403922 0 0 0 0 0.447059 0 0 0 0 0.898039 0 0 0 0.2 0"/>
<feBlend mode="normal" in2="BackgroundImageFix" result="effect1_dropShadow"/>
<feBlend mode="normal" in="SourceGraphic" in2="effect1_dropShadow" result="shape"/>
</filter>
<filter id="filter3_d" x="77.2138" y="291.177" width="54.4147" height="56.3152" filterUnits="userSpaceOnUse" color-interpolation-filters="sRGB">
<feFlood flood-opacity="0" result="BackgroundImageFix"/>
<feColorMatrix in="SourceAlpha" type="matrix" values="0 0 0 0 0 0 0 0 0 0 0 0 0 0 0 0 0 0 127 0"/>
<feOffset dy="6"/>
<feGaussianBlur stdDeviation="7"/>
<feColorMatrix type="matrix" values="0 0 0 0 0.403922 0 0 0 0 0.447059 0 0 0 0 0.898039 0 0 0 0.16 0"/>
<feBlend mode="normal" in2="BackgroundImageFix" result="effect1_dropShadow"/>
<feBlend mode="normal" in="SourceGraphic" in2="effect1_dropShadow" result="shape"/>
</filter>
</defs>
</svg>
