<svg width="104" height="104" viewBox="0 0 104 104" fill="none" xmlns="http://www.w3.org/2000/svg">
<circle cx="52" cy="52" r="52" fill="#F0F4F7"/>
<path d="M39.284 31.2231L47.0463 33.304L52.2363 34.6151L74.4771 56.5813C75.6724 58.3826 75.0943 61.9064 73.4837 63.4844C72.5403 64.4087 71.2955 64.8617 70.0547 64.8433C70.0748 66.0577 69.6112 67.2787 68.6679 68.2029C67.754 69.0983 66.5293 69.5841 65.2389 69.5644C65.2577 70.7788 64.7954 71.9985 63.8521 72.9227C62.9087 73.847 61.6626 74.2999 60.4231 74.2816C60.4432 75.496 59.9796 76.7169 59.0363 77.6412C58.1117 78.5471 56.8964 79 55.681 79C54.4898 79 53.2999 78.5642 52.382 77.6937L52.0779 77.4535C50.2371 76.1068 32.4945 60.2424 30.0704 57.4859L24.1103 49.6152L17.4668 44.0131C16.9174 43.5497 16.8424 42.7423 17.298 42.1896L29.9753 26.8066C30.4041 26.2853 31.1638 26.1632 31.74 26.523L39.284 31.2231Z" fill="#FCFDFF"/>
<path d="M60.4231 74.2816C60.4432 75.496 59.9796 76.7169 59.0363 77.6412C58.1117 78.5471 56.8964 79 55.681 79C54.4898 79 53.2999 78.5642 52.382 77.6937L52.0779 77.4535C50.2371 76.1069 32.4945 60.2424 30.0704 57.4859L24.1103 49.6152L17.4668 44.0131C16.9174 43.5497 16.8424 42.7423 17.298 42.1896L29.9753 26.8066C30.4041 26.2853 31.1638 26.1632 31.74 26.523L39.284 31.2231L47.0463 33.304L52.2363 34.6151L74.4771 56.5813C75.6724 58.3826 75.0943 61.9064 73.4837 63.4844C72.5403 64.4087 71.2955 64.8617 70.0547 64.8433M60.4231 74.2816C61.6626 74.2999 62.9087 73.847 63.8521 72.9227C64.7954 71.9985 65.2577 70.7788 65.2389 69.5644M60.4231 74.2816L54.7353 68.7264M65.2389 69.5644C66.5293 69.5841 67.754 69.0983 68.6679 68.2029C69.6112 67.2787 70.0748 66.0577 70.0547 64.8433M65.2389 69.5644L56.7345 61.2583M70.0547 64.8433L59.0363 54.0818" stroke="#6772E5" stroke-width="2" stroke-linecap="round"/>
<path d="M29.657 53.5134L27.1623 55.8339C25.9395 56.9714 25.9395 58.8228 27.1623 59.9622C28.3852 61.0996 30.3755 61.0996 31.5983 59.9622L34.0174 57.7119C35.2504 56.565 35.3117 54.7079 34.1562 53.5723C33.5683 52.995 32.7742 52.6703 31.9188 52.6589C31.829 52.657 31.7412 52.6608 31.6514 52.6684H31.6514C31.6351 52.6684 31.6167 52.6684 31.5983 52.6703C30.9716 52.7235 30.3817 52.9438 29.8938 53.3141C29.8121 53.3767 29.7325 53.4432 29.657 53.5134Z" fill="#FCFDFF"/>
<path d="M31.2289 64.2746C31.2289 65.0551 31.5555 65.788 32.1475 66.3387C32.7396 66.8894 33.5275 67.1932 34.3645 67.1913C35.2035 67.1913 35.9915 66.8875 36.5835 66.3368L41.3441 61.9105C41.8524 61.4376 42.1831 60.8148 42.2791 60.1521C42.4567 58.9121 41.7708 57.6797 40.55 57.1385C39.366 56.6144 37.9105 56.8499 36.9837 57.712L32.1475 62.2105C31.5555 62.7631 31.2289 63.4942 31.2289 64.2746Z" fill="#FCFDFF"/>
<path d="M36.9837 70.0967C36.9837 70.8771 37.3103 71.6101 37.9023 72.1608C38.4964 72.7115 39.2843 73.0153 40.1234 73.0134C40.9624 73.0134 41.7504 72.7096 42.3424 72.1589L47.1009 67.7325C47.597 67.2711 47.9256 66.6653 48.0298 66.0197C48.2196 64.8481 47.6398 63.6707 46.5314 63.0707C45.3188 62.4156 43.7285 62.6131 42.7384 63.534L37.9023 68.0325C37.3103 68.5851 36.9837 69.3162 36.9837 70.0967Z" fill="#FCFDFF"/>
<path d="M44.8399 72.7025C43.6171 73.84 43.6171 75.6914 44.8399 76.8288C46.0627 77.9663 48.0531 77.9682 49.2759 76.8307L51.6827 74.5919C52.8504 73.5057 52.977 71.8062 52.0359 70.6631C51.9746 70.5852 51.9052 70.5112 51.8338 70.4409C51.2459 69.8636 50.4497 69.5389 49.5964 69.5275C49.5228 69.5275 49.453 69.5311 49.3815 69.5348L49.3759 69.5351C49.3392 69.537 49.3045 69.537 49.2677 69.5408C49.1799 69.5484 49.0901 69.5598 49.0023 69.575C48.9901 69.575 48.9778 69.5769 48.9656 69.5788C48.4573 69.6699 47.9816 69.875 47.5754 70.1808C47.5734 70.1808 47.5713 70.1827 47.5693 70.1845C47.4897 70.2453 47.41 70.3118 47.3345 70.382L44.8399 72.7025Z" fill="#FCFDFF"/>
<path d="M29.657 53.5134L27.1623 55.8339C25.9395 56.9714 25.9395 58.8228 27.1623 59.9622C28.3852 61.0996 30.3755 61.0996 31.5983 59.9622L34.0174 57.7119C35.2504 56.565 35.3117 54.7079 34.1562 53.5723C33.5683 52.995 32.7742 52.6703 31.9188 52.6589C31.829 52.657 31.7412 52.6608 31.6514 52.6684H31.6514C31.6351 52.6684 31.6167 52.6684 31.5983 52.6703C30.9716 52.7235 30.3817 52.9438 29.8938 53.3141C29.8121 53.3767 29.7325 53.4432 29.657 53.5134Z" stroke="#B8C0CC" stroke-width="2"/>
<path d="M31.2289 64.2746C31.2289 65.0551 31.5555 65.788 32.1475 66.3387C32.7396 66.8894 33.5275 67.1932 34.3645 67.1913C35.2035 67.1913 35.9915 66.8875 36.5835 66.3368L41.3441 61.9105C41.8524 61.4376 42.1831 60.8148 42.2791 60.1521C42.4567 58.9121 41.7708 57.6797 40.55 57.1385C39.366 56.6144 37.9105 56.8499 36.9837 57.712L32.1475 62.2105C31.5555 62.7631 31.2289 63.4942 31.2289 64.2746Z" stroke="#B8C0CC" stroke-width="2"/>
<path d="M36.9837 70.0967C36.9837 70.8771 37.3103 71.6101 37.9023 72.1608C38.4964 72.7115 39.2843 73.0153 40.1234 73.0134C40.9624 73.0134 41.7504 72.7096 42.3424 72.1589L47.1009 67.7325C47.597 67.2711 47.9256 66.6653 48.0298 66.0197C48.2196 64.8481 47.6398 63.6707 46.5314 63.0707C45.3188 62.4156 43.7285 62.6131 42.7384 63.534L37.9023 68.0325C37.3103 68.5851 36.9837 69.3162 36.9837 70.0967Z" stroke="#B8C0CC" stroke-width="2"/>
<path d="M44.8399 72.7025C43.6171 73.84 43.6171 75.6914 44.8399 76.8288C46.0627 77.9663 48.0531 77.9682 49.2759 76.8307L51.6827 74.5919C52.8504 73.5057 52.977 71.8062 52.0359 70.6631C51.9746 70.5852 51.9052 70.5112 51.8338 70.4409C51.2459 69.8636 50.4497 69.5389 49.5964 69.5275C49.5228 69.5275 49.453 69.5311 49.3815 69.5348L49.3759 69.5351C49.3392 69.537 49.3045 69.537 49.2677 69.5408C49.1799 69.5484 49.0901 69.5598 49.0023 69.575C48.9901 69.575 48.9778 69.5769 48.9656 69.5788C48.4573 69.6699 47.9816 69.875 47.5754 70.1808C47.5734 70.1808 47.5713 70.1827 47.5693 70.1845C47.4897 70.2453 47.41 70.3118 47.3345 70.382L44.8399 72.7025Z" stroke="#B8C0CC" stroke-width="2"/>
<path d="M74.584 56.4172C74.3473 57.1157 73.4618 57.3266 72.9358 56.8096L55.9546 40.1189C55.9231 40.0877 55.8901 40.0566 55.8556 40.0284C55.6139 39.8296 55.3137 39.7094 54.9985 39.6872L46.7729 39.11C46.204 39.0715 45.6381 39.3697 45.3574 39.8607L41.1275 47.2388C40.8243 47.7684 40.329 48.1497 39.7361 48.3129C39.1431 48.4761 38.5202 48.399 37.9829 48.0993C37.447 47.7996 37.0612 47.31 36.8961 46.724C36.731 46.1364 36.8091 45.5207 37.1123 44.9911L42.5567 35.4943C42.6865 35.268 42.8996 35.1014 43.1505 35.0299L45.0467 34.49C45.0617 34.4856 45.0767 34.4796 45.0917 34.4752L53.4965 32.076C53.5858 32.0505 53.6781 32.0376 53.771 32.0376H63.5921C63.8229 32.0376 64.0467 31.9577 64.2254 31.8115L71.8015 25.6118C72.2185 25.2705 72.8309 25.321 73.1864 25.726L86.2907 40.6554C86.6738 41.0919 86.6058 41.7618 86.1427 42.1124L77.3593 48.7614C77.1997 48.8822 77.08 49.0482 77.0157 49.2379L74.584 56.4172Z" fill="#FCFDFF" stroke="#B8C0CC" stroke-width="2"/>
</svg>
