<svg width="24" height="24" viewBox="0 0 24 24" fill="none" xmlns="http://www.w3.org/2000/svg">
<path d="M16.7406 1H7.2594C6.28771 1 5.5 1.79345 5.5 2.77222V21.2278C5.5 22.2066 6.28771 23 7.2594 23H16.7406C17.7123 23 18.5 22.2066 18.5 21.2278V2.77222C18.5 1.79345 17.7123 1 16.7406 1Z" fill="white" stroke="#6772E5" stroke-width="1.5" stroke-linecap="round" stroke-linejoin="round"/>
<path d="M10.8641 13.8268C10.7872 13.899 10.6674 13.899 10.5904 13.8268L9.31748 12.6326C9.17091 12.4951 8.94273 12.4951 8.79616 12.6326C8.63574 12.7831 8.63574 13.0378 8.79616 13.1883L10.5904 14.8716C10.6674 14.9438 10.7872 14.9438 10.8641 14.8716L15.2038 10.8002C15.3643 10.6497 15.3643 10.395 15.2038 10.2445C15.0573 10.107 14.8291 10.107 14.6825 10.2445L10.8641 13.8268Z" fill="#6772E5" stroke="#6772E5" stroke-width="0.5"/>
</svg>
