<svg width="20" height="20" viewBox="0 0 20 20" fill="none" xmlns="http://www.w3.org/2000/svg">
<path d="M13.9505 0.833496H6.04951C5.23977 0.833496 4.58334 1.4947 4.58334 2.31034V17.69C4.58334 18.5056 5.23977 19.1668 6.04951 19.1668H13.9505C14.7603 19.1668 15.4167 18.5056 15.4167 17.69V2.31034C15.4167 1.4947 14.7603 0.833496 13.9505 0.833496Z" fill="white" stroke="#6772E5" stroke-width="1.5" stroke-linecap="round" stroke-linejoin="round"/>
<path d="M9.07624 11.5011C8.9993 11.5733 8.87951 11.5733 8.80256 11.5011L7.76458 10.5273C7.64243 10.4127 7.45228 10.4127 7.33014 10.5273V10.5273C7.19646 10.6527 7.19646 10.865 7.33014 10.9904L8.80256 12.3718C8.87951 12.444 8.9993 12.444 9.07624 12.3718L12.6699 9.00036C12.8036 8.87494 12.8036 8.6627 12.6699 8.53728V8.53728C12.5477 8.42269 12.3576 8.42269 12.2354 8.53728L9.07624 11.5011Z" fill="#6772E5" stroke="#6772E5" stroke-width="0.5"/>
</svg>
