<svg width="577" height="352" viewBox="0 0 577 352" fill="none" xmlns="http://www.w3.org/2000/svg">
<g filter="url(#filter0_d)">
<rect x="113" y="8" width="450" height="324" rx="12" fill="white"/>
</g>
<path d="M113 20C113 13.3726 118.373 8 125 8H551C557.627 8 563 13.3726 563 20V48C563 54.6274 557.627 60 551 60H125C118.373 60 113 54.6274 113 48V20Z" fill="#6772E5"/>
<path d="M501 46C507.627 46 513 40.6274 513 34C513 27.3726 507.627 22 501 22C494.373 22 489 27.3726 489 34C489 40.6274 494.373 46 501 46Z" fill="#F2F4F5" fill-opacity="0.5"/>
<path d="M501 24C495.48 24 491 28.48 491 34C491 39.52 495.48 44 501 44C506.52 44 511 39.52 511 34C511 28.48 506.52 24 501 24ZM501 27C502.66 27 504 28.34 504 30C504 31.66 502.66 33 501 33C499.34 33 498 31.66 498 30C498 28.34 499.34 27 501 27ZM501 41.2C498.5 41.2 496.29 39.92 495 37.98C495.03 35.99 499 34.9 501 34.9C502.99 34.9 506.97 35.99 507 37.98C505.71 39.92 503.5 41.2 501 41.2Z" fill="#6772E5"/>
<rect x="163" y="24" width="50" height="20" rx="8" fill="#F2F4F5" fill-opacity="0.5"/>
<rect x="429" y="29" width="40" height="10" rx="5" fill="#F2F4F5" fill-opacity="0.5"/>
<rect x="364" y="29" width="40" height="10" rx="5" fill="#F2F4F5" fill-opacity="0.5"/>
<rect x="299" y="29" width="40" height="10" rx="5" fill="#F2F4F5" fill-opacity="0.5"/>
<path d="M465.701 93.3633L465.801 92.9437L466.104 92.6682C466.356 92.44 466.666 92.3092 467 92.3092C467.732 92.3092 468.336 92.9099 468.336 93.6546C468.336 94.3993 467.732 95 467 95C466.268 95 465.664 94.3993 465.664 93.6546C465.664 93.567 465.676 93.4683 465.701 93.3633ZM458.751 88.3828L458.668 88.7641L458.351 89.0588C458.09 89.302 457.76 89.4418 457.4 89.4418C456.628 89.4418 456 88.817 456 88.0321C456 87.2473 456.628 86.6225 457.4 86.6225C457.76 86.6225 458.09 86.7623 458.351 87.0055L458.668 87.3001L458.751 87.6815C458.786 87.8444 458.8 87.9467 458.8 88.0321C458.8 88.1175 458.786 88.2198 458.751 88.3828ZM466.049 83.4363L465.732 83.1416L465.649 82.7603C465.614 82.5973 465.6 82.495 465.6 82.4096C465.6 81.6248 466.228 81 467 81C467.772 81 468.4 81.6248 468.4 82.4096C468.4 83.1945 467.772 83.8193 467 83.8193C466.64 83.8193 466.31 83.6795 466.049 83.4363Z" stroke="#6772E5" stroke-width="2"/>
<path d="M501 91.2003C502.767 91.2003 504.2 89.7676 504.2 88.0003C504.2 86.233 502.767 84.8003 501 84.8003C499.232 84.8003 497.8 86.233 497.8 88.0003C497.8 89.7676 499.232 91.2003 501 91.2003Z" stroke="#6772E5" stroke-width="2"/>
<path d="M507.12 88.78C507.151 88.53 507.172 88.27 507.172 88C507.172 87.73 507.151 87.47 507.11 87.22L508.848 85.9C509.002 85.78 509.044 85.56 508.951 85.39L507.305 82.62C507.202 82.44 506.986 82.38 506.801 82.44L504.754 83.24C504.322 82.92 503.87 82.66 503.366 82.46L503.057 80.34C503.026 80.14 502.851 80 502.646 80H499.354C499.149 80 498.984 80.14 498.953 80.34L498.645 82.46C498.141 82.66 497.678 82.93 497.256 83.24L495.209 82.44C495.024 82.37 494.808 82.44 494.705 82.62L493.059 85.39C492.956 85.57 492.998 85.78 493.162 85.9L494.9 87.22C494.859 87.47 494.828 87.74 494.828 88C494.828 88.26 494.849 88.53 494.89 88.78L493.152 90.1C492.998 90.22 492.956 90.44 493.049 90.61L494.695 93.38C494.798 93.56 495.014 93.62 495.199 93.56L497.246 92.76C497.678 93.08 498.13 93.34 498.634 93.54L498.943 95.66C498.984 95.86 499.149 96 499.354 96H502.646C502.851 96 503.026 95.86 503.047 95.66L503.355 93.54C503.859 93.34 504.322 93.07 504.744 92.76L506.791 93.56C506.976 93.63 507.192 93.56 507.295 93.38L508.941 90.61C509.044 90.43 509.002 90.22 508.838 90.1L507.12 88.78Z" stroke="#6772E5" stroke-width="2" stroke-linecap="round"/>
<rect x="223" y="140" width="70" height="8" rx="4" fill="#F2F4F5"/>
<rect x="223" y="118" width="118" height="8" rx="4" fill="#F2F4F5"/>
<rect x="163" y="118" width="30" height="30" rx="4" fill="#6772E5" fill-opacity="0.4"/>
<rect x="223" y="200" width="70" height="8" rx="4" fill="#F2F4F5"/>
<rect x="223" y="178" width="118" height="8" rx="4" fill="#F2F4F5"/>
<rect x="163" y="178" width="30" height="30" rx="4" fill="#6772E5" fill-opacity="0.4"/>
<rect x="223" y="294" width="70" height="8" rx="4" fill="#F2F4F5"/>
<rect x="223" y="272" width="118" height="8" rx="4" fill="#F2F4F5"/>
<rect x="163" y="272" width="30" height="30" rx="4" fill="#6772E5" fill-opacity="0.4"/>
<rect x="163" y="238" width="80" height="8" rx="4" fill="#6772E5" fill-opacity="0.4"/>
<path d="M167.692 93.108C166.876 93.108 166.16 92.932 165.544 92.58C164.936 92.228 164.468 91.724 164.14 91.068C163.812 90.412 163.648 89.644 163.648 88.764C163.648 87.884 163.812 87.12 164.14 86.472C164.468 85.816 164.936 85.312 165.544 84.96C166.16 84.608 166.876 84.432 167.692 84.432C168.22 84.432 168.716 84.512 169.18 84.672C169.644 84.824 170.056 85.048 170.416 85.344C170.52 85.424 170.592 85.508 170.632 85.596C170.672 85.684 170.692 85.792 170.692 85.92C170.692 86.096 170.644 86.244 170.548 86.364C170.452 86.484 170.336 86.544 170.2 86.544C170.04 86.544 169.876 86.488 169.708 86.376C169.364 86.12 169.044 85.944 168.748 85.848C168.452 85.744 168.124 85.692 167.764 85.692C166.932 85.692 166.3 85.952 165.868 86.472C165.444 86.992 165.232 87.756 165.232 88.764C165.232 89.78 165.444 90.548 165.868 91.068C166.3 91.588 166.932 91.848 167.764 91.848C168.108 91.848 168.424 91.796 168.712 91.692C169.008 91.588 169.34 91.412 169.708 91.164C169.788 91.116 169.868 91.076 169.948 91.044C170.028 91.012 170.112 90.996 170.2 90.996C170.336 90.996 170.452 91.056 170.548 91.176C170.644 91.296 170.692 91.444 170.692 91.62C170.692 91.74 170.672 91.848 170.632 91.944C170.592 92.032 170.52 92.116 170.416 92.196C170.056 92.492 169.644 92.72 169.18 92.88C168.716 93.032 168.22 93.108 167.692 93.108ZM172.657 93.072C172.441 93.072 172.261 93.012 172.117 92.892C171.981 92.764 171.913 92.584 171.913 92.352V87.72C171.913 87.488 171.981 87.312 172.117 87.192C172.261 87.072 172.441 87.012 172.657 87.012C172.873 87.012 173.053 87.072 173.197 87.192C173.341 87.312 173.413 87.488 173.413 87.72V92.352C173.413 92.584 173.341 92.764 173.197 92.892C173.053 93.012 172.873 93.072 172.657 93.072ZM172.657 85.944C172.385 85.944 172.169 85.872 172.009 85.728C171.849 85.576 171.769 85.38 171.769 85.14C171.769 84.9 171.849 84.708 172.009 84.564C172.169 84.42 172.385 84.348 172.657 84.348C172.921 84.348 173.133 84.42 173.293 84.564C173.461 84.708 173.545 84.9 173.545 85.14C173.545 85.38 173.465 85.576 173.305 85.728C173.145 85.872 172.929 85.944 172.657 85.944ZM178.266 91.956C178.666 91.98 178.866 92.16 178.866 92.496C178.866 92.688 178.786 92.836 178.626 92.94C178.474 93.036 178.254 93.076 177.965 93.06L177.642 93.036C176.298 92.94 175.626 92.22 175.626 90.876V88.26H175.026C174.81 88.26 174.642 88.212 174.522 88.116C174.409 88.02 174.353 87.88 174.353 87.696C174.353 87.512 174.409 87.372 174.522 87.276C174.642 87.18 174.81 87.132 175.026 87.132H175.626V86.028C175.626 85.812 175.694 85.64 175.83 85.512C175.966 85.384 176.15 85.32 176.382 85.32C176.606 85.32 176.786 85.384 176.922 85.512C177.058 85.64 177.126 85.812 177.126 86.028V87.132H178.146C178.362 87.132 178.526 87.18 178.638 87.276C178.758 87.372 178.818 87.512 178.818 87.696C178.818 87.88 178.758 88.02 178.638 88.116C178.526 88.212 178.362 88.26 178.146 88.26H177.126V90.984C177.126 91.576 177.398 91.892 177.942 91.932L178.266 91.956ZM183.833 87.444C183.897 87.3 183.981 87.196 184.085 87.132C184.197 87.06 184.317 87.024 184.445 87.024C184.629 87.024 184.793 87.088 184.937 87.216C185.089 87.336 185.165 87.488 185.165 87.672C185.165 87.76 185.141 87.852 185.093 87.948L181.817 94.812C181.681 95.084 181.469 95.22 181.181 95.22C180.997 95.22 180.833 95.16 180.689 95.04C180.553 94.928 180.485 94.784 180.485 94.608C180.485 94.52 180.509 94.42 180.557 94.308L181.373 92.592L179.141 87.948C179.101 87.868 179.081 87.776 179.081 87.672C179.081 87.488 179.157 87.332 179.309 87.204C179.469 87.076 179.649 87.012 179.849 87.012C179.985 87.012 180.109 87.048 180.221 87.12C180.333 87.184 180.421 87.288 180.485 87.432L182.165 91.14L183.833 87.444ZM193.227 93.108C192.411 93.108 191.695 92.932 191.079 92.58C190.471 92.228 190.003 91.724 189.675 91.068C189.347 90.412 189.183 89.644 189.183 88.764C189.183 87.884 189.347 87.12 189.675 86.472C190.003 85.816 190.471 85.312 191.079 84.96C191.695 84.608 192.411 84.432 193.227 84.432C193.755 84.432 194.251 84.512 194.715 84.672C195.179 84.824 195.591 85.048 195.951 85.344C196.055 85.424 196.127 85.508 196.167 85.596C196.207 85.684 196.227 85.792 196.227 85.92C196.227 86.096 196.179 86.244 196.083 86.364C195.987 86.484 195.871 86.544 195.735 86.544C195.575 86.544 195.411 86.488 195.243 86.376C194.899 86.12 194.579 85.944 194.283 85.848C193.987 85.744 193.659 85.692 193.299 85.692C192.467 85.692 191.835 85.952 191.403 86.472C190.979 86.992 190.767 87.756 190.767 88.764C190.767 89.78 190.979 90.548 191.403 91.068C191.835 91.588 192.467 91.848 193.299 91.848C193.643 91.848 193.959 91.796 194.247 91.692C194.543 91.588 194.875 91.412 195.243 91.164C195.323 91.116 195.403 91.076 195.483 91.044C195.563 91.012 195.647 90.996 195.735 90.996C195.871 90.996 195.987 91.056 196.083 91.176C196.179 91.296 196.227 91.444 196.227 91.62C196.227 91.74 196.207 91.848 196.167 91.944C196.127 92.032 196.055 92.116 195.951 92.196C195.591 92.492 195.179 92.72 194.715 92.88C194.251 93.032 193.755 93.108 193.227 93.108ZM198.192 93.072C197.976 93.072 197.796 93.012 197.652 92.892C197.516 92.764 197.448 92.584 197.448 92.352V85.188C197.448 84.956 197.516 84.78 197.652 84.66C197.796 84.54 197.976 84.48 198.192 84.48C198.408 84.48 198.588 84.54 198.732 84.66C198.876 84.78 198.948 84.956 198.948 85.188V92.352C198.948 92.584 198.876 92.764 198.732 92.892C198.588 93.012 198.408 93.072 198.192 93.072ZM205.139 91.392C205.275 91.392 205.383 91.444 205.463 91.548C205.551 91.652 205.595 91.792 205.595 91.968C205.595 92.216 205.447 92.424 205.151 92.592C204.879 92.744 204.571 92.868 204.227 92.964C203.883 93.052 203.555 93.096 203.243 93.096C202.299 93.096 201.551 92.824 200.999 92.28C200.447 91.736 200.171 90.992 200.171 90.048C200.171 89.448 200.291 88.916 200.531 88.452C200.771 87.988 201.107 87.628 201.539 87.372C201.979 87.116 202.475 86.988 203.027 86.988C203.555 86.988 204.015 87.104 204.407 87.336C204.799 87.568 205.103 87.896 205.319 88.32C205.535 88.744 205.643 89.244 205.643 89.82C205.643 90.164 205.491 90.336 205.187 90.336H201.647C201.695 90.888 201.851 91.296 202.115 91.56C202.379 91.816 202.763 91.944 203.267 91.944C203.523 91.944 203.747 91.912 203.939 91.848C204.139 91.784 204.363 91.696 204.611 91.584C204.851 91.456 205.027 91.392 205.139 91.392ZM203.063 88.044C202.655 88.044 202.327 88.172 202.079 88.428C201.839 88.684 201.695 89.052 201.647 89.532H204.359C204.343 89.044 204.223 88.676 203.999 88.428C203.775 88.172 203.463 88.044 203.063 88.044ZM210.146 87.012C210.354 86.996 210.518 87.04 210.638 87.144C210.758 87.248 210.818 87.404 210.818 87.612C210.818 87.828 210.766 87.988 210.662 88.092C210.558 88.196 210.37 88.264 210.098 88.296L209.738 88.332C209.266 88.38 208.918 88.54 208.694 88.812C208.478 89.084 208.37 89.424 208.37 89.832V92.352C208.37 92.584 208.298 92.764 208.154 92.892C208.01 93.012 207.83 93.072 207.614 93.072C207.398 93.072 207.218 93.012 207.074 92.892C206.938 92.764 206.87 92.584 206.87 92.352V87.708C206.87 87.484 206.938 87.312 207.074 87.192C207.218 87.072 207.394 87.012 207.602 87.012C207.81 87.012 207.978 87.072 208.106 87.192C208.234 87.304 208.298 87.468 208.298 87.684V88.164C208.45 87.812 208.674 87.54 208.97 87.348C209.274 87.156 209.61 87.048 209.978 87.024L210.146 87.012ZM216.684 91.836C216.844 91.988 216.924 92.16 216.924 92.352C216.924 92.536 216.856 92.7 216.72 92.844C216.592 92.988 216.44 93.06 216.264 93.06C216.088 93.06 215.924 92.988 215.772 92.844L212.964 90.3V92.352C212.964 92.584 212.892 92.76 212.748 92.88C212.604 93 212.424 93.06 212.208 93.06C211.992 93.06 211.812 93 211.668 92.88C211.532 92.76 211.464 92.584 211.464 92.352V85.188C211.464 84.956 211.532 84.78 211.668 84.66C211.812 84.54 211.992 84.48 212.208 84.48C212.424 84.48 212.604 84.54 212.748 84.66C212.892 84.78 212.964 84.956 212.964 85.188V89.7L215.532 87.24C215.676 87.096 215.84 87.024 216.024 87.024C216.208 87.024 216.368 87.092 216.504 87.228C216.64 87.364 216.708 87.524 216.708 87.708C216.708 87.892 216.632 88.06 216.48 88.212L214.596 89.964L216.684 91.836ZM218.581 88.092C218.293 88.092 218.125 87.932 218.077 87.612L217.789 85.488C217.773 85.376 217.765 85.3 217.765 85.26C217.765 85.012 217.837 84.82 217.981 84.684C218.133 84.548 218.329 84.48 218.569 84.48C218.817 84.48 219.013 84.548 219.157 84.684C219.301 84.82 219.373 85.012 219.373 85.26C219.373 85.3 219.365 85.376 219.349 85.488L219.073 87.612C219.025 87.932 218.861 88.092 218.581 88.092ZM222.927 93.096C222.055 93.096 221.351 92.924 220.815 92.58C220.559 92.428 220.431 92.212 220.431 91.932C220.431 91.772 220.475 91.644 220.563 91.548C220.651 91.444 220.759 91.392 220.887 91.392C221.023 91.392 221.211 91.456 221.451 91.584C221.707 91.704 221.939 91.796 222.147 91.86C222.363 91.924 222.635 91.956 222.963 91.956C223.299 91.956 223.559 91.9 223.743 91.788C223.935 91.676 224.031 91.52 224.031 91.32C224.031 91.184 223.991 91.076 223.911 90.996C223.839 90.916 223.703 90.844 223.503 90.78C223.311 90.708 223.015 90.628 222.615 90.54C221.903 90.396 221.391 90.192 221.079 89.928C220.775 89.664 220.623 89.3 220.623 88.836C220.623 88.484 220.727 88.168 220.935 87.888C221.143 87.6 221.427 87.38 221.787 87.228C222.155 87.068 222.571 86.988 223.035 86.988C223.371 86.988 223.695 87.032 224.007 87.12C224.319 87.2 224.599 87.32 224.847 87.48C225.103 87.64 225.231 87.852 225.231 88.116C225.231 88.276 225.187 88.412 225.099 88.524C225.011 88.628 224.903 88.68 224.775 88.68C224.687 88.68 224.599 88.664 224.511 88.632C224.431 88.592 224.327 88.536 224.199 88.464C223.967 88.344 223.767 88.256 223.599 88.2C223.431 88.136 223.223 88.104 222.975 88.104C222.679 88.104 222.443 88.164 222.267 88.284C222.099 88.404 222.015 88.568 222.015 88.776C222.015 88.976 222.103 89.128 222.279 89.232C222.455 89.336 222.795 89.44 223.299 89.544C223.835 89.656 224.255 89.784 224.559 89.928C224.863 90.072 225.079 90.252 225.207 90.468C225.343 90.684 225.411 90.96 225.411 91.296C225.411 91.84 225.183 92.276 224.727 92.604C224.279 92.932 223.679 93.096 222.927 93.096ZM233.785 93.108C232.961 93.108 232.245 92.932 231.637 92.58C231.037 92.228 230.573 91.724 230.245 91.068C229.917 90.412 229.753 89.644 229.753 88.764C229.753 87.884 229.913 87.12 230.233 86.472C230.561 85.816 231.029 85.312 231.637 84.96C232.245 84.608 232.961 84.432 233.785 84.432C234.609 84.432 235.321 84.608 235.921 84.96C236.529 85.312 236.993 85.816 237.313 86.472C237.641 87.12 237.805 87.884 237.805 88.764C237.805 89.644 237.641 90.412 237.313 91.068C236.985 91.724 236.517 92.228 235.909 92.58C235.309 92.932 234.601 93.108 233.785 93.108ZM233.785 91.872C234.561 91.872 235.165 91.604 235.597 91.068C236.037 90.532 236.257 89.764 236.257 88.764C236.257 87.764 236.037 87 235.597 86.472C235.165 85.936 234.561 85.668 233.785 85.668C233.001 85.668 232.389 85.936 231.949 86.472C231.517 87 231.301 87.764 231.301 88.764C231.301 89.764 231.517 90.532 231.949 91.068C232.389 91.604 233.001 91.872 233.785 91.872ZM242.201 85.656C241.833 85.68 241.565 85.792 241.397 85.992C241.229 86.192 241.145 86.48 241.145 86.856V87.132H242.165C242.613 87.132 242.837 87.32 242.837 87.696C242.837 88.072 242.613 88.26 242.165 88.26H241.145V92.352C241.145 92.584 241.073 92.76 240.929 92.88C240.793 93 240.617 93.06 240.401 93.06C240.185 93.06 240.005 93 239.861 92.88C239.717 92.76 239.645 92.584 239.645 92.352V88.26H239.045C238.597 88.26 238.373 88.072 238.373 87.696C238.373 87.32 238.597 87.132 239.045 87.132H239.645V87.048C239.645 86.296 239.841 85.708 240.233 85.284C240.633 84.852 241.193 84.608 241.913 84.552L242.225 84.528C242.545 84.504 242.769 84.54 242.897 84.636C243.033 84.724 243.101 84.864 243.101 85.056C243.101 85.4 242.905 85.592 242.513 85.632L242.201 85.656ZM248.472 85.944C248.2 85.944 247.984 85.872 247.824 85.728C247.664 85.576 247.584 85.38 247.584 85.14C247.584 84.9 247.664 84.708 247.824 84.564C247.984 84.42 248.2 84.348 248.472 84.348C248.736 84.348 248.948 84.42 249.108 84.564C249.276 84.708 249.36 84.9 249.36 85.14C249.36 85.38 249.276 85.576 249.108 85.728C248.948 85.872 248.736 85.944 248.472 85.944ZM248.544 87.132C248.992 87.132 249.216 87.32 249.216 87.696V92.352C249.216 92.584 249.144 92.764 249 92.892C248.864 93.012 248.688 93.072 248.472 93.072C248.256 93.072 248.076 93.012 247.932 92.892C247.788 92.764 247.716 92.584 247.716 92.352V88.26H245.34V92.352C245.34 92.584 245.268 92.76 245.124 92.88C244.988 93 244.812 93.06 244.596 93.06C244.38 93.06 244.2 93 244.056 92.88C243.912 92.76 243.84 92.584 243.84 92.352V88.26H243.24C242.792 88.26 242.568 88.072 242.568 87.696C242.568 87.32 242.792 87.132 243.24 87.132H243.84V87.072C243.84 86.328 244.036 85.74 244.428 85.308C244.828 84.868 245.388 84.616 246.108 84.552L246.384 84.528C246.424 84.52 246.484 84.516 246.564 84.516C246.988 84.516 247.2 84.696 247.2 85.056C247.2 85.232 247.152 85.368 247.056 85.464C246.96 85.56 246.828 85.616 246.66 85.632L246.396 85.656C246.028 85.688 245.76 85.804 245.592 86.004C245.424 86.196 245.34 86.48 245.34 86.856V87.132H248.544ZM253.384 93.096C252.8 93.096 252.284 92.972 251.836 92.724C251.396 92.476 251.056 92.124 250.816 91.668C250.576 91.212 250.456 90.68 250.456 90.072C250.456 89.464 250.58 88.928 250.828 88.464C251.084 87.992 251.44 87.628 251.896 87.372C252.352 87.116 252.876 86.988 253.468 86.988C253.78 86.988 254.092 87.032 254.404 87.12C254.724 87.208 255.004 87.328 255.244 87.48C255.5 87.648 255.628 87.86 255.628 88.116C255.628 88.292 255.584 88.436 255.496 88.548C255.416 88.652 255.308 88.704 255.172 88.704C255.084 88.704 254.992 88.684 254.896 88.644C254.8 88.604 254.704 88.556 254.608 88.5C254.432 88.396 254.264 88.316 254.104 88.26C253.944 88.196 253.76 88.164 253.552 88.164C253.056 88.164 252.672 88.328 252.4 88.656C252.136 88.976 252.004 89.44 252.004 90.048C252.004 90.648 252.136 91.112 252.4 91.44C252.672 91.76 253.056 91.92 253.552 91.92C253.752 91.92 253.928 91.892 254.08 91.836C254.24 91.772 254.416 91.688 254.608 91.584C254.728 91.512 254.832 91.46 254.92 91.428C255.008 91.388 255.096 91.368 255.184 91.368C255.312 91.368 255.42 91.424 255.508 91.536C255.596 91.648 255.64 91.788 255.64 91.956C255.64 92.092 255.608 92.212 255.544 92.316C255.488 92.412 255.392 92.5 255.256 92.58C255.008 92.74 254.72 92.868 254.392 92.964C254.064 93.052 253.728 93.096 253.384 93.096ZM261.283 91.392C261.419 91.392 261.527 91.444 261.607 91.548C261.695 91.652 261.739 91.792 261.739 91.968C261.739 92.216 261.591 92.424 261.295 92.592C261.023 92.744 260.715 92.868 260.371 92.964C260.027 93.052 259.699 93.096 259.387 93.096C258.443 93.096 257.695 92.824 257.143 92.28C256.591 91.736 256.315 90.992 256.315 90.048C256.315 89.448 256.435 88.916 256.675 88.452C256.915 87.988 257.251 87.628 257.683 87.372C258.123 87.116 258.619 86.988 259.171 86.988C259.699 86.988 260.159 87.104 260.551 87.336C260.943 87.568 261.247 87.896 261.463 88.32C261.679 88.744 261.787 89.244 261.787 89.82C261.787 90.164 261.635 90.336 261.331 90.336H257.791C257.839 90.888 257.995 91.296 258.259 91.56C258.523 91.816 258.907 91.944 259.411 91.944C259.667 91.944 259.891 91.912 260.083 91.848C260.283 91.784 260.507 91.696 260.755 91.584C260.995 91.456 261.171 91.392 261.283 91.392ZM259.207 88.044C258.799 88.044 258.471 88.172 258.223 88.428C257.983 88.684 257.839 89.052 257.791 89.532H260.503C260.487 89.044 260.367 88.676 260.143 88.428C259.919 88.172 259.607 88.044 259.207 88.044Z" fill="#6772E5"/>
<rect x="394" y="119" width="118" height="88" rx="5" fill="white" stroke="#D7DEE2" stroke-width="2"/>
<rect x="403" y="151" width="100" height="24" rx="6" fill="#6772E5"/>
<path d="M435.011 141C434.779 141 434.595 140.936 434.459 140.808C434.331 140.68 434.267 140.5 434.267 140.268V133.272C434.267 133.04 434.331 132.86 434.459 132.732C434.595 132.604 434.779 132.54 435.011 132.54H439.343C439.575 132.54 439.755 132.592 439.883 132.696C440.011 132.8 440.075 132.948 440.075 133.14C440.075 133.34 440.011 133.496 439.883 133.608C439.755 133.712 439.575 133.764 439.343 133.764H435.779V136.092H439.103C439.335 136.092 439.515 136.144 439.643 136.248C439.771 136.352 439.835 136.504 439.835 136.704C439.835 136.896 439.771 137.044 439.643 137.148C439.515 137.252 439.335 137.304 439.103 137.304H435.779V139.776H439.343C439.575 139.776 439.755 139.832 439.883 139.944C440.011 140.048 440.075 140.2 440.075 140.4C440.075 140.592 440.011 140.74 439.883 140.844C439.755 140.948 439.575 141 439.343 141H435.011ZM444.61 134.988C445.314 134.988 445.838 135.188 446.182 135.588C446.526 135.988 446.698 136.592 446.698 137.4V140.352C446.698 140.576 446.63 140.752 446.494 140.88C446.366 141.008 446.186 141.072 445.954 141.072C445.722 141.072 445.538 141.008 445.402 140.88C445.266 140.752 445.198 140.576 445.198 140.352V137.484C445.198 137.028 445.11 136.696 444.934 136.488C444.766 136.28 444.498 136.176 444.13 136.176C443.698 136.176 443.35 136.312 443.086 136.584C442.83 136.856 442.702 137.22 442.702 137.676V140.352C442.702 140.576 442.634 140.752 442.498 140.88C442.362 141.008 442.178 141.072 441.946 141.072C441.714 141.072 441.53 141.008 441.394 140.88C441.266 140.752 441.202 140.576 441.202 140.352V135.708C441.202 135.5 441.27 135.332 441.406 135.204C441.542 135.076 441.726 135.012 441.958 135.012C442.166 135.012 442.334 135.076 442.462 135.204C442.598 135.324 442.666 135.484 442.666 135.684V136.008C442.866 135.68 443.134 135.428 443.47 135.252C443.806 135.076 444.186 134.988 444.61 134.988ZM453.189 135.012C453.413 135.012 453.593 135.076 453.729 135.204C453.865 135.332 453.933 135.504 453.933 135.72V140.46C453.933 141.38 453.677 142.076 453.165 142.548C452.653 143.02 451.897 143.256 450.897 143.256C450.025 143.256 449.297 143.092 448.713 142.764C448.417 142.588 448.269 142.376 448.269 142.128C448.269 141.952 448.309 141.812 448.389 141.708C448.477 141.604 448.589 141.552 448.725 141.552C448.797 141.552 448.885 141.568 448.989 141.6C449.093 141.64 449.201 141.684 449.313 141.732C449.601 141.852 449.857 141.944 450.081 142.008C450.313 142.072 450.577 142.104 450.873 142.104C451.921 142.104 452.445 141.592 452.445 140.568V139.8C452.269 140.128 452.013 140.384 451.677 140.568C451.341 140.744 450.957 140.832 450.525 140.832C450.013 140.832 449.557 140.712 449.157 140.472C448.765 140.224 448.457 139.88 448.233 139.44C448.009 139 447.897 138.492 447.897 137.916C447.897 137.34 448.005 136.832 448.221 136.392C448.445 135.944 448.757 135.6 449.157 135.36C449.557 135.112 450.013 134.988 450.525 134.988C450.957 134.988 451.341 135.08 451.677 135.264C452.013 135.44 452.269 135.692 452.445 136.02V135.708C452.445 135.5 452.513 135.332 452.649 135.204C452.785 135.076 452.965 135.012 453.189 135.012ZM450.921 139.668C451.401 139.668 451.773 139.512 452.037 139.2C452.309 138.888 452.445 138.46 452.445 137.916C452.445 137.364 452.309 136.932 452.037 136.62C451.773 136.308 451.401 136.152 450.921 136.152C450.449 136.152 450.077 136.308 449.805 136.62C449.533 136.932 449.397 137.364 449.397 137.916C449.397 138.46 449.533 138.888 449.805 139.2C450.077 139.512 450.449 139.668 450.921 139.668ZM456.231 141.072C456.015 141.072 455.835 141.012 455.691 140.892C455.555 140.764 455.487 140.584 455.487 140.352V133.188C455.487 132.956 455.555 132.78 455.691 132.66C455.835 132.54 456.015 132.48 456.231 132.48C456.447 132.48 456.627 132.54 456.771 132.66C456.915 132.78 456.987 132.956 456.987 133.188V140.352C456.987 140.584 456.915 140.764 456.771 140.892C456.627 141.012 456.447 141.072 456.231 141.072ZM459.278 141.072C459.062 141.072 458.882 141.012 458.738 140.892C458.602 140.764 458.534 140.584 458.534 140.352V135.72C458.534 135.488 458.602 135.312 458.738 135.192C458.882 135.072 459.062 135.012 459.278 135.012C459.494 135.012 459.674 135.072 459.818 135.192C459.962 135.312 460.034 135.488 460.034 135.72V140.352C460.034 140.584 459.962 140.764 459.818 140.892C459.674 141.012 459.494 141.072 459.278 141.072ZM459.278 133.944C459.006 133.944 458.79 133.872 458.63 133.728C458.47 133.576 458.39 133.38 458.39 133.14C458.39 132.9 458.47 132.708 458.63 132.564C458.79 132.42 459.006 132.348 459.278 132.348C459.542 132.348 459.754 132.42 459.914 132.564C460.082 132.708 460.166 132.9 460.166 133.14C460.166 133.38 460.086 133.576 459.926 133.728C459.766 133.872 459.55 133.944 459.278 133.944ZM463.705 141.096C462.833 141.096 462.129 140.924 461.593 140.58C461.337 140.428 461.209 140.212 461.209 139.932C461.209 139.772 461.253 139.644 461.341 139.548C461.429 139.444 461.537 139.392 461.665 139.392C461.801 139.392 461.989 139.456 462.229 139.584C462.485 139.704 462.717 139.796 462.925 139.86C463.141 139.924 463.413 139.956 463.741 139.956C464.077 139.956 464.337 139.9 464.521 139.788C464.713 139.676 464.809 139.52 464.809 139.32C464.809 139.184 464.769 139.076 464.689 138.996C464.617 138.916 464.481 138.844 464.281 138.78C464.089 138.708 463.793 138.628 463.393 138.54C462.681 138.396 462.169 138.192 461.857 137.928C461.553 137.664 461.401 137.3 461.401 136.836C461.401 136.484 461.505 136.168 461.713 135.888C461.921 135.6 462.205 135.38 462.565 135.228C462.933 135.068 463.349 134.988 463.813 134.988C464.149 134.988 464.473 135.032 464.785 135.12C465.097 135.2 465.377 135.32 465.625 135.48C465.881 135.64 466.009 135.852 466.009 136.116C466.009 136.276 465.965 136.412 465.877 136.524C465.789 136.628 465.681 136.68 465.553 136.68C465.465 136.68 465.377 136.664 465.289 136.632C465.209 136.592 465.105 136.536 464.977 136.464C464.745 136.344 464.545 136.256 464.377 136.2C464.209 136.136 464.001 136.104 463.753 136.104C463.457 136.104 463.221 136.164 463.045 136.284C462.877 136.404 462.793 136.568 462.793 136.776C462.793 136.976 462.881 137.128 463.057 137.232C463.233 137.336 463.573 137.44 464.077 137.544C464.613 137.656 465.033 137.784 465.337 137.928C465.641 138.072 465.857 138.252 465.985 138.468C466.121 138.684 466.189 138.96 466.189 139.296C466.189 139.84 465.961 140.276 465.505 140.604C465.057 140.932 464.457 141.096 463.705 141.096ZM470.837 134.988C472.213 134.988 472.901 135.792 472.901 137.4V140.352C472.901 140.576 472.833 140.752 472.697 140.88C472.569 141.008 472.389 141.072 472.157 141.072C471.925 141.072 471.741 141.008 471.605 140.88C471.469 140.752 471.401 140.576 471.401 140.352V137.4C471.401 136.976 471.313 136.668 471.137 136.476C470.969 136.276 470.701 136.176 470.333 136.176C469.901 136.176 469.553 136.312 469.289 136.584C469.033 136.856 468.905 137.22 468.905 137.676V140.352C468.905 140.576 468.837 140.752 468.701 140.88C468.565 141.008 468.381 141.072 468.149 141.072C467.917 141.072 467.733 141.008 467.597 140.88C467.469 140.752 467.405 140.576 467.405 140.352V133.176C467.405 132.968 467.473 132.8 467.609 132.672C467.753 132.544 467.937 132.48 468.161 132.48C468.385 132.48 468.565 132.54 468.701 132.66C468.837 132.78 468.905 132.944 468.905 133.152V135.948C469.105 135.636 469.369 135.4 469.697 135.24C470.033 135.072 470.413 134.988 470.837 134.988Z" fill="#6772E5"/>
<path d="M435.965 167.072C435.733 167.072 435.545 167 435.401 166.856C435.265 166.712 435.197 166.524 435.197 166.292V159.272C435.197 159.04 435.261 158.86 435.389 158.732C435.525 158.604 435.709 158.54 435.941 158.54H440.153C440.641 158.54 440.885 158.748 440.885 159.164C440.885 159.572 440.641 159.776 440.153 159.776H436.721V162.08H439.913C440.401 162.08 440.645 162.288 440.645 162.704C440.645 163.112 440.401 163.316 439.913 163.316H436.721V166.292C436.721 166.524 436.653 166.712 436.517 166.856C436.381 167 436.197 167.072 435.965 167.072ZM445.021 161.012C445.229 160.996 445.393 161.04 445.513 161.144C445.633 161.248 445.693 161.404 445.693 161.612C445.693 161.828 445.641 161.988 445.537 162.092C445.433 162.196 445.245 162.264 444.973 162.296L444.613 162.332C444.141 162.38 443.793 162.54 443.569 162.812C443.353 163.084 443.245 163.424 443.245 163.832V166.352C443.245 166.584 443.173 166.764 443.029 166.892C442.885 167.012 442.705 167.072 442.489 167.072C442.273 167.072 442.093 167.012 441.949 166.892C441.813 166.764 441.745 166.584 441.745 166.352V161.708C441.745 161.484 441.813 161.312 441.949 161.192C442.093 161.072 442.269 161.012 442.477 161.012C442.685 161.012 442.853 161.072 442.981 161.192C443.109 161.304 443.173 161.468 443.173 161.684V162.164C443.325 161.812 443.549 161.54 443.845 161.348C444.149 161.156 444.485 161.048 444.853 161.024L445.021 161.012ZM450.865 165.392C451.001 165.392 451.109 165.444 451.189 165.548C451.277 165.652 451.321 165.792 451.321 165.968C451.321 166.216 451.173 166.424 450.877 166.592C450.605 166.744 450.297 166.868 449.953 166.964C449.609 167.052 449.281 167.096 448.969 167.096C448.025 167.096 447.277 166.824 446.725 166.28C446.173 165.736 445.897 164.992 445.897 164.048C445.897 163.448 446.017 162.916 446.257 162.452C446.497 161.988 446.833 161.628 447.265 161.372C447.705 161.116 448.201 160.988 448.753 160.988C449.281 160.988 449.741 161.104 450.133 161.336C450.525 161.568 450.829 161.896 451.045 162.32C451.261 162.744 451.369 163.244 451.369 163.82C451.369 164.164 451.217 164.336 450.913 164.336H447.373C447.421 164.888 447.577 165.296 447.841 165.56C448.105 165.816 448.489 165.944 448.993 165.944C449.249 165.944 449.473 165.912 449.665 165.848C449.865 165.784 450.089 165.696 450.337 165.584C450.577 165.456 450.753 165.392 450.865 165.392ZM448.789 162.044C448.381 162.044 448.053 162.172 447.805 162.428C447.565 162.684 447.421 163.052 447.373 163.532H450.085C450.069 163.044 449.949 162.676 449.725 162.428C449.501 162.172 449.189 162.044 448.789 162.044ZM456.004 160.988C456.708 160.988 457.232 161.188 457.576 161.588C457.92 161.988 458.092 162.592 458.092 163.4V166.352C458.092 166.576 458.024 166.752 457.888 166.88C457.76 167.008 457.58 167.072 457.348 167.072C457.116 167.072 456.932 167.008 456.796 166.88C456.66 166.752 456.592 166.576 456.592 166.352V163.484C456.592 163.028 456.504 162.696 456.328 162.488C456.16 162.28 455.892 162.176 455.524 162.176C455.092 162.176 454.744 162.312 454.48 162.584C454.224 162.856 454.096 163.22 454.096 163.676V166.352C454.096 166.576 454.028 166.752 453.892 166.88C453.756 167.008 453.572 167.072 453.34 167.072C453.108 167.072 452.924 167.008 452.788 166.88C452.66 166.752 452.596 166.576 452.596 166.352V161.708C452.596 161.5 452.664 161.332 452.8 161.204C452.936 161.076 453.12 161.012 453.352 161.012C453.56 161.012 453.728 161.076 453.856 161.204C453.992 161.324 454.06 161.484 454.06 161.684V162.008C454.26 161.68 454.528 161.428 454.864 161.252C455.2 161.076 455.58 160.988 456.004 160.988ZM462.22 167.096C461.636 167.096 461.12 166.972 460.672 166.724C460.232 166.476 459.892 166.124 459.652 165.668C459.412 165.212 459.292 164.68 459.292 164.072C459.292 163.464 459.416 162.928 459.664 162.464C459.92 161.992 460.276 161.628 460.732 161.372C461.188 161.116 461.712 160.988 462.304 160.988C462.616 160.988 462.928 161.032 463.24 161.12C463.56 161.208 463.84 161.328 464.08 161.48C464.336 161.648 464.464 161.86 464.464 162.116C464.464 162.292 464.42 162.436 464.332 162.548C464.252 162.652 464.144 162.704 464.008 162.704C463.92 162.704 463.828 162.684 463.732 162.644C463.636 162.604 463.54 162.556 463.444 162.5C463.268 162.396 463.1 162.316 462.94 162.26C462.78 162.196 462.596 162.164 462.388 162.164C461.892 162.164 461.508 162.328 461.236 162.656C460.972 162.976 460.84 163.44 460.84 164.048C460.84 164.648 460.972 165.112 461.236 165.44C461.508 165.76 461.892 165.92 462.388 165.92C462.588 165.92 462.764 165.892 462.916 165.836C463.076 165.772 463.252 165.688 463.444 165.584C463.564 165.512 463.668 165.46 463.756 165.428C463.844 165.388 463.932 165.368 464.02 165.368C464.148 165.368 464.256 165.424 464.344 165.536C464.432 165.648 464.476 165.788 464.476 165.956C464.476 166.092 464.444 166.212 464.38 166.316C464.324 166.412 464.228 166.5 464.092 166.58C463.844 166.74 463.556 166.868 463.228 166.964C462.9 167.052 462.564 167.096 462.22 167.096ZM468.907 160.988C470.283 160.988 470.971 161.792 470.971 163.4V166.352C470.971 166.576 470.903 166.752 470.767 166.88C470.639 167.008 470.459 167.072 470.227 167.072C469.995 167.072 469.811 167.008 469.675 166.88C469.539 166.752 469.471 166.576 469.471 166.352V163.4C469.471 162.976 469.383 162.668 469.207 162.476C469.039 162.276 468.771 162.176 468.403 162.176C467.971 162.176 467.623 162.312 467.359 162.584C467.103 162.856 466.975 163.22 466.975 163.676V166.352C466.975 166.576 466.907 166.752 466.771 166.88C466.635 167.008 466.451 167.072 466.219 167.072C465.987 167.072 465.803 167.008 465.667 166.88C465.539 166.752 465.475 166.576 465.475 166.352V159.176C465.475 158.968 465.543 158.8 465.679 158.672C465.823 158.544 466.007 158.48 466.231 158.48C466.455 158.48 466.635 158.54 466.771 158.66C466.907 158.78 466.975 158.944 466.975 159.152V161.948C467.175 161.636 467.439 161.4 467.767 161.24C468.103 161.072 468.483 160.988 468.907 160.988Z" fill="white"/>
<path d="M437.905 193.072C437.673 193.072 437.485 193.004 437.341 192.868C437.205 192.724 437.137 192.532 437.137 192.292V185.272C437.137 185.04 437.201 184.86 437.329 184.732C437.465 184.604 437.649 184.54 437.881 184.54H440.833C441.737 184.54 442.441 184.768 442.945 185.224C443.449 185.672 443.701 186.304 443.701 187.12C443.701 187.936 443.449 188.572 442.945 189.028C442.441 189.484 441.737 189.712 440.833 189.712H438.685V192.292C438.685 192.532 438.613 192.724 438.469 192.868C438.333 193.004 438.145 193.072 437.905 193.072ZM440.641 188.524C441.705 188.524 442.237 188.06 442.237 187.132C442.237 186.204 441.705 185.74 440.641 185.74H438.685V188.524H440.641ZM447.392 193.096C446.792 193.096 446.264 192.972 445.808 192.724C445.36 192.476 445.012 192.12 444.764 191.656C444.516 191.192 444.392 190.652 444.392 190.036C444.392 189.42 444.516 188.884 444.764 188.428C445.012 187.964 445.36 187.608 445.808 187.36C446.264 187.112 446.792 186.988 447.392 186.988C447.992 186.988 448.516 187.112 448.964 187.36C449.42 187.608 449.768 187.964 450.008 188.428C450.256 188.884 450.38 189.42 450.38 190.036C450.38 190.652 450.256 191.192 450.008 191.656C449.768 192.12 449.42 192.476 448.964 192.724C448.516 192.972 447.992 193.096 447.392 193.096ZM447.38 191.932C447.868 191.932 448.24 191.772 448.496 191.452C448.752 191.132 448.88 190.66 448.88 190.036C448.88 189.42 448.752 188.952 448.496 188.632C448.24 188.304 447.872 188.14 447.392 188.14C446.912 188.14 446.54 188.304 446.276 188.632C446.02 188.952 445.892 189.42 445.892 190.036C445.892 190.66 446.02 191.132 446.276 191.452C446.532 191.772 446.9 191.932 447.38 191.932ZM452.362 193.072C452.146 193.072 451.966 193.012 451.822 192.892C451.686 192.764 451.618 192.584 451.618 192.352V185.188C451.618 184.956 451.686 184.78 451.822 184.66C451.966 184.54 452.146 184.48 452.362 184.48C452.578 184.48 452.758 184.54 452.902 184.66C453.046 184.78 453.118 184.956 453.118 185.188V192.352C453.118 192.584 453.046 192.764 452.902 192.892C452.758 193.012 452.578 193.072 452.362 193.072ZM455.409 193.072C455.193 193.072 455.013 193.012 454.869 192.892C454.733 192.764 454.665 192.584 454.665 192.352V187.72C454.665 187.488 454.733 187.312 454.869 187.192C455.013 187.072 455.193 187.012 455.409 187.012C455.625 187.012 455.805 187.072 455.949 187.192C456.093 187.312 456.165 187.488 456.165 187.72V192.352C456.165 192.584 456.093 192.764 455.949 192.892C455.805 193.012 455.625 193.072 455.409 193.072ZM455.409 185.944C455.137 185.944 454.921 185.872 454.761 185.728C454.601 185.576 454.521 185.38 454.521 185.14C454.521 184.9 454.601 184.708 454.761 184.564C454.921 184.42 455.137 184.348 455.409 184.348C455.673 184.348 455.885 184.42 456.045 184.564C456.213 184.708 456.297 184.9 456.297 185.14C456.297 185.38 456.217 185.576 456.057 185.728C455.897 185.872 455.681 185.944 455.409 185.944ZM459.836 193.096C458.964 193.096 458.26 192.924 457.724 192.58C457.468 192.428 457.34 192.212 457.34 191.932C457.34 191.772 457.384 191.644 457.472 191.548C457.56 191.444 457.668 191.392 457.796 191.392C457.932 191.392 458.12 191.456 458.36 191.584C458.616 191.704 458.848 191.796 459.056 191.86C459.272 191.924 459.544 191.956 459.872 191.956C460.208 191.956 460.468 191.9 460.652 191.788C460.844 191.676 460.94 191.52 460.94 191.32C460.94 191.184 460.9 191.076 460.82 190.996C460.748 190.916 460.612 190.844 460.412 190.78C460.22 190.708 459.924 190.628 459.524 190.54C458.812 190.396 458.3 190.192 457.988 189.928C457.684 189.664 457.532 189.3 457.532 188.836C457.532 188.484 457.636 188.168 457.844 187.888C458.052 187.6 458.336 187.38 458.696 187.228C459.064 187.068 459.48 186.988 459.944 186.988C460.28 186.988 460.604 187.032 460.916 187.12C461.228 187.2 461.508 187.32 461.756 187.48C462.012 187.64 462.14 187.852 462.14 188.116C462.14 188.276 462.096 188.412 462.008 188.524C461.92 188.628 461.812 188.68 461.684 188.68C461.596 188.68 461.508 188.664 461.42 188.632C461.34 188.592 461.236 188.536 461.108 188.464C460.876 188.344 460.676 188.256 460.508 188.2C460.34 188.136 460.132 188.104 459.884 188.104C459.588 188.104 459.352 188.164 459.176 188.284C459.008 188.404 458.924 188.568 458.924 188.776C458.924 188.976 459.012 189.128 459.188 189.232C459.364 189.336 459.704 189.44 460.208 189.544C460.744 189.656 461.164 189.784 461.468 189.928C461.772 190.072 461.988 190.252 462.116 190.468C462.252 190.684 462.32 190.96 462.32 191.296C462.32 191.84 462.092 192.276 461.636 192.604C461.188 192.932 460.588 193.096 459.836 193.096ZM466.968 186.988C468.344 186.988 469.032 187.792 469.032 189.4V192.352C469.032 192.576 468.964 192.752 468.828 192.88C468.7 193.008 468.52 193.072 468.288 193.072C468.056 193.072 467.872 193.008 467.736 192.88C467.6 192.752 467.532 192.576 467.532 192.352V189.4C467.532 188.976 467.444 188.668 467.268 188.476C467.1 188.276 466.832 188.176 466.464 188.176C466.032 188.176 465.684 188.312 465.42 188.584C465.164 188.856 465.036 189.22 465.036 189.676V192.352C465.036 192.576 464.968 192.752 464.832 192.88C464.696 193.008 464.512 193.072 464.28 193.072C464.048 193.072 463.864 193.008 463.728 192.88C463.6 192.752 463.536 192.576 463.536 192.352V185.176C463.536 184.968 463.604 184.8 463.74 184.672C463.884 184.544 464.068 184.48 464.292 184.48C464.516 184.48 464.696 184.54 464.832 184.66C464.968 184.78 465.036 184.944 465.036 185.152V187.948C465.236 187.636 465.5 187.4 465.828 187.24C466.164 187.072 466.544 186.988 466.968 186.988Z" fill="#6772E5"/>
<rect x="393" y="238" width="120" height="64" rx="6" fill="#6772E5" fill-opacity="0.4"/>
<rect x="403" y="248" width="100" height="8" rx="4" fill="white" fill-opacity="0.7"/>
<rect x="403" y="266" width="100" height="8" rx="4" fill="white" fill-opacity="0.7"/>
<rect x="403" y="284" width="100" height="8" rx="4" fill="white" fill-opacity="0.7"/>
<g filter="url(#filter1_d)">
<rect x="24" y="162" width="150" height="140" rx="12" fill="white"/>
</g>
<path d="M57.9847 189.028C58.0807 189.172 58.1287 189.312 58.1287 189.448C58.1287 189.632 58.0527 189.784 57.9007 189.904C57.7567 190.024 57.5847 190.084 57.3847 190.084C57.2567 190.084 57.1327 190.056 57.0127 190C56.9007 189.936 56.8047 189.844 56.7247 189.724L55.1287 187.3C54.9687 187.044 54.7967 186.864 54.6127 186.76C54.4367 186.656 54.2047 186.604 53.9167 186.604H52.7407V189.292C52.7407 189.532 52.6727 189.724 52.5367 189.868C52.4007 190.004 52.2167 190.072 51.9847 190.072C51.7527 190.072 51.5647 190.004 51.4207 189.868C51.2847 189.724 51.2167 189.532 51.2167 189.292V182.272C51.2167 182.04 51.2807 181.86 51.4087 181.732C51.5447 181.604 51.7287 181.54 51.9607 181.54H54.9607C55.9207 181.54 56.6487 181.756 57.1447 182.188C57.6487 182.612 57.9007 183.228 57.9007 184.036C57.9007 184.692 57.7127 185.232 57.3367 185.656C56.9687 186.072 56.4447 186.34 55.7647 186.46C55.9967 186.516 56.2007 186.616 56.3767 186.76C56.5527 186.904 56.7247 187.104 56.8927 187.36L57.9847 189.028ZM54.7447 185.416C55.3287 185.416 55.7567 185.308 56.0287 185.092C56.3007 184.868 56.4367 184.528 56.4367 184.072C56.4367 183.608 56.3007 183.272 56.0287 183.064C55.7567 182.848 55.3287 182.74 54.7447 182.74H52.7287V185.416H54.7447ZM64.0724 188.392C64.2084 188.392 64.3164 188.444 64.3964 188.548C64.4844 188.652 64.5284 188.792 64.5284 188.968C64.5284 189.216 64.3804 189.424 64.0844 189.592C63.8124 189.744 63.5044 189.868 63.1604 189.964C62.8164 190.052 62.4884 190.096 62.1764 190.096C61.2324 190.096 60.4844 189.824 59.9324 189.28C59.3804 188.736 59.1044 187.992 59.1044 187.048C59.1044 186.448 59.2244 185.916 59.4644 185.452C59.7044 184.988 60.0404 184.628 60.4724 184.372C60.9124 184.116 61.4084 183.988 61.9604 183.988C62.4884 183.988 62.9484 184.104 63.3404 184.336C63.7324 184.568 64.0364 184.896 64.2524 185.32C64.4684 185.744 64.5764 186.244 64.5764 186.82C64.5764 187.164 64.4244 187.336 64.1204 187.336H60.5804C60.6284 187.888 60.7844 188.296 61.0484 188.56C61.3124 188.816 61.6964 188.944 62.2004 188.944C62.4564 188.944 62.6804 188.912 62.8724 188.848C63.0724 188.784 63.2964 188.696 63.5444 188.584C63.7844 188.456 63.9604 188.392 64.0724 188.392ZM61.9964 185.044C61.5884 185.044 61.2604 185.172 61.0124 185.428C60.7724 185.684 60.6284 186.052 60.5804 186.532H63.2924C63.2764 186.044 63.1564 185.676 62.9324 185.428C62.7084 185.172 62.3964 185.044 61.9964 185.044ZM69.2114 183.988C69.9154 183.988 70.4394 184.188 70.7834 184.588C71.1274 184.988 71.2994 185.592 71.2994 186.4V189.352C71.2994 189.576 71.2314 189.752 71.0954 189.88C70.9674 190.008 70.7874 190.072 70.5554 190.072C70.3234 190.072 70.1394 190.008 70.0034 189.88C69.8674 189.752 69.7994 189.576 69.7994 189.352V186.484C69.7994 186.028 69.7114 185.696 69.5354 185.488C69.3674 185.28 69.0994 185.176 68.7314 185.176C68.2994 185.176 67.9514 185.312 67.6874 185.584C67.4314 185.856 67.3034 186.22 67.3034 186.676V189.352C67.3034 189.576 67.2354 189.752 67.0994 189.88C66.9634 190.008 66.7794 190.072 66.5474 190.072C66.3154 190.072 66.1314 190.008 65.9954 189.88C65.8674 189.752 65.8034 189.576 65.8034 189.352V184.708C65.8034 184.5 65.8714 184.332 66.0074 184.204C66.1434 184.076 66.3274 184.012 66.5594 184.012C66.7674 184.012 66.9354 184.076 67.0634 184.204C67.1994 184.324 67.2674 184.484 67.2674 184.684V185.008C67.4674 184.68 67.7354 184.428 68.0714 184.252C68.4074 184.076 68.7874 183.988 69.2114 183.988ZM75.871 188.956C76.271 188.98 76.471 189.16 76.471 189.496C76.471 189.688 76.391 189.836 76.231 189.94C76.079 190.036 75.859 190.076 75.571 190.06L75.247 190.036C73.903 189.94 73.231 189.22 73.231 187.876V185.26H72.631C72.415 185.26 72.247 185.212 72.127 185.116C72.015 185.02 71.959 184.88 71.959 184.696C71.959 184.512 72.015 184.372 72.127 184.276C72.247 184.18 72.415 184.132 72.631 184.132H73.231V183.028C73.231 182.812 73.299 182.64 73.435 182.512C73.571 182.384 73.755 182.32 73.987 182.32C74.211 182.32 74.391 182.384 74.527 182.512C74.663 182.64 74.731 182.812 74.731 183.028V184.132H75.751C75.967 184.132 76.131 184.18 76.243 184.276C76.363 184.372 76.423 184.512 76.423 184.696C76.423 184.88 76.363 185.02 76.243 185.116C76.131 185.212 75.967 185.26 75.751 185.26H74.731V187.984C74.731 188.576 75.003 188.892 75.547 188.932L75.871 188.956ZM79.7967 183.988C80.6127 183.988 81.2167 184.192 81.6087 184.6C82.0087 185 82.2087 185.612 82.2087 186.436V189.364C82.2087 189.58 82.1447 189.752 82.0167 189.88C81.8887 190 81.7127 190.06 81.4887 190.06C81.2807 190.06 81.1087 189.996 80.9727 189.868C80.8447 189.74 80.7807 189.572 80.7807 189.364V189.1C80.6447 189.412 80.4287 189.656 80.1327 189.832C79.8447 190.008 79.5087 190.096 79.1247 190.096C78.7327 190.096 78.3767 190.016 78.0567 189.856C77.7367 189.696 77.4847 189.476 77.3007 189.196C77.1167 188.916 77.0247 188.604 77.0247 188.26C77.0247 187.828 77.1327 187.488 77.3487 187.24C77.5727 186.992 77.9327 186.812 78.4287 186.7C78.9247 186.588 79.6087 186.532 80.4807 186.532H80.7807V186.256C80.7807 185.864 80.6967 185.58 80.5287 185.404C80.3607 185.22 80.0887 185.128 79.7127 185.128C79.4807 185.128 79.2447 185.164 79.0047 185.236C78.7647 185.3 78.4807 185.396 78.1527 185.524C77.9447 185.628 77.7927 185.68 77.6967 185.68C77.5527 185.68 77.4327 185.628 77.3367 185.524C77.2487 185.42 77.2047 185.284 77.2047 185.116C77.2047 184.98 77.2367 184.864 77.3007 184.768C77.3727 184.664 77.4887 184.568 77.6487 184.48C77.9287 184.328 78.2607 184.208 78.6447 184.12C79.0367 184.032 79.4207 183.988 79.7967 183.988ZM79.4247 189.016C79.8247 189.016 80.1487 188.884 80.3967 188.62C80.6527 188.348 80.7807 188 80.7807 187.576V187.324H80.5647C80.0287 187.324 79.6127 187.348 79.3167 187.396C79.0207 187.444 78.8087 187.528 78.6807 187.648C78.5527 187.768 78.4887 187.932 78.4887 188.14C78.4887 188.396 78.5767 188.608 78.7527 188.776C78.9367 188.936 79.1607 189.016 79.4247 189.016ZM84.4771 190.072C84.2611 190.072 84.0811 190.012 83.9371 189.892C83.8011 189.764 83.7331 189.584 83.7331 189.352V182.188C83.7331 181.956 83.8011 181.78 83.9371 181.66C84.0811 181.54 84.2611 181.48 84.4771 181.48C84.6931 181.48 84.8731 181.54 85.0171 181.66C85.1611 181.78 85.2331 181.956 85.2331 182.188V189.352C85.2331 189.584 85.1611 189.764 85.0171 189.892C84.8731 190.012 84.6931 190.072 84.4771 190.072ZM97.8378 189.076C97.8858 189.18 97.9098 189.284 97.9098 189.388C97.9098 189.572 97.8338 189.728 97.6818 189.856C97.5378 189.984 97.3698 190.048 97.1778 190.048C97.0498 190.048 96.9298 190.016 96.8178 189.952C96.7058 189.88 96.6178 189.772 96.5538 189.628L95.8338 188.02H91.6098L90.8898 189.628C90.8258 189.772 90.7378 189.88 90.6258 189.952C90.5138 190.016 90.3898 190.048 90.2538 190.048C90.0698 190.048 89.9018 189.984 89.7498 189.856C89.5978 189.728 89.5218 189.572 89.5218 189.388C89.5218 189.284 89.5458 189.18 89.5938 189.076L92.9058 181.96C92.9778 181.8 93.0858 181.68 93.2298 181.6C93.3818 181.512 93.5418 181.468 93.7098 181.468C93.8778 181.468 94.0338 181.512 94.1778 181.6C94.3298 181.68 94.4418 181.8 94.5138 181.96L97.8378 189.076ZM92.1378 186.82H95.3058L93.7218 183.256L92.1378 186.82ZM100.974 190.096C100.102 190.096 99.3983 189.924 98.8623 189.58C98.6063 189.428 98.4783 189.212 98.4783 188.932C98.4783 188.772 98.5223 188.644 98.6103 188.548C98.6983 188.444 98.8063 188.392 98.9343 188.392C99.0703 188.392 99.2583 188.456 99.4983 188.584C99.7543 188.704 99.9863 188.796 100.194 188.86C100.41 188.924 100.682 188.956 101.01 188.956C101.346 188.956 101.606 188.9 101.79 188.788C101.982 188.676 102.078 188.52 102.078 188.32C102.078 188.184 102.038 188.076 101.958 187.996C101.886 187.916 101.75 187.844 101.55 187.78C101.358 187.708 101.062 187.628 100.662 187.54C99.9503 187.396 99.4383 187.192 99.1263 186.928C98.8223 186.664 98.6703 186.3 98.6703 185.836C98.6703 185.484 98.7743 185.168 98.9823 184.888C99.1903 184.6 99.4743 184.38 99.8343 184.228C100.202 184.068 100.618 183.988 101.082 183.988C101.418 183.988 101.742 184.032 102.054 184.12C102.366 184.2 102.646 184.32 102.894 184.48C103.15 184.64 103.278 184.852 103.278 185.116C103.278 185.276 103.234 185.412 103.146 185.524C103.058 185.628 102.95 185.68 102.822 185.68C102.734 185.68 102.646 185.664 102.558 185.632C102.478 185.592 102.374 185.536 102.246 185.464C102.014 185.344 101.814 185.256 101.646 185.2C101.478 185.136 101.27 185.104 101.022 185.104C100.726 185.104 100.49 185.164 100.314 185.284C100.146 185.404 100.062 185.568 100.062 185.776C100.062 185.976 100.15 186.128 100.326 186.232C100.502 186.336 100.842 186.44 101.346 186.544C101.882 186.656 102.302 186.784 102.606 186.928C102.91 187.072 103.126 187.252 103.254 187.468C103.39 187.684 103.458 187.96 103.458 188.296C103.458 188.84 103.23 189.276 102.774 189.604C102.326 189.932 101.726 190.096 100.974 190.096ZM106.799 190.096C105.927 190.096 105.223 189.924 104.687 189.58C104.431 189.428 104.303 189.212 104.303 188.932C104.303 188.772 104.347 188.644 104.435 188.548C104.523 188.444 104.631 188.392 104.759 188.392C104.895 188.392 105.083 188.456 105.323 188.584C105.579 188.704 105.811 188.796 106.019 188.86C106.235 188.924 106.507 188.956 106.835 188.956C107.171 188.956 107.431 188.9 107.615 188.788C107.807 188.676 107.903 188.52 107.903 188.32C107.903 188.184 107.863 188.076 107.783 187.996C107.711 187.916 107.575 187.844 107.375 187.78C107.183 187.708 106.887 187.628 106.487 187.54C105.775 187.396 105.263 187.192 104.951 186.928C104.647 186.664 104.495 186.3 104.495 185.836C104.495 185.484 104.599 185.168 104.807 184.888C105.015 184.6 105.299 184.38 105.659 184.228C106.027 184.068 106.443 183.988 106.907 183.988C107.243 183.988 107.567 184.032 107.879 184.12C108.191 184.2 108.471 184.32 108.719 184.48C108.975 184.64 109.103 184.852 109.103 185.116C109.103 185.276 109.059 185.412 108.971 185.524C108.883 185.628 108.775 185.68 108.647 185.68C108.559 185.68 108.471 185.664 108.383 185.632C108.303 185.592 108.199 185.536 108.071 185.464C107.839 185.344 107.639 185.256 107.471 185.2C107.303 185.136 107.095 185.104 106.847 185.104C106.551 185.104 106.315 185.164 106.139 185.284C105.971 185.404 105.887 185.568 105.887 185.776C105.887 185.976 105.975 186.128 106.151 186.232C106.327 186.336 106.667 186.44 107.171 186.544C107.707 186.656 108.127 186.784 108.431 186.928C108.735 187.072 108.951 187.252 109.079 187.468C109.215 187.684 109.283 187.96 109.283 188.296C109.283 188.84 109.055 189.276 108.599 189.604C108.151 189.932 107.551 190.096 106.799 190.096ZM111.243 190.072C111.027 190.072 110.847 190.012 110.703 189.892C110.567 189.764 110.499 189.584 110.499 189.352V184.72C110.499 184.488 110.567 184.312 110.703 184.192C110.847 184.072 111.027 184.012 111.243 184.012C111.459 184.012 111.639 184.072 111.783 184.192C111.927 184.312 111.999 184.488 111.999 184.72V189.352C111.999 189.584 111.927 189.764 111.783 189.892C111.639 190.012 111.459 190.072 111.243 190.072ZM111.243 182.944C110.971 182.944 110.755 182.872 110.595 182.728C110.435 182.576 110.355 182.38 110.355 182.14C110.355 181.9 110.435 181.708 110.595 181.564C110.755 181.42 110.971 181.348 111.243 181.348C111.507 181.348 111.719 181.42 111.879 181.564C112.047 181.708 112.131 181.9 112.131 182.14C112.131 182.38 112.051 182.576 111.891 182.728C111.731 182.872 111.515 182.944 111.243 182.944ZM115.67 190.096C114.798 190.096 114.094 189.924 113.558 189.58C113.302 189.428 113.174 189.212 113.174 188.932C113.174 188.772 113.218 188.644 113.306 188.548C113.394 188.444 113.502 188.392 113.63 188.392C113.766 188.392 113.954 188.456 114.194 188.584C114.45 188.704 114.682 188.796 114.89 188.86C115.106 188.924 115.378 188.956 115.706 188.956C116.042 188.956 116.302 188.9 116.486 188.788C116.678 188.676 116.774 188.52 116.774 188.32C116.774 188.184 116.734 188.076 116.654 187.996C116.582 187.916 116.446 187.844 116.246 187.78C116.054 187.708 115.758 187.628 115.358 187.54C114.646 187.396 114.134 187.192 113.822 186.928C113.518 186.664 113.366 186.3 113.366 185.836C113.366 185.484 113.47 185.168 113.678 184.888C113.886 184.6 114.17 184.38 114.53 184.228C114.898 184.068 115.314 183.988 115.778 183.988C116.114 183.988 116.438 184.032 116.75 184.12C117.062 184.2 117.342 184.32 117.59 184.48C117.846 184.64 117.974 184.852 117.974 185.116C117.974 185.276 117.93 185.412 117.842 185.524C117.754 185.628 117.646 185.68 117.518 185.68C117.43 185.68 117.342 185.664 117.254 185.632C117.174 185.592 117.07 185.536 116.942 185.464C116.71 185.344 116.51 185.256 116.342 185.2C116.174 185.136 115.966 185.104 115.718 185.104C115.422 185.104 115.186 185.164 115.01 185.284C114.842 185.404 114.758 185.568 114.758 185.776C114.758 185.976 114.846 186.128 115.022 186.232C115.198 186.336 115.538 186.44 116.042 186.544C116.578 186.656 116.998 186.784 117.302 186.928C117.606 187.072 117.822 187.252 117.95 187.468C118.086 187.684 118.154 187.96 118.154 188.296C118.154 188.84 117.926 189.276 117.47 189.604C117.022 189.932 116.422 190.096 115.67 190.096ZM122.359 188.956C122.759 188.98 122.959 189.16 122.959 189.496C122.959 189.688 122.879 189.836 122.719 189.94C122.567 190.036 122.347 190.076 122.059 190.06L121.735 190.036C120.391 189.94 119.719 189.22 119.719 187.876V185.26H119.119C118.903 185.26 118.735 185.212 118.615 185.116C118.503 185.02 118.447 184.88 118.447 184.696C118.447 184.512 118.503 184.372 118.615 184.276C118.735 184.18 118.903 184.132 119.119 184.132H119.719V183.028C119.719 182.812 119.787 182.64 119.923 182.512C120.059 182.384 120.243 182.32 120.475 182.32C120.699 182.32 120.879 182.384 121.015 182.512C121.151 182.64 121.219 182.812 121.219 183.028V184.132H122.239C122.455 184.132 122.619 184.18 122.731 184.276C122.851 184.372 122.911 184.512 122.911 184.696C122.911 184.88 122.851 185.02 122.731 185.116C122.619 185.212 122.455 185.26 122.239 185.26H121.219V187.984C121.219 188.576 121.491 188.892 122.035 188.932L122.359 188.956ZM126.285 183.988C127.101 183.988 127.705 184.192 128.097 184.6C128.497 185 128.697 185.612 128.697 186.436V189.364C128.697 189.58 128.633 189.752 128.505 189.88C128.377 190 128.201 190.06 127.977 190.06C127.769 190.06 127.597 189.996 127.461 189.868C127.333 189.74 127.269 189.572 127.269 189.364V189.1C127.133 189.412 126.917 189.656 126.621 189.832C126.333 190.008 125.997 190.096 125.613 190.096C125.221 190.096 124.865 190.016 124.545 189.856C124.225 189.696 123.973 189.476 123.789 189.196C123.605 188.916 123.513 188.604 123.513 188.26C123.513 187.828 123.621 187.488 123.837 187.24C124.061 186.992 124.421 186.812 124.917 186.7C125.413 186.588 126.097 186.532 126.969 186.532H127.269V186.256C127.269 185.864 127.185 185.58 127.017 185.404C126.849 185.22 126.577 185.128 126.201 185.128C125.969 185.128 125.733 185.164 125.493 185.236C125.253 185.3 124.969 185.396 124.641 185.524C124.433 185.628 124.281 185.68 124.185 185.68C124.041 185.68 123.921 185.628 123.825 185.524C123.737 185.42 123.693 185.284 123.693 185.116C123.693 184.98 123.725 184.864 123.789 184.768C123.861 184.664 123.977 184.568 124.137 184.48C124.417 184.328 124.749 184.208 125.133 184.12C125.525 184.032 125.909 183.988 126.285 183.988ZM125.913 189.016C126.313 189.016 126.637 188.884 126.885 188.62C127.141 188.348 127.269 188 127.269 187.576V187.324H127.053C126.517 187.324 126.101 187.348 125.805 187.396C125.509 187.444 125.297 187.528 125.169 187.648C125.041 187.768 124.977 187.932 124.977 188.14C124.977 188.396 125.065 188.608 125.241 188.776C125.425 188.936 125.649 189.016 125.913 189.016ZM133.629 183.988C134.333 183.988 134.857 184.188 135.201 184.588C135.545 184.988 135.717 185.592 135.717 186.4V189.352C135.717 189.576 135.649 189.752 135.513 189.88C135.385 190.008 135.205 190.072 134.973 190.072C134.741 190.072 134.557 190.008 134.421 189.88C134.285 189.752 134.217 189.576 134.217 189.352V186.484C134.217 186.028 134.129 185.696 133.953 185.488C133.785 185.28 133.517 185.176 133.149 185.176C132.717 185.176 132.369 185.312 132.105 185.584C131.849 185.856 131.721 186.22 131.721 186.676V189.352C131.721 189.576 131.653 189.752 131.517 189.88C131.381 190.008 131.197 190.072 130.965 190.072C130.733 190.072 130.549 190.008 130.413 189.88C130.285 189.752 130.221 189.576 130.221 189.352V184.708C130.221 184.5 130.289 184.332 130.425 184.204C130.561 184.076 130.745 184.012 130.977 184.012C131.185 184.012 131.353 184.076 131.481 184.204C131.617 184.324 131.685 184.484 131.685 184.684V185.008C131.885 184.68 132.153 184.428 132.489 184.252C132.825 184.076 133.205 183.988 133.629 183.988ZM139.845 190.096C139.261 190.096 138.745 189.972 138.297 189.724C137.857 189.476 137.517 189.124 137.277 188.668C137.037 188.212 136.917 187.68 136.917 187.072C136.917 186.464 137.041 185.928 137.289 185.464C137.545 184.992 137.901 184.628 138.357 184.372C138.813 184.116 139.337 183.988 139.929 183.988C140.241 183.988 140.553 184.032 140.865 184.12C141.185 184.208 141.465 184.328 141.705 184.48C141.961 184.648 142.089 184.86 142.089 185.116C142.089 185.292 142.045 185.436 141.957 185.548C141.877 185.652 141.769 185.704 141.633 185.704C141.545 185.704 141.453 185.684 141.357 185.644C141.261 185.604 141.165 185.556 141.069 185.5C140.893 185.396 140.725 185.316 140.565 185.26C140.405 185.196 140.221 185.164 140.013 185.164C139.517 185.164 139.133 185.328 138.861 185.656C138.597 185.976 138.465 186.44 138.465 187.048C138.465 187.648 138.597 188.112 138.861 188.44C139.133 188.76 139.517 188.92 140.013 188.92C140.213 188.92 140.389 188.892 140.541 188.836C140.701 188.772 140.877 188.688 141.069 188.584C141.189 188.512 141.293 188.46 141.381 188.428C141.469 188.388 141.557 188.368 141.645 188.368C141.773 188.368 141.881 188.424 141.969 188.536C142.057 188.648 142.101 188.788 142.101 188.956C142.101 189.092 142.069 189.212 142.005 189.316C141.949 189.412 141.853 189.5 141.717 189.58C141.469 189.74 141.181 189.868 140.853 189.964C140.525 190.052 140.189 190.096 139.845 190.096ZM147.744 188.392C147.88 188.392 147.988 188.444 148.068 188.548C148.156 188.652 148.2 188.792 148.2 188.968C148.2 189.216 148.052 189.424 147.756 189.592C147.484 189.744 147.176 189.868 146.832 189.964C146.488 190.052 146.16 190.096 145.848 190.096C144.904 190.096 144.156 189.824 143.604 189.28C143.052 188.736 142.776 187.992 142.776 187.048C142.776 186.448 142.896 185.916 143.136 185.452C143.376 184.988 143.712 184.628 144.144 184.372C144.584 184.116 145.08 183.988 145.632 183.988C146.16 183.988 146.62 184.104 147.012 184.336C147.404 184.568 147.708 184.896 147.924 185.32C148.14 185.744 148.248 186.244 148.248 186.82C148.248 187.164 148.096 187.336 147.792 187.336H144.252C144.3 187.888 144.456 188.296 144.72 188.56C144.984 188.816 145.368 188.944 145.872 188.944C146.128 188.944 146.352 188.912 146.544 188.848C146.744 188.784 146.968 188.696 147.216 188.584C147.456 188.456 147.632 188.392 147.744 188.392ZM145.668 185.044C145.26 185.044 144.932 185.172 144.684 185.428C144.444 185.684 144.3 186.052 144.252 186.532H146.964C146.948 186.044 146.828 185.676 146.604 185.428C146.38 185.172 146.068 185.044 145.668 185.044Z" fill="#6772E5"/>
<rect x="41" y="207" width="38" height="18" rx="5" stroke="#D7DEE2" stroke-width="2"/>
<rect x="91" y="207" width="66" height="18" rx="5" stroke="#D7DEE2" stroke-width="2"/>
<rect x="41" y="237" width="116" height="18" rx="5" stroke="#D7DEE2" stroke-width="2"/>
<rect x="40" y="266" width="118" height="20" rx="6" fill="#6772E5"/>
<path d="M76.2509 275.632C76.7389 275.768 77.1149 276.016 77.3789 276.376C77.6509 276.736 77.7869 277.176 77.7869 277.696C77.7869 278.416 77.5269 278.98 77.0069 279.388C76.4949 279.796 75.7869 280 74.8829 280H71.7869C71.5549 280 71.3709 279.936 71.2349 279.808C71.1069 279.68 71.0429 279.5 71.0429 279.268V272.272C71.0429 272.04 71.1069 271.86 71.2349 271.732C71.3709 271.604 71.5549 271.54 71.7869 271.54H74.7629C75.6429 271.54 76.3309 271.736 76.8269 272.128C77.3309 272.512 77.5829 273.052 77.5829 273.748C77.5829 274.196 77.4629 274.584 77.2229 274.912C76.9909 275.24 76.6669 275.48 76.2509 275.632ZM72.5549 275.104H74.5109C75.5749 275.104 76.1069 274.708 76.1069 273.916C76.1069 273.516 75.9749 273.22 75.7109 273.028C75.4469 272.836 75.0469 272.74 74.5109 272.74H72.5549V275.104ZM74.7149 278.8C75.2749 278.8 75.6829 278.7 75.9389 278.5C76.1949 278.3 76.3229 277.988 76.3229 277.564C76.3229 277.14 76.1909 276.824 75.9269 276.616C75.6709 276.408 75.2669 276.304 74.7149 276.304H72.5549V278.8H74.7149ZM81.7783 280.096C81.1783 280.096 80.6503 279.972 80.1943 279.724C79.7463 279.476 79.3983 279.12 79.1503 278.656C78.9023 278.192 78.7783 277.652 78.7783 277.036C78.7783 276.42 78.9023 275.884 79.1503 275.428C79.3983 274.964 79.7463 274.608 80.1943 274.36C80.6503 274.112 81.1783 273.988 81.7783 273.988C82.3783 273.988 82.9023 274.112 83.3503 274.36C83.8063 274.608 84.1543 274.964 84.3943 275.428C84.6423 275.884 84.7663 276.42 84.7663 277.036C84.7663 277.652 84.6423 278.192 84.3943 278.656C84.1543 279.12 83.8063 279.476 83.3503 279.724C82.9023 279.972 82.3783 280.096 81.7783 280.096ZM81.7663 278.932C82.2543 278.932 82.6263 278.772 82.8823 278.452C83.1383 278.132 83.2663 277.66 83.2663 277.036C83.2663 276.42 83.1383 275.952 82.8823 275.632C82.6263 275.304 82.2583 275.14 81.7783 275.14C81.2983 275.14 80.9263 275.304 80.6623 275.632C80.4063 275.952 80.2783 276.42 80.2783 277.036C80.2783 277.66 80.4063 278.132 80.6623 278.452C80.9183 278.772 81.2863 278.932 81.7663 278.932ZM88.6806 280.096C88.0806 280.096 87.5526 279.972 87.0966 279.724C86.6486 279.476 86.3006 279.12 86.0526 278.656C85.8046 278.192 85.6806 277.652 85.6806 277.036C85.6806 276.42 85.8046 275.884 86.0526 275.428C86.3006 274.964 86.6486 274.608 87.0966 274.36C87.5526 274.112 88.0806 273.988 88.6806 273.988C89.2806 273.988 89.8046 274.112 90.2526 274.36C90.7086 274.608 91.0566 274.964 91.2966 275.428C91.5446 275.884 91.6686 276.42 91.6686 277.036C91.6686 277.652 91.5446 278.192 91.2966 278.656C91.0566 279.12 90.7086 279.476 90.2526 279.724C89.8046 279.972 89.2806 280.096 88.6806 280.096ZM88.6686 278.932C89.1566 278.932 89.5286 278.772 89.7846 278.452C90.0406 278.132 90.1686 277.66 90.1686 277.036C90.1686 276.42 90.0406 275.952 89.7846 275.632C89.5286 275.304 89.1606 275.14 88.6806 275.14C88.2006 275.14 87.8286 275.304 87.5646 275.632C87.3086 275.952 87.1806 276.42 87.1806 277.036C87.1806 277.66 87.3086 278.132 87.5646 278.452C87.8206 278.772 88.1886 278.932 88.6686 278.932ZM98.127 278.836C98.287 278.988 98.367 279.16 98.367 279.352C98.367 279.536 98.299 279.7 98.163 279.844C98.035 279.988 97.883 280.06 97.707 280.06C97.531 280.06 97.367 279.988 97.215 279.844L94.407 277.3V279.352C94.407 279.584 94.335 279.76 94.191 279.88C94.047 280 93.867 280.06 93.651 280.06C93.435 280.06 93.255 280 93.111 279.88C92.975 279.76 92.907 279.584 92.907 279.352V272.188C92.907 271.956 92.975 271.78 93.111 271.66C93.255 271.54 93.435 271.48 93.651 271.48C93.867 271.48 94.047 271.54 94.191 271.66C94.335 271.78 94.407 271.956 94.407 272.188V276.7L96.975 274.24C97.119 274.096 97.283 274.024 97.467 274.024C97.651 274.024 97.811 274.092 97.947 274.228C98.083 274.364 98.151 274.524 98.151 274.708C98.151 274.892 98.075 275.06 97.923 275.212L96.039 276.964L98.127 278.836ZM109.138 271.48C109.362 271.48 109.538 271.552 109.666 271.696C109.802 271.832 109.87 272.016 109.87 272.248V279.292C109.87 279.524 109.802 279.712 109.666 279.856C109.53 280 109.354 280.072 109.138 280.072C108.882 280.072 108.686 279.98 108.55 279.796L104.17 274.096V279.292C104.17 279.524 104.106 279.712 103.978 279.856C103.85 280 103.674 280.072 103.45 280.072C103.226 280.072 103.05 280 102.922 279.856C102.794 279.712 102.73 279.524 102.73 279.292V272.248C102.73 272.016 102.798 271.832 102.934 271.696C103.07 271.552 103.25 271.48 103.474 271.48C103.722 271.48 103.914 271.572 104.05 271.756L108.418 277.432V272.248C108.418 272.016 108.482 271.832 108.61 271.696C108.746 271.552 108.922 271.48 109.138 271.48ZM114.239 280.096C113.639 280.096 113.111 279.972 112.655 279.724C112.207 279.476 111.859 279.12 111.611 278.656C111.363 278.192 111.239 277.652 111.239 277.036C111.239 276.42 111.363 275.884 111.611 275.428C111.859 274.964 112.207 274.608 112.655 274.36C113.111 274.112 113.639 273.988 114.239 273.988C114.839 273.988 115.363 274.112 115.811 274.36C116.267 274.608 116.615 274.964 116.855 275.428C117.103 275.884 117.227 276.42 117.227 277.036C117.227 277.652 117.103 278.192 116.855 278.656C116.615 279.12 116.267 279.476 115.811 279.724C115.363 279.972 114.839 280.096 114.239 280.096ZM114.227 278.932C114.715 278.932 115.087 278.772 115.343 278.452C115.599 278.132 115.727 277.66 115.727 277.036C115.727 276.42 115.599 275.952 115.343 275.632C115.087 275.304 114.719 275.14 114.239 275.14C113.759 275.14 113.387 275.304 113.123 275.632C112.867 275.952 112.739 276.42 112.739 277.036C112.739 277.66 112.867 278.132 113.123 278.452C113.379 278.772 113.747 278.932 114.227 278.932ZM126.304 274.456C126.36 274.312 126.44 274.204 126.544 274.132C126.656 274.06 126.776 274.024 126.904 274.024C127.088 274.024 127.252 274.088 127.396 274.216C127.548 274.336 127.624 274.488 127.624 274.672C127.624 274.776 127.604 274.868 127.564 274.948L125.584 279.592C125.52 279.744 125.42 279.86 125.284 279.94C125.156 280.02 125.012 280.06 124.852 280.06C124.7 280.06 124.556 280.02 124.42 279.94C124.292 279.86 124.196 279.744 124.132 279.592L122.704 276.16L121.324 279.592C121.26 279.744 121.16 279.86 121.024 279.94C120.896 280.02 120.752 280.06 120.592 280.06C120.44 280.06 120.296 280.02 120.16 279.94C120.024 279.86 119.924 279.744 119.86 279.592L117.892 274.948C117.852 274.844 117.832 274.756 117.832 274.684C117.832 274.5 117.912 274.344 118.072 274.216C118.232 274.08 118.408 274.012 118.6 274.012C118.736 274.012 118.86 274.048 118.972 274.12C119.084 274.192 119.168 274.3 119.224 274.444L120.64 278.104L122.092 274.48C122.156 274.328 122.248 274.216 122.368 274.144C122.488 274.064 122.62 274.024 122.764 274.024C122.908 274.024 123.04 274.064 123.16 274.144C123.28 274.216 123.372 274.328 123.436 274.48L124.9 278.116L126.304 274.456Z" fill="white"/>
<defs>
<filter id="filter0_d" x="99" y="0" width="478" height="352" filterUnits="userSpaceOnUse" color-interpolation-filters="sRGB">
<feFlood flood-opacity="0" result="BackgroundImageFix"/>
<feColorMatrix in="SourceAlpha" type="matrix" values="0 0 0 0 0 0 0 0 0 0 0 0 0 0 0 0 0 0 127 0"/>
<feOffset dy="6"/>
<feGaussianBlur stdDeviation="7"/>
<feColorMatrix type="matrix" values="0 0 0 0 0.403922 0 0 0 0 0.447059 0 0 0 0 0.898039 0 0 0 0.16 0"/>
<feBlend mode="normal" in2="BackgroundImageFix" result="effect1_dropShadow"/>
<feBlend mode="normal" in="SourceGraphic" in2="effect1_dropShadow" result="shape"/>
</filter>
<filter id="filter1_d" x="0" y="152" width="198" height="188" filterUnits="userSpaceOnUse" color-interpolation-filters="sRGB">
<feFlood flood-opacity="0" result="BackgroundImageFix"/>
<feColorMatrix in="SourceAlpha" type="matrix" values="0 0 0 0 0 0 0 0 0 0 0 0 0 0 0 0 0 0 127 0"/>
<feOffset dy="14"/>
<feGaussianBlur stdDeviation="12"/>
<feColorMatrix type="matrix" values="0 0 0 0 0.403922 0 0 0 0 0.447059 0 0 0 0 0.898039 0 0 0 0.2 0"/>
<feBlend mode="normal" in2="BackgroundImageFix" result="effect1_dropShadow"/>
<feBlend mode="normal" in="SourceGraphic" in2="effect1_dropShadow" result="shape"/>
</filter>
</defs>
</svg>
