<svg width="32" height="33" viewBox="0 0 32 33" fill="none" xmlns="http://www.w3.org/2000/svg">
<path d="M25.267 6.79243L27.7653 5.82304L30.8712 11.0131L28.8004 12.5742C27.7234 13.3862 27.286 14.6753 27.286 15.8529C27.286 17.0495 27.7439 18.3211 28.8092 19.1338L30.8512 20.6917L27.7447 25.8827L25.243 24.912C24.0137 24.435 22.709 24.6536 21.6627 25.2477C20.5868 25.8588 19.6448 26.9248 19.4423 28.3056L19.0904 30.7057H12.8245L12.4722 28.3024C12.2703 26.9257 11.3405 25.8662 10.2615 25.2561C9.21981 24.6672 7.90488 24.4336 6.66851 24.9133L4.17022 25.8827L1.0643 20.6927L3.13517 19.1315C4.21214 18.3195 4.64948 17.0303 4.64948 15.8529C4.64948 14.6905 4.2422 13.3934 3.15427 12.5732L1.08483 11.0131L4.19075 5.82304L6.69243 6.79375C7.92181 7.27077 9.22649 7.05215 10.2727 6.458C11.3487 5.84696 12.2907 4.78093 12.4932 3.40016L12.845 1H19.111L19.4633 3.40335C19.6652 4.78004 20.595 5.83952 21.674 6.4496C22.7157 7.03858 24.0306 7.27217 25.267 6.79243Z" stroke="#B8C0CC" stroke-width="2" stroke-linecap="round"/>
<path d="M24.4568 31.2004V31.7125C24.4568 31.8713 24.3281 32 24.1693 32H8.45667C8.29792 32 8.16922 31.8713 8.16922 31.7125V31.2004C8.16922 26.7027 11.8153 23.0566 16.313 23.0566C20.8107 23.0566 24.4568 26.7027 24.4568 31.2004Z" fill="white" stroke="#FF2E63" stroke-width="2" stroke-linecap="round"/>
<path d="M19.8803 16.1846C19.8803 18.1315 18.2886 19.7221 16.3099 19.7221C14.3312 19.7221 12.7395 18.1315 12.7395 16.1846C12.7395 14.2377 14.3312 12.6471 16.3099 12.6471C18.2886 12.6471 19.8803 14.2377 19.8803 16.1846Z" fill="white" stroke="#FF2E63" stroke-width="2"/>
</svg>
