<svg width="102" height="67" viewBox="0 0 102 67" fill="none" xmlns="http://www.w3.org/2000/svg">
<path d="M50.564 36.8789H11.7379V48.9239" stroke="#B8C0CC" stroke-width="2" stroke-linecap="round" stroke-linejoin="round"/>
<path d="M50.564 36.8789H89.437V48.9449" stroke="#B8C0CC" stroke-width="2" stroke-linecap="round" stroke-linejoin="round"/>
<path d="M79.246 49.9238H99.534C99.8615 49.9238 100.127 50.1893 100.127 50.5168V65.2698C100.127 65.5973 99.8615 65.8628 99.534 65.8628H79.246C78.9184 65.8628 78.653 65.5973 78.653 65.2698V50.5168C78.653 50.1893 78.9184 49.9238 79.246 49.9238Z" stroke="#B8C0CC" stroke-width="2" stroke-linecap="round" stroke-linejoin="round"/>
<path d="M1.593 49.9238H21.881C22.2085 49.9238 22.474 50.1893 22.474 50.5168V65.2698C22.474 65.5973 22.2085 65.8628 21.881 65.8628H1.593C1.26549 65.8628 1 65.5973 1 65.2698V50.5168C1 50.1893 1.2655 49.9238 1.593 49.9238Z" stroke="#B8C0CC" stroke-width="2" stroke-linecap="round" stroke-linejoin="round"/>
<path d="M50.564 48.6931V28.0151V48.6931Z" fill="white"/>
<path d="M50.564 48.6931V28.0151" stroke="#FF2E63" stroke-width="2" stroke-linecap="round"/>
<path d="M40.4199 49.9238H60.7079C61.0354 49.9238 61.3009 50.1893 61.3009 50.5168V65.2698C61.3009 65.5973 61.0354 65.8628 60.7079 65.8628H40.4199C40.0924 65.8628 39.8269 65.5973 39.8269 65.2698V50.5168C39.8269 50.1893 40.0924 49.9238 40.4199 49.9238Z" stroke="#B8C0CC" stroke-width="2" stroke-linecap="round" stroke-linejoin="round"/>
<path d="M65.78 1H35.347C34.0276 1 32.958 2.06959 32.958 3.389V25.52C32.958 26.8394 34.0276 27.909 35.347 27.909H65.78C67.0994 27.909 68.169 26.8394 68.169 25.52V3.389C68.169 2.06959 67.0994 1 65.78 1Z" stroke="#B8C0CC" stroke-width="2" stroke-linecap="round" stroke-linejoin="round"/>
</svg>
