<svg width="102" height="65" viewBox="0 0 102 65" fill="none" xmlns="http://www.w3.org/2000/svg">
<path d="M50.564 35.8643H11.7379V47.5685" stroke="#B8C0CC" stroke-width="2" stroke-linecap="round" stroke-linejoin="round"/>
<path d="M50.564 35.8643H89.437V47.589" stroke="#B8C0CC" stroke-width="2" stroke-linecap="round" stroke-linejoin="round"/>
<path d="M79.246 48.5684H99.534C99.8887 48.5684 100.127 48.8405 100.127 49.1163V63.452C100.127 63.7278 99.8887 63.9999 99.534 63.9999H79.246C78.8912 63.9999 78.653 63.7278 78.653 63.452V49.1163C78.653 48.8405 78.8912 48.5684 79.246 48.5684Z" fill="white" stroke="#B8C0CC" stroke-width="2" stroke-linecap="round" stroke-linejoin="round"/>
<path d="M1.593 48.5684H21.881C22.2357 48.5684 22.474 48.8405 22.474 49.1163V63.452C22.474 63.7278 22.2357 63.9999 21.881 63.9999H1.593C1.23825 63.9999 1 63.7278 1 63.452V49.1163C1 48.8405 1.23825 48.5684 1.593 48.5684Z" fill="white" stroke="#B8C0CC" stroke-width="2" stroke-linecap="round" stroke-linejoin="round"/>
<path d="M50.564 47.3441V27.251V47.3441Z" fill="white"/>
<path d="M50.564 47.3441V27.251" stroke="#6772E5" stroke-width="2" stroke-linecap="round"/>
<path d="M40.4199 48.5684H60.7079C61.0627 48.5684 61.3009 48.8405 61.3009 49.1163V63.452C61.3009 63.7278 61.0627 63.9999 60.7079 63.9999H40.4199C40.0652 63.9999 39.8269 63.7278 39.8269 63.452V49.1163C39.8269 48.8405 40.0652 48.5684 40.4199 48.5684Z" fill="white" stroke="#B8C0CC" stroke-width="2" stroke-linecap="round" stroke-linejoin="round"/>
<path d="M65.78 1H35.347C34.0276 1 32.958 2.03934 32.958 3.32142V24.8264C32.958 26.1085 34.0276 27.1479 35.347 27.1479H65.78C67.0994 27.1479 68.169 26.1085 68.169 24.8264V3.32142C68.169 2.03934 67.0994 1 65.78 1Z" fill="white" stroke="#B8C0CC" stroke-width="2" stroke-linecap="round" stroke-linejoin="round"/>
</svg>
