<svg width="57" height="64" viewBox="0 0 57 64" fill="none" xmlns="http://www.w3.org/2000/svg">
<path d="M2.72568 8.81733C2.58968 7.02882 3.74199 5.42158 5.36853 5.12738L27.2076 1.1772C27.7961 1.07075 28.399 1.07075 28.9875 1.1772L50.8266 5.12738C52.4531 5.42158 53.6054 7.02881 53.4694 8.81733C53.0693 14.0787 53.6957 19.5603 54.2979 24.8303C54.4146 25.8511 54.5303 26.864 54.6375 27.8658C55.306 34.1129 55.6443 39.9309 54.051 44.9648C52.5407 49.7363 47.83 53.7012 42.6125 56.7343C37.4432 59.7394 32.0077 61.6983 29.3913 62.5527C28.5453 62.8289 27.6498 62.8289 26.8038 62.5527C24.1874 61.6983 18.7519 59.7394 13.5826 56.7343C8.36512 53.7012 3.6544 49.7363 2.14414 44.9648C0.550775 39.9309 0.889103 34.1129 1.55758 27.8658C1.66478 26.864 1.78053 25.8512 1.89718 24.8303C2.49939 19.5604 3.12579 14.0788 2.72568 8.81733Z" fill="#FCFDFF" stroke="#6772E5" stroke-width="2"/>
<rect x="25" y="25" width="6" height="9" rx="3" fill="#FCFDFF" stroke="#6772E5" stroke-width="2"/>
<rect x="22.091" y="30.2363" width="11.8182" height="9.05455" rx="1" fill="#FCFDFF" stroke="#B8C0CC" stroke-width="2"/>
<path fill-rule="evenodd" clip-rule="evenodd" d="M28.6911 37.2273C28.6911 36.8706 28.9059 36.5563 29.1164 36.2683C29.2833 36.0399 29.382 35.7586 29.382 35.4546C29.382 34.6898 28.7649 34.0728 28.0001 34.0728C27.238 34.0728 26.6183 34.6925 26.6183 35.4546C26.6183 35.7586 26.7169 36.04 26.8839 36.2684C27.0943 36.5563 27.3092 36.8706 27.3092 37.2273V38.1453C27.3092 38.1855 27.3418 38.218 27.382 38.218H28.6183C28.6585 38.218 28.6911 38.1855 28.6911 38.1453V37.2273Z" fill="#B8C0CC"/>
<path d="M28 48C36.8366 48 44 40.8366 44 32C44 26.3832 41.1058 21.4424 36.7273 18.5875M28 16C19.1634 16 12 23.1634 12 32C12 37.9223 15.2176 43.093 20 45.8595M20 45.8595V42.1818M20 45.8595L15.6364 45.8182M36.7273 18.5875V21.8182M36.7273 18.5875H40.3636" stroke="#B8C0CC" stroke-width="2" stroke-linecap="round" stroke-linejoin="round"/>
</svg>
