<svg width="105" height="68" viewBox="0 0 105 68" fill="none" xmlns="http://www.w3.org/2000/svg">
<path d="M85.3331 41.1584C91.0996 41.1584 95.7743 36.4837 95.7743 30.7171C95.7743 24.9506 91.0996 20.2759 85.3331 20.2759C79.5666 20.2759 74.8918 24.9506 74.8918 30.7171C74.8918 36.4837 79.5666 41.1584 85.3331 41.1584Z" fill="white" stroke="#B8C0CC" stroke-width="1.88" stroke-miterlimit="10" stroke-linecap="round"/>
<path d="M19.473 41.1584C25.2396 41.1584 29.9143 36.4837 29.9143 30.7171C29.9143 24.9506 25.2396 20.2759 19.473 20.2759C13.7065 20.2759 9.0318 24.9506 9.0318 30.7171C9.0318 36.4837 13.7065 41.1584 19.473 41.1584Z" fill="white" stroke="#B8C0CC" stroke-width="1.88" stroke-miterlimit="10" stroke-linecap="round"/>
<path d="M102.803 66.8602C103.356 66.8602 103.803 66.4125 103.803 65.8602V58.9915C103.845 56.664 103.398 54.3519 102.488 52.1902C101.579 50.0284 100.225 48.0602 98.5056 46.4003C96.7864 44.7404 94.7362 43.4219 92.4746 42.522C90.213 41.6221 87.7852 41.1587 85.3329 41.1587C82.8807 41.1587 80.453 41.6221 78.1914 42.522C75.9298 43.4219 73.8795 44.7404 72.1602 46.4003C70.441 48.0602 69.0871 50.0284 68.1776 52.1902C67.268 54.3519 66.8211 56.664 66.8627 58.9915V65.8602" fill="white"/>
<path d="M103.803 58.9915V65.8602C103.803 66.4125 103.356 66.8602 102.803 66.8602H67.8627C67.3104 66.8602 66.8627 66.4125 66.8627 65.8602V58.9915C66.8211 56.664 67.268 54.3519 68.1776 52.1902C69.0871 50.0284 70.441 48.0602 72.1602 46.4003C73.8795 44.7404 75.9298 43.4219 78.1914 42.522C80.453 41.6221 82.8807 41.1587 85.3329 41.1587C87.7852 41.1587 90.213 41.6221 92.4746 42.522C94.7362 43.4219 96.7864 44.7404 98.5056 46.4003C100.225 48.0602 101.579 50.0284 102.488 52.1902C103.398 54.3519 103.845 56.664 103.803 58.9915Z" stroke="#B8C0CC" stroke-width="1.88" stroke-miterlimit="10" stroke-linecap="round"/>
<path d="M36.9433 66.8602C37.4956 66.8602 37.9433 66.4125 37.9433 65.8602V58.9915C37.9849 56.664 37.5379 54.3519 36.6283 52.1902C35.7188 50.0284 34.3649 48.0602 32.6456 46.4003C30.9264 44.7404 28.8762 43.4219 26.6146 42.522C24.353 41.6221 21.9252 41.1587 19.4729 41.1587C17.0206 41.1587 14.593 41.6221 12.3314 42.522C10.0698 43.4219 8.01948 44.7404 6.30022 46.4003C4.58097 48.0602 3.22709 50.0284 2.31754 52.1902C1.40799 54.3519 0.961093 56.664 1.00269 58.9915V65.8602" fill="white"/>
<path d="M37.9433 58.9915V65.8602C37.9433 66.4125 37.4956 66.8602 36.9433 66.8602H2.00269C1.4504 66.8602 1.00269 66.4125 1.00269 65.8602V58.9915C0.961093 56.664 1.40799 54.3519 2.31754 52.1902C3.22709 50.0284 4.58097 48.0602 6.30022 46.4003C8.01948 44.7404 10.0698 43.4219 12.3314 42.522C14.593 41.6221 17.0206 41.1587 19.4729 41.1587C21.9252 41.1587 24.353 41.6221 26.6146 42.522C28.8762 43.4219 30.9264 44.7404 32.6456 46.4003C34.3649 48.0602 35.7188 50.0284 36.6283 52.1902C37.5379 54.3519 37.9849 56.664 37.9433 58.9915Z" stroke="#B8C0CC" stroke-width="1.88" stroke-miterlimit="10" stroke-linecap="round"/>
<path d="M52.4031 29.9142C60.3876 29.9142 66.8602 23.4416 66.8602 15.4571C66.8602 7.47267 60.3876 1 52.4031 1C44.4187 1 37.946 7.47267 37.946 15.4571C37.946 23.4416 44.4187 29.9142 52.4031 29.9142Z" fill="white" stroke="#FF2E63" stroke-width="1.88" stroke-miterlimit="10" stroke-linecap="round"/>
<path d="M78.1008 66.8605V55.5492C78.1586 52.2035 77.5366 48.8798 76.2712 45.7723C75.0057 42.6647 73.1221 39.8354 70.7301 37.4493C68.338 35.0632 65.4856 33.1679 62.339 31.8743C59.1925 30.5806 55.8147 29.9146 52.4028 29.9146C48.9909 29.9146 45.6134 30.5806 42.4668 31.8743C39.3202 33.1679 36.4676 35.0632 34.0756 37.4493C31.6836 39.8354 29.7999 42.6647 28.5344 45.7723C27.269 48.8798 26.6472 52.2035 26.7051 55.5492V66.8605" fill="white"/>
<path d="M78.1008 66.8605V55.5492C78.1586 52.2035 77.5366 48.8798 76.2712 45.7723C75.0057 42.6647 73.1221 39.8354 70.7301 37.4493C68.338 35.0632 65.4856 33.1679 62.339 31.8743C59.1925 30.5806 55.8147 29.9146 52.4028 29.9146C48.9909 29.9146 45.6134 30.5806 42.4668 31.8743C39.3202 33.1679 36.4676 35.0632 34.0756 37.4493C31.6836 39.8354 29.7999 42.6647 28.5344 45.7723C27.269 48.8798 26.6472 52.2035 26.7051 55.5492V66.8605H78.1008Z" stroke="#FF2E63" stroke-width="1.88" stroke-miterlimit="10" stroke-linecap="round"/>
</svg>
