<svg width="66" height="66" viewBox="0 0 66 66" fill="none" xmlns="http://www.w3.org/2000/svg">
<path d="M32.691 64.382C50.1935 64.382 64.382 50.1935 64.382 32.691C64.382 15.1885 50.1935 1 32.691 1C15.1885 1 1 15.1885 1 32.691C1 50.1935 15.1885 64.382 32.691 64.382Z" stroke="#B8C0CC" stroke-width="2" stroke-linecap="round" stroke-linejoin="round"/>
<path d="M29.4711 23.9639L18.6461 41.4219H40.035L29.4711 23.9639Z" stroke="#FF2E63" stroke-width="2" stroke-linecap="round" stroke-linejoin="round"/>
<path d="M40.035 41.4219H45.3051L37.8781 29.147L35.3041 33.299" stroke="#FF2E63" stroke-width="2" stroke-linecap="round" stroke-linejoin="round"/>
<path d="M43.6421 25.0669C45.4193 25.0669 46.8601 23.6261 46.8601 21.8489C46.8601 20.0716 45.4193 18.6309 43.6421 18.6309C41.8648 18.6309 40.4241 20.0716 40.4241 21.8489C40.4241 23.6261 41.8648 25.0669 43.6421 25.0669Z" stroke="#FF2E63" stroke-width="2" stroke-linecap="round" stroke-linejoin="round"/>
<path d="M17.233 46.9678H47.687" stroke="#FF2E63" stroke-width="2" stroke-linecap="round" stroke-linejoin="round"/>
</svg>
