<svg width="71" height="73" viewBox="0 0 71 73" fill="none" xmlns="http://www.w3.org/2000/svg">
<g clip-path="url(#clip0)">
<mask id="path-1-inside-1" fill="white">
<path fill-rule="evenodd" clip-rule="evenodd" d="M53.384 15.0124L53.384 15.026C57.3868 16.4189 60.2546 20.1773 60.2546 24.5953C60.2546 30.1991 55.6406 34.7418 49.9488 34.7418C49.9488 34.7418 49.9488 34.7418 49.9487 34.7418H21.3215V34.7417C21.3215 34.7417 21.3215 34.7417 21.3215 34.7417C14.9973 34.7417 9.87057 29.6941 9.87057 23.4677C9.87057 19.2331 12.2418 15.5438 15.7484 13.6167C15.6486 13.158 15.5961 12.682 15.5961 12.1939C15.5961 8.45805 18.6721 5.42953 22.4666 5.42953C24.2691 5.42953 25.9094 6.11288 27.1349 7.2308C29.6982 3.42739 34.0869 0.919922 39.0704 0.919922C46.9756 0.919922 53.384 7.22934 53.384 15.0124Z"/>
</mask>
<path d="M53.384 15.026L51.384 15.0249C51.3835 15.8765 51.9224 16.635 52.7267 16.9149L53.384 15.026ZM53.384 15.0124L55.384 15.0135V15.0124H53.384ZM21.3215 34.7418H19.3215C19.3215 35.8464 20.2169 36.7418 21.3215 36.7418V34.7418ZM21.3215 34.7417H23.3215C23.3215 33.6371 22.4261 32.7417 21.3215 32.7417V34.7417ZM15.7484 13.6167L16.7116 15.3695C17.4876 14.943 17.8908 14.0571 17.7027 13.1918L15.7484 13.6167ZM27.1349 7.2308L25.7871 8.7084C26.2166 9.10021 26.7954 9.28573 27.3726 9.21663C27.9499 9.14753 28.4685 8.83066 28.7934 8.34855L27.1349 7.2308ZM55.384 15.0271L55.384 15.0135L51.384 15.0113L51.384 15.0249L55.384 15.0271ZM62.2546 24.5953C62.2546 19.2838 58.8073 14.7956 54.0413 13.1371L52.7267 16.9149C55.9663 18.0422 58.2546 21.0709 58.2546 24.5953H62.2546ZM49.9488 36.7418C56.7157 36.7418 62.2546 31.3329 62.2546 24.5953H58.2546C58.2546 29.0652 54.5655 32.7418 49.9488 32.7418V36.7418ZM49.9487 36.7418H49.9487H49.9487H49.9487H49.9487C49.9488 36.7418 49.9488 36.7418 49.9488 36.7418C49.9488 36.7418 49.9488 36.7418 49.9488 36.7418C49.9488 36.7418 49.9488 36.7418 49.9488 36.7418C49.9488 36.7418 49.9488 36.7418 49.9488 36.7418C49.9488 36.7418 49.9488 36.7418 49.9488 36.7418C49.9488 36.7418 49.9488 36.7418 49.9488 36.7418C49.9488 36.7418 49.9488 36.7418 49.9488 36.7418C49.9488 36.7418 49.9488 36.7418 49.9488 36.7418C49.9488 36.7418 49.9488 36.7418 49.9488 36.7418C49.9488 36.7418 49.9488 36.7418 49.9488 36.7418C49.9488 36.7418 49.9488 36.7418 49.9488 36.7418C49.9488 36.7418 49.9488 36.7418 49.9488 36.7418C49.9488 36.7418 49.9488 36.7418 49.9488 36.7418C49.9488 36.7418 49.9488 36.7418 49.9488 36.7418C49.9488 36.7418 49.9488 36.7418 49.9488 36.7418C49.9488 36.7418 49.9488 36.7418 49.9488 36.7418C49.9488 36.7418 49.9488 36.7418 49.9488 36.7418C49.9488 36.7418 49.9488 36.7418 49.9488 36.7418H49.9488H49.9488H49.9488H49.9488H49.9488V32.7418H49.9488H49.9488H49.9488H49.9488H49.9488C49.9488 32.7418 49.9488 32.7418 49.9488 32.7418C49.9488 32.7418 49.9488 32.7418 49.9488 32.7418C49.9488 32.7418 49.9488 32.7418 49.9488 32.7418C49.9488 32.7418 49.9488 32.7418 49.9488 32.7418C49.9488 32.7418 49.9488 32.7418 49.9488 32.7418C49.9488 32.7418 49.9488 32.7418 49.9488 32.7418C49.9488 32.7418 49.9488 32.7418 49.9488 32.7418C49.9488 32.7418 49.9488 32.7418 49.9488 32.7418C49.9488 32.7418 49.9488 32.7418 49.9488 32.7418C49.9488 32.7418 49.9488 32.7418 49.9488 32.7418C49.9488 32.7418 49.9488 32.7418 49.9488 32.7418C49.9488 32.7418 49.9488 32.7418 49.9488 32.7418C49.9488 32.7418 49.9488 32.7418 49.9488 32.7418C49.9488 32.7418 49.9488 32.7418 49.9488 32.7418C49.9488 32.7418 49.9488 32.7418 49.9488 32.7418C49.9488 32.7418 49.9488 32.7418 49.9488 32.7418C49.9488 32.7418 49.9488 32.7418 49.9488 32.7418C49.9488 32.7418 49.9488 32.7418 49.9487 32.7418H49.9487H49.9487H49.9487H49.9487V36.7418ZM49.9487 32.7418H21.3215V36.7418H49.9487V32.7418ZM23.3215 34.7418V34.7417H19.3215V34.7418H23.3215ZM21.3215 36.7417C21.3215 36.7417 21.3215 36.7417 21.3215 36.7417C21.3215 36.7417 21.3215 36.7417 21.3215 36.7417H21.3215C21.3215 36.7417 21.3215 36.7417 21.3215 36.7417C21.3215 36.7417 21.3215 36.7417 21.3215 36.7417C21.3215 36.7417 21.3215 36.7417 21.3215 36.7417H21.3215H21.3215C21.3215 36.7417 21.3215 36.7417 21.3215 36.7417C21.3215 36.7417 21.3215 36.7417 21.3215 36.7417H21.3215H21.3215C21.3215 36.7417 21.3215 36.7417 21.3215 36.7417C21.3215 36.7417 21.3215 36.7417 21.3215 36.7417C21.3215 36.7417 21.3215 36.7417 21.3215 36.7417H21.3215C21.3215 36.7417 21.3215 36.7417 21.3215 36.7417C21.3215 36.7417 21.3215 36.7417 21.3215 36.7417C21.3215 36.7417 21.3215 36.7417 21.3215 36.7417C21.3215 36.7417 21.3215 36.7417 21.3215 36.7417H21.3215C21.3215 36.7417 21.3215 36.7417 21.3215 36.7417C21.3215 36.7417 21.3215 36.7417 21.3215 36.7417C21.3215 36.7417 21.3215 36.7417 21.3215 36.7417H21.3215H21.3215C21.3215 36.7417 21.3215 36.7417 21.3215 36.7417C21.3215 36.7417 21.3215 36.7417 21.3215 36.7417H21.3215H21.3215C21.3215 36.7417 21.3215 36.7417 21.3215 36.7417C21.3215 36.7417 21.3215 36.7417 21.3215 36.7417C21.3215 36.7417 21.3215 36.7417 21.3215 36.7417H21.3215C21.3215 36.7417 21.3215 36.7417 21.3215 36.7417C21.3215 36.7417 21.3215 36.7417 21.3215 36.7417V32.7417C21.3215 32.7417 21.3215 32.7417 21.3215 32.7417C21.3215 32.7417 21.3215 32.7417 21.3215 32.7417H21.3215C21.3215 32.7417 21.3215 32.7417 21.3215 32.7417C21.3215 32.7417 21.3215 32.7417 21.3215 32.7417C21.3215 32.7417 21.3215 32.7417 21.3215 32.7417H21.3215H21.3215C21.3215 32.7417 21.3215 32.7417 21.3215 32.7417C21.3215 32.7417 21.3215 32.7417 21.3215 32.7417H21.3215H21.3215C21.3215 32.7417 21.3215 32.7417 21.3215 32.7417C21.3215 32.7417 21.3215 32.7417 21.3215 32.7417C21.3215 32.7417 21.3215 32.7417 21.3215 32.7417H21.3215C21.3215 32.7417 21.3215 32.7417 21.3215 32.7417C21.3215 32.7417 21.3215 32.7417 21.3215 32.7417C21.3215 32.7417 21.3215 32.7417 21.3215 32.7417C21.3215 32.7417 21.3215 32.7417 21.3215 32.7417H21.3215C21.3215 32.7417 21.3215 32.7417 21.3215 32.7417C21.3215 32.7417 21.3215 32.7417 21.3215 32.7417C21.3215 32.7417 21.3215 32.7417 21.3215 32.7417H21.3215H21.3215C21.3215 32.7417 21.3215 32.7417 21.3215 32.7417C21.3215 32.7417 21.3215 32.7417 21.3215 32.7417H21.3215H21.3215C21.3215 32.7417 21.3215 32.7417 21.3215 32.7417C21.3215 32.7417 21.3215 32.7417 21.3215 32.7417C21.3215 32.7417 21.3215 32.7417 21.3215 32.7417H21.3215C21.3215 32.7417 21.3215 32.7417 21.3215 32.7417C21.3215 32.7417 21.3215 32.7417 21.3215 32.7417V36.7417ZM7.87057 23.4677C7.87057 30.8279 13.9222 36.7417 21.3215 36.7417V32.7417C16.0724 32.7417 11.8706 28.5603 11.8706 23.4677H7.87057ZM14.7851 11.864C10.6749 14.1228 7.87057 18.4636 7.87057 23.4677H11.8706C11.8706 20.0027 13.8087 16.9648 16.7116 15.3695L14.7851 11.864ZM13.5961 12.1939C13.5961 12.8258 13.6641 13.4443 13.794 14.0417L17.7027 13.1918C17.6331 12.8717 17.5961 12.5381 17.5961 12.1939H13.5961ZM22.4666 3.42953C17.597 3.42953 13.5961 7.32423 13.5961 12.1939H17.5961C17.5961 9.59186 19.7472 7.42953 22.4666 7.42953V3.42953ZM28.4828 5.75321C26.9004 4.30975 24.7832 3.42953 22.4666 3.42953V7.42953C23.7549 7.42953 24.9184 7.91602 25.7871 8.7084L28.4828 5.75321ZM39.0704 -1.08008C33.4025 -1.08008 28.4006 1.77421 25.4764 6.11306L28.7934 8.34855C30.9959 5.08058 34.7713 2.91992 39.0704 2.91992V-1.08008ZM55.384 15.0124C55.384 6.09552 48.0507 -1.08008 39.0704 -1.08008V2.91992C45.9005 2.91992 51.384 8.36315 51.384 15.0124H55.384Z" fill="#B8C0CC" mask="url(#path-1-inside-1)"/>
<rect x="2.99994" y="30.2324" width="64.125" height="36.0767" rx="3" fill="white" stroke="#6772E5" stroke-width="2"/>
<path d="M28.934 66.3903L28.1919 71.9461H41.8919L41.1936 66.3091" stroke="#6772E5" stroke-width="2" stroke-miterlimit="10" stroke-linecap="round" stroke-linejoin="round"/>
<path d="M31.6272 20.0854V38.6875L27.6194 34.7416" stroke="#6772E5" stroke-width="2" stroke-linecap="round" stroke-linejoin="round"/>
<path d="M38.4978 38.6875L38.4978 20.0854L42.5056 24.0313" stroke="#6772E5" stroke-width="2" stroke-linecap="round" stroke-linejoin="round"/>
<path d="M2.99994 60.6719L67.1249 60.6719" stroke="#6772E5" stroke-width="2"/>
</g>
<defs>
<clipPath id="clip0">
<rect width="71" height="72" fill="white" transform="translate(0 0.919922)"/>
</clipPath>
</defs>
</svg>
