<svg width="602" height="373" viewBox="0 0 602 373" fill="none" xmlns="http://www.w3.org/2000/svg">
<path d="M367.133 371.559C395.128 371.559 493.28 371.559 521.275 371.559C526.073 371.559 547.83 364.88 563.515 347.822C575.825 334.438 590.913 308.886 598.311 285.819C606.703 259.659 594.322 230.538 576.959 210.96C559.921 191.743 515.836 165.556 499.852 144.093C468.263 101.659 463.483 67.4452 399.161 60.6607C362.554 56.8014 325.851 70.2647 295.123 89.3143C264.508 108.284 240.722 129.704 206.654 142.894C190.873 149.009 173.255 150.675 156.454 150.56C134.855 150.419 112.571 146.939 91.5439 153.547C64.0755 162.182 47.8546 186.58 46.2026 214.749C45.1658 232.494 37.9077 250.98 25.6585 265.263C15.9136 276.629 0.747131 296.489 0.0529785 312.111C-1.14209 338.923 19.2088 354.862 45.1921 363.471C71.0964 372.062 98.7141 371.55 125.655 371.55C152.869 371.55 180.082 371.55 207.287 371.55C250.186 371.55 293.084 371.55 335.991 371.55C346.369 371.559 356.746 371.559 367.133 371.559Z" fill="#F2F5FA"/>
<path fill-rule="evenodd" clip-rule="evenodd" d="M291.501 190.999C292.14 190.361 293.025 189.963 294 189.963C294.975 189.963 295.855 190.361 296.499 190.999C297.138 191.637 297.536 192.521 297.536 193.494C297.536 194.468 297.138 195.352 296.499 195.99C295.86 196.628 294.975 197.025 294 197.025C293.025 197.025 292.14 196.628 291.501 195.99C290.862 195.352 290.464 194.468 290.464 193.494C290.47 192.521 290.862 191.642 291.501 190.999ZM292.268 187.507C291.781 187.647 291.316 187.848 290.884 188.094C290.442 188.352 290.033 188.66 289.668 189.007C289.595 189.074 289.489 189.085 289.411 189.04L287.769 188.094L287.757 188.089C287.662 188.039 287.556 188.027 287.46 188.055C287.36 188.083 287.27 188.145 287.214 188.246L287.208 188.257L286.054 190.254C285.998 190.35 285.987 190.461 286.015 190.562C286.043 190.663 286.104 190.752 286.205 190.808L286.216 190.814L287.842 191.754C287.926 191.804 287.965 191.9 287.942 191.995C287.881 192.235 287.836 192.487 287.808 192.739C287.78 192.985 287.763 193.243 287.763 193.5C287.763 193.757 287.78 194.009 287.808 194.261C287.842 194.518 287.886 194.765 287.942 195.005C287.965 195.106 287.92 195.207 287.83 195.251L286.205 196.192C286.11 196.248 286.043 196.337 286.015 196.438C285.987 196.539 285.998 196.65 286.054 196.746L287.214 198.754C287.27 198.85 287.36 198.917 287.46 198.945C287.561 198.973 287.673 198.961 287.769 198.906L287.78 198.9L289.411 197.96C289.495 197.909 289.601 197.926 289.668 197.993C290.033 198.346 290.442 198.654 290.884 198.906C291.316 199.157 291.787 199.353 292.28 199.499C292.375 199.527 292.437 199.611 292.437 199.706V201.597C292.437 201.709 292.481 201.81 292.554 201.882C292.627 201.955 292.728 202 292.84 202H295.16C295.272 202 295.373 201.955 295.446 201.882C295.519 201.81 295.563 201.709 295.563 201.597V199.706C295.563 199.605 295.636 199.515 295.732 199.493C296.219 199.353 296.684 199.152 297.116 198.906C297.558 198.648 297.967 198.34 298.332 197.993C298.404 197.921 298.517 197.915 298.601 197.971L300.231 198.911C300.327 198.967 300.439 198.978 300.539 198.95C300.64 198.922 300.73 198.861 300.786 198.76L300.792 198.749L301.946 196.74C302.002 196.639 302.013 196.533 301.985 196.432C301.957 196.331 301.896 196.242 301.795 196.186L300.153 195.24C300.069 195.19 300.03 195.095 300.052 195C300.114 194.759 300.158 194.507 300.186 194.255C300.214 194.009 300.231 193.752 300.231 193.494C300.231 193.237 300.214 192.985 300.186 192.733C300.153 192.476 300.108 192.23 300.052 191.989C300.03 191.888 300.08 191.788 300.164 191.743L301.789 190.803C301.884 190.747 301.952 190.657 301.98 190.557C302.013 190.456 302.002 190.35 301.946 190.249L301.94 190.238L300.786 188.24C300.73 188.145 300.64 188.078 300.539 188.05C300.439 188.022 300.327 188.033 300.231 188.089L298.589 189.035C298.5 189.085 298.393 189.068 298.326 189.001C297.962 188.654 297.558 188.346 297.116 188.094C296.684 187.843 296.213 187.647 295.72 187.501C295.625 187.473 295.563 187.389 295.563 187.294V185.403C295.563 185.291 295.519 185.19 295.446 185.118C295.373 185.045 295.272 185 295.16 185H292.84C292.728 185 292.627 185.045 292.554 185.118C292.481 185.19 292.437 185.291 292.437 185.403V187.294C292.431 187.401 292.364 187.485 292.268 187.507Z" fill="#B8C0CC"/>
<path fill-rule="evenodd" clip-rule="evenodd" d="M587.876 359.057C588.674 358.307 589.781 357.839 591 357.839C592.219 357.839 593.319 358.307 594.124 359.057C594.923 359.808 595.42 360.848 595.42 361.993C595.42 363.139 594.923 364.179 594.124 364.93C593.326 365.68 592.219 366.147 591 366.147C589.781 366.147 588.674 365.68 587.876 364.93C587.077 364.179 586.58 363.139 586.58 361.993C586.587 360.848 587.077 359.814 587.876 359.057ZM588.836 354.949C588.226 355.114 587.645 355.351 587.105 355.641C586.552 355.943 586.041 356.305 585.585 356.714C585.494 356.793 585.361 356.806 585.263 356.753L583.211 355.641L583.197 355.634C583.078 355.575 582.945 355.562 582.826 355.594C582.7 355.627 582.587 355.7 582.517 355.818L582.51 355.831L581.067 358.182C580.997 358.294 580.983 358.425 581.018 358.544C581.053 358.662 581.131 358.768 581.257 358.833L581.271 358.84L583.302 359.946C583.407 360.005 583.456 360.117 583.428 360.229C583.351 360.512 583.295 360.808 583.26 361.105C583.225 361.394 583.204 361.697 583.204 362C583.204 362.303 583.225 362.599 583.26 362.895C583.302 363.198 583.358 363.488 583.428 363.771C583.456 363.889 583.4 364.008 583.288 364.061L581.257 365.167C581.138 365.232 581.053 365.338 581.018 365.456C580.983 365.575 580.997 365.706 581.067 365.818L582.517 368.182C582.587 368.294 582.7 368.373 582.826 368.406C582.952 368.438 583.092 368.425 583.211 368.359L583.225 368.353L585.263 367.247C585.368 367.188 585.501 367.207 585.585 367.286C586.041 367.701 586.552 368.063 587.105 368.359C587.645 368.656 588.233 368.886 588.85 369.057C588.969 369.09 589.046 369.189 589.046 369.301V371.526C589.046 371.658 589.102 371.776 589.193 371.862C589.284 371.947 589.41 372 589.55 372H592.45C592.59 372 592.716 371.947 592.807 371.862C592.898 371.776 592.954 371.658 592.954 371.526V369.301C592.954 369.182 593.045 369.077 593.164 369.051C593.774 368.886 594.355 368.649 594.895 368.359C595.448 368.057 595.959 367.695 596.415 367.286C596.506 367.201 596.646 367.194 596.751 367.26L598.789 368.366C598.908 368.432 599.048 368.445 599.174 368.412C599.3 368.379 599.413 368.307 599.483 368.188L599.49 368.175L600.933 365.812C601.003 365.693 601.017 365.568 600.982 365.45C600.947 365.331 600.869 365.226 600.743 365.16L598.691 364.047C598.586 363.988 598.537 363.876 598.565 363.764C598.642 363.481 598.698 363.185 598.733 362.889C598.768 362.599 598.789 362.296 598.789 361.993C598.789 361.691 598.768 361.394 598.733 361.098C598.691 360.795 598.635 360.506 598.565 360.223C598.537 360.104 598.6 359.986 598.705 359.933L600.736 358.827C600.855 358.761 600.94 358.656 600.975 358.537C601.017 358.419 601.003 358.294 600.933 358.175L600.926 358.162L599.483 355.812C599.413 355.7 599.3 355.621 599.174 355.588C599.048 355.555 598.908 355.568 598.789 355.634L596.737 356.747C596.625 356.806 596.492 356.786 596.408 356.707C595.952 356.299 595.448 355.937 594.895 355.641C594.355 355.344 593.767 355.114 593.15 354.943C593.031 354.91 592.954 354.811 592.954 354.699V352.474C592.954 352.342 592.898 352.224 592.807 352.138C592.716 352.053 592.59 352 592.45 352H589.55C589.41 352 589.284 352.053 589.193 352.138C589.102 352.224 589.046 352.342 589.046 352.474V354.699C589.039 354.824 588.955 354.923 588.836 354.949Z" fill="#ECEEF1"/>
<path fill-rule="evenodd" clip-rule="evenodd" d="M340.514 10.4741C341.099 9.88362 341.795 9.40948 342.572 9.0862C343.32 8.77155 344.14 8.59914 344.998 8.59914C345.856 8.59914 346.672 8.77155 347.419 9.0862C348.196 9.40948 348.897 9.88793 349.477 10.4741C350.062 11.0647 350.532 11.7672 350.852 12.5517C351.164 13.306 351.335 14.1336 351.335 14.9957C351.335 15.8621 351.164 16.6853 350.852 17.4397C350.532 18.2241 350.058 18.931 349.477 19.5172C348.892 20.1078 348.196 20.5819 347.419 20.9052C346.672 21.2198 345.852 21.3922 344.994 21.3922C344.135 21.3922 343.32 21.2198 342.568 20.9052C341.791 20.5819 341.091 20.1034 340.51 19.5172C339.925 18.9267 339.455 18.2241 339.135 17.4397C338.823 16.6853 338.652 15.8578 338.652 14.9914C338.652 14.125 338.823 13.3017 339.135 12.5474C339.459 11.7672 339.929 11.0647 340.514 10.4741ZM342.794 9.62931C342.094 9.92241 341.458 10.3534 340.928 10.8922C340.399 11.431 339.968 12.069 339.677 12.7759C339.395 13.4569 339.242 14.2112 339.242 14.9957C339.242 15.7845 339.395 16.5345 339.677 17.2155C339.968 17.9224 340.395 18.5647 340.928 19.0991C341.458 19.6379 342.094 20.069 342.794 20.3621C343.469 20.6465 344.216 20.8017 344.994 20.8017C345.775 20.8017 346.518 20.6465 347.193 20.3621C347.897 20.069 348.529 19.6379 349.059 19.0991C349.588 18.5603 350.02 17.9224 350.31 17.2155C350.592 16.5345 350.746 15.7802 350.746 14.9957C350.746 14.2069 350.592 13.4569 350.31 12.7759C350.02 12.069 349.593 11.4267 349.059 10.8922C348.529 10.3534 347.893 9.92241 347.193 9.62931C346.518 9.34483 345.771 9.18965 344.994 9.18965C344.216 9.19396 343.473 9.34914 342.794 9.62931ZM342.094 4.92241C341.697 5.03879 341.308 5.18103 340.924 5.34483C340.535 5.51293 340.164 5.70258 339.801 5.90948C339.434 6.125 339.084 6.35776 338.742 6.61638C338.4 6.875 338.08 7.15086 337.777 7.44827C337.67 7.55172 337.533 7.61207 337.397 7.62931C337.256 7.64655 337.111 7.61638 336.983 7.5431C336.052 7 335.074 6.46552 334.16 5.89655C334.117 5.875 334.07 5.85776 334.023 5.85345C333.972 5.84914 333.917 5.85345 333.87 5.86638C333.818 5.87931 333.767 5.90517 333.729 5.93534C333.69 5.96552 333.652 6.00862 333.626 6.05172C332.947 7.09052 332.268 8.42672 331.636 9.52586C331.611 9.57327 331.594 9.625 331.585 9.67241C331.576 9.72414 331.581 9.78017 331.598 9.8362C331.611 9.88793 331.636 9.93534 331.666 9.97845C331.696 10.0215 331.734 10.056 331.781 10.0819C332.618 10.6422 333.699 11.1983 334.587 11.7198C334.715 11.7931 334.813 11.9095 334.865 12.0388C334.882 12.0819 334.899 12.1293 334.907 12.1767L334.967 12.1983L334.903 12.4612C334.852 12.6681 334.809 12.875 334.771 13.0819C334.732 13.2845 334.702 13.4957 334.677 13.7112C334.651 13.9267 334.63 14.1379 334.617 14.3491C334.604 14.556 334.6 14.7672 334.6 14.9914C334.6 15.2155 334.604 15.431 334.617 15.6336C334.63 15.8448 334.647 16.056 334.677 16.2715C334.702 16.4914 334.736 16.7026 334.771 16.9009C334.809 17.1078 334.852 17.3147 334.903 17.5215C334.941 17.6767 334.92 17.8319 334.86 17.9655C334.801 18.0991 334.694 18.2112 334.561 18.2802L332.076 19.7284L331.781 19.9009C331.734 19.9267 331.696 19.9655 331.666 20.0043C331.636 20.0474 331.611 20.0948 331.598 20.1465C331.585 20.1983 331.581 20.2543 331.585 20.3103C331.589 20.3621 331.606 20.4095 331.636 20.4569L333.477 23.6724L333.626 23.931C333.652 23.9784 333.69 24.0172 333.729 24.0474C333.771 24.0819 333.818 24.1034 333.87 24.1164C333.921 24.1293 333.976 24.1336 334.028 24.1293C334.079 24.125 334.126 24.1078 334.173 24.0776C335.061 23.5129 336.065 22.9741 336.983 22.4397C337.115 22.3664 337.256 22.3362 337.393 22.3534C337.533 22.3707 337.666 22.431 337.773 22.5345C338.076 22.8319 338.4 23.1078 338.738 23.3664C339.075 23.625 339.429 23.8578 339.792 24.0733C340.155 24.2845 340.531 24.4741 340.924 24.6422C341.308 24.806 341.706 24.9483 342.111 25.069C342.256 25.1121 342.376 25.1983 342.457 25.3103C342.542 25.4224 342.589 25.5646 342.589 25.7155V28.9871C342.589 29.0431 342.598 29.0948 342.619 29.1422C342.641 29.1896 342.671 29.2371 342.709 29.2759C342.747 29.3146 342.79 29.3448 342.841 29.3664C342.888 29.3836 342.94 29.3965 342.995 29.3965H346.971C347.026 29.3965 347.077 29.3836 347.124 29.3664C347.176 29.3448 347.218 29.3146 347.257 29.2759C347.295 29.2371 347.325 29.194 347.346 29.1422C347.368 29.0948 347.376 29.0431 347.376 28.9871V25.7155C347.376 25.5603 347.432 25.4138 347.522 25.3017C347.611 25.1853 347.744 25.0991 347.889 25.0646C348.286 24.9483 348.675 24.8103 349.059 24.6465C349.447 24.4784 349.819 24.2888 350.182 24.0819C350.549 23.8664 350.899 23.6336 351.237 23.375C351.578 23.1164 351.899 22.8362 352.202 22.5431C352.313 22.4353 352.458 22.3707 352.603 22.3578C352.753 22.3448 352.902 22.3793 353.03 22.4655L355.806 24.0819C355.853 24.1078 355.9 24.125 355.951 24.1336C356.002 24.1422 356.058 24.1336 356.113 24.1207C356.165 24.1078 356.216 24.0819 356.254 24.0517C356.293 24.0215 356.331 23.9828 356.357 23.9353C357.014 22.7759 357.685 21.6207 358.347 20.4612C358.372 20.4138 358.389 20.3621 358.398 20.3147C358.406 20.2629 358.402 20.2069 358.385 20.1552C358.372 20.1034 358.347 20.0517 358.317 20.0129C358.287 19.9698 358.248 19.9353 358.201 19.9095L355.396 18.2759C355.268 18.2026 355.17 18.0862 355.118 17.9612C355.106 17.9267 355.093 17.8879 355.084 17.8534L355.012 17.8405L355.084 17.5388C355.135 17.3319 355.178 17.125 355.217 16.9181C355.255 16.7155 355.285 16.5043 355.311 16.2845C355.336 16.069 355.357 15.8578 355.366 15.6465C355.379 15.4397 355.383 15.2284 355.383 15.0043C355.383 14.7802 355.379 14.5647 355.366 14.3621C355.353 14.1509 355.336 13.9397 355.311 13.7241C355.285 13.5 355.251 13.2888 355.217 13.0905C355.178 12.8836 355.135 12.6767 355.084 12.4698C355.046 12.3147 355.063 12.1595 355.127 12.0259C355.187 11.8922 355.293 11.7802 355.426 11.7112L358.206 10.0905C358.253 10.0647 358.291 10.0302 358.321 9.98707C358.351 9.94396 358.377 9.89655 358.389 9.84052C358.402 9.78879 358.406 9.73276 358.402 9.68103C358.394 9.62931 358.381 9.57758 358.351 9.53448C357.672 8.51724 356.993 7.15517 356.361 6.06034C356.335 6.01293 356.297 5.97414 356.259 5.94396C356.216 5.90948 356.169 5.88793 356.118 5.875C356.066 5.86207 356.011 5.85776 355.96 5.86207C355.913 5.86638 355.861 5.88362 355.814 5.91379L353.005 7.55172C352.872 7.62931 352.723 7.65517 352.582 7.63793C352.441 7.61638 352.309 7.55172 352.202 7.44827C351.899 7.15086 351.574 6.875 351.241 6.62069C350.908 6.36638 350.553 6.13362 350.186 5.9181C349.823 5.70689 349.447 5.51724 349.055 5.34914C348.67 5.18534 348.273 5.0431 347.867 4.92241C347.722 4.87931 347.603 4.7931 347.517 4.68103C347.432 4.56896 347.385 4.42672 347.385 4.27586V1.00431C347.385 0.948276 347.376 0.896552 347.355 0.849138C347.334 0.801724 347.304 0.75431 347.265 0.715517C347.227 0.676724 347.184 0.646552 347.133 0.625C347.086 0.607759 347.035 0.594827 346.979 0.594827H343.004C342.948 0.594827 342.897 0.607759 342.85 0.625C342.799 0.646552 342.756 0.676724 342.718 0.715517C342.645 0.788793 342.598 0.892241 342.598 1V4.27155C342.598 4.42672 342.542 4.57327 342.457 4.68534C342.372 4.80172 342.244 4.88793 342.094 4.92241ZM340.698 4.79741C340.288 4.97414 339.895 5.17241 339.511 5.39655C339.122 5.625 338.75 5.875 338.392 6.14224C338.037 6.41379 337.696 6.7069 337.371 7.02155C337.358 7.03448 337.346 7.03879 337.329 7.0431C337.311 7.0431 337.294 7.0431 337.282 7.03448C336.338 6.48276 335.39 5.93534 334.45 5.38362C334.339 5.32327 334.215 5.28448 334.096 5.27155C333.972 5.25862 333.844 5.26724 333.724 5.30172C333.601 5.33621 333.481 5.39224 333.379 5.47414C333.28 5.55172 333.191 5.65086 333.127 5.76724C332.443 6.88793 331.794 8.09914 331.137 9.24138C331.068 9.35776 331.03 9.48276 331.013 9.61207C330.996 9.74569 331.004 9.875 331.038 10C331.073 10.125 331.128 10.2457 331.209 10.3491C331.286 10.4526 331.384 10.5388 331.5 10.6034C332.401 11.1681 333.383 11.7026 334.305 12.2414C334.318 12.25 334.331 12.2629 334.335 12.2759C334.344 12.2931 334.344 12.3103 334.339 12.3276L334.275 12.5905H334.28C334.25 12.7198 334.224 12.8491 334.203 12.9828C334.16 13.2112 334.126 13.431 334.1 13.6509C334.075 13.8664 334.053 14.0905 334.04 14.3233C334.028 14.556 334.019 14.7802 334.019 15C334.019 15.2198 334.028 15.4483 334.04 15.6767C334.053 15.9095 334.075 16.1336 334.1 16.3491C334.126 16.569 334.16 16.7888 334.203 17.0172C334.245 17.2414 334.292 17.4612 334.344 17.6767C334.348 17.694 334.348 17.7112 334.339 17.7284C334.331 17.7457 334.318 17.7586 334.305 17.7672C333.272 18.3233 332.226 18.9784 331.205 19.5733L331.243 19.6207L331.214 19.6595C331.132 19.7629 331.077 19.8836 331.043 20.0086C331.009 20.1336 331 20.2672 331.017 20.3965C331.034 20.5259 331.073 20.6509 331.141 20.7672L333.276 24.5043L333.314 24.4784C333.336 24.5 333.357 24.5172 333.379 24.5345C333.481 24.6164 333.601 24.6724 333.724 24.7069C333.848 24.7414 333.981 24.75 334.109 24.7328C334.233 24.7155 334.352 24.6767 334.463 24.6164C335.398 24.1164 336.359 23.5129 337.282 22.9741C337.294 22.9655 337.311 22.9655 337.329 22.9655C337.346 22.9655 337.363 22.9741 337.375 22.9871C337.696 23.3017 338.037 23.5948 338.392 23.8664C338.746 24.1379 339.118 24.3879 339.506 24.6121C339.891 24.8362 340.288 25.0388 340.702 25.2155C341.112 25.3922 341.53 25.5431 341.962 25.6638C341.979 25.6681 341.992 25.681 342.004 25.6896C342.013 25.7026 342.022 25.7198 342.022 25.7371V29.0086C342.022 29.1422 342.047 29.2715 342.098 29.3879C342.15 29.5129 342.222 29.6207 342.316 29.7112C342.406 29.8017 342.517 29.8793 342.636 29.9267C342.752 29.9784 342.88 30.0043 343.012 30.0043H346.988C347.12 30.0043 347.248 29.9784 347.364 29.9267C347.483 29.875 347.594 29.8017 347.684 29.7112C347.774 29.6207 347.846 29.5086 347.897 29.3879C347.944 29.2715 347.974 29.1422 347.974 29.0086V25.7371C347.974 25.7198 347.978 25.7026 347.991 25.6896C348 25.6767 348.017 25.6681 348.034 25.6638L348.047 25.6595C348.478 25.5345 348.897 25.3836 349.298 25.2112C349.708 25.0345 350.105 24.8362 350.485 24.6121C350.874 24.3836 351.245 24.1379 351.6 23.8664C351.954 23.5948 352.296 23.3017 352.62 22.9871C352.633 22.9741 352.65 22.9655 352.667 22.9655C352.684 22.9655 352.701 22.9698 352.718 22.9784L355.524 24.6121C355.639 24.681 355.763 24.7198 355.887 24.7371C356.015 24.7457 356.147 24.7328 356.271 24.7026C356.395 24.6681 356.515 24.6121 356.617 24.5302C356.715 24.4569 356.801 24.3578 356.865 24.2457C357.604 23.0474 358.3 21.7371 359 20.5086L358.962 20.4871C358.97 20.4569 358.974 20.4224 358.979 20.3922C358.996 20.2629 358.987 20.1293 358.953 20.0043C358.919 19.8793 358.863 19.7586 358.782 19.6552C358.705 19.5517 358.607 19.4655 358.492 19.4009L355.686 17.7629C355.673 17.7543 355.661 17.7414 355.656 17.7284C355.648 17.7112 355.648 17.694 355.652 17.6767L355.725 17.3793H355.72C355.746 17.2629 355.767 17.1422 355.793 17.0259C355.836 16.7974 355.87 16.5776 355.896 16.3578C355.921 16.1422 355.943 15.9181 355.955 15.6853C355.968 15.4526 355.977 15.2284 355.977 15.0086C355.977 14.7888 355.968 14.5603 355.955 14.3319C355.943 14.1034 355.921 13.8793 355.896 13.6595C355.87 13.444 355.836 13.2198 355.793 12.9914C355.75 12.7672 355.703 12.5474 355.652 12.3362C355.648 12.319 355.652 12.3017 355.656 12.2845C355.665 12.2672 355.678 12.2543 355.691 12.2457L358.492 10.6121C358.607 10.5431 358.705 10.4569 358.782 10.3534C358.863 10.2457 358.919 10.1293 358.953 10.0043C358.987 9.87931 358.996 9.74569 358.979 9.61638C358.962 9.49138 358.923 9.37069 358.859 9.25431C358.193 8.00431 357.424 6.74569 356.72 5.50862L356.681 5.53448C356.66 5.51293 356.639 5.49569 356.613 5.47845C356.51 5.39655 356.391 5.34052 356.267 5.30603C356.143 5.27155 356.011 5.26293 355.883 5.28017C355.755 5.29741 355.631 5.33621 355.52 5.40086L355.311 5.52155L352.706 7.03879C352.689 7.04741 352.671 7.05172 352.654 7.04741C352.637 7.0431 352.62 7.03879 352.612 7.02586L352.603 7.01724C352.283 6.7069 351.946 6.41379 351.587 6.14224C351.232 5.87069 350.861 5.625 350.477 5.40086C350.092 5.17672 349.695 4.97414 349.281 4.80172C348.871 4.625 348.452 4.47414 348.021 4.35345C348.004 4.34914 347.991 4.33621 347.978 4.32327C347.966 4.31034 347.961 4.2931 347.961 4.27586V1C347.961 0.866379 347.936 0.737069 347.885 0.62069C347.833 0.49569 347.761 0.387931 347.667 0.297414C347.577 0.206897 347.466 0.133621 347.346 0.0818965C347.244 0.0258621 347.116 0 346.984 0H343.008C342.876 0 342.747 0.0258621 342.632 0.0775862C342.513 0.12931 342.402 0.202586 342.312 0.293103C342.133 0.474138 342.022 0.724138 342.022 1V4.27155C342.022 4.28879 342.013 4.30603 342.004 4.32327C341.996 4.33621 341.979 4.34483 341.962 4.34914L341.949 4.35345C341.513 4.47414 341.099 4.625 340.698 4.79741Z" fill="#B8C0CC"/>
<path fill-rule="evenodd" clip-rule="evenodd" d="M5.77471 192.284C6.12996 191.929 6.55262 191.645 7.02456 191.451C7.47834 191.262 7.97621 191.159 8.49741 191.159C9.01861 191.159 9.51388 191.262 9.96766 191.451C10.4396 191.645 10.8649 191.932 11.2175 192.284C11.5728 192.638 11.858 193.059 12.0525 193.53C12.2418 193.982 12.3455 194.479 12.3455 194.996C12.3455 195.516 12.2418 196.01 12.0525 196.462C11.858 196.933 11.5702 197.357 11.2175 197.709C10.8623 198.063 10.4396 198.347 9.96766 198.541C9.51388 198.73 9.01602 198.834 8.49481 198.834C7.97361 198.834 7.47834 198.73 7.02196 198.541C6.55003 198.347 6.12477 198.06 5.77212 197.709C5.41687 197.354 5.13164 196.933 4.93716 196.462C4.74787 196.01 4.64414 195.513 4.64414 194.994C4.64414 194.474 4.74787 193.98 4.93716 193.527C5.13423 193.059 5.41946 192.638 5.77471 192.284ZM7.1594 191.777C6.73414 191.953 6.34777 192.211 6.02624 192.534C5.7047 192.858 5.4428 193.24 5.26647 193.664C5.09533 194.073 5.00198 194.525 5.00198 194.996C5.00198 195.469 5.09533 195.919 5.26647 196.328C5.4428 196.752 5.7021 197.137 6.02624 197.458C6.34777 197.781 6.73414 198.04 7.1594 198.215C7.5691 198.386 8.02288 198.479 8.49481 198.479C8.96934 198.479 9.42053 198.386 9.83023 198.215C10.2581 198.04 10.6419 197.781 10.9634 197.458C11.2849 197.135 11.5468 196.752 11.7232 196.328C11.8943 195.919 11.9876 195.467 11.9876 194.996C11.9876 194.523 11.8943 194.073 11.7232 193.664C11.5468 193.24 11.2875 192.855 10.9634 192.534C10.6419 192.211 10.2555 191.953 9.83023 191.777C9.42053 191.606 8.96675 191.513 8.49481 191.513C8.02288 191.516 7.57169 191.609 7.1594 191.777ZM6.73414 188.953C6.49298 189.023 6.25702 189.108 6.02364 189.206C5.78768 189.307 5.56208 189.421 5.34167 189.545C5.11867 189.674 4.90604 189.814 4.6986 189.969C4.49115 190.124 4.29668 190.29 4.11257 190.468C4.04774 190.53 3.96477 190.567 3.88179 190.577C3.79622 190.587 3.70805 190.569 3.63026 190.525C3.06498 190.199 2.47117 189.879 1.91626 189.537C1.89033 189.524 1.86181 189.514 1.83328 189.512C1.80217 189.509 1.76846 189.512 1.73993 189.519C1.70882 189.527 1.6777 189.543 1.65436 189.561C1.63103 189.579 1.60769 189.605 1.59213 189.631C1.17984 190.254 0.767544 191.055 0.383774 191.715C0.368216 191.743 0.357841 191.774 0.352655 191.803C0.347469 191.834 0.350063 191.867 0.360435 191.901C0.368214 191.932 0.383774 191.96 0.401924 191.986C0.420076 192.012 0.443411 192.033 0.471935 192.048C0.980171 192.384 1.63621 192.718 2.17556 193.031C2.25336 193.075 2.313 193.145 2.34411 193.222C2.35449 193.248 2.36486 193.277 2.37004 193.305L2.40635 193.318L2.36745 193.476C2.33633 193.6 2.3104 193.724 2.28707 193.848C2.26373 193.97 2.24558 194.096 2.23002 194.226C2.21446 194.355 2.2015 194.482 2.19372 194.608C2.18594 194.732 2.18334 194.859 2.18334 194.994C2.18334 195.128 2.18594 195.257 2.19372 195.379C2.2015 195.506 2.21187 195.632 2.23002 195.762C2.24558 195.893 2.26632 196.02 2.28707 196.139C2.3104 196.263 2.33633 196.387 2.36745 196.511C2.39079 196.605 2.37782 196.698 2.34152 196.778C2.30522 196.858 2.24039 196.925 2.16001 196.967L0.650854 197.835L0.471935 197.939C0.443411 197.954 0.420076 197.978 0.401924 198.001C0.383774 198.027 0.368214 198.055 0.360435 198.086C0.352655 198.117 0.350063 198.151 0.352655 198.184C0.355249 198.215 0.365622 198.244 0.383774 198.272L1.50137 200.201L1.59213 200.357C1.60769 200.385 1.63103 200.408 1.65436 200.426C1.68029 200.447 1.70882 200.46 1.73993 200.468C1.77105 200.476 1.80476 200.478 1.83588 200.476C1.86699 200.473 1.89552 200.463 1.92404 200.444C2.46339 200.106 3.07276 199.783 3.63026 199.462C3.71065 199.418 3.79622 199.4 3.8792 199.41C3.96477 199.42 4.04515 199.457 4.10998 199.519C4.29408 199.697 4.49115 199.863 4.696 200.018C4.90086 200.173 5.11608 200.313 5.33649 200.442C5.55689 200.569 5.78508 200.682 6.02364 200.783C6.25702 200.881 6.49817 200.967 6.74451 201.039C6.83267 201.065 6.90528 201.117 6.95455 201.184C7.00641 201.251 7.03493 201.337 7.03493 201.427V203.39C7.03493 203.423 7.04012 203.454 7.05308 203.483C7.06605 203.511 7.0842 203.54 7.10754 203.563C7.13087 203.586 7.1568 203.604 7.18792 203.617C7.21644 203.628 7.24756 203.635 7.28127 203.635H9.69539C9.7291 203.635 9.76022 203.628 9.78874 203.617C9.81986 203.604 9.84579 203.586 9.86913 203.563C9.89247 203.54 9.91062 203.514 9.92358 203.483C9.93655 203.454 9.94173 203.423 9.94173 203.39V201.427C9.94173 201.334 9.97544 201.246 10.0299 201.179C10.0844 201.109 10.1647 201.057 10.2529 201.037C10.4941 200.967 10.73 200.884 10.9634 200.786C11.1994 200.685 11.425 200.571 11.6454 200.447C11.8684 200.318 12.081 200.178 12.2858 200.023C12.4933 199.868 12.6878 199.7 12.8719 199.524C12.9393 199.459 13.0275 199.42 13.1156 199.413C13.2064 199.405 13.2971 199.426 13.3749 199.477L15.0604 200.447C15.0889 200.463 15.1174 200.473 15.1486 200.478C15.1797 200.483 15.2134 200.478 15.2471 200.47C15.2782 200.463 15.3093 200.447 15.3327 200.429C15.356 200.411 15.3793 200.388 15.3949 200.359C15.7942 199.664 16.2013 198.971 16.6033 198.275C16.6188 198.247 16.6292 198.215 16.6344 198.187C16.6396 198.156 16.637 198.122 16.6266 198.091C16.6188 198.06 16.6033 198.029 16.5851 198.006C16.567 197.98 16.5436 197.959 16.5151 197.944L14.8115 196.964C14.7337 196.92 14.674 196.85 14.6429 196.775C14.6351 196.754 14.6274 196.731 14.6222 196.711L14.5781 196.703L14.6222 196.522C14.6533 196.398 14.6792 196.274 14.7026 196.149C14.7259 196.028 14.7441 195.901 14.7596 195.769C14.7752 195.64 14.7881 195.513 14.7933 195.387C14.8011 195.262 14.8037 195.136 14.8037 195.001C14.8037 194.867 14.8011 194.738 14.7933 194.616C14.7855 194.489 14.7752 194.363 14.7596 194.233C14.7441 194.099 14.7233 193.972 14.7026 193.853C14.6792 193.729 14.6533 193.605 14.6222 193.481C14.5988 193.388 14.6092 193.295 14.6481 193.214C14.6844 193.134 14.7492 193.067 14.8296 193.026L16.5177 192.053C16.5462 192.038 16.5696 192.017 16.5877 191.991C16.6059 191.966 16.6214 191.937 16.6292 191.903C16.637 191.872 16.6396 191.839 16.637 191.808C16.6318 191.777 16.624 191.746 16.6059 191.72C16.1936 191.11 15.7813 190.292 15.3975 189.636C15.3819 189.607 15.3586 189.584 15.3353 189.566C15.3093 189.545 15.2808 189.532 15.2497 189.524C15.2186 189.517 15.1849 189.514 15.1538 189.517C15.1252 189.519 15.0941 189.53 15.0656 189.548L13.3594 190.53C13.279 190.577 13.1882 190.592 13.1027 190.582C13.0171 190.569 12.9367 190.53 12.8719 190.468C12.6878 190.29 12.4907 190.124 12.2884 189.972C12.0862 189.819 11.871 189.68 11.648 189.55C11.4275 189.424 11.1994 189.31 10.9608 189.209C10.7274 189.111 10.4863 189.025 10.2399 188.953C10.1518 188.927 10.0792 188.875 10.0273 188.808C9.97544 188.741 9.94692 188.656 9.94692 188.565V186.602C9.94692 186.569 9.94173 186.538 9.92877 186.509C9.9158 186.481 9.89765 186.453 9.87431 186.429C9.85098 186.406 9.82505 186.388 9.79393 186.375C9.76541 186.365 9.73429 186.357 9.70058 186.357H7.28646C7.25275 186.357 7.22163 186.365 7.19311 186.375C7.16199 186.388 7.13606 186.406 7.11272 186.429C7.06864 186.473 7.04012 186.535 7.04012 186.6V188.563C7.04012 188.656 7.00641 188.744 6.95455 188.811C6.90269 188.881 6.82489 188.932 6.73414 188.953ZM5.88621 188.878C5.63728 188.984 5.39872 189.103 5.16535 189.237C4.92938 189.375 4.70378 189.524 4.48597 189.685C4.27074 189.848 4.0633 190.024 3.86623 190.212C3.85845 190.22 3.85067 190.223 3.8403 190.225C3.82993 190.225 3.81956 190.225 3.81178 190.22C3.23871 189.889 2.66306 189.561 2.09259 189.23C2.02517 189.194 1.94997 189.17 1.87736 189.162C1.80217 189.155 1.72437 189.16 1.65177 189.181C1.57657 189.201 1.50397 189.235 1.44173 189.284C1.38209 189.331 1.32764 189.39 1.28874 189.46C0.873857 190.132 0.479715 190.859 0.0803852 191.544C0.0388966 191.614 0.0155602 191.689 0.00518799 191.766C-0.00518417 191.847 1.90735e-06 191.924 0.0207462 191.999C0.0414906 192.074 0.075201 192.147 0.12447 192.209C0.171144 192.271 0.230782 192.322 0.300795 192.361C0.847927 192.7 1.44433 193.021 2.00442 193.344C2.0122 193.349 2.01998 193.357 2.02258 193.364C2.02776 193.375 2.02776 193.385 2.02517 193.395L1.98627 193.553H1.98887C1.97071 193.631 1.95516 193.708 1.94219 193.789C1.91626 193.926 1.89552 194.057 1.87996 194.189C1.8644 194.319 1.85143 194.453 1.84366 194.593C1.83588 194.732 1.83069 194.867 1.83069 194.999C1.83069 195.131 1.83588 195.268 1.84366 195.405C1.85143 195.544 1.8644 195.679 1.87996 195.808C1.89552 195.94 1.91626 196.072 1.94219 196.209C1.96812 196.343 1.99664 196.475 2.02776 196.605C2.03035 196.615 2.03036 196.625 2.02517 196.636C2.01998 196.646 2.0122 196.654 2.00442 196.659C1.37691 196.992 0.741613 197.385 0.121876 197.742L0.145212 197.771L0.12706 197.794C0.0777931 197.856 0.0440826 197.928 0.0233383 198.003C0.00259399 198.078 -0.00259209 198.159 0.00778008 198.236C0.0181522 198.314 0.0414906 198.389 0.0829792 198.459L1.3795 200.7L1.40284 200.685C1.4158 200.698 1.42877 200.708 1.44173 200.719C1.50397 200.768 1.57657 200.801 1.65177 200.822C1.72697 200.843 1.80735 200.848 1.88514 200.838C1.96034 200.827 2.03295 200.804 2.10037 200.768C2.66824 200.468 3.25168 200.106 3.81178 199.783C3.81956 199.777 3.82993 199.777 3.8403 199.777C3.85067 199.777 3.86104 199.783 3.86882 199.79C4.0633 199.979 4.27074 200.155 4.48597 200.318C4.70119 200.481 4.92679 200.631 5.16275 200.765C5.39613 200.9 5.63728 201.021 5.8888 201.127C6.13774 201.233 6.39186 201.324 6.65375 201.396C6.66412 201.399 6.6719 201.406 6.67968 201.412C6.68487 201.419 6.69005 201.43 6.69005 201.44V203.403C6.69005 203.483 6.70561 203.56 6.73673 203.63C6.76785 203.705 6.81193 203.77 6.86897 203.824C6.92343 203.878 6.99085 203.925 7.06345 203.953C7.13347 203.984 7.21126 204 7.29164 204H9.70577C9.78615 204 9.86394 203.984 9.93395 203.953C10.0066 203.922 10.074 203.878 10.1284 203.824C10.1829 203.77 10.227 203.703 10.2581 203.63C10.2866 203.56 10.3048 203.483 10.3048 203.403V201.44C10.3048 201.43 10.3074 201.419 10.3151 201.412C10.3203 201.404 10.3307 201.399 10.3411 201.396L10.3488 201.393C10.6107 201.318 10.8649 201.228 11.1086 201.125C11.3575 201.019 11.5987 200.9 11.8295 200.765C12.0654 200.628 12.291 200.481 12.5063 200.318C12.7215 200.155 12.9289 199.979 13.126 199.79C13.1338 199.783 13.1441 199.777 13.1545 199.777C13.1649 199.777 13.1753 199.78 13.1856 199.785L14.8893 200.765C14.9593 200.806 15.0345 200.83 15.1097 200.84C15.1875 200.845 15.2678 200.838 15.343 200.819C15.4182 200.799 15.4908 200.765 15.5531 200.716C15.6127 200.672 15.6646 200.613 15.7035 200.545C16.1521 199.826 16.5747 199.04 17 198.303L16.9767 198.29C16.9818 198.272 16.9844 198.252 16.987 198.234C16.9974 198.156 16.9922 198.076 16.9715 198.001C16.9507 197.926 16.917 197.853 16.8678 197.791C16.8211 197.729 16.7614 197.678 16.6914 197.639L14.9878 196.656C14.98 196.651 14.9722 196.643 14.9696 196.636C14.9645 196.625 14.9645 196.615 14.9671 196.605L15.0111 196.426H15.0085C15.0241 196.356 15.0371 196.284 15.0526 196.214C15.0786 196.077 15.0993 195.945 15.1149 195.813C15.1304 195.684 15.1434 195.549 15.1512 195.41C15.1589 195.27 15.1641 195.136 15.1641 195.004C15.1641 194.872 15.1589 194.735 15.1512 194.598C15.1434 194.461 15.1304 194.326 15.1149 194.195C15.0993 194.065 15.0786 193.931 15.0526 193.794C15.0267 193.659 14.9982 193.527 14.9671 193.401C14.9645 193.39 14.9671 193.38 14.9696 193.37C14.9748 193.359 14.9826 193.352 14.9904 193.346L16.6914 192.366C16.7614 192.325 16.8211 192.273 16.8678 192.211C16.917 192.147 16.9507 192.077 16.9715 192.002C16.9922 191.927 16.9974 191.847 16.987 191.769C16.9767 191.694 16.9533 191.622 16.9144 191.552C16.5099 190.802 16.0432 190.047 15.6153 189.305L15.592 189.32C15.579 189.307 15.566 189.297 15.5505 189.287C15.4883 189.237 15.4157 189.204 15.3405 189.183C15.2653 189.162 15.1849 189.157 15.1071 189.168C15.0293 189.178 14.9541 189.201 14.8867 189.24L14.7596 189.312L13.1779 190.223C13.1675 190.228 13.1571 190.23 13.1467 190.228C13.1364 190.225 13.126 190.223 13.1208 190.215L13.1156 190.21C12.9211 190.024 12.7163 189.848 12.4985 189.685C12.2833 189.522 12.0577 189.375 11.8243 189.24C11.5909 189.106 11.3498 188.984 11.0982 188.881C10.8493 188.775 10.5952 188.684 10.3333 188.612C10.3229 188.609 10.3151 188.601 10.3074 188.594C10.2996 188.586 10.297 188.575 10.297 188.565V186.6C10.297 186.52 10.2814 186.442 10.2503 186.372C10.2192 186.297 10.1751 186.233 10.1181 186.178C10.0636 186.124 9.99619 186.08 9.92358 186.049C9.86135 186.016 9.78356 186 9.70317 186H7.28905C7.20866 186 7.13087 186.016 7.06086 186.047C6.98826 186.078 6.92084 186.122 6.86638 186.176C6.75747 186.284 6.69005 186.434 6.69005 186.6V188.563C6.69005 188.573 6.68487 188.583 6.67968 188.594C6.6745 188.601 6.66412 188.607 6.65375 188.609L6.64597 188.612C6.38148 188.684 6.12996 188.775 5.88621 188.878Z" fill="#979FA5"/>
<path d="M228.437 107.733C238.84 106.224 257.016 100.151 263.456 88.7149C265.844 82.649 262.672 71.5499 244.621 73.0148C222.056 74.8458 194.701 91.3582 194.246 102.142C193.792 112.926 218.034 109.242 228.437 107.733Z" fill="#F2F5FA"/>
<circle r="7.5" transform="matrix(-1 0 0 1 531.5 137.5)" fill="#F2F4F5"/>
<circle r="5" transform="matrix(-1 0 0 1 212 124)" fill="#F2F5FA"/>
<path d="M80.0017 258H79.5017L79.2017 258.4L69.0017 272C67.0017 274.667 63.0017 274.667 61.0017 272L50.8017 258.4L50.5017 258H50.0017H35.0017C24.5083 258 16.0017 249.493 16.0017 239C16.0017 228.507 24.5083 220 35.0017 220L195.002 220C205.495 220 214.002 228.507 214.002 239C214.002 249.493 205.495 258 195.002 258H115.002H80.0017Z" fill="white" stroke="#ECEEF1" stroke-width="2"/>
<path d="M47.0017 230.236L48.5203 234.91C48.7881 235.734 49.556 236.292 50.4224 236.292H55.3367L51.361 239.18C50.66 239.69 50.3667 240.592 50.6344 241.416L52.153 246.09L48.1773 243.202C47.4763 242.692 46.5271 242.692 45.8261 243.202L41.8504 246.09L43.369 241.416C43.6367 240.592 43.3434 239.69 42.6425 239.18L38.6667 236.292H43.581C44.4474 236.292 45.2154 235.734 45.4831 234.91L47.0017 230.236Z" stroke="#6772E5" stroke-width="2"/>
<path d="M81.0017 230.236L82.5203 234.91C82.7881 235.734 83.556 236.292 84.4224 236.292H89.3367L85.361 239.18C84.66 239.69 84.3667 240.592 84.6344 241.416L86.153 246.09L82.1773 243.202C81.4763 242.692 80.5271 242.692 79.8261 243.202L75.8504 246.09L77.369 241.416C77.6367 240.592 77.3434 239.69 76.6425 239.18L72.6667 236.292H77.581C78.4474 236.292 79.2154 235.734 79.4831 234.91L81.0017 230.236Z" stroke="#6772E5" stroke-width="2"/>
<path d="M115.002 230.236L116.52 234.91C116.788 235.734 117.556 236.292 118.422 236.292H123.337L119.361 239.18C118.66 239.69 118.367 240.592 118.634 241.416L120.153 246.09L116.177 243.202C115.476 242.692 114.527 242.692 113.826 243.202L109.85 246.09L111.369 241.416C111.637 240.592 111.343 239.69 110.642 239.18L106.667 236.292H111.581C112.447 236.292 113.215 235.734 113.483 234.91L115.002 230.236Z" stroke="#6772E5" stroke-width="2"/>
<path d="M149.002 230.236L150.52 234.91C150.788 235.734 151.556 236.292 152.422 236.292H157.337L153.361 239.18C152.66 239.69 152.367 240.592 152.634 241.416L154.153 246.09L150.177 243.202C149.476 242.692 148.527 242.692 147.826 243.202L143.85 246.09L145.369 241.416C145.637 240.592 145.343 239.69 144.642 239.18L140.667 236.292H145.581C146.447 236.292 147.215 235.734 147.483 234.91L149.002 230.236Z" stroke="#6772E5" stroke-width="2"/>
<path d="M183.002 230.236L184.52 234.91C184.788 235.734 185.556 236.292 186.422 236.292H191.337L187.361 239.18C186.66 239.69 186.367 240.592 186.634 241.416L188.153 246.09L184.177 243.202C183.476 242.692 182.527 242.692 181.826 243.202L177.85 246.09L179.369 241.416C179.637 240.592 179.343 239.69 178.642 239.18L174.667 236.292H179.581C180.447 236.292 181.215 235.734 181.483 234.91L183.002 230.236Z" stroke="#6772E5" stroke-width="2"/>
<path d="M448.259 124H444.885V165.888H448.259V124Z" fill="#D7DADD" stroke="#D8DBDD" stroke-width="2" stroke-miterlimit="10"/>
<path d="M474.436 124.466H448.259V140.097H474.436V124.466Z" fill="white" stroke="#D8DBDD" stroke-width="2" stroke-miterlimit="10"/>
<path d="M474.436 124.466H448.259V132.282H474.436V124.466Z" fill="#ECEEF1" stroke="#D8DBDD" stroke-width="2" stroke-miterlimit="10"/>
<path d="M578.765 353.176H308V371.062H578.765V353.176Z" fill="#D8DBDD"/>
<path d="M578.765 206.154H308V217.054H578.765V206.154Z" fill="#ECEEF1" stroke="#D8DBDD" stroke-width="2" stroke-miterlimit="10"/>
<path d="M572.447 217.045H314.309V353.176H572.447V217.045Z" fill="#D7DADD" stroke="#D8DBDD" stroke-width="2" stroke-miterlimit="10"/>
<path d="M572.447 222.296H314.309V353.176H572.447V222.296Z" fill="#ECEEF1" stroke="#D8DBDD" stroke-width="2" stroke-miterlimit="10"/>
<path d="M515.524 217.045H371.241V353.176H515.524V217.045Z" fill="#E4E5E6" stroke="#D8DBDD" stroke-width="2" stroke-miterlimit="10"/>
<path d="M507.844 217.045H378.912V353.176H507.844V217.045Z" fill="#ECEEF1" stroke="#D8DBDD" stroke-width="2" stroke-miterlimit="10"/>
<path d="M520.049 217.045H366.715V224.869H520.049V217.045Z" fill="#F2F4F5" stroke="#D8DBDD" stroke-width="2" stroke-miterlimit="10"/>
<path d="M504.4 225.944H382.356V237.61H504.4V225.944Z" fill="#E4E5E6" stroke="#D8DBDD" stroke-width="2" stroke-miterlimit="10"/>
<path d="M517.861 224.878H368.903V228.79H517.861V224.878Z" fill="#F8F8FA" stroke="#D8DBDD" stroke-width="2" stroke-miterlimit="10"/>
<path d="M520.049 335.924H366.715V343.757H520.049V335.924Z" fill="white" stroke="#D8DBDD" stroke-width="2" stroke-miterlimit="10"/>
<path d="M517.861 332.012H368.903V335.924H517.861V332.012Z" fill="#F8F8FA" stroke="#D8DBDD" stroke-width="2" stroke-miterlimit="10"/>
<path d="M446.396 144.944L352.225 217.045H540.558L446.396 144.944Z" fill="#ECEEF1" stroke="#D8DBDD" stroke-width="2" stroke-miterlimit="10"/>
<path d="M446.396 153.332L363.174 217.045H529.61L446.396 153.332Z" fill="#D7DADD" stroke="#D8DBDD" stroke-width="2" stroke-miterlimit="10"/>
<path d="M446.581 159.218L366.557 217.045H526.596L446.581 159.218Z" fill="white" stroke="#D8DBDD" stroke-width="2" stroke-miterlimit="10"/>
<path d="M360.108 272.422V268.307H326.349V272.422H360.108Z" fill="#D8DBDD" stroke="#D8DBDD" stroke-width="2" stroke-miterlimit="10"/>
<path d="M358.764 270.365V266.259H325.004V270.365H358.764Z" fill="white" stroke="#D8DBDD" stroke-width="2" stroke-miterlimit="10"/>
<path d="M356.82 268.275V230.898H326.944V268.275H356.82Z" fill="white" stroke="#D8DBDD" stroke-width="2" stroke-miterlimit="10"/>
<path d="M354.088 234.641H329.669V264.528H354.088V234.641Z" fill="#ECEEF1" stroke="#D8DBDD" stroke-width="2" stroke-miterlimit="10"/>
<path d="M360.105 320.404V316.289H326.345V320.404H360.105Z" fill="#D8DBDD" stroke="#D8DBDD" stroke-width="2" stroke-miterlimit="10"/>
<path d="M358.76 318.345V314.239H325V318.345H358.76Z" fill="white" stroke="#D8DBDD" stroke-width="2" stroke-miterlimit="10"/>
<path d="M356.818 316.257V278.881H326.942V316.257H356.818Z" fill="white" stroke="#D8DBDD" stroke-width="2" stroke-miterlimit="10"/>
<path d="M354.088 282.626H329.669V312.513H354.088V282.626Z" fill="#ECEEF1" stroke="#D8DBDD" stroke-width="2" stroke-miterlimit="10"/>
<path d="M563.796 272.428V268.313H530.036V272.428H563.796Z" fill="#D8DBDD" stroke="#D8DBDD" stroke-width="2" stroke-miterlimit="10"/>
<path d="M562.451 270.361V266.256H528.691V270.361H562.451Z" fill="#F7F9FA" stroke="#D8DBDD" stroke-width="2" stroke-miterlimit="10"/>
<path d="M560.508 268.272V230.895H530.632V268.272H560.508Z" fill="#F7F9FA" stroke="#D8DBDD" stroke-width="2" stroke-miterlimit="10"/>
<path d="M557.772 234.641H533.353V264.528H557.772V234.641Z" fill="#ECEEF1" stroke="#D8DBDD" stroke-width="2" stroke-miterlimit="10"/>
<path d="M563.792 320.409V316.295H530.032V320.409H563.792Z" fill="#D8DBDD" stroke="#D8DBDD" stroke-width="2" stroke-miterlimit="10"/>
<path d="M562.447 318.342V314.236H528.687V318.342H562.447Z" fill="#F7F9FA" stroke="#D8DBDD" stroke-width="2" stroke-miterlimit="10"/>
<path d="M560.505 316.254V278.878H530.629V316.254H560.505Z" fill="#F7F9FA" stroke="#D8DBDD" stroke-width="2" stroke-miterlimit="10"/>
<path d="M557.772 282.626H533.353V312.513H557.772V282.626Z" fill="#ECEEF1" stroke="#D8DBDD" stroke-width="2" stroke-miterlimit="10"/>
<path d="M524.935 343.757H361.821V350.85H524.935V343.757Z" fill="#E3E5E6" stroke="#D8DBDD" stroke-width="2" stroke-miterlimit="10"/>
<path d="M530.146 350.497H356.619V357.59H530.146V350.497Z" fill="white" stroke="#D8DBDD" stroke-width="2" stroke-miterlimit="10"/>
<path d="M535.682 357.238H351.074V364.331H535.682V357.238Z" fill="#E3E5E6" stroke="#D8DBDD" stroke-width="2" stroke-miterlimit="10"/>
<path d="M541.578 363.978H345.187V371.071H541.578V363.978Z" fill="white" stroke="#D8DBDD" stroke-width="2" stroke-miterlimit="10"/>
<path d="M397.83 228.79H381.407V332.012H397.83V228.79Z" fill="#E4E5E6" stroke="#D8DBDD" stroke-width="2" stroke-miterlimit="10"/>
<path d="M438.585 228.79H422.161V332.012H438.585V228.79Z" fill="#E4E5E6" stroke="#D8DBDD" stroke-width="2" stroke-miterlimit="10"/>
<path d="M479.33 228.79H462.907V332.012H479.33V228.79Z" fill="#E4E5E6" stroke="#D8DBDD" stroke-width="2" stroke-miterlimit="10"/>
<path d="M390.361 228.79H373.938V332.012H390.361V228.79Z" fill="white" stroke="#D8DBDD" stroke-width="2" stroke-miterlimit="10"/>
<path d="M431.116 228.79H414.693V332.012H431.116V228.79Z" fill="white" stroke="#D8DBDD" stroke-width="2" stroke-miterlimit="10"/>
<path d="M471.861 228.79H455.438V332.012H471.861V228.79Z" fill="white" stroke="#D8DBDD" stroke-width="2" stroke-miterlimit="10"/>
<path d="M512.616 228.79H496.193V332.012H512.616V228.79Z" fill="white" stroke="#D8DBDD" stroke-width="2" stroke-miterlimit="10"/>
<path d="M245.15 259.581L265.937 367.34C266.357 369.533 264.683 371.568 262.46 371.568H251.497L245.15 259.581Z" fill="#B8C0CC"/>
<path d="M244.901 259.145L258.678 364.947C259.134 368.454 256.413 371.568 252.879 371.568H232.67L244.068 258.767L244.901 259.145Z" fill="#979FA5"/>
<path opacity="0.5" d="M244.901 259.145L251.07 364.268C251.305 368.225 248.164 371.561 244.21 371.561H214.063L244.901 259.145Z" fill="#B8C0CC"/>
<path d="M245.129 260.002L242.13 364.268C242.365 368.225 239.224 371.561 235.27 371.561H205.124L245.129 260.002Z" fill="#B8C0CC"/>
<path d="M219.663 371.061H100.807C97.2824 371.061 94.6221 367.861 95.2513 364.371L113.587 263.821C114.078 261.136 116.415 259.181 119.143 259.181H236.602C240.855 259.181 244.069 263.047 243.305 267.242L225.218 366.414C224.727 369.106 222.39 371.061 219.663 371.061Z" fill="white" stroke="#979FA5" stroke-miterlimit="10"/>
<path d="M241.439 280.217H110.011L113.38 261.495C113.672 259.874 115.083 258.688 116.728 258.688H244.032C244.73 258.688 245.25 259.324 245.129 260.01L241.439 280.217Z" fill="#D7DEE2" stroke="#979FA5" stroke-miterlimit="10"/>
<path d="M236.602 263.881C236.602 263.995 236.616 264.11 236.645 264.21C236.787 264.731 237.265 265.117 237.835 265.117C238.518 265.117 239.067 264.56 239.067 263.881C239.067 263.195 238.511 262.645 237.835 262.645C237.436 262.645 237.087 262.838 236.859 263.124C236.702 263.338 236.602 263.595 236.602 263.881Z" fill="#979FA5"/>
<path d="M216.179 263.881C216.179 263.995 216.193 264.11 216.222 264.21C216.364 264.731 216.842 265.117 217.412 265.117C218.095 265.117 218.644 264.56 218.644 263.881C218.644 263.195 218.088 262.645 217.412 262.645C217.013 262.645 216.656 262.838 216.436 263.124C216.272 263.338 216.179 263.595 216.179 263.881Z" fill="#979FA5"/>
<path d="M195.749 263.881C195.749 263.995 195.763 264.11 195.792 264.21C195.934 264.731 196.411 265.117 196.981 265.117C197.665 265.117 198.214 264.56 198.214 263.881C198.214 263.195 197.658 262.645 196.981 262.645C196.582 262.645 196.233 262.838 196.005 263.124C195.842 263.338 195.749 263.595 195.749 263.881Z" fill="#979FA5"/>
<path d="M175.319 263.881C175.319 263.995 175.333 264.11 175.362 264.21C175.504 264.731 175.981 265.117 176.551 265.117C177.235 265.117 177.784 264.56 177.784 263.881C177.784 263.195 177.228 262.645 176.551 262.645C176.152 262.645 175.803 262.838 175.575 263.124C175.411 263.338 175.319 263.595 175.319 263.881Z" fill="#979FA5"/>
<path d="M154.889 263.881C154.889 263.995 154.903 264.11 154.931 264.21C155.074 264.731 155.551 265.117 156.121 265.117C156.805 265.117 157.353 264.56 157.353 263.881C157.353 263.195 156.798 262.645 156.121 262.645C155.722 262.645 155.366 262.838 155.145 263.124C154.988 263.338 154.889 263.595 154.889 263.881Z" fill="#979FA5"/>
<path d="M134.458 263.881C134.458 263.995 134.473 264.11 134.501 264.21C134.644 264.731 135.121 265.117 135.691 265.117C136.375 265.117 136.923 264.56 136.923 263.881C136.923 263.195 136.368 262.645 135.691 262.645C135.292 262.645 134.943 262.838 134.715 263.124C134.558 263.338 134.458 263.595 134.458 263.881Z" fill="#979FA5"/>
<path d="M114.028 263.881C114.028 263.995 114.043 264.11 114.071 264.21C114.213 264.731 114.691 265.117 115.261 265.117C115.944 265.117 116.493 264.56 116.493 263.881C116.493 263.195 115.937 262.645 115.261 262.645C114.862 262.645 114.513 262.838 114.285 263.124C114.128 263.338 114.028 263.595 114.028 263.881Z" fill="#979FA5"/>
<path d="M165.439 315.396H172.085C172.854 315.396 173.602 314.767 173.752 313.996L175.034 307.332C175.183 306.56 174.678 305.932 173.908 305.932H167.262C166.493 305.932 165.745 306.56 165.595 307.332L164.313 313.996C164.163 314.76 164.669 315.396 165.439 315.396Z" fill="#D7DEE2"/>
<path d="M148.67 315.396H155.316C156.085 315.396 156.833 314.767 156.983 313.996L158.265 307.332C158.415 306.56 157.909 305.932 157.14 305.932H150.493C149.724 305.932 148.976 306.56 148.827 307.332L147.544 313.996C147.395 314.76 147.9 315.396 148.67 315.396Z" fill="#D7DEE2"/>
<path d="M131.908 315.396H138.554C139.324 315.396 140.072 314.767 140.221 313.996L141.504 307.332C141.653 306.56 141.147 305.932 140.378 305.932H133.732C132.963 305.932 132.215 306.56 132.065 307.332L130.783 313.996C130.633 314.76 131.139 315.396 131.908 315.396Z" fill="#B8C0CC"/>
<path d="M215.73 315.396H222.377C223.146 315.396 223.894 314.767 224.043 313.996L225.326 307.332C225.475 306.56 224.97 305.932 224.2 305.932H217.554C216.785 305.932 216.037 306.56 215.887 307.332L214.605 313.996C214.455 314.76 214.961 315.396 215.73 315.396Z" fill="#D7DEE2"/>
<path d="M223.011 295.389H225.867C226.195 295.389 226.522 295.117 226.579 294.789L227.128 291.924C227.192 291.596 226.971 291.324 226.644 291.324H223.787C223.459 291.324 223.132 291.596 223.068 291.924L222.519 294.789C222.469 295.124 222.683 295.389 223.011 295.389Z" fill="#D7DEE2"/>
<path d="M198.969 315.396H205.615C206.384 315.396 207.132 314.767 207.282 313.996L208.564 307.332C208.714 306.56 208.208 305.932 207.439 305.932H200.792C200.023 305.932 199.275 306.56 199.126 307.332L197.843 313.996C197.694 314.76 198.199 315.396 198.969 315.396Z" fill="#D7DEE2"/>
<path d="M182.2 315.396H188.846C189.616 315.396 190.364 314.767 190.513 313.996L191.795 307.332C191.945 306.56 191.439 305.932 190.67 305.932H184.024C183.254 305.932 182.506 306.56 182.357 307.332L181.075 313.996C180.925 314.76 181.431 315.396 182.2 315.396Z" fill="#D7DEE2"/>
<path d="M115.14 315.396H121.786C122.555 315.396 123.303 314.767 123.453 313.996L124.735 307.332C124.884 306.56 124.379 305.932 123.609 305.932H116.963C116.194 305.932 115.446 306.56 115.296 307.332L114.014 313.996C113.864 314.76 114.37 315.396 115.14 315.396Z" fill="#B8C0CC"/>
<path d="M168.217 300.924H174.863C175.632 300.924 176.38 300.296 176.53 299.524L177.812 292.86C177.962 292.088 177.456 291.46 176.687 291.46H170.04C169.271 291.46 168.523 292.088 168.373 292.86L167.091 299.524C166.942 300.296 167.454 300.924 168.217 300.924Z" fill="#D7DEE2"/>
<path d="M151.455 300.924H158.101C158.871 300.924 159.619 300.296 159.768 299.524L161.05 292.86C161.2 292.088 160.694 291.46 159.925 291.46H153.279C152.509 291.46 151.761 292.088 151.612 292.86L150.33 299.524C150.18 300.296 150.686 300.924 151.455 300.924Z" fill="#D7DEE2"/>
<path d="M134.686 300.924H141.333C142.102 300.924 142.85 300.296 143 299.524L144.282 292.86C144.431 292.088 143.926 291.46 143.156 291.46H136.51C135.741 291.46 134.993 292.088 134.843 292.86L133.561 299.524C133.411 300.296 133.924 300.924 134.686 300.924Z" fill="#D7DEE2"/>
<path d="M117.925 300.924H124.571C125.34 300.924 126.088 300.296 126.238 299.524L127.52 292.86C127.67 292.088 127.164 291.46 126.395 291.46H119.748C118.979 291.46 118.231 292.088 118.082 292.86L116.799 299.524C116.65 300.296 117.156 300.924 117.925 300.924Z" fill="#B8C0CC"/>
<path d="M162.489 330.732H169.136C169.905 330.732 170.653 330.103 170.803 329.332L172.085 322.668C172.234 321.896 171.729 321.268 170.959 321.268H164.313C163.544 321.268 162.796 321.896 162.646 322.668L161.364 329.332C161.214 330.096 161.72 330.732 162.489 330.732Z" fill="#D7DEE2"/>
<path d="M145.721 330.732H152.367C153.136 330.732 153.884 330.103 154.034 329.332L155.316 322.668C155.466 321.896 154.96 321.268 154.191 321.268H147.544C146.775 321.268 146.027 321.896 145.877 322.668L144.595 329.332C144.446 330.096 144.951 330.732 145.721 330.732Z" fill="#D7DEE2"/>
<path d="M128.959 330.732H135.605C136.375 330.732 137.123 330.103 137.272 329.332L138.554 322.668C138.704 321.896 138.198 321.268 137.429 321.268H130.783C130.013 321.268 129.265 321.896 129.116 322.668L127.834 329.332C127.684 330.096 128.19 330.732 128.959 330.732Z" fill="#D7DEE2"/>
<path d="M212.781 330.732H219.427C220.197 330.732 220.945 330.103 221.094 329.332L222.377 322.668C222.526 321.896 222.02 321.268 221.251 321.268H214.605C213.836 321.268 213.088 321.896 212.938 322.668L211.656 329.332C211.506 330.096 212.012 330.732 212.781 330.732Z" fill="#D7DEE2"/>
<path d="M196.02 330.732H202.666C203.435 330.732 204.183 330.103 204.333 329.332L205.615 322.668C205.765 321.896 205.259 321.268 204.489 321.268H197.843C197.074 321.268 196.326 321.896 196.176 322.668L194.894 329.332C194.745 330.096 195.25 330.732 196.02 330.732Z" fill="#D7DEE2"/>
<path d="M179.251 330.732H185.897C186.667 330.732 187.415 330.103 187.564 329.332L188.846 322.668C188.996 321.896 188.49 321.268 187.721 321.268H181.075C180.305 321.268 179.557 321.896 179.408 322.668L178.125 329.332C177.976 330.096 178.482 330.732 179.251 330.732Z" fill="#D7DEE2"/>
<path d="M112.19 330.732H118.837C119.606 330.732 120.354 330.103 120.504 329.332L121.786 322.668C121.935 321.896 121.43 321.268 120.66 321.268H114.014C113.245 321.268 112.497 321.896 112.347 322.668L111.065 329.332C110.915 330.096 111.421 330.732 112.19 330.732Z" fill="#B8C0CC"/>
<path d="M159.533 346.068H166.179C166.949 346.068 167.697 345.439 167.846 344.668L169.129 338.004C169.278 337.232 168.772 336.604 168.003 336.604H161.357C160.587 336.604 159.839 337.232 159.69 338.004L158.408 344.668C158.258 345.432 158.771 346.068 159.533 346.068Z" fill="#D7DEE2"/>
<path d="M142.772 346.068H149.418C150.187 346.068 150.935 345.439 151.085 344.668L152.367 338.004C152.517 337.232 152.011 336.604 151.241 336.604H144.595C143.826 336.604 143.078 337.232 142.928 338.004L141.646 344.668C141.496 345.432 142.002 346.068 142.772 346.068Z" fill="#D7DEE2"/>
<path d="M126.003 346.068H132.649C133.418 346.068 134.166 345.439 134.316 344.668L135.598 338.004C135.748 337.232 135.242 336.604 134.473 336.604H127.826C127.057 336.604 126.309 337.232 126.16 338.004L124.877 344.668C124.728 345.432 125.241 346.068 126.003 346.068Z" fill="#D7DEE2"/>
<path d="M209.832 346.068H216.478C217.248 346.068 217.996 345.439 218.145 344.668L219.427 338.004C219.577 337.232 219.071 336.604 218.302 336.604H211.656C210.886 336.604 210.138 337.232 209.989 338.004L208.707 344.668C208.557 345.432 209.063 346.068 209.832 346.068Z" fill="#D7DEE2"/>
<path d="M193.063 346.068H199.71C200.479 346.068 201.227 345.439 201.377 344.668L202.659 338.004C202.808 337.232 202.303 336.604 201.533 336.604H194.887C194.118 336.604 193.37 337.232 193.22 338.004L191.938 344.668C191.788 345.432 192.301 346.068 193.063 346.068Z" fill="#D7DEE2"/>
<path d="M176.302 346.068H182.948C183.717 346.068 184.465 345.439 184.615 344.668L185.897 338.004C186.047 337.232 185.541 336.604 184.772 336.604H178.125C177.356 336.604 176.608 337.232 176.459 338.004L175.176 344.668C175.027 345.432 175.533 346.068 176.302 346.068Z" fill="#D7DEE2"/>
<path d="M109.241 346.068H115.888C116.657 346.068 117.405 345.439 117.554 344.668L118.837 338.004C118.986 337.232 118.48 336.604 117.711 336.604H111.065C110.296 336.604 109.548 337.232 109.398 338.004L108.116 344.668C107.966 345.432 108.472 346.068 109.241 346.068Z" fill="#B8C0CC"/>
<path d="M156.755 360.532H163.401C164.171 360.532 164.919 359.904 165.068 359.132L166.35 352.468C166.5 351.697 165.994 351.068 165.225 351.068H158.579C157.809 351.068 157.061 351.697 156.912 352.468L155.629 359.132C155.48 359.904 155.986 360.532 156.755 360.532Z" fill="#D7DEE2"/>
<path d="M139.986 360.532H146.633C147.402 360.532 148.15 359.904 148.299 359.132L149.582 352.468C149.731 351.697 149.225 351.068 148.456 351.068H141.81C141.041 351.068 140.293 351.697 140.143 352.468L138.861 359.132C138.711 359.904 139.217 360.532 139.986 360.532Z" fill="#D7DEE2"/>
<path d="M123.225 360.532H129.871C130.64 360.532 131.388 359.904 131.538 359.132L132.82 352.468C132.97 351.697 132.464 351.068 131.695 351.068H125.048C124.279 351.068 123.531 351.697 123.381 352.468L122.099 359.132C121.95 359.904 122.455 360.532 123.225 360.532Z" fill="#D7DEE2"/>
<path d="M207.047 360.532H213.693C214.462 360.532 215.21 359.904 215.36 359.132L216.642 352.468C216.792 351.697 216.286 351.068 215.517 351.068H208.87C208.101 351.068 207.353 351.697 207.204 352.468L205.921 359.132C205.772 359.904 206.277 360.532 207.047 360.532Z" fill="#D7DEE2"/>
<path d="M190.285 360.532H196.932C197.701 360.532 198.449 359.904 198.598 359.132L199.881 352.468C200.03 351.697 199.524 351.068 198.755 351.068H192.109C191.34 351.068 190.592 351.697 190.442 352.468L189.16 359.132C189.01 359.904 189.516 360.532 190.285 360.532Z" fill="#D7DEE2"/>
<path d="M173.517 360.532H180.163C180.932 360.532 181.68 359.904 181.83 359.132L183.112 352.468C183.262 351.697 182.756 351.068 181.986 351.068H175.34C174.571 351.068 173.823 351.697 173.673 352.468L172.391 359.132C172.241 359.904 172.747 360.532 173.517 360.532Z" fill="#D7DEE2"/>
<path d="M202.88 292.76H220.482C220.738 292.76 220.952 292.546 220.952 292.289C220.952 292.031 220.738 291.817 220.482 291.817H202.88C202.623 291.817 202.409 292.031 202.409 292.289C202.402 292.553 202.616 292.76 202.88 292.76Z" fill="#D7DEE2"/>
<path d="M202.338 294.903H219.94C220.197 294.903 220.411 294.689 220.411 294.431C220.411 294.174 220.197 293.96 219.94 293.96H202.338C202.082 293.96 201.868 294.174 201.868 294.431C201.868 294.689 202.082 294.903 202.338 294.903Z" fill="#D7DEE2"/>
<path d="M221.757 276.846H227.798C228.289 276.846 228.695 276.438 228.695 275.946C228.695 275.453 228.289 275.046 227.798 275.046H221.757C221.265 275.046 220.859 275.453 220.859 275.946C220.852 276.438 221.258 276.846 221.757 276.846Z" fill="white"/>
<path d="M205.18 276.846H211.221C211.713 276.846 212.119 276.438 212.119 275.946C212.119 275.453 211.713 275.046 211.221 275.046H205.18C204.689 275.046 204.283 275.453 204.283 275.946C204.283 276.438 204.689 276.846 205.18 276.846Z" fill="white"/>
<path d="M188.604 276.846H194.645C195.136 276.846 195.542 276.438 195.542 275.946C195.542 275.453 195.136 275.046 194.645 275.046H188.604C188.113 275.046 187.707 275.453 187.707 275.946C187.707 276.438 188.113 276.846 188.604 276.846Z" fill="white"/>
<path d="M172.035 276.846H178.076C178.567 276.846 178.973 276.438 178.973 275.946C178.973 275.453 178.567 275.046 178.076 275.046H172.035C171.543 275.046 171.137 275.453 171.137 275.946C171.137 276.438 171.536 276.846 172.035 276.846Z" fill="white"/>
<path d="M155.458 276.846H161.499C161.991 276.846 162.397 276.438 162.397 275.946C162.397 275.453 161.991 275.046 161.499 275.046H155.458C154.967 275.046 154.561 275.453 154.561 275.946C154.561 276.438 154.967 276.846 155.458 276.846Z" fill="white"/>
<path d="M138.889 276.846H144.93C145.421 276.846 145.828 276.438 145.828 275.946C145.828 275.453 145.421 275.046 144.93 275.046H138.889C138.398 275.046 137.992 275.453 137.992 275.946C137.985 276.438 138.391 276.846 138.889 276.846Z" fill="white"/>
<path d="M122.313 276.846H128.354C128.845 276.846 129.251 276.438 129.251 275.946C129.251 275.453 128.845 275.046 128.354 275.046H122.313C121.821 275.046 121.415 275.453 121.415 275.946C121.415 276.438 121.821 276.846 122.313 276.846Z" fill="white"/>
<path d="M232.67 258.767C232.67 259.274 232.734 259.76 232.855 260.231C233.354 262.124 234.8 263.631 236.645 264.217C237.108 264.367 237.592 264.453 238.098 264.474V263.374C237.664 263.352 237.25 263.267 236.852 263.124C235.505 262.66 234.444 261.581 233.988 260.224C233.831 259.767 233.753 259.274 233.753 258.76C233.753 256.217 235.819 254.145 238.355 254.145C240.891 254.145 242.956 256.217 242.956 258.76H244.053C244.053 255.61 241.496 253.045 238.355 253.045C235.227 253.052 232.67 255.617 232.67 258.767Z" fill="#B8C0CC"/>
<path d="M212.24 258.767C212.24 259.274 212.304 259.76 212.425 260.231C212.924 262.124 214.37 263.631 216.215 264.217C216.678 264.367 217.162 264.453 217.668 264.474V263.374C217.233 263.352 216.82 263.267 216.421 263.124C215.075 262.66 214.014 261.581 213.558 260.224C213.401 259.767 213.323 259.274 213.323 258.76C213.323 256.217 215.388 254.145 217.924 254.145C220.46 254.145 222.526 256.217 222.526 258.76H223.616C223.616 255.61 221.059 253.045 217.917 253.045C214.797 253.052 212.24 255.617 212.24 258.767Z" fill="#B8C0CC"/>
<path d="M191.81 258.767C191.81 259.274 191.874 259.76 191.995 260.231C192.494 262.124 193.94 263.631 195.785 264.217C196.248 264.367 196.739 264.453 197.238 264.474V263.374C196.803 263.352 196.39 263.267 195.991 263.124C194.645 262.66 193.583 261.581 193.128 260.224C192.971 259.767 192.892 259.274 192.892 258.76C192.892 256.217 194.958 254.145 197.494 254.145C200.037 254.145 202.096 256.217 202.096 258.76H203.186C203.186 255.61 200.629 253.045 197.487 253.045C194.367 253.052 191.81 255.617 191.81 258.767Z" fill="#B8C0CC"/>
<path d="M171.38 258.767C171.38 259.274 171.444 259.76 171.572 260.231C172.07 262.124 173.517 263.631 175.362 264.217C175.825 264.367 176.316 264.453 176.815 264.474V263.374C176.38 263.352 175.967 263.267 175.568 263.124C174.222 262.66 173.16 261.581 172.704 260.224C172.548 259.767 172.469 259.274 172.469 258.76C172.469 256.217 174.535 254.145 177.071 254.145C179.607 254.145 181.673 256.217 181.673 258.76H182.77C182.77 255.61 180.213 253.045 177.071 253.045C173.937 253.052 171.38 255.617 171.38 258.767Z" fill="#B8C0CC"/>
<path d="M150.956 258.767C150.956 259.274 151.021 259.76 151.142 260.231C151.64 262.124 153.086 263.631 154.931 264.217C155.394 264.367 155.879 264.453 156.385 264.474V263.374C155.95 263.352 155.537 263.267 155.138 263.124C153.792 262.66 152.73 261.581 152.274 260.224C152.118 259.767 152.039 259.274 152.039 258.76C152.039 256.217 154.105 254.145 156.641 254.145C159.177 254.145 161.243 256.217 161.243 258.76H162.333C162.333 255.61 159.775 253.045 156.634 253.045C153.507 253.052 150.956 255.617 150.956 258.767Z" fill="#B8C0CC"/>
<path d="M130.526 258.767C130.526 259.274 130.59 259.76 130.712 260.231C131.21 262.124 132.656 263.631 134.501 264.217C134.964 264.367 135.449 264.453 135.954 264.474V263.374C135.52 263.352 135.107 263.267 134.708 263.124C133.361 262.66 132.3 261.581 131.844 260.224C131.687 259.767 131.609 259.274 131.609 258.76C131.609 256.217 133.675 254.145 136.211 254.145C138.754 254.145 140.813 256.217 140.813 258.76H141.91C141.91 255.61 139.352 253.045 136.211 253.045C133.084 253.052 130.526 255.617 130.526 258.767Z" fill="#B8C0CC"/>
<path d="M110.125 258.181C110.053 258.888 110.117 259.581 110.281 260.224C110.78 262.117 112.226 263.624 114.071 264.21C114.534 264.36 115.018 264.445 115.524 264.467V263.367C115.09 263.345 114.677 263.26 114.278 263.117C112.931 262.653 111.87 261.574 111.414 260.217C111.243 259.717 111.165 259.174 111.179 258.61C111.25 256.238 113.181 254.267 115.538 254.145C118.188 254.01 120.382 256.131 120.382 258.752H121.479C121.479 255.388 118.573 252.702 115.147 253.074C112.518 253.374 110.388 255.531 110.125 258.181Z" fill="#B8C0CC"/>
<path d="M344.712 313.049C344.697 345.081 318.788 371.045 286.846 371.045C254.904 371.045 229.019 345.081 229.034 313.049C229.048 281.017 254.957 255.053 286.899 255.053C318.841 255.053 344.726 281.017 344.712 313.049Z" fill="#D7DEE2" stroke="#979FA5" stroke-miterlimit="10"/>
<path d="M291.647 361.447C318.302 358.809 337.778 335.004 335.148 308.276C332.518 281.549 308.778 262.02 282.123 264.657C255.468 267.294 235.992 291.099 238.622 317.827C241.252 344.555 264.992 364.084 291.647 361.447Z" fill="white"/>
<path d="M261.986 278.832C262.601 279.607 262.469 280.735 261.696 281.352C260.922 281.969 259.798 281.836 259.183 281.061C258.567 280.286 258.699 279.158 259.473 278.541C260.246 277.924 261.37 278.056 261.986 278.832Z" fill="#D7DEE2"/>
<path d="M248.243 295.89C249.165 296.251 249.613 297.291 249.253 298.216C248.893 299.141 247.856 299.591 246.933 299.229C246.011 298.868 245.563 297.828 245.923 296.903C246.292 295.978 247.329 295.529 248.243 295.89Z" fill="#D7DEE2"/>
<path d="M244.851 317.548C245.826 317.398 246.74 318.076 246.881 319.054C247.03 320.032 246.353 320.949 245.378 321.09C244.403 321.239 243.489 320.561 243.348 319.583C243.208 318.605 243.875 317.697 244.851 317.548Z" fill="#D7DEE2"/>
<path d="M252.715 338.007C253.488 337.39 254.613 337.522 255.228 338.298C255.843 339.073 255.712 340.201 254.938 340.818C254.165 341.434 253.04 341.302 252.425 340.527C251.81 339.751 251.942 338.624 252.715 338.007Z" fill="#D7DEE2"/>
<path d="M269.727 351.787C270.087 350.862 271.124 350.413 272.047 350.774C272.969 351.135 273.418 352.175 273.057 353.1C272.697 354.025 271.66 354.475 270.737 354.114C269.815 353.743 269.367 352.704 269.727 351.787Z" fill="#D7DEE2"/>
<path d="M291.334 355.188C291.185 354.21 291.862 353.294 292.837 353.153C293.812 353.003 294.726 353.682 294.867 354.66C295.016 355.638 294.34 356.554 293.364 356.695C292.389 356.836 291.475 356.166 291.334 355.188Z" fill="#D7DEE2"/>
<path d="M311.729 347.303C311.114 346.527 311.246 345.399 312.019 344.783C312.792 344.166 313.917 344.298 314.532 345.073C315.147 345.849 315.016 346.977 314.242 347.593C313.478 348.201 312.344 348.078 311.729 347.303Z" fill="#D7DEE2"/>
<path d="M325.472 330.244C324.55 329.883 324.101 328.843 324.462 327.918C324.822 326.993 325.859 326.544 326.781 326.905C327.704 327.266 328.152 328.306 327.792 329.231C327.432 330.156 326.395 330.606 325.472 330.244Z" fill="#D7DEE2"/>
<path d="M328.864 308.587C327.889 308.737 326.975 308.058 326.834 307.08C326.685 306.102 327.361 305.186 328.337 305.045C329.312 304.895 330.226 305.573 330.367 306.551C330.516 307.521 329.839 308.437 328.864 308.587Z" fill="#D7DEE2"/>
<path d="M320.999 288.127C320.226 288.744 319.101 288.612 318.486 287.837C317.871 287.061 318.003 285.933 318.776 285.317C319.55 284.7 320.674 284.832 321.289 285.607C321.905 286.374 321.773 287.511 320.999 288.127Z" fill="#D7DEE2"/>
<path d="M303.988 274.347C303.628 275.272 302.591 275.721 301.668 275.36C300.745 274.999 300.297 273.959 300.658 273.034C301.018 272.109 302.055 271.66 302.977 272.021C303.9 272.382 304.348 273.431 303.988 274.347Z" fill="#D7DEE2"/>
<path d="M282.389 270.946C282.539 271.924 281.862 272.84 280.887 272.981C279.911 273.131 278.997 272.453 278.857 271.474C278.707 270.496 279.384 269.58 280.359 269.439C281.335 269.289 282.24 269.968 282.389 270.946Z" fill="#D7DEE2"/>
<path d="M285.235 310.782L263.146 314.053L263.69 317.749L285.779 314.478L285.235 310.782Z" fill="#979FA5"/>
<path d="M298.432 280.43L285.519 311.497L288.074 312.564L300.987 281.498L298.432 280.43Z" fill="#979FA5"/>
<path d="M293.514 307.758C296.44 311.442 295.824 316.807 292.152 319.733C288.479 322.667 283.127 322.05 280.21 318.367C277.284 314.684 277.899 309.318 281.572 306.393C285.245 303.467 290.587 304.075 293.514 307.758Z" fill="#D7DEE2"/>
<path d="M352.516 372H386.514C393.963 372 400 365.962 400 358.512V324.51C400 299.926 380.077 280 355.495 280H352.505C327.923 280 308 299.926 308 324.51V327.501C308.011 352.074 327.934 372 352.516 372Z" fill="white"/>
<path opacity="0.4" d="M386.912 326V358.057C386.912 365.751 380.747 372 373.132 372H386.22C393.835 372 400 365.751 400 358.057V326C400 300.593 379.648 280 354.538 280C352.319 280 350.132 280.156 348 280.478C370 283.68 386.912 302.839 386.912 326Z" fill="#6772E5" fill-opacity="0.4"/>
<path d="M352.499 282.224C329.182 282.224 310.213 301.193 310.213 324.51V327.501C310.213 350.818 329.182 369.787 352.499 369.787H386.501C392.717 369.787 397.765 364.739 397.765 358.524V324.521C397.765 301.204 378.796 282.235 355.479 282.235H352.499V282.224ZM352.499 280H355.49C380.074 280 400 299.926 400 324.51V358.512C400 365.962 393.962 372 386.512 372H352.51C327.926 372 308 352.074 308 327.49V324.499C307.989 299.926 327.914 280 352.499 280Z" fill="#6772E5"/>
<path d="M329 315C329 312.791 327.209 311 325 311C322.791 311 321 312.791 321 315" stroke="#D7DEE2" stroke-width="2" stroke-linecap="round"/>
<path d="M350 315C350 312.791 348.209 311 346 311C343.791 311 342 312.791 342 315" stroke="#D7DEE2" stroke-width="2" stroke-linecap="round"/>
<path d="M340 354C340 353.448 340.448 353 341 353H371C371.552 353 372 353.448 372 354V368C372 369.657 370.657 371 369 371H343C341.343 371 340 369.657 340 368V354Z" fill="white" stroke="#B8C0CC" stroke-width="2"/>
<path d="M340 354C340 353.448 340.448 353 341 353H371C371.552 353 372 353.448 372 354V359C372 361.761 369.761 364 367 364H345C342.239 364 340 361.761 340 359L340 354Z" fill="white" stroke="#B8C0CC" stroke-width="2"/>
<path d="M350 352C350 352.552 350.448 353 351 353H361C361.552 353 362 352.552 362 352V350C362 348.343 360.657 347 359 347H353C351.343 347 350 348.343 350 350V352Z" fill="white" stroke="#B8C0CC" stroke-width="2"/>
<rect x="351" y="360" width="10" height="2" rx="1" fill="#6772E5"/>
<path d="M339 333C338.088 334.214 336.636 335 335 335C333.364 335 331.912 334.214 331 333" stroke="#D7DEE2" stroke-width="2" stroke-linecap="round"/>
<path d="M366 327C365.462 331.667 363.308 342.6 359 349" stroke="#6772E5" stroke-width="2" stroke-linecap="round"/>
<circle cx="359" cy="348" r="4" fill="#6772E5"/>
<path d="M89.9999 344.555C97.1475 347.907 113.325 345.706 122.328 335.003C131.33 324.299 133.376 317.855 135 312" stroke="#B8C0CC" stroke-width="2" stroke-linecap="round"/>
<circle cx="135" cy="312" r="4" fill="#B8C0CC"/>
<path d="M74.643 371.977H40.539C33.0669 371.977 27.0112 365.906 27.0112 358.416V324.228C27.0112 299.51 46.9963 279.476 71.6542 279.476H74.6542C99.3121 279.476 119.297 299.51 119.297 324.228V327.236C119.275 351.943 99.2898 371.977 74.643 371.977Z" fill="white"/>
<path opacity="0.4" d="M40.2824 325.737V357.968C40.2824 365.705 46.5389 371.988 54.2675 371.988H40.985C33.2564 371.988 26.9999 365.705 26.9999 357.968V325.737C26.9999 300.192 47.6541 279.487 73.1373 279.487C75.3901 279.487 77.6094 279.643 79.773 279.968C57.4459 283.187 40.2824 302.45 40.2824 325.737Z" fill="#B8C0CC" fill-opacity="0.4"/>
<path d="M71.6425 281.723C48.256 281.723 29.2299 300.796 29.2299 324.24V358.427C29.2299 364.677 34.2931 369.752 40.5273 369.752H74.6314C98.018 369.752 117.044 350.68 117.044 327.236V324.229C117.044 300.785 98.018 281.712 74.6314 281.712H71.6425V281.723ZM71.6425 279.487H74.6425C99.3005 279.487 119.286 299.521 119.286 324.24V327.247C119.286 351.965 99.3005 371.999 74.6425 371.999H40.5385C33.0664 371.999 27.0106 365.929 27.0106 358.438V324.251C26.9994 299.521 46.9846 279.487 71.6425 279.487Z" fill="#B8C0CC"/>
<path d="M88.2689 332C88.2689 334.761 90.9552 337 94.2689 337C97.5826 337 100.269 334.761 100.269 332" stroke="#D7DEE2" stroke-width="2" stroke-linecap="round"/>
<rect width="6.20523" height="6.20523" transform="matrix(-0.477325 -0.878727 -0.899331 0.437269 110.028 314.269)" fill="#E64C3C"/>
<circle r="3.10262" transform="matrix(-0.477325 -0.878727 -0.899331 0.437269 104.268 310.158)" fill="#E64C3C"/>
<circle r="2.60262" transform="matrix(-0.477324 -0.878728 -0.89933 0.437271 108.533 311.55)" fill="#E64C3C" stroke="#E64C3C"/>
<rect width="6.20523" height="6.20523" transform="matrix(0.477325 -0.878727 0.899331 0.437269 75.927 314.269)" fill="#E64C3C"/>
<circle r="3.10262" transform="matrix(0.477325 -0.878727 0.899331 0.437269 81.6871 310.158)" fill="#E64C3C"/>
<circle r="2.60262" transform="matrix(0.477324 -0.878728 0.89933 0.437271 77.4228 311.55)" fill="#E64C3C" stroke="#E64C3C"/>
</svg>
