<svg width="105" height="105" viewBox="0 0 105 105" fill="none" xmlns="http://www.w3.org/2000/svg">
<circle cx="52.5" cy="52.5" r="52.5" fill="#F0F4F7"/>
<path d="M26 40C26 37.7909 27.7909 36 30 36H61.7347H80.102H89.2857H93.1755C93.1772 36.0143 93.1788 36.0288 93.1804 36.0433C93.1881 36.1137 93.1939 36.1836 93.1978 36.2502C92.4675 36.5952 91.7942 37.0113 91.2648 37.5197C90.5998 38.1583 90.1225 38.9859 90.1225 40C90.1225 41.0141 90.5998 41.8417 91.2648 42.4803C91.7942 42.9887 92.4675 43.4048 93.1978 43.7498C93.1939 43.8164 93.1881 43.8863 93.1804 43.9567C93.1788 43.9712 93.1772 43.9857 93.1755 44H89.2857H80.102H61.7347H30C27.7909 44 26 42.2091 26 40Z" fill="white" stroke="#B8C0CC" stroke-width="2"/>
<path d="M21 63V51C21 48.2386 23.2386 46 26 46H65H87.5H98.75H103.5C102.119 46 101 47.1193 101 48.5V65.5C101 66.8807 102.119 68 103.5 68H98.75H87.5H65H26C23.2386 68 21 65.7614 21 63Z" fill="white" stroke="#B8C0CC" stroke-width="2" stroke-linecap="round"/>
<path d="M13 77C13 73.134 16.134 70 20 70H57H79.5H90.75H95.7876C95.7994 70.0547 95.8104 70.1121 95.8201 70.1709C95.8407 70.2953 95.8538 70.4127 95.8602 70.5132C93.7875 71.8234 92 73.8812 92 77C92 80.1188 93.7875 82.1766 95.8602 83.4868C95.8538 83.5873 95.8407 83.7047 95.8201 83.8291C95.8104 83.8879 95.7994 83.9453 95.7876 84H90.75H79.5H57H20C16.134 84 13 80.866 13 77Z" fill="white" stroke="#B8C0CC" stroke-width="2"/>
<path d="M28 86H63H85.5H96.75H101.5C100.119 86 99 87.1193 99 88.5V101.5C99 102.881 100.119 104 101.5 104H96.75H85.5H63H28C23.0294 104 19 99.9706 19 95C19 90.0294 23.0294 86 28 86Z" fill="white" stroke="#B8C0CC" stroke-width="2" stroke-linecap="round"/>
<path d="M88 93H80" stroke="#B8C0CC" stroke-width="2" stroke-linecap="round"/>
<path d="M75 77H67" stroke="#B8C0CC" stroke-width="2" stroke-linecap="round"/>
<path d="M63 99L43 99" stroke="#B8C0CC" stroke-width="2" stroke-linecap="round"/>
<path d="M54 77L34 77" stroke="#B8C0CC" stroke-width="2" stroke-linecap="round"/>
<path d="M89 56H46" stroke="#B8C0CC" stroke-width="2" stroke-linecap="round"/>
<path d="M28 77H34V90L32.2 88.65C31.4889 88.1167 30.5111 88.1167 29.8 88.65L28 90L28 77Z" fill="white" stroke="#6772E5" stroke-width="2"/>
</svg>
