<svg width="105" height="105" viewBox="0 0 105 105" fill="none" xmlns="http://www.w3.org/2000/svg">
<circle cx="52.5" cy="52.5" r="52.5" fill="#F0F4F7"/>
<rect x="40" y="26" width="54" height="78" rx="5" fill="white" stroke="#B8C0CC" stroke-width="2"/>
<path d="M75.3333 51C75.3333 55.9873 71.3658 60 66.5088 60C61.6517 60 57.6842 55.9873 57.6842 51C57.6842 46.0127 61.6517 42 66.5088 42C71.3658 42 75.3333 46.0127 75.3333 51Z" stroke="#B8C0CC" stroke-width="2"/>
<path d="M63.044 39.5396L66.8233 35.3081L70.6027 39.5396L67.5203 42.9907C67.1406 43.4158 66.5051 43.4147 66.1242 42.9883L63.044 39.5396Z" fill="#FF2E63"/>
<ellipse rx="2.87998" ry="2.94042" transform="matrix(0.747801 -0.663923 0.613186 0.789938 64.7672 37.2349)" fill="#FF2E63"/>
<ellipse rx="2.87998" ry="2.94042" transform="matrix(0.747801 -0.663923 0.613186 0.789938 68.8901 37.2349)" fill="#FF2E63"/>
<path d="M46.8596 95L86.1579 95" stroke="#B8C0CC" stroke-width="2" stroke-linecap="round"/>
<rect x="52.2719" y="69.5" width="28.4737" height="1" rx="0.5" stroke="#B8C0CC"/>
<rect x="52.2719" y="77.5" width="28.4737" height="1" rx="0.5" stroke="#B8C0CC"/>
<rect x="52.2719" y="85.5" width="20.614" height="1" rx="0.5" stroke="#B8C0CC"/>
<path d="M81.253 86.39C81.0535 86.6218 80.6944 86.6217 80.495 86.3898L78.7356 84.344C78.4637 84.0279 77.9746 84.0271 77.7016 84.3422C77.48 84.5981 77.4793 84.9778 77.7001 85.2345L80.4948 88.4841C80.6943 88.7161 81.0535 88.7161 81.253 88.4841L88.1304 80.4874C88.3499 80.2322 88.3499 79.8549 88.1304 79.5997C87.8589 79.2841 87.3702 79.284 87.0985 79.5995L81.253 86.39Z" fill="#FF2E63" stroke="#FF2E63"/>
</svg>
