<svg width="34" height="34" viewBox="0 0 34 34" fill="none" xmlns="http://www.w3.org/2000/svg">
<path d="M27.4831 30.1971V30.9947C27.4831 31.5499 27.0331 32 26.4779 32H2.00523C1.45006 32 1 31.5499 1 30.9947V30.1971C1 22.884 6.92845 16.9556 14.2416 16.9556C21.5547 16.9556 27.4831 22.884 27.4831 30.1971Z" fill="white" stroke="#B8C0CC" stroke-width="2" stroke-linecap="round"/>
<path d="M20.3552 7.06719C20.3552 10.4112 17.6227 13.1344 14.2368 13.1344C10.8509 13.1344 8.11838 10.4112 8.11838 7.06719C8.11838 3.72317 10.8509 1 14.2368 1C17.6227 1 20.3552 3.72317 20.3552 7.06719Z" fill="white" stroke="#B8C0CC" stroke-width="2"/>
<path d="M12.5573 26.3047L13.9598 17.5392C14.0496 16.9779 14.8574 16.9779 14.9473 17.5392L16.3497 26.3047C16.3696 26.4291 16.3419 26.5563 16.272 26.6611L14.7032 29.0144C14.5844 29.1925 14.3227 29.1925 14.2039 29.0144L12.635 26.6611C12.5652 26.5563 12.5374 26.4291 12.5573 26.3047Z" stroke="#B8C0CC" stroke-width="2"/>
<path d="M22.6164 13.1536C22.6379 13.0635 22.7184 13 22.8109 13H27.5328C27.6608 13 27.7559 13.1186 27.728 13.2435L26.5985 18.3121C26.5706 18.437 26.6657 18.5556 26.7937 18.5556H32.6237C32.784 18.5556 32.8791 18.7346 32.7895 18.8675L23.8235 32.1504C23.7006 32.3325 23.4166 32.2121 23.462 31.9972L25.0782 24.3525C25.1045 24.2281 25.0097 24.1111 24.8825 24.1111H20.2534C20.1241 24.1111 20.0288 23.9904 20.0588 23.8647L21.3265 18.5556L22.6164 13.1536Z" fill="white" stroke="#FF2E63" stroke-width="2"/>
</svg>
