<svg width="24" height="24" viewBox="0 0 24 24" fill="none" xmlns="http://www.w3.org/2000/svg">
<path d="M16.7406 1H7.2594C6.28771 1 5.5 1.79345 5.5 2.77222V21.2278C5.5 22.2066 6.28771 23 7.2594 23H16.7406C17.7123 23 18.5 22.2066 18.5 21.2278V2.77222C18.5 1.79345 17.7123 1 16.7406 1Z" fill="white" stroke="#FF2E63" stroke-width="1.5" stroke-linecap="round" stroke-linejoin="round"/>
<path d="M10 4H14" stroke="#FF2E63" stroke-width="1.5" stroke-linecap="round"/>
<path d="M12 21C12.5523 21 13 20.5523 13 20C13 19.4477 12.5523 19 12 19C11.4477 19 11 19.4477 11 20C11 20.5523 11.4477 21 12 21Z" fill="#FF2E63"/>
</svg>
