<svg width="69" height="72" viewBox="0 0 69 72" fill="none" xmlns="http://www.w3.org/2000/svg">
<g clip-path="url(#clip0)">
<path d="M67.6284 71.027H1.10863L4.55012 36H64.2881L67.6284 71.027Z" stroke="#B8C0CC" stroke-width="1.88" stroke-miterlimit="10" stroke-linejoin="round"/>
<path d="M47.7109 46.9456L31.9766 25.2461L31.0425 15.9777L34.0591 8.40149L38.2829 4.13538L42.582 2.07604L47.548 0.972656L51.1039 1.70794L58.1932 4.7974L62.4171 10.1669L64.3024 16.7139L63.2948 27.4427L47.7109 46.9456Z" fill="white"/>
<path d="M64.3024 18.4424C64.3024 30.8551 47.4382 46.9456 47.4382 46.9456C47.4382 46.9456 31.0425 30.8551 31.0425 18.4424C31.0425 9.55582 37.1323 0.972656 47.4382 0.972656C57.744 0.972656 64.3024 9.55582 64.3024 18.4424Z" stroke="#FF2E63" stroke-width="1.88"/>
<path d="M47.6725 22.8649C50.734 22.8649 53.2158 20.4146 53.2158 17.3919C53.2158 14.3693 50.734 11.9189 47.6725 11.9189C44.611 11.9189 42.1292 14.3693 42.1292 17.3919C42.1292 20.4146 44.611 22.8649 47.6725 22.8649Z" stroke="#FF2E63" stroke-width="1.88"/>
<path d="M26.514 58.1995L7.94956 32.282L6.84754 21.2119L10.4066 12.1629L15.3903 7.06755L20.4624 4.6079L26.3217 3.29004L30.5173 4.16825L38.8816 7.85826L43.8653 14.2715L46.0896 22.0911L44.9008 34.9055L26.514 58.1995Z" fill="white"/>
<path d="M46.5638 24.5063C46.5638 39.2833 26.3268 58.4387 26.3268 58.4387C26.3268 58.4387 6.65195 39.2833 6.65195 24.5063C6.65195 13.927 13.9598 3.70898 26.3268 3.70898C38.6939 3.70898 46.5638 13.927 46.5638 24.5063Z" stroke="#FF2E63" stroke-width="1.88"/>
<path d="M26.6079 29.432C30.2817 29.432 33.2599 26.4916 33.2599 22.8644C33.2599 19.2373 30.2817 16.2969 26.6079 16.2969C22.9341 16.2969 19.9559 19.2373 19.9559 22.8644C19.9559 26.4916 22.9341 29.432 26.6079 29.432Z" stroke="#FF2E63" stroke-width="1.88"/>
</g>
<defs>
<clipPath id="clip0">
<rect width="68.9834" height="72" fill="white"/>
</clipPath>
</defs>
</svg>
