<svg width="105" height="105" viewBox="0 0 105 105" fill="none" xmlns="http://www.w3.org/2000/svg">
<circle cx="52.5" cy="52.5" r="52.5" fill="#F0F4F7"/>
<rect x="36" y="26" width="58" height="78" rx="5" fill="white" stroke="#B8C0CC" stroke-width="2"/>
<path d="M52.5766 41.3066C52.3126 39.9821 52.9662 38.6445 54.1734 38.0388L56.6546 36.7938C57.5012 36.3691 58.4988 36.3691 59.3454 36.7938L62.3092 38.2809C64.0025 39.1305 65.9975 39.1305 67.6908 38.2809L70.6546 36.7938C71.5012 36.3691 72.4988 36.3691 73.3454 36.7938L75.8266 38.0388C77.0338 38.6445 77.6874 39.9821 77.4234 41.3066L76.4375 46.2531C76.3039 46.9235 76.2859 47.6118 76.3841 48.2882L77.1181 53.3419C77.6099 56.7281 76.1389 60.1004 73.3224 62.0436L66.7036 66.6098C65.6781 67.3173 64.3219 67.3173 63.2964 66.6098L56.6776 62.0436C53.8611 60.1004 52.3901 56.7281 52.8819 53.3419L53.6159 48.2882C53.7141 47.6118 53.6961 46.9235 53.5625 46.2531L52.5766 41.3066Z" fill="white" stroke="#B8C0CC" stroke-width="2"/>
<path d="M58.5671 49.9098L62.0283 49.9098C62.8948 49.9098 63.6627 49.3519 63.9304 48.5279L65 45.2361L66.0696 48.5279C66.3373 49.3519 67.1052 49.9098 67.9717 49.9098H71.4329L68.6327 51.9443C67.9317 52.4536 67.6384 53.3563 67.9062 54.1803L68.9757 57.4721L66.1756 55.4377C65.4746 54.9284 64.5254 54.9284 63.8244 55.4377L61.0243 57.4721L62.0938 54.1803C62.3616 53.3563 62.0683 52.4536 61.3673 51.9443L58.5671 49.9098ZM58.5671 49.9098V48.9098L58.5671 49.9098L57.9793 50.7188L58.5671 49.9098Z" stroke="#6772E5" stroke-width="2"/>
<path d="M48 76H82" stroke="#B8C0CC" stroke-width="2" stroke-linecap="round"/>
<path d="M48 82H82" stroke="#B8C0CC" stroke-width="2" stroke-linecap="round"/>
<path d="M48 88H82" stroke="#B8C0CC" stroke-width="2" stroke-linecap="round"/>
</svg>
