<svg width="24" height="24" viewBox="0 0 24 24" fill="none" xmlns="http://www.w3.org/2000/svg">
<path d="M16.7406 1H7.2594C6.28771 1 5.5 1.79345 5.5 2.77222V21.2278C5.5 22.2066 6.28771 23 7.2594 23H16.7406C17.7123 23 18.5 22.2066 18.5 21.2278V2.77222C18.5 1.79345 17.7123 1 16.7406 1Z" fill="white" stroke="#FF2E63" stroke-width="1.5" stroke-linecap="round" stroke-linejoin="round"/>
<path d="M12.0518 15.9973C12.2381 15.9973 12.4167 15.9338 12.5483 15.8207C12.68 15.7076 12.754 15.5542 12.754 15.3943V15.0286C13.3613 14.9973 13.9317 14.7682 14.3491 14.3881C14.7664 14.008 14.9992 13.5055 15 12.983V12.9229C14.999 12.3798 14.7474 11.8592 14.3002 11.4752C13.8531 11.0911 13.2469 10.875 12.6145 10.8742H11.4218C11.1735 10.8587 10.9412 10.7631 10.7717 10.6065C10.6021 10.4499 10.5079 10.244 10.5079 10.0302C10.5079 9.81638 10.6021 9.61053 10.7717 9.45396C10.9412 9.29739 11.1735 9.2017 11.4218 9.1862H13.1632C13.2658 9.18632 13.364 9.2214 13.4365 9.28368C13.5091 9.34596 13.5499 9.43041 13.55 9.51849V9.53273C13.5487 9.68804 13.6172 9.83779 13.7413 9.95076C13.8654 10.0637 14.0355 10.1312 14.2161 10.139C14.3967 10.1469 14.5739 10.0946 14.7106 9.993C14.8474 9.8914 14.9332 9.74836 14.9502 9.59373V9.58438C14.9605 9.38258 14.9244 9.18105 14.844 8.99124C14.7635 8.80143 14.6403 8.62708 14.4814 8.47818C14.3224 8.32928 14.1309 8.20874 13.9177 8.12344C13.7045 8.03814 13.4739 7.98975 13.2389 7.98105H13.1621H12.7545V7.6194C12.7571 7.53886 12.7408 7.45872 12.7067 7.38367C12.6725 7.30862 12.6212 7.2402 12.5558 7.18246C12.4904 7.12471 12.4122 7.0788 12.3258 7.04746C12.2393 7.01612 12.1464 7 12.0526 7C11.9588 7 11.8659 7.01612 11.7795 7.04746C11.6931 7.0788 11.6148 7.12471 11.5494 7.18246C11.484 7.2402 11.4327 7.30862 11.3986 7.38367C11.3644 7.45872 11.3482 7.53886 11.3507 7.6194V7.98235C11.0374 7.9863 10.7282 8.04325 10.4405 8.14986C10.1529 8.25646 9.89244 8.41068 9.67418 8.60371C9.45592 8.79675 9.28409 9.0248 9.16845 9.27487C9.05282 9.52495 8.99566 9.79214 9.00026 10.0612C9.00485 10.3302 9.0711 10.5958 9.19523 10.8429C9.31936 11.0899 9.49892 11.3136 9.72368 11.501C9.94845 11.6885 10.214 11.8361 10.5052 11.9354C10.7964 12.0347 11.1075 12.0838 11.4207 12.0798H12.6135C12.7429 12.0798 12.871 12.1017 12.9905 12.1442C13.11 12.1868 13.2187 12.2491 13.3102 12.3277C13.4017 12.4063 13.4743 12.4995 13.5238 12.6022C13.5733 12.7048 13.5988 12.8149 13.5988 12.926V12.9866C13.598 13.2106 13.4938 13.4251 13.3091 13.5832C13.1244 13.7413 12.8743 13.8301 12.6135 13.8301H10.8441C10.7933 13.8302 10.743 13.8216 10.6961 13.805C10.6492 13.7883 10.6065 13.7639 10.5706 13.7331C10.5346 13.7023 10.5061 13.6657 10.4867 13.6254C10.4672 13.5851 10.4572 13.5419 10.4572 13.4983V13.4925V13.4302C10.457 13.2723 10.3846 13.1209 10.2557 13.0083C10.1269 12.8957 9.95183 12.831 9.76806 12.8281C9.58429 12.8252 9.40651 12.8843 9.2729 12.9927C9.13929 13.1011 9.06049 13.2502 9.05343 13.4079V13.4707C9.0491 13.6726 9.09113 13.8732 9.17713 14.0612C9.26312 14.2491 9.39139 14.4206 9.5546 14.566C9.71781 14.7113 9.91276 14.8276 10.1283 14.9082C10.3439 14.9888 10.5758 15.0322 10.8109 15.0357H11.3492V15.3974C11.3493 15.5573 11.4234 15.7105 11.555 15.8235C11.6867 15.9365 11.8652 16 12.0513 16L12.0518 15.9973Z" fill="#FF2E63"/>
<path d="M10 4H14" stroke="#FF2E63" stroke-width="1.5" stroke-linecap="round"/>
<path d="M12 21C12.5523 21 13 20.5523 13 20C13 19.4477 12.5523 19 12 19C11.4477 19 11 19.4477 11 20C11 20.5523 11.4477 21 12 21Z" fill="#FF2E63"/>
</svg>
