<svg width="104" height="104" viewBox="0 0 104 104" fill="none" xmlns="http://www.w3.org/2000/svg">
<circle cx="52" cy="52" r="52" fill="#F0F4F7"/>
<path d="M83 52C83 56.9016 81.8631 61.5348 79.8396 65.6529C79.6481 66.0426 79.5833 66.4892 79.6681 66.9263L82.681 82.4524L70.4172 77.9638C69.8188 77.7447 69.1624 77.8273 68.6394 78.1606C63.8327 81.2246 58.1252 83 52 83C34.8792 83 21 69.1208 21 52C21 34.8792 34.8792 21 52 21C69.1208 21 83 34.8792 83 52Z" fill="white" stroke="#B8C0CC" stroke-width="2"/>
<path d="M45 69.1037C45 61.9144 50.8299 56 58 56C65.1701 56 71 61.9144 71 69.1037C71 69.6006 70.5954 70 70.1176 70H45.8824C45.4046 70 45 69.6006 45 69.1037Z" fill="white" stroke="#6772E5" stroke-width="2"/>
<path d="M64 46C64 49.3137 61.3137 52 58 52C54.6863 52 52 49.3137 52 46C52 42.6863 54.6863 40 58 40C61.3137 40 64 42.6863 64 46Z" fill="white" stroke="#6772E5" stroke-width="2" stroke-miterlimit="10" stroke-linecap="round"/>
<mask id="mask0" mask-type="alpha" maskUnits="userSpaceOnUse" x="33" y="35" width="18" height="17">
<path d="M42 52C46.6944 52 50.5 48.1944 50.5 43.5C50.5 38.8056 46.6944 35 42 35C37.3056 35 33.5 38.8056 33.5 43.5C33.5 48.1944 37.3056 52 42 52Z" fill="white"/>
</mask>
<g mask="url(#mask0)">
<path d="M42 36.3828L43.0719 39.8466C43.3311 40.6842 44.1057 41.2553 44.9825 41.2553L48.551 41.2553L45.5814 43.5207C44.9144 44.0296 44.6358 44.9006 44.8838 45.7021L45.9981 49.3029L43.2131 47.1783C42.4967 46.6318 41.5033 46.6318 40.7869 47.1783L38.0019 49.3029L39.1162 45.7021C39.3642 44.9006 39.0856 44.0296 38.4186 43.5207L35.449 41.2553L39.0175 41.2553C39.8943 41.2553 40.6689 40.6842 40.9281 39.8466L42 36.3828Z" fill="white" stroke="#B8C0CC" stroke-width="2"/>
</g>
</svg>
