<svg width="104" height="104" viewBox="0 0 104 104" fill="none" xmlns="http://www.w3.org/2000/svg">
<circle cx="52" cy="52" r="52" fill="#F0F4F7"/>
<path d="M83 52C83 56.9016 81.8631 61.5348 79.8396 65.6529C79.6481 66.0426 79.5833 66.4892 79.6681 66.9263L82.681 82.4524L70.4172 77.9638C69.8188 77.7447 69.1624 77.8273 68.6394 78.1606C63.8327 81.2246 58.1252 83 52 83C34.8792 83 21 69.1208 21 52C21 34.8792 34.8792 21 52 21C69.1208 21 83 34.8792 83 52Z" fill="white" stroke="#B8C0CC" stroke-width="2"/>
<path d="M42 35.7062L41.8089 35.7653L41.809 35.7657C41.809 35.7655 41.809 35.7654 41.8089 35.7653L42 35.7062ZM42 35.7062L42.1911 35.7653L42.191 35.7657C42.191 35.7656 42.191 35.7654 42.1911 35.7653L42 35.7062ZM40.8845 39.9874L42 36.3828L43.1155 39.9874C43.3487 40.7413 44.0459 41.2553 44.835 41.2553H48.551L45.4704 43.6054C44.87 44.0634 44.6193 44.8474 44.8426 45.5687L45.9981 49.3029L43.0918 47.0857C42.447 46.5939 41.553 46.5939 40.9082 47.0857L38.0019 49.3029L39.1574 45.5687C39.3806 44.8474 39.13 44.0634 38.5296 43.6054L35.449 41.2553H39.165C39.9541 41.2553 40.6513 40.7413 40.8845 39.9874Z" fill="white" stroke="#B8C0CC" stroke-width="2"/>
<path d="M64 46C64 49.3137 61.3137 52 58 52C54.6863 52 52 49.3137 52 46C52 42.6863 54.6863 40 58 40C61.3137 40 64 42.6863 64 46Z" fill="white" stroke="#6772E5" stroke-width="2" stroke-miterlimit="10" stroke-linecap="round"/>
<path d="M45 69.1037C45 61.9144 50.8299 56 58 56C65.1701 56 71 61.9144 71 69.1037C71 69.6006 70.5954 70 70.1176 70H45.8824C45.4046 70 45 69.6006 45 69.1037Z" fill="white" stroke="#6772E5" stroke-width="2"/>
</svg>
