<svg width="36" height="37" viewBox="0 0 36 37" fill="none" xmlns="http://www.w3.org/2000/svg">
<path d="M27.5624 30.2812V31.081C27.5624 31.6393 27.1098 32.0918 26.5516 32.0918H2.01081C1.45255 32.0918 1 31.6393 1 31.081V30.2812C1 22.9462 6.9462 17 14.2812 17C21.6162 17 27.5624 22.9462 27.5624 30.2812Z" fill="white" stroke="#B8C0CC" stroke-width="2" stroke-linecap="round"/>
<path d="M20.4146 7.08686C20.4146 10.4417 17.6733 13.1737 14.2764 13.1737C10.8795 13.1737 8.13817 10.4417 8.13817 7.08686C8.13817 3.73198 10.8795 1 14.2764 1C17.6733 1 20.4146 3.73198 20.4146 7.08686Z" fill="white" stroke="#B8C0CC" stroke-width="2"/>
<path d="M23 14.2361L24.7431 19.6008C25.0109 20.4249 25.7788 20.9828 26.6452 20.9828H32.2861L27.7225 24.2984C27.0216 24.8077 26.7282 25.7104 26.996 26.5344L28.7391 31.8992L24.1756 28.5836C23.4746 28.0743 22.5254 28.0743 21.8244 28.5836L17.2609 31.8992L19.004 26.5344C19.2718 25.7104 18.9784 24.8077 18.2775 24.2984L13.7139 20.9828L19.3548 20.9828C20.2212 20.9828 20.9891 20.4249 21.2569 19.6008L23 14.2361Z" fill="white" stroke="#FF2E63" stroke-width="2"/>
</svg>
