<svg width="20" height="35" viewBox="0 0 20 35" fill="none" xmlns="http://www.w3.org/2000/svg">
<path d="M15.4172 1.0011H4.06072C2.37033 1.0011 1 2.37143 1 4.06182V30.9392C1 32.6296 2.37033 33.9999 4.06072 33.9999H15.4172C17.1076 33.9999 18.4779 32.6296 18.4779 30.9392V4.06182C18.4779 2.37143 17.1076 1.0011 15.4172 1.0011Z" fill="white" stroke="#B8C0CC" stroke-width="1.88" stroke-miterlimit="10"/>
<path d="M4.23907 1L5.1258 2.71442C5.20225 2.86225 5.31791 2.98622 5.46009 3.07273C5.60226 3.15924 5.76552 3.20495 5.93194 3.20491H13.4904C13.6528 3.20492 13.8123 3.16136 13.9521 3.07875C14.0919 2.99615 14.207 2.87755 14.2854 2.7353L15.2413 1.00038" fill="#B8C0CC"/>
<path d="M9.72852 32.2896C10.4252 32.2896 10.99 31.7248 10.99 31.0281C10.99 30.3314 10.4252 29.7666 9.72852 29.7666C9.03183 29.7666 8.46704 30.3314 8.46704 31.0281C8.46704 31.7248 9.03183 32.2896 9.72852 32.2896Z" fill="#B8C0CC"/>
<rect x="5.75806" y="19.1385" width="7.72903" height="5.79161" rx="0.5" stroke="#FF2E63"/>
<path d="M9.46134 22.8229C9.34662 22.9518 9.14519 22.9517 9.03054 22.8228L8.72288 22.4769C8.65801 22.404 8.5441 22.4038 8.47897 22.4765V22.4765C8.42351 22.5384 8.42335 22.6321 8.47859 22.6942L8.9119 23.1814C9.08969 23.3813 9.40207 23.3813 9.57986 23.1814L11.0049 21.5792C11.0598 21.5175 11.0598 21.4244 11.0049 21.3626V21.3626C10.9401 21.2898 10.8262 21.2898 10.7614 21.3626L9.46134 22.8229Z" stroke="#FF2E63" stroke-width="0.5"/>
<rect x="5.75806" y="8.95166" width="7.72903" height="5.79161" rx="0.5" stroke="#FF2E63"/>
<path d="M9.46134 12.4109C9.34662 12.5398 9.14519 12.5397 9.03054 12.4108L8.72288 12.0649C8.65801 11.992 8.5441 11.9918 8.47897 12.0645V12.0645C8.42351 12.1264 8.42335 12.2201 8.47859 12.2822L8.9119 12.7694C9.08969 12.9693 9.40207 12.9693 9.57986 12.7694L11.0049 11.1672C11.0598 11.1055 11.0598 11.0124 11.0049 10.9507V10.9507C10.9401 10.8778 10.8262 10.8778 10.7614 10.9506L9.46134 12.4109Z" stroke="#FF2E63" stroke-width="0.5"/>
</svg>
