<svg width="104" height="104" viewBox="0 0 104 104" fill="none" xmlns="http://www.w3.org/2000/svg">
<circle cx="52" cy="52" r="52" fill="#F0F4F7"/>
<path d="M33.1965 35.125H65.9822V69.8393H35.6072" stroke="#B8C0CC" stroke-width="2"/>
<path d="M78 76.1073C78 69.7363 72.8353 64.5715 66.4643 64.5715C60.0933 64.5715 54.9286 69.7363 54.9286 76.1072V77.185C54.9286 77.6352 55.2935 78.0001 55.7437 78.0001H77.1849C77.6351 78.0001 78 77.6352 78 77.185V76.1073Z" fill="white" stroke="#6772E5" stroke-width="2"/>
<path d="M75.1071 26L57.8214 26V43.2857H75.1071L75.1071 26Z" fill="white" stroke="#B8C0CC" stroke-width="2"/>
<path d="M43.2857 60.7144L26 60.7144V78.0001H43.2857L43.2857 60.7144Z" fill="white" stroke="#B8C0CC" stroke-width="2"/>
<path d="M60.7143 55.375C60.7143 58.2844 63.0728 60.6429 65.9821 60.6429C68.8915 60.6429 71.25 58.2844 71.25 55.375C71.25 52.4657 68.8915 50.1072 65.9821 50.1072C63.0728 50.1072 60.7143 52.4657 60.7143 55.375Z" fill="white" stroke="#6772E5" stroke-width="2" stroke-miterlimit="10" stroke-linecap="round"/>
<path d="M26 34.6429C26 39.4162 29.8695 43.2857 34.6428 43.2857C39.4161 43.2857 43.2857 39.4162 43.2857 34.6429C43.2857 29.8695 39.4161 26 34.6428 26C29.8695 26 26 29.8695 26 34.6429Z" fill="white" stroke="#B8C0CC" stroke-width="2" stroke-miterlimit="10" stroke-linecap="round"/>
</svg>
