<svg width="24" height="24" viewBox="0 0 24 24" fill="none" xmlns="http://www.w3.org/2000/svg">
<path d="M22.9214 9.90998C22.9212 7.54698 21.9824 5.28083 20.3116 3.60994C18.6407 1.93904 16.3747 1.00028 14.0118 1V9.90998H22.9214Z" stroke="#FF2E63" stroke-width="1.5" stroke-linecap="round" stroke-linejoin="round"/>
<path d="M9.90966 5.1001C8.14751 5.1001 6.42491 5.62267 4.95973 6.60172C3.49455 7.58076 2.35257 8.97232 1.67822 10.6004C1.00387 12.2285 0.827415 14.02 1.1712 15.7484C1.51498 17.4768 2.36355 19.0643 3.60958 20.3104C4.85561 21.5565 6.4432 22.4051 8.17149 22.7489C9.89979 23.0927 11.6912 22.9162 13.3192 22.2419C14.9472 21.5675 16.3387 20.4255 17.3177 18.9602C18.2967 17.495 18.8193 15.7724 18.8193 14.0101" stroke="#FF2E63" stroke-width="1.5" stroke-linecap="round" stroke-linejoin="round"/>
</svg>
