<svg width="34" height="20" viewBox="0 0 34 20" fill="none" xmlns="http://www.w3.org/2000/svg">
<path d="M16.9994 13.6004C19.0192 13.6004 20.6566 11.9886 20.6566 10.0004C20.6566 8.01217 19.0192 6.40039 16.9994 6.40039C14.9796 6.40039 13.3423 8.01217 13.3423 10.0004C13.3423 11.9886 14.9796 13.6004 16.9994 13.6004Z" stroke="#6772E5" stroke-width="1.5"/>
<path d="M23.9947 10.8775C24.0299 10.5963 24.0534 10.3038 24.0534 10C24.0534 9.69625 24.0299 9.40375 23.9829 9.1225L25.9696 7.6375C26.1459 7.5025 26.1929 7.255 26.0871 7.06375L24.2063 3.9475C24.0887 3.745 23.8419 3.6775 23.6303 3.745L21.2909 4.645C20.7972 4.285 20.28 3.9925 19.704 3.7675L19.3513 1.3825C19.316 1.1575 19.1162 1 18.8811 1L15.1194 1C14.8843 1 14.6962 1.1575 14.6609 1.3825L14.3082 3.7675C13.7322 3.9925 13.2032 4.29625 12.7213 4.645L10.3819 3.745C10.1703 3.66625 9.92348 3.745 9.80593 3.9475L7.92507 7.06375C7.80751 7.26625 7.85453 7.5025 8.04262 7.6375L10.0293 9.1225C9.98226 9.40375 9.94699 9.7075 9.94699 10C9.94699 10.2925 9.9705 10.5963 10.0175 10.8775L8.03086 12.3625C7.85453 12.4975 7.80751 12.745 7.91331 12.9362L9.79417 16.0525C9.91173 16.255 10.1586 16.3225 10.3702 16.255L12.7095 15.355C13.2032 15.715 13.7205 16.0075 14.2965 16.2325L14.6491 18.6175C14.6962 18.8425 14.8843 19 15.1194 19H18.8811C19.1162 19 19.316 18.8425 19.3395 18.6175L19.6922 16.2325C20.2682 16.0075 20.7972 15.7038 21.2792 15.355L23.6185 16.255C23.8301 16.3338 24.077 16.255 24.1945 16.0525L26.0754 12.9362C26.1929 12.7337 26.1459 12.4975 25.9578 12.3625L23.9947 10.8775Z" stroke="#6772E5" stroke-width="1.5" stroke-linecap="round"/>
<path d="M6.7778 18.9297C4.60619 16.5413 3.28571 13.3873 3.28571 9.92966C3.28571 6.5059 4.58047 3.37983 6.71429 1L1 4.30469M27.2857 1C29.4195 3.37982 30.7143 6.5059 30.7143 9.92966C30.7143 13.3873 29.3938 16.5413 27.2222 18.9297L33 15.5547" stroke="#6772E5" stroke-width="1.5" stroke-linecap="round" stroke-linejoin="round"/>
</svg>
