<svg width="82" height="72" viewBox="0 0 82 72" fill="none" xmlns="http://www.w3.org/2000/svg">
<path d="M14.8376 0.959961H65.3461L79.7337 17.2446L41.3166 70.08L1.89548 18.3835L14.8376 0.959961Z" stroke="#B8C0CC" stroke-width="1.88" stroke-miterlimit="10"/>
<path d="M23.2211 27.4801C23.2211 25.3594 24.9184 23.6401 27.0123 23.6401H30.685V34.4401H27.0123C24.9184 34.4401 23.2211 32.7209 23.2211 30.6001V27.4801Z" stroke="#6772E5" stroke-width="1.88"/>
<path d="M58.4082 27.4801C58.4082 25.3594 56.7107 23.6401 54.6169 23.6401H50.9442V34.4401H54.6169C56.7107 34.4401 58.4082 32.7209 58.4082 30.6001V27.4801Z" stroke="#6772E5" stroke-width="1.88"/>
<path d="M53.0768 23.6399V17.9999C53.0768 12.1678 48.409 7.43994 42.6509 7.43994H38.9782C33.2202 7.43994 28.5524 12.1678 28.5524 17.9999V23.6399" stroke="#6772E5" stroke-width="1.88"/>
<path d="M53.0768 34.4399V37.4399C53.0768 41.1513 50.1064 44.1599 46.4422 44.1599H45.6129" stroke="#6772E5" stroke-width="1.88"/>
<path d="M43.4803 42H40.2814C39.1037 42 38.1489 42.9671 38.1489 44.16C38.1489 45.3529 39.1037 46.32 40.2814 46.32H43.4803C44.6581 46.32 45.6128 45.3529 45.6128 44.16C45.6128 42.9671 44.6581 42 43.4803 42Z" stroke="#6772E5" stroke-width="1.88"/>
</svg>
