<svg width="66" height="66" viewBox="0 0 66 66" fill="none" xmlns="http://www.w3.org/2000/svg">
<path d="M57.2041 1H41.5961C40.7961 1.0023 40.0295 1.3109 39.4639 1.85834C38.8982 2.40577 38.5794 3.14761 38.577 3.9218V9.74887C38.5783 9.84052 38.6037 9.93036 38.6508 10.0099C38.6978 10.0894 38.765 10.156 38.8461 10.2033C38.9271 10.2507 39.0194 10.2773 39.114 10.2806C39.2087 10.2839 39.3027 10.2638 39.3871 10.2221C40.188 9.86515 41.0907 9.78354 41.946 9.99081C42.8827 10.2145 43.7022 10.7624 44.25 11.531C44.7978 12.2996 45.0357 13.2356 44.9191 14.1625C44.8024 15.0893 44.3391 15.9426 43.6167 16.5614C42.8943 17.1803 41.9628 17.5217 40.998 17.5212C40.4365 17.5212 39.8818 17.4019 39.373 17.1718C39.29 17.1299 39.1972 17.1093 39.1035 17.112C39.0099 17.1148 38.9184 17.1407 38.8381 17.1875C38.7578 17.2342 38.6913 17.3001 38.6449 17.3789C38.5985 17.4577 38.5737 17.5466 38.573 17.6373V23.4828C38.5751 24.257 38.8939 24.999 39.4596 25.5465C40.0253 26.094 40.792 26.4025 41.592 26.4045H47.6171C47.7125 26.4054 47.8061 26.4303 47.8887 26.4765C47.9713 26.5226 48.0401 26.5887 48.0886 26.6682C48.1371 26.7478 48.1636 26.8381 48.1654 26.9304C48.1672 27.0227 48.1443 27.1139 48.099 27.1952C47.7062 27.9744 47.6056 28.8615 47.8141 29.7047C48.036 30.6171 48.5967 31.4188 49.3895 31.9571C50.1824 32.4955 51.152 32.733 52.114 32.6245C53.076 32.516 53.9634 32.069 54.6071 31.3686C55.2507 30.6682 55.606 29.7633 55.6051 28.8259C55.6051 28.26 55.4713 27.7015 55.214 27.1933C55.1691 27.1119 55.1466 27.0207 55.1488 26.9285C55.151 26.8363 55.1777 26.7462 55.2263 26.6669C55.275 26.5876 55.344 26.5218 55.4266 26.4758C55.5093 26.4298 55.6027 26.4053 55.698 26.4045H61.8101C62.6099 26.4022 63.3763 26.0936 63.9418 25.5462C64.5073 24.9987 64.8259 24.2569 64.828 23.4828V8.3833C64.8219 6.42778 64.0169 4.55396 62.5886 3.17074C61.1603 1.78751 59.2247 1.00715 57.2041 1Z" fill="white" stroke="#6772E5" stroke-width="2" stroke-linecap="round" stroke-linejoin="round"/>
<path d="M53.5319 57.6159V42.5107C53.5293 41.7369 53.2104 40.9956 52.645 40.4485C52.0795 39.9015 51.3134 39.5931 50.5139 39.5908H44.489C44.3942 39.5918 44.3011 39.6163 44.2188 39.6618C44.1365 39.7073 44.0676 39.7723 44.0185 39.8508C43.9694 39.9293 43.942 40.0187 43.9385 40.1103C43.9351 40.202 43.9559 40.293 43.999 40.3747C44.3682 41.1497 44.4528 42.0234 44.239 42.8513C44.007 43.7571 43.4405 44.5495 42.6464 45.0789C41.8524 45.6084 40.8856 45.8384 39.9284 45.7256C38.9712 45.6127 38.0897 45.1648 37.4503 44.4663C36.8108 43.7679 36.4574 42.8671 36.4569 41.9339C36.4567 41.3903 36.5803 40.8533 36.8189 40.3612C36.8611 40.281 36.8815 40.1917 36.8781 40.1018C36.8747 40.0119 36.8477 39.9243 36.7995 39.8474C36.7513 39.7704 36.6836 39.7066 36.6028 39.6621C36.5221 39.6175 36.4309 39.5937 36.338 39.5928H27.2789V48.3445C27.278 48.437 27.2524 48.5277 27.2047 48.6077C27.1569 48.6878 27.0885 48.7546 27.0062 48.8015C26.9238 48.8485 26.8303 48.874 26.7348 48.8757C26.6393 48.8773 26.5449 48.8551 26.4609 48.811C25.6561 48.4309 24.7399 48.3334 23.869 48.5351C22.9262 48.7499 22.0977 49.2926 21.5414 50.0599C20.9852 50.8272 20.7398 51.7656 20.8519 52.6967C20.964 53.6277 21.4259 54.4864 22.1496 55.1094C22.8733 55.7323 23.8084 56.0761 24.7769 56.0752C25.3613 56.075 25.9379 55.9459 26.463 55.6978C26.5469 55.6542 26.641 55.6323 26.7363 55.6341C26.8315 55.636 26.9246 55.6616 27.0067 55.7085C27.0887 55.7554 27.1568 55.822 27.2045 55.9018C27.2522 55.9817 27.2778 56.072 27.2789 56.1642V65.0002H45.9039C47.9255 64.9945 49.8627 64.2147 51.2921 62.8311C52.7214 61.4474 53.5266 59.5724 53.5319 57.6159Z" fill="white" stroke="#B8C0CC" stroke-width="2" stroke-linecap="round" stroke-linejoin="round"/>
<path d="M8.63 64.9456H27.255V56.1929C27.2538 56.1014 27.2285 56.0118 27.1816 55.9323C27.1347 55.8529 27.0678 55.7864 26.9869 55.7389C26.9061 55.6915 26.8141 55.6648 26.7196 55.6612C26.6252 55.6577 26.5314 55.6774 26.447 55.7186C25.6461 56.0765 24.7427 56.1585 23.887 55.9509C22.9502 55.7272 22.1306 55.1792 21.5829 54.4105C21.0351 53.6419 20.7971 52.7057 20.9139 51.7788C21.0307 50.8519 21.4943 49.9985 22.2169 49.3798C22.9395 48.7611 23.8712 48.4198 24.8361 48.4206C25.3976 48.4208 25.9522 48.54 26.4611 48.7699C26.5439 48.8108 26.6361 48.8305 26.729 48.8273C26.8219 48.824 26.9124 48.7977 26.9919 48.7511C27.0715 48.7045 27.1373 48.639 27.1833 48.5609C27.2294 48.4827 27.2541 48.3944 27.255 48.3044V39.5372H18.2111C18.1158 39.536 18.0223 39.511 17.9398 39.4648C17.8574 39.4185 17.7887 39.3525 17.7402 39.273C17.6918 39.1936 17.6653 39.1034 17.6633 39.0112C17.6614 38.919 17.684 38.8278 17.729 38.7465C18.1216 37.9672 18.2224 37.0802 18.014 36.2371C17.7922 35.3246 17.2315 34.5229 16.4386 33.9846C15.6457 33.4462 14.676 33.2087 13.714 33.3172C12.752 33.4257 11.8647 33.8727 11.2211 34.5731C10.5774 35.2735 10.2222 36.1784 10.223 37.1158C10.2229 37.6817 10.3567 38.2402 10.614 38.7484C10.6589 38.8298 10.6814 38.921 10.6792 39.0132C10.677 39.1054 10.6503 39.1955 10.6017 39.2748C10.553 39.3541 10.484 39.4199 10.4014 39.4659C10.3187 39.5119 10.2253 39.5364 10.13 39.5372H1V57.5623C1.00607 59.5188 1.81196 61.3935 3.24158 62.7769C4.6712 64.1603 6.60836 64.94 8.63 64.9456Z" fill="white" stroke="#B8C0CC" stroke-width="2" stroke-linecap="round" stroke-linejoin="round"/>
<path d="M1.05505 21.5034V39.5334H10.099C10.1935 39.5322 10.2862 39.5078 10.3683 39.4624C10.4503 39.417 10.5191 39.3521 10.5681 39.2739C10.6171 39.1957 10.6448 39.1067 10.6484 39.0153C10.6521 38.9239 10.6316 38.8331 10.589 38.7514C10.2192 37.9766 10.1346 37.1027 10.349 36.2748C10.5802 35.3684 11.1463 34.5752 11.9404 34.0451C12.7346 33.515 13.7019 33.2846 14.6595 33.3976C15.6172 33.5105 16.4989 33.9588 17.1383 34.658C17.7777 35.3571 18.1305 36.2586 18.13 37.1923C18.1298 37.7357 18.0066 38.2725 17.769 38.7649C17.7266 38.8451 17.7059 38.9346 17.7092 39.0246C17.7125 39.1147 17.7396 39.2024 17.7878 39.2795C17.836 39.3566 17.9037 39.4205 17.9846 39.4651C18.0655 39.5097 18.1569 39.5336 18.25 39.5344H27.3091V30.7826C27.31 30.6903 27.3356 30.5998 27.3833 30.5198C27.431 30.4399 27.4994 30.3732 27.5815 30.3263C27.6637 30.2793 27.757 30.2538 27.8524 30.252C27.9478 30.2502 28.042 30.2723 28.126 30.3162C28.9312 30.6961 29.8478 30.7937 30.719 30.592C31.6618 30.3773 32.4901 29.8346 33.0464 29.0673C33.6027 28.2999 33.8482 27.3615 33.7361 26.4305C33.624 25.4994 33.1621 24.6407 32.4384 24.0178C31.7146 23.3948 30.7796 23.0511 29.811 23.0519C29.2264 23.0522 28.6495 23.1813 28.124 23.4294C28.0401 23.4731 27.9461 23.495 27.8508 23.4931C27.7556 23.4913 27.6624 23.4656 27.5804 23.4187C27.4985 23.3718 27.4305 23.3052 27.3829 23.2253C27.3354 23.1454 27.3099 23.055 27.3091 22.9629V17.0477C27.3064 16.2738 26.9874 15.5323 26.4218 14.9853C25.8561 14.4382 25.0897 14.13 24.29 14.1279H8.68408C6.66391 14.1335 4.72794 14.9121 3.29871 16.2939C1.86947 17.6756 1.06297 19.5483 1.05505 21.5034Z" fill="white" stroke="#B8C0CC" stroke-width="2" stroke-linecap="round" stroke-linejoin="round"/>
</svg>
