<svg width="563" height="368" viewBox="0 0 563 368" fill="none" xmlns="http://www.w3.org/2000/svg">
<g filter="url(#filter0_d)">
<rect x="74" y="8" width="426" height="302" rx="12" fill="white"/>
</g>
<rect x="202" y="152" width="170" height="8" rx="4" fill="#F2F4F5"/>
<rect x="233" y="172" width="108" height="8" rx="4" fill="#F2F4F5"/>
<rect x="74" y="8" width="426" height="36" rx="12" fill="#6772E5"/>
<rect x="182" y="210" width="210" height="60" rx="10" fill="#F2F4F5"/>
<rect x="242" y="250" width="130" height="8" rx="4" fill="#D7DEE2"/>
<rect x="242" y="226" width="130" height="8" rx="4" fill="#D7DEE2"/>
<path d="M211.992 222C207.576 222 204 225.584 204 230C204 234.416 207.576 238 211.992 238C216.416 238 220 234.416 220 230C220 225.584 216.416 222 211.992 222ZM212 236.4C208.464 236.4 205.6 233.536 205.6 230C205.6 226.464 208.464 223.6 212 223.6C215.536 223.6 218.4 226.464 218.4 230C218.4 233.536 215.536 236.4 212 236.4Z" fill="#6772E5"/>
<path d="M212.4 226.6C212.4 226.269 212.131 226 211.8 226C211.469 226 211.2 226.269 211.2 226.6V230.8L214.911 233.026C215.181 233.189 215.533 233.102 215.697 232.833C215.864 232.559 215.775 232.203 215.5 232.039L212.4 230.2V226.6Z" fill="#6772E5" stroke="#6772E5" stroke-width="0.5"/>
<path d="M203.9 254C203.9 252.29 205.29 250.9 207 250.9H210.05C210.575 250.9 211 250.475 211 249.95C211 249.425 210.575 249 210.05 249H207C204.24 249 202 251.24 202 254C202 256.76 204.24 259 207 259H210.05C210.575 259 211 258.575 211 258.05C211 257.525 210.575 257.1 210.05 257.1H207C205.29 257.1 203.9 255.71 203.9 254ZM208 254C208 254.552 208.448 255 209 255H215C215.552 255 216 254.552 216 254C216 253.448 215.552 253 215 253H209C208.448 253 208 253.448 208 254ZM217 249H213.95C213.425 249 213 249.425 213 249.95C213 250.475 213.425 250.9 213.95 250.9H217C218.71 250.9 220.1 252.29 220.1 254C220.1 255.71 218.71 257.1 217 257.1H213.95C213.425 257.1 213 257.525 213 258.05C213 258.575 213.425 259 213.95 259H217C219.76 259 222 256.76 222 254C222 251.24 219.76 249 217 249Z" fill="#6772E5"/>
<rect x="1" y="-1" width="58" height="46" rx="5" transform="matrix(1 0 0 -1 257 130)" stroke="#D7DEE2" stroke-width="2"/>
<path d="M315 96H259" stroke="#D7DEE2" stroke-width="2"/>
<path d="M273 88V80" stroke="#D7DEE2" stroke-width="2" stroke-linecap="round"/>
<path d="M301 88V80" stroke="#D7DEE2" stroke-width="2" stroke-linecap="round"/>
<path d="M283.2 112.126C282.033 112.126 281.142 111.697 280.526 110.838C279.91 109.97 279.602 108.71 279.602 107.058C279.602 105.415 279.91 104.165 280.526 103.306C281.142 102.438 282.033 102.004 283.2 102.004C284.367 102.004 285.258 102.438 285.874 103.306C286.49 104.165 286.798 105.415 286.798 107.058C286.798 108.701 286.49 109.956 285.874 110.824C285.258 111.692 284.367 112.126 283.2 112.126ZM283.2 110.712C283.835 110.712 284.297 110.423 284.586 109.844C284.875 109.256 285.02 108.327 285.02 107.058C285.02 105.779 284.875 104.855 284.586 104.286C284.297 103.707 283.835 103.418 283.2 103.418C282.565 103.418 282.103 103.707 281.814 104.286C281.525 104.865 281.38 105.789 281.38 107.058C281.38 108.327 281.525 109.256 281.814 109.844C282.103 110.423 282.565 110.712 283.2 110.712ZM294.745 108.668C295.025 108.668 295.235 108.729 295.375 108.85C295.515 108.971 295.585 109.144 295.585 109.368C295.585 109.835 295.305 110.068 294.745 110.068H294.031V111.174C294.031 111.463 293.947 111.687 293.779 111.846C293.62 112.005 293.41 112.084 293.149 112.084C292.887 112.084 292.673 112.005 292.505 111.846C292.346 111.687 292.267 111.463 292.267 111.174V110.068H288.599C288.347 110.068 288.151 109.998 288.011 109.858C287.871 109.709 287.801 109.527 287.801 109.312C287.801 109.088 287.875 108.873 288.025 108.668L292.351 102.452C292.444 102.321 292.561 102.223 292.701 102.158C292.841 102.083 292.985 102.046 293.135 102.046C293.377 102.046 293.587 102.125 293.765 102.284C293.942 102.443 294.031 102.667 294.031 102.956V108.668H294.745ZM289.663 108.668H292.267V104.902L289.663 108.668Z" fill="#6772E5"/>
<path d="M278.68 125.072C278.448 125.072 278.26 125 278.116 124.856C277.98 124.712 277.912 124.524 277.912 124.292V117.272C277.912 117.04 277.976 116.86 278.104 116.732C278.24 116.604 278.424 116.54 278.656 116.54H282.868C283.356 116.54 283.6 116.748 283.6 117.164C283.6 117.572 283.356 117.776 282.868 117.776H279.436V120.08H282.628C283.116 120.08 283.36 120.288 283.36 120.704C283.36 121.112 283.116 121.316 282.628 121.316H279.436V124.292C279.436 124.524 279.368 124.712 279.232 124.856C279.096 125 278.912 125.072 278.68 125.072ZM289.104 123.392C289.24 123.392 289.348 123.444 289.428 123.548C289.516 123.652 289.56 123.792 289.56 123.968C289.56 124.216 289.412 124.424 289.116 124.592C288.844 124.744 288.536 124.868 288.192 124.964C287.848 125.052 287.52 125.096 287.208 125.096C286.264 125.096 285.516 124.824 284.964 124.28C284.412 123.736 284.136 122.992 284.136 122.048C284.136 121.448 284.256 120.916 284.496 120.452C284.736 119.988 285.072 119.628 285.504 119.372C285.944 119.116 286.44 118.988 286.992 118.988C287.52 118.988 287.98 119.104 288.372 119.336C288.764 119.568 289.068 119.896 289.284 120.32C289.5 120.744 289.608 121.244 289.608 121.82C289.608 122.164 289.456 122.336 289.152 122.336H285.612C285.66 122.888 285.816 123.296 286.08 123.56C286.344 123.816 286.728 123.944 287.232 123.944C287.488 123.944 287.712 123.912 287.904 123.848C288.104 123.784 288.328 123.696 288.576 123.584C288.816 123.456 288.992 123.392 289.104 123.392ZM287.028 120.044C286.62 120.044 286.292 120.172 286.044 120.428C285.804 120.684 285.66 121.052 285.612 121.532H288.324C288.308 121.044 288.188 120.676 287.964 120.428C287.74 120.172 287.428 120.044 287.028 120.044ZM294.207 118.988C294.719 118.988 295.171 119.112 295.563 119.36C295.955 119.608 296.259 119.96 296.475 120.416C296.699 120.872 296.811 121.404 296.811 122.012C296.811 122.62 296.699 123.16 296.475 123.632C296.259 124.096 295.951 124.456 295.551 124.712C295.159 124.968 294.711 125.096 294.207 125.096C293.783 125.096 293.403 125.004 293.067 124.82C292.739 124.636 292.487 124.38 292.311 124.052V124.352C292.311 124.568 292.243 124.74 292.107 124.868C291.971 124.996 291.791 125.06 291.567 125.06C291.343 125.06 291.163 124.996 291.027 124.868C290.899 124.74 290.835 124.568 290.835 124.352V117.176C290.835 116.968 290.903 116.8 291.039 116.672C291.183 116.544 291.367 116.48 291.591 116.48C291.815 116.48 291.995 116.54 292.131 116.66C292.267 116.78 292.335 116.944 292.335 117.152V119.984C292.511 119.664 292.763 119.42 293.091 119.252C293.419 119.076 293.791 118.988 294.207 118.988ZM293.811 123.932C294.283 123.932 294.651 123.764 294.915 123.428C295.179 123.092 295.311 122.62 295.311 122.012C295.311 121.412 295.179 120.952 294.915 120.632C294.659 120.312 294.291 120.152 293.811 120.152C293.331 120.152 292.959 120.316 292.695 120.644C292.439 120.964 292.311 121.428 292.311 122.036C292.311 122.644 292.439 123.112 292.695 123.44C292.959 123.768 293.331 123.932 293.811 123.932Z" fill="#6772E5"/>
<path d="M450 38C456.627 38 462 32.6274 462 26C462 19.3726 456.627 14 450 14C443.373 14 438 19.3726 438 26C438 32.6274 443.373 38 450 38Z" fill="#F2F4F5" fill-opacity="0.5"/>
<path d="M450 16C444.48 16 440 20.48 440 26C440 31.52 444.48 36 450 36C455.52 36 460 31.52 460 26C460 20.48 455.52 16 450 16ZM450 19C451.66 19 453 20.34 453 22C453 23.66 451.66 25 450 25C448.34 25 447 23.66 447 22C447 20.34 448.34 19 450 19ZM450 33.2C447.5 33.2 445.29 31.92 444 29.98C444.03 27.99 448 26.9 450 26.9C451.99 26.9 455.97 27.99 456 29.98C454.71 31.92 452.5 33.2 450 33.2Z" fill="#6772E5"/>
<rect x="112" y="16" width="50" height="20" rx="8" fill="#F2F4F5" fill-opacity="0.5"/>
<rect x="378" y="21" width="40" height="10" rx="5" fill="#F2F4F5" fill-opacity="0.5"/>
<rect x="313" y="21" width="40" height="10" rx="5" fill="#F2F4F5" fill-opacity="0.5"/>
<rect x="248" y="21" width="40" height="10" rx="5" fill="#F2F4F5" fill-opacity="0.5"/>
<g filter="url(#filter1_d)">
<rect width="102" height="109.895" rx="6" transform="matrix(1 0 0 -1 24 250)" fill="white"/>
</g>
<rect width="102" height="17.0947" rx="6" transform="matrix(1 0 0 -1 24 157.2)" fill="#6772E5" fill-opacity="0.16"/>
<rect x="77.4286" y="176.737" width="29.1429" height="24.4211" rx="4" fill="#6772E5" fill-opacity="0.16"/>
<rect x="43.4286" y="206.042" width="29.1429" height="24.4211" rx="4" fill="#6772E5"/>
<rect x="43.4286" y="176.737" width="29.1429" height="24.4211" rx="4" fill="#6772E5" fill-opacity="0.16"/>
<rect x="77.4286" y="206.042" width="29.1429" height="24.4211" rx="4" fill="#6772E5" fill-opacity="0.16"/>
<path d="M44.6429 147.211C45.1951 147.211 45.6429 146.763 45.6429 146.211C45.6429 145.658 45.1951 145.211 44.6429 145.211V147.211ZM44.6429 145.211C42.7138 145.211 40.7857 143.15 40.7857 140.105H38.7857C38.7857 143.804 41.2068 147.211 44.6429 147.211V145.211ZM40.7857 140.105C40.7857 137.06 42.7138 135 44.6429 135V133C41.2068 133 38.7857 136.407 38.7857 140.105H40.7857ZM44.6429 135C46.5719 135 48.5 137.06 48.5 140.105H50.5C50.5 136.407 48.0789 133 44.6429 133V135Z" fill="#6772E5"/>
<path d="M75 147.211C75.5523 147.211 76 146.763 76 146.211C76 145.658 75.5523 145.211 75 145.211V147.211ZM75 145.211C73.071 145.211 71.1429 143.15 71.1429 140.105H69.1429C69.1429 143.804 71.564 147.211 75 147.211V145.211ZM71.1429 140.105C71.1429 137.06 73.071 135 75 135V133C71.564 133 69.1429 136.407 69.1429 140.105H71.1429ZM75 135C76.929 135 78.8571 137.06 78.8571 140.105H80.8571C80.8571 136.407 78.436 133 75 133V135Z" fill="#6772E5"/>
<path d="M105.357 147.211C105.909 147.211 106.357 146.763 106.357 146.211C106.357 145.658 105.909 145.211 105.357 145.211V147.211ZM105.357 145.211C103.428 145.211 101.5 143.15 101.5 140.105H99.5C99.5 143.804 101.921 147.211 105.357 147.211V145.211ZM101.5 140.105C101.5 137.06 103.428 135 105.357 135V133C101.921 133 99.5 136.407 99.5 140.105H101.5ZM105.357 135C107.286 135 109.214 137.06 109.214 140.105H111.214C111.214 136.407 108.793 133 105.357 133V135Z" fill="#6772E5"/>
<path d="M55.2354 221.082C54.8436 221.48 54.2018 221.48 53.81 221.082L51.3935 218.627C51.0429 218.271 50.4685 218.271 50.1179 218.627C49.7751 218.975 49.7751 219.534 50.1179 219.883L53.81 223.634C54.2018 224.032 54.8436 224.032 55.2354 223.634L64.6678 214.051C65.0106 213.702 65.0106 213.143 64.6678 212.795C64.3172 212.439 63.7428 212.439 63.3922 212.795L55.2354 221.082Z" fill="white" stroke="white"/>
<g filter="url(#filter2_d)">
<rect x="429" y="200" width="110" height="130" rx="10" fill="white"/>
</g>
<rect x="429" y="212" width="110" height="86" fill="#6772E5" fill-opacity="0.4"/>
<rect x="429" y="200" width="110" height="26" rx="10" fill="#6772E5"/>
<path d="M476.663 208.005H476.657C473.866 208.005 471.606 210.243 471.606 212.997C471.606 215.757 473.866 217.995 476.657 217.995C479.449 217.995 481.714 215.762 481.714 213.002C481.714 210.243 479.455 208.005 476.663 208.005ZM478.799 215.119C477.611 216.288 475.693 216.283 474.51 215.114C473.333 213.945 473.333 212.049 474.51 210.88C475.693 209.706 477.611 209.706 478.799 210.875L478.805 210.88C479.993 212.049 479.987 213.95 478.799 215.119Z" fill="white"/>
<path d="M470.594 216.025L470.088 215.999H465.538L471.606 210.001L471.58 209.501C471.558 208.695 470.903 208.047 470.088 208.026L469.582 208H462L462.027 208.5C462.064 209.295 462.709 209.938 463.518 209.975L464.025 210.001H468.575L462.506 215.999L462.533 216.499C462.559 217.3 463.215 217.947 464.025 217.974L464.531 218H472.112L472.086 217.5C472.017 216.673 471.425 216.073 470.594 216.025Z" fill="white"/>
<path d="M502.951 208.005C501.789 208.005 500.686 208.5 499.919 209.359C498.576 207.853 496.307 207.563 494.623 208.69C494.234 208.253 493.35 208.005 492.844 208.005V218L493.35 217.974C494.191 217.921 494.81 217.331 494.841 216.499L494.868 215.999V212.502L494.895 212.002C494.895 211.655 494.985 211.312 495.145 211.002C495.699 210.049 496.935 209.722 497.905 210.275C498.209 210.449 498.464 210.702 498.64 211.002H498.635C498.8 211.312 498.885 211.655 498.885 212.002L498.912 212.502V215.999L498.939 216.499C498.971 217.3 499.615 217.942 500.425 217.974L500.931 218V212.502L500.958 212.002C500.958 211.649 501.043 211.307 501.208 210.996C501.768 210.043 503.009 209.717 503.974 210.275C504.277 210.449 504.533 210.702 504.709 211.002C504.869 211.312 504.954 211.655 504.954 212.002L504.981 212.502V215.999L505.007 216.499C505.034 217.3 505.684 217.942 506.494 217.974L507 218V212.002C506.995 209.796 505.183 208.005 502.951 208.005Z" fill="white"/>
<path d="M490.851 209.469C489.902 208.532 488.618 208.005 487.276 208.005C485.933 208.005 484.649 208.532 483.701 209.469C481.729 211.423 481.729 214.588 483.706 216.536C485.683 218.484 488.885 218.484 490.856 216.531C492.833 214.582 492.828 211.417 490.851 209.469ZM489.418 215.119C488.23 216.288 486.311 216.283 485.129 215.114C483.951 213.945 483.951 212.049 485.129 210.88C486.311 209.706 488.23 209.706 489.418 210.875L489.423 210.88C490.611 212.049 490.606 213.95 489.418 215.119Z" fill="white"/>
<path d="M500.074 318H491.778C491.314 318 491 317.711 491 317.182V310.818C491 310.289 491.314 310 491.778 310H500.222C500.686 310 501 310.289 501 310.818V317.09C500.881 317.643 500.453 318 500.074 318Z" fill="white" stroke="#6772E5" stroke-width="2" stroke-miterlimit="10"/>
<mask id="path-41-inside-1" fill="white">
<path d="M501 311.997L506.25 309.14C506.906 308.783 508 309.14 508 309.854V318.068C508 318.782 506.906 319.318 506.25 318.782L501 315.925"/>
</mask>
<path d="M501 311.997L506.25 309.14C506.906 308.783 508 309.14 508 309.854V318.068C508 318.782 506.906 319.318 506.25 318.782L501 315.925" fill="white"/>
<path d="M502 315.925V311.997H500V315.925H502ZM506.25 309.14L505.294 307.383L505.294 307.383L506.25 309.14ZM506.25 318.782L507.515 317.233C507.418 317.154 507.315 317.085 507.206 317.026L506.25 318.782ZM501.956 313.754L507.206 310.897L505.294 307.383L500.044 310.24L501.956 313.754ZM507.206 310.897C507.047 310.983 506.92 310.998 506.858 311C506.794 311.002 506.733 310.992 506.666 310.967C506.605 310.944 506.464 310.879 506.317 310.711C506.152 310.524 506 310.224 506 309.854H510C510 308.321 508.831 307.508 508.076 307.224C507.292 306.929 506.232 306.873 505.294 307.383L507.206 310.897ZM506 309.854V318.068H510V309.854H506ZM506 318.068C506 317.718 506.136 317.46 506.252 317.314C506.362 317.174 506.479 317.102 506.566 317.063C506.707 317.001 507.114 316.906 507.515 317.233L504.985 320.332C506.042 321.194 507.324 321.099 508.176 320.725C508.971 320.375 510 319.49 510 318.068H506ZM507.206 317.026L501.956 314.169L500.044 317.682L505.294 320.539L507.206 317.026Z" fill="#6772E5" mask="url(#path-41-inside-1)"/>
<path d="M465 315.579C466.186 315.579 467.136 314.733 467.136 313.684L467.143 309.895C467.143 308.846 466.186 308 465 308C463.814 308 462.857 308.846 462.857 309.895V313.684C462.857 314.733 463.814 315.579 465 315.579ZM464.143 309.832C464.143 309.415 464.529 309.074 465 309.074C465.471 309.074 465.857 309.415 465.857 309.832L465.85 313.747C465.85 314.164 465.471 314.505 465 314.505C464.529 314.505 464.143 314.164 464.143 313.747V309.832ZM469.393 313.684C469.058 313.684 468.793 313.959 468.722 314.287C468.385 315.854 466.755 316.905 465 316.905C463.245 316.905 461.615 315.854 461.278 314.287C461.207 313.959 460.942 313.684 460.607 313.684C460.272 313.684 459.995 313.958 460.052 314.289C460.374 316.164 462.166 317.648 464.286 317.928V319.286C464.286 319.68 464.606 320 465 320C465.394 320 465.714 319.68 465.714 319.286V317.928C467.835 317.654 469.627 316.169 469.949 314.289C470.005 313.958 469.728 313.684 469.393 313.684Z" fill="#6772E5" stroke="#6772E5" stroke-width="0.5"/>
<path d="M478 257.737C478 256.938 478.89 256.462 479.555 256.905L488.949 263.168C489.543 263.564 489.543 264.436 488.949 264.832L479.555 271.095C478.89 271.538 478 271.062 478 270.263V257.737Z" stroke="white" stroke-width="2"/>
<defs>
<filter id="filter0_d" x="60" y="0" width="454" height="330" filterUnits="userSpaceOnUse" color-interpolation-filters="sRGB">
<feFlood flood-opacity="0" result="BackgroundImageFix"/>
<feColorMatrix in="SourceAlpha" type="matrix" values="0 0 0 0 0 0 0 0 0 0 0 0 0 0 0 0 0 0 127 0"/>
<feOffset dy="6"/>
<feGaussianBlur stdDeviation="7"/>
<feColorMatrix type="matrix" values="0 0 0 0 0.403922 0 0 0 0 0.447059 0 0 0 0 0.898039 0 0 0 0.16 0"/>
<feBlend mode="normal" in2="BackgroundImageFix" result="effect1_dropShadow"/>
<feBlend mode="normal" in="SourceGraphic" in2="effect1_dropShadow" result="shape"/>
</filter>
<filter id="filter1_d" x="0" y="130.105" width="150" height="157.895" filterUnits="userSpaceOnUse" color-interpolation-filters="sRGB">
<feFlood flood-opacity="0" result="BackgroundImageFix"/>
<feColorMatrix in="SourceAlpha" type="matrix" values="0 0 0 0 0 0 0 0 0 0 0 0 0 0 0 0 0 0 127 0"/>
<feOffset dy="14"/>
<feGaussianBlur stdDeviation="12"/>
<feColorMatrix type="matrix" values="0 0 0 0 0.403922 0 0 0 0 0.447059 0 0 0 0 0.898039 0 0 0 0.2 0"/>
<feBlend mode="normal" in2="BackgroundImageFix" result="effect1_dropShadow"/>
<feBlend mode="normal" in="SourceGraphic" in2="effect1_dropShadow" result="shape"/>
</filter>
<filter id="filter2_d" x="405" y="190" width="158" height="178" filterUnits="userSpaceOnUse" color-interpolation-filters="sRGB">
<feFlood flood-opacity="0" result="BackgroundImageFix"/>
<feColorMatrix in="SourceAlpha" type="matrix" values="0 0 0 0 0 0 0 0 0 0 0 0 0 0 0 0 0 0 127 0"/>
<feOffset dy="14"/>
<feGaussianBlur stdDeviation="12"/>
<feColorMatrix type="matrix" values="0 0 0 0 0.403922 0 0 0 0 0.447059 0 0 0 0 0.898039 0 0 0 0.2 0"/>
<feBlend mode="normal" in2="BackgroundImageFix" result="effect1_dropShadow"/>
<feBlend mode="normal" in="SourceGraphic" in2="effect1_dropShadow" result="shape"/>
</filter>
</defs>
</svg>
