<svg width="82" height="82" viewBox="0 0 82 82" fill="none" xmlns="http://www.w3.org/2000/svg">
<path d="M36.3125 81L38.6562 75.5391V48.7469V41.3846L33.2781 33.9688H5.96719L1 45.6875C1 65.0734 16.9266 81 36.3125 81Z" fill="#FCFDFF" stroke="#B8C0CC" stroke-width="2"/>
<path d="M36.3125 45.6875V53.8906C31.1344 53.8906 26.9375 58.0875 26.9375 63.2656C26.9375 68.4438 31.1344 72.6406 36.3125 72.6406V81C55.6984 81 71.4688 65.0734 71.4688 45.6875L67.1016 43.3438H42.5297L36.3125 45.6875Z" fill="#FCFDFF" stroke="#B8C0CC" stroke-width="2"/>
<path d="M71.4687 19.9062V10.5312H62.0937C62.0937 5.36094 57.889 1 52.7187 1C47.5484 1 43.3437 5.36094 43.3437 10.5312H36.3125L34.8461 10.6154L34.0769 28.6923L34.8461 45.6875H44.5156C44.5156 50.8656 48.7125 55.0625 53.8906 55.0625C59.0687 55.0625 63.2656 50.8656 63.2656 45.6875H71.4687V38.6562C76.639 38.6562 81 34.4516 81 29.2812C81 24.1109 76.639 19.9062 71.4687 19.9062Z" fill="#FCFDFF" stroke="#53A1FF" stroke-width="2"/>
<path d="M36.3125 18.7344V10.5312C16.9266 10.5312 1 26.3016 1 45.6875H9.35938C9.35938 40.5094 13.5562 36.3125 18.7344 36.3125C23.9125 36.3125 28.1094 40.5094 28.1094 45.6875H36.3125V37.4844C41.4906 37.4844 45.6875 33.2875 45.6875 28.1094C45.6875 22.9312 41.4906 18.7344 36.3125 18.7344Z" fill="#FCFDFF" stroke="#B8C0CC" stroke-width="2"/>
<path d="M36.3125 46.4592V37.4778C41 37.5385 45.6875 33.5961 45.6875 28.3517C45.6154 22.6924 41.4906 18.7374 36.3125 18.7374V9.76692" stroke="#53A1FF" stroke-width="2"/>
</svg>
