<svg width="84" height="80" viewBox="0 0 84 80" fill="none" xmlns="http://www.w3.org/2000/svg">
<path d="M42.7971 72.5H20.0698C14.547 72.5 10.0698 68.0228 10.0698 62.5V17.5C10.0698 11.9772 14.547 7.5 20.0698 7.5H65.5244C71.0472 7.5 75.5244 11.9772 75.5244 17.5V40" stroke="#53A1FF" stroke-width="2" stroke-linecap="round"/>
<path d="M10.0698 40.625H43.4265" stroke="#53A1FF" stroke-width="2" stroke-linecap="round"/>
<rect x="68.9719" y="34.125" width="13.1049" height="13" rx="3" fill="white" stroke="#B8C0CC" stroke-width="2"/>
<rect x="1.42018" width="12.1917" height="12.1917" rx="3" transform="matrix(0.710088 -0.704113 0.710088 0.704113 0.411726 41.625)" fill="white" stroke="#B8C0CC" stroke-width="2"/>
<rect x="36.2446" y="34.125" width="13.1049" height="13" rx="3" fill="white" stroke="#B8C0CC" stroke-width="2"/>
<path d="M49.3495 72.5C49.3495 76.0833 46.4225 79 42.7971 79C39.1717 79 36.2446 76.0833 36.2446 72.5C36.2446 68.9167 39.1717 66 42.7971 66C46.4225 66 49.3495 68.9167 49.3495 72.5Z" fill="white" stroke="#B8C0CC" stroke-width="2"/>
<path d="M49.3495 7.5C49.3495 11.0833 46.4225 14 42.7971 14C39.1717 14 36.2446 11.0833 36.2446 7.5C36.2446 3.91671 39.1717 1 42.7971 1C46.4225 1 49.3495 3.91671 49.3495 7.5Z" fill="white" stroke="#B8C0CC" stroke-width="2"/>
</svg>
