<svg width="71" height="80" viewBox="0 0 71 80" fill="none" xmlns="http://www.w3.org/2000/svg">
<path d="M3.22595 12.0745C3.06229 9.14994 4.94227 6.47503 7.66611 5.98235L33.5201 1.30597C34.5794 1.11436 35.6645 1.11436 36.7238 1.30597L62.5778 5.98235C65.3016 6.47503 67.1816 9.14994 67.018 12.0745C66.6694 18.303 67.4074 24.7637 68.1212 31.0129C68.2866 32.4602 68.4506 33.8962 68.5995 35.3154C69.399 42.9332 69.7669 50.0738 67.8021 56.2815C65.9461 62.1451 60.3014 67.0171 54.0068 70.7715C47.7558 74.5 41.0791 77.0007 37.4818 78.2082C35.9468 78.7235 34.2971 78.7235 32.7621 78.2082C29.1648 77.0007 22.4881 74.5 16.2371 70.7715C9.94252 67.0171 4.29779 62.1451 2.44183 56.2815C0.476977 50.0738 0.84489 42.9332 1.64437 35.3154C1.79331 33.8962 1.95734 32.4602 2.12268 31.0128C2.83651 24.7637 3.57451 18.303 3.22595 12.0745Z" fill="#FCFDFF" stroke="#53A1FF" stroke-width="2"/>
<rect x="29.9546" y="30.6364" width="10.0909" height="11.8182" rx="5.04545" fill="#FCFDFF" stroke="#53A1FF" stroke-width="2"/>
<rect x="27.3638" y="37.5454" width="15.2727" height="11.8182" rx="3" fill="#FCFDFF" stroke="#B8C0CC" stroke-width="2"/>
<path fill-rule="evenodd" clip-rule="evenodd" d="M35.8639 46.39C35.8639 46.0333 36.0723 45.7176 36.3058 45.4481C36.5684 45.145 36.7275 44.7499 36.7275 44.3182C36.7275 43.3623 35.9562 42.5909 35.0002 42.5909C34.0476 42.5909 33.2729 43.3656 33.2729 44.3182C33.2729 44.7499 33.432 45.145 33.6946 45.4481C33.9282 45.7177 34.1366 46.0334 34.1366 46.3901V47.1818C34.1366 47.5082 34.4012 47.7727 34.7275 47.7727H35.273C35.5993 47.7727 35.8639 47.5082 35.8639 47.1818V46.39Z" fill="#B8C0CC"/>
<path d="M35 59C45.4934 59 54 50.4934 54 40C54 33.33 50.5631 27.4628 45.3636 24.0727M35 21C24.5066 21 16 29.5066 16 40C16 47.0327 19.8209 53.173 25.5 56.4581M25.5 56.4581V52.0909M25.5 56.4581L20.3182 56.4091M45.3636 24.0727V27.9091M45.3636 24.0727H49.6818" stroke="#B8C0CC" stroke-width="2" stroke-linecap="round" stroke-linejoin="round"/>
</svg>
