<svg width="171" height="52" viewBox="0 0 171 52" fill="none" xmlns="http://www.w3.org/2000/svg">
<path d="M28.2511 34.524C28.2511 37.368 27.2251 39.762 25.1731 41.706C23.1571 43.65 20.4751 44.838 17.1271 45.27V49.104C17.1271 49.824 16.9111 50.4 16.4791 50.832C16.0831 51.264 15.5431 51.48 14.8591 51.48C14.1751 51.48 13.6171 51.264 13.1851 50.832C12.7891 50.4 12.5911 49.824 12.5911 49.104V45.378C10.4311 45.198 8.34314 44.766 6.32714 44.082C4.34714 43.362 2.65514 42.39 1.25114 41.166C0.567141 40.662 0.225141 39.942 0.225141 39.006C0.225141 38.358 0.387141 37.818 0.711141 37.386C1.07114 36.918 1.50314 36.684 2.00714 36.684C2.51114 36.684 3.12314 36.918 3.84314 37.386C7.29914 39.726 10.7911 40.896 14.3191 40.896C16.9831 40.896 19.0351 40.356 20.4751 39.276C21.9511 38.196 22.6891 36.666 22.6891 34.686C22.6891 33.498 22.2931 32.544 21.5011 31.824C20.7451 31.068 19.7731 30.474 18.5851 30.042C17.4331 29.61 15.8311 29.142 13.7791 28.638C11.0791 27.954 8.88314 27.27 7.19114 26.586C5.49914 25.902 4.04114 24.84 2.81714 23.4C1.62914 21.96 1.03514 20.052 1.03514 17.676C1.03514 14.76 2.07914 12.294 4.16714 10.278C6.29114 8.226 9.08114 7.002 12.5371 6.606V2.826C12.5371 2.106 12.7351 1.53 13.1311 1.098C13.5631 0.665998 14.1211 0.449997 14.8051 0.449997C15.4891 0.449997 16.0291 0.665998 16.4251 1.098C16.8571 1.53 17.0731 2.106 17.0731 2.826V6.606C18.9091 6.786 20.6551 7.236 22.3111 7.956C24.0031 8.64 25.4971 9.576 26.7931 10.764C27.5131 11.34 27.8731 12.06 27.8731 12.924C27.8731 13.536 27.6931 14.076 27.3331 14.544C26.9731 15.012 26.5411 15.246 26.0371 15.246C25.5331 15.246 24.9211 15.012 24.2011 14.544C22.6531 13.356 21.1771 12.474 19.7731 11.898C18.3691 11.322 16.7131 11.034 14.8051 11.034C12.3211 11.034 10.3411 11.61 8.86514 12.762C7.38914 13.914 6.65114 15.48 6.65114 17.46C6.65114 18.792 7.06514 19.872 7.89314 20.7C8.72114 21.528 9.74714 22.176 10.9711 22.644C12.1951 23.076 13.8691 23.544 15.9931 24.048C18.6211 24.696 20.7451 25.362 22.3651 26.046C23.9851 26.694 25.3711 27.702 26.5231 29.07C27.6751 30.402 28.2511 32.22 28.2511 34.524ZM59.064 32.688C60.828 32.688 61.71 33.426 61.71 34.902C61.71 36.378 60.828 37.116 59.064 37.116H55.608V42.462C55.608 43.362 55.356 44.064 54.852 44.568C54.348 45.036 53.682 45.27 52.854 45.27C52.062 45.27 51.414 45.036 50.91 44.568C50.406 44.064 50.154 43.362 50.154 42.462V37.116H34.98C34.188 37.116 33.576 36.9 33.144 36.468C32.712 36.036 32.496 35.478 32.496 34.794C32.496 34.074 32.73 33.372 33.198 32.688L50.424 7.902C51 7.074 51.81 6.66 52.854 6.66C53.61 6.66 54.258 6.912 54.798 7.416C55.338 7.884 55.608 8.568 55.608 9.468V32.688H59.064ZM38.49 32.688H50.154V15.84L38.49 32.688ZM77.889 6.498C82.605 6.498 86.223 8.118 88.743 11.358C91.299 14.562 92.577 19.152 92.577 25.128C92.577 29.34 91.983 32.976 90.795 36.036C89.607 39.06 87.897 41.382 85.665 43.002C83.433 44.622 80.787 45.432 77.727 45.432C75.675 45.432 73.623 45.054 71.571 44.298C69.519 43.542 67.773 42.498 66.333 41.166C65.613 40.554 65.253 39.834 65.253 39.006C65.253 38.358 65.433 37.818 65.793 37.386C66.153 36.918 66.585 36.684 67.089 36.684C67.413 36.684 67.701 36.738 67.953 36.846C68.241 36.954 68.565 37.134 68.925 37.386C71.949 39.726 74.829 40.896 77.565 40.896C80.553 40.896 82.875 39.528 84.531 36.792C86.187 34.02 87.015 30.168 87.015 25.236V25.128C86.223 26.964 84.927 28.422 83.127 29.502C81.363 30.546 79.365 31.068 77.133 31.068C74.865 31.068 72.831 30.564 71.031 29.556C69.231 28.512 67.827 27.072 66.819 25.236C65.847 23.4 65.361 21.294 65.361 18.918C65.361 16.542 65.901 14.418 66.981 12.546C68.061 10.638 69.537 9.162 71.409 8.118C73.317 7.038 75.477 6.498 77.889 6.498ZM78.159 26.532C80.427 26.532 82.263 25.83 83.667 24.426C85.107 22.986 85.827 21.114 85.827 18.81C85.827 16.47 85.125 14.598 83.721 13.194C82.317 11.754 80.463 11.034 78.159 11.034C75.927 11.034 74.127 11.754 72.759 13.194C71.427 14.598 70.761 16.47 70.761 18.81C70.761 21.114 71.427 22.986 72.759 24.426C74.127 25.83 75.927 26.532 78.159 26.532ZM101.682 45.27C100.71 45.27 99.8819 44.946 99.1979 44.298C98.5499 43.65 98.2259 42.822 98.2259 41.814C98.2259 40.806 98.5499 39.978 99.1979 39.33C99.8819 38.646 100.71 38.304 101.682 38.304C102.654 38.304 103.464 38.646 104.112 39.33C104.76 39.978 105.084 40.806 105.084 41.814C105.084 42.822 104.76 43.65 104.112 44.298C103.464 44.946 102.654 45.27 101.682 45.27ZM123.135 6.498C127.851 6.498 131.469 8.118 133.989 11.358C136.545 14.562 137.823 19.152 137.823 25.128C137.823 29.34 137.229 32.976 136.041 36.036C134.853 39.06 133.143 41.382 130.911 43.002C128.679 44.622 126.033 45.432 122.973 45.432C120.921 45.432 118.869 45.054 116.817 44.298C114.765 43.542 113.019 42.498 111.579 41.166C110.859 40.554 110.499 39.834 110.499 39.006C110.499 38.358 110.679 37.818 111.039 37.386C111.399 36.918 111.831 36.684 112.335 36.684C112.659 36.684 112.947 36.738 113.199 36.846C113.487 36.954 113.811 37.134 114.171 37.386C117.195 39.726 120.075 40.896 122.811 40.896C125.799 40.896 128.121 39.528 129.777 36.792C131.433 34.02 132.261 30.168 132.261 25.236V25.128C131.469 26.964 130.173 28.422 128.373 29.502C126.609 30.546 124.611 31.068 122.379 31.068C120.111 31.068 118.077 30.564 116.277 29.556C114.477 28.512 113.073 27.072 112.065 25.236C111.093 23.4 110.607 21.294 110.607 18.918C110.607 16.542 111.147 14.418 112.227 12.546C113.307 10.638 114.783 9.162 116.655 8.118C118.563 7.038 120.723 6.498 123.135 6.498ZM123.405 26.532C125.673 26.532 127.509 25.83 128.913 24.426C130.353 22.986 131.073 21.114 131.073 18.81C131.073 16.47 130.371 14.598 128.967 13.194C127.563 11.754 125.709 11.034 123.405 11.034C121.173 11.034 119.373 11.754 118.005 13.194C116.673 14.598 116.007 16.47 116.007 18.81C116.007 21.114 116.673 22.986 118.005 24.426C119.373 25.83 121.173 26.532 123.405 26.532ZM155.514 6.498C160.23 6.498 163.848 8.118 166.368 11.358C168.924 14.562 170.202 19.152 170.202 25.128C170.202 29.34 169.608 32.976 168.42 36.036C167.232 39.06 165.522 41.382 163.29 43.002C161.058 44.622 158.412 45.432 155.352 45.432C153.3 45.432 151.248 45.054 149.196 44.298C147.144 43.542 145.398 42.498 143.958 41.166C143.238 40.554 142.878 39.834 142.878 39.006C142.878 38.358 143.058 37.818 143.418 37.386C143.778 36.918 144.21 36.684 144.714 36.684C145.038 36.684 145.326 36.738 145.578 36.846C145.866 36.954 146.19 37.134 146.55 37.386C149.574 39.726 152.454 40.896 155.19 40.896C158.178 40.896 160.5 39.528 162.156 36.792C163.812 34.02 164.64 30.168 164.64 25.236V25.128C163.848 26.964 162.552 28.422 160.752 29.502C158.988 30.546 156.99 31.068 154.758 31.068C152.49 31.068 150.456 30.564 148.656 29.556C146.856 28.512 145.452 27.072 144.444 25.236C143.472 23.4 142.986 21.294 142.986 18.918C142.986 16.542 143.526 14.418 144.606 12.546C145.686 10.638 147.162 9.162 149.034 8.118C150.942 7.038 153.102 6.498 155.514 6.498ZM155.784 26.532C158.052 26.532 159.888 25.83 161.292 24.426C162.732 22.986 163.452 21.114 163.452 18.81C163.452 16.47 162.75 14.598 161.346 13.194C159.942 11.754 158.088 11.034 155.784 11.034C153.552 11.034 151.752 11.754 150.384 13.194C149.052 14.598 148.386 16.47 148.386 18.81C148.386 21.114 149.052 22.986 150.384 24.426C151.752 25.83 153.552 26.532 155.784 26.532Z" fill="url(#paint0_linear)"/>
<defs>
<linearGradient id="paint0_linear" x1="-2" y1="44.6462" x2="173.344" y2="6.37439" gradientUnits="userSpaceOnUse">
<stop stop-color="#FA0000"/>
<stop offset="1" stop-color="#E220A9"/>
</linearGradient>
</defs>
</svg>
