<svg width="139" height="52" viewBox="0 0 139 52" fill="none" xmlns="http://www.w3.org/2000/svg">
<path d="M28.4406 34.524C28.4406 37.368 27.4146 39.762 25.3626 41.706C23.3466 43.65 20.6646 44.838 17.3166 45.27V49.104C17.3166 49.824 17.1006 50.4 16.6686 50.832C16.2726 51.264 15.7326 51.48 15.0486 51.48C14.3646 51.48 13.8066 51.264 13.3746 50.832C12.9786 50.4 12.7806 49.824 12.7806 49.104V45.378C10.6206 45.198 8.53259 44.766 6.51659 44.082C4.53659 43.362 2.84459 42.39 1.44059 41.166C0.756594 40.662 0.414594 39.942 0.414594 39.006C0.414594 38.358 0.576594 37.818 0.900594 37.386C1.26059 36.918 1.69259 36.684 2.19659 36.684C2.70059 36.684 3.31259 36.918 4.03259 37.386C7.48859 39.726 10.9806 40.896 14.5086 40.896C17.1726 40.896 19.2246 40.356 20.6646 39.276C22.1406 38.196 22.8786 36.666 22.8786 34.686C22.8786 33.498 22.4826 32.544 21.6906 31.824C20.9346 31.068 19.9626 30.474 18.7746 30.042C17.6226 29.61 16.0206 29.142 13.9686 28.638C11.2686 27.954 9.07259 27.27 7.38059 26.586C5.68859 25.902 4.23059 24.84 3.00659 23.4C1.81859 21.96 1.22459 20.052 1.22459 17.676C1.22459 14.76 2.26859 12.294 4.35659 10.278C6.48059 8.226 9.27059 7.002 12.7266 6.606V2.826C12.7266 2.106 12.9246 1.53 13.3206 1.098C13.7526 0.665998 14.3106 0.449997 14.9946 0.449997C15.6786 0.449997 16.2186 0.665998 16.6146 1.098C17.0466 1.53 17.2626 2.106 17.2626 2.826V6.606C19.0986 6.786 20.8446 7.236 22.5006 7.956C24.1926 8.64 25.6866 9.576 26.9826 10.764C27.7026 11.34 28.0626 12.06 28.0626 12.924C28.0626 13.536 27.8826 14.076 27.5226 14.544C27.1626 15.012 26.7306 15.246 26.2266 15.246C25.7226 15.246 25.1106 15.012 24.3906 14.544C22.8426 13.356 21.3666 12.474 19.9626 11.898C18.5586 11.322 16.9026 11.034 14.9946 11.034C12.5106 11.034 10.5306 11.61 9.05459 12.762C7.57859 13.914 6.84059 15.48 6.84059 17.46C6.84059 18.792 7.25459 19.872 8.08259 20.7C8.91059 21.528 9.93659 22.176 11.1606 22.644C12.3846 23.076 14.0586 23.544 16.1826 24.048C18.8106 24.696 20.9346 25.362 22.5546 26.046C24.1746 26.694 25.5606 27.702 26.7126 29.07C27.8646 30.402 28.4406 32.22 28.4406 34.524ZM45.6995 6.498C50.4155 6.498 54.0335 8.118 56.5535 11.358C59.1095 14.562 60.3875 19.152 60.3875 25.128C60.3875 29.34 59.7935 32.976 58.6055 36.036C57.4175 39.06 55.7075 41.382 53.4755 43.002C51.2435 44.622 48.5975 45.432 45.5375 45.432C43.4855 45.432 41.4335 45.054 39.3815 44.298C37.3295 43.542 35.5835 42.498 34.1435 41.166C33.4235 40.554 33.0635 39.834 33.0635 39.006C33.0635 38.358 33.2435 37.818 33.6035 37.386C33.9635 36.918 34.3955 36.684 34.8995 36.684C35.2235 36.684 35.5115 36.738 35.7635 36.846C36.0515 36.954 36.3755 37.134 36.7355 37.386C39.7595 39.726 42.6395 40.896 45.3755 40.896C48.3635 40.896 50.6855 39.528 52.3415 36.792C53.9975 34.02 54.8255 30.168 54.8255 25.236V25.128C54.0335 26.964 52.7375 28.422 50.9375 29.502C49.1735 30.546 47.1755 31.068 44.9435 31.068C42.6755 31.068 40.6415 30.564 38.8415 29.556C37.0415 28.512 35.6375 27.072 34.6295 25.236C33.6575 23.4 33.1715 21.294 33.1715 18.918C33.1715 16.542 33.7115 14.418 34.7915 12.546C35.8715 10.638 37.3475 9.162 39.2195 8.118C41.1275 7.038 43.2875 6.498 45.6995 6.498ZM45.9695 26.532C48.2375 26.532 50.0735 25.83 51.4775 24.426C52.9175 22.986 53.6375 21.114 53.6375 18.81C53.6375 16.47 52.9355 14.598 51.5315 13.194C50.1275 11.754 48.2735 11.034 45.9695 11.034C43.7375 11.034 41.9375 11.754 40.5695 13.194C39.2375 14.598 38.5715 16.47 38.5715 18.81C38.5715 21.114 39.2375 22.986 40.5695 24.426C41.9375 25.83 43.7375 26.532 45.9695 26.532ZM69.4924 45.27C68.5204 45.27 67.6924 44.946 67.0084 44.298C66.3604 43.65 66.0364 42.822 66.0364 41.814C66.0364 40.806 66.3604 39.978 67.0084 39.33C67.6924 38.646 68.5204 38.304 69.4924 38.304C70.4644 38.304 71.2744 38.646 71.9224 39.33C72.5704 39.978 72.8944 40.806 72.8944 41.814C72.8944 42.822 72.5704 43.65 71.9224 44.298C71.2744 44.946 70.4644 45.27 69.4924 45.27ZM90.9456 6.498C95.6616 6.498 99.2796 8.118 101.8 11.358C104.356 14.562 105.634 19.152 105.634 25.128C105.634 29.34 105.04 32.976 103.852 36.036C102.664 39.06 100.954 41.382 98.7216 43.002C96.4896 44.622 93.8436 45.432 90.7836 45.432C88.7316 45.432 86.6796 45.054 84.6276 44.298C82.5756 43.542 80.8296 42.498 79.3896 41.166C78.6696 40.554 78.3096 39.834 78.3096 39.006C78.3096 38.358 78.4896 37.818 78.8496 37.386C79.2096 36.918 79.6416 36.684 80.1456 36.684C80.4696 36.684 80.7576 36.738 81.0096 36.846C81.2976 36.954 81.6216 37.134 81.9816 37.386C85.0056 39.726 87.8856 40.896 90.6216 40.896C93.6096 40.896 95.9316 39.528 97.5876 36.792C99.2436 34.02 100.072 30.168 100.072 25.236V25.128C99.2796 26.964 97.9836 28.422 96.1836 29.502C94.4196 30.546 92.4216 31.068 90.1896 31.068C87.9216 31.068 85.8876 30.564 84.0876 29.556C82.2876 28.512 80.8836 27.072 79.8756 25.236C78.9036 23.4 78.4176 21.294 78.4176 18.918C78.4176 16.542 78.9576 14.418 80.0376 12.546C81.1176 10.638 82.5936 9.162 84.4656 8.118C86.3736 7.038 88.5336 6.498 90.9456 6.498ZM91.2156 26.532C93.4836 26.532 95.3196 25.83 96.7236 24.426C98.1636 22.986 98.8836 21.114 98.8836 18.81C98.8836 16.47 98.1816 14.598 96.7776 13.194C95.3736 11.754 93.5196 11.034 91.2156 11.034C88.9836 11.034 87.1836 11.754 85.8156 13.194C84.4836 14.598 83.8176 16.47 83.8176 18.81C83.8176 21.114 84.4836 22.986 85.8156 24.426C87.1836 25.83 88.9836 26.532 91.2156 26.532ZM123.325 6.498C128.041 6.498 131.659 8.118 134.179 11.358C136.735 14.562 138.013 19.152 138.013 25.128C138.013 29.34 137.419 32.976 136.231 36.036C135.043 39.06 133.333 41.382 131.101 43.002C128.869 44.622 126.223 45.432 123.163 45.432C121.111 45.432 119.059 45.054 117.007 44.298C114.955 43.542 113.209 42.498 111.769 41.166C111.049 40.554 110.689 39.834 110.689 39.006C110.689 38.358 110.869 37.818 111.229 37.386C111.589 36.918 112.021 36.684 112.525 36.684C112.849 36.684 113.137 36.738 113.389 36.846C113.677 36.954 114.001 37.134 114.361 37.386C117.385 39.726 120.265 40.896 123.001 40.896C125.989 40.896 128.311 39.528 129.967 36.792C131.623 34.02 132.451 30.168 132.451 25.236V25.128C131.659 26.964 130.363 28.422 128.563 29.502C126.799 30.546 124.801 31.068 122.568 31.068C120.301 31.068 118.267 30.564 116.467 29.556C114.667 28.512 113.263 27.072 112.255 25.236C111.283 23.4 110.797 21.294 110.797 18.918C110.797 16.542 111.337 14.418 112.417 12.546C113.497 10.638 114.973 9.162 116.845 8.118C118.753 7.038 120.913 6.498 123.325 6.498ZM123.595 26.532C125.863 26.532 127.699 25.83 129.103 24.426C130.543 22.986 131.263 21.114 131.263 18.81C131.263 16.47 130.561 14.598 129.157 13.194C127.753 11.754 125.899 11.034 123.595 11.034C121.363 11.034 119.563 11.754 118.195 13.194C116.863 14.598 116.197 16.47 116.197 18.81C116.197 21.114 116.863 22.986 118.195 24.426C119.563 25.83 121.363 26.532 123.595 26.532Z" fill="url(#paint0_linear)"/>
<defs>
<linearGradient id="paint0_linear" x1="-2" y1="44.6462" x2="141.524" y2="6.18766" gradientUnits="userSpaceOnUse">
<stop stop-color="#FA0000"/>
<stop offset="1" stop-color="#E220A9"/>
</linearGradient>
</defs>
</svg>
