<svg width="106" height="106" viewBox="0 0 106 106" fill="none" xmlns="http://www.w3.org/2000/svg">
<circle cx="52.86" cy="52.86" r="52.86" fill="#F6F9FB"/>
<path d="M46.6274 32.9998C49.7412 28.498 54.9404 25.5488 60.8284 25.5488C66.7164 25.5488 71.9156 28.498 75.0294 32.9998" stroke="#B8C0CC" stroke-width="2" stroke-linecap="round"/>
<path d="M41.9216 28.6861C46.2143 22.9711 53.0488 19.2744 60.7468 19.2744C68.4447 19.2744 75.2792 22.9711 79.572 28.6861" stroke="#FA0000" stroke-width="2" stroke-linecap="round"/>
<path d="M38 23.9804C43.4651 17.2792 51.7871 13 61.1085 13C70.4298 13 78.7518 17.2792 84.2169 23.9804" stroke="#B8C0CC" stroke-width="2" stroke-linecap="round"/>
<path d="M40.3293 53.4268V77.9999C40.3293 89.0456 49.2836 97.9999 60.3293 97.9999H60.7561C71.8018 97.9999 80.7561 89.0456 80.7561 77.9999V53.4268" stroke="#FA0000" stroke-width="10" stroke-linecap="round"/>
<path d="M40.3293 62.7559V77.9998C40.3293 89.0455 49.2836 97.9998 60.3293 97.9998H60.7561C71.8018 97.9998 80.7561 89.0455 80.7561 77.9998V62.7559" stroke="#B8C0CC" stroke-width="10"/>
</svg>
