<svg width="107" height="106" viewBox="0 0 107 106" fill="none" xmlns="http://www.w3.org/2000/svg">
<circle cx="52.86" cy="52.86" r="52.86" fill="#F6F9FB"/>
<path d="M100.493 68.0245C100.583 67.2867 100.643 66.5193 100.643 65.7224C100.643 64.9255 100.583 64.1582 100.462 63.4203L105.555 59.5245C106.007 59.1703 106.128 58.521 105.857 58.0193L101.035 49.844C100.734 49.3127 100.101 49.1356 99.5584 49.3127L93.5616 51.6738C92.296 50.7294 90.9701 49.962 89.4935 49.3717L88.5894 43.1148C88.499 42.5245 87.9867 42.1113 87.384 42.1113H77.741C77.1383 42.1113 76.6561 42.5245 76.5657 43.1148L75.6617 49.3717C74.1851 49.962 72.829 50.7589 71.5935 51.6738L65.5967 49.3127C65.0543 49.1061 64.4214 49.3127 64.1201 49.844L59.2986 58.0193C58.9972 58.5506 59.1178 59.1703 59.5999 59.5245L64.6927 63.4203C64.5721 64.1582 64.4817 64.9551 64.4817 65.7224C64.4817 66.4898 64.542 67.2867 64.6625 68.0245L59.5698 71.9203C59.1178 72.2745 58.9972 72.9238 59.2684 73.4255L64.09 81.6009C64.3913 82.1321 65.0241 82.3092 65.5666 82.1321L71.5634 79.771C72.829 80.7155 74.1549 81.4828 75.6315 82.0731L76.5356 88.33C76.6561 88.9203 77.1383 89.3335 77.741 89.3335H87.384C87.9867 89.3335 88.499 88.9203 88.5593 88.33L89.4633 82.0731C90.9399 81.4828 92.296 80.686 93.5315 79.771L99.5283 82.1321C100.071 82.3387 100.704 82.1321 101.005 81.6009L105.826 73.4255C106.128 72.8943 106.007 72.2745 105.525 71.9203L100.493 68.0245ZM82.5625 74.5766C77.5903 74.5766 73.5221 70.5922 73.5221 65.7224C73.5221 60.8526 77.5903 56.8683 82.5625 56.8683C87.5347 56.8683 91.6029 60.8526 91.6029 65.7224C91.6029 70.5922 87.5347 74.5766 82.5625 74.5766Z" fill="white" stroke="#FA0000" stroke-width="2" stroke-linecap="round"/>
<path d="M46.612 56.5644C46.6789 56.0184 46.7235 55.4506 46.7235 54.8609C46.7235 54.2712 46.6789 53.7033 46.5897 53.1573L50.3584 50.2744C50.6929 50.0123 50.7821 49.5319 50.5814 49.1606L47.0134 43.1108C46.7904 42.7177 46.3221 42.5867 45.9207 42.7177L41.4831 44.4649C40.5465 43.766 39.5653 43.1982 38.4727 42.7614L37.8037 38.1312C37.7368 37.6944 37.3577 37.3887 36.9117 37.3887H29.7758C29.3298 37.3887 28.973 37.6944 28.9061 38.1312L28.2371 42.7614C27.1445 43.1982 26.141 43.7879 25.2267 44.4649L20.7891 42.7177C20.3877 42.5648 19.9194 42.7177 19.6964 43.1108L16.1284 49.1606C15.9054 49.5537 15.9946 50.0123 16.3514 50.2744L20.1201 53.1573C20.0309 53.7033 19.964 54.293 19.964 54.8609C19.964 55.4287 20.0086 56.0184 20.0978 56.5644L16.3291 59.4473C15.9946 59.7094 15.9054 60.1899 16.1061 60.5612L19.6741 66.6109C19.8971 67.0041 20.3654 67.1351 20.7668 67.0041L25.2044 65.2568C26.141 65.9557 27.1222 66.5236 28.2148 66.9604L28.8838 71.5905C28.973 72.0273 29.3298 72.3331 29.7758 72.3331H36.9117C37.3577 72.3331 37.7368 72.0273 37.7814 71.5905L38.4504 66.9604C39.543 66.5236 40.5465 65.9339 41.4608 65.2568L45.8984 67.0041C46.2998 67.1569 46.7681 67.0041 46.9911 66.6109L50.5591 60.5612C50.7821 60.1681 50.6929 59.7094 50.3361 59.4473L46.612 56.5644ZM33.3438 61.413C29.6643 61.413 26.6539 58.4645 26.6539 54.8609C26.6539 51.2572 29.6643 48.3088 33.3438 48.3088C37.0232 48.3088 40.0336 51.2572 40.0336 54.8609C40.0336 58.4645 37.0232 61.413 33.3438 61.413Z" fill="#B8C0CC" stroke="#B8C0CC" stroke-width="2" stroke-linecap="round"/>
<path d="M69.4963 22.9566C69.5415 22.5877 69.5716 22.204 69.5716 21.8055C69.5716 21.4071 69.5415 21.0234 69.4812 20.6545L72.0276 18.7066C72.2536 18.5295 72.3139 18.2049 72.1783 17.954L69.7675 13.8663C69.6168 13.6007 69.3004 13.5122 69.0292 13.6007L66.0308 14.7812C65.398 14.309 64.735 13.9253 63.9967 13.6302L63.5447 10.5017C63.4995 10.2066 63.2434 10 62.942 10H58.1205C57.8191 10 57.5781 10.2066 57.5329 10.5017L57.0808 13.6302C56.3425 13.9253 55.6645 14.3238 55.0467 14.7812L52.0483 13.6007C51.7771 13.4974 51.4607 13.6007 51.3101 13.8663L48.8993 17.954C48.7486 18.2196 48.8089 18.5295 49.05 18.7066L51.5963 20.6545C51.5361 21.0234 51.4909 21.4219 51.4909 21.8055C51.4909 22.1892 51.521 22.5877 51.5813 22.9566L49.0349 24.9045C48.8089 25.0816 48.7486 25.4062 48.8842 25.6571L51.295 29.7448C51.4457 30.0104 51.7621 30.0989 52.0333 30.0104L55.0317 28.8298C55.6645 29.3021 56.3275 29.6858 57.0658 29.9809L57.5178 33.1094C57.5781 33.4045 57.8191 33.6111 58.1205 33.6111H62.942C63.2434 33.6111 63.4995 33.4045 63.5296 33.1094L63.9817 29.9809C64.72 29.6858 65.398 29.2873 66.0158 28.8298L69.0142 30.0104C69.2854 30.1137 69.6018 30.0104 69.7524 29.7448L72.1632 25.6571C72.3139 25.3915 72.2536 25.0816 72.0125 24.9045L69.4963 22.9566ZM60.5312 26.2326C58.0451 26.2326 56.0111 24.2404 56.0111 21.8055C56.0111 19.3707 58.0451 17.3785 60.5312 17.3785C63.0174 17.3785 65.0514 19.3707 65.0514 21.8055C65.0514 24.2404 63.0174 26.2326 60.5312 26.2326Z" fill="#FA0000"/>
<path d="M31.4185 81.3058C38.3834 89.6772 48.8403 95.0002 60.5312 95.0002C63.9357 95.0002 67.2356 94.5488 70.375 93.7022M78.8211 23.2225C86.4874 27.4757 92.5381 34.3198 95.8107 42.5836M44.5937 22.0229C39.4859 24.406 34.9924 27.899 31.4185 32.1947" stroke="#B8C0CC" stroke-width="2" stroke-linecap="round"/>
</svg>
