<svg width="106" height="106" viewBox="0 0 106 106" fill="none" xmlns="http://www.w3.org/2000/svg">
<circle cx="52.86" cy="52.86" r="52.86" fill="#F6F9FB"/>
<path d="M60.1102 11.001H30.8791C26.5281 11.001 23.001 14.5281 23.001 18.8791V88.0602C23.001 92.4112 26.5281 95.9383 30.8791 95.9383H60.1102C64.4612 95.9383 67.9883 92.4112 67.9883 88.0602V18.8791C67.9883 14.5281 64.4612 11.001 60.1102 11.001Z" fill="white" stroke="#B8C0CC" stroke-width="1.88" stroke-miterlimit="10"/>
<path d="M31.3372 11L33.6195 15.4128C33.8163 15.7933 34.114 16.1124 34.48 16.3351C34.8459 16.5578 35.2661 16.6754 35.6945 16.6753H55.1497C55.5677 16.6754 55.9781 16.5632 56.338 16.3506C56.6979 16.138 56.9942 15.8327 57.1959 15.4666L59.6565 11.001" fill="#B8C0CC"/>
<path d="M23 81.5977H67.9569" stroke="#B8C0CC" stroke-width="1.88"/>
<path d="M45.4668 91.5379C47.2601 91.5379 48.7138 90.0842 48.7138 88.2909C48.7138 86.4977 47.2601 85.0439 45.4668 85.0439C43.6735 85.0439 42.2198 86.4977 42.2198 88.2909C42.2198 90.0842 43.6735 91.5379 45.4668 91.5379Z" fill="#B8C0CC"/>
<rect x="30.6579" y="32.0791" width="16.8947" height="6.15789" rx="3.07895" stroke="#B8C0CC"/>
<rect x="30.6579" y="46.3945" width="16.8947" height="6.15789" rx="3.07895" stroke="#B8C0CC"/>
<rect x="45.3684" y="62" width="53.6842" height="34" rx="4" fill="white" stroke="#B8C0CC" stroke-width="2"/>
<rect x="45.3684" y="68.2632" width="53.6842" height="7.15789" fill="#B8C0CC"/>
<rect x="51.6316" y="80.7896" width="10.7368" height="8.94737" rx="2" stroke="#FA0000"/>
<circle cx="57.8947" cy="49.4735" r="3.57895" fill="#FA0000"/>
<circle cx="57.8947" cy="35.1581" r="3.57895" fill="#FA0000"/>
</svg>
