<svg width="106" height="106" viewBox="0 0 106 106" fill="none" xmlns="http://www.w3.org/2000/svg">
<circle cx="52.86" cy="52.86" r="52.86" fill="#F6F9FB"/>
<path d="M85.5521 90.724V89.2022C85.5521 75.9991 74.8489 65.2959 61.6458 65.2959C48.4428 65.2959 37.7396 75.9991 37.7396 89.2022V90.724C37.7396 92.5965 39.2575 94.1144 41.13 94.1144H82.1617C84.0341 94.1144 85.5521 92.5965 85.5521 90.724Z" fill="white" stroke="#B8C0CC" stroke-width="2" stroke-linecap="round"/>
<circle cx="61.5" cy="50.5" r="9.5" fill="#B8C0CC" stroke="#B8C0CC" stroke-width="2"/>
<path d="M39.0677 22.0901L40.377 26.1196C40.6447 26.9437 41.4127 27.5016 42.2791 27.5016H46.516L43.0883 29.992C42.3873 30.5013 42.094 31.404 42.3617 32.2281L43.671 36.2576L40.2433 33.7672C39.5423 33.2579 38.5931 33.2579 37.8921 33.7672L34.4644 36.2576L35.7737 32.2281C36.0414 31.404 35.7481 30.5013 35.0471 29.992L31.6194 27.5016L35.8563 27.5016C36.7228 27.5016 37.4907 26.9437 37.7584 26.1196L39.0677 22.0901Z" stroke="#B8C0CC" stroke-width="2"/>
<path d="M61.1406 12.8235C61.4458 11.9146 62.7314 11.9146 63.0366 12.8235L64.9409 18.4954C65.0777 18.9027 65.4593 19.1771 65.8889 19.1771H71.98C72.9566 19.1771 73.3541 20.4334 72.5551 20.9952L67.6844 24.4198C67.3224 24.6743 67.1707 25.1366 67.3116 25.5561L69.1852 31.1367C69.4926 32.0522 68.4521 32.8285 67.6621 32.273L62.6638 28.7586C62.3187 28.516 61.8585 28.516 61.5134 28.7586L56.5151 32.273C55.725 32.8285 54.6845 32.0522 54.9919 31.1367L56.8656 25.5561C57.0065 25.1366 56.8548 24.6743 56.4928 24.4198L51.622 20.9952C50.8231 20.4334 51.2206 19.1771 52.1972 19.1771H58.2883C58.7179 19.1771 59.0995 18.9027 59.2362 18.4954L61.1406 12.8235Z" fill="#FA0000"/>
<path d="M84.224 22.0901L85.5332 26.1196C85.801 26.9437 86.5689 27.5016 87.4354 27.5016H91.6723L88.2445 29.992C87.5436 30.5013 87.2502 31.404 87.518 32.2281L88.8273 36.2576L85.3995 33.7672C84.6986 33.2579 83.7494 33.2579 83.0484 33.7672L79.6206 36.2576L80.9299 32.2281C81.1977 31.404 80.9044 30.5013 80.2034 29.992L76.7756 27.5016L81.0126 27.5016C81.879 27.5016 82.6469 26.9437 82.9147 26.1196L84.224 22.0901Z" stroke="#B8C0CC" stroke-width="2"/>
<circle cx="82.0104" cy="86.1462" r="8.85417" fill="white"/>
<path d="M86.0745 82.2326L80.2396 88.0675L77.0609 84.8977L75.8125 86.1462L80.2396 90.5732L87.3229 83.4899L86.0745 82.2326ZM82.0104 77.292C77.1229 77.292 73.1562 81.2587 73.1562 86.1462C73.1562 91.0337 77.1229 95.0003 82.0104 95.0003C86.8979 95.0003 90.8646 91.0337 90.8646 86.1462C90.8646 81.2587 86.8979 77.292 82.0104 77.292ZM82.0104 93.2295C78.0969 93.2295 74.9271 90.0597 74.9271 86.1462C74.9271 82.2326 78.0969 79.0628 82.0104 79.0628C85.924 79.0628 89.0937 82.2326 89.0937 86.1462C89.0937 90.0597 85.924 93.2295 82.0104 93.2295Z" fill="#FA0000"/>
</svg>
