<svg width="174" height="56" viewBox="0 0 174 56" fill="none" xmlns="http://www.w3.org/2000/svg">
<path d="M19.9385 19.224C19.9385 20.504 19.4905 21.584 18.5945 22.464C17.7145 23.344 16.5225 23.896 15.0185 24.12V25.632C15.0185 26 14.9065 26.296 14.6825 26.52C14.4585 26.76 14.1625 26.88 13.7945 26.88C13.4265 26.88 13.1305 26.76 12.9065 26.52C12.6825 26.296 12.5705 26 12.5705 25.632V24.168C11.6585 24.088 10.7705 23.896 9.90649 23.592C9.04249 23.288 8.29849 22.888 7.67449 22.392C7.46649 22.248 7.32249 22.088 7.24249 21.912C7.16249 21.736 7.12249 21.52 7.12249 21.264C7.12249 20.928 7.21849 20.632 7.41049 20.376C7.61849 20.12 7.85049 19.992 8.10649 19.992C8.26649 19.992 8.41049 20.024 8.53849 20.088C8.68249 20.136 8.86649 20.224 9.09049 20.352C9.82649 20.832 10.5465 21.184 11.2505 21.408C11.9705 21.632 12.7225 21.744 13.5065 21.744C14.5785 21.744 15.4025 21.536 15.9785 21.12C16.5705 20.704 16.8665 20.104 16.8665 19.32C16.8665 18.856 16.7065 18.48 16.3865 18.192C16.0665 17.904 15.6665 17.68 15.1865 17.52C14.7065 17.344 14.0345 17.144 13.1705 16.92C11.9705 16.616 10.9945 16.312 10.2425 16.008C9.49049 15.688 8.84249 15.208 8.29849 14.568C7.75449 13.928 7.48249 13.064 7.48249 11.976C7.48249 10.68 7.94649 9.576 8.87449 8.664C9.80249 7.752 11.0185 7.184 12.5225 6.96V5.448C12.5225 5.08 12.6345 4.784 12.8585 4.56C13.0825 4.32 13.3785 4.2 13.7465 4.2C14.1145 4.2 14.4105 4.32 14.6345 4.56C14.8585 4.784 14.9705 5.08 14.9705 5.448V6.936C16.5865 7.144 17.9785 7.728 19.1465 8.688C19.5305 8.976 19.7225 9.352 19.7225 9.816C19.7225 10.152 19.6185 10.448 19.4105 10.704C19.2185 10.96 18.9865 11.088 18.7145 11.088C18.5705 11.088 18.4265 11.064 18.2825 11.016C18.1545 10.968 17.9785 10.872 17.7545 10.728C17.0985 10.264 16.4745 9.92 15.8825 9.696C15.3065 9.456 14.6185 9.336 13.8185 9.336C12.8265 9.336 12.0345 9.56 11.4425 10.008C10.8505 10.44 10.5545 11.04 10.5545 11.808C10.5545 12.336 10.7225 12.768 11.0585 13.104C11.3945 13.424 11.8185 13.672 12.3305 13.848C12.8425 14.024 13.5385 14.224 14.4185 14.448C15.5865 14.736 16.5385 15.032 17.2745 15.336C18.0105 15.64 18.6345 16.104 19.1465 16.728C19.6745 17.336 19.9385 18.168 19.9385 19.224ZM32.6971 21.504C33.6571 21.504 34.1371 21.912 34.1371 22.728C34.1371 23.576 33.6571 24 32.6971 24H23.5771C23.1611 24 22.8331 23.88 22.5931 23.64C22.3531 23.384 22.2331 23.072 22.2331 22.704C22.2331 22.224 22.4171 21.792 22.7851 21.408L28.2571 15.528C28.9291 14.792 29.4171 14.12 29.7211 13.512C30.0411 12.888 30.2011 12.272 30.2011 11.664C30.2011 10.912 29.9851 10.336 29.5531 9.936C29.1211 9.536 28.5051 9.336 27.7051 9.336C27.0491 9.336 26.4091 9.464 25.7851 9.72C25.1771 9.96 24.5611 10.296 23.9371 10.728C23.7771 10.84 23.6171 10.936 23.4571 11.016C23.2971 11.08 23.1371 11.112 22.9771 11.112C22.7051 11.112 22.4651 10.984 22.2571 10.728C22.0651 10.472 21.9691 10.168 21.9691 9.816C21.9691 9.576 22.0091 9.368 22.0891 9.192C22.1851 9.016 22.3291 8.848 22.5211 8.688C23.2251 8.128 24.0491 7.688 24.9931 7.368C25.9371 7.032 26.8811 6.864 27.8251 6.864C29.4731 6.864 30.7851 7.28 31.7611 8.112C32.7531 8.944 33.2491 10.064 33.2491 11.472C33.2491 12.448 33.0411 13.368 32.6251 14.232C32.2091 15.08 31.5051 16.032 30.5131 17.088L26.3611 21.504H32.6971ZM41.8072 6.864C43.9512 6.864 45.5992 7.592 46.7512 9.048C47.9192 10.488 48.5032 12.552 48.5032 15.24C48.5032 17.08 48.2312 18.68 47.6872 20.04C47.1432 21.384 46.3592 22.416 45.3352 23.136C44.3272 23.856 43.1352 24.216 41.7592 24.216C40.8472 24.216 39.9272 24.056 38.9992 23.736C38.0872 23.4 37.3112 22.952 36.6712 22.392C36.4632 22.216 36.3112 22.048 36.2152 21.888C36.1352 21.712 36.0952 21.504 36.0952 21.264C36.0952 20.912 36.1912 20.616 36.3832 20.376C36.5912 20.12 36.8312 19.992 37.1032 19.992C37.2632 19.992 37.4152 20.024 37.5592 20.088C37.7032 20.136 37.8792 20.224 38.0872 20.352C39.4152 21.28 40.5992 21.744 41.6392 21.744C42.8072 21.744 43.7272 21.208 44.3992 20.136C45.0712 19.048 45.4232 17.528 45.4552 15.576C45.0872 16.296 44.5352 16.872 43.7992 17.304C43.0632 17.72 42.2392 17.928 41.3272 17.928C40.3192 17.928 39.4232 17.704 38.6392 17.256C37.8552 16.792 37.2392 16.152 36.7912 15.336C36.3592 14.504 36.1432 13.56 36.1432 12.504C36.1432 11.416 36.3832 10.448 36.8632 9.6C37.3592 8.736 38.0312 8.064 38.8792 7.584C39.7432 7.104 40.7192 6.864 41.8072 6.864ZM41.9752 15.48C42.8712 15.48 43.5912 15.2 44.1352 14.64C44.6952 14.064 44.9752 13.32 44.9752 12.408C44.9752 11.48 44.6952 10.736 44.1352 10.176C43.5912 9.6 42.8712 9.312 41.9752 9.312C41.0952 9.312 40.3912 9.6 39.8632 10.176C39.3352 10.736 39.0712 11.48 39.0712 12.408C39.0712 13.336 39.3352 14.08 39.8632 14.64C40.3912 15.2 41.0952 15.48 41.9752 15.48ZM52.5258 24.144C52.0138 24.144 51.5898 23.976 51.2538 23.64C50.9178 23.288 50.7498 22.856 50.7498 22.344C50.7498 21.832 50.9178 21.408 51.2538 21.072C51.5898 20.72 52.0138 20.544 52.5258 20.544C53.0378 20.544 53.4618 20.72 53.7978 21.072C54.1338 21.408 54.3018 21.832 54.3018 22.344C54.3018 22.856 54.1338 23.288 53.7978 23.64C53.4618 23.976 53.0378 24.144 52.5258 24.144ZM62.1509 6.864C64.2949 6.864 65.9429 7.592 67.0949 9.048C68.2629 10.488 68.8469 12.552 68.8469 15.24C68.8469 17.08 68.5749 18.68 68.0309 20.04C67.4869 21.384 66.7029 22.416 65.6789 23.136C64.6709 23.856 63.4789 24.216 62.1029 24.216C61.1909 24.216 60.2709 24.056 59.3429 23.736C58.4309 23.4 57.6549 22.952 57.0149 22.392C56.8069 22.216 56.6549 22.048 56.5589 21.888C56.4789 21.712 56.4389 21.504 56.4389 21.264C56.4389 20.912 56.5349 20.616 56.7269 20.376C56.9349 20.12 57.1749 19.992 57.4469 19.992C57.6069 19.992 57.7589 20.024 57.9029 20.088C58.0469 20.136 58.2229 20.224 58.4309 20.352C59.7589 21.28 60.9429 21.744 61.9829 21.744C63.1509 21.744 64.0709 21.208 64.7429 20.136C65.4149 19.048 65.7669 17.528 65.7989 15.576C65.4309 16.296 64.8789 16.872 64.1429 17.304C63.4069 17.72 62.5829 17.928 61.6709 17.928C60.6629 17.928 59.7669 17.704 58.9829 17.256C58.1989 16.792 57.5829 16.152 57.1349 15.336C56.7029 14.504 56.4869 13.56 56.4869 12.504C56.4869 11.416 56.7269 10.448 57.2069 9.6C57.7029 8.736 58.3749 8.064 59.2229 7.584C60.0869 7.104 61.0629 6.864 62.1509 6.864ZM62.3189 15.48C63.2149 15.48 63.9349 15.2 64.4789 14.64C65.0389 14.064 65.3189 13.32 65.3189 12.408C65.3189 11.48 65.0389 10.736 64.4789 10.176C63.9349 9.6 63.2149 9.312 62.3189 9.312C61.4389 9.312 60.7349 9.6 60.2069 10.176C59.6789 10.736 59.4149 11.48 59.4149 12.408C59.4149 13.336 59.6789 14.08 60.2069 14.64C60.7349 15.2 61.4389 15.48 62.3189 15.48ZM76.5416 6.864C78.6856 6.864 80.3336 7.592 81.4856 9.048C82.6536 10.488 83.2376 12.552 83.2376 15.24C83.2376 17.08 82.9656 18.68 82.4216 20.04C81.8776 21.384 81.0936 22.416 80.0696 23.136C79.0616 23.856 77.8696 24.216 76.4936 24.216C75.5816 24.216 74.6616 24.056 73.7336 23.736C72.8216 23.4 72.0456 22.952 71.4056 22.392C71.1976 22.216 71.0456 22.048 70.9496 21.888C70.8696 21.712 70.8296 21.504 70.8296 21.264C70.8296 20.912 70.9256 20.616 71.1176 20.376C71.3256 20.12 71.5656 19.992 71.8376 19.992C71.9976 19.992 72.1496 20.024 72.2936 20.088C72.4376 20.136 72.6136 20.224 72.8216 20.352C74.1496 21.28 75.3336 21.744 76.3736 21.744C77.5416 21.744 78.4616 21.208 79.1336 20.136C79.8056 19.048 80.1576 17.528 80.1896 15.576C79.8216 16.296 79.2696 16.872 78.5336 17.304C77.7976 17.72 76.9736 17.928 76.0616 17.928C75.0536 17.928 74.1576 17.704 73.3736 17.256C72.5896 16.792 71.9736 16.152 71.5256 15.336C71.0936 14.504 70.8776 13.56 70.8776 12.504C70.8776 11.416 71.1176 10.448 71.5976 9.6C72.0936 8.736 72.7656 8.064 73.6136 7.584C74.4776 7.104 75.4536 6.864 76.5416 6.864ZM76.7096 15.48C77.6056 15.48 78.3256 15.2 78.8696 14.64C79.4296 14.064 79.7096 13.32 79.7096 12.408C79.7096 11.48 79.4296 10.736 78.8696 10.176C78.3256 9.6 77.6056 9.312 76.7096 9.312C75.8296 9.312 75.1256 9.6 74.5976 10.176C74.0696 10.736 73.8056 11.48 73.8056 12.408C73.8056 13.336 74.0696 14.08 74.5976 14.64C75.1256 15.2 75.8296 15.48 76.7096 15.48ZM96.5598 15.018C97.3278 15.018 98.0058 15.21 98.5938 15.594C99.1818 15.978 99.6378 16.518 99.9618 17.214C100.286 17.898 100.448 18.696 100.448 19.608C100.448 20.52 100.286 21.318 99.9618 22.002C99.6378 22.674 99.1818 23.196 98.5938 23.568C98.0178 23.94 97.3398 24.126 96.5598 24.126C95.8758 24.126 95.2758 23.976 94.7598 23.676C94.2558 23.376 93.8718 22.95 93.6078 22.398V26.628C93.6078 26.844 93.5418 27.012 93.4098 27.132C93.2898 27.264 93.1158 27.33 92.8878 27.33C92.6598 27.33 92.4798 27.264 92.3478 27.132C92.2158 27 92.1498 26.832 92.1498 26.628V15.774C92.1498 15.558 92.2158 15.384 92.3478 15.252C92.4798 15.12 92.6598 15.054 92.8878 15.054C93.1158 15.054 93.2898 15.12 93.4098 15.252C93.5418 15.384 93.6078 15.558 93.6078 15.774V16.746C93.8718 16.194 94.2558 15.768 94.7598 15.468C95.2758 15.168 95.8758 15.018 96.5598 15.018ZM96.2718 22.92C97.1238 22.92 97.7838 22.632 98.2518 22.056C98.7198 21.48 98.9538 20.664 98.9538 19.608C98.9538 18.552 98.7198 17.73 98.2518 17.142C97.7838 16.542 97.1238 16.242 96.2718 16.242C95.4198 16.242 94.7598 16.53 94.2918 17.106C93.8358 17.682 93.6078 18.504 93.6078 19.572C93.6078 20.64 93.8358 21.468 94.2918 22.056C94.7598 22.632 95.4198 22.92 96.2718 22.92ZM109.412 21.966C109.544 21.966 109.658 22.02 109.754 22.128C109.85 22.236 109.898 22.374 109.898 22.542C109.898 22.842 109.688 23.118 109.268 23.37C108.836 23.622 108.38 23.814 107.9 23.946C107.42 24.066 106.952 24.126 106.496 24.126C105.14 24.126 104.066 23.724 103.274 22.92C102.494 22.116 102.104 21.006 102.104 19.59C102.104 18.69 102.278 17.898 102.626 17.214C102.974 16.518 103.46 15.978 104.084 15.594C104.72 15.21 105.44 15.018 106.244 15.018C107.384 15.018 108.29 15.39 108.962 16.134C109.634 16.878 109.97 17.886 109.97 19.158C109.97 19.398 109.922 19.572 109.826 19.68C109.73 19.788 109.574 19.842 109.358 19.842H103.562C103.67 21.906 104.648 22.938 106.496 22.938C106.964 22.938 107.366 22.878 107.702 22.758C108.038 22.626 108.398 22.452 108.782 22.236C109.094 22.056 109.304 21.966 109.412 21.966ZM106.262 16.152C105.494 16.152 104.876 16.392 104.408 16.872C103.952 17.352 103.682 18.03 103.598 18.906H108.692C108.668 18.018 108.446 17.34 108.026 16.872C107.606 16.392 107.018 16.152 106.262 16.152ZM116.457 15.054C116.961 15.018 117.213 15.222 117.213 15.666C117.213 15.858 117.159 16.014 117.051 16.134C116.943 16.242 116.757 16.308 116.493 16.332L115.953 16.386C115.149 16.458 114.549 16.746 114.153 17.25C113.769 17.742 113.577 18.324 113.577 18.996V23.37C113.577 23.61 113.511 23.79 113.379 23.91C113.247 24.03 113.073 24.09 112.857 24.09C112.641 24.09 112.461 24.03 112.317 23.91C112.185 23.778 112.119 23.598 112.119 23.37V15.774C112.119 15.546 112.191 15.372 112.335 15.252C112.479 15.12 112.653 15.054 112.857 15.054C113.049 15.054 113.211 15.12 113.343 15.252C113.475 15.372 113.541 15.54 113.541 15.756V16.764C113.793 16.236 114.147 15.834 114.603 15.558C115.071 15.282 115.605 15.12 116.205 15.072L116.457 15.054ZM132.861 15.018C134.805 15.018 135.777 16.176 135.777 18.492V23.37C135.777 23.598 135.711 23.778 135.579 23.91C135.447 24.03 135.273 24.09 135.057 24.09C134.841 24.09 134.661 24.03 134.517 23.91C134.385 23.778 134.319 23.598 134.319 23.37V18.528C134.319 17.724 134.175 17.142 133.887 16.782C133.599 16.422 133.149 16.242 132.537 16.242C131.805 16.242 131.229 16.488 130.809 16.98C130.389 17.472 130.179 18.138 130.179 18.978V23.37C130.179 23.598 130.107 23.778 129.963 23.91C129.831 24.03 129.657 24.09 129.441 24.09C129.225 24.09 129.051 24.03 128.919 23.91C128.787 23.778 128.721 23.598 128.721 23.37V18.528C128.721 17.724 128.577 17.142 128.289 16.782C128.001 16.422 127.545 16.242 126.921 16.242C126.201 16.242 125.625 16.488 125.193 16.98C124.773 17.472 124.563 18.138 124.563 18.978V23.37C124.563 23.598 124.497 23.778 124.365 23.91C124.233 24.03 124.059 24.09 123.843 24.09C123.627 24.09 123.447 24.03 123.303 23.91C123.171 23.778 123.105 23.598 123.105 23.37V15.774C123.105 15.558 123.171 15.384 123.303 15.252C123.447 15.12 123.627 15.054 123.843 15.054C124.047 15.054 124.215 15.12 124.347 15.252C124.479 15.372 124.545 15.54 124.545 15.756V16.62C124.809 16.104 125.175 15.708 125.643 15.432C126.111 15.156 126.651 15.018 127.263 15.018C128.631 15.018 129.525 15.594 129.945 16.746C130.197 16.218 130.581 15.798 131.097 15.486C131.613 15.174 132.201 15.018 132.861 15.018ZM142.069 24.126C141.241 24.126 140.509 23.94 139.873 23.568C139.249 23.196 138.763 22.668 138.415 21.984C138.079 21.288 137.911 20.484 137.911 19.572C137.911 18.66 138.079 17.862 138.415 17.178C138.763 16.482 139.249 15.948 139.873 15.576C140.509 15.204 141.241 15.018 142.069 15.018C142.897 15.018 143.629 15.204 144.265 15.576C144.901 15.948 145.387 16.482 145.723 17.178C146.071 17.862 146.245 18.66 146.245 19.572C146.245 20.484 146.071 21.288 145.723 21.984C145.387 22.668 144.901 23.196 144.265 23.568C143.629 23.94 142.897 24.126 142.069 24.126ZM142.069 22.92C142.933 22.92 143.593 22.638 144.049 22.074C144.517 21.498 144.751 20.664 144.751 19.572C144.751 18.504 144.517 17.682 144.049 17.106C143.581 16.518 142.921 16.224 142.069 16.224C141.217 16.224 140.557 16.518 140.089 17.106C139.621 17.682 139.387 18.504 139.387 19.572C139.387 20.652 139.615 21.48 140.071 22.056C140.539 22.632 141.205 22.92 142.069 22.92ZM152.827 15.018C154.927 15.018 155.977 16.176 155.977 18.492V23.37C155.977 23.598 155.911 23.778 155.779 23.91C155.659 24.03 155.485 24.09 155.257 24.09C155.029 24.09 154.849 24.03 154.717 23.91C154.585 23.778 154.519 23.598 154.519 23.37V18.582C154.519 17.766 154.357 17.172 154.033 16.8C153.721 16.428 153.217 16.242 152.521 16.242C151.717 16.242 151.075 16.488 150.595 16.98C150.115 17.472 149.875 18.138 149.875 18.978V23.37C149.875 23.598 149.809 23.778 149.677 23.91C149.557 24.03 149.383 24.09 149.155 24.09C148.927 24.09 148.747 24.03 148.615 23.91C148.483 23.778 148.417 23.598 148.417 23.37V15.774C148.417 15.558 148.483 15.384 148.615 15.252C148.747 15.12 148.927 15.054 149.155 15.054C149.371 15.054 149.539 15.12 149.659 15.252C149.791 15.384 149.857 15.552 149.857 15.756V16.674C150.145 16.134 150.547 15.726 151.063 15.45C151.579 15.162 152.167 15.018 152.827 15.018ZM162.698 22.938C163.118 22.974 163.328 23.166 163.328 23.514C163.328 23.718 163.25 23.874 163.094 23.982C162.95 24.078 162.728 24.114 162.428 24.09L161.942 24.054C160.982 23.982 160.274 23.694 159.818 23.19C159.362 22.686 159.134 21.924 159.134 20.904V16.386H157.928C157.724 16.386 157.562 16.338 157.442 16.242C157.334 16.134 157.28 15.996 157.28 15.828C157.28 15.648 157.334 15.504 157.442 15.396C157.562 15.288 157.724 15.234 157.928 15.234H159.134V13.2C159.134 12.972 159.2 12.798 159.332 12.678C159.464 12.546 159.644 12.48 159.872 12.48C160.088 12.48 160.262 12.546 160.394 12.678C160.526 12.798 160.592 12.972 160.592 13.2V15.234H162.59C162.782 15.234 162.932 15.288 163.04 15.396C163.16 15.504 163.22 15.648 163.22 15.828C163.22 15.996 163.16 16.134 163.04 16.242C162.932 16.338 162.782 16.386 162.59 16.386H160.592V20.976C160.592 21.636 160.724 22.116 160.988 22.416C161.264 22.704 161.672 22.866 162.212 22.902L162.698 22.938ZM169.193 15.018C170.225 15.018 171.005 15.312 171.533 15.9C172.061 16.476 172.325 17.34 172.325 18.492V23.37C172.325 23.598 172.259 23.778 172.127 23.91C171.995 24.03 171.821 24.09 171.605 24.09C171.377 24.09 171.197 24.03 171.065 23.91C170.933 23.778 170.867 23.598 170.867 23.37V18.528C170.867 17.748 170.705 17.172 170.381 16.8C170.069 16.428 169.565 16.242 168.869 16.242C168.065 16.242 167.423 16.488 166.943 16.98C166.463 17.472 166.223 18.138 166.223 18.978V23.37C166.223 23.598 166.157 23.778 166.025 23.91C165.905 24.03 165.731 24.09 165.503 24.09C165.275 24.09 165.095 24.03 164.963 23.91C164.831 23.778 164.765 23.598 164.765 23.37V11.922C164.765 11.718 164.831 11.55 164.963 11.418C165.107 11.286 165.287 11.22 165.503 11.22C165.731 11.22 165.905 11.286 166.025 11.418C166.157 11.538 166.223 11.706 166.223 11.922V16.638C166.511 16.11 166.913 15.708 167.429 15.432C167.945 15.156 168.533 15.018 169.193 15.018ZM90.182 51.736C88.634 51.736 87.284 51.418 86.132 50.782C84.98 50.146 84.092 49.252 83.468 48.1C82.856 46.936 82.55 45.598 82.55 44.086C82.55 42.502 82.88 41.116 83.54 39.928C84.212 38.74 85.124 37.822 86.276 37.174C87.44 36.526 88.742 36.202 90.182 36.202C91.718 36.202 93.032 36.52 94.124 37.156C95.228 37.78 96.056 38.596 96.608 39.604C97.172 40.612 97.454 41.68 97.454 42.808C97.454 43.984 97.274 44.95 96.914 45.706C96.566 46.45 96.116 46.996 95.564 47.344C95.024 47.68 94.448 47.848 93.836 47.848C93.2 47.848 92.696 47.71 92.324 47.434C91.964 47.146 91.76 46.75 91.712 46.246H91.676C91.376 46.738 90.998 47.128 90.542 47.416C90.098 47.704 89.576 47.848 88.976 47.848C88.184 47.848 87.542 47.572 87.05 47.02C86.558 46.456 86.312 45.682 86.312 44.698C86.312 43.882 86.468 43.114 86.78 42.394C87.104 41.674 87.554 41.098 88.13 40.666C88.706 40.234 89.366 40.018 90.11 40.018C90.674 40.018 91.166 40.156 91.586 40.432C92.006 40.696 92.282 41.044 92.414 41.476H92.432L92.576 40.684C92.6 40.54 92.666 40.426 92.774 40.342C92.882 40.258 93.014 40.216 93.17 40.216C93.374 40.216 93.524 40.282 93.62 40.414C93.716 40.534 93.746 40.696 93.71 40.9L92.972 45.112C92.924 45.448 92.9 45.664 92.9 45.76C92.9 46.168 92.996 46.456 93.188 46.624C93.38 46.792 93.668 46.876 94.052 46.876C94.388 46.876 94.73 46.744 95.078 46.48C95.426 46.204 95.72 45.766 95.96 45.166C96.2 44.554 96.32 43.768 96.32 42.808C96.32 41.86 96.092 40.966 95.636 40.126C95.18 39.286 94.49 38.608 93.566 38.092C92.642 37.564 91.514 37.3 90.182 37.3C88.958 37.3 87.854 37.576 86.87 38.128C85.898 38.668 85.13 39.454 84.566 40.486C84.002 41.506 83.72 42.706 83.72 44.086C83.72 45.406 83.978 46.564 84.494 47.56C85.01 48.544 85.754 49.3 86.726 49.828C87.698 50.368 88.85 50.638 90.182 50.638C92.006 50.638 93.428 50.146 94.448 49.162C94.616 49.006 94.79 48.928 94.97 48.928C95.114 48.928 95.234 48.982 95.33 49.09C95.426 49.198 95.474 49.33 95.474 49.486C95.474 49.678 95.402 49.84 95.258 49.972C94.718 50.512 94.004 50.938 93.116 51.25C92.24 51.574 91.262 51.736 90.182 51.736ZM89.21 46.876C89.81 46.876 90.326 46.696 90.758 46.336C91.202 45.964 91.538 45.49 91.766 44.914C91.994 44.338 92.108 43.732 92.108 43.096C92.108 42.424 91.94 41.914 91.604 41.566C91.28 41.206 90.836 41.026 90.272 41.026C89.696 41.026 89.192 41.2 88.76 41.548C88.34 41.896 88.016 42.352 87.788 42.916C87.572 43.468 87.464 44.044 87.464 44.644C87.464 45.352 87.632 45.904 87.968 46.3C88.304 46.684 88.718 46.876 89.21 46.876Z" fill="#414A4D"/>
<path d="M2 24L88 7" stroke="url(#paint0_linear)" stroke-width="2" stroke-linecap="round"/>
<defs>
<linearGradient id="paint0_linear" x1="1" y1="24" x2="88" y2="6.99999" gradientUnits="userSpaceOnUse">
<stop stop-color="#FA0000"/>
<stop offset="1" stop-color="#E220A9"/>
</linearGradient>
</defs>
</svg>
