<svg width="106" height="110" viewBox="0 0 106 110" fill="none" xmlns="http://www.w3.org/2000/svg">
<path d="M86.7 93.4683C95.0679 86.4951 101.077 77.1072 103.906 66.5885C106.735 56.0698 106.245 44.9342 102.504 34.7044C98.763 24.4746 91.953 15.6502 83.0054 9.43837C74.0579 3.22653 63.4099 -0.0694495 52.5177 0.00110965C41.6254 0.0716688 31.0209 3.5053 22.1546 9.83253C13.2883 16.1598 6.59304 25.0716 2.98469 35.349C-0.623656 45.6264 -0.968934 56.7675 1.99605 67.2487C4.96103 77.7298 11.0915 87.0392 19.549 93.9033" fill="#F0F4F7"/>
<path d="M29.473 67.9542C31.8748 65.6138 34.5455 63.5663 37.4291 61.8542L45.9021 78.3673L49.016 64.9403L57.936 64.7483L60.395 78.9133L69.0951 61.7822C74.3319 64.621 78.7045 68.8216 81.7511 73.9403C84.7977 79.059 86.4049 84.9056 86.4031 90.8623V99.8123L15.0031 99.4263L15.5031 87.7593C15.5031 87.7593 20.478 76.1412 29.473 67.9542Z" fill="white"/>
<path d="M53.3271 57.7903C63.7272 57.7903 72.1581 49.3594 72.1581 38.9593C72.1581 28.5592 63.7272 20.1283 53.3271 20.1283C42.927 20.1283 34.4961 28.5592 34.4961 38.9593C34.4961 49.3594 42.927 57.7903 53.3271 57.7903Z" fill="white" stroke="#B8C0CC" stroke-width="2" stroke-miterlimit="10" stroke-linecap="round"/>
<path d="M61.0651 77.5903L58.165 63.8994H48.5471L45.5381 77.5903" stroke="#B8C0CC" stroke-width="2" stroke-miterlimit="10" stroke-linecap="round" stroke-linejoin="round"/>
<path d="M68.266 86.0034H76.501" stroke="#B8C0CC" stroke-width="2" stroke-miterlimit="10" stroke-linecap="round"/>
<path d="M36.4502 86.7661L36.6047 87.1267L36.9632 87.286C37.3612 87.4629 38.1441 87.8881 38.9013 88.3172C39.65 88.7414 40.2851 89.119 40.4103 89.2013C40.4128 89.2039 40.4386 89.2277 40.4761 89.2933C40.5095 89.3517 40.5418 89.4257 40.5693 89.5104V91.9722C40.5693 92.0916 40.5454 92.1484 40.537 92.1641C40.533 92.1715 40.5312 92.1727 40.5322 92.1717C40.5334 92.1706 40.5315 92.173 40.5221 92.1777C40.3569 92.2603 39.947 92.4986 39.4758 92.7725C39.2761 92.8885 39.0653 93.011 38.8575 93.1307C38.1054 93.5642 37.3552 93.9841 36.9632 94.1584L36.6047 94.3177L36.4502 94.6782L35.2502 97.4782L35.087 97.859L35.2409 98.2436C35.4116 98.6704 35.646 99.5271 35.8626 100.381C35.9499 100.725 36.0308 101.054 36.0999 101.335C36.1139 101.392 36.1275 101.447 36.1405 101.5L36.1431 101.511C36.1992 101.738 36.255 101.965 36.2959 102.107C36.3144 102.22 36.3052 102.281 36.2992 102.305C36.2945 102.324 36.288 102.339 36.2622 102.365L34.4629 104.164C34.4628 104.164 34.4385 104.184 34.3778 104.199C34.3111 104.214 34.2481 104.211 34.2119 104.202L34.1888 104.196L34.1654 104.192C33.7144 104.101 31.1551 103.413 30.2856 103.123L29.9249 103.003L29.5754 103.153L26.7754 104.353L26.4148 104.508L26.2555 104.866C26.0786 105.264 25.6534 106.047 25.2243 106.804C24.8189 107.52 24.4561 108.131 24.3529 108.293C24.2246 108.454 24.1145 108.472 24.0693 108.472H21.5693C21.4499 108.472 21.3931 108.448 21.3774 108.44C21.3726 108.437 21.3703 108.436 21.3697 108.435C21.3696 108.435 21.3694 108.435 21.3692 108.434C21.3681 108.433 21.3663 108.43 21.3638 108.425C21.2812 108.26 21.0429 107.85 20.769 107.379C20.653 107.179 20.5305 106.968 20.4108 106.76C19.9773 106.008 19.5574 105.258 19.3831 104.866L19.2238 104.508L18.8633 104.353L16.0633 103.153L15.6825 102.99L15.2979 103.144C14.8711 103.314 14.0144 103.549 13.1609 103.765C12.8166 103.853 12.4876 103.934 12.2065 104.003C12.1493 104.017 12.0941 104.03 12.0412 104.043L12.0307 104.046C11.8031 104.102 11.5763 104.158 11.4341 104.199C11.3211 104.217 11.2607 104.208 11.2369 104.202C11.218 104.197 11.2022 104.191 11.1764 104.165L9.37715 102.366C9.37732 102.366 9.35705 102.341 9.34275 102.281C9.32706 102.214 9.33043 102.151 9.33948 102.115L9.34525 102.092L9.34992 102.068C9.44013 101.617 10.1282 99.058 10.418 98.1884L10.5382 97.8277L10.3885 97.4782L9.18848 94.6782L9.03395 94.3177L8.67547 94.1584C8.27745 93.9815 7.49461 93.5563 6.73735 93.1271C6.02189 92.7217 5.41017 92.359 5.24804 92.2557C5.08738 92.1274 5.06934 92.0173 5.06934 91.9722V89.3722C5.06934 89.3349 5.07975 89.2874 5.10126 89.2444C5.10865 89.2296 5.11546 89.219 5.12068 89.2118C5.32238 89.1023 5.67149 88.8994 6.06291 88.6719C6.26262 88.5558 6.47335 88.4333 6.68113 88.3136C7.43325 87.8802 8.18349 87.4602 8.57547 87.286L8.93395 87.1267L9.08848 86.7661L10.2885 83.9661L10.4516 83.5854L10.2978 83.2008C10.1271 82.774 9.89268 81.9172 9.67612 81.0637C9.58878 80.7195 9.50795 80.3906 9.43885 80.1095C9.42478 80.0523 9.4112 79.997 9.39815 79.944L9.3955 79.9333C9.34045 79.7097 9.28562 79.487 9.24496 79.3445C9.24005 79.2999 9.24689 79.2717 9.25566 79.2483C9.26963 79.211 9.30283 79.1529 9.37644 79.0793L9.38654 79.0692L9.39635 79.0588L11.0774 77.2788C11.0839 77.2743 11.1091 77.2578 11.1609 77.2456C11.2276 77.2299 11.2906 77.2333 11.3268 77.2423L11.3499 77.2481L11.3732 77.2527C11.8243 77.343 14.3835 78.031 15.2531 78.3209L15.6138 78.4411L15.9633 78.2913L18.7633 77.0913L19.1238 76.9368L19.2831 76.5783C19.46 76.1803 19.8852 75.3974 20.3144 74.6402C20.7198 73.9247 21.0825 73.313 21.1858 73.1509C21.3141 72.9902 21.4242 72.9722 21.4693 72.9722H24.0693C24.1051 72.9722 24.1326 72.9815 24.1482 72.9904C24.1553 72.9945 24.1599 72.9983 24.163 73.0016C24.1658 73.0045 24.17 73.0096 24.1749 73.0194C24.2575 73.1846 24.4957 73.5945 24.7696 74.0657C24.8857 74.2655 25.0082 74.4762 25.1279 74.684C25.5613 75.4361 25.9813 76.1863 26.1555 76.5783L26.3148 76.9368L26.6754 77.0913L29.4754 78.2913L29.8561 78.4545L30.2407 78.3006C30.6675 78.1299 31.5243 77.8955 32.3778 77.679C32.722 77.5916 33.0509 77.5108 33.332 77.4417C33.3892 77.4276 33.4445 77.414 33.4975 77.401L33.5082 77.3983C33.7358 77.3423 33.9624 77.2865 34.1046 77.2456C34.2175 77.2271 34.2779 77.2363 34.3018 77.2423C34.3207 77.247 34.3365 77.2535 34.3622 77.2793L34.3718 77.2888L34.3816 77.2981L36.2626 79.0801C36.2669 79.0862 36.2836 79.1114 36.2959 79.1637C36.3116 79.2304 36.3082 79.2934 36.2992 79.3296L36.2934 79.3527L36.2888 79.3761C36.1985 79.8271 35.5105 82.3864 35.2207 83.2559L35.1004 83.6166L35.2502 83.9661L36.4502 86.7661ZM15.9693 90.6722C15.9693 94.4245 19.0171 97.4722 22.7693 97.4722C26.5216 97.4722 29.5693 94.4245 29.5693 90.6722C29.5693 86.9199 26.5216 83.8722 22.7693 83.8722C19.0171 83.8722 15.9693 86.9199 15.9693 90.6722Z" fill="white" stroke="#FA0000" stroke-width="2"/>
<path d="M86.399 99.8093V90.8593C86.4009 84.9026 84.7936 79.056 81.7471 73.9374C78.7005 68.8187 74.3278 64.618 69.0911 61.7793L53.327 92.8353L37.427 61.8513C35.0907 62.444 30.3338 65.6317 27 70.0838" stroke="#B8C0CC" stroke-width="2" stroke-miterlimit="10" stroke-linecap="round" stroke-linejoin="round"/>
</svg>
