<svg width="151" height="146" viewBox="0 0 151 146" fill="none" xmlns="http://www.w3.org/2000/svg">
<path d="M84.8104 0H0L151 146V63.7231L84.8104 0Z" fill="#FFCC00"/>
<path d="M93.2953 29.5736C94.0204 30.2739 94.5037 31.0632 94.7454 31.9415C94.9981 32.8084 94.9909 33.6911 94.7237 34.5897C94.4791 35.4879 93.9901 36.3168 93.2565 37.0764C92.5007 37.8591 91.6443 38.3889 90.6874 38.6659C89.753 38.9424 88.8084 38.9532 87.8534 38.6983C86.91 38.4546 86.0469 37.9548 85.2643 37.199C83.722 35.7096 83.031 34.0414 83.1911 32.1941C83.3738 30.3465 84.3988 28.4559 86.2661 26.5224C87.5442 25.1988 88.8458 24.2425 90.1707 23.6536C91.5068 23.0532 92.7874 22.8442 94.0127 23.0265C95.2494 23.2199 96.3627 23.7945 97.3525 24.7503C98.0086 25.3839 98.5479 26.1382 98.9706 27.0135C99.4158 27.8883 99.6741 28.7494 99.7455 29.5968C99.7729 29.8679 99.7542 30.0946 99.6895 30.2767C99.6474 30.4585 99.543 30.6357 99.3763 30.8084C99.1317 31.0616 98.8457 31.208 98.5183 31.2477C98.2135 31.2869 97.9632 31.2121 97.7676 31.0232C97.6525 30.912 97.5598 30.7892 97.4895 30.6546C97.4304 30.5085 97.3705 30.3172 97.3098 30.0807C96.9992 28.4906 96.4698 27.3344 95.7217 26.6119C94.8815 25.8005 93.8418 25.5528 92.6026 25.8686C91.3745 26.1729 90.071 27.0161 88.692 28.398C89.4569 28.1357 90.2485 28.1106 91.0669 28.3226C91.8965 28.5231 92.6392 28.9401 93.2953 29.5736ZM86.844 35.3213C87.477 35.9326 88.1779 36.2203 88.9467 36.1842C89.7267 36.1366 90.439 35.7791 91.0836 35.1115C91.7282 34.444 92.0552 33.7254 92.0644 32.9558C92.0736 32.1862 91.7617 31.4957 91.1286 30.8844C90.4841 30.262 89.7604 29.9635 88.9574 29.9888C88.1771 30.0138 87.4702 30.3542 86.8366 31.0103C86.192 31.6778 85.8653 32.4077 85.8565 33.2C85.8703 33.9918 86.1994 34.6989 86.844 35.3213ZM110.627 37.8699C110.927 38.1588 111.073 38.4675 111.068 38.7957C111.073 39.1124 110.948 39.4032 110.693 39.6679C110.437 39.9326 110.09 40.131 109.651 40.2632L94.4904 44.9408C93.8823 45.1098 93.3769 44.9998 92.974 44.6108C92.6978 44.3441 92.5393 44.013 92.4984 43.6177C92.4802 43.222 92.6045 42.886 92.8712 42.6098C93.0602 42.4141 93.3067 42.274 93.6107 42.1895L107.202 38.0315L101.988 32.9966C101.297 32.3297 101.235 31.7028 101.802 31.1158C102.391 30.5058 103.031 30.5343 103.722 31.2011L110.627 37.8699ZM106.507 56.9451C106.225 57.0292 105.965 57.0451 105.727 56.9926C105.488 56.9402 105.294 56.8418 105.144 56.6973C104.937 56.4972 104.825 56.2446 104.809 55.9394C104.804 55.6453 104.912 55.3831 105.134 55.1529C105.323 54.9573 105.57 54.8172 105.874 54.7326L122.645 49.942C122.926 49.8579 123.186 49.8421 123.425 49.8945C123.663 49.9469 123.857 50.0453 124.007 50.1898C124.214 50.3899 124.32 50.637 124.325 50.9311C124.342 51.2363 124.239 51.504 124.017 51.7342C123.828 51.9299 123.581 52.07 123.277 52.1545L106.507 56.9451ZM109.092 50.4332C108.125 49.4996 107.677 48.4551 107.747 47.2997C107.817 46.1443 108.442 44.9566 109.62 43.7366C110.787 42.5281 111.946 41.8685 113.099 41.7579C114.251 41.6472 115.31 42.0587 116.277 42.9923C117.244 43.926 117.692 44.9705 117.622 46.1259C117.563 47.2924 116.95 48.4799 115.783 49.6884C114.605 50.9084 113.434 51.5682 112.27 51.6677C111.118 51.7783 110.058 51.3668 109.092 50.4332ZM110.442 49.0348C110.879 49.4572 111.368 49.5844 111.908 49.4166C112.471 49.2483 113.153 48.7499 113.953 47.9212C114.731 47.1155 115.194 46.4285 115.343 45.8601C115.491 45.2918 115.353 44.802 114.927 44.3907C114.501 43.9795 114.007 43.858 113.444 44.0262C112.904 44.1941 112.239 44.6866 111.45 45.5038C110.65 46.3324 110.169 47.0254 110.009 47.5827C109.872 48.1395 110.016 48.6236 110.442 49.0348ZM112.924 63.843C111.957 62.9094 111.509 61.8649 111.579 60.7094C111.65 59.554 112.28 58.3606 113.469 57.1291C114.636 55.9206 115.79 55.2668 116.931 55.1677C118.095 55.0681 119.154 55.4796 120.11 56.4021C121.076 57.3358 121.525 58.3803 121.454 59.5357C121.384 60.6911 120.765 61.873 119.598 63.0815C118.42 64.3015 117.255 64.9668 116.103 65.0775C114.95 65.1881 113.891 64.7766 112.924 63.843ZM114.274 62.4446C114.7 62.8558 115.189 62.9831 115.741 62.8263C116.304 62.6581 116.985 62.1596 117.785 61.331C118.563 60.5253 119.027 59.8383 119.175 59.2699C119.324 58.7016 119.185 58.2118 118.759 57.8005C118.333 57.3893 117.839 57.2678 117.276 57.436C116.713 57.6043 116.043 58.0912 115.265 58.8969C114.465 59.7256 113.99 60.4241 113.842 60.9924C113.704 61.5493 113.849 62.0333 114.274 62.4446Z" fill="#FA0000"/>
<path d="M59.5273 44.7669C58.8626 44.125 58.3158 43.4302 57.8869 42.6824C57.475 41.9343 57.2293 41.2299 57.1499 40.5693C57.0931 40.2309 57.1939 39.9278 57.4523 39.6602C57.6273 39.479 57.8292 39.3736 58.0578 39.3442C58.3034 39.3144 58.4995 39.3704 58.6463 39.5121C58.8017 39.6622 58.9203 39.8935 59.0021 40.206C59.1149 40.8321 59.3158 41.4014 59.6048 41.9141C59.8938 42.4267 60.2843 42.9206 60.7763 43.3957C61.4065 44.0042 61.9941 44.3632 62.5391 44.4725C63.0925 44.5731 63.5734 44.412 63.9819 43.989C64.2986 43.661 64.3807 43.2564 64.228 42.7754C64.0923 42.294 63.7368 41.617 63.1614 40.7445C62.5602 39.8469 62.1264 39.061 61.86 38.3867C61.5937 37.7124 61.5022 37.0903 61.5856 36.5202C61.669 35.9501 61.9608 35.4062 62.4609 34.8882C62.9777 34.353 63.5915 34.0198 64.302 33.8886C65.0126 33.7574 65.748 33.8337 66.5083 34.1174C67.2855 34.4009 68.0108 34.8677 68.6841 35.5179C69.9185 36.71 70.6073 38.0091 70.7507 39.4154C70.7712 39.6187 70.7572 39.7887 70.7087 39.9253C70.6771 40.0617 70.5946 40.1989 70.4613 40.337C70.2862 40.5183 70.0759 40.6238 69.8303 40.6535C69.6017 40.683 69.414 40.6268 69.2673 40.4851C69.1809 40.4018 69.1114 40.3096 69.0588 40.2087C69.0147 40.1161 68.9656 39.977 68.9114 39.7912C68.8076 39.1905 68.6457 38.6671 68.4258 38.2212C68.2228 37.7749 67.8796 37.3184 67.3962 36.8516C66.8092 36.2848 66.2264 35.9555 65.6477 35.8637C65.086 35.7717 64.6009 35.9372 64.1924 36.3601C63.8506 36.714 63.7391 37.1318 63.8579 37.6135C63.9766 38.0952 64.3193 38.7681 64.886 39.6323C65.4876 40.5469 65.9215 41.3413 66.1879 42.0156C66.4712 42.6895 66.5797 43.3114 66.5132 43.8812C66.4554 44.4593 66.189 44.9943 65.7138 45.4863C65.197 46.0215 64.5874 46.3504 63.8852 46.473C63.1999 46.5953 62.4728 46.5104 61.7039 46.2183C60.952 45.9259 60.2265 45.4421 59.5273 44.7669ZM73.6044 45.5993C74.4849 46.4496 74.924 47.2991 74.9219 48.1478C74.9367 48.9962 74.5148 49.8649 73.6562 50.754L70.6053 53.9134C70.3802 54.1464 70.1319 54.2653 69.8604 54.2701C69.5973 54.2662 69.3449 54.1475 69.1032 53.9141C68.8787 53.6974 68.7598 53.4491 68.7464 53.1693C68.7417 52.8978 68.8477 52.6498 69.0644 52.4254L69.3395 52.1405C68.8677 52.3355 68.3804 52.3737 67.8776 52.2552C67.3834 52.145 66.9292 51.8898 66.5149 51.4897C66.0919 51.0813 65.7911 50.624 65.6126 50.1179C65.434 49.6118 65.3913 49.1119 65.4845 48.618C65.5778 48.1242 65.8036 47.6917 66.162 47.3205C66.6122 46.8543 67.083 46.6 67.5745 46.5575C68.0746 46.5233 68.6506 46.7042 69.3025 47.1002C69.9544 47.4961 70.7507 48.1484 71.6916 49.0571L72.0153 49.3697L72.3029 49.0718C72.7114 48.6489 72.9167 48.2549 72.9188 47.8899C72.9292 47.5164 72.7316 47.1337 72.3259 46.7419C72.0756 46.5001 71.7834 46.2931 71.4494 46.1207C71.1238 45.9397 70.7173 45.7473 70.23 45.5437C69.8972 45.4392 69.679 45.3369 69.5755 45.2368C69.4201 45.0868 69.3448 44.9057 69.3496 44.6934C69.363 44.4895 69.4572 44.2969 69.6323 44.1156C69.774 43.9689 69.9294 43.8771 70.0985 43.8402C70.2845 43.803 70.5097 43.8203 70.774 43.892C71.2346 44.0198 71.7178 44.2362 72.2239 44.5414C72.7385 44.8549 73.1987 45.2075 73.6044 45.5993ZM67.9639 50.637C68.3955 51.0538 68.8827 51.2489 69.4253 51.2225C69.985 51.1958 70.4857 50.9536 70.9275 50.4961L71.1901 50.2242L70.957 49.9992C70.3787 49.4407 69.9048 49.0331 69.5354 48.7764C69.166 48.5198 68.8497 48.3895 68.5866 48.3857C68.3234 48.3818 68.0835 48.492 67.8667 48.7165C67.6 48.9927 67.474 49.3131 67.4889 49.6778C67.5207 50.0422 67.6791 50.3619 67.9639 50.637ZM81.7921 54.4569C82.0112 54.3682 82.2143 54.3392 82.4016 54.3699C82.5975 54.4089 82.7644 54.4951 82.9026 54.6285C83.1011 54.8202 83.2114 55.0602 83.2334 55.3483C83.2723 55.6362 83.196 55.8794 83.0042 56.0779C82.9042 56.1815 82.7783 56.2601 82.6265 56.3137L75.3921 59.0114C75.156 59.1003 74.9229 59.1171 74.6928 59.0618C74.4713 59.0147 74.2743 58.9078 74.1016 58.7411C73.9376 58.5827 73.8196 58.3853 73.7476 58.149C73.6842 57.9209 73.6929 57.6874 73.7735 57.4484L76.2042 50.1117C76.2444 49.9837 76.3187 49.8636 76.427 49.7514C76.6188 49.5529 76.8633 49.4637 77.1607 49.484C77.4667 49.5126 77.7276 49.6311 77.9434 49.8395C78.2542 50.1396 78.3371 50.5116 78.192 50.9554L76.1411 56.7069L81.7921 54.4569ZM79.3457 63.8302C79.1126 63.6052 78.9809 63.3529 78.9506 63.0733C78.9372 62.7935 79.0514 62.5284 79.2931 62.2781L84.1196 57.2801C84.3613 57.0298 84.6181 56.9107 84.8899 56.923C85.1703 56.9435 85.427 57.0664 85.6601 57.2914C85.8932 57.5165 86.0249 57.7688 86.0552 58.0483C86.0855 58.3278 85.9798 58.5928 85.7381 58.8431L80.9116 63.8411C80.6699 64.0914 80.4046 64.2106 80.1159 64.1987C79.8355 64.1781 79.5787 64.0553 79.3457 63.8302ZM86.7729 56.139C86.4795 55.8556 86.3214 55.5529 86.2988 55.2308C86.2846 54.9 86.4025 54.6052 86.6525 54.3462C86.9026 54.0873 87.189 53.9635 87.5117 53.9748C87.8344 53.9861 88.1425 54.1335 88.436 54.4169C88.7208 54.692 88.8745 54.9906 88.8971 55.3127C88.9284 55.6431 88.8189 55.9378 88.5689 56.1968C88.3188 56.4558 88.0282 56.5839 87.6972 56.5812C87.3745 56.5698 87.0664 56.4225 86.7729 56.139ZM91.8472 63.2162C92.6068 63.9497 92.9638 64.7115 92.9182 65.5016C92.8726 66.2916 92.4288 67.1226 91.5869 67.9944L88.511 71.1797C88.2775 71.4214 88.0208 71.5404 87.7407 71.5368C87.4692 71.5416 87.2083 71.4231 86.9579 71.1813C86.7076 70.9396 86.5758 70.6788 86.5624 70.399C86.549 70.1191 86.659 69.8584 86.8924 69.6167L89.8809 66.5221C90.356 66.0301 90.607 65.5801 90.6338 65.1723C90.6693 64.7728 90.4885 64.3813 90.0914 63.9979C89.6253 63.5478 89.1081 63.3319 88.5398 63.3503C87.9801 63.377 87.4627 63.6364 86.9876 64.1285L84.1992 67.0159C83.9658 67.2576 83.7091 67.3766 83.4289 67.373C83.1488 67.3694 82.8836 67.2468 82.6333 67.005C82.3829 66.7633 82.2511 66.5025 82.2377 66.2227C82.233 65.9512 82.3473 65.6946 82.5807 65.4529L87.4197 60.442C87.6364 60.2175 87.8849 60.1071 88.165 60.1107C88.4451 60.1143 88.7103 60.237 88.9607 60.4787C89.1851 60.6955 89.2997 60.9396 89.3044 61.2111C89.3261 61.4823 89.2328 61.7258 89.0244 61.9416L88.6868 62.2912C89.2444 62.1456 89.7961 62.153 90.342 62.3132C90.888 62.4734 91.3897 62.7744 91.8472 63.2162ZM101.08 72.1818C101.321 72.4153 101.449 72.6719 101.462 72.9517C101.476 73.2315 101.37 73.488 101.145 73.721L96.2056 78.8355C95.247 79.8282 94.2455 80.3125 93.2013 80.2883C92.157 80.2641 91.0954 79.731 90.0164 78.689C89.0755 77.7804 88.4608 76.8448 88.1725 75.8824C88.0365 75.3841 88.0977 75.0011 88.3561 74.7335C88.5395 74.5436 88.7285 74.4342 88.9232 74.4054C89.1265 74.3848 89.3015 74.4454 89.4483 74.5871C89.526 74.6622 89.6043 74.7711 89.6831 74.914C89.7537 75.0655 89.8244 75.2256 89.8952 75.394C90.0809 75.8236 90.2613 76.1896 90.4363 76.4921C90.6199 76.8029 90.8714 77.1125 91.1908 77.4209C92.3216 78.5129 93.4205 78.5065 94.4875 77.4016L95.2878 76.5729C94.7561 76.7434 94.2131 76.7529 93.6588 76.6013C93.1129 76.4411 92.6069 76.136 92.1407 75.6858C91.5883 75.1523 91.2213 74.5477 91.0398 73.8719C90.8752 73.1959 90.9013 72.5038 91.1181 71.7956C91.3349 71.0874 91.7434 70.4226 92.3435 69.8011C92.9437 69.1796 93.5896 68.744 94.2811 68.4943C94.9896 68.2443 95.6847 68.1982 96.3664 68.356C97.0564 68.5053 97.6777 68.8466 98.2301 69.3801C98.6962 69.8302 99.0147 70.3296 99.1855 70.8783C99.3647 71.4183 99.3783 71.9569 99.2265 72.4943L99.5516 72.1576C99.7683 71.9332 100.017 71.8227 100.297 71.8263C100.577 71.8299 100.838 71.9484 101.08 72.1818ZM93.7809 74.8425C94.2988 75.3426 94.8628 75.5619 95.4727 75.5004C96.0913 75.4471 96.684 75.127 97.2509 74.5401C97.8261 73.9444 98.1294 73.3366 98.1611 72.7165C98.2013 72.1048 97.9625 71.5488 97.4445 71.0487C96.9352 70.5569 96.3713 70.3376 95.7527 70.3908C95.1341 70.444 94.5372 70.7685 93.9621 71.3641C93.3952 71.9511 93.096 72.5546 93.0644 73.1747C93.0328 73.7947 93.2716 74.3507 93.7809 74.8425ZM99.5111 83.3538C98.5702 82.4452 97.9898 81.5261 97.7699 80.5964C97.6521 80.1656 97.739 79.7992 98.0308 79.4971C98.1975 79.3244 98.3783 79.2321 98.5733 79.2203C98.7767 79.1997 98.9474 79.2562 99.0855 79.3895C99.2322 79.5312 99.3684 79.7962 99.494 80.1844C99.6452 80.5806 99.7996 80.9216 99.9574 81.2074C100.124 81.5015 100.384 81.8195 100.738 82.1613C101.1 82.5114 101.439 82.7219 101.755 82.7927C102.078 82.872 102.345 82.8037 102.553 82.5879C102.695 82.4411 102.764 82.2829 102.761 82.1132C102.767 81.9519 102.695 81.7325 102.546 81.455C102.414 81.1773 102.178 80.7825 101.838 80.2708C101.22 79.3735 100.88 78.6199 100.818 78.0099C100.765 77.4083 100.98 76.8572 101.464 76.3565C101.831 75.9767 102.272 75.7441 102.788 75.6587C103.313 75.5647 103.849 75.6232 104.395 75.8343C104.959 76.0451 105.491 76.3923 105.992 76.8758C106.355 77.2259 106.658 77.611 106.903 78.031C107.157 78.4424 107.334 78.8637 107.435 79.2947C107.544 79.7341 107.461 80.0962 107.186 80.3811C107.02 80.5537 106.83 80.6546 106.619 80.6838C106.415 80.7043 106.245 80.6479 106.107 80.5145C106.012 80.4228 105.933 80.3139 105.872 80.1876C105.827 80.0611 105.773 79.8923 105.71 79.6813C105.585 79.31 105.461 79.0067 105.338 78.7712C105.223 78.5271 105.032 78.2758 104.765 78.0174C104.445 77.709 104.128 77.5278 103.813 77.4739C103.507 77.4283 103.245 77.5178 103.028 77.7422C102.82 77.958 102.757 78.2137 102.838 78.5093C102.92 78.8049 103.178 79.2714 103.614 79.9088C104.075 80.5882 104.395 81.1639 104.573 81.636C104.751 82.1082 104.797 82.5275 104.71 82.8939C104.631 83.2687 104.417 83.6374 104.067 83.9999C103.5 84.5869 102.8 84.8198 101.966 84.6985C101.141 84.5856 100.323 84.1374 99.5111 83.3538Z" fill="#FA0000"/>
</svg>
