<svg width="167" height="56" viewBox="0 0 167 56" fill="none" xmlns="http://www.w3.org/2000/svg">
<path d="M14.8877 19.224C14.8877 20.504 14.4397 21.584 13.5437 22.464C12.6637 23.344 11.4717 23.896 9.96771 24.12V25.632C9.96771 26 9.85571 26.296 9.63171 26.52C9.40771 26.76 9.11171 26.88 8.74371 26.88C8.37571 26.88 8.07971 26.76 7.85571 26.52C7.63171 26.296 7.51971 26 7.51971 25.632V24.168C6.60771 24.088 5.71971 23.896 4.85571 23.592C3.99171 23.288 3.24771 22.888 2.62371 22.392C2.41571 22.248 2.27171 22.088 2.19171 21.912C2.11171 21.736 2.07171 21.52 2.07171 21.264C2.07171 20.928 2.16771 20.632 2.35971 20.376C2.56771 20.12 2.79971 19.992 3.05571 19.992C3.21571 19.992 3.35971 20.024 3.48771 20.088C3.63171 20.136 3.81571 20.224 4.03971 20.352C4.77571 20.832 5.49571 21.184 6.19971 21.408C6.91971 21.632 7.67171 21.744 8.45571 21.744C9.52771 21.744 10.3517 21.536 10.9277 21.12C11.5197 20.704 11.8157 20.104 11.8157 19.32C11.8157 18.856 11.6557 18.48 11.3357 18.192C11.0157 17.904 10.6157 17.68 10.1357 17.52C9.65571 17.344 8.98371 17.144 8.11971 16.92C6.91971 16.616 5.94371 16.312 5.19171 16.008C4.43971 15.688 3.79171 15.208 3.24771 14.568C2.70371 13.928 2.43171 13.064 2.43171 11.976C2.43171 10.68 2.89571 9.576 3.82371 8.664C4.75171 7.752 5.96771 7.184 7.47171 6.96V5.448C7.47171 5.08 7.58371 4.784 7.80771 4.56C8.03171 4.32 8.32771 4.2 8.69571 4.2C9.06371 4.2 9.35971 4.32 9.58371 4.56C9.80771 4.784 9.91971 5.08 9.91971 5.448V6.936C11.5357 7.144 12.9277 7.728 14.0957 8.688C14.4797 8.976 14.6717 9.352 14.6717 9.816C14.6717 10.152 14.5677 10.448 14.3597 10.704C14.1677 10.96 13.9357 11.088 13.6637 11.088C13.5197 11.088 13.3757 11.064 13.2317 11.016C13.1037 10.968 12.9277 10.872 12.7037 10.728C12.0477 10.264 11.4237 9.92 10.8317 9.696C10.2557 9.456 9.56771 9.336 8.76771 9.336C7.77571 9.336 6.98371 9.56 6.39171 10.008C5.79971 10.44 5.50371 11.04 5.50371 11.808C5.50371 12.336 5.67171 12.768 6.00771 13.104C6.34371 13.424 6.76771 13.672 7.27971 13.848C7.79171 14.024 8.48771 14.224 9.36771 14.448C10.5357 14.736 11.4877 15.032 12.2237 15.336C12.9597 15.64 13.5837 16.104 14.0957 16.728C14.6237 17.336 14.8877 18.168 14.8877 19.224ZM23.7823 13.176C24.8383 13.176 25.7663 13.408 26.5663 13.872C27.3823 14.32 28.0143 14.952 28.4623 15.768C28.9103 16.584 29.1343 17.52 29.1343 18.576C29.1343 19.68 28.8783 20.656 28.3663 21.504C27.8703 22.352 27.1583 23.016 26.2303 23.496C25.3183 23.96 24.2623 24.192 23.0623 24.192C22.0703 24.192 21.0943 24.032 20.1343 23.712C19.1903 23.376 18.3823 22.928 17.7103 22.368C17.3423 22.048 17.1583 21.672 17.1583 21.24C17.1583 20.888 17.2543 20.592 17.4463 20.352C17.6543 20.096 17.8943 19.968 18.1663 19.968C18.3263 19.968 18.4783 20 18.6223 20.064C18.7663 20.112 18.9343 20.2 19.1263 20.328C19.7663 20.776 20.3903 21.12 20.9983 21.36C21.6063 21.6 22.2543 21.72 22.9423 21.72C23.9983 21.72 24.8063 21.456 25.3663 20.928C25.9263 20.4 26.2063 19.648 26.2063 18.672C26.2063 17.728 25.9183 16.984 25.3423 16.44C24.7823 15.88 24.0063 15.6 23.0143 15.6C22.3903 15.6 21.8303 15.688 21.3343 15.864C20.8543 16.04 20.3583 16.336 19.8463 16.752C19.5423 16.96 19.2303 17.064 18.9103 17.064C18.5903 17.064 18.3183 16.968 18.0943 16.776C17.8703 16.584 17.7583 16.328 17.7583 16.008V8.52C17.7583 8.072 17.8863 7.72 18.1423 7.464C18.3983 7.208 18.7583 7.08 19.2223 7.08H27.2143C28.1743 7.08 28.6543 7.48 28.6543 8.28C28.6543 9.08 28.1743 9.48 27.2143 9.48H20.7823V14.04C21.5983 13.464 22.5983 13.176 23.7823 13.176ZM36.733 6.864C38.877 6.864 40.525 7.592 41.677 9.048C42.845 10.488 43.429 12.552 43.429 15.24C43.429 17.08 43.157 18.68 42.613 20.04C42.069 21.384 41.285 22.416 40.261 23.136C39.253 23.856 38.061 24.216 36.685 24.216C35.773 24.216 34.853 24.056 33.925 23.736C33.013 23.4 32.237 22.952 31.597 22.392C31.389 22.216 31.237 22.048 31.141 21.888C31.061 21.712 31.021 21.504 31.021 21.264C31.021 20.912 31.117 20.616 31.309 20.376C31.517 20.12 31.757 19.992 32.029 19.992C32.189 19.992 32.341 20.024 32.485 20.088C32.629 20.136 32.805 20.224 33.013 20.352C34.341 21.28 35.525 21.744 36.565 21.744C37.733 21.744 38.653 21.208 39.325 20.136C39.997 19.048 40.349 17.528 40.381 15.576C40.013 16.296 39.461 16.872 38.725 17.304C37.989 17.72 37.165 17.928 36.253 17.928C35.245 17.928 34.349 17.704 33.565 17.256C32.781 16.792 32.165 16.152 31.717 15.336C31.285 14.504 31.069 13.56 31.069 12.504C31.069 11.416 31.309 10.448 31.789 9.6C32.285 8.736 32.957 8.064 33.805 7.584C34.669 7.104 35.645 6.864 36.733 6.864ZM36.901 15.48C37.797 15.48 38.517 15.2 39.061 14.64C39.621 14.064 39.901 13.32 39.901 12.408C39.901 11.48 39.621 10.736 39.061 10.176C38.517 9.6 37.797 9.312 36.901 9.312C36.021 9.312 35.317 9.6 34.789 10.176C34.261 10.736 33.997 11.48 33.997 12.408C33.997 13.336 34.261 14.08 34.789 14.64C35.317 15.2 36.021 15.48 36.901 15.48ZM47.4516 24.144C46.9396 24.144 46.5156 23.976 46.1796 23.64C45.8436 23.288 45.6756 22.856 45.6756 22.344C45.6756 21.832 45.8436 21.408 46.1796 21.072C46.5156 20.72 46.9396 20.544 47.4516 20.544C47.9636 20.544 48.3876 20.72 48.7236 21.072C49.0596 21.408 49.2276 21.832 49.2276 22.344C49.2276 22.856 49.0596 23.288 48.7236 23.64C48.3876 23.976 47.9636 24.144 47.4516 24.144ZM57.0767 6.864C59.2207 6.864 60.8687 7.592 62.0207 9.048C63.1887 10.488 63.7727 12.552 63.7727 15.24C63.7727 17.08 63.5007 18.68 62.9567 20.04C62.4127 21.384 61.6287 22.416 60.6047 23.136C59.5967 23.856 58.4047 24.216 57.0287 24.216C56.1167 24.216 55.1967 24.056 54.2687 23.736C53.3567 23.4 52.5807 22.952 51.9407 22.392C51.7327 22.216 51.5807 22.048 51.4847 21.888C51.4047 21.712 51.3647 21.504 51.3647 21.264C51.3647 20.912 51.4607 20.616 51.6527 20.376C51.8607 20.12 52.1007 19.992 52.3727 19.992C52.5327 19.992 52.6847 20.024 52.8287 20.088C52.9727 20.136 53.1487 20.224 53.3567 20.352C54.6847 21.28 55.8687 21.744 56.9087 21.744C58.0767 21.744 58.9967 21.208 59.6687 20.136C60.3407 19.048 60.6927 17.528 60.7247 15.576C60.3567 16.296 59.8047 16.872 59.0687 17.304C58.3327 17.72 57.5087 17.928 56.5967 17.928C55.5887 17.928 54.6927 17.704 53.9087 17.256C53.1247 16.792 52.5087 16.152 52.0607 15.336C51.6287 14.504 51.4127 13.56 51.4127 12.504C51.4127 11.416 51.6527 10.448 52.1327 9.6C52.6287 8.736 53.3007 8.064 54.1487 7.584C55.0127 7.104 55.9887 6.864 57.0767 6.864ZM57.2447 15.48C58.1407 15.48 58.8607 15.2 59.4047 14.64C59.9647 14.064 60.2447 13.32 60.2447 12.408C60.2447 11.48 59.9647 10.736 59.4047 10.176C58.8607 9.6 58.1407 9.312 57.2447 9.312C56.3647 9.312 55.6607 9.6 55.1327 10.176C54.6047 10.736 54.3407 11.48 54.3407 12.408C54.3407 13.336 54.6047 14.08 55.1327 14.64C55.6607 15.2 56.3647 15.48 57.2447 15.48ZM71.4673 6.864C73.6113 6.864 75.2593 7.592 76.4113 9.048C77.5793 10.488 78.1633 12.552 78.1633 15.24C78.1633 17.08 77.8913 18.68 77.3473 20.04C76.8033 21.384 76.0193 22.416 74.9953 23.136C73.9873 23.856 72.7953 24.216 71.4193 24.216C70.5073 24.216 69.5873 24.056 68.6593 23.736C67.7473 23.4 66.9713 22.952 66.3313 22.392C66.1233 22.216 65.9713 22.048 65.8753 21.888C65.7953 21.712 65.7553 21.504 65.7553 21.264C65.7553 20.912 65.8513 20.616 66.0433 20.376C66.2513 20.12 66.4913 19.992 66.7633 19.992C66.9233 19.992 67.0753 20.024 67.2193 20.088C67.3633 20.136 67.5393 20.224 67.7473 20.352C69.0753 21.28 70.2593 21.744 71.2993 21.744C72.4673 21.744 73.3873 21.208 74.0593 20.136C74.7313 19.048 75.0833 17.528 75.1153 15.576C74.7473 16.296 74.1953 16.872 73.4593 17.304C72.7233 17.72 71.8993 17.928 70.9873 17.928C69.9793 17.928 69.0833 17.704 68.2993 17.256C67.5153 16.792 66.8993 16.152 66.4513 15.336C66.0193 14.504 65.8033 13.56 65.8033 12.504C65.8033 11.416 66.0433 10.448 66.5233 9.6C67.0193 8.736 67.6913 8.064 68.5393 7.584C69.4033 7.104 70.3793 6.864 71.4673 6.864ZM71.6353 15.48C72.5313 15.48 73.2513 15.2 73.7953 14.64C74.3553 14.064 74.6353 13.32 74.6353 12.408C74.6353 11.48 74.3553 10.736 73.7953 10.176C73.2513 9.6 72.5313 9.312 71.6353 9.312C70.7553 9.312 70.0513 9.6 69.5233 10.176C68.9953 10.736 68.7313 11.48 68.7313 12.408C68.7313 13.336 68.9953 14.08 69.5233 14.64C70.0513 15.2 70.7553 15.48 71.6353 15.48ZM89.6106 15.018C90.3786 15.018 91.0566 15.21 91.6446 15.594C92.2326 15.978 92.6886 16.518 93.0126 17.214C93.3366 17.898 93.4986 18.696 93.4986 19.608C93.4986 20.52 93.3366 21.318 93.0126 22.002C92.6886 22.674 92.2326 23.196 91.6446 23.568C91.0686 23.94 90.3906 24.126 89.6106 24.126C88.9266 24.126 88.3266 23.976 87.8106 23.676C87.3066 23.376 86.9226 22.95 86.6586 22.398V26.628C86.6586 26.844 86.5926 27.012 86.4606 27.132C86.3406 27.264 86.1666 27.33 85.9386 27.33C85.7106 27.33 85.5306 27.264 85.3986 27.132C85.2666 27 85.2006 26.832 85.2006 26.628V15.774C85.2006 15.558 85.2666 15.384 85.3986 15.252C85.5306 15.12 85.7106 15.054 85.9386 15.054C86.1666 15.054 86.3406 15.12 86.4606 15.252C86.5926 15.384 86.6586 15.558 86.6586 15.774V16.746C86.9226 16.194 87.3066 15.768 87.8106 15.468C88.3266 15.168 88.9266 15.018 89.6106 15.018ZM89.3226 22.92C90.1746 22.92 90.8346 22.632 91.3026 22.056C91.7706 21.48 92.0046 20.664 92.0046 19.608C92.0046 18.552 91.7706 17.73 91.3026 17.142C90.8346 16.542 90.1746 16.242 89.3226 16.242C88.4706 16.242 87.8106 16.53 87.3426 17.106C86.8866 17.682 86.6586 18.504 86.6586 19.572C86.6586 20.64 86.8866 21.468 87.3426 22.056C87.8106 22.632 88.4706 22.92 89.3226 22.92ZM102.463 21.966C102.595 21.966 102.709 22.02 102.805 22.128C102.901 22.236 102.949 22.374 102.949 22.542C102.949 22.842 102.739 23.118 102.319 23.37C101.887 23.622 101.431 23.814 100.951 23.946C100.471 24.066 100.003 24.126 99.5471 24.126C98.1911 24.126 97.1171 23.724 96.3251 22.92C95.5451 22.116 95.1551 21.006 95.1551 19.59C95.1551 18.69 95.3291 17.898 95.6771 17.214C96.0251 16.518 96.5111 15.978 97.1351 15.594C97.7711 15.21 98.4911 15.018 99.2951 15.018C100.435 15.018 101.341 15.39 102.013 16.134C102.685 16.878 103.021 17.886 103.021 19.158C103.021 19.398 102.973 19.572 102.877 19.68C102.781 19.788 102.625 19.842 102.409 19.842H96.6131C96.7211 21.906 97.6991 22.938 99.5471 22.938C100.015 22.938 100.417 22.878 100.753 22.758C101.089 22.626 101.449 22.452 101.833 22.236C102.145 22.056 102.355 21.966 102.463 21.966ZM99.3131 16.152C98.5451 16.152 97.9271 16.392 97.4591 16.872C97.0031 17.352 96.7331 18.03 96.6491 18.906H101.743C101.719 18.018 101.497 17.34 101.077 16.872C100.657 16.392 100.069 16.152 99.3131 16.152ZM109.507 15.054C110.011 15.018 110.263 15.222 110.263 15.666C110.263 15.858 110.209 16.014 110.101 16.134C109.993 16.242 109.807 16.308 109.543 16.332L109.003 16.386C108.199 16.458 107.599 16.746 107.203 17.25C106.819 17.742 106.627 18.324 106.627 18.996V23.37C106.627 23.61 106.561 23.79 106.429 23.91C106.297 24.03 106.123 24.09 105.907 24.09C105.691 24.09 105.511 24.03 105.367 23.91C105.235 23.778 105.169 23.598 105.169 23.37V15.774C105.169 15.546 105.241 15.372 105.385 15.252C105.529 15.12 105.703 15.054 105.907 15.054C106.099 15.054 106.261 15.12 106.393 15.252C106.525 15.372 106.591 15.54 106.591 15.756V16.764C106.843 16.236 107.197 15.834 107.653 15.558C108.121 15.282 108.655 15.12 109.255 15.072L109.507 15.054ZM125.912 15.018C127.856 15.018 128.828 16.176 128.828 18.492V23.37C128.828 23.598 128.762 23.778 128.63 23.91C128.498 24.03 128.324 24.09 128.108 24.09C127.892 24.09 127.712 24.03 127.568 23.91C127.436 23.778 127.37 23.598 127.37 23.37V18.528C127.37 17.724 127.226 17.142 126.938 16.782C126.65 16.422 126.2 16.242 125.588 16.242C124.856 16.242 124.28 16.488 123.86 16.98C123.44 17.472 123.23 18.138 123.23 18.978V23.37C123.23 23.598 123.158 23.778 123.014 23.91C122.882 24.03 122.708 24.09 122.492 24.09C122.276 24.09 122.102 24.03 121.97 23.91C121.838 23.778 121.772 23.598 121.772 23.37V18.528C121.772 17.724 121.628 17.142 121.34 16.782C121.052 16.422 120.596 16.242 119.972 16.242C119.252 16.242 118.676 16.488 118.244 16.98C117.824 17.472 117.614 18.138 117.614 18.978V23.37C117.614 23.598 117.548 23.778 117.416 23.91C117.284 24.03 117.11 24.09 116.894 24.09C116.678 24.09 116.498 24.03 116.354 23.91C116.222 23.778 116.156 23.598 116.156 23.37V15.774C116.156 15.558 116.222 15.384 116.354 15.252C116.498 15.12 116.678 15.054 116.894 15.054C117.098 15.054 117.266 15.12 117.398 15.252C117.53 15.372 117.596 15.54 117.596 15.756V16.62C117.86 16.104 118.226 15.708 118.694 15.432C119.162 15.156 119.702 15.018 120.314 15.018C121.682 15.018 122.576 15.594 122.996 16.746C123.248 16.218 123.632 15.798 124.148 15.486C124.664 15.174 125.252 15.018 125.912 15.018ZM135.12 24.126C134.292 24.126 133.56 23.94 132.924 23.568C132.3 23.196 131.814 22.668 131.466 21.984C131.13 21.288 130.962 20.484 130.962 19.572C130.962 18.66 131.13 17.862 131.466 17.178C131.814 16.482 132.3 15.948 132.924 15.576C133.56 15.204 134.292 15.018 135.12 15.018C135.948 15.018 136.68 15.204 137.316 15.576C137.952 15.948 138.438 16.482 138.774 17.178C139.122 17.862 139.296 18.66 139.296 19.572C139.296 20.484 139.122 21.288 138.774 21.984C138.438 22.668 137.952 23.196 137.316 23.568C136.68 23.94 135.948 24.126 135.12 24.126ZM135.12 22.92C135.984 22.92 136.644 22.638 137.1 22.074C137.568 21.498 137.802 20.664 137.802 19.572C137.802 18.504 137.568 17.682 137.1 17.106C136.632 16.518 135.972 16.224 135.12 16.224C134.268 16.224 133.608 16.518 133.14 17.106C132.672 17.682 132.438 18.504 132.438 19.572C132.438 20.652 132.666 21.48 133.122 22.056C133.59 22.632 134.256 22.92 135.12 22.92ZM145.878 15.018C147.978 15.018 149.028 16.176 149.028 18.492V23.37C149.028 23.598 148.962 23.778 148.83 23.91C148.71 24.03 148.536 24.09 148.308 24.09C148.08 24.09 147.9 24.03 147.768 23.91C147.636 23.778 147.57 23.598 147.57 23.37V18.582C147.57 17.766 147.408 17.172 147.084 16.8C146.772 16.428 146.268 16.242 145.572 16.242C144.768 16.242 144.126 16.488 143.646 16.98C143.166 17.472 142.926 18.138 142.926 18.978V23.37C142.926 23.598 142.86 23.778 142.728 23.91C142.608 24.03 142.434 24.09 142.206 24.09C141.978 24.09 141.798 24.03 141.666 23.91C141.534 23.778 141.468 23.598 141.468 23.37V15.774C141.468 15.558 141.534 15.384 141.666 15.252C141.798 15.12 141.978 15.054 142.206 15.054C142.422 15.054 142.59 15.12 142.71 15.252C142.842 15.384 142.908 15.552 142.908 15.756V16.674C143.196 16.134 143.598 15.726 144.114 15.45C144.63 15.162 145.218 15.018 145.878 15.018ZM155.749 22.938C156.169 22.974 156.379 23.166 156.379 23.514C156.379 23.718 156.301 23.874 156.145 23.982C156.001 24.078 155.779 24.114 155.479 24.09L154.993 24.054C154.033 23.982 153.325 23.694 152.869 23.19C152.413 22.686 152.185 21.924 152.185 20.904V16.386H150.979C150.775 16.386 150.613 16.338 150.493 16.242C150.385 16.134 150.331 15.996 150.331 15.828C150.331 15.648 150.385 15.504 150.493 15.396C150.613 15.288 150.775 15.234 150.979 15.234H152.185V13.2C152.185 12.972 152.251 12.798 152.383 12.678C152.515 12.546 152.695 12.48 152.923 12.48C153.139 12.48 153.313 12.546 153.445 12.678C153.577 12.798 153.643 12.972 153.643 13.2V15.234H155.641C155.833 15.234 155.983 15.288 156.091 15.396C156.211 15.504 156.271 15.648 156.271 15.828C156.271 15.996 156.211 16.134 156.091 16.242C155.983 16.338 155.833 16.386 155.641 16.386H153.643V20.976C153.643 21.636 153.775 22.116 154.039 22.416C154.315 22.704 154.723 22.866 155.263 22.902L155.749 22.938ZM162.244 15.018C163.276 15.018 164.056 15.312 164.584 15.9C165.112 16.476 165.376 17.34 165.376 18.492V23.37C165.376 23.598 165.31 23.778 165.178 23.91C165.046 24.03 164.872 24.09 164.656 24.09C164.428 24.09 164.248 24.03 164.116 23.91C163.984 23.778 163.918 23.598 163.918 23.37V18.528C163.918 17.748 163.756 17.172 163.432 16.8C163.12 16.428 162.616 16.242 161.92 16.242C161.116 16.242 160.474 16.488 159.994 16.98C159.514 17.472 159.274 18.138 159.274 18.978V23.37C159.274 23.598 159.208 23.778 159.076 23.91C158.956 24.03 158.782 24.09 158.554 24.09C158.326 24.09 158.146 24.03 158.014 23.91C157.882 23.778 157.816 23.598 157.816 23.37V11.922C157.816 11.718 157.882 11.55 158.014 11.418C158.158 11.286 158.338 11.22 158.554 11.22C158.782 11.22 158.956 11.286 159.076 11.418C159.208 11.538 159.274 11.706 159.274 11.922V16.638C159.562 16.11 159.964 15.708 160.48 15.432C160.996 15.156 161.584 15.018 162.244 15.018ZM84.182 51.736C82.634 51.736 81.284 51.418 80.132 50.782C78.98 50.146 78.092 49.252 77.468 48.1C76.856 46.936 76.55 45.598 76.55 44.086C76.55 42.502 76.88 41.116 77.54 39.928C78.212 38.74 79.124 37.822 80.276 37.174C81.44 36.526 82.742 36.202 84.182 36.202C85.718 36.202 87.032 36.52 88.124 37.156C89.228 37.78 90.056 38.596 90.608 39.604C91.172 40.612 91.454 41.68 91.454 42.808C91.454 43.984 91.274 44.95 90.914 45.706C90.566 46.45 90.116 46.996 89.564 47.344C89.024 47.68 88.448 47.848 87.836 47.848C87.2 47.848 86.696 47.71 86.324 47.434C85.964 47.146 85.76 46.75 85.712 46.246H85.676C85.376 46.738 84.998 47.128 84.542 47.416C84.098 47.704 83.576 47.848 82.976 47.848C82.184 47.848 81.542 47.572 81.05 47.02C80.558 46.456 80.312 45.682 80.312 44.698C80.312 43.882 80.468 43.114 80.78 42.394C81.104 41.674 81.554 41.098 82.13 40.666C82.706 40.234 83.366 40.018 84.11 40.018C84.674 40.018 85.166 40.156 85.586 40.432C86.006 40.696 86.282 41.044 86.414 41.476H86.432L86.576 40.684C86.6 40.54 86.666 40.426 86.774 40.342C86.882 40.258 87.014 40.216 87.17 40.216C87.374 40.216 87.524 40.282 87.62 40.414C87.716 40.534 87.746 40.696 87.71 40.9L86.972 45.112C86.924 45.448 86.9 45.664 86.9 45.76C86.9 46.168 86.996 46.456 87.188 46.624C87.38 46.792 87.668 46.876 88.052 46.876C88.388 46.876 88.73 46.744 89.078 46.48C89.426 46.204 89.72 45.766 89.96 45.166C90.2 44.554 90.32 43.768 90.32 42.808C90.32 41.86 90.092 40.966 89.636 40.126C89.18 39.286 88.49 38.608 87.566 38.092C86.642 37.564 85.514 37.3 84.182 37.3C82.958 37.3 81.854 37.576 80.87 38.128C79.898 38.668 79.13 39.454 78.566 40.486C78.002 41.506 77.72 42.706 77.72 44.086C77.72 45.406 77.978 46.564 78.494 47.56C79.01 48.544 79.754 49.3 80.726 49.828C81.698 50.368 82.85 50.638 84.182 50.638C86.006 50.638 87.428 50.146 88.448 49.162C88.616 49.006 88.79 48.928 88.97 48.928C89.114 48.928 89.234 48.982 89.33 49.09C89.426 49.198 89.474 49.33 89.474 49.486C89.474 49.678 89.402 49.84 89.258 49.972C88.718 50.512 88.004 50.938 87.116 51.25C86.24 51.574 85.262 51.736 84.182 51.736ZM83.21 46.876C83.81 46.876 84.326 46.696 84.758 46.336C85.202 45.964 85.538 45.49 85.766 44.914C85.994 44.338 86.108 43.732 86.108 43.096C86.108 42.424 85.94 41.914 85.604 41.566C85.28 41.206 84.836 41.026 84.272 41.026C83.696 41.026 83.192 41.2 82.76 41.548C82.34 41.896 82.016 42.352 81.788 42.916C81.572 43.468 81.464 44.044 81.464 44.644C81.464 45.352 81.632 45.904 81.968 46.3C82.304 46.684 82.718 46.876 83.21 46.876Z" fill="#414A4D"/>
<path d="M1 24L79 5" stroke="url(#paint0_linear)" stroke-width="2" stroke-linecap="round"/>
<defs>
<linearGradient id="paint0_linear" x1="0.599187" y1="23.5836" x2="78.5992" y2="4.58351" gradientUnits="userSpaceOnUse">
<stop stop-color="#FA0000"/>
<stop offset="1" stop-color="#E220A9"/>
</linearGradient>
</defs>
</svg>
