<svg width="106" height="106" viewBox="0 0 106 106" fill="none" xmlns="http://www.w3.org/2000/svg">
<circle cx="52.86" cy="52.86" r="52.86" fill="#F0F4F7"/>
<path d="M87.6743 52.7289C87.0633 52.2657 86.2698 52.1146 85.531 52.3221C84.8786 52.5047 84.2079 52.5977 83.5355 52.5977C79.3668 52.5977 75.9751 49.1147 75.9751 44.8332C75.9751 43.4785 74.8778 42.3811 73.5231 42.3811C72.1684 42.3811 71.071 43.4785 71.071 44.8332C71.071 49.1147 67.6793 52.5977 63.5107 52.5977C59.342 52.5977 55.9503 49.1147 55.9503 44.8332C55.9503 43.4785 54.853 42.3811 53.4983 42.3811C52.1436 42.3811 51.0462 43.4785 51.0462 44.8332C51.0462 49.1147 47.6545 52.5977 43.4859 52.5977C39.3172 52.5977 35.9255 49.1147 35.9255 44.8332C35.9255 43.4785 34.8282 42.3811 33.4735 42.3811C32.1188 42.3811 31.0214 43.4785 31.0214 44.8332C31.0214 49.1147 27.6297 52.5977 23.4611 52.5977C22.7887 52.5977 22.118 52.5047 21.4656 52.3221C20.7268 52.1146 19.9333 52.2657 19.3223 52.7289C18.7114 53.192 18.3528 53.9142 18.3528 54.6829V86.9248C18.3528 88.2794 19.4501 89.3768 20.8048 89.3768H86.1884C87.5431 89.3768 88.6405 88.2794 88.6405 86.9248V54.6812C88.6438 53.9142 88.2852 53.192 87.6743 52.7289Z" fill="white" stroke="#B8C0CC" stroke-width="2"/>
<path d="M95.9767 44.1457C95.9352 43.7639 95.8057 43.3953 95.5948 43.0732L89.8972 34.3076C89.8856 34.2894 89.8739 34.2711 89.8623 34.2528L85.3749 27.3499V22.3562C85.3749 18.3004 82.0745 15 78.0188 15H28.9811C24.9253 15 21.6249 18.3004 21.6249 22.3562V27.3499L11.4067 43.0716C11.2971 43.2393 11.2091 43.4202 11.1444 43.6095C11.0564 43.8668 11.0099 44.1507 11.0099 44.4213C11.0099 45.776 12.1073 46.8733 13.4619 46.8733H93.5412C94.8959 46.8733 95.9933 45.776 95.9933 44.4213C95.9916 44.3316 95.9866 44.2387 95.9767 44.1457Z" fill="white" stroke="#B8C0CC" stroke-width="2"/>
<path d="M95.99 44.335C95.9419 43.0168 94.8595 41.9709 93.5396 41.9709H73.5314C73.5281 41.9709 73.5265 41.9709 73.5231 41.9709C73.5198 41.9709 73.5165 41.9709 73.5148 41.9709H53.5083C53.505 41.9709 53.5017 41.9709 53.5 41.9709C53.4983 41.9709 53.495 41.9709 53.4917 41.9709H33.4835C33.4802 41.9709 33.4785 41.9709 33.4752 41.9709C33.4719 41.9709 33.4702 41.9709 33.4669 41.9709H13.4604C12.1405 41.9709 11.0564 43.0168 11.01 44.335C11.0033 44.501 11 44.6654 11 44.8314C11 51.8173 16.5914 57.5 23.4645 57.5C27.5617 57.5 31.2024 55.4796 33.4752 52.3668C35.7496 55.4796 39.3903 57.5 43.4876 57.5C47.5849 57.5 51.2272 55.4796 53.5 52.3668C55.7728 55.4796 59.4135 57.5 63.5124 57.5C67.6097 57.5 71.2504 55.4796 73.5248 52.3668C75.7976 55.4796 79.4383 57.5 83.5355 57.5C90.4086 57.5 96 51.8173 96 44.8314C96 44.6654 95.9967 44.501 95.99 44.335Z" fill="white" stroke="#B8C0CC" stroke-width="2"/>
<path d="M74.75 30.5291H32.25C30.8953 30.5291 29.798 29.4317 29.798 28.077C29.798 26.7224 30.8953 25.625 32.25 25.625H74.75C76.1047 25.625 77.2021 26.7224 77.2021 28.077C77.2021 29.4317 76.1047 30.5291 74.75 30.5291Z" fill="white" stroke="#B8C0CC" stroke-width="2"/>
<path d="M43.6918 61.5874H37.1541C33.0984 61.5874 29.798 64.8878 29.798 68.9419V86.923C29.798 88.2777 30.8953 89.3751 32.25 89.3751H48.5959C49.9506 89.3751 51.048 88.2777 51.048 86.923V68.9419C51.048 64.8861 47.7492 61.5874 43.6918 61.5874Z" stroke="#FA0000" stroke-width="2"/>
<path d="M69.8459 61.5874H63.3082C59.2524 61.5874 55.952 64.8878 55.952 68.9419C55.952 72.9977 59.2524 76.298 63.3082 76.298H69.8459C73.9016 76.298 77.202 72.9977 77.202 68.9419C77.202 64.8861 73.9016 61.5874 69.8459 61.5874Z" fill="white" stroke="#B8C0CC" stroke-width="2"/>
<path d="M88.2355 84.4709H18.7646C14.483 84.4709 11 87.954 11 92.2355C11 96.517 14.483 100 18.7646 100H88.2355C92.517 100 96 96.517 96 92.2355C96 87.954 92.517 84.4709 88.2355 84.4709Z" fill="white" stroke="#B8C0CC" stroke-width="2"/>
</svg>
