<svg width="120" height="135" viewBox="0 0 120 135" fill="none" xmlns="http://www.w3.org/2000/svg">
<path d="M10.0334 14.7681H109.967C115.585 14.7681 120 19.1586 120 24.7465V124.131C120 129.719 115.585 134.11 109.967 134.11H10.0334C4.41472 134.11 0 129.719 0 124.131V24.7465C0 19.3581 4.41472 14.7681 10.0334 14.7681Z" fill="#B8C0CC"/>
<path d="M10.5765 36.7205H109.424C113.07 36.7205 115.905 39.1153 115.905 42.1088V123.532C115.905 126.526 113.07 128.921 109.424 128.921H10.5765C6.9305 128.921 4.09473 126.526 4.09473 123.532V42.1088C4.09473 39.1153 7.13306 36.7205 10.5765 36.7205Z" fill="white"/>
<path d="M23.1349 18.7594H22.1222C19.894 18.7594 18.071 16.9633 18.071 14.768V3.99136C18.071 1.79611 19.894 0 22.1222 0H23.1349C25.363 0 27.186 1.79611 27.186 3.99136V14.768C27.186 16.9633 25.363 18.7594 23.1349 18.7594Z" fill="#B8C0CC"/>
<path d="M99.0932 18.7594H98.0804C95.8523 18.7594 94.0293 16.9633 94.0293 14.768V3.99136C94.0293 1.79611 95.8523 0 98.0804 0H99.0932C101.321 0 103.144 1.79611 103.144 3.99136V14.768C103.144 16.9633 101.321 18.7594 99.0932 18.7594Z" fill="#B8C0CC"/>
<path d="M32.2329 70.9543C31.2489 70.9543 30.4929 70.6903 29.9649 70.1623C29.4369 69.6343 29.1729 68.8783 29.1729 67.8943V48.6343C29.1729 47.6503 29.4369 46.8943 29.9649 46.3663C30.4929 45.8383 31.2489 45.5743 32.2329 45.5743H39.5049C42.3129 45.5743 44.7249 46.0903 46.7409 47.1223C48.7809 48.1303 50.3409 49.5823 51.4209 51.4783C52.5009 53.3743 53.0409 55.6303 53.0409 58.2463C53.0409 60.8863 52.5009 63.1663 51.4209 65.0863C50.3649 66.9823 48.8169 68.4343 46.7769 69.4423C44.7609 70.4503 42.3369 70.9543 39.5049 70.9543H32.2329ZM39.0369 65.6263C41.5089 65.6263 43.3569 65.0263 44.5809 63.8263C45.8289 62.6023 46.4529 60.7423 46.4529 58.2463C46.4529 55.7503 45.8289 53.9023 44.5809 52.7023C43.3569 51.5023 41.5089 50.9023 39.0369 50.9023H35.7969V65.6263H39.0369ZM70.9846 65.2663C71.5366 65.2663 71.9806 65.4823 72.3166 65.9143C72.6766 66.3463 72.8566 66.9103 72.8566 67.6063C72.8566 68.5663 72.3886 69.2983 71.4526 69.8023C70.6366 70.2103 69.6646 70.5583 68.5366 70.8463C67.4326 71.1103 66.4126 71.2423 65.4766 71.2423C63.5086 71.2423 61.7926 70.8703 60.3286 70.1263C58.8646 69.3823 57.7366 68.3143 56.9446 66.9223C56.1526 65.5303 55.7566 63.8983 55.7566 62.0263C55.7566 60.2503 56.1286 58.6663 56.8726 57.2743C57.6406 55.8583 58.6966 54.7663 60.0406 53.9983C61.4086 53.2063 62.9446 52.8103 64.6486 52.8103C66.3046 52.8103 67.7566 53.1703 69.0046 53.8903C70.2526 54.6103 71.2126 55.6303 71.8846 56.9503C72.5806 58.2703 72.9286 59.8183 72.9286 61.5943C72.9286 62.1463 72.7966 62.5783 72.5326 62.8903C72.2926 63.1783 71.9326 63.3223 71.4526 63.3223H61.9486C62.1166 64.4743 62.4886 65.3023 63.0646 65.8063C63.6406 66.3103 64.4926 66.5623 65.6206 66.5623C66.2206 66.5623 66.7726 66.5023 67.2766 66.3823C67.7806 66.2383 68.3446 66.0463 68.9686 65.8063C69.3286 65.6623 69.6766 65.5423 70.0126 65.4463C70.3726 65.3263 70.6966 65.2663 70.9846 65.2663ZM64.8286 57.1303C63.9886 57.1303 63.3166 57.4063 62.8126 57.9583C62.3086 58.4863 62.0086 59.2663 61.9126 60.2983H67.5646C67.4206 58.1863 66.5086 57.1303 64.8286 57.1303ZM84.3823 71.2423C81.5023 71.2423 79.2223 70.4263 77.5423 68.7943C75.8623 67.1623 75.0223 64.9423 75.0223 62.1343C75.0223 60.2863 75.4303 58.6543 76.2463 57.2383C77.0623 55.8223 78.2023 54.7303 79.6663 53.9623C81.1543 53.1943 82.8463 52.8103 84.7423 52.8103C85.7503 52.8103 86.7583 52.9423 87.7663 53.2063C88.7743 53.4703 89.6623 53.8423 90.4303 54.3223C91.1743 54.7783 91.5463 55.4743 91.5463 56.4103C91.5463 57.1543 91.3663 57.7663 91.0063 58.2463C90.6703 58.7023 90.2263 58.9303 89.6743 58.9303C89.3143 58.9303 88.9663 58.8823 88.6303 58.7863C88.2943 58.6663 87.9223 58.4983 87.5143 58.2823C87.0343 58.0663 86.6263 57.9103 86.2903 57.8143C85.9543 57.6943 85.5823 57.6343 85.1743 57.6343C82.7983 57.6343 81.6103 59.0863 81.6103 61.9903C81.6103 63.4303 81.9103 64.5343 82.5103 65.3023C83.1343 66.0463 84.0223 66.4183 85.1743 66.4183C85.5823 66.4183 85.9543 66.3703 86.2903 66.2743C86.6503 66.1543 87.0463 65.9863 87.4783 65.7703C87.9583 65.5543 88.3423 65.3983 88.6303 65.3023C88.9423 65.1823 89.2783 65.1223 89.6383 65.1223C90.1903 65.1223 90.6343 65.3623 90.9703 65.8423C91.3303 66.2983 91.5103 66.8983 91.5103 67.6423C91.5103 68.0983 91.4143 68.5183 91.2223 68.9023C91.0303 69.2623 90.7663 69.5383 90.4303 69.7303C88.7743 70.7383 86.7583 71.2423 84.3823 71.2423Z" fill="#B8C0CC"/>
<path d="M66.5934 109.673C67.6734 109.673 68.4654 109.889 68.9694 110.321C69.4734 110.753 69.7254 111.401 69.7254 112.265C69.7254 114.041 68.6814 114.929 66.5934 114.929H54.1014C52.0134 114.929 50.9694 114.041 50.9694 112.265C50.9694 111.401 51.2214 110.753 51.7254 110.321C52.2294 109.889 53.0214 109.673 54.1014 109.673H57.0174V96.6772L54.1374 98.3692C53.7294 98.6092 53.3094 98.7292 52.8774 98.7292C52.2054 98.7292 51.6294 98.4412 51.1494 97.8652C50.6694 97.2652 50.4294 96.6052 50.4294 95.8852C50.4294 94.9012 50.8494 94.1572 51.6894 93.6532L57.4494 90.3052C58.5054 89.7052 59.5014 89.4052 60.4374 89.4052C61.3974 89.4052 62.1654 89.6932 62.7414 90.2692C63.3414 90.8452 63.6414 91.6252 63.6414 92.6092V109.673H66.5934Z" fill="#FA0000"/>
</svg>
