<svg width="255" height="49" viewBox="0 0 255 49" fill="none" xmlns="http://www.w3.org/2000/svg">
<path d="M32.336 29.16C32.336 31.032 31.652 32.616 30.284 33.912C28.94 35.184 27.152 35.952 24.92 36.216V38.988C24.92 39.396 24.8 39.72 24.56 39.96C24.344 40.2 24.044 40.32 23.66 40.32C23.276 40.32 22.964 40.2 22.724 39.96C22.508 39.72 22.4 39.396 22.4 38.988V36.252C20.936 36.156 19.52 35.868 18.152 35.388C16.784 34.908 15.62 34.224 14.66 33.336C14.276 33.024 14.084 32.616 14.084 32.112C14.084 31.776 14.18 31.488 14.372 31.248C14.564 30.984 14.792 30.852 15.056 30.852C15.344 30.852 15.692 30.984 16.1 31.248C18.5 32.928 20.912 33.768 23.336 33.768C25.232 33.768 26.708 33.372 27.764 32.58C28.82 31.788 29.348 30.66 29.348 29.196C29.348 28.332 29.072 27.636 28.52 27.108C27.992 26.556 27.308 26.136 26.468 25.848C25.652 25.536 24.536 25.212 23.12 24.876C21.296 24.42 19.82 23.964 18.692 23.508C17.588 23.052 16.64 22.356 15.848 21.42C15.056 20.484 14.66 19.224 14.66 17.64C14.66 16.344 14.984 15.18 15.632 14.148C16.28 13.092 17.18 12.24 18.332 11.592C19.508 10.944 20.852 10.548 22.364 10.404V7.632C22.364 7.248 22.484 6.936 22.724 6.696C22.964 6.432 23.264 6.3 23.624 6.3C24.008 6.3 24.308 6.42 24.524 6.66C24.764 6.9 24.884 7.224 24.884 7.632V10.404C26.156 10.524 27.38 10.824 28.556 11.304C29.732 11.784 30.728 12.444 31.544 13.284C31.952 13.62 32.156 14.028 32.156 14.508C32.156 14.844 32.048 15.144 31.832 15.408C31.64 15.648 31.412 15.768 31.148 15.768C30.836 15.768 30.5 15.636 30.14 15.372C29.084 14.508 28.052 13.872 27.044 13.464C26.06 13.056 24.908 12.852 23.588 12.852C21.764 12.852 20.312 13.272 19.232 14.112C18.176 14.952 17.648 16.092 17.648 17.532C17.648 18.54 17.936 19.344 18.512 19.944C19.112 20.544 19.844 21.012 20.708 21.348C21.572 21.66 22.76 22.008 24.272 22.392C26.024 22.824 27.428 23.256 28.484 23.688C29.564 24.12 30.476 24.78 31.22 25.668C31.964 26.532 32.336 27.696 32.336 29.16ZM52.3739 33.516C52.8059 33.516 53.1419 33.624 53.3819 33.84C53.6219 34.056 53.7419 34.356 53.7419 34.74C53.7419 35.58 53.2859 36 52.3739 36H38.2619C37.8539 36 37.5179 35.88 37.2539 35.64C36.9899 35.376 36.8579 35.064 36.8579 34.704C36.8579 34.248 37.0259 33.852 37.3619 33.516L46.0379 23.976C47.2379 22.632 48.1019 21.432 48.6299 20.376C49.1819 19.296 49.4579 18.216 49.4579 17.136C49.4579 15.744 49.0499 14.676 48.2339 13.932C47.4419 13.188 46.3139 12.816 44.8499 12.816C43.6979 12.816 42.5939 13.032 41.5379 13.464C40.4819 13.872 39.4259 14.508 38.3699 15.372C38.0099 15.66 37.6739 15.804 37.3619 15.804C37.0979 15.804 36.8699 15.684 36.6779 15.444C36.4859 15.18 36.3899 14.868 36.3899 14.508C36.3899 14.004 36.5819 13.596 36.9659 13.284C37.9499 12.372 39.1499 11.652 40.5659 11.124C41.9819 10.596 43.4339 10.332 44.9219 10.332C47.2019 10.332 49.0139 10.932 50.3579 12.132C51.7259 13.332 52.4099 14.952 52.4099 16.992C52.4099 18.456 52.0739 19.86 51.4019 21.204C50.7539 22.548 49.6739 24.048 48.1619 25.704L40.9619 33.516H52.3739ZM65.6799 10.332C68.7519 10.332 71.1159 11.4 72.7719 13.536C74.4519 15.672 75.2919 18.72 75.2919 22.68C75.2919 25.512 74.9079 27.948 74.1399 29.988C73.3719 32.028 72.2559 33.588 70.7919 34.668C69.3279 35.748 67.5879 36.288 65.5719 36.288C64.2039 36.288 62.8359 36.024 61.4679 35.496C60.1239 34.968 58.9719 34.248 58.0119 33.336C57.6039 32.952 57.3999 32.544 57.3999 32.112C57.3999 31.752 57.4959 31.452 57.6879 31.212C57.8799 30.972 58.1079 30.852 58.3719 30.852C58.7079 30.852 59.0559 30.984 59.4159 31.248C61.5039 32.952 63.5319 33.804 65.4999 33.804C67.6359 33.804 69.3039 32.832 70.5039 30.888C71.7039 28.944 72.3039 26.22 72.3039 22.716V22.248C71.7519 23.592 70.8519 24.648 69.6039 25.416C68.3799 26.184 66.9879 26.568 65.4279 26.568C63.8919 26.568 62.5239 26.232 61.3239 25.56C60.1239 24.888 59.1879 23.94 58.5159 22.716C57.8439 21.492 57.5079 20.088 57.5079 18.504C57.5079 16.944 57.8559 15.54 58.5519 14.292C59.2479 13.044 60.2199 12.072 61.4679 11.376C62.7159 10.68 64.1199 10.332 65.6799 10.332ZM65.8599 24.084C67.5159 24.084 68.8599 23.568 69.8919 22.536C70.9479 21.48 71.4759 20.124 71.4759 18.468C71.4759 16.788 70.9479 15.432 69.8919 14.4C68.8599 13.344 67.5039 12.816 65.8239 12.816C64.1919 12.816 62.8839 13.332 61.8999 14.364C60.9159 15.396 60.4239 16.764 60.4239 18.468C60.4239 20.172 60.9159 21.54 61.8999 22.572C62.9079 23.58 64.2279 24.084 65.8599 24.084ZM81.3978 36.18C80.8218 36.18 80.3418 36 79.9578 35.64C79.5738 35.256 79.3818 34.764 79.3818 34.164C79.3818 33.564 79.5738 33.072 79.9578 32.688C80.3418 32.304 80.8218 32.112 81.3978 32.112C81.9498 32.112 82.4058 32.304 82.7658 32.688C83.1498 33.072 83.3418 33.564 83.3418 34.164C83.3418 34.764 83.1498 35.256 82.7658 35.64C82.4058 36 81.9498 36.18 81.3978 36.18ZM95.4924 10.332C98.5644 10.332 100.928 11.4 102.584 13.536C104.264 15.672 105.104 18.72 105.104 22.68C105.104 25.512 104.72 27.948 103.952 29.988C103.184 32.028 102.068 33.588 100.604 34.668C99.1404 35.748 97.4004 36.288 95.3844 36.288C94.0164 36.288 92.6484 36.024 91.2804 35.496C89.9364 34.968 88.7844 34.248 87.8244 33.336C87.4164 32.952 87.2124 32.544 87.2124 32.112C87.2124 31.752 87.3084 31.452 87.5004 31.212C87.6924 30.972 87.9204 30.852 88.1844 30.852C88.5204 30.852 88.8684 30.984 89.2284 31.248C91.3164 32.952 93.3444 33.804 95.3124 33.804C97.4484 33.804 99.1164 32.832 100.316 30.888C101.516 28.944 102.116 26.22 102.116 22.716V22.248C101.564 23.592 100.664 24.648 99.4164 25.416C98.1924 26.184 96.8004 26.568 95.2404 26.568C93.7044 26.568 92.3364 26.232 91.1364 25.56C89.9364 24.888 89.0004 23.94 88.3284 22.716C87.6564 21.492 87.3204 20.088 87.3204 18.504C87.3204 16.944 87.6684 15.54 88.3644 14.292C89.0604 13.044 90.0324 12.072 91.2804 11.376C92.5284 10.68 93.9324 10.332 95.4924 10.332ZM95.6724 24.084C97.3284 24.084 98.6724 23.568 99.7044 22.536C100.76 21.48 101.288 20.124 101.288 18.468C101.288 16.788 100.76 15.432 99.7044 14.4C98.6724 13.344 97.3164 12.816 95.6364 12.816C94.0044 12.816 92.6964 13.332 91.7124 14.364C90.7284 15.396 90.2364 16.764 90.2364 18.468C90.2364 20.172 90.7284 21.54 91.7124 22.572C92.7204 23.58 94.0404 24.084 95.6724 24.084ZM117.078 10.332C120.15 10.332 122.514 11.4 124.17 13.536C125.85 15.672 126.69 18.72 126.69 22.68C126.69 25.512 126.306 27.948 125.538 29.988C124.77 32.028 123.654 33.588 122.19 34.668C120.726 35.748 118.986 36.288 116.97 36.288C115.602 36.288 114.234 36.024 112.866 35.496C111.522 34.968 110.37 34.248 109.41 33.336C109.002 32.952 108.798 32.544 108.798 32.112C108.798 31.752 108.894 31.452 109.086 31.212C109.278 30.972 109.506 30.852 109.77 30.852C110.106 30.852 110.454 30.984 110.814 31.248C112.902 32.952 114.93 33.804 116.898 33.804C119.034 33.804 120.702 32.832 121.902 30.888C123.102 28.944 123.702 26.22 123.702 22.716V22.248C123.15 23.592 122.25 24.648 121.002 25.416C119.778 26.184 118.386 26.568 116.826 26.568C115.29 26.568 113.922 26.232 112.722 25.56C111.522 24.888 110.586 23.94 109.914 22.716C109.242 21.492 108.906 20.088 108.906 18.504C108.906 16.944 109.254 15.54 109.95 14.292C110.646 13.044 111.618 12.072 112.866 11.376C114.114 10.68 115.518 10.332 117.078 10.332ZM117.258 24.084C118.914 24.084 120.258 23.568 121.29 22.536C122.346 21.48 122.874 20.124 122.874 18.468C122.874 16.788 122.346 15.432 121.29 14.4C120.258 13.344 118.902 12.816 117.222 12.816C115.59 12.816 114.282 13.332 113.298 14.364C112.314 15.396 111.822 16.764 111.822 18.468C111.822 20.172 112.314 21.54 113.298 22.572C114.306 23.58 115.626 24.084 117.258 24.084Z" fill="#414A4D"/>
<path d="M2 36L136 6" stroke="url(#paint0_linear)" stroke-width="4" stroke-linecap="round"/>
<path d="M179.06 28.404C179.06 30.348 178.388 32.004 177.044 33.372C175.724 34.74 173.936 35.64 171.68 36.072V37.836C171.68 38.58 171.44 39.18 170.96 39.636C170.504 40.092 169.904 40.32 169.16 40.32C168.416 40.32 167.804 40.092 167.324 39.636C166.868 39.18 166.64 38.58 166.64 37.836V36.216C163.976 35.88 161.696 35.1 159.8 33.876C159.368 33.612 159.056 33.312 158.864 32.976C158.696 32.64 158.612 32.196 158.612 31.644C158.612 30.924 158.816 30.3 159.224 29.772C159.656 29.244 160.16 28.98 160.736 28.98C161.024 28.98 161.312 29.028 161.6 29.124C161.888 29.22 162.26 29.4 162.716 29.664C163.772 30.24 164.756 30.648 165.668 30.888C166.58 31.128 167.552 31.248 168.584 31.248C169.856 31.248 170.816 31.044 171.464 30.636C172.136 30.204 172.472 29.568 172.472 28.728C172.472 28.224 172.268 27.816 171.86 27.504C171.476 27.168 170.984 26.904 170.384 26.712C169.808 26.52 168.956 26.28 167.828 25.992C166.028 25.536 164.552 25.08 163.4 24.624C162.248 24.144 161.252 23.412 160.412 22.428C159.572 21.42 159.152 20.076 159.152 18.396C159.152 16.476 159.824 14.808 161.168 13.392C162.512 11.976 164.288 11.04 166.496 10.584V8.784C166.496 8.064 166.736 7.476 167.216 7.02C167.696 6.54 168.296 6.3 169.016 6.3C169.76 6.3 170.36 6.528 170.816 6.984C171.296 7.44 171.536 8.04 171.536 8.784V10.476C173.528 10.788 175.472 11.544 177.368 12.744C177.8 13.032 178.1 13.356 178.268 13.716C178.46 14.052 178.556 14.472 178.556 14.976C178.556 15.696 178.34 16.32 177.908 16.848C177.476 17.376 176.972 17.64 176.396 17.64C176.108 17.64 175.832 17.592 175.568 17.496C175.304 17.4 174.92 17.22 174.416 16.956C174.248 16.86 173.876 16.668 173.3 16.38C172.724 16.068 172.1 15.828 171.428 15.66C170.78 15.468 170.084 15.372 169.34 15.372C168.26 15.372 167.384 15.612 166.712 16.092C166.04 16.548 165.704 17.172 165.704 17.964C165.704 18.732 166.088 19.308 166.856 19.692C167.624 20.076 168.836 20.46 170.492 20.844C172.268 21.252 173.72 21.684 174.848 22.14C176 22.596 176.984 23.328 177.8 24.336C178.64 25.344 179.06 26.7 179.06 28.404ZM189.486 10.296C192.87 10.296 195.486 11.4 197.334 13.608C199.182 15.816 200.106 18.96 200.106 23.04C200.106 25.728 199.662 28.08 198.774 30.096C197.91 32.088 196.674 33.624 195.066 34.704C193.482 35.784 191.622 36.324 189.486 36.324C188.142 36.324 186.762 36.108 185.346 35.676C183.954 35.244 182.754 34.644 181.746 33.876C181.338 33.564 181.038 33.24 180.846 32.904C180.678 32.568 180.594 32.148 180.594 31.644C180.594 30.9 180.798 30.276 181.206 29.772C181.638 29.244 182.154 28.98 182.754 28.98C183.09 28.98 183.39 29.04 183.654 29.16C183.918 29.256 184.278 29.424 184.734 29.664L185.526 30.06C186.318 30.444 186.978 30.732 187.506 30.924C188.034 31.116 188.586 31.212 189.162 31.212C190.386 31.212 191.37 30.66 192.114 29.556C192.882 28.428 193.338 26.856 193.482 24.84C192.93 25.608 192.186 26.22 191.25 26.676C190.338 27.108 189.33 27.324 188.226 27.324C186.786 27.324 185.49 26.976 184.338 26.28C183.186 25.56 182.274 24.576 181.602 23.328C180.954 22.056 180.63 20.628 180.63 19.044C180.63 17.364 181.002 15.864 181.746 14.544C182.514 13.2 183.57 12.156 184.914 11.412C186.258 10.668 187.782 10.296 189.486 10.296ZM189.882 22.212C190.818 22.212 191.562 21.9 192.114 21.276C192.69 20.652 192.978 19.824 192.978 18.792C192.978 17.784 192.69 16.968 192.114 16.344C191.538 15.696 190.794 15.372 189.882 15.372C188.946 15.372 188.202 15.684 187.65 16.308C187.098 16.932 186.822 17.76 186.822 18.792C186.822 19.848 187.086 20.688 187.614 21.312C188.166 21.912 188.922 22.212 189.882 22.212ZM206.068 36.216C205.06 36.216 204.22 35.88 203.548 35.208C202.9 34.536 202.576 33.708 202.576 32.724C202.576 31.74 202.9 30.912 203.548 30.24C204.22 29.568 205.06 29.232 206.068 29.232C207.052 29.232 207.868 29.568 208.516 30.24C209.188 30.912 209.524 31.74 209.524 32.724C209.524 33.708 209.188 34.536 208.516 35.208C207.868 35.88 207.052 36.216 206.068 36.216ZM220.88 10.296C224.264 10.296 226.88 11.4 228.728 13.608C230.576 15.816 231.5 18.96 231.5 23.04C231.5 25.728 231.056 28.08 230.168 30.096C229.304 32.088 228.068 33.624 226.46 34.704C224.876 35.784 223.016 36.324 220.88 36.324C219.536 36.324 218.156 36.108 216.74 35.676C215.348 35.244 214.148 34.644 213.14 33.876C212.732 33.564 212.432 33.24 212.24 32.904C212.072 32.568 211.988 32.148 211.988 31.644C211.988 30.9 212.192 30.276 212.6 29.772C213.032 29.244 213.548 28.98 214.148 28.98C214.484 28.98 214.784 29.04 215.048 29.16C215.312 29.256 215.672 29.424 216.128 29.664L216.92 30.06C217.712 30.444 218.372 30.732 218.9 30.924C219.428 31.116 219.98 31.212 220.556 31.212C221.78 31.212 222.764 30.66 223.508 29.556C224.276 28.428 224.732 26.856 224.876 24.84C224.324 25.608 223.58 26.22 222.644 26.676C221.732 27.108 220.724 27.324 219.62 27.324C218.18 27.324 216.884 26.976 215.732 26.28C214.58 25.56 213.668 24.576 212.996 23.328C212.348 22.056 212.024 20.628 212.024 19.044C212.024 17.364 212.396 15.864 213.14 14.544C213.908 13.2 214.964 12.156 216.308 11.412C217.652 10.668 219.176 10.296 220.88 10.296ZM221.276 22.212C222.212 22.212 222.956 21.9 223.508 21.276C224.084 20.652 224.372 19.824 224.372 18.792C224.372 17.784 224.084 16.968 223.508 16.344C222.932 15.696 222.188 15.372 221.276 15.372C220.34 15.372 219.596 15.684 219.044 16.308C218.492 16.932 218.216 17.76 218.216 18.792C218.216 19.848 218.48 20.688 219.008 21.312C219.56 21.912 220.316 22.212 221.276 22.212ZM242.466 10.296C245.85 10.296 248.466 11.4 250.314 13.608C252.162 15.816 253.086 18.96 253.086 23.04C253.086 25.728 252.642 28.08 251.754 30.096C250.89 32.088 249.654 33.624 248.046 34.704C246.462 35.784 244.602 36.324 242.466 36.324C241.122 36.324 239.742 36.108 238.326 35.676C236.934 35.244 235.734 34.644 234.726 33.876C234.318 33.564 234.018 33.24 233.826 32.904C233.658 32.568 233.574 32.148 233.574 31.644C233.574 30.9 233.778 30.276 234.186 29.772C234.618 29.244 235.134 28.98 235.734 28.98C236.07 28.98 236.37 29.04 236.634 29.16C236.898 29.256 237.258 29.424 237.714 29.664L238.506 30.06C239.298 30.444 239.958 30.732 240.486 30.924C241.014 31.116 241.566 31.212 242.142 31.212C243.366 31.212 244.35 30.66 245.094 29.556C245.862 28.428 246.318 26.856 246.462 24.84C245.91 25.608 245.166 26.22 244.23 26.676C243.318 27.108 242.31 27.324 241.206 27.324C239.766 27.324 238.47 26.976 237.318 26.28C236.166 25.56 235.254 24.576 234.582 23.328C233.934 22.056 233.61 20.628 233.61 19.044C233.61 17.364 233.982 15.864 234.726 14.544C235.494 13.2 236.55 12.156 237.894 11.412C239.238 10.668 240.762 10.296 242.466 10.296ZM242.862 22.212C243.798 22.212 244.542 21.9 245.094 21.276C245.67 20.652 245.958 19.824 245.958 18.792C245.958 17.784 245.67 16.968 245.094 16.344C244.518 15.696 243.774 15.372 242.862 15.372C241.926 15.372 241.182 15.684 240.63 16.308C240.078 16.932 239.802 17.76 239.802 18.792C239.802 19.848 240.066 20.688 240.594 21.312C241.146 21.912 241.902 22.212 242.862 22.212Z" fill="url(#paint1_linear)"/>
<defs>
<linearGradient id="paint0_linear" x1="2" y1="36" x2="136" y2="6" gradientUnits="userSpaceOnUse">
<stop stop-color="#FA0000"/>
<stop offset="1" stop-color="#E220A9"/>
</linearGradient>
<linearGradient id="paint1_linear" x1="158" y1="36.5" x2="256.792" y2="13.4228" gradientUnits="userSpaceOnUse">
<stop stop-color="#FA0000"/>
<stop offset="1" stop-color="#E220A9"/>
</linearGradient>
</defs>
</svg>
