<svg width="106" height="106" viewBox="0 0 106 106" fill="none" xmlns="http://www.w3.org/2000/svg">
<circle cx="52.86" cy="52.86" r="52.86" fill="#F0F4F7"/>
<path d="M53.373 15C35.543 15 21 29.709 21 47.5391C21 54.6113 23.2412 61.335 27.4746 66.9629L51.3809 99.0039C51.8291 99.6514 52.5762 100 53.373 100C54.1699 100 54.917 99.6514 55.3652 99.0039L79.2715 66.9629C83.5049 61.335 85.7461 54.6113 85.7461 47.5391C85.7461 29.709 71.2031 15 53.373 15ZM68.2148 64.1738C64.2803 67.71 59.1006 69.9512 53.373 69.9512C47.6455 69.9512 42.4658 67.71 38.5312 64.1738C33.8994 60.0898 30.9609 54.1631 30.9609 47.5391C30.9609 35.1875 41.0215 25.127 53.373 25.127C65.7246 25.127 75.7852 35.1875 75.7852 47.5391C75.7852 54.1631 72.8467 60.0898 68.2148 64.1738Z" fill="white" stroke="#B8C0CC" stroke-width="2"/>
<path d="M53.7021 52.1293C54.0828 52.1293 54.4707 52.0626 54.7845 51.9452L65.3194 48.4371V55.0726C65.3194 56.118 64.4735 56.964 63.4281 56.964H43.9774C42.932 56.964 42.0861 56.118 42.0861 55.0726V48.4372L52.5617 51.9263C52.915 52.0558 53.301 52.1293 53.7021 52.1293Z" fill="white" stroke="#FA0000" stroke-width="2"/>
<path d="M56.9085 40.0894V41.0894H57.9085H63.4279C64.4726 41.0894 65.3196 41.9348 65.3219 42.9814C65.3219 42.9818 65.3219 42.9821 65.3219 42.9824L65.3219 44.668L53.7045 48.5401L42.0872 44.668V42.9807C42.0872 41.9353 42.9331 41.0894 43.9785 41.0894H49.4978H50.4978V40.0894V39.0374C50.4978 38.8719 50.5347 38.7148 50.6005 38.5737V39.0374V40.0894V41.0894H51.6005H55.8058H56.8058V40.0894V39.0374V38.5737C56.8717 38.7148 56.9085 38.8719 56.9085 39.0374V40.0894ZM51.6005 38.0374H51.1368C51.2779 37.9715 51.4351 37.9347 51.6005 37.9347H55.8058C55.9713 37.9347 56.1284 37.9715 56.2695 38.0374H55.8058H51.6005Z" fill="white" stroke="#FA0000" stroke-width="2"/>
</svg>
