<svg width="106" height="106" viewBox="0 0 106 106" fill="none" xmlns="http://www.w3.org/2000/svg">
<circle cx="52.86" cy="52.86" r="52.86" fill="#F0F4F7"/>
<path d="M70.1965 92.7803C77.517 91.7345 78.4756 90.6015 78.0399 90.1658C78.2577 90.1658 79.3471 89.7736 81.9615 88.2049C84.576 86.6363 86.1011 83.1939 86.5369 81.6688C89.1513 68.3786 94.511 40.2296 95.0339 33.9549C95.5567 27.6801 90.0228 24.3685 87.1905 23.497C72.1573 20.6647 41.6988 15 40.1301 15C38.5615 15 37.2978 16.3072 36.8621 16.9608L34.2476 30.6868L19.8681 33.3012C18.5608 33.5191 15.2928 34.4777 12.6783 36.5693C10.0639 38.6609 9.846 43.1055 10.0639 45.0663C11.589 53.9991 14.9006 73.0411 15.9464 77.7471C17.2536 83.6296 16.6 87.5513 19.2145 94.0875C21.3061 99.3164 27.0579 100.188 29.6723 99.97C40.1302 98.0092 62.876 93.826 70.1965 92.7803Z" fill="white"/>
<path d="M40.3038 15.0407C38.7106 14.7752 37.2004 15.8373 36.9183 17.4139L34.5783 30.6406L28.7698 63.5499C29.0187 62.1725 30.2136 61.1602 31.6408 61.1436C31.8068 61.1436 31.9893 61.1602 32.1553 61.1933L34.3625 61.575L76.8807 69.0929L81.8926 40.6645L83.4526 31.9019L85.0292 22.9402L85.8258 23.073L40.3038 15.0407Z" stroke="#B8C0CC"/>
<path d="M34.5783 30.6074V30.6572L28.7698 63.5665V63.5831C28.7532 63.6661 28.7366 63.749 28.7366 63.8486C28.6039 65.3588 29.6494 66.7197 31.143 66.9852L29.6162 75.6482C29.4503 75.615 29.2677 75.5984 29.1017 75.5984C27.5749 75.5984 26.3137 76.7601 26.1809 78.2703C26.1311 78.7682 26.2141 79.2494 26.3966 79.6809C21.5175 80.7596 18.0822 85.1409 18.1984 90.1362C18.215 90.5843 18.2647 91.0324 18.3477 91.4805L10.2158 45.3112C10.1329 44.8631 10.0831 44.4151 10.0665 43.967C9.9503 38.7393 13.7009 34.2087 18.8622 33.3789L34.5783 30.6074Z" stroke="#B8C0CC"/>
<path d="M78.7559 89.456C78.4904 90.5845 77.5776 91.4475 76.4325 91.6467L30.2467 99.7951C27.3424 100.31 24.3386 99.5296 22.0484 97.6875C20.1067 96.1275 18.8122 93.9037 18.3807 91.4807C18.2978 91.0326 18.248 90.5845 18.2314 90.1364C18.1152 85.1411 21.5505 80.7599 26.4297 79.6812C26.8114 80.5607 27.6079 81.2411 28.6203 81.4237L34.2296 82.4194L39.3577 83.3156L34.213 84.2284L27.7075 85.3901C26.4131 85.6224 25.2846 86.419 24.6373 87.5641C23.9901 88.7092 23.8905 90.0867 24.3718 91.3147C24.405 91.3811 24.4216 91.4309 24.4548 91.4973C25.3343 93.3726 27.3756 94.4181 29.4169 94.0198L64.7159 87.7965H64.7325L74.7895 89.5722C76.1172 89.7713 77.4614 89.7382 78.7559 89.456Z" stroke="#B8C0CC"/>
<path d="M59.6379 86.8837L39.3413 83.2991H39.3579L59.6379 86.8837Z" fill="#FA0000"/>
<path d="M72.7612 44.5793L72.7611 44.5793L72.7594 44.5893L70.2036 59.0275L70.2036 59.0275L70.2019 59.0374C70.1625 59.2739 69.9283 59.4531 69.6635 59.4109L39.3723 54.0527C39.1041 54.0005 38.9435 53.7585 38.9827 53.5116L41.5373 39.0796L41.5374 39.0796L41.539 39.0697C41.5784 38.8332 41.8128 38.654 42.0776 38.6962C42.0787 38.6964 42.0799 38.6966 42.081 38.6968L72.3685 44.0378C72.3694 44.0379 72.3703 44.0381 72.3711 44.0382C72.652 44.0912 72.8058 44.3415 72.7612 44.5793Z" stroke="#FA0000" stroke-width="2"/>
<path d="M94.9369 33.7274C94.9369 33.8436 94.9203 33.9431 94.9203 34.0593C94.9203 34.1755 94.9037 34.2916 94.8871 34.3912C94.8705 34.5074 94.8539 34.607 94.8539 34.7231C94.8373 34.8393 94.8207 34.9389 94.8041 35.055L86.722 80.8758C86.722 80.826 86.7386 80.7762 86.7386 80.7264C86.7386 80.7264 86.7386 80.7264 86.7386 80.7098C86.7386 80.7098 86.7386 80.7098 86.7386 80.6932C86.7386 80.6932 86.7386 80.6932 86.7386 80.6766C86.7718 80.4111 86.7884 80.1456 86.805 79.8801C86.9211 74.6358 83.1539 70.1218 77.9926 69.2754L76.8807 69.0762L81.8926 40.6478L83.4526 31.8853L85.0292 22.9236L85.8258 23.0563L86.1245 23.1061C86.2905 23.1393 86.4399 23.1559 86.5892 23.1891C86.6722 23.2057 86.7386 23.2223 86.8216 23.2389C86.888 23.2555 86.9709 23.2721 87.0373 23.2887C87.1037 23.3053 87.1701 23.3219 87.2365 23.3385C87.3028 23.3551 87.3692 23.3717 87.4356 23.3883C87.502 23.4049 87.5684 23.4215 87.6348 23.4546C88.116 23.604 88.5807 23.7866 89.0288 24.0189C89.0786 24.0521 89.145 24.0687 89.1948 24.1019C89.2943 24.1517 89.3773 24.2015 89.4769 24.2512C89.5267 24.2844 89.5931 24.3176 89.6428 24.3508C89.9084 24.5002 90.1739 24.6661 90.4228 24.8487C90.4726 24.8819 90.539 24.9317 90.5888 24.9649C90.6552 25.0146 90.7216 25.0644 90.7879 25.1142C90.8543 25.164 90.9041 25.2138 90.9705 25.247C91.153 25.3963 91.3356 25.5457 91.5016 25.6951C91.5513 25.7449 91.6011 25.7946 91.6509 25.8444C91.7007 25.8942 91.7505 25.944 91.8169 26.0104C91.933 26.11 92.0326 26.2261 92.1322 26.3423C92.182 26.3921 92.2318 26.4585 92.2816 26.5083C92.3313 26.558 92.3811 26.6244 92.4309 26.6742C92.4807 26.724 92.5305 26.7904 92.5803 26.8568C92.6301 26.9066 92.6799 26.9729 92.713 27.0393C92.7628 27.1057 92.8126 27.1555 92.8458 27.2219C92.8956 27.2883 92.9288 27.338 92.9786 27.4044C93.0616 27.504 93.1279 27.6202 93.2109 27.7363C93.2441 27.7861 93.2773 27.8525 93.3105 27.9023C93.3437 27.9521 93.3769 28.0019 93.4101 28.0517C93.4765 28.1512 93.5262 28.2508 93.5926 28.3504C93.7088 28.5329 93.7918 28.7321 93.8913 28.9312C93.9743 29.0972 94.0573 29.2797 94.1237 29.4623C94.6879 30.7734 94.9701 32.2172 94.9369 33.7274Z" stroke="#B8C0CC"/>
<path d="M78.0093 28.9976C77.9429 29.761 77.3123 30.3419 76.5489 30.3419C76.4659 30.3419 76.3829 30.3419 76.3 30.3253L43.1085 24.467C42.3617 24.2844 41.8804 23.5542 42.0132 22.7908C42.146 22.0274 42.843 21.5129 43.6064 21.5959L76.7978 27.4376C77.5446 27.5538 78.0757 28.2342 78.0093 28.9976Z" stroke="#B8C0CC"/>
<path d="M70.9725 35.1877C70.9061 35.9511 70.2589 36.532 69.4955 36.532C69.4125 36.532 69.3295 36.5154 69.2465 36.4988L47.6057 32.6818C46.8257 32.5324 46.3113 31.769 46.4606 30.989C46.5934 30.209 47.3402 29.678 48.1202 29.7941L69.761 33.5946C70.5078 33.7439 71.0389 34.4243 70.9725 35.1877Z" stroke="#B8C0CC"/>
<path d="M59.6379 86.8837L39.3413 83.2991H39.3579L59.6379 86.8837Z" fill="#FA0000"/>
<path d="M86.8049 79.8967C86.7883 80.1622 86.7717 80.4278 86.7385 80.6933C86.7385 80.6933 86.7385 80.6933 86.7385 80.7099C86.7385 80.7099 86.7385 80.7099 86.7385 80.7265C86.7385 80.7265 86.7385 80.7265 86.7385 80.7431C86.7385 80.7929 86.7219 80.8427 86.7219 80.8925V80.909C86.3568 83.4814 85.0291 85.8214 82.9878 87.4478C81.7432 88.4435 80.2827 89.1405 78.7559 89.4724C77.4615 89.7546 76.1172 89.7877 74.7896 89.5554L64.7326 87.7797H64.716L59.6543 86.8835L39.3577 83.2988H39.3411L34.2131 82.4027L28.6037 81.4069C27.5914 81.2244 26.7948 80.5605 26.4131 79.6644C26.2305 79.2329 26.1475 78.7516 26.1973 78.2537C26.3301 76.7435 27.608 75.5818 29.1182 75.5818C29.2841 75.5818 29.4667 75.5984 29.6326 75.6316L34.2629 76.4448L75.6194 83.7303C77.727 84.1452 79.8181 83.0333 80.6479 81.0418C80.6976 80.909 80.7474 80.7763 80.7806 80.6435C80.7972 80.5771 80.8138 80.5107 80.8304 80.4444C80.847 80.3946 80.847 80.3448 80.8636 80.2784V80.2618C80.8636 80.2452 80.8636 80.2286 80.8802 80.212C80.8802 80.1788 80.8968 80.1456 80.8968 80.1125C80.8968 80.0959 80.8968 80.0793 80.8968 80.0793C80.8968 80.0461 80.9134 80.0129 80.9134 79.9797C80.9134 79.9299 80.93 79.8801 80.93 79.8469C80.93 79.7805 80.9466 79.7142 80.9466 79.6478C80.9466 79.598 80.9466 79.5316 80.9466 79.4818C80.9466 78.735 80.764 77.9716 80.3823 77.3078C79.7351 76.1627 78.6066 75.3495 77.3121 75.1171L75.8683 74.8682L51.9041 70.6529L34.3126 67.5495L31.1429 66.9852C29.6492 66.7197 28.6037 65.3589 28.7365 63.8487C28.7365 63.7657 28.7531 63.6661 28.7697 63.5831V63.5665C29.0186 62.1891 30.2135 61.1768 31.6407 61.1602C31.8067 61.1602 31.9892 61.1767 32.1552 61.2099L34.3624 61.5916L76.8806 69.0929L77.9925 69.2921C83.1538 70.1218 86.921 74.6525 86.8049 79.8967Z" stroke="#B8C0CC"/>
<path d="M80.9469 79.4819C80.9469 79.5483 80.9469 79.5981 80.9469 79.6645C80.9469 79.7309 80.9469 79.7972 80.9303 79.8636C80.9303 79.9134 80.9137 79.9632 80.9137 79.9964C80.9137 80.0296 80.9137 80.0628 80.8971 80.096C80.8971 80.1126 80.8971 80.1292 80.8971 80.1292C80.8971 80.1624 80.8805 80.1955 80.8805 80.2287C80.8805 80.2453 80.8805 80.2619 80.8639 80.2785V80.2951C80.8473 80.3449 80.8473 80.3947 80.8307 80.4611C80.8141 80.5275 80.7975 80.5938 80.7809 80.6602C80.7477 80.793 80.6979 80.9258 80.6481 81.0585C79.8183 83.0334 77.7273 84.1619 75.6196 83.747L34.2631 76.4615L29.6329 75.6483L31.1597 66.9854L34.3295 67.5496L51.921 70.653L75.8686 74.8517L77.3124 75.1007C78.6069 75.333 79.7354 76.1462 80.3826 77.2913C80.7643 77.9717 80.9469 78.7351 80.9469 79.4819Z" stroke="#B8C0CC"/>
</svg>
