<svg width="505" height="598" viewBox="0 0 505 598" fill="none" xmlns="http://www.w3.org/2000/svg">
<path fill-rule="evenodd" clip-rule="evenodd" d="M86.3037 349.853C114.749 327.28 134.148 357.486 130.006 387.147C126.192 415.281 93.0607 511.351 96.8752 552.244L85.6497 551.917C60.4744 498.92 49.9029 378.75 86.3037 349.853Z" fill="#EAEFF4"/>
<path fill-rule="evenodd" clip-rule="evenodd" d="M28.3239 432.074C0.641922 421.061 -4.91627 447.45 6.74506 468.605C14.5919 482.999 43.6907 519.966 62.981 551.262L86.4126 551.917C80.2005 505.245 56.9868 443.524 28.3239 432.074Z" fill="#EAEFF4"/>
<path d="M76.4951 551.699C76.4951 551.699 64.2889 504.809 14.483 439.817" stroke="#D1DAE5" stroke-width="1.8833" stroke-miterlimit="10" stroke-linecap="round" stroke-linejoin="round"/>
<path d="M91.5348 552.134C91.5348 552.134 67.1224 487.252 106.902 354.76" stroke="#D1DAE5" stroke-width="1.8833" stroke-miterlimit="10" stroke-linecap="round" stroke-linejoin="round"/>
<path fill-rule="evenodd" clip-rule="evenodd" d="M155.073 403.722C184.608 391.727 190.82 419.861 178.613 442.651C168.478 461.517 124.775 517.021 107.665 553.007L92.9517 552.571C93.6056 502.3 120.198 417.898 155.073 403.722Z" fill="#EAEFF4"/>
<path d="M169.895 412.01C169.895 412.01 112.46 484.526 99.4908 552.789" stroke="#D1DAE5" stroke-width="1.8833" stroke-miterlimit="10" stroke-linecap="round" stroke-linejoin="round"/>
<path d="M497.257 552.244H25.5726" stroke="#B8C0CC" stroke-width="1.8833" stroke-miterlimit="10" stroke-linecap="round" stroke-linejoin="round"/>
<path d="M230.507 576.779H404.773C418.287 576.779 429.295 565.766 429.295 552.244V190.536C429.295 177.014 418.287 166 404.773 166H230.507C216.993 166 205.986 177.014 205.986 190.536V552.244C205.986 565.875 216.993 576.779 230.507 576.779Z" fill="white" stroke="#B8C0CC" stroke-width="1.8833" stroke-miterlimit="10" stroke-linecap="round" stroke-linejoin="round"/>
<path d="M216.013 576.779H390.17C403.684 576.779 414.691 565.765 414.691 552.244V190.644C414.691 177.123 403.684 166.109 390.17 166.109H216.013C202.499 166.109 191.491 177.123 191.491 190.644V552.244C191.382 565.765 202.39 576.779 216.013 576.779Z" fill="#EAEFF4"/>
<path d="M217.865 564.239H386.573C395.51 564.239 402.812 557.042 402.812 547.991V193.916C402.812 184.974 395.619 177.668 386.573 177.668H217.756C208.819 177.668 201.517 184.865 201.517 193.916V548.1C201.626 557.042 208.928 564.239 217.865 564.239Z" fill="white"/>
<path d="M215.904 576.779H390.17C403.684 576.779 414.691 565.766 414.691 552.244V190.536C414.691 177.014 403.684 166 390.17 166H215.904C202.39 166 191.382 177.014 191.382 190.536V552.244C191.382 565.875 202.39 576.779 215.904 576.779Z" stroke="#B8C0CC" stroke-width="1.8833" stroke-miterlimit="10" stroke-linecap="round" stroke-linejoin="round"/>
<path d="M366.847 551.262C360.226 551.262 354.858 545.892 354.858 539.267C354.858 532.642 360.226 527.272 366.847 527.272C373.468 527.272 378.835 532.642 378.835 539.267C378.835 545.892 373.468 551.262 366.847 551.262Z" fill="#EAEFF4"/>
<path d="M302.219 551.262C295.598 551.262 290.231 545.892 290.231 539.267C290.231 532.642 295.598 527.272 302.219 527.272C308.84 527.272 314.207 532.642 314.207 539.267C314.207 545.892 308.84 551.262 302.219 551.262Z" fill="#EAEFF4"/>
<path d="M240.207 551.262C233.586 551.262 228.219 545.892 228.219 539.267C228.219 532.642 233.586 527.272 240.207 527.272C246.828 527.272 252.195 532.642 252.195 539.267C252.195 545.892 246.828 551.262 240.207 551.262Z" fill="#EAEFF4"/>
<path fill-rule="evenodd" clip-rule="evenodd" d="M196.177 520.293H365.212C377.745 520.293 387.881 510.152 387.881 497.611V246.586C387.881 234.045 377.745 223.904 365.212 223.904H218.846C206.313 223.904 196.177 234.045 196.177 246.586V520.293Z" fill="#EAEFF4"/>
<path d="M226.366 189.336H215.25" stroke="#B8C0CC" stroke-width="1.8833" stroke-miterlimit="10" stroke-linecap="round" stroke-linejoin="round"/>
<path d="M226.366 194.461H215.25" stroke="#B8C0CC" stroke-width="1.8833" stroke-miterlimit="10" stroke-linecap="round" stroke-linejoin="round"/>
<path d="M226.366 199.586H215.25" stroke="#B8C0CC" stroke-width="1.8833" stroke-miterlimit="10" stroke-linecap="round" stroke-linejoin="round"/>
<path d="M269.633 193.153H334.697C340.582 193.153 345.486 188.355 345.486 182.357V177.995C345.486 172.107 340.691 167.2 334.697 167.2H269.633C263.748 167.2 258.843 171.998 258.843 177.995V182.357C258.952 188.355 263.748 193.153 269.633 193.153Z" fill="#EAEFF4"/>
<path d="M370.335 199.913H382.977C386.028 199.913 388.535 197.405 388.535 194.352C388.535 191.299 386.028 188.791 382.977 188.791H370.335C367.283 188.791 364.776 191.299 364.776 194.352C364.776 197.405 367.283 199.913 370.335 199.913Z" fill="#EAEFF4"/>
<path fill-rule="evenodd" clip-rule="evenodd" d="M145.171 508.297H361.614C369.57 508.297 376 501.864 376 493.903V226.302C376 218.342 369.57 211.908 361.614 211.908H145.28C137.324 211.908 130.894 218.342 130.894 226.302V493.794C130.785 501.864 137.215 508.297 145.171 508.297Z" fill="white" stroke="#B8C0CC" stroke-width="1.8833" stroke-miterlimit="10" stroke-linecap="round" stroke-linejoin="round"/>
<path fill-rule="evenodd" clip-rule="evenodd" d="M145.064 508.297H361.507C369.463 508.297 375.893 501.864 375.893 493.903V226.302C375.893 218.342 369.463 211.908 361.507 211.908H145.173C137.217 211.908 130.787 218.342 130.787 226.302V493.794C130.678 501.864 137.108 508.297 145.064 508.297Z" stroke="#B8C0CC" stroke-width="1.8833" stroke-miterlimit="10" stroke-linecap="round" stroke-linejoin="round"/>
<circle cx="163" cy="244" r="12" fill="#EAEFF4"/>
<path d="M188.5 237H329.5M188.5 243.5H329.5M188.5 250H263" stroke="#D1DAE5" stroke-width="2" stroke-linecap="round"/>
<path d="M154 478H352M154 484.5H352M154 491H258.617" stroke="#D1DAE5" stroke-width="2" stroke-linecap="round"/>
<rect opacity="0.12" x="131" y="267" width="245" height="199" fill="#B8C0CC"/>
<rect x="131" y="267" width="245" height="199" stroke="#B8C0CC" stroke-width="2"/>
<rect x="192.5" y="406.5" width="19" height="29" fill="white" stroke="#B8C0CC"/>
<rect x="222.5" y="396.5" width="19" height="39" fill="white" stroke="#B8C0CC"/>
<rect x="252.5" y="376.5" width="19" height="59" fill="white" stroke="#B8C0CC"/>
<rect x="282.5" y="356.5" width="19" height="79" fill="white" stroke="#FA0000"/>
<path d="M346 436L161 436" stroke="#B8C0CC" stroke-width="2" stroke-linecap="round"/>
<path d="M171 307L171 446" stroke="#B8C0CC" stroke-width="2" stroke-linecap="round"/>
<circle cx="292" cy="346" r="4" fill="#FA0000"/>
<path d="M299.317 561.153C299.317 561.153 334.288 579.91 360.697 575.699" stroke="#B8C0CC" stroke-width="2" stroke-miterlimit="10" stroke-linecap="round" stroke-linejoin="round"/>
<ellipse rx="4" ry="3.9964" transform="matrix(-1 0 0 1 362.197 576.198)" fill="#B8C0CC"/>
<path d="M272.638 598C309.934 598 340.277 568.365 340.277 531.94C340.277 495.514 309.934 465.879 272.638 465.879C235.343 465.879 205 495.514 205 531.94V582.735C205 591.157 212.006 598 220.63 598H272.638Z" fill="white"/>
<path opacity="0.2" d="M270 467.877C273.295 467.879 276.745 467.856 280 468.377C254.127 467.763 218.966 487.865 218.966 532.206V587.228C218.972 589.621 219.916 591.913 221.589 593.606C223.263 595.299 225.632 596.753 228 596.762H218.5C215.5 596.762 212.5 594.763 210 592.266C208.325 590.573 207 587.77 207 583.274V532.202C207.049 515.29 213.719 499.084 225.553 487.125C237.388 475.166 256.5 467.877 270 467.877Z" fill="#B8C0CC"/>
<path d="M272.638 597C309.404 597 339.277 567.791 339.277 531.94C339.277 496.089 309.404 466.879 272.638 466.879C235.873 466.879 206 496.089 206 531.94V582.735C206 590.583 212.536 597 220.63 597H272.638Z" stroke="#B8C0CC" stroke-width="2"/>
<path d="M311.869 515.258C311.532 511.493 313.422 508.257 316.091 508.029C318.759 507.8 321.196 510.668 321.533 514.433C321.871 518.197 319.981 521.434 317.312 521.662C314.643 521.89 312.206 519.023 311.869 515.258Z" fill="#B8C0CC"/>
<path d="M280.453 553.257C280.453 553.257 244.882 551.678 257.278 578.523" stroke="#B8C0CC" stroke-width="2" stroke-miterlimit="10" stroke-linecap="round" stroke-linejoin="round"/>
<ellipse rx="4" ry="3.9964" transform="matrix(-1 0 0 1 258.197 581.193)" fill="#B8C0CC"/>
<path d="M489.028 598C497.651 598 504.658 591.157 504.658 582.735V531.94C504.658 495.514 474.315 465.879 437.019 465.879C399.724 465.879 369.381 495.514 369.381 531.94C369.381 568.365 399.724 598 437.019 598H489.028Z" fill="white"/>
<path opacity="0.2" d="M440 467.877C436.705 467.879 433.255 467.856 430 468.377C455.873 467.763 491.034 487.865 491.034 532.206V587.228C491.028 589.621 490.084 591.913 488.411 593.606C486.737 595.299 484.368 596.753 482 596.762H491.5C494.5 596.762 497.5 594.763 500 592.266C501.675 590.573 503 587.77 503 583.274V532.202C502.951 515.29 496.281 499.084 484.447 487.125C472.612 475.166 453.5 467.877 440 467.877Z" fill="#FA0000"/>
<path d="M489.028 597C497.121 597 503.658 590.583 503.658 582.735V531.94C503.658 496.089 473.785 466.879 437.019 466.879C400.254 466.879 370.381 496.089 370.381 531.94C370.381 567.791 400.254 597 437.019 597H489.028Z" stroke="#FA0000" stroke-width="2"/>
<path d="M424.893 531.888C427.48 531.888 429.689 529.993 429.905 527.572L431.845 506.569C431.953 505.359 431.576 504.148 430.767 503.2C429.905 502.2 428.665 501.569 427.264 501.463L394.55 498.779C394.388 498.779 394.226 498.779 394.118 498.779C391.532 498.779 389.322 500.674 389.106 503.095L387.166 524.045C387.058 525.256 387.435 526.466 388.244 527.414C389.106 528.414 390.346 529.046 391.747 529.151L424.462 531.835C424.569 531.888 424.731 531.888 424.893 531.888Z" fill="white"/>
<path d="M394.118 499.251C391.801 499.251 389.861 500.935 389.645 503.093L387.705 524.096C387.597 525.201 387.974 526.254 388.675 527.096C389.43 527.991 390.561 528.57 391.801 528.675L424.515 531.36C424.623 531.36 424.785 531.36 424.893 531.36C427.21 531.36 429.15 529.675 429.366 527.517L431.306 506.515C431.414 505.409 431.037 504.356 430.336 503.514C429.582 502.619 428.45 502.04 427.21 501.935L394.496 499.251C394.388 499.251 394.226 499.251 394.118 499.251ZM394.118 498.198C394.28 498.198 394.442 498.198 394.603 498.198L427.318 500.882C430.39 501.145 432.654 503.672 432.384 506.567L430.444 527.57C430.174 530.307 427.749 532.36 424.893 532.36C424.731 532.36 424.569 532.36 424.408 532.36L391.693 529.675C388.621 529.412 386.358 526.885 386.627 523.99L388.567 502.988C388.783 500.251 391.262 498.198 394.118 498.198Z" fill="#B8C0CC" stroke="#B8C0CC"/>
<path d="M399.89 523.224C397.221 522.995 395.394 519.054 395.808 514.42C396.223 509.786 398.722 506.215 401.391 506.443C404.059 506.672 405.887 510.613 405.472 515.247C405.058 519.881 402.558 523.452 399.89 523.224Z" fill="#B8C0CC"/>
<path d="M432.438 561.153C432.438 561.153 395.105 581.408 368.697 577.197" stroke="#FA0000" stroke-width="2" stroke-miterlimit="10" stroke-linecap="round" stroke-linejoin="round"/>
<ellipse rx="4" ry="3.9964" transform="matrix(-1 0 0 1 366.197 576.198)" fill="#FA0000"/>
<path d="M171.01 121.154C195.869 121.154 216.021 100.972 216.021 76.0768C216.021 51.1816 195.869 31 171.01 31C146.152 31 126 51.1816 126 76.0768C126 100.972 146.152 121.154 171.01 121.154Z" fill="white" stroke="#D1DAE5" stroke-width="1.8833" stroke-miterlimit="10" stroke-linecap="round" stroke-linejoin="round"/>
<path d="M187.467 76.5134C187.467 75.3128 187.358 74.2213 187.14 73.1299H171.337V79.6786H180.383C179.947 81.7523 178.748 83.6078 177.005 84.8084V88.9559H182.454C185.614 85.8998 187.467 81.6432 187.467 76.5134Z" fill="#4285F4"/>
<path d="M171.337 92.9944C175.915 92.9944 179.729 91.4664 182.454 88.9561L177.005 84.8086C175.261 85.9 173.299 86.4457 171.228 86.4457C169.158 86.4457 167.087 85.7909 165.343 84.4811C163.6 83.1714 162.401 81.4251 161.747 79.4604H156.189V83.8262C157.605 86.664 159.785 88.9561 162.401 90.5932C165.125 92.1213 168.177 92.9944 171.337 92.9944Z" fill="#34A853"/>
<path d="M161.856 79.3512C161.202 77.2775 161.202 74.9854 161.856 72.9117V68.5459H156.298C155.099 70.9471 154.445 73.4574 154.445 76.0769C154.445 78.6964 155.099 81.3159 156.298 83.6079L161.856 79.3512Z" fill="#FBBC04"/>
<path d="M171.338 65.9264C172.537 65.9264 173.735 66.1447 174.825 66.5813C175.915 67.0178 176.896 67.6727 177.768 68.5459L182.563 63.7435C179.512 60.9057 175.479 59.2685 171.338 59.3777C168.177 59.3777 165.126 60.2509 162.51 61.888C159.894 63.5252 157.715 65.9264 156.298 68.655L161.856 73.0208C162.51 70.9471 163.709 69.2007 165.453 67.891C167.087 66.5813 169.158 65.9264 171.338 65.9264Z" fill="#EA4335"/>
<path d="M296.011 91.1537C320.869 91.1537 341.021 70.9721 341.021 46.0768C341.021 21.1816 320.869 1 296.011 1C271.152 1 251 21.1816 251 46.0768C251 70.9721 271.152 91.1537 296.011 91.1537Z" fill="white" stroke="#D1DAE5" stroke-width="1.8833" stroke-miterlimit="10" stroke-linecap="round" stroke-linejoin="round"/>
<path d="M292.85 55.7903L288.491 60.1561C287.619 61.0292 286.42 61.4658 285.221 61.4658C284.022 61.4658 282.823 60.9201 281.952 60.1561C281.08 59.2829 280.644 58.0823 280.644 56.8817C280.644 55.6811 281.08 54.4805 281.952 53.6074L290.561 44.9849C291.433 44.1118 292.632 43.6752 293.831 43.6752C295.03 43.6752 296.228 44.1118 297.1 44.9849C297.427 45.3124 297.754 45.4215 298.19 45.4215C298.626 45.4215 298.953 45.3124 299.28 44.9849C299.607 44.6575 299.716 44.3301 299.716 43.8935C299.716 43.4569 299.607 43.1295 299.28 42.802C298.626 42.038 297.754 41.4923 296.773 41.1649C295.793 40.7283 294.812 40.6191 293.831 40.6191C292.85 40.6191 291.869 40.8374 290.888 41.1649C289.907 41.6014 289.144 42.1472 288.382 42.802L279.772 51.4245C278.355 52.8434 277.483 54.808 277.483 56.8817C277.483 58.9555 278.246 60.811 279.772 62.339C281.189 63.7579 283.15 64.631 285.221 64.631C287.292 64.631 289.144 63.867 290.67 62.339L295.03 57.9732C295.357 57.6458 295.466 57.3183 295.466 56.8817C295.466 56.4452 295.357 56.1177 295.03 55.7903C294.921 55.6811 294.703 55.572 294.485 55.4629C294.267 55.3537 294.049 55.3537 293.94 55.3537C293.722 55.3537 293.504 55.4629 293.395 55.4629C293.177 55.4629 293.068 55.572 292.85 55.7903Z" fill="#1ABC94"/>
<path d="M312.249 29.9231C311.595 29.1591 310.723 28.6134 309.743 28.286C308.762 27.8494 307.781 27.7402 306.8 27.7402C305.819 27.7402 304.838 27.9585 303.857 28.286C302.877 28.7225 302.114 29.2683 301.351 29.9231L296.12 35.1621C296.011 35.2712 295.902 35.4895 295.793 35.7078C295.684 35.9261 295.684 36.1444 295.684 36.2535C295.684 36.4718 295.684 36.6901 295.793 36.7993C295.902 37.0175 296.011 37.1267 296.12 37.345C296.228 37.4541 296.446 37.5633 296.664 37.6724C296.882 37.7816 297.1 37.7816 297.209 37.7816C297.318 37.7816 297.645 37.7816 297.754 37.6724C297.972 37.5633 298.081 37.4541 298.299 37.345L303.53 32.106C304.402 31.2329 305.601 30.7963 306.8 30.7963C307.999 30.7963 309.198 31.342 310.069 32.106C310.941 32.9792 311.377 34.1798 311.377 35.3804C311.377 36.581 310.941 37.7816 310.069 38.6547L300.37 48.1503C299.498 49.0235 298.299 49.4601 297.1 49.4601C295.902 49.4601 294.703 49.0235 293.831 48.1503C293.504 47.8229 293.177 47.7137 292.741 47.7137C292.305 47.7137 291.978 47.8229 291.651 48.1503C291.324 48.4778 291.215 48.8052 291.215 49.2418C291.215 49.6784 291.324 50.0058 291.651 50.3332C292.305 51.0972 293.177 51.643 294.158 51.9704C295.139 52.407 296.12 52.5161 297.1 52.5161C298.081 52.5161 299.062 52.2978 300.043 51.9704C301.024 51.5338 301.787 50.9881 302.55 50.3332L312.14 40.7285C312.903 40.0736 313.448 39.2004 313.775 38.2181C314.211 37.345 314.32 36.2535 314.429 35.2712C314.429 34.2889 314.211 33.3066 313.884 32.3243C313.448 31.4512 312.903 30.6871 312.249 29.9231Z" fill="#1ABC94"/>
<path d="M46.0105 191.154C70.8692 191.154 91.0211 170.972 91.0211 146.077C91.0211 121.182 70.8692 101 46.0105 101C21.1519 101 1 121.182 1 146.077C1 170.972 21.1519 191.154 46.0105 191.154Z" fill="white" stroke="#D1DAE5" stroke-width="1.8833" stroke-miterlimit="10" stroke-linecap="round" stroke-linejoin="round"/>
<path d="M51.1328 132.324H56.2551C56.3641 132.324 56.473 132.324 56.582 132.215C56.691 132.215 56.8 132.106 56.909 131.997C57.018 131.888 57.018 131.779 57.127 131.67C57.127 131.56 57.2359 131.451 57.2359 131.342V126.212C57.2359 126.103 57.2359 125.994 57.127 125.885C57.127 125.776 57.018 125.667 56.909 125.557C56.8 125.448 56.691 125.448 56.582 125.339C56.473 125.339 56.3641 125.23 56.2551 125.23H51.1328C48.6262 125.23 46.2285 126.212 44.4848 127.959C42.741 129.705 41.7602 132.106 41.7602 134.616V140.619H35.766C35.6571 140.619 35.5481 140.619 35.4391 140.729C35.3301 140.729 35.2211 140.838 35.1121 140.947C35.0031 141.056 35.0031 141.165 34.8941 141.274C34.8941 141.383 34.7852 141.493 34.7852 141.602V146.732C34.7852 146.841 34.7852 146.95 34.8941 147.059C34.8941 147.168 35.0031 147.277 35.1121 147.386C35.2211 147.496 35.3301 147.496 35.4391 147.605C35.5481 147.605 35.6571 147.714 35.766 147.714H41.7602V165.832C41.7602 165.941 41.7602 166.05 41.8691 166.159C41.9781 166.268 41.9781 166.378 42.0871 166.487C42.1961 166.596 42.3051 166.596 42.4141 166.705C42.523 166.705 42.6321 166.814 42.741 166.814H47.8633C47.9723 166.814 48.0813 166.814 48.1903 166.705C48.2992 166.705 48.4082 166.596 48.5172 166.487C48.6262 166.378 48.6262 166.268 48.7352 166.159C48.7352 166.05 48.8442 165.941 48.8442 165.832V147.714H54.8383C55.0563 147.714 55.1653 147.714 55.3832 147.605C55.4922 147.496 55.6012 147.386 55.7102 147.168L57.4539 142.038C57.4539 141.929 57.5629 141.82 57.5629 141.711C57.5629 141.602 57.5629 141.493 57.4539 141.383C57.3449 141.274 57.3449 141.165 57.2359 141.165C57.127 141.056 57.018 141.056 56.909 141.056H48.8442V135.053C48.8442 134.398 49.1711 133.743 49.607 133.198C49.716 132.543 50.3699 132.324 51.1328 132.324Z" fill="#2196F3"/>
<path d="M421.011 91.1537C445.869 91.1537 466.021 70.9721 466.021 46.0768C466.021 21.1816 445.869 1 421.011 1C396.152 1 376 21.1816 376 46.0768C376 70.9721 396.152 91.1537 421.011 91.1537Z" fill="white" stroke="#D1DAE5" stroke-width="1.8833" stroke-miterlimit="10" stroke-linecap="round" stroke-linejoin="round"/>
<path d="M438.448 38.7638C438.448 37.3449 438.121 35.8169 437.576 34.5071C437.14 33.3065 436.486 32.2151 435.505 31.3419C434.634 30.4688 433.544 29.7048 432.345 29.2682C430.928 28.7225 429.511 28.5042 428.094 28.5042C426.242 28.395 425.588 28.395 420.793 28.395C415.997 28.395 415.452 28.395 413.491 28.5042C412.074 28.5042 410.548 28.8316 409.24 29.3773C408.041 29.8139 406.952 30.4688 406.08 31.4511C405.208 32.3242 404.445 33.4157 404.009 34.6163C403.464 36.0352 403.246 37.4541 403.246 38.8729C403.137 40.7284 403.137 41.3833 403.137 46.1856C403.137 50.988 403.137 51.5337 403.246 53.4983C403.246 54.9172 403.573 56.4453 404.118 57.755C404.554 58.9556 405.208 60.047 406.189 60.9202C407.061 61.7934 408.15 62.5574 409.349 62.994C410.766 63.5397 412.183 63.758 413.6 63.8671C415.452 63.9763 416.106 63.9763 420.902 63.9763C425.697 63.9763 426.242 63.9763 428.203 63.8671C429.62 63.8671 431.146 63.5397 432.454 62.994C433.653 62.5574 434.634 61.9025 435.614 60.9202C436.595 59.9379 437.14 58.9556 437.685 57.755C438.23 56.3361 438.448 54.9172 438.557 53.4983C438.666 51.6429 438.666 50.988 438.666 46.1856C438.666 41.3833 438.557 40.7284 438.448 38.7638ZM435.287 53.1709C435.287 54.2624 435.069 55.3538 434.634 56.4453C434.307 57.2093 433.871 57.8641 433.326 58.519C432.781 59.0647 432.018 59.5013 431.255 59.8288C430.165 60.2653 429.075 60.3745 427.986 60.4836C426.133 60.5928 425.588 60.5928 420.902 60.5928C416.215 60.5928 415.67 60.5928 413.818 60.4836C412.728 60.4836 411.638 60.2653 410.548 59.8288C409.785 59.5013 409.131 59.0647 408.477 58.519C407.932 57.9733 407.496 57.2093 407.17 56.4453C406.734 55.3538 406.625 54.2624 406.516 53.1709C406.407 51.3155 406.407 50.7697 406.407 46.0765C406.407 41.3833 406.407 40.8375 406.516 38.9821C406.516 37.8906 406.734 36.7992 407.17 35.7077C407.496 34.9437 407.932 34.2888 408.477 33.634C409.022 33.0883 409.785 32.6517 410.548 32.3242C411.638 31.8877 412.728 31.7785 413.818 31.6694C415.67 31.5602 416.215 31.5602 420.902 31.5602C425.588 31.5602 426.133 31.5602 427.986 31.6694C429.075 31.6694 430.165 31.8877 431.255 32.3242C432.018 32.6517 432.672 33.0883 433.326 33.634C433.871 34.1797 434.307 34.9437 434.634 35.7077C435.069 36.7992 435.178 37.8906 435.287 38.9821C435.396 40.8375 435.396 41.3833 435.396 46.0765C435.396 50.7697 435.396 51.3155 435.287 53.1709Z" fill="url(#paint0_linear)"/>
<path d="M421.011 37.0176C419.267 37.0176 417.523 37.5633 415.997 38.5456C414.471 39.5279 413.382 40.9468 412.619 42.584C411.965 44.2211 411.747 46.0766 412.074 47.8229C412.401 49.5693 413.273 51.2064 414.58 52.407C415.888 53.7168 417.414 54.5899 419.158 54.9174C420.902 55.2448 422.754 55.1356 424.389 54.3716C426.024 53.7168 427.441 52.5162 428.421 50.9881C429.402 49.4601 429.947 47.7138 429.947 45.9675C429.947 43.5663 428.966 41.2742 427.332 39.5279C425.697 37.9999 423.408 37.0176 421.011 37.0176ZM421.011 51.9704C419.812 51.9704 418.722 51.643 417.741 50.9881C416.76 50.3333 415.997 49.4601 415.561 48.3687C415.125 47.2772 415.016 46.0766 415.234 44.9852C415.452 43.8937 415.997 42.8023 416.869 41.9291C417.741 41.0559 418.722 40.5102 419.921 40.2919C421.011 40.0736 422.209 40.1828 423.299 40.6194C424.389 41.0559 425.261 41.82 425.915 42.8023C426.569 43.7846 426.896 44.876 426.896 46.0766C426.896 46.8406 426.787 47.6046 426.46 48.3687C426.133 49.1327 425.697 49.6784 425.152 50.2241C424.607 50.7698 423.953 51.2064 423.299 51.5339C422.536 51.7522 421.773 51.9704 421.011 51.9704Z" fill="url(#paint1_linear)"/>
<path d="M432.455 36.6901C432.455 37.1266 432.346 37.5631 432.128 37.8905C431.91 38.2179 431.583 38.5453 431.147 38.6544C430.711 38.7635 430.384 38.8727 429.948 38.7635C429.512 38.6544 429.185 38.4362 428.858 38.2179C428.531 37.8905 428.312 37.5631 428.312 37.1266C428.312 36.6901 428.312 36.2536 428.422 35.9262C428.531 35.4897 428.858 35.1623 429.185 34.9441C429.512 34.7258 429.948 34.6167 430.384 34.6167C430.929 34.6167 431.474 34.835 431.91 35.2715C432.237 35.5988 432.455 36.1445 432.455 36.6901Z" fill="url(#paint2_linear)"/>
<defs>
<linearGradient id="paint0_linear" x1="406.307" y1="60.7342" x2="435.651" y2="31.434" gradientUnits="userSpaceOnUse">
<stop stop-color="#FFD600"/>
<stop offset="0.5" stop-color="#FF0100"/>
<stop offset="1" stop-color="#D800B9"/>
</linearGradient>
<linearGradient id="paint1_linear" x1="414.563" y1="52.4653" x2="427.383" y2="39.6645" gradientUnits="userSpaceOnUse">
<stop stop-color="#FF6400"/>
<stop offset="0.5" stop-color="#FF0100"/>
<stop offset="1" stop-color="#FD0056"/>
</linearGradient>
<linearGradient id="paint2_linear" x1="428.863" y1="38.1483" x2="431.858" y2="35.156" gradientUnits="userSpaceOnUse">
<stop stop-color="#F30072"/>
<stop offset="1" stop-color="#E50097"/>
</linearGradient>
</defs>
</svg>
