<svg width="543" height="354" viewBox="0 0 543 354" fill="none" xmlns="http://www.w3.org/2000/svg">
<path opacity="0.12" d="M72.7812 331.181C72.7812 331.181 14.5751 299.234 14.5751 196.407C14.5751 139.126 78.8443 93.4879 131.174 106.248C180.052 118.17 211.767 118.17 251.504 100.473C291.334 82.6836 316.986 34.1578 362.413 34.1578C416.328 34.1578 421.645 75.0462 454.013 102.988C483.396 128.415 509.048 144.435 509.048 216.991C509.048 270.826 497.108 309.479 430.32 330.994" fill="#B8C0CC"/>
<mask id="mask0" mask-type="alpha" maskUnits="userSpaceOnUse" x="0" y="34" width="510" height="298">
<path d="M72.7812 331.181C72.7812 331.181 14.5751 299.234 14.5751 196.407C14.5751 167.667 1.02062 130.966 0.500021 109.5C-0.0169694 88.1825 12.4999 82 12.4999 82C61.3781 93.9219 211.767 118.17 251.504 100.473C291.334 82.6836 316.986 34.1578 362.413 34.1578C416.328 34.1578 421.645 75.0462 454.013 102.988C483.396 128.415 509.048 144.435 509.048 216.991C509.048 270.826 497.108 309.479 430.32 330.994" fill="#B8C0CC"/>
</mask>
<g mask="url(#mask0)">
<path opacity="0.6" d="M116.529 182.436C118.115 174.985 125.297 167.441 132.666 165.392C131.081 172.843 123.898 180.48 116.529 182.436Z" fill="#B8C0CC"/>
<path d="M119.11 168.575L109.784 168.76L113.013 331.257L122.339 331.072L119.11 168.575Z" fill="#E1E5EA"/>
<path opacity="0.6" d="M121.265 277.44L111.939 277.625L111.98 279.674L121.306 279.489L121.265 277.44Z" fill="#B8C0CC"/>
<path opacity="0.6" d="M119.952 210.286L110.626 210.471L110.68 213.171L120.006 212.987L119.952 210.286Z" fill="#B8C0CC"/>
<path opacity="0.6" d="M69.7963 191.192C77.1653 192.868 84.7209 200.226 86.5865 207.584C79.1242 205.815 71.6618 198.55 69.7963 191.192Z" fill="#B8C0CC"/>
<path d="M90.3176 331.46L80.9897 331.181L84.3478 151.328L93.6757 151.514L90.3176 331.46Z" fill="#E1E5EA"/>
<path opacity="0.6" d="M91.3727 277.736L82.0476 277.512L81.9847 280.119L91.3098 280.343L91.3727 277.736Z" fill="#B8C0CC"/>
<path opacity="0.6" d="M92.585 210.582L83.2598 210.358L83.1992 212.872L92.5243 213.096L92.585 210.582Z" fill="#B8C0CC"/>
<path opacity="0.6" d="M71.7551 142.945C70.2627 150.396 63.0802 158.034 55.8044 160.083C57.2969 152.632 64.3861 144.901 71.7551 142.945Z" fill="#B8C0CC"/>
<path opacity="0.6" d="M17.9331 125.342C10.4708 123.851 2.82188 116.68 0.769743 109.415C8.23207 110.905 15.881 117.984 17.9331 125.342Z" fill="#B8C0CC"/>
<path d="M59.5356 331.181H50.2077L49.0883 116.587H58.4162L59.5356 331.181Z" fill="#E1E5EA"/>
<path d="M29.0333 331.088L19.7054 331.274L14.8549 91.4388L24.1828 91.2525L29.0333 331.088Z" fill="#E1E5EA"/>
<path opacity="0.6" d="M59.2557 277.532H49.9278V280.14H59.2557V277.532Z" fill="#B8C0CC"/>
<path opacity="0.6" d="M28.1005 277.532H18.7726V280.14H28.1005V277.532Z" fill="#B8C0CC"/>
<path opacity="0.6" d="M58.8826 212.148H49.5547V214.663H58.8826V212.148Z" fill="#B8C0CC"/>
<path opacity="0.6" d="M17.5338 223.041H26.8617V220.526H17.5338V223.041Z" fill="#B8C0CC"/>
<path opacity="0.6" d="M58.8826 162.784H49.5547V165.299H58.8826V162.784Z" fill="#B8C0CC"/>
<path opacity="0.6" d="M25.8618 167.627H16.5339V170.142H25.8618V167.627Z" fill="#B8C0CC"/>
<path opacity="0.6" d="M24.929 127.204H15.6011V129.719H24.929V127.204Z" fill="#B8C0CC"/>
<path d="M394.407 331.181H68.0239C68.0239 328.014 70.6358 325.406 73.8072 325.406H388.717C391.889 325.499 394.407 328.107 394.407 331.181Z" fill="#B8C0CC"/>
</g>
<path d="M159.344 238.041H108.041C102.444 238.041 97.8733 233.477 97.8733 227.889C97.8733 222.3 102.444 217.736 108.041 217.736H159.344" fill="#F1F2F5"/>
<path d="M159.344 238.041H108.041C102.444 238.041 97.8733 233.477 97.8733 227.889C97.8733 222.3 102.444 217.736 108.041 217.736H159.344" stroke="#B8C0CC" stroke-width="2" stroke-miterlimit="10" stroke-linecap="round" stroke-linejoin="round"/>
<path d="M269.413 328.759H221.561C216.151 328.759 211.674 324.288 211.674 318.886V318.327C211.674 312.925 216.151 308.455 221.561 308.455H269.413C274.824 308.455 279.301 312.925 279.301 318.327V318.886C279.301 324.382 274.824 328.759 269.413 328.759Z" fill="#F1F2F5" stroke="#B8C0CC" stroke-width="2" stroke-miterlimit="10" stroke-linecap="round" stroke-linejoin="round"/>
<path d="M241.523 328.759H193.671C188.261 328.759 183.783 324.288 183.783 318.886V318.327C183.783 312.925 188.261 308.455 193.671 308.455H241.523C246.933 308.455 251.411 312.925 251.411 318.327V318.886C251.411 324.382 246.933 328.759 241.523 328.759Z" fill="#F1F2F5" stroke="#B8C0CC" stroke-width="2" stroke-miterlimit="10" stroke-linecap="round" stroke-linejoin="round"/>
<path d="M268.854 329.039C274.624 329.039 279.301 324.368 279.301 318.607C279.301 312.846 274.624 308.175 268.854 308.175C263.084 308.175 258.407 312.846 258.407 318.607C258.407 324.368 263.084 329.039 268.854 329.039Z" fill="white" stroke="#B8C0CC" stroke-width="1.8833" stroke-miterlimit="10" stroke-linecap="round" stroke-linejoin="round"/>
<path d="M240.963 329.039C246.733 329.039 251.411 324.368 251.411 318.607C251.411 312.846 246.733 308.175 240.963 308.175C235.193 308.175 230.516 312.846 230.516 318.607C230.516 324.368 235.193 329.039 240.963 329.039Z" fill="white" stroke="#B8C0CC" stroke-width="1.8833" stroke-miterlimit="10" stroke-linecap="round" stroke-linejoin="round"/>
<path d="M239.844 326.71C241.43 326.71 242.922 326.244 244.042 324.847C247.773 320.097 246.933 314.416 243.015 313.857C239.657 313.391 236.859 315.161 237.139 318.421C237.419 321.68 241.71 323.823 242.363 318.7" stroke="#DAE1E5" stroke-width="2" stroke-miterlimit="10" stroke-linecap="round"/>
<path d="M266.895 326.71C268.481 326.71 269.973 326.244 271.092 324.847C274.824 320.097 273.984 314.416 270.066 313.857C266.708 313.391 263.91 315.161 264.19 318.421C264.47 321.68 268.761 323.823 269.413 318.7" stroke="#DAE1E5" stroke-width="2" stroke-miterlimit="10" stroke-linecap="round"/>
<path d="M344.317 261.605L347.488 326.989L309.897 326.71L308.684 261.605" fill="#F1F2F5"/>
<path d="M344.317 261.605L347.488 326.989L309.897 326.71L308.684 261.605" stroke="#B8C0CC" stroke-width="2" stroke-miterlimit="10" stroke-linecap="round" stroke-linejoin="round"/>
<path d="M110.186 261.792L106.175 326.896H146.938L145.819 261.792" fill="#F1F2F5"/>
<path d="M110.186 261.792L106.175 326.896H146.938L145.819 261.792" stroke="#B8C0CC" stroke-width="2" stroke-miterlimit="10" stroke-linecap="round" stroke-linejoin="round"/>
<path d="M380.789 252.384H80.8032V245.026C80.8032 241.208 83.9747 238.041 87.7991 238.041H373.886C377.711 238.041 380.882 241.208 380.882 245.026V252.384H380.789Z" fill="white" stroke="#B8C0CC" stroke-width="1.8833" stroke-miterlimit="10" stroke-linecap="round" stroke-linejoin="round"/>
<path d="M382.654 261.792H79.8704C75.9527 261.792 72.6879 258.625 72.6879 254.62C72.6879 250.708 75.8594 247.448 79.8704 247.448H382.654C386.572 247.448 389.837 250.615 389.837 254.62C389.837 258.625 386.572 261.792 382.654 261.792Z" fill="white" stroke="#B8C0CC" stroke-width="1.8833" stroke-miterlimit="10" stroke-linecap="round" stroke-linejoin="round"/>
<path d="M138.45 247.821V261.605" stroke="#B8C0CC" stroke-width="1.8833" stroke-miterlimit="10" stroke-linecap="round" stroke-linejoin="round"/>
<path d="M143.953 247.634C143.953 247.634 143.86 240.183 150.11 238.134L143.953 247.634Z" fill="white"/>
<path d="M143.953 247.634C143.953 247.634 143.86 240.183 150.11 238.134" stroke="#B8C0CC" stroke-width="1.8833" stroke-miterlimit="10" stroke-linecap="round" stroke-linejoin="round"/>
<path d="M160.277 238.041C165.892 238.041 170.444 233.496 170.444 227.889C170.444 222.282 165.892 217.736 160.277 217.736C154.662 217.736 150.11 222.282 150.11 227.889C150.11 233.496 154.662 238.041 160.277 238.041Z" fill="white" stroke="#B8C0CC" stroke-width="1.8833" stroke-miterlimit="10" stroke-linecap="round" stroke-linejoin="round"/>
<path d="M184.809 262.071C184.809 262.071 197.215 279.302 206.45 279.302C215.778 279.302 261.578 261.978 261.578 261.978L184.809 262.071Z" fill="#F1F2F5" stroke="#B8C0CC" stroke-width="2" stroke-miterlimit="10" stroke-linecap="round" stroke-linejoin="round"/>
<path d="M190.126 238.041C190.126 238.041 192.458 234.222 196.842 234.222C201.506 234.222 326.22 233.756 342.264 235.433C342.264 235.433 306.539 281.817 295.625 281.817C284.711 281.817 255.235 238.041 255.235 238.041H190.126Z" fill="#F1F2F5" stroke="#B8C0CC" stroke-width="2" stroke-miterlimit="10" stroke-linecap="round" stroke-linejoin="round"/>
<path d="M121.473 279.581L119.234 310.224" stroke="#DAE1E5" stroke-width="2" stroke-miterlimit="10" stroke-linecap="round"/>
<path d="M534.046 282.375V256.948C534.046 223.232 506.436 195.662 472.669 195.662C439.088 195.662 411.664 223.045 411.664 256.576C411.664 266.262 413.903 275.39 418.007 283.586L468.471 296.253L534.046 282.375Z" fill="white"/>
<path d="M534.326 256.576C534.326 223.139 506.902 195.755 473.415 195.755C470.15 195.755 466.979 196.035 463.9 196.501C488.806 195.942 522.76 214.29 522.76 256.576V268.032" fill="#EAEFF4"/>
<path d="M416.888 281.258C413.53 273.713 411.664 265.331 411.664 256.483C411.664 222.952 439.088 195.569 472.669 195.569C506.436 195.569 534.046 220.437 534.046 254.154" stroke="#B8C0CC" stroke-width="1.8833" stroke-miterlimit="10" stroke-linecap="round" stroke-linejoin="round"/>
<path d="M409.146 267.007L410.172 337.794L532.367 354L536.192 267.194C536.192 267.194 500.652 298.209 475.28 298.209" fill="white"/>
<path d="M472.669 297.278C472.669 297.278 429.947 290.851 409.425 271.944L409.705 267.101C409.705 267.194 425.096 284.611 472.669 297.278Z" fill="#EAEFF4"/>
<path d="M409.146 267.007C409.146 267.007 410.172 332.95 410.172 337.794C410.172 342.637 423.137 349.064 443.379 349.064" stroke="#B8C0CC" stroke-width="1.8833" stroke-miterlimit="10" stroke-linecap="round" stroke-linejoin="round"/>
<path d="M474.627 297.185C421.552 282.655 404.668 264.679 404.668 256.855C404.668 249.125 412.037 249.777 412.037 249.777L411.944 254.806C411.944 264.865 441.14 282.934 481.157 293.273" fill="white"/>
<path d="M474.627 297.185C421.552 282.655 404.668 264.679 404.668 256.855C404.668 249.125 412.037 249.777 412.037 249.777L411.944 254.806C411.944 264.865 441.14 282.934 481.157 293.273" stroke="#B8C0CC" stroke-width="1.8833" stroke-miterlimit="10" stroke-linecap="round" stroke-linejoin="round"/>
<path d="M444.218 325.872C447.856 306.406 541.509 278.37 541.509 256.576C541.509 247.914 533.766 248.938 533.766 248.938L534.233 253.502C534.233 268.591 470.803 297.93 458.677 306.126C441.7 317.675 440.207 337.142 443.752 351.299C518.748 351.299 534.233 344.965 534.233 335.838C534.233 326.71 536.098 266.542 536.098 266.542" stroke="#B8C0CC" stroke-width="1.8833" stroke-miterlimit="10" stroke-linecap="round" stroke-linejoin="round"/>
<path d="M440.86 235.992C440.86 238.6 443.006 240.742 445.618 240.742C448.23 240.742 450.375 238.6 450.375 235.992" stroke="#B8C0CC" stroke-width="1.8833" stroke-miterlimit="10" stroke-linecap="round" stroke-linejoin="round"/>
<path d="M468.938 235.992C468.938 238.6 471.083 240.742 473.695 240.742C476.307 240.742 478.452 238.6 478.452 235.992" stroke="#B8C0CC" stroke-width="1.8833" stroke-miterlimit="10" stroke-linecap="round" stroke-linejoin="round"/>
<path d="M455.039 252.291C455.039 254.899 457.184 257.041 459.796 257.041C462.408 257.041 464.553 254.899 464.553 252.291" stroke="#B8C0CC" stroke-width="1.8833" stroke-miterlimit="10" stroke-linecap="round" stroke-linejoin="round"/>
<path d="M517.259 320.235C517.312 317.817 515.392 315.815 512.971 315.763C510.55 315.71 508.545 317.627 508.492 320.044C508.44 322.462 510.36 324.464 512.78 324.516C515.201 324.569 517.206 322.652 517.259 320.235Z" fill="#B8C0CC"/>
<path d="M514.737 290.572C514.737 290.572 516.043 302.866 513.338 320.19" stroke="#B8C0CC" stroke-width="1.8833" stroke-miterlimit="10" stroke-linecap="round" stroke-linejoin="round"/>
<path d="M229.364 136.891C250.795 136.891 268.168 119.544 268.168 98.1449C268.168 76.7459 250.795 59.3987 229.364 59.3987C207.933 59.3987 190.56 76.7459 190.56 98.1449C190.56 119.544 207.933 136.891 229.364 136.891Z" fill="url(#paint0_radial)"/>
<path d="M195.597 78.7718C195.597 75.0462 210.708 71.1343 229.27 71.1343C247.833 71.1343 262.944 75.0462 262.944 78.7718" stroke="#FF9863" stroke-miterlimit="10"/>
<path d="M190 96.2821C190 91.7182 207.723 88.0858 229.55 88.0858C251.378 88.0858 269.101 91.8113 269.101 96.2821" stroke="#FF9863" stroke-miterlimit="10"/>
<path d="M194.198 115.562C194.198 111.557 210.055 108.297 229.55 108.297C249.046 108.297 264.903 111.557 264.903 115.562" stroke="#FF9863" stroke-miterlimit="10"/>
<path d="M208.749 131.116C208.749 129.812 218.077 128.415 229.55 128.415C241.024 128.415 250.352 129.719 250.352 131.116" stroke="#FF9863" stroke-miterlimit="10"/>
<path d="M229.364 59.3055V1" stroke="#B8C0CC" stroke-miterlimit="10" stroke-linecap="round" stroke-linejoin="round"/>
<path d="M332.126 143.398V151.129" stroke="#B8C0CC" stroke-width="1.8833" stroke-miterlimit="10" stroke-linecap="round" stroke-linejoin="round"/>
<path d="M394.157 143.398V151.129" stroke="#B8C0CC" stroke-width="1.8833" stroke-miterlimit="10" stroke-linecap="round" stroke-linejoin="round"/>
<path d="M358.151 118.25V141.815H375.315V115.456L358.151 118.25Z" fill="white" stroke="#B8C0CC" stroke-width="1.8833" stroke-miterlimit="10" stroke-linecap="round" stroke-linejoin="round"/>
<path d="M366.733 116.853V113.407" stroke="#B8C0CC" stroke-width="1.8833" stroke-miterlimit="10" stroke-linecap="round" stroke-linejoin="round"/>
<path d="M369.998 110.147C369.998 108.378 367.199 104 366.733 104C366.173 104 363.468 108.284 363.468 110.147C363.468 111.917 364.961 113.407 366.733 113.407C368.505 113.407 369.998 112.01 369.998 110.147Z" stroke="#B8C0CC" stroke-width="1.8833" stroke-miterlimit="10" stroke-linecap="round" stroke-linejoin="round"/>
<path d="M362.069 122.442V127.471" stroke="#B8C0CC" stroke-width="1.8833" stroke-miterlimit="10" stroke-linecap="round" stroke-linejoin="round"/>
<path d="M328.675 141.815C328.675 141.815 327.089 140.231 328.675 137.158C330.074 134.457 333.432 132.501 336.417 132.315C338.469 132.221 342.387 132.408 346.118 135.761C348.916 138.275 348.916 139.021 348.543 140.231C348.264 141.163 347.144 141.815 346.305 141.815C346.118 141.815 328.675 141.815 328.675 141.815Z" fill="#F1F2F5" stroke="#B8C0CC" stroke-width="2" stroke-miterlimit="10" stroke-linecap="round" stroke-linejoin="round"/>
<path d="M340.988 130.917C340.988 130.917 339.029 128.216 339.775 126.912C340.521 125.608 345.465 123.187 352.834 127.751C360.203 132.221 361.416 138.834 360.67 140.697C360.11 142.094 356.286 141.442 352.928 139.859C349.756 138.369 343.32 134.177 340.988 130.917Z" fill="#F1F2F5" stroke="#B8C0CC" stroke-width="2" stroke-miterlimit="10" stroke-linecap="round" stroke-linejoin="round"/>
<path d="M403.112 145.354H321.959C320.84 145.354 320 144.516 320 143.398C320 142.28 320.84 141.442 321.959 141.442H403.112C404.231 141.442 405.071 142.28 405.071 143.398C404.977 144.516 404.138 145.354 403.112 145.354Z" fill="white" stroke="#B8C0CC" stroke-width="1.8833" stroke-miterlimit="10" stroke-linecap="round" stroke-linejoin="round"/>
<path d="M396.396 124.956H385.668V141.442H396.396V124.956Z" fill="#F1F2F5" stroke="#B8C0CC" stroke-width="2" stroke-miterlimit="10" stroke-linecap="round" stroke-linejoin="round"/>
<path d="M394.717 120.02H387.348V124.956H394.717V120.02Z" fill="white" stroke="#B8C0CC" stroke-width="1.8833" stroke-miterlimit="10" stroke-linecap="round" stroke-linejoin="round"/>
<defs>
<radialGradient id="paint0_radial" cx="0" cy="0" r="1" gradientUnits="userSpaceOnUse" gradientTransform="translate(230.324 127.438) scale(67.4222 67.3216)">
<stop stop-color="#FFFE7B"/>
<stop offset="1" stop-color="#FFBE5E"/>
</radialGradient>
</defs>
</svg>
