<svg width="20" height="20" viewBox="0 0 20 20" fill="none" xmlns="http://www.w3.org/2000/svg">
<path d="M17.5436 5H2.45641C1.56001 5 0.833344 5.85561 0.833344 6.91106V17.2556C0.833344 18.3111 1.56001 19.1667 2.45641 19.1667H17.5436C18.44 19.1667 19.1667 18.3111 19.1667 17.2556V6.91106C19.1667 5.85561 18.44 5 17.5436 5Z" stroke="#FE7C5F" stroke-width="1.5" stroke-miterlimit="10"/>
<path d="M4.58333 4.99992C5.73393 4.99992 6.66667 4.06718 6.66667 2.91659C6.66667 1.76599 5.73393 0.833252 4.58333 0.833252C3.43274 0.833252 2.5 1.76599 2.5 2.91659C2.5 4.06718 3.43274 4.99992 4.58333 4.99992Z" stroke="#FE7C5F" stroke-width="1.5" stroke-miterlimit="10"/>
<path d="M8.74999 4.99992C9.90058 4.99992 10.8333 4.06718 10.8333 2.91659C10.8333 1.76599 9.90058 0.833252 8.74999 0.833252C7.5994 0.833252 6.66666 1.76599 6.66666 2.91659C6.66666 4.06718 7.5994 4.99992 8.74999 4.99992Z" stroke="#FE7C5F" stroke-width="1.5" stroke-miterlimit="10"/>
<path d="M6.66666 4.16675L6.66666 19.1667" stroke="#FE7C5F" stroke-width="1.5" stroke-miterlimit="10"/>
<path d="M0.833344 14.1667H19.1667" stroke="#FE7C5F" stroke-width="1.5" stroke-miterlimit="10"/>
</svg>
