<svg width="61" height="62" viewBox="0 0 61 62" fill="none" xmlns="http://www.w3.org/2000/svg">
<path d="M44.7418 55.1432C52.905 50.0718 58.3351 41.0157 58.3351 30.6917C58.3351 30.0034 58.3111 29.3272 58.2629 28.6631H1.07224C1.02408 29.3393 1 30.0155 1 30.7037C1 41.0398 6.4301 50.0959 14.5933 55.1553" stroke="#B8C0CC" stroke-width="1.5" stroke-miterlimit="10"/>
<path d="M53.4228 14.4514C57.1266 14.4514 60.1291 11.4402 60.1291 7.72569C60.1291 4.01119 57.1266 1 53.4228 1C49.7189 1 46.7164 4.01119 46.7164 7.72569C46.7164 11.4402 49.7189 14.4514 53.4228 14.4514Z" stroke="#B8C0CC" stroke-width="1.5" stroke-miterlimit="10"/>
<path d="M6.14114 28.6393C6.14114 28.6393 0.458197 25.0048 1.50569 13.4854C1.50569 13.4854 6.29767 17.2165 11.8482 19.2934C17.8923 21.5634 17.7117 28.265 17.7117 28.6514" stroke="#B8C0CC" stroke-width="1.5" stroke-miterlimit="10"/>
<path d="M44.7418 55.144H14.6054V61.0003H44.7418V55.144Z" stroke="#B8C0CC" stroke-width="1.5" stroke-miterlimit="10"/>
<path d="M8.24816 24.2563L13.7023 28.6395" stroke="#B8C0CC" stroke-width="1.5" stroke-miterlimit="10"/>
<path d="M23.491 28.6391C23.491 28.6391 32.6174 24.2438 30.7391 9.71777C30.7391 9.71777 26.2361 13.4489 17.8321 16.9627C16.1946 17.651 14.4488 19.595 14.0274 20.4644" stroke="#B8C0CC" stroke-width="1.5" stroke-miterlimit="10"/>
<path d="M22.299 21.1533L17.495 26.4904" stroke="#B8C0CC" stroke-width="1.5" stroke-miterlimit="10"/>
<path d="M34.3151 28.639L47.511 10.9131" stroke="#B8C0CC" stroke-width="1.5" stroke-miterlimit="10"/>
<path d="M49.8107 28.6515L54.2896 14.3911" stroke="#B8C0CC" stroke-width="1.5" stroke-miterlimit="10"/>
<path d="M30.25 35.0503V46.4502" stroke="#FE7C5F" stroke-width="3"/>
<path d="M35.9499 40.75L24.5501 40.75" stroke="#FE7C5F" stroke-width="3"/>
</svg>
