<svg width="125" height="106" viewBox="0 0 125 106" fill="none" xmlns="http://www.w3.org/2000/svg">
<path d="M52.86 105.72C82.0538 105.72 105.72 82.0538 105.72 52.86C105.72 23.6662 82.0538 0 52.86 0C23.6662 0 0 23.6662 0 52.86C0 82.0538 23.6662 105.72 52.86 105.72Z" fill="#F0F4F7"/>
<path d="M78.2484 71.1398H36.2725C30.6195 71.1398 26 66.5066 26 60.8367C26 55.1669 30.6195 50.5337 36.2725 50.5337H78.2484" stroke="#B8C0CC" stroke-width="2" stroke-miterlimit="10"/>
<path d="M68.1868 60.9848H118.706C121.49 60.9848 123.768 63.2697 123.768 66.0623C123.768 68.8549 121.49 71.1398 118.706 71.1398H108.686H66.7103C61.0572 71.1398 56.4378 66.5066 56.4378 60.8367C56.4378 55.1669 61.0572 50.5337 66.7103 50.5337H108.686H118.558C121.427 50.5337 123.768 52.882 123.768 55.7593C123.768 58.6365 121.427 60.9848 118.558 60.9848H66.4571" fill="white"/>
<path d="M68.1868 60.9848H118.706C121.49 60.9848 123.768 63.2697 123.768 66.0623C123.768 68.8549 121.49 71.1398 118.706 71.1398H108.686H66.7103C61.0572 71.1398 56.4378 66.5066 56.4378 60.8367C56.4378 55.1669 61.0572 50.5337 66.7103 50.5337H108.686H118.558C121.427 50.5337 123.768 52.882 123.768 55.7593C123.768 58.6365 121.427 60.9848 118.558 60.9848H66.4571" stroke="#B8C0CC" stroke-width="2" stroke-miterlimit="10" stroke-linecap="round"/>
<path d="M68.1868 81.6123H118.706C121.49 81.6123 123.768 83.8971 123.768 86.6898C123.768 89.4824 121.49 91.7672 118.706 91.7672H108.686H66.7103C61.0572 91.7672 56.4378 87.134 56.4378 81.4642C56.4378 75.7943 61.0572 71.1611 66.7103 71.1611H108.686H118.558C121.427 71.1611 123.768 73.5095 123.768 76.3867C123.768 79.2639 121.427 81.6123 118.558 81.6123H66.4571" fill="white"/>
<path d="M68.1868 81.6123H118.706C121.49 81.6123 123.768 83.8971 123.768 86.6898C123.768 89.4824 121.49 91.7672 118.706 91.7672H108.686H66.7103C61.0572 91.7672 56.4378 87.134 56.4378 81.4642C56.4378 75.7943 61.0572 71.1611 66.7103 71.1611H108.686H118.558C121.427 71.1611 123.768 73.5095 123.768 76.3867C123.768 79.2639 121.427 81.6123 118.558 81.6123H66.4571" stroke="#B8C0CC" stroke-width="2" stroke-miterlimit="10" stroke-linecap="round"/>
<path d="M78.2484 91.7672H36.2725C30.6195 91.7672 26 87.134 26 81.4642C26 75.7943 30.6195 71.1611 36.2725 71.1611H78.2484" stroke="#B8C0CC" stroke-width="2" stroke-miterlimit="10"/>
<path d="M64.2634 39.0886C64.2634 39.0886 55.2355 27.6008 46.2286 39.0886C46.2286 39.0886 55.2144 50.6398 64.2634 39.0886Z" fill="white" stroke="#B8C0CC" stroke-width="2" stroke-miterlimit="10"/>
<path d="M46.2286 57.1769C46.2286 57.1769 57.6823 48.122 46.2286 39.0884C46.2286 39.0884 34.7116 48.1009 46.2286 57.1769Z" fill="white" stroke="#B8C0CC" stroke-width="2" stroke-miterlimit="10"/>
<path d="M28.1937 39.0885C28.1937 39.0885 37.2217 50.5763 46.2286 39.0885C46.2286 39.0885 37.2428 27.5372 28.1937 39.0885Z" fill="white" stroke="#B8C0CC" stroke-width="2" stroke-miterlimit="10"/>
<path d="M46.2286 21C46.2286 21 34.7748 30.0548 46.2286 39.0885C46.2286 39.0885 57.7456 30.0971 46.2286 21Z" fill="white" stroke="#B8C0CC" stroke-width="2" stroke-miterlimit="10"/>
<path d="M58.9901 26.3101C58.9901 26.3101 44.4989 24.5965 46.2286 39.1096C46.2286 39.0884 60.7197 40.8867 58.9901 26.3101Z" fill="white" stroke="#B8C0CC" stroke-width="2" stroke-miterlimit="10"/>
<path d="M33.467 26.3103C33.467 26.3103 31.7585 40.8445 46.2286 39.1097C46.2286 39.0886 48.0215 24.5543 33.467 26.3103Z" fill="white" stroke="#B8C0CC" stroke-width="2" stroke-miterlimit="10"/>
<path d="M33.467 51.8878C33.467 51.8878 47.9582 53.6014 46.2286 39.0883C46.2286 39.0883 31.7374 37.2901 33.467 51.8878Z" fill="white" stroke="#B8C0CC" stroke-width="2" stroke-miterlimit="10"/>
<path d="M58.9901 51.8881C58.9901 51.8881 60.6987 37.3538 46.2286 39.0886C46.2286 39.0886 44.4356 53.644 58.9901 51.8881Z" fill="white" stroke="#B8C0CC" stroke-width="2" stroke-miterlimit="10"/>
<path d="M46.1231 44.2297C48.919 44.2297 51.1855 41.9564 51.1855 39.1522C51.1855 36.348 48.919 34.0747 46.1231 34.0747C43.3272 34.0747 41.0607 36.348 41.0607 39.1522C41.0607 41.9564 43.3272 44.2297 46.1231 44.2297Z" fill="white" stroke="#FE7C5F" stroke-width="2" stroke-miterlimit="10"/>
</svg>
