<svg width="106" height="106" viewBox="0 0 106 106" fill="none" xmlns="http://www.w3.org/2000/svg">
<path d="M52.7524 104.702C81.8868 104.702 105.505 81.264 105.505 52.3512C105.505 23.4384 81.8868 0 52.7524 0C23.6181 0 0 23.4384 0 52.3512C0 81.264 23.6181 104.702 52.7524 104.702Z" fill="#F2F5FA"/>
<path d="M21.9038 57.6599C19.1424 57.6599 16.9038 59.8985 16.9038 62.6599V99.4167C16.9038 102.178 19.1424 104.417 21.9038 104.417H83.0452C85.8066 104.417 88.0451 102.178 88.0451 99.4167V62.6599C88.0451 59.8985 85.8066 57.6599 83.0451 57.6599H21.9038Z" fill="white" stroke="#B8C0CC" stroke-width="2" stroke-linecap="round" stroke-linejoin="round"/>
<path opacity="0.71" d="M33.8091 45.3633L29.2338 57.7901V65.6933C29.2338 65.6933 30.7413 69.9567 36.461 69.9567C38.1025 69.966 39.719 69.5552 41.1569 68.7634C42.5948 67.9717 43.8063 66.8253 44.6761 65.4332V57.5821L46.0802 45.3637L33.8091 45.3633Z" fill="#EAEFF4"/>
<path opacity="0.71" d="M71.1462 45.3633L75.7215 57.7901V65.6933C75.7215 65.6933 74.2139 69.9567 68.4942 69.9567C66.8526 69.966 65.2361 69.5552 63.7982 68.7634C62.3604 67.9717 61.1488 66.8253 60.2792 65.4332V57.5821L58.8751 45.3637L71.1462 45.3633Z" fill="#EAEFF4"/>
<path d="M44.7521 57.6152V65.3389C44.7521 65.3389 45.8793 69.9468 52.2962 69.9468C58.7131 69.9468 60.1969 65.3389 60.1969 65.3389V57.6152H44.7521Z" fill="white" stroke="#B8C0CC" stroke-width="2" stroke-linecap="round" stroke-linejoin="round"/>
<path d="M60.1965 57.6152V65.3389C60.1965 65.3389 61.3238 69.9468 67.7407 69.9468C74.1576 69.9468 75.6418 65.3389 75.6418 65.3389V57.6152H60.1965Z" stroke="#B8C0CC" stroke-width="2" stroke-linecap="round" stroke-linejoin="round"/>
<path d="M75.6414 57.6152V65.3389C75.6414 65.3389 76.7686 69.9468 83.1855 69.9468C89.6024 69.9468 91.0862 65.3389 91.0862 65.3389V57.6152H75.6414Z" fill="white" stroke="#B8C0CC" stroke-width="2" stroke-linecap="round" stroke-linejoin="round"/>
<path d="M29.3068 57.6152V65.3389C29.3068 65.3389 30.434 69.9468 36.8513 69.9468C43.2687 69.9468 44.752 65.3389 44.752 65.3389V57.6152H29.3068Z" stroke="#B8C0CC" stroke-width="2" stroke-linecap="round" stroke-linejoin="round"/>
<path d="M13.8623 57.6152V65.3389C13.8623 65.3389 14.9895 69.9468 21.4065 69.9468C27.8234 69.9468 29.3072 65.3389 29.3072 65.3389V57.6152H13.8623Z" fill="white" stroke="#B8C0CC" stroke-width="2" stroke-linecap="round" stroke-linejoin="round"/>
<path d="M13.8623 57.6152L21.586 45.0645H85.0036L91.0861 57.6152" fill="white"/>
<path d="M13.8623 57.6152L21.586 45.0645H85.0036L91.0861 57.6152H13.8623Z" stroke="#B8C0CC" stroke-width="2" stroke-linecap="round" stroke-linejoin="round"/>
<path d="M44.7516 57.6152L46.0508 45.064" stroke="#B8C0CC" stroke-width="2" stroke-linecap="round" stroke-linejoin="round"/>
<path d="M29.3073 57.6152L33.8985 45.064" stroke="#B8C0CC" stroke-width="2" stroke-linecap="round" stroke-linejoin="round"/>
<path d="M60.1965 57.6152L58.8972 45.064" stroke="#B8C0CC" stroke-width="2" stroke-linecap="round" stroke-linejoin="round"/>
<path d="M75.6414 57.6152L71.0502 45.064" stroke="#B8C0CC" stroke-width="2" stroke-linecap="round" stroke-linejoin="round"/>
<path d="M24.5905 28.23C24.6305 28.3167 24.6505 28.4033 24.6505 28.49C24.6505 28.6433 24.5871 28.7733 24.4605 28.88C24.3405 28.9867 24.2005 29.04 24.0405 29.04C23.9338 29.04 23.8338 29.0133 23.7405 28.96C23.6471 28.9 23.5738 28.81 23.5205 28.69L22.9205 27.35H19.4005L18.8005 28.69C18.7471 28.81 18.6738 28.9 18.5805 28.96C18.4871 29.0133 18.3838 29.04 18.2705 29.04C18.1171 29.04 17.9771 28.9867 17.8505 28.88C17.7238 28.7733 17.6605 28.6433 17.6605 28.49C17.6605 28.4033 17.6805 28.3167 17.7205 28.23L20.4805 22.3C20.5405 22.1667 20.6305 22.0667 20.7505 22C20.8771 21.9267 21.0105 21.89 21.1505 21.89C21.2905 21.89 21.4205 21.9267 21.5405 22C21.6671 22.0667 21.7605 22.1667 21.8205 22.3L24.5905 28.23ZM19.8405 26.35H22.4805L21.1605 23.38L19.8405 26.35ZM27.6823 29.08C27.1957 29.08 26.7657 28.9767 26.3923 28.77C26.0257 28.5633 25.7423 28.27 25.5423 27.89C25.3423 27.51 25.2423 27.0667 25.2423 26.56C25.2423 26.0533 25.3457 25.6067 25.5523 25.22C25.7657 24.8267 26.0623 24.5233 26.4423 24.31C26.8223 24.0967 27.259 23.99 27.7523 23.99C28.0123 23.99 28.2723 24.0267 28.5323 24.1C28.799 24.1733 29.0323 24.2733 29.2323 24.4C29.4457 24.54 29.5523 24.7167 29.5523 24.93C29.5523 25.0767 29.5157 25.1967 29.4423 25.29C29.3757 25.3767 29.2857 25.42 29.1723 25.42C29.099 25.42 29.0223 25.4033 28.9423 25.37C28.8623 25.3367 28.7823 25.2967 28.7023 25.25C28.5557 25.1633 28.4157 25.0967 28.2823 25.05C28.149 24.9967 27.9957 24.97 27.8223 24.97C27.409 24.97 27.089 25.1067 26.8623 25.38C26.6423 25.6467 26.5323 26.0333 26.5323 26.54C26.5323 27.04 26.6423 27.4267 26.8623 27.7C27.089 27.9667 27.409 28.1 27.8223 28.1C27.989 28.1 28.1357 28.0767 28.2623 28.03C28.3957 27.9767 28.5423 27.9067 28.7023 27.82C28.8023 27.76 28.889 27.7167 28.9623 27.69C29.0357 27.6567 29.109 27.64 29.1823 27.64C29.289 27.64 29.379 27.6867 29.4523 27.78C29.5257 27.8733 29.5623 27.99 29.5623 28.13C29.5623 28.2433 29.5357 28.3433 29.4823 28.43C29.4357 28.51 29.3557 28.5833 29.2423 28.65C29.0357 28.7833 28.7957 28.89 28.5223 28.97C28.249 29.0433 27.969 29.08 27.6823 29.08ZM32.5651 29.08C32.0785 29.08 31.6485 28.9767 31.2751 28.77C30.9085 28.5633 30.6251 28.27 30.4251 27.89C30.2251 27.51 30.1251 27.0667 30.1251 26.56C30.1251 26.0533 30.2285 25.6067 30.4351 25.22C30.6485 24.8267 30.9451 24.5233 31.3251 24.31C31.7051 24.0967 32.1418 23.99 32.6351 23.99C32.8951 23.99 33.1551 24.0267 33.4151 24.1C33.6818 24.1733 33.9151 24.2733 34.1151 24.4C34.3285 24.54 34.4351 24.7167 34.4351 24.93C34.4351 25.0767 34.3985 25.1967 34.3251 25.29C34.2585 25.3767 34.1685 25.42 34.0551 25.42C33.9818 25.42 33.9051 25.4033 33.8251 25.37C33.7451 25.3367 33.6651 25.2967 33.5851 25.25C33.4385 25.1633 33.2985 25.0967 33.1651 25.05C33.0318 24.9967 32.8785 24.97 32.7051 24.97C32.2918 24.97 31.9718 25.1067 31.7451 25.38C31.5251 25.6467 31.4151 26.0333 31.4151 26.54C31.4151 27.04 31.5251 27.4267 31.7451 27.7C31.9718 27.9667 32.2918 28.1 32.7051 28.1C32.8718 28.1 33.0185 28.0767 33.1451 28.03C33.2785 27.9767 33.4251 27.9067 33.5851 27.82C33.6851 27.76 33.7718 27.7167 33.8451 27.69C33.9185 27.6567 33.9918 27.64 34.0651 27.64C34.1718 27.64 34.2618 27.6867 34.3351 27.78C34.4085 27.8733 34.4451 27.99 34.4451 28.13C34.4451 28.2433 34.4185 28.3433 34.3651 28.43C34.3185 28.51 34.2385 28.5833 34.1251 28.65C33.9185 28.7833 33.6785 28.89 33.4051 28.97C33.1318 29.0433 32.8518 29.08 32.5651 29.08ZM39.148 27.66C39.2613 27.66 39.3513 27.7033 39.418 27.79C39.4913 27.8767 39.528 27.9933 39.528 28.14C39.528 28.3467 39.4046 28.52 39.158 28.66C38.9313 28.7867 38.6746 28.89 38.388 28.97C38.1013 29.0433 37.828 29.08 37.568 29.08C36.7813 29.08 36.158 28.8533 35.698 28.4C35.238 27.9467 35.008 27.3267 35.008 26.54C35.008 26.04 35.108 25.5967 35.308 25.21C35.508 24.8233 35.788 24.5233 36.148 24.31C36.5146 24.0967 36.928 23.99 37.388 23.99C37.828 23.99 38.2113 24.0867 38.538 24.28C38.8646 24.4733 39.118 24.7467 39.298 25.1C39.478 25.4533 39.568 25.87 39.568 26.35C39.568 26.6367 39.4413 26.78 39.188 26.78H36.238C36.278 27.24 36.408 27.58 36.628 27.8C36.848 28.0133 37.168 28.12 37.588 28.12C37.8013 28.12 37.988 28.0933 38.148 28.04C38.3146 27.9867 38.5013 27.9133 38.708 27.82C38.908 27.7133 39.0546 27.66 39.148 27.66ZM37.418 24.87C37.078 24.87 36.8046 24.9767 36.598 25.19C36.398 25.4033 36.278 25.71 36.238 26.11H38.498C38.4846 25.7033 38.3846 25.3967 38.198 25.19C38.0113 24.9767 37.7513 24.87 37.418 24.87ZM43.4005 23.99C43.8205 23.99 44.1938 24.0967 44.5205 24.31C44.8538 24.5233 45.1105 24.8267 45.2905 25.22C45.4771 25.6067 45.5705 26.0533 45.5705 26.56C45.5705 27.0667 45.4771 27.51 45.2905 27.89C45.1105 28.27 44.8571 28.5633 44.5305 28.77C44.2038 28.9767 43.8271 29.08 43.4005 29.08C43.0538 29.08 42.7438 29.0067 42.4705 28.86C42.1971 28.7133 41.9871 28.51 41.8405 28.25V30.29C41.8405 30.4633 41.7838 30.6 41.6705 30.7C41.5571 30.8 41.4071 30.85 41.2205 30.85C41.0338 30.85 40.8805 30.7967 40.7605 30.69C40.6471 30.5833 40.5905 30.4433 40.5905 30.27V24.6C40.5905 24.42 40.6438 24.2767 40.7505 24.17C40.8638 24.0633 41.0138 24.01 41.2005 24.01C41.3871 24.01 41.5371 24.0633 41.6505 24.17C41.7638 24.2767 41.8205 24.42 41.8205 24.6V24.85C41.9671 24.5767 42.1771 24.3667 42.4505 24.22C42.7305 24.0667 43.0471 23.99 43.4005 23.99ZM43.0705 28.11C43.4638 28.11 43.7705 27.9767 43.9905 27.71C44.2105 27.4367 44.3205 27.0533 44.3205 26.56C44.3205 26.0533 44.2105 25.66 43.9905 25.38C43.7705 25.1 43.4638 24.96 43.0705 24.96C42.6705 24.96 42.3605 25.0967 42.1405 25.37C41.9271 25.6433 41.8205 26.0333 41.8205 26.54C41.8205 27.04 41.9271 27.4267 42.1405 27.7C42.3605 27.9733 42.6705 28.11 43.0705 28.11ZM49.107 28.13C49.4404 28.15 49.607 28.3 49.607 28.58C49.607 28.74 49.5404 28.8633 49.407 28.95C49.2804 29.03 49.097 29.0633 48.857 29.05L48.587 29.03C47.467 28.95 46.907 28.35 46.907 27.23V25.05H46.407C46.227 25.05 46.087 25.01 45.987 24.93C45.8937 24.85 45.847 24.7333 45.847 24.58C45.847 24.4267 45.8937 24.31 45.987 24.23C46.087 24.15 46.227 24.11 46.407 24.11H46.907V23.19C46.907 23.01 46.9637 22.8667 47.077 22.76C47.1904 22.6533 47.3437 22.6 47.537 22.6C47.7237 22.6 47.8737 22.6533 47.987 22.76C48.1004 22.8667 48.157 23.01 48.157 23.19V24.11H49.007C49.187 24.11 49.3237 24.15 49.417 24.23C49.517 24.31 49.567 24.4267 49.567 24.58C49.567 24.7333 49.517 24.85 49.417 24.93C49.3237 25.01 49.187 25.05 49.007 25.05H48.157V27.32C48.157 27.8133 48.3837 28.0767 48.837 28.11L49.107 28.13ZM57.4233 25.36C57.8299 25.4733 58.1433 25.68 58.3633 25.98C58.5899 26.28 58.7033 26.6467 58.7033 27.08C58.7033 27.68 58.4866 28.15 58.0533 28.49C57.6266 28.83 57.0366 29 56.2833 29H53.7033C53.5099 29 53.3566 28.9467 53.2433 28.84C53.1366 28.7333 53.0833 28.5833 53.0833 28.39V22.56C53.0833 22.3667 53.1366 22.2167 53.2433 22.11C53.3566 22.0033 53.5099 21.95 53.7033 21.95H56.1833C56.9166 21.95 57.4899 22.1133 57.9033 22.44C58.3233 22.76 58.5333 23.21 58.5333 23.79C58.5333 24.1633 58.4333 24.4867 58.2333 24.76C58.0399 25.0333 57.7699 25.2333 57.4233 25.36ZM54.3433 24.92H55.9733C56.8599 24.92 57.3033 24.59 57.3033 23.93C57.3033 23.5967 57.1933 23.35 56.9733 23.19C56.7533 23.03 56.4199 22.95 55.9733 22.95H54.3433V24.92ZM56.1433 28C56.6099 28 56.9499 27.9167 57.1633 27.75C57.3766 27.5833 57.4833 27.3233 57.4833 26.97C57.4833 26.6167 57.3733 26.3533 57.1533 26.18C56.9399 26.0067 56.6033 25.92 56.1433 25.92H54.3433V28H56.1433ZM62.0294 29.08C61.5294 29.08 61.0894 28.9767 60.7094 28.77C60.3361 28.5633 60.0461 28.2667 59.8394 27.88C59.6328 27.4933 59.5294 27.0433 59.5294 26.53C59.5294 26.0167 59.6328 25.57 59.8394 25.19C60.0461 24.8033 60.3361 24.5067 60.7094 24.3C61.0894 24.0933 61.5294 23.99 62.0294 23.99C62.5294 23.99 62.9661 24.0933 63.3394 24.3C63.7194 24.5067 64.0094 24.8033 64.2094 25.19C64.4161 25.57 64.5194 26.0167 64.5194 26.53C64.5194 27.0433 64.4161 27.4933 64.2094 27.88C64.0094 28.2667 63.7194 28.5633 63.3394 28.77C62.9661 28.9767 62.5294 29.08 62.0294 29.08ZM62.0194 28.11C62.4261 28.11 62.7361 27.9767 62.9494 27.71C63.1628 27.4433 63.2694 27.05 63.2694 26.53C63.2694 26.0167 63.1628 25.6267 62.9494 25.36C62.7361 25.0867 62.4294 24.95 62.0294 24.95C61.6294 24.95 61.3194 25.0867 61.0994 25.36C60.8861 25.6267 60.7794 26.0167 60.7794 26.53C60.7794 27.05 60.8861 27.4433 61.0994 27.71C61.3128 27.9767 61.6194 28.11 62.0194 28.11ZM67.7814 29.08C67.2814 29.08 66.8414 28.9767 66.4614 28.77C66.0881 28.5633 65.7981 28.2667 65.5914 27.88C65.3847 27.4933 65.2814 27.0433 65.2814 26.53C65.2814 26.0167 65.3847 25.57 65.5914 25.19C65.7981 24.8033 66.0881 24.5067 66.4614 24.3C66.8414 24.0933 67.2814 23.99 67.7814 23.99C68.2814 23.99 68.7181 24.0933 69.0914 24.3C69.4714 24.5067 69.7614 24.8033 69.9614 25.19C70.1681 25.57 70.2714 26.0167 70.2714 26.53C70.2714 27.0433 70.1681 27.4933 69.9614 27.88C69.7614 28.2667 69.4714 28.5633 69.0914 28.77C68.7181 28.9767 68.2814 29.08 67.7814 29.08ZM67.7714 28.11C68.1781 28.11 68.4881 27.9767 68.7014 27.71C68.9147 27.4433 69.0214 27.05 69.0214 26.53C69.0214 26.0167 68.9147 25.6267 68.7014 25.36C68.4881 25.0867 68.1814 24.95 67.7814 24.95C67.3814 24.95 67.0714 25.0867 66.8514 25.36C66.6381 25.6267 66.5314 26.0167 66.5314 26.53C66.5314 27.05 66.6381 27.4433 66.8514 27.71C67.0647 27.9767 67.3714 28.11 67.7714 28.11ZM75.6534 28.03C75.7867 28.1567 75.8534 28.3 75.8534 28.46C75.8534 28.6133 75.7967 28.75 75.6834 28.87C75.5767 28.99 75.45 29.05 75.3034 29.05C75.1567 29.05 75.02 28.99 74.8934 28.87L72.5534 26.75V28.46C72.5534 28.6533 72.4934 28.8 72.3734 28.9C72.2534 29 72.1034 29.05 71.9234 29.05C71.7434 29.05 71.5934 29 71.4734 28.9C71.36 28.8 71.3034 28.6533 71.3034 28.46V22.49C71.3034 22.2967 71.36 22.15 71.4734 22.05C71.5934 21.95 71.7434 21.9 71.9234 21.9C72.1034 21.9 72.2534 21.95 72.3734 22.05C72.4934 22.15 72.5534 22.2967 72.5534 22.49V26.25L74.6934 24.2C74.8134 24.08 74.95 24.02 75.1034 24.02C75.2567 24.02 75.39 24.0767 75.5034 24.19C75.6167 24.3033 75.6734 24.4367 75.6734 24.59C75.6734 24.7433 75.61 24.8833 75.4834 25.01L73.9134 26.47L75.6534 28.03ZM77.2847 29.06C77.1047 29.06 76.9547 29.01 76.8347 28.91C76.7213 28.8033 76.6647 28.6533 76.6647 28.46V24.6C76.6647 24.4067 76.7213 24.26 76.8347 24.16C76.9547 24.06 77.1047 24.01 77.2847 24.01C77.4647 24.01 77.6147 24.06 77.7347 24.16C77.8547 24.26 77.9147 24.4067 77.9147 24.6V28.46C77.9147 28.6533 77.8547 28.8033 77.7347 28.91C77.6147 29.01 77.4647 29.06 77.2847 29.06ZM77.2847 23.12C77.058 23.12 76.878 23.06 76.7447 22.94C76.6113 22.8133 76.5447 22.65 76.5447 22.45C76.5447 22.25 76.6113 22.09 76.7447 21.97C76.878 21.85 77.058 21.79 77.2847 21.79C77.5047 21.79 77.6813 21.85 77.8147 21.97C77.9547 22.09 78.0247 22.25 78.0247 22.45C78.0247 22.65 77.958 22.8133 77.8247 22.94C77.6913 23.06 77.5113 23.12 77.2847 23.12ZM82.0437 23.99C82.6304 23.99 83.0671 24.1567 83.3537 24.49C83.6404 24.8233 83.7837 25.3267 83.7837 26V28.46C83.7837 28.6467 83.7271 28.7933 83.6137 28.9C83.5071 29.0067 83.3571 29.06 83.1637 29.06C82.9704 29.06 82.8171 29.0067 82.7037 28.9C82.5904 28.7933 82.5337 28.6467 82.5337 28.46V26.07C82.5337 25.69 82.4604 25.4133 82.3137 25.24C82.1737 25.0667 81.9504 24.98 81.6437 24.98C81.2837 24.98 80.9937 25.0933 80.7737 25.32C80.5604 25.5467 80.4537 25.85 80.4537 26.23V28.46C80.4537 28.6467 80.3971 28.7933 80.2837 28.9C80.1704 29.0067 80.0171 29.06 79.8237 29.06C79.6304 29.06 79.4771 29.0067 79.3637 28.9C79.2571 28.7933 79.2037 28.6467 79.2037 28.46V24.59C79.2037 24.4167 79.2604 24.2767 79.3737 24.17C79.4871 24.0633 79.6404 24.01 79.8337 24.01C80.0071 24.01 80.1471 24.0633 80.2537 24.17C80.3671 24.27 80.4237 24.4033 80.4237 24.57V24.84C80.5904 24.5667 80.8137 24.3567 81.0937 24.21C81.3737 24.0633 81.6904 23.99 82.0437 23.99ZM89.1934 24.01C89.38 24.01 89.53 24.0633 89.6434 24.17C89.7567 24.2767 89.8134 24.42 89.8134 24.6V28.55C89.8134 29.3167 89.6 29.8967 89.1734 30.29C88.7467 30.6833 88.1167 30.88 87.2834 30.88C86.5567 30.88 85.95 30.7433 85.4634 30.47C85.2167 30.3233 85.0934 30.1467 85.0934 29.94C85.0934 29.7933 85.1267 29.6767 85.1934 29.59C85.2667 29.5033 85.36 29.46 85.4734 29.46C85.5334 29.46 85.6067 29.4733 85.6934 29.5C85.78 29.5333 85.87 29.57 85.9634 29.61C86.2034 29.71 86.4167 29.7867 86.6034 29.84C86.7967 29.8933 87.0167 29.92 87.2634 29.92C88.1367 29.92 88.5734 29.4933 88.5734 28.64V28C88.4267 28.2733 88.2134 28.4867 87.9334 28.64C87.6534 28.7867 87.3334 28.86 86.9734 28.86C86.5467 28.86 86.1667 28.76 85.8334 28.56C85.5067 28.3533 85.25 28.0667 85.0634 27.7C84.8767 27.3333 84.7834 26.91 84.7834 26.43C84.7834 25.95 84.8734 25.5267 85.0534 25.16C85.24 24.7867 85.5 24.5 85.8334 24.3C86.1667 24.0933 86.5467 23.99 86.9734 23.99C87.3334 23.99 87.6534 24.0667 87.9334 24.22C88.2134 24.3667 88.4267 24.5767 88.5734 24.85V24.59C88.5734 24.4167 88.63 24.2767 88.7434 24.17C88.8567 24.0633 89.0067 24.01 89.1934 24.01ZM87.3034 27.89C87.7034 27.89 88.0134 27.76 88.2334 27.5C88.46 27.24 88.5734 26.8833 88.5734 26.43C88.5734 25.97 88.46 25.61 88.2334 25.35C88.0134 25.09 87.7034 24.96 87.3034 24.96C86.91 24.96 86.6 25.09 86.3734 25.35C86.1467 25.61 86.0334 25.97 86.0334 26.43C86.0334 26.8833 86.1467 27.24 86.3734 27.5C86.6 27.76 86.91 27.89 87.3034 27.89Z" fill="#5F45FF"/>
<g clip-path="url(#clip0)">
<path d="M49.9555 87.0689C49.9555 88.8689 48.5555 90.2689 46.7555 90.2689C44.9555 90.2689 43.5555 88.8689 43.5555 87.0689C43.5555 85.2689 44.9555 83.8689 46.7555 83.8689C48.5555 83.9689 49.9555 85.3689 49.9555 87.0689ZM48.4555 87.0689C48.3555 86.0689 47.5555 85.2689 46.5555 85.3689C45.5555 85.4689 44.7555 86.2689 44.8555 87.2689C44.9555 88.1689 45.7555 88.9689 46.6555 88.9689C47.5555 89.0689 48.4555 88.2689 48.4555 87.3689V87.2689C48.4555 87.1689 48.4555 87.1689 48.4555 87.0689Z" fill="#EA4335"/>
<path d="M56.8555 87.0689C56.8555 88.8689 55.4555 90.2689 53.6555 90.2689C51.8555 90.2689 50.4555 88.8689 50.4555 87.0689C50.4555 85.2689 51.8555 83.8689 53.6555 83.8689C55.3555 83.9689 56.8555 85.3689 56.8555 87.0689ZM55.4555 87.0689C55.3555 86.0689 54.5555 85.2689 53.5555 85.3689C52.5555 85.4689 51.7555 86.2689 51.8555 87.2689C51.9555 88.1689 52.7555 88.9689 53.6555 88.9689C54.6555 88.9689 55.4555 88.1689 55.4555 87.0689Z" fill="#FBBC05"/>
<path d="M63.4555 84.1688V89.8687C63.4555 92.2687 62.0555 93.1687 60.4555 93.1687C59.2555 93.1687 58.0555 92.4687 57.5555 91.3687L58.8555 90.8687C59.0555 91.5687 59.7555 91.9688 60.4555 91.9688C61.3555 91.9688 62.1555 91.2687 62.1555 90.3687V89.6687C61.6555 90.1687 61.0555 90.3687 60.4555 90.3687C58.7555 90.2688 57.3555 88.7688 57.3555 87.0688C57.5555 85.4688 58.8555 84.1688 60.4555 83.9688C61.0555 83.9688 61.7555 84.1688 62.1555 84.6688V84.1688H63.4555ZM62.2555 87.0688C62.3555 86.1688 61.7555 85.2688 60.7555 85.1688H60.6555H60.5555C59.5555 85.2688 58.7555 86.1687 58.8555 87.2687C58.9555 88.1687 59.6555 88.8688 60.5555 88.9688C61.4555 88.9688 62.2555 88.1687 62.2555 87.2687V87.0688Z" fill="#4285F4"/>
<path d="M65.6555 80.7688V90.1688H64.2555V80.7688H65.6555Z" fill="#34A853"/>
<path d="M70.9555 88.1689L71.9555 88.8689C71.3555 89.7689 70.3555 90.2689 69.3555 90.2689C67.6555 90.2689 66.2555 88.8689 66.1555 87.1689V87.0689C66.0555 85.4689 67.2555 83.9689 68.9555 83.8689H69.1555C70.4555 83.8689 71.5555 84.6689 71.9555 85.9689L72.0555 86.2689L67.8555 87.9689C68.1555 88.5689 68.7555 88.9689 69.3555 88.8689C69.8555 89.0689 70.5555 88.7689 70.9555 88.1689ZM67.6555 86.9689L70.5555 85.8689C70.3555 85.4689 69.8555 85.1689 69.4555 85.1689C68.5555 85.1689 67.7555 85.9689 67.7555 86.8689V86.9689H67.6555Z" fill="#EA4335"/>
<path d="M38.3555 86.2688V84.8688H42.9555C42.9555 85.0688 43.0555 85.4688 43.0555 85.6688C43.0555 86.8688 42.6555 87.9688 41.9555 88.8688C41.0555 89.7688 39.8555 90.2688 38.5555 90.2688C35.7555 90.2688 33.5555 88.0688 33.5555 85.2688C33.5555 82.5688 35.7555 80.3688 38.4555 80.2688H38.5555C39.8555 80.2688 41.0555 80.7688 41.9555 81.6688L41.0555 82.5688C40.4555 81.8688 39.5555 81.5688 38.6555 81.6688C36.6555 81.7688 35.1555 83.3688 35.0555 85.3688C35.0555 87.3688 36.6555 88.9688 38.6555 88.9688C39.5555 88.9688 40.4555 88.5688 41.1555 87.9688C41.6555 87.4688 41.8555 86.8688 41.8555 86.2688H38.3555Z" fill="#4285F4"/>
</g>
<defs>
<clipPath id="clip0">
<rect width="40" height="13" fill="white" transform="translate(32.8555 80.2688)"/>
</clipPath>
</defs>
</svg>
