<svg width="106" height="107" viewBox="0 0 106 107" fill="none" xmlns="http://www.w3.org/2000/svg">
<path d="M52.7524 104.702C81.8868 104.702 105.505 81.264 105.505 52.3512C105.505 23.4384 81.8868 0 52.7524 0C23.6181 0 0 23.4384 0 52.3512C0 81.264 23.6181 104.702 52.7524 104.702Z" fill="#F2F5FA"/>
<path d="M25.6948 31.3768H80.1753C83.2384 31.3768 85.6452 33.1656 85.6452 35.4423V75.9345C85.6452 78.2112 83.2384 80 80.1753 80H25.6948C22.6317 80 20.2249 78.2112 20.2249 75.9345V35.4423C20.2249 33.2469 22.6317 31.3768 25.6948 31.3768Z" fill="#B8C0CC"/>
<path d="M26.3621 40.2173H79.508C81.4683 40.2173 82.993 41.1817 82.993 42.3872V75.1778C82.993 76.3833 81.4683 77.3477 79.508 77.3477H26.3621C24.4018 77.3477 22.8771 76.3833 22.8771 75.1778V42.3872C22.8771 41.1817 24.5107 40.2173 26.3621 40.2173Z" fill="white"/>
<path d="M34.8116 56.1251C37.1361 56.1251 39.0206 54.3451 39.0206 52.1495C39.0206 49.9538 37.1361 48.1738 34.8116 48.1738C32.4871 48.1738 30.6027 49.9538 30.6027 52.1495C30.6027 54.3451 32.4871 56.1251 34.8116 56.1251Z" fill="#FCFDFF" stroke="#B8C0CC"/>
<path d="M40.8385 64.9959C41.0593 64.9978 41.2778 64.9527 41.4778 64.8641C41.6778 64.7756 41.8541 64.6458 41.9937 64.4842C42.1334 64.3227 42.233 64.1336 42.285 63.9308C42.3369 63.7281 42.3399 63.5169 42.294 63.3129C41.8927 61.7238 40.936 60.3086 39.5783 59.2962C38.2208 58.2838 36.5416 57.7332 34.8119 57.7332C33.0822 57.7332 31.4029 58.2838 30.0454 59.2962C28.6878 60.3086 27.7311 61.7238 27.3297 63.3129C27.2837 63.5169 27.2868 63.7281 27.3388 63.9308C27.3907 64.1336 27.4903 64.3227 27.63 64.4842C27.7697 64.6458 27.9461 64.7756 28.146 64.8641C28.346 64.9527 28.5643 64.9978 28.7852 64.9959H40.8385Z" fill="#FCFDFF" stroke="#B8C0CC"/>
<path d="M47.6307 49.9626C47.6307 48.9747 48.4316 48.1738 49.4195 48.1738H76.0471C77.0349 48.1738 77.8358 48.9747 77.8358 49.9626C77.8358 50.9504 77.0349 51.7513 76.0471 51.7513H49.4195C48.4316 51.7513 47.6307 50.9504 47.6307 49.9626Z" fill="#EFEFEF"/>
<path d="M47.6307 57.0351C47.6307 56.0472 48.4316 55.2463 49.4195 55.2463H76.0471C77.0349 55.2463 77.8358 56.0472 77.8358 57.0351C77.8358 58.0229 77.0349 58.8238 76.0471 58.8238H49.4195C48.4316 58.8238 47.6307 58.0229 47.6307 57.0351Z" fill="#EFEFEF"/>
<path d="M47.6307 64.3188C47.6307 63.2143 48.5262 62.3188 49.6307 62.3188H75.6887C76.7933 62.3188 77.6887 63.2143 77.6887 64.3188V71.8116C77.6887 72.9162 76.7933 73.8116 75.6887 73.8116H49.6307C48.5262 73.8116 47.6307 72.9162 47.6307 71.8116V64.3188Z" fill="#EFEFEF"/>
<circle cx="39.6742" cy="31.3768" r="4.42029" fill="white"/>
<circle cx="67.9641" cy="31.3768" r="4.42029" fill="white"/>
<path d="M40.3264 19C41.4309 19 42.3264 19.8954 42.3264 21L42.3264 32.029C42.3264 33.1336 41.4309 34.029 40.3264 34.029L39.022 34.029C37.9174 34.029 37.022 33.1336 37.022 32.029L37.022 21C37.022 19.8954 37.9174 19 39.022 19L40.3264 19Z" fill="#B8C0CC"/>
<path d="M68.6162 19C69.7208 19 70.6162 19.8954 70.6162 21L70.6162 32.029C70.6162 33.1336 69.7208 34.029 68.6162 34.029L67.3119 34.029C66.2073 34.029 65.3119 33.1336 65.3119 32.029L65.3119 21C65.3119 19.8954 66.2073 19 67.3119 19L68.6162 19Z" fill="#B8C0CC"/>
<g clip-path="url(#clip0)">
<path d="M79.9816 105.495C92.3437 105.495 102.365 95.7034 102.365 83.6253C102.365 71.5471 92.3437 61.7559 79.9816 61.7559C67.6195 61.7559 57.598 71.5471 57.598 83.6253C57.598 95.7034 67.6195 105.495 79.9816 105.495Z" fill="white" stroke="#5F45FF" stroke-width="2"/>
<path d="M90.0885 76.96L76.4501 90.6023L70.3077 84.3539" stroke="#5F45FF" stroke-width="2" stroke-linecap="round" stroke-linejoin="round"/>
</g>
<defs>
<clipPath id="clip0">
<rect width="48" height="47" fill="white" transform="translate(55.9351 60)"/>
</clipPath>
</defs>
</svg>
