<svg width="106" height="109" viewBox="0 0 106 109" fill="none" xmlns="http://www.w3.org/2000/svg">
<path d="M52.7524 104.702C81.8868 104.702 105.505 81.264 105.505 52.3512C105.505 23.4384 81.8868 0 52.7524 0C23.6181 0 0 23.4384 0 52.3512C0 81.264 23.6181 104.702 52.7524 104.702Z" fill="#F2F5FA"/>
<rect x="15.242" y="31.644" width="58.544" height="36.7992" rx="2" fill="#B8C0CC"/>
<rect x="19.0282" y="32.7449" width="49.4973" height="34.5976" rx="1" fill="white"/>
<path d="M38.165 53.4627V49.1832C38.165 44.9811 41.5706 41.5781 45.7758 41.5781H45.8876C50.093 41.5781 53.4985 44.9811 53.4985 49.1832V49.2949C53.4985 53.497 50.093 56.9 45.8876 56.9H40.315C38.4058 56.9 38.1822 55.3618 38.165 53.4627Z" fill="white"/>
<path d="M37.8854 49.2175V55.7914C37.894 56.3929 38.3756 56.8741 38.9776 56.8828H40.431C39.829 56.8741 39.3474 56.3929 39.3388 55.7914V49.2175C39.3388 43.9069 43.5957 41.6125 46.7174 41.6812C46.3218 41.621 45.9176 41.5953 45.522 41.5867C41.3082 41.6125 37.9026 45.0154 37.8854 49.2175Z" fill="#EAEFF4"/>
<path d="M39.4358 57.9084L39.4358 57.9085H39.4464H45.7157C50.4725 57.9085 54.3265 54.0586 54.3265 49.3034V49.1917C54.3265 44.4366 50.4725 40.5867 45.7157 40.5867H45.6039C40.847 40.5867 36.993 44.4366 36.993 49.1917V55.4562C36.993 56.8142 38.09 57.8942 39.4358 57.9084Z" stroke="#5F45FF" stroke-width="2" stroke-miterlimit="10"/>
<path d="M48.8202 46.3215C48.8202 45.9434 49.1298 45.634 49.5082 45.634C49.8865 45.634 50.1962 45.9434 50.1962 46.3215C50.1962 46.6996 49.8865 47.009 49.5082 47.009C49.1298 47.009 48.8202 46.6996 48.8202 46.3215Z" fill="#B8C0CC"/>
<circle cx="71.0616" cy="50.565" r="1.75741" fill="white"/>
<circle cx="17.243" cy="50.565" r="0.707802" fill="white"/>
<path d="M81.1291 107.135H59.5443C58.3886 107.135 57.4811 106.228 57.4811 105.066V64.3158C57.4811 63.1536 58.3886 62.2471 59.5443 62.2471H81.1291C82.2848 62.2471 83.1923 63.1536 83.1923 64.3158V105.066C83.1923 106.228 82.2848 107.135 81.1291 107.135Z" fill="white" stroke="#B8C0CC" stroke-width="2"/>
<path d="M63.5001 88.6685V84.389C63.5001 80.1869 66.9056 76.7839 71.1109 76.7839H71.2227C75.428 76.7839 78.8335 80.1869 78.8335 84.389V84.5007C78.8335 88.7028 75.428 92.1058 71.2227 92.1058H65.65C63.7409 92.1058 63.5173 90.5676 63.5001 88.6685Z" fill="white"/>
<path d="M63.2205 84.4233V90.9972C63.2291 91.5988 63.7106 92.0799 64.3126 92.0886H65.766C65.164 92.0799 64.6824 91.5988 64.6738 90.9972V84.4233C64.6738 79.1127 68.9307 76.8183 72.0524 76.887C71.6569 76.8269 71.2527 76.8011 70.8571 76.7925C66.6432 76.8183 63.2377 80.2212 63.2205 84.4233Z" fill="#EAEFF4"/>
<path d="M64.7709 93.1142L64.7709 93.1143H64.7814H71.0507C75.8075 93.1143 79.6615 89.2644 79.6615 84.5093V84.3975C79.6615 79.6424 75.8075 75.7925 71.0507 75.7925H70.9389C66.182 75.7925 62.3281 79.6424 62.3281 84.3975V90.6621C62.3281 92.02 63.425 93.1 64.7709 93.1142Z" stroke="#5F45FF" stroke-width="2" stroke-miterlimit="10"/>
<path d="M74.1552 81.5273C74.1552 81.1492 74.4648 80.8398 74.8432 80.8398C75.2215 80.8398 75.5312 81.1492 75.5312 81.5273C75.5312 81.9054 75.2215 82.2148 74.8432 82.2148C74.4648 82.2148 74.1552 81.9054 74.1552 81.5273Z" fill="#B8C0CC"/>
</svg>
