<svg width="52" height="56" viewBox="0 0 52 56" fill="none" xmlns="http://www.w3.org/2000/svg">
<path d="M26.0164 55.5519C40.0867 55.5519 51.493 44.2324 51.493 30.2691C51.493 16.3058 40.0867 4.98633 26.0164 4.98633C11.9461 4.98633 0.539795 16.3058 0.539795 30.2691C0.539795 44.2324 11.9461 55.5519 26.0164 55.5519Z" fill="#F0F4F7"/>
<path d="M26.0001 30C30.4183 30 34.0001 26.6421 34.0001 22.5C34.0001 18.3578 30.4183 15 26.0001 15C21.5819 15 18.0001 18.3578 18.0001 22.5C18.0001 26.6421 21.5819 30 26.0001 30Z" fill="white" stroke="#B8C0CC" stroke-width="1.88"/>
<path d="M35.624 45.9999C35.9766 46.0031 36.3255 45.9286 36.6449 45.7823C36.9642 45.636 37.2458 45.4216 37.4688 45.1546C37.692 44.8876 37.851 44.5753 37.934 44.2402C38.017 43.9052 38.0218 43.5563 37.9485 43.2192C37.3075 40.5936 35.7797 38.2553 33.6117 36.5826C31.4439 34.9098 28.7623 34 26.0001 34C23.2379 34 20.5563 34.9098 18.3884 36.5826C16.2204 38.2553 14.6927 40.5936 14.0518 43.2192C13.9783 43.5563 13.9832 43.9052 14.0661 44.2402C14.1492 44.5753 14.3081 44.8876 14.5313 45.1546C14.7544 45.4216 15.036 45.636 15.3553 45.7823C15.6746 45.9286 16.0233 46.0031 16.376 45.9999H35.624Z" fill="white" stroke="#B8C0CC" stroke-width="1.88"/>
<path d="M48.7417 12.5591H50.5407C50.579 12.5591 50.6173 12.5591 50.6556 12.5197C50.6938 12.5197 50.7321 12.4803 50.7704 12.4409C50.8087 12.4016 50.8087 12.3622 50.8469 12.3228C50.8469 12.2835 50.8852 12.2441 50.8852 12.2047V10.3543C50.8852 10.315 50.8852 10.2756 50.8469 10.2362C50.8469 10.1968 50.8087 10.1575 50.7704 10.1181C50.7321 10.0787 50.6938 10.0787 50.6556 10.0394C50.6173 10.0394 50.579 10 50.5407 10H48.7417C47.8613 10 47.0192 10.3543 46.4068 10.9843C45.7943 11.6142 45.4498 12.4803 45.4498 13.3858V15.5512H43.3446C43.3063 15.5512 43.268 15.5512 43.2297 15.5906C43.1915 15.5906 43.1532 15.6299 43.1149 15.6693C43.0766 15.7087 43.0766 15.748 43.0383 15.7874C43.0383 15.8268 43.0001 15.8661 43.0001 15.9055V17.7559C43.0001 17.7953 43.0001 17.8346 43.0383 17.874C43.0383 17.9134 43.0766 17.9528 43.1149 17.9921C43.1532 18.0315 43.1915 18.0315 43.2297 18.0709C43.268 18.0709 43.3063 18.1102 43.3446 18.1102H45.4498V24.6457C45.4498 24.685 45.4498 24.7244 45.4881 24.7638C45.5264 24.8032 45.5264 24.8425 45.5647 24.8819C45.6029 24.9213 45.6412 24.9213 45.6795 24.9606C45.7178 24.9606 45.756 25 45.7943 25H47.5934C47.6316 25 47.6699 25 47.7082 24.9606C47.7465 24.9606 47.7847 24.9213 47.823 24.8819C47.8613 24.8425 47.8613 24.8032 47.8996 24.7638C47.8996 24.7244 47.9379 24.685 47.9379 24.6457V18.1102H50.0431C50.1197 18.1102 50.158 18.1102 50.2345 18.0709C50.2728 18.0315 50.3111 17.9921 50.3493 17.9134L50.9618 16.063C50.9618 16.0236 51.0001 15.9843 51.0001 15.9449C51.0001 15.9055 51.0001 15.8661 50.9618 15.8268C50.9235 15.7874 50.9235 15.748 50.8852 15.748C50.8469 15.7087 50.8087 15.7087 50.7704 15.7087H47.9379V13.5433C47.9379 13.3071 48.0527 13.0709 48.2058 12.874C48.2441 12.6378 48.4737 12.5591 48.7417 12.5591Z" fill="#2196F3"/>
<path d="M40.9013 3.78834C40.9013 3.26994 40.7818 2.71166 40.5827 2.23313C40.4235 1.79448 40.1846 1.39571 39.8262 1.07669C39.5076 0.75767 39.1095 0.478529 38.6714 0.31902C38.1538 0.119633 37.6362 0.0398797 37.1185 0.0398797C36.4416 2.43332e-06 36.2027 0 34.4507 0C32.6987 0 32.4996 2.43332e-06 31.7828 0.0398797C31.2652 0.0398797 30.7077 0.15951 30.2299 0.358896C29.7919 0.518405 29.3937 0.75767 29.0752 1.11657C28.7566 1.43558 28.4779 1.83436 28.3186 2.27301C28.1195 2.79141 28.0399 3.30982 28.0399 3.82822C28.0001 4.50614 28.0001 4.7454 28.0001 6.5C28.0001 8.2546 28.0001 8.45399 28.0399 9.17178C28.0399 9.69018 28.1593 10.2485 28.3584 10.727C28.5177 11.1656 28.7566 11.5644 29.115 11.8834C29.4335 12.2025 29.8317 12.4816 30.2697 12.6411C30.7874 12.8405 31.305 12.9202 31.8226 12.9601C32.4996 13 32.7385 13 34.4905 13C36.2425 13 36.4416 13 37.1583 12.9601C37.676 12.9601 38.2334 12.8405 38.7113 12.6411C39.1493 12.4816 39.5076 12.2423 39.866 11.8834C40.2244 11.5245 40.4235 11.1656 40.6226 10.727C40.8217 10.2086 40.9013 9.69018 40.9411 9.17178C40.9809 8.49386 40.9809 8.2546 40.9809 6.5C40.9809 4.7454 40.9411 4.50613 40.9013 3.78834ZM39.7465 9.05215C39.7465 9.45092 39.6669 9.84969 39.5076 10.2485C39.3882 10.5276 39.2289 10.7669 39.0298 11.0061C38.8307 11.2055 38.552 11.365 38.2733 11.4847C37.8751 11.6442 37.4769 11.684 37.0787 11.7239C36.4018 11.7638 36.2027 11.7638 34.4905 11.7638C32.7783 11.7638 32.5792 11.7638 31.9023 11.7239C31.5041 11.7239 31.1059 11.6442 30.7077 11.4847C30.429 11.365 30.1901 11.2055 29.9512 11.0061C29.7521 10.8067 29.5928 10.5276 29.4734 10.2485C29.3141 9.84969 29.2743 9.45092 29.2344 9.05215C29.1946 8.37423 29.1946 8.17485 29.1946 6.46012C29.1946 4.7454 29.1946 4.54601 29.2344 3.8681C29.2344 3.46933 29.3141 3.07055 29.4734 2.67178C29.5928 2.39264 29.7521 2.15337 29.9512 1.91411C30.1503 1.71472 30.429 1.55522 30.7077 1.43559C31.1059 1.27608 31.5041 1.2362 31.9023 1.19632C32.5792 1.15644 32.7783 1.15644 34.4905 1.15644C36.2027 1.15644 36.4018 1.15644 37.0787 1.19632C37.4769 1.19632 37.8751 1.27608 38.2733 1.43559C38.552 1.55522 38.7909 1.71472 39.0298 1.91411C39.2289 2.1135 39.3882 2.39264 39.5076 2.67178C39.6669 3.07055 39.7067 3.46933 39.7465 3.8681C39.7864 4.54601 39.7864 4.7454 39.7864 6.46012C39.7864 8.17485 39.7864 8.37423 39.7465 9.05215Z" fill="url(#paint0_linear)"/>
<path d="M34.5303 3.15033C33.8932 3.15033 33.2561 3.34972 32.6986 3.70861C32.1412 4.06751 31.743 4.58591 31.4643 5.18407C31.2254 5.78223 31.1457 6.46015 31.2652 7.09819C31.3846 7.73622 31.7032 8.33438 32.181 8.77303C32.6588 9.25156 33.2163 9.57058 33.8534 9.69021C34.4905 9.80984 35.1674 9.76997 35.7647 9.49082C36.362 9.25156 36.8796 8.81291 37.238 8.25463C37.5963 7.69635 37.7954 7.05831 37.7954 6.42027C37.7954 5.54297 37.4371 4.70555 36.8398 4.06751C36.2425 3.50923 35.4063 3.15033 34.5303 3.15033ZM34.5303 8.61352C34.0923 8.61352 33.6941 8.49389 33.3357 8.25463C32.9774 8.01536 32.6986 7.69635 32.5394 7.29757C32.3801 6.8988 32.3403 6.46015 32.4199 6.06138C32.4996 5.6626 32.6986 5.26383 33.0172 4.94481C33.3357 4.62579 33.6941 4.4264 34.1321 4.34665C34.5303 4.26689 34.9683 4.30677 35.3665 4.46628C35.7647 4.62579 36.0832 4.90493 36.3221 5.26383C36.5611 5.62273 36.6805 6.0215 36.6805 6.46015C36.6805 6.73929 36.6407 7.01843 36.5212 7.29757C36.4018 7.57671 36.2425 7.7761 36.0434 7.97549C35.8443 8.17487 35.6054 8.33438 35.3665 8.45402C35.0878 8.53377 34.809 8.61352 34.5303 8.61352Z" fill="url(#paint1_linear)"/>
<path d="M38.7116 3.03062C38.7116 3.1901 38.6718 3.34959 38.5922 3.4692C38.5125 3.58881 38.393 3.70843 38.2337 3.7483C38.0744 3.78817 37.9549 3.82804 37.7956 3.78817C37.6363 3.7483 37.5169 3.66855 37.3974 3.58881C37.2779 3.4692 37.1982 3.34959 37.1982 3.1901C37.1982 3.03062 37.1982 2.87113 37.2381 2.75152C37.2779 2.59204 37.3974 2.47242 37.5169 2.39268C37.6363 2.31294 37.7956 2.27307 37.9549 2.27307C38.1541 2.27307 38.3532 2.35281 38.5125 2.5123C38.632 2.63191 38.7116 2.83127 38.7116 3.03062Z" fill="url(#paint2_linear)"/>
<circle cx="39" cy="42" r="5.5" fill="white" stroke="#5F45FF"/>
<path d="M39 39V45" stroke="#5F45FF" stroke-linecap="round"/>
<path d="M42 42L36 42" stroke="#5F45FF" stroke-linecap="round"/>
<defs>
<linearGradient id="paint0_linear" x1="29.1581" y1="11.8155" x2="39.8793" y2="1.11034" gradientUnits="userSpaceOnUse">
<stop stop-color="#FFD600"/>
<stop offset="0.5" stop-color="#FF0100"/>
<stop offset="1" stop-color="#D800B9"/>
</linearGradient>
<linearGradient id="paint1_linear" x1="32.1746" y1="8.79433" x2="36.8584" y2="4.11739" gradientUnits="userSpaceOnUse">
<stop stop-color="#FF6400"/>
<stop offset="0.5" stop-color="#FF0100"/>
<stop offset="1" stop-color="#FD0056"/>
</linearGradient>
<linearGradient id="paint2_linear" x1="37.3993" y1="3.56337" x2="38.4938" y2="2.4701" gradientUnits="userSpaceOnUse">
<stop stop-color="#F30072"/>
<stop offset="1" stop-color="#E50097"/>
</linearGradient>
</defs>
</svg>
