<svg width="50" height="61" viewBox="0 0 50 61" fill="none" xmlns="http://www.w3.org/2000/svg">
<path d="M21.0115 18C12.5266 18 7 22.9245 7 22.9245C7 22.9245 7.42042 27.7152 9.2932 35.9798C11.1583 44.2221 11.3647 50.4187 11.3647 50.4187C11.3647 50.4187 15.3855 53 20.9885 53C26.5916 53 30.6429 50.4187 30.6429 50.4187C30.6429 50.4187 30.8417 44.237 32.7144 35.9798C34.5796 27.7375 35 22.9245 35 22.9245C35 22.9245 29.504 18 21.0115 18Z" stroke="#B8C0CC" stroke-width="1.5" stroke-miterlimit="10"/>
<path d="M9 34C9 34 5.45539 43.4092 6.53088 57.624C6.53088 57.624 2.82283 55.2377 1.69918 48.4206C0.583551 41.6035 -0.154849 30.4115 7.33349 22.6001" stroke="#B8C0CC" stroke-width="1.5" stroke-miterlimit="10"/>
<path d="M41.8893 28.3611C40.4607 27.7884 35.2779 23.3262 35.2779 23.3262L33.8276 32C33.8276 32 37.4448 37.6261 42.4676 36.0067C46.5585 34.6878 48.251 29.84 48.4285 25.5453C48.8788 14.6476 42.3586 12.3306 42.3586 12.3306C42.3586 12.3306 46 23.3262 40.5 31" stroke="#B8C0CC" stroke-width="1.5" stroke-miterlimit="10" stroke-linecap="round"/>
<path d="M21 15C24.866 15 28 11.866 28 8C28 4.13401 24.866 1 21 1C17.134 1 14 4.13401 14 8C14 11.866 17.134 15 21 15Z" stroke="#B8C0CC" stroke-width="1.5" stroke-miterlimit="10"/>
<path d="M28.0489 41.927C28.3483 41.0057 29.6517 41.0057 29.9511 41.9271L31.2451 45.9098C31.379 46.3219 31.763 46.6008 32.1962 46.6008H36.3839C37.3527 46.6008 37.7554 47.8404 36.9717 48.4098L33.5838 50.8713C33.2333 51.126 33.0866 51.5773 33.2205 51.9894L34.5146 55.9721C34.8139 56.8934 33.7595 57.6596 32.9757 57.0902L29.5878 54.6287C29.2373 54.374 28.7627 54.374 28.4122 54.6287L25.0243 57.0902C24.2405 57.6596 23.1861 56.8934 23.4854 55.9721L24.7795 51.9894C24.9134 51.5773 24.7667 51.126 24.4162 50.8713L21.0283 48.4098C20.2446 47.8404 20.6473 46.6008 21.6161 46.6008H25.8038C26.237 46.6008 26.621 46.3219 26.7549 45.9098L28.0489 41.927Z" fill="#5F45FF"/>
<path d="M18.0367 26.0241L20.3737 18.4565C20.5162 17.995 21.1653 17.9837 21.3238 18.4399L23.9541 26.0109C23.9841 26.0972 23.9899 26.1901 23.9708 26.2795L21.3413 38.5782C21.2273 39.1117 20.463 39.103 20.3612 38.567L18.0232 26.265C18.008 26.1848 18.0126 26.1021 18.0367 26.0241Z" stroke="#B8C0CC" stroke-width="1.5" stroke-linejoin="round"/>
</svg>
