<svg width="69" height="72" viewBox="0 0 69 72" fill="none" xmlns="http://www.w3.org/2000/svg">
<g clip-path="url(#clip0)">
<path d="M67.1143 70.4871H1.1002L4.51553 35.7263H63.7994L67.1143 70.4871Z" stroke="#B8C0CC" stroke-width="2" stroke-miterlimit="10" stroke-linejoin="round"/>
<path d="M47.3482 46.589L31.7335 25.0545L30.8065 15.8566L33.8001 8.33793L37.9919 4.10426L42.2583 2.06057L47.1865 0.965576L50.7154 1.69527L57.7508 4.76125L61.9426 10.0899L63.8135 16.5871L62.8136 27.2344L47.3482 46.589Z" fill="white"/>
<path d="M63.8135 18.3025C63.8135 30.6208 47.0776 46.589 47.0776 46.589C47.0776 46.589 30.8065 30.6208 30.8065 18.3025C30.8065 9.48349 36.85 0.965576 47.0776 0.965576C57.305 0.965576 63.8135 9.48349 63.8135 18.3025Z" stroke="#5F45FF" stroke-width="2"/>
<path d="M47.3101 22.6911C50.3483 22.6911 52.8112 20.2594 52.8112 17.2597C52.8112 14.2601 50.3483 11.8284 47.3101 11.8284C44.2718 11.8284 41.8089 14.2601 41.8089 17.2597C41.8089 20.2594 44.2718 22.6911 47.3101 22.6911Z" stroke="#5F45FF" stroke-width="2"/>
<path d="M26.3124 57.7569L7.88913 32.0364L6.79549 21.0505L10.3275 12.0703L15.2733 7.01368L20.3069 4.57274L26.1216 3.26489L30.2853 4.13643L38.586 7.79839L43.5318 14.1629L45.7392 21.9231L44.5595 34.64L26.3124 57.7569Z" fill="white"/>
<path d="M46.2098 24.3205C46.2098 38.9852 26.1267 57.9949 26.1267 57.9949C26.1267 57.9949 6.60138 38.9852 6.60138 24.3205C6.60138 13.8217 13.8537 3.68127 26.1267 3.68127C38.3997 3.68127 46.2098 13.8217 46.2098 24.3205Z" stroke="#5F45FF" stroke-width="2"/>
<path d="M26.4056 29.2087C30.0515 29.2087 33.007 26.2907 33.007 22.6911C33.007 19.0915 30.0515 16.1735 26.4056 16.1735C22.7598 16.1735 19.8042 19.0915 19.8042 22.6911C19.8042 26.2907 22.7598 29.2087 26.4056 29.2087Z" stroke="#5F45FF" stroke-width="2"/>
</g>
<defs>
<clipPath id="clip0">
<rect width="68.459" height="71.4526" fill="white"/>
</clipPath>
</defs>
</svg>
