<svg width="66" height="72" viewBox="0 0 66 72" fill="none" xmlns="http://www.w3.org/2000/svg">
<g clip-path="url(#clip0)">
<path d="M30.7538 35.1691V35.169C30.7538 34.1625 31.5642 33.3516 32.5578 33.3516C33.5515 33.3516 34.3619 34.1626 34.3619 35.169C34.3619 35.8944 33.9387 36.5191 33.3264 36.8109L33.0414 36.9466V37.2623V40.0793C33.0414 40.3524 32.8222 40.5687 32.5577 40.5687C32.2933 40.5687 32.074 40.3523 32.074 40.0793V37.2623V36.9467L31.7891 36.8109C31.177 36.5191 30.7537 35.8944 30.7538 35.1691Z" fill="#5F45FF" stroke="#5F45FF"/>
<path d="M1.22972 13.0893C7.92496 13.0893 14.0623 8.04347 14.0623 1.31567H50.9656C50.9656 8.04347 57.1087 13.0893 63.8103 13.0893C63.8103 29.9088 66.0132 54.0167 32.5051 70.8362C-0.971104 54.0167 1.22972 29.9088 1.22972 13.0893Z" stroke="#B8C0CC" stroke-width="2" stroke-linejoin="round"/>
<path d="M41.16 26.2996V20.8683C41.16 16.0689 37.2918 12.1782 32.52 12.1782C27.7483 12.1782 23.88 16.0689 23.88 20.8683V26.2996" stroke="#5F45FF" stroke-width="2"/>
<path d="M43.68 27.2651H21.36C20.2996 27.2651 19.44 28.1297 19.44 29.1963V45.128C19.44 46.1946 20.2996 47.0592 21.36 47.0592H43.68C44.7404 47.0592 45.6 46.1946 45.6 45.128V29.1963C45.6 28.1297 44.7404 27.2651 43.68 27.2651Z" stroke="#5F45FF" stroke-width="2"/>
</g>
<defs>
<clipPath id="clip0">
<rect width="65.28" height="71.4517" fill="white" transform="translate(0 0.350098)"/>
</clipPath>
</defs>
</svg>
