<svg width="535" height="308" viewBox="0 0 535 308" fill="none" xmlns="http://www.w3.org/2000/svg">
<path opacity="0.1" d="M31.1694 307C31.1694 307 -40.8604 220.765 34.075 137.312C117.269 44.6953 186.699 150.566 213.156 132.567C253.07 105.403 273.104 -14.7036 387.036 1.49609C527.273 21.4594 497.91 147.457 487.205 190.002C478.03 226.329 541.189 248.092 512.439 307H31.1694Z" fill="#B8C0CC"/>
<path d="M66.8811 306.5C66.8811 306.5 24.7811 262.6 32.7811 249.7C38.9811 239.6 56.4811 254 58.6811 246.4C60.8811 238.8 37.8811 209.3 54.1811 198.6C70.4811 187.9 79.7811 213.5 80.6811 220.2C81.5811 226.9 79.2811 247.6 86.2811 248.9C93.2811 250.1 105.081 223.1 117.581 228.9C130.181 234.7 118.481 275.9 90.7811 306.5H66.8811Z" fill="#EAEFF4"/>
<path d="M77.1811 306.5C67.4811 277.6 46.0811 258.3 46.0811 258.3" stroke="#D1DAE5" stroke-width="1.8833" stroke-miterlimit="10" stroke-linecap="round" stroke-linejoin="round"/>
<path d="M63.3811 217.1C85.2811 282.9 82.1811 306.5 82.1811 306.5" stroke="#D1DAE5" stroke-width="1.8833" stroke-miterlimit="10" stroke-linecap="round" stroke-linejoin="round"/>
<path d="M86.6811 306.5C86.6811 306.5 89.7811 268.1 110.381 243.7" stroke="#D1DAE5" stroke-width="1.8833" stroke-miterlimit="10" stroke-linecap="round" stroke-linejoin="round"/>
<path d="M20.4814 306.5H533.181" stroke="#D1DAE5" stroke-width="1.8833" stroke-miterlimit="10" stroke-linecap="round" stroke-linejoin="round"/>
<path d="M357.261 241.06H113.739C110.151 241.06 106.921 239.933 104.608 238.158C102.294 236.384 100.94 234.004 100.94 231.461V76.5389C100.94 73.9962 102.294 71.6163 104.608 69.8416C106.921 68.067 110.151 66.94 113.739 66.94H357.261C360.849 66.94 364.079 68.067 366.392 69.8416C368.706 71.6163 370.06 73.9962 370.06 76.5389V231.461C370.06 234.004 368.706 236.384 366.392 238.158C364.079 239.933 360.849 241.06 357.261 241.06Z" fill="#F8F9FA" stroke="#D1DAE5" stroke-width="1.88"/>
<path d="M122 213H247" stroke="#D1DAE5" stroke-width="1.88" stroke-linecap="round" stroke-linejoin="round"/>
<path d="M122 201H247" stroke="#D1DAE5" stroke-width="1.88" stroke-linecap="round" stroke-linejoin="round"/>
<path d="M122 225H247" stroke="#D1DAE5" stroke-width="1.88" stroke-linecap="round" stroke-linejoin="round"/>
<path d="M266.165 115H330.468" stroke="#D1DAE5" stroke-width="1.88" stroke-linecap="round" stroke-linejoin="round"/>
<path d="M266.165 132H330.468" stroke="#D1DAE5" stroke-width="1.88" stroke-linecap="round" stroke-linejoin="round"/>
<path d="M266.165 166H330.468" stroke="#D1DAE5" stroke-width="1.88" stroke-linecap="round" stroke-linejoin="round"/>
<path d="M266.165 149H330.468" stroke="#D1DAE5" stroke-width="1.88" stroke-linecap="round" stroke-linejoin="round"/>
<path d="M266.165 183H330.468" stroke="#D1DAE5" stroke-width="1.88" stroke-linecap="round" stroke-linejoin="round"/>
<path d="M432.9 182.8H362C359.8 182.8 358 181 358 178.8V120C358 117.8 359.8 116 362 116H432.9C435.1 116 436.9 117.8 436.9 120V178.8C436.9 181 435.1 182.8 432.9 182.8Z" fill="white" stroke="#D1DAE5" stroke-width="1.8833" stroke-miterlimit="10" stroke-linecap="round" stroke-linejoin="round"/>
<path d="M374.522 136.569C374.7 133.98 372.745 131.736 370.155 131.558C367.566 131.38 365.322 133.335 365.144 135.925C364.966 138.514 366.921 140.758 369.51 140.936C372.1 141.114 374.344 139.159 374.522 136.569Z" fill="#D1DAE5"/>
<path d="M385.5 165.1C385.5 165.1 367.3 158.7 370.3 136.2" stroke="#D1DAE5" stroke-width="1.8833" stroke-miterlimit="10" stroke-linecap="round" stroke-linejoin="round"/>
<path d="M383.901 182.6H430.801V161C430.801 145.3 418.101 132.6 402.401 132.6H402.501C386.901 132.6 374.101 145.3 374.101 160.9V161C374.001 169.6 377.901 177.6 383.901 182.6Z" fill="white"/>
<path opacity="0.6" d="M425.801 160.8V182.6H430.801V160.8C430.801 145.2 418.301 132.6 402.601 132.6H402.701C401.201 132.6 399.701 132.6 398.301 132.9C410.001 132.6 425.801 141.1 425.801 160.8Z" fill="#EAEFF4"/>
<path d="M430.801 182.6V161C430.801 145.3 418.101 132.6 402.401 132.6H402.501C386.901 132.6 374.101 145.3 374.101 160.9V161C374.101 169.6 377.901 177.6 383.901 182.6" stroke="#D1DAE5" stroke-width="2" stroke-miterlimit="10" stroke-linecap="round" stroke-linejoin="round"/>
<path d="M396.1 156.6C397.039 156.6 397.8 155.391 397.8 153.9C397.8 152.409 397.039 151.2 396.1 151.2C395.162 151.2 394.4 152.409 394.4 153.9C394.4 155.391 395.162 156.6 396.1 156.6Z" fill="#B8C0CC"/>
<path d="M387 156.6C387.939 156.6 388.7 155.391 388.7 153.9C388.7 152.409 387.939 151.2 387 151.2C386.061 151.2 385.3 152.409 385.3 153.9C385.3 155.391 386.061 156.6 387 156.6Z" fill="#B8C0CC"/>
<path d="M432.9 100.8H362C359.8 100.8 358 99 358 96.8V38C358 35.8 359.8 34 362 34H432.9C435.1 34 436.9 35.8 436.9 38V96.8C436.9 99 435.1 100.8 432.9 100.8Z" fill="white"/>
<path d="M381.6 100.4H428.8V79.3999C428.8 63.6999 415.9 50.3999 400.2 50.3999C384.6 50.3999 371.8 63.3999 371.8 78.9999V78.8999C371.7 87.5999 375.6 95.3999 381.6 100.4Z" fill="white"/>
<path opacity="0.6" d="M423.8 79.2999V100.4H428.8V79.2999C428.8 63.6999 416.1 50.3999 400.5 50.3999C399 50.3999 397.7 50.6999 396.2 50.9999C407.8 50.6999 423.8 59.5999 423.8 79.2999Z" fill="#EAEFF4"/>
<path d="M428.8 100.4V79.3999C428.8 63.6999 415.9 50.3999 400.2 50.3999C384.6 50.3999 371.8 63.3999 371.8 78.9999V78.8999C371.8 87.4999 375.6 95.3999 381.6 100.4" stroke="#D1DAE5" stroke-width="2" stroke-miterlimit="10" stroke-linecap="round" stroke-linejoin="round"/>
<path d="M380.2 75.0001C381.139 75.0001 381.9 73.7913 381.9 72.3001C381.9 70.8089 381.139 69.6001 380.2 69.6001C379.261 69.6001 378.5 70.8089 378.5 72.3001C378.5 73.7913 379.261 75.0001 380.2 75.0001Z" fill="#B8C0CC"/>
<path d="M392.3 75.0001C393.239 75.0001 394 73.7913 394 72.3001C394 70.8089 393.239 69.6001 392.3 69.6001C391.361 69.6001 390.6 70.8089 390.6 72.3001C390.6 73.7913 391.361 75.0001 392.3 75.0001Z" fill="#B8C0CC"/>
<path d="M432.9 100.8H362C359.8 100.8 358 99 358 96.8V38C358 35.8 359.8 34 362 34H432.9C435.1 34 436.9 35.8 436.9 38V96.8C436.9 99 435.1 100.8 432.9 100.8Z" stroke="#D1DAE5" stroke-width="1.8833" stroke-miterlimit="10" stroke-linecap="round" stroke-linejoin="round"/>
<path d="M418.07 49.1133C420.63 48.6809 422.354 46.2555 421.921 43.6961C421.489 41.1367 419.063 39.4125 416.504 39.8449C413.945 40.2774 412.22 42.7027 412.653 45.2621C413.085 47.8215 415.511 49.5458 418.07 49.1133Z" fill="#D1DAE5"/>
<path d="M418.4 80.9001C418.4 80.9001 423.6 62.5001 416.7 44.6001" stroke="#D1DAE5" stroke-width="1.8833" stroke-miterlimit="10" stroke-linecap="round" stroke-linejoin="round"/>
<path d="M383.9 80.4H368.5C367.3 80.4 366.4 79.4 366.4 78.3V66.1C366.4 64.9 367.4 64 368.5 64H383.9C385.1 64 386 65 386 66.1V78.2C386.1 79.4 385.1 80.4 383.9 80.4Z" stroke="#D1DAE5" stroke-width="1.8833" stroke-miterlimit="10" stroke-linecap="round" stroke-linejoin="round"/>
<path d="M403.6 80.4H388.2C387 80.4 386.1 79.4 386.1 78.3V66.1C386.1 64.9 387.1 64 388.2 64H403.6C404.8 64 405.7 65 405.7 66.1V78.2C405.8 79.4 404.8 80.4 403.6 80.4Z" stroke="#D1DAE5" stroke-width="1.8833" stroke-miterlimit="10" stroke-linecap="round" stroke-linejoin="round"/>
<path d="M362 264.8H432.9C435.1 264.8 436.9 263 436.9 260.8V202C436.9 199.8 435.1 198 432.9 198H362C359.8 198 358 199.8 358 202V260.8C358.1 263 359.8 264.8 362 264.8Z" fill="white"/>
<path d="M375.392 218.711C375.57 216.122 373.615 213.878 371.025 213.7C368.436 213.522 366.192 215.477 366.014 218.067C365.836 220.656 367.791 222.9 370.38 223.078C372.97 223.256 375.213 221.301 375.392 218.711Z" fill="#D1DAE5"/>
<path d="M386.4 247.3C386.4 247.3 368.2 240.9 371.2 218.4" stroke="#D1DAE5" stroke-width="1.8833" stroke-miterlimit="10" stroke-linecap="round" stroke-linejoin="round"/>
<path d="M384.8 264.7H431.7V243.1C431.7 227.4 419 214.7 403.3 214.7H403.4C387.8 214.7 375 227.4 375 243V243.1C375 251.7 378.8 259.7 384.8 264.7Z" fill="white"/>
<path opacity="0.6" d="M426.7 243V264.8H431.7V243C431.7 227.4 419.2 214.8 403.5 214.8H403.6C402.1 214.8 400.6 214.8 399.2 215.1C410.9 214.7 426.7 223.2 426.7 243Z" fill="#EAEFF4"/>
<path d="M431.7 264.7V243.1C431.7 227.4 419 214.7 403.3 214.7H403.4C387.8 214.7 375 227.4 375 243V243.1C375 251.7 378.8 259.7 384.8 264.7" stroke="#D1DAE5" stroke-width="2" stroke-miterlimit="10" stroke-linecap="round" stroke-linejoin="round"/>
<path d="M397 238.7C397.939 238.7 398.7 237.491 398.7 236C398.7 234.509 397.939 233.3 397 233.3C396.061 233.3 395.3 234.509 395.3 236C395.3 237.491 396.061 238.7 397 238.7Z" fill="#B8C0CC"/>
<path d="M387.9 238.7C388.839 238.7 389.6 237.491 389.6 236C389.6 234.509 388.839 233.3 387.9 233.3C386.961 233.3 386.2 234.509 386.2 236C386.2 237.491 386.961 238.7 387.9 238.7Z" fill="#B8C0CC"/>
<path d="M432.995 265H362.005C359.802 265 358 263.222 358 261.048V202.952C358 200.778 359.802 199 362.005 199H432.995C435.198 199 437 200.778 437 202.952V261.048C437 263.222 435.198 265 432.995 265Z" stroke="#D1DAE5" stroke-width="1.8833" stroke-miterlimit="10" stroke-linecap="round" stroke-linejoin="round"/>
<path d="M414.5 245C412.6 245 411 243.4 411 241.5V239C411 237.1 412.6 235.5 414.5 235.5C416.4 235.5 418 237.1 418 239V241.5C418 243.4 416.4 245 414.5 245Z" stroke="#D1DAE5" stroke-width="1.8833" stroke-miterlimit="10" stroke-linecap="round" stroke-linejoin="round"/>
<path d="M414.5 235.4C414.5 221.8 398.7 207 391.6 217.3" stroke="#D1DAE5" stroke-width="1.8833" stroke-miterlimit="10" stroke-linecap="round" stroke-linejoin="round"/>
<rect x="119" y="86" width="212" height="9" rx="4.5" fill="#EAEFF4"/>
<rect x="122" y="113" width="126" height="74" rx="10" fill="#EAEFF4"/>
<path d="M195.4 148.6L177 159.2V138L195.4 148.6Z" fill="white" stroke="#D1DAE5" stroke-width="1.8833" stroke-miterlimit="10" stroke-linecap="round" stroke-linejoin="round"/>
<rect x="262.5" y="203.5" width="77" height="21" rx="10.5" stroke="#5F45FF"/>
<path d="M276.693 218.066C276.128 218.088 275.846 217.894 275.846 217.483C275.846 217.307 275.894 217.175 275.989 217.087C276.077 216.992 276.22 216.937 276.418 216.922L276.77 216.9C277.071 216.885 277.298 216.79 277.452 216.614C277.606 216.438 277.683 216.17 277.683 215.811V210.894C277.683 210.681 277.745 210.513 277.87 210.388C278.002 210.256 278.174 210.19 278.387 210.19C278.607 210.19 278.779 210.256 278.904 210.388C279.036 210.513 279.102 210.681 279.102 210.894V215.811C279.102 217.197 278.416 217.941 277.045 218.044L276.693 218.066ZM283.11 218.088C282.56 218.088 282.076 217.974 281.658 217.747C281.248 217.52 280.929 217.193 280.701 216.768C280.474 216.343 280.36 215.848 280.36 215.283C280.36 214.718 280.474 214.227 280.701 213.809C280.929 213.384 281.248 213.057 281.658 212.83C282.076 212.603 282.56 212.489 283.11 212.489C283.66 212.489 284.141 212.603 284.551 212.83C284.969 213.057 285.288 213.384 285.508 213.809C285.736 214.227 285.849 214.718 285.849 215.283C285.849 215.848 285.736 216.343 285.508 216.768C285.288 217.193 284.969 217.52 284.551 217.747C284.141 217.974 283.66 218.088 283.11 218.088ZM283.099 217.021C283.547 217.021 283.888 216.874 284.122 216.581C284.357 216.288 284.474 215.855 284.474 215.283C284.474 214.718 284.357 214.289 284.122 213.996C283.888 213.695 283.55 213.545 283.11 213.545C282.67 213.545 282.329 213.695 282.087 213.996C281.853 214.289 281.735 214.718 281.735 215.283C281.735 215.855 281.853 216.288 282.087 216.581C282.322 216.874 282.659 217.021 283.099 217.021ZM287.667 218.066C287.469 218.066 287.304 218.011 287.172 217.901C287.047 217.784 286.985 217.619 286.985 217.406V213.16C286.985 212.947 287.047 212.786 287.172 212.676C287.304 212.566 287.469 212.511 287.667 212.511C287.865 212.511 288.03 212.566 288.162 212.676C288.294 212.786 288.36 212.947 288.36 213.16V217.406C288.36 217.619 288.294 217.784 288.162 217.901C288.03 218.011 287.865 218.066 287.667 218.066ZM287.667 211.532C287.417 211.532 287.219 211.466 287.073 211.334C286.926 211.195 286.853 211.015 286.853 210.795C286.853 210.575 286.926 210.399 287.073 210.267C287.219 210.135 287.417 210.069 287.667 210.069C287.909 210.069 288.103 210.135 288.25 210.267C288.404 210.399 288.481 210.575 288.481 210.795C288.481 211.015 288.407 211.195 288.261 211.334C288.114 211.466 287.916 211.532 287.667 211.532ZM292.902 212.489C293.547 212.489 294.027 212.672 294.343 213.039C294.658 213.406 294.816 213.959 294.816 214.7V217.406C294.816 217.611 294.753 217.773 294.629 217.89C294.511 218.007 294.346 218.066 294.134 218.066C293.921 218.066 293.752 218.007 293.628 217.89C293.503 217.773 293.441 217.611 293.441 217.406V214.777C293.441 214.359 293.36 214.055 293.199 213.864C293.045 213.673 292.799 213.578 292.462 213.578C292.066 213.578 291.747 213.703 291.505 213.952C291.27 214.201 291.153 214.535 291.153 214.953V217.406C291.153 217.611 291.09 217.773 290.966 217.89C290.841 218.007 290.672 218.066 290.46 218.066C290.247 218.066 290.078 218.007 289.954 217.89C289.836 217.773 289.778 217.611 289.778 217.406V213.149C289.778 212.958 289.84 212.804 289.965 212.687C290.089 212.57 290.258 212.511 290.471 212.511C290.661 212.511 290.815 212.57 290.933 212.687C291.057 212.797 291.12 212.944 291.12 213.127V213.424C291.303 213.123 291.549 212.892 291.857 212.731C292.165 212.57 292.513 212.489 292.902 212.489ZM302.784 218.099C302.036 218.099 301.38 217.938 300.815 217.615C300.258 217.292 299.829 216.83 299.528 216.229C299.228 215.628 299.077 214.924 299.077 214.117C299.077 213.31 299.228 212.61 299.528 212.016C299.829 211.415 300.258 210.953 300.815 210.63C301.38 210.307 302.036 210.146 302.784 210.146C303.268 210.146 303.723 210.219 304.148 210.366C304.574 210.505 304.951 210.711 305.281 210.982C305.377 211.055 305.443 211.132 305.479 211.213C305.516 211.294 305.534 211.393 305.534 211.51C305.534 211.671 305.49 211.807 305.402 211.917C305.314 212.027 305.208 212.082 305.083 212.082C304.937 212.082 304.786 212.031 304.632 211.928C304.317 211.693 304.024 211.532 303.752 211.444C303.481 211.349 303.18 211.301 302.85 211.301C302.088 211.301 301.508 211.539 301.112 212.016C300.724 212.493 300.529 213.193 300.529 214.117C300.529 215.048 300.724 215.752 301.112 216.229C301.508 216.706 302.088 216.944 302.85 216.944C303.166 216.944 303.455 216.896 303.719 216.801C303.991 216.706 304.295 216.544 304.632 216.317C304.706 216.273 304.779 216.236 304.852 216.207C304.926 216.178 305.003 216.163 305.083 216.163C305.208 216.163 305.314 216.218 305.402 216.328C305.49 216.438 305.534 216.574 305.534 216.735C305.534 216.845 305.516 216.944 305.479 217.032C305.443 217.113 305.377 217.19 305.281 217.263C304.951 217.534 304.574 217.743 304.148 217.89C303.723 218.029 303.268 218.099 302.784 218.099ZM307.335 218.066C307.137 218.066 306.972 218.011 306.84 217.901C306.716 217.784 306.653 217.619 306.653 217.406V210.839C306.653 210.626 306.716 210.465 306.84 210.355C306.972 210.245 307.137 210.19 307.335 210.19C307.533 210.19 307.698 210.245 307.83 210.355C307.962 210.465 308.028 210.626 308.028 210.839V217.406C308.028 217.619 307.962 217.784 307.83 217.901C307.698 218.011 307.533 218.066 307.335 218.066ZM311.778 212.489C312.526 212.489 313.08 212.676 313.439 213.05C313.806 213.417 313.989 213.978 313.989 214.733V217.417C313.989 217.615 313.931 217.773 313.813 217.89C313.696 218 313.535 218.055 313.329 218.055C313.139 218.055 312.981 217.996 312.856 217.879C312.739 217.762 312.68 217.608 312.68 217.417V217.175C312.556 217.461 312.358 217.685 312.086 217.846C311.822 218.007 311.514 218.088 311.162 218.088C310.803 218.088 310.477 218.015 310.183 217.868C309.89 217.721 309.659 217.52 309.49 217.263C309.322 217.006 309.237 216.72 309.237 216.405C309.237 216.009 309.336 215.697 309.534 215.47C309.74 215.243 310.07 215.078 310.524 214.975C310.979 214.872 311.606 214.821 312.405 214.821H312.68V214.568C312.68 214.209 312.603 213.948 312.449 213.787C312.295 213.618 312.046 213.534 311.701 213.534C311.489 213.534 311.272 213.567 311.052 213.633C310.832 213.692 310.572 213.78 310.271 213.897C310.081 213.992 309.941 214.04 309.853 214.04C309.721 214.04 309.611 213.992 309.523 213.897C309.443 213.802 309.402 213.677 309.402 213.523C309.402 213.398 309.432 213.292 309.49 213.204C309.556 213.109 309.663 213.021 309.809 212.94C310.066 212.801 310.37 212.691 310.722 212.61C311.082 212.529 311.434 212.489 311.778 212.489ZM311.437 217.098C311.804 217.098 312.101 216.977 312.328 216.735C312.563 216.486 312.68 216.167 312.68 215.778V215.547H312.482C311.991 215.547 311.61 215.569 311.338 215.613C311.067 215.657 310.873 215.734 310.755 215.844C310.638 215.954 310.579 216.104 310.579 216.295C310.579 216.53 310.66 216.724 310.821 216.878C310.99 217.025 311.195 217.098 311.437 217.098ZM317.334 218.088C316.535 218.088 315.889 217.93 315.398 217.615C315.163 217.476 315.046 217.278 315.046 217.021C315.046 216.874 315.086 216.757 315.167 216.669C315.248 216.574 315.347 216.526 315.464 216.526C315.589 216.526 315.761 216.585 315.981 216.702C316.216 216.812 316.428 216.896 316.619 216.955C316.817 217.014 317.066 217.043 317.367 217.043C317.675 217.043 317.913 216.992 318.082 216.889C318.258 216.786 318.346 216.643 318.346 216.46C318.346 216.335 318.309 216.236 318.236 216.163C318.17 216.09 318.045 216.024 317.862 215.965C317.686 215.899 317.415 215.826 317.048 215.745C316.395 215.613 315.926 215.426 315.64 215.184C315.361 214.942 315.222 214.608 315.222 214.183C315.222 213.86 315.317 213.571 315.508 213.314C315.699 213.05 315.959 212.848 316.289 212.709C316.626 212.562 317.008 212.489 317.433 212.489C317.741 212.489 318.038 212.529 318.324 212.61C318.61 212.683 318.867 212.793 319.094 212.94C319.329 213.087 319.446 213.281 319.446 213.523C319.446 213.67 319.406 213.794 319.325 213.897C319.244 213.992 319.145 214.04 319.028 214.04C318.947 214.04 318.867 214.025 318.786 213.996C318.713 213.959 318.617 213.908 318.5 213.842C318.287 213.732 318.104 213.651 317.95 213.6C317.796 213.541 317.605 213.512 317.378 213.512C317.107 213.512 316.89 213.567 316.729 213.677C316.575 213.787 316.498 213.937 316.498 214.128C316.498 214.311 316.579 214.451 316.74 214.546C316.901 214.641 317.213 214.737 317.675 214.832C318.166 214.935 318.551 215.052 318.83 215.184C319.109 215.316 319.307 215.481 319.424 215.679C319.549 215.877 319.611 216.13 319.611 216.438C319.611 216.937 319.402 217.336 318.984 217.637C318.573 217.938 318.023 218.088 317.334 218.088ZM322.673 218.088C321.873 218.088 321.228 217.93 320.737 217.615C320.502 217.476 320.385 217.278 320.385 217.021C320.385 216.874 320.425 216.757 320.506 216.669C320.586 216.574 320.685 216.526 320.803 216.526C320.927 216.526 321.1 216.585 321.32 216.702C321.554 216.812 321.767 216.896 321.958 216.955C322.156 217.014 322.405 217.043 322.706 217.043C323.014 217.043 323.252 216.992 323.421 216.889C323.597 216.786 323.685 216.643 323.685 216.46C323.685 216.335 323.648 216.236 323.575 216.163C323.509 216.09 323.384 216.024 323.201 215.965C323.025 215.899 322.753 215.826 322.387 215.745C321.734 215.613 321.265 215.426 320.979 215.184C320.7 214.942 320.561 214.608 320.561 214.183C320.561 213.86 320.656 213.571 320.847 213.314C321.037 213.05 321.298 212.848 321.628 212.709C321.965 212.562 322.346 212.489 322.772 212.489C323.08 212.489 323.377 212.529 323.663 212.61C323.949 212.683 324.205 212.793 324.433 212.94C324.667 213.087 324.785 213.281 324.785 213.523C324.785 213.67 324.744 213.794 324.664 213.897C324.583 213.992 324.484 214.04 324.367 214.04C324.286 214.04 324.205 214.025 324.125 213.996C324.051 213.959 323.956 213.908 323.839 213.842C323.626 213.732 323.443 213.651 323.289 213.6C323.135 213.541 322.944 213.512 322.717 213.512C322.445 213.512 322.229 213.567 322.068 213.677C321.914 213.787 321.837 213.937 321.837 214.128C321.837 214.311 321.917 214.451 322.079 214.546C322.24 214.641 322.552 214.737 323.014 214.832C323.505 214.935 323.89 215.052 324.169 215.184C324.447 215.316 324.645 215.481 324.763 215.679C324.887 215.877 324.95 216.13 324.95 216.438C324.95 216.937 324.741 217.336 324.323 217.637C323.912 217.938 323.362 218.088 322.673 218.088Z" fill="#5F45FF"/>
<path d="M137.654 261.44C176.444 273.127 203.637 250.879 203.637 250.879" stroke="#D1DAE5" stroke-width="1.88" stroke-linecap="round" stroke-linejoin="round"/>
<path d="M72 284.217V256.505C71.9978 250.03 73.2742 243.618 75.7563 237.636C78.2383 231.654 81.8775 226.217 86.4658 221.638C91.0541 217.059 96.5017 213.427 102.497 210.949C108.493 208.47 114.919 207.195 121.409 207.195H122.124C128.613 207.195 135.038 208.47 141.033 210.948C147.027 213.425 152.474 217.057 157.062 221.635C161.649 226.213 165.288 231.648 167.77 237.629C170.253 243.61 171.529 250.02 171.528 256.494V257.212C171.529 263.686 170.251 270.096 167.768 276.077C165.284 282.058 161.644 287.492 157.055 292.069C152.467 296.646 147.019 300.277 141.023 302.753C135.028 305.229 128.602 306.502 122.113 306.5H85.9224C73.5686 306.522 72.1172 296.542 72 284.217Z" fill="white"/>
<path d="M72.7372 256.527V299.137C72.7676 300.998 73.5251 302.773 74.8483 304.085C76.1716 305.397 77.9559 306.141 79.8212 306.16H89.2107C87.3455 306.135 85.5635 305.385 84.2445 304.069C82.9255 302.753 82.1736 300.976 82.149 299.115V256.527C82.149 222.131 109.804 207.222 130.04 207.69C127.468 207.327 124.873 207.141 122.275 207.133C109.155 207.193 96.5901 212.42 87.313 221.675C78.0358 230.93 72.7974 243.466 72.7372 256.555V256.527Z" fill="#EAEFF4"/>
<path d="M72.1618 296.949V256.293C72.1647 243.222 77.3705 230.686 86.6348 221.443C95.899 212.199 108.463 207.004 121.566 207H122.286C128.775 207 135.201 208.275 141.196 210.753C147.191 213.231 152.638 216.863 157.225 221.442C161.813 226.021 165.452 231.456 167.934 237.438C170.416 243.42 171.692 249.83 171.69 256.304V257.023C171.691 263.498 170.414 269.91 167.931 275.893C165.448 281.875 161.807 287.311 157.218 291.89C152.629 296.468 147.18 300.1 141.183 302.577C135.187 305.055 128.759 306.329 122.269 306.327H81.5736C79.0811 306.316 76.6939 305.323 74.9314 303.564C73.1689 301.806 72.1735 299.424 72.1618 296.938V296.949Z" stroke="#D1DAE5" stroke-width="2" stroke-miterlimit="10"/>
<path d="M206.57 248.138C207.199 248.763 207.591 249.587 207.679 250.469C207.766 251.351 207.544 252.236 207.05 252.972C206.626 253.601 206.026 254.092 205.325 254.381C204.621 254.671 203.847 254.747 203.1 254.599C202.353 254.452 201.667 254.087 201.127 253.551C200.591 253.016 200.226 252.334 200.077 251.591C199.924 250.844 200 250.067 200.295 249.363C200.538 248.781 200.922 248.268 201.411 247.869C201.9 247.469 202.48 247.196 203.1 247.073C203.72 246.951 204.361 246.982 204.966 247.165C205.571 247.348 206.122 247.676 206.57 248.121V248.138Z" fill="#D1DAE5"/>
<path d="M139.858 250.014C146.616 250.014 152.094 244.536 152.094 237.778C152.094 231.02 146.616 225.541 139.858 225.541C133.1 225.541 127.621 231.02 127.621 237.778C127.621 244.536 133.1 250.014 139.858 250.014Z" fill="white" stroke="#D1DAE5" stroke-width="1.8833" stroke-miterlimit="10" stroke-linecap="round" stroke-linejoin="round"/>
<path d="M164.207 250.014C170.965 250.014 176.444 244.536 176.444 237.778C176.444 231.02 170.965 225.541 164.207 225.541C157.449 225.541 151.971 231.02 151.971 237.778C151.971 244.536 157.449 250.014 164.207 250.014Z" fill="white" stroke="#D1DAE5" stroke-width="1.8833" stroke-miterlimit="10" stroke-linecap="round" stroke-linejoin="round"/>
<path d="M159.769 241.239C160.93 241.239 161.87 239.744 161.87 237.901C161.87 236.058 160.93 234.564 159.769 234.564C158.609 234.564 157.668 236.058 157.668 237.901C157.668 239.744 158.609 241.239 159.769 241.239Z" fill="#B8C0CC"/>
<path d="M143.813 241.239C144.973 241.239 145.914 239.744 145.914 237.901C145.914 236.058 144.973 234.564 143.813 234.564C142.652 234.564 141.712 236.058 141.712 237.901C141.712 239.744 142.652 241.239 143.813 241.239Z" fill="#B8C0CC"/>
<rect x="40.94" y="0.94" width="99.12" height="76.12" rx="9.06" fill="white" stroke="#D1DAE5" stroke-width="1.88"/>
<path d="M42 10C42 5.58172 45.5817 2 50 2H131C135.418 2 139 5.58172 139 10V14H42V10Z" fill="#F6F7F9"/>
<path d="M54.2659 10.6864C55.9854 10.3959 57.1439 8.76633 56.8533 7.04675C56.5628 5.32717 54.9333 4.16871 53.2137 4.45926C51.4941 4.74981 50.3356 6.37935 50.6262 8.09893C50.9167 9.81851 52.5463 10.977 54.2659 10.6864Z" fill="#D1DAE5"/>
<path d="M73.0779 10.6864C74.7974 10.3959 75.9559 8.76633 75.6654 7.04675C75.3748 5.32717 73.7453 4.16871 72.0257 4.45926C70.3061 4.74981 69.1476 6.37935 69.4382 8.09893C69.7287 9.81851 71.3583 10.977 73.0779 10.6864Z" fill="#D1DAE5"/>
<path d="M63.6721 10.6864C65.3917 10.3959 66.5501 8.76633 66.2596 7.04675C65.9691 5.32717 64.3395 4.16871 62.6199 4.45926C60.9004 4.74981 59.7419 6.37935 60.0324 8.09893C60.323 9.81851 61.9525 10.977 63.6721 10.6864Z" fill="#D1DAE5"/>
<rect x="63.94" y="27.94" width="51.12" height="36.12" rx="4.06" stroke="#D1DAE5" stroke-width="1.88"/>
<path d="M68.0839 28H111C113.209 28 115 29.7909 115 32L89.5 45L64.1038 33L64.0847 32.083C64.0382 29.8419 65.8423 28 68.0839 28Z" fill="#EAEFF4" stroke="#D1DAE5" stroke-width="1.88"/>
<path d="M115.961 19C117.658 19 119.317 19.4968 120.729 20.4277C122.14 21.3585 123.24 22.6815 123.889 24.2294C124.539 25.7773 124.709 27.4806 124.378 29.1238C124.046 30.7671 123.229 32.2765 122.029 33.4612C120.829 34.646 119.3 35.4528 117.635 35.7796C115.97 36.1065 114.245 35.9387 112.677 35.2975C111.109 34.6564 109.769 33.5706 108.826 32.1776C107.883 30.7845 107.379 29.1466 107.379 27.4712C107.379 25.2245 108.284 23.0698 109.893 21.4811C111.502 19.8925 113.685 19 115.961 19Z" fill="#5F45FF"/>
<path d="M117.94 30.112C118.07 30.1021 118.2 30.1413 118.303 30.2216C118.345 30.2615 118.377 30.3097 118.398 30.363C118.419 30.4164 118.428 30.4735 118.424 30.5305C118.424 30.8163 118.263 30.9591 117.94 30.9591H114.568C114.238 30.9591 114.073 30.8163 114.073 30.5305C114.07 30.473 114.079 30.4155 114.101 30.362C114.123 30.3086 114.156 30.2607 114.199 30.2216C114.304 30.1418 114.435 30.1028 114.568 30.112H115.729V25.1389L114.689 25.7867C114.628 25.8245 114.558 25.8452 114.487 25.8465C114.429 25.8458 114.372 25.8319 114.32 25.806C114.269 25.7801 114.224 25.7428 114.189 25.697C114.107 25.6028 114.062 25.4824 114.063 25.3581C114.061 25.286 114.079 25.2148 114.115 25.1517C114.15 25.0886 114.202 25.0361 114.265 24.9993L115.82 24.0227C115.952 23.9366 116.105 23.8883 116.264 23.8831C116.331 23.8807 116.398 23.8919 116.46 23.9159C116.523 23.9398 116.579 23.9762 116.627 24.0227C116.676 24.073 116.713 24.1326 116.737 24.1977C116.762 24.2628 116.772 24.3321 116.769 24.4014V30.112H117.94Z" fill="white"/>
<path d="M203.5 251.5L234.5 211.5" stroke="#D1DAE5" stroke-width="1.88" stroke-linecap="round"/>
</svg>
