<svg width="54" height="53" viewBox="0 0 54 53" fill="none" xmlns="http://www.w3.org/2000/svg">
<path d="M0 52.095L2.35403e-06 25.168C3.82075e-06 8.39066 6.13334 0.00133226 18.4 0C19.754 1.1837e-07 21.828 0.0889986 24.622 0.266999V10.691C16.1387 10.691 11.8997 14.613 11.905 22.457L12.044 27.192H20.835V52.095H0ZM50.9 27.195H42.113L41.978 22.457C41.9773 15.0643 45.8557 11.143 53.613 10.693V0.269004C51.1803 0.0956705 49.4673 0.00833602 48.474 0.0070026C36.2073 0.00700153 30.074 8.39633 30.074 25.175V52.1H50.913V27.2L50.9 27.195Z" fill="url(#paint0_linear)"/>
<defs>
<linearGradient id="paint0_linear" x1="3.3189" y1="6.38962" x2="57.6718" y2="9.62309" gradientUnits="userSpaceOnUse">
<stop stop-color="#647DEE"/>
<stop offset="1" stop-color="#7F53AC"/>
</linearGradient>
</defs>
</svg>
