<svg width="106" height="110" viewBox="0 0 106 110" fill="none" xmlns="http://www.w3.org/2000/svg">
<path d="M52.7524 104.702C81.8868 104.702 105.505 81.264 105.505 52.3512C105.505 23.4384 81.8868 0 52.7524 0C23.6181 0 0 23.4384 0 52.3512C0 81.264 23.6181 104.702 52.7524 104.702Z" fill="#F2F5FA"/>
<rect x="23.8929" y="33.7222" width="55.6549" height="34.6379" rx="2" fill="white" stroke="#B8C0CC" stroke-width="2"/>
<path d="M87.7694 89.2266H70.6504C69.2944 89.2266 68.221 88.1532 68.221 86.7972V54.5366C68.221 53.1806 69.2944 52.1072 70.6504 52.1072H87.7694C89.1254 52.1072 90.1989 53.1806 90.1989 54.5366V86.7972C90.1989 88.1532 89.1254 89.2266 87.7694 89.2266Z" fill="#B8C0CC"/>
<path d="M86.9117 85.4979H71.5648C70.8222 85.4979 70.2281 84.8199 70.2281 83.9724V56.4012C70.2281 55.5537 70.8222 54.8757 71.5648 54.8757H86.9117C87.6542 54.8757 88.2483 55.5537 88.2483 56.4012V83.9724C88.2483 84.8199 87.6542 85.4979 86.9117 85.4979Z" fill="white"/>
<path d="M79.2947 88.7181C79.9811 88.7181 80.5376 88.1617 80.5376 87.4751C80.5376 86.7887 79.9811 86.2322 79.2947 86.2322C78.6082 86.2322 78.0517 86.7887 78.0517 87.4751C78.0517 88.1617 78.6082 88.7181 79.2947 88.7181Z" fill="white"/>
<rect x="49.522" y="67.761" width="4.39685" height="11.2893" fill="#B8C0CC"/>
<path d="M52.1176 50.3022C54.9452 50.3022 57.2375 48.1025 57.2375 45.3892C57.2375 42.6759 54.9452 40.4763 52.1176 40.4763C49.29 40.4763 46.9976 42.6759 46.9976 45.3892C46.9976 48.1025 49.29 50.3022 52.1176 50.3022Z" fill="#FCFDFF" stroke="#B8C0CC" stroke-width="2"/>
<path d="M58.316 60.8347C58.5431 60.8367 58.7678 60.7896 58.9734 60.6971C59.1791 60.6046 59.3604 60.469 59.5041 60.3002C59.6478 60.1315 59.7501 59.9339 59.8036 59.722C59.857 59.5103 59.8602 59.2897 59.8129 59.0765C59.4001 57.4162 58.4163 55.9377 57.0201 54.8801C55.6239 53.8224 53.8969 53.2471 52.1181 53.2471C50.3392 53.2471 48.6122 53.8224 47.2161 54.8801C45.8199 55.9377 44.836 57.4162 44.4232 59.0765C44.3759 59.2897 44.3791 59.5103 44.4325 59.722C44.486 59.9339 44.5884 60.1315 44.7321 60.3002C44.8757 60.469 45.0571 60.6046 45.2627 60.6971C45.4684 60.7896 45.693 60.8367 45.9201 60.8347H58.316Z" fill="#FCFDFF" stroke="#B8C0CC" stroke-width="2"/>
<g clip-path="url(#clip0)">
<path d="M56.1956 86.8665L56.3483 87.2204L56.7025 87.3768C57.0957 87.5504 57.8692 87.9677 58.6175 88.3889C59.3573 88.8052 59.9847 89.1758 60.1084 89.2566C60.1109 89.2592 60.1365 89.2825 60.1736 89.3469C60.2065 89.4042 60.2385 89.4768 60.2657 89.56V91.9762C60.2657 92.0934 60.2419 92.1492 60.2336 92.1646C60.2298 92.1718 60.2279 92.173 60.229 92.172C60.2301 92.171 60.2283 92.1733 60.219 92.1779C60.0558 92.259 59.6508 92.4929 59.1851 92.7617C58.9878 92.8756 58.7796 92.9958 58.5742 93.1133C57.8311 93.5388 57.0897 93.9509 56.7025 94.122L56.3483 94.2783L56.1956 94.6321L55.0098 97.3803L54.8486 97.7541L55.0006 98.1316C55.1693 98.5505 55.401 99.3913 55.6149 100.229C55.7012 100.567 55.7811 100.89 55.8494 101.166C55.8633 101.222 55.8767 101.276 55.8896 101.328L55.8921 101.338C55.9475 101.562 56.0027 101.784 56.043 101.924C56.0613 102.035 56.0522 102.094 56.0464 102.117C56.0416 102.136 56.0352 102.152 56.0098 102.177L54.2319 103.943C54.2318 103.943 54.2078 103.963 54.1479 103.977C54.082 103.992 54.0196 103.989 53.9838 103.98L53.961 103.974L53.938 103.97C53.4924 103.881 50.9635 103.206 50.1043 102.921L49.7479 102.803L49.4026 102.95L46.636 104.128L46.2797 104.28L46.1223 104.631C45.9475 105.022 45.5273 105.791 45.1033 106.534C44.7027 107.236 44.3443 107.836 44.2422 107.996C44.1154 108.153 44.0066 108.171 43.9621 108.171H41.4918C41.3739 108.171 41.3177 108.147 41.3022 108.139C41.2974 108.137 41.2952 108.135 41.2946 108.134C41.2944 108.134 41.2942 108.134 41.294 108.134C41.293 108.132 41.2912 108.13 41.2887 108.125C41.2071 107.962 40.9717 107.56 40.7011 107.098C40.5864 106.902 40.4654 106.695 40.347 106.491C39.9188 105.753 39.5038 105.016 39.3317 104.631L39.1743 104.28L38.818 104.128L36.0513 102.95L35.6751 102.79L35.2951 102.941C34.8734 103.109 34.0269 103.339 33.1835 103.551C32.8433 103.637 32.5183 103.716 32.2405 103.784C32.184 103.798 32.1294 103.811 32.0771 103.824L32.0668 103.827C31.8418 103.882 31.6177 103.936 31.4773 103.977C31.3656 103.995 31.306 103.986 31.2824 103.98C31.2637 103.975 31.2481 103.969 31.2227 103.944L29.4448 102.177C29.445 102.177 29.4249 102.154 29.4108 102.094C29.3953 102.028 29.3986 101.967 29.4076 101.931L29.4133 101.908L29.4179 101.886C29.507 101.443 30.1869 98.9309 30.4733 98.0774L30.5921 97.7234L30.4441 97.3803L29.2584 94.6321L29.1057 94.2783L28.7515 94.122C28.3582 93.9483 27.5847 93.531 26.8364 93.1097C26.1295 92.7119 25.525 92.3559 25.3648 92.2545C25.2061 92.1286 25.1883 92.0205 25.1883 91.9762V89.4243C25.1883 89.3877 25.1986 89.3411 25.2198 89.2989C25.2271 89.2844 25.2338 89.274 25.239 89.2669C25.4383 89.1594 25.7832 88.9603 26.17 88.737C26.3673 88.623 26.5756 88.5028 26.7809 88.3853C27.524 87.96 28.2653 87.5477 28.6527 87.3768L29.0069 87.2204L29.1596 86.8665L30.3453 84.1183L30.5065 83.7446L30.3545 83.3671C30.1858 82.9482 29.9542 82.1073 29.7402 81.2696C29.6539 80.9318 29.574 80.609 29.5058 80.3331C29.4919 80.277 29.4784 80.2227 29.4655 80.1707L29.4629 80.1602C29.4085 79.9407 29.3544 79.7221 29.3142 79.5823C29.3093 79.5385 29.3161 79.5108 29.3248 79.4878C29.3386 79.4512 29.3714 79.3942 29.4441 79.322L29.4541 79.3121L29.4638 79.3018L31.1249 77.5548C31.1312 77.5504 31.1561 77.5342 31.2073 77.5222C31.2732 77.5068 31.3355 77.5101 31.3712 77.519L31.394 77.5247L31.4171 77.5292C31.8628 77.6178 34.3916 78.2931 35.2508 78.5776L35.6072 78.6956L35.9525 78.5486L38.7192 77.3708L39.0755 77.2191L39.2329 76.8673C39.4077 76.4766 39.8278 75.7082 40.2518 74.965C40.6524 74.2628 41.0108 73.6624 41.1129 73.5033C41.2397 73.3456 41.3485 73.3279 41.393 73.3279H43.9621C43.9975 73.3279 44.0246 73.337 44.04 73.3457C44.0471 73.3498 44.0515 73.3535 44.0546 73.3567C44.0574 73.3596 44.0616 73.3646 44.0664 73.3742C44.148 73.5364 44.3834 73.9387 44.654 74.4012C44.7688 74.5973 44.8897 74.8041 45.0081 75.008C45.4363 75.7462 45.8513 76.4825 46.0234 76.8673L46.1808 77.2191L46.5372 77.3708L49.3038 78.5486L49.68 78.7087L50.06 78.5577C50.4817 78.3901 51.3282 78.1601 52.1716 77.9476C52.5118 77.8618 52.8367 77.7825 53.1144 77.7147C53.171 77.7008 53.2256 77.6875 53.2779 77.6747L53.2885 77.6721C53.5134 77.6171 53.7374 77.5623 53.8778 77.5222C53.9895 77.504 54.0492 77.5131 54.0728 77.519C54.0914 77.5236 54.107 77.53 54.1324 77.5553L54.1418 77.5646L54.1516 77.5737L56.0101 79.3228C56.0144 79.3287 56.031 79.3535 56.0431 79.4048C56.0586 79.4703 56.0553 79.5321 56.0464 79.5676L56.0407 79.5903L56.036 79.6133C55.9469 80.0559 55.2671 82.5678 54.9806 83.4212L54.8619 83.7753L55.0098 84.1183L56.1956 86.8665ZM35.9585 90.7003C35.9585 94.3831 38.9699 97.3744 42.6776 97.3744C46.3852 97.3744 49.3966 94.3831 49.3966 90.7003C49.3966 87.0174 46.3852 84.0261 42.6776 84.0261C38.9699 84.0261 35.9585 87.0174 35.9585 90.7003Z" fill="white" stroke="#5F45FF" stroke-width="2" stroke-linecap="round" stroke-linejoin="round"/>
</g>
<defs>
<clipPath id="clip0">
<rect width="38" height="38" fill="white" transform="translate(24.1316 71.5754)"/>
</clipPath>
</defs>
</svg>
