<svg width="59" height="61" viewBox="0 0 59 61" fill="none" xmlns="http://www.w3.org/2000/svg">
<path d="M36.9654 41.4768C36.9654 41.4768 54.3083 41.2367 55.1185 46.4876C55.9386 51.7385 44.4967 59.9999 29.3342 59.9999C14.1717 59.9999 2.72974 51.7385 3.53988 46.4876C4.35001 41.2367 21.6929 41.4768 21.6929 41.4768" stroke="#B8C0CC" stroke-width="1.5" stroke-miterlimit="10"/>
<path d="M18.2424 20.6533C18.2424 20.6533 9.71094 37.1661 2.99982 44.1972C2.99982 44.1972 15.7219 39.3964 20.0527 30.535" stroke="#B8C0CC" stroke-width="1.5" stroke-miterlimit="10"/>
<path d="M40.5261 20.6533C40.5261 20.6533 49.0575 37.1661 55.7686 44.1972C55.7686 44.1972 43.0465 39.3964 38.7158 30.535" stroke="#B8C0CC" stroke-width="1.5" stroke-miterlimit="10"/>
<path d="M29.3142 14.6824C33.4049 14.6824 36.7254 11.3919 36.7254 7.34122C36.7254 3.28055 33.4049 0 29.3142 0C25.2235 0 21.903 3.29055 21.903 7.34122C21.903 11.3919 25.2235 14.6824 29.3142 14.6824Z" fill="#5F45FF"/>
<path d="M29.3342 16.9229C22.6131 16.9229 18.2424 20.6535 18.2424 20.6535C18.2424 20.6535 18.5724 24.2841 20.0527 30.5351C21.5329 36.7762 21.6929 41.4669 21.6929 41.4669C21.6929 41.4669 24.8735 43.4173 29.3142 43.4173C33.755 43.4173 36.9555 41.4669 36.9555 41.4669C36.9555 41.4669 37.1155 36.7862 38.5958 30.5351C40.076 24.2941 40.4061 20.6535 40.4061 20.6535C40.4061 20.6535 36.0553 16.9229 29.3342 16.9229Z" stroke="#B8C0CC" stroke-width="1.5" stroke-miterlimit="10"/>
<path d="M25.5035 17.343C25.5035 17.343 25.5035 19.7834 25.5035 20.6536C25.5035 21.5237 25.7636 24.3542 29.3142 24.3542C32.8648 24.3542 33.2948 21.7538 33.2948 20.6536C33.2948 19.5534 33.2948 17.363 33.2948 17.363" stroke="#B8C0CC" stroke-width="1.5" stroke-miterlimit="10"/>
<path d="M14.5518 49.0681C20.3427 49.0681 22.9832 52.5487 29.3942 52.5487C35.8053 52.5487 38.7158 49.0681 44.1367 49.0681" stroke="#B8C0CC" stroke-width="1.5" stroke-miterlimit="10"/>
<path d="M33.5049 52.0488C34.6051 52.0488 40.496 52.999 40.496 58.4599" stroke="#B8C0CC" stroke-width="1.5" stroke-miterlimit="10"/>
</svg>
