<svg width="53" height="68" viewBox="0 0 53 68" fill="none" xmlns="http://www.w3.org/2000/svg">
<path d="M25.9668 41.1194C35.4317 41.1194 43.1046 33.4205 43.1046 23.9235C43.1046 14.4264 35.4317 6.72754 25.9668 6.72754C16.5019 6.72754 8.8291 14.4264 8.8291 23.9235C8.8291 33.4205 16.5019 41.1194 25.9668 41.1194Z" stroke="#B8C0CC" stroke-width="2" stroke-miterlimit="10"/>
<path d="M4.28223 16.6704C7.30967 7.57058 15.8719 1 25.9678 1C36.077 1 44.6526 7.58396 47.6667 16.7105" stroke="#B8C0CC" stroke-width="2" stroke-miterlimit="10"/>
<path d="M3.28058 30.7083C2.02693 30.7083 1 29.6779 1 28.42V19.2131C1 17.9552 2.02693 16.9248 3.28058 16.9248C4.53424 16.9248 5.56117 17.9552 5.56117 19.2131V28.42C5.56117 29.6779 4.53424 30.7083 3.28058 30.7083Z" stroke="#B8C0CC" stroke-width="2" stroke-miterlimit="10"/>
<path d="M48.7991 30.7083C47.5455 30.7083 46.5186 29.6779 46.5186 28.42V19.2131C46.5186 17.9552 47.5455 16.9248 48.7991 16.9248C50.0528 16.9248 51.0797 17.9552 51.0797 19.2131V28.42C51.0797 29.6779 50.0528 30.7083 48.7991 30.7083Z" stroke="#B8C0CC" stroke-width="2" stroke-miterlimit="10"/>
<path d="M49.7955 67.0004C49.8713 67.0004 49.9327 66.9389 49.9327 66.8631V66.8631C49.9327 55.1138 40.408 45.5938 28.6587 45.6028C26.9083 45.6041 25.1579 45.6053 23.4075 45.6061C11.6674 45.6117 2.13379 55.1224 2.13379 66.8626V66.8626C2.13379 66.9387 2.19548 67.0004 2.27157 67.0004H49.7955Z" stroke="#B8C0CC" stroke-width="2" stroke-miterlimit="10"/>
<path d="M42.1699 37.5462C42.1699 37.5462 48.7983 37.292 48.7983 30.708" stroke="#B8C0CC" stroke-width="2" stroke-miterlimit="10"/>
<path d="M42.1702 36.4089V38.6839C42.1702 39.9418 41.1433 40.9722 39.8897 40.9722H32.6878C31.4342 40.9722 30.4072 39.9418 30.4072 38.6839V36.4089C30.4072 35.151 31.4342 34.1206 32.6878 34.1206H39.8897C41.1433 34.1206 42.1702 35.151 42.1702 36.4089Z" fill="white" stroke="#11ABD5" stroke-width="2" stroke-miterlimit="10"/>
</svg>
