<svg width="20" height="20" viewBox="0 0 20 20" fill="none" xmlns="http://www.w3.org/2000/svg">
<path d="M15.0002 8.5V17.3164C15.0002 18.3383 14.2408 19.1667 13.3041 19.1667H2.52958C1.59286 19.1667 0.833496 18.3383 0.833496 17.3164V6.85025C0.833496 5.82839 1.59286 5 2.52958 5H11.7319" stroke="#FE5F75" stroke-width="1.5" stroke-linecap="round" stroke-linejoin="round"/>
<path d="M15.7764 1.40759L6.66206 10.4157L5.8335 14.1666L9.62784 13.3469L18.461 4.61589C18.9013 4.19132 19.1529 3.61134 19.1605 3.00345C19.2271 2.26272 18.7491 1.6087 18.5018 1.37428C18.1358 1.02171 17.6431 0.827157 17.1321 0.833398C16.6211 0.839639 16.1335 1.04618 15.7764 1.40759Z" stroke="#FE5F75" stroke-width="1.5" stroke-linecap="round" stroke-linejoin="round"/>
<path d="M15 2.5L17.5 5" stroke="#FE5F75" stroke-width="1.5" stroke-linecap="round" stroke-linejoin="round"/>
</svg>
