<svg xmlns="http://www.w3.org/2000/svg" width="218.62" height="176.299" viewBox="0 0 218.62 176.299">
  <g id="Layer_4" data-name="Layer 4" transform="translate(-784.993 -441)">
    <g id="Layer_2-2" data-name="Layer 2-2">
      <path id="Path_710" data-name="Path 710" d="M834.532,490.117a18.7,18.7,0,0,0,3.9-8.3,4.158,4.158,0,0,0-3.5-4.7h-.1a3.662,3.662,0,0,0-3.6,2.5s-2.3-1.8-4.4,0a4.115,4.115,0,0,0-.4,5.8l.1.1A18.455,18.455,0,0,0,834.532,490.117Z" fill="#fc9842"/>
      <path id="Path_716" data-name="Path 716" d="M798.232,486.917c2.2-5,2.6-8.7,2.3-11.1a4.937,4.937,0,0,0-5.249-4.6l-.051,0h-.4c-3.3.5-3.6,4.1-3.6,4.1s-3.3-1.5-5.3,1.2a5.1,5.1,0,0,0,1.2,7.1c.1,0,.1.1.2.1C789.432,485.117,792.832,486.417,798.232,486.917Z" fill="#fc9842"/>
      <path id="Path_717" data-name="Path 717" d="M852.732,463.617c7-3.2,10.8-6.7,12.8-9.5a7.152,7.152,0,0,0-1.3-10c-.1,0-.2-.1-.3-.2-4-2.6-7.6.9-7.6.9s-2.1-4.6-6.7-3.7a7.181,7.181,0,0,0-5.4,8.6.366.366,0,0,0,.1.3C845.232,453.417,847.432,458.017,852.732,463.617Z" fill="#fc9842"/>
      <g id="Group_392" data-name="Group 392">
        <path id="Rectangle_547" data-name="Rectangle 547" d="M46.347,0h0A46.033,46.033,0,0,1,92.38,46.033v0A46.347,46.347,0,0,1,46.033,92.38H7.462A7.462,7.462,0,0,1,0,84.918V46.347A46.347,46.347,0,0,1,46.347,0Z" transform="translate(794.289 486.74)" fill="#fff"/>
        <path id="Path_779" data-name="Path 779" d="M840.06,486.812h0a45.84,45.84,0,0,1,7.159.562c-18.833-.442-44.428,13.472-44.428,45.411v39.632a6.528,6.528,0,0,0,6.508,6.508h-8.705a6.527,6.527,0,0,1-6.507-6.508V532.785A46.107,46.107,0,0,1,840.06,486.812Z" fill="#eaeff4"/>
        <path id="Rectangle_548" data-name="Rectangle 548" d="M46.347,0h0A46.033,46.033,0,0,1,92.38,46.033v0A46.347,46.347,0,0,1,46.033,92.38H7.462A7.462,7.462,0,0,1,0,84.918V46.347A46.347,46.347,0,0,1,46.347,0Z" transform="translate(794.289 486.74)" fill="none" stroke="#b8c0cc" stroke-linecap="round" stroke-linejoin="round" stroke-width="1.883"/>
        <path id="Path_780" data-name="Path 780" d="M843.219,524.006a4.313,4.313,0,0,1,8.625,0" fill="none" stroke="#b8c0cc" stroke-linecap="round" stroke-linejoin="round" stroke-width="1.883"/>
        <path id="Path_781" data-name="Path 781" d="M863.269,524.006a4.313,4.313,0,0,1,8.625,0" fill="none" stroke="#b8c0cc" stroke-linecap="round" stroke-linejoin="round" stroke-width="1.883"/>
      </g>
      <g id="Layer_1-2" data-name="Layer 1-2">
        <path id="Path_719" data-name="Path 719" d="M918.632,595.117h-78.1a7.853,7.853,0,0,1-7.9-7.806V543.017a7.853,7.853,0,0,1,7.806-7.9h78.194a7.853,7.853,0,0,1,7.9,7.806v44.294A7.917,7.917,0,0,1,918.632,595.117Z" fill="#b8c0cc"/>
        <path id="Path_720" data-name="Path 720" d="M919.532,592.717h-73.8a5.55,5.55,0,0,1-5.5-5.5v-44.3a5.549,5.549,0,0,1,5.5-5.5h73.8a5.549,5.549,0,0,1,5.5,5.5v44.3a5.421,5.421,0,0,1-5.341,5.5Q919.612,592.719,919.532,592.717Z" fill="#fff"/>
        <circle id="Ellipse_196" data-name="Ellipse 196" cx="2.5" cy="2.5" r="2.5" transform="translate(833.832 563.817)" fill="#fff"/>
        <path id="Path_782" data-name="Path 782" d="M992.556,474.563h-79.43a4.206,4.206,0,0,0-4.194,4.193v24.93a4.206,4.206,0,0,0,4.194,4.194h34.705l4.112,5.3a1.315,1.315,0,0,0,2.078,0l4.112-5.3h34.423a4.206,4.206,0,0,0,4.194-4.194v-24.93A4.206,4.206,0,0,0,992.556,474.563Z" fill="none" stroke="#b8c0cc" stroke-linecap="round" stroke-linejoin="round" stroke-width="1.883"/>
        <g id="Group_393" data-name="Group 393">
          <path id="Path_783" data-name="Path 783" d="M851.307,556.107a.636.636,0,0,1-.174-.473V549.81a.592.592,0,0,1,.164-.448.62.62,0,0,1,.453-.16H854.2a2.532,2.532,0,0,1,1.752.563,2.3,2.3,0,0,1,0,3.161,2.519,2.519,0,0,1-1.752.568h-1.782v2.14a.6.6,0,0,1-.647.647A.625.625,0,0,1,851.307,556.107Zm2.733-3.6q1.324,0,1.324-1.155T854.04,550.2h-1.623v2.31Z" fill="#b8c0cc"/>
          <path id="Path_784" data-name="Path 784" d="M860.621,551.363a.485.485,0,0,1,.15.388.537.537,0,0,1-.13.4.794.794,0,0,1-.468.17l-.3.03a1.2,1.2,0,0,0-.86.4,1.3,1.3,0,0,0-.275.846v2.091a.554.554,0,0,1-.178.443.667.667,0,0,1-.449.154.643.643,0,0,1-.443-.154.562.562,0,0,1-.174-.443v-3.853a.532.532,0,0,1,.174-.428.642.642,0,0,1,.434-.15.6.6,0,0,1,.418.145.533.533,0,0,1,.159.413v.4a1.47,1.47,0,0,1,.562-.677,1.733,1.733,0,0,1,.831-.269l.14-.01A.538.538,0,0,1,860.621,551.363Z" fill="#b8c0cc"/>
          <path id="Path_785" data-name="Path 785" d="M865.336,555.017a.544.544,0,0,1,.1.348.6.6,0,0,1-.368.518,3.318,3.318,0,0,1-.767.3,3.169,3.169,0,0,1-.817.114,2.536,2.536,0,0,1-1.861-.676,2.485,2.485,0,0,1-.688-1.853,2.842,2.842,0,0,1,.3-1.324,2.175,2.175,0,0,1,.842-.9,2.386,2.386,0,0,1,1.23-.319,2.207,2.207,0,0,1,1.144.289,1.962,1.962,0,0,1,.757.817,2.694,2.694,0,0,1,.269,1.244c0,.286-.126.428-.378.428h-2.938a1.569,1.569,0,0,0,.389,1.011,1.3,1.3,0,0,0,.956.324,1.815,1.815,0,0,0,.562-.08,5.586,5.586,0,0,0,.553-.219,1.1,1.1,0,0,1,.438-.159A.336.336,0,0,1,865.336,555.017Zm-2.808-2.589a1.5,1.5,0,0,0-.364.916h2.251a1.423,1.423,0,0,0-.3-.921.985.985,0,0,0-.776-.313A1.069,1.069,0,0,0,862.528,552.428Z" fill="#b8c0cc"/>
          <path id="Path_786" data-name="Path 786" d="M868.258,550.407a1.083,1.083,0,0,0-.209.717v.229h.846c.372,0,.557.156.557.468s-.185.468-.557.468h-.846v3.4a.547.547,0,0,1-.175.438.654.654,0,0,1-.442.149.676.676,0,0,1-.449-.149.54.54,0,0,1-.179-.438v-3.4h-.5q-.558,0-.558-.468t.558-.468h.5v-.07a2.086,2.086,0,0,1,.493-1.469,2.027,2.027,0,0,1,1.389-.6l.258-.02a.907.907,0,0,1,.563.085.4.4,0,0,1,.165.353q0,.429-.488.478l-.259.02A.9.9,0,0,0,868.258,550.407Z" fill="#b8c0cc"/>
          <path id="Path_787" data-name="Path 787" d="M874.107,555.017a.539.539,0,0,1,.1.348.6.6,0,0,1-.368.518,3.344,3.344,0,0,1-.768.3,3.162,3.162,0,0,1-.816.114,2.539,2.539,0,0,1-1.862-.676,2.484,2.484,0,0,1-.687-1.853,2.841,2.841,0,0,1,.3-1.324,2.168,2.168,0,0,1,.842-.9,2.383,2.383,0,0,1,1.229-.319,2.211,2.211,0,0,1,1.145.289,1.954,1.954,0,0,1,.756.817,2.694,2.694,0,0,1,.27,1.244c0,.286-.127.428-.379.428h-2.937a1.569,1.569,0,0,0,.388,1.011,1.307,1.307,0,0,0,.956.324,1.822,1.822,0,0,0,.563-.08,5.681,5.681,0,0,0,.553-.219,1.1,1.1,0,0,1,.437-.159A.336.336,0,0,1,874.107,555.017Zm-2.807-2.589a1.5,1.5,0,0,0-.364.916h2.251a1.429,1.429,0,0,0-.3-.921.989.989,0,0,0-.777-.313A1.067,1.067,0,0,0,871.3,552.428Z" fill="#b8c0cc"/>
          <path id="Path_788" data-name="Path 788" d="M878.394,551.363a.488.488,0,0,1,.149.388.537.537,0,0,1-.13.4.791.791,0,0,1-.468.17l-.3.03a1.206,1.206,0,0,0-.86.4,1.3,1.3,0,0,0-.274.846v2.091a.555.555,0,0,1-.179.443.665.665,0,0,1-.448.154.645.645,0,0,1-.444-.154.561.561,0,0,1-.173-.443v-3.853a.532.532,0,0,1,.173-.428.644.644,0,0,1,.434-.15.6.6,0,0,1,.418.145.533.533,0,0,1,.159.413v.4a1.472,1.472,0,0,1,.563-.677,1.729,1.729,0,0,1,.831-.269l.139-.01A.54.54,0,0,1,878.394,551.363Z" fill="#b8c0cc"/>
          <path id="Path_789" data-name="Path 789" d="M879.041,555.873a.592.592,0,0,1-.318-.538.471.471,0,0,1,.109-.323.343.343,0,0,1,.269-.124,1.1,1.1,0,0,1,.467.159,4.508,4.508,0,0,0,.583.229,2.38,2.38,0,0,0,.672.079,1.283,1.283,0,0,0,.653-.139.432.432,0,0,0,.233-.388.37.37,0,0,0-.095-.269.861.861,0,0,0-.338-.184,7,7,0,0,0-.742-.194,2.855,2.855,0,0,1-1.269-.508,1.131,1.131,0,0,1-.383-.906,1.307,1.307,0,0,1,.259-.792,1.669,1.669,0,0,1,.712-.547,2.577,2.577,0,0,1,1.03-.2,3.108,3.108,0,0,1,.806.105,2.46,2.46,0,0,1,.7.3.6.6,0,0,1,.318.527.517.517,0,0,1-.109.334.336.336,0,0,1-.27.134.544.544,0,0,1-.214-.044,2.951,2.951,0,0,1-.263-.135,4.2,4.2,0,0,0-.5-.224,1.573,1.573,0,0,0-.518-.074,1,1,0,0,0-.582.149.468.468,0,0,0-.215.408.412.412,0,0,0,.22.378,3.085,3.085,0,0,0,.846.259,4.788,4.788,0,0,1,1.045.319,1.221,1.221,0,0,1,.543.448,1.3,1.3,0,0,1,.164.687,1.276,1.276,0,0,1-.562,1.085,2.493,2.493,0,0,1-1.5.408A3.192,3.192,0,0,1,879.041,555.873Z" fill="#b8c0cc"/>
          <path id="Path_790" data-name="Path 790" d="M883.919,552.523a.73.73,0,0,1-.209-.533.747.747,0,0,1,1.265-.528.723.723,0,0,1,.209.528.738.738,0,0,1-.209.533.758.758,0,0,1-1.056,0Zm0,3.544a.783.783,0,0,1,0-1.065.758.758,0,0,1,1.056,0,.783.783,0,0,1,0,1.065.758.758,0,0,1-1.056,0Z" fill="#b8c0cc"/>
          <path id="Path_791" data-name="Path 791" d="M888.239,555.754a.494.494,0,0,1,.125-.364.607.607,0,0,1,.393-.144l.319-.02a.833.833,0,0,0,.617-.259,1.077,1.077,0,0,0,.209-.727v-4.45a.6.6,0,0,1,.637-.638.644.644,0,0,1,.474.175.625.625,0,0,1,.174.463v4.45a1.8,1.8,0,0,1-1.862,2.022l-.319.019Q888.24,556.311,888.239,555.754Z" fill="#b8c0cc"/>
          <path id="Path_792" data-name="Path 792" d="M893.5,555.993a2.137,2.137,0,0,1-.872-.887,3.066,3.066,0,0,1,0-2.683,2.151,2.151,0,0,1,.872-.881,2.927,2.927,0,0,1,2.618,0,2.114,2.114,0,0,1,.866.881,3.112,3.112,0,0,1,0,2.683,2.1,2.1,0,0,1-.866.887,2.935,2.935,0,0,1-2.618,0Zm2.225-1.055a2.314,2.314,0,0,0,0-2.345,1.1,1.1,0,0,0-.916-.4,1.111,1.111,0,0,0-.921.4,1.827,1.827,0,0,0-.324,1.169,1.85,1.85,0,0,0,.319,1.176,1.267,1.267,0,0,0,1.842,0Z" fill="#b8c0cc"/>
          <path id="Path_793" data-name="Path 793" d="M902.876,553.235v2.449a.583.583,0,0,1-.164.438.624.624,0,0,1-.453.159.641.641,0,0,1-.458-.159.567.567,0,0,1-.169-.438v-2.449a1.152,1.152,0,0,0-.214-.772.854.854,0,0,0-.673-.244,1.136,1.136,0,0,0-.861.339,1.257,1.257,0,0,0-.323.906v2.22a.575.575,0,0,1-.169.438.645.645,0,0,1-.458.159.627.627,0,0,1-.454-.159.583.583,0,0,1-.164-.438V549.73a.54.54,0,0,1,.174-.418.648.648,0,0,1,.453-.16.655.655,0,0,1,.449.15.519.519,0,0,1,.169.408v2.32a1.624,1.624,0,0,1,.662-.592,2.1,2.1,0,0,1,.941-.205Q902.877,551.233,902.876,553.235Z" fill="#b8c0cc"/>
          <path id="Path_794" data-name="Path 794" d="M908.272,551.731a2.255,2.255,0,0,1,.428,1.5v2.449a.579.579,0,0,1-.164.438.624.624,0,0,1-.453.159.643.643,0,0,1-.458-.159.571.571,0,0,1-.169-.438V553.3a1.289,1.289,0,0,0-.214-.826.826.826,0,0,0-.673-.259,1.136,1.136,0,0,0-.861.339,1.257,1.257,0,0,0-.323.906v2.22a.575.575,0,0,1-.169.438.643.643,0,0,1-.458.159.622.622,0,0,1-.453-.159.579.579,0,0,1-.164-.438v-3.853a.542.542,0,0,1,.169-.418.642.642,0,0,1,.458-.16.59.59,0,0,1,.422.155.526.526,0,0,1,.165.4v.269a1.683,1.683,0,0,1,.667-.627,2.009,2.009,0,0,1,.946-.22A1.627,1.627,0,0,1,908.272,551.731Z" fill="#b8c0cc"/>
          <path id="Path_795" data-name="Path 795" d="M851.292,568.01a.592.592,0,0,1-.159-.438v-5.834a.6.6,0,0,1,.637-.638.644.644,0,0,1,.473.174.633.633,0,0,1,.174.464v5.376h2.8q.6,0,.6.528c0,.352-.2.527-.6.527H851.74A.607.607,0,0,1,851.292,568.01Z" fill="#b8c0cc"/>
          <path id="Path_796" data-name="Path 796" d="M856.628,562.131a.627.627,0,0,1-.2-.483.612.612,0,0,1,.2-.478.889.889,0,0,1,1.07,0,.6.6,0,0,1,.2.478.627.627,0,0,1-.2.483.877.877,0,0,1-1.075,0Zm.1,5.944a.559.559,0,0,1-.174-.443v-3.843a.541.541,0,0,1,.174-.438.653.653,0,0,1,.443-.15.675.675,0,0,1,.448.15.538.538,0,0,1,.179.438v3.843a.555.555,0,0,1-.179.443.663.663,0,0,1-.448.154A.641.641,0,0,1,856.723,568.075Z" fill="#b8c0cc"/>
          <path id="Path_797" data-name="Path 797" d="M863.608,567.632a.581.581,0,0,1-.165.408.5.5,0,0,1-.382.179.582.582,0,0,1-.409-.179l-2.33-2.111v1.7a.54.54,0,0,1-.178.438.685.685,0,0,1-.449.149.659.659,0,0,1-.443-.149.547.547,0,0,1-.174-.438v-5.944a.544.544,0,0,1,.174-.438.655.655,0,0,1,.443-.15.68.68,0,0,1,.449.15.537.537,0,0,1,.178.438v3.744l2.131-2.042a.564.564,0,0,1,.408-.179.577.577,0,0,1,.568.568.581.581,0,0,1-.19.418l-1.562,1.453,1.732,1.554A.577.577,0,0,1,863.608,567.632Z" fill="#b8c0cc"/>
          <path id="Path_798" data-name="Path 798" d="M868.472,566.965a.54.54,0,0,1,.1.348.605.605,0,0,1-.368.518,3.326,3.326,0,0,1-.768.3,3.162,3.162,0,0,1-.816.114,2.537,2.537,0,0,1-1.861-.677,2.483,2.483,0,0,1-.688-1.852,2.841,2.841,0,0,1,.3-1.324,2.168,2.168,0,0,1,.842-.9,2.383,2.383,0,0,1,1.229-.319,2.2,2.2,0,0,1,1.145.289,1.962,1.962,0,0,1,.757.817,2.707,2.707,0,0,1,.269,1.244c0,.285-.127.428-.379.428H865.3a1.575,1.575,0,0,0,.388,1.011,1.309,1.309,0,0,0,.957.323,1.789,1.789,0,0,0,.562-.08,5.566,5.566,0,0,0,.553-.218,1.1,1.1,0,0,1,.437-.16A.336.336,0,0,1,868.472,566.965Zm-2.808-2.589a1.5,1.5,0,0,0-.364.916h2.251a1.429,1.429,0,0,0-.3-.921.987.987,0,0,0-.776-.313A1.07,1.07,0,0,0,865.664,564.376Z" fill="#b8c0cc"/>
          <path id="Path_799" data-name="Path 799" d="M869.642,567.821a.593.593,0,0,1-.319-.538.466.466,0,0,1,.11-.323.344.344,0,0,1,.268-.125,1.1,1.1,0,0,1,.468.16,4.6,4.6,0,0,0,.583.229,2.375,2.375,0,0,0,.672.079,1.279,1.279,0,0,0,.652-.139.435.435,0,0,0,.234-.389.373.373,0,0,0-.095-.268.868.868,0,0,0-.338-.185,7.539,7.539,0,0,0-.742-.194,2.849,2.849,0,0,1-1.27-.507,1.133,1.133,0,0,1-.383-.907,1.3,1.3,0,0,1,.259-.791,1.685,1.685,0,0,1,.712-.548,2.6,2.6,0,0,1,1.03-.194,3.073,3.073,0,0,1,.807.1,2.452,2.452,0,0,1,.7.3.6.6,0,0,1,.319.528.513.513,0,0,1-.11.334.334.334,0,0,1-.269.134.554.554,0,0,1-.214-.044c-.069-.031-.157-.075-.264-.135a3.919,3.919,0,0,0-.5-.224,1.539,1.539,0,0,0-.517-.075,1,1,0,0,0-.582.149.471.471,0,0,0-.215.409.414.414,0,0,0,.219.378,3.134,3.134,0,0,0,.846.259,4.818,4.818,0,0,1,1.046.319,1.221,1.221,0,0,1,.543.448,1.3,1.3,0,0,1,.164.686,1.277,1.277,0,0,1-.562,1.086,2.5,2.5,0,0,1-1.5.408A3.2,3.2,0,0,1,869.642,567.821Z" fill="#b8c0cc"/>
          <path id="Path_800" data-name="Path 800" d="M874.521,564.471a.731.731,0,0,1-.209-.533.737.737,0,1,1,1.473,0,.735.735,0,0,1-.209.533.757.757,0,0,1-1.055,0Zm0,3.544a.783.783,0,0,1,0-1.065.757.757,0,0,1,1.055,0,.783.783,0,0,1,0,1.065.757.757,0,0,1-1.055,0Z" fill="#b8c0cc"/>
          <path id="Path_801" data-name="Path 801" d="M879.9,568.01a.592.592,0,0,1-.159-.438v-5.834a.6.6,0,0,1,.637-.638.648.648,0,0,1,.474.174.633.633,0,0,1,.173.464v5.376h2.8q.6,0,.6.528c0,.352-.2.527-.6.527h-3.474A.609.609,0,0,1,879.9,568.01Z" fill="#b8c0cc"/>
          <path id="Path_802" data-name="Path 802" d="M885.232,562.131a.63.63,0,0,1-.2-.483.615.615,0,0,1,.2-.478.891.891,0,0,1,1.071,0,.606.606,0,0,1,.2.478.63.63,0,0,1-.2.483.878.878,0,0,1-1.076,0Zm.1,5.944a.562.562,0,0,1-.174-.443v-3.843a.544.544,0,0,1,.174-.438.655.655,0,0,1,.444-.15.677.677,0,0,1,.448.15.537.537,0,0,1,.178.438v3.843a.554.554,0,0,1-.178.443.665.665,0,0,1-.448.154A.644.644,0,0,1,885.327,568.075Z" fill="#b8c0cc"/>
          <path id="Path_803" data-name="Path 803" d="M892.252,563.36a.562.562,0,0,1,.17.429v3.932a2.243,2.243,0,0,1-.638,1.733,2.69,2.69,0,0,1-1.882.587,3.656,3.656,0,0,1-1.811-.408.625.625,0,0,1-.369-.528.535.535,0,0,1,.105-.348.331.331,0,0,1,.274-.13.716.716,0,0,1,.218.045c.086.03.176.065.269.1a5.814,5.814,0,0,0,.642.229,2.432,2.432,0,0,0,.653.079,1.139,1.139,0,0,0,1.3-1.274v-.637a1.523,1.523,0,0,1-.637.632,1.988,1.988,0,0,1-.956.224,2.053,2.053,0,0,1-1.9-1.155,2.761,2.761,0,0,1-.279-1.264,2.831,2.831,0,0,1,.274-1.27,2.044,2.044,0,0,1,.772-.856,2.14,2.14,0,0,1,1.135-.3,2,2,0,0,1,.956.224,1.53,1.53,0,0,1,.637.633v-.259a.549.549,0,0,1,.169-.419.711.711,0,0,1,.9,0Zm-1.4,3.316a1.584,1.584,0,0,0,.333-1.065,1.6,1.6,0,0,0-.333-1.076,1.306,1.306,0,0,0-1.858,0,1.588,1.588,0,0,0-.338,1.076,1.57,1.57,0,0,0,.338,1.065,1.306,1.306,0,0,0,1.858,0Z" fill="#b8c0cc"/>
          <path id="Path_804" data-name="Path 804" d="M898.266,565.183v2.449a.583.583,0,0,1-.164.438.626.626,0,0,1-.454.159.645.645,0,0,1-.458-.159.571.571,0,0,1-.169-.438v-2.449a1.157,1.157,0,0,0-.213-.772.856.856,0,0,0-.673-.244,1.14,1.14,0,0,0-.862.338,1.266,1.266,0,0,0-.323.907v2.22a.571.571,0,0,1-.169.438.641.641,0,0,1-.458.159.624.624,0,0,1-.453-.159.583.583,0,0,1-.164-.438v-5.954a.539.539,0,0,1,.174-.418.641.641,0,0,1,.453-.16.651.651,0,0,1,.448.15.514.514,0,0,1,.169.408v2.32a1.633,1.633,0,0,1,.662-.593,2.114,2.114,0,0,1,.942-.2Q898.266,563.181,898.266,565.183Z" fill="#b8c0cc"/>
          <path id="Path_805" data-name="Path 805" d="M902.557,567.751a.4.4,0,0,1-.2.364.926.926,0,0,1-.552.1l-.269-.02a1.6,1.6,0,0,1-1.673-1.792v-2.17h-.5a.633.633,0,0,1-.414-.12.494.494,0,0,1,0-.7.633.633,0,0,1,.414-.119h.5v-.916a.56.56,0,0,1,.17-.428.64.64,0,0,1,.458-.16.624.624,0,0,1,.447.16.556.556,0,0,1,.17.428v.916h.846a.628.628,0,0,1,.413.119.491.491,0,0,1,0,.7.628.628,0,0,1-.413.12h-.846v2.26q0,.736.677.786l.269.02C902.391,567.323,902.557,567.473,902.557,567.751Z" fill="#b8c0cc"/>
          <path id="Path_806" data-name="Path 806" d="M889.838,573.138a.643.643,0,0,1,.757.05.5.5,0,0,1,.174.4,1.012,1.012,0,0,1-.05.259l-2.141,5.924a.616.616,0,0,1-.264.308.773.773,0,0,1-.4.11.8.8,0,0,1-.408-.11.567.567,0,0,1-.259-.308l-1.652-4.69-1.683,4.69a.621.621,0,0,1-.264.308.793.793,0,0,1-.806,0,.566.566,0,0,1-.254-.308l-2.141-5.924a.844.844,0,0,1-.049-.259.484.484,0,0,1,.183-.4.668.668,0,0,1,.434-.15.655.655,0,0,1,.358.1.551.551,0,0,1,.229.3l1.693,4.868,1.742-4.839a.62.62,0,0,1,.229-.313.579.579,0,0,1,.348-.115.605.605,0,0,1,.354.115.624.624,0,0,1,.234.323l1.693,4.889,1.722-4.928A.557.557,0,0,1,889.838,573.138Z" fill="#b8c0cc"/>
          <path id="Path_807" data-name="Path 807" d="M894.8,575.632a2.107,2.107,0,0,1,.492,1.528v2.429a.564.564,0,0,1-.159.424.6.6,0,0,1-.438.154.584.584,0,0,1-.423-.159.557.557,0,0,1-.164-.419v-.218a1.305,1.305,0,0,1-.533.607,1.6,1.6,0,0,1-.842.219,1.958,1.958,0,0,1-.885-.2,1.575,1.575,0,0,1-.628-.548,1.38,1.38,0,0,1-.229-.777,1.228,1.228,0,0,1,.274-.846,1.647,1.647,0,0,1,.891-.448,8.107,8.107,0,0,1,1.7-.139h.25v-.229a1.021,1.021,0,0,0-.209-.712.889.889,0,0,0-.677-.224,2.13,2.13,0,0,0-.588.085q-.3.084-.707.243a.986.986,0,0,1-.378.13.374.374,0,0,1-.294-.13.492.492,0,0,1-.114-.338.506.506,0,0,1,.085-.294.784.784,0,0,1,.283-.234,3.3,3.3,0,0,1,.831-.3,4.361,4.361,0,0,1,.951-.109A2.031,2.031,0,0,1,894.8,575.632Zm-1.006,3.335a1.205,1.205,0,0,0,.314-.861V577.9h-.179a6.842,6.842,0,0,0-1.036.06,1.009,1.009,0,0,0-.528.209.531.531,0,0,0-.159.408.674.674,0,0,0,.224.523.791.791,0,0,0,.553.2A1.064,1.064,0,0,0,893.79,578.967Z" fill="#b8c0cc"/>
          <path id="Path_808" data-name="Path 808" d="M900.163,575.238a.523.523,0,0,1,.293-.089.624.624,0,0,1,.413.154.482.482,0,0,1,.185.384.525.525,0,0,1-.06.238l-1.842,3.854a.645.645,0,0,1-.254.288.682.682,0,0,1-.363.1.716.716,0,0,1-.364-.1.637.637,0,0,1-.264-.288l-1.851-3.854a.491.491,0,0,1-.05-.229.485.485,0,0,1,.194-.388.679.679,0,0,1,.443-.159.555.555,0,0,1,.528.349l1.393,3.076,1.384-3.067A.619.619,0,0,1,900.163,575.238Z" fill="#b8c0cc"/>
          <path id="Path_809" data-name="Path 809" d="M905.838,578.913a.541.541,0,0,1,.1.348.605.605,0,0,1-.368.518,3.36,3.36,0,0,1-.767.3,3.175,3.175,0,0,1-.817.114,2.536,2.536,0,0,1-1.861-.677,2.484,2.484,0,0,1-.688-1.852,2.842,2.842,0,0,1,.3-1.324,2.168,2.168,0,0,1,.842-.9,2.377,2.377,0,0,1,1.23-.319,2.2,2.2,0,0,1,1.144.289,1.953,1.953,0,0,1,.757.816,2.7,2.7,0,0,1,.269,1.245c0,.285-.127.428-.378.428h-2.938a1.564,1.564,0,0,0,.389,1.01,1.3,1.3,0,0,0,.956.324,1.816,1.816,0,0,0,.562-.08,5.616,5.616,0,0,0,.553-.219,1.1,1.1,0,0,1,.437-.159A.335.335,0,0,1,905.838,578.913Zm-2.808-2.589a1.5,1.5,0,0,0-.364.916h2.251a1.423,1.423,0,0,0-.3-.921.986.986,0,0,0-.776-.314A1.066,1.066,0,0,0,903.03,576.324Z" fill="#b8c0cc"/>
          <path id="Path_810" data-name="Path 810" d="M907.008,579.769a.594.594,0,0,1-.319-.538.47.47,0,0,1,.11-.323.344.344,0,0,1,.268-.125,1.1,1.1,0,0,1,.468.159,4.328,4.328,0,0,0,.583.229,2.341,2.341,0,0,0,.672.08,1.279,1.279,0,0,0,.652-.139.433.433,0,0,0,.234-.389.367.367,0,0,0-.1-.268.86.86,0,0,0-.338-.185,7.244,7.244,0,0,0-.742-.194,2.836,2.836,0,0,1-1.27-.508,1.134,1.134,0,0,1-.382-.906,1.308,1.308,0,0,1,.258-.791,1.684,1.684,0,0,1,.712-.548,2.6,2.6,0,0,1,1.031-.194,3.115,3.115,0,0,1,.806.1,2.475,2.475,0,0,1,.7.3.6.6,0,0,1,.318.528.508.508,0,0,1-.11.333.335.335,0,0,1-.269.135.541.541,0,0,1-.214-.045c-.069-.03-.157-.074-.264-.134a4.1,4.1,0,0,0-.5-.225,1.563,1.563,0,0,0-.517-.074,1,1,0,0,0-.582.149.471.471,0,0,0-.215.408.414.414,0,0,0,.22.379,3.111,3.111,0,0,0,.845.259,4.861,4.861,0,0,1,1.046.318,1.229,1.229,0,0,1,.543.449,1.292,1.292,0,0,1,.164.686,1.277,1.277,0,0,1-.562,1.086,2.5,2.5,0,0,1-1.5.408A3.2,3.2,0,0,1,907.008,579.769Z" fill="#b8c0cc"/>
        </g>
      </g>
      <g id="Group_394" data-name="Group 394">
        <path id="Rectangle_549" data-name="Rectangle 549" d="M7.462,0H46.033A46.347,46.347,0,0,1,92.38,46.347v0A46.033,46.033,0,0,1,46.347,92.38h0A46.347,46.347,0,0,1,0,46.033V7.462A7.462,7.462,0,0,1,7.462,0Z" transform="translate(1002.671 616.357) rotate(180)" fill="#fff"/>
        <path id="Path_811" data-name="Path 811" d="M956.9,524.049h0a45.841,45.841,0,0,0-7.16.562c18.833-.442,44.428,13.472,44.428,45.411v39.632a6.528,6.528,0,0,1-6.508,6.508h8.705a6.528,6.528,0,0,0,6.508-6.508V570.022A46.108,46.108,0,0,0,956.9,524.049Z" fill="#f4eaec"/>
        <path id="Rectangle_550" data-name="Rectangle 550" d="M7.462,0H46.033A46.347,46.347,0,0,1,92.38,46.347v0A46.033,46.033,0,0,1,46.347,92.38h0A46.347,46.347,0,0,1,0,46.033V7.462A7.462,7.462,0,0,1,7.462,0Z" transform="translate(1002.671 616.357) rotate(180)" fill="none" stroke="#fe5f75" stroke-linecap="round" stroke-linejoin="round" stroke-width="1.883"/>
        <ellipse id="Ellipse_197" data-name="Ellipse 197" cx="4.8" cy="3" rx="4.8" ry="3" transform="translate(927.87 560.694) rotate(-85.374)" fill="#fe5f75"/>
      </g>
    </g>
    <g id="Group_395" data-name="Group 395">
      <path id="Path_812" data-name="Path 812" d="M926.183,486.179a.908.908,0,0,1,.242.663v8.373a.921.921,0,0,1-.249.67.958.958,0,0,1-1.306,0,.937.937,0,0,1-.242-.67v-3.523h-5.149v3.523a.917.917,0,0,1-.25.67.881.881,0,0,1-.664.257.861.861,0,0,1-.648-.257.917.917,0,0,1-.25-.67v-8.373a.912.912,0,0,1,.242-.663.876.876,0,0,1,.656-.25.86.86,0,0,1,.914.913v3.366h5.149v-3.366a.912.912,0,0,1,.242-.663.987.987,0,0,1,1.313,0Z" fill="#b8c0cc"/>
      <path id="Path_813" data-name="Path 813" d="M934.349,494.331a.777.777,0,0,1,.149.5.866.866,0,0,1-.527.742,4.844,4.844,0,0,1-1.1.435,4.546,4.546,0,0,1-1.17.164,3.632,3.632,0,0,1-2.667-.97,3.557,3.557,0,0,1-.984-2.653,4.064,4.064,0,0,1,.428-1.9,3.11,3.11,0,0,1,1.205-1.283,3.414,3.414,0,0,1,1.761-.457,3.16,3.16,0,0,1,1.641.414,2.808,2.808,0,0,1,1.084,1.17,3.877,3.877,0,0,1,.386,1.783c0,.409-.182.613-.543.613h-4.207a2.243,2.243,0,0,0,.555,1.448,1.875,1.875,0,0,0,1.369.463,2.6,2.6,0,0,0,.807-.113,8.237,8.237,0,0,0,.791-.314,1.581,1.581,0,0,1,.628-.228A.481.481,0,0,1,934.349,494.331Zm-4.023-3.709a2.149,2.149,0,0,0-.52,1.313h3.223a2.036,2.036,0,0,0-.428-1.32,1.409,1.409,0,0,0-1.113-.449A1.532,1.532,0,0,0,930.326,490.622Z" fill="#b8c0cc"/>
      <path id="Path_814" data-name="Path 814" d="M936.26,495.921a.8.8,0,0,1-.25-.634v-8.516a.784.784,0,0,1,.25-.628.939.939,0,0,1,.635-.214.966.966,0,0,1,.641.214.769.769,0,0,1,.257.628v8.516a.787.787,0,0,1-.257.634.95.95,0,0,1-.641.221A.923.923,0,0,1,936.26,495.921Z" fill="#b8c0cc"/>
      <path id="Path_815" data-name="Path 815" d="M939.883,495.921a.8.8,0,0,1-.25-.634v-8.516a.784.784,0,0,1,.25-.628.939.939,0,0,1,.635-.214.966.966,0,0,1,.641.214.769.769,0,0,1,.257.628v8.516a.787.787,0,0,1-.257.634.95.95,0,0,1-.641.221A.923.923,0,0,1,939.883,495.921Z" fill="#b8c0cc"/>
      <path id="Path_816" data-name="Path 816" d="M944.562,495.729a3.058,3.058,0,0,1-1.249-1.27,4.032,4.032,0,0,1-.442-1.926,3.991,3.991,0,0,1,.442-1.918,3.062,3.062,0,0,1,1.249-1.262,4.19,4.19,0,0,1,3.75,0,3.017,3.017,0,0,1,1.242,1.262,4.036,4.036,0,0,1,.435,1.918,4.078,4.078,0,0,1-.435,1.926,3.014,3.014,0,0,1-1.242,1.27,4.2,4.2,0,0,1-3.75,0Zm3.187-1.512a3.317,3.317,0,0,0,0-3.36,1.572,1.572,0,0,0-1.312-.577,1.593,1.593,0,0,0-1.319.577,2.629,2.629,0,0,0-.464,1.676,2.656,2.656,0,0,0,.456,1.684,1.812,1.812,0,0,0,2.639,0Z" fill="#b8c0cc"/>
      <path id="Path_817" data-name="Path 817" d="M952.87,494.359a1.58,1.58,0,0,1,.3,1.041,3.273,3.273,0,0,1-.941,2.34.564.564,0,0,1-.4.185.538.538,0,0,1-.371-.142.449.449,0,0,1-.156-.343.485.485,0,0,1,.142-.328,2.183,2.183,0,0,0,.556-1.027,1.045,1.045,0,0,1-.677-.321.961.961,0,0,1-.264-.692,1.06,1.06,0,0,1,.293-.763,1.035,1.035,0,0,1,1.518.05Z" fill="#b8c0cc"/>
      <path id="Path_818" data-name="Path 818" d="M960.237,495.893a4.584,4.584,0,0,1-1.591-.792.865.865,0,0,1-.149-1.205.529.529,0,0,1,.421-.222,1.166,1.166,0,0,1,.585.2,4.255,4.255,0,0,0,1.283.642,5.192,5.192,0,0,0,1.484.2,2.915,2.915,0,0,0,1.6-.364,1.191,1.191,0,0,0,.557-1.062.915.915,0,0,0-.521-.835,6.869,6.869,0,0,0-1.733-.563,10.266,10.266,0,0,1-2.04-.628,2.88,2.88,0,0,1-1.184-.913,2.364,2.364,0,0,1-.4-1.412,2.661,2.661,0,0,1,.5-1.584,3.294,3.294,0,0,1,1.391-1.09,4.914,4.914,0,0,1,2-.393,4.983,4.983,0,0,1,3.325,1.084,1.076,1.076,0,0,1,.263.307.893.893,0,0,1-.1.9.531.531,0,0,1-.421.221.794.794,0,0,1-.264-.043,2.063,2.063,0,0,1-.321-.157,4.8,4.8,0,0,0-1.134-.635,3.865,3.865,0,0,0-1.349-.207,2.648,2.648,0,0,0-1.533.392,1.259,1.259,0,0,0-.563,1.092,1,1,0,0,0,.5.9,5.826,5.826,0,0,0,1.7.584,11.494,11.494,0,0,1,2.061.635,3.053,3.053,0,0,1,1.212.891,2.142,2.142,0,0,1,.421,1.355,2.587,2.587,0,0,1-.492,1.562,3.209,3.209,0,0,1-1.384,1.056,5.2,5.2,0,0,1-2.047.378A7.237,7.237,0,0,1,960.237,495.893Z" fill="#b8c0cc"/>
      <path id="Path_819" data-name="Path 819" d="M972.961,489.631a3.013,3.013,0,0,1,.706,2.189V495.3a.8.8,0,0,1-.229.606.864.864,0,0,1-.627.221.832.832,0,0,1-.606-.228.8.8,0,0,1-.235-.6v-.314a1.858,1.858,0,0,1-.764.87,2.291,2.291,0,0,1-1.205.314,2.79,2.79,0,0,1-1.27-.286,2.257,2.257,0,0,1-.9-.784,1.982,1.982,0,0,1-.328-1.113,1.765,1.765,0,0,1,.392-1.212,2.353,2.353,0,0,1,1.277-.642,11.634,11.634,0,0,1,2.439-.2h.357v-.329a1.466,1.466,0,0,0-.3-1.02,1.28,1.28,0,0,0-.97-.32,3.077,3.077,0,0,0-.842.121q-.427.121-1.012.349a1.416,1.416,0,0,1-.542.185.535.535,0,0,1-.421-.185.7.7,0,0,1-.164-.485.725.725,0,0,1,.121-.42,1.154,1.154,0,0,1,.406-.336,4.672,4.672,0,0,1,1.191-.428,6.188,6.188,0,0,1,1.363-.157A2.907,2.907,0,0,1,972.961,489.631Zm-1.44,4.778a1.733,1.733,0,0,0,.449-1.234v-.3h-.257a9.863,9.863,0,0,0-1.484.085,1.437,1.437,0,0,0-.755.3.76.76,0,0,0-.229.585.968.968,0,0,0,.321.749,1.131,1.131,0,0,0,.791.292A1.525,1.525,0,0,0,971.521,494.409Z" fill="#b8c0cc"/>
      <path id="Path_820" data-name="Path 820" d="M975.728,495.921a.8.8,0,0,1-.25-.634v-8.516a.784.784,0,0,1,.25-.628.936.936,0,0,1,.634-.214.967.967,0,0,1,.642.214.769.769,0,0,1,.257.628v8.516a.787.787,0,0,1-.257.634.95.95,0,0,1-.642.221A.92.92,0,0,1,975.728,495.921Z" fill="#b8c0cc"/>
      <path id="Path_821" data-name="Path 821" d="M979.351,495.921a.8.8,0,0,1-.25-.634v-8.516a.784.784,0,0,1,.25-.628.938.938,0,0,1,.634-.214.967.967,0,0,1,.642.214.769.769,0,0,1,.257.628v8.516a.787.787,0,0,1-.257.634.95.95,0,0,1-.642.221A.922.922,0,0,1,979.351,495.921Z" fill="#b8c0cc"/>
      <path id="Path_822" data-name="Path 822" d="M987.9,489.074a.778.778,0,0,1,.42-.121.9.9,0,0,1,.592.221.69.69,0,0,1,.264.55.727.727,0,0,1-.085.327l-3.9,8.159a.794.794,0,0,1-.755.485.882.882,0,0,1-.578-.206.648.648,0,0,1-.25-.521.928.928,0,0,1,.086-.357l.97-2.039-2.653-5.521a.713.713,0,0,1-.072-.327.7.7,0,0,1,.279-.557.971.971,0,0,1,.635-.228.837.837,0,0,1,.442.121.81.81,0,0,1,.313.378l2,4.408,1.983-4.393A.827.827,0,0,1,987.9,489.074Z" fill="#b8c0cc"/>
    </g>
  </g>
</svg>
