<svg xmlns="http://www.w3.org/2000/svg" width="105.719" height="109.369" viewBox="0 0 105.719 109.369">
  <g id="Group_676" data-name="Group 676" transform="translate(-1698.085 -1463.49)">
    <path id="Path_899" data-name="Path 899" d="M1784.785,1556.959a52.86,52.86,0,1,0-67.151.435" fill="#f0f4f7"/>
    <path id="Path_900" data-name="Path 900" d="M1727.558,1531.445a42.46,42.46,0,0,1,7.956-6.1l8.473,16.513,3.114-13.427,8.92-.192,2.459,14.165,8.7-17.131a33.066,33.066,0,0,1,17.308,29.08v8.95l-71.4-.386.5-11.667S1718.563,1539.632,1727.558,1531.445Z" fill="#fff"/>
    <circle id="Ellipse_465" data-name="Ellipse 465" cx="18.831" cy="18.831" r="18.831" transform="translate(1732.581 1483.619)" fill="#fff" stroke="#b8c0cc" stroke-linecap="round" stroke-miterlimit="10" stroke-width="2"/>
    <path id="Path_901" data-name="Path 901" d="M1758.48,1542.4l-2.591-13.973H1747.1l-2.834,13.973,7.012,13.034Z" fill="#fe5f75" stroke="#fe5f75" stroke-linecap="round" stroke-miterlimit="10" stroke-width="2"/>
    <line id="Line_246" data-name="Line 246" x2="8.235" transform="translate(1766.351 1549.494)" fill="none" stroke="#fe5f75" stroke-linecap="round" stroke-miterlimit="10" stroke-width="2"/>
    <g id="Group_675" data-name="Group 675">
      <g id="Group_674" data-name="Group 674">
        <path id="Path_902" data-name="Path 902" d="M1738.985,1551.8c-.3-.189-2.663-1.6-3.6-2.033l-1.163-2.808c.345-.928,1.005-3.532,1.109-3.984a1.25,1.25,0,0,0-.334-1.16l-1.819-1.819a1.25,1.25,0,0,0-1.161-.334c-.342.078-3.014.748-3.984,1.109l-2.807-1.163c-.411-.9-1.783-3.2-2.033-3.6a1.249,1.249,0,0,0-1.057-.585h-2.572a1.248,1.248,0,0,0-1.057.585c-.189.3-1.6,2.663-2.033,3.6l-2.808,1.163c-.928-.345-3.532-1.006-3.984-1.109a1.25,1.25,0,0,0-1.16.334l-1.819,1.819a1.247,1.247,0,0,0-.334,1.16c.078.343.748,3.015,1.109,3.985l-1.163,2.807c-.9.411-3.2,1.783-3.6,2.033a1.248,1.248,0,0,0-.585,1.057v2.572a1.248,1.248,0,0,0,.585,1.057c.3.189,2.662,1.6,3.6,2.033l1.163,2.807c-.346.929-1.006,3.533-1.109,3.985a1.248,1.248,0,0,0,.334,1.16l1.819,1.819a1.248,1.248,0,0,0,1.16.334c.343-.078,3.015-.748,3.984-1.109l2.808,1.163c.411.9,1.783,3.2,2.033,3.6a1.248,1.248,0,0,0,1.057.585h2.572a1.25,1.25,0,0,0,1.057-.585c.189-.3,1.6-2.663,2.033-3.6l2.807-1.163c.929.345,3.533,1.006,3.984,1.109a1.25,1.25,0,0,0,1.161-.334l1.819-1.819a1.25,1.25,0,0,0,.334-1.16c-.079-.343-.748-3.015-1.109-3.985l1.163-2.807c.9-.411,3.2-1.783,3.6-2.033a1.247,1.247,0,0,0,.584-1.057v-2.572A1.247,1.247,0,0,0,1738.985,1551.8Zm-18.136,8.1a5.759,5.759,0,1,1,5.759-5.759A5.766,5.766,0,0,1,1720.849,1559.9Z" fill="#b8c0cc"/>
      </g>
    </g>
    <path id="Path_903" data-name="Path 903" d="M1784.484,1563.3v-8.95a33.066,33.066,0,0,0-17.308-29.08l-15.764,31.056-15.9-30.984c-2.933.744-9.681,5.578-12.639,11.869" fill="none" stroke="#b8c0cc" stroke-linecap="round" stroke-miterlimit="10" stroke-width="2"/>
  </g>
</svg>
