<svg width="105" height="105" viewBox="0 0 105 105" fill="none" xmlns="http://www.w3.org/2000/svg">
<circle cx="52.5" cy="52.5" r="52.5" fill="#F0F4F7"/>
<path d="M64 36.9727V103.923" stroke="#B8C0CC" stroke-width="2" stroke-linecap="round"/>
<path d="M97 103.923H31" stroke="#B8C0CC" stroke-width="2" stroke-linecap="round"/>
<rect x="-1" y="1" width="74" height="15.9868" rx="3" transform="matrix(-1 0 0 1 100 27.9795)" fill="white" stroke="#B8C0CC" stroke-width="2"/>
<rect x="-1" y="1" width="74" height="15.9868" rx="3" transform="matrix(-1 0 0 1 100 51.9619)" fill="white" stroke="#B8C0CC" stroke-width="2"/>
<rect x="-1" y="1" width="74" height="15.9868" rx="3" transform="matrix(-1 0 0 1 100 75.9443)" fill="white" stroke="#B8C0CC" stroke-width="2"/>
<path d="M36 58.9565L36 62.8415" stroke="#B8C0CC" stroke-width="2" stroke-linecap="round"/>
<path d="M36 34.9741L36 38.859" stroke="#B8C0CC" stroke-width="2" stroke-linecap="round"/>
<path d="M36 82.939L36 86.8239" stroke="#B8C0CC" stroke-width="2" stroke-linecap="round"/>
<path d="M46 58.9565L46 62.8415" stroke="#B8C0CC" stroke-width="2" stroke-linecap="round"/>
<path d="M46 34.9741L46 38.859" stroke="#B8C0CC" stroke-width="2" stroke-linecap="round"/>
<path d="M46 82.939L46 86.8239" stroke="#B8C0CC" stroke-width="2" stroke-linecap="round"/>
<path d="M56 58.9565L56 62.8415" stroke="#B8C0CC" stroke-width="2" stroke-linecap="round"/>
<path d="M56 34.9741L56 38.859" stroke="#B8C0CC" stroke-width="2" stroke-linecap="round"/>
<path d="M56 82.939L56 86.8239" stroke="#B8C0CC" stroke-width="2" stroke-linecap="round"/>
<rect x="-1" y="1" width="5.46175" height="5.30696" rx="2.65348" transform="matrix(-1 0 0 1 91 33.166)" fill="white" stroke="#B8C0CC" stroke-width="2"/>
<rect x="-1" y="1" width="5.46175" height="5.30696" rx="2.65348" transform="matrix(-1 0 0 1 91 56.958)" fill="white" stroke="#B8C0CC" stroke-width="2"/>
<rect x="-1" y="1" width="5.46175" height="5.30696" rx="2.65348" transform="matrix(-1 0 0 1 91 80.9404)" fill="white" stroke="#B8C0CC" stroke-width="2"/>
<rect x="-1" y="1" width="5.46175" height="5.30696" rx="2.65348" transform="matrix(-1 0 0 1 80.7401 33.166)" fill="white" stroke="#53A1FF" stroke-width="2"/>
<rect x="-1" y="1" width="5.46175" height="5.30696" rx="2.65348" transform="matrix(-1 0 0 1 80.7401 56.958)" fill="white" stroke="#53A1FF" stroke-width="2"/>
<rect x="-1" y="1" width="5.46175" height="5.30696" rx="2.65348" transform="matrix(-1 0 0 1 80.7401 80.9404)" fill="white" stroke="#53A1FF" stroke-width="2"/>
<ellipse cx="40" cy="79.9411" rx="11" ry="10.9919" fill="white"/>
<path d="M57.9569 75.4083L57.9569 75.4084C57.8405 76.0452 57.4972 76.6067 57.007 77.0016C57.0055 77.0029 57.0039 77.0042 57.0023 77.0054L54.3764 79.1301C54.4107 79.67 54.4107 80.2114 54.3764 80.7513L57.0073 82.88C57.0077 82.8802 57.008 82.8805 57.0083 82.8807L57.0091 82.8814L55.7511 84.4362L57.9569 75.4083ZM57.9569 75.4083C58.0734 74.7711 57.9514 74.1182 57.6213 73.5688C57.6202 73.5669 57.6191 73.5651 57.6179 73.5632L54.4538 68.2659L54.4507 68.2607M57.9569 75.4083L54.4507 68.2607M54.4507 68.2607C54.1236 67.7169 53.619 67.3162 53.0375 67.1121C52.4568 66.9083 51.8233 66.9081 51.2428 67.1114L51.2376 67.1132M54.4507 68.2607L51.2376 67.1132M51.2376 67.1132L47.946 68.2757C47.4519 67.9592 46.9384 67.6729 46.4084 67.4182L45.8155 64.1466C45.7005 63.5114 45.3596 62.9502 44.8713 62.5545C44.3857 62.161 43.7822 61.9525 43.1678 61.9531M51.2376 67.1132L43.1692 63.9531M26.962 67.1109L26.962 67.1109C27.5451 66.9062 28.1816 66.9073 28.764 67.1137C28.765 67.1141 28.7661 67.1145 28.7671 67.1149L32.0545 68.2759C32.5485 67.9596 33.0618 67.6734 33.5915 67.4187L34.1845 64.1466C34.2995 63.5114 34.6404 62.9502 35.1287 62.5545C35.6143 62.161 36.2178 61.9525 36.8322 61.9531M26.962 67.1109L36.8308 63.9531M26.962 67.1109C26.378 67.3159 25.8717 67.7195 25.5454 68.2673C25.5448 68.2682 25.5443 68.2691 25.5437 68.27L22.3786 73.569M26.962 67.1109L22.3786 73.569M36.8322 61.9531C36.8331 61.9531 36.8341 61.9531 36.835 61.9531L36.8308 63.9531M36.8322 61.9531H36.8308V63.9531M36.8322 61.9531H43.1678M36.8308 63.9531H43.1692M43.1678 61.9531C43.1669 61.9531 43.1659 61.9531 43.165 61.9531L43.1692 63.9531M43.1678 61.9531H43.1692V63.9531M22.3786 73.569C22.0486 74.1184 21.9267 74.7713 22.0431 75.4084C22.1595 76.0453 22.5029 76.6069 22.9932 77.0018L25.6237 79.1302C25.5895 79.67 25.5895 80.2114 25.6237 80.7512L22.9977 82.8759C22.9962 82.8771 22.9947 82.8783 22.9932 82.8796C22.5029 83.2745 22.1595 83.8361 22.0431 84.473C21.9266 85.1101 22.0486 85.763 22.3786 86.3123C22.3797 86.3143 22.3809 86.3162 22.382 86.3181L25.5462 91.6154L25.5474 91.6175C25.8743 92.1632 26.3798 92.5651 26.9624 92.7696L22.3786 73.569ZM28.7625 92.7682L28.7606 92.7689C28.1787 92.9737 27.5438 92.9737 26.9624 92.7697L28.7625 92.7682ZM28.7625 92.7682L32.054 91.6057C32.5481 91.9221 33.0616 92.2085 33.5916 92.4632L34.1843 95.734C34.2991 96.3692 34.6395 96.93 35.1266 97.3258L35.1267 97.3259M28.7625 92.7682L35.1267 97.3259M35.1267 97.3259C35.6128 97.7208 36.2166 97.9296 36.8308 97.9296C36.8308 97.9296 36.8308 97.9296 36.8308 97.9296H43.1692L35.1267 97.3259ZM43.1692 97.9296C43.7832 97.9296 44.3871 97.7209 44.8734 97.3258L43.6482 95.8177L44.8735 97.3258C45.3611 96.9296 45.7011 96.3685 45.8157 95.734L46.4084 92.4632C46.9384 92.2085 47.4519 91.9221 47.946 91.6056L51.2376 92.7682L51.2376 92.7682L51.246 92.7712C51.826 92.9731 52.458 92.9722 53.0374 92.7689C53.618 92.5651 54.1217 92.1655 54.4488 91.6237L54.4489 91.6237L54.4542 91.6148L57.6231 86.3053C57.6232 86.3051 57.6233 86.3049 57.6234 86.3047L43.1692 97.9296ZM43.7102 77.6254L45.3553 76.4882L43.7102 77.6254C44.1892 78.3185 44.4405 79.1258 44.4408 79.9456C44.4389 81.0438 43.9873 82.1109 43.1618 82.9088C42.334 83.709 41.1978 84.1709 39.9988 84.1728C39.1061 84.1726 38.2387 83.9163 37.5068 83.4435C36.7752 82.971 36.2155 82.3064 35.8879 81.5418C35.5606 80.778 35.4761 79.9417 35.642 79.1356C35.808 78.3289 36.2195 77.5784 36.8357 76.9828C37.4526 76.3865 38.2468 75.9731 39.1212 75.805C39.9957 75.6368 40.9015 75.7237 41.7214 76.0519C42.5408 76.38 43.2302 76.9311 43.7102 77.6254Z" fill="white" stroke="white" stroke-width="4" stroke-linecap="round" stroke-linejoin="round"/>
<path d="M55.7511 84.4362L52.2705 81.6201C52.446 80.5069 52.446 79.3745 52.2705 78.2613L55.7511 75.4451C55.8766 75.3445 55.9611 75.204 55.9895 75.0488C56.0179 74.8935 55.9883 74.7335 55.9061 74.5974L52.7368 69.2915C52.6554 69.1561 52.5274 69.0527 52.3751 68.9992C52.2228 68.9458 52.056 68.9457 51.9036 68.9991L47.6468 70.5024C46.7283 69.8092 45.713 69.245 44.631 68.8267L43.8475 64.5028C43.8196 64.3486 43.7362 64.2089 43.6121 64.1084C43.488 64.0078 43.3312 63.9528 43.1692 63.9531H36.8308C36.6688 63.9528 36.512 64.0078 36.3879 64.1084C36.2638 64.2089 36.1804 64.3486 36.1525 64.5028L35.369 68.8267C34.2873 69.2456 33.2721 69.8097 32.3532 70.5024L28.0964 68.9991C27.9442 68.9449 27.777 68.9445 27.6245 68.998C27.4719 69.0516 27.344 69.1555 27.2632 69.2915L24.0939 74.5974C24.0117 74.7335 23.9821 74.8935 24.0105 75.0488C24.0389 75.204 24.1234 75.3445 24.2489 75.4451L27.7295 78.2613C27.5542 79.3745 27.5542 80.5069 27.7295 81.6201L24.2489 84.4362C24.1234 84.5369 24.0389 84.6773 24.0105 84.8326C23.9821 84.9878 24.0117 85.1478 24.0939 85.284L27.2632 90.5898C27.3444 90.7254 27.4725 90.8291 27.6248 90.8825C27.7772 90.936 27.9441 90.936 28.0964 90.8824L32.3532 89.3789C33.2717 90.0722 34.287 90.6364 35.369 91.0548L36.1525 95.3786C36.1804 95.5329 36.2637 95.6728 36.3878 95.7736C36.5119 95.8744 36.6687 95.9296 36.8308 95.9296H43.1692C43.3313 95.9296 43.4882 95.8744 43.6123 95.7736C43.7364 95.6728 43.8196 95.5329 43.8475 95.3786L44.631 91.0548C45.713 90.6364 46.7283 90.0722 47.6468 89.3789L51.9036 90.8824C52.056 90.9354 52.2227 90.9352 52.3749 90.8818C52.5271 90.8283 52.6552 90.725 52.7368 90.5898L55.9061 85.2797C55.9871 85.144 56.0161 84.985 55.9877 84.8307C55.9594 84.6764 55.8756 84.5367 55.7511 84.4362ZM40 86.1728C38.7262 86.1728 37.4809 85.8076 36.4217 85.1236C35.3625 84.4395 34.537 83.4671 34.0495 82.3295C33.562 81.1919 33.4345 79.9402 33.683 78.7325C33.9315 77.5248 34.5449 76.4154 35.4457 75.5448C36.3464 74.6741 37.4941 74.0812 38.7435 73.8409C39.9929 73.6007 41.2879 73.724 42.4648 74.1952C43.6417 74.6664 44.6476 75.4644 45.3553 76.4882C46.0631 77.512 46.4408 78.7157 46.4408 79.947C46.4385 81.5975 45.7592 83.1798 44.5518 84.3468C43.3444 85.5139 41.7075 86.1705 40 86.1728Z" fill="white" stroke="#53A1FF" stroke-width="2" stroke-linecap="round" stroke-linejoin="round"/>
</svg>
