<svg width="105" height="106" viewBox="0 0 105 106" fill="none" xmlns="http://www.w3.org/2000/svg">
<path d="M52.5 105C81.4949 105 105 81.4949 105 52.5C105 23.5051 81.4949 0 52.5 0C23.5051 0 0 23.5051 0 52.5C0 81.4949 23.5051 105 52.5 105Z" fill="#F0F4F7"/>
<path d="M80.8429 10.2153H48.3954C43.5657 10.2153 39.6504 14.1306 39.6504 18.9604V95.7538C39.6504 100.584 43.5657 104.499 48.3954 104.499H80.8429C85.6726 104.499 89.5879 100.584 89.5879 95.7538V18.9604C89.5879 14.1306 85.6726 10.2153 80.8429 10.2153Z" fill="white" stroke="#B8C0CC" stroke-width="2" stroke-miterlimit="10"/>
<path d="M74.803 63.8905V53.7195C74.803 48.0635 70.201 43.462 64.5445 43.462C58.9367 43.462 54.3743 48.0242 54.3743 53.632C54.3743 59.2885 58.976 63.8905 64.632 63.8905H74.803ZM75.2345 66.3735H64.632C57.5955 66.3735 51.8914 60.6694 51.8914 53.632C51.8914 46.6441 57.5565 40.979 64.5445 40.979C71.5819 40.979 77.286 46.6831 77.286 53.7195V64.3219C77.286 65.4547 76.3671 66.3735 75.2345 66.3735Z" fill="#53A1FF"/>
<path d="M48.9039 10.2139L51.4374 15.1123C51.6559 15.5347 51.9863 15.8889 52.3926 16.136C52.7988 16.3832 53.2652 16.5138 53.7407 16.5137H75.3367C75.8007 16.5137 76.2562 16.3893 76.6558 16.1532C77.0553 15.9172 77.3842 15.5784 77.6081 15.1719L80.3394 10.215" fill="#B8C0CC"/>
<path d="M39.6494 88.5796H89.5532" stroke="#B8C0CC" stroke-width="2"/>
<path d="M64.5883 99.6138C66.5789 99.6138 68.1926 98.0001 68.1926 96.0096C68.1926 94.019 66.5789 92.4053 64.5883 92.4053C62.5977 92.4053 60.984 94.019 60.984 96.0096C60.984 98.0001 62.5977 99.6138 64.5883 99.6138Z" fill="#B8C0CC"/>
</svg>
