<svg width="105" height="105" viewBox="0 0 105 105" fill="none" xmlns="http://www.w3.org/2000/svg">
<circle cx="52.5" cy="52.5" r="52.5" fill="#F0F4F7"/>
<rect x="1" y="-1" width="74" height="64" rx="3" transform="matrix(1 0 0 -1 24 98)" fill="white" stroke="#B8C0CC" stroke-width="2"/>
<path d="M42 30V40" stroke="#B8C0CC" stroke-width="2" stroke-linecap="round"/>
<path d="M99 52H25" stroke="#B8C0CC" stroke-width="2" stroke-linecap="round"/>
<path d="M82 30V40" stroke="#B8C0CC" stroke-width="2" stroke-linecap="round"/>
<rect x="39" y="63" width="8" height="8" rx="1" stroke="#B8C0CC" stroke-width="2"/>
<rect x="39" y="81" width="8" height="8" rx="1" stroke="#53A1FF" stroke-width="2"/>
<rect x="58" y="63" width="8" height="8" rx="1" stroke="#B8C0CC" stroke-width="2"/>
<rect x="58" y="81" width="8" height="8" rx="1" stroke="#B8C0CC" stroke-width="2"/>
<rect x="77" y="63" width="8" height="8" rx="1" stroke="#B8C0CC" stroke-width="2"/>
<rect x="77" y="81" width="8" height="8" rx="1" stroke="#B8C0CC" stroke-width="2"/>
<path d="M52.976 24.752C53.456 24.752 53.696 24.956 53.696 25.364C53.696 25.788 53.456 26 52.976 26H48.416C48.208 26 48.044 25.94 47.924 25.82C47.804 25.692 47.744 25.536 47.744 25.352C47.744 25.112 47.836 24.896 48.02 24.704L50.756 21.764C51.092 21.396 51.336 21.06 51.488 20.756C51.648 20.444 51.728 20.136 51.728 19.832C51.728 19.456 51.62 19.168 51.404 18.968C51.188 18.768 50.88 18.668 50.48 18.668C50.152 18.668 49.832 18.732 49.52 18.86C49.216 18.98 48.908 19.148 48.596 19.364C48.516 19.42 48.436 19.468 48.356 19.508C48.276 19.54 48.196 19.556 48.116 19.556C47.98 19.556 47.86 19.492 47.756 19.364C47.66 19.236 47.612 19.084 47.612 18.908C47.612 18.788 47.632 18.684 47.672 18.596C47.72 18.508 47.792 18.424 47.888 18.344C48.24 18.064 48.652 17.844 49.124 17.684C49.596 17.516 50.068 17.432 50.54 17.432C51.364 17.432 52.02 17.64 52.508 18.056C53.004 18.472 53.252 19.032 53.252 19.736C53.252 20.224 53.148 20.684 52.94 21.116C52.732 21.54 52.38 22.016 51.884 22.544L49.808 24.752H52.976ZM60.507 23.144C60.747 23.144 60.927 23.196 61.047 23.3C61.167 23.404 61.227 23.552 61.227 23.744C61.227 24.144 60.987 24.344 60.507 24.344H59.895V25.292C59.895 25.54 59.823 25.732 59.679 25.868C59.543 26.004 59.363 26.072 59.139 26.072C58.915 26.072 58.731 26.004 58.587 25.868C58.451 25.732 58.383 25.54 58.383 25.292V24.344H55.239C55.023 24.344 54.855 24.284 54.735 24.164C54.615 24.036 54.555 23.88 54.555 23.696C54.555 23.504 54.619 23.32 54.747 23.144L58.455 17.816C58.535 17.704 58.635 17.62 58.755 17.564C58.875 17.5 58.999 17.468 59.127 17.468C59.335 17.468 59.515 17.536 59.667 17.672C59.819 17.808 59.895 18 59.895 18.248V23.144H60.507ZM56.151 23.144H58.383V19.916L56.151 23.144ZM68.8903 24.896C69.0183 25.048 69.0823 25.2 69.0823 25.352C69.0823 25.544 69.0063 25.712 68.8543 25.856C68.7103 26 68.5423 26.072 68.3503 26.072C68.1503 26.072 67.9743 25.984 67.8223 25.808L65.3863 22.784L62.9383 25.808C62.7943 25.976 62.6223 26.06 62.4223 26.06C62.2303 26.06 62.0583 25.992 61.9063 25.856C61.7623 25.712 61.6903 25.544 61.6903 25.352C61.6903 25.192 61.7503 25.04 61.8703 24.896L64.4863 21.704L61.9783 18.644C61.8583 18.516 61.7983 18.364 61.7983 18.188C61.7983 17.996 61.8703 17.832 62.0143 17.696C62.1583 17.552 62.3263 17.48 62.5183 17.48C62.7183 17.48 62.8943 17.568 63.0463 17.744L65.3863 20.636L67.7263 17.744C67.8703 17.568 68.0423 17.48 68.2423 17.48C68.4343 17.48 68.6023 17.552 68.7463 17.696C68.8983 17.832 68.9743 17.996 68.9743 18.188C68.9743 18.364 68.9143 18.516 68.7943 18.644L66.2863 21.704L68.8903 24.896ZM75.4071 17.54C75.6151 17.54 75.7751 17.6 75.8871 17.72C75.9991 17.832 76.0551 17.98 76.0551 18.164C76.0551 18.348 75.9991 18.54 75.8871 18.74L72.0591 25.688C71.8991 25.96 71.6791 26.096 71.3991 26.096C71.2071 26.096 71.0351 26.032 70.8831 25.904C70.7391 25.768 70.6671 25.604 70.6671 25.412C70.6671 25.276 70.7071 25.14 70.7871 25.004L74.2311 18.788H70.6071C70.1271 18.788 69.8871 18.584 69.8871 18.176C69.8871 17.752 70.1271 17.54 70.6071 17.54H75.4071Z" fill="#53A1FF"/>
</svg>
