<svg width="107" height="106" viewBox="0 0 107 106" fill="none" xmlns="http://www.w3.org/2000/svg">
<path d="M53 106C82.2711 106 106 82.2711 106 53C106 23.7289 82.2711 0 53 0C23.7289 0 0 23.7289 0 53C0 82.2711 23.7289 106 53 106Z" fill="#F0F4F7"/>
<path d="M89.6177 83.5322V100.322C89.614 101.561 89.1199 102.749 88.2431 103.626C87.3662 104.503 86.178 104.997 84.9381 105H49.9911C48.751 104.998 47.5623 104.504 46.6854 103.627C45.8085 102.75 45.3148 101.562 45.3125 100.322V30.3075C45.3162 29.0677 45.8103 27.8798 46.6869 27.0031C47.5634 26.1263 48.7513 25.6319 49.9911 25.6279H84.9381C86.1781 25.6316 87.3663 26.1259 88.2431 27.0027C89.1198 27.8795 89.614 29.0675 89.6177 30.3075V44.7172" fill="white"/>
<path d="M89.6177 83.5321V100.322C89.614 101.561 89.1199 102.749 88.2431 103.626C87.3662 104.503 86.178 104.997 84.9381 105H49.9911C48.751 104.998 47.5623 104.504 46.6854 103.627C45.8085 102.75 45.3148 101.562 45.3125 100.322V30.3075C45.3162 29.0677 45.8103 27.8798 46.6869 27.0031C47.5634 26.1263 48.7513 25.6319 49.9911 25.6279H84.9381C86.1781 25.6316 87.3663 26.1259 88.2431 27.0027C89.1198 27.8795 89.614 29.0675 89.6177 30.3075V44.7172" stroke="#B8C0CC" stroke-width="1.88" stroke-miterlimit="10" stroke-linecap="round"/>
<path d="M66.8463 47.8638H22.8482C21.6524 47.8638 20.683 48.8332 20.683 50.029V77.2397C20.683 78.4355 21.6524 79.4049 22.8482 79.4049H66.8463C68.0421 79.4049 69.0115 78.4355 69.0115 77.2397V50.029C69.0115 48.8332 68.0421 47.8638 66.8463 47.8638Z" fill="white" stroke="#53A1FF" stroke-width="2" stroke-miterlimit="10" stroke-linecap="round"/>
<path d="M26.4576 71.9409H51.883" stroke="#53A1FF" stroke-width="2" stroke-miterlimit="10" stroke-linecap="round"/>
<path d="M67.5245 99.5902C69.6259 99.5902 71.3294 97.8867 71.3294 95.7854C71.3294 93.684 69.6259 91.9805 67.5245 91.9805C65.4231 91.9805 63.7196 93.684 63.7196 95.7854C63.7196 97.8867 65.4231 99.5902 67.5245 99.5902Z" fill="#B8C0CC"/>
<path d="M61.6012 31.9673H73.5066" stroke="#B8C0CC" stroke-width="2" stroke-miterlimit="10" stroke-linecap="round"/>
<path d="M78.8454 52.9272H104.777" stroke="#B8C0CC" stroke-width="1.88" stroke-linecap="round" stroke-linejoin="round"/>
<path d="M100.381 47.3823L105.623 52.6244L100.381 57.8665" stroke="#B8C0CC" stroke-width="1.88" stroke-linecap="round" stroke-linejoin="round"/>
<path d="M87.9073 77.9798C88.2654 77.9798 88.6089 77.8375 88.8622 77.5842C89.1154 77.331 89.2577 76.9875 89.2577 76.6294V75.8105C90.4256 75.7404 91.5227 75.2274 92.3254 74.3762C93.128 73.525 93.5758 72.3996 93.5773 71.2297V71.095C93.5754 69.8788 93.0915 68.713 92.2315 67.853C91.3715 66.993 90.2056 66.5091 88.9894 66.5072H86.6955C86.218 66.4725 85.7713 66.2584 85.4452 65.9077C85.1192 65.5571 84.9379 65.096 84.9379 64.6172C84.9379 64.1384 85.1192 63.6774 85.4452 63.3268C85.7713 62.9762 86.218 62.7619 86.6955 62.7272H90.0447C90.2419 62.7275 90.4309 62.806 90.5704 62.9455C90.7099 63.085 90.7884 63.2741 90.7887 63.4713V63.5032C90.7861 63.851 90.9178 64.1864 91.1565 64.4393C91.3951 64.6923 91.7223 64.8433 92.0697 64.861C92.417 64.8786 92.7577 64.7615 93.0208 64.5339C93.2838 64.3064 93.4489 63.9861 93.4815 63.6398V63.6189C93.5013 63.167 93.4319 62.7157 93.2772 62.2906C93.1225 61.8656 92.8855 61.4752 92.5798 61.1417C92.2742 60.8083 91.9058 60.5383 91.4958 60.3473C91.0858 60.1563 90.6422 60.0479 90.1903 60.0285H90.0426H89.2587V59.2186C89.2636 59.0382 89.2323 58.8588 89.1666 58.6907C89.101 58.5226 89.0024 58.3694 88.8765 58.2401C88.7507 58.1108 88.6003 58.008 88.4341 57.9378C88.2679 57.8677 88.0892 57.8315 87.9088 57.8315C87.7283 57.8315 87.5498 57.8677 87.3835 57.9378C87.2173 58.008 87.0668 58.1108 86.941 58.2401C86.8152 58.3694 86.7165 58.5226 86.6509 58.6907C86.5852 58.8588 86.5539 59.0382 86.5588 59.2186V60.0314C85.9563 60.0402 85.3616 60.1678 84.8083 60.4065C84.2551 60.6452 83.7542 60.9906 83.3345 61.4228C82.9147 61.8551 82.5842 62.3658 82.3618 62.9258C82.1395 63.4858 82.0295 64.0841 82.0384 64.6866C82.0472 65.2891 82.1746 65.8839 82.4133 66.4371C82.6521 66.9903 82.9974 67.4912 83.4297 67.911C83.862 68.3307 84.3728 68.6612 84.9328 68.8836C85.4928 69.106 86.091 69.2159 86.6935 69.2071H88.9874C89.2363 69.2071 89.4826 69.2561 89.7126 69.3513C89.9425 69.4466 90.1514 69.5862 90.3274 69.7621C90.5033 69.9381 90.6429 70.1469 90.7381 70.3768C90.8334 70.6067 90.8824 70.8532 90.8824 71.1021V71.2377C90.8808 71.7392 90.6805 72.2197 90.3253 72.5737C89.9701 72.9278 89.489 73.1266 88.9874 73.1266H85.5845C85.4868 73.1267 85.3901 73.1076 85.2998 73.0703C85.2096 73.0331 85.1275 72.9784 85.0584 72.9094C84.9893 72.8404 84.9345 72.7584 84.8971 72.6682C84.8597 72.578 84.8405 72.4812 84.8405 72.3836V72.3707V72.231C84.84 71.8775 84.7008 71.5383 84.453 71.2863C84.2051 71.0342 83.8685 70.8893 83.515 70.8828C83.1616 70.8763 82.8197 71.0086 82.5627 71.2513C82.3058 71.4941 82.1542 71.8279 82.1406 72.1811V72.3217C82.1323 72.7738 82.2131 73.2232 82.3785 73.644C82.5439 74.0649 82.7906 74.449 83.1045 74.7744C83.4184 75.0999 83.7933 75.3603 84.2079 75.5408C84.6225 75.7213 85.0686 75.8184 85.5207 75.8264H86.5559V76.6363C86.5562 76.9943 86.6986 77.3375 86.9518 77.5906C87.205 77.8436 87.5483 77.9857 87.9063 77.9857L87.9073 77.9798Z" fill="#B8C0CC"/>
<path opacity="0.8" d="M30.1856 62.4489C32.2446 62.4489 33.9137 60.7797 33.9137 58.7208C33.9137 56.6618 32.2446 54.9927 30.1856 54.9927C28.1267 54.9927 26.4576 56.6618 26.4576 58.7208C26.4576 60.7797 28.1267 62.4489 30.1856 62.4489Z" fill="#53A1FF"/>
<path opacity="0.5" d="M36.129 62.4489C38.1879 62.4489 39.8571 60.7797 39.8571 58.7208C39.8571 56.6618 38.1879 54.9927 36.129 54.9927C34.07 54.9927 32.4009 56.6618 32.4009 58.7208C32.4009 60.7797 34.07 62.4489 36.129 62.4489Z" fill="#53A1FF"/>
</svg>
