<svg width="105" height="105" viewBox="0 0 105 105" fill="none" xmlns="http://www.w3.org/2000/svg">
<ellipse cx="52.5" cy="52.4614" rx="52.5" ry="52.4614" fill="#F0F4F7"/>
<path d="M27.5 64.7501L27.5 42.0469C27.5 36.524 31.9772 32.0469 37.5 32.0469L82.5 32.0469C88.0228 32.0469 92.5 36.524 92.5 42.0469L92.5 87.4533C92.5 92.9761 88.0228 97.4533 82.5 97.4533L60 97.4533" stroke="#B8C0CC" stroke-width="2" stroke-linecap="round"/>
<path d="M59.375 32.0469L59.375 65.379" stroke="#B8C0CC" stroke-width="2" stroke-linecap="round"/>
<path d="M67.4499 25.2132L67.4522 25.217L69.2311 28.1952C69.2321 28.1969 69.2331 28.1985 69.2341 28.2002C69.4658 28.5866 69.5516 29.0459 69.4696 29.4944C69.3877 29.9429 69.146 30.3378 68.8018 30.6151C68.8007 30.616 68.7995 30.617 68.7984 30.6179L67.4709 31.692C67.478 31.8816 67.478 32.0713 67.4709 32.2608L68.8022 33.338C68.8023 33.3381 68.8024 33.3382 68.8026 33.3383C69.1454 33.6152 69.3863 34.0089 69.4684 34.456C69.5507 34.9038 69.4656 35.3624 69.2352 35.7484C69.2351 35.7485 69.2351 35.7486 69.235 35.7487L67.4525 38.7353L67.4485 38.7419L67.4485 38.7419C67.2184 39.123 66.8646 39.4032 66.4577 39.5461L67.4499 25.2132ZM67.4499 25.2132C67.2199 24.8307 66.8654 24.5496 66.4578 24.4065C66.0508 24.2636 65.607 24.2636 65.2001 24.406L65.1963 24.4073L63.5151 25.0011M67.4499 25.2132L63.5151 25.0011M63.5151 25.0011C63.3278 24.8867 63.1359 24.7796 62.9401 24.68L62.6402 23.0255C62.6402 23.0254 62.6402 23.0253 62.6402 23.0251C62.5591 22.5777 62.3191 22.1832 61.9762 21.9053C61.6352 21.629 61.2121 21.483 60.7816 21.4834M63.5151 25.0011L57.2173 42.4702C56.787 42.4702 56.3636 42.3239 56.0223 42.0466L56.0222 42.0466C55.6804 41.7688 55.4408 41.3748 55.3598 40.9277C55.3598 40.9274 55.3597 40.9271 55.3597 40.9268L55.0599 39.2728C54.8641 39.1732 54.6722 39.0661 54.4849 38.9517L52.8038 39.5455L52.8024 39.546C52.3945 39.6896 51.9496 39.6896 51.5421 39.5465C51.1338 39.4032 50.7786 39.1212 50.5487 38.7373L50.5478 38.7357L48.7662 35.7531C48.5342 35.3666 48.4484 34.9071 48.5304 34.4584C48.6123 34.0099 48.854 33.615 49.1981 33.3377C49.1993 33.3368 49.2004 33.3359 49.2016 33.3349L50.5292 32.2607C50.5221 32.0712 50.5221 31.8816 50.5292 31.6921L49.2016 30.6179C49.2004 30.6169 49.1993 30.616 49.1981 30.6151C48.854 30.3377 48.6123 29.9429 48.5304 29.4944C48.4483 29.0457 48.5342 28.5861 48.7662 28.1996L50.5459 25.2201C50.5464 25.2194 50.5468 25.2186 50.5473 25.2179C50.7769 24.8326 51.1326 24.5495 51.5419 24.4058M60.7816 21.4834L60.7827 21.4834L60.7827 22.9834L60.7795 21.4834C60.7802 21.4834 60.7809 21.4834 60.7816 21.4834ZM60.7816 21.4834L57.2184 21.4834M57.2184 21.4834L57.2173 21.4834L57.2173 22.9834L57.2205 21.4834C57.2198 21.4834 57.2191 21.4834 57.2184 21.4834ZM57.2184 21.4834C56.7879 21.483 56.3648 21.629 56.0238 21.9053L56.0238 21.9053C55.6809 22.1832 55.4409 22.5777 55.3598 23.0251C55.3598 23.0252 55.3598 23.0254 55.3598 23.0255L55.0599 24.6803C54.8642 24.7799 54.6724 24.8869 54.4852 25.0012L52.8073 24.4086C52.8065 24.4083 52.8057 24.408 52.8049 24.4078C52.3967 24.2631 51.9507 24.2623 51.5419 24.4058M51.5419 24.4058L52.0388 25.8212L51.5419 24.4058ZM62.9401 39.2728L62.6403 40.9268C62.6403 40.9271 62.6402 40.9274 62.6402 40.9277C62.5593 41.3743 62.32 41.7685 61.9778 42.0466C61.6363 42.324 61.2128 42.4702 60.7827 42.4702L62.9401 39.2728ZM62.9401 39.2728C63.1359 39.1732 63.3278 39.0661 63.5151 38.9517M62.9401 39.2728L63.5151 38.9517M63.5151 38.9517L65.1963 39.5455L65.1963 39.5455L65.2026 39.5477C65.609 39.6892 66.0518 39.6886 66.4577 39.5461L63.5151 38.9517ZM57.2174 42.4702L60.7826 42.4702L57.2174 42.4702ZM60.7785 30.8873L62.0124 30.0344L60.7785 30.8873C61.0051 31.2152 61.1228 31.595 61.123 31.9791C61.1219 32.4932 60.9106 32.9968 60.5179 33.3764L61.5604 34.4549L60.5179 33.3764C60.1233 33.7577 59.578 33.981 58.9989 33.982C58.5683 33.9817 58.1513 33.858 57.801 33.6317C57.4509 33.4056 57.186 33.0895 57.0316 32.7293C56.8775 32.3698 56.8381 31.9772 56.9159 31.5991C56.9938 31.2206 57.1875 30.8657 57.4807 30.5822C57.7745 30.2982 58.1549 30.0994 58.5765 30.0183C58.9981 29.9372 59.4347 29.9793 59.8289 30.1371C60.2228 30.2948 60.5512 30.5586 60.7785 30.8873Z" fill="white" stroke="#F0F4F7" stroke-width="3" stroke-linecap="round" stroke-linejoin="round"/>
<path d="M67.86 34.5051L65.9022 32.9211C66.0009 32.2949 66.0009 31.6579 65.9022 31.0318L67.86 29.4477C67.9306 29.391 67.9781 29.312 67.9941 29.2247C68.0101 29.1374 67.9934 29.0474 67.9472 28.9708L66.1645 25.9862C66.1186 25.9101 66.0467 25.8519 65.961 25.8218C65.8753 25.7918 65.7815 25.7917 65.6958 25.8217L63.3013 26.6674C62.7847 26.2774 62.2136 25.9601 61.605 25.7248L61.1642 23.2926C61.1485 23.2059 61.1016 23.1273 61.0318 23.0707C60.962 23.0142 60.8738 22.9832 60.7827 22.9834L57.2173 22.9834C57.1262 22.9832 57.038 23.0142 56.9682 23.0707C56.8984 23.1273 56.8515 23.2059 56.8358 23.2926L56.395 25.7248C55.7866 25.9604 55.2155 26.2777 54.6987 26.6674L52.3042 25.8217C52.2186 25.7912 52.1245 25.791 52.0388 25.8212C51.953 25.8513 51.881 25.9097 51.8355 25.9862L50.0528 28.9708C50.0066 29.0474 49.9899 29.1374 50.0059 29.2247C50.0219 29.312 50.0694 29.391 50.14 29.4477L52.0978 31.0318C51.9993 31.6579 51.9993 32.2949 52.0978 32.9211L50.14 34.5051C50.0694 34.5618 50.0219 34.6407 50.0059 34.7281C49.9899 34.8154 50.0066 34.9054 50.0528 34.982L51.8355 37.9665C51.8812 38.0428 51.9533 38.1011 52.039 38.1312C52.1247 38.1613 52.2186 38.1613 52.3042 38.1311L54.6987 37.2854C55.2153 37.6754 55.7864 37.9928 56.395 38.2281L56.8358 40.6602C56.8515 40.747 56.8983 40.8257 56.9681 40.8824C57.0379 40.9391 57.1261 40.9702 57.2173 40.9702L60.7827 40.9702C60.8739 40.9702 60.9621 40.9391 61.0319 40.8824C61.1017 40.8257 61.1485 40.747 61.1642 40.6602L61.605 38.2281C62.2136 37.9928 62.7847 37.6754 63.3013 37.2854L65.6958 38.1311C65.7815 38.1609 65.8753 38.1608 65.9609 38.1308C66.0465 38.1007 66.1185 38.0426 66.1645 37.9665L67.9472 34.9796C67.9928 34.9033 68.009 34.8138 67.9931 34.727C67.9771 34.6402 67.93 34.5616 67.86 34.5051ZM59 35.482C58.2835 35.482 57.583 35.2766 56.9872 34.8918C56.3914 34.507 55.9271 33.96 55.6529 33.3201C55.3787 32.6802 55.3069 31.9761 55.4467 31.2968C55.5865 30.6175 55.9315 29.9935 56.4382 29.5037C56.9449 29.0139 57.5905 28.6804 58.2932 28.5453C58.996 28.4102 59.7245 28.4795 60.3865 28.7446C61.0485 29.0096 61.6143 29.4585 62.0124 30.0344C62.4105 30.6103 62.623 31.2874 62.623 31.98C62.6217 32.9084 62.2395 33.7984 61.5604 34.4549C60.8812 35.1113 59.9605 35.4807 59 35.482Z" fill="white" stroke="#53A1FF" stroke-width="2" stroke-linecap="round" stroke-linejoin="round"/>
<rect x="65.875" y="90.9062" width="13.0938" height="13" rx="3" transform="rotate(90 65.875 90.9062)" fill="white" stroke="#53A1FF" stroke-width="2"/>
<rect x="65.875" y="58.2031" width="13.0938" height="13" rx="3" transform="rotate(90 65.875 58.2031)" fill="white" stroke="#B8C0CC" stroke-width="2"/>
<path d="M27.5 71.2969C23.916 71.2969 21 68.3717 21 64.75C21 61.1284 23.916 58.2031 27.5 58.2031C31.084 58.2031 34 61.1284 34 64.75C34 68.3717 31.084 71.2969 27.5 71.2969Z" fill="white" stroke="#53A1FF" stroke-width="2"/>
<path d="M92.5 71.2969C88.916 71.2969 86 68.3717 86 64.75C86 61.1284 88.916 58.2031 92.5 58.2031C96.084 58.2031 99 61.1284 99 64.75C99 68.3717 96.084 71.2969 92.5 71.2969Z" fill="white" stroke="#53A1FF" stroke-width="2"/>
</svg>
