<svg width="105" height="106" viewBox="0 0 105 106" fill="none" xmlns="http://www.w3.org/2000/svg">
<path d="M52.5 105C81.4949 105 105 81.4949 105 52.5C105 23.5051 81.4949 0 52.5 0C23.5051 0 0 23.5051 0 52.5C0 81.4949 23.5051 105 52.5 105Z" fill="#F0F4F7"/>
<rect x="50" y="25" width="18" height="24" rx="9" fill="white" stroke="#B8C0CC" stroke-width="2"/>
<path d="M50 96.3462C50 96.155 50.155 96 50.3462 96H67.6538C67.845 96 68 96.155 68 96.3462C68 101.126 64.1255 105 59.3462 105H58.6538C53.8745 105 50 101.126 50 96.3462Z" fill="white" stroke="#B8C0CC" stroke-width="2" stroke-linecap="round"/>
<path d="M33.1408 60C33.1408 46.1929 44.3337 35 58.1408 35H58.8451C72.6522 35 83.8451 46.1929 83.8451 60V66.7966V80.6655C83.8451 81.9389 84.4608 83.1337 85.4978 83.8727L85.9111 84.1672C88.8475 86.2597 87.449 90.885 83.8451 91H33.1408C29.6886 90.8788 28.2673 86.5151 30.986 84.3841L31.6111 83.8941C32.5768 83.1371 33.1408 81.9782 33.1408 80.7512V66.7966V60Z" fill="white" stroke="#B8C0CC" stroke-width="2" stroke-linecap="round"/>
<path d="M63.9999 59.0001L56.7169 67.3472C56.3556 67.7613 55.728 67.8063 55.3114 67.448L53.031 65.4871" stroke="#53A1FF" stroke-width="2" stroke-linecap="round"/>
<circle cx="58" cy="62" r="12" stroke="#53A1FF" stroke-width="2"/>
</svg>
