<?xml version="1.0" encoding="UTF-8"?>
<svg xmlns="http://www.w3.org/2000/svg" xmlns:xlink="http://www.w3.org/1999/xlink" width="319pt" height="257pt" viewBox="0 0 319 257" version="1.1">
<g id="surface1">
<path style=" stroke:none;fill-rule:nonzero;fill:rgb(100%,100%,100%);fill-opacity:1;" d="M 287.242188 83.003906 L 287.242188 17.089844 C 287.242188 8.015625 279.894531 0.65625 270.832031 0.65625 L 17.066406 0.65625 C 8.003906 0.65625 0.65625 8.015625 0.65625 17.089844 L 0.65625 225.554688 C 0.65625 234.632812 8.003906 241.988281 17.066406 241.988281 L 267.015625 241.988281 L 287.238281 223.992188 Z M 287.242188 83.003906 "/>
<path style="fill-rule:nonzero;fill:rgb(100%,100%,100%);fill-opacity:1;stroke-width:2;stroke-linecap:round;stroke-linejoin:round;stroke:rgb(72.156863%,75.294118%,80%);stroke-opacity:1;stroke-miterlimit:4;" d="M 3669.75656 -173.615841 L 3451.971857 -173.615841 C 3438.165039 -173.615841 3426.970804 -184.806456 3426.970804 -198.617923 L 3426.970804 -515.776498 C 3426.970804 -529.582022 3438.165039 -540.778581 3451.971857 -540.778581 L 3838.586571 -540.778581 C 3852.393389 -540.778581 3863.587624 -529.582022 3863.587624 -515.776498 L 3863.587624 -415.494792 " transform="matrix(0.656379,0,0,0.657289,-2248.734051,356.104064)"/>
<path style=" stroke:none;fill-rule:nonzero;fill:rgb(94.117647%,95.686275%,96.862745%);fill-opacity:1;" d="M 19.773438 5.664062 L 27.984375 5.664062 C 35.082031 5.664062 40.835938 11.421875 40.835938 18.527344 L 40.835938 222.628906 C 40.835938 229.734375 35.082031 235.496094 27.984375 235.496094 L 19.773438 235.496094 C 12.675781 235.496094 6.925781 229.734375 6.925781 222.628906 L 6.925781 18.527344 C 6.925781 11.421875 12.675781 5.664062 19.773438 5.664062 Z M 19.773438 5.664062 "/>
<path style="fill-rule:nonzero;fill:rgb(100%,100%,100%);fill-opacity:1;stroke-width:2;stroke-linecap:round;stroke-linejoin:round;stroke:rgb(72.156863%,75.294118%,80%);stroke-opacity:1;stroke-miterlimit:4;" d="M 3863.587624 -251.213223 L 3863.587624 -198.61198 C 3863.587624 -184.806456 3852.393389 -173.615841 3838.586571 -173.615841 L 3816.352833 -173.615841 " transform="matrix(0.656379,0,0,0.657289,-2248.734051,356.104064)"/>
<path style=" stroke:none;fill-rule:nonzero;fill:rgb(72.156863%,75.294118%,80%);fill-opacity:1;" d="M 30.996094 32.839844 L 23.910156 32.839844 C 18.640625 32.839844 14.371094 28.5625 14.371094 23.289062 C 14.371094 18.046875 18.613281 13.796875 23.847656 13.796875 C 29.117188 13.796875 33.386719 18.074219 33.386719 23.347656 L 33.386719 30.441406 C 33.386719 31.765625 32.316406 32.839844 30.996094 32.839844 Z M 30.996094 32.839844 "/>
<path style="fill:none;stroke-width:2;stroke-linecap:round;stroke-linejoin:round;stroke:rgb(72.156863%,75.294118%,80%);stroke-opacity:1;stroke-miterlimit:4;" d="M -0.00216634 -0.000598127 L 22.945718 -0.000598127 L 22.945718 22.945216 L -0.00216634 22.945216 Z M -0.00216634 -0.000598127 " transform="matrix(0.656379,0,0,0.657289,16.349078,53.605862)"/>
<path style="fill:none;stroke-width:2;stroke-linecap:round;stroke-linejoin:round;stroke:rgb(72.156863%,75.294118%,80%);stroke-opacity:1;stroke-miterlimit:4;" d="M 12.537776 -0.0000158074 C 19.46499 -0.0000158074 25.076985 5.616093 25.076985 12.539655 C 25.076985 19.463217 19.46499 25.079325 12.537776 25.079325 C 5.616513 25.079325 -0.00143378 19.463217 -0.00143378 12.539655 C -0.00143378 5.616093 5.616513 -0.0000158074 12.537776 -0.0000158074 Z M 12.537776 -0.0000158074 " transform="matrix(0.656379,0,0,0.657289,15.649379,86.101573)"/>
<path style="fill:none;stroke-width:2;stroke-linecap:round;stroke-linejoin:round;stroke:rgb(72.156863%,75.294118%,80%);stroke-opacity:1;stroke-miterlimit:4;" d="M 3462.350776 -357.598361 L 3473.824718 -337.731007 L 3450.876834 -337.731007 Z M 3462.350776 -357.598361 " transform="matrix(0.656379,0,0,0.657289,-2248.734051,356.104064)"/>
<path style=" stroke:none;fill-rule:nonzero;fill:rgb(94.117647%,95.686275%,96.862745%);fill-opacity:1;" d="M 71.449219 19.464844 L 261.304688 19.464844 C 265.695312 19.464844 269.253906 23.03125 269.253906 27.425781 L 269.253906 79.785156 C 269.253906 84.183594 265.695312 87.746094 261.304688 87.746094 L 71.449219 87.746094 C 67.058594 87.746094 63.5 84.183594 63.5 79.785156 L 63.5 27.425781 C 63.5 23.03125 67.058594 19.464844 71.449219 19.464844 Z M 71.449219 19.464844 "/>
<path style=" stroke:none;fill-rule:nonzero;fill:rgb(94.117647%,95.686275%,96.862745%);fill-opacity:1;" d="M 69.429688 104.660156 L 160.113281 104.660156 C 163.386719 104.660156 166.042969 107.316406 166.042969 110.597656 L 166.042969 167.003906 C 166.042969 170.28125 163.386719 172.941406 160.113281 172.941406 L 69.429688 172.941406 C 66.152344 172.941406 63.5 170.28125 63.5 167.003906 L 63.5 110.597656 C 63.5 107.316406 66.152344 104.660156 69.429688 104.660156 Z M 69.429688 104.660156 "/>
<path style=" stroke:none;fill-rule:nonzero;fill:rgb(94.117647%,95.686275%,96.862745%);fill-opacity:1;" d="M 68.8125 190.984375 L 263.941406 190.984375 C 266.875 190.984375 269.253906 193.367188 269.253906 196.304688 L 269.253906 216.152344 C 269.253906 219.089844 266.875 221.472656 263.941406 221.472656 L 68.8125 221.472656 C 65.878906 221.472656 63.5 219.089844 63.5 216.152344 L 63.5 196.304688 C 63.5 193.367188 65.878906 190.984375 68.8125 190.984375 Z M 68.8125 190.984375 "/>
<path style=" stroke:none;fill-rule:nonzero;fill:rgb(94.117647%,95.686275%,96.862745%);fill-opacity:1;" d="M 176.558594 104.660156 L 263.929688 104.660156 C 266.871094 104.660156 269.253906 107.046875 269.253906 109.992188 L 269.253906 167.609375 C 269.253906 170.554688 266.871094 172.941406 263.929688 172.941406 L 176.558594 172.941406 C 173.617188 172.941406 171.234375 170.554688 171.234375 167.609375 L 171.234375 109.992188 C 171.234375 107.046875 173.617188 104.660156 176.558594 104.660156 Z M 176.558594 104.660156 "/>
<path style=" stroke:none;fill-rule:nonzero;fill:rgb(100%,100%,100%);fill-opacity:1;" d="M 246.691406 223.277344 C 244.804688 219.414062 243.300781 215.371094 242.199219 211.214844 C 242.113281 210.894531 242.035156 210.574219 241.953125 210.253906 C 239.628906 201.042969 239.390625 192.039062 240.902344 184.277344 C 243.183594 172.554688 249.449219 163.675781 258.53125 161.246094 C 270.511719 158.039062 283.832031 167.003906 292.058594 182.335938 C 293.082031 184.253906 294.574219 185.882812 296.394531 187.070312 C 298.214844 188.257812 300.300781 188.96875 302.464844 189.140625 C 309.738281 189.71875 316.1875 184.492188 317.136719 177.246094 C 318.433594 167.3125 319.066406 152.902344 315.273438 138.683594 C 302.523438 90.914062 252.242188 62.765625 204.371094 74.882812 C 180.488281 80.921875 160.019531 96.300781 147.554688 117.582031 C 135.085938 138.859375 131.667969 164.257812 138.0625 188.082031 C 148.984375 228.8125 186.054688 255.996094 226.417969 256.277344 C 226.738281 256.277344 227.097656 256.273438 227.492188 256.25 C 243.730469 255.320312 253.867188 237.902344 246.691406 223.277344 Z M 190.597656 219.496094 C 188.695312 212.375 192.917969 205.058594 200.03125 203.15625 C 207.140625 201.25 214.449219 205.480469 216.347656 212.605469 C 218.25 219.726562 214.023438 227.042969 206.914062 228.941406 C 199.800781 230.847656 192.496094 226.617188 190.597656 219.496094 Z M 190.597656 219.496094 "/>
<path style=" stroke:none;fill-rule:nonzero;fill:rgb(25.882353%,75.294118%,88.627451%);fill-opacity:1;" d="M 170.261719 195.660156 C 161.265625 195.683594 153.960938 188.398438 153.941406 179.394531 C 153.917969 170.390625 161.191406 163.070312 170.183594 163.050781 C 179.175781 163.027344 186.484375 170.3125 186.503906 179.316406 C 186.523438 188.320312 179.253906 195.640625 170.261719 195.660156 Z M 170.261719 195.660156 "/>
<path style=" stroke:none;fill-rule:nonzero;fill:rgb(28.627451%,74.117647%,56.470588%);fill-opacity:1;" d="M 181.480469 149.820312 C 172.492188 149.839844 165.183594 142.558594 165.164062 133.554688 C 165.140625 124.550781 172.414062 117.230469 181.40625 117.210938 C 190.398438 117.191406 197.707031 124.472656 197.726562 133.480469 C 197.746094 142.484375 190.472656 149.800781 181.480469 149.820312 Z M 181.480469 149.820312 "/>
<path style=" stroke:none;fill-rule:nonzero;fill:rgb(98.039216%,43.921569%,69.803922%);fill-opacity:1;" d="M 221.136719 122.625 C 212.144531 122.648438 204.839844 115.363281 204.816406 106.359375 C 204.796875 97.355469 212.066406 90.039062 221.058594 90.015625 C 230.050781 89.996094 237.359375 97.277344 237.382812 106.28125 C 237.402344 115.289062 230.128906 122.605469 221.136719 122.625 Z M 221.136719 122.625 "/>
<path style=" stroke:none;fill-rule:nonzero;fill:rgb(100%,81.568627%,38.039216%);fill-opacity:1;" d="M 267.054688 136.128906 C 258.0625 136.148438 250.753906 128.867188 250.734375 119.859375 C 250.714844 110.855469 257.984375 103.539062 266.976562 103.519531 C 275.96875 103.496094 283.277344 110.777344 283.296875 119.785156 C 283.320312 128.789062 276.046875 136.105469 267.054688 136.128906 Z M 267.054688 136.128906 "/>
<path style=" stroke:none;fill-rule:nonzero;fill:rgb(94.117647%,95.686275%,96.862745%);fill-opacity:1;" d="M 315.269531 138.683594 C 303.921875 96.164062 262.832031 69.1875 220.179688 72.320312 C 257.742188 75.070312 291.667969 100.664062 301.816406 138.683594 C 305.609375 152.902344 304.976562 167.316406 303.679688 177.25 C 303.125 181.503906 300.609375 185.25 296.882812 187.371094 C 298.585938 188.378906 300.492188 188.988281 302.464844 189.144531 C 309.734375 189.726562 316.1875 184.496094 317.132812 177.253906 C 318.433594 167.316406 319.066406 152.902344 315.269531 138.683594 Z M 315.269531 138.683594 "/>
<path style=" stroke:none;fill-rule:nonzero;fill:rgb(94.117647%,95.686275%,96.862745%);fill-opacity:1;" d="M 263.597656 160.601562 C 259.660156 159.285156 250.566406 158.917969 246.691406 159.953125 C 237.613281 162.386719 229.730469 172.554688 227.445312 184.277344 C 225.9375 192.039062 226.175781 201.039062 228.496094 210.253906 C 228.578125 210.574219 228.65625 210.894531 228.742188 211.214844 C 229.84375 215.371094 231.351562 219.414062 233.238281 223.277344 C 239.882812 236.824219 231.667969 252.765625 217.511719 255.777344 C 220.453125 256.085938 223.421875 256.253906 226.414062 256.28125 C 226.738281 256.28125 227.097656 256.273438 227.492188 256.25 C 243.730469 255.320312 253.867188 237.902344 246.691406 223.277344 C 244.804688 219.414062 243.300781 215.371094 242.199219 211.214844 C 242.113281 210.894531 242.035156 210.574219 241.953125 210.253906 C 239.628906 201.042969 239.390625 192.039062 240.902344 184.277344 C 243.046875 173.269531 255.402344 163.609375 263.597656 160.601562 Z M 263.597656 160.601562 "/>
<path style="fill:none;stroke-width:2;stroke-linecap:round;stroke-linejoin:round;stroke:rgb(72.156863%,75.294118%,80%);stroke-opacity:1;stroke-miterlimit:4;" d="M 3801.808064 -202.082675 C 3798.933627 -207.960275 3796.64241 -214.11125 3794.964167 -220.434572 C 3794.83324 -220.921896 3794.714216 -221.40922 3794.589241 -221.896543 C 3791.048268 -235.910071 3790.685244 -249.608621 3792.988364 -261.417306 C 3796.463873 -279.252164 3806.009622 -292.760539 3819.846196 -296.457067 C 3838.098572 -301.336247 3858.392214 -287.697127 3870.925472 -264.370963 C 3872.48469 -261.452964 3874.758054 -258.974744 3877.53132 -257.168081 C 3880.304586 -255.361418 3883.482535 -254.279797 3886.779508 -254.018306 C 3897.86067 -253.138746 3907.686125 -261.090442 3909.132271 -272.114655 C 3911.108074 -287.227632 3912.072171 -309.151255 3906.293541 -330.783673 C 3886.868776 -403.460275 3810.26474 -446.285329 3737.332604 -427.850231 C 3700.946877 -418.662396 3669.762512 -395.264916 3650.772185 -362.887606 C 3631.775908 -330.516239 3626.568595 -291.875036 3636.310734 -255.628851 C 3652.95033 -193.661484 3709.427358 -152.304344 3770.92126 -151.87645 C 3771.409259 -151.87645 3771.956771 -151.882393 3772.557844 -151.918051 C 3797.297043 -153.332478 3812.740446 -179.832189 3801.808064 -202.082675 Z M 3716.34862 -207.835472 C 3713.450379 -218.66951 3719.883642 -229.800696 3730.720804 -232.694923 C 3741.552015 -235.595093 3752.686738 -229.158855 3755.579028 -218.318874 C 3758.47727 -207.484837 3752.038055 -196.353651 3741.206844 -193.465366 C 3730.369682 -190.565196 3719.240911 -197.001435 3716.34862 -207.835472 Z M 3716.34862 -207.835472 " transform="matrix(0.656379,0,0,0.657289,-2248.734051,356.104064)"/>
</g>
</svg>
