<svg xmlns="http://www.w3.org/2000/svg" width="113.208" height="105.719" viewBox="0 0 113.208 105.719">
  <g id="round_robin" data-name="round robin" transform="translate(-216.232 -331.014)">
    <path id="Path_384" data-name="Path 384" d="M52.86,0A52.86,52.86,0,1,1,0,52.86,52.86,52.86,0,0,1,52.86,0Z" transform="translate(219.733 331.014)" fill="#f0f4f7"/>
    <path id="Rectangle_472" data-name="Rectangle 472" d="M16.66,0h0A16.547,16.547,0,0,1,33.208,16.547v0a16.66,16.66,0,0,1-16.66,16.66H2.682A2.682,2.682,0,0,1,0,30.525V16.66A16.66,16.66,0,0,1,16.66,0Z" transform="translate(217.232 386.928)" fill="#fff" stroke="#b8c0cc" stroke-linecap="round" stroke-linejoin="round" stroke-width="2"/>
    <path id="Rectangle_473" data-name="Rectangle 473" d="M16.66,0h0A16.547,16.547,0,0,1,33.208,16.547v0a16.66,16.66,0,0,1-16.66,16.66H2.682A2.682,2.682,0,0,1,0,30.525V16.66A16.66,16.66,0,0,1,16.66,0Z" transform="translate(256.232 386.928)" fill="#fff" stroke="#b8c0cc" stroke-linecap="round" stroke-linejoin="round" stroke-width="2"/>
    <path id="Rectangle_474" data-name="Rectangle 474" d="M16.66,0h0A16.547,16.547,0,0,1,33.208,16.547v0a16.66,16.66,0,0,1-16.66,16.66H2.682A2.682,2.682,0,0,1,0,30.525V16.66A16.66,16.66,0,0,1,16.66,0Z" transform="translate(239.443 348.007)" fill="#fff" stroke="#b8c0cc" stroke-linecap="round" stroke-linejoin="round" stroke-width="2"/>
    <path id="Rectangle_500" data-name="Rectangle 500" d="M16.66,0h0A16.547,16.547,0,0,1,33.208,16.547v0a16.66,16.66,0,0,1-16.66,16.66H2.682A2.682,2.682,0,0,1,0,30.525V16.66A16.66,16.66,0,0,1,16.66,0Z" transform="translate(278.443 348.007)" fill="#fff" stroke="#b8c0cc" stroke-linecap="round" stroke-linejoin="round" stroke-width="2"/>
    <path id="Rectangle_475" data-name="Rectangle 475" d="M16.66,0h0A16.547,16.547,0,0,1,33.208,16.547v0a16.66,16.66,0,0,1-16.66,16.66H2.682A2.682,2.682,0,0,1,0,30.525V16.66A16.66,16.66,0,0,1,16.66,0Z" transform="translate(295.232 387.007)" fill="#fff" stroke="#b8c0cc" stroke-linecap="round" stroke-linejoin="round" stroke-width="2"/>
  </g>
</svg>
