<svg xmlns="http://www.w3.org/2000/svg" width="169.883" height="165.833" viewBox="0 0 169.883 165.833">
  <g id="Group_525" data-name="Group 525" transform="translate(-899.058 -61.302)">
    <rect id="Rectangle_625" data-name="Rectangle 625" width="168" height="131.852" rx="9.593" transform="translate(900 72.577)" stroke-width="1.883" stroke="#b8c0cc" stroke-linecap="round" stroke-linejoin="round" fill="#fff"/>
    <circle id="Ellipse_328" data-name="Ellipse 328" cx="2.671" cy="2.671" r="2.671" transform="translate(955.217 184.626)" fill="#b8c0cc"/>
    <circle id="Ellipse_329" data-name="Ellipse 329" cx="2.671" cy="2.671" r="2.671" transform="translate(954.662 215.468)" fill="#b8c0cc"/>
    <rect id="Rectangle_626" data-name="Rectangle 626" width="9.341" height="9.341" rx="4.671" transform="translate(919.12 92.004)" stroke-width="1.883" stroke="#b8c0cc" stroke-linecap="round" stroke-linejoin="round" fill="none"/>
    <rect id="Rectangle_627" data-name="Rectangle 627" width="9.341" height="9.341" rx="4.671" transform="translate(960.56 92.004)" stroke-width="1.883" stroke="#b8c0cc" stroke-linecap="round" stroke-linejoin="round" fill="none"/>
    <rect id="Rectangle_628" data-name="Rectangle 628" width="9.341" height="9.341" rx="4.671" transform="translate(1001.999 92.004)" fill="#11abd5"/>
    <rect id="Rectangle_629" data-name="Rectangle 629" width="9.341" height="9.341" rx="4.671" transform="translate(1043.438 92.004)" stroke-width="1.883" stroke="#b8c0cc" stroke-linecap="round" stroke-linejoin="round" fill="none"/>
    <rect id="Rectangle_630" data-name="Rectangle 630" width="9.341" height="9.341" rx="4.671" transform="translate(919.12 119.514)" stroke-width="1.883" stroke="#b8c0cc" stroke-linecap="round" stroke-linejoin="round" fill="none"/>
    <rect id="Rectangle_631" data-name="Rectangle 631" width="9.341" height="9.341" rx="4.671" transform="translate(960.56 119.514)" stroke-width="1.883" stroke="#b8c0cc" stroke-linecap="round" stroke-linejoin="round" fill="none"/>
    <rect id="Rectangle_632" data-name="Rectangle 632" width="9.341" height="9.341" rx="4.671" transform="translate(1001.999 119.514)" stroke-width="1.883" stroke="#b8c0cc" stroke-linecap="round" stroke-linejoin="round" fill="none"/>
    <rect id="Rectangle_633" data-name="Rectangle 633" width="9.341" height="9.341" rx="4.671" transform="translate(1043.438 119.514)" stroke-width="1.883" stroke="#b8c0cc" stroke-linecap="round" stroke-linejoin="round" fill="none"/>
    <rect id="Rectangle_634" data-name="Rectangle 634" width="9.341" height="9.341" rx="4.671" transform="translate(919.12 147.023)" stroke-width="1.883" stroke="#b8c0cc" stroke-linecap="round" stroke-linejoin="round" fill="none"/>
    <rect id="Rectangle_635" data-name="Rectangle 635" width="9.341" height="9.341" rx="4.671" transform="translate(960.56 147.023)" fill="#11abd5"/>
    <rect id="Rectangle_636" data-name="Rectangle 636" width="9.341" height="9.341" rx="4.671" transform="translate(1001.999 147.023)" stroke-width="1.883" stroke="#b8c0cc" stroke-linecap="round" stroke-linejoin="round" fill="none"/>
    <rect id="Rectangle_637" data-name="Rectangle 637" width="9.341" height="9.341" rx="4.671" transform="translate(1043.438 147.023)" stroke-width="1.883" stroke="#b8c0cc" stroke-linecap="round" stroke-linejoin="round" fill="none"/>
    <rect id="Rectangle_638" data-name="Rectangle 638" width="9.341" height="9.341" rx="4.671" transform="translate(919.12 174.533)" stroke-width="1.883" stroke="#b8c0cc" stroke-linecap="round" stroke-linejoin="round" fill="none"/>
    <rect id="Rectangle_639" data-name="Rectangle 639" width="9.341" height="9.341" rx="4.671" transform="translate(960.56 174.533)" stroke-width="1.883" stroke="#b8c0cc" stroke-linecap="round" stroke-linejoin="round" fill="none"/>
    <rect id="Rectangle_640" data-name="Rectangle 640" width="9.341" height="9.341" rx="4.671" transform="translate(1001.999 174.533)" stroke-width="1.883" stroke="#b8c0cc" stroke-linecap="round" stroke-linejoin="round" fill="none"/>
    <rect id="Rectangle_641" data-name="Rectangle 641" width="9.341" height="9.341" rx="4.671" transform="translate(1043.438 174.533)" stroke-width="1.883" stroke="#b8c0cc" stroke-linecap="round" stroke-linejoin="round" fill="none"/>
    <rect id="Rectangle_642" data-name="Rectangle 642" width="9.235" height="19.089" rx="4.617" transform="translate(938.206 62.244)" stroke-width="1.883" stroke="#b8c0cc" stroke-linecap="round" stroke-linejoin="round" fill="#fff"/>
    <rect id="Rectangle_643" data-name="Rectangle 643" width="9.235" height="19.089" rx="4.617" transform="translate(1026.841 62.244)" stroke-width="1.883" stroke="#b8c0cc" stroke-linecap="round" stroke-linejoin="round" fill="#fff"/>
    <path id="Path_664" data-name="Path 664" d="M936.3,206.464s12.844-11.714,21.583-19.167" fill="none" stroke="#b8c0cc" stroke-linecap="round" stroke-linejoin="round" stroke-width="1.883"/>
    <g id="Group_523" data-name="Group 523">
      <path id="Rectangle_644" data-name="Rectangle 644" d="M21.838,0h0a21.69,21.69,0,0,1,21.69,21.69v0A21.838,21.838,0,0,1,21.69,43.529H3.516A3.516,3.516,0,0,1,0,40.012V21.838A21.838,21.838,0,0,1,21.838,0Z" transform="translate(909.238 182.665)" fill="#fff"/>
      <path id="Path_665" data-name="Path 665" d="M930.806,182.7h0a21.581,21.581,0,0,1,3.373.265c-8.874-.208-20.934,6.348-20.934,21.4v18.674a3.076,3.076,0,0,0,3.067,3.067h-4.1a3.075,3.075,0,0,1-3.066-3.067V204.361A21.725,21.725,0,0,1,930.806,182.7Z" fill="#eaeff4"/>
      <path id="Rectangle_645" data-name="Rectangle 645" d="M21.838,0h0a21.69,21.69,0,0,1,21.69,21.69v0A21.838,21.838,0,0,1,21.69,43.529H3.516A3.516,3.516,0,0,1,0,40.012V21.838A21.838,21.838,0,0,1,21.838,0Z" transform="translate(909.238 182.665)" fill="none" stroke="#b8c0cc" stroke-linecap="round" stroke-linejoin="round" stroke-width="1.883"/>
      <ellipse id="Ellipse_330" data-name="Ellipse 330" cx="1.462" cy="2.307" rx="1.462" ry="2.307" transform="translate(941.386 193.575) rotate(-11.498)" fill="#b8c0cc"/>
    </g>
    <path id="Path_666" data-name="Path 666" d="M936.3,208s9.362,10.306,20.2,10.14" fill="none" stroke="#b8c0cc" stroke-linecap="round" stroke-linejoin="round" stroke-width="2"/>
    <g id="Group_524" data-name="Group 524">
      <path id="Rectangle_646" data-name="Rectangle 646" d="M2.231,0H13.764A13.858,13.858,0,0,1,27.622,13.858v0A13.764,13.764,0,0,1,13.858,27.622h0A13.858,13.858,0,0,1,0,13.764V2.231A2.231,2.231,0,0,1,2.231,0Z" transform="translate(993.622 226.102) rotate(180)" fill="#fff"/>
      <path id="Path_667" data-name="Path 667" d="M979.936,198.5h0a13.732,13.732,0,0,0-2.14.168,13.059,13.059,0,0,1,13.284,13.578V224.1a1.951,1.951,0,0,1-1.946,1.946h2.6a1.951,1.951,0,0,0,1.946-1.946v-11.85A13.786,13.786,0,0,0,979.936,198.5Z" fill="#eaeff4"/>
      <path id="Rectangle_647" data-name="Rectangle 647" d="M2.231,0H13.764A13.858,13.858,0,0,1,27.622,13.858v0A13.764,13.764,0,0,1,13.858,27.622h0A13.858,13.858,0,0,1,0,13.764V2.231A2.231,2.231,0,0,1,2.231,0Z" transform="translate(993.622 226.102) rotate(180)" fill="none" stroke="#b8c0cc" stroke-linecap="round" stroke-linejoin="round" stroke-width="1.883"/>
      <ellipse id="Ellipse_331" data-name="Ellipse 331" cx="1.75" cy="1.109" rx="1.75" ry="1.109" transform="matrix(0.378, -0.926, 0.926, 0.378, 971.565, 208.029)" fill="#b8c0cc"/>
    </g>
    <path id="Path_668" data-name="Path 668" d="M975.5,214s-4.766,5.475-18.167,4.142" fill="none" stroke="#b8c0cc" stroke-linecap="round" stroke-linejoin="round" stroke-width="2"/>
  </g>
</svg>
