<?xml version="1.0" encoding="UTF-8"?>
<svg xmlns="http://www.w3.org/2000/svg" xmlns:xlink="http://www.w3.org/1999/xlink" width="319pt" height="193pt" viewBox="0 0 319 193" version="1.1">
<g id="surface1">
<path style="fill-rule:nonzero;fill:rgb(100%,100%,100%);fill-opacity:1;stroke-width:2;stroke-linecap:round;stroke-linejoin:round;stroke:rgb(72.156863%,75.294118%,80%);stroke-opacity:1;stroke-miterlimit:4;" d="M 23.953727 0.00186205 L 384.677399 0.00186205 C 397.906301 0.00186205 408.630083 10.721786 408.630083 23.953044 L 408.630083 304.080351 C 408.630083 317.30493 397.906301 328.031533 384.677399 328.031533 L 23.953727 328.031533 C 10.724825 328.031533 0.00104242 317.30493 0.00104242 304.080351 L 0.00104242 23.953044 C 0.00104242 10.721786 10.724825 0.00186205 23.953727 0.00186205 Z M 23.953727 0.00186205 " transform="matrix(0.583181,0,0,0.584848,44.714236,0.584848)"/>
<path style=" stroke:none;fill-rule:nonzero;fill:rgb(94.117647%,95.686275%,96.862745%);fill-opacity:1;" d="M 87.628906 10.679688 C 92.222656 10.679688 95.945312 14.414062 95.945312 19.015625 C 95.945312 23.621094 92.222656 27.355469 87.628906 27.355469 C 83.039062 27.355469 79.316406 23.621094 79.316406 19.015625 C 79.316406 14.414062 83.039062 10.679688 87.628906 10.679688 Z M 87.628906 10.679688 "/>
<path style=" stroke:none;fill-rule:nonzero;fill:rgb(94.117647%,95.686275%,96.862745%);fill-opacity:1;" d="M 113.390625 13.691406 L 245.859375 13.691406 C 248.570312 13.691406 250.769531 15.898438 250.769531 18.621094 L 250.769531 19.414062 C 250.769531 22.136719 248.570312 24.34375 245.859375 24.34375 L 113.390625 24.34375 C 110.675781 24.34375 108.476562 22.136719 108.476562 19.414062 L 108.476562 18.621094 C 108.476562 15.898438 110.675781 13.691406 113.390625 13.691406 Z M 113.390625 13.691406 "/>
<path style=" stroke:none;fill-rule:nonzero;fill:rgb(94.117647%,95.686275%,96.862745%);fill-opacity:1;" d="M 137.792969 93.441406 L 246.386719 93.441406 C 248.808594 93.441406 250.769531 95.410156 250.769531 97.839844 C 250.769531 100.269531 248.808594 102.238281 246.386719 102.238281 L 137.792969 102.238281 C 135.371094 102.238281 133.410156 100.269531 133.410156 97.839844 C 133.410156 95.410156 135.371094 93.441406 137.792969 93.441406 Z M 137.792969 93.441406 "/>
<path style=" stroke:none;fill-rule:nonzero;fill:rgb(94.117647%,95.686275%,96.862745%);fill-opacity:1;" d="M 137.195312 110.695312 L 211.027344 110.695312 C 213.121094 110.695312 214.816406 112.394531 214.816406 114.492188 L 214.816406 115.691406 C 214.816406 117.789062 213.121094 119.488281 211.027344 119.488281 L 137.195312 119.488281 C 135.105469 119.488281 133.410156 117.789062 133.410156 115.691406 L 133.410156 114.492188 C 133.410156 112.394531 135.105469 110.695312 137.195312 110.695312 Z M 137.195312 110.695312 "/>
<path style=" stroke:none;fill-rule:nonzero;fill:rgb(100%,86.27451%,39.215686%);fill-opacity:1;" d="M 198.742188 48.730469 L 191.921875 48.09375 L 189.210938 41.785156 C 189.125 41.585938 188.929688 41.453125 188.710938 41.453125 C 188.492188 41.453125 188.292969 41.585938 188.207031 41.785156 L 185.5 48.09375 L 178.679688 48.730469 C 178.460938 48.75 178.277344 48.898438 178.210938 49.105469 C 178.140625 49.3125 178.203125 49.542969 178.367188 49.6875 L 183.511719 54.21875 L 182.007812 60.921875 C 181.960938 61.136719 182.042969 61.355469 182.21875 61.484375 C 182.394531 61.613281 182.632812 61.625 182.820312 61.511719 L 188.710938 58.003906 L 194.601562 61.511719 C 194.789062 61.625 195.023438 61.613281 195.199219 61.484375 C 195.378906 61.355469 195.460938 61.136719 195.414062 60.921875 L 193.90625 54.21875 L 199.050781 49.6875 C 199.214844 49.542969 199.277344 49.3125 199.210938 49.105469 C 199.144531 48.898438 198.957031 48.75 198.742188 48.730469 Z M 198.742188 48.730469 "/>
<path style=" stroke:none;fill-rule:nonzero;fill:rgb(100%,86.27451%,39.215686%);fill-opacity:1;" d="M 215.414062 52.195312 L 210.4375 51.734375 L 208.457031 47.128906 C 208.394531 46.980469 208.25 46.886719 208.089844 46.886719 C 207.933594 46.886719 207.789062 46.980469 207.726562 47.128906 L 205.746094 51.734375 L 200.765625 52.195312 C 200.605469 52.210938 200.472656 52.320312 200.421875 52.472656 C 200.371094 52.625 200.417969 52.792969 200.539062 52.898438 L 204.296875 56.210938 L 203.199219 61.101562 C 203.164062 61.257812 203.222656 61.421875 203.351562 61.515625 C 203.480469 61.609375 203.652344 61.617188 203.789062 61.535156 L 208.089844 58.972656 L 212.390625 61.535156 C 212.527344 61.617188 212.699219 61.609375 212.832031 61.515625 C 212.960938 61.421875 213.019531 61.257812 212.984375 61.101562 L 211.886719 56.210938 L 215.644531 52.898438 C 215.765625 52.792969 215.8125 52.625 215.761719 52.472656 C 215.710938 52.320312 215.574219 52.210938 215.414062 52.195312 Z M 215.414062 52.195312 "/>
<path style=" stroke:none;fill-rule:nonzero;fill:rgb(100%,78.431373%,31.372549%);fill-opacity:1;" d="M 128.4375 49.6875 L 133.582031 54.21875 L 132.078125 60.921875 C 132.03125 61.136719 132.113281 61.355469 132.289062 61.484375 C 132.464844 61.613281 132.703125 61.625 132.890625 61.511719 L 138.78125 58.003906 L 144.667969 61.511719 C 144.855469 61.625 145.09375 61.613281 145.269531 61.484375 C 145.445312 61.355469 145.53125 61.136719 145.480469 60.921875 L 143.976562 54.21875 L 149.121094 49.6875 C 149.285156 49.542969 149.347656 49.3125 149.28125 49.105469 C 149.214844 48.898438 149.027344 48.75 148.8125 48.730469 L 141.988281 48.09375 L 139.277344 41.785156 C 139.191406 41.585938 138.996094 41.453125 138.777344 41.453125 C 138.558594 41.453125 138.359375 41.585938 138.273438 41.785156 L 135.566406 48.09375 L 128.742188 48.730469 C 128.527344 48.75 128.34375 48.898438 128.277344 49.109375 C 128.210938 49.316406 128.273438 49.542969 128.4375 49.6875 Z M 128.4375 49.6875 "/>
<path style=" stroke:none;fill-rule:nonzero;fill:rgb(100%,78.431373%,31.372549%);fill-opacity:1;" d="M 111.847656 52.898438 L 115.601562 56.210938 L 114.503906 61.101562 C 114.46875 61.257812 114.53125 61.417969 114.660156 61.511719 C 114.789062 61.605469 114.960938 61.617188 115.097656 61.535156 L 119.398438 58.972656 L 123.699219 61.535156 C 123.835938 61.617188 124.007812 61.609375 124.136719 61.515625 C 124.265625 61.421875 124.324219 61.257812 124.289062 61.101562 L 123.191406 56.210938 L 126.949219 52.898438 C 127.070312 52.792969 127.117188 52.625 127.066406 52.472656 C 127.019531 52.320312 126.882812 52.210938 126.722656 52.195312 L 121.742188 51.734375 L 119.765625 47.128906 C 119.699219 46.980469 119.558594 46.886719 119.398438 46.886719 C 119.238281 46.886719 119.09375 46.980469 119.03125 47.128906 L 117.050781 51.734375 L 112.070312 52.195312 C 111.914062 52.210938 111.777344 52.320312 111.726562 52.472656 C 111.679688 52.625 111.726562 52.792969 111.847656 52.898438 Z M 111.847656 52.898438 "/>
<path style=" stroke:none;fill-rule:nonzero;fill:rgb(100%,86.27451%,39.215686%);fill-opacity:1;" d="M 177.15625 44.488281 L 168.085938 43.644531 L 164.484375 35.253906 C 164.367188 34.988281 164.105469 34.8125 163.816406 34.8125 C 163.523438 34.8125 163.261719 34.988281 163.148438 35.253906 L 159.542969 43.644531 L 150.476562 44.488281 C 150.1875 44.515625 149.941406 44.710938 149.851562 44.988281 C 149.761719 45.265625 149.84375 45.570312 150.0625 45.761719 L 156.90625 51.789062 L 154.902344 60.699219 C 154.839844 60.984375 154.949219 61.277344 155.183594 61.449219 C 155.421875 61.621094 155.734375 61.636719 155.984375 61.488281 L 163.816406 56.824219 L 171.648438 61.488281 C 171.894531 61.636719 172.210938 61.621094 172.445312 61.449219 C 172.679688 61.28125 172.792969 60.984375 172.726562 60.699219 L 170.722656 51.789062 L 177.566406 45.757812 C 177.785156 45.566406 177.867188 45.265625 177.777344 44.988281 C 177.6875 44.710938 177.441406 44.515625 177.15625 44.488281 Z M 177.15625 44.488281 "/>
<path style=" stroke:none;fill-rule:nonzero;fill:rgb(100%,78.431373%,31.372549%);fill-opacity:1;" d="M 165.792969 38.304688 L 164.484375 35.253906 C 164.367188 34.988281 164.105469 34.8125 163.816406 34.8125 C 163.523438 34.8125 163.261719 34.988281 163.148438 35.253906 L 159.542969 43.644531 L 150.476562 44.488281 C 150.1875 44.515625 149.941406 44.710938 149.851562 44.988281 C 149.761719 45.265625 149.84375 45.570312 150.0625 45.761719 L 156.90625 51.789062 L 154.902344 60.699219 C 154.839844 60.984375 154.949219 61.277344 155.183594 61.449219 C 155.421875 61.621094 155.734375 61.636719 155.984375 61.488281 L 157.027344 60.867188 C 158.289062 52.800781 161.28125 45.101562 165.792969 38.304688 Z M 165.792969 38.304688 "/>
<path style=" stroke:none;fill-rule:nonzero;fill:rgb(100%,94.117647%,50.980392%);fill-opacity:1;" d="M 129.644531 35.921875 C 130.242188 36.753906 131.925781 40.324219 132.890625 42.40625 C 132.957031 42.546875 132.910156 42.714844 132.785156 42.808594 C 132.65625 42.898438 132.484375 42.886719 132.371094 42.78125 C 130.707031 41.203125 127.867188 38.46875 127.269531 37.636719 C 126.957031 37.214844 126.898438 36.652344 127.113281 36.171875 C 127.328125 35.6875 127.78125 35.359375 128.308594 35.308594 C 128.832031 35.257812 129.339844 35.492188 129.644531 35.921875 Z M 129.644531 35.921875 "/>
<path style=" stroke:none;fill-rule:nonzero;fill:rgb(100%,94.117647%,50.980392%);fill-opacity:1;" d="M 197.421875 35.921875 C 196.828125 36.753906 195.144531 40.324219 194.179688 42.40625 C 194.113281 42.546875 194.15625 42.714844 194.285156 42.808594 C 194.410156 42.898438 194.585938 42.886719 194.699219 42.78125 C 196.359375 41.203125 199.203125 38.46875 199.796875 37.636719 C 200.261719 36.980469 200.109375 36.074219 199.457031 35.601562 C 198.804688 35.132812 197.898438 35.277344 197.421875 35.921875 Z M 197.421875 35.921875 "/>
<path style=" stroke:none;fill-rule:nonzero;fill:rgb(100%,94.117647%,50.980392%);fill-opacity:1;" d="M 224.34375 58.734375 C 223.371094 58.414062 219.46875 57.890625 217.199219 57.601562 C 217.046875 57.582031 216.898438 57.675781 216.851562 57.824219 C 216.800781 57.972656 216.867188 58.136719 217.003906 58.210938 C 219.003906 59.324219 222.464844 61.203125 223.4375 61.523438 C 224.199219 61.757812 225.011719 61.335938 225.257812 60.574219 C 225.507812 59.8125 225.097656 58.992188 224.34375 58.734375 Z M 224.34375 58.734375 "/>
<path style=" stroke:none;fill-rule:nonzero;fill:rgb(100%,94.117647%,50.980392%);fill-opacity:1;" d="M 102.808594 58.734375 C 103.78125 58.414062 107.683594 57.890625 109.953125 57.601562 C 110.105469 57.582031 110.253906 57.675781 110.300781 57.824219 C 110.351562 57.972656 110.285156 58.136719 110.148438 58.210938 C 108.148438 59.324219 104.6875 61.203125 103.714844 61.523438 C 102.953125 61.757812 102.140625 61.335938 101.894531 60.574219 C 101.644531 59.8125 102.054688 58.992188 102.808594 58.734375 Z M 102.808594 58.734375 "/>
<path style=" stroke:none;fill-rule:nonzero;fill:rgb(100%,94.117647%,50.980392%);fill-opacity:1;" d="M 162.324219 70.597656 C 162.324219 69.574219 163.039062 65.691406 163.46875 63.4375 C 163.496094 63.28125 163.632812 63.167969 163.789062 63.167969 C 163.949219 63.167969 164.082031 63.28125 164.109375 63.4375 C 164.542969 65.691406 165.253906 69.574219 165.253906 70.597656 C 165.253906 71.410156 164.597656 72.066406 163.789062 72.066406 C 162.984375 72.066406 162.328125 71.410156 162.328125 70.597656 Z M 162.324219 70.597656 "/>
<path style=" stroke:none;fill-rule:nonzero;fill:rgb(94.117647%,95.686275%,96.862745%);fill-opacity:1;" d="M 86.3125 85.933594 L 115.085938 85.933594 C 118.949219 85.933594 122.082031 89.078125 122.082031 92.953125 L 122.082031 121.804688 C 122.082031 125.683594 118.949219 128.824219 115.085938 128.824219 L 86.3125 128.824219 C 82.449219 128.824219 79.316406 125.683594 79.316406 121.804688 L 79.316406 92.953125 C 79.316406 89.078125 82.449219 85.933594 86.3125 85.933594 Z M 86.3125 85.933594 "/>
<path style="fill:none;stroke-width:1.883;stroke-linecap:round;stroke-linejoin:round;stroke:rgb(72.156863%,75.294118%,80%);stroke-opacity:1;stroke-miterlimit:4;" d="M 36.666241 18.332239 C 36.666241 28.457724 28.460973 36.666314 18.333328 36.666314 C 8.205683 36.666314 0.000415165 28.457724 0.000415165 18.332239 C 0.000415165 8.206753 8.205683 -0.00183679 18.333328 -0.00183679 C 28.460973 -0.00183679 36.666241 8.206753 36.666241 18.332239 Z M 36.666241 18.332239 " transform="matrix(0.583181,0,0,0.584848,90.00757,96.657324)"/>
<path style=" stroke:none;fill-rule:nonzero;fill:rgb(72.156863%,75.294118%,80%);fill-opacity:1;" d="M 104.695312 108.222656 L 99.449219 111.261719 C 99.148438 111.4375 98.777344 111.4375 98.480469 111.261719 C 98.179688 111.089844 97.996094 110.769531 97.996094 110.421875 L 97.996094 104.339844 C 97.996094 103.992188 98.179688 103.671875 98.480469 103.5 C 98.777344 103.324219 99.148438 103.324219 99.449219 103.5 L 104.695312 106.539062 C 104.996094 106.714844 105.179688 107.035156 105.179688 107.378906 C 105.179688 107.726562 104.996094 108.046875 104.695312 108.222656 Z M 104.695312 108.222656 "/>
<path style=" stroke:none;fill-rule:nonzero;fill:rgb(94.117647%,95.686275%,96.862745%);fill-opacity:1;" d="M 137.792969 145.949219 L 246.386719 145.949219 C 248.808594 145.949219 250.769531 147.917969 250.769531 150.347656 C 250.769531 152.777344 248.808594 154.746094 246.386719 154.746094 L 137.792969 154.746094 C 135.371094 154.746094 133.410156 152.777344 133.410156 150.347656 C 133.410156 147.917969 135.371094 145.949219 137.792969 145.949219 Z M 137.792969 145.949219 "/>
<path style=" stroke:none;fill-rule:nonzero;fill:rgb(94.117647%,95.686275%,96.862745%);fill-opacity:1;" d="M 137.195312 163.203125 L 211.027344 163.203125 C 213.121094 163.203125 214.816406 164.902344 214.816406 167 L 214.816406 168.203125 C 214.816406 170.296875 213.121094 172 211.027344 172 L 137.195312 172 C 135.105469 172 133.410156 170.296875 133.410156 168.203125 L 133.410156 167 C 133.410156 164.902344 135.105469 163.203125 137.195312 163.203125 Z M 137.195312 163.203125 "/>
<path style=" stroke:none;fill-rule:nonzero;fill:rgb(94.117647%,95.686275%,96.862745%);fill-opacity:1;" d="M 86.3125 138.445312 L 115.085938 138.445312 C 118.949219 138.445312 122.082031 141.585938 122.082031 145.460938 L 122.082031 174.316406 C 122.082031 178.191406 118.949219 181.332031 115.085938 181.332031 L 86.3125 181.332031 C 82.449219 181.332031 79.316406 178.191406 79.316406 174.316406 L 79.316406 145.460938 C 79.316406 141.585938 82.449219 138.445312 86.3125 138.445312 Z M 86.3125 138.445312 "/>
<path style="fill:none;stroke-width:1.883;stroke-linecap:round;stroke-linejoin:round;stroke:rgb(72.156863%,75.294118%,80%);stroke-opacity:1;stroke-miterlimit:4;" d="M 36.666241 18.330436 C 36.666241 28.455922 28.460973 36.664512 18.333328 36.664512 C 8.205683 36.664512 0.000415165 28.455922 0.000415165 18.330436 C 0.000415165 8.20495 8.205683 0.00303983 18.333328 0.00303983 C 28.460973 0.00303983 36.666241 8.20495 36.666241 18.330436 Z M 36.666241 18.330436 " transform="matrix(0.583181,0,0,0.584848,90.00757,149.166191)"/>
<path style=" stroke:none;fill-rule:nonzero;fill:rgb(72.156863%,75.294118%,80%);fill-opacity:1;" d="M 104.695312 160.730469 L 99.449219 163.773438 C 99.148438 163.945312 98.777344 163.945312 98.480469 163.773438 C 98.179688 163.597656 97.996094 163.277344 97.996094 162.929688 L 97.996094 156.847656 C 97.996094 156.503906 98.179688 156.179688 98.480469 156.007812 C 98.777344 155.835938 99.148438 155.835938 99.449219 156.007812 L 104.695312 159.050781 C 104.996094 159.222656 105.179688 159.542969 105.179688 159.890625 C 105.179688 160.234375 104.996094 160.554688 104.695312 160.730469 Z M 104.695312 160.730469 "/>
<path style="fill-rule:nonzero;fill:rgb(100%,100%,100%);fill-opacity:1;stroke-width:1.883;stroke-linecap:round;stroke-linejoin:round;stroke:rgb(72.156863%,75.294118%,80%);stroke-opacity:1;stroke-miterlimit:4;" d="M 10.358235 0.00254105 L 107.772621 0.00254105 C 113.489914 0.00254105 118.125196 4.63768 118.125196 10.357924 L 118.125196 153.223361 C 118.125196 158.943604 113.489914 163.578744 107.772621 163.578744 L 10.358235 163.578744 C 4.634263 163.578744 -0.00101878 158.943604 -0.00101878 153.223361 L -0.00101878 10.357924 C -0.00101878 4.63768 4.634263 0.00254105 10.358235 0.00254105 Z M 10.358235 0.00254105 " transform="matrix(0.000000000000000036,0.584848,-0.583181,0.000000000000000036,318.231951,106.774033)"/>
<path style=" stroke:none;fill-rule:nonzero;fill:rgb(72.156863%,75.294118%,80%);fill-opacity:1;" d="M 239.617188 118.988281 C 239.5625 118.816406 239.414062 118.699219 239.238281 118.679688 L 236.832031 118.460938 L 235.878906 116.230469 C 235.8125 116.066406 235.648438 115.960938 235.472656 115.960938 C 235.292969 115.960938 235.132812 116.066406 235.0625 116.230469 L 234.113281 118.460938 L 231.707031 118.679688 C 231.53125 118.699219 231.382812 118.816406 231.328125 118.988281 C 231.273438 119.15625 231.324219 119.339844 231.457031 119.457031 L 233.273438 121.058594 L 232.738281 123.425781 C 232.699219 123.597656 232.765625 123.78125 232.910156 123.882812 C 233.054688 123.988281 233.246094 123.996094 233.398438 123.90625 L 235.472656 122.664062 L 237.546875 123.90625 C 237.699219 123.996094 237.890625 123.988281 238.03125 123.882812 C 238.175781 123.78125 238.246094 123.597656 238.203125 123.425781 L 237.667969 121.058594 L 239.488281 119.457031 C 239.621094 119.34375 239.671875 119.15625 239.617188 118.988281 Z M 239.617188 118.988281 "/>
<path style=" stroke:none;fill-rule:nonzero;fill:rgb(72.156863%,75.294118%,80%);fill-opacity:1;" d="M 249.582031 118.988281 C 249.527344 118.816406 249.378906 118.699219 249.203125 118.679688 L 246.796875 118.460938 L 245.847656 116.230469 C 245.777344 116.066406 245.617188 115.960938 245.4375 115.960938 C 245.257812 115.960938 245.097656 116.066406 245.03125 116.230469 L 244.078125 118.460938 L 241.671875 118.679688 C 241.496094 118.699219 241.347656 118.816406 241.292969 118.988281 C 241.238281 119.15625 241.289062 119.339844 241.421875 119.457031 L 243.238281 121.058594 L 242.703125 123.425781 C 242.664062 123.601562 242.734375 123.78125 242.878906 123.882812 C 243.019531 123.988281 243.210938 123.996094 243.363281 123.90625 L 245.4375 122.664062 L 247.511719 123.90625 C 247.664062 123.996094 247.855469 123.988281 248 123.882812 C 248.144531 123.78125 248.210938 123.597656 248.171875 123.425781 L 247.636719 121.058594 L 249.453125 119.457031 C 249.585938 119.339844 249.636719 119.15625 249.582031 118.988281 Z M 249.582031 118.988281 "/>
<path style=" stroke:none;fill-rule:nonzero;fill:rgb(72.156863%,75.294118%,80%);fill-opacity:1;" d="M 259.546875 118.988281 C 259.492188 118.816406 259.34375 118.699219 259.167969 118.679688 L 256.761719 118.460938 L 255.8125 116.230469 C 255.742188 116.066406 255.582031 115.960938 255.402344 115.960938 C 255.226562 115.960938 255.066406 116.066406 254.996094 116.230469 L 254.042969 118.460938 L 251.640625 118.679688 C 251.460938 118.699219 251.3125 118.816406 251.257812 118.988281 C 251.203125 119.15625 251.253906 119.339844 251.386719 119.457031 L 253.207031 121.058594 L 252.667969 123.425781 C 252.628906 123.597656 252.695312 123.78125 252.839844 123.882812 C 252.984375 123.988281 253.175781 123.996094 253.328125 123.90625 L 255.402344 122.664062 L 257.476562 123.90625 C 257.628906 123.996094 257.820312 123.988281 257.964844 123.882812 C 258.109375 123.78125 258.175781 123.597656 258.136719 123.425781 L 257.601562 121.058594 L 259.417969 119.457031 C 259.550781 119.34375 259.605469 119.15625 259.546875 118.988281 Z M 259.546875 118.988281 "/>
<path style=" stroke:none;fill-rule:nonzero;fill:rgb(72.156863%,75.294118%,80%);fill-opacity:1;" d="M 269.515625 118.988281 C 269.460938 118.816406 269.308594 118.699219 269.132812 118.679688 L 266.726562 118.460938 L 265.777344 116.230469 C 265.707031 116.066406 265.546875 115.960938 265.367188 115.960938 C 265.191406 115.960938 265.03125 116.066406 264.960938 116.230469 L 264.011719 118.460938 L 261.605469 118.679688 C 261.425781 118.699219 261.277344 118.816406 261.222656 118.988281 C 261.167969 119.15625 261.21875 119.339844 261.351562 119.457031 L 263.171875 121.058594 L 262.632812 123.425781 C 262.59375 123.601562 262.664062 123.78125 262.808594 123.882812 C 262.953125 123.988281 263.144531 123.996094 263.296875 123.90625 L 265.371094 122.664062 L 267.445312 123.90625 C 267.597656 123.996094 267.789062 123.988281 267.933594 123.882812 C 268.074219 123.78125 268.144531 123.597656 268.101562 123.425781 L 267.566406 121.058594 L 269.386719 119.457031 C 269.519531 119.339844 269.570312 119.15625 269.515625 118.988281 Z M 269.515625 118.988281 "/>
<path style=" stroke:none;fill-rule:nonzero;fill:rgb(72.156863%,75.294118%,80%);fill-opacity:1;" d="M 279.480469 118.988281 C 279.425781 118.816406 279.277344 118.699219 279.097656 118.679688 L 276.695312 118.460938 L 275.742188 116.230469 C 275.671875 116.066406 275.511719 115.960938 275.335938 115.960938 C 275.15625 115.960938 274.996094 116.066406 274.925781 116.230469 L 273.976562 118.460938 L 271.570312 118.679688 C 271.394531 118.699219 271.246094 118.816406 271.191406 118.988281 C 271.136719 119.15625 271.1875 119.339844 271.320312 119.457031 L 273.136719 121.058594 L 272.601562 123.425781 C 272.5625 123.597656 272.628906 123.78125 272.773438 123.882812 C 272.914062 123.988281 273.109375 123.996094 273.261719 123.90625 L 275.335938 122.664062 L 277.40625 123.90625 C 277.558594 123.996094 277.753906 123.988281 277.894531 123.882812 C 278.039062 123.78125 278.105469 123.597656 278.066406 123.425781 L 277.53125 121.058594 L 279.347656 119.457031 C 279.484375 119.34375 279.535156 119.15625 279.480469 118.988281 Z M 279.480469 118.988281 "/>
<path style=" stroke:none;fill-rule:nonzero;fill:rgb(94.117647%,95.686275%,96.862745%);fill-opacity:1;" d="M 234.070312 133.914062 L 306.996094 133.914062 C 308.523438 133.914062 309.761719 135.15625 309.761719 136.683594 C 309.761719 138.214844 308.523438 139.457031 306.996094 139.457031 L 234.070312 139.457031 C 232.542969 139.457031 231.304688 138.214844 231.304688 136.683594 C 231.304688 135.15625 232.542969 133.914062 234.070312 133.914062 Z M 234.070312 133.914062 "/>
<path style=" stroke:none;fill-rule:nonzero;fill:rgb(94.117647%,95.686275%,96.862745%);fill-opacity:1;" d="M 234.070312 146.195312 L 306.996094 146.195312 C 308.523438 146.195312 309.761719 147.4375 309.761719 148.96875 C 309.761719 150.5 308.523438 151.738281 306.996094 151.738281 L 234.070312 151.738281 C 232.542969 151.738281 231.304688 150.5 231.304688 148.96875 C 231.304688 147.4375 232.542969 146.195312 234.070312 146.195312 Z M 234.070312 146.195312 "/>
<path style=" stroke:none;fill-rule:nonzero;fill:rgb(94.117647%,95.686275%,96.862745%);fill-opacity:1;" d="M 233.683594 158.476562 L 286.9375 158.476562 C 288.25 158.476562 289.316406 159.542969 289.316406 160.859375 L 289.316406 161.636719 C 289.316406 162.953125 288.25 164.019531 286.9375 164.019531 L 233.683594 164.019531 C 232.371094 164.019531 231.304688 162.953125 231.304688 161.636719 L 231.304688 160.859375 C 231.304688 159.542969 232.371094 158.476562 233.683594 158.476562 Z M 233.683594 158.476562 "/>
<path style="fill-rule:nonzero;fill:rgb(100%,100%,100%);fill-opacity:1;stroke-width:1.883;stroke-linecap:round;stroke-linejoin:round;stroke:rgb(72.156863%,75.294118%,80%);stroke-opacity:1;stroke-miterlimit:4;" d="M 3872.522397 735.696393 L 3862.294279 729.878915 L 3872.522397 724.054756 " transform="matrix(0.583181,0,0,0.584848,-1950.736903,-306.899827)"/>
<path style="fill-rule:nonzero;fill:rgb(100%,100%,100%);fill-opacity:1;stroke-width:1.883;stroke-linecap:round;stroke-linejoin:round;stroke:rgb(72.156863%,75.294118%,80%);stroke-opacity:1;stroke-miterlimit:4;" d="M 4.31321 2.158436 C 4.31321 3.347312 3.348673 4.309099 2.156397 4.309099 C 0.964121 4.309099 -0.000416438 3.347312 -0.000416438 2.158436 C -0.000416438 0.96288 0.964121 0.00109262 2.156397 0.00109262 C 3.348673 0.00109262 4.31321 0.96288 4.31321 2.158436 Z M 4.31321 2.158436 " transform="matrix(0.583181,0,0,0.584848,306.386962,115.304048)"/>
<path style="fill-rule:nonzero;fill:rgb(100%,100%,100%);fill-opacity:1;stroke-width:1.883;stroke-linecap:round;stroke-linejoin:round;stroke:rgb(72.156863%,75.294118%,80%);stroke-opacity:1;stroke-miterlimit:4;" d="M 4.311092 2.157915 C 4.311092 3.346791 3.346555 4.315257 2.154279 4.315257 C 0.962004 4.315257 -0.00253409 3.346791 -0.00253409 2.157915 C -0.00253409 0.962359 0.962004 0.000571567 2.154279 0.000571567 C 3.346555 0.000571567 4.311092 0.962359 4.311092 2.157915 Z M 4.311092 2.157915 " transform="matrix(0.583181,0,0,0.584848,300.423353,118.706697)"/>
<path style="fill-rule:nonzero;fill:rgb(100%,100%,100%);fill-opacity:1;stroke-width:1.883;stroke-linecap:round;stroke-linejoin:round;stroke:rgb(72.156863%,75.294118%,80%);stroke-opacity:1;stroke-miterlimit:4;" d="M 4.31321 2.157393 C 4.31321 3.34627 3.348673 4.314736 2.156397 4.314736 C 0.964121 4.314736 -0.000416438 3.34627 -0.000416438 2.157393 C -0.000416438 0.968517 0.964121 0.0000505181 2.156397 0.0000505181 C 3.348673 0.0000505181 4.31321 0.968517 4.31321 2.157393 Z M 4.31321 2.157393 " transform="matrix(0.583181,0,0,0.584848,306.386962,122.109345)"/>
<path style="fill-rule:nonzero;fill:rgb(100%,100%,100%);fill-opacity:1;stroke-width:1.883;stroke-linecap:round;stroke-linejoin:round;stroke:rgb(72.156863%,75.294118%,80%);stroke-opacity:1;stroke-miterlimit:4;" d="M 10.357138 -0.000645572 L 107.771524 -0.000645572 C 113.488817 -0.000645572 118.130778 4.634494 118.130778 10.354737 L 118.130778 153.226872 C 118.130778 158.940418 113.488817 163.582255 107.771524 163.582255 L 10.357138 163.582255 C 4.633166 163.582255 -0.00211561 158.940418 -0.00211561 153.226872 L -0.00211561 10.354737 C -0.00211561 4.634494 4.633166 -0.000645572 10.357138 -0.000645572 Z M 10.357138 -0.000645572 " transform="matrix(0.000000000000000036,0.584848,-0.583181,0.000000000000000036,95.944936,41.606706)"/>
<path style=" stroke:none;fill-rule:nonzero;fill:rgb(72.156863%,75.294118%,80%);fill-opacity:1;" d="M 17.328125 53.820312 C 17.273438 53.652344 17.125 53.53125 16.949219 53.515625 L 14.542969 53.296875 L 13.59375 51.066406 C 13.523438 50.902344 13.363281 50.792969 13.183594 50.792969 C 13.007812 50.792969 12.84375 50.902344 12.777344 51.066406 L 11.824219 53.296875 L 9.421875 53.515625 C 9.242188 53.53125 9.09375 53.652344 9.039062 53.820312 C 8.984375 53.992188 9.035156 54.175781 9.167969 54.292969 L 10.988281 55.894531 L 10.449219 58.261719 C 10.410156 58.433594 10.476562 58.613281 10.621094 58.71875 C 10.765625 58.824219 10.957031 58.832031 11.109375 58.742188 L 13.183594 57.496094 L 15.257812 58.742188 C 15.410156 58.832031 15.601562 58.824219 15.746094 58.71875 C 15.886719 58.613281 15.957031 58.433594 15.917969 58.261719 L 15.378906 55.894531 L 17.199219 54.292969 C 17.332031 54.175781 17.386719 53.992188 17.328125 53.820312 Z M 17.328125 53.820312 "/>
<path style=" stroke:none;fill-rule:nonzero;fill:rgb(72.156863%,75.294118%,80%);fill-opacity:1;" d="M 27.296875 53.820312 C 27.242188 53.652344 27.09375 53.53125 26.914062 53.515625 L 24.511719 53.296875 L 23.558594 51.066406 C 23.488281 50.902344 23.328125 50.792969 23.152344 50.792969 C 22.972656 50.792969 22.8125 50.902344 22.742188 51.066406 L 21.792969 53.296875 L 19.386719 53.515625 C 19.210938 53.53125 19.058594 53.652344 19.003906 53.820312 C 18.949219 53.992188 19 54.175781 19.132812 54.292969 L 20.953125 55.894531 L 20.417969 58.261719 C 20.375 58.433594 20.445312 58.613281 20.585938 58.71875 C 20.730469 58.824219 20.921875 58.832031 21.074219 58.742188 L 23.148438 57.496094 L 25.222656 58.742188 C 25.375 58.832031 25.566406 58.824219 25.710938 58.71875 C 25.855469 58.613281 25.921875 58.433594 25.882812 58.261719 L 25.347656 55.894531 L 27.164062 54.292969 C 27.300781 54.175781 27.351562 53.992188 27.296875 53.820312 Z M 27.296875 53.820312 "/>
<path style=" stroke:none;fill-rule:nonzero;fill:rgb(72.156863%,75.294118%,80%);fill-opacity:1;" d="M 37.261719 53.820312 C 37.207031 53.652344 37.058594 53.53125 36.878906 53.515625 L 34.476562 53.296875 L 33.523438 51.066406 C 33.453125 50.902344 33.292969 50.792969 33.117188 50.792969 C 32.9375 50.792969 32.777344 50.902344 32.707031 51.066406 L 31.757812 53.296875 L 29.351562 53.515625 C 29.175781 53.53125 29.023438 53.652344 28.96875 53.820312 C 28.914062 53.992188 28.964844 54.175781 29.097656 54.292969 L 30.917969 55.894531 L 30.382812 58.261719 C 30.34375 58.433594 30.410156 58.613281 30.554688 58.71875 C 30.695312 58.824219 30.890625 58.832031 31.039062 58.742188 L 33.113281 57.496094 L 35.1875 58.742188 C 35.339844 58.832031 35.53125 58.824219 35.675781 58.71875 C 35.820312 58.613281 35.886719 58.433594 35.847656 58.261719 L 35.3125 55.894531 L 37.128906 54.292969 C 37.265625 54.175781 37.316406 53.992188 37.261719 53.820312 Z M 37.261719 53.820312 "/>
<path style=" stroke:none;fill-rule:nonzero;fill:rgb(72.156863%,75.294118%,80%);fill-opacity:1;" d="M 47.226562 53.820312 C 47.171875 53.652344 47.023438 53.53125 46.847656 53.515625 L 44.441406 53.296875 L 43.488281 51.066406 C 43.421875 50.902344 43.261719 50.792969 43.082031 50.792969 C 42.902344 50.792969 42.742188 50.902344 42.671875 51.066406 L 41.722656 53.296875 L 39.316406 53.515625 C 39.140625 53.53125 38.992188 53.652344 38.9375 53.820312 C 38.882812 53.992188 38.933594 54.175781 39.066406 54.292969 L 40.882812 55.894531 L 40.347656 58.261719 C 40.308594 58.433594 40.375 58.613281 40.519531 58.71875 C 40.664062 58.824219 40.855469 58.832031 41.007812 58.742188 L 43.082031 57.496094 L 45.15625 58.742188 C 45.308594 58.832031 45.5 58.824219 45.640625 58.71875 C 45.785156 58.613281 45.851562 58.433594 45.8125 58.261719 L 45.277344 55.894531 L 47.097656 54.292969 C 47.230469 54.175781 47.28125 53.992188 47.226562 53.820312 Z M 47.226562 53.820312 "/>
<path style=" stroke:none;fill-rule:nonzero;fill:rgb(72.156863%,75.294118%,80%);fill-opacity:1;" d="M 57.191406 53.820312 C 57.136719 53.652344 56.988281 53.53125 56.8125 53.515625 L 54.40625 53.296875 L 53.457031 51.066406 C 53.386719 50.902344 53.226562 50.792969 53.046875 50.792969 C 52.871094 50.792969 52.707031 50.902344 52.640625 51.066406 L 51.6875 53.296875 L 49.28125 53.515625 C 49.105469 53.53125 48.957031 53.652344 48.902344 53.820312 C 48.847656 53.992188 48.898438 54.175781 49.03125 54.292969 L 50.847656 55.894531 L 50.3125 58.261719 C 50.273438 58.433594 50.339844 58.613281 50.484375 58.71875 C 50.628906 58.824219 50.820312 58.832031 50.972656 58.742188 L 53.046875 57.496094 L 55.121094 58.742188 C 55.273438 58.832031 55.464844 58.824219 55.609375 58.71875 C 55.75 58.613281 55.820312 58.433594 55.78125 58.261719 L 55.242188 55.894531 L 57.0625 54.292969 C 57.195312 54.175781 57.246094 53.992188 57.191406 53.820312 Z M 57.191406 53.820312 "/>
<path style=" stroke:none;fill-rule:nonzero;fill:rgb(94.117647%,95.686275%,96.862745%);fill-opacity:1;" d="M 11.78125 68.746094 L 84.710938 68.746094 C 86.238281 68.746094 87.476562 69.988281 87.476562 71.519531 C 87.476562 73.050781 86.238281 74.289062 84.710938 74.289062 L 11.78125 74.289062 C 10.257812 74.289062 9.019531 73.050781 9.019531 71.519531 C 9.019531 69.988281 10.257812 68.746094 11.78125 68.746094 Z M 11.78125 68.746094 "/>
<path style=" stroke:none;fill-rule:nonzero;fill:rgb(94.117647%,95.686275%,96.862745%);fill-opacity:1;" d="M 11.78125 81.027344 L 84.710938 81.027344 C 86.238281 81.027344 87.476562 82.269531 87.476562 83.800781 C 87.476562 85.332031 86.238281 86.570312 84.710938 86.570312 L 11.78125 86.570312 C 10.257812 86.570312 9.019531 85.332031 9.019531 83.800781 C 9.019531 82.269531 10.257812 81.027344 11.78125 81.027344 Z M 11.78125 81.027344 "/>
<path style=" stroke:none;fill-rule:nonzero;fill:rgb(94.117647%,95.686275%,96.862745%);fill-opacity:1;" d="M 11.394531 93.308594 L 64.652344 93.308594 C 65.964844 93.308594 67.027344 94.375 67.027344 95.695312 L 67.027344 96.46875 C 67.027344 97.785156 65.964844 98.855469 64.652344 98.855469 L 11.394531 98.855469 C 10.082031 98.855469 9.019531 97.785156 9.019531 96.46875 L 9.019531 95.695312 C 9.019531 94.375 10.082031 93.308594 11.394531 93.308594 Z M 11.394531 93.308594 "/>
<path style="fill-rule:nonzero;fill:rgb(100%,100%,100%);fill-opacity:1;stroke-width:1.883;stroke-linecap:round;stroke-linejoin:round;stroke:rgb(72.156863%,75.294118%,80%);stroke-opacity:1;stroke-miterlimit:4;" d="M 3491.355885 624.269297 L 3481.134466 618.451818 L 3491.355885 612.634339 " transform="matrix(0.583181,0,0,0.584848,-1950.736903,-306.899827)"/>
<path style="fill-rule:nonzero;fill:rgb(100%,100%,100%);fill-opacity:1;stroke-width:1.883;stroke-linecap:round;stroke-linejoin:round;stroke:rgb(72.156863%,75.294118%,80%);stroke-opacity:1;stroke-miterlimit:4;" d="M 4.309699 2.158339 C 4.309699 3.347215 3.345161 4.309003 2.152885 4.309003 C 0.967308 4.309003 0.00277018 3.347215 0.00277018 2.158339 C 0.00277018 0.962783 0.967308 0.00099579 2.152885 0.00099579 C 3.345161 0.00099579 4.309699 0.962783 4.309699 2.158339 Z M 4.309699 2.158339 " transform="matrix(0.583181,0,0,0.584848,84.099947,50.136136)"/>
<path style="fill-rule:nonzero;fill:rgb(100%,100%,100%);fill-opacity:1;stroke-width:1.883;stroke-linecap:round;stroke-linejoin:round;stroke:rgb(72.156863%,75.294118%,80%);stroke-opacity:1;stroke-miterlimit:4;" d="M 4.314279 2.157818 C 4.314279 3.346694 3.349741 4.315161 2.157466 4.315161 C 0.96519 4.315161 0.000652527 3.346694 0.000652527 2.157818 C 0.000652527 0.962262 0.96519 0.000474741 2.157466 0.000474741 C 3.349741 0.000474741 4.314279 0.962262 4.314279 2.157818 Z M 4.314279 2.157818 " transform="matrix(0.583181,0,0,0.584848,78.136338,53.538785)"/>
<path style="fill-rule:nonzero;fill:rgb(100%,100%,100%);fill-opacity:1;stroke-width:1.883;stroke-linecap:round;stroke-linejoin:round;stroke:rgb(72.156863%,75.294118%,80%);stroke-opacity:1;stroke-miterlimit:4;" d="M 4.309699 2.157297 C 4.309699 3.346173 3.345161 4.31464 2.152885 4.31464 C 0.967308 4.31464 0.00277018 3.346173 0.00277018 2.157297 C 0.00277018 0.96842 0.967308 -0.0000463083 2.152885 -0.0000463083 C 3.345161 -0.0000463083 4.309699 0.96842 4.309699 2.157297 Z M 4.309699 2.157297 " transform="matrix(0.583181,0,0,0.584848,84.099947,56.941433)"/>
</g>
</svg>
