<?xml version="1.0" encoding="UTF-8"?>
<svg xmlns="http://www.w3.org/2000/svg" xmlns:xlink="http://www.w3.org/1999/xlink" width="467pt" height="359pt" viewBox="0 0 467 359" version="1.1">
<defs>
<filter id="alpha" filterUnits="objectBoundingBox" x="0%" y="0%" width="100%" height="100%">
  <feColorMatrix type="matrix" in="SourceGraphic" values="0 0 0 0 1 0 0 0 0 1 0 0 0 0 1 0 0 0 1 0"/>
</filter>
<mask id="mask0">
  <g filter="url(#alpha)">
<rect x="0" y="0" width="467" height="359" style="fill:rgb(0%,0%,0%);fill-opacity:0.501961;stroke:none;"/>
  </g>
</mask>
<clipPath id="clip1">
  <rect width="467" height="359"/>
</clipPath>
<g id="surface6" clip-path="url(#clip1)">
<path style=" stroke:none;fill-rule:nonzero;fill:rgb(94.117647%,95.686275%,96.862745%);fill-opacity:1;" d="M 425.882812 220.449219 L 384.71875 228.242188 L 387.613281 241.332031 L 394.011719 246.527344 L 423.183594 240.132812 L 427.683594 234.636719 Z M 425.882812 220.449219 "/>
<path style=" stroke:none;fill-rule:nonzero;fill:rgb(94.117647%,95.686275%,96.862745%);fill-opacity:1;" d="M 363.835938 66.375 L 385.917969 62.179688 L 371.628906 45.894531 Z M 363.835938 66.375 "/>
<path style="fill:none;stroke-width:1.883;stroke-linecap:round;stroke-linejoin:round;stroke:rgb(72.156863%,75.294118%,80%);stroke-opacity:1;stroke-miterlimit:4;" d="M 3741.598825 1348.898807 L 3770.798987 1502.898484 C 3771.698176 1507.499982 3768.699578 1511.898186 3764.09808 1512.801284 L 3739.601063 1517.50052 C 3734.999565 1518.399708 3730.601361 1515.401111 3729.698264 1510.799612 L 3700.498102 1356.799935 L 3714.001564 1316.301277 Z M 3741.598825 1348.898807 " transform="matrix(0.999165,0,0,0.999165,-3339.670064,-1270.706129)"/>
<path style="fill:none;stroke-width:1.883;stroke-linecap:round;stroke-linejoin:round;stroke:rgb(72.156863%,75.294118%,80%);stroke-opacity:1;stroke-miterlimit:4;" d="M 3700.400364 1356.698288 L 3709.701098 1362.699393 L 3721.60166 1355.900747 L 3733.998729 1358.101804 L 3741.700472 1348.898807 " transform="matrix(0.999165,0,0,0.999165,-3339.670064,-1270.706129)"/>
<path style="fill:none;stroke-width:1.883;stroke-linecap:round;stroke-linejoin:round;stroke:rgb(72.156863%,75.294118%,80%);stroke-opacity:1;stroke-miterlimit:4;" d="M 3721.500012 1355.900747 L 3748.100347 1496.299224 " transform="matrix(0.999165,0,0,0.999165,-3339.670064,-1270.706129)"/>
<path style="fill:none;stroke-width:1.883;stroke-linecap:round;stroke-linejoin:round;stroke:rgb(72.156863%,75.294118%,80%);stroke-opacity:1;stroke-miterlimit:4;" d="M 3706.600853 1338.198467 L 3728.59969 1333.999648 " transform="matrix(0.999165,0,0,0.999165,-3339.670064,-1270.706129)"/>
<path style="fill:none;stroke-width:1.883;stroke-linecap:round;stroke-linejoin:round;stroke:rgb(72.156863%,75.294118%,80%);stroke-opacity:1;stroke-miterlimit:4;" d="M 3727.598855 1500.200919 L 3768.699578 1492.401438 " transform="matrix(0.999165,0,0,0.999165,-3339.670064,-1270.706129)"/>
<path style="fill:none;stroke-width:1.883;stroke-linecap:round;stroke-linejoin:round;stroke:rgb(72.156863%,75.294118%,80%);stroke-opacity:1;stroke-miterlimit:4;" d="M 3682.79973 1594.498403 L 3783.301614 1594.498403 C 3790.401292 1594.498403 3796.101364 1588.798332 3796.101364 1581.698654 C 3796.101364 1574.598976 3790.401292 1568.898904 3783.301614 1568.898904 L 3682.79973 1568.898904 " transform="matrix(0.999165,0,0,0.999165,-3339.670064,-1270.706129)"/>
<path style="fill:none;stroke-width:1.883;stroke-linecap:round;stroke-linejoin:round;stroke:rgb(72.156863%,75.294118%,80%);stroke-opacity:1;stroke-miterlimit:4;" d="M 3690.700859 1568.898904 L 3690.700859 1594.498403 " transform="matrix(0.999165,0,0,0.999165,-3339.670064,-1270.706129)"/>
<path style="fill:none;stroke-width:1.883;stroke-linecap:round;stroke-linejoin:round;stroke:rgb(72.156863%,75.294118%,80%);stroke-opacity:1;stroke-miterlimit:4;" d="M 3690.700859 1581.698654 L 3743.799882 1581.698654 " transform="matrix(0.999165,0,0,0.999165,-3339.670064,-1270.706129)"/>
<path style="fill:none;stroke-width:1.883;stroke-linecap:round;stroke-linejoin:round;stroke:rgb(72.156863%,75.294118%,80%);stroke-opacity:1;stroke-miterlimit:4;" d="M 3808.600081 1543.299405 L 3708.000459 1543.299405 C 3700.900782 1543.299405 3695.20071 1548.999476 3695.20071 1556.099154 C 3695.20071 1563.198832 3700.900782 1568.898904 3708.000459 1568.898904 L 3808.498433 1568.898904 " transform="matrix(0.999165,0,0,0.999165,-3339.670064,-1270.706129)"/>
<path style="fill:none;stroke-width:1.883;stroke-linecap:round;stroke-linejoin:round;stroke:rgb(72.156863%,75.294118%,80%);stroke-opacity:1;stroke-miterlimit:4;" d="M 3800.698952 1568.898904 L 3800.698952 1543.299405 " transform="matrix(0.999165,0,0,0.999165,-3339.670064,-1270.706129)"/>
<path style="fill:none;stroke-width:1.883;stroke-linecap:round;stroke-linejoin:round;stroke:rgb(72.156863%,75.294118%,80%);stroke-opacity:1;stroke-miterlimit:4;" d="M 3800.698952 1556.099154 L 3747.59993 1556.099154 " transform="matrix(0.999165,0,0,0.999165,-3339.670064,-1270.706129)"/>
<path style="fill:none;stroke-width:1.883;stroke-linecap:round;stroke-linejoin:round;stroke:rgb(72.156863%,75.294118%,80%);stroke-opacity:1;stroke-miterlimit:4;" d="M 3673.498996 1543.299405 L 3774.000879 1543.299405 C 3781.100557 1543.299405 3786.800629 1537.599333 3786.800629 1530.499655 C 3786.800629 1523.399977 3781.100557 1517.699905 3774.000879 1517.699905 L 3673.498996 1517.699905 " transform="matrix(0.999165,0,0,0.999165,-3339.670064,-1270.706129)"/>
<path style="fill:none;stroke-width:1.883;stroke-linecap:round;stroke-linejoin:round;stroke:rgb(72.156863%,75.294118%,80%);stroke-opacity:1;stroke-miterlimit:4;" d="M 3681.298477 1517.699905 L 3681.298477 1543.299405 " transform="matrix(0.999165,0,0,0.999165,-3339.670064,-1270.706129)"/>
<path style="fill:none;stroke-width:1.883;stroke-linecap:round;stroke-linejoin:round;stroke:rgb(72.156863%,75.294118%,80%);stroke-opacity:1;stroke-miterlimit:4;" d="M 3681.298477 1530.499655 L 3734.499147 1530.499655 " transform="matrix(0.999165,0,0,0.999165,-3339.670064,-1270.706129)"/>
</g>
<clipPath id="clip2">
  <rect width="467" height="359"/>
</clipPath>
<g id="surface9" clip-path="url(#clip2)">
<path style=" stroke:none;fill-rule:nonzero;fill:rgb(54.901961%,57.254902%,60%);fill-opacity:1;" d="M 246.734375 48.292969 C 247.234375 48.890625 247.433594 49.691406 247.433594 50.589844 C 247.433594 51.886719 247.03125 52.886719 246.132812 53.585938 C 245.234375 54.285156 244.035156 54.6875 242.4375 54.6875 L 237.042969 54.6875 C 236.742188 54.6875 236.441406 54.585938 236.242188 54.386719 C 236.042969 54.1875 235.941406 53.988281 235.941406 53.585938 L 235.941406 40.699219 C 235.941406 40.398438 236.042969 40.097656 236.242188 39.898438 C 236.441406 39.699219 236.742188 39.597656 237.042969 39.597656 L 242.238281 39.597656 C 243.734375 39.597656 245.035156 39.898438 245.832031 40.597656 C 246.734375 41.296875 247.132812 42.195312 247.132812 43.496094 C 247.132812 44.296875 246.933594 44.996094 246.53125 45.59375 C 246.132812 46.195312 245.535156 46.59375 244.734375 46.894531 C 245.632812 47.191406 246.234375 47.59375 246.734375 48.292969 Z M 238.039062 46.195312 L 241.835938 46.195312 C 243.933594 46.195312 244.933594 45.394531 244.933594 43.796875 C 244.933594 42.996094 244.632812 42.398438 244.136719 41.996094 C 243.636719 41.597656 242.835938 41.398438 241.738281 41.398438 L 237.941406 41.398438 L 237.941406 46.195312 Z M 244.535156 52.289062 C 245.035156 51.886719 245.335938 51.289062 245.335938 50.488281 C 245.335938 49.589844 245.035156 48.992188 244.535156 48.589844 C 244.035156 48.191406 243.234375 47.992188 242.136719 47.992188 L 238.039062 47.992188 L 238.039062 52.988281 L 242.136719 52.988281 C 243.234375 52.886719 244.035156 52.6875 244.535156 52.289062 Z M 244.535156 52.289062 "/>
<path style=" stroke:none;fill-rule:nonzero;fill:rgb(54.901961%,57.254902%,60%);fill-opacity:1;" d="M 251.828125 54.1875 C 251.03125 53.785156 250.429688 53.085938 250.03125 52.289062 C 249.628906 51.488281 249.429688 50.488281 249.429688 49.492188 C 249.429688 48.390625 249.628906 47.492188 250.03125 46.59375 C 250.429688 45.792969 251.03125 45.195312 251.828125 44.695312 C 252.628906 44.296875 253.527344 43.996094 254.527344 43.996094 C 255.527344 43.996094 256.425781 44.195312 257.222656 44.695312 C 258.023438 45.09375 258.621094 45.792969 259.023438 46.59375 C 259.421875 47.390625 259.621094 48.390625 259.621094 49.492188 C 259.621094 50.589844 259.421875 51.488281 259.023438 52.289062 C 258.621094 53.085938 258.023438 53.6875 257.222656 54.1875 C 256.425781 54.585938 255.527344 54.886719 254.527344 54.886719 C 253.527344 54.785156 252.628906 54.585938 251.828125 54.1875 Z M 256.722656 52.1875 C 257.222656 51.589844 257.523438 50.691406 257.523438 49.492188 C 257.523438 48.292969 257.222656 47.390625 256.722656 46.792969 C 256.226562 46.195312 255.527344 45.894531 254.527344 45.894531 C 253.628906 45.894531 252.828125 46.195312 252.328125 46.792969 C 251.828125 47.390625 251.527344 48.292969 251.527344 49.492188 C 251.527344 50.691406 251.828125 51.589844 252.328125 52.1875 C 252.828125 52.789062 253.527344 53.085938 254.527344 53.085938 C 255.527344 53.085938 256.226562 52.789062 256.722656 52.1875 Z M 256.722656 52.1875 "/>
<path style=" stroke:none;fill-rule:nonzero;fill:rgb(54.901961%,57.254902%,60%);fill-opacity:1;" d="M 263.820312 54.1875 C 263.019531 53.785156 262.417969 53.085938 262.019531 52.289062 C 261.621094 51.488281 261.421875 50.488281 261.421875 49.492188 C 261.421875 48.390625 261.621094 47.492188 262.019531 46.59375 C 262.417969 45.792969 263.019531 45.195312 263.820312 44.695312 C 264.617188 44.296875 265.515625 43.996094 266.515625 43.996094 C 267.515625 43.996094 268.414062 44.195312 269.214844 44.695312 C 270.011719 45.09375 270.613281 45.792969 271.011719 46.59375 C 271.414062 47.390625 271.613281 48.390625 271.613281 49.492188 C 271.613281 50.589844 271.414062 51.488281 271.011719 52.289062 C 270.613281 53.085938 270.011719 53.6875 269.214844 54.1875 C 268.414062 54.6875 267.515625 54.886719 266.515625 54.886719 C 265.515625 54.785156 264.617188 54.585938 263.820312 54.1875 Z M 268.714844 52.1875 C 269.214844 51.589844 269.515625 50.691406 269.515625 49.492188 C 269.515625 48.292969 269.214844 47.390625 268.714844 46.792969 C 268.214844 46.195312 267.515625 45.894531 266.515625 45.894531 C 265.617188 45.894531 264.816406 46.195312 264.316406 46.792969 C 263.820312 47.390625 263.519531 48.292969 263.519531 49.492188 C 263.519531 50.691406 263.820312 51.589844 264.316406 52.1875 C 264.816406 52.789062 265.515625 53.085938 266.515625 53.085938 C 267.515625 53.085938 268.214844 52.789062 268.714844 52.1875 Z M 268.714844 52.1875 "/>
<path style=" stroke:none;fill-rule:nonzero;fill:rgb(54.901961%,57.254902%,60%);fill-opacity:1;" d="M 283.101562 53.785156 C 283.101562 54.085938 283.003906 54.285156 282.804688 54.488281 C 282.601562 54.6875 282.402344 54.785156 282.101562 54.785156 C 281.804688 54.785156 281.605469 54.6875 281.402344 54.488281 L 276.109375 49.789062 L 276.109375 53.6875 C 276.109375 53.988281 276.007812 54.285156 275.808594 54.488281 C 275.609375 54.6875 275.308594 54.785156 275.007812 54.785156 C 274.710938 54.785156 274.410156 54.6875 274.210938 54.488281 C 274.011719 54.285156 273.910156 54.085938 273.910156 53.6875 L 273.910156 40.597656 C 273.910156 40.296875 274.011719 40 274.210938 39.796875 C 274.410156 39.597656 274.710938 39.5 275.007812 39.5 C 275.308594 39.5 275.609375 39.597656 275.808594 39.796875 C 276.007812 40 276.109375 40.199219 276.109375 40.597656 L 276.109375 48.890625 L 280.90625 44.394531 C 281.105469 44.195312 281.402344 44.09375 281.605469 44.09375 C 281.902344 44.09375 282.101562 44.195312 282.304688 44.394531 C 282.503906 44.59375 282.601562 44.792969 282.601562 45.09375 C 282.601562 45.394531 282.503906 45.59375 282.203125 45.792969 L 278.40625 49.289062 L 282.601562 52.988281 C 283.003906 53.1875 283.101562 53.488281 283.101562 53.785156 Z M 283.101562 53.785156 "/>
<path style=" stroke:none;fill-rule:nonzero;fill:rgb(54.901961%,57.254902%,60%);fill-opacity:1;" d="M 293.394531 52.289062 C 293.492188 52.488281 293.59375 52.6875 293.59375 52.886719 C 293.59375 53.289062 293.292969 53.6875 292.792969 53.886719 C 292.292969 54.1875 291.796875 54.386719 291.195312 54.585938 C 290.597656 54.785156 289.996094 54.785156 289.496094 54.785156 C 287.898438 54.785156 286.601562 54.285156 285.601562 53.386719 C 284.703125 52.386719 284.203125 51.089844 284.203125 49.492188 C 284.203125 48.390625 284.402344 47.492188 284.800781 46.691406 C 285.199219 45.894531 285.800781 45.195312 286.601562 44.792969 C 287.398438 44.296875 288.199219 44.09375 289.199219 44.09375 C 290.597656 44.09375 291.695312 44.496094 292.496094 45.394531 C 293.292969 46.292969 293.695312 47.492188 293.695312 48.992188 C 293.695312 49.589844 293.394531 49.789062 292.894531 49.789062 L 286.300781 49.789062 C 286.398438 51.988281 287.5 53.085938 289.496094 53.085938 C 289.996094 53.085938 290.496094 52.988281 290.894531 52.886719 C 291.296875 52.789062 291.695312 52.589844 292.09375 52.289062 C 292.09375 52.289062 292.292969 52.1875 292.496094 52.089844 C 292.695312 51.988281 292.894531 51.988281 292.996094 51.988281 C 293.09375 52.089844 293.292969 52.089844 293.394531 52.289062 Z M 287.300781 46.394531 C 286.800781 46.894531 286.5 47.691406 286.398438 48.589844 L 291.894531 48.589844 C 291.894531 47.59375 291.59375 46.894531 291.195312 46.394531 C 290.796875 45.894531 290.097656 45.59375 289.296875 45.59375 C 288.398438 45.59375 287.796875 45.894531 287.300781 46.394531 Z M 287.300781 46.394531 "/>
<path style=" stroke:none;fill-rule:nonzero;fill:rgb(54.901961%,57.254902%,60%);fill-opacity:1;" d="M 305.285156 39.898438 C 305.484375 40.097656 305.582031 40.296875 305.582031 40.597656 L 305.582031 53.6875 C 305.582031 53.988281 305.484375 54.285156 305.285156 54.488281 C 305.085938 54.6875 304.785156 54.785156 304.484375 54.785156 C 304.183594 54.785156 303.886719 54.6875 303.683594 54.488281 C 303.484375 54.285156 303.386719 54.085938 303.386719 53.6875 L 303.386719 52.789062 C 303.085938 53.386719 302.585938 53.886719 301.988281 54.1875 C 301.386719 54.488281 300.6875 54.6875 299.886719 54.6875 C 298.988281 54.6875 298.191406 54.488281 297.492188 53.988281 C 296.792969 53.488281 296.292969 52.886719 295.890625 52.089844 C 295.492188 51.289062 295.292969 50.289062 295.292969 49.289062 C 295.292969 48.191406 295.492188 47.292969 295.890625 46.492188 C 296.292969 45.695312 296.792969 45.09375 297.492188 44.59375 C 298.191406 44.195312 298.988281 43.894531 299.886719 43.894531 C 300.6875 43.894531 301.386719 44.09375 301.886719 44.394531 C 302.488281 44.695312 302.886719 45.195312 303.1875 45.792969 L 303.1875 40.398438 C 303.1875 40.097656 303.285156 39.898438 303.484375 39.699219 C 303.683594 39.5 303.886719 39.398438 304.285156 39.398438 C 304.683594 39.398438 305.085938 39.699219 305.285156 39.898438 Z M 302.6875 52.1875 C 303.1875 51.589844 303.484375 50.691406 303.484375 49.492188 C 303.484375 48.292969 303.1875 47.390625 302.6875 46.792969 C 302.1875 46.195312 301.488281 45.792969 300.488281 45.792969 C 299.589844 45.792969 298.789062 46.09375 298.289062 46.691406 C 297.789062 47.292969 297.492188 48.191406 297.492188 49.390625 C 297.492188 50.589844 297.789062 51.488281 298.289062 52.089844 C 298.789062 52.789062 299.488281 53.085938 300.488281 53.085938 C 301.488281 53.085938 302.1875 52.789062 302.6875 52.1875 Z M 302.6875 52.1875 "/>
</g>
<clipPath id="clip3">
  <rect width="467" height="359"/>
</clipPath>
<g id="surface12" clip-path="url(#clip3)">
<path style=" stroke:none;fill-rule:nonzero;fill:rgb(54.901961%,57.254902%,60%);fill-opacity:1;" d="M 246.734375 126.027344 C 247.234375 126.625 247.433594 127.425781 247.433594 128.324219 C 247.433594 129.625 247.03125 130.621094 246.132812 131.320312 C 245.234375 132.023438 244.035156 132.421875 242.4375 132.421875 L 237.042969 132.421875 C 236.742188 132.421875 236.441406 132.320312 236.242188 132.121094 C 236.042969 131.921875 235.941406 131.722656 235.941406 131.320312 L 235.941406 118.433594 C 235.941406 118.132812 236.042969 117.832031 236.242188 117.632812 C 236.441406 117.433594 236.742188 117.332031 237.042969 117.332031 L 242.238281 117.332031 C 243.734375 117.332031 245.035156 117.632812 245.832031 118.332031 C 246.734375 119.03125 247.132812 119.933594 247.132812 121.230469 C 247.132812 122.03125 246.933594 122.730469 246.53125 123.328125 C 246.132812 123.929688 245.535156 124.328125 244.734375 124.628906 C 245.632812 125.027344 246.234375 125.425781 246.734375 126.027344 Z M 238.039062 124.027344 L 241.835938 124.027344 C 243.933594 124.027344 244.933594 123.230469 244.933594 121.628906 C 244.933594 120.832031 244.632812 120.230469 244.136719 119.832031 C 243.636719 119.433594 242.835938 119.230469 241.738281 119.230469 L 237.941406 119.230469 L 237.941406 124.027344 Z M 244.535156 130.125 C 245.035156 129.722656 245.335938 129.125 245.335938 128.324219 C 245.335938 127.425781 245.035156 126.824219 244.535156 126.425781 C 244.035156 126.027344 243.234375 125.828125 242.136719 125.828125 L 238.039062 125.828125 L 238.039062 130.824219 L 242.136719 130.824219 C 243.234375 130.722656 244.035156 130.523438 244.535156 130.125 Z M 244.535156 130.125 "/>
<path style=" stroke:none;fill-rule:nonzero;fill:rgb(54.901961%,57.254902%,60%);fill-opacity:1;" d="M 251.828125 131.921875 C 251.03125 131.523438 250.429688 130.824219 250.03125 130.023438 C 249.628906 129.222656 249.429688 128.226562 249.429688 127.226562 C 249.429688 126.125 249.628906 125.226562 250.03125 124.328125 C 250.429688 123.527344 251.03125 122.929688 251.828125 122.429688 C 252.628906 122.03125 253.527344 121.730469 254.527344 121.730469 C 255.527344 121.730469 256.425781 121.929688 257.222656 122.429688 C 258.023438 122.828125 258.621094 123.527344 259.023438 124.328125 C 259.421875 125.128906 259.621094 126.125 259.621094 127.226562 C 259.621094 128.324219 259.421875 129.222656 259.023438 130.023438 C 258.621094 130.824219 258.023438 131.421875 257.222656 131.921875 C 256.425781 132.320312 255.527344 132.621094 254.527344 132.621094 C 253.527344 132.621094 252.628906 132.421875 251.828125 131.921875 Z M 256.722656 130.023438 C 257.222656 129.425781 257.523438 128.523438 257.523438 127.324219 C 257.523438 126.125 257.222656 125.226562 256.722656 124.628906 C 256.226562 124.027344 255.527344 123.730469 254.527344 123.730469 C 253.628906 123.730469 252.828125 124.027344 252.328125 124.628906 C 251.828125 125.226562 251.527344 126.125 251.527344 127.324219 C 251.527344 128.523438 251.828125 129.425781 252.328125 130.023438 C 252.828125 130.621094 253.527344 130.921875 254.527344 130.921875 C 255.527344 130.921875 256.226562 130.621094 256.722656 130.023438 Z M 256.722656 130.023438 "/>
<path style=" stroke:none;fill-rule:nonzero;fill:rgb(54.901961%,57.254902%,60%);fill-opacity:1;" d="M 263.820312 131.921875 C 263.019531 131.523438 262.417969 130.824219 262.019531 130.023438 C 261.621094 129.222656 261.421875 128.226562 261.421875 127.226562 C 261.421875 126.125 261.621094 125.226562 262.019531 124.328125 C 262.417969 123.527344 263.019531 122.929688 263.820312 122.429688 C 264.617188 122.03125 265.515625 121.730469 266.515625 121.730469 C 267.515625 121.730469 268.414062 121.929688 269.214844 122.429688 C 270.011719 122.828125 270.613281 123.527344 271.011719 124.328125 C 271.414062 125.128906 271.613281 126.125 271.613281 127.226562 C 271.613281 128.324219 271.414062 129.222656 271.011719 130.023438 C 270.613281 130.824219 270.011719 131.421875 269.214844 131.921875 C 268.414062 132.421875 267.515625 132.621094 266.515625 132.621094 C 265.515625 132.621094 264.617188 132.421875 263.820312 131.921875 Z M 268.714844 130.023438 C 269.214844 129.425781 269.515625 128.523438 269.515625 127.324219 C 269.515625 126.125 269.214844 125.226562 268.714844 124.628906 C 268.214844 124.027344 267.515625 123.730469 266.515625 123.730469 C 265.617188 123.730469 264.816406 124.027344 264.316406 124.628906 C 263.820312 125.226562 263.519531 126.125 263.519531 127.324219 C 263.519531 128.523438 263.820312 129.425781 264.316406 130.023438 C 264.816406 130.621094 265.515625 130.921875 266.515625 130.921875 C 267.515625 130.921875 268.214844 130.621094 268.714844 130.023438 Z M 268.714844 130.023438 "/>
<path style=" stroke:none;fill-rule:nonzero;fill:rgb(54.901961%,57.254902%,60%);fill-opacity:1;" d="M 283.101562 131.621094 C 283.101562 131.921875 283.003906 132.121094 282.804688 132.320312 C 282.601562 132.519531 282.402344 132.621094 282.101562 132.621094 C 281.804688 132.621094 281.605469 132.519531 281.402344 132.320312 L 276.109375 127.625 L 276.109375 131.523438 C 276.109375 131.820312 276.007812 132.121094 275.808594 132.320312 C 275.609375 132.519531 275.308594 132.621094 275.007812 132.621094 C 274.710938 132.621094 274.410156 132.519531 274.210938 132.320312 C 274.011719 132.121094 273.910156 131.921875 273.910156 131.523438 L 273.910156 118.433594 C 273.910156 118.132812 274.011719 117.832031 274.210938 117.632812 C 274.410156 117.433594 274.710938 117.332031 275.007812 117.332031 C 275.308594 117.332031 275.609375 117.433594 275.808594 117.632812 C 276.007812 117.832031 276.109375 118.035156 276.109375 118.433594 L 276.109375 126.726562 L 280.90625 122.230469 C 281.105469 122.03125 281.402344 121.929688 281.605469 121.929688 C 281.902344 121.929688 282.101562 122.03125 282.304688 122.230469 C 282.503906 122.429688 282.601562 122.628906 282.601562 122.929688 C 282.601562 123.230469 282.503906 123.429688 282.203125 123.628906 L 278.40625 127.125 L 282.601562 130.824219 C 283.003906 131.023438 283.101562 131.320312 283.101562 131.621094 Z M 283.101562 131.621094 "/>
<path style=" stroke:none;fill-rule:nonzero;fill:rgb(54.901961%,57.254902%,60%);fill-opacity:1;" d="M 293.394531 130.125 C 293.492188 130.324219 293.59375 130.523438 293.59375 130.722656 C 293.59375 131.121094 293.292969 131.523438 292.792969 131.722656 C 292.292969 132.023438 291.796875 132.222656 291.195312 132.421875 C 290.597656 132.621094 289.996094 132.621094 289.496094 132.621094 C 287.898438 132.621094 286.601562 132.121094 285.601562 131.222656 C 284.703125 130.222656 284.203125 128.925781 284.203125 127.324219 C 284.203125 126.226562 284.402344 125.328125 284.800781 124.527344 C 285.199219 123.730469 285.800781 123.027344 286.601562 122.628906 C 287.398438 122.128906 288.199219 121.929688 289.199219 121.929688 C 290.597656 121.929688 291.695312 122.328125 292.496094 123.230469 C 293.292969 124.128906 293.695312 125.328125 293.695312 126.824219 C 293.695312 127.425781 293.394531 127.625 292.894531 127.625 L 286.300781 127.625 C 286.398438 129.824219 287.5 130.921875 289.496094 130.921875 C 289.996094 130.921875 290.496094 130.824219 290.894531 130.722656 C 291.296875 130.621094 291.695312 130.421875 292.09375 130.125 C 292.09375 130.125 292.292969 130.023438 292.496094 129.921875 C 292.695312 129.824219 292.894531 129.824219 292.996094 129.824219 C 293.09375 129.824219 293.292969 129.921875 293.394531 130.125 Z M 287.300781 124.226562 C 286.800781 124.726562 286.5 125.527344 286.398438 126.425781 L 291.894531 126.425781 C 291.894531 125.425781 291.59375 124.726562 291.195312 124.226562 C 290.796875 123.730469 290.097656 123.429688 289.296875 123.429688 C 288.398438 123.429688 287.796875 123.730469 287.300781 124.226562 Z M 287.300781 124.226562 "/>
<path style=" stroke:none;fill-rule:nonzero;fill:rgb(54.901961%,57.254902%,60%);fill-opacity:1;" d="M 305.285156 117.632812 C 305.484375 117.832031 305.582031 118.035156 305.582031 118.332031 L 305.582031 131.421875 C 305.582031 131.722656 305.484375 132.023438 305.285156 132.222656 C 305.085938 132.421875 304.785156 132.519531 304.484375 132.519531 C 304.183594 132.519531 303.886719 132.421875 303.683594 132.222656 C 303.484375 132.023438 303.386719 131.820312 303.386719 131.421875 L 303.386719 130.523438 C 303.085938 131.121094 302.585938 131.621094 301.988281 131.921875 C 301.386719 132.222656 300.6875 132.421875 299.886719 132.421875 C 298.988281 132.421875 298.191406 132.222656 297.492188 131.722656 C 296.792969 131.222656 296.292969 130.621094 295.890625 129.824219 C 295.492188 129.023438 295.292969 128.023438 295.292969 127.027344 C 295.292969 125.925781 295.492188 125.027344 295.890625 124.226562 C 296.292969 123.429688 296.792969 122.828125 297.492188 122.328125 C 298.191406 121.929688 298.988281 121.628906 299.886719 121.628906 C 300.6875 121.628906 301.386719 121.832031 301.886719 122.128906 C 302.488281 122.429688 302.886719 122.929688 303.1875 123.527344 L 303.1875 118.132812 C 303.1875 117.832031 303.285156 117.632812 303.484375 117.433594 C 303.683594 117.234375 303.886719 117.132812 304.285156 117.132812 C 304.683594 117.132812 305.085938 117.535156 305.285156 117.632812 Z M 302.6875 129.921875 C 303.1875 129.324219 303.484375 128.425781 303.484375 127.226562 C 303.484375 126.027344 303.1875 125.128906 302.6875 124.527344 C 302.1875 123.929688 301.488281 123.527344 300.488281 123.527344 C 299.589844 123.527344 298.789062 123.828125 298.289062 124.429688 C 297.789062 125.027344 297.492188 125.925781 297.492188 127.125 C 297.492188 128.324219 297.789062 129.222656 298.289062 129.824219 C 298.789062 130.523438 299.488281 130.824219 300.488281 130.824219 C 301.488281 130.824219 302.1875 130.621094 302.6875 129.921875 Z M 302.6875 129.921875 "/>
</g>
<clipPath id="clip4">
  <rect width="467" height="359"/>
</clipPath>
<g id="surface15" clip-path="url(#clip4)">
<path style=" stroke:none;fill-rule:nonzero;fill:rgb(6.666667%,67.058824%,83.529412%);fill-opacity:1;" d="M 220.355469 211.457031 C 220.15625 211.253906 220.054688 210.957031 220.054688 210.65625 L 220.054688 197.765625 C 220.054688 197.46875 220.15625 197.167969 220.355469 196.96875 C 220.554688 196.765625 220.855469 196.667969 221.15625 196.667969 L 228.746094 196.667969 C 229.449219 196.667969 229.746094 196.96875 229.746094 197.566406 C 229.746094 198.167969 229.449219 198.464844 228.746094 198.464844 L 222.253906 198.464844 L 222.253906 203.164062 L 228.347656 203.164062 C 229.046875 203.164062 229.347656 203.460938 229.347656 204.0625 C 229.347656 204.660156 229.046875 204.960938 228.347656 204.960938 L 222.253906 204.960938 L 222.253906 210.65625 C 222.253906 210.957031 222.152344 211.253906 221.953125 211.457031 C 221.753906 211.65625 221.453125 211.753906 221.15625 211.753906 C 220.753906 211.753906 220.554688 211.65625 220.355469 211.457031 Z M 220.355469 211.457031 "/>
<path style=" stroke:none;fill-rule:nonzero;fill:rgb(6.666667%,67.058824%,83.529412%);fill-opacity:1;" d="M 240.238281 201.363281 C 240.4375 201.5625 240.539062 201.761719 240.539062 202.164062 L 240.539062 210.757812 C 240.539062 211.054688 240.4375 211.253906 240.238281 211.457031 C 240.039062 211.65625 239.738281 211.753906 239.4375 211.753906 C 239.140625 211.753906 238.941406 211.65625 238.738281 211.457031 C 238.539062 211.253906 238.441406 211.054688 238.441406 210.757812 L 238.441406 209.957031 C 238.140625 210.554688 237.640625 210.957031 237.140625 211.355469 C 236.542969 211.65625 235.941406 211.855469 235.242188 211.855469 C 232.746094 211.855469 231.445312 210.457031 231.445312 207.660156 L 231.445312 202.164062 C 231.445312 201.863281 231.546875 201.5625 231.746094 201.363281 C 231.945312 201.164062 232.246094 201.0625 232.542969 201.0625 C 232.84375 201.0625 233.144531 201.164062 233.34375 201.363281 C 233.542969 201.5625 233.644531 201.761719 233.644531 202.164062 L 233.644531 207.660156 C 233.644531 208.457031 233.84375 209.15625 234.144531 209.457031 C 234.441406 209.855469 235.042969 210.054688 235.742188 210.054688 C 236.542969 210.054688 237.242188 209.757812 237.742188 209.257812 C 238.238281 208.757812 238.539062 207.957031 238.539062 207.160156 L 238.539062 202.164062 C 238.539062 201.863281 238.640625 201.5625 238.839844 201.363281 C 239.039062 201.164062 239.339844 201.0625 239.640625 201.0625 C 239.9375 201.0625 240.136719 201.164062 240.238281 201.363281 Z M 240.238281 201.363281 "/>
<path style=" stroke:none;fill-rule:nonzero;fill:rgb(6.666667%,67.058824%,83.529412%);fill-opacity:1;" d="M 243.835938 211.554688 C 243.636719 211.355469 243.535156 211.15625 243.535156 210.757812 L 243.535156 197.667969 C 243.535156 197.367188 243.636719 197.066406 243.835938 196.867188 C 244.035156 196.667969 244.335938 196.566406 244.632812 196.566406 C 244.933594 196.566406 245.234375 196.667969 245.433594 196.867188 C 245.632812 197.066406 245.734375 197.265625 245.734375 197.667969 L 245.734375 210.757812 C 245.734375 211.054688 245.632812 211.355469 245.433594 211.554688 C 245.234375 211.753906 244.933594 211.855469 244.632812 211.855469 C 244.335938 211.855469 244.035156 211.65625 243.835938 211.554688 Z M 243.835938 211.554688 "/>
<path style=" stroke:none;fill-rule:nonzero;fill:rgb(6.666667%,67.058824%,83.529412%);fill-opacity:1;" d="M 249.03125 211.554688 C 248.832031 211.355469 248.730469 211.15625 248.730469 210.757812 L 248.730469 197.667969 C 248.730469 197.367188 248.832031 197.066406 249.03125 196.867188 C 249.230469 196.667969 249.53125 196.566406 249.832031 196.566406 C 250.128906 196.566406 250.429688 196.667969 250.628906 196.867188 C 250.828125 197.066406 250.929688 197.265625 250.929688 197.667969 L 250.929688 210.757812 C 250.929688 211.054688 250.828125 211.355469 250.628906 211.554688 C 250.429688 211.753906 250.128906 211.855469 249.832031 211.855469 C 249.429688 211.753906 249.230469 211.65625 249.03125 211.554688 Z M 249.03125 211.554688 "/>
<path style=" stroke:none;fill-rule:nonzero;fill:rgb(6.666667%,67.058824%,83.529412%);fill-opacity:1;" d="M 259.523438 211.355469 C 259.222656 211.054688 259.121094 210.757812 259.121094 210.355469 C 259.121094 209.957031 259.222656 209.65625 259.523438 209.355469 C 259.820312 209.058594 260.121094 208.957031 260.519531 208.957031 C 260.921875 208.957031 261.222656 209.058594 261.519531 209.355469 C 261.820312 209.65625 261.921875 209.957031 261.921875 210.355469 C 261.921875 210.757812 261.820312 211.054688 261.519531 211.355469 C 261.222656 211.65625 260.921875 211.753906 260.519531 211.753906 C 260.121094 211.753906 259.820312 211.65625 259.523438 211.355469 Z M 260.023438 207.457031 C 259.921875 207.359375 259.820312 207.160156 259.820312 206.960938 L 259.222656 197.964844 C 259.222656 197.566406 259.324219 197.265625 259.523438 196.96875 C 259.722656 196.765625 260.121094 196.566406 260.519531 196.566406 C 260.921875 196.566406 261.222656 196.667969 261.519531 196.96875 C 261.71875 197.167969 261.921875 197.566406 261.820312 197.964844 L 261.222656 206.960938 C 261.222656 207.160156 261.121094 207.359375 261.019531 207.457031 C 260.921875 207.558594 260.722656 207.660156 260.621094 207.660156 C 260.320312 207.660156 260.121094 207.558594 260.023438 207.457031 Z M 260.023438 207.457031 "/>
</g>
</defs>
<g id="surface1">
<use xlink:href="#surface6" mask="url(#mask0)"/>
<path style="fill-rule:nonzero;fill:rgb(100%,100%,100%);fill-opacity:1;stroke-width:1.883;stroke-linecap:round;stroke-linejoin:round;stroke:rgb(72.156863%,75.294118%,80%);stroke-opacity:1;stroke-miterlimit:4;" d="M 3542.800024 1272.698464 L 3674.398184 1272.698464 C 3688.898573 1272.698464 3700.599749 1284.399641 3700.599749 1298.900029 L 3700.599749 1568.398486 C 3700.599749 1582.898875 3688.898573 1594.600051 3674.398184 1594.600051 L 3542.800024 1594.600051 C 3528.299636 1594.600051 3516.59846 1582.898875 3516.59846 1568.398486 L 3516.59846 1298.900029 C 3516.700107 1284.399641 3528.401283 1272.698464 3542.800024 1272.698464 Z M 3542.800024 1272.698464 " transform="matrix(0.999165,0,0,0.999165,-3339.670064,-1270.706129)"/>
<path style=" stroke:none;fill-rule:nonzero;fill:rgb(72.156863%,75.294118%,80%);fill-opacity:1;" d="M 280.304688 298.183594 C 280.304688 306.128906 273.863281 312.570312 265.917969 312.570312 C 257.96875 312.570312 251.527344 306.128906 251.527344 298.183594 C 251.527344 290.238281 257.96875 283.792969 265.917969 283.792969 C 273.863281 283.792969 280.304688 290.238281 280.304688 298.183594 Z M 280.304688 298.183594 "/>
<path style="fill:none;stroke-width:1.883;stroke-linecap:round;stroke-linejoin:round;stroke:rgb(72.156863%,75.294118%,80%);stroke-opacity:1;stroke-miterlimit:4;" d="M 3343.700191 1594.498403 L 3802.098559 1594.498403 " transform="matrix(0.999165,0,0,0.999165,-3339.670064,-1270.706129)"/>
<path style=" stroke:none;fill-rule:nonzero;fill:rgb(94.117647%,95.686275%,96.862745%);fill-opacity:1;" d="M 201.871094 16.917969 L 330.0625 16.917969 C 337.757812 16.917969 343.953125 23.113281 343.953125 30.804688 L 343.953125 63.277344 C 343.953125 70.972656 337.757812 77.167969 330.0625 77.167969 L 201.871094 77.167969 C 194.175781 77.167969 187.980469 70.972656 187.980469 63.277344 L 187.980469 30.804688 C 187.980469 23.113281 194.175781 16.917969 201.871094 16.917969 Z M 201.871094 16.917969 "/>
<path style=" stroke:none;fill-rule:nonzero;fill:rgb(94.117647%,95.686275%,96.862745%);fill-opacity:1;" d="M 201.570312 93.554688 L 330.0625 93.554688 C 337.757812 93.554688 343.953125 99.75 343.953125 107.441406 L 343.953125 139.816406 C 343.953125 147.507812 337.757812 153.703125 330.0625 153.703125 L 201.570312 153.703125 C 193.878906 153.703125 187.683594 147.507812 187.683594 139.816406 L 187.683594 107.441406 C 187.683594 99.75 193.878906 93.554688 201.570312 93.554688 Z M 201.570312 93.554688 "/>
<path style=" stroke:none;fill-rule:nonzero;fill:rgb(94.117647%,95.686275%,96.862745%);fill-opacity:1;" d="M 201.570312 172.886719 L 330.0625 172.886719 C 337.757812 172.886719 343.953125 179.082031 343.953125 186.777344 L 343.953125 219.148438 C 343.953125 226.84375 337.757812 233.039062 330.0625 233.039062 L 201.570312 233.039062 C 193.878906 233.039062 187.683594 226.84375 187.683594 219.148438 L 187.683594 186.777344 C 187.683594 179.082031 193.878906 172.886719 201.570312 172.886719 Z M 201.570312 172.886719 "/>
<use xlink:href="#surface9"/>
<use xlink:href="#surface12"/>
<use xlink:href="#surface15"/>
<path style="fill:none;stroke-width:1.883;stroke-linecap:round;stroke-linejoin:round;stroke:rgb(72.156863%,75.294118%,80%);stroke-opacity:1;stroke-miterlimit:4;" d="M 3700.599749 1543.299405 C 3697.698889 1544.198593 3517.098877 1543.299405 3517.098877 1543.299405 " transform="matrix(0.999165,0,0,0.999165,-3339.670064,-1270.706129)"/>
<path style=" stroke:none;fill-rule:nonzero;fill:rgb(100%,100%,100%);fill-opacity:1;" d="M 113.144531 165.59375 L 119.539062 165.59375 C 170.796875 165.59375 212.261719 207.160156 212.261719 258.316406 L 212.261719 264.710938 C 212.261719 316.269531 170.496094 358.03125 118.941406 358.03125 L 40.90625 358.03125 C 29.316406 358.03125 19.824219 348.640625 19.824219 336.949219 L 19.824219 259.015625 C 19.722656 207.457031 61.585938 165.59375 113.144531 165.59375 Z M 113.144531 165.59375 "/>
<path style=" stroke:none;fill-rule:nonzero;fill:rgb(91.764706%,93.72549%,95.686275%);fill-opacity:1;" d="M 115.144531 165.792969 C 120.140625 165.792969 125.132812 166.191406 130.03125 166.992188 C 90.761719 166.09375 37.507812 195.070312 37.507812 261.613281 L 37.507812 344.144531 C 37.507812 351.636719 43.601562 357.632812 51.097656 357.734375 L 42.003906 357.734375 C 29.515625 357.734375 19.421875 347.542969 19.421875 335.152344 L 19.421875 261.613281 C 19.324219 208.859375 62.488281 165.792969 115.144531 165.792969 Z M 115.144531 165.792969 "/>
<path style="fill:none;stroke-width:1.883;stroke-linecap:round;stroke-linejoin:round;stroke:rgb(72.156863%,75.294118%,80%);stroke-opacity:1;stroke-miterlimit:4;" d="M 3457.701627 1437.500129 L 3460.000421 1437.500129 C 3512.399641 1437.500129 3554.899971 1480.000459 3554.899971 1532.399679 L 3554.899971 1534.698473 C 3554.899971 1587.398726 3512.200256 1630.200088 3459.398356 1630.200088 L 3384.398234 1630.200088 C 3372.20055 1630.200088 3362.200012 1620.301198 3362.200012 1608.001866 L 3362.200012 1533.001744 C 3362.200012 1480.301491 3405.001375 1437.500129 3457.701627 1437.500129 Z M 3457.701627 1437.500129 " transform="matrix(0.999165,0,0,0.999165,-3339.670064,-1270.706129)"/>
<path style=" stroke:none;fill-rule:nonzero;fill:rgb(72.156863%,75.294118%,80%);fill-opacity:1;" d="M 179.484375 229.585938 C 178.726562 223.785156 175.140625 219.472656 171.472656 219.949219 C 167.808594 220.429688 165.449219 225.519531 166.207031 231.320312 C 166.96875 237.121094 170.554688 241.433594 174.21875 240.957031 C 177.886719 240.476562 180.242188 235.386719 179.484375 229.585938 Z M 179.484375 229.585938 "/>
<path style="fill:none;stroke-width:1.883;stroke-linecap:round;stroke-linejoin:round;stroke:rgb(72.156863%,75.294118%,80%);stroke-opacity:1;stroke-miterlimit:4;" d="M 3477.999825 1484.699695 L 3516.000304 1479.699426 C 3522.099146 1478.901885 3527.599833 1483.198442 3528.401283 1489.301193 L 3531.900298 1516.300299 C 3532.701749 1522.399141 3528.401283 1527.899828 3522.298531 1528.701278 L 3484.298053 1533.701547 C 3478.19921 1534.499088 3472.698524 1530.198622 3471.900983 1524.09978 L 3468.398058 1497.100674 C 3467.600517 1491.09957 3471.900983 1485.501145 3477.999825 1484.699695 Z M 3477.999825 1484.699695 " transform="matrix(0.999165,0,0,0.999165,-3339.670064,-1270.706129)"/>
<path style="fill:none;stroke-width:1;stroke-linecap:butt;stroke-linejoin:miter;stroke:rgb(6.666667%,67.058824%,83.529412%);stroke-opacity:1;stroke-miterlimit:10;" d="M 3565.901344 1318.799457 C 3565.901344 1324.874842 3560.975356 1329.80083 3554.899971 1329.80083 C 3548.824586 1329.80083 3543.898598 1324.874842 3543.898598 1318.799457 C 3543.898598 1312.724072 3548.824586 1307.798084 3554.899971 1307.798084 C 3560.975356 1307.798084 3565.901344 1312.724072 3565.901344 1318.799457 Z M 3565.901344 1318.799457 " transform="matrix(0.999165,0,0,0.999165,-3339.670064,-1270.706129)"/>
<path style="fill:none;stroke-width:1;stroke-linecap:round;stroke-linejoin:round;stroke:rgb(6.666667%,67.058824%,83.529412%);stroke-opacity:1;stroke-miterlimit:4;" d="M 3549.899702 1318.799457 L 3553.199332 1322.099087 L 3559.798592 1315.499827 " transform="matrix(0.999165,0,0,0.999165,-3339.670064,-1270.706129)"/>
<path style="fill:none;stroke-width:1;stroke-linecap:butt;stroke-linejoin:miter;stroke:rgb(6.666667%,67.058824%,83.529412%);stroke-opacity:1;stroke-miterlimit:10;" d="M 3565.901344 1395.500217 C 3565.901344 1401.575602 3560.975356 1406.50159 3554.899971 1406.50159 C 3548.824586 1406.50159 3543.898598 1401.575602 3543.898598 1395.500217 C 3543.898598 1389.424832 3548.824586 1384.498844 3554.899971 1384.498844 C 3560.975356 1384.498844 3565.901344 1389.424832 3565.901344 1395.500217 Z M 3565.901344 1395.500217 " transform="matrix(0.999165,0,0,0.999165,-3339.670064,-1270.706129)"/>
<path style="fill:none;stroke-width:1;stroke-linecap:round;stroke-linejoin:round;stroke:rgb(6.666667%,67.058824%,83.529412%);stroke-opacity:1;stroke-miterlimit:4;" d="M 3549.899702 1395.500217 L 3553.199332 1398.799847 L 3559.798592 1392.200587 " transform="matrix(0.999165,0,0,0.999165,-3339.670064,-1270.706129)"/>
</g>
</svg>
