<svg xmlns="http://www.w3.org/2000/svg" xmlns:xlink="http://www.w3.org/1999/xlink" width="106.719" height="105.719" viewBox="0 0 106.719 105.719">
  <defs>
    <clipPath id="clip-path">
      <circle id="Ellipse_333" data-name="Ellipse 333" cx="52.86" cy="52.86" r="52.86" transform="translate(1364.351 974.958)" fill="none"/>
    </clipPath>
  </defs>
  <g id="Group_528" data-name="Group 528" transform="translate(-1363.351 -974.958)">
    <circle id="Ellipse_332" data-name="Ellipse 332" cx="52.86" cy="52.86" r="52.86" transform="translate(1364.351 974.958)" fill="#f0f4f7"/>
    <path id="Path_669" data-name="Path 669" d="M1405.606,1064.014c0,1.982,5.2,5.43,2.932,7.371s-5.079-.124-6.029-1.61-1.239-5.08-2.189-6.773-3.592-5-3.592-8.094-.042-12.018-2.107-13.917-8.92-7.062-8.92-12.513,5.489-10.7,11.706-10.7,11.5,7.392,13.816,8.92,9.58.289,13.132,2.354,3.882,5.493,2.436,7.681-7.144,9.7-7.144,9.7-3.138,6.566-5.162,8.3S1405.606,1059.657,1405.606,1064.014Z" fill="#b8c0cc" opacity="0.3"/>
    <path id="Path_670" data-name="Path 670" d="M1400.578,1056.547h-29.7c-3.657,0-6.531,4.838-6.531,4.838v-29.6a3.216,3.216,0,0,1,3.215-3.216h33.012a3.216,3.216,0,0,1,3.216,3.216v21.543A3.216,3.216,0,0,1,1400.578,1056.547Z" fill="#fff" stroke="#b8c0cc" stroke-linecap="round" stroke-linejoin="round" stroke-width="2"/>
    <g id="Group_527" data-name="Group 527" opacity="0.3">
      <g id="Group_526" data-name="Group 526" clip-path="url(#clip-path)">
        <path id="Path_671" data-name="Path 671" d="M1366.264,1013.678s1.721-2.3,6.635-2.3,6.9-.082,7.1-3.675,2.024-4.46,5.245-4.46,8.3-.124,9.829-5.74a8.191,8.191,0,0,1,7.929-6.03c.949.042,7.887,0,7.887,0s6.153.124,3.923-4.873-4.767-11.164-4.767-11.164l-13.126-16.05-45.282,48.9Z" fill="#b8c0cc"/>
        <path id="Path_672" data-name="Path 672" d="M1456.352,1063.344c-3.054-1.971-5.557-6.361-2.429-12.029s3.438-7.557,3.438-12.048,2.478-7.5,3.469-9.23,1.642-6.226.176-8.063-4.295-.764-6.463-.764c-8.8,0-13.783-7.4-13.783-11.491s2.23-5.2,4.429-5.513,4.181,1.456,8.053-.774,9.609-2.3,9.609-2.3h31.276l-6.34,66.024Z" fill="#b8c0cc"/>
      </g>
    </g>
    <path id="Path_673" data-name="Path 673" d="M1419.015,1007.379h30.921c3.808,0,6.8,5.037,6.8,5.037V981.6a3.348,3.348,0,0,0-3.348-3.348h-34.374a3.348,3.348,0,0,0-3.348,3.348v22.432A3.348,3.348,0,0,0,1419.015,1007.379Z" fill="#fff" stroke="#b8c0cc" stroke-linecap="round" stroke-linejoin="round" stroke-width="2"/>
  </g>
</svg>
