<?xml version="1.0" encoding="UTF-8"?>
<svg xmlns="http://www.w3.org/2000/svg" xmlns:xlink="http://www.w3.org/1999/xlink" width="319pt" height="238pt" viewBox="0 0 319 238" version="1.1">
<defs>
<filter id="alpha" filterUnits="objectBoundingBox" x="0%" y="0%" width="100%" height="100%">
  <feColorMatrix type="matrix" in="SourceGraphic" values="0 0 0 0 1 0 0 0 0 1 0 0 0 0 1 0 0 0 1 0"/>
</filter>
<mask id="mask0">
  <g filter="url(#alpha)">
<rect x="0" y="0" width="319" height="238" style="fill:rgb(0%,0%,0%);fill-opacity:0.4;stroke:none;"/>
  </g>
</mask>
<clipPath id="clip1">
  <rect x="0" y="0" width="319" height="238"/>
</clipPath>
<g id="surface5" clip-path="url(#clip1)">
<path style=" stroke:none;fill-rule:nonzero;fill:rgb(100%,100%,100%);fill-opacity:1;" d="M 67.613281 193.964844 L 77.09375 189.339844 C 78.429688 188.6875 80.039062 189.242188 80.691406 190.582031 L 83.492188 196.339844 C 84.144531 197.679688 83.585938 199.292969 82.25 199.945312 L 72.773438 204.574219 C 71.4375 205.226562 69.824219 204.667969 69.171875 203.328125 L 66.371094 197.570312 C 65.722656 196.230469 66.277344 194.617188 67.613281 193.964844 Z M 67.613281 193.964844 "/>
</g>
</defs>
<g id="surface1">
<path style="fill-rule:nonzero;fill:rgb(100%,100%,100%);fill-opacity:1;stroke-width:2;stroke-linecap:round;stroke-linejoin:round;stroke:rgb(72.156863%,75.294118%,80%);stroke-opacity:1;stroke-miterlimit:4;" d="M 23.949228 0.00231421 L 384.678876 0.00231421 C 397.90681 0.00231421 408.627299 10.720703 408.627299 23.953568 L 408.627299 304.080111 C 408.627299 317.307182 397.90681 328.031365 384.678876 328.031365 L 23.949228 328.031365 C 10.721294 328.031365 0.000804859 317.307182 0.000804859 304.080111 L 0.000804859 23.953568 C 0.000804859 10.720703 10.721294 0.00231421 23.949228 0.00231421 Z M 23.949228 0.00231421 " transform="matrix(0.672996,0,0,0.674221,43.171333,0.674221)"/>
<path style=" stroke:none;fill-rule:nonzero;fill:rgb(94.117647%,95.686275%,96.862745%);fill-opacity:1;" d="M 81.832031 10.386719 C 87.132812 10.386719 91.429688 14.691406 91.429688 20 C 91.429688 25.308594 87.132812 29.613281 81.832031 29.613281 C 76.535156 29.613281 72.238281 25.308594 72.238281 20 C 72.238281 14.691406 76.535156 10.386719 81.832031 10.386719 Z M 81.832031 10.386719 "/>
<path style=" stroke:none;fill-rule:nonzero;fill:rgb(94.117647%,95.686275%,96.862745%);fill-opacity:1;" d="M 76.308594 136.449219 L 131.804688 136.449219 C 134.773438 136.449219 137.183594 138.859375 137.183594 141.835938 L 137.183594 201.726562 C 137.183594 204.699219 134.773438 207.113281 131.804688 207.113281 L 76.308594 207.113281 C 73.335938 207.113281 70.929688 204.699219 70.929688 201.726562 L 70.929688 141.835938 C 70.929688 138.859375 73.335938 136.449219 76.308594 136.449219 Z M 76.308594 136.449219 "/>
<path style=" stroke:none;fill-rule:nonzero;fill:rgb(94.117647%,95.686275%,96.862745%);fill-opacity:1;" d="M 108.660156 13.859375 L 283.003906 13.859375 C 286.339844 13.859375 289.042969 16.570312 289.042969 19.914062 L 289.042969 20.085938 C 289.042969 23.429688 286.339844 26.140625 283.003906 26.140625 L 108.660156 26.140625 C 105.324219 26.140625 102.617188 23.429688 102.617188 20.085938 L 102.617188 19.914062 C 102.617188 16.570312 105.324219 13.859375 108.660156 13.859375 Z M 108.660156 13.859375 "/>
<path style=" stroke:none;fill-rule:nonzero;fill:rgb(94.117647%,95.686275%,96.862745%);fill-opacity:1;" d="M 152.925781 136.449219 L 208.421875 136.449219 C 211.390625 136.449219 213.800781 138.859375 213.800781 141.835938 L 213.800781 201.726562 C 213.800781 204.699219 211.390625 207.113281 208.421875 207.113281 L 152.925781 207.113281 C 149.953125 207.113281 147.546875 204.699219 147.546875 201.726562 L 147.546875 141.835938 C 147.546875 138.859375 149.953125 136.449219 152.925781 136.449219 Z M 152.925781 136.449219 "/>
<path style=" stroke:none;fill-rule:nonzero;fill:rgb(94.117647%,95.686275%,96.862745%);fill-opacity:1;" d="M 228.234375 136.449219 L 283.730469 136.449219 C 286.703125 136.449219 289.109375 138.859375 289.109375 141.835938 L 289.109375 201.726562 C 289.109375 204.699219 286.703125 207.113281 283.730469 207.113281 L 228.234375 207.113281 C 225.265625 207.113281 222.855469 204.699219 222.855469 201.726562 L 222.855469 141.835938 C 222.855469 138.859375 225.265625 136.449219 228.234375 136.449219 Z M 228.234375 136.449219 "/>
<path style="fill-rule:nonzero;fill:rgb(100%,100%,100%);fill-opacity:1;stroke-width:2;stroke-linecap:round;stroke-linejoin:round;stroke:rgb(72.156863%,75.294118%,80%);stroke-opacity:1;stroke-miterlimit:4;" d="M 3646.327924 394.024716 C 3646.327924 396.41173 3648.260747 398.34104 3650.640498 398.346834 C 3653.026053 398.346834 3654.958876 396.41173 3654.958876 394.030509 C 3654.958876 391.643495 3653.026053 389.714185 3650.640498 389.714185 C 3648.260747 389.714185 3646.327924 391.643495 3646.327924 394.024716 Z M 3646.327924 394.024716 " transform="matrix(0.672996,0,0,0.674221,-2259.59612,-31.839411)"/>
<path style="fill-rule:nonzero;fill:rgb(100%,100%,100%);fill-opacity:1;stroke-width:2;stroke-linecap:round;stroke-linejoin:round;stroke:rgb(72.156863%,75.294118%,80%);stroke-opacity:1;stroke-miterlimit:4;" d="M 3625.658915 394.024716 C 3625.658915 396.41173 3627.585933 398.34104 3629.971488 398.346834 C 3632.357044 398.346834 3634.289866 396.41173 3634.289866 394.030509 C 3634.289866 391.643495 3632.357044 389.714185 3629.971488 389.714185 C 3627.591737 389.714185 3625.658915 391.643495 3625.658915 394.024716 Z M 3625.658915 394.024716 " transform="matrix(0.672996,0,0,0.674221,-2259.59612,-31.839411)"/>
<path style=" stroke:none;fill-rule:nonzero;fill:rgb(100%,100%,100%);fill-opacity:1;" d="M 272.363281 237.269531 L 247.226562 237.269531 C 230.542969 237.269531 217.019531 223.722656 217.019531 207.007812 C 217.019531 190.410156 230.453125 176.953125 247.023438 176.953125 C 263.703125 176.953125 277.226562 190.5 277.226562 207.214844 L 277.226562 232.398438 C 277.226562 235.089844 275.050781 237.269531 272.363281 237.269531 Z M 272.363281 237.269531 "/>
<path style=" stroke:none;fill-rule:nonzero;fill:rgb(91.764706%,93.72549%,95.686275%);fill-opacity:1;" d="M 247.398438 177 C 245.835938 177 244.273438 177.121094 242.730469 177.367188 C 255.003906 177.078125 271.6875 186.164062 271.6875 207.015625 L 271.6875 232.894531 C 271.679688 235.234375 269.785156 237.132812 267.445312 237.140625 L 273.121094 237.140625 C 275.457031 237.132812 277.351562 235.234375 277.359375 232.894531 L 277.359375 207.015625 C 277.3125 190.457031 263.925781 177.046875 247.398438 177 Z M 247.398438 177 "/>
<path style="fill:none;stroke-width:1.883;stroke-linecap:round;stroke-linejoin:round;stroke:rgb(72.156863%,75.294118%,80%);stroke-opacity:1;stroke-miterlimit:4;" d="M 7.229193 0.00142634 L 44.579678 0.00142634 C 69.36972 0.00142634 89.464107 20.09406 89.464107 44.885404 C 89.464107 69.502936 69.503219 89.462315 44.8815 89.462315 C 20.097263 89.462315 0.00287578 69.369681 0.00287578 44.578337 L 0.00287578 7.2262 C 0.00287578 3.234324 3.235855 0.00142634 7.229193 0.00142634 Z M 7.229193 0.00142634 " transform="matrix(-0.672996,0.000000000000000083,-0.000000000000000082,-0.674221,277.228498,237.270493)"/>
<path style=" stroke:none;fill-rule:nonzero;fill:rgb(72.156863%,75.294118%,80%);fill-opacity:1;" d="M 232.070312 193.605469 C 231.160156 193.300781 230.027344 194.222656 229.546875 195.664062 C 229.0625 197.105469 229.414062 198.523438 230.324219 198.832031 C 231.238281 199.136719 232.367188 198.214844 232.847656 196.773438 C 233.332031 195.332031 232.984375 193.914062 232.070312 193.605469 Z M 232.070312 193.605469 "/>
<path style=" stroke:none;fill-rule:nonzero;fill:rgb(100%,100%,100%);fill-opacity:1;" d="M 61.472656 176.953125 C 78.039062 176.953125 91.472656 190.410156 91.472656 207.007812 C 91.472656 223.722656 77.949219 237.269531 61.265625 237.269531 L 36.128906 237.269531 C 33.441406 237.269531 31.265625 235.089844 31.265625 232.398438 L 31.265625 207.214844 C 31.265625 190.5 44.789062 176.953125 61.472656 176.953125 Z M 61.472656 176.953125 "/>
<path style=" stroke:none;fill-rule:nonzero;fill:rgb(91.764706%,93.72549%,95.686275%);fill-opacity:1;" d="M 61.09375 177 C 62.65625 177 64.21875 177.121094 65.761719 177.367188 C 53.488281 177.078125 36.804688 186.164062 36.804688 207.015625 L 36.804688 232.894531 C 36.8125 235.234375 38.707031 237.132812 41.046875 237.140625 L 35.371094 237.140625 C 33.035156 237.132812 31.140625 235.234375 31.132812 232.894531 L 31.132812 207.015625 C 31.179688 190.457031 44.566406 177.046875 61.09375 177 Z M 61.09375 177 "/>
<path style="fill:none;stroke-width:1.883;stroke-linecap:round;stroke-linejoin:round;stroke:rgb(72.156863%,75.294118%,80%);stroke-opacity:1;stroke-miterlimit:4;" d="M 44.884815 0.000685399 C 69.500729 0.000685399 89.461618 19.960064 89.461618 44.577596 C 89.461618 69.36894 69.367231 89.461574 44.577189 89.461574 L 7.226704 89.461574 C 3.233365 89.461574 0.000386364 86.228676 0.000386364 82.2368 L 0.000386364 44.884663 C 0.000386364 20.093319 20.094773 0.000685399 44.884815 0.000685399 Z M 44.884815 0.000685399 " transform="matrix(0.672996,0,0,0.674221,31.265365,176.952663)"/>
<path style=" stroke:none;fill-rule:nonzero;fill:rgb(72.156863%,75.294118%,80%);fill-opacity:1;" d="M 78.949219 195.664062 C 78.464844 194.222656 77.335938 193.300781 76.421875 193.609375 C 75.511719 193.914062 75.160156 195.332031 75.644531 196.773438 C 76.125 198.214844 77.257812 199.136719 78.167969 198.832031 C 79.082031 198.523438 79.429688 197.109375 78.949219 195.664062 Z M 78.949219 195.664062 "/>
<path style="fill:none;stroke-width:2;stroke-linecap:round;stroke-linejoin:round;stroke:rgb(72.156863%,75.294118%,80%);stroke-opacity:1;stroke-miterlimit:4;" d="M 3660.914058 361.730499 L 3661.749873 357.23457 C 3661.749873 357.23457 3662.690165 353.399125 3665.87671 352.663322 C 3669.05745 351.933313 3669.452141 351.881169 3669.452141 351.881169 " transform="matrix(0.672996,0,0,0.674221,-2259.59612,-31.839411)"/>
<path style="fill-rule:nonzero;fill:rgb(100%,100%,100%);fill-opacity:1;stroke-width:2;stroke-linecap:round;stroke-linejoin:round;stroke:rgb(72.156863%,75.294118%,80%);stroke-opacity:1;stroke-miterlimit:4;" d="M 3617.532935 361.649387 C 3617.167266 361.649387 3616.824814 361.823199 3616.604252 362.112885 C 3616.377885 362.408365 3616.314038 362.796545 3616.430124 363.149962 L 3621.891943 381.249555 C 3622.629085 383.7003 3624.892751 385.38048 3627.458239 385.374686 L 3651.859395 385.374686 C 3654.674466 385.374686 3657.089043 383.346883 3657.576602 380.571689 L 3660.914058 361.643594 Z M 3617.532935 361.649387 " transform="matrix(0.672996,0,0,0.674221,-2259.59612,-31.839411)"/>
<path style=" stroke:none;fill-rule:nonzero;fill:rgb(72.156863%,75.294118%,80%);fill-opacity:1;" d="M 211.292969 205.3125 C 211.292969 206.804688 210.082031 208.015625 208.59375 208.015625 C 207.101562 208.015625 205.894531 206.804688 205.894531 205.3125 C 205.894531 203.820312 207.101562 202.609375 208.59375 202.609375 C 210.082031 202.609375 211.292969 203.820312 211.292969 205.3125 Z M 211.292969 205.3125 "/>
<path style=" stroke:none;fill-rule:nonzero;fill:rgb(72.156863%,75.294118%,80%);fill-opacity:1;" d="M 94.746094 201.699219 C 94.746094 203.191406 93.535156 204.402344 92.046875 204.402344 C 90.558594 204.402344 89.347656 203.191406 89.347656 201.699219 C 89.347656 200.207031 90.558594 198.996094 92.046875 198.996094 C 93.535156 198.996094 94.746094 200.207031 94.746094 201.699219 Z M 94.746094 201.699219 "/>
<path style="fill:none;stroke-width:2;stroke-linecap:round;stroke-linejoin:round;stroke:rgb(72.156863%,75.294118%,80%);stroke-opacity:1;stroke-miterlimit:4;" d="M 3716.408694 358.613476 C 3716.408694 358.613476 3685.193324 374.534629 3667.46708 351.74212 " transform="matrix(0.672996,0,0,0.674221,-2259.59612,-31.839411)"/>
<path style="fill:none;stroke-width:2;stroke-linecap:round;stroke-linejoin:round;stroke:rgb(72.156863%,75.294118%,80%);stroke-opacity:1;stroke-miterlimit:4;" d="M 3494.290846 346.382925 C 3516.892678 365.704994 3487.499848 384.980713 3458.867379 364.90546 " transform="matrix(0.672996,0,0,0.674221,-2259.59612,-31.839411)"/>
<use xlink:href="#surface5" mask="url(#mask0)"/>
<path style="fill:none;stroke-width:1.883;stroke-linecap:round;stroke-linejoin:round;stroke:rgb(72.156863%,75.294118%,80%);stroke-opacity:1;stroke-miterlimit:4;" d="M 3.999501 -0.000963529 L 19.667557 0.00219523 C 21.875815 0.00182273 23.665221 1.788773 23.666219 3.999768 L 23.667056 13.499563 C 23.668054 15.710558 21.873905 17.498067 19.665648 17.498439 L 4.000272 17.503031 C 1.792014 17.503404 -0.0000720942 15.708703 -0.0010704 13.497708 L -0.00190731 3.997913 C 0.00231219 1.78946 1.791243 -0.000591022 3.999501 -0.000963529 Z M 3.999501 -0.000963529 " transform="matrix(0.605023,-0.295309,0.294772,0.606125,65.193774,195.146516)"/>
<path style=" stroke:none;fill-rule:nonzero;fill:rgb(100%,100%,100%);fill-opacity:1;" d="M 103.59375 64.878906 L 88.902344 71.984375 C 88.71875 72.074219 88.601562 72.261719 88.601562 72.464844 L 88.601562 89.945312 C 88.601562 90.152344 88.71875 90.339844 88.902344 90.429688 L 103.59375 97.53125 C 103.886719 97.671875 104.226562 97.671875 104.519531 97.53125 L 119.210938 90.429688 C 119.394531 90.339844 119.511719 90.152344 119.511719 89.945312 L 119.511719 72.460938 C 119.511719 72.257812 119.394531 72.070312 119.210938 71.980469 L 104.519531 64.875 C 104.226562 64.734375 103.886719 64.738281 103.59375 64.878906 Z M 103.59375 64.878906 "/>
<path style="fill-rule:nonzero;fill:rgb(100%,100%,100%);fill-opacity:1;stroke-width:2;stroke-linecap:round;stroke-linejoin:round;stroke:rgb(72.156863%,75.294118%,80%);stroke-opacity:1;stroke-miterlimit:4;" d="M 3489.299172 154.26884 C 3489.212108 154.396302 3489.171478 154.546939 3489.171478 154.703369 L 3489.171478 180.630283 C 3489.171478 180.93735 3489.339802 181.215449 3489.618407 181.348705 L 3511.442467 191.881694 C 3511.657225 191.985981 3511.8952 192.038125 3512.133175 192.038125 L 3512.133175 165.294296 Z M 3489.299172 154.26884 " transform="matrix(0.672996,0,0,0.674221,-2259.59612,-31.839411)"/>
<path style=" stroke:none;fill-rule:nonzero;fill:rgb(72.156863%,75.294118%,80%);fill-opacity:1;" d="M 95.796875 90.605469 C 95.714844 90.605469 95.636719 90.585938 95.566406 90.550781 L 91.210938 88.449219 C 90.953125 88.316406 90.847656 88 90.972656 87.738281 C 91.101562 87.476562 91.414062 87.363281 91.675781 87.488281 L 96.027344 89.589844 C 96.253906 89.699219 96.371094 89.949219 96.316406 90.191406 C 96.261719 90.433594 96.042969 90.605469 95.796875 90.605469 Z M 95.796875 90.605469 "/>
<path style=" stroke:none;fill-rule:nonzero;fill:rgb(72.156863%,75.294118%,80%);fill-opacity:1;" d="M 114.214844 74.683594 L 98.796875 67.21875 L 94.730469 69.195312 L 110.183594 76.667969 Z M 114.214844 74.683594 "/>
<path style=" stroke:none;fill-rule:nonzero;fill:rgb(72.156863%,75.294118%,80%);fill-opacity:1;" d="M 110.183594 76.667969 L 110.183594 82.457031 C 110.1875 82.550781 110.234375 82.632812 110.3125 82.683594 C 110.386719 82.730469 110.484375 82.738281 110.566406 82.699219 L 113.914062 81.082031 C 114.097656 80.992188 114.214844 80.804688 114.214844 80.597656 L 114.214844 74.683594 Z M 110.183594 76.667969 "/>
<path style="fill:none;stroke-width:2;stroke-linecap:round;stroke-linejoin:round;stroke:rgb(72.156863%,75.294118%,80%);stroke-opacity:1;stroke-miterlimit:4;" d="M 3511.448271 143.451958 L 3489.618407 153.990741 C 3489.345607 154.123997 3489.171478 154.402095 3489.171478 154.703369 L 3489.171478 180.630283 C 3489.171478 180.93735 3489.345607 181.215449 3489.618407 181.348705 L 3511.448271 191.881694 C 3511.883591 192.090268 3512.388563 192.090268 3512.823883 191.881694 L 3534.653747 181.348705 C 3534.926548 181.215449 3535.100676 180.93735 3535.100676 180.630283 L 3535.100676 154.697575 C 3535.100676 154.396302 3534.926548 154.118203 3534.653747 153.984947 L 3512.823883 143.446164 C 3512.388563 143.23759 3511.883591 143.243384 3511.448271 143.451958 Z M 3511.448271 143.451958 " transform="matrix(0.672996,0,0,0.674221,-2259.59612,-31.839411)"/>
<path style="fill:none;stroke-width:2;stroke-linecap:round;stroke-linejoin:round;stroke:rgb(72.156863%,75.294118%,80%);stroke-opacity:1;stroke-miterlimit:4;" d="M 3534.967178 154.26884 C 3535.054242 154.396302 3535.100676 154.546939 3535.100676 154.703369 L 3535.100676 180.630283 C 3535.100676 180.93735 3534.926548 181.215449 3534.653747 181.348705 L 3512.823883 191.881694 C 3512.609125 191.985981 3512.376955 192.038125 3512.133175 192.038125 L 3512.133175 165.294296 Z M 3534.967178 154.26884 " transform="matrix(0.672996,0,0,0.674221,-2259.59612,-31.839411)"/>
<path style=" stroke:none;fill-rule:nonzero;fill:rgb(100%,100%,100%);fill-opacity:1;" d="M 180.09375 56.667969 L 161.722656 65.554688 C 161.492188 65.664062 161.34375 65.898438 161.34375 66.15625 L 161.34375 88.019531 C 161.34375 88.273438 161.492188 88.507812 161.722656 88.621094 L 180.09375 97.503906 C 180.460938 97.683594 180.886719 97.683594 181.253906 97.503906 L 199.625 88.621094 C 199.855469 88.507812 200.003906 88.273438 200.003906 88.019531 L 200.003906 66.15625 C 200.003906 65.898438 199.855469 65.664062 199.625 65.554688 L 181.253906 56.667969 C 180.886719 56.492188 180.460938 56.492188 180.09375 56.667969 Z M 180.09375 56.667969 "/>
<path style="fill-rule:nonzero;fill:rgb(100%,100%,100%);fill-opacity:1;stroke-width:2;stroke-linecap:round;stroke-linejoin:round;stroke:rgb(72.156863%,75.294118%,80%);stroke-opacity:1;stroke-miterlimit:4;" d="M 3597.42694 144.801895 C 3597.322463 144.958326 3597.26442 145.149519 3597.26442 145.340712 L 3597.26442 177.768183 C 3597.26442 178.150569 3597.479178 178.498192 3597.82163 178.660417 L 3625.119118 191.841138 C 3625.391918 191.9686 3625.682132 192.038125 3625.983954 192.038125 L 3625.983954 158.590958 Z M 3597.42694 144.801895 " transform="matrix(0.672996,0,0,0.674221,-2259.59612,-31.839411)"/>
<path style=" stroke:none;fill-rule:nonzero;fill:rgb(72.156863%,75.294118%,80%);fill-opacity:1;" d="M 193.378906 68.929688 L 174.089844 59.597656 L 169.007812 62.0625 L 188.335938 71.410156 Z M 193.378906 68.929688 "/>
<path style=" stroke:none;fill-rule:nonzero;fill:rgb(72.156863%,75.294118%,80%);fill-opacity:1;" d="M 188.335938 71.414062 L 188.335938 78.652344 C 188.339844 78.769531 188.398438 78.875 188.496094 78.933594 C 188.59375 78.996094 188.714844 79.003906 188.816406 78.953125 L 193 76.929688 C 193.230469 76.820312 193.378906 76.585938 193.378906 76.328125 L 193.378906 68.929688 Z M 188.335938 71.414062 "/>
<path style="fill:none;stroke-width:2;stroke-linecap:round;stroke-linejoin:round;stroke:rgb(72.156863%,75.294118%,80%);stroke-opacity:1;stroke-miterlimit:4;" d="M 3625.119118 131.27355 L 3597.82163 144.454272 C 3597.479178 144.616496 3597.258616 144.964119 3597.258616 145.346505 L 3597.258616 177.773977 C 3597.258616 178.150569 3597.479178 178.498192 3597.82163 178.66621 L 3625.119118 191.841138 C 3625.664719 192.10765 3626.297385 192.10765 3626.842986 191.841138 L 3654.140473 178.66621 C 3654.482925 178.498192 3654.703488 178.150569 3654.703488 177.773977 L 3654.703488 145.346505 C 3654.703488 144.964119 3654.482925 144.616496 3654.140473 144.454272 L 3626.842986 131.27355 C 3626.297385 131.012833 3625.664719 131.012833 3625.119118 131.27355 Z M 3625.119118 131.27355 " transform="matrix(0.672996,0,0,0.674221,-2259.59612,-31.839411)"/>
<path style="fill:none;stroke-width:2;stroke-linecap:round;stroke-linejoin:round;stroke:rgb(72.156863%,75.294118%,80%);stroke-opacity:1;stroke-miterlimit:4;" d="M 3654.535164 144.801895 C 3654.639641 144.958326 3654.697683 145.149519 3654.697683 145.340712 L 3654.697683 177.768183 C 3654.697683 178.150569 3654.482925 178.498192 3654.140473 178.660417 L 3626.837182 191.841138 C 3626.570185 191.9686 3626.279972 192.038125 3625.97815 192.038125 L 3625.97815 158.590958 Z M 3654.535164 144.801895 " transform="matrix(0.672996,0,0,0.674221,-2259.59612,-31.839411)"/>
<path style=" stroke:none;fill-rule:nonzero;fill:rgb(72.156863%,75.294118%,80%);fill-opacity:1;" d="M 175.886719 82.761719 C 175.824219 82.496094 175.664062 82.261719 175.4375 82.113281 L 172.601562 80.476562 L 171.480469 76.75 C 171.40625 76.492188 171.234375 76.269531 171 76.140625 C 170.917969 76.085938 170.8125 76.074219 170.722656 76.109375 C 170.628906 76.140625 170.554688 76.210938 170.519531 76.304688 L 169.398438 78.980469 L 166.5625 77.96875 C 166.472656 77.929688 166.371094 77.929688 166.285156 77.972656 C 166.195312 78.019531 166.132812 78.097656 166.113281 78.195312 C 166.058594 78.453125 166.113281 78.726562 166.265625 78.941406 L 168.410156 82.238281 L 167.777344 85.339844 C 167.742188 85.605469 167.8125 85.875 167.980469 86.089844 C 168.058594 86.203125 168.164062 86.292969 168.285156 86.355469 C 168.367188 86.398438 168.464844 86.410156 168.554688 86.390625 L 171 85.75 L 173.445312 88.675781 C 173.566406 88.867188 173.796875 88.960938 174.019531 88.910156 C 174.1875 88.84375 174.265625 88.621094 174.21875 88.347656 L 173.589844 84.660156 L 175.730469 83.367188 C 175.90625 83.21875 175.96875 82.976562 175.886719 82.761719 Z M 175.886719 82.761719 "/>
<path style=" stroke:none;fill-rule:nonzero;fill:rgb(100%,100%,100%);fill-opacity:1;" d="M 254.847656 59.007812 L 237.523438 67.386719 C 237.304688 67.492188 237.167969 67.710938 237.167969 67.953125 L 237.167969 88.570312 C 237.167969 88.808594 237.304688 89.03125 237.523438 89.136719 L 254.847656 97.511719 C 255.191406 97.679688 255.59375 97.679688 255.9375 97.511719 L 273.261719 89.136719 C 273.476562 89.03125 273.617188 88.808594 273.617188 88.570312 L 273.617188 67.953125 C 273.617188 67.710938 273.480469 67.492188 273.261719 67.386719 L 255.9375 59.007812 C 255.59375 58.84375 255.191406 58.84375 254.847656 59.007812 Z M 254.847656 59.007812 "/>
<path style=" stroke:none;fill-rule:nonzero;fill:rgb(72.156863%,75.294118%,80%);fill-opacity:1;" d="M 242.351562 87.46875 C 242.257812 87.46875 242.167969 87.449219 242.082031 87.40625 L 239.410156 86.113281 C 239.203125 86.019531 239.0625 85.820312 239.046875 85.59375 C 239.027344 85.363281 239.132812 85.144531 239.320312 85.019531 C 239.511719 84.890625 239.753906 84.878906 239.957031 84.980469 L 242.628906 86.273438 C 242.894531 86.402344 243.035156 86.695312 242.96875 86.980469 C 242.902344 87.265625 242.648438 87.46875 242.355469 87.46875 Z M 242.351562 87.46875 "/>
<path style=" stroke:none;fill-rule:nonzero;fill:rgb(72.156863%,75.294118%,80%);fill-opacity:1;" d="M 244.8125 85.863281 C 244.71875 85.863281 244.628906 85.84375 244.542969 85.800781 L 239.414062 83.320312 C 239.101562 83.167969 238.96875 82.792969 239.121094 82.480469 C 239.269531 82.167969 239.644531 82.035156 239.957031 82.1875 L 245.089844 84.667969 C 245.355469 84.796875 245.496094 85.089844 245.429688 85.375 C 245.367188 85.664062 245.109375 85.863281 244.816406 85.863281 Z M 244.8125 85.863281 "/>
<path style="fill:none;stroke-width:2;stroke-linecap:round;stroke-linejoin:round;stroke:rgb(72.156863%,75.294118%,80%);stroke-opacity:1;stroke-miterlimit:4;" d="M 3709.925323 162.32791 L 3709.925323 178.590892 C 3709.925323 178.944309 3710.128473 179.274551 3710.453512 179.430982 L 3736.195455 191.852726 C 3736.706231 192.101856 3737.304071 192.101856 3737.814846 191.852726 L 3763.556789 179.430982 C 3763.876024 179.274551 3764.084978 178.944309 3764.084978 178.590892 L 3764.084978 162.345291 " transform="matrix(0.672996,0,0,0.674221,-2259.59612,-31.839411)"/>
<path style=" stroke:none;fill-rule:nonzero;fill:rgb(94.117647%,95.686275%,96.862745%);fill-opacity:1;" d="M 255.390625 59.148438 L 238.199219 67.609375 L 255.390625 75.976562 L 272.59375 67.5625 Z M 255.390625 59.148438 "/>
<path style="fill:none;stroke-width:2;stroke-linecap:round;stroke-linejoin:round;stroke:rgb(72.156863%,75.294118%,80%);stroke-opacity:1;stroke-miterlimit:4;" d="M 3763.556789 147.171528 L 3737.814846 134.743991 C 3737.304071 134.500654 3736.706231 134.500654 3736.195455 134.743991 L 3710.453512 147.171528 " transform="matrix(0.672996,0,0,0.674221,-2259.59612,-31.839411)"/>
<path style="fill:none;stroke-width:2;stroke-linecap:round;stroke-linejoin:round;stroke:rgb(72.156863%,75.294118%,80%);stroke-opacity:1;stroke-miterlimit:4;" d="M 3709.925323 161.852824 L 3709.925323 178.590892 C 3709.925323 178.944309 3710.128473 179.274551 3710.453512 179.430982 L 3736.195455 191.852726 C 3736.445038 191.974394 3736.723643 192.038125 3737.002248 192.038125 L 3737.002248 160.502887 L 3710.082039 147.50177 " transform="matrix(0.672996,0,0,0.674221,-2259.59612,-31.839411)"/>
<path style="fill:none;stroke-width:2;stroke-linecap:round;stroke-linejoin:round;stroke:rgb(72.156863%,75.294118%,80%);stroke-opacity:1;stroke-miterlimit:4;" d="M 3764.084978 162.542277 L 3764.084978 178.590892 C 3764.084978 178.944309 3763.876024 179.274551 3763.556789 179.430982 L 3737.814846 191.852726 C 3737.565263 191.974394 3737.286658 192.038125 3737.002248 192.038125 L 3737.002248 160.502887 L 3763.928262 147.50177 " transform="matrix(0.672996,0,0,0.674221,-2259.59612,-31.839411)"/>
<path style="fill:none;stroke-width:2;stroke-linecap:round;stroke-linejoin:round;stroke:rgb(72.156863%,75.294118%,80%);stroke-opacity:1;stroke-miterlimit:4;" d="M 3736.195455 134.743991 L 3746.712794 125.48562 L 3773.731676 138.53888 L 3763.934067 147.50177 " transform="matrix(0.672996,0,0,0.674221,-2259.59612,-31.839411)"/>
<path style="fill:none;stroke-width:2;stroke-linecap:round;stroke-linejoin:round;stroke:rgb(72.156863%,75.294118%,80%);stroke-opacity:1;stroke-miterlimit:4;" d="M 3737.002248 160.514474 L 3747.525392 169.772845 L 3774.544274 156.719585 L 3764.746665 147.756694 " transform="matrix(0.672996,0,0,0.674221,-2259.59612,-31.839411)"/>
<path style="fill:none;stroke-width:2;stroke-linecap:round;stroke-linejoin:round;stroke:rgb(72.156863%,75.294118%,80%);stroke-opacity:1;stroke-miterlimit:4;" d="M 3737.780021 134.743991 L 3727.262681 125.48562 L 3700.243799 138.53888 L 3710.041409 147.50177 " transform="matrix(0.672996,0,0,0.674221,-2259.59612,-31.839411)"/>
<path style="fill:none;stroke-width:2;stroke-linecap:round;stroke-linejoin:round;stroke:rgb(72.156863%,75.294118%,80%);stroke-opacity:1;stroke-miterlimit:4;" d="M 3737.002248 160.514474 L 3726.484909 169.772845 L 3699.466027 156.719585 L 3709.263637 147.756694 " transform="matrix(0.672996,0,0,0.674221,-2259.59612,-31.839411)"/>
<path style="fill-rule:nonzero;fill:rgb(100%,100%,100%);fill-opacity:1;stroke-width:2;stroke-linecap:butt;stroke-linejoin:miter;stroke:rgb(6.666667%,67.058824%,83.529412%);stroke-opacity:1;stroke-miterlimit:10;" d="M 29.802617 14.897963 C 29.802617 23.130844 23.127705 29.79942 14.897248 29.79942 C 6.672596 29.79942 -0.00231563 23.130844 -0.00231563 14.897963 C -0.00231563 6.670875 6.672596 0.00229911 14.897248 0.00229911 C 23.127705 0.00229911 29.802617 6.670875 29.802617 14.897963 Z M 29.802617 14.897963 " transform="matrix(0.672996,0,0,0.674221,245.36484,46.615637)"/>
<path style=" stroke:none;fill-rule:nonzero;fill:rgb(6.666667%,67.058824%,83.529412%);fill-opacity:1;" d="M 260.175781 55.535156 C 260.113281 55.339844 259.941406 55.199219 259.734375 55.179688 L 256.960938 54.929688 L 255.863281 52.355469 C 255.78125 52.167969 255.597656 52.042969 255.390625 52.042969 C 255.1875 52.042969 255 52.167969 254.921875 52.355469 L 253.824219 54.929688 L 251.046875 55.179688 C 250.84375 55.199219 250.671875 55.339844 250.605469 55.535156 C 250.542969 55.730469 250.601562 55.941406 250.757812 56.078125 L 252.855469 57.921875 L 252.234375 60.652344 C 252.191406 60.851562 252.269531 61.058594 252.4375 61.179688 C 252.601562 61.300781 252.824219 61.308594 253 61.203125 L 255.394531 59.769531 L 257.785156 61.203125 C 257.960938 61.308594 258.183594 61.300781 258.347656 61.179688 C 258.515625 61.058594 258.59375 60.851562 258.546875 60.652344 L 257.929688 57.921875 L 260.027344 56.078125 C 260.179688 55.941406 260.238281 55.726562 260.175781 55.535156 Z M 260.175781 55.535156 "/>
<path style=" stroke:none;fill-rule:nonzero;fill:rgb(94.117647%,95.686275%,96.862745%);fill-opacity:1;" d="M 73.71875 123.773438 L 134.527344 123.773438 C 135.992188 123.773438 137.183594 124.964844 137.183594 126.433594 C 137.183594 127.902344 135.992188 129.09375 134.527344 129.09375 L 73.71875 129.09375 C 72.25 129.09375 71.0625 127.902344 71.0625 126.433594 C 71.0625 124.964844 72.25 123.773438 73.71875 123.773438 Z M 73.71875 123.773438 "/>
<path style=" stroke:none;fill-rule:nonzero;fill:rgb(94.117647%,95.686275%,96.862745%);fill-opacity:1;" d="M 73.71875 112.988281 L 134.527344 112.988281 C 135.992188 112.988281 137.183594 114.179688 137.183594 115.648438 C 137.183594 117.117188 135.992188 118.308594 134.527344 118.308594 L 73.71875 118.308594 C 72.25 118.308594 71.0625 117.117188 71.0625 115.648438 C 71.0625 114.179688 72.25 112.988281 73.71875 112.988281 Z M 73.71875 112.988281 "/>
<path style=" stroke:none;fill-rule:nonzero;fill:rgb(94.117647%,95.686275%,96.862745%);fill-opacity:1;" d="M 150.269531 123.773438 L 211.078125 123.773438 C 212.546875 123.773438 213.734375 124.964844 213.734375 126.433594 C 213.734375 127.902344 212.546875 129.09375 211.078125 129.09375 L 150.269531 129.09375 C 148.800781 129.09375 147.613281 127.902344 147.613281 126.433594 C 147.613281 124.964844 148.800781 123.773438 150.269531 123.773438 Z M 150.269531 123.773438 "/>
<path style=" stroke:none;fill-rule:nonzero;fill:rgb(94.117647%,95.686275%,96.862745%);fill-opacity:1;" d="M 150.269531 112.988281 L 211.078125 112.988281 C 212.546875 112.988281 213.734375 114.179688 213.734375 115.648438 C 213.734375 117.117188 212.546875 118.308594 211.078125 118.308594 L 150.269531 118.308594 C 148.800781 118.308594 147.613281 117.117188 147.613281 115.648438 C 147.613281 114.179688 148.800781 112.988281 150.269531 112.988281 Z M 150.269531 112.988281 "/>
<path style=" stroke:none;fill-rule:nonzero;fill:rgb(94.117647%,95.686275%,96.862745%);fill-opacity:1;" d="M 225.578125 123.773438 L 286.386719 123.773438 C 287.855469 123.773438 289.042969 124.964844 289.042969 126.433594 C 289.042969 127.902344 287.855469 129.09375 286.386719 129.09375 L 225.578125 129.09375 C 224.113281 129.09375 222.921875 127.902344 222.921875 126.433594 C 222.921875 124.964844 224.113281 123.773438 225.578125 123.773438 Z M 225.578125 123.773438 "/>
<path style=" stroke:none;fill-rule:nonzero;fill:rgb(94.117647%,95.686275%,96.862745%);fill-opacity:1;" d="M 225.578125 112.988281 L 286.386719 112.988281 C 287.855469 112.988281 289.042969 114.179688 289.042969 115.648438 C 289.042969 117.117188 287.855469 118.308594 286.386719 118.308594 L 225.578125 118.308594 C 224.113281 118.308594 222.921875 117.117188 222.921875 115.648438 C 222.921875 114.179688 224.113281 112.988281 225.578125 112.988281 Z M 225.578125 112.988281 "/>
<path style=" stroke:none;fill-rule:nonzero;fill:rgb(100%,100%,100%);fill-opacity:1;" d="M 41.011719 45.863281 L 26.757812 49.226562 C 25.105469 49.617188 23.671875 50.648438 22.78125 52.09375 L 0.996094 87.363281 C 0.375 88.367188 0.6875 89.683594 1.6875 90.304688 L 25.277344 104.925781 C 26.277344 105.546875 27.59375 105.234375 28.214844 104.230469 L 49.996094 68.960938 C 50.886719 67.515625 51.171875 65.773438 50.78125 64.117188 L 47.425781 49.835938 C 46.746094 46.964844 43.878906 45.1875 41.011719 45.863281 Z M 42.574219 56.605469 C 41.644531 58.113281 39.671875 58.578125 38.167969 57.644531 C 36.667969 56.714844 36.203125 54.738281 37.132812 53.234375 C 38.0625 51.726562 40.035156 51.261719 41.535156 52.195312 C 43.039062 53.125 43.503906 55.101562 42.574219 56.605469 Z M 42.574219 56.605469 "/>
<path style=" stroke:none;fill-rule:nonzero;fill:rgb(91.764706%,93.72549%,95.686275%);fill-opacity:1;" d="M 3.933594 89.140625 L 25.714844 53.871094 C 26.605469 52.421875 28.035156 51.390625 29.6875 51 L 43.941406 47.636719 C 44.542969 47.5 45.160156 47.472656 45.769531 47.546875 C 44.578125 45.714844 43.261719 45.332031 41.011719 45.863281 L 26.757812 49.226562 C 25.105469 49.617188 23.671875 50.648438 22.78125 52.09375 L 0.996094 87.363281 C 0.375 88.367188 0.6875 89.683594 1.6875 90.304688 L 4.621094 92.078125 C 3.621094 91.457031 3.3125 90.144531 3.933594 89.140625 Z M 3.933594 89.140625 "/>
<path style="fill:none;stroke-width:2;stroke-linecap:round;stroke-linejoin:round;stroke:rgb(72.156863%,75.294118%,80%);stroke-opacity:1;stroke-miterlimit:4;" d="M 3418.458043 115.24811 L 3397.278257 120.236507 C 3394.823051 120.815879 3392.692883 122.345422 3391.369509 124.4891 L 3358.999089 176.800631 C 3358.07621 178.289618 3358.540552 180.242103 3360.026445 181.163305 L 3395.078439 202.849213 C 3396.564332 203.770415 3398.520371 203.306918 3399.443251 201.817931 L 3431.807867 149.506399 C 3433.13124 147.362721 3433.554952 144.77872 3432.974525 142.322181 L 3427.988656 121.140327 C 3426.978713 116.881941 3422.718378 114.245796 3418.458043 115.24811 Z M 3421.128008 131.395218 C 3419.624701 133.822789 3416.443961 134.570179 3414.017775 133.069605 C 3411.597394 131.56903 3410.848643 128.388276 3412.346145 125.966499 C 3413.843647 123.538929 3417.030192 122.791539 3419.450573 124.292113 C 3420.617232 125.010535 3421.447243 126.163486 3421.760673 127.496042 C 3422.074104 128.834393 3421.847737 130.236474 3421.128008 131.401012 Z M 3421.128008 131.395218 " transform="matrix(0.672996,0,0,0.674221,-2259.59612,-31.839411)"/>
<path style="fill-rule:nonzero;fill:rgb(100%,100%,100%);fill-opacity:1;stroke-width:2;stroke-linecap:butt;stroke-linejoin:miter;stroke:rgb(6.666667%,67.058824%,83.529412%);stroke-opacity:1;stroke-miterlimit:10;" d="M 0.00285149 0.00265835 L 5.58656 23.722163 " transform="matrix(0.672996,0,0,0.674221,25.287143,67.552895)"/>
<path style="fill-rule:nonzero;fill:rgb(100%,100%,100%);fill-opacity:1;stroke-width:2;stroke-linecap:butt;stroke-linejoin:miter;stroke:rgb(6.666667%,67.058824%,83.529412%);stroke-opacity:1;stroke-miterlimit:10;" d="M 8.184819 4.09282 C 8.184819 6.352372 6.350669 8.183189 4.092808 8.183189 C 1.834947 8.183189 0.000796826 6.352372 0.000796826 4.09282 C 0.000796826 1.833267 1.834947 0.00245063 4.092808 0.00245063 C 6.350669 0.00245063 8.184819 1.833267 8.184819 4.09282 Z M 8.184819 4.09282 " transform="matrix(0.672996,0,0,0.674221,18.104932,74.279598)"/>
<path style="fill-rule:nonzero;fill:rgb(100%,100%,100%);fill-opacity:1;stroke-width:2;stroke-linecap:butt;stroke-linejoin:miter;stroke:rgb(6.666667%,67.058824%,83.529412%);stroke-opacity:1;stroke-miterlimit:10;" d="M 8.185615 4.094002 C 8.185615 6.353554 6.351465 8.184371 4.093604 8.184371 C 1.829938 8.184371 0.00159267 6.353554 0.00159267 4.094002 C 0.00159267 1.83445 1.829938 -0.00216058 4.093604 -0.00216058 C 6.351465 -0.00216058 8.185615 1.83445 8.185615 4.094002 Z M 8.185615 4.094002 " transform="matrix(0.672996,0,0,0.674221,30.721584,71.302238)"/>
<path style="fill:none;stroke-width:2;stroke-linecap:round;stroke-linejoin:round;stroke:rgb(72.156863%,75.294118%,80%);stroke-opacity:1;stroke-miterlimit:4;" d="M 3434.355942 104.26321 C 3434.355942 104.26321 3438.610472 107.287534 3435.627077 111.783464 C 3432.069059 117.131071 3416.734174 128.683756 3416.734174 128.683756 L 3418.034331 124.112508 " transform="matrix(0.672996,0,0,0.674221,-2259.59612,-31.839411)"/>
<path style=" stroke:none;fill-rule:nonzero;fill:rgb(72.156863%,75.294118%,80%);fill-opacity:1;" d="M 53.507812 38.457031 C 53.507812 39.449219 52.703125 40.257812 51.710938 40.257812 C 50.71875 40.257812 49.914062 39.449219 49.914062 38.457031 C 49.914062 37.460938 50.71875 36.65625 51.710938 36.65625 C 52.703125 36.65625 53.507812 37.460938 53.507812 38.457031 Z M 53.507812 38.457031 "/>
</g>
</svg>
