<svg width="105" height="108" viewBox="0 0 105 108" fill="none" xmlns="http://www.w3.org/2000/svg">
<path d="M51 103C79.1665 103 102 80.1665 102 52C102 23.8335 79.1665 1 51 1C22.8335 1 0 23.8335 0 52C0 80.1665 22.8335 103 51 103Z" fill="#F0F4F7"/>
<path d="M50.5 80C66.2401 80 79 67.2401 79 51.5C79 35.7599 66.2401 23 50.5 23C34.7599 23 22 35.7599 22 51.5C22 67.2401 34.7599 80 50.5 80Z" fill="white" stroke="#B8C0CC" stroke-width="1.88" stroke-miterlimit="10"/>
<path d="M50 28V52L62 41.7896" stroke="#B8C0CC" stroke-width="1.88" stroke-linecap="round" stroke-linejoin="round"/>
<path d="M58.1022 65.7627C58.1022 69.8017 54.8279 73.076 50.7889 73.076C46.7499 73.076 43.4756 69.8017 43.4756 65.7627C43.4756 61.7237 46.7499 58.4494 50.7889 58.4494C54.8279 58.4494 58.1022 61.7237 58.1022 65.7627Z" fill="white" stroke="#B8C0CC" stroke-width="1.88"/>
<path d="M62.1313 75.991C63.5674 76.8795 65.3036 78.5668 66.4876 81.8147H35.048C35.0611 81.7761 35.0745 81.7366 35.0884 81.6965C35.3576 80.9181 35.7794 79.8891 36.3906 78.8682C37.626 76.8044 39.5122 74.956 42.3423 74.956H59.2845C59.2892 74.9563 59.295 74.9568 59.3019 74.9573C59.3315 74.9598 59.3816 74.9647 59.4498 74.9738C59.5863 74.9921 59.7946 75.0274 60.057 75.0945C60.582 75.2286 61.3195 75.4888 62.1313 75.991Z" fill="white" stroke="#B8C0CC" stroke-width="1.88"/>
<path d="M31.014 107.06H31.0137C30.7017 107.06 30.396 106.939 30.1589 106.713C29.921 106.487 29.7697 106.171 29.7434 105.826L27.9441 82.2308V82.2306C27.9297 82.0421 27.9534 81.853 28.0131 81.6755C28.0729 81.498 28.167 81.337 28.288 81.2021C28.409 81.0673 28.5541 80.9615 28.7133 80.8899C28.8723 80.8182 29.0428 80.7817 29.2144 80.7818H29.2147H72.3664H72.3665C72.5391 80.7818 72.7106 80.8188 72.8704 80.8915C73.0303 80.9642 73.1758 81.0715 73.2966 81.208C73.4175 81.3447 73.5109 81.5076 73.5692 81.6868C73.6275 81.8662 73.649 82.0568 73.632 82.2462L73.6319 82.2473L71.5338 105.843H71.5337C71.5035 106.184 71.351 106.496 71.1139 106.719C70.8776 106.941 70.5745 107.06 70.2652 107.06H31.014Z" fill="white" stroke="#EC008C" stroke-width="1.88"/>
<path d="M50.8868 96.7736C52.4811 96.7736 53.7736 95.4811 53.7736 93.8868C53.7736 92.2925 52.4811 91 50.8868 91C49.2925 91 48 92.2925 48 93.8868C48 95.4811 49.2925 96.7736 50.8868 96.7736Z" fill="#B8C0CC"/>
</svg>
