<svg width="61" height="61" viewBox="0 0 61 61" fill="none" xmlns="http://www.w3.org/2000/svg">
<path d="M30.8955 52.493C44.9659 52.493 56.3721 41.0868 56.3721 27.0164C56.3721 12.9461 44.9659 1.53986 30.8955 1.53986C16.8252 1.53986 5.41891 12.9461 5.41891 27.0164C5.41891 41.0868 16.8252 52.493 30.8955 52.493Z" fill="#F0F4F7"/>
<rect x="25.404" y="15.1052" width="19.7648" height="30.2187" rx="2.06" fill="white" stroke="#B8C0CC" stroke-width="1.88"/>
<rect x="28.928" y="21.3266" width="3.97199" height="4.00244" rx="1" fill="#EAEFF4"/>
<rect x="34.1917" y="22.4656" width="7.45892" height="1.5557" rx="0.777848" fill="#EAEFF4"/>
<rect x="34.1917" y="28.6912" width="7.45892" height="1.5557" rx="0.777848" fill="#EAEFF4"/>
<rect x="34.1917" y="35.2656" width="7.45892" height="1.5557" rx="0.777848" fill="#EAEFF4"/>
<rect x="28.928" y="27.4936" width="3.97199" height="4.00244" rx="1" fill="#EAEFF4"/>
<rect x="28.928" y="33.8452" width="3.97199" height="4.00244" rx="1" fill="#EAEFF4"/>
<rect x="16.94" y="21.0434" width="19.7648" height="30.2187" rx="2.06" fill="white" stroke="#B8C0CC" stroke-width="1.88"/>
<rect x="20.464" y="27.2648" width="3.97199" height="4.00244" rx="1" fill="#EAEFF4"/>
<rect x="25.7277" y="28.4038" width="7.45892" height="1.5557" rx="0.777848" fill="#EC008C"/>
<rect x="25.7277" y="34.6294" width="7.45892" height="1.5557" rx="0.777848" fill="#EC008C"/>
<rect x="25.7277" y="41.2039" width="7.45892" height="1.5557" rx="0.777848" fill="#EC008C"/>
<rect x="20.464" y="33.4318" width="3.97199" height="4.00244" rx="1" fill="#EAEFF4"/>
<rect x="20.464" y="39.7834" width="3.97199" height="4.00244" rx="1" fill="#EAEFF4"/>
</svg>
