<svg width="61" height="60" viewBox="0 0 61 60" fill="none" xmlns="http://www.w3.org/2000/svg">
<path d="M31.6209 51.8149C45.6913 51.8149 57.0975 40.4954 57.0975 26.5321C57.0975 12.5688 45.6913 1.24927 31.6209 1.24927C17.5506 1.24927 6.14435 12.5688 6.14435 26.5321C6.14435 40.4954 17.5506 51.8149 31.6209 51.8149Z" fill="#F0F4F7"/>
<path d="M30.8881 33C35.0302 33 38.3881 29.6421 38.3881 25.5C38.3881 21.3579 35.0302 18 30.8881 18C26.7459 18 23.3881 21.3579 23.3881 25.5C23.3881 29.6421 26.7459 33 30.8881 33Z" fill="white" stroke="#B8C0CC" stroke-width="1.88" stroke-miterlimit="10"/>
<path d="M32.7658 38.1111L33.3881 35H31.3436H29.3881L30.0103 38.1111L30.8992 38.6667L29.6547 42.6667L31.3436 47L33.1214 42.6667L31.8769 38.6667L32.7658 38.1111Z" fill="#B8C0CC"/>
<path d="M25.6421 37C25.6421 43.8891 30.2396 48.8777 31.7721 48.8777C33.3046 48.8777 38.1772 40.9592 37.9611 37C46.3545 39.6725 47.7062 47.6157 47.3329 51.2533C45.1717 52.1688 39.0338 54 31.7721 54C24.5104 54 18.4903 52.1688 16.3881 51.2533C16.3881 42.5825 22.5574 38.1383 25.6421 37Z" fill="white" stroke="#B8C0CC" stroke-width="1.88" stroke-linecap="round" stroke-linejoin="round"/>
</svg>
