<svg width="61" height="60" viewBox="0 0 61 60" fill="none" xmlns="http://www.w3.org/2000/svg">
<path d="M31.4644 51.8149C45.5347 51.8149 56.941 40.4954 56.941 26.5321C56.941 12.5688 45.5347 1.24927 31.4644 1.24927C17.394 1.24927 5.98776 12.5688 5.98776 26.5321C5.98776 40.4954 17.394 51.8149 31.4644 51.8149Z" fill="#F0F4F7"/>
<rect x="27.3281" y="12.94" width="17.12" height="41.12" rx="1.06" fill="white" stroke="#B8C0CC" stroke-width="1.88"/>
<rect x="30.3881" y="17" width="4.58861" height="4.58861" rx="1" fill="#EAEFF4"/>
<rect x="30.3881" y="26" width="4.58861" height="4.58861" rx="1" fill="#EAEFF4"/>
<rect x="30.3881" y="35" width="4.58861" height="4.58861" rx="1" fill="#EAEFF4"/>
<rect x="30.3881" y="44" width="4.58861" height="4.58861" rx="1" fill="#EAEFF4"/>
<rect x="36.1812" y="17" width="4.58861" height="4.58861" rx="1" fill="#EAEFF4"/>
<rect x="36.1812" y="26" width="4.58861" height="4.58861" rx="1" fill="#EAEFF4"/>
<rect x="36.1812" y="35" width="4.58861" height="4.58861" rx="1" fill="#EAEFF4"/>
<rect x="36.1812" y="44" width="4.58861" height="4.58861" rx="1" fill="#EAEFF4"/>
<rect x="17.3881" y="33" width="14" height="21" rx="1" fill="white" stroke="#B8C0CC" stroke-width="1.88"/>
<rect x="20.3881" y="47" width="3" height="3" rx="0.7" fill="#EAEFF4"/>
<rect x="20.3881" y="42" width="3" height="3" rx="0.7" fill="#EAEFF4"/>
<rect x="20.3881" y="37" width="3" height="3" rx="0.7" fill="#EAEFF4"/>
<rect x="25.3881" y="47" width="3" height="3" rx="0.7" fill="#EAEFF4"/>
<rect x="25.3881" y="42" width="3" height="3" rx="0.7" fill="#EAEFF4"/>
<rect x="25.3881" y="37" width="3" height="3" rx="0.7" fill="#EAEFF4"/>
</svg>
