<svg width="61" height="60" viewBox="0 0 61 60" fill="none" xmlns="http://www.w3.org/2000/svg">
<path d="M31.0986 51.8149C45.169 51.8149 56.5752 40.4954 56.5752 26.5321C56.5752 12.5688 45.169 1.24927 31.0986 1.24927C17.0283 1.24927 5.62204 12.5688 5.62204 26.5321C5.62204 40.4954 17.0283 51.8149 31.0986 51.8149Z" fill="#F0F4F7"/>
<path d="M15.5517 27.8193C15.3569 27.1417 15.8655 26.4664 16.5705 26.4664H49.8226C50.5128 26.4664 51.0189 27.1156 50.8505 27.785L45.5937 48.6797C45.4752 49.1509 45.0516 49.4811 44.5658 49.4811H22.5783C22.1056 49.4811 21.6901 49.1682 21.5595 48.714L15.5517 27.8193Z" fill="white" stroke="#B8C0CC" stroke-width="1.88"/>
<path d="M16.1775 29.4868L13.9144 22.1316L9.38806 21" stroke="#B8C0CC" stroke-width="1.88" stroke-linecap="round"/>
<path d="M44.467 26.658L38.8091 49.2895" stroke="#B8C0CC" stroke-width="1.88"/>
<path d="M27.4933 49.2896L21.8354 26.658" stroke="#B8C0CC" stroke-width="1.88"/>
<path d="M33.1512 26.658V49.2895" stroke="#B8C0CC" stroke-width="1.88"/>
<path d="M48.9933 34.5789H17.3091" stroke="#B8C0CC" stroke-width="1.88"/>
<path d="M46.7302 42.5H19.5723" stroke="#B8C0CC" stroke-width="1.88"/>
<circle cx="26.3617" cy="52.6843" r="2.45474" fill="white" stroke="#B8C0CC" stroke-width="1.88"/>
<circle cx="41.0723" cy="52.6843" r="2.45474" fill="white" stroke="#B8C0CC" stroke-width="1.88"/>
</svg>
