<svg width="60" height="60" viewBox="0 0 60 60" fill="none" xmlns="http://www.w3.org/2000/svg">
<g clip-path="url(#clip0)">
<path d="M31.0763 51.8149C45.1466 51.8149 56.5529 40.4954 56.5529 26.5321C56.5529 12.5688 45.1466 1.24927 31.0763 1.24927C17.006 1.24927 5.5997 12.5688 5.5997 26.5321C5.5997 40.4954 17.006 51.8149 31.0763 51.8149Z" fill="#F0F4F7"/>
<rect x="10.7562" y="22" width="39.1994" height="24.3335" rx="2" fill="white" stroke="#B8C0CC" stroke-width="1.88"/>
<rect x="28.4895" y="47.4172" width="3.44498" height="6.02889" fill="#B8C0CC"/>
<rect x="21.9736" y="56" width="2.84665" height="16.4765" rx="1.32776" transform="rotate(-90 21.9736 56)" fill="#B8C0CC"/>
<path d="M22.6825 33.821C24.8022 33.821 26.5206 32.1346 26.5206 30.0544C26.5206 27.9742 24.8022 26.2878 22.6825 26.2878C20.5628 26.2878 18.8444 27.9742 18.8444 30.0544C18.8444 32.1346 20.5628 33.821 22.6825 33.821Z" fill="white" stroke="#B8C0CC" stroke-width="1.88"/>
<path d="M27.7062 41.4833C27.8952 41.485 28.0822 41.4451 28.2534 41.3667C28.4245 41.2883 28.5755 41.1733 28.695 41.0302C28.8146 40.8871 28.8998 40.7197 28.9443 40.5401C28.9888 40.3606 28.9913 40.1736 28.9521 39.9929C28.6085 38.5856 27.7896 37.3323 26.6276 36.4357C25.4657 35.5392 24.0284 35.0515 22.5479 35.0515C21.0674 35.0515 19.6301 35.5392 18.4681 36.4357C17.3061 37.3323 16.4873 38.5856 16.1437 39.9929C16.1044 40.1736 16.107 40.3606 16.1514 40.5401C16.1959 40.7197 16.2812 40.8871 16.4007 41.0302C16.5203 41.1733 16.6713 41.2883 16.8424 41.3667C17.0135 41.4451 17.2005 41.485 17.3895 41.4833H27.7062Z" fill="white" stroke="#B8C0CC" stroke-width="1.88"/>
<path d="M31.6096 29.3601H45.103" stroke="#B8C0CC" stroke-width="1.88" stroke-linecap="round"/>
<path d="M35.903 33.6533H44.4897" stroke="#B8C0CC" stroke-width="1.88" stroke-linecap="round"/>
<path d="M40.8097 38.5601H44.4897" stroke="#B8C0CC" stroke-width="1.88" stroke-linecap="round"/>
</g>
<defs>
<clipPath id="clip0">
<rect width="60" height="60" fill="white"/>
</clipPath>
</defs>
</svg>
