<svg width="82" height="82" viewBox="0 0 82 82" fill="none" xmlns="http://www.w3.org/2000/svg">
<path d="M41 81C63.0914 81 81 63.0914 81 41C81 18.9086 63.0914 1 41 1C18.9086 1 1 18.9086 1 41C1 63.0914 18.9086 81 41 81Z" stroke="#B8C0CC" stroke-width="1.88" stroke-linecap="round" stroke-linejoin="round"/>
<path d="M36.9358 29.9838L23.2727 52.0191H50.2695L36.9358 29.9838Z" stroke="#53A1FF" stroke-width="1.88" stroke-linecap="round" stroke-linejoin="round"/>
<path d="M50.2695 52.0188H56.9212L47.5469 36.5255L44.2981 41.7661" stroke="#53A1FF" stroke-width="1.88" stroke-linecap="round" stroke-linejoin="round"/>
<path d="M54.8222 31.376C57.0654 31.376 58.8839 29.5575 58.8839 27.3143C58.8839 25.0711 57.0654 23.2526 54.8222 23.2526C52.579 23.2526 50.7605 25.0711 50.7605 27.3143C50.7605 29.5575 52.579 31.376 54.8222 31.376Z" stroke="#53A1FF" stroke-width="1.88" stroke-linecap="round" stroke-linejoin="round"/>
<path d="M21.4893 59.019H59.9279" stroke="#53A1FF" stroke-width="1.88" stroke-linecap="round" stroke-linejoin="round"/>
</svg>
