<svg width="54" height="61" viewBox="0 0 54 61" fill="none" xmlns="http://www.w3.org/2000/svg">
<rect width="2.99762" height="14.9881" rx="1.49881" transform="matrix(0.697704 0.716387 -0.697704 0.716387 37.3376 14.4253)" fill="#53A1FF"/>
<path d="M18.3224 5.56903C19.0375 4.82172 20.1956 4.82172 20.9107 5.56903C31.1607 16.2798 37.6952 23.1089 48.0148 33.8956C48.3577 34.2552 48.5505 34.7411 48.5505 35.2486C48.5505 35.7562 48.3577 36.2434 48.0148 36.6017C45.0507 39.6994 41.2628 41.7666 37.0614 42.5802C35.7398 42.8353 34.4084 42.9628 33.0844 42.9628C32.5649 42.9628 31.8609 42.9196 31.0991 42.8167C30.0389 42.6734 28.3796 44.4697 28.8466 45.4322L32.2765 52.5033C32.4415 52.8434 32.7839 53.061 33.1609 53.0667L36.1864 53.0669H33.1763C33.1711 53.0669 33.166 53.0668 33.1609 53.0667L3.15405 53.0656H6.09951C6.51538 53.0656 6.88785 52.8082 7.03491 52.4192L11.352 40.999C12.3035 38.6577 18.3266 39.4671 19.3409 38.3317C19.5146 38.1373 19.3837 37.8578 19.2032 37.6697C16.4142 34.7643 14.7144 32.3319 13.4705 28.6376C10.77 20.6173 12.6395 11.508 18.3224 5.56903Z" fill="#FCFDFF" stroke="#B8C0CC" stroke-width="2" stroke-linecap="round" stroke-linejoin="round"/>
<path d="M23.183 46.554C27.4355 46.554 30.838 43.0219 30.838 38.7208C30.838 34.4198 27.4355 30.8877 23.183 30.8877C18.9306 30.8877 15.5281 34.4198 15.5281 38.7208C15.5281 43.0219 18.9306 46.554 23.183 46.554Z" stroke="#FCFDFF" stroke-width="2"/>
<path d="M28.838 38.7208C28.838 41.9675 26.2814 44.554 23.183 44.554C20.0846 44.554 17.5281 41.9675 17.5281 38.7208C17.5281 35.4742 20.0846 32.8877 23.183 32.8877C26.2814 32.8877 28.838 35.4742 28.838 38.7208Z" fill="#FCFDFF" stroke="#53A1FF" stroke-width="2"/>
<path d="M36.224 60C37.4309 60 38.4132 58.9734 38.4132 57.7122C38.4132 56.4496 37.4309 55.423 36.224 55.4243H3.18922C1.98234 55.4243 1 56.4509 1 57.7122C1 58.9734 1.98112 60 3.18922 60H36.224Z" fill="#FCFDFF" stroke="#B8C0CC" stroke-width="2" stroke-linecap="round"/>
<path d="M44.1813 16.2012C44.1813 12.7042 41.4487 9.78385 37.9974 9.78385C37.5804 9.78385 37.167 9.41656 37.167 8.87093C37.167 8.32529 37.5804 7.95801 37.9974 7.95801C42.2805 7.95801 45.8422 11.6143 45.8422 16.2012C45.8422 16.7469 45.4288 17.1142 45.0117 17.1142C44.5947 17.1142 44.1813 16.7469 44.1813 16.2012Z" fill="#FCFDFF" stroke="#3DE0BF" stroke-width="2"/>
<path d="M37.167 1.91292C37.167 1.36728 37.5804 1 37.9974 1C45.9523 1 52.5002 7.77812 52.5002 16.2012C52.5002 16.7468 52.0868 17.1141 51.6697 17.1141C51.2526 17.1141 50.8392 16.7468 50.8392 16.2012C50.8392 8.86684 45.1206 2.82584 37.9974 2.82584C37.5804 2.82584 37.167 2.45856 37.167 1.91292Z" fill="#FCFDFF" stroke="#3DE0BF" stroke-width="2"/>
</svg>
