<svg width="930" height="428" viewBox="0 0 930 428" fill="none" xmlns="http://www.w3.org/2000/svg">
<path opacity="0.18" d="M24.7761 428L867.374 427.784C867.374 427.784 867.89 427.311 868.84 426.396C869.211 426.036 869.655 425.594 870.161 425.091C871.493 423.765 873.248 421.955 875.302 419.704C876.107 418.83 876.954 417.884 877.831 416.877C881.785 412.385 886.523 406.597 891.416 399.699C892.635 397.982 893.863 396.204 895.091 394.353C895.143 394.281 895.195 394.199 895.246 394.127C895.649 393.521 896.052 392.904 896.464 392.277C897.063 391.352 897.662 390.416 898.25 389.47C900.429 385.975 902.596 382.285 904.671 378.399C904.806 378.152 904.929 377.916 905.064 377.669C906.509 374.945 907.923 372.128 909.276 369.229C909.389 368.982 909.503 368.746 909.616 368.499C909.771 368.16 909.926 367.81 910.091 367.471C910.225 367.173 910.359 366.885 910.483 366.587C910.814 365.847 911.134 365.107 911.454 364.356C911.485 364.284 911.516 364.212 911.547 364.14C911.64 363.935 911.732 363.719 911.815 363.513C912.806 361.159 913.766 358.753 914.664 356.307C915.098 355.135 915.521 353.953 915.924 352.76C917.689 347.6 919.227 342.244 920.445 336.713C921.323 332.745 922.035 328.695 922.561 324.562C922.572 324.5 922.572 324.428 922.582 324.367C923.346 318.322 923.718 312.092 923.594 305.719C923.057 277.788 913.126 246.999 886.43 215.532C872.845 199.525 858.888 186.305 844.745 175.583C838.758 171.05 832.74 166.948 826.701 163.278C796.577 144.959 765.907 137.105 736.311 136.776C735.113 136.766 733.926 136.766 732.729 136.766C697.785 137.095 664.451 138.7 635.423 154.932C616.83 165.325 576.735 172.849 531.355 146.984C525.419 143.602 519.4 139.809 513.31 135.563C498.248 125.057 482.846 111.837 467.681 95.4809C466.742 94.4735 465.813 93.4558 464.884 92.4175C457.719 84.5018 450.607 75.8768 443.618 66.5014C443.484 66.3164 443.35 66.1416 443.205 65.9566C441.006 63.037 438.694 60.2306 436.268 57.5166C381.4 -3.96844 270.602 -13.9093 181.275 17.0029C175.154 19.1206 169.125 21.4336 163.23 23.9317C142.316 32.7931 122.98 44.0395 106.339 57.5064C102.974 60.2306 99.7121 63.0473 96.5739 65.9463C87.7991 74.0676 79.9638 82.8981 73.2538 92.4072C72.5414 93.4249 71.8395 94.4426 71.1479 95.4706C48.2717 129.652 39.9718 172.263 55.2192 222.049C86.2093 323.215 -39.052 326.896 24.7761 428Z" fill="#DFE3E8"/>
<mask id="mask0" mask-type="alpha" maskUnits="userSpaceOnUse" x="6" y="0" width="918" height="428">
<path d="M24.7761 428L867.374 427.784C867.374 427.784 867.89 427.311 868.84 426.396C869.211 426.036 869.655 425.594 870.161 425.091C871.493 423.765 873.248 421.955 875.302 419.704C876.107 418.83 876.954 417.884 877.831 416.877C881.785 412.385 886.523 406.597 891.416 399.699C892.635 397.982 893.863 396.204 895.091 394.353C895.143 394.281 895.195 394.199 895.246 394.127C895.649 393.521 896.052 392.904 896.464 392.277C897.063 391.352 897.662 390.416 898.25 389.47C900.429 385.975 902.596 382.285 904.671 378.399C904.806 378.152 904.929 377.916 905.064 377.669C906.509 374.945 907.923 372.128 909.276 369.229C909.389 368.982 909.503 368.746 909.616 368.499C909.771 368.16 909.926 367.81 910.091 367.471C910.225 367.173 910.359 366.885 910.483 366.587C910.814 365.847 911.134 365.107 911.454 364.356C911.485 364.284 911.516 364.212 911.547 364.14C911.64 363.935 911.732 363.719 911.815 363.513C912.806 361.159 913.766 358.753 914.664 356.307C915.098 355.135 915.521 353.953 915.924 352.76C917.689 347.6 919.227 342.244 920.445 336.713C921.323 332.745 922.035 328.695 922.561 324.562C922.572 324.5 922.572 324.428 922.582 324.367C923.346 318.322 923.718 312.092 923.594 305.719C923.057 277.788 913.126 246.999 886.43 215.532C872.845 199.525 858.888 186.305 844.745 175.583C838.758 171.05 832.74 166.948 826.701 163.278C796.577 144.959 765.907 137.105 736.311 136.776C735.113 136.766 733.926 136.766 732.729 136.766C697.785 137.095 664.451 138.7 635.423 154.932C616.83 165.325 576.735 172.849 531.355 146.984C525.419 143.602 519.4 139.809 513.31 135.563C498.248 125.057 482.846 111.837 467.681 95.4809C466.742 94.4735 465.813 93.4558 464.884 92.4175C457.719 84.5018 450.607 75.8768 443.618 66.5014C443.484 66.3164 443.35 66.1416 443.205 65.9566C441.006 63.037 438.694 60.2306 436.268 57.5166C381.4 -3.96844 270.602 -13.9093 181.275 17.0029C175.154 19.1206 169.125 21.4336 163.23 23.9317C142.316 32.7931 122.98 44.0395 106.339 57.5064C102.974 60.2306 99.7121 63.0473 96.5739 65.9463C87.7991 74.0676 79.9638 82.8981 73.2538 92.4072C72.5414 93.4249 71.8395 94.4426 71.1479 95.4706C48.2717 129.652 39.9718 172.263 55.2192 222.049C86.2093 323.215 -39.052 326.896 24.7761 428Z" fill="#C4C4C4"/>
</mask>
<g mask="url(#mask0)">
<path d="M422.42 281.151V241.521H379.73V211.029H337.051V260.279H298.427V227.109H257.14V160.476H214.461V191.461H172.478V280.106H131.815V238.89H89.1248V303.656H49.5462V184.649H6.86768V423.45H294.361H298.427H464.875V281.151H422.42Z" fill="#DFE3E8" fill-opacity="0.8"/>
<path d="M25.4533 190.698H12.7012V203.407H25.4533V190.698Z" fill="#FCFDFF" fill-opacity="0.5"/>
<path d="M44.1115 207.741H31.3594V220.45H44.1115V207.741Z" fill="#FCFDFF" fill-opacity="0.5"/>
<path d="M44.1115 224.784H31.3594V237.492H44.1115V224.784Z" fill="#FCFDFF" fill-opacity="0.5"/>
<path d="M44.1115 258.881H31.3594V271.59H44.1115V258.881Z" fill="#FCFDFF" fill-opacity="0.5"/>
<path opacity="0.4" d="M25.4533 275.924H12.7012V288.633H25.4533V275.924Z" fill="#FCFDFF" fill-opacity="0.5"/>
<path opacity="0.4" d="M25.4533 292.967H12.7012V305.676H25.4533V292.967Z" fill="#FCFDFF" fill-opacity="0.5"/>
<path d="M44.1115 310.01H31.3594V322.719H44.1115V310.01Z" fill="#FCFDFF" fill-opacity="0.5"/>
<path opacity="0.4" d="M25.4533 327.053H12.7012V339.762H25.4533V327.053Z" fill="#FCFDFF" fill-opacity="0.5"/>
<path d="M44.1115 327.053H31.3594V339.762H44.1115V327.053Z" fill="#FCFDFF" fill-opacity="0.5"/>
<path d="M25.4533 361.151H12.7012V373.86H25.4533V361.151Z" fill="#FCFDFF" fill-opacity="0.5"/>
<path d="M44.1115 378.194H31.3594V390.903H44.1115V378.194Z" fill="#FCFDFF" fill-opacity="0.5"/>
<path d="M44.1115 395.237H31.3594V407.946H44.1115V395.237Z" fill="#FCFDFF" fill-opacity="0.5"/>
<path d="M85.4704 327.053H72.7183V339.762H85.4704V327.053Z" fill="#FCFDFF" fill-opacity="0.5"/>
<path d="M66.8127 344.108H54.0605V356.817H66.8127V344.108Z" fill="#FCFDFF" fill-opacity="0.5"/>
<path d="M85.4704 361.151H72.7183V373.86H85.4704V361.151Z" fill="#FCFDFF" fill-opacity="0.5"/>
<path d="M66.8127 378.194H54.0605V390.903H66.8127V378.194Z" fill="#FCFDFF" fill-opacity="0.5"/>
<path d="M85.4704 395.237H72.7183V407.946H85.4704V395.237Z" fill="#FCFDFF" fill-opacity="0.5"/>
<path d="M108.182 258.881H95.4302V271.59H108.182V258.881Z" fill="#FCFDFF" fill-opacity="0.5"/>
<path d="M126.841 258.881H114.088V271.59H126.841V258.881Z" fill="#FCFDFF" fill-opacity="0.5"/>
<path opacity="0.4" d="M126.841 275.924H114.088V288.633H126.841V275.924Z" fill="#FCFDFF" fill-opacity="0.5"/>
<path d="M108.182 292.967H95.4302V305.676H108.182V292.967Z" fill="#FCFDFF" fill-opacity="0.5"/>
<path d="M126.841 310.01H114.088V322.719H126.841V310.01Z" fill="#FCFDFF" fill-opacity="0.5"/>
<path d="M108.182 344.108H95.4302V356.817H108.182V344.108Z" fill="#FCFDFF" fill-opacity="0.5"/>
<path d="M126.841 361.151H114.088V373.86H126.841V361.151Z" fill="#FCFDFF" fill-opacity="0.5"/>
<path d="M108.182 378.194H95.4302V390.903H108.182V378.194Z" fill="#FCFDFF" fill-opacity="0.5"/>
<path d="M126.841 395.237H114.088V407.946H126.841V395.237Z" fill="#FCFDFF" fill-opacity="0.5"/>
<path d="M168.199 310.01H155.447V322.719H168.199V310.01Z" fill="#FCFDFF" fill-opacity="0.5"/>
<path opacity="0.4" d="M168.199 344.108H155.447V356.817H168.199V344.108Z" fill="#FCFDFF" fill-opacity="0.5"/>
<path d="M149.541 361.151H136.789V373.86H149.541V361.151Z" fill="#FCFDFF" fill-opacity="0.5"/>
<path d="M168.199 378.194H155.447V390.903H168.199V378.194Z" fill="#FCFDFF" fill-opacity="0.5"/>
<path d="M149.541 395.237H136.789V407.946H149.541V395.237Z" fill="#FCFDFF" fill-opacity="0.5"/>
<path d="M190.899 207.741H178.147V220.45H190.899V207.741Z" fill="#FCFDFF" fill-opacity="0.5"/>
<path opacity="0.4" d="M209.557 224.784H196.805V237.492H209.557V224.784Z" fill="#FCFDFF" fill-opacity="0.5"/>
<path opacity="0.4" d="M190.899 241.826H178.147V254.535H190.899V241.826Z" fill="#FCFDFF" fill-opacity="0.5"/>
<path d="M190.899 258.881H178.147V271.59H190.899V258.881Z" fill="#FCFDFF" fill-opacity="0.5"/>
<path d="M209.557 275.924H196.805V288.633H209.557V275.924Z" fill="#FCFDFF" fill-opacity="0.5"/>
<path opacity="0.4" d="M190.899 292.967H178.147V305.676H190.899V292.967Z" fill="#FCFDFF" fill-opacity="0.5"/>
<path opacity="0.4" d="M190.899 344.108H178.147V356.817H190.899V344.108Z" fill="#FCFDFF" fill-opacity="0.5"/>
<path d="M190.899 378.194H178.147V390.903H190.899V378.194Z" fill="#FCFDFF" fill-opacity="0.5"/>
<path d="M209.557 378.194H196.805V390.903H209.557V378.194Z" fill="#FCFDFF" fill-opacity="0.5"/>
<path d="M209.557 395.237H196.805V407.946H209.557V395.237Z" fill="#FCFDFF" fill-opacity="0.5"/>
<path d="M250.927 165.75H238.175V178.459H250.927V165.75Z" fill="#FCFDFF" fill-opacity="0.5"/>
<path d="M232.27 182.793H219.518V195.502H232.27V182.793Z" fill="#FCFDFF" fill-opacity="0.5"/>
<path opacity="0.4" d="M250.927 199.836H238.175V212.545H250.927V199.836Z" fill="#FCFDFF" fill-opacity="0.5"/>
<path d="M250.927 216.879H238.175V229.587H250.927V216.879Z" fill="#FCFDFF" fill-opacity="0.5"/>
<path d="M232.27 233.934H219.518V246.642H232.27V233.934Z" fill="#FCFDFF" fill-opacity="0.5"/>
<path opacity="0.4" d="M250.927 250.976H238.175V263.685H250.927V250.976Z" fill="#FCFDFF" fill-opacity="0.5"/>
<path d="M232.27 361.151H219.518V373.86H232.27V361.151Z" fill="#FCFDFF" fill-opacity="0.5"/>
<path d="M232.27 378.194H219.518V390.903H232.27V378.194Z" fill="#FCFDFF" fill-opacity="0.5"/>
<path d="M250.927 395.237H238.175V407.946H250.927V395.237Z" fill="#FCFDFF" fill-opacity="0.5"/>
<path d="M313.101 275.924H300.349V288.633H313.101V275.924Z" fill="#FCFDFF" fill-opacity="0.5"/>
<path opacity="0.4" d="M331.759 275.924H319.006V288.633H331.759V275.924Z" fill="#FCFDFF" fill-opacity="0.5"/>
<path d="M331.759 292.967H319.006V305.676H331.759V292.967Z" fill="#FCFDFF" fill-opacity="0.5"/>
<path d="M313.101 310.01H300.349V322.719H313.101V310.01Z" fill="#FCFDFF" fill-opacity="0.5"/>
<path opacity="0.4" d="M313.101 327.053H300.349V339.762H313.101V327.053Z" fill="#FCFDFF" fill-opacity="0.5"/>
<path d="M331.759 344.108H319.006V356.817H331.759V344.108Z" fill="#FCFDFF" fill-opacity="0.5"/>
<path d="M313.101 378.194H300.349V390.903H313.101V378.194Z" fill="#FCFDFF" fill-opacity="0.5"/>
<path d="M331.759 395.237H319.006V407.946H331.759V395.237Z" fill="#FCFDFF" fill-opacity="0.5"/>
<path d="M373.589 224.784H360.836V237.492H373.589V224.784Z" fill="#FCFDFF" fill-opacity="0.5"/>
<path d="M354.931 241.826H342.179V254.535H354.931V241.826Z" fill="#FCFDFF" fill-opacity="0.5"/>
<path d="M354.931 258.881H342.179V271.59H354.931V258.881Z" fill="#FCFDFF" fill-opacity="0.5"/>
<path opacity="0.4" d="M373.589 275.924H360.836V288.633H373.589V275.924Z" fill="#FCFDFF" fill-opacity="0.5"/>
<path d="M354.931 292.967H342.179V305.676H354.931V292.967Z" fill="#FCFDFF" fill-opacity="0.5"/>
<path d="M373.589 310.01H360.836V322.719H373.589V310.01Z" fill="#FCFDFF" fill-opacity="0.5"/>
<path d="M354.931 327.053H342.179V339.762H354.931V327.053Z" fill="#FCFDFF" fill-opacity="0.5"/>
<path d="M373.589 361.151H360.836V373.86H373.589V361.151Z" fill="#FCFDFF" fill-opacity="0.5"/>
<path d="M396.761 258.881H384.009V271.59H396.761V258.881Z" fill="#FCFDFF" fill-opacity="0.5"/>
<path d="M415.419 275.924H402.667V288.633H415.419V275.924Z" fill="#FCFDFF" fill-opacity="0.5"/>
<path opacity="0.4" d="M415.419 292.967H402.667V305.676H415.419V292.967Z" fill="#FCFDFF" fill-opacity="0.5"/>
<path opacity="0.4" d="M396.761 310.01H384.009V322.719H396.761V310.01Z" fill="#FCFDFF" fill-opacity="0.5"/>
<path d="M415.419 327.053H402.667V339.762H415.419V327.053Z" fill="#FCFDFF" fill-opacity="0.5"/>
<path d="M396.761 344.108H384.009V356.817H396.761V344.108Z" fill="#FCFDFF" fill-opacity="0.5"/>
<path d="M415.419 361.151H402.667V373.86H415.419V361.151Z" fill="#FCFDFF" fill-opacity="0.5"/>
<path d="M438.59 292.967H425.838V305.676H438.59V292.967Z" fill="#FCFDFF" fill-opacity="0.5"/>
<path opacity="0.4" d="M457.248 310.01H444.496V322.719H457.248V310.01Z" fill="#FCFDFF" fill-opacity="0.5"/>
<path opacity="0.4" d="M457.248 327.053H444.496V339.762H457.248V327.053Z" fill="#FCFDFF" fill-opacity="0.5"/>
<path d="M438.59 344.108H425.838V356.817H438.59V344.108Z" fill="#FCFDFF" fill-opacity="0.5"/>
<path d="M457.248 361.151H444.496V373.86H457.248V361.151Z" fill="#FCFDFF" fill-opacity="0.5"/>
<path d="M507.317 281.151V241.521H550.008V211.029H592.698V260.279H631.31V227.109H672.598V160.476H715.276V191.461H757.259V280.106H797.934V238.89H840.613V303.656H880.191V184.649H922.87V423.45H635.376H631.31H464.875V281.151H507.317Z" fill="#DFE3E8" fill-opacity="0.8"/>
<path d="M904.291 203.398L917.043 203.398L917.043 190.689L904.291 190.689L904.291 203.398Z" fill="#FCFDFF" fill-opacity="0.5"/>
<path d="M885.63 220.446L898.382 220.446L898.382 207.737L885.63 207.737L885.63 220.446Z" fill="#FCFDFF" fill-opacity="0.5"/>
<path d="M885.63 237.494L898.382 237.494L898.382 224.785L885.63 224.785L885.63 237.494Z" fill="#FCFDFF" fill-opacity="0.5"/>
<path d="M885.63 271.579L898.382 271.579L898.382 258.87L885.63 258.87L885.63 271.579Z" fill="#FCFDFF" fill-opacity="0.5"/>
<path opacity="0.4" d="M904.291 288.627L917.043 288.627L917.043 275.918L904.291 275.918L904.291 288.627Z" fill="#FCFDFF" fill-opacity="0.5"/>
<path opacity="0.4" d="M904.291 305.675L917.043 305.675L917.043 292.966L904.291 292.966L904.291 305.675Z" fill="#FCFDFF" fill-opacity="0.5"/>
<path d="M885.63 322.723L898.382 322.723L898.382 310.014L885.63 310.014L885.63 322.723Z" fill="#FCFDFF" fill-opacity="0.5"/>
<path opacity="0.4" d="M904.291 339.771L917.043 339.771L917.043 327.062L904.291 327.062L904.291 339.771Z" fill="#FCFDFF" fill-opacity="0.5"/>
<path d="M885.63 339.771L898.382 339.771L898.382 327.062L885.63 327.062L885.63 339.771Z" fill="#FCFDFF" fill-opacity="0.5"/>
<path d="M904.291 373.856L917.043 373.856L917.043 361.147L904.291 361.147L904.291 373.856Z" fill="#FCFDFF" fill-opacity="0.5"/>
<path d="M885.63 390.904L898.382 390.904L898.382 378.195L885.63 378.195L885.63 390.904Z" fill="#FCFDFF" fill-opacity="0.5"/>
<path d="M885.63 407.952L898.382 407.952L898.382 395.243L885.63 395.243L885.63 407.952Z" fill="#FCFDFF" fill-opacity="0.5"/>
<path d="M844.265 339.771L857.017 339.771L857.017 327.062L844.265 327.062L844.265 339.771Z" fill="#FCFDFF" fill-opacity="0.5"/>
<path d="M862.926 356.807L875.678 356.807L875.678 344.099L862.926 344.099L862.926 356.807Z" fill="#FCFDFF" fill-opacity="0.5"/>
<path d="M844.265 373.856L857.017 373.856L857.017 361.147L844.265 361.147L844.265 373.856Z" fill="#FCFDFF" fill-opacity="0.5"/>
<path d="M862.926 390.904L875.678 390.904L875.678 378.195L862.926 378.195L862.926 390.904Z" fill="#FCFDFF" fill-opacity="0.5"/>
<path d="M844.265 407.952L857.017 407.952L857.017 395.243L844.265 395.243L844.265 407.952Z" fill="#FCFDFF" fill-opacity="0.5"/>
<path d="M821.56 271.579L834.312 271.579L834.313 258.87L821.56 258.87L821.56 271.579Z" fill="#FCFDFF" fill-opacity="0.5"/>
<path d="M802.899 271.579L815.651 271.579L815.651 258.87L802.899 258.87L802.899 271.579Z" fill="#FCFDFF" fill-opacity="0.5"/>
<path opacity="0.4" d="M802.899 288.627L815.651 288.627L815.651 275.918L802.899 275.918L802.899 288.627Z" fill="#FCFDFF" fill-opacity="0.5"/>
<path d="M821.56 305.675L834.312 305.675L834.313 292.966L821.56 292.966L821.56 305.675Z" fill="#FCFDFF" fill-opacity="0.5"/>
<path d="M802.899 322.723L815.651 322.723L815.651 310.014L802.899 310.014L802.899 322.723Z" fill="#FCFDFF" fill-opacity="0.5"/>
<path d="M821.56 356.807L834.312 356.807L834.313 344.099L821.56 344.099L821.56 356.807Z" fill="#FCFDFF" fill-opacity="0.5"/>
<path d="M802.899 373.856L815.651 373.856L815.651 361.147L802.899 361.147L802.899 373.856Z" fill="#FCFDFF" fill-opacity="0.5"/>
<path d="M821.56 390.904L834.312 390.904L834.313 378.195L821.56 378.195L821.56 390.904Z" fill="#FCFDFF" fill-opacity="0.5"/>
<path d="M802.899 407.952L815.651 407.952L815.651 395.243L802.899 395.243L802.899 407.952Z" fill="#FCFDFF" fill-opacity="0.5"/>
<path d="M761.545 322.723L774.297 322.723L774.297 310.014L761.545 310.014L761.545 322.723Z" fill="#FCFDFF" fill-opacity="0.5"/>
<path opacity="0.4" d="M761.545 356.807L774.297 356.807L774.297 344.099L761.545 344.099L761.545 356.807Z" fill="#FCFDFF" fill-opacity="0.5"/>
<path d="M780.195 373.856L792.947 373.856L792.947 361.147L780.195 361.147L780.195 373.856Z" fill="#FCFDFF" fill-opacity="0.5"/>
<path d="M761.545 390.904L774.297 390.904L774.297 378.195L761.545 378.195L761.545 390.904Z" fill="#FCFDFF" fill-opacity="0.5"/>
<path d="M780.195 407.952L792.947 407.952L792.947 395.243L780.195 395.243L780.195 407.952Z" fill="#FCFDFF" fill-opacity="0.5"/>
<path d="M738.841 220.446L751.593 220.446L751.593 207.737L738.841 207.737L738.841 220.446Z" fill="#FCFDFF" fill-opacity="0.5"/>
<path opacity="0.4" d="M720.179 237.494L732.932 237.494L732.932 224.785L720.179 224.785L720.179 237.494Z" fill="#FCFDFF" fill-opacity="0.5"/>
<path opacity="0.4" d="M738.841 254.543L751.593 254.543L751.593 241.834L738.841 241.834L738.841 254.543Z" fill="#FCFDFF" fill-opacity="0.5"/>
<path d="M738.841 271.579L751.593 271.579L751.593 258.87L738.841 258.87L738.841 271.579Z" fill="#FCFDFF" fill-opacity="0.5"/>
<path d="M720.179 288.627L732.932 288.627L732.932 275.918L720.179 275.918L720.179 288.627Z" fill="#FCFDFF" fill-opacity="0.5"/>
<path opacity="0.4" d="M738.841 305.675L751.593 305.675L751.593 292.966L738.841 292.966L738.841 305.675Z" fill="#FCFDFF" fill-opacity="0.5"/>
<path opacity="0.4" d="M738.841 356.807L751.593 356.807L751.593 344.099L738.841 344.099L738.841 356.807Z" fill="#FCFDFF" fill-opacity="0.5"/>
<path d="M738.841 390.904L751.593 390.904L751.593 378.195L738.841 378.195L738.841 390.904Z" fill="#FCFDFF" fill-opacity="0.5"/>
<path d="M720.179 390.904L732.932 390.904L732.932 378.195L720.179 378.195L720.179 390.904Z" fill="#FCFDFF" fill-opacity="0.5"/>
<path d="M720.179 407.952L732.932 407.952L732.932 395.243L720.179 395.243L720.179 407.952Z" fill="#FCFDFF" fill-opacity="0.5"/>
<path d="M678.814 178.449L691.566 178.449L691.566 165.74L678.814 165.74L678.814 178.449Z" fill="#FCFDFF" fill-opacity="0.5"/>
<path d="M697.475 195.497L710.228 195.497L710.228 182.788L697.475 182.788L697.475 195.497Z" fill="#FCFDFF" fill-opacity="0.5"/>
<path opacity="0.4" d="M678.814 212.545L691.566 212.545L691.566 199.836L678.814 199.836L678.814 212.545Z" fill="#FCFDFF" fill-opacity="0.5"/>
<path d="M678.814 229.593L691.566 229.593L691.566 216.885L678.814 216.885L678.814 229.593Z" fill="#FCFDFF" fill-opacity="0.5"/>
<path d="M697.475 246.63L710.228 246.63L710.228 233.921L697.475 233.921L697.475 246.63Z" fill="#FCFDFF" fill-opacity="0.5"/>
<path opacity="0.4" d="M678.814 263.678L691.566 263.678L691.566 250.969L678.814 250.969L678.814 263.678Z" fill="#FCFDFF" fill-opacity="0.5"/>
<path d="M697.475 373.856L710.228 373.856L710.228 361.147L697.475 361.147L697.475 373.856Z" fill="#FCFDFF" fill-opacity="0.5"/>
<path d="M697.475 390.904L710.228 390.904L710.228 378.195L697.475 378.195L697.475 390.904Z" fill="#FCFDFF" fill-opacity="0.5"/>
<path d="M678.814 407.952L691.566 407.952L691.566 395.243L678.814 395.243L678.814 407.952Z" fill="#FCFDFF" fill-opacity="0.5"/>
<path d="M616.637 288.627L629.389 288.627L629.389 275.918L616.637 275.918L616.637 288.627Z" fill="#FCFDFF" fill-opacity="0.5"/>
<path opacity="0.4" d="M597.976 288.627L610.728 288.627L610.728 275.918L597.976 275.918L597.976 288.627Z" fill="#FCFDFF" fill-opacity="0.5"/>
<path d="M597.976 305.675L610.728 305.675L610.728 292.966L597.976 292.966L597.976 305.675Z" fill="#FCFDFF" fill-opacity="0.5"/>
<path d="M616.637 322.723L629.389 322.723L629.389 310.014L616.637 310.014L616.637 322.723Z" fill="#FCFDFF" fill-opacity="0.5"/>
<path opacity="0.4" d="M616.637 339.771L629.389 339.771L629.389 327.062L616.637 327.062L616.637 339.771Z" fill="#FCFDFF" fill-opacity="0.5"/>
<path d="M597.976 356.807L610.728 356.807L610.728 344.099L597.976 344.099L597.976 356.807Z" fill="#FCFDFF" fill-opacity="0.5"/>
<path d="M616.637 390.904L629.389 390.904L629.389 378.195L616.637 378.195L616.637 390.904Z" fill="#FCFDFF" fill-opacity="0.5"/>
<path d="M597.976 407.952L610.728 407.952L610.728 395.243L597.976 395.243L597.976 407.952Z" fill="#FCFDFF" fill-opacity="0.5"/>
<path d="M556.148 237.494L568.9 237.494L568.9 224.785L556.148 224.785L556.148 237.494Z" fill="#FCFDFF" fill-opacity="0.5"/>
<path d="M574.81 254.543L587.562 254.543L587.562 241.834L574.81 241.834L574.81 254.543Z" fill="#FCFDFF" fill-opacity="0.5"/>
<path d="M574.81 271.579L587.562 271.579L587.562 258.87L574.81 258.87L574.81 271.579Z" fill="#FCFDFF" fill-opacity="0.5"/>
<path opacity="0.4" d="M556.148 288.627L568.9 288.627L568.9 275.918L556.148 275.918L556.148 288.627Z" fill="#FCFDFF" fill-opacity="0.5"/>
<path d="M574.81 305.675L587.562 305.675L587.562 292.966L574.81 292.966L574.81 305.675Z" fill="#FCFDFF" fill-opacity="0.5"/>
<path d="M556.148 322.723L568.9 322.723L568.9 310.014L556.148 310.014L556.148 322.723Z" fill="#FCFDFF" fill-opacity="0.5"/>
<path d="M574.81 339.771L587.562 339.771L587.562 327.062L574.81 327.062L574.81 339.771Z" fill="#FCFDFF" fill-opacity="0.5"/>
<path d="M556.148 373.856L568.9 373.856L568.9 361.147L556.148 361.147L556.148 373.856Z" fill="#FCFDFF" fill-opacity="0.5"/>
<path d="M532.982 271.579L545.734 271.579L545.734 258.87L532.982 258.87L532.982 271.579Z" fill="#FCFDFF" fill-opacity="0.5"/>
<path d="M514.321 288.627L527.073 288.627L527.073 275.918L514.321 275.918L514.321 288.627Z" fill="#FCFDFF" fill-opacity="0.5"/>
<path opacity="0.4" d="M514.321 305.675L527.073 305.675L527.073 292.966L514.321 292.966L514.321 305.675Z" fill="#FCFDFF" fill-opacity="0.5"/>
<path opacity="0.4" d="M532.982 322.723L545.734 322.723L545.734 310.014L532.982 310.014L532.982 322.723Z" fill="#FCFDFF" fill-opacity="0.5"/>
<path d="M514.321 339.771L527.073 339.771L527.073 327.062L514.321 327.062L514.321 339.771Z" fill="#FCFDFF" fill-opacity="0.5"/>
<path d="M532.982 356.807L545.734 356.807L545.734 344.099L532.982 344.099L532.982 356.807Z" fill="#FCFDFF" fill-opacity="0.5"/>
<path d="M514.321 373.856L527.073 373.856L527.073 361.147L514.321 361.147L514.321 373.856Z" fill="#FCFDFF" fill-opacity="0.5"/>
<path d="M491.156 305.675L503.908 305.675L503.908 292.966L491.156 292.966L491.156 305.675Z" fill="#FCFDFF" fill-opacity="0.5"/>
<path opacity="0.4" d="M472.494 322.723L485.246 322.723L485.246 310.014L472.494 310.014L472.494 322.723Z" fill="#FCFDFF" fill-opacity="0.5"/>
<path opacity="0.4" d="M472.494 339.771L485.246 339.771L485.246 327.062L472.494 327.062L472.494 339.771Z" fill="#FCFDFF" fill-opacity="0.5"/>
<path d="M491.156 356.807L503.908 356.807L503.908 344.099L491.156 344.099L491.156 356.807Z" fill="#FCFDFF" fill-opacity="0.5"/>
<path d="M472.494 373.856L485.246 373.856L485.246 361.147L472.494 361.147L472.494 373.856Z" fill="#FCFDFF" fill-opacity="0.5"/>
<path d="M167.823 25.3662V422.67H185.629V18.5151C179.585 20.6101 173.642 22.895 167.823 25.3662Z" fill="#B8C0CC"/>
<path d="M822.445 163.099V422.67H840.251V175.262C834.346 170.778 828.409 166.73 822.445 163.099Z" fill="#B8C0CC"/>
<path d="M513.235 135.715V422.674H531.038V147.008C525.181 143.661 519.238 139.909 513.235 135.715Z" fill="#B8C0CC"/>
<path d="M79.0544 93.0623H465.447C458.373 85.2345 451.361 76.7095 444.469 67.4424C444.338 67.2595 444.203 67.0834 444.065 66.9074C441.896 64.0255 439.616 61.2436 437.222 58.5619H111.691C108.366 61.2505 105.152 64.0358 102.06 66.9074C93.4006 74.9389 85.6688 83.6676 79.0544 93.0623Z" fill="#B8C0CC"/>
<g opacity="0.8">
<path d="M101.925 385.38C101.925 385.38 108.808 377.403 102.351 372.335C102.351 372.335 97.6352 369.497 93.786 369.729C93.786 369.729 99.2367 378.809 97.4713 379.712C95.7106 380.614 92.133 369.157 92.133 369.157C92.133 369.157 81.4001 368.124 77.9489 369.771C77.9489 369.771 87.1224 377.236 85.1931 377.678C83.2592 378.125 73.3505 370.8 73.3505 370.8C73.3505 370.8 63.3622 372.489 63.896 378.544C64.4298 384.598 67.8717 386.469 69.3842 386.311C70.8967 386.148 79.7471 382.792 79.9391 384.026C80.1311 385.259 74.8068 389.285 71.0747 389.471C71.0747 389.471 78.1175 397.191 82.8002 394.962C87.483 392.733 87.881 389.201 90.7984 387.879C93.7157 386.553 96.207 386.557 95.0035 387.907C93.8 389.257 88.5179 390.569 86.8508 393.506C85.1838 396.437 83.6853 398.415 88.5273 397.694C93.3692 396.968 101.241 393.45 101.587 389.415C101.925 385.38 101.925 385.38 101.925 385.38Z" fill="#B8C0CC"/>
<path d="M68.7984 378.706C68.7984 378.706 95.9302 377.669 101.924 385.38C101.924 385.38 103.249 389.322 107.328 392.914L107.965 394.636C107.965 394.636 103.263 389.708 101.582 389.41C101.578 389.41 104.209 379.856 68.7984 378.706Z" fill="#B8C0CC"/>
<path d="M107.328 392.914C107.328 392.914 113.153 397.196 113.556 404.842L112.497 404.935C112.497 404.935 110.638 397.028 107.276 393.934C103.914 390.844 107.328 392.914 107.328 392.914Z" fill="#B8C0CC"/>
<path d="M125.983 375.347C125.983 375.347 115.035 369.255 120.144 360.985C120.144 360.985 124.232 355.908 128.61 354.605C128.61 354.605 126.274 366.933 128.61 367.226C130.947 367.514 130.217 353.302 130.217 353.302C130.217 353.302 141.746 347.787 146.269 348.224C146.269 348.224 139.118 360.264 141.45 359.975C143.787 359.687 151.813 347.503 151.813 347.503C151.813 347.503 163.637 345.32 165.534 352.282C167.43 359.244 164.368 362.725 162.616 363.163C160.865 363.596 149.627 363.451 149.917 364.903C150.207 366.355 157.798 368.673 162.031 367.37C162.031 367.37 157.362 378.828 151.233 378.251C145.103 377.669 143.207 373.899 139.409 373.611C135.616 373.322 132.839 374.337 134.74 375.351C136.637 376.366 143.061 375.682 146.124 378.274C149.191 380.861 151.668 382.458 145.979 383.621C140.284 384.78 130.071 384.059 128.025 379.703C125.979 375.347 125.983 375.347 125.983 375.347Z" fill="#B8C0CC"/>
<path d="M160.135 354.46C160.135 354.46 129.487 364.322 125.984 375.347C125.984 375.347 126.129 380.28 123.067 385.934V388.107C123.067 388.107 126.279 380.708 128.03 379.693C128.026 379.698 121.165 370.125 160.135 354.46Z" fill="#B8C0CC"/>
<path d="M123.062 385.934C123.062 385.934 118.338 393.068 121.03 401.752L122.247 401.427C122.247 401.427 121.067 391.863 123.539 387.051C126.011 382.244 123.062 385.934 123.062 385.934Z" fill="#B8C0CC"/>
<path d="M108.568 366.942C108.568 366.942 122.995 358.914 116.262 348.015C116.262 348.015 110.876 341.323 105.103 339.601C105.103 339.601 108.179 355.852 105.103 356.233C102.026 356.615 102.986 337.879 102.986 337.879C102.986 337.879 87.7905 330.614 81.8247 331.191C81.8247 331.191 91.2511 347.061 88.1745 346.679C85.098 346.298 74.515 330.237 74.515 330.237C74.515 330.237 58.9308 327.37 56.4302 336.548C53.9296 345.725 57.9708 350.314 60.2794 350.886C62.588 351.459 77.4042 351.268 77.0155 353.18C76.6316 355.093 66.6245 358.151 61.0474 356.429C61.0474 356.429 67.2052 371.535 75.2829 370.767C83.3653 370.004 85.8659 365.029 90.8671 364.647C95.8683 364.266 99.5255 365.602 97.0249 366.942C94.5243 368.282 86.0579 367.379 82.0167 370.795C77.9755 374.206 74.7069 376.31 82.2087 377.841C89.7105 379.372 103.178 378.413 105.875 372.68C108.568 366.942 108.568 366.942 108.568 366.942Z" fill="#B8C0CC"/>
<path d="M63.5489 339.41C63.5489 339.41 103.952 352.412 108.569 366.942C108.569 366.942 108.377 373.443 112.418 380.898V383.765C112.418 383.765 108.185 374.015 105.876 372.675C105.876 372.68 114.919 360.059 63.5489 339.41Z" fill="#B8C0CC"/>
<path d="M112.414 380.903C112.414 380.903 118.646 390.308 115.092 401.752L113.491 401.324C113.491 401.324 115.045 388.717 111.786 382.378C108.527 376.035 112.414 380.903 112.414 380.903Z" fill="#B8C0CC"/>
<path d="M109.056 426.571C93.448 426.571 80.7905 413.997 80.7905 398.481H137.316C137.316 413.997 124.663 426.571 109.056 426.571Z" fill="#B8C0CC"/>
<path d="M102.096 426.357C103.248 426.501 104.419 426.571 105.608 426.571C121.216 426.571 133.874 413.997 133.874 398.481H126.849C126.849 412.814 116.051 424.64 102.096 426.357Z" fill="#B8C0CC"/>
<path d="M80.3969 428H137.709C137.709 426.087 136.15 424.533 134.22 424.533H83.8855C81.9609 424.537 80.3969 426.087 80.3969 428Z" fill="#B8C0CC"/>
<path d="M80.1441 398.481H138.248V399.343H80.1441V398.481Z" fill="#B8C0CC"/>
</g>
<g opacity="0.8">
<path d="M698.95 83.4885V159.945C698.95 160.613 698.958 161.273 698.974 161.91C699.117 167.874 699.905 172.456 700.847 172.456H701.118C701.993 172.456 702.732 168.511 702.947 163.182C702.967 162.744 702.983 162.293 702.991 161.838C702.991 161.807 702.995 161.775 702.995 161.743C703.007 161.158 703.015 160.558 703.015 159.945V83.1367C701.643 83.2236 700.29 83.3422 698.95 83.4885Z" fill="#B8C0CC"/>
<path d="M702.04 161.724C716.837 161.724 728.834 174.329 728.834 189.88H675.243C675.243 174.329 687.239 161.724 702.04 161.724Z" fill="#B8C0CC"/>
<g style="mix-blend-mode:screen" opacity="0.4">
<path d="M699.905 162.068C700.677 161.902 701.46 161.815 702.26 161.815C711.902 161.815 719.718 174.381 719.718 189.884H715.012C715.008 175.662 708.433 163.914 699.905 162.068Z" fill="#B8C0CC"/>
</g>
</g>
<g opacity="0.8">
<path d="M371.194 69.4815V118.985C371.194 119.653 371.178 120.257 371.194 120.893C371.337 126.858 372.174 131.502 373.116 131.502H373.387C374.262 131.502 375.001 127.557 375.216 122.229C375.236 121.79 375.252 121.339 375.26 120.885C375.26 120.853 375.264 120.822 375.264 120.79C375.276 120.205 375.284 119.604 375.284 118.991V69.4815C372.563 69.4815 372.563 69.4815 371.194 69.4815Z" fill="#B8C0CC"/>
<path d="M374.309 120.77C389.106 120.77 401.103 133.376 401.103 148.927H347.511C347.511 133.376 359.508 120.77 374.309 120.77Z" fill="#B8C0CC"/>
<g style="mix-blend-mode:screen" opacity="0.4">
<path d="M372.174 121.114C372.945 120.948 373.729 120.861 374.528 120.861C384.17 120.861 391.986 133.427 391.986 148.93H387.281C387.277 134.708 380.702 122.96 372.174 121.114Z" fill="#B8C0CC"/>
</g>
</g>
<path d="M677.571 414.726H852.182C845.526 419.964 837.171 423.092 828.126 423.092H579.95C558.349 423.092 540.677 405.25 540.677 383.44V254.562C540.677 232.752 558.349 214.911 579.95 214.911H828.13C838.211 214.911 847.435 218.799 854.404 225.159H677.571C659.119 225.159 644.025 240.398 644.025 259.028V380.853C644.025 399.486 659.119 414.726 677.571 414.726Z" fill="#A9B3C1"/>
<path d="M663.832 400.92C661.855 408.053 647.252 412.253 631.279 414.716H571.673C557.306 407.92 557.324 399.82 556.173 377.444C553.794 331.235 578.963 308.924 590.186 312.608C590.654 312.763 591.127 312.926 591.613 313.118C594.874 314.385 598.529 316.623 602.081 321.951C602.081 321.951 613.239 339.91 622.417 350.619C625.372 354.068 628.126 356.769 630.23 357.872C630.255 357.884 630.277 357.9 630.305 357.909C630.416 357.968 630.524 358.017 630.636 358.067C635.5 360.218 642.357 364.724 648.62 370.413C648.62 370.413 648.62 370.413 648.623 370.413C658.336 379.228 666.617 390.866 663.832 400.92Z" fill="#B8C1CD"/>
<g style="mix-blend-mode:multiply" opacity="0.4">
<path d="M648.62 370.411C640.262 372.889 597.247 384.884 587.126 372.166C579.795 362.956 584.359 339.366 588.407 324.102C590.065 317.847 598.349 316.425 601.972 321.79C602.009 321.843 602.043 321.896 602.077 321.948C602.077 321.948 613.236 339.907 622.413 350.616C625.068 354 627.689 356.608 630.227 357.869C630.251 357.882 630.273 357.897 630.301 357.906C630.409 357.965 630.521 358.015 630.632 358.064C635.499 360.215 642.36 364.724 648.62 370.411Z" fill="#A9B3C1"/>
</g>
<path d="M717.454 415.013C717.454 415.013 705.42 404.759 715.851 385.282C726.282 365.806 762.789 360.24 770.501 345.581L768.232 418.799L717.454 415.013Z" fill="#A9B3C1"/>
<path d="M870.246 254.562V383.44C870.246 405.25 852.382 423.092 830.546 423.092H579.659C570.515 423.092 562.071 419.964 555.343 414.726H731.861C750.513 414.726 765.772 399.486 765.772 380.857V259.031C765.772 240.401 750.513 225.162 731.861 225.162C731.861 225.162 587.515 224.609 560.294 225.162C549.179 225.388 543.972 238.785 543.972 238.785C546.008 221.874 569.469 214.911 579.659 214.911H830.543C852.382 214.911 870.246 232.752 870.246 254.562Z" fill="#B8C0CC"/>
</g>
<path opacity="0.6" d="M3.11432 428H926.896C928.606 428 930 426.569 930 424.813C930 423.057 928.606 421.626 926.896 421.626H3.10376C1.40405 421.626 6.10352e-05 423.057 6.10352e-05 424.813C0.0106201 426.569 1.40405 428 3.11432 428Z" fill="#414A4D"/>
<path d="M421.235 351.962C418.044 372.451 400.265 393.851 361.515 388.387" stroke="#53A1FF" stroke-width="2" stroke-linecap="round"/>
<ellipse rx="5.47059" ry="5.46383" transform="matrix(1 0 0 -1 358.324 387.932)" fill="#53A1FF"/>
<path d="M457.444 423.429H509.191C520.529 423.429 529.717 414.227 529.717 402.872V351.048C529.717 313.578 499.393 283.208 461.979 283.208H457.427C420.013 283.208 389.689 313.578 389.689 351.048V355.607C389.706 393.06 420.03 423.429 457.444 423.429Z" fill="white"/>
<path opacity="0.4" d="M509.563 353.337V402.195C509.563 413.923 500.07 423.447 488.343 423.447H508.497C520.224 423.447 529.717 413.923 529.717 402.195V353.337C529.717 314.613 498.378 283.226 459.712 283.226C456.293 283.226 452.926 283.464 449.643 283.955C483.521 288.836 509.563 318.036 509.563 353.337Z" fill="#53A1FF" fill-opacity="0.4"/>
<path d="M457.264 422.447H509.153C519.97 422.447 528.735 413.69 528.735 402.887V351.056C528.735 314.135 498.777 284.208 461.812 284.208H457.247C420.282 284.208 390.324 314.135 390.324 351.056V355.615C390.324 355.615 390.324 355.616 390.324 355.616C390.341 392.52 420.299 422.447 457.264 422.447Z" stroke="#53A1FF" stroke-width="2"/>
<ellipse rx="4.55882" ry="6.37447" transform="matrix(-1 0 0 1 443.117 331.472)" fill="#B8C0CC"/>
<ellipse rx="4.55882" ry="6.37447" transform="matrix(-1 0 0 1 415.765 331.472)" fill="#B8C0CC"/>
<path d="M420.323 356.06C420.323 360.613 424.882 363.345 429.441 363.345C434 363.345 438.559 360.613 438.559 356.06" stroke="#B8C0CC" stroke-width="2" stroke-linecap="round"/>
<path d="M435.912 393.055C435.912 392.502 436.36 392.055 436.912 392.055H487.618C488.17 392.055 488.618 392.502 488.618 393.055V419.447C488.618 421.104 487.275 422.447 485.618 422.447H438.912C437.255 422.447 435.912 421.104 435.912 419.447V393.055Z" fill="white" stroke="#B8C0CC" stroke-width="2"/>
<path d="M435.912 393.055C435.912 392.502 436.36 392.055 436.912 392.055H487.618C488.17 392.055 488.618 392.502 488.618 393.055V405.819C488.618 408.58 486.379 410.819 483.618 410.819H440.912C438.151 410.819 435.912 408.58 435.912 405.819L435.912 393.055Z" fill="white" stroke="#B8C0CC" stroke-width="2"/>
<path d="M452.055 390.86C452.055 391.413 452.502 391.86 453.055 391.86H471.475C472.027 391.86 472.475 391.413 472.475 390.86V387.832C472.475 386.175 471.132 384.832 469.475 384.832H455.055C453.398 384.832 452.055 386.175 452.055 387.832L452.055 390.86Z" fill="white" stroke="#B8C0CC" stroke-width="2"/>
<rect x="454.219" y="403.972" width="16.09" height="3.26395" rx="1" fill="#53A1FF"/>
<path d="M465.024 354.238C467.279 362.025 466.367 373.864 461.809 383.425" stroke="#53A1FF" stroke-width="2" stroke-linecap="round"/>
<ellipse rx="5.47059" ry="5.46383" transform="matrix(-1 0 0 1 463.176 382.515)" fill="#53A1FF"/>
<path d="M267.449 423.429H215.702C204.364 423.429 195.176 414.227 195.176 402.872V351.048C195.176 313.578 225.5 283.208 262.914 283.208H267.466C304.88 283.208 335.204 313.578 335.204 351.048V355.607C335.187 393.06 304.863 423.429 267.449 423.429Z" fill="white"/>
<path opacity="0.4" d="M215.33 353.337V402.195C215.33 413.923 224.823 423.447 236.55 423.447H216.396C204.669 423.447 195.176 413.923 195.176 402.195V353.337C195.176 314.613 226.515 283.227 265.182 283.227C268.6 283.227 271.967 283.464 275.25 283.955C241.372 288.836 215.33 318.036 215.33 353.337Z" fill="#3DE0BF" fill-opacity="0.4"/>
<path d="M267.589 422.447H215.7C204.883 422.447 196.118 413.69 196.118 402.887V351.056C196.118 314.135 226.076 284.208 263.041 284.208H267.606C304.571 284.208 334.529 314.135 334.529 351.056V355.615C334.529 355.615 334.529 355.616 334.529 355.616C334.512 392.52 304.554 422.447 267.589 422.447Z" stroke="#3DE0BF" stroke-width="2"/>
<ellipse cx="297.52" cy="331.472" rx="4.55882" ry="6.37447" transform="rotate(-180 297.52 331.472)" fill="#B8C0CC"/>
<path d="M254.838 355.149C266.691 377.915 301.338 408.421 356.956 388.843" stroke="#3DE0BF" stroke-width="2" stroke-linecap="round"/>
<ellipse cx="354.676" cy="388.843" rx="5.47059" ry="5.46383" transform="rotate(180 354.676 388.843)" fill="#3DE0BF"/>
</svg>
