<svg width="79" height="80" viewBox="0 0 79 80" fill="none" xmlns="http://www.w3.org/2000/svg">
<path d="M62.5124 11.2931C56.2525 6.10836 48.2645 3 39.5627 3C19.4745 3 3.1897 19.5655 3.1897 40C3.1897 60.4345 19.4745 77 39.5627 77C59.651 77 75.9358 60.4345 75.9358 40C75.9358 38.4886 75.8467 36.9984 75.6736 35.5345" stroke="#53A1FF" stroke-width="6" stroke-linecap="round"/>
<path d="M42.4151 46.0294C40.8476 47.6238 38.2775 47.6238 36.7101 46.0294L28.6255 37.8054C27.3987 36.5575 25.3873 36.5575 24.1606 37.8054C22.9632 39.0235 22.9632 40.9765 24.1606 42.1946L36.7101 54.9604C38.2775 56.5549 40.8476 56.5549 42.4151 54.9604L75.0324 21.7808C76.2299 20.5628 76.2299 18.6097 75.0324 17.3916C73.8057 16.1437 71.7943 16.1437 70.5676 17.3916L42.4151 46.0294Z" fill="#53A1FF"/>
</svg>
