<svg width="50" height="61" viewBox="0 0 50 61" fill="none" xmlns="http://www.w3.org/2000/svg">
<path d="M30.7663 55.5799V60.0001H1V19.406L30.7663 14.5581V23.6693" stroke="#B8C0CC" stroke-width="1.5" stroke-miterlimit="10"/>
<path d="M15.8831 16.9818V11.1216" stroke="#B8C0CC" stroke-width="1.5" stroke-miterlimit="10"/>
<path d="M20.445 8.69771C20.445 6.15969 16.767 0 15.8404 0C14.9137 0 11.2357 6.15969 11.2357 8.69771C11.2357 11.2357 13.2886 13.3032 15.8404 13.3032C18.3922 13.3032 20.445 11.2357 20.445 8.69771Z" fill="#FE7C5F"/>
<path d="M49.0709 51.0454H14.814V55.5796H49.0709V51.0454Z" stroke="#B8C0CC" stroke-width="1.5" stroke-miterlimit="10"/>
<path d="M41.8289 51.0452H21.6283C17.8647 51.0452 14.814 47.9939 14.814 44.2296C14.814 40.4654 17.8647 37.4141 21.6283 37.4141H41.8289C45.5924 37.4141 48.6432 40.4654 48.6432 44.2296C48.6432 47.9939 45.5924 51.0452 41.8289 51.0452Z" stroke="#B8C0CC" stroke-width="1.5" stroke-miterlimit="10"/>
<path d="M41.9429 37.4142H26.2187C22.4266 37.4142 19.3473 34.3343 19.3473 30.5416C19.3473 26.7488 22.4266 23.6689 26.2187 23.6689H41.9429C45.735 23.6689 48.8142 26.7488 48.8142 30.5416C48.8142 34.3343 45.7492 37.4142 41.9429 37.4142Z" stroke="#B8C0CC" stroke-width="1.5" stroke-miterlimit="10"/>
<path d="M38.8636 23.6689C41.3869 23.6689 43.4398 25.7222 43.4398 28.2459C43.4398 30.7697 41.3869 32.8229 38.8636 32.8229H28.3856H27.3306C26.0619 32.8229 25.0354 31.7963 25.0354 30.5273C25.0354 29.2583 26.0619 28.2317 27.3306 28.2317H34.0879" stroke="#B8C0CC" stroke-width="1.5" stroke-miterlimit="10"/>
<path d="M36.5684 37.4141C39.0917 37.4141 41.1446 39.4673 41.1446 41.9911C41.1446 44.5148 39.0917 46.568 36.5684 46.568H26.0904H25.0354C23.7667 46.568 22.7402 45.5414 22.7402 44.2724C22.7402 43.0034 23.7667 41.9768 25.0354 41.9768H31.7927" stroke="#B8C0CC" stroke-width="1.5" stroke-miterlimit="10"/>
<path d="M16.9808 55.5801V60.0002" stroke="#B8C0CC" stroke-width="1.5" stroke-miterlimit="10"/>
<path d="M21.6425 60.0002L23.7952 55.5801" stroke="#B8C0CC" stroke-width="1.5" stroke-miterlimit="10"/>
<path d="M46.7614 55.5801V60.0002H42.0998L39.9329 55.5801" stroke="#B8C0CC" stroke-width="1.5" stroke-miterlimit="10"/>
<path d="M5.6189 23.6689V30.2707" stroke="#B8C0CC" stroke-width="1.5" stroke-miterlimit="10"/>
</svg>
