<svg width="106" height="106" viewBox="0 0 106 106" fill="none" xmlns="http://www.w3.org/2000/svg">
<path d="M52.861 105.72C82.0547 105.72 105.721 82.0538 105.721 52.86C105.721 23.6662 82.0547 0 52.861 0C23.6672 0 0.000976562 23.6662 0.000976562 52.86C0.000976562 82.0538 23.6672 105.72 52.861 105.72Z" fill="#F0F4F7"/>
<path d="M48.861 87.3932C48.8633 87.8673 49.0527 88.3213 49.3878 88.6566C49.723 88.992 50.1769 89.1815 50.651 89.1841H94.382C94.8561 89.1815 95.31 88.992 95.6451 88.6566C95.9803 88.3213 96.1696 87.8673 96.172 87.3932V33.1931L82.7531 19.7241H50.653C50.179 19.7267 49.7253 19.9162 49.3901 20.2513C49.055 20.5865 48.8657 21.0402 48.863 21.5142V24.7742" fill="white"/>
<path d="M48.861 87.3932C48.8633 87.8673 49.0527 88.3213 49.3878 88.6566C49.723 88.992 50.1769 89.1815 50.651 89.1841H94.382C94.8561 89.1815 95.31 88.992 95.6451 88.6566C95.9803 88.3213 96.1696 87.8673 96.172 87.3932V33.1931L82.7531 19.7241H50.653C50.179 19.7267 49.7253 19.9162 49.3901 20.2513C49.055 20.5865 48.8657 21.0402 48.863 21.5142V24.7742" stroke="#B8C0CC" stroke-width="2" stroke-miterlimit="10" stroke-linecap="round"/>
<path d="M71.272 57.6318C71.272 62.3752 69.8654 67.0122 67.2301 70.9562C64.5948 74.9002 60.8493 77.9741 56.4669 79.7893C52.0846 81.6045 47.2624 82.0794 42.6101 81.1541C37.9579 80.2287 33.6846 77.9445 30.3305 74.5905C26.9764 71.2364 24.6923 66.963 23.7669 62.3108C22.8415 57.6585 23.3164 52.8363 25.1316 48.454C26.9468 44.0717 30.0208 40.3261 33.9648 37.6908C37.9087 35.0555 42.5456 33.6489 47.289 33.6489V57.6318H71.272Z" fill="white" stroke="#B8C0CC" stroke-width="2" stroke-miterlimit="10" stroke-linecap="round"/>
<path d="M55.24 25.6953C61.6005 25.6956 67.7004 28.2224 72.1979 32.7201C76.6953 37.2177 79.222 43.3177 79.222 49.6782H55.24V25.6953Z" stroke="#FE7C5F" stroke-width="2" stroke-miterlimit="10" stroke-linecap="round"/>
<path d="M82.7531 19.7261V30.3131C82.7531 31.0581 83.0489 31.7726 83.5757 32.2994C84.1025 32.8262 84.817 33.1221 85.562 33.1221H96.172" stroke="#B8C0CC" stroke-width="2" stroke-miterlimit="10" stroke-linecap="round"/>
<path d="M83.873 40.0332H91.338" stroke="#B8C0CC" stroke-width="2" stroke-miterlimit="10" stroke-linecap="round"/>
<path d="M83.873 47.2197H91.338" stroke="#B8C0CC" stroke-width="2" stroke-miterlimit="10" stroke-linecap="round"/>
<path d="M83.873 54.4541H91.338" stroke="#B8C0CC" stroke-width="2" stroke-miterlimit="10" stroke-linecap="round"/>
<path d="M89.283 73.5519C89.2367 73.4082 89.1492 73.2814 89.0313 73.1871C88.9134 73.0929 88.7704 73.0354 88.62 73.0219L84.433 72.6418L82.778 68.7668C82.7186 68.628 82.6198 68.5096 82.4938 68.4264C82.3678 68.3432 82.22 68.2988 82.069 68.2988C81.918 68.2988 81.7702 68.3432 81.6442 68.4264C81.5181 68.5096 81.4194 68.628 81.36 68.7668L79.704 72.6409L75.517 73.0209C75.3667 73.0348 75.2238 73.0924 75.106 73.1866C74.9881 73.2809 74.9005 73.4076 74.8539 73.5511C74.8073 73.6947 74.8038 73.8488 74.8438 73.9943C74.8838 74.1398 74.9656 74.2703 75.079 74.3699L78.244 77.1449L77.3111 81.2559C77.2768 81.4031 77.2866 81.5572 77.3394 81.6989C77.3922 81.8405 77.4855 81.9635 77.6078 82.0524C77.7301 82.1413 77.8758 82.1921 78.0269 82.1986C78.1779 82.2051 78.3276 82.1669 78.4571 82.0889L82.069 79.9299L85.679 82.0889C85.8086 82.1662 85.9581 82.2039 86.1089 82.1971C86.2597 82.1904 86.4051 82.1394 86.5272 82.0507C86.6494 81.962 86.7428 81.8394 86.7959 81.6981C86.849 81.5568 86.8596 81.403 86.8261 81.2559L85.893 77.1449L89.057 74.3699C89.1708 74.2707 89.2529 74.1403 89.2931 73.9949C89.3333 73.8494 89.3297 73.6954 89.283 73.5519Z" fill="#FE7C5F"/>
</svg>
