<svg width="224" height="242" viewBox="0 0 224 242" fill="none" xmlns="http://www.w3.org/2000/svg">
<path d="M133.678 48.0985C133.678 48.0985 100.773 54.9488 86.7668 41.5262" stroke="#B8C0CC" stroke-width="1.883" stroke-linecap="round" stroke-linejoin="round"/>
<path d="M91.1441 1.0108C95.4653 1.0108 99.7442 1.86119 103.736 3.51342C107.729 5.16564 111.356 7.58735 114.412 10.6403C117.467 13.6932 119.891 17.3175 121.545 21.3063C123.198 25.2952 124.049 29.5704 124.049 33.8878C124.049 42.6663 120.558 51.085 114.346 57.2922C108.133 63.4994 99.7068 66.9865 90.9209 66.9865H63.3501C61.9353 66.9865 60.5785 66.4249 59.5781 65.4254C58.5777 64.4259 58.0157 63.0702 58.0157 61.6566V34.1109C58.0157 25.3322 61.506 16.9131 67.7188 10.7056C73.9316 4.49812 82.3579 1.0108 91.1441 1.0108V1.0108Z" fill="white"/>
<path d="M90.7331 1.06354C92.4472 1.06302 94.1586 1.19716 95.8516 1.46473C82.3909 1.14899 64.0944 11.086 64.0944 33.8957V62.2047C64.0978 63.4365 64.5892 64.6169 65.4612 65.4878C66.3331 66.3587 67.5146 66.8493 68.7475 66.8524H62.5245C61.2919 66.8489 60.1107 66.3582 59.2391 65.4873C58.3675 64.6164 57.8763 63.4363 57.8729 62.2047V33.8957C57.8981 25.1958 61.3683 16.8595 67.5253 10.7077C73.6823 4.55595 82.0258 1.08876 90.7331 1.06354Z" fill="#EAEFF4"/>
<path d="M91.1441 1.0108C95.4653 1.0108 99.7442 1.86119 103.736 3.51342C107.729 5.16564 111.356 7.58735 114.412 10.6403C117.467 13.6932 119.891 17.3175 121.545 21.3063C123.198 25.2952 124.049 29.5704 124.049 33.8878V33.8878C124.049 42.6663 120.558 51.085 114.346 57.2922C108.133 63.4994 99.7068 66.9865 90.9209 66.9865H63.3501C61.9353 66.9865 60.5785 66.4249 59.5781 65.4254C58.5777 64.4259 58.0157 63.0702 58.0157 61.6566V34.1109C58.0157 25.3322 61.506 16.9131 67.7188 10.7056C73.9316 4.49812 82.3579 1.0108 91.1441 1.0108V1.0108Z" stroke="#B8C0CC" stroke-width="1.883" stroke-linecap="round" stroke-linejoin="round"/>
<path d="M111.419 32.8593C112.474 32.8593 113.329 31.5106 113.329 29.8469C113.329 28.1832 112.474 26.8345 111.419 26.8345C110.364 26.8345 109.508 28.1832 109.508 29.8469C109.508 31.5106 110.364 32.8593 111.419 32.8593Z" fill="#B8C0CC"/>
<path d="M101.026 32.8593C102.081 32.8593 102.936 31.5106 102.936 29.8469C102.936 28.1832 102.081 26.8345 101.026 26.8345C99.9704 26.8345 99.115 28.1832 99.115 29.8469C99.115 31.5106 99.9704 32.8593 101.026 32.8593Z" fill="#B8C0CC"/>
<path d="M133.675 51.6252C135.625 51.6252 137.205 50.0463 137.205 48.0987C137.205 46.151 135.625 44.5721 133.675 44.5721C131.726 44.5721 130.146 46.151 130.146 48.0987C130.146 50.0463 131.726 51.6252 133.675 51.6252Z" fill="#B8C0CC"/>
<path d="M209.094 66.9358H14.9057C7.2258 66.9358 1 73.1563 1 80.8296V227.127C1 234.8 7.2258 241.02 14.9057 241.02H209.094C216.774 241.02 223 234.8 223 227.127V80.8296C223 73.1563 216.774 66.9358 209.094 66.9358Z" fill="white" stroke="#B8C0CC" stroke-width="1.883" stroke-linecap="round" stroke-linejoin="round"/>
<path d="M15.4588 85.7316C18.0623 85.7316 20.1728 83.623 20.1728 81.0218C20.1728 78.4207 18.0623 76.3121 15.4588 76.3121C12.8553 76.3121 10.7448 78.4207 10.7448 81.0218C10.7448 83.623 12.8553 85.7316 15.4588 85.7316Z" fill="#B8C0CC"/>
<path d="M30.1407 85.7316C32.7442 85.7316 34.8547 83.623 34.8547 81.0218C34.8547 78.4207 32.7442 76.3121 30.1407 76.3121C27.5373 76.3121 25.4267 78.4207 25.4267 81.0218C25.4267 83.623 27.5373 85.7316 30.1407 85.7316Z" fill="#B8C0CC"/>
<path d="M134.554 179.54L128.27 180.642C127.857 180.715 127.434 180.705 127.025 180.615C126.616 180.524 126.229 180.353 125.886 180.113C125.543 179.873 125.25 179.567 125.025 179.214C124.801 178.861 124.647 178.467 124.575 178.054C124.502 177.642 124.512 177.219 124.603 176.811C124.694 176.402 124.864 176.015 125.105 175.672C125.345 175.33 125.651 175.037 126.005 174.813C126.358 174.588 126.753 174.435 127.165 174.363L133.451 173.26C137.617 172.529 141.322 170.174 143.751 166.713C146.179 163.252 147.132 158.969 146.4 154.806C145.668 150.644 143.311 146.942 139.847 144.515C136.384 142.089 132.097 141.137 127.931 141.868L121.647 142.971C120.813 143.118 119.956 142.927 119.263 142.442C118.57 141.957 118.098 141.216 117.952 140.383C117.805 139.551 117.996 138.694 118.482 138.001C118.968 137.309 119.709 136.838 120.542 136.692L126.828 135.589C132.661 134.566 138.662 135.899 143.511 139.296C148.36 142.694 151.66 147.876 152.684 153.704C153.709 159.532 152.374 165.528 148.974 170.373C145.574 175.218 140.387 178.515 134.554 179.539V179.54Z" fill="#53A1FF"/>
<path d="M109.416 183.953L103.132 185.055C97.2992 186.079 91.2981 184.746 86.449 181.348C81.6 177.951 78.3002 172.768 77.2756 166.94C76.2511 161.112 77.5856 155.116 80.9858 150.271C84.3859 145.426 89.5731 142.13 95.4061 141.106L101.69 140.004C102.523 139.858 103.381 140.048 104.074 140.534C104.767 141.019 105.238 141.76 105.384 142.593C105.53 143.425 105.34 144.282 104.854 144.974C104.368 145.666 103.627 146.137 102.793 146.284L96.5092 147.386C92.3428 148.117 88.6377 150.472 86.2092 153.933C83.7806 157.394 82.8275 161.677 83.5595 165.84C84.2915 170.003 86.6486 173.704 90.1124 176.131C93.5761 178.557 97.8627 179.51 102.029 178.778L108.313 177.675C109.147 177.529 110.004 177.719 110.697 178.205C111.39 178.69 111.861 179.431 112.007 180.264C112.154 181.096 111.963 181.953 111.477 182.645C110.991 183.337 110.25 183.808 109.416 183.955V183.953Z" fill="#53A1FF"/>
<path d="M124.956 161.807L106.104 165.123C105.692 165.195 105.269 165.185 104.86 165.094C104.451 165.003 104.064 164.833 103.721 164.593C103.378 164.352 103.085 164.047 102.861 163.693C102.636 163.34 102.483 162.946 102.41 162.534C102.338 162.121 102.347 161.699 102.438 161.29C102.529 160.882 102.7 160.495 102.941 160.152C103.181 159.809 103.487 159.517 103.841 159.293C104.194 159.068 104.589 158.915 105.001 158.843L123.846 155.535C124.258 155.463 124.681 155.472 125.09 155.563C125.499 155.654 125.887 155.824 126.23 156.064C126.573 156.305 126.865 156.61 127.09 156.963C127.315 157.317 127.468 157.711 127.541 158.123C127.613 158.535 127.604 158.958 127.513 159.367C127.422 159.775 127.251 160.162 127.011 160.505C126.77 160.848 126.464 161.14 126.111 161.365C125.757 161.589 125.363 161.742 124.95 161.815L124.956 161.807Z" fill="#53A1FF"/>
<path d="M1 95.879H223" stroke="#B8C0CC" stroke-width="1.883" stroke-linecap="round" stroke-linejoin="round"/>
<path d="M133.678 51.6269V137.19" stroke="#B8C0CC" stroke-linecap="round" stroke-linejoin="round"/>
</svg>
