<svg width="296" height="191" viewBox="0 0 296 191" fill="none" xmlns="http://www.w3.org/2000/svg">
<path d="M277.266 19.7627C276.642 14.757 272.387 11 267.343 11H78.3244C72.3106 11 67.6572 16.2698 68.4013 22.2373L85.7343 161.244C86.3584 166.249 90.613 170.006 95.6574 170.006H284.676C290.689 170.006 295.343 164.737 294.599 158.769L277.266 19.7627Z" fill="#EAEFF4"/>
<path d="M68.3129 19.8195C68.9081 15.0664 72.949 11.5 77.7392 11.5H267.67C273.385 11.5 277.806 16.5097 277.096 22.1805L259.687 161.187C259.092 165.94 255.051 169.506 250.261 169.506H60.3305C54.6154 169.506 50.194 164.497 50.9042 158.826L68.3129 19.8195Z" fill="white" stroke="#EAEFF4"/>
<path d="M207.271 46.7768C207.385 45.7657 208.241 45.0018 209.258 45.0018H220.761C221.955 45.0018 222.882 46.0407 222.748 47.2268L221.729 56.2268C221.615 57.2378 220.759 58.0018 219.742 58.0018H208.239C207.046 58.0018 206.118 56.9629 206.252 55.7768L207.271 46.7768Z" fill="#EAEFF4"/>
<path d="M94.271 46.7768C94.3854 45.7657 95.2408 45.0018 96.2583 45.0018H107.761C108.955 45.0018 109.882 46.0407 109.748 47.2268L108.729 56.2268C108.615 57.2378 107.759 58.0018 106.742 58.0018H95.2393C94.0456 58.0018 93.1177 56.9629 93.252 55.7768L94.271 46.7768Z" fill="#EAEFF4"/>
<path d="M120.382 45.6231C120.536 45.2473 120.902 45.0018 121.308 45.0018H147.511C148.221 45.0018 148.705 45.7225 148.436 46.3804L147.618 48.3804C147.464 48.7562 147.098 49.0018 146.692 49.0018H120.49C119.779 49.0018 119.295 48.281 119.564 47.6231L120.382 45.6231Z" fill="#EAEFF4"/>
<path d="M120.376 54.6248C120.529 54.2483 120.896 54.0021 121.302 54.0021H161.614C162.296 54.0021 162.778 54.67 162.563 55.3174L161.899 57.3174C161.763 57.7262 161.381 58.0021 160.95 58.0021H120.487C119.777 58.0021 119.293 57.2825 119.561 56.6248L120.376 54.6248Z" fill="#EAEFF4"/>
<path d="M235.271 46.7768C235.385 45.7657 236.241 45.0018 237.258 45.0018H248.761C249.955 45.0018 250.882 46.0407 250.748 47.2268L249.729 56.2268C249.615 57.2378 248.759 58.0018 247.742 58.0018H236.239C235.046 58.0018 234.118 56.9629 234.252 55.7768L235.271 46.7768Z" fill="#EAEFF4"/>
<path d="M89.3473 70.7646C89.4678 69.7593 90.3206 69.0027 91.3331 69.0027H103.746C104.945 69.0027 105.874 70.0503 105.732 71.2407L104.653 80.2407C104.532 81.246 103.68 82.0027 102.667 82.0027H90.2541C89.0552 82.0027 88.1257 80.9551 88.2684 79.7646L89.3473 70.7646Z" fill="#EAEFF4"/>
<path d="M117.347 70.7646C117.468 69.7593 118.321 69.0027 119.333 69.0027H131.746C132.945 69.0027 133.874 70.0503 133.732 71.2407L132.653 80.2407C132.532 81.246 131.68 82.0027 130.667 82.0027H118.254C117.055 82.0027 116.126 80.9551 116.268 79.7646L117.347 70.7646Z" fill="#EAEFF4"/>
<path d="M146.271 70.7777C146.385 69.7666 147.241 69.0027 148.258 69.0027H159.761C160.955 69.0027 161.882 70.0416 161.748 71.2277L160.729 80.2277C160.615 81.2387 159.759 82.0027 158.742 82.0027H147.239C146.046 82.0027 145.118 80.9638 145.252 79.7777L146.271 70.7777Z" fill="#EAEFF4"/>
<path d="M174.271 70.7777C174.385 69.7666 175.241 69.0027 176.258 69.0027H187.761C188.955 69.0027 189.882 70.0416 189.748 71.2277L188.729 80.2277C188.615 81.2387 187.759 82.0027 186.742 82.0027H175.239C174.046 82.0027 173.118 80.9638 173.252 79.7777L174.271 70.7777Z" fill="#EAEFF4"/>
<path d="M202.347 70.7646C202.468 69.7593 203.321 69.0027 204.333 69.0027H216.746C217.945 69.0027 218.874 70.0503 218.732 71.2407L217.653 80.2407C217.532 81.246 216.68 82.0027 215.667 82.0027H203.254C202.055 82.0027 201.126 80.9551 201.268 79.7646L202.347 70.7646Z" fill="#EAEFF4"/>
<path d="M231.271 70.7777C231.385 69.7666 232.241 69.0027 233.258 69.0027H244.761C245.955 69.0027 246.882 70.0416 246.748 71.2277L245.729 80.2277C245.615 81.2387 244.759 82.0027 243.742 82.0027H232.239C231.046 82.0027 230.118 80.9638 230.252 79.7777L231.271 70.7777Z" fill="#EAEFF4"/>
<path d="M85.271 94.7787C85.3854 93.7676 86.2408 93.0037 87.2583 93.0037H98.7608C99.9545 93.0037 100.882 94.0426 100.748 95.2287L99.7292 104.229C99.6147 105.24 98.7594 106.004 97.7419 106.004H86.2393C85.0456 106.004 84.1177 104.965 84.252 103.779L85.271 94.7787Z" fill="#EAEFF4"/>
<path d="M113.271 94.7787C113.385 93.7676 114.241 93.0037 115.258 93.0037H126.761C127.955 93.0037 128.882 94.0426 128.748 95.2287L127.729 104.229C127.615 105.24 126.759 106.004 125.742 106.004H114.239C113.046 106.004 112.118 104.965 112.252 103.779L113.271 94.7787Z" fill="#EAEFF4"/>
<path d="M141.347 94.7656C141.468 93.7603 142.321 93.0037 143.333 93.0037H155.746C156.945 93.0037 157.874 94.0513 157.732 95.2417L156.653 104.242C156.532 105.247 155.68 106.004 154.667 106.004H142.254C141.055 106.004 140.126 104.956 140.268 103.766L141.347 94.7656Z" fill="#EAEFF4"/>
<path d="M170.271 94.7787C170.385 93.7676 171.241 93.0037 172.258 93.0037H183.761C184.955 93.0037 185.882 94.0426 185.748 95.2287L184.729 104.229C184.615 105.24 183.759 106.004 182.742 106.004H171.239C170.046 106.004 169.118 104.965 169.252 103.779L170.271 94.7787Z" fill="#EAEFF4"/>
<path d="M198.271 94.7787C198.385 93.7676 199.241 93.0037 200.258 93.0037H211.761C212.955 93.0037 213.882 94.0426 213.748 95.2287L212.729 104.229C212.615 105.24 211.759 106.004 210.742 106.004H199.239C198.046 106.004 197.118 104.965 197.252 103.779L198.271 94.7787Z" fill="#EAEFF4"/>
<path d="M226.347 94.7656C226.468 93.7603 227.321 93.0037 228.333 93.0037H240.746C241.945 93.0037 242.874 94.0513 242.732 95.2417L241.653 104.242C241.532 105.247 240.68 106.004 239.667 106.004H227.254C226.055 106.004 225.126 104.956 225.268 103.766L226.347 94.7656Z" fill="#EAEFF4"/>
<path d="M80.3473 118.767C80.4678 117.761 81.3206 117.005 82.3331 117.005H94.746C95.9449 117.005 96.8745 118.052 96.7318 119.243L95.6528 128.243C95.5323 129.248 94.6796 130.005 93.6671 130.005H81.2541C80.0552 130.005 79.1257 128.957 79.2684 127.767L80.3473 118.767Z" fill="#EAEFF4"/>
<path d="M109.271 118.78C109.385 117.769 110.241 117.005 111.258 117.005H122.761C123.955 117.005 124.882 118.044 124.748 119.23L123.729 128.23C123.615 129.241 122.759 130.005 121.742 130.005H110.239C109.046 130.005 108.118 128.966 108.252 127.78L109.271 118.78Z" fill="#53A1FF"/>
<path d="M137.271 118.78C137.385 117.769 138.241 117.005 139.258 117.005H150.761C151.955 117.005 152.882 118.044 152.748 119.23L151.729 128.23C151.615 129.241 150.759 130.005 149.742 130.005H138.239C137.046 130.005 136.118 128.966 136.252 127.78L137.271 118.78Z" fill="#EAEFF4"/>
<path d="M165.347 118.767C165.468 117.761 166.321 117.005 167.333 117.005H179.746C180.945 117.005 181.874 118.052 181.732 119.243L180.653 128.243C180.532 129.248 179.68 130.005 178.667 130.005H166.254C165.055 130.005 164.126 128.957 164.268 127.767L165.347 118.767Z" fill="#EAEFF4"/>
<path d="M194.271 118.78C194.385 117.769 195.241 117.005 196.258 117.005H207.761C208.955 117.005 209.882 118.044 209.748 119.23L208.729 128.23C208.615 129.241 207.759 130.005 206.742 130.005H195.239C194.046 130.005 193.118 128.966 193.252 127.78L194.271 118.78Z" fill="#EAEFF4"/>
<path d="M222.271 118.78C222.385 117.769 223.241 117.005 224.258 117.005H235.761C236.955 117.005 237.882 118.044 237.748 119.23L236.729 128.23C236.615 129.241 235.759 130.005 234.742 130.005H223.239C222.046 130.005 221.118 128.966 221.252 127.78L222.271 118.78Z" fill="#EAEFF4"/>
<path d="M76.271 142.781C76.3854 141.77 77.2408 141.006 78.2583 141.006H89.7608C90.9545 141.006 91.8824 142.045 91.7481 143.231L90.7292 152.231C90.6147 153.242 89.7594 154.006 88.7419 154.006H77.2393C76.0456 154.006 75.1177 152.967 75.252 151.781L76.271 142.781Z" fill="#EAEFF4"/>
<path d="M104.347 142.768C104.468 141.762 105.321 141.006 106.333 141.006H118.746C119.945 141.006 120.874 142.053 120.732 143.244L119.653 152.244C119.532 153.249 118.68 154.006 117.667 154.006H105.254C104.055 154.006 103.126 152.958 103.268 151.768L104.347 142.768Z" fill="#EAEFF4"/>
<path d="M133.271 142.781C133.385 141.77 134.241 141.006 135.258 141.006H146.761C147.955 141.006 148.882 142.045 148.748 143.231L147.729 152.231C147.615 153.242 146.759 154.006 145.742 154.006H134.239C133.046 154.006 132.118 152.967 132.252 151.781L133.271 142.781Z" fill="#EAEFF4"/>
<path d="M161.271 142.781C161.385 141.77 162.241 141.006 163.258 141.006H174.761C175.955 141.006 176.882 142.045 176.748 143.231L175.729 152.231C175.615 153.242 174.759 154.006 173.742 154.006H162.239C161.046 154.006 160.118 152.967 160.252 151.781L161.271 142.781Z" fill="#EAEFF4"/>
<path d="M189.347 142.768C189.468 141.762 190.321 141.006 191.333 141.006H203.746C204.945 141.006 205.874 142.053 205.732 143.244L204.653 152.244C204.532 153.249 203.68 154.006 202.667 154.006H190.254C189.055 154.006 188.126 152.958 188.268 151.768L189.347 142.768Z" fill="#EAEFF4"/>
<path d="M218.271 142.781C218.385 141.77 219.241 141.006 220.258 141.006H231.761C232.955 141.006 233.882 142.045 233.748 143.231L232.729 152.231C232.615 153.242 231.759 154.006 230.742 154.006H219.239C218.046 154.006 217.118 152.967 217.252 151.781L218.271 142.781Z" fill="#EAEFF4"/>
<path d="M72.442 146.268C79.6205 145.491 97.4084 139.707 111.132 122.792" stroke="#B8C0CC" stroke-width="2" stroke-linecap="round"/>
<circle r="4" transform="matrix(-1 0 0 1 110.99 123.004)" fill="#B8C0CC"/>
<path d="M44.9036 190.008H12.753C5.70889 190.008 0 184.298 0 177.253V145.097C0 121.848 18.8404 103.004 42.086 103.004H44.9141C68.1597 103.004 87 121.848 87 145.097V147.925C86.979 171.164 68.1386 190.008 44.9036 190.008Z" fill="white"/>
<path d="M44.9036 190.008H12.753C5.70889 190.008 0 184.298 0 177.253V145.097C0 121.848 18.8404 103.004 42.086 103.004H44.9141C68.1597 103.004 87 121.848 87 145.097V147.925C86.979 171.164 68.1386 190.008 44.9036 190.008Z" fill="white"/>
<path opacity="0.4" d="M12.5287 146.535V176.864C12.5287 184.143 18.43 190.056 25.72 190.056H13.1914C5.90145 190.056 1.14441e-05 184.143 1.14441e-05 176.864V146.535C1.14441e-05 122.497 19.482 103.015 43.5189 103.015C45.6438 103.015 47.7372 103.162 49.7779 103.467C28.718 106.497 12.5287 124.622 12.5287 146.535Z" fill="#B8C0CC" fill-opacity="0.4"/>
<path d="M42.0805 105.107C20.0308 105.107 2.09245 123.044 2.09245 145.092V177.244C2.09245 183.121 6.86621 187.894 12.744 187.894H44.8985C66.9482 187.894 84.8866 169.957 84.8866 147.909V145.081C84.8866 123.033 66.9482 105.096 44.8985 105.096H42.0805V105.107ZM42.0805 103.004H44.909C68.1574 103.004 87 121.845 87 145.092V147.92C87 171.166 68.1574 190.008 44.909 190.008H12.7545C5.70959 190.008 7.62939e-06 184.298 7.62939e-06 177.254V145.102C-0.0105057 121.845 18.8322 103.004 42.0805 103.004Z" fill="#B8C0CC"/>
<path d="M59.5922 131.725C59.5922 129.127 61.7037 127.021 64.3084 127.021C66.9131 127.021 69.0246 129.127 69.0246 131.725" stroke="#B8C0CC" stroke-width="2" stroke-linecap="round"/>
<path d="M39.1765 152.63C39.7123 157.062 41.8552 167.445 46.1412 173.524" stroke="#B8C0CC" stroke-width="2" stroke-linecap="round"/>
<circle r="3.91765" transform="matrix(-1 0 0 1 45.7058 173.089)" fill="#B8C0CC"/>
<path d="M99.5001 22C100.052 22 100.5 21.5523 100.5 21C100.5 20.4477 100.052 20 99.5001 20V22ZM99.5001 20C95.5041 20 92.0001 16.1291 92.0001 11H90.0001C90.0001 16.9166 94.1071 22 99.5001 22V20ZM92.0001 11C92.0001 5.87088 95.5041 2 99.5001 2V0C94.1071 0 90.0001 5.08342 90.0001 11H92.0001ZM99.5001 2C103.496 2 107 5.87088 107 11H109C109 5.08342 104.893 0 99.5001 0V2Z" fill="#B8C0CC"/>
<path d="M130 22C130.552 22 131 21.5523 131 21C131 20.4477 130.552 20 130 20V22ZM130 20C126.331 20 123 16.1903 123 11H121C121 16.8554 124.833 22 130 22V20ZM123 11C123 5.80967 126.331 2 130 2V0C124.833 0 121 5.14463 121 11H123ZM130 2C133.669 2 137 5.80967 137 11H139C139 5.14463 135.167 0 130 0V2Z" fill="#B8C0CC"/>
<path d="M161.5 22C162.052 22 162.5 21.5523 162.5 21C162.5 20.4477 162.052 20 161.5 20V22ZM161.5 20C157.504 20 154 16.1291 154 11H152C152 16.9166 156.107 22 161.5 22V20ZM154 11C154 5.87088 157.504 2 161.5 2V0C156.107 0 152 5.08342 152 11H154ZM161.5 2C165.496 2 169 5.87088 169 11H171C171 5.08342 166.893 0 161.5 0V2Z" fill="#B8C0CC"/>
<path d="M192 22C192.552 22 193 21.5523 193 21C193 20.4477 192.552 20 192 20V22ZM192 20C188.331 20 185 16.1903 185 11H183C183 16.8554 186.833 22 192 22V20ZM185 11C185 5.80967 188.331 2 192 2V0C186.833 0 183 5.14463 183 11H185ZM192 2C195.669 2 199 5.80967 199 11H201C201 5.14463 197.167 0 192 0V2Z" fill="#B8C0CC"/>
<path d="M222.5 22C223.052 22 223.5 21.5523 223.5 21C223.5 20.4477 223.052 20 222.5 20V22ZM222.5 20C218.504 20 215 16.1291 215 11H213C213 16.9166 217.107 22 222.5 22V20ZM215 11C215 5.87088 218.504 2 222.5 2V0C217.107 0 213 5.08342 213 11H215ZM222.5 2C226.496 2 230 5.87088 230 11H232C232 5.08342 227.893 0 222.5 0V2Z" fill="#B8C0CC"/>
<path d="M253 22C253.552 22 254 21.5523 254 21C254 20.4477 253.552 20 253 20V22ZM253 20C249.331 20 246 16.1903 246 11H244C244 16.8554 247.833 22 253 22V20ZM246 11C246 5.80967 249.331 2 253 2V0C247.833 0 244 5.14463 244 11H246ZM253 2C256.669 2 260 5.80967 260 11H262C262 5.14463 258.167 0 253 0V2Z" fill="#B8C0CC"/>
</svg>
