<svg width="64" height="64" viewBox="0 0 64 64" fill="none" xmlns="http://www.w3.org/2000/svg">
<circle cx="32" cy="32" r="32" fill="#F0F4F7"/>
<path d="M35.3637 51.6358C35.5393 50.6878 36.3662 50 37.3303 50H40.6697C41.6338 50 42.4607 50.6878 42.6363 51.6358L43.5622 56.6358C43.7899 57.8654 42.8461 59 41.5956 59H36.4044C35.1539 59 34.2101 57.8654 34.4378 56.6358L35.3637 51.6358Z" fill="white" stroke="#B8C0CC" stroke-width="2"/>
<rect x="15" y="20" width="48" height="30" rx="4" fill="white" stroke="#B8C0CC" stroke-width="2"/>
<path d="M15 24C15 21.7909 16.7909 20 19 20H59C61.2091 20 63 21.7909 63 24V44H15V24Z" fill="white" stroke="#B8C0CC" stroke-width="2"/>
<path d="M47.06 27.0133V33V33.94H48H53.9867C53.8509 34.8044 53.529 35.633 53.0387 36.3668C52.3728 37.3633 51.4264 38.14 50.3191 38.5987C49.2118 39.0574 47.9933 39.1774 46.8177 38.9436C45.6422 38.7097 44.5624 38.1326 43.7149 37.2851C42.8674 36.4376 42.2903 35.3578 42.0564 34.1823C41.8226 33.0067 41.9426 31.7882 42.4013 30.6809C42.86 29.5736 43.6367 28.6272 44.6332 27.9613C45.367 27.471 46.1956 27.1491 47.06 27.0133Z" fill="white" stroke="#B8C0CC" stroke-width="1.88" stroke-miterlimit="10" stroke-linecap="round"/>
<path d="M50.94 25.0134C52.1991 25.2111 53.3726 25.8025 54.2851 26.715C55.1976 27.6275 55.789 28.801 55.9867 30.06H50.94V25.0134Z" stroke="#53A1FF" stroke-width="1.88" stroke-miterlimit="10" stroke-linecap="round"/>
<circle cx="29.5" cy="27.5" r="2.5" fill="white" stroke="#53A1FF" stroke-width="2"/>
<path d="M36.773 38.2835C36.8189 38.4535 36.7789 38.6002 36.6559 38.7338C36.5195 38.8818 36.2831 39 36 39H23C22.7169 39 22.4805 38.8818 22.3441 38.7338C22.2211 38.6002 22.1811 38.4535 22.227 38.2835C23.0377 35.2823 25.9565 33 29.5 33C33.0435 33 35.9623 35.2823 36.773 38.2835L37.7384 38.0227L36.773 38.2835Z" fill="white" stroke="#53A1FF" stroke-width="2"/>
<path d="M27 59H51" stroke="#B8C0CC" stroke-width="2" stroke-linecap="round"/>
</svg>
