<svg width="100" height="65" viewBox="0 0 100 65" fill="none" xmlns="http://www.w3.org/2000/svg">
<path d="M50.0004 35.8643H11.6069V47.5685" stroke="#B8C0CC" stroke-width="2" stroke-linecap="round" stroke-linejoin="round"/>
<path d="M50.0005 35.8643H88.4403V47.589" stroke="#B8C0CC" stroke-width="2" stroke-linecap="round" stroke-linejoin="round"/>
<path d="M78.3628 48.5684H98.4248C98.759 48.5684 99 48.8301 99 49.1163V63.452C99 63.7382 98.759 64 98.4248 64H78.3628C78.0286 64 77.7876 63.7382 77.7876 63.452V49.1163C77.7876 48.8301 78.0286 48.5684 78.3628 48.5684Z" stroke="#B8C0CC" stroke-width="2" stroke-linecap="round" stroke-linejoin="round"/>
<path d="M1.57525 48.5684H21.6372C21.9714 48.5684 22.2124 48.8301 22.2124 49.1163V63.452C22.2124 63.7382 21.9714 64 21.6372 64H1.57525C1.24099 64 1 63.7382 1 63.452V49.1163C1 48.8301 1.24099 48.5684 1.57525 48.5684Z" stroke="#B8C0CC" stroke-width="2" stroke-linecap="round" stroke-linejoin="round"/>
<path d="M50.0005 47.3441V27.251V47.3441Z" fill="white"/>
<path d="M50.0005 47.3441V27.251" stroke="#53A1FF" stroke-width="2" stroke-linecap="round"/>
<path d="M39.9698 48.5684H60.0317C60.366 48.5684 60.607 48.8301 60.607 49.1163V63.452C60.607 63.7382 60.366 64 60.0317 64H39.9698C39.6355 64 39.3945 63.7382 39.3945 63.452V49.1163C39.3945 48.8301 39.6355 48.5684 39.9698 48.5684Z" stroke="#B8C0CC" stroke-width="2" stroke-linecap="round" stroke-linejoin="round"/>
<path d="M65.047 1H34.9531C33.6484 1 32.5908 2.03934 32.5908 3.32143V24.8265C32.5908 26.1085 33.6484 27.1479 34.9531 27.1479H65.047C66.3517 27.1479 67.4094 26.1085 67.4094 24.8265V3.32143C67.4094 2.03934 66.3517 1 65.047 1Z" stroke="#B8C0CC" stroke-width="2" stroke-linecap="round" stroke-linejoin="round"/>
</svg>
