<svg width="78" height="66" viewBox="0 0 78 66" fill="none" xmlns="http://www.w3.org/2000/svg">
<path d="M63.4 48.2003C67.3764 48.2003 70.6 44.9767 70.6 41.0003C70.6 37.0238 67.3764 33.8003 63.4 33.8003C59.4235 33.8003 56.2 37.0238 56.2 41.0003C56.2 44.9767 59.4235 48.2003 63.4 48.2003Z" fill="white" stroke="#B8C0CC" stroke-width="2" stroke-miterlimit="10" stroke-linecap="round"/>
<path d="M14.6 48.2003C18.5765 48.2003 21.8 44.9767 21.8 41.0003C21.8 37.0238 18.5765 33.8003 14.6 33.8003C10.6236 33.8003 7.4 37.0238 7.4 41.0003C7.4 44.9767 10.6236 48.2003 14.6 48.2003Z" fill="white" stroke="#B8C0CC" stroke-width="2" stroke-miterlimit="10" stroke-linecap="round"/>
<path d="M75.998 65.0003C76.5503 65.0003 76.998 64.5526 76.998 64.0003V63.1221C77.0287 61.3833 76.6995 59.6561 76.0299 58.0412C75.3603 56.4263 74.3636 54.956 73.0978 53.7159C71.8321 52.4759 70.3227 51.491 68.6577 50.8187C66.9927 50.1464 65.2053 49.8003 63.3999 49.8003C61.5945 49.8003 59.8073 50.1464 58.1423 50.8187C56.4773 51.491 54.9678 52.4759 53.7021 53.7159C52.4363 54.956 51.4396 56.4263 50.77 58.0412C50.1003 59.6561 49.7713 61.3833 49.802 63.1221V64.0003" fill="white" stroke="#B8C0CC" stroke-width="2" stroke-miterlimit="10" stroke-linecap="round"/>
<path d="M27.198 65.0003C27.7503 65.0003 28.198 64.5526 28.198 64.0003V63.1221C28.2287 61.3833 27.8995 59.6561 27.2299 58.0412C26.5603 56.4263 25.5636 54.956 24.2978 53.7159C23.0321 52.4759 21.5227 51.491 19.8577 50.8187C18.1927 50.1464 16.4053 49.8003 14.5999 49.8003C12.7945 49.8003 11.0073 50.1464 9.34229 50.8187C7.67727 51.491 6.16779 52.4759 4.90206 53.7159C3.63632 54.956 2.63959 56.4263 1.96997 58.0412C1.30035 59.6561 0.971334 61.3833 1.00196 63.1221V64.0003" fill="white" stroke="#B8C0CC" stroke-width="2" stroke-miterlimit="10" stroke-linecap="round"/>
<path d="M38.8101 39.9032C47.9881 39.9032 55.4284 32.4376 55.4284 23.2284C55.4284 14.0192 47.9881 6.55371 38.8101 6.55371C29.6321 6.55371 22.1918 14.0192 22.1918 23.2284C22.1918 32.4376 29.6321 39.9032 38.8101 39.9032Z" fill="#FCFDFF" stroke="#B8C0CC" stroke-width="2" stroke-miterlimit="10"/>
<path d="M17.7826 16.1954C20.7183 7.37143 29.021 1 38.8109 1C48.6138 1 56.9294 7.38441 59.8521 16.2343" stroke="#B8C0CC" stroke-width="2" stroke-miterlimit="10"/>
<path d="M16.8115 29.8081C15.5958 29.8081 14.6 28.8089 14.6 27.5891V18.6614C14.6 17.4416 15.5958 16.4424 16.8115 16.4424C18.0271 16.4424 19.0229 17.4416 19.0229 18.6614V27.5891C19.0229 28.8089 18.0271 29.8081 16.8115 29.8081Z" stroke="#B8C0CC" stroke-width="2" stroke-miterlimit="10"/>
<path d="M60.9504 29.8081C59.7347 29.8081 58.7389 28.8089 58.7389 27.5891V18.6614C58.7389 17.4416 59.7347 16.4424 60.9504 16.4424C62.166 16.4424 63.1618 17.4416 63.1618 18.6614V27.5891C63.1618 28.8089 62.166 29.8081 60.9504 29.8081Z" stroke="#B8C0CC" stroke-width="2" stroke-miterlimit="10"/>
<path d="M61.9166 64.9999C61.9901 64.9999 62.0497 64.9403 62.0497 64.8668V64.8668C62.0497 53.4736 52.8137 44.2421 41.4205 44.2508C39.7231 44.2521 38.0258 44.2532 36.3285 44.254C24.9441 44.2594 15.6995 53.4819 15.6995 64.8663V64.8663C15.6995 64.9401 15.7593 64.9999 15.8331 64.9999H61.9166Z" fill="#FCFDFF" stroke="#B8C0CC" stroke-width="2" stroke-miterlimit="10"/>
<path d="M54.5222 36.4386C54.5222 36.4386 60.9497 36.192 60.9497 29.8076" stroke="#B8C0CC" stroke-width="2" stroke-miterlimit="10"/>
<path d="M54.5224 35.3357V37.5417C54.5224 38.7615 53.5266 39.7606 52.3109 39.7606H45.3273C44.1117 39.7606 43.1159 38.7615 43.1159 37.5417V35.3357C43.1159 34.1159 44.1117 33.1167 45.3273 33.1167H52.3109C53.5266 33.1167 54.5224 34.1159 54.5224 35.3357Z" fill="white" stroke="#53A1FF" stroke-width="2" stroke-miterlimit="10"/>
</svg>
