<svg width="570" height="427" viewBox="0 0 570 427" fill="none" xmlns="http://www.w3.org/2000/svg">
<rect x="126.006" y="67.688" width="347.282" height="343.605" rx="15" fill="white" stroke="#B8C0CC" stroke-width="2"/>
<rect x="459.582" y="154.928" width="7.35331" height="51.4731" rx="3.67665" fill="#EAEFF4"/>
<rect x="144.389" y="86.0713" width="306.839" height="73.3714" rx="7" fill="white" stroke="#EAEFF4" stroke-width="2"/>
<rect width="83.6439" height="22.0599" rx="4" transform="matrix(1 0 0 -1 350.201 142.059)" fill="#EAEFF4"/>
<rect x="1" y="-1" width="64.1798" height="20.0599" rx="3" transform="matrix(1 0 0 -1 269.315 140.059)" fill="white" stroke="#EAEFF4" stroke-width="2"/>
<path d="M370.512 133.369C370.512 134.173 369.948 134.641 369.024 134.641H367.176V132.037H368.976C369.888 132.037 370.512 132.541 370.512 133.369ZM370.296 129.733C370.296 130.501 369.756 130.921 368.868 130.921H367.176V128.533H368.868C369.756 128.533 370.296 128.977 370.296 129.733ZM371.88 133.513C371.88 132.517 371.16 131.629 370.272 131.473C371.076 131.185 371.688 130.573 371.688 129.565C371.688 128.389 370.752 127.417 368.988 127.417H365.808V135.757H369.144C370.848 135.757 371.88 134.785 371.88 133.513ZM379.666 132.445C379.666 130.369 378.178 129.037 376.294 129.037C374.41 129.037 372.922 130.369 372.922 132.445C372.922 134.521 374.35 135.865 376.234 135.865C378.13 135.865 379.666 134.521 379.666 132.445ZM374.314 132.445C374.314 130.945 375.238 130.225 376.27 130.225C377.29 130.225 378.262 130.945 378.262 132.445C378.262 133.945 377.254 134.677 376.234 134.677C375.202 134.677 374.314 133.945 374.314 132.445ZM387.319 132.445C387.319 130.369 385.831 129.037 383.947 129.037C382.063 129.037 380.575 130.369 380.575 132.445C380.575 134.521 382.003 135.865 383.887 135.865C385.783 135.865 387.319 134.521 387.319 132.445ZM381.967 132.445C381.967 130.945 382.891 130.225 383.923 130.225C384.943 130.225 385.915 130.945 385.915 132.445C385.915 133.945 384.907 134.677 383.887 134.677C382.855 134.677 381.967 133.945 381.967 132.445ZM388.671 135.757H390.039V132.913L392.487 135.757H394.335L391.287 132.457L394.335 129.145H392.439L390.039 132.037V126.877H388.671V135.757ZM403.917 127.405V133.621L399.801 127.405H398.433V135.757H399.801V129.529L403.917 135.757H405.285V127.405H403.917ZM413.381 132.445C413.381 130.369 411.893 129.037 410.009 129.037C408.125 129.037 406.637 130.369 406.637 132.445C406.637 134.521 408.065 135.865 409.949 135.865C411.845 135.865 413.381 134.521 413.381 132.445ZM408.029 132.445C408.029 130.945 408.953 130.225 409.985 130.225C411.005 130.225 411.977 130.945 411.977 132.445C411.977 133.945 410.969 134.677 409.949 134.677C408.917 134.677 408.029 133.945 408.029 132.445ZM416.018 135.757H417.458L418.79 130.873L420.122 135.757H421.562L423.614 129.145H422.27L420.902 134.437L419.558 129.145H418.13L416.726 134.461L415.346 129.145H413.954L416.018 135.757Z" fill="white"/>
<rect x="191.186" y="119.999" width="58.8265" height="7.35331" rx="3.67665" fill="#EAEFF4"/>
<rect x="191.186" y="134.706" width="44.1198" height="7.35331" rx="3.67665" fill="#EAEFF4"/>
<rect x="161.773" y="119.999" width="22.0599" height="22.0599" rx="11.03" fill="#EAEFF4"/>
<rect x="143.389" y="85.0713" width="308.839" height="49.6348" rx="8" fill="url(#paint0_linear)"/>
<rect x="144.389" y="319.539" width="306.839" height="73.3714" rx="7" fill="white" stroke="#EAEFF4" stroke-width="2"/>
<path d="M166.293 359.325H162.543V366.305H166.293V365.555H163.453V363.155H165.993V362.405H163.453V360.075H166.293V359.325ZM167.02 360.825L169.17 366.305H170.23L172.38 360.825H171.41L169.71 365.465L168 360.825H167.02ZM175.605 361.505C176.545 361.505 177.345 362.095 177.335 363.165H173.875C173.975 362.095 174.715 361.505 175.605 361.505ZM178.165 364.615H177.185C176.985 365.205 176.465 365.625 175.645 365.625C174.715 365.625 173.935 365.015 173.865 363.905H178.245C178.265 363.715 178.275 363.555 178.275 363.355C178.275 361.855 177.235 360.735 175.645 360.735C174.045 360.735 172.935 361.825 172.935 363.555C172.935 365.295 174.085 366.395 175.645 366.395C177.005 366.395 177.885 365.615 178.165 364.615ZM183.486 366.305H184.386V363.075C184.386 361.505 183.416 360.725 182.146 360.725C181.406 360.725 180.746 361.035 180.386 361.605V360.825H179.476V366.305H180.386V363.275C180.386 362.095 181.026 361.515 181.956 361.515C182.876 361.515 183.486 362.085 183.486 363.205V366.305ZM186.073 364.805C186.073 365.905 186.623 366.305 187.593 366.305H188.413V365.535H187.743C187.183 365.535 186.983 365.345 186.983 364.805V361.575H188.413V360.825H186.983V359.445H186.073V360.825H185.363V361.575H186.073V364.805ZM196.751 359.325V364.865L193.091 359.325H192.181V366.305H193.091V360.755L196.751 366.305H197.661V359.325H196.751ZM198.873 363.545C198.873 365.245 200.003 366.395 201.463 366.395C202.473 366.395 203.183 365.875 203.513 365.285V366.305H204.433V360.825H203.513V361.825C203.193 361.255 202.493 360.735 201.473 360.735C200.003 360.735 198.873 361.835 198.873 363.545ZM203.513 363.555C203.513 364.845 202.653 365.595 201.653 365.595C200.653 365.595 199.803 364.835 199.803 363.545C199.803 362.255 200.653 361.525 201.653 361.525C202.653 361.525 203.513 362.285 203.513 363.555ZM213.88 366.305H214.78V363.075C214.78 361.505 213.81 360.725 212.56 360.725C211.72 360.725 210.94 361.155 210.62 361.945C210.26 361.125 209.51 360.725 208.61 360.725C207.89 360.725 207.24 361.035 206.88 361.615V360.825H205.97V366.305H206.88V363.285C206.88 362.105 207.51 361.515 208.43 361.515C209.33 361.515 209.93 362.085 209.93 363.205V366.305H210.83V363.285C210.83 362.105 211.46 361.515 212.38 361.515C213.28 361.515 213.88 362.085 213.88 363.205V366.305ZM218.603 361.505C219.543 361.505 220.343 362.095 220.333 363.165H216.873C216.973 362.095 217.713 361.505 218.603 361.505ZM221.163 364.615H220.183C219.983 365.205 219.463 365.625 218.643 365.625C217.713 365.625 216.933 365.015 216.863 363.905H221.243C221.263 363.715 221.273 363.555 221.273 363.355C221.273 361.855 220.233 360.735 218.643 360.735C217.043 360.735 215.933 361.825 215.933 363.555C215.933 365.295 217.083 366.395 218.643 366.395C220.003 366.395 220.883 365.615 221.163 364.615Z" fill="#B8C0CC"/>
<path d="M162.113 341.692H164.023V347.922H164.933V341.692H166.833V340.952H162.113V341.692ZM173.153 345.172C173.153 343.442 171.943 342.352 170.383 342.352C168.833 342.352 167.613 343.442 167.613 345.172C167.613 346.912 168.793 348.012 170.343 348.012C171.903 348.012 173.153 346.912 173.153 345.172ZM168.543 345.172C168.543 343.792 169.413 343.142 170.373 343.142C171.313 343.142 172.223 343.792 172.223 345.172C172.223 346.562 171.293 347.212 170.343 347.212C169.393 347.212 168.543 346.562 168.543 345.172ZM182.259 347.922H183.159V344.692C183.159 343.122 182.189 342.342 180.939 342.342C180.099 342.342 179.319 342.772 178.999 343.562C178.639 342.742 177.889 342.342 176.989 342.342C176.269 342.342 175.619 342.652 175.259 343.232V342.442H174.349V347.922H175.259V344.902C175.259 343.722 175.889 343.132 176.809 343.132C177.709 343.132 178.309 343.702 178.309 344.822V347.922H179.209V344.902C179.209 343.722 179.839 343.132 180.759 343.132C181.659 343.132 182.259 343.702 182.259 344.822V347.922ZM189.852 345.172C189.852 343.442 188.642 342.352 187.082 342.352C185.532 342.352 184.312 343.442 184.312 345.172C184.312 346.912 185.492 348.012 187.042 348.012C188.602 348.012 189.852 346.912 189.852 345.172ZM185.242 345.172C185.242 343.792 186.112 343.142 187.072 343.142C188.012 343.142 188.922 343.792 188.922 345.172C188.922 346.562 187.992 347.212 187.042 347.212C186.092 347.212 185.242 346.562 185.242 345.172ZM191.959 344.942C191.959 343.672 192.619 343.282 193.489 343.282H193.729V342.342C192.859 342.342 192.269 342.722 191.959 343.332V342.442H191.049V347.922H191.959V344.942ZM195.689 344.942C195.689 343.672 196.349 343.282 197.219 343.282H197.459V342.342C196.589 342.342 195.999 342.722 195.689 343.332V342.442H194.779V347.922H195.689V344.942ZM203.71 345.172C203.71 343.442 202.5 342.352 200.94 342.352C199.39 342.352 198.17 343.442 198.17 345.172C198.17 346.912 199.35 348.012 200.9 348.012C202.46 348.012 203.71 346.912 203.71 345.172ZM199.1 345.172C199.1 343.792 199.97 343.142 200.93 343.142C201.87 343.142 202.78 343.792 202.78 345.172C202.78 346.562 201.85 347.212 200.9 347.212C199.95 347.212 199.1 346.562 199.1 345.172ZM205.976 347.922H206.916L208.236 343.572L209.556 347.922H210.496L212.206 342.442H211.306L210.066 347.052L208.736 342.442H207.806L206.446 347.042L205.186 342.442H204.256L205.976 347.922Z" fill="#B8C0CC"/>
<path d="M163.113 388.365H164.033V381.135H162.153V381.965H163.113V388.365ZM165.596 384.675C165.596 386.775 166.116 388.365 168.116 388.365C170.106 388.365 170.626 386.775 170.626 384.675C170.626 382.605 170.106 381.025 168.116 381.025C166.116 381.025 165.596 382.605 165.596 384.675ZM169.726 384.675C169.726 386.235 169.536 387.535 168.116 387.535C166.686 387.535 166.496 386.235 166.496 384.675C166.496 383.175 166.686 381.855 168.116 381.855C169.536 381.855 169.726 383.175 169.726 384.675ZM172.915 387.805C172.915 387.455 172.645 387.185 172.315 387.185C171.965 387.185 171.695 387.455 171.695 387.805C171.695 388.155 171.965 388.425 172.315 388.425C172.645 388.425 172.915 388.155 172.915 387.805ZM172.915 383.525C172.915 383.175 172.645 382.905 172.315 382.905C171.965 382.905 171.695 383.175 171.695 383.525C171.695 383.875 171.965 384.145 172.315 384.145C172.645 384.145 172.915 383.875 172.915 383.525ZM174.004 384.675C174.004 386.775 174.524 388.365 176.524 388.365C178.514 388.365 179.034 386.775 179.034 384.675C179.034 382.605 178.514 381.025 176.524 381.025C174.524 381.025 174.004 382.605 174.004 384.675ZM178.134 384.675C178.134 386.235 177.944 387.535 176.524 387.535C175.094 387.535 174.904 386.235 174.904 384.675C174.904 383.175 175.094 381.855 176.524 381.855C177.944 381.855 178.134 383.175 178.134 384.675ZM180.283 384.675C180.283 386.775 180.803 388.365 182.803 388.365C184.793 388.365 185.313 386.775 185.313 384.675C185.313 382.605 184.793 381.025 182.803 381.025C180.803 381.025 180.283 382.605 180.283 384.675ZM184.413 384.675C184.413 386.235 184.223 387.535 182.803 387.535C181.373 387.535 181.183 386.235 181.183 384.675C181.183 383.175 181.373 381.855 182.803 381.855C184.223 381.855 184.413 383.175 184.413 384.675ZM186.373 385.605C186.373 387.305 187.503 388.455 188.963 388.455C189.973 388.455 190.683 387.935 191.013 387.345V388.365H191.933V382.885H191.013V383.885C190.693 383.315 189.993 382.795 188.973 382.795C187.503 382.795 186.373 383.895 186.373 385.605ZM191.013 385.615C191.013 386.905 190.153 387.655 189.153 387.655C188.153 387.655 187.303 386.895 187.303 385.605C187.303 384.315 188.153 383.585 189.153 383.585C190.153 383.585 191.013 384.345 191.013 385.615ZM201.38 388.365H202.28V385.135C202.28 383.565 201.31 382.785 200.06 382.785C199.22 382.785 198.44 383.215 198.12 384.005C197.76 383.185 197.01 382.785 196.11 382.785C195.39 382.785 194.74 383.095 194.38 383.675V382.885H193.47V388.365H194.38V385.345C194.38 384.165 195.01 383.575 195.93 383.575C196.83 383.575 197.43 384.145 197.43 385.265V388.365H198.33V385.345C198.33 384.165 198.96 383.575 199.88 383.575C200.78 383.575 201.38 384.145 201.38 385.265V388.365Z" fill="#B8C0CC"/>
<path d="M255.242 388.365H256.152V381.395H255.242V384.455H251.692V381.395H250.782V388.365H251.692V385.205H255.242V388.365ZM262.896 385.615C262.896 383.885 261.686 382.795 260.126 382.795C258.576 382.795 257.356 383.885 257.356 385.615C257.356 387.355 258.536 388.455 260.086 388.455C261.646 388.455 262.896 387.355 262.896 385.615ZM258.286 385.615C258.286 384.235 259.156 383.585 260.116 383.585C261.056 383.585 261.966 384.235 261.966 385.615C261.966 387.005 261.036 387.655 260.086 387.655C259.136 387.655 258.286 387.005 258.286 385.615ZM265.003 383.905V380.965H264.093V388.365H265.003V387.355C265.343 387.955 266.053 388.455 267.053 388.455C268.523 388.455 269.653 387.305 269.653 385.605C269.653 383.895 268.533 382.795 267.053 382.795C266.083 382.795 265.353 383.295 265.003 383.905ZM268.723 385.605C268.723 386.895 267.873 387.655 266.863 387.655C265.873 387.655 265.003 386.905 265.003 385.615C265.003 384.345 265.873 383.585 266.863 383.585C267.873 383.585 268.723 384.315 268.723 385.605ZM271.761 383.905V380.965H270.851V388.365H271.761V387.355C272.101 387.955 272.811 388.455 273.811 388.455C275.281 388.455 276.411 387.305 276.411 385.605C276.411 383.895 275.291 382.795 273.811 382.795C272.841 382.795 272.111 383.295 271.761 383.905ZM275.481 385.605C275.481 386.895 274.631 387.655 273.621 387.655C272.631 387.655 271.761 386.905 271.761 385.615C271.761 384.345 272.631 383.585 273.621 383.585C274.631 383.585 275.481 384.315 275.481 385.605ZM281.549 386.875C281.509 384.915 278.329 385.625 278.329 384.325C278.329 383.885 278.729 383.565 279.399 383.565C280.129 383.565 280.549 383.965 280.589 384.515H281.499C281.439 383.445 280.639 382.795 279.429 382.795C278.209 382.795 277.419 383.485 277.419 384.325C277.419 386.365 280.659 385.655 280.659 386.875C280.659 387.325 280.259 387.685 279.539 387.685C278.769 387.685 278.299 387.285 278.249 386.755H277.309C277.369 387.755 278.269 388.455 279.549 388.455C280.759 388.455 281.549 387.775 281.549 386.875Z" fill="#B8C0CC"/>
<path d="M333.481 381.385V386.925L329.821 381.385H328.911V388.365H329.821V382.815L333.481 388.365H334.391V381.385H333.481ZM338.273 383.565C339.213 383.565 340.013 384.155 340.003 385.225H336.543C336.643 384.155 337.383 383.565 338.273 383.565ZM340.833 386.675H339.853C339.653 387.265 339.133 387.685 338.313 387.685C337.383 387.685 336.603 387.075 336.533 385.965H340.913C340.933 385.775 340.943 385.615 340.943 385.415C340.943 383.915 339.903 382.795 338.313 382.795C336.713 382.795 335.603 383.885 335.603 385.615C335.603 387.355 336.753 388.455 338.313 388.455C339.673 388.455 340.553 387.675 340.833 386.675ZM341.804 385.605C341.804 387.305 342.934 388.455 344.404 388.455C345.404 388.455 346.114 387.945 346.444 387.335V388.365H347.364V380.965H346.444V383.865C346.064 383.235 345.274 382.795 344.414 382.795C342.934 382.795 341.804 383.895 341.804 385.605ZM346.444 385.615C346.444 386.905 345.584 387.655 344.584 387.655C343.584 387.655 342.734 386.895 342.734 385.605C342.734 384.315 343.584 383.585 344.584 383.585C345.584 383.585 346.444 384.345 346.444 385.615Z" fill="#B8C0CC"/>
<path d="M398.829 389.235H399.369V388.425C400.729 388.335 401.429 387.385 401.429 386.455C401.429 385.065 400.359 384.775 399.369 384.525V382.085C399.979 382.215 400.309 382.665 400.369 383.095H401.339C401.239 382.085 400.509 381.415 399.369 381.315V380.485H398.829V381.315C397.579 381.395 396.759 382.165 396.759 383.245C396.759 384.625 397.829 384.915 398.829 385.175V387.675C398.119 387.565 397.789 387.075 397.739 386.555H396.769C396.789 387.615 397.629 388.315 398.829 388.425V389.235ZM400.519 386.505C400.519 387.105 400.109 387.605 399.369 387.685V385.325C400.009 385.515 400.519 385.795 400.519 386.505ZM397.689 383.195C397.689 382.485 398.159 382.125 398.829 382.065V384.375C398.189 384.175 397.689 383.905 397.689 383.195ZM405.05 389.235H405.59V388.425C406.95 388.335 407.65 387.385 407.65 386.455C407.65 385.065 406.58 384.775 405.59 384.525V382.085C406.2 382.215 406.53 382.665 406.59 383.095H407.56C407.46 382.085 406.73 381.415 405.59 381.315V380.485H405.05V381.315C403.8 381.395 402.98 382.165 402.98 383.245C402.98 384.625 404.05 384.915 405.05 385.175V387.675C404.34 387.565 404.01 387.075 403.96 386.555H402.99C403.01 387.615 403.85 388.315 405.05 388.425V389.235ZM406.74 386.505C406.74 387.105 406.33 387.605 405.59 387.685V385.325C406.23 385.515 406.74 385.795 406.74 386.505ZM403.91 383.195C403.91 382.485 404.38 382.125 405.05 382.065V384.375C404.41 384.175 403.91 383.905 403.91 383.195ZM411.271 389.235H411.811V388.425C413.171 388.335 413.871 387.385 413.871 386.455C413.871 385.065 412.801 384.775 411.811 384.525V382.085C412.421 382.215 412.751 382.665 412.811 383.095H413.781C413.681 382.085 412.951 381.415 411.811 381.315V380.485H411.271V381.315C410.021 381.395 409.201 382.165 409.201 383.245C409.201 384.625 410.271 384.915 411.271 385.175V387.675C410.561 387.565 410.231 387.075 410.181 386.555H409.211C409.231 387.615 410.071 388.315 411.271 388.425V389.235ZM412.961 386.505C412.961 387.105 412.551 387.605 411.811 387.685V385.325C412.451 385.515 412.961 385.795 412.961 386.505ZM410.131 383.195C410.131 382.485 410.601 382.125 411.271 382.065V384.375C410.631 384.175 410.131 383.905 410.131 383.195ZM417.491 389.235H418.031V388.425C419.391 388.335 420.091 387.385 420.091 386.455C420.091 385.065 419.021 384.775 418.031 384.525V382.085C418.641 382.215 418.971 382.665 419.031 383.095H420.001C419.901 382.085 419.171 381.415 418.031 381.315V380.485H417.491V381.315C416.241 381.395 415.421 382.165 415.421 383.245C415.421 384.625 416.491 384.915 417.491 385.175V387.675C416.781 387.565 416.451 387.075 416.401 386.555H415.431C415.451 387.615 416.291 388.315 417.491 388.425V389.235ZM419.181 386.505C419.181 387.105 418.771 387.605 418.031 387.685V385.325C418.671 385.515 419.181 385.795 419.181 386.505ZM416.351 383.195C416.351 382.485 416.821 382.125 417.491 382.065V384.375C416.851 384.175 416.351 383.905 416.351 383.195Z" fill="#B8C0CC"/>
<rect x="143.389" y="344.275" width="308.839" height="49.6348" rx="8" fill="url(#paint1_linear)"/>
<rect x="144.389" y="176.149" width="306.839" height="126.683" rx="7" fill="white" stroke="#B8C0CC" stroke-width="2"/>
<rect x="1" y="-1" width="81.6439" height="20.0599" rx="3" transform="matrix(1 0 0 -1 350.201 283.449)" fill="#EAEFF4" stroke="#B8C0CC" stroke-width="2"/>
<rect x="1" y="-1" width="64.1798" height="20.0599" rx="3" transform="matrix(1 0 0 -1 269.315 283.449)" fill="white" stroke="#EAEFF4" stroke-width="2"/>
<path d="M370.512 276.758C370.512 277.562 369.948 278.03 369.024 278.03H367.176V275.426H368.976C369.888 275.426 370.512 275.93 370.512 276.758ZM370.296 273.122C370.296 273.89 369.756 274.31 368.868 274.31H367.176V271.922H368.868C369.756 271.922 370.296 272.366 370.296 273.122ZM371.88 276.902C371.88 275.906 371.16 275.018 370.272 274.862C371.076 274.574 371.688 273.962 371.688 272.954C371.688 271.778 370.752 270.806 368.988 270.806H365.808V279.146H369.144C370.848 279.146 371.88 278.174 371.88 276.902ZM379.666 275.834C379.666 273.758 378.178 272.426 376.294 272.426C374.41 272.426 372.922 273.758 372.922 275.834C372.922 277.91 374.35 279.254 376.234 279.254C378.13 279.254 379.666 277.91 379.666 275.834ZM374.314 275.834C374.314 274.334 375.238 273.614 376.27 273.614C377.29 273.614 378.262 274.334 378.262 275.834C378.262 277.334 377.254 278.066 376.234 278.066C375.202 278.066 374.314 277.334 374.314 275.834ZM387.319 275.834C387.319 273.758 385.831 272.426 383.947 272.426C382.063 272.426 380.575 273.758 380.575 275.834C380.575 277.91 382.003 279.254 383.887 279.254C385.783 279.254 387.319 277.91 387.319 275.834ZM381.967 275.834C381.967 274.334 382.891 273.614 383.923 273.614C384.943 273.614 385.915 274.334 385.915 275.834C385.915 277.334 384.907 278.066 383.887 278.066C382.855 278.066 381.967 277.334 381.967 275.834ZM388.671 279.146H390.039V276.302L392.487 279.146H394.335L391.287 275.846L394.335 272.534H392.439L390.039 275.426V270.266H388.671V279.146ZM403.917 270.794V277.01L399.801 270.794H398.433V279.146H399.801V272.918L403.917 279.146H405.285V270.794H403.917ZM413.381 275.834C413.381 273.758 411.893 272.426 410.009 272.426C408.125 272.426 406.637 273.758 406.637 275.834C406.637 277.91 408.065 279.254 409.949 279.254C411.845 279.254 413.381 277.91 413.381 275.834ZM408.029 275.834C408.029 274.334 408.953 273.614 409.985 273.614C411.005 273.614 411.977 274.334 411.977 275.834C411.977 277.334 410.969 278.066 409.949 278.066C408.917 278.066 408.029 277.334 408.029 275.834ZM416.018 279.146H417.458L418.79 274.262L420.122 279.146H421.562L423.614 272.534H422.27L420.902 277.826L419.558 272.534H418.13L416.726 277.85L415.346 272.534H413.954L416.018 279.146Z" fill="#707070"/>
<rect x="191.186" y="263.389" width="58.8265" height="7.35331" rx="3.67665" fill="#EAEFF4"/>
<rect x="191.186" y="278.096" width="44.1198" height="7.35331" rx="3.67665" fill="#EAEFF4"/>
<rect x="161.773" y="263.389" width="22.0599" height="22.0599" rx="11.03" fill="#EAEFF4"/>
<path d="M166.363 215.956H162.523V222.916H166.363V221.986H163.663V219.856H166.063V218.926H163.663V216.886H166.363V215.956ZM167.117 217.406L169.207 222.916H170.567L172.667 217.406H171.457L169.897 221.896L168.337 217.406H167.117ZM175.849 218.276C176.699 218.276 177.369 218.816 177.389 219.666H174.339C174.459 218.796 175.079 218.276 175.849 218.276ZM178.429 221.276H177.199C176.989 221.706 176.599 222.046 175.899 222.046C175.059 222.046 174.409 221.496 174.329 220.586H178.539C178.569 220.396 178.579 220.216 178.579 220.026C178.579 218.406 177.469 217.316 175.899 217.316C174.269 217.316 173.149 218.426 173.149 220.156C173.149 221.886 174.319 223.006 175.899 223.006C177.249 223.006 178.119 222.236 178.429 221.276ZM183.61 222.916H184.74V219.666C184.74 218.126 183.77 217.316 182.48 217.316C181.82 217.316 181.21 217.586 180.84 218.036V217.406H179.7V222.916H180.84V219.836C180.84 218.826 181.39 218.306 182.23 218.306C183.06 218.306 183.61 218.826 183.61 219.836V222.916ZM186.375 221.386C186.375 222.506 186.985 222.916 187.965 222.916H188.865V221.966H188.165C187.685 221.966 187.525 221.796 187.525 221.386V218.336H188.865V217.406H187.525V216.036H186.375V217.406H185.725V218.336H186.375V221.386ZM197.083 215.956V221.136L193.653 215.956H192.513V222.916H193.653V217.726L197.083 222.916H198.223V215.956H197.083ZM199.34 220.136C199.34 221.836 200.49 223.006 201.92 223.006C202.84 223.006 203.5 222.566 203.85 222.096V222.916H205V217.406H203.85V218.206C203.51 217.756 202.87 217.316 201.94 217.316C200.49 217.316 199.34 218.436 199.34 220.136ZM203.85 220.156C203.85 221.346 203.04 222.016 202.18 222.016C201.33 222.016 200.51 221.326 200.51 220.136C200.51 218.946 201.33 218.306 202.18 218.306C203.04 218.306 203.85 218.976 203.85 220.156ZM214.307 222.916H215.437V219.666C215.437 218.126 214.457 217.316 213.167 217.316C212.367 217.316 211.587 217.736 211.247 218.406C210.867 217.686 210.137 217.316 209.267 217.316C208.607 217.316 208.007 217.586 207.637 218.036V217.406H206.497V222.916H207.637V219.836C207.637 218.826 208.187 218.306 209.027 218.306C209.857 218.306 210.407 218.826 210.407 219.836V222.916H211.537V219.836C211.537 218.826 212.087 218.306 212.927 218.306C213.757 218.306 214.307 218.826 214.307 219.836V222.916ZM219.208 218.276C220.058 218.276 220.728 218.816 220.748 219.666H217.698C217.818 218.796 218.438 218.276 219.208 218.276ZM221.788 221.276H220.558C220.348 221.706 219.958 222.046 219.258 222.046C218.418 222.046 217.768 221.496 217.688 220.586H221.898C221.928 220.396 221.938 220.216 221.938 220.026C221.938 218.406 220.828 217.316 219.258 217.316C217.628 217.316 216.508 218.426 216.508 220.156C216.508 221.886 217.678 223.006 219.258 223.006C220.608 223.006 221.478 222.236 221.788 221.276Z" fill="#707070"/>
<path d="M162.113 198.303H164.023V204.533H164.933V198.303H166.833V197.563H162.113V198.303ZM173.153 201.783C173.153 200.053 171.943 198.963 170.383 198.963C168.833 198.963 167.613 200.053 167.613 201.783C167.613 203.523 168.793 204.623 170.343 204.623C171.903 204.623 173.153 203.523 173.153 201.783ZM168.543 201.783C168.543 200.403 169.413 199.753 170.373 199.753C171.313 199.753 172.223 200.403 172.223 201.783C172.223 203.173 171.293 203.823 170.343 203.823C169.393 203.823 168.543 203.173 168.543 201.783ZM182.259 204.533H183.159V201.303C183.159 199.733 182.189 198.953 180.939 198.953C180.099 198.953 179.319 199.383 178.999 200.173C178.639 199.353 177.889 198.953 176.989 198.953C176.269 198.953 175.619 199.263 175.259 199.843V199.053H174.349V204.533H175.259V201.513C175.259 200.333 175.889 199.743 176.809 199.743C177.709 199.743 178.309 200.313 178.309 201.433V204.533H179.209V201.513C179.209 200.333 179.839 199.743 180.759 199.743C181.659 199.743 182.259 200.313 182.259 201.433V204.533ZM189.852 201.783C189.852 200.053 188.642 198.963 187.082 198.963C185.532 198.963 184.312 200.053 184.312 201.783C184.312 203.523 185.492 204.623 187.042 204.623C188.602 204.623 189.852 203.523 189.852 201.783ZM185.242 201.783C185.242 200.403 186.112 199.753 187.072 199.753C188.012 199.753 188.922 200.403 188.922 201.783C188.922 203.173 187.992 203.823 187.042 203.823C186.092 203.823 185.242 203.173 185.242 201.783ZM191.959 201.553C191.959 200.283 192.619 199.893 193.489 199.893H193.729V198.953C192.859 198.953 192.269 199.333 191.959 199.943V199.053H191.049V204.533H191.959V201.553ZM195.689 201.553C195.689 200.283 196.349 199.893 197.219 199.893H197.459V198.953C196.589 198.953 195.999 199.333 195.689 199.943V199.053H194.779V204.533H195.689V201.553ZM203.71 201.783C203.71 200.053 202.5 198.963 200.94 198.963C199.39 198.963 198.17 200.053 198.17 201.783C198.17 203.523 199.35 204.623 200.9 204.623C202.46 204.623 203.71 203.523 203.71 201.783ZM199.1 201.783C199.1 200.403 199.97 199.753 200.93 199.753C201.87 199.753 202.78 200.403 202.78 201.783C202.78 203.173 201.85 203.823 200.9 203.823C199.95 203.823 199.1 203.173 199.1 201.783ZM205.976 204.533H206.916L208.236 200.183L209.556 204.533H210.496L212.206 199.053H211.306L210.066 203.663L208.736 199.053H207.806L206.446 203.653L205.186 199.053H204.256L205.976 204.533Z" fill="#B8C0CC"/>
<path d="M163.113 244.976H164.033V237.746H162.153V238.576H163.113V244.976ZM165.596 241.286C165.596 243.386 166.116 244.976 168.116 244.976C170.106 244.976 170.626 243.386 170.626 241.286C170.626 239.216 170.106 237.636 168.116 237.636C166.116 237.636 165.596 239.216 165.596 241.286ZM169.726 241.286C169.726 242.846 169.536 244.146 168.116 244.146C166.686 244.146 166.496 242.846 166.496 241.286C166.496 239.786 166.686 238.466 168.116 238.466C169.536 238.466 169.726 239.786 169.726 241.286ZM172.915 244.416C172.915 244.066 172.645 243.796 172.315 243.796C171.965 243.796 171.695 244.066 171.695 244.416C171.695 244.766 171.965 245.036 172.315 245.036C172.645 245.036 172.915 244.766 172.915 244.416ZM172.915 240.136C172.915 239.786 172.645 239.516 172.315 239.516C171.965 239.516 171.695 239.786 171.695 240.136C171.695 240.486 171.965 240.756 172.315 240.756C172.645 240.756 172.915 240.486 172.915 240.136ZM174.004 241.286C174.004 243.386 174.524 244.976 176.524 244.976C178.514 244.976 179.034 243.386 179.034 241.286C179.034 239.216 178.514 237.636 176.524 237.636C174.524 237.636 174.004 239.216 174.004 241.286ZM178.134 241.286C178.134 242.846 177.944 244.146 176.524 244.146C175.094 244.146 174.904 242.846 174.904 241.286C174.904 239.786 175.094 238.466 176.524 238.466C177.944 238.466 178.134 239.786 178.134 241.286ZM180.283 241.286C180.283 243.386 180.803 244.976 182.803 244.976C184.793 244.976 185.313 243.386 185.313 241.286C185.313 239.216 184.793 237.636 182.803 237.636C180.803 237.636 180.283 239.216 180.283 241.286ZM184.413 241.286C184.413 242.846 184.223 244.146 182.803 244.146C181.373 244.146 181.183 242.846 181.183 241.286C181.183 239.786 181.373 238.466 182.803 238.466C184.223 238.466 184.413 239.786 184.413 241.286ZM186.373 242.216C186.373 243.916 187.503 245.066 188.963 245.066C189.973 245.066 190.683 244.546 191.013 243.956V244.976H191.933V239.496H191.013V240.496C190.693 239.926 189.993 239.406 188.973 239.406C187.503 239.406 186.373 240.506 186.373 242.216ZM191.013 242.226C191.013 243.516 190.153 244.266 189.153 244.266C188.153 244.266 187.303 243.506 187.303 242.216C187.303 240.926 188.153 240.196 189.153 240.196C190.153 240.196 191.013 240.956 191.013 242.226ZM201.38 244.976H202.28V241.746C202.28 240.176 201.31 239.396 200.06 239.396C199.22 239.396 198.44 239.826 198.12 240.616C197.76 239.796 197.01 239.396 196.11 239.396C195.39 239.396 194.74 239.706 194.38 240.286V239.496H193.47V244.976H194.38V241.956C194.38 240.776 195.01 240.186 195.93 240.186C196.83 240.186 197.43 240.756 197.43 241.876V244.976H198.33V241.956C198.33 240.776 198.96 240.186 199.88 240.186C200.78 240.186 201.38 240.756 201.38 241.876V244.976Z" fill="#B8C0CC"/>
<path d="M255.242 244.976H256.152V238.006H255.242V241.066H251.692V238.006H250.782V244.976H251.692V241.816H255.242V244.976ZM262.896 242.226C262.896 240.496 261.686 239.406 260.126 239.406C258.576 239.406 257.356 240.496 257.356 242.226C257.356 243.966 258.536 245.066 260.086 245.066C261.646 245.066 262.896 243.966 262.896 242.226ZM258.286 242.226C258.286 240.846 259.156 240.196 260.116 240.196C261.056 240.196 261.966 240.846 261.966 242.226C261.966 243.616 261.036 244.266 260.086 244.266C259.136 244.266 258.286 243.616 258.286 242.226ZM265.003 240.516V237.576H264.093V244.976H265.003V243.966C265.343 244.566 266.053 245.066 267.053 245.066C268.523 245.066 269.653 243.916 269.653 242.216C269.653 240.506 268.533 239.406 267.053 239.406C266.083 239.406 265.353 239.906 265.003 240.516ZM268.723 242.216C268.723 243.506 267.873 244.266 266.863 244.266C265.873 244.266 265.003 243.516 265.003 242.226C265.003 240.956 265.873 240.196 266.863 240.196C267.873 240.196 268.723 240.926 268.723 242.216ZM271.761 240.516V237.576H270.851V244.976H271.761V243.966C272.101 244.566 272.811 245.066 273.811 245.066C275.281 245.066 276.411 243.916 276.411 242.216C276.411 240.506 275.291 239.406 273.811 239.406C272.841 239.406 272.111 239.906 271.761 240.516ZM275.481 242.216C275.481 243.506 274.631 244.266 273.621 244.266C272.631 244.266 271.761 243.516 271.761 242.226C271.761 240.956 272.631 240.196 273.621 240.196C274.631 240.196 275.481 240.926 275.481 242.216ZM281.549 243.486C281.509 241.526 278.329 242.236 278.329 240.936C278.329 240.496 278.729 240.176 279.399 240.176C280.129 240.176 280.549 240.576 280.589 241.126H281.499C281.439 240.056 280.639 239.406 279.429 239.406C278.209 239.406 277.419 240.096 277.419 240.936C277.419 242.976 280.659 242.266 280.659 243.486C280.659 243.936 280.259 244.296 279.539 244.296C278.769 244.296 278.299 243.896 278.249 243.366H277.309C277.369 244.366 278.269 245.066 279.549 245.066C280.759 245.066 281.549 244.386 281.549 243.486Z" fill="#B8C0CC"/>
<path d="M333.481 237.996V243.536L329.821 237.996H328.911V244.976H329.821V239.426L333.481 244.976H334.391V237.996H333.481ZM338.273 240.176C339.213 240.176 340.013 240.766 340.003 241.836H336.543C336.643 240.766 337.383 240.176 338.273 240.176ZM340.833 243.286H339.853C339.653 243.876 339.133 244.296 338.313 244.296C337.383 244.296 336.603 243.686 336.533 242.576H340.913C340.933 242.386 340.943 242.226 340.943 242.026C340.943 240.526 339.903 239.406 338.313 239.406C336.713 239.406 335.603 240.496 335.603 242.226C335.603 243.966 336.753 245.066 338.313 245.066C339.673 245.066 340.553 244.286 340.833 243.286ZM341.804 242.216C341.804 243.916 342.934 245.066 344.404 245.066C345.404 245.066 346.114 244.556 346.444 243.946V244.976H347.364V237.576H346.444V240.476C346.064 239.846 345.274 239.406 344.414 239.406C342.934 239.406 341.804 240.506 341.804 242.216ZM346.444 242.226C346.444 243.516 345.584 244.266 344.584 244.266C343.584 244.266 342.734 243.506 342.734 242.216C342.734 240.926 343.584 240.196 344.584 240.196C345.584 240.196 346.444 240.956 346.444 242.226Z" fill="#B8C0CC"/>
<path d="M398.829 245.846H399.369V245.036C400.729 244.946 401.429 243.996 401.429 243.066C401.429 241.676 400.359 241.386 399.369 241.136V238.696C399.979 238.826 400.309 239.276 400.369 239.706H401.339C401.239 238.696 400.509 238.026 399.369 237.926V237.096H398.829V237.926C397.579 238.006 396.759 238.776 396.759 239.856C396.759 241.236 397.829 241.526 398.829 241.786V244.286C398.119 244.176 397.789 243.686 397.739 243.166H396.769C396.789 244.226 397.629 244.926 398.829 245.036V245.846ZM400.519 243.116C400.519 243.716 400.109 244.216 399.369 244.296V241.936C400.009 242.126 400.519 242.406 400.519 243.116ZM397.689 239.806C397.689 239.096 398.159 238.736 398.829 238.676V240.986C398.189 240.786 397.689 240.516 397.689 239.806ZM405.05 245.846H405.59V245.036C406.95 244.946 407.65 243.996 407.65 243.066C407.65 241.676 406.58 241.386 405.59 241.136V238.696C406.2 238.826 406.53 239.276 406.59 239.706H407.56C407.46 238.696 406.73 238.026 405.59 237.926V237.096H405.05V237.926C403.8 238.006 402.98 238.776 402.98 239.856C402.98 241.236 404.05 241.526 405.05 241.786V244.286C404.34 244.176 404.01 243.686 403.96 243.166H402.99C403.01 244.226 403.85 244.926 405.05 245.036V245.846ZM406.74 243.116C406.74 243.716 406.33 244.216 405.59 244.296V241.936C406.23 242.126 406.74 242.406 406.74 243.116ZM403.91 239.806C403.91 239.096 404.38 238.736 405.05 238.676V240.986C404.41 240.786 403.91 240.516 403.91 239.806ZM411.271 245.846H411.811V245.036C413.171 244.946 413.871 243.996 413.871 243.066C413.871 241.676 412.801 241.386 411.811 241.136V238.696C412.421 238.826 412.751 239.276 412.811 239.706H413.781C413.681 238.696 412.951 238.026 411.811 237.926V237.096H411.271V237.926C410.021 238.006 409.201 238.776 409.201 239.856C409.201 241.236 410.271 241.526 411.271 241.786V244.286C410.561 244.176 410.231 243.686 410.181 243.166H409.211C409.231 244.226 410.071 244.926 411.271 245.036V245.846ZM412.961 243.116C412.961 243.716 412.551 244.216 411.811 244.296V241.936C412.451 242.126 412.961 242.406 412.961 243.116ZM410.131 239.806C410.131 239.096 410.601 238.736 411.271 238.676V240.986C410.631 240.786 410.131 240.516 410.131 239.806ZM417.491 245.846H418.031V245.036C419.391 244.946 420.091 243.996 420.091 243.066C420.091 241.676 419.021 241.386 418.031 241.136V238.696C418.641 238.826 418.971 239.276 419.031 239.706H420.001C419.901 238.696 419.171 238.026 418.031 237.926V237.096H417.491V237.926C416.241 238.006 415.421 238.776 415.421 239.856C415.421 241.236 416.491 241.526 417.491 241.786V244.286C416.781 244.176 416.451 243.686 416.401 243.166H415.431C415.451 244.226 416.291 244.926 417.491 245.036V245.846ZM419.181 243.116C419.181 243.716 418.771 244.216 418.031 244.296V241.936C418.671 242.126 419.181 242.406 419.181 243.116ZM416.351 239.806C416.351 239.096 416.821 238.736 417.491 238.676V240.986C416.851 240.786 416.351 240.516 416.351 239.806Z" fill="#B8C0CC"/>
<path d="M503.456 426.969H551.005C561.422 426.969 569.865 418.525 569.865 408.108V360.559C569.865 326.181 542.002 298.317 507.623 298.317H503.441C469.062 298.317 441.198 326.181 441.198 360.559V364.742C441.229 399.105 469.093 426.969 503.456 426.969Z" fill="white"/>
<path opacity="0.4" d="M551.362 362.658V407.486C551.362 418.246 542.64 426.984 531.864 426.984H550.383C561.158 426.984 569.881 418.246 569.881 407.486V362.658C569.881 327.129 541.085 298.333 505.555 298.333C502.415 298.333 499.32 298.55 496.304 299.001C527.433 303.479 551.362 330.27 551.362 362.658Z" fill="#B8C0CC" fill-opacity="0.4"/>
<path d="M507.64 301.443C540.246 301.443 566.772 327.969 566.772 360.575V408.124C566.772 416.816 559.713 423.875 551.021 423.875H503.473C470.866 423.875 444.34 397.348 444.34 364.742V360.56C444.34 327.954 470.866 301.427 503.473 301.427H507.64V301.443ZM507.64 298.333H503.457C469.078 298.333 441.215 326.197 441.215 360.575V364.758C441.215 399.136 469.078 427 503.457 427H551.006C561.423 427 569.866 418.557 569.866 408.139V360.591C569.882 326.197 542.018 298.333 507.64 298.333Z" fill="#B8C0CC"/>
<path d="M481.797 340.771C481.797 336.93 478.676 333.816 474.826 333.816C470.976 333.816 467.855 336.93 467.855 340.771" stroke="#B8C0CC" stroke-width="2" stroke-linecap="round"/>
<path d="M511.974 371.666C511.182 378.217 508.015 393.566 501.679 402.55" stroke="#B8C0CC" stroke-width="2" stroke-linecap="round"/>
<circle cx="502.323" cy="401.907" r="5.79073" fill="#B8C0CC"/>
<rect x="1" y="108.131" width="100.946" height="89.9163" rx="11" fill="white" stroke="#EAEFF4" stroke-width="2"/>
<path d="M52.6638 189.838H25.4932C19.5402 189.838 14.7156 185.013 14.7156 179.06V151.89C14.7156 132.245 30.6377 116.323 50.2826 116.323H52.6727C72.3176 116.323 88.2396 132.245 88.2396 151.89V154.28C88.2219 173.916 72.2998 189.838 52.6638 189.838Z" fill="white"/>
<path opacity="0.4" d="M25.2888 153.089V178.705C25.2888 184.853 30.2733 189.847 36.4307 189.847H25.8485C19.6912 189.847 14.7066 184.853 14.7066 178.705V153.089C14.7066 132.787 31.1618 116.332 51.4642 116.332C53.259 116.332 55.0271 116.456 56.7508 116.714C38.9629 119.273 25.2888 134.582 25.2888 153.089Z" fill="#B8C0CC" fill-opacity="0.4"/>
<path d="M50.2732 118.109C31.6412 118.109 16.4832 133.267 16.4832 151.899V179.069C16.4832 184.036 20.517 188.07 25.4838 188.07H52.6544C71.2864 188.07 86.4444 172.912 86.4444 154.28V151.89C86.4444 133.258 71.2864 118.1 52.6544 118.1H50.2732V118.109ZM50.2732 116.332H52.6633C72.3082 116.332 88.2303 132.254 88.2303 151.899V154.289C88.2303 173.934 72.3082 189.856 52.6633 189.856H25.4927C19.5396 189.856 14.715 185.031 14.715 179.078V151.908C14.7062 132.254 30.6283 116.332 50.2732 116.332Z" fill="#B8C0CC"/>
<path d="M65.0403 140.582C65.0403 138.387 66.8237 136.608 69.0238 136.608C71.2238 136.608 73.0072 138.387 73.0072 140.582" stroke="#B8C0CC" stroke-width="2" stroke-linecap="round"/>
<path d="M47.7964 158.237C48.2489 161.98 50.059 170.751 53.6791 175.885" stroke="#B8C0CC" stroke-width="2" stroke-linecap="round"/>
<circle r="3.30899" transform="matrix(-1 0 0 1 53.3114 175.517)" fill="#B8C0CC"/>
<rect x="1" y="1.50826" width="100.946" height="89.9163" rx="11" fill="white" stroke="#EAEFF4" stroke-width="2"/>
<path d="M52.6638 83.215H25.4932C19.5402 83.215 14.7156 78.3904 14.7156 72.4374V45.2668C14.7156 25.622 30.6377 9.69989 50.2826 9.69989H52.6727C72.3176 9.69989 88.2396 25.622 88.2396 45.2668V47.6569C88.2219 67.2929 72.2998 83.215 52.6638 83.215Z" fill="white"/>
<path opacity="0.4" d="M25.2888 46.4663V72.0819C25.2888 78.2304 30.2733 83.2238 36.4307 83.2238H25.8485C19.6912 83.2238 14.7066 78.2304 14.7066 72.0819V46.4663C14.7066 26.1639 31.1618 9.70876 51.4642 9.70876C53.259 9.70876 55.0271 9.83314 56.7508 10.0908C38.9629 12.6497 25.2888 27.9587 25.2888 46.4663Z" fill="#B8C0CC" fill-opacity="0.4"/>
<path d="M50.2732 11.4861C31.6412 11.4861 16.4832 26.6441 16.4832 45.276V72.4465C16.4832 77.4133 20.517 81.4471 25.4838 81.4471H52.6544C71.2864 81.4471 86.4444 66.2892 86.4444 47.6572V45.2672C86.4444 26.6352 71.2864 11.4773 52.6544 11.4773H50.2732V11.4861ZM50.2732 9.70914H52.6633C72.3082 9.70914 88.2303 25.6312 88.2303 45.276V47.6661C88.2303 67.311 72.3082 83.233 52.6633 83.233H25.4927C19.5396 83.233 14.715 78.4084 14.715 72.4554V45.2849C14.7062 25.6312 30.6283 9.70914 50.2732 9.70914Z" fill="#B8C0CC"/>
<path d="M65.0403 33.959C65.0403 31.7643 66.8237 29.9852 69.0238 29.9852C71.2238 29.9852 73.0072 31.7643 73.0072 33.959" stroke="#B8C0CC" stroke-width="2" stroke-linecap="round"/>
<path d="M47.7964 51.6138C48.2489 55.3573 50.059 64.1277 53.6791 69.2617" stroke="#B8C0CC" stroke-width="2" stroke-linecap="round"/>
<circle r="3.30899" transform="matrix(-1 0 0 1 53.3114 68.894)" fill="#B8C0CC"/>
<defs>
<linearGradient id="paint0_linear" x1="297.809" y1="85.0713" x2="297.809" y2="134.706" gradientUnits="userSpaceOnUse">
<stop stop-color="white"/>
<stop offset="1" stop-color="white" stop-opacity="0"/>
</linearGradient>
<linearGradient id="paint1_linear" x1="297.809" y1="344.275" x2="297.809" y2="393.91" gradientUnits="userSpaceOnUse">
<stop stop-color="white" stop-opacity="0"/>
<stop offset="1" stop-color="white"/>
</linearGradient>
</defs>
</svg>
