<svg width="57" height="64" viewBox="0 0 57 64" fill="none" xmlns="http://www.w3.org/2000/svg">
<path d="M2.83262 10.8943C2.74918 7.94183 4.64634 5.25801 7.36842 4.76565L26.4957 1.30597C27.555 1.11436 28.6401 1.11436 29.6995 1.30597L48.8267 4.76565C51.5488 5.25801 53.4459 7.94183 53.3625 10.8943C53.2323 15.5005 53.7754 20.2557 54.3003 24.8517C54.4555 26.2111 54.6092 27.5566 54.7434 28.8802C55.3382 34.7479 55.5562 40.2094 54.051 44.9648C52.6322 49.4474 48.3864 53.2236 43.53 56.1878C38.7133 59.1278 33.496 61.1491 30.4385 62.2013C28.9124 62.7265 27.2827 62.7265 25.7566 62.2013C22.6991 61.1491 17.4818 59.1278 12.6651 56.1878C7.80872 53.2236 3.56296 49.4474 2.14414 44.9648C0.638929 40.2094 0.856909 34.7479 1.45175 28.8802C1.58593 27.5566 1.73959 26.2111 1.89485 24.8517C2.41974 20.2557 2.96281 15.5005 2.83262 10.8943Z" fill="#FCFDFF" stroke="#53A1FF" stroke-width="2"/>
<rect x="24.1638" y="24.709" width="7.67273" height="9.05455" rx="3.83636" fill="#FCFDFF" stroke="#53A1FF" stroke-width="2"/>
<rect x="22.091" y="30.2363" width="11.8182" height="9.05455" rx="3" fill="#FCFDFF" stroke="#B8C0CC" stroke-width="2"/>
<path fill-rule="evenodd" clip-rule="evenodd" d="M28.691 37.2273C28.691 36.8706 28.9059 36.5563 29.1164 36.2683C29.2833 36.0399 29.3819 35.7586 29.3819 35.4546C29.3819 34.6898 28.7649 34.0728 28.0001 34.0728C27.238 34.0728 26.6183 34.6925 26.6183 35.4546C26.6183 35.7586 26.7169 36.04 26.8838 36.2684C27.0943 36.5563 27.3092 36.8706 27.3092 37.2273V38.1453C27.3092 38.1855 27.3418 38.218 27.3819 38.218H28.6183C28.6585 38.218 28.691 38.1855 28.691 38.1453V37.2273Z" fill="#B8C0CC"/>
<path d="M28 47.1998C36.3947 47.1998 43.2 40.3945 43.2 31.9998C43.2 26.6638 40.4505 21.9701 36.2909 19.258M28 16.7998C19.6053 16.7998 12.8 23.6051 12.8 31.9998C12.8 37.626 15.8567 42.5382 20.4 45.1663M20.4 45.1663V41.6725M20.4 45.1663L16.2545 45.1271M36.2909 19.258V22.3271M36.2909 19.258H39.7454" stroke="#B8C0CC" stroke-width="2" stroke-linecap="round" stroke-linejoin="round"/>
</svg>
