<svg width="102" height="66" viewBox="0 0 102 66" fill="none" xmlns="http://www.w3.org/2000/svg">
<path d="M83.031 40.0241C88.6401 40.0241 93.1873 35.4814 93.1873 29.8778C93.1873 24.2741 88.6401 19.7314 83.031 19.7314C77.4218 19.7314 72.8747 24.2741 72.8747 29.8778C72.8747 35.4814 77.4218 40.0241 83.031 40.0241Z" fill="white" stroke="#B8C0CC" stroke-width="1.88" stroke-miterlimit="10" stroke-linecap="round"/>
<path d="M18.9686 40.0241C24.5778 40.0241 29.1249 35.4814 29.1249 29.8778C29.1249 24.2741 24.5778 19.7314 18.9686 19.7314C13.3595 19.7314 8.81235 24.2741 8.81235 29.8778C8.81235 35.4814 13.3595 40.0241 18.9686 40.0241Z" fill="white" stroke="#B8C0CC" stroke-width="1.88" stroke-miterlimit="10" stroke-linecap="round"/>
<path d="M99.9974 65C100.55 65 100.997 64.5523 100.997 64V57.3535C101.038 55.0918 100.603 52.845 99.7182 50.7443C98.8335 48.6436 97.5166 46.731 95.8443 45.1179C94.1719 43.5049 92.1777 42.2237 89.9778 41.3492C87.7779 40.4747 85.4164 40.0244 83.0311 40.0244C80.6457 40.0244 78.2844 40.4747 76.0845 41.3492C73.8846 42.2237 71.8902 43.5049 70.2179 45.1179C68.5456 46.731 67.2286 48.6436 66.3439 50.7443C65.4592 52.845 65.0245 55.0918 65.0649 57.3535V64" fill="white"/>
<path d="M100.997 57.3535V64C100.997 64.5523 100.55 65 99.9974 65H66.0649C65.5126 65 65.0649 64.5523 65.0649 64V57.3535C65.0245 55.0918 65.4592 52.845 66.3439 50.7443C67.2286 48.6436 68.5456 46.731 70.2179 45.1179C71.8902 43.5049 73.8846 42.2237 76.0845 41.3492C78.2844 40.4747 80.6457 40.0244 83.0311 40.0244C85.4164 40.0244 87.7779 40.4747 89.9778 41.3492C92.1777 42.2237 94.1719 43.5049 95.8443 45.1179C97.5166 46.731 98.8335 48.6436 99.7182 50.7443C100.603 52.845 101.038 55.0918 100.997 57.3535Z" stroke="#B8C0CC" stroke-width="1.88" stroke-miterlimit="10" stroke-linecap="round"/>
<path d="M35.935 65C36.4873 65 36.935 64.5523 36.935 64V57.3535C36.9755 55.0918 36.5406 52.845 35.6559 50.7443C34.7712 48.6436 33.4543 46.731 31.7819 45.1179C30.1096 43.5049 28.1154 42.2237 25.9155 41.3492C23.7156 40.4747 21.3541 40.0244 18.9687 40.0244C16.5834 40.0244 14.222 40.4747 12.0221 41.3492C9.82224 42.2237 7.82787 43.5049 6.15554 45.1179C4.4832 46.731 3.16628 48.6436 2.28155 50.7443C1.39683 52.845 0.962126 55.0918 1.00259 57.3535V64" fill="white"/>
<path d="M36.935 57.3535V64C36.935 64.5523 36.4873 65 35.935 65H2.00259C1.4503 65 1.00259 64.5523 1.00259 64V57.3535C0.962126 55.0918 1.39683 52.845 2.28155 50.7443C3.16628 48.6436 4.4832 46.731 6.15554 45.1179C7.82787 43.5049 9.82224 42.2237 12.0221 41.3492C14.222 40.4747 16.5834 40.0244 18.9687 40.0244C21.3541 40.0244 23.7156 40.4747 25.9155 41.3492C28.1154 42.2237 30.1096 43.5049 31.7819 45.1179C33.4543 46.731 34.7712 48.6436 35.6559 50.7443C36.5406 52.845 36.9755 55.0918 36.935 57.3535Z" stroke="#B8C0CC" stroke-width="1.88" stroke-miterlimit="10" stroke-linecap="round"/>
<path d="M51.0001 29.0975C58.7667 29.0975 65.0627 22.8077 65.0627 15.0488C65.0627 7.28984 58.7667 1 51.0001 1C43.2336 1 36.9376 7.28984 36.9376 15.0488C36.9376 22.8077 43.2336 29.0975 51.0001 29.0975Z" fill="white" stroke="#53A1FF" stroke-width="1.88" stroke-miterlimit="10" stroke-linecap="round"/>
<path d="M75.9962 65V54.0082C76.0525 50.757 75.4474 47.5272 74.2165 44.5075C72.9856 41.4877 71.1533 38.7383 68.8266 36.4196C66.4999 34.1009 63.7253 32.2591 60.6646 31.002C57.6039 29.7449 54.3183 29.0977 50.9996 29.0977C47.6808 29.0977 44.3955 29.7449 41.3347 31.002C38.274 32.2591 35.4992 34.1009 33.1725 36.4196C30.8458 38.7383 29.0136 41.4877 27.7826 44.5075C26.5517 47.5272 25.9469 50.757 26.0032 54.0082V65" fill="white"/>
<path d="M75.9962 65V54.0082C76.0525 50.757 75.4474 47.5272 74.2165 44.5075C72.9856 41.4877 71.1533 38.7383 68.8266 36.4196C66.4999 34.1009 63.7253 32.2591 60.6646 31.002C57.6039 29.7449 54.3183 29.0977 50.9996 29.0977C47.6808 29.0977 44.3955 29.7449 41.3347 31.002C38.274 32.2591 35.4992 34.1009 33.1725 36.4196C30.8458 38.7383 29.0136 41.4877 27.7826 44.5075C26.5517 47.5272 25.9469 50.757 26.0032 54.0082V65H75.9962Z" stroke="#53A1FF" stroke-width="1.88" stroke-miterlimit="10" stroke-linecap="round"/>
</svg>
