<svg width="66" height="66" viewBox="0 0 66 66" fill="none" xmlns="http://www.w3.org/2000/svg">
<path d="M33 65C50.6731 65 65 50.6731 65 33C65 15.3269 50.6731 1 33 1C15.3269 1 1 15.3269 1 33C1 50.6731 15.3269 65 33 65Z" stroke="#B8C0CC" stroke-width="2" stroke-linecap="round" stroke-linejoin="round"/>
<path d="M29.7484 24.188L18.8179 41.8162H40.4153L29.7484 24.188Z" stroke="#53A1FF" stroke-width="2" stroke-linecap="round" stroke-linejoin="round"/>
<path d="M40.4158 41.816H45.7372L38.2377 29.4214L35.6387 33.6138" stroke="#53A1FF" stroke-width="2" stroke-linecap="round" stroke-linejoin="round"/>
<path d="M44.0575 25.3015C45.8521 25.3015 47.3069 23.8467 47.3069 22.0521C47.3069 20.2575 45.8521 18.8027 44.0575 18.8027C42.2629 18.8027 40.8081 20.2575 40.8081 22.0521C40.8081 23.8467 42.2629 25.3015 44.0575 25.3015Z" stroke="#53A1FF" stroke-width="2" stroke-linecap="round" stroke-linejoin="round"/>
<path d="M17.3911 47.416H48.1421" stroke="#53A1FF" stroke-width="2" stroke-linecap="round" stroke-linejoin="round"/>
</svg>
