<svg width="296" height="194" viewBox="0 0 296 194" fill="none" xmlns="http://www.w3.org/2000/svg">
<rect x="1" y="11.1798" width="239.362" height="180.82" rx="9" fill="white" stroke="#B8C0CC" stroke-width="2"/>
<rect x="1" y="11.1798" width="239.362" height="32.5326" rx="9" stroke="#B8C0CC" stroke-width="2"/>
<rect x="201.626" y="1.02356" width="6.14723" height="18.3125" rx="3" fill="white" stroke="#B8C0CC" stroke-width="2"/>
<rect x="211.81" y="1.02356" width="6.14723" height="18.3125" rx="3" fill="white" stroke="#B8C0CC" stroke-width="2"/>
<rect x="23.4049" y="1.02356" width="6.14723" height="18.3125" rx="3" fill="white" stroke="#B8C0CC" stroke-width="2"/>
<rect x="33.5889" y="1.02356" width="6.14723" height="18.3125" rx="3" fill="white" stroke="#B8C0CC" stroke-width="2"/>
<rect x="202.644" y="104.621" width="18.3681" height="14.25" rx="7.125" stroke="#D7DEE2" stroke-width="2"/>
<rect x="157.834" y="104.621" width="18.3681" height="14.25" rx="7.125" stroke="#D7DEE2" stroke-width="2"/>
<rect x="113.024" y="104.621" width="18.3681" height="14.25" rx="7.125" stroke="#D7DEE2" stroke-width="2"/>
<rect x="68.2147" y="104.621" width="18.3681" height="14.25" rx="7.125" stroke="#53A1FF" stroke-width="2"/>
<rect x="23.4049" y="104.621" width="18.3681" height="14.25" rx="7.125" stroke="#D7DEE2" stroke-width="2"/>
<rect x="202.644" y="141.185" width="18.3681" height="14.25" rx="7.125" stroke="#D7DEE2" stroke-width="2"/>
<rect x="157.834" y="141.185" width="18.3681" height="14.25" rx="7.125" fill="#53A1FF" stroke="#53A1FF" stroke-width="2"/>
<rect x="113.024" y="141.185" width="18.3681" height="14.25" rx="7.125" stroke="#D7DEE2" stroke-width="2"/>
<rect x="68.2147" y="141.185" width="18.3681" height="14.25" rx="7.125" stroke="#D7DEE2" stroke-width="2"/>
<rect x="23.4049" y="141.185" width="18.3681" height="14.25" rx="7.125" stroke="#D7DEE2" stroke-width="2"/>
<rect x="202.644" y="68.0575" width="18.3681" height="14.25" rx="7.125" stroke="#D7DEE2" stroke-width="2"/>
<rect x="157.834" y="68.0575" width="18.3681" height="14.25" rx="7.125" fill="#53A1FF" stroke="#53A1FF" stroke-width="2"/>
<rect x="113.024" y="68.0575" width="18.3681" height="14.25" rx="7.125" stroke="#D7DEE2" stroke-width="2"/>
<rect x="68.2147" y="68.0575" width="18.3681" height="14.25" rx="7.125" stroke="#D7DEE2" stroke-width="2"/>
<rect x="23.4049" y="68.0575" width="18.3681" height="14.25" rx="7.125" fill="#53A1FF" stroke="#53A1FF" stroke-width="2"/>
<path d="M293.763 174.727V152.552C293.763 130.764 275.724 113.14 253.424 113.14H252.829C230.529 113.14 212.492 130.764 212.492 152.552V153.133C212.492 174.921 230.529 192.545 252.829 192.545H282.365C292.475 192.545 293.663 184.606 293.763 174.727Z" fill="white"/>
<path d="M293.862 152.844V186.833C293.862 189.932 291.285 192.449 288.114 192.449H280.482C283.653 192.449 286.23 189.932 286.23 186.833V152.746C286.23 125.245 263.634 113.334 247.18 113.722C249.262 113.432 251.442 113.238 253.524 113.238C275.724 113.432 293.763 131.056 293.862 152.844Z" fill="#EAEFF4"/>
<path d="M294.655 185.09V152.65C294.655 130.862 276.616 113.238 254.316 113.238H253.721C231.421 113.238 213.383 130.862 213.383 152.65V153.231C213.383 175.019 231.421 192.643 253.721 192.643H286.924C291.185 192.545 294.655 189.253 294.655 185.09Z" stroke="#53A1FF" stroke-width="1.88" stroke-miterlimit="10"/>
<path d="M237.368 137.736C237.368 135.8 235.683 134.153 233.701 134.153C231.719 134.153 230.034 135.8 230.034 137.736C230.034 139.674 231.719 141.32 233.701 141.32C235.683 141.32 237.368 139.771 237.368 137.736Z" fill="#B8C0CC"/>
<path d="M182.789 146.987C183.621 146.817 184.484 146.896 185.27 147.214C186.055 147.533 186.728 148.077 187.203 148.776C187.677 149.475 187.933 150.298 187.937 151.144C187.941 151.987 187.693 152.813 187.224 153.519C186.756 154.223 186.089 154.773 185.306 155.1C184.524 155.428 183.661 155.517 182.827 155.358C181.994 155.198 181.227 154.795 180.624 154.202C180.022 153.61 179.61 152.851 179.441 152.024C179.214 150.915 179.44 149.761 180.068 148.815C180.696 147.871 181.675 147.214 182.789 146.987Z" fill="#53A1FF"/>
<path d="M183.645 151.168C183.645 151.168 210.455 175.1 244.438 158.69" stroke="#53A1FF" stroke-width="1.88" stroke-linecap="round" stroke-linejoin="round"/>
</svg>
