<svg width="180" height="181" viewBox="0 0 180 181" fill="none" xmlns="http://www.w3.org/2000/svg">
<path d="M90 180C139.706 180 180 139.706 180 90C180 40.2944 139.706 0 90 0C40.2944 0 0 40.2944 0 90C0 139.706 40.2944 180 90 180Z" fill="#F0F4F7"/>
<rect x="92.5714" y="42.8572" width="30.8571" height="41.1429" rx="15.4286" fill="white" stroke="#B8C0CC" stroke-width="2"/>
<path d="M92.5714 165.165C92.5714 164.837 92.8371 164.571 93.1648 164.571H122.835C123.163 164.571 123.429 164.837 123.429 165.165C123.429 173.358 116.787 180 108.593 180H107.407C99.2134 180 92.5714 173.358 92.5714 165.165Z" fill="white" stroke="#B8C0CC" stroke-width="2" stroke-linecap="round"/>
<path d="M63.67 85.0003C63.67 71.1931 74.8628 60.0002 88.67 60.0002H125.592C139.399 60.0002 150.591 71.1931 150.591 85.0002V114.509V138.284C150.591 140.467 151.647 142.515 153.425 143.782L154.133 144.287C159.167 147.874 156.77 155.803 150.591 156H63.67C57.7519 155.793 55.3154 148.312 59.9759 144.659L61.0475 143.819C62.703 142.521 63.67 140.534 63.67 138.431V114.509V85.0003Z" fill="white" stroke="#B8C0CC" stroke-width="2" stroke-linecap="round"/>
<path d="M116.571 101.143L103.62 115.987C103.259 116.401 102.631 116.446 102.214 116.088L97.7675 112.264" stroke="#53A1FF" stroke-width="2" stroke-linecap="round"/>
<circle cx="106.286" cy="106.286" r="20.5714" stroke="#53A1FF" stroke-width="2"/>
</svg>
