<svg width="180" height="180" viewBox="0 0 180 180" fill="none" xmlns="http://www.w3.org/2000/svg">
<path d="M90 180C139.706 180 180 139.706 180 90C180 40.2944 139.706 0 90 0C40.2944 0 0 40.2944 0 90C0 139.706 40.2944 180 90 180Z" fill="#F0F4F7"/>
<rect x="92.9999" y="42.8574" width="30.8571" height="41.1429" rx="15.4286" fill="white" stroke="#B8C0CC" stroke-width="2"/>
<path d="M92 162.615C92 162.276 92.2755 162 92.6154 162H123.385C123.724 162 124 162.276 124 162.615C124 171.112 117.112 178 108.615 178H107.385C98.8879 178 92 171.112 92 162.615Z" fill="white" stroke="#B8C0CC" stroke-width="2" stroke-linecap="round"/>
<path d="M63.3842 100C63.3842 77.9089 81.2928 60.0002 103.384 60.0002H110.306C132.397 60.0002 150.306 77.9089 150.306 100V114.509V138.284C150.306 140.467 151.361 142.515 153.139 143.782L153.847 144.287C158.881 147.874 156.484 155.803 150.306 156H63.3842C57.4661 155.793 55.0296 148.312 59.6901 144.659L60.7617 143.819C62.4172 142.521 63.3842 140.534 63.3842 138.431V114.509V100Z" fill="white" stroke="#B8C0CC" stroke-width="2" stroke-linecap="round"/>
<path d="M115.889 102.724L105.815 114.271C105.453 114.685 104.826 114.73 104.409 114.371L101.062 111.493" stroke="#53A1FF" stroke-width="2" stroke-linecap="round"/>
<circle cx="108" cy="107" r="16" stroke="#53A1FF" stroke-width="2"/>
</svg>
