<svg width="64" height="64" viewBox="0 0 64 64" fill="none" xmlns="http://www.w3.org/2000/svg">
<circle cx="32" cy="32" r="32" fill="#F0F4F7"/>
<mask id="path-2-inside-1" fill="white">
<path fill-rule="evenodd" clip-rule="evenodd" d="M25.9296 53.4453H21.4253C21.2026 51.7728 19.7866 50.4471 18 50.2385L18 13.2069C19.7866 12.9983 21.2026 11.6726 21.4253 10H25.9296C26.1725 11.824 27.8345 13.2355 29.8486 13.2355C31.8628 13.2355 33.5248 11.824 33.7676 10H38.2722C38.4949 11.6726 39.9109 12.9982 41.6974 13.2068V50.2389C39.911 50.4475 38.4951 51.773 38.2722 53.4453H33.7676C33.5247 51.6213 31.8627 50.2099 29.8486 50.2099C27.8345 50.2099 26.1725 51.6213 25.9296 53.4453Z"/>
</mask>
<path fill-rule="evenodd" clip-rule="evenodd" d="M25.9296 53.4453H21.4253C21.2026 51.7728 19.7866 50.4471 18 50.2385L18 13.2069C19.7866 12.9983 21.2026 11.6726 21.4253 10H25.9296C26.1725 11.824 27.8345 13.2355 29.8486 13.2355C31.8628 13.2355 33.5248 11.824 33.7676 10H38.2722C38.4949 11.6726 39.9109 12.9982 41.6974 13.2068V50.2389C39.911 50.4475 38.4951 51.773 38.2722 53.4453H33.7676C33.5247 51.6213 31.8627 50.2099 29.8486 50.2099C27.8345 50.2099 26.1725 51.6213 25.9296 53.4453Z" fill="white"/>
<path d="M21.4253 53.4453L19.4428 53.7093L19.674 55.4453H21.4253V53.4453ZM25.9296 53.4453V55.4453H27.6809L27.9121 53.7093L25.9296 53.4453ZM18 50.2385H16V52.0186L17.7681 52.2251L18 50.2385ZM18 13.2069L17.7681 11.2203L16 11.4268L16 13.2069H18ZM21.4253 10V8.00004H19.674L19.4428 9.73605L21.4253 10ZM25.9296 10L27.9121 9.73605L27.6809 8.00004H25.9296L25.9296 10ZM33.7676 10V8.00004H32.0163L31.7851 9.73605L33.7676 10ZM38.2722 10L40.2547 9.73605L40.0235 8.00004H38.2722V10ZM41.6974 13.2068H43.6974V11.4268L41.9294 11.2203L41.6974 13.2068ZM41.6974 50.2389L41.9294 52.2254L43.6974 52.019V50.2389H41.6974ZM38.2722 53.4453V55.4453H40.0233L40.2547 53.7096L38.2722 53.4453ZM33.7676 53.4453L31.7851 53.7093L32.0163 55.4453H33.7676V53.4453ZM21.4253 55.4453H25.9296V51.4453H21.4253V55.4453ZM17.7681 52.2251C18.7305 52.3374 19.3518 53.0257 19.4428 53.7093L23.4078 53.1813C23.0534 50.5198 20.8426 48.5568 18.2319 48.252L17.7681 52.2251ZM16 13.2069L16 50.2385H20L20 13.2069H16ZM19.4428 9.73605C19.3518 10.4197 18.7305 11.108 17.7681 11.2203L18.2319 15.1934C20.8426 14.8886 23.0534 12.9255 23.4078 10.264L19.4428 9.73605ZM25.9296 8.00004H21.4253V12H25.9296L25.9296 8.00004ZM29.8486 11.2355C28.7475 11.2355 28.0112 10.4801 27.9121 9.73605L23.9471 10.264C24.3338 13.168 26.9214 15.2355 29.8486 15.2355L29.8486 11.2355ZM31.7851 9.73605C31.6861 10.4801 30.9497 11.2355 29.8486 11.2355L29.8486 15.2355C32.7758 15.2355 35.3635 13.168 35.7501 10.264L31.7851 9.73605ZM38.2722 8.00004H33.7676V12H38.2722V8.00004ZM41.9294 11.2203C40.9669 11.108 40.3457 10.4197 40.2547 9.73605L36.2897 10.264C36.6441 12.9255 38.8548 14.8885 41.4655 15.1934L41.9294 11.2203ZM43.6974 50.2389V13.2068H39.6974V50.2389H43.6974ZM40.2547 53.7096C40.3458 53.026 40.967 52.3378 41.9294 52.2254L41.4655 48.2524C38.855 48.5572 36.6445 50.52 36.2898 53.1811L40.2547 53.7096ZM33.7676 55.4453H38.2722V51.4453H33.7676V55.4453ZM29.8486 52.2099C30.9497 52.2099 31.6861 52.9653 31.7851 53.7093L35.7501 53.1813C35.3634 50.2774 32.7758 48.2099 29.8486 48.2099V52.2099ZM27.9121 53.7093C28.0112 52.9653 28.7475 52.2099 29.8486 52.2099V48.2099C26.9214 48.2099 24.3338 50.2774 23.9471 53.1813L27.9121 53.7093Z" fill="#B8C0CC" mask="url(#path-2-inside-1)"/>
<path d="M26.4846 20.4589C26.3003 20.399 26.3003 20.1384 26.4846 20.0785L28.4901 19.4269C28.5725 19.4001 28.6283 19.3233 28.6283 19.2366V17.128C28.6283 16.9342 28.8762 16.8537 28.9901 17.0104L30.2295 18.7164C30.2804 18.7865 30.3707 18.8158 30.4531 18.789L32.4586 18.1374C32.6429 18.0775 32.7961 18.2884 32.6822 18.4452L31.4428 20.1511C31.3918 20.2212 31.3918 20.3162 31.4428 20.3862L32.6822 22.0922C32.7961 22.249 32.6429 22.4598 32.4586 22.4L30.4531 21.7484C30.3707 21.7216 30.2804 21.7509 30.2295 21.821L28.9901 23.527C28.8762 23.6837 28.6283 23.6032 28.6283 23.4094V21.3007C28.6283 21.2141 28.5725 21.1373 28.4901 21.1105L26.4846 20.4589Z" fill="white" stroke="#53A1FF"/>
<path d="M40.9075 26.5884L18.7899 26.5884" stroke="#B8C0CC" stroke-width="2" stroke-dasharray="4 4"/>
<path d="M25.8992 44.7563V41.5967" stroke="#53A1FF" stroke-width="2" stroke-linecap="round"/>
<path d="M25.8992 38.437V30.5379" stroke="#53A1FF" stroke-width="2" stroke-linecap="round"/>
<path d="M29.8487 44.7563L29.8487 30.5379" stroke="#53A1FF" stroke-width="2" stroke-linecap="round"/>
<path d="M33.7983 44.7563L33.7983 30.5379" stroke="#53A1FF" stroke-width="2" stroke-linecap="round"/>
<mask id="path-10-inside-2" fill="white">
<path fill-rule="evenodd" clip-rule="evenodd" d="M29.5249 58.4053L25.1741 57.2395C25.392 55.5663 24.3674 53.9192 22.6956 53.2553L32.2801 17.4855C34.0598 17.7464 35.7706 16.8325 36.4187 15.2747L40.7694 16.4404C40.5321 18.2651 41.7721 20.0584 43.7176 20.5797C45.663 21.101 47.6336 20.1679 48.3404 18.4691L52.6915 19.6349C52.4739 21.308 53.4985 22.9548 55.1701 23.6186L45.5855 59.3888C43.8058 59.1279 42.095 60.0419 41.447 61.5998L37.0959 60.434C37.3333 58.6093 36.0932 56.8159 34.1478 56.2946C32.2023 55.7733 30.2317 56.7064 29.5249 58.4053Z"/>
</mask>
<path fill-rule="evenodd" clip-rule="evenodd" d="M29.5249 58.4053L25.1741 57.2395C25.392 55.5663 24.3674 53.9192 22.6956 53.2553L32.2801 17.4855C34.0598 17.7464 35.7706 16.8325 36.4187 15.2747L40.7694 16.4404C40.5321 18.2651 41.7721 20.0584 43.7176 20.5797C45.663 21.101 47.6336 20.1679 48.3404 18.4691L52.6915 19.6349C52.4739 21.308 53.4985 22.9548 55.1701 23.6186L45.5855 59.3888C43.8058 59.1279 42.095 60.0419 41.447 61.5998L37.0959 60.434C37.3333 58.6093 36.0932 56.8159 34.1478 56.2946C32.2023 55.7733 30.2317 56.7064 29.5249 58.4053Z" fill="white"/>
<path d="M25.1741 57.2395L23.1909 56.9813L22.9647 58.7181L24.6565 59.1714L25.1741 57.2395ZM29.5249 58.4053L29.0073 60.3372L30.6989 60.7905L31.3715 59.1735L29.5249 58.4053ZM22.6956 53.2553L20.7638 52.7377L20.3031 54.4571L21.9574 55.1141L22.6956 53.2553ZM32.2801 17.4855L32.5703 15.5066L30.809 15.2484L30.3483 16.9678L32.2801 17.4855ZM36.4187 15.2747L36.9363 13.3428L35.2447 12.8895L34.5721 14.5064L36.4187 15.2747ZM40.7694 16.4404L42.7527 16.6984L42.9786 14.9618L41.2871 14.5086L40.7694 16.4404ZM48.3404 18.4691L48.858 16.5372L47.1664 16.084L46.4938 17.7008L48.3404 18.4691ZM52.6915 19.6349L54.6748 19.8928L54.9006 18.1563L53.2091 17.7031L52.6915 19.6349ZM55.1701 23.6186L57.102 24.1363L57.5627 22.4169L55.9083 21.7599L55.1701 23.6186ZM45.5855 59.3888L45.2954 61.3677L47.0567 61.6259L47.5174 59.9064L45.5855 59.3888ZM41.447 61.5998L40.9293 63.5317L42.621 63.985L43.2936 62.3679L41.447 61.5998ZM37.0959 60.434L35.1126 60.1759L34.8867 61.9126L36.5782 62.3658L37.0959 60.434ZM24.6565 59.1714L29.0073 60.3372L30.0426 56.4735L25.6918 55.3077L24.6565 59.1714ZM21.9574 55.1141C22.858 55.4717 23.2799 56.2974 23.1909 56.9813L27.1574 57.4978C27.5041 54.8352 25.8767 52.3667 23.4338 51.3965L21.9574 55.1141ZM30.3483 16.9678L20.7638 52.7377L24.6275 53.7729L34.212 18.0031L30.3483 16.9678ZM34.5721 14.5064C34.3072 15.1432 33.529 15.6472 32.5703 15.5066L31.99 19.4643C34.5906 19.8456 37.234 18.5218 38.2652 16.0429L34.5721 14.5064ZM41.2871 14.5086L36.9363 13.3428L35.901 17.2065L40.2518 18.3723L41.2871 14.5086ZM44.2352 18.6479C43.1717 18.3629 42.6559 17.4427 42.7527 16.6984L38.7861 16.1825C38.4083 19.0874 40.3726 21.754 43.1999 22.5116L44.2352 18.6479ZM46.4938 17.7008C46.2055 18.3938 45.2987 18.9328 44.2352 18.6479L43.1999 22.5116C46.0273 23.2691 49.0617 21.942 50.1869 19.2373L46.4938 17.7008ZM53.2091 17.7031L48.858 16.5372L47.8227 20.4009L52.1739 21.5668L53.2091 17.7031ZM55.9083 21.7599C55.0078 21.4022 54.5859 20.5767 54.6748 19.8928L50.7082 19.377C50.362 22.0393 51.9893 24.5074 54.432 25.4774L55.9083 21.7599ZM47.5174 59.9064L57.102 24.1363L53.2383 23.101L43.6537 58.8712L47.5174 59.9064ZM43.2936 62.3679C43.5585 61.7311 44.3367 61.2271 45.2954 61.3677L45.8757 57.41C43.275 57.0287 40.6315 58.3527 39.6003 60.8317L43.2936 62.3679ZM36.5782 62.3658L40.9293 63.5317L41.9646 59.668L37.6135 58.5021L36.5782 62.3658ZM33.6301 58.2264C34.6937 58.5114 35.2094 59.4316 35.1126 60.1759L39.0792 60.692C39.4571 57.787 37.4928 55.1203 34.6654 54.3627L33.6301 58.2264ZM31.3715 59.1735C31.6598 58.4805 32.5666 57.9415 33.6301 58.2264L34.6654 54.3627C31.838 53.6051 28.8035 54.9324 27.6783 57.6372L31.3715 59.1735Z" fill="#B8C0CC" mask="url(#path-10-inside-2)"/>
<path d="M38.5985 26.6868C38.436 26.5812 38.5035 26.3294 38.697 26.3193L40.8028 26.2089C40.8893 26.2044 40.9631 26.1447 40.9855 26.061L41.5313 24.0241C41.5814 23.837 41.8417 23.8234 41.9112 24.0042L42.6668 25.9729C42.6979 26.0537 42.7775 26.1054 42.864 26.1009L44.9698 25.9906C45.1633 25.9804 45.2567 26.2238 45.1062 26.3457L43.4674 27.6727C43.4001 27.7273 43.3755 27.819 43.4065 27.8998L44.1622 29.8685C44.2317 30.0494 44.0291 30.2134 43.8666 30.1079L42.0981 28.9594C42.0254 28.9122 41.9306 28.9172 41.8633 28.9717L40.2245 30.2988C40.074 30.4207 39.8554 30.2787 39.9055 30.0916L40.4513 28.0547C40.4737 27.971 40.4397 27.8824 40.367 27.8352L38.5985 26.6868Z" fill="white" stroke="#53A1FF"/>
<path d="M50.9437 36.3402L29.5797 30.6157" stroke="#B8C0CC" stroke-width="2" stroke-dasharray="4 4"/>
<path d="M31.7444 50.0044L32.5622 46.9524" stroke="#53A1FF" stroke-width="2" stroke-linecap="round"/>
<path d="M33.38 43.9004L35.4245 36.2704" stroke="#53A1FF" stroke-width="2" stroke-linecap="round"/>
<path d="M35.5595 51.0269L39.2395 37.2929" stroke="#53A1FF" stroke-width="2" stroke-linecap="round"/>
<path d="M39.3745 52.0488L43.0545 38.3149" stroke="#53A1FF" stroke-width="2" stroke-linecap="round"/>
</svg>
