<svg width="180" height="181" viewBox="0 0 180 181" fill="none" xmlns="http://www.w3.org/2000/svg">
<path d="M90 180C139.706 180 180 139.706 180 90C180 40.2944 139.706 0 90 0C40.2944 0 0 40.2944 0 90C0 139.706 40.2944 180 90 180Z" fill="#F0F4F7"/>
<path d="M135.813 38.0769H87.456C80.2581 38.0769 74.4231 43.9705 74.4231 51.2406V166.836C74.4231 174.106 80.2581 180 87.456 180H135.813C143.011 180 148.846 174.106 148.846 166.836V51.2406C148.846 43.9705 143.011 38.0769 135.813 38.0769Z" fill="white" stroke="#B8C0CC" stroke-width="2" stroke-miterlimit="10"/>
<path d="M127.646 119.162V103.911C127.646 95.4302 120.432 88.5306 111.565 88.5306C102.775 88.5306 95.6229 95.3713 95.6229 103.78C95.6229 112.261 102.836 119.162 111.703 119.162H127.646ZM128.323 122.885H111.703C100.672 122.885 91.7307 114.332 91.7307 103.78C91.7307 93.302 100.611 84.8076 111.565 84.8076C122.597 84.8076 131.538 93.3604 131.538 103.911V119.808C131.538 121.507 130.098 122.885 128.323 122.885Z" fill="#53A1FF"/>
<path d="M88.2693 38.0769L92.0355 46.1515C92.3603 46.8477 92.8515 47.4316 93.4554 47.839C94.0593 48.2464 94.7527 48.4617 95.4595 48.4615H127.563C128.253 48.4616 128.93 48.2564 129.524 47.8674C130.118 47.4783 130.607 46.9197 130.94 46.2498L135 38.0787" fill="#B8C0CC"/>
<path d="M74.4231 157.5H148.846" stroke="#B8C0CC" stroke-width="2"/>
<path d="M111.635 173.077C114.98 173.077 117.692 170.752 117.692 167.885C117.692 165.017 114.98 162.692 111.635 162.692C108.289 162.692 105.577 165.017 105.577 167.885C105.577 170.752 108.289 173.077 111.635 173.077Z" fill="#B8C0CC"/>
</svg>
