<svg width="180" height="181" viewBox="0 0 180 181" fill="none" xmlns="http://www.w3.org/2000/svg">
<path d="M90 180C139.706 180 180 139.706 180 90C180 40.2944 139.706 0 90 0C40.2944 0 0 40.2944 0 90C0 139.706 40.2944 180 90 180Z" fill="#F0F4F7"/>
<path d="M150.94 142.124V171.062C150.933 173.199 150.082 175.246 148.571 176.757C147.059 178.268 145.011 179.119 142.874 179.125H82.6413C80.5039 179.121 78.4552 178.27 76.9438 176.759C75.4325 175.248 74.5816 173.199 74.5775 171.062V50.389C74.5839 48.2521 75.4355 46.2047 76.9464 44.6936C78.4572 43.1824 80.5045 42.3303 82.6413 42.3235H142.874C145.011 42.3298 147.059 43.1818 148.571 44.693C150.082 46.2042 150.933 48.2518 150.94 50.389V75.2248" fill="white"/>
<path d="M150.94 142.124V171.062C150.933 173.199 150.082 175.246 148.571 176.757C147.059 178.268 145.011 179.119 142.874 179.125H82.6413C80.5039 179.121 78.4552 178.27 76.9438 176.759C75.4325 175.248 74.5816 173.199 74.5775 171.062V50.389C74.5839 48.2521 75.4355 46.2047 76.9464 44.6936C78.4572 43.1824 80.5045 42.3303 82.6413 42.3235H142.874C145.011 42.3298 147.059 43.1818 148.571 44.693C150.082 46.2042 150.933 48.2518 150.94 50.389V75.2248" stroke="#B8C0CC" stroke-width="2" stroke-miterlimit="10" stroke-linecap="round"/>
<path d="M111.692 82.3669H35.8594C33.7983 82.3669 32.1274 84.0378 32.1274 86.0989V132.998C32.1274 135.059 33.7983 136.73 35.8594 136.73H111.692C113.753 136.73 115.424 135.059 115.424 132.998V86.0989C115.424 84.0378 113.753 82.3669 111.692 82.3669Z" fill="white" stroke="#53A1FF" stroke-width="2" stroke-miterlimit="10" stroke-linecap="round"/>
<path d="M42.0802 123.865H85.9022" stroke="#53A1FF" stroke-width="2" stroke-miterlimit="10" stroke-linecap="round"/>
<path d="M112.861 171.521C116.483 171.521 119.419 168.585 119.419 164.963C119.419 161.341 116.483 158.405 112.861 158.405C109.239 158.405 106.303 161.341 106.303 164.963C106.303 168.585 109.239 171.521 112.861 171.521Z" fill="#B8C0CC"/>
<path d="M102.652 54.968H123.171" stroke="#B8C0CC" stroke-width="2" stroke-miterlimit="10" stroke-linecap="round"/>
<path d="M132.198 88.8523H174.105" stroke="#B8C0CC" stroke-width="2" stroke-linecap="round" stroke-linejoin="round"/>
<path d="M169.491 79.8174L178.526 88.8523L169.491 97.8875" stroke="#B8C0CC" stroke-width="2" stroke-linecap="round" stroke-linejoin="round"/>
<path d="M147.992 132.554C148.609 132.554 149.201 132.309 149.638 131.872C150.074 131.436 150.319 130.844 150.319 130.226V128.815C152.332 128.694 154.223 127.81 155.607 126.343C156.99 124.876 157.762 122.936 157.764 120.92V120.688C157.761 118.591 156.927 116.582 155.445 115.1C153.963 113.618 151.953 112.784 149.857 112.78H145.903C145.08 112.721 144.31 112.351 143.748 111.747C143.186 111.143 142.874 110.348 142.874 109.523C142.874 108.698 143.186 107.903 143.748 107.299C144.31 106.694 145.08 106.325 145.903 106.265H151.676C152.016 106.266 152.342 106.401 152.582 106.642C152.822 106.882 152.958 107.208 152.958 107.548V107.603C152.954 108.202 153.181 108.78 153.592 109.216C154.003 109.652 154.567 109.913 155.166 109.943C155.765 109.973 156.352 109.771 156.805 109.379C157.259 108.987 157.543 108.435 157.599 107.838V107.802C157.633 107.023 157.514 106.245 157.247 105.513C156.981 104.78 156.572 104.107 156.045 103.533C155.518 102.958 154.884 102.493 154.177 102.163C153.47 101.834 152.706 101.647 151.927 101.614H151.672H150.321V100.218C150.33 99.9072 150.276 99.5979 150.163 99.3082C150.049 99.0185 149.879 98.7545 149.662 98.5316C149.446 98.3087 149.186 98.1315 148.9 98.0106C148.613 97.8896 148.305 97.8274 147.994 97.8274C147.684 97.8274 147.376 97.8896 147.089 98.0106C146.803 98.1315 146.543 98.3087 146.326 98.5316C146.11 98.7545 145.94 99.0185 145.826 99.3082C145.713 99.5979 145.659 99.9072 145.668 100.218V101.619C144.629 101.634 143.604 101.854 142.651 102.265C141.697 102.677 140.834 103.272 140.111 104.017C139.387 104.762 138.817 105.642 138.434 106.608C138.051 107.573 137.861 108.604 137.877 109.642C137.892 110.681 138.111 111.706 138.523 112.659C138.934 113.613 139.53 114.476 140.275 115.2C141.02 115.923 141.9 116.493 142.865 116.876C143.83 117.259 144.861 117.449 145.9 117.434H149.854C150.283 117.434 150.707 117.518 151.103 117.682C151.5 117.846 151.86 118.087 152.163 118.39C152.466 118.694 152.707 119.054 152.871 119.45C153.035 119.846 153.12 120.271 153.12 120.7V120.934C153.117 121.798 152.772 122.626 152.16 123.236C151.547 123.847 150.718 124.189 149.854 124.189H143.988C143.82 124.189 143.653 124.156 143.498 124.092C143.342 124.028 143.201 123.934 143.082 123.815C142.963 123.696 142.868 123.555 142.804 123.399C142.739 123.244 142.706 123.077 142.706 122.909V122.886V122.646C142.705 122.036 142.465 121.452 142.038 121.017C141.611 120.583 141.031 120.333 140.422 120.322C139.813 120.311 139.223 120.539 138.78 120.957C138.337 121.375 138.076 121.951 138.053 122.56V122.802C138.038 123.581 138.178 124.356 138.463 125.081C138.748 125.806 139.173 126.468 139.714 127.029C140.255 127.59 140.901 128.039 141.616 128.35C142.33 128.661 143.099 128.829 143.879 128.843H145.663V130.238C145.663 130.855 145.909 131.447 146.345 131.883C146.782 132.319 147.373 132.564 147.99 132.564L147.992 132.554Z" fill="#B8C0CC"/>
<path opacity="0.8" d="M48.5058 107.505C52.0545 107.505 54.9313 104.628 54.9313 101.08C54.9313 97.5309 52.0545 94.6541 48.5058 94.6541C44.957 94.6541 42.0802 97.5309 42.0802 101.08C42.0802 104.628 44.957 107.505 48.5058 107.505Z" fill="#53A1FF"/>
<path opacity="0.5" d="M58.7492 107.505C62.2979 107.505 65.1747 104.628 65.1747 101.08C65.1747 97.5309 62.2979 94.6541 58.7492 94.6541C55.2004 94.6541 52.3236 97.5309 52.3236 101.08C52.3236 104.628 55.2004 107.505 58.7492 107.505Z" fill="#53A1FF"/>
</svg>
