<svg width="54" height="54" viewBox="0 0 54 54" fill="none" xmlns="http://www.w3.org/2000/svg">
<path d="M0 53.9948L2.37103e-06 26.0858C3.84833e-06 8.69666 6.17761 0.00138085 18.5328 0C19.8966 1.22687e-07 21.9856 0.0922442 24.7997 0.276736V11.0809C16.2552 11.0809 11.9856 15.1459 11.9909 23.276L12.1309 28.1836H20.9854L20.9854 53.9948H0ZM51.2674 28.1868H42.417L42.281 23.276C42.2803 15.6137 46.1867 11.5494 54 11.083V0.278814C51.5498 0.0991595 49.8244 0.00864002 48.8239 0.00725797C36.4687 0.00725686 30.2911 8.70253 30.2911 26.0931L30.2911 54L51.2805 54L51.2805 28.1919L51.2674 28.1868Z" fill="#53A1FF"/>
</svg>
