<svg width="64" height="64" viewBox="0 0 64 64" fill="none" xmlns="http://www.w3.org/2000/svg">
<circle cx="32" cy="32" r="32" fill="#F0F4F7"/>
<path d="M33.7109 40.7965L33.4607 42H34.69H41C41.5477 42 42 42.4523 42 43V45C42 45.1217 41.9784 45.2348 41.9336 45.353L38.9208 52.3862L38.9207 52.3862L38.9169 52.3954C38.7688 52.7508 38.4177 53 38 53H29C28.4523 53 28 52.5477 28 52V42C28 41.7222 28.1092 41.48 28.2874 41.3067L28.2925 41.3017L28.2976 41.2966L34.1739 35.4114L34.5229 35.7571C34.5233 35.7575 34.5237 35.7579 34.5241 35.7583C34.6064 35.8412 34.6602 35.9556 34.6688 36.0761L34.6496 36.2811L33.7109 40.7965ZM24 43V53H22V43H24Z" fill="white" stroke="#53A1FF" stroke-width="2"/>
<path d="M31.8098 10.5854C31.8697 10.4011 32.1303 10.4011 32.1902 10.5854L34.2002 16.7716C34.227 16.854 34.3038 16.9098 34.3904 16.9098H40.895C41.0888 16.9098 41.1693 17.1578 41.0126 17.2716L35.7503 21.0949C35.6802 21.1459 35.6508 21.2361 35.6776 21.3185L37.6876 27.5048C37.7475 27.689 37.5366 27.8422 37.3799 27.7284L32.1176 23.9051C32.0475 23.8541 31.9525 23.8541 31.8824 23.9051L26.6201 27.7284C26.4634 27.8422 26.2525 27.689 26.3124 27.5048L28.3224 21.3185C28.3492 21.2361 28.3198 21.1459 28.2497 21.0949L22.9874 17.2716C22.8307 17.1578 22.9112 16.9098 23.105 16.9098H29.6096C29.6962 16.9098 29.773 16.854 29.7998 16.7716L31.8098 10.5854Z" fill="white" stroke="#53A1FF" stroke-width="2"/>
<path d="M15.8098 21.5854C15.8697 21.4011 16.1303 21.4011 16.1902 21.5854L17.3022 25.0077C17.329 25.0901 17.4057 25.1459 17.4924 25.1459H21.0908C21.2845 25.1459 21.3651 25.3938 21.2084 25.5077L18.2972 27.6228C18.2271 27.6737 18.1978 27.764 18.2245 27.8464L19.3365 31.2687C19.3964 31.453 19.1855 31.6062 19.0287 31.4923L16.1176 29.3772C16.0475 29.3263 15.9525 29.3263 15.8824 29.3772L12.9713 31.4923C12.8145 31.6062 12.6036 31.453 12.6635 31.2687L13.7755 27.8464C13.8022 27.764 13.7729 27.6737 13.7028 27.6228L10.7916 25.5077C10.6349 25.3938 10.7155 25.1459 10.9092 25.1459H14.5076C14.5943 25.1459 14.671 25.0901 14.6978 25.0077L15.8098 21.5854Z" fill="white" stroke="#B8C0CC" stroke-width="2"/>
<path d="M47.8098 21.5854C47.8697 21.4011 48.1303 21.4011 48.1902 21.5854L49.3022 25.0077C49.329 25.0901 49.4057 25.1459 49.4924 25.1459H53.0908C53.2845 25.1459 53.3651 25.3938 53.2084 25.5077L50.2972 27.6228C50.2271 27.6737 50.1978 27.764 50.2245 27.8464L51.3365 31.2687C51.3964 31.453 51.1855 31.6062 51.0287 31.4923L48.1176 29.3772C48.0475 29.3263 47.9525 29.3263 47.8824 29.3772L44.9713 31.4923C44.8145 31.6062 44.6036 31.453 44.6635 31.2687L45.7755 27.8464C45.8022 27.764 45.7729 27.6737 45.7028 27.6228L42.7916 25.5077C42.6349 25.3938 42.7155 25.1459 42.9092 25.1459H46.5076C46.5943 25.1459 46.671 25.0901 46.6978 25.0077L47.8098 21.5854Z" fill="white" stroke="#B8C0CC" stroke-width="2"/>
</svg>
