<svg width="66" height="66" viewBox="0 0 66 66" fill="none" xmlns="http://www.w3.org/2000/svg">
<path d="M57.3558 1H41.7057C40.9036 1.0023 40.135 1.3109 39.5678 1.85833C39.0006 2.40577 38.6809 3.1476 38.6785 3.92179V9.74884C38.6798 9.84049 38.7053 9.93034 38.7525 10.0099C38.7997 10.0894 38.867 10.1559 38.9483 10.2033C39.0296 10.2507 39.1221 10.2773 39.217 10.2806C39.3119 10.2839 39.4062 10.2637 39.4908 10.2221C40.2938 9.86513 41.199 9.78351 42.0566 9.99079C42.9958 10.2145 43.8176 10.7624 44.3668 11.531C44.916 12.2995 45.1547 13.2356 45.0377 14.1624C44.9207 15.0892 44.4562 15.9426 43.7318 16.5614C43.0074 17.1802 42.0734 17.5216 41.1061 17.5212C40.543 17.5212 39.9868 17.4019 39.4767 17.1718C39.3934 17.1298 39.3004 17.1092 39.2064 17.112C39.1125 17.1147 39.0209 17.1407 38.9404 17.1874C38.8598 17.2341 38.7931 17.3001 38.7466 17.3789C38.7 17.4576 38.6752 17.5466 38.6745 17.6373V23.4827C38.6766 24.257 38.9962 24.999 39.5635 25.5465C40.1307 26.094 40.8995 26.4024 41.7017 26.4044H47.7429C47.8386 26.4054 47.9324 26.4302 48.0153 26.4764C48.0981 26.5226 48.1672 26.5886 48.2158 26.6682C48.2644 26.7477 48.2909 26.838 48.2928 26.9303C48.2946 27.0227 48.2716 27.1139 48.2262 27.1951C47.8323 27.9743 47.7314 28.8615 47.9405 29.7046C48.163 30.617 48.7252 31.4187 49.5202 31.9571C50.3152 32.4954 51.2874 32.7329 52.252 32.6244C53.2166 32.5159 54.1063 32.0689 54.7518 31.3685C55.3972 30.6681 55.7534 29.7632 55.7525 28.8259C55.7525 28.2599 55.6183 27.7014 55.3603 27.1932C55.3153 27.1118 55.2928 27.0206 55.295 26.9284C55.2971 26.8362 55.3239 26.7461 55.3727 26.6668C55.4215 26.5875 55.4907 26.5217 55.5736 26.4757C55.6564 26.4298 55.7501 26.4052 55.8456 26.4044H61.9742C62.7762 26.4021 63.5446 26.0936 64.1116 25.5461C64.6787 24.9986 64.9981 24.2568 65.0003 23.4827V8.38328C64.9942 6.42776 64.187 4.55395 62.7548 3.17073C61.3227 1.78751 59.3819 1.00715 57.3558 1V1Z" stroke="#53A1FF" stroke-width="2" stroke-linecap="round" stroke-linejoin="round"/>
<path d="M53.6732 57.6159V42.5107C53.6705 41.7369 53.3508 40.9956 52.7838 40.4485C52.2168 39.9015 51.4486 39.5931 50.647 39.5908H44.6058C44.5108 39.5918 44.4175 39.6163 44.335 39.6618C44.2524 39.7073 44.1833 39.7723 44.1341 39.8508C44.0849 39.9293 44.0574 40.0187 44.0539 40.1103C44.0505 40.202 44.0713 40.293 44.1145 40.3747C44.4847 41.1497 44.5696 42.0234 44.3551 42.8513C44.1225 43.7571 43.5545 44.5495 42.7583 45.0789C41.9621 45.6084 40.9928 45.8384 40.033 45.7256C39.0732 45.6127 38.1894 45.1648 37.5482 44.4663C36.9069 43.7678 36.5526 42.8671 36.5521 41.9339C36.5519 41.3903 36.6759 40.8533 36.9151 40.3612C36.9575 40.281 36.9779 40.1917 36.9745 40.1018C36.9711 40.0119 36.944 39.9243 36.8956 39.8474C36.8473 39.7704 36.7795 39.7066 36.6985 39.6621C36.6175 39.6175 36.5261 39.5937 36.4329 39.5928H27.3494V48.3445C27.3485 48.437 27.3229 48.5276 27.2749 48.6077C27.227 48.6878 27.1585 48.7546 27.0759 48.8015C26.9934 48.8485 26.8996 48.874 26.8038 48.8757C26.708 48.8773 26.6134 48.855 26.5292 48.811C25.7222 48.4309 24.8035 48.3334 23.9303 48.5351C22.9849 48.7499 22.1543 49.2926 21.5965 50.0599C21.0387 50.8272 20.7926 51.7656 20.905 52.6967C21.0175 53.6277 21.4806 54.4864 22.2063 55.1093C22.9319 55.7323 23.8695 56.076 24.8407 56.0752C25.4266 56.075 26.0048 55.9459 26.5312 55.6977C26.6154 55.6541 26.7098 55.6322 26.8053 55.6341C26.9008 55.636 26.9942 55.6616 27.0764 55.7085C27.1587 55.7554 27.227 55.822 27.2748 55.9018C27.3226 55.9816 27.3483 56.072 27.3494 56.1642V65.0001H46.0246C48.0516 64.9945 49.9941 64.2147 51.4273 62.831C52.8604 61.4474 53.6679 59.5724 53.6732 57.6159V57.6159Z" stroke="#B8C0CC" stroke-width="2" stroke-linecap="round" stroke-linejoin="round"/>
<path d="M8.65057 64.9455H27.3258V56.1928C27.3245 56.1014 27.2992 56.0117 27.2522 55.9323C27.2052 55.8529 27.138 55.7863 27.057 55.7389C26.9759 55.6915 26.8836 55.6647 26.7889 55.6612C26.6942 55.6576 26.6002 55.6773 26.5156 55.7186C25.7125 56.0764 24.8067 56.1584 23.9486 55.9509C23.0094 55.7272 22.1876 55.1792 21.6384 54.4105C21.0891 53.6418 20.8505 52.7057 20.9676 51.7788C21.0847 50.8519 21.5495 49.9985 22.2741 49.3797C22.9986 48.761 23.9329 48.4198 24.9003 48.4205C25.4633 48.4208 26.0195 48.54 26.5297 48.7699C26.6127 48.8107 26.7052 48.8305 26.7983 48.8272C26.8915 48.8239 26.9822 48.7977 27.062 48.7511C27.1417 48.7044 27.2077 48.639 27.2539 48.5608C27.3001 48.4826 27.3248 48.3944 27.3258 48.3044V39.5372H18.2574C18.1619 39.536 18.0681 39.511 17.9855 39.4648C17.9028 39.4185 17.8339 39.3525 17.7853 39.273C17.7368 39.1936 17.7102 39.1034 17.7082 39.0112C17.7063 38.9189 17.729 38.8278 17.7741 38.7465C18.1678 37.9672 18.2688 37.0802 18.0599 36.237C17.8374 35.3246 17.2752 34.5229 16.4802 33.9846C15.6852 33.4462 14.7129 33.2087 13.7482 33.3172C12.7836 33.4257 11.894 33.8727 11.2486 34.5731C10.6032 35.2735 10.247 36.1784 10.2479 37.1158C10.2478 37.6817 10.3819 38.2402 10.6399 38.7484C10.6849 38.8298 10.7074 38.921 10.7053 39.0132C10.7031 39.1054 10.6764 39.1955 10.6276 39.2748C10.5788 39.3541 10.5096 39.4199 10.4267 39.4659C10.3439 39.5118 10.2502 39.5364 10.1546 39.5372H1V57.5622C1.00608 59.5188 1.81415 61.3935 3.24762 62.7769C4.68109 64.1602 6.62347 64.9399 8.65057 64.9455V64.9455Z" stroke="#B8C0CC" stroke-width="2" stroke-linecap="round" stroke-linejoin="round"/>
<path d="M1.05518 21.5029V39.5328H10.1235C10.2183 39.5316 10.3112 39.5072 10.3935 39.4618C10.4758 39.4164 10.5447 39.3515 10.5939 39.2733C10.643 39.1951 10.6707 39.1061 10.6744 39.0147C10.6781 38.9233 10.6575 38.8325 10.6148 38.7509C10.2441 37.9761 10.1592 37.1021 10.3742 36.2743C10.6059 35.3678 11.1736 34.5746 11.9699 34.0445C12.7662 33.5144 13.7361 33.2841 14.6963 33.397C15.6566 33.5099 16.5406 33.9583 17.1818 34.6574C17.8229 35.3566 18.1766 36.2581 18.1761 37.1917C18.1759 37.7352 18.0524 38.272 17.8142 38.7644C17.7716 38.8446 17.7509 38.934 17.7542 39.0241C17.7575 39.1141 17.7847 39.2018 17.8331 39.2789C17.8814 39.356 17.9492 39.4199 18.0304 39.4645C18.1115 39.5091 18.2031 39.533 18.2965 39.5338H27.38V30.7821C27.3809 30.6898 27.4065 30.5993 27.4544 30.5193C27.5022 30.4393 27.5707 30.3726 27.6531 30.3257C27.7356 30.2788 27.8291 30.2532 27.9248 30.2515C28.0204 30.2497 28.1148 30.2718 28.199 30.3156C29.0064 30.6956 29.9255 30.7931 30.7991 30.5915C31.7444 30.3767 32.5749 29.834 33.1327 29.0667C33.6905 28.2994 33.9367 27.361 33.8243 26.4299C33.7119 25.4989 33.2487 24.6402 32.523 24.0173C31.7974 23.3943 30.8598 23.0506 29.8886 23.0514C29.3024 23.0517 28.7239 23.1808 28.1971 23.4289C28.113 23.4726 28.0186 23.4945 27.9232 23.4926C27.8277 23.4907 27.7342 23.4651 27.652 23.4182C27.5698 23.3713 27.5017 23.3047 27.454 23.2248C27.4063 23.1449 27.3808 23.0545 27.38 22.9623V17.0472C27.3773 16.2733 27.0574 15.5318 26.4902 14.9848C25.923 14.4377 25.1546 14.1295 24.3528 14.1274H8.70476C6.67915 14.133 4.73796 14.9116 3.30487 16.2934C1.87179 17.6751 1.06311 19.5478 1.05518 21.5029V21.5029Z" stroke="#B8C0CC" stroke-width="2" stroke-linecap="round" stroke-linejoin="round"/>
</svg>
