<svg width="180" height="180" viewBox="0 0 180 180" fill="none" xmlns="http://www.w3.org/2000/svg">
<path d="M90 180C139.706 180 180 139.706 180 90C180 40.2944 139.706 0 90 0C40.2944 0 0 40.2944 0 90C0 139.706 40.2944 180 90 180Z" fill="#F0F4F7"/>
<path d="M94.8535 150.427C95.0511 149.505 95.8661 148.846 96.8091 148.846H114.345C115.288 148.846 116.103 149.505 116.3 150.427L120.635 170.658C120.902 171.903 119.953 173.077 118.68 173.077H92.474C91.2007 173.077 90.2516 171.903 90.5184 170.658L94.8535 150.427Z" fill="white" stroke="#B8C0CC" stroke-width="2"/>
<rect x="38.0769" y="62.3076" width="135" height="86.5383" rx="4" fill="white" stroke="#B8C0CC" stroke-width="2"/>
<path d="M38.0769 66.3076C38.0769 64.0985 39.8678 62.3076 42.0769 62.3076H169.077C171.286 62.3076 173.077 64.0985 173.077 66.3076V131.538H38.0769V66.3076Z" fill="white" stroke="#53A1FF" stroke-width="2"/>
<path d="M69.906 173.077H141.308" stroke="#B8C0CC" stroke-width="2" stroke-linecap="round"/>
<rect x="45" y="34.6155" width="121.154" height="95.1923" rx="2" fill="white"/>
<path d="M166.154 129.808V36.6155C166.154 35.5109 165.258 34.6155 164.154 34.6155H105.577M45 129.808V83.077M105.577 129.808V83.077M105.577 34.6155H47C45.8954 34.6155 45 35.5109 45 36.6155V83.077M105.577 34.6155V83.077M105.577 83.077H45" stroke="#B8C0CC" stroke-width="2"/>
<circle cx="76.1538" cy="48.4615" r="7.65385" fill="white" stroke="#53A1FF" stroke-width="2"/>
<circle cx="76.1538" cy="95.1924" r="7.65385" fill="white" stroke="#53A1FF" stroke-width="2"/>
<path d="M94.075 76.0142C94.1273 76.4283 93.7833 76.8846 93.1923 76.8846H59.1154C58.5243 76.8846 58.1804 76.4283 58.2327 76.0142C59.2497 67.9611 66.8162 61.5769 76.1538 61.5769C85.4914 61.5769 93.0579 67.9611 94.075 76.0142Z" fill="white" stroke="#B8C0CC" stroke-width="2"/>
<path d="M94.075 122.745C94.1273 123.159 93.7833 123.615 93.1923 123.615H59.1154C58.5243 123.615 58.1804 123.159 58.2327 122.745C59.2497 114.692 66.8162 108.308 76.1538 108.308C85.4914 108.308 93.0579 114.692 94.075 122.745Z" fill="white" stroke="#B8C0CC" stroke-width="2"/>
<path d="M115.231 95.4614C115.231 94.9091 115.678 94.4614 116.231 94.4614H155.5C156.052 94.4614 156.5 94.9091 156.5 95.4614V119.423V123.932L151.87 119.302C151.307 118.739 150.544 118.423 149.748 118.423H116.231C115.678 118.423 115.231 117.975 115.231 117.423V95.4614Z" fill="white" stroke="#B8C0CC" stroke-width="2"/>
<path d="M122.885 102.115H148.846" stroke="#53A1FF" stroke-width="2" stroke-linecap="round"/>
<path d="M122.885 109.039H135" stroke="#53A1FF" stroke-width="2" stroke-linecap="round"/>
<path d="M156.5 62.5769C156.5 62.0246 156.052 61.5769 155.5 61.5769H116.231C115.678 61.5769 115.231 62.0246 115.231 62.5769V81.3461V85.855L119.861 81.2248C120.424 80.6622 121.187 80.3461 121.982 80.3461H155.5C156.052 80.3461 156.5 79.8984 156.5 79.3461V62.5769Z" fill="white" stroke="#B8C0CC" stroke-width="2"/>
<path d="M122.885 70.9614H148.846" stroke="#53A1FF" stroke-width="2" stroke-linecap="round"/>
</svg>
