<svg width="104" height="104" viewBox="0 0 104 104" fill="none" xmlns="http://www.w3.org/2000/svg">
<mask id="path-1-inside-1" fill="white">
<path fill-rule="evenodd" clip-rule="evenodd" d="M11.9044 80.3288L5.14216 73.5666C7.44185 70.598 7.40391 66.3845 5.0504 63.374L63.3741 5.05032C66.3846 7.40383 70.5981 7.44177 73.5666 5.1421L80.3288 11.9043C77.821 15.1416 78.0932 19.8595 81.1168 22.8831C84.1404 25.9067 88.8583 26.1789 92.0956 23.671L98.8576 30.4331C96.5578 33.4017 96.5958 37.6153 98.9495 40.6258L40.6258 98.9495C37.6153 96.5959 33.4017 96.5579 30.4331 98.8576L23.6711 92.0955C26.179 88.8582 25.9068 84.1403 22.8832 81.1167C19.8595 78.0931 15.1417 77.8209 11.9044 80.3288Z"/>
</mask>
<path fill-rule="evenodd" clip-rule="evenodd" d="M11.9044 80.3288L5.14216 73.5666C7.44185 70.598 7.40391 66.3845 5.0504 63.374L63.3741 5.05032C66.3846 7.40383 70.5981 7.44177 73.5666 5.1421L80.3288 11.9043C77.821 15.1416 78.0932 19.8595 81.1168 22.8831C84.1404 25.9067 88.8583 26.1789 92.0956 23.671L98.8576 30.4331C96.5578 33.4017 96.5958 37.6153 98.9495 40.6258L40.6258 98.9495C37.6153 96.5959 33.4017 96.5579 30.4331 98.8576L23.6711 92.0955C26.179 88.8582 25.9068 84.1403 22.8832 81.1167C19.8595 78.0931 15.1417 77.8209 11.9044 80.3288Z" fill="white"/>
<path d="M5.14216 73.5666L3.56108 72.3418L2.48193 73.7348L3.72794 74.9808L5.14216 73.5666ZM11.9044 80.3288L10.4901 81.743L11.7362 82.989L13.1292 81.9099L11.9044 80.3288ZM5.0504 63.374L3.63618 61.9598L2.38461 63.2114L3.47474 64.6058L5.0504 63.374ZM63.3741 5.05032L64.6059 3.47466L63.2115 2.38454L61.9599 3.6361L63.3741 5.05032ZM73.5666 5.1421L74.9809 3.72789L73.7349 2.48188L72.3418 3.56103L73.5666 5.1421ZM80.3288 11.9043L81.9099 13.1291L82.9891 11.7361L81.7431 10.4901L80.3288 11.9043ZM92.0956 23.671L93.5098 22.2568L92.2638 21.0108L90.8708 22.09L92.0956 23.671ZM98.8576 30.4331L100.439 31.6579L101.518 30.2649L100.272 29.0188L98.8576 30.4331ZM98.9495 40.6258L100.364 42.04L101.615 40.7884L100.525 39.394L98.9495 40.6258ZM40.6258 98.9495L39.394 100.525L40.7884 101.615L42.04 100.364L40.6258 98.9495ZM30.4331 98.8576L29.0189 100.272L30.2649 101.518L31.6579 100.439L30.4331 98.8576ZM23.6711 92.0955L22.09 90.8707L21.0109 92.2637L22.2569 93.5097L23.6711 92.0955ZM3.72794 74.9808L10.4901 81.743L13.3186 78.9146L6.55637 72.1524L3.72794 74.9808ZM3.47474 64.6058C5.27869 66.9134 5.28619 70.1149 3.56108 72.3418L6.72323 74.7914C9.59751 71.0812 9.52913 65.8557 6.62605 62.1422L3.47474 64.6058ZM61.9599 3.6361L3.63618 61.9598L6.46461 64.7883L64.7883 6.46453L61.9599 3.6361ZM72.3418 3.56103C70.115 5.28611 66.9134 5.27861 64.6059 3.47466L62.1423 6.62597C65.8558 9.52904 71.0812 9.59743 74.7915 6.72318L72.3418 3.56103ZM81.7431 10.4901L74.9809 3.72789L72.1524 6.55631L78.9146 13.3185L81.7431 10.4901ZM82.531 21.4689C80.2087 19.1466 80.0282 15.5582 81.9099 13.1291L78.7478 10.6795C75.6138 14.725 75.9776 20.5723 79.7026 24.2973L82.531 21.4689ZM90.8708 22.09C88.4417 23.9717 84.8532 23.7911 82.531 21.4689L79.7026 24.2973C83.4276 28.0223 89.2749 28.3861 93.3204 25.2521L90.8708 22.09ZM100.272 29.0188L93.5098 22.2568L90.6814 25.0852L97.4434 31.8473L100.272 29.0188ZM100.525 39.394C98.721 37.0864 98.7135 33.8848 100.439 31.6579L97.2765 29.2082C94.4022 32.9186 94.4706 38.1442 97.3739 41.8577L100.525 39.394ZM42.04 100.364L100.364 42.04L97.5353 39.2116L39.2116 97.5353L42.04 100.364ZM31.6579 100.439C33.8848 98.7135 37.0864 98.7211 39.394 100.525L41.8576 97.3739C38.1442 94.4707 32.9186 94.4022 29.2083 97.2765L31.6579 100.439ZM22.2569 93.5097L29.0189 100.272L31.8473 97.4433L25.0853 90.6813L22.2569 93.5097ZM21.469 82.5309C23.7912 84.8532 23.9718 88.4416 22.09 90.8707L25.2522 93.3204C28.3862 89.2748 28.0224 83.4275 24.2974 79.7025L21.469 82.5309ZM13.1292 81.9099C15.5583 80.0281 19.1467 80.2087 21.469 82.5309L24.2974 79.7025C20.5724 75.9775 14.7251 75.6137 10.6795 78.7477L13.1292 81.9099Z" fill="#B8C0CC" mask="url(#path-1-inside-1)"/>
<path d="M83.6041 53.3394L50.0498 19.785" stroke="#B8C0CC" stroke-width="2" stroke-dasharray="4 4"/>
<path d="M16.4955 62.5504L23.7327 55.3132" stroke="#53A1FF" stroke-width="2" stroke-linecap="round"/>
<path d="M30.3119 48.7339L46.7601 32.2857" stroke="#53A1FF" stroke-width="2" stroke-linecap="round"/>
<path d="M41.777 51.1647L41.1038 50.7759L41.1038 50.7759C40.8821 50.6479 40.6375 50.5649 40.3837 50.5315C40.13 50.4981 39.8721 50.515 39.6249 50.5812C39.3777 50.6474 39.146 50.7617 38.9429 50.9175C38.7399 51.0733 38.5695 51.2676 38.4416 51.4892C38.3136 51.7109 38.2305 51.9555 38.1971 52.2093C38.1637 52.463 38.1806 52.7209 38.2468 52.9681C38.3131 53.2153 38.4274 53.447 38.5832 53.6501C38.739 53.8531 38.9332 54.0235 39.1549 54.1515L42.7459 56.2248C42.806 56.2595 42.8724 56.282 42.9412 56.2911C43.01 56.3001 43.0799 56.2955 43.1469 56.2776L41.777 51.1647ZM41.777 51.1647L42.1656 50.4914L42.2089 50.5164L42.1656 50.4914C42.2936 50.2698 42.464 50.0755 42.667 49.9197C42.87 49.7639 43.1018 49.6496 43.349 49.5834C43.5962 49.5171 43.8541 49.5002 44.1078 49.5336C44.3615 49.5671 44.6062 49.6501 44.8279 49.7781C45.0495 49.9061 45.2438 50.0764 45.3996 50.2795C45.5554 50.4825 45.6696 50.7143 45.7359 50.9615C45.8021 51.2087 45.819 51.4665 45.7856 51.7203C45.7522 51.974 45.6691 52.2187 45.5412 52.4403L43.4678 56.0314C43.4331 56.0915 43.3869 56.1442 43.3318 56.1864C43.2768 56.2286 43.214 56.2596 43.147 56.2776L41.777 51.1647ZM39.2676 52.6948L39.2676 52.6947C39.222 52.5243 39.2279 52.3441 39.2846 52.1771C39.3413 52.01 39.4463 51.8635 39.5863 51.7561C39.7263 51.6487 39.8949 51.5852 40.071 51.5736C40.247 51.5621 40.4226 51.603 40.5754 51.6911L41.7061 52.3439C41.7661 52.3786 41.8325 52.4011 41.9013 52.4102C41.97 52.4193 42.0399 52.4147 42.107 52.3967C42.174 52.3788 42.2368 52.3478 42.2918 52.3055C42.3469 52.2633 42.3931 52.2106 42.4278 52.1506C42.4278 52.1506 42.4278 52.1506 42.4278 52.1506L43.0808 51.0198L43.081 51.0194C43.1389 50.9166 43.2167 50.8264 43.3097 50.7539C43.4027 50.6814 43.5091 50.628 43.6229 50.5969C43.7366 50.5658 43.8554 50.5576 43.9724 50.5727C44.0893 50.5878 44.2021 50.6259 44.3043 50.6849C44.4064 50.7438 44.4958 50.8225 44.5674 50.9162C44.6389 51.0099 44.6912 51.1169 44.7211 51.231C44.7511 51.3451 44.7581 51.4639 44.7418 51.5807C44.7255 51.6975 44.6862 51.81 44.6262 51.9115L44.6259 51.9119L42.8168 55.0456L39.6833 53.2363L39.6832 53.2362C39.5815 53.1779 39.4925 53.1001 39.4212 53.0071C39.3498 52.9142 39.2977 52.808 39.2676 52.6948Z" fill="#53A1FF" stroke="#53A1FF" stroke-width="0.1"/>
<mask id="path-7-outside-2" maskUnits="userSpaceOnUse" x="30.1798" y="51.2776" width="30.6186" height="30.6186" fill="black">
<rect fill="white" x="30.1798" y="51.2776" width="30.6186" height="30.6186"/>
<path d="M38.1285 76.4522C37.7577 76.6282 37.4436 76.9046 37.2218 77.25C37 77.5954 36.8795 77.9961 36.8738 78.4066L36.8675 78.7719C36.8654 78.8987 36.9136 79.0212 37.0018 79.1125C37.0899 79.2037 37.2107 79.2562 37.3375 79.2584L43.2274 79.3595C43.2902 79.3607 43.3526 79.3494 43.4111 79.3264C43.4696 79.3034 43.5229 79.269 43.5681 79.2254C43.6133 79.1817 43.6494 79.1296 43.6744 79.072C43.6994 79.0143 43.7128 78.9523 43.7138 78.8895L43.7195 78.5599C43.7259 78.1388 43.6121 77.7246 43.3916 77.3659C43.171 77.0071 42.8528 76.7186 42.4741 76.5342L42.4161 76.506C42.2014 76.4015 42.021 76.2379 41.8959 76.0345C41.7708 75.8311 41.7063 75.5963 41.71 75.3576L41.8273 68.5309L43.3453 67.0641C44.334 66.1057 44.9545 64.8304 45.0985 63.461C45.908 64.5749 47.083 65.3691 48.4185 65.7047L50.4665 66.216L53.9815 72.0694C54.104 72.2744 54.1655 72.51 54.1589 72.7487C54.1523 72.9874 54.0779 73.2193 53.9442 73.4172L53.908 73.4702C53.6723 73.8192 53.5409 74.2282 53.5292 74.6492C53.5176 75.0702 53.6262 75.4858 53.8423 75.8473L54.012 76.1299C54.0443 76.1838 54.0869 76.2308 54.1373 76.2682C54.1878 76.3056 54.2452 76.3327 54.3061 76.348C54.3671 76.3632 54.4304 76.3662 54.4926 76.3569C54.5547 76.3476 54.6144 76.3262 54.6682 76.2938L59.7183 73.2615C59.827 73.1961 59.9054 73.0903 59.9361 72.9672C59.9668 72.8442 59.9474 72.7139 59.8821 72.6052L59.694 72.2919C59.4839 71.9393 59.1792 71.6525 58.8144 71.4643C58.4496 71.276 58.0393 71.1937 57.6302 71.2267C57.3982 71.2454 57.1656 71.1988 56.9588 71.0921C56.752 70.9853 56.5792 70.8228 56.4601 70.6229L52.9269 64.7386L53.4381 62.6905C53.6852 61.6937 53.6667 60.6495 53.3844 59.6621C53.1022 58.6746 52.5662 57.7784 51.8297 57.0627L48.7244 54.0551C48.6487 53.9818 48.5509 53.9355 48.4462 53.9235C48.3416 53.9115 48.2358 53.9344 48.1455 53.9886L43.3345 56.8775L37.7235 56.7814C37.6182 56.7796 37.5151 56.8126 37.4305 56.8754C37.3458 56.9382 37.2842 57.0272 37.2553 57.1285L36.0699 61.2857C35.7899 62.2738 35.7738 63.318 36.0231 64.3143C36.2724 65.3106 36.7785 66.2241 37.4909 66.9638L38.9576 68.4819L38.8399 75.3442C38.8367 75.5769 38.7684 75.804 38.6426 75.9999C38.5169 76.1957 38.3388 76.3524 38.1285 76.4522ZM55.6401 71.1153C55.8503 71.4679 56.155 71.7546 56.5198 71.9429C56.8846 72.1311 57.2948 72.2134 57.704 72.1804C57.9168 72.1632 58.1304 72.201 58.3244 72.2902C58.5184 72.3794 58.6862 72.5171 58.8116 72.6898L54.5935 75.2227C54.5065 75.0278 54.4706 74.8139 54.4892 74.6012C54.5078 74.3886 54.5802 74.1841 54.6997 74.0072L54.7359 73.9542C54.9716 73.6052 55.103 73.1962 55.1146 72.7752C55.1263 72.3542 55.0177 71.9386 54.8017 71.5771L51.4308 65.9638L52.2509 65.4713L55.6401 71.1153ZM52.5098 62.459L51.9986 64.507L50.698 65.288L48.65 64.7767C47.8166 64.5672 47.0527 64.1429 46.4344 63.5462C45.816 62.9495 45.3649 62.2012 45.1259 61.3758L45.037 61.0674L46.169 60.7641C48.1176 60.2423 49.9712 59.4148 51.6607 58.3125C52.1019 58.8968 52.4071 59.5723 52.5541 60.2897C52.701 61.007 52.6859 61.7481 52.51 62.4588L52.5098 62.459ZM48.3229 54.9979L51.0061 57.5967C49.4366 58.6014 47.7215 59.358 45.9213 59.8399L44.7727 60.1477L44.0323 57.5744L48.3229 54.9979ZM38.0747 57.7439L43.0787 57.8299L43.7241 60.4287L42.5255 60.7498C40.7404 61.2285 38.8926 61.4314 37.0462 61.3515L38.0747 57.7439ZM38.179 66.2988C37.673 65.7732 37.2903 65.1416 37.0586 64.4499C36.8268 63.7581 36.7518 63.0234 36.8391 62.2991C38.8376 62.4031 40.8401 62.1921 42.7731 61.6739L43.955 61.3572L44.0322 61.6687C44.2379 62.503 44.2214 63.3767 43.9843 64.2026C43.7471 65.0285 43.2977 65.7779 42.6808 66.376L41.1627 67.8428L39.6459 67.8168L38.179 66.2988ZM39.7962 75.3606L39.9093 68.7782L40.8658 68.7946L40.7535 75.3412C40.7471 75.7623 40.8608 76.1765 41.0814 76.5353C41.302 76.894 41.6202 77.1825 41.9989 77.3669L42.057 77.3951C42.2489 77.4886 42.4138 77.6294 42.5362 77.8043C42.6586 77.9792 42.7345 78.1823 42.7567 78.3947L37.8371 78.3099C37.8593 78.0975 37.9358 77.8944 38.0591 77.7202C38.1825 77.5459 38.3486 77.4062 38.5416 77.3147C38.9124 77.1388 39.2265 76.8624 39.4483 76.517C39.6701 76.1716 39.7907 75.771 39.7964 75.3606L39.7962 75.3606Z"/>
</mask>
<path d="M38.1285 76.4522C37.7577 76.6282 37.4436 76.9046 37.2218 77.25C37 77.5954 36.8795 77.9961 36.8738 78.4066L36.8675 78.7719C36.8654 78.8987 36.9136 79.0212 37.0018 79.1125C37.0899 79.2037 37.2107 79.2562 37.3375 79.2584L43.2274 79.3595C43.2902 79.3607 43.3526 79.3494 43.4111 79.3264C43.4696 79.3034 43.5229 79.269 43.5681 79.2254C43.6133 79.1817 43.6494 79.1296 43.6744 79.072C43.6994 79.0143 43.7128 78.9523 43.7138 78.8895L43.7195 78.5599C43.7259 78.1388 43.6121 77.7246 43.3916 77.3659C43.171 77.0071 42.8528 76.7186 42.4741 76.5342L42.4161 76.506C42.2014 76.4015 42.021 76.2379 41.8959 76.0345C41.7708 75.8311 41.7063 75.5963 41.71 75.3576L41.8273 68.5309L43.3453 67.0641C44.334 66.1057 44.9545 64.8304 45.0985 63.461C45.908 64.5749 47.083 65.3691 48.4185 65.7047L50.4665 66.216L53.9815 72.0694C54.104 72.2744 54.1655 72.51 54.1589 72.7487C54.1523 72.9874 54.0779 73.2193 53.9442 73.4172L53.908 73.4702C53.6723 73.8192 53.5409 74.2282 53.5292 74.6492C53.5176 75.0702 53.6262 75.4858 53.8423 75.8473L54.012 76.1299C54.0443 76.1838 54.0869 76.2308 54.1373 76.2682C54.1878 76.3056 54.2452 76.3327 54.3061 76.348C54.3671 76.3632 54.4304 76.3662 54.4926 76.3569C54.5547 76.3476 54.6144 76.3262 54.6682 76.2938L59.7183 73.2615C59.827 73.1961 59.9054 73.0903 59.9361 72.9672C59.9668 72.8442 59.9474 72.7139 59.8821 72.6052L59.694 72.2919C59.4839 71.9393 59.1792 71.6525 58.8144 71.4643C58.4496 71.276 58.0393 71.1937 57.6302 71.2267C57.3982 71.2454 57.1656 71.1988 56.9588 71.0921C56.752 70.9853 56.5792 70.8228 56.4601 70.6229L52.9269 64.7386L53.4381 62.6905C53.6852 61.6937 53.6667 60.6495 53.3844 59.6621C53.1022 58.6746 52.5662 57.7784 51.8297 57.0627L48.7244 54.0551C48.6487 53.9818 48.5509 53.9355 48.4462 53.9235C48.3416 53.9115 48.2358 53.9344 48.1455 53.9886L43.3345 56.8775L37.7235 56.7814C37.6182 56.7796 37.5151 56.8126 37.4305 56.8754C37.3458 56.9382 37.2842 57.0272 37.2553 57.1285L36.0699 61.2857C35.7899 62.2738 35.7738 63.318 36.0231 64.3143C36.2724 65.3106 36.7785 66.2241 37.4909 66.9638L38.9576 68.4819L38.8399 75.3442C38.8367 75.5769 38.7684 75.804 38.6426 75.9999C38.5169 76.1957 38.3388 76.3524 38.1285 76.4522ZM55.6401 71.1153C55.8503 71.4679 56.155 71.7546 56.5198 71.9429C56.8846 72.1311 57.2948 72.2134 57.704 72.1804C57.9168 72.1632 58.1304 72.201 58.3244 72.2902C58.5184 72.3794 58.6862 72.5171 58.8116 72.6898L54.5935 75.2227C54.5065 75.0278 54.4706 74.8139 54.4892 74.6012C54.5078 74.3886 54.5802 74.1841 54.6997 74.0072L54.7359 73.9542C54.9716 73.6052 55.103 73.1962 55.1146 72.7752C55.1263 72.3542 55.0177 71.9386 54.8017 71.5771L51.4308 65.9638L52.2509 65.4713L55.6401 71.1153ZM52.5098 62.459L51.9986 64.507L50.698 65.288L48.65 64.7767C47.8166 64.5672 47.0527 64.1429 46.4344 63.5462C45.816 62.9495 45.3649 62.2012 45.1259 61.3758L45.037 61.0674L46.169 60.7641C48.1176 60.2423 49.9712 59.4148 51.6607 58.3125C52.1019 58.8968 52.4071 59.5723 52.5541 60.2897C52.701 61.007 52.6859 61.7481 52.51 62.4588L52.5098 62.459ZM48.3229 54.9979L51.0061 57.5967C49.4366 58.6014 47.7215 59.358 45.9213 59.8399L44.7727 60.1477L44.0323 57.5744L48.3229 54.9979ZM38.0747 57.7439L43.0787 57.8299L43.7241 60.4287L42.5255 60.7498C40.7404 61.2285 38.8926 61.4314 37.0462 61.3515L38.0747 57.7439ZM38.179 66.2988C37.673 65.7732 37.2903 65.1416 37.0586 64.4499C36.8268 63.7581 36.7518 63.0234 36.8391 62.2991C38.8376 62.4031 40.8401 62.1921 42.7731 61.6739L43.955 61.3572L44.0322 61.6687C44.2379 62.503 44.2214 63.3767 43.9843 64.2026C43.7471 65.0285 43.2977 65.7779 42.6808 66.376L41.1627 67.8428L39.6459 67.8168L38.179 66.2988ZM39.7962 75.3606L39.9093 68.7782L40.8658 68.7946L40.7535 75.3412C40.7471 75.7623 40.8608 76.1765 41.0814 76.5353C41.302 76.894 41.6202 77.1825 41.9989 77.3669L42.057 77.3951C42.2489 77.4886 42.4138 77.6294 42.5362 77.8043C42.6586 77.9792 42.7345 78.1823 42.7567 78.3947L37.8371 78.3099C37.8593 78.0975 37.9358 77.8944 38.0591 77.7202C38.1825 77.5459 38.3486 77.4062 38.5416 77.3147C38.9124 77.1388 39.2265 76.8624 39.4483 76.517C39.6701 76.1716 39.7907 75.771 39.7964 75.3606L39.7962 75.3606Z" fill="#53A1FF"/>
<path d="M38.1285 76.4522C37.7577 76.6282 37.4436 76.9046 37.2218 77.25C37 77.5954 36.8795 77.9961 36.8738 78.4066L36.8675 78.7719C36.8654 78.8987 36.9136 79.0212 37.0018 79.1125C37.0899 79.2037 37.2107 79.2562 37.3375 79.2584L43.2274 79.3595C43.2902 79.3607 43.3526 79.3494 43.4111 79.3264C43.4696 79.3034 43.5229 79.269 43.5681 79.2254C43.6133 79.1817 43.6494 79.1296 43.6744 79.072C43.6994 79.0143 43.7128 78.9523 43.7138 78.8895L43.7195 78.5599C43.7259 78.1388 43.6121 77.7246 43.3916 77.3659C43.171 77.0071 42.8528 76.7186 42.4741 76.5342L42.4161 76.506C42.2014 76.4015 42.021 76.2379 41.8959 76.0345C41.7708 75.8311 41.7063 75.5963 41.71 75.3576L41.8273 68.5309L43.3453 67.0641C44.334 66.1057 44.9545 64.8304 45.0985 63.461C45.908 64.5749 47.083 65.3691 48.4185 65.7047L50.4665 66.216L53.9815 72.0694C54.104 72.2744 54.1655 72.51 54.1589 72.7487C54.1523 72.9874 54.0779 73.2193 53.9442 73.4172L53.908 73.4702C53.6723 73.8192 53.5409 74.2282 53.5292 74.6492C53.5176 75.0702 53.6262 75.4858 53.8423 75.8473L54.012 76.1299C54.0443 76.1838 54.0869 76.2308 54.1373 76.2682C54.1878 76.3056 54.2452 76.3327 54.3061 76.348C54.3671 76.3632 54.4304 76.3662 54.4926 76.3569C54.5547 76.3476 54.6144 76.3262 54.6682 76.2938L59.7183 73.2615C59.827 73.1961 59.9054 73.0903 59.9361 72.9672C59.9668 72.8442 59.9474 72.7139 59.8821 72.6052L59.694 72.2919C59.4839 71.9393 59.1792 71.6525 58.8144 71.4643C58.4496 71.276 58.0393 71.1937 57.6302 71.2267C57.3982 71.2454 57.1656 71.1988 56.9588 71.0921C56.752 70.9853 56.5792 70.8228 56.4601 70.6229L52.9269 64.7386L53.4381 62.6905C53.6852 61.6937 53.6667 60.6495 53.3844 59.6621C53.1022 58.6746 52.5662 57.7784 51.8297 57.0627L48.7244 54.0551C48.6487 53.9818 48.5509 53.9355 48.4462 53.9235C48.3416 53.9115 48.2358 53.9344 48.1455 53.9886L43.3345 56.8775L37.7235 56.7814C37.6182 56.7796 37.5151 56.8126 37.4305 56.8754C37.3458 56.9382 37.2842 57.0272 37.2553 57.1285L36.0699 61.2857C35.7899 62.2738 35.7738 63.318 36.0231 64.3143C36.2724 65.3106 36.7785 66.2241 37.4909 66.9638L38.9576 68.4819L38.8399 75.3442C38.8367 75.5769 38.7684 75.804 38.6426 75.9999C38.5169 76.1957 38.3388 76.3524 38.1285 76.4522ZM55.6401 71.1153C55.8503 71.4679 56.155 71.7546 56.5198 71.9429C56.8846 72.1311 57.2948 72.2134 57.704 72.1804C57.9168 72.1632 58.1304 72.201 58.3244 72.2902C58.5184 72.3794 58.6862 72.5171 58.8116 72.6898L54.5935 75.2227C54.5065 75.0278 54.4706 74.8139 54.4892 74.6012C54.5078 74.3886 54.5802 74.1841 54.6997 74.0072L54.7359 73.9542C54.9716 73.6052 55.103 73.1962 55.1146 72.7752C55.1263 72.3542 55.0177 71.9386 54.8017 71.5771L51.4308 65.9638L52.2509 65.4713L55.6401 71.1153ZM52.5098 62.459L51.9986 64.507L50.698 65.288L48.65 64.7767C47.8166 64.5672 47.0527 64.1429 46.4344 63.5462C45.816 62.9495 45.3649 62.2012 45.1259 61.3758L45.037 61.0674L46.169 60.7641C48.1176 60.2423 49.9712 59.4148 51.6607 58.3125C52.1019 58.8968 52.4071 59.5723 52.5541 60.2897C52.701 61.007 52.6859 61.7481 52.51 62.4588L52.5098 62.459ZM48.3229 54.9979L51.0061 57.5967C49.4366 58.6014 47.7215 59.358 45.9213 59.8399L44.7727 60.1477L44.0323 57.5744L48.3229 54.9979ZM38.0747 57.7439L43.0787 57.8299L43.7241 60.4287L42.5255 60.7498C40.7404 61.2285 38.8926 61.4314 37.0462 61.3515L38.0747 57.7439ZM38.179 66.2988C37.673 65.7732 37.2903 65.1416 37.0586 64.4499C36.8268 63.7581 36.7518 63.0234 36.8391 62.2991C38.8376 62.4031 40.8401 62.1921 42.7731 61.6739L43.955 61.3572L44.0322 61.6687C44.2379 62.503 44.2214 63.3767 43.9843 64.2026C43.7471 65.0285 43.2977 65.7779 42.6808 66.376L41.1627 67.8428L39.6459 67.8168L38.179 66.2988ZM39.7962 75.3606L39.9093 68.7782L40.8658 68.7946L40.7535 75.3412C40.7471 75.7623 40.8608 76.1765 41.0814 76.5353C41.302 76.894 41.6202 77.1825 41.9989 77.3669L42.057 77.3951C42.2489 77.4886 42.4138 77.6294 42.5362 77.8043C42.6586 77.9792 42.7345 78.1823 42.7567 78.3947L37.8371 78.3099C37.8593 78.0975 37.9358 77.8944 38.0591 77.7202C38.1825 77.5459 38.3486 77.4062 38.5416 77.3147C38.9124 77.1388 39.2265 76.8624 39.4483 76.517C39.6701 76.1716 39.7907 75.771 39.7964 75.3606L39.7962 75.3606Z" stroke="#53A1FF" stroke-width="0.2" mask="url(#path-7-outside-2)"/>
<path d="M38.2806 54.6785L38.2806 54.6785L38.1976 55.6315C38.1976 55.6315 38.1976 55.6315 38.1976 55.6316C38.1916 55.7007 38.1721 55.7679 38.1401 55.8295C38.1081 55.8911 38.0642 55.9457 38.0111 55.9904C37.958 56.035 37.8965 56.0687 37.8304 56.0896L38.2806 54.6785ZM38.2806 54.6785C38.2928 54.5389 38.249 54.4002 38.1589 54.2929C38.0687 54.1856 37.9397 54.1185 37.8001 54.1063C37.6605 54.0942 37.5218 54.138 37.4145 54.2281C37.3072 54.3182 37.2401 54.4473 37.228 54.5869L37.145 55.5398C37.145 55.5398 37.145 55.5398 37.145 55.5398C37.1328 55.6794 37.1766 55.8181 37.2667 55.9254C37.3568 56.0327 37.4858 56.0998 37.6254 56.112L38.2806 54.6785Z" fill="#53A1FF" stroke="#53A1FF" stroke-width="0.1"/>
<path d="M36.4765 55.4878L36.4765 55.4878C36.5644 55.5418 36.6346 55.6204 36.6784 55.7139C36.7222 55.8073 36.7376 55.9116 36.7228 56.0137C36.708 56.1158 36.6636 56.2114 36.5951 56.2886C36.5266 56.3658 36.437 56.4212 36.3373 56.448M36.4765 55.4878L36.3373 56.448C36.3373 56.448 36.3373 56.448 36.3373 56.448M36.4765 55.4878L35.5652 54.9281L35.5652 54.9281M36.4765 55.4878L35.5652 54.9281M36.3373 56.448C36.2679 56.4668 36.1954 56.4712 36.1243 56.4609M36.3373 56.448L36.1243 56.4609M35.5652 54.9281C35.4458 54.8548 35.3021 54.832 35.1659 54.8646M35.5652 54.9281L35.1659 54.8646M35.1659 54.8646C35.0296 54.8972 34.9118 54.9826 34.8385 55.102M35.1659 54.8646L34.8385 55.102M34.8385 55.102C34.7652 55.2214 34.7424 55.365 34.775 55.5013M34.8385 55.102L34.775 55.5013M34.775 55.5013C34.8076 55.6376 34.893 55.7553 35.0124 55.8286M34.775 55.5013L35.0124 55.8286M35.0124 55.8286L35.9236 56.3882L35.0124 55.8286ZM36.1243 56.4609C36.0532 56.4506 35.9849 56.4259 35.9237 56.3882L36.1243 56.4609Z" fill="#53A1FF" stroke="#53A1FF" stroke-width="0.1"/>
<path d="M35.8815 56.8759L35.8815 56.8759C36.0117 56.8244 36.1572 56.8267 36.2858 56.8824C36.4144 56.9381 36.5156 57.0425 36.5671 57.1728C36.6187 57.3031 36.6164 57.4485 36.5607 57.5771C36.505 57.7057 36.4005 57.8069 36.2702 57.8585L35.2758 58.252C35.2758 58.252 35.2758 58.252 35.2758 58.252C35.2568 58.2595 35.2373 58.2659 35.2176 58.2712L35.2175 58.2713C35.0923 58.3046 34.9593 58.2909 34.8436 58.2326C34.728 58.1743 34.6378 58.0755 34.5901 57.9551L35.8815 56.8759ZM35.8815 56.8759L34.887 57.2695M35.8815 56.8759L34.887 57.2695M34.887 57.2695C34.7567 57.321 34.6522 57.4222 34.5966 57.5508M34.887 57.2695L34.5966 57.5508M34.5966 57.5508C34.5409 57.6794 34.5386 57.8248 34.5901 57.9551L34.5966 57.5508ZM35.2046 58.223C35.2225 58.2181 35.2401 58.2123 35.2574 58.2055L34.9054 57.316C34.7874 57.3627 34.6929 57.4543 34.6425 57.5707C34.5921 57.6871 34.59 57.8188 34.6366 57.9367C34.6798 58.0458 34.7614 58.1351 34.8662 58.1879C34.9709 58.2407 35.0913 58.2532 35.2046 58.223Z" fill="#53A1FF" stroke="#53A1FF" stroke-width="0.1"/>
<path d="M47.3855 51.8651L47.3855 51.8651L47.3853 51.8649C47.3045 51.7511 47.1821 51.6739 47.0446 51.6501C46.9072 51.6262 46.7659 51.6578 46.6516 51.7377C46.5373 51.8177 46.4592 51.9396 46.4345 52.0769C46.4098 52.2142 46.4403 52.3557 46.5195 52.4706L46.5195 52.4706L46.5197 52.4708L47.0681 53.2547C47.0681 53.2547 47.0681 53.2547 47.0681 53.2547C47.1303 53.3436 47.2183 53.4112 47.3202 53.4483C47.4222 53.4854 47.533 53.4903 47.6378 53.4622C47.7198 53.4402 47.7954 53.3988 47.858 53.3414C47.9206 53.2841 47.9684 53.2124 47.9975 53.1326C48.0265 53.0528 48.0359 52.9672 48.0249 52.883C48.0138 52.7988 47.9826 52.7185 47.9339 52.6489L47.3855 51.8651Z" fill="#53A1FF" stroke="#53A1FF" stroke-width="0.1"/>
<path d="M48.9829 51.3531L48.996 51.3289C49.0627 51.2057 49.1757 51.1141 49.31 51.0742C49.4443 51.0343 49.589 51.0494 49.7122 51.1162C49.8354 51.1829 49.927 51.2959 49.9669 51.4302C50.0068 51.5645 49.9917 51.7092 49.925 51.8324M48.9829 51.3531L49.3716 52.7488M48.9829 51.3531L48.983 51.3533L48.4869 52.269M48.9829 51.3531L48.4869 52.269M49.925 51.8324L49.881 51.8086L49.925 51.8324L49.925 51.8324ZM49.925 51.8324L49.4158 52.7722M49.4158 52.7722C49.4159 52.772 49.416 52.7719 49.4161 52.7717L49.3716 52.7488M49.4158 52.7722C49.3836 52.8345 49.3394 52.8898 49.2856 52.9349C49.2318 52.98 49.1694 53.014 49.1022 53.0347C49.035 53.0555 48.9643 53.0626 48.8944 53.0557C48.8244 53.0488 48.7565 53.028 48.6947 52.9945C48.6328 52.961 48.5783 52.9155 48.5343 52.8607C48.4903 52.8058 48.4576 52.7427 48.4383 52.6751C48.419 52.6075 48.4134 52.5367 48.4218 52.4669C48.4301 52.3973 48.4523 52.33 48.4869 52.269M49.4158 52.7722L49.4156 52.7726L49.3716 52.7488M49.3716 52.7488L48.4869 52.269" fill="#53A1FF" stroke="#53A1FF" stroke-width="0.1"/>
<path d="M49.6962 53.1742L49.6962 53.1742L50.7542 53.0178L49.6962 53.1742ZM49.6962 53.1742C49.6276 53.1844 49.5616 53.208 49.5021 53.2436M49.6962 53.1742L49.5021 53.2436M49.3202 53.9683C49.2846 53.9088 49.261 53.8428 49.2509 53.7742L49.3202 53.9683ZM49.3202 53.9683C49.3559 54.0278 49.4029 54.0798 49.4586 54.1211C49.5143 54.1625 49.5776 54.1924 49.6449 54.2093C49.7122 54.2262 49.7822 54.2297 49.8508 54.2195C49.8508 54.2195 49.8508 54.2195 49.8508 54.2195L50.9088 54.063L49.3202 53.9683ZM50.9689 54.0506L50.9688 54.0506C50.9491 54.0559 50.929 54.0601 50.9088 54.063L50.9689 54.0506ZM50.9689 54.0506C51.0992 54.0157 51.2111 53.9322 51.2818 53.8173M50.9689 54.0506L51.2818 53.8173M51.2818 53.8173C51.3526 53.7025 51.3767 53.5649 51.3492 53.4329M51.2818 53.8173L51.3492 53.4329M51.3492 53.4329C51.3218 53.3008 51.2449 53.1842 51.1342 53.1071M51.3492 53.4329L51.1342 53.1071M51.1342 53.1071C51.0236 53.0299 50.8877 52.998 50.7543 53.0178L51.1342 53.1071ZM49.5021 53.2436C49.4425 53.2792 49.3906 53.3263 49.3493 53.382M49.5021 53.2436L49.3493 53.382M49.3493 53.382C49.3079 53.4377 49.2779 53.501 49.2611 53.5683M49.3493 53.382L49.2611 53.5683M49.2611 53.5683C49.2442 53.6356 49.2407 53.7055 49.2509 53.7742L49.2611 53.5683ZM51.1056 53.1481C51.0055 53.0782 50.8824 53.0493 50.7616 53.0673L50.9015 54.0136C50.9198 54.0109 50.938 54.0071 50.9559 54.0023C51.0739 53.9707 51.1752 53.8951 51.2393 53.7911C51.3033 53.6871 51.3251 53.5626 51.3003 53.443C51.2754 53.3235 51.2058 53.2179 51.1056 53.1481Z" fill="#53A1FF" stroke="#53A1FF" stroke-width="0.1"/>
<path d="M40.9786 66.6631C41.0709 66.6383 41.1547 66.5889 41.2211 66.5201L40.4974 65.8204C40.4246 65.8956 40.3786 65.9926 40.3662 66.0966C40.3539 66.2005 40.376 66.3056 40.4291 66.3958C40.4822 66.486 40.5635 66.5562 40.6604 66.5958C40.7573 66.6353 40.8645 66.642 40.9656 66.6148L40.9785 66.6631C40.9785 66.6631 40.9785 66.6631 40.9786 66.6631ZM40.8492 65.3846L40.4615 65.7856L41.2211 66.5201L41.6088 66.1191C41.657 66.0692 41.695 66.0103 41.7204 65.9458C41.7459 65.8813 41.7584 65.8124 41.7572 65.743C41.7561 65.6736 41.7413 65.6052 41.7136 65.5415C41.686 65.4779 41.6461 65.4203 41.5962 65.3721C41.5464 65.3238 41.4875 65.2859 41.4229 65.2604C41.3584 65.235 41.2895 65.2225 41.2201 65.2236C41.1508 65.2248 41.0823 65.2396 41.0187 65.2672C40.955 65.2949 40.8974 65.3348 40.8492 65.3846L40.8852 65.4194L40.8492 65.3846Z" fill="#53A1FF" stroke="#53A1FF" stroke-width="0.1"/>
<path d="M42.4949 65.2028L42.4949 65.2028C42.4285 65.2717 42.3446 65.3211 42.2523 65.3459C42.2522 65.3459 42.2522 65.3459 42.2522 65.3459L42.4949 65.2028ZM42.4949 65.2028C42.7602 64.9269 42.9499 64.5873 43.0459 64.2168C43.1418 63.8463 43.1407 63.4573 43.0427 63.0873L43.0427 63.0872M42.4949 65.2028L43.0427 63.0872M43.0427 63.0872C43.0064 62.9518 42.9179 62.8364 42.7965 62.7664M43.0427 63.0872L42.7965 62.7664M42.7965 62.7664C42.6752 62.6963 42.531 62.6773 42.3956 62.7136M42.7965 62.7664L42.3956 62.7136M42.3956 62.7136C42.2603 62.7499 42.1449 62.8384 42.0748 62.9598M42.3956 62.7136L42.0748 62.9598M42.0748 62.9598C42.0048 63.0811 41.9858 63.2252 42.022 63.3605M42.0748 62.9598L42.022 63.3605M42.022 63.3605C42.0734 63.5543 42.0739 63.758 42.0237 63.9521M42.022 63.3605L42.0237 63.9521M42.0237 63.9521C41.9734 64.1461 41.8741 64.324 41.7352 64.4685M42.0237 63.9521L41.7352 64.4685M41.7352 64.4685L41.7712 64.5032L41.7352 64.4685Z" fill="#53A1FF" stroke="#53A1FF" stroke-width="0.1"/>
<path d="M50.4117 62.7671L50.4117 62.7671L50.2689 63.3063C50.2511 63.3734 50.2467 63.4433 50.256 63.512C50.2652 63.5808 50.2879 63.647 50.3228 63.707C50.3576 63.767 50.404 63.8196 50.4591 63.8616C50.5143 63.9037 50.5772 63.9345 50.6442 63.9523C50.7113 63.97 50.7812 63.9744 50.85 63.9652C50.9187 63.9559 50.985 63.9332 51.045 63.8984C51.105 63.8635 51.1575 63.8172 51.1996 63.762C51.2417 63.7069 51.2725 63.644 51.2902 63.5769L51.4331 63.0377C51.469 62.9022 51.4496 62.7581 51.3792 62.6369C51.3088 62.5158 51.1931 62.4276 51.0577 62.3917C50.9222 62.3558 50.7781 62.3752 50.6569 62.4456C50.5358 62.516 50.4476 62.6316 50.4117 62.7671Z" fill="#53A1FF" stroke="#53A1FF" stroke-width="0.1"/>
<path d="M51.7595 61.8054L51.7595 61.8053C51.8565 61.435 51.8565 61.046 51.7595 60.6758C51.6625 60.3055 51.4718 59.9665 51.2058 59.6913L51.2057 59.6912C51.1573 59.6415 51.0996 59.6018 51.0359 59.5743C50.9722 59.5469 50.9037 59.5323 50.8343 59.5313C50.7649 59.5303 50.696 59.543 50.6316 59.5687C50.5671 59.5943 50.5083 59.6324 50.4586 59.6808C50.4089 59.7292 50.3691 59.7869 50.3417 59.8506C50.3143 59.9143 50.2996 59.9828 50.2987 60.0522C50.2977 60.1216 50.3104 60.1904 50.3361 60.2549C50.3617 60.3193 50.3997 60.3781 50.4481 60.4278C50.5874 60.5719 50.6873 60.7495 50.7381 60.9434C50.7889 61.1373 50.7889 61.341 50.7381 61.5349L50.7864 61.5476L50.7381 61.5348C50.7203 61.6019 50.716 61.6718 50.7252 61.7405C50.7345 61.8093 50.7572 61.8756 50.792 61.9355C50.8269 61.9955 50.8732 62.0481 50.9284 62.0901C50.9835 62.1322 51.0464 62.163 51.1135 62.1808C51.1806 62.1986 51.2505 62.2029 51.3192 62.1937C51.388 62.1844 51.4543 62.1617 51.5143 62.1269C51.5742 62.092 51.6268 62.0457 51.6689 61.9905C51.7109 61.9354 51.7417 61.8725 51.7595 61.8054ZM51.7111 60.6884C51.6163 60.3265 51.4299 59.9951 51.1698 59.7261L51.7112 61.7926C51.806 61.4306 51.806 61.0504 51.7111 60.6884Z" fill="#53A1FF" stroke="#53A1FF" stroke-width="0.1"/>
</svg>
