<svg width="103" height="108" viewBox="0 0 103 108" fill="none" xmlns="http://www.w3.org/2000/svg">
<path d="M51 102C79.1665 102 102 79.1665 102 51C102 22.8335 79.1665 0 51 0C22.8335 0 0 22.8335 0 51C0 79.1665 22.8335 102 51 102Z" fill="#F0F4F7"/>
<rect x="27.9332" y="26.9885" width="47.2986" height="80.0714" rx="4.06" fill="white" stroke="#B8C0CC" stroke-width="1.88"/>
<ellipse cx="51.5825" cy="99.8048" rx="3.375" ry="3.37447" fill="#EFEFEF"/>
<rect x="34.7075" y="58.8292" width="22.1786" height="5.78571" rx="2.89286" fill="#EFEFEF"/>
<rect x="62.6718" y="58.8292" width="5.78571" height="5.78571" rx="1" fill="#EC008C"/>
<rect x="62.6718" y="71.3629" width="5.78571" height="5.78571" rx="1" fill="#EC008C"/>
<rect x="62.6718" y="83.8966" width="5.78571" height="5.78571" rx="1" fill="#EC008C"/>
<rect x="34.7075" y="71.3629" width="22.1786" height="5.78571" rx="2.89286" fill="#EFEFEF"/>
<rect x="34.7075" y="83.8966" width="22.1786" height="5.78571" rx="2.89286" fill="#EFEFEF"/>
<rect x="32.7789" y="32.7975" width="36.6429" height="21.211" rx="3" fill="#EFEFEF"/>
</svg>
