<svg width="102" height="108" viewBox="0 0 102 108" fill="none" xmlns="http://www.w3.org/2000/svg">
<g clip-path="url(#clip0)">
<path d="M51 102C79.1665 102 102 79.1665 102 51C102 22.8335 79.1665 0 51 0C22.8335 0 0 22.8335 0 51C0 79.1665 22.8335 102 51 102Z" fill="#F0F4F7"/>
<rect x="23.8792" y="26.9006" width="54.1808" height="80.2651" rx="4.06" fill="white" stroke="#B8C0CC" stroke-width="1.88"/>
<ellipse cx="51.4529" cy="98.9248" rx="3.38298" ry="3.38245" fill="#B8C0CC"/>
<rect x="28.7386" y="32.7253" width="44.462" height="17.3954" rx="3" fill="#EFEFEF"/>
<path d="M51.3713 55.9652C51.4005 55.9554 51.4279 55.9464 51.4536 55.938C51.4795 55.9466 51.5074 55.9559 51.5369 55.9659C51.7665 56.0438 52.1009 56.164 52.5092 56.3299C53.3277 56.6624 54.4336 57.1747 55.5849 57.8925C55.7468 57.9934 55.9133 58.0976 56.0835 58.2042C57.1656 58.8816 58.3981 59.6532 59.5524 60.2656C60.2223 60.621 60.8923 60.9374 61.515 61.1552C62.1179 61.3662 62.7716 61.5198 63.3739 61.4566C63.3833 61.4556 63.3917 61.4549 63.3989 61.4545C63.4393 61.5306 63.5037 61.7124 63.5376 62.0728C63.6126 62.8702 63.5019 63.9877 63.3741 65.277C63.3682 65.3373 63.3622 65.398 63.3561 65.4591C63.2327 66.7079 62.6196 70.6107 60.7842 74.7088C58.9929 78.7083 56.0903 82.7807 51.4559 84.8543C46.8217 82.7809 43.9224 78.7118 42.1328 74.7141C40.2993 70.6182 39.6856 66.7149 39.5552 65.4548L39.5509 65.4133C39.411 64.0615 39.2899 62.8912 39.3689 62.0694C39.4035 61.7088 39.4689 61.5285 39.5091 61.4543C39.5173 61.4547 39.5268 61.4554 39.5379 61.4566C40.1391 61.5197 40.792 61.3676 41.3953 61.1577C42.018 60.941 42.6882 60.6259 43.3585 60.2712C44.5699 59.6301 45.8647 58.814 46.9855 58.1075C47.1023 58.0338 47.2173 57.9614 47.3301 57.8904C48.4798 57.1671 49.584 56.6556 50.4011 56.3253C50.8087 56.1606 51.1424 56.0419 51.3713 55.9652ZM63.4395 61.4554C63.4395 61.4555 63.439 61.4554 63.4378 61.4551L63.4395 61.4554ZM39.4705 61.4555C39.4705 61.4555 39.471 61.4554 39.472 61.4552L39.4705 61.4555Z" fill="white" stroke="#EC008C" stroke-width="1.88"/>
<path d="M51.4528 67.5163C50.1183 67.5163 49.0365 68.3705 49.0365 69.4242C49.0363 70.1861 49.6034 70.8416 50.4211 71.1475V73.4667C50.4211 73.9165 50.8829 74.2812 51.4528 74.2812C52.0226 74.2812 52.4844 73.9166 52.4844 73.4667V71.1475C53.3023 70.8416 53.8693 70.1861 53.8693 69.4242C53.8693 68.3705 52.7875 67.5163 51.4528 67.5163Z" fill="#EC008C"/>
</g>
<defs>
<clipPath id="clip0">
<rect width="102" height="108" fill="white"/>
</clipPath>
</defs>
</svg>
