<svg width="254" height="137" viewBox="0 0 254 137" fill="none" xmlns="http://www.w3.org/2000/svg">
<path d="M87 62.9399H76C75.4146 62.9399 74.94 63.4145 74.94 63.9999V83.9999C74.94 84.5854 75.4146 85.0599 76 85.0599H87C87.5854 85.0599 88.06 84.5854 88.06 83.9999V63.9999C88.06 63.4145 87.5854 62.9399 87 62.9399Z" fill="white" stroke="#B8C0CC" stroke-width="1.88"/>
<path d="M81.5 82C82.3284 82 83 81.3284 83 80.5C83 79.6716 82.3284 79 81.5 79C80.6716 79 80 79.6716 80 80.5C80 81.3284 80.6716 82 81.5 82Z" fill="#B8C0CC"/>
<path d="M123.7 25.8C123.7 12.1 112.6 1 98.8 1C85 1 74 12.1 74 25.8C74 36.2 80.4 45.1 89.5 48.8L85.7 56.7L106.7 49.4C107 49.3 107.3 49.2 107.6 49.1H107.7C117 45.5 123.7 36.5 123.7 25.8Z" fill="white" stroke="#EC008C" stroke-width="1.88" stroke-linecap="round" stroke-linejoin="round"/>
<path d="M103.031 28.5625C101.642 28.5625 100.417 29.246 99.6484 30.2854L92.9995 26.8808C93.1099 26.5045 93.1875 26.1146 93.1875 25.7031C93.1875 25.145 93.0731 24.6145 92.8754 24.1264L99.8338 19.9392C100.608 20.848 101.746 21.4375 103.031 21.4375C105.358 21.4375 107.25 19.5451 107.25 17.2188C107.25 14.8924 105.358 13 103.031 13C100.705 13 98.8125 14.8924 98.8125 17.2188C98.8125 17.7549 98.9229 18.2634 99.106 18.7355L92.127 22.9351C91.3532 22.0533 90.2314 21.4844 88.9688 21.4844C86.6424 21.4844 84.75 23.3768 84.75 25.7031C84.75 28.0295 86.6424 29.9219 88.9688 29.9219C90.3811 29.9219 91.6261 29.2183 92.3923 28.1497L99.0193 31.5432C98.8972 31.9373 98.8125 32.3477 98.8125 32.7812C98.8125 35.1076 100.705 37 103.031 37C105.358 37 107.25 35.1076 107.25 32.7812C107.25 30.4549 105.358 28.5625 103.031 28.5625Z" fill="#EC008C"/>
<path d="M2.70949 102.616V84.782C2.70949 67.2685 16.9437 53.0342 34.4572 53.0342H34.9368C52.4503 53.0342 66.6857 67.2685 66.6857 84.782V85.2615C66.6857 102.775 52.4503 117.009 34.9368 117.009H11.6656C3.74941 117.009 2.78922 110.532 2.70949 102.616Z" fill="white"/>
<path d="M2.62977 84.8618V112.292C2.62977 114.77 4.70846 116.77 7.18812 116.85H13.2659C10.7863 116.85 8.7873 114.77 8.70758 112.292V84.8618C8.70758 62.7102 26.4602 53.114 39.4951 53.3544C37.8162 53.114 36.1373 52.9546 34.537 52.9546C16.9437 53.114 2.7095 67.3483 2.62977 84.8618Z" fill="#EAEFF4"/>
<path d="M1.98961 110.932V84.782C1.98961 67.2685 16.2239 53.0342 33.7374 53.0342H34.2181C51.7304 53.0342 65.9659 67.2685 65.9659 84.782V85.2615C65.9659 102.775 51.7304 117.009 34.2181 117.009H8.06739C4.70843 117.009 1.98961 114.291 1.98961 110.932Z" stroke="#B8C0CC" stroke-width="1.88" stroke-miterlimit="10"/>
<path d="M47.1721 72.7859C47.1721 71.1867 48.4523 69.9077 50.0515 69.9077C51.6507 69.9077 52.931 71.1867 52.931 72.7859C52.931 74.3862 51.6507 75.6653 50.0515 75.6653C48.4523 75.6653 47.1721 74.3862 47.1721 72.7859Z" fill="#B8C0CC"/>
<path d="M43.0944 89.2603C43.0944 87.66 44.3735 86.3809 45.9727 86.3809C47.573 86.3809 48.8521 87.66 48.8521 89.2603C48.8521 90.8595 47.573 92.1386 45.9727 92.1386C44.3735 92.1386 43.0944 90.8595 43.0944 89.2603Z" fill="#B8C0CC"/>
<path d="M21.6628 88.1411C21.6628 88.1411 31.9788 100.216 45.1731 89.5797" stroke="#B8C0CC" stroke-width="1.88" stroke-linecap="round"/>
<path d="M181.427 109.115H158.108C140.5 109.115 126.258 94.8728 126.258 77.2665V76.7962C126.258 59.1898 140.5 44.9473 158.108 44.9473H158.577C176.184 44.9473 190.426 59.1898 190.426 76.7962V94.7164C190.348 102.699 189.409 109.115 181.427 109.115Z" fill="white"/>
<path d="M158.577 44.9473C156.934 44.9473 155.212 45.1037 153.569 45.3383C166.637 45.0255 184.479 54.6508 184.479 76.8744V104.42C184.479 106.925 182.444 108.959 179.94 108.959H186.044C188.548 108.959 190.582 106.925 190.582 104.42V76.8744C190.426 59.268 176.184 45.0255 158.577 44.9473Z" fill="#EAEFF4"/>
<path d="M185.105 109.115H158.89C141.282 109.115 127.041 94.8728 127.041 77.2665V76.7962C127.041 59.1898 141.282 44.9473 158.89 44.9473H159.359C176.966 44.9473 191.209 59.1898 191.209 76.7962V103.011C191.131 106.376 188.391 109.115 185.105 109.115Z" stroke="#B8C0CC" stroke-width="1.88" stroke-miterlimit="10"/>
<path d="M144.484 67.2944C144.643 65.3416 143.779 63.6779 142.554 63.5793C141.33 63.4807 140.208 64.9835 140.049 66.9362C139.89 68.8901 140.755 70.5527 141.979 70.6524C143.204 70.751 144.325 69.2471 144.484 67.2944Z" fill="#B8C0CC"/>
<path d="M241.427 103.115H218.108C200.5 103.115 186.258 88.8728 186.258 71.2665V70.7962C186.258 53.1898 200.5 38.9473 218.108 38.9473H218.577C236.184 38.9473 250.426 53.1898 250.426 70.7962V88.7164C250.348 96.6985 249.409 103.115 241.427 103.115Z" fill="white"/>
<path d="M218.577 38.9473C216.934 38.9473 215.212 39.1037 213.569 39.3383C226.637 39.0255 244.479 48.6508 244.479 70.8744V98.42C244.479 100.925 242.444 102.959 239.94 102.959H246.044C248.548 102.959 250.582 100.925 250.582 98.42V70.8744C250.426 53.268 236.184 39.0255 218.577 38.9473Z" fill="#EAEFF4"/>
<path d="M245.105 103.115H218.89C201.282 103.115 187.041 88.8728 187.041 71.2665V70.7962C187.041 53.1898 201.282 38.9473 218.89 38.9473H219.359C236.966 38.9473 251.209 53.1898 251.209 70.7962V97.0113C251.131 100.376 248.391 103.115 245.105 103.115Z" stroke="#B8C0CC" stroke-width="1.88" stroke-miterlimit="10"/>
<path d="M204.484 61.2944C204.643 59.3416 203.779 57.6779 202.554 57.5793C201.33 57.4807 200.208 58.9835 200.049 60.9362C199.89 62.8901 200.755 64.5527 201.979 64.6524C203.204 64.751 204.325 63.2471 204.484 61.2944Z" fill="#B8C0CC"/>
<path d="M201.427 135.115H178.108C160.5 135.115 146.258 120.873 146.258 103.267V102.796C146.258 85.1898 160.5 70.9473 178.108 70.9473H178.577C196.184 70.9473 210.426 85.1898 210.426 102.796V120.716C210.348 128.699 209.409 135.115 201.427 135.115Z" fill="white"/>
<path d="M178.577 70.9473C176.934 70.9473 175.212 71.1037 173.569 71.3383C186.637 71.0255 204.479 80.6508 204.479 102.874V130.42C204.479 132.925 202.444 134.959 199.94 134.959H206.044C208.548 134.959 210.582 132.925 210.582 130.42V102.874C210.426 85.268 196.184 71.0255 178.577 70.9473Z" fill="#EAEFF4"/>
<path d="M205.105 135.115H178.89C161.282 135.115 147.041 120.873 147.041 103.267V102.796C147.041 85.1898 161.282 70.9473 178.89 70.9473H179.359C196.966 70.9473 211.209 85.1898 211.209 102.796V129.011C211.131 132.376 208.391 135.115 205.105 135.115Z" stroke="#B8C0CC" stroke-width="1.88" stroke-miterlimit="10"/>
<path d="M164.484 93.2944C164.643 91.3416 163.779 89.6779 162.554 89.5793C161.33 89.4807 160.208 90.9835 160.049 92.9362C159.89 94.8901 160.755 96.5527 161.979 96.6524C163.204 96.751 164.325 95.2471 164.484 93.2944Z" fill="#B8C0CC"/>
</svg>
