<svg width="61" height="61" viewBox="0 0 61 61" fill="none" xmlns="http://www.w3.org/2000/svg">
<path d="M30.11 52.493C44.1804 52.493 55.5866 41.0868 55.5866 27.0164C55.5866 12.9461 44.1804 1.53986 30.11 1.53986C16.0397 1.53986 4.63342 12.9461 4.63342 27.0164C4.63342 41.0868 16.0397 52.493 30.11 52.493Z" fill="#F0F4F7"/>
<path d="M42 24.2308C44.549 24.2308 46.6154 22.1644 46.6154 19.6154C46.6154 17.0664 44.549 15 42 15C39.451 15 37.3846 17.0664 37.3846 19.6154C37.3846 22.1644 39.451 24.2308 42 24.2308Z" fill="#FCFDFF" stroke="#B8C0CC" stroke-width="1.88"/>
<path d="M48.6627 33.4615C48.9068 33.4639 49.1484 33.4066 49.3695 33.2941C49.5905 33.1815 49.7855 33.0166 49.9399 32.8112C50.0944 32.6059 50.2045 32.3656 50.262 32.1078C50.3194 31.8502 50.3227 31.5818 50.272 31.3224C49.8282 29.3027 48.7705 27.5041 47.2696 26.2174C45.7688 24.9306 43.9123 24.2308 42 24.2308C40.0877 24.2308 38.2312 24.9306 36.7304 26.2174C35.2295 27.5041 34.1718 29.3027 33.7281 31.3224C33.6772 31.5818 33.6806 31.8502 33.7381 32.1078C33.7955 32.3656 33.9056 32.6059 34.0601 32.8112C34.2145 33.0166 34.4095 33.1815 34.6305 33.2941C34.8516 33.4066 35.093 33.4639 35.3372 33.4615H48.6627Z" fill="#FCFDFF" stroke="#B8C0CC" stroke-width="1.88"/>
<path d="M18 24.2308C20.549 24.2308 22.6154 22.1644 22.6154 19.6154C22.6154 17.0664 20.549 15 18 15C15.451 15 13.3846 17.0664 13.3846 19.6154C13.3846 22.1644 15.451 24.2308 18 24.2308Z" fill="#FCFDFF" stroke="#B8C0CC" stroke-width="1.88"/>
<path d="M24.6627 33.4615C24.9068 33.4639 25.1484 33.4066 25.3695 33.2941C25.5905 33.1815 25.7855 33.0166 25.9399 32.8112C26.0944 32.6059 26.2045 32.3656 26.262 32.1078C26.3194 31.8502 26.3227 31.5818 26.272 31.3224C25.8282 29.3027 24.7705 27.5041 23.2696 26.2174C21.7688 24.9306 19.9123 24.2308 18 24.2308C16.0877 24.2308 14.2312 24.9306 12.7304 26.2174C11.2295 27.5041 10.1718 29.3027 9.72809 31.3224C9.67723 31.5818 9.68061 31.8502 9.73806 32.1078C9.79553 32.3656 9.9056 32.6059 10.0601 32.8112C10.2145 33.0166 10.4095 33.1815 10.6305 33.2941C10.8516 33.4066 11.093 33.4639 11.3372 33.4615H24.6627Z" fill="#FCFDFF" stroke="#B8C0CC" stroke-width="1.88"/>
<path d="M30 29.7692C32.549 29.7692 34.6154 27.7028 34.6154 25.1538C34.6154 22.6048 32.549 20.5385 30 20.5385C27.451 20.5385 25.3846 22.6048 25.3846 25.1538C25.3846 27.7028 27.451 29.7692 30 29.7692Z" fill="#FCFDFF" stroke="#EC008C" stroke-width="1.88"/>
<path d="M36.6627 38.9999C36.9068 39.0024 37.1484 38.9451 37.3695 38.8325C37.5905 38.72 37.7855 38.555 37.9399 38.3497C38.0944 38.1443 38.2045 37.9041 38.262 37.6463C38.3194 37.3886 38.3227 37.1203 38.272 36.8609C37.8282 34.8412 36.7705 33.0426 35.2696 31.7558C33.7688 30.4691 31.9123 29.7692 30 29.7692C28.0877 29.7692 26.2312 30.4691 24.7304 31.7558C23.2295 33.0426 22.1718 34.8412 21.7281 36.8609C21.6772 37.1203 21.6806 37.3886 21.7381 37.6463C21.7955 37.9041 21.9056 38.1443 22.0601 38.3497C22.2145 38.555 22.4095 38.72 22.6305 38.8325C22.8516 38.9451 23.093 39.0024 23.3372 38.9999H36.6627Z" fill="#FCFDFF" stroke="#EC008C" stroke-width="1.88"/>
</svg>
