<svg width="61" height="60" viewBox="0 0 61 60" fill="none" xmlns="http://www.w3.org/2000/svg">
<path d="M31.4426 51.8149C45.513 51.8149 56.9192 40.4954 56.9192 26.5321C56.9192 12.5688 45.513 1.24927 31.4426 1.24927C17.3723 1.24927 5.96603 12.5688 5.96603 26.5321C5.96603 40.4954 17.3723 51.8149 31.4426 51.8149Z" fill="#F0F4F7"/>
<path d="M39.3881 43H22.3881V48H39.3881V43Z" fill="white" stroke="#B8C0CC" stroke-width="1.88" stroke-miterlimit="10" stroke-linecap="round"/>
<path d="M40.9809 36H43.2671C44.2832 36 45.1468 36.8608 45.1468 37.8734V52.1517C45.1468 53.1644 44.2832 54.0251 43.2671 54.0251H40.9809C39.9649 54.0251 39.1012 53.1644 39.1012 52.1517V37.8734C39.1012 36.8101 39.9649 36 40.9809 36Z" fill="white" stroke="#B8C0CC" stroke-width="1.88" stroke-miterlimit="10" stroke-linecap="round"/>
<path d="M18.5259 36H20.812C21.8281 36 22.6918 36.8608 22.6918 37.8734V52.1517C22.6918 53.1644 21.8281 54.0251 20.812 54.0251H18.5259C17.5098 54.0251 16.6462 53.1644 16.6462 52.1517V37.8734C16.6462 36.8101 17.5098 36 18.5259 36Z" fill="white" stroke="#B8C0CC" stroke-width="1.88" stroke-miterlimit="10" stroke-linecap="round"/>
<path d="M12.4198 39.9199H16V49.9199H12.4198C11.6173 49.9199 11 49.4391 11 48.8141V41.0738C11 40.4007 11.6173 39.9199 12.4198 39.9199Z" fill="white" stroke="#B8C0CC" stroke-width="1.88" stroke-miterlimit="10" stroke-linecap="round"/>
<path d="M46 39.9199H49.5803C50.3828 39.9199 51 40.403 51 41.031V48.8088C51 49.4368 50.3828 49.9199 49.5803 49.9199H46V39.9199Z" fill="white" stroke="#B8C0CC" stroke-width="1.88" stroke-miterlimit="10" stroke-linecap="round"/>
<path d="M30.2182 12L30.2182 28.803" stroke="#B8C0CC" stroke-width="1.88" stroke-linecap="round" stroke-linejoin="round"/>
<path d="M30.2182 35.6308C33.9905 35.6308 37.0484 32.5739 37.0484 28.803C37.0484 25.0322 33.9905 21.9753 30.2182 21.9753C26.446 21.9753 23.3881 25.0322 23.3881 28.803C23.3881 32.5739 26.446 35.6308 30.2182 35.6308Z" fill="white" stroke="#B8C0CC" stroke-width="1.88" stroke-linecap="round" stroke-linejoin="round"/>
<path d="M24.3881 11.06C23.8689 11.06 23.4481 11.4809 23.4481 12C23.4481 12.5191 23.8689 12.94 24.3881 12.94V11.06ZM36.3881 12.94C36.9072 12.94 37.3281 12.5191 37.3281 12C37.3281 11.4809 36.9072 11.06 36.3881 11.06V12.94ZM24.3881 12.94H36.3881V11.06H24.3881V12.94Z" fill="#B8C0CC"/>
</svg>
