<svg width="60" height="60" viewBox="0 0 60 60" fill="none" xmlns="http://www.w3.org/2000/svg">
<path d="M30.0501 51.4158C44.1204 51.4158 55.5267 39.906 55.5267 25.7079C55.5267 11.5098 44.1204 0 30.0501 0C15.9797 0 4.57349 11.5098 4.57349 25.7079C4.57349 39.906 15.9797 51.4158 30.0501 51.4158Z" fill="#F0F4F7"/>
<path d="M46.7354 14.999H16.2978C15.0287 14.999 14 16.0285 14 17.2986V36.895C14 38.165 15.0287 39.1946 16.2978 39.1946H46.7354C48.0044 39.1946 49.0332 38.165 49.0332 36.895V17.2986C49.0332 16.0285 48.0044 14.999 46.7354 14.999Z" fill="white" stroke="#B8C0CC" stroke-width="1.88" stroke-miterlimit="10"/>
<path d="M24 14.999L24 38.3857" stroke="#B8C0CC" stroke-width="1.88" stroke-miterlimit="10" stroke-linecap="round" stroke-linejoin="round"/>
<path d="M49 29.2344L14 29.2344" stroke="#B8C0CC" stroke-width="1.88" stroke-miterlimit="10" stroke-linecap="round" stroke-linejoin="round"/>
<path d="M24.5 14.5411V11.0991C24.5 11.0991 24.2353 7.88129 21.1888 7.88129C18.1422 7.88129 18 10.6542 18 11.0991C18 11.5439 18.1801 14.6122 21.1528 14.6122C24.1255 14.6122 24.3289 14.6304 24.3289 14.6304" stroke="#EC008C" stroke-width="1.88" stroke-miterlimit="10" stroke-linecap="round"/>
<path d="M24.5 14.5411V11.0991C24.5 11.0991 24.7647 7.88129 27.8112 7.88129C30.8578 7.88129 31 10.6633 31 11.1082C31 11.553 30.8199 14.6213 27.8472 14.6213C24.8745 14.6213 24.6693 14.6395 24.6693 14.6395" stroke="#EC008C" stroke-width="1.88" stroke-miterlimit="10" stroke-linecap="round"/>
</svg>
