<svg width="101" height="108" viewBox="0 0 101 108" fill="none" xmlns="http://www.w3.org/2000/svg">
<g clip-path="url(#clip0)">
<path d="M51 102C79.1665 102 102 79.1665 102 51C102 22.8335 79.1665 0 51 0C22.8335 0 0 22.8335 0 51C0 79.1665 22.8335 102 51 102Z" fill="#F0F4F7"/>
<path d="M82.5515 26.0439H18.2183C17.4748 26.0439 16.8721 26.7531 16.8721 27.628V74.3877C16.8721 75.2626 17.4748 75.9718 18.2183 75.9718H82.5515C83.295 75.9718 83.8978 75.2626 83.8978 74.3877V27.628C83.8978 26.6815 83.295 26.0439 82.5515 26.0439Z" fill="white" stroke="#B8C0CC" stroke-width="1.88"/>
<rect x="23.8666" y="31.553" width="11.27" height="8.39065" rx="2" fill="#EFEFEF"/>
<rect x="23.8666" y="42.8314" width="11.27" height="8.39065" rx="2" fill="#EFEFEF"/>
<rect x="23.8666" y="54.355" width="11.27" height="8.39065" rx="2" fill="#EC008C"/>
<rect x="37.8721" y="31.553" width="11.27" height="8.39065" rx="2" fill="#EFEFEF"/>
<rect x="37.8721" y="42.8314" width="11.27" height="8.39065" rx="2" fill="#EFEFEF"/>
<rect x="37.8721" y="54.355" width="11.27" height="8.39065" rx="2" fill="#EFEFEF"/>
<rect x="51.6506" y="31.553" width="11.27" height="8.39065" rx="2" fill="#EFEFEF"/>
<rect x="51.6506" y="42.8314" width="11.27" height="8.39065" rx="2" fill="#EFEFEF"/>
<rect x="51.6506" y="54.355" width="11.27" height="8.39065" rx="2" fill="#EFEFEF"/>
<rect x="65.4684" y="31.553" width="11.27" height="8.39065" rx="2" fill="#EFEFEF"/>
<rect x="65.4684" y="42.8314" width="11.27" height="8.39065" rx="2" fill="#EFEFEF"/>
<rect x="65.4684" y="54.355" width="11.27" height="8.39065" fill="#EFEFEF"/>
<path d="M65.9579 81.2538C70.5195 81.2538 74.2175 77.5224 74.2175 72.9197C74.2175 68.3169 70.5195 64.5856 65.9579 64.5856C61.3962 64.5856 57.6982 68.3169 57.6982 72.9197C57.6982 77.5224 61.3962 81.2538 65.9579 81.2538Z" fill="white" stroke="#B8C0CC" stroke-width="1.88"/>
<path d="M79.4108 97.9219C79.8659 97.926 80.3162 97.829 80.7283 97.6386C81.1404 97.448 81.5038 97.1688 81.7916 96.8211C82.0796 96.4736 82.2848 96.0667 82.3919 95.6304C82.4989 95.1942 82.5053 94.74 82.4106 94.3009C81.5833 90.8817 79.6117 87.8369 76.8138 85.6587C74.016 83.4804 70.5551 82.2956 66.9903 82.2956C63.4255 82.2956 59.9647 83.4804 57.1668 85.6587C54.3689 87.8369 52.3973 90.8817 51.5701 94.3009C51.4753 94.74 51.4816 95.1942 51.5887 95.6304C51.6958 96.0667 51.901 96.4736 52.1889 96.8211C52.4769 97.1688 52.8403 97.448 53.2524 97.6386C53.6645 97.829 54.1146 97.926 54.5697 97.9219H79.4108Z" fill="white" stroke="#B8C0CC" stroke-width="1.88"/>
<path d="M40.125 85.7928C45.9289 85.7928 50.6339 81.0453 50.6339 75.1892C50.6339 69.333 45.9289 64.5856 40.125 64.5856C34.3212 64.5856 29.6161 69.333 29.6161 75.1892C29.6161 81.0453 34.3212 85.7928 40.125 85.7928Z" fill="white" stroke="#B8C0CC" stroke-width="1.88"/>
<path d="M57.2651 107C57.8406 107.005 58.41 106.885 58.9312 106.65C59.4524 106.415 59.912 106.071 60.2759 105.642C60.6401 105.213 60.8996 104.711 61.0351 104.173C61.1704 103.635 61.1784 103.074 61.0586 102.532C60.0125 98.3139 57.5192 94.5573 53.9809 91.8699C50.4428 89.1824 46.0661 87.7207 41.5581 87.7207C37.0501 87.7207 32.6735 89.1824 29.1352 91.8699C25.597 94.5573 23.1036 98.3139 22.0576 102.532C21.9377 103.074 21.9457 103.635 22.0811 104.173C22.2166 104.711 22.4761 105.213 22.8402 105.642C23.2043 106.071 23.6639 106.415 24.185 106.65C24.7062 106.885 25.2753 107.005 25.8509 107H57.2651Z" fill="white" stroke="#B8C0CC" stroke-width="1.88"/>
</g>
<defs>
<clipPath id="clip0">
<rect width="101" height="108" fill="white"/>
</clipPath>
</defs>
</svg>
