<svg width="61" height="60" viewBox="0 0 61 60" fill="none" xmlns="http://www.w3.org/2000/svg">
<g clip-path="url(#clip0)">
<path d="M31.0986 51.8149C45.169 51.8149 56.5752 40.4954 56.5752 26.5321C56.5752 12.5688 45.169 1.24927 31.0986 1.24927C17.0283 1.24927 5.62204 12.5688 5.62204 26.5321C5.62204 40.4954 17.0283 51.8149 31.0986 51.8149Z" fill="#F0F4F7"/>
</g>
<path d="M27.5928 30.2536C27.5928 30.2536 30.5928 39.7999 26.3928 44.4999C22.1928 49.1999 12.8928 53.4999 11.2928 44.9999C9.69276 36.4999 10.6928 18.2999 20.6928 16.1999C24.1928 15.5999 27.8928 17.5999 27.5928 24.2999C27.3928 27.3999 27.3881 28.5 27.3881 28.5" fill="white"/>
<path d="M27.5928 30.2536C27.5928 30.2536 30.5928 39.7999 26.3928 44.4999C22.1928 49.1999 12.8928 53.4999 11.2928 44.9999C9.69276 36.4999 10.6928 18.2999 20.6928 16.1999C24.1928 15.5999 27.8928 17.5999 27.5928 24.2999C27.3928 27.3999 27.3881 28.5 27.3881 28.5L27.5928 30.2536Z" stroke="#B8C0CC" stroke-width="1.88" stroke-miterlimit="10" stroke-linecap="round" stroke-linejoin="round"/>
<path d="M31.6927 10V22.2C31.6927 22.2 32.1927 27.8 24.4927 29.8" stroke="#B8C0CC" stroke-width="1.88" stroke-miterlimit="10" stroke-linecap="round" stroke-linejoin="round"/>
<path d="M35.3881 30C35.3881 30 32.7927 39.7999 36.9927 44.4999C41.1927 49.1999 50.4927 53.4999 52.0927 44.9999C53.6927 36.4999 52.6927 18.2999 42.6927 16.1999C39.1927 15.5999 35.4927 17.5999 35.7927 24.2999C35.9927 27.3999 35.7927 28.6999 35.7927 28.6999" fill="white"/>
<path d="M35.3881 30C35.3881 30 32.7927 39.7999 36.9927 44.4999C41.1927 49.1999 50.4927 53.4999 52.0927 44.9999C53.6927 36.4999 52.6927 18.2999 42.6927 16.1999C39.1927 15.5999 35.4927 17.5999 35.7927 24.2999C35.9927 27.3999 35.7927 28.6999 35.7927 28.6999L35.3881 30Z" stroke="#B8C0CC" stroke-width="1.88" stroke-miterlimit="10" stroke-linecap="round" stroke-linejoin="round"/>
<path d="M31.6928 10V22.2C31.6928 22.2 31.1928 27.8 38.8928 29.8" stroke="#B8C0CC" stroke-width="1.88" stroke-miterlimit="10" stroke-linecap="round" stroke-linejoin="round"/>
<defs>
<clipPath id="clip0">
<rect width="60" height="60" fill="white" transform="translate(0.0223389)"/>
</clipPath>
</defs>
</svg>
