<svg width="67" height="73" viewBox="0 0 67 73" fill="none" xmlns="http://www.w3.org/2000/svg">
<mask id="path-1-inside-1" fill="white">
<path fill-rule="evenodd" clip-rule="evenodd" d="M51.384 14.2857L51.384 14.2996C55.3868 15.7115 58.2546 19.5215 58.2546 24C58.2546 29.6807 53.6406 34.2857 47.9488 34.2857C47.9488 34.2857 47.9488 34.2857 47.9487 34.2857L19.3215 34.2857C12.9973 34.2857 7.87057 29.169 7.87057 22.8571C7.87057 18.5645 10.2419 14.8246 13.7484 12.8711C13.6486 12.406 13.5961 11.9234 13.5961 11.4286C13.5961 7.64148 16.6721 4.57143 20.4666 4.57143C22.2691 4.57143 23.9094 5.26416 25.1349 6.39742C27.6982 2.54186 32.0869 0 37.0704 0C44.9756 0 51.384 6.39593 51.384 14.2857Z"/>
</mask>
<path d="M51.384 14.2996L49.504 14.2985C49.5036 15.0961 50.0065 15.8072 50.7586 16.0725L51.384 14.2996ZM51.384 14.2857L53.264 14.2868V14.2857H51.384ZM47.9487 34.2857V36.1657V34.2857ZM19.3215 34.2857L19.3215 32.4057H19.3215V34.2857ZM13.7484 12.8711L14.6633 14.5134C15.3853 14.1112 15.7599 13.2848 15.5866 12.4768L13.7484 12.8711ZM25.1349 6.39742L23.8586 7.77773C24.263 8.15168 24.811 8.32948 25.3579 8.26415C25.9048 8.19882 26.3956 7.89694 26.7005 7.43826L25.1349 6.39742ZM53.264 14.3006L53.264 14.2868L49.504 14.2847L49.504 14.2985L53.264 14.3006ZM60.1346 24C60.1346 18.6977 56.7386 14.1949 52.0094 12.5266L50.7586 16.0725C54.035 17.2282 56.3746 20.3453 56.3746 24H60.1346ZM47.9488 36.1657C54.6754 36.1657 60.1346 30.7224 60.1346 24H56.3746C56.3746 28.6389 52.6057 32.4057 47.9488 32.4057V36.1657ZM47.9487 36.1657H47.9487H47.9487C47.9487 36.1657 47.9487 36.1657 47.9487 36.1657C47.9487 36.1657 47.9487 36.1657 47.9487 36.1657C47.9487 36.1657 47.9487 36.1657 47.9487 36.1657C47.9487 36.1657 47.9487 36.1657 47.9487 36.1657C47.9487 36.1657 47.9487 36.1657 47.9487 36.1657C47.9487 36.1657 47.9487 36.1657 47.9488 36.1657C47.9488 36.1657 47.9488 36.1657 47.9488 36.1657C47.9488 36.1657 47.9488 36.1657 47.9488 36.1657C47.9488 36.1657 47.9488 36.1657 47.9488 36.1657C47.9488 36.1657 47.9488 36.1657 47.9488 36.1657H47.9488H47.9488H47.9488H47.9488H47.9488H47.9488C47.9488 36.1657 47.9488 36.1657 47.9488 36.1657C47.9488 36.1657 47.9488 36.1657 47.9488 36.1657C47.9488 36.1657 47.9488 36.1657 47.9488 36.1657C47.9488 36.1657 47.9488 36.1657 47.9488 36.1657C47.9488 36.1657 47.9488 36.1657 47.9488 36.1657C47.9488 36.1657 47.9488 36.1657 47.9488 36.1657C47.9488 36.1657 47.9488 36.1657 47.9488 36.1657C47.9488 36.1657 47.9488 36.1657 47.9488 36.1657C47.9488 36.1657 47.9488 36.1657 47.9488 36.1657C47.9488 36.1657 47.9488 36.1657 47.9488 36.1657H47.9488H47.9488V32.4057H47.9488H47.9488C47.9488 32.4057 47.9488 32.4057 47.9488 32.4057C47.9488 32.4057 47.9488 32.4057 47.9488 32.4057C47.9488 32.4057 47.9488 32.4057 47.9488 32.4057C47.9488 32.4057 47.9488 32.4057 47.9488 32.4057C47.9488 32.4057 47.9488 32.4057 47.9488 32.4057C47.9488 32.4057 47.9488 32.4057 47.9488 32.4057C47.9488 32.4057 47.9488 32.4057 47.9488 32.4057C47.9488 32.4057 47.9488 32.4057 47.9488 32.4057C47.9488 32.4057 47.9488 32.4057 47.9488 32.4057C47.9488 32.4057 47.9488 32.4057 47.9488 32.4057H47.9488H47.9488H47.9488H47.9488H47.9488H47.9488C47.9488 32.4057 47.9488 32.4057 47.9488 32.4057C47.9488 32.4057 47.9488 32.4057 47.9488 32.4057C47.9488 32.4057 47.9488 32.4057 47.9488 32.4057C47.9488 32.4057 47.9488 32.4057 47.9488 32.4057C47.9487 32.4057 47.9487 32.4057 47.9487 32.4057C47.9487 32.4057 47.9487 32.4057 47.9487 32.4057C47.9487 32.4057 47.9487 32.4057 47.9487 32.4057C47.9487 32.4057 47.9487 32.4057 47.9487 32.4057C47.9487 32.4057 47.9487 32.4057 47.9487 32.4057C47.9487 32.4057 47.9487 32.4057 47.9487 32.4057H47.9487H47.9487V36.1657ZM47.9487 32.4057L19.3215 32.4057L19.3215 36.1657L47.9487 36.1657V32.4057ZM5.99057 22.8571C5.99057 30.2107 11.9625 36.1657 19.3215 36.1657V32.4057C14.0321 32.4057 9.75057 28.1272 9.75057 22.8571H5.99057ZM12.8334 11.2288C8.75648 13.5001 5.99057 17.854 5.99057 22.8571H9.75057C9.75057 19.2749 11.7272 16.1491 14.6633 14.5134L12.8334 11.2288ZM11.7161 11.4286C11.7161 12.0568 11.7828 12.6715 11.9102 13.2654L15.5866 12.4768C15.5144 12.1405 15.4761 11.79 15.4761 11.4286H11.7161ZM20.4666 2.69143C15.6373 2.69143 11.7161 6.59973 11.7161 11.4286H15.4761C15.4761 8.68323 17.707 6.45143 20.4666 6.45143V2.69143ZM26.4113 5.01711C24.8517 3.57496 22.7602 2.69143 20.4666 2.69143V6.45143C21.778 6.45143 22.9671 6.95336 23.8586 7.77773L26.4113 5.01711ZM37.0704 -1.88C31.4322 -1.88 26.4669 0.998278 23.5694 5.35658L26.7005 7.43826C28.9296 4.08543 32.7416 1.88 37.0704 1.88V-1.88ZM53.264 14.2857C53.264 5.35418 46.0104 -1.88 37.0704 -1.88V1.88C43.9408 1.88 49.504 7.43768 49.504 14.2857H53.264Z" fill="#B8C0CC" mask="url(#path-1-inside-1)"/>
<rect x="1" y="29.7144" width="64.125" height="36.5714" rx="3" fill="white" stroke="#30A3C7" stroke-width="1.88"/>
<path d="M26.9341 66.368L26.1919 71.9999H39.8919L39.1936 66.2856" stroke="#30A3C7" stroke-width="1.88" stroke-miterlimit="10" stroke-linecap="round" stroke-linejoin="round"/>
<path d="M29.6272 19.4285V38.2856L25.6194 34.2856" stroke="#30A3C7" stroke-width="1.88" stroke-linecap="round" stroke-linejoin="round"/>
<path d="M36.4978 38.2856L36.4978 19.4285L40.5056 23.4285" stroke="#30A3C7" stroke-width="1.88" stroke-linecap="round" stroke-linejoin="round"/>
<path d="M1 60.5715L65.125 60.5715" stroke="#30A3C7" stroke-width="1.88"/>
</svg>
