<svg width="70" height="74" viewBox="0 0 70 74" fill="none" xmlns="http://www.w3.org/2000/svg">
<path d="M68.625 73H1.12497L4.61718 37H65.2355L68.625 73Z" stroke="#B8C0CC" stroke-width="1.88" stroke-miterlimit="10" stroke-linejoin="round"/>
<path d="M48.414 48.25L32.4478 25.9477L31.5 16.4219L34.561 8.63519L38.8471 4.25058L43.2095 2.13403L48.2487 1L51.857 1.75571L59.0508 4.93099L63.337 10.4496L65.25 17.1785L64.2276 28.2053L48.414 48.25Z" fill="white"/>
<path d="M65.25 18.955C65.25 31.7125 48.1373 48.25 48.1373 48.25C48.1373 48.25 31.5 31.7125 31.5 18.955C31.5 9.82159 37.6795 1 48.1373 1C58.595 1 65.25 9.82159 65.25 18.955Z" stroke="#30A3C7" stroke-width="1.88"/>
<circle cx="48.375" cy="17.875" r="5.625" stroke="#30A3C7" stroke-width="1.88"/>
<path d="M26.9047 59.8161L8.06672 33.1786L6.94846 21.801L10.56 12.5007L15.6171 7.26379L20.764 4.73582L26.7096 3.38135L30.967 4.28396L39.4546 8.07647L44.5117 14.6679L46.7688 22.7047L45.5625 35.875L26.9047 59.8161Z" fill="white"/>
<path d="M47.25 25.1875C47.25 40.375 26.7148 60.0625 26.7148 60.0625C26.7148 60.0625 6.74997 40.375 6.74997 25.1875C6.74997 14.3144 14.1655 3.8125 26.7148 3.8125C39.2641 3.8125 47.25 14.3144 47.25 25.1875Z" stroke="#30A3C7" stroke-width="1.88"/>
<circle cx="27" cy="23.5" r="6.75" stroke="#30A3C7" stroke-width="1.88"/>
</svg>
