<svg width="106" height="105" viewBox="0 0 106 105" fill="none" xmlns="http://www.w3.org/2000/svg">
<path d="M53 105C82.2711 105 106 81.4949 106 52.5C106 23.5051 82.2711 0 53 0C23.7289 0 0 23.5051 0 52.5C0 81.4949 23.7289 105 53 105Z" fill="#F2F5FA"/>
<rect x="15.94" y="41.94" width="74.12" height="56.12" rx="3.06" fill="white" stroke="#B8C0CC" stroke-width="1.88"/>
<rect x="25" y="51" width="56" height="9" rx="2" fill="#EFEFEF"/>
<rect x="25" y="67" width="23" height="22" rx="2" fill="#EFEFEF"/>
<rect x="58" y="67" width="23" height="22" rx="2" fill="#EFEFEF"/>
<path d="M69.8294 86.4903L69 56.5447L89.258 77.3173L78.3457 77.6195L69.8294 86.4903Z" fill="white" stroke="#11ABD5" stroke-width="2" stroke-linejoin="round"/>
<path d="M44.47 34.44C45.07 34.44 45.37 34.695 45.37 35.205C45.37 35.735 45.07 36 44.47 36H38.77C38.51 36 38.305 35.925 38.155 35.775C38.005 35.615 37.93 35.42 37.93 35.19C37.93 34.89 38.045 34.62 38.275 34.38L41.695 30.705C42.115 30.245 42.42 29.825 42.61 29.445C42.81 29.055 42.91 28.67 42.91 28.29C42.91 27.82 42.775 27.46 42.505 27.21C42.235 26.96 41.85 26.835 41.35 26.835C40.94 26.835 40.54 26.915 40.15 27.075C39.77 27.225 39.385 27.435 38.995 27.705C38.895 27.775 38.795 27.835 38.695 27.885C38.595 27.925 38.495 27.945 38.395 27.945C38.225 27.945 38.075 27.865 37.945 27.705C37.825 27.545 37.765 27.355 37.765 27.135C37.765 26.985 37.79 26.855 37.84 26.745C37.9 26.635 37.99 26.53 38.11 26.43C38.55 26.08 39.065 25.805 39.655 25.605C40.245 25.395 40.835 25.29 41.425 25.29C42.455 25.29 43.275 25.55 43.885 26.07C44.505 26.59 44.815 27.29 44.815 28.17C44.815 28.78 44.685 29.355 44.425 29.895C44.165 30.425 43.725 31.02 43.105 31.68L40.51 34.44H44.47ZM53.8838 32.43C54.1838 32.43 54.4088 32.495 54.5588 32.625C54.7088 32.755 54.7838 32.94 54.7838 33.18C54.7838 33.68 54.4838 33.93 53.8838 33.93H53.1188V35.115C53.1188 35.425 53.0288 35.665 52.8488 35.835C52.6788 36.005 52.4538 36.09 52.1738 36.09C51.8938 36.09 51.6638 36.005 51.4838 35.835C51.3138 35.665 51.2288 35.425 51.2288 35.115V33.93H47.2988C47.0288 33.93 46.8188 33.855 46.6688 33.705C46.5188 33.545 46.4438 33.35 46.4438 33.12C46.4438 32.88 46.5238 32.65 46.6838 32.43L51.3188 25.77C51.4188 25.63 51.5438 25.525 51.6938 25.455C51.8438 25.375 51.9988 25.335 52.1588 25.335C52.4188 25.335 52.6438 25.42 52.8338 25.59C53.0238 25.76 53.1188 26 53.1188 26.31V32.43H53.8838ZM48.4388 32.43H51.2288V28.395L48.4388 32.43ZM56.3229 36.51C56.2629 36.7 56.1679 36.84 56.0379 36.93C55.9079 37.02 55.7629 37.065 55.6029 37.065C55.4029 37.065 55.2229 36.995 55.0629 36.855C54.9129 36.725 54.8379 36.555 54.8379 36.345C54.8379 36.255 54.8529 36.165 54.8829 36.075L58.3629 25.17C58.4229 24.98 58.5179 24.84 58.6479 24.75C58.7779 24.66 58.9229 24.615 59.0829 24.615C59.2829 24.615 59.4579 24.685 59.6079 24.825C59.7679 24.955 59.8479 25.125 59.8479 25.335C59.8479 25.425 59.8329 25.515 59.8029 25.605L56.3229 36.51ZM67.2501 25.425C67.5101 25.425 67.7101 25.5 67.8501 25.65C67.9901 25.79 68.0601 25.975 68.0601 26.205C68.0601 26.435 67.9901 26.675 67.8501 26.925L63.0651 35.61C62.8651 35.95 62.5901 36.12 62.2401 36.12C62.0001 36.12 61.7851 36.04 61.5951 35.88C61.4151 35.71 61.3251 35.505 61.3251 35.265C61.3251 35.095 61.3751 34.925 61.4751 34.755L65.7801 26.985H61.2501C60.6501 26.985 60.3501 26.73 60.3501 26.22C60.3501 25.69 60.6501 25.425 61.2501 25.425H67.2501Z" fill="#B8C0CC"/>
</svg>
