<svg width="102" height="190" viewBox="0 0 102 190" fill="none" xmlns="http://www.w3.org/2000/svg">
<path d="M49.0741 92.5961C74.3836 92.5961 94.9011 72.0786 94.9011 46.7691C94.9011 21.4595 74.3836 0.942078 49.0741 0.942078C23.7645 0.942078 3.24707 21.4595 3.24707 46.7691C3.24707 72.0786 23.7645 92.5961 49.0741 92.5961Z" fill="white"/>
<path d="M20.1213 144.055C20.1213 144.055 -17.0967 120.938 14.7483 79.0941" stroke="#B8C0CC" stroke-width="1.883" stroke-linecap="round" stroke-linejoin="round"/>
<path d="M90.4253 188.786H53.0733C41.1696 188.786 29.7535 184.057 21.3363 175.64C12.9191 167.223 8.19035 155.807 8.19035 143.903C8.19035 138.049 9.34341 132.252 11.5837 126.843C13.824 121.435 17.1077 116.52 21.2472 112.381C25.3868 108.241 30.3011 104.958 35.7097 102.717C41.1183 100.477 46.9151 99.324 52.7693 99.324C64.6731 99.324 76.0892 104.053 84.5064 112.47C92.9236 120.887 97.6523 132.303 97.6523 144.207L97.6523 181.559C97.6523 183.476 96.8909 185.314 95.5356 186.669C94.1803 188.025 92.3421 188.786 90.4253 188.786V188.786Z" fill="white"/>
<path d="M53.3266 99.3931C51.0049 99.3933 48.6868 99.5755 46.3936 99.9381C64.6316 99.5101 89.4175 112.984 89.4175 143.914V182.294C89.4118 183.963 88.7461 185.562 87.5659 186.742C86.3857 187.923 84.7866 188.588 83.1176 188.594H91.5476C93.2166 188.588 94.8157 187.923 95.9959 186.742C97.1761 185.562 97.8418 183.963 97.8476 182.294V143.914C97.8127 132.117 93.111 120.813 84.7692 112.471C76.4274 104.13 65.1235 99.4279 53.3266 99.3931Z" fill="#EAEFF4"/>
<path d="M90.4253 188.786H53.0733C41.1696 188.786 29.7535 184.057 21.3363 175.64C12.9191 167.223 8.19035 155.807 8.19035 143.903C8.19035 138.049 9.34341 132.252 11.5837 126.843C13.824 121.435 17.1077 116.52 21.2472 112.381C25.3868 108.241 30.3011 104.958 35.7097 102.717C41.1183 100.477 46.9151 99.324 52.7693 99.324V99.324C64.6731 99.324 76.0892 104.053 84.5064 112.47C92.9236 120.887 97.6523 132.303 97.6523 144.207L97.6523 181.559C97.6523 183.476 96.8909 185.314 95.5356 186.669C94.1803 188.025 92.3421 188.786 90.4253 188.786V188.786Z" stroke="#B8C0CC" stroke-width="1.883" stroke-linecap="round" stroke-linejoin="round"/>
<path d="M29.5852 134.526C31.0874 134.526 32.3052 132.604 32.3052 130.234C32.3052 127.864 31.0874 125.942 29.5852 125.942C28.083 125.942 26.8652 127.864 26.8652 130.234C26.8652 132.604 28.083 134.526 29.5852 134.526Z" fill="#B8C0CC"/>
<path d="M44.3802 134.526C45.8824 134.526 47.1002 132.604 47.1002 130.234C47.1002 127.864 45.8824 125.942 44.3802 125.942C42.8779 125.942 41.6602 127.864 41.6602 130.234C41.6602 132.604 42.8779 134.526 44.3802 134.526Z" fill="#B8C0CC"/>
<path d="M76.1748 144.055C76.1748 144.055 113.393 120.938 81.5488 79.0941" stroke="#B8C0CC" stroke-width="1.883" stroke-linecap="round" stroke-linejoin="round"/>
<mask id="mask0" mask-type="alpha" maskUnits="userSpaceOnUse" x="1" y="-5" width="101" height="108">
<path opacity="0.12" d="M49.0743 0.942057V46.7691H3.24727C3.24727 46.7691 -0.813728 102.092 3.24727 102.092C7.30827 102.092 101.022 102.342 101.022 102.092V-4.36694L49.0743 0.942057Z" fill="#11ABD5"/>
</mask>
<g mask="url(#mask0)">
<path d="M48.827 92.654C74.1366 92.654 94.654 72.1366 94.654 46.827C94.654 21.5174 74.1366 1 48.827 1C23.5174 1 3 21.5174 3 46.827C3 72.1366 23.5174 92.654 48.827 92.654Z" fill="#11ABD5"/>
</g>
<path d="M31.7578 46.769H49.0738V9.77704" stroke="#B8C0CC" stroke-width="1.883" stroke-linecap="round" stroke-linejoin="round"/>
<path d="M81.5517 83.7601C84.127 83.7601 86.2147 81.6724 86.2147 79.0971C86.2147 76.5218 84.127 74.4341 81.5517 74.4341C78.9764 74.4341 76.8887 76.5218 76.8887 79.0971C76.8887 81.6724 78.9764 83.7601 81.5517 83.7601Z" fill="#B8C0CC"/>
<path d="M14.745 83.7601C17.3203 83.7601 19.408 81.6724 19.408 79.0971C19.408 76.5218 17.3203 74.4341 14.745 74.4341C12.1697 74.4341 10.082 76.5218 10.082 79.0971C10.082 81.6724 12.1697 83.7601 14.745 83.7601Z" fill="#B8C0CC"/>
<path d="M49.0741 92.5961C74.3836 92.5961 94.9011 72.0786 94.9011 46.7691C94.9011 21.4595 74.3836 0.942078 49.0741 0.942078C23.7645 0.942078 3.24707 21.4595 3.24707 46.7691C3.24707 72.0786 23.7645 92.5961 49.0741 92.5961Z" stroke="#B8C0CC" stroke-width="1.883" stroke-linecap="round" stroke-linejoin="round"/>
</svg>
