<svg width="156" height="168" viewBox="0 0 156 168" fill="none" xmlns="http://www.w3.org/2000/svg">
<path d="M93.3942 33.454C93.3942 33.454 70.6942 38.184 61.0322 28.916" stroke="#B8C0CC" stroke-width="1.883" stroke-linecap="round" stroke-linejoin="round"/>
<path d="M64.0522 0.942017C67.0332 0.942017 69.9851 1.52917 72.7392 2.66995C75.4932 3.81073 77.9957 5.4828 80.1036 7.59069C82.2115 9.69858 83.8835 12.201 85.0243 14.9551C86.1651 17.7092 86.7522 20.661 86.7522 23.642C86.752 29.7031 84.344 35.5159 80.0581 39.8016C75.7722 44.0873 69.9593 46.495 63.8982 46.495H44.8782C43.9022 46.495 42.9662 46.1073 42.2761 45.4172C41.586 44.727 41.1982 43.791 41.1982 42.815V23.796C41.1982 17.7348 43.6061 11.9218 47.892 7.6358C52.178 3.34984 57.991 0.942017 64.0522 0.942017V0.942017Z" fill="white"/>
<path d="M63.7686 0.978028C64.9511 0.977671 66.1317 1.07029 67.2996 1.25503C58.0136 1.03703 45.3916 7.89803 45.3916 23.647V43.193C45.394 44.0436 45.733 44.8585 46.3345 45.4599C46.936 46.0612 47.7511 46.3999 48.6016 46.402H44.3086C43.4583 46.3997 42.6434 46.0608 42.0421 45.4595C41.4408 44.8582 41.102 44.0434 41.0996 43.193V23.647C41.117 17.6402 43.5109 11.8844 47.7584 7.63686C52.0059 3.38937 57.7618 0.995441 63.7686 0.978028Z" fill="#EAEFF4"/>
<path d="M64.0522 0.942017C67.0332 0.942017 69.9851 1.52917 72.7392 2.66995C75.4932 3.81073 77.9957 5.4828 80.1036 7.59069C82.2115 9.69858 83.8835 12.201 85.0243 14.9551C86.1651 17.7092 86.7522 20.661 86.7522 23.642V23.642C86.752 29.7031 84.344 35.5159 80.0581 39.8016C75.7722 44.0873 69.9593 46.495 63.8982 46.495H44.8782C43.9022 46.495 42.9662 46.1073 42.2761 45.4172C41.586 44.727 41.1982 43.791 41.1982 42.815V23.796C41.1982 17.7348 43.6061 11.9218 47.892 7.6358C52.178 3.34984 57.991 0.942017 64.0522 0.942017V0.942017Z" stroke="#B8C0CC" stroke-width="1.883" stroke-linecap="round" stroke-linejoin="round"/>
<path d="M78.0387 22.932C78.7666 22.932 79.3567 22.0007 79.3567 20.852C79.3567 19.7032 78.7666 18.772 78.0387 18.772C77.3108 18.772 76.7207 19.7032 76.7207 20.852C76.7207 22.0007 77.3108 22.932 78.0387 22.932Z" fill="#B8C0CC"/>
<path d="M70.8688 22.932C71.5967 22.932 72.1868 22.0007 72.1868 20.852C72.1868 19.7032 71.5967 18.772 70.8688 18.772C70.1409 18.772 69.5508 19.7032 69.5508 20.852C69.5508 22.0007 70.1409 22.932 70.8688 22.932Z" fill="#B8C0CC"/>
<path d="M93.393 35.889C94.7378 35.889 95.828 34.7989 95.828 33.454C95.828 32.1092 94.7378 31.019 93.393 31.019C92.0482 31.019 90.958 32.1092 90.958 33.454C90.958 34.7989 92.0482 35.889 93.393 35.889Z" fill="#B8C0CC"/>
<path d="M145.421 46.46H11.4582C6.16017 46.46 1.86523 50.7549 1.86523 56.053V157.064C1.86523 162.362 6.16017 166.657 11.4582 166.657H145.421C150.719 166.657 155.014 162.362 155.014 157.064V56.053C155.014 50.7549 150.719 46.46 145.421 46.46Z" fill="white" stroke="#B8C0CC" stroke-width="1.883" stroke-linecap="round" stroke-linejoin="round"/>
<path d="M11.8399 59.438C13.6359 59.438 15.0919 57.982 15.0919 56.186C15.0919 54.3899 13.6359 52.934 11.8399 52.934C10.0439 52.934 8.58789 54.3899 8.58789 56.186C8.58789 57.982 10.0439 59.438 11.8399 59.438Z" fill="#B8C0CC"/>
<path d="M21.9678 59.438C23.7639 59.438 25.2198 57.982 25.2198 56.186C25.2198 54.3899 23.7639 52.934 21.9678 52.934C20.1718 52.934 18.7158 54.3899 18.7158 56.186C18.7158 57.982 20.1718 59.438 21.9678 59.438Z" fill="#B8C0CC"/>
<path d="M93.9989 124.208L89.6639 124.969C89.3792 125.019 89.0874 125.012 88.8053 124.95C88.5231 124.887 88.256 124.769 88.0193 124.603C87.7826 124.437 87.5809 124.227 87.4258 123.983C87.2706 123.739 87.165 123.467 87.1149 123.182C87.0649 122.897 87.0714 122.605 87.1342 122.323C87.1969 122.041 87.3146 121.774 87.4805 121.537C87.6464 121.301 87.8574 121.099 88.1013 120.944C88.3451 120.789 88.6172 120.683 88.9019 120.633L93.2379 119.872C96.1122 119.367 98.6682 117.741 100.344 115.351C102.019 112.962 102.676 110.005 102.171 107.13C101.666 104.256 100.04 101.7 97.6508 100.025C95.2614 98.3495 92.3042 97.692 89.4299 98.197L85.0949 98.959C84.5199 99.06 83.9283 98.9285 83.4503 98.5934C82.9723 98.2583 82.647 97.747 82.5459 97.172C82.4449 96.597 82.5764 96.0054 82.9115 95.5274C83.2466 95.0493 83.7579 94.724 84.3329 94.623L88.6689 93.862C92.6929 93.1552 96.8329 94.0758 100.178 96.4215C103.523 98.7671 105.8 102.345 106.506 106.369C107.213 110.393 106.293 114.533 103.947 117.879C101.601 121.224 98.0229 123.5 93.9989 124.207V124.208Z" fill="#11ABD5"/>
<path d="M76.6578 127.255L72.3228 128.016C68.2988 128.723 64.1588 127.802 60.8136 125.457C57.4685 123.111 55.1921 119.532 54.4853 115.508C53.7785 111.484 54.6991 107.345 57.0447 103.999C59.3904 100.654 62.9688 98.3778 66.9928 97.671L71.3278 96.91C71.9028 96.8091 72.4943 96.9407 72.9722 97.2759C73.4501 97.6111 73.7753 98.1225 73.8763 98.6975C73.9772 99.2725 73.8455 99.864 73.5103 100.342C73.1751 100.82 72.6637 101.145 72.0888 101.246L67.7538 102.007C64.8795 102.512 62.3235 104.138 60.6482 106.528C58.9728 108.917 58.3153 111.874 58.8203 114.748C59.3252 117.623 60.9513 120.179 63.3408 121.854C65.7303 123.529 68.6875 124.187 71.5618 123.682L75.8968 122.92C76.4718 122.819 77.0633 122.951 77.5412 123.286C78.0191 123.621 78.3443 124.132 78.4453 124.707C78.5462 125.282 78.4145 125.874 78.0793 126.352C77.7441 126.83 77.2327 127.155 76.6578 127.256V127.255Z" fill="#11ABD5"/>
<path d="M87.3786 111.965L74.3736 114.254C74.0889 114.304 73.7972 114.297 73.515 114.235C73.2328 114.172 72.9658 114.054 72.7292 113.888C72.4925 113.722 72.2909 113.511 72.1358 113.267C71.9807 113.023 71.8751 112.751 71.8251 112.466C71.7752 112.182 71.7818 111.89 71.8446 111.608C71.9073 111.326 72.0251 111.059 72.1911 110.822C72.3571 110.585 72.568 110.384 72.8119 110.229C73.0558 110.073 73.3279 109.968 73.6126 109.918L86.6126 107.634C86.8973 107.584 87.1891 107.59 87.4713 107.653C87.7535 107.716 88.0206 107.834 88.2572 108C88.4939 108.165 88.6956 108.376 88.8508 108.62C89.006 108.864 89.1116 109.136 89.1616 109.421C89.2117 109.706 89.2051 109.997 89.1424 110.28C89.0797 110.562 88.962 110.829 88.796 111.066C88.6301 111.302 88.4192 111.504 88.1753 111.659C87.9314 111.814 87.6593 111.92 87.3746 111.97L87.3786 111.965Z" fill="#11ABD5"/>
<path d="M1.86523 66.444H155.014" stroke="#B8C0CC" stroke-width="1.883" stroke-linecap="round" stroke-linejoin="round"/>
<path d="M93.3945 35.89V94.967" stroke="#B8C0CC" stroke-linecap="round" stroke-linejoin="round"/>
</svg>
