<svg width="490" height="324" viewBox="0 0 490 324" fill="none" xmlns="http://www.w3.org/2000/svg">
<g clip-path="url(#clip0)">
<path d="M228.272 221.997C231.849 221.997 234.749 219.097 234.749 215.518C234.749 211.94 231.849 209.039 228.272 209.039C224.695 209.039 221.795 211.94 221.795 215.518C221.795 219.097 224.695 221.997 228.272 221.997Z" fill="#B8C0CC"/>
<path d="M183.043 220.85C183.043 220.85 192.898 223.146 207.76 221.2C222.621 219.254 225.083 216.495 225.083 216.495" fill="white"/>
<path d="M183.043 220.85C183.043 220.85 192.898 223.146 207.76 221.2C222.621 219.254 225.083 216.495 225.083 216.495" stroke="#B8C0CC" stroke-width="2" stroke-linecap="round" stroke-linejoin="round"/>
<path d="M245 324C380.31 324 490 309.735 490 292.139C490 274.543 380.31 260.278 245 260.278C109.69 260.278 0 274.543 0 292.139C0 309.735 109.69 324 245 324Z" fill="#F2F6F9"/>
<path d="M148.875 157.627H152.991C168.884 157.629 184.125 163.945 195.363 175.188C206.6 186.43 212.913 201.678 212.913 217.576V221.693C212.911 237.696 206.555 253.043 195.243 264.358C183.931 275.673 168.589 282.03 152.592 282.031H102.149C98.7149 282.018 95.4108 280.719 92.8875 278.389C91.5102 277.124 90.4129 275.584 89.666 273.869C88.9192 272.155 88.5394 270.302 88.551 268.432V217.971C88.5509 210.047 90.1111 202.2 93.1427 194.878C96.1742 187.557 100.618 180.904 106.219 175.301C111.821 169.697 118.471 165.252 125.79 162.22C133.109 159.187 140.953 157.627 148.875 157.627V157.627Z" fill="white"/>
<path d="M150.169 157.724C153.397 157.723 156.62 157.977 159.808 158.481C134.454 157.885 99.9981 176.622 99.9981 219.634V273.007C100.005 275.329 100.93 277.554 102.572 279.196C104.213 280.839 106.438 281.764 108.759 281.771H102.9C99.0252 281.759 95.3127 280.213 92.5733 277.472C89.8338 274.731 88.2902 271.016 88.2793 267.14V219.634C88.3274 203.229 94.8633 187.51 106.46 175.91C118.056 164.31 133.77 157.772 150.169 157.724Z" fill="#EAEFF4"/>
<path d="M150.186 157.627H151.663C167.908 157.627 183.487 164.082 194.973 175.573C206.46 187.063 212.913 202.648 212.913 218.898V220.378C212.913 236.729 206.419 252.411 194.861 263.973C183.303 275.535 167.627 282.031 151.281 282.031H102.869C99.3371 282.019 95.932 280.713 93.2972 278.361C91.7943 277.025 90.5935 275.384 89.7751 273.547C88.9566 271.711 88.5393 269.72 88.551 267.709V219.281C88.5515 202.929 95.0455 187.247 106.604 175.685C118.163 164.122 133.84 157.627 150.186 157.627V157.627Z" stroke="#B8C0CC" stroke-width="1.883" stroke-linecap="round"/>
<path d="M183.613 203.114C185.701 203.108 187.387 200.39 187.378 197.044C187.369 193.697 185.668 190.989 183.58 190.995C181.491 191 179.805 193.718 179.814 197.065C179.824 200.411 181.524 203.119 183.613 203.114Z" fill="#B8C0CC"/>
<path d="M184.71 195.118C185.357 195.118 185.881 194.593 185.881 193.946C185.881 193.299 185.357 192.775 184.71 192.775C184.063 192.775 183.539 193.299 183.539 193.946C183.539 194.593 184.063 195.118 184.71 195.118Z" fill="white"/>
<path d="M165.334 203.364C167.422 203.358 169.108 200.64 169.099 197.294C169.09 193.947 167.389 191.239 165.3 191.245C163.212 191.251 161.526 193.968 161.535 197.315C161.544 200.661 163.245 203.369 165.334 203.364Z" fill="#B8C0CC"/>
<path d="M166.431 195.368C167.078 195.368 167.602 194.843 167.602 194.196C167.602 193.549 167.078 193.025 166.431 193.025C165.784 193.025 165.26 193.549 165.26 194.196C165.26 194.843 165.784 195.368 166.431 195.368Z" fill="white"/>
<path d="M162.11 185.139C162.165 186.511 161.727 188.679 159 190.531" stroke="#B8C0CC" stroke-width="1.883" stroke-linecap="round" stroke-linejoin="round"/>
<path d="M185.318 185.403C185.514 186.759 186.337 188.815 189.353 190.139" stroke="#B8C0CC" stroke-width="1.883" stroke-linecap="round" stroke-linejoin="round"/>
<path d="M330.846 259.01L336.554 300.97" stroke="#B8C0CC" stroke-width="1.883" stroke-linecap="round" stroke-linejoin="round"/>
<path d="M67.9017 259.01L61.6729 300.97" stroke="#B8C0CC" stroke-width="1.883" stroke-linecap="round" stroke-linejoin="round"/>
<path d="M148.237 265.912C151.814 265.912 154.713 263.012 154.713 259.433C154.713 255.855 151.814 252.954 148.237 252.954C144.66 252.954 141.76 255.855 141.76 259.433C141.76 263.012 144.66 265.912 148.237 265.912Z" fill="#B8C0CC"/>
<path d="M139.231 229.417C133.848 249.958 148.237 259.433 148.237 259.433L139.231 229.417Z" fill="white"/>
<path d="M139.231 229.417C133.848 249.958 148.237 259.433 148.237 259.433" stroke="#B8C0CC" stroke-width="2" stroke-linecap="round" stroke-linejoin="round"/>
<path d="M392.46 164.175C408.992 164.224 424.834 170.815 436.524 182.509C448.215 194.204 454.804 210.051 454.852 226.589L448.874 277.861C448.874 279.267 448.597 280.659 448.059 281.958C447.522 283.257 446.733 284.437 445.739 285.432C444.745 286.426 443.565 287.215 442.267 287.753C440.968 288.291 439.576 288.568 438.171 288.568H392.895C376.362 288.519 360.52 281.928 348.83 270.234C337.139 258.539 330.55 242.692 330.502 226.154C330.55 209.731 337.092 193.994 348.701 182.381C360.31 170.768 376.042 164.223 392.46 164.175Z" fill="white"/>
<path d="M393.242 164.271C390.014 164.271 386.792 164.525 383.604 165.029C408.955 164.434 443.407 183.165 443.407 226.176L443.227 279.54C443.22 281.862 442.295 284.087 440.653 285.729C439.012 287.371 436.788 288.296 434.467 288.303H446.364C448.685 288.296 450.909 287.371 452.551 285.729C454.192 284.087 455.117 281.862 455.124 279.54V226.176C455.076 209.772 448.541 194.055 436.946 182.456C425.352 170.857 409.639 164.32 393.242 164.271Z" fill="#EAEFF4"/>
<path d="M392.467 164.175C408.998 164.224 424.838 170.814 436.527 182.507C448.216 194.201 454.804 210.046 454.852 226.582V278.518C454.852 281.183 453.794 283.739 451.91 285.623C450.027 287.508 447.472 288.567 444.808 288.567H392.889C376.358 288.518 360.518 281.928 348.829 270.235C337.14 258.542 330.552 242.696 330.504 226.16V226.16C330.552 209.735 337.096 193.997 348.706 182.383C360.316 170.769 376.048 164.223 392.467 164.175V164.175Z" stroke="#B8C0CC" stroke-width="2" stroke-linecap="round" stroke-linejoin="round"/>
<path d="M363.83 202.285C363.971 198.942 362.394 196.161 360.307 196.072C358.22 195.984 356.414 198.623 356.273 201.966C356.132 205.309 357.709 208.09 359.796 208.178C361.883 208.267 363.689 205.628 363.83 202.285Z" fill="#B8C0CC"/>
<path d="M359.024 205.936C359.67 205.936 360.195 205.411 360.195 204.764C360.195 204.117 359.67 203.593 359.024 203.593C358.377 203.593 357.853 204.117 357.853 204.764C357.853 205.411 358.377 205.936 359.024 205.936Z" fill="white"/>
<path d="M382.233 202.387C382.242 199.041 380.556 196.324 378.467 196.318C376.379 196.312 374.678 199.02 374.669 202.366C374.66 205.712 376.346 208.429 378.434 208.435C380.523 208.441 382.223 205.733 382.233 202.387Z" fill="#B8C0CC"/>
<path d="M377.528 206.225C378.174 206.225 378.699 205.7 378.699 205.053C378.699 204.406 378.174 203.882 377.528 203.882C376.881 203.882 376.356 204.406 376.356 205.053C376.356 205.7 376.881 206.225 377.528 206.225Z" fill="white"/>
<path d="M375.611 193.292C376.584 192.982 377.465 192.438 378.178 191.707C378.891 190.976 379.413 190.081 379.699 189.1" stroke="#B8C0CC" stroke-width="1.883" stroke-linecap="round" stroke-linejoin="round"/>
<path d="M363.398 193.266C362.041 193.081 359.98 192.273 358.635 189.265" stroke="#B8C0CC" stroke-width="1.883" stroke-linecap="round" stroke-linejoin="round"/>
<path d="M355.608 258.318H34.2996C32.9472 258.318 31.8496 256.782 31.8496 254.887C31.8496 252.992 32.9472 251.455 34.2996 251.455H355.608C356.961 251.455 358.058 252.992 358.058 254.887C358.058 256.782 356.961 258.318 355.608 258.318Z" fill="white" stroke="#B8C0CC" stroke-width="2" stroke-linecap="round" stroke-linejoin="round"/>
<path d="M341.454 194.841C345.031 194.841 347.931 191.94 347.931 188.362C347.931 184.784 345.031 181.883 341.454 181.883C337.877 181.883 334.978 184.784 334.978 188.362C334.978 191.94 337.877 194.841 341.454 194.841Z" fill="#B8C0CC"/>
<path d="M330.077 230.143C330.077 230.143 318.531 219.555 321.226 204.803C323.921 190.051 336.554 188.362 336.554 188.362" stroke="#B8C0CC" stroke-width="2" stroke-linecap="round" stroke-linejoin="round"/>
<path d="M394.746 272.665C398.323 272.665 401.223 269.764 401.223 266.186C401.223 262.608 398.323 259.707 394.746 259.707C391.169 259.707 388.27 262.608 388.27 266.186C388.27 269.764 391.169 272.665 394.746 272.665Z" fill="#B8C0CC"/>
<path d="M411.202 229.888C416.286 259.706 394.746 266.186 394.746 266.186" stroke="#B8C0CC" stroke-width="2" stroke-linecap="round" stroke-linejoin="round"/>
<path d="M249.116 107.792H337.228C337.997 107.798 338.739 107.5 339.289 106.962C339.84 106.424 340.156 105.69 340.168 104.92V3.85173C340.156 3.08173 339.84 2.34759 339.289 1.80962C338.739 1.27164 337.997 0.973516 337.228 0.980336H232.697C231.927 0.973516 231.186 1.27164 230.635 1.80962C230.084 2.34759 229.768 3.08173 229.757 3.85173V104.924C229.768 105.694 230.084 106.428 230.635 106.966C231.186 107.504 231.927 107.802 232.697 107.795H238.33" fill="white"/>
<path d="M249.116 107.792H337.228C337.997 107.798 338.739 107.5 339.289 106.962C339.84 106.424 340.156 105.69 340.168 104.92V3.85173C340.156 3.08173 339.84 2.34759 339.289 1.80962C338.739 1.27164 337.997 0.973516 337.228 0.980336H232.697C231.927 0.973516 231.186 1.27164 230.635 1.80962C230.084 2.34759 229.768 3.08173 229.757 3.85173V104.924C229.768 105.694 230.084 106.428 230.635 106.966C231.186 107.504 231.927 107.802 232.697 107.795H238.33" stroke="#B8C0CC" stroke-width="2" stroke-linecap="round" stroke-linejoin="round"/>
<path d="M225.91 126.581H314.021C314.801 126.578 315.547 126.268 316.098 125.717C316.649 125.166 316.959 124.419 316.961 123.64V20.1223C316.959 19.343 316.649 18.5963 316.098 18.0453C315.547 17.4942 314.801 17.1836 314.021 17.1813H209.495C208.716 17.1836 207.969 17.4942 207.418 18.0453C206.867 18.5963 206.557 19.343 206.555 20.1223V123.64C206.557 124.419 206.867 125.166 207.418 125.717C207.969 126.268 208.716 126.578 209.495 126.581H218.887" fill="white"/>
<path d="M225.91 126.581H314.021C314.801 126.578 315.547 126.268 316.098 125.717C316.649 125.166 316.959 124.419 316.961 123.64V20.1223C316.959 19.343 316.649 18.5963 316.098 18.0453C315.547 17.4942 314.801 17.1836 314.021 17.1813H209.495C208.716 17.1836 207.969 17.4942 207.418 18.0453C206.867 18.5963 206.557 19.343 206.555 20.1223V123.64C206.557 124.419 206.867 125.166 207.418 125.717C207.969 126.268 208.716 126.578 209.495 126.581H218.887" stroke="#B8C0CC" stroke-width="2" stroke-linecap="round" stroke-linejoin="round"/>
<path d="M249.261 148.83H243.628C242.868 148.846 242.133 148.561 241.582 148.037C241.031 147.512 240.71 146.792 240.688 146.031V47.5138C240.71 46.7536 241.031 46.0327 241.582 45.5084C242.133 44.9841 242.868 44.6988 243.628 44.7149H348.155C348.915 44.6988 349.651 44.9841 350.202 45.5084C350.753 46.0327 351.074 46.7536 351.095 47.5138V146.032C351.074 146.793 350.753 147.513 350.202 148.038C349.651 148.562 348.915 148.847 348.155 148.831H343.928V157.957L334.189 148.686H319.795" fill="white"/>
<path d="M249.261 148.83H243.628C242.868 148.846 242.133 148.561 241.582 148.037C241.031 147.512 240.71 146.792 240.688 146.031V47.5138C240.71 46.7536 241.031 46.0327 241.582 45.5084C242.133 44.9841 242.868 44.6988 243.628 44.7149H348.155C348.915 44.6988 349.651 44.9841 350.202 45.5084C350.753 46.0327 351.074 46.7536 351.095 47.5138V146.032C351.074 146.793 350.753 147.513 350.202 148.038C349.651 148.562 348.915 148.847 348.155 148.831H343.928V157.957L334.189 148.686H319.795" stroke="#B8C0CC" stroke-width="2" stroke-linecap="round" stroke-linejoin="round"/>
<path d="M278.859 60.0007C279.627 60.2167 280.209 60.5887 280.605 61.1167C281.013 61.6447 281.217 62.2987 281.217 63.0787C281.217 64.1827 280.845 65.0527 280.101 65.6887C279.357 66.3247 278.343 66.6427 277.059 66.6427C276.279 66.6427 275.529 66.5107 274.809 66.2467C274.101 65.9827 273.501 65.6227 273.009 65.1667C272.817 64.9867 272.721 64.7827 272.721 64.5547C272.721 64.3747 272.769 64.2247 272.865 64.1047C272.961 63.9847 273.075 63.9247 273.207 63.9247C273.375 63.9247 273.543 63.9907 273.711 64.1227C274.263 64.5667 274.803 64.8907 275.331 65.0947C275.859 65.2987 276.429 65.4007 277.041 65.4007C277.929 65.4007 278.601 65.1967 279.057 64.7887C279.525 64.3807 279.759 63.7927 279.759 63.0247C279.759 61.4767 278.787 60.7027 276.843 60.7027H275.889C275.697 60.7027 275.541 60.6427 275.421 60.5227C275.313 60.3907 275.259 60.2407 275.259 60.0727C275.259 59.9047 275.313 59.7607 275.421 59.6407C275.541 59.5207 275.697 59.4607 275.889 59.4607H276.555C277.491 59.4607 278.211 59.2567 278.715 58.8487C279.219 58.4287 279.471 57.8287 279.471 57.0487C279.471 56.3647 279.267 55.8427 278.859 55.4827C278.451 55.1107 277.875 54.9247 277.131 54.9247C276.567 54.9247 276.021 55.0327 275.493 55.2487C274.965 55.4527 274.437 55.7707 273.909 56.2027C273.741 56.3347 273.573 56.4007 273.405 56.4007C273.273 56.4007 273.159 56.3407 273.063 56.2207C272.967 56.1007 272.919 55.9507 272.919 55.7707C272.919 55.5427 273.015 55.3387 273.207 55.1587C273.699 54.7027 274.293 54.3427 274.989 54.0787C275.697 53.8147 276.423 53.6827 277.167 53.6827C278.319 53.6827 279.231 53.9767 279.903 54.5647C280.587 55.1407 280.929 55.9207 280.929 56.9047C280.929 57.6367 280.743 58.2787 280.371 58.8307C280.011 59.3707 279.507 59.7607 278.859 60.0007ZM288.32 57.5347C289.088 57.5347 289.766 57.7267 290.354 58.1107C290.942 58.4947 291.398 59.0347 291.722 59.7307C292.046 60.4147 292.208 61.2127 292.208 62.1247C292.208 63.0367 292.046 63.8347 291.722 64.5187C291.398 65.1907 290.942 65.7127 290.354 66.0847C289.778 66.4567 289.1 66.6427 288.32 66.6427C287.636 66.6427 287.036 66.4927 286.52 66.1927C286.016 65.8927 285.632 65.4667 285.368 64.9147V69.1447C285.368 69.3607 285.302 69.5287 285.17 69.6487C285.05 69.7807 284.876 69.8467 284.648 69.8467C284.42 69.8467 284.24 69.7807 284.108 69.6487C283.976 69.5167 283.91 69.3487 283.91 69.1447V58.2907C283.91 58.0747 283.976 57.9007 284.108 57.7687C284.24 57.6367 284.42 57.5707 284.648 57.5707C284.876 57.5707 285.05 57.6367 285.17 57.7687C285.302 57.9007 285.368 58.0747 285.368 58.2907V59.2627C285.632 58.7107 286.016 58.2847 286.52 57.9847C287.036 57.6847 287.636 57.5347 288.32 57.5347ZM288.032 65.4367C288.884 65.4367 289.544 65.1487 290.012 64.5727C290.48 63.9967 290.714 63.1807 290.714 62.1247C290.714 61.0687 290.48 60.2467 290.012 59.6587C289.544 59.0587 288.884 58.7587 288.032 58.7587C287.18 58.7587 286.52 59.0467 286.052 59.6227C285.596 60.1987 285.368 61.0207 285.368 62.0887C285.368 63.1567 285.596 63.9847 286.052 64.5727C286.52 65.1487 287.18 65.4367 288.032 65.4367ZM304.142 57.5347C306.086 57.5347 307.058 58.6927 307.058 61.0087V65.8867C307.058 66.1147 306.992 66.2947 306.86 66.4267C306.728 66.5467 306.554 66.6067 306.338 66.6067C306.122 66.6067 305.942 66.5467 305.798 66.4267C305.666 66.2947 305.6 66.1147 305.6 65.8867V61.0447C305.6 60.2407 305.456 59.6587 305.168 59.2987C304.88 58.9387 304.43 58.7587 303.818 58.7587C303.086 58.7587 302.51 59.0047 302.09 59.4967C301.67 59.9887 301.46 60.6547 301.46 61.4947V65.8867C301.46 66.1147 301.388 66.2947 301.244 66.4267C301.112 66.5467 300.938 66.6067 300.722 66.6067C300.506 66.6067 300.332 66.5467 300.2 66.4267C300.068 66.2947 300.002 66.1147 300.002 65.8867V61.0447C300.002 60.2407 299.858 59.6587 299.57 59.2987C299.282 58.9387 298.826 58.7587 298.202 58.7587C297.482 58.7587 296.906 59.0047 296.474 59.4967C296.054 59.9887 295.844 60.6547 295.844 61.4947V65.8867C295.844 66.1147 295.778 66.2947 295.646 66.4267C295.514 66.5467 295.34 66.6067 295.124 66.6067C294.908 66.6067 294.728 66.5467 294.584 66.4267C294.452 66.2947 294.386 66.1147 294.386 65.8867V58.2907C294.386 58.0747 294.452 57.9007 294.584 57.7687C294.728 57.6367 294.908 57.5707 295.124 57.5707C295.328 57.5707 295.496 57.6367 295.628 57.7687C295.76 57.8887 295.826 58.0567 295.826 58.2727V59.1367C296.09 58.6207 296.456 58.2247 296.924 57.9487C297.392 57.6727 297.932 57.5347 298.544 57.5347C299.912 57.5347 300.806 58.1107 301.226 59.2627C301.478 58.7347 301.862 58.3147 302.378 58.0027C302.894 57.6907 303.482 57.5347 304.142 57.5347ZM275.493 88.2947C275.361 88.2947 275.253 88.2467 275.169 88.1507C275.085 88.0547 275.043 87.9227 275.043 87.7547C275.043 87.0107 275.175 86.3747 275.439 85.8467C275.715 85.3187 276.105 84.7427 276.609 84.1187C277.017 83.6027 277.317 83.1647 277.509 82.8047C277.713 82.4447 277.815 82.0427 277.815 81.5987C277.815 81.0827 277.629 80.6807 277.257 80.3927C276.885 80.0927 276.381 79.9427 275.745 79.9427C275.205 79.9427 274.707 80.0507 274.251 80.2667C273.795 80.4707 273.279 80.7887 272.703 81.2207C272.499 81.3647 272.331 81.4367 272.199 81.4367C272.055 81.4367 271.935 81.3767 271.839 81.2567C271.755 81.1247 271.713 80.9747 271.713 80.8067C271.713 80.5667 271.809 80.3567 272.001 80.1767C272.481 79.7207 273.063 79.3607 273.747 79.0967C274.443 78.8207 275.133 78.6827 275.817 78.6827C276.861 78.6827 277.701 78.9407 278.337 79.4567C278.985 79.9727 279.309 80.6507 279.309 81.4907C279.309 82.1267 279.171 82.6787 278.895 83.1467C278.631 83.6027 278.223 84.1427 277.671 84.7667C277.155 85.3547 276.753 85.8767 276.465 86.3327C276.189 86.7767 276.021 87.2927 275.961 87.8807C275.949 88.0127 275.901 88.1147 275.817 88.1867C275.733 88.2587 275.625 88.2947 275.493 88.2947ZM275.511 91.6067C275.223 91.6067 274.983 91.5107 274.791 91.3187C274.611 91.1267 274.521 90.8867 274.521 90.5987C274.521 90.3107 274.611 90.0707 274.791 89.8787C274.983 89.6747 275.223 89.5727 275.511 89.5727C275.799 89.5727 276.033 89.6747 276.213 89.8787C276.405 90.0707 276.501 90.3107 276.501 90.5987C276.501 90.8867 276.405 91.1267 276.213 91.3187C276.033 91.5107 275.799 91.6067 275.511 91.6067Z" fill="#11ABD5"/>
<path d="M321.999 171.641H326.354C327.083 171.684 327.8 171.439 328.35 170.958C328.9 170.477 329.239 169.799 329.294 169.07V78.607C329.239 77.8782 328.9 77.2002 328.35 76.7192C327.8 76.2383 327.083 75.9931 326.354 76.0366H221.827C221.097 75.9928 220.38 76.2379 219.83 76.7189C219.28 77.1999 218.941 77.8781 218.887 78.607V169.07C218.941 169.799 219.28 170.477 219.83 170.958C220.38 171.439 221.097 171.684 221.827 171.641H227.458V180.065L238.238 171.641H321.995H321.999Z" fill="white" stroke="#B8C0CC" stroke-width="2" stroke-linecap="round" stroke-linejoin="round"/>
<path d="M320.95 92.3964H247.843" stroke="#E1E5EA" stroke-width="3" stroke-miterlimit="10" stroke-linecap="round"/>
<path d="M314.266 8.823H251.072" stroke="#F2F2F2" stroke-width="3" stroke-linecap="round" stroke-linejoin="round"/>
<path d="M320.635 106.693H229.757" stroke="#E1E5EA" stroke-width="3" stroke-miterlimit="10" stroke-linecap="round"/>
<path d="M293.354 118.294H230.161" stroke="#E1E5EA" stroke-width="3" stroke-miterlimit="10" stroke-linecap="round"/>
<path d="M230.823 94.2263C230.694 94.2263 230.588 94.1889 230.507 94.114C230.432 94.0324 230.394 93.9269 230.394 93.7976V87.6926H228.199C228.077 87.6926 227.981 87.662 227.913 87.6007C227.845 87.5395 227.811 87.451 227.811 87.3353C227.811 87.2196 227.845 87.1311 227.913 87.0698C227.981 87.0086 228.077 86.978 228.199 86.978H233.437C233.559 86.978 233.654 87.0086 233.722 87.0698C233.79 87.1311 233.824 87.2196 233.824 87.3353C233.824 87.451 233.79 87.5395 233.722 87.6007C233.654 87.662 233.559 87.6926 233.437 87.6926H231.242V93.7976C231.242 93.9269 231.204 94.0324 231.129 94.114C231.054 94.1889 230.952 94.2263 230.823 94.2263ZM237.323 94.257C236.656 94.257 236.074 94.1072 235.577 93.8078C235.087 93.5083 234.71 93.0829 234.444 92.5317C234.179 91.9804 234.046 91.3304 234.046 90.5817C234.046 89.8263 234.175 89.1729 234.434 88.6216C234.699 88.0635 235.077 87.6381 235.567 87.3455C236.064 87.046 236.649 86.8963 237.323 86.8963C237.997 86.8963 238.579 87.046 239.069 87.3455C239.566 87.6381 239.943 88.0635 240.202 88.6216C240.468 89.1729 240.6 89.8229 240.6 90.5715C240.6 91.3202 240.468 91.9736 240.202 92.5317C239.937 93.0829 239.556 93.5083 239.059 93.8078C238.569 94.1072 237.99 94.257 237.323 94.257ZM237.323 93.5423C238.085 93.5423 238.678 93.2871 239.1 92.7767C239.528 92.2594 239.743 91.5244 239.743 90.5715C239.743 89.6187 239.532 88.887 239.11 88.3766C238.688 87.8661 238.092 87.6109 237.323 87.6109C236.561 87.6109 235.965 87.8695 235.537 88.3868C235.115 88.8972 234.904 89.6255 234.904 90.5715C234.904 91.5176 235.115 92.2492 235.537 92.7665C235.965 93.2837 236.561 93.5423 237.323 93.5423Z" fill="#999999"/>
<path d="M261.144 146.758C261.36 146.758 261.528 146.812 261.648 146.92C261.768 147.028 261.828 147.178 261.828 147.37C261.828 147.79 261.6 148 261.144 148H254.088C253.884 148 253.716 147.94 253.584 147.82C253.452 147.688 253.386 147.532 253.386 147.352C253.386 147.124 253.47 146.926 253.638 146.758L257.976 141.988C258.576 141.316 259.008 140.716 259.272 140.188C259.548 139.648 259.686 139.108 259.686 138.568C259.686 137.872 259.482 137.338 259.074 136.966C258.678 136.594 258.114 136.408 257.382 136.408C256.806 136.408 256.254 136.516 255.726 136.732C255.198 136.936 254.67 137.254 254.142 137.686C253.962 137.83 253.794 137.902 253.638 137.902C253.506 137.902 253.392 137.842 253.296 137.722C253.2 137.59 253.152 137.434 253.152 137.254C253.152 137.002 253.248 136.798 253.44 136.642C253.932 136.186 254.532 135.826 255.24 135.562C255.948 135.298 256.674 135.166 257.418 135.166C258.558 135.166 259.464 135.466 260.136 136.066C260.82 136.666 261.162 137.476 261.162 138.496C261.162 139.228 260.994 139.93 260.658 140.602C260.334 141.274 259.794 142.024 259.038 142.852L255.438 146.758H261.144ZM268.553 139.018C269.321 139.018 269.999 139.21 270.587 139.594C271.175 139.978 271.631 140.518 271.955 141.214C272.279 141.898 272.441 142.696 272.441 143.608C272.441 144.52 272.279 145.318 271.955 146.002C271.631 146.674 271.175 147.196 270.587 147.568C270.011 147.94 269.333 148.126 268.553 148.126C267.869 148.126 267.269 147.976 266.753 147.676C266.249 147.376 265.865 146.95 265.601 146.398V150.628C265.601 150.844 265.535 151.012 265.403 151.132C265.283 151.264 265.109 151.33 264.881 151.33C264.653 151.33 264.473 151.264 264.341 151.132C264.209 151 264.143 150.832 264.143 150.628V139.774C264.143 139.558 264.209 139.384 264.341 139.252C264.473 139.12 264.653 139.054 264.881 139.054C265.109 139.054 265.283 139.12 265.403 139.252C265.535 139.384 265.601 139.558 265.601 139.774V140.746C265.865 140.194 266.249 139.768 266.753 139.468C267.269 139.168 267.869 139.018 268.553 139.018ZM268.265 146.92C269.117 146.92 269.777 146.632 270.245 146.056C270.713 145.48 270.947 144.664 270.947 143.608C270.947 142.552 270.713 141.73 270.245 141.142C269.777 140.542 269.117 140.242 268.265 140.242C267.413 140.242 266.753 140.53 266.285 141.106C265.829 141.682 265.601 142.504 265.601 143.572C265.601 144.64 265.829 145.468 266.285 146.056C266.753 146.632 267.413 146.92 268.265 146.92ZM284.376 139.018C286.32 139.018 287.292 140.176 287.292 142.492V147.37C287.292 147.598 287.226 147.778 287.094 147.91C286.962 148.03 286.788 148.09 286.572 148.09C286.356 148.09 286.176 148.03 286.032 147.91C285.9 147.778 285.834 147.598 285.834 147.37V142.528C285.834 141.724 285.69 141.142 285.402 140.782C285.114 140.422 284.664 140.242 284.052 140.242C283.32 140.242 282.744 140.488 282.324 140.98C281.904 141.472 281.694 142.138 281.694 142.978V147.37C281.694 147.598 281.622 147.778 281.478 147.91C281.346 148.03 281.172 148.09 280.956 148.09C280.74 148.09 280.566 148.03 280.434 147.91C280.302 147.778 280.236 147.598 280.236 147.37V142.528C280.236 141.724 280.092 141.142 279.804 140.782C279.516 140.422 279.06 140.242 278.436 140.242C277.716 140.242 277.14 140.488 276.708 140.98C276.288 141.472 276.078 142.138 276.078 142.978V147.37C276.078 147.598 276.012 147.778 275.88 147.91C275.748 148.03 275.574 148.09 275.358 148.09C275.142 148.09 274.962 148.03 274.818 147.91C274.686 147.778 274.62 147.598 274.62 147.37V139.774C274.62 139.558 274.686 139.384 274.818 139.252C274.962 139.12 275.142 139.054 275.358 139.054C275.562 139.054 275.73 139.12 275.862 139.252C275.994 139.372 276.06 139.54 276.06 139.756V140.62C276.324 140.104 276.69 139.708 277.158 139.432C277.626 139.156 278.166 139.018 278.778 139.018C280.146 139.018 281.04 139.594 281.46 140.746C281.712 140.218 282.096 139.798 282.612 139.486C283.128 139.174 283.716 139.018 284.376 139.018ZM292.148 144.778C292.016 144.778 291.908 144.73 291.824 144.634C291.74 144.538 291.698 144.406 291.698 144.238C291.698 143.494 291.83 142.858 292.094 142.33C292.37 141.802 292.76 141.226 293.264 140.602C293.672 140.086 293.972 139.648 294.164 139.288C294.368 138.928 294.47 138.526 294.47 138.082C294.47 137.566 294.284 137.164 293.912 136.876C293.54 136.576 293.036 136.426 292.4 136.426C291.86 136.426 291.362 136.534 290.906 136.75C290.45 136.954 289.934 137.272 289.358 137.704C289.154 137.848 288.986 137.92 288.854 137.92C288.71 137.92 288.59 137.86 288.494 137.74C288.41 137.608 288.368 137.458 288.368 137.29C288.368 137.05 288.464 136.84 288.656 136.66C289.136 136.204 289.718 135.844 290.402 135.58C291.098 135.304 291.788 135.166 292.472 135.166C293.516 135.166 294.356 135.424 294.992 135.94C295.64 136.456 295.964 137.134 295.964 137.974C295.964 138.61 295.826 139.162 295.55 139.63C295.286 140.086 294.878 140.626 294.326 141.25C293.81 141.838 293.408 142.36 293.12 142.816C292.844 143.26 292.676 143.776 292.616 144.364C292.604 144.496 292.556 144.598 292.472 144.67C292.388 144.742 292.28 144.778 292.148 144.778ZM292.166 148.09C291.878 148.09 291.638 147.994 291.446 147.802C291.266 147.61 291.176 147.37 291.176 147.082C291.176 146.794 291.266 146.554 291.446 146.362C291.638 146.158 291.878 146.056 292.166 146.056C292.454 146.056 292.688 146.158 292.868 146.362C293.06 146.554 293.156 146.794 293.156 147.082C293.156 147.37 293.06 147.61 292.868 147.802C292.688 147.994 292.454 148.09 292.166 148.09Z" fill="#11ABD5"/>
<path d="M250.261 36.8529C250.083 36.8529 249.943 36.8016 249.841 36.6989C249.738 36.5869 249.687 36.4423 249.687 36.2649V27.4729C249.687 27.3049 249.738 27.1696 249.841 27.0669C249.953 26.9643 250.097 26.9129 250.275 26.9129H253.593C254.629 26.9129 255.431 27.1649 256.001 27.6689C256.579 28.1729 256.869 28.8869 256.869 29.8109C256.869 30.7349 256.579 31.4536 256.001 31.9669C255.422 32.4803 254.619 32.7369 253.593 32.7369H250.835V36.2649C250.835 36.4423 250.783 36.5869 250.681 36.6989C250.578 36.8016 250.438 36.8529 250.261 36.8529ZM253.481 31.7849C254.983 31.7849 255.735 31.1269 255.735 29.8109C255.735 28.5136 254.983 27.8649 253.481 27.8649H250.835V31.7849H253.481ZM261.86 36.8949C261.16 36.8949 260.488 36.7923 259.844 36.5869C259.21 36.3723 258.701 36.0876 258.318 35.7329C258.178 35.6023 258.108 35.4389 258.108 35.2429C258.108 35.1123 258.146 35.0003 258.22 34.9069C258.295 34.8043 258.384 34.7529 258.486 34.7529C258.608 34.7529 258.738 34.8043 258.878 34.9069C259.746 35.5789 260.736 35.9149 261.846 35.9149C262.649 35.9149 263.265 35.7609 263.694 35.4529C264.124 35.1449 264.338 34.7063 264.338 34.1369C264.338 33.8103 264.236 33.5489 264.03 33.3529C263.825 33.1476 263.554 32.9843 263.218 32.8629C262.882 32.7416 262.43 32.6156 261.86 32.4849C261.095 32.3076 260.465 32.1209 259.97 31.9249C259.485 31.7289 259.088 31.4489 258.78 31.0849C258.482 30.7209 258.332 30.2449 258.332 29.6569C258.332 29.0969 258.482 28.6023 258.78 28.1729C259.088 27.7343 259.513 27.3983 260.054 27.1649C260.605 26.9223 261.23 26.8009 261.93 26.8009C262.584 26.8009 263.19 26.9036 263.75 27.1089C264.32 27.3049 264.796 27.5896 265.178 27.9629C265.328 28.1123 265.402 28.2756 265.402 28.4529C265.402 28.5836 265.365 28.7003 265.29 28.8029C265.216 28.8963 265.127 28.9429 265.024 28.9429C264.922 28.9429 264.786 28.8916 264.618 28.7889C264.161 28.4156 263.736 28.1543 263.344 28.0049C262.952 27.8556 262.481 27.7809 261.93 27.7809C261.156 27.7809 260.554 27.9443 260.124 28.2709C259.695 28.5883 259.48 29.0363 259.48 29.6149C259.48 30.1096 259.667 30.4829 260.04 30.7349C260.423 30.9776 261.006 31.1923 261.79 31.3789C262.64 31.5843 263.307 31.7756 263.792 31.9529C264.278 32.1209 264.679 32.3776 264.996 32.7229C265.323 33.0683 265.486 33.5303 265.486 34.1089C265.486 34.6596 265.332 35.1449 265.024 35.5649C264.726 35.9849 264.301 36.3116 263.75 36.5449C263.2 36.7783 262.57 36.8949 261.86 36.8949ZM270.114 36.8529C269.936 36.8529 269.792 36.8016 269.68 36.6989C269.577 36.5869 269.526 36.4423 269.526 36.2649V27.8929H266.516C266.348 27.8929 266.217 27.8509 266.124 27.7669C266.03 27.6829 265.984 27.5616 265.984 27.4029C265.984 27.2443 266.03 27.1229 266.124 27.0389C266.217 26.9549 266.348 26.9129 266.516 26.9129H273.698C273.866 26.9129 273.996 26.9549 274.09 27.0389C274.183 27.1229 274.23 27.2443 274.23 27.4029C274.23 27.5616 274.183 27.6829 274.09 27.7669C273.996 27.8509 273.866 27.8929 273.698 27.8929H270.688V36.2649C270.688 36.4423 270.636 36.5869 270.534 36.6989C270.431 36.8016 270.291 36.8529 270.114 36.8529ZM277.361 33.9269C277.202 33.9269 277.072 33.8709 276.969 33.7589C276.876 33.6469 276.829 33.4929 276.829 33.2969C276.829 32.7836 276.922 32.3496 277.109 31.9949C277.296 31.6403 277.566 31.2529 277.921 30.8329C278.201 30.4969 278.406 30.2169 278.537 29.9929C278.668 29.7689 278.733 29.5169 278.733 29.2369C278.733 28.9289 278.616 28.6863 278.383 28.5089C278.159 28.3223 277.851 28.2289 277.459 28.2289C277.123 28.2289 276.801 28.3036 276.493 28.4529C276.185 28.5929 275.826 28.7983 275.415 29.0689C275.182 29.1996 274.99 29.2649 274.841 29.2649C274.682 29.2649 274.542 29.1949 274.421 29.0549C274.309 28.9056 274.253 28.7329 274.253 28.5369C274.253 28.2663 274.365 28.0469 274.589 27.8789C274.981 27.5429 275.443 27.2816 275.975 27.0949C276.507 26.8989 277.044 26.8009 277.585 26.8009C278.154 26.8009 278.658 26.8989 279.097 27.0949C279.545 27.2909 279.89 27.5616 280.133 27.9069C280.385 28.2523 280.511 28.6489 280.511 29.0969C280.511 29.5823 280.394 30.0069 280.161 30.3709C279.928 30.7256 279.587 31.1269 279.139 31.5749C278.756 31.9669 278.467 32.2983 278.271 32.5689C278.084 32.8303 277.968 33.1289 277.921 33.4649C277.893 33.6143 277.828 33.7309 277.725 33.8149C277.632 33.8896 277.51 33.9269 277.361 33.9269ZM277.389 36.8669C277.09 36.8669 276.843 36.7689 276.647 36.5729C276.451 36.3676 276.353 36.1156 276.353 35.8169C276.353 35.5183 276.451 35.2709 276.647 35.0749C276.843 34.8696 277.09 34.7669 277.389 34.7669C277.688 34.7669 277.935 34.8696 278.131 35.0749C278.327 35.2709 278.425 35.5183 278.425 35.8169C278.425 36.1156 278.322 36.3676 278.117 36.5729C277.921 36.7689 277.678 36.8669 277.389 36.8669Z" fill="#11ABD5"/>
<path d="M397.666 192.177V174.989" stroke="#E1E5EA" stroke-width="3" stroke-miterlimit="10" stroke-linecap="round"/>
<path d="M405.322 192.177V179.891" stroke="#E1E5EA" stroke-width="3" stroke-miterlimit="10" stroke-linecap="round"/>
</g>
<defs>
<clipPath id="clip0">
<rect width="490" height="324" fill="white"/>
</clipPath>
</defs>
</svg>
