<svg width="171" height="169" viewBox="0 0 171 169" fill="none" xmlns="http://www.w3.org/2000/svg">
<path d="M160.271 11.275H11.4573C6.15919 11.275 1.86426 15.57 1.86426 20.868V133.534C1.86426 138.832 6.15919 143.127 11.4573 143.127H160.271C165.569 143.127 169.864 138.832 169.864 133.534V20.868C169.864 15.57 165.569 11.275 160.271 11.275Z" fill="white" stroke="#B8C0CC" stroke-width="1.883" stroke-linecap="round" stroke-linejoin="round"/>
<path d="M59.7521 128.666C61.2272 128.666 62.4231 127.47 62.4231 125.995C62.4231 124.52 61.2272 123.324 59.7521 123.324C58.2769 123.324 57.0811 124.52 57.0811 125.995C57.0811 127.47 58.2769 128.666 59.7521 128.666Z" fill="#B8C0CC"/>
<path d="M30.3264 35.3725C30.3264 32.7931 28.2353 30.702 25.6559 30.702C23.0764 30.702 20.9854 32.7931 20.9854 35.3725C20.9854 37.952 23.0764 40.043 25.6559 40.043C28.2353 40.043 30.3264 37.952 30.3264 35.3725Z" stroke="#B8C0CC" stroke-width="1.883" stroke-linecap="round" stroke-linejoin="round"/>
<path d="M71.7648 35.3725C71.7648 32.7931 69.6738 30.702 67.0943 30.702C64.5149 30.702 62.4238 32.7931 62.4238 35.3725C62.4238 37.952 64.5149 40.043 67.0943 40.043C69.6738 40.043 71.7648 37.952 71.7648 35.3725Z" stroke="#B8C0CC" stroke-width="1.883" stroke-linecap="round" stroke-linejoin="round"/>
<path d="M113.204 35.3725C113.204 32.7931 111.113 30.702 108.534 30.702C105.954 30.702 103.863 32.7931 103.863 35.3725C103.863 37.952 105.954 40.043 108.534 40.043C111.113 40.043 113.204 37.952 113.204 35.3725Z" fill="#11ABD5"/>
<path d="M154.644 35.3725C154.644 32.7931 152.553 30.702 149.973 30.702C147.394 30.702 145.303 32.7931 145.303 35.3725C145.303 37.952 147.394 40.043 149.973 40.043C152.553 40.043 154.644 37.952 154.644 35.3725Z" stroke="#B8C0CC" stroke-width="1.883" stroke-linecap="round" stroke-linejoin="round"/>
<path d="M30.3264 62.8825C30.3264 60.3031 28.2353 58.212 25.6559 58.212C23.0764 58.212 20.9854 60.3031 20.9854 62.8825C20.9854 65.462 23.0764 67.553 25.6559 67.553C28.2353 67.553 30.3264 65.462 30.3264 62.8825Z" stroke="#B8C0CC" stroke-width="1.883" stroke-linecap="round" stroke-linejoin="round"/>
<path d="M71.7648 62.8825C71.7648 60.3031 69.6738 58.212 67.0943 58.212C64.5149 58.212 62.4238 60.3031 62.4238 62.8825C62.4238 65.462 64.5149 67.553 67.0943 67.553C69.6738 67.553 71.7648 65.462 71.7648 62.8825Z" stroke="#B8C0CC" stroke-width="1.883" stroke-linecap="round" stroke-linejoin="round"/>
<path d="M113.204 62.8825C113.204 60.3031 111.113 58.212 108.534 58.212C105.954 58.212 103.863 60.3031 103.863 62.8825C103.863 65.462 105.954 67.553 108.534 67.553C111.113 67.553 113.204 65.462 113.204 62.8825Z" stroke="#B8C0CC" stroke-width="1.883" stroke-linecap="round" stroke-linejoin="round"/>
<path d="M154.644 62.8825C154.644 60.3031 152.553 58.212 149.973 58.212C147.394 58.212 145.303 60.3031 145.303 62.8825C145.303 65.462 147.394 67.553 149.973 67.553C152.553 67.553 154.644 65.462 154.644 62.8825Z" stroke="#B8C0CC" stroke-width="1.883" stroke-linecap="round" stroke-linejoin="round"/>
<path d="M30.3264 90.3914C30.3264 87.812 28.2353 85.7209 25.6559 85.7209C23.0764 85.7209 20.9854 87.812 20.9854 90.3914C20.9854 92.9709 23.0764 95.0619 25.6559 95.0619C28.2353 95.0619 30.3264 92.9709 30.3264 90.3914Z" stroke="#B8C0CC" stroke-width="1.883" stroke-linecap="round" stroke-linejoin="round"/>
<path d="M67.0948 85.7209C68.3335 85.7212 69.5213 86.2135 70.3971 87.0894C71.2728 87.9654 71.7648 89.1533 71.7648 90.3919C71.7646 91.6304 71.2725 92.8181 70.3967 93.6938C69.521 94.5696 68.3333 95.0617 67.0948 95.0619C65.8562 95.0619 64.6682 94.57 63.7923 93.6942C62.9163 92.8184 62.4241 91.6306 62.4238 90.3919V90.3919C62.4238 89.1531 62.9159 87.965 63.7919 87.0891C64.6679 86.2131 65.856 85.7209 67.0948 85.7209V85.7209Z" fill="#11ABD5"/>
<path d="M113.204 90.3914C113.204 87.812 111.113 85.7209 108.534 85.7209C105.954 85.7209 103.863 87.812 103.863 90.3914C103.863 92.9709 105.954 95.0619 108.534 95.0619C111.113 95.0619 113.204 92.9709 113.204 90.3914Z" stroke="#B8C0CC" stroke-width="1.883" stroke-linecap="round" stroke-linejoin="round"/>
<path d="M154.644 90.3914C154.644 87.812 152.553 85.7209 149.973 85.7209C147.394 85.7209 145.303 87.812 145.303 90.3914C145.303 92.9709 147.394 95.0619 149.973 95.0619C152.553 95.0619 154.644 92.9709 154.644 90.3914Z" stroke="#B8C0CC" stroke-width="1.883" stroke-linecap="round" stroke-linejoin="round"/>
<path d="M30.3264 117.901C30.3264 115.322 28.2353 113.231 25.6559 113.231C23.0764 113.231 20.9854 115.322 20.9854 117.901C20.9854 120.481 23.0764 122.572 25.6559 122.572C28.2353 122.572 30.3264 120.481 30.3264 117.901Z" stroke="#B8C0CC" stroke-width="1.883" stroke-linecap="round" stroke-linejoin="round"/>
<path d="M71.7648 117.901C71.7648 115.322 69.6738 113.231 67.0943 113.231C64.5149 113.231 62.4238 115.322 62.4238 117.901C62.4238 120.481 64.5149 122.572 67.0943 122.572C69.6738 122.572 71.7648 120.481 71.7648 117.901Z" stroke="#B8C0CC" stroke-width="1.883" stroke-linecap="round" stroke-linejoin="round"/>
<path d="M113.204 117.901C113.204 115.322 111.113 113.231 108.534 113.231C105.954 113.231 103.863 115.322 103.863 117.901C103.863 120.481 105.954 122.572 108.534 122.572C111.113 122.572 113.204 120.481 113.204 117.901Z" stroke="#B8C0CC" stroke-width="1.883" stroke-linecap="round" stroke-linejoin="round"/>
<path d="M154.644 117.901C154.644 115.322 152.553 113.231 149.973 113.231C147.394 113.231 145.303 115.322 145.303 117.901C145.303 120.481 147.394 122.572 149.973 122.572C152.553 122.572 154.644 120.481 154.644 117.901Z" stroke="#B8C0CC" stroke-width="1.883" stroke-linecap="round" stroke-linejoin="round"/>
<path d="M44.6883 0.942017H44.6873C42.1374 0.942017 40.0703 3.00912 40.0703 5.55902V15.414C40.0703 17.9639 42.1374 20.031 44.6873 20.031H44.6883C47.2382 20.031 49.3053 17.9639 49.3053 15.414V5.55902C49.3053 3.00912 47.2382 0.942017 44.6883 0.942017Z" fill="white" stroke="#B8C0CC" stroke-width="1.883" stroke-linecap="round" stroke-linejoin="round"/>
<path d="M133.323 0.942017H133.322C130.772 0.942017 128.705 3.00912 128.705 5.55902V15.414C128.705 17.9639 130.772 20.031 133.322 20.031H133.323C135.873 20.031 137.94 17.9639 137.94 15.414V5.55902C137.94 3.00912 135.873 0.942017 133.323 0.942017Z" fill="white" stroke="#B8C0CC" stroke-width="1.883" stroke-linecap="round" stroke-linejoin="round"/>
<path d="M38.1729 145.162C38.1729 145.162 51.0139 133.448 59.7529 125.998" stroke="#B8C0CC" stroke-width="1.883" stroke-linecap="round" stroke-linejoin="round"/>
<path d="M142.833 167.481H125.986C120.617 167.481 115.468 165.348 111.671 161.552C107.875 157.755 105.742 152.606 105.742 147.237C105.742 141.904 107.86 136.79 111.631 133.019C115.402 129.248 120.516 127.13 125.849 127.13C131.218 127.13 136.367 129.263 140.163 133.059C143.96 136.856 146.093 142.005 146.093 147.374V164.221C146.093 165.086 145.749 165.915 145.138 166.526C144.527 167.137 143.697 167.481 142.833 167.481V167.481Z" fill="white"/>
<path d="M126.101 127.161C125.053 127.161 124.008 127.243 122.974 127.407C131.2 127.214 142.38 133.291 142.38 147.242V164.553C142.377 165.306 142.077 166.028 141.544 166.561C141.012 167.093 140.29 167.394 139.537 167.396H143.337C144.09 167.394 144.812 167.093 145.344 166.561C145.877 166.028 146.177 165.306 146.18 164.553V147.242C146.164 141.921 144.043 136.823 140.281 133.061C136.519 129.298 131.421 127.177 126.101 127.161Z" fill="#EAEFF4"/>
<path d="M142.833 167.481H125.986C120.617 167.481 115.468 165.348 111.671 161.552C107.875 157.755 105.742 152.606 105.742 147.237V147.237C105.742 141.904 107.86 136.79 111.631 133.019C115.402 129.248 120.516 127.13 125.849 127.13C131.218 127.13 136.367 129.263 140.163 133.059C143.96 136.856 146.093 142.005 146.093 147.374V164.221C146.093 165.086 145.749 165.915 145.138 166.526C144.527 167.137 143.697 167.481 142.833 167.481V167.481Z" stroke="#B8C0CC" stroke-width="1.883" stroke-linecap="round" stroke-linejoin="round"/>
<path d="M117.628 139.851C118.088 138.726 117.882 137.578 117.169 137.287C116.457 136.996 115.506 137.672 115.047 138.797C114.588 139.922 114.794 141.07 115.506 141.361C116.219 141.652 117.169 140.976 117.628 139.851Z" fill="#B8C0CC"/>
<path d="M32.9405 121.363C38.6931 121.363 44.21 123.648 48.2777 127.716C52.3453 131.784 54.6305 137.3 54.6305 143.053C54.6307 145.921 54.0659 148.761 52.9685 151.41C51.8711 154.06 50.2626 156.468 48.2347 158.495C46.2068 160.523 43.7994 162.132 41.1498 163.23C38.5002 164.327 35.6604 164.892 32.7925 164.892H14.6185C14.1567 164.892 13.6994 164.801 13.2728 164.624C12.8461 164.448 12.4585 164.188 12.132 163.862C11.8055 163.535 11.5465 163.148 11.3699 162.721C11.1933 162.294 11.1024 161.837 11.1025 161.375V143.201C11.1025 137.409 13.4033 131.855 17.4987 127.759C21.5942 123.664 27.1487 121.363 32.9405 121.363V121.363Z" fill="white"/>
<path d="M32.6729 121.398C33.8024 121.398 34.9302 121.487 36.0458 121.663C27.1728 121.455 15.1129 128.011 15.1129 143.063V161.737C15.1168 162.548 15.4404 163.324 16.0134 163.897C16.5863 164.47 17.3624 164.794 18.1729 164.798H14.0728C13.2603 164.795 12.4819 164.471 11.9074 163.897C11.333 163.322 11.0092 162.544 11.0068 161.731V143.059C11.024 137.319 13.3123 131.818 17.3719 127.76C21.4315 123.701 26.9324 121.414 32.6729 121.398Z" fill="#EAEFF4"/>
<path d="M32.9405 121.363C38.6931 121.363 44.21 123.648 48.2777 127.716C52.3453 131.784 54.6305 137.3 54.6305 143.053V143.053C54.6307 145.921 54.0659 148.761 52.9685 151.41C51.8711 154.06 50.2626 156.468 48.2347 158.495C46.2068 160.523 43.7994 162.132 41.1498 163.23C38.5002 164.327 35.6604 164.892 32.7925 164.892H14.6185C14.1567 164.892 13.6994 164.801 13.2728 164.624C12.8461 164.448 12.4585 164.188 12.132 163.862C11.8055 163.535 11.5465 163.148 11.3699 162.721C11.1933 162.294 11.1024 161.837 11.1025 161.375V143.201C11.1025 137.409 13.4033 131.855 17.4987 127.759C21.5942 123.664 27.1487 121.363 32.9405 121.363V121.363Z" stroke="#B8C0CC" stroke-width="1.883" stroke-linecap="round" stroke-linejoin="round"/>
<path d="M45.6024 136.503C46.3936 136.342 46.8292 135.199 46.5752 133.951C46.3212 132.702 45.4739 131.821 44.6827 131.982C43.8914 132.143 43.4559 133.285 43.7099 134.534C43.9638 135.782 44.8111 136.664 45.6024 136.503Z" fill="#B8C0CC"/>
</svg>
