<svg width="104" height="68" viewBox="0 0 104 68" fill="none" xmlns="http://www.w3.org/2000/svg">
<path d="M51.5643 36.8789H12.7383V48.9239" stroke="#B8C0CC" stroke-width="2" stroke-linecap="round" stroke-linejoin="round"/>
<path d="M51.5645 36.8789H90.4375V48.9449" stroke="#B8C0CC" stroke-width="2" stroke-linecap="round" stroke-linejoin="round"/>
<path d="M100.534 48.9238H80.2463C79.3665 48.9238 78.6533 49.637 78.6533 50.5168V65.2698C78.6533 66.1496 79.3665 66.8628 80.2463 66.8628H100.534C101.414 66.8628 102.127 66.1496 102.127 65.2698V50.5168C102.127 49.637 101.414 48.9238 100.534 48.9238Z" stroke="#B8C0CC" stroke-width="2" stroke-linecap="round" stroke-linejoin="round"/>
<path d="M22.881 48.9238H2.593C1.71321 48.9238 1 49.637 1 50.5168V65.2698C1 66.1496 1.71321 66.8628 2.593 66.8628H22.881C23.7608 66.8628 24.474 66.1496 24.474 65.2698V50.5168C24.474 49.637 23.7608 48.9238 22.881 48.9238Z" stroke="#B8C0CC" stroke-width="2" stroke-linecap="round" stroke-linejoin="round"/>
<path d="M51.5645 48.6931V28.0151V48.6931Z" fill="white"/>
<path d="M51.5645 48.6931V28.0151" stroke="#11ABD5" stroke-width="2" stroke-linecap="round"/>
<path d="M61.7081 48.9238H41.4201C40.5404 48.9238 39.8271 49.637 39.8271 50.5168V65.2698C39.8271 66.1496 40.5404 66.8628 41.4201 66.8628H61.7081C62.5879 66.8628 63.3011 66.1496 63.3011 65.2698V50.5168C63.3011 49.637 62.5879 48.9238 61.7081 48.9238Z" stroke="#B8C0CC" stroke-width="2" stroke-linecap="round" stroke-linejoin="round"/>
<path d="M66.78 1H36.347C35.0276 1 33.958 2.06959 33.958 3.389V25.52C33.958 26.8394 35.0276 27.909 36.347 27.909H66.78C68.0994 27.909 69.169 26.8394 69.169 25.52V3.389C69.169 2.06959 68.0994 1 66.78 1Z" stroke="#B8C0CC" stroke-width="2" stroke-linecap="round" stroke-linejoin="round"/>
</svg>
