<svg width="66" height="66" viewBox="0 0 66 66" fill="none" xmlns="http://www.w3.org/2000/svg">
<path d="M32.691 64.382C50.1935 64.382 64.382 50.1935 64.382 32.691C64.382 15.1885 50.1935 1 32.691 1C15.1885 1 1 15.1885 1 32.691C1 50.1935 15.1885 64.382 32.691 64.382Z" stroke="#B8C0CC" stroke-width="2" stroke-linecap="round" stroke-linejoin="round"/>
<path d="M29.4714 23.9639L18.6465 41.4219H40.0354L29.4714 23.9639Z" stroke="#11ABD5" stroke-width="2" stroke-linecap="round" stroke-linejoin="round"/>
<path d="M40.0347 41.4219H45.3047L37.8777 29.147L35.3037 33.299" stroke="#11ABD5" stroke-width="2" stroke-linecap="round" stroke-linejoin="round"/>
<path d="M43.6418 25.0669C45.4191 25.0669 46.8598 23.6261 46.8598 21.8489C46.8598 20.0716 45.4191 18.6309 43.6418 18.6309C41.8646 18.6309 40.4238 20.0716 40.4238 21.8489C40.4238 23.6261 41.8646 25.0669 43.6418 25.0669Z" stroke="#11ABD5" stroke-width="2" stroke-linecap="round" stroke-linejoin="round"/>
<path d="M17.2334 46.9678H47.6874" stroke="#11ABD5" stroke-width="2" stroke-linecap="round" stroke-linejoin="round"/>
</svg>
