<svg width="114" height="106" viewBox="0 0 114 106" fill="none" xmlns="http://www.w3.org/2000/svg">
<path d="M53.86 105.72C83.0538 105.72 106.72 82.0538 106.72 52.86C106.72 23.6662 83.0538 0 53.86 0C24.6662 0 1 23.6662 1 52.86C1 82.0538 24.6662 105.72 53.86 105.72Z" fill="#E1EAF0"/>
<path d="M18.16 55.312C20.3331 55.3119 22.4849 55.7398 24.4926 56.5713C26.5003 57.4028 28.3245 58.6216 29.8611 60.1582C31.3978 61.6947 32.6167 63.5189 33.4483 65.5265C34.28 67.5342 34.708 69.6859 34.708 71.859C34.708 76.2775 32.9528 80.5151 29.8284 83.6394C26.704 86.7638 22.4665 88.519 18.048 88.519H4.182C3.82979 88.519 3.48104 88.4496 3.15564 88.3149C2.83025 88.1801 2.53459 87.9825 2.28554 87.7335C2.03649 87.4844 1.83894 87.1888 1.70416 86.8634C1.56937 86.538 1.5 86.1892 1.5 85.837V71.972C1.5 67.5535 3.25524 63.316 6.3796 60.1916C9.50396 57.0673 13.7415 55.312 18.16 55.312Z" fill="white" stroke="#11ABD5" stroke-width="2" stroke-linecap="round" stroke-linejoin="round"/>
<path d="M57.16 55.312C59.3331 55.3119 61.4849 55.7398 63.4926 56.5713C65.5003 57.4028 67.3245 58.6216 68.8611 60.1582C70.3978 61.6947 71.6167 63.5189 72.4483 65.5265C73.28 67.5342 73.708 69.6859 73.708 71.859C73.708 76.2775 71.9528 80.5151 68.8284 83.6394C65.704 86.7638 61.4665 88.519 57.048 88.519H43.182C42.8298 88.519 42.481 88.4496 42.1556 88.3149C41.8302 88.1801 41.5346 87.9825 41.2855 87.7335C41.0365 87.4844 40.8389 87.1888 40.7042 86.8634C40.5694 86.538 40.5 86.1892 40.5 85.837V71.972C40.5 67.5535 42.2552 63.316 45.3796 60.1916C48.504 57.0673 52.7415 55.312 57.16 55.312Z" fill="white" stroke="#11ABD5" stroke-width="2" stroke-linecap="round" stroke-linejoin="round"/>
<path d="M40.3709 16.391C42.544 16.3909 44.6958 16.8188 46.7035 17.6503C48.7112 18.4818 50.5354 19.7006 52.0721 21.2371C53.6087 22.7737 54.8277 24.5979 55.6593 26.6055C56.4909 28.6131 56.9189 30.7649 56.9189 32.938C56.9189 37.3565 55.1637 41.594 52.0393 44.7184C48.915 47.8427 44.6774 49.598 40.2589 49.598H26.3929C26.0407 49.598 25.692 49.5286 25.3666 49.3938C25.0412 49.2591 24.7455 49.0615 24.4965 48.8125C24.2474 48.5634 24.0499 48.2677 23.9151 47.9423C23.7803 47.617 23.7109 47.2682 23.7109 46.916V33.051C23.7109 28.6325 25.4662 24.3949 28.5905 21.2706C31.7149 18.1462 35.9524 16.391 40.3709 16.391Z" fill="white" stroke="#11ABD5" stroke-width="2" stroke-linecap="round" stroke-linejoin="round"/>
<path d="M79.3709 16.391C81.544 16.3909 83.6958 16.8188 85.7035 17.6503C87.7112 18.4818 89.5354 19.7006 91.0721 21.2371C92.6087 22.7737 93.8277 24.5979 94.6593 26.6055C95.4909 28.6131 95.9189 30.7649 95.9189 32.938C95.9189 37.3565 94.1637 41.594 91.0393 44.7184C87.915 47.8427 83.6774 49.598 79.2589 49.598H65.3929C65.0407 49.598 64.692 49.5286 64.3666 49.3938C64.0412 49.2591 63.7455 49.0615 63.4965 48.8125C63.2474 48.5634 63.0499 48.2677 62.9151 47.9423C62.7803 47.617 62.7109 47.2682 62.7109 46.916V33.051C62.7109 28.6325 64.4662 24.3949 67.5905 21.2706C70.7149 18.1462 74.9524 16.391 79.3709 16.391Z" fill="white" stroke="#11ABD5" stroke-width="2" stroke-linecap="round" stroke-linejoin="round"/>
<path d="M96.16 55.391C98.3331 55.3909 100.485 55.8188 102.493 56.6503C104.5 57.4818 106.325 58.7006 107.861 60.2371C109.398 61.7737 110.617 63.5979 111.448 65.6055C112.28 67.6131 112.708 69.7649 112.708 71.938C112.708 76.3565 110.953 80.594 107.828 83.7184C104.704 86.8427 100.467 88.598 96.048 88.598H82.182C81.8298 88.598 81.481 88.5286 81.1556 88.3938C80.8302 88.2591 80.5346 88.0615 80.2855 87.8125C80.0365 87.5634 79.8389 87.2677 79.7042 86.9423C79.5694 86.617 79.5 86.2682 79.5 85.916V72.051C79.5 67.6325 81.2552 63.3949 84.3796 60.2706C87.504 57.1462 91.7415 55.391 96.16 55.391Z" fill="white" stroke="#11ABD5" stroke-width="2" stroke-linecap="round" stroke-linejoin="round"/>
</svg>
