<svg width="633" height="272" viewBox="0 0 633 272" fill="none" xmlns="http://www.w3.org/2000/svg">
<g clip-path="url(#clip0)">
<path d="M468.33 179.082C468.33 179.082 444.002 255.831 276.479 270.564C276.479 270.564 385.131 272.129 479.425 229.721C479.425 229.721 504.752 191.791 504.062 160.365L468.33 179.082Z" fill="#F0F4F7"/>
<path d="M1.30859 222.778C1.30859 222.778 179.649 252.088 465.241 91.2311L473.409 90.3999L471.303 99.3275C471.303 99.3275 177.063 268.481 1.30859 222.778Z" fill="#EAEFF4"/>
<path d="M1.30859 222.778C1.30859 222.778 157.221 230.671 402.3 97.6361L473.409 90.3999L471.303 99.3275" stroke="#B8C0CC" stroke-width="2" stroke-linecap="round" stroke-linejoin="round"/>
<path d="M504.062 160.365C504.062 160.365 504.531 189.88 479.425 229.721C455.558 249.633 219.824 315.368 1.30859 222.778" stroke="#B8C0CC" stroke-width="2" stroke-linecap="round" stroke-linejoin="round"/>
<path d="M229.518 151.142C229.518 151.142 198.077 129.148 166.646 131.394" stroke="#B8C0CC" stroke-width="2" stroke-linecap="round" stroke-linejoin="round"/>
<path d="M166.645 136.045C169.215 136.045 171.298 133.962 171.298 131.393C171.298 128.823 169.215 126.74 166.645 126.74C164.075 126.74 161.992 128.823 161.992 131.393C161.992 133.962 164.075 136.045 166.645 136.045Z" fill="#B8C0CC"/>
<path d="M329.281 194.498L273.685 203.98C264.912 205.476 255.93 205.23 247.252 203.255C238.574 201.28 230.371 197.615 223.109 192.47C215.848 187.325 209.671 180.799 204.931 173.267C200.191 165.734 196.982 157.342 195.485 148.569C192.484 130.971 196.596 112.901 206.917 98.3352C217.239 83.7692 232.924 73.9 250.522 70.8985C268.239 67.8766 286.432 72.0169 301.097 82.4086C315.763 92.8003 325.699 108.592 328.721 126.31L338.203 181.906C338.69 184.759 338.023 187.688 336.35 190.05C334.677 192.411 332.134 194.011 329.281 194.498V194.498Z" fill="white"/>
<path d="M251.368 70.8605C247.914 71.4504 244.511 72.3101 241.19 73.4319C268.231 68.1644 308.544 81.9274 316.392 127.965L326.136 185.091C326.552 187.578 325.966 190.128 324.508 192.184C323.05 194.241 320.837 195.637 318.353 196.068L330.901 193.928C333.386 193.498 335.599 192.101 337.058 190.043C338.516 187.986 339.101 185.435 338.684 182.947L328.941 125.821C325.894 108.27 316.025 92.6388 301.49 82.341C286.956 72.0431 268.936 67.9158 251.368 70.8605Z" fill="#EAEFF4"/>
<path d="M329.281 194.498L273.685 203.98C264.912 205.476 255.93 205.23 247.252 203.255C238.574 201.28 230.371 197.615 223.109 192.47C215.848 187.325 209.671 180.799 204.931 173.267C200.191 165.734 196.982 157.342 195.485 148.569C192.484 130.971 196.596 112.901 206.917 98.3352C217.239 83.7692 232.924 73.9 250.522 70.8985V70.8985C268.239 67.8766 286.432 72.0169 301.097 82.4086C315.763 92.8003 325.699 108.592 328.721 126.31L338.203 181.906C338.69 184.759 338.023 187.688 336.35 190.05C334.677 192.411 332.134 194.011 329.281 194.498V194.498Z" stroke="#B8C0CC" stroke-width="1.883" stroke-linecap="round" stroke-linejoin="round"/>
<path d="M216.917 139.125C219.066 138.914 220.537 135.995 220.204 132.605C219.871 129.215 217.859 126.638 215.711 126.849C213.563 127.061 212.091 129.98 212.424 133.37C212.758 136.76 214.769 139.337 216.917 139.125Z" fill="#B8C0CC"/>
<path d="M197.952 116.216C197.952 116.216 253.923 105.864 262.104 121.927C269.359 136.174 275.416 159.198 275.416 159.198C280.751 174.257 318.959 166.881 315.422 157.763L311.614 147.509C311.158 146.283 310.979 144.972 311.089 143.668C311.199 142.365 311.595 141.102 312.25 139.969C312.905 138.837 313.801 137.863 314.876 137.117C315.951 136.372 317.177 135.873 318.467 135.656L334.316 132.988C334.316 132.988 327.17 70.0403 266.133 67.0469C205.096 64.0534 195.119 114.693 195.119 114.693L197.952 116.216Z" fill="white"/>
<path d="M232.006 108.755L239.417 107.195" stroke="#B8C0CC" stroke-width="2" stroke-linecap="round" stroke-linejoin="round"/>
<path d="M334.013 133.041L333.095 127.653C326.879 91.2072 291.973 61.1158 255.526 67.3323C252.018 67.931 248.394 68.1714 245.12 69.277C272.161 64.0105 312.696 83.7565 320.548 129.793L321.461 135.148" fill="#EAEFF4"/>
<path d="M197.952 116.216C197.952 116.216 253.923 105.864 262.104 121.927C269.359 136.174 275.416 159.198 275.416 159.198C280.751 174.257 318.959 166.881 315.422 157.763L311.614 147.509C311.158 146.283 310.979 144.972 311.089 143.668C311.199 142.365 311.595 141.102 312.25 139.969C312.905 138.837 313.801 137.863 314.876 137.117C315.951 136.372 317.177 135.873 318.467 135.656L334.316 132.988C334.316 132.988 327.17 70.0403 266.133 67.0469C205.096 64.0534 195.119 114.693 195.119 114.693L197.952 116.216Z" stroke="#B8C0CC" stroke-width="2" stroke-linecap="round" stroke-linejoin="round"/>
<path d="M239.417 100.104C282.645 100.104 327.824 110.481 327.824 110.481L329.644 116.294C299.952 110.213 269.726 107.116 239.418 107.05" fill="white"/>
<path d="M239.417 100.104C282.645 100.104 327.824 110.481 327.824 110.481L329.644 116.294C299.952 110.213 269.726 107.116 239.418 107.05" stroke="#B8C0CC" stroke-width="2" stroke-linecap="round" stroke-linejoin="round"/>
<path d="M197.146 92.3857H224.24C226.284 92.3863 228.245 93.1989 229.691 94.645C231.137 96.0911 231.949 98.0521 231.949 100.097V108.883C231.949 110.928 231.136 112.889 229.69 114.335C228.244 115.782 226.283 116.594 224.238 116.594H200.446C198.4 116.594 196.439 115.782 194.993 114.335C193.547 112.889 192.734 110.928 192.734 108.883V96.7971C192.734 95.6272 193.199 94.5051 194.026 93.6778C194.854 92.8505 195.976 92.3857 197.146 92.3857V92.3857Z" fill="white"/>
<path d="M231.951 98.4565L239.417 100.099V107.029" stroke="#B8C0CC" stroke-width="2" stroke-linecap="round" stroke-linejoin="round"/>
<path d="M229.769 114.237L209.948 92.3848H203.238L224.339 116.215L229.769 114.237Z" fill="#EAEFF4"/>
<path d="M221.076 116.292L199.39 92.3857H196.191L217.296 116.216L221.076 116.292Z" fill="#EAEFF4"/>
<path d="M197.146 92.3857H224.24C226.284 92.3863 228.245 93.1989 229.691 94.645C231.137 96.0911 231.949 98.0521 231.949 100.097V108.883C231.949 110.928 231.136 112.889 229.69 114.335C228.244 115.782 226.283 116.594 224.238 116.594H200.446C198.4 116.594 196.439 115.782 194.993 114.335C193.547 112.889 192.734 110.928 192.734 108.883V96.7971C192.734 95.6272 193.199 94.5051 194.026 93.6778C194.854 92.8505 195.976 92.3857 197.146 92.3857V92.3857Z" stroke="#B8C0CC" stroke-width="2" stroke-linecap="round" stroke-linejoin="round"/>
<path d="M258.295 146.424C258.295 146.424 258.295 128.192 246.487 116.216" stroke="#B8C0CC" stroke-width="2" stroke-linecap="round" stroke-linejoin="round"/>
<path d="M246.487 120.868C249.057 120.868 251.14 118.785 251.14 116.216C251.14 113.646 249.057 111.563 246.487 111.563C243.917 111.563 241.834 113.646 241.834 116.216C241.834 118.785 243.917 120.868 246.487 120.868Z" fill="#B8C0CC"/>
<path d="M1.30859 222.778C1.30859 222.778 194.201 262.158 490.102 88.501L631.749 66.5149C631.749 66.5149 383.172 325.896 1.30859 222.778Z" fill="white" stroke="#B8C0CC" stroke-width="2" stroke-linecap="round" stroke-linejoin="round"/>
<path d="M508.861 66.515C508.861 66.515 560.416 34.6465 583.033 1.38599" stroke="#B8C0CC" stroke-width="2" stroke-linecap="round" stroke-linejoin="round"/>
<path d="M479.325 66.515C479.325 66.515 508.325 48.5891 532.366 25.5942" stroke="#B8C0CC" stroke-width="2" stroke-linecap="round" stroke-linejoin="round"/>
</g>
<defs>
<clipPath id="clip0">
<rect width="632.746" height="272" fill="white"/>
</clipPath>
</defs>
</svg>
