<svg width="109" height="106" viewBox="0 0 109 106" fill="none" xmlns="http://www.w3.org/2000/svg">
<g clip-path="url(#clip0)">
<path d="M53.9024 105.19C83.1195 105.19 106.805 81.6849 106.805 52.6899C106.805 23.695 83.1195 0.189941 53.9024 0.189941C24.6852 0.189941 1 23.695 1 52.6899C1 81.6849 24.6852 105.19 53.9024 105.19Z" fill="#F2F5FA"/>
<rect x="18.9087" y="40.442" width="67.0998" height="47.6439" rx="4.06" fill="white" stroke="#C4C4C4" stroke-width="1.88"/>
<path d="M51.5769 71.0359C51.9173 71.3076 52.3998 71.3098 52.7427 71.0413L84.8518 45.8966C85.0793 45.7185 85.2122 45.4455 85.2122 45.1566C85.2122 43.9882 84.9174 43.0494 84.4269 42.3137C83.9403 41.5838 83.2983 41.109 82.6849 40.8023C82.0751 40.4974 81.4767 40.3496 81.0387 40.2766C80.8175 40.2398 80.631 40.221 80.4963 40.2113C80.4287 40.2065 80.3736 40.2039 80.3332 40.2026C80.3129 40.2019 80.2962 40.2015 80.2834 40.2013L80.2671 40.2011L80.2612 40.2011L80.2588 40.2011L80.2577 40.2011C80.2572 40.2011 80.2567 40.2011 80.2567 41.1411V40.2011L80.2489 40.2011L23.4584 40.6735L23.4575 40.6735L23.4554 40.6735L23.453 40.6735L23.4503 40.6735L23.4362 40.6737C23.4251 40.6738 23.4107 40.6741 23.3932 40.6746C23.3581 40.6756 23.3103 40.6775 23.2517 40.6811C23.1347 40.6883 22.9727 40.7023 22.7803 40.7297C22.4004 40.784 21.8776 40.8942 21.3418 41.1238C20.8061 41.3533 20.2215 41.7178 19.7689 42.2996C19.3059 42.8947 19.0248 43.662 19.0248 44.608C19.0248 44.8939 19.155 45.1643 19.3785 45.3427L51.5769 71.0359Z" stroke="#C4C4C4" stroke-width="1.88" stroke-linecap="round" stroke-linejoin="round"/>
<path d="M79.257 61.3628C87.8164 61.3628 94.7551 54.424 94.7551 45.8646C94.7551 37.3052 87.8164 30.3664 79.257 30.3664C70.6976 30.3664 63.7588 37.3052 63.7588 45.8646C63.7588 54.424 70.6976 61.3628 79.257 61.3628Z" fill="white" stroke="#11ABD5" stroke-width="1.88" stroke-linecap="round" stroke-linejoin="round"/>
<path d="M78.8379 37.9061V46.2834L83.8643 51.3099" stroke="#11ABD5" stroke-width="1.88" stroke-linecap="round" stroke-linejoin="round"/>
<path d="M60.4082 32.0419L70.4611 24.5022" stroke="#11ABD5" stroke-width="1.88" stroke-linecap="round" stroke-linejoin="round"/>
<path d="M97.268 32.0419L88.8906 24.5022" stroke="#11ABD5" stroke-width="1.88" stroke-linecap="round" stroke-linejoin="round"/>
</g>
<defs>
<clipPath id="clip0">
<rect width="109" height="105" fill="white" transform="translate(0 0.189941)"/>
</clipPath>
</defs>
</svg>
