<svg width="109" height="105" viewBox="0 0 109 105" fill="none" xmlns="http://www.w3.org/2000/svg">
<path d="M53.055 101.333C81.252 101.333 104.11 78.6492 104.11 50.6667C104.11 22.6843 81.252 0 53.055 0C24.8581 0 2 22.6843 2 50.6667C2 78.6492 24.8581 101.333 53.055 101.333Z" fill="#F2F5FA"/>
<path d="M35.64 30.3033C36.4132 29.41 37.5372 28.8978 38.7188 28.9004L74.093 28.9789C76.334 28.9839 78.1471 30.8036 78.144 33.0446L78.0566 95.8851C78.0535 98.1285 76.2314 99.9442 73.988 99.9394L32.0926 99.8507C29.8515 99.846 28.0382 98.0264 28.0412 95.7853L28.115 40.5048C28.1163 39.5307 28.4678 38.5896 29.1052 37.8531L35.64 30.3033Z" fill="white" stroke="#B8C0CC" stroke-width="1.88" stroke-linecap="round" stroke-linejoin="round"/>
<path d="M28.3168 39.334L36.5043 29.859L37.7735 39.728L28.3168 39.334Z" stroke="#B8C0CC" stroke-width="1.88" stroke-linecap="round" stroke-linejoin="round"/>
<path d="M37.9482 45.2718C37.9482 44.2078 38.8108 43.3452 39.8748 43.3452H52.3978C53.4618 43.3452 54.3244 44.2078 54.3244 45.2718C54.3244 46.3358 53.4618 47.1984 52.3978 47.1984H39.8748C38.8108 47.1984 37.9482 46.3358 37.9482 45.2718Z" fill="#EFEFEF"/>
<path d="M37.9482 54.9048C37.9482 53.8408 38.8108 52.9782 39.8748 52.9782H67.8106C68.8747 52.9782 69.7372 53.8408 69.7372 54.9048C69.7372 55.9689 68.8747 56.8314 67.8106 56.8314H39.8748C38.8108 56.8314 37.9482 55.9689 37.9482 54.9048Z" fill="#EFEFEF"/>
<path d="M37.9482 64.5378C37.9482 63.4738 38.8108 62.6112 39.8748 62.6112H67.8106C68.8747 62.6112 69.7372 63.4738 69.7372 64.5378C69.7372 65.6019 68.8747 66.4644 67.8106 66.4644H39.8748C38.8108 66.4644 37.9482 65.6019 37.9482 64.5378Z" fill="#EFEFEF"/>
<path d="M37.9482 74.1709C37.9482 73.1068 38.8108 72.2443 39.8748 72.2443H67.8106C68.8747 72.2443 69.7372 73.1068 69.7372 74.1709C69.7372 75.2349 68.8747 76.0975 67.8106 76.0975H39.8748C38.8108 76.0975 37.9482 75.2349 37.9482 74.1709Z" fill="#EFEFEF"/>
<path d="M37.9482 83.8773C37.9482 82.7727 38.8437 81.8773 39.9482 81.8773H54.251C55.3556 81.8773 56.251 82.7727 56.251 83.8773V86.6204C56.251 87.725 55.3556 88.6204 54.251 88.6204H39.9482C38.8437 88.6204 37.9482 87.725 37.9482 86.6204V83.8773Z" fill="#EFEFEF"/>
<g clip-path="url(#clip0)">
<path d="M72.829 103.075C79.9282 103.075 85.6833 97.2954 85.6833 90.166C85.6833 83.0365 79.9282 77.2569 72.829 77.2569C65.7297 77.2569 59.9746 83.0365 59.9746 90.166C59.9746 97.2954 65.7297 103.075 72.829 103.075Z" fill="white" stroke="#11ABD5" stroke-width="2"/>
<path d="M78.6341 86.5046L70.8019 94.5574L67.2744 90.8691" stroke="#11ABD5" stroke-width="2" stroke-linecap="round" stroke-linejoin="round"/>
</g>
<defs>
<clipPath id="clip0">
<rect width="29.8624" height="28.8991" fill="white" transform="translate(57.8711 76.1009)"/>
</clipPath>
</defs>
</svg>
