<svg width="105" height="109" viewBox="0 0 105 109" fill="none" xmlns="http://www.w3.org/2000/svg">
<g clip-path="url(#clip0)">
<path d="M52.5 105.19C81.4949 105.19 105 81.6849 105 52.6899C105 23.695 81.4949 0.189941 52.5 0.189941C23.5051 0.189941 0 23.695 0 52.6899C0 81.6849 23.5051 105.19 52.5 105.19Z" fill="#F0F4F7"/>
<rect x="16" y="28.5835" width="64.367" height="40.359" rx="2" fill="#B8C0CC"/>
<rect x="20.1631" y="29.7891" width="54.4205" height="37.9444" rx="1" fill="white"/>
<path d="M41.2031 52.5119V47.8184C41.2031 43.2098 44.9474 39.4777 49.5709 39.4777H49.6939C54.3174 39.4777 58.0617 43.2098 58.0617 47.8184V47.9409C58.0617 52.5495 54.3174 56.2817 49.6939 56.2817H43.5669C41.4679 56.2817 41.222 54.5947 41.2031 52.5119Z" fill="white"/>
<path d="M40.8955 47.8569V55.0667C40.905 55.7264 41.4345 56.2542 42.0963 56.2636H43.6942C43.0324 56.2542 42.5029 55.7264 42.4934 55.0667V47.8569C42.4934 42.0325 47.1737 39.5161 50.6059 39.5915C50.171 39.5256 49.7266 39.4973 49.2917 39.4879C44.6587 39.5161 40.9144 43.2483 40.8955 47.8569Z" fill="#EAEFF4"/>
<path d="M42.6017 57.2318L42.6017 57.2318H42.6116H49.5044C54.6442 57.2318 58.8122 53.0818 58.8122 47.9511V47.8286C58.8122 42.698 54.6442 38.5479 49.5044 38.5479H49.3815C44.2416 38.5479 40.0737 42.698 40.0737 47.8286V54.6991C40.0737 56.103 41.2098 57.2171 42.6017 57.2318Z" stroke="#11ABD5" stroke-width="1.88" stroke-miterlimit="10"/>
<path d="M52 45.1899C52 44.6399 52.4501 44.1899 53.0001 44.1899C53.5499 44.1899 54 44.6399 54 45.1899C54 45.7399 53.5499 46.1899 53.0001 46.1899C52.4501 46.1899 52 45.7399 52 45.1899Z" fill="#11ABD5"/>
<ellipse cx="77.3717" cy="49.3344" rx="1.93221" ry="1.92742" fill="white"/>
<ellipse cx="18.6962" cy="47.951" rx="0.778202" ry="0.77627" fill="white"/>
<path d="M86.0049 107.134H62.2731C60.912 107.134 59.8453 106.067 59.8453 104.708V60.0157C59.8453 58.657 60.912 57.5901 62.2731 57.5901H86.0049C87.3661 57.5901 88.4327 58.657 88.4327 60.0157V104.708C88.4327 106.067 87.3661 107.134 86.0049 107.134Z" fill="white" stroke="#B8C0CC" stroke-width="1.88"/>
<path d="M66.6221 86.7245V82.0311C66.6221 77.4225 70.3663 73.6903 74.9899 73.6903H75.1128C79.7364 73.6903 83.4806 77.4225 83.4806 82.0311V82.1536C83.4806 86.7622 79.7364 90.4944 75.1128 90.4944H68.9859C66.8868 90.4944 66.641 88.8074 66.6221 86.7245Z" fill="white"/>
<path d="M66.3145 82.0689V89.2787C66.3239 89.9384 66.8534 90.4662 67.5153 90.4756H69.1132C68.4513 90.4662 67.9218 89.9384 67.9124 89.2787V82.0689C67.9124 76.2445 72.5927 73.7281 76.0249 73.8035C75.59 73.7375 75.1456 73.7093 74.7106 73.6998C70.0776 73.7281 66.3334 77.4602 66.3145 82.0689Z" fill="#EAEFF4"/>
<path d="M68.0216 91.4438L68.0216 91.4438H68.0315H74.9243C80.0641 91.4438 84.2321 87.2937 84.2321 82.1631V82.0406C84.2321 76.91 80.0641 72.7598 74.9243 72.7598H74.8014C69.6616 72.7598 65.4936 76.91 65.4936 82.0406V88.9111C65.4936 90.315 66.6298 91.4291 68.0216 91.4438Z" stroke="#11ABD5" stroke-width="1.88" stroke-miterlimit="10"/>
<path d="M78 79.1899C78 78.6399 78.4501 78.1899 79.0001 78.1899C79.5499 78.1899 80 78.6399 80 79.1899C80 79.7399 79.5499 80.1899 79.0001 80.1899C78.4501 80.1899 78 79.7399 78 79.1899Z" fill="#11ABD5"/>
</g>
<defs>
<clipPath id="clip0">
<rect width="105" height="108" fill="white" transform="translate(0 0.189941)"/>
</clipPath>
</defs>
</svg>
