<svg width="109" height="105" viewBox="0 0 109 105" fill="none" xmlns="http://www.w3.org/2000/svg">
<path d="M52.8633 105C81.8582 105 105.363 81.4949 105.363 52.5C105.363 23.5051 81.8582 0 52.8633 0C23.8683 0 0.363281 23.5051 0.363281 52.5C0.363281 81.4949 23.8683 105 52.8633 105Z" fill="#F2F5FA"/>
<path d="M25.7959 33.1859H80.4498C83.5227 33.1859 85.9371 35.6195 85.9371 38.7168V93.8053C85.9371 96.9027 83.5227 99.3363 80.4498 99.3363H25.7959C22.723 99.3363 20.3086 96.9027 20.3086 93.8053V38.7168C20.3086 35.7301 22.723 33.1859 25.7959 33.1859Z" fill="#B8C0CC"/>
<path d="M26.0928 45.354H80.1526C82.1467 45.354 83.6976 46.6814 83.6976 48.3407V93.4735C83.6976 95.1328 82.1467 96.4602 80.1526 96.4602H26.0928C24.0987 96.4602 22.5479 95.1328 22.5479 93.4735V48.3407C22.5479 46.6814 24.2095 45.354 26.0928 45.354Z" fill="white"/>
<path d="M35.3984 62.1681H28.1978C27.3116 62.1681 26.5361 61.3938 26.5361 60.5089V53.3186C26.5361 52.4336 27.3116 51.6593 28.1978 51.6593H35.3984C36.2846 51.6593 37.0601 52.4336 37.0601 53.3186V60.3982C37.0601 61.3938 36.3954 62.1681 35.3984 62.1681Z" fill="#EFEFEF"/>
<path d="M49.7998 62.1681H42.5992C41.7129 62.1681 40.9375 61.3938 40.9375 60.5089V53.3186C40.9375 52.4336 41.7129 51.6593 42.5992 51.6593H49.7998C50.686 51.6593 51.4615 52.4336 51.4615 53.3186V60.3982C51.4615 61.3938 50.686 62.1681 49.7998 62.1681Z" fill="#EFEFEF"/>
<path d="M35.3984 76.8806H28.1978C27.3116 76.8806 26.5361 76.1062 26.5361 75.2213V68.031C26.5361 67.146 27.3116 66.3717 28.1978 66.3717H35.3984C36.2846 66.3717 37.0601 67.146 37.0601 68.031V75.2213C37.0601 76.1062 36.3954 76.8806 35.3984 76.8806Z" fill="#EFEFEF"/>
<path d="M49.7998 76.8806H42.5992C41.7129 76.8806 40.9375 76.1062 40.9375 75.2213V68.031C40.9375 67.146 41.7129 66.3717 42.5992 66.3717H49.7998C50.686 66.3717 51.4615 67.146 51.4615 68.031V75.2213C51.4615 76.1062 50.686 76.8806 49.7998 76.8806Z" fill="#EFEFEF"/>
<path d="M35.3984 91.7036H28.1978C27.3116 91.7036 26.5361 90.9292 26.5361 90.0443V82.854C26.5361 81.969 27.3116 81.1947 28.1978 81.1947H35.3984C36.2846 81.1947 37.0601 81.969 37.0601 82.854V90.0443C37.0601 90.9292 36.3954 91.7036 35.3984 91.7036Z" fill="#EFEFEF"/>
<path d="M49.7998 91.7036H42.5992C41.7129 91.7036 40.9375 90.9292 40.9375 90.0443V82.854C40.9375 81.969 41.7129 81.1947 42.5992 81.1947H49.7998C50.686 81.1947 51.4615 81.969 51.4615 82.854V90.0443C51.4615 90.9292 50.686 91.7036 49.7998 91.7036Z" fill="#EFEFEF"/>
<path d="M64.0898 76.8806H56.8892C56.003 76.8806 55.2275 76.1062 55.2275 75.2213V68.031C55.2275 67.146 56.003 66.3717 56.8892 66.3717H64.0898C64.976 66.3717 65.7515 67.146 65.7515 68.031V75.2213C65.7515 76.1062 64.976 76.8806 64.0898 76.8806Z" fill="#EFEFEF"/>
<path d="M64.0898 91.7036H56.8892C56.003 91.7036 55.2275 90.9292 55.2275 90.0443V82.854C55.2275 81.969 56.003 81.1947 56.8892 81.1947H64.0898C64.976 81.1947 65.7515 81.969 65.7515 82.854V90.0443C65.7515 90.9292 64.976 91.7036 64.0898 91.7036Z" fill="#EFEFEF"/>
<path d="M64.3115 62.1681H57.1109C56.2247 62.1681 55.4492 61.3938 55.4492 60.5089V53.3186C55.4492 52.4336 56.2247 51.6593 57.1109 51.6593H64.3115C65.1977 51.6593 65.9732 52.4336 65.9732 53.3186V60.3982C65.9732 61.3938 65.1977 62.1681 64.3115 62.1681Z" fill="#EFEFEF"/>
<path d="M78.6015 62.1681H71.4009C70.5147 62.1681 69.7393 61.3938 69.7393 60.5089V53.3186C69.7393 52.4336 70.5147 51.6593 71.4009 51.6593H78.6015C79.4878 51.6593 80.2632 52.4336 80.2632 53.3186V60.3982C80.2632 61.3938 79.5985 62.1681 78.6015 62.1681Z" fill="#11ABD5"/>
<path d="M70.2285 98.5223V65.3365L92.0519 88.8984H79.8662L70.2285 98.5223Z" fill="white" stroke="#11ABD5" stroke-width="2" stroke-linejoin="round"/>
<path d="M32.9609 35.3982H32.407C31.1884 35.3982 30.1914 34.4027 30.1914 33.1858V27.2124C30.1914 25.9956 31.1884 25 32.407 25H32.9609C34.1794 25 35.1764 25.9956 35.1764 27.2124V33.1858C35.1764 34.4027 34.1794 35.3982 32.9609 35.3982Z" fill="#B8C0CC"/>
<path d="M74.5029 35.3982H73.949C72.7304 35.3982 71.7334 34.4027 71.7334 33.1858V27.2124C71.7334 25.9956 72.7304 25 73.949 25H74.5029C75.7214 25 76.7184 25.9956 76.7184 27.2124V33.1858C76.7184 34.4027 75.7214 35.3982 74.5029 35.3982Z" fill="#B8C0CC"/>
</svg>
