<svg width="127" height="106" viewBox="0 0 127 106" fill="none" xmlns="http://www.w3.org/2000/svg">
<path d="M59.0534 105.72C88.2471 105.72 111.913 82.0538 111.913 52.86C111.913 23.6662 88.2471 0 59.0534 0C29.8596 0 6.19336 23.6662 6.19336 52.86C6.19336 82.0538 29.8596 105.72 59.0534 105.72Z" fill="#E1EAF0"/>
<path d="M17.8906 73.397L105.119 32.105" stroke="#B8C0CC" stroke-width="3" stroke-linecap="round" stroke-linejoin="round"/>
<path d="M20.017 56.403C25.0267 56.403 29.8312 58.393 33.3735 61.9354C36.9159 65.4778 38.906 70.2823 38.906 75.292C38.906 80.3356 36.9024 85.1726 33.336 88.739C29.7697 92.3054 24.9326 94.309 19.889 94.309H4.062C3.24991 94.309 2.47108 93.9864 1.89684 93.4121C1.3226 92.8379 1 92.059 1 91.247L1 75.42C1 70.3763 3.00357 65.5393 6.56995 61.9729C10.1363 58.4065 14.9734 56.403 20.017 56.403V56.403Z" fill="white" stroke="#11ABD5" stroke-width="2" stroke-linecap="round" stroke-linejoin="round"/>
<path d="M107.07 13.152C112.079 13.152 116.884 15.1421 120.426 18.6844C123.969 22.2268 125.959 27.0313 125.959 32.041C125.959 37.0846 123.955 41.9216 120.389 45.488C116.822 49.0544 111.985 51.058 106.942 51.058H91.1147C90.3026 51.058 89.5238 50.7354 88.9496 50.1611C88.3753 49.5869 88.0527 48.8081 88.0527 47.996V32.169C88.0527 27.1254 90.0563 22.2883 93.6227 18.7219C97.1891 15.1555 102.026 13.152 107.07 13.152V13.152Z" fill="white" stroke="#11ABD5" stroke-width="2" stroke-linecap="round" stroke-linejoin="round"/>
</svg>
