<svg width="109" height="106" viewBox="0 0 109 106" fill="none" xmlns="http://www.w3.org/2000/svg">
<g clip-path="url(#clip0)">
<path d="M52.9024 105.19C82.1195 105.19 105.805 81.6849 105.805 52.6899C105.805 23.695 82.1195 0.189941 52.9024 0.189941C23.6852 0.189941 0 23.695 0 52.6899C0 81.6849 23.6852 105.19 52.9024 105.19Z" fill="#F2F5FA"/>
<path d="M40.2041 85.9882C40.2062 86.4002 40.3707 86.7947 40.6619 87.086C40.9531 87.3774 41.3475 87.5421 41.7595 87.5443H79.7577C80.1697 87.5421 80.5641 87.3774 80.8553 87.086C81.1465 86.7947 81.3111 86.4002 81.3131 85.9882V38.8933L69.6533 27.1899H41.7612C41.3494 27.1922 40.9551 27.3569 40.6639 27.648C40.3727 27.9392 40.2082 28.3335 40.2059 28.7453V31.578" fill="white"/>
<path d="M40.2041 85.9882C40.2062 86.4002 40.3707 86.7947 40.6619 87.086C40.9531 87.3774 41.3475 87.5421 41.7595 87.5444H79.7577C80.1697 87.5421 80.5641 87.3774 80.8553 87.086C81.1465 86.7947 81.311 86.4002 81.3131 85.9882V38.8933L69.6533 27.1899H41.7612C41.3494 27.1922 40.9551 27.3569 40.6639 27.648C40.3727 27.9392 40.2082 28.3335 40.2059 28.7453V31.578" stroke="#B8C0CC" stroke-width="2.00568" stroke-miterlimit="10" stroke-linecap="round"/>
<path d="M59.6781 60.1285C59.6781 64.2501 58.4559 68.2792 56.1661 71.7062C53.8762 75.1331 50.6217 77.8041 46.8138 79.3814C43.006 80.9586 38.8159 81.3713 34.7735 80.5672C30.7311 79.7631 27.018 77.7784 24.1036 74.864C21.1892 71.9496 19.2045 68.2365 18.4004 64.1941C17.5964 60.1517 18.009 55.9616 19.5863 52.1538C21.1635 48.346 23.8345 45.0914 27.2615 42.8016C30.6884 40.5117 34.7174 39.2896 38.839 39.2896V60.1285H59.6781Z" fill="white" stroke="#B8C0CC" stroke-width="2.00568" stroke-miterlimit="10" stroke-linecap="round"/>
<path d="M45.748 32.3783C51.2748 32.3785 56.575 34.5741 60.4829 38.4822C64.3908 42.3902 66.5863 47.6905 66.5863 53.2172H45.748V32.3783Z" stroke="#11ABD5" stroke-width="2.00568" stroke-miterlimit="10" stroke-linecap="round"/>
<path d="M69.6543 27.1916V36.3908C69.6543 37.0382 69.9114 37.659 70.3691 38.1168C70.8268 38.5745 71.4477 38.8316 72.095 38.8316H81.3141" stroke="#B8C0CC" stroke-width="2.00568" stroke-miterlimit="10" stroke-linecap="round"/>
<path d="M70.627 44.8366H77.1134" stroke="#B8C0CC" stroke-width="2.00568" stroke-miterlimit="10" stroke-linecap="round"/>
<path d="M70.627 51.0815H77.1134" stroke="#B8C0CC" stroke-width="2.00568" stroke-miterlimit="10" stroke-linecap="round"/>
<path d="M70.627 57.3671H77.1134" stroke="#B8C0CC" stroke-width="2.00568" stroke-miterlimit="10" stroke-linecap="round"/>
<path d="M75.3282 73.9616C75.2879 73.8368 75.2119 73.7266 75.1095 73.6447C75.007 73.5628 74.8827 73.5128 74.7521 73.501L71.114 73.1709L69.6759 69.8038C69.6244 69.6832 69.5385 69.5803 69.429 69.508C69.3195 69.4357 69.1911 69.3972 69.0599 69.3972C68.9286 69.3972 68.8003 69.4357 68.6908 69.508C68.5812 69.5803 68.4954 69.6832 68.4438 69.8038L67.0049 73.17L63.3668 73.5002C63.2362 73.5123 63.112 73.5623 63.0096 73.6442C62.9072 73.7261 62.8311 73.8362 62.7906 73.961C62.7501 74.0857 62.747 74.2196 62.7818 74.346C62.8166 74.4724 62.8876 74.5859 62.9862 74.6724L65.7363 77.0836L64.9257 80.6557C64.8959 80.7836 64.9044 80.9175 64.9503 81.0406C64.9961 81.1637 65.0773 81.2705 65.1835 81.3478C65.2898 81.425 65.4164 81.4692 65.5476 81.4748C65.6789 81.4805 65.8089 81.4473 65.9214 81.3795L69.0599 79.5035L72.1966 81.3795C72.3092 81.4467 72.4392 81.4794 72.5702 81.4735C72.7012 81.4677 72.8276 81.4233 72.9337 81.3463C73.0398 81.2692 73.121 81.1627 73.1671 81.0399C73.2133 80.9172 73.2224 80.7835 73.1933 80.6557L72.3826 77.0836L75.1318 74.6724C75.2307 74.5862 75.3021 74.4729 75.337 74.3465C75.3719 74.2201 75.3688 74.0863 75.3282 73.9616Z" fill="#11ABD5"/>
</g>
<defs>
<clipPath id="clip0">
<rect width="109" height="105" fill="white" transform="translate(0 0.189941)"/>
</clipPath>
</defs>
</svg>
