<svg width="135" height="144" viewBox="0 0 135 144" fill="none" xmlns="http://www.w3.org/2000/svg">
<path d="M66.861 18.8459C77.3157 18.8459 87.5356 21.9461 96.2284 27.7545C104.921 33.5628 111.696 41.8184 115.697 51.4773C119.698 61.1362 120.745 71.7646 118.705 82.0184C116.666 92.2723 111.631 101.691 104.239 109.084C96.846 116.476 87.4273 121.511 77.1735 123.55C66.9196 125.59 56.2912 124.543 46.6323 120.542C36.9734 116.541 28.7178 109.766 22.9095 101.073C17.1012 92.3806 14.001 82.1607 14.001 71.7059C14.001 57.6866 19.5701 44.2415 29.4833 34.3283C39.3965 24.4151 52.8416 18.8459 66.861 18.8459V18.8459Z" fill="#E1EAF0"/>
<path d="M18.637 77.948C23.2831 77.948 27.7388 79.7936 31.0241 83.0789C34.3094 86.3642 36.155 90.8199 36.155 95.466C36.155 100.144 34.2968 104.63 30.9892 107.937C27.6817 111.245 23.1956 113.103 18.518 113.103H3.84C3.08679 113.103 2.36442 112.804 1.83182 112.271C1.29921 111.739 1 111.016 1 110.263V95.585C1 90.9074 2.85818 86.4213 6.16576 83.1138C9.47334 79.8062 13.9594 77.948 18.637 77.948V77.948Z" fill="white" stroke="#11ABD5" stroke-width="2" stroke-linecap="round" stroke-linejoin="round"/>
<path d="M116.151 77.948C120.797 77.948 125.253 79.7936 128.538 83.0789C131.823 86.3642 133.669 90.8199 133.669 95.466C133.669 100.144 131.81 104.63 128.503 107.937C125.195 111.245 120.709 113.103 116.032 113.103H101.354C100.6 113.103 99.8781 112.804 99.3455 112.271C98.8129 111.739 98.5137 111.016 98.5137 110.263V95.585C98.5137 90.9074 100.372 86.4213 103.679 83.1138C106.987 79.8062 111.473 77.948 116.151 77.948V77.948Z" fill="white" stroke="#11ABD5" stroke-width="2" stroke-linecap="round" stroke-linejoin="round"/>
<path d="M67.137 107C71.7831 107 76.2388 108.846 79.5241 112.131C82.8094 115.416 84.655 119.872 84.655 124.518C84.655 129.196 82.7968 133.682 79.4892 136.989C76.1817 140.297 71.6956 142.155 67.018 142.155H52.34C51.5868 142.155 50.8644 141.856 50.3318 141.323C49.7992 140.791 49.5 140.068 49.5 139.315V124.637C49.5 119.959 51.3582 115.473 54.6658 112.166C57.9733 108.858 62.4594 107 67.137 107V107Z" fill="white" stroke="#11ABD5" stroke-width="2" stroke-linecap="round" stroke-linejoin="round"/>
<path d="M67.137 1C71.7831 1 76.2388 2.84564 79.5241 6.1309C82.8094 9.41617 84.655 13.8719 84.655 18.518C84.655 23.1956 82.7968 27.6817 79.4892 30.9892C76.1817 34.2968 71.6956 36.155 67.018 36.155H52.34C51.5868 36.155 50.8644 35.8558 50.3318 35.3232C49.7992 34.7906 49.5 34.0682 49.5 33.315V18.637C49.5 13.9594 51.3582 9.47334 54.6658 6.16576C57.9733 2.85818 62.4594 1 67.137 1V1Z" fill="white" stroke="#11ABD5" stroke-width="2" stroke-linecap="round" stroke-linejoin="round"/>
<path d="M19.7796 30.448C24.4256 30.448 28.8814 32.2936 32.1667 35.5789C35.4519 38.8642 37.2976 43.3199 37.2976 47.966C37.2976 52.6436 35.4394 57.1297 32.1318 60.4372C28.8242 63.7448 24.3382 65.603 19.6606 65.603H4.98258C4.22936 65.603 3.507 65.3038 2.97439 64.7712C2.44179 64.2386 2.14258 63.5162 2.14258 62.763V48.085C2.14258 43.4074 4.00076 38.9213 7.30834 35.6138C10.6159 32.3062 15.102 30.448 19.7796 30.448V30.448Z" fill="white" stroke="#11ABD5" stroke-width="2" stroke-linecap="round" stroke-linejoin="round"/>
<path d="M113.78 30.448C118.426 30.448 122.881 32.2936 126.167 35.5789C129.452 38.8642 131.298 43.3199 131.298 47.966C131.298 52.6436 129.439 57.1297 126.132 60.4372C122.824 63.7448 118.338 65.603 113.661 65.603H98.9826C98.2294 65.603 97.507 65.3038 96.9744 64.7712C96.4418 64.2386 96.1426 63.5162 96.1426 62.763V48.085C96.1426 43.4074 98.0008 38.9213 101.308 35.6138C104.616 32.3062 109.102 30.448 113.78 30.448V30.448Z" fill="white" stroke="#11ABD5" stroke-width="2" stroke-linecap="round" stroke-linejoin="round"/>
</svg>
