<svg width="66" height="69" viewBox="0 0 66 69" fill="none" xmlns="http://www.w3.org/2000/svg">
<path d="M57.2043 1.73535H41.5963C40.7964 1.73773 40.0298 2.05659 39.4641 2.62225C38.8985 3.18791 38.5796 3.95444 38.5773 4.75439V10.7754C38.5785 10.8701 38.6039 10.9629 38.651 11.0451C38.6981 11.1273 38.7652 11.196 38.8463 11.245C38.9274 11.2939 39.0196 11.3214 39.1143 11.3248C39.2089 11.3282 39.303 11.3074 39.3873 11.2644C40.1882 10.8955 41.091 10.8112 41.9463 11.0254C42.8829 11.2565 43.7025 11.8227 44.2502 12.6168C44.798 13.411 45.036 14.3782 44.9193 15.3359C44.8026 16.2935 44.3394 17.1753 43.6169 17.8147C42.8945 18.4541 41.963 18.8069 40.9983 18.8064C40.4367 18.8064 39.882 18.6831 39.3733 18.4454C39.2902 18.402 39.1974 18.3808 39.1038 18.3836C39.0101 18.3864 38.9187 18.4133 38.8384 18.4615C38.7581 18.5098 38.6916 18.578 38.6451 18.6594C38.5987 18.7408 38.5739 18.8327 38.5732 18.9264V24.9664C38.5754 25.7664 38.8941 26.5331 39.4598 27.0988C40.0256 27.6645 40.7922 27.9832 41.5923 27.9854H47.6173C47.7127 27.9863 47.8063 28.012 47.8889 28.0597C47.9715 28.1074 48.0404 28.1757 48.0889 28.2579C48.1374 28.3401 48.1638 28.4333 48.1656 28.5287C48.1675 28.6241 48.1445 28.7184 48.0992 28.8024C47.7065 29.6075 47.6058 30.5242 47.8143 31.3954C48.0362 32.3382 48.5969 33.1665 49.3898 33.7228C50.1826 34.2791 51.1522 34.5245 52.1143 34.4124C53.0763 34.3002 53.9636 33.8384 54.6073 33.1147C55.251 32.391 55.6062 31.4559 55.6053 30.4874C55.6054 29.9026 55.4715 29.3255 55.2142 28.8004C55.1693 28.7163 55.1469 28.6221 55.149 28.5268C55.1512 28.4315 55.1779 28.3384 55.2266 28.2565C55.2752 28.1745 55.3443 28.1065 55.4269 28.059C55.5095 28.0115 55.6029 27.9862 55.6982 27.9854H61.8103C62.6102 27.983 63.3765 27.6641 63.942 27.0984C64.5075 26.5328 64.8261 25.7662 64.8282 24.9664V9.36438C64.8222 7.34377 64.0172 5.40759 62.5889 3.97833C61.1605 2.54907 59.2249 1.74274 57.2043 1.73535V1.73535Z" stroke="#11ABD5" stroke-width="2" stroke-linecap="round" stroke-linejoin="round"/>
<path d="M53.5318 60.2354V44.6274C53.5292 43.8279 53.2103 43.0618 52.6448 42.4966C52.0794 41.9313 51.3133 41.6127 50.5137 41.6104H44.4888C44.394 41.6114 44.301 41.6366 44.2187 41.6837C44.1364 41.7307 44.0674 41.7979 44.0184 41.879C43.9693 41.9601 43.9419 42.0524 43.9384 42.1472C43.935 42.2419 43.9558 42.3359 43.9988 42.4203C44.368 43.2211 44.4527 44.1239 44.2388 44.9794C44.0068 45.9153 43.4404 46.734 42.6463 47.2811C41.8522 47.8282 40.8855 48.0659 39.9283 47.9493C38.9711 47.8327 38.0896 47.3699 37.4501 46.6481C36.8107 45.9264 36.4572 44.9957 36.4567 44.0314C36.4566 43.4697 36.5802 42.9149 36.8188 42.4064C36.861 42.3235 36.8814 42.2313 36.878 42.1384C36.8746 42.0455 36.8476 41.9549 36.7994 41.8754C36.7512 41.7959 36.6835 41.73 36.6027 41.684C36.5219 41.6379 36.4308 41.6133 36.3378 41.6124H27.2788V50.6554C27.2779 50.751 27.2523 50.8446 27.2045 50.9274C27.1567 51.0101 27.0884 51.0791 27.006 51.1276C26.9237 51.1761 26.8302 51.2025 26.7347 51.2042C26.6391 51.2059 26.5448 51.1829 26.4608 51.1374C25.656 50.7447 24.7397 50.6439 23.8688 50.8524C22.9261 51.0742 22.0976 51.635 21.5413 52.4279C20.985 53.2207 20.7396 54.1904 20.8517 55.1524C20.9639 56.1144 21.4258 57.0017 22.1495 57.6454C22.8732 58.2891 23.8083 58.6442 24.7768 58.6434C25.3611 58.6432 25.9378 58.5098 26.4628 58.2534C26.5468 58.2083 26.6409 58.1857 26.7361 58.1876C26.8314 58.1896 26.9245 58.216 27.0065 58.2645C27.0886 58.3129 27.1567 58.3817 27.2044 58.4642C27.2521 58.5467 27.2777 58.6401 27.2788 58.7354V67.8654H45.9037C47.9254 67.8595 49.8626 67.0538 51.2919 65.6241C52.7213 64.1944 53.5265 62.257 53.5318 60.2354V60.2354Z" stroke="#B8C0CC" stroke-width="2" stroke-linecap="round" stroke-linejoin="round"/>
<path d="M8.63 67.8091H27.255V58.7651C27.2538 58.6706 27.2285 58.578 27.1816 58.4959C27.1347 58.4139 27.0678 58.3451 26.9869 58.2961C26.9061 58.2471 26.8141 58.2194 26.7196 58.2158C26.6252 58.2121 26.5314 58.2325 26.447 58.2751C25.6461 58.6448 24.7427 58.7296 23.887 58.5151C22.9502 58.284 22.1306 57.7177 21.5829 56.9235C21.0351 56.1292 20.7971 55.1619 20.9139 54.2042C21.0307 53.2464 21.4943 52.3646 22.2169 51.7253C22.9395 51.086 23.8712 50.7334 24.8361 50.7341C25.3976 50.7344 25.9522 50.8576 26.4611 51.0951C26.5439 51.1373 26.6361 51.1578 26.729 51.1544C26.8219 51.151 26.9124 51.1239 26.9919 51.0757C27.0715 51.0275 27.1373 50.9599 27.1833 50.8791C27.2294 50.7983 27.2541 50.7071 27.255 50.6141V41.5551H18.2111C18.1158 41.5539 18.0223 41.5281 17.9398 41.4803C17.8574 41.4325 17.7887 41.3643 17.7402 41.2822C17.6918 41.2001 17.6653 41.1069 17.6633 41.0116C17.6614 40.9163 17.684 40.8221 17.729 40.7381C18.1216 39.9329 18.2224 39.0164 18.014 38.1451C17.7922 37.2024 17.2315 36.374 16.4386 35.8177C15.6457 35.2614 14.676 35.016 13.714 35.1281C12.752 35.2402 11.8648 35.7021 11.2211 36.4258C10.5774 37.1495 10.2222 38.0846 10.223 39.0531C10.2229 39.6379 10.3567 40.215 10.614 40.7401C10.6589 40.8242 10.6814 40.9184 10.6792 41.0137C10.677 41.109 10.6503 41.2021 10.6017 41.284C10.553 41.3659 10.484 41.434 10.4014 41.4814C10.3187 41.5289 10.2253 41.5543 10.13 41.5551H1V60.1801C1.00607 62.2018 1.81196 64.1389 3.24158 65.5683C4.67119 66.9977 6.60836 67.8033 8.63 67.8091V67.8091Z" stroke="#B8C0CC" stroke-width="2" stroke-linecap="round" stroke-linejoin="round"/>
<path d="M1.05469 22.9213V41.5513H10.0986C10.1931 41.55 10.2859 41.5248 10.3679 41.4779C10.45 41.431 10.5187 41.364 10.5677 41.2831C10.6168 41.2023 10.6444 41.1104 10.6481 41.0159C10.6517 40.9215 10.6312 40.8277 10.5886 40.7433C10.2189 39.9427 10.1342 39.0397 10.3486 38.1843C10.5798 37.2476 11.1459 36.4281 11.9401 35.8803C12.7342 35.3326 13.7015 35.0946 14.6592 35.2112C15.6168 35.3279 16.4985 35.7912 17.1379 36.5136C17.7773 37.236 18.1301 38.1675 18.1296 39.1323C18.1294 39.6938 18.0063 40.2485 17.7687 40.7573C17.7262 40.8401 17.7056 40.9325 17.7089 41.0256C17.7121 41.1186 17.7393 41.2093 17.7875 41.2889C17.8357 41.3686 17.9033 41.4346 17.9843 41.4807C18.0652 41.5268 18.1565 41.5515 18.2496 41.5523H27.3087V32.5093C27.3097 32.4139 27.3352 32.3204 27.3829 32.2377C27.4307 32.1551 27.499 32.0862 27.5812 32.0377C27.6634 31.9892 27.7566 31.9628 27.8521 31.961C27.9475 31.9592 28.0416 31.982 28.1256 32.0273C28.9308 32.4199 29.8474 32.5207 30.7186 32.3123C31.6614 32.0904 32.4897 31.5297 33.046 30.7368C33.6023 29.944 33.8478 28.9743 33.7357 28.0123C33.6236 27.0502 33.1617 26.163 32.438 25.5193C31.7143 24.8756 30.7792 24.5204 29.8107 24.5213C29.226 24.5216 28.6491 24.6549 28.1237 24.9113C28.0398 24.9564 27.9457 24.9791 27.8505 24.9772C27.7552 24.9752 27.6621 24.9488 27.5801 24.9003C27.4981 24.8518 27.4301 24.783 27.3826 24.7004C27.335 24.6179 27.3096 24.5245 27.3087 24.4293V18.3173C27.3061 17.5176 26.987 16.7514 26.4214 16.1862C25.8557 15.6209 25.0894 15.3024 24.2897 15.3003H8.68372C6.66355 15.3061 4.72757 16.1106 3.29834 17.5383C1.86911 18.9661 1.0626 20.9011 1.05469 22.9213V22.9213Z" stroke="#B8C0CC" stroke-width="2" stroke-linecap="round" stroke-linejoin="round"/>
</svg>
