<svg width="109" height="106" viewBox="0 0 109 106" fill="none" xmlns="http://www.w3.org/2000/svg">
<g clip-path="url(#clip0)">
<path d="M55 105.384C84.2711 105.384 108 81.8353 108 52.7868C108 23.7384 84.2711 0.189941 55 0.189941C25.7289 0.189941 2 23.7384 2 52.7868C2 81.8353 25.7289 105.384 55 105.384Z" fill="#F2F5FA"/>
<rect x="19.1129" y="34.551" width="76.9476" height="58.2779" rx="3.06" fill="white" stroke="#B8C0CC" stroke-width="1.88"/>
<path opacity="0.4" d="M62.53 58.772C63.2367 59.1799 63.2367 60.1999 62.53 60.6079L54.28 65.3711C53.5733 65.7791 52.69 65.2691 52.69 64.4531L52.69 54.9268C52.69 54.1108 53.5733 53.6008 54.28 54.0088L62.53 58.772Z" stroke="#11ABD5" stroke-width="1.88"/>
<path d="M19.5 74.6899H95.5V91.1899C95.5 92.0184 94.8284 92.6899 94 92.6899H21C20.1716 92.6899 19.5 92.0184 19.5 91.1899V74.6899Z" stroke="#EFEFEF"/>
<path d="M19.21 36.6482C19.21 35.5436 20.1054 34.6482 21.21 34.6482H93.9631C95.0677 34.6482 95.9631 35.5436 95.9631 36.6482V46.0574H19.21V36.6482Z" fill="#B8C0CC"/>
<rect x="19.1129" y="34.551" width="76.9476" height="58.2779" rx="3.06" stroke="#B8C0CC" stroke-width="1.88"/>
<path d="M70.7252 81.3424V85.9522H64.963V81.3424H70.7252ZM71.3015 80.1899H64.3868C64.0698 80.1899 63.8105 80.4492 63.8105 80.7662V86.5284C63.8105 86.8453 64.0698 87.1046 64.3868 87.1046H71.3015C71.6184 87.1046 71.8777 86.8453 71.8777 86.5284V84.5116L74.1826 86.8165V80.4781L71.8777 82.783V80.7662C71.8777 80.4492 71.6184 80.1899 71.3015 80.1899Z" fill="#11ABD5"/>
<path d="M43.5842 84.7755C44.1991 84.7755 44.6955 84.2634 44.6955 83.6291V81.3363C44.6955 80.702 44.1991 80.1899 43.5842 80.1899C42.9693 80.1899 42.4729 80.702 42.4729 81.3363V83.6291C42.4729 84.2634 42.9693 84.7755 43.5842 84.7755ZM43.2138 81.3363C43.2138 81.1262 43.3805 80.9542 43.5842 80.9542C43.788 80.9542 43.9547 81.1262 43.9547 81.3363V83.6291C43.9547 83.8393 43.788 84.0112 43.5842 84.0112C43.3805 84.0112 43.2138 83.8393 43.2138 83.6291V81.3363ZM45.4364 83.6291C45.4364 84.6838 44.6066 85.5397 43.5842 85.5397C42.5618 85.5397 41.7321 84.6838 41.7321 83.6291H40.9912C40.9912 84.978 41.958 86.0862 43.2138 86.2734V87.4504H43.9547V86.2734C45.2104 86.0862 46.1772 84.978 46.1772 83.6291H45.4364Z" fill="#11ABD5"/>
</g>
<defs>
<clipPath id="clip0">
<rect width="109" height="105" fill="white" transform="translate(0 0.489746)"/>
</clipPath>
</defs>
</svg>
