<svg width="67" height="73" viewBox="0 0 67 73" fill="none" xmlns="http://www.w3.org/2000/svg">
<mask id="path-1-inside-1" fill="white">
<path fill-rule="evenodd" clip-rule="evenodd" d="M51.384 14.2857L51.384 14.2996C55.3868 15.7115 58.2546 19.5215 58.2546 24C58.2546 29.6807 53.6406 34.2857 47.9488 34.2857C47.9488 34.2857 47.9488 34.2857 47.9487 34.2857L19.3215 34.2857C12.9973 34.2857 7.87057 29.169 7.87057 22.8571C7.87057 18.5645 10.2419 14.8246 13.7484 12.8711C13.6486 12.406 13.5961 11.9234 13.5961 11.4286C13.5961 7.64148 16.6721 4.57143 20.4666 4.57143C22.2691 4.57143 23.9094 5.26416 25.1349 6.39742C27.6982 2.54186 32.0869 0 37.0704 0C44.9756 0 51.384 6.39593 51.384 14.2857Z"/>
</mask>
<path d="M51.384 14.2996L49.384 14.2985C49.3836 15.1469 49.9185 15.9034 50.7187 16.1856L51.384 14.2996ZM51.384 14.2857L53.384 14.2868V14.2857H51.384ZM47.9487 34.2857V36.2857V34.2857ZM19.3215 34.2857L19.3215 32.2857H19.3215V34.2857ZM13.7484 12.8711L14.7217 14.6183C15.4897 14.1904 15.8883 13.3112 15.7039 12.4516L13.7484 12.8711ZM25.1349 6.39742L23.7771 7.86583C24.2073 8.26365 24.7903 8.4528 25.3722 8.3833C25.954 8.3138 26.476 7.99266 26.8005 7.5047L25.1349 6.39742ZM53.384 14.3007L53.384 14.2868L49.384 14.2846L49.384 14.2985L53.384 14.3007ZM60.2546 24C60.2546 18.6451 56.8249 14.098 52.0493 12.4135L50.7187 16.1856C53.9487 17.325 56.2546 20.3979 56.2546 24H60.2546ZM47.9488 36.2857C54.7415 36.2857 60.2546 30.7889 60.2546 24H56.2546C56.2546 28.5724 52.5397 32.2857 47.9488 32.2857V36.2857ZM47.9487 36.2857C47.9487 36.2857 47.9487 36.2857 47.9487 36.2857C47.9487 36.2857 47.9487 36.2857 47.9487 36.2857C47.9487 36.2857 47.9487 36.2857 47.9487 36.2857C47.9487 36.2857 47.9487 36.2857 47.9487 36.2857C47.9487 36.2857 47.9487 36.2857 47.9487 36.2857C47.9487 36.2857 47.9487 36.2857 47.9487 36.2857H47.9487H47.9488H47.9488H47.9488H47.9488C47.9488 36.2857 47.9488 36.2857 47.9488 36.2857C47.9488 36.2857 47.9488 36.2857 47.9488 36.2857C47.9488 36.2857 47.9488 36.2857 47.9488 36.2857C47.9488 36.2857 47.9488 36.2857 47.9488 36.2857C47.9488 36.2857 47.9488 36.2857 47.9488 36.2857C47.9488 36.2857 47.9488 36.2857 47.9488 36.2857C47.9488 36.2857 47.9488 36.2857 47.9488 36.2857C47.9488 36.2857 47.9488 36.2857 47.9488 36.2857C47.9488 36.2857 47.9488 36.2857 47.9488 36.2857C47.9488 36.2857 47.9488 36.2857 47.9488 36.2857H47.9488H47.9488H47.9488H47.9488H47.9488C47.9488 36.2857 47.9488 36.2857 47.9488 36.2857C47.9488 36.2857 47.9488 36.2857 47.9488 36.2857C47.9488 36.2857 47.9488 36.2857 47.9488 36.2857C47.9488 36.2857 47.9488 36.2857 47.9488 36.2857V32.2857C47.9488 32.2857 47.9488 32.2857 47.9488 32.2857C47.9488 32.2857 47.9488 32.2857 47.9488 32.2857C47.9488 32.2857 47.9488 32.2857 47.9488 32.2857C47.9488 32.2857 47.9488 32.2857 47.9488 32.2857H47.9488H47.9488H47.9488H47.9488H47.9488C47.9488 32.2857 47.9488 32.2857 47.9488 32.2857C47.9488 32.2857 47.9488 32.2857 47.9488 32.2857C47.9488 32.2857 47.9488 32.2857 47.9488 32.2857C47.9488 32.2857 47.9488 32.2857 47.9488 32.2857C47.9488 32.2857 47.9488 32.2857 47.9488 32.2857C47.9488 32.2857 47.9488 32.2857 47.9488 32.2857C47.9488 32.2857 47.9488 32.2857 47.9488 32.2857C47.9488 32.2857 47.9488 32.2857 47.9488 32.2857C47.9488 32.2857 47.9488 32.2857 47.9488 32.2857C47.9488 32.2857 47.9488 32.2857 47.9488 32.2857H47.9488H47.9488H47.9488H47.9487H47.9487C47.9487 32.2857 47.9487 32.2857 47.9487 32.2857C47.9487 32.2857 47.9487 32.2857 47.9487 32.2857C47.9487 32.2857 47.9487 32.2857 47.9487 32.2857C47.9487 32.2857 47.9487 32.2857 47.9487 32.2857C47.9487 32.2857 47.9487 32.2857 47.9487 32.2857C47.9487 32.2857 47.9487 32.2857 47.9487 32.2857V36.2857ZM47.9487 32.2857L19.3215 32.2857L19.3215 36.2857L47.9487 36.2857L47.9487 32.2857ZM5.87057 22.8571C5.87057 30.2772 11.8964 36.2857 19.3215 36.2857V32.2857C14.0982 32.2857 9.87057 28.0607 9.87057 22.8571H5.87057ZM12.775 11.1239C8.66167 13.4155 5.87057 17.8087 5.87057 22.8571H9.87057C9.87057 19.3203 11.822 16.2337 14.7217 14.6183L12.775 11.1239ZM11.5961 11.4286C11.5961 12.0653 11.6637 12.6885 11.7929 13.2906L15.7039 12.4516C15.6335 12.1235 15.5961 11.7815 15.5961 11.4286H11.5961ZM20.4666 2.57143C15.5713 2.57143 11.5961 6.53323 11.5961 11.4286H15.5961C15.5961 8.74973 17.773 6.57143 20.4666 6.57143V2.57143ZM26.4928 4.929C24.9119 3.46714 22.7915 2.57143 20.4666 2.57143V6.57143C21.7466 6.57143 22.9069 7.06118 23.7771 7.86583L26.4928 4.929ZM37.0704 -2C31.3904 -2 26.3883 0.899752 23.4694 5.29014L26.8005 7.5047C29.0082 4.18396 32.7834 2 37.0704 2V-2ZM53.384 14.2857C53.384 5.28769 46.0765 -2 37.0704 -2V2C43.8747 2 49.384 7.50418 49.384 14.2857H53.384Z" fill="#B8C0CC" mask="url(#path-1-inside-1)"/>
<rect x="0.999939" y="29.7144" width="64.125" height="36.5714" rx="3" fill="white" stroke="#FE7C5F" stroke-width="2"/>
<path d="M26.934 66.368L26.1919 71.9999H39.8919L39.1936 66.2856" stroke="#FE7C5F" stroke-width="2" stroke-miterlimit="10" stroke-linecap="round" stroke-linejoin="round"/>
<path d="M29.6272 19.4287V38.2859L25.6194 34.2859" stroke="#FE7C5F" stroke-width="2" stroke-linecap="round" stroke-linejoin="round"/>
<path d="M36.4978 38.2856L36.4978 19.4285L40.5056 23.4285" stroke="#FE7C5F" stroke-width="2" stroke-linecap="round" stroke-linejoin="round"/>
<path d="M0.999939 60.5713L65.1249 60.5713" stroke="#FE7C5F" stroke-width="2"/>
</svg>
