<svg width="106" height="106" viewBox="0 0 106 106" fill="none" xmlns="http://www.w3.org/2000/svg">
<path d="M52.861 105.72C82.0547 105.72 105.721 82.0538 105.721 52.86C105.721 23.6662 82.0547 0 52.861 0C23.6672 0 0.000976562 23.6662 0.000976562 52.86C0.000976562 82.0538 23.6672 105.72 52.861 105.72Z" fill="#F0F4F7"/>
<path d="M34.2079 42.5382C37.816 42.5382 40.7409 39.6132 40.7409 36.0052C40.7409 32.3971 37.816 29.4722 34.2079 29.4722C30.5999 29.4722 27.6749 32.3971 27.6749 36.0052C27.6749 39.6132 30.5999 42.5382 34.2079 42.5382Z" fill="#FCFDFF" stroke="#FE7C5F" stroke-width="2"/>
<path d="M42.1169 56.5439C42.4067 56.5466 42.6934 56.484 42.9558 56.361C43.2182 56.2379 43.4496 56.0576 43.6329 55.8331C43.8163 55.6087 43.9469 55.346 44.0151 55.0643C44.0833 54.7827 44.0873 54.4894 44.027 54.2059C43.5003 51.9981 42.2449 50.0321 40.4634 48.6256C38.6819 47.2191 36.4783 46.4541 34.2085 46.4541C31.9387 46.4541 29.7351 47.2191 27.9536 48.6256C26.1721 50.0321 24.9167 51.9981 24.39 54.2059C24.3296 54.4894 24.3337 54.7827 24.4019 55.0643C24.47 55.346 24.6007 55.6087 24.7841 55.8331C24.9674 56.0576 25.1988 56.2379 25.4612 56.361C25.7236 56.484 26.0101 56.5466 26.2999 56.5439H42.1169Z" fill="#FCFDFF" stroke="#FE7C5F" stroke-width="2"/>
<path d="M29.1769 71.0078H40.6629C41.1706 71.0078 41.6574 71.2095 42.0163 71.5684C42.3753 71.9274 42.5769 72.4142 42.5769 72.9218V86.3218H27.2629V72.9218C27.2629 72.4142 27.4646 71.9274 27.8235 71.5684C28.1825 71.2095 28.6693 71.0078 29.1769 71.0078V71.0078Z" fill="white" stroke="#B8C0CC" stroke-width="2" stroke-miterlimit="10" stroke-linecap="round"/>
<path d="M57.277 53.8359H67.015C67.7544 53.8359 68.4636 54.1297 68.9864 54.6525C69.5093 55.1754 69.803 55.8845 69.803 56.6239V86.3239H54.489V56.6239C54.489 55.8845 54.7827 55.1754 55.3056 54.6525C55.8285 54.1297 56.5376 53.8359 57.277 53.8359V53.8359Z" fill="white" stroke="#B8C0CC" stroke-width="2" stroke-miterlimit="10" stroke-linecap="round"/>
<path d="M85.148 37.0332H93.594C94.5047 37.0332 95.3782 37.395 96.0222 38.039C96.6662 38.683 97.028 39.5564 97.028 40.4672V86.3232H81.714V40.4672C81.714 39.5564 82.0758 38.683 82.7198 38.039C83.3638 37.395 84.2372 37.0332 85.148 37.0332V37.0332Z" fill="white" stroke="#B8C0CC" stroke-width="2" stroke-miterlimit="10" stroke-linecap="round"/>
<path d="M18.806 86.3232H104.719" stroke="#B8C0CC" stroke-width="2" stroke-miterlimit="10" stroke-linecap="round"/>
</svg>
