<svg width="69" height="62" viewBox="0 0 69 62" fill="none" xmlns="http://www.w3.org/2000/svg">
<path d="M61.6067 30.2438C65.2267 30.2438 68.1613 27.3092 68.1613 23.6891C68.1613 20.0691 65.2267 17.1345 61.6067 17.1345C57.9867 17.1345 55.052 20.0691 55.052 23.6891C55.052 27.3092 57.9867 30.2438 61.6067 30.2438Z" fill="#30A3C7"/>
<path d="M29.5394 23.79C29.5394 23.79 36.7999 29.3362 34.3798 36.4959C34.3798 36.4959 49.3042 33.6724 55.7579 38.1093C55.7579 38.1093 55.7579 26.9161 46.7831 19.2522C46.7831 19.2522 37.9092 22.6808 29.5394 23.79Z" stroke="#B8C0CC" stroke-width="1.5" stroke-miterlimit="10" stroke-linejoin="round"/>
<path d="M46.9445 35.6084C49.4151 37.5143 49.5462 40.6302 48.7495 43.7664" stroke="#B8C0CC" stroke-width="1.5" stroke-miterlimit="10" stroke-linejoin="round"/>
<path d="M55.5563 37.4133C55.758 37.5243 56.4134 42.0822 54.0739 46.499" stroke="#B8C0CC" stroke-width="1.5" stroke-miterlimit="10" stroke-linejoin="round"/>
<path d="M37.2335 22.3882L36.2957 19.4941C33.7344 11.7495 24.2856 9.60164 24.2856 9.60164C37.5461 6.28399 47.3277 19.6958 47.3277 19.6958" stroke="#B8C0CC" stroke-width="1.5" stroke-miterlimit="10" stroke-linejoin="round"/>
<path d="M32.8773 27.6319C32.8773 27.6319 16.1277 25.7058 23.3882 51.7226L27.1193 61C27.1193 61 24.4974 39.2184 34.3798 36.4958" stroke="#B8C0CC" stroke-width="1.5" stroke-miterlimit="10" stroke-linejoin="round"/>
<path d="M29.5394 23.7899C29.5394 23.7899 4.14785 17.8403 4.50079 1C4.50079 1 -10.5849 18.879 21.8756 32.3815L23.0352 32.8857" stroke="#B8C0CC" stroke-width="1.5" stroke-miterlimit="10" stroke-linejoin="round"/>
<path d="M54.0739 46.4992C53.5028 47.5744 52.7559 48.6417 51.781 49.6343C49.8763 51.5732 46.9667 51.2232 45.3146 49.0651C43.5113 46.7097 41.4817 43.2567 40.9344 39.4202C40.9344 39.4202 43.405 40.6807 48.7495 43.7563C50.4436 44.7345 52.2487 45.6824 54.0739 46.4992Z" stroke="#B8C0CC" stroke-width="1.5" stroke-miterlimit="10" stroke-linejoin="round"/>
</svg>
