<svg width="108" height="105" viewBox="0 0 108 105" fill="none" xmlns="http://www.w3.org/2000/svg">
<circle cx="52.5" cy="52.5" r="52.5" fill="#F0F4F7"/>
<rect x="1" y="-1" width="72.9412" height="67.1892" rx="5" transform="matrix(1 0 0 -1 26.6353 96.6755)" fill="white" stroke="#B8C0CC" stroke-width="2"/>
<rect x="1" y="-1" width="72.9412" height="15.2973" rx="5" transform="matrix(1 0 0 -1 26.6353 44.7839)" stroke="#B8C0CC" stroke-width="2"/>
<rect x="36.2002" y="24" width="3.35294" height="10.973" rx="1.67647" fill="white" stroke="#B8C0CC" stroke-width="2"/>
<rect x="88.6587" y="24" width="3.35294" height="10.973" rx="1.67647" fill="white" stroke="#B8C0CC" stroke-width="2"/>
<path d="M37.4118 50.0269C37.4118 55.4545 33.0571 59.8377 27.7059 59.8377C22.3546 59.8377 18 55.4545 18 50.0269C18 44.5993 22.3546 40.2161 27.7059 40.2161C33.0571 40.2161 37.4118 44.5993 37.4118 50.0269Z" fill="white" stroke="#B8C0CC" stroke-width="2"/>
<ellipse cx="94.0822" cy="88.9459" rx="13.9176" ry="14.0541" fill="white"/>
<path d="M100.634 89.7893C100.667 89.519 100.689 89.2379 100.689 88.946C100.689 88.6541 100.667 88.373 100.623 88.1028L102.484 86.6757C102.65 86.546 102.694 86.3082 102.595 86.1244L100.833 83.1298C100.723 82.9352 100.491 82.8703 100.293 82.9352L98.1017 83.8001C97.6392 83.4541 97.1546 83.173 96.6151 82.9568L96.2847 80.6649C96.2517 80.4487 96.0644 80.2974 95.8442 80.2974H92.3204C92.1001 80.2974 91.9239 80.4487 91.8909 80.6649L91.5605 82.9568C91.0209 83.173 90.5254 83.4649 90.0739 83.8001L87.8825 82.9352C87.6843 82.8595 87.453 82.9352 87.3429 83.1298L85.581 86.1244C85.4709 86.319 85.5149 86.546 85.6911 86.6757L87.5522 88.1028C87.5081 88.373 87.4751 88.6649 87.4751 88.946C87.4751 89.2271 87.4971 89.519 87.5411 89.7893L85.6801 91.2163C85.5149 91.346 85.4709 91.5838 85.57 91.7676L87.3319 94.7622C87.442 94.9568 87.6733 95.0217 87.8715 94.9568L90.0629 94.092C90.5254 94.4379 91.0099 94.719 91.5495 94.9352L91.8799 97.2271C91.9239 97.4433 92.1001 97.5947 92.3204 97.5947H95.8442C96.0644 97.5947 96.2517 97.4433 96.2737 97.2271L96.604 94.9352C97.1436 94.719 97.6392 94.4271 98.0907 94.092L100.282 94.9568C100.48 95.0325 100.712 94.9568 100.822 94.7622L102.584 91.7676C102.694 91.573 102.65 91.346 102.473 91.2163L100.634 89.7893ZM94.0823 91.2608C92.8296 91.2608 91.8618 90.2273 91.8618 88.946C91.8618 87.6647 92.8134 86.6757 94.0823 86.6757C95.3511 86.6757 96.3028 87.5922 96.3028 88.946C96.3028 90.2999 95.3349 91.2608 94.0823 91.2608Z" fill="white" stroke="#B8C0CC" stroke-width="2" stroke-linecap="round"/>
<path d="M26.8305 52.5833C26.4344 53.0121 25.7568 53.012 25.3609 52.5829L23.8136 50.906C23.5386 50.608 23.068 50.6071 22.7919 50.9042C22.5443 51.1707 22.5435 51.5829 22.7902 51.8503L25.3606 54.6359C25.7566 55.065 26.4345 55.065 26.8305 54.6359L33.6953 47.1963C33.9405 46.9305 33.9405 46.5209 33.6953 46.2551C33.4206 45.9574 32.9503 45.9573 32.6755 46.2548L26.8305 52.5833Z" fill="#00BEE7" stroke="#00BEE7" stroke-width="0.8"/>
<path d="M64.1058 56.5353L67.0168 65.5823C67.2828 66.4091 68.0521 66.9697 68.9206 66.9697H78.3615L70.707 72.5855C70.0128 73.0948 69.7225 73.9911 69.9862 74.8106L72.9059 83.8849L65.2888 78.2965C64.5847 77.7799 63.6268 77.7799 62.9227 78.2965L55.3056 83.8849L58.2254 74.8106C58.4891 73.9911 58.1987 73.0948 57.5046 72.5855L49.8501 66.9697L59.2909 66.9697C60.1594 66.9697 60.9287 66.4091 61.1948 65.5823L64.1058 56.5353Z" fill="white" stroke="#00BEE7" stroke-width="2"/>
</svg>
