<svg width="114" height="106" viewBox="0 0 114 106" fill="none" xmlns="http://www.w3.org/2000/svg">
<path d="M105 52.5C105 42.1165 101.921 31.9662 96.1522 23.3326C90.3834 14.699 82.184 7.96992 72.5909 3.99631C62.9978 0.0227133 52.4418 -1.01692 42.2578 1.00881C32.0738 3.03453 22.7192 8.03461 15.3769 15.3769C8.03466 22.7191 3.03452 32.0737 1.00879 42.2578C-1.01693 52.4418 0.0227583 62.9977 3.99636 72.5909C7.96996 82.184 14.699 90.3834 23.3326 96.1522C31.9662 101.921 42.1165 105 52.5 105" fill="#F0F4F7"/>
<path d="M72.7635 104.976H28.0961C26.6982 104.972 25.3587 104.415 24.3703 103.426C23.3818 102.438 22.8248 101.098 22.8208 99.7V39.6645C22.8248 38.2665 23.3818 36.9269 24.3703 35.9383C25.3587 34.9497 26.6982 34.3924 28.0961 34.3882H98.1306C99.5287 34.3922 100.868 34.9495 101.857 35.9381C102.846 36.9267 103.403 38.2664 103.407 39.6645V70.2767" fill="white"/>
<path d="M72.7635 104.976H28.0961C26.6982 104.972 25.3587 104.415 24.3703 103.426C23.3818 102.438 22.8248 101.098 22.8208 99.7V39.6645C22.8248 38.2665 23.3818 36.9269 24.3703 35.9383C25.3587 34.9497 26.6982 34.3924 28.0961 34.3882H98.1306C99.5287 34.3922 100.868 34.9495 101.857 35.9381C102.846 36.9267 103.403 38.2664 103.407 39.6645V70.2767" stroke="#B8C0CC" stroke-width="1.88" stroke-miterlimit="10" stroke-linecap="round"/>
<circle cx="83" cy="84" r="3" fill="white" stroke="#00BEE7" stroke-width="2"/>
<circle cx="105" cy="84" r="3" fill="white" stroke="#00BEE7" stroke-width="2"/>
<path d="M112.864 98.1546C112.922 98.5412 112.6 99 112 99H98C97.3997 99 97.0785 98.5411 97.1364 98.1546C97.8548 93.3586 101.229 90 105 90C108.771 90 112.145 93.3586 112.864 98.1546Z" fill="white" stroke="#00BEE7" stroke-width="2"/>
<circle cx="94" cy="81" r="4" fill="white" stroke="#00BEE7" stroke-width="2"/>
<path d="M90.8636 98.1546C90.9215 98.5412 90.6003 99 90 99H76C75.3997 99 75.0785 98.5411 75.1364 98.1546C75.8548 93.3586 79.2294 90 83 90C86.7706 90 90.1452 93.3586 90.8636 98.1546Z" fill="white" stroke="#00BEE7" stroke-width="2"/>
<path d="M103.88 98.1345C103.933 98.5433 103.593 99 103 99H85C84.4067 99 84.067 98.5433 84.1203 98.1345C84.8857 92.2606 89.13 88 94 88C98.87 88 103.114 92.2606 103.88 98.1345Z" fill="white" stroke="#00BEE7" stroke-width="2"/>
<path d="M42.9678 27.7822V41.2854" stroke="#B8C0CC" stroke-width="1.88" stroke-miterlimit="10" stroke-linecap="round"/>
<path d="M83.2617 27.7822V41.2854" stroke="#B8C0CC" stroke-width="1.88" stroke-miterlimit="10" stroke-linecap="round"/>
<path d="M103.41 49.5454H22.8218" stroke="#B8C0CC" stroke-width="1.88" stroke-miterlimit="10" stroke-linecap="round"/>
<path d="M45.3683 67.3053C45.3683 64.8132 43.3481 62.793 40.856 62.793C38.364 62.793 36.3438 64.8132 36.3438 67.3053C36.3438 69.7973 38.364 71.8176 40.856 71.8176C43.3481 71.8176 45.3683 69.7973 45.3683 67.3053Z" stroke="#B8C0CC" stroke-width="1.88" stroke-miterlimit="10" stroke-linecap="round"/>
<path d="M67.6266 67.3053C67.6266 64.8132 65.6064 62.793 63.1143 62.793C60.6223 62.793 58.6021 64.8132 58.6021 67.3053C58.6021 69.7973 60.6223 71.8176 63.1143 71.8176C65.6064 71.8176 67.6266 69.7973 67.6266 67.3053Z" stroke="#B8C0CC" stroke-width="1.88" stroke-miterlimit="10" stroke-linecap="round"/>
<path d="M89.3962 67.3053C89.3962 64.8132 87.376 62.793 84.8839 62.793C82.3918 62.793 80.3716 64.8132 80.3716 67.3053C80.3716 69.7973 82.3918 71.8176 84.8839 71.8176C87.376 71.8176 89.3962 69.7973 89.3962 67.3053Z" stroke="#B8C0CC" stroke-width="1.88" stroke-miterlimit="10" stroke-linecap="round"/>
<path d="M45.3683 85.9845C45.3683 83.4924 43.3481 81.4722 40.856 81.4722C38.364 81.4722 36.3438 83.4924 36.3438 85.9845C36.3438 88.4765 38.364 90.4968 40.856 90.4968C43.3481 90.4968 45.3683 88.4765 45.3683 85.9845Z" stroke="#B8C0CC" stroke-width="1.88" stroke-miterlimit="10" stroke-linecap="round"/>
<path d="M67.6286 85.9845C67.6286 83.4924 65.6084 81.4722 63.1163 81.4722C60.6242 81.4722 58.604 83.4924 58.604 85.9845C58.604 88.4765 60.6242 90.4968 63.1163 90.4968C65.6084 90.4968 67.6286 88.4765 67.6286 85.9845Z" stroke="#B8C0CC" stroke-width="1.88" stroke-miterlimit="10" stroke-linecap="round"/>
</svg>
