<svg width="316" height="189" viewBox="0 0 316 189" fill="none" xmlns="http://www.w3.org/2000/svg">
<rect x="83" y="16.4286" width="203.714" height="154.857" rx="9" fill="white" stroke="#B8C0CC" stroke-width="2"/>
<rect x="83" y="16.4286" width="203.714" height="34" rx="9" fill="white" stroke="#B8C0CC" stroke-width="2"/>
<rect x="103.572" y="73" width="23.7143" height="16" rx="8" stroke="#00BEE7" stroke-width="2"/>
<rect x="103.572" y="103.857" width="23.7143" height="16" rx="8" fill="white" stroke="#B8C0CC" stroke-width="2"/>
<rect x="103.572" y="134.714" width="23.7143" height="16" rx="8" stroke="#00BEE7" stroke-width="2"/>
<rect x="149.857" y="73" width="23.7143" height="16" rx="8" fill="white" stroke="#00BEE7" stroke-width="2"/>
<rect x="149.857" y="103.857" width="23.7143" height="16" rx="8" fill="#00BEE7" stroke="#00BEE7" stroke-width="2"/>
<rect x="149.857" y="134.714" width="23.7143" height="16" rx="8" fill="white" stroke="#B8C0CC" stroke-width="2"/>
<rect x="196.143" y="73" width="23.7143" height="16" rx="8" fill="white" stroke="#B8C0CC" stroke-width="2"/>
<rect x="196.143" y="103.857" width="23.7143" height="16" rx="8" stroke="#00BEE7" stroke-width="2"/>
<rect x="196.143" y="134.714" width="23.7143" height="16" rx="8" fill="white" stroke="#00BEE7" stroke-width="2"/>
<rect x="242.429" y="73" width="23.7143" height="16" rx="8" fill="white" stroke="#00BEE7" stroke-width="2"/>
<rect x="242.429" y="103.857" width="23.7143" height="16" rx="8" fill="white" stroke="#B8C0CC" stroke-width="2"/>
<rect x="234.714" y="1" width="8.28571" height="31.4286" rx="4.14286" fill="white" stroke="#B8C0CC" stroke-width="2"/>
<rect x="242.429" y="134.714" width="23.7143" height="16" rx="8" fill="white" stroke="#B8C0CC" stroke-width="2"/>
<rect x="126.714" y="1" width="8.28571" height="31.4286" rx="4.14286" fill="white" stroke="#B8C0CC" stroke-width="2"/>
<path d="M15.1426 145.474V132.907C15.1426 120.559 25.1306 110.571 37.4783 110.571H37.8076C50.1553 110.571 60.1426 120.559 60.1426 132.907V133.236C60.1426 145.584 50.1553 155.571 37.8076 155.571H21.4536C15.8556 155.571 15.1426 155.571 15.1426 145.474Z" fill="white"/>
<path d="M15.5771 133.045V152.283C15.5771 154.037 16.9885 155.462 18.7256 155.462H22.9051C21.1687 155.462 19.7574 154.037 19.7574 152.283V132.99C19.7574 117.424 32.1329 110.682 41.1441 110.901C40.004 110.737 38.8101 110.628 37.67 110.628C25.5111 110.737 15.6317 120.713 15.5771 133.045Z" fill="#EAEFF4"/>
<path d="M15.1426 151.291V132.907C15.1426 120.559 25.1304 110.571 37.4779 110.571H37.8072C50.1547 110.571 60.1426 120.559 60.1426 132.907V133.236C60.1426 145.584 50.1547 155.571 37.8072 155.571H19.4231C17.0634 155.516 15.1426 153.65 15.1426 151.291Z" stroke="#B8C0CC" stroke-width="2" stroke-miterlimit="10"/>
<path d="M45.8276 126.411C45.8276 125.315 46.7504 124.383 47.8359 124.383C48.9215 124.383 49.8442 125.315 49.8442 126.411C49.8442 127.508 48.9215 128.439 47.8359 128.439C46.7504 128.439 45.8276 127.563 45.8276 126.411Z" fill="#B8C0CC"/>
<path d="M48.5713 165.443V148.926C48.5713 132.698 61.6984 119.571 77.9268 119.571H78.3596C94.5881 119.571 107.714 132.698 107.714 148.926V149.359C107.714 165.587 94.5881 178.714 78.3596 178.714H56.8657C49.5085 178.714 48.5713 178.714 48.5713 165.443Z" fill="white"/>
<path d="M49.1421 149.108V174.392C49.1421 176.697 50.997 178.57 53.28 178.57H58.7731C56.491 178.57 54.6361 176.697 54.6361 174.392V149.035C54.6361 128.577 70.9011 119.717 82.7444 120.005C81.246 119.789 79.6768 119.645 78.1784 119.645C62.1981 119.789 49.2138 132.9 49.1421 149.108Z" fill="#EAEFF4"/>
<path d="M48.5713 173.088V148.926C48.5713 132.698 61.6981 119.571 77.9263 119.571H78.3591C94.5873 119.571 107.714 132.698 107.714 148.926V149.359C107.714 165.587 94.5873 178.714 78.3591 178.714H54.1971C51.0958 178.642 48.5713 176.189 48.5713 173.088Z" stroke="#B8C0CC" stroke-width="2" stroke-miterlimit="10"/>
<path d="M88.8999 140.389C88.8999 138.949 90.1126 137.723 91.5394 137.723C92.9662 137.723 94.1789 138.949 94.1789 140.389C94.1789 141.83 92.9662 143.055 91.5394 143.055C90.1126 143.055 88.8999 141.903 88.8999 140.389Z" fill="#B8C0CC"/>
<path d="M79.3452 167.134C79.8477 167.134 80.3468 166.982 80.7803 166.695C81.2138 166.407 81.5618 165.999 81.7804 165.521C81.9982 165.044 82.0781 164.519 82.0075 164.011C81.9377 163.504 81.7216 163.039 81.386 162.673C81.0513 162.308 80.6126 162.059 80.1257 161.958C79.6387 161.857 79.1251 161.909 78.6501 162.107C78.175 162.305 77.7598 162.64 77.4572 163.069C77.1545 163.499 76.9781 164.004 76.9497 164.521C76.9116 165.214 77.1432 165.879 77.5924 166.37C78.0415 166.859 78.6721 167.134 79.3452 167.134Z" fill="#B8C0CC"/>
<path d="M78.7109 163.217C78.7109 163.217 73.6323 157.468 76.1972 150.589" stroke="#B8C0CC" stroke-width="2" stroke-linecap="round" stroke-linejoin="round"/>
<path d="M1 175.597V160.517C1 145.7 12.9856 133.714 27.8029 133.714H28.1981C43.0153 133.714 55 145.7 55 160.517V160.912C55 175.729 43.0153 187.714 28.1981 187.714H8.57318C1.85568 187.714 1 187.714 1 175.597Z" fill="white"/>
<path d="M1.52148 160.682V183.768C1.52148 185.873 3.21509 187.583 5.2996 187.583H10.315C8.23137 187.583 6.53775 185.873 6.53775 183.768V160.616C6.53775 141.937 21.3884 133.847 32.2019 134.11C30.8337 133.913 29.401 133.782 28.0329 133.782C13.4422 133.913 1.58693 145.884 1.52148 160.682Z" fill="#EAEFF4"/>
<path d="M1 182.577V160.517C1 145.7 12.9854 133.714 27.8024 133.714H28.1976C43.0146 133.714 55 145.7 55 160.517V160.912C55 175.729 43.0146 187.714 28.1976 187.714H6.1366C3.30499 187.648 1 185.409 1 182.577Z" stroke="#B8C0CC" stroke-width="2" stroke-miterlimit="10"/>
<path d="M37.8218 152.722C37.8218 151.407 38.929 150.288 40.2317 150.288C41.5344 150.288 42.6417 151.407 42.6417 152.722C42.6417 154.038 41.5344 155.156 40.2317 155.156C38.929 155.156 37.8218 154.104 37.8218 152.722Z" fill="#B8C0CC"/>
<path d="M284.147 181.286H306.954C311.95 181.286 316 177.236 316 172.238V149.429C316 132.938 302.635 119.571 286.146 119.571H284.14C267.65 119.571 254.286 132.938 254.286 149.429V151.435C254.293 167.919 267.658 181.286 284.147 181.286Z" fill="white"/>
<path opacity="0.4" d="M307.221 150.429V171.932C307.221 177.094 303.085 181.286 297.977 181.286H306.756C311.865 181.286 316 177.094 316 171.932V150.429C316 133.385 302.348 119.571 285.504 119.571C284.015 119.571 282.548 119.676 281.118 119.892C295.876 122.04 307.221 134.892 307.221 150.429Z" fill="#00BEE7" fill-opacity="0.4"/>
<path d="M284.136 121.063C268.495 121.063 255.77 133.788 255.77 149.429V151.435C255.77 167.077 268.495 179.801 284.136 179.801H306.945C311.114 179.801 314.501 176.415 314.501 172.246V149.437C314.501 133.795 301.776 121.071 286.135 121.071H284.136V121.063ZM284.136 119.571H286.142C302.634 119.571 316 132.938 316 149.429V172.238C316 177.236 311.95 181.286 306.952 181.286H284.143C267.652 181.286 254.286 167.919 254.286 151.428V149.422C254.278 132.938 267.644 119.571 284.136 119.571Z" fill="#00BEE7"/>
<path d="M268.373 143.05C268.373 141.568 267.171 140.366 265.69 140.366C264.208 140.366 263.006 141.568 263.006 143.05" stroke="#D7DEE2" stroke-width="2" stroke-linecap="round"/>
<path d="M282.46 143.05C282.46 141.568 281.258 140.366 279.776 140.366C278.295 140.366 277.093 141.568 277.093 143.05" stroke="#D7DEE2" stroke-width="2" stroke-linecap="round"/>
<path d="M275.081 155.124C274.469 155.939 273.495 156.466 272.397 156.466C271.3 156.466 270.326 155.939 269.714 155.124" stroke="#D7DEE2" stroke-width="2" stroke-linecap="round"/>
<path d="M293.193 151.099C294.304 158.625 290.206 168.991 279.357 169.714" stroke="#D7DEE2" stroke-width="2" stroke-linecap="round"/>
<circle cx="279.148" cy="169.505" r="2.68323" fill="#D7DEE2"/>
</svg>
