<svg width="105" height="105" viewBox="0 0 105 105" fill="none" xmlns="http://www.w3.org/2000/svg">
<circle cx="52.5" cy="52.5" r="52.5" fill="#F0F4F7"/>
<mask id="path-2-inside-1" fill="white">
<path fill-rule="evenodd" clip-rule="evenodd" d="M61.0019 26C54.9157 26 50.2409 31.3911 51.1026 37.4159L55.2506 66.4159C55.9551 71.3416 60.174 75 65.1498 75H82.8499C87.8258 75 92.0446 71.3416 92.7492 66.4159L96.8971 37.4159C97.7589 31.391 93.0841 26 86.9979 26H61.0019ZM64.0954 36C61.6609 36 59.791 38.1564 60.1357 40.5664L63.1394 61.5664C63.4212 63.5367 65.1087 65 67.0991 65H80.9017C82.892 65 84.5795 63.5367 84.8614 61.5664L87.865 40.5664C88.2097 38.1564 86.3398 36 83.9053 36H64.0954Z"/>
</mask>
<path fill-rule="evenodd" clip-rule="evenodd" d="M61.0019 26C54.9157 26 50.2409 31.3911 51.1026 37.4159L55.2506 66.4159C55.9551 71.3416 60.174 75 65.1498 75H82.8499C87.8258 75 92.0446 71.3416 92.7492 66.4159L96.8971 37.4159C97.7589 31.391 93.0841 26 86.9979 26H61.0019ZM64.0954 36C61.6609 36 59.791 38.1564 60.1357 40.5664L63.1394 61.5664C63.4212 63.5367 65.1087 65 67.0991 65H80.9017C82.892 65 84.5795 63.5367 84.8614 61.5664L87.865 40.5664C88.2097 38.1564 86.3398 36 83.9053 36H64.0954Z" fill="white"/>
<path d="M51.1026 37.4159L53.0825 37.1327L51.1026 37.4159ZM55.2506 66.4159L53.2707 66.6991L55.2506 66.4159ZM92.7492 66.4159L94.729 66.6991L92.7492 66.4159ZM96.8971 37.4159L98.877 37.6991L96.8971 37.4159ZM60.1357 40.5664L58.1558 40.8495L60.1357 40.5664ZM63.1394 61.5664L65.1192 61.2832L63.1394 61.5664ZM84.8614 61.5664L82.8815 61.2832L84.8614 61.5664ZM87.865 40.5664L85.8852 40.2832V40.2832L87.865 40.5664ZM53.0825 37.1327C52.3931 32.3128 56.1329 28 61.0019 28V24C53.6985 24 48.0887 30.4693 49.1228 37.6991L53.0825 37.1327ZM57.2304 66.1327L53.0825 37.1327L49.1228 37.6991L53.2707 66.6991L57.2304 66.1327ZM65.1498 73C61.1692 73 57.7941 70.0733 57.2304 66.1327L53.2707 66.6991C54.1162 72.61 59.1788 77 65.1498 77V73ZM82.8499 73H65.1498V77H82.8499V73ZM90.7693 66.1327C90.2057 70.0733 86.8306 73 82.8499 73V77C88.821 77 93.8836 72.61 94.729 66.6991L90.7693 66.1327ZM94.9173 37.1327L90.7693 66.1327L94.729 66.6991L98.877 37.6991L94.9173 37.1327ZM86.9979 28C91.8668 28 95.6067 32.3128 94.9173 37.1327L98.877 37.6991C99.9111 30.4693 94.3013 24 86.9979 24V28ZM61.0019 28H86.9979V24H61.0019V28ZM62.1155 40.2832C61.9432 39.0782 62.8782 38 64.0954 38V34C60.4437 34 57.6388 37.2346 58.1558 40.8495L62.1155 40.2832ZM65.1192 61.2832L62.1155 40.2832L58.1558 40.8495L61.1595 61.8496L65.1192 61.2832ZM67.0991 63C66.1039 63 65.2601 62.2683 65.1192 61.2832L61.1595 61.8496C61.5823 64.805 64.1136 67 67.0991 67V63ZM80.9017 63H67.0991V67H80.9017V63ZM82.8815 61.2832C82.7406 62.2683 81.8968 63 80.9017 63V67C83.8872 67 86.4185 64.805 86.8412 61.8496L82.8815 61.2832ZM85.8852 40.2832L82.8815 61.2832L86.8412 61.8496L89.8449 40.8495L85.8852 40.2832ZM83.9053 38C85.1226 38 86.0575 39.0782 85.8852 40.2832L89.8449 40.8496C90.3619 37.2346 87.5571 34 83.9053 34V38ZM64.0954 38H83.9053V34H64.0954V38Z" fill="#00BEE7" mask="url(#path-2-inside-1)"/>
<mask id="path-4-inside-2" fill="white">
<path fill-rule="evenodd" clip-rule="evenodd" d="M84.6935 95C88.0076 95 91.3463 94.0708 93.643 91.6815C98.2041 86.9362 101 80.5386 101 73.5C101 58.8645 88.9117 47 74 47C59.0883 47 47 58.8645 47 73.5C47 80.5386 49.7959 86.9362 54.357 91.6815C56.6537 94.0708 59.9924 95 63.3065 95H84.6935Z"/>
</mask>
<path fill-rule="evenodd" clip-rule="evenodd" d="M84.6935 95C88.0076 95 91.3463 94.0708 93.643 91.6815C98.2041 86.9362 101 80.5386 101 73.5C101 58.8645 88.9117 47 74 47C59.0883 47 47 58.8645 47 73.5C47 80.5386 49.7959 86.9362 54.357 91.6815C56.6537 94.0708 59.9924 95 63.3065 95H84.6935Z" fill="white"/>
<path d="M54.357 91.6815L52.9151 93.0675L54.357 91.6815ZM99 73.5C99 79.9965 96.4221 85.9041 92.201 90.2955L95.0849 93.0675C99.9862 87.9683 103 81.0806 103 73.5H99ZM74 49C87.8425 49 99 60.0041 99 73.5H103C103 57.7248 89.9809 45 74 45V49ZM49 73.5C49 60.0041 60.1575 49 74 49V45C58.0192 45 45 57.7248 45 73.5H49ZM55.799 90.2955C51.5779 85.9041 49 79.9965 49 73.5H45C45 81.0806 48.0138 87.9683 52.9151 93.0675L55.799 90.2955ZM63.3065 97H84.6935V93H63.3065V97ZM52.9151 93.0675C55.7174 95.9829 59.6669 97 63.3065 97V93C60.3179 93 57.59 92.1588 55.799 90.2955L52.9151 93.0675ZM92.201 90.2955C90.41 92.1588 87.6821 93 84.6935 93V97C88.3331 97 92.2826 95.9829 95.0849 93.0675L92.201 90.2955Z" fill="#B8C0CC" mask="url(#path-4-inside-2)"/>
<mask id="path-6-inside-3" fill="white">
<path fill-rule="evenodd" clip-rule="evenodd" d="M79.058 89C80.3307 89 81.6045 88.6282 82.4977 87.7216C84.662 85.5246 86 82.4934 86 79.1458C86 72.4379 80.6274 67 74 67C67.3726 67 62 72.4379 62 79.1458C62 82.4934 63.338 85.5246 65.5023 87.7216C66.3955 88.6282 67.6693 89 68.942 89H79.058Z"/>
</mask>
<path fill-rule="evenodd" clip-rule="evenodd" d="M79.058 89C80.3307 89 81.6045 88.6282 82.4977 87.7216C84.662 85.5246 86 82.4934 86 79.1458C86 72.4379 80.6274 67 74 67C67.3726 67 62 72.4379 62 79.1458C62 82.4934 63.338 85.5246 65.5023 87.7216C66.3955 88.6282 67.6693 89 68.942 89H79.058Z" fill="white"/>
<path d="M84 79.1458C84 81.9506 82.8811 84.4825 81.0729 86.318L83.9225 89.1252C86.4428 86.5667 88 83.0362 88 79.1458H84ZM74 69C79.5001 69 84 73.5196 84 79.1458H88C88 71.3561 81.7547 65 74 65V69ZM64 79.1458C64 73.5196 68.4999 69 74 69V65C66.2453 65 60 71.3561 60 79.1458H64ZM66.9271 86.318C65.1189 84.4825 64 81.9506 64 79.1458H60C60 83.0362 61.5572 86.5667 64.0775 89.1252L66.9271 86.318ZM68.942 91H79.058V87H68.942V91ZM64.0775 89.1252C65.459 90.5274 67.3184 91 68.942 91V87C68.0202 87 67.332 86.729 66.9271 86.318L64.0775 89.1252ZM81.0729 86.318C80.668 86.729 79.9798 87 79.058 87V91C80.6816 91 82.541 90.5274 83.9225 89.1252L81.0729 86.318Z" fill="#00BEE7" mask="url(#path-6-inside-3)"/>
<rect x="35" y="78" width="19" height="6" rx="1" fill="white" stroke="#00BEE7" stroke-width="2"/>
<rect x="29" y="68" width="6" height="26" rx="1" fill="white" stroke="#B8C0CC" stroke-width="2"/>
<rect x="23" y="73" width="6" height="15" rx="1" fill="white" stroke="#B8C0CC" stroke-width="2"/>
<rect x="54" y="68" width="6" height="26" rx="1" fill="white" stroke="#B8C0CC" stroke-width="2"/>
<rect x="60" y="73" width="6" height="15" rx="1" fill="white" stroke="#B8C0CC" stroke-width="2"/>
</svg>
