<svg width="502" height="381" viewBox="0 0 502 381" fill="none" xmlns="http://www.w3.org/2000/svg">
<path d="M500.001 267L1.00146 267" stroke="#B8C0CC" stroke-width="2" stroke-linecap="round"/>
<rect x="38" width="426" height="302" rx="16" fill="white"/>
<rect width="94" height="56" rx="10" transform="matrix(1 0 0 -1 80.002 195)" fill="#EAEFF4"/>
<rect width="94" height="56" rx="10" transform="matrix(1 0 0 -1 80.002 281)" stroke="#00BEE7" stroke-width="2"/>
<rect width="94" height="56" rx="10" transform="matrix(1 0 0 -1 204.002 195)" fill="white" stroke="#00BEE7" stroke-width="2"/>
<rect width="94" height="56" rx="10" transform="matrix(1 0 0 -1 204.002 281)" fill="#00BEE7" stroke="#00BEE7" stroke-width="2"/>
<rect width="94" height="56" rx="10" transform="matrix(1 0 0 -1 328.002 195)" fill="white" stroke="#00BEE7" stroke-width="2"/>
<rect width="94" height="56" rx="10" transform="matrix(1 0 0 -1 328.002 281)" fill="#EAEFF4"/>
<path d="M411.001 109H91.001" stroke="#B8C0CC" stroke-width="2" stroke-linecap="round"/>
<rect x="39" y="1" width="424" height="300" rx="15" stroke="#B8C0CC" stroke-width="2"/>
<circle cx="251.502" cy="54.5" r="24.5" fill="#00BEE7"/>
<path d="M249.135 60.504C250.095 60.504 250.575 60.912 250.575 61.728C250.575 62.576 250.095 63 249.135 63H241.023C240.047 63 239.559 62.576 239.559 61.728C239.559 60.912 240.047 60.504 241.023 60.504H243.519V49.56L241.215 50.976C240.991 51.104 240.791 51.168 240.615 51.168C240.279 51.168 239.991 51.024 239.751 50.736C239.527 50.448 239.415 50.128 239.415 49.776C239.415 49.312 239.623 48.952 240.039 48.696L243.759 46.392C244.239 46.104 244.695 45.96 245.127 45.96C245.575 45.96 245.935 46.096 246.207 46.368C246.479 46.64 246.615 47.016 246.615 47.496V60.504H249.135ZM259.734 52.152C260.742 52.152 261.638 52.384 262.422 52.848C263.206 53.296 263.814 53.936 264.246 54.768C264.694 55.584 264.918 56.52 264.918 57.576C264.918 58.664 264.67 59.64 264.174 60.504C263.694 61.352 263.022 62.016 262.158 62.496C261.31 62.976 260.342 63.216 259.254 63.216C257.11 63.216 255.454 62.496 254.286 61.056C253.134 59.6 252.558 57.528 252.558 54.84C252.558 53 252.83 51.408 253.374 50.064C253.918 48.704 254.694 47.664 255.702 46.944C256.726 46.224 257.926 45.864 259.302 45.864C260.214 45.864 261.126 46.032 262.038 46.368C262.966 46.688 263.75 47.128 264.39 47.688C264.598 47.864 264.742 48.04 264.822 48.216C264.918 48.376 264.966 48.576 264.966 48.816C264.966 49.168 264.862 49.472 264.654 49.728C264.462 49.968 264.23 50.088 263.958 50.088C263.798 50.088 263.646 50.064 263.502 50.016C263.358 49.952 263.182 49.856 262.974 49.728C261.646 48.8 260.462 48.336 259.422 48.336C258.254 48.336 257.334 48.88 256.662 49.968C255.99 51.04 255.638 52.552 255.606 54.504C255.974 53.784 256.526 53.216 257.262 52.8C257.998 52.368 258.822 52.152 259.734 52.152ZM259.086 60.768C259.966 60.768 260.67 60.488 261.198 59.928C261.726 59.352 261.99 58.6 261.99 57.672C261.99 56.744 261.726 56 261.198 55.44C260.67 54.88 259.966 54.6 259.086 54.6C258.19 54.6 257.462 54.888 256.902 55.464C256.358 56.024 256.086 56.76 256.086 57.672C256.086 58.6 256.358 59.352 256.902 59.928C257.462 60.488 258.19 60.768 259.086 60.768Z" fill="white"/>
<path d="M174.137 58.47C174.425 58.47 174.641 58.536 174.785 58.668C174.929 58.8 175.001 58.986 175.001 59.226C175.001 59.742 174.713 60 174.137 60H168.125C167.537 60 167.243 59.742 167.243 59.226C167.243 58.986 167.315 58.8 167.459 58.668C167.615 58.536 167.837 58.47 168.125 58.47H170.195V49.488L168.341 50.658C168.221 50.73 168.101 50.766 167.981 50.766C167.777 50.766 167.597 50.676 167.441 50.496C167.297 50.316 167.225 50.112 167.225 49.884C167.225 49.608 167.345 49.392 167.585 49.236L170.357 47.472C170.633 47.304 170.897 47.22 171.149 47.22C171.413 47.22 171.629 47.304 171.797 47.472C171.965 47.64 172.049 47.868 172.049 48.156V58.47H174.137ZM181.978 51.972C182.77 51.972 183.466 52.14 184.066 52.476C184.678 52.812 185.152 53.286 185.488 53.898C185.824 54.51 185.992 55.212 185.992 56.004C185.992 56.808 185.806 57.522 185.434 58.146C185.062 58.77 184.54 59.256 183.868 59.604C183.208 59.952 182.446 60.126 181.582 60.126C180.838 60.126 180.106 60 179.386 59.748C178.678 59.496 178.084 59.148 177.604 58.704C177.364 58.5 177.244 58.26 177.244 57.984C177.244 57.768 177.304 57.588 177.424 57.444C177.544 57.288 177.688 57.21 177.856 57.21C177.964 57.21 178.06 57.228 178.144 57.264C178.24 57.3 178.348 57.36 178.468 57.444C178.96 57.828 179.452 58.122 179.944 58.326C180.448 58.518 180.976 58.614 181.528 58.614C182.368 58.614 183.022 58.392 183.49 57.948C183.958 57.492 184.192 56.856 184.192 56.04C184.192 55.26 183.952 54.636 183.472 54.168C183.004 53.7 182.374 53.466 181.582 53.466C181.066 53.466 180.604 53.556 180.196 53.736C179.788 53.904 179.404 54.174 179.044 54.546C178.864 54.714 178.648 54.798 178.396 54.798C178.192 54.798 178.018 54.738 177.874 54.618C177.742 54.486 177.676 54.318 177.676 54.114V48.192C177.676 47.916 177.748 47.7 177.892 47.544C178.048 47.388 178.27 47.31 178.558 47.31H184.75C185.026 47.31 185.242 47.376 185.398 47.508C185.554 47.64 185.632 47.82 185.632 48.048C185.632 48.288 185.554 48.474 185.398 48.606C185.242 48.738 185.026 48.804 184.75 48.804H179.512V52.8C180.172 52.248 180.994 51.972 181.978 51.972Z" fill="#00BEE7"/>
<path d="M376.137 58.47C376.425 58.47 376.641 58.536 376.785 58.668C376.929 58.8 377.001 58.986 377.001 59.226C377.001 59.742 376.713 60 376.137 60H370.125C369.537 60 369.243 59.742 369.243 59.226C369.243 58.986 369.315 58.8 369.459 58.668C369.615 58.536 369.837 58.47 370.125 58.47H372.195V49.488L370.341 50.658C370.221 50.73 370.101 50.766 369.981 50.766C369.777 50.766 369.597 50.676 369.441 50.496C369.297 50.316 369.225 50.112 369.225 49.884C369.225 49.608 369.345 49.392 369.585 49.236L372.357 47.472C372.633 47.304 372.897 47.22 373.149 47.22C373.413 47.22 373.629 47.304 373.797 47.472C373.965 47.64 374.049 47.868 374.049 48.156V58.47H376.137ZM385.706 53.484C386.45 53.7 387.026 54.084 387.434 54.636C387.842 55.188 388.046 55.848 388.046 56.616C388.046 57.72 387.638 58.584 386.822 59.208C386.018 59.82 384.878 60.126 383.402 60.126C381.926 60.126 380.78 59.82 379.964 59.208C379.16 58.584 378.758 57.72 378.758 56.616C378.758 55.836 378.962 55.17 379.37 54.618C379.79 54.066 380.372 53.688 381.116 53.484C380.48 53.244 379.976 52.866 379.604 52.35C379.244 51.834 379.064 51.234 379.064 50.55C379.064 49.506 379.448 48.684 380.216 48.084C380.984 47.472 382.046 47.166 383.402 47.166C384.758 47.166 385.82 47.472 386.588 48.084C387.356 48.684 387.74 49.506 387.74 50.55C387.74 51.234 387.554 51.84 387.182 52.368C386.822 52.884 386.33 53.256 385.706 53.484ZM383.402 48.66C382.562 48.66 381.926 48.84 381.494 49.2C381.062 49.548 380.846 50.052 380.846 50.712C380.846 51.396 381.062 51.918 381.494 52.278C381.926 52.638 382.562 52.818 383.402 52.818C384.242 52.818 384.878 52.638 385.31 52.278C385.742 51.918 385.958 51.396 385.958 50.712C385.958 50.052 385.742 49.548 385.31 49.2C384.878 48.84 384.242 48.66 383.402 48.66ZM383.402 58.632C385.31 58.632 386.264 57.918 386.264 56.49C386.264 55.05 385.31 54.33 383.402 54.33C381.494 54.33 380.54 55.05 380.54 56.49C380.54 57.918 381.494 58.632 383.402 58.632Z" fill="#00BEE7"/>
<path d="M122.137 58.47C122.425 58.47 122.641 58.536 122.785 58.668C122.929 58.8 123.001 58.986 123.001 59.226C123.001 59.742 122.713 60 122.137 60H116.125C115.537 60 115.243 59.742 115.243 59.226C115.243 58.986 115.315 58.8 115.459 58.668C115.615 58.536 115.837 58.47 116.125 58.47H118.195V49.488L116.341 50.658C116.221 50.73 116.101 50.766 115.981 50.766C115.777 50.766 115.597 50.676 115.441 50.496C115.297 50.316 115.225 50.112 115.225 49.884C115.225 49.608 115.345 49.392 115.585 49.236L118.357 47.472C118.633 47.304 118.897 47.22 119.149 47.22C119.413 47.22 119.629 47.304 119.797 47.472C119.965 47.64 120.049 47.868 120.049 48.156V58.47H122.137ZM133.524 55.896C134.112 55.896 134.406 56.142 134.406 56.634C134.406 57.126 134.112 57.372 133.524 57.372H132.372V59.154C132.372 59.454 132.288 59.688 132.12 59.856C131.952 60.012 131.73 60.09 131.454 60.09C131.19 60.09 130.974 60.012 130.806 59.856C130.638 59.688 130.554 59.454 130.554 59.154V57.372H125.496C125.232 57.372 125.028 57.3 124.884 57.156C124.74 57.012 124.668 56.826 124.668 56.598C124.668 56.358 124.746 56.124 124.902 55.896L130.644 47.634C130.836 47.358 131.106 47.22 131.454 47.22C131.706 47.22 131.922 47.304 132.102 47.472C132.282 47.628 132.372 47.856 132.372 48.156V55.896H133.524ZM126.666 55.896H130.554V50.28L126.666 55.896Z" fill="#00BEE7"/>
<path d="M101.219 163.112C100.071 163.112 99.1932 162.683 98.5866 161.824C97.9892 160.965 97.6906 159.715 97.6906 158.072C97.6906 156.42 97.9892 155.165 98.5866 154.306C99.1932 153.447 100.071 153.018 101.219 153.018C102.367 153.018 103.239 153.447 103.837 154.306C104.443 155.155 104.747 156.406 104.747 158.058C104.747 159.71 104.443 160.965 103.837 161.824C103.239 162.683 102.367 163.112 101.219 163.112ZM101.219 161.95C101.937 161.95 102.465 161.637 102.801 161.012C103.137 160.387 103.305 159.402 103.305 158.058C103.305 156.714 103.137 155.734 102.801 155.118C102.465 154.493 101.937 154.18 101.219 154.18C100.5 154.18 99.9726 154.493 99.6366 155.118C99.3006 155.734 99.1326 156.714 99.1326 158.058C99.1326 159.393 99.3006 160.377 99.6366 161.012C99.9726 161.637 100.5 161.95 101.219 161.95ZM109.305 153.018C110.528 153.018 111.466 153.438 112.119 154.278C112.782 155.109 113.113 156.299 113.113 157.848C113.113 158.94 112.959 159.883 112.651 160.676C112.343 161.46 111.9 162.062 111.321 162.482C110.742 162.902 110.056 163.112 109.263 163.112C108.731 163.112 108.199 163.014 107.667 162.818C107.135 162.622 106.682 162.351 106.309 162.006C106.122 161.847 106.029 161.661 106.029 161.446C106.029 161.278 106.076 161.138 106.169 161.026C106.262 160.905 106.374 160.844 106.505 160.844C106.589 160.844 106.664 160.858 106.729 160.886C106.804 160.914 106.888 160.961 106.981 161.026C107.765 161.633 108.512 161.936 109.221 161.936C109.996 161.936 110.598 161.581 111.027 160.872C111.456 160.153 111.671 159.155 111.671 157.876V157.848C111.466 158.324 111.13 158.702 110.663 158.982C110.206 159.253 109.688 159.388 109.109 159.388C108.521 159.388 107.994 159.257 107.527 158.996C107.06 158.725 106.696 158.352 106.435 157.876C106.183 157.4 106.057 156.854 106.057 156.238C106.057 155.622 106.197 155.071 106.477 154.586C106.757 154.091 107.14 153.709 107.625 153.438C108.12 153.158 108.68 153.018 109.305 153.018ZM109.375 158.212C109.963 158.212 110.439 158.03 110.803 157.666C111.176 157.293 111.363 156.807 111.363 156.21C111.363 155.603 111.181 155.118 110.817 154.754C110.453 154.381 109.972 154.194 109.375 154.194C108.796 154.194 108.33 154.381 107.975 154.754C107.63 155.118 107.457 155.603 107.457 156.21C107.457 156.807 107.63 157.293 107.975 157.666C108.33 158.03 108.796 158.212 109.375 158.212ZM115.474 157.834C115.222 157.834 115.007 157.75 114.83 157.582C114.662 157.414 114.578 157.199 114.578 156.938C114.578 156.677 114.662 156.462 114.83 156.294C115.007 156.117 115.222 156.028 115.474 156.028C115.726 156.028 115.936 156.117 116.104 156.294C116.272 156.462 116.356 156.677 116.356 156.938C116.356 157.199 116.272 157.414 116.104 157.582C115.936 157.75 115.726 157.834 115.474 157.834ZM115.474 163.07C115.222 163.07 115.007 162.986 114.83 162.818C114.662 162.65 114.578 162.435 114.578 162.174C114.578 161.913 114.662 161.698 114.83 161.53C115.007 161.353 115.222 161.264 115.474 161.264C115.726 161.264 115.936 161.353 116.104 161.53C116.272 161.698 116.356 161.913 116.356 162.174C116.356 162.435 116.272 162.65 116.104 162.818C115.936 162.986 115.726 163.07 115.474 163.07ZM121.344 163.112C120.196 163.112 119.318 162.683 118.712 161.824C118.114 160.965 117.816 159.715 117.816 158.072C117.816 156.42 118.114 155.165 118.712 154.306C119.318 153.447 120.196 153.018 121.344 153.018C122.492 153.018 123.364 153.447 123.962 154.306C124.568 155.155 124.872 156.406 124.872 158.058C124.872 159.71 124.568 160.965 123.962 161.824C123.364 162.683 122.492 163.112 121.344 163.112ZM121.344 161.95C122.062 161.95 122.59 161.637 122.926 161.012C123.262 160.387 123.43 159.402 123.43 158.058C123.43 156.714 123.262 155.734 122.926 155.118C122.59 154.493 122.062 154.18 121.344 154.18C120.625 154.18 120.098 154.493 119.762 155.118C119.426 155.734 119.258 156.714 119.258 158.058C119.258 159.393 119.426 160.377 119.762 161.012C120.098 161.637 120.625 161.95 121.344 161.95ZM129.738 163.112C128.59 163.112 127.713 162.683 127.106 161.824C126.509 160.965 126.21 159.715 126.21 158.072C126.21 156.42 126.509 155.165 127.106 154.306C127.713 153.447 128.59 153.018 129.738 153.018C130.886 153.018 131.759 153.447 132.356 154.306C132.963 155.155 133.266 156.406 133.266 158.058C133.266 159.71 132.963 160.965 132.356 161.824C131.759 162.683 130.886 163.112 129.738 163.112ZM129.738 161.95C130.457 161.95 130.984 161.637 131.32 161.012C131.656 160.387 131.824 159.402 131.824 158.058C131.824 156.714 131.656 155.734 131.32 155.118C130.984 154.493 130.457 154.18 129.738 154.18C129.019 154.18 128.492 154.493 128.156 155.118C127.82 155.734 127.652 156.714 127.652 158.058C127.652 159.393 127.82 160.377 128.156 161.012C128.492 161.637 129.019 161.95 129.738 161.95ZM143.789 162.16C143.835 162.272 143.859 162.365 143.859 162.44C143.859 162.617 143.784 162.767 143.635 162.888C143.495 163.009 143.336 163.07 143.159 163.07C143.037 163.07 142.921 163.037 142.809 162.972C142.706 162.897 142.627 162.795 142.571 162.664L141.647 160.564H136.523L135.599 162.664C135.543 162.795 135.459 162.897 135.347 162.972C135.235 163.037 135.118 163.07 134.997 163.07C134.81 163.07 134.642 163.009 134.493 162.888C134.353 162.767 134.283 162.617 134.283 162.44C134.283 162.365 134.306 162.272 134.353 162.16L138.301 153.522C138.366 153.373 138.469 153.256 138.609 153.172C138.758 153.088 138.912 153.046 139.071 153.046C139.229 153.046 139.379 153.088 139.519 153.172C139.668 153.256 139.775 153.373 139.841 153.522L143.789 162.16ZM137.041 159.416H141.143L139.085 154.782L137.041 159.416ZM154.126 153.06C154.331 153.06 154.499 153.13 154.63 153.27C154.761 153.401 154.826 153.573 154.826 153.788V162.384C154.826 162.599 154.765 162.767 154.644 162.888C154.532 163.009 154.373 163.07 154.168 163.07C153.972 163.07 153.818 163.009 153.706 162.888C153.594 162.767 153.538 162.599 153.538 162.384V155.874L150.794 161.096C150.617 161.423 150.388 161.586 150.108 161.586C149.828 161.586 149.599 161.423 149.422 161.096L146.664 155.93V162.384C146.664 162.599 146.608 162.767 146.496 162.888C146.384 163.009 146.225 163.07 146.02 163.07C145.824 163.07 145.665 163.009 145.544 162.888C145.432 162.757 145.376 162.589 145.376 162.384V153.788C145.376 153.573 145.441 153.401 145.572 153.27C145.703 153.13 145.871 153.06 146.076 153.06C146.365 153.06 146.599 153.228 146.776 153.564L150.122 159.962L153.44 153.564C153.617 153.228 153.846 153.06 154.126 153.06Z" fill="#B8C0CC"/>
<path d="M115.423 181.05C115.269 181.05 115.146 181.003 115.053 180.91C114.959 180.81 114.913 180.683 114.913 180.53V174.45C114.913 174.297 114.956 174.177 115.043 174.09C115.136 173.997 115.263 173.95 115.423 173.95H119.003C119.323 173.95 119.483 174.09 119.483 174.37C119.483 174.65 119.323 174.79 119.003 174.79H115.933V177H118.803C119.123 177 119.283 177.14 119.283 177.42C119.283 177.7 119.123 177.84 118.803 177.84H115.933V180.53C115.933 180.69 115.886 180.817 115.793 180.91C115.706 181.003 115.583 181.05 115.423 181.05ZM123.338 181.08C122.398 181.08 121.685 180.837 121.198 180.35C120.712 179.863 120.468 179.147 120.468 178.2V174.42C120.468 174.26 120.515 174.133 120.608 174.04C120.702 173.947 120.825 173.9 120.978 173.9C121.132 173.9 121.255 173.947 121.348 174.04C121.442 174.133 121.488 174.26 121.488 174.42V178.27C121.488 178.917 121.642 179.407 121.948 179.74C122.262 180.073 122.725 180.24 123.338 180.24C123.945 180.24 124.405 180.073 124.718 179.74C125.032 179.407 125.188 178.917 125.188 178.27V174.42C125.188 174.267 125.235 174.143 125.328 174.05C125.422 173.95 125.545 173.9 125.698 173.9C125.852 173.9 125.975 173.947 126.068 174.04C126.162 174.133 126.208 174.26 126.208 174.42V178.2C126.208 179.14 125.962 179.857 125.468 180.35C124.982 180.837 124.272 181.08 123.338 181.08ZM128.294 181C128.14 181 128.017 180.957 127.924 180.87C127.837 180.783 127.794 180.667 127.794 180.52V174.42C127.794 174.267 127.84 174.143 127.934 174.05C128.027 173.95 128.15 173.9 128.304 173.9C128.464 173.9 128.59 173.947 128.684 174.04C128.777 174.133 128.824 174.26 128.824 174.42V180.14H131.864C132.017 180.14 132.134 180.177 132.214 180.25C132.3 180.323 132.344 180.43 132.344 180.57C132.344 180.71 132.3 180.817 132.214 180.89C132.134 180.963 132.017 181 131.864 181H128.294ZM133.762 181C133.609 181 133.486 180.957 133.392 180.87C133.306 180.783 133.262 180.667 133.262 180.52V174.42C133.262 174.267 133.309 174.143 133.402 174.05C133.496 173.95 133.619 173.9 133.772 173.9C133.932 173.9 134.059 173.947 134.152 174.04C134.246 174.133 134.292 174.26 134.292 174.42V180.14H137.332C137.486 180.14 137.602 180.177 137.682 180.25C137.769 180.323 137.812 180.43 137.812 180.57C137.812 180.71 137.769 180.817 137.682 180.89C137.602 180.963 137.486 181 137.332 181H133.762Z" fill="#B8C0CC"/>
<path d="M103.963 247.81C104.187 247.81 104.355 247.861 104.467 247.964C104.579 248.067 104.635 248.211 104.635 248.398C104.635 248.799 104.411 249 103.963 249H99.2866C98.8292 249 98.6006 248.799 98.6006 248.398C98.6006 248.211 98.6566 248.067 98.7686 247.964C98.8899 247.861 99.0626 247.81 99.2866 247.81H100.897V240.824L99.4546 241.734C99.3612 241.79 99.2679 241.818 99.1746 241.818C99.0159 241.818 98.8759 241.748 98.7546 241.608C98.6426 241.468 98.5866 241.309 98.5866 241.132C98.5866 240.917 98.6799 240.749 98.8666 240.628L101.023 239.256C101.237 239.125 101.443 239.06 101.639 239.06C101.844 239.06 102.012 239.125 102.143 239.256C102.273 239.387 102.339 239.564 102.339 239.788V247.81H103.963ZM109.613 249.112C108.465 249.112 107.588 248.683 106.981 247.824C106.384 246.965 106.085 245.715 106.085 244.072C106.085 242.42 106.384 241.165 106.981 240.306C107.588 239.447 108.465 239.018 109.613 239.018C110.761 239.018 111.634 239.447 112.231 240.306C112.838 241.155 113.141 242.406 113.141 244.058C113.141 245.71 112.838 246.965 112.231 247.824C111.634 248.683 110.761 249.112 109.613 249.112ZM109.613 247.95C110.332 247.95 110.859 247.637 111.195 247.012C111.531 246.387 111.699 245.402 111.699 244.058C111.699 242.714 111.531 241.734 111.195 241.118C110.859 240.493 110.332 240.18 109.613 240.18C108.894 240.18 108.367 240.493 108.031 241.118C107.695 241.734 107.527 242.714 107.527 244.058C107.527 245.393 107.695 246.377 108.031 247.012C108.367 247.637 108.894 247.95 109.613 247.95ZM115.474 243.834C115.222 243.834 115.007 243.75 114.83 243.582C114.662 243.414 114.578 243.199 114.578 242.938C114.578 242.677 114.662 242.462 114.83 242.294C115.007 242.117 115.222 242.028 115.474 242.028C115.726 242.028 115.936 242.117 116.104 242.294C116.272 242.462 116.356 242.677 116.356 242.938C116.356 243.199 116.272 243.414 116.104 243.582C115.936 243.75 115.726 243.834 115.474 243.834ZM115.474 249.07C115.222 249.07 115.007 248.986 114.83 248.818C114.662 248.65 114.578 248.435 114.578 248.174C114.578 247.913 114.662 247.698 114.83 247.53C115.007 247.353 115.222 247.264 115.474 247.264C115.726 247.264 115.936 247.353 116.104 247.53C116.272 247.698 116.356 247.913 116.356 248.174C116.356 248.435 116.272 248.65 116.104 248.818C115.936 248.986 115.726 249.07 115.474 249.07ZM122.758 243.932C123.355 244.1 123.808 244.389 124.116 244.8C124.424 245.201 124.578 245.71 124.578 246.326C124.578 247.185 124.274 247.861 123.668 248.356C123.07 248.851 122.258 249.098 121.232 249.098C120.625 249.098 120.042 249 119.482 248.804C118.931 248.608 118.464 248.337 118.082 247.992C117.895 247.843 117.802 247.656 117.802 247.432C117.802 247.264 117.848 247.124 117.942 247.012C118.035 246.891 118.147 246.83 118.278 246.83C118.418 246.83 118.576 246.891 118.754 247.012C119.155 247.311 119.547 247.539 119.93 247.698C120.322 247.847 120.742 247.922 121.19 247.922C122.515 247.922 123.178 247.357 123.178 246.228C123.178 245.677 123 245.267 122.646 244.996C122.3 244.716 121.773 244.576 121.064 244.576H120.294C120.116 244.576 119.976 244.52 119.874 244.408C119.771 244.287 119.72 244.147 119.72 243.988C119.72 243.839 119.771 243.708 119.874 243.596C119.976 243.475 120.116 243.414 120.294 243.414H120.84C121.521 243.414 122.039 243.274 122.394 242.994C122.758 242.705 122.94 242.285 122.94 241.734C122.94 241.249 122.79 240.871 122.492 240.6C122.202 240.329 121.792 240.194 121.26 240.194C120.476 240.194 119.692 240.497 118.908 241.104C118.73 241.225 118.572 241.286 118.432 241.286C118.301 241.286 118.189 241.23 118.096 241.118C118.002 240.997 117.956 240.852 117.956 240.684C117.956 240.46 118.049 240.273 118.236 240.124C118.618 239.779 119.08 239.508 119.622 239.312C120.172 239.116 120.737 239.018 121.316 239.018C122.24 239.018 122.977 239.251 123.528 239.718C124.078 240.185 124.349 240.81 124.34 241.594C124.34 242.135 124.2 242.616 123.92 243.036C123.64 243.447 123.252 243.745 122.758 243.932ZM129.738 249.112C128.59 249.112 127.713 248.683 127.106 247.824C126.509 246.965 126.21 245.715 126.21 244.072C126.21 242.42 126.509 241.165 127.106 240.306C127.713 239.447 128.59 239.018 129.738 239.018C130.886 239.018 131.759 239.447 132.356 240.306C132.963 241.155 133.266 242.406 133.266 244.058C133.266 245.71 132.963 246.965 132.356 247.824C131.759 248.683 130.886 249.112 129.738 249.112ZM129.738 247.95C130.457 247.95 130.984 247.637 131.32 247.012C131.656 246.387 131.824 245.402 131.824 244.058C131.824 242.714 131.656 241.734 131.32 241.118C130.984 240.493 130.457 240.18 129.738 240.18C129.019 240.18 128.492 240.493 128.156 241.118C127.82 241.734 127.652 242.714 127.652 244.058C127.652 245.393 127.82 246.377 128.156 247.012C128.492 247.637 129.019 247.95 129.738 247.95ZM143.789 248.16C143.835 248.272 143.859 248.365 143.859 248.44C143.859 248.617 143.784 248.767 143.635 248.888C143.495 249.009 143.336 249.07 143.159 249.07C143.037 249.07 142.921 249.037 142.809 248.972C142.706 248.897 142.627 248.795 142.571 248.664L141.647 246.564H136.523L135.599 248.664C135.543 248.795 135.459 248.897 135.347 248.972C135.235 249.037 135.118 249.07 134.997 249.07C134.81 249.07 134.642 249.009 134.493 248.888C134.353 248.767 134.283 248.617 134.283 248.44C134.283 248.365 134.306 248.272 134.353 248.16L138.301 239.522C138.366 239.373 138.469 239.256 138.609 239.172C138.758 239.088 138.912 239.046 139.071 239.046C139.229 239.046 139.379 239.088 139.519 239.172C139.668 239.256 139.775 239.373 139.841 239.522L143.789 248.16ZM137.041 245.416H141.143L139.085 240.782L137.041 245.416ZM154.126 239.06C154.331 239.06 154.499 239.13 154.63 239.27C154.761 239.401 154.826 239.573 154.826 239.788V248.384C154.826 248.599 154.765 248.767 154.644 248.888C154.532 249.009 154.373 249.07 154.168 249.07C153.972 249.07 153.818 249.009 153.706 248.888C153.594 248.767 153.538 248.599 153.538 248.384V241.874L150.794 247.096C150.617 247.423 150.388 247.586 150.108 247.586C149.828 247.586 149.599 247.423 149.422 247.096L146.664 241.93V248.384C146.664 248.599 146.608 248.767 146.496 248.888C146.384 249.009 146.225 249.07 146.02 249.07C145.824 249.07 145.665 249.009 145.544 248.888C145.432 248.757 145.376 248.589 145.376 248.384V239.788C145.376 239.573 145.441 239.401 145.572 239.27C145.703 239.13 145.871 239.06 146.076 239.06C146.365 239.06 146.599 239.228 146.776 239.564L150.122 245.962L153.44 239.564C153.617 239.228 153.846 239.06 154.126 239.06Z" fill="#00BEE7"/>
<path d="M99.4532 266.15C99.6132 266.15 99.7332 266.187 99.8132 266.26C99.8932 266.333 99.9332 266.437 99.9332 266.57C99.9332 266.857 99.7732 267 99.4532 267H96.1132C95.7865 267 95.6232 266.857 95.6232 266.57C95.6232 266.437 95.6632 266.333 95.7432 266.26C95.8298 266.187 95.9532 266.15 96.1132 266.15H97.2632V261.16L96.2332 261.81C96.1665 261.85 96.0998 261.87 96.0332 261.87C95.9198 261.87 95.8198 261.82 95.7332 261.72C95.6532 261.62 95.6132 261.507 95.6132 261.38C95.6132 261.227 95.6798 261.107 95.8132 261.02L97.3532 260.04C97.5065 259.947 97.6532 259.9 97.7932 259.9C97.9398 259.9 98.0598 259.947 98.1532 260.04C98.2465 260.133 98.2932 260.26 98.2932 260.42V266.15H99.4532ZM105.519 266.15C105.679 266.15 105.799 266.187 105.879 266.26C105.966 266.333 106.009 266.437 106.009 266.57C106.009 266.857 105.846 267 105.519 267H101.659C101.513 267 101.396 266.96 101.309 266.88C101.229 266.793 101.189 266.687 101.189 266.56C101.189 266.407 101.249 266.267 101.369 266.14L103.719 263.57C104.033 263.23 104.259 262.92 104.399 262.64C104.539 262.36 104.609 262.083 104.609 261.81C104.609 261.457 104.506 261.187 104.299 261C104.099 260.807 103.813 260.71 103.439 260.71C102.873 260.71 102.309 260.927 101.749 261.36C101.676 261.407 101.613 261.443 101.559 261.47C101.513 261.49 101.463 261.5 101.409 261.5C101.316 261.5 101.236 261.457 101.169 261.37C101.103 261.283 101.069 261.18 101.069 261.06C101.069 260.893 101.136 260.76 101.269 260.66C101.549 260.42 101.886 260.23 102.279 260.09C102.673 259.943 103.069 259.87 103.469 259.87C104.129 259.87 104.653 260.04 105.039 260.38C105.433 260.713 105.629 261.167 105.629 261.74C105.629 262.147 105.539 262.533 105.359 262.9C105.186 263.267 104.893 263.677 104.479 264.13L102.589 266.15H105.519ZM116.162 266.4C116.195 266.48 116.212 266.547 116.212 266.6C116.212 266.727 116.159 266.833 116.052 266.92C115.952 267.007 115.839 267.05 115.712 267.05C115.625 267.05 115.542 267.027 115.462 266.98C115.389 266.927 115.332 266.853 115.292 266.76L114.632 265.26H110.972L110.312 266.76C110.272 266.853 110.212 266.927 110.132 266.98C110.052 267.027 109.969 267.05 109.882 267.05C109.749 267.05 109.629 267.007 109.522 266.92C109.422 266.833 109.372 266.727 109.372 266.6C109.372 266.547 109.389 266.48 109.422 266.4L112.242 260.23C112.289 260.123 112.362 260.04 112.462 259.98C112.569 259.92 112.679 259.89 112.792 259.89C112.905 259.89 113.012 259.92 113.112 259.98C113.219 260.04 113.295 260.123 113.342 260.23L116.162 266.4ZM111.342 264.44H114.272L112.802 261.13L111.342 264.44ZM121.782 260.17C121.868 259.983 122.012 259.89 122.212 259.89C122.345 259.89 122.465 259.937 122.572 260.03C122.678 260.117 122.732 260.223 122.732 260.35C122.732 260.397 122.715 260.46 122.682 260.54L119.862 266.72C119.815 266.827 119.742 266.91 119.642 266.97C119.542 267.03 119.435 267.06 119.322 267.06C119.208 267.06 119.098 267.03 118.992 266.97C118.892 266.91 118.818 266.827 118.772 266.72L115.962 260.54C115.928 260.46 115.912 260.397 115.912 260.35C115.912 260.217 115.965 260.107 116.072 260.02C116.185 259.933 116.308 259.89 116.442 259.89C116.648 259.89 116.795 259.983 116.882 260.17L119.332 265.66L121.782 260.17ZM129.209 266.4C129.242 266.48 129.259 266.547 129.259 266.6C129.259 266.727 129.206 266.833 129.099 266.92C128.999 267.007 128.886 267.05 128.759 267.05C128.672 267.05 128.589 267.027 128.509 266.98C128.436 266.927 128.379 266.853 128.339 266.76L127.679 265.26H124.019L123.359 266.76C123.319 266.853 123.259 266.927 123.179 266.98C123.099 267.027 123.016 267.05 122.929 267.05C122.796 267.05 122.676 267.007 122.569 266.92C122.469 266.833 122.419 266.727 122.419 266.6C122.419 266.547 122.436 266.48 122.469 266.4L125.289 260.23C125.336 260.123 125.409 260.04 125.509 259.98C125.616 259.92 125.726 259.89 125.839 259.89C125.952 259.89 126.059 259.92 126.159 259.98C126.266 260.04 126.342 260.123 126.389 260.23L129.209 266.4ZM124.389 264.44H127.319L125.849 261.13L124.389 264.44ZM130.843 267.05C130.689 267.05 130.566 267.003 130.473 266.91C130.379 266.817 130.333 266.69 130.333 266.53V260.42C130.333 260.267 130.379 260.143 130.473 260.05C130.566 259.95 130.689 259.9 130.843 259.9C131.003 259.9 131.129 259.947 131.223 260.04C131.316 260.133 131.363 260.26 131.363 260.42V266.53C131.363 266.69 131.316 266.817 131.223 266.91C131.136 267.003 131.009 267.05 130.843 267.05ZM133.499 267C133.345 267 133.222 266.957 133.129 266.87C133.042 266.783 132.999 266.667 132.999 266.52V260.42C132.999 260.267 133.045 260.143 133.139 260.05C133.232 259.95 133.355 259.9 133.509 259.9C133.669 259.9 133.795 259.947 133.889 260.04C133.982 260.133 134.029 260.26 134.029 260.42V266.14H137.069C137.222 266.14 137.339 266.177 137.419 266.25C137.505 266.323 137.549 266.43 137.549 266.57C137.549 266.71 137.505 266.817 137.419 266.89C137.339 266.963 137.222 267 137.069 267H133.499ZM144.58 266.4C144.613 266.48 144.63 266.547 144.63 266.6C144.63 266.727 144.577 266.833 144.47 266.92C144.37 267.007 144.257 267.05 144.13 267.05C144.043 267.05 143.96 267.027 143.88 266.98C143.807 266.927 143.75 266.853 143.71 266.76L143.05 265.26H139.39L138.73 266.76C138.69 266.853 138.63 266.927 138.55 266.98C138.47 267.027 138.387 267.05 138.3 267.05C138.167 267.05 138.047 267.007 137.94 266.92C137.84 266.833 137.79 266.727 137.79 266.6C137.79 266.547 137.807 266.48 137.84 266.4L140.66 260.23C140.707 260.123 140.78 260.04 140.88 259.98C140.987 259.92 141.097 259.89 141.21 259.89C141.323 259.89 141.43 259.92 141.53 259.98C141.637 260.04 141.713 260.123 141.76 260.23L144.58 266.4ZM139.76 264.44H142.69L141.22 261.13L139.76 264.44ZM149.854 263.37C150.26 263.483 150.574 263.687 150.794 263.98C151.02 264.273 151.134 264.64 151.134 265.08C151.134 265.687 150.924 266.16 150.504 266.5C150.09 266.833 149.51 267 148.764 267H146.214C146.054 267 145.927 266.957 145.834 266.87C145.747 266.777 145.704 266.653 145.704 266.5V260.45C145.704 260.297 145.747 260.177 145.834 260.09C145.927 259.997 146.054 259.95 146.214 259.95H148.654C149.38 259.95 149.947 260.113 150.354 260.44C150.767 260.76 150.974 261.21 150.974 261.79C150.974 262.163 150.874 262.487 150.674 262.76C150.48 263.033 150.207 263.237 149.854 263.37ZM146.714 263H148.494C149.48 263 149.974 262.627 149.974 261.88C149.974 261.507 149.85 261.23 149.604 261.05C149.364 260.87 148.994 260.78 148.494 260.78H146.714V263ZM148.654 266.17C149.167 266.17 149.544 266.077 149.784 265.89C150.024 265.703 150.144 265.413 150.144 265.02C150.144 264.62 150.02 264.323 149.774 264.13C149.534 263.93 149.16 263.83 148.654 263.83H146.714V266.17H148.654ZM152.991 267C152.831 267 152.704 266.957 152.611 266.87C152.524 266.777 152.481 266.653 152.481 266.5V260.45C152.481 260.297 152.524 260.177 152.611 260.09C152.704 259.997 152.831 259.95 152.991 259.95H156.671C156.824 259.95 156.941 259.987 157.021 260.06C157.108 260.133 157.151 260.237 157.151 260.37C157.151 260.503 157.108 260.607 157.021 260.68C156.941 260.747 156.824 260.78 156.671 260.78H153.491V263H156.471C156.624 263 156.741 263.037 156.821 263.11C156.908 263.183 156.951 263.287 156.951 263.42C156.951 263.553 156.908 263.657 156.821 263.73C156.741 263.803 156.624 263.84 156.471 263.84H153.491V266.17H156.671C156.991 266.17 157.151 266.307 157.151 266.58C157.151 266.713 157.108 266.817 157.021 266.89C156.941 266.963 156.824 267 156.671 267H152.991Z" fill="#00BEE7"/>
<path d="M225.219 163.112C224.071 163.112 223.193 162.683 222.587 161.824C221.989 160.965 221.691 159.715 221.691 158.072C221.691 156.42 221.989 155.165 222.587 154.306C223.193 153.447 224.071 153.018 225.219 153.018C226.367 153.018 227.239 153.447 227.837 154.306C228.443 155.155 228.747 156.406 228.747 158.058C228.747 159.71 228.443 160.965 227.837 161.824C227.239 162.683 226.367 163.112 225.219 163.112ZM225.219 161.95C225.937 161.95 226.465 161.637 226.801 161.012C227.137 160.387 227.305 159.402 227.305 158.058C227.305 156.714 227.137 155.734 226.801 155.118C226.465 154.493 225.937 154.18 225.219 154.18C224.5 154.18 223.973 154.493 223.637 155.118C223.301 155.734 223.133 156.714 223.133 158.058C223.133 159.393 223.301 160.377 223.637 161.012C223.973 161.637 224.5 161.95 225.219 161.95ZM233.305 153.018C234.528 153.018 235.466 153.438 236.119 154.278C236.782 155.109 237.113 156.299 237.113 157.848C237.113 158.94 236.959 159.883 236.651 160.676C236.343 161.46 235.9 162.062 235.321 162.482C234.742 162.902 234.056 163.112 233.263 163.112C232.731 163.112 232.199 163.014 231.667 162.818C231.135 162.622 230.682 162.351 230.309 162.006C230.122 161.847 230.029 161.661 230.029 161.446C230.029 161.278 230.076 161.138 230.169 161.026C230.262 160.905 230.374 160.844 230.505 160.844C230.589 160.844 230.664 160.858 230.729 160.886C230.804 160.914 230.888 160.961 230.981 161.026C231.765 161.633 232.512 161.936 233.221 161.936C233.996 161.936 234.598 161.581 235.027 160.872C235.456 160.153 235.671 159.155 235.671 157.876V157.848C235.466 158.324 235.13 158.702 234.663 158.982C234.206 159.253 233.688 159.388 233.109 159.388C232.521 159.388 231.994 159.257 231.527 158.996C231.06 158.725 230.696 158.352 230.435 157.876C230.183 157.4 230.057 156.854 230.057 156.238C230.057 155.622 230.197 155.071 230.477 154.586C230.757 154.091 231.14 153.709 231.625 153.438C232.12 153.158 232.68 153.018 233.305 153.018ZM233.375 158.212C233.963 158.212 234.439 158.03 234.803 157.666C235.176 157.293 235.363 156.807 235.363 156.21C235.363 155.603 235.181 155.118 234.817 154.754C234.453 154.381 233.972 154.194 233.375 154.194C232.796 154.194 232.33 154.381 231.975 154.754C231.63 155.118 231.457 155.603 231.457 156.21C231.457 156.807 231.63 157.293 231.975 157.666C232.33 158.03 232.796 158.212 233.375 158.212ZM239.474 157.834C239.222 157.834 239.007 157.75 238.83 157.582C238.662 157.414 238.578 157.199 238.578 156.938C238.578 156.677 238.662 156.462 238.83 156.294C239.007 156.117 239.222 156.028 239.474 156.028C239.726 156.028 239.936 156.117 240.104 156.294C240.272 156.462 240.356 156.677 240.356 156.938C240.356 157.199 240.272 157.414 240.104 157.582C239.936 157.75 239.726 157.834 239.474 157.834ZM239.474 163.07C239.222 163.07 239.007 162.986 238.83 162.818C238.662 162.65 238.578 162.435 238.578 162.174C238.578 161.913 238.662 161.698 238.83 161.53C239.007 161.353 239.222 161.264 239.474 161.264C239.726 161.264 239.936 161.353 240.104 161.53C240.272 161.698 240.356 161.913 240.356 162.174C240.356 162.435 240.272 162.65 240.104 162.818C239.936 162.986 239.726 163.07 239.474 163.07ZM246.758 157.932C247.355 158.1 247.808 158.389 248.116 158.8C248.424 159.201 248.578 159.71 248.578 160.326C248.578 161.185 248.274 161.861 247.668 162.356C247.07 162.851 246.258 163.098 245.232 163.098C244.625 163.098 244.042 163 243.482 162.804C242.931 162.608 242.464 162.337 242.082 161.992C241.895 161.843 241.802 161.656 241.802 161.432C241.802 161.264 241.848 161.124 241.942 161.012C242.035 160.891 242.147 160.83 242.278 160.83C242.418 160.83 242.576 160.891 242.754 161.012C243.155 161.311 243.547 161.539 243.93 161.698C244.322 161.847 244.742 161.922 245.19 161.922C246.515 161.922 247.178 161.357 247.178 160.228C247.178 159.677 247 159.267 246.646 158.996C246.3 158.716 245.773 158.576 245.064 158.576H244.294C244.116 158.576 243.976 158.52 243.874 158.408C243.771 158.287 243.72 158.147 243.72 157.988C243.72 157.839 243.771 157.708 243.874 157.596C243.976 157.475 244.116 157.414 244.294 157.414H244.84C245.521 157.414 246.039 157.274 246.394 156.994C246.758 156.705 246.94 156.285 246.94 155.734C246.94 155.249 246.79 154.871 246.492 154.6C246.202 154.329 245.792 154.194 245.26 154.194C244.476 154.194 243.692 154.497 242.908 155.104C242.73 155.225 242.572 155.286 242.432 155.286C242.301 155.286 242.189 155.23 242.096 155.118C242.002 154.997 241.956 154.852 241.956 154.684C241.956 154.46 242.049 154.273 242.236 154.124C242.618 153.779 243.08 153.508 243.622 153.312C244.172 153.116 244.737 153.018 245.316 153.018C246.24 153.018 246.977 153.251 247.528 153.718C248.078 154.185 248.349 154.81 248.34 155.594C248.34 156.135 248.2 156.616 247.92 157.036C247.64 157.447 247.252 157.745 246.758 157.932ZM253.738 163.112C252.59 163.112 251.713 162.683 251.106 161.824C250.509 160.965 250.21 159.715 250.21 158.072C250.21 156.42 250.509 155.165 251.106 154.306C251.713 153.447 252.59 153.018 253.738 153.018C254.886 153.018 255.759 153.447 256.356 154.306C256.963 155.155 257.266 156.406 257.266 158.058C257.266 159.71 256.963 160.965 256.356 161.824C255.759 162.683 254.886 163.112 253.738 163.112ZM253.738 161.95C254.457 161.95 254.984 161.637 255.32 161.012C255.656 160.387 255.824 159.402 255.824 158.058C255.824 156.714 255.656 155.734 255.32 155.118C254.984 154.493 254.457 154.18 253.738 154.18C253.019 154.18 252.492 154.493 252.156 155.118C251.82 155.734 251.652 156.714 251.652 158.058C251.652 159.393 251.82 160.377 252.156 161.012C252.492 161.637 253.019 161.95 253.738 161.95ZM267.789 162.16C267.835 162.272 267.859 162.365 267.859 162.44C267.859 162.617 267.784 162.767 267.635 162.888C267.495 163.009 267.336 163.07 267.159 163.07C267.037 163.07 266.921 163.037 266.809 162.972C266.706 162.897 266.627 162.795 266.571 162.664L265.647 160.564H260.523L259.599 162.664C259.543 162.795 259.459 162.897 259.347 162.972C259.235 163.037 259.118 163.07 258.997 163.07C258.81 163.07 258.642 163.009 258.493 162.888C258.353 162.767 258.283 162.617 258.283 162.44C258.283 162.365 258.306 162.272 258.353 162.16L262.301 153.522C262.366 153.373 262.469 153.256 262.609 153.172C262.758 153.088 262.912 153.046 263.071 153.046C263.229 153.046 263.379 153.088 263.519 153.172C263.668 153.256 263.775 153.373 263.841 153.522L267.789 162.16ZM261.041 159.416H265.143L263.085 154.782L261.041 159.416ZM278.126 153.06C278.331 153.06 278.499 153.13 278.63 153.27C278.761 153.401 278.826 153.573 278.826 153.788V162.384C278.826 162.599 278.765 162.767 278.644 162.888C278.532 163.009 278.373 163.07 278.168 163.07C277.972 163.07 277.818 163.009 277.706 162.888C277.594 162.767 277.538 162.599 277.538 162.384V155.874L274.794 161.096C274.617 161.423 274.388 161.586 274.108 161.586C273.828 161.586 273.599 161.423 273.422 161.096L270.664 155.93V162.384C270.664 162.599 270.608 162.767 270.496 162.888C270.384 163.009 270.225 163.07 270.02 163.07C269.824 163.07 269.665 163.009 269.544 162.888C269.432 162.757 269.376 162.589 269.376 162.384V153.788C269.376 153.573 269.441 153.401 269.572 153.27C269.703 153.13 269.871 153.06 270.076 153.06C270.365 153.06 270.599 153.228 270.776 153.564L274.122 159.962L277.44 153.564C277.617 153.228 277.846 153.06 278.126 153.06Z" fill="#00BEE7"/>
<path d="M223.453 180.15C223.613 180.15 223.733 180.187 223.813 180.26C223.893 180.333 223.933 180.437 223.933 180.57C223.933 180.857 223.773 181 223.453 181H220.113C219.786 181 219.623 180.857 219.623 180.57C219.623 180.437 219.663 180.333 219.743 180.26C219.83 180.187 219.953 180.15 220.113 180.15H221.263V175.16L220.233 175.81C220.166 175.85 220.1 175.87 220.033 175.87C219.92 175.87 219.82 175.82 219.733 175.72C219.653 175.62 219.613 175.507 219.613 175.38C219.613 175.227 219.68 175.107 219.813 175.02L221.353 174.04C221.506 173.947 221.653 173.9 221.793 173.9C221.94 173.9 222.06 173.947 222.153 174.04C222.246 174.133 222.293 174.26 222.293 174.42V180.15H223.453ZM227.489 181.08C226.669 181.08 226.043 180.773 225.609 180.16C225.183 179.547 224.969 178.653 224.969 177.48C224.969 176.3 225.183 175.403 225.609 174.79C226.043 174.177 226.669 173.87 227.489 173.87C228.309 173.87 228.933 174.177 229.359 174.79C229.793 175.397 230.009 176.29 230.009 177.47C230.009 178.65 229.793 179.547 229.359 180.16C228.933 180.773 228.309 181.08 227.489 181.08ZM227.489 180.25C228.003 180.25 228.379 180.027 228.619 179.58C228.859 179.133 228.979 178.43 228.979 177.47C228.979 176.51 228.859 175.81 228.619 175.37C228.379 174.923 228.003 174.7 227.489 174.7C226.976 174.7 226.599 174.923 226.359 175.37C226.119 175.81 225.999 176.51 225.999 177.47C225.999 178.423 226.119 179.127 226.359 179.58C226.599 180.027 226.976 180.25 227.489 180.25ZM240.162 180.4C240.195 180.48 240.212 180.547 240.212 180.6C240.212 180.727 240.159 180.833 240.052 180.92C239.952 181.007 239.839 181.05 239.712 181.05C239.625 181.05 239.542 181.027 239.462 180.98C239.389 180.927 239.332 180.853 239.292 180.76L238.632 179.26H234.972L234.312 180.76C234.272 180.853 234.212 180.927 234.132 180.98C234.052 181.027 233.969 181.05 233.882 181.05C233.749 181.05 233.629 181.007 233.522 180.92C233.422 180.833 233.372 180.727 233.372 180.6C233.372 180.547 233.389 180.48 233.422 180.4L236.242 174.23C236.289 174.123 236.362 174.04 236.462 173.98C236.569 173.92 236.679 173.89 236.792 173.89C236.905 173.89 237.012 173.92 237.112 173.98C237.219 174.04 237.295 174.123 237.342 174.23L240.162 180.4ZM235.342 178.44H238.272L236.802 175.13L235.342 178.44ZM245.782 174.17C245.868 173.983 246.012 173.89 246.212 173.89C246.345 173.89 246.465 173.937 246.572 174.03C246.678 174.117 246.732 174.223 246.732 174.35C246.732 174.397 246.715 174.46 246.682 174.54L243.862 180.72C243.815 180.827 243.742 180.91 243.642 180.97C243.542 181.03 243.435 181.06 243.322 181.06C243.208 181.06 243.098 181.03 242.992 180.97C242.892 180.91 242.818 180.827 242.772 180.72L239.962 174.54C239.928 174.46 239.912 174.397 239.912 174.35C239.912 174.217 239.965 174.107 240.072 174.02C240.185 173.933 240.308 173.89 240.442 173.89C240.648 173.89 240.795 173.983 240.882 174.17L243.332 179.66L245.782 174.17ZM253.209 180.4C253.242 180.48 253.259 180.547 253.259 180.6C253.259 180.727 253.206 180.833 253.099 180.92C252.999 181.007 252.886 181.05 252.759 181.05C252.672 181.05 252.589 181.027 252.509 180.98C252.436 180.927 252.379 180.853 252.339 180.76L251.679 179.26H248.019L247.359 180.76C247.319 180.853 247.259 180.927 247.179 180.98C247.099 181.027 247.016 181.05 246.929 181.05C246.796 181.05 246.676 181.007 246.569 180.92C246.469 180.833 246.419 180.727 246.419 180.6C246.419 180.547 246.436 180.48 246.469 180.4L249.289 174.23C249.336 174.123 249.409 174.04 249.509 173.98C249.616 173.92 249.726 173.89 249.839 173.89C249.952 173.89 250.059 173.92 250.159 173.98C250.266 174.04 250.342 174.123 250.389 174.23L253.209 180.4ZM248.389 178.44H251.319L249.849 175.13L248.389 178.44ZM254.843 181.05C254.689 181.05 254.566 181.003 254.473 180.91C254.379 180.817 254.333 180.69 254.333 180.53V174.42C254.333 174.267 254.379 174.143 254.473 174.05C254.566 173.95 254.689 173.9 254.843 173.9C255.003 173.9 255.129 173.947 255.223 174.04C255.316 174.133 255.363 174.26 255.363 174.42V180.53C255.363 180.69 255.316 180.817 255.223 180.91C255.136 181.003 255.009 181.05 254.843 181.05ZM257.499 181C257.345 181 257.222 180.957 257.129 180.87C257.042 180.783 256.999 180.667 256.999 180.52V174.42C256.999 174.267 257.045 174.143 257.139 174.05C257.232 173.95 257.355 173.9 257.509 173.9C257.669 173.9 257.795 173.947 257.889 174.04C257.982 174.133 258.029 174.26 258.029 174.42V180.14H261.069C261.222 180.14 261.339 180.177 261.419 180.25C261.505 180.323 261.549 180.43 261.549 180.57C261.549 180.71 261.505 180.817 261.419 180.89C261.339 180.963 261.222 181 261.069 181H257.499ZM268.58 180.4C268.613 180.48 268.63 180.547 268.63 180.6C268.63 180.727 268.577 180.833 268.47 180.92C268.37 181.007 268.257 181.05 268.13 181.05C268.043 181.05 267.96 181.027 267.88 180.98C267.807 180.927 267.75 180.853 267.71 180.76L267.05 179.26H263.39L262.73 180.76C262.69 180.853 262.63 180.927 262.55 180.98C262.47 181.027 262.387 181.05 262.3 181.05C262.167 181.05 262.047 181.007 261.94 180.92C261.84 180.833 261.79 180.727 261.79 180.6C261.79 180.547 261.807 180.48 261.84 180.4L264.66 174.23C264.707 174.123 264.78 174.04 264.88 173.98C264.987 173.92 265.097 173.89 265.21 173.89C265.323 173.89 265.43 173.92 265.53 173.98C265.637 174.04 265.713 174.123 265.76 174.23L268.58 180.4ZM263.76 178.44H266.69L265.22 175.13L263.76 178.44ZM273.854 177.37C274.26 177.483 274.574 177.687 274.794 177.98C275.02 178.273 275.134 178.64 275.134 179.08C275.134 179.687 274.924 180.16 274.504 180.5C274.09 180.833 273.51 181 272.764 181H270.214C270.054 181 269.927 180.957 269.834 180.87C269.747 180.777 269.704 180.653 269.704 180.5V174.45C269.704 174.297 269.747 174.177 269.834 174.09C269.927 173.997 270.054 173.95 270.214 173.95H272.654C273.38 173.95 273.947 174.113 274.354 174.44C274.767 174.76 274.974 175.21 274.974 175.79C274.974 176.163 274.874 176.487 274.674 176.76C274.48 177.033 274.207 177.237 273.854 177.37ZM270.714 177H272.494C273.48 177 273.974 176.627 273.974 175.88C273.974 175.507 273.85 175.23 273.604 175.05C273.364 174.87 272.994 174.78 272.494 174.78H270.714V177ZM272.654 180.17C273.167 180.17 273.544 180.077 273.784 179.89C274.024 179.703 274.144 179.413 274.144 179.02C274.144 178.62 274.02 178.323 273.774 178.13C273.534 177.93 273.16 177.83 272.654 177.83H270.714V180.17H272.654ZM276.991 181C276.831 181 276.704 180.957 276.611 180.87C276.524 180.777 276.481 180.653 276.481 180.5V174.45C276.481 174.297 276.524 174.177 276.611 174.09C276.704 173.997 276.831 173.95 276.991 173.95H280.671C280.824 173.95 280.941 173.987 281.021 174.06C281.108 174.133 281.151 174.237 281.151 174.37C281.151 174.503 281.108 174.607 281.021 174.68C280.941 174.747 280.824 174.78 280.671 174.78H277.491V177H280.471C280.624 177 280.741 177.037 280.821 177.11C280.908 177.183 280.951 177.287 280.951 177.42C280.951 177.553 280.908 177.657 280.821 177.73C280.741 177.803 280.624 177.84 280.471 177.84H277.491V180.17H280.671C280.991 180.17 281.151 180.307 281.151 180.58C281.151 180.713 281.108 180.817 281.021 180.89C280.941 180.963 280.824 181 280.671 181H276.991Z" fill="#00BEE7"/>
<path d="M227.41 247.544C227.97 247.544 228.25 247.782 228.25 248.258C228.25 248.753 227.97 249 227.41 249H222.678C222.108 249 221.824 248.753 221.824 248.258C221.824 247.782 222.108 247.544 222.678 247.544H224.134V241.16L222.79 241.986C222.659 242.061 222.542 242.098 222.44 242.098C222.244 242.098 222.076 242.014 221.936 241.846C221.805 241.678 221.74 241.491 221.74 241.286C221.74 241.015 221.861 240.805 222.104 240.656L224.274 239.312C224.554 239.144 224.82 239.06 225.072 239.06C225.333 239.06 225.543 239.139 225.702 239.298C225.86 239.457 225.94 239.676 225.94 239.956V247.544H227.41ZM235.804 247.544C236.364 247.544 236.644 247.782 236.644 248.258C236.644 248.753 236.364 249 235.804 249H231.072C230.503 249 230.218 248.753 230.218 248.258C230.218 247.782 230.503 247.544 231.072 247.544H232.528V241.16L231.184 241.986C231.053 242.061 230.937 242.098 230.834 242.098C230.638 242.098 230.47 242.014 230.33 241.846C230.199 241.678 230.134 241.491 230.134 241.286C230.134 241.015 230.255 240.805 230.498 240.656L232.668 239.312C232.948 239.144 233.214 239.06 233.466 239.06C233.727 239.06 233.937 239.139 234.096 239.298C234.255 239.457 234.334 239.676 234.334 239.956V247.544H235.804ZM238.921 244.1C238.622 244.1 238.375 244.002 238.179 243.806C237.983 243.601 237.885 243.349 237.885 243.05C237.885 242.751 237.983 242.504 238.179 242.308C238.375 242.112 238.622 242.014 238.921 242.014C239.219 242.014 239.467 242.112 239.663 242.308C239.859 242.504 239.957 242.751 239.957 243.05C239.957 243.349 239.859 243.601 239.663 243.806C239.467 244.002 239.219 244.1 238.921 244.1ZM238.921 249.084C238.622 249.084 238.375 248.986 238.179 248.79C237.983 248.585 237.885 248.333 237.885 248.034C237.885 247.735 237.983 247.488 238.179 247.292C238.375 247.087 238.622 246.984 238.921 246.984C239.219 246.984 239.467 247.087 239.663 247.292C239.859 247.488 239.957 247.735 239.957 248.034C239.957 248.333 239.859 248.585 239.663 248.79C239.467 248.986 239.219 249.084 238.921 249.084ZM244.857 249.126C243.691 249.126 242.799 248.697 242.183 247.838C241.567 246.97 241.259 245.71 241.259 244.058C241.259 242.415 241.567 241.165 242.183 240.306C242.799 239.438 243.691 239.004 244.857 239.004C246.024 239.004 246.915 239.438 247.531 240.306C248.147 241.165 248.455 242.415 248.455 244.058C248.455 245.701 248.147 246.956 247.531 247.824C246.915 248.692 246.024 249.126 244.857 249.126ZM244.857 247.712C245.492 247.712 245.954 247.423 246.243 246.844C246.533 246.256 246.677 245.327 246.677 244.058C246.677 242.779 246.533 241.855 246.243 241.286C245.954 240.707 245.492 240.418 244.857 240.418C244.223 240.418 243.761 240.707 243.471 241.286C243.182 241.865 243.037 242.789 243.037 244.058C243.037 245.327 243.182 246.256 243.471 246.844C243.761 247.423 244.223 247.712 244.857 247.712ZM253.252 249.126C252.085 249.126 251.194 248.697 250.578 247.838C249.962 246.97 249.654 245.71 249.654 244.058C249.654 242.415 249.962 241.165 250.578 240.306C251.194 239.438 252.085 239.004 253.252 239.004C254.418 239.004 255.31 239.438 255.926 240.306C256.542 241.165 256.85 242.415 256.85 244.058C256.85 245.701 256.542 246.956 255.926 247.824C255.31 248.692 254.418 249.126 253.252 249.126ZM253.252 247.712C253.886 247.712 254.348 247.423 254.638 246.844C254.927 246.256 255.072 245.327 255.072 244.058C255.072 242.779 254.927 241.855 254.638 241.286C254.348 240.707 253.886 240.418 253.252 240.418C252.617 240.418 252.155 240.707 251.866 241.286C251.576 241.865 251.432 242.789 251.432 244.058C251.432 245.327 251.576 246.256 251.866 246.844C252.155 247.423 252.617 247.712 253.252 247.712ZM267.456 247.922C267.512 248.043 267.54 248.165 267.54 248.286C267.54 248.501 267.452 248.683 267.274 248.832C267.106 248.981 266.91 249.056 266.686 249.056C266.537 249.056 266.397 249.019 266.266 248.944C266.136 248.86 266.033 248.734 265.958 248.566L265.118 246.69H260.19L259.35 248.566C259.276 248.734 259.173 248.86 259.042 248.944C258.912 249.019 258.767 249.056 258.608 249.056C258.394 249.056 258.198 248.981 258.02 248.832C257.843 248.683 257.754 248.501 257.754 248.286C257.754 248.165 257.782 248.043 257.838 247.922L261.702 239.62C261.786 239.433 261.912 239.293 262.08 239.2C262.258 239.097 262.444 239.046 262.64 239.046C262.836 239.046 263.018 239.097 263.186 239.2C263.364 239.293 263.494 239.433 263.578 239.62L267.456 247.922ZM260.806 245.29H264.502L262.654 241.132L260.806 245.29ZM277.665 239.06C277.926 239.06 278.136 239.144 278.295 239.312C278.454 239.471 278.533 239.685 278.533 239.956V248.244C278.533 248.505 278.458 248.711 278.309 248.86C278.16 249.009 277.964 249.084 277.721 249.084C277.478 249.084 277.287 249.009 277.147 248.86C277.007 248.711 276.937 248.505 276.937 248.244V242.476L274.557 246.984C274.445 247.189 274.324 247.343 274.193 247.446C274.062 247.539 273.908 247.586 273.731 247.586C273.554 247.586 273.4 247.539 273.269 247.446C273.138 247.353 273.017 247.199 272.905 246.984L270.511 242.546V248.244C270.511 248.496 270.436 248.701 270.287 248.86C270.147 249.009 269.956 249.084 269.713 249.084C269.47 249.084 269.279 249.009 269.139 248.86C268.999 248.711 268.929 248.505 268.929 248.244V239.956C268.929 239.685 269.004 239.471 269.153 239.312C269.312 239.144 269.522 239.06 269.783 239.06C270.147 239.06 270.432 239.261 270.637 239.662L273.745 245.584L276.839 239.662C277.044 239.261 277.32 239.06 277.665 239.06Z" fill="white"/>
<path d="M225.46 263.38C225.874 263.493 226.19 263.7 226.41 264C226.637 264.3 226.75 264.667 226.75 265.1C226.75 265.72 226.517 266.207 226.05 266.56C225.584 266.907 224.937 267.08 224.11 267.08C223.284 267.08 222.637 266.907 222.17 266.56C221.704 266.207 221.47 265.72 221.47 265.1C221.47 264.667 221.584 264.3 221.81 264C222.037 263.693 222.357 263.487 222.77 263.38C222.417 263.247 222.14 263.04 221.94 262.76C221.74 262.473 221.64 262.14 221.64 261.76C221.64 261.173 221.86 260.71 222.3 260.37C222.74 260.03 223.344 259.86 224.11 259.86C224.877 259.86 225.48 260.03 225.92 260.37C226.36 260.71 226.58 261.173 226.58 261.76C226.58 262.147 226.48 262.483 226.28 262.77C226.08 263.057 225.807 263.26 225.46 263.38ZM224.11 260.87C223.277 260.87 222.86 261.21 222.86 261.89C222.86 262.23 222.964 262.49 223.17 262.67C223.384 262.843 223.697 262.93 224.11 262.93C224.524 262.93 224.834 262.843 225.04 262.67C225.254 262.49 225.36 262.23 225.36 261.89C225.36 261.21 224.944 260.87 224.11 260.87ZM224.11 266.07C225.064 266.07 225.54 265.713 225.54 265C225.54 264.287 225.064 263.93 224.11 263.93C223.157 263.93 222.68 264.287 222.68 265C222.68 265.713 223.157 266.07 224.11 266.07ZM236.971 266.23C237.011 266.317 237.031 266.403 237.031 266.49C237.031 266.643 236.968 266.773 236.841 266.88C236.721 266.987 236.581 267.04 236.421 267.04C236.315 267.04 236.215 267.013 236.121 266.96C236.028 266.9 235.955 266.81 235.901 266.69L235.301 265.35H231.781L231.181 266.69C231.128 266.81 231.055 266.9 230.961 266.96C230.868 267.013 230.765 267.04 230.651 267.04C230.498 267.04 230.358 266.987 230.231 266.88C230.105 266.773 230.041 266.643 230.041 266.49C230.041 266.403 230.061 266.317 230.101 266.23L232.861 260.3C232.921 260.167 233.011 260.067 233.131 260C233.258 259.927 233.391 259.89 233.531 259.89C233.671 259.89 233.801 259.927 233.921 260C234.048 260.067 234.141 260.167 234.201 260.3L236.971 266.23ZM232.221 264.35H234.861L233.541 261.38L232.221 264.35ZM242.459 260.23C242.566 260.003 242.743 259.89 242.989 259.89C243.156 259.89 243.306 259.943 243.439 260.05C243.573 260.157 243.639 260.29 243.639 260.45C243.639 260.523 243.619 260.607 243.579 260.7L240.809 266.66C240.749 266.787 240.656 266.887 240.529 266.96C240.409 267.027 240.279 267.06 240.139 267.06C239.999 267.06 239.866 267.027 239.739 266.96C239.619 266.887 239.529 266.787 239.469 266.66L236.709 260.7C236.669 260.607 236.649 260.527 236.649 260.46C236.649 260.293 236.716 260.157 236.849 260.05C236.989 259.943 237.146 259.89 237.319 259.89C237.433 259.89 237.536 259.92 237.629 259.98C237.729 260.033 237.806 260.117 237.859 260.23L240.159 265.34L242.459 260.23ZM250.184 266.23C250.224 266.317 250.244 266.403 250.244 266.49C250.244 266.643 250.181 266.773 250.054 266.88C249.934 266.987 249.794 267.04 249.634 267.04C249.528 267.04 249.428 267.013 249.334 266.96C249.241 266.9 249.168 266.81 249.114 266.69L248.514 265.35H244.994L244.394 266.69C244.341 266.81 244.268 266.9 244.174 266.96C244.081 267.013 243.978 267.04 243.864 267.04C243.711 267.04 243.571 266.987 243.444 266.88C243.318 266.773 243.254 266.643 243.254 266.49C243.254 266.403 243.274 266.317 243.314 266.23L246.074 260.3C246.134 260.167 246.224 260.067 246.344 260C246.471 259.927 246.604 259.89 246.744 259.89C246.884 259.89 247.014 259.927 247.134 260C247.261 260.067 247.354 260.167 247.414 260.3L250.184 266.23ZM245.434 264.35H248.074L246.754 261.38L245.434 264.35ZM251.856 267.06C251.663 267.06 251.506 267 251.386 266.88C251.273 266.76 251.216 266.603 251.216 266.41V260.54C251.216 260.347 251.273 260.193 251.386 260.08C251.506 259.96 251.663 259.9 251.856 259.9C252.056 259.9 252.213 259.96 252.326 260.08C252.446 260.193 252.506 260.347 252.506 260.54V266.41C252.506 266.603 252.446 266.76 252.326 266.88C252.213 267 252.056 267.06 251.856 267.06ZM254.639 267C254.445 267 254.295 266.947 254.189 266.84C254.082 266.733 254.029 266.587 254.029 266.4V260.54C254.029 260.347 254.085 260.193 254.199 260.08C254.319 259.96 254.475 259.9 254.669 259.9C254.869 259.9 255.025 259.96 255.139 260.08C255.259 260.193 255.319 260.347 255.319 260.54V265.94H258.129C258.529 265.94 258.729 266.117 258.729 266.47C258.729 266.823 258.529 267 258.129 267H254.639ZM265.907 266.23C265.947 266.317 265.967 266.403 265.967 266.49C265.967 266.643 265.904 266.773 265.777 266.88C265.657 266.987 265.517 267.04 265.357 267.04C265.25 267.04 265.15 267.013 265.057 266.96C264.964 266.9 264.89 266.81 264.837 266.69L264.237 265.35H260.717L260.117 266.69C260.064 266.81 259.99 266.9 259.897 266.96C259.804 267.013 259.7 267.04 259.587 267.04C259.434 267.04 259.294 266.987 259.167 266.88C259.04 266.773 258.977 266.643 258.977 266.49C258.977 266.403 258.997 266.317 259.037 266.23L261.797 260.3C261.857 260.167 261.947 260.067 262.067 260C262.194 259.927 262.327 259.89 262.467 259.89C262.607 259.89 262.737 259.927 262.857 260C262.984 260.067 263.077 260.167 263.137 260.3L265.907 266.23ZM261.157 264.35H263.797L262.477 261.38L261.157 264.35ZM271.279 263.36C271.685 263.473 271.999 263.68 272.219 263.98C272.445 264.28 272.559 264.647 272.559 265.08C272.559 265.68 272.342 266.15 271.909 266.49C271.482 266.83 270.892 267 270.139 267H267.559C267.365 267 267.212 266.947 267.099 266.84C266.992 266.733 266.939 266.583 266.939 266.39V260.56C266.939 260.367 266.992 260.217 267.099 260.11C267.212 260.003 267.365 259.95 267.559 259.95H270.039C270.772 259.95 271.345 260.113 271.759 260.44C272.179 260.76 272.389 261.21 272.389 261.79C272.389 262.163 272.289 262.487 272.089 262.76C271.895 263.033 271.625 263.233 271.279 263.36ZM268.199 262.92H269.829C270.715 262.92 271.159 262.59 271.159 261.93C271.159 261.597 271.049 261.35 270.829 261.19C270.609 261.03 270.275 260.95 269.829 260.95H268.199V262.92ZM269.999 266C270.465 266 270.805 265.917 271.019 265.75C271.232 265.583 271.339 265.323 271.339 264.97C271.339 264.617 271.229 264.353 271.009 264.18C270.795 264.007 270.459 263.92 269.999 263.92H268.199V266H269.999ZM274.385 267C274.192 267 274.038 266.947 273.925 266.84C273.818 266.733 273.765 266.583 273.765 266.39V260.56C273.765 260.367 273.818 260.217 273.925 260.11C274.038 260.003 274.192 259.95 274.385 259.95H277.995C278.188 259.95 278.338 259.993 278.445 260.08C278.552 260.167 278.605 260.29 278.605 260.45C278.605 260.617 278.552 260.747 278.445 260.84C278.338 260.927 278.188 260.97 277.995 260.97H275.025V262.91H277.795C277.988 262.91 278.138 262.953 278.245 263.04C278.352 263.127 278.405 263.253 278.405 263.42C278.405 263.58 278.352 263.703 278.245 263.79C278.138 263.877 277.988 263.92 277.795 263.92H275.025V265.98H277.995C278.188 265.98 278.338 266.027 278.445 266.12C278.552 266.207 278.605 266.333 278.605 266.5C278.605 266.66 278.552 266.783 278.445 266.87C278.338 266.957 278.188 267 277.995 267H274.385Z" fill="white"/>
<path d="M351.963 161.81C352.187 161.81 352.355 161.861 352.467 161.964C352.579 162.067 352.635 162.211 352.635 162.398C352.635 162.799 352.411 163 351.963 163H347.287C346.829 163 346.601 162.799 346.601 162.398C346.601 162.211 346.657 162.067 346.769 161.964C346.89 161.861 347.063 161.81 347.287 161.81H348.897V154.824L347.455 155.734C347.361 155.79 347.268 155.818 347.175 155.818C347.016 155.818 346.876 155.748 346.755 155.608C346.643 155.468 346.587 155.309 346.587 155.132C346.587 154.917 346.68 154.749 346.867 154.628L349.023 153.256C349.237 153.125 349.443 153.06 349.639 153.06C349.844 153.06 350.012 153.125 350.143 153.256C350.273 153.387 350.339 153.564 350.339 153.788V161.81H351.963ZM357.613 163.112C356.465 163.112 355.588 162.683 354.981 161.824C354.384 160.965 354.085 159.715 354.085 158.072C354.085 156.42 354.384 155.165 354.981 154.306C355.588 153.447 356.465 153.018 357.613 153.018C358.761 153.018 359.634 153.447 360.231 154.306C360.838 155.155 361.141 156.406 361.141 158.058C361.141 159.71 360.838 160.965 360.231 161.824C359.634 162.683 358.761 163.112 357.613 163.112ZM357.613 161.95C358.332 161.95 358.859 161.637 359.195 161.012C359.531 160.387 359.699 159.402 359.699 158.058C359.699 156.714 359.531 155.734 359.195 155.118C358.859 154.493 358.332 154.18 357.613 154.18C356.894 154.18 356.367 154.493 356.031 155.118C355.695 155.734 355.527 156.714 355.527 158.058C355.527 159.393 355.695 160.377 356.031 161.012C356.367 161.637 356.894 161.95 357.613 161.95ZM363.474 157.834C363.222 157.834 363.007 157.75 362.83 157.582C362.662 157.414 362.578 157.199 362.578 156.938C362.578 156.677 362.662 156.462 362.83 156.294C363.007 156.117 363.222 156.028 363.474 156.028C363.726 156.028 363.936 156.117 364.104 156.294C364.272 156.462 364.356 156.677 364.356 156.938C364.356 157.199 364.272 157.414 364.104 157.582C363.936 157.75 363.726 157.834 363.474 157.834ZM363.474 163.07C363.222 163.07 363.007 162.986 362.83 162.818C362.662 162.65 362.578 162.435 362.578 162.174C362.578 161.913 362.662 161.698 362.83 161.53C363.007 161.353 363.222 161.264 363.474 161.264C363.726 161.264 363.936 161.353 364.104 161.53C364.272 161.698 364.356 161.913 364.356 162.174C364.356 162.435 364.272 162.65 364.104 162.818C363.936 162.986 363.726 163.07 363.474 163.07ZM369.344 163.112C368.196 163.112 367.318 162.683 366.712 161.824C366.114 160.965 365.816 159.715 365.816 158.072C365.816 156.42 366.114 155.165 366.712 154.306C367.318 153.447 368.196 153.018 369.344 153.018C370.492 153.018 371.364 153.447 371.962 154.306C372.568 155.155 372.872 156.406 372.872 158.058C372.872 159.71 372.568 160.965 371.962 161.824C371.364 162.683 370.492 163.112 369.344 163.112ZM369.344 161.95C370.062 161.95 370.59 161.637 370.926 161.012C371.262 160.387 371.43 159.402 371.43 158.058C371.43 156.714 371.262 155.734 370.926 155.118C370.59 154.493 370.062 154.18 369.344 154.18C368.625 154.18 368.098 154.493 367.762 155.118C367.426 155.734 367.258 156.714 367.258 158.058C367.258 159.393 367.426 160.377 367.762 161.012C368.098 161.637 368.625 161.95 369.344 161.95ZM377.738 163.112C376.59 163.112 375.713 162.683 375.106 161.824C374.509 160.965 374.21 159.715 374.21 158.072C374.21 156.42 374.509 155.165 375.106 154.306C375.713 153.447 376.59 153.018 377.738 153.018C378.886 153.018 379.759 153.447 380.356 154.306C380.963 155.155 381.266 156.406 381.266 158.058C381.266 159.71 380.963 160.965 380.356 161.824C379.759 162.683 378.886 163.112 377.738 163.112ZM377.738 161.95C378.457 161.95 378.984 161.637 379.32 161.012C379.656 160.387 379.824 159.402 379.824 158.058C379.824 156.714 379.656 155.734 379.32 155.118C378.984 154.493 378.457 154.18 377.738 154.18C377.019 154.18 376.492 154.493 376.156 155.118C375.82 155.734 375.652 156.714 375.652 158.058C375.652 159.393 375.82 160.377 376.156 161.012C376.492 161.637 377.019 161.95 377.738 161.95ZM391.789 162.16C391.835 162.272 391.859 162.365 391.859 162.44C391.859 162.617 391.784 162.767 391.635 162.888C391.495 163.009 391.336 163.07 391.159 163.07C391.037 163.07 390.921 163.037 390.809 162.972C390.706 162.897 390.627 162.795 390.571 162.664L389.647 160.564H384.523L383.599 162.664C383.543 162.795 383.459 162.897 383.347 162.972C383.235 163.037 383.118 163.07 382.997 163.07C382.81 163.07 382.642 163.009 382.493 162.888C382.353 162.767 382.283 162.617 382.283 162.44C382.283 162.365 382.306 162.272 382.353 162.16L386.301 153.522C386.366 153.373 386.469 153.256 386.609 153.172C386.758 153.088 386.912 153.046 387.071 153.046C387.229 153.046 387.379 153.088 387.519 153.172C387.668 153.256 387.775 153.373 387.841 153.522L391.789 162.16ZM385.041 159.416H389.143L387.085 154.782L385.041 159.416ZM402.126 153.06C402.331 153.06 402.499 153.13 402.63 153.27C402.761 153.401 402.826 153.573 402.826 153.788V162.384C402.826 162.599 402.765 162.767 402.644 162.888C402.532 163.009 402.373 163.07 402.168 163.07C401.972 163.07 401.818 163.009 401.706 162.888C401.594 162.767 401.538 162.599 401.538 162.384V155.874L398.794 161.096C398.617 161.423 398.388 161.586 398.108 161.586C397.828 161.586 397.599 161.423 397.422 161.096L394.664 155.93V162.384C394.664 162.599 394.608 162.767 394.496 162.888C394.384 163.009 394.225 163.07 394.02 163.07C393.824 163.07 393.665 163.009 393.544 162.888C393.432 162.757 393.376 162.589 393.376 162.384V153.788C393.376 153.573 393.441 153.401 393.572 153.27C393.703 153.13 393.871 153.06 394.076 153.06C394.365 153.06 394.599 153.228 394.776 153.564L398.122 159.962L401.44 153.564C401.617 153.228 401.846 153.06 402.126 153.06Z" fill="#00BEE7"/>
<path d="M345.219 180.15C345.379 180.15 345.499 180.187 345.579 180.26C345.659 180.333 345.699 180.437 345.699 180.57C345.699 180.857 345.539 181 345.219 181H341.879C341.552 181 341.389 180.857 341.389 180.57C341.389 180.437 341.429 180.333 341.509 180.26C341.595 180.187 341.719 180.15 341.879 180.15H343.029V175.16L341.999 175.81C341.932 175.85 341.865 175.87 341.799 175.87C341.685 175.87 341.585 175.82 341.499 175.72C341.419 175.62 341.379 175.507 341.379 175.38C341.379 175.227 341.445 175.107 341.579 175.02L343.119 174.04C343.272 173.947 343.419 173.9 343.559 173.9C343.705 173.9 343.825 173.947 343.919 174.04C344.012 174.133 344.059 174.26 344.059 174.42V180.15H345.219ZM349.255 181.08C348.435 181.08 347.808 180.773 347.375 180.16C346.948 179.547 346.735 178.653 346.735 177.48C346.735 176.3 346.948 175.403 347.375 174.79C347.808 174.177 348.435 173.87 349.255 173.87C350.075 173.87 350.698 174.177 351.125 174.79C351.558 175.397 351.775 176.29 351.775 177.47C351.775 178.65 351.558 179.547 351.125 180.16C350.698 180.773 350.075 181.08 349.255 181.08ZM349.255 180.25C349.768 180.25 350.145 180.027 350.385 179.58C350.625 179.133 350.745 178.43 350.745 177.47C350.745 176.51 350.625 175.81 350.385 175.37C350.145 174.923 349.768 174.7 349.255 174.7C348.742 174.7 348.365 174.923 348.125 175.37C347.885 175.81 347.765 176.51 347.765 177.47C347.765 178.423 347.885 179.127 348.125 179.58C348.365 180.027 348.742 180.25 349.255 180.25ZM361.928 180.4C361.961 180.48 361.978 180.547 361.978 180.6C361.978 180.727 361.924 180.833 361.818 180.92C361.718 181.007 361.604 181.05 361.478 181.05C361.391 181.05 361.308 181.027 361.228 180.98C361.154 180.927 361.098 180.853 361.058 180.76L360.398 179.26H356.738L356.078 180.76C356.038 180.853 355.978 180.927 355.898 180.98C355.818 181.027 355.734 181.05 355.648 181.05C355.514 181.05 355.394 181.007 355.288 180.92C355.188 180.833 355.138 180.727 355.138 180.6C355.138 180.547 355.154 180.48 355.188 180.4L358.008 174.23C358.054 174.123 358.128 174.04 358.228 173.98C358.334 173.92 358.444 173.89 358.558 173.89C358.671 173.89 358.778 173.92 358.878 173.98C358.984 174.04 359.061 174.123 359.108 174.23L361.928 180.4ZM357.108 178.44H360.038L358.568 175.13L357.108 178.44ZM367.547 174.17C367.634 173.983 367.777 173.89 367.977 173.89C368.11 173.89 368.23 173.937 368.337 174.03C368.444 174.117 368.497 174.223 368.497 174.35C368.497 174.397 368.48 174.46 368.447 174.54L365.627 180.72C365.58 180.827 365.507 180.91 365.407 180.97C365.307 181.03 365.2 181.06 365.087 181.06C364.974 181.06 364.864 181.03 364.757 180.97C364.657 180.91 364.584 180.827 364.537 180.72L361.727 174.54C361.694 174.46 361.677 174.397 361.677 174.35C361.677 174.217 361.73 174.107 361.837 174.02C361.95 173.933 362.074 173.89 362.207 173.89C362.414 173.89 362.56 173.983 362.647 174.17L365.097 179.66L367.547 174.17ZM374.975 180.4C375.008 180.48 375.025 180.547 375.025 180.6C375.025 180.727 374.971 180.833 374.865 180.92C374.765 181.007 374.651 181.05 374.525 181.05C374.438 181.05 374.355 181.027 374.275 180.98C374.201 180.927 374.145 180.853 374.105 180.76L373.445 179.26H369.785L369.125 180.76C369.085 180.853 369.025 180.927 368.945 180.98C368.865 181.027 368.781 181.05 368.695 181.05C368.561 181.05 368.441 181.007 368.335 180.92C368.235 180.833 368.185 180.727 368.185 180.6C368.185 180.547 368.201 180.48 368.235 180.4L371.055 174.23C371.101 174.123 371.175 174.04 371.275 173.98C371.381 173.92 371.491 173.89 371.605 173.89C371.718 173.89 371.825 173.92 371.925 173.98C372.031 174.04 372.108 174.123 372.155 174.23L374.975 180.4ZM370.155 178.44H373.085L371.615 175.13L370.155 178.44ZM376.608 181.05C376.455 181.05 376.332 181.003 376.238 180.91C376.145 180.817 376.098 180.69 376.098 180.53V174.42C376.098 174.267 376.145 174.143 376.238 174.05C376.332 173.95 376.455 173.9 376.608 173.9C376.768 173.9 376.895 173.947 376.988 174.04C377.082 174.133 377.128 174.26 377.128 174.42V180.53C377.128 180.69 377.082 180.817 376.988 180.91C376.902 181.003 376.775 181.05 376.608 181.05ZM379.264 181C379.111 181 378.988 180.957 378.894 180.87C378.808 180.783 378.764 180.667 378.764 180.52V174.42C378.764 174.267 378.811 174.143 378.904 174.05C378.998 173.95 379.121 173.9 379.274 173.9C379.434 173.9 379.561 173.947 379.654 174.04C379.748 174.133 379.794 174.26 379.794 174.42V180.14H382.834C382.988 180.14 383.104 180.177 383.184 180.25C383.271 180.323 383.314 180.43 383.314 180.57C383.314 180.71 383.271 180.817 383.184 180.89C383.104 180.963 382.988 181 382.834 181H379.264ZM390.346 180.4C390.379 180.48 390.396 180.547 390.396 180.6C390.396 180.727 390.342 180.833 390.236 180.92C390.136 181.007 390.022 181.05 389.896 181.05C389.809 181.05 389.726 181.027 389.646 180.98C389.572 180.927 389.516 180.853 389.476 180.76L388.816 179.26H385.156L384.496 180.76C384.456 180.853 384.396 180.927 384.316 180.98C384.236 181.027 384.152 181.05 384.066 181.05C383.932 181.05 383.812 181.007 383.706 180.92C383.606 180.833 383.556 180.727 383.556 180.6C383.556 180.547 383.572 180.48 383.606 180.4L386.426 174.23C386.472 174.123 386.546 174.04 386.646 173.98C386.752 173.92 386.862 173.89 386.976 173.89C387.089 173.89 387.196 173.92 387.296 173.98C387.402 174.04 387.479 174.123 387.526 174.23L390.346 180.4ZM385.526 178.44H388.456L386.986 175.13L385.526 178.44ZM395.619 177.37C396.026 177.483 396.339 177.687 396.559 177.98C396.786 178.273 396.899 178.64 396.899 179.08C396.899 179.687 396.689 180.16 396.269 180.5C395.856 180.833 395.276 181 394.529 181H391.979C391.819 181 391.693 180.957 391.599 180.87C391.513 180.777 391.469 180.653 391.469 180.5V174.45C391.469 174.297 391.513 174.177 391.599 174.09C391.693 173.997 391.819 173.95 391.979 173.95H394.419C395.146 173.95 395.713 174.113 396.119 174.44C396.533 174.76 396.739 175.21 396.739 175.79C396.739 176.163 396.639 176.487 396.439 176.76C396.246 177.033 395.973 177.237 395.619 177.37ZM392.479 177H394.259C395.246 177 395.739 176.627 395.739 175.88C395.739 175.507 395.616 175.23 395.369 175.05C395.129 174.87 394.759 174.78 394.259 174.78H392.479V177ZM394.419 180.17C394.933 180.17 395.309 180.077 395.549 179.89C395.789 179.703 395.909 179.413 395.909 179.02C395.909 178.62 395.786 178.323 395.539 178.13C395.299 177.93 394.926 177.83 394.419 177.83H392.479V180.17H394.419ZM398.747 181C398.593 181 398.47 180.957 398.377 180.87C398.29 180.783 398.247 180.667 398.247 180.52V174.42C398.247 174.267 398.293 174.143 398.387 174.05C398.48 173.95 398.603 173.9 398.757 173.9C398.917 173.9 399.043 173.947 399.137 174.04C399.23 174.133 399.277 174.26 399.277 174.42V180.14H402.317C402.47 180.14 402.587 180.177 402.667 180.25C402.753 180.323 402.797 180.43 402.797 180.57C402.797 180.71 402.753 180.817 402.667 180.89C402.587 180.963 402.47 181 402.317 181H398.747ZM404.226 181C404.066 181 403.939 180.957 403.846 180.87C403.759 180.777 403.716 180.653 403.716 180.5V174.45C403.716 174.297 403.759 174.177 403.846 174.09C403.939 173.997 404.066 173.95 404.226 173.95H407.906C408.059 173.95 408.176 173.987 408.256 174.06C408.342 174.133 408.386 174.237 408.386 174.37C408.386 174.503 408.342 174.607 408.256 174.68C408.176 174.747 408.059 174.78 407.906 174.78H404.726V177H407.706C407.859 177 407.976 177.037 408.056 177.11C408.142 177.183 408.186 177.287 408.186 177.42C408.186 177.553 408.142 177.657 408.056 177.73C407.976 177.803 407.859 177.84 407.706 177.84H404.726V180.17H407.906C408.226 180.17 408.386 180.307 408.386 180.58C408.386 180.713 408.342 180.817 408.256 180.89C408.176 180.963 408.059 181 407.906 181H404.226Z" fill="#00BEE7"/>
<path d="M351.963 247.81C352.187 247.81 352.355 247.861 352.467 247.964C352.579 248.067 352.635 248.211 352.635 248.398C352.635 248.799 352.411 249 351.963 249H347.287C346.829 249 346.601 248.799 346.601 248.398C346.601 248.211 346.657 248.067 346.769 247.964C346.89 247.861 347.063 247.81 347.287 247.81H348.897V240.824L347.455 241.734C347.361 241.79 347.268 241.818 347.175 241.818C347.016 241.818 346.876 241.748 346.755 241.608C346.643 241.468 346.587 241.309 346.587 241.132C346.587 240.917 346.68 240.749 346.867 240.628L349.023 239.256C349.237 239.125 349.443 239.06 349.639 239.06C349.844 239.06 350.012 239.125 350.143 239.256C350.273 239.387 350.339 239.564 350.339 239.788V247.81H351.963ZM360.357 247.81C360.581 247.81 360.749 247.861 360.861 247.964C360.973 248.067 361.029 248.211 361.029 248.398C361.029 248.799 360.805 249 360.357 249H355.681C355.224 249 354.995 248.799 354.995 248.398C354.995 248.211 355.051 248.067 355.163 247.964C355.284 247.861 355.457 247.81 355.681 247.81H357.291V240.824L355.849 241.734C355.756 241.79 355.662 241.818 355.569 241.818C355.41 241.818 355.27 241.748 355.149 241.608C355.037 241.468 354.981 241.309 354.981 241.132C354.981 240.917 355.074 240.749 355.261 240.628L357.417 239.256C357.632 239.125 357.837 239.06 358.033 239.06C358.238 239.06 358.406 239.125 358.537 239.256C358.668 239.387 358.733 239.564 358.733 239.788V247.81H360.357ZM363.474 243.834C363.222 243.834 363.007 243.75 362.83 243.582C362.662 243.414 362.578 243.199 362.578 242.938C362.578 242.677 362.662 242.462 362.83 242.294C363.007 242.117 363.222 242.028 363.474 242.028C363.726 242.028 363.936 242.117 364.104 242.294C364.272 242.462 364.356 242.677 364.356 242.938C364.356 243.199 364.272 243.414 364.104 243.582C363.936 243.75 363.726 243.834 363.474 243.834ZM363.474 249.07C363.222 249.07 363.007 248.986 362.83 248.818C362.662 248.65 362.578 248.435 362.578 248.174C362.578 247.913 362.662 247.698 362.83 247.53C363.007 247.353 363.222 247.264 363.474 247.264C363.726 247.264 363.936 247.353 364.104 247.53C364.272 247.698 364.356 247.913 364.356 248.174C364.356 248.435 364.272 248.65 364.104 248.818C363.936 248.986 363.726 249.07 363.474 249.07ZM370.758 243.932C371.355 244.1 371.808 244.389 372.116 244.8C372.424 245.201 372.578 245.71 372.578 246.326C372.578 247.185 372.274 247.861 371.668 248.356C371.07 248.851 370.258 249.098 369.232 249.098C368.625 249.098 368.042 249 367.482 248.804C366.931 248.608 366.464 248.337 366.082 247.992C365.895 247.843 365.802 247.656 365.802 247.432C365.802 247.264 365.848 247.124 365.942 247.012C366.035 246.891 366.147 246.83 366.278 246.83C366.418 246.83 366.576 246.891 366.754 247.012C367.155 247.311 367.547 247.539 367.93 247.698C368.322 247.847 368.742 247.922 369.19 247.922C370.515 247.922 371.178 247.357 371.178 246.228C371.178 245.677 371 245.267 370.646 244.996C370.3 244.716 369.773 244.576 369.064 244.576H368.294C368.116 244.576 367.976 244.52 367.874 244.408C367.771 244.287 367.72 244.147 367.72 243.988C367.72 243.839 367.771 243.708 367.874 243.596C367.976 243.475 368.116 243.414 368.294 243.414H368.84C369.521 243.414 370.039 243.274 370.394 242.994C370.758 242.705 370.94 242.285 370.94 241.734C370.94 241.249 370.79 240.871 370.492 240.6C370.202 240.329 369.792 240.194 369.26 240.194C368.476 240.194 367.692 240.497 366.908 241.104C366.73 241.225 366.572 241.286 366.432 241.286C366.301 241.286 366.189 241.23 366.096 241.118C366.002 240.997 365.956 240.852 365.956 240.684C365.956 240.46 366.049 240.273 366.236 240.124C366.618 239.779 367.08 239.508 367.622 239.312C368.172 239.116 368.737 239.018 369.316 239.018C370.24 239.018 370.977 239.251 371.528 239.718C372.078 240.185 372.349 240.81 372.34 241.594C372.34 242.135 372.2 242.616 371.92 243.036C371.64 243.447 371.252 243.745 370.758 243.932ZM377.738 249.112C376.59 249.112 375.713 248.683 375.106 247.824C374.509 246.965 374.21 245.715 374.21 244.072C374.21 242.42 374.509 241.165 375.106 240.306C375.713 239.447 376.59 239.018 377.738 239.018C378.886 239.018 379.759 239.447 380.356 240.306C380.963 241.155 381.266 242.406 381.266 244.058C381.266 245.71 380.963 246.965 380.356 247.824C379.759 248.683 378.886 249.112 377.738 249.112ZM377.738 247.95C378.457 247.95 378.984 247.637 379.32 247.012C379.656 246.387 379.824 245.402 379.824 244.058C379.824 242.714 379.656 241.734 379.32 241.118C378.984 240.493 378.457 240.18 377.738 240.18C377.019 240.18 376.492 240.493 376.156 241.118C375.82 241.734 375.652 242.714 375.652 244.058C375.652 245.393 375.82 246.377 376.156 247.012C376.492 247.637 377.019 247.95 377.738 247.95ZM391.789 248.16C391.835 248.272 391.859 248.365 391.859 248.44C391.859 248.617 391.784 248.767 391.635 248.888C391.495 249.009 391.336 249.07 391.159 249.07C391.037 249.07 390.921 249.037 390.809 248.972C390.706 248.897 390.627 248.795 390.571 248.664L389.647 246.564H384.523L383.599 248.664C383.543 248.795 383.459 248.897 383.347 248.972C383.235 249.037 383.118 249.07 382.997 249.07C382.81 249.07 382.642 249.009 382.493 248.888C382.353 248.767 382.283 248.617 382.283 248.44C382.283 248.365 382.306 248.272 382.353 248.16L386.301 239.522C386.366 239.373 386.469 239.256 386.609 239.172C386.758 239.088 386.912 239.046 387.071 239.046C387.229 239.046 387.379 239.088 387.519 239.172C387.668 239.256 387.775 239.373 387.841 239.522L391.789 248.16ZM385.041 245.416H389.143L387.085 240.782L385.041 245.416ZM402.126 239.06C402.331 239.06 402.499 239.13 402.63 239.27C402.761 239.401 402.826 239.573 402.826 239.788V248.384C402.826 248.599 402.765 248.767 402.644 248.888C402.532 249.009 402.373 249.07 402.168 249.07C401.972 249.07 401.818 249.009 401.706 248.888C401.594 248.767 401.538 248.599 401.538 248.384V241.874L398.794 247.096C398.617 247.423 398.388 247.586 398.108 247.586C397.828 247.586 397.599 247.423 397.422 247.096L394.664 241.93V248.384C394.664 248.599 394.608 248.767 394.496 248.888C394.384 249.009 394.225 249.07 394.02 249.07C393.824 249.07 393.665 249.009 393.544 248.888C393.432 248.757 393.376 248.589 393.376 248.384V239.788C393.376 239.573 393.441 239.401 393.572 239.27C393.703 239.13 393.871 239.06 394.076 239.06C394.365 239.06 394.599 239.228 394.776 239.564L398.122 245.962L401.44 239.564C401.617 239.228 401.846 239.06 402.126 239.06Z" fill="#B8C0CC"/>
<path d="M363.423 267.05C363.269 267.05 363.146 267.003 363.053 266.91C362.959 266.81 362.913 266.683 362.913 266.53V260.45C362.913 260.297 362.956 260.177 363.043 260.09C363.136 259.997 363.263 259.95 363.423 259.95H367.003C367.323 259.95 367.483 260.09 367.483 260.37C367.483 260.65 367.323 260.79 367.003 260.79H363.933V263H366.803C367.123 263 367.283 263.14 367.283 263.42C367.283 263.7 367.123 263.84 366.803 263.84H363.933V266.53C363.933 266.69 363.886 266.817 363.793 266.91C363.706 267.003 363.583 267.05 363.423 267.05ZM371.338 267.08C370.398 267.08 369.685 266.837 369.198 266.35C368.712 265.863 368.468 265.147 368.468 264.2V260.42C368.468 260.26 368.515 260.133 368.608 260.04C368.702 259.947 368.825 259.9 368.978 259.9C369.132 259.9 369.255 259.947 369.348 260.04C369.442 260.133 369.488 260.26 369.488 260.42V264.27C369.488 264.917 369.642 265.407 369.948 265.74C370.262 266.073 370.725 266.24 371.338 266.24C371.945 266.24 372.405 266.073 372.718 265.74C373.032 265.407 373.188 264.917 373.188 264.27V260.42C373.188 260.267 373.235 260.143 373.328 260.05C373.422 259.95 373.545 259.9 373.698 259.9C373.852 259.9 373.975 259.947 374.068 260.04C374.162 260.133 374.208 260.26 374.208 260.42V264.2C374.208 265.14 373.962 265.857 373.468 266.35C372.982 266.837 372.272 267.08 371.338 267.08ZM376.294 267C376.14 267 376.017 266.957 375.924 266.87C375.837 266.783 375.794 266.667 375.794 266.52V260.42C375.794 260.267 375.84 260.143 375.934 260.05C376.027 259.95 376.15 259.9 376.304 259.9C376.464 259.9 376.59 259.947 376.684 260.04C376.777 260.133 376.824 260.26 376.824 260.42V266.14H379.864C380.017 266.14 380.134 266.177 380.214 266.25C380.3 266.323 380.344 266.43 380.344 266.57C380.344 266.71 380.3 266.817 380.214 266.89C380.134 266.963 380.017 267 379.864 267H376.294ZM381.762 267C381.609 267 381.486 266.957 381.392 266.87C381.306 266.783 381.262 266.667 381.262 266.52V260.42C381.262 260.267 381.309 260.143 381.402 260.05C381.496 259.95 381.619 259.9 381.772 259.9C381.932 259.9 382.059 259.947 382.152 260.04C382.246 260.133 382.292 260.26 382.292 260.42V266.14H385.332C385.486 266.14 385.602 266.177 385.682 266.25C385.769 266.323 385.812 266.43 385.812 266.57C385.812 266.71 385.769 266.817 385.682 266.89C385.602 266.963 385.486 267 385.332 267H381.762Z" fill="#B8C0CC"/>
<path d="M325.137 58.47C325.425 58.47 325.641 58.536 325.785 58.668C325.929 58.8 326.001 58.986 326.001 59.226C326.001 59.742 325.713 60 325.137 60H319.125C318.537 60 318.243 59.742 318.243 59.226C318.243 58.986 318.315 58.8 318.459 58.668C318.615 58.536 318.837 58.47 319.125 58.47H321.195V49.488L319.341 50.658C319.221 50.73 319.101 50.766 318.981 50.766C318.777 50.766 318.597 50.676 318.441 50.496C318.297 50.316 318.225 50.112 318.225 49.884C318.225 49.608 318.345 49.392 318.585 49.236L321.357 47.472C321.633 47.304 321.897 47.22 322.149 47.22C322.413 47.22 322.629 47.304 322.797 47.472C322.965 47.64 323.049 47.868 323.049 48.156V58.47H325.137ZM336.056 47.31C336.32 47.31 336.518 47.382 336.65 47.526C336.794 47.67 336.866 47.856 336.866 48.084C336.866 48.3 336.8 48.528 336.668 48.768L330.782 59.64C330.59 59.976 330.326 60.144 329.99 60.144C329.762 60.144 329.552 60.066 329.36 59.91C329.18 59.742 329.09 59.538 329.09 59.298C329.09 59.154 329.138 58.986 329.234 58.794L334.652 48.84H328.802C328.514 48.84 328.298 48.774 328.154 48.642C328.01 48.51 327.938 48.324 327.938 48.084C327.938 47.568 328.226 47.31 328.802 47.31H336.056Z" fill="#00BEE7"/>
<path d="M59.8951 324.935L86.4055 324.834C94.6155 324.802 102.477 321.509 108.26 315.678C114.042 309.848 117.274 301.958 117.242 293.745C117.21 285.56 113.929 277.723 108.122 271.957C102.315 266.192 94.456 262.97 86.2746 263C82.2093 263.016 78.1869 263.832 74.437 265.403C70.6871 266.974 67.2832 269.268 64.4197 272.155C61.5561 275.042 59.289 278.465 57.7477 282.228C56.2064 285.992 55.4212 290.022 55.4368 294.089L55.5383 320.61C55.5404 321.18 55.6548 321.744 55.8749 322.27C56.095 322.796 56.4165 323.274 56.8211 323.676C57.2256 324.077 57.7054 324.395 58.2328 324.611C58.7602 324.827 59.3251 324.938 59.8951 324.935Z" fill="white"/>
<path d="M104 287C104 285.895 105.119 285 106.5 285C107.881 285 109 285.895 109 287" stroke="#D7DEE2" stroke-width="2" stroke-linecap="round"/>
<path d="M93 287C93 285.895 94.1193 285 95.5 285C96.8807 285 98 285.895 98 287" stroke="#D7DEE2" stroke-width="2" stroke-linecap="round"/>
<path d="M99 297C99.5701 297.607 100.478 298 101.5 298C102.522 298 103.43 297.607 104 297" stroke="#D7DEE2" stroke-width="2" stroke-linecap="round"/>
<path d="M85.9416 263.05C87.5454 263.043 89.1473 263.163 90.7324 263.408C78.131 263.16 61.0432 272.539 61.1247 293.917L61.2262 320.444C61.2343 321.598 61.6986 322.702 62.5177 323.515C63.3367 324.328 64.4439 324.784 65.5976 324.783L59.7704 324.805C58.6165 324.806 57.5089 324.351 56.6899 323.537C55.8708 322.724 55.4067 321.62 55.3989 320.465L55.2974 293.939C55.2909 285.785 58.51 277.959 64.2516 272.172C69.9933 266.384 77.791 263.105 85.9416 263.05Z" fill="#EAEFF4"/>
<path d="M59.3177 324.938L86.7778 324.832C94.8886 324.8 102.655 321.547 108.368 315.787C114.081 310.027 117.273 302.233 117.243 294.119V294.119C117.227 290.017 116.404 285.958 114.821 282.174C113.237 278.39 110.924 274.956 108.014 272.066C105.104 269.177 101.653 266.889 97.859 265.334C94.0649 263.778 90.0018 262.986 85.9016 263.002V263.002C77.7905 263.033 70.0241 266.286 64.3107 272.046C58.5972 277.806 55.4045 285.6 55.4351 293.715L55.5406 321.188C55.5425 321.683 55.6418 322.172 55.8326 322.628C56.0235 323.084 56.3022 323.498 56.6529 323.846C57.0037 324.194 57.4196 324.469 57.8768 324.657C58.334 324.844 58.8236 324.94 59.3177 324.938V324.938Z" stroke="#B8C0CC" stroke-width="2" stroke-linecap="round" stroke-linejoin="round"/>
<path d="M7.12021 356.496L42.4113 356.36C53.3409 356.318 63.8062 351.934 71.505 344.172C79.2038 336.411 83.5054 325.908 83.4636 314.973C83.4429 309.578 82.3602 304.239 80.2772 299.262C78.1942 294.285 75.1517 289.767 71.3235 285.966C67.4952 282.166 62.9562 279.157 57.9656 277.111C52.9749 275.065 47.6303 274.023 42.237 274.044C36.8251 274.064 31.4703 275.152 26.4783 277.243C21.4864 279.334 16.955 282.388 13.1429 286.231C9.33087 290.075 6.31274 294.631 4.26095 299.641C2.20916 304.651 1.16391 310.017 1.18477 315.431L1.32079 350.736C1.32359 351.496 1.4758 352.247 1.76877 352.947C2.06173 353.647 2.48972 354.283 3.02824 354.818C3.56676 355.352 4.2053 355.776 4.90739 356.064C5.6095 356.352 6.36142 356.498 7.12021 356.496Z" fill="white"/>
<path d="M60 305C60 303.343 61.567 302 63.5 302C65.433 302 67 303.343 67 305" stroke="#D7DEE2" stroke-width="2" stroke-linecap="round"/>
<path d="M43 305C43 303.343 44.567 302 46.5 302C48.433 302 50 303.343 50 305" stroke="#D7DEE2" stroke-width="2" stroke-linecap="round"/>
<path d="M52 320C52.7981 320.607 54.0688 321 55.5 321C56.9312 321 58.2019 320.607 59 320" stroke="#D7DEE2" stroke-width="2" stroke-linecap="round"/>
<path d="M41.794 274.108C43.9293 274.101 46.0619 274.26 48.1724 274.585C31.3971 274.256 8.6481 286.742 8.75716 315.2L8.89318 350.52C8.90328 352.057 9.52098 353.527 10.6113 354.609C11.7016 355.691 13.1757 356.298 14.7117 356.296L6.9537 356.326C5.41774 356.328 3.94368 355.721 2.8535 354.638C1.76331 353.556 1.14559 352.086 1.1352 350.549L1.00028 315.236C0.989044 304.379 5.2733 293.96 12.917 286.254C20.5607 278.547 30.9424 274.181 41.794 274.108Z" fill="#EAEFF4"/>
<path d="M6.35081 356.498L42.9079 356.357C48.2545 356.337 53.5447 355.263 58.4765 353.197C63.4083 351.131 67.8851 348.114 71.6513 344.317C75.4174 340.521 78.3992 336.019 80.4263 331.069C82.4534 326.12 83.4861 320.819 83.4655 315.47V315.47C83.4233 304.441 79.0036 293.881 71.1787 286.113C63.3538 278.344 52.7647 274.004 41.7409 274.046C36.3943 274.066 31.1039 275.14 26.1721 277.206C21.2402 279.271 16.7634 282.289 12.9972 286.085C9.23097 289.882 6.24908 294.384 4.22186 299.333C2.19463 304.283 1.16177 309.584 1.18218 314.933V314.933L1.32273 351.504C1.32509 352.163 1.45703 352.814 1.71101 353.421C1.96498 354.028 2.33598 354.579 2.8029 355.043C3.26982 355.507 3.82351 355.874 4.43226 356.123C5.04101 356.373 5.69292 356.5 6.35081 356.498Z" stroke="#B8C0CC" stroke-width="2" stroke-linecap="round" stroke-linejoin="round"/>
<path d="M154.433 312.518C171.014 324.5 206.514 312.518 215.794 286.253" stroke="#B8C0CC" stroke-width="2" stroke-linecap="round"/>
<circle r="5.21739" transform="matrix(1 0 0 -1 215.948 285.4)" fill="#B8C0CC"/>
<path d="M151.452 358H118.193C110.906 358 105 352.094 105 344.806V311.542C105 287.492 124.491 268 148.538 268H151.463C175.51 268 195 287.492 195 311.542V314.468C194.99 338.508 175.5 358 151.452 358Z" fill="white"/>
<path d="M117.804 313V344.36C117.804 351.887 123.835 358 131.285 358H118.482C111.032 358 105.001 351.887 105.001 344.36V313C105.001 288.145 124.91 268 149.474 268C151.646 268 153.785 268.152 155.871 268.468C134.349 271.6 117.804 290.342 117.804 313Z" fill="#EAEFF4"/>
<path d="M151.469 270.175C174.279 270.175 192.836 288.732 192.836 311.542V314.468C192.836 337.278 174.279 355.835 151.469 355.835H118.206C112.126 355.835 107.187 350.897 107.187 344.817V311.553C107.187 288.743 125.744 270.186 148.554 270.186H151.469V270.175ZM151.469 268H148.543C124.493 268 105.001 287.492 105.001 311.542V344.806C105.001 352.094 110.907 358 118.195 358H151.459C175.509 358 195.001 338.508 195.001 314.458V311.532C195.012 287.492 175.519 268 151.469 268Z" fill="#B8C0CC"/>
<path d="M174.457 302.239C174.457 300.078 176.209 298.326 178.37 298.326C180.531 298.326 182.283 300.078 182.283 302.239" stroke="#D7DEE2" stroke-width="2" stroke-linecap="round"/>
<path d="M153.914 302.239C153.914 300.078 155.666 298.326 157.827 298.326C159.988 298.326 161.74 300.078 161.74 302.239" stroke="#D7DEE2" stroke-width="2" stroke-linecap="round"/>
<path d="M164.674 319.848C165.567 321.036 166.987 321.804 168.588 321.804C170.188 321.804 171.609 321.036 172.501 319.848" stroke="#D7DEE2" stroke-width="2" stroke-linecap="round"/>
<path d="M60.9073 380L96.1984 379.864C107.128 379.822 117.593 375.438 125.292 367.677C132.991 359.915 137.293 349.412 137.251 338.478C137.209 327.581 132.842 317.147 125.11 309.471C117.379 301.795 106.916 297.507 96.0241 297.548C90.6122 297.569 85.2574 298.656 80.2654 300.747C75.2734 302.838 70.7421 305.893 66.93 309.736C63.1179 313.579 60.0999 318.136 58.0481 323.146C55.9963 328.156 54.951 333.521 54.9718 338.935L55.1068 374.242C55.1097 375.001 55.2621 375.752 55.5552 376.452C55.8483 377.152 56.2763 377.788 56.815 378.323C57.3536 378.857 57.9922 379.281 58.6944 379.569C59.3966 379.856 60.1485 380.003 60.9073 380Z" fill="white"/>
<path d="M117 332C117 330.343 118.567 329 120.5 329C122.433 329 124 330.343 124 332" stroke="#D7DEE2" stroke-width="2" stroke-linecap="round"/>
<path d="M100 332C100 330.343 101.567 329 103.5 329C105.433 329 107 330.343 107 332" stroke="#D7DEE2" stroke-width="2" stroke-linecap="round"/>
<path d="M109 347C109.798 347.607 111.069 348 112.5 348C113.931 348 115.202 347.607 116 347" stroke="#D7DEE2" stroke-width="2" stroke-linecap="round"/>
<path d="M95.5815 297.608C97.7168 297.6 99.8496 297.76 101.96 298.085C85.1846 297.756 62.4356 310.241 62.5447 338.7L62.6807 374.02C62.6911 375.556 63.3089 377.026 64.3991 378.109C65.4894 379.191 66.9634 379.797 68.4993 379.796L60.7412 379.826C59.2053 379.828 57.7312 379.221 56.641 378.138C55.5508 377.056 54.9331 375.586 54.9227 374.049L54.7878 338.736C54.776 327.879 59.06 317.459 66.7038 309.753C74.3477 302.047 84.7298 297.68 95.5815 297.608Z" fill="#EAEFF4"/>
<path d="M60.138 380L96.6952 379.859C107.493 379.818 117.832 375.486 125.438 367.818C133.044 360.15 137.293 349.774 137.252 338.971V338.971C137.209 327.944 132.79 317.384 124.966 309.616C117.141 301.848 106.553 297.507 95.5304 297.549V297.549C90.1837 297.569 84.8934 298.643 79.9616 300.709C75.0297 302.775 70.5529 305.792 66.7867 309.589C63.0205 313.385 60.0386 317.887 58.0113 322.837C55.9841 327.786 54.9513 333.087 54.9717 338.436V338.436L55.1122 375.009C55.1176 376.337 55.65 377.609 56.5924 378.545C57.5348 379.481 58.8101 380.004 60.138 380Z" stroke="#B8C0CC" stroke-width="2" stroke-linecap="round" stroke-linejoin="round"/>
<path d="M439.064 375H483.41C493.126 375 501 367.125 501 357.408V313.057C501 280.99 475.013 255 442.95 255H439.05C406.987 255 381 280.99 381 313.057V316.958C381.014 349.01 407.001 375 439.064 375Z" fill="white"/>
<path opacity="0.4" d="M483.929 315V356.813C483.929 366.849 475.888 375 465.955 375H483.026C492.959 375 501 366.849 501 356.813V315C501 281.86 474.454 255 441.702 255C438.807 255 435.955 255.203 433.174 255.624C461.87 259.801 483.929 284.79 483.929 315Z" fill="#00BEE7" fill-opacity="0.4"/>
<path d="M439.042 257.901C408.629 257.901 383.886 282.643 383.886 313.057V316.958C383.886 347.371 408.629 372.114 439.042 372.114H483.393C491.5 372.114 498.085 365.529 498.085 357.422V313.071C498.085 282.658 473.342 257.915 442.929 257.915H439.042V257.901ZM439.042 255H442.943C475.01 255 501 280.99 501 313.057V357.408C501 367.125 493.125 375 483.408 375H439.057C406.99 375 381 349.01 381 316.943V313.042C380.986 280.99 406.975 255 439.042 255Z" fill="#00BEE7"/>
<path d="M408.391 300.652C408.391 297.771 406.055 295.435 403.174 295.435C400.292 295.435 397.957 297.771 397.957 300.652" stroke="#D7DEE2" stroke-width="2" stroke-linecap="round"/>
<path d="M435.782 300.652C435.782 297.771 433.447 295.435 430.565 295.435C427.684 295.435 425.348 297.771 425.348 300.652" stroke="#D7DEE2" stroke-width="2" stroke-linecap="round"/>
<path d="M421.435 324.13C420.245 325.714 418.351 326.739 416.217 326.739C414.084 326.739 412.189 325.714 411 324.13" stroke="#D7DEE2" stroke-width="2" stroke-linecap="round"/>
<path d="M456.652 316.304C458.812 330.938 450.844 351.094 429.75 352.5" stroke="#00BEE7" stroke-width="2" stroke-linecap="round"/>
<circle cx="429.342" cy="352.092" r="5.21739" fill="#00BEE7"/>
</svg>
