<svg width="257" height="207" viewBox="0 0 257 207" fill="none" xmlns="http://www.w3.org/2000/svg">
<rect x="19" y="60" width="174" height="137" rx="5" fill="white" stroke="#B8C0CC" stroke-width="2"/>
<rect x="30" y="103" width="152" height="83" rx="6" fill="#F0F4F7"/>
<mask id="mask0" mask-type="alpha" maskUnits="userSpaceOnUse" x="30" y="103" width="152" height="83">
<rect x="30" y="103" width="152" height="83" rx="6" fill="#F0F4F7"/>
</mask>
<g mask="url(#mask0)">
<path d="M150.332 147.216L139.709 147.175C136.419 147.162 133.268 145.839 130.951 143.496C128.634 141.153 127.339 137.982 127.352 134.681C127.365 131.392 128.679 128.242 131.006 125.925C133.333 123.608 136.482 122.313 139.761 122.325C141.39 122.332 143.002 122.66 144.505 123.291C146.007 123.922 147.371 124.844 148.519 126.005C149.666 127.165 150.575 128.54 151.192 130.053C151.81 131.565 152.125 133.185 152.118 134.819L152.078 145.478C152.077 145.707 152.031 145.933 151.943 146.145C151.855 146.356 151.726 146.548 151.564 146.71C151.402 146.871 151.209 146.999 150.998 147.086C150.787 147.172 150.56 147.217 150.332 147.216Z" fill="white"/>
<path d="M139.893 122.345C139.25 122.342 138.608 122.39 137.973 122.489C143.023 122.389 149.87 126.159 149.838 134.75L149.797 145.411C149.794 145.874 149.608 146.318 149.279 146.645C148.951 146.972 148.508 147.155 148.045 147.154L150.38 147.163C150.843 147.164 151.287 146.981 151.615 146.654C151.943 146.327 152.129 145.883 152.132 145.419L152.173 134.759C152.175 131.482 150.885 128.337 148.585 126.011C146.284 123.685 143.159 122.367 139.893 122.345Z" fill="#EAEFF4"/>
<path d="M150.563 147.218L139.559 147.175C136.309 147.162 133.197 145.855 130.907 143.54C128.618 141.225 127.338 138.093 127.351 134.832V134.832C127.357 133.184 127.687 131.552 128.321 130.032C128.956 128.511 129.883 127.131 131.049 125.97C132.215 124.808 133.598 123.889 135.118 123.264C136.639 122.639 138.267 122.32 139.91 122.327V122.327C143.16 122.339 146.272 123.647 148.562 125.962C150.851 128.276 152.131 131.409 152.118 134.67L152.076 145.711C152.075 145.909 152.036 146.106 151.959 146.289C151.883 146.472 151.771 146.639 151.63 146.779C151.49 146.919 151.323 147.029 151.14 147.105C150.957 147.18 150.761 147.218 150.563 147.218V147.218Z" stroke="#B8C0CC" stroke-width="2" stroke-linecap="round" stroke-linejoin="round"/>
<path d="M133.34 131.818C133.755 131.818 134.092 131.277 134.092 130.609C134.092 129.941 133.755 129.4 133.34 129.4C132.924 129.4 132.587 129.941 132.587 130.609C132.587 131.277 132.924 131.818 133.34 131.818Z" fill="#B8C0CC"/>
<path d="M137.164 131.818C137.58 131.818 137.917 131.277 137.917 130.609C137.917 129.941 137.58 129.4 137.164 129.4C136.749 129.4 136.412 129.941 136.412 130.609C136.412 131.277 136.749 131.818 137.164 131.818Z" fill="#B8C0CC"/>
<path d="M131.594 159.9L117.452 159.846C113.072 159.829 108.878 158.067 105.793 154.948C102.708 151.829 100.984 147.608 101.001 143.213C101.018 138.834 102.768 134.641 105.866 131.556C108.964 128.472 113.157 126.748 117.521 126.765C119.69 126.773 121.836 127.21 123.836 128.05C125.837 128.891 127.653 130.118 129.18 131.663C130.708 133.207 131.917 135.038 132.739 137.052C133.562 139.065 133.98 141.221 133.972 143.397L133.918 157.586C133.917 157.891 133.856 158.193 133.738 158.474C133.621 158.756 133.449 159.011 133.233 159.226C133.018 159.441 132.762 159.611 132.48 159.727C132.199 159.842 131.898 159.901 131.594 159.9Z" fill="white"/>
<path d="M117.699 126.791C116.843 126.788 115.989 126.852 115.143 126.982C121.865 126.85 130.981 131.868 130.938 143.305L130.883 157.499C130.879 158.116 130.632 158.707 130.195 159.142C129.758 159.577 129.167 159.821 128.551 159.82L131.66 159.832C132.276 159.833 132.866 159.589 133.303 159.154C133.74 158.719 133.988 158.128 133.992 157.511L134.046 143.319C134.051 138.956 132.334 134.768 129.271 131.671C126.208 128.574 122.048 126.82 117.699 126.791Z" fill="#EAEFF4"/>
<path d="M131.901 159.902L117.252 159.846C112.925 159.829 108.782 158.088 105.734 155.007C102.686 151.925 100.983 147.755 101 143.414V143.414C101.017 138.982 102.788 134.738 105.924 131.616C109.059 128.494 113.302 126.749 117.72 126.766C122.047 126.783 126.19 128.523 129.238 131.605C132.286 134.686 133.989 138.856 133.972 143.198L133.916 157.895C133.914 158.43 133.701 158.941 133.323 159.317C132.945 159.694 132.434 159.904 131.901 159.902Z" stroke="#B8C0CC" stroke-width="2" stroke-linecap="round" stroke-linejoin="round"/>
<path d="M108.976 139.402C109.529 139.402 109.978 138.681 109.978 137.793C109.978 136.904 109.529 136.183 108.976 136.183C108.423 136.183 107.975 136.904 107.975 137.793C107.975 138.681 108.423 139.402 108.976 139.402Z" fill="#B8C0CC"/>
<path d="M114.065 139.402C114.618 139.402 115.066 138.681 115.066 137.793C115.066 136.904 114.618 136.183 114.065 136.183C113.511 136.183 113.063 136.904 113.063 137.793C113.063 138.681 113.511 139.402 114.065 139.402Z" fill="#B8C0CC"/>
<path d="M171.479 159.899L157.337 159.845C152.958 159.828 148.764 158.066 145.679 154.947C142.594 151.828 140.87 147.607 140.887 143.212C140.895 141.044 141.329 138.898 142.164 136.898C142.998 134.898 144.218 133.083 145.752 131.555C147.286 130.028 149.105 128.818 151.104 127.996C153.104 127.174 155.246 126.755 157.407 126.764C159.576 126.772 161.722 127.209 163.722 128.049C165.722 128.89 167.538 130.117 169.066 131.662C170.593 133.206 171.803 135.037 172.625 137.051C173.447 139.064 173.866 141.221 173.858 143.396L173.803 157.585C173.802 157.89 173.741 158.192 173.624 158.473C173.506 158.755 173.335 159.01 173.119 159.225C172.903 159.44 172.647 159.61 172.366 159.726C172.085 159.841 171.783 159.9 171.479 159.899Z" fill="white"/>
<path d="M157.584 126.79C156.728 126.786 155.874 126.851 155.028 126.981C161.75 126.849 170.866 131.867 170.822 143.303L170.768 157.498C170.764 158.115 170.516 158.706 170.079 159.141C169.642 159.576 169.052 159.82 168.436 159.819L171.545 159.831C172.161 159.832 172.751 159.588 173.188 159.153C173.625 158.718 173.872 158.127 173.877 157.509L173.931 143.318C173.935 138.955 172.218 134.767 169.155 131.67C166.092 128.573 161.932 126.819 157.584 126.79Z" fill="#EAEFF4"/>
<path d="M171.787 159.9L157.138 159.844C154.996 159.836 152.876 159.404 150.9 158.574C148.923 157.744 147.129 156.531 145.62 155.005C144.111 153.48 142.916 151.67 142.104 149.681C141.291 147.692 140.878 145.562 140.886 143.412V143.412C140.903 138.98 142.674 134.736 145.809 131.614C148.945 128.492 153.188 126.748 157.606 126.765C159.748 126.773 161.868 127.204 163.845 128.035C165.821 128.865 167.615 130.077 169.124 131.603C170.633 133.129 171.828 134.938 172.641 136.927C173.453 138.916 173.867 141.047 173.859 143.196V143.196L173.802 157.894C173.801 158.158 173.748 158.42 173.647 158.664C173.545 158.908 173.396 159.129 173.209 159.316C173.022 159.502 172.8 159.65 172.556 159.75C172.312 159.85 172.051 159.901 171.787 159.9Z" stroke="#B8C0CC" stroke-width="2" stroke-linecap="round" stroke-linejoin="round"/>
<path d="M148.859 139.4C149.412 139.4 149.861 138.68 149.861 137.791C149.861 136.902 149.412 136.182 148.859 136.182C148.306 136.182 147.857 136.902 147.857 137.791C147.857 138.68 148.306 139.4 148.859 139.4Z" fill="#B8C0CC"/>
<path d="M153.949 139.4C154.502 139.4 154.95 138.68 154.95 137.791C154.95 136.902 154.502 136.182 153.949 136.182C153.396 136.182 152.947 136.902 152.947 137.791C152.947 138.68 153.396 139.4 153.949 139.4Z" fill="#B8C0CC"/>
<path d="M149.926 174.758L135.784 174.703C131.404 174.686 127.211 172.924 124.126 169.805C121.041 166.686 119.317 162.465 119.334 158.071C119.35 153.691 121.1 149.498 124.199 146.414C127.297 143.329 131.489 141.605 135.854 141.622C138.023 141.63 140.168 142.067 142.169 142.908C144.169 143.748 145.985 144.975 147.513 146.52C149.04 148.064 150.25 149.896 151.072 151.909C151.894 153.923 152.313 156.079 152.305 158.255L152.251 172.444C152.249 172.749 152.188 173.05 152.071 173.332C151.953 173.613 151.782 173.869 151.566 174.084C151.35 174.298 151.094 174.469 150.813 174.584C150.531 174.7 150.23 174.759 149.926 174.758Z" fill="white"/>
<path d="M136.031 141.646C135.175 141.643 134.321 141.707 133.475 141.838C140.197 141.705 149.313 146.723 149.27 158.16L149.215 172.354C149.211 172.972 148.963 173.562 148.527 173.997C148.09 174.432 147.499 174.676 146.884 174.675L149.992 174.688C150.608 174.688 151.199 174.444 151.635 174.009C152.072 173.574 152.32 172.983 152.324 172.366L152.378 158.174C152.383 153.811 150.666 149.624 147.603 146.527C144.54 143.43 140.38 141.675 136.031 141.646Z" fill="#EAEFF4"/>
<path d="M150.234 174.758L135.584 174.702C131.258 174.685 127.115 172.944 124.067 169.863C121.019 166.781 119.316 162.611 119.333 158.27V158.27C119.35 153.838 121.121 149.594 124.256 146.472C127.391 143.351 131.634 141.606 136.051 141.623V141.623C138.194 141.631 140.314 142.063 142.29 142.893C144.266 143.723 146.06 144.936 147.57 146.461C149.079 147.987 150.274 149.796 151.086 151.785C151.898 153.775 152.312 155.905 152.304 158.054V158.054L152.248 172.752C152.246 173.286 152.032 173.797 151.655 174.174C151.277 174.55 150.766 174.76 150.234 174.758Z" stroke="#B8C0CC" stroke-width="2" stroke-linecap="round" stroke-linejoin="round"/>
<path d="M127.307 154.257C127.86 154.257 128.309 153.537 128.309 152.648C128.309 151.759 127.86 151.039 127.307 151.039C126.754 151.039 126.306 151.759 126.306 152.648C126.306 153.537 126.754 154.257 127.307 154.257Z" fill="#B8C0CC"/>
<path d="M132.397 154.257C132.95 154.257 133.399 153.537 133.399 152.648C133.399 151.759 132.95 151.039 132.397 151.039C131.844 151.039 131.396 151.759 131.396 152.648C131.396 153.537 131.844 154.257 132.397 154.257Z" fill="#B8C0CC"/>
</g>
<path d="M20 91H193" stroke="#B8C0CC" stroke-width="2" stroke-linecap="round"/>
<path d="M176 81C179.314 81 182 78.3137 182 75C182 71.6863 179.314 69 176 69C172.686 69 170 71.6863 170 75C170 78.3137 172.686 81 176 81Z" fill="#B8C0CC"/>
<rect x="140" y="72" width="20" height="6" rx="3" fill="#B8C0CC"/>
<path d="M53.841 79.7776H44.2545C43.6295 79.7776 43.2002 79.3713 43.2002 78.6767V71.3234C43.2002 70.6288 43.6295 70.2224 44.2545 70.2224H54.0122C54.6372 70.2224 55.0665 70.6288 55.0665 71.3234V78.5866C54.9234 79.2835 54.379 79.7776 53.841 79.7776Z" fill="white" stroke="#00BEE7" stroke-width="2" stroke-miterlimit="10"/>
<mask id="path-28-inside-1" fill="white">
<path d="M54.9111 72.6856L60.9776 69.3843C61.7359 68.9716 62.9998 69.3843 62.9998 70.2096V79.7009C62.9998 80.5262 61.7359 81.1452 60.9776 80.5262L54.9111 77.2249"/>
</mask>
<path d="M54.9111 72.6856L60.9776 69.3843C61.7359 68.9716 62.9998 69.3843 62.9998 70.2096V79.7009C62.9998 80.5262 61.7359 81.1452 60.9776 80.5262L54.9111 77.2249" fill="white"/>
<path d="M55.9111 77.2249V72.6856H53.9111V77.2249H55.9111ZM60.9776 69.3843L60.0216 67.6276L60.0216 67.6276L60.9776 69.3843ZM60.9776 80.5262L62.2423 78.9768C62.1461 78.8983 62.0427 78.8288 61.9336 78.7695L60.9776 80.5262ZM55.8671 74.4423L61.9336 71.141L60.0216 67.6276L53.9551 70.9289L55.8671 74.4423ZM61.9336 71.141C61.8004 71.2135 61.7026 71.2214 61.6708 71.2223C61.6372 71.2232 61.6072 71.2191 61.568 71.2043C61.5347 71.1918 61.4179 71.1423 61.2882 70.9947C61.1412 70.8275 60.9998 70.5513 60.9998 70.2096H64.9998C64.9998 68.6212 63.7882 67.7663 62.9782 67.4611C62.1391 67.145 61.0109 67.0892 60.0216 67.6276L61.9336 71.141ZM60.9998 70.2096V79.7009H64.9998V70.2096H60.9998ZM60.9998 79.7009C60.9998 79.379 61.1253 79.1461 61.2232 79.0227C61.3164 78.905 61.4082 78.8506 61.4683 78.8242C61.5536 78.7867 61.8931 78.6917 62.2423 78.9768L59.7129 82.0755C60.8205 82.9796 62.171 82.8847 63.0778 82.4861C63.9284 82.1122 64.9998 81.1786 64.9998 79.7009H60.9998ZM61.9336 78.7695L55.8671 75.4682L53.9551 78.9816L60.0216 82.2829L61.9336 78.7695Z" fill="#00BEE7" mask="url(#path-28-inside-1)"/>
<path d="M33 140.025C45.4 139.232 64.9394 157.5 67 184" stroke="#B8C0CC" stroke-width="2"/>
<mask id="mask1" mask-type="alpha" maskUnits="userSpaceOnUse" x="0" y="142" width="65" height="66">
<path d="M0.999995 200.053L0.999997 174.272C1.00187 165.983 4.29691 158.034 10.1607 152.172C16.0246 146.311 23.9772 143.017 32.2704 143.014L32.7262 143.014C36.8336 143.014 40.9007 143.823 44.6953 145.394C48.4899 146.965 51.9376 149.268 54.8414 152.172C57.7453 155.075 60.0484 158.522 61.6193 162.315C63.1902 166.108 63.998 170.174 63.9966 174.279L63.9966 174.735C63.9975 178.841 63.189 182.907 61.6174 186.701C60.0457 190.494 57.7416 193.941 54.8367 196.845C51.9318 199.748 48.483 202.051 44.6874 203.622C40.8918 205.193 36.8237 206.001 32.7156 206L6.95727 206C5.37959 205.993 3.86865 205.363 2.75305 204.248C1.63746 203.133 1.00743 201.623 0.999995 200.046L0.999995 200.053Z" fill="white" stroke="#00BEE7" stroke-width="2" stroke-miterlimit="10"/>
</mask>
<g mask="url(#mask1)">
<path d="M0.999995 200.053L0.999997 174.272C1.00187 165.983 4.29691 158.034 10.1607 152.172C16.0246 146.311 23.9772 143.017 32.2704 143.014L32.7262 143.014C36.8336 143.014 40.9007 143.823 44.6953 145.394C48.4899 146.965 51.9376 149.268 54.8414 152.172C57.7453 155.075 60.0484 158.522 61.6193 162.315C63.1902 166.108 63.998 170.174 63.9966 174.279L63.9966 174.735C63.9975 178.841 63.189 182.907 61.6174 186.701C60.0457 190.494 57.7416 193.941 54.8367 196.845C51.9318 199.748 48.483 202.051 44.6874 203.622C40.8918 205.193 36.8237 206.001 32.7156 206L6.95727 206C5.37959 205.993 3.86865 205.363 2.75305 204.248C1.63746 203.133 1.00743 201.623 0.999995 200.046L0.999995 200.053Z" fill="white" stroke="#B8C0CC" stroke-width="2" stroke-miterlimit="10"/>
<path d="M28 190C28 190 24.0698 184.958 26 179" stroke="#D7DEE2" stroke-width="2" stroke-linecap="round" stroke-linejoin="round"/>
<path d="M32 191C32 192.657 30.6569 194 29 194C27.3431 194 26 192.657 26 191C26 189.343 27.3431 188 29 188C30.6569 188 32 189.343 32 191Z" fill="#D7DEE2"/>
<path d="M6.03591 174.272L6.03591 200.046C6.04334 201.622 6.67337 203.133 7.78897 204.248C8.90456 205.363 10.4155 205.992 11.9932 206L11.9932 210.946L-4.20948 210.946L-4.20947 140.636L37.7621 140.636L37.7621 143.013L37.3063 143.013C29.0131 143.016 21.0605 146.311 15.1967 152.172C9.33282 158.034 6.03778 165.983 6.03591 174.272Z" fill="#EAEFF4"/>
<path d="M0.999995 200.052L0.999997 174.265C1.00187 165.975 4.29709 158.024 10.1612 152.161C16.0254 146.298 23.9785 143.003 32.2721 143L32.7279 143C36.8355 143 40.9029 143.809 44.6977 145.381C48.4925 146.953 51.9403 149.256 54.8444 152.16C57.7484 155.064 60.0517 158.512 61.6226 162.306C63.1935 166.1 64.0014 170.166 64 174.272L64 174.728C64.0009 178.835 63.1924 182.902 61.6206 186.697C60.0489 190.491 57.7446 193.939 54.8396 196.843C51.9345 199.747 48.4856 202.05 44.6898 203.622C40.894 205.193 36.8257 206.001 32.7173 206L6.95759 206C5.37983 205.993 3.86881 205.363 2.75315 204.248C1.63749 203.132 1.00743 201.622 0.999995 200.045L0.999995 200.052Z" stroke="#00BEE7" stroke-width="2" stroke-miterlimit="10"/>
</g>
<path d="M40.4138 166.191C38.7649 166.191 37.4281 164.852 37.4281 163.201C37.4281 161.549 38.7649 160.21 40.4138 160.21C42.0627 160.21 43.3994 161.549 43.3994 163.201C43.3994 164.852 42.0627 166.191 40.4138 166.191Z" fill="#D7DEE2"/>
<path d="M54.5954 166.191C52.9465 166.191 51.6098 164.852 51.6098 163.201C51.6098 161.549 52.9465 160.21 54.5954 160.21C56.2443 160.21 57.5811 161.549 57.5811 163.201C57.5811 164.852 56.2443 166.191 54.5954 166.191Z" fill="#D7DEE2"/>
<path d="M14 163C14 150.298 18.7518 140 34 140" stroke="#B8C0CC" stroke-width="2"/>
<ellipse rx="3.58276" ry="3.58876" transform="matrix(-1 0 0 1 14.2898 162.453)" fill="#00BEE7"/>
<path d="M45 194H65.2926C65.4685 194 65.6438 193.964 65.7448 193.82C65.9619 193.51 66.3398 192.672 66.7316 190.404C67.3355 186.91 66.7317 181 66.7317 181" stroke="#B8C0CC" stroke-width="2" stroke-linecap="round" stroke-linejoin="round"/>
<path d="M44.3695 189.966C46.6808 189.966 48.6146 191.461 49.1025 193.462C49.2333 193.998 48.7735 194.452 48.2212 194.452H40.5179C39.9656 194.452 39.5058 193.998 39.6366 193.462C40.1244 191.461 42.0582 189.966 44.3695 189.966Z" fill="#00BEE7" stroke="#00BEE7" stroke-width="2"/>
<path d="M48 182C50.0706 182 51.8472 180.741 52.6065 178.947C53.0371 177.93 52.1046 177 51 177H45C43.8954 177 42.9629 177.93 43.3935 178.947C44.1528 180.741 45.9294 182 48 182Z" fill="#D7DEE2"/>
<rect x="157" y="16" width="86" height="99" rx="5" fill="white" stroke="#B8C0CC" stroke-width="2"/>
<path d="M192.71 101.5C192.71 99.961 193.961 98.71 195.5 98.71H198.245C198.717 98.71 199.1 98.3272 199.1 97.855C199.1 97.3828 198.717 97 198.245 97H195.5C193.016 97 191 99.016 191 101.5C191 103.984 193.016 106 195.5 106H198.245C198.717 106 199.1 105.617 199.1 105.145C199.1 104.673 198.717 104.29 198.245 104.29H195.5C193.961 104.29 192.71 103.039 192.71 101.5ZM196.4 101.5C196.4 101.997 196.803 102.4 197.3 102.4H202.7C203.197 102.4 203.6 101.997 203.6 101.5C203.6 101.003 203.197 100.6 202.7 100.6H197.3C196.803 100.6 196.4 101.003 196.4 101.5ZM204.5 97H201.755C201.283 97 200.9 97.3828 200.9 97.855C200.9 98.3272 201.283 98.71 201.755 98.71H204.5C206.039 98.71 207.29 99.961 207.29 101.5C207.29 103.039 206.039 104.29 204.5 104.29H201.755C201.283 104.29 200.9 104.673 200.9 105.145C200.9 105.617 201.283 106 201.755 106H204.5C206.984 106 209 103.984 209 101.5C209 99.016 206.984 97 204.5 97Z" fill="#B8C0CC"/>
<circle cx="243" cy="14" r="14" fill="white"/>
<path d="M249.302 17.4482C249.109 17.26 249 17.0017 249 16.732V12.2821C249 9.52027 247.602 7.17378 245.137 6.30851C244.771 6.18006 244.5 5.84945 244.5 5.46154C244.5 4.65282 243.83 4 243 4C242.17 4 241.5 4.65282 241.5 5.46154C241.5 5.84938 241.229 6.1799 240.863 6.30775C238.39 7.17131 237 9.51063 237 12.2821V16.732C237 17.0017 236.891 17.26 236.698 17.4482L235.207 18.9008C235.075 19.0298 235 19.2068 235 19.3916C235 19.7701 235.307 20.0769 235.685 20.0769H250.315C250.693 20.0769 251 19.7701 251 19.3916C251 19.2068 250.925 19.0298 250.793 18.9008L249.302 17.4482ZM243 24C243.925 24 244.708 23.38 244.934 22.5456C245.007 22.279 244.776 22.0513 244.5 22.0513H241.5C241.224 22.0513 240.993 22.279 241.065 22.5457C241.289 23.3801 242.067 24 243 24Z" fill="#00BEE7" stroke="#00BEE7"/>
<path d="M176.725 34.23C176.765 34.3167 176.785 34.4033 176.785 34.49C176.785 34.6433 176.722 34.7733 176.595 34.88C176.475 34.9867 176.335 35.04 176.175 35.04C176.069 35.04 175.969 35.0133 175.875 34.96C175.782 34.9 175.709 34.81 175.655 34.69L175.055 33.35H171.535L170.935 34.69C170.882 34.81 170.809 34.9 170.715 34.96C170.622 35.0133 170.519 35.04 170.405 35.04C170.252 35.04 170.112 34.9867 169.985 34.88C169.859 34.7733 169.795 34.6433 169.795 34.49C169.795 34.4033 169.815 34.3167 169.855 34.23L172.615 28.3C172.675 28.1667 172.765 28.0667 172.885 28C173.012 27.9267 173.145 27.89 173.285 27.89C173.425 27.89 173.555 27.9267 173.675 28C173.802 28.0667 173.895 28.1667 173.955 28.3L176.725 34.23ZM171.975 32.35H174.615L173.295 29.38L171.975 32.35ZM180.457 29.99C180.877 29.99 181.25 30.0967 181.577 30.31C181.91 30.5233 182.167 30.8267 182.347 31.22C182.534 31.6067 182.627 32.0533 182.627 32.56C182.627 33.0667 182.534 33.51 182.347 33.89C182.167 34.27 181.914 34.5633 181.587 34.77C181.26 34.9767 180.884 35.08 180.457 35.08C180.11 35.08 179.8 35.0067 179.527 34.86C179.254 34.7133 179.044 34.51 178.897 34.25V36.29C178.897 36.4633 178.84 36.6 178.727 36.7C178.614 36.8 178.464 36.85 178.277 36.85C178.09 36.85 177.937 36.7967 177.817 36.69C177.704 36.5833 177.647 36.4433 177.647 36.27V30.6C177.647 30.42 177.7 30.2767 177.807 30.17C177.92 30.0633 178.07 30.01 178.257 30.01C178.444 30.01 178.594 30.0633 178.707 30.17C178.82 30.2767 178.877 30.42 178.877 30.6V30.85C179.024 30.5767 179.234 30.3667 179.507 30.22C179.787 30.0667 180.104 29.99 180.457 29.99ZM180.127 34.11C180.52 34.11 180.827 33.9767 181.047 33.71C181.267 33.4367 181.377 33.0533 181.377 32.56C181.377 32.0533 181.267 31.66 181.047 31.38C180.827 31.1 180.52 30.96 180.127 30.96C179.727 30.96 179.417 31.0967 179.197 31.37C178.984 31.6433 178.877 32.0333 178.877 32.54C178.877 33.04 178.984 33.4267 179.197 33.7C179.417 33.9733 179.727 34.11 180.127 34.11ZM186.463 29.99C186.883 29.99 187.256 30.0967 187.583 30.31C187.916 30.5233 188.173 30.8267 188.353 31.22C188.54 31.6067 188.633 32.0533 188.633 32.56C188.633 33.0667 188.54 33.51 188.353 33.89C188.173 34.27 187.92 34.5633 187.593 34.77C187.266 34.9767 186.89 35.08 186.463 35.08C186.116 35.08 185.806 35.0067 185.533 34.86C185.26 34.7133 185.05 34.51 184.903 34.25V36.29C184.903 36.4633 184.846 36.6 184.733 36.7C184.62 36.8 184.47 36.85 184.283 36.85C184.096 36.85 183.943 36.7967 183.823 36.69C183.71 36.5833 183.653 36.4433 183.653 36.27V30.6C183.653 30.42 183.706 30.2767 183.813 30.17C183.926 30.0633 184.076 30.01 184.263 30.01C184.45 30.01 184.6 30.0633 184.713 30.17C184.826 30.2767 184.883 30.42 184.883 30.6V30.85C185.03 30.5767 185.24 30.3667 185.513 30.22C185.793 30.0667 186.11 29.99 186.463 29.99ZM186.133 34.11C186.526 34.11 186.833 33.9767 187.053 33.71C187.273 33.4367 187.383 33.0533 187.383 32.56C187.383 32.0533 187.273 31.66 187.053 31.38C186.833 31.1 186.526 30.96 186.133 30.96C185.733 30.96 185.423 31.0967 185.203 31.37C184.99 31.6433 184.883 32.0333 184.883 32.54C184.883 33.04 184.99 33.4267 185.203 33.7C185.423 33.9733 185.733 34.11 186.133 34.11ZM191.889 35.08C191.389 35.08 190.949 34.9767 190.569 34.77C190.195 34.5633 189.905 34.2667 189.699 33.88C189.492 33.4933 189.389 33.0433 189.389 32.53C189.389 32.0167 189.492 31.57 189.699 31.19C189.905 30.8033 190.195 30.5067 190.569 30.3C190.949 30.0933 191.389 29.99 191.889 29.99C192.389 29.99 192.825 30.0933 193.199 30.3C193.579 30.5067 193.869 30.8033 194.069 31.19C194.275 31.57 194.379 32.0167 194.379 32.53C194.379 33.0433 194.275 33.4933 194.069 33.88C193.869 34.2667 193.579 34.5633 193.199 34.77C192.825 34.9767 192.389 35.08 191.889 35.08ZM191.879 34.11C192.285 34.11 192.595 33.9767 192.809 33.71C193.022 33.4433 193.129 33.05 193.129 32.53C193.129 32.0167 193.022 31.6267 192.809 31.36C192.595 31.0867 192.289 30.95 191.889 30.95C191.489 30.95 191.179 31.0867 190.959 31.36C190.745 31.6267 190.639 32.0167 190.639 32.53C190.639 33.05 190.745 33.4433 190.959 33.71C191.172 33.9767 191.479 34.11 191.879 34.11ZM196.031 35.06C195.851 35.06 195.701 35.01 195.581 34.91C195.467 34.8033 195.411 34.6533 195.411 34.46V30.6C195.411 30.4067 195.467 30.26 195.581 30.16C195.701 30.06 195.851 30.01 196.031 30.01C196.211 30.01 196.361 30.06 196.481 30.16C196.601 30.26 196.661 30.4067 196.661 30.6V34.46C196.661 34.6533 196.601 34.8033 196.481 34.91C196.361 35.01 196.211 35.06 196.031 35.06ZM196.031 29.12C195.804 29.12 195.624 29.06 195.491 28.94C195.357 28.8133 195.291 28.65 195.291 28.45C195.291 28.25 195.357 28.09 195.491 27.97C195.624 27.85 195.804 27.79 196.031 27.79C196.251 27.79 196.427 27.85 196.561 27.97C196.701 28.09 196.771 28.25 196.771 28.45C196.771 28.65 196.704 28.8133 196.571 28.94C196.437 29.06 196.257 29.12 196.031 29.12ZM200.79 29.99C201.376 29.99 201.813 30.1567 202.1 30.49C202.386 30.8233 202.53 31.3267 202.53 32V34.46C202.53 34.6467 202.473 34.7933 202.36 34.9C202.253 35.0067 202.103 35.06 201.91 35.06C201.716 35.06 201.563 35.0067 201.45 34.9C201.336 34.7933 201.28 34.6467 201.28 34.46V32.07C201.28 31.69 201.206 31.4133 201.06 31.24C200.92 31.0667 200.696 30.98 200.39 30.98C200.03 30.98 199.74 31.0933 199.52 31.32C199.306 31.5467 199.2 31.85 199.2 32.23V34.46C199.2 34.6467 199.143 34.7933 199.03 34.9C198.916 35.0067 198.763 35.06 198.57 35.06C198.376 35.06 198.223 35.0067 198.11 34.9C198.003 34.7933 197.95 34.6467 197.95 34.46V30.59C197.95 30.4167 198.006 30.2767 198.12 30.17C198.233 30.0633 198.386 30.01 198.58 30.01C198.753 30.01 198.893 30.0633 199 30.17C199.113 30.27 199.17 30.4033 199.17 30.57V30.84C199.336 30.5667 199.56 30.3567 199.84 30.21C200.12 30.0633 200.436 29.99 200.79 29.99ZM206.339 34.13C206.673 34.15 206.839 34.3 206.839 34.58C206.839 34.74 206.773 34.8633 206.639 34.95C206.513 35.03 206.329 35.0633 206.089 35.05L205.819 35.03C204.699 34.95 204.139 34.35 204.139 33.23V31.05H203.639C203.459 31.05 203.319 31.01 203.219 30.93C203.126 30.85 203.079 30.7333 203.079 30.58C203.079 30.4267 203.126 30.31 203.219 30.23C203.319 30.15 203.459 30.11 203.639 30.11H204.139V29.19C204.139 29.01 204.196 28.8667 204.309 28.76C204.423 28.6533 204.576 28.6 204.769 28.6C204.956 28.6 205.106 28.6533 205.219 28.76C205.333 28.8667 205.389 29.01 205.389 29.19V30.11H206.239C206.419 30.11 206.556 30.15 206.649 30.23C206.749 30.31 206.799 30.4267 206.799 30.58C206.799 30.7333 206.749 30.85 206.649 30.93C206.556 31.01 206.419 31.05 206.239 31.05H205.389V33.32C205.389 33.8133 205.616 34.0767 206.069 34.11L206.339 34.13ZM213.301 29.99C213.834 29.99 214.241 30.15 214.521 30.47C214.807 30.7833 214.951 31.2933 214.951 32V34.46C214.951 34.6533 214.891 34.8033 214.771 34.91C214.657 35.01 214.507 35.06 214.321 35.06C214.141 35.06 213.991 35.01 213.871 34.91C213.757 34.8033 213.701 34.6533 213.701 34.46V32C213.701 31.6333 213.634 31.3733 213.501 31.22C213.374 31.06 213.177 30.98 212.911 30.98C212.584 30.98 212.324 31.0933 212.131 31.32C211.937 31.54 211.841 31.8433 211.841 32.23V34.46C211.841 34.6533 211.781 34.8033 211.661 34.91C211.547 35.01 211.401 35.06 211.221 35.06C211.041 35.06 210.891 35.01 210.771 34.91C210.651 34.8033 210.591 34.6533 210.591 34.46V32C210.591 31.6333 210.524 31.3733 210.391 31.22C210.264 31.06 210.067 30.98 209.801 30.98C209.474 30.98 209.214 31.0933 209.021 31.32C208.834 31.54 208.741 31.8433 208.741 32.23V34.46C208.741 34.6533 208.681 34.8033 208.561 34.91C208.441 35.01 208.291 35.06 208.111 35.06C207.931 35.06 207.781 35.01 207.661 34.91C207.547 34.8033 207.491 34.6533 207.491 34.46V30.59C207.491 30.4033 207.551 30.26 207.671 30.16C207.791 30.06 207.941 30.01 208.121 30.01C208.294 30.01 208.434 30.06 208.541 30.16C208.654 30.2533 208.711 30.39 208.711 30.57V30.81C208.864 30.5433 209.067 30.34 209.321 30.2C209.581 30.06 209.877 29.99 210.211 29.99C210.944 29.99 211.434 30.2967 211.681 30.91C211.827 30.63 212.044 30.4067 212.331 30.24C212.617 30.0733 212.941 29.99 213.301 29.99ZM220.091 33.66C220.205 33.66 220.295 33.7033 220.361 33.79C220.435 33.8767 220.471 33.9933 220.471 34.14C220.471 34.3467 220.348 34.52 220.101 34.66C219.875 34.7867 219.618 34.89 219.331 34.97C219.045 35.0433 218.771 35.08 218.511 35.08C217.725 35.08 217.101 34.8533 216.641 34.4C216.181 33.9467 215.951 33.3267 215.951 32.54C215.951 32.04 216.051 31.5967 216.251 31.21C216.451 30.8233 216.731 30.5233 217.091 30.31C217.458 30.0967 217.871 29.99 218.331 29.99C218.771 29.99 219.155 30.0867 219.481 30.28C219.808 30.4733 220.061 30.7467 220.241 31.1C220.421 31.4533 220.511 31.87 220.511 32.35C220.511 32.6367 220.385 32.78 220.131 32.78H217.181C217.221 33.24 217.351 33.58 217.571 33.8C217.791 34.0133 218.111 34.12 218.531 34.12C218.745 34.12 218.931 34.0933 219.091 34.04C219.258 33.9867 219.445 33.9133 219.651 33.82C219.851 33.7133 219.998 33.66 220.091 33.66ZM218.361 30.87C218.021 30.87 217.748 30.9767 217.541 31.19C217.341 31.4033 217.221 31.71 217.181 32.11H219.441C219.428 31.7033 219.328 31.3967 219.141 31.19C218.955 30.9767 218.695 30.87 218.361 30.87ZM224.374 29.99C224.96 29.99 225.397 30.1567 225.684 30.49C225.97 30.8233 226.114 31.3267 226.114 32V34.46C226.114 34.6467 226.057 34.7933 225.944 34.9C225.837 35.0067 225.687 35.06 225.494 35.06C225.3 35.06 225.147 35.0067 225.034 34.9C224.92 34.7933 224.864 34.6467 224.864 34.46V32.07C224.864 31.69 224.79 31.4133 224.644 31.24C224.504 31.0667 224.28 30.98 223.974 30.98C223.614 30.98 223.324 31.0933 223.104 31.32C222.89 31.5467 222.784 31.85 222.784 32.23V34.46C222.784 34.6467 222.727 34.7933 222.614 34.9C222.5 35.0067 222.347 35.06 222.154 35.06C221.96 35.06 221.807 35.0067 221.694 34.9C221.587 34.7933 221.534 34.6467 221.534 34.46V30.59C221.534 30.4167 221.59 30.2767 221.704 30.17C221.817 30.0633 221.97 30.01 222.164 30.01C222.337 30.01 222.477 30.0633 222.584 30.17C222.697 30.27 222.754 30.4033 222.754 30.57V30.84C222.92 30.5667 223.144 30.3567 223.424 30.21C223.704 30.0633 224.02 29.99 224.374 29.99ZM229.923 34.13C230.257 34.15 230.423 34.3 230.423 34.58C230.423 34.74 230.357 34.8633 230.223 34.95C230.097 35.03 229.913 35.0633 229.673 35.05L229.403 35.03C228.283 34.95 227.723 34.35 227.723 33.23V31.05H227.223C227.043 31.05 226.903 31.01 226.803 30.93C226.71 30.85 226.663 30.7333 226.663 30.58C226.663 30.4267 226.71 30.31 226.803 30.23C226.903 30.15 227.043 30.11 227.223 30.11H227.723V29.19C227.723 29.01 227.78 28.8667 227.893 28.76C228.007 28.6533 228.16 28.6 228.353 28.6C228.54 28.6 228.69 28.6533 228.803 28.76C228.917 28.8667 228.973 29.01 228.973 29.19V30.11H229.823C230.003 30.11 230.14 30.15 230.233 30.23C230.333 30.31 230.383 30.4267 230.383 30.58C230.383 30.7333 230.333 30.85 230.233 30.93C230.14 31.01 230.003 31.05 229.823 31.05H228.973V33.32C228.973 33.8133 229.2 34.0767 229.653 34.11L229.923 34.13ZM179.769 49.09C179.089 49.09 178.493 48.9433 177.979 48.65C177.473 48.3567 177.083 47.9367 176.809 47.39C176.536 46.8433 176.399 46.2033 176.399 45.47C176.399 44.7367 176.536 44.1 176.809 43.56C177.083 43.0133 177.473 42.5933 177.979 42.3C178.493 42.0067 179.089 41.86 179.769 41.86C180.209 41.86 180.623 41.9267 181.009 42.06C181.396 42.1867 181.739 42.3733 182.039 42.62C182.126 42.6867 182.186 42.7567 182.219 42.83C182.253 42.9033 182.269 42.9933 182.269 43.1C182.269 43.2467 182.229 43.37 182.149 43.47C182.069 43.57 181.973 43.62 181.859 43.62C181.726 43.62 181.589 43.5733 181.449 43.48C181.163 43.2667 180.896 43.12 180.649 43.04C180.403 42.9533 180.129 42.91 179.829 42.91C179.136 42.91 178.609 43.1267 178.249 43.56C177.896 43.9933 177.719 44.63 177.719 45.47C177.719 46.3167 177.896 46.9567 178.249 47.39C178.609 47.8233 179.136 48.04 179.829 48.04C180.116 48.04 180.379 47.9967 180.619 47.91C180.866 47.8233 181.143 47.6767 181.449 47.47C181.516 47.43 181.583 47.3967 181.649 47.37C181.716 47.3433 181.786 47.33 181.859 47.33C181.973 47.33 182.069 47.38 182.149 47.48C182.229 47.58 182.269 47.7033 182.269 47.85C182.269 47.95 182.253 48.04 182.219 48.12C182.186 48.1933 182.126 48.2633 182.039 48.33C181.739 48.5767 181.396 48.7667 181.009 48.9C180.623 49.0267 180.209 49.09 179.769 49.09ZM185.419 49.08C184.919 49.08 184.479 48.9767 184.099 48.77C183.726 48.5633 183.436 48.2667 183.229 47.88C183.022 47.4933 182.919 47.0433 182.919 46.53C182.919 46.0167 183.022 45.57 183.229 45.19C183.436 44.8033 183.726 44.5067 184.099 44.3C184.479 44.0933 184.919 43.99 185.419 43.99C185.919 43.99 186.356 44.0933 186.729 44.3C187.109 44.5067 187.399 44.8033 187.599 45.19C187.806 45.57 187.909 46.0167 187.909 46.53C187.909 47.0433 187.806 47.4933 187.599 47.88C187.399 48.2667 187.109 48.5633 186.729 48.77C186.356 48.9767 185.919 49.08 185.419 49.08ZM185.409 48.11C185.816 48.11 186.126 47.9767 186.339 47.71C186.552 47.4433 186.659 47.05 186.659 46.53C186.659 46.0167 186.552 45.6267 186.339 45.36C186.126 45.0867 185.819 44.95 185.419 44.95C185.019 44.95 184.709 45.0867 184.489 45.36C184.276 45.6267 184.169 46.0167 184.169 46.53C184.169 47.05 184.276 47.4433 184.489 47.71C184.702 47.9767 185.009 48.11 185.409 48.11ZM191.781 43.99C192.368 43.99 192.804 44.1567 193.091 44.49C193.378 44.8233 193.521 45.3267 193.521 46V48.46C193.521 48.6467 193.464 48.7933 193.351 48.9C193.244 49.0067 193.094 49.06 192.901 49.06C192.708 49.06 192.554 49.0067 192.441 48.9C192.328 48.7933 192.271 48.6467 192.271 48.46V46.07C192.271 45.69 192.198 45.4133 192.051 45.24C191.911 45.0667 191.688 44.98 191.381 44.98C191.021 44.98 190.731 45.0933 190.511 45.32C190.298 45.5467 190.191 45.85 190.191 46.23V48.46C190.191 48.6467 190.134 48.7933 190.021 48.9C189.908 49.0067 189.754 49.06 189.561 49.06C189.368 49.06 189.214 49.0067 189.101 48.9C188.994 48.7933 188.941 48.6467 188.941 48.46V44.59C188.941 44.4167 188.998 44.2767 189.111 44.17C189.224 44.0633 189.378 44.01 189.571 44.01C189.744 44.01 189.884 44.0633 189.991 44.17C190.104 44.27 190.161 44.4033 190.161 44.57V44.84C190.328 44.5667 190.551 44.3567 190.831 44.21C191.111 44.0633 191.428 43.99 191.781 43.99ZM198.991 43.12C198.764 43.12 198.584 43.06 198.451 42.94C198.317 42.8133 198.251 42.65 198.251 42.45C198.251 42.25 198.317 42.09 198.451 41.97C198.584 41.85 198.764 41.79 198.991 41.79C199.211 41.79 199.387 41.85 199.521 41.97C199.661 42.09 199.731 42.25 199.731 42.45C199.731 42.65 199.661 42.8133 199.521 42.94C199.387 43.06 199.211 43.12 198.991 43.12ZM199.051 44.11C199.424 44.11 199.611 44.2667 199.611 44.58V48.46C199.611 48.6533 199.551 48.8033 199.431 48.91C199.317 49.01 199.171 49.06 198.991 49.06C198.811 49.06 198.661 49.01 198.541 48.91C198.421 48.8033 198.361 48.6533 198.361 48.46V45.05H196.381V48.46C196.381 48.6533 196.321 48.8 196.201 48.9C196.087 49 195.941 49.05 195.761 49.05C195.581 49.05 195.431 49 195.311 48.9C195.191 48.8 195.131 48.6533 195.131 48.46V45.05H194.631C194.257 45.05 194.071 44.8933 194.071 44.58C194.071 44.2667 194.257 44.11 194.631 44.11H195.131V44.06C195.131 43.44 195.294 42.95 195.621 42.59C195.954 42.2233 196.421 42.0133 197.021 41.96L197.251 41.94C197.284 41.9333 197.334 41.93 197.401 41.93C197.754 41.93 197.931 42.08 197.931 42.38C197.931 42.5267 197.891 42.64 197.811 42.72C197.731 42.8 197.621 42.8467 197.481 42.86L197.261 42.88C196.954 42.9067 196.731 43.0033 196.591 43.17C196.451 43.33 196.381 43.5667 196.381 43.88V44.11H199.051ZM203.644 44.01C203.817 43.9967 203.954 44.0333 204.054 44.12C204.154 44.2067 204.204 44.3367 204.204 44.51C204.204 44.69 204.16 44.8233 204.074 44.91C203.987 44.9967 203.83 45.0533 203.604 45.08L203.304 45.11C202.91 45.15 202.62 45.2833 202.434 45.51C202.254 45.7367 202.164 46.02 202.164 46.36V48.46C202.164 48.6533 202.104 48.8033 201.984 48.91C201.864 49.01 201.714 49.06 201.534 49.06C201.354 49.06 201.204 49.01 201.084 48.91C200.97 48.8033 200.914 48.6533 200.914 48.46V44.59C200.914 44.4033 200.97 44.26 201.084 44.16C201.204 44.06 201.35 44.01 201.524 44.01C201.697 44.01 201.837 44.06 201.944 44.16C202.05 44.2533 202.104 44.39 202.104 44.57V44.97C202.23 44.6767 202.417 44.45 202.664 44.29C202.917 44.13 203.197 44.04 203.504 44.02L203.644 44.01ZM210.552 43.99C211.085 43.99 211.492 44.15 211.772 44.47C212.058 44.7833 212.202 45.2933 212.202 46V48.46C212.202 48.6533 212.142 48.8033 212.022 48.91C211.908 49.01 211.758 49.06 211.572 49.06C211.392 49.06 211.242 49.01 211.122 48.91C211.008 48.8033 210.952 48.6533 210.952 48.46V46C210.952 45.6333 210.885 45.3733 210.752 45.22C210.625 45.06 210.428 44.98 210.162 44.98C209.835 44.98 209.575 45.0933 209.382 45.32C209.188 45.54 209.092 45.8433 209.092 46.23V48.46C209.092 48.6533 209.032 48.8033 208.912 48.91C208.798 49.01 208.652 49.06 208.472 49.06C208.292 49.06 208.142 49.01 208.022 48.91C207.902 48.8033 207.842 48.6533 207.842 48.46V46C207.842 45.6333 207.775 45.3733 207.642 45.22C207.515 45.06 207.318 44.98 207.052 44.98C206.725 44.98 206.465 45.0933 206.272 45.32C206.085 45.54 205.992 45.8433 205.992 46.23V48.46C205.992 48.6533 205.932 48.8033 205.812 48.91C205.692 49.01 205.542 49.06 205.362 49.06C205.182 49.06 205.032 49.01 204.912 48.91C204.798 48.8033 204.742 48.6533 204.742 48.46V44.59C204.742 44.4033 204.802 44.26 204.922 44.16C205.042 44.06 205.192 44.01 205.372 44.01C205.545 44.01 205.685 44.06 205.792 44.16C205.905 44.2533 205.962 44.39 205.962 44.57V44.81C206.115 44.5433 206.318 44.34 206.572 44.2C206.832 44.06 207.128 43.99 207.462 43.99C208.195 43.99 208.685 44.2967 208.932 44.91C209.078 44.63 209.295 44.4067 209.582 44.24C209.868 44.0733 210.192 43.99 210.552 43.99ZM217.342 47.66C217.456 47.66 217.546 47.7033 217.612 47.79C217.686 47.8767 217.722 47.9933 217.722 48.14C217.722 48.3467 217.599 48.52 217.352 48.66C217.126 48.7867 216.869 48.89 216.582 48.97C216.296 49.0433 216.022 49.08 215.762 49.08C214.976 49.08 214.352 48.8533 213.892 48.4C213.432 47.9467 213.202 47.3267 213.202 46.54C213.202 46.04 213.302 45.5967 213.502 45.21C213.702 44.8233 213.982 44.5233 214.342 44.31C214.709 44.0967 215.122 43.99 215.582 43.99C216.022 43.99 216.406 44.0867 216.732 44.28C217.059 44.4733 217.312 44.7467 217.492 45.1C217.672 45.4533 217.762 45.87 217.762 46.35C217.762 46.6367 217.636 46.78 217.382 46.78H214.432C214.472 47.24 214.602 47.58 214.822 47.8C215.042 48.0133 215.362 48.12 215.782 48.12C215.996 48.12 216.182 48.0933 216.342 48.04C216.509 47.9867 216.696 47.9133 216.902 47.82C217.102 47.7133 217.249 47.66 217.342 47.66ZM215.612 44.87C215.272 44.87 214.999 44.9767 214.792 45.19C214.592 45.4033 214.472 45.71 214.432 46.11H216.692C216.679 45.7033 216.579 45.3967 216.392 45.19C216.206 44.9767 215.946 44.87 215.612 44.87ZM222.865 41.9C223.051 41.9 223.205 41.9533 223.325 42.06C223.445 42.1667 223.505 42.3067 223.505 42.48V48.46C223.505 48.64 223.448 48.7833 223.335 48.89C223.221 48.9967 223.071 49.05 222.885 49.05C222.698 49.05 222.548 48.9967 222.435 48.89C222.321 48.7833 222.265 48.64 222.265 48.46V48.21C222.118 48.4833 221.905 48.6967 221.625 48.85C221.351 49.0033 221.038 49.08 220.685 49.08C220.265 49.08 219.888 48.9733 219.555 48.76C219.228 48.5467 218.971 48.2467 218.785 47.86C218.605 47.4667 218.515 47.0167 218.515 46.51C218.515 46.0033 218.605 45.56 218.785 45.18C218.971 44.8 219.228 44.5067 219.555 44.3C219.881 44.0933 220.258 43.99 220.685 43.99C221.038 43.99 221.351 44.0633 221.625 44.21C221.898 44.3567 222.108 44.5633 222.255 44.83V42.46C222.255 42.2933 222.308 42.16 222.415 42.06C222.528 41.9533 222.678 41.9 222.865 41.9ZM221.015 48.11C221.415 48.11 221.721 47.9733 221.935 47.7C222.155 47.4267 222.265 47.0367 222.265 46.53C222.265 46.0233 222.155 45.6367 221.935 45.37C221.721 45.0967 221.418 44.96 221.025 44.96C220.625 44.96 220.315 45.0933 220.095 45.36C219.875 45.6267 219.765 46.01 219.765 46.51C219.765 47.0167 219.875 47.41 220.095 47.69C220.315 47.97 220.621 48.11 221.015 48.11Z" fill="#00BEE7"/>
<path d="M186.31 65.9C186.457 65.9 186.577 65.95 186.67 66.05C186.764 66.1433 186.81 66.2667 186.81 66.42V72.56C186.81 72.7133 186.767 72.8333 186.68 72.92C186.6 73.0067 186.487 73.05 186.34 73.05C186.2 73.05 186.09 73.0067 186.01 72.92C185.93 72.8333 185.89 72.7133 185.89 72.56V67.91L183.93 71.64C183.804 71.8733 183.64 71.99 183.44 71.99C183.24 71.99 183.077 71.8733 182.95 71.64L180.98 67.95V72.56C180.98 72.7133 180.94 72.8333 180.86 72.92C180.78 73.0067 180.667 73.05 180.52 73.05C180.38 73.05 180.267 73.0067 180.18 72.92C180.1 72.8267 180.06 72.7067 180.06 72.56V66.42C180.06 66.2667 180.107 66.1433 180.2 66.05C180.294 65.95 180.414 65.9 180.56 65.9C180.767 65.9 180.934 66.02 181.06 66.26L183.45 70.83L185.82 66.26C185.947 66.02 186.11 65.9 186.31 65.9ZM190.389 68C191.035 68 191.515 68.1633 191.829 68.49C192.149 68.8167 192.309 69.3133 192.309 69.98V72.57C192.309 72.7233 192.265 72.8433 192.179 72.93C192.092 73.01 191.972 73.05 191.819 73.05C191.672 73.05 191.555 73.0067 191.469 72.92C191.382 72.8333 191.339 72.7167 191.339 72.57V72.2C191.212 72.48 191.022 72.6967 190.769 72.85C190.522 72.9967 190.232 73.07 189.899 73.07C189.579 73.07 189.285 73.0067 189.019 72.88C188.759 72.7467 188.552 72.5667 188.399 72.34C188.245 72.1133 188.169 71.8567 188.169 71.57C188.162 71.21 188.252 70.93 188.439 70.73C188.625 70.5233 188.929 70.3767 189.349 70.29C189.769 70.1967 190.352 70.15 191.099 70.15H191.329V69.86C191.329 69.4867 191.252 69.2167 191.099 69.05C190.945 68.8833 190.699 68.8 190.359 68.8C190.125 68.8 189.905 68.83 189.699 68.89C189.492 68.95 189.265 69.0367 189.019 69.15C188.839 69.25 188.712 69.3 188.639 69.3C188.539 69.3 188.455 69.2633 188.389 69.19C188.329 69.1167 188.299 69.0233 188.299 68.91C188.299 68.81 188.325 68.7233 188.379 68.65C188.439 68.57 188.532 68.4933 188.659 68.42C188.892 68.2933 189.165 68.1933 189.479 68.12C189.792 68.04 190.095 68 190.389 68ZM190.079 72.32C190.445 72.32 190.745 72.1967 190.979 71.95C191.212 71.6967 191.329 71.3733 191.329 70.98V70.72H191.149C190.629 70.72 190.229 70.7433 189.949 70.79C189.669 70.8367 189.469 70.9167 189.349 71.03C189.229 71.1367 189.169 71.2933 189.169 71.5C189.169 71.74 189.255 71.9367 189.429 72.09C189.602 72.2433 189.819 72.32 190.079 72.32ZM196.25 68.02C196.57 68 196.73 68.1367 196.73 68.43C196.73 68.5767 196.694 68.6867 196.62 68.76C196.547 68.8333 196.42 68.8767 196.24 68.89L195.94 68.92C195.52 68.96 195.207 69.1067 195 69.36C194.8 69.6133 194.7 69.92 194.7 70.28V72.57C194.7 72.73 194.654 72.85 194.56 72.93C194.467 73.01 194.347 73.05 194.2 73.05C194.054 73.05 193.93 73.01 193.83 72.93C193.737 72.85 193.69 72.73 193.69 72.57V68.5C193.69 68.3467 193.737 68.23 193.83 68.15C193.93 68.0633 194.054 68.02 194.2 68.02C194.334 68.02 194.444 68.0633 194.53 68.15C194.624 68.23 194.67 68.3433 194.67 68.49V68.97C194.804 68.6767 194.997 68.4533 195.25 68.3C195.504 68.1467 195.79 68.0567 196.11 68.03L196.25 68.02ZM199.345 73.07C198.871 73.07 198.455 72.9667 198.095 72.76C197.741 72.5533 197.465 72.26 197.265 71.88C197.071 71.5 196.975 71.06 196.975 70.56C196.975 70.0533 197.075 69.6067 197.275 69.22C197.481 68.8333 197.768 68.5333 198.135 68.32C198.501 68.1067 198.921 68 199.395 68C199.648 68 199.901 68.0367 200.155 68.11C200.415 68.1833 200.645 68.2833 200.845 68.41C201.058 68.5567 201.165 68.7267 201.165 68.92C201.165 69.0333 201.135 69.13 201.075 69.21C201.015 69.2833 200.938 69.32 200.845 69.32C200.785 69.32 200.725 69.3067 200.665 69.28C200.605 69.2467 200.528 69.2 200.435 69.14C200.268 69.0333 200.111 68.9533 199.965 68.9C199.825 68.84 199.655 68.81 199.455 68.81C199.001 68.81 198.648 68.9633 198.395 69.27C198.148 69.5767 198.025 70.0033 198.025 70.55C198.025 71.0967 198.148 71.52 198.395 71.82C198.641 72.1133 198.991 72.26 199.445 72.26C199.645 72.26 199.821 72.23 199.975 72.17C200.128 72.11 200.285 72.03 200.445 71.93C200.518 71.8833 200.591 71.8433 200.665 71.81C200.738 71.7767 200.805 71.76 200.865 71.76C200.958 71.76 201.035 71.8 201.095 71.88C201.155 71.9533 201.185 72.0467 201.185 72.16C201.185 72.2533 201.158 72.34 201.105 72.42C201.058 72.4933 200.975 72.57 200.855 72.65C200.655 72.7833 200.421 72.8867 200.155 72.96C199.888 73.0333 199.618 73.07 199.345 73.07ZM204.729 68C205.889 68 206.469 68.6567 206.469 69.97V72.57C206.469 72.7167 206.422 72.8333 206.329 72.92C206.235 73.0067 206.112 73.05 205.959 73.05C205.805 73.05 205.682 73.0067 205.589 72.92C205.502 72.8333 205.459 72.7167 205.459 72.57V69.98C205.459 69.58 205.375 69.2867 205.209 69.1C205.049 68.9133 204.795 68.82 204.449 68.82C204.042 68.82 203.715 68.9467 203.469 69.2C203.222 69.4533 203.099 69.7933 203.099 70.22V72.57C203.099 72.7167 203.052 72.8333 202.959 72.92C202.872 73.0067 202.752 73.05 202.599 73.05C202.445 73.05 202.322 73.0067 202.229 72.92C202.135 72.8333 202.089 72.7167 202.089 72.57V66.38C202.089 66.2333 202.135 66.1167 202.229 66.03C202.329 65.9433 202.455 65.9 202.609 65.9C202.755 65.9 202.872 65.9433 202.959 66.03C203.052 66.11 203.099 66.22 203.099 66.36V68.86C203.265 68.58 203.489 68.3667 203.769 68.22C204.049 68.0733 204.369 68 204.729 68ZM212.787 73.08C211.967 73.08 211.34 72.7733 210.907 72.16C210.48 71.5467 210.267 70.6533 210.267 69.48C210.267 68.3 210.48 67.4033 210.907 66.79C211.34 66.1767 211.967 65.87 212.787 65.87C213.607 65.87 214.23 66.1767 214.657 66.79C215.09 67.3967 215.307 68.29 215.307 69.47C215.307 70.65 215.09 71.5467 214.657 72.16C214.23 72.7733 213.607 73.08 212.787 73.08ZM212.787 72.25C213.3 72.25 213.677 72.0267 213.917 71.58C214.157 71.1333 214.277 70.43 214.277 69.47C214.277 68.51 214.157 67.81 213.917 67.37C213.677 66.9233 213.3 66.7 212.787 66.7C212.274 66.7 211.897 66.9233 211.657 67.37C211.417 67.81 211.297 68.51 211.297 69.47C211.297 70.4233 211.417 71.1267 211.657 71.58C211.897 72.0267 212.274 72.25 212.787 72.25ZM219.143 68.53C219.563 68.53 219.94 68.6267 220.273 68.82C220.607 69.0067 220.863 69.27 221.043 69.61C221.23 69.95 221.323 70.34 221.323 70.78C221.323 71.22 221.223 71.6167 221.023 71.97C220.823 72.3167 220.547 72.59 220.193 72.79C219.847 72.9833 219.45 73.08 219.003 73.08C218.13 73.08 217.457 72.7833 216.983 72.19C216.517 71.59 216.283 70.7367 216.283 69.63C216.283 68.85 216.393 68.18 216.613 67.62C216.833 67.0533 217.15 66.62 217.563 66.32C217.977 66.02 218.467 65.87 219.033 65.87C219.413 65.87 219.793 65.94 220.173 66.08C220.553 66.22 220.877 66.4133 221.143 66.66C221.277 66.7733 221.343 66.9067 221.343 67.06C221.343 67.18 221.31 67.2833 221.243 67.37C221.177 67.45 221.097 67.49 221.003 67.49C220.943 67.49 220.887 67.48 220.833 67.46C220.787 67.44 220.73 67.4067 220.663 67.36C220.103 66.9267 219.57 66.71 219.063 66.71C218.51 66.71 218.08 66.9667 217.773 67.48C217.467 67.9867 217.313 68.6967 217.313 69.61V69.63C217.46 69.29 217.697 69.0233 218.023 68.83C218.357 68.63 218.73 68.53 219.143 68.53ZM218.953 72.24C219.367 72.24 219.697 72.11 219.943 71.85C220.197 71.5833 220.323 71.2333 220.323 70.8C220.323 70.3733 220.197 70.03 219.943 69.77C219.697 69.5033 219.367 69.37 218.953 69.37C218.533 69.37 218.19 69.5033 217.923 69.77C217.663 70.03 217.533 70.3733 217.533 70.8C217.533 71.2333 217.663 71.5833 217.923 71.85C218.183 72.11 218.527 72.24 218.953 72.24Z" fill="#B8C0CC"/>
<path d="M184.363 87.96C184.763 87.96 184.963 88.13 184.963 88.47C184.963 88.8233 184.763 89 184.363 89H180.983C180.576 89 180.373 88.8233 180.373 88.47C180.373 88.13 180.576 87.96 180.983 87.96H182.023V83.4L181.063 83.99C180.969 84.0433 180.886 84.07 180.813 84.07C180.673 84.07 180.553 84.01 180.453 83.89C180.359 83.77 180.313 83.6367 180.313 83.49C180.313 83.2967 180.399 83.1467 180.573 83.04L182.123 82.08C182.323 81.96 182.513 81.9 182.693 81.9C182.879 81.9 183.029 81.9567 183.143 82.07C183.256 82.1833 183.313 82.34 183.313 82.54V87.96H184.363ZM190.359 87.96C190.759 87.96 190.959 88.13 190.959 88.47C190.959 88.8233 190.759 89 190.359 89H186.979C186.572 89 186.369 88.8233 186.369 88.47C186.369 88.13 186.572 87.96 186.979 87.96H188.019V83.4L187.059 83.99C186.965 84.0433 186.882 84.07 186.809 84.07C186.669 84.07 186.549 84.01 186.449 83.89C186.355 83.77 186.309 83.6367 186.309 83.49C186.309 83.2967 186.395 83.1467 186.569 83.04L188.119 82.08C188.319 81.96 188.509 81.9 188.689 81.9C188.875 81.9 189.025 81.9567 189.139 82.07C189.252 82.1833 189.309 82.34 189.309 82.54V87.96H190.359ZM192.585 85.5C192.371 85.5 192.195 85.43 192.055 85.29C191.915 85.1433 191.845 84.9633 191.845 84.75C191.845 84.5367 191.915 84.36 192.055 84.22C192.195 84.08 192.371 84.01 192.585 84.01C192.798 84.01 192.975 84.08 193.115 84.22C193.255 84.36 193.325 84.5367 193.325 84.75C193.325 84.9633 193.255 85.1433 193.115 85.29C192.975 85.43 192.798 85.5 192.585 85.5ZM192.585 89.06C192.371 89.06 192.195 88.99 192.055 88.85C191.915 88.7033 191.845 88.5233 191.845 88.31C191.845 88.0967 191.915 87.92 192.055 87.78C192.195 87.6333 192.371 87.56 192.585 87.56C192.798 87.56 192.975 87.6333 193.115 87.78C193.255 87.92 193.325 88.0967 193.325 88.31C193.325 88.5233 193.255 88.7033 193.115 88.85C192.975 88.99 192.798 89.06 192.585 89.06ZM196.825 89.09C195.992 89.09 195.355 88.7833 194.915 88.17C194.475 87.55 194.255 86.65 194.255 85.47C194.255 84.2967 194.475 83.4033 194.915 82.79C195.355 82.17 195.992 81.86 196.825 81.86C197.659 81.86 198.295 82.17 198.735 82.79C199.175 83.4033 199.395 84.2967 199.395 85.47C199.395 86.6433 199.175 87.54 198.735 88.16C198.295 88.78 197.659 89.09 196.825 89.09ZM196.825 88.08C197.279 88.08 197.609 87.8733 197.815 87.46C198.022 87.04 198.125 86.3767 198.125 85.47C198.125 84.5567 198.022 83.8967 197.815 83.49C197.609 83.0767 197.279 82.87 196.825 82.87C196.372 82.87 196.042 83.0767 195.835 83.49C195.629 83.9033 195.525 84.5633 195.525 85.47C195.525 86.3767 195.629 87.04 195.835 87.46C196.042 87.8733 196.372 88.08 196.825 88.08ZM202.821 89.09C201.988 89.09 201.351 88.7833 200.911 88.17C200.471 87.55 200.251 86.65 200.251 85.47C200.251 84.2967 200.471 83.4033 200.911 82.79C201.351 82.17 201.988 81.86 202.821 81.86C203.655 81.86 204.291 82.17 204.731 82.79C205.171 83.4033 205.391 84.2967 205.391 85.47C205.391 86.6433 205.171 87.54 204.731 88.16C204.291 88.78 203.655 89.09 202.821 89.09ZM202.821 88.08C203.275 88.08 203.605 87.8733 203.811 87.46C204.018 87.04 204.121 86.3767 204.121 85.47C204.121 84.5567 204.018 83.8967 203.811 83.49C203.605 83.0767 203.275 82.87 202.821 82.87C202.368 82.87 202.038 83.0767 201.831 83.49C201.625 83.9033 201.521 84.5633 201.521 85.47C201.521 86.3767 201.625 87.04 201.831 87.46C202.038 87.8733 202.368 88.08 202.821 88.08ZM212.967 88.23C213.007 88.3167 213.027 88.4033 213.027 88.49C213.027 88.6433 212.964 88.7733 212.837 88.88C212.717 88.9867 212.577 89.04 212.417 89.04C212.311 89.04 212.211 89.0133 212.117 88.96C212.024 88.9 211.951 88.81 211.897 88.69L211.297 87.35H207.777L207.177 88.69C207.124 88.81 207.051 88.9 206.957 88.96C206.864 89.0133 206.761 89.04 206.647 89.04C206.494 89.04 206.354 88.9867 206.227 88.88C206.101 88.7733 206.037 88.6433 206.037 88.49C206.037 88.4033 206.057 88.3167 206.097 88.23L208.857 82.3C208.917 82.1667 209.007 82.0667 209.127 82C209.254 81.9267 209.387 81.89 209.527 81.89C209.667 81.89 209.797 81.9267 209.917 82C210.044 82.0667 210.137 82.1667 210.197 82.3L212.967 88.23ZM208.217 86.35H210.857L209.537 83.38L208.217 86.35ZM220.259 81.9C220.446 81.9 220.596 81.96 220.709 82.08C220.823 82.1933 220.879 82.3467 220.879 82.54V88.46C220.879 88.6467 220.826 88.7933 220.719 88.9C220.613 89.0067 220.473 89.06 220.299 89.06C220.126 89.06 219.989 89.0067 219.889 88.9C219.789 88.7933 219.739 88.6467 219.739 88.46V84.34L218.039 87.56C217.959 87.7067 217.873 87.8167 217.779 87.89C217.686 87.9567 217.576 87.99 217.449 87.99C217.323 87.99 217.213 87.9567 217.119 87.89C217.026 87.8233 216.939 87.7133 216.859 87.56L215.149 84.39V88.46C215.149 88.64 215.096 88.7867 214.989 88.9C214.889 89.0067 214.753 89.06 214.579 89.06C214.406 89.06 214.269 89.0067 214.169 88.9C214.069 88.7933 214.019 88.6467 214.019 88.46V82.54C214.019 82.3467 214.073 82.1933 214.179 82.08C214.293 81.96 214.443 81.9 214.629 81.9C214.889 81.9 215.093 82.0433 215.239 82.33L217.459 86.56L219.669 82.33C219.816 82.0433 220.013 81.9 220.259 81.9Z" fill="#00BEE7"/>
<path d="M184.363 87.96C184.763 87.96 184.963 88.13 184.963 88.47C184.963 88.8233 184.763 89 184.363 89H180.983C180.576 89 180.373 88.8233 180.373 88.47C180.373 88.13 180.576 87.96 180.983 87.96H182.023V83.4L181.063 83.99C180.969 84.0433 180.886 84.07 180.813 84.07C180.673 84.07 180.553 84.01 180.453 83.89C180.359 83.77 180.313 83.6367 180.313 83.49C180.313 83.2967 180.399 83.1467 180.573 83.04L182.123 82.08C182.323 81.96 182.513 81.9 182.693 81.9C182.879 81.9 183.029 81.9567 183.143 82.07C183.256 82.1833 183.313 82.34 183.313 82.54V87.96H184.363ZM190.359 87.96C190.759 87.96 190.959 88.13 190.959 88.47C190.959 88.8233 190.759 89 190.359 89H186.979C186.572 89 186.369 88.8233 186.369 88.47C186.369 88.13 186.572 87.96 186.979 87.96H188.019V83.4L187.059 83.99C186.965 84.0433 186.882 84.07 186.809 84.07C186.669 84.07 186.549 84.01 186.449 83.89C186.355 83.77 186.309 83.6367 186.309 83.49C186.309 83.2967 186.395 83.1467 186.569 83.04L188.119 82.08C188.319 81.96 188.509 81.9 188.689 81.9C188.875 81.9 189.025 81.9567 189.139 82.07C189.252 82.1833 189.309 82.34 189.309 82.54V87.96H190.359ZM192.585 85.5C192.371 85.5 192.195 85.43 192.055 85.29C191.915 85.1433 191.845 84.9633 191.845 84.75C191.845 84.5367 191.915 84.36 192.055 84.22C192.195 84.08 192.371 84.01 192.585 84.01C192.798 84.01 192.975 84.08 193.115 84.22C193.255 84.36 193.325 84.5367 193.325 84.75C193.325 84.9633 193.255 85.1433 193.115 85.29C192.975 85.43 192.798 85.5 192.585 85.5ZM192.585 89.06C192.371 89.06 192.195 88.99 192.055 88.85C191.915 88.7033 191.845 88.5233 191.845 88.31C191.845 88.0967 191.915 87.92 192.055 87.78C192.195 87.6333 192.371 87.56 192.585 87.56C192.798 87.56 192.975 87.6333 193.115 87.78C193.255 87.92 193.325 88.0967 193.325 88.31C193.325 88.5233 193.255 88.7033 193.115 88.85C192.975 88.99 192.798 89.06 192.585 89.06ZM196.825 89.09C195.992 89.09 195.355 88.7833 194.915 88.17C194.475 87.55 194.255 86.65 194.255 85.47C194.255 84.2967 194.475 83.4033 194.915 82.79C195.355 82.17 195.992 81.86 196.825 81.86C197.659 81.86 198.295 82.17 198.735 82.79C199.175 83.4033 199.395 84.2967 199.395 85.47C199.395 86.6433 199.175 87.54 198.735 88.16C198.295 88.78 197.659 89.09 196.825 89.09ZM196.825 88.08C197.279 88.08 197.609 87.8733 197.815 87.46C198.022 87.04 198.125 86.3767 198.125 85.47C198.125 84.5567 198.022 83.8967 197.815 83.49C197.609 83.0767 197.279 82.87 196.825 82.87C196.372 82.87 196.042 83.0767 195.835 83.49C195.629 83.9033 195.525 84.5633 195.525 85.47C195.525 86.3767 195.629 87.04 195.835 87.46C196.042 87.8733 196.372 88.08 196.825 88.08ZM202.821 89.09C201.988 89.09 201.351 88.7833 200.911 88.17C200.471 87.55 200.251 86.65 200.251 85.47C200.251 84.2967 200.471 83.4033 200.911 82.79C201.351 82.17 201.988 81.86 202.821 81.86C203.655 81.86 204.291 82.17 204.731 82.79C205.171 83.4033 205.391 84.2967 205.391 85.47C205.391 86.6433 205.171 87.54 204.731 88.16C204.291 88.78 203.655 89.09 202.821 89.09ZM202.821 88.08C203.275 88.08 203.605 87.8733 203.811 87.46C204.018 87.04 204.121 86.3767 204.121 85.47C204.121 84.5567 204.018 83.8967 203.811 83.49C203.605 83.0767 203.275 82.87 202.821 82.87C202.368 82.87 202.038 83.0767 201.831 83.49C201.625 83.9033 201.521 84.5633 201.521 85.47C201.521 86.3767 201.625 87.04 201.831 87.46C202.038 87.8733 202.368 88.08 202.821 88.08ZM212.967 88.23C213.007 88.3167 213.027 88.4033 213.027 88.49C213.027 88.6433 212.964 88.7733 212.837 88.88C212.717 88.9867 212.577 89.04 212.417 89.04C212.311 89.04 212.211 89.0133 212.117 88.96C212.024 88.9 211.951 88.81 211.897 88.69L211.297 87.35H207.777L207.177 88.69C207.124 88.81 207.051 88.9 206.957 88.96C206.864 89.0133 206.761 89.04 206.647 89.04C206.494 89.04 206.354 88.9867 206.227 88.88C206.101 88.7733 206.037 88.6433 206.037 88.49C206.037 88.4033 206.057 88.3167 206.097 88.23L208.857 82.3C208.917 82.1667 209.007 82.0667 209.127 82C209.254 81.9267 209.387 81.89 209.527 81.89C209.667 81.89 209.797 81.9267 209.917 82C210.044 82.0667 210.137 82.1667 210.197 82.3L212.967 88.23ZM208.217 86.35H210.857L209.537 83.38L208.217 86.35ZM220.259 81.9C220.446 81.9 220.596 81.96 220.709 82.08C220.823 82.1933 220.879 82.3467 220.879 82.54V88.46C220.879 88.6467 220.826 88.7933 220.719 88.9C220.613 89.0067 220.473 89.06 220.299 89.06C220.126 89.06 219.989 89.0067 219.889 88.9C219.789 88.7933 219.739 88.6467 219.739 88.46V84.34L218.039 87.56C217.959 87.7067 217.873 87.8167 217.779 87.89C217.686 87.9567 217.576 87.99 217.449 87.99C217.323 87.99 217.213 87.9567 217.119 87.89C217.026 87.8233 216.939 87.7133 216.859 87.56L215.149 84.39V88.46C215.149 88.64 215.096 88.7867 214.989 88.9C214.889 89.0067 214.753 89.06 214.579 89.06C214.406 89.06 214.269 89.0067 214.169 88.9C214.069 88.7933 214.019 88.6467 214.019 88.46V82.54C214.019 82.3467 214.073 82.1933 214.179 82.08C214.293 81.96 214.443 81.9 214.629 81.9C214.889 81.9 215.093 82.0433 215.239 82.33L217.459 86.56L219.669 82.33C219.816 82.0433 220.013 81.9 220.259 81.9Z" fill="#00BEE7"/>
</svg>
