<svg width="21" height="20" viewBox="0 0 21 20" fill="none" xmlns="http://www.w3.org/2000/svg">
<path d="M13.8583 6.71667C15.4369 6.71667 16.7167 5.43695 16.7167 3.85833C16.7167 2.27972 15.4369 1 13.8583 1C12.2797 1 11 2.27972 11 3.85833C11 5.43695 12.2797 6.71667 13.8583 6.71667Z" stroke="#00BEE7" stroke-width="1.5" stroke-linecap="round" stroke-linejoin="round"/>
<path d="M8.5 10.8712C8.81102 9.7047 9.5024 8.67466 10.4651 7.94358C11.4279 7.2125 12.6072 6.82195 13.8171 6.8335C15.2801 6.8335 16.6832 7.41328 17.7177 8.4453C18.7522 9.47733 19.3333 10.8771 19.3333 12.3366V18.9166" stroke="#00BEE7" stroke-width="1.5" stroke-linecap="round" stroke-linejoin="round"/>
<path d="M6.35833 10.8834C7.93695 10.8834 9.21667 9.6037 9.21667 8.02508C9.21667 6.44647 7.93695 5.16675 6.35833 5.16675C4.77972 5.16675 3.5 6.44647 3.5 8.02508C3.5 9.6037 4.77972 10.8834 6.35833 10.8834Z" stroke="#00BEE7" stroke-width="1.5" stroke-linecap="round" stroke-linejoin="round"/>
<path d="M11.8326 18.9167V16.4929C11.8448 15.776 11.7137 15.0638 11.447 14.3979C11.1803 13.7321 10.7833 13.1258 10.2792 12.6145C9.77504 12.1032 9.17388 11.6971 8.51073 11.4199C7.84758 11.1427 7.1357 11 6.41664 11C5.69758 11 4.98576 11.1427 4.3226 11.4199C3.65945 11.6971 3.05825 12.1032 2.55413 12.6145C2.05001 13.1258 1.65302 13.7321 1.38632 14.3979C1.11962 15.0638 0.988583 15.776 1.00078 16.4929V18.9167" stroke="#00BEE7" stroke-width="1.5" stroke-linecap="round" stroke-linejoin="round"/>
</svg>
