<svg width="13" height="21" viewBox="0 0 13 21" fill="none" xmlns="http://www.w3.org/2000/svg">
<path d="M10.3672 1H2.46617C1.65642 1 1 1.66121 1 2.47685V17.8565C1 18.6721 1.65642 19.3333 2.46617 19.3333H10.3672C11.1769 19.3333 11.8333 18.6721 11.8333 17.8565V2.47685C11.8333 1.66121 11.1769 1 10.3672 1Z" fill="white" stroke="#00BEE7" stroke-width="1.5" stroke-linecap="round" stroke-linejoin="round"/>
<path d="M4.75 3.5H8.08333" stroke="#00BEE7" stroke-width="1.5" stroke-linecap="round"/>
<path d="M6.41683 17.6667C6.87707 17.6667 7.25016 17.2936 7.25016 16.8333C7.25016 16.3731 6.87707 16 6.41683 16C5.95659 16 5.5835 16.3731 5.5835 16.8333C5.5835 17.2936 5.95659 17.6667 6.41683 17.6667Z" fill="#00BEE7"/>
</svg>
