<svg width="13" height="21" viewBox="0 0 13 21" fill="none" xmlns="http://www.w3.org/2000/svg">
<path d="M10.3672 1H2.46617C1.65642 1 1 1.66121 1 2.47685V17.8565C1 18.6721 1.65642 19.3333 2.46617 19.3333H10.3672C11.1769 19.3333 11.8333 18.6721 11.8333 17.8565V2.47685C11.8333 1.66121 11.1769 1 10.3672 1Z" fill="white" stroke="#00BEE7" stroke-width="1.5" stroke-linecap="round" stroke-linejoin="round"/>
<path d="M8.36337 11.607C8.36337 11.9803 8.2327 12.2953 7.97137 12.552C7.7147 12.8087 7.36703 12.9697 6.92837 13.035V13.476C6.92837 13.5833 6.8957 13.6697 6.83037 13.735C6.76503 13.805 6.6787 13.84 6.57137 13.84C6.46403 13.84 6.3777 13.805 6.31237 13.735C6.24703 13.6697 6.21437 13.5833 6.21437 13.476V13.049C5.94837 13.0257 5.68937 12.9697 5.43737 12.881C5.18537 12.7923 4.96837 12.6757 4.78637 12.531C4.7257 12.489 4.6837 12.4423 4.66037 12.391C4.63703 12.3397 4.62537 12.2767 4.62537 12.202C4.62537 12.104 4.65337 12.0177 4.70937 11.943C4.77003 11.8683 4.8377 11.831 4.91237 11.831C4.95903 11.831 5.00103 11.8403 5.03837 11.859C5.08037 11.873 5.13403 11.8987 5.19937 11.936C5.41403 12.076 5.62403 12.1787 5.82937 12.244C6.03937 12.3093 6.2587 12.342 6.48737 12.342C6.80003 12.342 7.04037 12.2813 7.20837 12.16C7.38103 12.0387 7.46737 11.8637 7.46737 11.635C7.46737 11.4997 7.4207 11.39 7.32737 11.306C7.23403 11.222 7.11737 11.1567 6.97737 11.11C6.83737 11.0587 6.64137 11.0003 6.38937 10.935C6.03937 10.8463 5.7547 10.7577 5.53537 10.669C5.31603 10.5757 5.12703 10.4357 4.96837 10.249C4.8097 10.0623 4.73037 9.81033 4.73037 9.493C4.73037 9.115 4.8657 8.793 5.13637 8.527C5.40703 8.261 5.7617 8.09533 6.20037 8.03V7.589C6.20037 7.48167 6.23303 7.39533 6.29837 7.33C6.3637 7.26 6.45003 7.225 6.55737 7.225C6.6647 7.225 6.75103 7.26 6.81637 7.33C6.8817 7.39533 6.91437 7.48167 6.91437 7.589V8.023C7.3857 8.08367 7.7917 8.254 8.13237 8.534C8.24437 8.618 8.30037 8.72767 8.30037 8.863C8.30037 8.961 8.27003 9.04733 8.20937 9.122C8.15337 9.19667 8.0857 9.234 8.00637 9.234C7.96437 9.234 7.92237 9.227 7.88037 9.213C7.84303 9.199 7.7917 9.171 7.72637 9.129C7.53503 8.99367 7.35303 8.89333 7.18037 8.828C7.01237 8.758 6.8117 8.723 6.57837 8.723C6.28903 8.723 6.05803 8.78833 5.88537 8.919C5.7127 9.045 5.62637 9.22 5.62637 9.444C5.62637 9.598 5.67537 9.724 5.77337 9.822C5.87137 9.91533 5.99503 9.98767 6.14437 10.039C6.2937 10.0903 6.4967 10.1487 6.75337 10.214C7.09403 10.298 7.3717 10.3843 7.58637 10.473C7.80103 10.5617 7.98303 10.697 8.13237 10.879C8.28637 11.0563 8.36337 11.299 8.36337 11.607Z" fill="#00BEE7"/>
<path d="M4.75 3.5H8.08333" stroke="#00BEE7" stroke-width="1.5" stroke-linecap="round"/>
<path d="M6.41683 17.6667C6.87707 17.6667 7.25016 17.2936 7.25016 16.8333C7.25016 16.3731 6.87707 16 6.41683 16C5.95659 16 5.5835 16.3731 5.5835 16.8333C5.5835 17.2936 5.95659 17.6667 6.41683 17.6667Z" fill="#00BEE7"/>
</svg>
