<svg width="20" height="20" viewBox="0 0 20 20" fill="none" xmlns="http://www.w3.org/2000/svg">
<path d="M19.101 8.25823C19.1008 6.28907 18.3184 4.40061 16.9261 3.0082C15.5337 1.61579 13.6453 0.833481 11.6763 0.833252V8.25823H19.101Z" stroke="#00BEE7" stroke-width="1.5" stroke-linecap="round" stroke-linejoin="round"/>
<path d="M8.25821 4.25024C6.78975 4.25024 5.35425 4.68572 4.13327 5.50159C2.91229 6.31746 1.96064 7.47709 1.39868 8.83384C0.836724 10.1906 0.689676 11.6835 0.976159 13.1238C1.26264 14.5641 1.96978 15.8871 3.00815 16.9255C4.04651 17.9639 5.36949 18.6711 6.80974 18.9576C8.24999 19.2441 9.74279 19.097 11.0995 18.5351C12.4562 17.9731 13.6157 17.0214 14.4316 15.8003C15.2474 14.5793 15.6829 13.1438 15.6829 11.6753" stroke="#00BEE7" stroke-width="1.5" stroke-linecap="round" stroke-linejoin="round"/>
</svg>
