<svg width="223" height="185" viewBox="0 0 223 185" fill="none" xmlns="http://www.w3.org/2000/svg">
<rect x="24.2114" y="22.3314" width="197.788" height="151.131" rx="9" fill="white" stroke="#B8C0CC" stroke-width="2"/>
<path fill-rule="evenodd" clip-rule="evenodd" d="M66.7596 3.5896L69.217 1.64506C69.0863 1.57925 68.9556 1.48894 68.8158 1.39237C68.5802 1.22954 68.3188 1.04891 67.9882 0.937944C67.9005 0.937944 67.8566 0.893751 67.8127 0.849557C67.7688 0.805363 67.725 0.76117 67.6372 0.76117C64.2457 -0.946659 60.1988 0.315368 58.3455 3.59086L58.3351 3.5897C57.1064 5.71102 57.1064 8.36269 58.3351 10.484H58.3764C58.8331 11.232 58.8908 11.3773 58.9485 11.5226C58.9704 11.5778 58.9924 11.6331 59.0363 11.7215C61.4937 14.9034 66.0574 15.4338 69.217 12.9589L69.2174 12.9589C71.3237 11.1911 72.2014 8.53947 71.8503 5.88781H65.0047V8.71625H68.8663C68.6922 9.76836 67.9999 10.4726 67.1322 11.0015C66.6812 11.1871 66.1599 11.3679 66.0574 11.3679C63.7761 12.0748 61.3193 11.0148 60.6165 8.71785L60.617 8.71624C60.617 8.71624 60.3534 8.00913 60.3534 7.12524C60.3534 6.67321 60.4682 6.22117 60.5805 5.88736L60.5809 5.88771C60.7915 5.35739 60.967 5.00383 60.967 5.00383C62.1958 3.05928 64.8287 2.35216 66.7596 3.5896Z" fill="#00BEE7"/>
<path d="M45.2164 5.05508H42.4521V3.26133C42.4521 2.77213 42.7976 2.446 43.3159 2.28294H44.5253V0H42.6248C41.0699 0 39.8605 0.9784 39.8605 2.446V2.60908V4.892H37.96V7.17494H39.8605V14.5129H42.6248V7.17494H44.6981L45.2164 5.05508Z" fill="#00BEE7"/>
<path fill-rule="evenodd" clip-rule="evenodd" d="M98.1068 2.47031C98.2689 2.93349 98.4311 3.55108 98.4311 4.16866V10.3444C98.4311 10.8075 98.269 11.425 98.1069 12.0425L98.1068 12.0428C97.7826 13.1235 96.972 13.8955 95.8372 14.2043C95.3508 14.3587 94.7023 14.5131 94.0538 14.5131H87.7312C87.2448 14.5131 86.5963 14.3587 85.9479 14.2043C84.9752 13.5867 84.1646 12.9691 83.6782 12.0428C83.5161 11.5796 83.354 10.962 83.354 10.3444V4.32305C83.354 3.70547 83.5161 3.08789 83.6782 2.47031C84.3267 1.54394 84.9752 0.771979 85.9479 0.308796C86.4342 0.154401 87.0827 0 87.7312 0H94.0538C94.5402 0 95.1886 0.154388 95.8371 0.308776L95.8372 0.308796C96.972 0.617585 97.7826 1.38955 98.1068 2.47031ZM96.4856 10.962C96.6477 10.4988 96.6478 10.19 96.6478 9.72685V4.47744C96.6478 4.01426 96.6477 3.70546 96.4856 3.24228L96.4855 3.24204C96.3234 2.93333 96.1614 2.62466 95.9993 2.47031C95.8372 2.39311 95.7156 2.31592 95.594 2.23872C95.4724 2.16153 95.3508 2.08433 95.1887 2.00713C94.7023 1.85274 94.3781 1.85274 93.8918 1.85274H93.8918H88.3797H88.3796C87.8933 1.85274 87.5691 1.85274 87.0827 2.00713L87.0826 2.00717C86.7584 2.16155 86.4342 2.31593 86.2721 2.47031C86.1911 2.6247 86.11 2.7405 86.029 2.85629C85.9479 2.97209 85.8669 3.08789 85.7858 3.24228C85.6237 3.70546 85.6237 4.01426 85.6237 4.47744V9.72685C85.6237 10.19 85.6237 10.4988 85.7858 10.962L85.7859 10.9622C85.948 11.2709 86.11 11.5796 86.2721 11.734C86.4342 11.8112 86.5558 11.8884 86.6774 11.9656C86.799 12.0428 86.9206 12.12 87.0827 12.1972C87.5691 12.3516 87.8933 12.3516 88.3796 12.3516H88.3797H93.8918H93.8918C94.3781 12.3516 94.7023 12.3516 95.1887 12.1972C95.8372 12.0428 96.3235 11.5796 96.4856 10.962ZM87.569 7.33373C87.569 5.43689 89.2288 4.01425 91.0545 4.01425C93.0463 4.01425 94.5401 5.43689 94.5401 7.33373C94.5401 9.23057 92.8803 10.6532 91.0545 10.6532C89.0628 10.6532 87.569 9.0725 87.569 7.33373ZM89.2287 7.33373C89.2287 8.28215 90.0586 9.0725 91.0545 9.0725H91.2205C92.2164 9.0725 92.8803 8.28215 92.8803 7.33373C92.8803 6.38531 92.0504 5.59495 91.0545 5.59495C90.0586 5.59495 89.2287 6.38531 89.2287 7.33373Z" fill="#00BEE7"/>
<rect x="38.96" y="68.7271" width="168.527" height="63.3082" rx="3" fill="white" stroke="#EAEFF4" stroke-width="2"/>
<rect x="86" y="143" width="75" height="18" rx="4" fill="#00BEE7"/>
<path d="M104.542 151.36C104.949 151.473 105.262 151.68 105.482 151.98C105.709 152.28 105.822 152.647 105.822 153.08C105.822 153.68 105.606 154.15 105.172 154.49C104.746 154.83 104.156 155 103.402 155H100.822C100.629 155 100.476 154.947 100.362 154.84C100.256 154.733 100.202 154.583 100.202 154.39V148.56C100.202 148.367 100.256 148.217 100.362 148.11C100.476 148.003 100.629 147.95 100.822 147.95H103.302C104.036 147.95 104.609 148.113 105.022 148.44C105.442 148.76 105.652 149.21 105.652 149.79C105.652 150.163 105.552 150.487 105.352 150.76C105.159 151.033 104.889 151.233 104.542 151.36ZM101.462 150.92H103.092C103.979 150.92 104.422 150.59 104.422 149.93C104.422 149.597 104.312 149.35 104.092 149.19C103.872 149.03 103.539 148.95 103.092 148.95H101.462V150.92ZM103.262 154C103.729 154 104.069 153.917 104.282 153.75C104.496 153.583 104.602 153.323 104.602 152.97C104.602 152.617 104.492 152.353 104.272 152.18C104.059 152.007 103.722 151.92 103.262 151.92H101.462V154H103.262ZM109.149 155.08C108.649 155.08 108.209 154.977 107.829 154.77C107.455 154.563 107.165 154.267 106.959 153.88C106.752 153.493 106.649 153.043 106.649 152.53C106.649 152.017 106.752 151.57 106.959 151.19C107.165 150.803 107.455 150.507 107.829 150.3C108.209 150.093 108.649 149.99 109.149 149.99C109.649 149.99 110.085 150.093 110.459 150.3C110.839 150.507 111.129 150.803 111.329 151.19C111.535 151.57 111.639 152.017 111.639 152.53C111.639 153.043 111.535 153.493 111.329 153.88C111.129 154.267 110.839 154.563 110.459 154.77C110.085 154.977 109.649 155.08 109.149 155.08ZM109.139 154.11C109.545 154.11 109.855 153.977 110.069 153.71C110.282 153.443 110.389 153.05 110.389 152.53C110.389 152.017 110.282 151.627 110.069 151.36C109.855 151.087 109.549 150.95 109.149 150.95C108.749 150.95 108.439 151.087 108.219 151.36C108.005 151.627 107.899 152.017 107.899 152.53C107.899 153.05 108.005 153.443 108.219 153.71C108.432 153.977 108.739 154.11 109.139 154.11ZM114.901 155.08C114.401 155.08 113.961 154.977 113.581 154.77C113.207 154.563 112.917 154.267 112.711 153.88C112.504 153.493 112.401 153.043 112.401 152.53C112.401 152.017 112.504 151.57 112.711 151.19C112.917 150.803 113.207 150.507 113.581 150.3C113.961 150.093 114.401 149.99 114.901 149.99C115.401 149.99 115.837 150.093 116.211 150.3C116.591 150.507 116.881 150.803 117.081 151.19C117.287 151.57 117.391 152.017 117.391 152.53C117.391 153.043 117.287 153.493 117.081 153.88C116.881 154.267 116.591 154.563 116.211 154.77C115.837 154.977 115.401 155.08 114.901 155.08ZM114.891 154.11C115.297 154.11 115.607 153.977 115.821 153.71C116.034 153.443 116.141 153.05 116.141 152.53C116.141 152.017 116.034 151.627 115.821 151.36C115.607 151.087 115.301 150.95 114.901 150.95C114.501 150.95 114.191 151.087 113.971 151.36C113.757 151.627 113.651 152.017 113.651 152.53C113.651 153.05 113.757 153.443 113.971 153.71C114.184 153.977 114.491 154.11 114.891 154.11ZM122.772 154.03C122.906 154.157 122.972 154.3 122.972 154.46C122.972 154.613 122.916 154.75 122.802 154.87C122.696 154.99 122.569 155.05 122.422 155.05C122.276 155.05 122.139 154.99 122.012 154.87L119.672 152.75V154.46C119.672 154.653 119.612 154.8 119.492 154.9C119.372 155 119.222 155.05 119.042 155.05C118.862 155.05 118.712 155 118.592 154.9C118.479 154.8 118.422 154.653 118.422 154.46V148.49C118.422 148.297 118.479 148.15 118.592 148.05C118.712 147.95 118.862 147.9 119.042 147.9C119.222 147.9 119.372 147.95 119.492 148.05C119.612 148.15 119.672 148.297 119.672 148.49V152.25L121.812 150.2C121.932 150.08 122.069 150.02 122.222 150.02C122.376 150.02 122.509 150.077 122.622 150.19C122.736 150.303 122.792 150.437 122.792 150.59C122.792 150.743 122.729 150.883 122.602 151.01L121.032 152.47L122.772 154.03ZM131.949 147.9C132.135 147.9 132.282 147.96 132.389 148.08C132.502 148.193 132.559 148.347 132.559 148.54V154.41C132.559 154.603 132.502 154.76 132.389 154.88C132.275 155 132.129 155.06 131.949 155.06C131.735 155.06 131.572 154.983 131.459 154.83L127.809 150.08V154.41C127.809 154.603 127.755 154.76 127.649 154.88C127.542 155 127.395 155.06 127.209 155.06C127.022 155.06 126.875 155 126.769 154.88C126.662 154.76 126.609 154.603 126.609 154.41V148.54C126.609 148.347 126.665 148.193 126.779 148.08C126.892 147.96 127.042 147.9 127.229 147.9C127.435 147.9 127.595 147.977 127.709 148.13L131.349 152.86V148.54C131.349 148.347 131.402 148.193 131.509 148.08C131.622 147.96 131.769 147.9 131.949 147.9ZM136.199 155.08C135.699 155.08 135.259 154.977 134.879 154.77C134.506 154.563 134.216 154.267 134.009 153.88C133.803 153.493 133.699 153.043 133.699 152.53C133.699 152.017 133.803 151.57 134.009 151.19C134.216 150.803 134.506 150.507 134.879 150.3C135.259 150.093 135.699 149.99 136.199 149.99C136.699 149.99 137.136 150.093 137.509 150.3C137.889 150.507 138.179 150.803 138.379 151.19C138.586 151.57 138.689 152.017 138.689 152.53C138.689 153.043 138.586 153.493 138.379 153.88C138.179 154.267 137.889 154.563 137.509 154.77C137.136 154.977 136.699 155.08 136.199 155.08ZM136.189 154.11C136.596 154.11 136.906 153.977 137.119 153.71C137.333 153.443 137.439 153.05 137.439 152.53C137.439 152.017 137.333 151.627 137.119 151.36C136.906 151.087 136.599 150.95 136.199 150.95C135.799 150.95 135.489 151.087 135.269 151.36C135.056 151.627 134.949 152.017 134.949 152.53C134.949 153.05 135.056 153.443 135.269 153.71C135.483 153.977 135.789 154.11 136.189 154.11ZM146.253 150.38C146.3 150.26 146.366 150.17 146.453 150.11C146.546 150.05 146.646 150.02 146.753 150.02C146.906 150.02 147.043 150.073 147.163 150.18C147.29 150.28 147.353 150.407 147.353 150.56C147.353 150.647 147.336 150.723 147.303 150.79L145.653 154.66C145.6 154.787 145.516 154.883 145.403 154.95C145.296 155.017 145.176 155.05 145.043 155.05C144.916 155.05 144.796 155.017 144.683 154.95C144.576 154.883 144.496 154.787 144.443 154.66L143.253 151.8L142.103 154.66C142.05 154.787 141.966 154.883 141.853 154.95C141.746 155.017 141.626 155.05 141.493 155.05C141.366 155.05 141.246 155.017 141.133 154.95C141.02 154.883 140.936 154.787 140.883 154.66L139.243 150.79C139.21 150.703 139.193 150.63 139.193 150.57C139.193 150.417 139.26 150.287 139.393 150.18C139.526 150.067 139.673 150.01 139.833 150.01C139.946 150.01 140.05 150.04 140.143 150.1C140.236 150.16 140.306 150.25 140.353 150.37L141.533 153.42L142.743 150.4C142.796 150.273 142.873 150.18 142.973 150.12C143.073 150.053 143.183 150.02 143.303 150.02C143.423 150.02 143.533 150.053 143.633 150.12C143.733 150.18 143.81 150.273 143.863 150.4L145.083 153.43L146.253 150.38Z" fill="white"/>
<path d="M24.6567 53.2141H221.791" stroke="#B8C0CC" stroke-width="2" stroke-linecap="round"/>
<path d="M94.8665 106.088C93.9635 100.787 97.5382 95.7446 102.839 94.8416L112.293 93.2309C113.92 92.9538 115.013 91.4108 114.736 89.7844C114.459 88.158 112.916 87.0642 111.29 87.3413L101.835 88.952C93.28 90.4095 87.5193 98.536 88.9769 107.091C90.4344 115.647 98.5609 121.408 107.116 119.95L116.571 118.339C118.197 118.062 119.291 116.519 119.014 114.893C118.737 113.266 117.194 112.173 115.567 112.45L106.113 114.06C100.812 114.963 95.7696 111.389 94.8665 106.088ZM107.576 103.923C107.867 105.635 109.492 106.786 111.204 106.495L129.802 103.326C131.514 103.034 132.666 101.41 132.374 99.6982C132.083 97.9862 130.458 96.8348 128.746 97.1265L110.147 100.295C108.435 100.587 107.284 102.211 107.576 103.923ZM132.834 83.671L123.379 85.2817C121.753 85.5588 120.659 87.1018 120.936 88.7282C121.213 90.3546 122.756 91.4484 124.383 91.1714L133.837 89.5607C139.138 88.6576 144.18 92.2323 145.083 97.533C145.986 102.834 142.412 107.876 137.111 108.779L127.657 110.39C126.03 110.667 124.936 112.21 125.214 113.837C125.491 115.463 127.034 116.557 128.66 116.28L138.114 114.669C146.67 113.212 152.431 105.085 150.973 96.5296C149.516 87.9742 141.389 82.2135 132.834 83.671Z" fill="#00BEE7"/>
<circle cx="44.6117" cy="38.0965" r="6.65176" fill="#B8C0CC"/>
<circle cx="70.0097" cy="38.0965" r="6.65176" fill="#B8C0CC"/>
<path d="M88.3702 117.971C91.0139 117.971 93.157 115.812 93.157 113.148C93.157 110.484 91.0139 108.324 88.3702 108.324C85.7266 108.324 83.5835 110.484 83.5835 113.148C83.5835 115.812 85.7266 117.971 88.3702 117.971Z" fill="#B8C0CC"/>
<path d="M50.3623 148.199C50.3623 148.199 72.4013 126.897 88.0626 113.443" stroke="#B8C0CC" stroke-width="2" stroke-linecap="round" stroke-linejoin="round"/>
<path d="M40.9863 105.219C51.2956 105.219 61.1825 109.346 68.4723 116.692C75.762 124.038 79.8573 134.001 79.8573 144.39C79.8576 149.57 78.8455 154.698 76.8788 159.483C74.9121 164.268 72.0294 168.616 68.3952 172.279C64.7611 175.941 60.4466 178.846 55.6983 180.828C50.95 182.81 45.8607 183.831 40.7211 183.831H8.15118C7.32356 183.831 6.50404 183.666 5.73945 183.347C4.97485 183.028 4.28014 182.56 3.69501 181.97C3.10987 181.38 2.64578 180.68 2.32922 179.91C2.01267 179.139 1.84986 178.313 1.8501 177.479V144.657C1.8501 134.198 5.97337 124.166 13.3128 116.77C20.6523 109.374 30.6068 105.219 40.9863 105.219V105.219Z" fill="white"/>
<path opacity="0.4" d="M40.5057 105.281C42.53 105.281 44.5511 105.441 46.5505 105.759C30.6491 105.384 9.0362 117.224 9.0362 144.407V178.132C9.04326 179.595 9.62317 180.997 10.65 182.032C11.6769 183.067 13.0677 183.652 14.5201 183.66H7.17232C5.7162 183.655 4.32114 183.07 3.29167 182.032C2.2622 180.994 1.68199 179.588 1.67773 178.121V144.4C1.70847 134.033 5.80938 124.099 13.0846 116.77C20.3599 109.44 30.2182 105.309 40.5057 105.281Z" fill="#00BEE7" fill-opacity="0.4"/>
<path d="M40.8436 105.764C51.1607 105.764 61.0552 109.863 68.3504 117.158C75.6457 124.453 79.7441 134.347 79.7441 144.664V144.664C79.7444 149.807 78.7315 154.9 76.7633 159.652C74.7951 164.404 71.9102 168.722 68.2733 172.359C64.6364 175.996 60.3187 178.881 55.5668 180.849C50.8148 182.818 45.7217 183.831 40.5782 183.831H7.98359C7.15535 183.831 6.33521 183.668 5.57003 183.351C4.80485 183.033 4.10962 182.569 3.52404 181.983C2.93847 181.397 2.47402 180.702 2.15722 179.937C1.84043 179.172 1.6775 178.351 1.67773 177.523V144.929C1.67773 134.542 5.80413 124.58 13.1492 117.235C20.4942 109.891 30.4562 105.764 40.8436 105.764V105.764Z" stroke="#00BEE7" stroke-width="2" stroke-linecap="round" stroke-linejoin="round"/>
<path d="M63.6772 132.561C65.0952 132.271 65.8757 130.207 65.4205 127.952C64.9654 125.697 63.4469 124.105 62.0289 124.396C60.6109 124.686 59.8304 126.75 60.2856 129.005C60.7407 131.26 62.2592 132.852 63.6772 132.561Z" fill="#B8C0CC"/>
</svg>
