<svg width="111" height="105" viewBox="0 0 111 105" fill="none" xmlns="http://www.w3.org/2000/svg">
<circle cx="52.5" cy="52.5" r="52.5" fill="#F0F4F7"/>
<rect x="20" y="35" width="82" height="53" rx="1" fill="white" stroke="#B8C0CC" stroke-width="2"/>
<path d="M62.5556 80H56.3333C56.175 80 56.0972 79.9489 56.0655 79.9187C56.0368 79.8913 56 79.839 56 79.7273V75.2727C56 75.161 56.0368 75.1087 56.0655 75.0813C56.0972 75.0511 56.175 75 56.3333 75H62.6667C62.825 75 62.9028 75.0511 62.9345 75.0813C62.9632 75.1087 63 75.161 63 75.2727V79.6163C62.9718 79.7072 62.9156 79.8041 62.8373 79.8789C62.7498 79.9625 62.6565 80 62.5556 80Z" fill="white" stroke="#00BEE7" stroke-width="2" stroke-miterlimit="10"/>
<mask id="path-4-inside-1" fill="white">
<path d="M62 76.2982L65.75 74.5841C66.2187 74.3698 67 74.5841 67 75.0126V79.9409C67 80.3694 66.2187 80.6908 65.75 80.3694L62 78.6552"/>
</mask>
<path d="M62 76.2982L65.75 74.5841C66.2187 74.3698 67 74.5841 67 75.0126V79.9409C67 80.3694 66.2187 80.6908 65.75 80.3694L62 78.6552" fill="white"/>
<path d="M63 78.6552V76.2982H61V78.6552H63ZM65.75 74.5841L64.9185 72.7651L64.9185 72.7651L65.75 74.5841ZM65.75 80.3694L66.881 78.7199C66.7862 78.6549 66.686 78.5982 66.5815 78.5505L65.75 80.3694ZM62.8315 78.1172L66.5815 76.403L64.9185 72.7651L61.1685 74.4793L62.8315 78.1172ZM66.5815 76.403C66.2733 76.5439 66.0602 76.4998 65.9473 76.4641C65.8715 76.4401 65.6875 76.3705 65.4887 76.1805C65.2695 75.9711 65 75.5704 65 75.0126H69C69 73.4176 67.6219 72.7985 67.1542 72.6505C66.5335 72.454 65.6955 72.4099 64.9185 72.7651L66.5815 76.403ZM65 75.0126V79.9409H69V75.0126H65ZM65 79.9409C65 79.4104 65.2447 79.0428 65.416 78.8612C65.5846 78.6826 65.7515 78.5995 65.8581 78.5602C66.0228 78.4994 66.4325 78.4124 66.881 78.7199L64.619 82.0189C65.5362 82.6478 66.5709 82.5609 67.2435 82.3126C67.786 82.1123 69 81.4205 69 79.9409H65ZM66.5815 78.5505L62.8315 76.8363L61.1685 80.4742L64.9185 82.1884L66.5815 78.5505Z" fill="#00BEE7" mask="url(#path-4-inside-1)"/>
<path d="M85.8285 68.2017C85.8672 68.4015 85.8098 68.5788 85.6704 68.7267C85.5222 68.884 85.2821 69.0001 85.0002 69.0001H68.2002C67.9183 69.0001 67.6782 68.884 67.53 68.7267C67.3906 68.5788 67.3332 68.4015 67.3718 68.2017C68.2104 63.8705 72.0245 60.6001 76.6002 60.6001C81.1759 60.6001 84.9899 63.8705 85.8285 68.2017Z" fill="white" stroke="#B8C0CC" stroke-width="2"/>
<path d="M80.1503 53.7502C80.1503 55.7108 78.5609 57.3002 76.6003 57.3002C74.6397 57.3002 73.0503 55.7108 73.0503 53.7502C73.0503 51.7896 74.6397 50.2002 76.6003 50.2002C78.5609 50.2002 80.1503 51.7896 80.1503 53.7502Z" fill="white" stroke="#00BEE7" stroke-width="2"/>
<path d="M54.6283 68.2017C54.667 68.4015 54.6096 68.5788 54.4702 68.7267C54.322 68.884 54.0819 69.0001 53.8 69.0001H37C36.7181 69.0001 36.478 68.884 36.3298 68.7267C36.1904 68.5788 36.133 68.4015 36.1717 68.2017C37.0102 63.8705 40.8243 60.6001 45.4 60.6001C49.9757 60.6001 53.7897 63.8705 54.6283 68.2017Z" fill="white" stroke="#B8C0CC" stroke-width="2"/>
<path d="M48.9501 53.7502C48.9501 55.7108 47.3607 57.3002 45.4001 57.3002C43.4395 57.3002 41.8501 55.7108 41.8501 53.7502C41.8501 51.7896 43.4395 50.2002 45.4001 50.2002C47.3607 50.2002 48.9501 51.7896 48.9501 53.7502Z" fill="white" stroke="#00BEE7" stroke-width="2"/>
<path d="M71.5725 68.1433C71.6278 68.5426 71.2961 69 70.6998 69H51.2998C50.7035 69 50.3718 68.5426 50.4271 68.1433C51.2344 62.3161 55.732 58 60.9998 58C66.2676 58 70.7652 62.3161 71.5725 68.1433Z" fill="white" stroke="#B8C0CC" stroke-width="2"/>
<path d="M65.8499 49.85C65.8499 52.5286 63.6785 54.7 60.9999 54.7C58.3213 54.7 56.1499 52.5286 56.1499 49.85C56.1499 47.1714 58.3213 45 60.9999 45C63.6785 45 65.8499 47.1714 65.8499 49.85Z" fill="white" stroke="#00BEE7" stroke-width="2"/>
<rect x="12" y="88" width="98" height="6" rx="1" fill="white" stroke="#B8C0CC" stroke-width="2"/>
</svg>
