<svg xmlns="http://www.w3.org/2000/svg" width="161.412" height="121.346" viewBox="0 0 161.412 121.346">
  <g id="Layer_2-2" data-name="Layer 2-2" transform="translate(-328.53 -412.741)">
    <g id="Group_391" data-name="Group 391">
      <path id="Path_707" data-name="Path 707" d="M451.007,500.807l-8.036-2.5a1.033,1.033,0,0,1-.778-1.118l3.24-19.624a1.034,1.034,0,0,1,1.089-.806l8.418.2a1.074,1.074,0,0,1,1.12,1.027.98.98,0,0,1,0,.133l-3.622,21.938a1.075,1.075,0,0,1-1.3.791A1.169,1.169,0,0,1,451.007,500.807Z" fill="#fff"/>
      <line id="Line_105" data-name="Line 105" x2="3.167" transform="translate(448.667 479.917)" fill="none" stroke="#b8c0cc" stroke-linecap="round" stroke-linejoin="round" stroke-width="1.883"/>
      <path id="Path_773" data-name="Path 773" d="M384.75,479.5s14.634,30.893,56.073,19.042" fill="none" stroke="#b8c0cc" stroke-linecap="round" stroke-linejoin="round" stroke-width="1.883"/>
      <circle id="Ellipse_203" data-name="Ellipse 203" cx="4.827" cy="4.827" r="4.827" transform="translate(437.513 493.148)" fill="#b8c0cc"/>
      <path id="Path_774" data-name="Path 774" d="M447.754,476.756h5.287a2.553,2.553,0,0,1,2.518,2.978l-3.114,18.458a2.554,2.554,0,0,1-3.417,1.966l-4.884-1.838a2.553,2.553,0,0,1-1.621-2.8l2.711-16.621A2.552,2.552,0,0,1,447.754,476.756Z" fill="none" stroke="#b8c0cc" stroke-linecap="round" stroke-linejoin="round" stroke-width="1.883"/>
      <path id="Path_702" data-name="Path 702" d="M477.126,459.1l-12.932-3.028-5.659,5.108a1.231,1.231,0,0,1-1.739-.084,1.214,1.214,0,0,1-.213-.326l-3.226-7.23-13.583-3.213a4.386,4.386,0,0,1-3.268-5.263l6.636-28.3a4.386,4.386,0,0,1,5.263-3.268l37.409,8.772a4.386,4.386,0,0,1,3.212,5.292l-6.636,28.3a4.386,4.386,0,0,1-5.263,3.24Z" fill="#fff"/>
      <path id="Rectangle_545" data-name="Rectangle 545" d="M52.529,0h0A52.174,52.174,0,0,1,104.7,52.174v0A52.529,52.529,0,0,1,52.174,104.7H8.458A8.458,8.458,0,0,1,0,96.245V52.529A52.529,52.529,0,0,1,52.529,0Z" transform="translate(329.472 428.443)" fill="#fff"/>
      <path id="Path_775" data-name="Path 775" d="M381.349,428.525h0a51.964,51.964,0,0,1,8.114.637c-21.345-.5-50.353,15.269-50.353,51.468v44.918a7.4,7.4,0,0,0,7.376,7.376H336.62a7.4,7.4,0,0,1-7.376-7.376V480.63A52.258,52.258,0,0,1,381.349,428.525Z" fill="#eaeff4"/>
      <path id="Rectangle_546" data-name="Rectangle 546" d="M52.529,0h0A52.174,52.174,0,0,1,104.7,52.174v0A52.529,52.529,0,0,1,52.174,104.7H8.458A8.458,8.458,0,0,1,0,96.245V52.529A52.529,52.529,0,0,1,52.529,0Z" transform="translate(329.472 428.443)" fill="none" stroke="#b8c0cc" stroke-linecap="round" stroke-linejoin="round" stroke-width="1.883"/>
      <ellipse id="Ellipse_204" data-name="Ellipse 204" cx="4.78" cy="3.029" rx="4.78" ry="3.029" transform="matrix(0.199, -0.98, 0.98, 0.199, 407.731, 466.649)" fill="#b8c0cc"/>
      <path id="Path_776" data-name="Path 776" d="M375.375,494.875s16.875,13.48,26.625-4.7" fill="none" stroke="#b8c0cc" stroke-linecap="round" stroke-linejoin="round" stroke-width="1.883"/>
      <circle id="Ellipse_205" data-name="Ellipse 205" cx="4.858" cy="4.858" r="4.858" transform="translate(398.534 482.589)" fill="#b8c0cc"/>
      <ellipse id="Ellipse_206" data-name="Ellipse 206" cx="3.661" cy="2.567" rx="3.661" ry="2.567" transform="translate(420.144 481.249) rotate(-84.724)" fill="#b8c0cc"/>
      <path id="Path_777" data-name="Path 777" d="M477.023,459.03l-11.9-2.694a2,2,0,0,0-1.747.436l-4.882,4.207a1.057,1.057,0,0,1-1.641-.337l-2.96-6.071a2.029,2.029,0,0,0-1.374-1.089l-12.412-2.81a4.646,4.646,0,0,1-3.505-5.557l6.3-27.8a4.647,4.647,0,0,1,5.557-3.505l36.911,8.358a4.644,4.644,0,0,1,3.505,5.556l-6.295,27.8A4.645,4.645,0,0,1,477.023,459.03Z" fill="none" stroke="#b8c0cc" stroke-linecap="round" stroke-linejoin="round" stroke-width="1.883"/>
    </g>
    <g id="Layer_1" data-name="Layer 1">
      <circle id="Ellipse_193" data-name="Ellipse 193" cx="2.052" cy="2.052" r="2.052" transform="translate(463.713 423.027)" fill="#ffcd15"/>
      <line id="Line_103" data-name="Line 103" x2="15.974" y2="3.551" transform="translate(454.743 438.156)" fill="none"/>
    </g>
    <path id="Path_778" data-name="Path 778" d="M469.978,441.2l.99-5a7.827,7.827,0,0,0-6.141-9.169h0a7.231,7.231,0,0,0-8.471,5.674l-1.114,5.29a.588.588,0,0,1-.145.281l-2.993,3.231a.6.6,0,0,0,.3.982l17.894,4.34a.594.594,0,0,0,.72-.706l-1.033-4.677A.608.608,0,0,1,469.978,441.2Z" fill="none" stroke="#ffcd15" stroke-miterlimit="10" stroke-width="1.883"/>
    <circle id="Ellipse_194" data-name="Ellipse 194" cx="6.126" cy="6.126" r="6.126" transform="translate(467.369 424.949)" fill="#fe5f75"/>
    <path id="Path_706" data-name="Path 706" d="M473.207,434.534h-.17a.707.707,0,0,1-.523-.849l1.075-4.485-.538-.127a.726.726,0,0,1,.3-1.42l.021,0,1.924.453-1.414,5.871A.707.707,0,0,1,473.207,434.534Z" fill="#fff"/>
    <line id="Line_106" data-name="Line 106" x2="15.238" y2="3.29" transform="translate(454.743 438.156)" fill="none" stroke="#ffcd15" stroke-miterlimit="10" stroke-width="1.883"/>
  </g>
</svg>
