<svg xmlns="http://www.w3.org/2000/svg" width="462.08" height="251.958" viewBox="0 0 462.08 251.958">
  <g id="Group_361" data-name="Group 361" transform="translate(-246.705 -986.971)">
    <g id="Group_182" data-name="Group 182">
      <g id="Group_179" data-name="Group 179">
        <path id="Rectangle_324" data-name="Rectangle 324" d="M705.917,1014.781l-11.444-.044a13.364,13.364,0,0,1-13.314-13.416h0a13.319,13.319,0,0,1,13.37-13.267h0a13.364,13.364,0,0,1,13.313,13.416h0l-.044,11.445A1.873,1.873,0,0,1,705.917,1014.781Z" fill="#fff"/>
        <path id="Path_170" data-name="Path 170" d="M694.673,988.075h0a13.274,13.274,0,0,0-2.069.155,12.614,12.614,0,0,1,12.782,13.165l-.044,11.448a1.883,1.883,0,0,1-1.887,1.872l2.516.01a1.885,1.885,0,0,0,1.887-1.873l.044-11.447A13.318,13.318,0,0,0,694.673,988.075Z" fill="#eaeff4"/>
        <path id="Rectangle_325" data-name="Rectangle 325" d="M706.167,1014.782l-11.856-.045a13.2,13.2,0,0,1-13.152-13.254h0a13.478,13.478,0,0,1,13.531-13.428h0a13.2,13.2,0,0,1,13.153,13.253h0l-.046,11.855A1.623,1.623,0,0,1,706.167,1014.782Z" fill="none" stroke="#b8c0cc" stroke-linecap="round" stroke-linejoin="round" stroke-width="1.883"/>
        <g id="Group_55-49" data-name="Group 55-49">
          <ellipse id="Ellipse_18-49" data-name="Ellipse 18-49" cx="0.811" cy="1.298" rx="0.811" ry="1.298" transform="translate(686.802 995.651)" fill="#b8c0cc"/>
        </g>
        <g id="Group_55-50" data-name="Group 55-50">
          <ellipse id="Ellipse_18-50" data-name="Ellipse 18-50" cx="0.811" cy="1.298" rx="0.811" ry="1.298" transform="translate(690.921 995.651)" fill="#b8c0cc"/>
        </g>
      </g>
      <g id="Group_179-2" data-name="Group 179">
        <path id="Rectangle_324-2" data-name="Rectangle 324" d="M667.5,1014.8l-11.444-.044a13.365,13.365,0,0,1-13.314-13.416h0a13.319,13.319,0,0,1,13.37-13.268h0a13.365,13.365,0,0,1,13.313,13.416h0l-.044,11.445A1.874,1.874,0,0,1,667.5,1014.8Z" fill="#fff"/>
        <path id="Path_170-2" data-name="Path 170" d="M656.255,988.093h0a13.394,13.394,0,0,0-2.069.155,12.616,12.616,0,0,1,12.783,13.166l-.045,11.447a1.885,1.885,0,0,1-1.887,1.873l2.516.009a1.885,1.885,0,0,0,1.887-1.872l.044-11.447A13.318,13.318,0,0,0,656.255,988.093Z" fill="#eaeff4"/>
        <path id="Rectangle_325-2" data-name="Rectangle 325" d="M667.749,1014.8l-11.856-.046a13.2,13.2,0,0,1-13.152-13.254h0a13.478,13.478,0,0,1,13.531-13.428h0a13.2,13.2,0,0,1,13.153,13.254h0l-.046,11.855A1.624,1.624,0,0,1,667.749,1014.8Z" fill="none" stroke="#b8c0cc" stroke-linecap="round" stroke-linejoin="round" stroke-width="1.883"/>
        <g id="Group_55-49-2" data-name="Group 55-49">
          <ellipse id="Ellipse_18-49-2" data-name="Ellipse 18-49" cx="0.811" cy="1.298" rx="0.811" ry="1.298" transform="translate(648.384 995.669)" fill="#b8c0cc"/>
        </g>
        <g id="Group_55-50-2" data-name="Group 55-50">
          <ellipse id="Ellipse_18-50-2" data-name="Ellipse 18-50" cx="0.811" cy="1.298" rx="0.811" ry="1.298" transform="translate(652.503 995.669)" fill="#b8c0cc"/>
        </g>
      </g>
      <g id="Group_179-3" data-name="Group 179">
        <path id="Rectangle_324-3" data-name="Rectangle 324" d="M568.916,1014.64l-11.444-.044a13.366,13.366,0,0,1-13.314-13.416h0a13.32,13.32,0,0,1,13.37-13.268h0a13.365,13.365,0,0,1,13.313,13.416h0l-.044,11.445A1.873,1.873,0,0,1,568.916,1014.64Z" fill="#fff"/>
        <path id="Path_170-3" data-name="Path 170" d="M557.672,987.933h0a13.394,13.394,0,0,0-2.069.155,12.616,12.616,0,0,1,12.783,13.166l-.045,11.447a1.885,1.885,0,0,1-1.886,1.873l2.515.009a1.885,1.885,0,0,0,1.887-1.872l.044-11.447A13.318,13.318,0,0,0,557.672,987.933Z" fill="#eaeff4"/>
        <path id="Rectangle_325-3" data-name="Rectangle 325" d="M569.166,1014.641l-11.856-.046a13.2,13.2,0,0,1-13.152-13.254h0a13.478,13.478,0,0,1,13.531-13.428h0a13.2,13.2,0,0,1,13.153,13.254h0l-.045,11.855A1.626,1.626,0,0,1,569.166,1014.641Z" fill="none" stroke="#b8c0cc" stroke-linecap="round" stroke-linejoin="round" stroke-width="1.883"/>
        <g id="Group_55-49-3" data-name="Group 55-49">
          <ellipse id="Ellipse_18-49-3" data-name="Ellipse 18-49" cx="0.811" cy="1.298" rx="0.811" ry="1.298" transform="translate(549.801 995.509)" fill="#b8c0cc"/>
        </g>
        <g id="Group_55-50-3" data-name="Group 55-50">
          <ellipse id="Ellipse_18-50-3" data-name="Ellipse 18-50" cx="0.811" cy="1.298" rx="0.811" ry="1.298" transform="translate(553.92 995.509)" fill="#b8c0cc"/>
        </g>
      </g>
      <g id="Group_179-4" data-name="Group 179">
        <path id="Rectangle_324-4" data-name="Rectangle 324" d="M620.012,1014.8l-11.445-.044a13.364,13.364,0,0,1-13.313-13.416h0a13.319,13.319,0,0,1,13.37-13.267h0a13.365,13.365,0,0,1,13.313,13.416h0l-.044,11.445A1.873,1.873,0,0,1,620.012,1014.8Z" fill="#fff"/>
        <path id="Path_170-4" data-name="Path 170" d="M608.767,988.093h0a13.262,13.262,0,0,0-2.068.155,12.614,12.614,0,0,1,12.782,13.165l-.044,11.448a1.885,1.885,0,0,1-1.887,1.872l2.516.01a1.886,1.886,0,0,0,1.887-1.873l.044-11.447A13.319,13.319,0,0,0,608.767,988.093Z" fill="#eaeff4"/>
        <path id="Rectangle_325-4" data-name="Rectangle 325" d="M620.261,1014.8l-11.855-.045a13.2,13.2,0,0,1-13.153-13.254h0a13.48,13.48,0,0,1,13.531-13.428h0a13.2,13.2,0,0,1,13.154,13.253h0l-.046,11.855A1.624,1.624,0,0,1,620.261,1014.8Z" fill="none" stroke="#b8c0cc" stroke-linecap="round" stroke-linejoin="round" stroke-width="1.883"/>
        <g id="Group_55-49-4" data-name="Group 55-49">
          <ellipse id="Ellipse_18-49-4" data-name="Ellipse 18-49" cx="0.811" cy="1.298" rx="0.811" ry="1.298" transform="translate(600.897 995.669)" fill="#b8c0cc"/>
        </g>
        <g id="Group_55-50-4" data-name="Group 55-50">
          <ellipse id="Ellipse_18-50-4" data-name="Ellipse 18-50" cx="0.811" cy="1.298" rx="0.811" ry="1.298" transform="translate(605.016 995.669)" fill="#b8c0cc"/>
        </g>
      </g>
      <g id="Group_179-5" data-name="Group 179">
        <path id="Rectangle_324-5" data-name="Rectangle 324" d="M523.414,1078.706l-19.645-.075a22.94,22.94,0,0,1-22.852-23.028h0a22.862,22.862,0,0,1,22.949-22.774h0a22.941,22.941,0,0,1,22.852,23.028h0l-.075,19.645A3.216,3.216,0,0,1,523.414,1078.706Z" fill="#fff"/>
        <path id="Path_170-5" data-name="Path 170" d="M504.112,1032.865h0a22.806,22.806,0,0,0-3.55.266c9.338-.184,22,6.764,21.941,22.6l-.076,19.65a3.235,3.235,0,0,1-3.239,3.214l4.318.017a3.237,3.237,0,0,0,3.239-3.215l.076-19.649A22.862,22.862,0,0,0,504.112,1032.865Z" fill="#eaeff4"/>
        <path id="Rectangle_325-5" data-name="Rectangle 325" d="M523.842,1078.708l-20.35-.078a22.664,22.664,0,0,1-22.576-22.751h0a23.138,23.138,0,0,1,23.226-23.049h0a22.663,22.663,0,0,1,22.577,22.75h0l-.078,20.349A2.789,2.789,0,0,1,523.842,1078.708Z" fill="none" stroke="#b8c0cc" stroke-linecap="round" stroke-linejoin="round" stroke-width="1.883"/>
        <g id="Group_55-49-5" data-name="Group 55-49">
          <ellipse id="Ellipse_18-49-5" data-name="Ellipse 18-49" cx="1.391" cy="2.228" rx="1.391" ry="2.228" transform="translate(490.603 1045.869)" fill="#b8c0cc"/>
        </g>
        <g id="Group_55-50-5" data-name="Group 55-50">
          <ellipse id="Ellipse_18-50-5" data-name="Ellipse 18-50" cx="1.391" cy="2.228" rx="1.391" ry="2.228" transform="translate(497.673 1045.869)" fill="#b8c0cc"/>
        </g>
      </g>
      <g id="Group_179-6" data-name="Group 179">
        <path id="Rectangle_324-6" data-name="Rectangle 324" d="M546.388,1026.822l-13.354-.051a15.594,15.594,0,0,1-15.533-15.654h0a15.54,15.54,0,0,1,15.6-15.48h0a15.594,15.594,0,0,1,15.534,15.653h0l-.051,13.354A2.187,2.187,0,0,1,546.388,1026.822Z" fill="#fff"/>
        <path id="Path_170-6" data-name="Path 170" d="M533.268,995.662h0a15.49,15.49,0,0,0-2.414.18c6.348-.124,14.956,4.6,14.915,15.362l-.052,13.356a2.2,2.2,0,0,1-2.2,2.185l2.936.011a2.2,2.2,0,0,0,2.2-2.185l.051-13.356A15.54,15.54,0,0,0,533.268,995.662Z" fill="#eaeff4"/>
        <path id="Rectangle_325-6" data-name="Rectangle 325" d="M546.679,1026.823l-13.833-.053A15.405,15.405,0,0,1,517.5,1011.3h0a15.728,15.728,0,0,1,15.788-15.667h0a15.406,15.406,0,0,1,15.347,15.464h0l-.053,13.833A1.9,1.9,0,0,1,546.679,1026.823Z" fill="none" stroke="#b8c0cc" stroke-linecap="round" stroke-linejoin="round" stroke-width="1.883"/>
        <g id="Group_55-49-6" data-name="Group 55-49">
          <ellipse id="Ellipse_18-49-6" data-name="Ellipse 18-49" cx="0.946" cy="1.515" rx="0.946" ry="1.515" transform="translate(524.085 1004.501)" fill="#b8c0cc"/>
        </g>
        <g id="Group_55-50-6" data-name="Group 55-50">
          <ellipse id="Ellipse_18-50-6" data-name="Ellipse 18-50" cx="0.946" cy="1.515" rx="0.946" ry="1.515" transform="translate(528.891 1004.501)" fill="#b8c0cc"/>
        </g>
      </g>
      <g id="Group_179-7" data-name="Group 179">
        <path id="Rectangle_324-7" data-name="Rectangle 324" d="M596.779,1025.572l-13.035-.05a15.223,15.223,0,0,1-15.164-15.281h0a15.17,15.17,0,0,1,15.228-15.111h0a15.223,15.223,0,0,1,15.164,15.28h0l-.05,13.036A2.136,2.136,0,0,1,596.779,1025.572Z" fill="#fff"/>
        <path id="Path_170-7" data-name="Path 170" d="M583.972,995.154h0a15.1,15.1,0,0,0-2.356.176c6.2-.121,14.6,4.489,14.558,15l-.05,13.038a2.146,2.146,0,0,1-2.149,2.132l2.866.012a2.147,2.147,0,0,0,2.149-2.133l.05-13.038A15.17,15.17,0,0,0,583.972,995.154Z" fill="#eaeff4"/>
        <path id="Rectangle_325-7" data-name="Rectangle 325" d="M597.063,1025.573l-13.5-.052a15.038,15.038,0,0,1-14.98-15.1h0a15.352,15.352,0,0,1,15.411-15.294h0a15.037,15.037,0,0,1,14.981,15.1h0l-.051,13.5A1.851,1.851,0,0,1,597.063,1025.573Z" fill="none" stroke="#b8c0cc" stroke-linecap="round" stroke-linejoin="round" stroke-width="1.883"/>
        <g id="Group_55-49-7" data-name="Group 55-49">
          <ellipse id="Ellipse_18-49-7" data-name="Ellipse 18-49" cx="0.923" cy="1.478" rx="0.923" ry="1.478" transform="translate(575.007 1003.783)" fill="#b8c0cc"/>
        </g>
        <g id="Group_55-50-7" data-name="Group 55-50">
          <ellipse id="Ellipse_18-50-7" data-name="Ellipse 18-50" cx="0.923" cy="1.478" rx="0.923" ry="1.478" transform="translate(579.699 1003.783)" fill="#b8c0cc"/>
        </g>
      </g>
      <g id="Group_179-8" data-name="Group 179">
        <path id="Rectangle_324-8" data-name="Rectangle 324" d="M647.334,1025.616l-13.035-.05a15.223,15.223,0,0,1-15.164-15.28h0a15.17,15.17,0,0,1,15.228-15.112h0a15.222,15.222,0,0,1,15.163,15.281h0l-.05,13.035A2.133,2.133,0,0,1,647.334,1025.616Z" fill="#fff"/>
        <path id="Path_170-8" data-name="Path 170" d="M634.526,995.2h0a15.121,15.121,0,0,0-2.356.176c6.2-.122,14.6,4.488,14.559,14.995l-.05,13.038a2.147,2.147,0,0,1-2.149,2.133l2.865.011a2.147,2.147,0,0,0,2.149-2.133l.05-13.038A15.167,15.167,0,0,0,634.526,995.2Z" fill="#eaeff4"/>
        <path id="Rectangle_325-8" data-name="Rectangle 325" d="M647.618,1025.617l-13.5-.052a15.039,15.039,0,0,1-14.981-15.1h0a15.354,15.354,0,0,1,15.412-15.294h0a15.039,15.039,0,0,1,14.981,15.1h0l-.052,13.5A1.85,1.85,0,0,1,647.618,1025.617Z" fill="none" stroke="#b8c0cc" stroke-linecap="round" stroke-linejoin="round" stroke-width="1.883"/>
        <g id="Group_55-49-8" data-name="Group 55-49">
          <ellipse id="Ellipse_18-49-8" data-name="Ellipse 18-49" cx="0.923" cy="1.478" rx="0.923" ry="1.478" transform="translate(625.562 1003.827)" fill="#b8c0cc"/>
        </g>
        <g id="Group_55-50-8" data-name="Group 55-50">
          <ellipse id="Ellipse_18-50-8" data-name="Ellipse 18-50" cx="0.923" cy="1.478" rx="0.923" ry="1.478" transform="translate(630.253 1003.827)" fill="#b8c0cc"/>
        </g>
      </g>
      <g id="Group_179-9" data-name="Group 179">
        <path id="Rectangle_324-9" data-name="Rectangle 324" d="M691.362,1025.551l-13.035-.05a15.22,15.22,0,0,1-15.163-15.28h0a15.168,15.168,0,0,1,15.227-15.111h0a15.222,15.222,0,0,1,15.164,15.28h0l-.05,13.035A2.134,2.134,0,0,1,691.362,1025.551Z" fill="#fff"/>
        <path id="Path_170-9" data-name="Path 170" d="M678.555,995.134h0a15.1,15.1,0,0,0-2.356.176c6.2-.122,14.6,4.488,14.559,14.995l-.051,13.038a2.147,2.147,0,0,1-2.149,2.133l2.866.011a2.147,2.147,0,0,0,2.149-2.133l.05-13.038A15.169,15.169,0,0,0,678.555,995.134Z" fill="#eaeff4"/>
        <path id="Rectangle_325-9" data-name="Rectangle 325" d="M691.646,1025.552l-13.5-.051a15.039,15.039,0,0,1-14.98-15.1h0a15.353,15.353,0,0,1,15.412-15.294h0a15.04,15.04,0,0,1,14.981,15.1h0l-.052,13.5A1.851,1.851,0,0,1,691.646,1025.552Z" fill="none" stroke="#b8c0cc" stroke-linecap="round" stroke-linejoin="round" stroke-width="1.883"/>
        <g id="Group_55-49-9" data-name="Group 55-49">
          <ellipse id="Ellipse_18-49-9" data-name="Ellipse 18-49" cx="0.923" cy="1.478" rx="0.923" ry="1.478" transform="translate(669.59 1003.762)" fill="#b8c0cc"/>
        </g>
        <g id="Group_55-50-9" data-name="Group 55-50">
          <ellipse id="Ellipse_18-50-9" data-name="Ellipse 18-50" cx="0.923" cy="1.478" rx="0.923" ry="1.478" transform="translate(674.282 1003.762)" fill="#b8c0cc"/>
        </g>
      </g>
      <g id="Group_179-10" data-name="Group 179">
        <path id="Rectangle_324-10" data-name="Rectangle 324" d="M572.509,1040.667l-14.378-.055a16.789,16.789,0,0,1-16.726-16.854h0a16.734,16.734,0,0,1,16.8-16.669h0a16.79,16.79,0,0,1,16.725,16.855h0l-.055,14.378A2.354,2.354,0,0,1,572.509,1040.667Z" fill="#fff"/>
        <path id="Path_170-10" data-name="Path 170" d="M558.382,1007.116h0a16.742,16.742,0,0,0-2.6.194c6.835-.134,16.1,4.951,16.059,16.54l-.055,14.382a2.367,2.367,0,0,1-2.371,2.352l3.161.013a2.368,2.368,0,0,0,2.37-2.353l.055-14.381A16.731,16.731,0,0,0,558.382,1007.116Z" fill="#eaeff4"/>
        <path id="Rectangle_325-10" data-name="Rectangle 325" d="M572.822,1040.669l-14.894-.058A16.588,16.588,0,0,1,541.4,1023.96h0a16.936,16.936,0,0,1,17-16.87h0a16.588,16.588,0,0,1,16.524,16.651h0l-.057,14.894A2.041,2.041,0,0,1,572.822,1040.669Z" fill="none" stroke="#b8c0cc" stroke-linecap="round" stroke-linejoin="round" stroke-width="1.883"/>
        <g id="Group_55-49-10" data-name="Group 55-49">
          <ellipse id="Ellipse_18-49-10" data-name="Ellipse 18-49" cx="1.018" cy="1.631" rx="1.018" ry="1.631" transform="translate(548.494 1016.634)" fill="#b8c0cc"/>
        </g>
        <g id="Group_55-50-10" data-name="Group 55-50">
          <ellipse id="Ellipse_18-50-10" data-name="Ellipse 18-50" cx="1.018" cy="1.631" rx="1.018" ry="1.631" transform="translate(553.669 1016.634)" fill="#b8c0cc"/>
        </g>
      </g>
      <g id="Group_179-11" data-name="Group 179">
        <path id="Rectangle_324-11" data-name="Rectangle 324" d="M626.826,1038.645l-14.378-.055a16.791,16.791,0,0,1-16.726-16.855h0a16.733,16.733,0,0,1,16.8-16.668h0a16.79,16.79,0,0,1,16.726,16.854h0l-.055,14.379A2.354,2.354,0,0,1,626.826,1038.645Z" fill="#fff"/>
        <path id="Path_170-11" data-name="Path 170" d="M612.7,1005.093h0a16.618,16.618,0,0,0-2.6.2c6.834-.135,16.1,4.95,16.058,16.54l-.055,14.381a2.369,2.369,0,0,1-2.371,2.353l3.161.012a2.369,2.369,0,0,0,2.371-2.353l.055-14.381A16.733,16.733,0,0,0,612.7,1005.093Z" fill="#eaeff4"/>
        <path id="Rectangle_325-11" data-name="Rectangle 325" d="M627.14,1038.646l-14.894-.057a16.587,16.587,0,0,1-16.524-16.652h0a16.934,16.934,0,0,1,17-16.869h0a16.588,16.588,0,0,1,16.525,16.65h0l-.058,14.894A2.04,2.04,0,0,1,627.14,1038.646Z" fill="none" stroke="#b8c0cc" stroke-linecap="round" stroke-linejoin="round" stroke-width="1.883"/>
        <g id="Group_55-49-11" data-name="Group 55-49">
          <ellipse id="Ellipse_18-49-11" data-name="Ellipse 18-49" cx="1.018" cy="1.631" rx="1.018" ry="1.631" transform="translate(602.811 1014.611)" fill="#b8c0cc"/>
        </g>
        <g id="Group_55-50-11" data-name="Group 55-50">
          <ellipse id="Ellipse_18-50-11" data-name="Ellipse 18-50" cx="1.018" cy="1.631" rx="1.018" ry="1.631" transform="translate(607.986 1014.611)" fill="#b8c0cc"/>
        </g>
      </g>
      <g id="Group_179-12" data-name="Group 179">
        <path id="Rectangle_324-12" data-name="Rectangle 324" d="M675.7,1040.318l-14.378-.055a16.791,16.791,0,0,1-16.726-16.855h0a16.733,16.733,0,0,1,16.8-16.668h0a16.791,16.791,0,0,1,16.726,16.855h0l-.055,14.378A2.354,2.354,0,0,1,675.7,1040.318Z" fill="#fff"/>
        <path id="Path_170-12" data-name="Path 170" d="M661.577,1006.767h0a16.493,16.493,0,0,0-2.6.194c6.834-.134,16.1,4.95,16.058,16.54l-.055,14.382a2.368,2.368,0,0,1-2.371,2.352l3.161.012a2.369,2.369,0,0,0,2.371-2.352l.055-14.382A16.732,16.732,0,0,0,661.577,1006.767Z" fill="#eaeff4"/>
        <path id="Rectangle_325-12" data-name="Rectangle 325" d="M676.018,1040.319l-14.894-.057a16.586,16.586,0,0,1-16.524-16.651h0a16.934,16.934,0,0,1,17-16.87h0a16.589,16.589,0,0,1,16.525,16.651h0l-.058,14.894A2.04,2.04,0,0,1,676.018,1040.319Z" fill="none" stroke="#b8c0cc" stroke-linecap="round" stroke-linejoin="round" stroke-width="1.883"/>
        <g id="Group_55-49-12" data-name="Group 55-49">
          <ellipse id="Ellipse_18-49-12" data-name="Ellipse 18-49" cx="1.018" cy="1.631" rx="1.018" ry="1.631" transform="translate(651.689 1016.284)" fill="#b8c0cc"/>
        </g>
        <g id="Group_55-50-12" data-name="Group 55-50">
          <ellipse id="Ellipse_18-50-12" data-name="Ellipse 18-50" cx="1.018" cy="1.631" rx="1.018" ry="1.631" transform="translate(656.864 1016.284)" fill="#b8c0cc"/>
        </g>
      </g>
      <g id="Group_179-13" data-name="Group 179">
        <path id="Rectangle_324-13" data-name="Rectangle 324" d="M522.558,1041.312l-14.717-.056A17.185,17.185,0,0,1,490.722,1024h0a17.126,17.126,0,0,1,17.192-17.06h0a17.185,17.185,0,0,1,17.119,17.251h0l-.057,14.717A2.409,2.409,0,0,1,522.558,1041.312Z" fill="#fff"/>
        <path id="Path_170-13" data-name="Path 170" d="M508.1,1006.971h0a17.048,17.048,0,0,0-2.66.2c7-.137,16.482,5.067,16.437,16.929l-.057,14.721a2.423,2.423,0,0,1-2.426,2.407l3.235.013a2.424,2.424,0,0,0,2.426-2.408l.057-14.72A17.126,17.126,0,0,0,508.1,1006.971Z" fill="#eaeff4"/>
        <path id="Rectangle_325-13" data-name="Rectangle 325" d="M522.878,1041.313l-15.244-.058a16.978,16.978,0,0,1-16.913-17.043h0a17.333,17.333,0,0,1,17.4-17.267h0a16.979,16.979,0,0,1,16.914,17.043h0l-.059,15.245A2.088,2.088,0,0,1,522.878,1041.313Z" fill="none" stroke="#b8c0cc" stroke-linecap="round" stroke-linejoin="round" stroke-width="1.883"/>
        <g id="Group_55-49-13" data-name="Group 55-49">
          <ellipse id="Ellipse_18-49-13" data-name="Ellipse 18-49" cx="1.042" cy="1.669" rx="1.042" ry="1.669" transform="translate(497.977 1016.713)" fill="#b8c0cc"/>
        </g>
        <g id="Group_55-50-13" data-name="Group 55-50">
          <ellipse id="Ellipse_18-50-13" data-name="Ellipse 18-50" cx="1.042" cy="1.669" rx="1.042" ry="1.669" transform="translate(503.274 1016.713)" fill="#b8c0cc"/>
        </g>
      </g>
      <g id="Group_179-14" data-name="Group 179">
        <path id="Rectangle_324-14" data-name="Rectangle 324" d="M549.731,1057.736l-16.683-.064a19.48,19.48,0,0,1-19.406-19.555h0a19.416,19.416,0,0,1,19.489-19.34h0a19.481,19.481,0,0,1,19.406,19.556h0l-.064,16.682A2.732,2.732,0,0,1,549.731,1057.736Z" fill="#fff"/>
        <path id="Path_170-14" data-name="Path 170" d="M533.34,1018.808h0a19.392,19.392,0,0,0-3.015.225c7.93-.155,18.684,5.744,18.632,19.191l-.064,16.687a2.747,2.747,0,0,1-2.751,2.729l3.668.014a2.747,2.747,0,0,0,2.75-2.729l.064-16.686A19.414,19.414,0,0,0,533.34,1018.808Z" fill="#eaeff4"/>
        <path id="Rectangle_325-14" data-name="Rectangle 325" d="M550.095,1057.738l-17.281-.067a19.246,19.246,0,0,1-19.173-19.32h0a19.65,19.65,0,0,1,19.724-19.573h0a19.247,19.247,0,0,1,19.173,19.319h0l-.067,17.281A2.368,2.368,0,0,1,550.095,1057.738Z" fill="none" stroke="#b8c0cc" stroke-linecap="round" stroke-linejoin="round" stroke-width="1.883"/>
        <g id="Group_55-49-14" data-name="Group 55-49">
          <ellipse id="Ellipse_18-49-14" data-name="Ellipse 18-49" cx="1.182" cy="1.892" rx="1.182" ry="1.892" transform="translate(521.867 1029.851)" fill="#b8c0cc"/>
        </g>
        <g id="Group_55-50-14" data-name="Group 55-50">
          <ellipse id="Ellipse_18-50-14" data-name="Ellipse 18-50" cx="1.182" cy="1.892" rx="1.182" ry="1.892" transform="translate(527.872 1029.851)" fill="#b8c0cc"/>
        </g>
      </g>
      <g id="Group_179-15" data-name="Group 179">
        <path id="Rectangle_324-15" data-name="Rectangle 324" d="M601.329,1056.486l-16.683-.064a19.48,19.48,0,0,1-19.406-19.555h0a19.415,19.415,0,0,1,19.489-19.34h0a19.481,19.481,0,0,1,19.406,19.556h0l-.064,16.682A2.732,2.732,0,0,1,601.329,1056.486Z" fill="#fff"/>
        <path id="Path_170-15" data-name="Path 170" d="M584.938,1017.558h0a19.374,19.374,0,0,0-3.015.225c7.93-.155,18.683,5.744,18.632,19.191l-.064,16.687a2.747,2.747,0,0,1-2.751,2.729l3.667.014a2.747,2.747,0,0,0,2.751-2.729l.064-16.686A19.413,19.413,0,0,0,584.938,1017.558Z" fill="#eaeff4"/>
        <path id="Rectangle_325-15" data-name="Rectangle 325" d="M601.692,1056.488l-17.281-.067a19.245,19.245,0,0,1-19.172-19.32h0a19.649,19.649,0,0,1,19.724-19.573h0a19.247,19.247,0,0,1,19.173,19.319h0l-.067,17.281A2.368,2.368,0,0,1,601.692,1056.488Z" fill="none" stroke="#b8c0cc" stroke-linecap="round" stroke-linejoin="round" stroke-width="1.883"/>
        <g id="Group_55-49-15" data-name="Group 55-49">
          <ellipse id="Ellipse_18-49-15" data-name="Ellipse 18-49" cx="1.182" cy="1.892" rx="1.182" ry="1.892" transform="translate(573.465 1028.601)" fill="#b8c0cc"/>
        </g>
        <g id="Group_55-50-15" data-name="Group 55-50">
          <ellipse id="Ellipse_18-50-15" data-name="Ellipse 18-50" cx="1.182" cy="1.892" rx="1.182" ry="1.892" transform="translate(579.469 1028.601)" fill="#b8c0cc"/>
        </g>
      </g>
      <g id="Group_179-16" data-name="Group 179">
        <path id="Rectangle_324-16" data-name="Rectangle 324" d="M686.157,1048.994l-11.444-.044a13.365,13.365,0,0,1-13.314-13.415h0a13.32,13.32,0,0,1,13.37-13.268h0a13.364,13.364,0,0,1,13.313,13.416h0l-.044,11.445A1.873,1.873,0,0,1,686.157,1048.994Z" fill="#fff"/>
        <path id="Path_170-16" data-name="Path 170" d="M674.913,1022.288h0a13.266,13.266,0,0,0-2.069.155,12.615,12.615,0,0,1,12.783,13.165l-.045,11.448a1.883,1.883,0,0,1-1.886,1.872l2.515.01a1.886,1.886,0,0,0,1.887-1.873l.044-11.447A13.318,13.318,0,0,0,674.913,1022.288Z" fill="#eaeff4"/>
        <path id="Rectangle_325-16" data-name="Rectangle 325" d="M686.407,1048.995l-11.856-.045A13.2,13.2,0,0,1,661.4,1035.7h0a13.478,13.478,0,0,1,13.531-13.428h0a13.2,13.2,0,0,1,13.153,13.253h0l-.045,11.855A1.625,1.625,0,0,1,686.407,1048.995Z" fill="none" stroke="#b8c0cc" stroke-linecap="round" stroke-linejoin="round" stroke-width="1.883"/>
        <g id="Group_55-49-16" data-name="Group 55-49">
          <ellipse id="Ellipse_18-49-16" data-name="Ellipse 18-49" cx="0.811" cy="1.298" rx="0.811" ry="1.298" transform="translate(667.042 1029.864)" fill="#b8c0cc"/>
        </g>
        <g id="Group_55-50-16" data-name="Group 55-50">
          <ellipse id="Ellipse_18-50-16" data-name="Ellipse 18-50" cx="0.811" cy="1.298" rx="0.811" ry="1.298" transform="translate(671.161 1029.864)" fill="#b8c0cc"/>
        </g>
      </g>
      <g id="Group_179-17" data-name="Group 179">
        <path id="Rectangle_324-17" data-name="Rectangle 324" d="M651.006,1058.125l-16.683-.064a19.481,19.481,0,0,1-19.406-19.556h0a19.413,19.413,0,0,1,19.488-19.339h0a19.482,19.482,0,0,1,19.407,19.556h0l-.064,16.682A2.732,2.732,0,0,1,651.006,1058.125Z" fill="#fff"/>
        <path id="Path_170-17" data-name="Path 170" d="M634.615,1019.2h0a19.248,19.248,0,0,0-3.015.225c7.93-.156,18.683,5.744,18.632,19.191l-.065,16.686a2.747,2.747,0,0,1-2.75,2.73l3.667.014a2.748,2.748,0,0,0,2.751-2.73l.064-16.686A19.413,19.413,0,0,0,634.615,1019.2Z" fill="#eaeff4"/>
        <path id="Rectangle_325-17" data-name="Rectangle 325" d="M651.369,1058.126l-17.281-.066a19.247,19.247,0,0,1-19.172-19.32h0a19.649,19.649,0,0,1,19.724-19.573h0a19.245,19.245,0,0,1,19.172,19.319h0l-.066,17.281A2.368,2.368,0,0,1,651.369,1058.126Z" fill="none" stroke="#b8c0cc" stroke-linecap="round" stroke-linejoin="round" stroke-width="1.883"/>
        <g id="Group_55-49-17" data-name="Group 55-49">
          <ellipse id="Ellipse_18-49-17" data-name="Ellipse 18-49" cx="1.182" cy="1.892" rx="1.182" ry="1.892" transform="translate(623.142 1030.24)" fill="#b8c0cc"/>
        </g>
        <g id="Group_55-50-17" data-name="Group 55-50">
          <ellipse id="Ellipse_18-50-17" data-name="Ellipse 18-50" cx="1.182" cy="1.892" rx="1.182" ry="1.892" transform="translate(629.146 1030.24)" fill="#b8c0cc"/>
        </g>
      </g>
      <g id="Group_179-18" data-name="Group 179">
        <path id="Rectangle_324-18" data-name="Rectangle 324" d="M498.848,1057.736l-16.683-.064a19.48,19.48,0,0,1-19.406-19.555h0a19.415,19.415,0,0,1,19.489-19.34h0a19.481,19.481,0,0,1,19.406,19.556h0l-.064,16.682A2.732,2.732,0,0,1,498.848,1057.736Z" fill="#fff"/>
        <path id="Path_170-18" data-name="Path 170" d="M482.457,1018.808h0a19.374,19.374,0,0,0-3.015.225c7.93-.155,18.683,5.744,18.632,19.191l-.064,16.687a2.747,2.747,0,0,1-2.751,2.729l3.667.014a2.747,2.747,0,0,0,2.751-2.729l.064-16.686A19.413,19.413,0,0,0,482.457,1018.808Z" fill="#eaeff4"/>
        <path id="Rectangle_325-18" data-name="Rectangle 325" d="M499.211,1057.738l-17.281-.067a19.245,19.245,0,0,1-19.172-19.32h0a19.649,19.649,0,0,1,19.724-19.573h0a19.247,19.247,0,0,1,19.173,19.319h0l-.067,17.281A2.368,2.368,0,0,1,499.211,1057.738Z" fill="none" stroke="#b8c0cc" stroke-linecap="round" stroke-linejoin="round" stroke-width="1.883"/>
        <g id="Group_55-49-18" data-name="Group 55-49">
          <ellipse id="Ellipse_18-49-18" data-name="Ellipse 18-49" cx="1.182" cy="1.892" rx="1.182" ry="1.892" transform="translate(470.984 1029.851)" fill="#b8c0cc"/>
        </g>
        <g id="Group_55-50-18" data-name="Group 55-50">
          <ellipse id="Ellipse_18-50-18" data-name="Ellipse 18-50" cx="1.182" cy="1.892" rx="1.182" ry="1.892" transform="translate(476.988 1029.851)" fill="#b8c0cc"/>
        </g>
      </g>
      <g id="Group_179-19" data-name="Group 179">
        <path id="Rectangle_324-19" data-name="Rectangle 324" d="M523.363,1078.915l-19.645-.075a22.941,22.941,0,0,1-22.852-23.028h0a22.862,22.862,0,0,1,22.949-22.774h0a22.94,22.94,0,0,1,22.852,23.028h0l-.075,19.645A3.216,3.216,0,0,1,523.363,1078.915Z" fill="#fff"/>
        <path id="Path_170-19" data-name="Path 170" d="M504.062,1033.075h0a22.705,22.705,0,0,0-3.551.265c9.338-.183,22,6.764,21.941,22.6l-.076,19.65a3.235,3.235,0,0,1-3.239,3.214l4.319.017a3.237,3.237,0,0,0,3.239-3.215l.075-19.649A22.859,22.859,0,0,0,504.062,1033.075Z" fill="#eaeff4"/>
        <path id="Rectangle_325-19" data-name="Rectangle 325" d="M523.791,1078.917l-20.349-.078a22.664,22.664,0,0,1-22.577-22.751h0a23.138,23.138,0,0,1,23.226-23.049h0a22.663,22.663,0,0,1,22.577,22.75h0l-.078,20.349A2.789,2.789,0,0,1,523.791,1078.917Z" fill="none" stroke="#b8c0cc" stroke-linecap="round" stroke-linejoin="round" stroke-width="1.883"/>
        <g id="Group_55-49-19" data-name="Group 55-49">
          <ellipse id="Ellipse_18-49-19" data-name="Ellipse 18-49" cx="1.391" cy="2.228" rx="1.391" ry="2.228" transform="translate(490.552 1046.078)" fill="#b8c0cc"/>
        </g>
        <g id="Group_55-50-19" data-name="Group 55-50">
          <ellipse id="Ellipse_18-50-19" data-name="Ellipse 18-50" cx="1.391" cy="2.228" rx="1.391" ry="2.228" transform="translate(497.622 1046.078)" fill="#b8c0cc"/>
        </g>
      </g>
      <g id="Group_179-20" data-name="Group 179">
        <path id="Rectangle_324-20" data-name="Rectangle 324" d="M579.815,1078.153l-19.848-.076a23.178,23.178,0,0,1-23.089-23.267h0a23.1,23.1,0,0,1,23.187-23.009h0a23.178,23.178,0,0,1,23.089,23.267h0l-.077,19.848A3.248,3.248,0,0,1,579.815,1078.153Z" fill="#fff"/>
        <path id="Path_170-20" data-name="Path 170" d="M560.314,1031.838h0a22.914,22.914,0,0,0-3.587.268c9.434-.185,22.229,6.834,22.168,22.833l-.077,19.853a3.269,3.269,0,0,1-3.272,3.247l4.363.017a3.27,3.27,0,0,0,3.272-3.248l.076-19.852A23.1,23.1,0,0,0,560.314,1031.838Z" fill="#eaeff4"/>
        <path id="Rectangle_325-20" data-name="Rectangle 325" d="M580.248,1078.155l-20.561-.079a22.9,22.9,0,0,1-22.81-22.986h0a23.378,23.378,0,0,1,23.467-23.288h0a22.9,22.9,0,0,1,22.811,22.986h0l-.079,20.561A2.817,2.817,0,0,1,580.248,1078.155Z" fill="none" stroke="#b8c0cc" stroke-linecap="round" stroke-linejoin="round" stroke-width="1.883"/>
        <g id="Group_55-49-20" data-name="Group 55-49">
          <ellipse id="Ellipse_18-49-20" data-name="Ellipse 18-49" cx="1.406" cy="2.251" rx="1.406" ry="2.251" transform="translate(546.664 1044.976)" fill="#b8c0cc"/>
        </g>
        <g id="Group_55-50-20" data-name="Group 55-50">
          <ellipse id="Ellipse_18-50-20" data-name="Ellipse 18-50" cx="1.406" cy="2.251" rx="1.406" ry="2.251" transform="translate(553.808 1044.976)" fill="#b8c0cc"/>
        </g>
      </g>
      <g id="Group_179-21" data-name="Group 179">
        <path id="Rectangle_324-21" data-name="Rectangle 324" d="M622.4,1078.5l-19.849-.076a23.178,23.178,0,0,1-23.089-23.267h0a23.1,23.1,0,0,1,23.187-23.009h0a23.178,23.178,0,0,1,23.089,23.267h0l-.076,19.848A3.25,3.25,0,0,1,622.4,1078.5Z" fill="#fff"/>
        <path id="Path_170-21" data-name="Path 170" d="M602.893,1032.184h0a22.913,22.913,0,0,0-3.587.268c9.435-.185,22.229,6.834,22.168,22.833l-.077,19.852a3.269,3.269,0,0,1-3.272,3.248l4.363.017a3.272,3.272,0,0,0,3.273-3.248l.075-19.852A23.1,23.1,0,0,0,602.893,1032.184Z" fill="#eaeff4"/>
        <path id="Rectangle_325-21" data-name="Rectangle 325" d="M622.827,1078.5l-20.56-.079a22.9,22.9,0,0,1-22.811-22.986h0a23.378,23.378,0,0,1,23.467-23.288h0a22.9,22.9,0,0,1,22.811,22.986h0l-.079,20.561A2.817,2.817,0,0,1,622.827,1078.5Z" fill="none" stroke="#b8c0cc" stroke-linecap="round" stroke-linejoin="round" stroke-width="1.883"/>
        <g id="Group_55-49-21" data-name="Group 55-49">
          <ellipse id="Ellipse_18-49-21" data-name="Ellipse 18-49" cx="1.406" cy="2.251" rx="1.406" ry="2.251" transform="translate(589.243 1045.322)" fill="#b8c0cc"/>
        </g>
        <g id="Group_55-50-21" data-name="Group 55-50">
          <ellipse id="Ellipse_18-50-21" data-name="Ellipse 18-50" cx="1.406" cy="2.251" rx="1.406" ry="2.251" transform="translate(596.387 1045.322)" fill="#b8c0cc"/>
        </g>
      </g>
      <g id="Group_179-22" data-name="Group 179">
        <path id="Rectangle_324-22" data-name="Rectangle 324" d="M554.191,1097.677l-19.849-.076a23.178,23.178,0,0,1-23.088-23.267h0a23.1,23.1,0,0,1,23.186-23.009h0a23.178,23.178,0,0,1,23.089,23.267h0l-.076,19.848A3.249,3.249,0,0,1,554.191,1097.677Z" fill="#fff"/>
        <path id="Path_170-22" data-name="Path 170" d="M534.689,1051.362h0a22.914,22.914,0,0,0-3.587.268c9.435-.185,22.229,6.834,22.168,22.833l-.076,19.853a3.27,3.27,0,0,1-3.273,3.247l4.363.017a3.27,3.27,0,0,0,3.273-3.248l.076-19.852A23.1,23.1,0,0,0,534.689,1051.362Z" fill="#eaeff4"/>
        <path id="Rectangle_325-22" data-name="Rectangle 325" d="M554.623,1097.679l-20.56-.079a22.9,22.9,0,0,1-22.81-22.986h0a23.377,23.377,0,0,1,23.466-23.288h0a22.9,22.9,0,0,1,22.811,22.986h0l-.079,20.561A2.817,2.817,0,0,1,554.623,1097.679Z" fill="none" stroke="#b8c0cc" stroke-linecap="round" stroke-linejoin="round" stroke-width="1.883"/>
        <g id="Group_55-49-22" data-name="Group 55-49">
          <ellipse id="Ellipse_18-49-22" data-name="Ellipse 18-49" cx="1.406" cy="2.251" rx="1.406" ry="2.251" transform="translate(521.04 1064.5)" fill="#b8c0cc"/>
        </g>
        <g id="Group_55-50-22" data-name="Group 55-50">
          <ellipse id="Ellipse_18-50-22" data-name="Ellipse 18-50" cx="1.406" cy="2.251" rx="1.406" ry="2.251" transform="translate(528.183 1064.5)" fill="#b8c0cc"/>
        </g>
      </g>
      <g id="Group_179-23" data-name="Group 179">
        <path id="Rectangle_324-23" data-name="Rectangle 324" d="M674.859,1080.23l-19.848-.076a23.179,23.179,0,0,1-23.089-23.267h0a23.1,23.1,0,0,1,23.187-23.009h0a23.178,23.178,0,0,1,23.089,23.266h0l-.077,19.849A3.25,3.25,0,0,1,674.859,1080.23Z" fill="#fff"/>
        <path id="Path_170-23" data-name="Path 170" d="M655.358,1033.914h0a23.179,23.179,0,0,0-3.588.268c9.435-.185,22.23,6.834,22.168,22.833l-.076,19.853a3.269,3.269,0,0,1-3.273,3.247l4.364.017a3.269,3.269,0,0,0,3.272-3.248l.076-19.852A23.1,23.1,0,0,0,655.358,1033.914Z" fill="#eaeff4"/>
        <path id="Rectangle_325-23" data-name="Rectangle 325" d="M675.292,1080.231l-20.561-.078a22.9,22.9,0,0,1-22.81-22.987h0a23.377,23.377,0,0,1,23.467-23.287h0a22.9,22.9,0,0,1,22.811,22.985h0l-.079,20.56A2.817,2.817,0,0,1,675.292,1080.231Z" fill="none" stroke="#b8c0cc" stroke-linecap="round" stroke-linejoin="round" stroke-width="1.883"/>
        <g id="Group_55-49-23" data-name="Group 55-49">
          <ellipse id="Ellipse_18-49-23" data-name="Ellipse 18-49" cx="1.406" cy="2.251" rx="1.406" ry="2.251" transform="translate(641.708 1047.053)" fill="#b8c0cc"/>
        </g>
        <g id="Group_55-50-23" data-name="Group 55-50">
          <ellipse id="Ellipse_18-50-23" data-name="Ellipse 18-50" cx="1.406" cy="2.251" rx="1.406" ry="2.251" transform="translate(648.852 1047.053)" fill="#b8c0cc"/>
        </g>
      </g>
      <g id="Group_179-24" data-name="Group 179">
        <path id="Rectangle_324-24" data-name="Rectangle 324" d="M648.557,1098.171l-19.848-.077a23.178,23.178,0,0,1-23.089-23.266h0a23.1,23.1,0,0,1,23.187-23.01h0a23.178,23.178,0,0,1,23.089,23.267h0l-.076,19.848A3.251,3.251,0,0,1,648.557,1098.171Z" fill="#fff"/>
        <path id="Path_170-24" data-name="Path 170" d="M629.056,1051.855h0a23.018,23.018,0,0,0-3.587.268c9.434-.185,22.229,6.834,22.168,22.833l-.077,19.853a3.269,3.269,0,0,1-3.272,3.247l4.363.017a3.27,3.27,0,0,0,3.272-3.248l.076-19.852A23.1,23.1,0,0,0,629.056,1051.855Z" fill="#eaeff4"/>
        <path id="Rectangle_325-24" data-name="Rectangle 325" d="M648.99,1098.172l-20.56-.079a22.9,22.9,0,0,1-22.811-22.986h0a23.378,23.378,0,0,1,23.467-23.288h0a22.9,22.9,0,0,1,22.811,22.986h0l-.079,20.561A2.817,2.817,0,0,1,648.99,1098.172Z" fill="none" stroke="#b8c0cc" stroke-linecap="round" stroke-linejoin="round" stroke-width="1.883"/>
        <g id="Group_55-49-24" data-name="Group 55-49">
          <ellipse id="Ellipse_18-49-24" data-name="Ellipse 18-49" cx="1.406" cy="2.251" rx="1.406" ry="2.251" transform="translate(615.406 1064.994)" fill="#b8c0cc"/>
        </g>
        <g id="Group_55-50-24" data-name="Group 55-50">
          <ellipse id="Ellipse_18-50-24" data-name="Ellipse 18-50" cx="1.406" cy="2.251" rx="1.406" ry="2.251" transform="translate(622.55 1064.994)" fill="#b8c0cc"/>
        </g>
      </g>
      <g id="Group_179-25" data-name="Group 179">
        <path id="Rectangle_324-25" data-name="Rectangle 324" d="M491.488,1093.338l-19.645-.075a22.941,22.941,0,0,1-22.852-23.029h0a22.861,22.861,0,0,1,22.949-22.773h0a22.941,22.941,0,0,1,22.853,23.028h0l-.076,19.645A3.216,3.216,0,0,1,491.488,1093.338Z" fill="#fff"/>
        <path id="Path_170-25" data-name="Path 170" d="M472.187,1047.5h0a22.84,22.84,0,0,0-3.551.266c9.338-.184,22,6.763,21.941,22.6l-.076,19.65a3.235,3.235,0,0,1-3.239,3.214l4.319.016a3.235,3.235,0,0,0,3.239-3.214l.075-19.649A22.86,22.86,0,0,0,472.187,1047.5Z" fill="#eaeff4"/>
        <path id="Rectangle_325-25" data-name="Rectangle 325" d="M491.916,1093.34l-20.349-.079a22.663,22.663,0,0,1-22.577-22.75h0a23.138,23.138,0,0,1,23.226-23.049h0a22.665,22.665,0,0,1,22.578,22.75h0l-.079,20.35A2.788,2.788,0,0,1,491.916,1093.34Z" fill="none" stroke="#b8c0cc" stroke-linecap="round" stroke-linejoin="round" stroke-width="1.883"/>
        <g id="Group_55-49-25" data-name="Group 55-49">
          <ellipse id="Ellipse_18-49-25" data-name="Ellipse 18-49" cx="1.391" cy="2.228" rx="1.391" ry="2.228" transform="translate(458.677 1060.501)" fill="#b8c0cc"/>
        </g>
        <g id="Group_55-50-25" data-name="Group 55-50">
          <ellipse id="Ellipse_18-50-25" data-name="Ellipse 18-50" cx="1.391" cy="2.228" rx="1.391" ry="2.228" transform="translate(465.747 1060.501)" fill="#b8c0cc"/>
        </g>
      </g>
      <g id="Group_179-26" data-name="Group 179">
        <path id="Rectangle_324-26" data-name="Rectangle 324" d="M526.406,1135.033l-31.388-.12a36.654,36.654,0,0,1-36.512-36.794h0a36.527,36.527,0,0,1,36.667-36.386h0a36.652,36.652,0,0,1,36.512,36.793h0l-.12,31.388A5.139,5.139,0,0,1,526.406,1135.033Z" fill="#fff"/>
        <path id="Path_170-26" data-name="Path 170" d="M495.567,1061.791h0a36.412,36.412,0,0,0-5.673.424c14.92-.293,35.153,10.807,35.056,36.107l-.121,31.4a5.169,5.169,0,0,1-5.175,5.135l6.9.027a5.171,5.171,0,0,0,5.175-5.136l.12-31.394A36.525,36.525,0,0,0,495.567,1061.791Z" fill="#eaeff4"/>
        <path id="Rectangle_325-26" data-name="Rectangle 325" d="M527.09,1135.036l-32.514-.125a36.211,36.211,0,0,1-36.071-36.35h0a36.969,36.969,0,0,1,37.109-36.827h0a36.212,36.212,0,0,1,36.073,36.349h0l-.125,32.514A4.456,4.456,0,0,1,527.09,1135.036Z" fill="none" stroke="#b8c0cc" stroke-linecap="round" stroke-linejoin="round" stroke-width="1.883"/>
        <g id="Group_55-49-26" data-name="Group 55-49">
          <ellipse id="Ellipse_18-49-26" data-name="Ellipse 18-49" cx="2.223" cy="3.56" rx="2.223" ry="3.56" transform="translate(473.982 1082.568)" fill="#b8c0cc"/>
        </g>
        <g id="Group_55-50-26" data-name="Group 55-50">
          <ellipse id="Ellipse_18-50-26" data-name="Ellipse 18-50" cx="2.223" cy="3.56" rx="2.223" ry="3.56" transform="translate(485.278 1082.568)" fill="#b8c0cc"/>
        </g>
      </g>
      <g id="Group_179-27" data-name="Group 179">
        <path id="Rectangle_324-27" data-name="Rectangle 324" d="M614.933,1135.031l-31.388-.121a36.653,36.653,0,0,1-36.512-36.793h0A36.527,36.527,0,0,1,583.7,1061.73h0a36.653,36.653,0,0,1,36.512,36.794h0l-.121,31.387A5.139,5.139,0,0,1,614.933,1135.031Z" fill="#fff"/>
        <path id="Path_170-27" data-name="Path 170" d="M584.094,1061.788h0a36.4,36.4,0,0,0-5.673.424c14.92-.293,35.153,10.807,35.056,36.107l-.121,31.4a5.169,5.169,0,0,1-5.175,5.135l6.9.027a5.171,5.171,0,0,0,5.175-5.136l.12-31.394A36.526,36.526,0,0,0,584.094,1061.788Z" fill="#eaeff4"/>
        <path id="Rectangle_325-27" data-name="Rectangle 325" d="M615.617,1135.033l-32.514-.125a36.21,36.21,0,0,1-36.072-36.349h0a36.969,36.969,0,0,1,37.11-36.827h0a36.211,36.211,0,0,1,36.073,36.349h0l-.125,32.513A4.455,4.455,0,0,1,615.617,1135.033Z" fill="none" stroke="#b8c0cc" stroke-linecap="round" stroke-linejoin="round" stroke-width="1.883"/>
        <g id="Group_55-49-27" data-name="Group 55-49">
          <ellipse id="Ellipse_18-49-27" data-name="Ellipse 18-49" cx="2.223" cy="3.56" rx="2.223" ry="3.56" transform="translate(562.508 1082.565)" fill="#b8c0cc"/>
        </g>
        <g id="Group_55-50-27" data-name="Group 55-50">
          <ellipse id="Ellipse_18-50-27" data-name="Ellipse 18-50" cx="2.223" cy="3.56" rx="2.223" ry="3.56" transform="translate(573.805 1082.565)" fill="#b8c0cc"/>
        </g>
      </g>
      <g id="Group_179-28" data-name="Group 179">
        <path id="Rectangle_324-28" data-name="Rectangle 324" d="M567.094,1167.9l-31.388-.121a36.653,36.653,0,0,1-36.512-36.793h0a36.528,36.528,0,0,1,36.667-36.387h0a36.653,36.653,0,0,1,36.512,36.794h0l-.12,31.388A5.139,5.139,0,0,1,567.094,1167.9Z" fill="#fff"/>
        <path id="Path_170-28" data-name="Path 170" d="M536.255,1094.653h0a36.279,36.279,0,0,0-5.673.424c14.92-.293,35.153,10.807,35.056,36.107l-.121,31.4a5.17,5.17,0,0,1-5.175,5.135l6.9.027a5.171,5.171,0,0,0,5.175-5.136l.12-31.394A36.524,36.524,0,0,0,536.255,1094.653Z" fill="#eaeff4"/>
        <path id="Rectangle_325-28" data-name="Rectangle 325" d="M567.778,1167.9l-32.514-.125a36.211,36.211,0,0,1-36.071-36.35h0A36.968,36.968,0,0,1,536.3,1094.6h0a36.211,36.211,0,0,1,36.073,36.349h0l-.125,32.514A4.455,4.455,0,0,1,567.778,1167.9Z" fill="none" stroke="#b8c0cc" stroke-linecap="round" stroke-linejoin="round" stroke-width="1.883"/>
        <g id="Group_55-49-28" data-name="Group 55-49">
          <ellipse id="Ellipse_18-49-28" data-name="Ellipse 18-49" cx="2.223" cy="3.56" rx="2.223" ry="3.56" transform="translate(514.67 1115.43)" fill="#b8c0cc"/>
        </g>
        <g id="Group_55-50-28" data-name="Group 55-50">
          <ellipse id="Ellipse_18-50-28" data-name="Ellipse 18-50" cx="2.223" cy="3.56" rx="2.223" ry="3.56" transform="translate(525.966 1115.43)" fill="#b8c0cc"/>
        </g>
      </g>
    </g>
    <g id="Group_186" data-name="Group 186">
      <path id="Path_173" data-name="Path 173" d="M255.285,1097.483v140.505h170.4V1097.483Z" fill="none" stroke="#b8c0cc" stroke-linecap="round" stroke-linejoin="round" stroke-width="1.883"/>
      <rect id="Rectangle_330" data-name="Rectangle 330" width="43.183" height="54.139" transform="translate(365.711 1183.849)" stroke-width="1.883" stroke="#b8c0cc" stroke-linecap="round" stroke-linejoin="round" fill="none"/>
      <path id="Path_174" data-name="Path 174" d="M321.988,1080.425v18.5s2.7,11.037,18.07,11.037,18.924-11.037,18.924-11.037v-18.5Z" fill="#fff" stroke="#b8c0cc" stroke-linecap="round" stroke-linejoin="round" stroke-width="1.883"/>
      <path id="Path_175" data-name="Path 175" d="M358.981,1080.425v18.5s2.7,11.037,18.07,11.037,18.925-11.037,18.925-11.037v-18.5Z" fill="#fff" stroke="#b8c0cc" stroke-linecap="round" stroke-linejoin="round" stroke-width="1.883"/>
      <path id="Path_176" data-name="Path 176" d="M395.975,1080.425v18.5s2.7,11.037,18.07,11.037,18.924-11.037,18.924-11.037v-18.5Z" fill="#fff" stroke="#b8c0cc" stroke-linecap="round" stroke-linejoin="round" stroke-width="1.883"/>
      <path id="Path_177" data-name="Path 177" d="M284.993,1080.425v18.5s2.7,11.037,18.071,11.037,18.924-11.037,18.924-11.037v-18.5Z" fill="#fff" stroke="#b8c0cc" stroke-linecap="round" stroke-linejoin="round" stroke-width="1.883"/>
      <path id="Path_178" data-name="Path 178" d="M248,1080.425v18.5s2.7,11.037,18.07,11.037,18.924-11.037,18.924-11.037v-18.5Z" fill="#fff" stroke="#b8c0cc" stroke-linecap="round" stroke-linejoin="round" stroke-width="1.883"/>
      <circle id="Ellipse_95" data-name="Ellipse 95" cx="2.344" cy="2.344" r="2.344" transform="translate(371.865 1206.835)" fill="#b8c0cc"/>
      <path id="Path_183" data-name="Path 183" d="M248,1080.425l18.5-30.062H418.4l14.569,30.062" fill="none" stroke="#b8c0cc" stroke-linecap="round" stroke-linejoin="round" stroke-width="1.883"/>
      <line id="Line_13" data-name="Line 13" y1="30.063" x2="3.112" transform="translate(321.987 1050.362)" fill="#fff" stroke="#b8c0cc" stroke-linecap="round" stroke-linejoin="round" stroke-width="1.883"/>
      <line id="Line_14" data-name="Line 14" y1="30.063" x2="10.997" transform="translate(284.994 1050.362)" fill="#fff" stroke="#b8c0cc" stroke-linecap="round" stroke-linejoin="round" stroke-width="1.883"/>
      <line id="Line_15" data-name="Line 15" x1="3.112" y1="30.063" transform="translate(355.869 1050.362)" fill="#fff" stroke="#b8c0cc" stroke-linecap="round" stroke-linejoin="round" stroke-width="1.883"/>
      <line id="Line_16" data-name="Line 16" x1="10.997" y1="30.063" transform="translate(384.978 1050.362)" fill="#fff" stroke="#b8c0cc" stroke-linecap="round" stroke-linejoin="round" stroke-width="1.883"/>
      <path id="Path_766" data-name="Path 766" d="M290.306,1123.9a1.592,1.592,0,0,1,1.248-.624,1.708,1.708,0,0,1,1.212.516,1.6,1.6,0,0,1,.54,1.188,1.7,1.7,0,0,1-.456,1.128l-5.26,6.24v6.264a1.786,1.786,0,0,1-.524,1.392,1.887,1.887,0,0,1-1.32.48,1.958,1.958,0,0,1-1.368-.48,1.787,1.787,0,0,1-.528-1.392v-6.264l-5.208-6.24a1.584,1.584,0,0,1-.452-1.128,1.765,1.765,0,0,1,1.7-1.7,1.592,1.592,0,0,1,1.248.624l4.584,5.592Zm8.184,16.632a6.876,6.876,0,0,1-3.288-.756,5.3,5.3,0,0,1-2.184-2.136,7.261,7.261,0,0,1,0-6.5,5.224,5.224,0,0,1,2.184-2.124,7.637,7.637,0,0,1,6.576,0,5.224,5.224,0,0,1,2.184,2.124,7.261,7.261,0,0,1,0,6.5,5.3,5.3,0,0,1-2.184,2.136A6.876,6.876,0,0,1,298.49,1140.531Zm0-2.76q2.64,0,2.64-3.384a3.971,3.971,0,0,0-.684-2.548,2.375,2.375,0,0,0-1.956-.84q-2.64,0-2.64,3.384T298.49,1137.771Zm17.976-9.456a1.881,1.881,0,0,1,1.332.456,1.618,1.618,0,0,1,.492,1.248v8.808a1.524,1.524,0,0,1-.516,1.2,1.938,1.938,0,0,1-1.332.456,1.7,1.7,0,0,1-1.224-.432,1.509,1.509,0,0,1-.456-1.152v-.24a3.73,3.73,0,0,1-1.452,1.392,4.248,4.248,0,0,1-2.028.48,4.206,4.206,0,0,1-3.324-1.236,5.5,5.5,0,0,1-1.092-3.732v-5.544a1.618,1.618,0,0,1,.492-1.248,1.881,1.881,0,0,1,1.332-.456,1.84,1.84,0,0,1,1.32.456,1.639,1.639,0,0,1,.48,1.248v5.62a2.315,2.315,0,0,0,.444,1.56,1.716,1.716,0,0,0,1.356.5,2.218,2.218,0,0,0,1.716-.72,2.7,2.7,0,0,0,.66-1.9v-5.06a1.639,1.639,0,0,1,.48-1.248A1.84,1.84,0,0,1,316.466,1128.315Zm11.64,0a1.5,1.5,0,0,1,1.14.324,1.41,1.41,0,0,1,.42,1.116,1.6,1.6,0,0,1-.384,1.176,2.241,2.241,0,0,1-1.368.48l-.72.072a2.731,2.731,0,0,0-1.908.864,2.825,2.825,0,0,0-.588,1.848v4.584a1.564,1.564,0,0,1-.516,1.272,1.933,1.933,0,0,1-1.284.432,1.969,1.969,0,0,1-1.308-.432,1.564,1.564,0,0,1-.516-1.272v-8.808a1.492,1.492,0,0,1,.528-1.224,1.94,1.94,0,0,1,1.272-.432,1.757,1.757,0,0,1,1.2.42,1.467,1.467,0,0,1,.48,1.164v.648a3.338,3.338,0,0,1,1.308-1.584,4.056,4.056,0,0,1,1.908-.624Zm15.672,12.24a13.422,13.422,0,0,1-3.528-.444,7.366,7.366,0,0,1-2.66-1.26,1.69,1.69,0,0,1-.516-.564,1.768,1.768,0,0,1,.216-1.812,1.085,1.085,0,0,1,.852-.456,1.616,1.616,0,0,1,.516.084,3.246,3.246,0,0,1,.612.3,8.048,8.048,0,0,0,2.088.948,8.508,8.508,0,0,0,2.328.3,4.58,4.58,0,0,0,2.424-.528,1.685,1.685,0,0,0,.84-1.512,1.36,1.36,0,0,0-.78-1.2,10.01,10.01,0,0,0-2.78-.864,15.316,15.316,0,0,1-3.56-1.108,4.617,4.617,0,0,1-1.94-1.6,4.239,4.239,0,0,1-.612-2.328,4.541,4.541,0,0,1,.876-2.724,5.8,5.8,0,0,1,2.424-1.9,8.563,8.563,0,0,1,3.492-.684,8.919,8.919,0,0,1,5.616,1.7,1.891,1.891,0,0,1,.516.588,1.571,1.571,0,0,1,.156.732,1.626,1.626,0,0,1-.372,1.056,1.085,1.085,0,0,1-.852.456,1.636,1.636,0,0,1-.492-.072,3.429,3.429,0,0,1-.636-.312,10.081,10.081,0,0,0-1.816-.932,6.018,6.018,0,0,0-2.1-.312,4.084,4.084,0,0,0-2.3.564,1.769,1.769,0,0,0-.84,1.548,1.394,1.394,0,0,0,.324.948,2.688,2.688,0,0,0,1.08.66,16.5,16.5,0,0,0,2.148.6,11.925,11.925,0,0,1,4.688,1.848,3.73,3.73,0,0,1,1.428,3.1,4.494,4.494,0,0,1-.852,2.712,5.5,5.5,0,0,1-2.4,1.824A9.229,9.229,0,0,1,343.778,1140.555Zm14.544-12.288a5.2,5.2,0,0,1,3.84,1.26,5.274,5.274,0,0,1,1.248,3.852v5.424a1.641,1.641,0,0,1-.456,1.236,1.749,1.749,0,0,1-1.272.444,1.673,1.673,0,0,1-1.236-.468,1.639,1.639,0,0,1-.468-1.212v-.164a2.825,2.825,0,0,1-1.2,1.392,3.762,3.762,0,0,1-1.968.5,4.831,4.831,0,0,1-2.172-.48,3.8,3.8,0,0,1-1.536-1.344,3.436,3.436,0,0,1-.564-1.92,2.964,2.964,0,0,1,.66-2.04,3.946,3.946,0,0,1,2.124-1.08,18.77,18.77,0,0,1,4.008-.336h.624v-.432a2.044,2.044,0,0,0-.444-1.46,2,2,0,0,0-1.476-.456,9.43,9.43,0,0,0-2.976.72,2.259,2.259,0,0,1-.936.264,1.039,1.039,0,0,1-.84-.372,1.465,1.465,0,0,1-.312-.972,1.36,1.36,0,0,1,.216-.792,2,2,0,0,1,.7-.576,7.789,7.789,0,0,1,2.052-.72A11.244,11.244,0,0,1,358.322,1128.267Zm-.72,9.772a2.2,2.2,0,0,0,1.7-.708,2.614,2.614,0,0,0,.648-1.836v-.408h-.408a8.19,8.19,0,0,0-2.724.312,1.129,1.129,0,0,0-.78,1.128,1.436,1.436,0,0,0,.452,1.088A1.559,1.559,0,0,0,357.6,1138.039Zm10.344,2.444a1.969,1.969,0,0,1-1.308-.432,1.564,1.564,0,0,1-.516-1.272V1125a1.564,1.564,0,0,1,.516-1.272,1.969,1.969,0,0,1,1.308-.432,1.933,1.933,0,0,1,1.284.432,1.564,1.564,0,0,1,.516,1.272v13.776a1.564,1.564,0,0,1-.516,1.272A1.933,1.933,0,0,1,367.946,1140.483Zm10.244.048a6.876,6.876,0,0,1-3.288-.756,5.309,5.309,0,0,1-2.18-2.136,7.261,7.261,0,0,1,0-6.5,5.224,5.224,0,0,1,2.184-2.124,7.637,7.637,0,0,1,6.576,0,5.224,5.224,0,0,1,2.184,2.124,7.269,7.269,0,0,1,0,6.5,5.3,5.3,0,0,1-2.184,2.136A6.881,6.881,0,0,1,378.19,1140.531Zm0-2.76q2.64,0,2.64-3.384a3.974,3.974,0,0,0-.68-2.548,2.375,2.375,0,0,0-1.956-.84q-2.64,0-2.64,3.384T378.19,1137.771Zm15.84-9.5a3.864,3.864,0,0,1,3.144,1.236,5.72,5.72,0,0,1,1.036,3.732v5.54a1.618,1.618,0,0,1-.492,1.248,1.88,1.88,0,0,1-1.328.456,1.839,1.839,0,0,1-1.32-.456,1.639,1.639,0,0,1-.48-1.248V1133.4a2.79,2.79,0,0,0-.444-1.752,1.664,1.664,0,0,0-1.38-.552,2.386,2.386,0,0,0-1.812.72,2.671,2.671,0,0,0-.684,1.92v5.04a1.639,1.639,0,0,1-.48,1.248,1.839,1.839,0,0,1-1.32.456,1.881,1.881,0,0,1-1.332-.456,1.618,1.618,0,0,1-.492-1.248v-8.808a1.525,1.525,0,0,1,.516-1.2,1.939,1.939,0,0,1,1.332-.456,1.688,1.688,0,0,1,1.212.444,1.5,1.5,0,0,1,.468,1.14v.336a4.125,4.125,0,0,1,1.62-1.464,4.9,4.9,0,0,1,2.24-.5Z" fill="#b8c0cc"/>
      <g id="Group_398" data-name="Group 398">
        <path id="Rectangle_556" data-name="Rectangle 556" d="M24.821,0h0A24.654,24.654,0,0,1,49.475,24.654v0A24.821,24.821,0,0,1,24.654,49.475H4a4,4,0,0,1-4-4V24.821A24.821,24.821,0,0,1,24.821,0Z" transform="translate(402.142 1188.513)" fill="#fff"/>
        <path id="Path_827" data-name="Path 827" d="M426.655,1188.551h0a24.489,24.489,0,0,1,3.834.3c-10.086-.237-23.793,7.214-23.793,24.319V1234.4a3.5,3.5,0,0,0,3.485,3.485h-4.662a3.5,3.5,0,0,1-3.485-3.485v-21.226A24.694,24.694,0,0,1,426.655,1188.551Z" fill="#eaeff4"/>
        <path id="Rectangle_557" data-name="Rectangle 557" d="M24.821,0h0A24.654,24.654,0,0,1,49.475,24.654v0A24.821,24.821,0,0,1,24.654,49.475H4a4,4,0,0,1-4-4V24.821A24.821,24.821,0,0,1,24.821,0Z" transform="translate(402.142 1188.513)" fill="none" stroke="#b8c0cc" stroke-linecap="round" stroke-linejoin="round" stroke-width="1.883"/>
        <path id="Path_180" data-name="Path 180" d="M436.93,1213.618a4.7,4.7,0,0,1-2.791.991,4.431,4.431,0,0,1-2.793-.991" fill="none" stroke="#b8c0cc" stroke-linecap="round" stroke-linejoin="round" stroke-width="1.883"/>
        <g id="Group_183" data-name="Group 183">
          <path id="Path_181" data-name="Path 181" d="M427.911,1208.366a9.238,9.238,0,0,0,1.736-4.252,2.065,2.065,0,0,0-1.852-2.258c-.026,0-.052-.005-.078-.006a3.6,3.6,0,0,1-3.935,1.469,2.062,2.062,0,0,0-.024,2.916c.018.019.038.037.057.056A9.192,9.192,0,0,0,427.911,1208.366Z" fill="#e64c3c"/>
        </g>
        <g id="Group_184" data-name="Group 184">
          <path id="Path_182" data-name="Path 182" d="M438.626,1208.49a9.234,9.234,0,0,0,3.758-2.641,2.063,2.063,0,0,0-.34-2.9c-.019-.016-.04-.031-.06-.046a3.621,3.621,0,0,1-4.109-.887,2.063,2.063,0,0,0-1.6,2.443c.005.026.011.051.017.076A9.189,9.189,0,0,0,438.626,1208.49Z" fill="#e64c3c"/>
        </g>
      </g>
    </g>
  </g>
</svg>
