<svg xmlns="http://www.w3.org/2000/svg" width="105.719" height="107.211" viewBox="0 0 105.719 107.211">
  <g id="Group_678" data-name="Group 678" transform="translate(-1455.279 -1491.244)">
    <circle id="Ellipse_468" data-name="Ellipse 468" cx="52.86" cy="52.86" r="52.86" transform="translate(1455.279 1491.244)" fill="#f0f4f7"/>
    <path id="Path_905" data-name="Path 905" d="M1542.08,1575.93v16.834a4.705,4.705,0,0,1-4.692,4.691h-35.04a4.7,4.7,0,0,1-4.691-4.691v-70.2a4.706,4.706,0,0,1,4.691-4.692h35.04a4.706,4.706,0,0,1,4.692,4.692v14.448" fill="#fff" stroke="#b8c0cc" stroke-linecap="round" stroke-miterlimit="10" stroke-width="2"/>
    <rect id="Rectangle_843" data-name="Rectangle 843" width="48.457" height="31.625" rx="2.171" transform="translate(1472.962 1540.167)" fill="#fff" stroke="#b8c0cc" stroke-linecap="round" stroke-miterlimit="10" stroke-width="2"/>
    <line id="Line_248" data-name="Line 248" x2="25.493" transform="translate(1478.752 1564.308)" fill="#fff" stroke="#b8c0cc" stroke-linecap="round" stroke-miterlimit="10" stroke-width="2"/>
    <circle id="Ellipse_469" data-name="Ellipse 469" cx="3.815" cy="3.815" r="3.815" transform="translate(1516.113 1584.401)" fill="#b8c0cc"/>
    <line id="Line_249" data-name="Line 249" x2="11.937" transform="translate(1513.989 1524.228)" fill="#fff" stroke="#b8c0cc" stroke-linecap="round" stroke-miterlimit="10" stroke-width="2"/>
    <line id="Line_250" data-name="Line 250" x2="24.379" transform="translate(1531.177 1544.94)" fill="#fff" stroke="#b8c0cc" stroke-linecap="round" stroke-linejoin="round" stroke-width="2"/>
    <path id="Path_906" data-name="Path 906" d="M1552.872,1539.684l5.256,5.256-5.256,5.256" fill="none" stroke="#b8c0cc" stroke-linecap="round" stroke-linejoin="round" stroke-width="2"/>
    <path id="Path_907" data-name="Path 907" d="M1540.365,1570.363a1.354,1.354,0,0,0,1.354-1.354v-.821a4.607,4.607,0,0,0,4.331-4.593v-.135a4.607,4.607,0,0,0-4.6-4.6h-2.3a1.9,1.9,0,0,1,0-3.79h3.358a.747.747,0,0,1,.746.746v.032a1.353,1.353,0,0,0,2.7.137v-.021a3.452,3.452,0,0,0-3.3-3.6l-.148,0h-.786v-.812a1.354,1.354,0,1,0-2.707,0v.815a4.6,4.6,0,0,0,.135,9.2h2.3a1.9,1.9,0,0,1,1.9,1.9v.136a1.9,1.9,0,0,1-1.9,1.894h-3.412a.745.745,0,0,1-.746-.745v-.013l0-.14a1.354,1.354,0,0,0-2.707-.05l0,.141a3.451,3.451,0,0,0,3.389,3.514h1.038v.812a1.354,1.354,0,0,0,1.354,1.353Z" fill="#fe5f75"/>
    <circle id="Ellipse_470" data-name="Ellipse 470" cx="3.738" cy="3.738" r="3.738" transform="translate(1478.752 1547.315)" fill="#b8c0cc"/>
    <circle id="Ellipse_471" data-name="Ellipse 471" cx="3.738" cy="3.738" r="3.738" transform="translate(1484.711 1547.315)" fill="#b8c0cc" opacity="0.5"/>
  </g>
</svg>
