<svg width="68" height="74" viewBox="0 0 68 74" fill="none" xmlns="http://www.w3.org/2000/svg">
<path d="M33.9144 33.6606C32.5889 33.6606 31.5144 34.7352 31.5144 36.0607C31.5142 37.0191 32.0775 37.8438 32.8896 38.2286V41.1461C32.8896 41.712 33.3483 42.1708 33.9143 42.1708C34.4803 42.1708 34.939 41.7121 34.939 41.1461V38.2286C35.7513 37.8438 36.3145 37.0191 36.3145 36.0607C36.3145 34.7352 35.24 33.6606 33.9144 33.6606Z" fill="#B8C0CC"/>
<path d="M1.28096 13.1935C8.25517 13.1935 14.6482 7.96774 14.6482 1H53.0891C53.0891 7.96774 59.4882 13.1935 66.469 13.1935C66.469 30.6129 68.7637 55.5806 33.8595 73C-1.01156 55.5806 1.28096 30.6129 1.28096 13.1935Z" stroke="#B8C0CC" stroke-width="2" stroke-linejoin="round"/>
<path d="M42.875 26.875V21.25C42.875 16.2794 38.8456 12.25 33.875 12.25C28.9045 12.25 24.875 16.2794 24.875 21.25V26.875" stroke="#FE7C5F" stroke-width="2"/>
<rect x="20.25" y="27.875" width="27.25" height="20.5" rx="2" stroke="#FE7C5F" stroke-width="2"/>
</svg>
