<svg width="577" height="410" viewBox="0 0 577 410" fill="none" xmlns="http://www.w3.org/2000/svg">
<rect x="88" y="108" width="418" height="300" rx="29" fill="white" stroke="#B8C0CC" stroke-width="2"/>
<rect x="102" y="122" width="346" height="272" rx="20" fill="#B8C0CC" fill-opacity="0.1"/>
<rect x="1" y="-1" width="31.5813" height="56.7673" rx="5" transform="matrix(1 0 0 -1 175.907 360.43)" fill="white" stroke="#B8C0CC" stroke-width="2"/>
<rect x="1" y="-1" width="31.5813" height="81.9533" rx="5" transform="matrix(1 0 0 -1 230.79 360.83)" fill="white" stroke="#B8C0CC" stroke-width="2"/>
<rect x="1" y="-1" width="31.5813" height="107.139" rx="5" transform="matrix(1 0 0 -1 285.672 360.84)" fill="white" stroke="#B8C0CC" stroke-width="2"/>
<rect x="1" y="-1" width="31.5813" height="132.325" rx="5" transform="matrix(1 0 0 -1 340.785 360.84)" fill="white" stroke="#B8C0CC" stroke-width="2"/>
<circle cx="477.5" cy="257.5" r="14.5" fill="#B8C0CC"/>
<path d="M134.014 154.636V362H415.257" stroke="#B8C0CC" stroke-width="2" stroke-linecap="round"/>
<path d="M193.422 267.457L219.677 243.613C223.544 240.101 229.463 240.157 233.263 243.742L237.43 247.674C241.341 251.363 247.468 251.3 251.302 247.532L277.034 222.24C280.892 218.448 287.066 218.412 290.969 222.158L293.662 224.744C297.637 228.56 303.95 228.441 307.779 224.478L339.366 191.783" stroke="#6D57E7" stroke-width="2" stroke-linecap="round" stroke-linejoin="round"/>
<path d="M327.88 187.053H344.096V202.594" stroke="#6D57E7" stroke-width="2" stroke-linecap="round" stroke-linejoin="round"/>
<path d="M370.365 362.77C408.71 394.41 448.621 379.891 448.621 379.891" stroke="#B8C0CC" stroke-width="1.88" stroke-linecap="round" stroke-linejoin="round"/>
<mask id="mask0" mask-type="alpha" maskUnits="userSpaceOnUse" x="312" y="292" width="118" height="118">
<path d="M313.291 397.686V350.714C313.295 335.612 319.308 321.129 330.01 310.449C340.711 299.769 355.225 293.767 370.36 293.762H371.192C378.688 293.762 386.111 295.236 393.036 298.099C399.961 300.962 406.253 305.158 411.553 310.448C416.853 315.738 421.056 322.018 423.923 328.929C426.789 335.84 428.264 343.247 428.261 350.727V351.557C428.263 359.038 426.787 366.446 423.919 373.358C421.051 380.27 416.846 386.551 411.544 391.841C406.243 397.131 399.949 401.326 393.022 404.189C386.095 407.051 378.67 408.523 371.173 408.521H324.164C321.284 408.508 318.527 407.36 316.491 405.329C314.455 403.297 313.305 400.546 313.291 397.673V397.686Z" fill="white" stroke="#B8C0CC" stroke-width="1.88" stroke-miterlimit="10"/>
</mask>
<g mask="url(#mask0)">
<path d="M313.291 397.686V350.714C313.295 335.612 319.308 321.129 330.01 310.449C340.711 299.769 355.225 293.767 370.36 293.762H371.192C378.688 293.762 386.111 295.236 393.036 298.099C399.961 300.962 406.253 305.158 411.553 310.448C416.853 315.738 421.056 322.018 423.923 328.929C426.789 335.84 428.264 343.247 428.261 350.727V351.557C428.263 359.038 426.787 366.446 423.919 373.358C421.051 380.27 416.846 386.551 411.544 391.841C406.243 397.131 399.949 401.326 393.022 404.189C386.095 407.051 378.67 408.523 371.173 408.521H324.164C321.284 408.508 318.527 407.36 316.491 405.329C314.455 403.297 313.305 400.546 313.291 397.673V397.686Z" fill="white" stroke="#B8C0CC" stroke-width="1.88" stroke-miterlimit="10"/>
<path d="M322.482 350.713V397.672C322.496 400.545 323.645 403.297 325.681 405.328C327.717 407.36 330.475 408.507 333.354 408.521V417.532H303.784V289.43H380.383V293.762H379.551C364.416 293.767 349.902 299.769 339.201 310.448C328.499 321.128 322.485 335.611 322.482 350.713Z" fill="#EAEFF4"/>
<path d="M313.291 397.702V350.801C313.295 335.722 319.325 321.261 330.056 310.597C340.786 299.934 355.34 293.941 370.517 293.936H371.351C378.867 293.936 386.31 295.407 393.254 298.266C400.198 301.124 406.508 305.314 411.822 310.596C417.136 315.878 421.351 322.148 424.225 329.049C427.1 335.95 428.578 343.346 428.576 350.814V351.643C428.577 359.113 427.098 366.51 424.222 373.411C421.346 380.313 417.129 386.584 411.813 391.866C406.497 397.148 400.186 401.337 393.24 404.195C386.294 407.053 378.849 408.523 371.331 408.521H324.193C321.306 408.508 318.541 407.362 316.499 405.334C314.458 403.305 313.305 400.558 313.291 397.689V397.702Z" stroke="#B8C0CC" stroke-width="2" stroke-miterlimit="10"/>
</g>
<path d="M373.777 386.066C373.777 385.514 373.329 385.066 372.777 385.066H334.156C333.604 385.066 333.156 385.514 333.156 386.066V405.136C333.156 406.792 334.499 408.136 336.156 408.136H370.777C372.433 408.136 373.777 406.792 373.777 405.136V386.066Z" fill="white" stroke="#B8C0CC" stroke-width="2"/>
<path d="M373.777 386.066C373.777 385.514 373.329 385.066 372.777 385.066H334.156C333.604 385.066 333.156 385.514 333.156 386.066V394.136C333.156 396.898 335.395 399.136 338.156 399.136H368.777C371.538 399.136 373.777 396.898 373.777 394.136L373.777 386.066Z" fill="white" stroke="#B8C0CC" stroke-width="2"/>
<path d="M361.2 383.464C361.2 384.016 360.752 384.464 360.2 384.464H346.733C346.18 384.464 345.733 384.016 345.733 383.464V382.477C345.733 380.82 347.076 379.477 348.733 379.477H358.2C359.857 379.477 361.2 380.82 361.2 382.477L361.2 383.464Z" fill="white" stroke="#B8C0CC" stroke-width="2"/>
<rect width="12.5354" height="2.52604" rx="1" transform="matrix(-1 0 0 1 359.734 394.063)" fill="#6D57E7"/>
<path d="M341.239 351.927C341.884 357.855 344.464 371.744 349.624 379.874" stroke="#B8C0CC" stroke-width="2" stroke-linecap="round"/>
<circle r="3.49347" transform="matrix(-1 0 0 1 348.925 378.477)" fill="#B8C0CC"/>
<path d="M392.244 346.337C392.244 348.255 393.819 349.831 395.737 349.831C397.655 349.831 399.231 348.255 399.231 346.337" stroke="#B8C0CC" stroke-width="1.8833" stroke-miterlimit="10" stroke-linecap="round" stroke-linejoin="round"/>
<path d="M374.835 333.019C375.291 334.828 380.316 339.35 380.316 339.35C380.316 339.35 384.884 335.28 385.797 333.019C386.711 330.758 383.513 327.593 380.316 331.21C376.662 327.593 374.378 331.21 374.835 333.019Z" fill="#6D57E7"/>
<path d="M401.385 333.019C401.842 334.828 406.866 339.35 406.866 339.35C406.866 339.35 411.434 335.28 412.348 333.019C413.261 330.758 410.064 327.593 406.866 331.21C403.212 327.593 400.928 331.21 401.385 333.019Z" fill="#6D57E7"/>
<path d="M450.302 381.148C451.044 380.408 451.507 379.433 451.611 378.389C451.714 377.345 451.451 376.298 450.868 375.426C450.369 374.681 449.661 374.101 448.833 373.758C448.002 373.415 447.089 373.325 446.208 373.5C445.326 373.675 444.516 374.106 443.879 374.74C443.247 375.375 442.816 376.182 442.641 377.061C442.46 377.946 442.549 378.865 442.898 379.698C443.185 380.387 443.637 380.995 444.214 381.468C444.792 381.94 445.476 382.264 446.208 382.409C446.94 382.554 447.696 382.517 448.41 382.301C449.124 382.084 449.773 381.695 450.302 381.168V381.148Z" fill="#B8C0CC"/>
<mask id="mask1" mask-type="alpha" maskUnits="userSpaceOnUse" x="460" y="292" width="117" height="118">
<path d="M576 397.685V350.713C575.997 335.611 569.983 321.128 559.281 310.449C548.58 299.769 534.066 293.767 518.931 293.762H518.099C510.603 293.762 503.181 295.235 496.255 298.098C489.33 300.961 483.038 305.158 477.738 310.447C472.439 315.737 468.236 322.017 465.369 328.928C462.502 335.839 461.028 343.246 461.03 350.726V351.556C461.028 359.037 462.504 366.446 465.372 373.358C468.241 380.27 472.446 386.55 477.747 391.84C483.049 397.13 489.343 401.326 496.27 404.188C503.197 407.05 510.621 408.523 518.119 408.521H565.128C568.007 408.507 570.765 407.36 572.801 405.328C574.837 403.297 575.986 400.545 576 397.672V397.685Z" fill="white" stroke="#6D57E7" stroke-width="1.88" stroke-miterlimit="10"/>
</mask>
<g mask="url(#mask1)">
<path d="M576 397.685V350.713C575.997 335.611 569.983 321.128 559.281 310.449C548.58 299.769 534.066 293.767 518.931 293.762H518.099C510.603 293.762 503.181 295.235 496.255 298.098C489.33 300.961 483.038 305.158 477.738 310.447C472.439 315.737 468.236 322.017 465.369 328.928C462.502 335.839 461.028 343.246 461.03 350.726V351.556C461.028 359.037 462.504 366.446 465.372 373.358C468.241 380.27 472.446 386.55 477.747 391.84C483.049 397.13 489.343 401.326 496.27 404.188C503.197 407.05 510.621 408.523 518.119 408.521H565.128C568.007 408.507 570.765 407.36 572.801 405.328C574.837 403.297 575.986 400.545 576 397.672V397.685Z" fill="white" stroke="#6D57E7" stroke-width="1.88" stroke-miterlimit="10"/>
<path d="M566.81 350.713V397.672C566.796 400.545 565.646 403.297 563.61 405.328C561.574 407.36 558.817 408.507 555.937 408.521V417.532H585.508V289.43H508.909V293.762H509.741C524.876 293.767 539.389 299.769 550.091 310.448C560.793 321.128 566.806 335.611 566.81 350.713Z" fill="#EAEFF4"/>
<path d="M576 397.685V350.713C575.997 335.611 569.983 321.128 559.281 310.449C548.58 299.769 534.066 293.767 518.931 293.762H518.099C510.603 293.762 503.181 295.235 496.255 298.098C489.33 300.961 483.038 305.158 477.738 310.447C472.439 315.737 468.236 322.017 465.369 328.928C462.502 335.839 461.028 343.246 461.03 350.726V351.556C461.028 359.037 462.504 366.446 465.372 373.358C468.241 380.27 472.446 386.55 477.747 391.84C483.049 397.13 489.343 401.326 496.27 404.188C503.197 407.05 510.621 408.523 518.119 408.521H565.128C568.007 408.507 570.765 407.36 572.801 405.328C574.837 403.297 575.986 400.545 576 397.672V397.685Z" stroke="#6D57E7" stroke-width="1.88" stroke-miterlimit="10"/>
</g>
<path d="M485.17 347.884C485.17 349.802 486.903 351.377 489.012 351.377C491.122 351.377 492.855 349.802 492.855 347.884" stroke="#B8C0CC" stroke-width="1.8833" stroke-miterlimit="10" stroke-linecap="round" stroke-linejoin="round"/>
<path d="M528.839 361.975C490.494 393.615 450.583 379.096 450.583 379.096" stroke="#6D57E7" stroke-width="1.88" stroke-linecap="round" stroke-linejoin="round"/>
<path d="M475.388 334.608C475.388 336.526 477.121 338.102 479.231 338.102C481.341 338.102 483.074 336.526 483.074 334.608" stroke="#B8C0CC" stroke-width="1.8833" stroke-miterlimit="10" stroke-linecap="round" stroke-linejoin="round"/>
<path d="M497.746 334.608C497.746 336.526 499.322 338.102 501.24 338.102C503.158 338.102 504.733 336.526 504.733 334.608" stroke="#B8C0CC" stroke-width="1.8833" stroke-miterlimit="10" stroke-linecap="round" stroke-linejoin="round"/>
<path d="M453.654 377.274C453.961 378.252 453.918 379.306 453.534 380.254C453.149 381.203 452.445 381.988 451.544 382.475C450.773 382.891 449.896 383.069 449.022 382.988C448.147 382.906 447.315 382.567 446.631 382.014C445.947 381.462 445.441 380.72 445.177 379.882C444.918 379.046 444.911 378.152 445.159 377.313C445.404 376.466 445.9 375.713 446.58 375.152C447.142 374.688 447.81 374.369 448.525 374.224C449.24 374.079 449.98 374.112 450.68 374.32C451.38 374.528 452.018 374.904 452.538 375.417C453.058 375.929 453.444 376.561 453.663 377.257L453.654 377.274Z" fill="#6D57E7"/>
<rect x="387.319" y="1" width="187.681" height="187.681" rx="29" fill="white" stroke="#B8C0CC" stroke-width="2"/>
<rect x="464.088" y="148.9" width="26.5554" height="7.58725" fill="#F0F4F7" stroke="#B8C0CC" stroke-width="1.88" stroke-linecap="round" stroke-linejoin="round"/>
<rect x="495.385" y="148.9" width="26.5554" height="7.58725" fill="#F0F4F7" stroke="#B8C0CC" stroke-width="1.88" stroke-linecap="round" stroke-linejoin="round"/>
<rect x="440.378" y="148.9" width="26.5554" height="7.58725" fill="#F0F4F7" stroke="#B8C0CC" stroke-width="1.88" stroke-linecap="round" stroke-linejoin="round"/>
<rect x="464.088" y="142.261" width="26.5554" height="6.63885" fill="#F0F4F7" stroke="#B8C0CC" stroke-width="1.88" stroke-linecap="round" stroke-linejoin="round"/>
<rect x="495.385" y="142.261" width="26.5554" height="6.63885" fill="#F0F4F7" stroke="#B8C0CC" stroke-width="1.88" stroke-linecap="round" stroke-linejoin="round"/>
<rect x="440.378" y="142.261" width="26.5554" height="6.63885" fill="#F0F4F7" stroke="#B8C0CC" stroke-width="1.88" stroke-linecap="round" stroke-linejoin="round"/>
<rect x="464.088" y="133.725" width="26.5554" height="8.53566" fill="#F0F4F7" stroke="#B8C0CC" stroke-width="1.88" stroke-linecap="round" stroke-linejoin="round"/>
<rect x="495.385" y="133.725" width="26.5554" height="8.53566" fill="#F0F4F7" stroke="#B8C0CC" stroke-width="1.88" stroke-linecap="round" stroke-linejoin="round"/>
<rect x="440.378" y="133.725" width="26.5554" height="8.53566" fill="#F0F4F7" stroke="#B8C0CC" stroke-width="1.88" stroke-linecap="round" stroke-linejoin="round"/>
<rect x="464.088" y="127.086" width="26.5554" height="6.63885" fill="#F0F4F7" stroke="#B8C0CC" stroke-width="1.88" stroke-linecap="round" stroke-linejoin="round"/>
<rect x="495.385" y="127.086" width="26.5554" height="6.63885" fill="#F0F4F7" stroke="#B8C0CC" stroke-width="1.88" stroke-linecap="round" stroke-linejoin="round"/>
<rect x="440.378" y="127.086" width="26.5554" height="6.63885" fill="#F0F4F7" stroke="#B8C0CC" stroke-width="1.88" stroke-linecap="round" stroke-linejoin="round"/>
<rect x="464.088" y="119.499" width="26.5554" height="7.58725" fill="#F0F4F7" stroke="#B8C0CC" stroke-width="1.88" stroke-linecap="round" stroke-linejoin="round"/>
<rect x="495.385" y="119.499" width="26.5554" height="7.58725" fill="#F0F4F7" stroke="#B8C0CC" stroke-width="1.88" stroke-linecap="round" stroke-linejoin="round"/>
<rect x="440.378" y="119.499" width="26.5554" height="7.58725" fill="#F0F4F7" stroke="#B8C0CC" stroke-width="1.88" stroke-linecap="round" stroke-linejoin="round"/>
<rect x="464.088" y="112.86" width="26.5554" height="6.63885" fill="#F0F4F7" stroke="#B8C0CC" stroke-width="1.88" stroke-linecap="round" stroke-linejoin="round"/>
<rect x="495.385" y="112.86" width="26.5554" height="6.63885" fill="#F0F4F7" stroke="#B8C0CC" stroke-width="1.88" stroke-linecap="round" stroke-linejoin="round"/>
<rect x="464.088" y="105.273" width="26.5554" height="7.58725" fill="#F0F4F7" stroke="#B8C0CC" stroke-width="1.88" stroke-linecap="round" stroke-linejoin="round"/>
<rect x="495.385" y="105.273" width="26.5554" height="7.58725" fill="#F0F4F7" stroke="#B8C0CC" stroke-width="1.88" stroke-linecap="round" stroke-linejoin="round"/>
<rect x="464.088" y="97.6858" width="26.5554" height="7.58725" fill="#F0F4F7" stroke="#B8C0CC" stroke-width="1.88" stroke-linecap="round" stroke-linejoin="round"/>
<rect x="464.088" y="90.0986" width="26.5554" height="7.58725" fill="#F0F4F7" stroke="#B8C0CC" stroke-width="1.88" stroke-linecap="round" stroke-linejoin="round"/>
<rect x="464.088" y="83.46" width="26.5554" height="6.63885" fill="#F0F4F7" stroke="#B8C0CC" stroke-width="1.88" stroke-linecap="round" stroke-linejoin="round"/>
<rect x="464.088" y="75.8726" width="26.5554" height="7.58725" fill="#F0F4F7" stroke="#B8C0CC" stroke-width="1.88" stroke-linecap="round" stroke-linejoin="round"/>
<rect x="464.088" y="69.2339" width="26.5554" height="6.63885" fill="#F0F4F7" stroke="#B8C0CC" stroke-width="1.88" stroke-linecap="round" stroke-linejoin="round"/>
<path d="M477.474 57.1483C484.867 57.1483 490.86 52.8239 490.86 47.4895V44.4668H464.088V47.4895C464.088 52.8239 470.081 57.1483 477.474 57.1483Z" fill="#F0F4F7" stroke="#B8C0CC" stroke-width="1.88"/>
<ellipse cx="477.474" cy="43.7623" rx="13.3861" ry="10.568" fill="white" stroke="#B8C0CC" stroke-width="1.88"/>
<path d="M476.965 49.3135C477.23 49.3135 477.484 49.2332 477.672 49.0902C477.859 48.9472 477.964 48.7532 477.964 48.551V48.0886C478.828 48.049 479.64 47.7593 480.233 47.2786C480.827 46.798 481.158 46.1625 481.159 45.5018V45.4258C481.158 44.739 480.8 44.0807 480.164 43.5951C479.528 43.1094 478.665 42.8361 477.766 42.8351H476.069C475.716 42.8155 475.385 42.6946 475.144 42.4966C474.903 42.2986 474.769 42.0382 474.769 41.7678C474.769 41.4975 474.903 41.2372 475.144 41.0392C475.385 40.8412 475.716 40.7202 476.069 40.7006H478.546C478.692 40.7007 478.832 40.7451 478.935 40.8238C479.038 40.9026 479.097 41.0094 479.097 41.1208V41.1388C479.095 41.3352 479.192 41.5245 479.369 41.6674C479.545 41.8103 479.787 41.8955 480.044 41.9055C480.301 41.9154 480.553 41.8493 480.748 41.7208C480.942 41.5923 481.064 41.4115 481.089 41.2159V41.2041C481.103 40.9489 481.052 40.6941 480.937 40.454C480.823 40.214 480.648 39.9935 480.422 39.8053C480.196 39.617 479.923 39.4645 479.62 39.3567C479.316 39.2488 478.988 39.1876 478.654 39.1766H478.545H477.965V38.7193C477.969 38.6174 477.945 38.5161 477.897 38.4212C477.848 38.3263 477.775 38.2398 477.682 38.1668C477.589 38.0937 477.478 38.0357 477.355 37.9961C477.232 37.9564 477.1 37.936 476.966 37.936C476.833 37.936 476.701 37.9564 476.578 37.9961C476.455 38.0357 476.344 38.0937 476.251 38.1668C476.158 38.2398 476.085 38.3263 476.036 38.4212C475.987 38.5161 475.964 38.6174 475.968 38.7193V39.1783C475.522 39.1833 475.082 39.2553 474.673 39.3901C474.264 39.5249 473.893 39.7199 473.583 39.964C473.272 40.2081 473.028 40.4965 472.863 40.8127C472.699 41.1289 472.618 41.4668 472.624 41.807C472.631 42.1472 472.725 42.4831 472.902 42.7955C473.078 43.1079 473.334 43.3907 473.653 43.6278C473.973 43.8648 474.351 44.0514 474.765 44.177C475.179 44.3026 475.622 44.3647 476.068 44.3597H477.764C477.948 44.3597 478.131 44.3874 478.301 44.4412C478.471 44.4949 478.625 44.5737 478.755 44.6731C478.886 44.7725 478.989 44.8904 479.059 45.0202C479.13 45.1501 479.166 45.2892 479.166 45.4298V45.5064C479.165 45.7896 479.017 46.0609 478.754 46.2608C478.491 46.4608 478.135 46.573 477.764 46.573H475.247C475.175 46.5731 475.103 46.5623 475.037 46.5412C474.97 46.5202 474.909 46.4893 474.858 46.4503C474.807 46.4114 474.766 46.3651 474.739 46.3142C474.711 46.2632 474.697 46.2086 474.697 46.1534V46.1461V46.0673C474.696 45.8677 474.594 45.6761 474.41 45.5338C474.227 45.3914 473.978 45.3096 473.716 45.3059C473.455 45.3023 473.202 45.377 473.012 45.5141C472.822 45.6511 472.71 45.8396 472.7 46.0391V46.1185C472.694 46.3738 472.753 46.6275 472.876 46.8652C472.998 47.1028 473.181 47.3197 473.413 47.5035C473.645 47.6873 473.922 47.8344 474.229 47.9363C474.536 48.0382 474.866 48.093 475.2 48.0976H475.966V48.5549C475.966 48.757 476.071 48.9509 476.259 49.0938C476.446 49.2366 476.7 49.3169 476.965 49.3169L476.965 49.3135Z" fill="#B8C0CC"/>
<rect x="1" y="181" width="176" height="187" rx="19" fill="white" stroke="#B8C0CC" stroke-width="2"/>
<rect x="54.0592" y="259.666" width="75.8725" height="7.58725" rx="3.79363" fill="#D7DEE2"/>
<rect x="54.0592" y="272.944" width="47.4203" height="7.58725" rx="3.79363" fill="#EAEFF4"/>
<rect x="18.0198" y="259.666" width="20.8649" height="20.8649" rx="6" fill="#D7DEE2"/>
<rect x="145.158" y="262.563" width="14.1229" height="14.1229" rx="5" stroke="#B8C0CC" stroke-width="2"/>
<path d="M154.121 270.584C153.926 270.781 153.607 270.781 153.411 270.584L151.342 268.496C151.067 268.219 150.619 268.218 150.343 268.494C150.069 268.768 150.069 269.212 150.341 269.488L153.411 272.585C153.607 272.783 153.926 272.783 154.121 272.585L161.688 264.951C161.959 264.677 161.959 264.236 161.688 263.962C161.413 263.685 160.965 263.685 160.69 263.962L154.121 270.584Z" fill="#6D57E7" stroke="#6D57E7"/>
<rect x="54.0592" y="291.912" width="75.8725" height="7.58725" rx="3.79363" fill="#D7DEE2"/>
<rect x="54.0592" y="305.189" width="47.4203" height="7.58725" rx="3.79363" fill="#EAEFF4"/>
<rect x="18.0198" y="291.912" width="20.8649" height="20.8649" rx="6" fill="#D7DEE2"/>
<rect x="145.158" y="294.808" width="14.1229" height="14.1229" rx="5" stroke="#B8C0CC" stroke-width="2"/>
<path d="M154.121 302.83C153.926 303.027 153.607 303.027 153.411 302.83L151.342 300.742C151.067 300.464 150.619 300.464 150.343 300.74C150.069 301.014 150.069 301.458 150.341 301.734L153.411 304.831C153.607 305.028 153.926 305.028 154.121 304.831L161.688 297.197C161.959 296.923 161.959 296.482 161.688 296.208C161.413 295.931 160.965 295.931 160.69 296.208L154.121 302.83Z" fill="#6D57E7" stroke="#6D57E7"/>
<rect x="54.0592" y="324.158" width="75.8725" height="7.58725" rx="3.79363" fill="#D7DEE2"/>
<rect x="54.0592" y="337.435" width="47.4203" height="7.58725" rx="3.79363" fill="#EAEFF4"/>
<rect x="18.0198" y="324.158" width="20.8649" height="20.8649" rx="6" fill="#D7DEE2"/>
<rect x="145.158" y="327.054" width="14.1229" height="14.1229" rx="5" stroke="#B8C0CC" stroke-width="2"/>
<path d="M36.6797 212.29C37.1677 212.426 37.5437 212.674 37.8077 213.034C38.0797 213.394 38.2157 213.834 38.2157 214.354C38.2157 215.074 37.9557 215.638 37.4357 216.046C36.9237 216.454 36.2157 216.658 35.3117 216.658H32.2157C31.9837 216.658 31.7997 216.594 31.6637 216.466C31.5357 216.338 31.4717 216.158 31.4717 215.926V208.93C31.4717 208.698 31.5357 208.518 31.6637 208.39C31.7997 208.262 31.9837 208.198 32.2157 208.198H35.1917C36.0717 208.198 36.7597 208.394 37.2557 208.786C37.7597 209.17 38.0117 209.71 38.0117 210.406C38.0117 210.854 37.8917 211.242 37.6517 211.57C37.4197 211.898 37.0957 212.138 36.6797 212.29ZM32.9837 211.762H34.9397C36.0037 211.762 36.5357 211.366 36.5357 210.574C36.5357 210.174 36.4037 209.878 36.1397 209.686C35.8757 209.494 35.4757 209.398 34.9397 209.398H32.9837V211.762ZM35.1437 215.458C35.7037 215.458 36.1117 215.358 36.3677 215.158C36.6237 214.958 36.7517 214.646 36.7517 214.222C36.7517 213.798 36.6197 213.482 36.3557 213.274C36.0997 213.066 35.6957 212.962 35.1437 212.962H32.9837V215.458H35.1437ZM42.2071 216.754C41.6071 216.754 41.0791 216.63 40.6231 216.382C40.1751 216.134 39.8271 215.778 39.5791 215.314C39.3311 214.85 39.2071 214.31 39.2071 213.694C39.2071 213.078 39.3311 212.542 39.5791 212.086C39.8271 211.622 40.1751 211.266 40.6231 211.018C41.0791 210.77 41.6071 210.646 42.2071 210.646C42.8071 210.646 43.3311 210.77 43.7791 211.018C44.2351 211.266 44.5831 211.622 44.8231 212.086C45.0711 212.542 45.1951 213.078 45.1951 213.694C45.1951 214.31 45.0711 214.85 44.8231 215.314C44.5831 215.778 44.2351 216.134 43.7791 216.382C43.3311 216.63 42.8071 216.754 42.2071 216.754ZM42.1951 215.59C42.6831 215.59 43.0551 215.43 43.3111 215.11C43.5671 214.79 43.6951 214.318 43.6951 213.694C43.6951 213.078 43.5671 212.61 43.3111 212.29C43.0551 211.962 42.6871 211.798 42.2071 211.798C41.7271 211.798 41.3551 211.962 41.0911 212.29C40.8351 212.61 40.7071 213.078 40.7071 213.694C40.7071 214.318 40.8351 214.79 41.0911 215.11C41.3471 215.43 41.7151 215.59 42.1951 215.59ZM49.1094 216.754C48.5094 216.754 47.9814 216.63 47.5254 216.382C47.0774 216.134 46.7294 215.778 46.4814 215.314C46.2334 214.85 46.1094 214.31 46.1094 213.694C46.1094 213.078 46.2334 212.542 46.4814 212.086C46.7294 211.622 47.0774 211.266 47.5254 211.018C47.9814 210.77 48.5094 210.646 49.1094 210.646C49.7094 210.646 50.2334 210.77 50.6814 211.018C51.1374 211.266 51.4854 211.622 51.7254 212.086C51.9734 212.542 52.0974 213.078 52.0974 213.694C52.0974 214.31 51.9734 214.85 51.7254 215.314C51.4854 215.778 51.1374 216.134 50.6814 216.382C50.2334 216.63 49.7094 216.754 49.1094 216.754ZM49.0974 215.59C49.5854 215.59 49.9574 215.43 50.2134 215.11C50.4694 214.79 50.5974 214.318 50.5974 213.694C50.5974 213.078 50.4694 212.61 50.2134 212.29C49.9574 211.962 49.5894 211.798 49.1094 211.798C48.6294 211.798 48.2574 211.962 47.9934 212.29C47.7374 212.61 47.6094 213.078 47.6094 213.694C47.6094 214.318 47.7374 214.79 47.9934 215.11C48.2494 215.43 48.6174 215.59 49.0974 215.59ZM58.5558 215.494C58.7158 215.646 58.7958 215.818 58.7958 216.01C58.7958 216.194 58.7278 216.358 58.5918 216.502C58.4638 216.646 58.3118 216.718 58.1358 216.718C57.9598 216.718 57.7958 216.646 57.6438 216.502L54.8358 213.958V216.01C54.8358 216.242 54.7638 216.418 54.6198 216.538C54.4758 216.658 54.2958 216.718 54.0798 216.718C53.8638 216.718 53.6838 216.658 53.5398 216.538C53.4038 216.418 53.3358 216.242 53.3358 216.01V208.846C53.3358 208.614 53.4038 208.438 53.5398 208.318C53.6838 208.198 53.8638 208.138 54.0798 208.138C54.2958 208.138 54.4758 208.198 54.6198 208.318C54.7638 208.438 54.8358 208.614 54.8358 208.846V213.358L57.4038 210.898C57.5478 210.754 57.7118 210.682 57.8958 210.682C58.0798 210.682 58.2398 210.75 58.3758 210.886C58.5118 211.022 58.5798 211.182 58.5798 211.366C58.5798 211.55 58.5038 211.718 58.3518 211.87L56.4678 213.622L58.5558 215.494ZM65.5712 210.646C66.3872 210.646 66.9912 210.85 67.3832 211.258C67.7832 211.658 67.9832 212.27 67.9832 213.094V216.022C67.9832 216.238 67.9192 216.41 67.7912 216.538C67.6632 216.658 67.4872 216.718 67.2632 216.718C67.0552 216.718 66.8832 216.654 66.7472 216.526C66.6192 216.398 66.5552 216.23 66.5552 216.022V215.758C66.4192 216.07 66.2032 216.314 65.9072 216.49C65.6192 216.666 65.2832 216.754 64.8992 216.754C64.5072 216.754 64.1512 216.674 63.8312 216.514C63.5112 216.354 63.2592 216.134 63.0752 215.854C62.8912 215.574 62.7992 215.262 62.7992 214.918C62.7992 214.486 62.9072 214.146 63.1232 213.898C63.3472 213.65 63.7072 213.47 64.2032 213.358C64.6992 213.246 65.3832 213.19 66.2552 213.19H66.5552V212.914C66.5552 212.522 66.4712 212.238 66.3032 212.062C66.1352 211.878 65.8632 211.786 65.4872 211.786C65.2552 211.786 65.0192 211.822 64.7792 211.894C64.5392 211.958 64.2552 212.054 63.9272 212.182C63.7192 212.286 63.5672 212.338 63.4712 212.338C63.3272 212.338 63.2072 212.286 63.1112 212.182C63.0232 212.078 62.9792 211.942 62.9792 211.774C62.9792 211.638 63.0112 211.522 63.0752 211.426C63.1472 211.322 63.2632 211.226 63.4232 211.138C63.7032 210.986 64.0352 210.866 64.4192 210.778C64.8112 210.69 65.1952 210.646 65.5712 210.646ZM65.1992 215.674C65.5992 215.674 65.9232 215.542 66.1712 215.278C66.4272 215.006 66.5552 214.658 66.5552 214.234V213.982H66.3392C65.8032 213.982 65.3872 214.006 65.0912 214.054C64.7952 214.102 64.5832 214.186 64.4552 214.306C64.3272 214.426 64.2632 214.59 64.2632 214.798C64.2632 215.054 64.3512 215.266 64.5272 215.434C64.7112 215.594 64.9352 215.674 65.1992 215.674ZM75.3695 216.754C74.7855 216.754 74.2695 216.63 73.8215 216.382C73.3815 216.134 73.0415 215.782 72.8015 215.326C72.5615 214.87 72.4415 214.338 72.4415 213.73C72.4415 213.122 72.5655 212.586 72.8135 212.122C73.0695 211.65 73.4255 211.286 73.8815 211.03C74.3375 210.774 74.8615 210.646 75.4535 210.646C75.7655 210.646 76.0775 210.69 76.3895 210.778C76.7095 210.866 76.9895 210.986 77.2295 211.138C77.4855 211.306 77.6135 211.518 77.6135 211.774C77.6135 211.95 77.5695 212.094 77.4815 212.206C77.4015 212.31 77.2935 212.362 77.1575 212.362C77.0695 212.362 76.9775 212.342 76.8815 212.302C76.7855 212.262 76.6895 212.214 76.5935 212.158C76.4175 212.054 76.2495 211.974 76.0895 211.918C75.9295 211.854 75.7455 211.822 75.5375 211.822C75.0415 211.822 74.6575 211.986 74.3855 212.314C74.1215 212.634 73.9895 213.098 73.9895 213.706C73.9895 214.306 74.1215 214.77 74.3855 215.098C74.6575 215.418 75.0415 215.578 75.5375 215.578C75.7375 215.578 75.9135 215.55 76.0655 215.494C76.2255 215.43 76.4015 215.346 76.5935 215.242C76.7135 215.17 76.8175 215.118 76.9055 215.086C76.9935 215.046 77.0815 215.026 77.1695 215.026C77.2975 215.026 77.4055 215.082 77.4935 215.194C77.5815 215.306 77.6255 215.446 77.6255 215.614C77.6255 215.75 77.5935 215.87 77.5295 215.974C77.4735 216.07 77.3775 216.158 77.2415 216.238C76.9935 216.398 76.7055 216.526 76.3775 216.622C76.0495 216.71 75.7135 216.754 75.3695 216.754ZM81.3008 216.754C80.7008 216.754 80.1728 216.63 79.7168 216.382C79.2688 216.134 78.9208 215.778 78.6728 215.314C78.4248 214.85 78.3008 214.31 78.3008 213.694C78.3008 213.078 78.4248 212.542 78.6728 212.086C78.9208 211.622 79.2688 211.266 79.7168 211.018C80.1728 210.77 80.7008 210.646 81.3008 210.646C81.9008 210.646 82.4248 210.77 82.8728 211.018C83.3288 211.266 83.6768 211.622 83.9168 212.086C84.1648 212.542 84.2888 213.078 84.2888 213.694C84.2888 214.31 84.1648 214.85 83.9168 215.314C83.6768 215.778 83.3288 216.134 82.8728 216.382C82.4248 216.63 81.9008 216.754 81.3008 216.754ZM81.2888 215.59C81.7768 215.59 82.1488 215.43 82.4048 215.11C82.6608 214.79 82.7888 214.318 82.7888 213.694C82.7888 213.078 82.6608 212.61 82.4048 212.29C82.1488 211.962 81.7808 211.798 81.3008 211.798C80.8208 211.798 80.4488 211.962 80.1848 212.29C79.9288 212.61 79.8008 213.078 79.8008 213.694C79.8008 214.318 79.9288 214.79 80.1848 215.11C80.4408 215.43 80.8088 215.59 81.2888 215.59ZM88.9352 210.646C89.6392 210.646 90.1632 210.846 90.5072 211.246C90.8512 211.646 91.0232 212.25 91.0232 213.058V216.01C91.0232 216.234 90.9552 216.41 90.8192 216.538C90.6912 216.666 90.5112 216.73 90.2792 216.73C90.0472 216.73 89.8632 216.666 89.7272 216.538C89.5912 216.41 89.5232 216.234 89.5232 216.01V213.142C89.5232 212.686 89.4352 212.354 89.2592 212.146C89.0912 211.938 88.8232 211.834 88.4552 211.834C88.0232 211.834 87.6752 211.97 87.4112 212.242C87.1552 212.514 87.0272 212.878 87.0272 213.334V216.01C87.0272 216.234 86.9592 216.41 86.8232 216.538C86.6872 216.666 86.5032 216.73 86.2712 216.73C86.0392 216.73 85.8552 216.666 85.7192 216.538C85.5912 216.41 85.5272 216.234 85.5272 216.01V211.366C85.5272 211.158 85.5952 210.99 85.7312 210.862C85.8672 210.734 86.0512 210.67 86.2832 210.67C86.4912 210.67 86.6592 210.734 86.7872 210.862C86.9232 210.982 86.9912 211.142 86.9912 211.342V211.666C87.1912 211.338 87.4592 211.086 87.7952 210.91C88.1312 210.734 88.5112 210.646 88.9352 210.646ZM94.6707 216.754C93.7987 216.754 93.0947 216.582 92.5587 216.238C92.3027 216.086 92.1747 215.87 92.1747 215.59C92.1747 215.43 92.2187 215.302 92.3067 215.206C92.3947 215.102 92.5027 215.05 92.6307 215.05C92.7667 215.05 92.9547 215.114 93.1947 215.242C93.4507 215.362 93.6827 215.454 93.8907 215.518C94.1067 215.582 94.3787 215.614 94.7067 215.614C95.0427 215.614 95.3027 215.558 95.4867 215.446C95.6787 215.334 95.7747 215.178 95.7747 214.978C95.7747 214.842 95.7347 214.734 95.6547 214.654C95.5827 214.574 95.4467 214.502 95.2467 214.438C95.0547 214.366 94.7587 214.286 94.3587 214.198C93.6467 214.054 93.1347 213.85 92.8227 213.586C92.5187 213.322 92.3667 212.958 92.3667 212.494C92.3667 212.142 92.4707 211.826 92.6787 211.546C92.8867 211.258 93.1707 211.038 93.5307 210.886C93.8987 210.726 94.3147 210.646 94.7787 210.646C95.1147 210.646 95.4387 210.69 95.7507 210.778C96.0627 210.858 96.3427 210.978 96.5907 211.138C96.8467 211.298 96.9747 211.51 96.9747 211.774C96.9747 211.934 96.9307 212.07 96.8427 212.182C96.7547 212.286 96.6467 212.338 96.5187 212.338C96.4307 212.338 96.3427 212.322 96.2547 212.29C96.1747 212.25 96.0707 212.194 95.9427 212.122C95.7107 212.002 95.5107 211.914 95.3427 211.858C95.1747 211.794 94.9667 211.762 94.7187 211.762C94.4227 211.762 94.1867 211.822 94.0107 211.942C93.8427 212.062 93.7587 212.226 93.7587 212.434C93.7587 212.634 93.8467 212.786 94.0227 212.89C94.1987 212.994 94.5387 213.098 95.0427 213.202C95.5787 213.314 95.9987 213.442 96.3027 213.586C96.6067 213.73 96.8227 213.91 96.9507 214.126C97.0867 214.342 97.1547 214.618 97.1547 214.954C97.1547 215.498 96.9267 215.934 96.4707 216.262C96.0227 216.59 95.4227 216.754 94.6707 216.754ZM103.003 210.67C103.235 210.67 103.419 210.734 103.555 210.862C103.691 210.99 103.759 211.162 103.759 211.378V216.034C103.759 216.242 103.687 216.41 103.543 216.538C103.407 216.666 103.227 216.73 103.003 216.73C102.787 216.73 102.615 216.67 102.487 216.55C102.359 216.43 102.295 216.266 102.295 216.058V215.758C102.111 216.078 101.863 216.326 101.551 216.502C101.239 216.67 100.887 216.754 100.495 216.754C99.0549 216.754 98.3349 215.946 98.3349 214.33V211.378C98.3349 211.162 98.4029 210.99 98.5389 210.862C98.6749 210.734 98.8549 210.67 99.0789 210.67C99.3109 210.67 99.4949 210.734 99.6309 210.862C99.7669 210.99 99.8349 211.162 99.8349 211.378V214.342C99.8349 214.758 99.9189 215.066 100.087 215.266C100.255 215.466 100.519 215.566 100.879 215.566C101.295 215.566 101.627 215.43 101.875 215.158C102.131 214.878 102.259 214.51 102.259 214.054V211.378C102.259 211.162 102.327 210.99 102.463 210.862C102.599 210.734 102.779 210.67 103.003 210.67ZM106.064 216.73C105.848 216.73 105.668 216.67 105.524 216.55C105.388 216.422 105.32 216.242 105.32 216.01V208.846C105.32 208.614 105.388 208.438 105.524 208.318C105.668 208.198 105.848 208.138 106.064 208.138C106.28 208.138 106.46 208.198 106.604 208.318C106.748 208.438 106.82 208.614 106.82 208.846V216.01C106.82 216.242 106.748 216.422 106.604 216.55C106.46 216.67 106.28 216.73 106.064 216.73ZM111.673 215.614C112.073 215.638 112.273 215.818 112.273 216.154C112.273 216.346 112.193 216.494 112.033 216.598C111.881 216.694 111.661 216.734 111.373 216.718L111.049 216.694C109.705 216.598 109.033 215.878 109.033 214.534V211.918H108.433C108.217 211.918 108.049 211.87 107.929 211.774C107.817 211.678 107.761 211.538 107.761 211.354C107.761 211.17 107.817 211.03 107.929 210.934C108.049 210.838 108.217 210.79 108.433 210.79H109.033V209.686C109.033 209.47 109.101 209.298 109.237 209.17C109.373 209.042 109.557 208.978 109.789 208.978C110.013 208.978 110.193 209.042 110.329 209.17C110.465 209.298 110.533 209.47 110.533 209.686V210.79H111.553C111.769 210.79 111.933 210.838 112.045 210.934C112.165 211.03 112.225 211.17 112.225 211.354C112.225 211.538 112.165 211.678 112.045 211.774C111.933 211.87 111.769 211.918 111.553 211.918H110.533V214.642C110.533 215.234 110.805 215.55 111.349 215.59L111.673 215.614ZM115.599 210.646C116.415 210.646 117.019 210.85 117.411 211.258C117.811 211.658 118.011 212.27 118.011 213.094V216.022C118.011 216.238 117.947 216.41 117.819 216.538C117.691 216.658 117.515 216.718 117.291 216.718C117.083 216.718 116.911 216.654 116.775 216.526C116.647 216.398 116.583 216.23 116.583 216.022V215.758C116.447 216.07 116.231 216.314 115.935 216.49C115.647 216.666 115.311 216.754 114.927 216.754C114.535 216.754 114.179 216.674 113.859 216.514C113.539 216.354 113.287 216.134 113.103 215.854C112.919 215.574 112.827 215.262 112.827 214.918C112.827 214.486 112.935 214.146 113.151 213.898C113.375 213.65 113.735 213.47 114.231 213.358C114.727 213.246 115.411 213.19 116.283 213.19H116.583V212.914C116.583 212.522 116.499 212.238 116.331 212.062C116.163 211.878 115.891 211.786 115.515 211.786C115.283 211.786 115.047 211.822 114.807 211.894C114.567 211.958 114.283 212.054 113.955 212.182C113.747 212.286 113.595 212.338 113.499 212.338C113.355 212.338 113.235 212.286 113.139 212.182C113.051 212.078 113.007 211.942 113.007 211.774C113.007 211.638 113.039 211.522 113.103 211.426C113.175 211.322 113.291 211.226 113.451 211.138C113.731 210.986 114.063 210.866 114.447 210.778C114.839 210.69 115.223 210.646 115.599 210.646ZM115.227 215.674C115.627 215.674 115.951 215.542 116.199 215.278C116.455 215.006 116.583 214.658 116.583 214.234V213.982H116.367C115.831 213.982 115.415 214.006 115.119 214.054C114.823 214.102 114.611 214.186 114.483 214.306C114.355 214.426 114.291 214.59 114.291 214.798C114.291 215.054 114.379 215.266 114.555 215.434C114.739 215.594 114.963 215.674 115.227 215.674ZM122.583 215.614C122.983 215.638 123.183 215.818 123.183 216.154C123.183 216.346 123.103 216.494 122.943 216.598C122.791 216.694 122.571 216.734 122.283 216.718L121.959 216.694C120.615 216.598 119.943 215.878 119.943 214.534V211.918H119.343C119.127 211.918 118.959 211.87 118.839 211.774C118.727 211.678 118.671 211.538 118.671 211.354C118.671 211.17 118.727 211.03 118.839 210.934C118.959 210.838 119.127 210.79 119.343 210.79H119.943V209.686C119.943 209.47 120.011 209.298 120.147 209.17C120.283 209.042 120.467 208.978 120.699 208.978C120.923 208.978 121.103 209.042 121.239 209.17C121.375 209.298 121.443 209.47 121.443 209.686V210.79H122.463C122.679 210.79 122.843 210.838 122.955 210.934C123.075 211.03 123.135 211.17 123.135 211.354C123.135 211.538 123.075 211.678 122.955 211.774C122.843 211.87 122.679 211.918 122.463 211.918H121.443V214.642C121.443 215.234 121.715 215.55 122.259 215.59L122.583 215.614ZM124.709 216.73C124.493 216.73 124.313 216.67 124.169 216.55C124.033 216.422 123.965 216.242 123.965 216.01V211.378C123.965 211.146 124.033 210.97 124.169 210.85C124.313 210.73 124.493 210.67 124.709 210.67C124.925 210.67 125.105 210.73 125.249 210.85C125.393 210.97 125.465 211.146 125.465 211.378V216.01C125.465 216.242 125.393 216.422 125.249 216.55C125.105 216.67 124.925 216.73 124.709 216.73ZM124.709 209.602C124.437 209.602 124.221 209.53 124.061 209.386C123.901 209.234 123.821 209.038 123.821 208.798C123.821 208.558 123.901 208.366 124.061 208.222C124.221 208.078 124.437 208.006 124.709 208.006C124.973 208.006 125.185 208.078 125.345 208.222C125.513 208.366 125.597 208.558 125.597 208.798C125.597 209.038 125.517 209.234 125.357 209.386C125.197 209.53 124.981 209.602 124.709 209.602ZM129.688 216.754C129.088 216.754 128.56 216.63 128.104 216.382C127.656 216.134 127.308 215.778 127.06 215.314C126.812 214.85 126.688 214.31 126.688 213.694C126.688 213.078 126.812 212.542 127.06 212.086C127.308 211.622 127.656 211.266 128.104 211.018C128.56 210.77 129.088 210.646 129.688 210.646C130.288 210.646 130.812 210.77 131.26 211.018C131.716 211.266 132.064 211.622 132.304 212.086C132.552 212.542 132.676 213.078 132.676 213.694C132.676 214.31 132.552 214.85 132.304 215.314C132.064 215.778 131.716 216.134 131.26 216.382C130.812 216.63 130.288 216.754 129.688 216.754ZM129.676 215.59C130.164 215.59 130.536 215.43 130.792 215.11C131.048 214.79 131.176 214.318 131.176 213.694C131.176 213.078 131.048 212.61 130.792 212.29C130.536 211.962 130.168 211.798 129.688 211.798C129.208 211.798 128.836 211.962 128.572 212.29C128.316 212.61 128.188 213.078 128.188 213.694C128.188 214.318 128.316 214.79 128.572 215.11C128.828 215.43 129.196 215.59 129.676 215.59ZM137.322 210.646C138.026 210.646 138.55 210.846 138.894 211.246C139.238 211.646 139.41 212.25 139.41 213.058V216.01C139.41 216.234 139.342 216.41 139.206 216.538C139.078 216.666 138.898 216.73 138.666 216.73C138.434 216.73 138.25 216.666 138.114 216.538C137.978 216.41 137.91 216.234 137.91 216.01V213.142C137.91 212.686 137.822 212.354 137.646 212.146C137.478 211.938 137.21 211.834 136.842 211.834C136.41 211.834 136.062 211.97 135.798 212.242C135.542 212.514 135.414 212.878 135.414 213.334V216.01C135.414 216.234 135.346 216.41 135.21 216.538C135.074 216.666 134.89 216.73 134.658 216.73C134.426 216.73 134.242 216.666 134.106 216.538C133.978 216.41 133.914 216.234 133.914 216.01V211.366C133.914 211.158 133.982 210.99 134.118 210.862C134.254 210.734 134.438 210.67 134.67 210.67C134.878 210.67 135.046 210.734 135.174 210.862C135.31 210.982 135.378 211.142 135.378 211.342V211.666C135.578 211.338 135.846 211.086 136.182 210.91C136.518 210.734 136.898 210.646 137.322 210.646ZM68.784 232.754C67.912 232.754 67.208 232.582 66.672 232.238C66.416 232.086 66.288 231.87 66.288 231.59C66.288 231.43 66.332 231.302 66.42 231.206C66.508 231.102 66.616 231.05 66.744 231.05C66.88 231.05 67.068 231.114 67.308 231.242C67.564 231.362 67.796 231.454 68.004 231.518C68.22 231.582 68.492 231.614 68.82 231.614C69.156 231.614 69.416 231.558 69.6 231.446C69.792 231.334 69.888 231.178 69.888 230.978C69.888 230.842 69.848 230.734 69.768 230.654C69.696 230.574 69.56 230.502 69.36 230.438C69.168 230.366 68.872 230.286 68.472 230.198C67.76 230.054 67.248 229.85 66.936 229.586C66.632 229.322 66.48 228.958 66.48 228.494C66.48 228.142 66.584 227.826 66.792 227.546C67 227.258 67.284 227.038 67.644 226.886C68.012 226.726 68.428 226.646 68.892 226.646C69.228 226.646 69.552 226.69 69.864 226.778C70.176 226.858 70.456 226.978 70.704 227.138C70.96 227.298 71.088 227.51 71.088 227.774C71.088 227.934 71.044 228.07 70.956 228.182C70.868 228.286 70.76 228.338 70.632 228.338C70.544 228.338 70.456 228.322 70.368 228.29C70.288 228.25 70.184 228.194 70.056 228.122C69.824 228.002 69.624 227.914 69.456 227.858C69.288 227.794 69.08 227.762 68.832 227.762C68.536 227.762 68.3 227.822 68.124 227.942C67.956 228.062 67.872 228.226 67.872 228.434C67.872 228.634 67.96 228.786 68.136 228.89C68.312 228.994 68.652 229.098 69.156 229.202C69.692 229.314 70.112 229.442 70.416 229.586C70.72 229.73 70.936 229.91 71.064 230.126C71.2 230.342 71.268 230.618 71.268 230.954C71.268 231.498 71.04 231.934 70.584 232.262C70.136 232.59 69.536 232.754 68.784 232.754ZM77.1282 231.05C77.2642 231.05 77.3722 231.102 77.4522 231.206C77.5402 231.31 77.5842 231.45 77.5842 231.626C77.5842 231.874 77.4362 232.082 77.1402 232.25C76.8682 232.402 76.5602 232.526 76.2162 232.622C75.8722 232.71 75.5442 232.754 75.2322 232.754C74.2882 232.754 73.5402 232.482 72.9882 231.938C72.4362 231.394 72.1602 230.65 72.1602 229.706C72.1602 229.106 72.2802 228.574 72.5202 228.11C72.7602 227.646 73.0962 227.286 73.5282 227.03C73.9682 226.774 74.4642 226.646 75.0162 226.646C75.5442 226.646 76.0042 226.762 76.3962 226.994C76.7882 227.226 77.0922 227.554 77.3082 227.978C77.5242 228.402 77.6322 228.902 77.6322 229.478C77.6322 229.822 77.4802 229.994 77.1762 229.994H73.6362C73.6842 230.546 73.8402 230.954 74.1042 231.218C74.3682 231.474 74.7522 231.602 75.2562 231.602C75.5122 231.602 75.7362 231.57 75.9282 231.506C76.1282 231.442 76.3522 231.354 76.6002 231.242C76.8402 231.114 77.0162 231.05 77.1282 231.05ZM75.0522 227.702C74.6442 227.702 74.3162 227.83 74.0682 228.086C73.8282 228.342 73.6842 228.71 73.6362 229.19H76.3482C76.3322 228.702 76.2122 228.334 75.9882 228.086C75.7642 227.83 75.4522 227.702 75.0522 227.702ZM82.1352 226.67C82.3432 226.654 82.5072 226.698 82.6272 226.802C82.7472 226.906 82.8072 227.062 82.8072 227.27C82.8072 227.486 82.7552 227.646 82.6512 227.75C82.5472 227.854 82.3592 227.922 82.0872 227.954L81.7272 227.99C81.2552 228.038 80.9072 228.198 80.6832 228.47C80.4672 228.742 80.3592 229.082 80.3592 229.49V232.01C80.3592 232.242 80.2872 232.422 80.1432 232.55C79.9992 232.67 79.8192 232.73 79.6032 232.73C79.3872 232.73 79.2072 232.67 79.0632 232.55C78.9272 232.422 78.8592 232.242 78.8592 232.01V227.366C78.8592 227.142 78.9272 226.97 79.0632 226.85C79.2072 226.73 79.3832 226.67 79.5912 226.67C79.7992 226.67 79.9672 226.73 80.0952 226.85C80.2232 226.962 80.2872 227.126 80.2872 227.342V227.822C80.4392 227.47 80.6632 227.198 80.9592 227.006C81.2632 226.814 81.5992 226.706 81.9672 226.682L82.1352 226.67ZM87.9082 227.102C87.9722 226.958 88.0562 226.85 88.1602 226.778C88.2722 226.706 88.3922 226.67 88.5202 226.67C88.7042 226.67 88.8682 226.734 89.0122 226.862C89.1642 226.982 89.2402 227.134 89.2402 227.318C89.2402 227.414 89.2162 227.51 89.1682 227.606L86.9482 232.25C86.8762 232.402 86.7722 232.518 86.6362 232.598C86.5082 232.678 86.3642 232.718 86.2042 232.718C86.0522 232.718 85.9042 232.678 85.7602 232.598C85.6242 232.518 85.5202 232.402 85.4482 232.25L83.2162 227.606C83.1762 227.526 83.1562 227.434 83.1562 227.33C83.1562 227.146 83.2322 226.99 83.3842 226.862C83.5442 226.734 83.7242 226.67 83.9242 226.67C84.2122 226.67 84.4242 226.81 84.5602 227.09L86.2402 230.798L87.9082 227.102ZM91.0759 232.73C90.8599 232.73 90.6799 232.67 90.5359 232.55C90.3999 232.422 90.3319 232.242 90.3319 232.01V227.378C90.3319 227.146 90.3999 226.97 90.5359 226.85C90.6799 226.73 90.8599 226.67 91.0759 226.67C91.2919 226.67 91.4719 226.73 91.6159 226.85C91.7599 226.97 91.8319 227.146 91.8319 227.378V232.01C91.8319 232.242 91.7599 232.422 91.6159 232.55C91.4719 232.67 91.2919 232.73 91.0759 232.73ZM91.0759 225.602C90.8039 225.602 90.5879 225.53 90.4279 225.386C90.2679 225.234 90.1879 225.038 90.1879 224.798C90.1879 224.558 90.2679 224.366 90.4279 224.222C90.5879 224.078 90.8039 224.006 91.0759 224.006C91.3399 224.006 91.5519 224.078 91.7119 224.222C91.8799 224.366 91.9639 224.558 91.9639 224.798C91.9639 225.038 91.8839 225.234 91.7239 225.386C91.5639 225.53 91.3479 225.602 91.0759 225.602ZM95.9827 232.754C95.3987 232.754 94.8827 232.63 94.4347 232.382C93.9947 232.134 93.6547 231.782 93.4147 231.326C93.1747 230.87 93.0547 230.338 93.0547 229.73C93.0547 229.122 93.1787 228.586 93.4267 228.122C93.6827 227.65 94.0387 227.286 94.4947 227.03C94.9507 226.774 95.4747 226.646 96.0667 226.646C96.3787 226.646 96.6907 226.69 97.0027 226.778C97.3227 226.866 97.6027 226.986 97.8427 227.138C98.0987 227.306 98.2267 227.518 98.2267 227.774C98.2267 227.95 98.1827 228.094 98.0947 228.206C98.0147 228.31 97.9067 228.362 97.7707 228.362C97.6827 228.362 97.5907 228.342 97.4947 228.302C97.3987 228.262 97.3027 228.214 97.2067 228.158C97.0307 228.054 96.8627 227.974 96.7027 227.918C96.5427 227.854 96.3587 227.822 96.1507 227.822C95.6547 227.822 95.2707 227.986 94.9987 228.314C94.7347 228.634 94.6027 229.098 94.6027 229.706C94.6027 230.306 94.7347 230.77 94.9987 231.098C95.2707 231.418 95.6547 231.578 96.1507 231.578C96.3507 231.578 96.5267 231.55 96.6787 231.494C96.8387 231.43 97.0147 231.346 97.2067 231.242C97.3267 231.17 97.4307 231.118 97.5187 231.086C97.6067 231.046 97.6947 231.026 97.7827 231.026C97.9107 231.026 98.0187 231.082 98.1067 231.194C98.1947 231.306 98.2387 231.446 98.2387 231.614C98.2387 231.75 98.2067 231.87 98.1427 231.974C98.0867 232.07 97.9907 232.158 97.8547 232.238C97.6067 232.398 97.3187 232.526 96.9907 232.622C96.6627 232.71 96.3267 232.754 95.9827 232.754ZM103.882 231.05C104.018 231.05 104.126 231.102 104.206 231.206C104.294 231.31 104.338 231.45 104.338 231.626C104.338 231.874 104.19 232.082 103.894 232.25C103.622 232.402 103.314 232.526 102.97 232.622C102.626 232.71 102.298 232.754 101.986 232.754C101.042 232.754 100.294 232.482 99.7421 231.938C99.1901 231.394 98.9141 230.65 98.9141 229.706C98.9141 229.106 99.0341 228.574 99.2741 228.11C99.5141 227.646 99.8501 227.286 100.282 227.03C100.722 226.774 101.218 226.646 101.77 226.646C102.298 226.646 102.758 226.762 103.15 226.994C103.542 227.226 103.846 227.554 104.062 227.978C104.278 228.402 104.386 228.902 104.386 229.478C104.386 229.822 104.234 229.994 103.93 229.994H100.39C100.438 230.546 100.594 230.954 100.858 231.218C101.122 231.474 101.506 231.602 102.01 231.602C102.266 231.602 102.49 231.57 102.682 231.506C102.882 231.442 103.106 231.354 103.354 231.242C103.594 231.114 103.77 231.05 103.882 231.05ZM101.806 227.702C101.398 227.702 101.07 227.83 100.822 228.086C100.582 228.342 100.438 228.71 100.39 229.19H103.102C103.086 228.702 102.966 228.334 102.742 228.086C102.518 227.83 102.206 227.702 101.806 227.702Z" fill="#6D57E7"/>
</svg>
