<svg width="76" height="70" viewBox="0 0 76 70" fill="none" xmlns="http://www.w3.org/2000/svg">
<path d="M1 6.00001C1 3.23858 3.23858 1 6 1H36.1707C38.9322 1 41.1707 3.23858 41.1707 6V50.7388C41.1707 53.5002 38.9322 55.7388 36.1707 55.7388H5.99999C3.23857 55.7388 1 53.5002 1 50.7388V6.00001Z" fill="white" stroke="#B8C0CC" stroke-width="2"/>
<path d="M5.6001 9.66748C5.6001 9.1152 6.04781 8.66748 6.6001 8.66748H34.8032C35.3555 8.66748 35.8032 9.11519 35.8032 9.66748V11.8014C35.8032 12.3537 35.3555 12.8014 34.8032 12.8014H6.6001C6.04781 12.8014 5.6001 12.3537 5.6001 11.8014V9.66748Z" stroke="#B8C0CC" stroke-width="2"/>
<path d="M29.1362 43.5368C29.1362 43.2054 29.4049 42.9368 29.7362 42.9368H36.2036C36.535 42.9368 36.8036 43.2054 36.8036 43.5368V48.4707C36.8036 48.8021 36.535 49.0707 36.2036 49.0707H29.7362C29.4049 49.0707 29.1362 48.8021 29.1362 48.4707V43.5368Z" fill="#B8C0CC"/>
<path d="M29.1362 20.5355C29.1362 20.2042 29.4049 19.9355 29.7362 19.9355H36.2036C36.535 19.9355 36.8036 20.2042 36.8036 20.5355V22.4025C36.8036 22.7339 36.535 23.0025 36.2036 23.0025H29.7362C29.4049 23.0025 29.1362 22.7339 29.1362 22.4025V20.5355Z" fill="#B8C0CC"/>
<path d="M29.1362 28.2023C29.1362 27.8709 29.4049 27.6023 29.7362 27.6023H36.2036C36.535 27.6023 36.8036 27.8709 36.8036 28.2023V30.0693C36.8036 30.4006 36.535 30.6693 36.2036 30.6693H29.7362C29.4049 30.6693 29.1362 30.4006 29.1362 30.0693V28.2023Z" fill="#B8C0CC"/>
<path d="M29.1362 35.8703C29.1362 35.5389 29.4049 35.2703 29.7362 35.2703H36.2036C36.535 35.2703 36.8036 35.5389 36.8036 35.8703V37.7372C36.8036 38.0686 36.535 38.3372 36.2036 38.3372H29.7362C29.4049 38.3372 29.1362 38.0686 29.1362 37.7372V35.8703Z" fill="#B8C0CC"/>
<path d="M18.4019 20.5355C18.4019 20.2042 18.6705 19.9355 19.0019 19.9355H25.4693C25.8006 19.9355 26.0693 20.2042 26.0693 20.5355V22.4025C26.0693 22.7339 25.8006 23.0025 25.4693 23.0025H19.0019C18.6705 23.0025 18.4019 22.7339 18.4019 22.4025V20.5355Z" fill="#B8C0CC"/>
<path d="M18.4019 28.2023C18.4019 27.8709 18.6705 27.6023 19.0019 27.6023H25.4693C25.8006 27.6023 26.0693 27.8709 26.0693 28.2023V30.0693C26.0693 30.4006 25.8006 30.6693 25.4693 30.6693H19.0019C18.6705 30.6693 18.4019 30.4006 18.4019 30.0693V28.2023Z" fill="#B8C0CC"/>
<path d="M18.4019 35.8703C18.4019 35.5389 18.6705 35.2703 19.0019 35.2703H25.4693C25.8006 35.2703 26.0693 35.5389 26.0693 35.8703V37.7372C26.0693 38.0686 25.8006 38.3372 25.4693 38.3372H19.0019C18.6705 38.3372 18.4019 38.0686 18.4019 37.7372V35.8703Z" fill="#B8C0CC"/>
<path d="M18.4019 43.5368C18.4019 43.2054 18.6705 42.9368 19.0019 42.9368H25.4693C25.8006 42.9368 26.0693 43.2054 26.0693 43.5368V45.4037C26.0693 45.7351 25.8006 46.0037 25.4693 46.0037H19.0019C18.6705 46.0037 18.4019 45.7351 18.4019 45.4037V43.5368Z" fill="#B8C0CC"/>
<path d="M7.66711 20.5355C7.66711 20.2042 7.93574 19.9355 8.26711 19.9355H14.7345C15.0659 19.9355 15.3345 20.2042 15.3345 20.5355V22.4025C15.3345 22.7339 15.0659 23.0025 14.7345 23.0025H8.26711C7.93574 23.0025 7.66711 22.7339 7.66711 22.4025V20.5355Z" fill="#B8C0CC"/>
<path d="M7.66711 28.2023C7.66711 27.8709 7.93574 27.6023 8.26711 27.6023H14.7345C15.0659 27.6023 15.3345 27.8709 15.3345 28.2023V30.0693C15.3345 30.4006 15.0659 30.6693 14.7345 30.6693H8.26711C7.93574 30.6693 7.66711 30.4006 7.66711 30.0693V28.2023Z" fill="#B8C0CC"/>
<path d="M7.66711 35.8703C7.66711 35.5389 7.93574 35.2703 8.26711 35.2703H14.7345C15.0659 35.2703 15.3345 35.5389 15.3345 35.8703V37.7372C15.3345 38.0686 15.0659 38.3372 14.7345 38.3372H8.26711C7.93574 38.3372 7.66711 38.0686 7.66711 37.7372V35.8703Z" fill="#B8C0CC"/>
<path d="M7.66711 43.5368C7.66711 43.2054 7.93574 42.9368 8.26711 42.9368H14.7345C15.0659 42.9368 15.3345 43.2054 15.3345 43.5368V45.4037C15.3345 45.7351 15.0659 46.0037 14.7345 46.0037H8.26711C7.93574 46.0037 7.66711 45.7351 7.66711 45.4037V43.5368Z" fill="#B8C0CC"/>
<path d="M15.926 64.2299C18.5159 51.4366 29.5455 41.8567 42.721 41.8567C55.8965 41.8567 66.926 51.4366 69.5159 64.2299C70.02 66.7198 67.9209 68.9928 65.0898 68.9928H20.3648C17.5302 68.9928 15.4225 66.7168 15.926 64.2299Z" fill="white" stroke="#B8C0CC" stroke-width="2"/>
<circle cx="42.7204" cy="30.8886" r="13.5681" fill="white" stroke="#B8C0CC" stroke-width="2"/>
<circle cx="66.2876" cy="60.9849" r="9.01515" fill="#6D57E7"/>
<path d="M66.3448 66.2013C66.551 66.2013 66.7487 66.1209 66.8945 65.9778C67.0403 65.8347 67.1222 65.6407 67.1222 65.4383V64.9756C67.7945 64.936 68.4261 64.6462 68.8881 64.1652C69.3502 63.6843 69.608 63.0484 69.6088 62.3874V62.3113C69.6077 61.6241 69.3291 60.9654 68.8341 60.4795C68.339 59.9936 67.6679 59.7201 66.9677 59.7191H65.6473C65.3724 59.6995 65.1152 59.5785 64.9275 59.3804C64.7398 59.1823 64.6355 58.9217 64.6355 58.6512C64.6355 58.3807 64.7398 58.1202 64.9275 57.9221C65.1152 57.724 65.3724 57.6029 65.6473 57.5833H67.5752C67.6888 57.5835 67.7976 57.6278 67.8779 57.7066C67.9582 57.7854 68.0034 57.8923 68.0035 58.0037V58.0218C68.002 58.2183 68.0779 58.4078 68.2152 58.5507C68.3526 58.6936 68.541 58.779 68.741 58.7889C68.9409 58.7989 69.137 58.7327 69.2885 58.6041C69.4399 58.4756 69.5349 58.2946 69.5537 58.0989V58.0871C69.5651 57.8318 69.5251 57.5768 69.436 57.3366C69.347 57.0965 69.2106 56.8759 69.0346 56.6875C68.8587 56.4991 68.6466 56.3465 68.4106 56.2386C68.1745 56.1307 67.9192 56.0695 67.6591 56.0584H67.574H67.1228V55.6009C67.1256 55.499 67.1076 55.3975 67.0698 55.3026C67.032 55.2076 66.9752 55.1211 66.9028 55.048C66.8303 54.9749 66.7438 54.9168 66.6481 54.8772C66.5524 54.8375 66.4495 54.8171 66.3457 54.8171C66.2418 54.8171 66.139 54.8375 66.0433 54.8772C65.9476 54.9168 65.861 54.9749 65.7886 55.048C65.7161 55.1211 65.6593 55.2076 65.6216 55.3026C65.5838 55.3975 65.5658 55.499 65.5686 55.6009V56.0601C65.2218 56.0651 64.8794 56.1372 64.5609 56.272C64.2424 56.4069 63.9541 56.6021 63.7125 56.8463C63.4708 57.0905 63.2806 57.3791 63.1526 57.6955C63.0245 58.0119 62.9613 58.35 62.9663 58.6904C62.9714 59.0308 63.0448 59.3669 63.1822 59.6795C63.3196 59.992 63.5184 60.275 63.7673 60.5122C64.0161 60.7494 64.3102 60.9361 64.6325 61.0618C64.9549 61.1874 65.2993 61.2496 65.6461 61.2446H66.9666C67.1099 61.2446 67.2517 61.2723 67.384 61.3261C67.5164 61.3799 67.6367 61.4587 67.738 61.5582C67.8393 61.6576 67.9196 61.7756 67.9744 61.9055C68.0293 62.0354 68.0575 62.1747 68.0575 62.3153V62.3919C68.0566 62.6753 67.9413 62.9467 67.7368 63.1468C67.5323 63.3469 67.2553 63.4592 66.9666 63.4592H65.0077C64.9515 63.4592 64.8958 63.4485 64.8438 63.4274C64.7919 63.4063 64.7446 63.3754 64.7049 63.3364C64.6651 63.2975 64.6335 63.2511 64.612 63.2002C64.5905 63.1492 64.5794 63.0945 64.5794 63.0393V63.0321V62.9532C64.5791 62.7534 64.499 62.5618 64.3563 62.4193C64.2137 62.2769 64.0199 62.1951 63.8164 62.1914C63.6129 62.1877 63.4161 62.2624 63.2682 62.3996C63.1203 62.5368 63.033 62.7254 63.0252 62.9249V63.0044C63.0204 63.2598 63.067 63.5137 63.1622 63.7515C63.2574 63.9893 63.3994 64.2063 63.5801 64.3902C63.7608 64.5741 63.9766 64.7213 64.2153 64.8233C64.4539 64.9253 64.7107 64.9801 64.971 64.9846H65.5669V65.4422C65.5671 65.6445 65.649 65.8384 65.7948 65.9814C65.9406 66.1244 66.1382 66.2047 66.3443 66.2047L66.3448 66.2013Z" fill="white"/>
</svg>
