<svg width="334" height="192" viewBox="0 0 334 192" fill="none" xmlns="http://www.w3.org/2000/svg">
<rect x="44" y="11" width="235" height="178" rx="9" fill="white" stroke="#B8C0CC" stroke-width="2"/>
<rect x="44" y="11" width="235" height="32" rx="9" stroke="#B8C0CC" stroke-width="2"/>
<rect x="241" y="1" width="6" height="18" rx="3" fill="white" stroke="#B8C0CC" stroke-width="2"/>
<rect x="251" y="1" width="6" height="18" rx="3" fill="white" stroke="#B8C0CC" stroke-width="2"/>
<rect x="66" y="1" width="6" height="18" rx="3" fill="white" stroke="#B8C0CC" stroke-width="2"/>
<rect x="76" y="1" width="6" height="18" rx="3" fill="white" stroke="#B8C0CC" stroke-width="2"/>
<rect x="242" y="103" width="18" height="14" rx="7" stroke="#D7DEE2" stroke-width="2"/>
<rect x="198" y="103" width="18" height="14" rx="7" stroke="#D7DEE2" stroke-width="2"/>
<rect x="154" y="103" width="18" height="14" rx="7" stroke="#D7DEE2" stroke-width="2"/>
<rect x="110" y="103" width="18" height="14" rx="7" stroke="#6D57E7" stroke-width="2"/>
<rect x="66" y="103" width="18" height="14" rx="7" stroke="#D7DEE2" stroke-width="2"/>
<rect x="242" y="139" width="18" height="14" rx="7" stroke="#D7DEE2" stroke-width="2"/>
<rect x="198" y="139" width="18" height="14" rx="7" fill="#6D57E7" stroke="#6D57E7" stroke-width="2"/>
<rect x="154" y="139" width="18" height="14" rx="7" stroke="#D7DEE2" stroke-width="2"/>
<rect x="110" y="139" width="18" height="14" rx="7" stroke="#D7DEE2" stroke-width="2"/>
<rect x="66" y="139" width="18" height="14" rx="7" stroke="#D7DEE2" stroke-width="2"/>
<rect x="242" y="67" width="18" height="14" rx="7" stroke="#D7DEE2" stroke-width="2"/>
<rect x="198" y="67" width="18" height="14" rx="7" fill="#6D57E7" stroke="#6D57E7" stroke-width="2"/>
<rect x="154" y="67" width="18" height="14" rx="7" stroke="#D7DEE2" stroke-width="2"/>
<rect x="110" y="67" width="18" height="14" rx="7" stroke="#D7DEE2" stroke-width="2"/>
<rect x="66" y="67" width="18" height="14" rx="7" fill="#6D57E7" stroke="#6D57E7" stroke-width="2"/>
<g clip-path="url(#clip0)">
<path d="M1.63818 175.296V159.019C1.63818 143.026 14.8435 130.089 31.1685 130.089H31.6039C47.929 130.089 61.1332 143.026 61.1332 159.019V159.446C61.1332 175.439 47.929 188.375 31.6039 188.375H9.982C2.58093 188.375 1.71108 182.548 1.63818 175.296Z" fill="white"/>
<path d="M1.56531 159.233V184.183C1.56531 186.457 3.45177 188.305 5.77365 188.305H11.3601C9.03926 188.305 7.15278 186.457 7.15278 184.183V159.162C7.15278 138.975 23.6946 130.232 35.7393 130.516C34.2154 130.303 32.6195 130.161 31.0956 130.161C14.8435 130.303 1.6382 143.24 1.56531 159.233Z" fill="#EAEFF4"/>
<path d="M0.985107 182.903V159.091C0.985107 143.098 14.1903 130.161 30.5154 130.161H30.9508C47.2758 130.161 60.4811 143.098 60.4811 159.091V159.517C60.4811 175.51 47.2758 188.447 30.9508 188.447H6.64449C3.52469 188.376 0.985107 185.959 0.985107 182.903Z" stroke="#B8C0CC" stroke-width="1.88" stroke-miterlimit="10"/>
<path d="M42 150.631C42 149.209 43.2333 148 44.6844 148C46.1354 148 47.3688 149.209 47.3688 150.631C47.3688 152.053 46.1354 153.261 44.6844 153.261C43.2333 153.261 42 152.124 42 150.631Z" fill="#B8C0CC"/>
</g>
<path d="M44.1953 179.03C44.1953 178.477 43.7476 178.03 43.1953 178.03H25.2433C24.691 178.03 24.2433 178.477 24.2433 179.03V187.943C24.2433 188.495 24.691 188.943 25.2433 188.943H43.1953C43.7476 188.943 44.1953 188.495 44.1953 187.943V179.03Z" fill="white" stroke="#6D57E7" stroke-width="2"/>
<path d="M44.1953 179.03C44.1953 178.477 43.7476 178.03 43.1953 178.03H25.2433C24.691 178.03 24.2433 178.477 24.2433 179.03V179.423C24.2433 182.185 26.4819 184.423 29.2433 184.423H39.1953C41.9567 184.423 44.1953 182.185 44.1953 179.423L44.1953 179.03Z" fill="white" stroke="#6D57E7" stroke-width="2"/>
<path d="M38 178L31 178V174L38 174V178Z" fill="white" stroke="#6D57E7" stroke-width="2"/>
<path d="M32.2821 177.021C32.7932 177.021 33.3007 176.871 33.7416 176.587C34.1824 176.304 34.5364 175.901 34.7588 175.43C34.9802 174.959 35.0615 174.44 34.9897 173.939C34.9187 173.439 34.6989 172.98 34.3576 172.619C34.0172 172.259 33.5711 172.013 33.0758 171.914C32.5806 171.814 32.0583 171.865 31.5751 172.061C31.0919 172.256 30.6697 172.587 30.3619 173.01C30.0541 173.434 29.8747 173.933 29.8458 174.443C29.8071 175.127 30.0426 175.783 30.4994 176.267C30.9562 176.75 31.5976 177.021 32.2821 177.021Z" fill="#B8C0CC"/>
<path d="M31.6367 173.156C31.6367 173.156 26.4717 167.483 29.0802 160.695" stroke="#B8C0CC" stroke-width="1.88" stroke-linecap="round" stroke-linejoin="round"/>
<g clip-path="url(#clip1)">
<path d="M331.454 172.009V150.176C331.454 128.724 313.741 111.372 291.844 111.372H291.26C269.363 111.372 251.652 128.724 251.652 150.176V150.748C251.652 172.2 269.363 189.552 291.26 189.552H320.262C330.189 189.552 331.356 181.735 331.454 172.009Z" fill="white"/>
<path d="M331.551 150.463V183.928C331.551 186.979 329.021 189.458 325.907 189.458H318.413C321.526 189.458 324.057 186.979 324.057 183.928V150.367C324.057 123.29 301.869 111.563 285.713 111.944C287.757 111.659 289.898 111.468 291.942 111.468C313.741 111.659 331.453 129.011 331.551 150.463Z" fill="#EAEFF4"/>
<path d="M332.33 182.211V150.272C332.33 128.82 314.617 111.468 292.72 111.468H292.136C270.239 111.468 252.527 128.82 252.527 150.272V150.844C252.527 172.296 270.239 189.648 292.136 189.648H324.739C328.923 189.552 332.33 186.311 332.33 182.211Z" stroke="#6D57E7" stroke-width="1.88" stroke-miterlimit="10"/>
<path d="M276.078 135.589C276.078 133.683 274.424 132.061 272.478 132.061C270.531 132.061 268.877 133.683 268.877 135.589C268.877 137.497 270.531 139.118 272.478 139.118C274.424 139.118 276.078 137.593 276.078 135.589Z" fill="#B8C0CC"/>
</g>
<g clip-path="url(#clip2)">
<path d="M222.486 144.696C223.303 144.53 224.15 144.607 224.922 144.921C225.693 145.234 226.354 145.77 226.821 146.458C227.286 147.146 227.538 147.957 227.541 148.789C227.545 149.62 227.301 150.433 226.841 151.128C226.382 151.821 225.726 152.363 224.958 152.685C224.189 153.008 223.342 153.096 222.524 152.938C221.705 152.781 220.952 152.385 220.361 151.801C219.769 151.217 219.364 150.47 219.198 149.656C218.975 148.564 219.198 147.428 219.814 146.497C220.43 145.567 221.392 144.92 222.486 144.696Z" fill="#6D57E7"/>
<path d="M223.327 148.813C223.327 148.813 249.653 172.377 283.022 156.22" stroke="#6D57E7" stroke-width="1.88" stroke-linecap="round" stroke-linejoin="round"/>
</g>
<defs>
<clipPath id="clip0">
<rect width="62.0612" height="60.9497" fill="white" transform="translate(0 129.251)"/>
</clipPath>
<clipPath id="clip1">
<rect width="83.2435" height="81.7527" fill="white" transform="matrix(-1 0 0 1 333.651 110.247)"/>
</clipPath>
<clipPath id="clip2">
<rect width="80.2174" height="30.2784" fill="white" transform="matrix(0.97977 -0.200127 0.20002 0.979792 217 144.306)"/>
</clipPath>
</defs>
</svg>
