<svg width="75" height="70" viewBox="0 0 75 70" fill="none" xmlns="http://www.w3.org/2000/svg">
<path d="M1 41.0651L7.15986 21.9011L14.6886 41.0651" stroke="#B8C0CC" stroke-width="2" stroke-linecap="round" stroke-linejoin="round"/>
<path d="M59.8608 41.0651L66.0207 21.9011L73.5494 41.0651" stroke="#B8C0CC" stroke-width="2" stroke-linecap="round" stroke-linejoin="round"/>
<path d="M7.15979 21.9019L37.2747 5.47559L66.0207 21.9019" stroke="#B8C0CC" stroke-width="2" stroke-linecap="round" stroke-linejoin="round"/>
<path d="M42.5716 6.57052C42.5716 9.64704 40.0776 12.141 37.0011 12.141C33.9245 12.141 31.4305 9.64704 31.4305 6.57052C31.4305 3.49401 33.9245 1 37.0011 1C40.0776 1 42.5716 3.49401 42.5716 6.57052Z" fill="white" stroke="#B8C0CC" stroke-width="2"/>
<path d="M13.6035 41.3816C13.1295 44.1325 10.7309 46.2259 7.84429 46.2259C4.95767 46.2259 2.55903 44.1325 2.08508 41.3816H13.6035Z" fill="#6D57E7" stroke="#6D57E7" stroke-width="2" stroke-linecap="round" stroke-linejoin="round"/>
<path d="M72.4643 41.3816C71.9904 44.1325 69.5917 46.2259 66.7051 46.2259C63.8185 46.2259 61.4199 44.1325 60.9459 41.3816H72.4643Z" fill="#6D57E7" stroke="#6D57E7" stroke-width="2" stroke-linecap="round" stroke-linejoin="round"/>
<path d="M15.7043 64.266C18.0733 53.7247 26.7885 46 37.0725 46C47.3565 46 56.0717 53.7247 58.4407 64.266C58.9919 66.7185 56.9093 69 54.0669 69H20.0759C17.2342 69 15.153 66.7191 15.7043 64.266Z" fill="white" stroke="#B8C0CC" stroke-width="2"/>
<path d="M33.4725 63.1333H29.3896L33.3318 49H40.8133L44.7554 63.1333H40.6725C39.7889 63.1333 39.0725 63.8497 39.0725 64.7333V69H35.0725V64.7333C35.0725 63.8497 34.3562 63.1333 33.4725 63.1333ZM44.897 63.6408C44.8969 63.6407 44.8969 63.6405 44.8968 63.6404L44.897 63.6408Z" fill="white" stroke="#B8C0CC" stroke-width="2"/>
<path d="M48.0152 37.2505C48.0152 43.1821 43.2066 47.9906 37.275 47.9906C31.3433 47.9906 26.5348 43.1821 26.5348 37.2505C26.5348 31.3188 31.3433 26.5103 37.275 26.5103C43.2066 26.5103 48.0152 31.3188 48.0152 37.2505Z" fill="white" stroke="#B8C0CC" stroke-width="2"/>
</svg>
