<svg width="144" height="126" viewBox="0 0 144 126" fill="none" xmlns="http://www.w3.org/2000/svg">
<path d="M52.86 105.72C82.0538 105.72 105.72 82.0538 105.72 52.86C105.72 23.6662 82.0538 0 52.86 0C23.6662 0 0 23.6662 0 52.86C0 82.0538 23.6662 105.72 52.86 105.72Z" fill="#F0F4F7"/>
<rect x="26" y="34" width="94" height="71" rx="5" fill="white" stroke="#B8C0CC" stroke-width="2"/>
<rect x="36" y="48" width="13.3571" height="13.3571" rx="2" fill="#B8C0CC"/>
<rect x="55.4286" y="48" width="13.3571" height="13.3571" rx="2" fill="#B8C0CC"/>
<rect x="74.8572" y="48" width="13.3571" height="13.3571" rx="2" fill="#B8C0CC"/>
<rect x="94.2858" y="48" width="13.3571" height="13.3571" rx="2" fill="#B8C0CC"/>
<rect x="36" y="68.6428" width="13.3571" height="13.3571" rx="2" fill="#B8C0CC"/>
<rect x="55.4286" y="68.6428" width="13.3571" height="13.3571" rx="2" fill="#B8C0CC"/>
<rect x="75.8572" y="69.6428" width="11.3571" height="11.3571" rx="1" fill="white" stroke="#6D57E7" stroke-width="2"/>
<rect x="94.2858" y="68.6428" width="13.3571" height="13.3571" rx="2" fill="#B8C0CC"/>
<path d="M43 25V39.219" stroke="#B8C0CC" stroke-width="2" stroke-miterlimit="10" stroke-linecap="round"/>
<path d="M62.644 25V39.219" stroke="#B8C0CC" stroke-width="2" stroke-miterlimit="10" stroke-linecap="round"/>
<path d="M82.644 25V39.219" stroke="#B8C0CC" stroke-width="2" stroke-miterlimit="10" stroke-linecap="round"/>
<path d="M102.644 25V39.219" stroke="#B8C0CC" stroke-width="2" stroke-miterlimit="10" stroke-linecap="round"/>
<path d="M120.5 123C131.739 123 141 114.127 141 103C141 91.8729 131.739 83 120.5 83C109.261 83 100 91.8729 100 103C100 114.127 109.261 123 120.5 123Z" fill="white" stroke="white" stroke-width="6"/>
<path d="M137 103C137 111.809 129.64 119 120.5 119C111.36 119 104 111.809 104 103C104 94.1906 111.36 87 120.5 87C129.64 87 137 94.1906 137 103Z" fill="white" stroke="#6D57E7" stroke-width="2"/>
<path d="M120.5 95V104L115 112" stroke="#6D57E7" stroke-width="2" stroke-linecap="round" stroke-linejoin="round"/>
</svg>
