<svg width="390" height="299" viewBox="0 0 390 299" fill="none" xmlns="http://www.w3.org/2000/svg">
<rect x="64.1775" y="1" width="267.346" height="260" rx="11" fill="white" stroke="#D7DEE2" stroke-width="2"/>
<rect x="239.782" y="219.278" width="14.6102" height="14.2774" rx="1" stroke="#D7DEE2" stroke-width="2"/>
<rect x="192.574" y="219.278" width="14.6102" height="14.2774" rx="7.13872" stroke="#D7DEE2" stroke-width="2"/>
<path d="M152.883 234.33L143.126 226.496L152.883 218.662L152.883 234.33Z" stroke="#D7DEE2" stroke-width="2"/>
<rect x="118.271" y="144.468" width="160.383" height="3.6729" rx="1.83645" fill="#F0F4F7"/>
<rect x="118.271" y="156.71" width="160.383" height="3.6729" rx="1.83645" fill="#F0F4F7"/>
<rect x="151.327" y="30.6074" width="97.9439" height="3.6729" rx="1.83645" fill="#F0F4F7"/>
<rect x="151.327" y="42.8506" width="73.4579" height="3.6729" rx="1.83645" fill="#F0F4F7"/>
<path d="M125.841 39.1777C125.841 46.7393 119.711 52.8693 112.15 52.8693C104.588 52.8693 98.458 46.7393 98.458 39.1777C98.458 31.616 104.588 25.4861 112.15 25.4861C119.711 25.4861 125.841 31.616 125.841 39.1777Z" stroke="#B8C0CC" stroke-width="2"/>
<path d="M294.8 42.0849C293.666 42.0849 292.666 42.6428 292.039 43.4911L286.612 40.7123C286.702 40.4052 286.765 40.0869 286.765 39.7511C286.765 39.2956 286.672 38.8625 286.51 38.4642L292.19 35.0466C292.822 35.7883 293.751 36.2695 294.8 36.2695C296.698 36.2695 298.243 34.7249 298.243 32.8262C298.243 30.9274 296.698 29.3828 294.8 29.3828C292.901 29.3828 291.356 30.9274 291.356 32.8262C291.356 33.2637 291.446 33.6788 291.596 34.0641L285.9 37.4918C285.268 36.7721 284.352 36.3078 283.322 36.3078C281.423 36.3078 279.879 37.8523 279.879 39.7511C279.879 41.6499 281.423 43.1944 283.322 43.1944C284.475 43.1944 285.491 42.6202 286.116 41.748L291.525 44.5178C291.425 44.8394 291.356 45.1744 291.356 45.5283C291.356 47.427 292.901 48.9716 294.8 48.9716C296.698 48.9716 298.243 47.427 298.243 45.5283C298.243 43.6295 296.698 42.0849 294.8 42.0849Z" stroke="#B8C0CC" stroke-width="2"/>
<path d="M142.757 203.233C150.871 203.233 157.449 196.381 157.449 187.929C157.449 179.477 150.871 172.626 142.757 172.626C134.643 172.626 128.066 179.477 128.066 187.929C128.066 196.381 134.643 203.233 142.757 203.233Z" fill="#F0F4F7"/>
<path d="M198.463 203.233C206.915 203.233 213.767 196.381 213.767 187.929C213.767 179.477 206.915 172.626 198.463 172.626C190.011 172.626 183.159 179.477 183.159 187.929C183.159 196.381 190.011 203.233 198.463 203.233Z" fill="#F0F4F7"/>
<path d="M254.168 203.233C262.282 203.233 268.86 196.381 268.86 187.929C268.86 179.477 262.282 172.626 254.168 172.626C246.054 172.626 239.477 179.477 239.477 187.929C239.477 196.381 246.054 203.233 254.168 203.233Z" fill="#F0F4F7"/>
<rect x="88.6635" y="79.355" width="218.374" height="39.6262" rx="17" stroke="#E4E5E6" stroke-width="2"/>
<path d="M129.563 89.8521C129.862 88.9308 131.166 88.9308 131.465 89.8521L133.038 94.6938C133.172 95.1058 133.556 95.3847 133.989 95.3847H139.08C140.049 95.3847 140.452 96.6244 139.668 97.1938L135.549 100.186C135.199 100.441 135.052 100.892 135.186 101.304L136.759 106.146C137.059 107.067 136.004 107.833 135.22 107.264L131.102 104.271C130.751 104.017 130.277 104.017 129.926 104.271L125.808 107.264C125.024 107.833 123.969 107.067 124.269 106.146L125.842 101.304C125.976 100.892 125.829 100.441 125.479 100.186L121.36 97.1938C120.576 96.6244 120.979 95.3847 121.948 95.3847H127.039C127.472 95.3847 127.856 95.1058 127.99 94.6938L129.563 89.8521Z" fill="#6D57E7"/>
<path d="M165.067 87.4034C165.367 86.4821 166.67 86.4821 166.97 87.4034L169.092 93.937C169.226 94.349 169.61 94.628 170.044 94.628H176.913C177.882 94.628 178.285 95.8676 177.501 96.437L171.943 100.475C171.593 100.73 171.446 101.181 171.58 101.593L173.703 108.127C174.002 109.048 172.948 109.814 172.164 109.245L166.606 105.207C166.256 104.952 165.781 104.952 165.431 105.207L159.873 109.245C159.089 109.814 158.035 109.048 158.334 108.127L160.457 101.593C160.591 101.181 160.444 100.73 160.094 100.475L154.536 96.437C153.752 95.8676 154.155 94.628 155.124 94.628H161.993C162.427 94.628 162.811 94.349 162.945 93.937L165.067 87.4034Z" fill="#6D57E7"/>
<path d="M200.572 86.1797C200.872 85.2584 202.175 85.2584 202.474 86.1797L204.872 93.5593C205.006 93.9713 205.39 94.2503 205.823 94.2503H213.583C214.551 94.2503 214.954 95.4899 214.17 96.0593L207.893 100.62C207.543 100.875 207.396 101.326 207.53 101.738L209.927 109.118C210.227 110.039 209.172 110.805 208.389 110.236L202.111 105.675C201.761 105.42 201.286 105.42 200.936 105.675L194.658 110.236C193.874 110.805 192.82 110.039 193.119 109.118L195.517 101.738C195.651 101.326 195.504 100.875 195.154 100.62L188.876 96.0593C188.093 95.4899 188.495 94.2503 189.464 94.2503H197.224C197.657 94.2503 198.041 93.9713 198.175 93.5593L200.572 86.1797Z" fill="#6D57E7"/>
<path d="M232.404 87.4034C232.703 86.4821 234.007 86.4821 234.306 87.4034L236.429 93.937C236.563 94.349 236.947 94.628 237.38 94.628H244.25C245.219 94.628 245.621 95.8676 244.838 96.437L239.28 100.475C238.929 100.73 238.783 101.181 238.917 101.593L241.039 108.127C241.339 109.048 240.284 109.814 239.501 109.245L233.943 105.207C233.592 104.952 233.118 104.952 232.767 105.207L227.209 109.245C226.426 109.814 225.371 109.048 225.671 108.127L227.793 101.593C227.927 101.181 227.781 100.73 227.43 100.475L221.872 96.437C221.089 95.8676 221.491 94.628 222.46 94.628H229.33C229.763 94.628 230.147 94.349 230.281 93.937L232.404 87.4034Z" fill="#6D57E7"/>
<path d="M264.236 89.8521C264.535 88.9308 265.839 88.9308 266.138 89.8521L267.711 94.6938C267.845 95.1058 268.229 95.3847 268.662 95.3847H273.753C274.722 95.3847 275.125 96.6244 274.341 97.1938L270.222 100.186C269.872 100.441 269.725 100.892 269.859 101.304L271.432 106.146C271.732 107.067 270.677 107.833 269.893 107.264L265.775 104.271C265.424 104.017 264.95 104.017 264.599 104.271L260.481 107.264C259.697 107.833 258.643 107.067 258.942 106.146L260.515 101.304C260.649 100.892 260.502 100.441 260.152 100.186L256.033 97.1938C255.249 96.6244 255.652 95.3847 256.621 95.3847H261.712C262.145 95.3847 262.529 95.1058 262.663 94.6938L264.236 89.8521Z" fill="#6D57E7"/>
<g filter="url(#filter0_d)">
<circle cx="63.1776" cy="159.159" r="39.1776" fill="white"/>
</g>
<path d="M44.5887 143.122C44.5887 140.36 46.8273 138.122 49.5887 138.122H77.9906C80.752 138.122 82.9906 140.36 82.9906 143.122V172.251C82.9906 175.012 80.752 177.251 77.9906 177.251H63.7897H56.4075C54.3919 177.251 52.4741 178.12 51.145 179.635L46.3405 185.113C45.7321 185.806 44.5887 185.376 44.5887 184.453V178.251V143.122Z" fill="white" stroke="#D7DEE2" stroke-width="2"/>
<path d="M52.1589 149.365H76.6449" stroke="#6D57E7" stroke-width="2" stroke-linecap="round"/>
<path d="M52.1589 156.711H76.6449" stroke="#6D57E7" stroke-width="2" stroke-linecap="round"/>
<path d="M52.1589 164.056H64.4019" stroke="#6D57E7" stroke-width="2" stroke-linecap="round"/>
<g filter="url(#filter1_d)">
<circle cx="330.075" cy="226.495" r="35.5047" fill="white"/>
</g>
<path d="M323.419 221.358L323.424 221.353L323.429 221.348L332.988 211.518C333.38 211.116 334.025 211.114 334.418 211.514L334.751 211.852C334.751 211.853 334.752 211.853 334.752 211.854C335.017 212.127 335.191 212.513 335.201 212.931L335.161 213.375L334.071 218.758C333.695 220.616 335.115 222.353 337.011 222.353H345.1C346.36 222.353 347.439 223.423 347.439 224.781V228.209C347.439 228.52 347.383 228.806 347.276 229.091L342.241 241.159L342.241 241.159L342.237 241.168C341.881 242.045 341.05 242.635 340.092 242.635H325.066C323.807 242.635 322.727 241.565 322.727 240.207V223.067C322.727 222.388 322.99 221.786 323.419 221.358ZM313.71 242.635C313.158 242.635 312.71 242.188 312.71 241.635V225.067C312.71 224.515 313.158 224.067 313.71 224.067H316.388C316.94 224.067 317.388 224.515 317.388 225.067V241.635C317.388 242.188 316.94 242.635 316.388 242.635H313.71Z" stroke="#6D57E7" stroke-width="2"/>
<defs>
<filter id="filter0_d" x="0" y="108.982" width="126.355" height="126.355" filterUnits="userSpaceOnUse" color-interpolation-filters="sRGB">
<feFlood flood-opacity="0" result="BackgroundImageFix"/>
<feColorMatrix in="SourceAlpha" type="matrix" values="0 0 0 0 0 0 0 0 0 0 0 0 0 0 0 0 0 0 127 0"/>
<feOffset dy="13"/>
<feGaussianBlur stdDeviation="12"/>
<feColorMatrix type="matrix" values="0 0 0 0 0.427451 0 0 0 0 0.341176 0 0 0 0 0.905882 0 0 0 0.2 0"/>
<feBlend mode="normal" in2="BackgroundImageFix" result="effect1_dropShadow"/>
<feBlend mode="normal" in="SourceGraphic" in2="effect1_dropShadow" result="shape"/>
</filter>
<filter id="filter1_d" x="270.57" y="179.99" width="119.009" height="119.009" filterUnits="userSpaceOnUse" color-interpolation-filters="sRGB">
<feFlood flood-opacity="0" result="BackgroundImageFix"/>
<feColorMatrix in="SourceAlpha" type="matrix" values="0 0 0 0 0 0 0 0 0 0 0 0 0 0 0 0 0 0 127 0"/>
<feOffset dy="13"/>
<feGaussianBlur stdDeviation="12"/>
<feColorMatrix type="matrix" values="0 0 0 0 0.427451 0 0 0 0 0.341176 0 0 0 0 0.905882 0 0 0 0.2 0"/>
<feBlend mode="normal" in2="BackgroundImageFix" result="effect1_dropShadow"/>
<feBlend mode="normal" in="SourceGraphic" in2="effect1_dropShadow" result="shape"/>
</filter>
</defs>
</svg>
