<svg width="211" height="358" viewBox="0 0 211 358" fill="none" xmlns="http://www.w3.org/2000/svg">
<rect x="59.0002" y="56.9999" width="151" height="300" rx="11" fill="white" stroke="#D7DEE2" stroke-width="2"/>
<rect x="168.233" y="331.352" width="11.533" height="11.4695" rx="1" stroke="#D7DEE2" stroke-width="2"/>
<rect x="129.771" y="331.352" width="11.533" height="11.4695" rx="5.73474" stroke="#D7DEE2" stroke-width="2"/>
<path d="M97.0684 343.257L89.5817 337.152L97.0684 331.046L97.0684 343.257Z" stroke="#D7DEE2" stroke-width="2"/>
<rect x="68.0002" y="217.783" width="133" height="21" rx="6" fill="#F0F4F7"/>
<rect x="68.0002" y="133.783" width="133" height="21" rx="6" fill="#F0F4F7"/>
<rect x="116" y="81" width="85" height="5" rx="2.5" fill="#F0F4F7"/>
<rect x="116" y="91" width="85" height="5" rx="2.5" fill="#F0F4F7"/>
<rect x="116" y="101" width="51" height="5" rx="2.5" fill="#F0F4F7"/>
<rect x="68.0005" y="259.498" width="38.6129" height="38.2817" rx="6" fill="#F0F4F7"/>
<rect x="115.194" y="259.498" width="38.6129" height="38.2817" rx="6" fill="#F0F4F7"/>
<rect x="162.387" y="259.498" width="38.6129" height="38.2817" rx="6" fill="#F0F4F7"/>
<path d="M60.0005 320.783H210" stroke="#D7DEE2" stroke-width="2"/>
<path d="M78.6845 196.784C84.585 196.784 89.3684 192.023 89.3684 186.15C89.3684 180.277 84.585 175.516 78.6845 175.516C72.7839 175.516 68.0005 180.277 68.0005 186.15C68.0005 192.023 72.7839 196.784 78.6845 196.784Z" fill="#F0F4F7"/>
<rect x="98" y="176" width="67" height="20" rx="6" fill="#6D57E7"/>
<path d="M112.252 185.35C112.659 185.47 112.972 185.68 113.192 185.98C113.419 186.273 113.532 186.637 113.532 187.07C113.532 187.663 113.312 188.133 112.872 188.48C112.439 188.827 111.839 189 111.072 189H108.452C108.219 189 108.039 188.937 107.912 188.81C107.786 188.683 107.722 188.503 107.722 188.27V182.68C107.722 182.447 107.786 182.267 107.912 182.14C108.039 182.013 108.219 181.95 108.452 181.95H110.972C111.706 181.95 112.286 182.113 112.712 182.44C113.146 182.767 113.362 183.213 113.362 183.78C113.362 184.147 113.262 184.47 113.062 184.75C112.869 185.023 112.599 185.223 112.252 185.35ZM109.242 184.82H110.712C111.112 184.82 111.406 184.753 111.592 184.62C111.786 184.48 111.882 184.27 111.882 183.99C111.882 183.697 111.786 183.483 111.592 183.35C111.406 183.21 111.112 183.14 110.712 183.14H109.242V184.82ZM110.892 187.81C111.306 187.81 111.606 187.74 111.792 187.6C111.979 187.46 112.072 187.233 112.072 186.92C112.072 186.607 111.979 186.377 111.792 186.23C111.606 186.083 111.306 186.01 110.892 186.01H109.242V187.81H110.892ZM116.857 189.08C116.337 189.08 115.88 188.977 115.487 188.77C115.094 188.557 114.79 188.26 114.577 187.88C114.364 187.493 114.257 187.04 114.257 186.52C114.257 186 114.364 185.55 114.577 185.17C114.79 184.783 115.094 184.487 115.487 184.28C115.88 184.073 116.337 183.97 116.857 183.97C117.377 183.97 117.834 184.073 118.227 184.28C118.62 184.487 118.924 184.783 119.137 185.17C119.35 185.55 119.457 186 119.457 186.52C119.457 187.04 119.35 187.493 119.137 187.88C118.924 188.26 118.62 188.557 118.227 188.77C117.834 188.977 117.377 189.08 116.857 189.08ZM116.857 187.93C117.59 187.93 117.957 187.46 117.957 186.52C117.957 186.047 117.86 185.693 117.667 185.46C117.48 185.227 117.21 185.11 116.857 185.11C116.124 185.11 115.757 185.58 115.757 186.52C115.757 187.46 116.124 187.93 116.857 187.93ZM122.736 189.08C122.216 189.08 121.759 188.977 121.366 188.77C120.973 188.557 120.669 188.26 120.456 187.88C120.243 187.493 120.136 187.04 120.136 186.52C120.136 186 120.243 185.55 120.456 185.17C120.669 184.783 120.973 184.487 121.366 184.28C121.759 184.073 122.216 183.97 122.736 183.97C123.256 183.97 123.713 184.073 124.106 184.28C124.499 184.487 124.803 184.783 125.016 185.17C125.229 185.55 125.336 186 125.336 186.52C125.336 187.04 125.229 187.493 125.016 187.88C124.803 188.26 124.499 188.557 124.106 188.77C123.713 188.977 123.256 189.08 122.736 189.08ZM122.736 187.93C123.469 187.93 123.836 187.46 123.836 186.52C123.836 186.047 123.739 185.693 123.546 185.46C123.359 185.227 123.089 185.11 122.736 185.11C122.003 185.11 121.636 185.58 121.636 186.52C121.636 187.46 122.003 187.93 122.736 187.93ZM130.885 187.83C131.038 187.977 131.115 188.143 131.115 188.33C131.115 188.517 131.045 188.683 130.905 188.83C130.771 188.977 130.615 189.05 130.435 189.05C130.261 189.05 130.101 188.98 129.955 188.84L127.765 186.81V188.34C127.765 188.573 127.691 188.75 127.545 188.87C127.405 188.99 127.228 189.05 127.015 189.05C126.795 189.05 126.611 188.99 126.465 188.87C126.325 188.75 126.255 188.573 126.255 188.34V182.61C126.255 182.377 126.325 182.2 126.465 182.08C126.611 181.96 126.795 181.9 127.015 181.9C127.228 181.9 127.405 181.96 127.545 182.08C127.691 182.2 127.765 182.377 127.765 182.61V186.19L129.765 184.22C129.911 184.073 130.075 184 130.255 184C130.441 184 130.605 184.07 130.745 184.21C130.885 184.343 130.955 184.503 130.955 184.69C130.955 184.863 130.878 185.027 130.725 185.18L129.395 186.45L130.885 187.83ZM140.124 181.9C140.344 181.9 140.521 181.973 140.654 182.12C140.794 182.26 140.864 182.443 140.864 182.67V188.28C140.864 188.513 140.794 188.703 140.654 188.85C140.521 188.99 140.344 189.06 140.124 189.06C139.884 189.06 139.691 188.973 139.544 188.8L136.194 184.51V188.28C136.194 188.513 136.127 188.703 135.994 188.85C135.867 188.99 135.694 189.06 135.474 189.06C135.254 189.06 135.077 188.99 134.944 188.85C134.811 188.703 134.744 188.513 134.744 188.28V182.67C134.744 182.443 134.811 182.26 134.944 182.12C135.084 181.973 135.264 181.9 135.484 181.9C135.731 181.9 135.921 181.987 136.054 182.16L139.404 186.42V182.67C139.404 182.443 139.471 182.26 139.604 182.12C139.737 181.973 139.911 181.9 140.124 181.9ZM144.503 189.08C143.983 189.08 143.527 188.977 143.133 188.77C142.74 188.557 142.437 188.26 142.223 187.88C142.01 187.493 141.903 187.04 141.903 186.52C141.903 186 142.01 185.55 142.223 185.17C142.437 184.783 142.74 184.487 143.133 184.28C143.527 184.073 143.983 183.97 144.503 183.97C145.023 183.97 145.48 184.073 145.873 184.28C146.267 184.487 146.57 184.783 146.783 185.17C146.997 185.55 147.103 186 147.103 186.52C147.103 187.04 146.997 187.493 146.783 187.88C146.57 188.26 146.267 188.557 145.873 188.77C145.48 188.977 145.023 189.08 144.503 189.08ZM144.503 187.93C145.237 187.93 145.603 187.46 145.603 186.52C145.603 186.047 145.507 185.693 145.313 185.46C145.127 185.227 144.857 185.11 144.503 185.11C143.77 185.11 143.403 185.58 143.403 186.52C143.403 187.46 143.77 187.93 144.503 187.93ZM154.525 184.43C154.585 184.29 154.668 184.183 154.775 184.11C154.881 184.037 154.995 184 155.115 184C155.301 184 155.468 184.063 155.615 184.19C155.761 184.317 155.835 184.473 155.835 184.66C155.835 184.74 155.815 184.83 155.775 184.93L154.135 188.61C154.075 188.757 153.978 188.87 153.845 188.95C153.711 189.023 153.571 189.06 153.425 189.06C153.271 189.06 153.128 189.023 152.995 188.95C152.868 188.87 152.775 188.757 152.715 188.61L151.645 186.12L150.615 188.61C150.555 188.757 150.461 188.87 150.335 188.95C150.208 189.023 150.065 189.06 149.905 189.06C149.751 189.06 149.608 189.023 149.475 188.95C149.341 188.87 149.245 188.757 149.185 188.61L147.555 184.93C147.515 184.837 147.495 184.747 147.495 184.66C147.495 184.473 147.571 184.317 147.725 184.19C147.885 184.063 148.065 184 148.265 184C148.398 184 148.518 184.037 148.625 184.11C148.738 184.183 148.825 184.29 148.885 184.43L149.955 187.12L151.045 184.45C151.105 184.31 151.191 184.203 151.305 184.13C151.425 184.05 151.555 184.01 151.695 184.01C151.835 184.01 151.965 184.047 152.085 184.12C152.205 184.193 152.295 184.303 152.355 184.45L153.465 187.12L154.525 184.43Z" fill="white"/>
<rect x="174.127" y="176.516" width="25.7783" height="19.2676" rx="9.6338" stroke="#6D57E7" stroke-width="2"/>
<path d="M185.673 188.589C185.473 188.816 185.12 188.816 184.92 188.589L183.112 186.523C182.838 186.209 182.351 186.209 182.076 186.521C181.846 186.781 181.846 187.171 182.074 187.431L184.92 190.683C185.119 190.91 185.473 190.91 185.673 190.683L192.675 182.684C192.902 182.425 192.902 182.038 192.675 181.778C192.401 181.466 191.914 181.466 191.64 181.778L185.673 188.589Z" fill="#6D57E7" stroke="#6D57E7"/>
<path d="M102.614 93.723C102.614 102.954 95.0936 110.446 85.8071 110.446C76.5206 110.446 69.0005 102.954 69.0005 93.723C69.0005 84.4916 76.5206 77 85.8071 77C95.0936 77 102.614 84.4916 102.614 93.723Z" stroke="#B8C0CC" stroke-width="2"/>
<path d="M51.8221 33.4509C51.8221 32.2945 51.5552 31.0491 51.1104 29.9816C50.7546 29.0031 50.2209 28.1135 49.4202 27.4018C48.7086 26.6902 47.819 26.0675 46.8405 25.7117C45.684 25.2669 44.5276 25.089 43.3712 25.089C41.8589 25 41.3252 25 37.411 25C33.4969 25 33.0521 25 31.4509 25.089C30.2945 25.089 29.0491 25.3558 27.9816 25.8006C27.0031 26.1564 26.1135 26.6902 25.4018 27.4908C24.6902 28.2025 24.0675 29.092 23.7117 30.0706C23.2669 31.227 23.089 32.3834 23.089 33.5399C23 35.0522 23 35.5859 23 39.5C23 43.4141 23 43.8589 23.089 45.4601C23.089 46.6166 23.3558 47.862 23.8006 48.9294C24.1564 49.908 24.6902 50.7975 25.4908 51.5092C26.2025 52.2209 27.092 52.8436 28.0706 53.1994C29.227 53.6442 30.3834 53.8221 31.5399 53.911C33.0522 54 33.5859 54 37.5 54C41.4141 54 41.8589 54 43.4601 53.911C44.6166 53.911 45.862 53.6442 46.9294 53.1994C47.908 52.8436 48.7086 52.3098 49.5092 51.5092C50.3098 50.7086 50.7546 49.908 51.1994 48.9294C51.6442 47.773 51.8221 46.6166 51.911 45.4601C52 43.9478 52 43.4141 52 39.5C52 35.5859 51.911 35.0521 51.8221 33.4509ZM49.2423 45.1933C49.2423 46.0828 49.0644 46.9724 48.7086 47.862C48.4417 48.4847 48.0859 49.0184 47.6411 49.5521C47.1963 49.9969 46.5736 50.3528 45.9509 50.6196C45.0613 50.9755 44.1718 51.0644 43.2822 51.1534C41.7699 51.2423 41.3252 51.2423 37.5 51.2423C33.6748 51.2423 33.2301 51.2423 31.7178 51.1534C30.8282 51.1534 29.9387 50.9755 29.0491 50.6196C28.4264 50.3528 27.8926 49.9969 27.3589 49.5521C26.9141 49.1074 26.5583 48.4847 26.2914 47.862C25.9356 46.9724 25.8466 46.0828 25.7577 45.1933C25.6687 43.681 25.6687 43.2362 25.6687 39.411C25.6687 35.5859 25.6687 35.1411 25.7577 33.6288C25.7577 32.7393 25.9356 31.8497 26.2914 30.9601C26.5583 30.3374 26.9141 29.8037 27.3589 29.2699C27.8037 28.8252 28.4264 28.4693 29.0491 28.2025C29.9387 27.8466 30.8282 27.7577 31.7178 27.6687C33.2301 27.5798 33.6748 27.5798 37.5 27.5798C41.3252 27.5798 41.7699 27.5798 43.2822 27.6687C44.1718 27.6687 45.0613 27.8466 45.9509 28.2025C46.5736 28.4693 47.1074 28.8252 47.6411 29.2699C48.0859 29.7147 48.4417 30.3374 48.7086 30.9601C49.0644 31.8497 49.1534 32.7393 49.2423 33.6288C49.3313 35.1411 49.3313 35.5859 49.3313 39.411C49.3313 43.2362 49.3313 43.681 49.2423 45.1933Z" fill="url(#paint0_linear)"/>
<path d="M38.1935 32.5652C36.7296 32.5652 35.2658 33.0221 33.9849 33.8444C32.7041 34.6668 31.7892 35.8546 31.1487 37.2251C30.5998 38.5957 30.4168 40.149 30.6913 41.6109C30.9658 43.0728 31.6977 44.4434 32.7955 45.4485C33.8934 46.5449 35.1743 47.2759 36.6381 47.55C38.102 47.8241 39.6573 47.7327 41.0296 47.0931C42.402 46.5449 43.5914 45.5398 44.4148 44.2607C45.2382 42.9815 45.6956 41.5195 45.6956 40.0576C45.6956 38.0475 44.8722 36.1287 43.4999 34.6668C42.1275 33.3876 40.2062 32.5652 38.1935 32.5652ZM38.1935 45.083C37.1871 45.083 36.2722 44.8089 35.4488 44.2607C34.6253 43.7124 33.9849 42.9815 33.619 42.0678C33.253 41.1541 33.1615 40.149 33.3445 39.2353C33.5275 38.3216 33.9849 37.4079 34.7168 36.6769C35.4488 35.9459 36.2722 35.4891 37.2786 35.3064C38.1934 35.1236 39.1998 35.215 40.1147 35.5805C41.0296 35.946 41.7616 36.5855 42.3105 37.4079C42.8594 38.2302 43.1339 39.1439 43.1339 40.149C43.1339 40.7886 43.0424 41.4282 42.7679 42.0678C42.4935 42.7074 42.1275 43.1642 41.6701 43.6211C41.2126 44.0779 40.6637 44.4434 40.1147 44.7175C39.4743 44.9002 38.8339 45.083 38.1935 45.083Z" fill="url(#paint1_linear)"/>
<path d="M46.9566 31.2907C46.9566 31.5533 46.8902 31.8159 46.7575 32.0128C46.6247 32.2098 46.4257 32.4067 46.1602 32.4724C45.8948 32.538 45.6957 32.6037 45.4302 32.538C45.1648 32.4724 44.9657 32.3411 44.7666 32.2098C44.5675 32.0128 44.4348 31.8159 44.4348 31.5533C44.4348 31.2907 44.4348 31.0281 44.5012 30.8312C44.5675 30.5686 44.7666 30.3717 44.9657 30.2404C45.1648 30.1091 45.4302 30.0435 45.6957 30.0435C46.0275 30.0435 46.3593 30.1747 46.6247 30.4373C46.8238 30.6343 46.9566 30.9625 46.9566 31.2907Z" fill="url(#paint2_linear)"/>
<path d="M7.40758 99.1041L6.24412 103.427L1.9917 103.517C0.720847 101.171 0 98.4863 0 95.6339C0 92.8756 0.673974 90.2745 1.86864 87.9841H1.86955L5.6554 88.675L7.31384 92.4204C6.96673 93.4276 6.77754 94.5088 6.77754 95.6339C6.77767 96.8549 6.99989 98.0248 7.40758 99.1041Z" fill="#FBBB00"/>
<path d="M33.1323 92.5264C33.3242 93.5326 33.4243 94.5717 33.4243 95.6338C33.4243 96.8246 33.2985 97.9863 33.0589 99.1068C32.2453 102.92 30.1195 106.249 27.1747 108.605L27.1738 108.604L22.4053 108.362L21.7304 104.169C23.6845 103.029 25.2116 101.244 26.016 99.1068H17.0795V92.5264H26.1463H33.1323Z" fill="#518EF8"/>
<path d="M27.1735 108.604L27.1744 108.605C24.3104 110.897 20.6722 112.268 16.7118 112.268C10.3473 112.268 4.81395 108.727 1.99121 103.517L7.40709 99.104C8.81843 102.853 12.452 105.522 16.7118 105.522C18.5428 105.522 20.2581 105.029 21.73 104.169L27.1735 108.604Z" fill="#28B446"/>
<path d="M27.3793 82.8294L21.9652 87.241C20.4419 86.2933 18.6411 85.7458 16.7119 85.7458C12.3557 85.7458 8.65418 88.537 7.31355 92.4204L1.8692 87.9841H1.86829C4.6497 82.6466 10.2529 79 16.7119 79C20.7669 79 24.4849 80.4377 27.3793 82.8294Z" fill="#F14336"/>
<path d="M93.7123 33.2676C102.942 33.2676 110.425 25.8204 110.425 16.6338C110.425 7.44721 102.942 0 93.7123 0C84.4823 0 77 7.44721 77 16.6338C77 25.8204 84.4823 33.2676 93.7123 33.2676Z" fill="#1976D2"/>
<path d="M102.626 18.9369H98.1689V15.3542C98.1689 14.3654 98.9676 14.4586 99.9516 14.4586H101.734V9.98022H98.1689C95.2151 9.98022 92.821 12.386 92.821 15.3542V18.9369H89.2557V23.4152H92.821V33.2675H98.1689V23.4152H100.843L102.626 18.9369Z" fill="#FAFAFA"/>
<defs>
<linearGradient id="paint0_linear" x1="25.5871" y1="51.3576" x2="49.5036" y2="27.4417" gradientUnits="userSpaceOnUse">
<stop stop-color="#FFD600"/>
<stop offset="0.5" stop-color="#FF0100"/>
<stop offset="1" stop-color="#D800B9"/>
</linearGradient>
<linearGradient id="paint1_linear" x1="32.7808" y1="45.4973" x2="43.5127" y2="34.7512" gradientUnits="userSpaceOnUse">
<stop stop-color="#FF6400"/>
<stop offset="0.5" stop-color="#FF0100"/>
<stop offset="1" stop-color="#FD0056"/>
</linearGradient>
<linearGradient id="paint2_linear" x1="44.7699" y1="32.1679" x2="46.5717" y2="30.3463" gradientUnits="userSpaceOnUse">
<stop stop-color="#F30072"/>
<stop offset="1" stop-color="#E50097"/>
</linearGradient>
</defs>
</svg>
