<svg width="69" height="71" viewBox="0 0 69 71" fill="none" xmlns="http://www.w3.org/2000/svg">
<path d="M33.0756 33.4119H35.6303C53.3451 33.4119 67.7059 47.7726 67.7059 65.4875C67.7059 67.9797 65.6855 70.0001 63.1933 70.0001H5.51261C3.02037 70.0001 1 67.9797 1 65.4875C1 47.7726 15.3608 33.4119 33.0756 33.4119Z" fill="white" stroke="#B8C0CC" stroke-width="2" stroke-linecap="round"/>
<path d="M39.5295 63.6637L34.353 33.4119L29.1765 63.6637L34.353 67.2354L39.5295 63.6637Z" stroke="#6D57E7" stroke-width="2" stroke-linecap="round" stroke-linejoin="round"/>
<circle cx="34.3529" cy="21.2353" r="16.4118" fill="white" stroke="#B8C0CC" stroke-width="2"/>
<path d="M54.5882 23.5881V23.5881C54.5882 28.7861 50.3744 32.9999 45.1764 32.9999H34.8235" stroke="#B8C0CC" stroke-width="2" stroke-linecap="round"/>
<path d="M54.7756 21.4097C54.7756 10.1377 45.6156 1 34.3161 1C23.0167 1 13.8567 10.1377 13.8567 21.4097" stroke="#B8C0CC" stroke-width="2"/>
<path d="M10.1641 24.125C9.88258 21.3977 11.5441 18.9145 14.0354 18.0499C14.0104 18.2493 13.9858 18.4656 13.9628 18.6971C13.834 19.9936 13.7542 21.7816 13.9559 23.7354C14.1576 25.6893 14.601 27.4235 14.992 28.6666C15.0619 28.8886 15.1302 29.0954 15.1953 29.2855C12.5797 28.9456 10.4457 26.8523 10.1641 24.125Z" fill="#6D57E7" stroke="#6D57E7" stroke-width="2"/>
<path d="M58.4115 24.2436C58.7465 21.5223 57.134 19.0072 54.6601 18.0941C54.6811 18.294 54.7015 18.5108 54.72 18.7427C54.8234 20.0414 54.8681 21.8306 54.6282 23.7802C54.3882 25.7297 53.9109 27.455 53.4956 28.6902C53.4214 28.9108 53.3491 29.1162 53.2802 29.305C55.902 29.0161 58.0766 26.9649 58.4115 24.2436Z" fill="#6D57E7" stroke="#6D57E7" stroke-width="2"/>
</svg>
