<svg width="147" height="128" viewBox="0 0 147 128" fill="none" xmlns="http://www.w3.org/2000/svg">
<path d="M52.86 105.72C82.0538 105.72 105.72 82.0538 105.72 52.86C105.72 23.6662 82.0538 0 52.86 0C23.6662 0 0 23.6662 0 52.86C0 82.0538 23.6662 105.72 52.86 105.72Z" fill="#F0F4F7"/>
<rect x="28" y="34" width="94" height="71" rx="5" fill="white" stroke="#B8C0CC" stroke-width="2"/>
<rect x="38" y="48" width="13.3571" height="13.3571" rx="2" fill="#B8C0CC"/>
<rect x="57.4286" y="48" width="13.3571" height="13.3571" rx="2" fill="#B8C0CC"/>
<rect x="76.8572" y="48" width="13.3571" height="13.3571" rx="2" fill="#B8C0CC"/>
<rect x="96.2858" y="48" width="13.3571" height="13.3571" rx="2" fill="#B8C0CC"/>
<rect x="38" y="68.6428" width="13.3571" height="13.3571" rx="2" fill="#B8C0CC"/>
<rect x="57.4286" y="68.6428" width="13.3571" height="13.3571" rx="2" fill="#B8C0CC"/>
<rect x="77.8572" y="69.6428" width="11.3571" height="11.3571" rx="1" fill="white" stroke="#6D57E7" stroke-width="2"/>
<rect x="96.2858" y="68.6428" width="13.3571" height="13.3571" rx="2" fill="#B8C0CC"/>
<path d="M138.021 88.2787L137.993 88.25L137.963 88.2221L136.085 86.4423C134.931 85.315 133.454 85.1098 132.212 85.3583L132.029 85.3949L131.851 85.4539C131.898 85.4385 131.893 85.4396 131.784 85.467C131.72 85.4832 131.62 85.5084 131.472 85.5448C131.421 85.5573 131.368 85.5704 131.312 85.5842C131.031 85.6533 130.685 85.7383 130.325 85.8296C129.921 85.9321 129.428 86.0599 128.946 86.1987L128.176 85.8685C127.957 85.4683 127.723 85.0598 127.524 84.7146C127.386 84.4741 127.245 84.2324 127.121 84.0184C127.054 83.9031 126.991 83.7958 126.937 83.701C126.777 83.4261 126.705 83.2977 126.688 83.2662C126.684 83.2604 126.683 83.2579 126.683 83.2583C125.905 81.7013 124.37 81 123 81H120.4C118.941 81 117.694 81.7412 116.9 82.8L116.85 82.8666L116.804 82.9359C116.632 83.1938 116.177 83.9694 115.765 84.696C115.561 85.0565 115.329 85.4718 115.114 85.8728L114.323 86.212C113.174 85.8808 111.692 85.4876 111.155 85.3721C109.922 85.0884 108.324 85.3335 107.179 86.4787L107.148 86.509L107.119 86.5401L105.441 88.3172C104.665 89.1118 103.913 90.4625 104.258 92.1883L104.295 92.3715L104.354 92.5486C104.339 92.5024 104.34 92.5067 104.367 92.6158C104.383 92.68 104.408 92.7804 104.445 92.9282C104.457 92.9787 104.47 93.0322 104.484 93.0883C104.553 93.3694 104.638 93.7152 104.73 94.0753C104.832 94.4792 104.96 94.9723 105.099 95.4538L104.769 96.2243C104.368 96.4431 103.96 96.6768 103.615 96.8757C103.374 97.0143 103.132 97.1548 102.918 97.2793C102.803 97.3462 102.696 97.4086 102.601 97.4634C102.326 97.6227 102.198 97.6946 102.166 97.7123C102.16 97.7156 102.158 97.717 102.158 97.7167L101.991 97.8002L101.836 97.9039C100.599 98.7283 100 100.126 100 101.4V104C100 105.459 100.741 106.706 101.8 107.5L101.867 107.55L101.936 107.596C102.194 107.768 102.969 108.223 103.696 108.635C104.057 108.839 104.472 109.071 104.873 109.286L105.212 110.077C104.881 111.226 104.488 112.708 104.372 113.245C104.088 114.478 104.333 116.076 105.479 117.221L107.279 119.021C108.438 120.181 109.933 120.393 111.188 120.142L111.371 120.105L111.547 120.046C111.503 120.061 111.508 120.06 111.616 120.033C111.68 120.017 111.78 119.992 111.928 119.955C111.979 119.943 112.032 119.93 112.088 119.916C112.369 119.847 112.715 119.762 113.075 119.67C113.479 119.568 113.972 119.44 114.454 119.301L115.224 119.631C115.443 120.032 115.677 120.44 115.876 120.785C116.014 121.026 116.155 121.268 116.279 121.482C116.346 121.597 116.409 121.704 116.463 121.799C116.623 122.074 116.695 122.202 116.712 122.234C116.716 122.24 116.717 122.242 116.717 122.242C117.552 123.912 119.178 124.5 120.5 124.5H123C124.459 124.5 125.706 123.759 126.5 122.7L126.55 122.633L126.596 122.564C126.768 122.306 127.223 121.531 127.635 120.804C127.839 120.443 128.071 120.028 128.286 119.627L129.077 119.288C130.226 119.619 131.708 120.012 132.245 120.128C133.478 120.412 135.076 120.167 136.221 119.021L138.021 117.221C139.181 116.062 139.393 114.567 139.142 113.312L139.105 113.129L139.046 112.952C139.061 112.997 139.06 112.993 139.033 112.884C139.017 112.82 138.992 112.72 138.955 112.572C138.943 112.521 138.93 112.468 138.916 112.412C138.847 112.131 138.762 111.785 138.67 111.425C138.568 111.021 138.44 110.528 138.301 110.046L138.631 109.276C139.032 109.057 139.44 108.823 139.785 108.624C140.026 108.486 140.268 108.345 140.482 108.221C140.597 108.154 140.704 108.091 140.799 108.037C141.074 107.877 141.202 107.805 141.234 107.788C141.24 107.784 141.242 107.783 141.242 107.783C142.912 106.948 143.5 105.322 143.5 104V101.4V101.031L143.41 100.672C143.24 99.9902 142.781 98.7153 141.564 97.9039C141.306 97.7319 140.531 97.2766 139.804 96.8649C139.443 96.6606 139.028 96.4289 138.627 96.2143L138.288 95.4229C138.619 94.2735 139.012 92.7917 139.128 92.2548C139.412 91.0222 139.167 89.4239 138.021 88.2787ZM121.7 105.5C120.157 105.5 118.9 104.243 118.9 102.7C118.9 101.157 120.157 99.9 121.7 99.9C123.243 99.9 124.5 101.157 124.5 102.7C124.5 104.243 123.243 105.5 121.7 105.5Z" fill="white" stroke="white" stroke-width="6"/>
<path d="M135.381 98.7939L135.535 99.1545L135.894 99.3138C136.292 99.4907 137.075 99.9159 137.832 100.345C138.581 100.769 139.216 101.147 139.341 101.229C139.343 101.232 139.369 101.256 139.407 101.321C139.44 101.38 139.473 101.454 139.5 101.538V104C139.5 104.119 139.476 104.176 139.468 104.192C139.464 104.199 139.462 104.201 139.463 104.2C139.464 104.198 139.462 104.201 139.453 104.206C139.288 104.288 138.878 104.526 138.406 104.8C138.207 104.916 137.996 105.039 137.788 105.159C137.036 105.592 136.286 106.012 135.894 106.186L135.535 106.346L135.381 106.706L134.181 109.506L134.018 109.887L134.172 110.271C134.342 110.698 134.577 111.555 134.793 112.408C134.881 112.753 134.961 113.082 135.031 113.363C135.045 113.42 135.058 113.475 135.071 113.528L135.074 113.539C135.13 113.766 135.186 113.993 135.227 114.135C135.245 114.248 135.236 114.309 135.23 114.332C135.225 114.351 135.219 114.367 135.193 114.393L133.394 116.192C133.393 116.192 133.369 116.212 133.308 116.227C133.242 116.242 133.179 116.239 133.143 116.23L133.119 116.224L133.096 116.219C132.645 116.129 130.086 115.441 129.216 115.151L128.856 115.031L128.506 115.181L125.706 116.381L125.346 116.535L125.186 116.894C125.009 117.292 124.584 118.075 124.155 118.832C123.75 119.547 123.387 120.159 123.284 120.321C123.155 120.482 123.045 120.5 123 120.5H120.5C120.381 120.5 120.324 120.476 120.308 120.468C120.303 120.465 120.301 120.463 120.3 120.463C120.3 120.463 120.3 120.462 120.3 120.462C120.299 120.461 120.297 120.458 120.294 120.453C120.212 120.288 119.974 119.878 119.7 119.406C119.584 119.207 119.461 118.996 119.341 118.788C118.908 118.036 118.488 117.286 118.314 116.894L118.154 116.535L117.794 116.381L114.994 115.181L114.613 115.018L114.229 115.172C113.802 115.342 112.945 115.577 112.092 115.793C111.747 115.881 111.418 115.961 111.137 116.031C111.08 116.045 111.025 116.058 110.972 116.071L110.961 116.074C110.734 116.13 110.507 116.186 110.365 116.227C110.252 116.245 110.191 116.236 110.168 116.23C110.149 116.225 110.133 116.219 110.107 116.193L108.308 114.394C108.308 114.393 108.288 114.369 108.273 114.308C108.258 114.242 108.261 114.179 108.27 114.143L108.276 114.119L108.281 114.096C108.371 113.645 109.059 111.086 109.349 110.216L109.469 109.856L109.319 109.506L108.119 106.706L107.965 106.346L107.606 106.186C107.208 106.009 106.425 105.584 105.668 105.155C104.953 104.75 104.341 104.387 104.179 104.284C104.018 104.155 104 104.045 104 104V101.4C104 101.363 104.01 101.315 104.032 101.272C104.039 101.257 104.046 101.247 104.051 101.24C104.253 101.13 104.602 100.927 104.994 100.7C105.193 100.584 105.404 100.461 105.612 100.341C106.364 99.908 107.114 99.488 107.506 99.3138L107.865 99.1545L108.019 98.7939L109.219 95.9939L109.382 95.6132L109.228 95.2286C109.058 94.8018 108.823 93.9451 108.607 93.0916C108.519 92.7473 108.439 92.4185 108.37 92.1374C108.355 92.0801 108.342 92.0249 108.329 91.9718L108.326 91.9611C108.271 91.7375 108.216 91.5149 108.176 91.3723C108.171 91.3277 108.178 91.2995 108.186 91.2761C108.2 91.2389 108.233 91.1807 108.307 91.1071L108.317 91.097L108.327 91.0866L110.008 89.3066C110.015 89.3021 110.04 89.2856 110.092 89.2734C110.158 89.2577 110.221 89.2611 110.257 89.2701L110.281 89.2759L110.304 89.2806C110.755 89.3708 113.314 90.0588 114.184 90.3487L114.544 90.4689L114.894 90.3191L117.694 89.1191L118.054 88.9646L118.214 88.6061C118.391 88.2081 118.816 87.4253 119.245 86.668C119.65 85.9526 120.013 85.3408 120.116 85.1787C120.245 85.018 120.355 85 120.4 85H123C123.036 85 123.063 85.0093 123.079 85.0182C123.086 85.0223 123.091 85.0262 123.094 85.0294C123.096 85.0324 123.101 85.0375 123.106 85.0472C123.188 85.2124 123.426 85.6223 123.7 86.0936C123.816 86.2933 123.939 86.504 124.059 86.7118C124.492 87.4639 124.912 88.2142 125.086 88.6061L125.246 88.9646L125.606 89.1191L128.406 90.3191L128.787 90.4823L129.171 90.3285C129.598 90.1578 130.455 89.9233 131.308 89.7068C131.653 89.6194 131.982 89.5386 132.263 89.4695C132.32 89.4554 132.375 89.4419 132.428 89.4288L132.439 89.4262C132.666 89.3701 132.893 89.3143 133.035 89.2735C133.148 89.255 133.209 89.2642 133.232 89.2701C133.251 89.2749 133.267 89.2814 133.293 89.3071L133.302 89.3167L133.312 89.326L135.193 91.1079C135.198 91.114 135.214 91.1393 135.227 91.1915C135.242 91.2582 135.239 91.3213 135.23 91.3575L135.224 91.3806L135.219 91.4039C135.129 91.8549 134.441 94.4142 134.151 95.2838L134.031 95.6445L134.181 95.9939L135.381 98.7939ZM114.9 102.7C114.9 106.452 117.948 109.5 121.7 109.5C125.452 109.5 128.5 106.452 128.5 102.7C128.5 98.9477 125.452 95.9 121.7 95.9C117.948 95.9 114.9 98.9477 114.9 102.7Z" fill="white" stroke="#6D57E7" stroke-width="2"/>
<path d="M45 25V39.219" stroke="#B8C0CC" stroke-width="2" stroke-miterlimit="10" stroke-linecap="round"/>
<path d="M64.644 25V39.219" stroke="#B8C0CC" stroke-width="2" stroke-miterlimit="10" stroke-linecap="round"/>
<path d="M84.644 25V39.219" stroke="#B8C0CC" stroke-width="2" stroke-miterlimit="10" stroke-linecap="round"/>
<path d="M104.644 25V39.219" stroke="#B8C0CC" stroke-width="2" stroke-miterlimit="10" stroke-linecap="round"/>
</svg>
