<svg width="126" height="115" viewBox="0 0 126 115" fill="none" xmlns="http://www.w3.org/2000/svg">
<path d="M52.861 105.72C82.0547 105.72 105.721 82.0538 105.721 52.86C105.721 23.6662 82.0547 0 52.861 0C23.6672 0 0.000976562 23.6662 0.000976562 52.86C0.000976562 82.0538 23.6672 105.72 52.861 105.72Z" fill="#F0F4F7"/>
<path d="M88.5665 12H42.4335C35.5667 12 30 16.2357 30 21.4608V104.539C30 109.764 35.5667 114 42.4335 114H88.5665C95.4333 114 101 109.764 101 104.539V21.4608C101 16.2357 95.4333 12 88.5665 12Z" fill="white" stroke="#B8C0CC" stroke-width="2" stroke-miterlimit="10"/>
<path d="M65.629 109.258C67.6332 109.258 69.258 107.633 69.258 105.629C69.258 103.625 67.6332 102 65.629 102C63.6248 102 62 103.625 62 105.629C62 107.633 63.6248 109.258 65.629 109.258Z" fill="#B8C0CC"/>
<rect x="81" y="79" width="45" height="19" fill="#FCFDFF"/>
<path d="M90.038 95.162C88.814 95.162 87.74 94.898 86.816 94.37C85.904 93.842 85.202 93.086 84.71 92.102C84.218 91.118 83.972 89.966 83.972 88.646C83.972 87.326 84.218 86.18 84.71 85.208C85.202 84.224 85.904 83.468 86.816 82.94C87.74 82.412 88.814 82.148 90.038 82.148C90.83 82.148 91.574 82.268 92.27 82.508C92.966 82.736 93.584 83.072 94.124 83.516C94.28 83.636 94.388 83.762 94.448 83.894C94.508 84.026 94.538 84.188 94.538 84.38C94.538 84.644 94.466 84.866 94.322 85.046C94.178 85.226 94.004 85.316 93.8 85.316C93.56 85.316 93.314 85.232 93.062 85.064C92.546 84.68 92.066 84.416 91.622 84.272C91.178 84.116 90.686 84.038 90.146 84.038C88.898 84.038 87.95 84.428 87.302 85.208C86.666 85.988 86.348 87.134 86.348 88.646C86.348 90.17 86.666 91.322 87.302 92.102C87.95 92.882 88.898 93.272 90.146 93.272C90.662 93.272 91.136 93.194 91.568 93.038C92.012 92.882 92.51 92.618 93.062 92.246C93.182 92.174 93.302 92.114 93.422 92.066C93.542 92.018 93.668 91.994 93.8 91.994C94.004 91.994 94.178 92.084 94.322 92.264C94.466 92.444 94.538 92.666 94.538 92.93C94.538 93.11 94.508 93.272 94.448 93.416C94.388 93.548 94.28 93.674 94.124 93.794C93.584 94.238 92.966 94.58 92.27 94.82C91.574 95.048 90.83 95.162 90.038 95.162ZM106.719 93.542C106.863 93.758 106.935 93.968 106.935 94.172C106.935 94.448 106.821 94.676 106.593 94.856C106.377 95.036 106.119 95.126 105.819 95.126C105.627 95.126 105.441 95.084 105.261 95C105.093 94.904 104.949 94.766 104.829 94.586L102.435 90.95C102.195 90.566 101.937 90.296 101.661 90.14C101.397 89.984 101.049 89.906 100.617 89.906H98.8532V93.938C98.8532 94.298 98.7512 94.586 98.5472 94.802C98.3432 95.006 98.0672 95.108 97.7192 95.108C97.3712 95.108 97.0892 95.006 96.8732 94.802C96.6692 94.586 96.5672 94.298 96.5672 93.938V83.408C96.5672 83.06 96.6632 82.79 96.8552 82.598C97.0592 82.406 97.3352 82.31 97.6832 82.31H102.183C103.623 82.31 104.715 82.634 105.459 83.282C106.215 83.918 106.593 84.842 106.593 86.054C106.593 87.038 106.311 87.848 105.747 88.484C105.195 89.108 104.409 89.51 103.389 89.69C103.737 89.774 104.043 89.924 104.307 90.14C104.571 90.356 104.829 90.656 105.081 91.04L106.719 93.542ZM101.859 88.124C102.735 88.124 103.377 87.962 103.785 87.638C104.193 87.302 104.397 86.792 104.397 86.108C104.397 85.412 104.193 84.908 103.785 84.596C103.377 84.272 102.735 84.11 101.859 84.11H98.8352V88.124H101.859ZM120.351 82.22C120.687 82.22 120.957 82.328 121.161 82.544C121.365 82.748 121.467 83.024 121.467 83.372V94.028C121.467 94.364 121.371 94.628 121.179 94.82C120.987 95.012 120.735 95.108 120.423 95.108C120.111 95.108 119.865 95.012 119.685 94.82C119.505 94.628 119.415 94.364 119.415 94.028V86.612L116.355 92.408C116.211 92.672 116.055 92.87 115.887 93.002C115.719 93.122 115.521 93.182 115.293 93.182C115.065 93.182 114.867 93.122 114.699 93.002C114.531 92.882 114.375 92.684 114.231 92.408L111.153 86.702V94.028C111.153 94.352 111.057 94.616 110.865 94.82C110.685 95.012 110.439 95.108 110.127 95.108C109.815 95.108 109.569 95.012 109.389 94.82C109.209 94.628 109.119 94.364 109.119 94.028V83.372C109.119 83.024 109.215 82.748 109.407 82.544C109.611 82.328 109.881 82.22 110.217 82.22C110.685 82.22 111.051 82.478 111.315 82.994L115.311 90.608L119.289 82.994C119.553 82.478 119.907 82.22 120.351 82.22Z" fill="#6D57E7"/>
<path d="M53.5 50C59.299 50 64 45.299 64 39.5C64 33.701 59.299 29 53.5 29C47.701 29 43 33.701 43 39.5C43 45.299 47.701 50 53.5 50Z" fill="#B8C0CC"/>
<path d="M53.5 75C59.299 75 64 70.299 64 64.5C64 58.701 59.299 54 53.5 54C47.701 54 43 58.701 43 64.5C43 70.299 47.701 75 53.5 75Z" fill="#B8C0CC"/>
<path d="M60.5 64.5C60.5 68.366 57.366 71.5 53.5 71.5C49.634 71.5 46.5 68.366 46.5 64.5C46.5 60.634 49.634 57.5 53.5 57.5C57.366 57.5 60.5 60.634 60.5 64.5Z" stroke="white"/>
<path d="M57.5 64.5C57.5 66.7091 55.7091 68.5 53.5 68.5C51.2909 68.5 49.5 66.7091 49.5 64.5C49.5 62.2909 51.2909 60.5 53.5 60.5C55.7091 60.5 57.5 62.2909 57.5 64.5Z" stroke="white"/>
<path d="M53.5 66C54.3284 66 55 65.3284 55 64.5C55 63.6716 54.3284 63 53.5 63C52.6716 63 52 63.6716 52 64.5C52 65.3284 52.6716 66 53.5 66Z" fill="white"/>
<path d="M78.5 50C84.299 50 89 45.299 89 39.5C89 33.701 84.299 29 78.5 29C72.701 29 68 33.701 68 39.5C68 45.299 72.701 50 78.5 50Z" fill="#B8C0CC"/>
<path d="M78.5 75C84.299 75 89 70.299 89 64.5C89 58.701 84.299 54 78.5 54C72.701 54 68 58.701 68 64.5C68 70.299 72.701 75 78.5 75Z" fill="#B8C0CC"/>
<path d="M53.5 38.6177C50.004 38.6177 47.0667 41.1503 46.2354 44.5773C45.975 45.6507 46.8973 46.5589 48.0019 46.5589H58.9987C60.1032 46.5589 61.025 45.6507 60.7646 44.5773C59.9333 41.1503 56.996 38.6177 53.5 38.6177Z" fill="white" stroke="#B8C0CC" stroke-width="2"/>
<circle cx="53.4102" cy="35.9706" r="3.97059" fill="white" stroke="#B8C0CC" stroke-width="2"/>
<rect x="71" y="64" width="4" height="6" rx="0.6" fill="white"/>
<rect x="76" y="62" width="4" height="8" rx="0.6" fill="white"/>
<rect x="81" y="60" width="4" height="10" rx="0.6" fill="white"/>
<path d="M79 33V40L74 44" stroke="white" stroke-width="2" stroke-linecap="round" stroke-linejoin="round"/>
</svg>
