<svg width="441" height="282" viewBox="0 0 441 282" fill="none" xmlns="http://www.w3.org/2000/svg">
<rect x="1" y="1" width="359.072" height="232.994" rx="20" fill="white" stroke="#D7DEE2" stroke-width="2"/>
<rect x="126.288" y="95.1047" width="39.6181" height="58.3846" rx="2" transform="rotate(90 126.288 95.1047)" fill="#F0F4F7"/>
<path d="M75.2018 104.488H111.692" stroke="#B8C0CC" stroke-width="2" stroke-linecap="round"/>
<path d="M76.2441 113.871H112.735" stroke="#D7DEE2" stroke-width="2" stroke-linecap="round"/>
<path d="M76.2441 119.084H112.735" stroke="#D7DEE2" stroke-width="2" stroke-linecap="round"/>
<path d="M76.2441 124.297H103.351" stroke="#D7DEE2" stroke-width="2" stroke-linecap="round"/>
<rect x="210.125" y="95.1047" width="39.7167" height="58.4718" rx="2" transform="rotate(90 210.125 95.1047)" fill="#F0F4F7"/>
<path d="M158.962 104.511H195.507" stroke="#B8C0CC" stroke-width="2" stroke-linecap="round"/>
<path d="M160.006 113.918H196.551" stroke="#D7DEE2" stroke-width="2" stroke-linecap="round"/>
<path d="M160.006 119.144H196.551" stroke="#D7DEE2" stroke-width="2" stroke-linecap="round"/>
<path d="M160.006 124.37H187.154" stroke="#D7DEE2" stroke-width="2" stroke-linecap="round"/>
<rect x="292.429" y="95.1047" width="39.7167" height="58.4718" rx="2" transform="rotate(90 292.429 95.1047)" fill="#F0F4F7"/>
<path d="M241.274 104.511H277.819" stroke="#B8C0CC" stroke-width="2" stroke-linecap="round"/>
<path d="M242.318 113.918H278.863" stroke="#D7DEE2" stroke-width="2" stroke-linecap="round"/>
<path d="M242.318 119.144H278.863" stroke="#D7DEE2" stroke-width="2" stroke-linecap="round"/>
<path d="M242.318 124.37H269.465" stroke="#D7DEE2" stroke-width="2" stroke-linecap="round"/>
<rect x="104.457" y="30.8053" width="44.1297" height="15.723" rx="4" fill="#F0F4F7"/>
<rect x="161.825" y="30.8053" width="44.1297" height="15.723" rx="4" fill="#F0F4F7"/>
<rect x="219.194" y="30.8053" width="44.1297" height="15.723" rx="4" fill="#F0F4F7"/>
<rect x="276.562" y="30.8053" width="44.1297" height="15.723" rx="4" fill="#F0F4F7"/>
<path d="M40.4689 37.5593C40.4689 32.5888 44.4983 28.5593 49.4689 28.5593H51.3272C56.2978 28.5593 60.3272 32.5888 60.3272 37.5593V39.7746C60.3272 44.7452 56.2978 48.7746 51.3272 48.7746H49.4689C44.4983 48.7746 40.4689 44.7452 40.4689 39.7746V37.5593Z" fill="#6D57E7"/>
<rect x="77.5669" y="157.263" width="204.618" height="14.5213" rx="6" fill="#F0F4F7"/>
<path d="M18.1615 70.1356H342.911" stroke="#D7DEE2" stroke-width="2" stroke-linecap="round"/>
<rect x="221.936" y="197.357" width="11.8937" height="11.8937" rx="1" stroke="#D7DEE2" stroke-width="2"/>
<rect x="177.477" y="197.357" width="11.8937" height="11.8937" rx="5.94685" stroke="#D7DEE2" stroke-width="2"/>
<path d="M140.896 209.684L133.273 203.468L140.896 197.252L140.896 209.684Z" stroke="#D7DEE2" stroke-width="2"/>
<path d="M380.018 220.169C347.46 253.141 297.047 255.905 267.412 226.642C237.777 197.38 239.902 146.936 272.46 113.964C305.018 80.9917 355.43 78.2282 385.066 107.491C414.701 136.754 412.575 187.197 380.018 220.169Z" fill="white" stroke="#D7DEE2" stroke-width="2"/>
<path d="M350.814 223.857C361.858 212.672 362.507 195.654 352.564 185.836C342.621 176.018 325.613 176.883 314.569 188.067C303.525 199.252 302.875 216.27 312.818 226.088C322.761 235.906 339.77 235.041 350.814 223.857Z" fill="white" stroke="#D7DEE2" stroke-width="2"/>
<circle cx="282.963" cy="163.988" r="12.2199" transform="rotate(44.1132 282.963 163.988)" fill="#FFD600"/>
<circle cx="297.386" cy="128.045" r="12.2199" transform="rotate(44.1132 297.386 128.045)" fill="#518EF8"/>
<circle cx="335.205" cy="114.785" r="12.2199" transform="rotate(44.1132 335.205 114.785)" fill="#FF0100"/>
<circle cx="368.915" cy="133.851" r="12.2199" transform="rotate(44.1132 368.915 133.851)" fill="#E50097"/>
</svg>
