<svg width="129" height="107" viewBox="0 0 129 107" fill="none" xmlns="http://www.w3.org/2000/svg">
<path d="M52.86 105.72C82.0538 105.72 105.72 82.0538 105.72 52.86C105.72 23.6662 82.0538 0 52.86 0C23.6662 0 0 23.6662 0 52.86C0 82.0538 23.6662 105.72 52.86 105.72Z" fill="#F0F4F7"/>
<path d="M104.866 38.2599C92.8733 38.2599 83.0371 48.0351 82.0769 60.4708C81.9918 61.5721 82.896 62.4706 84.0006 62.4706H125.726C126.83 62.4706 127.739 61.5721 127.654 60.4708C126.694 48.0351 116.858 38.2599 104.866 38.2599Z" fill="white" stroke="#B8C0CC" stroke-width="2"/>
<circle cx="104.592" cy="30.1896" r="12.1053" fill="white" stroke="#B8C0CC" stroke-width="2"/>
<path d="M40.8657 38.2599C28.8733 38.2599 19.0371 48.0351 18.0769 60.4708C17.9918 61.5721 18.896 62.4706 20.0006 62.4706H61.7259C62.8305 62.4706 63.7395 61.5721 63.6544 60.4708C62.6942 48.0351 52.8581 38.2599 40.8657 38.2599Z" fill="white" stroke="#B8C0CC" stroke-width="2"/>
<circle cx="40.5917" cy="30.1896" r="12.1053" fill="white" stroke="#B8C0CC" stroke-width="2"/>
<path d="M73.1343 48.7068C57.6786 48.7068 45.0339 61.4498 44.0603 77.5544C43.9936 78.6569 44.9061 79.555 46.0107 79.555H100.266C101.37 79.555 102.275 78.6569 102.208 77.5544C101.235 61.4498 88.59 48.7068 73.1343 48.7068Z" fill="white" stroke="#B8C0CC" stroke-width="2"/>
<circle cx="72.7853" cy="38.4241" r="15.4241" fill="white" stroke="#B8C0CC" stroke-width="2"/>
<path d="M86.3809 83.7939L86.5354 84.1545L86.8939 84.3138C87.2919 84.4907 88.0747 84.9159 88.832 85.345C89.5807 85.7693 90.2157 86.1468 90.3409 86.2292C90.3434 86.2317 90.3693 86.2556 90.4068 86.3211C90.4401 86.3796 90.4725 86.4536 90.5 86.5383V89C90.5 89.1194 90.476 89.1762 90.4676 89.1919C90.4637 89.1993 90.4618 89.2006 90.4629 89.1996C90.464 89.1984 90.4622 89.2009 90.4528 89.2056C90.2876 89.2882 89.8777 89.5264 89.4064 89.8003C89.2067 89.9164 88.996 90.0388 88.7882 90.1586C88.0361 90.592 87.2858 91.012 86.8939 91.1862L86.5354 91.3455L86.3809 91.7061L85.1809 94.5061L85.0177 94.8868L85.1715 95.2714C85.3422 95.6982 85.5767 96.5549 85.7932 97.4084C85.8806 97.7528 85.9614 98.0817 86.0306 98.3629C86.0446 98.4201 86.0582 98.4752 86.0712 98.5282L86.0738 98.5386C86.1298 98.7663 86.1857 98.9931 86.2266 99.1352C86.245 99.2482 86.2358 99.3086 86.2299 99.3325C86.2251 99.3514 86.2186 99.3672 86.1929 99.3929L84.3936 101.192C84.3934 101.192 84.3692 101.212 84.3085 101.227C84.2418 101.242 84.1787 101.239 84.1425 101.23L84.1194 101.224L84.0961 101.219C83.6451 101.129 81.0858 100.441 80.2162 100.151L79.8555 100.031L79.5061 100.181L76.7061 101.381L76.3455 101.535L76.1862 101.894C76.0093 102.292 75.5841 103.075 75.155 103.832C74.7495 104.547 74.3868 105.159 74.2835 105.321C74.1552 105.482 74.0451 105.5 74 105.5H71.5C71.3806 105.5 71.3238 105.476 71.3081 105.468C71.3032 105.465 71.301 105.463 71.3004 105.463C71.3002 105.463 71.3 105.462 71.2998 105.462C71.2988 105.461 71.2969 105.458 71.2944 105.453C71.2118 105.288 70.9736 104.878 70.6997 104.406C70.5836 104.207 70.4612 103.996 70.3414 103.788C69.908 103.036 69.488 102.286 69.3138 101.894L69.1545 101.535L68.7939 101.381L65.9939 100.181L65.6132 100.018L65.2286 100.172C64.8018 100.342 63.9451 100.577 63.0916 100.793C62.7472 100.881 62.4183 100.961 62.1371 101.031C62.08 101.045 62.0248 101.058 61.9718 101.071L61.9614 101.074C61.7337 101.13 61.5069 101.186 61.3648 101.227C61.2518 101.245 61.1914 101.236 61.1675 101.23C61.1486 101.225 61.1328 101.219 61.1071 101.193L59.3078 99.3936C59.308 99.3934 59.2877 99.3692 59.2734 99.3085C59.2577 99.2418 59.2611 99.1787 59.2701 99.1425L59.2759 99.1194L59.2806 99.0961C59.3708 98.6451 60.0588 96.0858 60.3487 95.2162L60.4689 94.8555L60.3191 94.5061L59.1191 91.7061L58.9646 91.3455L58.6061 91.1862C58.2081 91.0093 57.4253 90.5841 56.668 90.155C55.9526 89.7496 55.3408 89.3868 55.1787 89.2835C55.018 89.1552 55 89.0451 55 89V86.4C55 86.3628 55.0104 86.3152 55.0319 86.2722C55.0393 86.2574 55.0461 86.2468 55.0513 86.2396C55.253 86.1301 55.6022 85.9272 55.9936 85.6997C56.1933 85.5836 56.404 85.4612 56.6118 85.3414C57.3639 84.908 58.1142 84.488 58.5061 84.3138L58.8646 84.1545L59.0191 83.7939L60.2191 80.9939L60.3823 80.6132L60.2285 80.2286C60.0578 79.8018 59.8233 78.9451 59.6068 78.0916C59.5194 77.7473 59.4386 77.4185 59.3695 77.1374C59.3554 77.0801 59.3419 77.0249 59.3288 76.9718L59.3262 76.9611C59.2711 76.7375 59.2163 76.5149 59.1756 76.3723C59.1707 76.3277 59.1776 76.2995 59.1863 76.2761C59.2003 76.2389 59.2335 76.1807 59.3071 76.1071L59.3172 76.097L59.327 76.0866L61.0081 74.3066C61.0145 74.3021 61.0397 74.2856 61.0915 74.2734C61.1582 74.2577 61.2213 74.2611 61.2575 74.2701L61.2806 74.2759L61.3039 74.2806C61.7549 74.3708 64.3142 75.0588 65.1838 75.3487L65.5445 75.4689L65.8939 75.3191L68.6939 74.1191L69.0545 73.9646L69.2138 73.6061C69.3907 73.2081 69.8159 72.4253 70.245 71.668C70.6504 70.9526 71.0132 70.3408 71.1165 70.1787C71.2448 70.018 71.3549 70 71.4 70H74C74.0358 70 74.0633 70.0093 74.0789 70.0182C74.086 70.0223 74.0905 70.0262 74.0936 70.0294C74.0965 70.0324 74.1007 70.0375 74.1056 70.0472C74.1882 70.2124 74.4264 70.6223 74.7003 71.0936C74.8164 71.2933 74.9388 71.504 75.0586 71.7118C75.492 72.4639 75.912 73.2142 76.0862 73.6061L76.2455 73.9646L76.6061 74.1191L79.4061 75.3191L79.7868 75.4823L80.1714 75.3285C80.5982 75.1578 81.4549 74.9233 82.3084 74.7068C82.6527 74.6194 82.9815 74.5386 83.2626 74.4695C83.3199 74.4554 83.3751 74.4419 83.4282 74.4288L83.4388 74.4262C83.6664 74.3701 83.8931 74.3143 84.0352 74.2735C84.1482 74.255 84.2086 74.2642 84.2325 74.2701C84.2514 74.2749 84.2672 74.2814 84.2929 74.3071L84.3024 74.3167L84.3123 74.326L86.1932 76.1079C86.1975 76.114 86.2143 76.1393 86.2266 76.1915C86.2423 76.2582 86.2389 76.3213 86.2299 76.3575L86.2241 76.3806L86.2194 76.4039C86.1292 76.8549 85.4412 79.4142 85.1513 80.2838L85.0311 80.6445L85.1809 80.9939L86.3809 83.7939ZM65.9 87.7C65.9 91.4523 68.9477 94.5 72.7 94.5C76.4523 94.5 79.5 91.4523 79.5 87.7C79.5 83.9477 76.4523 80.9 72.7 80.9C68.9477 80.9 65.9 83.9477 65.9 87.7Z" fill="white" stroke="#6D57E7" stroke-width="2"/>
</svg>
