<svg width="87" height="70" viewBox="0 0 87 70" fill="none" xmlns="http://www.w3.org/2000/svg">
<mask id="path-1-inside-1" fill="white">
<path fill-rule="evenodd" clip-rule="evenodd" d="M47.1177 0C42.6994 0 39.1177 3.58172 39.1177 8V29.0588C39.1177 33.4771 42.6994 37.0588 47.1177 37.0588H56.3929L52.5373 43.3048C51.4959 44.992 53.28 47.0032 55.0793 46.1704L74.7647 37.0588H78.4706C82.8889 37.0588 86.4706 33.4771 86.4706 29.0588V8C86.4706 3.58172 82.8889 0 78.4706 0H47.1177Z"/>
</mask>
<path fill-rule="evenodd" clip-rule="evenodd" d="M47.1177 0C42.6994 0 39.1177 3.58172 39.1177 8V29.0588C39.1177 33.4771 42.6994 37.0588 47.1177 37.0588H56.3929L52.5373 43.3048C51.4959 44.992 53.28 47.0032 55.0793 46.1704L74.7647 37.0588H78.4706C82.8889 37.0588 86.4706 33.4771 86.4706 29.0588V8C86.4706 3.58172 82.8889 0 78.4706 0H47.1177Z" fill="white"/>
<path d="M56.3929 37.0588L58.0947 38.1094L59.9778 35.0588H56.3929V37.0588ZM52.5373 43.3048L54.2392 44.3554L52.5373 43.3048ZM55.0793 46.1704L54.2392 44.3554H54.2392L55.0793 46.1704ZM74.7647 37.0588V35.0588H74.3243L73.9246 35.2438L74.7647 37.0588ZM41.1177 8C41.1177 4.68629 43.804 2 47.1177 2V-2C41.5948 -2 37.1177 2.47715 37.1177 8H41.1177ZM41.1177 29.0588V8H37.1177V29.0588H41.1177ZM47.1177 35.0588C43.804 35.0588 41.1177 32.3725 41.1177 29.0588H37.1177C37.1177 34.5817 41.5948 39.0588 47.1177 39.0588V35.0588ZM56.3929 35.0588H47.1177V39.0588H56.3929V35.0588ZM54.2392 44.3554L58.0947 38.1094L54.691 36.0083L50.8354 42.2543L54.2392 44.3554ZM54.2392 44.3554C54.2252 44.3618 54.2169 44.3643 54.214 44.3651C54.2113 44.3659 54.2121 44.3654 54.2161 44.365C54.22 44.3647 54.2253 44.3645 54.2313 44.3649C54.2372 44.3654 54.2426 44.3663 54.2471 44.3674C54.2562 44.3696 54.2588 44.3717 54.2558 44.3699C54.2524 44.3679 54.2461 44.3631 54.2392 44.3554C54.2323 44.3476 54.2283 44.3407 54.2267 44.3371C54.2253 44.334 54.2271 44.3368 54.2282 44.3461C54.2288 44.3507 54.229 44.3561 54.2287 44.3621C54.2284 44.3681 54.2277 44.3733 54.2268 44.3772C54.226 44.3811 54.2254 44.3818 54.2265 44.3792C54.2276 44.3765 54.2311 44.3685 54.2392 44.3554L50.8354 42.2543C48.7526 45.6285 52.3208 49.651 55.9194 47.9854L54.2392 44.3554ZM73.9246 35.2438L54.2392 44.3554L55.9194 47.9854L75.6048 38.8738L73.9246 35.2438ZM78.4706 35.0588H74.7647V39.0588H78.4706V35.0588ZM84.4706 29.0588C84.4706 32.3725 81.7843 35.0588 78.4706 35.0588V39.0588C83.9935 39.0588 88.4706 34.5817 88.4706 29.0588H84.4706ZM84.4706 8V29.0588H88.4706V8H84.4706ZM78.4706 2C81.7843 2 84.4706 4.68629 84.4706 8H88.4706C88.4706 2.47715 83.9935 -2 78.4706 -2V2ZM47.1177 2H78.4706V-2H47.1177V2Z" fill="#B8C0CC" mask="url(#path-1-inside-1)"/>
<path d="M62.9649 31.3701C63.4151 31.3701 63.8467 31.1994 64.165 30.8957C64.4833 30.592 64.6621 30.1801 64.6621 29.7505V28.7684C66.1299 28.6844 67.5088 28.0692 68.5176 27.0483C69.5263 26.0274 70.0891 24.6777 70.091 23.2746V23.1131C70.0887 21.6545 69.4804 20.2563 68.3996 19.2249C67.3188 18.1935 65.8534 17.6131 64.3249 17.6109H61.442C60.8419 17.5693 60.2804 17.3124 59.8706 16.8919C59.4608 16.4714 59.233 15.9184 59.233 15.3442C59.233 14.77 59.4608 14.2171 59.8706 13.7966C60.2804 13.3761 60.8419 13.1191 61.442 13.0775H65.6512C65.8991 13.0778 66.1366 13.172 66.3119 13.3393C66.4872 13.5066 66.5859 13.7334 66.5863 13.9699V14.0082C66.583 14.4253 66.7485 14.8275 67.0485 15.1309C67.3485 15.4343 67.7597 15.6154 68.1962 15.6365C68.6328 15.6577 69.061 15.5172 69.3916 15.2443C69.7222 14.9715 69.9296 14.5873 69.9706 14.172V14.1469C69.9955 13.6049 69.9082 13.0637 69.7138 12.5539C69.5194 12.0441 69.2215 11.5759 68.8374 11.176C68.4532 10.7761 67.9903 10.4523 67.4749 10.2233C66.9596 9.99417 66.4022 9.86422 65.8342 9.84085H65.6486H64.6634V8.86958C64.6695 8.65327 64.6302 8.43803 64.5477 8.23646C64.4652 8.0349 64.3412 7.85115 64.1831 7.69607C64.0249 7.541 63.8359 7.41769 63.627 7.33352C63.4181 7.24936 63.1935 7.20605 62.9668 7.20605C62.74 7.20605 62.5156 7.24936 62.3067 7.33352C62.0978 7.41769 61.9086 7.541 61.7505 7.69607C61.5923 7.85115 61.4684 8.0349 61.3859 8.23646C61.3034 8.43803 61.264 8.65327 61.2702 8.86958V9.84435C60.513 9.85496 59.7655 10.0079 59.0702 10.2942C58.3749 10.5805 57.7454 10.9947 57.2178 11.5131C56.6903 12.0316 56.2749 12.644 55.9954 13.3157C55.7159 13.9873 55.5778 14.7049 55.5889 15.4274C55.6 16.15 55.7601 16.8633 56.0602 17.5268C56.3602 18.1903 56.7942 18.791 57.3375 19.2944C57.8808 19.7979 58.5228 20.1942 59.2266 20.4609C59.9304 20.7276 60.6822 20.8595 61.4394 20.8489H64.3225C64.6352 20.8489 64.9448 20.9077 65.2338 21.0219C65.5227 21.1361 65.7853 21.3035 66.0065 21.5145C66.2276 21.7256 66.4031 21.976 66.5228 22.2518C66.6424 22.5275 66.7041 22.8231 66.7041 23.1216V23.2842C66.7021 23.8857 66.4503 24.4619 66.0039 24.8866C65.5575 25.3112 64.9528 25.5496 64.3225 25.5496H60.0456C59.9229 25.5498 59.8013 25.5269 59.6879 25.4821C59.5745 25.4374 59.4713 25.3719 59.3845 25.2891C59.2976 25.2064 59.2287 25.1081 59.1817 24.9999C59.1347 24.8917 59.1106 24.7756 59.1106 24.6585V24.643V24.4755C59.1099 24.0516 58.935 23.6448 58.6235 23.3425C58.3121 23.0402 57.8889 22.8664 57.4448 22.8586C57.0006 22.8508 56.5708 23.0094 56.2479 23.3006C55.9249 23.5917 55.7345 23.992 55.7174 24.4157V24.5843C55.7069 25.1265 55.8085 25.6654 56.0164 26.1702C56.2242 26.6749 56.5343 27.1355 56.9288 27.5259C57.3233 27.9162 57.7945 28.2285 58.3155 28.445C58.8366 28.6615 59.3973 28.7779 59.9655 28.7876H61.2665V29.7589C61.2668 30.1882 61.4459 30.5998 61.7641 30.9033C62.0824 31.2068 62.5138 31.3773 62.9637 31.3773L62.9649 31.3701Z" fill="#6D57E7"/>
<path d="M1.52156 64.2102C4.07501 50.232 15.6735 39.7488 29.5149 39.7488C43.3563 39.7488 54.9548 50.232 57.5083 64.2102C57.9687 66.7305 55.8489 68.9999 53.025 68.9999H6.01297C3.18698 68.9999 1.06152 66.7286 1.52156 64.2102Z" fill="white" stroke="#B8C0CC" stroke-width="2"/>
<circle cx="29.1612" cy="28.3321" r="14.6255" fill="white" stroke="#B8C0CC" stroke-width="2"/>
</svg>
