<svg width="73" height="70" viewBox="0 0 73 70" fill="none" xmlns="http://www.w3.org/2000/svg">
<path d="M1.76339 62.2456C5.13436 45.3932 19.2441 32.8179 36.0606 32.8179C52.8772 32.8179 66.9869 45.3932 70.3579 62.2456C71.0732 65.8217 68.0513 68.9997 64.1156 68.9997H8.01609C4.07829 68.9997 1.04845 65.8198 1.76339 62.2456Z" fill="white" stroke="#B8C0CC" stroke-width="2"/>
<circle cx="35.6284" cy="19.0909" r="18.0909" fill="white" stroke="#B8C0CC" stroke-width="2"/>
<path d="M15.6773 44.5235C15.484 42.7486 16.8743 41.1987 18.6597 41.1987H51.7412C53.5266 41.1987 54.9169 42.7486 54.7236 44.5235L52.6982 63.1235C52.5324 64.6457 51.247 65.7987 49.7158 65.7987H20.6851C19.1539 65.7987 17.8684 64.6456 17.7027 63.1235L15.6773 44.5235Z" fill="white" stroke="#B8C0CC" stroke-width="2"/>
<path d="M18.4004 68.9985L52.0004 68.9985" stroke="#6D57E7" stroke-width="2" stroke-linecap="round" stroke-linejoin="round"/>
<circle cx="36" cy="53" r="4" fill="#6D57E7"/>
</svg>
