<svg width="67" height="73" viewBox="0 0 67 73" fill="none" xmlns="http://www.w3.org/2000/svg">
<mask id="path-1-inside-1" fill="white">
<path fill-rule="evenodd" clip-rule="evenodd" d="M51.3841 15.0124L51.3841 15.026C55.3868 16.4189 58.2547 20.1773 58.2547 24.5953C58.2547 30.1991 53.6406 34.7418 47.9489 34.7418C47.9488 34.7418 47.9488 34.7418 47.9488 34.7418H19.3215V34.7417C19.3215 34.7417 19.3215 34.7417 19.3215 34.7417C12.9973 34.7417 7.87061 29.6941 7.87061 23.4677C7.87061 19.2331 10.2419 15.5438 13.7484 13.6167C13.6486 13.158 13.5961 12.682 13.5961 12.1939C13.5961 8.45805 16.6722 5.42953 20.4667 5.42953C22.2691 5.42953 23.9094 6.11288 25.135 7.2308C27.6983 3.42739 32.0869 0.919922 37.0704 0.919922C44.9756 0.919922 51.3841 7.22934 51.3841 15.0124Z"/>
</mask>
<path d="M51.3841 15.026L49.3841 15.0249C49.3836 15.8765 49.9224 16.635 50.7268 16.9149L51.3841 15.026ZM51.3841 15.0124L53.3841 15.0135V15.0124H51.3841ZM19.3215 34.7418H17.3215C17.3215 35.8464 18.217 36.7418 19.3215 36.7418V34.7418ZM19.3215 34.7417H21.3215C21.3215 33.6371 20.4261 32.7417 19.3215 32.7417V34.7417ZM13.7484 13.6167L14.7116 15.3695C15.4876 14.943 15.8909 14.0571 15.7027 13.1918L13.7484 13.6167ZM25.135 7.2308L23.7871 8.7084C24.2166 9.10021 24.7954 9.28573 25.3727 9.21663C25.9499 9.14753 26.4686 8.83066 26.7935 8.34855L25.135 7.2308ZM53.3841 15.0271L53.3841 15.0135L49.3841 15.0113L49.3841 15.0249L53.3841 15.0271ZM60.2547 24.5953C60.2547 19.2838 56.8073 14.7956 52.0414 13.1371L50.7268 16.9149C53.9664 18.0422 56.2547 21.0709 56.2547 24.5953H60.2547ZM47.9489 36.7418C54.7157 36.7418 60.2547 31.3329 60.2547 24.5953H56.2547C56.2547 29.0652 52.5655 32.7418 47.9489 32.7418V36.7418ZM47.9488 36.7418H47.9488H47.9488H47.9488H47.9488C47.9488 36.7418 47.9488 36.7418 47.9488 36.7418C47.9488 36.7418 47.9488 36.7418 47.9488 36.7418C47.9488 36.7418 47.9488 36.7418 47.9488 36.7418C47.9488 36.7418 47.9488 36.7418 47.9488 36.7418C47.9488 36.7418 47.9488 36.7418 47.9488 36.7418C47.9488 36.7418 47.9488 36.7418 47.9488 36.7418C47.9488 36.7418 47.9488 36.7418 47.9488 36.7418C47.9488 36.7418 47.9488 36.7418 47.9488 36.7418C47.9488 36.7418 47.9488 36.7418 47.9488 36.7418C47.9488 36.7418 47.9488 36.7418 47.9488 36.7418C47.9488 36.7418 47.9488 36.7418 47.9488 36.7418C47.9488 36.7418 47.9488 36.7418 47.9488 36.7418C47.9488 36.7418 47.9488 36.7418 47.9488 36.7418C47.9488 36.7418 47.9488 36.7418 47.9488 36.7418C47.9488 36.7418 47.9488 36.7418 47.9488 36.7418C47.9488 36.7418 47.9488 36.7418 47.9488 36.7418C47.9488 36.7418 47.9488 36.7418 47.9488 36.7418C47.9488 36.7418 47.9488 36.7418 47.9488 36.7418H47.9489H47.9489H47.9489H47.9489H47.9489V32.7418H47.9489H47.9489H47.9489H47.9489H47.9488C47.9488 32.7418 47.9488 32.7418 47.9488 32.7418C47.9488 32.7418 47.9488 32.7418 47.9488 32.7418C47.9488 32.7418 47.9488 32.7418 47.9488 32.7418C47.9488 32.7418 47.9488 32.7418 47.9488 32.7418C47.9488 32.7418 47.9488 32.7418 47.9488 32.7418C47.9488 32.7418 47.9488 32.7418 47.9488 32.7418C47.9488 32.7418 47.9488 32.7418 47.9488 32.7418C47.9488 32.7418 47.9488 32.7418 47.9488 32.7418C47.9488 32.7418 47.9488 32.7418 47.9488 32.7418C47.9488 32.7418 47.9488 32.7418 47.9488 32.7418C47.9488 32.7418 47.9488 32.7418 47.9488 32.7418C47.9488 32.7418 47.9488 32.7418 47.9488 32.7418C47.9488 32.7418 47.9488 32.7418 47.9488 32.7418C47.9488 32.7418 47.9488 32.7418 47.9488 32.7418C47.9488 32.7418 47.9488 32.7418 47.9488 32.7418C47.9488 32.7418 47.9488 32.7418 47.9488 32.7418C47.9488 32.7418 47.9488 32.7418 47.9488 32.7418C47.9488 32.7418 47.9488 32.7418 47.9488 32.7418H47.9488H47.9488H47.9488H47.9488V36.7418ZM47.9488 32.7418H19.3215V36.7418H47.9488V32.7418ZM21.3215 34.7418V34.7417H17.3215V34.7418H21.3215ZM19.3215 36.7417C19.3215 36.7417 19.3215 36.7417 19.3215 36.7417C19.3215 36.7417 19.3215 36.7417 19.3215 36.7417H19.3215C19.3215 36.7417 19.3215 36.7417 19.3215 36.7417C19.3215 36.7417 19.3215 36.7417 19.3215 36.7417C19.3215 36.7417 19.3215 36.7417 19.3215 36.7417H19.3215H19.3215C19.3215 36.7417 19.3215 36.7417 19.3215 36.7417C19.3215 36.7417 19.3215 36.7417 19.3215 36.7417H19.3215H19.3215C19.3215 36.7417 19.3215 36.7417 19.3215 36.7417C19.3215 36.7417 19.3215 36.7417 19.3215 36.7417C19.3215 36.7417 19.3215 36.7417 19.3215 36.7417H19.3215C19.3215 36.7417 19.3215 36.7417 19.3215 36.7417C19.3215 36.7417 19.3215 36.7417 19.3215 36.7417C19.3215 36.7417 19.3215 36.7417 19.3215 36.7417C19.3215 36.7417 19.3215 36.7417 19.3215 36.7417H19.3215C19.3215 36.7417 19.3215 36.7417 19.3215 36.7417C19.3215 36.7417 19.3215 36.7417 19.3215 36.7417C19.3215 36.7417 19.3215 36.7417 19.3215 36.7417H19.3215H19.3215C19.3215 36.7417 19.3215 36.7417 19.3215 36.7417C19.3215 36.7417 19.3215 36.7417 19.3215 36.7417H19.3215H19.3215C19.3215 36.7417 19.3215 36.7417 19.3215 36.7417C19.3215 36.7417 19.3215 36.7417 19.3215 36.7417C19.3215 36.7417 19.3215 36.7417 19.3215 36.7417H19.3215C19.3215 36.7417 19.3215 36.7417 19.3215 36.7417C19.3215 36.7417 19.3215 36.7417 19.3215 36.7417V32.7417C19.3215 32.7417 19.3215 32.7417 19.3215 32.7417C19.3215 32.7417 19.3215 32.7417 19.3215 32.7417H19.3215C19.3215 32.7417 19.3215 32.7417 19.3215 32.7417C19.3215 32.7417 19.3215 32.7417 19.3215 32.7417C19.3215 32.7417 19.3215 32.7417 19.3215 32.7417H19.3215H19.3215C19.3215 32.7417 19.3215 32.7417 19.3215 32.7417C19.3215 32.7417 19.3215 32.7417 19.3215 32.7417H19.3215H19.3215C19.3215 32.7417 19.3215 32.7417 19.3215 32.7417C19.3215 32.7417 19.3215 32.7417 19.3215 32.7417C19.3215 32.7417 19.3215 32.7417 19.3215 32.7417H19.3215C19.3215 32.7417 19.3215 32.7417 19.3215 32.7417C19.3215 32.7417 19.3215 32.7417 19.3215 32.7417C19.3215 32.7417 19.3215 32.7417 19.3215 32.7417C19.3215 32.7417 19.3215 32.7417 19.3215 32.7417H19.3215C19.3215 32.7417 19.3215 32.7417 19.3215 32.7417C19.3215 32.7417 19.3215 32.7417 19.3215 32.7417C19.3215 32.7417 19.3215 32.7417 19.3215 32.7417H19.3215H19.3215C19.3215 32.7417 19.3215 32.7417 19.3215 32.7417C19.3215 32.7417 19.3215 32.7417 19.3215 32.7417H19.3215H19.3215C19.3215 32.7417 19.3215 32.7417 19.3215 32.7417C19.3215 32.7417 19.3215 32.7417 19.3215 32.7417C19.3215 32.7417 19.3215 32.7417 19.3215 32.7417H19.3215C19.3215 32.7417 19.3215 32.7417 19.3215 32.7417C19.3215 32.7417 19.3215 32.7417 19.3215 32.7417V36.7417ZM5.87061 23.4677C5.87061 30.8279 11.9222 36.7417 19.3215 36.7417V32.7417C14.0724 32.7417 9.87061 28.5603 9.87061 23.4677H5.87061ZM12.7851 11.864C8.67497 14.1228 5.87061 18.4636 5.87061 23.4677H9.87061C9.87061 20.0027 11.8088 16.9648 14.7116 15.3695L12.7851 11.864ZM11.5961 12.1939C11.5961 12.8258 11.6641 13.4443 11.794 14.0417L15.7027 13.1918C15.6331 12.8717 15.5961 12.5381 15.5961 12.1939H11.5961ZM20.4667 3.42953C15.5971 3.42953 11.5961 7.32423 11.5961 12.1939H15.5961C15.5961 9.59186 17.7473 7.42953 20.4667 7.42953V3.42953ZM26.4828 5.75321C24.9004 4.30975 22.7832 3.42953 20.4667 3.42953V7.42953C21.755 7.42953 22.9185 7.91602 23.7871 8.7084L26.4828 5.75321ZM37.0704 -1.08008C31.4026 -1.08008 26.4006 1.77421 23.4765 6.11306L26.7935 8.34855C28.9959 5.08058 32.7713 2.91992 37.0704 2.91992V-1.08008ZM53.3841 15.0124C53.3841 6.09552 46.0507 -1.08008 37.0704 -1.08008V2.91992C43.9005 2.91992 49.3841 8.36315 49.3841 15.0124H53.3841Z" fill="#B8C0CC" mask="url(#path-1-inside-1)"/>
<rect x="1" y="30.2324" width="64.125" height="36.0767" rx="3" fill="white" stroke="#6D57E7" stroke-width="2"/>
<path d="M26.9341 66.3903L26.1919 71.9461H39.8919L39.1936 66.3091" stroke="#6D57E7" stroke-width="2" stroke-miterlimit="10" stroke-linecap="round" stroke-linejoin="round"/>
<path d="M29.6272 20.0854V38.6875L25.6194 34.7416" stroke="#6D57E7" stroke-width="2" stroke-linecap="round" stroke-linejoin="round"/>
<path d="M36.4978 38.6875L36.4978 20.0854L40.5056 24.0313" stroke="#6D57E7" stroke-width="2" stroke-linecap="round" stroke-linejoin="round"/>
<path d="M1 60.6719L65.125 60.6719" stroke="#6D57E7" stroke-width="2"/>
</svg>
