<svg width="73" height="70" viewBox="0 0 73 70" fill="none" xmlns="http://www.w3.org/2000/svg">
<path d="M1.76339 62.2456C5.13436 45.3932 19.2441 32.8179 36.0606 32.8179C52.8772 32.8179 66.9869 45.3932 70.3579 62.2456C71.0732 65.8217 68.0513 68.9997 64.1156 68.9997H8.01609C4.07829 68.9997 1.04845 65.8198 1.76339 62.2456Z" fill="white" stroke="#B8C0CC" stroke-width="2"/>
<circle cx="35.6284" cy="19.0909" r="18.0909" fill="white" stroke="#B8C0CC" stroke-width="2"/>
<path d="M13.4979 43.3377C13.2963 41.5585 14.6882 40 16.4788 40H53.5212C55.3118 40 56.7037 41.5585 56.5021 43.3377L54.2361 63.3377C54.0643 64.8542 52.7814 66 51.2552 66H18.7448C17.2186 66 15.9357 64.8542 15.7639 63.3377L13.4979 43.3377Z" fill="white" stroke="#B8C0CC" stroke-width="2"/>
<path d="M18.4004 68.9985L52.0004 68.9985" stroke="#6D57E7" stroke-width="2" stroke-linecap="round" stroke-linejoin="round"/>
<path d="M41.776 52.1227C41.664 52.048 40.768 51.5253 40.432 51.376L39.984 50.3307C40.096 49.9947 40.3573 49.024 40.3947 48.8373C40.432 48.688 40.3947 48.5013 40.2827 48.3893L39.5733 47.7173C39.4613 47.6053 39.312 47.568 39.1253 47.6053C39.0133 47.6427 38.0053 47.8667 37.632 48.016L36.5867 47.568C36.4373 47.232 35.9147 46.3733 35.84 46.224C35.7653 46.0747 35.616 46 35.4667 46H34.496C34.3467 46 34.1973 46.0747 34.0853 46.224C34.0107 46.336 33.488 47.232 33.3387 47.568L32.2933 48.016C31.9573 47.904 30.9867 47.6427 30.8 47.6053C30.6507 47.568 30.464 47.6053 30.352 47.7173L29.7173 48.3893C29.6053 48.5013 29.5307 48.6507 29.568 48.8373C29.6053 48.9493 29.8293 49.9573 29.9787 50.3307L29.5307 51.376C29.1947 51.5253 28.336 52.048 28.1867 52.1227C28.0747 52.1973 28 52.3467 28 52.496V53.4667C28 53.616 28.0747 53.7653 28.224 53.8773C28.336 53.952 29.232 54.4747 29.568 54.624L30.016 55.6693C29.904 56.0053 29.6427 56.976 29.6053 57.1627C29.568 57.312 29.6053 57.4987 29.7173 57.6107L30.3893 58.2827C30.5013 58.3947 30.6507 58.432 30.8373 58.3947C30.9493 58.3573 31.9573 58.1333 32.3307 57.984L33.376 58.432C33.5253 58.768 34.048 59.6267 34.1227 59.776C34.1973 59.9253 34.3467 60 34.5333 60H35.4667C35.616 60 35.7653 59.9253 35.8773 59.776C35.952 59.664 36.4747 58.768 36.624 58.432L37.6693 57.984C38.0053 58.096 38.976 58.3573 39.1627 58.3947C39.312 58.432 39.4987 58.3947 39.6107 58.2827L40.2827 57.6107C40.3947 57.4987 40.432 57.3493 40.3947 57.1627C40.3573 57.0507 40.1333 56.0427 39.984 55.6693L40.432 54.624C40.768 54.4747 41.6267 53.952 41.776 53.8773C41.9253 53.8027 42 53.6533 42 53.4667V52.496C41.9627 52.3467 41.888 52.1973 41.776 52.1227ZM34.9813 55.1467C33.7867 55.1467 32.816 54.176 32.816 52.9813C32.816 51.7867 33.7867 50.816 34.9813 50.816C36.176 50.816 37.1467 51.7867 37.1467 52.9813C37.1467 54.176 36.176 55.1467 34.9813 55.1467Z" fill="white" stroke="#6D57E7" stroke-width="2"/>
</svg>
