<svg width="114" height="107" viewBox="0 0 114 107" fill="none" xmlns="http://www.w3.org/2000/svg">
<path d="M52.86 105.72C82.0538 105.72 105.72 82.0538 105.72 52.86C105.72 23.6662 82.0538 0 52.86 0C23.6662 0 0 23.6662 0 52.86C0 82.0538 23.6662 105.72 52.86 105.72Z" fill="#F0F4F7"/>
<path d="M85.475 11H52.805C47.9421 11 44 14.9421 44 19.805V97.125C44 101.988 47.9421 105.93 52.805 105.93H85.475C90.3379 105.93 94.28 101.988 94.28 97.125V19.805C94.28 14.9421 90.3379 11 85.475 11Z" fill="white" stroke="#B8C0CC" stroke-width="2" stroke-miterlimit="10"/>
<path d="M69.109 101.012C71.1132 101.012 72.738 99.3871 72.738 97.3829C72.738 95.3787 71.1132 93.7539 69.109 93.7539C67.1047 93.7539 65.48 95.3787 65.48 97.3829C65.48 99.3871 67.1047 101.012 69.109 101.012Z" fill="#B8C0CC"/>
<path fill-rule="evenodd" clip-rule="evenodd" d="M108.16 75.2148V86.7148H96.6602H95.6602L95.6724 86.673C89.7835 86.172 85.1602 81.2334 85.1602 75.2148C85.1602 68.8636 90.3089 63.7148 96.6602 63.7148C102.844 63.7148 107.888 68.5955 108.149 74.7148H108.16V75.2148Z" fill="white"/>
<path d="M108.16 86.7148V91.7148H113.16V86.7148H108.16ZM95.6602 86.7148L90.8601 85.3149L88.9936 91.7148H95.6602V86.7148ZM95.6724 86.673L100.472 88.0729L102.183 82.2088L96.0962 81.691L95.6724 86.673ZM108.149 74.7148L103.154 74.9285L103.359 79.7148H108.149V74.7148ZM108.16 74.7148H113.16V69.7148H108.16V74.7148ZM103.16 75.2148V86.7148H113.16V75.2148H103.16ZM108.16 81.7148H96.6602V91.7148H108.16V81.7148ZM96.6602 81.7148H95.6602V91.7148H96.6602V81.7148ZM100.46 88.1148L100.472 88.0729L90.8723 85.2731L90.8601 85.3149L100.46 88.1148ZM96.0962 81.691C92.7729 81.4083 90.1602 78.614 90.1602 75.2148H80.1602C80.1602 83.8527 86.7941 90.9358 95.2485 91.655L96.0962 81.691ZM90.1602 75.2148C90.1602 71.625 93.0703 68.7148 96.6602 68.7148V58.7148C87.5475 58.7148 80.1602 66.1021 80.1602 75.2148H90.1602ZM96.6602 68.7148C100.154 68.7148 103.006 71.4736 103.154 74.9285L113.145 74.5011C112.769 65.7175 105.534 58.7148 96.6602 58.7148V68.7148ZM108.149 79.7148H108.16V69.7148H108.149V79.7148ZM103.16 74.7148V75.2148H113.16V74.7148H103.16Z" fill="white"/>
<path d="M107.229 85.7834V75.5427C107.229 69.8479 102.595 65.2148 96.9 65.2148C91.2538 65.2148 86.6602 69.8083 86.6602 75.4546C86.6602 81.1499 91.2933 85.7834 96.9882 85.7834H107.229ZM107.663 88.2834H96.9882C89.9034 88.2834 84.1602 82.5403 84.1602 75.4546C84.1602 68.4188 89.8641 62.7148 96.9 62.7148C103.986 62.7148 109.729 68.458 109.729 75.5427V86.2178C109.729 87.3584 108.804 88.2834 107.663 88.2834Z" fill="#6D57E7"/>
</svg>
