<svg width="69" height="72" viewBox="0 0 69 72" fill="none" xmlns="http://www.w3.org/2000/svg">
<g clip-path="url(#clip0)">
<path d="M67.6284 71.027H1.10864L4.55014 36H64.2881L67.6284 71.027Z" stroke="#B8C0CC" stroke-width="1.88" stroke-miterlimit="10" stroke-linejoin="round"/>
<path d="M47.7108 46.9459L31.9765 25.2463L31.0425 15.978L34.059 8.40173L38.2829 4.13563L42.5819 2.07628L47.5479 0.9729L51.1038 1.70819L58.1932 4.79765L62.417 10.1671L64.3023 16.7141L63.2948 27.4429L47.7108 46.9459Z" fill="white"/>
<path d="M64.3023 18.4426C64.3023 30.8553 47.4382 46.9459 47.4382 46.9459C47.4382 46.9459 31.0425 30.8553 31.0425 18.4426C31.0425 9.55607 37.1322 0.9729 47.4382 0.9729C57.744 0.9729 64.3023 9.55607 64.3023 18.4426Z" stroke="#6D57E7" stroke-width="1.88"/>
<path d="M47.6725 22.8649C50.7339 22.8649 53.2158 20.4146 53.2158 17.3919C53.2158 14.3693 50.7339 11.9189 47.6725 11.9189C44.611 11.9189 42.1292 14.3693 42.1292 17.3919C42.1292 20.4146 44.611 22.8649 47.6725 22.8649Z" stroke="#6D57E7" stroke-width="1.88"/>
<path d="M26.514 58.1995L7.94955 32.282L6.84753 21.2119L10.4066 12.1629L15.3903 7.06755L20.4624 4.6079L26.3217 3.29004L30.5173 4.16825L38.8816 7.85826L43.8653 14.2715L46.0896 22.0911L44.9008 34.9055L26.514 58.1995Z" fill="white"/>
<path d="M46.5638 24.5068C46.5638 39.2838 26.3269 58.4392 26.3269 58.4392C26.3269 58.4392 6.65198 39.2838 6.65198 24.5068C6.65198 13.9275 13.9598 3.70947 26.3269 3.70947C38.6939 3.70947 46.5638 13.9275 46.5638 24.5068Z" stroke="#6D57E7" stroke-width="1.88"/>
<path d="M26.6079 29.4325C30.2817 29.4325 33.2599 26.4921 33.2599 22.8649C33.2599 19.2378 30.2817 16.2974 26.6079 16.2974C22.9341 16.2974 19.9559 19.2378 19.9559 22.8649C19.9559 26.4921 22.9341 29.4325 26.6079 29.4325Z" stroke="#6D57E7" stroke-width="1.88"/>
</g>
<defs>
<clipPath id="clip0">
<rect width="68.9834" height="72" fill="white"/>
</clipPath>
</defs>
</svg>
