<svg width="113" height="110" viewBox="0 0 113 110" fill="none" xmlns="http://www.w3.org/2000/svg">
<path d="M52.86 105.72C82.0538 105.72 105.72 82.0538 105.72 52.86C105.72 23.6662 82.0538 0 52.86 0C23.6662 0 0 23.6662 0 52.86C0 82.0538 23.6662 105.72 52.86 105.72Z" fill="#F0F4F7"/>
<path d="M81.475 14H48.805C43.9421 14 40 17.9421 40 22.805V100.125C40 104.988 43.9421 108.93 48.805 108.93H81.475C86.3379 108.93 90.28 104.988 90.28 100.125V22.805C90.28 17.9421 86.3379 14 81.475 14Z" fill="white" stroke="#B8C0CC" stroke-width="2" stroke-miterlimit="10"/>
<path d="M65.109 104.012C67.1132 104.012 68.738 102.387 68.738 100.383C68.738 98.3787 67.1132 96.7539 65.109 96.7539C63.1047 96.7539 61.48 98.3787 61.48 100.383C61.48 102.387 63.1047 104.012 65.109 104.012Z" fill="#B8C0CC"/>
<circle cx="94.2495" cy="88.2598" r="7.44242" fill="white" stroke="white" stroke-width="4"/>
<path d="M94.5 56C90.1956 56 87.1261 58.0184 85.1889 60.5498C83.3077 63.008 82.4533 65.9895 82.4533 68.2143V74.9244L79.2967 79.838C77.5864 82.5001 79.4979 86 82.662 86H106.471C109.579 86 111.499 82.6111 109.903 79.945L106.917 74.9585V68.2143C106.917 66.0143 105.926 63.0286 103.969 60.5846C101.957 58.07 98.8121 56 94.5 56Z" fill="white" stroke="white" stroke-width="4"/>
<path d="M109 69C109 69 108.895 65.5 108 63C107.105 60.5 105.5 56.5 100 55" stroke="white" stroke-width="7" stroke-linecap="round" stroke-linejoin="round"/>
<circle cx="94.2497" cy="88.2598" r="4.44242" fill="white" stroke="#6D57E7" stroke-width="2"/>
<path d="M85.4533 68.2143C85.4533 66.6429 86.0942 64.3033 87.5714 62.373C89.0205 60.4793 91.2533 59 94.5 59C97.7428 59 100.077 60.5226 101.627 62.4593C103.206 64.4313 103.917 66.7688 103.917 68.2143V74.9585C103.917 75.5013 104.064 76.034 104.343 76.4998L107.329 81.4862C107.728 82.1528 107.248 83 106.471 83H82.662C81.871 83 81.3931 82.125 81.8207 81.4595L84.9773 76.546C85.2881 76.0622 85.4533 75.4994 85.4533 74.9244V68.2143Z" fill="white" stroke="#6D57E7" stroke-width="2"/>
<path d="M109 69C109 69 108.895 65.5 108 63C107.105 60.5 105.5 56.5 100 55" stroke="#6D57E7" stroke-width="2" stroke-linecap="round" stroke-linejoin="round"/>
</svg>
