<svg width="442" height="302" viewBox="0 0 442 302" fill="none" xmlns="http://www.w3.org/2000/svg">
<rect x="1" y="1" width="424" height="300" rx="19" fill="white" stroke="#D7DEE2" stroke-width="2"/>
<rect x="81" y="64" width="314" height="208" rx="9" stroke="#D7DEE2" stroke-width="2"/>
<rect x="277" y="79" width="108" height="178" rx="9" stroke="#D7DEE2" stroke-width="2"/>
<rect x="313" y="94" width="58" height="10" rx="5" fill="#EAEFF4"/>
<rect x="291" y="94" width="10" height="10" rx="5" fill="#EAEFF4"/>
<rect x="20" y="29" width="30" height="244" rx="15" fill="#F0F4F7"/>
<path d="M95.1111 48.25H82.6667C81.4921 48.25 80.75 47.4927 80.75 46.4545V37.5455C80.75 36.5073 81.4921 35.75 82.6667 35.75H95.3333C96.5079 35.75 97.25 36.5073 97.25 37.5455V46.3848C97.0526 47.3599 96.2008 48.25 95.1111 48.25Z" stroke="#6D57E7" stroke-width="1.5" stroke-miterlimit="10"/>
<mask id="path-8-inside-1" fill="white">
<path d="M97 39.1959L103.75 35.1961C104.594 34.6962 106 35.1961 106 36.1961V47.6954C106 48.6953 104.594 49.4453 103.75 48.6953L97 44.6956"/>
</mask>
<path d="M98 44.6956V39.1959H96V44.6956H98ZM103.75 35.1961L102.73 33.4755L102.73 33.4755L103.75 35.1961ZM103.75 48.6953L105.079 47.2005C104.983 47.1155 104.88 47.0399 104.77 46.9747L103.75 48.6953ZM98.0196 40.9165L104.77 36.9168L102.73 33.4755L95.9804 37.4753L98.0196 40.9165ZM104.77 36.9168C104.647 36.9896 104.553 36.9988 104.52 36.9999C104.487 37.0009 104.462 36.9963 104.432 36.984C104.405 36.9729 104.312 36.9294 104.211 36.8038C104.096 36.6611 104 36.4442 104 36.1961H108C108 34.6202 106.879 33.6642 105.95 33.2833C105.033 32.9067 103.794 32.8452 102.73 33.4755L104.77 36.9168ZM104 36.1961V47.6954H108V36.1961H104ZM104 47.6954C104 47.4638 104.083 47.2941 104.15 47.2019C104.213 47.1153 104.277 47.0717 104.328 47.0475C104.379 47.023 104.474 46.9913 104.613 47.0022C104.769 47.0143 104.943 47.0797 105.079 47.2005L102.421 50.1902C103.587 51.2263 105.06 51.1319 106.055 50.6556C107.006 50.2005 108 49.1653 108 47.6954H104ZM104.77 46.9747L98.0196 42.975L95.9804 46.4162L102.73 50.4159L104.77 46.9747Z" fill="#6D57E7" mask="url(#path-8-inside-1)"/>
<circle cx="123" cy="42" r="7" fill="#EAEFF4"/>
<circle cx="147" cy="42" r="7" fill="#EAEFF4"/>
<rect x="164" y="35" width="157" height="4" rx="2" fill="#EAEFF4"/>
<rect x="291" y="116" width="80" height="4" rx="2" fill="#EAEFF4"/>
<path d="M310.93 170.882L331 162.07L351.07 144.448" stroke="#D7DEE2" stroke-width="2" stroke-linecap="round" stroke-linejoin="round"/>
<path d="M315.709 183.136H306.524V201.281H315.709V183.136Z" fill="#F0F4F7"/>
<path d="M335.752 174.401H326.567V201.281H335.752V174.401Z" fill="#F0F4F7"/>
<path d="M355.821 156.646H346.636V201.281H355.821V156.646Z" fill="#F0F4F7"/>
<path d="M312.378 170.882C312.378 170.082 311.729 169.434 310.93 169.434C310.131 169.434 309.482 170.082 309.482 170.882C309.482 171.681 310.131 172.329 310.93 172.329C311.729 172.329 312.378 171.681 312.378 170.882Z" fill="white" stroke="#D7DEE2" stroke-width="2"/>
<path d="M332.448 162.07C332.448 161.271 331.8 160.623 331 160.623C330.201 160.623 329.552 161.271 329.552 162.07C329.552 162.87 330.201 163.518 331 163.518C331.8 163.518 332.448 162.87 332.448 162.07Z" fill="white" stroke="#D7DEE2" stroke-width="2"/>
<path d="M353.623 143.895C353.623 142.791 352.727 141.895 351.623 141.895C350.518 141.895 349.623 142.791 349.623 143.895C349.623 145 350.518 145.895 351.623 145.895C352.727 145.895 353.623 145 353.623 143.895Z" fill="white" stroke="#6D57E7" stroke-width="2"/>
<path d="M302.119 208.085H359.882" stroke="#B8C0CC" stroke-width="2" stroke-linecap="round"/>
<rect x="164" y="45" width="63" height="4" rx="2" fill="#EAEFF4"/>
<rect x="291" y="126" width="32" height="4" rx="2" fill="#EAEFF4"/>
<rect x="1" y="-1" width="15" height="15" rx="1" transform="matrix(1 0 0 -1 27 121)" stroke="#B8C0CC" stroke-width="2"/>
<path d="M28.7944 187.617C28.0866 187.993 28.0866 189.007 28.7944 189.383L41.2809 196.015C41.947 196.369 42.75 195.887 42.75 195.132L42.75 181.868C42.75 181.113 41.947 180.631 41.2809 180.985L28.7944 187.617Z" stroke="#B8C0CC" stroke-width="2"/>
<path d="M43 151.5C43 147.358 39.6421 144 35.5 144C31.3579 144 28 147.358 28 151.5C28 155.642 31.3579 159 35.5 159C39.6421 159 43 155.642 43 151.5Z" stroke="#B8C0CC" stroke-width="2"/>
<rect x="27" y="39" width="17" height="17" rx="8.5" fill="#B8C0CC"/>
<mask id="mask0" mask-type="alpha" maskUnits="userSpaceOnUse" x="139" y="131" width="92" height="92">
<path d="M140 213.502L140 176.664C140.003 164.82 144.71 153.462 153.087 145.087C161.465 136.711 172.826 132.004 184.674 132L185.326 132C191.194 132 197.004 133.156 202.425 135.401C207.846 137.646 212.772 140.937 216.921 145.086C221.069 149.234 224.359 154.159 226.604 159.579C228.848 165 230.002 170.808 230 176.675L230 177.325C230.001 183.193 228.846 189.003 226.601 194.423C224.356 199.844 221.064 204.769 216.914 208.918C212.764 213.067 207.837 216.357 202.414 218.602C196.991 220.847 191.18 222.001 185.31 222L148.511 222C146.257 221.989 144.098 221.09 142.504 219.496C140.911 217.903 140.011 215.745 140 213.492L140 213.502Z" fill="white" stroke="#B8C0CC" stroke-width="2" stroke-miterlimit="10"/>
</mask>
<g mask="url(#mask0)">
<path d="M140 213.502L140 176.664C140.003 164.82 144.71 153.462 153.087 145.087C161.465 136.711 172.826 132.004 184.674 132L185.326 132C191.194 132 197.004 133.156 202.425 135.401C207.846 137.646 212.772 140.937 216.921 145.086C221.069 149.234 224.359 154.159 226.604 159.579C228.848 165 230.002 170.808 230 176.675L230 177.325C230.001 183.193 228.846 189.003 226.601 194.423C224.356 199.844 221.064 204.769 216.914 208.918C212.764 213.067 207.837 216.357 202.414 218.602C196.991 220.847 191.18 222.001 185.31 222L148.511 222C146.257 221.989 144.098 221.09 142.504 219.496C140.911 217.903 140.011 215.745 140 213.492L140 213.502Z" fill="white" stroke="#B8C0CC" stroke-width="2" stroke-miterlimit="10"/>
<path d="M147.195 176.664L147.195 213.491C147.205 215.745 148.105 217.903 149.699 219.496C151.293 221.089 153.452 221.989 155.706 221.999L155.706 229.066L132.558 229.066L132.558 128.603L192.52 128.603L192.52 131.999L191.869 131.999C180.021 132.003 168.659 136.711 160.282 145.086C151.905 153.462 147.197 164.82 147.195 176.664Z" fill="#EAEFF4"/>
<path d="M140 213.502L140 176.664C140.003 164.82 144.71 153.462 153.087 145.087C161.465 136.711 172.826 132.004 184.674 132L185.326 132C191.194 132 197.004 133.156 202.425 135.401C207.846 137.646 212.772 140.937 216.921 145.086C221.069 149.234 224.359 154.159 226.604 159.579C228.848 165 230.002 170.808 230 176.675L230 177.325C230.001 183.193 228.846 189.003 226.601 194.423C224.356 199.844 221.064 204.769 216.914 208.918C212.764 213.067 207.837 216.357 202.414 218.602C196.991 220.847 191.18 222.001 185.31 222L148.511 222C146.257 221.989 144.098 221.09 142.504 219.496C140.911 217.903 140.011 215.745 140 213.492L140 213.502Z" stroke="#B8C0CC" stroke-width="2" stroke-miterlimit="10"/>
</g>
<path d="M212.777 171.282H205.281C204.177 171.282 203.27 172.202 203.661 173.235C204.435 175.282 206.35 177.199 209.012 177.199C212.468 177.199 213.965 175.217 214.511 173.258C214.807 172.194 213.882 171.282 212.777 171.282Z" fill="#B8C0CC"/>
<path d="M198.075 166.135C200.431 166.135 202.34 164.221 202.34 161.861C202.34 159.501 200.431 157.588 198.075 157.588C195.719 157.588 193.81 159.501 193.81 161.861C193.81 164.221 195.719 166.135 198.075 166.135Z" fill="#B8C0CC"/>
<path d="M216.843 166.135C219.198 166.135 221.108 164.221 221.108 161.861C221.108 159.501 219.198 157.588 216.843 157.588C214.487 157.588 212.577 159.501 212.577 161.861C212.577 164.221 214.487 166.135 216.843 166.135Z" fill="#B8C0CC"/>
<path d="M393.954 207.632C377.679 206.582 352.269 231.047 349.329 265.908" stroke="#B8C0CC" stroke-width="2"/>
<mask id="mask1" mask-type="alpha" maskUnits="userSpaceOnUse" x="351" y="210" width="91" height="92">
<path d="M441 291.938L441 255.731C440.997 244.09 436.362 232.926 428.113 224.694C419.864 216.462 408.676 211.836 397.01 211.832L396.369 211.832C390.591 211.832 384.869 212.968 379.531 215.174C374.193 217.381 369.343 220.616 365.258 224.693C361.173 228.771 357.933 233.612 355.723 238.939C353.513 244.266 352.377 249.975 352.379 255.741L352.379 256.381C352.378 262.147 353.515 267.858 355.726 273.186C357.937 278.514 361.178 283.355 365.265 287.432C369.351 291.51 374.203 294.744 379.542 296.95C384.882 299.156 390.604 300.291 396.384 300.29L432.619 300.29C434.839 300.28 436.964 299.395 438.533 297.829C440.103 296.263 440.989 294.142 441 291.928L441 291.938Z" fill="white" stroke="#6D57E7" stroke-width="2" stroke-miterlimit="10"/>
</mask>
<g mask="url(#mask1)">
<path d="M441 291.938L441 255.731C440.997 244.09 436.362 232.926 428.113 224.694C419.864 216.462 408.676 211.836 397.01 211.832L396.369 211.832C390.591 211.832 384.869 212.968 379.531 215.174C374.193 217.381 369.343 220.616 365.258 224.693C361.173 228.771 357.933 233.612 355.723 238.939C353.513 244.266 352.377 249.975 352.379 255.741L352.379 256.381C352.378 262.147 353.515 267.858 355.726 273.186C357.937 278.514 361.178 283.355 365.265 287.432C369.351 291.51 374.203 294.744 379.542 296.95C384.882 299.156 390.604 300.291 396.384 300.29L432.619 300.29C434.839 300.28 436.964 299.395 438.533 297.829C440.103 296.263 440.989 294.142 441 291.928L441 291.938Z" fill="white" stroke="#6D57E7" stroke-width="2" stroke-miterlimit="10"/>
<path d="M433.915 255.731L433.915 291.927C433.905 294.142 433.018 296.263 431.449 297.829C429.88 299.395 427.754 300.279 425.535 300.289L425.535 307.235L448.328 307.235L448.328 208.493L389.284 208.493L389.284 211.831L389.925 211.831C401.592 211.835 412.779 216.462 421.028 224.694C429.277 232.926 433.913 244.089 433.915 255.731Z" fill="#EAEFF4"/>
<path d="M441 291.938L441 255.731C440.997 244.09 436.362 232.926 428.113 224.694C419.864 216.462 408.676 211.836 397.01 211.832L396.369 211.832C390.591 211.832 384.869 212.968 379.531 215.174C374.193 217.381 369.343 220.616 365.258 224.693C361.173 228.771 357.933 233.612 355.723 238.939C353.513 244.266 352.377 249.975 352.379 255.741L352.379 256.381C352.378 262.147 353.515 267.858 355.726 273.186C357.937 278.514 361.178 283.355 365.265 287.432C369.351 291.51 374.203 294.744 379.542 296.95C384.882 299.156 390.604 300.291 396.384 300.29L432.619 300.29C434.839 300.28 436.964 299.395 438.533 297.829C440.103 296.263 440.989 294.142 441 291.928L441 291.938Z" stroke="#6D57E7" stroke-width="2" stroke-miterlimit="10"/>
</g>
<path d="M385.554 244.382C387.873 244.382 389.754 242.502 389.754 240.182C389.754 237.862 387.873 235.982 385.554 235.982C383.234 235.982 381.354 237.862 381.354 240.182C381.354 242.502 383.234 244.382 385.554 244.382Z" fill="#6D57E7"/>
<path d="M365.604 244.382C367.923 244.382 369.804 242.502 369.804 240.182C369.804 237.862 367.923 235.982 365.604 235.982C363.284 235.982 361.404 237.862 361.404 240.182C361.404 242.502 363.284 244.382 365.604 244.382Z" fill="#6D57E7"/>
<path d="M423.564 237.872C423.564 221.171 416.529 207.632 393.954 207.632" stroke="#B8C0CC" stroke-width="2"/>
<circle cx="422.304" cy="239.133" r="5.04006" fill="#6D57E7"/>
<path d="M379.254 282.813H351.245C351.072 282.813 350.897 282.782 350.787 282.648C350.502 282.302 349.947 281.231 349.369 277.933C348.539 273.192 349.369 265.172 349.369 265.172" stroke="#B8C0CC" stroke-width="2" stroke-linecap="round" stroke-linejoin="round"/>
<path d="M379.989 277.772C376.586 277.772 373.766 280.071 373.249 283.077C373.155 283.621 373.612 284.073 374.164 284.073H385.814C386.366 284.073 386.823 283.621 386.729 283.077C386.212 280.071 383.391 277.772 379.989 277.772Z" fill="#6D57E7" stroke="#6D57E7" stroke-width="2"/>
<path d="M373.896 262.199C370.869 262.199 368.302 260.38 367.409 257.861C367.039 256.82 367.967 255.899 369.071 255.899H378.721C379.826 255.899 380.753 256.82 380.384 257.861C379.491 260.38 376.924 262.199 373.896 262.199Z" fill="#6D57E7"/>
</svg>
