<svg width="110" height="113" viewBox="0 0 110 113" fill="none" xmlns="http://www.w3.org/2000/svg">
<path d="M52.86 106.72C82.0538 106.72 105.72 83.0538 105.72 53.86C105.72 24.6662 82.0538 1 52.86 1C23.6662 1 0 24.6662 0 53.86C0 83.0538 23.6662 106.72 52.86 106.72Z" fill="#F0F4F7"/>
<path d="M81.475 17H48.805C43.9421 17 40 20.9421 40 25.805V103.125C40 107.988 43.9421 111.93 48.805 111.93H81.475C86.3379 111.93 90.28 107.988 90.28 103.125V25.805C90.28 20.9421 86.3379 17 81.475 17Z" fill="white" stroke="#B8C0CC" stroke-width="2" stroke-miterlimit="10"/>
<path d="M65.0073 75.5407C65.3739 75.5407 65.7254 75.3815 65.9846 75.0982C66.2438 74.8148 66.3895 74.4306 66.3895 74.0299V73.1138C67.5848 73.0354 68.7077 72.4615 69.5292 71.5092C70.3507 70.5569 70.809 69.2979 70.8105 67.989V67.8384C70.8086 66.4778 70.3133 65.1735 69.4331 64.2114C68.5529 63.2493 67.3596 62.7079 66.1148 62.7058H63.7671C63.2784 62.667 62.8211 62.4274 62.4874 62.0352C62.1537 61.6429 61.9682 61.1271 61.9682 60.5914C61.9682 60.0558 62.1537 59.5401 62.4874 59.1478C62.8211 58.7556 63.2784 58.5158 63.7671 58.477H67.1949C67.3968 58.4773 67.5902 58.5652 67.733 58.7212C67.8757 58.8773 67.9561 59.0888 67.9564 59.3095V59.3452C67.9537 59.7342 68.0886 60.1094 68.3328 60.3924C68.5771 60.6754 68.912 60.8444 69.2675 60.8641C69.623 60.8838 69.9717 60.7528 70.2409 60.4983C70.5102 60.2437 70.6791 59.8854 70.7125 59.498V59.4746C70.7327 58.969 70.6617 58.4641 70.5034 57.9886C70.345 57.5131 70.1025 57.0763 69.7896 56.7032C69.4768 56.3302 69.0998 56.0282 68.6801 55.8145C68.2605 55.6008 67.8065 55.4796 67.344 55.4578H67.1928H66.3905V54.5518C66.3955 54.35 66.3634 54.1492 66.2963 53.9612C66.2291 53.7732 66.1281 53.6018 65.9993 53.4571C65.8705 53.3124 65.7166 53.1974 65.5465 53.1189C65.3764 53.0404 65.1935 53 65.0088 53C64.8241 53 64.6414 53.0404 64.4713 53.1189C64.3011 53.1974 64.1471 53.3124 64.0183 53.4571C63.8895 53.6018 63.7886 53.7732 63.7214 53.9612C63.6542 54.1492 63.6222 54.35 63.6272 54.5518V55.4611C63.0105 55.4709 62.4018 55.6136 61.8356 55.8807C61.2693 56.1478 60.7567 56.5341 60.3271 57.0177C59.8974 57.5013 59.5592 58.0727 59.3316 58.6992C59.104 59.3257 58.9915 59.995 59.0005 60.6691C59.0096 61.3431 59.14 62.0085 59.3843 62.6274C59.6286 63.2463 59.9821 63.8067 60.4245 64.2763C60.8669 64.7459 61.3898 65.1156 61.9629 65.3644C62.5361 65.6132 63.1484 65.7362 63.765 65.7263H66.1128C66.3675 65.7263 66.6197 65.7812 66.855 65.8877C67.0903 65.9942 67.3042 66.1504 67.4843 66.3472C67.6644 66.5441 67.8072 66.7777 67.9047 67.0349C68.0022 67.2921 68.0523 67.5679 68.0523 67.8463V67.998C68.0507 68.5591 67.8457 69.0966 67.4821 69.4927C67.1186 69.8888 66.6262 70.1112 66.1128 70.1112H62.6299C62.53 70.1114 62.431 70.09 62.3386 70.0483C62.2462 70.0066 62.1622 69.9454 62.0915 69.8682C62.0208 69.791 61.9647 69.6993 61.9264 69.5984C61.8881 69.4975 61.8685 69.3892 61.8685 69.28V69.2655V69.1093C61.8679 68.7138 61.7255 68.3344 61.4718 68.0524C61.2182 67.7704 60.8736 67.6083 60.5119 67.601C60.1501 67.5937 59.8002 67.7417 59.5372 68.0133C59.2742 68.2849 59.1191 68.6583 59.1052 69.0535V69.2108C59.0967 69.7166 59.1794 70.2193 59.3487 70.6901C59.5179 71.1609 59.7704 71.5906 60.0917 71.9547C60.413 72.3188 60.7967 72.6102 61.221 72.8121C61.6453 73.0141 62.1019 73.1227 62.5646 73.1317H63.6242V74.0377C63.6245 74.4382 63.7702 74.8222 64.0294 75.1053C64.2886 75.3883 64.6399 75.5474 65.0063 75.5474L65.0073 75.5407Z" fill="#B8C0CC"/>
<path d="M87 77L94 84.5385L87 91" stroke="white" stroke-width="9" stroke-linecap="round" stroke-linejoin="round"/>
<path d="M65.109 107.012C67.1132 107.012 68.738 105.387 68.738 103.383C68.738 101.379 67.1132 99.7539 65.109 99.7539C63.1047 99.7539 61.48 101.379 61.48 103.383C61.48 105.387 63.1047 107.012 65.109 107.012Z" fill="#B8C0CC"/>
<path d="M87 77L94 84.5385L87 91" stroke="#6D57E7" stroke-width="2" stroke-linecap="round" stroke-linejoin="round"/>
<path d="M84 11H86.5C92.0228 11 96.5 15.4772 96.5 21V24" stroke="#6D57E7" stroke-width="2" stroke-linecap="round" stroke-linejoin="round"/>
<path d="M84 6H87C95.8366 6 103 13.1634 103 22V24" stroke="#6D57E7" stroke-width="2" stroke-linecap="round" stroke-linejoin="round"/>
<path d="M84 1H87C99.1503 1 109 10.8497 109 23V24" stroke="#6D57E7" stroke-width="2" stroke-linecap="round" stroke-linejoin="round"/>
</svg>
