<svg width="140" height="115" viewBox="0 0 140 115" fill="none" xmlns="http://www.w3.org/2000/svg">
<path d="M52.861 105.72C82.0547 105.72 105.721 82.0538 105.721 52.86C105.721 23.6662 82.0547 0 52.861 0C23.6672 0 0.000976562 23.6662 0.000976562 52.86C0.000976562 82.0538 23.6672 105.72 52.861 105.72Z" fill="#F0F4F7"/>
<rect x="26" y="29.1198" width="96.7833" height="83.8985" rx="7" fill="white" stroke="#B8C0CC" stroke-width="2"/>
<path d="M74.3916 104.355C76.1706 104.355 77.6128 102.913 77.6128 101.133C77.6128 99.3545 76.1706 97.9123 74.3916 97.9123C72.6126 97.9123 71.1704 99.3545 71.1704 101.133C71.1704 102.913 72.6126 104.355 74.3916 104.355Z" fill="#B8C0CC"/>
<mask id="path-4-outside-1" maskUnits="userSpaceOnUse" x="97.2214" y="11.3737" width="37" height="38" fill="black">
<rect fill="white" x="97.2214" y="11.3737" width="37" height="38"/>
<path fill-rule="evenodd" clip-rule="evenodd" d="M128.955 32.6467C129.321 32.6467 129.602 32.9717 129.532 33.3306C128.35 39.3775 123.353 44.0589 117.15 44.768C116.805 44.8074 116.51 44.5314 116.51 44.1837V33.2467C116.51 32.9154 116.779 32.6467 117.11 32.6467H128.955ZM113.91 30.6467C114.241 30.6467 114.51 30.3781 114.51 30.0467V16.9616C114.51 16.614 114.215 16.3379 113.869 16.3774C106.751 17.1911 101.221 23.2362 101.221 30.5727C101.221 30.6136 101.255 30.6467 101.296 30.6467H113.91ZM101.487 33.3306C101.417 32.9717 101.699 32.6467 102.064 32.6467H113.91C114.241 32.6467 114.51 32.9154 114.51 33.2467V44.1837C114.51 44.5314 114.215 44.8074 113.87 44.768C107.666 44.059 102.67 39.3775 101.487 33.3306Z"/>
</mask>
<path fill-rule="evenodd" clip-rule="evenodd" d="M128.955 32.6467C129.321 32.6467 129.602 32.9717 129.532 33.3306C128.35 39.3775 123.353 44.0589 117.15 44.768C116.805 44.8074 116.51 44.5314 116.51 44.1837V33.2467C116.51 32.9154 116.779 32.6467 117.11 32.6467H128.955ZM113.91 30.6467C114.241 30.6467 114.51 30.3781 114.51 30.0467V16.9616C114.51 16.614 114.215 16.3379 113.869 16.3774C106.751 17.1911 101.221 23.2362 101.221 30.5727C101.221 30.6136 101.255 30.6467 101.296 30.6467H113.91ZM101.487 33.3306C101.417 32.9717 101.699 32.6467 102.064 32.6467H113.91C114.241 32.6467 114.51 32.9154 114.51 33.2467V44.1837C114.51 44.5314 114.215 44.8074 113.87 44.768C107.666 44.059 102.67 39.3775 101.487 33.3306Z" fill="#B8C0CC"/>
<path d="M101.487 33.3306L97.5617 34.0983L101.487 33.3306ZM113.869 16.3774L114.324 20.3515L113.869 16.3774ZM129.532 33.3306L125.607 32.563L129.532 33.3306ZM117.15 44.768L116.696 40.7938L117.15 44.768ZM117.604 48.7421C125.554 47.8335 131.943 41.8429 133.458 34.0983L125.607 32.563C124.756 36.9121 121.153 40.2844 116.696 40.7938L117.604 48.7421ZM112.51 33.2467V44.1837H120.51V33.2467H112.51ZM128.955 28.6467H117.11V36.6467H128.955V28.6467ZM118.51 30.0467V16.9616H110.51V30.0467H118.51ZM113.415 12.4033C104.299 13.4452 97.2214 21.1795 97.2214 30.5727H105.221C105.221 25.2928 109.202 20.9369 114.324 20.3515L113.415 12.4033ZM101.296 34.6467H113.91V26.6467H101.296V34.6467ZM113.91 28.6467H102.064V36.6467H113.91V28.6467ZM118.51 44.1837V33.2467H110.51V44.1837H118.51ZM97.5617 34.0983C99.0762 41.843 105.466 47.8336 113.415 48.7421L114.324 40.7938C109.866 40.2844 106.264 36.9121 105.413 32.563L97.5617 34.0983ZM110.51 44.1837C110.51 42.2652 112.175 40.5483 114.324 40.7938L113.415 48.7421C116.255 49.0666 118.51 46.7976 118.51 44.1837H110.51ZM102.064 28.6467C99.3187 28.6467 96.9825 31.1361 97.5617 34.0983L105.413 32.563C105.852 34.8073 104.079 36.6467 102.064 36.6467V28.6467ZM113.91 36.6467C112.032 36.6467 110.51 35.1245 110.51 33.2467H118.51C118.51 30.7062 116.45 28.6467 113.91 28.6467V36.6467ZM97.2214 30.5727C97.2214 32.836 99.0588 34.6467 101.296 34.6467V26.6467C103.451 26.6467 105.221 28.3913 105.221 30.5727H97.2214ZM118.51 16.9616C118.51 14.3461 116.253 12.0789 113.415 12.4033L114.324 20.3515C112.177 20.597 110.51 18.8819 110.51 16.9616H118.51ZM110.51 30.0467C110.51 28.169 112.032 26.6467 113.91 26.6467V34.6467C116.45 34.6467 118.51 32.5872 118.51 30.0467H110.51ZM120.51 33.2467C120.51 35.1245 118.988 36.6467 117.11 36.6467V28.6467C114.569 28.6467 112.51 30.7062 112.51 33.2467H120.51ZM133.458 34.0983C134.037 31.1361 131.701 28.6467 128.955 28.6467V36.6467C126.941 36.6467 125.168 34.8073 125.607 32.563L133.458 34.0983ZM116.696 40.7938C118.845 40.5482 120.51 42.2651 120.51 44.1837H112.51C112.51 46.7976 114.765 49.0666 117.604 48.7421L116.696 40.7938Z" fill="white" mask="url(#path-4-outside-1)"/>
<mask id="path-6-outside-2" maskUnits="userSpaceOnUse" x="114.602" y="5" width="26" height="28" fill="black">
<rect fill="white" x="114.602" y="5" width="26" height="28"/>
<path fill-rule="evenodd" clip-rule="evenodd" d="M133.89 26.199C133.89 26.2386 133.858 26.2706 133.818 26.2706H121.202C120.871 26.2706 120.602 26.002 120.602 25.6706V12.588C120.602 12.2403 120.897 11.9643 121.243 12.0038C128.361 12.8177 133.89 18.8627 133.89 26.199Z"/>
</mask>
<path fill-rule="evenodd" clip-rule="evenodd" d="M133.89 26.199C133.89 26.2386 133.858 26.2706 133.818 26.2706H121.202C120.871 26.2706 120.602 26.002 120.602 25.6706V12.588C120.602 12.2403 120.897 11.9643 121.243 12.0038C128.361 12.8177 133.89 18.8627 133.89 26.199Z" fill="white"/>
<path d="M121.202 32.2706H133.818V20.2706H121.202V32.2706ZM114.602 12.588V25.6706H126.602V12.588H114.602ZM139.89 26.199C139.89 15.7778 132.038 7.19912 121.924 6.04262L120.561 17.9649C124.684 18.4364 127.89 21.9475 127.89 26.199H139.89ZM126.602 12.588C126.602 15.6422 123.954 18.3529 120.561 17.9649L121.924 6.04262C117.84 5.5756 114.602 8.83837 114.602 12.588H126.602ZM133.818 32.2706C137.166 32.2706 139.882 29.5612 139.89 26.2137L127.89 26.1842C127.898 22.9159 130.55 20.2706 133.818 20.2706V32.2706ZM121.202 20.2706C124.184 20.2706 126.602 22.6883 126.602 25.6706H114.602C114.602 29.3157 117.557 32.2706 121.202 32.2706V20.2706Z" fill="white" mask="url(#path-6-outside-2)"/>
<mask id="path-8-outside-3" maskUnits="userSpaceOnUse" x="118.722" y="9.23688" width="18" height="20" fill="black">
<rect fill="white" x="118.722" y="9.23688" width="18" height="20"/>
<path fill-rule="evenodd" clip-rule="evenodd" d="M134.01 26.4359C134.01 26.4754 133.978 26.5074 133.938 26.5074L121.322 26.5074C120.991 26.5074 120.722 26.2388 120.722 25.9074V12.8249C120.722 12.4772 121.017 12.2012 121.362 12.2406C128.481 13.0545 134.01 19.0995 134.01 26.4359Z"/>
</mask>
<path d="M133.938 26.5074V28.5074V26.5074ZM121.322 26.5074L121.322 24.5074L121.322 26.5074ZM121.322 28.5074L133.938 28.5074V24.5074L121.322 24.5074L121.322 28.5074ZM118.722 12.8249V25.9074H122.722V12.8249H118.722ZM136.01 26.4359C136.01 18.0712 129.707 11.1816 121.59 10.2536L121.135 14.2277C127.255 14.9274 132.01 20.1278 132.01 26.4359H136.01ZM122.722 12.8249C122.722 13.6112 122.036 14.3307 121.135 14.2277L121.59 10.2536C119.998 10.0716 118.722 11.3432 118.722 12.8249H122.722ZM133.938 28.5074C135.08 28.5074 136.007 27.5829 136.01 26.4408L132.01 26.4309C132.013 25.3679 132.875 24.5074 133.938 24.5074V28.5074ZM121.322 24.5074C122.095 24.5074 122.722 25.1342 122.722 25.9074H118.722C118.722 27.3433 119.886 28.5074 121.322 28.5074L121.322 24.5074Z" fill="#6D57E7" mask="url(#path-8-outside-3)"/>
<rect x="65.4111" y="71.4604" width="6.66201" height="18.9356" rx="0.6" fill="#B8C0CC"/>
<rect x="53.9907" y="77.7724" width="6.66201" height="12.6237" rx="0.6" fill="#B8C0CC"/>
<rect x="76.8318" y="73.9852" width="6.66201" height="16.4109" rx="0.6" fill="#B8C0CC"/>
<rect x="89.2043" y="66.411" width="6.66201" height="23.9851" rx="0.6" fill="#B8C0CC"/>
<path d="M57.444 69.1498L68.771 62.8379L80.0981 65.3627L92.6837 57.7885" stroke="#B8C0CC" stroke-width="2" stroke-linecap="round" stroke-linejoin="round"/>
<path d="M70.6214 63.3465C70.6214 64.3898 69.7786 65.233 68.7421 65.233C67.7056 65.233 66.8628 64.3898 66.8628 63.3465C66.8628 62.3031 67.7056 61.46 68.7421 61.46C69.7786 61.46 70.6214 62.3031 70.6214 63.3465Z" fill="white" stroke="#6D57E7"/>
<path d="M82.0418 65.8711C82.0418 66.9144 81.199 67.7576 80.1625 67.7576C79.126 67.7576 78.2832 66.9144 78.2832 65.8711C78.2832 64.8278 79.126 63.9846 80.1625 63.9846C81.199 63.9846 82.0418 64.8278 82.0418 65.8711Z" fill="white" stroke="#6D57E7"/>
<path d="M59.2011 69.6583C59.2011 70.7016 58.3583 71.5448 57.3218 71.5448C56.2853 71.5448 55.4425 70.7016 55.4425 69.6583C55.4425 68.615 56.2853 67.7718 57.3218 67.7718C58.3583 67.7718 59.2011 68.615 59.2011 69.6583Z" fill="white" stroke="#6D57E7"/>
<path d="M94.4143 58.297C94.4143 59.3403 93.5715 60.1835 92.5351 60.1835C91.4986 60.1835 90.6558 59.3403 90.6558 58.297C90.6558 57.2536 91.4986 56.4105 92.5351 56.4105C93.5715 56.4105 94.4143 57.2536 94.4143 58.297Z" fill="white" stroke="#6D57E7"/>
</svg>
