<svg width="66" height="72" viewBox="0 0 66 72" fill="none" xmlns="http://www.w3.org/2000/svg">
<g clip-path="url(#clip0)">
<path d="M32.8076 32.751C31.5254 32.751 30.486 33.7965 30.486 35.0862C30.4858 36.0187 31.0307 36.8211 31.8163 37.1955V40.0342C31.8163 40.5848 32.26 41.0312 32.8075 41.0312C33.3551 41.0312 33.7988 40.5849 33.7988 40.0342V37.1955C34.5846 36.8211 35.1294 36.0187 35.1294 35.0862C35.1294 33.7965 34.09 32.751 32.8076 32.751Z" fill="#6D57E7"/>
<path d="M1.23918 12.8371C7.9858 12.8371 14.1702 7.75257 14.1702 0.973145H51.3567C51.3567 7.75257 57.547 12.8371 64.3 12.8371C64.3 29.7857 66.5198 54.0786 32.7546 71.0272C-0.978534 54.0786 1.23918 29.7857 1.23918 12.8371Z" stroke="#B8C0CC" stroke-width="1.88" stroke-linejoin="round"/>
<path d="M41.4759 26.1487V20.6757C41.4759 15.8394 37.5779 11.9189 32.7695 11.9189C27.9612 11.9189 24.0632 15.8394 24.0632 20.6757V26.1487" stroke="#6D57E7" stroke-width="1.88"/>
<path d="M44.0153 27.1216H21.524C20.4554 27.1216 19.5892 27.9928 19.5892 29.0675V45.1216C19.5892 46.1963 20.4554 47.0675 21.524 47.0675H44.0153C45.0838 47.0675 45.95 46.1963 45.95 45.1216V29.0675C45.95 27.9928 45.0838 27.1216 44.0153 27.1216Z" stroke="#6D57E7" stroke-width="1.88"/>
</g>
<defs>
<clipPath id="clip0">
<rect width="65.781" height="72" fill="white"/>
</clipPath>
</defs>
</svg>
