<svg width="198" height="183" viewBox="0 0 198 183" fill="none" xmlns="http://www.w3.org/2000/svg">
<path d="M77.5735 0.13623H16.4686C7.37324 0.13623 0 7.61104 0 16.8317V163.441C0 172.661 7.37324 180.136 16.4686 180.136H77.5735C86.6689 180.136 94.0421 172.661 94.0421 163.441V16.8317C94.0421 7.61104 86.6689 0.13623 77.5735 0.13623Z" fill="#D7DEE2"/>
<path d="M74.9397 5H19.0603C10.7427 5 4 11.7273 4 20.0259V151.974C4 160.273 10.7427 167 19.0603 167H74.9397C83.2573 167 90 160.273 90 151.974V20.0259C90 11.7273 83.2573 5 74.9397 5Z" fill="white"/>
<rect x="14.4932" y="64.1653" width="65.219" height="77.3181" rx="4" fill="#F0F4F7"/>
<path d="M48.28 128.172C48.28 126.119 49.948 124.451 52 124.451H55.6597C56.2895 124.451 56.8 123.94 56.8 123.31C56.8 122.681 56.2895 122.17 55.6597 122.17H52C48.688 122.17 46 124.859 46 128.172C46 131.485 48.688 134.173 52 134.173H55.6597C56.2895 134.173 56.8 133.663 56.8 133.033C56.8 132.403 56.2895 131.893 55.6597 131.893H52C49.948 131.893 48.28 130.224 48.28 128.172ZM53.2 128.172C53.2 128.835 53.7374 129.372 54.4003 129.372H61.5997C62.2626 129.372 62.8 128.835 62.8 128.172C62.8 127.509 62.2626 126.971 61.5997 126.971H54.4003C53.7374 126.971 53.2 127.509 53.2 128.172ZM64 122.17H60.3403C59.7105 122.17 59.2 122.681 59.2 123.31C59.2 123.94 59.7105 124.451 60.3403 124.451H64C66.052 124.451 67.72 126.119 67.72 128.172C67.72 130.224 66.052 131.893 64 131.893H60.3403C59.7105 131.893 59.2 132.403 59.2 133.033C59.2 133.663 59.7105 134.173 60.3403 134.173H64C67.312 134.173 70 131.485 70 128.172C70 124.859 67.312 122.17 64 122.17Z" fill="#6D57E7"/>
<path fill-rule="evenodd" clip-rule="evenodd" d="M26 100.164C25.4477 100.164 25 100.612 25 101.164V104.288V106.413V110.276C25 110.742 25.5809 110.954 25.8817 110.599L28.5768 107.413H52.9862C53.5385 107.413 53.9862 106.965 53.9862 106.413V101.164C53.9862 100.612 53.5385 100.164 52.9862 100.164H26Z" fill="#D7DEE2"/>
<path fill-rule="evenodd" clip-rule="evenodd" d="M69 78.158C69.5523 78.158 70 78.6057 70 79.158V82.2822V84.4065V88.2696C70 88.7354 69.4191 88.9482 69.1183 88.5925L66.4232 85.4065H42.0138C41.4615 85.4065 41.0138 84.9588 41.0138 84.4065V79.158C41.0138 78.6057 41.4615 78.158 42.0138 78.158H69Z" fill="#D7DEE2"/>
<path d="M49.1349 40.1885H37.111C35.608 40.1885 34.5344 39.2001 34.5344 37.8163V29.5134C34.5344 28.1296 35.608 27.1411 37.111 27.1411H49.3496C50.8526 27.1411 51.9262 28.1296 51.9262 29.5134V37.8163C51.7114 39.0024 50.6379 40.1885 49.1349 40.1885Z" stroke="#6D57E7" stroke-width="1.5" stroke-miterlimit="10"/>
<path d="M51.9261 31.0515L58.448 27.3239C59.2633 26.858 60.622 27.3239 60.622 28.2558V38.9727C60.622 39.9046 59.2633 40.6035 58.448 39.9046L51.9261 36.177" stroke="#6D57E7" stroke-width="1.5" stroke-miterlimit="10" stroke-linejoin="round"/>
<g clip-path="url(#clip0)">
<path d="M194.997 157.88V131.511C194.997 105.603 173.605 84.6455 147.158 84.6455H146.453C120.007 84.6455 98.6161 105.603 98.6161 131.511V132.202C98.6161 158.111 120.007 179.068 146.453 179.068H181.48C193.47 179.068 194.879 169.627 194.997 157.88Z" fill="white"/>
<path d="M195.115 131.858V172.276C195.115 175.961 192.059 178.954 188.298 178.954H179.248C183.007 178.954 186.063 175.961 186.063 172.276V131.742C186.063 99.0396 159.266 84.8761 139.754 85.3369C142.222 84.9921 144.808 84.7617 147.277 84.7617C173.605 84.9921 194.997 105.949 195.115 131.858Z" fill="#EAEFF4"/>
<path d="M196.055 170.203V131.628C196.055 105.719 174.663 84.7617 148.216 84.7617H147.511C121.065 84.7617 99.6725 105.719 99.6725 131.628V132.319C99.6725 158.227 121.065 179.185 147.511 179.185H186.887C191.941 179.069 196.055 175.154 196.055 170.203Z" stroke="#6D57E7" stroke-width="1.88" stroke-miterlimit="10"/>
<path d="M128.117 113.894C128.117 111.592 126.119 109.633 123.768 109.633C121.417 109.633 119.419 111.592 119.419 113.894C119.419 116.198 121.417 118.156 123.768 118.156C126.119 118.156 128.117 116.314 128.117 113.894Z" fill="#B8C0CC"/>
</g>
<g clip-path="url(#clip1)">
<path d="M63.3907 124.893C64.3775 124.692 65.4003 124.785 66.3322 125.164C67.264 125.543 68.0621 126.19 68.6254 127.021C69.187 127.852 69.4913 128.831 69.495 129.836C69.5001 130.839 69.2062 131.821 68.65 132.661C68.0952 133.498 67.3034 134.153 66.3754 134.542C65.4474 134.931 64.4243 135.038 63.4359 134.848C62.4475 134.658 61.5382 134.179 60.8233 133.474C60.1085 132.769 59.6202 131.867 59.4194 130.883C59.1502 129.564 59.4186 128.192 60.163 127.068C60.9077 125.945 62.0689 125.163 63.3907 124.893Z" fill="#6D57E7"/>
<path d="M64.4058 129.865C64.4058 129.865 96.2017 158.325 136.503 138.811" stroke="#6D57E7" stroke-width="1.88" stroke-linecap="round" stroke-linejoin="round"/>
</g>
<defs>
<clipPath id="clip0">
<rect width="100.538" height="98.7376" fill="white" transform="matrix(-1 0 0 1 197.651 83.2871)"/>
</clipPath>
<clipPath id="clip1">
<rect width="96.8833" height="36.5691" fill="white" transform="matrix(0.97977 -0.200127 0.20002 0.979792 56.7646 124.422)"/>
</clipPath>
</defs>
</svg>
