<svg width="82" height="72" viewBox="0 0 82 72" fill="none" xmlns="http://www.w3.org/2000/svg">
<path d="M14.8376 0.959961H65.3462L79.7337 17.2446L41.3167 70.08L1.89551 18.3835L14.8376 0.959961Z" stroke="#B8C0CC" stroke-width="1.88" stroke-miterlimit="10"/>
<path d="M23.2211 27.4799C23.2211 25.3592 24.9184 23.6399 27.0123 23.6399H30.685V34.4399H27.0123C24.9184 34.4399 23.2211 32.7206 23.2211 30.5999V27.4799Z" stroke="#6D57E7" stroke-width="1.88"/>
<path d="M58.4082 27.4799C58.4082 25.3592 56.7107 23.6399 54.6169 23.6399H50.9442V34.4399H54.6169C56.7107 34.4399 58.4082 32.7206 58.4082 30.5999V27.4799Z" stroke="#6D57E7" stroke-width="1.88"/>
<path d="M53.0767 23.6399V17.9999C53.0767 12.1678 48.409 7.43994 42.6509 7.43994H38.9782C33.2202 7.43994 28.5524 12.1678 28.5524 17.9999V23.6399" stroke="#6D57E7" stroke-width="1.88"/>
<path d="M53.0768 34.4399V37.4399C53.0768 41.1513 50.1064 44.1599 46.4422 44.1599H45.6129" stroke="#6D57E7" stroke-width="1.88"/>
<path d="M43.4803 42H40.2815C39.1037 42 38.1489 42.9671 38.1489 44.16C38.1489 45.3529 39.1037 46.32 40.2815 46.32H43.4803C44.6581 46.32 45.6129 45.3529 45.6129 44.16C45.6129 42.9671 44.6581 42 43.4803 42Z" stroke="#6D57E7" stroke-width="1.88"/>
</svg>
