<svg width="62" height="61" viewBox="0 0 62 61" fill="none" xmlns="http://www.w3.org/2000/svg">
<path d="M30.9808 14.6853C35.071 14.6853 38.3867 11.3979 38.3867 7.34266C38.3867 3.28742 35.071 0 30.9808 0C26.8907 0 23.575 3.28742 23.575 7.34266C23.575 11.3979 26.8907 14.6853 30.9808 14.6853Z" fill="#FE7C5F"/>
<path d="M31.0055 16.9331C24.2897 16.9331 19.9152 20.6594 19.9152 20.6594C19.9152 20.6594 20.2479 24.288 21.7266 30.5433C23.2053 36.7864 23.3655 41.4779 23.3655 41.4779C23.3655 41.4779 26.5447 43.4327 30.9808 43.4327C35.417 43.4327 38.6208 41.4779 38.6208 41.4779C38.6208 41.4779 38.781 36.7986 40.2597 30.5433C41.7385 24.3002 42.0712 20.6594 42.0712 20.6594C42.0712 20.6594 37.7213 16.9331 31.0055 16.9331Z" stroke="#B8C0CC" stroke-width="1.5" stroke-miterlimit="10"/>
<path d="M27.1732 17.3486C27.1732 17.3486 27.1732 19.7921 27.1732 20.6596C27.1732 21.527 27.4319 24.3614 30.9808 24.3614C34.5297 24.3614 34.961 21.7591 34.961 20.6596C34.961 19.56 34.961 17.3731 34.961 17.3731" stroke="#B8C0CC" stroke-width="1.5" stroke-miterlimit="10"/>
<path d="M42.0711 20.6592C42.0711 20.6592 50.4751 26.8045 60.9986 23.1027C60.9986 23.1027 60.8754 27.5376 55.9094 29.9444C50.9434 32.3512 45.4599 32.3634 40.3583 30.1765" stroke="#B8C0CC" stroke-width="1.5" stroke-miterlimit="10"/>
<path d="M19.9275 20.6592C19.9275 20.6592 11.5235 26.8045 1 23.1027C1 23.1027 1.12323 27.5376 6.08923 29.9444C11.0552 32.3512 16.5388 32.3634 21.6403 30.1765" stroke="#B8C0CC" stroke-width="1.5" stroke-miterlimit="10"/>
<path d="M23.3655 41.4783C23.3655 41.4783 6.02762 41.234 5.21433 46.4875C4.40104 51.7409 15.8487 59.9999 31.0055 59.9999" stroke="#B8C0CC" stroke-width="1.5" stroke-miterlimit="10"/>
<path d="M38.6332 41.4783C38.6332 41.4783 55.971 41.234 56.7843 46.4875C57.5976 51.7409 46.1623 59.9999 31.0055 59.9999" stroke="#B8C0CC" stroke-width="1.5" stroke-miterlimit="10"/>
<path d="M16.2184 49.0654C22.01 49.0654 24.647 52.5474 31.0548 52.5474C37.4625 52.5474 40.3706 49.0654 45.7926 49.0654" stroke="#B8C0CC" stroke-width="1.5" stroke-miterlimit="10"/>
<path d="M35.1705 52.0459C36.2672 52.0459 42.1574 52.9989 42.1574 58.46" stroke="#B8C0CC" stroke-width="1.5" stroke-miterlimit="10"/>
</svg>
