<svg xmlns="http://www.w3.org/2000/svg" width="62.423" height="79.129" viewBox="0 0 62.423 79.129">
  <g id="Free_setup_assistance_easy_migration" data-name="Free setup assistance &amp; easy migration" transform="translate(-134.338 -129)">
    <path id="Path_46" data-name="Path 46" d="M185.193,144.085A15.952,15.952,0,0,0,169.458,129a16.42,16.42,0,0,0-12.991,6.528c-.07-.036-.143-.061-.214-.1-.184-.089-.372-.174-.563-.251-.106-.042-.212-.08-.32-.117-.189-.066-.381-.125-.577-.178-.107-.029-.213-.059-.321-.083-.21-.048-.424-.084-.64-.116-.094-.014-.186-.033-.281-.043a8.359,8.359,0,0,0-9.324,8.328c0,.118.007.235.015.351v0a12.882,12.882,0,0,0-6.536,10.967,11.98,11.98,0,0,0,11.966,11.967H172.5c.1,0,.193-.006.29-.013l.058-.007.125.007c.1.007.19.013.288.013h9.132a11.218,11.218,0,0,0,11.2-11.2A11.465,11.465,0,0,0,185.193,144.085Zm-2.8,20.313h-9.132c-.055,0-.108,0-.162-.008l-.252-.01-.184.01c-.053,0-.107.008-.161.008h-22.83a10.114,10.114,0,0,1-10.1-10.1,11.073,11.073,0,0,1,5.993-9.551l.528-.252V143.9c0-.118.007-.238.014-.36l.008-.149-.011-.2c-.006-.075-.011-.151-.011-.227a6.477,6.477,0,0,1,7.375-6.458c.073.009.145.021.217.034a6.356,6.356,0,0,1,.735.165c.033.009.066.016.1.025a6.345,6.345,0,0,1,.778.3c.066.03.13.062.2.094a6.507,6.507,0,0,1,3.642,5.842.932.932,0,0,0,1.863,0,8.365,8.365,0,0,0-2.981-6.4,14.755,14.755,0,0,1,11.444-5.709A14.063,14.063,0,0,1,183.29,143.8a17.793,17.793,0,0,0-3.8.116.932.932,0,0,0,.139,1.853.9.9,0,0,0,.141-.011,17.111,17.111,0,0,1,4.363,0,9.547,9.547,0,0,1,7.607,9.3A9.353,9.353,0,0,1,182.395,164.4Z" transform="translate(-0.162)" fill="#b8c0cc"/>
    <g id="Group_17" data-name="Group 17" transform="translate(135.338 161.899)">
      <rect id="Rectangle_186" data-name="Rectangle 186" width="60.331" height="38.635" rx="3.303" fill="#fff" stroke="#8860d0" stroke-linecap="round" stroke-miterlimit="10" stroke-width="2"/>
      <path id="Path_47" data-name="Path 47" d="M161.158,205.883l-.779,6.5h14.38l-.733-6.595" transform="translate(-137.052 -167.157)" fill="none" stroke="#8860d0" stroke-linecap="round" stroke-miterlimit="10" stroke-width="2"/>
      <line id="Line_5" data-name="Line 5" x2="60.085" transform="translate(0.338 32.773)" fill="none" stroke="#8860d0" stroke-linecap="round" stroke-miterlimit="10" stroke-width="2"/>
    </g>
    <path id="Path_48" data-name="Path 48" d="M164.708,153v20.056l-3.972-3.844" transform="translate(-1.739 -1.643)" fill="none" stroke="#8860d0" stroke-linecap="round" stroke-linejoin="round" stroke-miterlimit="10" stroke-width="2"/>
    <path id="Path_49" data-name="Path 49" d="M172,174.526V154.47l3.972,3.844" transform="translate(-2.51 -1.744)" fill="none" stroke="#8860d0" stroke-linecap="round" stroke-linejoin="round" stroke-miterlimit="10" stroke-width="2"/>
  </g>
</svg>
