<svg xmlns="http://www.w3.org/2000/svg" width="105.719" height="105.719" viewBox="0 0 105.719 105.719">
  <g id="Group_677" data-name="Group 677" transform="translate(-1570.995 -1347.256)">
    <circle id="Ellipse_466" data-name="Ellipse 466" cx="52.86" cy="52.86" r="52.86" transform="translate(1570.995 1347.256)" fill="#f0f4f7"/>
    <circle id="Ellipse_467" data-name="Ellipse 467" cx="6.533" cy="6.533" r="6.533" transform="translate(1598.669 1375.728)" fill="#fcfdff" stroke="#8860d0" stroke-width="2"/>
    <path id="Path_904" data-name="Path 904" d="M1613.111,1402.8a1.935,1.935,0,0,0,1.91-2.338,10.094,10.094,0,0,0-19.637,0,1.935,1.935,0,0,0,1.91,2.338Z" fill="#fcfdff" stroke="#8860d0" stroke-width="2"/>
    <path id="Rectangle_840" data-name="Rectangle 840" d="M1.914,0H13.4a1.914,1.914,0,0,1,1.914,1.914v13.4a0,0,0,0,1,0,0H0a0,0,0,0,1,0,0V1.914A1.914,1.914,0,0,1,1.914,0Z" transform="translate(1598.257 1417.264)" fill="#fff" stroke="#b8c0cc" stroke-linecap="round" stroke-miterlimit="10" stroke-width="2"/>
    <path id="Rectangle_841" data-name="Rectangle 841" d="M2.788,0h9.738a2.788,2.788,0,0,1,2.788,2.788v29.7a0,0,0,0,1,0,0H0a0,0,0,0,1,0,0V2.788A2.788,2.788,0,0,1,2.788,0Z" transform="translate(1625.483 1400.092)" fill="#fff" stroke="#b8c0cc" stroke-linecap="round" stroke-miterlimit="10" stroke-width="2"/>
    <path id="Rectangle_842" data-name="Rectangle 842" d="M3.434,0H11.88a3.434,3.434,0,0,1,3.434,3.434V49.29a0,0,0,0,1,0,0H0a0,0,0,0,1,0,0V3.434A3.434,3.434,0,0,1,3.434,0Z" transform="translate(1652.708 1383.289)" fill="#fff" stroke="#b8c0cc" stroke-linecap="round" stroke-miterlimit="10" stroke-width="2"/>
    <line id="Line_247" data-name="Line 247" x2="85.913" transform="translate(1589.8 1432.579)" fill="#fff" stroke="#b8c0cc" stroke-linecap="round" stroke-miterlimit="10" stroke-width="2"/>
  </g>
</svg>
