<svg xmlns="http://www.w3.org/2000/svg" xmlns:xlink="http://www.w3.org/1999/xlink" width="148.1" height="203.06" viewBox="0 0 148.1 203.06">
  <defs>
    <clipPath id="clip-path">
      <path id="Path_331" data-name="Path 331" d="M148.915,140.223s4.837-10.168-1.918-18.171c0,0-7.226,6.7-27.563,12.056-14.876,3.916-13.869,16.842-13.869,16.842S113.9,139.572,148.915,140.223Z" transform="translate(-105.55 -122.052)" fill="none"/>
    </clipPath>
  </defs>
  <g id="Group_230" data-name="Group 230" transform="translate(-384.895 -35.889)">
    <rect id="Rectangle_399" data-name="Rectangle 399" width="137.637" height="192.818" rx="12" transform="translate(395.358 35.889)" fill="#b8c0cc"/>
    <path id="Rectangle_400" data-name="Rectangle 400" d="M7.214,0H117.659a9.006,9.006,0,0,1,9.006,9.006V166.423a9.006,9.006,0,0,1-9.006,9.006H9.006A9.006,9.006,0,0,1,0,166.423V7.214A7.214,7.214,0,0,1,7.214,0Z" transform="translate(400.844 40.272)" fill="#fff"/>
    <path id="Path_984" data-name="Path 984" d="M5.753-4.015a1.943,1.943,0,0,1,1.039.688,1.945,1.945,0,0,1,.369,1.2,1.875,1.875,0,0,1-.72,1.551A3.113,3.113,0,0,1,4.455,0H1.573A.8.8,0,0,1,.979-.209.8.8,0,0,1,.77-.8V-6.952a.8.8,0,0,1,.209-.594.8.8,0,0,1,.594-.209H4.345a3.1,3.1,0,0,1,1.919.539,1.751,1.751,0,0,1,.709,1.474A1.785,1.785,0,0,1,6.65-4.681,1.843,1.843,0,0,1,5.753-4.015ZM2.442-4.6H4.059a1.68,1.68,0,0,0,.974-.226.79.79,0,0,0,.313-.688.814.814,0,0,0-.313-.709,1.68,1.68,0,0,0-.974-.226H2.442ZM4.257-1.309a1.669,1.669,0,0,0,.99-.231.874.874,0,0,0,.308-.748.906.906,0,0,0-.308-.759,1.61,1.61,0,0,0-.99-.242H2.442v1.98Zm6.391-4.224a2.383,2.383,0,0,1,1.76.577A2.417,2.417,0,0,1,12.98-3.19V-.7a.754.754,0,0,1-.209.567.8.8,0,0,1-.583.2.766.766,0,0,1-.566-.215A.752.752,0,0,1,11.407-.7V-.781a1.3,1.3,0,0,1-.55.638,1.72,1.72,0,0,1-.9.231,2.218,2.218,0,0,1-1-.22,1.744,1.744,0,0,1-.7-.616A1.576,1.576,0,0,1,8-1.628a1.359,1.359,0,0,1,.3-.935,1.808,1.808,0,0,1,.973-.5,8.6,8.6,0,0,1,1.837-.154H11.4v-.2a.936.936,0,0,0-.2-.671.917.917,0,0,0-.676-.209,4.324,4.324,0,0,0-1.364.33,1.037,1.037,0,0,1-.429.121.477.477,0,0,1-.385-.171.67.67,0,0,1-.143-.446.623.623,0,0,1,.1-.363.915.915,0,0,1,.319-.264,3.563,3.563,0,0,1,.941-.33A5.132,5.132,0,0,1,10.648-5.533Zm-.33,4.477a1.009,1.009,0,0,0,.781-.325,1.2,1.2,0,0,0,.3-.842v-.187h-.187a3.759,3.759,0,0,0-1.248.143.517.517,0,0,0-.358.517.658.658,0,0,0,.2.5A.715.715,0,0,0,10.318-1.056Zm7.128-4.455a.687.687,0,0,1,.523.149.648.648,0,0,1,.192.511.734.734,0,0,1-.176.539,1.025,1.025,0,0,1-.627.22l-.33.033a1.252,1.252,0,0,0-.875.4,1.3,1.3,0,0,0-.269.847v2.1a.717.717,0,0,1-.236.583.886.886,0,0,1-.589.2.9.9,0,0,1-.6-.2.717.717,0,0,1-.237-.583V-4.752a.684.684,0,0,1,.242-.561.891.891,0,0,1,.583-.2.805.805,0,0,1,.55.193.672.672,0,0,1,.22.534v.3a1.529,1.529,0,0,1,.6-.726,1.859,1.859,0,0,1,.875-.286Zm4.532-.022a2.275,2.275,0,0,1,1.243.341,2.285,2.285,0,0,1,.841.974,3.367,3.367,0,0,1,.3,1.469,3.44,3.44,0,0,1-.3,1.479,2.372,2.372,0,0,1-.847,1,2.2,2.2,0,0,1-1.237.358,2.146,2.146,0,0,1-1.012-.237A1.683,1.683,0,0,1,20.273-.8v.088a.755.755,0,0,1-.22.567.814.814,0,0,1-.594.215.834.834,0,0,1-.6-.215.746.746,0,0,1-.226-.567V-7.051a.7.7,0,0,1,.236-.55.9.9,0,0,1,.622-.209.838.838,0,0,1,.583.2.676.676,0,0,1,.22.528v2.409a1.642,1.642,0,0,1,.688-.633A2.173,2.173,0,0,1,21.978-5.533Zm-.484,4.356a1.074,1.074,0,0,0,.9-.413,1.859,1.859,0,0,0,.319-1.16A1.743,1.743,0,0,0,22.4-3.878a1.1,1.1,0,0,0-.9-.39,1.086,1.086,0,0,0-.9.4,1.791,1.791,0,0,0-.319,1.138,1.81,1.81,0,0,0,.319,1.15A1.086,1.086,0,0,0,21.494-1.177Zm8.217-.429a.433.433,0,0,1,.358.176.711.711,0,0,1,.138.451.6.6,0,0,1-.11.347.89.89,0,0,1-.308.269,3.941,3.941,0,0,1-.869.325,3.707,3.707,0,0,1-.913.127,3.277,3.277,0,0,1-1.535-.341,2.388,2.388,0,0,1-1.007-.974,3.017,3.017,0,0,1-.352-1.49,3.056,3.056,0,0,1,.341-1.463,2.5,2.5,0,0,1,.946-1,2.651,2.651,0,0,1,1.375-.357,2.516,2.516,0,0,1,1.292.325,2.215,2.215,0,0,1,.863.924,3.03,3.03,0,0,1,.308,1.4.529.529,0,0,1-.115.368.417.417,0,0,1-.325.127h-3.08a1.466,1.466,0,0,0,.4.941,1.307,1.307,0,0,0,.913.291,1.963,1.963,0,0,0,.572-.077,5.526,5.526,0,0,0,.561-.209q.154-.066.3-.115A.787.787,0,0,1,29.711-1.606ZM27.819-4.389a1,1,0,0,0-.759.3,1.435,1.435,0,0,0-.341.874h2.123a1.436,1.436,0,0,0-.292-.88A.918.918,0,0,0,27.819-4.389Zm6.644-1.122a.687.687,0,0,1,.522.149.648.648,0,0,1,.193.511A.734.734,0,0,1,35-4.312a1.025,1.025,0,0,1-.627.22l-.33.033a1.252,1.252,0,0,0-.875.4,1.3,1.3,0,0,0-.27.847v2.1a.717.717,0,0,1-.236.583.886.886,0,0,1-.589.2.9.9,0,0,1-.6-.2.717.717,0,0,1-.236-.583V-4.752a.684.684,0,0,1,.242-.561.891.891,0,0,1,.583-.2.805.805,0,0,1,.55.193.672.672,0,0,1,.22.534v.3a1.529,1.529,0,0,1,.6-.726,1.859,1.859,0,0,1,.875-.286Z" transform="translate(430.712 59.386)" fill="#8860d0"/>
    <path id="Path_989" data-name="Path 989" d="M.28,0V-2.84h.984a1.178,1.178,0,0,1,.482.09A.728.728,0,0,1,2.06-2.5a.671.671,0,0,1,.112.388.684.684,0,0,1-.094.36.641.641,0,0,1-.27.244.7.7,0,0,1,.356.266A.747.747,0,0,1,2.292-.8a.729.729,0,0,1-.124.424.811.811,0,0,1-.35.28,1.312,1.312,0,0,1-.534.1ZM.752-2.424v.752H1.22a.539.539,0,0,0,.344-.1.337.337,0,0,0,.12-.28.337.337,0,0,0-.122-.276.525.525,0,0,0-.342-.1Zm0,2.008h.512a.612.612,0,0,0,.4-.114A.383.383,0,0,0,1.8-.844a.386.386,0,0,0-.14-.32.62.62,0,0,0-.4-.112H.752ZM3.688.06a1.073,1.073,0,0,1-.422-.082,1.007,1.007,0,0,1-.338-.232A1.073,1.073,0,0,1,2.7-.606a1.19,1.19,0,0,1-.08-.442,1.179,1.179,0,0,1,.08-.438,1.056,1.056,0,0,1,.226-.352,1.018,1.018,0,0,1,.344-.232,1.113,1.113,0,0,1,.43-.082,1.073,1.073,0,0,1,.422.082,1.007,1.007,0,0,1,.338.232,1.078,1.078,0,0,1,.224.35,1.174,1.174,0,0,1,.08.44,1.19,1.19,0,0,1-.08.442,1.056,1.056,0,0,1-.226.352,1.018,1.018,0,0,1-.344.232A1.113,1.113,0,0,1,3.688.06ZM3.7-.356A.546.546,0,0,0,4-.446a.621.621,0,0,0,.214-.246A.785.785,0,0,0,4.3-1.048.773.773,0,0,0,4.218-1.4.624.624,0,0,0,4-1.646a.546.546,0,0,0-.308-.09.546.546,0,0,0-.308.09.624.624,0,0,0-.214.244.773.773,0,0,0-.078.354.785.785,0,0,0,.078.356.621.621,0,0,0,.214.246A.546.546,0,0,0,3.7-.356ZM6.164.06a1.073,1.073,0,0,1-.422-.082A1.007,1.007,0,0,1,5.4-.254,1.073,1.073,0,0,1,5.18-.606a1.19,1.19,0,0,1-.08-.442,1.179,1.179,0,0,1,.08-.438,1.056,1.056,0,0,1,.226-.352A1.018,1.018,0,0,1,5.75-2.07a1.113,1.113,0,0,1,.43-.082A1.073,1.073,0,0,1,6.6-2.07a1.007,1.007,0,0,1,.338.232,1.078,1.078,0,0,1,.224.35,1.174,1.174,0,0,1,.08.44,1.19,1.19,0,0,1-.08.442,1.056,1.056,0,0,1-.226.352,1.018,1.018,0,0,1-.344.232A1.113,1.113,0,0,1,6.164.06Zm.008-.416a.546.546,0,0,0,.308-.09.621.621,0,0,0,.214-.246.785.785,0,0,0,.078-.356A.773.773,0,0,0,6.694-1.4a.624.624,0,0,0-.214-.244.546.546,0,0,0-.308-.09.546.546,0,0,0-.308.09A.624.624,0,0,0,5.65-1.4a.773.773,0,0,0-.078.354.785.785,0,0,0,.078.356.621.621,0,0,0,.214.246A.546.546,0,0,0,6.172-.356ZM7.648,0V-2.976h.46v1.748l.856-.864h.56l-.94.928L9.62,0h-.6L8.108-1.056V0Z" transform="translate(504.012 95.927)" fill="#5680e9"/>
    <path id="Path_985" data-name="Path 985" d="M3.479-2.541a1.209,1.209,0,0,1,.661.427,1.234,1.234,0,0,1,.234.77,1.2,1.2,0,0,1-.437.99A1.894,1.894,0,0,1,2.716,0H.931A.355.355,0,0,1,.669-.095.345.345,0,0,1,.574-.35V-4.585A.345.345,0,0,1,.669-4.84a.355.355,0,0,1,.262-.095H2.639A1.882,1.882,0,0,1,3.832-4.6a1.14,1.14,0,0,1,.431.949,1.132,1.132,0,0,1-.207.679A1.22,1.22,0,0,1,3.479-2.541ZM1.281-2.8H2.527q1.036,0,1.036-.784a.675.675,0,0,0-.255-.581,1.313,1.313,0,0,0-.78-.189H1.281ZM2.639-.581a1.289,1.289,0,0,0,.791-.2.723.723,0,0,0,.252-.609.758.758,0,0,0-.256-.627,1.241,1.241,0,0,0-.788-.206H1.281V-.581ZM7.882-3.486a.353.353,0,0,1,.256.091.333.333,0,0,1,.094.252V-.294a.31.31,0,0,1-.1.238.365.365,0,0,1-.259.091.329.329,0,0,1-.238-.088.31.31,0,0,1-.091-.234V-.553A1.1,1.1,0,0,1,7.1-.105a1.305,1.305,0,0,1-.634.154q-1.246,0-1.246-1.372v-1.82a.333.333,0,0,1,.095-.252.363.363,0,0,1,.263-.091.353.353,0,0,1,.255.091.333.333,0,0,1,.095.252V-1.33A.921.921,0,0,0,6.1-.721a.645.645,0,0,0,.518.2.862.862,0,0,0,.661-.266A.994.994,0,0,0,7.525-1.5V-3.143a.329.329,0,0,1,.1-.249A.357.357,0,0,1,7.882-3.486Zm3.864,2.94a.336.336,0,0,1,.234.073.257.257,0,0,1,.08.2.257.257,0,0,1-.08.2A.336.336,0,0,1,11.746,0H9.352a.339.339,0,0,1-.245-.087.293.293,0,0,1-.091-.221.4.4,0,0,1,.105-.259l1.946-2.3H9.31a.325.325,0,0,1-.227-.073A.257.257,0,0,1,9-3.143a.257.257,0,0,1,.081-.2.325.325,0,0,1,.227-.074h2.324a.334.334,0,0,1,.241.091.291.291,0,0,1,.095.217.4.4,0,0,1-.105.259L9.919-.546Zm3.542,0a.336.336,0,0,1,.234.073.257.257,0,0,1,.08.2.257.257,0,0,1-.08.2A.336.336,0,0,1,15.288,0H12.894a.339.339,0,0,1-.245-.087.293.293,0,0,1-.091-.221.4.4,0,0,1,.105-.259l1.946-2.3H12.852a.325.325,0,0,1-.227-.073.257.257,0,0,1-.081-.2.257.257,0,0,1,.081-.2.325.325,0,0,1,.227-.074h2.324a.334.334,0,0,1,.241.091.291.291,0,0,1,.095.217.4.4,0,0,1-.105.259l-1.946,2.3Zm4.326.6a1.707,1.707,0,0,1-.871-.217,1.482,1.482,0,0,1-.581-.616,1.983,1.983,0,0,1-.206-.924,1.986,1.986,0,0,1,.213-.938,1.543,1.543,0,0,1,.6-.63,1.721,1.721,0,0,1,.882-.224,1.942,1.942,0,0,1,.535.077,1.83,1.83,0,0,1,.479.21.436.436,0,0,1,.224.357.314.314,0,0,1-.063.2.2.2,0,0,1-.161.081.28.28,0,0,1-.126-.032,1.817,1.817,0,0,1-.161-.094,1.929,1.929,0,0,0-.326-.171.98.98,0,0,0-.36-.059.9.9,0,0,0-.739.322,1.38,1.38,0,0,0-.263.9,1.349,1.349,0,0,0,.259.885.9.9,0,0,0,.735.312,1.013,1.013,0,0,0,.371-.063,2,2,0,0,0,.329-.168,1.253,1.253,0,0,1,.154-.084.343.343,0,0,1,.14-.035.2.2,0,0,1,.161.081.314.314,0,0,1,.063.2.32.32,0,0,1-.053.179.621.621,0,0,1-.178.165,1.679,1.679,0,0,1-.49.217A2.129,2.129,0,0,1,19.614.049Zm4.564-3.535a.353.353,0,0,1,.256.091.333.333,0,0,1,.094.252V-.294a.31.31,0,0,1-.1.238.365.365,0,0,1-.259.091.329.329,0,0,1-.238-.088.31.31,0,0,1-.091-.234V-.553a1.1,1.1,0,0,1-.444.448,1.305,1.305,0,0,1-.633.154q-1.246,0-1.246-1.372v-1.82a.333.333,0,0,1,.094-.252.363.363,0,0,1,.263-.091.353.353,0,0,1,.256.091.333.333,0,0,1,.094.252V-1.33a.921.921,0,0,0,.168.609.645.645,0,0,0,.518.2.862.862,0,0,0,.662-.266.994.994,0,0,0,.248-.707V-3.143a.329.329,0,0,1,.1-.249A.357.357,0,0,1,24.178-3.486ZM27.188-.5a.351.351,0,0,1,.221.08.251.251,0,0,1,.066.186.242.242,0,0,1-.109.214.507.507,0,0,1-.318.06L26.859.021a1.226,1.226,0,0,1-.847-.347,1.286,1.286,0,0,1-.28-.9V-2.87h-.42Q25-2.87,25-3.143a.257.257,0,0,1,.08-.2.325.325,0,0,1,.228-.074h.42v-.721a.333.333,0,0,1,.094-.252.353.353,0,0,1,.255-.091.365.365,0,0,1,.259.091.327.327,0,0,1,.1.252v.721h.693a.325.325,0,0,1,.228.074.257.257,0,0,1,.08.2.254.254,0,0,1-.08.2.336.336,0,0,1-.228.07h-.693v1.694a.715.715,0,0,0,.137.483.591.591,0,0,0,.417.175Z" transform="translate(411.356 85.957)" fill="#b8c0cc"/>
    <path id="Path_986" data-name="Path 986" d="M.931.035a.344.344,0,0,1-.259-.1.362.362,0,0,1-.1-.263V-4.585A.345.345,0,0,1,.669-4.84a.355.355,0,0,1,.262-.095H3.437q.336,0,.336.294t-.336.294H1.288V-2.8H3.3q.336,0,.336.294T3.3-2.212H1.288V-.329a.367.367,0,0,1-.095.266A.348.348,0,0,1,.931.035ZM5.747-3.5a1.35,1.35,0,0,1,1.011.343,1.447,1.447,0,0,1,.332,1.043V-.3A.329.329,0,0,1,7-.053a.349.349,0,0,1-.252.088A.331.331,0,0,1,6.5-.056.331.331,0,0,1,6.412-.3V-.56a.985.985,0,0,1-.4.452A1.168,1.168,0,0,1,5.4.049a1.387,1.387,0,0,1-.616-.137,1.058,1.058,0,0,1-.437-.382.988.988,0,0,1-.158-.546A.841.841,0,0,1,4.385-1.6a1.148,1.148,0,0,1,.637-.3A6.4,6.4,0,0,1,6.244-2h.161v-.2a.823.823,0,0,0-.161-.567.674.674,0,0,0-.518-.175,1.65,1.65,0,0,0-.462.063,3.474,3.474,0,0,0-.476.182.686.686,0,0,1-.266.105.216.216,0,0,1-.171-.077.289.289,0,0,1-.067-.2.3.3,0,0,1,.06-.185.627.627,0,0,1,.193-.158A2.393,2.393,0,0,1,5.11-3.42,2.677,2.677,0,0,1,5.747-3.5ZM5.53-.476a.823.823,0,0,0,.63-.263.95.95,0,0,0,.245-.675V-1.6H6.279a5.453,5.453,0,0,0-.84.049.824.824,0,0,0-.42.165.428.428,0,0,0-.126.332.526.526,0,0,0,.182.413A.662.662,0,0,0,5.53-.476ZM10.85-4.97a.365.365,0,0,1,.259.091.318.318,0,0,1,.1.245V-.308a.333.333,0,0,1-.095.252.353.353,0,0,1-.255.091A.353.353,0,0,1,10.6-.056a.333.333,0,0,1-.095-.252v-.28a1.083,1.083,0,0,1-.448.473A1.367,1.367,0,0,1,9.38.049a1.419,1.419,0,0,1-.787-.224,1.489,1.489,0,0,1-.539-.63,2.149,2.149,0,0,1-.192-.931,2.12,2.12,0,0,1,.192-.931,1.458,1.458,0,0,1,.536-.616A1.448,1.448,0,0,1,9.38-3.5a1.347,1.347,0,0,1,.675.164,1.1,1.1,0,0,1,.444.466V-4.648a.3.3,0,0,1,.095-.234A.361.361,0,0,1,10.85-4.97ZM9.548-.511a.854.854,0,0,0,.707-.315,1.4,1.4,0,0,0,.252-.9,1.417,1.417,0,0,0-.248-.9.852.852,0,0,0-.711-.315.876.876,0,0,0-.717.312,1.362,1.362,0,0,0-.255.885,1.409,1.409,0,0,0,.259.9A.862.862,0,0,0,9.548-.511Zm5.32-.35a.2.2,0,0,1,.161.077.3.3,0,0,1,.063.2.4.4,0,0,1-.252.343,2.22,2.22,0,0,1-.535.217,2.171,2.171,0,0,1-.556.077,1.724,1.724,0,0,1-1.281-.473A1.753,1.753,0,0,1,12-1.715a2.026,2.026,0,0,1,.207-.931,1.518,1.518,0,0,1,.581-.63,1.625,1.625,0,0,1,.851-.224,1.39,1.39,0,0,1,1.085.441,1.707,1.707,0,0,1,.4,1.19q0,.28-.252.28H12.705Q12.775-.5,13.748-.5a1.29,1.29,0,0,0,.448-.07,3.258,3.258,0,0,0,.4-.182q.021-.014.116-.059A.382.382,0,0,1,14.868-.861ZM13.65-2.982A.854.854,0,0,0,13-2.723,1.21,1.21,0,0,0,12.705-2h1.806a1.17,1.17,0,0,0-.241-.731A.774.774,0,0,0,13.65-2.982Z" transform="translate(411.356 121.715)" fill="#b8c0cc"/>
    <line id="Line_47" data-name="Line 47" x2="125.522" transform="translate(401.502 72.518)" fill="none" stroke="#f2f2f2" stroke-miterlimit="10" stroke-width="1"/>
    <line id="Line_48" data-name="Line 48" x2="125.522" transform="translate(401.502 107.545)" fill="none" stroke="#f2f2f2" stroke-miterlimit="10" stroke-width="1"/>
    <rect id="Rectangle_401" data-name="Rectangle 401" width="63.201" height="4.19" rx="1.764" transform="translate(411.356 92.103)" fill="#eaeff4"/>
    <g id="Group_217" data-name="Group 217" transform="translate(502.48 79.535)">
      <path id="Path_333" data-name="Path 333" d="M493.627,74.028h-.484v-.971h-.971v.971h-4.854v-.971h-.97v.971h-.486a.974.974,0,0,0-.971.97v7.766a.973.973,0,0,0,.971.97h7.765a.973.973,0,0,0,.971-.97V75A.974.974,0,0,0,493.627,74.028Zm0,8.737h-7.765v-6.31h7.765Z" transform="translate(-483.92 -72.571)" fill="#5680e9"/>
      <path id="Path_334" data-name="Path 334" d="M484.073,72.648h11.648V84.3H484.073Z" transform="translate(-484.073 -72.648)" fill="none"/>
      <rect id="Rectangle_402" data-name="Rectangle 402" width="1.442" height="1.442" transform="translate(3.298 5.104)" fill="#5680e9"/>
    </g>
    <path id="Path_990" data-name="Path 990" d="M.28,0V-2.84h.984a1.178,1.178,0,0,1,.482.09A.728.728,0,0,1,2.06-2.5a.671.671,0,0,1,.112.388.684.684,0,0,1-.094.36.641.641,0,0,1-.27.244.7.7,0,0,1,.356.266A.747.747,0,0,1,2.292-.8a.729.729,0,0,1-.124.424.811.811,0,0,1-.35.28,1.312,1.312,0,0,1-.534.1ZM.752-2.424v.752H1.22a.539.539,0,0,0,.344-.1.337.337,0,0,0,.12-.28.337.337,0,0,0-.122-.276.525.525,0,0,0-.342-.1Zm0,2.008h.512a.612.612,0,0,0,.4-.114A.383.383,0,0,0,1.8-.844a.386.386,0,0,0-.14-.32.62.62,0,0,0-.4-.112H.752ZM3.688.06a1.073,1.073,0,0,1-.422-.082,1.007,1.007,0,0,1-.338-.232A1.073,1.073,0,0,1,2.7-.606a1.19,1.19,0,0,1-.08-.442,1.179,1.179,0,0,1,.08-.438,1.056,1.056,0,0,1,.226-.352,1.018,1.018,0,0,1,.344-.232,1.113,1.113,0,0,1,.43-.082,1.073,1.073,0,0,1,.422.082,1.007,1.007,0,0,1,.338.232,1.078,1.078,0,0,1,.224.35,1.174,1.174,0,0,1,.08.44,1.19,1.19,0,0,1-.08.442,1.056,1.056,0,0,1-.226.352,1.018,1.018,0,0,1-.344.232A1.113,1.113,0,0,1,3.688.06ZM3.7-.356A.546.546,0,0,0,4-.446a.621.621,0,0,0,.214-.246A.785.785,0,0,0,4.3-1.048.773.773,0,0,0,4.218-1.4.624.624,0,0,0,4-1.646a.546.546,0,0,0-.308-.09.546.546,0,0,0-.308.09.624.624,0,0,0-.214.244.773.773,0,0,0-.078.354.785.785,0,0,0,.078.356.621.621,0,0,0,.214.246A.546.546,0,0,0,3.7-.356ZM6.164.06a1.073,1.073,0,0,1-.422-.082A1.007,1.007,0,0,1,5.4-.254,1.073,1.073,0,0,1,5.18-.606a1.19,1.19,0,0,1-.08-.442,1.179,1.179,0,0,1,.08-.438,1.056,1.056,0,0,1,.226-.352A1.018,1.018,0,0,1,5.75-2.07a1.113,1.113,0,0,1,.43-.082A1.073,1.073,0,0,1,6.6-2.07a1.007,1.007,0,0,1,.338.232,1.078,1.078,0,0,1,.224.35,1.174,1.174,0,0,1,.08.44,1.19,1.19,0,0,1-.08.442,1.056,1.056,0,0,1-.226.352,1.018,1.018,0,0,1-.344.232A1.113,1.113,0,0,1,6.164.06Zm.008-.416a.546.546,0,0,0,.308-.09.621.621,0,0,0,.214-.246.785.785,0,0,0,.078-.356A.773.773,0,0,0,6.694-1.4a.624.624,0,0,0-.214-.244.546.546,0,0,0-.308-.09.546.546,0,0,0-.308.09A.624.624,0,0,0,5.65-1.4a.773.773,0,0,0-.078.354.785.785,0,0,0,.078.356.621.621,0,0,0,.214.246A.546.546,0,0,0,6.172-.356ZM7.648,0V-2.976h.46v1.748l.856-.864h.56l-.94.928L9.62,0h-.6L8.108-1.056V0Z" transform="translate(504.012 130.101)" fill="#5680e9"/>
    <line id="Line_49" data-name="Line 49" x2="125.522" transform="translate(401.502 141.72)" fill="none" stroke="#f2f2f2" stroke-miterlimit="10" stroke-width="1"/>
    <rect id="Rectangle_403" data-name="Rectangle 403" width="63.201" height="4.19" rx="1.764" transform="translate(411.356 127.042)" fill="#eaeff4"/>
    <path id="Path_987" data-name="Path 987" d="M2.114.035a.355.355,0,0,1-.262-.1.355.355,0,0,1-.1-.263v-4H.35q-.336,0-.336-.3A.283.283,0,0,1,.1-4.858.364.364,0,0,1,.35-4.935H3.878a.364.364,0,0,1,.248.077.283.283,0,0,1,.088.224q0,.3-.336.3h-1.4v4a.362.362,0,0,1-.1.263A.353.353,0,0,1,2.114.035ZM5.978-3.486q.336-.021.336.287a.314.314,0,0,1-.077.231.415.415,0,0,1-.266.091l-.21.021a.906.906,0,0,0-.655.308,1,1,0,0,0-.214.644V-.3a.314.314,0,0,1-.1.252.374.374,0,0,1-.252.084.387.387,0,0,1-.255-.084.308.308,0,0,1-.1-.252V-3.15a.31.31,0,0,1,.1-.249.377.377,0,0,1,.255-.087.332.332,0,0,1,.234.087.313.313,0,0,1,.095.241v.336a1.028,1.028,0,0,1,.406-.469,1.364,1.364,0,0,1,.6-.189ZM7.105.035A.387.387,0,0,1,6.85-.049a.308.308,0,0,1-.1-.252V-3.143a.319.319,0,0,1,.1-.256.377.377,0,0,1,.255-.087.364.364,0,0,1,.252.087.325.325,0,0,1,.1.256V-.3a.314.314,0,0,1-.1.252A.374.374,0,0,1,7.105.035Zm0-4.207a.451.451,0,0,1-.322-.112.385.385,0,0,1-.119-.294.374.374,0,0,1,.119-.291.46.46,0,0,1,.322-.109.463.463,0,0,1,.319.109.369.369,0,0,1,.122.291.385.385,0,0,1-.119.294A.451.451,0,0,1,7.105-4.172Zm5.257.672q1.148,0,1.148,1.379V-.3a.316.316,0,0,1-.1.248.374.374,0,0,1-.259.088A.364.364,0,0,1,12.9-.053.316.316,0,0,1,12.8-.3V-2.114a.994.994,0,0,0-.154-.619.581.581,0,0,0-.483-.193.759.759,0,0,0-.609.263,1.07,1.07,0,0,0-.224.717V-.3a.316.316,0,0,1-.1.248.374.374,0,0,1-.259.088.364.364,0,0,1-.252-.088.316.316,0,0,1-.1-.248V-2.114a.994.994,0,0,0-.154-.619.581.581,0,0,0-.483-.193.769.769,0,0,0-.612.263,1.059,1.059,0,0,0-.228.717V-.3a.316.316,0,0,1-.1.248A.364.364,0,0,1,8.8.035a.377.377,0,0,1-.255-.088.31.31,0,0,1-.1-.248V-3.15a.308.308,0,0,1,.105-.245A.372.372,0,0,1,8.8-3.486a.341.341,0,0,1,.241.087.313.313,0,0,1,.094.241V-2.9a1.071,1.071,0,0,1,.427-.448,1.26,1.26,0,0,1,.63-.154,1.2,1.2,0,0,1,.647.161.962.962,0,0,1,.382.5,1.168,1.168,0,0,1,.455-.48A1.319,1.319,0,0,1,12.362-3.5Z" transform="translate(411.356 155.282)" fill="#b8c0cc"/>
    <rect id="Rectangle_404" data-name="Rectangle 404" width="63.201" height="4.19" rx="1.764" transform="translate(411.356 160.609)" fill="#eaeff4"/>
    <path id="Path_988" data-name="Path 988" d="M4.424-.448a.338.338,0,0,1,.063.2.272.272,0,0,1-.1.214.348.348,0,0,1-.234.088.365.365,0,0,1-.315-.175L2.9-1.582a1.018,1.018,0,0,0-.343-.354.973.973,0,0,0-.476-.1H1.288V-.329a.367.367,0,0,1-.095.266.348.348,0,0,1-.263.1.35.35,0,0,1-.259-.1.359.359,0,0,1-.1-.266V-4.585A.345.345,0,0,1,.669-4.84a.355.355,0,0,1,.262-.095H2.674a1.887,1.887,0,0,1,1.249.364,1.315,1.315,0,0,1,.431,1.064,1.342,1.342,0,0,1-.329.942,1.558,1.558,0,0,1-.938.459.833.833,0,0,1,.329.175,1.516,1.516,0,0,1,.287.35ZM2.59-2.618A1.268,1.268,0,0,0,3.4-2.832a.8.8,0,0,0,.262-.661A.787.787,0,0,0,3.4-4.148a1.3,1.3,0,0,0-.812-.207H1.281v1.736ZM6.8.049a1.76,1.76,0,0,1-.885-.217,1.464,1.464,0,0,1-.588-.62,2.02,2.02,0,0,1-.207-.934,2.036,2.036,0,0,1,.207-.942,1.464,1.464,0,0,1,.588-.619A1.76,1.76,0,0,1,6.8-3.5a1.76,1.76,0,0,1,.885.217,1.464,1.464,0,0,1,.588.619,2.036,2.036,0,0,1,.207.942,2.02,2.02,0,0,1-.207.934,1.464,1.464,0,0,1-.588.62A1.76,1.76,0,0,1,6.8.049Zm0-.56a.868.868,0,0,0,.718-.308,1.412,1.412,0,0,0,.248-.9,1.4,1.4,0,0,0-.252-.9A.866.866,0,0,0,6.8-2.933a.866.866,0,0,0-.714.312,1.4,1.4,0,0,0-.252.9,1.412,1.412,0,0,0,.249.9A.868.868,0,0,0,6.8-.511Zm4.844-2.765a.305.305,0,0,1,.122-.154.324.324,0,0,1,.172-.049.341.341,0,0,1,.234.091.282.282,0,0,1,.1.217.324.324,0,0,1-.028.133L10.3,1.092a.328.328,0,0,1-.122.151.309.309,0,0,1-.172.053.348.348,0,0,1-.227-.084.262.262,0,0,1-.1-.21.381.381,0,0,1,.035-.14L10.2-.168,8.848-3.038a.278.278,0,0,1-.028-.126.278.278,0,0,1,.112-.224.389.389,0,0,1,.252-.091.31.31,0,0,1,.3.2L10.57-.875Zm2.59-.224a1.35,1.35,0,0,1,1.012.343,1.447,1.447,0,0,1,.332,1.043V-.3a.329.329,0,0,1-.091.248.349.349,0,0,1-.252.088.331.331,0,0,1-.245-.091A.331.331,0,0,1,14.9-.3V-.56a.985.985,0,0,1-.4.452,1.168,1.168,0,0,1-.613.158,1.387,1.387,0,0,1-.616-.137,1.058,1.058,0,0,1-.437-.382.988.988,0,0,1-.157-.546.841.841,0,0,1,.193-.584,1.148,1.148,0,0,1,.637-.3A6.4,6.4,0,0,1,14.735-2H14.9v-.2a.823.823,0,0,0-.161-.567.674.674,0,0,0-.518-.175,1.65,1.65,0,0,0-.462.063,3.474,3.474,0,0,0-.476.182.686.686,0,0,1-.266.105.216.216,0,0,1-.172-.077.289.289,0,0,1-.066-.2.3.3,0,0,1,.059-.185.627.627,0,0,1,.193-.158A2.393,2.393,0,0,1,13.6-3.42,2.677,2.677,0,0,1,14.238-3.5ZM14.021-.476a.823.823,0,0,0,.63-.263.95.95,0,0,0,.245-.675V-1.6H14.77a5.453,5.453,0,0,0-.84.049.824.824,0,0,0-.42.165.428.428,0,0,0-.126.332.526.526,0,0,0,.182.413A.662.662,0,0,0,14.021-.476Zm2.884.511a.387.387,0,0,1-.256-.084.308.308,0,0,1-.1-.252V-4.627a.319.319,0,0,1,.1-.256.377.377,0,0,1,.256-.088.364.364,0,0,1,.252.088.325.325,0,0,1,.1.256V-.3a.314.314,0,0,1-.1.252A.374.374,0,0,1,16.905.035Zm4.9.021a3.432,3.432,0,0,1-1.011-.147A2,2,0,0,1,20.027-.5a.358.358,0,0,1-.133-.287A.331.331,0,0,1,19.964-1a.209.209,0,0,1,.168-.087.464.464,0,0,1,.238.091,2.324,2.324,0,0,0,1.421.462,1.5,1.5,0,0,0,.861-.21.69.69,0,0,0,.3-.6.5.5,0,0,0-.28-.462,3.677,3.677,0,0,0-.9-.294,5.4,5.4,0,0,1-.966-.287,1.441,1.441,0,0,1-.592-.437,1.117,1.117,0,0,1-.213-.7,1.285,1.285,0,0,1,.235-.759,1.539,1.539,0,0,1,.654-.518,2.352,2.352,0,0,1,.959-.186,2.884,2.884,0,0,1,.917.14,1.93,1.93,0,0,1,.714.413.364.364,0,0,1,.14.287.325.325,0,0,1-.073.21.216.216,0,0,1-.171.091.459.459,0,0,1-.231-.091,2.5,2.5,0,0,0-.605-.354,1.912,1.912,0,0,0-.683-.108,1.4,1.4,0,0,0-.84.22.717.717,0,0,0-.3.612.565.565,0,0,0,.266.508,2.9,2.9,0,0,0,.854.312,7.062,7.062,0,0,1,1,.29,1.531,1.531,0,0,1,.609.413.994.994,0,0,1,.227.676,1.243,1.243,0,0,1-.234.746,1.51,1.51,0,0,1-.658.5A2.5,2.5,0,0,1,21.805.056ZM26.327-3.5q1.218,0,1.218,1.379V-.3a.318.318,0,0,1-.1.245.365.365,0,0,1-.259.091.353.353,0,0,1-.255-.091A.324.324,0,0,1,26.838-.3V-2.114a.921.921,0,0,0-.172-.616.675.675,0,0,0-.535-.2.914.914,0,0,0-.686.266.98.98,0,0,0-.259.714V-.3a.324.324,0,0,1-.094.245.353.353,0,0,1-.256.091.365.365,0,0,1-.259-.091.318.318,0,0,1-.1-.245V-4.634a.313.313,0,0,1,.1-.245.378.378,0,0,1,.263-.091.351.351,0,0,1,.249.088.3.3,0,0,1,.094.234V-2.9a1.169,1.169,0,0,1,.469-.448A1.427,1.427,0,0,1,26.327-3.5Zm3.619,0a1.35,1.35,0,0,1,1.012.343,1.447,1.447,0,0,1,.333,1.043V-.3a.329.329,0,0,1-.091.248.349.349,0,0,1-.252.088A.331.331,0,0,1,30.7-.056.331.331,0,0,1,30.611-.3V-.56a.985.985,0,0,1-.4.452A1.168,1.168,0,0,1,29.6.049a1.387,1.387,0,0,1-.616-.137,1.058,1.058,0,0,1-.437-.382.988.988,0,0,1-.157-.546.841.841,0,0,1,.192-.584,1.148,1.148,0,0,1,.637-.3A6.4,6.4,0,0,1,30.443-2H30.6v-.2a.823.823,0,0,0-.161-.567.674.674,0,0,0-.518-.175,1.65,1.65,0,0,0-.462.063,3.474,3.474,0,0,0-.476.182.686.686,0,0,1-.266.105.216.216,0,0,1-.172-.077.289.289,0,0,1-.066-.2.3.3,0,0,1,.059-.185.627.627,0,0,1,.193-.158,2.393,2.393,0,0,1,.574-.213A2.677,2.677,0,0,1,29.946-3.5ZM29.729-.476a.823.823,0,0,0,.63-.263.95.95,0,0,0,.245-.675V-1.6h-.126a5.453,5.453,0,0,0-.84.049.824.824,0,0,0-.42.165.428.428,0,0,0-.126.332.526.526,0,0,0,.182.413A.662.662,0,0,0,29.729-.476Zm4.956-2.8a.305.305,0,0,1,.123-.154.324.324,0,0,1,.171-.049.341.341,0,0,1,.235.091.282.282,0,0,1,.1.217.324.324,0,0,1-.028.133L33.95-.2a.361.361,0,0,1-.151.172.416.416,0,0,1-.213.06.416.416,0,0,1-.214-.06A.361.361,0,0,1,33.222-.2L31.885-3.038a.294.294,0,0,1-.028-.133.272.272,0,0,1,.112-.217.389.389,0,0,1,.252-.091.319.319,0,0,1,.3.2L33.607-.875ZM38.521-.861a.2.2,0,0,1,.161.077.3.3,0,0,1,.063.2.4.4,0,0,1-.252.343,2.221,2.221,0,0,1-.535.217A2.171,2.171,0,0,1,37.4.049,1.724,1.724,0,0,1,36.12-.424a1.753,1.753,0,0,1-.469-1.292,2.026,2.026,0,0,1,.207-.931,1.518,1.518,0,0,1,.581-.63,1.625,1.625,0,0,1,.85-.224,1.39,1.39,0,0,1,1.085.441,1.707,1.707,0,0,1,.4,1.19q0,.28-.252.28H36.358Q36.428-.5,37.4-.5a1.29,1.29,0,0,0,.448-.07,3.258,3.258,0,0,0,.4-.182q.021-.014.116-.059A.382.382,0,0,1,38.521-.861ZM37.3-2.982a.854.854,0,0,0-.651.259A1.21,1.21,0,0,0,36.358-2h1.806a1.17,1.17,0,0,0-.242-.731A.774.774,0,0,0,37.3-2.982Z" transform="translate(411.356 190.944)" fill="#b8c0cc"/>
    <rect id="Rectangle_405" data-name="Rectangle 405" width="63.201" height="4.19" rx="1.764" transform="translate(411.356 196.271)" fill="#eaeff4"/>
    <g id="Group_218" data-name="Group 218" transform="translate(502.48 114.01)">
      <path id="Path_335" data-name="Path 335" d="M493.627,103.062h-.484v-.97h-.971v.97h-4.854v-.97h-.97v.97h-.486a.974.974,0,0,0-.971.971V111.8a.974.974,0,0,0,.971.97h7.765a.974.974,0,0,0,.971-.97v-7.766A.974.974,0,0,0,493.627,103.062Zm0,8.738h-7.765v-6.311h7.765Z" transform="translate(-483.92 -101.606)" fill="#5680e9"/>
      <path id="Path_336" data-name="Path 336" d="M484.073,101.683h11.648v11.649H484.073Z" transform="translate(-484.073 -101.683)" fill="none"/>
      <rect id="Rectangle_406" data-name="Rectangle 406" width="1.442" height="1.442" transform="translate(3.298 5.104)" fill="#5680e9"/>
    </g>
    <path id="Path_991" data-name="Path 991" d="M.28,0V-2.84h.984a1.178,1.178,0,0,1,.482.09A.728.728,0,0,1,2.06-2.5a.671.671,0,0,1,.112.388.684.684,0,0,1-.094.36.641.641,0,0,1-.27.244.7.7,0,0,1,.356.266A.747.747,0,0,1,2.292-.8a.729.729,0,0,1-.124.424.811.811,0,0,1-.35.28,1.312,1.312,0,0,1-.534.1ZM.752-2.424v.752H1.22a.539.539,0,0,0,.344-.1.337.337,0,0,0,.12-.28.337.337,0,0,0-.122-.276.525.525,0,0,0-.342-.1Zm0,2.008h.512a.612.612,0,0,0,.4-.114A.383.383,0,0,0,1.8-.844a.386.386,0,0,0-.14-.32.62.62,0,0,0-.4-.112H.752ZM3.688.06a1.073,1.073,0,0,1-.422-.082,1.007,1.007,0,0,1-.338-.232A1.073,1.073,0,0,1,2.7-.606a1.19,1.19,0,0,1-.08-.442,1.179,1.179,0,0,1,.08-.438,1.056,1.056,0,0,1,.226-.352,1.018,1.018,0,0,1,.344-.232,1.113,1.113,0,0,1,.43-.082,1.073,1.073,0,0,1,.422.082,1.007,1.007,0,0,1,.338.232,1.078,1.078,0,0,1,.224.35,1.174,1.174,0,0,1,.08.44,1.19,1.19,0,0,1-.08.442,1.056,1.056,0,0,1-.226.352,1.018,1.018,0,0,1-.344.232A1.113,1.113,0,0,1,3.688.06ZM3.7-.356A.546.546,0,0,0,4-.446a.621.621,0,0,0,.214-.246A.785.785,0,0,0,4.3-1.048.773.773,0,0,0,4.218-1.4.624.624,0,0,0,4-1.646a.546.546,0,0,0-.308-.09.546.546,0,0,0-.308.09.624.624,0,0,0-.214.244.773.773,0,0,0-.078.354.785.785,0,0,0,.078.356.621.621,0,0,0,.214.246A.546.546,0,0,0,3.7-.356ZM6.164.06a1.073,1.073,0,0,1-.422-.082A1.007,1.007,0,0,1,5.4-.254,1.073,1.073,0,0,1,5.18-.606a1.19,1.19,0,0,1-.08-.442,1.179,1.179,0,0,1,.08-.438,1.056,1.056,0,0,1,.226-.352A1.018,1.018,0,0,1,5.75-2.07a1.113,1.113,0,0,1,.43-.082A1.073,1.073,0,0,1,6.6-2.07a1.007,1.007,0,0,1,.338.232,1.078,1.078,0,0,1,.224.35,1.174,1.174,0,0,1,.08.44,1.19,1.19,0,0,1-.08.442,1.056,1.056,0,0,1-.226.352,1.018,1.018,0,0,1-.344.232A1.113,1.113,0,0,1,6.164.06Zm.008-.416a.546.546,0,0,0,.308-.09.621.621,0,0,0,.214-.246.785.785,0,0,0,.078-.356A.773.773,0,0,0,6.694-1.4a.624.624,0,0,0-.214-.244.546.546,0,0,0-.308-.09.546.546,0,0,0-.308.09A.624.624,0,0,0,5.65-1.4a.773.773,0,0,0-.078.354.785.785,0,0,0,.078.356.621.621,0,0,0,.214.246A.546.546,0,0,0,6.172-.356ZM7.648,0V-2.976h.46v1.748l.856-.864h.56l-.94.928L9.62,0h-.6L8.108-1.056V0Z" transform="translate(504.012 164.535)" fill="#5680e9"/>
    <line id="Line_50" data-name="Line 50" x2="125.522" transform="translate(401.502 176.153)" fill="none" stroke="#f2f2f2" stroke-miterlimit="10" stroke-width="1"/>
    <g id="Group_219" data-name="Group 219" transform="translate(502.48 148.791)">
      <path id="Path_337" data-name="Path 337" d="M493.627,132.355h-.484v-.97h-.971v.97h-4.854v-.97h-.97v.97h-.486a.974.974,0,0,0-.971.971v7.767a.974.974,0,0,0,.971.97h7.765a.974.974,0,0,0,.971-.97v-7.767A.974.974,0,0,0,493.627,132.355Zm0,8.738h-7.765v-6.311h7.765Z" transform="translate(-483.92 -130.899)" fill="#5680e9"/>
      <path id="Path_338" data-name="Path 338" d="M484.073,130.976h11.648v11.649H484.073Z" transform="translate(-484.073 -130.976)" fill="none"/>
      <rect id="Rectangle_407" data-name="Rectangle 407" width="1.442" height="1.442" transform="translate(3.298 5.104)" fill="#5680e9"/>
    </g>
    <path id="Path_992" data-name="Path 992" d="M.28,0V-2.84h.984a1.178,1.178,0,0,1,.482.09A.728.728,0,0,1,2.06-2.5a.671.671,0,0,1,.112.388.684.684,0,0,1-.094.36.641.641,0,0,1-.27.244.7.7,0,0,1,.356.266A.747.747,0,0,1,2.292-.8a.729.729,0,0,1-.124.424.811.811,0,0,1-.35.28,1.312,1.312,0,0,1-.534.1ZM.752-2.424v.752H1.22a.539.539,0,0,0,.344-.1.337.337,0,0,0,.12-.28.337.337,0,0,0-.122-.276.525.525,0,0,0-.342-.1Zm0,2.008h.512a.612.612,0,0,0,.4-.114A.383.383,0,0,0,1.8-.844a.386.386,0,0,0-.14-.32.62.62,0,0,0-.4-.112H.752ZM3.688.06a1.073,1.073,0,0,1-.422-.082,1.007,1.007,0,0,1-.338-.232A1.073,1.073,0,0,1,2.7-.606a1.19,1.19,0,0,1-.08-.442,1.179,1.179,0,0,1,.08-.438,1.056,1.056,0,0,1,.226-.352,1.018,1.018,0,0,1,.344-.232,1.113,1.113,0,0,1,.43-.082,1.073,1.073,0,0,1,.422.082,1.007,1.007,0,0,1,.338.232,1.078,1.078,0,0,1,.224.35,1.174,1.174,0,0,1,.08.44,1.19,1.19,0,0,1-.08.442,1.056,1.056,0,0,1-.226.352,1.018,1.018,0,0,1-.344.232A1.113,1.113,0,0,1,3.688.06ZM3.7-.356A.546.546,0,0,0,4-.446a.621.621,0,0,0,.214-.246A.785.785,0,0,0,4.3-1.048.773.773,0,0,0,4.218-1.4.624.624,0,0,0,4-1.646a.546.546,0,0,0-.308-.09.546.546,0,0,0-.308.09.624.624,0,0,0-.214.244.773.773,0,0,0-.078.354.785.785,0,0,0,.078.356.621.621,0,0,0,.214.246A.546.546,0,0,0,3.7-.356ZM6.164.06a1.073,1.073,0,0,1-.422-.082A1.007,1.007,0,0,1,5.4-.254,1.073,1.073,0,0,1,5.18-.606a1.19,1.19,0,0,1-.08-.442,1.179,1.179,0,0,1,.08-.438,1.056,1.056,0,0,1,.226-.352A1.018,1.018,0,0,1,5.75-2.07a1.113,1.113,0,0,1,.43-.082A1.073,1.073,0,0,1,6.6-2.07a1.007,1.007,0,0,1,.338.232,1.078,1.078,0,0,1,.224.35,1.174,1.174,0,0,1,.08.44,1.19,1.19,0,0,1-.08.442,1.056,1.056,0,0,1-.226.352,1.018,1.018,0,0,1-.344.232A1.113,1.113,0,0,1,6.164.06Zm.008-.416a.546.546,0,0,0,.308-.09.621.621,0,0,0,.214-.246.785.785,0,0,0,.078-.356A.773.773,0,0,0,6.694-1.4a.624.624,0,0,0-.214-.244.546.546,0,0,0-.308-.09.546.546,0,0,0-.308.09A.624.624,0,0,0,5.65-1.4a.773.773,0,0,0-.078.354.785.785,0,0,0,.078.356.621.621,0,0,0,.214.246A.546.546,0,0,0,6.172-.356ZM7.648,0V-2.976h.46v1.748l.856-.864h.56l-.94.928L9.62,0h-.6L8.108-1.056V0Z" transform="translate(504.012 200.061)" fill="#5680e9"/>
    <line id="Line_51" data-name="Line 51" x2="120.951" transform="translate(403.788 211.68)" fill="none" stroke="#f2f2f2" stroke-miterlimit="10" stroke-width="1"/>
    <g id="Group_220" data-name="Group 220" transform="translate(502.48 184.318)">
      <path id="Path_339" data-name="Path 339" d="M493.627,162.276h-.484v-.97h-.971v.97h-4.854v-.97h-.97v.97h-.486a.974.974,0,0,0-.971.971v7.765a.974.974,0,0,0,.971.971h7.765a.974.974,0,0,0,.971-.971v-7.765A.974.974,0,0,0,493.627,162.276Zm0,8.737h-7.765V164.7h7.765Z" transform="translate(-483.92 -160.82)" fill="#5680e9"/>
      <path id="Path_340" data-name="Path 340" d="M484.073,160.9h11.648v11.649H484.073Z" transform="translate(-484.073 -160.897)" fill="none"/>
      <rect id="Rectangle_408" data-name="Rectangle 408" width="1.442" height="1.442" transform="translate(3.298 5.104)" fill="#5680e9"/>
    </g>
    <g id="Group_229" data-name="Group 229" transform="translate(410.524 48.831)">
      <g id="Group_228" data-name="Group 228">
        <path id="Path_347" data-name="Path 347" d="M409.02,46.789a2.291,2.291,0,0,0-.578,3.174l3.7,5.279-1.344,1.92a2.776,2.776,0,1,0,1.1,1.168l1.647-2.351,1.646,2.35a2.779,2.779,0,1,0,1.1-1.167l-1.344-1.92,3.7-5.279a2.291,2.291,0,0,0-.578-3.174l-4.518,6.453ZM410.85,59.56a1.44,1.44,0,1,1-1.44-1.44A1.44,1.44,0,0,1,410.85,59.56Zm8.254,0a1.44,1.44,0,1,1-1.439-1.44A1.44,1.44,0,0,1,419.1,59.56Z" transform="translate(-406.627 -46.789)" fill="#8860d0"/>
      </g>
    </g>
    <g id="Group_709" data-name="Group 709" transform="translate(385.835 179.789)">
      <g id="Group_209" data-name="Group 209" transform="translate(0.688 0)">
        <path id="Rectangle_398" data-name="Rectangle 398" d="M29.11,0h0a29.11,29.11,0,0,1,29.11,29.11v0a29.11,29.11,0,0,1-29.11,29.11H8.317A8.317,8.317,0,0,1,0,49.9V29.11A29.11,29.11,0,0,1,29.11,0Z" transform="translate(0 0)" fill="#fff"/>
      </g>
      <g id="Group_210" data-name="Group 210" transform="translate(0.562 0.045)">
        <path id="Path_327" data-name="Path 327" d="M155.205,139.189h0a28.871,28.871,0,0,1,4.512.355c-11.869-.278-28,8.49-28,28.619V193.14a4.113,4.113,0,0,0,4.1,4.1h-5.485a4.113,4.113,0,0,1-4.1-4.1V168.162A29.058,29.058,0,0,1,155.205,139.189Z" transform="translate(-126.232 -139.189)" fill="#eaeff4"/>
      </g>
      <path id="Rectangle_898" data-name="Rectangle 898" d="M29.11,0h0a29.11,29.11,0,0,1,29.11,29.11v0a29.11,29.11,0,0,1-29.11,29.11H5.545A5.545,5.545,0,0,1,0,52.676V29.11A29.11,29.11,0,0,1,29.11,0Z" transform="translate(0 0)" fill="none" stroke="#b8c0cc" stroke-miterlimit="10" stroke-width="1.88"/>
      <g id="Group_212" data-name="Group 212" transform="translate(42.369 15.562)">
        <ellipse id="Ellipse_127" data-name="Ellipse 127" cx="3.026" cy="1.89" rx="3.026" ry="1.89" transform="translate(1.471 6.79) rotate(-104.062)" fill="#b8c0cc"/>
      </g>
      <path id="Path_973" data-name="Path 973" d="M148.915,140.223s4.837-10.168-1.918-18.171c0,0-7.226,6.7-27.563,12.056-14.876,3.916-13.869,16.842-13.869,16.842S113.9,139.572,148.915,140.223Z" transform="translate(-102.025 -135.239)" fill="#fff"/>
      <g id="Group_711" data-name="Group 711" transform="translate(3.526 -13.187)">
        <g id="Group_213" data-name="Group 213" transform="translate(0)" clip-path="url(#clip-path)">
          <path id="Path_330" data-name="Path 330" d="M168.423,122.313s1,6.182-24.774,15.2c-5.767,2.018-9.31,8.715-9.31,8.715l-6.769,4.07-17.348-18.007Z" transform="translate(-126.905 -122.116)" fill="#eaeff4"/>
        </g>
      </g>
      <path id="Path_974" data-name="Path 974" d="M148.915,140.223s4.837-10.168-1.918-18.171c0,0-7.226,6.7-27.563,12.056-14.876,3.916-13.869,16.842-13.869,16.842S113.9,139.572,148.915,140.223Z" transform="translate(-102.025 -135.239)" fill="none" stroke="#b8c0cc" stroke-miterlimit="10" stroke-width="1.88"/>
    </g>
  </g>
</svg>
