<svg xmlns="http://www.w3.org/2000/svg" xmlns:xlink="http://www.w3.org/1999/xlink" width="148.698" height="156.715" viewBox="0 0 148.698 156.715">
  <defs>
    <clipPath id="clip-path">
      <path id="Path_331" data-name="Path 331" d="M167.889,148.173s6.953-14.617-2.758-26.121c0,0-10.388,9.637-39.623,17.332-21.384,5.629-19.938,24.21-19.938,24.21S117.555,147.238,167.889,148.173Z" transform="translate(-105.55 -122.052)" fill="none"/>
    </clipPath>
  </defs>
  <g id="Group_253" data-name="Group 253" transform="translate(-699.702 -41.905)">
    <line id="Line_57" data-name="Line 57" x1="9.989" y2="22.826" transform="translate(718.582 173.819)" fill="none" stroke="#b8c0cc" stroke-linecap="round" stroke-miterlimit="10" stroke-width="3"/>
    <line id="Line_58" data-name="Line 58" x2="9.989" y2="22.826" transform="translate(817.212 173.819)" fill="none" stroke="#b8c0cc" stroke-linecap="round" stroke-miterlimit="10" stroke-width="3"/>
    <path id="Path_370" data-name="Path 370" d="M817.4,123.58H728.008A28.306,28.306,0,0,0,699.7,151.886v3.8c0,21.671,11.322,21.671,11.322,21.671H834.383s11.322,0,11.322-21.671v-3.8A28.306,28.306,0,0,0,817.4,123.58Z" fill="#eaeff4"/>
    <path id="Path_380" data-name="Path 380" d="M803.04,149.255l-5.227-9.147a1.29,1.29,0,0,1,.246-1.677l19.77-15.227a1.29,1.29,0,0,1,1.684.19l7.51,7.39a1.348,1.348,0,0,1,.015,2.016l-22.052,16.985A1.349,1.349,0,0,1,803.04,149.255Z" fill="#fcfdff" stroke="#b8c0cc" stroke-miterlimit="10" stroke-width="2"/>
    <path id="Path_702" data-name="Path 702" d="M477.126,459.1l-12.932-3.028-5.659,5.108a1.231,1.231,0,0,1-1.739-.084,1.214,1.214,0,0,1-.213-.326l-3.226-7.23-13.583-3.213a4.386,4.386,0,0,1-3.268-5.263l6.636-28.3a4.386,4.386,0,0,1,5.263-3.268l37.409,8.772a4.386,4.386,0,0,1,3.212,5.292l-6.636,28.3a4.386,4.386,0,0,1-5.263,3.24Z" transform="translate(358.458 -370.836)" fill="#fff"/>
    <path id="Path_971" data-name="Path 971" d="M477.023,459.03l-11.9-2.694a2,2,0,0,0-1.747.436l-4.882,4.207a1.057,1.057,0,0,1-1.641-.337l-2.96-6.071a2.029,2.029,0,0,0-1.374-1.089l-12.412-2.81a4.646,4.646,0,0,1-3.505-5.557l6.3-27.8a4.647,4.647,0,0,1,5.557-3.505l36.911,8.358a4.644,4.644,0,0,1,3.505,5.556l-6.295,27.8A4.645,4.645,0,0,1,477.023,459.03Z" transform="translate(358.458 -370.836)" fill="none" stroke="#8860d0" stroke-linecap="round" stroke-linejoin="round" stroke-width="1.883"/>
    <g id="Layer_1" data-name="Layer 1" transform="translate(358.458 -370.836)">
      <circle id="Ellipse_193" data-name="Ellipse 193" cx="2.052" cy="2.052" r="2.052" transform="translate(463.713 423.027)" fill="#8860d0"/>
      <line id="Line_103" data-name="Line 103" x2="15.974" y2="3.551" transform="translate(454.743 438.156)" fill="none"/>
    </g>
    <path id="Path_972" data-name="Path 972" d="M469.978,441.2l.99-5a7.827,7.827,0,0,0-6.141-9.169h0a7.231,7.231,0,0,0-8.471,5.674l-1.114,5.29a.588.588,0,0,1-.145.281l-2.993,3.231a.6.6,0,0,0,.3.982l17.894,4.34a.594.594,0,0,0,.72-.706l-1.033-4.677A.608.608,0,0,1,469.978,441.2Z" transform="translate(358.458 -370.836)" fill="none" stroke="#8860d0" stroke-miterlimit="10" stroke-width="1.883"/>
    <circle id="Ellipse_194" data-name="Ellipse 194" cx="6.126" cy="6.126" r="6.126" transform="translate(825.827 54.113)" fill="#fe5f75"/>
    <path id="Path_706" data-name="Path 706" d="M473.207,434.534h-.17a.707.707,0,0,1-.523-.849l1.075-4.485-.538-.127a.726.726,0,0,1,.3-1.42l.021,0,1.924.453-1.414,5.871A.707.707,0,0,1,473.207,434.534Z" transform="translate(358.458 -370.836)" fill="#fff"/>
    <line id="Line_283" data-name="Line 283" x2="15.238" y2="3.29" transform="translate(813.201 67.32)" fill="none" stroke="#8860d0" stroke-miterlimit="10" stroke-width="1.883"/>
    <g id="Group_710" data-name="Group 710" transform="translate(717.423 88.603)">
      <g id="Group_209" data-name="Group 209" transform="translate(0.913 0)">
        <path id="Rectangle_398" data-name="Rectangle 398" d="M38.588,0h0A38.588,38.588,0,0,1,77.175,38.588v0A38.588,38.588,0,0,1,38.588,77.175H9.188A9.188,9.188,0,0,1,0,67.988v-29.4A38.588,38.588,0,0,1,38.588,0Z" transform="translate(0 0)" fill="#fff"/>
      </g>
      <g id="Group_210" data-name="Group 210" transform="translate(0.745 0.06)">
        <path id="Path_327" data-name="Path 327" d="M164.638,139.189h0a38.271,38.271,0,0,1,5.98.47c-15.732-.369-37.115,11.254-37.115,37.936V210.7a5.452,5.452,0,0,0,5.437,5.437h-7.271a5.452,5.452,0,0,1-5.437-5.437V177.595A38.518,38.518,0,0,1,164.638,139.189Z" transform="translate(-126.232 -139.189)" fill="#eaeff4"/>
      </g>
      <path id="Rectangle_898" data-name="Rectangle 898" d="M38.588,0h0A38.588,38.588,0,0,1,77.175,38.588v0A38.588,38.588,0,0,1,38.588,77.175H7.35A7.35,7.35,0,0,1,0,69.825V38.588A38.588,38.588,0,0,1,38.588,0Z" transform="translate(0 0)" fill="none" stroke="#b8c0cc" stroke-miterlimit="10" stroke-width="1.88"/>
      <g id="Group_212" data-name="Group 212" transform="matrix(0.891, 0.454, -0.454, 0.891, 60.577, 20.574)">
        <ellipse id="Ellipse_127" data-name="Ellipse 127" cx="4.012" cy="2.505" rx="4.012" ry="2.505" transform="translate(1.949 9) rotate(-104.062)" fill="#b8c0cc"/>
      </g>
    </g>
    <circle id="Ellipse_143" data-name="Ellipse 143" cx="6.048" cy="6.048" r="6.048" transform="translate(798.272 142.434)" fill="#b8c0cc"/>
    <path id="Path_381" data-name="Path 381" d="M764.241,142.27c4.3,10.466,26.4,13.83,39.6,6.355" fill="none" stroke="#b8c0cc" stroke-linecap="round" stroke-miterlimit="10" stroke-width="2"/>
    <path id="Path_975" data-name="Path 975" d="M167.889,148.173s6.953-14.617-2.758-26.121c0,0-10.388,9.637-39.623,17.332-21.384,5.629-19.938,24.21-19.938,24.21S117.555,147.238,167.889,148.173Z" transform="translate(613.79 -49.274)" fill="#fff"/>
    <g id="Group_712" data-name="Group 712" transform="translate(719.341 72.778)">
      <g id="Group_213" data-name="Group 213" transform="translate(0)" clip-path="url(#clip-path)">
        <path id="Path_330" data-name="Path 330" d="M193.888,122.313s1.443,8.887-35.614,21.853c-8.29,2.9-13.383,12.529-13.383,12.529l-9.731,5.85L110.222,136.66Z" transform="translate(-134.204 -122.03)" fill="#eaeff4"/>
      </g>
    </g>
    <path id="Path_976" data-name="Path 976" d="M167.889,148.173s6.953-14.617-2.758-26.121c0,0-10.388,9.637-39.623,17.332-21.384,5.629-19.938,24.21-19.938,24.21S117.555,147.238,167.889,148.173Z" transform="translate(613.79 -49.274)" fill="none" stroke="#b8c0cc" stroke-miterlimit="10" stroke-width="1.88"/>
    <path id="Path_977" data-name="Path 977" d="M818.078,127.2l3.961,3.861" fill="none" stroke="#b8c0cc" stroke-linecap="round" stroke-width="1.88"/>
  </g>
</svg>
