<svg xmlns="http://www.w3.org/2000/svg" width="218.69" height="136.357" viewBox="0 0 218.69 136.357">
  <g id="Group_148" data-name="Group 148" transform="translate(-631.432 -736.946)">
    <g id="Group_396" data-name="Group 396">
      <path id="Rectangle_551" data-name="Rectangle 551" d="M49.362,0h0A49.028,49.028,0,0,1,98.391,49.028v0A49.362,49.362,0,0,1,49.029,98.391H7.948A7.948,7.948,0,0,1,0,90.443V49.362A49.362,49.362,0,0,1,49.362,0Z" transform="translate(632.373 737.887)" fill="#fff"/>
      <path id="Path_823" data-name="Path 823" d="M681.123,737.964h0a48.809,48.809,0,0,1,7.625.6c-20.058-.471-47.318,14.348-47.318,48.365v42.21a6.952,6.952,0,0,0,6.932,6.932H639.09a6.952,6.952,0,0,1-6.931-6.932v-42.21A49.108,49.108,0,0,1,681.123,737.964Z" fill="#eaeff4"/>
      <path id="Rectangle_552" data-name="Rectangle 552" d="M49.362,0h0A49.028,49.028,0,0,1,98.391,49.028v0A49.362,49.362,0,0,1,49.029,98.391H7.948A7.948,7.948,0,0,1,0,90.443V49.362A49.362,49.362,0,0,1,49.362,0Z" transform="translate(632.373 737.887)" fill="none" stroke="#b8c0cc" stroke-linecap="round" stroke-linejoin="round" stroke-width="1.883"/>
      <path id="Path_824" data-name="Path 824" d="M684.488,777.578a4.593,4.593,0,0,1,9.186,0" fill="none" stroke="#b8c0cc" stroke-linecap="round" stroke-linejoin="round" stroke-width="1.883"/>
      <path id="Path_825" data-name="Path 825" d="M705.841,777.578a4.593,4.593,0,1,1,9.186,0" fill="none" stroke="#b8c0cc" stroke-linecap="round" stroke-linejoin="round" stroke-width="1.883"/>
    </g>
    <rect id="Rectangle_553" data-name="Rectangle 553" width="68.998" height="59.578" rx="4.928" transform="translate(691.377 787.017)" stroke-width="1.883" stroke="#b8c0cc" stroke-linecap="round" stroke-linejoin="round" fill="#fff"/>
    <rect id="Rectangle_262" data-name="Rectangle 262" width="11.973" height="11.973" rx="4.527" transform="translate(705.099 810.125)" fill="#eaeff4"/>
    <rect id="Rectangle_263" data-name="Rectangle 263" width="11.973" height="11.973" rx="4.527" transform="translate(705.099 824.669)" fill="#eaeff4"/>
    <rect id="Rectangle_264" data-name="Rectangle 264" width="11.973" height="11.973" rx="4.527" transform="translate(720.537 810.125)" fill="#eaeff4"/>
    <rect id="Rectangle_265" data-name="Rectangle 265" width="11.973" height="11.973" rx="4.527" transform="translate(720.537 824.669)" fill="#eaeff4"/>
    <rect id="Rectangle_266" data-name="Rectangle 266" width="11.973" height="11.973" rx="4.527" transform="translate(737.642 810.125)" fill="#eaeff4"/>
    <rect id="Rectangle_267" data-name="Rectangle 267" width="11.973" height="11.973" rx="4.527" transform="translate(737.642 824.669)" fill="#eaeff4"/>
    <g id="Group_139" data-name="Group 139">
      <path id="Path_131" data-name="Path 131" d="M694.258,809.352l13.294.019a1.412,1.412,0,0,1,1.41,1.412l-.026,19.211a1.41,1.41,0,0,1-1.412,1.408l-13.294-.018" fill="#6bbea1"/>
      <rect id="Rectangle_268" data-name="Rectangle 268" width="22.032" height="3.84" transform="translate(701.23 831.395) rotate(-89.923)" fill="#498679"/>
      <path id="Path_132" data-name="Path 132" d="M695.563,822.514a3,3,0,0,1-.008,5.989" fill="#498679" opacity="0.5" style="isolation: isolate"/>
      <path id="Path_133" data-name="Path 133" d="M695.567,819.634a3,3,0,0,1-.008,5.989" fill="#498679" opacity="0.5" style="isolation: isolate"/>
    </g>
    <rect id="Rectangle_270" data-name="Rectangle 270" width="16.747" height="7.934" rx="1.667" transform="translate(717.15 846.595)" stroke-width="1.883" stroke="#b8c0cc" stroke-linecap="round" stroke-linejoin="round" fill="#fff"/>
    <rect id="Rectangle_271" data-name="Rectangle 271" width="5.704" height="28.735" rx="2.157" transform="translate(688.525 805.525)" stroke-width="1.883" stroke="#b8c0cc" stroke-linecap="round" stroke-linejoin="round" fill="#fff"/>
    <line id="Line_12" data-name="Line 12" x2="25.223" transform="translate(713.017 854.53)" fill="#fff" stroke="#b8c0cc" stroke-linecap="round" stroke-linejoin="round" stroke-width="1.883"/>
    <path id="Path_765" data-name="Path 765" d="M704.758,793.729a.728.728,0,0,1,.572-.286.782.782,0,0,1,.556.236.731.731,0,0,1,.247.544.778.778,0,0,1-.209.517l-2.41,2.861v2.871a.816.816,0,0,1-.242.638.869.869,0,0,1-.6.22.9.9,0,0,1-.627-.22.817.817,0,0,1-.242-.638V797.6l-2.387-2.86a.726.726,0,0,1-.209-.517.809.809,0,0,1,.782-.78.728.728,0,0,1,.572.286l2.1,2.562Zm3.75,7.623a3.157,3.157,0,0,1-1.507-.347,2.431,2.431,0,0,1-1-.979,3.325,3.325,0,0,1,0-2.98,2.4,2.4,0,0,1,1-.974,3.5,3.5,0,0,1,3.015,0,2.4,2.4,0,0,1,1,.974,3.332,3.332,0,0,1,0,2.981,2.431,2.431,0,0,1-1,.979A3.144,3.144,0,0,1,708.508,801.352Zm0-1.265q1.211,0,1.21-1.551a1.823,1.823,0,0,0-.314-1.166,1.091,1.091,0,0,0-.9-.385q-1.211,0-1.21,1.551T708.508,800.087Zm8.239-4.334a.862.862,0,0,1,.61.209.741.741,0,0,1,.226.572v4.037a.7.7,0,0,1-.236.55.884.884,0,0,1-.611.209.782.782,0,0,1-.561-.2.692.692,0,0,1-.209-.528v-.108a1.707,1.707,0,0,1-.665.638,2.231,2.231,0,0,1-2.453-.347,2.524,2.524,0,0,1-.5-1.711v-2.54a.741.741,0,0,1,.226-.572.864.864,0,0,1,.611-.209.845.845,0,0,1,.6.209.754.754,0,0,1,.22.572v2.574a1.055,1.055,0,0,0,.2.715.785.785,0,0,0,.622.231,1.016,1.016,0,0,0,.787-.33,1.237,1.237,0,0,0,.3-.869v-2.321a.754.754,0,0,1,.22-.572A.844.844,0,0,1,716.747,795.753Zm5.335,0a.688.688,0,0,1,.522.149.651.651,0,0,1,.193.511.736.736,0,0,1-.176.539,1.026,1.026,0,0,1-.627.22l-.33.033a1.253,1.253,0,0,0-.875.4,1.3,1.3,0,0,0-.27.847v2.1a.72.72,0,0,1-.236.583.884.884,0,0,1-.589.2.9.9,0,0,1-.6-.2.718.718,0,0,1-.236-.586v-4.037a.685.685,0,0,1,.242-.561.889.889,0,0,1,.583-.2.8.8,0,0,1,.55.193.672.672,0,0,1,.22.534v.3a1.535,1.535,0,0,1,.6-.726,1.858,1.858,0,0,1,.875-.288Zm6.853,5.6a3.158,3.158,0,0,1-1.507-.348,2.431,2.431,0,0,1-1-.979,3.332,3.332,0,0,1,0-2.981,2.4,2.4,0,0,1,1-.974,3.5,3.5,0,0,1,3.014,0,2.4,2.4,0,0,1,1,.974,3.332,3.332,0,0,1,0,2.981,2.431,2.431,0,0,1-1,.979,3.157,3.157,0,0,1-1.507.347Zm0-1.265q1.211,0,1.21-1.551a1.822,1.822,0,0,0-.313-1.166,1.091,1.091,0,0,0-.9-.385q-1.211,0-1.21,1.551t1.213,1.55Zm7.1-4.334a.688.688,0,0,1,.522.149.651.651,0,0,1,.193.511.736.736,0,0,1-.176.539,1.026,1.026,0,0,1-.627.22l-.33.033a1.253,1.253,0,0,0-.875.4,1.3,1.3,0,0,0-.27.847v2.1a.72.72,0,0,1-.236.583.883.883,0,0,1-.589.2.9.9,0,0,1-.6-.2.72.72,0,0,1-.236-.583v-4.041a.685.685,0,0,1,.242-.561.889.889,0,0,1,.583-.2.8.8,0,0,1,.55.193.672.672,0,0,1,.22.534v.3a1.535,1.535,0,0,1,.6-.726,1.867,1.867,0,0,1,.875-.286Zm5.687-2.3a.9.9,0,0,1,.621.209.7.7,0,0,1,.236.55v6.336a.748.748,0,0,1-.225.567.945.945,0,0,1-1.2,0,.748.748,0,0,1-.225-.567v-.085a1.693,1.693,0,0,1-.687.655,2.112,2.112,0,0,1-1.007.237,2.2,2.2,0,0,1-1.237-.362,2.371,2.371,0,0,1-.847-1,3.441,3.441,0,0,1-.3-1.479,3.364,3.364,0,0,1,.3-1.469,2.215,2.215,0,0,1,2.085-1.315,2.132,2.132,0,0,1,1,.231,1.65,1.65,0,0,1,.688.649V794.18a.677.677,0,0,1,.22-.528A.84.84,0,0,1,741.717,793.454Zm-2,6.633a1.069,1.069,0,0,0,.9-.4,1.835,1.835,0,0,0,.314-1.15,1.81,1.81,0,0,0-.314-1.144,1.076,1.076,0,0,0-.9-.4,1.1,1.1,0,0,0-.9.39,1.745,1.745,0,0,0-.319,1.128,1.862,1.862,0,0,0,.319,1.16,1.072,1.072,0,0,0,.9.416Zm8.47-.429a.435.435,0,0,1,.358.176.707.707,0,0,1,.137.451.6.6,0,0,1-.11.347.9.9,0,0,1-.308.269,3.975,3.975,0,0,1-.869.325,3.71,3.71,0,0,1-.913.127,3.265,3.265,0,0,1-1.535-.341,2.4,2.4,0,0,1-1.007-.974,3.007,3.007,0,0,1-.352-1.49,3.064,3.064,0,0,1,.34-1.464,2.5,2.5,0,0,1,.946-1,2.653,2.653,0,0,1,1.375-.357,2.519,2.519,0,0,1,1.292.325,2.219,2.219,0,0,1,.864.924,3.028,3.028,0,0,1,.308,1.4.528.528,0,0,1-.116.368.415.415,0,0,1-.324.127h-3.08a1.465,1.465,0,0,0,.4.941,1.309,1.309,0,0,0,.913.291,1.944,1.944,0,0,0,.572-.077,5.335,5.335,0,0,0,.561-.209c.1-.044.2-.082.3-.115a.789.789,0,0,1,.246-.044Zm-1.894-2.783a1,1,0,0,0-.759.3,1.441,1.441,0,0,0-.341.874h2.123a1.433,1.433,0,0,0-.292-.88A.918.918,0,0,0,746.293,796.875Zm6.644-1.122a.688.688,0,0,1,.522.149.651.651,0,0,1,.193.511.736.736,0,0,1-.176.539,1.026,1.026,0,0,1-.627.22l-.33.033a1.253,1.253,0,0,0-.875.4,1.3,1.3,0,0,0-.27.847v2.1a.72.72,0,0,1-.236.583.884.884,0,0,1-.589.2.9.9,0,0,1-.6-.2.72.72,0,0,1-.236-.583v-4.04a.685.685,0,0,1,.242-.561.889.889,0,0,1,.583-.2.8.8,0,0,1,.55.193.672.672,0,0,1,.22.534v.3a1.535,1.535,0,0,1,.6-.726,1.867,1.867,0,0,1,.875-.286Z" fill="#b8c0cc"/>
    <g id="Group_397" data-name="Group 397">
      <path id="Rectangle_554" data-name="Rectangle 554" d="M7.918,0H48.847A49.179,49.179,0,0,1,98.026,49.179v0A48.846,48.846,0,0,1,49.179,98.026h0A49.179,49.179,0,0,1,0,48.847V7.918A7.918,7.918,0,0,1,7.918,0Z" transform="translate(849.18 872.361) rotate(180)" fill="#fff"/>
      <path id="Path_826" data-name="Path 826" d="M800.612,774.411h0a48.7,48.7,0,0,0-7.6.6c19.984-.469,47.142,14.295,47.142,48.186v42.054a6.925,6.925,0,0,1-6.9,6.905h9.236a6.926,6.926,0,0,0,6.906-6.905V823.194A48.926,48.926,0,0,0,800.612,774.411Z" fill="rgba(136,96,208,0.12)"/>
      <path id="Rectangle_555" data-name="Rectangle 555" d="M7.918,0H48.847A49.179,49.179,0,0,1,98.026,49.179v0A48.846,48.846,0,0,1,49.179,98.026h0A49.179,49.179,0,0,1,0,48.847V7.918A7.918,7.918,0,0,1,7.918,0Z" transform="translate(849.18 872.361) rotate(180)" fill="none" stroke="#8860d0" stroke-linecap="round" stroke-linejoin="round" stroke-width="1.883"/>
      <ellipse id="Ellipse_197" data-name="Ellipse 197" cx="5.093" cy="3.183" rx="5.093" ry="3.183" transform="translate(769.808 813.296) rotate(-85.374)" fill="#8860d0"/>
    </g>
    <path id="Ellipse_92" data-name="Ellipse 92" d="M4.515,0A4.515,4.515,0,1,1,0,4.515,4.515,4.515,0,0,1,4.515,0Z" transform="translate(706.294 811.23)" fill="#8860d0"/>
    <path id="Path_136" data-name="Path 136" d="M710.809,815.745s29,32.1,78.425,21.738" fill="none" stroke="#8860d0" stroke-linecap="round" stroke-linejoin="round" stroke-width="1.883"/>
    <g id="Group_721" data-name="Group 721" transform="matrix(0.998, -0.07, 0.07, 0.998, 751.304, 822.463)">
      <path id="Path_949" data-name="Path 949" d="M12.155,3.5l-.7.587A1.855,1.855,0,0,1,9.6,4.291,4.267,4.267,0,0,1,7.229,2,3.033,3.033,0,0,0,4.646,0a2.327,2.327,0,0,0-1.894,1.08A2.326,2.326,0,0,0,.859,0c-1.35,0-1.067,10.325.564,8.5a6.428,6.428,0,0,0,1.329-2.37c.624,1.793,1.877,3.721,4.381,3.721,5.206,0,5.022-6.358,5.022-6.358Z" transform="translate(0 0)" fill="#8860d0"/>
    </g>
  </g>
</svg>
