<svg xmlns="http://www.w3.org/2000/svg" width="67.509" height="68.485" viewBox="0 0 67.509 68.485">
  <g id="Multi_location_management" data-name="Multi location management" transform="translate(-232.095 -162.515)">
    <path id="Path_37" data-name="Path 37" d="M302.325,230H236.815l3.384-33.333h58.74Z" transform="translate(-3.721)" fill="none" stroke="#b8c0cc" stroke-linejoin="round" stroke-miterlimit="10" stroke-width="2"/>
    <g id="Group_13" data-name="Group 13" transform="translate(0 -2)">
      <path id="Path_38" data-name="Path 38" d="M280.1,208.375l-14.311-20.237-.849-8.644,2.744-7.066,3.842-3.979,3.91-1.921,4.517-1.029,3.235.686,6.448,2.881,3.842,5.008,1.715,6.105-1.076,6.105Z" fill="#fff"/>
      <path id="Path_39" data-name="Path 39" d="M280.044,186.27a5.857,5.857,0,1,0-5.857-5.857A5.864,5.864,0,0,0,280.044,186.27Zm0-10.041a4.184,4.184,0,1,1-4.184,4.184A4.189,4.189,0,0,1,280.044,176.229Z" fill="#b8c0cc"/>
      <path id="Path_40" data-name="Path 40" d="M279.9,210.332l12.836-18.539c4.815-6.42,4.118-16.97-1.49-22.578a16.045,16.045,0,0,0-22.692,0c-5.609,5.608-6.306,16.159-1.51,22.552ZM269.733,170.4a14.372,14.372,0,0,1,20.326,0c5.061,5.061,5.685,14.59,1.316,20.416L279.9,207.392l-11.5-16.6C264.047,184.988,264.67,175.459,269.733,170.4Z" fill="#b8c0cc"/>
    </g>
    <g id="Group_14" data-name="Group 14" transform="translate(0 -2)">
      <path id="Path_41" data-name="Path 41" d="M260,219.833,242.615,195.25l-1.032-10.5,3.333-8.583,4.667-4.833,4.75-2.333,5.487-1.25,3.929.833,7.833,3.5,4.667,6.083,2.083,7.417L277.026,193Z" fill="#fff"/>
      <path id="Path_42" data-name="Path 42" d="M260,193a7,7,0,1,0-7-7A7.008,7.008,0,0,0,260,193Zm0-12a5,5,0,1,1-5,5A5.006,5.006,0,0,1,260,181Z" fill="#8860d0"/>
      <path id="Path_43" data-name="Path 43" d="M259.823,221.757,275.164,199.6c5.754-7.672,4.921-20.28-1.781-26.982a19.175,19.175,0,0,0-27.12,0c-6.7,6.7-7.536,19.312-1.8,26.952Zm-12.146-47.726a17.177,17.177,0,0,1,24.292,0c6.049,6.049,6.794,17.437,1.573,24.4l-13.719,19.813L246.082,198.4C240.882,191.468,241.627,180.08,247.677,174.031Z" fill="#8860d0"/>
    </g>
  </g>
</svg>
