<svg xmlns="http://www.w3.org/2000/svg" width="44" height="54" viewBox="0 0 44 54">
  <g id="Security" transform="translate(-394.771 -169.667)">
    <path id="Path_44" data-name="Path 44" d="M432.771,189.78v-5.613c0-8-7.178-14.5-16-14.5s-16,6.5-16,14.5v5.613a7.235,7.235,0,0,0-6,7.117v19.542A7.237,7.237,0,0,0,402,223.667h29.542a7.237,7.237,0,0,0,7.229-7.229V196.9A7.235,7.235,0,0,0,432.771,189.78Zm-30-5.613c0-6.893,6.28-12.5,14-12.5s14,5.607,14,12.5v5.5h-28Zm34,32.271a5.235,5.235,0,0,1-5.229,5.229H402a5.235,5.235,0,0,1-5.229-5.229V196.9A5.235,5.235,0,0,1,402,191.667h29.542a5.235,5.235,0,0,1,5.229,5.229Z" fill="#8860d0"/>
    <path id="Path_45" data-name="Path 45" d="M416.771,197.667a4,4,0,0,0-4,4v6a4,4,0,0,0,8,0v-6A4,4,0,0,0,416.771,197.667Zm2,10a2,2,0,0,1-4,0v-6a2,2,0,1,1,4,0Z" fill="#b8c0cc"/>
  </g>
</svg>
