<svg width="56" height="56" viewBox="0 0 56 56" fill="none" xmlns="http://www.w3.org/2000/svg">
<g clip-path="url(#clip0)">
<mask id="path-1-inside-1" fill="white">
<path fill-rule="evenodd" clip-rule="evenodd" d="M42.1057 10.9608L42.1057 10.9714C45.2628 12.0548 47.5247 14.978 47.5247 18.4141C47.5247 22.7726 43.8854 26.3059 39.3962 26.3059C39.3961 26.3059 39.3961 26.3059 39.3961 26.3059V26.306H16.8168L16.8168 26.3058C11.8288 26.3058 7.78516 22.3799 7.78516 17.5371C7.78516 14.2436 9.65545 11.3741 12.4212 9.87527C12.3425 9.51846 12.3011 9.14824 12.3011 8.76862C12.3011 5.86295 14.7272 3.50743 17.7201 3.50743C19.1417 3.50743 20.4355 4.03895 21.4022 4.90846C23.4239 1.95026 26.8854 0 30.8161 0C37.0511 0 42.1057 4.90732 42.1057 10.9608Z"/>
</mask>
<path d="M42.1057 10.9714L40.1057 10.9707C40.1054 11.8253 40.6481 12.5857 41.4565 12.8631L42.1057 10.9714ZM42.1057 10.9608L44.1057 10.9615V10.9608H42.1057ZM39.3961 26.3059V24.3059C38.2915 24.3059 37.3961 25.2013 37.3961 26.3059H39.3961ZM39.3961 26.306V28.306C40.5006 28.306 41.3961 27.4105 41.3961 26.306H39.3961ZM16.8168 26.306L14.8171 26.3357C14.8333 27.4285 15.7239 28.306 16.8168 28.306V26.306ZM16.8168 26.3058L18.8166 26.2761C18.8004 25.1832 17.9098 24.3058 16.8168 24.3058V26.3058ZM12.4212 9.87527L13.3741 11.6337C14.1583 11.2086 14.5663 10.3157 14.3742 9.44462L12.4212 9.87527ZM21.4022 4.90846L20.0646 6.39539C20.4934 6.78107 21.0677 6.9629 21.6403 6.89424C22.2129 6.82557 22.728 6.51308 23.0534 6.03696L21.4022 4.90846ZM44.1057 10.9721L44.1057 10.9615L40.1057 10.9601L40.1057 10.9707L44.1057 10.9721ZM49.5247 18.4141C49.5247 14.0667 46.6649 10.4214 42.7548 9.07969L41.4565 12.8631C43.8607 13.6881 45.5247 15.8893 45.5247 18.4141H49.5247ZM39.3962 28.3059C44.9339 28.3059 49.5247 23.9325 49.5247 18.4141H45.5247C45.5247 21.6128 42.837 24.3059 39.3962 24.3059V28.3059ZM39.3961 28.3059H39.3961C39.3961 28.3059 39.3961 28.3059 39.3961 28.3059C39.3961 28.3059 39.3961 28.3059 39.3961 28.3059H39.3961C39.3961 28.3059 39.3961 28.3059 39.3961 28.3059C39.3961 28.3059 39.3961 28.3059 39.3961 28.3059C39.3961 28.3059 39.3961 28.3059 39.3961 28.3059C39.3961 28.3059 39.3961 28.3059 39.3961 28.3059H39.3961H39.3961H39.3961C39.3961 28.3059 39.3961 28.3059 39.3961 28.3059C39.3961 28.3059 39.3961 28.3059 39.3961 28.3059C39.3961 28.3059 39.3961 28.3059 39.3961 28.3059C39.3961 28.3059 39.3961 28.3059 39.3961 28.3059C39.3961 28.3059 39.3961 28.3059 39.3961 28.3059C39.3961 28.3059 39.3961 28.3059 39.3961 28.3059C39.3961 28.3059 39.3961 28.3059 39.3961 28.3059C39.3961 28.3059 39.3961 28.3059 39.3961 28.3059C39.3961 28.3059 39.3961 28.3059 39.3961 28.3059C39.3961 28.3059 39.3961 28.3059 39.3961 28.3059C39.3961 28.3059 39.3961 28.3059 39.3961 28.3059C39.3961 28.3059 39.3961 28.3059 39.3961 28.3059C39.3961 28.3059 39.3961 28.3059 39.3961 28.3059C39.3961 28.3059 39.3961 28.3059 39.3961 28.3059C39.3961 28.3059 39.3961 28.3059 39.3961 28.3059C39.3961 28.3059 39.3961 28.3059 39.3961 28.3059C39.3961 28.3059 39.3961 28.3059 39.3961 28.3059C39.3961 28.3059 39.3961 28.3059 39.3961 28.3059C39.3961 28.3059 39.3961 28.3059 39.3961 28.3059C39.3961 28.3059 39.3961 28.3059 39.3961 28.3059C39.3961 28.3059 39.3961 28.3059 39.3961 28.3059C39.3961 28.3059 39.3961 28.3059 39.3961 28.3059C39.3961 28.3059 39.3961 28.3059 39.3961 28.3059C39.3961 28.3059 39.3961 28.3059 39.3961 28.3059C39.3961 28.3059 39.3961 28.3059 39.3961 28.3059H39.3961H39.3961H39.3961C39.3961 28.3059 39.3961 28.3059 39.3961 28.3059C39.3962 28.3059 39.3962 28.3059 39.3962 28.3059C39.3962 28.3059 39.3962 28.3059 39.3962 28.3059C39.3962 28.3059 39.3962 28.3059 39.3962 28.3059H39.3962C39.3962 28.3059 39.3962 28.3059 39.3962 28.3059C39.3962 28.3059 39.3962 28.3059 39.3962 28.3059H39.3962V24.3059H39.3962C39.3962 24.3059 39.3962 24.3059 39.3962 24.3059C39.3962 24.3059 39.3962 24.3059 39.3962 24.3059H39.3962C39.3962 24.3059 39.3962 24.3059 39.3962 24.3059C39.3962 24.3059 39.3962 24.3059 39.3962 24.3059C39.3962 24.3059 39.3962 24.3059 39.3961 24.3059C39.3961 24.3059 39.3961 24.3059 39.3961 24.3059H39.3961H39.3961H39.3961C39.3961 24.3059 39.3961 24.3059 39.3961 24.3059C39.3961 24.3059 39.3961 24.3059 39.3961 24.3059C39.3961 24.3059 39.3961 24.3059 39.3961 24.3059C39.3961 24.3059 39.3961 24.3059 39.3961 24.3059C39.3961 24.3059 39.3961 24.3059 39.3961 24.3059C39.3961 24.3059 39.3961 24.3059 39.3961 24.3059C39.3961 24.3059 39.3961 24.3059 39.3961 24.3059C39.3961 24.3059 39.3961 24.3059 39.3961 24.3059C39.3961 24.3059 39.3961 24.3059 39.3961 24.3059C39.3961 24.3059 39.3961 24.3059 39.3961 24.3059C39.3961 24.3059 39.3961 24.3059 39.3961 24.3059C39.3961 24.3059 39.3961 24.3059 39.3961 24.3059C39.3961 24.3059 39.3961 24.3059 39.3961 24.3059C39.3961 24.3059 39.3961 24.3059 39.3961 24.3059C39.3961 24.3059 39.3961 24.3059 39.3961 24.3059C39.3961 24.3059 39.3961 24.3059 39.3961 24.3059C39.3961 24.3059 39.3961 24.3059 39.3961 24.3059C39.3961 24.3059 39.3961 24.3059 39.3961 24.3059C39.3961 24.3059 39.3961 24.3059 39.3961 24.3059C39.3961 24.3059 39.3961 24.3059 39.3961 24.3059C39.3961 24.3059 39.3961 24.3059 39.3961 24.3059C39.3961 24.3059 39.3961 24.3059 39.3961 24.3059C39.3961 24.3059 39.3961 24.3059 39.3961 24.3059C39.3961 24.3059 39.3961 24.3059 39.3961 24.3059C39.3961 24.3059 39.3961 24.3059 39.3961 24.3059H39.3961H39.3961H39.3961C39.3961 24.3059 39.3961 24.3059 39.3961 24.3059C39.3961 24.3059 39.3961 24.3059 39.3961 24.3059C39.3961 24.3059 39.3961 24.3059 39.3961 24.3059C39.3961 24.3059 39.3961 24.3059 39.3961 24.3059H39.3961C39.3961 24.3059 39.3961 24.3059 39.3961 24.3059C39.3961 24.3059 39.3961 24.3059 39.3961 24.3059H39.3961V28.3059ZM37.3961 26.3059V26.306H41.3961V26.3059H37.3961ZM39.3961 24.306H16.8168V28.306H39.3961V24.306ZM18.8166 26.2763L18.8166 26.2761L14.8171 26.3355L14.8171 26.3357L18.8166 26.2763ZM5.78516 17.5371C5.78516 23.5398 10.7803 28.3058 16.8168 28.3058V24.3058C12.8772 24.3058 9.78516 21.22 9.78516 17.5371H5.78516ZM11.4682 8.11689C8.1025 9.9409 5.78516 13.4597 5.78516 17.5371H9.78516C9.78516 15.0274 11.2084 12.8073 13.3741 11.6337L11.4682 8.11689ZM10.3011 8.76862C10.3011 9.29415 10.3584 9.80875 10.4681 10.3059L14.3742 9.44462C14.3265 9.22818 14.3011 9.00233 14.3011 8.76862H10.3011ZM17.7201 1.50743C13.6788 1.50743 10.3011 4.70307 10.3011 8.76862H14.3011C14.3011 7.02283 15.7757 5.50743 17.7201 5.50743V1.50743ZM22.7397 3.42154C21.4148 2.22972 19.6475 1.50743 17.7201 1.50743V5.50743C18.636 5.50743 19.4563 5.84818 20.0646 6.39539L22.7397 3.42154ZM30.8161 -2C26.2134 -2 22.1389 0.28597 19.751 3.77997L23.0534 6.03696C24.7089 3.61454 27.5574 2 30.8161 2V-2ZM44.1057 10.9608C44.1057 3.74744 38.0996 -2 30.8161 -2V2C36.0027 2 40.1057 6.0672 40.1057 10.9608H44.1057Z" fill="#B8C0CC" mask="url(#path-1-inside-1)"/>
<rect x="2.36523" y="22.7983" width="50.5775" height="28.0597" rx="3" fill="white" stroke="#53A1FF" stroke-width="2"/>
<path d="M22.8217 50.9211L22.2363 55.2422H33.042L32.4912 50.8579" stroke="#53A1FF" stroke-width="2" stroke-miterlimit="10" stroke-linecap="round" stroke-linejoin="round"/>
<path d="M24.9462 14.9067V29.375L21.7852 26.306" stroke="#53A1FF" stroke-width="2" stroke-linecap="round" stroke-linejoin="round"/>
<path d="M30.3643 29.375L30.3643 14.9067L33.5254 17.9758" stroke="#53A1FF" stroke-width="2" stroke-linecap="round" stroke-linejoin="round"/>
</g>
<defs>
<clipPath id="clip0">
<rect width="56" height="56" fill="white"/>
</clipPath>
</defs>
</svg>
