<svg width="56" height="56" viewBox="0 0 56 56" fill="none" xmlns="http://www.w3.org/2000/svg">
<g clip-path="url(#clip0)">
<path d="M54.9004 55.2433H0.900391L3.69416 28H52.1888L54.9004 55.2433Z" stroke="#B8C0CC" stroke-width="1.88" stroke-miterlimit="10" stroke-linejoin="round"/>
<path d="M38.7304 36.5136L25.9575 19.6362L25.1992 12.4275L27.648 6.53482L31.0769 3.21673L34.5668 1.61502L38.5982 0.756836L41.4848 1.32872L47.2399 3.73164L50.6687 7.90788L52.1992 13L51.3813 21.3446L38.7304 36.5136Z" fill="white"/>
<path d="M52.1992 14.3444C52.1992 23.9987 38.5091 36.5136 38.5091 36.5136C38.5091 36.5136 25.1992 23.9987 25.1992 14.3444C25.1992 7.43263 30.1428 0.756836 38.5091 0.756836C46.8752 0.756836 52.1992 7.43263 52.1992 14.3444Z" stroke="#53A1FF" stroke-width="1.88"/>
<path d="M38.6992 17.784C41.1845 17.784 43.1992 15.8782 43.1992 13.5273C43.1992 11.1763 41.1845 9.27051 38.6992 9.27051C36.2139 9.27051 34.1992 11.1763 34.1992 13.5273C34.1992 15.8782 36.2139 17.784 38.6992 17.784Z" stroke="#53A1FF" stroke-width="1.88"/>
<path d="M21.5236 45.266L6.4532 25.1079L5.55859 16.4978L8.44783 9.45972L12.4935 5.49666L16.611 3.5836L21.3675 2.55859L24.7734 3.24165L31.5635 6.11166L35.6092 11.0998L37.4149 17.1817L36.4498 27.1484L21.5236 45.266Z" fill="white"/>
<path d="M37.8004 19.0609C37.8004 30.5542 21.3722 45.4528 21.3722 45.4528C21.3722 45.4528 5.40039 30.5542 5.40039 19.0609C5.40039 10.8326 11.3328 2.88525 21.3722 2.88525C31.4117 2.88525 37.8004 10.8326 37.8004 19.0609Z" stroke="#53A1FF" stroke-width="1.88"/>
<path d="M21.5992 22.892C24.5816 22.892 26.9992 20.605 26.9992 17.7839C26.9992 14.9628 24.5816 12.6758 21.5992 12.6758C18.6169 12.6758 16.1992 14.9628 16.1992 17.7839C16.1992 20.605 18.6169 22.892 21.5992 22.892Z" stroke="#53A1FF" stroke-width="1.88"/>
</g>
<defs>
<clipPath id="clip0">
<rect width="56" height="56" fill="white"/>
</clipPath>
</defs>
</svg>
