<svg width="106" height="106" viewBox="0 0 106 106" fill="none" xmlns="http://www.w3.org/2000/svg">
<path d="M53 106C82.2711 106 106 82.2711 106 53C106 23.7289 82.2711 0 53 0C23.7289 0 0 23.7289 0 53C0 82.2711 23.7289 106 53 106Z" fill="#F0F4F7"/>
<path d="M48.8599 94.6691C48.8622 95.1432 49.0516 95.5972 49.3867 95.9325C49.7219 96.2678 50.1758 96.4573 50.6499 96.46H94.3809C94.855 96.4573 95.3089 96.2678 95.644 95.9325C95.9792 95.5972 96.1685 95.1432 96.1709 94.6691V40.469L82.752 27H50.6519C50.1779 27.0026 49.7242 27.1921 49.389 27.5272C49.0539 27.8623 48.8646 28.3161 48.8619 28.79V32.05" fill="white"/>
<path d="M48.8599 94.6691C48.8622 95.1432 49.0516 95.5972 49.3867 95.9325C49.7219 96.2678 50.1758 96.4573 50.6499 96.46H94.3809C94.855 96.4573 95.3089 96.2678 95.644 95.9325C95.9792 95.5972 96.1685 95.1432 96.1709 94.6691V40.469L82.752 27H50.6519C50.1779 27.0026 49.7242 27.1921 49.389 27.5272C49.0539 27.8623 48.8646 28.3161 48.8619 28.79V32.05" stroke="#B8C0CC" stroke-width="1.88" stroke-miterlimit="10" stroke-linecap="round"/>
<path d="M71.2711 64.9077C71.2711 69.6511 69.8646 74.2881 67.2293 78.2321C64.594 82.176 60.8484 85.25 56.4661 87.0652C52.0838 88.8804 47.2615 89.3553 42.6093 88.4299C37.957 87.5045 33.6837 85.2204 30.3296 81.8663C26.9755 78.5122 24.6914 74.2389 23.766 69.5867C22.8406 64.9344 23.3155 60.1122 25.1308 55.7299C26.946 51.3475 30.0199 47.602 33.9639 44.9667C37.9079 42.3314 42.5447 40.9248 47.2881 40.9248V64.9077H71.2711Z" fill="white" stroke="#B8C0CC" stroke-width="1.88" stroke-miterlimit="10" stroke-linecap="round"/>
<path d="M55.239 32.9712C61.5995 32.9715 67.6994 35.4983 72.1969 39.996C76.6944 44.4936 79.2211 50.5936 79.2211 56.9541H55.239V32.9712Z" stroke="#53A1FF" stroke-width="1.88" stroke-miterlimit="10" stroke-linecap="round"/>
<path d="M82.752 27.002V37.589C82.752 38.334 83.0478 39.0485 83.5746 39.5753C84.1014 40.1021 84.8159 40.3979 85.5609 40.3979H96.1709" stroke="#B8C0CC" stroke-width="1.88" stroke-miterlimit="10" stroke-linecap="round"/>
<path d="M83.8721 47.3091H91.3371" stroke="#B8C0CC" stroke-width="1.88" stroke-miterlimit="10" stroke-linecap="round"/>
<path d="M83.8721 54.4961H91.3371" stroke="#B8C0CC" stroke-width="1.88" stroke-miterlimit="10" stroke-linecap="round"/>
<path d="M83.8721 61.73H91.3371" stroke="#B8C0CC" stroke-width="1.88" stroke-miterlimit="10" stroke-linecap="round"/>
<path d="M89.282 80.8282C89.2357 80.6846 89.1482 80.5577 89.0303 80.4635C88.9124 80.3693 88.7694 80.3117 88.619 80.2982L84.432 79.9182L82.777 76.0432C82.7177 75.9043 82.6189 75.786 82.4928 75.7028C82.3668 75.6195 82.2191 75.5752 82.068 75.5752C81.917 75.5752 81.7693 75.6195 81.6432 75.7028C81.5172 75.786 81.4184 75.9043 81.359 76.0432L79.703 79.9172L75.516 80.2972C75.3658 80.3112 75.2229 80.3688 75.105 80.463C74.9872 80.5573 74.8995 80.684 74.8529 80.8275C74.8063 80.971 74.8028 81.1251 74.8428 81.2706C74.8828 81.4161 74.9646 81.5467 75.078 81.6462L78.2431 84.4213L77.3101 88.5322C77.2758 88.6795 77.2856 88.8336 77.3384 88.9752C77.3912 89.1169 77.4846 89.2399 77.6068 89.3287C77.7291 89.4176 77.8749 89.4685 78.0259 89.475C78.1769 89.4815 78.3266 89.4433 78.4561 89.3652L82.068 87.2063L85.678 89.3652C85.8076 89.4426 85.9571 89.4803 86.1079 89.4735C86.2587 89.4667 86.4041 89.4157 86.5263 89.327C86.6484 89.2383 86.7418 89.1158 86.7949 88.9745C86.8481 88.8332 86.8586 88.6794 86.8251 88.5322L85.892 84.4213L89.0561 81.6462C89.1698 81.5471 89.252 81.4167 89.2921 81.2712C89.3323 81.1258 89.3288 80.9717 89.282 80.8282Z" fill="#53A1FF"/>
</svg>
