<svg width="105" height="106" viewBox="0 0 105 106" fill="none" xmlns="http://www.w3.org/2000/svg">
<path d="M52.5 105C81.4949 105 105 81.4949 105 52.5C105 23.5051 81.4949 0 52.5 0C23.5051 0 0 23.5051 0 52.5C0 81.4949 23.5051 105 52.5 105Z" fill="#F0F4F7"/>
<rect x="54" y="25" width="18" height="24" rx="9" fill="white" stroke="#B8C0CC" stroke-width="2"/>
<path d="M54 96.3462C54 96.155 54.155 96 54.3462 96H71.6538C71.845 96 72 96.155 72 96.3462C72 101.126 68.1255 105 63.3462 105H62.6538C57.8745 105 54 101.126 54 96.3462Z" fill="white" stroke="#B8C0CC" stroke-width="2" stroke-linecap="round"/>
<path d="M37.1408 60C37.1408 46.1929 48.3337 35 62.1408 35H62.8451C76.6522 35 87.8451 46.1929 87.8451 60V66.7966V80.6655C87.8451 81.9389 88.4608 83.1337 89.4978 83.8727L89.9111 84.1672C92.8475 86.2597 91.449 90.885 87.8451 91H37.1408C33.6886 90.8788 32.2673 86.5151 34.986 84.3841L35.6111 83.8941C36.5768 83.1371 37.1408 81.9782 37.1408 80.7512V66.7966V60Z" fill="white" stroke="#B8C0CC" stroke-width="2" stroke-linecap="round"/>
<path d="M67.9999 59.0001L60.7169 67.3472C60.3556 67.7613 59.728 67.8063 59.3114 67.448L57.031 65.4871" stroke="#8836DA" stroke-width="2" stroke-linecap="round"/>
<circle cx="62" cy="62" r="12" stroke="#8836DA" stroke-width="2"/>
</svg>
