<svg width="105" height="104" viewBox="0 0 105 104" fill="none" xmlns="http://www.w3.org/2000/svg">
<circle cx="52" cy="52" r="52" fill="#F0F4F7"/>
<mask id="mask0" mask-type="alpha" maskUnits="userSpaceOnUse" x="17" y="48" width="42" height="56">
<rect x="17.8286" y="48.5333" width="40.6095" height="55.4667" fill="#C4C4C4"/>
</mask>
<g mask="url(#mask0)">
<path d="M60.5413 81.5299L60.4713 82.0971L60.9245 82.4453L66.2413 86.531L66.2513 86.5387L66.2615 86.5461C66.3179 86.5873 66.3341 86.6263 66.3397 86.6539C66.3454 86.6828 66.3465 86.738 66.3037 86.8153L61.2153 95.3797L61.211 95.387L61.2068 95.3943C61.1423 95.5071 61.0022 95.5609 60.872 95.5135L54.5433 93.04L54.0306 92.8396L53.587 93.1657C52.3393 94.0829 50.9809 94.8735 49.5124 95.4562L48.975 95.6695L48.8917 96.2417L47.9366 102.804L47.9335 102.824L47.9314 102.845C47.9277 102.881 47.9136 102.91 47.88 102.938C47.8427 102.969 47.7765 103 47.6845 103H37.4965C37.3586 103 37.2473 102.925 37.2072 102.767L36.2574 96.2417L36.1741 95.6695L35.6367 95.4562C34.1652 94.8723 32.8397 94.1121 31.565 93.1679L31.1207 92.8388L30.6058 93.04L24.3058 95.5023C24.2232 95.5247 24.14 95.5207 24.0748 95.4989C24.0113 95.4778 23.9702 95.443 23.9423 95.3943L23.9381 95.387L23.9338 95.3797L18.8532 86.8284C18.8304 86.7812 18.8221 86.7225 18.8338 86.6629C18.8459 86.6018 18.8752 86.5574 18.9099 86.5295L24.2838 82.4488L24.7636 82.0845L24.6657 81.49C24.5479 80.7742 24.488 79.993 24.488 79.2381C24.488 78.5072 24.5752 77.7297 24.6976 76.9862L24.7954 76.3917L24.3156 76.0274L18.9351 71.9417L18.9273 71.9358L18.9195 71.9301C18.863 71.8889 18.8468 71.8499 18.8413 71.8223C18.8355 71.7934 18.8345 71.7383 18.8772 71.6609L23.9656 63.0965L23.97 63.0892L23.9742 63.0819C24.0386 62.9691 24.1787 62.9153 24.3089 62.9627L30.6376 65.4362L31.1503 65.6366L31.5939 65.3105C32.8417 64.3933 34.2 63.6027 35.6685 63.02L36.206 62.8067L36.2893 62.2345L37.2436 55.6782C37.2554 55.6056 37.2866 55.5608 37.3196 55.5328C37.3534 55.5041 37.4092 55.4762 37.4965 55.4762H47.6845C47.8668 55.4762 47.9539 55.5868 47.9693 55.6786L48.9235 62.2345L49.0068 62.8067L49.5443 63.02C51.0157 63.6039 52.3412 64.3641 53.6159 65.3083L54.0602 65.6374L54.5752 65.4362L60.8752 62.9739C60.9578 62.9515 61.0409 62.9555 61.1061 62.9773C61.1697 62.9984 61.2108 63.0332 61.2386 63.0819L61.2428 63.0892L61.2471 63.0965L66.3277 71.6478C66.3505 71.695 66.3589 71.7537 66.3471 71.8133C66.3351 71.8743 66.3058 71.9187 66.2711 71.9467L60.8972 76.0274L60.4174 76.3917L60.5152 76.9862C60.6332 77.703 60.693 78.4533 60.693 79.2381C60.693 80.0232 60.6331 80.7858 60.5413 81.5299Z" fill="white" stroke="#B8C0CC" stroke-width="2" stroke-linecap="round"/>
<path d="M51.4938 79.2389C51.4938 84.1568 47.507 88.1436 42.589 88.1436C37.671 88.1436 33.6842 84.1568 33.6842 79.2389C33.6842 74.3209 37.671 70.3341 42.589 70.3341C47.507 70.3341 51.4938 74.3209 51.4938 79.2389Z" fill="white" stroke="#8836DA" stroke-width="2"/>
</g>
<mask id="path-5-inside-1" fill="white">
<path fill-rule="evenodd" clip-rule="evenodd" d="M44.5714 25.3237C44.5714 24.5966 43.8209 24.1167 43.1856 24.4705C37.5056 27.6347 33.6762 33.6052 33.6762 40.4493C33.6762 45.8014 36.0179 50.6192 39.7551 53.9786C42.826 56.739 45.5619 60.2651 45.5619 64.3943V86.1714C45.5619 90.0006 48.6661 93.1047 52.4953 93.1047C56.3244 93.1047 59.4286 90.0006 59.4286 86.1714V64.3943C59.4286 60.2651 62.1645 56.7389 65.2354 53.9785C68.9726 50.6192 71.3143 45.8014 71.3143 40.4493C71.3143 33.6052 67.4849 27.6347 61.8048 24.4705C61.1696 24.1167 60.4191 24.5966 60.4191 25.3237V41.4275C60.4191 41.7598 60.254 42.0704 59.9785 42.2563L53.0547 46.9299C52.7166 47.1581 52.2739 47.1581 51.9358 46.9299L45.012 42.2563C44.7365 42.0704 44.5714 41.7598 44.5714 41.4275V25.3237Z"/>
</mask>
<path fill-rule="evenodd" clip-rule="evenodd" d="M44.5714 25.3237C44.5714 24.5966 43.8209 24.1167 43.1856 24.4705C37.5056 27.6347 33.6762 33.6052 33.6762 40.4493C33.6762 45.8014 36.0179 50.6192 39.7551 53.9786C42.826 56.739 45.5619 60.2651 45.5619 64.3943V86.1714C45.5619 90.0006 48.6661 93.1047 52.4953 93.1047C56.3244 93.1047 59.4286 90.0006 59.4286 86.1714V64.3943C59.4286 60.2651 62.1645 56.7389 65.2354 53.9785C68.9726 50.6192 71.3143 45.8014 71.3143 40.4493C71.3143 33.6052 67.4849 27.6347 61.8048 24.4705C61.1696 24.1167 60.4191 24.5966 60.4191 25.3237V41.4275C60.4191 41.7598 60.254 42.0704 59.9785 42.2563L53.0547 46.9299C52.7166 47.1581 52.2739 47.1581 51.9358 46.9299L45.012 42.2563C44.7365 42.0704 44.5714 41.7598 44.5714 41.4275V25.3237Z" fill="white"/>
<path d="M39.7551 53.9786L41.0922 52.4912H41.0922L39.7551 53.9786ZM65.2354 53.9785L66.5724 55.466L65.2354 53.9785ZM45.012 42.2563L46.1309 40.5986L45.012 42.2563ZM53.0547 46.9299L54.1737 48.5876L53.0547 46.9299ZM51.9358 46.9299L50.8168 48.5876L51.9358 46.9299ZM59.9785 42.2563L61.0975 43.914L59.9785 42.2563ZM61.8048 24.4705L62.7782 22.7233L61.8048 24.4705ZM42.2123 22.7233C35.9389 26.2181 31.6762 32.8345 31.6762 40.4493H35.6762C35.6762 34.3759 39.0722 29.0514 44.159 26.2177L42.2123 22.7233ZM31.6762 40.4493C31.6762 46.4004 34.2831 51.749 38.4181 55.466L41.0922 52.4912C37.7528 49.4894 35.6762 45.2023 35.6762 40.4493H31.6762ZM38.4181 55.466C41.3908 58.1381 43.5619 61.1566 43.5619 64.3943H47.5619C47.5619 59.3736 44.2612 55.3398 41.0922 52.4912L38.4181 55.466ZM43.5619 64.3943V86.1714H47.5619V64.3943H43.5619ZM43.5619 86.1714C43.5619 91.1052 47.5615 95.1047 52.4953 95.1047V91.1047C49.7707 91.1047 47.5619 88.896 47.5619 86.1714H43.5619ZM52.4953 95.1047C57.429 95.1047 61.4286 91.1052 61.4286 86.1714H57.4286C57.4286 88.896 55.2199 91.1047 52.4953 91.1047V95.1047ZM61.4286 86.1714V64.3943H57.4286V86.1714H61.4286ZM61.4286 64.3943C61.4286 61.1566 63.5997 58.1381 66.5724 55.466L63.8983 52.4911C60.7293 55.3398 57.4286 59.3736 57.4286 64.3943H61.4286ZM66.5724 55.466C70.7074 51.749 73.3143 46.4004 73.3143 40.4493H69.3143C69.3143 45.2023 67.2377 49.4894 63.8983 52.4911L66.5724 55.466ZM73.3143 40.4493C73.3143 32.8345 69.0516 26.218 62.7782 22.7233L60.8315 26.2177C65.9183 29.0514 69.3143 34.3759 69.3143 40.4493H73.3143ZM58.4191 25.3237V41.4275H62.4191V25.3237H58.4191ZM58.8596 40.5986L51.9358 45.2722L54.1737 48.5876L61.0975 43.914L58.8596 40.5986ZM53.0547 45.2722L46.1309 40.5986L43.893 43.914L50.8168 48.5876L53.0547 45.2722ZM46.5714 41.4275V25.3237H42.5714V41.4275H46.5714ZM46.1309 40.5986C46.4064 40.7845 46.5714 41.0951 46.5714 41.4275H42.5714C42.5714 42.4244 43.0667 43.3562 43.893 43.914L46.1309 40.5986ZM51.9358 45.2722C52.2739 45.044 52.7166 45.044 53.0547 45.2722L50.8168 48.5876C51.8311 49.2722 53.1594 49.2722 54.1737 48.5876L51.9358 45.2722ZM58.4191 41.4275C58.4191 41.0951 58.5841 40.7845 58.8596 40.5986L61.0975 43.914C61.9238 43.3562 62.4191 42.4244 62.4191 41.4275H58.4191ZM62.7782 22.7233C60.6884 21.5592 58.4191 23.2118 58.4191 25.3237H62.4191C62.4191 25.6776 62.2274 26.0045 61.9326 26.1885C61.6257 26.38 61.1939 26.4196 60.8315 26.2177L62.7782 22.7233ZM44.159 26.2177C43.7966 26.4196 43.3648 26.38 43.0579 26.1885C42.7631 26.0045 42.5714 25.6776 42.5714 25.3237H46.5714C46.5714 23.2119 44.3021 21.5592 42.2123 22.7233L44.159 26.2177Z" fill="#8836DA" mask="url(#path-5-inside-1)"/>
<rect x="48.9283" y="91.0508" width="13.0962" height="11.9492" rx="3" fill="white" stroke="#B8C0CC" stroke-width="2"/>
<rect x="85.5906" y="91.0508" width="13.0962" height="11.9492" rx="3" fill="white" stroke="#B8C0CC" stroke-width="2"/>
<path d="M50.0849 60.4952C50.0849 56.077 53.6666 52.4952 58.0849 52.4952H89.5302C93.9485 52.4952 97.5302 56.077 97.5302 60.4952V69.8095C97.5302 70.9141 96.6348 71.8095 95.5302 71.8095H52.0849C50.9803 71.8095 50.0849 70.9141 50.0849 69.8095V60.4952Z" fill="white" stroke="#B8C0CC" stroke-width="2"/>
<path d="M90.0604 70.7365C90.0604 74.3279 87.1334 77.2476 83.5123 77.2476C79.8912 77.2476 76.9642 74.3279 76.9642 70.7365C76.9642 67.1452 79.8912 64.2254 83.5123 64.2254C87.1334 64.2254 90.0604 67.1452 90.0604 70.7365Z" stroke="#B8C0CC" stroke-width="2"/>
<path d="M43.6151 81.8095C43.6151 76.2867 48.0923 71.8095 53.6151 71.8095H94C99.5229 71.8095 104 76.2867 104 81.8095V91.2698C104 92.3744 103.105 93.2698 102 93.2698H45.6151C44.5105 93.2698 43.6151 92.3744 43.6151 91.2698V81.8095Z" fill="white" stroke="#B8C0CC" stroke-width="2"/>
<path d="M60.5423 73.0541C60.3253 72.4063 60.8073 71.7365 61.4905 71.7365H86.1246C86.8078 71.7365 87.2898 72.4063 87.0728 73.0541L85.0138 79.2008C84.3311 81.2389 82.4222 82.6126 80.2728 82.6126H67.3424C65.1929 82.6126 63.284 81.2389 62.6013 79.2008L60.5423 73.0541Z" stroke="#8836DA" stroke-width="2"/>
<path d="M64.1029 87.9048H83.5123" stroke="#8836DA" stroke-width="2" stroke-linecap="round"/>
<path d="M59.8679 82.5396C59.8679 84.9458 57.9064 86.9047 55.4764 86.9047C53.0464 86.9047 51.0849 84.9458 51.0849 82.5396C51.0849 80.1335 53.0464 78.1746 55.4764 78.1746C57.9064 78.1746 59.8679 80.1335 59.8679 82.5396Z" stroke="#B8C0CC" stroke-width="2"/>
<path d="M96.5302 82.5396C96.5302 84.9458 94.5687 86.9047 92.1387 86.9047C89.7087 86.9047 87.7472 84.9458 87.7472 82.5396C87.7472 80.1335 89.7087 78.1746 92.1387 78.1746C94.5687 78.1746 96.5302 80.1335 96.5302 82.5396Z" stroke="#B8C0CC" stroke-width="2"/>
</svg>
