<svg width="334" height="525" viewBox="0 0 334 525" fill="none" xmlns="http://www.w3.org/2000/svg">
<g filter="url(#filter0_d)">
<rect x="95" y="91.9998" width="225" height="413" rx="14" fill="white"/>
<rect x="95.5" y="92.4998" width="224" height="412" rx="13.5" stroke="#8836DA" stroke-opacity="0.2"/>
</g>
<rect x="120.5" y="248.5" width="174" height="144" rx="5.5" fill="white" stroke="#B8C0CC"/>
<path d="M225.5 268C225.5 262.753 229.753 258.5 235 258.5H294.5V375.5H225.5V268Z" stroke="#B8C0CC" stroke-linecap="round" stroke-linejoin="round"/>
<path d="M294.5 286.768H225.684" stroke="#B8C0CC" stroke-linecap="round" stroke-linejoin="round"/>
<path d="M248.78 316.609C249.029 312.865 249.596 305.396 249.596 305.396L250.802 304.948C258.005 307.65 274.829 304.948 274.829 304.948L276.035 305.396C276.035 305.396 277.147 312.865 277.397 316.609C277.647 320.353 277.732 381.389 277.732 381.389C277.732 381.389 268.118 383.741 263.811 382.188L263.256 319.395L262.185 382.188C257.87 383.75 248.437 381.389 248.437 381.389C248.437 381.389 248.53 320.353 248.78 316.609Z" fill="white" stroke="#B8C0CC" stroke-linecap="round" stroke-linejoin="round"/>
<path d="M276.035 302.891V305.396C276.035 306.285 270.101 307.003 262.791 307.003C255.473 307.003 249.546 306.285 249.546 305.396V302.891H276.035Z" fill="white" stroke="#B8C0CC" stroke-linecap="round" stroke-linejoin="round"/>
<path d="M262.791 307.164C266.335 307.164 269.666 306.994 272.169 306.688C276.149 306.204 276.149 305.62 276.149 305.396V302.891C276.149 302.801 276.099 302.738 276.042 302.738H249.546C249.482 302.738 249.439 302.81 249.439 302.891V305.396C249.439 305.62 249.439 306.204 253.419 306.688C255.915 306.994 259.246 307.164 262.791 307.164ZM275.928 303.052V305.396C275.821 305.988 271.078 306.85 262.791 306.85C254.503 306.85 249.767 305.988 249.653 305.396V303.052H275.928Z" fill="white" stroke="#B8C0CC" stroke-linecap="round" stroke-linejoin="round"/>
<path d="M254.475 304.148C251.472 303.852 249.546 303.403 249.546 302.9C249.546 302.011 255.48 301.293 262.79 301.293C270.108 301.293 276.035 302.011 276.035 302.9C276.035 303.403 274.109 303.861 271.106 304.148C268.831 303.924 265.943 303.789 262.79 303.789C259.638 303.789 256.743 303.924 254.475 304.148Z" fill="white" stroke="#B8C0CC" stroke-linecap="round" stroke-linejoin="round"/>
<path d="M270.178 307.372L270.948 307.319L270.827 304.096L270.057 304.15L270.178 307.372Z" fill="white" stroke="#B8C0CC" stroke-linecap="round" stroke-linejoin="round"/>
<path d="M270.179 307.532L270.957 307.478C271.021 307.469 271.064 307.397 271.064 307.316L270.942 304.093C270.942 304.049 270.928 304.013 270.907 303.986C270.885 303.959 270.857 303.941 270.828 303.95L270.058 304.004C269.994 304.013 269.951 304.085 269.951 304.165L270.072 307.388C270.072 307.433 270.086 307.469 270.108 307.496C270.122 307.514 270.151 307.532 270.179 307.532ZM270.835 307.173L270.286 307.218L270.179 304.3L270.728 304.255L270.835 307.173Z" fill="white" stroke="#B8C0CC" stroke-linecap="round" stroke-linejoin="round"/>
<path d="M255.394 307.372L254.624 307.319L254.745 304.096L255.515 304.15L255.394 307.372Z" fill="white" stroke="#B8C0CC" stroke-linecap="round" stroke-linejoin="round"/>
<path d="M255.395 307.532C255.452 307.532 255.502 307.469 255.502 307.388L255.623 304.165C255.623 304.12 255.616 304.085 255.594 304.058C255.573 304.031 255.544 304.013 255.516 304.004L254.746 303.95C254.717 303.941 254.689 303.959 254.667 303.986C254.646 304.013 254.632 304.049 254.632 304.093L254.51 307.316C254.51 307.406 254.553 307.478 254.617 307.478L255.395 307.532C255.388 307.532 255.395 307.532 255.395 307.532ZM255.402 304.3L255.295 307.218L254.746 307.173L254.853 304.255L255.402 304.3Z" fill="white"/>
<path d="M255.395 307.532C255.452 307.532 255.502 307.469 255.502 307.388L255.623 304.165C255.623 304.12 255.616 304.085 255.594 304.058C255.573 304.031 255.544 304.013 255.516 304.004L254.746 303.95C254.717 303.941 254.689 303.959 254.667 303.986C254.646 304.013 254.632 304.049 254.632 304.093L254.51 307.316C254.51 307.406 254.553 307.478 254.617 307.478L255.395 307.532ZM255.395 307.532C255.388 307.532 255.395 307.532 255.395 307.532ZM255.402 304.3L255.295 307.218L254.746 307.173L254.853 304.255L255.402 304.3Z" stroke="#B8C0CC" stroke-linecap="round" stroke-linejoin="round"/>
<path d="M277.967 381.945C278.01 382.088 269.587 385.302 263.696 383.112L263.547 380.032C263.547 380.032 272.511 381.738 277.91 378.372C277.91 378.363 277.925 381.801 277.967 381.945Z" fill="white" stroke="#B8C0CC" stroke-linecap="round" stroke-linejoin="round"/>
<path d="M247.726 382.026C247.681 382.169 256.254 385.437 262.407 383.246L262.563 380.167C262.563 380.167 253.424 381.819 247.785 378.453C247.778 378.453 247.771 381.891 247.726 382.026Z" fill="white" stroke="#B8C0CC" stroke-linecap="round" stroke-linejoin="round"/>
<path d="M267 286.963C266.695 286.107 265.952 285.5 265.086 285.5C263.943 285.5 263.009 286.562 263 287.863V293.207C263 293.37 263.114 293.5 263.257 293.5" stroke="#B8C0CC" stroke-linecap="round" stroke-linejoin="round"/>
<path d="M261.561 293.344L249.031 300.451L261.395 294.288C261.91 294.006 262.53 293.875 263.125 293.872C263.719 293.87 264.332 293.995 264.829 294.271L277.166 300.419L264.676 293.335C264.668 293.33 264.659 293.325 264.651 293.319C264.087 292.954 263.677 292.449 263.412 292.051C263.288 291.865 263.192 291.696 263.124 291.567C263.056 291.695 262.96 291.865 262.835 292.053C262.569 292.451 262.157 292.959 261.586 293.329C261.578 293.334 261.569 293.339 261.561 293.344Z" fill="white" stroke="#B8C0CC" stroke-linecap="round" stroke-linejoin="round"/>
<path opacity="0.7" d="M272.897 303.735C272.839 303.618 272.804 303.492 272.797 303.349L272.761 302.819H274.287V303.268C274.287 303.438 274.252 303.591 274.187 303.735H272.897Z" fill="white" stroke="#B8C0CC" stroke-linecap="round" stroke-linejoin="round"/>
<path d="M273.32 303.681C273.903 303.681 274.373 303.31 274.373 302.862L274.351 299.105C274.351 298.656 273.869 298.294 273.287 298.294C272.704 298.294 272.234 298.665 272.234 299.113L272.256 302.871C272.256 303.319 272.738 303.681 273.32 303.681Z" fill="white" stroke="#B8C0CC" stroke-linecap="round" stroke-linejoin="round"/>
<path opacity="0.7" d="M252.135 303.735C252.078 303.618 252.042 303.492 252.035 303.349L252 302.819H253.526V303.268C253.526 303.438 253.49 303.591 253.426 303.735H252.135Z" fill="white" stroke="#B8C0CC" stroke-linecap="round" stroke-linejoin="round"/>
<path d="M252.638 303.681C253.22 303.681 253.691 303.31 253.691 302.862L253.668 299.105C253.668 298.656 253.187 298.294 252.604 298.294C252.021 298.294 251.551 298.665 251.551 299.113L251.573 302.871C251.585 303.319 252.055 303.681 252.638 303.681Z" fill="white" stroke="#B8C0CC" stroke-linecap="round" stroke-linejoin="round"/>
<path opacity="0.7" d="M252.306 300.334V300.314V300.334Z" fill="white" stroke="#B8C0CC" stroke-linecap="round" stroke-linejoin="round"/>
<path d="M237.736 300.009H237.764C238.639 300 239.615 299.488 240.518 298.582C241.954 297.145 242.866 295.09 242.829 293.357L242.82 293.303L241.991 291.436L241.908 291.418C241.89 291.418 239.928 291.05 237.902 291.032C236.483 291.023 235.369 291.176 234.577 291.499L234.54 291.517L234.512 291.553C234.503 291.571 234.218 291.939 234.181 292.378C234.144 292.693 234.954 297.666 236.557 299.39C236.935 299.803 237.331 300.009 237.736 300.009Z" fill="white" stroke="#B8C0CC" stroke-linecap="round" stroke-linejoin="round"/>
<path d="M241.641 286.419C241.301 285.889 240.693 285.53 240.002 285.53C238.934 285.53 238.059 286.383 238.059 287.424V291.688C238.059 291.814 238.169 291.922 238.298 291.922" stroke="#B8C0CC" stroke-linecap="round" stroke-linejoin="round"/>
<path d="M240.318 294.151L255.965 300.187L240.344 293.321C240.337 293.318 240.33 293.315 240.324 293.312C239.637 292.972 239.132 292.492 238.801 292.104C238.634 291.909 238.509 291.734 238.423 291.605C238.38 291.541 238.348 291.488 238.325 291.451C238.314 291.432 238.305 291.418 238.3 291.409L238.3 291.408C238.299 291.408 238.299 291.407 238.299 291.407C238.298 291.406 238.298 291.406 238.298 291.406C238.298 291.406 238.298 291.406 238.297 291.407C238.297 291.407 238.297 291.408 238.296 291.408L238.296 291.409C238.291 291.418 238.282 291.432 238.271 291.451C238.248 291.488 238.215 291.541 238.172 291.606C238.086 291.735 237.96 291.91 237.792 292.106C237.458 292.496 236.949 292.977 236.254 293.321C236.247 293.324 236.24 293.327 236.233 293.33L220.354 300.307L236.266 294.17C236.864 293.909 237.597 293.791 238.303 293.79C239.009 293.789 239.735 293.904 240.318 294.151Z" fill="white" stroke="#B8C0CC" stroke-linecap="round" stroke-linejoin="round"/>
<path opacity="0.7" d="M250.474 303.321C250.41 303.213 250.364 303.088 250.354 302.953L250.308 302.441H252.206V302.872C252.206 303.034 252.16 303.187 252.077 303.321H250.474Z" fill="white" stroke="#B8C0CC" stroke-linecap="round" stroke-linejoin="round"/>
<path d="M251.542 303.699C252.002 303.663 252.343 303.268 252.306 302.82L251.993 299.049C251.956 298.6 251.551 298.268 251.09 298.304C250.63 298.34 250.289 298.735 250.326 299.184L250.639 302.954C250.676 303.394 251.081 303.735 251.542 303.699Z" fill="white" stroke="#B8C0CC" stroke-linecap="round" stroke-linejoin="round"/>
<path d="M251.477 303.762C251.504 303.762 251.523 303.762 251.55 303.762C252.048 303.727 252.416 303.296 252.37 302.82L252.057 299.049C252.02 298.565 251.587 298.205 251.09 298.25C250.593 298.286 250.224 298.717 250.27 299.193L250.583 302.963C250.62 303.412 251.016 303.762 251.477 303.762ZM251.541 303.646C251.108 303.673 250.731 303.367 250.703 302.954L250.39 299.184C250.353 298.762 250.675 298.394 251.099 298.367C251.523 298.331 251.91 298.645 251.937 299.067L252.25 302.838C252.287 303.242 251.965 303.61 251.541 303.646Z" fill="white" stroke="#B8C0CC" stroke-linecap="round" stroke-linejoin="round"/>
<path opacity="0.7" d="M251.091 298.296C251.441 298.269 251.763 298.458 251.91 298.754C251.763 298.592 251.551 298.494 251.312 298.511C250.916 298.547 250.621 298.88 250.658 299.266L250.934 302.497C250.971 302.883 251.312 303.171 251.708 303.135C251.984 303.117 252.205 302.937 252.306 302.704L252.316 302.803C252.352 303.251 252.012 303.646 251.551 303.682C251.091 303.718 250.685 303.386 250.648 302.937L250.335 299.167C250.28 298.736 250.63 298.341 251.091 298.296Z" fill="white" stroke="#B8C0CC" stroke-linecap="round" stroke-linejoin="round"/>
<path d="M251.541 303.701C252.002 303.701 252.38 303.333 252.38 302.875L252.361 299.096C252.361 298.647 251.984 298.279 251.514 298.279C251.053 298.279 250.676 298.647 250.676 299.105L250.694 302.884C250.703 303.333 251.081 303.701 251.541 303.701Z" fill="white" stroke="#B8C0CC" stroke-linecap="round" stroke-linejoin="round"/>
<path d="M251.543 303.752C251.782 303.752 252.012 303.663 252.178 303.492C252.344 303.322 252.436 303.106 252.436 302.873L252.417 299.093C252.417 298.86 252.325 298.644 252.15 298.474C251.985 298.312 251.754 298.222 251.515 298.222C251.275 298.222 251.054 298.312 250.879 298.483C250.714 298.653 250.621 298.869 250.621 299.102L250.64 302.882C250.649 303.366 251.045 303.752 251.543 303.752ZM251.543 303.636C251.11 303.636 250.76 303.295 250.76 302.882L250.741 299.102C250.741 298.896 250.824 298.707 250.971 298.564C251.119 298.42 251.312 298.339 251.524 298.339C251.727 298.339 251.92 298.42 252.077 298.564C252.224 298.707 252.307 298.896 252.307 299.102L252.325 302.882C252.325 303.088 252.242 303.277 252.095 303.42C251.948 303.555 251.754 303.636 251.543 303.636Z" fill="white" stroke="#B8C0CC" stroke-linecap="round" stroke-linejoin="round"/>
<path opacity="0.7" d="M251.523 298.279C251.873 298.279 252.176 298.495 252.305 298.791C252.176 298.62 251.965 298.503 251.725 298.512C251.329 298.512 251.007 298.836 251.007 299.213L251.016 301.825H252.167C252.167 301.825 252.232 301.825 252.232 301.933C252.232 302.041 252.167 302.041 252.167 302.041H251.016V302.453C251.016 302.84 251.338 303.154 251.734 303.154C252.011 303.154 252.25 302.992 252.37 302.768V302.866C252.37 303.315 251.992 303.683 251.532 303.692C251.071 303.692 250.694 303.324 250.684 302.875L250.666 299.096C250.684 298.656 251.062 298.288 251.523 298.279Z" fill="white" stroke="#B8C0CC" stroke-linecap="round" stroke-linejoin="round"/>
<path opacity="0.5" d="M250.548 299.984C250.557 299.975 250.575 299.966 250.594 299.966H250.686V300.083H250.658L250.76 301.896H252.15C252.187 301.896 252.206 301.923 252.206 301.95C252.206 301.986 252.178 302.004 252.15 302.004H250.704C250.677 302.004 250.649 301.977 250.649 301.95L250.548 300.02C250.539 300.011 250.539 299.993 250.548 299.984Z" fill="white" stroke="#B8C0CC" stroke-linecap="round" stroke-linejoin="round"/>
<path d="M250.548 299.964C250.557 299.955 250.575 299.946 250.594 299.946H250.686V300.063H250.658L250.76 301.876H252.15C252.187 301.876 252.206 301.903 252.206 301.93C252.206 301.966 252.178 301.984 252.15 301.984H250.704C250.677 301.984 250.649 301.957 250.649 301.93L250.548 300C250.539 299.991 250.539 299.982 250.548 299.964Z" fill="white" stroke="#B8C0CC" stroke-linecap="round" stroke-linejoin="round"/>
<g opacity="0.7">
<path opacity="0.7" d="M250.547 299.964C250.556 299.955 250.556 299.955 250.565 299.955V299.964L250.667 301.894C250.667 301.921 250.694 301.948 250.722 301.948H252.168C252.177 301.948 252.186 301.939 252.196 301.939C252.196 301.966 252.168 301.993 252.14 301.993H250.694C250.667 301.993 250.639 301.966 250.639 301.939L250.538 300.009C250.538 299.991 250.538 299.982 250.547 299.964Z" fill="white" stroke="#B8C0CC" stroke-linecap="round" stroke-linejoin="round"/>
<path opacity="0.7" d="M250.686 300.047V300.028V300.047Z" fill="white" stroke="#B8C0CC" stroke-linecap="round" stroke-linejoin="round"/>
</g>
<path opacity="0.7" d="M224.602 303.321C224.538 303.213 224.492 303.088 224.483 302.953L224.437 302.441H226.334V302.872C226.334 303.034 226.288 303.187 226.205 303.321H224.602Z" fill="white" stroke="#B8C0CC" stroke-linecap="round" stroke-linejoin="round"/>
<path d="M225.671 303.699C226.131 303.663 226.472 303.268 226.435 302.819L226.122 299.049C226.085 298.6 225.68 298.268 225.22 298.303C224.759 298.339 224.418 298.734 224.455 299.183L224.768 302.954C224.805 303.394 225.21 303.735 225.671 303.699Z" fill="white" stroke="#B8C0CC" stroke-linecap="round" stroke-linejoin="round"/>
<path d="M225.596 303.762C225.624 303.762 225.642 303.762 225.67 303.762C226.167 303.727 226.535 303.296 226.489 302.82L226.176 299.049C226.139 298.565 225.706 298.205 225.209 298.25C224.712 298.286 224.343 298.717 224.389 299.193L224.703 302.963C224.739 303.412 225.135 303.762 225.596 303.762ZM225.66 303.646C225.228 303.673 224.85 303.367 224.822 302.954L224.509 299.184C224.472 298.762 224.795 298.394 225.218 298.367C225.642 298.331 226.029 298.645 226.056 299.067L226.37 302.838C226.416 303.242 226.093 303.61 225.66 303.646Z" fill="white" stroke="#B8C0CC" stroke-linecap="round" stroke-linejoin="round"/>
<path opacity="0.7" d="M225.218 298.296C225.568 298.27 225.89 298.458 226.037 298.754C225.89 298.593 225.678 298.494 225.439 298.512C225.043 298.548 224.748 298.88 224.785 299.266L225.061 302.498C225.098 302.884 225.439 303.171 225.835 303.135C226.111 303.117 226.332 302.938 226.433 302.704L226.443 302.803C226.48 303.252 226.139 303.647 225.678 303.683C225.218 303.719 224.812 303.387 224.776 302.938L224.462 299.167C224.407 298.736 224.757 298.341 225.218 298.296Z" fill="white" stroke="#B8C0CC" stroke-linecap="round" stroke-linejoin="round"/>
<path d="M225.67 303.701C226.13 303.701 226.508 303.333 226.508 302.875L226.489 299.096C226.489 298.647 226.112 298.279 225.642 298.279C225.181 298.279 224.804 298.647 224.804 299.105L224.822 302.884C224.831 303.333 225.209 303.701 225.67 303.701Z" fill="white" stroke="#B8C0CC" stroke-linecap="round" stroke-linejoin="round"/>
<path d="M225.671 303.752C225.91 303.752 226.14 303.663 226.306 303.492C226.472 303.322 226.564 303.106 226.564 302.873L226.546 299.093C226.546 298.86 226.454 298.644 226.279 298.474C226.113 298.312 225.882 298.222 225.643 298.222C225.404 298.222 225.183 298.312 225.008 298.483C224.842 298.653 224.75 298.869 224.75 299.102L224.768 302.882C224.768 303.366 225.173 303.752 225.671 303.752ZM225.671 303.636C225.238 303.636 224.888 303.295 224.888 302.882L224.869 299.102C224.869 298.896 224.952 298.707 225.1 298.564C225.247 298.42 225.44 298.339 225.652 298.339C225.855 298.339 226.048 298.42 226.205 298.564C226.352 298.707 226.435 298.896 226.435 299.102L226.454 302.882C226.454 303.088 226.371 303.277 226.223 303.42C226.076 303.555 225.873 303.636 225.671 303.636Z" fill="white" stroke="#B8C0CC" stroke-linecap="round" stroke-linejoin="round"/>
<path opacity="0.7" d="M225.642 298.279C225.992 298.279 226.296 298.494 226.425 298.791C226.296 298.62 226.084 298.503 225.845 298.512C225.449 298.512 225.126 298.835 225.126 299.212L225.145 301.825H226.296C226.296 301.825 226.36 301.825 226.36 301.933C226.36 302.04 226.296 302.04 226.296 302.04H225.145V302.453C225.145 302.839 225.467 303.153 225.863 303.153C226.139 303.153 226.379 302.992 226.499 302.767V302.866C226.499 303.315 226.121 303.683 225.66 303.692C225.2 303.692 224.822 303.324 224.813 302.875L224.795 299.096C224.804 298.656 225.182 298.288 225.642 298.279Z" fill="white" stroke="#B8C0CC" stroke-linecap="round" stroke-linejoin="round"/>
<path opacity="0.5" d="M224.676 299.984C224.685 299.975 224.704 299.966 224.722 299.966H224.814V300.083H224.786L224.888 301.896H226.279C226.315 301.896 226.334 301.923 226.334 301.95C226.334 301.986 226.306 302.004 226.279 302.004H224.832C224.805 302.004 224.777 301.977 224.777 301.95L224.676 300.02C224.657 300.011 224.667 299.993 224.676 299.984Z" fill="white" stroke="#B8C0CC" stroke-linecap="round" stroke-linejoin="round"/>
<path d="M224.676 299.964C224.685 299.955 224.704 299.946 224.722 299.946H224.814V300.063H224.786L224.888 301.876H226.279C226.315 301.876 226.334 301.903 226.334 301.93C226.334 301.966 226.306 301.984 226.279 301.984H224.833C224.805 301.984 224.777 301.957 224.777 301.93L224.676 300C224.658 299.991 224.667 299.982 224.676 299.964Z" fill="white" stroke="#B8C0CC" stroke-linecap="round" stroke-linejoin="round"/>
<g opacity="0.7">
<path opacity="0.7" d="M224.676 299.964C224.685 299.955 224.685 299.955 224.694 299.955V299.964L224.795 301.894C224.795 301.921 224.823 301.948 224.851 301.948H226.297C226.306 301.948 226.315 301.939 226.324 301.939C226.324 301.966 226.297 301.993 226.269 301.993H224.823C224.795 301.993 224.768 301.966 224.768 301.939L224.666 300.009C224.657 299.991 224.666 299.982 224.676 299.964Z" fill="white" stroke="#B8C0CC" stroke-linecap="round" stroke-linejoin="round"/>
<path opacity="0.7" d="M224.814 300.047V300.028V300.047Z" fill="white" stroke="#B8C0CC" stroke-linecap="round" stroke-linejoin="round"/>
</g>
<path d="M213.955 313.053C215.162 313.762 216.755 314.077 218.063 314.319C219.923 314.651 221.966 314.65 223.855 314.695C223.562 308.618 225.376 302.047 223 299.731C222.99 299.722 223.009 299.704 223.018 299.713C224.151 300.943 224.289 303.223 224.225 304.794C224.114 307.281 223.921 309.758 223.912 312.263C223.902 315.073 223.626 317.946 223.801 320.747C223.93 322.74 224.308 324.679 224.611 326.636C224.621 327.049 224.602 327.471 224.575 327.884C224.335 326.851 224.105 325.828 223.921 324.804C223.921 324.813 223.921 324.831 223.912 324.849C223.285 325.711 223.267 326.313 223.562 327.273C223.718 327.776 223.064 328.692 222.926 329.248C222.419 331.322 222.088 333.414 221.867 335.532C221.83 335.864 221.655 336.879 221.987 337.103C222.456 337.417 222.935 337.705 223.433 337.974C224.372 338.477 225.33 338.881 226.325 339.285C228.471 340.147 230.828 340.676 233.131 340.972C234.78 341.179 237.359 341.314 239.026 341.35V320.401V299.453C234.669 299.075 233.763 293.207 231.086 294.425C230.635 294.883 229.622 295.081 229.125 295.26C227.872 295.718 226.638 296.041 225.376 296.436C223.329 297.077 222.006 296.28 219.813 298.384C218.127 300 217.206 302.433 216.341 304.498C215.512 306.473 215.042 308.663 214.084 310.584C213.633 311.509 212.795 312.263 213.955 313.053Z" fill="white" stroke="#B8C0CC" stroke-linecap="round" stroke-linejoin="round"/>
<path d="M250.207 339.267C251.202 338.872 252.159 338.459 253.099 337.956C253.605 337.687 254.075 337.409 254.545 337.086C254.876 336.852 254.701 335.838 254.665 335.515C254.444 333.396 254.112 331.304 253.605 329.23C253.467 328.683 252.823 327.758 252.97 327.255C253.265 326.286 253.246 325.693 252.62 324.832C252.611 324.814 252.611 324.805 252.611 324.787C252.427 325.81 252.196 326.834 251.957 327.866C251.929 327.453 251.92 327.04 251.92 326.618C252.215 324.661 252.602 322.722 252.73 320.729C252.915 317.928 252.629 315.055 252.62 312.245C252.611 309.75 252.417 307.272 252.307 304.776C252.242 303.205 252.38 300.925 253.513 299.695C253.523 299.686 253.541 299.704 253.532 299.713C252.113 301.437 252.327 304.21 252.411 306.823C252.498 309.537 252.67 312.301 252.67 314.454C254.549 314.409 256.617 314.633 258.478 314.301C259.776 314.068 261.379 313.754 262.586 313.035C263.737 312.245 262.899 311.491 262.429 310.549C261.471 308.628 261.001 306.437 260.172 304.462C259.307 302.388 258.395 299.956 256.7 298.349C255.555 297.255 253.034 296.948 251.137 296.401C249.875 296.014 248.641 295.682 247.389 295.224C246.891 295.045 245.878 294.847 245.427 294.39C242.374 293.658 241.014 296.401 238.408 299.417V341.305C240.076 341.26 241.743 341.134 243.382 340.928C245.703 340.659 248.061 340.129 250.207 339.267Z" fill="white" stroke="#B8C0CC" stroke-linecap="round" stroke-linejoin="round"/>
<path d="M237.736 298.744C236.723 297.684 236.023 296.248 235.581 294.919C235.443 294.506 234.835 292.872 234.734 292.451C234.66 292.136 234.687 291.813 234.264 291.894C233.334 292.073 232.551 292.792 231.805 293.312C231.749 293.348 231.703 293.402 231.657 293.456C230.911 294.066 231.482 295.763 231.685 296.454C232.063 297.702 232.541 298.923 233.066 300.126C233.462 301.033 233.868 302.083 234.697 302.73C234.743 302.765 234.798 302.774 234.844 302.765C235.212 302.846 235.572 301.94 235.783 301.661C236.391 300.844 237.165 300.189 237.874 299.462C237.939 299.381 237.994 299.3 238.058 299.219C237.957 299.058 237.847 298.896 237.736 298.744Z" fill="white" stroke="#B8C0CC" stroke-linecap="round" stroke-linejoin="round"/>
<path d="M238.279 299.13C238.279 299.121 238.279 299.112 238.279 299.103C238.27 299.112 238.27 299.121 238.279 299.13Z" fill="white" stroke="#B8C0CC" stroke-linecap="round" stroke-linejoin="round"/>
<path d="M244.893 293.456C244.856 293.402 244.81 293.348 244.754 293.312C244.008 292.8 243.226 292.073 242.295 291.893C241.862 291.813 241.899 292.127 241.826 292.45C241.724 292.872 241.116 294.497 240.978 294.919C240.536 296.247 239.845 297.684 238.823 298.743C238.713 298.905 238.611 299.057 238.501 299.21C238.565 299.291 238.63 299.372 238.685 299.452C239.394 300.179 240.168 300.835 240.776 301.652C240.987 301.93 241.347 302.837 241.715 302.756C241.761 302.765 241.826 302.756 241.862 302.72C242.691 302.074 243.097 301.032 243.493 300.117C244.018 298.923 244.497 297.693 244.874 296.445C245.068 295.763 245.639 294.066 244.893 293.456Z" fill="white" stroke="#B8C0CC" stroke-linecap="round" stroke-linejoin="round"/>
<path d="M120.5 297.793H155.569C158.607 297.793 161.069 300.255 161.069 303.293V320.097V342.901V365.705V375.379H120.5V365.705V342.901V320.097V297.793Z" stroke="#B8C0CC" stroke-linecap="round" stroke-linejoin="round"/>
<path d="M140.145 334.258C140.617 332.217 142.434 330.771 144.529 330.771H150.587C152.682 330.771 154.5 332.217 154.972 334.258L155.58 336.888C156.231 339.708 154.09 342.401 151.195 342.401H143.921C141.027 342.401 138.885 339.708 139.537 336.888L140.145 334.258Z" fill="white" stroke="#B8C0CC" stroke-linecap="round" stroke-linejoin="round"/>
<path d="M150.477 333.779V328.98C150.477 327.368 149.17 326.061 147.558 326.061V326.061C145.946 326.061 144.639 327.368 144.639 328.98V333.779" stroke="#B8C0CC" stroke-linecap="round" stroke-linejoin="round"/>
<path d="M204.752 316.238C204.752 323.517 202.802 330.084 199.675 334.816C196.547 339.552 192.28 342.401 187.638 342.401C182.995 342.401 178.729 339.552 175.6 334.816C172.474 330.084 170.524 323.517 170.524 316.238C170.524 308.959 172.474 302.392 175.6 297.66C178.729 292.923 182.995 290.075 187.638 290.075C192.28 290.075 196.547 292.923 199.675 297.66C202.802 302.392 204.752 308.959 204.752 316.238Z" fill="white" stroke="#B8C0CC" stroke-linecap="round" stroke-linejoin="round"/>
<path d="M201.933 316.238C201.933 322.747 200.296 328.617 197.675 332.843C195.049 337.077 191.487 339.594 187.638 339.594C183.788 339.594 180.226 337.077 177.6 332.843C174.979 328.617 173.342 322.747 173.342 316.238C173.342 309.728 174.979 303.858 177.6 299.632C180.226 295.398 183.788 292.881 187.638 292.881C191.487 292.881 195.049 295.398 197.675 299.632C200.296 303.858 201.933 309.728 201.933 316.238Z" fill="white" stroke="#B8C0CC" stroke-linecap="round" stroke-linejoin="round"/>
<mask id="mask0" mask-type="alpha" maskUnits="userSpaceOnUse" x="172" y="292" width="31" height="49">
<path d="M201.933 316.238C201.933 322.747 200.296 328.617 197.675 332.843C195.049 337.077 191.487 339.594 187.638 339.594C183.788 339.594 180.226 337.077 177.6 332.843C174.979 328.617 173.342 322.747 173.342 316.238C173.342 309.728 174.979 303.858 177.6 299.632C180.226 295.398 183.788 292.881 187.638 292.881C191.487 292.881 195.049 295.398 197.675 299.632C200.296 303.858 201.933 309.728 201.933 316.238Z" fill="white" stroke="#B8C0CC" stroke-linecap="round" stroke-linejoin="round"/>
</mask>
<g mask="url(#mask0)">
<rect width="2.81534" height="38.8268" transform="matrix(0.866915 0.498456 -0.501546 0.865131 190.906 292.381)" fill="#B8C0CC" fill-opacity="0.24"/>
<rect width="6.68163" height="45.3549" transform="matrix(0.866915 0.498456 -0.501546 0.865131 195.662 295.188)" fill="#B8C0CC" fill-opacity="0.24"/>
</g>
<rect x="170.524" y="346.909" width="34.2279" height="7.41994" rx="1.5" fill="white" stroke="#B8C0CC" stroke-linecap="round" stroke-linejoin="round"/>
<rect x="173.342" y="353.926" width="28.5914" height="21.4532" rx="1.5" fill="white" stroke="#B8C0CC" stroke-linecap="round" stroke-linejoin="round"/>
<path d="M186.933 354.478V374.826" stroke="#B8C0CC" stroke-linecap="round" stroke-linejoin="round"/>
<rect x="175.66" y="349.917" width="9.15926" height="1.40332" rx="0.701662" fill="#B8C0CC"/>
<rect x="184.115" y="361.846" width="5.61329" height="1.40912" rx="0.704558" transform="rotate(90 184.115 361.846)" fill="#B8C0CC"/>
<rect x="192.569" y="361.846" width="5.61329" height="1.40912" rx="0.704558" transform="rotate(90 192.569 361.846)" fill="#B8C0CC"/>
<rect x="190.456" y="349.917" width="9.15926" height="1.40332" rx="0.701662" fill="#B8C0CC"/>
<path d="M125.175 351.926C125.2 351.147 125.6 350.429 126.249 349.998C127.055 349.463 128.103 349.463 128.909 349.998C129.558 350.429 129.958 351.147 129.982 351.926L130.125 356.468C130.159 357.542 130.357 358.605 130.714 359.62L131.576 362.074C131.736 362.529 131.767 363.02 131.666 363.491C131.406 364.696 130.341 365.556 129.109 365.556H127.579H126.048C124.816 365.556 123.751 364.696 123.492 363.491C123.39 363.02 123.421 362.529 123.581 362.074L124.444 359.62C124.8 358.605 124.999 357.542 125.033 356.468L125.175 351.926Z" fill="white" stroke="#B8C0CC" stroke-linecap="round" stroke-linejoin="round"/>
<path d="M127.579 361.314C127.226 361.829 126.151 363.3 123.77 362.506" stroke="#B8C0CC" stroke-linecap="round" stroke-linejoin="round"/>
<path d="M127.579 361.314C127.931 361.829 129.007 363.3 131.387 362.506" stroke="#B8C0CC" stroke-linecap="round" stroke-linejoin="round"/>
<path d="M134.944 351.926C134.968 351.147 135.368 350.429 136.017 349.998C136.823 349.463 137.872 349.463 138.678 349.998C139.327 350.429 139.727 351.147 139.751 351.926L139.894 356.468C139.927 357.542 140.126 358.605 140.482 359.62L141.345 362.074C141.505 362.529 141.536 363.02 141.434 363.491C141.175 364.696 140.11 365.556 138.878 365.556H137.347H135.817C134.585 365.556 133.52 364.696 133.261 363.491C133.159 363.02 133.19 362.529 133.35 362.074L134.212 359.62C134.569 358.605 134.768 357.542 134.801 356.468L134.944 351.926Z" fill="white" stroke="#B8C0CC" stroke-linecap="round" stroke-linejoin="round"/>
<path d="M137.347 361.314C136.995 361.829 135.919 363.3 133.539 362.506" stroke="#B8C0CC" stroke-linecap="round" stroke-linejoin="round"/>
<path d="M137.347 361.314C137.7 361.829 138.776 363.3 141.156 362.506" stroke="#B8C0CC" stroke-linecap="round" stroke-linejoin="round"/>
<rect x="120" y="423" width="175" height="11" rx="5.5" fill="#F2F4F5"/>
<rect x="120" y="456" width="175" height="24" rx="12" fill="#8836DA"/>
<path d="M185.052 467.644C185.54 467.78 185.916 468.024 186.18 468.376C186.452 468.728 186.588 469.168 186.588 469.696C186.588 470.424 186.336 470.992 185.832 471.4C185.336 471.8 184.64 472 183.744 472H180.684C180.492 472 180.34 471.948 180.228 471.844C180.124 471.732 180.072 471.584 180.072 471.4V464.14C180.072 463.956 180.124 463.812 180.228 463.708C180.34 463.596 180.492 463.54 180.684 463.54H183.612C184.484 463.54 185.164 463.736 185.652 464.128C186.148 464.512 186.396 465.052 186.396 465.748C186.396 466.196 186.276 466.584 186.036 466.912C185.804 467.24 185.476 467.484 185.052 467.644ZM181.284 467.2H183.42C184.604 467.2 185.196 466.752 185.196 465.856C185.196 465.408 185.048 465.076 184.752 464.86C184.464 464.644 184.02 464.536 183.42 464.536H181.284V467.2ZM183.612 471.004C184.228 471.004 184.68 470.892 184.968 470.668C185.256 470.444 185.4 470.096 185.4 469.624C185.4 469.144 185.252 468.788 184.956 468.556C184.668 468.316 184.22 468.196 183.612 468.196H181.284V471.004H183.612ZM190.605 472.084C190.029 472.084 189.521 471.96 189.081 471.712C188.649 471.464 188.313 471.112 188.073 470.656C187.841 470.192 187.725 469.656 187.725 469.048C187.725 468.432 187.841 467.896 188.073 467.44C188.313 466.976 188.649 466.62 189.081 466.372C189.521 466.124 190.029 466 190.605 466C191.181 466 191.685 466.124 192.117 466.372C192.557 466.62 192.893 466.976 193.125 467.44C193.365 467.896 193.485 468.432 193.485 469.048C193.485 469.656 193.365 470.192 193.125 470.656C192.893 471.112 192.557 471.464 192.117 471.712C191.685 471.96 191.181 472.084 190.605 472.084ZM190.605 471.124C191.141 471.124 191.549 470.948 191.829 470.596C192.117 470.244 192.261 469.728 192.261 469.048C192.261 468.376 192.117 467.864 191.829 467.512C191.541 467.152 191.133 466.972 190.605 466.972C190.077 466.972 189.669 467.152 189.381 467.512C189.093 467.864 188.949 468.376 188.949 469.048C188.949 469.728 189.089 470.244 189.369 470.596C189.657 470.948 190.069 471.124 190.605 471.124ZM197.378 472.084C196.802 472.084 196.294 471.96 195.854 471.712C195.422 471.464 195.086 471.112 194.846 470.656C194.614 470.192 194.498 469.656 194.498 469.048C194.498 468.432 194.614 467.896 194.846 467.44C195.086 466.976 195.422 466.62 195.854 466.372C196.294 466.124 196.802 466 197.378 466C197.954 466 198.458 466.124 198.89 466.372C199.33 466.62 199.666 466.976 199.898 467.44C200.138 467.896 200.258 468.432 200.258 469.048C200.258 469.656 200.138 470.192 199.898 470.656C199.666 471.112 199.33 471.464 198.89 471.712C198.458 471.96 197.954 472.084 197.378 472.084ZM197.378 471.124C197.914 471.124 198.322 470.948 198.602 470.596C198.89 470.244 199.034 469.728 199.034 469.048C199.034 468.376 198.89 467.864 198.602 467.512C198.314 467.152 197.906 466.972 197.378 466.972C196.85 466.972 196.442 467.152 196.154 467.512C195.866 467.864 195.722 468.376 195.722 469.048C195.722 469.728 195.862 470.244 196.142 470.596C196.43 470.948 196.842 471.124 197.378 471.124ZM206.528 471.052C206.672 471.172 206.744 471.32 206.744 471.496C206.744 471.648 206.692 471.78 206.588 471.892C206.484 472.004 206.36 472.06 206.216 472.06C206.064 472.06 205.928 472.004 205.808 471.892L202.82 469.252V471.472C202.82 471.664 202.764 471.812 202.652 471.916C202.54 472.012 202.396 472.06 202.22 472.06C202.044 472.06 201.896 472.012 201.776 471.916C201.664 471.812 201.608 471.664 201.608 471.472V464.068C201.608 463.876 201.664 463.732 201.776 463.636C201.896 463.532 202.044 463.48 202.22 463.48C202.396 463.48 202.54 463.532 202.652 463.636C202.764 463.732 202.82 463.876 202.82 464.068V468.772L205.556 466.216C205.692 466.096 205.824 466.036 205.952 466.036C206.104 466.036 206.236 466.092 206.348 466.204C206.46 466.316 206.516 466.448 206.516 466.6C206.516 466.752 206.448 466.892 206.312 467.02L204.176 468.976L206.528 471.052ZM217.475 463.48C217.651 463.48 217.791 463.54 217.895 463.66C218.007 463.772 218.063 463.92 218.063 464.104V471.436C218.063 471.62 218.007 471.772 217.895 471.892C217.783 472.004 217.639 472.06 217.463 472.06C217.255 472.06 217.095 471.98 216.983 471.82L212.279 465.616V471.436C212.279 471.62 212.223 471.772 212.111 471.892C212.007 472.004 211.867 472.06 211.691 472.06C211.515 472.06 211.375 472.004 211.271 471.892C211.167 471.78 211.115 471.628 211.115 471.436V464.104C211.115 463.92 211.171 463.772 211.283 463.66C211.395 463.54 211.539 463.48 211.715 463.48C211.923 463.48 212.083 463.56 212.195 463.72L216.899 469.936V464.104C216.899 463.92 216.951 463.772 217.055 463.66C217.159 463.54 217.299 463.48 217.475 463.48ZM222.433 472.084C221.857 472.084 221.349 471.96 220.909 471.712C220.477 471.464 220.141 471.112 219.901 470.656C219.669 470.192 219.553 469.656 219.553 469.048C219.553 468.432 219.669 467.896 219.901 467.44C220.141 466.976 220.477 466.62 220.909 466.372C221.349 466.124 221.857 466 222.433 466C223.009 466 223.513 466.124 223.945 466.372C224.385 466.62 224.721 466.976 224.953 467.44C225.193 467.896 225.313 468.432 225.313 469.048C225.313 469.656 225.193 470.192 224.953 470.656C224.721 471.112 224.385 471.464 223.945 471.712C223.513 471.96 223.009 472.084 222.433 472.084ZM222.433 471.124C222.969 471.124 223.377 470.948 223.657 470.596C223.945 470.244 224.089 469.728 224.089 469.048C224.089 468.376 223.945 467.864 223.657 467.512C223.369 467.152 222.961 466.972 222.433 466.972C221.905 466.972 221.497 467.152 221.209 467.512C220.921 467.864 220.777 468.376 220.777 469.048C220.777 469.728 220.917 470.244 221.197 470.596C221.485 470.948 221.897 471.124 222.433 471.124ZM234.548 466.396C234.636 466.156 234.8 466.036 235.04 466.036C235.192 466.036 235.328 466.088 235.448 466.192C235.568 466.296 235.628 466.424 235.628 466.576C235.628 466.656 235.612 466.728 235.58 466.792L233.588 471.652C233.54 471.78 233.46 471.88 233.348 471.952C233.236 472.016 233.112 472.048 232.976 472.048C232.848 472.048 232.728 472.016 232.616 471.952C232.504 471.88 232.424 471.78 232.376 471.652L230.816 467.8L229.292 471.652C229.244 471.78 229.164 471.88 229.052 471.952C228.948 472.016 228.828 472.048 228.692 472.048C228.564 472.048 228.44 472.016 228.32 471.952C228.208 471.88 228.124 471.78 228.068 471.652L226.088 466.792C226.056 466.728 226.04 466.66 226.04 466.588C226.04 466.428 226.104 466.296 226.232 466.192C226.368 466.088 226.516 466.036 226.676 466.036C226.916 466.036 227.08 466.152 227.168 466.384L228.716 470.476L230.3 466.42C230.348 466.292 230.424 466.196 230.528 466.132C230.632 466.068 230.744 466.036 230.864 466.036C230.976 466.036 231.084 466.068 231.188 466.132C231.292 466.196 231.368 466.292 231.416 466.42L233 470.452L234.548 466.396Z" fill="white"/>
<path d="M120 231C120 228.238 122.239 226 125 226L213 226C215.761 226 218 228.238 218 231C218 233.761 215.761 236 213 236L125 236C122.239 236 120 233.761 120 231Z" fill="#8836DA" fill-opacity="0.4"/>
<rect x="120" y="117" width="175" height="75" rx="6" fill="#8836DA"/>
<path d="M189 187C189 201.359 177.359 213 163 213C148.641 213 137 201.359 137 187C137 172.64 148.641 161 163 161C177.359 161 189 172.64 189 187Z" fill="white" stroke="#8836DA" stroke-width="2"/>
<path d="M121 410H294" stroke="#B8C0CC" stroke-width="2" stroke-linecap="round"/>
<path d="M49.0769 116.154C65.1357 116.154 78.1538 103.136 78.1538 87.0769C78.1538 71.0182 65.1357 58 49.0769 58C33.0182 58 20 71.0182 20 87.0769C20 103.136 33.0182 116.154 49.0769 116.154Z" fill="white" stroke="#B8C0CC" stroke-width="2" stroke-miterlimit="10" stroke-linecap="round" stroke-linejoin="round"/>
<path d="M59.7079 87.3578C59.7079 86.5834 59.6375 85.8793 59.4967 85.1753H49.2881V89.3995H55.1316C54.85 90.7372 54.0756 91.9341 52.9491 92.7085V95.3839H56.4693C58.511 93.4126 59.7079 90.6668 59.7079 87.3578Z" fill="#4285F4"/>
<path d="M49.2881 97.9896C52.2451 97.9896 54.7092 97.004 56.4693 95.3847L52.9491 92.7093C51.8226 93.4134 50.5554 93.7654 49.2177 93.7654C47.88 93.7654 46.5423 93.343 45.4159 92.4981C44.2894 91.6533 43.5149 90.5268 43.0925 89.2595H39.5019V92.0757C40.4172 93.9062 41.8252 95.3847 43.5149 96.4407C45.275 97.4264 47.2464 97.9896 49.2881 97.9896Z" fill="#34A853"/>
<path d="M43.1629 89.1885C42.7405 87.8508 42.7405 86.3724 43.1629 85.0347V82.2185H39.5723C38.7978 83.7674 38.3754 85.3867 38.3754 87.0764C38.3754 88.7661 38.7978 90.4558 39.5723 91.9343L43.1629 89.1885Z" fill="#FBBC04"/>
<path d="M49.2883 80.5293C50.0628 80.5293 50.8372 80.6701 51.5412 80.9517C52.2453 81.2334 52.8789 81.6558 53.4422 82.219L56.5399 79.1212C54.5686 77.2907 51.9637 76.2347 49.2883 76.3051C47.2466 76.3051 45.2753 76.8683 43.5856 77.9244C41.8959 78.9804 40.4878 80.5293 39.5725 82.2894L43.1632 85.1056C43.5856 83.7679 44.36 82.6414 45.4865 81.7966C46.5426 80.9517 47.8802 80.5293 49.2883 80.5293Z" fill="#EA4335"/>
<path d="M118.077 73.1538C134.136 73.1538 147.154 60.1357 147.154 44.0769C147.154 28.0182 134.136 15 118.077 15C102.018 15 89 28.0182 89 44.0769C89 60.1357 102.018 73.1538 118.077 73.1538Z" fill="white" stroke="#B8C0CC" stroke-width="2" stroke-miterlimit="10" stroke-linecap="round" stroke-linejoin="round"/>
<path d="M116.159 50.404L113.342 53.2249C112.779 53.7891 112.004 54.0712 111.23 54.0712C110.455 54.0712 109.68 53.7186 109.117 53.2249C108.554 52.6607 108.272 51.885 108.272 51.1092C108.272 50.3334 108.554 49.5577 109.117 48.9935L114.68 43.4221C115.244 42.8579 116.018 42.5758 116.793 42.5758C117.567 42.5758 118.342 42.8579 118.905 43.4221C119.117 43.6336 119.328 43.7041 119.61 43.7041C119.891 43.7041 120.103 43.6336 120.314 43.4221C120.525 43.2105 120.595 42.9989 120.595 42.7168C120.595 42.4347 120.525 42.2231 120.314 42.0116C119.891 41.5179 119.328 41.1653 118.694 40.9537C118.06 40.6716 117.427 40.6011 116.793 40.6011C116.159 40.6011 115.525 40.7421 114.891 40.9537C114.258 41.2358 113.765 41.5884 113.272 42.0116L107.709 47.583C106.793 48.4998 106.23 49.7692 106.23 51.1092C106.23 52.4492 106.723 53.6481 107.709 54.6354C108.624 55.5523 109.892 56.1164 111.23 56.1164C112.568 56.1164 113.765 55.6228 114.751 54.6354L117.567 51.8145C117.779 51.6029 117.849 51.3913 117.849 51.1092C117.849 50.8271 117.779 50.6155 117.567 50.404C117.497 50.3334 117.356 50.2629 117.215 50.1924C117.074 50.1219 116.934 50.1219 116.863 50.1219C116.722 50.1219 116.582 50.1924 116.511 50.1924C116.37 50.1924 116.3 50.2629 116.159 50.404Z" fill="#8836DA"/>
<path d="M128.694 33.6898C128.271 33.1961 127.708 32.8435 127.074 32.6319C126.44 32.3498 125.807 32.2793 125.173 32.2793C124.539 32.2793 123.905 32.4203 123.271 32.6319C122.638 32.914 122.145 33.2666 121.652 33.6898L118.272 37.075C118.201 37.1455 118.131 37.2865 118.06 37.4276C117.99 37.5686 117.99 37.7097 117.99 37.7802C117.99 37.9212 117.99 38.0623 118.06 38.1328C118.131 38.2739 118.201 38.3444 118.272 38.4854C118.342 38.556 118.483 38.6265 118.624 38.697C118.765 38.7675 118.905 38.7675 118.976 38.7675C119.046 38.7675 119.257 38.7675 119.328 38.697C119.469 38.6265 119.539 38.556 119.68 38.4854L123.06 35.1003C123.624 34.5361 124.398 34.254 125.173 34.254C125.947 34.254 126.722 34.6066 127.285 35.1003C127.849 35.6645 128.13 36.4402 128.13 37.216C128.13 37.9918 127.849 38.7675 127.285 39.3317L121.018 45.4674C120.455 46.0315 119.68 46.3136 118.905 46.3136C118.131 46.3136 117.356 46.0315 116.793 45.4674C116.582 45.2558 116.37 45.1853 116.089 45.1853C115.807 45.1853 115.596 45.2558 115.384 45.4674C115.173 45.6789 115.103 45.8905 115.103 46.1726C115.103 46.4547 115.173 46.6663 115.384 46.8778C115.807 47.3715 116.37 47.7241 117.004 47.9357C117.638 48.2178 118.272 48.2883 118.905 48.2883C119.539 48.2883 120.173 48.1473 120.807 47.9357C121.441 47.6536 121.933 47.301 122.426 46.8778L128.623 40.6717C129.116 40.2486 129.468 39.6844 129.68 39.0496C129.961 38.4854 130.032 37.7802 130.102 37.1455C130.102 36.5108 129.961 35.876 129.75 35.2413C129.468 34.6771 129.116 34.1835 128.694 33.6898Z" fill="#8836DA"/>
<path d="M30.077 195.154C46.1357 195.154 59.1539 182.136 59.1539 166.077C59.1539 150.018 46.1357 137 30.077 137C14.0182 137 1 150.018 1 166.077C1 182.136 14.0182 195.154 30.077 195.154Z" fill="white" stroke="#B8C0CC" stroke-width="2" stroke-miterlimit="10" stroke-linecap="round" stroke-linejoin="round"/>
<path d="M33.3859 157.206H36.6949C36.7653 157.206 36.8357 157.206 36.9061 157.136C36.9765 157.136 37.0469 157.065 37.1173 156.995C37.1878 156.924 37.1877 156.854 37.2581 156.783C37.2581 156.713 37.3286 156.643 37.3286 156.572V153.263C37.3286 153.193 37.3285 153.122 37.2581 153.052C37.2581 152.982 37.1878 152.911 37.1173 152.841C37.0469 152.77 36.9765 152.77 36.9061 152.7C36.8357 152.7 36.7653 152.63 36.6949 152.63H33.3859C31.7666 152.63 30.2177 153.263 29.0913 154.39C27.9648 155.516 27.3312 157.065 27.3312 158.684V162.557H23.4589C23.3885 162.557 23.3181 162.557 23.2477 162.627C23.1773 162.627 23.1069 162.697 23.0365 162.768C22.9661 162.838 22.9661 162.909 22.8957 162.979C22.8957 163.049 22.8253 163.12 22.8253 163.19V166.499C22.8253 166.57 22.8253 166.64 22.8957 166.71C22.8957 166.781 22.9661 166.851 23.0365 166.922C23.1069 166.992 23.1773 166.992 23.2477 167.062C23.3181 167.062 23.3885 167.133 23.4589 167.133H27.3312V178.82C27.3312 178.89 27.3311 178.961 27.4015 179.031C27.472 179.102 27.472 179.172 27.5424 179.242C27.6128 179.313 27.6832 179.313 27.7536 179.383C27.824 179.383 27.8944 179.454 27.9648 179.454H31.2738C31.3442 179.454 31.4146 179.454 31.485 179.383C31.5554 179.383 31.6258 179.313 31.6962 179.242C31.7666 179.172 31.7666 179.102 31.837 179.031C31.837 178.961 31.9074 178.89 31.9074 178.82V167.133H35.7797C35.9205 167.133 35.9909 167.133 36.1317 167.062C36.2021 166.992 36.2725 166.922 36.3429 166.781L37.4694 163.472C37.4694 163.401 37.5398 163.331 37.5398 163.261C37.5398 163.19 37.5398 163.12 37.4694 163.049C37.399 162.979 37.399 162.909 37.3286 162.909C37.2581 162.838 37.1878 162.838 37.1173 162.838H31.9074V158.966C31.9074 158.544 32.1186 158.121 32.4003 157.769C32.4707 157.347 32.8931 157.206 33.3859 157.206Z" fill="#2196F3"/>
<path d="M195.077 59.1538C211.136 59.1538 224.154 46.1357 224.154 30.0769C224.154 14.0182 211.136 1 195.077 1C179.018 1 166 14.0182 166 30.0769C166 46.1357 179.018 59.1538 195.077 59.1538Z" fill="white" stroke="#B8C0CC" stroke-width="2" stroke-miterlimit="10" stroke-linecap="round" stroke-linejoin="round"/>
<path d="M206.342 25.3598C206.342 24.4445 206.13 23.4589 205.778 22.614C205.497 21.8396 205.074 21.1355 204.441 20.5723C203.877 20.0091 203.173 19.5162 202.399 19.2346C201.484 18.8826 200.568 18.7418 199.653 18.7418C198.456 18.6714 198.034 18.6714 194.936 18.6714C191.838 18.6714 191.486 18.6714 190.219 18.7418C189.304 18.7418 188.318 18.953 187.473 19.305C186.699 19.5866 185.995 20.0091 185.432 20.6427C184.868 21.2059 184.375 21.91 184.094 22.6844C183.742 23.5997 183.601 24.5149 183.601 25.4302C183.531 26.6271 183.531 27.0495 183.531 30.1473C183.531 33.2451 183.531 33.5971 183.601 34.8644C183.601 35.7796 183.812 36.7653 184.164 37.6101C184.446 38.3846 184.868 39.0886 185.502 39.6518C186.065 40.2151 186.769 40.7079 187.544 40.9895C188.459 41.3415 189.374 41.4823 190.289 41.5528C191.486 41.6232 191.909 41.6232 195.007 41.6232C198.104 41.6232 198.456 41.6232 199.724 41.5528C200.639 41.5528 201.625 41.3415 202.469 40.9895C203.244 40.7079 203.877 40.2855 204.511 39.6518C205.145 39.0182 205.497 38.3846 205.849 37.6101C206.201 36.6949 206.342 35.7796 206.412 34.8644C206.482 33.6675 206.482 33.2451 206.482 30.1473C206.482 27.0495 206.412 26.6271 206.342 25.3598ZM204.3 34.6531C204.3 35.3572 204.159 36.0612 203.877 36.7653C203.666 37.2581 203.385 37.6805 203.033 38.103C202.681 38.455 202.188 38.7366 201.695 38.9478C200.991 39.2294 200.287 39.2998 199.583 39.3702C198.386 39.4406 198.034 39.4406 195.007 39.4406C191.979 39.4406 191.627 39.4406 190.43 39.3702C189.726 39.3702 189.022 39.2294 188.318 38.9478C187.825 38.7366 187.403 38.455 186.98 38.103C186.628 37.7509 186.347 37.2581 186.136 36.7653C185.854 36.0612 185.784 35.3572 185.713 34.6531C185.643 33.4563 185.643 33.1043 185.643 30.0769C185.643 27.0495 185.643 26.6975 185.713 25.5006C185.713 24.7966 185.854 24.0925 186.136 23.3885C186.347 22.8956 186.628 22.4732 186.98 22.0508C187.332 21.6988 187.825 21.4172 188.318 21.2059C189.022 20.9243 189.726 20.8539 190.43 20.7835C191.627 20.7131 191.979 20.7131 195.007 20.7131C198.034 20.7131 198.386 20.7131 199.583 20.7835C200.287 20.7835 200.991 20.9243 201.695 21.2059C202.188 21.4172 202.61 21.6988 203.033 22.0508C203.385 22.4028 203.666 22.8956 203.877 23.3885C204.159 24.0925 204.229 24.7966 204.3 25.5006C204.37 26.6975 204.37 27.0495 204.37 30.0769C204.37 33.1043 204.37 33.4563 204.3 34.6531Z" fill="url(#paint0_linear)"/>
<path d="M195.077 24.2334C193.95 24.2334 192.824 24.5854 191.838 25.2191C190.853 25.8527 190.149 26.768 189.656 27.824C189.233 28.8801 189.093 30.077 189.304 31.2034C189.515 32.3299 190.078 33.386 190.923 34.1604C191.768 35.0052 192.754 35.5685 193.88 35.7797C195.007 35.9909 196.203 35.9205 197.259 35.4277C198.316 35.0052 199.231 34.2308 199.864 33.2451C200.498 32.2595 200.85 31.133 200.85 30.0066C200.85 28.4577 200.216 26.9792 199.16 25.8527C198.104 24.867 196.626 24.2334 195.077 24.2334ZM195.077 33.8788C194.302 33.8788 193.598 33.6676 192.965 33.2451C192.331 32.8227 191.838 32.2595 191.557 31.5554C191.275 30.8514 191.205 30.077 191.346 29.3729C191.486 28.6689 191.838 27.9648 192.402 27.4016C192.965 26.8384 193.598 26.4863 194.373 26.3455C195.077 26.2047 195.851 26.2751 196.555 26.5567C197.259 26.8384 197.823 27.3312 198.245 27.9648C198.668 28.5985 198.879 29.3025 198.879 30.077C198.879 30.5698 198.808 31.0626 198.597 31.5554C198.386 32.0483 198.104 32.4003 197.752 32.7523C197.4 33.1043 196.978 33.386 196.555 33.5972C196.063 33.738 195.57 33.8788 195.077 33.8788Z" fill="url(#paint1_linear)"/>
<path d="M202.47 24.022C202.47 24.3036 202.399 24.5852 202.259 24.7964C202.118 25.0075 201.906 25.2187 201.625 25.2891C201.343 25.3595 201.132 25.4299 200.85 25.3595C200.569 25.2891 200.357 25.1483 200.146 25.0075C199.935 24.7964 199.794 24.5852 199.794 24.3036C199.794 24.022 199.794 23.7405 199.864 23.5293C199.935 23.2477 200.146 23.0365 200.357 22.8957C200.569 22.755 200.85 22.6846 201.132 22.6846C201.484 22.6846 201.836 22.8254 202.118 23.1069C202.329 23.3181 202.47 23.6701 202.47 24.022Z" fill="url(#paint2_linear)"/>
<defs>
<filter id="filter0_d" x="81" y="83.9998" width="253" height="441" filterUnits="userSpaceOnUse" color-interpolation-filters="sRGB">
<feFlood flood-opacity="0" result="BackgroundImageFix"/>
<feColorMatrix in="SourceAlpha" type="matrix" values="0 0 0 0 0 0 0 0 0 0 0 0 0 0 0 0 0 0 127 0"/>
<feOffset dy="6"/>
<feGaussianBlur stdDeviation="7"/>
<feColorMatrix type="matrix" values="0 0 0 0 0.533333 0 0 0 0 0.211765 0 0 0 0 0.854902 0 0 0 0.16 0"/>
<feBlend mode="normal" in2="BackgroundImageFix" result="effect1_dropShadow"/>
<feBlend mode="normal" in="SourceGraphic" in2="effect1_dropShadow" result="shape"/>
</filter>
<linearGradient id="paint0_linear" x1="185.578" y1="39.5319" x2="204.507" y2="20.6039" gradientUnits="userSpaceOnUse">
<stop stop-color="#FFD600"/>
<stop offset="0.5" stop-color="#FF0100"/>
<stop offset="1" stop-color="#D800B9"/>
</linearGradient>
<linearGradient id="paint1_linear" x1="190.912" y1="34.198" x2="199.181" y2="25.9286" gradientUnits="userSpaceOnUse">
<stop stop-color="#FF6400"/>
<stop offset="0.5" stop-color="#FF0100"/>
<stop offset="1" stop-color="#FD0056"/>
</linearGradient>
<linearGradient id="paint2_linear" x1="200.149" y1="24.9626" x2="202.082" y2="23.0296" gradientUnits="userSpaceOnUse">
<stop stop-color="#F30072"/>
<stop offset="1" stop-color="#E50097"/>
</linearGradient>
</defs>
</svg>
