<svg width="268" height="446" viewBox="0 0 268 446" fill="none" xmlns="http://www.w3.org/2000/svg">
<g filter="url(#filter0_d)">
<rect x="50" y="49.9998" width="204" height="376" rx="14" fill="white"/>
<rect x="50.5" y="50.4998" width="203" height="375" rx="13.5" stroke="#8836DA" stroke-opacity="0.2"/>
</g>
<rect x="69.4767" y="198.621" width="165.047" height="137.626" rx="5.5" fill="white" stroke="#B8C0CC"/>
<path d="M169.105 217.616C169.105 212.369 173.358 208.116 178.605 208.116H234.523V319.156H169.105V217.616Z" stroke="#B8C0CC" stroke-linecap="round" stroke-linejoin="round"/>
<path d="M234.549 234.931H169.253" stroke="#B8C0CC" stroke-linecap="round" stroke-linejoin="round"/>
<path d="M191.168 263.265C191.405 259.711 191.943 252.619 191.943 252.619L193.086 252.193C199.921 254.758 215.885 252.193 215.885 252.193L217.028 252.619C217.028 252.619 218.084 259.711 218.321 263.265C218.558 266.82 218.639 324.774 218.639 324.774C218.639 324.774 209.517 327.007 205.43 325.532L204.903 265.91L203.887 325.532C199.793 327.015 190.843 324.774 190.843 324.774C190.843 324.774 190.931 266.82 191.168 263.265Z" fill="white" stroke="#B8C0CC" stroke-linecap="round" stroke-linejoin="round"/>
<path d="M217.028 250.24V252.619C217.028 253.463 211.398 254.144 204.462 254.144C197.519 254.144 191.895 253.463 191.895 252.619V250.24H217.028Z" fill="white" stroke="#B8C0CC" stroke-linecap="round" stroke-linejoin="round"/>
<path d="M204.462 254.297C207.825 254.297 210.985 254.135 213.361 253.845C217.137 253.385 217.137 252.831 217.137 252.618V250.24C217.137 250.154 217.089 250.095 217.035 250.095H191.895C191.834 250.095 191.794 250.163 191.794 250.24V252.618C191.794 252.831 191.794 253.385 195.57 253.845C197.938 254.135 201.099 254.297 204.462 254.297ZM216.927 250.393V252.618C216.825 253.18 212.325 253.999 204.462 253.999C196.598 253.999 192.105 253.18 191.997 252.618V250.393H216.927Z" fill="white" stroke="#B8C0CC" stroke-linecap="round" stroke-linejoin="round"/>
<path d="M196.571 251.433C193.722 251.152 191.895 250.726 191.895 250.249C191.895 249.405 197.525 248.723 204.462 248.723C211.405 248.723 217.028 249.405 217.028 250.249C217.028 250.726 215.201 251.161 212.352 251.433C210.194 251.22 207.453 251.093 204.462 251.093C201.471 251.093 198.723 251.22 196.571 251.433Z" fill="white" stroke="#B8C0CC" stroke-linecap="round" stroke-linejoin="round"/>
<path d="M211.471 254.495L212.202 254.444L212.087 251.384L211.356 251.435L211.471 254.495Z" fill="white" stroke="#B8C0CC" stroke-linecap="round" stroke-linejoin="round"/>
<path d="M211.472 254.646L212.21 254.595C212.271 254.587 212.312 254.518 212.312 254.442L212.196 251.382C212.196 251.339 212.183 251.305 212.163 251.279C212.142 251.254 212.115 251.237 212.088 251.245L211.357 251.296C211.296 251.305 211.255 251.373 211.255 251.45L211.37 254.51C211.37 254.552 211.384 254.587 211.404 254.612C211.418 254.629 211.445 254.646 211.472 254.646ZM212.095 254.305L211.573 254.348L211.472 251.578L211.993 251.535L212.095 254.305Z" fill="white" stroke="#B8C0CC" stroke-linecap="round" stroke-linejoin="round"/>
<path d="M197.443 254.495L196.712 254.444L196.827 251.384L197.559 251.435L197.443 254.495Z" fill="white" stroke="#B8C0CC" stroke-linecap="round" stroke-linejoin="round"/>
<path d="M197.444 254.646C197.498 254.646 197.546 254.587 197.546 254.51L197.661 251.45C197.661 251.407 197.654 251.373 197.634 251.347C197.613 251.322 197.586 251.305 197.559 251.296L196.828 251.245C196.801 251.237 196.774 251.254 196.753 251.279C196.733 251.305 196.72 251.339 196.72 251.382L196.604 254.442C196.604 254.527 196.645 254.595 196.706 254.595L197.444 254.646C197.437 254.646 197.444 254.646 197.444 254.646ZM197.451 251.578L197.349 254.348L196.828 254.305L196.93 251.535L197.451 251.578Z" fill="white"/>
<path d="M197.444 254.646C197.498 254.646 197.546 254.587 197.546 254.51L197.661 251.45C197.661 251.407 197.654 251.373 197.634 251.347C197.613 251.322 197.586 251.305 197.559 251.296L196.828 251.245C196.801 251.237 196.774 251.254 196.753 251.279C196.733 251.305 196.72 251.339 196.72 251.382L196.604 254.442C196.604 254.527 196.645 254.595 196.706 254.595L197.444 254.646ZM197.444 254.646C197.437 254.646 197.444 254.646 197.444 254.646ZM197.451 251.578L197.349 254.348L196.828 254.305L196.93 251.535L197.451 251.578Z" stroke="#B8C0CC" stroke-linecap="round" stroke-linejoin="round"/>
<path d="M218.861 325.301C218.902 325.437 210.91 328.489 205.32 326.409L205.178 323.485C205.178 323.485 213.685 325.105 218.807 321.908C218.807 321.9 218.821 325.164 218.861 325.301Z" fill="white" stroke="#B8C0CC" stroke-linecap="round" stroke-linejoin="round"/>
<path d="M190.168 325.378C190.125 325.514 198.26 328.617 204.098 326.537L204.246 323.613C204.246 323.613 195.575 325.182 190.224 321.985C190.217 321.985 190.21 325.25 190.168 325.378Z" fill="white" stroke="#B8C0CC" stroke-linecap="round" stroke-linejoin="round"/>
<path d="M208.456 235.117C208.167 234.304 207.462 233.727 206.64 233.727C205.555 233.727 204.67 234.736 204.661 235.971V241.045C204.661 241.2 204.769 241.323 204.905 241.323" stroke="#B8C0CC" stroke-linecap="round" stroke-linejoin="round"/>
<path d="M203.308 241.197L192.24 247.479L203.126 242.05C203.618 241.779 204.212 241.654 204.779 241.651C205.346 241.649 205.932 241.768 206.408 242.033L217.269 247.449L206.238 241.188C206.23 241.183 206.221 241.178 206.213 241.173C205.674 240.823 205.282 240.341 205.03 239.962C204.925 239.804 204.841 239.659 204.778 239.542C204.715 239.659 204.631 239.804 204.525 239.963C204.272 240.343 203.879 240.828 203.333 241.182C203.325 241.187 203.316 241.192 203.308 241.197Z" fill="white" stroke="#B8C0CC" stroke-linecap="round" stroke-linejoin="round"/>
<path opacity="0.7" d="M214.051 251.041C213.997 250.931 213.963 250.811 213.956 250.675L213.922 250.172H215.37V250.598C215.37 250.76 215.337 250.905 215.276 251.041H214.051Z" fill="white" stroke="#B8C0CC" stroke-linecap="round" stroke-linejoin="round"/>
<path d="M214.453 250.99C215.006 250.99 215.452 250.638 215.452 250.213L215.431 246.645C215.431 246.22 214.974 245.876 214.421 245.876C213.868 245.876 213.422 246.228 213.422 246.653L213.443 250.221C213.443 250.647 213.9 250.99 214.453 250.99Z" fill="white" stroke="#B8C0CC" stroke-linecap="round" stroke-linejoin="round"/>
<path opacity="0.7" d="M194.352 251.041C194.297 250.931 194.264 250.811 194.257 250.675L194.223 250.172H195.671V250.598C195.671 250.76 195.637 250.905 195.576 251.041H194.352Z" fill="white" stroke="#B8C0CC" stroke-linecap="round" stroke-linejoin="round"/>
<path d="M194.828 250.99C195.381 250.99 195.827 250.638 195.827 250.213L195.806 246.645C195.806 246.22 195.349 245.876 194.796 245.876C194.244 245.876 193.797 246.228 193.797 246.653L193.819 250.221C193.829 250.647 194.276 250.99 194.828 250.99Z" fill="white" stroke="#B8C0CC" stroke-linecap="round" stroke-linejoin="round"/>
<path opacity="0.7" d="M194.514 247.813V247.794V247.813Z" fill="white" stroke="#B8C0CC" stroke-linecap="round" stroke-linejoin="round"/>
<path d="M180.689 247.503H180.715C181.546 247.495 182.472 247.009 183.328 246.148C184.692 244.784 185.557 242.832 185.522 241.187L185.513 241.136L184.727 239.363L184.648 239.346C184.631 239.346 182.769 238.997 180.847 238.98C179.501 238.971 178.443 239.116 177.692 239.423L177.657 239.44L177.631 239.474C177.622 239.491 177.351 239.841 177.316 240.258C177.281 240.557 178.05 245.279 179.571 246.915C179.929 247.307 180.305 247.503 180.689 247.503Z" fill="white" stroke="#B8C0CC" stroke-linecap="round" stroke-linejoin="round"/>
<path d="M184.395 234.599C184.071 234.097 183.495 233.756 182.839 233.756C181.825 233.756 180.995 234.565 180.995 235.554V239.603C180.995 239.722 181.1 239.825 181.222 239.825" stroke="#B8C0CC" stroke-linecap="round" stroke-linejoin="round"/>
<path d="M180.82 239.082C180.899 238.938 181.056 238.844 181.222 238.844C181.397 238.844 181.546 238.938 181.624 239.082H180.82ZM180.82 239.082C180.82 239.083 180.817 239.088 180.812 239.096C180.738 239.222 180.17 240.184 179.073 240.728L180.82 239.082ZM183.149 241.918L196.967 247.252L183.153 241.177C183.147 241.174 183.14 241.17 183.133 241.167C182.477 240.843 181.996 240.384 181.68 240.014C181.521 239.828 181.401 239.661 181.32 239.538C181.279 239.476 181.248 239.426 181.226 239.39C181.225 239.388 181.224 239.386 181.222 239.384C181.221 239.386 181.22 239.388 181.219 239.391C181.197 239.426 181.166 239.477 181.125 239.539C181.043 239.662 180.922 239.829 180.762 240.016C180.444 240.388 179.958 240.847 179.294 241.176C179.288 241.179 179.281 241.182 179.274 241.185L165.216 247.366L179.284 241.936C179.856 241.687 180.555 241.574 181.227 241.573C181.9 241.572 182.592 241.682 183.149 241.918Z" fill="white" stroke="#B8C0CC" stroke-linecap="round" stroke-linejoin="round"/>
<path opacity="0.7" d="M192.775 250.648C192.714 250.546 192.671 250.427 192.662 250.299L192.618 249.813H194.418V250.222C194.418 250.376 194.375 250.52 194.296 250.648H192.775Z" fill="white" stroke="#B8C0CC" stroke-linecap="round" stroke-linejoin="round"/>
<path d="M193.788 251.007C194.225 250.973 194.549 250.598 194.514 250.172L194.217 246.592C194.182 246.166 193.797 245.85 193.36 245.884C192.923 245.918 192.6 246.294 192.635 246.72L192.932 250.3C192.967 250.717 193.351 251.041 193.788 251.007Z" fill="white" stroke="#B8C0CC" stroke-linecap="round" stroke-linejoin="round"/>
<path d="M193.727 251.067C193.753 251.067 193.77 251.067 193.797 251.067C194.269 251.033 194.618 250.624 194.574 250.172L194.277 246.592C194.242 246.132 193.832 245.791 193.36 245.834C192.888 245.868 192.538 246.277 192.582 246.729L192.879 250.309C192.914 250.735 193.29 251.067 193.727 251.067ZM193.788 250.957C193.377 250.982 193.019 250.692 192.993 250.3L192.696 246.72C192.661 246.32 192.967 245.97 193.369 245.944C193.771 245.91 194.138 246.209 194.164 246.609L194.461 250.189C194.496 250.573 194.19 250.922 193.788 250.957Z" fill="white" stroke="#B8C0CC" stroke-linecap="round" stroke-linejoin="round"/>
<path opacity="0.7" d="M193.36 245.877C193.692 245.851 193.998 246.03 194.138 246.312C193.998 246.158 193.797 246.064 193.57 246.082C193.194 246.116 192.915 246.431 192.95 246.798L193.212 249.866C193.247 250.233 193.57 250.505 193.946 250.471C194.208 250.454 194.418 250.284 194.514 250.062L194.523 250.156C194.558 250.582 194.234 250.957 193.797 250.991C193.36 251.025 192.976 250.71 192.941 250.284L192.644 246.704C192.591 246.295 192.923 245.92 193.36 245.877Z" fill="white" stroke="#B8C0CC" stroke-linecap="round" stroke-linejoin="round"/>
<path d="M193.788 251.01C194.225 251.01 194.583 250.66 194.583 250.225L194.566 246.637C194.566 246.211 194.208 245.861 193.762 245.861C193.325 245.861 192.967 246.211 192.967 246.645L192.984 250.234C192.993 250.66 193.351 251.01 193.788 251.01Z" fill="white" stroke="#B8C0CC" stroke-linecap="round" stroke-linejoin="round"/>
<path d="M193.789 251.058C194.017 251.058 194.235 250.973 194.392 250.811C194.55 250.649 194.637 250.444 194.637 250.223L194.62 246.634C194.62 246.412 194.532 246.208 194.366 246.046C194.209 245.892 193.99 245.807 193.763 245.807C193.536 245.807 193.326 245.892 193.16 246.054C193.003 246.216 192.915 246.421 192.915 246.642L192.933 250.231C192.942 250.691 193.317 251.058 193.789 251.058ZM193.789 250.947C193.379 250.947 193.047 250.623 193.047 250.231L193.029 246.642C193.029 246.446 193.108 246.267 193.248 246.131C193.387 245.995 193.571 245.918 193.772 245.918C193.964 245.918 194.148 245.995 194.296 246.131C194.436 246.267 194.515 246.446 194.515 246.642L194.532 250.231C194.532 250.427 194.454 250.606 194.314 250.742C194.174 250.87 193.99 250.947 193.789 250.947Z" fill="white" stroke="#B8C0CC" stroke-linecap="round" stroke-linejoin="round"/>
<path opacity="0.7" d="M193.77 245.861C194.102 245.861 194.391 246.066 194.513 246.347C194.391 246.185 194.19 246.074 193.963 246.083C193.587 246.083 193.281 246.39 193.281 246.748L193.29 249.228H194.382C194.382 249.228 194.443 249.228 194.443 249.33C194.443 249.433 194.382 249.433 194.382 249.433H193.29V249.825C193.29 250.191 193.595 250.49 193.971 250.49C194.233 250.49 194.461 250.336 194.574 250.123V250.217C194.574 250.643 194.216 250.992 193.779 251.001C193.342 251.001 192.984 250.652 192.975 250.225L192.958 246.637C192.975 246.219 193.333 245.87 193.77 245.861Z" fill="white" stroke="#B8C0CC" stroke-linecap="round" stroke-linejoin="round"/>
<path opacity="0.5" d="M192.845 247.48C192.854 247.472 192.871 247.463 192.889 247.463H192.976V247.574H192.95L193.046 249.296H194.366C194.401 249.296 194.418 249.322 194.418 249.347C194.418 249.381 194.392 249.398 194.366 249.398H192.994C192.968 249.398 192.941 249.373 192.941 249.347L192.845 247.515C192.837 247.506 192.837 247.489 192.845 247.48Z" fill="white" stroke="#B8C0CC" stroke-linecap="round" stroke-linejoin="round"/>
<path d="M192.845 247.461C192.854 247.452 192.872 247.444 192.889 247.444H192.976V247.555H192.95L193.046 249.276H194.366C194.401 249.276 194.418 249.302 194.418 249.328C194.418 249.362 194.392 249.379 194.366 249.379H192.994C192.968 249.379 192.941 249.353 192.941 249.328L192.845 247.495C192.837 247.486 192.837 247.478 192.845 247.461Z" fill="white" stroke="#B8C0CC" stroke-linecap="round" stroke-linejoin="round"/>
<g opacity="0.7">
<path opacity="0.7" d="M192.844 247.461C192.853 247.453 192.853 247.453 192.862 247.453V247.461L192.958 249.294C192.958 249.32 192.984 249.345 193.01 249.345H194.382C194.391 249.345 194.4 249.337 194.408 249.337C194.408 249.362 194.382 249.388 194.356 249.388H192.984C192.958 249.388 192.931 249.362 192.931 249.337L192.835 247.504C192.835 247.487 192.835 247.478 192.844 247.461Z" fill="white" stroke="#B8C0CC" stroke-linecap="round" stroke-linejoin="round"/>
<path opacity="0.7" d="M192.976 247.541V247.522V247.541Z" fill="white" stroke="#B8C0CC" stroke-linecap="round" stroke-linejoin="round"/>
</g>
<path opacity="0.7" d="M168.227 250.648C168.166 250.546 168.122 250.427 168.114 250.299L168.07 249.813H169.87V250.222C169.87 250.376 169.826 250.52 169.748 250.648H168.227Z" fill="white" stroke="#B8C0CC" stroke-linecap="round" stroke-linejoin="round"/>
<path d="M169.241 251.007C169.678 250.973 170.001 250.598 169.967 250.171L169.669 246.591C169.634 246.165 169.25 245.85 168.813 245.884C168.376 245.918 168.053 246.293 168.088 246.719L168.385 250.299C168.42 250.717 168.804 251.041 169.241 251.007Z" fill="white" stroke="#B8C0CC" stroke-linecap="round" stroke-linejoin="round"/>
<path d="M169.17 251.067C169.196 251.067 169.214 251.067 169.24 251.067C169.712 251.033 170.061 250.624 170.018 250.172L169.721 246.592C169.686 246.132 169.275 245.791 168.803 245.834C168.331 245.868 167.982 246.277 168.025 246.729L168.322 250.309C168.357 250.735 168.733 251.067 169.17 251.067ZM169.231 250.957C168.821 250.982 168.462 250.692 168.436 250.3L168.139 246.72C168.104 246.32 168.41 245.97 168.812 245.944C169.214 245.91 169.581 246.209 169.607 246.609L169.904 250.189C169.948 250.573 169.642 250.922 169.231 250.957Z" fill="white" stroke="#B8C0CC" stroke-linecap="round" stroke-linejoin="round"/>
<path opacity="0.7" d="M168.811 245.877C169.143 245.852 169.449 246.031 169.589 246.312C169.449 246.159 169.248 246.065 169.021 246.082C168.645 246.116 168.366 246.431 168.401 246.798L168.663 249.867C168.698 250.233 169.021 250.506 169.397 250.472C169.659 250.455 169.869 250.284 169.965 250.063L169.974 250.156C170.009 250.583 169.685 250.958 169.248 250.992C168.811 251.026 168.427 250.71 168.392 250.284L168.095 246.704C168.042 246.295 168.374 245.92 168.811 245.877Z" fill="white" stroke="#B8C0CC" stroke-linecap="round" stroke-linejoin="round"/>
<path d="M169.24 251.01C169.677 251.01 170.035 250.66 170.035 250.225L170.018 246.637C170.018 246.211 169.659 245.861 169.214 245.861C168.777 245.861 168.419 246.211 168.419 246.645L168.436 250.234C168.445 250.66 168.803 251.01 169.24 251.01Z" fill="white" stroke="#B8C0CC" stroke-linecap="round" stroke-linejoin="round"/>
<path d="M169.241 251.058C169.468 251.058 169.687 250.973 169.844 250.811C170.001 250.649 170.089 250.444 170.089 250.223L170.071 246.634C170.071 246.412 169.984 246.208 169.818 246.046C169.661 245.892 169.442 245.807 169.215 245.807C168.988 245.807 168.778 245.892 168.612 246.054C168.455 246.216 168.367 246.421 168.367 246.642L168.385 250.231C168.385 250.691 168.769 251.058 169.241 251.058ZM169.241 250.947C168.83 250.947 168.498 250.623 168.498 250.231L168.481 246.642C168.481 246.446 168.559 246.267 168.699 246.131C168.839 245.995 169.023 245.918 169.224 245.918C169.416 245.918 169.599 245.995 169.748 246.131C169.888 246.267 169.966 246.446 169.966 246.642L169.984 250.231C169.984 250.427 169.905 250.606 169.765 250.742C169.626 250.87 169.433 250.947 169.241 250.947Z" fill="white" stroke="#B8C0CC" stroke-linecap="round" stroke-linejoin="round"/>
<path opacity="0.7" d="M169.214 245.861C169.546 245.861 169.834 246.065 169.957 246.347C169.834 246.185 169.633 246.074 169.406 246.082C169.03 246.082 168.725 246.389 168.725 246.747L168.742 249.228H169.834C169.834 249.228 169.896 249.228 169.896 249.33C169.896 249.432 169.834 249.432 169.834 249.432H168.742V249.824C168.742 250.191 169.048 250.489 169.424 250.489C169.686 250.489 169.913 250.336 170.027 250.123V250.217C170.027 250.643 169.668 250.992 169.231 251.001C168.794 251.001 168.436 250.651 168.427 250.225L168.41 246.637C168.419 246.219 168.777 245.869 169.214 245.861Z" fill="white" stroke="#B8C0CC" stroke-linecap="round" stroke-linejoin="round"/>
<path opacity="0.5" d="M168.297 247.48C168.306 247.472 168.323 247.463 168.341 247.463H168.428V247.574H168.402L168.498 249.296H169.818C169.853 249.296 169.87 249.322 169.87 249.347C169.87 249.381 169.844 249.398 169.818 249.398H168.446C168.419 249.398 168.393 249.373 168.393 249.347L168.297 247.515C168.28 247.506 168.288 247.489 168.297 247.48Z" fill="white" stroke="#B8C0CC" stroke-linecap="round" stroke-linejoin="round"/>
<path d="M168.297 247.461C168.306 247.452 168.323 247.444 168.341 247.444H168.428V247.555H168.402L168.498 249.276H169.818C169.853 249.276 169.87 249.302 169.87 249.328C169.87 249.362 169.844 249.379 169.818 249.379H168.446C168.419 249.379 168.393 249.353 168.393 249.328L168.297 247.495C168.28 247.486 168.288 247.478 168.297 247.461Z" fill="white" stroke="#B8C0CC" stroke-linecap="round" stroke-linejoin="round"/>
<g opacity="0.7">
<path opacity="0.7" d="M168.296 247.461C168.305 247.453 168.305 247.453 168.314 247.453V247.461L168.41 249.294C168.41 249.32 168.436 249.345 168.462 249.345H169.834C169.843 249.345 169.852 249.337 169.861 249.337C169.861 249.362 169.834 249.388 169.808 249.388H168.436C168.41 249.388 168.384 249.362 168.384 249.337L168.288 247.504C168.279 247.487 168.288 247.478 168.296 247.461Z" fill="white" stroke="#B8C0CC" stroke-linecap="round" stroke-linejoin="round"/>
<path opacity="0.7" d="M168.428 247.541V247.522V247.541Z" fill="white" stroke="#B8C0CC" stroke-linecap="round" stroke-linejoin="round"/>
</g>
<path d="M158.125 259.889C159.27 260.562 160.782 260.86 162.023 261.09C163.788 261.406 165.726 261.405 167.518 261.447C167.24 255.678 168.962 249.438 166.707 247.239C166.698 247.231 166.716 247.214 166.724 247.222C167.799 248.39 167.93 250.555 167.869 252.047C167.764 254.408 167.581 256.76 167.572 259.138C167.563 261.806 167.301 264.534 167.467 267.194C167.589 269.086 167.948 270.927 168.236 272.785C168.245 273.177 168.227 273.578 168.201 273.97C167.974 272.99 167.756 272.018 167.581 271.046C167.581 271.055 167.581 271.072 167.572 271.089C166.978 271.907 166.96 272.478 167.24 273.39C167.388 273.868 166.768 274.737 166.637 275.266C166.156 277.235 165.842 279.221 165.632 281.232C165.597 281.548 165.431 282.511 165.746 282.724C166.191 283.022 166.646 283.295 167.118 283.551C168.009 284.028 168.918 284.412 169.862 284.795C171.898 285.614 174.135 286.117 176.32 286.398C177.884 286.594 180.331 286.722 181.913 286.756V266.865V246.975C177.779 246.616 176.919 241.045 174.38 242.201C173.952 242.636 172.99 242.824 172.518 242.994C171.33 243.429 170.159 243.736 168.962 244.111C167.02 244.719 165.764 243.963 163.683 245.961C162.084 247.495 161.21 249.805 160.388 251.765C159.602 253.641 159.156 255.72 158.247 257.545C157.819 258.422 157.024 259.138 158.125 259.889Z" fill="white" stroke="#B8C0CC" stroke-linecap="round" stroke-linejoin="round"/>
<path d="M192.522 284.779C193.466 284.404 194.375 284.012 195.266 283.534C195.747 283.278 196.192 283.014 196.638 282.707C196.953 282.486 196.787 281.523 196.752 281.216C196.542 279.204 196.227 277.218 195.747 275.249C195.616 274.729 195.004 273.851 195.144 273.374C195.423 272.453 195.406 271.891 194.812 271.072C194.803 271.055 194.803 271.047 194.803 271.03C194.628 272.001 194.41 272.973 194.182 273.953C194.156 273.561 194.147 273.169 194.147 272.769C194.427 270.91 194.794 269.069 194.916 267.177C195.091 264.517 194.82 261.79 194.812 259.122C194.803 256.752 194.619 254.4 194.514 252.03C194.453 250.538 194.584 248.373 195.659 247.205C195.668 247.197 195.686 247.214 195.677 247.222C194.331 248.859 194.534 251.492 194.613 253.973C194.696 256.55 194.859 259.175 194.859 261.219C196.642 261.176 198.604 261.389 200.37 261.074C201.602 260.852 203.122 260.554 204.267 259.872C205.36 259.122 204.564 258.406 204.119 257.511C203.21 255.687 202.764 253.607 201.978 251.732C201.156 249.763 200.291 247.453 198.683 245.927C197.596 244.889 195.205 244.597 193.405 244.077C192.207 243.711 191.036 243.395 189.848 242.96C189.376 242.79 188.415 242.602 187.986 242.168C185.09 241.473 183.8 244.077 181.327 246.941V286.714C182.909 286.671 184.491 286.552 186.046 286.356C188.249 286.1 190.486 285.597 192.522 284.779Z" fill="white" stroke="#B8C0CC" stroke-linecap="round" stroke-linejoin="round"/>
<path d="M180.689 246.302C179.728 245.296 179.064 243.932 178.644 242.671C178.513 242.279 177.936 240.727 177.84 240.327C177.77 240.028 177.797 239.721 177.395 239.798C176.512 239.969 175.769 240.65 175.061 241.145C175.009 241.179 174.965 241.23 174.921 241.281C174.214 241.861 174.755 243.472 174.948 244.128C175.306 245.313 175.76 246.472 176.259 247.614C176.634 248.475 177.019 249.473 177.805 250.086C177.849 250.12 177.901 250.129 177.945 250.12C178.295 250.197 178.636 249.336 178.837 249.072C179.413 248.296 180.147 247.674 180.82 246.984C180.882 246.907 180.934 246.83 180.995 246.754C180.899 246.6 180.794 246.447 180.689 246.302Z" fill="white" stroke="#B8C0CC" stroke-linecap="round" stroke-linejoin="round"/>
<path d="M181.205 246.67C181.205 246.661 181.205 246.652 181.205 246.643C181.196 246.652 181.196 246.661 181.205 246.67Z" fill="white" stroke="#B8C0CC" stroke-linecap="round" stroke-linejoin="round"/>
<path d="M187.48 241.281C187.445 241.23 187.401 241.178 187.349 241.144C186.641 240.659 185.898 239.968 185.015 239.798C184.604 239.721 184.639 240.019 184.57 240.326C184.473 240.727 183.897 242.27 183.766 242.67C183.346 243.932 182.691 245.296 181.721 246.301C181.616 246.455 181.52 246.6 181.415 246.745C181.476 246.821 181.537 246.898 181.589 246.975C182.262 247.665 182.996 248.287 183.573 249.063C183.774 249.327 184.115 250.188 184.465 250.112C184.508 250.12 184.57 250.112 184.604 250.077C185.391 249.464 185.776 248.475 186.151 247.605C186.649 246.472 187.104 245.304 187.462 244.119C187.646 243.471 188.188 241.86 187.48 241.281Z" fill="white" stroke="#B8C0CC" stroke-linecap="round" stroke-linejoin="round"/>
<path d="M69.4767 245.425H102.419C105.456 245.425 107.919 247.887 107.919 250.925V266.577V288.229V309.882V319.042H69.4767V309.882V288.229V266.577V245.425Z" stroke="#B8C0CC" stroke-linecap="round" stroke-linejoin="round"/>
<path d="M88.0705 280.225C88.5419 278.183 90.3599 276.737 92.455 276.737H97.7951C99.8903 276.737 101.708 278.183 102.18 280.225L102.64 282.217C103.291 285.037 101.149 287.729 98.2552 287.729H91.995C89.1008 287.729 86.9591 285.037 87.6104 282.217L88.0705 280.225Z" fill="white" stroke="#B8C0CC" stroke-linecap="round" stroke-linejoin="round"/>
<path d="M97.8947 279.568V275.009C97.8947 273.479 96.6547 272.24 95.1251 272.24V272.24C93.5955 272.24 92.3556 273.479 92.3556 275.009V279.568" stroke="#B8C0CC" stroke-linecap="round" stroke-linejoin="round"/>
<path d="M149.367 262.913C149.367 269.82 147.518 276.05 144.554 280.539C141.588 285.031 137.547 287.729 133.154 287.729C128.76 287.729 124.719 285.031 121.753 280.539C118.79 276.05 116.941 269.82 116.941 262.913C116.941 256.006 118.79 249.775 121.753 245.287C124.719 240.794 128.76 238.096 133.154 238.096C137.547 238.096 141.588 240.794 144.554 245.287C147.518 249.775 149.367 256.006 149.367 262.913Z" fill="white" stroke="#B8C0CC" stroke-linecap="round" stroke-linejoin="round"/>
<path d="M146.693 262.913C146.693 269.09 145.14 274.658 142.656 278.666C140.167 282.682 136.794 285.064 133.154 285.064C129.514 285.064 126.141 282.682 123.652 278.666C121.168 274.658 119.615 269.09 119.615 262.913C119.615 256.735 121.168 251.167 123.652 247.159C126.141 243.143 129.514 240.761 133.154 240.761C136.794 240.761 140.167 243.143 142.656 247.159C145.14 251.167 146.693 256.735 146.693 262.913Z" fill="white" stroke="#B8C0CC" stroke-linecap="round" stroke-linejoin="round"/>
<mask id="mask0" mask-type="alpha" maskUnits="userSpaceOnUse" x="119" y="240" width="29" height="46">
<path d="M146.693 262.913C146.693 269.09 145.14 274.658 142.656 278.666C140.167 282.682 136.794 285.064 133.154 285.064C129.514 285.064 126.141 282.682 123.652 278.666C121.168 274.658 119.615 269.09 119.615 262.913C119.615 256.735 121.168 251.167 123.652 247.159C126.141 243.143 129.514 240.761 133.154 240.761C136.794 240.761 140.167 243.143 142.656 247.159C145.14 251.167 146.693 256.735 146.693 262.913Z" fill="white" stroke="#B8C0CC" stroke-linecap="round" stroke-linejoin="round"/>
</mask>
<g mask="url(#mask0)">
<rect width="2.67176" height="36.8594" transform="matrix(0.866766 0.498716 -0.501285 0.865282 136.255 240.261)" fill="#B8C0CC" fill-opacity="0.24"/>
<rect width="6.34087" height="43.0568" transform="matrix(0.866766 0.498716 -0.501285 0.865282 140.768 242.926)" fill="#B8C0CC" fill-opacity="0.24"/>
</g>
<rect x="116.941" y="292.06" width="32.4255" height="6.99469" rx="1.5" fill="white" stroke="#B8C0CC" stroke-linecap="round" stroke-linejoin="round"/>
<rect x="119.615" y="298.723" width="27.0775" height="20.3192" rx="1.5" fill="white" stroke="#B8C0CC" stroke-linecap="round" stroke-linejoin="round"/>
<path d="M132.485 299.222V318.542" stroke="#B8C0CC" stroke-linecap="round" stroke-linejoin="round"/>
<rect x="121.789" y="294.891" width="8.69064" height="1.33245" rx="0.666224" fill="#B8C0CC"/>
<rect x="129.811" y="306.217" width="5.32979" height="1.33795" rx="0.668974" transform="rotate(90 129.811 306.217)" fill="#B8C0CC"/>
<rect x="137.833" y="306.217" width="5.32979" height="1.33795" rx="0.668974" transform="rotate(90 137.833 306.217)" fill="#B8C0CC"/>
<rect x="135.828" y="294.891" width="8.69064" height="1.33245" rx="0.666224" fill="#B8C0CC"/>
<path d="M73.9127 296.798C73.9356 296.067 74.3107 295.393 74.9192 294.989C75.6757 294.487 76.6598 294.487 77.4163 294.989C78.0248 295.393 78.3999 296.067 78.4228 296.798L78.5556 301.035C78.5893 302.109 78.7876 303.171 79.1437 304.185L79.9367 306.443C80.0868 306.87 80.1159 307.331 80.0206 307.774C79.7771 308.906 78.7761 309.715 77.6179 309.715H76.1678H74.7176C73.5594 309.715 72.5584 308.906 72.3149 307.774C72.2196 307.331 72.2487 306.87 72.3988 306.443L73.1918 304.185C73.5479 303.171 73.7462 302.109 73.7799 301.035L73.9127 296.798Z" fill="white" stroke="#B8C0CC" stroke-linecap="round" stroke-linejoin="round"/>
<path d="M76.1684 305.713C75.8338 306.202 74.8133 307.599 72.5549 306.844" stroke="#B8C0CC" stroke-linecap="round" stroke-linejoin="round"/>
<path d="M76.1678 305.713C76.5024 306.202 77.5229 307.599 79.7814 306.844" stroke="#B8C0CC" stroke-linecap="round" stroke-linejoin="round"/>
<path d="M83.1816 296.798C83.2045 296.067 83.5796 295.393 84.1882 294.989C84.9446 294.487 85.9287 294.487 86.6852 294.989C87.2937 295.393 87.6688 296.067 87.6917 296.798L87.8245 301.035C87.8582 302.109 88.0565 303.171 88.4126 304.185L89.2056 306.443C89.3557 306.87 89.3848 307.331 89.2895 307.774C89.046 308.906 88.045 309.715 86.8868 309.715H85.4367H83.9865C82.8283 309.715 81.8273 308.906 81.5838 307.774C81.4886 307.331 81.5176 306.87 81.6677 306.443L82.4607 304.185C82.8168 303.171 83.0151 302.109 83.0488 301.035L83.1816 296.798Z" fill="white" stroke="#B8C0CC" stroke-linecap="round" stroke-linejoin="round"/>
<path d="M85.4373 305.713C85.1027 306.202 84.0822 307.599 81.8237 306.844" stroke="#B8C0CC" stroke-linecap="round" stroke-linejoin="round"/>
<path d="M85.4366 305.713C85.7712 306.202 86.7917 307.599 89.0501 306.844" stroke="#B8C0CC" stroke-linecap="round" stroke-linejoin="round"/>
<rect x="68.9767" y="380.424" width="166.047" height="22.7879" rx="11.3939" fill="#8836DA"/>
<path d="M144.025 391.866C144.513 392.002 144.889 392.246 145.153 392.598C145.425 392.95 145.561 393.39 145.561 393.918C145.561 394.646 145.309 395.214 144.805 395.622C144.309 396.022 143.613 396.222 142.717 396.222H139.657C139.465 396.222 139.313 396.17 139.201 396.066C139.097 395.954 139.045 395.806 139.045 395.622V388.362C139.045 388.178 139.097 388.034 139.201 387.93C139.313 387.818 139.465 387.762 139.657 387.762H142.585C143.457 387.762 144.137 387.958 144.625 388.35C145.121 388.734 145.369 389.274 145.369 389.97C145.369 390.418 145.249 390.806 145.009 391.134C144.777 391.462 144.449 391.706 144.025 391.866ZM140.257 391.422H142.393C143.577 391.422 144.169 390.974 144.169 390.078C144.169 389.63 144.021 389.298 143.725 389.082C143.437 388.866 142.993 388.758 142.393 388.758H140.257V391.422ZM142.585 395.226C143.201 395.226 143.653 395.114 143.941 394.89C144.229 394.666 144.373 394.318 144.373 393.846C144.373 393.366 144.225 393.01 143.929 392.778C143.641 392.538 143.193 392.418 142.585 392.418H140.257V395.226H142.585ZM149.577 396.306C149.001 396.306 148.493 396.182 148.053 395.934C147.621 395.686 147.285 395.334 147.045 394.878C146.813 394.414 146.697 393.878 146.697 393.27C146.697 392.654 146.813 392.118 147.045 391.662C147.285 391.198 147.621 390.842 148.053 390.594C148.493 390.346 149.001 390.222 149.577 390.222C150.153 390.222 150.657 390.346 151.089 390.594C151.529 390.842 151.865 391.198 152.097 391.662C152.337 392.118 152.457 392.654 152.457 393.27C152.457 393.878 152.337 394.414 152.097 394.878C151.865 395.334 151.529 395.686 151.089 395.934C150.657 396.182 150.153 396.306 149.577 396.306ZM149.577 395.346C150.113 395.346 150.521 395.17 150.801 394.818C151.089 394.466 151.233 393.95 151.233 393.27C151.233 392.598 151.089 392.086 150.801 391.734C150.513 391.374 150.105 391.194 149.577 391.194C149.049 391.194 148.641 391.374 148.353 391.734C148.065 392.086 147.921 392.598 147.921 393.27C147.921 393.95 148.061 394.466 148.341 394.818C148.629 395.17 149.041 395.346 149.577 395.346ZM156.351 396.306C155.775 396.306 155.267 396.182 154.827 395.934C154.395 395.686 154.059 395.334 153.819 394.878C153.587 394.414 153.471 393.878 153.471 393.27C153.471 392.654 153.587 392.118 153.819 391.662C154.059 391.198 154.395 390.842 154.827 390.594C155.267 390.346 155.775 390.222 156.351 390.222C156.927 390.222 157.431 390.346 157.863 390.594C158.303 390.842 158.639 391.198 158.871 391.662C159.111 392.118 159.231 392.654 159.231 393.27C159.231 393.878 159.111 394.414 158.871 394.878C158.639 395.334 158.303 395.686 157.863 395.934C157.431 396.182 156.927 396.306 156.351 396.306ZM156.351 395.346C156.887 395.346 157.295 395.17 157.575 394.818C157.863 394.466 158.007 393.95 158.007 393.27C158.007 392.598 157.863 392.086 157.575 391.734C157.287 391.374 156.879 391.194 156.351 391.194C155.823 391.194 155.415 391.374 155.127 391.734C154.839 392.086 154.695 392.598 154.695 393.27C154.695 393.95 154.835 394.466 155.115 394.818C155.403 395.17 155.815 395.346 156.351 395.346ZM165.5 395.274C165.644 395.394 165.716 395.542 165.716 395.718C165.716 395.87 165.664 396.002 165.56 396.114C165.456 396.226 165.332 396.282 165.188 396.282C165.036 396.282 164.9 396.226 164.78 396.114L161.792 393.474V395.694C161.792 395.886 161.736 396.034 161.624 396.138C161.512 396.234 161.368 396.282 161.192 396.282C161.016 396.282 160.868 396.234 160.748 396.138C160.636 396.034 160.58 395.886 160.58 395.694V388.29C160.58 388.098 160.636 387.954 160.748 387.858C160.868 387.754 161.016 387.702 161.192 387.702C161.368 387.702 161.512 387.754 161.624 387.858C161.736 387.954 161.792 388.098 161.792 388.29V392.994L164.528 390.438C164.664 390.318 164.796 390.258 164.924 390.258C165.076 390.258 165.208 390.314 165.32 390.426C165.432 390.538 165.488 390.67 165.488 390.822C165.488 390.974 165.42 391.114 165.284 391.242L163.148 393.198L165.5 395.274ZM146.453 403.702C146.629 403.702 146.769 403.762 146.873 403.882C146.985 403.994 147.041 404.142 147.041 404.326V411.658C147.041 411.842 146.985 411.994 146.873 412.114C146.761 412.226 146.617 412.282 146.441 412.282C146.233 412.282 146.073 412.202 145.961 412.042L141.257 405.838V411.658C141.257 411.842 141.201 411.994 141.089 412.114C140.985 412.226 140.845 412.282 140.669 412.282C140.493 412.282 140.353 412.226 140.249 412.114C140.145 412.002 140.093 411.85 140.093 411.658V404.326C140.093 404.142 140.149 403.994 140.261 403.882C140.373 403.762 140.517 403.702 140.693 403.702C140.901 403.702 141.061 403.782 141.173 403.942L145.877 410.158V404.326C145.877 404.142 145.929 403.994 146.033 403.882C146.137 403.762 146.277 403.702 146.453 403.702ZM151.411 412.306C150.835 412.306 150.327 412.182 149.887 411.934C149.455 411.686 149.119 411.334 148.879 410.878C148.647 410.414 148.531 409.878 148.531 409.27C148.531 408.654 148.647 408.118 148.879 407.662C149.119 407.198 149.455 406.842 149.887 406.594C150.327 406.346 150.835 406.222 151.411 406.222C151.987 406.222 152.491 406.346 152.923 406.594C153.363 406.842 153.699 407.198 153.931 407.662C154.171 408.118 154.291 408.654 154.291 409.27C154.291 409.878 154.171 410.414 153.931 410.878C153.699 411.334 153.363 411.686 152.923 411.934C152.491 412.182 151.987 412.306 151.411 412.306ZM151.411 411.346C151.947 411.346 152.355 411.17 152.635 410.818C152.923 410.466 153.067 409.95 153.067 409.27C153.067 408.598 152.923 408.086 152.635 407.734C152.347 407.374 151.939 407.194 151.411 407.194C150.883 407.194 150.475 407.374 150.187 407.734C149.899 408.086 149.755 408.598 149.755 409.27C149.755 409.95 149.895 410.466 150.175 410.818C150.463 411.17 150.875 411.346 151.411 411.346ZM163.527 406.618C163.615 406.378 163.779 406.258 164.019 406.258C164.171 406.258 164.307 406.31 164.427 406.414C164.547 406.518 164.607 406.646 164.607 406.798C164.607 406.878 164.591 406.95 164.559 407.014L162.567 411.874C162.519 412.002 162.439 412.102 162.327 412.174C162.215 412.238 162.091 412.27 161.955 412.27C161.827 412.27 161.707 412.238 161.595 412.174C161.483 412.102 161.403 412.002 161.355 411.874L159.795 408.022L158.271 411.874C158.223 412.002 158.143 412.102 158.031 412.174C157.927 412.238 157.807 412.27 157.671 412.27C157.543 412.27 157.419 412.238 157.299 412.174C157.187 412.102 157.103 412.002 157.047 411.874L155.067 407.014C155.035 406.95 155.019 406.882 155.019 406.81C155.019 406.65 155.083 406.518 155.211 406.414C155.347 406.31 155.495 406.258 155.655 406.258C155.895 406.258 156.059 406.374 156.147 406.606L157.695 410.698L159.279 406.642C159.327 406.514 159.403 406.418 159.507 406.354C159.611 406.29 159.723 406.258 159.843 406.258C159.955 406.258 160.063 406.29 160.167 406.354C160.271 406.418 160.347 406.514 160.395 406.642L161.979 410.674L163.527 406.618Z" fill="white"/>
<path d="M68.9767 181.98C68.9767 179.358 71.1022 177.232 73.7242 177.232L157.215 177.232C159.837 177.232 161.963 179.358 161.963 181.98C161.963 184.602 159.837 186.727 157.215 186.727L73.7242 186.727C71.1022 186.727 68.9767 184.602 68.9767 181.98Z" fill="#8836DA" fill-opacity="0.4"/>
<path d="M68.9767 356.687C68.9767 354.065 71.1022 351.939 73.7242 351.939H230.276C232.898 351.939 235.023 354.065 235.023 356.687C235.023 359.309 232.898 361.434 230.276 361.434H73.7242C71.1022 361.434 68.9767 359.309 68.9767 356.687Z" fill="#F2F4F5"/>
<rect x="68.9767" y="72.7878" width="166.047" height="71.2121" rx="6" fill="#8836DA"/>
<path d="M132.498 140.202C132.498 152.76 122.325 162.94 109.777 162.94C97.229 162.94 87.0558 152.76 87.0558 140.202C87.0558 127.644 97.229 117.465 109.777 117.465C122.325 117.465 132.498 127.644 132.498 140.202Z" fill="white" stroke="#8836DA" stroke-width="2"/>
<path d="M109.777 121.212C99.3015 121.212 90.8 129.719 90.8 140.202C90.8 150.684 99.3015 159.192 109.777 159.192C120.252 159.192 128.753 150.684 128.753 140.202C128.753 129.719 120.252 121.212 109.777 121.212ZM109.777 126.909C112.927 126.909 115.47 129.454 115.47 132.606C115.47 135.758 112.927 138.303 109.777 138.303C106.627 138.303 104.084 135.758 104.084 132.606C104.084 129.454 106.627 126.909 109.777 126.909ZM109.777 155.774C104.084 155.774 98.941 152.393 96.493 148.709C96.5499 144.93 104.084 141.911 109.777 141.911C115.47 141.911 123.003 144.93 123.06 148.709C120.612 152.393 115.47 155.774 109.777 155.774Z" fill="#B8C0CC"/>
<path d="M15 101.965C23.2843 101.965 30 95.2491 30 86.9648C30 78.6806 23.2843 71.9648 15 71.9648C6.71573 71.9648 0 78.6806 0 86.9648C0 95.2491 6.71573 101.965 15 101.965Z" fill="#1976D2"/>
<path d="M23.0001 89.0415H19.0001V85.8108C19.0001 84.9191 19.7169 85.0031 20.6001 85.0031H22.2001V80.9646H19.0001C16.3489 80.9646 14.2001 83.1341 14.2001 85.8108V89.0415H11.0001V93.08H14.2001V101.965H19.0001V93.08H21.4001L23.0001 89.0415Z" fill="#FAFAFA"/>
<path d="M40.421 32.7324C40.421 31.6611 40.322 30.6873 40.1239 29.7134H25.7676V35.5566H33.9854C33.5893 37.407 32.5002 39.0626 30.9161 40.1338V43.8346H35.8665C38.7378 41.1077 40.421 37.3096 40.421 32.7324Z" fill="#4285F4"/>
<path d="M25.7675 47.4388C29.9259 47.4388 33.3912 46.0754 35.8665 43.8355L30.916 40.1348C29.3319 41.1087 27.5497 41.5956 25.6685 41.5956C23.7873 41.5956 21.9062 41.0113 20.322 39.8426C18.7379 38.674 17.6488 37.1158 17.0547 35.3628H12.0052V39.2583C13.2924 41.7904 15.2725 43.8355 17.6488 45.2963C20.124 46.6597 22.8963 47.4388 25.7675 47.4388Z" fill="#34A853"/>
<path d="M17.1537 35.2644C16.5596 33.414 16.5596 31.3689 17.1537 29.5185V25.623H12.1042C11.0151 27.7656 10.421 30.0055 10.421 32.3428C10.421 34.6801 11.0151 37.0174 12.1042 39.0625L17.1537 35.2644Z" fill="#FBBC04"/>
<path d="M25.7679 23.2863C26.857 23.2863 27.9461 23.4811 28.9362 23.8706C29.9263 24.2602 30.8173 24.8445 31.6094 25.6236L35.9658 21.3386C33.1936 18.8065 29.5302 17.3457 25.7679 17.4431C22.8966 17.4431 20.1244 18.2222 17.7481 19.683C15.3719 21.1438 13.3917 23.2863 12.1046 25.721L17.1541 29.6165C17.7481 27.7661 18.8372 26.2079 20.4214 25.0393C21.9065 23.8706 23.7877 23.2863 25.7679 23.2863Z" fill="#EA4335"/>
<path d="M94.7633 8.74233C94.7633 7.54601 94.4872 6.25767 94.0271 5.15338C93.659 4.14111 93.1069 3.22086 92.2787 2.48467C91.5425 1.74847 90.6222 1.1043 89.6099 0.736199C88.4136 0.276076 87.2173 0.0920301 86.021 0.0920301C84.4566 5.61536e-06 83.9044 0 79.8554 0C75.8063 0 75.3462 5.61536e-06 73.6897 0.0920301C72.4934 0.0920301 71.2051 0.3681 70.1008 0.828222C69.0885 1.19632 68.1682 1.74847 67.4321 2.57669C66.6959 3.31289 66.0517 4.23313 65.6836 5.2454C65.2235 6.44172 65.0394 7.63804 65.0394 8.83436C64.9474 10.3988 64.9474 10.9509 64.9474 15C64.9474 19.0491 64.9474 19.5092 65.0394 21.1656C65.0394 22.362 65.3155 23.6503 65.7756 24.7546C66.1437 25.7669 66.6959 26.6871 67.5241 27.4233C68.2603 28.1595 69.1805 28.8037 70.1928 29.1718C71.3891 29.6319 72.5854 29.8159 73.7817 29.908C75.3462 30 75.8983 30 79.9474 30C83.9965 30 84.4566 30 86.113 29.908C87.3093 29.908 88.5977 29.6319 89.702 29.1718C90.7142 28.8037 91.5425 28.2515 92.3707 27.4233C93.1989 26.5951 93.659 25.7669 94.1191 24.7546C94.5793 23.5583 94.7633 22.362 94.8553 21.1656C94.9474 19.6012 94.9474 19.0491 94.9474 15C94.9474 10.9509 94.8553 10.3988 94.7633 8.74233ZM92.0946 20.8896C92.0946 21.8098 91.9106 22.7301 91.5425 23.6503C91.2664 24.2945 90.8983 24.8466 90.4382 25.3988C89.978 25.8589 89.3339 26.227 88.6897 26.5031C87.7695 26.8712 86.8492 26.9632 85.929 27.0552C84.3645 27.1472 83.9044 27.1472 79.9474 27.1472C75.9903 27.1472 75.5302 27.1472 73.9658 27.0552C73.0455 27.0552 72.1253 26.8712 71.2051 26.5031C70.5609 26.227 70.0087 25.8589 69.4566 25.3988C68.9965 24.9387 68.6284 24.2945 68.3523 23.6503C67.9842 22.7301 67.8922 21.8098 67.8002 20.8896C67.7081 19.3252 67.7081 18.865 67.7081 14.908C67.7081 10.9509 67.7081 10.4908 67.8002 8.92638C67.8002 8.00614 67.9842 7.08589 68.3523 6.16565C68.6284 5.52148 68.9965 4.96933 69.4566 4.41718C69.9167 3.95706 70.5609 3.58896 71.2051 3.31289C72.1253 2.94479 73.0455 2.85276 73.9658 2.76074C75.5302 2.66871 75.9903 2.66871 79.9474 2.66871C83.9044 2.66871 84.3645 2.66871 85.929 2.76074C86.8492 2.76074 87.7695 2.94479 88.6897 3.31289C89.3339 3.58896 89.886 3.95706 90.4382 4.41718C90.8983 4.8773 91.2664 5.52148 91.5425 6.16565C91.9106 7.08589 92.0026 8.00614 92.0946 8.92638C92.1866 10.4908 92.1866 10.9509 92.1866 14.908C92.1866 18.865 92.1866 19.3252 92.0946 20.8896Z" fill="url(#paint0_linear)"/>
<path d="M80.0393 7.27002C78.5669 7.27002 77.0945 7.73014 75.8062 8.55837C74.5179 9.38659 73.5976 10.5829 72.9534 11.9633C72.4013 13.3436 72.2172 14.9081 72.4933 16.3805C72.7694 17.8528 73.5056 19.2332 74.6099 20.2455C75.7142 21.3498 77.0025 22.086 78.4749 22.3621C79.9473 22.6381 81.5117 22.5461 82.8921 21.9019C84.2725 21.3498 85.4688 20.3375 86.297 19.0492C87.1252 17.7608 87.5853 16.2884 87.5853 14.816C87.5853 12.7915 86.7571 10.859 85.3768 9.38659C83.9964 8.09824 82.0639 7.27002 80.0393 7.27002ZM80.0393 19.8774C79.0271 19.8774 78.1068 19.6013 77.2786 19.0492C76.4504 18.497 75.8062 17.7608 75.4381 16.8406C75.07 15.9203 74.978 14.9081 75.162 13.9878C75.3461 13.0676 75.8062 12.1473 76.5424 11.4111C77.2786 10.6749 78.1068 10.2148 79.1191 10.0308C80.0393 9.84671 81.0516 9.93874 81.9718 10.3068C82.8921 10.6749 83.6283 11.3191 84.1804 12.1473C84.7326 12.9755 85.0087 13.8958 85.0087 14.9081C85.0087 15.5522 84.9166 16.1964 84.6406 16.8406C84.3645 17.4847 83.9964 17.9449 83.5363 18.405C83.0761 18.8651 82.524 19.2332 81.9718 19.5093C81.3277 19.6933 80.6835 19.8774 80.0393 19.8774Z" fill="url(#paint1_linear)"/>
<path d="M89.7025 6.9938C89.7025 7.36184 89.6105 7.72987 89.4264 8.0059C89.2423 8.28193 88.9662 8.55796 88.598 8.64997C88.2299 8.74198 87.9537 8.83399 87.5856 8.74198C87.2174 8.64997 86.9413 8.46595 86.6651 8.28193C86.389 8.0059 86.2049 7.72987 86.2049 7.36183C86.2049 6.99379 86.2049 6.62575 86.297 6.34972C86.389 5.98168 86.6651 5.70565 86.9413 5.52163C87.2174 5.33761 87.5856 5.24561 87.9537 5.24561C88.4139 5.24561 88.8742 5.42962 89.2423 5.79766C89.5184 6.07369 89.7025 6.53375 89.7025 6.9938Z" fill="url(#paint2_linear)"/>
<defs>
<filter id="filter0_d" x="36" y="41.9998" width="232" height="404" filterUnits="userSpaceOnUse" color-interpolation-filters="sRGB">
<feFlood flood-opacity="0" result="BackgroundImageFix"/>
<feColorMatrix in="SourceAlpha" type="matrix" values="0 0 0 0 0 0 0 0 0 0 0 0 0 0 0 0 0 0 127 0"/>
<feOffset dy="6"/>
<feGaussianBlur stdDeviation="7"/>
<feColorMatrix type="matrix" values="0 0 0 0 0.533333 0 0 0 0 0.211765 0 0 0 0 0.854902 0 0 0 0.16 0"/>
<feBlend mode="normal" in2="BackgroundImageFix" result="effect1_dropShadow"/>
<feBlend mode="normal" in="SourceGraphic" in2="effect1_dropShadow" result="shape"/>
</filter>
<linearGradient id="paint0_linear" x1="67.6236" y1="27.2665" x2="92.3649" y2="2.52591" gradientUnits="userSpaceOnUse">
<stop stop-color="#FFD600"/>
<stop offset="0.5" stop-color="#FF0100"/>
<stop offset="1" stop-color="#D800B9"/>
</linearGradient>
<linearGradient id="paint1_linear" x1="74.5951" y1="20.2946" x2="85.4038" y2="9.4858" gradientUnits="userSpaceOnUse">
<stop stop-color="#FF6400"/>
<stop offset="0.5" stop-color="#FF0100"/>
<stop offset="1" stop-color="#FD0056"/>
</linearGradient>
<linearGradient id="paint2_linear" x1="86.6696" y1="8.22323" x2="89.1953" y2="5.69658" gradientUnits="userSpaceOnUse">
<stop stop-color="#F30072"/>
<stop offset="1" stop-color="#E50097"/>
</linearGradient>
</defs>
</svg>
