<svg width="104" height="104" viewBox="0 0 104 104" fill="none" xmlns="http://www.w3.org/2000/svg">
<circle cx="52" cy="52" r="52" fill="#F0F4F7"/>
<path d="M55.2937 58.9334C54.8556 58.6151 54.3099 58.4476 53.7283 58.4476H36.9658C36.4061 58.4476 35.8919 58.6008 35.4808 58.8957L34.898 58.083L35.4808 58.8957C33.0752 60.6208 26.4004 66.0017 22.3128 75.0864C18.6621 83.2 18.6532 92.1725 18.9386 96.5573C19.0144 97.7209 19.8702 98.6641 21.0587 98.8825C25.4371 99.6872 34.7664 101.127 45.4308 101.127C56.1604 101.127 65.4765 99.6695 69.7855 98.8681C70.9361 98.6541 71.7783 97.7599 71.8996 96.6304C72.3859 92.105 72.8009 82.6494 69.2379 75.103C65.2794 66.7187 57.9242 60.8448 55.2937 58.9334Z" fill="white" stroke="#B8C0CC" stroke-width="2"/>
<path d="M39.3928 60.2059C39.8275 59.1381 40.8766 58.4476 42.0628 58.4476H48.6311C49.88 58.4476 50.9771 59.2132 51.3816 60.367C52.8961 64.6869 55.8414 73.6694 57.2126 81.7791C58.4392 89.0336 58.785 95.2817 58.8765 98.7727C58.9106 100.072 58.0359 101.187 56.7629 101.467C53.756 102.126 49.0726 103 45.4308 103C41.8185 103 37.1809 102.14 34.1707 101.482C32.8741 101.199 31.977 100.044 32.0149 98.7016C32.116 95.1139 32.4052 88.758 33.2305 81.729C34.1611 73.8036 37.6404 64.5101 39.3928 60.2059Z" fill="white" stroke="#B8C0CC" stroke-width="2"/>
<mask id="path-4-inside-1" fill="white">
<path fill-rule="evenodd" clip-rule="evenodd" d="M43.9832 24.7619C41.7741 24.7619 39.9832 26.5528 39.9832 28.7619V31.6952H37.0118C34.2767 31.6952 32.0594 33.9125 32.0594 36.6476C32.0594 39.3827 34.2767 41.6 37.0118 41.6H53.8499C56.585 41.6 58.8022 39.3827 58.8022 36.6476C58.8022 33.9125 56.585 31.6952 53.8499 31.6952H50.8784V28.7619C50.8784 26.5528 49.0876 24.7619 46.8784 24.7619H43.9832Z"/>
</mask>
<path fill-rule="evenodd" clip-rule="evenodd" d="M43.9832 24.7619C41.7741 24.7619 39.9832 26.5528 39.9832 28.7619V31.6952H37.0118C34.2767 31.6952 32.0594 33.9125 32.0594 36.6476C32.0594 39.3827 34.2767 41.6 37.0118 41.6H53.8499C56.585 41.6 58.8022 39.3827 58.8022 36.6476C58.8022 33.9125 56.585 31.6952 53.8499 31.6952H50.8784V28.7619C50.8784 26.5528 49.0876 24.7619 46.8784 24.7619H43.9832Z" fill="white"/>
<path d="M39.9832 31.6952V33.6952H41.9832V31.6952H39.9832ZM50.8784 31.6952H48.8784V33.6952H50.8784V31.6952ZM41.9832 28.7619C41.9832 27.6573 42.8786 26.7619 43.9832 26.7619V22.7619C40.6695 22.7619 37.9832 25.4482 37.9832 28.7619H41.9832ZM41.9832 31.6952V28.7619H37.9832V31.6952H41.9832ZM37.0118 33.6952H39.9832V29.6952H37.0118V33.6952ZM34.0594 36.6476C34.0594 35.0171 35.3812 33.6952 37.0118 33.6952V29.6952C33.1721 29.6952 30.0594 32.8079 30.0594 36.6476H34.0594ZM37.0118 39.6C35.3812 39.6 34.0594 38.2782 34.0594 36.6476H30.0594C30.0594 40.4873 33.1721 43.6 37.0118 43.6V39.6ZM53.8499 39.6H37.0118V43.6H53.8499V39.6ZM56.8022 36.6476C56.8022 38.2782 55.4804 39.6 53.8499 39.6V43.6C57.6896 43.6 60.8022 40.4873 60.8022 36.6476H56.8022ZM53.8499 33.6952C55.4804 33.6952 56.8022 35.0171 56.8022 36.6476H60.8022C60.8022 32.8079 57.6896 29.6952 53.8499 29.6952V33.6952ZM50.8784 33.6952H53.8499V29.6952H50.8784V33.6952ZM48.8784 28.7619V31.6952H52.8784V28.7619H48.8784ZM46.8784 26.7619C47.983 26.7619 48.8784 27.6573 48.8784 28.7619H52.8784C52.8784 25.4482 50.1921 22.7619 46.8784 22.7619V26.7619ZM43.9832 26.7619H46.8784V22.7619H43.9832V26.7619Z" fill="#B8C0CC" mask="url(#path-4-inside-1)"/>
<path d="M54.1532 38.9291L56.3825 39.9667C56.1821 40.3195 55.9432 40.758 55.6859 41.2672C54.9806 42.6634 54.1272 44.6112 53.5557 46.7943C52.5063 50.8022 52.356 55.872 56.1908 59.6108L52.8728 61.9273C48.4024 65.0485 42.4593 65.0485 37.9888 61.9273L34.6708 59.6108C38.5056 55.872 38.3553 50.8022 37.3059 46.7943C36.7344 44.6112 35.881 42.6634 35.1757 41.2672C34.9184 40.758 34.6795 40.3195 34.4791 39.9667L36.7084 38.9291C38.3137 38.1819 40.167 38.1819 41.7722 38.9291L45.0088 40.4356L45.4308 40.632L45.8528 40.4356L49.0894 38.9291C50.6946 38.1819 52.5479 38.1819 54.1532 38.9291Z" fill="white" stroke="#8836DA" stroke-width="2"/>
<path d="M49.2836 46.5524C48.5225 50.019 48.3703 57.4476 53.8499 59.4286" stroke="#8836DA" stroke-width="2" stroke-linecap="round"/>
<path d="M41.0502 46.5524C41.8756 50.019 42.0407 57.4476 36.0978 59.4286" stroke="#8836DA" stroke-width="2" stroke-linecap="round"/>
<path d="M91.3219 83.2C91.3219 82.653 90.8784 82.2095 90.3314 82.2095C89.7844 82.2095 89.3409 82.653 89.3409 83.2V86.1714C89.3409 86.7185 89.7844 87.1619 90.3314 87.1619C90.8784 87.1619 91.3219 86.7185 91.3219 86.1714V83.2Z" fill="#8836DA"/>
<path d="M90.2682 82.3981H90.3942C91.0918 82.3981 91.8119 82.0616 92.378 81.3715C92.7623 80.9028 93.0442 80.3056 93.1872 79.6438H87.4755C87.6186 80.3056 87.9004 80.9028 88.2847 81.3715C88.8506 82.0616 89.5707 82.3981 90.2682 82.3981Z" fill="white" stroke="#B8C0CC" stroke-width="2"/>
<path d="M61.3379 88.7536H63.9912V78.0007H61.3379C61.0968 78.0007 60.8655 78.0965 60.6949 78.2671C60.5244 78.4376 60.4286 78.6689 60.4286 78.9101V87.8442C60.4286 88.0854 60.5244 88.3167 60.6949 88.4873C60.8655 88.6578 61.0968 88.7536 61.3379 88.7536Z" fill="white" stroke="#B8C0CC" stroke-width="2"/>
<path d="M88.7536 69.9276V65.9622C88.7536 65.5428 88.9202 65.1406 89.2168 64.8441C89.5133 64.5475 89.9155 64.3809 90.3349 64.3809C90.7543 64.3809 91.1565 64.5475 91.453 64.8441C91.7496 65.1406 91.9162 65.5428 91.9162 65.9622L91.8978 69.9276H88.7536Z" fill="#8836DA"/>
<path d="M66.567 69.9276V65.9622C66.567 65.5428 66.7336 65.1406 67.0302 64.8441C67.3267 64.5475 67.7289 64.3809 68.1483 64.3809C68.5677 64.3809 68.9699 64.5475 69.2664 64.8441C69.5629 65.1406 69.7295 65.5428 69.7295 65.9622L69.7112 69.9276H66.567Z" fill="#8836DA"/>
<path d="M64.3905 73.571V96.6609H72.0909V79.7212C72.0909 78.2742 72.6754 76.8898 73.7103 75.8715C74.7447 74.8538 76.1441 74.2847 77.6002 74.2842H77.6005H82.4625C83.4972 74.2842 84.4928 74.6882 85.2297 75.4125C85.679 75.8542 85.9543 76.4865 86.118 77.0177C86.2885 77.5712 86.385 78.171 86.3853 78.6656V78.6662C86.3853 78.8099 86.4432 78.9512 86.5517 79.058C86.6609 79.1653 86.8124 79.2285 86.9737 79.2285H93.4972C93.6586 79.2285 93.8101 79.1653 93.9192 79.058C94.0278 78.9512 94.0857 78.8099 94.0857 78.6662L94.0857 73.571C94.0857 73.5709 94.0857 73.5709 94.0857 73.5708C94.0857 73.5708 94.0857 73.5707 94.0857 73.5706C94.0853 72.665 93.7195 71.7932 93.0632 71.1477C92.4063 70.5016 91.512 70.1356 90.576 70.1352C90.5759 70.1352 90.5758 70.1352 90.5757 70.1352H67.9005C67.9004 70.1352 67.9003 70.1352 67.9003 70.1352C67.9002 70.1352 67.9002 70.1352 67.9001 70.1352C66.9641 70.1356 66.0699 70.5016 65.413 71.1477L64.7118 70.4348L65.413 71.1477C64.7567 71.7932 64.3909 72.665 64.3905 73.5706C64.3905 73.5708 64.3905 73.5709 64.3905 73.571Z" fill="white" stroke="#B8C0CC" stroke-width="2"/>
<path d="M64.3905 102.009H94.0857V94.6595C94.0857 94.1713 93.9379 93.742 93.7263 93.4602C93.5188 93.1839 93.3086 93.1143 93.1744 93.1143H64.3905V102.009Z" fill="white" stroke="#B8C0CC" stroke-width="2"/>
<path d="M61.2081 103H97.2681C97.366 103 97.5425 102.949 97.7259 102.704C97.9133 102.454 98.0476 102.067 98.0476 101.623C98.0476 101.179 97.9133 100.792 97.7259 100.541C97.5425 100.296 97.366 100.246 97.2681 100.246H61.2081C61.1102 100.246 60.9336 100.296 60.7503 100.541C60.5629 100.792 60.4286 101.179 60.4286 101.623C60.4286 102.067 60.5629 102.454 60.7503 102.704C60.9336 102.949 61.1102 103 61.2081 103Z" fill="white" stroke="#8836DA" stroke-width="2"/>
<rect x="-0.792381" y="0.792381" width="1.58476" height="1.58476" rx="0.792381" transform="matrix(-1 0 0 1 68.1448 83.3981)" fill="white" stroke="#8836DA" stroke-width="1.58476"/>
</svg>
