<svg width="105" height="106" viewBox="0 0 105 106" fill="none" xmlns="http://www.w3.org/2000/svg">
<path d="M105 52.5C105 42.1165 101.921 31.9662 96.1522 23.3326C90.3834 14.699 82.184 7.96992 72.5909 3.99631C62.9978 0.0227133 52.4418 -1.01692 42.2578 1.00881C32.0738 3.03453 22.7192 8.03461 15.3769 15.3769C8.03466 22.7191 3.03452 32.0737 1.00879 42.2578C-1.01693 52.4418 0.0227583 62.9977 3.99636 72.5909C7.96996 82.184 14.699 90.3834 23.3326 96.1522C31.9662 101.921 42.1165 105 52.5 105" fill="#F0F4F7"/>
<path d="M72.7636 104.976H28.0962C26.6982 104.972 25.3587 104.415 24.3703 103.426C23.3819 102.438 22.8249 101.098 22.8209 99.7V39.6645C22.8249 38.2665 23.3819 36.9269 24.3703 35.9383C25.3587 34.9497 26.6982 34.3924 28.0962 34.3882H98.1306C99.5287 34.3922 100.868 34.9495 101.857 35.9381C102.846 36.9267 103.403 38.2664 103.407 39.6645V70.2767" fill="white"/>
<path d="M72.7636 104.976H28.0962C26.6982 104.972 25.3587 104.415 24.3703 103.426C23.3819 102.438 22.8249 101.098 22.8209 99.7V39.6645C22.8249 38.2665 23.3819 36.9269 24.3703 35.9383C25.3587 34.9497 26.6982 34.3924 28.0962 34.3882H98.1306C99.5287 34.3922 100.868 34.9495 101.857 35.9381C102.846 36.9267 103.403 38.2664 103.407 39.6645V70.2767" stroke="#B8C0CC" stroke-width="1.88" stroke-miterlimit="10" stroke-linecap="round"/>
<path d="M42.9678 27.7822V41.2854" stroke="#B8C0CC" stroke-width="1.88" stroke-miterlimit="10" stroke-linecap="round"/>
<path d="M83.2617 27.7822V41.2854" stroke="#B8C0CC" stroke-width="1.88" stroke-miterlimit="10" stroke-linecap="round"/>
<path d="M103.41 49.5454H22.8218" stroke="#B8C0CC" stroke-width="1.88" stroke-miterlimit="10" stroke-linecap="round"/>
<path d="M45.3686 67.3053C45.3686 64.8132 43.3484 62.793 40.8563 62.793C38.3642 62.793 36.344 64.8132 36.344 67.3053C36.344 69.7973 38.3642 71.8176 40.8563 71.8176C43.3484 71.8176 45.3686 69.7973 45.3686 67.3053Z" stroke="#B8C0CC" stroke-width="1.88" stroke-miterlimit="10" stroke-linecap="round"/>
<path d="M67.6266 67.3053C67.6266 64.8132 65.6064 62.793 63.1143 62.793C60.6222 62.793 58.602 64.8132 58.602 67.3053C58.602 69.7973 60.6222 71.8176 63.1143 71.8176C65.6064 71.8176 67.6266 69.7973 67.6266 67.3053Z" stroke="#B8C0CC" stroke-width="1.88" stroke-miterlimit="10" stroke-linecap="round"/>
<path d="M89.3964 67.3053C89.3964 64.8132 87.3762 62.793 84.8841 62.793C82.3921 62.793 80.3718 64.8132 80.3718 67.3053C80.3718 69.7973 82.3921 71.8176 84.8841 71.8176C87.3762 71.8176 89.3964 69.7973 89.3964 67.3053Z" stroke="#B8C0CC" stroke-width="1.88" stroke-miterlimit="10" stroke-linecap="round"/>
<path d="M45.3686 85.9845C45.3686 83.4924 43.3484 81.4722 40.8563 81.4722C38.3642 81.4722 36.344 83.4924 36.344 85.9845C36.344 88.4765 38.3642 90.4968 40.8563 90.4968C43.3484 90.4968 45.3686 88.4765 45.3686 85.9845Z" stroke="#B8C0CC" stroke-width="1.88" stroke-miterlimit="10" stroke-linecap="round"/>
<path d="M67.6285 85.9845C67.6285 83.4924 65.6083 81.4722 63.1162 81.4722C60.6242 81.4722 58.6039 83.4924 58.6039 85.9845C58.6039 88.4765 60.6242 90.4968 63.1162 90.4968C65.6083 90.4968 67.6285 88.4765 67.6285 85.9845Z" stroke="#B8C0CC" stroke-width="1.88" stroke-miterlimit="10" stroke-linecap="round"/>
<path d="M83.6721 98.7897C82.3614 98.7222 82.3861 96.8623 83.672 96.7977C87.3147 96.8105 96.9225 96.8012 100.681 96.8038C101.709 96.8038 102.588 96.098 102.82 95.0876L104.954 85.764C105.076 85.2302 104.953 84.6777 104.616 84.2482C104.278 83.8188 103.774 83.569 103.23 83.569C101.718 83.569 88.884 83.5104 82.3102 83.4839L81.2682 79.5832C81.018 78.651 80.1748 78 79.2176 78H75.8794C75.3937 78 75 78.3972 75 78.8872C75 79.3771 75.3937 79.7743 75.8794 79.7743H79.2176C79.3824 79.7743 79.5275 79.8864 79.5703 80.0459L83.5724 95.0258C82.8687 95.0516 82.2133 95.3403 81.7162 95.8491C81.194 96.3838 80.9136 97.0915 80.9265 97.842C80.9524 99.3429 82.1841 100.564 83.6721 100.564H84.9543C84.7637 100.968 84.6568 101.419 84.6568 101.895C84.6568 103.607 86.0375 105 87.7347 105C89.4319 105 90.8126 103.607 90.8126 101.895C90.8126 101.419 90.7056 100.968 90.515 100.564H96.0677C95.8773 100.967 95.7703 101.418 95.7703 101.894C95.7703 103.607 97.1511 105 98.8482 105C100.545 105 101.926 103.606 101.926 101.894C101.926 101.4 101.81 100.932 101.606 100.517C101.954 100.399 102.205 100.068 102.205 99.6769C102.205 99.1869 101.811 98.7897 101.325 98.7897H83.6721ZM89.0538 101.895C89.0538 102.629 88.462 103.226 87.7346 103.226C87.0072 103.226 86.4154 102.629 86.4154 101.895C86.4154 101.161 87.0066 100.565 87.7335 100.564H87.7357C88.4626 100.565 89.0538 101.161 89.0538 101.895ZM98.8483 103.225C98.1209 103.225 97.5291 102.628 97.5291 101.894C97.5291 101.168 98.1094 100.576 98.8269 100.564H98.8697C99.5873 100.576 100.168 101.168 100.168 101.894C100.167 102.628 99.5757 103.225 98.8483 103.225ZM103.237 85.3498C103.242 85.3565 103.241 85.3596 103.24 85.3647L102.341 89.2933H99.2959L99.8145 85.3293L103.223 85.3431C103.229 85.3433 103.232 85.3433 103.237 85.3498ZM94.1709 95.0294V91.0677H97.2898L96.7716 95.0294H94.1709ZM89.8102 95.0294L89.2878 91.0677H92.4121V95.0294H89.8102ZM85.762 95.0294H85.7593C85.5449 95.0294 85.3561 94.8835 85.3003 94.6757L84.3364 91.0677H87.5135L88.036 95.0294H85.762ZM89.0537 89.2934L88.5249 85.2835L92.4121 85.2993V89.2934H89.0537ZM94.1709 89.2934V85.3064L98.0414 85.3221L97.5219 89.2934H94.1709ZM86.7497 85.2762L87.2795 89.2933H83.8624L82.7849 85.26L86.7497 85.2762ZM100.681 95.0294H98.5455L99.0638 91.0677H101.935L101.106 94.6883C101.06 94.8892 100.885 95.0294 100.681 95.0294Z" fill="#8836DA"/>
</svg>
