<svg width="544" height="372" viewBox="0 0 544 372" fill="none" xmlns="http://www.w3.org/2000/svg">
<g filter="url(#filter0_d)">
<rect x="70" y="22" width="415" height="330" rx="12" fill="white"/>
<rect x="70.5" y="22.5" width="414" height="329" rx="11.5" stroke="#8836DA" stroke-opacity="0.16"/>
</g>
<path d="M71 263H485V340C485 346.627 479.627 352 473 352H83C76.3726 352 71 346.627 71 340V263Z" fill="#8836DA" fill-opacity="0.08"/>
<rect x="390" y="283" width="30" height="30" rx="4" fill="#8836DA"/>
<rect x="197" y="283" width="132" height="29.5522" rx="4" fill="#8836DA" fill-opacity="0.08"/>
<path d="M208.932 303C208.661 303 208.447 302.925 208.288 302.776C208.139 302.627 208.064 302.417 208.064 302.146V293.984C208.064 293.713 208.139 293.503 208.288 293.354C208.447 293.205 208.661 293.13 208.932 293.13H211.704C213.319 293.13 214.569 293.564 215.456 294.432C216.352 295.291 216.8 296.499 216.8 298.058C216.8 299.626 216.352 300.844 215.456 301.712C214.569 302.571 213.319 303 211.704 303H208.932ZM211.592 301.53C213.86 301.53 214.994 300.373 214.994 298.058C214.994 295.753 213.86 294.6 211.592 294.6H209.87V301.53H211.592ZM219.333 303.084C219.081 303.084 218.871 303.014 218.703 302.874C218.544 302.725 218.465 302.515 218.465 302.244V296.84C218.465 296.569 218.544 296.364 218.703 296.224C218.871 296.084 219.081 296.014 219.333 296.014C219.585 296.014 219.795 296.084 219.963 296.224C220.131 296.364 220.215 296.569 220.215 296.84V302.244C220.215 302.515 220.131 302.725 219.963 302.874C219.795 303.014 219.585 303.084 219.333 303.084ZM219.333 294.768C219.015 294.768 218.763 294.684 218.577 294.516C218.39 294.339 218.297 294.11 218.297 293.83C218.297 293.55 218.39 293.326 218.577 293.158C218.763 292.99 219.015 292.906 219.333 292.906C219.641 292.906 219.888 292.99 220.075 293.158C220.271 293.326 220.369 293.55 220.369 293.83C220.369 294.11 220.275 294.339 220.089 294.516C219.902 294.684 219.65 294.768 219.333 294.768ZM224.497 303.112C223.48 303.112 222.659 302.911 222.033 302.51C221.735 302.333 221.585 302.081 221.585 301.754C221.585 301.567 221.637 301.418 221.739 301.306C221.842 301.185 221.968 301.124 222.117 301.124C222.276 301.124 222.495 301.199 222.775 301.348C223.074 301.488 223.345 301.595 223.587 301.67C223.839 301.745 224.157 301.782 224.539 301.782C224.931 301.782 225.235 301.717 225.449 301.586C225.673 301.455 225.785 301.273 225.785 301.04C225.785 300.881 225.739 300.755 225.645 300.662C225.561 300.569 225.403 300.485 225.169 300.41C224.945 300.326 224.6 300.233 224.133 300.13C223.303 299.962 222.705 299.724 222.341 299.416C221.987 299.108 221.809 298.683 221.809 298.142C221.809 297.731 221.931 297.363 222.173 297.036C222.416 296.7 222.747 296.443 223.167 296.266C223.597 296.079 224.082 295.986 224.623 295.986C225.015 295.986 225.393 296.037 225.757 296.14C226.121 296.233 226.448 296.373 226.737 296.56C227.036 296.747 227.185 296.994 227.185 297.302C227.185 297.489 227.134 297.647 227.031 297.778C226.929 297.899 226.803 297.96 226.653 297.96C226.551 297.96 226.448 297.941 226.345 297.904C226.252 297.857 226.131 297.792 225.981 297.708C225.711 297.568 225.477 297.465 225.281 297.4C225.085 297.325 224.843 297.288 224.553 297.288C224.208 297.288 223.933 297.358 223.727 297.498C223.531 297.638 223.433 297.829 223.433 298.072C223.433 298.305 223.536 298.483 223.741 298.604C223.947 298.725 224.343 298.847 224.931 298.968C225.557 299.099 226.047 299.248 226.401 299.416C226.756 299.584 227.008 299.794 227.157 300.046C227.316 300.298 227.395 300.62 227.395 301.012C227.395 301.647 227.129 302.155 226.597 302.538C226.075 302.921 225.375 303.112 224.497 303.112ZM231.852 303.112C231.171 303.112 230.569 302.967 230.046 302.678C229.533 302.389 229.136 301.978 228.856 301.446C228.576 300.914 228.436 300.293 228.436 299.584C228.436 298.875 228.581 298.249 228.87 297.708C229.169 297.157 229.584 296.733 230.116 296.434C230.648 296.135 231.26 295.986 231.95 295.986C232.314 295.986 232.678 296.037 233.042 296.14C233.416 296.243 233.742 296.383 234.022 296.56C234.321 296.756 234.47 297.003 234.47 297.302C234.47 297.507 234.419 297.675 234.316 297.806C234.223 297.927 234.097 297.988 233.938 297.988C233.836 297.988 233.728 297.965 233.616 297.918C233.504 297.871 233.392 297.815 233.28 297.75C233.075 297.629 232.879 297.535 232.692 297.47C232.506 297.395 232.291 297.358 232.048 297.358C231.47 297.358 231.022 297.549 230.704 297.932C230.396 298.305 230.242 298.847 230.242 299.556C230.242 300.256 230.396 300.797 230.704 301.18C231.022 301.553 231.47 301.74 232.048 301.74C232.282 301.74 232.487 301.707 232.664 301.642C232.851 301.567 233.056 301.469 233.28 301.348C233.42 301.264 233.542 301.203 233.644 301.166C233.747 301.119 233.85 301.096 233.952 301.096C234.102 301.096 234.228 301.161 234.33 301.292C234.433 301.423 234.484 301.586 234.484 301.782C234.484 301.941 234.447 302.081 234.372 302.202C234.307 302.314 234.195 302.417 234.036 302.51C233.747 302.697 233.411 302.846 233.028 302.958C232.646 303.061 232.254 303.112 231.852 303.112ZM238.772 303.112C238.072 303.112 237.456 302.967 236.924 302.678C236.402 302.389 235.996 301.973 235.706 301.432C235.417 300.891 235.272 300.261 235.272 299.542C235.272 298.823 235.417 298.198 235.706 297.666C235.996 297.125 236.402 296.709 236.924 296.42C237.456 296.131 238.072 295.986 238.772 295.986C239.472 295.986 240.084 296.131 240.606 296.42C241.138 296.709 241.544 297.125 241.824 297.666C242.114 298.198 242.258 298.823 242.258 299.542C242.258 300.261 242.114 300.891 241.824 301.432C241.544 301.973 241.138 302.389 240.606 302.678C240.084 302.967 239.472 303.112 238.772 303.112ZM238.758 301.754C239.328 301.754 239.762 301.567 240.06 301.194C240.359 300.821 240.508 300.27 240.508 299.542C240.508 298.823 240.359 298.277 240.06 297.904C239.762 297.521 239.332 297.33 238.772 297.33C238.212 297.33 237.778 297.521 237.47 297.904C237.172 298.277 237.022 298.823 237.022 299.542C237.022 300.27 237.172 300.821 237.47 301.194C237.769 301.567 238.198 301.754 238.758 301.754ZM249.107 296.014C249.378 296.014 249.592 296.089 249.751 296.238C249.91 296.387 249.989 296.588 249.989 296.84V302.272C249.989 302.515 249.905 302.711 249.737 302.86C249.578 303.009 249.368 303.084 249.107 303.084C248.855 303.084 248.654 303.014 248.505 302.874C248.356 302.734 248.281 302.543 248.281 302.3V301.95C248.066 302.323 247.777 302.613 247.413 302.818C247.049 303.014 246.638 303.112 246.181 303.112C244.501 303.112 243.661 302.169 243.661 300.284V296.84C243.661 296.588 243.74 296.387 243.899 296.238C244.058 296.089 244.268 296.014 244.529 296.014C244.8 296.014 245.014 296.089 245.173 296.238C245.332 296.387 245.411 296.588 245.411 296.84V300.298C245.411 300.783 245.509 301.143 245.705 301.376C245.901 301.609 246.209 301.726 246.629 301.726C247.114 301.726 247.502 301.567 247.791 301.25C248.09 300.923 248.239 300.494 248.239 299.962V296.84C248.239 296.588 248.318 296.387 248.477 296.238C248.636 296.089 248.846 296.014 249.107 296.014ZM255.786 295.986C256.608 295.986 257.219 296.219 257.62 296.686C258.022 297.153 258.222 297.857 258.222 298.8V302.244C258.222 302.505 258.143 302.711 257.984 302.86C257.835 303.009 257.625 303.084 257.354 303.084C257.084 303.084 256.869 303.009 256.71 302.86C256.552 302.711 256.472 302.505 256.472 302.244V298.898C256.472 298.366 256.37 297.979 256.164 297.736C255.968 297.493 255.656 297.372 255.226 297.372C254.722 297.372 254.316 297.531 254.008 297.848C253.71 298.165 253.56 298.59 253.56 299.122V302.244C253.56 302.505 253.481 302.711 253.322 302.86C253.164 303.009 252.949 303.084 252.678 303.084C252.408 303.084 252.193 303.009 252.034 302.86C251.885 302.711 251.81 302.505 251.81 302.244V296.826C251.81 296.583 251.89 296.387 252.048 296.238C252.207 296.089 252.422 296.014 252.692 296.014C252.935 296.014 253.131 296.089 253.28 296.238C253.439 296.378 253.518 296.565 253.518 296.798V297.176C253.752 296.793 254.064 296.499 254.456 296.294C254.848 296.089 255.292 295.986 255.786 295.986ZM263.556 301.782C264.023 301.81 264.256 302.02 264.256 302.412C264.256 302.636 264.163 302.809 263.976 302.93C263.799 303.042 263.542 303.089 263.206 303.07L262.828 303.042C261.26 302.93 260.476 302.09 260.476 300.522V297.47H259.776C259.524 297.47 259.328 297.414 259.188 297.302C259.057 297.19 258.992 297.027 258.992 296.812C258.992 296.597 259.057 296.434 259.188 296.322C259.328 296.21 259.524 296.154 259.776 296.154H260.476V294.866C260.476 294.614 260.555 294.413 260.714 294.264C260.873 294.115 261.087 294.04 261.358 294.04C261.619 294.04 261.829 294.115 261.988 294.264C262.147 294.413 262.226 294.614 262.226 294.866V296.154H263.416C263.668 296.154 263.859 296.21 263.99 296.322C264.13 296.434 264.2 296.597 264.2 296.812C264.2 297.027 264.13 297.19 263.99 297.302C263.859 297.414 263.668 297.47 263.416 297.47H262.226V300.648C262.226 301.339 262.543 301.707 263.178 301.754L263.556 301.782ZM273.533 303.126C272.581 303.126 271.745 302.921 271.027 302.51C270.317 302.099 269.771 301.511 269.389 300.746C269.006 299.981 268.815 299.085 268.815 298.058C268.815 297.031 269.006 296.14 269.389 295.384C269.771 294.619 270.317 294.031 271.027 293.62C271.745 293.209 272.581 293.004 273.533 293.004C274.149 293.004 274.727 293.097 275.269 293.284C275.81 293.461 276.291 293.723 276.711 294.068C276.832 294.161 276.916 294.259 276.963 294.362C277.009 294.465 277.033 294.591 277.033 294.74C277.033 294.945 276.977 295.118 276.865 295.258C276.753 295.398 276.617 295.468 276.459 295.468C276.272 295.468 276.081 295.403 275.885 295.272C275.483 294.973 275.11 294.768 274.765 294.656C274.419 294.535 274.037 294.474 273.617 294.474C272.646 294.474 271.909 294.777 271.405 295.384C270.91 295.991 270.663 296.882 270.663 298.058C270.663 299.243 270.91 300.139 271.405 300.746C271.909 301.353 272.646 301.656 273.617 301.656C274.018 301.656 274.387 301.595 274.723 301.474C275.068 301.353 275.455 301.147 275.885 300.858C275.978 300.802 276.071 300.755 276.165 300.718C276.258 300.681 276.356 300.662 276.459 300.662C276.617 300.662 276.753 300.732 276.865 300.872C276.977 301.012 277.033 301.185 277.033 301.39C277.033 301.53 277.009 301.656 276.963 301.768C276.916 301.871 276.832 301.969 276.711 302.062C276.291 302.407 275.81 302.673 275.269 302.86C274.727 303.037 274.149 303.126 273.533 303.126ZM281.442 303.112C280.742 303.112 280.126 302.967 279.594 302.678C279.071 302.389 278.665 301.973 278.376 301.432C278.087 300.891 277.942 300.261 277.942 299.542C277.942 298.823 278.087 298.198 278.376 297.666C278.665 297.125 279.071 296.709 279.594 296.42C280.126 296.131 280.742 295.986 281.442 295.986C282.142 295.986 282.753 296.131 283.276 296.42C283.808 296.709 284.214 297.125 284.494 297.666C284.783 298.198 284.928 298.823 284.928 299.542C284.928 300.261 284.783 300.891 284.494 301.432C284.214 301.973 283.808 302.389 283.276 302.678C282.753 302.967 282.142 303.112 281.442 303.112ZM281.428 301.754C281.997 301.754 282.431 301.567 282.73 301.194C283.029 300.821 283.178 300.27 283.178 299.542C283.178 298.823 283.029 298.277 282.73 297.904C282.431 297.521 282.002 297.33 281.442 297.33C280.882 297.33 280.448 297.521 280.14 297.904C279.841 298.277 279.692 298.823 279.692 299.542C279.692 300.27 279.841 300.821 280.14 301.194C280.439 301.567 280.868 301.754 281.428 301.754ZM291.777 296.014C292.048 296.014 292.262 296.089 292.421 296.238C292.58 296.387 292.659 296.588 292.659 296.84V302.272C292.659 302.515 292.575 302.711 292.407 302.86C292.248 303.009 292.038 303.084 291.777 303.084C291.525 303.084 291.324 303.014 291.175 302.874C291.026 302.734 290.951 302.543 290.951 302.3V301.95C290.736 302.323 290.447 302.613 290.083 302.818C289.719 303.014 289.308 303.112 288.851 303.112C287.171 303.112 286.331 302.169 286.331 300.284V296.84C286.331 296.588 286.41 296.387 286.569 296.238C286.728 296.089 286.938 296.014 287.199 296.014C287.47 296.014 287.684 296.089 287.843 296.238C288.002 296.387 288.081 296.588 288.081 296.84V300.298C288.081 300.783 288.179 301.143 288.375 301.376C288.571 301.609 288.879 301.726 289.299 301.726C289.784 301.726 290.172 301.567 290.461 301.25C290.76 300.923 290.909 300.494 290.909 299.962V296.84C290.909 296.588 290.988 296.387 291.147 296.238C291.306 296.089 291.516 296.014 291.777 296.014ZM298.414 295.986C299.002 295.986 299.525 296.135 299.982 296.434C300.449 296.733 300.808 297.157 301.06 297.708C301.322 298.249 301.452 298.875 301.452 299.584C301.452 300.293 301.322 300.914 301.06 301.446C300.808 301.978 300.454 302.389 299.996 302.678C299.539 302.967 299.012 303.112 298.414 303.112C297.929 303.112 297.495 303.009 297.112 302.804C296.73 302.599 296.436 302.314 296.23 301.95V304.806C296.23 305.049 296.151 305.24 295.992 305.38C295.834 305.52 295.624 305.59 295.362 305.59C295.101 305.59 294.886 305.515 294.718 305.366C294.56 305.217 294.48 305.021 294.48 304.778V296.84C294.48 296.588 294.555 296.387 294.704 296.238C294.863 296.089 295.073 296.014 295.334 296.014C295.596 296.014 295.806 296.089 295.964 296.238C296.123 296.387 296.202 296.588 296.202 296.84V297.19C296.408 296.807 296.702 296.513 297.084 296.308C297.476 296.093 297.92 295.986 298.414 295.986ZM297.952 301.754C298.503 301.754 298.932 301.567 299.24 301.194C299.548 300.811 299.702 300.275 299.702 299.584C299.702 298.875 299.548 298.324 299.24 297.932C298.932 297.54 298.503 297.344 297.952 297.344C297.392 297.344 296.958 297.535 296.65 297.918C296.352 298.301 296.202 298.847 296.202 299.556C296.202 300.256 296.352 300.797 296.65 301.18C296.958 301.563 297.392 301.754 297.952 301.754ZM306.011 303.112C305.311 303.112 304.695 302.967 304.163 302.678C303.64 302.389 303.234 301.973 302.945 301.432C302.655 300.891 302.511 300.261 302.511 299.542C302.511 298.823 302.655 298.198 302.945 297.666C303.234 297.125 303.64 296.709 304.163 296.42C304.695 296.131 305.311 295.986 306.011 295.986C306.711 295.986 307.322 296.131 307.845 296.42C308.377 296.709 308.783 297.125 309.063 297.666C309.352 298.198 309.497 298.823 309.497 299.542C309.497 300.261 309.352 300.891 309.063 301.432C308.783 301.973 308.377 302.389 307.845 302.678C307.322 302.967 306.711 303.112 306.011 303.112ZM305.997 301.754C306.566 301.754 307 301.567 307.299 301.194C307.597 300.821 307.747 300.27 307.747 299.542C307.747 298.823 307.597 298.277 307.299 297.904C307 297.521 306.571 297.33 306.011 297.33C305.451 297.33 305.017 297.521 304.709 297.904C304.41 298.277 304.261 298.823 304.261 299.542C304.261 300.27 304.41 300.821 304.709 301.194C305.007 301.567 305.437 301.754 305.997 301.754ZM314.917 295.986C315.739 295.986 316.35 296.219 316.751 296.686C317.153 297.153 317.353 297.857 317.353 298.8V302.244C317.353 302.505 317.274 302.711 317.115 302.86C316.966 303.009 316.756 303.084 316.485 303.084C316.215 303.084 316 303.009 315.841 302.86C315.683 302.711 315.603 302.505 315.603 302.244V298.898C315.603 298.366 315.501 297.979 315.295 297.736C315.099 297.493 314.787 297.372 314.357 297.372C313.853 297.372 313.447 297.531 313.139 297.848C312.841 298.165 312.691 298.59 312.691 299.122V302.244C312.691 302.505 312.612 302.711 312.453 302.86C312.295 303.009 312.08 303.084 311.809 303.084C311.539 303.084 311.324 303.009 311.165 302.86C311.016 302.711 310.941 302.505 310.941 302.244V296.826C310.941 296.583 311.021 296.387 311.179 296.238C311.338 296.089 311.553 296.014 311.823 296.014C312.066 296.014 312.262 296.089 312.411 296.238C312.57 296.378 312.649 296.565 312.649 296.798V297.176C312.883 296.793 313.195 296.499 313.587 296.294C313.979 296.089 314.423 295.986 314.917 295.986Z" fill="#8836DA"/>
<path d="M402.455 301.493L399.736 298.432C399.405 298.059 398.822 298.059 398.491 298.432C398.211 298.748 398.211 299.223 398.491 299.538L402.455 304L411.509 293.807C411.789 293.491 411.789 293.016 411.509 292.701C411.178 292.328 410.595 292.328 410.264 292.701L402.455 301.493Z" fill="white" stroke="white" stroke-linejoin="round"/>
<rect x="153" y="127" width="163" height="8" rx="4" fill="#F2F4F5"/>
<path d="M409.188 121.418C409.188 122.378 408.852 123.188 408.18 123.848C407.52 124.508 406.626 124.922 405.498 125.09V126.224C405.498 126.5 405.414 126.722 405.246 126.89C405.078 127.07 404.856 127.16 404.58 127.16C404.304 127.16 404.082 127.07 403.914 126.89C403.746 126.722 403.662 126.5 403.662 126.224V125.126C402.978 125.066 402.312 124.922 401.664 124.694C401.016 124.466 400.458 124.166 399.99 123.794C399.834 123.686 399.726 123.566 399.666 123.434C399.606 123.302 399.576 123.14 399.576 122.948C399.576 122.696 399.648 122.474 399.792 122.282C399.948 122.09 400.122 121.994 400.314 121.994C400.434 121.994 400.542 122.018 400.638 122.066C400.746 122.102 400.884 122.168 401.052 122.264C401.604 122.624 402.144 122.888 402.672 123.056C403.212 123.224 403.776 123.308 404.364 123.308C405.168 123.308 405.786 123.152 406.218 122.84C406.662 122.528 406.884 122.078 406.884 121.49C406.884 121.142 406.764 120.86 406.524 120.644C406.284 120.428 405.984 120.26 405.624 120.14C405.264 120.008 404.76 119.858 404.112 119.69C403.212 119.462 402.48 119.234 401.916 119.006C401.352 118.766 400.866 118.406 400.458 117.926C400.05 117.446 399.846 116.798 399.846 115.982C399.846 115.01 400.194 114.182 400.89 113.498C401.586 112.814 402.498 112.388 403.626 112.22V111.086C403.626 110.81 403.71 110.588 403.878 110.42C404.046 110.24 404.268 110.15 404.544 110.15C404.82 110.15 405.042 110.24 405.21 110.42C405.378 110.588 405.462 110.81 405.462 111.086V112.202C406.674 112.358 407.718 112.796 408.594 113.516C408.882 113.732 409.026 114.014 409.026 114.362C409.026 114.614 408.948 114.836 408.792 115.028C408.648 115.22 408.474 115.316 408.27 115.316C408.162 115.316 408.054 115.298 407.946 115.262C407.85 115.226 407.718 115.154 407.55 115.046C407.058 114.698 406.59 114.44 406.146 114.272C405.714 114.092 405.198 114.002 404.598 114.002C403.854 114.002 403.26 114.17 402.816 114.506C402.372 114.83 402.15 115.28 402.15 115.856C402.15 116.252 402.276 116.576 402.528 116.828C402.78 117.068 403.098 117.254 403.482 117.386C403.866 117.518 404.388 117.668 405.048 117.836C405.924 118.052 406.638 118.274 407.19 118.502C407.742 118.73 408.21 119.078 408.594 119.546C408.99 120.002 409.188 120.626 409.188 121.418Z" fill="#8836DA"/>
<path d="M153 112C153 109.791 154.791 108 157 108L245 108C247.209 108 249 109.791 249 112C249 114.209 247.209 116 245 116L157 116C154.791 116 153 114.209 153 112Z" fill="#8836DA" fill-opacity="0.4"/>
<rect x="103" y="105" width="30" height="30" rx="4" fill="#8836DA" fill-opacity="0.4"/>
<rect x="153" y="177" width="163" height="8" rx="4" fill="#F2F4F5"/>
<path d="M409.188 172.418C409.188 173.378 408.852 174.188 408.18 174.848C407.52 175.508 406.626 175.922 405.498 176.09V177.224C405.498 177.5 405.414 177.722 405.246 177.89C405.078 178.07 404.856 178.16 404.58 178.16C404.304 178.16 404.082 178.07 403.914 177.89C403.746 177.722 403.662 177.5 403.662 177.224V176.126C402.978 176.066 402.312 175.922 401.664 175.694C401.016 175.466 400.458 175.166 399.99 174.794C399.834 174.686 399.726 174.566 399.666 174.434C399.606 174.302 399.576 174.14 399.576 173.948C399.576 173.696 399.648 173.474 399.792 173.282C399.948 173.09 400.122 172.994 400.314 172.994C400.434 172.994 400.542 173.018 400.638 173.066C400.746 173.102 400.884 173.168 401.052 173.264C401.604 173.624 402.144 173.888 402.672 174.056C403.212 174.224 403.776 174.308 404.364 174.308C405.168 174.308 405.786 174.152 406.218 173.84C406.662 173.528 406.884 173.078 406.884 172.49C406.884 172.142 406.764 171.86 406.524 171.644C406.284 171.428 405.984 171.26 405.624 171.14C405.264 171.008 404.76 170.858 404.112 170.69C403.212 170.462 402.48 170.234 401.916 170.006C401.352 169.766 400.866 169.406 400.458 168.926C400.05 168.446 399.846 167.798 399.846 166.982C399.846 166.01 400.194 165.182 400.89 164.498C401.586 163.814 402.498 163.388 403.626 163.22V162.086C403.626 161.81 403.71 161.588 403.878 161.42C404.046 161.24 404.268 161.15 404.544 161.15C404.82 161.15 405.042 161.24 405.21 161.42C405.378 161.588 405.462 161.81 405.462 162.086V163.202C406.674 163.358 407.718 163.796 408.594 164.516C408.882 164.732 409.026 165.014 409.026 165.362C409.026 165.614 408.948 165.836 408.792 166.028C408.648 166.22 408.474 166.316 408.27 166.316C408.162 166.316 408.054 166.298 407.946 166.262C407.85 166.226 407.718 166.154 407.55 166.046C407.058 165.698 406.59 165.44 406.146 165.272C405.714 165.092 405.198 165.002 404.598 165.002C403.854 165.002 403.26 165.17 402.816 165.506C402.372 165.83 402.15 166.28 402.15 166.856C402.15 167.252 402.276 167.576 402.528 167.828C402.78 168.068 403.098 168.254 403.482 168.386C403.866 168.518 404.388 168.668 405.048 168.836C405.924 169.052 406.638 169.274 407.19 169.502C407.742 169.73 408.21 170.078 408.594 170.546C408.99 171.002 409.188 171.626 409.188 172.418Z" fill="#8836DA"/>
<path d="M153 162C153 159.791 154.791 158 157 158L245 158C247.209 158 249 159.791 249 162C249 164.209 247.209 166 245 166H157C154.791 166 153 164.209 153 162Z" fill="#8836DA" fill-opacity="0.4"/>
<rect x="103" y="155" width="30" height="30" rx="4" fill="#8836DA" fill-opacity="0.4"/>
<rect x="70" y="22" width="415" height="53" rx="12" fill="#8836DA"/>
<path d="M431.99 60.7037C438.733 60.7037 444.199 55.2316 444.199 48.4815C444.199 41.7314 438.733 36.2593 431.99 36.2593C425.247 36.2593 419.781 41.7314 419.781 48.4815C419.781 55.2316 425.247 60.7037 431.99 60.7037Z" fill="#F2F4F5" fill-opacity="0.5"/>
<path d="M431.99 38.2964C426.374 38.2964 421.815 42.8593 421.815 48.4816C421.815 54.1038 426.374 58.6668 431.99 58.6668C437.606 58.6668 442.164 54.1038 442.164 48.4816C442.164 42.8593 437.606 38.2964 431.99 38.2964ZM431.99 41.3519C433.679 41.3519 435.042 42.7168 435.042 44.4075C435.042 46.0982 433.679 47.4631 431.99 47.4631C430.301 47.4631 428.937 46.0982 428.937 44.4075C428.937 42.7168 430.301 41.3519 431.99 41.3519ZM431.99 55.8149C429.446 55.8149 427.198 54.5112 425.885 52.5353C425.916 50.5084 429.955 49.3982 431.99 49.3982C434.014 49.3982 438.064 50.5084 438.094 52.5353C436.782 54.5112 434.533 55.8149 431.99 55.8149Z" fill="#8836DA"/>
<rect x="358.735" y="43.3892" width="40.6972" height="10.1852" rx="5.09259" fill="#F2F4F5" fill-opacity="0.5"/>
<rect x="295.654" y="43.3892" width="40.6972" height="10.1852" rx="5.09259" fill="#F2F4F5" fill-opacity="0.5"/>
<rect x="232.573" y="43.3892" width="40.6972" height="10.1852" rx="5.09259" fill="#F2F4F5" fill-opacity="0.5"/>
<rect x="110.482" y="38.2964" width="61.0458" height="20.3704" rx="8" fill="#F2F4F5" fill-opacity="0.5"/>
<path d="M153 6C153 2.68629 155.686 0 159 0L310 0C313.314 0 316 2.68629 316 6V33C316 36.3137 313.314 39 310 39L214.442 39C212.876 39 211.373 39.612 210.252 40.7053L203.147 47.6374C202.37 48.3953 201.13 48.3953 200.353 47.6374L193.248 40.7053C192.127 39.612 190.624 39 189.058 39L159 39C155.686 39 153 36.3137 153 33V6Z" fill="white"/>
<path d="M153.5 6C153.5 2.96243 155.962 0.5 159 0.5L310 0.5C313.038 0.5 315.5 2.96243 315.5 6V33C315.5 36.0376 313.038 38.5 310 38.5L214.442 38.5C212.746 38.5 211.117 39.163 209.903 40.3474L202.797 47.2795C202.215 47.848 201.285 47.848 200.703 47.2795L193.597 40.3474C192.383 39.163 190.754 38.5 189.058 38.5L159 38.5C155.962 38.5 153.5 36.0376 153.5 33V6Z" stroke="#8836DA" stroke-opacity="0.16"/>
<path d="M174.654 10.5605C174.804 10.1001 175.455 10.1001 175.605 10.5605L177.355 15.94C177.422 16.146 177.614 16.2853 177.831 16.2853L183.493 16.2853C183.978 16.2853 184.179 16.9055 183.787 17.19L179.207 20.5131C179.031 20.6404 178.958 20.8663 179.025 21.0725L180.775 26.4502C180.925 26.9107 180.398 27.294 180.006 27.0096L175.423 23.6846C175.248 23.5575 175.011 23.5576 174.836 23.6846L170.253 27.0096C169.861 27.294 169.334 26.9107 169.484 26.4502L171.234 21.0725C171.301 20.8663 171.228 20.6404 171.052 20.5131L166.472 17.19C166.08 16.9055 166.281 16.2853 166.766 16.2853L172.428 16.2853C172.645 16.2853 172.837 16.146 172.904 15.94L174.654 10.5605Z" fill="#FFD600"/>
<path d="M204.707 10.5605C204.857 10.1001 205.508 10.1001 205.658 10.5605L207.408 15.94C207.475 16.146 207.667 16.2853 207.884 16.2853L213.546 16.2853C214.031 16.2853 214.232 16.9055 213.84 17.19L209.26 20.5131C209.085 20.6404 209.011 20.8663 209.078 21.0725L210.828 26.4502C210.978 26.9107 210.451 27.294 210.059 27.0096L205.476 23.6846C205.301 23.5575 205.064 23.5576 204.889 23.6846L200.307 27.0096C199.915 27.294 199.388 26.9107 199.537 26.4502L201.287 21.0725C201.354 20.8663 201.281 20.6404 201.105 20.5131L196.525 17.19C196.133 16.9055 196.334 16.2853 196.819 16.2853L202.481 16.2853C202.698 16.2853 202.89 16.146 202.957 15.94L204.707 10.5605Z" fill="#FFD600"/>
<path d="M234.251 10.5605C234.401 10.1001 235.052 10.1001 235.202 10.5605L236.952 15.94C237.019 16.146 237.211 16.2853 237.428 16.2853L243.09 16.2853C243.575 16.2853 243.776 16.9055 243.384 17.19L238.804 20.5131C238.628 20.6404 238.555 20.8663 238.622 21.0725L240.372 26.4502C240.521 26.9107 239.994 27.294 239.603 27.0096L235.02 23.6846C234.845 23.5575 234.608 23.5576 234.433 23.6846L229.85 27.0096C229.458 27.294 228.931 26.9107 229.081 26.4502L230.831 21.0725C230.898 20.8663 230.824 20.6404 230.649 20.5131L226.069 17.19C225.677 16.9055 225.878 16.2853 226.363 16.2853L232.025 16.2853C232.242 16.2853 232.434 16.146 232.501 15.94L234.251 10.5605Z" fill="#FFD600"/>
<path d="M263.795 10.5605C263.944 10.1001 264.596 10.1001 264.746 10.5605L266.496 15.94C266.563 16.146 266.755 16.2853 266.971 16.2853L272.634 16.2853C273.118 16.2853 273.32 16.9055 272.927 17.19L268.348 20.5131C268.172 20.6404 268.099 20.8663 268.166 21.0725L269.915 26.4502C270.065 26.9107 269.538 27.294 269.146 27.0096L264.564 23.6846C264.389 23.5575 264.152 23.5576 263.976 23.6846L259.394 27.0096C259.002 27.294 258.475 26.9107 258.625 26.4502L260.375 21.0725C260.442 20.8663 260.368 20.6404 260.193 20.5131L255.613 17.19C255.221 16.9055 255.422 16.2853 255.906 16.2853L261.569 16.2853C261.785 16.2853 261.977 16.146 262.044 15.94L263.795 10.5605Z" fill="#FFD600"/>
<path d="M293.338 10.5605C293.488 10.1001 294.14 10.1001 294.289 10.5605L296.04 15.94C296.107 16.146 296.299 16.2853 296.515 16.2853L302.178 16.2853C302.662 16.2853 302.863 16.9055 302.471 17.19L297.891 20.5131C297.716 20.6404 297.642 20.8663 297.709 21.0725L299.459 26.4502C299.609 26.9107 299.082 27.294 298.69 27.0096L294.108 23.6846C293.932 23.5575 293.695 23.5576 293.52 23.6846L288.938 27.0096C288.546 27.294 288.019 26.9107 288.169 26.4502L289.918 21.0725C289.985 20.8663 289.912 20.6404 289.736 20.5131L285.157 17.19C284.764 16.9055 284.966 16.2853 285.45 16.2853L291.113 16.2853C291.329 16.2853 291.521 16.146 291.588 15.94L293.338 10.5605Z" fill="#FFD600"/>
<g filter="url(#filter1_d)">
<rect x="24" y="229.778" width="153" height="100" rx="14" fill="white"/>
<rect x="24.5" y="230.278" width="152" height="99" rx="13.5" stroke="#8836DA" stroke-opacity="0.16"/>
</g>
<path d="M58.7728 229.778V329.778" stroke="#8836DA" stroke-width="2" stroke-linecap="round"/>
<path d="M177 263.111H24" stroke="#8836DA" stroke-width="2" stroke-linecap="round"/>
<rect opacity="0.12" x="99.1091" y="292.278" width="61.2" height="20.8333" rx="4" fill="#8836DA"/>
<path d="M79.6364 263.111C79.6364 267.714 75.9 271.444 71.2909 271.444C66.6819 271.444 58.7728 267.714 58.7728 263.111C58.7728 258.509 66.6819 254.778 71.2909 254.778C75.9 254.778 79.6364 258.509 79.6364 263.111Z" fill="white" stroke="#8836DA" stroke-width="2"/>
<path d="M37.9091 263.111C37.9091 258.509 41.6455 254.778 46.2546 254.778C50.8637 254.778 58.7728 258.509 58.7728 263.111C58.7728 267.713 50.8637 271.444 46.2546 271.444C41.6455 271.444 37.9091 267.713 37.9091 263.111Z" fill="white" stroke="#8836DA" stroke-width="2"/>
<path d="M58.7728 265.889C58.7728 265.889 69.9 274.917 69.9 288.806" stroke="#8836DA" stroke-width="2" stroke-linecap="round"/>
<path d="M58.7728 265.889C58.7728 265.889 47.6455 274.917 47.6455 288.806" stroke="#8836DA" stroke-width="2" stroke-linecap="round"/>
<mask id="path-39-inside-1" fill="white">
<path fill-rule="evenodd" clip-rule="evenodd" d="M515.568 143.579C518.542 144.053 521.143 145.844 522.648 148.454L539.004 176.814C541.763 181.598 540.124 187.717 535.342 190.481L517.413 200.843C512.631 203.607 506.518 201.969 503.759 197.184L487.403 168.825C485.898 166.215 485.649 163.064 486.726 160.249L491.491 147.787C493.182 143.367 497.735 140.735 502.404 141.48L515.568 143.579ZM501.855 153.153C500.395 153.996 499.928 155.922 500.811 157.453C501.694 158.985 503.594 159.542 505.054 158.698C506.514 157.855 506.981 155.929 506.098 154.398C505.215 152.866 503.315 152.309 501.855 153.153Z"/>
</mask>
<path fill-rule="evenodd" clip-rule="evenodd" d="M515.568 143.579C518.542 144.053 521.143 145.844 522.648 148.454L539.004 176.814C541.763 181.598 540.124 187.717 535.342 190.481L517.413 200.843C512.631 203.607 506.518 201.969 503.759 197.184L487.403 168.825C485.898 166.215 485.649 163.064 486.726 160.249L491.491 147.787C493.182 143.367 497.735 140.735 502.404 141.48L515.568 143.579ZM501.855 153.153C500.395 153.996 499.928 155.922 500.811 157.453C501.694 158.985 503.594 159.542 505.054 158.698C506.514 157.855 506.981 155.929 506.098 154.398C505.215 152.866 503.315 152.309 501.855 153.153Z" fill="white"/>
<path d="M522.648 148.454L524.38 147.454L522.648 148.454ZM515.568 143.579L515.883 141.603L515.883 141.603L515.568 143.579ZM539.004 176.814L537.272 177.815L539.004 176.814ZM535.342 190.481L536.341 192.213L535.342 190.481ZM517.413 200.843L516.414 199.11L517.413 200.843ZM486.726 160.249L488.593 160.963L486.726 160.249ZM491.491 147.787L489.624 147.073L489.624 147.073L491.491 147.787ZM502.404 141.48L502.72 139.504L502.72 139.504L502.404 141.48ZM520.916 149.455C519.712 147.367 517.631 145.934 515.252 145.555L515.883 141.603C519.452 142.172 522.573 144.322 524.38 147.454L520.916 149.455ZM537.272 177.815L520.916 149.455L524.38 147.454L540.736 175.813L537.272 177.815ZM534.343 188.748C538.168 186.537 539.48 181.642 537.272 177.815L540.736 175.813C544.047 181.554 542.079 188.897 536.341 192.213L534.343 188.748ZM516.414 199.11L534.343 188.748L536.341 192.213L518.412 202.575L516.414 199.11ZM505.491 196.184C507.698 200.011 512.589 201.321 516.414 199.11L518.412 202.575C512.674 205.892 505.339 203.926 502.028 198.185L505.491 196.184ZM489.135 167.824L505.491 196.184L502.028 198.185L485.672 169.826L489.135 167.824ZM488.593 160.963C487.732 163.216 487.931 165.736 489.135 167.824L485.672 169.826C483.865 166.694 483.567 162.913 484.859 159.534L488.593 160.963ZM493.358 148.501L488.593 160.963L484.859 159.534L489.624 147.073L493.358 148.501ZM502.089 143.455C498.353 142.86 494.711 144.965 493.358 148.501L489.624 147.073C491.653 141.768 497.117 138.61 502.72 139.504L502.089 143.455ZM515.252 145.555L502.089 143.455L502.72 139.504L515.883 141.603L515.252 145.555ZM499.08 158.454C497.69 156.044 498.364 152.861 500.856 151.42L502.854 154.885C502.427 155.132 502.166 155.8 502.543 156.452L499.08 158.454ZM506.053 160.431C503.56 161.871 500.47 160.864 499.08 158.454L502.543 156.452C502.919 157.105 503.627 157.213 504.054 156.966L506.053 160.431ZM507.829 153.397C509.219 155.807 508.545 158.99 506.053 160.431L504.054 156.966C504.482 156.719 504.743 156.051 504.366 155.398L507.829 153.397ZM500.856 151.42C503.349 149.98 506.439 150.987 507.829 153.397L504.366 155.398C503.99 154.746 503.282 154.638 502.854 154.885L500.856 151.42Z" fill="#8836DA" mask="url(#path-39-inside-1)"/>
<path d="M489.748 153.063C486.245 150.838 482.291 147.46 479.045 143.129C473.063 135.149 471.111 126.443 474.007 123.037C474.441 122.525 475.029 122.177 475.739 121.987M499.993 155.769C500.735 156.178 500.972 155.889 501.106 155.77C502.963 154.132 499.787 141.766 493.682 133.265C490.969 129.488 487.86 126.599 484.896 124.667" stroke="#8836DA" stroke-width="2" stroke-linecap="round"/>
<ellipse cx="475.739" cy="121.815" rx="3.05229" ry="3.05556" fill="#8836DA"/>
<path d="M514.273 184.377C514.165 184.569 514.033 184.713 513.877 184.809C513.721 184.905 513.565 184.953 513.409 184.953C513.193 184.953 513.001 184.875 512.833 184.719C512.677 184.563 512.599 184.365 512.599 184.125C512.599 183.921 512.659 183.717 512.779 183.513L519.331 172.191C519.439 171.999 519.571 171.855 519.727 171.759C519.883 171.663 520.039 171.615 520.195 171.615C520.411 171.615 520.597 171.693 520.753 171.849C520.921 172.005 521.005 172.203 521.005 172.443C521.005 172.647 520.945 172.851 520.825 173.055L514.273 184.377ZM512.275 179.517C511.267 179.517 510.481 179.187 509.917 178.527C509.353 177.867 509.071 176.901 509.071 175.629C509.071 174.369 509.353 173.409 509.917 172.749C510.481 172.089 511.267 171.759 512.275 171.759C513.283 171.759 514.069 172.089 514.633 172.749C515.209 173.409 515.497 174.369 515.497 175.629C515.497 176.901 515.209 177.867 514.633 178.527C514.069 179.187 513.283 179.517 512.275 179.517ZM512.275 178.059C512.731 178.059 513.061 177.873 513.265 177.501C513.481 177.117 513.589 176.493 513.589 175.629C513.589 174.789 513.481 174.177 513.265 173.793C513.049 173.409 512.719 173.217 512.275 173.217C511.831 173.217 511.501 173.409 511.285 173.793C511.081 174.165 510.979 174.777 510.979 175.629C510.979 176.493 511.081 177.117 511.285 177.501C511.501 177.873 511.831 178.059 512.275 178.059ZM521.329 184.755C520.321 184.755 519.535 184.425 518.971 183.765C518.407 183.105 518.125 182.133 518.125 180.849C518.125 179.589 518.407 178.635 518.971 177.987C519.547 177.327 520.333 176.997 521.329 176.997C522.337 176.997 523.123 177.327 523.687 177.987C524.251 178.647 524.533 179.607 524.533 180.867C524.533 182.139 524.251 183.105 523.687 183.765C523.123 184.425 522.337 184.755 521.329 184.755ZM521.329 183.297C521.773 183.297 522.103 183.111 522.319 182.739C522.535 182.355 522.643 181.731 522.643 180.867C522.643 180.027 522.535 179.415 522.319 179.031C522.103 178.647 521.773 178.455 521.329 178.455C520.885 178.455 520.555 178.647 520.339 179.031C520.123 179.415 520.015 180.027 520.015 180.867C520.015 181.731 520.123 182.355 520.339 182.739C520.555 183.111 520.885 183.297 521.329 183.297Z" fill="#8836DA"/>
<defs>
<filter id="filter0_d" x="56" y="14" width="443" height="358" filterUnits="userSpaceOnUse" color-interpolation-filters="sRGB">
<feFlood flood-opacity="0" result="BackgroundImageFix"/>
<feColorMatrix in="SourceAlpha" type="matrix" values="0 0 0 0 0 0 0 0 0 0 0 0 0 0 0 0 0 0 127 0"/>
<feOffset dy="6"/>
<feGaussianBlur stdDeviation="7"/>
<feColorMatrix type="matrix" values="0 0 0 0 0.321569 0 0 0 0 0.121569 0 0 0 0 0.521569 0 0 0 0.16 0"/>
<feBlend mode="normal" in2="BackgroundImageFix" result="effect1_dropShadow"/>
<feBlend mode="normal" in="SourceGraphic" in2="effect1_dropShadow" result="shape"/>
</filter>
<filter id="filter1_d" x="0" y="219.778" width="201" height="148" filterUnits="userSpaceOnUse" color-interpolation-filters="sRGB">
<feFlood flood-opacity="0" result="BackgroundImageFix"/>
<feColorMatrix in="SourceAlpha" type="matrix" values="0 0 0 0 0 0 0 0 0 0 0 0 0 0 0 0 0 0 127 0"/>
<feOffset dy="14"/>
<feGaussianBlur stdDeviation="12"/>
<feColorMatrix type="matrix" values="0 0 0 0 0.321569 0 0 0 0 0.121569 0 0 0 0 0.521569 0 0 0 0.2 0"/>
<feBlend mode="normal" in2="BackgroundImageFix" result="effect1_dropShadow"/>
<feBlend mode="normal" in="SourceGraphic" in2="effect1_dropShadow" result="shape"/>
</filter>
</defs>
</svg>
