<svg width="544" height="358" viewBox="0 0 544 358" fill="none" xmlns="http://www.w3.org/2000/svg">
<g filter="url(#filter0_d)">
<rect x="69.7844" y="8" width="415.112" height="330" rx="12" fill="white"/>
<rect x="70.2844" y="8.5" width="414.112" height="329" rx="11.5" stroke="#8836DA" stroke-opacity="0.16"/>
</g>
<path d="M328.219 283.608C328.219 283.958 328.571 284.199 328.898 284.073L343.876 278.304C344.303 278.139 344.303 277.535 343.876 277.371L328.898 271.601C328.571 271.475 328.219 271.716 328.219 272.067L328.213 275.949C328.212 276.202 328.401 276.416 328.653 276.446L336.121 277.341C336.708 277.411 336.708 278.263 336.121 278.334L328.653 279.228C328.401 279.258 328.212 279.472 328.213 279.726L328.219 283.608Z" fill="#D7DEE2"/>
<path d="M208.155 259.574C208.155 257.324 209.979 255.5 212.229 255.5L342.451 255.5C344.702 255.5 346.526 257.324 346.526 259.574C346.526 261.824 344.702 263.648 342.451 263.648H212.229C209.979 263.648 208.155 261.824 208.155 259.574Z" fill="#F2F4F5"/>
<path d="M208.155 277.907C208.155 275.657 209.979 273.833 212.229 273.833H305.824C308.074 273.833 309.898 275.657 309.898 277.907C309.898 280.157 308.074 281.981 305.824 281.981H212.229C209.979 281.981 208.155 280.157 208.155 277.907Z" fill="#F2F4F5"/>
<rect x="1" y="-1" width="160.789" height="55.037" rx="5" transform="matrix(1 0 0 -1 195.946 295.259)" stroke="#F2F4F5" stroke-width="2"/>
<rect x="231.556" y="123.093" width="162.789" height="8.14815" rx="4.07407" fill="#F2F4F5"/>
<path d="M231.556 143.463C231.556 141.213 233.38 139.389 235.63 139.389L323.12 139.389C325.37 139.389 327.194 141.213 327.194 143.463C327.194 145.713 325.37 147.537 323.12 147.537H235.63C233.38 147.537 231.556 145.713 231.556 143.463Z" fill="#F2F4F5"/>
<path d="M231.556 108.833C231.556 106.583 233.38 104.759 235.63 104.759L323.12 104.759C325.37 104.759 327.194 106.583 327.194 108.833C327.194 111.083 325.37 112.907 323.12 112.907L235.63 112.907C233.38 112.907 231.556 111.083 231.556 108.833Z" fill="#8836DA" fill-opacity="0.4"/>
<rect x="160.336" y="101.704" width="50.8715" height="50.9259" rx="12" fill="#8836DA" fill-opacity="0.4"/>
<rect x="69.7844" y="8" width="415.112" height="52.963" rx="12" fill="#8836DA"/>
<path d="M431.99 46.7037C438.733 46.7037 444.199 41.2316 444.199 34.4815C444.199 27.7314 438.733 22.2593 431.99 22.2593C425.247 22.2593 419.781 27.7314 419.781 34.4815C419.781 41.2316 425.247 46.7037 431.99 46.7037Z" fill="#F2F4F5" fill-opacity="0.5"/>
<path d="M431.99 24.2964C426.374 24.2964 421.815 28.8593 421.815 34.4816C421.815 40.1038 426.374 44.6668 431.99 44.6668C437.606 44.6668 442.164 40.1038 442.164 34.4816C442.164 28.8593 437.606 24.2964 431.99 24.2964ZM431.99 27.3519C433.679 27.3519 435.042 28.7168 435.042 30.4075C435.042 32.0982 433.679 33.4631 431.99 33.4631C430.301 33.4631 428.937 32.0982 428.937 30.4075C428.937 28.7168 430.301 27.3519 431.99 27.3519ZM431.99 41.8149C429.446 41.8149 427.198 40.5112 425.885 38.5353C425.916 36.5084 429.955 35.3982 431.99 35.3982C434.014 35.3982 438.064 36.5084 438.094 38.5353C436.782 40.5112 434.533 41.8149 431.99 41.8149Z" fill="#8836DA"/>
<rect x="358.735" y="29.3892" width="40.6972" height="10.1852" rx="5.09259" fill="#F2F4F5" fill-opacity="0.5"/>
<rect x="295.654" y="29.3892" width="40.6972" height="10.1852" rx="5.09259" fill="#F2F4F5" fill-opacity="0.5"/>
<rect x="232.573" y="29.3892" width="40.6972" height="10.1852" rx="5.09259" fill="#F2F4F5" fill-opacity="0.5"/>
<rect x="110.482" y="24.2964" width="61.0458" height="20.3704" rx="8" fill="#F2F4F5" fill-opacity="0.5"/>
<rect x="195.946" y="177.074" width="162.789" height="38.7037" rx="6" fill="white"/>
<rect x="196.946" y="178.074" width="160.789" height="36.7037" rx="5" stroke="#8836DA" stroke-opacity="0.4" stroke-width="2"/>
<path d="M217.571 187.556C217.722 187.097 218.371 187.097 218.522 187.556L220.269 192.892C220.336 193.097 220.528 193.236 220.744 193.236H226.39C226.875 193.236 227.076 193.858 226.682 194.142L222.121 197.43C221.945 197.557 221.871 197.784 221.939 197.991L223.682 203.316C223.833 203.776 223.307 204.161 222.915 203.877L218.339 200.579C218.164 200.453 217.929 200.453 217.754 200.579L213.179 203.877C212.786 204.161 212.261 203.776 212.411 203.316L214.155 197.991C214.223 197.784 214.149 197.557 213.972 197.43L209.411 194.142C209.018 193.858 209.218 193.236 209.704 193.236H215.349C215.565 193.236 215.757 193.097 215.824 192.892L217.571 187.556Z" fill="#8836DA"/>
<path d="M247.586 187.556C247.736 187.097 248.386 187.097 248.536 187.556L250.283 192.892C250.35 193.097 250.542 193.236 250.758 193.236H256.404C256.889 193.236 257.09 193.858 256.696 194.142L252.136 197.43C251.959 197.557 251.885 197.784 251.953 197.991L253.696 203.316C253.847 203.776 253.321 204.161 252.929 203.877L248.353 200.579C248.179 200.453 247.943 200.453 247.768 200.579L243.193 203.877C242.8 204.161 242.275 203.776 242.425 203.316L244.169 197.991C244.237 197.784 244.163 197.557 243.986 197.43L239.426 194.142C239.032 193.858 239.233 193.236 239.718 193.236H245.363C245.58 193.236 245.771 193.097 245.839 192.892L247.586 187.556Z" fill="#8836DA"/>
<path d="M277.091 187.556C277.242 187.097 277.891 187.097 278.042 187.556L279.789 192.892C279.856 193.097 280.048 193.236 280.264 193.236H285.909C286.395 193.236 286.595 193.858 286.202 194.142L281.641 197.43C281.464 197.557 281.391 197.784 281.458 197.991L283.202 203.316C283.352 203.776 282.827 204.161 282.434 203.877L277.859 200.579C277.684 200.453 277.449 200.453 277.274 200.579L272.698 203.877C272.306 204.161 271.78 203.776 271.931 203.316L273.674 197.991C273.742 197.784 273.668 197.557 273.492 197.43L268.931 194.142C268.537 193.858 268.738 193.236 269.223 193.236H274.869C275.085 193.236 275.277 193.097 275.344 192.892L277.091 187.556Z" fill="#8836DA"/>
<path d="M306.597 187.556C306.747 187.097 307.397 187.097 307.547 187.556L309.294 192.892C309.361 193.097 309.553 193.236 309.769 193.236H315.415C315.9 193.236 316.101 193.858 315.707 194.142L311.147 197.43C310.97 197.557 310.896 197.784 310.964 197.991L312.707 203.316C312.858 203.776 312.332 204.161 311.94 203.877L307.364 200.579C307.19 200.453 306.954 200.453 306.779 200.579L302.204 203.877C301.811 204.161 301.286 203.776 301.436 203.316L303.18 197.991C303.248 197.784 303.174 197.557 302.997 197.43L298.436 194.142C298.043 193.858 298.244 193.236 298.729 193.236H304.374C304.591 193.236 304.782 193.097 304.85 192.892L306.597 187.556Z" fill="#8836DA"/>
<path d="M336.102 187.556C336.253 187.097 336.902 187.097 337.053 187.556L338.8 192.892C338.867 193.097 339.059 193.236 339.275 193.236H344.92C345.406 193.236 345.606 193.858 345.213 194.142L340.652 197.43C340.475 197.557 340.402 197.784 340.469 197.991L342.213 203.316C342.363 203.776 341.838 204.161 341.445 203.877L336.87 200.579C336.695 200.453 336.46 200.453 336.285 200.579L331.709 203.877C331.317 204.161 330.791 203.776 330.942 203.316L332.685 197.991C332.753 197.784 332.679 197.557 332.503 197.43L327.942 194.142C327.548 193.858 327.749 193.236 328.234 193.236H333.88C334.096 193.236 334.288 193.097 334.355 192.892L336.102 187.556Z" fill="#8836DA"/>
<g filter="url(#filter1_d)">
<rect x="24" y="215.778" width="152.615" height="100" rx="14" fill="white"/>
<rect x="24.5" y="216.278" width="151.615" height="99" rx="13.5" stroke="#8836DA" stroke-opacity="0.16"/>
</g>
<path d="M58.6852 215.778V315.778" stroke="#8836DA" stroke-width="2" stroke-linecap="round"/>
<path d="M176.615 249.111H24" stroke="#8836DA" stroke-width="2" stroke-linecap="round"/>
<rect opacity="0.12" x="98.9199" y="278.278" width="61.0458" height="20.8333" rx="4" fill="#8836DA"/>
<path d="M79.4963 249.111C79.4963 253.714 75.7693 257.444 71.1718 257.444C66.5744 257.444 58.6852 253.714 58.6852 249.111C58.6852 244.509 66.5744 240.778 71.1718 240.778C75.7693 240.778 79.4963 244.509 79.4963 249.111Z" fill="white" stroke="#8836DA" stroke-width="2"/>
<path d="M37.8741 249.111C37.8741 244.509 41.6011 240.778 46.1985 240.778C50.796 240.778 58.6852 244.509 58.6852 249.111C58.6852 253.713 50.796 257.444 46.1985 257.444C41.6011 257.444 37.8741 253.713 37.8741 249.111Z" fill="white" stroke="#8836DA" stroke-width="2"/>
<path d="M58.6852 251.889C58.6852 251.889 69.7844 260.917 69.7844 274.806" stroke="#8836DA" stroke-width="2" stroke-linecap="round"/>
<path d="M58.6852 251.889C58.6852 251.889 47.5859 260.917 47.5859 274.806" stroke="#8836DA" stroke-width="2" stroke-linecap="round"/>
<mask id="path-34-inside-1" fill="white">
<path fill-rule="evenodd" clip-rule="evenodd" d="M515.568 129.579C518.542 130.053 521.143 131.844 522.648 134.454L539.004 162.814C541.763 167.598 540.124 173.717 535.342 176.481L517.413 186.843C512.631 189.607 506.518 187.969 503.759 183.184L487.403 154.825C485.898 152.215 485.649 149.064 486.726 146.249L491.491 133.787C493.182 129.367 497.735 126.735 502.404 127.48L515.568 129.579ZM501.855 139.153C500.395 139.996 499.928 141.922 500.811 143.453C501.694 144.985 503.594 145.542 505.054 144.698C506.514 143.855 506.981 141.929 506.098 140.398C505.215 138.866 503.315 138.309 501.855 139.153Z"/>
</mask>
<path fill-rule="evenodd" clip-rule="evenodd" d="M515.568 129.579C518.542 130.053 521.143 131.844 522.648 134.454L539.004 162.814C541.763 167.598 540.124 173.717 535.342 176.481L517.413 186.843C512.631 189.607 506.518 187.969 503.759 183.184L487.403 154.825C485.898 152.215 485.649 149.064 486.726 146.249L491.491 133.787C493.182 129.367 497.735 126.735 502.404 127.48L515.568 129.579ZM501.855 139.153C500.395 139.996 499.928 141.922 500.811 143.453C501.694 144.985 503.594 145.542 505.054 144.698C506.514 143.855 506.981 141.929 506.098 140.398C505.215 138.866 503.315 138.309 501.855 139.153Z" fill="white"/>
<path d="M522.648 134.454L524.38 133.454L522.648 134.454ZM515.568 129.579L515.883 127.603L515.883 127.603L515.568 129.579ZM539.004 162.814L537.272 163.815L539.004 162.814ZM535.342 176.481L536.341 178.213L535.342 176.481ZM517.413 186.843L516.414 185.11L517.413 186.843ZM486.726 146.249L488.593 146.963L486.726 146.249ZM491.491 133.787L489.624 133.073L489.624 133.073L491.491 133.787ZM502.404 127.48L502.72 125.504L502.72 125.504L502.404 127.48ZM520.916 135.455C519.712 133.367 517.631 131.934 515.252 131.555L515.883 127.603C519.452 128.172 522.573 130.322 524.38 133.454L520.916 135.455ZM537.272 163.815L520.916 135.455L524.38 133.454L540.736 161.813L537.272 163.815ZM534.343 174.748C538.168 172.537 539.48 167.642 537.272 163.815L540.736 161.813C544.047 167.554 542.079 174.897 536.341 178.213L534.343 174.748ZM516.414 185.11L534.343 174.748L536.341 178.213L518.412 188.575L516.414 185.11ZM505.491 182.184C507.698 186.011 512.589 187.321 516.414 185.11L518.412 188.575C512.674 191.892 505.339 189.926 502.028 184.185L505.491 182.184ZM489.135 153.824L505.491 182.184L502.028 184.185L485.672 155.826L489.135 153.824ZM488.593 146.963C487.732 149.216 487.931 151.736 489.135 153.824L485.672 155.826C483.865 152.694 483.567 148.913 484.859 145.534L488.593 146.963ZM493.358 134.501L488.593 146.963L484.859 145.534L489.624 133.073L493.358 134.501ZM502.089 129.455C498.353 128.86 494.711 130.965 493.358 134.501L489.624 133.073C491.653 127.768 497.117 124.61 502.72 125.504L502.089 129.455ZM515.252 131.555L502.089 129.455L502.72 125.504L515.883 127.603L515.252 131.555ZM499.08 144.454C497.69 142.044 498.364 138.861 500.856 137.42L502.854 140.885C502.427 141.132 502.166 141.8 502.543 142.452L499.08 144.454ZM506.053 146.431C503.56 147.871 500.47 146.864 499.08 144.454L502.543 142.452C502.919 143.105 503.627 143.213 504.054 142.966L506.053 146.431ZM507.829 139.397C509.219 141.807 508.545 144.99 506.053 146.431L504.054 142.966C504.482 142.719 504.743 142.051 504.366 141.398L507.829 139.397ZM500.856 137.42C503.349 135.98 506.439 136.987 507.829 139.397L504.366 141.398C503.99 140.746 503.282 140.638 502.854 140.885L500.856 137.42Z" fill="#8836DA" mask="url(#path-34-inside-1)"/>
<path d="M489.748 139.063C486.245 136.838 482.291 133.46 479.045 129.129C473.063 121.149 471.111 112.443 474.007 109.037C474.441 108.525 475.029 108.177 475.739 107.987M499.993 141.769C500.735 142.178 500.972 141.889 501.106 141.77C502.963 140.132 499.787 127.766 493.682 119.265C490.969 115.488 487.86 112.599 484.896 110.667" stroke="#8836DA" stroke-width="2" stroke-linecap="round"/>
<ellipse cx="475.739" cy="107.815" rx="3.05229" ry="3.05556" fill="#8836DA"/>
<path d="M514.273 170.377C514.165 170.569 514.033 170.713 513.877 170.809C513.721 170.905 513.565 170.953 513.409 170.953C513.193 170.953 513.001 170.875 512.833 170.719C512.677 170.563 512.599 170.365 512.599 170.125C512.599 169.921 512.659 169.717 512.779 169.513L519.331 158.191C519.439 157.999 519.571 157.855 519.727 157.759C519.883 157.663 520.039 157.615 520.195 157.615C520.411 157.615 520.597 157.693 520.753 157.849C520.921 158.005 521.005 158.203 521.005 158.443C521.005 158.647 520.945 158.851 520.825 159.055L514.273 170.377ZM512.275 165.517C511.267 165.517 510.481 165.187 509.917 164.527C509.353 163.867 509.071 162.901 509.071 161.629C509.071 160.369 509.353 159.409 509.917 158.749C510.481 158.089 511.267 157.759 512.275 157.759C513.283 157.759 514.069 158.089 514.633 158.749C515.209 159.409 515.497 160.369 515.497 161.629C515.497 162.901 515.209 163.867 514.633 164.527C514.069 165.187 513.283 165.517 512.275 165.517ZM512.275 164.059C512.731 164.059 513.061 163.873 513.265 163.501C513.481 163.117 513.589 162.493 513.589 161.629C513.589 160.789 513.481 160.177 513.265 159.793C513.049 159.409 512.719 159.217 512.275 159.217C511.831 159.217 511.501 159.409 511.285 159.793C511.081 160.165 510.979 160.777 510.979 161.629C510.979 162.493 511.081 163.117 511.285 163.501C511.501 163.873 511.831 164.059 512.275 164.059ZM521.329 170.755C520.321 170.755 519.535 170.425 518.971 169.765C518.407 169.105 518.125 168.133 518.125 166.849C518.125 165.589 518.407 164.635 518.971 163.987C519.547 163.327 520.333 162.997 521.329 162.997C522.337 162.997 523.123 163.327 523.687 163.987C524.251 164.647 524.533 165.607 524.533 166.867C524.533 168.139 524.251 169.105 523.687 169.765C523.123 170.425 522.337 170.755 521.329 170.755ZM521.329 169.297C521.773 169.297 522.103 169.111 522.319 168.739C522.535 168.355 522.643 167.731 522.643 166.867C522.643 166.027 522.535 165.415 522.319 165.031C522.103 164.647 521.773 164.455 521.329 164.455C520.885 164.455 520.555 164.647 520.339 165.031C520.123 165.415 520.015 166.027 520.015 166.867C520.015 167.731 520.123 168.355 520.339 168.739C520.555 169.111 520.885 169.297 521.329 169.297Z" fill="#8836DA"/>
<defs>
<filter id="filter0_d" x="55.7844" y="0" width="443.112" height="358" filterUnits="userSpaceOnUse" color-interpolation-filters="sRGB">
<feFlood flood-opacity="0" result="BackgroundImageFix"/>
<feColorMatrix in="SourceAlpha" type="matrix" values="0 0 0 0 0 0 0 0 0 0 0 0 0 0 0 0 0 0 127 0"/>
<feOffset dy="6"/>
<feGaussianBlur stdDeviation="7"/>
<feColorMatrix type="matrix" values="0 0 0 0 0.321569 0 0 0 0 0.121569 0 0 0 0 0.521569 0 0 0 0.16 0"/>
<feBlend mode="normal" in2="BackgroundImageFix" result="effect1_dropShadow"/>
<feBlend mode="normal" in="SourceGraphic" in2="effect1_dropShadow" result="shape"/>
</filter>
<filter id="filter1_d" x="0" y="205.778" width="200.615" height="148" filterUnits="userSpaceOnUse" color-interpolation-filters="sRGB">
<feFlood flood-opacity="0" result="BackgroundImageFix"/>
<feColorMatrix in="SourceAlpha" type="matrix" values="0 0 0 0 0 0 0 0 0 0 0 0 0 0 0 0 0 0 127 0"/>
<feOffset dy="14"/>
<feGaussianBlur stdDeviation="12"/>
<feColorMatrix type="matrix" values="0 0 0 0 0.321569 0 0 0 0 0.121569 0 0 0 0 0.521569 0 0 0 0.2 0"/>
<feBlend mode="normal" in2="BackgroundImageFix" result="effect1_dropShadow"/>
<feBlend mode="normal" in="SourceGraphic" in2="effect1_dropShadow" result="shape"/>
</filter>
</defs>
</svg>
