<svg width="57" height="64" viewBox="0 0 57 64" fill="none" xmlns="http://www.w3.org/2000/svg">
<path d="M2.92075 8.81733C2.78475 7.02882 3.93706 5.42158 5.5636 5.12738L27.4027 1.1772C27.9912 1.07075 28.5941 1.07075 29.1826 1.1772L51.0217 5.12738C52.6482 5.42158 53.8005 7.02881 53.6645 8.81733C53.2644 14.0787 53.8908 19.5603 54.493 24.8303C54.6097 25.8511 54.7254 26.864 54.8326 27.8658C55.5011 34.1129 55.8394 39.9309 54.246 44.9648C52.7358 49.7363 48.0251 53.7012 42.8076 56.7343C37.6383 59.7394 32.2028 61.6983 29.5864 62.5527C28.7404 62.8289 27.8449 62.8289 26.9989 62.5527C24.3825 61.6983 18.947 59.7394 13.7777 56.7343C8.56019 53.7012 3.84947 49.7363 2.33921 44.9648C0.745843 39.9309 1.08417 34.1129 1.75265 27.8658C1.85985 26.864 1.9756 25.8512 2.09225 24.8303C2.69446 19.5604 3.32086 14.0788 2.92075 8.81733Z" fill="#FCFDFF" stroke="#8836DA" stroke-width="2"/>
<rect x="25.195" y="24.9995" width="6" height="9" rx="3" fill="#FCFDFF" stroke="#8836DA" stroke-width="2"/>
<rect x="22.2861" y="30.2358" width="11.8182" height="9.05455" rx="1" fill="#FCFDFF" stroke="#B8C0CC" stroke-width="2"/>
<path fill-rule="evenodd" clip-rule="evenodd" d="M28.8861 37.2267C28.8861 36.8701 29.101 36.5558 29.3114 36.2678C29.4784 36.0394 29.577 35.7581 29.577 35.4541C29.577 34.6893 28.9599 34.0723 28.1952 34.0723C27.4331 34.0723 26.8134 34.692 26.8134 35.4541C26.8134 35.7581 26.912 36.0395 27.0789 36.2679C27.2894 36.5558 27.5043 36.8701 27.5043 37.2268V38.1445C27.5043 38.1847 27.5369 38.2172 27.577 38.2172H28.8134C28.8536 38.2172 28.8861 38.1847 28.8861 38.1445V37.2267Z" fill="#B8C0CC"/>
<path d="M28.1951 48C37.0316 48 44.1951 40.8366 44.1951 32C44.1951 26.3832 41.3008 21.4424 36.9223 18.5875M28.1951 16C19.3585 16 12.1951 23.1634 12.1951 32C12.1951 37.9223 15.4127 43.093 20.1951 45.8595M20.1951 45.8595V42.1818M20.1951 45.8595L15.8314 45.8182M36.9223 18.5875V21.8182M36.9223 18.5875H40.5587" stroke="#B8C0CC" stroke-width="2" stroke-linecap="round" stroke-linejoin="round"/>
</svg>
