<svg width="102" height="66" viewBox="0 0 102 66" fill="none" xmlns="http://www.w3.org/2000/svg">
<path d="M82.2698 35.8199C87.3193 35.8199 91.4127 31.7265 91.4127 26.677C91.4127 21.6276 87.3193 17.5342 82.2698 17.5342C77.2204 17.5342 73.127 21.6276 73.127 26.677C73.127 31.7265 77.2204 35.8199 82.2698 35.8199Z" fill="white" stroke="#B8C0CC" stroke-width="1.88" stroke-miterlimit="10" stroke-linecap="round"/>
<path d="M19.2857 35.8199C24.3352 35.8199 28.4286 31.7265 28.4286 26.677C28.4286 21.6276 24.3352 17.5342 19.2857 17.5342C14.2362 17.5342 10.1428 21.6276 10.1428 26.677C10.1428 31.7265 14.2362 35.8199 19.2857 35.8199Z" fill="white" stroke="#B8C0CC" stroke-width="1.88" stroke-miterlimit="10" stroke-linecap="round"/>
<path d="M99.5529 64.9998C100.105 64.9998 100.553 64.5521 100.553 63.9998V57.8464C100.594 55.7305 100.152 53.6286 99.2512 51.6634C98.3509 49.6981 97.0108 47.9089 95.3089 46.3998C93.6071 44.8908 91.5777 43.6922 89.339 42.8741C87.1004 42.056 84.6972 41.6348 82.2698 41.6348C79.8423 41.6348 77.4393 42.056 75.2007 42.8741C72.962 43.6922 70.9324 44.8908 69.2306 46.3998C67.5288 47.9089 66.1886 49.6981 65.2883 51.6634C64.388 53.6286 63.9456 55.7305 63.9868 57.8464V63.9998" fill="white"/>
<path d="M100.553 57.8464V63.9998C100.553 64.5521 100.105 64.9998 99.5529 64.9998H64.9868C64.4345 64.9998 63.9868 64.5521 63.9868 63.9998V57.8464C63.9456 55.7305 64.388 53.6286 65.2883 51.6634C66.1886 49.6981 67.5288 47.9089 69.2306 46.3998C70.9324 44.8908 72.962 43.6922 75.2007 42.8741C77.4393 42.056 79.8423 41.6348 82.2698 41.6348C84.6972 41.6348 87.1004 42.056 89.339 42.8741C91.5777 43.6922 93.6071 44.8908 95.3089 46.3998C97.0108 47.9089 98.3509 49.6981 99.2512 51.6634C100.152 53.6286 100.594 55.7305 100.553 57.8464Z" stroke="#B8C0CC" stroke-width="1.88" stroke-miterlimit="10" stroke-linecap="round"/>
<path d="M36.5688 64.9998C37.1211 64.9998 37.5688 64.5521 37.5688 63.9998V57.8464C37.61 55.7305 37.1674 53.6286 36.2671 51.6634C35.3668 49.6981 34.0266 47.9089 32.3248 46.3998C30.623 44.8908 28.5936 43.6922 26.3549 42.8741C24.1162 42.056 21.7131 41.6348 19.2856 41.6348C16.8582 41.6348 14.4552 42.056 12.2165 42.8741C9.97784 43.6922 7.94829 44.8908 6.24646 46.3998C4.54464 47.9089 3.20449 49.6981 2.30416 51.6634C1.40383 53.6286 0.961458 55.7305 1.00263 57.8464V63.9998" fill="white"/>
<path d="M37.5688 57.8464V63.9998C37.5688 64.5521 37.1211 64.9998 36.5688 64.9998H2.00263C1.45035 64.9998 1.00263 64.5521 1.00263 63.9998V57.8464C0.961458 55.7305 1.40383 53.6286 2.30416 51.6634C3.20449 49.6981 4.54464 47.9089 6.24646 46.3998C7.94829 44.8908 9.97784 43.6922 12.2165 42.8741C14.4552 42.056 16.8582 41.6348 19.2856 41.6348C21.7131 41.6348 24.1162 42.056 26.3549 42.8741C28.5936 43.6922 30.623 44.8908 32.3248 46.3998C34.0266 47.9089 35.3668 49.6981 36.2671 51.6634C37.1674 53.6286 37.61 55.7305 37.5688 57.8464Z" stroke="#B8C0CC" stroke-width="1.88" stroke-miterlimit="10" stroke-linecap="round"/>
<path d="M50.7778 25.381C57.5104 25.381 62.9683 19.9231 62.9683 13.1905C62.9683 6.45786 57.5104 1 50.7778 1C44.0452 1 38.5873 6.45786 38.5873 13.1905C38.5873 19.9231 44.0452 25.381 50.7778 25.381Z" fill="white" stroke="#8836DA" stroke-width="1.88" stroke-miterlimit="10" stroke-linecap="round"/>
<path d="M75.1552 64.9999V54.1143C75.2101 50.8944 74.6201 47.6959 73.4196 44.7053C72.2192 41.7147 70.4323 38.9919 68.1632 36.6956C65.8941 34.3992 63.1883 32.5753 60.2034 31.3303C57.2185 30.0853 54.0142 29.4443 50.7777 29.4443C47.5411 29.4443 44.3371 30.0853 41.3522 31.3303C38.3673 32.5753 35.6612 34.3992 33.3921 36.6956C31.123 38.9919 29.3361 41.7147 28.1357 44.7053C26.9353 47.6959 26.3454 50.8944 26.4003 54.1143V64.9999" fill="white"/>
<path d="M75.1552 64.9999V54.1143C75.2101 50.8944 74.6201 47.6959 73.4196 44.7053C72.2192 41.7147 70.4323 38.9919 68.1632 36.6956C65.8941 34.3992 63.1883 32.5753 60.2034 31.3303C57.2185 30.0853 54.0142 29.4443 50.7777 29.4443C47.5411 29.4443 44.3371 30.0853 41.3522 31.3303C38.3673 32.5753 35.6612 34.3992 33.3921 36.6956C31.123 38.9919 29.3361 41.7147 28.1357 44.7053C26.9353 47.6959 26.3454 50.8944 26.4003 54.1143V64.9999H75.1552Z" stroke="#8836DA" stroke-width="1.88" stroke-miterlimit="10" stroke-linecap="round"/>
</svg>
