<svg width="105" height="105" viewBox="0 0 105 105" fill="none" xmlns="http://www.w3.org/2000/svg">
<circle cx="52.5" cy="52.5" r="52.5" fill="#F0F4F7"/>
<rect x="38" y="31" width="40" height="67" rx="3" fill="white" stroke="#B8C0CC" stroke-width="2"/>
<circle cx="58" cy="90" r="3" fill="#B8C0CC"/>
<path d="M54 26C54 25.4477 54.4477 25 55 25H61C61.5523 25 62 25.4477 62 26V39C62 41.2091 60.2091 43 58 43C55.7909 43 54 41.2091 54 39V26Z" fill="white" stroke="#B8C0CC" stroke-width="2"/>
<path d="M54 26C54 25.4477 53.5523 25 53 25H47.1037C46.5751 25 46.1378 25.4114 46.1056 25.939L45.3439 38.4036C45.1916 40.8955 47.1714 43 49.6679 43C52.0605 43 54 41.0605 54 38.6679V26Z" fill="white" stroke="#B8C0CC" stroke-width="2"/>
<path d="M62 26C62 25.4477 62.4477 25 63 25H68.8963C69.4249 25 69.8622 25.4114 69.8944 25.939L70.6561 38.4036C70.8084 40.8955 68.8286 43 66.3321 43C63.9395 43 62 41.0605 62 38.6679V26Z" fill="white" stroke="#B8C0CC" stroke-width="2"/>
<path d="M45.8746 26.0599C45.9091 25.4851 45.4522 25 44.8764 25H39.1743C38.6681 25 38.2418 25.3783 38.1815 25.8809L36.6939 38.2772C36.3925 40.7892 38.3539 43 40.8838 43C43.1163 43 44.9625 41.2612 45.0962 39.0328L45.8746 26.0599Z" fill="white" stroke="#B8C0CC" stroke-width="2"/>
<path d="M70.1254 26.0599C70.0909 25.4851 70.5478 25 71.1236 25H76.8257C77.3319 25 77.7582 25.3783 77.8185 25.8809L79.3061 38.2772C79.6075 40.7892 77.6461 43 75.1162 43C72.8837 43 71.0375 41.2612 70.9038 39.0328L70.1254 26.0599Z" fill="white" stroke="#B8C0CC" stroke-width="2"/>
<rect x="35" y="20" width="46" height="5" rx="2.5" fill="white" stroke="#B8C0CC" stroke-width="2"/>
<path d="M52.2267 70.3998C51.1345 70.3498 51.1551 68.9721 52.2267 68.9242C55.2622 68.9337 63.2687 68.9268 66.4008 68.9288C67.2575 68.9288 67.9904 68.406 68.1831 67.6575L69.9616 60.7511C70.0634 60.3557 69.9606 59.9464 69.6796 59.6283C69.3986 59.3102 68.9779 59.1252 68.5254 59.1252C67.2654 59.1252 56.57 59.0818 51.0919 59.0622L50.2235 56.1727C50.015 55.4822 49.3124 55 48.5147 55H45.7328C45.3281 55 45 55.2942 45 55.6572C45 56.0201 45.3281 56.3143 45.7328 56.3143H48.5147C48.652 56.3143 48.7729 56.3973 48.8086 56.5155L52.1436 67.6117C51.5572 67.6308 51.0111 67.8447 50.5969 68.2216C50.1617 68.6176 49.928 69.1418 49.9388 69.6978C49.9604 70.8095 50.9867 71.7141 52.2267 71.7141H53.2953C53.1365 72.013 53.0473 72.3473 53.0473 72.6998C53.0473 73.9682 54.1979 75 55.6122 75C57.0266 75 58.1772 73.9682 58.1772 72.6998C58.1772 72.3472 58.088 72.013 57.9291 71.7141H62.5564C62.3977 72.0129 62.3086 72.347 62.3086 72.6995C62.3086 73.9678 63.4592 74.9996 64.8735 74.9996C66.2878 74.9996 67.4385 73.9678 67.4385 72.6995C67.4385 72.3333 67.3421 71.987 67.1715 71.6794C67.4615 71.5918 67.6706 71.3465 67.6706 71.0569C67.6706 70.694 67.3425 70.3998 66.9378 70.3998H52.2267ZM56.7115 72.6999C56.7115 73.2435 56.2184 73.6857 55.6122 73.6857C55.006 73.6857 54.5129 73.2435 54.5129 72.6999C54.5129 72.1566 55.0055 71.7145 55.6113 71.7141H55.6131C56.2189 71.7145 56.7115 72.1566 56.7115 72.6999ZM64.8736 73.6854C64.2674 73.6854 63.7742 73.2431 63.7742 72.6995C63.7742 72.1613 64.2578 71.7227 64.8557 71.7141H64.8914C65.4894 71.7227 65.973 72.1613 65.973 72.6995C65.9729 73.2431 65.4797 73.6854 64.8736 73.6854ZM68.5308 60.4443C68.5351 60.4492 68.5345 60.4515 68.5336 60.4553L67.7842 63.3654H65.2466L65.6787 60.4291L68.5195 60.4394C68.5239 60.4395 68.5265 60.4395 68.5308 60.4443ZM60.9757 67.6144V64.6798H63.5749L63.143 67.6144H60.9757ZM57.3419 67.6144L56.9065 64.6798H59.5101V67.6144H57.3419ZM53.9683 67.6144H53.966C53.7874 67.6143 53.6301 67.5063 53.5836 67.3524L52.7804 64.6798H55.4279L55.8633 67.6144H53.9683ZM56.7114 63.3655L56.2707 60.3952L59.5101 60.4069V63.3655H56.7114ZM60.9757 63.3655V60.4122L64.2012 60.4238L63.7683 63.3655H60.9757ZM54.7914 60.3898L55.2329 63.3654H52.3853L51.4874 60.3778L54.7914 60.3898ZM66.4008 67.6144H64.6213L65.0531 64.6798H67.4457L66.755 67.3617C66.7167 67.5105 66.5711 67.6144 66.4008 67.6144Z" fill="#8836DA"/>
</svg>
