<svg width="105" height="105" viewBox="0 0 105 105" fill="none" xmlns="http://www.w3.org/2000/svg">
<path d="M52.5 105C81.4949 105 105 81.4949 105 52.5C105 23.5051 81.4949 0 52.5 0C23.5051 0 0 23.5051 0 52.5C0 81.4949 23.5051 105 52.5 105Z" fill="#F0F4F7"/>
<path d="M99.1904 86.3762L99.1204 86.9434L99.5736 87.2917L103.975 90.6742L103.985 90.6818C103.984 90.6837 103.983 90.6857 103.982 90.6878L99.7712 97.7755L99.7669 97.7827L99.7627 97.7901C99.7605 97.7941 99.7583 97.797 99.7564 97.7993C99.7545 97.8015 99.7528 97.8031 99.7513 97.8043C99.7478 97.8071 99.7429 97.8101 99.7363 97.8124C99.7225 97.8172 99.7077 97.8171 99.6951 97.8128L94.4582 95.7661L93.9455 95.5657L93.5019 95.8918C92.4788 96.6438 91.3671 97.2906 90.1671 97.7668L89.6296 97.98L89.5464 98.5522L88.7556 103.985L88.7541 103.995C88.7457 103.998 88.7336 104 88.7172 104H80.2828C80.2652 104 80.255 103.997 80.2501 103.995C80.2449 103.994 80.2411 103.991 80.2376 103.988C80.2331 103.985 80.2208 103.973 80.212 103.944L79.4273 98.5522L79.344 97.98L78.8066 97.7668C77.6036 97.2894 76.5192 96.6677 75.4746 95.8939L75.0304 95.5648L74.5154 95.7661L69.3098 97.8006C69.2761 97.8082 69.2451 97.8053 69.2256 97.7988C69.2208 97.7972 69.2175 97.7957 69.2155 97.7946C69.2139 97.7937 69.213 97.7931 69.2127 97.7929C69.2124 97.7925 69.2118 97.7917 69.2109 97.7901L69.2067 97.7827L69.2024 97.7755L65.0019 90.7055C65.0014 90.7038 65.0009 90.7019 65.0005 90.6994C64.9997 90.6936 64.9998 90.6868 65.0011 90.6802C65.0022 90.6747 65.0037 90.6712 65.0046 90.6694L69.4482 87.2952L69.9281 86.9308L69.8302 86.3364C69.7343 85.7537 69.6853 85.1164 69.6853 84.5C69.6853 83.9076 69.7561 83.2739 69.8566 82.6636L69.9544 82.0692L69.4746 81.7048L65.0201 78.3223L65.0147 78.3182C65.0156 78.3163 65.0166 78.3143 65.0178 78.3122L69.2288 71.2245L69.2331 71.2173L69.2373 71.2099C69.2417 71.2021 69.2457 71.1982 69.2487 71.1957C69.2522 71.1929 69.2571 71.1899 69.2637 71.1876C69.2775 71.1828 69.2923 71.1829 69.305 71.1872L74.5418 73.2339L75.0545 73.4343L75.4981 73.1082C76.5212 72.3562 77.6329 71.7094 78.8329 71.2332L79.3704 71.02L79.4536 70.4478L80.2434 65.0217C80.2453 65.0113 80.2477 65.0066 80.2482 65.0057C80.2488 65.0054 80.2499 65.0048 80.2516 65.0042C80.2552 65.0029 80.265 65 80.2828 65H88.7172C88.7529 65 88.7722 65.0116 88.779 65.0172C88.7812 65.019 88.7822 65.0203 88.7826 65.0208C88.7827 65.0211 88.7829 65.0216 88.783 65.0224L89.5727 70.4478L89.656 71.02L90.1934 71.2332C91.3964 71.7106 92.4808 72.3323 93.5254 73.1061L93.9696 73.4352L94.4846 73.2339L99.6902 71.1994C99.7239 71.1918 99.7549 71.1947 99.7744 71.2012C99.7792 71.2028 99.7825 71.2043 99.7845 71.2054C99.7861 71.2063 99.7869 71.2068 99.7873 71.2071C99.7875 71.2074 99.7882 71.2083 99.7891 71.2099L99.7933 71.2173L99.7976 71.2245L103.998 78.2945C103.999 78.2962 103.999 78.2981 103.999 78.3006C104 78.3064 104 78.3132 103.999 78.3198C103.998 78.3253 103.996 78.3288 103.995 78.3306L99.5518 81.7048L99.0719 82.0692L99.1698 82.6636C99.2658 83.2472 99.3147 83.859 99.3147 84.5C99.3147 85.1413 99.2658 85.7654 99.1904 86.3762ZM75.5927 84.5C75.5927 89.3068 79.6254 93.1875 84.5 93.1875C89.3745 93.1875 93.4073 89.3068 93.4073 84.5C93.4073 79.6932 89.3745 75.8125 84.5 75.8125C79.6254 75.8125 75.5927 79.6932 75.5927 84.5Z" fill="white" stroke="#8836DA" stroke-width="2" stroke-linecap="round"/>
<path d="M83.7059 97.9413V100.128C83.7059 102.267 81.9723 104 79.8339 104H20.872C18.7335 104 17 102.267 17 100.128V97.9413C17 79.521 31.9326 64.5884 50.3529 64.5884C68.7733 64.5884 83.7059 79.521 83.7059 97.9413Z" fill="white" stroke="#B8C0CC" stroke-width="2" stroke-linecap="round"/>
<circle cx="50.3529" cy="42.4118" r="16.4118" fill="white" stroke="#B8C0CC" stroke-width="2"/>
<path d="M55 98.3077L50 66L45 98.3077L50 102L55 98.3077Z" stroke="#B8C0CC" stroke-width="2" stroke-linecap="round" stroke-linejoin="round"/>
</svg>
