<svg width="105" height="105" viewBox="0 0 105 105" fill="none" xmlns="http://www.w3.org/2000/svg">
<circle cx="52.5" cy="52.5" r="52.5" fill="#F0F4F7"/>
<path d="M45.3326 60.2815C47.6902 60.2815 49.7276 61.9285 50.2216 64.2338L52.5184 74.9523C53.1854 78.0649 50.8126 81 47.6294 81L27.4218 81C24.2386 81 21.8659 78.0649 22.5328 74.9523L24.8297 64.2338C25.3237 61.9285 27.361 60.2815 29.7187 60.2815L45.3326 60.2815Z" fill="white" stroke="#B8C0CC" stroke-width="2"/>
<path fill-rule="evenodd" clip-rule="evenodd" d="M31 58.5C31 54.9101 33.9101 52 37.5 52C41.0898 52 44 54.9101 44 58.5V64.5V65.5V66.5C44 67.3284 43.3284 68 42.5 68C41.6715 68 41 67.3284 41 66.5V65.6383V64.5V59.5C41 57.567 39.433 56 37.5 56C35.567 56 34 57.567 34 59.5V63.5V65.6383V66.5C34 67.3284 33.3284 68 32.5 68C31.6715 68 31 67.3284 31 66.5V65.5V63.5V58.5Z" fill="white"/>
<path d="M37.5 51C33.3578 51 30 54.3579 30 58.5H32C32 55.4624 34.4624 53 37.5 53V51ZM45 58.5C45 54.3579 41.6421 51 37.5 51V53C40.5375 53 43 55.4624 43 58.5H45ZM45 64.5V58.5H43V64.5H45ZM43 64.5V65.5H45V64.5H43ZM43 65.5V66.5H45V65.5H43ZM43 66.5C43 66.7761 42.7761 67 42.5 67V69C43.8807 69 45 67.8807 45 66.5H43ZM42.5 67C42.2238 67 42 66.7761 42 66.5H40C40 67.8807 41.1193 69 42.5 69V67ZM42 66.5V65.6383H40V66.5H42ZM42 65.6383V64.5H40V65.6383H42ZM40 59.5V64.5H42V59.5H40ZM37.5 57C38.8807 57 40 58.1193 40 59.5H42C42 57.0147 39.9853 55 37.5 55V57ZM35 59.5C35 58.1193 36.1193 57 37.5 57V55C35.0147 55 33 57.0147 33 59.5H35ZM35 63.5V59.5H33V63.5H35ZM35 65.6383V63.5H33V65.6383H35ZM35 66.5V65.6383H33V66.5H35ZM32.5 69C33.8807 69 35 67.8807 35 66.5H33C33 66.7761 32.7761 67 32.5 67V69ZM30 66.5C30 67.8807 31.1193 69 32.5 69V67C32.2238 67 32 66.7761 32 66.5H30ZM30 65.5V66.5H32V65.5H30ZM30 63.5V65.5H32V63.5H30ZM30 58.5V63.5H32V58.5H30Z" fill="#8836DA"/>
<path d="M84.9999 100.198C80.6045 103.694 75.3603 104.479 70.3873 103.753C64.5464 102.903 58.9013 100.169 53.1809 98.1675C48.8626 96.6563 44.3876 95.5607 39.9999 96.0154C41.8625 79.3833 47.0813 61.9544 50.2272 56.5424C49.0723 50.9589 46.9464 43.3469 46.5787 39.8411C46.2074 36.3157 46.463 27.4454 46.5516 24.7733C46.566 24.3418 46.9156 24 47.3418 24H50.1399C50.5763 24 50.9308 24.3589 50.9308 24.8008V27.8745C50.9308 31.0276 52.1924 33.8828 54.2328 35.9489C56.2817 38.0241 59.1165 39.3034 62.2462 39.2924C68.4868 39.271 73.4838 34.0232 73.4838 27.7048V24.8008C73.4838 24.3589 73.8382 24 74.2747 24H77.0722C77.4989 24 77.8485 24.3418 77.863 24.7733C77.9516 27.4454 78.2066 36.3157 77.8359 39.8411C77.4724 43.2987 75.9312 50.9387 74.7727 56.5424C78.1693 62.1704 83.5623 82.1903 84.9999 100.198Z" fill="white"/>
<path d="M50.2272 56.5424C47.0813 61.9544 41.8625 79.3833 39.9999 96.0154C44.3876 95.5607 48.8626 96.6563 53.1809 98.1675C58.9013 100.169 64.5464 102.903 70.3873 103.753C75.3603 104.479 80.6045 103.694 84.9999 100.198C83.5623 82.1903 78.1693 62.1704 74.7727 56.5424M50.2272 56.5424C49.0723 50.9589 46.9464 43.3469 46.5787 39.8411C46.2074 36.3157 46.463 27.4454 46.5516 24.7733C46.566 24.3418 46.9156 24 47.3418 24H50.1399C50.5763 24 50.9308 24.3589 50.9308 24.8008V27.8745C50.9308 31.0276 52.1924 33.8828 54.2328 35.9489C56.2817 38.0241 59.1165 39.3034 62.2462 39.2924C68.4868 39.271 73.4838 34.0232 73.4838 27.7048V24.8008C73.4838 24.3589 73.8382 24 74.2747 24H77.0722C77.4989 24 77.8485 24.3418 77.863 24.7733C77.9516 27.4454 78.2066 36.3157 77.8359 39.8411C77.4724 43.2987 75.9312 50.9387 74.7727 56.5424M50.2272 56.5424H59.4318M74.7727 56.5424H65.5681M59.4318 56.5424L56.9999 64M59.4318 56.5424H65.5681M65.5681 56.5424L67.9999 64" stroke="#B8C0CC" stroke-width="2" stroke-linecap="round" stroke-linejoin="round"/>
<path d="M94.9999 76.2917L92.9125 84.2284H92.9133C92.7657 84.7355 92.6885 85.263 92.6885 85.7966L92.3154 93.3162C92.2964 93.6991 91.9759 93.9999 91.587 93.9999C91.1671 93.9999 90.823 93.6713 90.8097 93.2577L90.5282 84.4672C90.5282 83.9378 89.928 83.0851 88.7045 84.5089C90.9982 80.1877 94.9998 76.2918 94.9999 76.2917Z" fill="white" stroke="#8836DA" stroke-width="1.8" stroke-linejoin="round"/>
<path d="M69.1778 92.3909C69.1778 92.3909 71.4422 89.7115 74.8591 87.8229C75.5121 87.462 76.3165 87.5032 76.9364 87.9167C77.7699 88.4727 78.8091 88.7382 79.7782 88.7382C82.6534 88.7382 83.8937 85.5154 83.8937 85.5154L90.0919 71.9344C90.7622 70.4659 92.0281 71.1673 92.0296 71.1681C93.2891 71.9128 94.9999 73.4476 94.9999 76.2917C94.9999 76.2917 89.4635 82.332 87.6032 86.7492C86.8558 88.5236 86.2313 90.0423 85.6035 91.2247C85.6035 91.2247 84.1747 94 81.3806 94H70.0508C69.2122 94 68.7134 93.079 69.1778 92.3909Z" fill="white" stroke="#8836DA" stroke-width="1.8" stroke-linejoin="round"/>
</svg>
