<svg width="105" height="105" viewBox="0 0 105 105" fill="none" xmlns="http://www.w3.org/2000/svg">
<circle cx="52.5" cy="52.5" r="52.5" fill="#F0F4F7"/>
<path d="M48.4239 42.0821C48.4239 41.5298 48.8716 41.0821 49.4239 41.0821H70.9474C71.4997 41.0821 71.9474 41.5298 71.9474 42.0821V81.008C71.9474 81.5603 71.4997 82.008 70.9474 82.008H49.4239C48.8716 82.008 48.4239 81.5603 48.4239 81.008V42.0821Z" fill="white" stroke="#B8C0CC" stroke-width="2"/>
<path d="M54.3849 51.6837H65.9865" stroke="#B8C0CC" stroke-width="2" stroke-linecap="round"/>
<path d="M53.2271 29.4805L67.1443 29.4805L71.5157 41.4024L48.8557 41.4024L53.2271 29.4805Z" fill="white" stroke="#B8C0CC" stroke-width="2"/>
<path d="M68.4669 27C68.4669 26.4477 68.0192 26 67.4669 26H52.9044C52.3521 26 51.9044 26.4477 51.9044 27V28.8008C51.9044 29.3531 52.3521 29.8008 52.9044 29.8008H67.467C68.0192 29.8008 68.4669 29.3531 68.4669 28.8008V27Z" fill="white" stroke="#8836DA" stroke-width="2"/>
<path d="M48.5774 48.4875C46.6229 40.0225 38.1763 34.7447 29.7113 36.6992C29.3217 36.7891 29.0947 37.1902 29.2161 37.5684C30.3721 41.1681 33.0282 49.6069 34.243 54.8681C35.4578 60.1294 36.7701 68.8784 37.3092 72.6205C37.3659 73.0136 37.7458 73.2747 38.1353 73.1847C46.6004 71.2302 51.8782 62.7836 49.9237 54.3185L48.5774 48.4875Z" fill="white" stroke="#B8C0CC" stroke-width="2" stroke-linecap="round"/>
<path d="M37.6157 48.136C39.3816 47.7283 42.1374 47.092 42.1374 47.092M38.9207 53.7881L43.4424 52.7441M40.2257 59.4402L44.7474 58.3962" stroke="#8836DA" stroke-width="2" stroke-linecap="round"/>
<path d="M89.1897 54.5841C89.1897 60.6711 84.7746 65.6056 79.3283 65.6056C73.882 65.6056 69.4669 60.6711 69.4669 54.5841C69.4669 48.4971 73.882 43.5626 79.3283 43.5626C84.7746 43.5626 89.1897 48.4971 89.1897 54.5841Z" fill="white"/>
<path d="M79.3283 43.5626C73.882 43.5626 69.4669 48.4971 69.4669 54.5841C69.4669 60.6711 73.882 65.6056 79.3283 65.6056C84.7746 65.6056 89.1897 60.6711 89.1897 54.5841C89.1897 48.4971 84.7746 43.5626 79.3283 43.5626ZM79.3283 43.5626C79.3855 42.2084 80 39.4 82 39" stroke="#B8C0CC" stroke-width="2" stroke-linecap="round"/>
<path d="M45.2638 58.5162C45.2638 57.7591 44.4551 57.2766 43.7888 57.6361L43.4476 57.8203C42.5107 58.3259 41.376 58.2971 40.4659 57.7446L38.6616 56.6491C38.3427 56.4555 37.9426 56.4555 37.6237 56.6491L35.8194 57.7446C34.9093 58.2971 33.7746 58.3259 32.8376 57.8203L31.0215 56.8401V100.731C31.0215 101.283 31.4692 101.731 32.0215 101.731H44.2638C44.816 101.731 45.2638 101.283 45.2638 100.731V58.5162Z" fill="white" stroke="#B8C0CC" stroke-width="2"/>
<path d="M42.6231 58.76C42.6231 58.371 42.8487 58.0173 43.2014 57.8532L46.1437 56.4847C46.4243 56.3542 46.7496 56.361 47.0246 56.5031L49.7243 57.8983C50.5883 58.3448 51.615 58.3448 52.479 57.8983L55.1323 56.527C55.4203 56.3782 55.7626 56.3782 56.0506 56.527L58.7039 57.8983C59.5679 58.3448 60.5947 58.3448 61.4586 57.8983L64.112 56.527C64.4 56.3782 64.7422 56.3782 65.0302 56.527L67.6836 57.8983C68.5475 58.3448 69.5743 58.3448 70.4382 57.8983L73.0916 56.527C73.3796 56.3782 73.7219 56.3782 74.0098 56.527L76.6632 57.8983C77.5272 58.3448 78.5539 58.3448 79.4179 57.8983L82.0713 56.527C82.3592 56.3782 82.7015 56.3782 82.9895 56.527L85.6429 57.8983C86.5068 58.3448 87.5336 58.3448 88.3975 57.8983L90.51 56.8066L90.51 100.731C90.51 101.283 90.0623 101.731 89.51 101.731H43.6231C43.0709 101.731 42.6231 101.283 42.6231 100.731V58.76Z" fill="white" stroke="#B8C0CC" stroke-width="2"/>
<path d="M83.1359 89.1652C82.3236 86.4975 80.6449 84.3488 78.5416 82.9744C75.5795 81.0388 73.7466 82.9238 70.8622 83.7999C67.9777 84.676 65.4044 84.1292 64.0227 87.3841C63.0416 89.6953 62.8449 92.4136 63.6572 95.0813C65.0381 99.6166 68.9231 102.652 73.1412 102.933C74.2735 103.008 75.0921 101.776 76.2304 101.43C77.3687 101.084 78.7356 101.653 79.6341 100.961C82.9815 98.3819 84.5168 93.7005 83.1359 89.1652Z" fill="white"/>
<path d="M70.8622 83.7999C73.7466 82.9238 75.5795 81.0388 78.5416 82.9744C80.6449 84.3488 82.3236 86.4975 83.1359 89.1652C84.5168 93.7005 82.9815 98.3819 79.6341 100.961C78.7356 101.653 77.3687 101.084 76.2304 101.43C75.0921 101.776 74.2735 103.008 73.1412 102.933C68.9231 102.652 65.0381 99.6166 63.6572 95.0813C62.8449 92.4136 63.0416 89.6953 64.0227 87.3841C65.4044 84.1292 67.9777 84.676 70.8622 83.7999ZM70.8622 83.7999C70.6153 82.9893 69.1428 80.3371 71.631 77.5889" stroke="#8836DA" stroke-width="2" stroke-linecap="round"/>
<path d="M96 91.8708C96 88.8708 94.954 86.1343 93.2337 84.062C90.811 81.1436 88.3534 82.5109 85.1358 82.5109C81.9182 82.5109 79.4606 81.1436 77.038 84.062C75.3177 86.1343 74.2716 88.8708 74.2716 91.8708C74.2716 96.9708 77.2948 101.31 81.5144 102.918C82.6471 103.349 83.866 102.337 85.1358 102.337C86.4056 102.337 87.6245 103.349 88.7572 102.918C92.9768 101.31 96 96.9708 96 91.8708Z" fill="white"/>
<path d="M85.1358 82.5109C88.3534 82.5109 90.811 81.1436 93.2337 84.062C94.954 86.1343 96 88.8708 96 91.8708C96 96.9708 92.9768 101.31 88.7572 102.918C87.6245 103.349 86.4056 102.337 85.1358 102.337C83.866 102.337 82.6471 103.349 81.5144 102.918C77.2948 101.31 74.2716 96.9708 74.2716 91.8708C74.2716 88.8708 75.3177 86.1343 77.038 84.062C79.4606 81.1436 81.9182 82.5109 85.1358 82.5109ZM85.1358 82.5109C85.1358 81.5993 84.4568 78.4089 87.8519 76.358" stroke="#8836DA" stroke-width="2" stroke-linecap="round"/>
</svg>
