<svg width="548" height="388" viewBox="0 0 548 388" fill="none" xmlns="http://www.w3.org/2000/svg">
<path d="M501.891 387H26.4389C-7.75938 387 -16.309 328.291 46.863 257.65C133.088 161.23 262.981 130.292 321.4 156.938C388.372 187.486 399.296 264.332 472.443 294.88C545.589 325.427 538.939 387 501.891 387Z" fill="#F2F5FA"/>
<path d="M59.0887 17.2191H374.546V70.5896H59.0887V17.2191Z" fill="white" stroke="#B8C0CC" stroke-width="2"/>
<path d="M174.351 56.2254C172.709 56.2254 171.151 56.012 169.679 55.5854C168.229 55.1374 167.045 54.54 166.127 53.7934C165.637 53.4307 165.391 52.9187 165.391 52.2574C165.391 51.8094 165.519 51.4254 165.775 51.1054C166.053 50.764 166.373 50.5934 166.735 50.5934C167.119 50.5934 167.557 50.7427 168.047 51.0414C168.965 51.7027 169.925 52.1827 170.927 52.4814C171.93 52.78 173.039 52.9294 174.255 52.9294C175.813 52.9294 177.007 52.6627 177.839 52.1294C178.671 51.5747 179.087 50.7747 179.087 49.7294C179.087 48.9187 178.693 48.3 177.903 47.8734C177.135 47.4254 175.845 46.9987 174.031 46.5934C172.154 46.188 170.629 45.7187 169.455 45.1854C168.282 44.652 167.397 43.9694 166.799 43.1374C166.202 42.3054 165.903 41.2494 165.903 39.9694C165.903 38.6467 166.277 37.4627 167.023 36.4174C167.77 35.372 168.805 34.5614 170.127 33.9854C171.471 33.388 172.975 33.0894 174.639 33.0894C177.69 33.0894 180.175 33.9 182.095 35.5214C182.373 35.756 182.565 35.9907 182.671 36.2254C182.799 36.4387 182.863 36.716 182.863 37.0574C182.863 37.5054 182.725 37.9 182.447 38.2414C182.191 38.5614 181.882 38.7214 181.519 38.7214C181.306 38.7214 181.103 38.6894 180.911 38.6254C180.741 38.5614 180.506 38.444 180.207 38.2734C179.333 37.6334 178.479 37.164 177.647 36.8654C176.837 36.5454 175.834 36.3854 174.639 36.3854C173.189 36.3854 172.037 36.684 171.183 37.2814C170.351 37.8574 169.935 38.668 169.935 39.7134C169.935 40.588 170.309 41.26 171.055 41.7294C171.802 42.1987 173.071 42.636 174.863 43.0414C176.762 43.468 178.298 43.948 179.471 44.4814C180.666 44.9934 181.573 45.6547 182.191 46.4654C182.831 47.276 183.151 48.2894 183.151 49.5054C183.151 50.828 182.778 52.0014 182.031 53.0254C181.306 54.028 180.271 54.8174 178.927 55.3934C177.605 55.948 176.079 56.2254 174.351 56.2254ZM193.873 56.0974C193.233 56.0974 192.721 55.916 192.337 55.5534C191.974 55.1694 191.793 54.668 191.793 54.0494V36.7694H185.969C184.689 36.7694 184.049 36.204 184.049 35.0734C184.049 33.9427 184.689 33.3774 185.969 33.3774H201.745C203.025 33.3774 203.665 33.9427 203.665 35.0734C203.665 36.204 203.025 36.7694 201.745 36.7694H195.921V54.0494C195.921 54.668 195.729 55.1694 195.345 55.5534C194.982 55.916 194.491 56.0974 193.873 56.0974ZM214.81 56.2254C212.613 56.2254 210.703 55.756 209.082 54.8174C207.482 53.8787 206.245 52.5347 205.37 50.7854C204.495 49.036 204.058 46.988 204.058 44.6414C204.058 42.2947 204.485 40.2574 205.338 38.5294C206.213 36.78 207.461 35.436 209.082 34.4974C210.703 33.5587 212.613 33.0894 214.81 33.0894C217.007 33.0894 218.906 33.5587 220.506 34.4974C222.127 35.436 223.365 36.78 224.218 38.5294C225.093 40.2574 225.53 42.2947 225.53 44.6414C225.53 46.988 225.093 49.036 224.218 50.7854C223.343 52.5347 222.095 53.8787 220.474 54.8174C218.874 55.756 216.986 56.2254 214.81 56.2254ZM214.81 52.9294C216.879 52.9294 218.49 52.2147 219.642 50.7854C220.815 49.356 221.402 47.308 221.402 44.6414C221.402 41.9747 220.815 39.9374 219.642 38.5294C218.49 37.1 216.879 36.3854 214.81 36.3854C212.719 36.3854 211.087 37.1 209.914 38.5294C208.762 39.9374 208.186 41.9747 208.186 44.6414C208.186 47.308 208.762 49.356 209.914 50.7854C211.087 52.2147 212.719 52.9294 214.81 52.9294ZM247.748 53.3454C248.004 53.7294 248.132 54.1027 248.132 54.4654C248.132 54.956 247.929 55.3614 247.524 55.6814C247.14 56.0014 246.681 56.1614 246.148 56.1614C245.806 56.1614 245.476 56.0867 245.156 55.9374C244.857 55.7667 244.601 55.5214 244.388 55.2014L240.132 48.7374C239.705 48.0547 239.246 47.5747 238.756 47.2974C238.286 47.02 237.668 46.8814 236.9 46.8814H233.764V54.0494C233.764 54.6894 233.582 55.2014 233.22 55.5854C232.857 55.948 232.366 56.1294 231.748 56.1294C231.129 56.1294 230.628 55.948 230.244 55.5854C229.881 55.2014 229.7 54.6894 229.7 54.0494V35.3294C229.7 34.7107 229.87 34.2307 230.212 33.8894C230.574 33.548 231.065 33.3774 231.684 33.3774H239.684C242.244 33.3774 244.185 33.9534 245.508 35.1054C246.852 36.236 247.524 37.8787 247.524 40.0334C247.524 41.7827 247.022 43.2227 246.02 44.3534C245.038 45.4627 243.641 46.1774 241.828 46.4974C242.446 46.6467 242.99 46.9134 243.46 47.2974C243.929 47.6814 244.388 48.2147 244.836 48.8974L247.748 53.3454ZM239.108 43.7134C240.665 43.7134 241.806 43.4254 242.532 42.8494C243.257 42.252 243.62 41.3454 243.62 40.1294C243.62 38.892 243.257 37.996 242.532 37.4414C241.806 36.8654 240.665 36.5774 239.108 36.5774H233.732V43.7134H239.108ZM253.934 55.9374C253.315 55.9374 252.824 55.7667 252.462 55.4254C252.12 55.084 251.95 54.604 251.95 53.9854V35.3294C251.95 34.7107 252.12 34.2307 252.462 33.8894C252.824 33.548 253.315 33.3774 253.934 33.3774H265.486C266.104 33.3774 266.584 33.516 266.926 33.7934C267.267 34.0707 267.438 34.4654 267.438 34.9774C267.438 35.5107 267.267 35.9267 266.926 36.2254C266.584 36.5027 266.104 36.6414 265.486 36.6414H255.982V42.8494H264.846C265.464 42.8494 265.944 42.988 266.286 43.2654C266.627 43.5427 266.798 43.948 266.798 44.4814C266.798 44.9934 266.627 45.388 266.286 45.6654C265.944 45.9427 265.464 46.0814 264.846 46.0814H255.982V52.6734H265.486C266.104 52.6734 266.584 52.8227 266.926 53.1214C267.267 53.3987 267.438 53.804 267.438 54.3374C267.438 54.8494 267.267 55.244 266.926 55.5214C266.584 55.7987 266.104 55.9374 265.486 55.9374H253.934Z" fill="#B8C0CC"/>
<path d="M62.5934 178.505H368.469V365.822H62.5934V178.505Z" fill="white" stroke="#B8C0CC" stroke-width="2"/>
<path d="M343.137 179.388L327.703 85.7016H287.45L292.728 179.388C292.728 179.388 294.24 204.569 317.946 204.569C341.625 204.569 343.137 179.388 343.137 179.388Z" fill="#D7DEE2" stroke="#B8C0CC" stroke-width="2"/>
<path d="M242.262 179.531V85.7016H191.853V179.388C191.853 179.388 192.595 204.626 217.072 204.626C241.549 204.626 242.262 179.531 242.262 179.531Z" fill="#D7DEE2" stroke="#B8C0CC" stroke-width="2"/>
<path d="M141.444 179.388L142.956 85.7016H101.192L91.0356 179.388C91.0356 179.388 92.1768 200.809 113.23 204.199C134.312 207.56 140.931 188.447 141.444 179.388Z" fill="#D7DEE2" stroke="#B8C0CC" stroke-width="2"/>
<path d="M40.5984 179.388L60.1685 85.7016H101.192L91.0357 179.388C91.0357 179.388 91.0357 204.569 65.817 204.569C40.6269 204.569 40.5984 179.388 40.5984 179.388Z" fill="#FCFDFF" stroke="#B8C0CC" stroke-width="2"/>
<path d="M83.8678 215.452H169.642V366.033H83.8678V215.452Z" fill="white" stroke="#B8C0CC" stroke-width="2"/>
<path d="M287.45 85.7016H242.262V179.531C242.262 179.531 244.915 204.341 267.481 204.711C290.075 205.082 292.699 179.388 292.699 179.388L287.45 85.7016Z" fill="#FCFDFF" stroke="#B8C0CC" stroke-width="2"/>
<path d="M191.882 85.7016V179.388C191.882 179.388 190.741 204.996 166.663 204.626C142.586 204.256 141.444 179.36 141.444 179.36L142.956 85.7016H191.882Z" fill="#FCFDFF" stroke="#B8C0CC" stroke-width="2"/>
<path d="M327.617 86.015C329.843 99.4313 332.096 112.848 334.321 126.264C337.146 143.27 340.113 160.247 342.823 177.252C343.85 183.775 345.105 189.728 349.242 195.198C353.863 201.322 360.881 204.455 368.469 204.683C391.777 205.395 391.805 178.733 391.805 178.733L366.758 85.9865L327.617 86.015Z" fill="#FCFDFF" stroke="#B8C0CC" stroke-width="2"/>
<path d="M197.28 222.123H353.579V309.803H197.28V222.123Z" fill="white" stroke="#B8C0CC" stroke-width="2"/>
<path d="M91.4922 313.616H160.111V356.503H91.4922V313.616Z" fill="white" stroke="#B8C0CC" stroke-width="2"/>
<path d="M91.4922 224.03H160.111V232.607H91.4922V224.03Z" fill="white" stroke="#B8C0CC" stroke-width="2"/>
<path d="M91.4922 237.372H160.111V284.071H91.4922V237.372Z" fill="white" stroke="#B8C0CC" stroke-width="2"/>
<path d="M91.4922 300.047C91.4922 301.21 92.2074 302.179 93.0657 302.179H108.98C109.838 302.179 110.553 301.21 110.553 300.047V298.593C110.553 297.43 109.838 296.461 108.98 296.461H93.0657C92.2074 296.461 91.4922 297.43 91.4922 298.593V300.047Z" fill="white" stroke="#B8C0CC" stroke-width="2"/>
<path d="M54.2751 70.5192H379.344C383.537 70.5192 386.936 73.918 386.936 78.1107C386.936 82.3034 383.537 85.7022 379.344 85.7022H54.2751C50.0825 85.7022 46.6837 82.3034 46.6837 78.1107C46.6837 73.918 50.0825 70.5192 54.2751 70.5192Z" fill="#D7DEE2" stroke="#B8C0CC" stroke-width="2"/>
<path d="M378.923 17.1543L53.8741 17.1543C49.6812 17.1543 46.2842 13.7552 46.2866 9.56235C46.2891 5.36946 49.6901 1.97044 53.883 1.97044L378.931 1.97044C383.124 1.97044 386.521 5.36946 386.519 9.56235C386.516 13.7552 383.115 17.1543 378.923 17.1543Z" fill="#D7DEE2" stroke="#B8C0CC" stroke-width="2"/>
<path d="M50.0278 365.794H381.548C387.071 365.794 391.548 370.271 391.548 375.794V376.047C391.548 381.57 387.071 386.047 381.548 386.047H50.0278C44.5049 386.047 40.0278 381.57 40.0278 376.047V375.794C40.0278 370.271 44.505 365.794 50.0278 365.794Z" fill="#D7DEE2" stroke="#B8C0CC" stroke-width="2"/>
<path d="M427.628 358.848L414.707 306.72H519.409L502.478 358.848H427.628Z" fill="white"/>
<path d="M467.76 317.766L469.492 359.37L500.04 359.092L496.812 317.766H467.76Z" fill="#B8C0CC"/>
<path d="M467.786 318.49L464.092 359.085L469.492 359.37L467.786 318.49Z" fill="#2B2981"/>
<path d="M476.879 322.238C477.338 324.698 478.611 326.729 480.369 327.798C481.286 328.361 482.33 328.626 483.343 328.614C484.693 328.601 485.992 328.101 486.852 327.153C487.902 325.995 488.335 324.275 488.17 321.903C488.144 321.542 488.113 321.175 488.081 320.815C487.985 319.758 487.89 318.746 488.004 317.766L487.005 317.772C486.896 318.816 486.992 319.872 487.087 320.903C487.119 321.258 487.151 321.618 487.176 321.966C487.317 324.06 486.973 325.54 486.107 326.489C484.935 327.785 482.591 327.994 480.885 326.957C479.363 326.027 478.261 324.237 477.854 322.054C477.599 320.676 477.893 319.176 477.982 317.766H476.906C476.811 319.214 476.605 320.777 476.879 322.238Z" fill="#414A4D"/>
<path d="M435.479 294.094L431.192 359.275H487.992L482.824 294.094H435.479Z" fill="#8836DA"/>
<g style="mix-blend-mode:multiply">
<path d="M435.479 294.094L431.192 359.293H438.321L435.479 294.094Z" fill="#8836DA"/>
</g>
<g style="mix-blend-mode:multiply">
<path d="M435.479 294.094L431.192 359.293H438.321L435.479 294.094Z" fill="#8836DA"/>
</g>
<g style="mix-blend-mode:multiply">
<path d="M435.479 294.094L431.192 359.293H438.321L435.479 294.094Z" fill="#8836DA"/>
</g>
<path d="M450.474 301.349C451.219 305.334 453.283 308.629 456.129 310.369C457.613 311.279 459.307 311.71 460.956 311.691C463.147 311.672 465.248 310.862 466.643 309.319C468.343 307.44 469.044 304.657 468.783 300.805C468.745 300.216 468.694 299.628 468.636 299.034C468.483 297.319 468.331 295.681 468.515 294.094H466.684C466.512 295.789 466.872 297.516 467.032 299.179C467.082 299.755 467.133 300.33 467.178 300.906C467.407 304.303 466.847 306.7 465.446 308.243C463.542 310.343 459.746 310.685 456.983 309.002C454.518 307.497 452.729 304.6 452.066 301.051C451.652 298.819 451.473 296.377 451.62 294.094H450.006C449.846 296.447 450.035 298.989 450.474 301.349Z" fill="#414A4D"/>
<path d="M385.983 289.789H410.372L427.589 359.372H502.91L519.409 307.006H414.676" stroke="#B8C0CC" stroke-width="2" stroke-miterlimit="10" stroke-linecap="round" stroke-linejoin="round"/>
<path d="M427.292 359.372C423 359.393 418.924 360.706 418.981 371.646C419.003 375.921 422.579 379.479 426.871 379.458H501.475" stroke="#B8C0CC" stroke-width="2" stroke-miterlimit="10" stroke-linecap="round" stroke-linejoin="round"/>
<path d="M440.501 379.421C440.522 383.383 437.325 386.609 433.363 386.631C429.402 386.653 426.176 383.456 426.154 379.494C426.132 375.532 429.329 372.306 433.291 372.284C437.253 372.27 440.486 375.46 440.501 379.421Z" fill="#B8C0CC"/>
<path d="M494.301 379.421C494.323 383.383 491.126 386.609 487.164 386.631C483.202 386.653 479.976 383.456 479.955 379.494C479.933 375.532 483.13 372.306 487.092 372.284C491.054 372.263 494.287 375.46 494.301 379.421Z" fill="#B8C0CC"/>
<path d="M436.197 307.006L439.066 359.372" stroke="#B8C0CC" stroke-width="2" stroke-miterlimit="10" stroke-linecap="round" stroke-linejoin="round"/>
<path d="M451.978 307.006L453.413 359.372" stroke="#B8C0CC" stroke-width="2" stroke-miterlimit="10" stroke-linecap="round" stroke-linejoin="round"/>
<path d="M467.043 307.006L467.76 359.372" stroke="#B8C0CC" stroke-width="2" stroke-miterlimit="10" stroke-linecap="round" stroke-linejoin="round"/>
<path d="M482.824 307.006L481.389 359.372" stroke="#B8C0CC" stroke-width="2" stroke-miterlimit="10" stroke-linecap="round" stroke-linejoin="round"/>
<path d="M499.323 307.006L495.736 359.372" stroke="#B8C0CC" stroke-width="2" stroke-miterlimit="10" stroke-linecap="round" stroke-linejoin="round"/>
<path d="M418.981 322.07H514.387" stroke="#B8C0CC" stroke-width="2" stroke-miterlimit="10" stroke-linecap="round" stroke-linejoin="round"/>
<path d="M423.284 341.438H507.931" stroke="#B8C0CC" stroke-width="2" stroke-miterlimit="10" stroke-linecap="round" stroke-linejoin="round"/>
<path d="M307.851 349.417C295.443 358.409 271.141 359.838 254.463 347.449" stroke="#B8C0CC" stroke-width="2" stroke-linecap="round"/>
<circle r="4.76522" transform="matrix(-1 0 0 1 254.463 347.925)" fill="#B8C0CC"/>
<path d="M332.55 387H377.631C387.508 387 395.513 378.994 395.513 369.116V324.03C395.513 291.431 369.095 265.01 336.501 265.01H332.535C299.941 265.01 273.523 291.431 273.523 324.03V327.996C273.553 360.579 299.97 387 332.55 387Z" fill="white"/>
<path d="M353.579 334.583C353.897 340.777 352.245 355.168 343.096 363.174" stroke="#B8C0CC" stroke-width="2" stroke-linecap="round"/>
<circle r="5.1788" transform="matrix(-1 0 0 1 342.682 363.587)" fill="#B8C0CC"/>
<path opacity="0.4" d="M377.825 326.005V368.511C377.825 378.714 369.493 387 359.201 387H376.889C387.181 387 395.513 378.714 395.513 368.511V326.005C395.513 292.316 368.008 265.01 334.073 265.01C331.073 265.01 328.118 265.217 325.236 265.644C354.969 269.891 377.825 295.294 377.825 326.005Z" fill="#B8C0CC" fill-opacity="0.4"/>
<path d="M336.509 267.959C367.426 267.959 392.579 293.109 392.579 324.022V369.103C392.579 377.344 385.885 384.037 377.644 384.037H332.557C301.64 384.037 276.487 358.887 276.487 327.973V324.008C276.487 293.094 301.64 267.944 332.557 267.944H336.509V267.959ZM336.509 265.01H332.543C299.944 265.01 273.523 291.428 273.523 324.022V327.988C273.523 360.582 299.944 387 332.543 387H377.629C387.507 387 395.513 378.995 395.513 369.118V324.037C395.528 291.428 369.107 265.01 336.509 265.01Z" fill="#B8C0CC"/>
<path d="M314.272 334.531C314.272 338.154 310.71 341.09 306.316 341.09C301.922 341.09 298.36 338.154 298.36 334.531" stroke="#D7DEE2" stroke-width="2" stroke-linecap="round"/>
<path d="M327.424 310.297L323.981 303.472L317.586 307.661L320.558 313.553C320.815 314.062 321.429 314.225 321.907 313.912L327.424 310.297Z" fill="#E64C3C"/>
<ellipse rx="3.88078" ry="3.96222" transform="matrix(-0.550485 -0.834845 -0.796744 0.604318 325.985 306.697)" fill="#E64C3C"/>
<ellipse rx="3.88078" ry="3.96222" transform="matrix(-0.550485 -0.834845 -0.796744 0.604318 320.619 305.259)" fill="#E64C3C"/>
<path d="M286.927 310.297L290.37 303.472L296.765 307.661L293.793 313.553C293.536 314.062 292.922 314.225 292.444 313.912L286.927 310.297Z" fill="#E64C3C"/>
<ellipse rx="3.88078" ry="3.96222" transform="matrix(0.550485 -0.834845 0.796744 0.604318 288.366 306.697)" fill="#E64C3C"/>
<ellipse rx="3.88078" ry="3.96222" transform="matrix(0.550485 -0.834845 0.796744 0.604318 293.732 305.259)" fill="#E64C3C"/>
<path d="M164.939 387H119.858C109.981 387 101.976 378.994 101.976 369.116V324.03C101.976 291.431 128.393 265.01 160.988 265.01H164.953C197.548 265.01 223.965 291.431 223.965 324.03V327.996C223.95 360.579 197.533 387 164.939 387Z" fill="white"/>
<path opacity="0.4" d="M119.33 326.005V368.511C119.33 378.714 127.504 387 137.602 387H120.248C110.15 387 101.976 378.714 101.976 368.511V326.005C101.976 292.316 128.961 265.01 162.256 265.01C165.2 265.01 168.099 265.217 170.926 265.644C141.755 269.891 119.33 295.294 119.33 326.005Z" fill="#521F85" fill-opacity="0.4"/>
<path d="M164.961 267.959C195.878 267.959 221.031 293.112 221.031 324.03V327.996C221.031 358.913 195.878 384.066 164.961 384.066H119.875C111.633 384.066 104.939 377.372 104.939 369.131V324.044C104.939 293.127 130.092 267.974 161.01 267.974H164.961V267.959ZM164.961 265.01H160.995C128.396 265.01 101.976 291.431 101.976 324.03V369.116C101.976 378.994 109.982 387 119.86 387H164.946C197.544 387 223.965 360.579 223.965 327.981V324.015C223.98 291.431 197.559 265.01 164.961 265.01Z" fill="#8836DA"/>
<path d="M196.12 311.419C196.12 308.49 198.494 306.116 201.424 306.116C204.353 306.116 206.728 308.49 206.728 311.419" stroke="#D7DEE2" stroke-width="2" stroke-linecap="round"/>
<path d="M168.274 311.419C168.274 308.49 170.649 306.116 173.578 306.116C176.507 306.116 178.882 308.49 178.882 311.419" stroke="#D7DEE2" stroke-width="2" stroke-linecap="round"/>
<path d="M182.86 335.287C184.069 336.897 185.995 337.939 188.164 337.939C190.333 337.939 192.259 336.897 193.468 335.287" stroke="#D7DEE2" stroke-width="2" stroke-linecap="round"/>
<path d="M147.059 327.331C144.863 342.207 152.963 362.697 174.407 364.127" stroke="#8836DA" stroke-width="2" stroke-linecap="round"/>
<circle r="5.30389" transform="matrix(-1 0 0 1 174.821 363.713)" fill="#8836DA"/>
<rect x="428.917" y="82.073" width="118.083" height="93.3043" rx="13" fill="white" stroke="#B8C0CC" stroke-width="2"/>
<mask id="path-64-inside-1" fill="white">
<path fill-rule="evenodd" clip-rule="evenodd" d="M448.447 137.505C447.872 137.872 447.523 138.508 447.523 139.191V154.824C447.523 155.928 448.419 156.824 449.523 156.824H456.489C457.593 156.824 458.489 155.928 458.489 154.824V133.623C458.489 132.858 457.869 132.238 457.104 132.238C456.84 132.238 456.581 132.313 456.359 132.455L448.447 137.505ZM464.895 127.006C464.32 127.373 463.972 128.009 463.972 128.692V154.824C463.972 155.928 464.867 156.824 465.972 156.824H472.937C474.041 156.824 474.937 155.928 474.937 154.824V123.039C474.937 122.3 474.338 121.701 473.598 121.701C473.343 121.701 473.093 121.773 472.878 121.911L464.895 127.006ZM481.344 116.507C480.768 116.875 480.42 117.51 480.42 118.193V154.824C480.42 155.928 481.315 156.824 482.42 156.824H489.385C490.49 156.824 491.385 155.928 491.385 154.824V112.456C491.385 111.742 490.806 111.164 490.093 111.164C489.846 111.164 489.605 111.234 489.398 111.366L481.344 116.507ZM497.792 106.009C497.216 106.376 496.868 107.012 496.868 107.695V154.824C496.868 155.928 497.763 156.824 498.868 156.824H505.833C506.938 156.824 507.833 155.928 507.833 154.824V101.872C507.833 101.184 507.275 100.626 506.587 100.626C506.35 100.626 506.117 100.694 505.917 100.822L497.792 106.009Z"/>
</mask>
<path fill-rule="evenodd" clip-rule="evenodd" d="M448.447 137.505C447.872 137.872 447.523 138.508 447.523 139.191V154.824C447.523 155.928 448.419 156.824 449.523 156.824H456.489C457.593 156.824 458.489 155.928 458.489 154.824V133.623C458.489 132.858 457.869 132.238 457.104 132.238C456.84 132.238 456.581 132.313 456.359 132.455L448.447 137.505ZM464.895 127.006C464.32 127.373 463.972 128.009 463.972 128.692V154.824C463.972 155.928 464.867 156.824 465.972 156.824H472.937C474.041 156.824 474.937 155.928 474.937 154.824V123.039C474.937 122.3 474.338 121.701 473.598 121.701C473.343 121.701 473.093 121.773 472.878 121.911L464.895 127.006ZM481.344 116.507C480.768 116.875 480.42 117.51 480.42 118.193V154.824C480.42 155.928 481.315 156.824 482.42 156.824H489.385C490.49 156.824 491.385 155.928 491.385 154.824V112.456C491.385 111.742 490.806 111.164 490.093 111.164C489.846 111.164 489.605 111.234 489.398 111.366L481.344 116.507ZM497.792 106.009C497.216 106.376 496.868 107.012 496.868 107.695V154.824C496.868 155.928 497.763 156.824 498.868 156.824H505.833C506.938 156.824 507.833 155.928 507.833 154.824V101.872C507.833 101.184 507.275 100.626 506.587 100.626C506.35 100.626 506.117 100.694 505.917 100.822L497.792 106.009Z" fill="white"/>
<path d="M505.917 100.822L506.993 102.508L505.917 100.822ZM497.792 106.009L498.868 107.695L497.792 106.009ZM489.398 111.366L490.474 113.052L489.398 111.366ZM481.344 116.507L480.267 114.822L481.344 116.507ZM464.895 127.006L463.819 125.32L464.895 127.006ZM456.359 132.455L455.283 130.769L456.359 132.455ZM448.447 137.505L447.371 135.819L448.447 137.505ZM449.523 154.824V139.191H445.523V154.824H449.523ZM456.489 154.824H449.523V158.824H456.489V154.824ZM456.489 133.623V154.824H460.489V133.623H456.489ZM455.283 130.769L447.371 135.819L449.523 139.191L457.435 134.141L455.283 130.769ZM461.972 128.692V154.824H465.972V128.692H461.972ZM465.972 158.824H472.937V154.824H465.972V158.824ZM476.937 154.824V123.039H472.937V154.824H476.937ZM471.802 120.225L463.819 125.32L465.972 128.692L473.954 123.597L471.802 120.225ZM482.42 154.824V118.193H478.42V154.824H482.42ZM489.385 154.824H482.42V158.824H489.385V154.824ZM489.385 112.456V154.824H493.385V112.456H489.385ZM488.322 109.681L480.267 114.822L482.42 118.193L490.474 113.052L488.322 109.681ZM494.868 107.695V154.824H498.868V107.695H494.868ZM498.868 158.824H505.833V154.824H498.868V158.824ZM509.833 154.824V101.872H505.833V154.824H509.833ZM504.841 99.1363L496.715 104.323L498.868 107.695L506.993 102.508L504.841 99.1363ZM506.587 98.6265C505.969 98.6265 505.363 98.8034 504.841 99.1363L506.993 102.508C506.872 102.585 506.731 102.626 506.587 102.626V98.6265ZM509.833 101.872C509.833 100.08 508.38 98.6265 506.587 98.6265V102.626C506.171 102.626 505.833 102.289 505.833 101.872H509.833ZM505.833 158.824C508.042 158.824 509.833 157.033 509.833 154.824H505.833V158.824ZM494.868 154.824C494.868 157.033 496.658 158.824 498.868 158.824V154.824H494.868ZM498.868 107.695L496.715 104.323C495.564 105.058 494.868 106.329 494.868 107.695H498.868ZM490.093 109.164C489.465 109.164 488.851 109.343 488.322 109.681L490.474 113.052C490.36 113.125 490.228 113.164 490.093 113.164V109.164ZM493.385 112.456C493.385 110.637 491.911 109.164 490.093 109.164V113.164C489.702 113.164 489.385 112.847 489.385 112.456H493.385ZM489.385 158.824C491.594 158.824 493.385 157.033 493.385 154.824H489.385V158.824ZM482.42 118.193L480.267 114.822C479.116 115.556 478.42 116.828 478.42 118.193H482.42ZM478.42 154.824C478.42 157.033 480.21 158.824 482.42 158.824V154.824H478.42ZM473.598 119.701C472.962 119.701 472.339 119.882 471.802 120.225L473.954 123.597C473.848 123.664 473.724 123.701 473.598 123.701V119.701ZM476.937 123.039C476.937 121.195 475.442 119.701 473.598 119.701V123.701C473.233 123.701 472.937 123.404 472.937 123.039H476.937ZM472.937 158.824C475.146 158.824 476.937 157.033 476.937 154.824H472.937H472.937V158.824ZM461.972 154.824C461.972 157.033 463.762 158.824 465.972 158.824V154.824H461.972ZM465.972 128.692L463.819 125.32C462.668 126.055 461.972 127.326 461.972 128.692H465.972ZM457.104 130.238C456.459 130.238 455.827 130.422 455.283 130.769L457.435 134.141C457.336 134.204 457.221 134.238 457.104 134.238V130.238ZM460.489 133.623C460.489 131.753 458.973 130.238 457.104 130.238V134.238C456.764 134.238 456.489 133.962 456.489 133.623H460.489ZM456.489 158.824C458.698 158.824 460.489 157.033 460.489 154.824H456.489V158.824ZM449.523 139.191H449.523L447.371 135.819C446.22 136.554 445.523 137.825 445.523 139.191H449.523ZM445.523 154.824C445.523 157.033 447.314 158.824 449.523 158.824V154.824H449.523H445.523Z" fill="#B8C0CC" mask="url(#path-64-inside-1)"/>
<path d="M527.393 136.145C527.393 145.115 520.164 152.377 511.26 152.377C502.355 152.377 495.126 145.115 495.126 136.145C495.126 127.175 502.355 119.913 511.26 119.913C520.164 119.913 527.393 127.175 527.393 136.145Z" fill="white" stroke="#B8C0CC" stroke-width="2"/>
<path d="M523.966 136.145C523.966 143.212 518.272 148.931 511.26 148.931C504.247 148.931 498.553 143.212 498.553 136.145C498.553 129.078 504.247 123.359 511.26 123.359C518.272 123.359 523.966 129.078 523.966 136.145Z" fill="white" stroke="#B8C0CC" stroke-width="2"/>
<path d="M511.48 141.223C511.943 141.164 512.28 141.058 512.491 140.906C512.86 140.637 513.045 140.171 513.045 139.509C513.045 139.005 512.872 138.606 512.526 138.313C512.321 138.143 511.972 137.968 511.48 137.786V141.223ZM510.645 132.038C510.135 132.05 509.758 132.187 509.511 132.451C509.265 132.709 509.142 133.063 509.142 133.515C509.142 134.007 509.327 134.396 509.696 134.683C509.901 134.842 510.217 134.988 510.645 135.123V132.038ZM511.498 144.949H510.645V143.2C509.491 143.071 508.63 142.819 508.061 142.444C507.059 141.77 506.567 140.622 506.585 138.999H508.958C509.04 139.737 509.154 140.232 509.3 140.484C509.529 140.877 509.977 141.132 510.645 141.249V137.496L509.933 137.285C508.814 136.957 508.023 136.5 507.56 135.914C507.103 135.328 506.875 134.622 506.875 133.796C506.875 133.251 506.963 132.756 507.138 132.31C507.32 131.865 507.572 131.481 507.894 131.159C508.31 130.743 508.773 130.456 509.283 130.298C509.593 130.198 510.048 130.125 510.645 130.078V128.909H511.48V130.096C512.435 130.172 513.185 130.406 513.73 130.799C514.72 131.426 515.233 132.442 515.268 133.849H512.957C512.91 133.327 512.822 132.946 512.693 132.706C512.47 132.29 512.066 132.061 511.48 132.02V135.369C512.875 135.849 513.812 136.274 514.293 136.643C515.084 137.259 515.479 138.126 515.479 139.245C515.479 140.722 514.937 141.794 513.853 142.462C513.191 142.872 512.406 143.112 511.498 143.182V144.949Z" fill="#B8C0CC"/>
</svg>
