<svg width="108" height="108" viewBox="0 0 108 108" fill="none" xmlns="http://www.w3.org/2000/svg">
<circle cx="54" cy="54" r="53" fill="#F0F4F7" stroke="white" stroke-width="2"/>
<path d="M28 86H76.25C79.5637 86 82.25 83.3137 82.25 80V38C82.25 34.6863 84.9363 32 88.25 32H90" stroke="#B8C0CC" stroke-width="2" stroke-linecap="round"/>
<path d="M82 43.282C82 41.5448 80.5291 40.1708 78.7959 40.289L30.7959 43.5617C29.2219 43.669 28 44.9771 28 46.5547V73.4453C28 75.0229 29.2219 76.331 30.7959 76.4383L78.7959 79.711C80.5291 79.8292 82 78.4552 82 76.718V43.282Z" fill="white" stroke="#8836DA" stroke-width="2"/>
<circle cx="40.8462" cy="89.8462" r="3.84615" fill="white" stroke="#B8C0CC" stroke-width="2"/>
<circle cx="70" cy="90" r="4" fill="white" stroke="#B8C0CC" stroke-width="2"/>
<g opacity="0.8">
<mask id="path-6-inside-1" fill="white">
<rect x="60.0001" y="57" width="8" height="16" rx="1"/>
</mask>
<rect x="60.0001" y="57" width="8" height="16" rx="1" fill="white" stroke="#B8C0CC" stroke-width="4" mask="url(#path-6-inside-1)"/>
</g>
<g opacity="0.8">
<mask id="path-7-inside-2" fill="white">
<rect x="51" y="60" width="8" height="13" rx="1"/>
</mask>
<rect x="51" y="60" width="8" height="13" rx="1" fill="white" stroke="#B8C0CC" stroke-width="4" mask="url(#path-7-inside-2)"/>
</g>
<g opacity="0.8">
<mask id="path-8-inside-3" fill="white">
<rect x="42" y="64" width="8" height="9" rx="1"/>
</mask>
<rect x="42" y="64" width="8" height="9" rx="1" fill="white" stroke="#B8C0CC" stroke-width="4" mask="url(#path-8-inside-3)"/>
</g>
<circle cx="64.0001" cy="51" r="3.5" fill="white" stroke="#8836DA"/>
<path d="M65.376 51.675C65.376 51.945 65.2826 52.1733 65.096 52.36C64.9126 52.5433 64.6643 52.6616 64.351 52.715V53C64.351 53.09 64.3226 53.1616 64.266 53.215C64.2126 53.2716 64.141 53.3 64.051 53.3C63.9643 53.3 63.8926 53.2716 63.836 53.215C63.7793 53.1616 63.751 53.09 63.751 53V52.73C63.5676 52.7133 63.3893 52.675 63.216 52.615C63.046 52.555 62.896 52.4783 62.766 52.385C62.7126 52.3516 62.6743 52.315 62.651 52.275C62.631 52.2316 62.621 52.1783 62.621 52.115C62.621 52.0316 62.646 51.9583 62.696 51.895C62.7493 51.8316 62.8093 51.8 62.876 51.8C62.9393 51.8 63.0176 51.8266 63.111 51.88C63.2643 51.97 63.4093 52.0366 63.546 52.08C63.686 52.12 63.831 52.14 63.981 52.14C64.181 52.14 64.3343 52.1033 64.441 52.03C64.5476 51.9533 64.601 51.8466 64.601 51.71C64.601 51.6266 64.5693 51.5583 64.506 51.505C64.446 51.4516 64.371 51.41 64.281 51.38C64.191 51.35 64.061 51.3116 63.891 51.265C63.6443 51.2016 63.441 51.1383 63.281 51.075C63.121 51.0116 62.9826 50.9116 62.866 50.775C62.7526 50.6383 62.696 50.455 62.696 50.225C62.696 49.955 62.791 49.7233 62.981 49.53C63.1743 49.3366 63.426 49.2133 63.736 49.16V48.875C63.736 48.785 63.7643 48.7133 63.821 48.66C63.8776 48.6033 63.9493 48.575 64.036 48.575C64.126 48.575 64.1976 48.6033 64.251 48.66C64.3076 48.7133 64.336 48.785 64.336 48.875V49.15C64.636 49.19 64.9176 49.3033 65.181 49.49C65.231 49.5233 65.266 49.5616 65.286 49.605C65.3093 49.6483 65.321 49.7 65.321 49.76C65.321 49.8433 65.2943 49.9166 65.241 49.98C65.191 50.0433 65.1326 50.075 65.066 50.075C65.0293 50.075 64.9943 50.07 64.961 50.06C64.931 50.05 64.8876 50.0283 64.831 49.995C64.6943 49.9083 64.571 49.8433 64.461 49.8C64.3543 49.7566 64.2226 49.735 64.066 49.735C63.886 49.735 63.741 49.775 63.631 49.855C63.5243 49.935 63.471 50.0416 63.471 50.175C63.471 50.2683 63.5026 50.345 63.566 50.405C63.6293 50.4616 63.7093 50.5066 63.806 50.54C63.9026 50.5733 64.0376 50.6116 64.211 50.655C64.4543 50.715 64.6526 50.7766 64.806 50.84C64.9626 50.9 65.096 50.9983 65.206 51.135C65.3193 51.2683 65.376 51.4483 65.376 51.675Z" fill="#8836DA"/>
</svg>
