<svg width="104" height="104" viewBox="0 0 104 104" fill="none" xmlns="http://www.w3.org/2000/svg">
<circle cx="52" cy="52" r="51" fill="#F0F4F7" stroke="white" stroke-width="2"/>
<path d="M62.6765 32.2154C62.6765 36.3328 59.3099 39.6809 55.1441 39.6809C50.9782 39.6809 47.6116 36.3328 47.6116 32.2154C47.6116 28.0981 50.9782 24.75 55.1441 24.75C59.3099 24.75 62.6765 28.0981 62.6765 32.2154Z" fill="white" stroke="#B8C0CC" stroke-width="1.5"/>
<path d="M40.7098 57.1693C40.7098 49.8515 46.642 43.9193 53.9598 43.9193H56.3287C63.6464 43.9193 69.5787 49.8515 69.5787 57.1693V57.6002C69.5787 58.2905 69.019 58.8502 68.3287 58.8502H41.9598C41.2694 58.8502 40.7098 58.2905 40.7098 57.6002V57.1693Z" fill="white" stroke="#B8C0CC" stroke-width="1.5"/>
<path d="M46.3844 58.8503H46.3853C46.1312 58.5774 45.8597 58.2689 45.5877 57.9317C44.5305 56.6209 43.3509 54.7362 43.3509 52.7541V52.7392V52.7242V52.7091V52.6939V52.6785V52.6631V52.6476V52.632V52.6162V52.6004V52.5845V52.5684V52.5523V52.5361V52.5198V52.5033V52.4868V52.4702V52.4535V52.4367V52.4198V52.4028V52.3857V52.3685V52.3512V52.3338V52.3164V52.2988V52.2811V52.2634V52.2455V52.2276V52.2096V52.1914V52.1732V52.1549V52.1365V52.1181V52.0995V52.0808V52.0621V52.0432V52.0243V52.0053V51.9862V51.967V51.9477V51.9284V51.9089V51.8894V51.8698V51.8501V51.8303V51.8104V51.7904V51.7704V51.7503V51.7301V51.7098V51.6894V51.669V51.6484V51.6278V51.6071V51.5864V51.5655V51.5446V51.5236V51.5025V51.4813V51.4601V51.4387V51.4173V51.3959V51.3743V51.3527V51.331V51.3092V51.2873V51.2654V51.2434V51.2213V51.1991V51.1769V51.1546V51.1322V51.1098V51.0873V51.0647V51.042V51.0193V50.9965V50.9736V50.9507V50.9277V50.9046V50.8815V50.8582V50.835V50.8116V50.7882V50.7647V50.7412V50.7175V50.6939V50.6701V50.6463V50.6224V50.5985V50.5745V50.5504V50.5263V50.5021V50.4778V50.4535V50.4291V50.4047V50.3802V50.3556V50.331V50.3063V50.2815V50.2567V50.2319V50.207V50.182V50.1569V50.1318V50.1067V50.0815V50.0562V50.0309V50.0055V49.9801V49.9546V49.9291V49.9035V49.8778V49.8521V49.8264V49.8006V49.7747V49.7488V49.7228V49.6968V49.6707V49.6446V49.6185V49.5922V49.566V49.5397V49.5133V49.4869V49.4604V49.4339V49.4074V49.3808V49.3541V49.3274V49.3007V49.2739V49.2471V49.2202V49.1933V49.1663V49.1393V49.1122V49.0851V49.058V49.0308V49.0036V48.9763V48.949V48.9217V48.8943V48.8669V48.8394V48.8119V48.7844V48.7568V48.7292V48.7015V48.6738V48.6461V48.6183V48.5905V48.5627V48.5348V48.5069V48.4789V48.451V48.4229V48.3949V48.3668V48.3387V48.3105V48.2824V48.2541V48.2259V48.1976V48.1693V48.141V48.1126V48.0842V48.0558V48.0273V47.9988V47.9703V47.9418V47.9132V47.8846V47.856V47.8273V47.7986V47.7699V47.7412V47.7125V47.6837V47.6549V47.626V47.5972V47.5683V47.5394V47.5105V47.4815V47.4526V47.4236V47.3946V47.3655V47.3365V47.3074V47.2783V47.2492V47.2201V47.1909V47.1618V47.1326V47.1034V47.0742V47.0449V47.0157V46.9864V46.9571V46.9278V46.8985V46.8692V46.8398V46.8105V46.7811V46.7517V46.7223V46.6929V46.6635V46.634V46.6046V46.5751V46.5457V46.5162V46.4867V46.4572V46.4277V46.3982V46.3686V46.3391V46.3096V46.28V46.2505V46.2209V46.1913V46.1617V46.1322V46.1026V46.073V46.0434V46.0138V45.9842V45.9546V45.925V45.8953V45.8657V45.8361V45.8065V45.7769V45.7472V45.7176V45.688V45.6584V45.6287V45.5991V45.5695V45.5399V45.5102V45.4806V45.451V45.4214V45.3918V45.3622V45.3326V45.303V45.2734V45.2438V45.2142V45.1847V45.1551V45.1255V45.096V45.0664V45.0369V45.0073V44.9778V44.9483V44.9188V44.8893V44.8598V44.8303V44.8009V44.7714V44.742V44.7125V44.6831V44.6537V44.6243V44.5949V44.5656V44.5362V44.5069V44.4775V44.4482V44.4189V44.3896V44.3604V44.3311V44.3019V44.2727V44.2435V44.2143V44.1851V44.156V44.1269V44.0978V44.0687V44.0396V44.0106V43.9815V43.9525V43.9235V43.8946V43.8656V43.8367V43.8078V43.779V43.7501V43.7213V43.6925V43.6637V43.635V43.6062V43.5775V43.5489V43.5202V43.4916V43.463V43.4344V43.4059V43.3774V43.3489V43.3205V43.292V43.2637V43.2353V43.207V43.1787V43.1504V43.1221V43.0939V43.0658V43.0376V43.0095V42.9814V42.9534V42.9254V42.8974V42.8695V42.8416V42.8137V42.7859V42.7581V42.7303V42.7026V42.6749V42.6473V42.6196V42.5921V42.5645V42.537V42.5096V42.4822V42.4548V42.4275V42.4002V42.3729V42.3457V42.3185V42.2914V42.2643V42.2373V42.2103V42.1833V42.1564V42.1296V42.1027V42.076V42.0492V42.0225V41.9959V41.9693V41.9428V41.9163V41.8898V41.8634V41.8371V41.8108V41.7845V41.7583V41.7322V41.7061V41.68V41.654V41.628V41.6021V41.5763V41.5505V41.5248V41.4991V41.4734V41.4478V41.4223V41.3968V41.3714V41.3461V41.3208V41.2955V41.2703V41.2452V41.2201V41.1951V41.1701V41.1452V41.1203V41.0956V41.0708V41.0461V41.0215V40.997V40.9725V40.9481V40.9237V40.8994V40.8751V40.851V40.8269V40.8028V40.7788V40.7549V40.731V40.7072V40.6835V40.6598V40.6362V40.6127V40.5892V40.5658V40.5425V40.5192V40.496V40.4729V40.4498V40.4268V40.4039V40.381V40.3582V40.3355V40.3129V40.2903V40.2678V40.2454V40.223V40.2007V40.1785V40.1564V40.1343V40.1123V40.0904V40.0686V40.0468V40.0251V40.0035V39.982V39.9605V39.9391V39.9178V39.8966V39.8755V39.8544V39.8334V39.8125V39.7916V39.7709V39.7502V39.7296V39.7091V39.6887C43.3509 39.0002 42.7932 38.4425 42.1009 38.4425H37.8185C37.1267 38.4425 36.5685 39.0006 36.5685 39.6895V39.7085V39.7275V39.7466V39.7658V39.7851V39.8044V39.8238V39.8432V39.8627V39.8823V39.902V39.9217V39.9415V39.9614V39.9813V40.0013V40.0214V40.0415V40.0617V40.082V40.1023V40.1227V40.1432V40.1637V40.1843V40.205V40.2257V40.2465V40.2674V40.2883V40.3093V40.3303V40.3514V40.3726V40.3939V40.4152V40.4365V40.4579V40.4794V40.501V40.5226V40.5442V40.566V40.5877V40.6096V40.6315V40.6535V40.6755V40.6976V40.7197V40.7419V40.7642V40.7865V40.8088V40.8313V40.8538V40.8763V40.8989V40.9216V40.9443V40.967V40.9898V41.0127V41.0357V41.0586V41.0817V41.1048V41.1279V41.1511V41.1744V41.1977V41.221V41.2444V41.2679V41.2914V41.315V41.3386V41.3623V41.386V41.4098V41.4336V41.4574V41.4814V41.5053V41.5293V41.5534V41.5775V41.6017V41.6259V41.6502V41.6745V41.6988V41.7232V41.7477V41.7721V41.7967V41.8213V41.8459V41.8706V41.8953V41.9201V41.9449V41.9697V41.9946V42.0196V42.0445V42.0696V42.0946V42.1198V42.1449V42.1701V42.1953V42.2206V42.2459V42.2713V42.2967V42.3222V42.3476V42.3732V42.3987V42.4243V42.45V42.4757V42.5014V42.5271V42.5529V42.5788V42.6046V42.6305V42.6565V42.6825V42.7085V42.7345V42.7606V42.7867V42.8129V42.8391V42.8653V42.8916V42.9179V42.9442V42.9706V42.997V43.0234V43.0499V43.0764V43.1029V43.1295V43.1561V43.1827V43.2094V43.2361V43.2628V43.2895V43.3163V43.3431V43.37V43.3968V43.4237V43.4507V43.4776V43.5046V43.5316V43.5587V43.5857V43.6128V43.64V43.6671V43.6943V43.7215V43.7487V43.776V43.8032V43.8306V43.8579V43.8852V43.9126V43.94V43.9674V43.9949V44.0224V44.0499V44.0774V44.1049V44.1325V44.1601V44.1877V44.2153V44.243V44.2706V44.2983V44.326V44.3538V44.3815V44.4093V44.4371V44.4649V44.4927V44.5205V44.5484V44.5763V44.6042V44.6321V44.66V44.688V44.716V44.7439V44.7719V44.7999V44.828V44.856V44.8841V44.9122V44.9402V44.9684V44.9965V45.0246V45.0527V45.0809V45.1091V45.1373V45.1654V45.1937V45.2219V45.2501V45.2783V45.3066V45.3349V45.3631V45.3914V45.4197V45.448V45.4763V45.5046V45.533V45.5613V45.5896V45.618V45.6464V45.6747V45.7031V45.7315V45.7599V45.7883V45.8167V45.8451V45.8735V45.9019V45.9303V45.9588V45.9872V46.0156V46.0441V46.0725V46.101V46.1294V46.1579V46.1863V46.2148V46.2432V46.2717V46.3002V46.3286V46.3571V46.3856V46.414V46.4425V46.471V46.4994V46.5279V46.5563V46.5848V46.6133V46.6417V46.6702V46.6986V46.7271V46.7556V46.784V46.8124V46.8409V46.8693V46.8977V46.9262V46.9546V46.983V47.0114V47.0398V47.0682V47.0966V47.125V47.1534V47.1818V47.2101V47.2385V47.2669V47.2952V47.3235V47.3519V47.3802V47.4085V47.4368V47.4651V47.4934V47.5217V47.5499V47.5782V47.6064V47.6346V47.6629V47.6911V47.7193V47.7474V47.7756V47.8038V47.8319V47.86V47.8882V47.9163V47.9443V47.9724V48.0005V48.0285V48.0566V48.0846V48.1126V48.1406V48.1685V48.1965V48.2244V48.2523V48.2802V48.3081V48.336V48.3638V48.3916V48.4194V48.4472V48.475V48.5028V48.5305V48.5582V48.5859V48.6136V48.6412V48.6688V48.6964V48.724V48.7516V48.7791V48.8066V48.8341V48.8616V48.8891V48.9165V48.9439V48.9713V48.9986V49.026V49.0533V49.0805V49.1078V49.135V49.1622V49.1894V49.2165V49.2437V49.2708V49.2978V49.3249V49.3519V49.3789V49.4058V49.4328V49.4597V49.4865V49.5134V49.5402V49.567V49.5937V49.6204V49.6471V49.6738V49.7004V49.727V49.7536V49.7801V49.8066V49.8331V49.8595V49.8859V49.9123V49.9386V49.9649V49.9912V50.0174V50.0436V50.0698V50.0959V50.122V50.148V50.174V50.2V50.226V50.2519V50.2777V50.3036V50.3294V50.3551V50.3808V50.4065V50.4322V50.4578V50.4833V50.5089V50.5343V50.5598V50.5852V50.6106V50.6359V50.6612V50.6864V50.7116V50.7367V50.7619V50.7869V50.812V50.8369V50.8619V50.8868V50.9116V50.9364V50.9612V50.9859V51.0106V51.0352V51.0598V51.0843V51.1088V51.1333V51.1577V51.182V51.2063V51.2306V51.2548V51.279V51.3031V51.3271V51.3512V51.3751V51.399V51.4229V51.4467V51.4705V51.4942V51.5179V51.5415V51.5651V51.5886V51.612V51.6355V51.6588V51.6821V51.7054V51.7286V51.7517V51.7748V51.7979V51.8208V51.8438V51.8666V51.8895V51.9122V51.9349V51.9576V51.9802V52.0027V52.0252V52.0476V52.07V52.0923V52.1146V52.1368V52.1589V52.181V52.203V52.225V52.2469V52.2687V52.2905V52.3123V52.3339V52.3555V52.3771V52.3985V52.42V52.4413V52.4626V52.4839V52.505V52.5261V52.5472V52.5682V52.5891V52.61V52.6307V52.6515V52.6721V52.6927V52.7133V52.7337V52.7541C36.5685 54.9086 37.4901 56.4198 38.6368 57.4056C39.8115 58.4154 41.1951 58.8503 42.0303 58.8503H42.0425H42.0547H42.0669H42.0792H42.0916H42.104H42.1164H42.1289H42.1414H42.154H42.1666H42.1792H42.1919H42.2047H42.2175H42.2303H42.2432H42.2561H42.2691H42.2821H42.2951H42.3082H42.3213H42.3345H42.3477H42.361H42.3743H42.3876H42.401H42.4144H42.4278H42.4413H42.4548H42.4684H42.482H42.4956H42.5093H42.523H42.5368H42.5506H42.5644H42.5783H42.5921H42.6061H42.62H42.634H42.6481H42.6622H42.6763H42.6904H42.7046H42.7188H42.733H42.7473H42.7616H42.7759H42.7903H42.8047H42.8191H42.8336H42.8481H42.8626H42.8771H42.8917H42.9063H42.921H42.9356H42.9503H42.9651H42.9798H42.9946H43.0094H43.0243H43.0391H43.054H43.0689H43.0839H43.0989H43.1139H43.1289H43.1439H43.159H43.1741H43.1892H43.2044H43.2195H43.2347H43.2499H43.2652H43.2804H43.2957H43.311H43.3264H43.3417H43.3571H43.3725H43.3879H43.4033H43.4188H43.4342H43.4497H43.4653H43.4808H43.4963H43.5119H43.5275H43.5431H43.5587H43.5744H43.59H43.6057H43.6214H43.6371H43.6528H43.6685H43.6843H43.7001H43.7159H43.7317H43.7475H43.7633H43.7791H43.795H43.8109H43.8267H43.8426H43.8585H43.8745H43.8904H43.9063H43.9223H43.9382H43.9542H43.9702H43.9862H44.0022H44.0182H44.0342H44.0503H44.0663H44.0824H44.0984H44.1145H44.1306H44.1466H44.1627H44.1788H44.1949H44.211H44.2272H44.2433H44.2594H44.2755H44.2917H44.3078H44.3239H44.3401H44.3563H44.3724H44.3886H44.4047H44.4209H44.4371H44.4532H44.4694H44.4856H44.5017H44.5179H44.5341H44.5503H44.5665H44.5826H44.5988H44.615H44.6312H44.6473H44.6635H44.6797H44.6958H44.712H44.7282H44.7443H44.7605H44.7766H44.7928H44.8089H44.8251H44.8412H44.8573H44.8735H44.8896H44.9057H44.9218H44.9379H44.954H44.9701H44.9862H45.0023H45.0183H45.0344H45.0505H45.0665H45.0825H45.0986H45.1146H45.1306H45.1466H45.1626H45.1786H45.1945H45.2105H45.2264H45.2424H45.2583H45.2742H45.2901H45.306H45.3218H45.3377H45.3536H45.3694H45.3852H45.401H45.4168H45.4326H45.4483H45.4641H45.4798H45.4955H45.5112H45.5269H45.5425H45.5582H45.5738H45.5894H45.605H45.6206H45.6362H45.6517H45.6672H45.6827H45.6982H45.7137H45.7291H45.7445H45.7599H45.7753H45.7906H45.806H45.8213H45.8366H45.8519H45.8671H45.8823H45.8975H45.9127H45.9279H45.943H45.9581H45.9732H45.9882H46.0033H46.0183H46.0333H46.0482H46.0631H46.078H46.0929H46.1078H46.1226H46.1374H46.1521H46.1669H46.1816H46.1963H46.2109H46.2255H46.2401H46.2547H46.2692H46.2837H46.2982H46.3126H46.327H46.3414H46.3558H46.3701H46.3844Z" fill="white" stroke="#8836DA" stroke-width="1.5"/>
<path d="M39.7646 28.1745C39.8647 28.0504 40.0537 28.0504 40.1538 28.1745L49.1058 39.274C49.2377 39.4375 49.1213 39.6809 48.9112 39.6809H31.0072C30.7971 39.6809 30.6807 39.4375 30.8126 39.274L39.7646 28.1745Z" fill="white" stroke="#8836DA" stroke-width="1.5"/>
<path d="M49.0218 63.1943C47.299 62.4282 45.4632 62.0398 43.5646 62.0398C38.2671 62.0398 34.0081 64.5015 31.7384 68.8297L41.4498 78.7007L42.5033 77.6673C43.6629 76.5285 45.1915 75.9008 46.8064 75.9008H63.2858C65.539 75.9008 67.6707 75.0288 69.2942 73.4444L80.4127 59.9335C81.2986 58.8676 81.1664 57.2744 80.1221 56.3768C79.0788 55.4827 77.5104 55.6171 76.627 56.6772C73.5054 60.4632 66.4787 68.3403 66.4787 68.3403H63.5957C64.9631 68.3403 66.0752 67.2099 66.0752 65.82C66.0752 64.4144 64.9398 63.3002 63.5957 63.3002H49.5188C49.3478 63.3002 49.1788 63.2642 49.0218 63.1943Z" fill="white"/>
<path d="M53.4818 68.3403H63.5957C64.9631 68.3403 66.0752 67.2099 66.0752 65.82C66.0752 64.4144 64.9398 63.3002 63.5957 63.3002H49.5188C49.3478 63.3002 49.1788 63.2642 49.0218 63.1943C47.299 62.4282 45.4632 62.0398 43.5646 62.0398C38.2671 62.0398 34.0081 64.5015 31.7384 68.8297L41.4498 78.7007L42.5033 77.6673C43.6629 76.5285 45.1915 75.9008 46.8064 75.9008H63.2858C65.539 75.9008 67.6707 75.0288 69.2942 73.4444L80.4127 59.9335C81.2986 58.8676 81.1664 57.2744 80.1221 56.3768C79.0788 55.4827 77.5104 55.6171 76.627 56.6772C73.5054 60.4632 66.4787 68.3403 66.4787 68.3403H63.6453" stroke="#B8C0CC" stroke-width="2" stroke-linecap="round"/>
<path d="M35.1882 86.5768L24.3992 75.5262L28.7391 71.1019L28.8022 71.0376L28.8528 70.9631C28.8534 70.9622 28.8552 70.9596 28.8584 70.9556C28.8608 70.9525 28.8636 70.949 28.867 70.9452C28.8675 70.9457 28.8686 70.9468 28.8704 70.9487C28.875 70.9532 28.8841 70.9623 28.8995 70.9777L29.0016 71.0803C29.0885 71.1678 29.2109 71.2913 29.3639 71.4459C29.6698 71.7549 30.0969 72.1868 30.6044 72.7004C31.6195 73.7275 32.9557 75.0805 34.2862 76.428C35.6168 77.7755 36.9415 79.1175 37.9336 80.1226L39.1315 81.3361L39.4667 81.6758L39.555 81.7652L39.5776 81.7881L39.5833 81.7939L39.5841 81.7947C39.5842 81.7949 39.5844 81.795 39.5845 81.7951C39.634 81.8456 39.6601 81.9116 39.6595 81.9864C39.6589 82.0648 39.6291 82.1283 39.5924 82.1665C39.5919 82.167 39.5914 82.1675 39.5909 82.168L35.1882 86.5768Z" fill="white" stroke="#B8C0CC" stroke-width="2"/>
</svg>
