<svg width="105" height="105" viewBox="0 0 105 105" fill="none" xmlns="http://www.w3.org/2000/svg">
<path d="M52.5 105C81.4949 105 105 81.4949 105 52.5C105 23.5051 81.4949 0 52.5 0C23.5051 0 0 23.5051 0 52.5C0 81.4949 23.5051 105 52.5 105Z" fill="#F0F4F7"/>
<path d="M78.4699 22H50.5301C46.3714 22 43 25.4052 43 29.6057V96.3943C43 100.595 46.3714 104 50.5301 104H78.4699C82.6286 104 86 100.595 86 96.3943V29.6057C86 25.4052 82.6286 22 78.4699 22Z" fill="white" stroke="#B8C0CC" stroke-width="2" stroke-miterlimit="10"/>
<path d="M73.7512 68.8489V60.0375C73.7512 55.1375 69.5831 51.1511 64.46 51.1511C59.381 51.1511 55.2488 55.1035 55.2488 59.9617C55.2488 64.8621 59.4166 68.8489 64.5393 68.8489H73.7512ZM74.142 71H64.5393C58.1663 71 53 66.0584 53 59.9617C53 53.9079 58.1309 49 64.46 49C70.8338 49 76 53.9416 76 60.0375V69.2226C76 70.2041 75.1678 71 74.142 71Z" fill="#8836DA"/>
<path d="M51 22L53.1761 26.6653C53.3637 27.0676 53.6475 27.4049 53.9964 27.6403C54.3453 27.8757 54.7459 28.0001 55.1544 28H73.7032C74.1017 28 74.493 27.8815 74.8361 27.6567C75.1793 27.4319 75.4618 27.1092 75.6541 26.7221L78 22.001" fill="#B8C0CC"/>
<path d="M43 91H86" stroke="#B8C0CC" stroke-width="2"/>
<path d="M64.5 100C66.433 100 68 98.6569 68 97C68 95.3431 66.433 94 64.5 94C62.567 94 61 95.3431 61 97C61 98.6569 62.567 100 64.5 100Z" fill="#B8C0CC"/>
</svg>
