<svg width="108" height="108" viewBox="0 0 108 108" fill="none" xmlns="http://www.w3.org/2000/svg">
<circle cx="54" cy="54" r="53" fill="#F0F4F7" stroke="white" stroke-width="2"/>
<path d="M41.284 48.2231L49.0463 50.304L54.2363 51.6151L76.4771 73.5813C77.6724 75.3826 77.0943 78.9064 75.4837 80.4844C74.5403 81.4087 73.2955 81.8617 72.0547 81.8433C72.0748 83.0577 71.6112 84.2787 70.6679 85.2029C69.754 86.0983 68.5293 86.5841 67.2389 86.5644C67.2577 87.7788 66.7954 88.9985 65.8521 89.9227C64.9087 90.847 63.6626 91.2999 62.4231 91.2816C62.4432 92.496 61.9796 93.7169 61.0363 94.6412C60.1117 95.5471 58.8964 96 57.681 96C56.4898 96 55.2999 95.5642 54.382 94.6937L54.0779 94.4535C52.2371 93.1068 34.4945 77.2424 32.0704 74.4859L26.1103 66.6152L19.4668 61.0131C18.9174 60.5497 18.8424 59.7423 19.298 59.1896L31.9753 43.8066C32.4041 43.2853 33.1638 43.1632 33.74 43.523L41.284 48.2231Z" fill="#FCFDFF"/>
<path d="M62.4231 91.2816C62.4432 92.496 61.9796 93.7169 61.0363 94.6412C60.1117 95.5471 58.8964 96 57.681 96C56.4898 96 55.2999 95.5642 54.382 94.6937L54.0779 94.4535C52.2371 93.1069 34.4945 77.2424 32.0704 74.4859L26.1103 66.6152L19.4668 61.0131C18.9174 60.5497 18.8424 59.7423 19.298 59.1896L31.9753 43.8066C32.4041 43.2853 33.1638 43.1632 33.74 43.523L41.284 48.2231L49.0463 50.304L54.2363 51.6151L76.4771 73.5813C77.6724 75.3826 77.0943 78.9064 75.4837 80.4844C74.5403 81.4087 73.2955 81.8617 72.0547 81.8433M62.4231 91.2816C63.6626 91.2999 64.9087 90.847 65.8521 89.9227C66.7954 88.9985 67.2577 87.7788 67.2389 86.5644M62.4231 91.2816L56.7353 85.7264M67.2389 86.5644C68.5293 86.5841 69.754 86.0983 70.6679 85.2029C71.6112 84.2787 72.0748 83.0577 72.0547 81.8433M67.2389 86.5644L58.7345 78.2583M72.0547 81.8433L61.0363 71.0818" stroke="#8836DA" stroke-width="2" stroke-linecap="round"/>
<path d="M31.657 70.5134L29.1623 72.8339C27.9395 73.9714 27.9395 75.8228 29.1623 76.9622C30.3852 78.0996 32.3755 78.0996 33.5983 76.9622L36.0174 74.7119C37.2504 73.565 37.3117 71.7079 36.1562 70.5723C35.5683 69.995 34.7742 69.6703 33.9188 69.6589C33.829 69.657 33.7412 69.6608 33.6514 69.6684H33.6514C33.6351 69.6684 33.6167 69.6684 33.5983 69.6703C32.9716 69.7235 32.3817 69.9438 31.8938 70.3141C31.8121 70.3767 31.7325 70.4432 31.657 70.5134Z" fill="#FCFDFF"/>
<path d="M33.2289 81.2746C33.2289 82.0551 33.5555 82.788 34.1475 83.3387C34.7396 83.8894 35.5275 84.1932 36.3645 84.1913C37.2035 84.1913 37.9915 83.8875 38.5835 83.3368L43.3441 78.9105C43.8524 78.4376 44.1831 77.8148 44.2791 77.1521C44.4567 75.9121 43.7708 74.6797 42.55 74.1385C41.366 73.6144 39.9105 73.8499 38.9837 74.712L34.1475 79.2105C33.5555 79.7631 33.2289 80.4942 33.2289 81.2746Z" fill="#FCFDFF"/>
<path d="M38.9837 87.0967C38.9837 87.8771 39.3103 88.6101 39.9023 89.1608C40.4964 89.7115 41.2843 90.0153 42.1234 90.0134C42.9624 90.0134 43.7504 89.7096 44.3424 89.1589L49.1009 84.7325C49.597 84.2711 49.9256 83.6653 50.0298 83.0197C50.2196 81.8481 49.6398 80.6707 48.5314 80.0707C47.3188 79.4156 45.7285 79.6131 44.7384 80.534L39.9023 85.0325C39.3103 85.5851 38.9837 86.3162 38.9837 87.0967Z" fill="#FCFDFF"/>
<path d="M46.8399 89.7025C45.6171 90.84 45.6171 92.6914 46.8399 93.8288C48.0627 94.9663 50.0531 94.9682 51.2759 93.8307L53.6827 91.5919C54.8504 90.5057 54.977 88.8062 54.0359 87.6631C53.9746 87.5852 53.9052 87.5112 53.8338 87.4409C53.2459 86.8636 52.4497 86.5389 51.5964 86.5275C51.5228 86.5275 51.453 86.5311 51.3815 86.5348L51.3759 86.5351C51.3392 86.537 51.3045 86.537 51.2677 86.5408C51.1799 86.5484 51.0901 86.5598 51.0023 86.575C50.9901 86.575 50.9778 86.5769 50.9656 86.5788C50.4573 86.6699 49.9816 86.875 49.5754 87.1808C49.5734 87.1808 49.5713 87.1827 49.5693 87.1845C49.4897 87.2453 49.41 87.3118 49.3345 87.382L46.8399 89.7025Z" fill="#FCFDFF"/>
<path d="M31.657 70.5134L29.1623 72.8339C27.9395 73.9714 27.9395 75.8228 29.1623 76.9622C30.3852 78.0996 32.3755 78.0996 33.5983 76.9622L36.0174 74.7119C37.2504 73.565 37.3117 71.7079 36.1562 70.5723C35.5683 69.995 34.7742 69.6703 33.9188 69.6589C33.829 69.657 33.7412 69.6608 33.6514 69.6684H33.6514C33.6351 69.6684 33.6167 69.6684 33.5983 69.6703C32.9716 69.7235 32.3817 69.9438 31.8938 70.3141C31.8121 70.3767 31.7325 70.4432 31.657 70.5134Z" stroke="#B8C0CC" stroke-width="2"/>
<path d="M33.2289 81.2746C33.2289 82.0551 33.5555 82.788 34.1475 83.3387C34.7396 83.8894 35.5275 84.1932 36.3645 84.1913C37.2035 84.1913 37.9915 83.8875 38.5835 83.3368L43.3441 78.9105C43.8524 78.4376 44.1831 77.8148 44.2791 77.1521C44.4567 75.9121 43.7708 74.6797 42.55 74.1385C41.366 73.6144 39.9105 73.8499 38.9837 74.712L34.1475 79.2105C33.5555 79.7631 33.2289 80.4942 33.2289 81.2746Z" stroke="#B8C0CC" stroke-width="2"/>
<path d="M38.9837 87.0967C38.9837 87.8771 39.3103 88.6101 39.9023 89.1608C40.4964 89.7115 41.2843 90.0153 42.1234 90.0134C42.9624 90.0134 43.7504 89.7096 44.3424 89.1589L49.1009 84.7325C49.597 84.2711 49.9256 83.6653 50.0298 83.0197C50.2196 81.8481 49.6398 80.6707 48.5314 80.0707C47.3188 79.4156 45.7285 79.6131 44.7384 80.534L39.9023 85.0325C39.3103 85.5851 38.9837 86.3162 38.9837 87.0967Z" stroke="#B8C0CC" stroke-width="2"/>
<path d="M46.8399 89.7025C45.6171 90.84 45.6171 92.6914 46.8399 93.8288C48.0627 94.9663 50.0531 94.9682 51.2759 93.8307L53.6827 91.5919C54.8504 90.5057 54.977 88.8062 54.0359 87.6631C53.9746 87.5852 53.9052 87.5112 53.8338 87.4409C53.2459 86.8636 52.4497 86.5389 51.5964 86.5275C51.5228 86.5275 51.453 86.5311 51.3815 86.5348L51.3759 86.5351C51.3392 86.537 51.3045 86.537 51.2677 86.5408C51.1799 86.5484 51.0901 86.5598 51.0023 86.575C50.9901 86.575 50.9778 86.5769 50.9656 86.5788C50.4573 86.6699 49.9816 86.875 49.5754 87.1808C49.5734 87.1808 49.5713 87.1827 49.5693 87.1845C49.4897 87.2453 49.41 87.3118 49.3345 87.382L46.8399 89.7025Z" stroke="#B8C0CC" stroke-width="2"/>
<path d="M76.584 73.4172C76.3473 74.1157 75.4618 74.3266 74.9358 73.8096L57.9546 57.1189C57.9231 57.0877 57.8901 57.0566 57.8556 57.0284C57.6139 56.8296 57.3137 56.7094 56.9985 56.6872L48.7729 56.11C48.204 56.0715 47.6381 56.3697 47.3574 56.8607L43.1275 64.2388C42.8243 64.7684 42.329 65.1497 41.7361 65.3129C41.1431 65.4761 40.5202 65.399 39.9829 65.0993C39.447 64.7996 39.0612 64.31 38.8961 63.724C38.731 63.1364 38.8091 62.5207 39.1123 61.9911L44.5567 52.4943C44.6865 52.268 44.8996 52.1014 45.1505 52.0299L47.0467 51.49C47.0617 51.4856 47.0767 51.4796 47.0917 51.4752L55.4965 49.076C55.5858 49.0505 55.6781 49.0376 55.771 49.0376H65.5921C65.8229 49.0376 66.0467 48.9577 66.2254 48.8115L73.8015 42.6118C74.2185 42.2705 74.8309 42.321 75.1864 42.726L88.2907 57.6554C88.6738 58.0919 88.6058 58.7618 88.1427 59.1124L79.3593 65.7614C79.1997 65.8822 79.08 66.0482 79.0157 66.2379L76.584 73.4172Z" fill="#FCFDFF" stroke="#B8C0CC" stroke-width="2"/>
<mask id="path-6-inside-1" fill="white">
<path fill-rule="evenodd" clip-rule="evenodd" d="M53.9598 24.9921C53.9704 25.001 53.9861 25.0004 53.9959 24.9906L54.003 24.9835C54.0096 24.9769 54.0202 24.9769 54.0267 24.9835C54.0329 24.9896 54.0427 24.9901 54.0494 24.9845C55.1014 24.1099 56.4535 23.5839 57.9286 23.5839C61.2817 23.5839 64 26.3021 64 29.6553C64 31.133 63.4721 32.4874 62.5946 33.5402C62.5917 33.5436 62.5919 33.5487 62.5951 33.5518C62.5984 33.5552 62.5984 33.5607 62.5951 33.564L62.4346 33.7245C62.2965 33.8774 62.1506 34.0232 61.9977 34.1614L55.4291 40.73C54.648 41.5111 53.3817 41.5111 52.6007 40.73L46.2181 34.3474C44.8637 33.2339 44 31.5455 44 29.6553C44 26.3021 46.7183 23.5839 50.0714 23.5839C51.5507 23.5839 52.9065 24.1129 53.9598 24.9921Z"/>
</mask>
<path fill-rule="evenodd" clip-rule="evenodd" d="M53.9598 24.9921C53.9704 25.001 53.9861 25.0004 53.9959 24.9906L54.003 24.9835C54.0096 24.9769 54.0202 24.9769 54.0267 24.9835C54.0329 24.9896 54.0427 24.9901 54.0494 24.9845C55.1014 24.1099 56.4535 23.5839 57.9286 23.5839C61.2817 23.5839 64 26.3021 64 29.6553C64 31.133 63.4721 32.4874 62.5946 33.5402C62.5917 33.5436 62.5919 33.5487 62.5951 33.5518C62.5984 33.5552 62.5984 33.5607 62.5951 33.564L62.4346 33.7245C62.2965 33.8774 62.1506 34.0232 61.9977 34.1614L55.4291 40.73C54.648 41.5111 53.3817 41.5111 52.6007 40.73L46.2181 34.3474C44.8637 33.2339 44 31.5455 44 29.6553C44 26.3021 46.7183 23.5839 50.0714 23.5839C51.5507 23.5839 52.9065 24.1129 53.9598 24.9921Z" fill="white"/>
<path d="M62.4346 33.7245L61.0204 32.3103L60.9846 32.346L60.9507 32.3836L62.4346 33.7245ZM61.9977 34.1614L60.6569 32.6774L60.6193 32.7114L60.5835 32.7471L61.9977 34.1614ZM46.2181 34.3474L47.6323 32.9332L47.5634 32.8644L47.4883 32.8025L46.2181 34.3474ZM52.6007 40.73L54.0149 39.3158L52.6007 40.73ZM54.0494 24.9845L52.7707 23.4466L54.0494 24.9845ZM62.5951 33.564L64.0093 34.9782L62.5951 33.564ZM53.9959 24.9906L52.5817 23.5763L53.9959 24.9906ZM53.9598 24.9921L52.6781 26.5275L53.9598 24.9921ZM62.5946 33.5402L61.0582 32.2597L62.5946 33.5402ZM54.003 24.9835L55.4172 26.3977L54.003 24.9835ZM52.5888 23.5693L52.5817 23.5763L55.4102 26.4048L55.4172 26.3977L52.5888 23.5693ZM57.9286 21.5839C55.9694 21.5839 54.1685 22.2844 52.7707 23.4466L55.328 26.5224C56.0342 25.9353 56.9377 25.5839 57.9286 25.5839V21.5839ZM66 29.6553C66 25.1976 62.3863 21.5839 57.9286 21.5839V25.5839C60.1771 25.5839 62 27.4067 62 29.6553H66ZM64.1309 34.8207C65.2969 33.4219 66 31.6181 66 29.6553H62C62 30.6479 61.6473 31.553 61.0582 32.2597L64.1309 34.8207ZM63.8488 35.1387L64.0093 34.9782L61.1809 32.1498L61.0204 32.3103L63.8488 35.1387ZM63.3386 35.6453C63.5416 35.4619 63.7352 35.2683 63.9185 35.0654L60.9507 32.3836C60.8578 32.4864 60.7597 32.5845 60.6569 32.6774L63.3386 35.6453ZM56.8433 42.1442L63.412 35.5756L60.5835 32.7471L54.0149 39.3158L56.8433 42.1442ZM44.8038 35.7616L51.1864 42.1442L54.0149 39.3158L47.6323 32.9332L44.8038 35.7616ZM47.4883 32.8025C46.5762 32.0526 46 30.9221 46 29.6553H42C42 32.1688 43.1513 34.4151 44.9479 35.8923L47.4883 32.8025ZM46 29.6553C46 27.4067 47.8228 25.5839 50.0714 25.5839V21.5839C45.6137 21.5839 42 25.1976 42 29.6553H46ZM50.0714 25.5839C51.0651 25.5839 51.9711 25.9373 52.6781 26.5275L55.2414 23.4568C53.8419 22.2885 52.0363 21.5839 50.0714 21.5839V25.5839ZM54.0149 39.3158L54.0149 39.3158L51.1864 42.1442C52.7485 43.7063 55.2812 43.7063 56.8433 42.1442L54.0149 39.3158ZM52.6125 26.3977C53.3515 27.1367 54.5288 27.1869 55.328 26.5224L52.7707 23.4466C53.5566 22.7933 54.7143 22.8426 55.441 23.5693L52.6125 26.3977ZM61.1809 34.966C60.4032 34.1884 60.4032 32.9275 61.1809 32.1498L64.0093 34.9782C64.7937 34.1938 64.7937 32.922 64.0093 32.1376L61.1809 34.966ZM52.5817 23.5763C53.3072 22.8509 54.4611 22.8054 55.2414 23.4568L52.6781 26.5275C53.4797 27.1966 54.6651 27.1498 55.4102 26.4048L52.5817 23.5763ZM61.0582 32.2597C60.3938 33.0568 60.4453 34.2305 61.1809 34.966L64.0093 32.1376C64.7385 32.8668 64.7895 34.0305 64.1309 34.8207L61.0582 32.2597ZM55.4172 26.3977C54.6427 27.1722 53.387 27.1722 52.6125 26.3977L55.441 23.5693C54.6534 22.7817 53.3764 22.7817 52.5888 23.5693L55.4172 26.3977Z" fill="#8836DA" mask="url(#path-6-inside-1)"/>
</svg>
