<svg width="106" height="106" viewBox="0 0 106 106" fill="none" xmlns="http://www.w3.org/2000/svg">
<path d="M52.5 105C81.4949 105 105 81.4949 105 52.5C105 23.5051 81.4949 0 52.5 0C23.5051 0 0 23.5051 0 52.5C0 81.4949 23.5051 105 52.5 105Z" fill="#F0F4F7"/>
<path d="M88.2098 83.1163V99.8357C88.2061 101.07 87.714 102.253 86.8408 103.126C85.9677 103.999 84.7844 104.491 83.5497 104.495H48.7484C47.5135 104.492 46.3298 104.001 45.4565 103.127C44.5833 102.254 44.0917 101.071 44.0893 99.8357V30.1137C44.093 28.8791 44.5851 27.6961 45.458 26.823C46.3309 25.9499 47.5138 25.4575 48.7484 25.4536H83.5497C84.7845 25.4573 85.9677 25.9495 86.8408 26.8226C87.714 27.6958 88.2061 28.8789 88.2098 30.1137V44.4633" fill="white"/>
<path d="M88.2098 83.1163V99.8357C88.2061 101.07 87.714 102.253 86.8408 103.126C85.9677 103.999 84.7844 104.491 83.5497 104.495H48.7484C47.5135 104.492 46.3298 104.001 45.4565 103.127C44.5833 102.254 44.0917 101.071 44.0893 99.8357V30.1137C44.093 28.8791 44.5851 27.6961 45.458 26.823C46.3309 25.9499 47.5138 25.4575 48.7484 25.4536H83.5497C84.7845 25.4573 85.9677 25.9495 86.8408 26.8226C87.714 27.6958 88.2061 28.8789 88.2098 30.1137V44.4633" stroke="#B8C0CC" stroke-width="2" stroke-miterlimit="10" stroke-linecap="round"/>
<path d="M65.5333 48.5898H21.7188C20.5279 48.5898 19.5626 49.5552 19.5626 50.7461V77.8433C19.5626 79.0341 20.5279 79.9995 21.7188 79.9995H65.5333C66.7242 79.9995 67.6895 79.0341 67.6895 77.8433V50.7461C67.6895 49.5552 66.7242 48.5898 65.5333 48.5898Z" fill="white" stroke="#8836DA" stroke-width="2" stroke-miterlimit="10" stroke-linecap="round"/>
<path d="M25.313 72.5664H50.6324" stroke="#8836DA" stroke-width="2" stroke-miterlimit="10" stroke-linecap="round"/>
<path d="M66.2087 100.101C68.3013 100.101 69.9977 98.4046 69.9977 96.312C69.9977 94.2194 68.3013 92.5229 66.2087 92.5229C64.1161 92.5229 62.4197 94.2194 62.4197 96.312C62.4197 98.4046 64.1161 100.101 66.2087 100.101Z" fill="#B8C0CC"/>
<path d="M60.3101 32.7593H72.1658" stroke="#B8C0CC" stroke-width="2" stroke-miterlimit="10" stroke-linecap="round"/>
<path d="M77.3811 52.3369H101.594" stroke="#B8C0CC" stroke-width="2" stroke-linecap="round" stroke-linejoin="round"/>
<path d="M98.9283 47.1167L104.149 52.3369L98.9283 57.5572" stroke="#B8C0CC" stroke-width="2" stroke-linecap="round" stroke-linejoin="round"/>
<path d="M86.5065 77.5867C86.8631 77.5867 87.2052 77.4449 87.4574 77.1928C87.7095 76.9406 87.8513 76.5985 87.8513 76.2419V75.4264C89.0143 75.3566 90.1068 74.8458 90.9061 73.9981C91.7054 73.1504 92.1514 72.0298 92.1528 70.8647V70.7306C92.151 69.5195 91.669 68.3585 90.8126 67.5021C89.9562 66.6457 88.7952 66.1638 87.584 66.1619H85.2998C84.8242 66.1274 84.3794 65.9141 84.0547 65.565C83.73 65.2158 83.5495 64.7566 83.5495 64.2798C83.5495 63.803 83.73 63.344 84.0547 62.9948C84.3794 62.6457 84.8242 62.4323 85.2998 62.3977H88.6349C88.8314 62.398 89.0196 62.4762 89.1585 62.6151C89.2973 62.754 89.3756 62.9423 89.3758 63.1387V63.1705C89.3732 63.5168 89.5044 63.8508 89.7421 64.1027C89.9798 64.3546 90.3056 64.505 90.6515 64.5226C90.9974 64.5401 91.3367 64.4235 91.5986 64.1969C91.8606 63.9703 92.0249 63.6513 92.0574 63.3065V63.2857C92.0771 62.8357 92.008 62.3862 91.854 61.963C91.6999 61.5397 91.4639 61.1509 91.1595 60.8188C90.8551 60.4868 90.4883 60.218 90.08 60.0277C89.6717 59.8375 89.23 59.7296 88.7799 59.7102H88.6329H87.8522V58.9037C87.8571 58.7241 87.8259 58.5454 87.7606 58.378C87.6952 58.2107 87.597 58.0581 87.4717 57.9293C87.3463 57.8006 87.1966 57.6982 87.0311 57.6283C86.8655 57.5584 86.6876 57.5225 86.5079 57.5225C86.3283 57.5225 86.1504 57.5584 85.9849 57.6283C85.8194 57.6982 85.6695 57.8006 85.5442 57.9293C85.4189 58.0581 85.3206 58.2107 85.2553 58.378C85.1899 58.5454 85.1587 58.7241 85.1636 58.9037V59.7131C84.5637 59.7219 83.9714 59.8489 83.4205 60.0867C82.8695 60.3244 82.3708 60.6683 81.9527 61.0988C81.5347 61.5292 81.2056 62.0378 80.9842 62.5955C80.7627 63.1531 80.6532 63.749 80.662 64.3489C80.6708 64.9489 80.7977 65.5412 81.0354 66.0921C81.2732 66.643 81.6171 67.1418 82.0475 67.5598C82.478 67.9778 82.9867 68.3069 83.5444 68.5284C84.102 68.7499 84.6978 68.8593 85.2977 68.8505H87.5821C87.8299 68.8505 88.0753 68.8994 88.3042 68.9942C88.5332 69.089 88.7412 69.228 88.9165 69.4033C89.0917 69.5785 89.2307 69.7865 89.3255 70.0154C89.4204 70.2444 89.4692 70.4898 89.4692 70.7376V70.8727C89.4676 71.3721 89.2681 71.8506 88.9144 72.2032C88.5607 72.5558 88.0816 72.7537 87.5821 72.7537H84.1934C84.0961 72.7538 83.9998 72.7348 83.9099 72.6977C83.82 72.6606 83.7383 72.6061 83.6695 72.5374C83.6007 72.4687 83.5461 72.3871 83.5088 72.2972C83.4716 72.2074 83.4525 72.111 83.4525 72.0138V72.0009V71.8619C83.4519 71.5099 83.3133 71.1721 83.0666 70.9211C82.8198 70.67 82.4845 70.5258 82.1325 70.5193C81.7806 70.5128 81.4401 70.6445 81.1842 70.8863C80.9283 71.128 80.7774 71.4604 80.7639 71.8122V71.9522C80.7556 72.4024 80.8361 72.8499 81.0008 73.269C81.1655 73.6881 81.4111 74.0706 81.7237 74.3947C82.0363 74.7188 82.4097 74.9781 82.8225 75.1579C83.2354 75.3376 83.6796 75.4343 84.1298 75.4423H85.1607V76.2488C85.161 76.6053 85.3028 76.9471 85.555 77.1991C85.8072 77.451 86.149 77.5926 86.5055 77.5926L86.5065 77.5867Z" fill="#B8C0CC"/>
<path opacity="0.8" d="M29.0256 63.114C31.076 63.114 32.7381 61.4519 32.7381 59.4015C32.7381 57.3511 31.076 55.689 29.0256 55.689C26.9752 55.689 25.313 57.3511 25.313 59.4015C25.313 61.4519 26.9752 63.114 29.0256 63.114Z" fill="#8836DA"/>
<path opacity="0.5" d="M34.9441 63.114C36.9945 63.114 38.6566 61.4519 38.6566 59.4015C38.6566 57.3511 36.9945 55.689 34.9441 55.689C32.8937 55.689 31.2316 57.3511 31.2316 59.4015C31.2316 61.4519 32.8937 63.114 34.9441 63.114Z" fill="#8836DA"/>
</svg>
