<svg width="105" height="105" viewBox="0 0 105 105" fill="none" xmlns="http://www.w3.org/2000/svg">
<path d="M52.5 105C81.4949 105 105 81.4949 105 52.5C105 23.5051 81.4949 0 52.5 0C23.5051 0 0 23.5051 0 52.5C0 81.4949 23.5051 105 52.5 105Z" fill="#F0F4F7"/>
<path d="M48.7864 93.3324C48.7888 93.7989 48.9741 94.2457 49.3021 94.5756C49.6302 94.9056 50.0745 95.0921 50.5385 95.0947H93.3423C93.8063 95.0921 94.2506 94.9056 94.5787 94.5756C94.9067 94.2457 95.092 93.7989 95.0943 93.3324V39.9992L81.9599 26.7456H50.5404C50.0766 26.7482 49.6324 26.9346 49.3044 27.2644C48.9764 27.5942 48.791 28.0407 48.7885 28.507V31.7149" fill="white"/>
<path d="M48.7864 93.3324C48.7888 93.7989 48.9741 94.2457 49.3021 94.5756C49.6302 94.9056 50.0745 95.0921 50.5385 95.0947H93.3423C93.8063 95.0921 94.2506 94.9056 94.5787 94.5756C94.9067 94.2457 95.092 93.7989 95.0943 93.3324V39.9992L81.9599 26.7456H50.5404C50.0766 26.7482 49.6324 26.9346 49.3044 27.2644C48.9764 27.5942 48.791 28.0407 48.7885 28.507V31.7149" stroke="#B8C0CC" stroke-width="1.88" stroke-miterlimit="10" stroke-linecap="round"/>
<path d="M70.7225 64.0476C70.7225 68.7151 69.3458 73.2779 66.7664 77.1588C64.187 81.0397 60.5208 84.0645 56.2314 85.8507C51.942 87.6369 47.222 88.1042 42.6684 87.1936C38.1148 86.283 33.9321 84.0354 30.6491 80.735C27.3661 77.4345 25.1304 73.2295 24.2247 68.6517C23.3189 64.0739 23.7837 59.3287 25.5605 55.0165C27.3372 50.7043 30.346 47.0186 34.2063 44.4255C38.0667 41.8323 42.6052 40.4482 47.248 40.4482V64.0476H70.7225Z" fill="white" stroke="#B8C0CC" stroke-width="1.88" stroke-miterlimit="10" stroke-linecap="round"/>
<path d="M55.0303 32.6211C61.256 32.6214 67.2266 35.1078 71.6287 39.5335C76.0308 43.9592 78.5039 49.9616 78.5039 56.2204H55.0303V32.6211Z" stroke="#8836DA" stroke-width="1.88" stroke-miterlimit="10" stroke-linecap="round"/>
<path d="M81.9599 26.7476V37.1653C81.9599 37.8983 82.2495 38.6015 82.7651 39.1198C83.2807 39.6382 83.9801 39.9293 84.7093 39.9293H95.0944" stroke="#B8C0CC" stroke-width="1.88" stroke-miterlimit="10" stroke-linecap="round"/>
<path d="M83.0563 46.7295H90.363" stroke="#B8C0CC" stroke-width="1.88" stroke-miterlimit="10" stroke-linecap="round"/>
<path d="M83.0563 53.8022H90.363" stroke="#B8C0CC" stroke-width="1.88" stroke-miterlimit="10" stroke-linecap="round"/>
<path d="M83.0563 60.9199H90.363" stroke="#B8C0CC" stroke-width="1.88" stroke-miterlimit="10" stroke-linecap="round"/>
<path d="M88.3515 79.712C88.3062 79.5706 88.2205 79.4458 88.1051 79.3531C87.9898 79.2604 87.8498 79.2038 87.7026 79.1905L83.6044 78.8165L81.9844 75.0035C81.9264 74.8668 81.8297 74.7504 81.7063 74.6685C81.5829 74.5866 81.4383 74.543 81.2905 74.543C81.1427 74.543 80.9981 74.5866 80.8747 74.6685C80.7513 74.7504 80.6546 74.8668 80.5965 75.0035L78.9756 78.8156L74.8774 79.1895C74.7303 79.2032 74.5905 79.2599 74.4751 79.3526C74.3598 79.4454 74.274 79.5701 74.2284 79.7113C74.1828 79.8525 74.1793 80.0041 74.2185 80.1473C74.2576 80.2905 74.3377 80.419 74.4487 80.5169L77.5466 83.2476L76.6334 87.2928C76.5999 87.4377 76.6095 87.5893 76.6612 87.7287C76.7128 87.8681 76.8042 87.9891 76.9239 88.0765C77.0436 88.164 77.1862 88.214 77.3341 88.2204C77.4819 88.2268 77.6284 88.1893 77.7551 88.1125L81.2905 85.9881L84.8239 88.1125C84.9508 88.1886 85.0972 88.2257 85.2447 88.219C85.3923 88.2123 85.5347 88.1621 85.6542 88.0749C85.7738 87.9876 85.8652 87.867 85.9172 87.728C85.9692 87.5889 85.9795 87.4376 85.9467 87.2928L85.0334 83.2476L88.1304 80.5169C88.2417 80.4194 88.3221 80.291 88.3614 80.1479C88.4008 80.0048 88.3973 79.8532 88.3515 79.712Z" fill="#8836DA"/>
</svg>
