<svg width="105" height="105" viewBox="0 0 105 105" fill="none" xmlns="http://www.w3.org/2000/svg">
<circle cx="52.5" cy="52.5" r="52.5" fill="#F0F4F7"/>
<path d="M81.633 55.6842C81.1557 55.3223 80.5357 55.2043 79.9586 55.3664C79.4489 55.5091 78.9249 55.5817 78.3996 55.5817C75.1429 55.5817 72.4931 52.8607 72.4931 49.5157C72.4931 48.4574 71.6358 47.6001 70.5775 47.6001C69.5192 47.6001 68.6619 48.4574 68.6619 49.5157C68.6619 52.8607 66.0121 55.5817 62.7554 55.5817C59.4987 55.5817 56.8489 52.8607 56.8489 49.5157C56.8489 48.4574 55.9916 47.6001 54.9333 47.6001C53.875 47.6001 53.0177 48.4574 53.0177 49.5157C53.0177 52.8607 50.3679 55.5817 47.1112 55.5817C43.8545 55.5817 41.2047 52.8607 41.2047 49.5157C41.2047 48.4574 40.3474 47.6001 39.2891 47.6001C38.2308 47.6001 37.3735 48.4574 37.3735 49.5157C37.3735 52.8607 34.7237 55.5817 31.467 55.5817C30.9417 55.5817 30.4177 55.5091 29.908 55.3664C29.3309 55.2043 28.7109 55.3223 28.2336 55.6842C27.7563 56.046 27.4762 56.6102 27.4762 57.2107V82.3994C27.4762 83.4578 28.3335 84.3151 29.3918 84.3151H80.4722C81.5305 84.3151 82.3878 83.4578 82.3878 82.3994V57.2094C82.3904 56.6102 82.1103 56.046 81.633 55.6842Z" fill="white" stroke="#B8C0CC" stroke-width="2"/>
<path d="M88.1196 48.9788C88.0872 48.6805 87.986 48.3926 87.8213 48.141L83.3701 41.2929C83.361 41.2786 83.3519 41.2644 83.3428 41.2501L79.8371 35.8572V31.9559C79.8371 28.7874 77.2587 26.209 74.0902 26.209H35.7799C32.6114 26.209 30.033 28.7874 30.033 31.9559V35.8572L22.05 48.1397C21.9644 48.2707 21.8957 48.412 21.8451 48.5599C21.7764 48.7609 21.7401 48.9827 21.7401 49.1941C21.7401 50.2524 22.5974 51.1097 23.6557 51.1097H86.2169C87.2753 51.1097 88.1326 50.2524 88.1326 49.1941C88.1313 49.1241 88.1274 49.0514 88.1196 48.9788Z" fill="white" stroke="#B8C0CC" stroke-width="2"/>
<path d="M88.1296 49.1267C88.092 48.0969 87.2463 47.2798 86.2152 47.2798H70.584C70.5814 47.2798 70.5801 47.2798 70.5775 47.2798C70.5749 47.2798 70.5723 47.2798 70.571 47.2798H54.9411C54.9385 47.2798 54.9359 47.2798 54.9346 47.2798C54.9333 47.2798 54.9307 47.2798 54.9281 47.2798H39.2969C39.2943 47.2798 39.293 47.2798 39.2904 47.2798C39.2878 47.2798 39.2865 47.2798 39.2839 47.2798H23.654C22.6229 47.2798 21.776 48.0969 21.7397 49.1267C21.7345 49.2564 21.7319 49.3848 21.7319 49.5145C21.7319 54.9722 26.1001 59.4118 31.4696 59.4118C34.6706 59.4118 37.5149 57.8333 39.2904 55.4015C41.0673 57.8333 43.9116 59.4118 47.1125 59.4118C50.3135 59.4118 53.1591 57.8333 54.9346 55.4015C56.7102 57.8333 59.5545 59.4118 62.7567 59.4118C65.9577 59.4118 68.802 57.8333 70.5788 55.4015C72.3544 57.8333 75.1987 59.4118 78.3996 59.4118C83.7691 59.4118 88.1374 54.9722 88.1374 49.5145C88.1374 49.3848 88.1348 49.2564 88.1296 49.1267Z" fill="white" stroke="#B8C0CC" stroke-width="2"/>
<path d="M71.536 38.3411H38.3333C37.2749 38.3411 36.4176 37.4837 36.4176 36.4254C36.4176 35.3671 37.2749 34.5098 38.3333 34.5098H71.536C72.5943 34.5098 73.4516 35.3671 73.4516 36.4254C73.4516 37.4837 72.5943 38.3411 71.536 38.3411Z" fill="white" stroke="#B8C0CC" stroke-width="2"/>
<path d="M47.2721 62.6055H42.1645C38.996 62.6055 36.4176 65.1839 36.4176 68.3511V82.3987C36.4176 83.4571 37.2749 84.3144 38.3333 84.3144H51.1033C52.1617 84.3144 53.019 83.4571 53.019 82.3987V68.3511C53.019 65.1826 50.4419 62.6055 47.2721 62.6055Z" stroke="#8836DA" stroke-width="2"/>
<path d="M80.3364 84H29.6636C26.5405 84 24 86.0186 24 88.5C24 90.9814 26.5405 93 29.6636 93H80.3364C83.4595 93 86 90.9814 86 88.5C86 86.0186 83.4595 84 80.3364 84Z" fill="white" stroke="#B8C0CC" stroke-width="2"/>
<circle cx="78" cy="78" r="19" fill="white"/>
<path d="M89.4753 78.9137C89.5331 78.4606 89.5717 77.9894 89.5717 77.5C89.5717 77.0106 89.5331 76.5394 89.456 76.0863L92.7153 73.6938C93.0046 73.4763 93.0818 73.0775 92.9082 72.7694L89.8224 67.7487C89.6296 67.4225 89.2246 67.3138 88.8774 67.4225L85.0394 68.8725C84.2294 68.2925 83.3808 67.8212 82.4358 67.4588L81.8572 63.6162C81.7994 63.2537 81.4715 63 81.0858 63H74.9142C74.5285 63 74.2199 63.2537 74.1621 63.6162L73.5835 67.4588C72.6384 67.8212 71.7706 68.3106 70.9798 68.8725L67.1419 67.4225C66.7947 67.2956 66.3897 67.4225 66.1969 67.7487L63.1111 72.7694C62.9182 73.0956 62.9954 73.4763 63.3039 73.6938L66.5633 76.0863C66.4862 76.5394 66.4283 77.0288 66.4283 77.5C66.4283 77.9713 66.4669 78.4606 66.544 78.9137L63.2847 81.3063C62.9954 81.5238 62.9182 81.9225 63.0918 82.2306L66.1776 87.2513C66.3704 87.5775 66.7755 87.6863 67.1226 87.5775L70.9605 86.1275C71.7706 86.7075 72.6192 87.1788 73.5642 87.5413L74.1428 91.3837C74.2199 91.7462 74.5285 92 74.9142 92H81.0858C81.4715 92 81.7994 91.7462 81.8379 91.3837L82.4165 87.5413C83.3616 87.1788 84.2294 86.6894 85.0202 86.1275L88.8581 87.5775C89.2053 87.7044 89.6103 87.5775 89.8031 87.2513L92.8889 82.2306C93.0818 81.9044 93.0046 81.5238 92.6961 81.3063L89.4753 78.9137ZM78 82.9375C74.8178 82.9375 72.2142 80.4906 72.2142 77.5C72.2142 74.5094 74.8178 72.0625 78 72.0625C81.1822 72.0625 83.7859 74.5094 83.7859 77.5C83.7859 80.4906 81.1822 82.9375 78 82.9375Z" fill="white" stroke="#8836DA" stroke-width="2" stroke-linecap="round"/>
</svg>
