<svg width="66" height="72" viewBox="0 0 66 72" fill="none" xmlns="http://www.w3.org/2000/svg">
<g clip-path="url(#clip0)">
<path d="M32.8077 32.751C31.5254 32.751 30.486 33.7965 30.486 35.0862C30.4858 36.0187 31.0307 36.8211 31.8163 37.1955V40.0342C31.8163 40.5848 32.2601 41.0312 32.8076 41.0312C33.3551 41.0312 33.7989 40.5849 33.7989 40.0342V37.1955C34.5846 36.8211 35.1295 36.0187 35.1295 35.0862C35.1295 33.7965 34.09 32.751 32.8077 32.751Z" fill="#8836DA"/>
<path d="M1.23915 12.8366C7.98578 12.8366 14.1702 7.75208 14.1702 0.972656H51.3567C51.3567 7.75208 57.547 12.8366 64.3 12.8366C64.3 29.7852 66.5198 54.0781 32.7546 71.0267C-0.978557 54.0781 1.23915 29.7852 1.23915 12.8366Z" stroke="#B8C0CC" stroke-width="1.88" stroke-linejoin="round"/>
<path d="M41.4759 26.1487V20.6757C41.4759 15.8394 37.578 11.9189 32.7696 11.9189C27.9613 11.9189 24.0633 15.8394 24.0633 20.6757V26.1487" stroke="#8836DA" stroke-width="1.88"/>
<path d="M44.0152 27.1221H21.5239C20.4554 27.1221 19.5892 27.9933 19.5892 29.068V45.1221C19.5892 46.1968 20.4554 47.068 21.5239 47.068H44.0152C45.0838 47.068 45.95 46.1968 45.95 45.1221V29.068C45.95 27.9933 45.0838 27.1221 44.0152 27.1221Z" stroke="#8836DA" stroke-width="1.88"/>
</g>
<defs>
<clipPath id="clip0">
<rect width="65.781" height="72" fill="white"/>
</clipPath>
</defs>
</svg>
