<svg width="112" height="107" viewBox="0 0 112 107" fill="none" xmlns="http://www.w3.org/2000/svg">
<circle cx="59.3881" cy="52.5" r="52.5" fill="#F0F4F7"/>
<path d="M70.3888 69.7988L82.085 61.3006L92.7354 64.8258L95.4995 76.5232C94.6348 77.6598 93.6891 78.7467 92.662 79.774C89.2233 83.2126 85.1288 85.7562 80.6615 87.2925L70.388 80.9637L70.3888 69.7988Z" fill="#FCFDFF" stroke="#B8C0CC" stroke-width="2"/>
<path d="M58.6911 61.3005L70.3881 69.7987V80.9635L60.1364 87.2998C55.6607 85.7642 51.5585 83.218 48.1142 79.7737C47.0952 78.7547 46.1567 77.677 45.2976 76.5503L48.0502 64.7431L58.6911 61.3005Z" fill="#FCFDFF" stroke="#B8C0CC" stroke-width="2"/>
<path d="M63.1591 47.5501L58.6912 61.3005L48.0502 64.7433L38.8967 56.7909C39.0355 50.4668 41.0281 44.4526 44.6167 39.3735L56.6559 38.472L63.1591 47.5501Z" fill="#FCFDFF" stroke="#B8C0CC" stroke-width="2"/>
<path d="M92.7354 64.8258L82.0849 61.3006L77.6171 47.5501L84.2126 38.5182L96.1937 39.4222C99.7729 44.5085 101.754 50.5284 101.88 56.856L92.7354 64.8258Z" fill="#FCFDFF" stroke="#B8C0CC" stroke-width="2"/>
<path d="M45.2975 76.5505C41.1404 71.0987 38.8881 64.473 38.8881 57.5001C38.8881 57.2633 38.8915 57.0269 38.8967 56.791L48.0502 64.7434L45.2975 76.5505Z" fill="#FCFDFF" stroke="#B8C0CC" stroke-width="2"/>
<path d="M44.6167 39.3735C45.652 37.9083 46.8196 36.5207 48.1142 35.2261C51.8391 31.5012 56.3328 28.8243 61.2374 27.343L56.6557 38.4719L44.6167 39.3735Z" fill="#FCFDFF" stroke="#B8C0CC" stroke-width="2"/>
<path d="M96.1938 39.4222L84.2128 38.5182L79.5496 27.3462C84.45 28.8282 88.9397 31.5039 92.662 35.2262C93.9709 36.5351 95.15 37.939 96.1938 39.4222Z" fill="#FCFDFF" stroke="#B8C0CC" stroke-width="2"/>
<path d="M101.88 56.856C101.885 57.0704 101.888 57.2849 101.888 57.5001C101.888 64.4613 99.6434 71.0767 95.4996 76.5231L92.7355 64.8257L101.88 56.856Z" fill="#FCFDFF" stroke="#B8C0CC" stroke-width="2"/>
<path fill-rule="evenodd" clip-rule="evenodd" d="M63.1591 47.55H70.3881H77.6171H77.6172L84.2128 38.5181L84.2127 38.5181L84.2128 38.518L79.5496 27.3461C79.5038 27.3323 79.4579 27.3185 79.412 27.3049C79.0908 27.2094 78.7679 27.1189 78.4433 27.0337C75.8464 26.3517 73.1443 26 70.3882 26C70.3882 26 70.3881 26 70.3881 26C67.242 26 64.1665 26.4584 61.2376 27.3431L56.6559 38.472L63.1591 47.55Z" fill="#FCFDFF"/>
<path d="M63.1591 47.55L62.3462 48.1324L62.6453 48.55H63.1591V47.55ZM77.6172 47.55V48.55H78.1252L78.4248 48.1398L77.6172 47.55ZM84.2128 38.5181L85.0203 39.1079L85.3491 38.6577L85.1391 38.1414L84.2128 38.5181ZM84.2127 38.5181L83.399 37.9369L83.079 38.3849L83.2864 38.8949L84.2127 38.5181ZM84.2128 38.518L85.0265 39.0993L85.35 38.6464L85.1356 38.1328L84.2128 38.518ZM79.5496 27.3461L80.4724 26.9609L80.2907 26.5255L79.8391 26.3889L79.5496 27.3461ZM79.412 27.3049L79.127 28.2634L79.127 28.2634L79.412 27.3049ZM78.4433 27.0337L78.1893 28.0009V28.0009L78.4433 27.0337ZM70.3881 26V25H70.3881L70.3881 26ZM61.2376 27.3431L60.9484 26.3858L60.4937 26.5231L60.3129 26.9624L61.2376 27.3431ZM56.6559 38.472L55.7312 38.0913L55.5202 38.6038L55.843 39.0543L56.6559 38.472ZM70.3881 46.55H63.1591V48.55H70.3881V46.55ZM70.3881 48.55H77.6171V46.55H70.3881V48.55ZM77.6171 48.55H77.6172V46.55H77.6171V48.55ZM78.4248 48.1398L85.0203 39.1079L83.4052 37.9284L76.8096 46.9603L78.4248 48.1398ZM85.1391 38.1414L85.139 38.1413L83.2864 38.8949L83.2865 38.8949L85.1391 38.1414ZM83.399 37.9368L83.399 37.9369L85.0265 39.0993L85.0265 39.0993L83.399 37.9368ZM78.6268 27.7313L83.2899 38.9032L85.1356 38.1328L80.4724 26.9609L78.6268 27.7313ZM79.127 28.2634C79.1714 28.2766 79.2158 28.2899 79.2601 28.3033L79.8391 26.3889C79.7918 26.3746 79.7445 26.3604 79.6971 26.3464L79.127 28.2634ZM78.1893 28.0009C78.5035 28.0834 78.8161 28.1709 79.127 28.2634L79.6971 26.3464C79.3656 26.2478 79.0323 26.1545 78.6973 26.0665L78.1893 28.0009ZM70.3882 27C73.0591 27 75.6757 27.3408 78.1893 28.0009L78.6973 26.0665C76.0171 25.3626 73.2296 25 70.3882 25V27ZM70.3881 27H70.3881H70.3881C70.3881 27 70.3881 27 70.3881 27C70.3881 27 70.3881 27 70.3881 27C70.3881 27 70.3881 27 70.3881 27H70.3881C70.3881 27 70.3881 27 70.3881 27C70.3881 27 70.3881 27 70.3881 27C70.3881 27 70.3881 27 70.3881 27C70.3881 27 70.3881 27 70.3881 27C70.3881 27 70.3881 27 70.3881 27C70.3881 27 70.3881 27 70.3882 27C70.3882 27 70.3882 27 70.3882 27C70.3882 27 70.3882 27 70.3882 27C70.3882 27 70.3882 27 70.3882 27C70.3882 27 70.3882 27 70.3882 27C70.3882 27 70.3882 27 70.3882 27C70.3882 27 70.3882 27 70.3882 27C70.3882 27 70.3882 27 70.3882 27C70.3882 27 70.3882 27 70.3882 27H70.3882C70.3882 27 70.3882 27 70.3882 27C70.3882 27 70.3882 27 70.3882 27C70.3882 27 70.3882 27 70.3882 27H70.3882H70.3882V25H70.3882H70.3882C70.3882 25 70.3882 25 70.3882 25C70.3882 25 70.3882 25 70.3882 25C70.3882 25 70.3882 25 70.3882 25H70.3882C70.3882 25 70.3882 25 70.3882 25C70.3882 25 70.3882 25 70.3882 25C70.3882 25 70.3882 25 70.3882 25C70.3882 25 70.3882 25 70.3882 25C70.3882 25 70.3882 25 70.3882 25C70.3882 25 70.3882 25 70.3882 25C70.3882 25 70.3882 25 70.3882 25C70.3882 25 70.3882 25 70.3882 25C70.3881 25 70.3881 25 70.3881 25C70.3881 25 70.3881 25 70.3881 25C70.3881 25 70.3881 25 70.3881 25C70.3881 25 70.3881 25 70.3881 25C70.3881 25 70.3881 25 70.3881 25C70.3881 25 70.3881 25 70.3881 25H70.3881C70.3881 25 70.3881 25 70.3881 25C70.3881 25 70.3881 25 70.3881 25C70.3881 25 70.3881 25 70.3881 25H70.3881H70.3881V27ZM61.5267 28.3003C64.3614 27.4442 67.3395 27 70.3881 27L70.3881 25C67.1446 25 63.9716 25.4726 60.9484 26.3858L61.5267 28.3003ZM57.5806 38.8527L62.1623 27.7237L60.3129 26.9624L55.7312 38.0913L57.5806 38.8527ZM63.972 46.9677L57.4688 37.8896L55.843 39.0543L62.3462 48.1324L63.972 46.9677Z" fill="#B8C0CC"/>
<path d="M70.3888 69.7988L82.085 61.3006L92.7354 64.8258L95.4995 76.5232C94.6348 77.6598 93.6891 78.7467 92.662 79.774C89.2233 83.2126 85.1288 85.7562 80.6615 87.2925L70.388 80.9637L70.3888 69.7988Z" fill="#FCFDFF" stroke="#B8C0CC" stroke-width="2"/>
<path d="M92.7354 64.8258L82.0849 61.3006L77.6171 47.5501L84.2126 38.5182L96.1937 39.4222C99.7729 44.5085 101.754 50.5284 101.88 56.856L92.7354 64.8258Z" fill="#FCFDFF" stroke="#B8C0CC" stroke-width="2"/>
<path d="M96.1938 39.4222L84.2128 38.5182L79.5496 27.3462C84.45 28.8282 88.9397 31.5039 92.662 35.2262C93.9709 36.5351 95.15 37.939 96.1938 39.4222Z" fill="#FCFDFF" stroke="#B8C0CC" stroke-width="2"/>
<path d="M101.88 56.856C101.885 57.0704 101.888 57.2849 101.888 57.5001C101.888 64.4613 99.6434 71.0767 95.4996 76.5231L92.7355 64.8257L101.88 56.856Z" fill="#FCFDFF" stroke="#B8C0CC" stroke-width="2"/>
<path fill-rule="evenodd" clip-rule="evenodd" d="M79.4292 87.6879C79.843 87.5645 80.2538 87.4327 80.6616 87.2924L70.3881 80.9636V80.9637L70.388 80.9636L60.1364 87.3C63.3919 88.4169 66.845 89 70.388 89C72.3405 89 74.2655 88.823 76.1453 88.4771C77.257 88.2725 78.3529 88.0089 79.4292 87.6879Z" fill="#FCFDFF"/>
<path d="M79.4292 87.6879L79.715 88.6462L79.4292 87.6879ZM80.6616 87.2924L80.9868 88.2381L82.9867 87.5503L81.1861 86.441L80.6616 87.2924ZM70.3881 80.9636L70.9126 80.1122L69.3881 79.1731V80.9636H70.3881ZM70.3881 80.9637L69.8636 81.8151L71.3881 82.7543V80.9637H70.3881ZM70.388 80.9636L70.9125 80.1122L70.3871 79.7886L69.8622 80.113L70.388 80.9636ZM60.1364 87.3L59.6106 86.4493L57.8133 87.5602L59.8118 88.2458L60.1364 87.3ZM76.1453 88.4771L75.9643 87.4936L75.9643 87.4936L76.1453 88.4771ZM79.715 88.6462C80.142 88.5189 80.566 88.3828 80.9868 88.2381L80.3364 86.3468C79.9417 86.4825 79.544 86.6102 79.1434 86.7296L79.715 88.6462ZM81.1861 86.441L70.9126 80.1122L69.8636 81.815L80.1371 88.1438L81.1861 86.441ZM69.3881 80.9636V80.9637H71.3881V80.9636H69.3881ZM69.8635 81.8151L69.8636 81.8151L70.9126 80.1123L70.9125 80.1122L69.8635 81.8151ZM60.6621 88.1506L70.9138 81.8143L69.8622 80.113L59.6106 86.4493L60.6621 88.1506ZM70.388 88C66.9552 88 63.6118 87.4351 60.4609 86.3541L59.8118 88.2458C63.1721 89.3987 66.7348 90 70.388 90V88ZM75.9643 87.4936C74.1444 87.8285 72.2799 88 70.388 88V90C72.401 90 74.3866 89.8175 76.3262 89.4605L75.9643 87.4936ZM76.3262 89.4605C77.4733 89.2495 78.6042 88.9774 79.715 88.6462L79.1434 86.7296C78.1015 87.0403 77.0406 87.2955 75.9643 87.4936L76.3262 89.4605Z" fill="#B8C0CC"/>
<path fill-rule="evenodd" clip-rule="evenodd" d="M70.3881 47.55H77.6171L77.6171 47.5501L82.0851 61.3005L82.0851 61.3005L70.3881 69.7989L58.6911 61.3005L63.1591 47.5501H70.3881V47.55Z" fill="#FCFDFF"/>
<path d="M77.6171 47.55L78.5814 47.2852L78.3795 46.55H77.6171V47.55ZM70.3881 47.55V46.55H69.3881V47.55H70.3881ZM77.6171 47.5501L76.6528 47.8149L76.6589 47.8372L76.666 47.8591L77.6171 47.5501ZM82.0851 61.3005L81.134 61.6095L81.1394 61.626L81.1453 61.6423L82.0851 61.3005ZM82.0851 61.3005L82.6729 62.1096L83.2823 61.6668L83.0249 60.9588L82.0851 61.3005ZM70.3881 69.7989L69.8004 70.6079L70.3881 71.0349L70.9759 70.6079L70.3881 69.7989ZM58.6911 61.3005L57.74 60.9915L57.5155 61.6825L58.1033 62.1096L58.6911 61.3005ZM63.1591 47.5501V46.5501H62.4325L62.208 47.241L63.1591 47.5501ZM70.3881 47.5501V48.5501H71.3881V47.5501H70.3881ZM77.6171 46.55H70.3881V48.55H77.6171V46.55ZM78.5814 47.2852L78.5814 47.2852L76.6528 47.8149L76.6528 47.8149L78.5814 47.2852ZM83.0361 60.9915L78.5681 47.241L76.666 47.8591L81.134 61.6095L83.0361 60.9915ZM81.1453 61.6423L81.1453 61.6423L83.0249 60.9588L83.0249 60.9588L81.1453 61.6423ZM81.4973 60.4915L69.8003 68.9899L70.9759 70.6079L82.6729 62.1096L81.4973 60.4915ZM70.9759 68.9899L59.2789 60.4915L58.1033 62.1096L69.8004 70.6079L70.9759 68.9899ZM59.6421 61.6096L64.1101 47.8591L62.208 47.241L57.74 60.9915L59.6421 61.6096ZM63.1591 48.5501H70.3881V46.5501H63.1591V48.5501ZM69.3881 47.55V47.5501H71.3881V47.55H69.3881Z" fill="#8836DA"/>
<rect x="71.05" y="94.5222" width="4" height="6" rx="2" transform="rotate(30 71.05 94.5222)" fill="#FCFDFF" stroke="#8836DA" stroke-width="2"/>
<rect x="63.2558" y="90.0222" width="4" height="6" rx="2" transform="rotate(30 63.2558 90.0222)" fill="#FCFDFF" stroke="#B8C0CC" stroke-width="2"/>
<rect x="55.4615" y="85.5222" width="4" height="6" rx="2" transform="rotate(30 55.4615 85.5222)" fill="#FCFDFF" stroke="#8836DA" stroke-width="2"/>
<rect x="47.6673" y="81.0222" width="4" height="6" rx="2" transform="rotate(30 47.6673 81.0222)" fill="#FCFDFF" stroke="#B8C0CC" stroke-width="2"/>
<rect x="17.3564" y="63.5222" width="4" height="6" rx="2" transform="rotate(30 17.3564 63.5222)" fill="#FCFDFF" stroke="#B8C0CC" stroke-width="2"/>
<rect x="9.56218" y="59.0222" width="4" height="6" rx="2" transform="rotate(30 9.56218 59.0222)" fill="#FCFDFF" stroke="#8836DA" stroke-width="2"/>
<path d="M6.85044 55.576L7.02437 55.4391L7.12431 55.2416L20.2387 29.3269L20.2387 29.3269L20.2438 29.3166L21.6321 26.4933C21.9391 25.8691 22.7738 25.7412 23.2536 26.2449L31.4546 34.8536C32.9218 36.3939 34.8042 37.4756 36.8737 37.9678L49.93 41.0733C50.2623 41.1523 50.5313 41.3955 50.6433 41.7182L51.588 41.3902L50.6433 41.7182L52.289 46.4587L53.8547 50.9687C54.1757 51.8934 54.6187 52.7712 55.1721 53.5787L81.3238 91.746C82.6606 93.6969 82.7587 96.242 81.5763 98.2901L80.0763 100.888C79.8001 101.366 79.1885 101.53 78.7102 101.254L43.347 80.8372C42.2344 80.1948 41.2722 79.3217 40.5251 78.2765L37.3439 73.8258C35.5333 71.2927 32.734 69.6456 29.6404 69.2931L23.6653 68.6121C22.4385 68.4723 21.2536 68.0816 20.1844 67.4642L5.0583 58.7312C4.44561 58.3775 4.38393 57.5168 4.93991 57.0793L6.85044 55.576Z" fill="#FCFDFF" stroke="#B8C0CC" stroke-width="2"/>
<rect x="59.1174" y="55.6811" width="4" height="14" rx="2" transform="rotate(55 59.1174 55.6811)" fill="#FCFDFF" stroke="#B8C0CC" stroke-width="2"/>
<rect x="63.7517" y="62.2021" width="4" height="14" rx="2" transform="rotate(55 63.7517 62.2021)" fill="#FCFDFF" stroke="#8836DA" stroke-width="2"/>
<rect x="68.386" y="68.7231" width="4" height="14" rx="2" transform="rotate(55 68.386 68.7231)" fill="#FCFDFF" stroke="#B8C0CC" stroke-width="2"/>
</svg>
