<svg width="105" height="105" viewBox="0 0 105 105" fill="none" xmlns="http://www.w3.org/2000/svg">
<circle cx="52.5" cy="52.5" r="52.5" fill="#F0F4F7"/>
<path d="M58 55C58 54.4477 57.5523 54 57 54H28C27.4477 54 27 54.4477 27 55V103C27 103.552 27.4477 104 28 104H57C57.5523 104 58 103.552 58 103V55Z" fill="white" stroke="#B8C0CC" stroke-width="2"/>
<path d="M42 62C42 61.4477 41.5523 61 41 61H34C33.4477 61 33 61.4477 33 62V68C33 68.5523 33.4477 69 34 69H41C41.5523 69 42 68.5523 42 68V62Z" fill="white" stroke="#B8C0CC" stroke-width="2"/>
<path d="M95 27C95 26.4477 94.5523 26 94 26H49C48.4477 26 48 26.4477 48 27V103C48 103.552 48.4477 104 49 104H94C94.5523 104 95 103.552 95 103V27Z" fill="white" stroke="#B8C0CC" stroke-width="2"/>
<path d="M87 53C87 52.4477 86.5523 52 86 52H57C56.4477 52 56 52.4477 56 53V59C56 59.5523 56.4477 60 57 60H86C86.5523 60 87 59.5523 87 59V53Z" fill="white" stroke="#B8C0CC" stroke-width="2"/>
<path d="M87 71C87 70.4477 86.5523 70 86 70H57C56.4477 70 56 70.4477 56 71V77C56 77.5523 56.4477 78 57 78H86C86.5523 78 87 77.5523 87 77V71Z" fill="white" stroke="#B8C0CC" stroke-width="2"/>
<path d="M87 89C87 88.4477 86.5523 88 86 88H63C62.4477 88 62 88.4477 62 89V95C62 95.5523 62.4477 96 63 96H86C86.5523 96 87 95.5523 87 95V89Z" fill="white" stroke="#B8C0CC" stroke-width="2"/>
<path d="M72.6111 102.83C72.7165 103.441 72.2459 104 71.6257 104H34.3743C33.7541 104 33.2835 103.441 33.3889 102.83L37.6992 77.8301C37.7819 77.3504 38.198 77 38.6847 77H67.3153C67.802 77 68.2181 77.3504 68.3008 77.8301L72.6111 102.83Z" fill="white" stroke="#B8C0CC" stroke-width="2"/>
<path d="M58 86C58 85.4477 57.5523 85 57 85H49C48.4477 85 48 85.4477 48 86V103C48 103.552 48.4477 104 49 104H57C57.5523 104 58 103.552 58 103V86Z" fill="white" stroke="#8836DA" stroke-width="2"/>
<path d="M71 75C71 74.4477 70.5523 74 70 74H36C35.4477 74 35 74.4477 35 75V76C35 76.5523 35.4477 77 36 77H70C70.5523 77 71 76.5523 71 76V75Z" fill="white" stroke="#B8C0CC" stroke-width="2"/>
<path d="M77 102C77 101.448 76.5523 101 76 101H30C29.4477 101 29 101.448 29 102V103C29 103.552 29.4477 104 30 104H76C76.5523 104 77 103.552 77 103V102Z" fill="white" stroke="#B8C0CC" stroke-width="2"/>
<path d="M68.047 42.2399C67.4353 42.2099 67.4468 41.3832 68.0469 41.3545C69.7469 41.3602 74.2305 41.3561 75.9845 41.3573C76.4642 41.3573 76.8746 41.0436 76.9825 40.5945L77.9785 36.4507C78.0355 36.2134 77.978 35.9678 77.8206 35.777C77.6632 35.5861 77.4276 35.4751 77.1742 35.4751C76.4686 35.4751 70.4792 35.4491 67.4114 35.4373L66.9251 33.7036C66.8084 33.2893 66.4149 33 65.9682 33H64.4104C64.1837 33 64 33.1765 64 33.3943C64 33.6121 64.1837 33.7886 64.4104 33.7886H65.9682C66.0451 33.7886 66.1128 33.8384 66.1328 33.9093L68.0004 40.567C67.6721 40.5785 67.3662 40.7068 67.1342 40.9329C66.8905 41.1706 66.7597 41.4851 66.7657 41.8187C66.7778 42.4857 67.3526 43.0284 68.047 43.0284H68.6454C68.5564 43.2078 68.5065 43.4084 68.5065 43.6199C68.5065 44.3809 69.1508 45 69.9429 45C70.7349 45 71.3792 44.3809 71.3792 43.6199C71.3792 43.4083 71.3293 43.2078 71.2403 43.0284H73.8316C73.7427 43.2078 73.6928 43.4082 73.6928 43.6197C73.6928 44.3807 74.3372 44.9998 75.1292 44.9998C75.9212 44.9998 76.5656 44.3807 76.5656 43.6197C76.5656 43.4 76.5115 43.1922 76.4161 43.0076C76.5785 42.9551 76.6956 42.8079 76.6956 42.6342C76.6956 42.4164 76.5118 42.2399 76.2852 42.2399H68.047ZM70.5584 43.6199C70.5584 43.9461 70.2823 44.2114 69.9428 44.2114C69.6034 44.2114 69.3272 43.9461 69.3272 43.6199C69.3272 43.294 69.6031 43.0287 69.9423 43.0285H69.9433C70.2826 43.0287 70.5584 43.294 70.5584 43.6199ZM75.1292 44.2112C74.7898 44.2112 74.5136 43.9459 74.5136 43.6197C74.5136 43.2968 74.7844 43.0336 75.1192 43.0285H75.1392C75.4741 43.0336 75.7449 43.2968 75.7449 43.6197C75.7448 43.9459 75.4687 44.2112 75.1292 44.2112ZM77.1772 36.2666C77.1797 36.2695 77.1793 36.2709 77.1788 36.2732L76.7591 38.0193H75.3381L75.5801 36.2575L77.1709 36.2636C77.1734 36.2637 77.1748 36.2637 77.1772 36.2666ZM72.9464 40.5686V38.8079H74.4019L74.1601 40.5686H72.9464ZM70.9114 40.5686L70.6676 38.8079H72.1257V40.5686H70.9114ZM69.0223 40.5686H69.021C68.921 40.5686 68.8328 40.5038 68.8068 40.4114L68.357 38.8079H69.8396L70.0834 40.5686H69.0223ZM70.5584 38.0193L70.3116 36.2371L72.1256 36.2441V38.0193H70.5584ZM72.9464 38.0193V36.2473L74.7527 36.2543L74.5102 38.0193H72.9464ZM69.4832 36.2339L69.7304 38.0193H68.1358L67.6329 36.2267L69.4832 36.2339ZM75.9845 40.5686H74.9879L75.2298 38.8079H76.5696L76.1828 40.417C76.1614 40.5063 76.0798 40.5686 75.9845 40.5686Z" fill="#8836DA"/>
</svg>
