<svg width="20" height="20" viewBox="0 0 20 20" fill="none" xmlns="http://www.w3.org/2000/svg">
<path d="M13.9505 0.833496H6.04951C5.23977 0.833496 4.58334 1.4947 4.58334 2.31034V17.69C4.58334 18.5056 5.23977 19.1668 6.04951 19.1668H13.9505C14.7603 19.1668 15.4167 18.5056 15.4167 17.69V2.31034C15.4167 1.4947 14.7603 0.833496 13.9505 0.833496Z" fill="white" stroke="#6772E5" stroke-width="1.5" stroke-linecap="round" stroke-linejoin="round"/>
<path d="M8.33334 3.3335H11.6667" stroke="#6772E5" stroke-width="1.5" stroke-linecap="round"/>
<path d="M9.99999 17.5002C10.4602 17.5002 10.8333 17.1271 10.8333 16.6668C10.8333 16.2066 10.4602 15.8335 9.99999 15.8335C9.53975 15.8335 9.16666 16.2066 9.16666 16.6668C9.16666 17.1271 9.53975 17.5002 9.99999 17.5002Z" fill="#6772E5"/>
</svg>
