<svg width="20" height="20" viewBox="0 0 20 20" fill="none" xmlns="http://www.w3.org/2000/svg">
<path d="M13.9505 0.833496H6.04951C5.23977 0.833496 4.58334 1.4947 4.58334 2.31034V17.69C4.58334 18.5056 5.23977 19.1668 6.04951 19.1668H13.9505C14.7603 19.1668 15.4167 18.5056 15.4167 17.69V2.31034C15.4167 1.4947 14.7603 0.833496 13.9505 0.833496Z" fill="white" stroke="#6772E5" stroke-width="1.5" stroke-linecap="round" stroke-linejoin="round"/>
<path d="M10.0432 13.3313C10.1984 13.3313 10.3472 13.2783 10.4569 13.1841C10.5667 13.0898 10.6283 12.962 10.6283 12.8287V12.524C11.1344 12.4979 11.6098 12.307 11.9575 11.9903C12.3053 11.6735 12.4994 11.2547 12.5 10.8193V10.7692C12.4992 10.3167 12.2895 9.88282 11.9169 9.56279C11.5442 9.24277 11.039 9.06267 10.5121 9.06198H9.51816C9.31124 9.04906 9.11767 8.96937 8.97639 8.8389C8.83511 8.70842 8.75657 8.53683 8.75657 8.35866C8.75657 8.18048 8.83511 8.00894 8.97639 7.87846C9.11767 7.74799 9.31124 7.66825 9.51816 7.65533H10.9693C11.0548 7.65543 11.1367 7.68466 11.1971 7.73656C11.2576 7.78847 11.2916 7.85884 11.2917 7.93224V7.94411C11.2906 8.07353 11.3477 8.19832 11.4511 8.29246C11.5545 8.3866 11.6963 8.4428 11.8468 8.44936C11.9973 8.45592 12.1449 8.41233 12.2589 8.32767C12.3728 8.243 12.4444 8.1238 12.4585 7.99494V7.98715C12.4671 7.81898 12.437 7.65104 12.37 7.49286C12.3029 7.33469 12.2002 7.1894 12.0678 7.06531C11.9354 6.94123 11.7758 6.84078 11.5981 6.76969C11.4204 6.69861 11.2282 6.65829 11.0324 6.65104H10.9684H10.6288V6.34966C10.6309 6.28255 10.6173 6.21576 10.5889 6.15322C10.5604 6.09068 10.5177 6.03366 10.4632 5.98554C10.4086 5.93742 10.3435 5.89916 10.2715 5.87305C10.1994 5.84693 10.122 5.8335 10.0438 5.8335C9.96566 5.8335 9.88829 5.84693 9.81626 5.87305C9.74424 5.89916 9.67903 5.93742 9.62451 5.98554C9.56998 6.03366 9.52724 6.09068 9.4988 6.15322C9.47036 6.21576 9.45679 6.28255 9.45892 6.34966V6.65213C9.19787 6.65542 8.94016 6.70287 8.70044 6.79171C8.46073 6.88055 8.2437 7.00906 8.06182 7.16992C7.87993 7.33079 7.73674 7.52083 7.64038 7.72922C7.54402 7.93762 7.49638 8.16028 7.50021 8.38448C7.50404 8.60868 7.55925 8.83001 7.66269 9.03589C7.76613 9.24176 7.91577 9.42815 8.10307 9.58436C8.29037 9.74057 8.51171 9.86355 8.75435 9.9463C8.997 10.0291 9.25621 10.07 9.51726 10.0667H10.5112C10.6191 10.0667 10.7258 10.0849 10.8254 10.1204C10.925 10.1558 11.0156 10.2077 11.0918 10.2732C11.1681 10.3387 11.2285 10.4164 11.2698 10.502C11.3111 10.5875 11.3323 10.6793 11.3323 10.7719V10.8223C11.3316 11.009 11.2448 11.1878 11.0909 11.3195C10.937 11.4513 10.7285 11.5253 10.5112 11.5253H9.03674C8.99442 11.5253 8.95251 11.5182 8.9134 11.5043C8.87429 11.4904 8.83874 11.4701 8.8088 11.4444C8.77885 11.4187 8.7551 11.3882 8.7389 11.3547C8.72269 11.3211 8.71437 11.2851 8.71437 11.2488V11.244V11.192C8.71414 11.0604 8.65384 10.9342 8.54646 10.8404C8.43908 10.7466 8.29319 10.6927 8.14005 10.6903C7.98691 10.6878 7.83876 10.7371 7.72742 10.8274C7.61608 10.9177 7.55041 11.042 7.54453 11.1734V11.2257C7.54092 11.394 7.57595 11.5612 7.6476 11.7178C7.71926 11.8744 7.82616 12.0174 7.96217 12.1385C8.09818 12.2596 8.26063 12.3565 8.44027 12.4237C8.6199 12.4908 8.8132 12.527 9.0091 12.53H9.45765V12.8313C9.45777 12.9645 9.51948 13.0923 9.6292 13.1864C9.73892 13.2806 9.88767 13.3335 10.0428 13.3335L10.0432 13.3313Z" fill="#6772E5"/>
<path d="M8.33334 3.3335H11.6667" stroke="#6772E5" stroke-width="1.5" stroke-linecap="round"/>
<path d="M9.99999 17.5002C10.4602 17.5002 10.8333 17.1271 10.8333 16.6668C10.8333 16.2066 10.4602 15.8335 9.99999 15.8335C9.53975 15.8335 9.16666 16.2066 9.16666 16.6668C9.16666 17.1271 9.53975 17.5002 9.99999 17.5002Z" fill="#6772E5"/>
</svg>
