<svg width="20" height="20" viewBox="0 0 20 20" fill="none" xmlns="http://www.w3.org/2000/svg">
<path d="M19.1012 8.25848C19.101 6.28931 18.3186 4.40085 16.9263 3.00844C15.5339 1.61603 13.6456 0.833726 11.6765 0.833496V8.25848H19.1012Z" stroke="#6772E5" stroke-width="1.5" stroke-linecap="round" stroke-linejoin="round"/>
<path d="M8.25805 4.25C6.78959 4.25 5.35409 4.68548 4.13311 5.50135C2.91213 6.31722 1.96048 7.47685 1.39852 8.83359C0.836564 10.1903 0.689515 11.6833 0.975999 13.1236C1.26248 14.5639 1.96962 15.8869 3.00799 16.9253C4.04635 17.9637 5.36933 18.6709 6.80958 18.9573C8.24983 19.2438 9.74263 19.0968 11.0993 18.5348C12.456 17.9728 13.6156 17.0211 14.4314 15.8001C15.2473 14.5791 15.6828 13.1436 15.6828 11.675" stroke="#6772E5" stroke-width="1.5" stroke-linecap="round" stroke-linejoin="round"/>
</svg>
