<svg width="72" height="73" viewBox="0 0 72 73" fill="none" xmlns="http://www.w3.org/2000/svg">
<path d="M55.2446 38.6907C55.2446 45.0204 52.1176 51.0696 48.0571 55.5637C46.033 57.8041 43.8024 59.6284 41.6654 60.8864C39.5106 62.1548 37.531 62.801 35.9929 62.801C34.4548 62.801 32.4752 62.1548 30.3205 60.8864C28.1834 59.6284 25.9528 57.8041 23.9287 55.5637C19.8683 51.0696 16.7412 45.0204 16.7412 38.6907C16.7412 25.7486 24.877 15.6052 35.9929 15.6052C47.1088 15.6052 55.2446 25.7486 55.2446 38.6907Z" fill="white" stroke="#B8C0CC" stroke-width="2"/>
<path d="M33.7366 13.689C37.6013 9.77728 43.7419 9.31125 47.873 12.8117C50.0649 14.669 52.2999 16.658 54.0387 18.4176C57.5307 21.9516 58.734 26.7383 59.1283 29.1463C59.2586 29.9422 59.1558 30.7825 58.8827 31.628L58.065 34.1599C57.4147 36.1733 55.0008 36.8731 53.4274 35.5256C50.5323 33.0462 46.8195 29.7671 44.1249 27.0398C40.3368 23.2055 35.7399 17.6068 33.6552 15.0171C33.3474 14.6348 33.3727 14.0574 33.7366 13.689Z" fill="white" stroke="#B8C0CC" stroke-width="2" stroke-linecap="round"/>
<path d="M14.6817 40.2119C10.8972 36.3812 10.7902 30.2141 14.4666 26.2942C17.5567 22.9994 21.1057 19.2595 23.9883 16.3414C27.6877 12.5966 31.9929 8.55935 35.0691 5.72833C37.0857 3.87249 40.0779 3.63834 42.3787 5.12633L44.5174 7.53164C45.5192 8.65844 45.5366 10.3517 44.5597 11.4847C41.5214 15.0083 36.0163 21.2867 31.5048 25.8531C26.3091 31.1121 18.7648 37.6967 15.7861 40.2634C15.4662 40.539 14.9884 40.5222 14.6817 40.2119Z" fill="white" stroke="#B8C0CC" stroke-width="2" stroke-linecap="round"/>
<path d="M29.9675 39.2683C29.9675 39.2683 28.6727 38.4748 27.2912 38.7414C25.9097 39.008 24.9941 40.228 24.9941 40.228" stroke="#B8C0CC" stroke-width="2" stroke-linecap="round"/>
<path d="M42.0686 39.1851C42.0686 39.1851 43.3635 38.3916 44.745 38.6581C46.1264 38.9247 47.042 40.1448 47.042 40.1448" stroke="#B8C0CC" stroke-width="2" stroke-linecap="round"/>
<path d="M39.0306 51.5017C39.0306 51.5017 37.6805 52.5266 35.9928 52.5266C34.3052 52.5266 32.9551 51.5017 32.9551 51.5017" stroke="#B8C0CC" stroke-width="2" stroke-linecap="round"/>
<path d="M37.0056 47.4021H34.9805" stroke="#B8C0CC" stroke-linecap="round"/>
<path d="M53.0741 71.0983C51.524 73.6746 48.4239 70.0678 45.3238 68.522C42.8437 67.2854 40.8461 69.0373 40.1572 70.0678C39.8128 68.1785 40.0539 63.7816 43.774 61.3084C47.4941 58.8351 50.8354 53.7513 52.041 51.5185L54.1074 48.427C59.791 54.0948 59.791 70.0678 58.7576 68.522C57.7242 66.9762 54.6241 68.522 53.0741 71.0983ZM53.0741 71.0983C52.7296 70.7548 51.5118 69.5931 53.0741 64.4C54.6241 59.2474 53.4185 55.9841 53.0741 55.1254" stroke="#FE5F75" stroke-width="2" stroke-linecap="round" stroke-linejoin="round"/>
<ellipse cx="26.8796" cy="46.3775" rx="3.03776" ry="3.07474" fill="#FE5F75" fill-opacity="0.1"/>
<ellipse cx="45.1061" cy="46.3775" rx="3.03776" ry="3.07474" fill="#FE5F75" fill-opacity="0.1"/>
<path d="M18.8542 60.9427L18.7951 60.7948L18.9429 60.854C19.3005 60.997 19.6995 60.997 20.0571 60.854L20.2049 60.7948L20.1458 60.9427C20.0028 61.3003 20.0028 61.6992 20.1458 62.0568L20.2049 62.2047L20.0571 62.1456C19.6995 62.0025 19.3005 62.0025 18.9429 62.1456L18.7951 62.2047L18.8542 62.0568C18.9972 61.6992 18.9972 61.3003 18.8542 60.9427L17.9257 61.3141L18.8542 60.9427Z" stroke="#B8C0CC" stroke-width="2" stroke-linecap="round" stroke-linejoin="round"/>
<path d="M1.79506 40.7948L3.44291 41.454C3.80053 41.597 4.19947 41.597 4.55709 41.454L4.21581 40.6008L4.55709 41.454L6.20495 40.7948L5.5458 42.4427C5.40275 42.8003 5.40276 43.1992 5.5458 43.5568L6.20495 45.2047L4.55709 44.5456C4.19947 44.4025 3.80053 44.4025 3.44291 44.5456L1.79505 45.2047L2.4542 43.5568C2.59725 43.1992 2.59724 42.8003 2.4542 42.4427L1.79506 40.7948Z" stroke="#B8C0CC" stroke-width="2" stroke-linecap="round" stroke-linejoin="round"/>
<path d="M67.2542 39.9427L66.7951 38.7948L67.9429 39.254C68.3005 39.397 68.6995 39.397 69.0571 39.254L70.2049 38.7948L69.7458 39.9427C69.6028 40.3003 69.6028 40.6992 69.7458 41.0568L70.2049 42.2047L69.0571 41.7456C68.6995 41.6025 68.3005 41.6025 67.9429 41.7456L66.7951 42.2047L67.2542 41.0568C67.3972 40.6992 67.3972 40.3003 67.2542 39.9427Z" stroke="#B8C0CC" stroke-width="2" stroke-linecap="round" stroke-linejoin="round"/>
</svg>
