<svg width="74" height="73" viewBox="0 0 74 73" fill="none" xmlns="http://www.w3.org/2000/svg">
<path d="M22 35C22 37.2091 20.2091 39 18 39C16.9291 39 16.235 38.5855 15.7746 37.9493C15.2832 37.2702 15 36.2505 15 35C15 33.7495 15.2832 32.7298 15.7746 32.0507C16.235 31.4145 16.9291 31 18 31C20.2091 31 22 32.7909 22 35Z" fill="white" stroke="#B8C0CC" stroke-width="2"/>
<path d="M67 72L61.7859 15.3706C61.3158 10.2649 57.6537 6.02196 52.6716 4.81056L39.8352 1.68938C37.9722 1.23639 36.0278 1.23639 34.1648 1.68938L21.3284 4.81056C16.3463 6.02196 12.6842 10.2649 12.2141 15.3706L7 72" stroke="#B8C0CC" stroke-width="2" stroke-linecap="round"/>
<path d="M73 65L66.5792 28.8828C66.0765 26.0551 64.5762 23.5014 62.351 21.6857L44.5865 7.19041C40.1706 3.58714 33.8294 3.58713 29.4135 7.1904L11.649 21.6857C9.42377 23.5014 7.92354 26.0551 7.42083 28.8828L1 65" stroke="#B8C0CC" stroke-width="2" stroke-linecap="round"/>
<path d="M17.5005 34.5C18.6671 36.3333 20.2005 40.4 17.0005 42C13.0005 44 14.0005 47 17.5005 48C21.0005 49 18 51.5 16.5 51" stroke="#FE5F75" stroke-linecap="round"/>
<path d="M56.6304 35C55.4637 36.8333 53.9304 40.9 57.1304 42.5C61.1304 44.5 60.1304 47.5 56.6304 48.5C53.1304 49.5 56.1309 52 57.6309 51.5" stroke="#FE5F75" stroke-linecap="round"/>
<circle cx="37" cy="10" r="9" fill="white" stroke="#FE5F75" stroke-width="2"/>
<path d="M59 35C59 36.2505 58.7168 37.2702 58.2254 37.9493C57.765 38.5855 57.0709 39 56 39C53.7909 39 52 37.2091 52 35C52 32.7909 53.7909 31 56 31C57.0709 31 57.765 31.4145 58.2254 32.0507C58.7168 32.7298 59 33.7495 59 35Z" fill="white" stroke="#B8C0CC" stroke-width="2"/>
<path d="M56 31.9896C56 39.2049 52.9782 45.956 48.3067 50.4499C46.5205 52.1683 44.3816 53.566 42.3218 54.5315C40.2443 55.5053 38.3322 56 37 56C35.6678 56 33.7557 55.5053 31.6782 54.5315C29.6184 53.566 27.4795 52.1683 25.6933 50.4499C21.0218 45.956 18 39.2049 18 31.9896C18 25.4632 19.2362 19.7093 22.1866 15.6106C25.0954 11.5696 29.77 9 37 9C44.23 9 48.9046 11.5696 51.8134 15.6106C54.7638 19.7093 56 25.4632 56 31.9896Z" fill="white" stroke="#B8C0CC" stroke-width="2"/>
<path d="M30.9167 33.7327C30.9167 33.7327 29.7956 34.7571 28.3887 34.7571C26.9817 34.7571 25.8516 33.7327 25.8516 33.7327" stroke="#B8C0CC" stroke-width="2" stroke-linecap="round"/>
<path d="M48.1803 33.6489C48.1803 33.6489 47.0593 34.6734 45.6523 34.6734C44.2454 34.6734 43.1152 33.6489 43.1152 33.6489" stroke="#B8C0CC" stroke-width="2" stroke-linecap="round"/>
<path d="M41 47C41 47 39.2222 48 37 48C34.7778 48 33 47 33 47" stroke="#B8C0CC" stroke-width="2" stroke-linecap="round"/>
<path d="M38.0056 42.4021H35.9805" stroke="#B8C0CC" stroke-linecap="round"/>
<circle cx="27.5" cy="41.5" r="3.5" fill="#FE5F75" fill-opacity="0.1"/>
<circle cx="46.5" cy="41.5" r="3.5" fill="#FE5F75" fill-opacity="0.1"/>
<path d="M18 30.5C18.5 20 25.5 23.5 35 24C42.6 24.4 45.5 18.8333 46 16C46 18.3333 46.6 23.3 49 24.5C52 26 56 25.5 56 30.5" stroke="#B8C0CC" stroke-width="2" stroke-linecap="round" stroke-linejoin="round"/>
<path d="M45.6788 53C43.9052 57.8 45.5824 69.08 51 71" stroke="#B8C0CC" stroke-width="2" stroke-linecap="round"/>
<path d="M28.3212 53C30.0948 57.8 28.4176 69.08 23 71" stroke="#B8C0CC" stroke-width="2" stroke-linecap="round"/>
</svg>
