<svg width="74" height="74" viewBox="0 0 74 74" fill="none" xmlns="http://www.w3.org/2000/svg">
<path d="M73 54.5316V66H52V39H63.1014L73 54.5316Z" fill="white" stroke="#B8C0CC" stroke-width="2"/>
<rect x="10" y="25" width="40" height="41" rx="1" fill="white" stroke="#B8C0CC" stroke-width="2"/>
<rect x="10" y="41" width="40" height="14" rx="1" stroke="#B8C0CC" stroke-width="2"/>
<path d="M51.9952 24.4042L51.9953 24.4074C51.9984 24.4913 52 24.5742 52 24.6578C52 28.2357 49.3437 31 46.2545 31C44.4049 31 42.7288 30.0247 41.6632 28.4617C41.477 28.1885 41.1677 28.0251 40.8371 28.025C40.5065 28.025 40.1972 28.1883 40.0109 28.4614C38.9443 30.0247 37.268 31 35.4185 31C33.5679 31 31.8918 30.0246 30.8262 28.4617C30.64 28.1885 30.3307 28.025 30 28.025C29.6693 28.025 29.36 28.1885 29.1738 28.4617C28.1083 30.0245 26.4313 31 24.5815 31C22.732 31 21.0557 30.0247 19.9891 28.4614C19.8028 28.1883 19.4935 28.025 19.1629 28.025C18.8323 28.0251 18.523 28.1885 18.3368 28.4617C17.2712 30.0247 15.5951 31 13.7455 31C10.6563 31 8 28.2357 8 24.6578C8 24.5742 8.00156 24.4913 8.00469 24.4074L8.0047 24.4074L8.00485 24.403C8.01429 24.1164 8.21648 24 8.33148 24H19.1586H19.1586H19.1586H19.1586H19.1586H19.1586H19.1586H19.1586H19.1586H19.1586H19.1587H19.1587H19.1587H19.1587H19.1587H19.1587H19.1587H19.1587H19.1587H19.1588H19.1588H19.1588H19.1588H19.1588H19.1588H19.1588H19.1588H19.1588H19.1588H19.1589H19.1589H19.1589H19.1589H19.1589H19.1589H19.1589H19.1589H19.1589H19.1589H19.159H19.159H19.159H19.159H19.159H19.159H19.159H19.159H19.159H19.159H19.159H19.1591H19.1591H19.1591H19.1591H19.1591H19.1591H19.1591H19.1591H19.1591H19.1591H19.1592H19.1592H19.1592H19.1592H19.1592H19.1592H19.1592H19.1592H19.1592H19.1592H19.1592H19.1593H19.1593H19.1593H19.1593H19.1593H19.1593H19.1593H19.1593H19.1593H19.1593H19.1593H19.1594H19.1594H19.1594H19.1594H19.1594H19.1594H19.1594H19.1594H19.1594H19.1594H19.1594H19.1595H19.1595H19.1595H19.1595H19.1595H19.1595H19.1595H19.1595H19.1595H19.1595H19.1595H19.1596H19.1596H19.1596H19.1596H19.1596H19.1596H19.1596H19.1596H19.1596H19.1596H19.1596H19.1596H19.1597H19.1597H19.1597H19.1597H19.1597H19.1597H19.1597H19.1597H19.1597H19.1597H19.1597H19.1598H19.1598H19.1598H19.1598H19.1598H19.1598H19.1598H19.1598H19.1598H19.1598H19.1598H19.1598H19.1599H19.1599H19.1599H19.1599H19.1599H19.1599H19.1599H19.1599H19.1599H19.1599H19.1599H19.1599H19.16H19.16H19.16H19.16H19.16H19.16H19.16H19.16H19.16H19.16H19.16H19.16H19.1601H19.1601H19.1601H19.1601H19.1601H19.1601H19.1601H19.1601H19.1601H19.1601H19.1601H19.1601H19.1602H19.1602H19.1602H19.1602H19.1602H19.1602H19.1602H19.1602H19.1602H19.1602H19.1602H19.1602H19.1603H19.1603H19.1603H19.1603H19.1603H19.1603H19.1603H19.1603H19.1603H19.1603H19.1603H19.1603H19.1603H19.1604H19.1604H19.1604H19.1604H19.1604H19.1604H19.1604H19.1604H19.1604H19.1604H19.1604H19.1604H19.1605H19.1605H19.1605H19.1605H19.1605H19.1605H19.1605H19.1605H19.1605H19.1605H19.1605H19.1605H19.1605H19.1606H19.1606H19.1606H19.1606H19.1606H19.1606H19.1606H19.1606H19.1606H19.1606H19.1606H19.1606H19.1607H19.1607H19.1607H19.1607H19.1607H19.1607H19.1607H19.1607H19.1607H19.1607H19.1607H19.1607H19.1607H19.1608H19.1608H19.1608H19.1608H19.1608H19.1608H19.1608H19.1608H19.1608H19.1608H19.1608H19.1608H19.1608H19.1609H19.1609H19.1609H19.1609H19.1609H19.1609H19.1609H19.1609H19.1609H19.1609H19.1609H19.1609H19.161H19.161H19.161H19.161H19.161H19.161H19.161H19.161H19.161H19.161H19.161H19.161H19.161H19.1611H19.1611H19.1611H19.1611H19.1611H19.1611H19.1611H19.1611H19.1611H19.1611H19.1611H19.1611H19.1611H19.1612H19.1612H19.1612H19.1612H19.1612H19.1612H19.1612H19.1612H19.1612H19.1612H19.1612H19.1612H19.1613H19.1613H19.1613H19.1613H19.1613H19.1613H19.1613H19.1613H19.1613H19.1613H19.1613H19.1613H19.1614H19.1614H19.1614H19.1614H19.1614H19.1614H19.1614H19.1614H19.1614H19.1614H19.1614H19.1614H19.1614H19.1615H19.1615H19.1615H19.1615H19.1615H19.1615H19.1615H19.1615H19.1615H19.1615H19.1615H19.1615H19.1616H19.1616H19.1616H19.1616H19.1616H19.1616H19.1616H19.1616H19.1616H19.1616H19.1616H19.1616H19.1617H19.1617H19.1617H19.1617H19.1617H19.1617H19.1617H19.1617H19.1617H19.1617H19.1617H19.1617H19.1618H19.1618H19.1618H19.1618H19.1618H19.1618H19.1618H19.1618H19.1618H19.1618H19.1618H19.1618H19.1619H19.1619H19.1619H19.1619H19.1619H19.1619H19.1619H19.1619H19.1619H19.1619H19.1619H19.162H19.162H19.162H19.162H19.162H19.162H19.162H19.162H19.162H19.162H19.162H19.162H19.1621H19.1621H19.1621H19.1621H19.1621H19.1621H19.1621H19.1621H19.1621H19.1621H19.1621H19.1622H19.1622H19.1622H19.1622H19.1622H19.1622H19.1622H19.1622H19.1622H19.1622H19.1622H19.1623H19.1623H19.1623H19.1623H19.1623H19.1623H19.1623H19.1623H19.1623H19.1623H19.1623H19.1624H19.1624H19.1624H19.1624H19.1624H19.1624H19.1624H19.1624H19.1624H19.1624H19.1624H19.1625H19.1625H19.1625H19.1625H19.1625H19.1625H19.1625H19.1625H19.1625H19.1625H19.1626H19.1626H19.1626H19.1626H19.1626H19.1626H19.1626H19.1626H19.1626H19.1626H19.1627H19.1627H19.1627H19.1627H19.1627H19.1627H19.1627H19.1627H19.1627H19.1627H19.1628H19.1628H19.1628H19.1628H19.1628H19.1628H19.1628H19.1628H19.1628H19.1628H19.1629H19.1629H19.1629H19.1629H19.1629H19.1629H19.1629H19.1629H19.1629H19.1629H19.163H19.163H19.163H19.163H19.163H19.163H19.163H19.163H19.163H19.163H19.1631H19.1631H19.1631H19.1631H19.1631H19.1631H19.1631H19.1631H19.1631H19.1632H19.1632H19.1632H19.1632H19.1632H19.1632H19.1632H19.1632H19.1632H19.1632H19.1633H19.1633H19.1633H19.1633H19.1633H19.1633H19.1633H19.1633H19.1633H19.1633H19.1634H19.1634H19.1634H19.1634H19.1634H19.1634H19.1634H19.1634H19.1634H19.1634H19.1635H19.1635H19.1635H19.1635H19.1635H19.1635H19.1635H19.1635H19.1635H19.1635H19.1636H19.1636H19.1636H19.1636H19.1636H19.1636H19.1636H19.1636H19.1636H19.1636H19.1636H19.1637H19.1637H19.1637H19.1637H19.1637H19.1637H19.1637H19.1637H19.1637H19.1637H19.1637H19.1638H19.1638H19.1638H19.1638H19.1638H19.1638H19.1638H19.1638H19.1638H19.1638H19.1638H19.1639H19.1639H19.1639H19.1639H19.1639H19.1639H19.1639H19.1639H19.1639H19.1639H19.1639H19.164H19.164H19.164H19.164H19.164H19.164H19.164H19.164H19.164H19.164H19.164H19.1641H19.1641H19.1641H19.1641H19.1641H19.1641H19.1641H19.1641H19.1641H19.1641H19.1641H19.1642H19.1642H19.1642H19.1642H19.1642H19.1642H19.1642H19.1642H19.1642H19.1642H19.1642H19.1642H19.1643H19.1643H19.1643H19.1643H19.1643H19.1643H19.1643H19.1643H19.1643H19.1643H19.1643H19.1643H19.1644H19.1644H19.1644H19.1644H19.1644H19.1644H19.1644H19.1644H19.1644H19.1644H19.1644H19.1644H19.1645H19.1645H19.1645H19.1645H19.1645H19.1645H19.1645H19.1645H19.1645H19.1645H19.1645H19.1645H19.1646H19.1646H19.1646H19.1646H19.1646H19.1646H19.1646H19.1646H19.1646H19.1646H19.1646H19.1646H19.1647H19.1647H19.1647H19.1647H19.1647H19.1647H19.1647H19.1647H19.1647H19.1647H19.1647H19.1647H19.1648H19.1648H19.1648H19.1648H19.1648H19.1648H19.1648H19.1648H19.1648H19.1648H19.1648H19.1648H19.1648H19.1649H19.1649H19.1649H19.1649H19.1649H19.1649H19.1649H19.1649H19.1649H19.1649H19.1649H19.1649H19.165H19.165H19.165H19.165H19.165H19.165H19.165H19.165H19.165H19.165H19.165H19.165H19.165H19.1651H19.1651H19.1651H19.1651H19.1651H19.1651H19.1651H19.1651H19.1651H19.1651H19.1651H19.1651H19.1652H19.1652H19.1652H19.1652H19.1652H19.1652H19.1652H19.1652H19.1652H19.1652H19.1652H19.1652H19.1652H19.1653H19.1653H19.1653H19.1653H19.1653H19.1653H19.1653H19.1653H19.1653H19.1653H19.1653H19.1653H19.1653H19.1654H19.1654H19.1654H19.1654H19.1654H19.1654H19.1654H19.1654H19.1654H19.1654H19.1654H19.1654H19.1655H19.1655H19.1655H19.1655H19.1655H19.1655H19.1655H19.1655H19.1655H19.1655H19.1655H19.1655H19.1655H19.1656H19.1656H19.1656H19.1656H19.1656H19.1656H19.1656H19.1656H19.1656H19.1656H19.1656H19.1656H19.1656H19.1657H19.1657H19.1657H19.1657H19.1657H19.1657H19.1657H19.1657H19.1657H19.1657H19.1657H19.1657H19.1658H19.1658H19.1658H19.1658H19.1658H19.1658H19.1658H19.1658H19.1658H19.1658H19.1658H19.1658H19.1659H19.1659H19.1659H19.1659H19.1659H19.1659H19.1659H19.1659H19.1659H19.1659H19.1659H19.1659H19.1659H19.166H19.166H19.166H19.166H19.166H19.166H19.166H19.166H19.166H19.166H19.166H19.166H19.1661H19.1661H19.1661H19.1661H19.1661H19.1661H19.1661H19.1661H19.1661H19.1661H19.1661H19.1661H19.1662H19.1662H19.1662H19.1662H19.1662H19.1662H19.1662H19.1662H19.1662H19.1662H19.1662H19.1662H19.1663H19.1663H19.1663H19.1663H19.1663H19.1663H19.1663H19.1663H19.1663H19.1663H19.1663H19.1663H19.1664H19.1664H19.1664H19.1664H19.1664H19.1664H19.1664H19.1664H19.1664H19.1664H19.1664H19.1665H19.1665H19.1665H19.1665H19.1665H19.1665H19.1665H19.1665H19.1665H19.1665H19.1665H19.1665H19.1666H19.1666H19.1666H19.1666H19.1666H19.1666H19.1666H19.1666H19.1666H19.1666H19.1666H19.1667H19.1667H19.1667H19.1667H19.1667H19.1667H19.1667H19.1667H19.1667H19.1667H19.1667H19.1668H19.1668H19.1668H19.1668H19.1668H19.1668H19.1668H19.1668H19.1668H19.1668H19.1668H19.1669H19.1669H19.1669H19.1669H19.1669H19.1669H19.1669H19.1669H19.1669H19.1669H19.167H19.167H19.167H19.167H19.167H19.167H19.167H19.167H19.167H19.167H19.167H19.1671H19.1671H19.1671H19.1671H19.1671H19.1671H19.1671H19.1671H19.1671H19.1671H19.1672H19.1672H19.1672H19.1672H19.1672H19.1672H19.1672H19.1672H19.1672H19.1672H19.1673H19.1673H19.1673H19.1673H19.1673H19.1673H19.1673H19.1673H19.1673H19.1673H19.1674H19.1674H19.1674H19.1674H19.1674H19.1674H19.1674H19.1674H19.1674H19.1674H19.1675H19.1675H19.1675H19.1675H19.1675H19.1675H19.1675H19.1675H19.1675H29.9955H29.9955H29.9956H29.9956H29.9956H29.9956H29.9956H29.9957H29.9957H29.9957H29.9957H29.9957H29.9958H29.9958H29.9958H29.9958H29.9958H29.9959H29.9959H29.9959H29.9959H29.996H29.996H29.996H29.996H29.996H29.9961H29.9961H29.9961H29.9961H29.9961H29.9962H29.9962H29.9962H29.9962H29.9962H29.9963H29.9963H29.9963H29.9963H29.9963H29.9964H29.9964H29.9964H29.9964H29.9965H29.9965H29.9965H29.9965H29.9965H29.9966H29.9966H29.9966H29.9966H29.9966H29.9967H29.9967H29.9967H29.9967H29.9967H29.9968H29.9968H29.9968H29.9968H29.9968H29.9969H29.9969H29.9969H29.9969H29.9969H29.997H29.997H29.997H29.997H29.997H29.9971H29.9971H29.9971H29.9971H29.9971H29.9972H29.9972H29.9972H29.9972H29.9972H29.9973H29.9973H29.9973H29.9973H29.9973H29.9974H29.9974H29.9974H29.9974H29.9974H29.9975H29.9975H29.9975H29.9975H29.9975H29.9976H29.9976H29.9976H29.9976H29.9976H29.9977H29.9977H29.9977H29.9977H29.9977H29.9978H29.9978H29.9978H29.9978H29.9978H29.9978H29.9979H29.9979H29.9979H29.9979H29.9979H29.998H29.998H29.998H29.998H29.998H29.9981H29.9981H29.9981H29.9981H29.9981H29.9981H29.9982H29.9982H29.9982H29.9982H29.9982H29.9983H29.9983H29.9983H29.9983H29.9983H29.9983H29.9984H29.9984H29.9984H29.9984H29.9984H29.9985H29.9985H29.9985H29.9985H29.9985H29.9985H29.9986H29.9986H29.9986H29.9986H29.9986H29.9986H29.9987H29.9987H29.9987H29.9987H29.9987H29.9987H29.9988H29.9988H29.9988H29.9988H29.9988H29.9988H29.9989H29.9989H29.9989H29.9989H29.9989H29.9989H29.999H29.999H29.999H29.999H29.999H29.999H29.999H29.9991H29.9991H29.9991H29.9991H29.9991H29.9991H29.9992H29.9992H29.9992H29.9992H29.9992H29.9992H29.9993H29.9993H29.9993H29.9993H29.9993H29.9993H29.9994H29.9994H29.9994H29.9994H29.9994H29.9995H29.9995H29.9995H29.9995H29.9995H29.9996H29.9996H29.9996H29.9996H29.9996H29.9997H29.9997H29.9997H29.9997H29.9997H29.9997H29.9998H29.9998H29.9998H29.9998H29.9998H29.9999H29.9999H29.9999H29.9999H29.9999H29.9999H30H30H30H30H30H30H30.0001H30.0001H30.0001H30.0001H30.0001H30.0001H30.0002H30.0002H30.0002H30.0002H30.0002H30.0003H30.0003H30.0003H30.0003H30.0003H30.0004H30.0004H30.0004H30.0004H30.0004H30.0005H30.0005H30.0005H30.0005H30.0005H30.0006H30.0006H30.0006H30.0006H30.0006H30.0006H30.0007H30.0007H30.0007H30.0007H30.0007H30.0008H30.0008H30.0008H30.0008H30.0008H30.0008H30.0009H30.0009H30.0009H30.0009H30.0009H30.0009H30.0009H30.001H30.001H30.001H30.001H30.001H30.001H30.0011H30.0011H30.0011H30.0011H30.0011H30.0011H30.0012H30.0012H30.0012H30.0012H30.0012H30.0012H30.0012H30.0013H30.0013H30.0013H30.0013H30.0013H30.0014H30.0014H30.0014H30.0014H30.0014H30.0014H30.0015H30.0015H30.0015H30.0015H30.0015H30.0015H30.0016H30.0016H30.0016H30.0016H30.0016H30.0016H30.0017H30.0017H30.0017H30.0017H30.0017H30.0018H30.0018H30.0018H30.0018H30.0018H30.0018H30.0019H30.0019H30.0019H30.0019H30.0019H30.002H30.002H30.002H30.002H30.002H30.002H30.0021H30.0021H30.0021H30.0021H30.0021H30.0022H30.0022H30.0022H30.0022H30.0022H30.0023H30.0023H30.0023H30.0023H30.0023H30.0024H30.0024H30.0024H30.0024H30.0024H30.0024H30.0025H30.0025H30.0025H30.0025H30.0025H30.0026H30.0026H30.0026H30.0026H30.0026H30.0027H30.0027H30.0027H30.0027H30.0027H30.0028H30.0028H30.0028H30.0028H30.0028H30.0029H30.0029H30.0029H30.0029H30.0029H30.003H30.003H30.003H30.003H30.003H30.0031H30.0031H30.0031H30.0031H30.0031H30.0032H30.0032H30.0032H30.0032H30.0033H30.0033H30.0033H30.0033H30.0033H30.0034H30.0034H30.0034H30.0034H30.0034H30.0035H30.0035H30.0035H30.0035H30.0035H30.0036H30.0036H30.0036H30.0036H30.0036H30.0037H30.0037H30.0037H30.0037H30.0037H30.0038H30.0038H30.0038H30.0038H30.0039H30.0039H30.0039H30.0039H30.0039H30.004H30.004H30.004H30.004H30.004H30.0041H30.0041H30.0041H30.0041H30.0041H30.0042H30.0042H30.0042H30.0042H30.0042H30.0043H30.0043H30.0043H30.0043H30.0044H30.0044H30.0044H30.0044H30.0044H30.0045H30.0045H40.8316H40.8316H40.8316H40.8317H40.8317H40.8317H40.8318H40.8318H40.8318H40.8318H40.8319H40.8319H40.8319H40.832H40.832H40.832H40.8321H40.8321H40.8321H40.8322H40.8322H40.8322H40.8323H40.8323H40.8323H40.8324H40.8324H40.8324H40.8325H40.8325H40.8325H40.8326H40.8326H40.8326H40.8326H40.8327H40.8327H40.8327H40.8328H40.8328H40.8328H40.8329H40.8329H40.8329H40.833H40.833H40.833H40.8331H40.8331H40.8332H40.8332H40.8332H40.8333H40.8333H40.8333H40.8334H40.8334H40.8334H40.8335H40.8335H40.8335H40.8336H40.8336H40.8336H40.8337H40.8337H40.8337H40.8338H40.8338H40.8338H40.8339H40.8339H40.834H40.834H40.834H40.8341H40.8341H40.8341H40.8342H40.8342H40.8342H40.8343H40.8343H40.8343H40.8344H40.8344H40.8344H40.8345H40.8345H40.8345H40.8346H40.8346H40.8346H40.8346H40.8347H40.8347H40.8347H40.8348H40.8348H40.8348H40.8349H40.8349H40.8349H40.835H40.835H40.835H40.835H40.8351H40.8351H40.8351H40.8352H40.8352H40.8352H40.8353H40.8353H40.8353H40.8354H40.8354H40.8354H40.8355H40.8355H40.8355H40.8355H40.8356H40.8356H40.8356H40.8357H40.8357H40.8357H40.8358H40.8358H40.8358H40.8359H40.8359H40.8359H40.836H40.836H40.836H40.8361H40.8361H40.8361H40.8361H40.8362H40.8362H40.8362H40.8363H40.8363H40.8363H40.8364H40.8364H40.8364H40.8365H40.8365H40.8365H40.8366H40.8366H40.8367H40.8367H40.8367H40.8368H40.8368H40.8368H40.8369H40.8369H40.8369H40.837H40.837H40.837H40.8371H40.8371H40.8371H40.8372H40.8372H40.8372H40.8373H40.8373H40.8373H40.8374H40.8374H40.8374H40.8375H40.8375H40.8375H40.8376H40.8376H40.8376H40.8377H40.8377H40.8377H40.8378H40.8378H40.8378H40.8379H40.8379H40.8379H40.838H40.838H40.838H40.8381H40.8381H40.8381H40.8382H40.8382H40.8382H40.8383H40.8383H40.8383H40.8383H40.8384H40.8384H40.8384H40.8385H40.8385H40.8385H40.8386H40.8386H40.8386H40.8387H40.8387H40.8387H40.8388H40.8388H40.8388H40.8389H40.8389H40.8389H40.839H40.839H40.839H40.8391H40.8391H40.8391H40.8392H40.8392H40.8392H40.8393H40.8393H40.8393H40.8394H40.8394H40.8394H40.8395H40.8395H40.8395H40.8396H40.8396H40.8396H40.8397H40.8397H40.8397H40.8398H40.8398H40.8398H40.8399H40.8399H40.8399H40.84H40.84H40.8401H40.8401H40.8401H40.8402H40.8402H40.8402H40.8403H40.8403H40.8403H40.8404H40.8404H40.8404H40.8404H40.8405H40.8405H40.8405H51.6685C51.7825 24 51.9853 24.1156 51.9952 24.4042Z" fill="white" stroke="#B8C0CC" stroke-width="2" stroke-linejoin="round"/>
<path d="M48.8275 24H11.1725C9.97226 24 9 22.2099 9 20C9 17.7901 9.97226 16 11.1725 16H48.8275C50.0277 16 51 17.7901 51 20C51 22.2099 50.0277 24 48.8275 24Z" fill="white" stroke="#B8C0CC" stroke-width="2"/>
<path d="M15 46H43" stroke="#B8C0CC" stroke-width="2" stroke-linecap="round"/>
<path d="M15 50H35" stroke="#B8C0CC" stroke-width="2" stroke-linecap="round"/>
<path d="M28 68C28 70.7614 25.7614 73 23 73C20.2386 73 18 70.7614 18 68C18 65.2386 20.2386 63 23 63C25.7614 63 28 65.2386 28 68Z" fill="white" stroke="#B8C0CC" stroke-width="2"/>
<path d="M66 68C66 70.7614 63.7614 73 61 73C58.2386 73 56 70.7614 56 68C56 65.2386 58.2386 63 61 63C63.7614 63 66 65.2386 66 68Z" fill="white" stroke="#B8C0CC" stroke-width="2"/>
<path d="M56 43H65.6795L71.6765 52H56L56 43Z" fill="white" stroke="#FE5F75" stroke-width="2"/>
<circle cx="18.5" cy="18.5" r="17.5" fill="white" stroke="white" stroke-width="2"/>
<circle cx="18.5" cy="18.5" r="15.5" fill="white" stroke="#B8C0CC" stroke-width="2"/>
<path fill-rule="evenodd" clip-rule="evenodd" d="M16.4391 27.2503C16.2878 27.7815 15.731 28.1026 15.1955 27.9676C14.6599 27.8326 14.3484 27.2926 14.4997 26.7614L15.1003 24.6529C15.1313 24.4237 15.195 24.1977 15.2915 23.9816L16.558 19.5346L11.6642 20.7682C11.6212 20.7791 11.5781 20.787 11.535 20.792C10.5992 21.0569 9.54263 20.8416 8.80323 20.146C7.73226 19.1384 7.73226 17.5048 8.80323 16.4973C9.87421 15.4897 11.6106 15.4897 12.6816 16.4973C13.1971 16.9823 13.4645 17.6124 13.4837 18.248L17.1906 17.3135L19.6302 8.74813C19.7815 8.21697 20.3382 7.89582 20.8738 8.03081C21.4093 8.16581 21.7208 8.70584 21.5695 9.237L19.43 16.749L27.7197 14.6593C28.2553 14.5243 28.8121 14.8454 28.9633 15.3766C29.1146 15.9078 28.8031 16.4478 28.2676 16.5828L18.7974 18.9701L17.8202 22.401C18.5222 22.4009 19.2241 22.6528 19.7597 23.1567C20.8307 24.1642 20.8307 25.7978 19.7597 26.8054C18.8623 27.6496 17.4977 27.7865 16.4489 27.2159L16.4391 27.2503ZM11.1164 18.8447L11.1507 18.8361C11.1765 18.8178 11.2014 18.7977 11.2249 18.7755C11.4914 18.5248 11.4914 18.1184 11.2249 17.8677C10.9584 17.617 10.5264 17.617 10.2599 17.8677C9.99345 18.1184 9.99345 18.5248 10.2599 18.7755C10.4202 18.9263 10.6403 18.9864 10.8483 18.9558C10.9293 18.9071 11.0191 18.8692 11.1164 18.8447ZM18.303 25.4349C18.0365 25.6856 17.6045 25.6856 17.338 25.4349C17.0716 25.1842 17.0716 24.7778 17.338 24.5271C17.6045 24.2764 18.0365 24.2764 18.303 24.5271C18.5695 24.7778 18.5695 25.1842 18.303 25.4349Z" fill="#FE5F75"/>
</svg>
