<svg width="106" height="110" viewBox="0 0 106 110" fill="none" xmlns="http://www.w3.org/2000/svg">
<path d="M52.86 105.72C82.0538 105.72 105.72 82.0538 105.72 52.86C105.72 23.6662 82.0538 0 52.86 0C23.6662 0 0 23.6662 0 52.86C0 82.0538 23.6662 105.72 52.86 105.72Z" fill="#F0F4F7"/>
<path d="M77.034 32.7139C73.653 26.3779 67.749 24.7339 62.241 24.7339C49.848 24.7339 44.172 33.3638 43.241 42.9028C43.241 42.9608 42.987 45.1819 39.554 68.7279C39.2198 71.8062 37.8566 74.6817 35.685 76.8889L29.939 82.6349C28.9144 83.6586 28.2165 84.9632 27.9335 86.3837C27.6506 87.8041 27.7953 89.2766 28.3494 90.6147C28.9036 91.9529 29.8421 93.0966 31.0464 93.9012C32.2507 94.7059 33.6666 95.1352 35.115 95.1349H89.3681C90.8164 95.1352 92.2322 94.7059 93.4365 93.9012C94.6408 93.0966 95.5794 91.9529 96.1336 90.6147C96.6877 89.2766 96.8324 87.8041 96.5495 86.3837C96.2665 84.9632 95.5686 83.6586 94.544 82.6349L88.797 76.8889C86.6068 74.6949 85.2405 71.8124 84.929 68.7279C84.568 65.7809 84.475 65.0009 84.475 65.0009" fill="white"/>
<path d="M77.034 32.7139C73.653 26.3779 67.749 24.7339 62.241 24.7339C49.848 24.7339 44.172 33.3638 43.241 42.9028C43.241 42.9608 42.987 45.1819 39.554 68.7279C39.2198 71.8062 37.8566 74.6817 35.685 76.8889L29.939 82.6349C28.9144 83.6586 28.2165 84.9632 27.9335 86.3837C27.6506 87.8041 27.7953 89.2766 28.3494 90.6147C28.9036 91.9529 29.8421 93.0966 31.0464 93.9012C32.2507 94.7059 33.6666 95.1352 35.115 95.1349H89.3681C90.8164 95.1352 92.2322 94.7059 93.4365 93.9012C94.6408 93.0966 95.5794 91.9529 96.1336 90.6147C96.6877 89.2766 96.8324 87.8041 96.5495 86.3837C96.2665 84.9632 95.5686 83.6586 94.544 82.6349L88.797 76.8889C86.6068 74.6949 85.2405 71.8124 84.929 68.7279C84.568 65.7809 84.475 65.0009 84.475 65.0009" stroke="#B8C0CC" stroke-width="2" stroke-miterlimit="10"/>
<path d="M44.247 21.8169C41.3981 23.2605 38.958 25.3977 37.1514 28.0315C35.3449 30.6653 34.2298 33.7112 33.909 36.8889C33.909 36.9329 34.009 36.0888 32.109 51.8608" stroke="#B8C0CC" stroke-width="2" stroke-miterlimit="10" stroke-linecap="round"/>
<path d="M49.85 96.1089C49.9094 99.3541 51.2389 102.447 53.553 104.723C55.867 106.998 58.9812 108.276 62.2269 108.282C65.4726 108.287 68.5911 107.02 70.9128 104.752C73.2346 102.484 74.5745 99.3958 74.645 96.1509V96.1089" fill="white"/>
<path d="M49.85 96.1089C49.9094 99.3541 51.2389 102.447 53.553 104.723C55.867 106.998 58.9812 108.276 62.2269 108.282C65.4726 108.287 68.5911 107.02 70.9128 104.752C73.2346 102.484 74.5745 99.3958 74.645 96.1509V96.1089" stroke="#B8C0CC" stroke-width="2" stroke-miterlimit="10"/>
<path d="M81.151 65.7397C90.2692 65.7397 97.661 58.3479 97.661 49.2297C97.661 40.1115 90.2692 32.7197 81.151 32.7197C72.0328 32.7197 64.641 40.1115 64.641 49.2297C64.641 58.3479 72.0328 65.7397 81.151 65.7397Z" fill="white" stroke="#FE7C5F" stroke-width="2" stroke-miterlimit="10"/>
<path opacity="0.3" d="M81.15 57.397C85.6611 57.397 89.318 53.7401 89.318 49.229C89.318 44.718 85.6611 41.061 81.15 41.061C76.6389 41.061 72.982 44.718 72.982 49.229C72.982 53.7401 76.6389 57.397 81.15 57.397Z" fill="#FE7C5F"/>
</svg>
