<svg width="106" height="108" viewBox="0 0 106 108" fill="none" xmlns="http://www.w3.org/2000/svg">
<path d="M52.86 106.217C82.0538 106.217 105.72 82.5508 105.72 53.3571C105.72 24.1633 82.0538 0.49707 52.86 0.49707C23.6662 0.49707 0 24.1633 0 53.3571C0 82.5508 23.6662 106.217 52.86 106.217Z" fill="#F0F4F7"/>
<path d="M69.315 11.7822H36.645C31.7821 11.7822 27.84 15.7244 27.84 20.5872V97.9072C27.84 102.77 31.7821 106.712 36.645 106.712H69.315C74.1778 106.712 78.12 102.77 78.12 97.9072V20.5872C78.12 15.7244 74.1778 11.7822 69.315 11.7822Z" fill="white" stroke="#B8C0CC" stroke-width="2" stroke-miterlimit="10"/>
<path d="M63.2336 65.8259V55.5852C63.2336 49.8904 58.6001 45.2573 52.9048 45.2573C47.2585 45.2573 42.6649 49.8508 42.6649 55.4971C42.6649 61.1924 47.2981 65.8259 52.9929 65.8259H63.2336ZM63.6681 68.3259H52.9929C45.9082 68.3259 40.1649 62.5828 40.1649 55.4971C40.1649 48.4613 45.8689 42.7573 52.9048 42.7573C59.9905 42.7573 65.7336 48.5005 65.7336 55.5852V66.2603C65.7336 67.4009 64.8085 68.3259 63.6681 68.3259Z" fill="#FE7C5F"/>
<path d="M37.157 11.7812L39.7079 16.7133C39.9278 17.1385 40.2605 17.4952 40.6696 17.744C41.0786 17.9929 41.5482 18.1244 42.027 18.1243H63.771C64.2382 18.1243 64.6969 17.999 65.0991 17.7614C65.5014 17.5237 65.8325 17.1825 66.058 16.7733L68.808 11.7823" fill="#B8C0CC"/>
<path d="M27.839 90.6846H78.085" stroke="#B8C0CC" stroke-width="2"/>
<path d="M52.9489 101.794C54.9532 101.794 56.5779 100.169 56.5779 98.1651C56.5779 96.1609 54.9532 94.5361 52.9489 94.5361C50.9447 94.5361 49.3199 96.1609 49.3199 98.1651C49.3199 100.169 50.9447 101.794 52.9489 101.794Z" fill="#B8C0CC"/>
</svg>
