<svg width="539" height="402" viewBox="0 0 539 402" fill="none" xmlns="http://www.w3.org/2000/svg">
<path d="M443.153 368.598H73.0598C60.0578 368.598 49.524 358.07 49.524 345.074V57.8009C49.524 44.8052 60.0578 34.2764 73.0598 34.2764H443.153C456.155 34.2764 466.689 44.8052 466.689 57.8009V345.074C466.689 358.062 456.147 368.598 443.153 368.598Z" fill="white" stroke="#B9C1CD" stroke-width="1.883" stroke-miterlimit="10"/>
<path d="M437.617 360H80.3908C69.6823 360 61 351.946 61 342.013V63.9873C61 54.0539 69.6823 46 80.3908 46H437.617C448.326 46 457 54.0539 457 63.9873V342.013C457.008 351.946 448.326 360 437.617 360Z" fill="#F7F7F7"/>
<path d="M74.6024 318.115H410.486" stroke="#B9C1CD" stroke-width="1.88" stroke-linecap="round" stroke-linejoin="round"/>
<path d="M366.162 233.71H135.763C128.513 233.71 122.629 227.829 122.629 220.582V98.1279C122.629 90.8811 128.513 85 135.763 85H366.162C373.412 85 379.296 90.8811 379.296 98.1279V220.582C379.296 227.829 373.412 233.71 366.162 233.71Z" fill="#F2F2F2"/>
<path d="M283.846 85L204.086 233.71H214.612L293.05 85H283.846Z" fill="#E8E8E8"/>
<path d="M314.617 85L234.857 233.71H267.384L345.822 85H314.617Z" fill="#E8E8E8"/>
<path d="M366.162 233.71H135.763C128.513 233.71 122.629 227.829 122.629 220.582V98.1279C122.629 90.8811 128.513 85 135.763 85H366.162C373.412 85 379.296 90.8811 379.296 98.1279V220.582C379.296 227.829 373.412 233.71 366.162 233.71Z" stroke="#B9C1CD" stroke-width="1.88" stroke-miterlimit="10"/>
<path d="M303.973 249.266L310.952 310.075C311.4 314.209 308.358 317.997 304.23 318.445L303.804 318.489C299.676 318.937 295.893 315.89 295.437 311.764L288.51 250.926C288.062 246.792 291.103 243.004 295.232 242.556L295.658 242.512C299.859 242.042 303.525 245.133 303.973 249.266Z" fill="#F2F2F2" stroke="#B9C1CD" stroke-width="1.88" stroke-linecap="round" stroke-linejoin="round"/>
<path d="M303.937 249.495C303.467 245.193 299.647 242.087 295.394 242.55C291.141 243.012 288.078 246.874 288.548 251.169C289.018 255.472 292.838 258.578 297.091 258.115C301.337 257.66 304.407 253.798 303.937 249.495Z" fill="white" stroke="#B9C1CD" stroke-width="1.88" stroke-linecap="round" stroke-linejoin="round"/>
<path d="M300.499 248.584C301.336 251.212 299.029 253.921 296.311 254.024C294.137 254.105 292.381 252.38 292.389 250.177C292.396 248.415 293.814 246.932 295.555 246.865C296.951 246.814 298.074 247.915 298.067 249.332C298.06 250.463 297.156 251.41 296.04 251.447" fill="#F2F2F2"/>
<path d="M300.499 248.584C301.336 251.212 299.029 253.921 296.311 254.024C294.137 254.105 292.381 252.38 292.389 250.177C292.396 248.415 293.814 246.932 295.555 246.865C296.951 246.814 298.074 247.915 298.067 249.332C298.06 250.463 297.156 251.41 296.04 251.447" stroke="#B9C1CD" stroke-width="1.88" stroke-linecap="round" stroke-linejoin="round"/>
<path d="M362.012 216.322H340.276V222.952H362.012V216.322Z" fill="white" stroke="#B9C1CD" stroke-width="1.88" stroke-linecap="round" stroke-linejoin="round"/>
<path d="M368.645 210.808H362.012V228.458H368.645V210.808Z" fill="white" stroke="#B9C1CD" stroke-width="1.88" stroke-linecap="round" stroke-linejoin="round"/>
<path d="M373.185 214.567H368.645V224.707H373.185V214.567Z" fill="white" stroke="#B9C1CD" stroke-width="1.88" stroke-linecap="round" stroke-linejoin="round"/>
<path d="M333.643 214.567H329.103V224.707H333.643V214.567Z" fill="white" stroke="#B9C1CD" stroke-width="1.88" stroke-linecap="round" stroke-linejoin="round"/>
<path d="M340.276 210.808H333.643V228.458H340.276V210.808Z" fill="white" stroke="#B9C1CD" stroke-width="1.88" stroke-linecap="round" stroke-linejoin="round"/>
<path d="M362.012 246.062H340.276V252.692H362.012V246.062Z" fill="white" stroke="#B9C1CD" stroke-width="1.88" stroke-linecap="round" stroke-linejoin="round"/>
<path d="M370.562 238H362.012V260.754H370.562V238Z" fill="white" stroke="#B9C1CD" stroke-width="1.88" stroke-linecap="round" stroke-linejoin="round"/>
<path d="M376.409 242.839H370.562V255.908H376.409V242.839Z" fill="white" stroke="#B9C1CD" stroke-width="1.88" stroke-linecap="round" stroke-linejoin="round"/>
<path d="M331.725 242.839H325.878V255.908H331.725V242.839Z" fill="white" stroke="#B9C1CD" stroke-width="1.88" stroke-linecap="round" stroke-linejoin="round"/>
<path d="M340.276 238H331.725V260.754H340.276V238Z" fill="white" stroke="#B9C1CD" stroke-width="1.88" stroke-linecap="round" stroke-linejoin="round"/>
<path d="M362.012 280.163H340.276V286.793H362.012V280.163Z" fill="white" stroke="#B9C1CD" stroke-width="1.88" stroke-linecap="round" stroke-linejoin="round"/>
<path d="M371.884 270.353H362.012V296.616H371.884V270.353Z" fill="white" stroke="#B9C1CD" stroke-width="1.88" stroke-linecap="round" stroke-linejoin="round"/>
<path d="M378.635 275.933H371.884V291.022H378.635V275.933Z" fill="white" stroke="#B9C1CD" stroke-width="1.88" stroke-linecap="round" stroke-linejoin="round"/>
<path d="M330.403 275.933H323.652V291.022H330.403V275.933Z" fill="white" stroke="#B9C1CD" stroke-width="1.88" stroke-linecap="round" stroke-linejoin="round"/>
<path d="M340.276 270.353H330.403V296.616H340.276V270.353Z" fill="white" stroke="#B9C1CD" stroke-width="1.88" stroke-linecap="round" stroke-linejoin="round"/>
<path d="M355.93 318.115H346.351V200.954C346.351 198.766 348.128 196.99 350.317 196.99H351.963C354.152 196.99 355.93 198.766 355.93 200.954V318.115Z" fill="white" stroke="#B9C1CD" stroke-width="1.88" stroke-linecap="round" stroke-linejoin="round"/>
<mask id="mask0" mask-type="alpha" maskUnits="userSpaceOnUse" x="214" y="241" width="79" height="79">
<path d="M253.176 318.315C274.26 318.315 291.352 301.232 291.352 280.158C291.352 259.084 274.26 242 253.176 242C232.092 242 215 259.084 215 280.158C215 301.232 232.092 318.315 253.176 318.315Z" fill="#C4C4C4" stroke="#B9C1CD" stroke-width="1.88" stroke-linecap="round" stroke-linejoin="round"/>
</mask>
<g mask="url(#mask0)">
<path d="M253.155 318.115C274.239 318.115 291.331 301.031 291.331 279.957C291.331 258.883 274.239 241.799 253.155 241.799C232.071 241.799 214.979 258.883 214.979 279.957C214.979 301.031 232.071 318.115 253.155 318.115Z" fill="white" stroke="#B9C1CD" stroke-width="1.88" stroke-linecap="round" stroke-linejoin="round"/>
<path d="M253.155 318.115C274.239 318.115 291.331 301.031 291.331 279.957C291.331 258.883 274.239 241.799 253.155 241.799C232.071 241.799 214.979 258.883 214.979 279.957C214.979 301.031 232.071 318.115 253.155 318.115Z" stroke="#B9C1CD" stroke-width="1.88" stroke-linecap="round" stroke-linejoin="round"/>
<path d="M244.449 262.596C250.319 259.893 253.68 254.671 251.956 250.933C250.233 247.195 244.078 246.357 238.209 249.06C232.339 251.763 228.978 256.985 230.701 260.723C232.425 264.461 238.58 265.3 244.449 262.596Z" stroke="#B9C1CD" stroke-width="1.88" stroke-linecap="round" stroke-linejoin="round"/>
<path d="M249.662 273.904C261.188 268.595 267.606 257.948 263.998 250.122C260.39 242.296 248.122 240.256 236.597 245.564C225.072 250.872 218.654 261.519 222.262 269.345C225.869 277.171 238.137 279.212 249.662 273.904Z" stroke="#B9C1CD" stroke-width="1.88" stroke-linecap="round" stroke-linejoin="round"/>
<path d="M255.408 286.373C270.791 279.288 279.049 264.409 273.854 253.14C268.659 241.871 251.977 238.479 236.594 245.564C221.211 252.649 212.952 267.528 218.148 278.797C223.343 290.066 240.025 293.458 255.408 286.373Z" stroke="#B9C1CD" stroke-width="1.88" stroke-linecap="round" stroke-linejoin="round"/>
<path d="M262.726 302.245C281.996 293.369 291.767 273.486 284.552 257.834C277.336 242.182 255.865 236.689 236.595 245.565C217.325 254.44 207.553 274.323 214.769 289.975C221.985 305.627 243.456 311.12 262.726 302.245Z" stroke="#B9C1CD" stroke-width="1.88" stroke-linecap="round" stroke-linejoin="round"/>
<path d="M253.155 318.115C274.239 318.115 291.331 301.031 291.331 279.957C291.331 258.883 274.239 241.799 253.155 241.799C232.071 241.799 214.979 258.883 214.979 279.957C214.979 301.031 232.071 318.115 253.155 318.115Z" stroke="#B9C1CD" stroke-width="1.88" stroke-miterlimit="10"/>
<path d="M253.155 318.115C274.239 318.115 291.331 301.031 291.331 279.957C291.331 258.883 274.239 241.799 253.155 241.799C232.071 241.799 214.979 258.883 214.979 279.957C214.979 301.031 232.071 318.115 253.155 318.115Z" stroke="#B9C1CD" stroke-width="1.88" stroke-linecap="round" stroke-linejoin="round"/>
</g>
<path d="M210.579 293.496H107.423L94.3403 318.115H197.497L210.579 293.496Z" fill="white" stroke="#B9C1CD" stroke-width="1.88" stroke-linecap="round" stroke-linejoin="round"/>
<path d="M233.278 185.771H197.871L143.212 293.496H178.625L233.278 185.771Z" fill="white" stroke="#B9C1CD" stroke-width="1.88" stroke-linecap="round" stroke-linejoin="round"/>
<path d="M242.453 185.771L187.793 293.496H178.625L233.285 185.771H242.453Z" fill="#F1F2F5" stroke="#B9C1CD" stroke-width="1.88" stroke-linecap="round" stroke-linejoin="round"/>
<path d="M210.579 293.496H223.669L230.596 305.809H389.176C392.577 305.809 395.332 308.562 395.332 311.962C395.332 315.361 392.577 318.115 389.176 318.115H197.497L210.579 293.496Z" fill="#F1F2F5" stroke="#B9C1CD" stroke-width="1.88" stroke-linecap="round" stroke-linejoin="round"/>
<path d="M267.465 185.771H322.719C323.248 185.771 323.682 186.204 323.682 186.733C323.682 190.874 320.325 194.236 316.174 194.236H262.984L267.465 185.771Z" fill="white" stroke="#B9C1CD" stroke-width="1.88" stroke-linecap="round" stroke-linejoin="round"/>
<path d="M233.285 185.771H267.546L263.065 194.236H228.988L233.285 185.771Z" fill="white" stroke="#B9C1CD" stroke-width="1.88" stroke-linecap="round" stroke-linejoin="round"/>
<path d="M164.389 185.771H197.871L193.574 194.236H159.908L164.389 185.771Z" fill="white" stroke="#B9C1CD" stroke-width="1.88" stroke-linecap="round" stroke-linejoin="round"/>
<path d="M188.248 229.09L198.863 208.143" stroke="#B9C1CD" stroke-width="1.88" stroke-linecap="round" stroke-linejoin="round"/>
<path d="M218.858 161.057H184.208L197.871 185.771H232.521L218.858 161.057Z" fill="white" stroke="#B9C1CD" stroke-width="1.88" stroke-linecap="round" stroke-linejoin="round"/>
<path d="M242.452 185.771L228.988 161.057H218.858L232.521 185.771H242.452Z" fill="#F1F2F5" stroke="#B9C1CD" stroke-width="1.88" stroke-linecap="round" stroke-linejoin="round"/>
<path d="M467.313 336.889H529.84" stroke="#B9C1CD" stroke-width="1.883" stroke-linecap="round" stroke-linejoin="round"/>
<path d="M529.495 158.548H403.882C399.034 158.548 395.068 154.584 395.068 149.738V9.50064C395.068 4.65476 399.034 0.689941 403.882 0.689941H529.495C534.343 0.689941 538.31 4.65476 538.31 9.50064V149.738C538.31 154.584 534.343 158.548 529.495 158.548Z" fill="white"/>
<path d="M529.495 159.239H403.882C398.638 159.239 394.377 154.973 394.377 149.738V9.50088C394.377 4.25851 398.645 0 403.882 0H529.495C534.739 0 539 4.26585 539 9.50088V149.738C539 154.973 534.732 159.239 529.495 159.239ZM403.882 1.38035C399.402 1.38035 395.758 5.0221 395.758 9.50088V149.738C395.758 154.217 399.402 157.858 403.882 157.858H529.495C533.976 157.858 537.619 154.217 537.619 149.738V9.50088C537.619 5.0221 533.976 1.38035 529.495 1.38035H403.882Z" fill="#B8C0CC"/>
<path d="M493.262 28.9424H407.738C407.33 28.9424 407 28.719 407 28.4424C407 28.1658 407.33 27.9424 407.738 27.9424H493.262C493.67 27.9424 494 28.1658 494 28.4424C494 28.719 493.67 28.9424 493.262 28.9424Z" fill="#30A3C7"/>
<path d="M425.17 66.7702H414.174C410.92 66.7702 408.283 64.1344 408.283 60.8891V49.8977C408.283 46.6451 410.92 44.0166 414.174 44.0166H425.17C428.425 44.0166 431.062 46.6525 431.062 49.8977V60.8891C431.062 64.1344 428.425 66.7702 425.17 66.7702Z" fill="#DFE3E8"/>
<path d="M519.299 62.3212H512.511C510.557 62.3212 508.971 60.7352 508.971 58.7822V51.998C508.971 50.0449 510.557 48.459 512.511 48.459H519.299C521.253 48.459 522.839 50.0449 522.839 51.998V58.7822C522.839 60.7279 521.253 62.3212 519.299 62.3212ZM512.511 49.8393C511.321 49.8393 510.352 50.8085 510.352 51.998V58.7822C510.352 59.9717 511.321 60.9408 512.511 60.9408H519.299C520.489 60.9408 521.458 59.9717 521.458 58.7822V51.998C521.458 50.8085 520.489 49.8393 519.299 49.8393H512.511Z" fill="#B8C0CC"/>
<path d="M520.166 99.7665H511.637C510.168 99.7665 508.963 98.5697 508.963 97.0939V88.5695C508.963 87.1011 510.161 85.897 511.637 85.897H519.299C521.253 85.897 522.839 87.4829 522.839 89.4359V97.0865C522.839 98.5697 521.642 99.7665 520.166 99.7665ZM511.637 87.2846C510.925 87.2846 510.352 87.8647 510.352 88.5695V97.0939C510.352 97.8061 510.932 98.3788 511.637 98.3788H520.166C520.878 98.3788 521.451 97.7988 521.451 97.0939V89.4433C521.451 88.2538 520.481 87.2846 519.291 87.2846H511.637Z" fill="#B8C0CC"/>
<path d="M520.166 137.212H511.637C510.168 137.212 508.963 136.015 508.963 134.539V126.015C508.963 124.546 510.161 123.342 511.637 123.342H519.299C521.253 123.342 522.839 124.928 522.839 126.881V134.532C522.839 136.015 521.642 137.212 520.166 137.212ZM511.637 124.73C510.925 124.73 510.352 125.31 510.352 126.015V134.539C510.352 135.251 510.932 135.824 511.637 135.824H520.166C520.878 135.824 521.451 135.244 521.451 134.539V126.889C521.451 125.699 520.481 124.73 519.291 124.73H511.637Z" fill="#B8C0CC"/>
<path d="M425.17 104.216H414.174C410.92 104.216 408.283 101.58 408.283 98.3349V87.3436C408.283 84.091 410.92 81.4551 414.174 81.4551H425.17C428.425 81.4551 431.062 84.091 431.062 87.3436V98.3349C431.062 101.58 428.425 104.216 425.17 104.216Z" fill="#DFE3E8"/>
<path d="M425.17 141.661H414.174C410.92 141.661 408.283 139.025 408.283 135.78V124.789C408.283 121.536 410.92 118.9 414.174 118.9H425.17C428.425 118.9 431.062 121.536 431.062 124.789V135.78C431.062 139.025 428.425 141.661 425.17 141.661Z" fill="#DFE3E8"/>
<path d="M483.217 52.8201H441.346C439.722 52.8201 438.408 51.5058 438.408 49.8832C438.408 48.2606 439.722 46.9463 441.346 46.9463H483.217C484.84 46.9463 486.155 48.2606 486.155 49.8832C486.155 51.4985 484.84 52.8201 483.217 52.8201Z" fill="#DFE3E8"/>
<path d="M466.321 63.8337H441.346C439.722 63.8337 438.408 62.5195 438.408 60.8969C438.408 59.2742 439.722 57.96 441.346 57.96H466.321C467.945 57.96 469.26 59.2742 469.26 60.8969C469.26 62.5121 467.945 63.8337 466.321 63.8337Z" fill="#EAECF0"/>
<path d="M483.217 90.2654H441.346C439.722 90.2654 438.408 88.9511 438.408 87.3285C438.408 85.7059 439.722 84.3916 441.346 84.3916H483.217C484.84 84.3916 486.155 85.7059 486.155 87.3285C486.155 88.9438 484.84 90.2654 483.217 90.2654Z" fill="#DFE3E8"/>
<path d="M466.321 101.279H441.346C439.722 101.279 438.408 99.9648 438.408 98.3422C438.408 96.7195 439.722 95.4053 441.346 95.4053H466.321C467.945 95.4053 469.26 96.7195 469.26 98.3422C469.26 99.9575 467.945 101.279 466.321 101.279Z" fill="#EAECF0"/>
<path d="M483.217 127.711H441.346C439.722 127.711 438.408 126.397 438.408 124.774C438.408 123.152 439.722 121.837 441.346 121.837H483.217C484.84 121.837 486.155 123.152 486.155 124.774C486.155 126.39 484.84 127.711 483.217 127.711Z" fill="#DFE3E8"/>
<path d="M466.321 138.724H441.346C439.722 138.724 438.408 137.41 438.408 135.787C438.408 134.165 439.722 132.851 441.346 132.851H466.321C467.945 132.851 469.26 134.165 469.26 135.787C469.26 137.403 467.945 138.724 466.321 138.724Z" fill="#EAECF0"/>
<path d="M516.14 58.8702C515.956 58.8702 515.78 58.7968 515.648 58.6646L511.813 54.832C511.542 54.5603 511.542 54.1271 511.813 53.8555C512.085 53.5838 512.519 53.5838 512.79 53.8555L516.133 57.1962L524.588 48.7453C524.859 48.4736 525.293 48.4736 525.565 48.7453C525.836 49.0169 525.836 49.4501 525.565 49.7218L516.617 58.6646C516.5 58.7968 516.324 58.8702 516.14 58.8702Z" fill="#30A3C7"/>
<path d="M516.14 96.3155C515.956 96.3155 515.78 96.2421 515.648 96.1099L511.813 92.2773C511.542 92.0056 511.542 91.5724 511.813 91.3008C512.085 91.0291 512.519 91.0291 512.79 91.3008L516.133 94.6415L524.588 86.1906C524.859 85.9189 525.293 85.9189 525.565 86.1906C525.836 86.4622 525.836 86.8954 525.565 87.1671L516.617 96.1099C516.5 96.2421 516.324 96.3155 516.14 96.3155Z" fill="#30A3C7"/>
<path d="M411.61 16.9384C412.057 17.063 412.402 17.2904 412.644 17.6204C412.893 17.9504 413.018 18.3537 413.018 18.8304C413.018 19.4904 412.78 20.0074 412.303 20.3814C411.834 20.7554 411.185 20.9424 410.356 20.9424H407.518C407.305 20.9424 407.137 20.8837 407.012 20.7664C406.895 20.649 406.836 20.484 406.836 20.2714V13.8584C406.836 13.6457 406.895 13.4807 407.012 13.3634C407.137 13.246 407.305 13.1874 407.518 13.1874H410.246C411.053 13.1874 411.683 13.367 412.138 13.7264C412.6 14.0784 412.831 14.5734 412.831 15.2114C412.831 15.622 412.721 15.9777 412.501 16.2784C412.288 16.579 411.991 16.799 411.61 16.9384ZM408.222 16.4544H410.015C410.99 16.4544 411.478 16.0914 411.478 15.3654C411.478 14.9987 411.357 14.7274 411.115 14.5514C410.873 14.3754 410.506 14.2874 410.015 14.2874H408.222V16.4544ZM410.202 19.8424C410.715 19.8424 411.089 19.7507 411.324 19.5674C411.559 19.384 411.676 19.098 411.676 18.7094C411.676 18.3207 411.555 18.031 411.313 17.8404C411.078 17.6497 410.708 17.5544 410.202 17.5544H408.222V19.8424H410.202ZM416.677 21.0304C416.127 21.0304 415.643 20.9167 415.225 20.6894C414.814 20.462 414.495 20.1357 414.268 19.7104C414.04 19.285 413.927 18.79 413.927 18.2254C413.927 17.6607 414.04 17.1694 414.268 16.7514C414.495 16.326 414.814 15.9997 415.225 15.7724C415.643 15.545 416.127 15.4314 416.677 15.4314C417.227 15.4314 417.707 15.545 418.118 15.7724C418.536 15.9997 418.855 16.326 419.075 16.7514C419.302 17.1694 419.416 17.6607 419.416 18.2254C419.416 18.79 419.302 19.285 419.075 19.7104C418.855 20.1357 418.536 20.462 418.118 20.6894C417.707 20.9167 417.227 21.0304 416.677 21.0304ZM416.666 19.9634C417.113 19.9634 417.454 19.8167 417.689 19.5234C417.923 19.23 418.041 18.7974 418.041 18.2254C418.041 17.6607 417.923 17.2317 417.689 16.9384C417.454 16.6377 417.117 16.4874 416.677 16.4874C416.237 16.4874 415.896 16.6377 415.654 16.9384C415.419 17.2317 415.302 17.6607 415.302 18.2254C415.302 18.7974 415.419 19.23 415.654 19.5234C415.888 19.8167 416.226 19.9634 416.666 19.9634ZM423.004 21.0304C422.454 21.0304 421.97 20.9167 421.552 20.6894C421.141 20.462 420.822 20.1357 420.595 19.7104C420.368 19.285 420.254 18.79 420.254 18.2254C420.254 17.6607 420.368 17.1694 420.595 16.7514C420.822 16.326 421.141 15.9997 421.552 15.7724C421.97 15.545 422.454 15.4314 423.004 15.4314C423.554 15.4314 424.034 15.545 424.445 15.7724C424.863 15.9997 425.182 16.326 425.402 16.7514C425.629 17.1694 425.743 17.6607 425.743 18.2254C425.743 18.79 425.629 19.285 425.402 19.7104C425.182 20.1357 424.863 20.462 424.445 20.6894C424.034 20.9167 423.554 21.0304 423.004 21.0304ZM422.993 19.9634C423.44 19.9634 423.781 19.8167 424.016 19.5234C424.251 19.23 424.368 18.7974 424.368 18.2254C424.368 17.6607 424.251 17.2317 424.016 16.9384C423.781 16.6377 423.444 16.4874 423.004 16.4874C422.564 16.4874 422.223 16.6377 421.981 16.9384C421.746 17.2317 421.629 17.6607 421.629 18.2254C421.629 18.7974 421.746 19.23 421.981 19.5234C422.216 19.8167 422.553 19.9634 422.993 19.9634ZM431.663 19.8754C431.81 20.0147 431.883 20.1724 431.883 20.3484C431.883 20.517 431.821 20.6674 431.696 20.7994C431.579 20.9314 431.439 20.9974 431.278 20.9974C431.117 20.9974 430.966 20.9314 430.827 20.7994L428.253 18.4674V20.3484C428.253 20.561 428.187 20.7224 428.055 20.8324C427.923 20.9424 427.758 20.9974 427.56 20.9974C427.362 20.9974 427.197 20.9424 427.065 20.8324C426.94 20.7224 426.878 20.561 426.878 20.3484V13.7814C426.878 13.5687 426.94 13.4074 427.065 13.2974C427.197 13.1874 427.362 13.1324 427.56 13.1324C427.758 13.1324 427.923 13.1874 428.055 13.2974C428.187 13.4074 428.253 13.5687 428.253 13.7814V17.9174L430.607 15.6624C430.739 15.5304 430.889 15.4644 431.058 15.4644C431.227 15.4644 431.373 15.5267 431.498 15.6514C431.623 15.776 431.685 15.9227 431.685 16.0914C431.685 16.26 431.615 16.414 431.476 16.5534L429.749 18.1594L431.663 19.8754ZM439.513 15.8494C439.572 15.7174 439.649 15.622 439.744 15.5634C439.847 15.4974 439.957 15.4644 440.074 15.4644C440.243 15.4644 440.393 15.523 440.525 15.6404C440.664 15.7504 440.734 15.8897 440.734 16.0584C440.734 16.139 440.712 16.2234 440.668 16.3114L437.665 22.6034C437.54 22.8527 437.346 22.9774 437.082 22.9774C436.913 22.9774 436.763 22.9224 436.631 22.8124C436.506 22.7097 436.444 22.5777 436.444 22.4164C436.444 22.3357 436.466 22.244 436.51 22.1414L437.258 20.5684L435.212 16.3114C435.175 16.238 435.157 16.1537 435.157 16.0584C435.157 15.8897 435.227 15.7467 435.366 15.6294C435.513 15.512 435.678 15.4534 435.861 15.4534C435.986 15.4534 436.099 15.4864 436.202 15.5524C436.305 15.611 436.385 15.7064 436.444 15.8384L437.984 19.2374L439.513 15.8494ZM443.919 21.0304C443.369 21.0304 442.885 20.9167 442.467 20.6894C442.056 20.462 441.737 20.1357 441.51 19.7104C441.283 19.285 441.169 18.79 441.169 18.2254C441.169 17.6607 441.283 17.1694 441.51 16.7514C441.737 16.326 442.056 15.9997 442.467 15.7724C442.885 15.545 443.369 15.4314 443.919 15.4314C444.469 15.4314 444.949 15.545 445.36 15.7724C445.778 15.9997 446.097 16.326 446.317 16.7514C446.544 17.1694 446.658 17.6607 446.658 18.2254C446.658 18.79 446.544 19.285 446.317 19.7104C446.097 20.1357 445.778 20.462 445.36 20.6894C444.949 20.9167 444.469 21.0304 443.919 21.0304ZM443.908 19.9634C444.355 19.9634 444.696 19.8167 444.931 19.5234C445.166 19.23 445.283 18.7974 445.283 18.2254C445.283 17.6607 445.166 17.2317 444.931 16.9384C444.696 16.6377 444.359 16.4874 443.919 16.4874C443.479 16.4874 443.138 16.6377 442.896 16.9384C442.661 17.2317 442.544 17.6607 442.544 18.2254C442.544 18.7974 442.661 19.23 442.896 19.5234C443.131 19.8167 443.468 19.9634 443.908 19.9634ZM452.039 15.4534C452.252 15.4534 452.42 15.512 452.545 15.6294C452.67 15.7467 452.732 15.9044 452.732 16.1024V20.3704C452.732 20.561 452.666 20.715 452.534 20.8324C452.409 20.9497 452.244 21.0084 452.039 21.0084C451.841 21.0084 451.683 20.9534 451.566 20.8434C451.449 20.7334 451.39 20.583 451.39 20.3924V20.1174C451.221 20.4107 450.994 20.638 450.708 20.7994C450.422 20.9534 450.099 21.0304 449.74 21.0304C448.42 21.0304 447.76 20.2897 447.76 18.8084V16.1024C447.76 15.9044 447.822 15.7467 447.947 15.6294C448.072 15.512 448.237 15.4534 448.442 15.4534C448.655 15.4534 448.823 15.512 448.948 15.6294C449.073 15.7467 449.135 15.9044 449.135 16.1024V18.8194C449.135 19.2007 449.212 19.483 449.366 19.6664C449.52 19.8497 449.762 19.9414 450.092 19.9414C450.473 19.9414 450.778 19.8167 451.005 19.5674C451.24 19.3107 451.357 18.9734 451.357 18.5554V16.1024C451.357 15.9044 451.419 15.7467 451.544 15.6294C451.669 15.512 451.834 15.4534 452.039 15.4534ZM457.166 15.4534C457.357 15.4387 457.507 15.479 457.617 15.5744C457.727 15.6697 457.782 15.8127 457.782 16.0034C457.782 16.2014 457.735 16.348 457.639 16.4434C457.544 16.5387 457.372 16.601 457.122 16.6304L456.792 16.6634C456.36 16.7074 456.041 16.854 455.835 17.1034C455.637 17.3527 455.538 17.6644 455.538 18.0384V20.3484C455.538 20.561 455.472 20.726 455.34 20.8434C455.208 20.9534 455.043 21.0084 454.845 21.0084C454.647 21.0084 454.482 20.9534 454.35 20.8434C454.226 20.726 454.163 20.561 454.163 20.3484V16.0914C454.163 15.886 454.226 15.7284 454.35 15.6184C454.482 15.5084 454.644 15.4534 454.834 15.4534C455.025 15.4534 455.179 15.5084 455.296 15.6184C455.414 15.721 455.472 15.8714 455.472 16.0694V16.5094C455.612 16.1867 455.817 15.9374 456.088 15.7614C456.367 15.5854 456.675 15.4864 457.012 15.4644L457.166 15.4534ZM464.155 19.9854C464.521 20.0074 464.705 20.1724 464.705 20.4804C464.705 20.6564 464.631 20.792 464.485 20.8874C464.345 20.9754 464.144 21.012 463.88 20.9974L463.583 20.9754C462.351 20.8874 461.735 20.2274 461.735 18.9954V16.5974H461.185C460.987 16.5974 460.833 16.5534 460.723 16.4654C460.62 16.3774 460.569 16.249 460.569 16.0804C460.569 15.9117 460.62 15.7834 460.723 15.6954C460.833 15.6074 460.987 15.5634 461.185 15.5634H461.735V14.5514C461.735 14.3534 461.797 14.1957 461.922 14.0784C462.046 13.961 462.215 13.9024 462.428 13.9024C462.633 13.9024 462.798 13.961 462.923 14.0784C463.047 14.1957 463.11 14.3534 463.11 14.5514V15.5634H464.045C464.243 15.5634 464.393 15.6074 464.496 15.6954C464.606 15.7834 464.661 15.9117 464.661 16.0804C464.661 16.249 464.606 16.3774 464.496 16.4654C464.393 16.5534 464.243 16.5974 464.045 16.5974H463.11V19.0944C463.11 19.637 463.359 19.9267 463.858 19.9634L464.155 19.9854ZM468.424 15.4534C468.615 15.4387 468.765 15.479 468.875 15.5744C468.985 15.6697 469.04 15.8127 469.04 16.0034C469.04 16.2014 468.992 16.348 468.897 16.4434C468.802 16.5387 468.629 16.601 468.38 16.6304L468.05 16.6634C467.617 16.7074 467.298 16.854 467.093 17.1034C466.895 17.3527 466.796 17.6644 466.796 18.0384V20.3484C466.796 20.561 466.73 20.726 466.598 20.8434C466.466 20.9534 466.301 21.0084 466.103 21.0084C465.905 21.0084 465.74 20.9534 465.608 20.8434C465.483 20.726 465.421 20.561 465.421 20.3484V16.0914C465.421 15.886 465.483 15.7284 465.608 15.6184C465.74 15.5084 465.901 15.4534 466.092 15.4534C466.283 15.4534 466.437 15.5084 466.554 15.6184C466.671 15.721 466.73 15.8714 466.73 16.0694V16.5094C466.869 16.1867 467.075 15.9374 467.346 15.7614C467.625 15.5854 467.933 15.4864 468.27 15.4644L468.424 15.4534ZM471.943 15.4314C472.691 15.4314 473.244 15.6184 473.604 15.9924C473.97 16.359 474.154 16.92 474.154 17.6754V20.3594C474.154 20.5574 474.095 20.715 473.978 20.8324C473.86 20.9424 473.699 20.9974 473.494 20.9974C473.303 20.9974 473.145 20.9387 473.021 20.8214C472.903 20.704 472.845 20.55 472.845 20.3594V20.1174C472.72 20.4034 472.522 20.627 472.251 20.7884C471.987 20.9497 471.679 21.0304 471.327 21.0304C470.967 21.0304 470.641 20.957 470.348 20.8104C470.054 20.6637 469.823 20.462 469.655 20.2054C469.486 19.9487 469.402 19.6627 469.402 19.3474C469.402 18.9514 469.501 18.6397 469.699 18.4124C469.904 18.185 470.234 18.02 470.689 17.9174C471.143 17.8147 471.77 17.7634 472.57 17.7634H472.845V17.5104C472.845 17.151 472.768 16.8907 472.614 16.7294C472.46 16.5607 472.21 16.4764 471.866 16.4764C471.653 16.4764 471.437 16.5094 471.217 16.5754C470.997 16.634 470.736 16.722 470.436 16.8394C470.245 16.9347 470.106 16.9824 470.018 16.9824C469.886 16.9824 469.776 16.9347 469.688 16.8394C469.607 16.744 469.567 16.6194 469.567 16.4654C469.567 16.3407 469.596 16.2344 469.655 16.1464C469.721 16.051 469.827 15.963 469.974 15.8824C470.23 15.743 470.535 15.633 470.887 15.5524C471.246 15.4717 471.598 15.4314 471.943 15.4314ZM471.602 20.0404C471.968 20.0404 472.265 19.9194 472.493 19.6774C472.727 19.428 472.845 19.109 472.845 18.7204V18.4894H472.647C472.155 18.4894 471.774 18.5114 471.503 18.5554C471.231 18.5994 471.037 18.6764 470.92 18.7864C470.802 18.8964 470.744 19.0467 470.744 19.2374C470.744 19.472 470.824 19.6664 470.986 19.8204C471.154 19.967 471.36 20.0404 471.602 20.0404ZM476.233 21.0084C476.035 21.0084 475.87 20.9534 475.738 20.8434C475.613 20.726 475.551 20.561 475.551 20.3484V16.1024C475.551 15.8897 475.613 15.7284 475.738 15.6184C475.87 15.5084 476.035 15.4534 476.233 15.4534C476.431 15.4534 476.596 15.5084 476.728 15.6184C476.86 15.7284 476.926 15.8897 476.926 16.1024V20.3484C476.926 20.561 476.86 20.726 476.728 20.8434C476.596 20.9534 476.431 21.0084 476.233 21.0084ZM476.233 14.4744C475.984 14.4744 475.786 14.4084 475.639 14.2764C475.492 14.137 475.419 13.9574 475.419 13.7374C475.419 13.5174 475.492 13.3414 475.639 13.2094C475.786 13.0774 475.984 13.0114 476.233 13.0114C476.475 13.0114 476.669 13.0774 476.816 13.2094C476.97 13.3414 477.047 13.5174 477.047 13.7374C477.047 13.9574 476.974 14.137 476.827 14.2764C476.68 14.4084 476.482 14.4744 476.233 14.4744ZM481.468 15.4314C482.113 15.4314 482.594 15.6147 482.909 15.9814C483.224 16.348 483.382 16.9017 483.382 17.6424V20.3484C483.382 20.5537 483.32 20.715 483.195 20.8324C483.078 20.9497 482.913 21.0084 482.7 21.0084C482.487 21.0084 482.319 20.9497 482.194 20.8324C482.069 20.715 482.007 20.5537 482.007 20.3484V17.7194C482.007 17.3014 481.926 16.997 481.765 16.8064C481.611 16.6157 481.365 16.5204 481.028 16.5204C480.632 16.5204 480.313 16.645 480.071 16.8944C479.836 17.1437 479.719 17.4774 479.719 17.8954V20.3484C479.719 20.5537 479.657 20.715 479.532 20.8324C479.407 20.9497 479.239 21.0084 479.026 21.0084C478.813 21.0084 478.645 20.9497 478.52 20.8324C478.403 20.715 478.344 20.5537 478.344 20.3484V16.0914C478.344 15.9007 478.406 15.7467 478.531 15.6294C478.656 15.512 478.824 15.4534 479.037 15.4534C479.228 15.4534 479.382 15.512 479.499 15.6294C479.624 15.7394 479.686 15.886 479.686 16.0694V16.3664C479.869 16.0657 480.115 15.8347 480.423 15.6734C480.731 15.512 481.079 15.4314 481.468 15.4314ZM489.035 19.4684C489.16 19.4684 489.259 19.516 489.332 19.6114C489.413 19.7067 489.453 19.835 489.453 19.9964C489.453 20.2237 489.318 20.4144 489.046 20.5684C488.797 20.7077 488.515 20.8214 488.199 20.9094C487.884 20.99 487.583 21.0304 487.297 21.0304C486.432 21.0304 485.746 20.781 485.24 20.2824C484.734 19.7837 484.481 19.1017 484.481 18.2364C484.481 17.6864 484.591 17.1987 484.811 16.7734C485.031 16.348 485.339 16.018 485.735 15.7834C486.139 15.5487 486.593 15.4314 487.099 15.4314C487.583 15.4314 488.005 15.5377 488.364 15.7504C488.724 15.963 489.002 16.2637 489.2 16.6524C489.398 17.041 489.497 17.4994 489.497 18.0274C489.497 18.3427 489.358 18.5004 489.079 18.5004H485.834C485.878 19.0064 486.021 19.3804 486.263 19.6224C486.505 19.857 486.857 19.9744 487.319 19.9744C487.554 19.9744 487.759 19.945 487.935 19.8864C488.119 19.8277 488.324 19.747 488.551 19.6444C488.771 19.527 488.933 19.4684 489.035 19.4684ZM487.132 16.3994C486.758 16.3994 486.458 16.5167 486.23 16.7514C486.01 16.986 485.878 17.3234 485.834 17.7634H488.32C488.306 17.316 488.196 16.9787 487.99 16.7514C487.785 16.5167 487.499 16.3994 487.132 16.3994ZM493.625 15.4534C493.816 15.4387 493.966 15.479 494.076 15.5744C494.186 15.6697 494.241 15.8127 494.241 16.0034C494.241 16.2014 494.194 16.348 494.098 16.4434C494.003 16.5387 493.831 16.601 493.581 16.6304L493.251 16.6634C492.819 16.7074 492.5 16.854 492.294 17.1034C492.096 17.3527 491.997 17.6644 491.997 18.0384V20.3484C491.997 20.561 491.931 20.726 491.799 20.8434C491.667 20.9534 491.502 21.0084 491.304 21.0084C491.106 21.0084 490.941 20.9534 490.809 20.8434C490.685 20.726 490.622 20.561 490.622 20.3484V16.0914C490.622 15.886 490.685 15.7284 490.809 15.6184C490.941 15.5084 491.103 15.4534 491.293 15.4534C491.484 15.4534 491.638 15.5084 491.755 15.6184C491.873 15.721 491.931 15.8714 491.931 16.0694V16.5094C492.071 16.1867 492.276 15.9374 492.547 15.7614C492.826 15.5854 493.134 15.4864 493.471 15.4644L493.625 15.4534Z" fill="#30A3C7"/>
<path d="M5.76038 313.001L5.76079 313C8.93808 305.325 13.6066 298.351 19.4843 292.476C25.3617 286.601 32.3394 281.942 40.0196 278.758C47.6991 275.575 55.9289 273.94 64.2385 273.94C81.1416 273.94 97.357 280.655 109.309 292.601C121.26 304.546 127.978 320.754 127.978 337.649V391.445C127.978 392.686 127.731 393.916 127.255 395.075C126.782 396.22 126.081 397.262 125.203 398.146C124.322 399.027 123.28 399.721 122.132 400.195C120.981 400.67 119.751 400.917 118.501 400.917H64.6792C56.3111 400.917 48.0223 399.267 40.2908 396.069C32.5598 392.871 25.5308 388.175 19.6092 382.256C13.6947 376.337 8.99684 369.319 5.79014 361.584C2.59044 353.857 0.94 345.572 0.94 337.208C0.94 328.895 2.57586 320.669 5.76038 313.001Z" fill="white" stroke="#B8C0CC" stroke-width="1.88"/>
<path d="M105 290C117.5 301.5 127.104 318.137 127.148 335.127V390.407C127.141 392.815 126.267 395.639 124.563 397.335C122.858 399.038 120.559 399.993 118.15 400H103C105.409 399.993 107.635 398.52 109.332 396.817C111.036 395.113 111.991 392.808 111.998 390.407V335.127C111.998 293.823 58.6503 271 62.9902 271C80.0029 271.051 92.9824 277.988 105 290Z" fill="#EAEFF4"/>
<path d="M48.2898 332.436C48.2898 330.843 48.9215 329.309 50.0528 328.185C51.184 327.055 52.7119 326.423 54.306 326.423C55.9 326.423 57.4352 327.055 58.5591 328.185C59.6904 329.316 60.3221 330.843 60.3221 332.436" stroke="#B8C0CC" stroke-width="1.88" stroke-linecap="round" stroke-linejoin="round"/>
<path d="M20.3098 332.436C20.3098 330.843 20.9415 329.309 22.0728 328.185C23.204 327.055 24.732 326.423 26.326 326.423C27.92 326.423 29.4553 327.055 30.5792 328.185C31.7104 329.316 32.3421 330.843 32.3421 332.436" stroke="#B8C0CC" stroke-width="1.88" stroke-linecap="round" stroke-linejoin="round"/>
<path d="M80.8031 347.478C80.8031 347.478 81.5377 365.099 58.7659 365.833" stroke="#B8C0CC" stroke-width="1.88" stroke-miterlimit="10" stroke-linecap="round"/>
<path opacity="0.7" d="M12 303L122.5 314C119 306.5 115 299.5 108.5 293.25L69.5 289L30.5 284.75C21.5 291.25 15.5 297 12 303Z" fill="#B2DBE7"/>
<path d="M30.1565 245.184C16.7441 261.518 24.6677 278.529 29 283.5C49.9645 288.122 107 292 109 292.5C99 281.5 89 274.5 71.8321 266.665C54.6642 258.83 50.5028 256.866 48 249C43.0958 252.611 43.0958 262.769 43.0958 262.769C35.5265 261.707 30.5438 248.67 30.1565 245.184Z" fill="white" stroke="#B8C0CC" stroke-width="1.88" stroke-linecap="round" stroke-linejoin="round"/>
<path d="M47.6001 250.67C44.6 254.67 44.6 258.67 44.6 258.67C60.948 272.974 70.1 271.17 88.6001 289.67L106.6 291.17C98.1001 281.67 86.6001 274.17 73.1001 268.17C59.6001 262.17 49.6001 258.17 47.6001 250.67Z" fill="#EAEFF4"/>
<circle cx="59" cy="366" r="4" fill="#B8C0CC"/>
</svg>
