<svg width="89" height="62" viewBox="0 0 89 62" fill="none" xmlns="http://www.w3.org/2000/svg">
<path d="M70.251 38.6051C75.1351 38.6051 79.0944 34.6458 79.0944 29.7617C79.0944 24.8776 75.1351 20.9182 70.251 20.9182C65.3669 20.9182 61.4075 24.8776 61.4075 29.7617C61.4075 34.6458 65.3669 38.6051 70.251 38.6051Z" fill="#30A3C7"/>
<path d="M17.1903 44.4554C17.1903 44.4554 37.054 22.823 50.5233 22.4148C50.5233 22.4148 54.3328 38.333 63.7204 44.8635C63.7204 44.8635 48.3465 35.884 38.1425 40.2377C27.9385 44.5914 26.8501 47.0404 17.1903 44.4554Z" stroke="#B8C0CC" stroke-width="1.5" stroke-miterlimit="10" stroke-linejoin="round"/>
<path d="M39.1085 26.1698L39.1221 23.8297C39.1221 23.8297 38.5779 2.25169 57.2715 1C57.2715 1 47.7478 9.02713 49.8839 19.4896L50.7002 23.3943" stroke="#B8C0CC" stroke-width="1.5" stroke-miterlimit="10" stroke-linejoin="round"/>
<path d="M1 47.5846C7.19041 48.0472 12.0203 50.9587 17.6257 53.2308C22.8093 55.326 29.0541 53.0948 33.7208 50.5506C39.8976 47.1765 46.3601 45.5166 53.0267 49.0132C56.8226 50.9995 59.6797 52.6458 64.0198 53.0403C68.2646 53.4213 72.7408 52.7682 76.2237 50.1832C84.1148 44.3329 88.0603 48.0064 88.0603 48.0064" stroke="#B8C0CC" stroke-width="1.5" stroke-miterlimit="10" stroke-linejoin="round"/>
<path d="M1 54.5233C7.19041 54.9859 12.0203 57.8974 17.6257 60.1695C22.8093 62.2647 29.0541 60.0335 33.7208 57.4893C39.8976 54.1152 46.3601 52.4553 53.0267 55.9519C56.8226 57.9383 59.6797 59.5845 64.0198 59.9791C68.2646 60.36 72.7408 59.707 76.2237 57.1219C84.1148 51.2717 88.0603 54.9451 88.0603 54.9451" stroke="#B8C0CC" stroke-width="1.5" stroke-miterlimit="10" stroke-linejoin="round"/>
</svg>
