<svg width="127" height="107" viewBox="0 0 127 107" fill="none" xmlns="http://www.w3.org/2000/svg">
<path d="M105.72 52.859C105.72 42.4044 102.62 32.1848 96.8117 23.4921C91.0034 14.7995 82.748 8.02441 73.0892 4.02364C63.4305 0.0228686 52.8024 -1.02387 42.5487 1.01571C32.2951 3.05528 22.8765 8.08955 15.484 15.482C8.09155 22.8745 3.05722 32.2931 1.01764 42.5467C-1.02193 52.8004 0.0248671 63.4285 4.02564 73.0872C8.02641 82.746 14.8015 91.0014 23.4941 96.8097C32.1867 102.618 42.4064 105.718 52.861 105.718" fill="#F0F4F7"/>
<path d="M76.0569 106.038H29.696C28.2239 106.034 26.8134 105.447 25.7726 104.406C24.7318 103.365 24.1452 101.954 24.141 100.482V37.264C24.1452 35.792 24.7318 34.3813 25.7726 33.3403C26.8134 32.2993 28.2239 31.7125 29.696 31.708H103.443C104.915 31.7122 106.326 32.299 107.367 33.3401C108.408 34.3811 108.995 35.7918 108.999 37.264V83.499" fill="white"/>
<path d="M76.0569 106.038H29.696C28.2239 106.034 26.8134 105.447 25.7726 104.406C24.7318 103.365 24.1452 101.954 24.141 100.482V37.264C24.1452 35.792 24.7318 34.3813 25.7726 33.3403C26.8134 32.2993 28.2239 31.7125 29.696 31.708H103.443C104.915 31.7122 106.326 32.299 107.367 33.3401C108.408 34.3811 108.995 35.7918 108.999 37.264V83.499" stroke="#B8C0CC" stroke-width="1.88" stroke-miterlimit="10" stroke-linecap="round"/>
<path d="M45.356 24.7521V38.9711" stroke="#B8C0CC" stroke-width="1.88" stroke-miterlimit="10" stroke-linecap="round"/>
<path d="M87.7859 24.7521V38.9711" stroke="#B8C0CC" stroke-width="1.88" stroke-miterlimit="10" stroke-linecap="round"/>
<path d="M109.002 47.6691H24.142" stroke="#B8C0CC" stroke-width="1.88" stroke-miterlimit="10" stroke-linecap="round"/>
<path d="M47.884 66.3705C47.884 63.7463 45.7567 61.619 43.1325 61.619C40.5083 61.619 38.381 63.7463 38.381 66.3705C38.381 68.9947 40.5083 71.122 43.1325 71.122C45.7567 71.122 47.884 68.9947 47.884 66.3705Z" stroke="#B8C0CC" stroke-width="1.88" stroke-miterlimit="10" stroke-linecap="round"/>
<path d="M71.322 66.3705C71.322 63.7463 69.1947 61.619 66.5705 61.619C63.9463 61.619 61.819 63.7463 61.819 66.3705C61.819 68.9947 63.9463 71.122 66.5705 71.122C69.1947 71.122 71.322 68.9947 71.322 66.3705Z" stroke="#B8C0CC" stroke-width="1.88" stroke-miterlimit="10" stroke-linecap="round"/>
<path d="M94.246 66.3705C94.246 63.7463 92.1187 61.619 89.4945 61.619C86.8703 61.619 84.743 63.7463 84.743 66.3705C84.743 68.9947 86.8703 71.122 89.4945 71.122C92.1187 71.122 94.246 68.9947 94.246 66.3705Z" stroke="#B8C0CC" stroke-width="1.88" stroke-miterlimit="10" stroke-linecap="round"/>
<path d="M47.884 86.0396C47.884 83.4154 45.7567 81.2881 43.1325 81.2881C40.5083 81.2881 38.381 83.4154 38.381 86.0396C38.381 88.6638 40.5083 90.7911 43.1325 90.7911C45.7567 90.7911 47.884 88.6638 47.884 86.0396Z" stroke="#B8C0CC" stroke-width="1.88" stroke-miterlimit="10" stroke-linecap="round"/>
<path d="M71.324 86.0396C71.324 83.4154 69.1967 81.2881 66.5725 81.2881C63.9483 81.2881 61.821 83.4154 61.821 86.0396C61.821 88.6638 63.9483 90.7911 66.5725 90.7911C69.1967 90.7911 71.324 88.6638 71.324 86.0396Z" stroke="#B8C0CC" stroke-width="1.88" stroke-miterlimit="10" stroke-linecap="round"/>
<path d="M91.2767 93.9091H115.734V100.229H91.2767V93.9091Z" stroke="#30A3C7" stroke-width="1.88" stroke-miterlimit="10" stroke-linecap="round" stroke-linejoin="round"/>
<path d="M86.3304 88.4126H91.2769V106H86.3304V88.4126Z" fill="white" stroke="#30A3C7" stroke-width="1.88" stroke-miterlimit="10" stroke-linecap="round" stroke-linejoin="round"/>
<path d="M81.258 88.4126H86.2045V106H81.258V88.4126Z" fill="white" stroke="#30A3C7" stroke-width="1.88" stroke-miterlimit="10" stroke-linecap="round" stroke-linejoin="round"/>
<path d="M121.054 88.4126H126V106H121.054V88.4126Z" fill="white" stroke="#30A3C7" stroke-width="1.88" stroke-miterlimit="10" stroke-linecap="round" stroke-linejoin="round"/>
<path d="M115.982 88.4126H120.928V106H115.982V88.4126Z" fill="white" stroke="#30A3C7" stroke-width="1.88" stroke-miterlimit="10" stroke-linecap="round" stroke-linejoin="round"/>
</svg>
