<svg width="153" height="218" viewBox="0 0 153 218" fill="none" xmlns="http://www.w3.org/2000/svg">
<path d="M24.5 14H96.7C104.3 14 110.4 20.2 110.5 27.8V186.4C110.5 194 104.3 200.1 96.7 200.2H24.5C16.9 200.2 10.8 194 10.7 186.4V27.8C10.8 20.2 17 14 24.5 14Z" fill="#B8C0CC"/>
<path d="M34.3 5.4L34 6.4H33C32.3 5.2 32.3 3.7 33 2.5L33.9 2.6L34.4 3.5C34.3 3.8 34.3 4.2 34.3 4.5C34.2 4.8 34.3 5.2 34.3 5.4Z" fill="#30A3C7"/>
<path d="M40.7 3.80005C40.9 5.30005 40.4 6.80005 39.2 7.80005L38.1 7.70005L38 6.70005C38.5 6.40005 38.9 6.00005 39 5.40005H36.8V3.80005H40.7Z" fill="#30A3C7"/>
<path d="M39.2 7.7999C37.4 9.1999 34.8 8.8999 33.4 7.0999C33.3 6.8999 33.2 6.6999 32.9 6.4999L34.3 5.3999C34.7 6.6999 36.1 7.2999 37.4 6.8999C37.5 6.8999 37.6 6.79991 37.7 6.69991L39.2 7.7999Z" fill="#30A3C7"/>
<path d="M39.2 1.39999L37.8 2.49999C36.7 1.79999 35.2 2.2 34.5 3.3C34.4 3.4 34.3 3.6 34.3 3.8L32.9 2.7C33.9 0.699997 36.3 -0.100006 38.3 0.899994C38.4 0.899994 38.4 0.999993 38.5 0.999993C38.8 1.09999 39 1.29999 39.2 1.39999Z" fill="#30A3C7"/>
<path d="M25.1 3.2001H23.5V2.1001C23.5 1.8001 23.7 1.6001 24 1.5001H24.7V0.100098H23.6C22.7 0.100098 22 0.700098 22 1.6001V1.7001V3.1001H20.9V4.5001H22V9.0001H23.6V4.5001H24.8L25.1 3.2001Z" fill="#30A3C7"/>
<path d="M57.2 2.7C57.2 2.3 57.1 1.9 57 1.6C56.8 0.899998 56.3 0.400005 55.6 0.200005C55.2 0.100005 54.8 0 54.5 0H50.6C50.2 0 49.8 0.100005 49.5 0.200005C48.9 0.500005 48.5 0.999998 48.1 1.6C48 2 47.9 2.4 47.9 2.8V6.7C47.9 7.1 48 7.5 48.1 7.8C48.4 8.4 48.9 8.8 49.5 9.2C49.9 9.3 50.3 9.4 50.6 9.4H54.5C54.9 9.4 55.3 9.3 55.6 9.2C56.3 9 56.8 8.5 57 7.8C57.1 7.4 57.2 7 57.2 6.7V2.7ZM56.1 6.3C56.1 6.6 56.1 6.8 56 7.1C55.9 7.5 55.6 7.8 55.2 7.9C54.9 8 54.7 8 54.4 8H51C50.7 8 50.5 8 50.2 7.9C50 7.8 49.9 7.7 49.7 7.6C49.6 7.5 49.5 7.3 49.4 7.1C49.3 6.8 49.3 6.6 49.3 6.3V2.9C49.3 2.6 49.3 2.4 49.4 2.1C49.5 1.9 49.6 1.8 49.7 1.6C49.8 1.5 50 1.4 50.2 1.3C50.5 1.2 50.7 1.2 51 1.2H54.4C54.7 1.2 54.9 1.2 55.2 1.3C55.4 1.4 55.5 1.5 55.7 1.6C55.8 1.7 55.9 1.9 56 2.1C56.1 2.4 56.1 2.6 56.1 2.9V6.3Z" fill="#30A3C7"/>
<path d="M52.6 2.6001C51.5 2.6001 50.5 3.5001 50.5 4.7001C50.5 5.8001 51.4 6.8001 52.6 6.8001C53.7 6.8001 54.7 5.9001 54.7 4.7001C54.7 3.5001 53.8 2.6001 52.6 2.6001ZM52.6 5.8001C52 5.8001 51.5 5.3001 51.5 4.7001C51.5 4.1001 52 3.6001 52.6 3.6001C53.2 3.6001 53.7 4.1001 53.7 4.7001C53.7 5.3001 53.3 5.8001 52.7 5.8001H52.6Z" fill="#30A3C7"/>
<path d="M23.4 18.3H95.8C101.5 18.3 106.1 22.9 106.1 28.5V177.2C106.1 182.9 101.5 187.5 95.9 187.5H25.5C19.8 187.5 15.2 182.9 15.2 177.3V26.6C15.2 22 18.8 18.3 23.4 18.3Z" fill="white"/>
<path d="M58.1 33.8001C58.1 35.6001 56.7 37.0001 54.9 37.0001C53.1 37.0001 51.7 35.6001 51.7 33.8001C51.7 32.0001 53.1 30.6001 54.9 30.6001C56.7 30.7001 58.1 32.1001 58.1 33.8001ZM56.6 33.8001C56.5 32.8001 55.7 32.0001 54.7 32.1001C53.7 32.2001 52.9 33.0001 53 34.0001C53.1 34.9001 53.9 35.7001 54.8 35.7001C55.7 35.8001 56.6 35.0001 56.6 34.1001V34.0001C56.6 33.9001 56.6 33.9001 56.6 33.8001Z" fill="#EA4335"/>
<path d="M65 33.8001C65 35.6001 63.6 37.0001 61.8 37.0001C60 37.0001 58.6 35.6001 58.6 33.8001C58.6 32.0001 60 30.6001 61.8 30.6001C63.5 30.7001 65 32.1001 65 33.8001ZM63.6 33.8001C63.5 32.8001 62.7 32.0001 61.7 32.1001C60.7 32.2001 59.9 33.0001 60 34.0001C60.1 34.9001 60.9 35.7001 61.8 35.7001C62.8 35.7001 63.6 34.9001 63.6 33.8001Z" fill="#FBBC05"/>
<path d="M71.6 30.8999V36.5999C71.6 38.9999 70.2 39.8999 68.6 39.8999C67.4 39.8999 66.2 39.1999 65.7 38.0999L67 37.5999C67.2 38.2999 67.9 38.7 68.6 38.7C69.5 38.7 70.3 37.9999 70.3 37.0999V36.3999C69.8 36.8999 69.2 37.0999 68.6 37.0999C66.9 36.9999 65.5 35.4999 65.5 33.7999C65.7 32.1999 67 30.9 68.6 30.7C69.2 30.7 69.9 30.8999 70.3 31.3999V30.8999H71.6ZM70.4 33.7999C70.5 32.8999 69.9 31.9999 68.9 31.8999H68.8H68.7C67.7 31.9999 66.9 32.8999 67 33.9999C67.1 34.8999 67.8 35.6 68.7 35.7C69.6 35.7 70.4 34.8999 70.4 33.9999V33.7999Z" fill="#4285F4"/>
<path d="M73.8 27.5V36.9H72.4V27.5H73.8Z" fill="#34A853"/>
<path d="M79.1 34.9001L80.1 35.6001C79.5 36.5001 78.5 37.0001 77.5 37.0001C75.8 37.0001 74.4 35.6001 74.3 33.9001V33.8001C74.2 32.2001 75.4 30.7001 77.1 30.6001H77.3C78.6 30.6001 79.7 31.4001 80.1 32.7001L80.2 33.0001L76 34.7001C76.3 35.3001 76.9 35.7001 77.5 35.6001C78 35.8001 78.7 35.5001 79.1 34.9001ZM75.8 33.7001L78.7 32.6001C78.5 32.2001 78 31.9001 77.6 31.9001C76.7 31.9001 75.9 32.7001 75.9 33.6001V33.7001H75.8Z" fill="#EA4335"/>
<path d="M46.5 33V31.6H51.1C51.1 31.8 51.2 32.2 51.2 32.4C51.2 33.6 50.8 34.7 50.1 35.6C49.2 36.5 48 37 46.7 37C43.9 37 41.7 34.8 41.7 32C41.7 29.3 43.9 27.1 46.6 27H46.7C48 27 49.2 27.5 50.1 28.4L49.2 29.3C48.6 28.6 47.7 28.3 46.8 28.4C44.8 28.5 43.3 30.1 43.2 32.1C43.2 34.1 44.8 35.7 46.8 35.7C47.7 35.7 48.6 35.3 49.3 34.7C49.8 34.2 50 33.6 50 33H46.5Z" fill="#4285F4"/>
<path d="M28.6 46.8H92.5C95.6 46.8 98.2 49.3001 98.2 52.4001V52.5001C98.2 55.6001 95.7 58.2001 92.6 58.2001H28.5C25.4 58.2001 22.8 55.7001 22.8 52.6001V52.5001C22.8 49.4001 25.3 46.8 28.4 46.8H28.6Z" fill="#EAEFF4"/>
<path d="M22.7 73.3H67.7C69.1 73.3 70.3 74.4 70.3 75.8V75.9001C70.3 77.3001 69.2 78.5001 67.8 78.5001H22.7C21.3 78.5001 20.1 77.4001 20.1 76.0001V75.9001C20.1 74.5001 21.2 73.3 22.7 73.3Z" fill="#EAEFF4"/>
<path d="M106.1 66.3999H15.1V67.4999H106.1V66.3999Z" fill="#F2F2F2"/>
<path d="M23.2 82.8999L24.2 84.7999L26.4 85.0999L24.8 86.6999L25.1 88.8999L23.2 87.8999L21.3 88.8999L21.6 86.6999L20 85.0999L22.2 84.7999L23.2 82.8999Z" fill="#FBBB00"/>
<path d="M31.1 82.8999L32.1 84.7999L34.3 85.0999L32.7 86.6999L33 88.8999L31.1 87.8999L29.2 88.8999L29.5 86.6999L27.9 85.0999L30.1 84.7999L31.1 82.8999Z" fill="#FBBB00"/>
<path d="M39 82.8999L40 84.7999L42.2 85.0999L40.6 86.6999L40.9001 88.8999L39 87.8999L37.1 88.8999L37.4001 86.6999L35.8 85.0999L38 84.7999L39 82.8999Z" fill="#FBBB00"/>
<path d="M46.9 82.8999L47.9 84.7999L50.1 85.0999L48.5 86.6999L48.8 88.8999L46.9 87.8999L45 88.8999L45.3 86.6999L43.7 85.0999L45.9 84.7999L46.9 82.8999Z" fill="#FBBB00"/>
<path d="M54.8 82.8999L55.8 84.7999L58 85.0999L56.4 86.6999L56.7 88.8999L54.8 87.8999L52.9 88.8999L53.2 86.6999L51.6 85.0999L53.8 84.7999L54.8 82.8999Z" fill="#FBBB00"/>
<path d="M22.7 100.3H67.7C69.1 100.3 70.3 101.4 70.3 102.8V102.9C70.3 104.3 69.2 105.5 67.8 105.5H22.7C21.3 105.5 20.1 104.4 20.1 103V102.9C20.1 101.5 21.3 100.3 22.7 100.3Z" fill="#EAEFF4"/>
<path d="M106.1 93.3H15.1V94.4001H106.1V93.3Z" fill="#F2F2F2"/>
<path d="M23.2 109.9L24.2 111.8L26.4 112.1L24.8 113.7L25.1 115.9L23.2 114.9L21.3 115.9L21.6 113.7L20 112.1L22.2 111.8L23.2 109.9Z" fill="#FBBB00"/>
<path d="M31.1 109.9L32.1 111.8L34.3 112.1L32.7 113.7L33 115.9L31.1 114.9L29.2 115.9L29.5 113.7L27.9 112.1L30.1 111.8L31.1 109.9Z" fill="#FBBB00"/>
<path d="M39 109.9L40 111.8L42.2 112.1L40.6 113.7L40.9001 115.9L39 114.9L37.1 115.9L37.4001 113.7L35.8 112.1L38 111.8L39 109.9Z" fill="#FBBB00"/>
<path d="M46.9 109.9L47.9 111.8L50.1 112.1L48.5 113.7L48.8 115.9L46.9 114.9L45 115.9L45.3 113.7L43.7 112.1L45.9 111.8L46.9 109.9Z" fill="#FBBB00"/>
<path d="M54.8 109.9L55.8 111.8L58 112.1L56.4 113.7L56.7 115.9L54.8 114.9L52.9 115.9L53.2 113.7L51.6 112.1L53.8 111.8L54.8 109.9Z" fill="#FBBB00"/>
<path d="M22.7 127.3H67.7C69.1 127.3 70.3 128.4 70.3 129.8V129.9C70.3 131.3 69.2 132.5 67.8 132.5H22.7C21.3 132.5 20.1 131.4 20.1 130V129.9C20.1 128.5 21.3 127.4 22.7 127.3Z" fill="#F2F2F2"/>
<path d="M106.1 120.3H15.1V121.4H106.1V120.3Z" fill="#F2F2F2"/>
<path d="M23.2 136.8L24.2 138.7L26.4 139L24.8 140.6L25.1 142.8L23.2 141.8L21.3 142.8L21.6 140.6L20 139L22.2 138.7L23.2 136.8Z" fill="#FBBB00"/>
<path d="M31.1 136.8L32.1 138.7L34.3 139L32.7 140.6L33 142.8L31.1 141.8L29.2 142.8L29.5 140.6L27.9 139L30.1 138.7L31.1 136.8Z" fill="#FBBB00"/>
<path d="M39 136.8L40 138.7L42.2 139L40.6 140.6L40.9001 142.8L39 141.8L37.1 142.8L37.4001 140.6L35.8 139L38 138.7L39 136.8Z" fill="#FBBB00"/>
<path d="M46.9 136.8L47.9 138.7L50.1 139L48.5 140.6L48.8 142.8L46.9 141.8L45 142.8L45.3 140.6L43.7 139L45.9 138.7L46.9 136.8Z" fill="#FBBB00"/>
<path d="M54.8 136.8L55.8 138.7L58 139L56.4 140.6L56.7 142.8L54.8 141.8L52.9 142.8L53.2 140.6L51.6 139L53.8 138.7L54.8 136.8Z" fill="#FBBB00"/>
<path d="M22.7 154.8H67.7C69.1 154.8 70.3 155.9 70.3 157.3V157.4C70.3 158.8 69.2 160 67.8 160H22.7C21.3 160 20.1 158.9 20.1 157.5V157.4C20.1 156 21.3 154.9 22.7 154.8Z" fill="#EAEFF4"/>
<path d="M106.1 147.8H15.1V148.9H106.1V147.8Z" fill="#F2F2F2"/>
<path d="M23.2 164.3L24.2 166.2L26.4 166.5L24.8 168.1L25.1 170.3L23.2 169.3L21.3 170.3L21.6 168.1L20 166.5L22.2 166.2L23.2 164.3Z" fill="#FBBB00"/>
<path d="M31.1 164.3L32.1 166.2L34.3 166.5L32.7 168.1L33 170.3L31.1 169.3L29.2 170.3L29.5 168.1L27.9 166.5L30.1 166.2L31.1 164.3Z" fill="#FBBB00"/>
<path d="M39 164.3L40 166.2L42.2 166.5L40.6 168.1L40.9001 170.3L39 169.3L37.1 170.3L37.4001 168.1L35.8 166.5L38 166.2L39 164.3Z" fill="#FBBB00"/>
<path d="M46.9 164.3L47.9 166.2L50.1 166.5L48.5 168.1L48.8 170.3L46.9 169.3L45 170.3L45.3 168.1L43.7 166.5L45.9 166.2L46.9 164.3Z" fill="#FBBB00"/>
<path d="M54.8 164.3L55.8 166.2L58 166.5L56.4 168.1L56.7 170.3L54.8 169.3L52.9 170.3L53.2 168.1L51.6 166.5L53.8 166.2L54.8 164.3Z" fill="#FBBB00"/>
<path d="M99.9001 82.8C99.5001 82.8 99 82.7 98.6 82.6C98.5 82.6 98.3 82.6 98.3 82.7L97.7 83.4C96.7 82.8 95.9 82 95.3 81L96 80.4C96.1 80.3 96.1 80.2 96.1 80.1C96 79.7 95.9001 79.3 95.9001 78.8C95.9001 78.7 95.8 78.5 95.7 78.5H94.3C94.1 78.5 93.8 78.6 93.8 78.8C93.8 82.1 96.5001 84.9 99.9001 84.9C100.1 84.9 100.2 84.8 100.2 84.7V84.6V83.3C100.3 83 100.2 82.8 99.9001 82.8Z" fill="#5680E9"/>
<path d="M99.9001 108.3C99.5001 108.3 99 108.2 98.6 108.1C98.5 108.1 98.3 108.1 98.3 108.2L97.7 108.9C96.7 108.3 95.9 107.5 95.3 106.5L96 105.9C96.1 105.8 96.1 105.7 96.1 105.6C96 105.2 95.9001 104.8 95.9001 104.3C95.9001 104.2 95.8 104 95.7 104H94.3C94.1 104 93.8 104.1 93.8 104.3C93.8 107.6 96.5001 110.4 99.9001 110.4C100.1 110.4 100.2 110.3 100.2 110.2V110.1V108.8C100.3 108.4 100.2 108.3 99.9001 108.3Z" fill="#5680E9"/>
<path d="M99.9001 135.8C99.5001 135.8 99 135.7 98.6 135.6C98.5 135.6 98.3 135.6 98.3 135.7L97.7 136.4C96.7 135.8 95.9 135 95.3 134L96 133.4C96.1 133.3 96.1 133.2 96.1 133.1C96 132.7 95.9001 132.3 95.9001 131.8C95.9001 131.7 95.8 131.5 95.7 131.5H94.3C94.1 131.5 93.8 131.6 93.8 131.8C93.8 135.1 96.5001 137.9 99.9001 137.9C100.1 137.9 100.2 137.8 100.2 137.7V137.6V136.3C100.3 136 100.2 135.8 99.9001 135.8Z" fill="#4285F4"/>
<path d="M99.9001 163.3C99.5001 163.3 99 163.2 98.6 163.1C98.5 163.1 98.3 163.1 98.3 163.2L97.7 163.9C96.7 163.3 95.9 162.5 95.3 161.5L96 160.9C96.1 160.8 96.1 160.7 96.1 160.6C96 160.2 95.9001 159.8 95.9001 159.3C95.9001 159.2 95.8 159 95.7 159H94.3C94.1 159 93.8 159.1 93.8 159.3C93.8 162.6 96.5001 165.4 99.9001 165.4C100.1 165.4 100.2 165.3 100.2 165.2V165.1V163.8C100.3 163.4 100.2 163.3 99.9001 163.3Z" fill="#4285F4"/>
<g opacity="0.4">
<path opacity="0.4" d="M34.7 152.6C53.0911 152.6 68 137.691 68 119.3C68 100.909 53.0911 86 34.7 86C16.3089 86 1.40002 100.909 1.40002 119.3C1.40002 137.691 16.3089 152.6 34.7 152.6Z" fill="white"/>
</g>
<mask id="mask0" mask-type="alpha" maskUnits="userSpaceOnUse" x="1" y="85" width="68" height="69">
<path d="M34.8 153.3C53.4672 153.3 68.6 138.167 68.6 119.5C68.6 100.833 53.4672 85.7 34.8 85.7C16.1328 85.7 1 100.833 1 119.5C1 138.167 16.1328 153.3 34.8 153.3Z" fill="#C4C4C4"/>
</mask>
<g mask="url(#mask0)">
<path d="M11.8 -44.8999H145C152.6 -44.8999 158.7 -38.6999 158.8 -31.0999V241.2C158.8 248.8 152.6 254.9 145 255H11.8C4.20001 255 -1.89999 248.8 -1.99999 241.2V-31.0999C-2.09999 -38.5999 3.90001 -44.7999 11.4 -44.7999L11.8 -44.8999Z" fill="#B8C0CC"/>
<path d="M13.3 -38.1001H141.3C147 -38.1001 151.6 -33.5001 151.6 -27.9001V224.3C151.6 230 147 234.6 141.4 234.6H15.4C9.70001 234.6 5.1 230 5.1 224.4V-29.9001C5 -34.4001 8.70002 -38.1001 13.3 -38.1001C13.2 -38.1001 13.2 -38.1001 13.3 -38.1001Z" fill="white"/>
<path d="M17.1 94H89.6C91.9 94 93.8 95.9 93.8 98.2C93.8 100.5 91.9 102.4 89.6 102.4H17C14.7 102.4 12.8 100.5 12.8 98.2C12.8 95.9 14.7 94 17.1 94Z" fill="#EAEFF4"/>
<path d="M18 109.5L19.6 112.7L23.2 113.2L20.7 115.7L21.3 119.3L18.1 117.6L14.9 119.3L15.5 115.7L13 113.2L16.6 112.7L18 109.5Z" fill="#FBBB00"/>
<path d="M30.7 109.5L32.3 112.7L35.9 113.2L33.4 115.7L34 119.3L30.8 117.6L27.6 119.3L28.2 115.7L25.7 113.2L29.3 112.7L30.7 109.5Z" fill="#FBBB00"/>
<path d="M43.4 109.5L45 112.7L48.6 113.2L46.1 115.7L46.7 119.3L43.5 117.6L40.3 119.3L40.9 115.7L38.4 113.2L42 112.7L43.4 109.5Z" fill="#FBBB00"/>
<path d="M56.1 109.5L57.7 112.7L61.3 113.2L58.8 115.7L59.4 119.3L56.2 117.6L53 119.3L53.6 115.7L51.1 113.2L54.7 112.7L56.1 109.5Z" fill="#FBBB00"/>
<path d="M68.8 109.5L70.4 112.7L74 113.2L71.5 115.7L72.1 119.3L68.9 117.6L65.7 119.3L66.4 115.7L63.9 113.2L67.5 112.7L68.8 109.5Z" fill="#FBBB00"/>
<path d="M17.1 137.4H89.6C91.9 137.4 93.8 139.3 93.8 141.6C93.8 143.9 91.9 145.8 89.6 145.8H17C14.7 145.8 12.8 143.9 12.8 141.6C12.9 139.3 14.8 137.5 17.1 137.4Z" fill="#EAEFF4"/>
<path d="M151.7 126.5H5.09998V127.6H151.7V126.5Z" fill="#EAEFF4"/>
</g>
<path d="M34.8 153.3C53.4672 153.3 68.6 138.167 68.6 119.5C68.6 100.833 53.4672 85.7 34.8 85.7C16.1328 85.7 1 100.833 1 119.5C1 138.167 16.1328 153.3 34.8 153.3Z" stroke="#30A3C7" stroke-width="1.88" stroke-linecap="round" stroke-linejoin="round"/>
<path d="M55.2 146.3L67.3 162.5" stroke="#30A3C7" stroke-width="1.88" stroke-linecap="round" stroke-linejoin="round"/>
<path d="M138.5 216.178H107.733C84.533 216.178 65.733 197.378 65.733 174.178V173.578C65.733 150.378 84.533 131.578 107.733 131.578H108.333C131.533 131.578 150.333 150.378 150.333 173.578V197.178C150.233 207.678 149 216.178 138.5 216.178Z" fill="white"/>
<path d="M108.348 131.643C106.148 131.643 103.948 131.843 101.748 132.143C118.948 131.743 142.448 144.443 142.448 173.743V210.043C142.448 213.343 139.748 215.943 136.448 216.043H144.448C147.748 216.043 150.348 213.343 150.448 210.043V173.743C150.348 150.543 131.548 131.743 108.348 131.643Z" fill="#EAEFF4"/>
<path d="M143.308 216.177H108.708C85.508 216.177 66.708 197.377 66.708 174.177V173.577C66.708 150.377 85.508 131.577 108.708 131.577H109.308C132.508 131.577 151.308 150.377 151.308 173.577V208.177C151.308 212.577 147.708 216.177 143.308 216.177Z" stroke="#B8C0CC" stroke-width="1.88" stroke-miterlimit="10"/>
<path d="M115.549 149.74C115.594 151.805 113.958 153.515 111.896 153.56C109.834 153.605 108.126 151.967 108.081 149.902C108.036 147.837 109.672 146.126 111.734 146.081C113.796 146.036 115.504 147.674 115.549 149.74Z" fill="#B8C0CC"/>
<path d="M103 177.5C103 177.5 116.5 170.5 112.174 149.856" stroke="#B8C0CC" stroke-width="1.88" stroke-miterlimit="10" stroke-linecap="round" stroke-linejoin="round"/>
<path d="M90.0932 157.68C91.5728 155.288 91.5604 152.599 90.0653 151.674C88.5703 150.75 86.1588 151.939 84.6792 154.331C83.1995 156.723 83.212 159.412 84.707 160.337C86.202 161.262 88.6135 160.072 90.0932 157.68Z" fill="#B8C0CC"/>
</svg>
