<svg width="137" height="126" viewBox="0 0 137 126" fill="none" xmlns="http://www.w3.org/2000/svg">
<path d="M123.882 46.718L110.95 43.69L105.291 48.798C105.171 48.9067 105.031 48.9907 104.879 49.0453C104.727 49.0999 104.566 49.124 104.404 49.1162C104.243 49.1084 104.084 49.0689 103.938 48.9999C103.792 48.9309 103.661 48.8337 103.552 48.714C103.464 48.6175 103.392 48.5074 103.339 48.388L100.113 41.158L86.5299 37.945C85.3994 37.6792 84.4205 36.9758 83.8079 35.9892C83.1952 35.0025 82.9989 33.8132 83.262 32.682L89.8979 4.38201C90.1638 3.25149 90.8672 2.27255 91.8538 1.65991C92.8404 1.04727 94.0298 0.850952 95.1609 1.11401L132.57 9.88601C133.696 10.1639 134.667 10.8768 135.269 11.8686C135.871 12.8605 136.055 14.0504 135.782 15.178L129.146 43.478C128.874 44.6033 128.168 45.5755 127.182 46.1825C126.196 46.7894 125.01 46.9819 123.883 46.718H123.882Z" fill="white"/>
<path d="M123.779 46.648L111.879 43.954C111.574 43.885 111.257 43.8885 110.954 43.9642C110.65 44.04 110.369 44.1858 110.132 44.39L105.25 48.597C105.127 48.7028 104.982 48.779 104.826 48.8198C104.669 48.8606 104.505 48.8649 104.347 48.8323C104.188 48.7998 104.039 48.7312 103.911 48.632C103.783 48.5328 103.68 48.4055 103.609 48.26L100.649 42.189C100.516 41.9163 100.323 41.6768 100.086 41.4884C99.8479 41.2999 99.5709 41.1672 99.275 41.1L86.863 38.29C85.6613 38.0178 84.617 37.2794 83.9597 36.2373C83.3024 35.1952 83.0859 33.9346 83.358 32.7329L89.658 4.93296C89.9304 3.73144 90.6688 2.68726 91.7108 2.03C92.7529 1.37275 94.0133 1.1562 95.215 1.42795L132.126 9.78596C132.721 9.92049 133.284 10.171 133.782 10.523C134.28 10.8751 134.704 11.3218 135.03 11.8378C135.355 12.3538 135.576 12.9288 135.679 13.53C135.782 14.1313 135.766 14.747 135.631 15.342L129.336 43.1419C129.201 43.7371 128.951 44.2999 128.599 44.7983C128.247 45.2966 127.8 45.7207 127.284 46.0462C126.768 46.3718 126.193 46.5925 125.591 46.6958C124.99 46.799 124.374 46.7828 123.779 46.648V46.648Z" stroke="#30A3C7" stroke-width="1.88" stroke-linecap="round" stroke-linejoin="round"/>
<path d="M112.521 14.749C113.654 14.749 114.573 13.8303 114.573 12.697C114.573 11.5637 113.654 10.645 112.521 10.645C111.388 10.645 110.469 11.5637 110.469 12.697C110.469 13.8303 111.388 14.749 112.521 14.749Z" fill="#30A3C7"/>
<path d="M116.734 28.8179L117.724 23.8179C118.119 21.7883 117.695 19.6849 116.544 17.9669C115.394 16.249 113.61 15.0562 111.583 14.6489C109.708 14.2839 107.764 14.6757 106.177 15.7388C104.59 16.8019 103.488 18.4499 103.112 20.3228L101.998 25.6129C101.976 25.718 101.926 25.8152 101.853 25.8939L98.8599 29.1248C98.7911 29.2018 98.7432 29.2952 98.721 29.396C98.6987 29.4968 98.7029 29.6017 98.7331 29.7004C98.7633 29.7992 98.8184 29.8885 98.8932 29.9597C98.968 30.0309 99.0598 30.0816 99.1599 30.1069L117.054 34.4469C117.152 34.4707 117.254 34.4691 117.352 34.4423C117.449 34.4155 117.538 34.3644 117.61 34.2938C117.682 34.2231 117.735 34.1353 117.764 34.0385C117.792 33.9418 117.796 33.8393 117.774 33.7408L116.741 29.0639C116.722 28.9832 116.719 28.8995 116.734 28.8179Z" stroke="#30A3C7" stroke-width="1.88" stroke-miterlimit="10"/>
<path d="M120.251 24.8189C123.634 24.8189 126.377 22.0762 126.377 18.6929C126.377 15.3096 123.634 12.5669 120.251 12.5669C116.868 12.5669 114.125 15.3096 114.125 18.6929C114.125 22.0762 116.868 24.8189 120.251 24.8189Z" fill="#FBBB00"/>
<path d="M119.963 22.152H119.793C119.611 22.1083 119.454 21.9945 119.356 21.8354C119.258 21.6763 119.227 21.4849 119.27 21.303L120.345 16.818L119.807 16.691C119.624 16.6464 119.465 16.5322 119.364 16.3725C119.263 16.2128 119.229 16.0201 119.268 15.8354C119.307 15.6507 119.416 15.4885 119.573 15.3831C119.73 15.2778 119.921 15.2376 120.107 15.271H120.128L122.052 15.724L120.638 21.595C120.604 21.7501 120.519 21.8895 120.397 21.9905C120.275 22.0915 120.122 22.1484 119.963 22.152Z" fill="white"/>
<path d="M101.499 25.7739L116.737 29.0639" stroke="#30A3C7" stroke-width="1.88" stroke-miterlimit="10"/>
<path d="M44.2898 40C55.5058 40 66.2625 44.4556 74.1935 52.3865C82.1245 60.3175 86.58 71.0742 86.58 82.2903C86.58 93.5063 82.1245 104.263 74.1935 112.194C66.2625 120.125 55.5058 124.581 44.2898 124.581H14.0822C12.4951 124.581 10.9236 124.268 9.45737 123.66C7.99114 123.053 6.65896 122.162 5.53692 121.04C4.41488 119.918 3.52496 118.585 2.918 117.119C2.31105 115.652 1.99894 114.081 1.99951 112.493V82.2903C1.99951 71.0742 6.45508 60.3175 14.386 52.3865C22.317 44.4556 33.0737 40 44.2898 40V40Z" fill="white"/>
<path d="M43.9077 40.0652C46.1028 40.0653 48.2945 40.2378 50.4626 40.5809C33.2196 40.1771 9.78492 52.915 9.78492 82.1579V118.444C9.7899 120.022 10.419 121.534 11.535 122.65C12.651 123.766 14.1631 124.395 15.7413 124.4H7.77284C6.19464 124.395 4.68251 123.766 3.56655 122.65C2.45059 121.534 1.82145 120.022 1.81647 118.444V82.1564C1.84905 71.0031 6.2941 60.316 14.1807 52.4294C22.0673 44.5428 32.7544 40.0978 43.9077 40.0652Z" fill="#EAEFF4"/>
<path d="M43.2903 40C54.5063 40 65.263 44.4556 73.194 52.3865C81.1249 60.3175 85.5805 71.0742 85.5805 82.2903C85.5805 93.5063 81.1249 104.263 73.194 112.194C65.263 120.125 54.5063 124.581 43.2903 124.581H9.05563C6.9194 124.581 4.87064 123.732 3.35995 122.222C1.84927 120.711 1.00039 118.663 1 116.526L1 82.2903C1 71.0742 5.45557 60.3175 13.3865 52.3865C21.3175 44.4556 32.0742 40 43.2903 40V40Z" stroke="#B8C0CC" stroke-width="1.88" stroke-miterlimit="10"/>
<path d="M60.3996 67.5054C60.7926 68.6942 62.3651 70.4109 64.7579 70.4109C67.1507 70.4109 68.5799 68.6942 69.1162 67.5054" stroke="#B8C0CC" stroke-width="1.88" stroke-miterlimit="10" stroke-linecap="round" stroke-linejoin="round"/>
<path d="M39.9315 67.5054C40.3245 68.6942 41.897 70.4109 44.2898 70.4109C46.6826 70.4109 48.1118 68.6942 48.6481 67.5054" stroke="#B8C0CC" stroke-width="1.88" stroke-miterlimit="10" stroke-linecap="round" stroke-linejoin="round"/>
<path d="M37.3082 82.819C37.7936 82.6699 38.0988 82.7988 38.2237 83.2057C38.3464 83.6054 38.1651 83.8798 37.6797 84.0288L34.2108 85.0939C33.9966 85.1597 33.8009 85.1456 33.6237 85.0516C33.4464 84.9576 33.3293 84.8179 33.2723 84.6323C33.2066 84.4181 33.2245 84.2095 33.3262 84.0065L34.9703 80.4321L32.9146 81.0633C32.4292 81.2123 32.1252 81.087 32.0024 80.6872C31.8775 80.2804 32.0577 80.0024 32.5431 79.8534L35.8836 78.8277C36.1048 78.7598 36.3005 78.7739 36.4707 78.8701C36.6479 78.964 36.7661 79.1074 36.8253 79.3001C36.8911 79.5142 36.8731 79.7228 36.7714 79.9259L35.1348 83.4863L37.3082 82.819Z" fill="#B8C0CC"/>
<path d="M27.5349 76.6366C28.046 76.5271 28.3475 76.6869 28.4393 77.1158C28.4823 77.3166 28.4527 77.49 28.3503 77.636C28.246 77.7729 28.0661 77.8687 27.8105 77.9234L23.2382 78.9027C23.0101 78.9516 22.8073 78.9187 22.63 78.8039C22.4527 78.6892 22.3426 78.5314 22.2996 78.3306C22.2546 78.1207 22.2938 77.9024 22.417 77.6755L25.0644 72.8562L22.0116 73.51C21.7561 73.5648 21.5527 73.5511 21.4014 73.4689C21.2502 73.3868 21.1521 73.2407 21.1072 73.0308C21.0622 72.8209 21.0919 72.6475 21.1962 72.5107C21.3005 72.3738 21.4804 72.278 21.736 72.2232L26.1577 71.2762C26.395 71.2253 26.5977 71.2583 26.7659 71.375C26.9412 71.4806 27.0514 71.6384 27.0963 71.8483C27.1432 72.0673 27.1087 72.2847 26.9926 72.5004L24.3316 77.3227L27.5349 76.6366Z" fill="#B8C0CC"/>
<path d="M22.3989 65.6618C22.9959 65.6423 23.3026 65.883 23.319 66.3841C23.3266 66.6187 23.2581 66.8077 23.1134 66.9511C22.9683 67.0839 22.7465 67.1552 22.448 67.165L17.1069 67.3394C16.8403 67.3481 16.619 67.27 16.4429 67.105C16.2667 66.9399 16.1748 66.7402 16.1671 66.5056C16.1591 66.2604 16.2474 66.0228 16.432 65.7926L20.3867 60.9089L16.8206 61.0254C16.5221 61.0351 16.2961 60.9785 16.1427 60.8554C15.9893 60.7324 15.9085 60.5482 15.9005 60.303C15.8925 60.0578 15.9611 59.8688 16.1061 59.736C16.2512 59.6032 16.473 59.5319 16.7715 59.5222L21.9368 59.3535C22.2139 59.3444 22.4353 59.4226 22.6008 59.5879C22.7766 59.7423 22.8685 59.9421 22.8765 60.1873C22.8848 60.4431 22.8019 60.6806 22.6276 60.8998L18.6569 65.784L22.3989 65.6618Z" fill="#B8C0CC"/>
<circle cx="46.5" cy="86.5" r="2.5" fill="#B8C0CC"/>
<rect x="94.94" y="58.94" width="13.12" height="22.12" rx="1.06" fill="white" stroke="#B8C0CC" stroke-width="1.88"/>
<circle cx="101.5" cy="76.5" r="1.5" fill="#B8C0CC"/>
</svg>
