<svg width="159" height="204" viewBox="0 0 159 204" fill="none" xmlns="http://www.w3.org/2000/svg">
<path d="M146.273 0.166992H32.6359C26.0085 0.166992 20.6359 5.53958 20.6359 12.167V180.985C20.6359 187.612 26.0085 192.985 32.6359 192.985H146.273C152.9 192.985 158.273 187.612 158.273 180.985V12.167C158.273 5.53958 152.9 0.166992 146.273 0.166992Z" fill="#B8C0CC"/>
<path d="M33.3359 4.55005H143.781C146.169 4.55005 148.46 5.49889 150.149 7.18785C151.838 8.8768 152.787 11.1675 152.787 13.556V170.973C152.787 173.362 151.838 175.652 150.149 177.341C148.46 179.03 146.169 179.979 143.781 179.979H35.1279C32.7393 179.979 30.4486 179.03 28.7597 177.341C27.0707 175.652 26.1219 173.362 26.1219 170.973V11.764C26.1219 9.85078 26.8819 8.01587 28.2348 6.66298C29.5877 5.31009 31.4226 4.55005 33.3359 4.55005Z" fill="white"/>
<path d="M61.54 24.066C61.3273 24.066 61.155 24 61.023 23.868C60.8983 23.736 60.836 23.5637 60.836 23.351V16.916C60.836 16.7033 60.8947 16.5383 61.012 16.421C61.1367 16.3037 61.3053 16.245 61.518 16.245H65.379C65.8263 16.245 66.05 16.4357 66.05 16.817C66.05 17.191 65.8263 17.378 65.379 17.378H62.233V19.49H65.159C65.6063 19.49 65.83 19.6807 65.83 20.062C65.83 20.436 65.6063 20.623 65.159 20.623H62.233V23.351C62.233 23.5637 62.1707 23.736 62.046 23.868C61.9213 24 61.7527 24.066 61.54 24.066ZM67.6275 24.066C67.4295 24.066 67.2645 24.011 67.1325 23.901C67.0078 23.7837 66.9455 23.6187 66.9455 23.406V19.16C66.9455 18.9473 67.0078 18.786 67.1325 18.676C67.2645 18.566 67.4295 18.511 67.6275 18.511C67.8255 18.511 67.9905 18.566 68.1225 18.676C68.2545 18.786 68.3205 18.9473 68.3205 19.16V23.406C68.3205 23.6187 68.2545 23.7837 68.1225 23.901C67.9905 24.011 67.8255 24.066 67.6275 24.066ZM67.6275 17.532C67.3781 17.532 67.1801 17.466 67.0335 17.334C66.8868 17.1947 66.8135 17.015 66.8135 16.795C66.8135 16.575 66.8868 16.399 67.0335 16.267C67.1801 16.135 67.3781 16.069 67.6275 16.069C67.8695 16.069 68.0638 16.135 68.2105 16.267C68.3645 16.399 68.4415 16.575 68.4415 16.795C68.4415 17.015 68.3681 17.1947 68.2215 17.334C68.0748 17.466 67.8768 17.532 67.6275 17.532ZM72.5324 23.043C72.8991 23.065 73.0824 23.23 73.0824 23.538C73.0824 23.714 73.0091 23.8497 72.8624 23.945C72.7231 24.033 72.5214 24.0697 72.2574 24.055L71.9604 24.033C70.7284 23.945 70.1124 23.285 70.1124 22.053V19.655H69.5624C69.3644 19.655 69.2104 19.611 69.1004 19.523C68.9978 19.435 68.9464 19.3067 68.9464 19.138C68.9464 18.9693 68.9978 18.841 69.1004 18.753C69.2104 18.665 69.3644 18.621 69.5624 18.621H70.1124V17.609C70.1124 17.411 70.1748 17.2533 70.2994 17.136C70.4241 17.0187 70.5928 16.96 70.8054 16.96C71.0108 16.96 71.1758 17.0187 71.3004 17.136C71.4251 17.2533 71.4874 17.411 71.4874 17.609V18.621H72.4224C72.6204 18.621 72.7708 18.665 72.8734 18.753C72.9834 18.841 73.0384 18.9693 73.0384 19.138C73.0384 19.3067 72.9834 19.435 72.8734 19.523C72.7708 19.611 72.6204 19.655 72.4224 19.655H71.4874V22.152C71.4874 22.6947 71.7368 22.9843 72.2354 23.021L72.5324 23.043ZM76.923 18.489C77.5683 18.489 78.0487 18.6723 78.364 19.039C78.6793 19.4057 78.837 19.9593 78.837 20.7V23.406C78.837 23.6113 78.7747 23.7727 78.65 23.89C78.5327 24.0073 78.3677 24.066 78.155 24.066C77.9423 24.066 77.7737 24.0073 77.649 23.89C77.5243 23.7727 77.462 23.6113 77.462 23.406V20.777C77.462 20.359 77.3813 20.0547 77.22 19.864C77.066 19.6733 76.8203 19.578 76.483 19.578C76.087 19.578 75.768 19.7027 75.526 19.952C75.2913 20.2013 75.174 20.535 75.174 20.953V23.406C75.174 23.6113 75.1117 23.7727 74.987 23.89C74.8623 24.0073 74.6937 24.066 74.481 24.066C74.2683 24.066 74.0997 24.0073 73.975 23.89C73.8577 23.7727 73.799 23.6113 73.799 23.406V19.149C73.799 18.9583 73.8613 18.8043 73.986 18.687C74.1107 18.5697 74.2793 18.511 74.492 18.511C74.6827 18.511 74.8367 18.5697 74.954 18.687C75.0787 18.797 75.141 18.9437 75.141 19.127V19.424C75.3243 19.1233 75.57 18.8923 75.878 18.731C76.186 18.5697 76.5343 18.489 76.923 18.489ZM84.4906 22.526C84.6152 22.526 84.7142 22.5737 84.7876 22.669C84.8682 22.7643 84.9086 22.8927 84.9086 23.054C84.9086 23.2813 84.7729 23.472 84.5016 23.626C84.2522 23.7653 83.9699 23.879 83.6546 23.967C83.3392 24.0477 83.0386 24.088 82.7526 24.088C81.8872 24.088 81.2016 23.8387 80.6956 23.34C80.1896 22.8413 79.9366 22.1593 79.9366 21.294C79.9366 20.744 80.0466 20.2563 80.2666 19.831C80.4866 19.4057 80.7946 19.0757 81.1906 18.841C81.5939 18.6063 82.0486 18.489 82.5546 18.489C83.0386 18.489 83.4602 18.5953 83.8196 18.808C84.1789 19.0207 84.4576 19.3213 84.6556 19.71C84.8536 20.0987 84.9526 20.557 84.9526 21.085C84.9526 21.4003 84.8132 21.558 84.5346 21.558H81.2896C81.3336 22.064 81.4766 22.438 81.7186 22.68C81.9606 22.9147 82.3126 23.032 82.7746 23.032C83.0092 23.032 83.2146 23.0027 83.3906 22.944C83.5739 22.8853 83.7792 22.8047 84.0066 22.702C84.2266 22.5847 84.3879 22.526 84.4906 22.526ZM82.5876 19.457C82.2136 19.457 81.9129 19.5743 81.6856 19.809C81.4656 20.0437 81.3336 20.381 81.2896 20.821H83.7756C83.7609 20.3737 83.6509 20.0363 83.4456 19.809C83.2402 19.5743 82.9542 19.457 82.5876 19.457ZM88.0243 24.088C87.225 24.088 86.5796 23.9303 86.0883 23.615C85.8536 23.4757 85.7363 23.2777 85.7363 23.021C85.7363 22.8743 85.7766 22.757 85.8573 22.669C85.938 22.5737 86.037 22.526 86.1543 22.526C86.279 22.526 86.4513 22.5847 86.6713 22.702C86.906 22.812 87.1186 22.8963 87.3093 22.955C87.5073 23.0137 87.7566 23.043 88.0573 23.043C88.3653 23.043 88.6036 22.9917 88.7723 22.889C88.9483 22.7863 89.0363 22.6433 89.0363 22.46C89.0363 22.3353 88.9996 22.2363 88.9263 22.163C88.8603 22.0897 88.7356 22.0237 88.5523 21.965C88.3763 21.899 88.105 21.8257 87.7383 21.745C87.0856 21.613 86.6163 21.426 86.3303 21.184C86.0516 20.942 85.9123 20.6083 85.9123 20.183C85.9123 19.8603 86.0076 19.5707 86.1983 19.314C86.389 19.05 86.6493 18.8483 86.9793 18.709C87.3166 18.5623 87.698 18.489 88.1233 18.489C88.4313 18.489 88.7283 18.5293 89.0143 18.61C89.3003 18.6833 89.557 18.7933 89.7843 18.94C90.019 19.0867 90.1363 19.281 90.1363 19.523C90.1363 19.6697 90.096 19.7943 90.0153 19.897C89.9346 19.9923 89.8356 20.04 89.7183 20.04C89.6376 20.04 89.557 20.0253 89.4763 19.996C89.403 19.9593 89.3076 19.908 89.1903 19.842C88.9776 19.732 88.7943 19.6513 88.6403 19.6C88.4863 19.5413 88.2956 19.512 88.0683 19.512C87.797 19.512 87.5806 19.567 87.4193 19.677C87.2653 19.787 87.1883 19.9373 87.1883 20.128C87.1883 20.3113 87.269 20.4507 87.4303 20.546C87.5916 20.6413 87.9033 20.7367 88.3653 20.832C88.8566 20.9347 89.2416 21.052 89.5203 21.184C89.799 21.316 89.997 21.481 90.1143 21.679C90.239 21.877 90.3013 22.13 90.3013 22.438C90.3013 22.9367 90.0923 23.3363 89.6743 23.637C89.2636 23.9377 88.7136 24.088 88.0243 24.088ZM93.3632 24.088C92.5638 24.088 91.9185 23.9303 91.4272 23.615C91.1925 23.4757 91.0752 23.2777 91.0752 23.021C91.0752 22.8743 91.1155 22.757 91.1962 22.669C91.2768 22.5737 91.3758 22.526 91.4932 22.526C91.6178 22.526 91.7902 22.5847 92.0102 22.702C92.2448 22.812 92.4575 22.8963 92.6482 22.955C92.8462 23.0137 93.0955 23.043 93.3962 23.043C93.7042 23.043 93.9425 22.9917 94.1112 22.889C94.2872 22.7863 94.3752 22.6433 94.3752 22.46C94.3752 22.3353 94.3385 22.2363 94.2652 22.163C94.1992 22.0897 94.0745 22.0237 93.8912 21.965C93.7152 21.899 93.4438 21.8257 93.0772 21.745C92.4245 21.613 91.9552 21.426 91.6692 21.184C91.3905 20.942 91.2512 20.6083 91.2512 20.183C91.2512 19.8603 91.3465 19.5707 91.5372 19.314C91.7278 19.05 91.9882 18.8483 92.3182 18.709C92.6555 18.5623 93.0368 18.489 93.4622 18.489C93.7702 18.489 94.0672 18.5293 94.3532 18.61C94.6392 18.6833 94.8958 18.7933 95.1232 18.94C95.3578 19.0867 95.4752 19.281 95.4752 19.523C95.4752 19.6697 95.4348 19.7943 95.3542 19.897C95.2735 19.9923 95.1745 20.04 95.0572 20.04C94.9765 20.04 94.8958 20.0253 94.8152 19.996C94.7418 19.9593 94.6465 19.908 94.5292 19.842C94.3165 19.732 94.1332 19.6513 93.9792 19.6C93.8252 19.5413 93.6345 19.512 93.4072 19.512C93.1358 19.512 92.9195 19.567 92.7582 19.677C92.6042 19.787 92.5272 19.9373 92.5272 20.128C92.5272 20.3113 92.6078 20.4507 92.7692 20.546C92.9305 20.6413 93.2422 20.7367 93.7042 20.832C94.1955 20.9347 94.5805 21.052 94.8592 21.184C95.1378 21.316 95.3358 21.481 95.4532 21.679C95.5778 21.877 95.6402 22.13 95.6402 22.438C95.6402 22.9367 95.4312 23.3363 95.0132 23.637C94.6025 23.9377 94.0525 24.088 93.3632 24.088ZM103.327 24.099C102.579 24.099 101.923 23.9377 101.358 23.615C100.801 23.2923 100.372 22.8303 100.071 22.229C99.7707 21.6277 99.6204 20.9237 99.6204 20.117C99.6204 19.3103 99.7707 18.61 100.071 18.016C100.372 17.4147 100.801 16.9527 101.358 16.63C101.923 16.3073 102.579 16.146 103.327 16.146C103.811 16.146 104.266 16.2193 104.691 16.366C105.117 16.5053 105.494 16.7107 105.824 16.982C105.92 17.0553 105.986 17.1323 106.022 17.213C106.059 17.2937 106.077 17.3927 106.077 17.51C106.077 17.6713 106.033 17.807 105.945 17.917C105.857 18.027 105.751 18.082 105.626 18.082C105.48 18.082 105.329 18.0307 105.175 17.928C104.86 17.6933 104.567 17.532 104.295 17.444C104.024 17.3487 103.723 17.301 103.393 17.301C102.631 17.301 102.051 17.5393 101.655 18.016C101.267 18.4927 101.072 19.193 101.072 20.117C101.072 21.0483 101.267 21.7523 101.655 22.229C102.051 22.7057 102.631 22.944 103.393 22.944C103.709 22.944 103.998 22.8963 104.262 22.801C104.534 22.7057 104.838 22.5443 105.175 22.317C105.249 22.273 105.322 22.2363 105.395 22.207C105.469 22.1777 105.546 22.163 105.626 22.163C105.751 22.163 105.857 22.218 105.945 22.328C106.033 22.438 106.077 22.5737 106.077 22.735C106.077 22.845 106.059 22.944 106.022 23.032C105.986 23.1127 105.92 23.1897 105.824 23.263C105.494 23.5343 105.117 23.7433 104.691 23.89C104.266 24.0293 103.811 24.099 103.327 24.099ZM111.346 22.526C111.471 22.526 111.57 22.5737 111.643 22.669C111.724 22.7643 111.764 22.8927 111.764 23.054C111.764 23.2813 111.628 23.472 111.357 23.626C111.108 23.7653 110.825 23.879 110.51 23.967C110.195 24.0477 109.894 24.088 109.608 24.088C108.743 24.088 108.057 23.8387 107.551 23.34C107.045 22.8413 106.792 22.1593 106.792 21.294C106.792 20.744 106.902 20.2563 107.122 19.831C107.342 19.4057 107.65 19.0757 108.046 18.841C108.449 18.6063 108.904 18.489 109.41 18.489C109.894 18.489 110.316 18.5953 110.675 18.808C111.034 19.0207 111.313 19.3213 111.511 19.71C111.709 20.0987 111.808 20.557 111.808 21.085C111.808 21.4003 111.669 21.558 111.39 21.558H108.145C108.189 22.064 108.332 22.438 108.574 22.68C108.816 22.9147 109.168 23.032 109.63 23.032C109.865 23.032 110.07 23.0027 110.246 22.944C110.429 22.8853 110.635 22.8047 110.862 22.702C111.082 22.5847 111.243 22.526 111.346 22.526ZM109.443 19.457C109.069 19.457 108.768 19.5743 108.541 19.809C108.321 20.0437 108.189 20.381 108.145 20.821H110.631C110.616 20.3737 110.506 20.0363 110.301 19.809C110.096 19.5743 109.81 19.457 109.443 19.457ZM116.057 18.489C116.702 18.489 117.182 18.6723 117.498 19.039C117.813 19.4057 117.971 19.9593 117.971 20.7V23.406C117.971 23.6113 117.908 23.7727 117.784 23.89C117.666 24.0073 117.501 24.066 117.289 24.066C117.076 24.066 116.907 24.0073 116.783 23.89C116.658 23.7727 116.596 23.6113 116.596 23.406V20.777C116.596 20.359 116.515 20.0547 116.354 19.864C116.2 19.6733 115.954 19.578 115.617 19.578C115.221 19.578 114.902 19.7027 114.66 19.952C114.425 20.2013 114.308 20.535 114.308 20.953V23.406C114.308 23.6113 114.245 23.7727 114.121 23.89C113.996 24.0073 113.827 24.066 113.615 24.066C113.402 24.066 113.233 24.0073 113.109 23.89C112.991 23.7727 112.933 23.6113 112.933 23.406V19.149C112.933 18.9583 112.995 18.8043 113.12 18.687C113.244 18.5697 113.413 18.511 113.626 18.511C113.816 18.511 113.97 18.5697 114.088 18.687C114.212 18.797 114.275 18.9437 114.275 19.127V19.424C114.458 19.1233 114.704 18.8923 115.012 18.731C115.32 18.5697 115.668 18.489 116.057 18.489ZM122.161 23.043C122.528 23.065 122.711 23.23 122.711 23.538C122.711 23.714 122.638 23.8497 122.491 23.945C122.352 24.033 122.15 24.0697 121.886 24.055L121.589 24.033C120.357 23.945 119.741 23.285 119.741 22.053V19.655H119.191C118.993 19.655 118.839 19.611 118.729 19.523C118.627 19.435 118.575 19.3067 118.575 19.138C118.575 18.9693 118.627 18.841 118.729 18.753C118.839 18.665 118.993 18.621 119.191 18.621H119.741V17.609C119.741 17.411 119.804 17.2533 119.928 17.136C120.053 17.0187 120.222 16.96 120.434 16.96C120.64 16.96 120.805 17.0187 120.929 17.136C121.054 17.2533 121.116 17.411 121.116 17.609V18.621H122.051C122.249 18.621 122.4 18.665 122.502 18.753C122.612 18.841 122.667 18.9693 122.667 19.138C122.667 19.3067 122.612 19.435 122.502 19.523C122.4 19.611 122.249 19.655 122.051 19.655H121.116V22.152C121.116 22.6947 121.366 22.9843 121.864 23.021L122.161 23.043ZM127.685 22.526C127.81 22.526 127.909 22.5737 127.982 22.669C128.063 22.7643 128.103 22.8927 128.103 23.054C128.103 23.2813 127.967 23.472 127.696 23.626C127.447 23.7653 127.164 23.879 126.849 23.967C126.534 24.0477 126.233 24.088 125.947 24.088C125.082 24.088 124.396 23.8387 123.89 23.34C123.384 22.8413 123.131 22.1593 123.131 21.294C123.131 20.744 123.241 20.2563 123.461 19.831C123.681 19.4057 123.989 19.0757 124.385 18.841C124.788 18.6063 125.243 18.489 125.749 18.489C126.233 18.489 126.655 18.5953 127.014 18.808C127.373 19.0207 127.652 19.3213 127.85 19.71C128.048 20.0987 128.147 20.557 128.147 21.085C128.147 21.4003 128.008 21.558 127.729 21.558H124.484C124.528 22.064 124.671 22.438 124.913 22.68C125.155 22.9147 125.507 23.032 125.969 23.032C126.204 23.032 126.409 23.0027 126.585 22.944C126.768 22.8853 126.974 22.8047 127.201 22.702C127.421 22.5847 127.582 22.526 127.685 22.526ZM125.782 19.457C125.408 19.457 125.107 19.5743 124.88 19.809C124.66 20.0437 124.528 20.381 124.484 20.821H126.97C126.955 20.3737 126.845 20.0363 126.64 19.809C126.435 19.5743 126.149 19.457 125.782 19.457ZM132.275 18.511C132.465 18.4963 132.616 18.5367 132.726 18.632C132.836 18.7273 132.891 18.8703 132.891 19.061C132.891 19.259 132.843 19.4057 132.748 19.501C132.652 19.5963 132.48 19.6587 132.231 19.688L131.901 19.721C131.468 19.765 131.149 19.9117 130.944 20.161C130.746 20.4103 130.647 20.722 130.647 21.096V23.406C130.647 23.6187 130.581 23.7837 130.449 23.901C130.317 24.011 130.152 24.066 129.954 24.066C129.756 24.066 129.591 24.011 129.459 23.901C129.334 23.7837 129.272 23.6187 129.272 23.406V19.149C129.272 18.9437 129.334 18.786 129.459 18.676C129.591 18.566 129.752 18.511 129.943 18.511C130.133 18.511 130.287 18.566 130.405 18.676C130.522 18.7787 130.581 18.929 130.581 19.127V19.567C130.72 19.2443 130.925 18.995 131.197 18.819C131.475 18.643 131.783 18.544 132.121 18.522L132.275 18.511Z" fill="#30A3C7"/>
<path d="M129.57 60.205V57.365H130.554C130.719 57.3609 130.883 57.3915 131.036 57.455C131.162 57.5073 131.271 57.5939 131.35 57.705C131.426 57.8198 131.465 57.9552 131.462 58.093C131.464 58.2194 131.432 58.344 131.368 58.453C131.303 58.5587 131.21 58.6435 131.098 58.697C131.242 58.7446 131.367 58.838 131.454 58.963C131.542 59.0932 131.587 59.2479 131.582 59.405C131.585 59.5558 131.542 59.7039 131.458 59.829C131.37 59.9534 131.249 60.0504 131.108 60.109C130.939 60.1792 130.757 60.2133 130.574 60.209L129.57 60.205ZM130.042 57.781V58.533H130.51C130.633 58.5399 130.754 58.5046 130.854 58.433C130.894 58.399 130.926 58.356 130.947 58.3073C130.968 58.2587 130.977 58.2058 130.974 58.153C130.976 58.1007 130.967 58.0485 130.946 58.0006C130.924 57.9527 130.892 57.9104 130.852 57.877C130.753 57.8048 130.632 57.7694 130.51 57.777L130.042 57.781ZM130.042 59.789H130.554C130.696 59.7989 130.838 59.7585 130.954 59.675C130.999 59.6368 131.035 59.5885 131.059 59.534C131.083 59.4795 131.093 59.4203 131.09 59.361C131.093 59.3004 131.082 59.2399 131.058 59.1843C131.034 59.1287 130.997 59.0796 130.95 59.041C130.833 58.9588 130.692 58.9192 130.55 58.929H130.042V59.789ZM132.978 60.265C132.833 60.2664 132.69 60.2385 132.556 60.183C132.429 60.1297 132.313 60.0507 132.218 59.951C132.119 59.8498 132.042 59.7302 131.99 59.599C131.935 59.4581 131.908 59.3081 131.91 59.157C131.908 59.0072 131.936 58.8586 131.99 58.719C132.041 58.5878 132.118 58.4681 132.216 58.367C132.313 58.2669 132.431 58.1879 132.56 58.135C132.696 58.0795 132.843 58.0516 132.99 58.053C133.135 58.0516 133.278 58.0795 133.412 58.135C133.539 58.1883 133.654 58.2673 133.75 58.367C133.847 58.468 133.923 58.5869 133.974 58.717C134.028 58.8572 134.056 59.0066 134.054 59.157C134.056 59.3081 134.028 59.4581 133.974 59.599C133.923 59.7302 133.846 59.8499 133.748 59.951C133.65 60.0511 133.533 60.1301 133.404 60.183C133.269 60.238 133.124 60.2659 132.978 60.265ZM132.99 59.849C133.097 59.8489 133.201 59.8177 133.29 59.759C133.382 59.6975 133.456 59.6126 133.504 59.513C133.56 59.4028 133.59 59.2808 133.59 59.157C133.591 59.0348 133.563 58.9142 133.508 58.805C133.459 58.705 133.383 58.62 133.29 58.559C133.199 58.4988 133.091 58.4675 132.982 58.469C132.873 58.4675 132.765 58.4988 132.674 58.559C132.582 58.62 132.508 58.7042 132.46 58.803C132.406 58.9132 132.379 59.0345 132.382 59.157C132.38 59.2801 132.406 59.4021 132.46 59.513C132.508 59.6126 132.582 59.6975 132.674 59.759C132.767 59.8207 132.878 59.8522 132.99 59.849ZM135.454 60.265C135.309 60.2664 135.166 60.2385 135.032 60.183C134.903 60.1301 134.787 60.0511 134.69 59.951C134.594 59.8491 134.52 59.7295 134.47 59.599C134.415 59.4581 134.388 59.3081 134.39 59.157C134.388 59.0072 134.416 58.8586 134.47 58.719C134.521 58.5878 134.598 58.4681 134.696 58.367C134.793 58.2669 134.911 58.1879 135.04 58.135C135.176 58.0795 135.323 58.0516 135.47 58.053C135.614 58.0519 135.757 58.0797 135.89 58.135C136.017 58.1883 136.132 58.2673 136.228 58.367C136.325 58.468 136.401 58.5869 136.452 58.717C136.506 58.8572 136.534 59.0066 136.532 59.157C136.534 59.3081 136.506 59.4581 136.452 59.599C136.401 59.7302 136.324 59.8499 136.226 59.951C136.128 60.0511 136.011 60.1301 135.882 60.183C135.746 60.2383 135.601 60.2661 135.454 60.265ZM135.462 59.849C135.571 59.8505 135.679 59.8192 135.77 59.759C135.862 59.6975 135.936 59.6126 135.984 59.513C136.037 59.4021 136.064 59.2801 136.062 59.157C136.064 59.0352 136.037 58.9145 135.984 58.805C135.935 58.7062 135.861 58.622 135.77 58.561C135.679 58.5008 135.571 58.4695 135.462 58.471C135.353 58.4695 135.245 58.5008 135.154 58.561C135.062 58.622 134.988 58.7062 134.94 58.805C134.886 58.9152 134.859 59.0365 134.862 59.159C134.86 59.2821 134.886 59.4041 134.94 59.515C134.988 59.6146 135.062 59.6995 135.154 59.761C135.245 59.8205 135.353 59.8511 135.462 59.849ZM136.938 60.205V57.229H137.398V58.977L138.254 58.113H138.814L137.874 59.041L138.91 60.205H138.31L137.398 59.149V60.205H136.938Z" fill="#5680E9"/>
<path d="M40.479 47.459C40.7637 47.5383 40.983 47.6807 41.137 47.886C41.2957 48.0913 41.375 48.348 41.375 48.656C41.375 49.0807 41.228 49.412 40.934 49.65C40.6447 49.8833 40.2387 50 39.716 50H37.931C37.819 50 37.7303 49.9697 37.665 49.909C37.6043 49.8437 37.574 49.7573 37.574 49.65V45.415C37.574 45.3077 37.6043 45.2237 37.665 45.163C37.7303 45.0977 37.819 45.065 37.931 45.065H39.639C40.1477 45.065 40.5443 45.1793 40.829 45.408C41.1183 45.632 41.263 45.947 41.263 46.353C41.263 46.6143 41.193 46.8407 41.053 47.032C40.9177 47.2233 40.7263 47.3657 40.479 47.459ZM38.281 47.2H39.527C40.2177 47.2 40.563 46.9387 40.563 46.416C40.563 46.1547 40.4767 45.961 40.304 45.835C40.136 45.709 39.877 45.646 39.527 45.646H38.281V47.2ZM39.639 49.419C39.9983 49.419 40.262 49.3537 40.43 49.223C40.598 49.0923 40.682 48.8893 40.682 48.614C40.682 48.334 40.5957 48.1263 40.423 47.991C40.255 47.851 39.9937 47.781 39.639 47.781H38.281V49.419H39.639ZM44.8801 46.514C44.9875 46.514 45.0715 46.5443 45.1321 46.605C45.1975 46.6657 45.2301 46.7497 45.2301 46.857V49.706C45.2301 49.804 45.1975 49.8833 45.1321 49.944C45.0668 50.0047 44.9805 50.035 44.8731 50.035C44.7751 50.035 44.6958 50.007 44.6351 49.951C44.5745 49.8903 44.5441 49.811 44.5441 49.713V49.447C44.4368 49.643 44.2875 49.7923 44.0961 49.895C43.9095 49.9977 43.6995 50.049 43.4661 50.049C42.6355 50.049 42.2201 49.5917 42.2201 48.677V46.857C42.2201 46.7497 42.2505 46.6657 42.3111 46.605C42.3765 46.5443 42.4651 46.514 42.5771 46.514C42.6845 46.514 42.7685 46.5443 42.8291 46.605C42.8945 46.6657 42.9271 46.7497 42.9271 46.857V48.67C42.9271 48.9453 42.9831 49.1483 43.0951 49.279C43.2071 49.4097 43.3798 49.475 43.6131 49.475C43.8885 49.475 44.1078 49.3863 44.2711 49.209C44.4391 49.0317 44.5231 48.796 44.5231 48.502V46.857C44.5231 46.7543 44.5558 46.6727 44.6211 46.612C44.6865 46.5467 44.7728 46.514 44.8801 46.514ZM48.7465 49.454C48.8492 49.454 48.9262 49.4797 48.9775 49.531C49.0335 49.5777 49.0615 49.643 49.0615 49.727C49.0615 49.811 49.0335 49.8787 48.9775 49.93C48.9262 49.9767 48.8492 50 48.7465 50H46.3525C46.2498 50 46.1682 49.972 46.1075 49.916C46.0468 49.8553 46.0165 49.7807 46.0165 49.692C46.0165 49.6033 46.0515 49.517 46.1215 49.433L48.0675 47.13H46.3105C46.2125 47.13 46.1355 47.1067 46.0795 47.06C46.0282 47.0087 46.0025 46.941 46.0025 46.857C46.0025 46.773 46.0282 46.7077 46.0795 46.661C46.1355 46.6097 46.2125 46.584 46.3105 46.584H48.6345C48.7325 46.584 48.8118 46.6143 48.8725 46.675C48.9378 46.7357 48.9705 46.808 48.9705 46.892C48.9705 46.9807 48.9355 47.067 48.8655 47.151L46.9195 49.454H48.7465ZM52.2875 49.454C52.3902 49.454 52.4672 49.4797 52.5185 49.531C52.5745 49.5777 52.6025 49.643 52.6025 49.727C52.6025 49.811 52.5745 49.8787 52.5185 49.93C52.4672 49.9767 52.3902 50 52.2875 50H49.8935C49.7908 50 49.7092 49.972 49.6485 49.916C49.5878 49.8553 49.5575 49.7807 49.5575 49.692C49.5575 49.6033 49.5925 49.517 49.6625 49.433L51.6085 47.13H49.8515C49.7535 47.13 49.6765 47.1067 49.6205 47.06C49.5692 47.0087 49.5435 46.941 49.5435 46.857C49.5435 46.773 49.5692 46.7077 49.6205 46.661C49.6765 46.6097 49.7535 46.584 49.8515 46.584H52.1755C52.2735 46.584 52.3528 46.6143 52.4135 46.675C52.4788 46.7357 52.5115 46.808 52.5115 46.892C52.5115 46.9807 52.4765 47.067 52.4065 47.151L50.4605 49.454H52.2875ZM56.6102 50.049C56.2789 50.049 55.9872 49.9767 55.7352 49.832C55.4879 49.6873 55.2942 49.482 55.1542 49.216C55.0189 48.95 54.9512 48.642 54.9512 48.292C54.9512 47.9373 55.0212 47.6247 55.1612 47.354C55.3059 47.0833 55.5066 46.8733 55.7632 46.724C56.0199 46.5747 56.3139 46.5 56.6452 46.5C56.8226 46.5 56.9999 46.5257 57.1772 46.577C57.3592 46.6283 57.5202 46.6983 57.6602 46.787C57.8096 46.8897 57.8842 47.0087 57.8842 47.144C57.8842 47.2233 57.8632 47.291 57.8212 47.347C57.7792 47.3983 57.7256 47.424 57.6602 47.424C57.6182 47.424 57.5762 47.4147 57.5342 47.396C57.4922 47.3727 57.4386 47.34 57.3732 47.298C57.2566 47.2233 57.1469 47.1673 57.0442 47.13C56.9462 47.088 56.8272 47.067 56.6872 47.067C56.3699 47.067 56.1226 47.1743 55.9452 47.389C55.7726 47.6037 55.6862 47.9023 55.6862 48.285C55.6862 48.6677 55.7726 48.964 55.9452 49.174C56.1179 49.3793 56.3629 49.482 56.6802 49.482C56.8202 49.482 56.9439 49.461 57.0512 49.419C57.1586 49.377 57.2682 49.321 57.3802 49.251C57.4316 49.2183 57.4829 49.1903 57.5342 49.167C57.5856 49.1437 57.6322 49.132 57.6742 49.132C57.7396 49.132 57.7932 49.16 57.8352 49.216C57.8772 49.2673 57.8982 49.3327 57.8982 49.412C57.8982 49.4773 57.8796 49.538 57.8422 49.594C57.8096 49.6453 57.7512 49.699 57.6672 49.755C57.5272 49.8483 57.3639 49.9207 57.1772 49.972C56.9906 50.0233 56.8016 50.049 56.6102 50.049ZM61.177 46.514C61.2843 46.514 61.3683 46.5443 61.429 46.605C61.4943 46.6657 61.527 46.7497 61.527 46.857V49.706C61.527 49.804 61.4943 49.8833 61.429 49.944C61.3637 50.0047 61.2773 50.035 61.17 50.035C61.072 50.035 60.9927 50.007 60.932 49.951C60.8713 49.8903 60.841 49.811 60.841 49.713V49.447C60.7337 49.643 60.5843 49.7923 60.393 49.895C60.2063 49.9977 59.9963 50.049 59.763 50.049C58.9323 50.049 58.517 49.5917 58.517 48.677V46.857C58.517 46.7497 58.5473 46.6657 58.608 46.605C58.6733 46.5443 58.762 46.514 58.874 46.514C58.9813 46.514 59.0653 46.5443 59.126 46.605C59.1913 46.6657 59.224 46.7497 59.224 46.857V48.67C59.224 48.9453 59.28 49.1483 59.392 49.279C59.504 49.4097 59.6767 49.475 59.91 49.475C60.1853 49.475 60.4047 49.3863 60.568 49.209C60.736 49.0317 60.82 48.796 60.82 48.502V46.857C60.82 46.7543 60.8527 46.6727 60.918 46.612C60.9833 46.5467 61.0697 46.514 61.177 46.514ZM64.1894 49.496C64.292 49.5053 64.3644 49.5333 64.4064 49.58C64.453 49.622 64.4764 49.6827 64.4764 49.762C64.4764 49.8553 64.439 49.9277 64.3644 49.979C64.2944 50.0257 64.1894 50.0443 64.0494 50.035L63.8604 50.021C63.4824 49.993 63.2 49.8787 63.0134 49.678C62.8267 49.4727 62.7334 49.1717 62.7334 48.775V47.13H62.3134C62.108 47.13 62.0054 47.039 62.0054 46.857C62.0054 46.773 62.031 46.7077 62.0824 46.661C62.1384 46.6097 62.2154 46.584 62.3134 46.584H62.7334V45.863C62.7334 45.7557 62.7637 45.6717 62.8244 45.611C62.8897 45.5503 62.976 45.52 63.0834 45.52C63.1907 45.52 63.277 45.5503 63.3424 45.611C63.4077 45.6717 63.4404 45.7557 63.4404 45.863V46.584H64.1334C64.2314 46.584 64.306 46.6097 64.3574 46.661C64.4134 46.7077 64.4414 46.773 64.4414 46.857C64.4414 46.9457 64.4134 47.0133 64.3574 47.06C64.306 47.1067 64.2314 47.13 64.1334 47.13H63.4404V48.824C63.4404 49.0433 63.4847 49.2043 63.5734 49.307C63.6667 49.4097 63.8067 49.468 63.9934 49.482L64.1894 49.496Z" fill="#B8C0CC"/>
<path d="M39.723 86.056C39.2517 86.056 38.841 85.9557 38.491 85.755C38.141 85.5497 37.8727 85.258 37.686 84.88C37.4993 84.4973 37.406 84.047 37.406 83.529C37.406 83.0157 37.4993 82.57 37.686 82.192C37.8727 81.8093 38.141 81.5177 38.491 81.317C38.841 81.1117 39.2517 81.009 39.723 81.009C40.031 81.009 40.3227 81.058 40.598 81.156C40.8733 81.2493 41.1137 81.387 41.319 81.569C41.4077 81.639 41.452 81.7323 41.452 81.849C41.452 81.933 41.4287 82.0053 41.382 82.066C41.3353 82.122 41.2793 82.15 41.214 82.15C41.1347 82.15 41.0577 82.1197 40.983 82.059C40.759 81.891 40.5537 81.7743 40.367 81.709C40.185 81.639 39.9773 81.604 39.744 81.604C39.2307 81.604 38.8363 81.7697 38.561 82.101C38.2857 82.4323 38.148 82.9083 38.148 83.529C38.148 84.1543 38.2857 84.6327 38.561 84.964C38.8363 85.2953 39.2307 85.461 39.744 85.461C39.968 85.461 40.171 85.426 40.353 85.356C40.5397 85.286 40.7497 85.1693 40.983 85.006C41.0763 84.9453 41.1533 84.915 41.214 84.915C41.2793 84.915 41.3353 84.9453 41.382 85.006C41.4287 85.062 41.452 85.132 41.452 85.216C41.452 85.3327 41.4077 85.426 41.319 85.496C41.1137 85.678 40.8733 85.818 40.598 85.916C40.3227 86.0093 40.031 86.056 39.723 86.056ZM43.5939 82.5C44.0466 82.5 44.3826 82.6143 44.6019 82.843C44.8259 83.0717 44.9379 83.4193 44.9379 83.886V85.699C44.9379 85.8063 44.9076 85.8903 44.8469 85.951C44.7863 86.007 44.7023 86.035 44.5949 86.035C44.4923 86.035 44.4106 86.0047 44.3499 85.944C44.2893 85.8833 44.2589 85.8017 44.2589 85.699V85.44C44.1703 85.636 44.0373 85.7877 43.8599 85.895C43.6873 85.9977 43.4843 86.049 43.2509 86.049C43.0269 86.049 42.8216 86.0047 42.6349 85.916C42.4483 85.8227 42.3013 85.6943 42.1939 85.531C42.0913 85.3677 42.0399 85.1857 42.0399 84.985C42.0399 84.7377 42.1029 84.544 42.2289 84.404C42.3596 84.2593 42.5719 84.1567 42.8659 84.096C43.1646 84.0353 43.5729 84.005 44.0909 84.005H44.2519V83.802C44.2519 83.5407 44.1983 83.3517 44.0909 83.235C43.9836 83.1183 43.8109 83.06 43.5729 83.06C43.4096 83.06 43.2556 83.081 43.1109 83.123C42.9663 83.165 42.8076 83.2257 42.6349 83.305C42.5089 83.375 42.4203 83.41 42.3689 83.41C42.2989 83.41 42.2406 83.3843 42.1939 83.333C42.1519 83.2817 42.1309 83.2163 42.1309 83.137C42.1309 83.067 42.1496 83.0063 42.1869 82.955C42.2289 82.899 42.2943 82.8453 42.3829 82.794C42.5463 82.7053 42.7376 82.6353 42.9569 82.584C43.1763 82.528 43.3886 82.5 43.5939 82.5ZM43.3769 85.524C43.6336 85.524 43.8436 85.4377 44.0069 85.265C44.1703 85.0877 44.2519 84.8613 44.2519 84.586V84.404H44.1259C43.7619 84.404 43.4819 84.4203 43.2859 84.453C43.0899 84.4857 42.9499 84.5417 42.8659 84.621C42.7819 84.6957 42.7399 84.8053 42.7399 84.95C42.7399 85.118 42.8006 85.2557 42.9219 85.363C43.0433 85.4703 43.1949 85.524 43.3769 85.524ZM47.697 82.514C47.921 82.5 48.033 82.5957 48.033 82.801C48.033 82.9037 48.0074 82.9807 47.956 83.032C47.9047 83.0833 47.816 83.1137 47.69 83.123L47.48 83.144C47.186 83.172 46.9667 83.2747 46.822 83.452C46.682 83.6293 46.612 83.844 46.612 84.096V85.699C46.612 85.811 46.5794 85.895 46.514 85.951C46.4487 86.007 46.3647 86.035 46.262 86.035C46.1594 86.035 46.073 86.007 46.003 85.951C45.9377 85.895 45.905 85.811 45.905 85.699V82.85C45.905 82.7427 45.9377 82.661 46.003 82.605C46.073 82.5443 46.1594 82.514 46.262 82.514C46.3554 82.514 46.4324 82.5443 46.493 82.605C46.5584 82.661 46.591 82.7403 46.591 82.843V83.179C46.6844 82.9737 46.8197 82.8173 46.997 82.71C47.1744 82.6027 47.375 82.5397 47.599 82.521L47.697 82.514ZM51.1932 81.03C51.3005 81.03 51.3868 81.0603 51.4522 81.121C51.5175 81.1817 51.5502 81.2633 51.5502 81.366V85.692C51.5502 85.7993 51.5175 85.8833 51.4522 85.944C51.3915 86.0047 51.3075 86.035 51.2002 86.035C51.0928 86.035 51.0065 86.0047 50.9412 85.944C50.8805 85.8833 50.8502 85.7993 50.8502 85.692V85.412C50.7475 85.6173 50.5982 85.776 50.4022 85.888C50.2062 85.9953 49.9798 86.049 49.7232 86.049C49.4292 86.049 49.1655 85.9743 48.9322 85.825C48.7035 85.6757 48.5238 85.4657 48.3932 85.195C48.2672 84.9243 48.2042 84.614 48.2042 84.264C48.2042 83.9093 48.2672 83.599 48.3932 83.333C48.5238 83.067 48.7035 82.8617 48.9322 82.717C49.1608 82.5723 49.4245 82.5 49.7232 82.5C49.9798 82.5 50.2038 82.556 50.3952 82.668C50.5912 82.7753 50.7405 82.9293 50.8432 83.13V81.352C50.8432 81.254 50.8735 81.177 50.9342 81.121C50.9995 81.0603 51.0858 81.03 51.1932 81.03ZM49.8912 85.489C50.1945 85.489 50.4302 85.384 50.5982 85.174C50.7662 84.964 50.8502 84.6653 50.8502 84.278C50.8502 83.8907 50.7662 83.592 50.5982 83.382C50.4348 83.172 50.1992 83.067 49.8912 83.067C49.5832 83.067 49.3428 83.172 49.1702 83.382C49.0022 83.5873 48.9182 83.8813 48.9182 84.264C48.9182 84.6467 49.0045 84.9477 49.1772 85.167C49.3498 85.3817 49.5878 85.489 49.8912 85.489ZM52.8929 86.035C52.7902 86.035 52.7039 86.007 52.6339 85.951C52.5686 85.895 52.5359 85.811 52.5359 85.699V82.857C52.5359 82.745 52.5686 82.661 52.6339 82.605C52.7039 82.5443 52.7902 82.514 52.8929 82.514C52.9956 82.514 53.0796 82.5443 53.1449 82.605C53.2102 82.661 53.2429 82.745 53.2429 82.857V85.699C53.2429 85.811 53.2102 85.895 53.1449 85.951C53.0796 86.007 52.9956 86.035 52.8929 86.035ZM52.8929 81.828C52.7576 81.828 52.6502 81.7907 52.5709 81.716C52.4916 81.6413 52.4519 81.5433 52.4519 81.422C52.4519 81.3007 52.4916 81.205 52.5709 81.135C52.6502 81.0603 52.7576 81.023 52.8929 81.023C53.0236 81.023 53.1286 81.0603 53.2079 81.135C53.2919 81.205 53.3339 81.3007 53.3339 81.422C53.3339 81.5433 53.2942 81.6413 53.2149 81.716C53.1356 81.7907 53.0282 81.828 52.8929 81.828ZM55.7152 86.049C55.3792 86.049 55.0829 85.9767 54.8262 85.832C54.5742 85.6873 54.3782 85.482 54.2382 85.216C54.1029 84.9453 54.0352 84.6327 54.0352 84.278C54.0352 83.9187 54.1029 83.606 54.2382 83.34C54.3782 83.0693 54.5742 82.8617 54.8262 82.717C55.0829 82.5723 55.3792 82.5 55.7152 82.5C56.0512 82.5 56.3452 82.5723 56.5972 82.717C56.8539 82.8617 57.0499 83.0693 57.1852 83.34C57.3252 83.606 57.3952 83.9187 57.3952 84.278C57.3952 84.6327 57.3252 84.9453 57.1852 85.216C57.0499 85.482 56.8539 85.6873 56.5972 85.832C56.3452 85.9767 56.0512 86.049 55.7152 86.049ZM55.7152 85.489C56.0279 85.489 56.2659 85.3863 56.4292 85.181C56.5972 84.9757 56.6812 84.6747 56.6812 84.278C56.6812 83.886 56.5972 83.5873 56.4292 83.382C56.2612 83.172 56.0232 83.067 55.7152 83.067C55.4072 83.067 55.1692 83.172 55.0012 83.382C54.8332 83.5873 54.7492 83.886 54.7492 84.278C54.7492 84.6747 54.8309 84.9757 54.9942 85.181C55.1622 85.3863 55.4025 85.489 55.7152 85.489Z" fill="#B8C0CC"/>
<path d="M37.931 120C37.819 120 37.7303 119.97 37.665 119.909C37.6043 119.844 37.574 119.757 37.574 119.65V115.415C37.574 115.308 37.6043 115.224 37.665 115.163C37.7303 115.098 37.819 115.065 37.931 115.065H39.303C40.101 115.065 40.7193 115.28 41.158 115.709C41.5967 116.138 41.816 116.745 41.816 117.529C41.816 118.313 41.5967 118.922 41.158 119.356C40.7193 119.785 40.101 120 39.303 120H37.931ZM39.261 119.398C40.4743 119.398 41.081 118.775 41.081 117.529C41.081 116.288 40.4743 115.667 39.261 115.667H38.295V119.398H39.261ZM44.1477 116.5C44.6003 116.5 44.9363 116.614 45.1557 116.843C45.3797 117.072 45.4917 117.419 45.4917 117.886V119.699C45.4917 119.806 45.4613 119.89 45.4007 119.951C45.34 120.007 45.256 120.035 45.1487 120.035C45.046 120.035 44.9643 120.005 44.9037 119.944C44.843 119.883 44.8127 119.802 44.8127 119.699V119.44C44.724 119.636 44.591 119.788 44.4137 119.895C44.241 119.998 44.038 120.049 43.8047 120.049C43.5807 120.049 43.3753 120.005 43.1887 119.916C43.002 119.823 42.855 119.694 42.7477 119.531C42.645 119.368 42.5937 119.186 42.5937 118.985C42.5937 118.738 42.6567 118.544 42.7827 118.404C42.9133 118.259 43.1257 118.157 43.4197 118.096C43.7183 118.035 44.1267 118.005 44.6447 118.005H44.8057V117.802C44.8057 117.541 44.752 117.352 44.6447 117.235C44.5373 117.118 44.3647 117.06 44.1267 117.06C43.9633 117.06 43.8093 117.081 43.6647 117.123C43.52 117.165 43.3613 117.226 43.1887 117.305C43.0627 117.375 42.974 117.41 42.9227 117.41C42.8527 117.41 42.7943 117.384 42.7477 117.333C42.7057 117.282 42.6847 117.216 42.6847 117.137C42.6847 117.067 42.7033 117.006 42.7407 116.955C42.7827 116.899 42.848 116.845 42.9367 116.794C43.1 116.705 43.2913 116.635 43.5107 116.584C43.73 116.528 43.9423 116.5 44.1477 116.5ZM43.9307 119.524C44.1873 119.524 44.3973 119.438 44.5607 119.265C44.724 119.088 44.8057 118.861 44.8057 118.586V118.404H44.6797C44.3157 118.404 44.0357 118.42 43.8397 118.453C43.6437 118.486 43.5037 118.542 43.4197 118.621C43.3357 118.696 43.2937 118.805 43.2937 118.95C43.2937 119.118 43.3543 119.256 43.4757 119.363C43.597 119.47 43.7487 119.524 43.9307 119.524ZM48.2998 116.5C49.1164 116.5 49.5248 116.96 49.5248 117.879V119.699C49.5248 119.806 49.4921 119.89 49.4268 119.951C49.3661 120.007 49.2798 120.035 49.1678 120.035C49.0604 120.035 48.9741 120.005 48.9088 119.944C48.8481 119.883 48.8178 119.802 48.8178 119.699V117.914C48.8178 117.625 48.7594 117.412 48.6428 117.277C48.5308 117.142 48.3534 117.074 48.1108 117.074C47.8261 117.074 47.5974 117.163 47.4248 117.34C47.2521 117.517 47.1658 117.755 47.1658 118.054V119.699C47.1658 119.802 47.1331 119.883 47.0678 119.944C47.0071 120.005 46.9231 120.035 46.8158 120.035C46.7084 120.035 46.6221 120.005 46.5568 119.944C46.4914 119.883 46.4588 119.802 46.4588 119.699V116.85C46.4588 116.752 46.4914 116.673 46.5568 116.612C46.6268 116.547 46.7131 116.514 46.8158 116.514C46.9184 116.514 47.0001 116.544 47.0608 116.605C47.1214 116.666 47.1518 116.745 47.1518 116.843V117.13C47.2638 116.925 47.4201 116.768 47.6208 116.661C47.8214 116.554 48.0478 116.5 48.2998 116.5ZM51.955 120.049C51.6236 120.049 51.332 119.977 51.08 119.832C50.8326 119.687 50.639 119.482 50.499 119.216C50.3636 118.95 50.296 118.642 50.296 118.292C50.296 117.937 50.366 117.625 50.506 117.354C50.6506 117.083 50.8513 116.873 51.108 116.724C51.3646 116.575 51.6586 116.5 51.99 116.5C52.1673 116.5 52.3446 116.526 52.522 116.577C52.704 116.628 52.865 116.698 53.005 116.787C53.1543 116.89 53.229 117.009 53.229 117.144C53.229 117.223 53.208 117.291 53.166 117.347C53.124 117.398 53.0703 117.424 53.005 117.424C52.963 117.424 52.921 117.415 52.879 117.396C52.837 117.373 52.7833 117.34 52.718 117.298C52.6013 117.223 52.4916 117.167 52.389 117.13C52.291 117.088 52.172 117.067 52.032 117.067C51.7146 117.067 51.4673 117.174 51.29 117.389C51.1173 117.604 51.031 117.902 51.031 118.285C51.031 118.668 51.1173 118.964 51.29 119.174C51.4626 119.379 51.7076 119.482 52.025 119.482C52.165 119.482 52.2886 119.461 52.396 119.419C52.5033 119.377 52.613 119.321 52.725 119.251C52.7763 119.218 52.8276 119.19 52.879 119.167C52.9303 119.144 52.977 119.132 53.019 119.132C53.0843 119.132 53.138 119.16 53.18 119.216C53.222 119.267 53.243 119.333 53.243 119.412C53.243 119.477 53.2243 119.538 53.187 119.594C53.1543 119.645 53.096 119.699 53.012 119.755C52.872 119.848 52.7086 119.921 52.522 119.972C52.3353 120.023 52.1463 120.049 51.955 120.049ZM56.5497 119.139C56.6151 119.139 56.6687 119.165 56.7107 119.216C56.7527 119.267 56.7737 119.333 56.7737 119.412C56.7737 119.547 56.6897 119.662 56.5217 119.755C56.3584 119.848 56.1787 119.921 55.9827 119.972C55.7914 120.023 55.6071 120.049 55.4297 120.049C54.8884 120.049 54.4614 119.893 54.1487 119.58C53.8361 119.263 53.6797 118.831 53.6797 118.285C53.6797 117.935 53.7474 117.625 53.8827 117.354C54.0227 117.083 54.2164 116.873 54.4637 116.724C54.7157 116.575 55.0004 116.5 55.3177 116.5C55.7751 116.5 56.1367 116.647 56.4027 116.941C56.6687 117.235 56.8017 117.632 56.8017 118.131C56.8017 118.318 56.7177 118.411 56.5497 118.411H54.3867C54.4334 119.134 54.7811 119.496 55.4297 119.496C55.6024 119.496 55.7517 119.473 55.8777 119.426C56.0037 119.379 56.1367 119.319 56.2767 119.244C56.2907 119.235 56.3281 119.216 56.3887 119.188C56.4541 119.155 56.5077 119.139 56.5497 119.139ZM55.3317 117.018C55.0611 117.018 54.8441 117.104 54.6807 117.277C54.5174 117.45 54.4194 117.692 54.3867 118.005H56.1927C56.1787 117.688 56.0971 117.445 55.9477 117.277C55.8031 117.104 55.5977 117.018 55.3317 117.018ZM59.8675 120.035C59.7602 120.035 59.6739 120.002 59.6085 119.937C59.5432 119.867 59.5105 119.778 59.5105 119.671V115.415C59.5105 115.308 59.5409 115.224 59.6015 115.163C59.6669 115.098 59.7555 115.065 59.8675 115.065H62.3735C62.5975 115.065 62.7095 115.163 62.7095 115.359C62.7095 115.555 62.5975 115.653 62.3735 115.653H60.2245V117.2H62.2335C62.4575 117.2 62.5695 117.298 62.5695 117.494C62.5695 117.69 62.4575 117.788 62.2335 117.788H60.2245V119.671C60.2245 119.783 60.1919 119.872 60.1265 119.937C60.0659 120.002 59.9795 120.035 59.8675 120.035ZM63.7074 120.035C63.6047 120.035 63.5184 120.007 63.4484 119.951C63.383 119.895 63.3504 119.811 63.3504 119.699V116.857C63.3504 116.745 63.383 116.661 63.4484 116.605C63.5184 116.544 63.6047 116.514 63.7074 116.514C63.81 116.514 63.894 116.544 63.9594 116.605C64.0247 116.661 64.0574 116.745 64.0574 116.857V119.699C64.0574 119.811 64.0247 119.895 63.9594 119.951C63.894 120.007 63.81 120.035 63.7074 120.035ZM63.7074 115.828C63.572 115.828 63.4647 115.791 63.3854 115.716C63.306 115.641 63.2664 115.543 63.2664 115.422C63.2664 115.301 63.306 115.205 63.3854 115.135C63.4647 115.06 63.572 115.023 63.7074 115.023C63.838 115.023 63.943 115.06 64.0224 115.135C64.1064 115.205 64.1484 115.301 64.1484 115.422C64.1484 115.543 64.1087 115.641 64.0294 115.716C63.95 115.791 63.8427 115.828 63.7074 115.828ZM66.7187 119.496C66.8213 119.505 66.8937 119.533 66.9357 119.58C66.9823 119.622 67.0057 119.683 67.0057 119.762C67.0057 119.855 66.9683 119.928 66.8937 119.979C66.8237 120.026 66.7187 120.044 66.5787 120.035L66.3897 120.021C66.0117 119.993 65.7293 119.879 65.5427 119.678C65.356 119.473 65.2627 119.172 65.2627 118.775V117.13H64.8427C64.6373 117.13 64.5347 117.039 64.5347 116.857C64.5347 116.773 64.5603 116.708 64.6117 116.661C64.6677 116.61 64.7447 116.584 64.8427 116.584H65.2627V115.863C65.2627 115.756 65.293 115.672 65.3537 115.611C65.419 115.55 65.5053 115.52 65.6127 115.52C65.72 115.52 65.8063 115.55 65.8717 115.611C65.937 115.672 65.9697 115.756 65.9697 115.863V116.584H66.6627C66.7607 116.584 66.8353 116.61 66.8867 116.661C66.9427 116.708 66.9707 116.773 66.9707 116.857C66.9707 116.946 66.9427 117.013 66.8867 117.06C66.8353 117.107 66.7607 117.13 66.6627 117.13H65.9697V118.824C65.9697 119.043 66.014 119.204 66.1027 119.307C66.196 119.41 66.336 119.468 66.5227 119.482L66.7187 119.496ZM69.3544 116.5C70.1711 116.5 70.5794 116.96 70.5794 117.879V119.699C70.5794 119.806 70.5468 119.89 70.4814 119.951C70.4208 120.007 70.3344 120.035 70.2224 120.035C70.1151 120.035 70.0288 120.005 69.9634 119.944C69.9028 119.883 69.8724 119.802 69.8724 119.699V117.914C69.8724 117.625 69.8141 117.412 69.6974 117.277C69.5854 117.142 69.4081 117.074 69.1654 117.074C68.8808 117.074 68.6521 117.163 68.4794 117.34C68.3068 117.517 68.2204 117.755 68.2204 118.054V119.699C68.2204 119.802 68.1878 119.883 68.1224 119.944C68.0618 120.005 67.9778 120.035 67.8704 120.035C67.7631 120.035 67.6768 120.005 67.6114 119.944C67.5461 119.883 67.5134 119.802 67.5134 119.699V116.85C67.5134 116.752 67.5461 116.673 67.6114 116.612C67.6814 116.547 67.7678 116.514 67.8704 116.514C67.9731 116.514 68.0548 116.544 68.1154 116.605C68.1761 116.666 68.2064 116.745 68.2064 116.843V117.13C68.3184 116.925 68.4748 116.768 68.6754 116.661C68.8761 116.554 69.1024 116.5 69.3544 116.5ZM74.2206 119.139C74.286 119.139 74.3396 119.165 74.3816 119.216C74.4236 119.267 74.4446 119.333 74.4446 119.412C74.4446 119.547 74.3606 119.662 74.1926 119.755C74.0293 119.848 73.8496 119.921 73.6536 119.972C73.4623 120.023 73.278 120.049 73.1006 120.049C72.5593 120.049 72.1323 119.893 71.8196 119.58C71.507 119.263 71.3506 118.831 71.3506 118.285C71.3506 117.935 71.4183 117.625 71.5536 117.354C71.6936 117.083 71.8873 116.873 72.1346 116.724C72.3866 116.575 72.6713 116.5 72.9886 116.5C73.446 116.5 73.8076 116.647 74.0736 116.941C74.3396 117.235 74.4726 117.632 74.4726 118.131C74.4726 118.318 74.3886 118.411 74.2206 118.411H72.0576C72.1043 119.134 72.452 119.496 73.1006 119.496C73.2733 119.496 73.4226 119.473 73.5486 119.426C73.6746 119.379 73.8076 119.319 73.9476 119.244C73.9616 119.235 73.999 119.216 74.0596 119.188C74.125 119.155 74.1786 119.139 74.2206 119.139ZM73.0026 117.018C72.732 117.018 72.515 117.104 72.3516 117.277C72.1883 117.45 72.0903 117.692 72.0576 118.005H73.8636C73.8496 117.688 73.768 117.445 73.6186 117.277C73.474 117.104 73.2686 117.018 73.0026 117.018ZM76.4417 120.049C75.9657 120.049 75.5761 119.951 75.2727 119.755C75.1887 119.704 75.1281 119.65 75.0907 119.594C75.0581 119.538 75.0417 119.475 75.0417 119.405C75.0417 119.33 75.0627 119.267 75.1047 119.216C75.1467 119.165 75.2004 119.139 75.2657 119.139C75.3264 119.139 75.4221 119.176 75.5527 119.251C75.6927 119.326 75.8281 119.386 75.9587 119.433C76.0941 119.48 76.2621 119.503 76.4627 119.503C76.6867 119.503 76.8617 119.463 76.9877 119.384C77.1137 119.305 77.1767 119.193 77.1767 119.048C77.1767 118.955 77.1511 118.88 77.0997 118.824C77.0531 118.768 76.9691 118.719 76.8477 118.677C76.7264 118.63 76.5467 118.581 76.3087 118.53C75.8981 118.441 75.6017 118.322 75.4197 118.173C75.2424 118.019 75.1537 117.811 75.1537 117.55C75.1537 117.349 75.2121 117.17 75.3287 117.011C75.4454 116.848 75.6064 116.722 75.8117 116.633C76.0171 116.544 76.2504 116.5 76.5117 116.5C76.6984 116.5 76.8804 116.526 77.0577 116.577C77.2351 116.624 77.3914 116.694 77.5267 116.787C77.6807 116.89 77.7577 117.009 77.7577 117.144C77.7577 117.219 77.7344 117.282 77.6877 117.333C77.6457 117.384 77.5944 117.41 77.5337 117.41C77.4917 117.41 77.4497 117.401 77.4077 117.382C77.3657 117.363 77.3097 117.333 77.2397 117.291C77.1137 117.216 76.9947 117.158 76.8827 117.116C76.7754 117.074 76.6401 117.053 76.4767 117.053C76.2807 117.053 76.1221 117.095 76.0007 117.179C75.8841 117.263 75.8257 117.377 75.8257 117.522C75.8257 117.653 75.8794 117.755 75.9867 117.83C76.0987 117.9 76.3064 117.968 76.6097 118.033C76.9224 118.098 77.1674 118.173 77.3447 118.257C77.5221 118.341 77.6481 118.446 77.7227 118.572C77.8021 118.693 77.8417 118.85 77.8417 119.041C77.8417 119.344 77.7134 119.589 77.4567 119.776C77.2047 119.958 76.8664 120.049 76.4417 120.049ZM79.8187 120.049C79.3427 120.049 78.953 119.951 78.6497 119.755C78.5657 119.704 78.505 119.65 78.4677 119.594C78.435 119.538 78.4187 119.475 78.4187 119.405C78.4187 119.33 78.4397 119.267 78.4817 119.216C78.5237 119.165 78.5773 119.139 78.6427 119.139C78.7033 119.139 78.799 119.176 78.9297 119.251C79.0697 119.326 79.205 119.386 79.3357 119.433C79.471 119.48 79.639 119.503 79.8397 119.503C80.0637 119.503 80.2387 119.463 80.3647 119.384C80.4907 119.305 80.5537 119.193 80.5537 119.048C80.5537 118.955 80.528 118.88 80.4767 118.824C80.43 118.768 80.346 118.719 80.2247 118.677C80.1033 118.63 79.9237 118.581 79.6857 118.53C79.275 118.441 78.9787 118.322 78.7967 118.173C78.6193 118.019 78.5307 117.811 78.5307 117.55C78.5307 117.349 78.589 117.17 78.7057 117.011C78.8223 116.848 78.9833 116.722 79.1887 116.633C79.394 116.544 79.6273 116.5 79.8887 116.5C80.0753 116.5 80.2573 116.526 80.4347 116.577C80.612 116.624 80.7683 116.694 80.9037 116.787C81.0577 116.89 81.1347 117.009 81.1347 117.144C81.1347 117.219 81.1113 117.282 81.0647 117.333C81.0227 117.384 80.9713 117.41 80.9107 117.41C80.8687 117.41 80.8267 117.401 80.7847 117.382C80.7427 117.363 80.6867 117.333 80.6167 117.291C80.4907 117.216 80.3717 117.158 80.2597 117.116C80.1523 117.074 80.017 117.053 79.8537 117.053C79.6577 117.053 79.499 117.095 79.3777 117.179C79.261 117.263 79.2027 117.377 79.2027 117.522C79.2027 117.653 79.2563 117.755 79.3637 117.83C79.4757 117.9 79.6833 117.968 79.9867 118.033C80.2993 118.098 80.5443 118.173 80.7217 118.257C80.899 118.341 81.025 118.446 81.0997 118.572C81.179 118.693 81.2187 118.85 81.2187 119.041C81.2187 119.344 81.0903 119.589 80.8337 119.776C80.5817 119.958 80.2433 120.049 79.8187 120.049Z" fill="#B8C0CC"/>
<path d="M26.7799 36.7959H152.302" stroke="#F2F2F2" stroke-miterlimit="10"/>
<path d="M26.7799 71.823H152.302" stroke="#F2F2F2" stroke-miterlimit="10"/>
<path d="M98.0709 56.3809H38.3979C37.4237 56.3809 36.6339 57.1706 36.6339 58.1449V58.8069C36.6339 59.7811 37.4237 60.5709 38.3979 60.5709H98.0709C99.0451 60.5709 99.8349 59.7811 99.8349 58.8069V58.1449C99.8349 57.1706 99.0451 56.3809 98.0709 56.3809Z" fill="#EAEFF4"/>
<path d="M137.465 45.2701H136.981V44.2991H136.01V45.2701H131.156V44.2991H130.186V45.2701H129.7C129.443 45.2709 129.196 45.3733 129.015 45.555C128.833 45.7367 128.73 45.983 128.729 46.2401V54.0061C128.73 54.2633 128.832 54.5097 129.014 54.6914C129.196 54.8732 129.443 54.9755 129.7 54.9761H137.465C137.722 54.9755 137.969 54.8732 138.151 54.6914C138.333 54.5097 138.435 54.2633 138.436 54.0061V46.2421C138.435 45.9846 138.333 45.7378 138.151 45.5557C137.969 45.3736 137.722 45.2709 137.465 45.2701ZM137.465 54.0071H129.7V47.6971H137.465V54.0071Z" fill="#5680E9"/>
<path d="M132.498 48.917H131.056V50.359H132.498V48.917Z" fill="#5680E9"/>
<path d="M129.57 94.3788V91.5388H130.554C130.719 91.5347 130.883 91.5654 131.036 91.6288C131.162 91.6811 131.271 91.7677 131.35 91.8788C131.426 91.9936 131.465 92.1291 131.462 92.2668C131.464 92.3932 131.432 92.5178 131.368 92.6268C131.303 92.7325 131.21 92.8173 131.098 92.8708C131.242 92.9185 131.367 93.0119 131.454 93.1368C131.542 93.267 131.587 93.4217 131.582 93.5788C131.585 93.7296 131.542 93.8777 131.458 94.0028C131.37 94.1272 131.249 94.2242 131.108 94.2828C130.939 94.3531 130.757 94.3871 130.574 94.3828L129.57 94.3788ZM130.042 91.9548V92.7068H130.51C130.633 92.7137 130.754 92.6784 130.854 92.6068C130.894 92.5729 130.926 92.5298 130.947 92.4812C130.968 92.4325 130.977 92.3796 130.974 92.3268C130.976 92.2745 130.967 92.2223 130.946 92.1744C130.924 92.1265 130.892 92.0842 130.852 92.0508C130.753 91.9786 130.632 91.9433 130.51 91.9508L130.042 91.9548ZM130.042 93.9628H130.554C130.696 93.9727 130.838 93.9324 130.954 93.8488C130.999 93.8106 131.035 93.7624 131.059 93.7079C131.083 93.6534 131.093 93.5941 131.09 93.5348C131.093 93.4742 131.082 93.4137 131.058 93.3581C131.034 93.3025 130.997 93.2534 130.95 93.2148C130.833 93.1326 130.692 93.0931 130.55 93.1028H130.042V93.9628ZM132.978 94.4388C132.833 94.4402 132.69 94.4124 132.556 94.3568C132.429 94.3035 132.313 94.2245 132.218 94.1248C132.119 94.0236 132.042 93.904 131.99 93.7728C131.935 93.6319 131.908 93.4819 131.91 93.3308C131.908 93.1811 131.936 93.0324 131.99 92.8928C132.041 92.7616 132.118 92.6419 132.216 92.5408C132.313 92.4407 132.431 92.3617 132.56 92.3088C132.696 92.2533 132.843 92.2254 132.99 92.2268C133.135 92.2254 133.278 92.2533 133.412 92.3088C133.539 92.3622 133.654 92.4411 133.75 92.5408C133.847 92.6419 133.923 92.7607 133.974 92.8908C134.028 93.031 134.056 93.1804 134.054 93.3308C134.056 93.4819 134.028 93.6319 133.974 93.7728C133.923 93.9041 133.846 94.0237 133.748 94.1248C133.65 94.225 133.533 94.3039 133.404 94.3568C133.269 94.4118 133.124 94.4397 132.978 94.4388ZM132.99 94.0228C133.097 94.0228 133.201 93.9915 133.29 93.9328C133.382 93.8714 133.456 93.7864 133.504 93.6868C133.56 93.5766 133.59 93.4546 133.59 93.3308C133.591 93.2087 133.563 93.088 133.508 92.9788C133.459 92.8788 133.383 92.7939 133.29 92.7328C133.199 92.6727 133.091 92.6413 132.982 92.6428C132.873 92.6413 132.765 92.6727 132.674 92.7328C132.582 92.7939 132.508 92.878 132.46 92.9768C132.406 93.087 132.379 93.2083 132.382 93.3308C132.38 93.454 132.406 93.5759 132.46 93.6868C132.508 93.7864 132.582 93.8714 132.674 93.9328C132.767 93.9946 132.878 94.026 132.99 94.0228ZM135.454 94.4388C135.309 94.4402 135.166 94.4124 135.032 94.3568C134.903 94.304 134.787 94.225 134.69 94.1248C134.594 94.0229 134.52 93.9034 134.47 93.7728C134.415 93.6319 134.388 93.4819 134.39 93.3308C134.388 93.1811 134.416 93.0324 134.47 92.8928C134.521 92.7616 134.598 92.6419 134.696 92.5408C134.793 92.4407 134.911 92.3617 135.04 92.3088C135.176 92.2533 135.323 92.2254 135.47 92.2268C135.614 92.2257 135.757 92.2536 135.89 92.3088C136.017 92.3622 136.132 92.4411 136.228 92.5408C136.325 92.6419 136.401 92.7607 136.452 92.8908C136.506 93.031 136.534 93.1804 136.532 93.3308C136.534 93.4819 136.506 93.6319 136.452 93.7728C136.401 93.9041 136.324 94.0237 136.226 94.1248C136.128 94.225 136.011 94.3039 135.882 94.3568C135.746 94.4121 135.601 94.44 135.454 94.4388ZM135.462 94.0228C135.571 94.0244 135.679 93.993 135.77 93.9328C135.862 93.8714 135.936 93.7864 135.984 93.6868C136.037 93.5759 136.064 93.454 136.062 93.3308C136.064 93.209 136.037 93.0884 135.984 92.9788C135.935 92.88 135.861 92.7959 135.77 92.7348C135.679 92.6747 135.571 92.6433 135.462 92.6448C135.353 92.6433 135.245 92.6747 135.154 92.7348C135.062 92.7959 134.988 92.88 134.94 92.9788C134.886 93.089 134.859 93.2103 134.862 93.3328C134.86 93.456 134.886 93.5779 134.94 93.6888C134.988 93.7884 135.062 93.8734 135.154 93.9348C135.245 93.9943 135.353 94.025 135.462 94.0228ZM136.938 94.3788V91.4028H137.398V93.1508L138.254 92.2868H138.814L137.874 93.2148L138.91 94.3788H138.31L137.398 93.3228V94.3788H136.938Z" fill="#5680E9"/>
<path d="M26.7799 105.998H152.302" stroke="#F2F2F2" stroke-miterlimit="10"/>
<path d="M98.0709 91.3198H38.3979C37.4237 91.3198 36.6339 92.1096 36.6339 93.0838V93.7458C36.6339 94.7201 37.4237 95.5098 38.3979 95.5098H98.0709C99.0451 95.5098 99.8349 94.7201 99.8349 93.7458V93.0838C99.8349 92.1096 99.0451 91.3198 98.0709 91.3198Z" fill="#EAEFF4"/>
<path d="M98.0709 124.887H38.3979C37.4237 124.887 36.6339 125.677 36.6339 126.651V127.313C36.6339 128.287 37.4237 129.077 38.3979 129.077H98.0709C99.0451 129.077 99.8349 128.287 99.8349 127.313V126.651C99.8349 125.677 99.0451 124.887 98.0709 124.887Z" fill="#EAEFF4"/>
<path d="M41.0579 154.774C41.0996 154.832 41.1217 154.902 41.1209 154.974C41.1214 155.015 41.1127 155.055 41.0954 155.092C41.0781 155.129 41.0526 155.162 41.0209 155.188C40.9565 155.245 40.8731 155.277 40.7869 155.276C40.7238 155.277 40.6615 155.261 40.6063 155.23C40.5511 155.199 40.5048 155.155 40.4719 155.101L39.5339 153.64C39.4503 153.496 39.3325 153.374 39.1909 153.286C39.0433 153.213 38.8795 153.178 38.7149 153.186H37.9219V154.893C37.9245 154.941 37.9174 154.99 37.901 155.035C37.8847 155.081 37.8596 155.123 37.8269 155.159C37.7925 155.193 37.7513 155.22 37.706 155.237C37.6607 155.254 37.6123 155.262 37.5639 155.259C37.5162 155.261 37.4686 155.253 37.4241 155.236C37.3795 155.219 37.339 155.192 37.3049 155.159C37.271 155.124 37.2447 155.082 37.2275 155.036C37.2103 154.991 37.2026 154.942 37.2049 154.893V150.637C37.203 150.59 37.2108 150.543 37.2276 150.499C37.2445 150.456 37.2701 150.416 37.3029 150.382C37.3379 150.349 37.3792 150.324 37.4242 150.308C37.4692 150.291 37.5171 150.284 37.5649 150.287H39.3079C39.7542 150.256 40.1969 150.385 40.5569 150.651C40.7045 150.784 40.82 150.949 40.8947 151.133C40.9693 151.318 41.0012 151.517 40.9879 151.715C41.0034 152.06 40.8856 152.397 40.6589 152.657C40.4084 152.913 40.0771 153.075 39.7209 153.116C39.8424 153.149 39.9549 153.209 40.0499 153.291C40.1626 153.393 40.2593 153.511 40.3369 153.641L41.0579 154.774ZM39.2239 152.604C39.5104 152.626 39.796 152.551 40.0339 152.39C40.1256 152.307 40.197 152.205 40.2424 152.09C40.2879 151.976 40.3062 151.852 40.2959 151.729C40.3062 151.607 40.2879 151.484 40.2424 151.37C40.1969 151.257 40.1256 151.155 40.0339 151.074C39.7935 150.917 39.508 150.844 39.2219 150.867H37.9149V152.603L39.2239 152.604ZM43.4339 155.271C43.125 155.278 42.8198 155.203 42.5489 155.054C42.2956 154.91 42.0909 154.695 41.9609 154.434C41.8181 154.144 41.7471 153.823 41.7539 153.5C41.7465 153.174 41.8175 152.851 41.9609 152.558C42.0911 152.298 42.2958 152.082 42.5489 151.939C42.8198 151.79 43.125 151.715 43.4339 151.722C43.7429 151.715 44.0481 151.79 44.3189 151.939C44.5721 152.082 44.7768 152.298 44.9069 152.558C45.0504 152.851 45.1214 153.174 45.1139 153.5C45.1207 153.823 45.0497 154.144 44.9069 154.434C44.7769 154.695 44.5722 154.91 44.3189 155.054C44.0481 155.203 43.7429 155.278 43.4339 155.271ZM43.4339 154.711C43.5694 154.719 43.7049 154.696 43.8295 154.642C43.9542 154.589 44.0647 154.507 44.1519 154.403C44.3342 154.14 44.4217 153.822 44.3999 153.503C44.4215 153.183 44.3325 152.865 44.1479 152.603C44.0618 152.498 43.9523 152.416 43.8283 152.361C43.7043 152.307 43.5692 152.282 43.4339 152.289C43.2988 152.282 43.1639 152.306 43.0399 152.36C42.9159 152.414 42.8063 152.497 42.7199 152.601C42.5353 152.863 42.4464 153.181 42.4679 153.501C42.4465 153.821 42.5343 154.138 42.7169 154.401C42.8039 154.505 42.9141 154.587 43.0386 154.641C43.1631 154.695 43.2985 154.719 43.4339 154.711ZM48.2779 151.946C48.3005 151.883 48.3434 151.828 48.3999 151.792C48.4515 151.76 48.5111 151.743 48.5719 151.743C48.6587 151.742 48.7423 151.775 48.8059 151.834C48.8375 151.861 48.8628 151.894 48.88 151.931C48.8973 151.969 48.9062 152.01 48.9059 152.051C48.9061 152.097 48.8966 152.142 48.8779 152.184L46.9339 156.314C46.9094 156.375 46.8669 156.428 46.8119 156.465C46.7611 156.499 46.7013 156.518 46.6399 156.518C46.5567 156.518 46.4761 156.488 46.4129 156.434C46.3812 156.409 46.3557 156.377 46.3384 156.341C46.321 156.304 46.3123 156.264 46.3129 156.224C46.3156 156.176 46.3275 156.128 46.3479 156.084L46.8339 155.054L45.4819 152.184C45.4628 152.145 45.4532 152.102 45.4539 152.058C45.4538 152.014 45.4638 151.972 45.4833 151.933C45.5027 151.894 45.531 151.86 45.5659 151.834C45.6365 151.775 45.7258 151.743 45.8179 151.743C45.8825 151.741 45.9462 151.759 46 151.795C46.0538 151.831 46.095 151.883 46.1179 151.943L47.2039 154.347L48.2779 151.946ZM50.8679 151.722C51.0511 151.707 51.2353 151.73 51.4093 151.789C51.5833 151.848 51.7435 151.942 51.8799 152.065C52.1229 152.356 52.2421 152.73 52.2119 153.108V154.922C52.2147 154.967 52.2081 155.013 52.1924 155.056C52.1768 155.098 52.1524 155.137 52.1209 155.17C52.0519 155.232 51.9613 155.263 51.8689 155.258C51.8241 155.26 51.7792 155.253 51.7371 155.238C51.6949 155.222 51.6565 155.198 51.6239 155.167C51.5931 155.134 51.5692 155.096 51.5538 155.054C51.5383 155.012 51.5315 154.967 51.5339 154.922V154.662C51.4512 154.851 51.3113 155.009 51.1339 155.114C50.948 155.222 50.7359 155.277 50.5209 155.272C50.3078 155.274 50.097 155.227 49.9049 155.135C49.7265 155.051 49.5751 154.919 49.4679 154.753C49.3633 154.59 49.3087 154.4 49.3109 154.207C49.2992 153.995 49.3682 153.786 49.5039 153.623C49.6796 153.459 49.9024 153.354 50.1409 153.323C50.5461 153.25 50.9573 153.216 51.3689 153.222H51.5339V153.022C51.5521 152.82 51.4948 152.618 51.3729 152.455C51.3036 152.391 51.2217 152.343 51.1325 152.313C51.0433 152.282 50.9487 152.271 50.8549 152.28C50.6987 152.279 50.5432 152.3 50.3929 152.343C50.23 152.392 50.0709 152.453 49.9169 152.525C49.8366 152.578 49.746 152.614 49.6509 152.63C49.6183 152.631 49.5859 152.625 49.5561 152.611C49.5263 152.598 49.4999 152.578 49.4789 152.553C49.4326 152.497 49.409 152.426 49.4129 152.353C49.4115 152.286 49.4323 152.221 49.4719 152.168C49.525 152.103 49.5907 152.049 49.6649 152.01C49.845 151.917 50.0362 151.847 50.2339 151.802C50.4426 151.75 50.6568 151.723 50.8719 151.722H50.8679ZM50.6549 154.746C50.7726 154.75 50.8898 154.728 50.9985 154.683C51.1072 154.638 51.2049 154.569 51.2849 154.483C51.4518 154.299 51.5397 154.056 51.5299 153.808V153.622H51.4039C51.1231 153.617 50.8423 153.633 50.5639 153.671C50.4113 153.686 50.2659 153.743 50.1439 153.836C50.1004 153.879 50.0666 153.931 50.0449 153.988C50.0231 154.046 50.0139 154.107 50.0179 154.168C50.0157 154.246 50.0309 154.324 50.0624 154.395C50.0939 154.466 50.1408 154.53 50.1999 154.581C50.3253 154.691 50.4879 154.75 50.6549 154.746ZM53.5389 155.257C53.4463 155.261 53.3554 155.231 53.2829 155.173C53.2481 155.141 53.221 155.102 53.2037 155.059C53.1864 155.015 53.1793 154.968 53.1829 154.921V150.595C53.1795 150.548 53.1866 150.5 53.2039 150.456C53.2213 150.411 53.2482 150.372 53.2829 150.339C53.3544 150.279 53.4456 150.248 53.5389 150.251C53.631 150.247 53.7211 150.279 53.7909 150.339C53.8253 150.372 53.852 150.412 53.8693 150.456C53.8866 150.5 53.894 150.548 53.8909 150.595V154.922C53.8941 154.969 53.8868 155.016 53.8695 155.059C53.8522 155.103 53.8254 155.142 53.7909 155.174C53.7199 155.232 53.6303 155.261 53.5389 155.257ZM58.4389 155.278C58.0965 155.28 57.7557 155.23 57.4279 155.131C57.1454 155.053 56.8835 154.913 56.6609 154.722C56.6183 154.688 56.5841 154.644 56.561 154.594C56.538 154.544 56.5266 154.49 56.5279 154.435C56.5258 154.358 56.5505 154.283 56.5979 154.222C56.6171 154.195 56.6423 154.174 56.6715 154.158C56.7007 154.143 56.7331 154.135 56.7659 154.135C56.8522 154.143 56.9346 154.174 57.0039 154.226C57.4138 154.532 57.9133 154.695 58.4249 154.688C58.7265 154.706 59.0266 154.633 59.2859 154.478C59.3828 154.412 59.4613 154.322 59.5138 154.217C59.5662 154.112 59.5911 153.995 59.5859 153.878C59.5884 153.782 59.5633 153.688 59.5137 153.606C59.4641 153.524 59.3919 153.458 59.3059 153.416C59.0199 153.28 58.7173 153.181 58.4059 153.122C58.0757 153.057 57.7523 152.961 57.4399 152.835C57.2081 152.743 57.0041 152.592 56.8479 152.398C56.7004 152.195 56.6253 151.949 56.6349 151.698C56.6311 151.427 56.7134 151.161 56.8699 150.939C57.0361 150.709 57.2624 150.53 57.5239 150.421C57.8271 150.293 58.1538 150.229 58.4829 150.235C58.7941 150.232 59.1038 150.279 59.3999 150.375C59.6649 150.46 59.9085 150.6 60.1139 150.788C60.1575 150.822 60.1928 150.866 60.2171 150.915C60.2413 150.965 60.2539 151.02 60.2539 151.075C60.255 151.151 60.2292 151.226 60.1809 151.285C60.1615 151.312 60.1359 151.335 60.1062 151.351C60.0765 151.367 60.0435 151.375 60.0099 151.376C59.926 151.367 59.8461 151.336 59.7789 151.285C59.5949 151.139 59.3912 151.02 59.1739 150.931C58.9547 150.854 58.7233 150.817 58.4909 150.823C58.1947 150.805 57.9005 150.882 57.6509 151.043C57.5541 151.112 57.4759 151.204 57.4236 151.311C57.3712 151.418 57.3462 151.536 57.3509 151.655C57.3459 151.756 57.3679 151.856 57.4147 151.945C57.4615 152.035 57.5313 152.11 57.6169 152.163C57.8834 152.311 58.1716 152.417 58.4709 152.475C58.8109 152.547 59.1452 152.644 59.4709 152.765C59.7045 152.851 59.9135 152.993 60.0799 153.178C60.2366 153.367 60.3175 153.608 60.3069 153.854C60.3112 154.121 60.2291 154.383 60.0729 154.6C59.9044 154.825 59.6765 154.998 59.4149 155.1C59.1048 155.224 58.7729 155.284 58.4389 155.278ZM62.9609 151.722C63.7729 151.722 64.1789 152.182 64.1789 153.101V154.922C64.1808 154.968 64.1729 155.013 64.1556 155.055C64.1384 155.098 64.1122 155.136 64.0789 155.167C64.0077 155.23 63.9148 155.263 63.8199 155.258C63.7735 155.26 63.7271 155.254 63.6834 155.238C63.6396 155.222 63.5994 155.198 63.5649 155.167C63.5332 155.135 63.5086 155.096 63.4926 155.054C63.4765 155.012 63.4695 154.967 63.4719 154.922V153.108C63.49 152.889 63.429 152.67 63.2999 152.492C63.2308 152.422 63.1471 152.367 63.0546 152.333C62.9622 152.298 62.8633 152.284 62.7649 152.292C62.6384 152.286 62.5121 152.307 62.394 152.353C62.2759 152.399 62.1686 152.469 62.0789 152.558C61.9904 152.654 61.9219 152.766 61.8774 152.889C61.833 153.011 61.8134 153.142 61.8199 153.272V154.922C61.8222 154.967 61.815 155.012 61.7988 155.054C61.7827 155.097 61.7578 155.135 61.7259 155.167C61.6914 155.198 61.651 155.222 61.607 155.238C61.5631 155.254 61.5165 155.26 61.4699 155.258C61.375 155.263 61.2821 155.23 61.2109 155.167C61.1776 155.136 61.1515 155.098 61.1342 155.055C61.117 155.013 61.109 154.968 61.1109 154.922V150.588C61.1087 150.542 61.1165 150.497 61.1338 150.454C61.151 150.412 61.1774 150.374 61.2109 150.343C61.2838 150.28 61.3779 150.248 61.4739 150.252C61.5652 150.248 61.6546 150.279 61.7229 150.34C61.7546 150.37 61.7795 150.406 61.7957 150.447C61.8119 150.487 61.8192 150.53 61.8169 150.574V152.322C61.9279 152.131 62.0905 151.976 62.2859 151.874C62.4951 151.769 62.7269 151.717 62.9609 151.722ZM66.5799 151.722C66.7631 151.707 66.9473 151.73 67.1213 151.789C67.2953 151.848 67.4555 151.942 67.5919 152.065C67.8353 152.356 67.9548 152.73 67.9249 153.108V154.922C67.9277 154.967 67.9211 155.013 67.9054 155.056C67.8898 155.098 67.8654 155.137 67.8339 155.17C67.7649 155.232 67.6743 155.263 67.5819 155.258C67.5365 155.261 67.491 155.254 67.4483 155.238C67.4057 155.222 67.3667 155.198 67.3339 155.166C67.3034 155.133 67.2798 155.095 67.2645 155.053C67.2492 155.011 67.2425 154.967 67.2449 154.922V154.662C67.1622 154.851 67.0223 155.009 66.8449 155.114C66.6595 155.221 66.4481 155.276 66.2339 155.271C66.0208 155.273 65.81 155.226 65.6179 155.134C65.4395 155.05 65.2881 154.918 65.1809 154.752C65.0763 154.589 65.0217 154.399 65.0239 154.206C65.0119 153.994 65.0805 153.785 65.2159 153.622C65.3916 153.458 65.6144 153.353 65.8529 153.322C66.2568 153.249 66.6667 153.216 67.0769 153.222H67.2339V153.022C67.2521 152.82 67.1948 152.618 67.0729 152.455C67.0036 152.391 66.9217 152.343 66.8325 152.313C66.7433 152.282 66.6487 152.271 66.5549 152.28C66.3987 152.279 66.2432 152.3 66.0929 152.343C65.93 152.392 65.7709 152.453 65.6169 152.525C65.5366 152.578 65.446 152.614 65.3509 152.63C65.3183 152.631 65.2859 152.625 65.2561 152.611C65.2263 152.598 65.1999 152.578 65.1789 152.553C65.1326 152.497 65.109 152.426 65.1129 152.353C65.1115 152.286 65.1323 152.221 65.1719 152.168C65.225 152.103 65.2907 152.049 65.3649 152.01C65.5464 151.915 65.7393 151.843 65.9389 151.797C66.1488 151.746 66.364 151.721 66.5799 151.722ZM66.3629 154.746C66.4806 154.75 66.5978 154.728 66.7065 154.683C66.8152 154.638 66.9129 154.569 66.9929 154.483C67.1598 154.299 67.2477 154.056 67.2379 153.808V153.622H67.1119C66.8311 153.617 66.5503 153.633 66.2719 153.671C66.1193 153.686 65.9739 153.743 65.8519 153.836C65.8084 153.879 65.7746 153.931 65.7529 153.988C65.7311 154.046 65.7219 154.107 65.7259 154.168C65.7237 154.246 65.7389 154.324 65.7704 154.395C65.8019 154.466 65.8488 154.53 65.9079 154.581C66.0333 154.691 66.1959 154.75 66.3629 154.746ZM71.3189 151.946C71.3418 151.882 71.385 151.828 71.4419 151.792C71.4932 151.76 71.5525 151.743 71.6129 151.743C71.7 151.742 71.7841 151.775 71.8479 151.834C71.8795 151.861 71.9048 151.894 71.922 151.931C71.9393 151.969 71.9482 152.01 71.9479 152.051C71.9481 152.097 71.9386 152.142 71.9199 152.184L70.5839 155.022C70.5536 155.094 70.5006 155.155 70.4329 155.194C70.3686 155.233 70.295 155.254 70.2199 155.254C70.1445 155.254 70.0705 155.233 70.0059 155.194C69.9386 155.154 69.886 155.094 69.8559 155.022L68.5189 152.184C68.4993 152.142 68.4897 152.097 68.4909 152.051C68.4914 152.009 68.5018 151.967 68.5212 151.929C68.5407 151.892 68.5686 151.859 68.6029 151.834C68.6735 151.775 68.7628 151.743 68.8549 151.743C68.9193 151.742 68.9824 151.761 69.0359 151.797C69.0894 151.832 69.1309 151.883 69.1549 151.943L70.2409 154.347L71.3189 151.946ZM75.1549 154.361C75.1859 154.36 75.2166 154.367 75.2445 154.381C75.2724 154.394 75.2969 154.414 75.3159 154.438C75.3603 154.495 75.3827 154.566 75.3789 154.638C75.3735 154.713 75.3469 154.785 75.3023 154.846C75.2578 154.906 75.197 154.953 75.1269 154.981C74.9588 155.076 74.7789 155.149 74.5919 155.198C74.4099 155.246 74.2223 155.271 74.0339 155.271C73.7996 155.283 73.5652 155.248 73.3451 155.167C73.125 155.085 72.9239 154.96 72.7539 154.798C72.5927 154.625 72.4681 154.422 72.3875 154.2C72.3069 153.978 72.272 153.742 72.2849 153.506C72.2789 153.184 72.3498 152.864 72.4919 152.575C72.6211 152.314 72.8228 152.095 73.0729 151.945C73.3303 151.794 73.6244 151.716 73.9229 151.721C74.125 151.711 74.3267 151.745 74.5141 151.822C74.7015 151.898 74.8701 152.014 75.0079 152.162C75.2876 152.493 75.4306 152.919 75.4079 153.352C75.4079 153.539 75.3239 153.632 75.1559 153.632H72.9919C73.0386 154.359 73.3859 154.722 74.0339 154.722C74.1862 154.725 74.3379 154.702 74.4819 154.652C74.6192 154.6 74.7528 154.54 74.8819 154.47C74.8959 154.461 74.9346 154.441 74.9979 154.411C75.046 154.383 75.0996 154.366 75.1549 154.361ZM73.9339 152.24C73.8133 152.235 73.6929 152.255 73.5806 152.3C73.4684 152.344 73.367 152.412 73.2829 152.499C73.1088 152.701 73.0065 152.955 72.9919 153.222H74.7979C74.8021 152.958 74.7168 152.7 74.5559 152.491C74.4777 152.405 74.3812 152.338 74.2735 152.295C74.1659 152.251 74.0498 152.232 73.9339 152.24Z" fill="#B8C0CC"/>
<path d="M98.0709 160.549H38.3979C37.4237 160.549 36.6339 161.339 36.6339 162.313V162.975C36.6339 163.949 37.4237 164.739 38.3979 164.739H98.0709C99.0451 164.739 99.8349 163.949 99.8349 162.975V162.313C99.8349 161.339 99.0451 160.549 98.0709 160.549Z" fill="#EAEFF4"/>
<path d="M137.465 79.7442H136.981V78.7742H136.01V79.7442H131.156V78.7742H130.186V79.7442H129.7C129.443 79.745 129.196 79.8475 129.014 80.0294C128.832 80.2114 128.73 80.4579 128.729 80.7152V88.4822C128.73 88.7393 128.833 88.9855 129.015 89.1673C129.196 89.349 129.443 89.4514 129.7 89.4522H137.465C137.722 89.4514 137.968 89.349 138.15 89.1673C138.332 88.9855 138.435 88.7393 138.436 88.4822V80.7162C138.435 80.4587 138.333 80.2119 138.151 80.0298C137.969 79.8477 137.722 79.745 137.465 79.7442ZM137.465 88.4822H129.7V82.1712H137.465V88.4822Z" fill="#5680E9"/>
<path d="M132.498 83.3921H131.056V84.8341H132.498V83.3921Z" fill="#5680E9"/>
<path d="M129.57 128.813V125.973H130.554C130.719 125.969 130.883 125.999 131.036 126.063C131.162 126.115 131.271 126.202 131.35 126.313C131.426 126.428 131.465 126.563 131.462 126.701C131.464 126.827 131.432 126.952 131.368 127.061C131.303 127.167 131.21 127.251 131.098 127.305C131.242 127.353 131.367 127.446 131.454 127.571C131.542 127.701 131.587 127.856 131.582 128.013C131.585 128.164 131.542 128.312 131.458 128.437C131.37 128.561 131.249 128.658 131.108 128.717C130.939 128.787 130.757 128.821 130.574 128.817L129.57 128.813ZM130.042 126.389V127.141H130.51C130.633 127.148 130.754 127.112 130.854 127.041C130.894 127.007 130.926 126.964 130.947 126.915C130.968 126.867 130.977 126.814 130.974 126.761C130.976 126.709 130.967 126.656 130.946 126.608C130.924 126.561 130.892 126.518 130.852 126.485C130.753 126.413 130.632 126.377 130.51 126.385L130.042 126.389ZM130.042 128.397H130.554C130.696 128.407 130.838 128.366 130.954 128.283C130.999 128.245 131.035 128.196 131.059 128.142C131.083 128.087 131.093 128.028 131.09 127.969C131.093 127.908 131.082 127.848 131.058 127.792C131.034 127.737 130.997 127.687 130.95 127.649C130.833 127.567 130.692 127.527 130.55 127.537H130.042V128.397ZM132.978 128.873C132.833 128.874 132.69 128.846 132.556 128.791C132.429 128.738 132.313 128.659 132.218 128.559C132.119 128.458 132.042 128.338 131.99 128.207C131.935 128.066 131.908 127.916 131.91 127.765C131.908 127.615 131.936 127.467 131.99 127.327C132.041 127.196 132.118 127.076 132.216 126.975C132.313 126.875 132.431 126.796 132.56 126.743C132.696 126.687 132.843 126.66 132.99 126.661C133.135 126.66 133.278 126.687 133.412 126.743C133.539 126.796 133.654 126.875 133.75 126.975C133.847 127.076 133.923 127.195 133.974 127.325C134.028 127.465 134.056 127.614 134.054 127.765C134.056 127.916 134.028 128.066 133.974 128.207C133.923 128.338 133.846 128.458 133.748 128.559C133.65 128.659 133.533 128.738 133.404 128.791C133.269 128.846 133.124 128.874 132.978 128.873ZM132.99 128.457C133.097 128.457 133.201 128.426 133.29 128.367C133.382 128.305 133.456 128.221 133.504 128.121C133.56 128.011 133.59 127.889 133.59 127.765C133.591 127.643 133.563 127.522 133.508 127.413C133.459 127.313 133.383 127.228 133.29 127.167C133.199 127.107 133.091 127.075 132.982 127.077C132.873 127.075 132.765 127.107 132.674 127.167C132.582 127.228 132.508 127.312 132.46 127.411C132.406 127.521 132.379 127.642 132.382 127.765C132.38 127.888 132.406 128.01 132.46 128.121C132.508 128.221 132.582 128.305 132.674 128.367C132.767 128.429 132.878 128.46 132.99 128.457ZM135.454 128.873C135.309 128.874 135.166 128.846 135.032 128.791C134.903 128.738 134.787 128.659 134.69 128.559C134.594 128.457 134.52 128.337 134.47 128.207C134.415 128.066 134.388 127.916 134.39 127.765C134.388 127.615 134.416 127.467 134.47 127.327C134.521 127.196 134.598 127.076 134.696 126.975C134.793 126.875 134.911 126.796 135.04 126.743C135.176 126.687 135.323 126.66 135.47 126.661C135.614 126.66 135.757 126.688 135.89 126.743C136.017 126.796 136.132 126.875 136.228 126.975C136.325 127.076 136.401 127.195 136.452 127.325C136.506 127.465 136.534 127.614 136.532 127.765C136.534 127.916 136.506 128.066 136.452 128.207C136.401 128.338 136.324 128.458 136.226 128.559C136.128 128.659 136.011 128.738 135.882 128.791C135.746 128.846 135.601 128.874 135.454 128.873ZM135.462 128.457C135.571 128.458 135.679 128.427 135.77 128.367C135.862 128.305 135.936 128.221 135.984 128.121C136.037 128.01 136.064 127.888 136.062 127.765C136.064 127.643 136.037 127.522 135.984 127.413C135.935 127.314 135.861 127.23 135.77 127.169C135.679 127.109 135.571 127.077 135.462 127.079C135.353 127.077 135.245 127.109 135.154 127.169C135.062 127.23 134.988 127.314 134.94 127.413C134.886 127.523 134.859 127.644 134.862 127.767C134.86 127.89 134.886 128.012 134.94 128.123C134.988 128.223 135.062 128.307 135.154 128.369C135.245 128.428 135.353 128.459 135.462 128.457ZM136.938 128.813V125.837H137.398V127.585L138.254 126.721H138.814L137.874 127.649L138.91 128.813H138.31L137.398 127.757V128.813H136.938Z" fill="#5680E9"/>
<path d="M26.7799 140.431H152.302" stroke="#F2F2F2" stroke-miterlimit="10"/>
<path d="M137.465 114.525H136.981V113.555H136.01V114.525H131.156V113.555H130.186V114.525H129.7C129.443 114.526 129.196 114.628 129.014 114.81C128.832 114.992 128.73 115.239 128.729 115.496V123.263C128.73 123.52 128.833 123.766 129.015 123.948C129.196 124.13 129.443 124.232 129.7 124.233H137.465C137.722 124.232 137.968 124.13 138.15 123.948C138.332 123.766 138.435 123.52 138.436 123.263V115.496C138.435 115.239 138.333 114.992 138.151 114.81C137.969 114.628 137.722 114.526 137.465 114.525ZM137.465 123.263H129.7V116.952H137.465V123.263Z" fill="#5680E9"/>
<path d="M132.498 118.173H131.056V119.615H132.498V118.173Z" fill="#5680E9"/>
<path d="M129.57 164.339V161.499H130.554C130.719 161.495 130.883 161.526 131.036 161.589C131.162 161.641 131.271 161.728 131.35 161.839C131.426 161.954 131.465 162.089 131.462 162.227C131.464 162.353 131.432 162.478 131.368 162.587C131.303 162.693 131.21 162.777 131.098 162.831C131.242 162.879 131.367 162.972 131.454 163.097C131.542 163.227 131.587 163.382 131.582 163.539C131.585 163.69 131.542 163.838 131.458 163.963C131.37 164.087 131.249 164.184 131.108 164.243C130.939 164.313 130.757 164.347 130.574 164.343L129.57 164.339ZM130.042 161.915V162.667H130.51C130.633 162.674 130.754 162.639 130.854 162.567C130.894 162.533 130.926 162.49 130.947 162.441C130.968 162.393 130.977 162.34 130.974 162.287C130.976 162.235 130.967 162.183 130.946 162.135C130.924 162.087 130.892 162.044 130.852 162.011C130.753 161.939 130.632 161.903 130.51 161.911L130.042 161.915ZM130.042 163.923H130.554C130.696 163.933 130.838 163.893 130.954 163.809C130.999 163.771 131.035 163.723 131.059 163.668C131.083 163.614 131.093 163.554 131.09 163.495C131.093 163.434 131.082 163.374 131.058 163.318C131.034 163.263 130.997 163.214 130.95 163.175C130.833 163.093 130.692 163.053 130.55 163.063H130.042V163.923ZM132.978 164.399C132.833 164.4 132.69 164.373 132.556 164.317C132.429 164.264 132.313 164.185 132.218 164.085C132.119 163.984 132.042 163.864 131.99 163.733C131.935 163.592 131.908 163.442 131.91 163.291C131.908 163.141 131.936 162.993 131.99 162.853C132.041 162.722 132.118 162.602 132.216 162.501C132.313 162.401 132.431 162.322 132.56 162.269C132.696 162.214 132.843 162.186 132.99 162.187C133.135 162.186 133.278 162.214 133.412 162.269C133.539 162.322 133.654 162.401 133.75 162.501C133.847 162.602 133.923 162.721 133.974 162.851C134.028 162.991 134.056 163.141 134.054 163.291C134.056 163.442 134.028 163.592 133.974 163.733C133.923 163.864 133.846 163.984 133.748 164.085C133.65 164.185 133.533 164.264 133.404 164.317C133.269 164.372 133.124 164.4 132.978 164.399ZM132.99 163.983C133.097 163.983 133.201 163.952 133.29 163.893C133.382 163.832 133.456 163.747 133.504 163.647C133.56 163.537 133.59 163.415 133.59 163.291C133.591 163.169 133.563 163.048 133.508 162.939C133.459 162.839 133.383 162.754 133.29 162.693C133.199 162.633 133.091 162.602 132.982 162.603C132.873 162.602 132.765 162.633 132.674 162.693C132.582 162.754 132.508 162.838 132.46 162.937C132.406 163.047 132.379 163.169 132.382 163.291C132.38 163.414 132.406 163.536 132.46 163.647C132.508 163.747 132.582 163.832 132.674 163.893C132.767 163.955 132.878 163.986 132.99 163.983ZM135.454 164.399C135.309 164.4 135.166 164.373 135.032 164.317C134.903 164.264 134.787 164.185 134.69 164.085C134.594 163.983 134.52 163.864 134.47 163.733C134.415 163.592 134.388 163.442 134.39 163.291C134.388 163.141 134.416 162.993 134.47 162.853C134.521 162.722 134.598 162.602 134.696 162.501C134.793 162.401 134.911 162.322 135.04 162.269C135.176 162.214 135.323 162.186 135.47 162.187C135.614 162.186 135.757 162.214 135.89 162.269C136.017 162.322 136.132 162.401 136.228 162.501C136.325 162.602 136.401 162.721 136.452 162.851C136.506 162.991 136.534 163.141 136.532 163.291C136.534 163.442 136.506 163.592 136.452 163.733C136.401 163.864 136.324 163.984 136.226 164.085C136.128 164.185 136.011 164.264 135.882 164.317C135.746 164.372 135.601 164.4 135.454 164.399ZM135.462 163.983C135.571 163.985 135.679 163.953 135.77 163.893C135.862 163.832 135.936 163.747 135.984 163.647C136.037 163.536 136.064 163.414 136.062 163.291C136.064 163.169 136.037 163.049 135.984 162.939C135.935 162.84 135.861 162.756 135.77 162.695C135.679 162.635 135.571 162.604 135.462 162.605C135.353 162.604 135.245 162.635 135.154 162.695C135.062 162.756 134.988 162.84 134.94 162.939C134.886 163.049 134.859 163.171 134.862 163.293C134.86 163.416 134.886 163.538 134.94 163.649C134.988 163.749 135.062 163.834 135.154 163.895C135.245 163.955 135.353 163.985 135.462 163.983ZM136.938 164.339V161.363H137.398V163.111L138.254 162.247H138.814L137.874 163.175L138.91 164.339H138.31L137.398 163.283V164.339H136.938Z" fill="#5680E9"/>
<path d="M29.0659 175.958H150.017" stroke="#F2F2F2" stroke-miterlimit="10"/>
<path d="M137.465 150.052H136.981V149.082H136.01V150.052H131.156V149.082H130.186V150.052H129.7C129.443 150.053 129.196 150.155 129.014 150.337C128.832 150.519 128.73 150.766 128.729 151.023V158.788C128.73 159.045 128.832 159.292 129.014 159.474C129.196 159.656 129.443 159.758 129.7 159.759H137.465C137.722 159.758 137.969 159.656 138.151 159.474C138.333 159.292 138.435 159.045 138.436 158.788V151.023C138.435 150.766 138.333 150.519 138.151 150.337C137.969 150.155 137.722 150.053 137.465 150.052ZM137.465 158.789H129.7V152.476H137.465V158.789Z" fill="#5680E9"/>
<path d="M132.498 153.7H131.056V155.142H132.498V153.7Z" fill="#5680E9"/>
<path d="M35 20H49.3" stroke="#30A3C7" stroke-miterlimit="10" stroke-linecap="round" stroke-linejoin="round"/>
<path d="M39 22H53.3" stroke="#30A3C7" stroke-miterlimit="10" stroke-linecap="round" stroke-linejoin="round"/>
<path d="M38.6001 25H38.1001C37.5501 25 37.1001 24.55 37.1001 24V17C37.1001 16.45 37.5501 16 38.1001 16H38.6001C39.1501 16 39.6001 16.45 39.6001 17V24C39.6001 24.55 39.1501 25 38.6001 25Z" fill="white" stroke="#30A3C7" stroke-miterlimit="10" stroke-linecap="round" stroke-linejoin="round"/>
<path d="M54.5 25H54C53.45 25 53 24.55 53 24V17C53 16.45 53.45 16 54 16H54.5C55.05 16 55.5 16.45 55.5 17V24C55.5 24.55 55.05 25 54.5 25Z" fill="white" stroke="#30A3C7" stroke-miterlimit="10" stroke-linecap="round" stroke-linejoin="round"/>
<path d="M35.5 25H35C34.45 25 34 24.55 34 24V17C34 16.45 34.45 16 35 16H35.5C36.05 16 36.5 16.45 36.5 17V24C36.5 24.55 36.05 25 35.5 25Z" fill="white" stroke="#30A3C7" stroke-miterlimit="10" stroke-linecap="round" stroke-linejoin="round"/>
<path d="M51.5 25H51C50.45 25 50 24.55 50 24V17C50 16.45 50.45 16 51 16H51.5C52.05 16 52.5 16.45 52.5 17V24C52.5 24.55 52.05 25 51.5 25Z" fill="white" stroke="#30A3C7" stroke-miterlimit="10" stroke-linecap="round" stroke-linejoin="round"/>
<path d="M37.8139 131.817C47.1588 131.817 56.1209 135.529 62.7288 142.137C69.3366 148.745 73.0489 157.707 73.0489 167.052C73.0489 176.397 69.3366 185.359 62.7288 191.967C56.1209 198.575 47.1588 202.287 37.8139 202.287H12.6458C11.3235 202.287 10.0141 202.027 8.79253 201.521C7.57091 201.014 6.46098 200.273 5.52612 199.337C4.59127 198.402 3.84982 197.292 3.34412 196.07C2.83842 194.848 2.57838 193.539 2.57886 192.217V167.052C2.57886 157.707 6.29111 148.745 12.899 142.137C19.5068 135.529 28.469 131.817 37.8139 131.817V131.817Z" fill="white"/>
<path d="M37.4955 131.872C39.3244 131.872 41.1505 132.015 42.9569 132.301C28.5905 131.965 9.06542 142.578 9.06542 166.942V197.174C9.06957 198.489 9.59375 199.749 10.5235 200.679C11.4533 201.609 12.7132 202.133 14.0281 202.137H7.38901C6.0741 202.133 4.81424 201.609 3.88445 200.679C2.95467 199.749 2.43048 198.489 2.42633 197.174V166.941C2.45347 157.648 6.15697 148.744 12.7278 142.173C19.2987 135.602 28.2029 131.899 37.4955 131.872Z" fill="#EAEFF4"/>
<path d="M36.9811 131.817C46.326 131.817 55.2882 135.529 61.896 142.137C68.5039 148.745 72.2161 157.707 72.2161 167.052C72.2161 176.397 68.5039 185.359 61.896 191.967C55.2882 198.575 46.326 202.287 36.9811 202.287H8.45781C6.67796 202.287 4.971 201.58 3.71234 200.322C2.45368 199.063 1.74641 197.357 1.74609 195.577L1.74609 167.052C1.74609 157.707 5.45834 148.745 12.0662 142.137C18.674 135.529 27.6362 131.817 36.9811 131.817V131.817Z" stroke="#B8C0CC" stroke-width="1.88" stroke-miterlimit="10"/>
<path d="M51.2361 154.734C51.5636 155.724 52.8737 157.154 54.8674 157.154C56.861 157.154 58.0517 155.724 58.4986 154.734" stroke="#B8C0CC" stroke-width="1.88" stroke-miterlimit="10" stroke-linecap="round" stroke-linejoin="round"/>
</svg>
