<svg width="106" height="106" viewBox="0 0 106 106" fill="none" xmlns="http://www.w3.org/2000/svg">
<path d="M52.861 105.72C82.0547 105.72 105.721 82.0538 105.721 52.86C105.721 23.6662 82.0547 0 52.861 0C23.6672 0 0.000976562 23.6662 0.000976562 52.86C0.000976562 82.0538 23.6672 105.72 52.861 105.72Z" fill="#F0F4F7"/>
<path d="M34.2079 42.538C37.816 42.538 40.7409 39.6131 40.7409 36.005C40.7409 32.397 37.816 29.472 34.2079 29.472C30.5999 29.472 27.6749 32.397 27.6749 36.005C27.6749 39.6131 30.5999 42.538 34.2079 42.538Z" fill="#FCFDFF" stroke="#30A3C7" stroke-width="1.88"/>
<path d="M42.1169 56.5441C42.4067 56.5467 42.6934 56.4841 42.9558 56.3611C43.2182 56.2381 43.4496 56.0577 43.6329 55.8333C43.8163 55.6088 43.9469 55.3461 44.0151 55.0645C44.0833 54.7828 44.0873 54.4895 44.027 54.2061C43.5003 51.9982 42.2449 50.0322 40.4634 48.6257C38.6819 47.2192 36.4783 46.4542 34.2085 46.4542C31.9387 46.4542 29.7351 47.2192 27.9536 48.6257C26.1721 50.0322 24.9167 51.9982 24.39 54.2061C24.3296 54.4895 24.3337 54.7828 24.4019 55.0645C24.47 55.3461 24.6007 55.6088 24.7841 55.8333C24.9674 56.0577 25.1988 56.2381 25.4612 56.3611C25.7236 56.4841 26.0101 56.5467 26.2999 56.5441H42.1169Z" fill="#FCFDFF" stroke="#30A3C7" stroke-width="1.88"/>
<path d="M29.1769 71.0081H40.6629C41.1706 71.0081 41.6574 71.2097 42.0163 71.5687C42.3753 71.9276 42.5769 72.4144 42.5769 72.9221V86.3221H27.2629V72.9221C27.2629 72.4144 27.4646 71.9276 27.8235 71.5687C28.1825 71.2097 28.6693 71.0081 29.1769 71.0081V71.0081Z" fill="white" stroke="#B8C0CC" stroke-width="1.88" stroke-miterlimit="10" stroke-linecap="round"/>
<path d="M57.277 53.8361H67.015C67.7544 53.8361 68.4636 54.1298 68.9864 54.6526C69.5093 55.1755 69.803 55.8846 69.803 56.6241V86.3241H54.489V56.6241C54.489 55.8846 54.7827 55.1755 55.3056 54.6526C55.8285 54.1298 56.5376 53.8361 57.277 53.8361V53.8361Z" fill="white" stroke="#B8C0CC" stroke-width="1.88" stroke-miterlimit="10" stroke-linecap="round"/>
<path d="M85.148 37.033H93.594C94.5047 37.033 95.3782 37.3948 96.0222 38.0388C96.6662 38.6828 97.028 39.5562 97.028 40.467V86.323H81.714V40.467C81.714 39.5562 82.0758 38.6828 82.7198 38.0388C83.3638 37.3948 84.2372 37.033 85.148 37.033V37.033Z" fill="white" stroke="#B8C0CC" stroke-width="1.88" stroke-miterlimit="10" stroke-linecap="round"/>
<path d="M18.806 86.323H104.719" stroke="#B8C0CC" stroke-width="1.88" stroke-miterlimit="10" stroke-linecap="round"/>
</svg>
