<svg width="47" height="62" viewBox="0 0 47 62" fill="none" xmlns="http://www.w3.org/2000/svg">
<path d="M23.1223 19.418C16.9907 24.7743 8.76824 28.4313 1 23.4665C1.15662 23.6153 2.01018 23.4744 2.20596 23.4744C3.23963 23.443 4.26548 23.3256 5.28349 23.1376C7.12375 22.7931 8.90919 22.1588 10.5302 21.2269C12.6524 20.0053 14.5474 18.4469 16.6774 17.2332" stroke="#B7C0CD" stroke-width="1.5" stroke-miterlimit="10" stroke-linejoin="round"/>
<path d="M25.8866 13.0906L25.221 10.6474C23.4042 4.09296 15.5733 1.13288 15.5733 1.13288C25.9179 -0.394142 33.2789 11.7437 33.2789 11.7437" stroke="#B7C0CD" stroke-width="1.5" stroke-miterlimit="10" stroke-linejoin="round"/>
<path d="M16.9906 14.1713C19.4558 14.1713 21.4542 12.1729 21.4542 9.70775C21.4542 7.24256 19.4558 5.24414 16.9906 5.24414C14.5255 5.24414 12.527 7.24256 12.527 9.70775C12.527 12.1729 14.5255 14.1713 16.9906 14.1713Z" fill="#30A3C7"/>
<path d="M15.7769 17.6561C15.7769 17.6561 23.686 13.1141 33.2397 11.7046C33.2397 11.7046 37.4684 16.3248 38.3298 25.6436C38.3298 25.6436 30.8905 25.4869 27.7581 30.9686C27.7581 30.9686 32.7699 19.3789 15.7769 17.6561Z" stroke="#B7C0CD" stroke-width="1.5" stroke-miterlimit="10" stroke-linejoin="round"/>
<path d="M28.1497 29.794C21.9633 53.8349 34.5006 61.0001 34.5006 61.0001C31.5953 48.7448 32.7543 40.029 33.5452 36.0118C33.9367 34.0227 36.1059 32.9499 37.9227 33.8426C43.5374 36.3407 44.5789 45.0564 44.5789 45.0564C45.8005 41.235 45.5029 37.7815 44.6729 34.9781C43.6862 31.6343 41.7598 28.6507 39.1599 26.3328L38.0949 25.3853" stroke="#B7C0CD" stroke-width="1.5" stroke-miterlimit="10" stroke-linejoin="round"/>
<path d="M26.3877 13.2551L27.6093 14.0382C28.8544 14.8291 28.596 16.7164 27.1865 17.1471C25.7064 17.6013 24.1168 17.4995 22.7072 16.8573L19.9586 15.6122" stroke="#B7C0CD" stroke-width="1.5" stroke-miterlimit="10" stroke-linejoin="round"/>
</svg>
