<svg width="20" height="20" viewBox="0 0 20 20" fill="none" xmlns="http://www.w3.org/2000/svg">
<path d="M15 8.5V17.3164C15 18.3383 14.2407 19.1667 13.3039 19.1667H2.52942C1.5927 19.1667 0.833344 18.3383 0.833344 17.3164V6.85025C0.833344 5.82839 1.5927 5 2.52942 5H11.7318" stroke="#30A3C7" stroke-width="1.5" stroke-linecap="round" stroke-linejoin="round"/>
<path d="M15.7762 1.40765L6.66187 10.4158L5.83331 14.1666L9.62766 13.347L18.4609 4.61595C18.9011 4.19138 19.1527 3.6114 19.1604 3.00351C19.2269 2.26278 18.7489 1.60876 18.5016 1.37434C18.1356 1.02177 17.643 0.827218 17.1319 0.833459C16.6209 0.8397 16.1333 1.04624 15.7762 1.40765Z" stroke="#30A3C7" stroke-width="1.5" stroke-linecap="round" stroke-linejoin="round"/>
<path d="M15 2.5L17.5 5" stroke="#30A3C7" stroke-width="1.5" stroke-linecap="round" stroke-linejoin="round"/>
</svg>
