<svg width="106" height="108" viewBox="0 0 106 108" fill="none" xmlns="http://www.w3.org/2000/svg">
<path d="M52.86 105.72C82.0538 105.72 105.72 82.0538 105.72 52.86C105.72 23.6662 82.0538 0 52.86 0C23.6662 0 0 23.6662 0 52.86C0 82.0538 23.6662 105.72 52.86 105.72Z" fill="#F0F4F7"/>
<path d="M69.315 11.285H36.645C31.7821 11.285 27.84 15.2272 27.84 20.09V97.41C27.84 102.273 31.7821 106.215 36.645 106.215H69.315C74.1778 106.215 78.12 102.273 78.12 97.41V20.09C78.12 15.2272 74.1778 11.285 69.315 11.285Z" fill="white" stroke="#B8C0CC" stroke-width="1.88" stroke-miterlimit="10"/>
<path d="M63.2336 65.3286V55.0879C63.2336 49.3931 58.6001 44.76 52.9048 44.76C47.2585 44.76 42.6649 49.3535 42.6649 54.9998C42.6649 60.6951 47.2981 65.3286 52.9929 65.3286H63.2336ZM63.6681 67.8286H52.9929C45.9082 67.8286 40.1649 62.0854 40.1649 54.9998C40.1649 47.964 45.8689 42.26 52.9048 42.26C59.9905 42.26 65.7336 48.0032 65.7336 55.0879V65.7629C65.7336 66.9036 64.8085 67.8286 63.6681 67.8286Z" fill="#30A3C7"/>
<path d="M37.157 11.2839L39.7079 16.2159C39.9278 16.6412 40.2605 16.9978 40.6696 17.2467C41.0786 17.4956 41.5482 17.6271 42.027 17.627H63.771C64.2382 17.627 64.6969 17.5017 65.0991 17.264C65.5014 17.0264 65.8325 16.6852 66.058 16.276L68.808 11.285" fill="#B8C0CC"/>
<path d="M27.839 90.187H78.085" stroke="#B8C0CC" stroke-width="1.88"/>
<path d="M52.9489 101.297C54.9532 101.297 56.5779 99.6722 56.5779 97.6679C56.5779 95.6637 54.9532 94.0389 52.9489 94.0389C50.9447 94.0389 49.3199 95.6637 49.3199 97.6679C49.3199 99.6722 50.9447 101.297 52.9489 101.297Z" fill="#B8C0CC"/>
</svg>
