<svg width="59" height="61" viewBox="0 0 59 61" fill="none" xmlns="http://www.w3.org/2000/svg">
<path d="M34.0209 28.0076C34.0209 28.0076 42.8048 39.1329 41.0584 42.6183C39.3195 46.1038 29.785 54.524 34.0506 56.9913C38.3163 59.4586 36.8597 59.3694 36.8597 59.3694C36.8597 59.3694 32.5272 60.0457 29.6438 57.7939C27.5779 56.1812 34.3851 44.781 35.2545 43.5473C36.0794 42.3731 35.9902 39.0214 31.1821 35.9521C30.7214 35.6548 30.1195 35.692 29.7033 36.0413C26.9983 38.2782 17.3079 46.756 13.1612 54.1505C12.1863 56.1003 12.1862 55.8171 11.2114 59.9999C10.0298 59.6358 9.31763 58.5376 9.74896 55.6129C10.3542 51.5091 17.2557 41.9495 18.8461 39.6308C20.4438 37.3047 24.5088 28.9588 24.65 28.015H34.0209V28.0076Z" fill="white" stroke="#B8C0CC" stroke-width="1.5" stroke-miterlimit="10"/>
<path d="M29.2469 9.74896C31.9387 9.74896 34.1213 7.56441 34.1213 4.87448C34.1213 2.18455 31.9387 0 29.2469 0C26.555 0 24.3724 2.18455 24.3724 4.87448C24.3724 7.57256 26.555 9.74896 29.2469 9.74896Z" fill="#30A3C7"/>
<path d="M3.4631 16.1689C3.27731 16.05 9.92096 17.9079 17.2557 15.2251C24.5905 12.5422 30.1789 11.1599 36.0571 12.2524C41.9353 13.3448 47.5609 15.8345 56.0921 15.3737C56.0921 15.3737 49.285 19.6024 37.1644 18.0045C37.1644 18.0045 35.1133 26.9152 34.0283 28.0076C32.9359 29.1001 28.2244 31.7086 24.6648 28.0076C24.6648 28.0076 23.6839 19.751 23.4684 18.6585C23.4609 18.6585 12.6854 22.2183 3.4631 16.1689Z" fill="white" stroke="#B8C0CC" stroke-width="1.5" stroke-miterlimit="10"/>
<path d="M24.1 13.0178C24.1 13.0178 25.7275 15.6115 23.4609 18.6585" stroke="#B8C0CC" stroke-width="1.5" stroke-miterlimit="10"/>
<path d="M35.4849 12.2524C35.4849 12.2524 34.7714 15.9757 37.1644 18.0046" stroke="#B8C0CC" stroke-width="1.5" stroke-miterlimit="10"/>
<path d="M27.4961 12.2745C27.4961 12.2745 28.0757 15.2992 30.2531 15.3736C32.4305 15.4479 32.6758 13.2704 32.4231 11.8955" stroke="#B8C0CC" stroke-width="1.5" stroke-miterlimit="10"/>
<path d="M8.99896 21.979C8.99896 24.2569 7.15237 26.1035 4.87448 26.1035C2.59659 26.1035 0.75 24.2569 0.75 21.979C0.75 19.7011 2.59659 17.8545 4.87448 17.8545C7.15237 17.8545 8.99896 19.7011 8.99896 21.979Z" stroke="#B8C0CC" stroke-width="1.5"/>
<path d="M5.72214 17.8418H3.90889C3.62458 17.8418 3.38812 17.6054 3.38812 17.321V16.5184C3.38812 16.234 3.62459 15.9976 3.90889 15.9976H5.72214C6.00645 15.9976 6.24291 16.234 6.24291 16.5184V17.3162C6.23808 17.6126 5.9983 17.8418 5.72214 17.8418Z" stroke="#B8C0CC" stroke-width="1.5"/>
</svg>
