<svg width="220" height="175" viewBox="0 0 220 175" fill="none" xmlns="http://www.w3.org/2000/svg">
<path d="M99.1853 66.0611L99.1849 66.0601C96.6309 59.8904 92.8782 54.2841 88.1533 49.5615C83.4288 44.8393 77.8198 41.0939 71.646 38.5348C65.4729 35.976 58.8575 34.6617 52.1778 34.6617C38.59 34.6617 25.555 40.0594 15.9475 49.6622C6.34016 59.2651 0.940063 72.2937 0.940063 85.8747V129.273C0.940063 130.25 1.13424 131.218 1.50932 132.132C1.88158 133.033 2.43343 133.854 3.12521 134.551C3.8195 135.244 4.63945 135.791 5.54377 136.164C6.45065 136.538 7.41932 136.732 8.40303 136.732H51.8223C58.5491 136.732 65.2123 135.406 71.4274 132.835C77.642 130.264 83.2924 126.49 88.0526 121.732C92.807 116.974 96.5835 111.332 99.1612 105.115C101.733 98.9026 103.06 92.2428 103.06 85.5193C103.06 78.837 101.745 72.2249 99.1853 66.0611Z" fill="white" stroke="#B8C0CC" stroke-width="1.88"/>
<path d="M19.2949 47.436C9.21091 56.7132 1.4634 70.1348 1.42785 83.8409V128.436C1.43377 130.379 2.13857 132.656 3.51338 134.025C4.8882 135.399 6.74302 136.169 8.68672 136.175H20.9083C18.9646 136.169 17.1695 134.981 15.8006 133.607C14.4258 132.233 13.6554 130.373 13.6495 128.436V83.8409C13.6495 50.5199 56.686 32.1084 53.1849 32.1084C39.4604 32.1499 28.9897 37.7458 19.2949 47.436Z" fill="#EAEFF4"/>
<path d="M66.0439 79.6701C66.0439 78.3848 65.5343 77.1469 64.6217 76.2406C63.7091 75.3285 62.4765 74.8191 61.1905 74.8191C59.9046 74.8191 58.6661 75.3285 57.7594 76.2406C56.8468 77.1528 56.3372 78.3848 56.3372 79.6701" stroke="#B8C0CC" stroke-width="1.88" stroke-linecap="round" stroke-linejoin="round"/>
<path d="M88.6158 79.6701C88.6158 78.3848 88.1062 77.1469 87.1936 76.2406C86.281 75.3285 85.0484 74.8191 83.7624 74.8191C82.4765 74.8191 81.238 75.3285 80.3313 76.2406C79.4187 77.1528 78.9091 78.3848 78.9091 79.6701" stroke="#B8C0CC" stroke-width="1.88" stroke-linecap="round" stroke-linejoin="round"/>
<path opacity="0.7" d="M94.3195 57.9233L5.17733 66.7971C8.00084 60.7468 11.2277 55.0997 16.4714 50.0578L47.9333 46.6292L79.3952 43.2007C86.6557 48.4443 91.496 53.083 94.3195 57.9233Z" fill="#B2DBE7"/>
<path d="M79.6723 11.2822C90.4923 24.459 84.1002 38.1818 80.6053 42.1923C63.6929 45.9212 17.6814 49.0494 16.068 49.4527C24.1352 40.5789 32.2023 34.9318 46.052 28.6113C59.9016 22.2908 63.2587 20.7061 65.2777 14.3606C69.2339 17.2737 69.2339 25.4685 69.2339 25.4685C75.3403 24.6115 79.3599 14.0944 79.6723 11.2822Z" fill="white" stroke="#B8C0CC" stroke-width="1.88" stroke-linecap="round" stroke-linejoin="round"/>
<path d="M65.6003 15.7078C68.0205 18.9346 68.0205 22.1615 68.0205 22.1615C54.8323 33.7012 47.4493 32.2454 32.5249 47.1697L18.004 48.3798C24.8611 40.716 34.1383 34.6656 45.029 29.8253C55.9197 24.985 63.9869 21.7581 65.6003 15.7078Z" fill="#EAEFF4"/>
<path d="M125.288 88.13H66.146C63.4244 88.13 61.218 90.3363 61.218 93.058V142.78C61.218 145.502 63.4244 147.708 66.146 147.708H125.288C128.01 147.708 130.216 145.502 130.216 142.78V93.058C130.216 90.3363 128.01 88.13 125.288 88.13Z" fill="white" stroke="#B8C0CC" stroke-width="1.88" stroke-linecap="round" stroke-linejoin="round"/>
<path d="M82.386 111.238H79.467C76.9668 111.238 74.94 113.265 74.94 115.765V118.684C74.94 121.184 76.9668 123.211 79.467 123.211H82.386C84.8862 123.211 86.913 121.184 86.913 118.684V115.765C86.913 113.265 84.8862 111.238 82.386 111.238Z" fill="#EAEFF4"/>
<path d="M82.386 125.782H79.467C76.9668 125.782 74.94 127.809 74.94 130.309V133.228C74.94 135.728 76.9668 137.755 79.467 137.755H82.386C84.8862 137.755 86.913 135.728 86.913 133.228V130.309C86.913 127.809 84.8862 125.782 82.386 125.782Z" fill="#EAEFF4"/>
<path d="M97.824 111.238H94.905C92.4048 111.238 90.378 113.265 90.378 115.765V118.684C90.378 121.184 92.4048 123.211 94.905 123.211H97.824C100.324 123.211 102.351 121.184 102.351 118.684V115.765C102.351 113.265 100.324 111.238 97.824 111.238Z" fill="#EAEFF4"/>
<path d="M97.824 125.782H94.905C92.4048 125.782 90.378 127.809 90.378 130.309V133.228C90.378 135.728 92.4048 137.755 94.905 137.755H97.824C100.324 137.755 102.351 135.728 102.351 133.228V130.309C102.351 127.809 100.324 125.782 97.824 125.782Z" fill="#EAEFF4"/>
<path d="M114.929 111.238H112.01C109.51 111.238 107.483 113.265 107.483 115.765V118.684C107.483 121.184 109.51 123.211 112.01 123.211H114.929C117.429 123.211 119.456 121.184 119.456 118.684V115.765C119.456 113.265 117.429 111.238 114.929 111.238Z" fill="#EAEFF4"/>
<path d="M114.929 125.782H112.01C109.51 125.782 107.483 127.809 107.483 130.309V133.228C107.483 135.728 109.51 137.755 112.01 137.755H114.929C117.429 137.755 119.456 135.728 119.456 133.228V130.309C119.456 127.809 117.429 125.782 114.929 125.782Z" fill="#EAEFF4"/>
<path d="M64.099 110.465L77.393 110.484C77.7671 110.484 78.1258 110.634 78.3901 110.898C78.6545 111.163 78.803 111.522 78.803 111.896L78.777 131.107C78.7767 131.292 78.74 131.475 78.6689 131.646C78.5978 131.817 78.4937 131.973 78.3626 132.103C78.2315 132.234 78.0759 132.338 77.9047 132.408C77.7336 132.479 77.5502 132.515 77.365 132.515L64.071 132.497" fill="#6BBEA1"/>
<path d="M71.1006 110.476L71.071 132.508L74.911 132.513L74.9406 110.481L71.1006 110.476Z" fill="#498679"/>
<path opacity="0.5" d="M65.404 123.627C66.1668 123.674 66.8827 124.011 67.4058 124.568C67.9288 125.125 68.2195 125.861 68.2184 126.625C68.2174 127.389 67.9248 128.125 67.4003 128.68C66.8757 129.236 66.1589 129.571 65.396 129.616" fill="#498679"/>
<path opacity="0.5" d="M65.408 120.747C66.1708 120.794 66.8868 121.131 67.4098 121.688C67.9328 122.245 68.2235 122.981 68.2225 123.745C68.2215 124.509 67.9288 125.244 67.4043 125.8C66.8798 126.356 66.1629 126.691 65.4 126.736" fill="#498679"/>
<path d="M102.071 147.708H88.658C87.7374 147.708 86.991 148.454 86.991 149.375V153.975C86.991 154.896 87.7374 155.642 88.658 155.642H102.071C102.992 155.642 103.738 154.896 103.738 153.975V149.375C103.738 148.454 102.992 147.708 102.071 147.708Z" fill="white" stroke="#B8C0CC" stroke-width="1.88" stroke-linecap="round" stroke-linejoin="round"/>
<path d="M61.913 106.638H60.523C59.3317 106.638 58.366 107.604 58.366 108.795V133.216C58.366 134.407 59.3317 135.373 60.523 135.373H61.913C63.1043 135.373 64.07 134.407 64.07 133.216V108.795C64.07 107.604 63.1043 106.638 61.913 106.638Z" fill="white" stroke="#B8C0CC" stroke-width="1.88" stroke-linecap="round" stroke-linejoin="round"/>
<path d="M82.858 155.643H108.081" stroke="#B8C0CC" stroke-width="1.88" stroke-linecap="round" stroke-linejoin="round"/>
<path d="M211.103 173.474H170.174C157.131 173.474 144.622 168.293 135.399 159.07C126.176 149.847 120.995 137.338 120.995 124.295C120.995 117.88 122.258 111.528 124.713 105.602C127.168 99.6755 130.766 94.2906 135.302 89.7547C139.838 85.2188 145.222 81.6207 151.149 79.166C157.075 76.7112 163.427 75.4479 169.842 75.448C182.885 75.448 195.394 80.6293 204.617 89.8522C213.84 99.0751 219.021 111.584 219.021 124.627V165.556C219.021 167.656 218.187 169.67 216.702 171.155C215.217 172.64 213.203 173.474 211.103 173.474V173.474Z" fill="white"/>
<path opacity="0.6" d="M170.453 75.5239C167.908 75.525 165.367 75.7256 162.853 76.1239C182.837 75.6549 209.995 90.4189 209.995 124.31V166.364C209.99 168.193 209.261 169.945 207.969 171.239C206.676 172.533 204.924 173.262 203.095 173.269H212.331C214.161 173.264 215.914 172.534 217.208 171.241C218.502 169.947 219.231 168.194 219.237 166.364V124.307C219.199 111.38 214.047 98.9939 204.907 89.8535C195.766 80.713 183.38 75.5614 170.453 75.5239Z" fill="#B2DBE7"/>
<path d="M211.103 173.474H170.174C157.131 173.474 144.622 168.293 135.399 159.07C126.176 149.847 120.995 137.338 120.995 124.295C120.995 117.88 122.258 111.528 124.713 105.602C127.168 99.6755 130.766 94.2906 135.302 89.7547C139.838 85.2188 145.222 81.6207 151.149 79.166C157.075 76.7112 163.427 75.4479 169.842 75.448C182.885 75.448 195.394 80.6293 204.617 89.8522C213.84 99.075 219.021 111.584 219.021 124.627V165.556C219.021 167.656 218.187 169.67 216.702 171.155C215.217 172.64 213.203 173.474 211.103 173.474Z" stroke="#30A3C7" stroke-width="1.88" stroke-linecap="round" stroke-linejoin="round"/>
<path d="M146.405 109.846C146.632 107.042 145.395 104.655 143.643 104.513C141.891 104.371 140.287 106.529 140.06 109.333C139.833 112.136 141.069 114.524 142.822 114.666C144.574 114.807 146.178 112.65 146.405 109.846Z" fill="#30A3C7"/>
<path d="M80.65 112.343C81.543 112.343 82.4159 112.608 83.1584 113.104C83.9009 113.6 84.4796 114.305 84.8213 115.13C85.1631 115.955 85.2525 116.863 85.0783 117.739C84.904 118.615 84.474 119.419 83.8426 120.051C83.2112 120.682 82.4067 121.112 81.5308 121.286C80.655 121.46 79.7472 121.371 78.9222 121.029C78.0972 120.688 77.392 120.109 76.8959 119.366C76.3998 118.624 76.135 117.751 76.135 116.858C76.135 115.661 76.6107 114.512 77.4574 113.665C78.3041 112.819 79.4526 112.343 80.65 112.343V112.343Z" fill="#30A3C7"/>
<path d="M80.65 116.858C80.65 116.858 109.65 148.958 159.075 138.596" stroke="#30A3C7" stroke-width="1.88" stroke-linecap="round" stroke-linejoin="round"/>
<path d="M70.15 101.08C69.6433 101.08 69.16 101.01 68.7 100.87C68.2467 100.73 67.8833 100.537 67.61 100.29C67.4833 100.183 67.42 100.047 67.42 99.88C67.42 99.76 67.4533 99.66 67.52 99.58C67.5867 99.4933 67.6667 99.45 67.76 99.45C67.8533 99.45 67.9667 99.4933 68.1 99.58C68.6933 100.02 69.37 100.24 70.13 100.24C70.6633 100.24 71.0733 100.14 71.36 99.94C71.6467 99.74 71.79 99.4533 71.79 99.08C71.79 98.7867 71.6567 98.5667 71.39 98.42C71.1233 98.2733 70.6967 98.1333 70.11 98C69.55 97.88 69.09 97.7433 68.73 97.59C68.37 97.4367 68.0867 97.23 67.88 96.97C67.68 96.7033 67.58 96.3667 67.58 95.96C67.58 95.5533 67.69 95.1933 67.91 94.88C68.1367 94.56 68.45 94.3133 68.85 94.14C69.25 93.96 69.7067 93.87 70.22 93.87C70.6933 93.87 71.13 93.9367 71.53 94.07C71.93 94.2033 72.27 94.4 72.55 94.66C72.6833 94.7733 72.75 94.91 72.75 95.07C72.75 95.1833 72.7133 95.2833 72.64 95.37C72.5733 95.4567 72.4933 95.5 72.4 95.5C72.3133 95.5 72.2033 95.4567 72.07 95.37C71.7633 95.1367 71.4733 94.97 71.2 94.87C70.9333 94.7633 70.61 94.71 70.23 94.71C69.7167 94.71 69.3167 94.8167 69.03 95.03C68.7433 95.2367 68.6 95.5267 68.6 95.9C68.6 96.22 68.7267 96.4633 68.98 96.63C69.2333 96.79 69.64 96.9367 70.2 97.07C70.7867 97.2033 71.26 97.3433 71.62 97.49C71.9867 97.63 72.2767 97.8267 72.49 98.08C72.71 98.3267 72.82 98.6467 72.82 99.04C72.82 99.44 72.7067 99.7967 72.48 100.11C72.26 100.417 71.9467 100.657 71.54 100.83C71.14 100.997 70.6767 101.08 70.15 101.08ZM77.7895 99.77C77.8829 99.77 77.9595 99.8067 78.0195 99.88C78.0795 99.9533 78.1095 100.047 78.1095 100.16C78.1095 100.353 77.9895 100.517 77.7495 100.65C77.5162 100.783 77.2595 100.887 76.9795 100.96C76.7062 101.033 76.4429 101.07 76.1895 101.07C75.4162 101.07 74.8062 100.847 74.3595 100.4C73.9129 99.9467 73.6895 99.33 73.6895 98.55C73.6895 98.05 73.7862 97.6067 73.9795 97.22C74.1795 96.8333 74.4562 96.5333 74.8095 96.32C75.1695 96.1067 75.5762 96 76.0295 96C76.6829 96 77.1995 96.21 77.5795 96.63C77.9595 97.05 78.1495 97.6167 78.1495 98.33C78.1495 98.5967 78.0295 98.73 77.7895 98.73H74.6995C74.7662 99.7633 75.2629 100.28 76.1895 100.28C76.4362 100.28 76.6495 100.247 76.8295 100.18C77.0095 100.113 77.1995 100.027 77.3995 99.92C77.4195 99.9067 77.4729 99.88 77.5595 99.84C77.6529 99.7933 77.7295 99.77 77.7895 99.77ZM76.0495 96.74C75.6629 96.74 75.3529 96.8633 75.1195 97.11C74.8862 97.3567 74.7462 97.7033 74.6995 98.15H77.2795C77.2595 97.6967 77.1429 97.35 76.9295 97.11C76.7229 96.8633 76.4295 96.74 76.0495 96.74ZM80.9625 101.07C80.2825 101.07 79.7258 100.93 79.2925 100.65C79.1725 100.577 79.0858 100.5 79.0325 100.42C78.9858 100.34 78.9625 100.25 78.9625 100.15C78.9625 100.043 78.9925 99.9533 79.0525 99.88C79.1125 99.8067 79.1892 99.77 79.2825 99.77C79.3692 99.77 79.5058 99.8233 79.6925 99.93C79.8925 100.037 80.0858 100.123 80.2725 100.19C80.4658 100.257 80.7058 100.29 80.9925 100.29C81.3125 100.29 81.5625 100.233 81.7425 100.12C81.9225 100.007 82.0125 99.8467 82.0125 99.64C82.0125 99.5067 81.9758 99.4 81.9025 99.32C81.8358 99.24 81.7158 99.17 81.5425 99.11C81.3692 99.0433 81.1125 98.9733 80.7725 98.9C80.1858 98.7733 79.7625 98.6033 79.5025 98.39C79.2492 98.17 79.1225 97.8733 79.1225 97.5C79.1225 97.2133 79.2058 96.9567 79.3725 96.73C79.5392 96.4967 79.7692 96.3167 80.0625 96.19C80.3558 96.0633 80.6892 96 81.0625 96C81.3292 96 81.5892 96.0367 81.8425 96.11C82.0958 96.1767 82.3192 96.2767 82.5125 96.41C82.7325 96.5567 82.8425 96.7267 82.8425 96.92C82.8425 97.0267 82.8092 97.1167 82.7425 97.19C82.6825 97.2633 82.6092 97.3 82.5225 97.3C82.4625 97.3 82.4025 97.2867 82.3425 97.26C82.2825 97.2333 82.2025 97.19 82.1025 97.13C81.9225 97.0233 81.7525 96.94 81.5925 96.88C81.4392 96.82 81.2458 96.79 81.0125 96.79C80.7325 96.79 80.5058 96.85 80.3325 96.97C80.1658 97.09 80.0825 97.2533 80.0825 97.46C80.0825 97.6467 80.1592 97.7933 80.3125 97.9C80.4725 98 80.7692 98.0967 81.2025 98.19C81.6492 98.2833 81.9992 98.39 82.2525 98.51C82.5058 98.63 82.6858 98.78 82.7925 98.96C82.9058 99.1333 82.9625 99.3567 82.9625 99.63C82.9625 100.063 82.7792 100.413 82.4125 100.68C82.0525 100.94 81.5692 101.07 80.9625 101.07ZM85.7867 101.07C85.1067 101.07 84.5501 100.93 84.1167 100.65C83.9967 100.577 83.9101 100.5 83.8567 100.42C83.8101 100.34 83.7867 100.25 83.7867 100.15C83.7867 100.043 83.8167 99.9533 83.8767 99.88C83.9367 99.8067 84.0134 99.77 84.1067 99.77C84.1934 99.77 84.3301 99.8233 84.5167 99.93C84.7167 100.037 84.9101 100.123 85.0967 100.19C85.2901 100.257 85.5301 100.29 85.8167 100.29C86.1367 100.29 86.3867 100.233 86.5667 100.12C86.7467 100.007 86.8367 99.8467 86.8367 99.64C86.8367 99.5067 86.8001 99.4 86.7267 99.32C86.6601 99.24 86.5401 99.17 86.3667 99.11C86.1934 99.0433 85.9367 98.9733 85.5967 98.9C85.0101 98.7733 84.5867 98.6033 84.3267 98.39C84.0734 98.17 83.9467 97.8733 83.9467 97.5C83.9467 97.2133 84.0301 96.9567 84.1967 96.73C84.3634 96.4967 84.5934 96.3167 84.8867 96.19C85.1801 96.0633 85.5134 96 85.8867 96C86.1534 96 86.4134 96.0367 86.6667 96.11C86.9201 96.1767 87.1434 96.2767 87.3367 96.41C87.5567 96.5567 87.6667 96.7267 87.6667 96.92C87.6667 97.0267 87.6334 97.1167 87.5667 97.19C87.5067 97.2633 87.4334 97.3 87.3467 97.3C87.2867 97.3 87.2267 97.2867 87.1667 97.26C87.1067 97.2333 87.0267 97.19 86.9267 97.13C86.7467 97.0233 86.5767 96.94 86.4167 96.88C86.2634 96.82 86.0701 96.79 85.8367 96.79C85.5567 96.79 85.3301 96.85 85.1567 96.97C84.9901 97.09 84.9067 97.2533 84.9067 97.46C84.9067 97.6467 84.9834 97.7933 85.1367 97.9C85.2967 98 85.5934 98.0967 86.0267 98.19C86.4734 98.2833 86.8234 98.39 87.0767 98.51C87.3301 98.63 87.5101 98.78 87.6167 98.96C87.7301 99.1333 87.7867 99.3567 87.7867 99.63C87.7867 100.063 87.6034 100.413 87.2367 100.68C86.8767 100.94 86.3934 101.07 85.7867 101.07ZM89.4209 101.05C89.2743 101.05 89.1509 101.01 89.0509 100.93C88.9576 100.85 88.9109 100.73 88.9109 100.57V96.51C88.9109 96.35 88.9576 96.23 89.0509 96.15C89.1509 96.0633 89.2743 96.02 89.4209 96.02C89.5676 96.02 89.6876 96.0633 89.7809 96.15C89.8743 96.23 89.9209 96.35 89.9209 96.51V100.57C89.9209 100.73 89.8743 100.85 89.7809 100.93C89.6876 101.01 89.5676 101.05 89.4209 101.05ZM89.4209 95.04C89.2276 95.04 89.0743 94.9867 88.9609 94.88C88.8476 94.7733 88.7909 94.6333 88.7909 94.46C88.7909 94.2867 88.8476 94.15 88.9609 94.05C89.0743 93.9433 89.2276 93.89 89.4209 93.89C89.6076 93.89 89.7576 93.9433 89.8709 94.05C89.9909 94.15 90.0509 94.2867 90.0509 94.46C90.0509 94.6333 89.9943 94.7733 89.8809 94.88C89.7676 94.9867 89.6143 95.04 89.4209 95.04ZM93.4528 101.07C92.9728 101.07 92.5495 100.967 92.1828 100.76C91.8228 100.553 91.5428 100.26 91.3428 99.88C91.1495 99.4933 91.0528 99.0467 91.0528 98.54C91.0528 98.0267 91.1495 97.58 91.3428 97.2C91.5428 96.8133 91.8228 96.5167 92.1828 96.31C92.5495 96.1033 92.9728 96 93.4528 96C93.9328 96 94.3528 96.1033 94.7128 96.31C95.0795 96.5167 95.3595 96.8133 95.5528 97.2C95.7528 97.58 95.8528 98.0267 95.8528 98.54C95.8528 99.0467 95.7528 99.4933 95.5528 99.88C95.3595 100.26 95.0795 100.553 94.7128 100.76C94.3528 100.967 93.9328 101.07 93.4528 101.07ZM93.4528 100.27C93.8995 100.27 94.2395 100.123 94.4728 99.83C94.7128 99.5367 94.8328 99.1067 94.8328 98.54C94.8328 97.98 94.7128 97.5533 94.4728 97.26C94.2328 96.96 93.8928 96.81 93.4528 96.81C93.0128 96.81 92.6728 96.96 92.4328 97.26C92.1928 97.5533 92.0728 97.98 92.0728 98.54C92.0728 99.1067 92.1895 99.5367 92.4228 99.83C92.6628 100.123 93.0061 100.27 93.4528 100.27ZM99.6073 96C100.774 96 101.357 96.6567 101.357 97.97V100.57C101.357 100.723 101.311 100.843 101.217 100.93C101.131 101.01 101.007 101.05 100.847 101.05C100.694 101.05 100.571 101.007 100.477 100.92C100.391 100.833 100.347 100.717 100.347 100.57V98.02C100.347 97.6067 100.264 97.3033 100.097 97.11C99.9373 96.9167 99.684 96.82 99.3373 96.82C98.9307 96.82 98.604 96.9467 98.3573 97.2C98.1107 97.4533 97.9873 97.7933 97.9873 98.22V100.57C97.9873 100.717 97.9407 100.833 97.8473 100.92C97.7607 101.007 97.6407 101.05 97.4873 101.05C97.334 101.05 97.2107 101.007 97.1173 100.92C97.024 100.833 96.9773 100.717 96.9773 100.57V96.5C96.9773 96.36 97.024 96.2467 97.1173 96.16C97.2173 96.0667 97.3407 96.02 97.4873 96.02C97.634 96.02 97.7507 96.0633 97.8373 96.15C97.924 96.2367 97.9673 96.35 97.9673 96.49V96.9C98.1273 96.6067 98.3507 96.3833 98.6373 96.23C98.924 96.0767 99.2473 96 99.6073 96ZM107.466 101.07C106.992 101.07 106.576 100.967 106.216 100.76C105.862 100.553 105.586 100.26 105.386 99.88C105.192 99.5 105.096 99.06 105.096 98.56C105.096 98.0533 105.196 97.6067 105.396 97.22C105.602 96.8333 105.889 96.5333 106.256 96.32C106.622 96.1067 107.042 96 107.516 96C107.769 96 108.022 96.0367 108.276 96.11C108.536 96.1833 108.766 96.2833 108.966 96.41C109.179 96.5567 109.286 96.7267 109.286 96.92C109.286 97.0333 109.256 97.13 109.196 97.21C109.136 97.2833 109.059 97.32 108.966 97.32C108.906 97.32 108.846 97.3067 108.786 97.28C108.726 97.2467 108.649 97.2 108.556 97.14C108.389 97.0333 108.232 96.9533 108.086 96.9C107.946 96.84 107.776 96.81 107.576 96.81C107.122 96.81 106.769 96.9633 106.516 97.27C106.269 97.5767 106.146 98.0033 106.146 98.55C106.146 99.0967 106.269 99.52 106.516 99.82C106.762 100.113 107.112 100.26 107.566 100.26C107.766 100.26 107.942 100.23 108.096 100.17C108.249 100.11 108.406 100.03 108.566 99.93C108.639 99.8833 108.712 99.8433 108.786 99.81C108.859 99.7767 108.926 99.76 108.986 99.76C109.079 99.76 109.156 99.8 109.216 99.88C109.276 99.9533 109.306 100.047 109.306 100.16C109.306 100.253 109.279 100.34 109.226 100.42C109.179 100.493 109.096 100.57 108.976 100.65C108.776 100.783 108.542 100.887 108.276 100.96C108.009 101.033 107.739 101.07 107.466 101.07ZM112.33 101.07C111.85 101.07 111.426 100.967 111.06 100.76C110.7 100.553 110.42 100.26 110.22 99.88C110.026 99.4933 109.93 99.0467 109.93 98.54C109.93 98.0267 110.026 97.58 110.22 97.2C110.42 96.8133 110.7 96.5167 111.06 96.31C111.426 96.1033 111.85 96 112.33 96C112.81 96 113.23 96.1033 113.59 96.31C113.956 96.5167 114.236 96.8133 114.43 97.2C114.63 97.58 114.73 98.0267 114.73 98.54C114.73 99.0467 114.63 99.4933 114.43 99.88C114.236 100.26 113.956 100.553 113.59 100.76C113.23 100.967 112.81 101.07 112.33 101.07ZM112.33 100.27C112.776 100.27 113.116 100.123 113.35 99.83C113.59 99.5367 113.71 99.1067 113.71 98.54C113.71 97.98 113.59 97.5533 113.35 97.26C113.11 96.96 112.77 96.81 112.33 96.81C111.89 96.81 111.55 96.96 111.31 97.26C111.07 97.5533 110.95 97.98 110.95 98.54C110.95 99.1067 111.066 99.5367 111.3 99.83C111.54 100.123 111.883 100.27 112.33 100.27ZM117.554 101.07C116.874 101.07 116.318 100.93 115.884 100.65C115.764 100.577 115.678 100.5 115.624 100.42C115.578 100.34 115.554 100.25 115.554 100.15C115.554 100.043 115.584 99.9533 115.644 99.88C115.704 99.8067 115.781 99.77 115.874 99.77C115.961 99.77 116.098 99.8233 116.284 99.93C116.484 100.037 116.678 100.123 116.864 100.19C117.058 100.257 117.298 100.29 117.584 100.29C117.904 100.29 118.154 100.233 118.334 100.12C118.514 100.007 118.604 99.8467 118.604 99.64C118.604 99.5067 118.568 99.4 118.494 99.32C118.428 99.24 118.308 99.17 118.134 99.11C117.961 99.0433 117.704 98.9733 117.364 98.9C116.778 98.7733 116.354 98.6033 116.094 98.39C115.841 98.17 115.714 97.8733 115.714 97.5C115.714 97.2133 115.798 96.9567 115.964 96.73C116.131 96.4967 116.361 96.3167 116.654 96.19C116.948 96.0633 117.281 96 117.654 96C117.921 96 118.181 96.0367 118.434 96.11C118.688 96.1767 118.911 96.2767 119.104 96.41C119.324 96.5567 119.434 96.7267 119.434 96.92C119.434 97.0267 119.401 97.1167 119.334 97.19C119.274 97.2633 119.201 97.3 119.114 97.3C119.054 97.3 118.994 97.2867 118.934 97.26C118.874 97.2333 118.794 97.19 118.694 97.13C118.514 97.0233 118.344 96.94 118.184 96.88C118.031 96.82 117.838 96.79 117.604 96.79C117.324 96.79 117.098 96.85 116.924 96.97C116.758 97.09 116.674 97.2533 116.674 97.46C116.674 97.6467 116.751 97.7933 116.904 97.9C117.064 98 117.361 98.0967 117.794 98.19C118.241 98.2833 118.591 98.39 118.844 98.51C119.098 98.63 119.278 98.78 119.384 98.96C119.498 99.1333 119.554 99.3567 119.554 99.63C119.554 100.063 119.371 100.413 119.004 100.68C118.644 100.94 118.161 101.07 117.554 101.07ZM123.02 100.28C123.166 100.293 123.27 100.333 123.33 100.4C123.396 100.46 123.43 100.547 123.43 100.66C123.43 100.793 123.376 100.897 123.27 100.97C123.17 101.037 123.02 101.063 122.82 101.05L122.55 101.03C122.01 100.99 121.606 100.827 121.34 100.54C121.073 100.247 120.94 99.8167 120.94 99.25V96.9H120.34C120.046 96.9 119.9 96.77 119.9 96.51C119.9 96.39 119.936 96.2967 120.01 96.23C120.09 96.1567 120.2 96.12 120.34 96.12H120.94V95.09C120.94 94.9367 120.983 94.8167 121.07 94.73C121.163 94.6433 121.286 94.6 121.44 94.6C121.593 94.6 121.716 94.6433 121.81 94.73C121.903 94.8167 121.95 94.9367 121.95 95.09V96.12H122.94C123.08 96.12 123.186 96.1567 123.26 96.23C123.34 96.2967 123.38 96.39 123.38 96.51C123.38 96.6367 123.34 96.7333 123.26 96.8C123.186 96.8667 123.08 96.9 122.94 96.9H121.95V99.32C121.95 99.6333 122.013 99.8633 122.14 100.01C122.273 100.157 122.473 100.24 122.74 100.26L123.02 100.28Z" fill="#B2B9C5"/>
<path d="M115.322 19.055C115.153 19.055 115.014 19.0037 114.904 18.901C114.801 18.791 114.75 18.6517 114.75 18.483V12.191H112.55C112.198 12.191 112.022 12.0333 112.022 11.718C112.022 11.564 112.066 11.4467 112.154 11.366C112.249 11.2853 112.381 11.245 112.55 11.245H118.094C118.263 11.245 118.391 11.2853 118.479 11.366C118.574 11.4467 118.622 11.564 118.622 11.718C118.622 12.0333 118.446 12.191 118.094 12.191H115.894V18.483C115.894 18.6517 115.843 18.791 115.74 18.901C115.637 19.0037 115.498 19.055 115.322 19.055ZM122.334 13.5C123.61 13.5 124.248 14.2223 124.248 15.667V18.527C124.248 18.6883 124.197 18.8167 124.094 18.912C123.991 19.0073 123.856 19.055 123.687 19.055C123.518 19.055 123.383 19.0073 123.28 18.912C123.185 18.8167 123.137 18.6883 123.137 18.527V15.678C123.137 15.238 123.045 14.9153 122.862 14.71C122.686 14.5047 122.407 14.402 122.026 14.402C121.579 14.402 121.219 14.5413 120.948 14.82C120.677 15.0987 120.541 15.4727 120.541 15.942V18.527C120.541 18.6883 120.49 18.8167 120.387 18.912C120.292 19.0073 120.16 19.055 119.991 19.055C119.822 19.055 119.687 19.0073 119.584 18.912C119.481 18.8167 119.43 18.6883 119.43 18.527V11.718C119.43 11.5567 119.481 11.4283 119.584 11.333C119.694 11.2377 119.833 11.19 120.002 11.19C120.163 11.19 120.292 11.2377 120.387 11.333C120.49 11.421 120.541 11.542 120.541 11.696V14.446C120.724 14.138 120.97 13.9033 121.278 13.742C121.586 13.5807 121.938 13.5 122.334 13.5ZM128.023 13.5C128.734 13.5 129.262 13.6797 129.607 14.039C129.959 14.3983 130.135 14.9447 130.135 15.678V18.527C130.135 18.6957 130.087 18.8277 129.992 18.923C129.897 19.011 129.765 19.055 129.596 19.055C129.435 19.055 129.306 19.0073 129.211 18.912C129.116 18.8167 129.068 18.6883 129.068 18.527V18.12C128.929 18.428 128.72 18.6663 128.441 18.835C128.17 18.9963 127.851 19.077 127.484 19.077C127.132 19.077 126.809 19.0073 126.516 18.868C126.223 18.7213 125.992 18.5197 125.823 18.263C125.662 18.0063 125.581 17.7203 125.581 17.405C125.581 17.0163 125.68 16.712 125.878 16.492C126.083 16.2647 126.417 16.1033 126.879 16.008C127.348 15.9127 127.99 15.865 128.804 15.865H129.057V15.546C129.057 15.1353 128.973 14.8383 128.804 14.655C128.635 14.4717 128.364 14.38 127.99 14.38C127.733 14.38 127.491 14.413 127.264 14.479C127.037 14.545 126.787 14.6403 126.516 14.765C126.318 14.875 126.179 14.93 126.098 14.93C125.988 14.93 125.896 14.8897 125.823 14.809C125.757 14.7283 125.724 14.6257 125.724 14.501C125.724 14.391 125.753 14.2957 125.812 14.215C125.878 14.127 125.981 14.0427 126.12 13.962C126.377 13.8227 126.677 13.7127 127.022 13.632C127.367 13.544 127.7 13.5 128.023 13.5ZM127.682 18.252C128.085 18.252 128.415 18.1163 128.672 17.845C128.929 17.5663 129.057 17.2107 129.057 16.778V16.492H128.859C128.287 16.492 127.847 16.5177 127.539 16.569C127.231 16.6203 127.011 16.7083 126.879 16.833C126.747 16.9503 126.681 17.1227 126.681 17.35C126.681 17.614 126.776 17.8303 126.967 17.999C127.158 18.1677 127.396 18.252 127.682 18.252ZM134.548 13.5C135.831 13.5 136.473 14.2223 136.473 15.667V18.527C136.473 18.6957 136.421 18.8277 136.319 18.923C136.223 19.011 136.088 19.055 135.912 19.055C135.743 19.055 135.607 19.0073 135.505 18.912C135.409 18.8167 135.362 18.6883 135.362 18.527V15.722C135.362 15.2673 135.27 14.9337 135.087 14.721C134.911 14.5083 134.632 14.402 134.251 14.402C133.803 14.402 133.444 14.5413 133.173 14.82C132.901 15.0987 132.766 15.4727 132.766 15.942V18.527C132.766 18.6883 132.714 18.8167 132.612 18.912C132.516 19.0073 132.384 19.055 132.216 19.055C132.047 19.055 131.911 19.0073 131.809 18.912C131.706 18.8167 131.655 18.6883 131.655 18.527V14.05C131.655 13.896 131.706 13.7713 131.809 13.676C131.919 13.5733 132.054 13.522 132.216 13.522C132.377 13.522 132.505 13.5697 132.601 13.665C132.696 13.7603 132.744 13.885 132.744 14.039V14.49C132.92 14.1673 133.165 13.9217 133.481 13.753C133.796 13.5843 134.152 13.5 134.548 13.5ZM142.503 18.131C142.635 18.241 142.701 18.3767 142.701 18.538C142.701 18.6773 142.653 18.7983 142.558 18.901C142.462 19.0037 142.349 19.055 142.217 19.055C142.077 19.055 141.953 19.0037 141.843 18.901L139.104 16.481V18.516C139.104 18.692 139.052 18.8277 138.95 18.923C138.847 19.011 138.715 19.055 138.554 19.055C138.392 19.055 138.257 19.011 138.147 18.923C138.044 18.8277 137.993 18.692 137.993 18.516V11.729C137.993 11.553 138.044 11.421 138.147 11.333C138.257 11.2377 138.392 11.19 138.554 11.19C138.715 11.19 138.847 11.2377 138.95 11.333C139.052 11.421 139.104 11.553 139.104 11.729V16.041L141.612 13.698C141.736 13.588 141.857 13.533 141.975 13.533C142.114 13.533 142.235 13.5843 142.338 13.687C142.44 13.7897 142.492 13.9107 142.492 14.05C142.492 14.1893 142.429 14.3177 142.305 14.435L140.347 16.228L142.503 18.131ZM145.459 19.077C144.711 19.077 144.099 18.923 143.622 18.615C143.49 18.5343 143.395 18.45 143.336 18.362C143.285 18.274 143.259 18.175 143.259 18.065C143.259 17.9477 143.292 17.8487 143.358 17.768C143.424 17.6873 143.509 17.647 143.611 17.647C143.707 17.647 143.857 17.7057 144.062 17.823C144.282 17.9403 144.495 18.0357 144.7 18.109C144.913 18.1823 145.177 18.219 145.492 18.219C145.844 18.219 146.119 18.1567 146.317 18.032C146.515 17.9073 146.614 17.7313 146.614 17.504C146.614 17.3573 146.574 17.24 146.493 17.152C146.42 17.064 146.288 16.987 146.097 16.921C145.907 16.8477 145.624 16.7707 145.25 16.69C144.605 16.5507 144.139 16.3637 143.853 16.129C143.575 15.887 143.435 15.5607 143.435 15.15C143.435 14.8347 143.527 14.5523 143.71 14.303C143.894 14.0463 144.147 13.8483 144.469 13.709C144.792 13.5697 145.159 13.5 145.569 13.5C145.863 13.5 146.149 13.5403 146.427 13.621C146.706 13.6943 146.952 13.8043 147.164 13.951C147.406 14.1123 147.527 14.2993 147.527 14.512C147.527 14.6293 147.491 14.7283 147.417 14.809C147.351 14.8897 147.271 14.93 147.175 14.93C147.109 14.93 147.043 14.9153 146.977 14.886C146.911 14.8567 146.823 14.809 146.713 14.743C146.515 14.6257 146.328 14.534 146.152 14.468C145.984 14.402 145.771 14.369 145.514 14.369C145.206 14.369 144.957 14.435 144.766 14.567C144.583 14.699 144.491 14.8787 144.491 15.106C144.491 15.3113 144.576 15.4727 144.744 15.59C144.92 15.7 145.247 15.8063 145.723 15.909C146.215 16.0117 146.6 16.129 146.878 16.261C147.157 16.393 147.355 16.558 147.472 16.756C147.597 16.9467 147.659 17.1923 147.659 17.493C147.659 17.9697 147.458 18.3547 147.054 18.648C146.658 18.934 146.127 19.077 145.459 19.077Z" fill="#B2B9C5"/>
<path d="M98 44V29.5V17.75V1H162.5V29.5H109L98 44Z" stroke="#B8C0CC" stroke-width="1.88" stroke-linecap="round" stroke-linejoin="round"/>
</svg>
