<svg width="106" height="110" viewBox="0 0 106 110" fill="none" xmlns="http://www.w3.org/2000/svg">
<path d="M52.86 105.72C82.0538 105.72 105.72 82.0538 105.72 52.86C105.72 23.6662 82.0538 0 52.86 0C23.6662 0 0 23.6662 0 52.86C0 82.0538 23.6662 105.72 52.86 105.72Z" fill="#F0F4F7"/>
<path d="M77.034 32.714C73.653 26.378 67.749 24.734 62.241 24.734C49.848 24.734 44.172 33.364 43.241 42.903C43.241 42.961 42.987 45.182 39.554 68.728C39.2198 71.8063 37.8566 74.6818 35.685 76.889L29.939 82.635C28.9144 83.6587 28.2165 84.9633 27.9335 86.3838C27.6506 87.8042 27.7953 89.2767 28.3494 90.6149C28.9036 91.953 29.8421 93.0968 31.0464 93.9014C32.2507 94.706 33.6666 95.1353 35.115 95.135H89.3681C90.8164 95.1353 92.2322 94.706 93.4365 93.9014C94.6408 93.0968 95.5794 91.953 96.1336 90.6149C96.6877 89.2767 96.8324 87.8042 96.5495 86.3838C96.2665 84.9633 95.5686 83.6587 94.544 82.635L88.797 76.889C86.6068 74.695 85.2405 71.8125 84.929 68.728C84.568 65.781 84.475 65.001 84.475 65.001" fill="white"/>
<path d="M77.034 32.714C73.653 26.378 67.749 24.734 62.241 24.734C49.848 24.734 44.172 33.364 43.241 42.903C43.241 42.961 42.987 45.182 39.554 68.728C39.2198 71.8063 37.8566 74.6818 35.685 76.889L29.939 82.635C28.9144 83.6587 28.2165 84.9633 27.9335 86.3838C27.6506 87.8042 27.7953 89.2767 28.3494 90.6149C28.9036 91.953 29.8421 93.0968 31.0464 93.9014C32.2507 94.706 33.6666 95.1353 35.115 95.135H89.3681C90.8164 95.1353 92.2322 94.706 93.4365 93.9014C94.6408 93.0968 95.5794 91.953 96.1336 90.6149C96.6877 89.2767 96.8324 87.8042 96.5495 86.3838C96.2665 84.9633 95.5686 83.6587 94.544 82.635L88.797 76.889C86.6068 74.695 85.2405 71.8125 84.929 68.728C84.568 65.781 84.475 65.001 84.475 65.001" stroke="#B8C0CC" stroke-width="1.88" stroke-miterlimit="10"/>
<path d="M44.247 21.817C41.3981 23.2607 38.958 25.3978 37.1514 28.0316C35.3449 30.6654 34.2298 33.7113 33.909 36.889C33.909 36.933 34.009 36.089 32.109 51.861" stroke="#B8C0CC" stroke-width="1.88" stroke-miterlimit="10" stroke-linecap="round"/>
<path d="M49.85 96.109C49.9094 99.3542 51.2389 102.447 53.553 104.723C55.867 106.999 58.9812 108.276 62.2269 108.282C65.4726 108.287 68.5911 107.02 70.9128 104.752C73.2346 102.484 74.5745 99.396 74.645 96.151V96.109" fill="white"/>
<path d="M49.85 96.109C49.9094 99.3542 51.2389 102.447 53.553 104.723C55.867 106.999 58.9812 108.276 62.2269 108.282C65.4726 108.287 68.5911 107.02 70.9128 104.752C73.2346 102.484 74.5745 99.396 74.645 96.151V96.109" stroke="#B8C0CC" stroke-width="2" stroke-miterlimit="10"/>
<path d="M81.151 65.74C90.2692 65.74 97.661 58.3482 97.661 49.23C97.661 40.1117 90.2692 32.72 81.151 32.72C72.0328 32.72 64.641 40.1117 64.641 49.23C64.641 58.3482 72.0328 65.74 81.151 65.74Z" fill="white" stroke="#30A3C7" stroke-width="1.88" stroke-miterlimit="10"/>
<path d="M81.15 57.397C85.6611 57.397 89.318 53.7401 89.318 49.229C89.318 44.718 85.6611 41.061 81.15 41.061C76.6389 41.061 72.982 44.718 72.982 49.229C72.982 53.7401 76.6389 57.397 81.15 57.397Z" fill="#B2DBE7"/>
</svg>
