<svg width="20" height="20" viewBox="0 0 20 20" fill="none" xmlns="http://www.w3.org/2000/svg">
<path d="M17.5436 5H2.45638C1.55998 5 0.833313 5.85561 0.833313 6.91106V17.2556C0.833313 18.3111 1.55998 19.1667 2.45638 19.1667H17.5436C18.44 19.1667 19.1666 18.3111 19.1666 17.2556V6.91106C19.1666 5.85561 18.44 5 17.5436 5Z" stroke="#30A3C7" stroke-width="1.5" stroke-miterlimit="10"/>
<path d="M4.58333 4.99998C5.73393 4.99998 6.66667 4.06724 6.66667 2.91665C6.66667 1.76605 5.73393 0.833313 4.58333 0.833313C3.43274 0.833313 2.5 1.76605 2.5 2.91665C2.5 4.06724 3.43274 4.99998 4.58333 4.99998Z" stroke="#30A3C7" stroke-width="1.5" stroke-miterlimit="10"/>
<path d="M8.75002 4.99998C9.90061 4.99998 10.8334 4.06724 10.8334 2.91665C10.8334 1.76605 9.90061 0.833313 8.75002 0.833313C7.59943 0.833313 6.66669 1.76605 6.66669 2.91665C6.66669 4.06724 7.59943 4.99998 8.75002 4.99998Z" stroke="#30A3C7" stroke-width="1.5" stroke-miterlimit="10"/>
<path d="M6.66669 4.16669L6.66669 19.1667" stroke="#30A3C7" stroke-width="1.5" stroke-miterlimit="10"/>
<path d="M0.833313 14.1667H19.1666" stroke="#30A3C7" stroke-width="1.5" stroke-miterlimit="10"/>
</svg>
