<svg width="62" height="62" viewBox="0 0 62 62" fill="none" xmlns="http://www.w3.org/2000/svg">
<path d="M21.9424 19.718C13.077 19.718 7.30255 24.984 7.30255 24.984C7.30255 24.984 7.74183 30.1067 9.69859 38.9442C11.6474 47.7579 11.863 54.3841 11.863 54.3841C11.863 54.3841 16.0641 57.1443 21.9184 57.1443C27.7727 57.1443 32.0058 54.3841 32.0058 54.3841C32.0058 54.3841 32.2134 47.7738 34.1702 38.9442C36.119 30.1306 36.5582 24.984 36.5582 24.984C36.5582 24.984 30.8157 19.718 21.9424 19.718Z" fill="white" stroke="#B8C0CC" stroke-width="1.5" stroke-miterlimit="10"/>
<path d="M9.0596 35.9375C9.0596 35.9375 5.43358 45.7853 6.50382 60.0001C6.50382 60.0001 2.81391 57.6137 1.69576 50.7967C0.585589 43.9796 -0.149197 32.7875 7.3025 24.9761" stroke="#B8C0CC" stroke-width="1.5" stroke-miterlimit="10"/>
<path d="M43.4028 30.035C41.9812 29.4622 36.5582 25.1986 36.5582 25.1986L34.9368 35.9134C34.9368 35.9134 47.0209 50.7487 50.3753 36.2396C54.185 19.7577 43.8698 14.0044 43.8698 14.0044C43.8698 14.0044 49.1294 27.0759 40.5036 34.4259" stroke="#B8C0CC" stroke-width="1.5" stroke-miterlimit="10" stroke-linecap="round"/>
<path d="M21.0874 17.0097C25.825 17.0097 29.6655 13.2019 29.6655 8.50483C29.6655 3.80774 25.825 0 21.0874 0C16.3499 0 12.5094 3.80774 12.5094 8.50483C12.5094 13.2019 16.3499 17.0097 21.0874 17.0097Z" fill="#30A3C7"/>
<path d="M40.3101 14.9448L41.5476 11.4406L55.137 16.2395L53.8996 19.7437L40.3101 14.9448Z" fill="white" stroke="#B8C0CC" stroke-width="1.5"/>
<path d="M40.2188 5.92031L42.9495 6.88461C43.0797 6.93059 43.148 7.0734 43.102 7.20359L39.081 18.5904C39.035 18.7206 38.8922 18.7888 38.762 18.7429L36.0313 17.7786C35.9011 17.7326 35.8328 17.5898 35.8788 17.4596L39.8999 6.0728C39.9458 5.9426 40.0886 5.87433 40.2188 5.92031Z" stroke="#B8C0CC" stroke-width="1.5"/>
<path d="M57.3802 11.495L60.1109 12.4593C60.2411 12.5053 60.3094 12.6481 60.2634 12.7783L56.2423 24.1651C56.1964 24.2953 56.0536 24.3635 55.9234 24.3176L53.1927 23.3533C53.0625 23.3073 52.9942 23.1645 53.0402 23.0343L57.0612 11.6475C57.1072 11.5173 57.25 11.449 57.3802 11.495Z" stroke="#B8C0CC" stroke-width="1.5"/>
</svg>
