<svg width="461" height="253" viewBox="0 0 461 253" fill="none" xmlns="http://www.w3.org/2000/svg">
<path d="M457.917 27.8692L446.473 27.8252C444.718 27.8186 442.981 27.4664 441.362 26.7886C439.743 26.1108 438.273 25.1207 437.037 23.8749C435.801 22.6291 434.822 21.152 434.157 19.5278C433.491 17.9037 433.152 16.1643 433.159 14.4092C433.173 10.8769 434.589 7.49477 437.096 5.00675C439.604 2.51873 442.997 1.12864 446.529 1.14219C448.284 1.14887 450.021 1.5012 451.64 2.17905C453.258 2.8569 454.728 3.847 455.964 5.09281C457.2 6.33862 458.179 7.81572 458.845 9.4398C459.51 11.0639 459.849 12.8031 459.842 14.5581L459.798 26.0031C459.797 26.2492 459.748 26.4927 459.653 26.7196C459.558 26.9466 459.419 27.1526 459.244 27.3259C459.069 27.4992 458.862 27.6364 458.635 27.7296C458.407 27.8228 458.163 27.8702 457.917 27.8692Z" fill="white"/>
<path d="M446.673 1.16317C445.98 1.16077 445.289 1.21256 444.604 1.31813C446.322 1.2936 448.027 1.62032 449.614 2.27822C451.201 2.93611 452.637 3.91134 453.834 5.14406C455.031 6.37678 455.963 7.84098 456.574 9.44692C457.185 11.0529 457.461 12.7667 457.386 14.4832L457.342 25.9312C457.339 26.4294 457.139 26.906 456.785 27.2569C456.432 27.6078 455.953 27.8042 455.455 27.8032L457.971 27.8131C458.469 27.8137 458.947 27.617 459.301 27.266C459.655 26.915 459.855 26.4383 459.858 25.9401L459.902 14.4932C459.905 10.9743 458.516 7.59716 456.037 5.09951C453.558 2.60185 450.192 1.18668 446.673 1.16317Z" fill="#EAEFF4"/>
<path d="M458.167 27.8702L446.311 27.8252C444.577 27.8189 442.861 27.4711 441.262 26.8015C439.662 26.1319 438.21 25.1538 436.989 23.923C435.768 22.6921 434.801 21.2327 434.144 19.6281C433.487 18.0235 433.152 16.3051 433.159 14.5711V14.5711C433.166 12.8009 433.521 11.0494 434.204 9.41649C434.888 7.78357 435.887 6.30131 437.143 5.05436C438.4 3.80742 439.889 2.82018 441.527 2.14909C443.166 1.47801 444.92 1.1362 446.69 1.14317V1.14317C448.424 1.14933 450.14 1.49705 451.739 2.16649C453.339 2.83592 454.791 3.81399 456.012 5.04472C457.234 6.27546 458.201 7.73478 458.858 9.33934C459.515 10.9439 459.85 12.6622 459.843 14.3962L459.797 26.2512C459.796 26.4646 459.754 26.6758 459.672 26.8727C459.589 27.0696 459.469 27.2483 459.318 27.3987C459.166 27.5491 458.987 27.6681 458.789 27.749C458.592 27.8299 458.38 27.8711 458.167 27.8702V27.8702Z" stroke="#B8C0CC" stroke-width="1.88" stroke-linecap="round" stroke-linejoin="round"/>
<path d="M439.613 11.3353C440.061 11.3353 440.424 10.7541 440.424 10.0373C440.424 9.32039 440.061 8.73926 439.613 8.73926C439.165 8.73926 438.802 9.32039 438.802 10.0373C438.802 10.7541 439.165 11.3353 439.613 11.3353Z" fill="#B8C0CC"/>
<path d="M443.732 11.3353C444.18 11.3353 444.543 10.7541 444.543 10.0373C444.543 9.32039 444.18 8.73926 443.732 8.73926C443.284 8.73926 442.921 9.32039 442.921 10.0373C442.921 10.7541 443.284 11.3353 443.732 11.3353Z" fill="#B8C0CC"/>
<path d="M419.5 27.8881L408.056 27.8441C406.301 27.8374 404.564 27.4851 402.945 26.8073C401.326 26.1294 399.857 25.1393 398.62 23.8935C397.384 22.6477 396.405 21.1706 395.74 19.5465C395.074 17.9225 394.735 16.1833 394.742 14.4281C394.749 12.6791 395.1 10.9484 395.775 9.335C396.451 7.72162 397.438 6.25711 398.679 5.02506C399.921 3.79301 401.393 2.81755 403.011 2.15439C404.63 1.49124 406.363 1.15342 408.112 1.16013C411.656 1.1739 415.05 2.59503 417.547 5.111C420.044 7.62696 421.439 11.0316 421.425 14.5761L421.381 26.0211C421.38 26.2672 421.331 26.5107 421.236 26.7377C421.141 26.9647 421.002 27.1708 420.827 27.3442C420.653 27.5175 420.445 27.6548 420.218 27.7481C419.99 27.8415 419.746 27.889 419.5 27.8881Z" fill="white"/>
<path d="M408.255 1.1812C407.562 1.1793 406.871 1.23109 406.186 1.33617C407.904 1.31179 409.609 1.63863 411.196 2.29662C412.784 2.95461 414.22 3.92993 415.417 5.16271C416.614 6.39549 417.546 7.85976 418.157 9.46575C418.768 11.0717 419.044 12.7856 418.969 14.5022L418.924 25.9492C418.921 26.4474 418.721 26.924 418.367 27.275C418.013 27.626 417.535 27.8227 417.037 27.8222L419.553 27.8312C420.051 27.8317 420.529 27.6352 420.883 27.2844C421.236 26.9337 421.437 26.4572 421.44 25.9592L421.484 14.5122C421.488 10.9932 420.098 7.61572 417.619 5.11785C415.141 2.61997 411.774 1.20472 408.255 1.1812Z" fill="#EAEFF4"/>
<path d="M419.749 27.8881L407.893 27.8421C406.159 27.8359 404.443 27.488 402.844 26.8184C401.244 26.1488 399.793 25.1707 398.571 23.9399C397.35 22.709 396.383 21.2497 395.726 19.6451C395.069 18.0405 394.734 16.3221 394.741 14.5881V14.5881C394.748 12.8179 395.103 11.0663 395.786 9.43339C396.47 7.80048 397.469 6.31822 398.725 5.07127C399.982 3.82432 401.471 2.83714 403.109 2.16606C404.748 1.49497 406.502 1.15317 408.272 1.16014V1.16014C410.006 1.1663 411.722 1.51402 413.322 2.18352C414.921 2.85301 416.373 3.83115 417.595 5.06199C418.816 6.29284 419.783 7.7523 420.44 9.35698C421.098 10.9617 421.432 12.6801 421.425 14.4141L421.379 26.2691C421.378 26.4825 421.336 26.6936 421.253 26.8904C421.171 27.0873 421.051 27.266 420.9 27.4164C420.748 27.5667 420.569 27.6858 420.371 27.7667C420.174 27.8477 419.962 27.8889 419.749 27.8881V27.8881Z" stroke="#B8C0CC" stroke-width="1.88" stroke-linecap="round" stroke-linejoin="round"/>
<path d="M401.195 11.3531C401.643 11.3531 402.006 10.7719 402.006 10.0551C402.006 9.33821 401.643 8.75708 401.195 8.75708C400.747 8.75708 400.384 9.33821 400.384 10.0551C400.384 10.7719 400.747 11.3531 401.195 11.3531Z" fill="#B8C0CC"/>
<path d="M405.314 11.3531C405.762 11.3531 406.125 10.7719 406.125 10.0551C406.125 9.33821 405.762 8.75708 405.314 8.75708C404.866 8.75708 404.503 9.33821 404.503 10.0551C404.503 10.7719 404.866 11.3531 405.314 11.3531Z" fill="#B8C0CC"/>
<path d="M320.916 27.7281L309.472 27.6841C305.927 27.6703 302.534 26.2492 300.037 23.7332C297.54 21.2173 296.145 17.8126 296.158 14.2681C296.172 10.7358 297.588 7.35351 300.095 4.86533C302.603 2.37715 305.996 0.986808 309.528 1.00009C313.073 1.01386 316.466 2.43506 318.963 4.95102C321.46 7.46699 322.855 10.8717 322.841 14.4161L322.797 25.8611C322.796 26.1073 322.747 26.3508 322.652 26.5779C322.557 26.8049 322.418 27.0111 322.244 27.1845C322.069 27.3579 321.862 27.4951 321.634 27.5884C321.406 27.6817 321.162 27.7292 320.916 27.7281Z" fill="white"/>
<path d="M309.672 1.02105C308.979 1.01914 308.288 1.07099 307.603 1.17608C309.321 1.15169 311.026 1.47853 312.613 2.13653C314.201 2.79452 315.637 3.76977 316.834 5.00255C318.031 6.23533 318.963 7.6996 319.574 9.30559C320.185 10.9116 320.461 12.6255 320.386 14.3421L320.341 25.7891C320.338 26.2871 320.138 26.7636 319.784 27.1146C319.431 27.4655 318.953 27.6623 318.455 27.662L320.97 27.6711C321.468 27.6716 321.946 27.475 322.3 27.1243C322.653 26.7735 322.854 26.2971 322.857 25.7991L322.901 14.352C322.905 10.833 321.515 7.45563 319.036 4.95775C316.558 2.45988 313.191 1.04456 309.672 1.02105Z" fill="#EAEFF4"/>
<path d="M321.166 27.729L309.31 27.683C307.576 27.6767 305.86 27.3289 304.261 26.6593C302.661 25.9898 301.21 25.0116 299.988 23.7808C298.767 22.55 297.8 21.0906 297.143 19.486C296.486 17.8814 296.151 16.163 296.158 14.4291C296.165 12.6588 296.52 10.9073 297.203 9.27434C297.887 7.64142 298.886 6.15916 300.142 4.91221C301.399 3.66527 302.888 2.67809 304.526 2.007C306.165 1.33592 307.919 0.994108 309.689 1.00108V1.00108C311.423 1.00724 313.139 1.35496 314.739 2.02446C316.338 2.69396 317.79 3.67209 319.012 4.90294C320.233 6.13378 321.2 7.59325 321.857 9.19792C322.515 10.8026 322.849 12.521 322.842 14.255V14.255L322.797 26.11C322.795 26.5409 322.622 26.9535 322.317 27.2571C322.011 27.5606 321.597 27.7304 321.166 27.729V27.729Z" stroke="#B8C0CC" stroke-width="1.88" stroke-linecap="round" stroke-linejoin="round"/>
<path d="M302.612 11.1932C303.06 11.1932 303.423 10.612 303.423 9.89517C303.423 9.1783 303.06 8.59717 302.612 8.59717C302.164 8.59717 301.801 9.1783 301.801 9.89517C301.801 10.612 302.164 11.1932 302.612 11.1932Z" fill="#B8C0CC"/>
<path d="M306.731 11.1932C307.179 11.1932 307.542 10.612 307.542 9.89517C307.542 9.1783 307.179 8.59717 306.731 8.59717C306.283 8.59717 305.92 9.1783 305.92 9.89517C305.92 10.612 306.283 11.1932 306.731 11.1932Z" fill="#B8C0CC"/>
<path d="M372.012 27.8881L360.567 27.8441C358.812 27.8374 357.075 27.4851 355.457 26.8072C353.838 26.1294 352.368 25.1393 351.132 23.8935C349.896 22.6477 348.917 21.1706 348.252 19.5465C347.586 17.9224 347.247 16.1832 347.254 14.4281C347.268 10.8959 348.684 7.51375 351.191 5.02573C353.699 2.53771 357.092 1.14756 360.624 1.16111C364.169 1.17487 367.562 2.59607 370.059 5.11204C372.556 7.628 373.951 11.0327 373.937 14.5771L373.893 26.0221C373.892 26.2682 373.843 26.5116 373.748 26.7386C373.653 26.9655 373.514 27.1715 373.339 27.3448C373.164 27.5181 372.957 27.6553 372.73 27.7485C372.502 27.8417 372.258 27.8892 372.012 27.8881Z" fill="white"/>
<path d="M360.767 1.18123C360.075 1.17884 359.383 1.23063 358.699 1.3362C360.417 1.31167 362.122 1.63839 363.709 2.29628C365.296 2.95417 366.732 3.92941 367.929 5.16213C369.126 6.39485 370.059 7.85905 370.669 9.46498C371.28 11.0709 371.556 12.7847 371.481 14.5012L371.437 25.9492C371.434 26.4473 371.233 26.9237 370.88 27.2744C370.526 27.6252 370.048 27.8217 369.55 27.8212L372.066 27.8312C372.564 27.8315 373.042 27.6347 373.396 27.2838C373.749 26.9329 373.95 26.4563 373.953 25.9582L373.997 14.5112C374 10.9922 372.61 7.61514 370.131 5.11751C367.653 2.61988 364.286 1.20474 360.767 1.18123Z" fill="#EAEFF4"/>
<path d="M372.261 27.8881L360.406 27.8431C358.672 27.837 356.956 27.4892 355.357 26.8197C353.757 26.1502 352.305 25.1721 351.083 23.9413C349.862 22.7104 348.895 21.2509 348.238 19.6463C347.581 18.0416 347.246 16.3231 347.253 14.5891V14.5891C347.267 11.0141 348.7 7.59107 351.238 5.07285C353.775 2.55464 357.209 1.14756 360.784 1.16111V1.16111C362.518 1.16714 364.234 1.5148 365.834 2.18418C367.433 2.85356 368.885 3.83154 370.107 5.06229C371.328 6.29304 372.296 7.75241 372.953 9.35703C373.61 10.9617 373.945 12.6801 373.938 14.4141V14.4141L373.892 26.2691C373.891 26.4826 373.849 26.6937 373.766 26.8907C373.684 27.0876 373.564 27.2664 373.412 27.4167C373.261 27.5671 373.081 27.6861 372.884 27.767C372.686 27.8479 372.474 27.889 372.261 27.8881V27.8881Z" stroke="#B8C0CC" stroke-width="1.88" stroke-linecap="round" stroke-linejoin="round"/>
<path d="M353.708 11.3531C354.156 11.3531 354.519 10.7719 354.519 10.0551C354.519 9.33821 354.156 8.75708 353.708 8.75708C353.26 8.75708 352.897 9.33821 352.897 10.0551C352.897 10.7719 353.26 11.3531 353.708 11.3531Z" fill="#B8C0CC"/>
<path d="M357.827 11.3531C358.275 11.3531 358.638 10.7719 358.638 10.0551C358.638 9.33821 358.275 8.75708 357.827 8.75708C357.379 8.75708 357.016 9.33821 357.016 10.0551C357.016 10.7719 357.379 11.3531 357.827 11.3531Z" fill="#B8C0CC"/>
<path d="M275.414 91.7942L255.769 91.7192C252.757 91.7076 249.776 91.1029 246.997 89.9394C244.218 88.7759 241.696 87.0764 239.574 84.938C237.452 82.7997 235.772 80.2642 234.63 77.4766C233.487 74.689 232.905 71.7037 232.917 68.6912C232.94 62.628 235.371 56.8224 239.675 52.5514C243.979 48.2805 249.803 45.894 255.866 45.9172C261.95 45.9407 267.776 48.3801 272.061 52.6987C276.347 57.0172 278.741 62.8612 278.718 68.9452L278.643 88.5901C278.641 89.0126 278.557 89.4306 278.394 89.8202C278.23 90.2099 277.992 90.5636 277.692 90.8611C277.392 91.1587 277.037 91.3941 276.646 91.5542C276.255 91.7143 275.836 91.7959 275.414 91.7942Z" fill="white"/>
<path d="M256.112 45.9531C254.924 45.9492 253.737 46.0381 252.562 46.2191C261.9 46.0351 274.562 52.9831 274.503 68.8191L274.427 88.4691C274.421 89.3241 274.078 90.1423 273.471 90.7445C272.864 91.3468 272.043 91.6842 271.188 91.6831L275.506 91.7002C276.361 91.7007 277.182 91.3629 277.788 90.7605C278.395 90.1581 278.739 89.3401 278.745 88.4851L278.821 68.8362C278.827 62.7956 276.441 56.9982 272.186 52.7106C267.931 48.423 262.152 45.9936 256.112 45.9531Z" fill="#EAEFF4"/>
<path d="M275.842 91.7962L255.492 91.7182C249.481 91.6949 243.726 89.2849 239.492 85.0182C235.258 80.7516 232.893 74.9779 232.916 68.9672V68.9672C232.94 62.8308 235.4 56.955 239.756 52.6325C244.111 48.31 250.006 45.8948 256.142 45.9181V45.9181C259.118 45.9294 262.063 46.5269 264.808 47.6763C267.554 48.8257 270.046 50.5046 272.142 52.6171C274.239 54.7297 275.899 57.2345 277.027 59.9886C278.156 62.7426 278.73 65.6919 278.719 68.6681L278.641 89.0171C278.64 89.3834 278.566 89.7459 278.425 90.0838C278.284 90.4217 278.077 90.7283 277.817 90.9864C277.557 91.2444 277.249 91.4487 276.91 91.5877C276.571 91.7266 276.208 91.7975 275.842 91.7962Z" stroke="#B8C0CC" stroke-width="1.88" stroke-linecap="round" stroke-linejoin="round"/>
<path d="M243.994 63.4132C244.762 63.4132 245.385 62.4156 245.385 61.1852C245.385 59.9547 244.762 58.9572 243.994 58.9572C243.226 58.9572 242.603 59.9547 242.603 61.1852C242.603 62.4156 243.226 63.4132 243.994 63.4132Z" fill="#B8C0CC"/>
<path d="M251.064 63.4132C251.832 63.4132 252.455 62.4156 252.455 61.1852C252.455 59.9547 251.832 58.9572 251.064 58.9572C250.296 58.9572 249.673 59.9547 249.673 61.1852C249.673 62.4156 250.296 63.4132 251.064 63.4132Z" fill="#B8C0CC"/>
<path d="M298.388 39.9101L285.034 39.8591C280.898 39.8429 276.939 38.1846 274.026 35.249C271.113 32.3133 269.485 28.3407 269.501 24.2051C269.509 22.1643 269.919 20.1451 270.707 18.2627C271.495 16.3803 272.646 14.6716 274.095 13.2342C275.544 11.7967 277.261 10.6587 279.15 9.885C281.038 9.11133 283.06 8.7172 285.101 8.72509C289.237 8.74097 293.197 10.399 296.11 13.3345C299.023 16.27 300.651 20.2424 300.635 24.378L300.584 37.7321C300.583 38.0193 300.525 38.3034 300.414 38.5683C300.303 38.8332 300.141 39.0737 299.937 39.2759C299.733 39.4782 299.491 39.6382 299.226 39.747C298.96 39.8558 298.675 39.9113 298.388 39.9101Z" fill="white"/>
<path d="M285.268 8.75011C284.46 8.74705 283.653 8.80722 282.854 8.9301C289.202 8.8061 297.81 13.5301 297.769 24.2921L297.717 37.6482C297.713 38.2291 297.48 38.7847 297.067 39.1941C296.655 39.6034 296.098 39.8331 295.517 39.8331L298.453 39.8441C299.034 39.8441 299.591 39.6144 300.003 39.2051C300.416 38.7957 300.649 38.24 300.653 37.6592L300.704 24.3032C300.708 20.1974 299.086 16.257 296.194 13.3429C293.302 10.4287 289.374 8.77759 285.268 8.75011Z" fill="#EAEFF4"/>
<path d="M298.679 39.9111L284.846 39.8581C282.822 39.8504 280.82 39.444 278.954 38.6623C277.087 37.8806 275.393 36.7388 273.968 35.3022C272.543 33.8656 271.415 32.1624 270.648 30.2897C269.882 28.417 269.491 26.4116 269.5 24.3881V24.3881C269.516 20.2169 271.189 16.223 274.149 13.2849C277.11 10.3468 281.117 8.70512 285.288 8.72106V8.72106C289.374 8.73668 293.286 10.3747 296.164 13.2747C299.042 16.1748 300.65 20.0993 300.635 24.1851V24.1851L300.582 38.0181C300.58 38.5213 300.379 39.0032 300.022 39.3581C299.665 39.713 299.182 39.9119 298.679 39.9111V39.9111Z" stroke="#B8C0CC" stroke-width="1.88" stroke-linecap="round" stroke-linejoin="round"/>
<path d="M277.031 20.6191C277.553 20.6191 277.977 19.9408 277.977 19.1041C277.977 18.2674 277.553 17.5891 277.031 17.5891C276.509 17.5891 276.085 18.2674 276.085 19.1041C276.085 19.9408 276.509 20.6191 277.031 20.6191Z" fill="#B8C0CC"/>
<path d="M281.837 20.6191C282.359 20.6191 282.783 19.9408 282.783 19.1041C282.783 18.2674 282.359 17.5891 281.837 17.5891C281.315 17.5891 280.891 18.2674 280.891 19.1041C280.891 19.9408 281.315 20.6191 281.837 20.6191Z" fill="#B8C0CC"/>
<path d="M348.779 38.6601L335.744 38.6101C331.707 38.5945 327.841 36.9758 324.997 34.1101C322.154 31.2444 320.565 27.3664 320.58 23.3292C320.596 19.306 322.209 15.4538 325.065 12.6199C327.92 9.78608 331.785 8.20272 335.808 8.21813C339.845 8.23375 343.711 9.85232 346.554 12.7178C349.398 15.5833 350.987 19.461 350.972 23.4981L350.922 36.5341C350.919 37.1001 350.692 37.6419 350.29 38.0405C349.889 38.4391 349.345 38.662 348.779 38.6601Z" fill="white"/>
<path d="M335.972 8.24217C335.183 8.23922 334.396 8.29809 333.616 8.4182C339.816 8.2972 348.216 12.9072 348.174 23.4182L348.124 36.4562C348.12 37.0234 347.892 37.5661 347.49 37.9656C347.087 38.3651 346.542 38.589 345.975 38.5882L348.841 38.6001C349.408 38.6007 349.953 38.3766 350.356 37.977C350.758 37.5773 350.986 37.0345 350.99 36.4672L351.04 23.4292C351.045 19.4205 349.462 15.573 346.639 12.7273C343.816 9.88159 339.981 8.26912 335.972 8.24217Z" fill="#EAEFF4"/>
<path d="M349.063 38.6612L335.563 38.6092C333.588 38.6016 331.634 38.205 329.812 37.4419C327.99 36.6789 326.336 35.5645 324.945 34.1623C323.554 32.7601 322.453 31.0975 321.704 29.2696C320.956 27.4418 320.575 25.4844 320.583 23.5092V23.5092C320.591 21.4931 320.995 19.4982 321.774 17.6384C322.553 15.7787 323.69 14.0905 325.121 12.6703C326.552 11.2501 328.249 10.1257 330.114 9.36126C331.98 8.59685 333.978 8.20744 335.994 8.2152V8.2152C337.969 8.22254 339.924 8.61898 341.746 9.38189C343.568 10.1448 345.222 11.2592 346.613 12.6615C348.004 14.0638 349.105 15.7264 349.854 17.5544C350.602 19.3824 350.983 21.3399 350.975 23.3152V23.3152L350.924 36.8152C350.923 37.0587 350.875 37.2997 350.781 37.5243C350.687 37.749 350.549 37.9528 350.377 38.1243C350.204 38.2958 349.999 38.4315 349.773 38.5236C349.548 38.6157 349.307 38.6625 349.063 38.6612V38.6612Z" stroke="#B8C0CC" stroke-width="1.88" stroke-linecap="round" stroke-linejoin="round"/>
<path d="M327.93 19.8272C328.44 19.8272 328.853 19.1655 328.853 18.3492C328.853 17.5329 328.44 16.8712 327.93 16.8712C327.42 16.8712 327.007 17.5329 327.007 18.3492C327.007 19.1655 327.42 19.8272 327.93 19.8272Z" fill="#B8C0CC"/>
<path d="M332.622 19.8272C333.132 19.8272 333.545 19.1655 333.545 18.3492C333.545 17.5329 333.132 16.8712 332.622 16.8712C332.112 16.8712 331.699 17.5329 331.699 18.3492C331.699 19.1655 332.112 19.8272 332.622 19.8272Z" fill="#B8C0CC"/>
<path d="M399.334 38.704L386.299 38.6541C382.262 38.6385 378.396 37.0199 375.553 34.1543C372.709 31.2888 371.12 27.4111 371.135 23.3741C371.143 21.3819 371.542 19.4108 372.312 17.5732C373.081 15.7356 374.205 14.0675 375.619 12.6642C377.033 11.261 378.71 10.1499 380.553 9.39458C382.397 8.63926 384.371 8.25444 386.363 8.26207C388.362 8.26981 390.34 8.67116 392.184 9.44329C394.028 10.2154 395.701 11.3432 397.109 12.7622C398.517 14.1812 399.632 15.8636 400.39 17.7134C401.148 19.5632 401.534 21.5441 401.526 23.5431L401.476 36.5781C401.475 36.8583 401.419 37.1356 401.311 37.3942C401.203 37.6528 401.044 37.8876 400.846 38.085C400.647 38.2825 400.411 38.4387 400.151 38.545C399.892 38.6512 399.614 38.7052 399.334 38.704Z" fill="white"/>
<path d="M386.526 8.28819C385.737 8.28532 384.95 8.34413 384.17 8.46415C390.37 8.34215 398.77 12.9521 398.729 23.4591L398.679 36.4972C398.675 37.0645 398.447 37.6073 398.044 38.007C397.642 38.4067 397.097 38.6307 396.53 38.6302L399.395 38.6412C399.962 38.6417 400.507 38.4177 400.91 38.018C401.312 37.6183 401.54 37.0755 401.544 36.5082L401.594 23.4702C401.598 19.4622 400.015 15.6154 397.192 12.7707C394.369 9.92589 390.534 8.31435 386.526 8.28819Z" fill="#EAEFF4"/>
<path d="M399.618 38.7051L386.118 38.6531C384.143 38.6455 382.188 38.249 380.367 37.486C378.545 36.723 376.891 35.6085 375.5 34.2063C374.109 32.8041 373.007 31.1415 372.259 29.3136C371.51 27.4858 371.129 25.5284 371.137 23.5531V23.5531C371.153 19.4814 372.786 15.5826 375.676 12.7145C378.566 9.84633 382.477 8.24373 386.549 8.25914V8.25914C388.524 8.26674 390.479 8.66338 392.3 9.42638C394.122 10.1894 395.776 11.3038 397.167 12.706C398.558 14.1082 399.66 15.7707 400.408 17.5986C401.157 19.4265 401.538 21.3839 401.53 23.3591V23.3591L401.478 36.8591C401.478 37.1026 401.429 37.3436 401.335 37.5682C401.241 37.7929 401.104 37.9967 400.931 38.1682C400.758 38.3397 400.553 38.4755 400.328 38.5676C400.103 38.6597 399.861 38.7064 399.618 38.7051V38.7051Z" stroke="#B8C0CC" stroke-width="1.88" stroke-linecap="round" stroke-linejoin="round"/>
<path d="M378.485 19.8712C378.995 19.8712 379.408 19.2094 379.408 18.3932C379.408 17.5769 378.995 16.9152 378.485 16.9152C377.975 16.9152 377.562 17.5769 377.562 18.3932C377.562 19.2094 377.975 19.8712 378.485 19.8712Z" fill="#B8C0CC"/>
<path d="M383.176 19.8712C383.686 19.8712 384.099 19.2094 384.099 18.3932C384.099 17.5769 383.686 16.9152 383.176 16.9152C382.666 16.9152 382.253 17.5769 382.253 18.3932C382.253 19.2094 382.666 19.8712 383.176 19.8712Z" fill="#B8C0CC"/>
<path d="M443.362 38.6392L430.327 38.5891C428.328 38.5816 426.35 38.1805 424.506 37.4086C422.662 36.6366 420.989 35.5089 419.581 34.09C418.172 32.671 417.058 30.9886 416.3 29.1388C415.542 27.2891 415.156 25.3081 415.164 23.3091C415.172 21.3171 415.571 19.346 416.341 17.5084C417.11 15.6709 418.234 14.0029 419.648 12.5997C421.062 11.1964 422.738 10.0855 424.582 9.33032C426.425 8.57509 428.399 8.19035 430.391 8.19811C432.39 8.20572 434.368 8.60701 436.212 9.37902C438.056 10.151 439.73 11.2786 441.138 12.6975C442.546 14.1164 443.661 15.7988 444.419 17.6485C445.177 19.4982 445.563 21.4792 445.555 23.4781L445.505 36.5131C445.504 36.7934 445.448 37.0708 445.339 37.3293C445.231 37.5879 445.073 37.8227 444.874 38.0201C444.675 38.2176 444.439 38.3739 444.18 38.4801C443.92 38.5863 443.642 38.6403 443.362 38.6392Z" fill="white"/>
<path d="M430.555 8.22215C429.766 8.2192 428.979 8.27807 428.199 8.39818C434.399 8.27618 442.799 12.8862 442.758 23.3932L442.707 36.4312C442.703 36.9985 442.475 37.5413 442.073 37.941C441.67 38.3406 441.125 38.5647 440.558 38.5641L443.424 38.5752C443.991 38.5758 444.536 38.3516 444.939 37.952C445.341 37.5523 445.569 37.0095 445.573 36.4422L445.623 23.4042C445.627 19.3963 444.044 15.5499 441.221 12.7052C438.397 9.86058 434.563 8.24884 430.555 8.22215Z" fill="#EAEFF4"/>
<path d="M443.646 38.6402L430.146 38.5892C428.171 38.5814 426.217 38.1847 424.395 37.4217C422.573 36.6586 420.919 35.5442 419.528 34.142C418.137 32.7398 417.036 31.0773 416.288 29.2495C415.539 27.4217 415.158 25.4643 415.166 23.4892V23.4892C415.174 21.473 415.579 19.4781 416.357 17.6183C417.136 15.7586 418.273 14.0704 419.705 12.6502C421.136 11.23 422.833 10.1056 424.698 9.34124C426.564 8.57684 428.562 8.18742 430.578 8.19518V8.19518C432.553 8.20291 434.508 8.59962 436.329 9.36266C438.151 10.1257 439.805 11.2401 441.196 12.6423C442.587 14.0445 443.689 15.707 444.437 17.5348C445.186 19.3627 445.567 21.32 445.559 23.2952V23.2952L445.507 36.7952C445.506 37.0386 445.457 37.2794 445.363 37.504C445.269 37.7285 445.132 37.9323 444.959 38.1037C444.786 38.2751 444.581 38.4107 444.356 38.5027C444.131 38.5948 443.889 38.6415 443.646 38.6402V38.6402Z" stroke="#B8C0CC" stroke-width="1.88" stroke-linecap="round" stroke-linejoin="round"/>
<path d="M422.513 19.8062C423.023 19.8062 423.436 19.1445 423.436 18.3282C423.436 17.5119 423.023 16.8502 422.513 16.8502C422.003 16.8502 421.59 17.5119 421.59 18.3282C421.59 19.1445 422.003 19.8062 422.513 19.8062Z" fill="#B8C0CC"/>
<path d="M427.205 19.8062C427.715 19.8062 428.128 19.1445 428.128 18.3282C428.128 17.5119 427.715 16.8502 427.205 16.8502C426.695 16.8502 426.282 17.5119 426.282 18.3282C426.282 19.1445 426.695 19.8062 427.205 19.8062Z" fill="#B8C0CC"/>
<path d="M324.509 53.7551L310.131 53.7002C307.926 53.6919 305.744 53.2493 303.71 52.3978C301.677 51.5463 299.83 50.3026 298.277 48.7376C296.724 47.1725 295.494 45.3168 294.658 43.2765C293.822 41.2362 293.396 39.0511 293.405 36.8461C293.414 34.6485 293.855 32.4741 294.704 30.447C295.553 28.42 296.793 26.5799 298.353 25.0321C299.913 23.4842 301.762 22.2587 303.796 21.4257C305.83 20.5927 308.007 20.1684 310.205 20.1771C312.41 20.1857 314.592 20.6284 316.625 21.4801C318.659 22.3317 320.505 23.5756 322.058 25.1408C323.611 26.7059 324.841 28.5616 325.677 30.6019C326.513 32.6423 326.939 34.8272 326.93 37.0321L326.875 51.4102C326.874 51.7196 326.812 52.0257 326.692 52.311C326.573 52.5964 326.398 52.8553 326.178 53.0731C325.958 53.2909 325.698 53.4632 325.411 53.5802C325.125 53.6972 324.818 53.7567 324.509 53.7551Z" fill="white"/>
<path d="M310.382 20.2042C309.512 20.2012 308.642 20.266 307.782 20.3982C314.617 20.2642 323.882 25.3492 323.841 36.9382L323.786 51.3202C323.782 51.9461 323.53 52.5449 323.086 52.9856C322.642 53.4264 322.041 53.6732 321.415 53.6722L324.576 53.6852C325.202 53.6858 325.802 53.4385 326.246 52.9976C326.691 52.5567 326.942 51.958 326.946 51.3322L327.001 36.9512C327.005 32.5304 325.26 28.2876 322.146 25.1497C319.032 22.0118 314.803 20.2338 310.382 20.2042Z" fill="#EAEFF4"/>
<path d="M324.822 53.757L309.928 53.699C307.749 53.6912 305.594 53.2542 303.584 52.4131C301.574 51.5721 299.75 50.3433 298.215 48.7971C296.68 47.2508 295.465 45.4175 294.639 43.4016C293.813 41.3856 293.392 39.2267 293.4 37.0481V37.0481C293.417 32.5567 295.218 28.2562 298.406 25.0925C301.594 21.9288 305.909 20.1611 310.4 20.1781C314.799 20.195 319.012 21.9588 322.11 25.0815C325.209 28.2041 326.941 32.4299 326.924 36.8291V36.8291L326.867 51.7231C326.865 52.2639 326.649 52.7818 326.265 53.1631C325.882 53.5445 325.363 53.7581 324.822 53.757Z" stroke="#B8C0CC" stroke-width="1.88" stroke-linecap="round" stroke-linejoin="round"/>
<path d="M301.512 32.9842C302.074 32.9842 302.53 32.2539 302.53 31.3532C302.53 30.4524 302.074 29.7222 301.512 29.7222C300.95 29.7222 300.494 30.4524 300.494 31.3532C300.494 32.2539 300.95 32.9842 301.512 32.9842Z" fill="#B8C0CC"/>
<path d="M306.687 32.9842C307.249 32.9842 307.705 32.2539 307.705 31.3532C307.705 30.4524 307.249 29.7222 306.687 29.7222C306.125 29.7222 305.669 30.4524 305.669 31.3532C305.669 32.2539 306.125 32.9842 306.687 32.9842Z" fill="#B8C0CC"/>
<path d="M378.826 51.7332L364.448 51.6781C359.995 51.6609 355.731 49.8755 352.594 46.7146C349.458 43.5537 347.705 39.2762 347.722 34.8231C347.731 32.6256 348.172 30.4512 349.021 28.4241C349.87 26.3971 351.11 24.5572 352.67 23.0094C354.23 21.4616 356.079 20.2363 358.113 19.4034C360.147 18.5705 362.324 18.1463 364.522 18.1552C366.727 18.1636 368.909 18.6061 370.942 19.4577C372.976 20.3092 374.823 21.553 376.376 23.1181C377.929 24.6831 379.159 26.5387 379.995 28.579C380.831 30.6193 381.256 32.8043 381.248 35.0092L381.193 49.3882C381.192 49.6977 381.13 50.0038 381.01 50.2892C380.89 50.5746 380.716 50.8337 380.496 51.0515C380.276 51.2693 380.015 51.4416 379.729 51.5586C379.442 51.6756 379.136 51.7349 378.826 51.7332Z" fill="white"/>
<path d="M364.7 18.1812C363.83 18.1796 362.96 18.2465 362.1 18.3812C368.934 18.2462 378.2 23.3312 378.158 34.9212L378.103 49.3022C378.099 49.928 377.847 50.5268 377.403 50.9677C376.959 51.4086 376.358 51.6557 375.732 51.6552L378.893 51.6671C379.519 51.6677 380.12 51.4205 380.564 50.9796C381.008 50.5388 381.26 49.94 381.264 49.3141L381.319 34.9331C381.324 30.5117 379.579 26.2679 376.465 23.129C373.351 19.9901 369.121 18.2113 364.7 18.1812Z" fill="#EAEFF4"/>
<path d="M379.14 51.7341L364.246 51.6771C362.068 51.6689 359.912 51.2316 357.903 50.3903C355.893 49.5489 354.069 48.32 352.535 46.7737C351.001 45.2274 349.786 43.394 348.96 41.3782C348.134 39.3623 347.713 37.2036 347.722 35.0252V35.0252C347.731 32.8013 348.177 30.6008 349.036 28.5495C349.895 26.4982 351.15 24.6361 352.728 23.0696C354.307 21.5032 356.179 20.2631 358.236 19.42C360.294 18.5769 362.498 18.1475 364.722 18.1561V18.1561C369.121 18.1728 373.334 19.9363 376.433 23.0588C379.532 26.1812 381.264 30.4069 381.247 34.8062V34.8062L381.189 49.7002C381.188 49.9684 381.135 50.2337 381.031 50.4811C380.928 50.7285 380.777 50.9531 380.586 51.142C380.396 51.3309 380.17 51.4804 379.922 51.582C379.674 51.6837 379.408 51.7353 379.14 51.7341Z" stroke="#B8C0CC" stroke-width="1.88" stroke-linecap="round" stroke-linejoin="round"/>
<path d="M355.829 30.9612C356.391 30.9612 356.847 30.231 356.847 29.3302C356.847 28.4294 356.391 27.6992 355.829 27.6992C355.267 27.6992 354.811 28.4294 354.811 29.3302C354.811 30.231 355.267 30.9612 355.829 30.9612Z" fill="#B8C0CC"/>
<path d="M361.004 30.9612C361.566 30.9612 362.022 30.231 362.022 29.3302C362.022 28.4294 361.566 27.6992 361.004 27.6992C360.442 27.6992 359.986 28.4294 359.986 29.3302C359.986 30.231 360.442 30.9612 361.004 30.9612Z" fill="#B8C0CC"/>
<path d="M427.7 53.4061L413.322 53.3511C408.869 53.3339 404.605 51.5485 401.468 48.3876C398.332 45.2267 396.579 40.9493 396.596 36.4962C396.605 34.2986 397.046 32.1242 397.895 30.0972C398.744 28.0702 399.984 26.2302 401.544 24.6824C403.104 23.1347 404.953 21.9093 406.987 21.0764C409.021 20.2435 411.198 19.8193 413.396 19.8281C417.849 19.8453 422.113 21.6308 425.25 24.7917C428.386 27.9526 430.139 32.23 430.122 36.6831L430.067 51.0612C430.066 51.3706 430.004 51.6768 429.884 51.9622C429.764 52.2476 429.59 52.5067 429.37 52.7245C429.15 52.9423 428.889 53.1146 428.603 53.2316C428.316 53.3485 428.01 53.4079 427.7 53.4061Z" fill="white"/>
<path d="M413.577 19.8552C412.707 19.8511 411.837 19.916 410.977 20.0491C417.811 19.9151 427.077 24.9991 427.035 36.5891L426.98 50.9712C426.976 51.597 426.724 52.1955 426.28 52.6362C425.836 53.0769 425.235 53.3239 424.609 53.3231L427.77 53.3351C428.396 53.3356 428.996 53.0886 429.44 52.6479C429.885 52.2073 430.137 51.6088 430.141 50.9831L430.196 36.6011C430.2 32.1806 428.454 27.9382 425.34 24.8005C422.226 21.6629 417.998 19.885 413.577 19.8552Z" fill="#EAEFF4"/>
<path d="M428.018 53.4072L413.124 53.3502C410.946 53.342 408.79 52.9049 406.781 52.0637C404.771 51.2224 402.947 49.9937 401.413 48.4475C399.879 46.9012 398.664 45.0678 397.838 43.0521C397.012 41.0363 396.591 38.8776 396.6 36.6992V36.6992C396.608 34.4752 397.055 32.2747 397.914 30.2232C398.773 28.1718 400.027 26.3096 401.606 24.743C403.184 23.1765 405.056 21.9363 407.114 21.0931C409.172 20.25 411.376 19.8205 413.6 19.8292V19.8292C417.999 19.8462 422.212 21.6099 425.311 24.7325C428.41 27.8551 430.142 32.0809 430.125 36.4802L430.067 51.3742C430.066 51.6423 430.012 51.9076 429.909 52.1549C429.805 52.4021 429.654 52.6266 429.464 52.8154C429.274 53.0042 429.048 53.1536 428.8 53.2552C428.552 53.3567 428.286 53.4084 428.018 53.4072Z" stroke="#B8C0CC" stroke-width="1.88" stroke-linecap="round" stroke-linejoin="round"/>
<path d="M404.707 32.6341C405.269 32.6341 405.725 31.9038 405.725 31.0031C405.725 30.1023 405.269 29.3721 404.707 29.3721C404.145 29.3721 403.689 30.1023 403.689 31.0031C403.689 31.9038 404.145 32.6341 404.707 32.6341Z" fill="#B8C0CC"/>
<path d="M409.882 32.6341C410.444 32.6341 410.9 31.9038 410.9 31.0031C410.9 30.1023 410.444 29.3721 409.882 29.3721C409.32 29.3721 408.864 30.1023 408.864 31.0031C408.864 31.9038 409.32 32.6341 409.882 32.6341Z" fill="#B8C0CC"/>
<path d="M274.558 54.4002L259.841 54.3442C257.584 54.3355 255.351 53.8823 253.269 53.0103C251.187 52.1384 249.297 50.8648 247.707 49.2624C246.117 47.66 244.859 45.7601 244.003 43.6712C243.148 41.5823 242.713 39.3454 242.722 37.0882C242.731 34.8392 243.182 32.6139 244.051 30.5394C244.92 28.4649 246.188 26.5817 247.785 24.9976C249.381 23.4134 251.274 22.1592 253.355 21.3065C255.436 20.4539 257.665 20.0195 259.914 20.0282C262.171 20.0369 264.404 20.4899 266.485 21.3616C268.567 22.2332 270.457 23.5063 272.046 25.1082C273.636 26.7101 274.895 28.6095 275.75 30.6978C276.606 32.7861 277.042 35.0225 277.033 37.2792L276.976 51.9962C276.975 52.3129 276.912 52.6264 276.79 52.9186C276.669 53.2109 276.49 53.4762 276.266 53.6995C276.041 53.9228 275.775 54.0997 275.482 54.2199C275.189 54.3401 274.875 54.4014 274.558 54.4002Z" fill="white"/>
<path d="M260.1 20.0592C259.21 20.0563 258.32 20.1231 257.44 20.2592C264.44 20.1222 273.922 25.3261 273.877 37.1881L273.82 51.9092C273.816 52.5496 273.558 53.1622 273.104 53.6132C272.649 54.0642 272.034 54.317 271.394 54.3162L274.629 54.3291C275.27 54.3297 275.884 54.0767 276.339 53.6255C276.793 53.1743 277.051 52.5616 277.055 51.9212L277.112 37.2012C277.116 32.676 275.33 28.333 272.142 25.1211C268.954 21.9091 264.625 20.0893 260.1 20.0592Z" fill="#EAEFF4"/>
<path d="M274.878 54.4012L259.634 54.3432C257.404 54.3347 255.198 53.8871 253.142 53.0259C251.085 52.1648 249.218 50.9071 247.648 49.3245C246.077 47.7419 244.834 45.8655 243.989 43.8023C243.143 41.7392 242.713 39.5298 242.721 37.3002V37.3002C242.73 35.0239 243.187 32.7716 244.066 30.6719C244.945 28.5723 246.229 26.6663 247.845 25.0629C249.461 23.4595 251.376 22.19 253.483 21.327C255.589 20.464 257.845 20.0244 260.121 20.0332V20.0332C264.624 20.0504 268.936 21.8557 272.108 25.0518C275.28 28.248 277.052 32.5732 277.035 37.0762V37.0762L276.976 52.3212C276.975 52.5956 276.92 52.867 276.814 53.1201C276.708 53.3731 276.553 53.6028 276.358 53.796C276.163 53.9891 275.932 54.1421 275.678 54.2459C275.424 54.3498 275.152 54.4025 274.878 54.4012Z" stroke="#B8C0CC" stroke-width="1.88" stroke-linecap="round" stroke-linejoin="round"/>
<path d="M251.019 33.1393C251.595 33.1393 252.061 32.392 252.061 31.4703C252.061 30.5485 251.595 29.8013 251.019 29.8013C250.444 29.8013 249.977 30.5485 249.977 31.4703C249.977 32.392 250.444 33.1393 251.019 33.1393Z" fill="#B8C0CC"/>
<path d="M256.316 33.1393C256.892 33.1393 257.358 32.392 257.358 31.4703C257.358 30.5485 256.892 29.8013 256.316 29.8013C255.741 29.8013 255.274 30.5485 255.274 31.4703C255.274 32.392 255.741 33.1393 256.316 33.1393Z" fill="#B8C0CC"/>
<path d="M301.731 70.8241L285.048 70.7601C282.49 70.7504 279.958 70.2369 277.599 69.2489C275.239 68.2609 273.097 66.8178 271.295 65.002C269.493 63.1861 268.066 61.0331 267.096 58.6658C266.126 56.2985 265.632 53.7633 265.642 51.2051C265.662 46.0562 267.727 41.1262 271.381 37.4993C275.036 33.8724 279.982 31.8457 285.131 31.8651C287.689 31.875 290.221 32.3886 292.58 33.3767C294.94 34.3648 297.082 35.8081 298.884 37.624C300.686 39.44 302.113 41.593 303.083 43.9603C304.053 46.3277 304.547 48.8629 304.537 51.4212L304.473 68.1032C304.47 68.8276 304.18 69.5211 303.665 70.0314C303.151 70.5416 302.455 70.8268 301.731 70.8241Z" fill="white"/>
<path d="M285.34 31.8961C284.331 31.8925 283.323 31.9678 282.325 32.1212C290.255 31.9662 301.009 37.8651 300.957 51.3121L300.893 67.9991C300.888 68.7253 300.596 69.42 300.081 69.9314C299.565 70.4428 298.868 70.7292 298.142 70.7281L301.81 70.7422C302.536 70.743 303.233 70.4563 303.748 69.9449C304.263 69.4336 304.555 68.7391 304.56 68.0132L304.624 51.3271C304.629 46.1977 302.603 41.2749 298.99 37.6342C295.377 33.9934 290.469 31.9305 285.34 31.8961Z" fill="#EAEFF4"/>
<path d="M302.095 70.8261L284.814 70.7591C282.287 70.7495 279.786 70.2422 277.454 69.2661C275.123 68.29 273.006 66.8642 271.226 65.0701C269.446 63.2761 268.036 61.149 267.078 58.8101C266.119 56.4713 265.631 53.9666 265.641 51.439C265.661 46.228 267.751 41.2386 271.45 37.5681C275.149 33.8975 280.154 31.8464 285.365 31.8661V31.8661C290.469 31.8857 295.357 33.932 298.952 37.555C302.548 41.178 304.557 46.0808 304.538 51.1851L304.471 68.4661C304.47 68.7771 304.408 69.0848 304.288 69.3717C304.168 69.6586 303.992 69.919 303.772 70.1381C303.551 70.3573 303.29 70.5309 303.002 70.6489C302.714 70.7669 302.406 70.8272 302.095 70.8261V70.8261Z" stroke="#B8C0CC" stroke-width="1.88" stroke-linecap="round" stroke-linejoin="round"/>
<path d="M275.049 46.7231C275.702 46.7231 276.231 45.876 276.231 44.8311C276.231 43.7862 275.702 42.9391 275.049 42.9391C274.396 42.9391 273.867 43.7862 273.867 44.8311C273.867 45.876 274.396 46.7231 275.049 46.7231Z" fill="#B8C0CC"/>
<path d="M281.054 46.7231C281.707 46.7231 282.236 45.876 282.236 44.8311C282.236 43.7862 281.707 42.9391 281.054 42.9391C280.401 42.9391 279.872 43.7862 279.872 44.8311C279.872 45.876 280.401 46.7231 281.054 46.7231Z" fill="#B8C0CC"/>
<path d="M353.329 69.5741L336.646 69.5102C334.088 69.5005 331.557 68.9869 329.197 67.9989C326.837 67.0109 324.695 65.5678 322.893 63.752C321.091 61.9361 319.664 59.7831 318.694 57.4158C317.724 55.0485 317.23 52.5133 317.24 49.9551C317.26 44.8061 319.324 39.8759 322.979 36.249C326.634 32.622 331.58 30.5955 336.729 30.6151C339.287 30.625 341.819 31.1386 344.178 32.1267C346.538 33.1148 348.68 34.558 350.482 36.374C352.284 38.1899 353.711 40.343 354.681 42.7103C355.651 45.0777 356.145 47.6129 356.135 50.1712L356.071 66.8532C356.068 67.5776 355.778 68.2711 355.263 68.7814C354.749 69.2916 354.053 69.5768 353.329 69.5741Z" fill="white"/>
<path d="M336.938 30.6461C335.929 30.6425 334.921 30.7177 333.923 30.8712C341.853 30.7162 352.606 36.6151 352.555 50.0621L352.491 66.7491C352.486 67.4753 352.194 68.17 351.679 68.6814C351.163 69.1928 350.466 69.4792 349.74 69.4782L353.407 69.4922C354.133 69.4933 354.83 69.2067 355.346 68.6953C355.861 68.1839 356.153 67.4893 356.158 66.7632L356.222 50.0772C356.227 44.9477 354.201 40.0247 350.588 36.3839C346.975 32.743 342.067 30.6802 336.938 30.6461Z" fill="#EAEFF4"/>
<path d="M353.692 69.5761L336.411 69.5091C333.884 69.4995 331.383 68.9922 329.051 68.0161C326.72 67.0399 324.604 65.6141 322.823 63.82C321.043 62.026 319.634 59.8988 318.675 57.56C317.717 55.2212 317.229 52.7165 317.239 50.189C317.259 44.978 319.349 39.9883 323.047 36.3177C326.746 32.6471 331.752 30.5962 336.963 30.6161C342.067 30.6357 346.955 32.682 350.55 36.305C354.146 39.928 356.155 44.8309 356.136 49.9351L356.069 67.2161C356.068 67.5272 356.006 67.8349 355.886 68.1219C355.766 68.4089 355.59 68.6694 355.369 68.8885C355.149 69.1077 354.887 69.2813 354.599 69.3993C354.311 69.5172 354.003 69.5773 353.692 69.5761Z" stroke="#B8C0CC" stroke-width="1.88" stroke-linecap="round" stroke-linejoin="round"/>
<path d="M326.647 45.4731C327.3 45.4731 327.829 44.626 327.829 43.5811C327.829 42.5362 327.3 41.6891 326.647 41.6891C325.994 41.6891 325.465 42.5362 325.465 43.5811C325.465 44.626 325.994 45.4731 326.647 45.4731Z" fill="#B8C0CC"/>
<path d="M332.651 45.4731C333.304 45.4731 333.833 44.626 333.833 43.5811C333.833 42.5362 333.304 41.6891 332.651 41.6891C331.998 41.6891 331.469 42.5362 331.469 43.5811C331.469 44.626 331.998 45.4731 332.651 45.4731Z" fill="#B8C0CC"/>
<path d="M438.157 62.0821L426.713 62.038C423.169 62.0245 419.775 60.6036 417.278 58.0878C414.781 55.572 413.386 52.1675 413.399 48.6231C413.413 45.0907 414.829 41.7084 417.336 39.2202C419.844 36.7321 423.237 35.3418 426.769 35.3551C428.524 35.3618 430.261 35.714 431.88 36.3919C433.498 37.0697 434.968 38.0599 436.204 39.3057C437.44 40.5515 438.419 42.0285 439.085 43.6526C439.75 45.2767 440.089 47.016 440.082 48.771L440.038 60.2161C440.037 60.4621 439.988 60.7056 439.893 60.9325C439.798 61.1595 439.659 61.3654 439.484 61.5387C439.309 61.712 439.102 61.8492 438.875 61.9424C438.647 62.0356 438.403 62.0831 438.157 62.0821Z" fill="white"/>
<path d="M426.913 35.3761C426.22 35.3736 425.529 35.4254 424.844 35.531C426.562 35.5065 428.267 35.8332 429.854 36.4911C431.442 37.149 432.878 38.1241 434.075 39.3568C435.272 40.5895 436.204 42.0537 436.815 43.6597C437.426 45.2656 437.702 46.9795 437.627 48.6961L437.582 60.1441C437.579 60.6421 437.379 61.1187 437.026 61.4695C436.672 61.8203 436.194 62.0168 435.696 62.016L438.211 62.026C438.709 62.0263 439.187 61.8295 439.541 61.4785C439.894 61.1276 440.095 60.6511 440.098 60.153L440.142 48.7061C440.145 45.1872 438.756 41.8101 436.277 39.3124C433.798 36.8147 430.432 35.3996 426.913 35.3761Z" fill="#EAEFF4"/>
<path d="M438.407 62.083L426.551 62.0379C424.818 62.0315 423.102 61.6838 421.503 61.0144C419.904 60.345 418.452 59.3672 417.231 58.1368C416.01 56.9064 415.043 55.4476 414.386 53.8435C413.728 52.2394 413.393 50.5215 413.4 48.7879V48.7879C413.407 47.0177 413.762 45.2662 414.445 43.6333C415.129 42.0004 416.128 40.5182 417.384 39.2712C418.641 38.0243 420.13 37.037 421.768 36.3659C423.407 35.6949 425.161 35.353 426.931 35.36V35.36C428.665 35.3661 430.381 35.7139 431.98 36.3833C433.58 37.0528 435.032 38.0307 436.253 39.2615C437.475 40.4922 438.442 41.9516 439.099 43.5561C439.756 45.1607 440.091 46.8791 440.084 48.613V48.613L440.039 60.468C440.036 60.8985 439.863 61.3102 439.557 61.613C439.251 61.9158 438.837 62.0849 438.407 62.083V62.083Z" stroke="#B8C0CC" stroke-width="1.88" stroke-linecap="round" stroke-linejoin="round"/>
<path d="M419.853 45.5481C420.301 45.5481 420.664 44.967 420.664 44.2501C420.664 43.5333 420.301 42.9521 419.853 42.9521C419.405 42.9521 419.042 43.5333 419.042 44.2501C419.042 44.967 419.405 45.5481 419.853 45.5481Z" fill="#B8C0CC"/>
<path d="M423.972 45.5481C424.42 45.5481 424.783 44.967 424.783 44.2501C424.783 43.5333 424.42 42.9521 423.972 42.9521C423.524 42.9521 423.161 43.5333 423.161 44.2501C423.161 44.967 423.524 45.5481 423.972 45.5481Z" fill="#B8C0CC"/>
<path d="M403.006 71.2132L386.323 71.1492C383.765 71.1394 381.233 70.6257 378.874 69.6376C376.514 68.6495 374.372 67.2062 372.57 65.3903C370.768 63.5743 369.341 61.4213 368.371 59.054C367.401 56.6867 366.907 54.1514 366.917 51.5932C366.927 49.0437 367.438 46.5211 368.423 44.1695C369.408 41.8178 370.846 39.6832 372.656 37.8874C374.465 36.0915 376.611 34.6698 378.97 33.7033C381.329 32.7367 383.856 32.2443 386.405 32.2542C391.572 32.274 396.519 34.3455 400.159 38.013C403.798 41.6804 405.832 46.6434 405.812 51.8102L405.748 68.4922C405.745 69.2166 405.455 69.9102 404.94 70.4204C404.426 70.9307 403.73 71.2158 403.006 71.2132Z" fill="white"/>
<path d="M386.615 32.2881C385.606 32.284 384.598 32.3592 383.6 32.5131C391.53 32.3571 402.283 38.2571 402.232 51.7041L402.167 68.3901C402.162 69.1162 401.871 69.811 401.355 70.3226C400.84 70.8342 400.143 71.1209 399.417 71.1201L403.084 71.1341C403.81 71.1349 404.507 70.8482 405.023 70.3367C405.538 69.8251 405.83 69.1304 405.835 68.4042L405.899 51.7181C405.904 46.5888 403.878 41.6661 400.265 38.0255C396.651 34.3849 391.744 32.3222 386.615 32.2881Z" fill="#EAEFF4"/>
<path d="M403.369 71.2141L386.088 71.1482C380.984 71.1284 376.096 69.0817 372.501 65.4585C368.906 61.8354 366.897 56.9324 366.916 51.8281C366.936 46.6171 369.025 41.6274 372.724 37.9568C376.423 34.2862 381.429 32.2352 386.64 32.2551V32.2551C389.167 32.2647 391.668 32.772 393.999 33.7481C396.331 34.7241 398.447 36.1499 400.227 37.9439C402.008 39.7378 403.417 41.8648 404.375 44.2035C405.334 46.5422 405.822 49.0467 405.812 51.5741V51.5741L405.746 68.8551C405.745 69.1661 405.682 69.4738 405.562 69.7606C405.442 70.0475 405.267 70.3079 405.046 70.527C404.825 70.7461 404.564 70.9195 404.276 71.0374C403.988 71.1553 403.68 71.2153 403.369 71.2141Z" stroke="#B8C0CC" stroke-width="1.88" stroke-linecap="round" stroke-linejoin="round"/>
<path d="M376.324 47.1121C376.977 47.1121 377.506 46.265 377.506 45.2201C377.506 44.1752 376.977 43.3281 376.324 43.3281C375.671 43.3281 375.142 44.1752 375.142 45.2201C375.142 46.265 375.671 47.1121 376.324 47.1121Z" fill="#B8C0CC"/>
<path d="M382.328 47.1121C382.981 47.1121 383.51 46.265 383.51 45.2201C383.51 44.1752 382.981 43.3281 382.328 43.3281C381.675 43.3281 381.146 44.1752 381.146 45.2201C381.146 46.265 381.675 47.1121 382.328 47.1121Z" fill="#B8C0CC"/>
<path d="M250.848 70.8241L234.165 70.7602C231.607 70.7505 229.076 70.2369 226.716 69.2489C224.356 68.2609 222.214 66.8178 220.412 65.002C218.61 63.1861 217.183 61.0331 216.213 58.6658C215.243 56.2985 214.749 53.7633 214.759 51.2051C214.779 46.0561 216.843 41.1259 220.498 37.4989C224.153 33.872 229.099 31.8455 234.248 31.8651C236.806 31.875 239.338 32.3886 241.697 33.3767C244.057 34.3648 246.199 35.8081 248.001 37.624C249.803 39.44 251.23 41.593 252.2 43.9603C253.17 46.3277 253.664 48.8629 253.654 51.4212L253.59 68.1032C253.587 68.8276 253.297 69.5211 252.782 70.0314C252.268 70.5416 251.572 70.8268 250.848 70.8241Z" fill="white"/>
<path d="M234.457 31.8961C233.448 31.8925 232.44 31.9677 231.442 32.1212C239.372 31.9662 250.125 37.8651 250.074 51.3121L250.01 67.9991C250.005 68.7253 249.713 69.42 249.198 69.9314C248.682 70.4428 247.985 70.7292 247.259 70.7282L250.926 70.7422C251.652 70.7433 252.349 70.4567 252.865 69.9453C253.38 69.4339 253.672 68.7393 253.677 68.0132L253.741 51.3272C253.746 46.1977 251.72 41.2748 248.107 37.6339C244.494 33.9931 239.586 31.9302 234.457 31.8961Z" fill="#EAEFF4"/>
<path d="M251.211 70.8261L233.93 70.7591C231.403 70.7495 228.902 70.2422 226.57 69.2661C224.239 68.2899 222.123 66.8641 220.342 65.07C218.562 63.276 217.153 61.1488 216.194 58.81C215.236 56.4712 214.748 53.9665 214.758 51.439C214.778 46.228 216.867 41.2383 220.566 37.5677C224.265 33.8971 229.271 31.8462 234.482 31.8661V31.8661C239.586 31.8857 244.474 33.932 248.069 37.555C251.665 41.178 253.674 46.0809 253.655 51.1851L253.588 68.4661C253.587 68.7772 253.525 69.0849 253.405 69.3719C253.285 69.6589 253.109 69.9194 252.888 70.1385C252.668 70.3577 252.406 70.5313 252.118 70.6493C251.83 70.7672 251.522 70.8273 251.211 70.8261Z" stroke="#B8C0CC" stroke-width="1.88" stroke-linecap="round" stroke-linejoin="round"/>
<path d="M224.166 46.7231C224.819 46.7231 225.348 45.876 225.348 44.8311C225.348 43.7862 224.819 42.9391 224.166 42.9391C223.513 42.9391 222.984 43.7862 222.984 44.8311C222.984 45.876 223.513 46.7231 224.166 46.7231Z" fill="#B8C0CC"/>
<path d="M230.17 46.7231C230.823 46.7231 231.352 45.876 231.352 44.8311C231.352 43.7862 230.823 42.9391 230.17 42.9391C229.517 42.9391 228.988 43.7862 228.988 44.8311C228.988 45.876 229.517 46.7231 230.17 46.7231Z" fill="#B8C0CC"/>
<path d="M275.363 92.0032L255.718 91.9281C249.634 91.9046 243.809 89.4653 239.523 85.1468C235.237 80.8282 232.843 74.9842 232.866 68.9002C232.889 62.837 235.32 57.0314 239.624 52.7604C243.928 48.4895 249.752 46.103 255.815 46.1261C258.828 46.1377 261.808 46.7425 264.587 47.9061C267.366 49.0696 269.888 50.7689 272.01 52.9073C274.132 55.0456 275.812 57.5811 276.955 60.3687C278.097 63.1563 278.679 66.1417 278.667 69.1542L278.592 88.7992C278.59 89.2217 278.506 89.6396 278.343 90.0292C278.179 90.4189 277.941 90.7726 277.641 91.0701C277.341 91.3676 276.986 91.6031 276.595 91.7632C276.204 91.9233 275.785 92.0049 275.363 92.0032Z" fill="white"/>
<path d="M256.062 46.1631C254.873 46.1584 253.686 46.247 252.511 46.4282C261.849 46.2452 274.511 53.1921 274.452 69.0281L274.376 88.6782C274.37 89.5332 274.027 90.3513 273.42 90.9536C272.813 91.5558 271.992 91.8932 271.137 91.8922L275.456 91.9092C276.311 91.9098 277.132 91.5719 277.738 90.9695C278.345 90.3672 278.689 89.5492 278.695 88.6942L278.77 69.0452C278.776 63.0047 276.391 57.2073 272.136 52.9197C267.881 48.6322 262.102 46.203 256.062 46.1631Z" fill="#EAEFF4"/>
<path d="M275.791 92.0052L255.442 91.9272C252.466 91.9158 249.521 91.3183 246.775 90.1687C244.03 89.0192 241.538 87.3402 239.442 85.2276C237.345 83.115 235.685 80.6101 234.557 77.856C233.428 75.1019 232.854 72.1525 232.865 69.1762V69.1762C232.889 63.0398 235.349 57.164 239.705 52.8415C244.06 48.519 249.955 46.1037 256.091 46.1271V46.1271C259.067 46.1384 262.012 46.7359 264.757 47.8853C267.503 49.0347 269.995 50.7135 272.091 52.8261C274.188 54.9386 275.848 57.4435 276.976 60.1976C278.105 62.9516 278.68 65.9009 278.668 68.8771L278.59 89.2261C278.589 89.5924 278.515 89.9549 278.374 90.2928C278.233 90.6306 278.026 90.9373 277.766 91.1954C277.506 91.4534 277.198 91.6577 276.859 91.7967C276.52 91.9356 276.157 92.0065 275.791 92.0052Z" stroke="#B8C0CC" stroke-width="1.88" stroke-linecap="round" stroke-linejoin="round"/>
<path d="M243.943 63.6221C244.711 63.6221 245.334 62.6246 245.334 61.3941C245.334 60.1636 244.711 59.1661 243.943 59.1661C243.175 59.1661 242.552 60.1636 242.552 61.3941C242.552 62.6246 243.175 63.6221 243.943 63.6221Z" fill="#B8C0CC"/>
<path d="M251.013 63.6221C251.781 63.6221 252.404 62.6246 252.404 61.3941C252.404 60.1636 251.781 59.1661 251.013 59.1661C250.245 59.1661 249.622 60.1636 249.622 61.3941C249.622 62.6246 250.245 63.6221 251.013 63.6221Z" fill="#B8C0CC"/>
<path d="M331.815 91.2411L311.967 91.1652C308.923 91.1535 305.911 90.5425 303.104 89.3669C300.296 88.1913 297.748 86.4742 295.604 84.3136C293.46 82.1531 291.762 79.5914 290.608 76.7748C289.454 73.9583 288.866 70.942 288.878 67.8982C288.902 61.7724 291.358 55.907 295.707 51.5921C300.055 47.2772 305.939 44.8661 312.065 44.8892C315.109 44.9009 318.12 45.5119 320.928 46.6875C323.736 47.8631 326.284 49.5802 328.428 51.7408C330.572 53.9013 332.27 56.463 333.424 59.2796C334.578 62.0962 335.166 65.1124 335.154 68.1562L335.077 88.0042C335.076 88.431 334.99 88.8533 334.825 89.247C334.66 89.6407 334.42 89.9981 334.117 90.2987C333.814 90.5994 333.455 90.8373 333.06 90.9991C332.665 91.1608 332.242 91.243 331.815 91.2411Z" fill="white"/>
<path d="M312.314 44.9262C311.113 44.9214 309.914 45.011 308.727 45.1942C318.161 45.0092 330.956 52.0282 330.895 68.0272L330.818 87.8802C330.812 88.7439 330.465 89.5701 329.852 90.1785C329.239 90.7869 328.41 91.1279 327.546 91.1271L331.909 91.1442C332.773 91.1448 333.602 90.8034 334.215 90.1949C334.828 89.5863 335.175 88.76 335.181 87.8962L335.257 68.0443C335.262 61.9417 332.852 56.0852 328.553 51.7537C324.254 47.4222 318.416 44.9677 312.314 44.9262Z" fill="#EAEFF4"/>
<path d="M332.248 91.2432L311.687 91.1642C305.614 91.1404 299.8 88.7053 295.522 84.3947C291.244 80.0841 288.854 74.2509 288.877 68.1781V68.1781C288.901 61.9781 291.387 56.0414 295.787 51.6741C300.188 47.3068 306.144 44.8665 312.344 44.8902V44.8902C318.417 44.9137 324.232 47.3486 328.51 51.6592C332.787 55.9699 335.178 61.8032 335.155 67.8761V67.8761L335.076 88.4372C335.075 88.8071 335 89.1731 334.857 89.5143C334.714 89.8556 334.506 90.1653 334.243 90.4258C333.981 90.6864 333.669 90.8928 333.327 91.033C332.984 91.1732 332.618 91.2447 332.248 91.2432V91.2432Z" stroke="#B8C0CC" stroke-width="1.88" stroke-linecap="round" stroke-linejoin="round"/>
<path d="M300.07 62.5661C300.847 62.5661 301.476 61.5583 301.476 60.3151C301.476 59.0719 300.847 58.0641 300.07 58.0641C299.293 58.0641 298.664 59.0719 298.664 60.3151C298.664 61.5583 299.293 62.5661 300.07 62.5661Z" fill="#B8C0CC"/>
<path d="M307.214 62.5661C307.99 62.5661 308.62 61.5583 308.62 60.3151C308.62 59.0719 307.99 58.0641 307.214 58.0641C306.437 58.0641 305.808 59.0719 305.808 60.3151C305.808 61.5583 306.437 62.5661 307.214 62.5661Z" fill="#B8C0CC"/>
<path d="M374.4 91.5882L354.551 91.5121C351.507 91.5005 348.496 90.8894 345.688 89.7138C342.88 88.5382 340.332 86.8211 338.188 84.6606C336.044 82.5 334.346 79.9384 333.192 77.1219C332.038 74.3053 331.45 71.2889 331.462 68.2452C331.486 62.1193 333.942 56.2539 338.291 51.939C342.639 47.6241 348.523 45.213 354.649 45.2361C357.693 45.2478 360.704 45.8589 363.512 47.0345C366.32 48.2101 368.868 49.9271 371.012 52.0877C373.156 54.2482 374.854 56.8099 376.008 59.6265C377.162 62.4431 377.75 65.4594 377.738 68.5032L377.662 88.3511C377.659 89.2129 377.313 90.038 376.701 90.6451C376.09 91.2521 375.262 91.5914 374.4 91.5882Z" fill="white"/>
<path d="M354.893 45.2722C353.692 45.2674 352.493 45.357 351.306 45.5402C360.741 45.3552 373.535 52.3742 373.474 68.3732L373.397 88.2252C373.391 89.089 373.044 89.9156 372.431 90.5242C371.818 91.1328 370.989 91.474 370.125 91.4732L374.488 91.4902C375.352 91.4905 376.181 91.1492 376.794 90.5407C377.407 89.9322 377.755 89.106 377.761 88.2422L377.836 68.3902C377.841 62.2877 375.431 56.4312 371.132 52.0997C366.833 47.7682 360.995 45.3136 354.893 45.2722Z" fill="#EAEFF4"/>
<path d="M374.827 91.5882L354.267 91.5092C348.194 91.4856 342.379 89.0508 338.101 84.7402C333.823 80.4295 331.433 74.5962 331.456 68.5232V68.5232C331.48 62.3232 333.966 56.3864 338.366 52.0191C342.767 47.6518 348.723 45.2115 354.923 45.2352V45.2352C360.996 45.2587 366.811 47.6936 371.089 52.0042C375.366 56.3148 377.757 62.1483 377.734 68.2212L377.655 88.7822C377.654 89.1521 377.579 89.5182 377.436 89.8594C377.293 90.2006 377.085 90.5104 376.822 90.7709C376.56 91.0315 376.248 91.2377 375.906 91.378C375.564 91.5182 375.197 91.5896 374.827 91.5882Z" stroke="#B8C0CC" stroke-width="1.88" stroke-linecap="round" stroke-linejoin="round"/>
<path d="M342.649 62.9122C343.425 62.9122 344.055 61.9043 344.055 60.6612C344.055 59.418 343.425 58.4102 342.649 58.4102C341.872 58.4102 341.243 59.418 341.243 60.6612C341.243 61.9043 341.872 62.9122 342.649 62.9122Z" fill="#B8C0CC"/>
<path d="M349.793 62.9122C350.57 62.9122 351.199 61.9043 351.199 60.6612C351.199 59.418 350.57 58.4102 349.793 58.4102C349.017 58.4102 348.387 59.418 348.387 60.6612C348.387 61.9043 349.017 62.9122 349.793 62.9122Z" fill="#B8C0CC"/>
<path d="M306.191 110.765L286.342 110.689C280.195 110.665 274.309 108.201 269.979 103.837C265.65 99.4739 263.23 93.5692 263.254 87.4222C263.278 81.2965 265.734 75.4313 270.082 71.1164C274.43 66.8015 280.314 64.3903 286.44 64.4131C289.484 64.4248 292.495 65.0359 295.303 66.2115C298.111 67.3871 300.659 69.1041 302.803 71.2647C304.947 73.4252 306.645 75.9869 307.799 78.8035C308.953 81.6201 309.541 84.6364 309.529 87.6802L309.453 107.528C309.451 107.955 309.366 108.377 309.201 108.771C309.036 109.164 308.795 109.522 308.493 109.822C308.19 110.123 307.83 110.361 307.436 110.523C307.041 110.685 306.618 110.767 306.191 110.765Z" fill="white"/>
<path d="M286.689 64.4503C285.488 64.4455 284.289 64.535 283.102 64.7182C292.537 64.5332 305.331 71.5522 305.27 87.5512L305.194 107.404C305.188 108.268 304.84 109.094 304.227 109.703C303.614 110.311 302.785 110.652 301.921 110.651L306.284 110.668C307.148 110.669 307.977 110.328 308.591 109.719C309.204 109.111 309.551 108.284 309.557 107.42L309.633 87.5682C309.638 81.4655 307.228 75.6088 302.929 71.2773C298.63 66.9458 292.792 64.4915 286.689 64.4503Z" fill="#EAEFF4"/>
<path d="M306.623 110.767L286.063 110.688C279.99 110.664 274.176 108.229 269.898 103.919C265.62 99.6081 263.23 93.775 263.253 87.7022V87.7022C263.265 84.6323 263.881 81.5948 265.067 78.763C266.252 75.9312 267.984 73.3607 270.163 71.1982C272.342 69.0357 274.926 67.3236 277.766 66.1596C280.607 64.9956 283.649 64.4025 286.719 64.4142V64.4142C292.792 64.4378 298.607 66.8726 302.885 71.1833C307.163 75.4939 309.553 81.3272 309.53 87.4002L309.451 107.961C309.45 108.331 309.375 108.697 309.232 109.038C309.09 109.38 308.881 109.689 308.618 109.95C308.356 110.21 308.044 110.417 307.702 110.557C307.36 110.697 306.993 110.769 306.623 110.767V110.767Z" stroke="#B8C0CC" stroke-width="1.88" stroke-linecap="round" stroke-linejoin="round"/>
<path d="M274.446 82.0901C275.223 82.0901 275.852 81.0823 275.852 79.8391C275.852 78.5959 275.223 77.5881 274.446 77.5881C273.67 77.5881 273.04 78.5959 273.04 79.8391C273.04 81.0823 273.67 82.0901 274.446 82.0901Z" fill="#B8C0CC"/>
<path d="M281.589 82.0901C282.365 82.0901 282.995 81.0823 282.995 79.8391C282.995 78.5959 282.365 77.5881 281.589 77.5881C280.812 77.5881 280.183 78.5959 280.183 79.8391C280.183 81.0823 280.812 82.0901 281.589 82.0901Z" fill="#B8C0CC"/>
<path d="M426.859 93.3182L407.011 93.2422C400.864 93.2184 394.978 90.7537 390.648 86.3903C386.318 82.0269 383.899 76.1223 383.922 69.9751C383.946 63.8493 386.402 57.9839 390.751 53.669C395.099 49.3541 400.983 46.9431 407.109 46.9662C413.256 46.9898 419.142 49.4542 423.472 53.8174C427.802 58.1806 430.221 64.0852 430.198 70.2322L430.121 90.0812C430.118 90.943 429.772 91.7681 429.16 92.3752C428.549 92.9822 427.721 93.3213 426.859 93.3182Z" fill="white"/>
<path d="M407.358 47.0021C406.157 46.9983 404.957 47.088 403.77 47.2701C413.205 47.0851 426 54.1041 425.938 70.1031L425.862 89.9562C425.856 90.82 425.509 91.6465 424.895 92.2549C424.282 92.8633 423.453 93.2042 422.589 93.2031L426.953 93.2201C427.817 93.2209 428.646 92.8797 429.259 92.2711C429.872 91.6625 430.219 90.836 430.225 89.9722L430.301 70.1201C430.306 64.0176 427.896 58.1611 423.597 53.8296C419.298 49.4981 413.46 47.0435 407.358 47.0021Z" fill="#EAEFF4"/>
<path d="M427.292 93.3191L406.731 93.2411C400.658 93.2173 394.843 90.7822 390.566 86.4714C386.288 82.1605 383.898 76.3272 383.921 70.2542V70.2542C383.933 67.1843 384.549 64.1467 385.735 61.315C386.921 58.4833 388.652 55.9128 390.832 53.7504C393.011 51.588 395.594 49.8761 398.435 48.7122C401.276 47.5483 404.318 46.9554 407.388 46.9672V46.9672C413.461 46.9908 419.276 49.4255 423.553 53.7359C427.831 58.0463 430.222 63.8794 430.199 69.9522L430.12 90.5121C430.119 90.8822 430.045 91.2483 429.902 91.5897C429.759 91.931 429.55 92.2409 429.288 92.5015C429.025 92.7622 428.714 92.9685 428.371 93.1088C428.029 93.2491 427.662 93.3206 427.292 93.3191V93.3191Z" stroke="#B8C0CC" stroke-width="1.88" stroke-linecap="round" stroke-linejoin="round"/>
<path d="M395.114 64.6431C395.891 64.6431 396.52 63.6353 396.52 62.3921C396.52 61.1489 395.891 60.1411 395.114 60.1411C394.338 60.1411 393.708 61.1489 393.708 62.3921C393.708 63.6353 394.338 64.6431 395.114 64.6431Z" fill="#B8C0CC"/>
<path d="M402.258 64.6431C403.035 64.6431 403.664 63.6353 403.664 62.3921C403.664 61.1489 403.035 60.1411 402.258 60.1411C401.482 60.1411 400.852 61.1489 400.852 62.3921C400.852 63.6353 401.482 64.6431 402.258 64.6431Z" fill="#B8C0CC"/>
<path d="M400.557 111.259L380.709 111.182C374.562 111.159 368.676 108.694 364.346 104.331C360.016 99.9678 357.597 94.0632 357.62 87.9162C357.644 81.7902 360.1 75.9246 364.448 71.6094C368.797 67.2943 374.681 64.8831 380.807 64.9062C383.851 64.9178 386.863 65.5289 389.67 66.7045C392.478 67.8801 395.026 69.5972 397.17 71.7577C399.314 73.9183 401.012 76.48 402.166 79.2966C403.32 82.1131 403.908 85.1294 403.896 88.1731L403.82 108.021C403.817 108.883 403.471 109.709 402.859 110.316C402.247 110.923 401.419 111.262 400.557 111.259Z" fill="white"/>
<path d="M381.056 64.9431C379.855 64.9388 378.656 65.0284 377.469 65.2112C386.903 65.0262 399.698 72.0452 399.637 88.0442L399.56 107.897C399.554 108.761 399.207 109.587 398.594 110.196C397.981 110.804 397.152 111.145 396.288 111.144L400.651 111.161C401.515 111.162 402.344 110.82 402.957 110.212C403.57 109.603 403.917 108.777 403.923 107.913L403.999 88.0612C404.004 81.9587 401.594 76.1022 397.295 71.7707C392.996 67.4392 387.158 64.9846 381.056 64.9431Z" fill="#EAEFF4"/>
<path d="M400.99 111.26L380.43 111.181C374.357 111.158 368.542 108.723 364.264 104.412C359.987 100.102 357.596 94.2682 357.619 88.1952V88.1952C357.643 81.9952 360.129 76.0584 364.53 71.6911C368.93 67.3238 374.886 64.8835 381.086 64.9072V64.9072C387.159 64.9307 392.974 67.3657 397.252 71.6763C401.53 75.987 403.92 81.8203 403.897 87.8932V87.8932L403.818 108.454C403.817 108.824 403.742 109.19 403.599 109.531C403.457 109.873 403.248 110.182 402.985 110.443C402.723 110.703 402.411 110.91 402.069 111.05C401.727 111.19 401.36 111.262 400.99 111.26Z" stroke="#B8C0CC" stroke-width="1.88" stroke-linecap="round" stroke-linejoin="round"/>
<path d="M368.812 82.5842C369.589 82.5842 370.218 81.5763 370.218 80.3332C370.218 79.09 369.589 78.0822 368.812 78.0822C368.036 78.0822 367.406 79.09 367.406 80.3332C367.406 81.5763 368.036 82.5842 368.812 82.5842Z" fill="#B8C0CC"/>
<path d="M375.956 82.5842C376.733 82.5842 377.362 81.5763 377.362 80.3332C377.362 79.09 376.733 78.0822 375.956 78.0822C375.18 78.0822 374.55 79.09 374.55 80.3332C374.55 81.5763 375.18 82.5842 375.956 82.5842Z" fill="#B8C0CC"/>
<path d="M243.488 106.426L223.843 106.351C217.759 106.328 211.933 103.888 207.648 99.5694C203.362 95.2506 200.968 89.4064 200.991 83.3222C201.003 80.32 201.605 77.3496 202.765 74.5804C203.924 71.8112 205.618 69.2975 207.749 67.1828C209.88 65.0681 212.407 63.3939 215.185 62.2557C217.963 61.1175 220.938 60.5377 223.94 60.5492C230.024 60.5725 235.85 63.0117 240.136 67.3302C244.421 71.6488 246.816 77.493 246.793 83.5772L246.717 103.222C246.715 103.645 246.631 104.063 246.468 104.452C246.304 104.842 246.066 105.196 245.766 105.493C245.466 105.791 245.111 106.026 244.72 106.186C244.329 106.346 243.91 106.428 243.488 106.426Z" fill="white"/>
<path d="M224.187 60.5881C222.998 60.5843 221.811 60.6732 220.636 60.8541C229.974 60.6701 242.636 67.6171 242.577 83.4541L242.501 103.104C242.495 103.959 242.152 104.777 241.545 105.38C240.938 105.982 240.117 106.319 239.262 106.318L243.581 106.334C244.436 106.335 245.257 105.998 245.864 105.396C246.471 104.793 246.814 103.975 246.82 103.12L246.895 83.4712C246.901 77.4306 244.516 71.633 240.261 67.3453C236.006 63.0576 230.227 60.6283 224.187 60.5881Z" fill="#EAEFF4"/>
<path d="M243.916 106.428L223.567 106.349C220.591 106.338 217.646 105.741 214.901 104.591C212.155 103.442 209.663 101.763 207.567 99.6502C205.47 97.5376 203.81 95.0329 202.682 92.2789C201.554 89.5248 200.979 86.5754 200.99 83.5992V83.5992C201.014 77.4627 203.474 71.5871 207.83 67.2646C212.185 62.9421 218.08 60.5268 224.216 60.5502V60.5502C230.227 60.5732 235.982 62.9829 240.216 67.2493C244.451 71.5157 246.817 77.2894 246.794 83.3002V83.3002L246.715 103.65C246.714 104.016 246.64 104.379 246.499 104.717C246.358 105.054 246.151 105.361 245.891 105.619C245.631 105.877 245.323 106.081 244.984 106.22C244.645 106.359 244.282 106.43 243.916 106.428V106.428Z" stroke="#B8C0CC" stroke-width="1.88" stroke-linecap="round" stroke-linejoin="round"/>
<path d="M212.068 78.0451C212.836 78.0451 213.459 77.0476 213.459 75.8171C213.459 74.5866 212.836 73.5891 212.068 73.5891C211.3 73.5891 210.677 74.5866 210.677 75.8171C210.677 77.0476 211.3 78.0451 212.068 78.0451Z" fill="#B8C0CC"/>
<path d="M219.138 78.0451C219.906 78.0451 220.529 77.0476 220.529 75.8171C220.529 74.5866 219.906 73.5891 219.138 73.5891C218.37 73.5891 217.747 74.5866 217.747 75.8171C217.747 77.0476 218.37 78.0451 219.138 78.0451Z" fill="#B8C0CC"/>
<path d="M278.406 148.121L247.018 148.001C237.297 147.964 227.989 144.066 221.142 137.166C214.295 130.266 210.469 120.928 210.506 111.207C210.543 101.52 214.427 92.2439 221.304 85.4202C228.18 78.5965 237.486 74.784 247.173 74.8212C251.986 74.8395 256.749 75.8057 261.189 77.6647C265.629 79.5237 269.659 82.239 273.049 85.6555C276.44 89.0721 279.124 93.1231 280.949 97.5771C282.774 102.031 283.704 106.801 283.685 111.614L283.565 143.002C283.562 143.677 283.427 144.345 283.166 144.967C282.906 145.59 282.525 146.155 282.046 146.63C281.567 147.105 280.999 147.482 280.374 147.738C279.75 147.994 279.081 148.124 278.406 148.121Z" fill="white"/>
<path d="M247.567 74.8791C245.668 74.8723 243.771 75.014 241.894 75.3031C256.814 75.0101 277.047 86.1101 276.95 111.41L276.829 142.81C276.82 144.176 276.271 145.483 275.301 146.445C274.331 147.408 273.02 147.947 271.654 147.945L278.554 147.972C279.92 147.973 281.231 147.434 282.201 146.471C283.17 145.509 283.72 144.202 283.729 142.836L283.849 111.442C283.859 101.79 280.049 92.527 273.251 85.676C266.452 78.825 257.218 74.9433 247.567 74.8791Z" fill="#EAEFF4"/>
<path d="M279.09 148.124L246.576 147.999C236.972 147.962 227.777 144.112 221.012 137.295C214.248 130.478 210.468 121.253 210.505 111.649V111.649C210.543 101.845 214.473 92.4567 221.433 85.5503C228.392 78.644 237.81 74.785 247.614 74.8222C257.218 74.859 266.413 78.7092 273.178 85.5259C279.943 92.3426 283.723 101.567 283.687 111.171L283.562 143.685C283.558 144.867 283.084 145.998 282.245 146.831C281.407 147.663 280.272 148.128 279.09 148.124Z" stroke="#B8C0CC" stroke-width="1.88" stroke-linecap="round" stroke-linejoin="round"/>
<path d="M228.205 102.776C229.433 102.776 230.428 101.182 230.428 99.2161C230.428 97.25 229.433 95.6561 228.205 95.6561C226.977 95.6561 225.982 97.25 225.982 99.2161C225.982 101.182 226.977 102.776 228.205 102.776Z" fill="#B8C0CC"/>
<path d="M239.501 102.776C240.729 102.776 241.724 101.182 241.724 99.2161C241.724 97.25 240.729 95.6561 239.501 95.6561C238.273 95.6561 237.278 97.25 237.278 99.2161C237.278 101.182 238.273 102.776 239.501 102.776Z" fill="#B8C0CC"/>
<path d="M366.933 148.119L335.545 147.998C325.824 147.961 316.516 144.063 309.669 137.163C302.822 130.263 298.996 120.926 299.033 111.205C299.051 106.408 300.014 101.662 301.867 97.2375C303.72 92.8128 306.426 88.7965 309.83 85.4176C313.235 82.0388 317.272 79.3636 321.711 77.5449C326.15 75.7263 330.903 74.7997 335.7 74.8181C340.513 74.8366 345.276 75.8031 349.716 77.6621C354.156 79.5212 358.186 82.2366 361.576 85.6532C364.967 89.0699 367.651 93.1208 369.476 97.5749C371.301 102.029 372.231 106.799 372.212 111.612L372.091 142.999C372.089 143.674 371.953 144.342 371.693 144.964C371.432 145.587 371.051 146.152 370.572 146.627C370.093 147.103 369.526 147.479 368.901 147.735C368.277 147.991 367.608 148.122 366.933 148.119Z" fill="white"/>
<path d="M336.094 74.8761C334.195 74.8692 332.298 75.0111 330.421 75.3002C345.341 75.0072 365.574 86.1071 365.477 111.407L365.356 142.807C365.347 144.173 364.798 145.48 363.828 146.442C362.858 147.405 361.547 147.944 360.181 147.942L367.081 147.969C368.447 147.97 369.758 147.431 370.728 146.468C371.697 145.506 372.247 144.199 372.256 142.833L372.376 111.439C372.386 101.788 368.576 92.5243 361.777 85.6733C354.979 78.8224 345.745 74.9406 336.094 74.8761Z" fill="#EAEFF4"/>
<path d="M367.617 148.121L335.103 147.996C330.348 147.978 325.643 147.024 321.256 145.187C316.87 143.351 312.888 140.668 309.539 137.293C306.189 133.917 303.537 129.915 301.734 125.515C299.931 121.115 299.013 116.402 299.031 111.647V111.647C299.069 101.842 302.999 92.4544 309.959 85.548C316.918 78.6416 326.336 74.7827 336.141 74.8202C340.896 74.8383 345.602 75.7928 349.988 77.6293C354.374 79.4658 358.356 82.1483 361.706 85.5236C365.055 88.8989 367.708 92.901 369.511 97.3013C371.314 101.702 372.232 106.414 372.214 111.169V111.169L372.089 143.682C372.087 144.267 371.97 144.846 371.744 145.386C371.518 145.926 371.188 146.416 370.773 146.828C370.357 147.24 369.865 147.567 369.323 147.788C368.782 148.01 368.202 148.123 367.617 148.121Z" stroke="#B8C0CC" stroke-width="1.88" stroke-linecap="round" stroke-linejoin="round"/>
<path d="M316.731 102.773C317.959 102.773 318.954 101.179 318.954 99.2131C318.954 97.2469 317.959 95.6531 316.731 95.6531C315.503 95.6531 314.508 97.2469 314.508 99.2131C314.508 101.179 315.503 102.773 316.731 102.773Z" fill="#B8C0CC"/>
<path d="M328.028 102.773C329.256 102.773 330.251 101.179 330.251 99.2131C330.251 97.2469 329.256 95.6531 328.028 95.6531C326.8 95.6531 325.805 97.2469 325.805 99.2131C325.805 101.179 326.8 102.773 328.028 102.773Z" fill="#B8C0CC"/>
<path d="M319.094 180.988L287.706 180.867C277.985 180.83 268.677 176.933 261.83 170.032C254.983 163.132 251.157 153.795 251.194 144.074C251.231 134.387 255.115 125.111 261.992 118.287C268.868 111.463 278.174 107.65 287.861 107.687C292.674 107.706 297.437 108.672 301.877 110.531C306.317 112.39 310.347 115.106 313.737 118.522C317.128 121.939 319.812 125.99 321.637 130.444C323.462 134.898 324.392 139.668 324.373 144.481L324.253 175.869C324.25 176.544 324.115 177.212 323.854 177.834C323.593 178.457 323.213 179.022 322.734 179.497C322.255 179.972 321.687 180.349 321.062 180.605C320.438 180.86 319.769 180.991 319.094 180.988Z" fill="white"/>
<path d="M288.255 107.741C286.356 107.734 284.459 107.876 282.582 108.165C297.502 107.872 317.735 118.972 317.638 144.272L317.517 175.672C317.508 177.038 316.958 178.345 315.989 179.307C315.019 180.269 313.708 180.809 312.342 180.807L319.242 180.834C320.608 180.835 321.919 180.296 322.889 179.333C323.858 178.371 324.408 177.064 324.417 175.698L324.537 144.304C324.548 134.652 320.737 125.389 313.939 118.538C307.14 111.687 297.907 107.805 288.255 107.741Z" fill="#EAEFF4"/>
<path d="M319.778 180.988L287.264 180.863C277.66 180.826 268.465 176.976 261.7 170.159C254.936 163.342 251.156 154.117 251.193 144.513V144.513C251.231 134.709 255.162 125.322 262.12 118.416C269.079 111.51 278.496 107.651 288.3 107.688V107.688C293.055 107.706 297.761 108.661 302.147 110.497C306.533 112.334 310.515 115.016 313.865 118.392C317.214 121.767 319.866 125.769 321.67 130.169C323.473 134.569 324.391 139.282 324.373 144.037V144.037L324.248 176.551C324.243 177.732 323.77 178.863 322.932 179.695C322.093 180.527 320.959 180.992 319.778 180.988Z" stroke="#B8C0CC" stroke-width="1.88" stroke-linecap="round" stroke-linejoin="round"/>
<path d="M268.893 135.638C270.121 135.638 271.116 134.044 271.116 132.078C271.116 130.112 270.121 128.518 268.893 128.518C267.665 128.518 266.67 130.112 266.67 132.078C266.67 134.044 267.665 135.638 268.893 135.638Z" fill="#B8C0CC"/>
<path d="M280.189 135.638C281.417 135.638 282.412 134.044 282.412 132.078C282.412 130.112 281.417 128.518 280.189 128.518C278.961 128.518 277.966 130.112 277.966 132.078C277.966 134.044 278.961 135.638 280.189 135.638Z" fill="#B8C0CC"/>
<path d="M115.686 197.347H77.9999V251.286H115.686V197.347Z" stroke="#B8C0CC" stroke-width="1.88" stroke-miterlimit="10" stroke-linecap="round" stroke-linejoin="round"/>
<path d="M165.428 115.546H31.4733V251.286H165.428V115.546Z" stroke="#B8C0CC" stroke-width="1.88" stroke-miterlimit="10" stroke-linejoin="round"/>
<path d="M91.8889 182.118V163.458H102.69V182.118H91.8889Z" fill="#EFF3F7" stroke="#B8C0CC" stroke-width="1.88"/>
<path d="M56.347 182.119V163.459H67.148V182.119H56.347Z" fill="#EFF3F7" stroke="#B8C0CC" stroke-width="1.88"/>
<path d="M127.433 182.118V163.458H138.234V182.118H127.433Z" fill="#EFF3F7" stroke="#B8C0CC" stroke-width="1.88"/>
<path d="M5.9281 251.537H173.9" stroke="#B8C0CC" stroke-width="1.88" stroke-miterlimit="10" stroke-linejoin="round"/>
<path d="M176.681 96.7919H19.6866V115.367H176.681V96.7919Z" stroke="#B8C0CC" stroke-width="1.88" stroke-miterlimit="10" stroke-linecap="round" stroke-linejoin="round"/>
<path d="M131.169 89.9719H71.3655C70.9195 89.9719 70.5546 89.3625 70.5546 88.6177V87.2297C70.5546 86.4849 70.9195 85.8755 71.3655 85.8755H131.189C131.635 85.8755 132 86.4849 132 87.2297V88.6177C131.98 89.3625 131.615 89.9719 131.169 89.9719Z" fill="#EAEFF4" stroke="#B8C0CC" stroke-width="1.88" stroke-miterlimit="10"/>
<path d="M124.028 94.8192V78.9799C124.028 77.891 123.039 77 121.83 77H121.226C120.017 77 119.028 77.891 119.028 78.9799V94.8192C119.028 95.9082 120.017 96.7991 121.226 96.7991H121.83C123.067 96.7991 124.028 95.9082 124.028 94.8192Z" fill="#EAEFF4" stroke="#B8C0CC" stroke-width="1.88" stroke-miterlimit="10"/>
<path d="M89.0282 94.8192V78.9799C89.0282 77.891 88.0392 77 86.8304 77H86.226C85.0172 77 84.0282 77.891 84.0282 78.9799V94.8192C84.0282 95.9082 85.0172 96.7991 86.226 96.7991H86.8304C88.0667 96.7991 89.0282 95.9082 89.0282 94.8192Z" fill="#EAEFF4" stroke="#B8C0CC" stroke-width="1.88" stroke-miterlimit="10"/>
<path d="M119 94.8192V78.9799C119 77.891 118.011 77 116.802 77H116.198C114.989 77 114 77.891 114 78.9799V94.8192C114 95.9082 114.989 96.7991 116.198 96.7991H116.802C118.038 96.7991 119 95.9082 119 94.8192Z" fill="#EAEFF4" stroke="#B8C0CC" stroke-width="1.88" stroke-miterlimit="10"/>
<path d="M83.9999 94.8192V78.9799C83.9999 77.891 83.0109 77 81.8021 77H81.1977C79.9889 77 78.9999 77.891 78.9999 78.9799V94.8192C78.9999 95.9082 79.9889 96.7991 81.1977 96.7991H81.8021C83.0383 96.7991 83.9999 95.9082 83.9999 94.8192Z" fill="#EAEFF4" stroke="#B8C0CC" stroke-width="1.88" stroke-miterlimit="10"/>
<path d="M88.1808 224.317C89.7591 224.317 91.0385 223.038 91.0385 221.459C91.0385 219.881 89.7591 218.602 88.1808 218.602C86.6026 218.602 85.3231 219.881 85.3231 221.459C85.3231 223.038 86.6026 224.317 88.1808 224.317Z" fill="#B8C0CC"/>
<path d="M87.2399 138.111C87.4932 138.111 87.6932 138.184 87.8399 138.331C87.9999 138.477 88.0799 138.677 88.0799 138.931V143.611C88.0799 144.064 88.0132 144.391 87.8799 144.591C87.7599 144.791 87.5132 144.951 87.1399 145.071C86.6065 145.284 85.9732 145.451 85.2399 145.571C84.5065 145.691 83.7799 145.751 83.0599 145.751C81.6332 145.751 80.3999 145.464 79.3599 144.891C78.3199 144.317 77.5265 143.491 76.9799 142.411C76.4332 141.331 76.1599 140.037 76.1599 138.531C76.1599 137.051 76.4332 135.771 76.9799 134.691C77.5265 133.611 78.3065 132.784 79.3199 132.211C80.3465 131.624 81.5465 131.331 82.9199 131.331C83.8532 131.331 84.7132 131.471 85.4999 131.751C86.2999 132.017 86.9799 132.411 87.5399 132.931C87.8065 133.144 87.9399 133.411 87.9399 133.731C87.9399 133.971 87.8732 134.177 87.7399 134.351C87.6065 134.511 87.4465 134.591 87.2599 134.591C87.1399 134.591 87.0332 134.571 86.9399 134.531C86.8465 134.491 86.7265 134.424 86.5799 134.331C85.9265 133.851 85.3332 133.517 84.7999 133.331C84.2665 133.131 83.6532 133.031 82.9599 133.031C81.4399 133.031 80.2799 133.504 79.4799 134.451C78.6799 135.384 78.2799 136.744 78.2799 138.531C78.2799 140.357 78.6865 141.744 79.4999 142.691C80.3265 143.624 81.5332 144.091 83.1199 144.091C84.1865 144.091 85.2132 143.931 86.1999 143.611V139.671H83.5799C83.3132 139.671 83.0999 139.604 82.9399 139.471C82.7932 139.324 82.7199 139.131 82.7199 138.891C82.7199 138.651 82.7932 138.464 82.9399 138.331C83.0999 138.184 83.3132 138.111 83.5799 138.111H87.2399ZM97.8907 136.231C97.9707 136.031 98.084 135.884 98.2307 135.791C98.3907 135.697 98.5573 135.651 98.7307 135.651C98.984 135.651 99.204 135.737 99.3907 135.911C99.5907 136.084 99.6907 136.291 99.6907 136.531C99.6907 136.664 99.664 136.791 99.6107 136.911L94.0507 148.711C93.9707 148.897 93.8507 149.037 93.6907 149.131C93.544 149.237 93.384 149.291 93.2107 149.291C92.9707 149.291 92.7507 149.211 92.5507 149.051C92.364 148.891 92.2707 148.691 92.2707 148.451C92.2707 148.344 92.304 148.211 92.3707 148.051L93.7507 145.111L89.8907 136.911C89.8373 136.804 89.8107 136.684 89.8107 136.551C89.8107 136.297 89.9173 136.084 90.1307 135.911C90.344 135.737 90.584 135.651 90.8507 135.651C91.2507 135.651 91.5373 135.837 91.7107 136.211L94.8107 143.091L97.8907 136.231ZM112.541 135.591C114.728 135.591 115.821 136.904 115.821 139.531V144.731C115.821 145.037 115.728 145.277 115.541 145.451C115.355 145.611 115.108 145.691 114.801 145.691C114.508 145.691 114.268 145.611 114.081 145.451C113.895 145.277 113.801 145.037 113.801 144.731V139.551C113.801 138.737 113.655 138.151 113.361 137.791C113.068 137.417 112.608 137.231 111.981 137.231C111.248 137.231 110.668 137.484 110.241 137.991C109.815 138.484 109.601 139.164 109.601 140.031V144.731C109.601 145.037 109.508 145.277 109.321 145.451C109.135 145.611 108.888 145.691 108.581 145.691C108.288 145.691 108.048 145.611 107.861 145.451C107.675 145.277 107.581 145.037 107.581 144.731V139.551C107.581 138.737 107.435 138.151 107.141 137.791C106.848 137.417 106.388 137.231 105.761 137.231C105.028 137.231 104.441 137.484 104.001 137.991C103.575 138.484 103.361 139.164 103.361 140.031V144.731C103.361 145.037 103.268 145.277 103.081 145.451C102.895 145.611 102.655 145.691 102.361 145.691C102.068 145.691 101.821 145.611 101.621 145.451C101.435 145.277 101.341 145.037 101.341 144.731V136.591C101.341 136.297 101.441 136.064 101.641 135.891C101.841 135.717 102.081 135.631 102.361 135.631C102.641 135.631 102.868 135.717 103.041 135.891C103.228 136.051 103.321 136.277 103.321 136.571V137.311C103.615 136.751 104.021 136.324 104.541 136.031C105.061 135.737 105.661 135.591 106.341 135.591C107.088 135.591 107.701 135.744 108.181 136.051C108.675 136.357 109.041 136.831 109.281 137.471C109.575 136.897 110.008 136.444 110.581 136.111C111.155 135.764 111.808 135.591 112.541 135.591Z" fill="#30A3C7"/>
<path d="M178.963 201.601C182.2 201.601 185.406 202.239 188.398 203.478C191.389 204.717 194.107 206.533 196.396 208.822C198.685 211.111 200.501 213.829 201.74 216.82C202.979 219.812 203.617 223.017 203.617 226.255C203.617 232.838 201.002 239.151 196.347 243.806C191.692 248.461 185.379 251.076 178.796 251.076H158.142C157.081 251.076 156.064 250.655 155.313 249.905C154.563 249.154 154.142 248.137 154.142 247.076V226.422C154.142 219.839 156.757 213.526 161.412 208.871C166.067 204.216 172.38 201.601 178.963 201.601V201.601Z" fill="white"/>
<path d="M178.655 201.639C179.939 201.639 181.221 201.739 182.489 201.939C172.403 201.702 158.696 209.153 158.696 226.258V247.488C158.7 248.411 159.068 249.295 159.721 249.948C160.374 250.601 161.258 250.969 162.181 250.973H157.519C156.596 250.969 155.712 250.601 155.059 249.948C154.406 249.295 154.038 248.411 154.034 247.488V226.262C154.053 219.738 156.652 213.486 161.266 208.872C165.879 204.259 172.13 201.658 178.655 201.639Z" fill="#EAEFF4"/>
<path d="M178.963 201.601C182.2 201.601 185.406 202.239 188.398 203.478C191.389 204.717 194.107 206.533 196.396 208.822C198.685 211.111 200.501 213.829 201.74 216.82C202.979 219.812 203.617 223.017 203.617 226.255V226.255C203.617 232.838 201.002 239.151 196.347 243.806C191.692 248.461 185.379 251.076 178.796 251.076H158.142C157.081 251.076 156.064 250.655 155.313 249.905C154.563 249.154 154.142 248.137 154.142 247.076V226.422C154.142 219.839 156.757 213.526 161.412 208.871C166.067 204.216 172.38 201.601 178.963 201.601V201.601Z" stroke="#B8C0CC" stroke-width="1.88" stroke-linecap="round" stroke-linejoin="round"/>
<path d="M188.93 226.706C188.131 227.329 187.152 227.676 186.139 227.697C185.122 227.697 184.135 227.347 183.346 226.706" stroke="#B8C0CC" stroke-width="1.88" stroke-linecap="round" stroke-linejoin="round"/>
<mask id="path-159-inside-1" fill="white">
<path fill-rule="evenodd" clip-rule="evenodd" d="M190.034 215.265C188.88 215.785 188.407 217.122 188.978 218.251L188.984 218.262L188.984 218.263L191.051 222.354L195.217 220.479C195.218 220.479 195.219 220.478 195.22 220.478C195.222 220.477 195.223 220.477 195.224 220.476L195.232 220.473L195.232 220.473C196.378 219.949 196.846 218.617 196.277 217.491C195.708 216.365 194.316 215.87 193.164 216.381L193.164 216.381L193.164 216.381L193.158 216.37C192.587 215.24 191.189 214.746 190.034 215.265Z"/>
</mask>
<path fill-rule="evenodd" clip-rule="evenodd" d="M190.034 215.265C188.88 215.785 188.407 217.122 188.978 218.251L188.984 218.262L188.984 218.263L191.051 222.354L195.217 220.479C195.218 220.479 195.219 220.478 195.22 220.478C195.222 220.477 195.223 220.477 195.224 220.476L195.232 220.473L195.232 220.473C196.378 219.949 196.846 218.617 196.277 217.491C195.708 216.365 194.316 215.87 193.164 216.381L193.164 216.381L193.164 216.381L193.158 216.37C192.587 215.24 191.189 214.746 190.034 215.265Z" fill="#E64C3C"/>
<path d="M188.978 218.251L188.087 218.705L188.086 218.703L188.978 218.251ZM190.034 215.265L189.624 214.353L190.034 215.265ZM188.984 218.262L189.875 217.809L190.348 218.739L189.399 219.172L188.984 218.262ZM188.984 218.263L188.091 218.714L187.622 217.785L188.568 217.353L188.984 218.263ZM191.051 222.354L191.462 223.266L190.59 223.658L190.159 222.805L191.051 222.354ZM195.217 220.479L194.806 219.567L194.808 219.567L195.217 220.479ZM195.22 220.478L194.81 219.566L194.81 219.566L195.22 220.478ZM195.224 220.476L194.812 219.565L194.814 219.564L195.224 220.476ZM195.232 220.473L196.124 220.021L196.597 220.955L195.642 221.384L195.232 220.473ZM195.232 220.473L194.339 220.924L193.869 219.995L194.817 219.563L195.232 220.473ZM196.277 217.491L197.169 217.04L197.169 217.04L196.277 217.491ZM193.164 216.381L193.57 217.295L192.701 217.681L192.272 216.833L193.164 216.381ZM193.164 216.381L192.752 215.47L193.624 215.076L194.056 215.929L193.164 216.381ZM193.164 216.381L193.576 217.292L192.701 217.688L192.27 216.83L193.164 216.381ZM193.158 216.37L194.051 215.919L194.052 215.921L193.158 216.37ZM188.086 218.703C187.258 217.064 187.95 215.107 189.624 214.353L190.445 216.177C189.81 216.463 189.557 217.179 189.871 217.8L188.086 218.703ZM188.092 218.716L188.087 218.705L189.869 217.798L189.875 217.809L188.092 218.716ZM188.568 217.353L188.568 217.353L189.399 219.172L189.399 219.172L188.568 217.353ZM190.159 222.805L188.091 218.714L189.876 217.811L191.944 221.903L190.159 222.805ZM195.627 221.391L191.462 223.266L190.641 221.442L194.806 219.567L195.627 221.391ZM194.808 219.567C194.809 219.566 194.809 219.566 194.81 219.566L195.631 221.39C195.629 221.39 195.627 221.391 195.626 221.392L194.808 219.567ZM194.81 219.566C194.811 219.565 194.811 219.565 194.812 219.565L195.636 221.387C195.634 221.388 195.633 221.389 195.631 221.39L194.81 219.566ZM195.642 221.384L195.635 221.388L194.814 219.564L194.821 219.561L195.642 221.384ZM196.124 220.021L196.124 220.021L194.339 220.924L194.339 220.924L196.124 220.021ZM194.817 219.563C195.446 219.275 195.697 218.562 195.384 217.942L197.169 217.04C197.995 218.673 197.31 220.623 195.647 221.382L194.817 219.563ZM195.384 217.942C195.056 217.292 194.235 217 193.57 217.295L192.758 215.467C194.397 214.74 196.36 215.438 197.169 217.04L195.384 217.942ZM194.056 215.929L194.056 215.929L192.272 216.833L192.272 216.833L194.056 215.929ZM192.752 215.47L192.752 215.47L193.576 217.292L193.576 217.292L192.752 215.47ZM194.052 215.921L194.058 215.932L192.27 216.83L192.265 216.819L194.052 215.921ZM189.624 214.353C191.266 213.614 193.239 214.312 194.051 215.919L192.266 216.821C191.936 216.169 191.112 215.877 190.445 216.177L189.624 214.353Z" fill="#E64C3C" mask="url(#path-159-inside-1)"/>
<mask id="path-161-inside-2" fill="white">
<path fill-rule="evenodd" clip-rule="evenodd" d="M178.727 214.937C179.956 215.242 180.66 216.473 180.3 217.686L180.297 217.698L180.297 217.698L178.994 222.093L174.561 220.994C174.559 220.993 174.558 220.993 174.557 220.993C174.555 220.992 174.554 220.992 174.553 220.992L174.545 220.99L174.545 220.99C173.323 220.68 172.625 219.453 172.983 218.243C173.342 217.034 174.622 216.298 175.847 216.595L175.847 216.595L175.847 216.595L175.851 216.583C176.211 215.369 177.498 214.632 178.727 214.937Z"/>
</mask>
<path fill-rule="evenodd" clip-rule="evenodd" d="M178.727 214.937C179.956 215.242 180.66 216.473 180.3 217.686L180.297 217.698L180.297 217.698L178.994 222.093L174.561 220.994C174.559 220.993 174.558 220.993 174.557 220.993C174.555 220.992 174.554 220.992 174.553 220.992L174.545 220.99L174.545 220.99C173.323 220.68 172.625 219.453 172.983 218.243C173.342 217.034 174.622 216.298 175.847 216.595L175.847 216.595L175.847 216.595L175.851 216.583C176.211 215.369 177.498 214.632 178.727 214.937Z" fill="#E64C3C"/>
<path d="M180.3 217.686L181.258 217.973L181.259 217.971L180.3 217.686ZM178.727 214.937L178.968 213.966L178.727 214.937ZM180.297 217.698L179.339 217.411L179.04 218.411L180.051 218.667L180.297 217.698ZM180.297 217.698L181.256 217.982L181.551 216.985L180.543 216.729L180.297 217.698ZM178.994 222.093L178.753 223.064L179.681 223.294L179.953 222.378L178.994 222.093ZM174.561 220.994L174.801 220.023L174.8 220.023L174.561 220.994ZM174.557 220.993L174.797 220.022L174.797 220.022L174.557 220.993ZM174.553 220.992L174.795 220.022L174.793 220.021L174.553 220.992ZM174.545 220.99L173.586 220.705L173.288 221.708L174.304 221.96L174.545 220.99ZM174.545 220.99L175.503 221.274L175.8 220.276L174.79 220.02L174.545 220.99ZM172.983 218.243L172.025 217.959L172.025 217.959L172.983 218.243ZM175.847 216.595L175.612 217.567L176.535 217.79L176.806 216.88L175.847 216.595ZM175.847 216.595L176.09 215.625L175.162 215.392L174.889 216.31L175.847 216.595ZM175.847 216.595L175.605 217.565L176.536 217.798L176.807 216.876L175.847 216.595ZM175.851 216.583L174.892 216.299L174.891 216.301L175.851 216.583ZM181.259 217.971C181.781 216.21 180.75 214.408 178.968 213.966L178.486 215.908C179.162 216.075 179.539 216.735 179.342 217.402L181.259 217.971ZM181.255 217.985L181.258 217.973L179.342 217.4L179.339 217.411L181.255 217.985ZM180.543 216.729L180.543 216.729L180.051 218.667L180.051 218.667L180.543 216.729ZM179.953 222.378L181.256 217.982L179.338 217.414L178.035 221.809L179.953 222.378ZM174.32 221.964L178.753 223.064L179.235 221.123L174.801 220.023L174.32 221.964ZM174.8 220.023C174.799 220.023 174.798 220.022 174.797 220.022L174.316 221.963C174.318 221.964 174.32 221.964 174.322 221.965L174.8 220.023ZM174.797 220.022C174.797 220.022 174.796 220.022 174.795 220.022L174.31 221.962C174.312 221.962 174.314 221.963 174.316 221.963L174.797 220.022ZM174.304 221.96L174.312 221.962L174.793 220.021L174.785 220.019L174.304 221.96ZM173.586 220.705L173.586 220.705L175.503 221.274L175.503 221.274L173.586 220.705ZM174.79 220.02C174.12 219.85 173.745 219.193 173.942 218.528L172.025 217.959C171.505 219.713 172.527 221.51 174.299 221.959L174.79 220.02ZM173.942 218.528C174.149 217.829 174.904 217.395 175.612 217.567L176.083 215.623C174.341 215.2 172.535 216.238 172.025 217.959L173.942 218.528ZM174.889 216.31L174.889 216.31L176.806 216.88L176.806 216.88L174.889 216.31ZM176.09 215.625L176.09 215.625L175.605 217.565L175.605 217.565L176.09 215.625ZM174.891 216.301L174.888 216.313L176.807 216.876L176.81 216.864L174.891 216.301ZM178.968 213.966C177.22 213.533 175.404 214.572 174.892 216.299L176.81 216.867C177.017 216.166 177.777 215.732 178.486 215.908L178.968 213.966Z" fill="#E64C3C" mask="url(#path-161-inside-2)"/>
</svg>
