<svg width="117" height="62" viewBox="0 0 117 62" fill="none" xmlns="http://www.w3.org/2000/svg">
<path d="M45.168 51.5923H5.9745L1 60.9998H40.2012L45.168 51.5923Z" fill="white" stroke="#B9C1CD" stroke-width="1.883" stroke-linecap="round" stroke-linejoin="round"/>
<path d="M53.7962 10.4463H40.3403L19.5695 51.5925H33.0253L53.7962 10.4463Z" fill="white" stroke="#B9C1CD" stroke-width="1.883" stroke-linecap="round" stroke-linejoin="round"/>
<path d="M57.2798 10.4463L36.509 51.5925H33.0253L53.7961 10.4463H57.2798Z" fill="#F1F2F5" stroke="#B9C1CD" stroke-width="1.883" stroke-linecap="round" stroke-linejoin="round"/>
<path d="M45.168 51.5923H50.1425L52.7765 56.296H113.034C114.324 56.296 115.375 57.3517 115.375 58.6479C115.375 59.9442 114.324 60.9998 113.034 60.9998H40.2012L45.168 51.5923Z" fill="#F1F2F5" stroke="#B9C1CD" stroke-width="1.883" stroke-linecap="round" stroke-linejoin="round"/>
<path d="M66.7886 10.4463H87.7834C87.9843 10.4463 88.1465 10.6093 88.1465 10.8111C88.1465 12.3945 86.872 13.6753 85.2962 13.6753H65.0815L66.7886 10.4463Z" fill="white" stroke="#B9C1CD" stroke-width="1.883" stroke-linecap="round" stroke-linejoin="round"/>
<path d="M53.7962 10.4463H66.8195L65.1124 13.6753H52.1663L53.7962 10.4463Z" fill="white" stroke="#B9C1CD" stroke-width="1.883" stroke-linecap="round" stroke-linejoin="round"/>
<path d="M27.6182 10.4463H40.3402L38.7104 13.6753H25.9188L27.6182 10.4463Z" fill="white" stroke="#B9C1CD" stroke-width="1.883" stroke-linecap="round" stroke-linejoin="round"/>
<path d="M36.6866 26.9872L40.7188 18.9846" stroke="#B9C1CD" stroke-width="1.883" stroke-linecap="round" stroke-linejoin="round"/>
<path d="M57.2799 10.4463L52.1663 1H48.3196L53.5104 10.4463H57.2799Z" fill="#F1F2F5" stroke="#B9C1CD" stroke-width="1.883" stroke-linecap="round" stroke-linejoin="round"/>
<path d="M48.3195 1H35.1495L40.3403 10.4463H53.5103L48.3195 1Z" fill="#30A3C7" stroke="#B9C1CD" stroke-width="1.883" stroke-miterlimit="10" stroke-linejoin="round"/>
</svg>
