<svg width="513" height="581" viewBox="0 0 513 581" fill="none" xmlns="http://www.w3.org/2000/svg">
<path fill-rule="evenodd" clip-rule="evenodd" d="M401.953 352.869C373.508 330.276 354.109 360.51 358.251 390.197C362.065 418.356 395.196 514.513 391.382 555.442L402.607 555.115C427.783 502.07 438.354 381.793 401.953 352.869Z" fill="#EAEFF4"/>
<path fill-rule="evenodd" clip-rule="evenodd" d="M459.933 435.165C487.615 424.141 493.173 450.554 481.512 471.728C473.665 486.135 444.566 523.135 425.276 554.46L401.844 555.115C408.056 508.401 431.27 446.625 459.933 435.165Z" fill="#EAEFF4"/>
<path d="M411.762 554.897C411.762 554.897 423.968 507.964 473.774 442.914" stroke="#D1DAE5" stroke-width="1.88" stroke-miterlimit="10" stroke-linecap="round" stroke-linejoin="round"/>
<path d="M396.722 555.333C396.722 555.333 421.135 490.392 381.355 357.781" stroke="#D1DAE5" stroke-width="1.88" stroke-miterlimit="10" stroke-linecap="round" stroke-linejoin="round"/>
<path fill-rule="evenodd" clip-rule="evenodd" d="M333.184 406.787C303.649 394.781 297.437 422.94 309.644 445.751C319.779 464.634 363.482 520.188 380.592 556.206L395.305 555.77C394.651 505.454 368.059 420.976 333.184 406.787Z" fill="#EAEFF4"/>
<path d="M318.362 415.082C318.362 415.082 375.797 487.663 388.766 555.988" stroke="#D1DAE5" stroke-width="1.88" stroke-miterlimit="10" stroke-linecap="round" stroke-linejoin="round"/>
<path d="M1 555.442H472.684" stroke="#B8C0CC" stroke-width="1.88" stroke-miterlimit="10" stroke-linecap="round" stroke-linejoin="round"/>
<path d="M275.749 580H101.484C87.9695 580 76.9621 568.976 76.9621 555.442V193.409C76.9621 179.875 87.9695 168.851 101.484 168.851H275.749C289.264 168.851 300.271 179.875 300.271 193.409V555.442C300.271 569.085 289.264 580 275.749 580Z" fill="white" stroke="#B8C0CC" stroke-width="1.88" stroke-miterlimit="10" stroke-linecap="round" stroke-linejoin="round"/>
<path d="M290.244 580H116.087C102.573 580 91.566 568.976 91.566 555.442V193.518C91.566 179.984 102.573 168.96 116.087 168.96H290.244C303.758 168.96 314.766 179.984 314.766 193.518V555.442C314.875 568.976 303.867 580 290.244 580Z" fill="#EAEFF4"/>
<path d="M288.392 567.448H119.684C110.747 567.448 103.445 560.245 103.445 551.186V196.792C103.445 187.842 110.638 180.53 119.684 180.53H288.501C297.437 180.53 304.739 187.733 304.739 196.792V551.295C304.63 560.245 297.328 567.448 288.392 567.448Z" fill="white"/>
<path d="M290.353 580H116.087C102.573 580 91.566 568.976 91.566 555.442V193.409C91.566 179.875 102.573 168.851 116.087 168.851H290.353C303.867 168.851 314.875 179.875 314.875 193.409V555.442C314.875 569.085 303.867 580 290.353 580Z" stroke="#B8C0CC" stroke-width="1.88" stroke-miterlimit="10" stroke-linecap="round" stroke-linejoin="round"/>
<path d="M139.41 554.46C146.031 554.46 151.398 549.085 151.398 542.454C151.398 535.823 146.031 530.448 139.41 530.448C132.789 530.448 127.422 535.823 127.422 542.454C127.422 549.085 132.789 554.46 139.41 554.46Z" fill="#EAEFF4"/>
<path d="M204.038 554.46C210.659 554.46 216.026 549.085 216.026 542.454C216.026 535.823 210.659 530.448 204.038 530.448C197.417 530.448 192.049 535.823 192.049 542.454C192.049 549.085 197.417 554.46 204.038 554.46Z" fill="#EAEFF4"/>
<path d="M266.05 554.46C272.671 554.46 278.038 549.085 278.038 542.454C278.038 535.823 272.671 530.448 266.05 530.448C259.429 530.448 254.062 535.823 254.062 542.454C254.062 549.085 259.429 554.46 266.05 554.46Z" fill="#EAEFF4"/>
<path fill-rule="evenodd" clip-rule="evenodd" d="M310.08 523.463H141.045C128.512 523.463 118.376 513.312 118.376 500.761V249.509C118.376 236.958 128.512 226.807 141.045 226.807H287.411C299.944 226.807 310.08 236.958 310.08 249.509V523.463Z" fill="#EAEFF4"/>
<path d="M279.891 192.208H291.007" stroke="#B8C0CC" stroke-width="1.88" stroke-miterlimit="10" stroke-linecap="round" stroke-linejoin="round"/>
<path d="M279.891 197.338H291.007" stroke="#B8C0CC" stroke-width="1.88" stroke-miterlimit="10" stroke-linecap="round" stroke-linejoin="round"/>
<path d="M279.891 202.468H291.007" stroke="#B8C0CC" stroke-width="1.88" stroke-miterlimit="10" stroke-linecap="round" stroke-linejoin="round"/>
<path d="M236.624 196.028H171.56C165.675 196.028 160.771 191.226 160.771 185.223V180.857C160.771 174.963 165.566 170.052 171.56 170.052H236.624C242.509 170.052 247.414 174.854 247.414 180.857V185.223C247.305 191.226 242.509 196.028 236.624 196.028Z" fill="#EAEFF4"/>
<path d="M135.923 202.795H123.28C120.229 202.795 117.722 200.285 117.722 197.229C117.722 194.173 120.229 191.662 123.28 191.662H135.923C138.974 191.662 141.481 194.173 141.481 197.229C141.481 200.285 138.974 202.795 135.923 202.795Z" fill="#EAEFF4"/>
<path fill-rule="evenodd" clip-rule="evenodd" d="M361.193 511.457H144.75C136.794 511.457 130.364 505.017 130.364 497.05V229.208C130.364 221.241 136.794 214.801 144.75 214.801H361.084C369.04 214.801 375.47 221.241 375.47 229.208V496.94C375.579 505.017 369.149 511.457 361.193 511.457Z" fill="white" stroke="#B8C0CC" stroke-width="1.88" stroke-miterlimit="10" stroke-linecap="round" stroke-linejoin="round"/>
<path d="M373.072 134.161C397.93 134.161 418.082 113.979 418.082 89.0837C418.082 64.1884 397.93 44.0068 373.072 44.0068C348.213 44.0068 328.061 64.1884 328.061 89.0837C328.061 113.979 348.213 134.161 373.072 134.161Z" fill="white" stroke="#D1DAE5" stroke-width="1.88" stroke-miterlimit="10" stroke-linecap="round" stroke-linejoin="round"/>
<path d="M389.528 89.5202C389.528 88.3196 389.419 87.2282 389.201 86.1367H373.399V92.6854H382.444C382.008 94.7592 380.81 96.6146 379.066 97.8152V101.963H384.515C387.676 98.9067 389.528 94.65 389.528 89.5202Z" fill="#4285F4"/>
<path d="M373.399 106.001C377.976 106.001 381.79 104.473 384.515 101.963L379.066 97.8154C377.322 98.9068 375.36 99.4525 373.29 99.4525C371.219 99.4525 369.148 98.7977 367.405 97.4879C365.661 96.1782 364.462 94.4319 363.808 92.4673H358.25V96.8331C359.667 99.6708 361.846 101.963 364.462 103.6C367.187 105.128 370.238 106.001 373.399 106.001Z" fill="#34A853"/>
<path d="M363.917 92.3581C363.263 90.2843 363.263 87.9923 363.917 85.9185V81.5527H358.359C357.16 83.9539 356.506 86.4642 356.506 89.0837C356.506 91.7032 357.16 94.3227 358.359 96.6147L363.917 92.3581Z" fill="#FBBC04"/>
<path d="M373.399 78.9332C374.598 78.9332 375.797 79.1515 376.886 79.5881C377.976 80.0247 378.957 80.6795 379.829 81.5527L384.624 76.7503C381.573 73.9126 377.54 72.2754 373.399 72.3845C370.238 72.3845 367.187 73.2577 364.571 74.8949C361.956 76.532 359.776 78.9332 358.359 81.6618L363.917 86.0276C364.571 83.9539 365.77 82.2076 367.514 80.8978C369.149 79.5881 371.219 78.9332 373.399 78.9332Z" fill="#EA4335"/>
<path d="M235.192 97.1547C260.051 97.1547 280.203 76.9731 280.203 52.0778C280.203 27.1826 260.051 7.00098 235.192 7.00098C210.334 7.00098 190.182 27.1826 190.182 52.0778C190.182 76.9731 210.334 97.1547 235.192 97.1547Z" fill="white" stroke="#D1DAE5" stroke-width="1.88" stroke-miterlimit="10" stroke-linecap="round" stroke-linejoin="round"/>
<path d="M232.032 61.7916L227.672 66.1574C226.801 67.0306 225.602 67.4672 224.403 67.4672C223.204 67.4672 222.005 66.9214 221.133 66.1574C220.261 65.2843 219.826 64.0837 219.826 62.8831C219.826 61.6825 220.261 60.4819 221.133 59.6087L229.743 50.9863C230.615 50.1131 231.814 49.6765 233.013 49.6765C234.211 49.6765 235.41 50.1131 236.282 50.9863C236.609 51.3137 236.936 51.4228 237.372 51.4228C237.808 51.4228 238.135 51.3137 238.462 50.9863C238.789 50.6588 238.898 50.3314 238.898 49.8948C238.898 49.4582 238.789 49.1308 238.462 48.8034C237.808 48.0394 236.936 47.4936 235.955 47.1662C234.974 46.7296 233.993 46.6205 233.013 46.6205C232.032 46.6205 231.051 46.8388 230.07 47.1662C229.089 47.6028 228.326 48.1485 227.563 48.8034L218.954 57.4258C217.537 58.8447 216.665 60.8093 216.665 62.8831C216.665 64.9568 217.428 66.8123 218.954 68.3403C220.37 69.7592 222.332 70.6324 224.403 70.6324C226.474 70.6324 228.326 69.8683 229.852 68.3403L234.211 63.9745C234.538 63.6471 234.647 63.3196 234.647 62.8831C234.647 62.4465 234.538 62.119 234.211 61.7916C234.102 61.6825 233.884 61.5733 233.667 61.4642C233.449 61.355 233.231 61.355 233.122 61.355C232.904 61.355 232.686 61.4642 232.577 61.4642C232.359 61.4642 232.25 61.5733 232.032 61.7916Z" fill="#30A3C7"/>
<path d="M251.431 35.9244C250.777 35.1603 249.905 34.6146 248.924 34.2872C247.944 33.8506 246.963 33.7415 245.982 33.7415C245.001 33.7415 244.02 33.9597 243.039 34.2872C242.058 34.7238 241.295 35.2695 240.533 35.9244L235.301 41.1633C235.192 41.2724 235.083 41.4907 234.974 41.709C234.865 41.9273 234.865 42.1456 234.865 42.2548C234.865 42.473 234.865 42.6913 234.974 42.8005C235.083 43.0188 235.192 43.1279 235.301 43.3462C235.41 43.4553 235.628 43.5645 235.846 43.6736C236.064 43.7828 236.282 43.7828 236.391 43.7828C236.5 43.7828 236.827 43.7828 236.936 43.6736C237.154 43.5645 237.263 43.4553 237.481 43.3462L242.712 38.1072C243.584 37.2341 244.783 36.7975 245.982 36.7975C247.181 36.7975 248.379 37.3432 249.251 38.1072C250.123 38.9804 250.559 40.181 250.559 41.3816C250.559 42.5822 250.123 43.7828 249.251 44.6559L239.552 54.1515C238.68 55.0247 237.481 55.4613 236.282 55.4613C235.083 55.4613 233.885 55.0247 233.013 54.1515C232.686 53.8241 232.359 53.715 231.923 53.715C231.487 53.715 231.16 53.8241 230.833 54.1515C230.506 54.479 230.397 54.8064 230.397 55.243C230.397 55.6796 230.506 56.007 230.833 56.3344C231.487 57.0985 232.359 57.6442 233.34 57.9716C234.32 58.4082 235.301 58.5173 236.282 58.5173C237.263 58.5173 238.244 58.2991 239.225 57.9716C240.206 57.535 240.969 56.9893 241.731 56.3344L251.322 46.7297C252.085 46.0748 252.63 45.2017 252.957 44.2194C253.393 43.3462 253.502 42.2548 253.611 41.2725C253.611 40.2901 253.393 39.3078 253.066 38.3255C252.63 37.4524 252.085 36.6884 251.431 35.9244Z" fill="#30A3C7"/>
<path d="M466.989 227.175C491.848 227.175 512 206.994 512 182.098C512 157.203 491.848 137.021 466.989 137.021C442.131 137.021 421.979 157.203 421.979 182.098C421.979 206.994 442.131 227.175 466.989 227.175Z" fill="white" stroke="#D1DAE5" stroke-width="1.88" stroke-miterlimit="10" stroke-linecap="round" stroke-linejoin="round"/>
<path d="M472.112 168.346H477.234C477.343 168.346 477.452 168.346 477.561 168.237C477.67 168.237 477.779 168.128 477.888 168.018C477.997 167.909 477.997 167.8 478.106 167.691C478.106 167.582 478.215 167.473 478.215 167.364V162.234C478.215 162.125 478.215 162.015 478.106 161.906C478.106 161.797 477.997 161.688 477.888 161.579C477.779 161.47 477.67 161.47 477.561 161.361C477.452 161.361 477.343 161.251 477.234 161.251H472.112C469.605 161.251 467.207 162.234 465.464 163.98C463.72 165.726 462.739 168.128 462.739 170.638V176.641H456.745C456.636 176.641 456.527 176.641 456.418 176.75C456.309 176.75 456.2 176.859 456.091 176.968C455.982 177.077 455.982 177.187 455.873 177.296C455.873 177.405 455.764 177.514 455.764 177.623V182.753C455.764 182.862 455.764 182.971 455.873 183.08C455.873 183.19 455.982 183.299 456.091 183.408C456.2 183.517 456.309 183.517 456.418 183.626C456.527 183.626 456.636 183.735 456.745 183.735H462.739V201.853C462.739 201.963 462.739 202.072 462.848 202.181C462.957 202.29 462.957 202.399 463.066 202.508C463.175 202.617 463.284 202.617 463.393 202.727C463.502 202.727 463.611 202.836 463.72 202.836H468.842C468.951 202.836 469.06 202.836 469.169 202.727C469.278 202.727 469.387 202.617 469.496 202.508C469.605 202.399 469.605 202.29 469.714 202.181C469.714 202.072 469.823 201.963 469.823 201.853V183.735H475.817C476.035 183.735 476.144 183.735 476.362 183.626C476.471 183.517 476.58 183.408 476.689 183.19L478.433 178.06C478.433 177.951 478.542 177.841 478.542 177.732C478.542 177.623 478.542 177.514 478.433 177.405C478.324 177.296 478.324 177.187 478.215 177.187C478.106 177.077 477.997 177.077 477.888 177.077H469.823V171.074C469.823 170.42 470.15 169.765 470.586 169.219C470.695 168.564 471.349 168.346 472.112 168.346Z" fill="#2196F3"/>
<path d="M95.3147 91.1537C120.173 91.1537 140.325 70.9721 140.325 46.0768C140.325 21.1816 120.173 1 95.3147 1C70.4561 1 50.3042 21.1816 50.3042 46.0768C50.3042 70.9721 70.4561 91.1537 95.3147 91.1537Z" fill="white" stroke="#D1DAE5" stroke-width="1.88" stroke-miterlimit="10" stroke-linecap="round" stroke-linejoin="round"/>
<path d="M112.752 38.764C112.752 37.3451 112.425 35.8171 111.88 34.5074C111.444 33.3068 110.79 32.2153 109.81 31.3422C108.938 30.469 107.848 29.705 106.649 29.2684C105.232 28.7227 103.815 28.5044 102.399 28.5044C100.546 28.3953 99.892 28.3953 95.0967 28.3953C90.3014 28.3953 89.7565 28.3953 87.7948 28.5044C86.378 28.5044 84.8522 28.8318 83.5444 29.3776C82.3456 29.8141 81.2557 30.469 80.3839 31.4513C79.512 32.3245 78.7491 33.4159 78.3132 34.6165C77.7682 36.0354 77.5503 37.4543 77.5503 38.8732C77.4413 40.7286 77.4413 41.3835 77.4413 46.1859C77.4413 50.9883 77.4413 51.534 77.5503 53.4986C77.5503 54.9175 77.8772 56.4455 78.4221 57.7552C78.8581 58.9558 79.512 60.0473 80.4928 60.9204C81.3647 61.7936 82.4546 62.5576 83.6534 62.9942C85.0702 63.5399 86.487 63.7582 87.9038 63.8674C89.7565 63.9765 90.4104 63.9765 95.2057 63.9765C100.001 63.9765 100.546 63.9765 102.508 63.8674C103.924 63.8674 105.45 63.5399 106.758 62.9942C107.957 62.5576 108.938 61.9028 109.919 60.9204C110.899 59.9381 111.444 58.9558 111.989 57.7552C112.534 56.3364 112.752 54.9175 112.861 53.4986C112.97 51.6431 112.97 50.9883 112.97 46.1859C112.97 41.3835 112.861 40.7286 112.752 38.764ZM109.592 53.1712C109.592 54.2626 109.374 55.3541 108.938 56.4455C108.611 57.2095 108.175 57.8644 107.63 58.5193C107.085 59.065 106.322 59.5016 105.559 59.829C104.469 60.2656 103.38 60.3747 102.29 60.4839C100.437 60.593 99.892 60.593 95.2057 60.593C90.5194 60.593 89.9745 60.593 88.1217 60.4839C87.0319 60.4839 85.9421 60.2656 84.8522 59.829C84.0893 59.5016 83.4354 59.065 82.7815 58.5193C82.2366 57.9735 81.8007 57.2095 81.4737 56.4455C81.0378 55.3541 80.9288 54.2626 80.8198 53.1712C80.7108 51.3157 80.7108 50.77 80.7108 46.0767C80.7108 41.3835 80.7108 40.8378 80.8198 38.9823C80.8198 37.8909 81.0378 36.7994 81.4737 35.708C81.8007 34.944 82.2366 34.2891 82.7815 33.6342C83.3264 33.0885 84.0893 32.6519 84.8522 32.3245C85.9421 31.8879 87.0319 31.7788 88.1217 31.6696C89.9745 31.5605 90.5194 31.5605 95.2057 31.5605C99.892 31.5605 100.437 31.5605 102.29 31.6696C103.38 31.6696 104.469 31.8879 105.559 32.3245C106.322 32.6519 106.976 33.0885 107.63 33.6342C108.175 34.1799 108.611 34.944 108.938 35.708C109.374 36.7994 109.483 37.8909 109.592 38.9823C109.701 40.8378 109.701 41.3835 109.701 46.0767C109.701 50.77 109.701 51.3157 109.592 53.1712Z" fill="url(#paint0_linear)"/>
<path d="M95.3147 37.0178C93.571 37.0178 91.8272 37.5635 90.3014 38.5459C88.7756 39.5282 87.6858 40.947 86.9229 42.5842C86.269 44.2214 86.051 46.0769 86.378 47.8232C86.7049 49.5695 87.5768 51.2067 88.8846 52.4073C90.1924 53.717 91.7182 54.5902 93.462 54.9176C95.2057 55.245 97.0585 55.1359 98.6932 54.3719C100.328 53.717 101.745 52.5164 102.726 50.9884C103.707 49.4604 104.251 47.714 104.251 45.9677C104.251 43.5665 103.271 41.2745 101.636 39.5282C100.001 38.0001 97.7124 37.0178 95.3147 37.0178ZM95.3147 51.9707C94.1159 51.9707 93.026 51.6433 92.0452 50.9884C91.0643 50.3335 90.3014 49.4604 89.8655 48.3689C89.4296 47.2775 89.3206 46.0769 89.5385 44.9854C89.7565 43.894 90.3014 42.8025 91.1733 41.9293C92.0452 41.0562 93.026 40.5105 94.2249 40.2922C95.3147 40.0739 96.5135 40.183 97.6034 40.6196C98.6932 41.0562 99.5651 41.8202 100.219 42.8025C100.873 43.7848 101.2 44.8763 101.2 46.0769C101.2 46.8409 101.091 47.6049 100.764 48.3689C100.437 49.1329 100.001 49.6786 99.4561 50.2244C98.9112 50.7701 98.2573 51.2067 97.6034 51.5341C96.8405 51.7524 96.0776 51.9707 95.3147 51.9707Z" fill="url(#paint1_linear)"/>
<path d="M106.759 36.6901C106.759 37.1266 106.65 37.5631 106.432 37.8905C106.214 38.2179 105.887 38.5453 105.451 38.6544C105.015 38.7635 104.688 38.8727 104.252 38.7635C103.816 38.6544 103.489 38.4362 103.162 38.2179C102.835 37.8905 102.617 37.5631 102.617 37.1266C102.617 36.6901 102.617 36.2536 102.726 35.9262C102.835 35.4897 103.162 35.1623 103.489 34.9441C103.816 34.7258 104.252 34.6167 104.688 34.6167C105.233 34.6167 105.778 34.835 106.214 35.2715C106.541 35.5988 106.759 36.1445 106.759 36.6901Z" fill="url(#paint2_linear)"/>
<path d="M375.579 458.522H130.364" stroke="#B8C0CC" stroke-width="1.88" stroke-miterlimit="10" stroke-linecap="round" stroke-linejoin="round"/>
<path d="M154.341 241.651C158.795 241.651 162.406 238.035 162.406 233.574C162.406 229.113 158.795 225.497 154.341 225.497C149.887 225.497 146.276 229.113 146.276 233.574C146.276 238.035 149.887 241.651 154.341 241.651Z" fill="#EAEFF4"/>
<path fill-rule="evenodd" clip-rule="evenodd" d="M361.193 511.457H144.75C136.794 511.457 130.364 505.017 130.364 497.05V229.208C130.364 221.241 136.794 214.801 144.75 214.801H361.084C369.04 214.801 375.47 221.241 375.47 229.208V496.94C375.579 505.017 369.149 511.457 361.193 511.457Z" fill="white"/>
<path opacity="0.12" d="M377.215 263H132V449.419H377.215V263Z" fill="#B8C0CC"/>
<path fill-rule="evenodd" clip-rule="evenodd" d="M361.193 511.457H144.75C136.794 511.457 130.364 505.017 130.364 497.05V229.208C130.364 221.241 136.794 214.801 144.75 214.801H361.084C369.04 214.801 375.47 221.241 375.47 229.208V496.94C375.579 505.017 369.149 511.457 361.193 511.457Z" stroke="#B8C0CC" stroke-width="1.88" stroke-miterlimit="10" stroke-linecap="round" stroke-linejoin="round"/>
<path d="M130.364 264.025H375.579" stroke="#B8C0CC" stroke-width="1.88" stroke-miterlimit="10" stroke-linecap="round" stroke-linejoin="round"/>
<path d="M130.364 450.336H375.579" stroke="#B8C0CC" stroke-width="1.88" stroke-miterlimit="10" stroke-linecap="round" stroke-linejoin="round"/>
<path d="M146.167 344.356L132.544 330.385C131.345 329.076 129.602 328.421 127.858 328.421H57.018C51.4598 328.421 46.9915 323.946 46.9915 318.38V270.137C46.9915 264.571 51.4598 260.096 57.018 260.096H140.718C146.276 260.096 150.745 264.571 150.745 270.137V342.5C150.854 344.902 147.911 346.102 146.167 344.356Z" fill="white" stroke="#30A3C7" stroke-width="1.88" stroke-miterlimit="10" stroke-linecap="round" stroke-linejoin="round"/>
<path fill-rule="evenodd" clip-rule="evenodd" d="M82.5203 312.049H77.5071C76.3082 312.049 75.2184 311.067 75.2184 309.757V290.656C75.2184 289.456 76.1992 288.364 77.5071 288.364H82.5203C83.7192 288.364 84.809 289.347 84.809 290.656V309.757C84.809 311.067 83.7192 312.049 82.5203 312.049Z" fill="#30A3C7"/>
<path fill-rule="evenodd" clip-rule="evenodd" d="M93.9636 286.728C91.8929 288.692 90.2582 289.347 90.2582 294.477C90.2582 299.607 90.2582 306.592 90.2582 308.557C90.2582 310.521 92.9828 313.468 98.105 313.468H104.971H117.177C122.409 313.468 122.3 292.403 120.447 290.22C120.011 289.674 119.248 289.347 118.594 289.129C117.94 288.91 117.286 288.91 116.632 288.91H108.786C107.478 288.91 106.388 288.583 105.843 287.273C105.189 285.636 105.952 282.798 106.388 281.052C106.715 280.07 106.933 278.978 106.933 277.887C106.933 276.359 106.606 274.722 105.843 273.303C105.625 272.975 105.407 272.539 105.08 272.211C104.753 271.884 104.426 271.556 104.099 271.338C103.99 271.229 103.881 271.229 103.663 271.229H102.246C101.702 271.229 101.157 271.666 101.157 272.32C101.157 274.612 100.939 277.014 100.394 279.197C99.6308 281.925 98.214 284.108 95.5984 285.527C95.0535 285.854 94.5086 286.291 93.9636 286.728Z" fill="#30A3C7"/>
<path d="M158.918 251.146C165.961 251.146 171.669 245.429 171.669 238.376C171.669 231.324 165.961 225.606 158.918 225.606C151.876 225.606 146.167 231.324 146.167 238.376C146.167 245.429 151.876 251.146 158.918 251.146Z" fill="#EAEFF4"/>
<path d="M183.113 232.919H305.72" stroke="#D1DAE5" stroke-width="1.88" stroke-miterlimit="10" stroke-linecap="round" stroke-linejoin="round"/>
<path d="M183.113 244.052H254.715" stroke="#D1DAE5" stroke-width="1.88" stroke-miterlimit="10" stroke-linecap="round" stroke-linejoin="round"/>
<path d="M358.796 470.309H147.148" stroke="#D1DAE5" stroke-width="1.88" stroke-miterlimit="10" stroke-linecap="round" stroke-linejoin="round"/>
<path d="M358.796 482.424H147.148" stroke="#D1DAE5" stroke-width="1.88" stroke-miterlimit="10" stroke-linecap="round" stroke-linejoin="round"/>
<path d="M147.148 494.43H218.751" stroke="#D1DAE5" stroke-width="1.88" stroke-miterlimit="10" stroke-linecap="round" stroke-linejoin="round"/>
<rect x="300.94" y="312.94" width="6.12" height="136.12" fill="white" stroke="#B8C0CC" stroke-width="1.88"/>
<rect x="244.94" y="312.94" width="6.12" height="136.12" fill="white" stroke="#B8C0CC" stroke-width="1.88"/>
<path d="M208.5 415V401C208.5 398.239 210.739 396 213.5 396H221C223.761 396 226 398.239 226 401V415" stroke="#B8C0CC" stroke-width="1.88"/>
<circle cx="216.917" cy="428.543" r="20.9765" fill="#EAEFF4" stroke="#B8C0CC" stroke-width="1.88"/>
<path d="M168 441H189V445H168V441Z" stroke="#B8C0CC" stroke-width="1.88" stroke-miterlimit="10" stroke-linecap="round" stroke-linejoin="round"/>
<path d="M164.514 437H167.941V449.186H164.514V437Z" fill="white" stroke="#B8C0CC" stroke-width="1.88" stroke-miterlimit="10" stroke-linecap="round" stroke-linejoin="round"/>
<path d="M143.941 440.808H160.887V445.187H143.941V440.808Z" stroke="#B8C0CC" stroke-width="1.88" stroke-miterlimit="10" stroke-linecap="round" stroke-linejoin="round"/>
<path d="M161 437H164.427V449.186H161V437Z" fill="white" stroke="#B8C0CC" stroke-width="1.88" stroke-miterlimit="10" stroke-linecap="round" stroke-linejoin="round"/>
<path d="M140.514 437H143.941V449.186H140.514V437Z" fill="white" stroke="#B8C0CC" stroke-width="1.88" stroke-miterlimit="10" stroke-linecap="round" stroke-linejoin="round"/>
<path d="M164.573 437H168V449.186H164.573V437Z" fill="white" stroke="#B8C0CC" stroke-width="1.88" stroke-miterlimit="10" stroke-linecap="round" stroke-linejoin="round"/>
<path d="M186 437H189.427V449.186H186V437Z" fill="white" stroke="#B8C0CC" stroke-width="1.88" stroke-miterlimit="10" stroke-linecap="round" stroke-linejoin="round"/>
<rect x="-0.481981" y="1.29146" width="90.986" height="13.1547" rx="6.57735" transform="matrix(0.380689 0.924703 -0.893435 0.449192 330.493 361.717)" fill="white" stroke="#B8C0CC" stroke-width="1.88"/>
<mask id="path-64-inside-1" fill="white">
<path fill-rule="evenodd" clip-rule="evenodd" d="M337.381 359.537C339.075 357.842 338.976 355.202 337.158 353.639C335.341 352.076 332.493 352.184 330.798 353.879L315.749 368.928H301.455C299.034 368.928 297.072 370.89 297.072 373.311C297.072 375.732 299.034 377.694 301.455 377.694H316.651C317.179 377.694 317.685 377.601 318.154 377.43C319.127 377.291 320.061 376.857 320.784 376.133L337.381 359.537Z"/>
</mask>
<path fill-rule="evenodd" clip-rule="evenodd" d="M337.381 359.537C339.075 357.842 338.976 355.202 337.158 353.639C335.341 352.076 332.493 352.184 330.798 353.879L315.749 368.928H301.455C299.034 368.928 297.072 370.89 297.072 373.311C297.072 375.732 299.034 377.694 301.455 377.694H316.651C317.179 377.694 317.685 377.601 318.154 377.43C319.127 377.291 320.061 376.857 320.784 376.133L337.381 359.537Z" fill="white"/>
<path d="M337.158 353.639L335.933 355.065L337.158 353.639ZM337.381 359.537L336.051 358.208L337.381 359.537ZM330.798 353.879L332.128 355.208V355.208L330.798 353.879ZM315.749 368.928V370.808H316.528L317.079 370.257L315.749 368.928ZM318.154 377.43L317.889 375.568L317.694 375.596L317.509 375.664L318.154 377.43ZM320.784 376.133L319.455 374.804L320.784 376.133ZM335.933 355.065C336.921 355.914 336.973 357.287 336.051 358.208L338.71 360.867C341.178 358.398 341.031 354.489 338.384 352.213L335.933 355.065ZM332.128 355.208C333.127 354.208 334.861 354.143 335.933 355.065L338.384 352.213C335.821 350.01 331.859 350.159 329.469 352.549L332.128 355.208ZM317.079 370.257L332.128 355.208L329.469 352.549L314.42 367.598L317.079 370.257ZM301.455 370.808H315.749V367.048H301.455V370.808ZM298.952 373.311C298.952 371.928 300.073 370.808 301.455 370.808V367.048C297.996 367.048 295.192 369.852 295.192 373.311H298.952ZM301.455 375.814C300.073 375.814 298.952 374.693 298.952 373.311H295.192C295.192 376.77 297.996 379.574 301.455 379.574V375.814ZM316.651 375.814H301.455V379.574H316.651V375.814ZM317.509 375.664C317.244 375.76 316.956 375.814 316.651 375.814V379.574C317.402 379.574 318.126 379.441 318.799 379.196L317.509 375.664ZM319.455 374.804C319.04 375.219 318.49 375.483 317.889 375.568L318.419 379.291C319.765 379.099 321.081 378.495 322.114 377.463L319.455 374.804ZM336.051 358.208L319.455 374.804L322.114 377.463L338.71 360.867L336.051 358.208Z" fill="#B8C0CC" mask="url(#path-64-inside-1)"/>
<rect x="216.945" y="435.349" width="144.619" height="14.4283" rx="7.21416" fill="white" stroke="#B8C0CC" stroke-width="1.88"/>
<rect width="136" height="7" rx="3.5" transform="matrix(1 0 0 -1 222 446)" stroke="#B8C0CC" stroke-width="1.88" stroke-dasharray="4 4"/>
<path d="M198.15 290.625V318.266" stroke="#B8C0CC" stroke-width="1.88"/>
<circle cx="198.151" cy="327.112" r="4.69901" fill="#B8C0CC"/>
<path d="M185.296 322.803L198.15 310.975L211.005 322.803C212.386 324.074 211.487 326.379 209.61 326.379H186.691C184.814 326.379 183.915 324.074 185.296 322.803Z" fill="#EAEFF4" stroke="#B8C0CC" stroke-width="1.88"/>
<path d="M159.19 282.666L374.719 282.663C374.723 283.487 374.732 284.264 374.741 284.995C374.76 286.552 374.776 287.896 374.737 289.019C374.704 289.936 374.636 290.63 374.52 291.117C374.47 291.324 374.42 291.458 374.381 291.543L162.091 291.546C161.919 291.521 161.64 291.39 161.286 290.949C160.919 290.491 160.553 289.795 160.229 288.876C159.659 287.254 159.271 285.077 159.19 282.666Z" fill="#EAEFF4" stroke="#B8C0CC" stroke-width="1.88"/>
<path d="M330.301 382.029L350.065 429.848" stroke="#B8C0CC" stroke-width="1.88" stroke-linecap="round" stroke-linejoin="round"/>
<path d="M272.06 335C272.06 337.795 269.795 340.06 267 340.06C264.205 340.06 261.94 337.795 261.94 335C261.94 332.205 264.205 329.94 267 329.94C269.795 329.94 272.06 332.205 272.06 335Z" stroke="#B8C0CC" stroke-width="1.88"/>
<path d="M290.06 335C290.06 337.795 287.795 340.06 285 340.06C282.205 340.06 279.94 337.795 279.94 335C279.94 332.205 282.205 329.94 285 329.94C287.795 329.94 290.06 332.205 290.06 335Z" stroke="#B8C0CC" stroke-width="1.88"/>
<rect x="231.94" y="313.06" width="6.12" height="91.12" rx="3.06" transform="rotate(-90 231.94 313.06)" fill="white" stroke="#B8C0CC" stroke-width="1.88"/>
<path d="M267 313V321.5V330" stroke="#B8C0CC" stroke-width="2"/>
<path d="M285 313V321.5V330" stroke="#B8C0CC" stroke-width="2"/>
<defs>
<linearGradient id="paint0_linear" x1="80.6108" y1="60.7345" x2="109.955" y2="31.4343" gradientUnits="userSpaceOnUse">
<stop stop-color="#FFD600"/>
<stop offset="0.5" stop-color="#FF0100"/>
<stop offset="1" stop-color="#D800B9"/>
</linearGradient>
<linearGradient id="paint1_linear" x1="88.8671" y1="52.4656" x2="101.687" y2="39.6647" gradientUnits="userSpaceOnUse">
<stop stop-color="#FF6400"/>
<stop offset="0.5" stop-color="#FF0100"/>
<stop offset="1" stop-color="#FD0056"/>
</linearGradient>
<linearGradient id="paint2_linear" x1="103.167" y1="38.1483" x2="106.163" y2="35.156" gradientUnits="userSpaceOnUse">
<stop stop-color="#F30072"/>
<stop offset="1" stop-color="#E50097"/>
</linearGradient>
</defs>
</svg>
