<svg width="106" height="108" viewBox="0 0 106 108" fill="none" xmlns="http://www.w3.org/2000/svg">
<path d="M52.8601 105.72C82.0538 105.72 105.72 82.0538 105.72 52.86C105.72 23.6662 82.0538 0 52.8601 0C23.6663 0 6.10352e-05 23.6662 6.10352e-05 52.86C6.10352e-05 82.0538 23.6663 105.72 52.8601 105.72Z" fill="#F0F4F7"/>
<path d="M86.801 84.686V101.52C86.7973 102.763 86.3018 103.954 85.4227 104.833C84.5435 105.712 83.3521 106.208 82.1089 106.211H47.069C45.8256 106.209 44.6338 105.714 43.7546 104.834C42.8754 103.955 42.3804 102.763 42.378 101.52V31.3199C42.3817 30.0769 42.8771 28.8858 43.756 28.0067C44.6349 27.1276 45.8259 26.6319 47.069 26.6279H82.1089C83.3522 26.6316 84.5435 27.1272 85.4227 28.0063C86.3018 28.8855 86.7973 30.0767 86.801 31.3199V45.7679" fill="white"/>
<path d="M86.801 84.686V101.52C86.7973 102.763 86.3018 103.954 85.4227 104.833C84.5435 105.712 83.3521 106.208 82.1089 106.211H47.069C45.8256 106.209 44.6338 105.714 43.7546 104.834C42.8754 103.955 42.3804 102.763 42.378 101.52V31.3199C42.3817 30.0769 42.8771 28.8858 43.756 28.0067C44.6349 27.1276 45.8259 26.6319 47.069 26.6279H82.1089C83.3522 26.6316 84.5435 27.1272 85.4227 28.0063C86.3018 28.8855 86.7973 30.0767 86.801 31.3199V45.7679" stroke="#B8C0CC" stroke-width="1.88" stroke-miterlimit="10" stroke-linecap="round"/>
<path d="M63.969 48.923H19.854C18.655 48.923 17.683 49.895 17.683 51.094V78.377C17.683 79.576 18.655 80.548 19.854 80.548H63.969C65.1681 80.548 66.14 79.576 66.14 78.377V51.094C66.14 49.895 65.1681 48.923 63.969 48.923Z" fill="white" stroke="#30A3C7" stroke-width="1.88" stroke-miterlimit="10" stroke-linecap="round"/>
<path d="M23.473 73.064H48.966" stroke="#30A3C7" stroke-width="1.88" stroke-miterlimit="10" stroke-linecap="round"/>
<path d="M64.649 100.787C66.756 100.787 68.464 99.0789 68.464 96.972C68.464 94.865 66.756 93.157 64.649 93.157C62.5421 93.157 60.834 94.865 60.834 96.972C60.834 99.0789 62.5421 100.787 64.649 100.787Z" fill="#B8C0CC"/>
<path d="M58.71 32.984H70.647" stroke="#B8C0CC" stroke-width="1.88" stroke-miterlimit="10" stroke-linecap="round"/>
<path d="M75.898 53.6959H100.277" stroke="#B8C0CC" stroke-width="1.88" stroke-linecap="round" stroke-linejoin="round"/>
<path d="M97.593 48.4399L102.849 53.6959L97.593 58.952" stroke="#B8C0CC" stroke-width="1.88" stroke-linecap="round" stroke-linejoin="round"/>
<path d="M85.086 79.119C85.4451 79.119 85.7895 78.9763 86.0434 78.7224C86.2973 78.4685 86.44 78.1241 86.44 77.765V76.944C87.611 76.8737 88.711 76.3593 89.5158 75.5059C90.3206 74.6524 90.7696 73.524 90.7711 72.351V72.2159C90.7692 70.9965 90.284 69.8276 89.4217 68.9653C88.5594 68.1031 87.3904 67.6178 86.171 67.616H83.871C83.3922 67.5812 82.9443 67.3664 82.6174 67.0149C82.2905 66.6633 82.1087 66.201 82.1087 65.7209C82.1087 65.2409 82.2905 64.7787 82.6174 64.4271C82.9443 64.0756 83.3922 63.8607 83.871 63.8259H87.2291C87.4268 63.8262 87.6163 63.905 87.7562 64.0448C87.896 64.1846 87.9748 64.3743 87.975 64.572V64.604C87.9724 64.9527 88.1045 65.289 88.3438 65.5426C88.5831 65.7963 88.9112 65.9477 89.2595 65.9653C89.6077 65.983 89.9493 65.8656 90.2131 65.6375C90.4768 65.4093 90.6423 65.0881 90.675 64.741V64.72C90.6949 64.2669 90.6253 63.8144 90.4702 63.3882C90.315 62.962 90.0774 62.5705 89.7709 62.2362C89.4645 61.9019 89.0951 61.6312 88.684 61.4397C88.2729 61.2482 87.8282 61.1395 87.3751 61.12H87.227H86.441V60.308C86.4459 60.1271 86.4145 59.9472 86.3487 59.7787C86.2829 59.6102 86.184 59.4566 86.0578 59.3269C85.9316 59.1973 85.7809 59.0942 85.6142 59.0238C85.4475 58.9534 85.2684 58.9172 85.0875 58.9172C84.9066 58.9172 84.7275 58.9534 84.5609 59.0238C84.3942 59.0942 84.2433 59.1973 84.1171 59.3269C83.991 59.4566 83.892 59.6102 83.8262 59.7787C83.7604 59.9472 83.729 60.1271 83.734 60.308V61.1229C83.1299 61.1318 82.5335 61.2597 81.9788 61.499C81.4241 61.7384 80.9219 62.0846 80.501 62.5181C80.0802 62.9515 79.7488 63.4635 79.5258 64.025C79.3028 64.5865 79.1926 65.1864 79.2015 65.7905C79.2103 66.3946 79.3381 66.9909 79.5775 67.5457C79.8168 68.1004 80.1631 68.6026 80.5965 69.0234C81.0299 69.4443 81.5421 69.7757 82.1036 69.9987C82.6651 70.2216 83.2649 70.3319 83.869 70.323H86.169C86.4185 70.323 86.6655 70.3722 86.8961 70.4677C87.1266 70.5631 87.3361 70.7031 87.5125 70.8795C87.689 71.0559 87.8289 71.2653 87.9244 71.4958C88.0199 71.7264 88.069 71.9735 88.069 72.223V72.359C88.0674 72.8619 87.8666 73.3436 87.5104 73.6986C87.1543 74.0536 86.6719 74.2529 86.169 74.2529H82.757C82.6591 74.2531 82.5621 74.2339 82.4716 74.1965C82.3811 74.1592 82.2988 74.1043 82.2296 74.0352C82.1603 73.966 82.1053 73.8838 82.0678 73.7933C82.0303 73.7029 82.0111 73.6059 82.0111 73.5079V73.495V73.355C82.0105 73.0006 81.871 72.6605 81.6225 72.4077C81.374 72.155 81.0364 72.0097 80.6821 72.0032C80.3277 71.9966 79.9849 72.1293 79.7272 72.3727C79.4696 72.6161 79.3176 72.9508 79.304 73.3049V73.4459C79.2957 73.8992 79.3767 74.3498 79.5425 74.7717C79.7084 75.1937 79.9557 75.5788 80.2705 75.9052C80.5852 76.2315 80.9611 76.4926 81.3768 76.6736C81.7925 76.8546 82.2398 76.9519 82.6931 76.96H83.731V77.772C83.7313 78.1309 83.8741 78.4751 84.128 78.7288C84.3819 78.9825 84.7261 79.125 85.085 79.125L85.086 79.119Z" fill="#B8C0CC"/>
<path opacity="0.8" d="M27.211 63.5469C29.2754 63.5469 30.949 61.8734 30.949 59.8089C30.949 57.7445 29.2754 56.0709 27.211 56.0709C25.1465 56.0709 23.473 57.7445 23.473 59.8089C23.473 61.8734 25.1465 63.5469 27.211 63.5469Z" fill="#30A3C7"/>
<path opacity="0.5" d="M33.1701 63.5469C35.2345 63.5469 36.9081 61.8734 36.9081 59.8089C36.9081 57.7445 35.2345 56.0709 33.1701 56.0709C31.1056 56.0709 29.4321 57.7445 29.4321 59.8089C29.4321 61.8734 31.1056 63.5469 33.1701 63.5469Z" fill="#30A3C7"/>
</svg>
