<svg width="65" height="62" viewBox="0 0 65 62" fill="none" xmlns="http://www.w3.org/2000/svg">
<path d="M22.1168 19.7852C13.1776 19.7852 7.35498 25.069 7.35498 25.069C7.35498 25.069 7.79792 30.2091 9.77099 39.0767C11.736 47.9203 11.9535 54.569 11.9535 54.569C11.9535 54.569 16.1895 57.3386 22.0927 57.3386C27.9958 57.3386 32.2641 54.569 32.2641 54.569C32.2641 54.569 32.4735 47.9363 34.4466 39.0767C36.4116 30.2331 36.8545 25.069 36.8545 25.069C36.8545 25.069 31.0641 19.7852 22.1168 19.7852Z" fill="white" stroke="#B8C0CC" stroke-width="1.5" stroke-miterlimit="10"/>
<path d="M9.12677 36.0597C9.12677 36.0597 5.47054 45.9409 6.54969 60.2041C6.54969 60.2041 2.82903 57.8096 1.70156 50.9694C0.582135 44.1291 -0.158776 32.899 7.35503 25.061" stroke="#B8C0CC" stroke-width="1.5" stroke-miterlimit="10"/>
<path d="M43.7562 30.1371C42.3227 29.5624 36.8545 25.2842 36.8545 25.2842L35.2197 36.0355C35.2197 36.0355 47.4044 50.9212 50.7869 36.3627C54.6283 19.8248 44.2271 14.052 44.2271 14.052C44.2271 14.052 49.5305 27.1679 40.8329 34.5429" stroke="#B8C0CC" stroke-width="1.5" stroke-miterlimit="10" stroke-linecap="round"/>
<path d="M57.3239 2.43848C48.4652 6.26167 43.0694 7.2913 40.4601 7.55469C38.8977 7.71432 37.6736 9.03129 37.7461 10.5797C37.7461 10.6116 37.7461 10.6436 37.7542 10.6755C37.8508 12.0563 38.9219 13.1658 40.299 13.3813C43.2063 13.8442 49.351 14.9936 56.1642 17.3082" fill="white"/>
<path d="M57.3239 2.43848C48.4652 6.26167 43.0694 7.2913 40.4601 7.55469C38.8977 7.71432 37.6736 9.03129 37.7461 10.5797C37.7461 10.6116 37.7461 10.6436 37.7542 10.6755C37.8508 12.0563 38.9219 13.1658 40.299 13.3813C43.2063 13.8442 49.351 14.9936 56.1642 17.3082" stroke="#B8C0CC" stroke-width="1.5" stroke-miterlimit="10"/>
<path d="M63.2673 10.2444C63.2673 14.6742 61.109 18.2659 58.4433 18.2659C56.6554 18.2659 55.0931 16.6457 54.2636 14.2432C53.8529 13.0699 53.6193 11.7051 53.6193 10.2444C53.6193 8.9514 53.8046 7.73819 54.1267 6.66068C54.9159 4.03473 56.5508 2.2229 58.4433 2.2229C61.109 2.2229 63.2673 5.81463 63.2673 10.2444Z" fill="white" stroke="#B8C0CC" stroke-width="1.5" stroke-miterlimit="10"/>
<path d="M59.603 10.428C59.603 12.6469 57.7829 14.4507 55.5441 14.4507C55.0931 14.4507 54.6663 14.3789 54.2636 14.2432C53.8529 13.0699 53.6193 11.7051 53.6193 10.2444C53.6193 8.95141 53.8046 7.7382 54.1267 6.66069C54.5696 6.49307 55.0448 6.40527 55.5441 6.40527C57.7829 6.40527 59.603 8.20114 59.603 10.428Z" fill="white" stroke="#B8C0CC" stroke-width="1.5" stroke-miterlimit="10"/>
<path d="M43.9069 14.0359C43.9069 14.0359 44.1647 19.5831 43.1177 23.111C42.7956 24.1885 43.4721 25.2979 44.5834 25.5134C44.5995 25.5134 44.6237 25.5214 44.6398 25.5214C45.6545 25.713 46.629 25.0824 46.8706 24.0927C47.3538 22.0574 48.1028 18.2342 47.8934 14.9139L43.9069 14.0359Z" fill="white" stroke="#B8C0CC" stroke-width="1.5" stroke-miterlimit="10"/>
<path d="M15.531 20.8958L22.5762 35.9187" stroke="#B8C0CC" stroke-width="1.5"/>
<path d="M27.39 21.1273L21.5747 33.9167" stroke="#B8C0CC" stroke-width="1.5"/>
<path d="M23.792 41.836H19.4593C19.0083 41.836 18.6459 41.4768 18.6459 41.0298V33.9182C18.6459 33.4712 19.0083 33.1121 19.4593 33.1121H23.792C24.243 33.1121 24.6054 33.4712 24.6054 33.9182V41.0298C24.6054 41.4768 24.243 41.836 23.792 41.836Z" fill="#30A3C7"/>
<path d="M22.2632 17.0674C27.0402 17.0674 30.9127 13.2468 30.9127 8.53372C30.9127 3.82068 27.0402 0 22.2632 0C17.4862 0 13.6136 3.82068 13.6136 8.53372C13.6136 13.2468 17.4862 17.0674 22.2632 17.0674Z" fill="#30A3C7"/>
</svg>
