<svg width="106" height="106" viewBox="0 0 106 106" fill="none" xmlns="http://www.w3.org/2000/svg">
<path d="M52.861 105.72C82.0547 105.72 105.721 82.0538 105.721 52.86C105.721 23.6662 82.0547 0 52.861 0C23.6672 0 0.000976562 23.6662 0.000976562 52.86C0.000976562 82.0538 23.6672 105.72 52.861 105.72Z" fill="#F0F4F7"/>
<path d="M48.861 87.3931C48.8633 87.8672 49.0527 88.3212 49.3878 88.6565C49.723 88.9918 50.1769 89.1813 50.651 89.184H94.382C94.8561 89.1813 95.31 88.9918 95.6451 88.6565C95.9803 88.3212 96.1696 87.8672 96.172 87.3931V33.193L82.7531 19.724H50.653C50.179 19.7266 49.7253 19.9161 49.3901 20.2512C49.055 20.5863 48.8657 21.0401 48.863 21.514V24.774" fill="white"/>
<path d="M48.861 87.3931C48.8633 87.8672 49.0527 88.3212 49.3878 88.6565C49.723 88.9918 50.1769 89.1813 50.651 89.184H94.382C94.8561 89.1813 95.31 88.9918 95.6451 88.6565C95.9803 88.3212 96.1696 87.8672 96.172 87.3931V33.193L82.7531 19.724H50.653C50.179 19.7266 49.7253 19.9161 49.3901 20.2512C49.055 20.5863 48.8657 21.0401 48.863 21.514V24.774" stroke="#B8C0CC" stroke-width="1.88" stroke-miterlimit="10" stroke-linecap="round"/>
<path d="M71.272 57.632C71.272 62.3753 69.8654 67.0123 67.2301 70.9563C64.5948 74.9003 60.8493 77.9742 56.4669 79.7894C52.0846 81.6046 47.2624 82.0796 42.6101 81.1542C37.9579 80.2288 33.6846 77.9447 30.3305 74.5906C26.9764 71.2365 24.6923 66.9632 23.7669 62.3109C22.8415 57.6587 23.3164 52.8364 25.1316 48.4541C26.9468 44.0718 30.0208 40.3262 33.9648 37.6909C37.9087 35.0556 42.5456 33.649 47.289 33.649V57.632H71.272Z" fill="white" stroke="#B8C0CC" stroke-width="1.88" stroke-miterlimit="10" stroke-linecap="round"/>
<path d="M55.24 25.6951C61.6005 25.6953 67.7004 28.2222 72.1979 32.7198C76.6953 37.2175 79.222 43.3175 79.222 49.678H55.24V25.6951Z" stroke="#30A3C7" stroke-width="1.88" stroke-miterlimit="10" stroke-linecap="round"/>
<path d="M82.7531 19.726V30.313C82.7531 31.058 83.0489 31.7725 83.5757 32.2993C84.1025 32.8261 84.817 33.1219 85.562 33.1219H96.172" stroke="#B8C0CC" stroke-width="1.88" stroke-miterlimit="10" stroke-linecap="round"/>
<path d="M83.873 40.033H91.338" stroke="#B8C0CC" stroke-width="1.88" stroke-miterlimit="10" stroke-linecap="round"/>
<path d="M83.873 47.22H91.338" stroke="#B8C0CC" stroke-width="1.88" stroke-miterlimit="10" stroke-linecap="round"/>
<path d="M83.873 54.454H91.338" stroke="#B8C0CC" stroke-width="1.88" stroke-miterlimit="10" stroke-linecap="round"/>
<path d="M89.283 73.552C89.2367 73.4083 89.1492 73.2815 89.0313 73.1873C88.9134 73.093 88.7704 73.0355 88.62 73.022L84.433 72.642L82.778 68.767C82.7186 68.6281 82.6198 68.5097 82.4938 68.4265C82.3678 68.3433 82.22 68.299 82.069 68.299C81.918 68.299 81.7702 68.3433 81.6442 68.4265C81.5181 68.5097 81.4194 68.6281 81.36 68.767L79.704 72.641L75.517 73.021C75.3667 73.0349 75.2238 73.0925 75.106 73.1868C74.9881 73.281 74.9005 73.4077 74.8539 73.5513C74.8073 73.6948 74.8038 73.8489 74.8438 73.9944C74.8838 74.1399 74.9656 74.2705 75.079 74.37L78.244 77.145L77.3111 81.256C77.2768 81.4032 77.2866 81.5573 77.3394 81.699C77.3922 81.8406 77.4855 81.9636 77.6078 82.0525C77.7301 82.1414 77.8758 82.1922 78.0269 82.1987C78.1779 82.2052 78.3276 82.167 78.4571 82.089L82.069 79.9301L85.679 82.089C85.8086 82.1664 85.9581 82.2041 86.1089 82.1973C86.2597 82.1905 86.4051 82.1395 86.5272 82.0508C86.6494 81.9621 86.7428 81.8395 86.7959 81.6982C86.849 81.557 86.8596 81.4032 86.8261 81.256L85.893 77.145L89.057 74.37C89.1708 74.2709 89.2529 74.1404 89.2931 73.995C89.3333 73.8495 89.3297 73.6955 89.283 73.552Z" fill="#30A3C7"/>
</svg>
