<svg width="125" height="106" viewBox="0 0 125 106" fill="none" xmlns="http://www.w3.org/2000/svg">
<path d="M52.86 105.72C82.0538 105.72 105.72 82.0533 105.72 52.8595C105.72 23.6657 82.0538 -0.000488281 52.86 -0.000488281C23.6662 -0.000488281 0 23.6657 0 52.8595C0 82.0533 23.6662 105.72 52.86 105.72Z" fill="#F0F4F7"/>
<path d="M23.0002 75.2985C23.0002 82.2985 28.6736 88.0001 35.7018 88.0001C38.0163 88.0001 123.081 87.7178 123.081 87.7178V30.4196H48.6856V75.2985" fill="white"/>
<path d="M23.0002 75.2985C23.0002 82.2985 28.6736 88.0001 35.7018 88.0001C38.0163 88.0001 123.081 87.7178 123.081 87.7178V30.4196H48.6856V75.2985" stroke="#B8C0CC" stroke-width="1.88" stroke-miterlimit="10" stroke-linecap="round" stroke-linejoin="round"/>
<path d="M23.0005 75.0159C23.0005 75.1005 23.0005 75.2134 23.0005 75.2981" stroke="#B8C0CC" stroke-width="1.88" stroke-miterlimit="10" stroke-linecap="round" stroke-linejoin="round"/>
<path d="M23.0005 30.1372V30.7017C23.0005 30.5041 23.0005 30.3066 23.0005 30.1372Z" stroke="#B8C0CC" stroke-width="1.88" stroke-miterlimit="10" stroke-linecap="round" stroke-linejoin="round"/>
<path d="M23.0005 75.0159V75.2981" stroke="#B8C0CC" stroke-width="1.88" stroke-miterlimit="10" stroke-linecap="round" stroke-linejoin="round"/>
<path d="M23.0001 30.7016V75.016C23.0001 70.02 25.8792 65.7015 30.0566 63.641C31.7501 62.7942 33.6695 62.3144 35.7017 62.3144C42.7299 62.3144 48.4033 68.016 48.4033 75.016C48.4033 75.1007 48.6855 75.2982 48.6855 75.2982L48.4033 30.1371C48.121 23.3911 42.5323 18 35.7017 18C28.8711 18 23.3106 23.3911 23.0001 30.1371C23.0001 30.3064 23.0001 30.504 23.0001 30.7016Z" fill="#FCFDFF" stroke="#B8C0CC" stroke-width="1.88" stroke-miterlimit="10" stroke-linecap="round" stroke-linejoin="round"/>
<path d="M40.218 30.4196V62.9356" stroke="#B8C0CC" stroke-width="1.88" stroke-miterlimit="10" stroke-linecap="round" stroke-linejoin="round"/>
<path d="M115.742 43.1211V75.6371" stroke="#B8C0CC" stroke-width="1.88" stroke-miterlimit="10" stroke-linecap="round" stroke-linejoin="round"/>
<path d="M36 88C28.8203 88 23 82.1797 23 75C23 67.8203 28.8203 62 36 62C43.1797 62 48.7 67.8203 48.7 75C48.7 82.1797 43.1797 88 36 88Z" fill="white" stroke="#B8C0CC" stroke-width="1.88" stroke-miterlimit="10" stroke-linecap="round" stroke-linejoin="round"/>
<path d="M69.0885 43.4031H94.2094V49.8951H69.0885V43.4031Z" stroke="#30A3C7" stroke-width="1.88" stroke-miterlimit="10" stroke-linecap="round" stroke-linejoin="round"/>
<path d="M64.0081 37.7579H69.0887V55.8224H64.0081V37.7579Z" fill="white" stroke="#30A3C7" stroke-width="1.88" stroke-miterlimit="10" stroke-linecap="round" stroke-linejoin="round"/>
<path d="M58.7983 37.7578H63.8789V55.8223H58.7983V37.7578Z" fill="white" stroke="#30A3C7" stroke-width="1.88" stroke-miterlimit="10" stroke-linecap="round" stroke-linejoin="round"/>
<path d="M99.6733 37.7578H104.754V55.8223H99.6733V37.7578Z" fill="white" stroke="#30A3C7" stroke-width="1.88" stroke-miterlimit="10" stroke-linecap="round" stroke-linejoin="round"/>
<path d="M94.4638 37.7579H99.5444V55.8224H94.4638V37.7579Z" fill="white" stroke="#30A3C7" stroke-width="1.88" stroke-miterlimit="10" stroke-linecap="round" stroke-linejoin="round"/>
<path d="M69.0885 68.2415H94.2094V74.7334H69.0885V68.2415Z" stroke="#30A3C7" stroke-width="1.88" stroke-miterlimit="10" stroke-linecap="round" stroke-linejoin="round"/>
<path d="M64.0081 62.5963H69.0887V80.6607H64.0081V62.5963Z" fill="white" stroke="#30A3C7" stroke-width="1.88" stroke-miterlimit="10" stroke-linecap="round" stroke-linejoin="round"/>
<path d="M58.7983 62.5962H63.8789V80.6607H58.7983V62.5962Z" fill="white" stroke="#30A3C7" stroke-width="1.88" stroke-miterlimit="10" stroke-linecap="round" stroke-linejoin="round"/>
<path d="M99.6733 62.5967H104.754V80.6611H99.6733V62.5967Z" fill="white" stroke="#30A3C7" stroke-width="1.88" stroke-miterlimit="10" stroke-linecap="round" stroke-linejoin="round"/>
<path d="M94.4638 62.5963H99.5444V80.6607H94.4638V62.5963Z" fill="white" stroke="#30A3C7" stroke-width="1.88" stroke-miterlimit="10" stroke-linecap="round" stroke-linejoin="round"/>
</svg>
