<svg width="114" height="62" viewBox="0 0 114 62" fill="none" xmlns="http://www.w3.org/2000/svg">
<path d="M113.027 5.89224V56.1078C113.027 58.8125 110.834 61 108.122 61H5.90551C3.19343 61 1 58.8125 1 56.1078V5.89224C1 3.1875 3.19343 1 5.90551 1H108.122C110.834 1 113.027 3.1875 113.027 5.89224Z" fill="white" stroke="#B8C0CC" stroke-width="1.5" stroke-miterlimit="10"/>
<path d="M107.322 11.5605V50.4398C107.322 53.1445 105.129 55.332 102.417 55.332H13.4907C10.7786 55.332 8.58517 53.1445 8.58517 50.4398V11.5605C8.58517 8.85571 10.7786 6.66821 13.4907 6.66821H102.417C105.129 6.66821 107.322 8.85571 107.322 11.5605Z" fill="white" stroke="#B8C0CC" stroke-width="1.5" stroke-miterlimit="10"/>
<path d="M107.322 14.7068V47.293C98.2999 47.293 90.9848 39.9977 90.9848 30.9999C90.9848 22.002 98.2999 14.7068 107.322 14.7068Z" fill="white" stroke="#B8C0CC" stroke-width="1.5" stroke-miterlimit="10"/>
<path d="M24.9225 30.9999C24.9225 39.9977 17.6074 47.293 8.58517 47.293V14.7068C17.6074 14.7068 24.9225 22.002 24.9225 30.9999Z" fill="white" stroke="#B8C0CC" stroke-width="1.5" stroke-miterlimit="10"/>
<path d="M57.9537 6.67896V55.332" stroke="#B8C0CC" stroke-width="1.5" stroke-miterlimit="10"/>
<path d="M57.9537 38.6076C62.1667 38.6076 65.5821 35.2015 65.5821 30.9998C65.5821 26.7982 62.1667 23.3921 57.9537 23.3921C53.7406 23.3921 50.3253 26.7982 50.3253 30.9998C50.3253 35.2015 53.7406 38.6076 57.9537 38.6076Z" fill="#30A3C7"/>
</svg>
