<svg width="219" height="149" viewBox="0 0 219 149" fill="none" xmlns="http://www.w3.org/2000/svg">
<path d="M50.576 13.5C57.0145 13.4999 63.39 14.7679 69.3385 17.2317C75.287 19.6956 80.6919 23.3069 85.2447 27.8596C89.7974 32.4123 93.4089 37.8172 95.8729 43.7656C98.3368 49.714 99.605 56.0895 99.605 62.528C99.6051 69.0104 98.3284 75.4293 95.8478 81.4183C93.3672 87.4073 89.7312 92.8491 85.1475 97.4329C80.5638 102.017 75.1222 105.653 69.1332 108.133C63.1443 110.614 56.7254 111.891 50.243 111.891H9.16199C8.11824 111.891 7.08472 111.685 6.12042 111.286C5.15613 110.887 4.27994 110.301 3.5419 109.563C2.80386 108.825 2.21842 107.949 1.81899 106.985C1.41957 106.02 1.21399 104.987 1.21399 103.943L1.21399 62.862C1.21399 49.7704 6.41461 37.215 15.6718 27.9578C24.929 18.7006 37.4844 13.5 50.576 13.5V13.5Z" fill="white"/>
<path d="M49.964 13.5769C52.5174 13.5771 55.0669 13.7778 57.589 14.1769C37.531 13.7059 10.271 28.5249 10.271 62.5419V104.752C10.2763 106.589 11.0083 108.349 12.3072 109.648C13.6061 110.947 15.3661 111.679 17.203 111.684H7.93103C6.09435 111.678 4.33447 110.946 3.03583 109.647C1.73718 108.349 1.00528 106.589 1 104.752V62.5419C1.03773 49.5674 6.20848 37.135 15.3828 27.9604C24.5571 18.7859 36.9894 13.6149 49.964 13.5769Z" fill="#EAEFF4"/>
<path d="M50.576 13.5C57.0145 13.4999 63.39 14.7679 69.3385 17.2317C75.287 19.6956 80.6919 23.3069 85.2447 27.8596C89.7974 32.4123 93.4089 37.8171 95.8729 43.7656C98.3368 49.714 99.605 56.0895 99.605 62.528V62.528C99.6051 69.0104 98.3284 75.4293 95.8478 81.4183C93.3672 87.4073 89.7312 92.8491 85.1475 97.4329C80.5638 102.017 75.1222 105.653 69.1332 108.133C63.1443 110.614 56.7254 111.891 50.243 111.891H9.16199C8.11824 111.891 7.08472 111.685 6.12042 111.286C5.15613 110.887 4.27994 110.301 3.5419 109.563C2.80386 108.825 2.21842 107.949 1.81899 106.985C1.41957 106.02 1.21399 104.987 1.21399 103.943L1.21399 62.862C1.21399 49.7704 6.41461 37.215 15.6718 27.9578C24.929 18.7006 37.4844 13.5 50.576 13.5V13.5Z" stroke="#B8C0CC" stroke-width="1.88" stroke-linecap="round" stroke-linejoin="round"/>
<path d="M53.329 53.1909C53.329 51.9728 53.8129 50.8045 54.6743 49.9432C55.5356 49.0818 56.7039 48.5979 57.922 48.5979C59.1401 48.5979 60.3084 49.0818 61.1697 49.9432C62.0311 50.8045 62.515 51.9728 62.515 53.1909" stroke="#B8C0CC" stroke-width="1.88" stroke-linecap="round" stroke-linejoin="round"/>
<path d="M74.682 53.1909C74.682 51.9728 75.1659 50.8045 76.0273 49.9432C76.8886 49.0818 78.0569 48.5979 79.275 48.5979C80.4932 48.5979 81.6614 49.0818 82.5228 49.9432C83.3841 50.8045 83.868 51.9728 83.868 53.1909" stroke="#B8C0CC" stroke-width="1.88" stroke-linecap="round" stroke-linejoin="round"/>
<path d="M121.929 62.5H37.0708C33.1657 62.5 30 64.722 30 67.4629V117.537C30 120.278 33.1657 122.5 37.0708 122.5H121.929C125.834 122.5 129 120.278 129 117.537V67.4629C129 64.722 125.834 62.5 121.929 62.5Z" fill="white" stroke="#B8C0CC" stroke-width="1.88" stroke-linecap="round" stroke-linejoin="round"/>
<path d="M210.103 147.974H169.174C156.131 147.974 143.622 142.793 134.399 133.57C125.176 124.347 119.995 111.838 119.995 98.7951C119.995 92.3804 121.258 86.0285 123.713 80.102C126.168 74.1756 129.766 68.7907 134.302 64.2548C138.838 59.7189 144.222 56.1208 150.149 53.6661C156.075 51.2114 162.427 49.948 168.842 49.9481C181.885 49.9481 194.394 55.1295 203.617 64.3523C212.84 73.5752 218.021 86.084 218.021 99.1271V140.056C218.021 142.156 217.187 144.17 215.702 145.655C214.217 147.14 212.203 147.974 210.103 147.974Z" fill="white"/>
<path opacity="0.6" d="M169.453 50.0239C166.908 50.025 164.367 50.2256 161.853 50.6239C181.837 50.1549 208.995 64.9189 208.995 98.8099V140.864C208.99 142.693 208.261 144.445 206.969 145.739C205.676 147.033 203.924 147.762 202.095 147.769H211.331C213.161 147.764 214.914 147.034 216.208 145.741C217.502 144.447 218.231 142.694 218.237 140.864V98.8069C218.199 85.8803 213.047 73.4939 203.907 64.3535C194.766 55.213 182.38 50.0614 169.453 50.0239Z" fill="#B2DBE7"/>
<path d="M210.103 147.974H169.174C156.131 147.974 143.622 142.793 134.399 133.57C125.176 124.347 119.995 111.838 119.995 98.7951V98.7951C119.995 92.3804 121.258 86.0285 123.713 80.102C126.168 74.1756 129.766 68.7907 134.302 64.2548C138.838 59.7189 144.222 56.1209 150.149 53.6661C156.075 51.2114 162.427 49.948 168.842 49.9481V49.9481C181.885 49.9481 194.394 55.1295 203.617 64.3523C212.84 73.5752 218.021 86.084 218.021 99.1271V140.056C218.021 142.156 217.187 144.17 215.702 145.655C214.217 147.14 212.203 147.974 210.103 147.974V147.974Z" stroke="#30A3C7" stroke-width="1.88" stroke-linecap="round" stroke-linejoin="round"/>
<path d="M145.405 84.346C145.632 81.5423 144.395 79.1546 142.643 79.0128C140.891 78.8711 139.287 81.0289 139.06 83.8325C138.833 86.6362 140.069 89.0239 141.822 89.1656C143.574 89.3074 145.178 87.1496 145.405 84.346Z" fill="#30A3C7"/>
<path d="M44.919 74.69C45.0877 74.69 45.2233 74.745 45.326 74.855C45.4287 74.9577 45.48 75.0933 45.48 75.262V81.983C45.48 82.1517 45.4287 82.291 45.326 82.401C45.2233 82.5037 45.0877 82.555 44.919 82.555C44.7503 82.555 44.6147 82.5037 44.512 82.401C44.4093 82.2983 44.358 82.159 44.358 81.983V79.024H40.024V81.983C40.024 82.1517 39.9727 82.291 39.87 82.401C39.7673 82.5037 39.6317 82.555 39.463 82.555C39.2943 82.555 39.1587 82.5037 39.056 82.401C38.9533 82.2983 38.902 82.159 38.902 81.983V75.262C38.902 75.0933 38.9533 74.9577 39.056 74.855C39.1587 74.745 39.2943 74.69 39.463 74.69C39.6317 74.69 39.7673 74.745 39.87 74.855C39.9727 74.9577 40.024 75.0933 40.024 75.262V78.1H44.358V75.262C44.358 75.0933 44.4093 74.9577 44.512 74.855C44.6147 74.745 44.7503 74.69 44.919 74.69ZM51.3509 81.147C51.4536 81.147 51.5379 81.1873 51.6039 81.268C51.6699 81.3487 51.7029 81.4513 51.7029 81.576C51.7029 81.7887 51.5709 81.9683 51.3069 82.115C51.0502 82.2617 50.7679 82.3753 50.4599 82.456C50.1592 82.5367 49.8696 82.577 49.5909 82.577C48.7402 82.577 48.0692 82.3313 47.5779 81.84C47.0866 81.3413 46.8409 80.663 46.8409 79.805C46.8409 79.255 46.9472 78.7673 47.1599 78.342C47.3799 77.9167 47.6842 77.5867 48.0729 77.352C48.4689 77.1173 48.9162 77 49.4149 77C50.1336 77 50.7019 77.231 51.1199 77.693C51.5379 78.155 51.7469 78.7783 51.7469 79.563C51.7469 79.8563 51.6149 80.003 51.3509 80.003H47.9519C48.0252 81.1397 48.5716 81.708 49.5909 81.708C49.8622 81.708 50.0969 81.6713 50.2949 81.598C50.4929 81.5247 50.7019 81.4293 50.9219 81.312C50.9439 81.2973 51.0026 81.268 51.0979 81.224C51.2006 81.1727 51.2849 81.147 51.3509 81.147ZM49.4369 77.814C49.0116 77.814 48.6706 77.9497 48.4139 78.221C48.1572 78.4923 48.0032 78.8737 47.9519 79.365H50.7899C50.7679 78.8663 50.6396 78.485 50.4049 78.221C50.1776 77.9497 49.8549 77.814 49.4369 77.814ZM53.5322 82.555C53.3708 82.555 53.2352 82.511 53.1252 82.423C53.0225 82.335 52.9712 82.203 52.9712 82.027V77.561C52.9712 77.385 53.0225 77.253 53.1252 77.165C53.2352 77.0697 53.3708 77.022 53.5322 77.022C53.6935 77.022 53.8255 77.0697 53.9282 77.165C54.0308 77.253 54.0822 77.385 54.0822 77.561V82.027C54.0822 82.203 54.0308 82.335 53.9282 82.423C53.8255 82.511 53.6935 82.555 53.5322 82.555ZM53.5322 75.944C53.3195 75.944 53.1508 75.8853 53.0262 75.768C52.9015 75.6507 52.8392 75.4967 52.8392 75.306C52.8392 75.1153 52.9015 74.965 53.0262 74.855C53.1508 74.7377 53.3195 74.679 53.5322 74.679C53.7375 74.679 53.9025 74.7377 54.0272 74.855C54.1592 74.965 54.2252 75.1153 54.2252 75.306C54.2252 75.4967 54.1628 75.6507 54.0382 75.768C53.9135 75.8853 53.7448 75.944 53.5322 75.944ZM60.0792 77.022C60.2479 77.022 60.3799 77.0733 60.4752 77.176C60.5779 77.2713 60.6292 77.3997 60.6292 77.561V82.071C60.6292 82.8923 60.4092 83.512 59.9692 83.93C59.5366 84.348 58.8949 84.557 58.0442 84.557C57.2522 84.557 56.5922 84.4067 56.0642 84.106C55.7929 83.952 55.6572 83.7687 55.6572 83.556C55.6572 83.4313 55.6902 83.3287 55.7562 83.248C55.8296 83.1673 55.9176 83.127 56.0202 83.127C56.1156 83.127 56.2659 83.182 56.4712 83.292C56.7352 83.4167 56.9809 83.512 57.2082 83.578C57.4356 83.6513 57.7069 83.688 58.0222 83.688C59.0342 83.688 59.5402 83.1783 59.5402 82.159V81.312C59.3862 81.6347 59.1516 81.8877 58.8362 82.071C58.5209 82.247 58.1542 82.335 57.7362 82.335C57.2669 82.335 56.8489 82.225 56.4822 82.005C56.1156 81.785 55.8296 81.4733 55.6242 81.07C55.4262 80.6667 55.3272 80.201 55.3272 79.673C55.3272 79.145 55.4299 78.6793 55.6352 78.276C55.8406 77.8727 56.1229 77.561 56.4822 77.341C56.8489 77.1137 57.2669 77 57.7362 77C58.1469 77 58.5062 77.088 58.8142 77.264C59.1296 77.44 59.3679 77.6893 59.5292 78.012V77.55C59.5292 77.3887 59.5769 77.2603 59.6722 77.165C59.7749 77.0697 59.9106 77.022 60.0792 77.022ZM58.0002 81.455C58.4769 81.455 58.8509 81.2973 59.1222 80.982C59.3936 80.6667 59.5292 80.2303 59.5292 79.673C59.5292 79.123 59.3936 78.6903 59.1222 78.375C58.8582 78.0523 58.4842 77.891 58.0002 77.891C57.5162 77.891 57.1349 78.0487 56.8562 78.364C56.5849 78.6793 56.4492 79.1157 56.4492 79.673C56.4492 80.2303 56.5886 80.6667 56.8672 80.982C57.1459 81.2973 57.5236 81.455 58.0002 81.455ZM65.0812 77C66.3572 77 66.9952 77.7223 66.9952 79.167V82.027C66.9952 82.1883 66.9439 82.3167 66.8412 82.412C66.7386 82.5073 66.6029 82.555 66.4342 82.555C66.2656 82.555 66.1299 82.5073 66.0272 82.412C65.9319 82.3167 65.8842 82.1883 65.8842 82.027V79.178C65.8842 78.738 65.7926 78.4153 65.6092 78.21C65.4332 78.0047 65.1546 77.902 64.7732 77.902C64.3259 77.902 63.9666 78.0413 63.6952 78.32C63.4239 78.5987 63.2882 78.9727 63.2882 79.442V82.027C63.2882 82.1883 63.2369 82.3167 63.1342 82.412C63.0389 82.5073 62.9069 82.555 62.7382 82.555C62.5696 82.555 62.4339 82.5073 62.3312 82.412C62.2286 82.3167 62.1772 82.1883 62.1772 82.027V75.218C62.1772 75.0567 62.2286 74.9283 62.3312 74.833C62.4412 74.7377 62.5806 74.69 62.7492 74.69C62.9106 74.69 63.0389 74.7377 63.1342 74.833C63.2369 74.921 63.2882 75.042 63.2882 75.196V77.946C63.4716 77.638 63.7172 77.4033 64.0252 77.242C64.3332 77.0807 64.6852 77 65.0812 77ZM71.1441 81.708C71.3055 81.7227 71.4191 81.7667 71.4851 81.84C71.5585 81.906 71.5951 82.0013 71.5951 82.126C71.5951 82.2727 71.5365 82.3863 71.4191 82.467C71.3091 82.5403 71.1441 82.5697 70.9241 82.555L70.6271 82.533C70.0331 82.489 69.5895 82.3093 69.2961 81.994C69.0028 81.6713 68.8561 81.1983 68.8561 80.575V77.99H68.1961C67.8735 77.99 67.7121 77.847 67.7121 77.561C67.7121 77.429 67.7525 77.3263 67.8331 77.253C67.9211 77.1723 68.0421 77.132 68.1961 77.132H68.8561V75.999C68.8561 75.8303 68.9038 75.6983 68.9991 75.603C69.1018 75.5077 69.2375 75.46 69.4061 75.46C69.5748 75.46 69.7105 75.5077 69.8131 75.603C69.9158 75.6983 69.9671 75.8303 69.9671 75.999V77.132H71.0561C71.2101 77.132 71.3275 77.1723 71.4081 77.253C71.4961 77.3263 71.5401 77.429 71.5401 77.561C71.5401 77.7003 71.4961 77.8067 71.4081 77.88C71.3275 77.9533 71.2101 77.99 71.0561 77.99H69.9671V80.652C69.9671 80.9967 70.0368 81.2497 70.1761 81.411C70.3228 81.5723 70.5428 81.664 70.8361 81.686L71.1441 81.708ZM75.8324 78.441C75.6344 78.441 75.4658 78.375 75.3264 78.243C75.1944 78.111 75.1284 77.9423 75.1284 77.737C75.1284 77.5317 75.1944 77.363 75.3264 77.231C75.4658 77.0917 75.6344 77.022 75.8324 77.022C76.0304 77.022 76.1954 77.0917 76.3274 77.231C76.4594 77.363 76.5254 77.5317 76.5254 77.737C76.5254 77.9423 76.4594 78.111 76.3274 78.243C76.1954 78.375 76.0304 78.441 75.8324 78.441ZM75.8324 82.555C75.6344 82.555 75.4658 82.489 75.3264 82.357C75.1944 82.225 75.1284 82.0563 75.1284 81.851C75.1284 81.6457 75.1944 81.477 75.3264 81.345C75.4658 81.2057 75.6344 81.136 75.8324 81.136C76.0304 81.136 76.1954 81.2057 76.3274 81.345C76.4594 81.477 76.5254 81.6457 76.5254 81.851C76.5254 82.0563 76.4594 82.225 76.3274 82.357C76.1954 82.489 76.0304 82.555 75.8324 82.555ZM48.736 90.031C48.78 89.9137 48.846 89.8257 48.934 89.767C49.022 89.7083 49.121 89.679 49.231 89.679C49.3703 89.679 49.4913 89.7267 49.594 89.822C49.704 89.91 49.759 90.0273 49.759 90.174C49.759 90.2547 49.7443 90.328 49.715 90.394L47.284 97.192C47.2327 97.3167 47.152 97.412 47.042 97.478C46.932 97.544 46.811 97.577 46.679 97.577C46.5543 97.577 46.437 97.544 46.327 97.478C46.217 97.412 46.14 97.3167 46.096 97.192L44.094 91.516L42.048 97.192C42.004 97.3167 41.927 97.412 41.817 97.478C41.707 97.544 41.5897 97.577 41.465 97.577C41.333 97.577 41.212 97.544 41.102 97.478C40.9993 97.412 40.9223 97.3167 40.871 97.192L38.44 90.394C38.4107 90.328 38.396 90.2547 38.396 90.174C38.396 90.0273 38.451 89.91 38.561 89.822C38.671 89.7267 38.803 89.679 38.957 89.679C39.067 89.679 39.166 89.7083 39.254 89.767C39.3493 89.8257 39.419 89.9137 39.463 90.031L41.498 95.883L43.566 90.086C43.61 89.9613 43.6797 89.866 43.775 89.8C43.8777 89.734 43.9877 89.701 44.105 89.701C44.2223 89.701 44.3287 89.7377 44.424 89.811C44.5193 89.877 44.5927 89.9723 44.644 90.097L46.668 95.938L48.736 90.031ZM54.5091 96.147C54.6118 96.147 54.6961 96.1873 54.7621 96.268C54.8281 96.3487 54.8611 96.4513 54.8611 96.576C54.8611 96.7887 54.7291 96.9683 54.4651 97.115C54.2084 97.2617 53.9261 97.3753 53.6181 97.456C53.3174 97.5367 53.0278 97.577 52.7491 97.577C51.8984 97.577 51.2274 97.3313 50.7361 96.84C50.2448 96.3413 49.9991 95.663 49.9991 94.805C49.9991 94.255 50.1054 93.7673 50.3181 93.342C50.5381 92.9167 50.8424 92.5867 51.2311 92.352C51.6271 92.1173 52.0744 92 52.5731 92C53.2918 92 53.8601 92.231 54.2781 92.693C54.6961 93.155 54.9051 93.7783 54.9051 94.563C54.9051 94.8563 54.7731 95.003 54.5091 95.003H51.1101C51.1834 96.1397 51.7298 96.708 52.7491 96.708C53.0204 96.708 53.2551 96.6713 53.4531 96.598C53.6511 96.5247 53.8601 96.4293 54.0801 96.312C54.1021 96.2973 54.1608 96.268 54.2561 96.224C54.3588 96.1727 54.4431 96.147 54.5091 96.147ZM52.5951 92.814C52.1698 92.814 51.8288 92.9497 51.5721 93.221C51.3154 93.4923 51.1614 93.8737 51.1101 94.365H53.9481C53.9261 93.8663 53.7978 93.485 53.5631 93.221C53.3358 92.9497 53.0131 92.814 52.5951 92.814ZM56.6904 97.555C56.529 97.555 56.3934 97.511 56.2834 97.423C56.1807 97.335 56.1294 97.203 56.1294 97.027V92.561C56.1294 92.385 56.1807 92.253 56.2834 92.165C56.3934 92.0697 56.529 92.022 56.6904 92.022C56.8517 92.022 56.9837 92.0697 57.0864 92.165C57.189 92.253 57.2404 92.385 57.2404 92.561V97.027C57.2404 97.203 57.189 97.335 57.0864 97.423C56.9837 97.511 56.8517 97.555 56.6904 97.555ZM56.6904 90.944C56.4777 90.944 56.309 90.8853 56.1844 90.768C56.0597 90.6507 55.9974 90.4967 55.9974 90.306C55.9974 90.1153 56.0597 89.965 56.1844 89.855C56.309 89.7377 56.4777 89.679 56.6904 89.679C56.8957 89.679 57.0607 89.7377 57.1854 89.855C57.3174 89.965 57.3834 90.1153 57.3834 90.306C57.3834 90.4967 57.321 90.6507 57.1964 90.768C57.0717 90.8853 56.903 90.944 56.6904 90.944ZM63.2374 92.022C63.4061 92.022 63.5381 92.0733 63.6334 92.176C63.7361 92.2713 63.7874 92.3997 63.7874 92.561V97.071C63.7874 97.8923 63.5674 98.512 63.1274 98.93C62.6948 99.348 62.0531 99.557 61.2024 99.557C60.4104 99.557 59.7504 99.4067 59.2224 99.106C58.9511 98.952 58.8154 98.7687 58.8154 98.556C58.8154 98.4313 58.8484 98.3287 58.9144 98.248C58.9878 98.1673 59.0758 98.127 59.1784 98.127C59.2738 98.127 59.4241 98.182 59.6294 98.292C59.8934 98.4167 60.1391 98.512 60.3664 98.578C60.5938 98.6513 60.8651 98.688 61.1804 98.688C62.1924 98.688 62.6984 98.1783 62.6984 97.159V96.312C62.5444 96.6347 62.3098 96.8877 61.9944 97.071C61.6791 97.247 61.3124 97.335 60.8944 97.335C60.4251 97.335 60.0071 97.225 59.6404 97.005C59.2738 96.785 58.9878 96.4733 58.7824 96.07C58.5844 95.6667 58.4854 95.201 58.4854 94.673C58.4854 94.145 58.5881 93.6793 58.7934 93.276C58.9988 92.8727 59.2811 92.561 59.6404 92.341C60.0071 92.1137 60.4251 92 60.8944 92C61.3051 92 61.6644 92.088 61.9724 92.264C62.2878 92.44 62.5261 92.6893 62.6874 93.012V92.55C62.6874 92.3887 62.7351 92.2603 62.8304 92.165C62.9331 92.0697 63.0688 92.022 63.2374 92.022ZM61.1584 96.455C61.6351 96.455 62.0091 96.2973 62.2804 95.982C62.5518 95.6667 62.6874 95.2303 62.6874 94.673C62.6874 94.123 62.5518 93.6903 62.2804 93.375C62.0164 93.0523 61.6424 92.891 61.1584 92.891C60.6744 92.891 60.2931 93.0487 60.0144 93.364C59.7431 93.6793 59.6074 94.1157 59.6074 94.673C59.6074 95.2303 59.7468 95.6667 60.0254 95.982C60.3041 96.2973 60.6818 96.455 61.1584 96.455ZM68.2394 92C69.5154 92 70.1534 92.7223 70.1534 94.167V97.027C70.1534 97.1883 70.1021 97.3167 69.9994 97.412C69.8968 97.5073 69.7611 97.555 69.5924 97.555C69.4238 97.555 69.2881 97.5073 69.1854 97.412C69.0901 97.3167 69.0424 97.1883 69.0424 97.027V94.178C69.0424 93.738 68.9508 93.4153 68.7674 93.21C68.5914 93.0047 68.3128 92.902 67.9314 92.902C67.4841 92.902 67.1248 93.0413 66.8534 93.32C66.5821 93.5987 66.4464 93.9727 66.4464 94.442V97.027C66.4464 97.1883 66.3951 97.3167 66.2924 97.412C66.1971 97.5073 66.0651 97.555 65.8964 97.555C65.7278 97.555 65.5921 97.5073 65.4894 97.412C65.3868 97.3167 65.3354 97.1883 65.3354 97.027V90.218C65.3354 90.0567 65.3868 89.9283 65.4894 89.833C65.5994 89.7377 65.7388 89.69 65.9074 89.69C66.0688 89.69 66.1971 89.7377 66.2924 89.833C66.3951 89.921 66.4464 90.042 66.4464 90.196V92.946C66.6298 92.638 66.8754 92.4033 67.1834 92.242C67.4914 92.0807 67.8434 92 68.2394 92ZM74.3023 96.708C74.4637 96.7227 74.5773 96.7667 74.6433 96.84C74.7167 96.906 74.7533 97.0013 74.7533 97.126C74.7533 97.2727 74.6947 97.3863 74.5773 97.467C74.4673 97.5403 74.3023 97.5697 74.0823 97.555L73.7853 97.533C73.1913 97.489 72.7477 97.3093 72.4543 96.994C72.161 96.6713 72.0143 96.1983 72.0143 95.575V92.99H71.3543C71.0317 92.99 70.8703 92.847 70.8703 92.561C70.8703 92.429 70.9107 92.3263 70.9913 92.253C71.0793 92.1723 71.2003 92.132 71.3543 92.132H72.0143V90.999C72.0143 90.8303 72.062 90.6983 72.1573 90.603C72.26 90.5077 72.3957 90.46 72.5643 90.46C72.733 90.46 72.8687 90.5077 72.9713 90.603C73.074 90.6983 73.1253 90.8303 73.1253 90.999V92.132H74.2143C74.3683 92.132 74.4857 92.1723 74.5663 92.253C74.6543 92.3263 74.6983 92.429 74.6983 92.561C74.6983 92.7003 74.6543 92.8067 74.5663 92.88C74.4857 92.9533 74.3683 92.99 74.2143 92.99H73.1253V95.652C73.1253 95.9967 73.195 96.2497 73.3343 96.411C73.481 96.5723 73.701 96.664 73.9943 96.686L74.3023 96.708ZM78.9906 93.441C78.7926 93.441 78.624 93.375 78.4846 93.243C78.3526 93.111 78.2866 92.9423 78.2866 92.737C78.2866 92.5317 78.3526 92.363 78.4846 92.231C78.624 92.0917 78.7926 92.022 78.9906 92.022C79.1886 92.022 79.3536 92.0917 79.4856 92.231C79.6176 92.363 79.6836 92.5317 79.6836 92.737C79.6836 92.9423 79.6176 93.111 79.4856 93.243C79.3536 93.375 79.1886 93.441 78.9906 93.441ZM78.9906 97.555C78.7926 97.555 78.624 97.489 78.4846 97.357C78.3526 97.225 78.2866 97.0563 78.2866 96.851C78.2866 96.6457 78.3526 96.477 78.4846 96.345C78.624 96.2057 78.7926 96.136 78.9906 96.136C79.1886 96.136 79.3536 96.2057 79.4856 96.345C79.6176 96.477 79.6836 96.6457 79.6836 96.851C79.6836 97.0563 79.6176 97.225 79.4856 97.357C79.3536 97.489 79.1886 97.555 78.9906 97.555ZM39.463 112.5C39.287 112.5 39.1477 112.452 39.045 112.357C38.9497 112.254 38.902 112.119 38.902 111.95V105.295C38.902 105.126 38.9497 104.994 39.045 104.899C39.1477 104.796 39.287 104.745 39.463 104.745H41.619C42.873 104.745 43.8447 105.082 44.534 105.757C45.2233 106.432 45.568 107.385 45.568 108.617C45.568 109.849 45.2233 110.806 44.534 111.488C43.8447 112.163 42.873 112.5 41.619 112.5H39.463ZM41.553 111.554C43.4597 111.554 44.413 110.575 44.413 108.617C44.413 106.666 43.4597 105.691 41.553 105.691H40.035V111.554H41.553ZM47.538 112.555C47.3767 112.555 47.241 112.511 47.131 112.423C47.0284 112.335 46.977 112.203 46.977 112.027V107.561C46.977 107.385 47.0284 107.253 47.131 107.165C47.241 107.07 47.3767 107.022 47.538 107.022C47.6994 107.022 47.8314 107.07 47.934 107.165C48.0367 107.253 48.088 107.385 48.088 107.561V112.027C48.088 112.203 48.0367 112.335 47.934 112.423C47.8314 112.511 47.6994 112.555 47.538 112.555ZM47.538 105.944C47.3254 105.944 47.1567 105.885 47.032 105.768C46.9074 105.651 46.845 105.497 46.845 105.306C46.845 105.115 46.9074 104.965 47.032 104.855C47.1567 104.738 47.3254 104.679 47.538 104.679C47.7434 104.679 47.9084 104.738 48.033 104.855C48.165 104.965 48.231 105.115 48.231 105.306C48.231 105.497 48.1687 105.651 48.044 105.768C47.9194 105.885 47.7507 105.944 47.538 105.944ZM53.8431 111.147C53.9458 111.147 54.0301 111.187 54.0961 111.268C54.1621 111.349 54.1951 111.451 54.1951 111.576C54.1951 111.789 54.0631 111.968 53.7991 112.115C53.5424 112.262 53.2601 112.375 52.9521 112.456C52.6514 112.537 52.3618 112.577 52.0831 112.577C51.2324 112.577 50.5614 112.331 50.0701 111.84C49.5788 111.341 49.3331 110.663 49.3331 109.805C49.3331 109.255 49.4394 108.767 49.6521 108.342C49.8721 107.917 50.1764 107.587 50.5651 107.352C50.9611 107.117 51.4084 107 51.9071 107C52.6258 107 53.1941 107.231 53.6121 107.693C54.0301 108.155 54.2391 108.778 54.2391 109.563C54.2391 109.856 54.1071 110.003 53.8431 110.003H50.4441C50.5174 111.14 51.0638 111.708 52.0831 111.708C52.3544 111.708 52.5891 111.671 52.7871 111.598C52.9851 111.525 53.1941 111.429 53.4141 111.312C53.4361 111.297 53.4948 111.268 53.5901 111.224C53.6928 111.173 53.7771 111.147 53.8431 111.147ZM51.9291 107.814C51.5038 107.814 51.1628 107.95 50.9061 108.221C50.6494 108.492 50.4954 108.874 50.4441 109.365H53.2821C53.2601 108.866 53.1318 108.485 52.8971 108.221C52.6698 107.95 52.3471 107.814 51.9291 107.814ZM58.0386 111.708C58.2 111.723 58.3136 111.767 58.3796 111.84C58.453 111.906 58.4896 112.001 58.4896 112.126C58.4896 112.273 58.431 112.386 58.3136 112.467C58.2036 112.54 58.0386 112.57 57.8186 112.555L57.5216 112.533C56.9276 112.489 56.484 112.309 56.1906 111.994C55.8973 111.671 55.7506 111.198 55.7506 110.575V107.99H55.0906C54.768 107.99 54.6066 107.847 54.6066 107.561C54.6066 107.429 54.647 107.326 54.7276 107.253C54.8156 107.172 54.9366 107.132 55.0906 107.132H55.7506V105.999C55.7506 105.83 55.7983 105.698 55.8936 105.603C55.9963 105.508 56.132 105.46 56.3006 105.46C56.4693 105.46 56.605 105.508 56.7076 105.603C56.8103 105.698 56.8616 105.83 56.8616 105.999V107.132H57.9506C58.1046 107.132 58.222 107.172 58.3026 107.253C58.3906 107.326 58.4346 107.429 58.4346 107.561C58.4346 107.7 58.3906 107.807 58.3026 107.88C58.222 107.953 58.1046 107.99 57.9506 107.99H56.8616V110.652C56.8616 110.997 56.9313 111.25 57.0706 111.411C57.2173 111.572 57.4373 111.664 57.7306 111.686L58.0386 111.708ZM62.881 112.555C62.7123 112.555 62.5766 112.504 62.474 112.401C62.3713 112.298 62.32 112.159 62.32 111.983V105.295C62.32 105.126 62.3676 104.994 62.463 104.899C62.5656 104.796 62.705 104.745 62.881 104.745H65.532C66.3533 104.745 66.9913 104.947 67.446 105.35C67.9006 105.753 68.128 106.325 68.128 107.066C68.128 107.799 67.9006 108.371 67.446 108.782C66.9913 109.193 66.3533 109.398 65.532 109.398H63.453V111.983C63.453 112.159 63.4016 112.298 63.299 112.401C63.2036 112.504 63.0643 112.555 62.881 112.555ZM65.411 108.485C66.4963 108.485 67.039 108.012 67.039 107.066C67.039 106.127 66.4963 105.658 65.411 105.658H63.453V108.485H65.411ZM69.9248 112.555C69.7634 112.555 69.6278 112.511 69.5178 112.423C69.4151 112.335 69.3638 112.203 69.3638 112.027V105.229C69.3638 105.053 69.4151 104.921 69.5178 104.833C69.6278 104.738 69.7634 104.69 69.9248 104.69C70.0861 104.69 70.2181 104.738 70.3208 104.833C70.4234 104.921 70.4748 105.053 70.4748 105.229V112.027C70.4748 112.203 70.4234 112.335 70.3208 112.423C70.2181 112.511 70.0861 112.555 69.9248 112.555ZM74.2828 107C74.9941 107 75.5221 107.18 75.8668 107.539C76.2188 107.898 76.3948 108.445 76.3948 109.178V112.027C76.3948 112.196 76.3471 112.328 76.2518 112.423C76.1565 112.511 76.0245 112.555 75.8558 112.555C75.6945 112.555 75.5661 112.507 75.4708 112.412C75.3755 112.317 75.3278 112.188 75.3278 112.027V111.62C75.1885 111.928 74.9795 112.166 74.7008 112.335C74.4295 112.496 74.1105 112.577 73.7438 112.577C73.3918 112.577 73.0691 112.507 72.7758 112.368C72.4825 112.221 72.2515 112.02 72.0828 111.763C71.9215 111.506 71.8408 111.22 71.8408 110.905C71.8408 110.516 71.9398 110.212 72.1378 109.992C72.3431 109.765 72.6768 109.603 73.1388 109.508C73.6081 109.413 74.2498 109.365 75.0638 109.365H75.3168V109.046C75.3168 108.635 75.2325 108.338 75.0638 108.155C74.8951 107.972 74.6238 107.88 74.2498 107.88C73.9931 107.88 73.7511 107.913 73.5238 107.979C73.2965 108.045 73.0471 108.14 72.7758 108.265C72.5778 108.375 72.4385 108.43 72.3578 108.43C72.2478 108.43 72.1561 108.39 72.0828 108.309C72.0168 108.228 71.9838 108.126 71.9838 108.001C71.9838 107.891 72.0131 107.796 72.0718 107.715C72.1378 107.627 72.2405 107.543 72.3798 107.462C72.6365 107.323 72.9371 107.213 73.2818 107.132C73.6265 107.044 73.9601 107 74.2828 107ZM73.9418 111.752C74.3451 111.752 74.6751 111.616 74.9318 111.345C75.1885 111.066 75.3168 110.711 75.3168 110.278V109.992H75.1188C74.5468 109.992 74.1068 110.018 73.7988 110.069C73.4908 110.12 73.2708 110.208 73.1388 110.333C73.0068 110.45 72.9408 110.623 72.9408 110.85C72.9408 111.114 73.0361 111.33 73.2268 111.499C73.4175 111.668 73.6558 111.752 73.9418 111.752ZM80.8075 107C82.0909 107 82.7325 107.722 82.7325 109.167V112.027C82.7325 112.196 82.6812 112.328 82.5785 112.423C82.4832 112.511 82.3475 112.555 82.1715 112.555C82.0029 112.555 81.8672 112.507 81.7645 112.412C81.6692 112.317 81.6215 112.188 81.6215 112.027V109.222C81.6215 108.767 81.5299 108.434 81.3465 108.221C81.1705 108.008 80.8919 107.902 80.5105 107.902C80.0632 107.902 79.7039 108.041 79.4325 108.32C79.1612 108.599 79.0255 108.973 79.0255 109.442V112.027C79.0255 112.188 78.9742 112.317 78.8715 112.412C78.7762 112.507 78.6442 112.555 78.4755 112.555C78.3069 112.555 78.1712 112.507 78.0685 112.412C77.9659 112.317 77.9145 112.188 77.9145 112.027V107.55C77.9145 107.396 77.9659 107.271 78.0685 107.176C78.1785 107.073 78.3142 107.022 78.4755 107.022C78.6369 107.022 78.7652 107.07 78.8605 107.165C78.9559 107.26 79.0035 107.385 79.0035 107.539V107.99C79.1795 107.667 79.4252 107.422 79.7405 107.253C80.0559 107.084 80.4115 107 80.8075 107ZM87.6918 108.441C87.4938 108.441 87.3251 108.375 87.1858 108.243C87.0538 108.111 86.9878 107.942 86.9878 107.737C86.9878 107.532 87.0538 107.363 87.1858 107.231C87.3251 107.092 87.4938 107.022 87.6918 107.022C87.8898 107.022 88.0548 107.092 88.1868 107.231C88.3188 107.363 88.3848 107.532 88.3848 107.737C88.3848 107.942 88.3188 108.111 88.1868 108.243C88.0548 108.375 87.8898 108.441 87.6918 108.441ZM87.6918 112.555C87.4938 112.555 87.3251 112.489 87.1858 112.357C87.0538 112.225 86.9878 112.056 86.9878 111.851C86.9878 111.646 87.0538 111.477 87.1858 111.345C87.3251 111.206 87.4938 111.136 87.6918 111.136C87.8898 111.136 88.0548 111.206 88.1868 111.345C88.3188 111.477 88.3848 111.646 88.3848 111.851C88.3848 112.056 88.3188 112.225 88.1868 112.357C88.0548 112.489 87.8898 112.555 87.6918 112.555Z" fill="#B2B9C5"/>
<path d="M130.736 11.031C130.78 10.9137 130.846 10.8257 130.934 10.767C131.022 10.7083 131.121 10.679 131.231 10.679C131.37 10.679 131.491 10.7267 131.594 10.822C131.704 10.91 131.759 11.0273 131.759 11.174C131.759 11.2547 131.744 11.328 131.715 11.394L129.284 18.192C129.233 18.3167 129.152 18.412 129.042 18.478C128.932 18.544 128.811 18.577 128.679 18.577C128.554 18.577 128.437 18.544 128.327 18.478C128.217 18.412 128.14 18.3167 128.096 18.192L126.094 12.516L124.048 18.192C124.004 18.3167 123.927 18.412 123.817 18.478C123.707 18.544 123.59 18.577 123.465 18.577C123.333 18.577 123.212 18.544 123.102 18.478C122.999 18.412 122.922 18.3167 122.871 18.192L120.44 11.394C120.411 11.328 120.396 11.2547 120.396 11.174C120.396 11.0273 120.451 10.91 120.561 10.822C120.671 10.7267 120.803 10.679 120.957 10.679C121.067 10.679 121.166 10.7083 121.254 10.767C121.349 10.8257 121.419 10.9137 121.463 11.031L123.498 16.883L125.566 11.086C125.61 10.9613 125.68 10.866 125.775 10.8C125.878 10.734 125.988 10.701 126.105 10.701C126.222 10.701 126.329 10.7377 126.424 10.811C126.519 10.877 126.593 10.9723 126.644 11.097L128.668 16.938L130.736 11.031ZM136.509 17.147C136.612 17.147 136.696 17.1873 136.762 17.268C136.828 17.3487 136.861 17.4513 136.861 17.576C136.861 17.7887 136.729 17.9683 136.465 18.115C136.208 18.2617 135.926 18.3753 135.618 18.456C135.317 18.5367 135.028 18.577 134.749 18.577C133.898 18.577 133.227 18.3313 132.736 17.84C132.245 17.3413 131.999 16.663 131.999 15.805C131.999 15.255 132.105 14.7673 132.318 14.342C132.538 13.9167 132.842 13.5867 133.231 13.352C133.627 13.1173 134.074 13 134.573 13C135.292 13 135.86 13.231 136.278 13.693C136.696 14.155 136.905 14.7783 136.905 15.563C136.905 15.8563 136.773 16.003 136.509 16.003H133.11C133.183 17.1397 133.73 17.708 134.749 17.708C135.02 17.708 135.255 17.6713 135.453 17.598C135.651 17.5247 135.86 17.4293 136.08 17.312C136.102 17.2973 136.161 17.268 136.256 17.224C136.359 17.1727 136.443 17.147 136.509 17.147ZM134.595 13.814C134.17 13.814 133.829 13.9497 133.572 14.221C133.315 14.4923 133.161 14.8737 133.11 15.365H135.948C135.926 14.8663 135.798 14.485 135.563 14.221C135.336 13.9497 135.013 13.814 134.595 13.814ZM138.69 18.555C138.529 18.555 138.393 18.511 138.283 18.423C138.181 18.335 138.129 18.203 138.129 18.027V11.229C138.129 11.053 138.181 10.921 138.283 10.833C138.393 10.7377 138.529 10.69 138.69 10.69C138.852 10.69 138.984 10.7377 139.086 10.833C139.189 10.921 139.24 11.053 139.24 11.229V18.027C139.24 18.203 139.189 18.335 139.086 18.423C138.984 18.511 138.852 18.555 138.69 18.555ZM143.092 18.577C142.572 18.577 142.113 18.4633 141.717 18.236C141.329 18.0087 141.024 17.686 140.804 17.268C140.592 16.85 140.485 16.366 140.485 15.816C140.485 15.2587 140.595 14.7673 140.815 14.342C141.043 13.9167 141.358 13.5867 141.761 13.352C142.165 13.1173 142.627 13 143.147 13C143.426 13 143.705 13.0403 143.983 13.121C144.269 13.2017 144.522 13.3117 144.742 13.451C144.977 13.6123 145.094 13.7993 145.094 14.012C145.094 14.1367 145.061 14.243 144.995 14.331C144.929 14.4117 144.845 14.452 144.742 14.452C144.676 14.452 144.61 14.4373 144.544 14.408C144.478 14.3713 144.394 14.32 144.291 14.254C144.108 14.1367 143.936 14.0487 143.774 13.99C143.62 13.924 143.433 13.891 143.213 13.891C142.715 13.891 142.326 14.0597 142.047 14.397C141.776 14.7343 141.64 15.2037 141.64 15.805C141.64 16.4063 141.776 16.872 142.047 17.202C142.319 17.5247 142.704 17.686 143.202 17.686C143.422 17.686 143.617 17.653 143.785 17.587C143.954 17.521 144.126 17.433 144.302 17.323C144.383 17.2717 144.464 17.2277 144.544 17.191C144.625 17.1543 144.698 17.136 144.764 17.136C144.867 17.136 144.951 17.18 145.017 17.268C145.083 17.3487 145.116 17.4513 145.116 17.576C145.116 17.6787 145.087 17.774 145.028 17.862C144.977 17.9427 144.885 18.027 144.753 18.115C144.533 18.2617 144.277 18.3753 143.983 18.456C143.69 18.5367 143.393 18.577 143.092 18.577ZM148.443 18.577C147.915 18.577 147.449 18.4633 147.046 18.236C146.65 18.0087 146.342 17.686 146.122 17.268C145.909 16.8427 145.803 16.3513 145.803 15.794C145.803 15.2293 145.909 14.738 146.122 14.32C146.342 13.8947 146.65 13.5683 147.046 13.341C147.449 13.1137 147.915 13 148.443 13C148.971 13 149.433 13.1137 149.829 13.341C150.232 13.5683 150.54 13.8947 150.753 14.32C150.973 14.738 151.083 15.2293 151.083 15.794C151.083 16.3513 150.973 16.8427 150.753 17.268C150.54 17.686 150.232 18.0087 149.829 18.236C149.433 18.4633 148.971 18.577 148.443 18.577ZM148.443 17.697C148.934 17.697 149.308 17.5357 149.565 17.213C149.829 16.8903 149.961 16.4173 149.961 15.794C149.961 15.178 149.829 14.7087 149.565 14.386C149.301 14.056 148.927 13.891 148.443 13.891C147.959 13.891 147.585 14.056 147.321 14.386C147.057 14.7087 146.925 15.178 146.925 15.794C146.925 16.4173 147.053 16.8903 147.31 17.213C147.574 17.5357 147.951 17.697 148.443 17.697ZM158.48 13C159.682 13 160.284 13.7223 160.284 15.167V18.027C160.284 18.1957 160.232 18.3277 160.13 18.423C160.027 18.511 159.891 18.555 159.723 18.555C159.561 18.555 159.429 18.511 159.327 18.423C159.224 18.3277 159.173 18.1957 159.173 18.027V15.178C159.173 14.7307 159.092 14.408 158.931 14.21C158.769 14.0047 158.516 13.902 158.172 13.902C157.768 13.902 157.449 14.0413 157.215 14.32C156.98 14.5913 156.863 14.9653 156.863 15.442V18.027C156.863 18.1957 156.811 18.3277 156.709 18.423C156.606 18.511 156.47 18.555 156.302 18.555C156.14 18.555 156.008 18.511 155.906 18.423C155.803 18.3277 155.752 18.1957 155.752 18.027V15.178C155.752 14.7307 155.671 14.408 155.51 14.21C155.348 14.0047 155.095 13.902 154.751 13.902C154.347 13.902 154.025 14.0413 153.783 14.32C153.548 14.5913 153.431 14.9653 153.431 15.442V18.027C153.431 18.1957 153.379 18.3277 153.277 18.423C153.174 18.511 153.042 18.555 152.881 18.555C152.719 18.555 152.584 18.511 152.474 18.423C152.371 18.3277 152.32 18.1957 152.32 18.027V13.55C152.32 13.3887 152.375 13.2603 152.485 13.165C152.595 13.0697 152.727 13.022 152.881 13.022C153.035 13.022 153.159 13.0697 153.255 13.165C153.357 13.253 153.409 13.3777 153.409 13.539V13.946C153.57 13.638 153.794 13.4033 154.08 13.242C154.366 13.0807 154.696 13 155.07 13C155.48 13 155.818 13.0843 156.082 13.253C156.353 13.4217 156.555 13.682 156.687 14.034C156.848 13.7187 157.086 13.4693 157.402 13.286C157.717 13.0953 158.076 13 158.48 13ZM166.007 17.147C166.11 17.147 166.194 17.1873 166.26 17.268C166.326 17.3487 166.359 17.4513 166.359 17.576C166.359 17.7887 166.227 17.9683 165.963 18.115C165.706 18.2617 165.424 18.3753 165.116 18.456C164.815 18.5367 164.526 18.577 164.247 18.577C163.396 18.577 162.725 18.3313 162.234 17.84C161.743 17.3413 161.497 16.663 161.497 15.805C161.497 15.255 161.603 14.7673 161.816 14.342C162.036 13.9167 162.34 13.5867 162.729 13.352C163.125 13.1173 163.572 13 164.071 13C164.79 13 165.358 13.231 165.776 13.693C166.194 14.155 166.403 14.7783 166.403 15.563C166.403 15.8563 166.271 16.003 166.007 16.003H162.608C162.681 17.1397 163.228 17.708 164.247 17.708C164.518 17.708 164.753 17.6713 164.951 17.598C165.149 17.5247 165.358 17.4293 165.578 17.312C165.6 17.2973 165.659 17.268 165.754 17.224C165.857 17.1727 165.941 17.147 166.007 17.147ZM164.093 13.814C163.668 13.814 163.327 13.9497 163.07 14.221C162.813 14.4923 162.659 14.8737 162.608 15.365H165.446C165.424 14.8663 165.296 14.485 165.061 14.221C164.834 13.9497 164.511 13.814 164.093 13.814ZM170.308 18.555C170.088 18.5697 169.919 18.5367 169.802 18.456C169.684 18.3753 169.626 18.2543 169.626 18.093C169.626 17.807 169.783 17.653 170.099 17.631L170.44 17.609C170.784 17.5943 171.041 17.4917 171.21 17.301C171.378 17.103 171.463 16.795 171.463 16.377V11.262C171.463 11.0933 171.514 10.9577 171.617 10.855C171.727 10.745 171.866 10.69 172.035 10.69C172.211 10.69 172.35 10.745 172.453 10.855C172.555 10.9577 172.607 11.0933 172.607 11.262V16.377C172.607 17.0663 172.442 17.5907 172.112 17.95C171.789 18.302 171.301 18.4963 170.649 18.533L170.308 18.555ZM176.609 18.577C176.081 18.577 175.615 18.4633 175.212 18.236C174.816 18.0087 174.508 17.686 174.288 17.268C174.075 16.8427 173.969 16.3513 173.969 15.794C173.969 15.2293 174.075 14.738 174.288 14.32C174.508 13.8947 174.816 13.5683 175.212 13.341C175.615 13.1137 176.081 13 176.609 13C177.137 13 177.599 13.1137 177.995 13.341C178.398 13.5683 178.706 13.8947 178.919 14.32C179.139 14.738 179.249 15.2293 179.249 15.794C179.249 16.3513 179.139 16.8427 178.919 17.268C178.706 17.686 178.398 18.0087 177.995 18.236C177.599 18.4633 177.137 18.577 176.609 18.577ZM176.609 17.697C177.1 17.697 177.474 17.5357 177.731 17.213C177.995 16.8903 178.127 16.4173 178.127 15.794C178.127 15.178 177.995 14.7087 177.731 14.386C177.467 14.056 177.093 13.891 176.609 13.891C176.125 13.891 175.751 14.056 175.487 14.386C175.223 14.7087 175.091 15.178 175.091 15.794C175.091 16.4173 175.219 16.8903 175.476 17.213C175.74 17.5357 176.118 17.697 176.609 17.697ZM183.379 13C184.662 13 185.304 13.7223 185.304 15.167V18.027C185.304 18.1957 185.252 18.3277 185.15 18.423C185.054 18.511 184.919 18.555 184.743 18.555C184.574 18.555 184.438 18.5073 184.336 18.412C184.24 18.3167 184.193 18.1883 184.193 18.027V15.222C184.193 14.7673 184.101 14.4337 183.918 14.221C183.742 14.0083 183.463 13.902 183.082 13.902C182.634 13.902 182.275 14.0413 182.004 14.32C181.732 14.5987 181.597 14.9727 181.597 15.442V18.027C181.597 18.1883 181.545 18.3167 181.443 18.412C181.347 18.5073 181.215 18.555 181.047 18.555C180.878 18.555 180.742 18.5073 180.64 18.412C180.537 18.3167 180.486 18.1883 180.486 18.027V13.55C180.486 13.396 180.537 13.2713 180.64 13.176C180.75 13.0733 180.885 13.022 181.047 13.022C181.208 13.022 181.336 13.0697 181.432 13.165C181.527 13.2603 181.575 13.385 181.575 13.539V13.99C181.751 13.6673 181.996 13.4217 182.312 13.253C182.627 13.0843 182.983 13 183.379 13Z" fill="#B2B9C5"/>
<path d="M196 44V29.5V17.75V1H111.5V29.5H185L196 44Z" stroke="#B8C0CC" stroke-width="1.88" stroke-linecap="round" stroke-linejoin="round"/>
</svg>
