<svg width="106" height="110" viewBox="0 0 106 110" fill="none" xmlns="http://www.w3.org/2000/svg">
<path d="M86.7 93.4683C95.0679 86.4951 101.077 77.1072 103.906 66.5885C106.735 56.0698 106.245 44.9342 102.504 34.7044C98.763 24.4746 91.953 15.6502 83.0054 9.43837C74.0579 3.22653 63.4099 -0.0694495 52.5177 0.00110965C41.6254 0.0716688 31.0209 3.5053 22.1546 9.83253C13.2883 16.1598 6.59304 25.0716 2.98469 35.349C-0.623656 45.6264 -0.968934 56.7675 1.99605 67.2487C4.96103 77.7298 11.0915 87.0392 19.549 93.9033" fill="#F0F4F7"/>
<path d="M29.4729 67.9542C31.8747 65.6138 34.5454 63.5663 37.429 61.8542L69.095 61.7822C74.3317 64.621 78.7044 68.8216 81.751 73.9403C84.7975 79.059 86.4048 84.9056 86.403 90.8623V99.8123L15.0029 99.4263L15.5029 87.7593C15.5029 87.7593 20.4779 76.1412 29.4729 67.9542Z" fill="white"/>
<path d="M53.3271 57.7904C63.7272 57.7904 72.1581 49.3595 72.1581 38.9594C72.1581 28.5593 63.7272 20.1284 53.3271 20.1284C42.927 20.1284 34.4961 28.5593 34.4961 38.9594C34.4961 49.3595 42.927 57.7904 53.3271 57.7904Z" fill="white" stroke="#B8C0CC" stroke-width="1.88" stroke-miterlimit="10" stroke-linecap="round"/>
<path d="M36.5053 86.7425L36.6506 87.0814L36.9876 87.2312C37.3887 87.4094 38.1741 87.8361 38.9309 88.265C39.6883 88.6942 40.3317 89.0768 40.4479 89.1543C40.4416 89.1501 40.4764 89.1729 40.5282 89.2635C40.5651 89.3281 40.6001 89.4092 40.6293 89.501V91.9722C40.6293 92.0994 40.6038 92.1663 40.5899 92.1923C40.58 92.2109 40.5715 92.2201 40.549 92.2314C40.3856 92.3131 39.9789 92.5494 39.5091 92.8225C39.3087 92.9389 39.0969 93.0621 38.8875 93.1827C38.1363 93.6156 37.383 94.0374 36.9876 94.2132L36.6506 94.3629L36.5053 94.7019L35.3053 97.5019L35.152 97.8598L35.2966 98.2213C35.469 98.6525 35.7044 99.5133 35.9207 100.366C36.0081 100.71 36.089 101.04 36.1581 101.321C36.1722 101.378 36.1858 101.433 36.1988 101.486L36.2004 101.493C36.2578 101.726 36.3142 101.955 36.3547 102.095C36.3928 102.32 36.3367 102.376 36.3069 102.405L36.3047 102.407L34.5047 104.207C34.5004 104.212 34.4671 104.239 34.3915 104.257C34.3161 104.275 34.2434 104.272 34.1973 104.26L34.1756 104.255L34.1537 104.25C33.6997 104.16 31.138 103.471 30.2666 103.18L29.9275 103.067L29.5991 103.208L26.7991 104.408L26.4601 104.553L26.3104 104.89C26.1321 105.292 25.7054 106.077 25.2765 106.834C24.8697 107.552 24.5046 108.167 24.4017 108.328C24.2626 108.504 24.1351 108.532 24.0693 108.532H21.5693C21.4421 108.532 21.3752 108.507 21.3492 108.493C21.3306 108.483 21.3214 108.474 21.3101 108.452C21.2284 108.288 20.9921 107.882 20.719 107.412C20.6026 107.212 20.4794 107 20.3588 106.79C19.9259 106.039 19.5041 105.286 19.3283 104.89L19.1786 104.553L18.8396 104.408L16.0396 103.208L15.6817 103.055L15.3202 103.199C14.889 103.372 14.0282 103.607 13.1757 103.824C12.8311 103.911 12.5019 103.992 12.2207 104.061C12.1636 104.075 12.1084 104.089 12.0555 104.102L12.0489 104.103C11.816 104.161 11.5869 104.217 11.4467 104.258C11.2217 104.296 11.1659 104.24 11.1362 104.21L11.134 104.207L9.33402 102.407C9.32974 102.403 9.30214 102.37 9.28435 102.294C9.2666 102.219 9.26976 102.146 9.28127 102.1L9.2867 102.078L9.29108 102.057C9.38188 101.603 10.0706 99.0408 10.3611 98.1694L10.4741 97.8304L10.3333 97.5019L9.13333 94.7019L8.98807 94.3629L8.65111 94.2132C8.24997 94.0349 7.4646 93.6082 6.70777 93.1793C5.98979 92.7725 5.37418 92.4074 5.2131 92.3046C5.03762 92.1654 5.00934 92.038 5.00934 91.9722V89.3722C5.00934 89.3252 5.02213 89.2685 5.0476 89.2175C5.06054 89.1917 5.07282 89.1749 5.08117 89.165C5.27903 89.058 5.63162 88.8531 6.02958 88.6218C6.22993 88.5054 6.44178 88.3823 6.65118 88.2616C7.40241 87.8287 8.15564 87.4069 8.55111 87.2312L8.88807 87.0814L9.03333 86.7425L10.2333 83.9425L10.3867 83.5846L10.2421 83.2231C10.0696 82.7919 9.83428 81.931 9.61796 81.0785C9.53056 80.734 9.44968 80.4049 9.38058 80.1238C9.36651 80.0666 9.35293 80.0113 9.33989 79.9584L9.3383 79.9519C9.28184 79.7226 9.2263 79.497 9.18593 79.3563C9.17885 79.2992 9.1871 79.2603 9.19949 79.2272C9.21712 79.1802 9.25582 79.115 9.33402 79.0368L9.34351 79.0274L9.35273 79.0176L11.0371 77.2341C11.0475 77.2257 11.0812 77.2027 11.1471 77.1872C11.2226 77.1694 11.2953 77.1726 11.3414 77.1841L11.3631 77.1895L11.385 77.1939C11.839 77.2847 14.4007 77.9735 15.2721 78.2639L15.6111 78.3769L15.9396 78.2362L18.7396 77.0362L19.0786 76.8909L19.2283 76.5539C19.4066 76.1528 19.8333 75.3674 20.2622 74.6106C20.669 73.8926 21.0341 73.277 21.1369 73.1159C21.2761 72.9405 21.4036 72.9122 21.4693 72.9122H24.0693C24.115 72.9122 24.1528 72.9239 24.178 72.9383C24.1993 72.9505 24.2153 72.966 24.2286 72.9926C24.3103 73.1559 24.5466 73.5626 24.8197 74.0324C24.9361 74.2328 25.0592 74.4446 25.1799 74.654C25.6128 75.4052 26.0346 76.1585 26.2104 76.5539L26.3601 76.8909L26.6991 77.0362L29.4991 78.2362L29.8569 78.3895L30.2184 78.2449C30.6496 78.0725 31.5105 77.8371 32.363 77.6208C32.7075 77.5334 33.0366 77.4525 33.3178 77.3834C33.375 77.3693 33.4302 77.3558 33.4831 77.3427L33.4896 77.3411C33.7226 77.2838 33.9517 77.2273 34.0919 77.1868C34.317 77.1487 34.3728 77.2048 34.4025 77.2347L34.4047 77.2368L34.4136 77.2458L34.4229 77.2546L36.3072 79.0397C36.3155 79.0499 36.3387 79.0836 36.3543 79.15C36.3721 79.2254 36.3689 79.2982 36.3574 79.3442L36.352 79.3659L36.3476 79.3878C36.2568 79.8418 35.568 82.4035 35.2776 83.2749L35.1646 83.614L35.3053 83.9425L36.5053 86.7425ZM16.0293 90.6722C16.0293 94.3913 19.0502 97.4122 22.7693 97.4122C26.4885 97.4122 29.5093 94.3913 29.5093 90.6722C29.5093 86.953 26.4885 83.9322 22.7693 83.9322C19.0502 83.9322 16.0293 86.953 16.0293 90.6722Z" fill="white" stroke="#30A3C7" stroke-width="1.88"/>
<path d="M86.399 99.8093V90.8593C86.4009 84.9026 84.7936 79.056 81.7471 73.9374C78.7005 68.8187 72.3278 64.618 67.0911 61.7793L53.327 82.8353L39.427 61.8513C37.0907 62.444 30.3338 65.6317 27 70.0838" stroke="#B8C0CC" stroke-width="1.88" stroke-miterlimit="10" stroke-linecap="round" stroke-linejoin="round"/>
<path d="M54.8058 85.5407L49.8833 88.8238C49.2093 89.2734 49.0141 90.1769 49.4423 90.8646L54.1291 98.3908C54.5627 99.087 55.4749 99.3059 56.1772 98.8823L60.5164 96.2648C61.2487 95.8231 61.4641 94.8595 60.9896 94.1481L55.7259 86.256L52.6735 81.7765" stroke="#B8C0CC" stroke-width="1.88"/>
</svg>
