<svg width="46" height="62" viewBox="0 0 46 62" fill="none" xmlns="http://www.w3.org/2000/svg">
<path d="M22.5831 29.7384C22.5831 29.7384 20.4046 37.4657 20.1162 40.6139C19.8279 43.762 21.9691 51.3939 21.9103 53.0157C21.8463 54.6375 20.2497 59.5982 19.0323 60.8384C19.0323 60.8384 21.7502 61.7447 23.6511 59.2643C23.6511 59.2643 24.5908 56.7733 24.9753 55.2469C25.3597 53.7206 23.6137 42.2409 24.1904 41.2499C25.2904 39.3524 26.1316 37.8743 26.7607 36.7537C27.6363 35.194 29.674 34.6808 31.1377 35.7086C33.0612 37.0591 35.3853 38.7691 35.9963 39.5539C37.0322 40.8842 36.4768 53.5616 37.0535 54.5792C37.6302 55.5967 39.7447 58.4587 43.5892 59.0947C43.5892 59.0947 41.1543 56.2327 40.3214 53.6252C39.4884 51.0176 41.6029 41.0697 40.2573 37.9215C38.9117 34.7734 31.4896 26.4949 31.4896 26.4949" fill="white"/>
<path d="M22.5831 29.7384C22.5831 29.7384 20.4046 37.4657 20.1162 40.6139C19.8279 43.762 21.9691 51.3939 21.9103 53.0157C21.8463 54.6375 20.2497 59.5982 19.0323 60.8384C19.0323 60.8384 21.7502 61.7446 23.6511 59.2643C23.6511 59.2643 24.5908 56.7733 24.9753 55.2469C25.3597 53.7206 23.6137 42.2409 24.1904 41.2499C25.2904 39.3524 26.1316 37.8743 26.7607 36.7537C27.6363 35.194 29.674 34.6808 31.1377 35.7086C33.0612 37.0591 35.3853 38.7691 35.9963 39.5539C37.0322 40.8842 36.4768 53.5616 37.0535 54.5792C37.6302 55.5967 39.7447 58.4587 43.5892 59.0947C43.5892 59.0947 41.1543 56.2327 40.3214 53.6252C39.4884 51.0176 41.6029 41.0697 40.2573 37.9215C38.9117 34.7734 31.4896 26.4949 31.4896 26.4949" stroke="#B8C0CC" stroke-width="1.5" stroke-miterlimit="10"/>
<path d="M17.9537 14.5596C20.1376 14.5596 21.9103 12.8159 21.9103 10.6694C21.9103 8.51767 20.1376 6.7793 17.9537 6.7793C15.7697 6.7793 13.997 8.52297 13.997 10.6694C13.997 12.8159 15.7697 14.5596 17.9537 14.5596Z" fill="white" stroke="#B8C0CC" stroke-width="1.5" stroke-miterlimit="10"/>
<path d="M28.0296 11.74C27.1539 12.4077 23.1652 13.6214 21.0453 15.1743C20.0041 15.9375 17.9697 17.1459 15.4708 22.8698C12.9718 28.5937 3.68088 29.7385 3.68088 29.7385C3.68088 29.7385 12.9077 33.2364 19.6357 25.2866C19.6357 25.2866 20.7091 26.1867 22.5831 29.7385C22.5831 29.7385 24.3132 33.2417 28.6062 30.507C28.6062 30.507 31.1853 28.97 31.4843 26.5002L29.1829 16.2767C29.1829 16.2767 34.4691 13.5525 34.373 8.3056C34.2769 3.05868 30.5926 0.737311 26.9403 1.02351C26.9403 1.02351 35.3662 6.14323 28.0296 11.74Z" fill="white" stroke="#B8C0CC" stroke-width="1.5" stroke-miterlimit="10"/>
<path d="M19.6356 25.2865C19.6356 25.2865 19.5021 22.679 16.8056 20.1721L19.6356 25.2865Z" fill="white"/>
<path d="M19.6356 25.2865C19.6356 25.2865 19.5021 22.679 16.8056 20.1721" stroke="#B8C0CC" stroke-width="1.5" stroke-miterlimit="10"/>
<path d="M29.1829 16.2767C29.1829 16.2767 26.9563 15.4553 25.8296 12.8318L29.1829 16.2767Z" fill="white"/>
<path d="M29.1829 16.2767C29.1829 16.2767 26.9563 15.4552 25.8296 12.8318" stroke="#B8C0CC" stroke-width="1.5" stroke-miterlimit="10"/>
<path d="M23.6457 13.8015C23.6457 13.8015 25.5413 17.3366 23.6457 18.5449C21.7501 19.7533 19.924 19.0537 18.4182 17.7447" fill="white"/>
<path d="M23.6457 13.8015C23.6457 13.8015 25.5413 17.3366 23.6457 18.5449C21.7501 19.7533 19.924 19.0537 18.4182 17.7447" stroke="#B8C0CC" stroke-width="1.5" stroke-miterlimit="10"/>
<path d="M11.3325 13.1074C11.2311 13.0491 11.1136 13.0385 11.0015 13.0756L4.01723 15.3334C3.81966 15.397 3.70219 15.5984 3.74491 15.7998L5.21864 22.8222C4.81283 22.6844 4.38032 22.6579 3.95849 22.7427C2.86387 22.9706 2.12166 23.8609 2.30321 24.7301C2.48475 25.5993 3.52598 26.124 4.6206 25.8961C5.71523 25.6682 6.45743 24.7778 6.27589 23.9086L5.02641 17.9621L11.2311 15.9482L12.1975 20.5591C11.7917 20.4213 11.3592 20.3948 10.9374 20.4849C9.84275 20.7128 9.10055 21.6032 9.28209 22.4724C9.46364 23.3415 10.5049 23.8662 11.5995 23.6383C12.6941 23.4104 13.4363 22.5201 13.2548 21.6509L11.5194 13.3724C11.498 13.2611 11.4286 13.1604 11.3325 13.1074Z" fill="#30A3C7"/>
</svg>
