<svg xmlns="http://www.w3.org/2000/svg" width="25.132" height="22" viewBox="0 0 25.132 22">
  <g id="Group_727" data-name="Group 727" transform="translate(-260.625 -251.276)">
    <path id="Path_1000" data-name="Path 1000" d="M283.243,253.478a1.6,1.6,0,0,0-1.541-1.2H264.68a1.6,1.6,0,0,0-1.541,1.2l-1.514,5.836a2.985,2.985,0,0,0,5.853.87,2.968,2.968,0,0,0,5.712,0,2.968,2.968,0,0,0,5.713,0,2.985,2.985,0,0,0,5.853-.87Z" transform="translate(0 0)" fill="none" stroke="#8860d0" stroke-linejoin="round" stroke-width="2"/>
    <line id="Line_284" data-name="Line 284" y1="7.909" x2="0.793" transform="translate(267.476 252.276)" fill="none" stroke="#8860d0" stroke-linejoin="round" stroke-width="2"/>
    <line id="Line_285" data-name="Line 285" x1="0.793" y1="7.909" transform="translate(278.113 252.276)" fill="none" stroke="#8860d0" stroke-linejoin="round" stroke-width="2"/>
    <line id="Line_286" data-name="Line 286" y1="7.909" transform="translate(273.191 252.276)" fill="none" stroke="#8860d0" stroke-linejoin="round" stroke-width="2"/>
    <path id="Path_1002" data-name="Path 1002" d="M284.356,268.307v10.176a.935.935,0,0,1-.928.94H265.055a.935.935,0,0,1-.929-.94V268.307" transform="translate(-1.08 -7.148)" fill="none" stroke="#8860d0" stroke-linejoin="round" stroke-width="2"/>
  </g>
</svg>
