<svg width="106" height="108" viewBox="0 0 106 108" fill="none" xmlns="http://www.w3.org/2000/svg">
<path d="M52.8601 105.72C82.0538 105.72 105.72 82.0538 105.72 52.86C105.72 23.6662 82.0538 0 52.8601 0C23.6663 0 6.10352e-05 23.6662 6.10352e-05 52.86C6.10352e-05 82.0538 23.6663 105.72 52.8601 105.72Z" fill="#F0F4F7"/>
<path d="M86.801 84.686V101.52C86.7973 102.763 86.3018 103.954 85.4227 104.833C84.5435 105.712 83.3521 106.208 82.1089 106.211H47.069C45.8256 106.209 44.6338 105.714 43.7546 104.834C42.8754 103.955 42.3804 102.763 42.378 101.52V31.3199C42.3817 30.0769 42.8771 28.8858 43.756 28.0067C44.6349 27.1276 45.8259 26.6319 47.069 26.6279H82.1089C83.3522 26.6316 84.5435 27.1272 85.4227 28.0063C86.3018 28.8855 86.7973 30.0767 86.801 31.3199V45.7679" fill="white"/>
<path d="M86.801 84.686V101.52C86.7973 102.763 86.3018 103.954 85.4227 104.833C84.5435 105.712 83.3521 106.208 82.1089 106.211H47.069C45.8256 106.209 44.6338 105.714 43.7546 104.834C42.8754 103.955 42.3804 102.763 42.378 101.52V31.3199C42.3817 30.0769 42.8771 28.8858 43.756 28.0067C44.6349 27.1276 45.8259 26.6319 47.069 26.6279H82.1089C83.3522 26.6316 84.5435 27.1272 85.4227 28.0063C86.3018 28.8855 86.7973 30.0767 86.801 31.3199V45.7679" stroke="#B8C0CC" stroke-width="2" stroke-miterlimit="10" stroke-linecap="round"/>
<path d="M63.969 48.9229H19.854C18.655 48.9229 17.683 49.8948 17.683 51.0939V78.3769C17.683 79.5759 18.655 80.5479 19.854 80.5479H63.969C65.1681 80.5479 66.14 79.5759 66.14 78.3769V51.0939C66.14 49.8948 65.1681 48.9229 63.969 48.9229Z" fill="white" stroke="#FE7C5F" stroke-width="2" stroke-miterlimit="10" stroke-linecap="round"/>
<path d="M23.473 73.064H48.966" stroke="#FE7C5F" stroke-width="2" stroke-miterlimit="10" stroke-linecap="round"/>
<path d="M64.649 100.787C66.756 100.787 68.464 99.0792 68.464 96.9722C68.464 94.8653 66.756 93.1572 64.649 93.1572C62.5421 93.1572 60.834 94.8653 60.834 96.9722C60.834 99.0792 62.5421 100.787 64.649 100.787Z" fill="#B8C0CC"/>
<path d="M58.71 32.9839H70.647" stroke="#B8C0CC" stroke-width="2" stroke-miterlimit="10" stroke-linecap="round"/>
<path d="M75.898 53.6958H100.277" stroke="#B8C0CC" stroke-width="2" stroke-linecap="round" stroke-linejoin="round"/>
<path d="M97.593 48.4399L102.849 53.6959L97.593 58.952" stroke="#B8C0CC" stroke-width="2" stroke-linecap="round" stroke-linejoin="round"/>
<path d="M85.086 79.1188C85.4451 79.1188 85.7895 78.9761 86.0434 78.7222C86.2973 78.4682 86.44 78.1239 86.44 77.7648V76.9437C87.611 76.8734 88.711 76.3591 89.5158 75.5056C90.3206 74.6521 90.7696 73.5238 90.7711 72.3507V72.2157C90.7692 70.9963 90.284 69.8274 89.4217 68.9651C88.5594 68.1028 87.3904 67.6176 86.171 67.6157H83.871C83.3922 67.5809 82.9443 67.3662 82.6174 67.0146C82.2905 66.6631 82.1087 66.2008 82.1087 65.7207C82.1087 65.2406 82.2905 64.7784 82.6174 64.4269C82.9443 64.0753 83.3922 63.8605 83.871 63.8257H87.2291C87.4268 63.8259 87.6163 63.9047 87.7562 64.0446C87.896 64.1844 87.9748 64.374 87.975 64.5718V64.6038C87.9724 64.9525 88.1045 65.2887 88.3438 65.5424C88.5831 65.796 88.9112 65.9474 89.2595 65.9651C89.6077 65.9828 89.9493 65.8653 90.2131 65.6372C90.4768 65.4091 90.6423 65.0879 90.675 64.7407V64.7197C90.6949 64.2666 90.6253 63.8141 90.4702 63.3879C90.315 62.9618 90.0774 62.5703 89.7709 62.236C89.4645 61.9016 89.0951 61.631 88.684 61.4395C88.2729 61.2479 87.8282 61.1393 87.3751 61.1198H87.227H86.441V60.3077C86.4459 60.1269 86.4145 59.947 86.3487 59.7784C86.2829 59.6099 86.184 59.4563 86.0578 59.3267C85.9316 59.197 85.7809 59.0939 85.6142 59.0236C85.4475 58.9532 85.2684 58.917 85.0875 58.917C84.9066 58.917 84.7275 58.9532 84.5609 59.0236C84.3942 59.0939 84.2433 59.197 84.1171 59.3267C83.991 59.4563 83.892 59.6099 83.8262 59.7784C83.7604 59.947 83.729 60.1269 83.734 60.3077V61.1227C83.1299 61.1315 82.5335 61.2594 81.9788 61.4988C81.4241 61.7381 80.9219 62.0844 80.501 62.5178C80.0802 62.9512 79.7488 63.4633 79.5258 64.0248C79.3028 64.5863 79.1926 65.1862 79.2015 65.7903C79.2103 66.3944 79.3381 66.9907 79.5775 67.5454C79.8168 68.1001 80.1631 68.6023 80.5965 69.0232C81.0299 69.4441 81.5421 69.7754 82.1036 69.9984C82.6651 70.2214 83.2649 70.3316 83.869 70.3228H86.169C86.4185 70.3228 86.6655 70.3719 86.8961 70.4674C87.1266 70.5629 87.3361 70.7028 87.5125 70.8793C87.689 71.0557 87.8289 71.2651 87.9244 71.4956C88.0199 71.7261 88.069 71.9733 88.069 72.2228V72.3588C88.0674 72.8616 87.8666 73.3433 87.5104 73.6984C87.1543 74.0534 86.6719 74.2527 86.169 74.2527H82.757C82.6591 74.2528 82.5621 74.2337 82.4716 74.1963C82.3811 74.1589 82.2988 74.1041 82.2296 74.0349C82.1603 73.9657 82.1053 73.8835 82.0678 73.7931C82.0303 73.7026 82.0111 73.6056 82.0111 73.5077V73.4948V73.3547C82.0105 73.0003 81.871 72.6602 81.6225 72.4075C81.374 72.1547 81.0364 72.0095 80.6821 72.0029C80.3277 71.9964 79.9849 72.129 79.7272 72.3724C79.4696 72.6158 79.3176 72.9505 79.304 73.3047V73.4457C79.2957 73.899 79.3767 74.3495 79.5425 74.7715C79.7084 75.1934 79.9557 75.5786 80.2705 75.9049C80.5852 76.2312 80.9611 76.4924 81.3768 76.6733C81.7925 76.8543 82.2398 76.9516 82.6931 76.9597H83.731V77.7717C83.7313 78.1307 83.8741 78.4748 84.128 78.7285C84.3819 78.9822 84.7261 79.1248 85.085 79.1248L85.086 79.1188Z" fill="#B8C0CC"/>
<path opacity="0.8" d="M27.211 63.5468C29.2754 63.5468 30.949 61.8732 30.949 59.8088C30.949 57.7444 29.2754 56.0708 27.211 56.0708C25.1465 56.0708 23.473 57.7444 23.473 59.8088C23.473 61.8732 25.1465 63.5468 27.211 63.5468Z" fill="#FE7C5F"/>
<path opacity="0.5" d="M33.1701 63.5468C35.2345 63.5468 36.9081 61.8732 36.9081 59.8088C36.9081 57.7444 35.2345 56.0708 33.1701 56.0708C31.1056 56.0708 29.4321 57.7444 29.4321 59.8088C29.4321 61.8732 31.1056 63.5468 33.1701 63.5468Z" fill="#FE7C5F"/>
</svg>
