<svg width="86" height="75" viewBox="0 0 86 75" fill="none" xmlns="http://www.w3.org/2000/svg">
<path d="M15.6549 1H68.9451L84.125 17.9632L43.5922 73L2 19.1495L15.6549 1Z" stroke="#B8C0CC" stroke-width="2" stroke-miterlimit="10"/>
<path d="M24.5001 28.625C24.5001 26.4159 26.2909 24.625 28.5001 24.625H32.3751V35.875H28.5001C26.2909 35.875 24.5001 34.0841 24.5001 31.875V28.625Z" stroke="#FE7C5F" stroke-width="2"/>
<path d="M61.625 28.625C61.625 26.4159 59.8341 24.625 57.625 24.625H53.75V35.875H57.625C59.8341 35.875 61.625 34.0841 61.625 31.875V28.625Z" stroke="#FE7C5F" stroke-width="2"/>
<path d="M56 24.625V18.75C56 12.6749 51.0752 7.75 45 7.75H41.125C35.0499 7.75 30.125 12.6749 30.125 18.75V24.625" stroke="#FE7C5F" stroke-width="2"/>
<path d="M56.0001 35.875V39C56.0001 42.866 52.8661 46 49.0001 46H48.1251" stroke="#FE7C5F" stroke-width="2"/>
<rect x="40.25" y="43.75" width="7.875" height="4.5" rx="2.25" stroke="#FE7C5F" stroke-width="2"/>
</svg>
