<svg width="530" height="368" viewBox="0 0 530 368" fill="none" xmlns="http://www.w3.org/2000/svg">
<path opacity="0.12" d="M62.1977 335.995C62.1977 335.995 0.85791 300.18 0.85791 193.364C0.85791 128.658 68.4676 67.4892 122.581 81.9035C173.126 95.3708 205.922 95.3708 247.014 75.3802C288.202 55.2844 314.729 0.468018 361.704 0.468018C417.458 0.468018 427.159 62.6724 467.376 93.4604C507.593 124.248 530 163.833 530 209.701C530 255.569 500.992 311.48 431.927 335.784" fill="#B8C0CC"/>
<path d="M13.4354 333.773L522.273 333.773" stroke="#B8C0CC" stroke-width="1.88" stroke-linecap="round"/>
<path d="M342 148.883C342 111.372 372.408 80.9641 409.919 80.9641C447.429 80.9641 477.838 111.372 477.838 148.883V333.685H342V148.883Z" fill="white" stroke="#B8C0CC" stroke-width="1.88"/>
<path fill-rule="evenodd" clip-rule="evenodd" d="M409.919 80.9641C372.408 80.9641 342 111.372 342 148.883V333.685H364.113V148.883C364.113 115.137 388.724 87.1392 420.977 81.8598C417.378 81.2705 413.684 80.9641 409.919 80.9641Z" fill="#E9E9E9"/>
<path d="M342 333.685H341.06V334.625H342V333.685ZM364.113 333.685V334.625H365.053V333.685H364.113ZM420.977 81.8598L421.129 82.7875L421.129 80.9322L420.977 81.8598ZM342.94 148.883C342.94 111.891 372.927 81.9041 409.919 81.9041V80.0241C371.889 80.0241 341.06 110.853 341.06 148.883H342.94ZM342.94 333.685V148.883H341.06V333.685H342.94ZM364.113 332.745H342V334.625H364.113V332.745ZM365.053 333.685V148.883H363.173V333.685H365.053ZM365.053 148.883C365.053 115.605 389.323 87.9937 421.129 82.7875L420.825 80.9322C388.125 86.2847 363.173 114.669 363.173 148.883H365.053ZM409.919 81.9041C413.633 81.9041 417.276 82.2064 420.825 82.7875L421.129 80.9322C417.48 80.3347 413.735 80.0241 409.919 80.0241V81.9041Z" fill="#B8C0CC"/>
<path d="M314.692 268.37H247C245.895 268.37 245 269.266 245 270.37V331.774C245 332.878 245.895 333.774 247 333.774H314.692C315.797 333.774 316.692 332.878 316.692 331.774V270.37C316.692 269.266 315.797 268.37 314.692 268.37Z" fill="#E9E9E9" stroke="#B8C0CC" stroke-width="1.88" stroke-miterlimit="10" stroke-linecap="round" stroke-linejoin="round"/>
<path d="M293.438 253.851H283.99V268.37H293.438V253.851Z" fill="white" stroke="#B8C0CC" stroke-width="1.88" stroke-miterlimit="10" stroke-linecap="round" stroke-linejoin="round"/>
<path d="M291.958 249.504H285.469V253.851H291.958V249.504Z" fill="white" stroke="#B8C0CC" stroke-width="1.88" stroke-miterlimit="10" stroke-linecap="round" stroke-linejoin="round"/>
<path d="M263.34 245.769C262.666 239.128 262.208 225.949 268.361 219.795" stroke="#D0D5DE" stroke-width="1.88" stroke-miterlimit="10" stroke-linecap="round" stroke-linejoin="round"/>
<path d="M279.4 210.823C275.566 210.396 267.679 211.815 267.541 220.308C271.08 221.373 278.553 220.85 279.4 210.823Z" fill="#D0D5DE"/>
<path d="M277.306 226.874C274.289 225.141 267.256 223.475 264.083 230.449C266.627 232.604 272.996 234.862 277.306 226.874Z" fill="#D0D5DE"/>
<path d="M256.766 216.854C255.812 220.075 255.815 227.051 263.073 228.475C264.53 225.606 265.229 219.12 256.766 216.854Z" fill="#D0D5DE"/>
<path fill-rule="evenodd" clip-rule="evenodd" d="M270.244 245.982C270.244 245.982 270.244 245.982 270.244 245.982L273.521 241.612C274.015 240.953 273.545 240.012 272.721 240.012L253.835 240.012C253.011 240.012 252.541 240.953 253.035 241.612L256.313 245.982C256.313 245.982 256.313 245.982 256.313 245.982C256.313 245.982 256.314 245.982 256.313 245.983L252.542 267.195C252.433 267.808 252.905 268.37 253.527 268.37H273.031C273.653 268.37 274.124 267.808 274.015 267.195L270.244 245.982C270.244 245.982 270.244 245.982 270.244 245.982Z" fill="white"/>
<path d="M270.244 245.982L269.319 246.147L270.244 245.982ZM252.542 267.195L251.617 267.031L252.542 267.195ZM256.313 245.983L257.239 246.147L256.313 245.983ZM256.313 245.982L257.065 245.418L256.313 245.982ZM270.244 245.982L270.996 246.546L270.244 245.982ZM273.521 241.612L274.273 242.176L273.521 241.612ZM272.769 241.048L269.492 245.418L270.996 246.546L274.273 242.176L272.769 241.048ZM253.835 240.952L272.721 240.952V239.072L253.835 239.072L253.835 240.952ZM257.065 245.418L253.787 241.048L252.283 242.176L255.561 246.546L257.065 245.418ZM253.468 267.36L257.239 246.147L255.388 245.818L251.617 267.031L253.468 267.36ZM273.031 267.43H253.527V269.31H273.031V267.43ZM269.319 246.147L273.09 267.36L274.941 267.031L271.17 245.818L269.319 246.147ZM271.17 245.818C271.09 245.369 270.699 245.042 270.243 245.042L270.245 246.922C269.789 246.923 269.398 246.596 269.319 246.147L271.17 245.818ZM273.031 269.31C274.238 269.31 275.152 268.219 274.941 267.031L273.09 267.36C273.096 267.397 273.068 267.43 273.031 267.43V269.31ZM251.617 267.031C251.406 268.219 252.32 269.31 253.527 269.31V267.43C253.49 267.43 253.461 267.397 253.468 267.36L251.617 267.031ZM256.315 246.922C255.73 246.924 255.285 246.395 255.388 245.818L257.239 246.147C257.342 245.57 256.897 245.041 256.311 245.042L256.315 246.922ZM255.561 246.546C255.739 246.783 256.019 246.923 256.315 246.922L256.311 245.042C256.607 245.041 256.887 245.181 257.065 245.418L255.561 246.546ZM253.835 239.072C252.237 239.072 251.324 240.897 252.283 242.176L253.787 241.048C253.78 241.038 253.777 241.031 253.776 241.028C253.774 241.025 253.774 241.022 253.774 241.019C253.773 241.012 253.774 241 253.782 240.985C253.789 240.971 253.798 240.962 253.804 240.959C253.806 240.957 253.809 240.956 253.812 240.955C253.815 240.954 253.822 240.952 253.835 240.952L253.835 239.072ZM269.492 245.418C269.028 246.035 269.466 246.923 270.245 246.922L270.243 245.042C271.021 245.042 271.459 245.929 270.996 246.546L269.492 245.418ZM274.273 242.176C275.232 240.897 274.32 239.072 272.721 239.072V240.952C272.734 240.952 272.741 240.954 272.744 240.955C272.747 240.956 272.75 240.957 272.753 240.959C272.758 240.962 272.767 240.971 272.775 240.985C272.782 241 272.783 241.012 272.783 241.019C272.783 241.022 272.782 241.025 272.781 241.028C272.78 241.031 272.777 241.038 272.769 241.048L274.273 242.176Z" fill="#B8C0CC"/>
<path d="M77.105 248.246H66.375V333.773H77.105V248.246Z" fill="#F1F2F5" stroke="#B8C0CC" stroke-width="1.88" stroke-miterlimit="10" stroke-linecap="round" stroke-linejoin="round"/>
<path d="M72.5628 333.556L118.841 333.556C124.073 333.556 128.404 329.233 128.404 324.008L128.404 323.468C128.404 318.243 124.073 313.92 118.841 313.92L72.5628 313.92C67.3305 313.92 63.0004 318.243 63.0004 323.468L63.0004 324.008C63.0004 329.323 67.3305 333.556 72.5628 333.556Z" fill="#F1F2F5" stroke="#B8C0CC" stroke-width="1.88" stroke-miterlimit="10" stroke-linecap="round" stroke-linejoin="round"/>
<path d="M73.1036 333.826C67.5235 333.826 62.9999 329.309 62.9999 323.738C62.9999 318.166 67.5235 313.649 73.1036 313.649C78.6837 313.649 83.2073 318.166 83.2073 323.738C83.2073 329.309 78.6837 333.826 73.1036 333.826Z" fill="white" stroke="#B8C0CC" stroke-width="1.88" stroke-miterlimit="10" stroke-linecap="round" stroke-linejoin="round"/>
<path d="M75.5791 330C73.6925 331.258 71.0018 330.093 69.9192 328.742C66.3108 324.148 68.1419 319.684 71.9308 319.144C75.1784 318.693 77.8848 320.405 77.6141 323.557C77.3435 326.71 73.1938 328.782 72.5623 323.828" stroke="#DAE1E5" stroke-width="1.88" stroke-miterlimit="10" stroke-linecap="round"/>
<path d="M94.5625 333.557L174.302 333.557C179.534 333.557 183.864 329.233 183.864 324.008L183.864 323.468C183.864 318.244 179.534 313.92 174.302 313.92L94.5625 313.92C89.3303 313.92 85.0001 318.244 85.0001 323.468L85.0001 324.008C85.0001 329.323 89.3303 333.557 94.5625 333.557Z" fill="#F1F2F5" stroke="#B8C0CC" stroke-width="2" stroke-miterlimit="10" stroke-linecap="round" stroke-linejoin="round"/>
<path d="M95.1036 333.827C89.5235 333.827 84.9999 329.31 84.9999 323.738C84.9999 318.166 89.5235 313.649 95.1036 313.649C100.684 313.649 105.207 318.166 105.207 323.738C105.207 329.31 100.684 333.827 95.1036 333.827Z" fill="white" stroke="#B8C0CC" stroke-width="1.8833" stroke-miterlimit="10" stroke-linecap="round" stroke-linejoin="round"/>
<path d="M97.5789 329.773C95.6923 331.258 93.0015 330.094 91.919 328.742C88.3105 324.148 90.1417 319.684 93.9305 319.144C97.1782 318.694 99.8845 320.405 99.6139 323.558C99.3432 326.71 95.1935 328.782 94.562 323.828" stroke="#DAE1E5" stroke-width="2" stroke-miterlimit="10" stroke-linecap="round"/>
<path d="M346.043 333.179H441.688C447.777 333.179 453.546 329.953 457.386 324.409C457.493 324.252 457.359 324.054 457.146 324.054H359.268C359.067 324.054 358.87 324.114 358.704 324.228L346.063 332.86C345.956 332.933 345.832 333.065 345.935 333.144C345.963 333.166 346.001 333.179 346.043 333.179Z" fill="white" stroke="#B8C0CC" stroke-width="1.88" stroke-miterlimit="10" stroke-linecap="round" stroke-linejoin="round"/>
<path d="M230.139 284.738C230.927 285.315 230.505 286.563 229.528 286.544L131.63 284.593C131.425 284.589 131.225 284.521 131.059 284.4L63.4208 234.856C62.7541 234.365 63.0474 233.154 63.8386 233.154H154.47C157.928 233.154 161.314 234.292 164.239 236.443L230.139 284.738Z" fill="white" stroke="#B8C0CC" stroke-width="1.88" stroke-miterlimit="10" stroke-linecap="round" stroke-linejoin="round"/>
<path d="M456.952 324.054H358.96H358.951L253.627 284.65C253.6 284.639 253.6 284.587 253.636 284.587C253.636 284.587 323.058 284.587 345.334 284.587C349.84 284.587 354.311 285.401 358.605 287.009L456.978 323.814C457.094 323.856 457.067 324.054 456.952 324.054Z" fill="white" stroke="#B8C0CC" stroke-width="1.88" stroke-miterlimit="10" stroke-linecap="round" stroke-linejoin="round"/>
<path d="M358.985 324.054C355.865 331.331 348.71 334.861 342.105 332.386L245.03 299.185L253.077 284.721L358.985 324.054Z" fill="white" stroke="#B8C0CC" stroke-width="1.88" stroke-miterlimit="10" stroke-linecap="round" stroke-linejoin="round"/>
<path d="M131.314 284.587L122.638 299.058C122.576 299.163 122.461 299.184 122.372 299.11L53.1894 242.52C52.345 241.831 52.1761 240.453 52.8072 239.513C57.4561 232.58 65.9006 231.098 72.0695 236.141L131.314 284.587Z" fill="white" stroke="#B8C0CC" stroke-width="1.88" stroke-miterlimit="10" stroke-linecap="round" stroke-linejoin="round"/>
<path d="M132.941 299.236H122.861V333.773H132.941V299.236Z" fill="#F1F2F5" stroke="#B8C0CC" stroke-width="1.88" stroke-miterlimit="10" stroke-linecap="round" stroke-linejoin="round"/>
<path d="M122.71 299.236H245.03L253.457 284.587H131.314L122.639 299.058C122.585 299.142 122.63 299.236 122.71 299.236Z" fill="white" stroke="#B8C0CC" stroke-width="1.88" stroke-miterlimit="10" stroke-linecap="round" stroke-linejoin="round"/>
<path d="M353.574 353.351H348.151V368H353.574V353.351Z" fill="white"/>
<path d="M231.88 299.235H222.223V333.773H231.88V299.235Z" fill="#F1F2F5" stroke="#B8C0CC" stroke-width="1.88" stroke-miterlimit="10" stroke-linecap="round" stroke-linejoin="round"/>
<path d="M437.452 333.806H400.248C388.392 333.806 377.022 329.096 368.638 320.713C360.255 312.329 355.545 300.959 355.545 289.103C355.545 283.272 356.693 277.498 358.925 272.111C361.156 266.724 364.427 261.829 368.55 257.706C372.673 253.583 377.568 250.313 382.955 248.081C388.342 245.85 394.116 244.702 399.946 244.702C411.802 244.702 423.173 249.411 431.556 257.795C439.94 266.178 444.649 277.549 444.649 289.405V326.609C444.649 328.517 443.891 330.348 442.541 331.698C441.192 333.048 439.361 333.806 437.452 333.806Z" fill="white"/>
<path opacity="0.6" d="M400.502 244.771C398.188 244.772 395.878 244.955 393.594 245.317C411.759 244.89 436.445 258.311 436.445 289.117V327.343C436.44 329.006 435.778 330.599 434.603 331.775C433.428 332.951 431.835 333.614 430.173 333.62H438.568C440.232 333.615 441.825 332.952 443.002 331.776C444.178 330.6 444.841 329.007 444.846 327.343V289.114C444.811 277.364 440.128 266.105 431.82 257.797C423.511 249.488 412.252 244.805 400.502 244.771Z" fill="#89EED5"/>
<path d="M381.098 278.434C381.098 276.409 379.437 274.745 377.415 274.745C375.392 274.745 373.731 276.409 373.731 278.434" stroke="#1ABC94" stroke-width="1.8833" stroke-miterlimit="10" stroke-linecap="round" stroke-linejoin="round"/>
<path d="M437.452 333.806H400.248C388.392 333.806 377.022 329.096 368.638 320.713C360.255 312.329 355.545 300.959 355.545 289.103V289.103C355.545 283.272 356.693 277.498 358.925 272.111C361.156 266.724 364.427 261.829 368.55 257.706C372.673 253.583 377.568 250.313 382.955 248.081C388.342 245.85 394.116 244.702 399.946 244.702V244.702C411.802 244.702 423.173 249.411 431.556 257.795C439.94 266.178 444.649 277.549 444.649 289.405V326.609C444.649 328.517 443.891 330.348 442.541 331.698C441.192 333.048 439.361 333.806 437.452 333.806V333.806Z" stroke="#1ABC94" stroke-width="1.88" stroke-linecap="round" stroke-linejoin="round"/>
<path d="M116.927 168.894L116.927 159.658" stroke="#B8C0CC" stroke-width="1.88" stroke-linecap="round" stroke-linejoin="round"/>
<path d="M114.73 159.945C116.626 157.935 116.31 155.926 115.915 155.172C122.076 161.201 119.707 164.968 116.626 165.219C113.545 165.471 112.36 162.456 114.73 159.945Z" fill="white" stroke="#B8C0CC" stroke-width="1.88" stroke-linejoin="round"/>
<path d="M134.918 178.13H99.5404C100.808 173.351 105.149 169.948 110.184 169.948H123.933C129.042 169.948 133.484 173.319 134.918 178.13Z" fill="white" stroke="#B8C0CC" stroke-width="1.88"/>
<path d="M158.511 176.923H77C80.6716 180.028 94.0574 186.239 118.227 186.239C142.397 186.239 155.154 180.028 158.511 176.923Z" fill="#F1F2F5" stroke="#B8C0CC" stroke-width="1.88" stroke-miterlimit="10" stroke-linecap="round" stroke-linejoin="round"/>
<path d="M150.359 181.58V186.238" stroke="#B8C0CC" stroke-width="1.8833" stroke-miterlimit="10" stroke-linecap="round" stroke-linejoin="round"/>
<path d="M85.1516 181.58V186.238" stroke="#B8C0CC" stroke-width="1.8833" stroke-miterlimit="10" stroke-linecap="round" stroke-linejoin="round"/>
<path d="M381.958 249.503C387.408 254.534 405.855 264.345 438.556 268.37" stroke="#1ABC94" stroke-width="1.88" stroke-linecap="round" stroke-linejoin="round"/>
<path d="M424.664 265.225C424.664 265.225 419.642 258.835 414.632 265.225C414.632 265.225 419.63 271.651 424.664 265.225Z" fill="#1ABC94"/>
<path d="M414.629 275.287C414.629 275.287 421 270.25 414.629 265.225C414.629 265.225 408.222 270.239 414.629 275.287Z" fill="#1ABC94"/>
<path d="M404.597 265.225C404.597 265.225 409.619 271.616 414.63 265.225C414.63 265.225 409.631 258.8 404.597 265.225Z" fill="#1ABC94"/>
<path d="M414.631 255.163C414.631 255.163 408.259 260.2 414.631 265.225C414.631 265.225 421.037 260.224 414.631 255.163Z" fill="#1ABC94"/>
<path d="M421.73 258.117C421.73 258.117 413.669 257.164 414.632 265.237C414.632 265.225 422.693 266.226 421.73 258.117Z" fill="#1ABC94"/>
<path d="M407.53 258.117C407.53 258.117 406.579 266.202 414.629 265.237C414.629 265.225 415.626 257.14 407.53 258.117Z" fill="#1ABC94"/>
<path d="M407.531 272.346C407.531 272.346 415.592 273.299 414.63 265.226C414.63 265.226 406.569 264.225 407.531 272.346Z" fill="#1ABC94"/>
<path d="M421.73 272.345C421.73 272.345 422.68 264.26 414.631 265.225C414.631 265.225 413.633 273.322 421.73 272.345Z" fill="#1ABC94"/>
<path d="M414.572 268.084C416.127 268.084 417.388 266.82 417.388 265.26C417.388 263.7 416.127 262.436 414.572 262.436C413.017 262.436 411.756 263.7 411.756 265.26C411.756 266.82 413.017 268.084 414.572 268.084Z" fill="#1ABC94"/>
</svg>
