<svg width="107" height="62" viewBox="0 0 107 62" fill="none" xmlns="http://www.w3.org/2000/svg">
<path d="M30 29.6294C30 23.8587 34.6781 19.1807 40.4488 19.1807C46.2195 19.1807 50.8976 23.8587 50.8976 29.6294V56.0002H30V29.6294Z" fill="white" stroke="#B8C0CC" stroke-width="1.88"/>
<path d="M30.5256 49.2129H50.2492" stroke="#C4C4C4" stroke-width="1.88"/>
<circle cx="40.5774" cy="9.95609" r="8.95609" fill="#FCFDFF" stroke="#B8C0CC" stroke-width="1.88" stroke-linecap="round" stroke-linejoin="round"/>
<circle cx="89.3608" cy="42.5104" r="7.57041" fill="white" stroke="#B8C0CC" stroke-width="1.88"/>
<path fill-rule="evenodd" clip-rule="evenodd" d="M47.2428 43.0822C46.6078 42.9414 46 43.4239 46 44.0743V55.4547C46 56.007 46.4477 56.4547 47 56.4547H73.5068C74.4602 56.4547 75.3632 56.2386 76.1693 55.8527L86.1694 60.0633C90.4246 59.886 99.8924 59.425 103.722 58.9995C107.552 58.574 105.85 55.8081 103.722 55.8081L88.8289 55.2762L77.5 45.5L77.4997 45.5021C75.8144 43.9838 73.3748 43.2414 70.9923 43.7589C68.0745 44.3928 64.724 44.8956 61.4374 44.8956C56.0523 44.8956 49.8408 43.6579 47.2428 43.0822Z" fill="white"/>
<path d="M47.2428 43.0822L47.4462 42.1644L47.2428 43.0822ZM76.1693 55.8527L76.5341 54.9864L76.1447 54.8224L75.7635 55.0049L76.1693 55.8527ZM86.1694 60.0633L85.8046 60.9296L85.9984 61.0112L86.2085 61.0025L86.1694 60.0633ZM103.722 55.8081L103.689 56.7475L103.705 56.7481H103.722V55.8081ZM88.8289 55.2762L88.2148 55.9878L88.465 56.2038L88.7953 56.2156L88.8289 55.2762ZM77.5 45.5L78.1142 44.7883L76.8078 43.661L76.5691 45.3699L77.5 45.5ZM77.4997 45.5021L76.8706 46.2005L78.1858 47.3853L78.4307 45.6321L77.4997 45.5021ZM70.9923 43.7589L70.7927 42.8404V42.8404L70.9923 43.7589ZM46.94 44.0743C46.94 44.0601 46.9429 44.051 46.9465 44.0437C46.9508 44.0352 46.9581 44.0254 46.969 44.0167C46.9909 43.9993 47.0143 43.9943 47.0394 43.9999L47.4462 42.1644C46.2312 41.8952 45.06 42.8156 45.06 44.0743H46.94ZM46.94 55.4547V44.0743H45.06V55.4547H46.94ZM47 55.5147C46.9669 55.5147 46.94 55.4878 46.94 55.4547H45.06C45.06 56.5261 45.9286 57.3947 47 57.3947V55.5147ZM73.5068 55.5147H47V57.3947H73.5068V55.5147ZM75.7635 55.0049C75.0813 55.3314 74.3168 55.5147 73.5068 55.5147V57.3947C74.6036 57.3947 75.645 57.1458 76.5752 56.7006L75.7635 55.0049ZM75.8046 56.7191L85.8046 60.9296L86.5342 59.1969L76.5341 54.9864L75.8046 56.7191ZM86.2085 61.0025C90.4534 60.8256 99.9571 60.3636 103.826 59.9337L103.618 58.0652C99.8277 58.4864 90.3957 58.9464 86.1303 59.1241L86.2085 61.0025ZM103.826 59.9337C104.873 59.8174 105.717 59.5266 106.275 59.012C106.889 58.445 107.061 57.6891 106.86 56.986C106.676 56.3432 106.209 55.8178 105.68 55.4648C105.139 55.1042 104.454 54.8681 103.722 54.8681V56.7481C104.054 56.7481 104.38 56.8577 104.637 57.029C104.905 57.2079 105.023 57.4006 105.052 57.5024C105.059 57.5244 105.06 57.5386 105.06 57.5456C105.06 57.5521 105.059 57.5547 105.059 57.5554C105.059 57.5559 105.058 57.561 105.051 57.5715C105.044 57.5824 105.029 57.6028 104.999 57.6306C104.865 57.7543 104.486 57.9688 103.618 58.0652L103.826 59.9337ZM103.756 54.8687L88.8624 54.3368L88.7953 56.2156L103.689 56.7475L103.756 54.8687ZM89.443 54.5645L78.1142 44.7883L76.8859 46.2116L88.2148 55.9878L89.443 54.5645ZM76.5691 45.3699L76.5688 45.372L78.4307 45.6321L78.431 45.63L76.5691 45.3699ZM71.1918 44.6775C73.2634 44.2275 75.3981 44.8739 76.8706 46.2005L78.1289 44.8037C76.2308 43.0938 73.4862 42.2553 70.7927 42.8404L71.1918 44.6775ZM61.4374 45.8356C64.8133 45.8356 68.2345 45.3199 71.1918 44.6775L70.7927 42.8404C67.9144 43.4656 64.6346 43.9556 61.4374 43.9556V45.8356ZM47.0394 43.9999C49.647 44.5777 55.9432 45.8356 61.4374 45.8356V43.9556C56.1615 43.9556 50.0346 42.738 47.4462 42.1644L47.0394 43.9999Z" fill="#B8C0CC"/>
<path d="M45.8223 55.7888L45.8223 47.0001L5.39435 47.0001C2.96743 47.0001 1.00002 48.9676 1.00002 51.3945C1.00002 53.8214 2.96743 55.7888 5.39436 55.7888L45.8223 55.7888Z" fill="white" stroke="#B8C0CC" stroke-width="1.88"/>
<path d="M54 37L57 44" stroke="#B8C0CC" stroke-width="1.5" stroke-linecap="round"/>
<path d="M62.6107 40.498L62.8123 43.856" stroke="#B8C0CC" stroke-width="1.5" stroke-linecap="round"/>
<rect x="61" y="32" width="3" height="7" rx="1.5" fill="#1ABC94"/>
<path d="M71 37L68 44" stroke="#B8C0CC" stroke-width="1.5" stroke-linecap="round"/>
<rect x="71.4135" y="31.0002" width="3.47659" height="6.95317" rx="1.73829" transform="rotate(20.3105 71.4135 31.0002)" fill="#1ABC94"/>
<rect x="50" y="32.1743" width="3.47659" height="6.95317" rx="1.73829" transform="rotate(-19.7394 50 32.1743)" fill="#1ABC94"/>
<path d="M61.4946 33.8289L46.3109 21.2702L40.4885 28.7381L58.5 38.5C63.2718 41.6201 65.8095 37.073 61.4946 33.8289Z" fill="white"/>
<path d="M45.7285 20.6529L61.6444 34.3313C66.1677 37.7553 63.0901 41.5815 58.6956 38.6381L40.6741 28.7037" stroke="#B8C0CC" stroke-width="1.88" stroke-linecap="round"/>
</svg>
