<svg width="118" height="113" viewBox="0 0 118 113" fill="none" xmlns="http://www.w3.org/2000/svg">
<path d="M52.9608 105.942C82.2102 105.942 105.922 82.2303 105.922 52.9808C105.922 23.7314 82.2102 0.0200195 52.9608 0.0200195C23.7114 0.0200195 0 23.7314 0 52.9808C0 82.2303 23.7114 105.942 52.9608 105.942Z" fill="#F0F4F7"/>
<path d="M74.9081 105.294H35.2125C33.8312 105.29 32.5076 104.739 31.531 103.762C30.5543 102.786 30.004 101.462 30 100.081V40.7605C30.004 39.3791 30.5543 38.0555 31.531 37.0787C32.5076 36.1019 33.8312 35.5512 35.2125 35.547H104.412C105.794 35.551 107.118 36.1016 108.094 37.0784C109.071 38.0553 109.622 39.379 109.626 40.7605V71.0079" fill="white"/>
<path d="M74.9081 105.294H35.2125C33.8312 105.29 32.5076 104.739 31.531 103.762C30.5543 102.786 30.004 101.462 30 100.081V40.7605C30.004 39.3791 30.5543 38.0555 31.531 37.0787C32.5076 36.1019 33.8312 35.5512 35.2125 35.547H104.412C105.794 35.551 107.118 36.1016 108.094 37.0784C109.071 38.0553 109.622 39.379 109.626 40.7605V71.0079" stroke="#B8C0CC" stroke-width="1.88" stroke-miterlimit="10" stroke-linecap="round"/>
<path d="M49.9069 29.02V42.3623" stroke="#B8C0CC" stroke-width="1.88" stroke-miterlimit="10" stroke-linecap="round"/>
<path d="M89.7207 29.02V42.3623" stroke="#B8C0CC" stroke-width="1.88" stroke-miterlimit="10" stroke-linecap="round"/>
<path d="M109.629 50.5242H30.001" stroke="#B8C0CC" stroke-width="1.88" stroke-miterlimit="10" stroke-linecap="round"/>
<path d="M107.52 94.7338L104.797 92.4961C104.934 91.6116 104.934 90.7118 104.797 89.8273L107.52 87.5896C107.618 87.5096 107.684 87.398 107.706 87.2746C107.728 87.1512 107.705 87.0241 107.641 86.9159L105.161 82.6999C105.098 82.5923 104.998 82.5102 104.878 82.4677C104.759 82.4252 104.629 82.4252 104.51 82.4675L101.179 83.6621C100.461 83.1112 99.6663 82.663 98.8198 82.3306L98.2068 78.8949C98.1849 78.7724 98.1197 78.6614 98.0226 78.5814C97.9255 78.5015 97.8028 78.4578 97.6761 78.4581H92.7171C92.5904 78.4578 92.4677 78.5015 92.3706 78.5814C92.2735 78.6614 92.2083 78.7724 92.1865 78.8949L91.5734 82.3306C90.7272 82.6634 89.9329 83.1117 89.2141 83.6621L85.8837 82.4675C85.7646 82.4245 85.6337 82.4242 85.5144 82.4667C85.3951 82.5093 85.295 82.5919 85.2318 82.6999L82.7523 86.9159C82.6879 87.0241 82.6648 87.1512 82.687 87.2746C82.7092 87.398 82.7753 87.5096 82.8735 87.5896L85.5966 89.8273C85.4595 90.7118 85.4595 91.6116 85.5966 92.4961L82.8735 94.7338C82.7753 94.8138 82.7092 94.9253 82.687 95.0487C82.6648 95.1721 82.6879 95.2992 82.7523 95.4074L85.2318 99.6234C85.2953 99.7311 85.3955 99.8135 85.5147 99.856C85.6339 99.8985 85.7645 99.8984 85.8837 99.8558L89.2141 98.6612C89.9326 99.2121 90.7269 99.6604 91.5734 99.9928L92.1865 103.428C92.2083 103.551 92.2735 103.662 92.3705 103.742C92.4676 103.822 92.5903 103.866 92.7171 103.866H97.6761C97.8029 103.866 97.9257 103.822 98.0227 103.742C98.1198 103.662 98.1849 103.551 98.2068 103.428L98.8198 99.9928C99.6663 99.6604 100.461 99.2121 101.179 98.6612L104.51 99.8558C104.629 99.898 104.759 99.8978 104.878 99.8554C104.997 99.8129 105.098 99.7308 105.161 99.6234L107.641 95.404C107.704 95.2962 107.727 95.1698 107.705 95.0472C107.683 94.9246 107.617 94.8136 107.52 94.7338ZM95.1966 96.1136C94.2 96.1136 93.2257 95.8235 92.3971 95.2799C91.5684 94.7364 90.9226 93.9638 90.5412 93.0598C90.1598 92.1559 90.06 91.1613 90.2544 90.2016C90.4489 89.242 90.9288 88.3605 91.6335 87.6687C92.3382 86.9769 93.2361 86.5057 94.2136 86.3149C95.1911 86.124 96.2042 86.222 97.125 86.5964C98.0458 86.9708 98.8328 87.6048 99.3864 88.4183C99.9401 89.2318 100.236 90.1883 100.236 91.1667C100.234 92.4782 99.7024 93.7354 98.7578 94.6628C97.8132 95.5901 96.5325 96.1119 95.1966 96.1136Z" fill="white"/>
<path d="M91.4644 111.587C97.0604 112.685 103.082 111.513 108.022 107.847C114.971 102.69 117.439 94.8632 116.501 87.3565M99.4951 70.3809C93.9183 69.3051 87.9258 70.4827 83.0053 74.134C75.8317 79.4573 73.8061 87.3564 74.7445 95.3323M99.4392 70.4674L95.175 72.8891M91.2931 111.533L95.6954 109.328M107.52 94.7338L104.797 92.4961C104.934 91.6116 104.934 90.7118 104.797 89.8273L107.52 87.5896C107.618 87.5096 107.684 87.398 107.706 87.2746C107.728 87.1512 107.705 87.0241 107.641 86.9159L105.161 82.6999C105.098 82.5923 104.998 82.5102 104.878 82.4677C104.759 82.4252 104.629 82.4252 104.51 82.4675L101.179 83.6621C100.461 83.1112 99.6663 82.663 98.8198 82.3306L98.2068 78.8949C98.1849 78.7724 98.1197 78.6614 98.0226 78.5814C97.9255 78.5015 97.8028 78.4578 97.6761 78.4581H92.7171C92.5904 78.4578 92.4677 78.5015 92.3706 78.5814C92.2735 78.6614 92.2083 78.7724 92.1865 78.8949L91.5734 82.3306C90.7272 82.6634 89.9329 83.1117 89.2141 83.6621L85.8837 82.4675C85.7646 82.4245 85.6337 82.4242 85.5144 82.4667C85.3951 82.5093 85.295 82.5919 85.2318 82.6999L82.7523 86.9159C82.6879 87.0241 82.6648 87.1512 82.687 87.2746C82.7092 87.398 82.7753 87.5096 82.8735 87.5896L85.5966 89.8273C85.4595 90.7118 85.4595 91.6116 85.5966 92.4961L82.8735 94.7338C82.7753 94.8138 82.7092 94.9253 82.687 95.0487C82.6648 95.1721 82.6879 95.2992 82.7523 95.4074L85.2318 99.6234C85.2953 99.7311 85.3955 99.8135 85.5147 99.856C85.6339 99.8985 85.7645 99.8984 85.8837 99.8558L89.2141 98.6612C89.9326 99.2121 90.7269 99.6604 91.5734 99.9928L92.1865 103.428C92.2083 103.551 92.2735 103.662 92.3705 103.742C92.4676 103.822 92.5903 103.866 92.7171 103.866H97.6761C97.8029 103.866 97.9257 103.822 98.0227 103.742C98.1198 103.662 98.1849 103.551 98.2068 103.428L98.8198 99.9928C99.6663 99.6604 100.461 99.2121 101.179 98.6612L104.51 99.8558C104.629 99.898 104.759 99.8978 104.878 99.8554C104.997 99.8129 105.098 99.7308 105.161 99.6234L107.641 95.404C107.704 95.2962 107.727 95.1698 107.705 95.0472C107.683 94.9246 107.617 94.8136 107.52 94.7338ZM95.1966 96.1136C94.2 96.1136 93.2257 95.8235 92.3971 95.2799C91.5684 94.7364 90.9226 93.9638 90.5412 93.0598C90.1598 92.1559 90.06 91.1613 90.2544 90.2016C90.4489 89.242 90.9288 88.3605 91.6335 87.6687C92.3382 86.9769 93.2361 86.5057 94.2136 86.3149C95.1911 86.124 96.2042 86.222 97.125 86.5964C98.0458 86.9708 98.8328 87.6048 99.3864 88.4183C99.9401 89.2318 100.236 90.1883 100.236 91.1667C100.234 92.4782 99.7024 93.7354 98.7578 94.6628C97.8132 95.5901 96.5325 96.1119 95.1966 96.1136Z" stroke="#1ABC94" stroke-width="1.88" stroke-linecap="round" stroke-linejoin="round"/>
</svg>
