<svg width="124" height="117" viewBox="0 0 124 117" fill="none" xmlns="http://www.w3.org/2000/svg">
<path d="M105.826 52.9321C105.826 42.4671 102.723 32.2371 96.9089 23.5358C91.0948 14.8344 82.8311 8.05249 73.1627 4.0477C63.4942 0.0429111 52.8554 -1.00488 42.5914 1.03675C32.3275 3.07837 22.8995 8.1177 15.4996 15.5176C8.09968 22.9175 3.06029 32.3455 1.01866 42.6095C-1.02296 52.8734 0.0248901 63.5123 4.02968 73.1807C8.03447 82.8491 14.8163 91.1129 23.5177 96.9269C32.219 102.741 42.449 105.844 52.9141 105.844" fill="#F0F4F7"/>
<path d="M69.9717 105.82H29.482C28.0731 105.816 26.7231 105.254 25.7269 104.257C24.7307 103.261 24.1693 101.911 24.1653 100.502V39.9954C24.1693 38.5864 24.7307 37.2363 25.7269 36.2399C26.7231 35.2436 28.0731 34.6819 29.482 34.6776H100.066C101.475 34.6817 102.825 35.2433 103.822 36.2397C104.818 37.2361 105.38 38.5863 105.384 39.9954V70.8478" fill="white"/>
<path d="M69.9717 105.82H29.482C28.0731 105.816 26.7231 105.254 25.7269 104.257C24.7307 103.261 24.1693 101.911 24.1653 100.502V39.9954C24.1693 38.5864 24.7307 37.2363 25.7269 36.2399C26.7231 35.2436 28.0731 34.6819 29.482 34.6776H100.066C101.475 34.6817 102.825 35.2433 103.822 36.2397C104.818 37.2361 105.38 38.5863 105.384 39.9954V70.8478" stroke="#B8C0CC" stroke-width="1.88" stroke-miterlimit="10" stroke-linecap="round"/>
<path d="M109.462 75.1639C108.6 75.1907 107.76 75.4286 107.021 75.855C106.283 76.2814 105.671 76.882 105.245 77.5994C104.72 76.6805 103.89 75.9559 102.886 75.5407C101.881 75.1255 100.761 75.0435 99.7029 75.3077C98.6446 75.572 97.7089 76.1673 97.0445 76.9991C96.38 77.8308 96.025 78.8514 96.0359 79.8985C96.0359 86.6706 105.245 92.2092 105.245 92.2092C105.245 92.2092 114.453 86.6706 114.453 79.8985C114.433 78.6412 113.899 77.4417 112.966 76.5568C112.033 75.6718 110.775 75.1718 109.462 75.1639Z" fill="white" stroke="#1ABC94" stroke-width="1.88" stroke-linecap="round" stroke-linejoin="round"/>
<path d="M87.2617 109.229C88.0901 110.664 87.5985 112.499 86.1636 113.328L83.7118 114.743C83.2335 115.019 82.6219 114.855 82.3458 114.377L73.343 98.7838C73.0669 98.3055 73.2307 97.6939 73.709 97.4178L76.1609 96.0022C77.5958 95.1738 79.4305 95.6654 80.259 97.1003L87.2617 109.229Z" fill="white" stroke="#1ABC94" stroke-width="1.88"/>
<path d="M91.3845 90.8568C87.1096 90.6323 82.5962 93.6295 80.1619 96.6978L87.4648 109.628H109.13C111.078 109.628 112.538 108.467 113.025 107.887C115.865 104.155 121.643 96.5424 122.032 95.9453C122.519 95.199 123.249 93.2087 121.545 91.716C120.182 90.5219 118.543 91.2185 117.894 91.716C115.784 93.7892 111.321 98.1844 110.347 99.1795C109.374 100.175 108.319 100.423 107.913 100.423C108.643 100.34 110.902 99.6255 110.902 97.1858C110.902 94.7461 108.887 94.2039 107.913 94.2039H98.4192C98.1758 94.2039 96.0199 91.1004 91.3845 90.8568Z" fill="white"/>
<path d="M107.913 100.423C108.643 100.34 110.902 99.6255 110.902 97.1858C110.902 94.7461 108.887 94.2039 107.913 94.2039H98.4192C98.1758 94.2039 96.0199 91.1004 91.3845 90.8568C87.1096 90.6323 82.5962 93.6295 80.1619 96.6978L87.4648 109.628C93.8751 109.628 107.183 109.628 109.13 109.628C111.078 109.628 112.538 108.467 113.025 107.887C115.865 104.155 121.643 96.5424 122.032 95.9453C122.519 95.199 123.249 93.2087 121.545 91.716C120.182 90.5219 118.543 91.2185 117.894 91.716C115.784 93.7892 111.321 98.1844 110.347 99.1795C109.374 100.175 108.319 100.423 107.913 100.423ZM107.913 100.423H99.1495" stroke="#1ABC94" stroke-width="1.88" stroke-linecap="round"/>
<path d="M44.4703 28.02V41.6292" stroke="#B8C0CC" stroke-width="1.88" stroke-miterlimit="10" stroke-linecap="round"/>
<path d="M85.0804 28.02V41.6292" stroke="#B8C0CC" stroke-width="1.88" stroke-miterlimit="10" stroke-linecap="round"/>
<path d="M105.387 49.9541H24.1663" stroke="#B8C0CC" stroke-width="1.88" stroke-miterlimit="10" stroke-linecap="round"/>
<path d="M46.89 67.8535C46.89 65.3419 44.8539 63.3058 42.3423 63.3058C39.8306 63.3058 37.7946 65.3419 37.7946 67.8535C37.7946 70.3651 39.8306 72.4012 42.3423 72.4012C44.8539 72.4012 46.89 70.3651 46.89 67.8535Z" stroke="#B8C0CC" stroke-width="1.88" stroke-miterlimit="10" stroke-linecap="round"/>
<path d="M69.3227 67.8535C69.3227 65.3419 67.2866 63.3058 64.775 63.3058C62.2634 63.3058 60.2273 65.3419 60.2273 67.8535C60.2273 70.3651 62.2634 72.4012 64.775 72.4012C67.2866 72.4012 69.3227 70.3651 69.3227 67.8535Z" stroke="#B8C0CC" stroke-width="1.88" stroke-miterlimit="10" stroke-linecap="round"/>
<path d="M91.2634 67.8535C91.2634 65.3419 89.2273 63.3058 86.7157 63.3058C84.2041 63.3058 82.168 65.3419 82.168 67.8535C82.168 70.3651 84.2041 72.4012 86.7157 72.4012C89.2273 72.4012 91.2634 70.3651 91.2634 67.8535Z" stroke="#B8C0CC" stroke-width="1.88" stroke-miterlimit="10" stroke-linecap="round"/>
<path d="M46.89 86.6789C46.89 84.1673 44.8539 82.1312 42.3423 82.1312C39.8306 82.1312 37.7946 84.1673 37.7946 86.6789C37.7946 89.1906 39.8306 91.2267 42.3423 91.2267C44.8539 91.2267 46.89 89.1906 46.89 86.6789Z" stroke="#B8C0CC" stroke-width="1.88" stroke-miterlimit="10" stroke-linecap="round"/>
<path d="M69.3247 86.6789C69.3247 84.1673 67.2886 82.1312 64.777 82.1312C62.2653 82.1312 60.2292 84.1673 60.2292 86.6789C60.2292 89.1906 62.2653 91.2267 64.777 91.2267C67.2886 91.2267 69.3247 89.1906 69.3247 86.6789Z" stroke="#B8C0CC" stroke-width="1.88" stroke-miterlimit="10" stroke-linecap="round"/>
</svg>
