<svg width="54" height="62" viewBox="0 0 54 62" fill="none" xmlns="http://www.w3.org/2000/svg">
<path d="M45.343 37.8991C47.7391 40.2665 49.6259 43.0736 50.8935 46.1568C51.7021 48.6493 53.5518 56.6552 51.6571 59.1746C49.7624 61.694 1.75329 61.694 1.24292 58.6206C0.359686 53.3019 2.09644 48.0953 3.0754 46.1568C4.34302 43.0736 6.22989 40.2665 8.62597 37.8991C11.0221 35.5317 13.8796 33.6512 17.0315 32.3677C20.1835 31.0842 23.5668 30.4233 26.9845 30.4233C30.4021 30.4233 33.7857 31.0842 36.9377 32.3677C40.0896 33.6512 42.9469 35.5317 45.343 37.8991Z" fill="white" stroke="#B8C0CC" stroke-width="1.88" stroke-linecap="round" stroke-linejoin="round"/>
<path d="M23.4737 54.6656C23.4737 54.5317 23.5589 54.4231 23.6639 54.4231H28.8015C28.9066 54.4231 28.9918 54.5317 28.9918 54.6656V55.1505C28.9918 55.8201 29.4178 56.3629 29.9432 56.3629H31.2752C31.3803 56.3629 31.4655 56.4715 31.4655 56.6054V57.8178C31.4655 57.9517 31.3803 58.0602 31.2752 58.0602H29.9432C29.4178 58.0602 28.9918 58.603 28.9918 59.2726V59.7576C28.9918 59.8915 28.9066 60 28.8015 60H23.6639C23.5589 60 23.4737 59.8915 23.4737 59.7576V59.2726C23.4737 58.603 23.0477 58.0602 22.5223 58.0602H21.1903C21.0852 58.0602 21 57.9517 21 57.8178V56.6054C21 56.4715 21.0852 56.3629 21.1903 56.3629H22.5223C23.0477 56.3629 23.4737 55.8201 23.4737 55.1505V54.6656Z" fill="#1ABC94"/>
<path d="M24.8389 46.8577C24.8389 46.7238 24.9241 46.6152 25.0292 46.6152H30.1668C30.2719 46.6152 30.3571 46.7238 30.3571 46.8577V47.3427C30.3571 48.0122 30.783 48.555 31.3085 48.555H32.6404C32.7455 48.555 32.8307 48.6636 32.8307 48.7975V50.0099C32.8307 50.1438 32.7455 50.2524 32.6404 50.2524H31.3085C30.783 50.2524 30.3571 50.7952 30.3571 51.4648V51.9497C30.3571 52.0836 30.2719 52.1922 30.1668 52.1922H25.0292C24.9241 52.1922 24.8389 52.0836 24.8389 51.9497V51.4648C24.8389 50.7952 24.4129 50.2524 23.8875 50.2524H22.5555C22.4504 50.2524 22.3652 50.1438 22.3652 50.0099V48.7975C22.3652 48.6636 22.4504 48.555 22.5555 48.555H23.8875C24.4129 48.555 24.8389 48.0122 24.8389 47.3427V46.8577Z" fill="#1ABC94"/>
<path d="M25.7488 39.0503C25.7488 38.9164 25.834 38.8079 25.9391 38.8079H31.0767C31.1818 38.8079 31.267 38.9164 31.267 39.0503V39.5353C31.267 40.2049 31.6929 40.7477 32.2184 40.7477H33.5503C33.6554 40.7477 33.7406 40.8562 33.7406 40.9901V42.2025C33.7406 42.3364 33.6554 42.445 33.5503 42.445H32.2184C31.6929 42.445 31.267 42.9878 31.267 43.6574V44.1423C31.267 44.2762 31.1818 44.3848 31.0767 44.3848H25.9391C25.834 44.3848 25.7488 44.2762 25.7488 44.1423V43.6574C25.7488 42.9878 25.3228 42.445 24.7974 42.445H23.4654C23.3603 42.445 23.2751 42.3364 23.2751 42.2025V40.9901C23.2751 40.8562 23.3603 40.7477 23.4654 40.7477H24.7974C25.3228 40.7477 25.7488 40.2049 25.7488 39.5353V39.0503Z" fill="#1ABC94"/>
<path d="M23.9285 31.2425C23.9285 31.1086 24.0137 31 24.1188 31H29.2564C29.3615 31 29.4467 31.1086 29.4467 31.2425V31.7274C29.4467 32.397 29.8726 32.9398 30.3981 32.9398H31.73C31.8351 32.9398 31.9203 33.0484 31.9203 33.1823V34.3947C31.9203 34.5286 31.8351 34.6371 31.73 34.6371H30.3981C29.8726 34.6371 29.4467 35.1799 29.4467 35.8495V36.3345C29.4467 36.4684 29.3615 36.5769 29.2564 36.5769H24.1188C24.0137 36.5769 23.9285 36.4684 23.9285 36.3345V35.8495C23.9285 35.1799 23.5025 34.6371 22.9771 34.6371H21.6451C21.54 34.6371 21.4548 34.5286 21.4548 34.3947V33.1823C21.4548 33.0484 21.54 32.9398 21.6451 32.9398H22.9771C23.5025 32.9398 23.9285 32.397 23.9285 31.7274V31.2425Z" fill="#1ABC94"/>
<path d="M27.0397 30.9183C35.3014 30.9183 41.9989 24.2209 41.9989 15.9592C41.9989 7.69744 35.3014 1 27.0397 1C18.778 1 12.0806 7.69744 12.0806 15.9592C12.0806 24.2209 18.778 30.9183 27.0397 30.9183Z" fill="#FCFDFF" stroke="#B8C0CC" stroke-width="1.88" stroke-linecap="round" stroke-linejoin="round"/>
</svg>
