<svg width="20" height="21" viewBox="0 0 20 21" fill="none" xmlns="http://www.w3.org/2000/svg">
<g clip-path="url(#clip0)">
<ellipse cx="9.99996" cy="2.95669" rx="2.08333" ry="2.08333" stroke="#1ABC94" stroke-width="1.5"/>
<ellipse cx="4.58333" cy="13.7901" rx="2.08333" ry="2.08333" stroke="#1ABC94" stroke-width="1.5"/>
<ellipse cx="15.4167" cy="13.7901" rx="2.08333" ry="2.08333" stroke="#1ABC94" stroke-width="1.5"/>
<path d="M10 5.04004C7.92893 5.04004 6.25 6.53242 6.25 8.37337H13.75C13.75 6.53242 12.0711 5.04004 10 5.04004Z" stroke="#1ABC94" stroke-width="1.5" stroke-linejoin="round"/>
<path d="M4.58337 15.8734C2.51231 15.8734 0.833374 17.3657 0.833374 19.2067H8.33337C8.33337 17.3657 6.65444 15.8734 4.58337 15.8734Z" stroke="#1ABC94" stroke-width="1.5" stroke-linejoin="round"/>
<path d="M15.4166 15.8734C13.3456 15.8734 11.6666 17.3657 11.6666 19.2067H19.1666C19.1666 17.3657 17.4877 15.8734 15.4166 15.8734Z" stroke="#1ABC94" stroke-width="1.5" stroke-linejoin="round"/>
</g>
<defs>
<clipPath id="clip0">
<rect width="20" height="20" fill="white" transform="translate(0 0.0400391)"/>
</clipPath>
</defs>
</svg>
