<svg width="159" height="204" viewBox="0 0 159 204" fill="none" xmlns="http://www.w3.org/2000/svg">
<path d="M146.273 0.166992H32.6359C26.0084 0.166992 20.6359 5.53958 20.6359 12.167V180.985C20.6359 187.612 26.0084 192.985 32.6359 192.985H146.273C152.9 192.985 158.273 187.612 158.273 180.985V12.167C158.273 5.53958 152.9 0.166992 146.273 0.166992Z" fill="#B8C0CC"/>
<path d="M33.3359 4.55005H143.781C146.169 4.55005 148.46 5.49889 150.149 7.18785C151.838 8.8768 152.787 11.1675 152.787 13.556V170.973C152.787 173.362 151.838 175.652 150.149 177.341C148.46 179.03 146.169 179.979 143.781 179.979H35.1279C32.7394 179.979 30.4487 179.03 28.7597 177.341C27.0708 175.652 26.1219 173.362 26.1219 170.973V11.764C26.1219 9.85078 26.882 8.01587 28.2349 6.66298C29.5878 5.31009 31.4227 4.55005 33.3359 4.55005Z" fill="white"/>
<path d="M70.56 16.619C70.6113 16.4723 70.692 16.3623 70.802 16.289C70.9193 16.2157 71.0477 16.179 71.187 16.179C71.363 16.179 71.5133 16.234 71.638 16.344C71.77 16.454 71.836 16.6007 71.836 16.784C71.836 16.85 71.8177 16.9453 71.781 17.07L69.416 23.615C69.3573 23.7617 69.2583 23.8753 69.119 23.956C68.987 24.0367 68.8403 24.077 68.679 24.077C68.5177 24.077 68.3673 24.0367 68.228 23.956C68.0887 23.8753 67.9933 23.7617 67.942 23.615L66.116 18.434L64.257 23.615C64.1983 23.7617 64.0993 23.8753 63.96 23.956C63.828 24.0367 63.6813 24.077 63.52 24.077C63.3587 24.077 63.2083 24.0367 63.069 23.956C62.937 23.8753 62.8453 23.7617 62.794 23.615L60.429 17.07C60.3923 16.96 60.374 16.8647 60.374 16.784C60.374 16.6007 60.44 16.454 60.572 16.344C60.7113 16.234 60.8727 16.179 61.056 16.179C61.2027 16.179 61.3347 16.2157 61.452 16.289C61.5693 16.3623 61.6537 16.4723 61.705 16.619L63.575 21.998L65.5 16.652C65.5513 16.5053 65.6357 16.3917 65.753 16.311C65.8703 16.223 65.9987 16.179 66.138 16.179C66.2773 16.179 66.4057 16.223 66.523 16.311C66.6477 16.3917 66.7357 16.509 66.787 16.663L68.657 22.064L70.56 16.619ZM76.5521 22.526C76.6767 22.526 76.7757 22.5737 76.8491 22.669C76.9297 22.7643 76.9701 22.8927 76.9701 23.054C76.9701 23.2813 76.8344 23.472 76.5631 23.626C76.3137 23.7653 76.0314 23.879 75.7161 23.967C75.4007 24.0477 75.1001 24.088 74.8141 24.088C73.9487 24.088 73.2631 23.8387 72.7571 23.34C72.2511 22.8413 71.9981 22.1593 71.9981 21.294C71.9981 20.744 72.1081 20.2563 72.3281 19.831C72.5481 19.4057 72.8561 19.0757 73.2521 18.841C73.6554 18.6063 74.1101 18.489 74.6161 18.489C75.1001 18.489 75.5217 18.5953 75.8811 18.808C76.2404 19.0207 76.5191 19.3213 76.7171 19.71C76.9151 20.0987 77.0141 20.557 77.0141 21.085C77.0141 21.4003 76.8747 21.558 76.5961 21.558H73.3511C73.3951 22.064 73.5381 22.438 73.7801 22.68C74.0221 22.9147 74.3741 23.032 74.8361 23.032C75.0707 23.032 75.2761 23.0027 75.4521 22.944C75.6354 22.8853 75.8407 22.8047 76.0681 22.702C76.2881 22.5847 76.4494 22.526 76.5521 22.526ZM74.6491 19.457C74.2751 19.457 73.9744 19.5743 73.7471 19.809C73.5271 20.0437 73.3951 20.381 73.3511 20.821H75.8371C75.8224 20.3737 75.7124 20.0363 75.5071 19.809C75.3017 19.5743 75.0157 19.457 74.6491 19.457ZM78.8208 24.066C78.6228 24.066 78.4578 24.011 78.3258 23.901C78.2012 23.7837 78.1388 23.6187 78.1388 23.406V16.839C78.1388 16.6263 78.2012 16.465 78.3258 16.355C78.4578 16.245 78.6228 16.19 78.8208 16.19C79.0188 16.19 79.1838 16.245 79.3158 16.355C79.4478 16.465 79.5138 16.6263 79.5138 16.839V23.406C79.5138 23.6187 79.4478 23.7837 79.3158 23.901C79.1838 24.011 79.0188 24.066 78.8208 24.066ZM81.6138 24.066C81.4158 24.066 81.2508 24.011 81.1188 23.901C80.9941 23.7837 80.9318 23.6187 80.9318 23.406V16.839C80.9318 16.6263 80.9941 16.465 81.1188 16.355C81.2508 16.245 81.4158 16.19 81.6138 16.19C81.8118 16.19 81.9768 16.245 82.1088 16.355C82.2408 16.465 82.3068 16.6263 82.3068 16.839V23.406C82.3068 23.6187 82.2408 23.7837 82.1088 23.901C81.9768 24.011 81.8118 24.066 81.6138 24.066ZM86.8488 18.489C87.4941 18.489 87.9744 18.6723 88.2898 19.039C88.6051 19.4057 88.7628 19.9593 88.7628 20.7V23.406C88.7628 23.6113 88.7004 23.7727 88.5758 23.89C88.4584 24.0073 88.2934 24.066 88.0808 24.066C87.8681 24.066 87.6994 24.0073 87.5748 23.89C87.4501 23.7727 87.3878 23.6113 87.3878 23.406V20.777C87.3878 20.359 87.3071 20.0547 87.1458 19.864C86.9918 19.6733 86.7461 19.578 86.4088 19.578C86.0128 19.578 85.6938 19.7027 85.4518 19.952C85.2171 20.2013 85.0998 20.535 85.0998 20.953V23.406C85.0998 23.6113 85.0374 23.7727 84.9128 23.89C84.7881 24.0073 84.6194 24.066 84.4068 24.066C84.1941 24.066 84.0254 24.0073 83.9008 23.89C83.7834 23.7727 83.7248 23.6113 83.7248 23.406V19.149C83.7248 18.9583 83.7871 18.8043 83.9118 18.687C84.0364 18.5697 84.2051 18.511 84.4178 18.511C84.6084 18.511 84.7624 18.5697 84.8798 18.687C85.0044 18.797 85.0668 18.9437 85.0668 19.127V19.424C85.2501 19.1233 85.4958 18.8923 85.8038 18.731C86.1118 18.5697 86.4601 18.489 86.8488 18.489ZM94.4163 22.526C94.541 22.526 94.64 22.5737 94.7133 22.669C94.794 22.7643 94.8343 22.8927 94.8343 23.054C94.8343 23.2813 94.6987 23.472 94.4273 23.626C94.178 23.7653 93.8957 23.879 93.5803 23.967C93.265 24.0477 92.9643 24.088 92.6783 24.088C91.813 24.088 91.1273 23.8387 90.6213 23.34C90.1153 22.8413 89.8623 22.1593 89.8623 21.294C89.8623 20.744 89.9723 20.2563 90.1923 19.831C90.4123 19.4057 90.7203 19.0757 91.1163 18.841C91.5197 18.6063 91.9743 18.489 92.4803 18.489C92.9643 18.489 93.386 18.5953 93.7453 18.808C94.1047 19.0207 94.3833 19.3213 94.5813 19.71C94.7793 20.0987 94.8783 20.557 94.8783 21.085C94.8783 21.4003 94.739 21.558 94.4603 21.558H91.2153C91.2593 22.064 91.4023 22.438 91.6443 22.68C91.8863 22.9147 92.2383 23.032 92.7003 23.032C92.935 23.032 93.1403 23.0027 93.3163 22.944C93.4997 22.8853 93.705 22.8047 93.9323 22.702C94.1523 22.5847 94.3137 22.526 94.4163 22.526ZM92.5133 19.457C92.1393 19.457 91.8387 19.5743 91.6113 19.809C91.3913 20.0437 91.2593 20.381 91.2153 20.821H93.7013C93.6867 20.3737 93.5767 20.0363 93.3713 19.809C93.166 19.5743 92.88 19.457 92.5133 19.457ZM97.9501 24.088C97.1508 24.088 96.5054 23.9303 96.0141 23.615C95.7794 23.4757 95.6621 23.2777 95.6621 23.021C95.6621 22.8743 95.7024 22.757 95.7831 22.669C95.8638 22.5737 95.9628 22.526 96.0801 22.526C96.2048 22.526 96.3771 22.5847 96.5971 22.702C96.8318 22.812 97.0444 22.8963 97.2351 22.955C97.4331 23.0137 97.6824 23.043 97.9831 23.043C98.2911 23.043 98.5294 22.9917 98.6981 22.889C98.8741 22.7863 98.9621 22.6433 98.9621 22.46C98.9621 22.3353 98.9254 22.2363 98.8521 22.163C98.7861 22.0897 98.6614 22.0237 98.4781 21.965C98.3021 21.899 98.0308 21.8257 97.6641 21.745C97.0114 21.613 96.5421 21.426 96.2561 21.184C95.9774 20.942 95.8381 20.6083 95.8381 20.183C95.8381 19.8603 95.9334 19.5707 96.1241 19.314C96.3148 19.05 96.5751 18.8483 96.9051 18.709C97.2424 18.5623 97.6238 18.489 98.0491 18.489C98.3571 18.489 98.6541 18.5293 98.9401 18.61C99.2261 18.6833 99.4828 18.7933 99.7101 18.94C99.9448 19.0867 100.062 19.281 100.062 19.523C100.062 19.6697 100.022 19.7943 99.9411 19.897C99.8604 19.9923 99.7614 20.04 99.6441 20.04C99.5634 20.04 99.4828 20.0253 99.4021 19.996C99.3288 19.9593 99.2334 19.908 99.1161 19.842C98.9034 19.732 98.7201 19.6513 98.5661 19.6C98.4121 19.5413 98.2214 19.512 97.9941 19.512C97.7228 19.512 97.5064 19.567 97.3451 19.677C97.1911 19.787 97.1141 19.9373 97.1141 20.128C97.1141 20.3113 97.1948 20.4507 97.3561 20.546C97.5174 20.6413 97.8291 20.7367 98.2911 20.832C98.7824 20.9347 99.1674 21.052 99.4461 21.184C99.7248 21.316 99.9228 21.481 100.04 21.679C100.165 21.877 100.227 22.13 100.227 22.438C100.227 22.9367 100.018 23.3363 99.6001 23.637C99.1894 23.9377 98.6394 24.088 97.9501 24.088ZM103.289 24.088C102.49 24.088 101.844 23.9303 101.353 23.615C101.118 23.4757 101.001 23.2777 101.001 23.021C101.001 22.8743 101.041 22.757 101.122 22.669C101.203 22.5737 101.302 22.526 101.419 22.526C101.544 22.526 101.716 22.5847 101.936 22.702C102.171 22.812 102.383 22.8963 102.574 22.955C102.772 23.0137 103.021 23.043 103.322 23.043C103.63 23.043 103.868 22.9917 104.037 22.889C104.213 22.7863 104.301 22.6433 104.301 22.46C104.301 22.3353 104.264 22.2363 104.191 22.163C104.125 22.0897 104 22.0237 103.817 21.965C103.641 21.899 103.37 21.8257 103.003 21.745C102.35 21.613 101.881 21.426 101.595 21.184C101.316 20.942 101.177 20.6083 101.177 20.183C101.177 19.8603 101.272 19.5707 101.463 19.314C101.654 19.05 101.914 18.8483 102.244 18.709C102.581 18.5623 102.963 18.489 103.388 18.489C103.696 18.489 103.993 18.5293 104.279 18.61C104.565 18.6833 104.822 18.7933 105.049 18.94C105.284 19.0867 105.401 19.281 105.401 19.523C105.401 19.6697 105.361 19.7943 105.28 19.897C105.199 19.9923 105.1 20.04 104.983 20.04C104.902 20.04 104.822 20.0253 104.741 19.996C104.668 19.9593 104.572 19.908 104.455 19.842C104.242 19.732 104.059 19.6513 103.905 19.6C103.751 19.5413 103.56 19.512 103.333 19.512C103.062 19.512 102.845 19.567 102.684 19.677C102.53 19.787 102.453 19.9373 102.453 20.128C102.453 20.3113 102.534 20.4507 102.695 20.546C102.856 20.6413 103.168 20.7367 103.63 20.832C104.121 20.9347 104.506 21.052 104.785 21.184C105.064 21.316 105.262 21.481 105.379 21.679C105.504 21.877 105.566 22.13 105.566 22.438C105.566 22.9367 105.357 23.3363 104.939 23.637C104.528 23.9377 103.978 24.088 103.289 24.088ZM113.253 24.099C112.505 24.099 111.849 23.9377 111.284 23.615C110.727 23.2923 110.298 22.8303 109.997 22.229C109.696 21.6277 109.546 20.9237 109.546 20.117C109.546 19.3103 109.696 18.61 109.997 18.016C110.298 17.4147 110.727 16.9527 111.284 16.63C111.849 16.3073 112.505 16.146 113.253 16.146C113.737 16.146 114.192 16.2193 114.617 16.366C115.042 16.5053 115.42 16.7107 115.75 16.982C115.845 17.0553 115.911 17.1323 115.948 17.213C115.985 17.2937 116.003 17.3927 116.003 17.51C116.003 17.6713 115.959 17.807 115.871 17.917C115.783 18.027 115.677 18.082 115.552 18.082C115.405 18.082 115.255 18.0307 115.101 17.928C114.786 17.6933 114.492 17.532 114.221 17.444C113.95 17.3487 113.649 17.301 113.319 17.301C112.556 17.301 111.977 17.5393 111.581 18.016C111.192 18.4927 110.998 19.193 110.998 20.117C110.998 21.0483 111.192 21.7523 111.581 22.229C111.977 22.7057 112.556 22.944 113.319 22.944C113.634 22.944 113.924 22.8963 114.188 22.801C114.459 22.7057 114.764 22.5443 115.101 22.317C115.174 22.273 115.248 22.2363 115.321 22.207C115.394 22.1777 115.471 22.163 115.552 22.163C115.677 22.163 115.783 22.218 115.871 22.328C115.959 22.438 116.003 22.5737 116.003 22.735C116.003 22.845 115.985 22.944 115.948 23.032C115.911 23.1127 115.845 23.1897 115.75 23.263C115.42 23.5343 115.042 23.7433 114.617 23.89C114.192 24.0293 113.737 24.099 113.253 24.099ZM121.272 22.526C121.396 22.526 121.495 22.5737 121.569 22.669C121.649 22.7643 121.69 22.8927 121.69 23.054C121.69 23.2813 121.554 23.472 121.283 23.626C121.033 23.7653 120.751 23.879 120.436 23.967C120.12 24.0477 119.82 24.088 119.534 24.088C118.668 24.088 117.983 23.8387 117.477 23.34C116.971 22.8413 116.718 22.1593 116.718 21.294C116.718 20.744 116.828 20.2563 117.048 19.831C117.268 19.4057 117.576 19.0757 117.972 18.841C118.375 18.6063 118.83 18.489 119.336 18.489C119.82 18.489 120.241 18.5953 120.601 18.808C120.96 19.0207 121.239 19.3213 121.437 19.71C121.635 20.0987 121.734 20.557 121.734 21.085C121.734 21.4003 121.594 21.558 121.316 21.558H118.071C118.115 22.064 118.258 22.438 118.5 22.68C118.742 22.9147 119.094 23.032 119.556 23.032C119.79 23.032 119.996 23.0027 120.172 22.944C120.355 22.8853 120.56 22.8047 120.788 22.702C121.008 22.5847 121.169 22.526 121.272 22.526ZM119.369 19.457C118.995 19.457 118.694 19.5743 118.467 19.809C118.247 20.0437 118.115 20.381 118.071 20.821H120.557C120.542 20.3737 120.432 20.0363 120.227 19.809C120.021 19.5743 119.735 19.457 119.369 19.457ZM125.983 18.489C126.628 18.489 127.108 18.6723 127.424 19.039C127.739 19.4057 127.897 19.9593 127.897 20.7V23.406C127.897 23.6113 127.834 23.7727 127.71 23.89C127.592 24.0073 127.427 24.066 127.215 24.066C127.002 24.066 126.833 24.0073 126.709 23.89C126.584 23.7727 126.522 23.6113 126.522 23.406V20.777C126.522 20.359 126.441 20.0547 126.28 19.864C126.126 19.6733 125.88 19.578 125.543 19.578C125.147 19.578 124.828 19.7027 124.586 19.952C124.351 20.2013 124.234 20.535 124.234 20.953V23.406C124.234 23.6113 124.171 23.7727 124.047 23.89C123.922 24.0073 123.753 24.066 123.541 24.066C123.328 24.066 123.159 24.0073 123.035 23.89C122.917 23.7727 122.859 23.6113 122.859 23.406V19.149C122.859 18.9583 122.921 18.8043 123.046 18.687C123.17 18.5697 123.339 18.511 123.552 18.511C123.742 18.511 123.896 18.5697 124.014 18.687C124.138 18.797 124.201 18.9437 124.201 19.127V19.424C124.384 19.1233 124.63 18.8923 124.938 18.731C125.246 18.5697 125.594 18.489 125.983 18.489ZM132.087 23.043C132.454 23.065 132.637 23.23 132.637 23.538C132.637 23.714 132.564 23.8497 132.417 23.945C132.278 24.033 132.076 24.0697 131.812 24.055L131.515 24.033C130.283 23.945 129.667 23.285 129.667 22.053V19.655H129.117C128.919 19.655 128.765 19.611 128.655 19.523C128.552 19.435 128.501 19.3067 128.501 19.138C128.501 18.9693 128.552 18.841 128.655 18.753C128.765 18.665 128.919 18.621 129.117 18.621H129.667V17.609C129.667 17.411 129.729 17.2533 129.854 17.136C129.979 17.0187 130.147 16.96 130.36 16.96C130.565 16.96 130.73 17.0187 130.855 17.136C130.98 17.2533 131.042 17.411 131.042 17.609V18.621H131.977C132.175 18.621 132.325 18.665 132.428 18.753C132.538 18.841 132.593 18.9693 132.593 19.138C132.593 19.3067 132.538 19.435 132.428 19.523C132.325 19.611 132.175 19.655 131.977 19.655H131.042V22.152C131.042 22.6947 131.291 22.9843 131.79 23.021L132.087 23.043ZM137.611 22.526C137.735 22.526 137.834 22.5737 137.908 22.669C137.988 22.7643 138.029 22.8927 138.029 23.054C138.029 23.2813 137.893 23.472 137.622 23.626C137.372 23.7653 137.09 23.879 136.775 23.967C136.459 24.0477 136.159 24.088 135.873 24.088C135.007 24.088 134.322 23.8387 133.816 23.34C133.31 22.8413 133.057 22.1593 133.057 21.294C133.057 20.744 133.167 20.2563 133.387 19.831C133.607 19.4057 133.915 19.0757 134.311 18.841C134.714 18.6063 135.169 18.489 135.675 18.489C136.159 18.489 136.58 18.5953 136.94 18.808C137.299 19.0207 137.578 19.3213 137.776 19.71C137.974 20.0987 138.073 20.557 138.073 21.085C138.073 21.4003 137.933 21.558 137.655 21.558H134.41C134.454 22.064 134.597 22.438 134.839 22.68C135.081 22.9147 135.433 23.032 135.895 23.032C136.129 23.032 136.335 23.0027 136.511 22.944C136.694 22.8853 136.899 22.8047 137.127 22.702C137.347 22.5847 137.508 22.526 137.611 22.526ZM135.708 19.457C135.334 19.457 135.033 19.5743 134.806 19.809C134.586 20.0437 134.454 20.381 134.41 20.821H136.896C136.881 20.3737 136.771 20.0363 136.566 19.809C136.36 19.5743 136.074 19.457 135.708 19.457ZM142.2 18.511C142.391 18.4963 142.541 18.5367 142.651 18.632C142.761 18.7273 142.816 18.8703 142.816 19.061C142.816 19.259 142.769 19.4057 142.673 19.501C142.578 19.5963 142.406 19.6587 142.156 19.688L141.826 19.721C141.394 19.765 141.075 19.9117 140.869 20.161C140.671 20.4103 140.572 20.722 140.572 21.096V23.406C140.572 23.6187 140.506 23.7837 140.374 23.901C140.242 24.011 140.077 24.066 139.879 24.066C139.681 24.066 139.516 24.011 139.384 23.901C139.26 23.7837 139.197 23.6187 139.197 23.406V19.149C139.197 18.9437 139.26 18.786 139.384 18.676C139.516 18.566 139.678 18.511 139.868 18.511C140.059 18.511 140.213 18.566 140.33 18.676C140.448 18.7787 140.506 18.929 140.506 19.127V19.567C140.646 19.2443 140.851 18.995 141.122 18.819C141.401 18.643 141.709 18.544 142.046 18.522L142.2 18.511Z" fill="#1ABC94"/>
<path d="M48.7468 12.0033C48.3998 12.0141 48.0614 12.1099 47.7641 12.2816C47.4667 12.4533 47.2204 12.6952 47.0485 12.9841C46.8373 12.614 46.5029 12.3222 46.0985 12.155C45.6942 11.9878 45.243 11.9548 44.8168 12.0612C44.3906 12.1676 44.0138 12.4074 43.7462 12.7423C43.4787 13.0773 43.3357 13.4883 43.3401 13.9099C43.3401 16.6372 47.0485 18.8676 47.0485 18.8676C47.0485 18.8676 50.757 16.6372 50.757 13.9099C50.7487 13.4036 50.5337 12.9206 50.158 12.5642C49.7823 12.2078 49.2757 12.0065 48.7468 12.0033Z" fill="white" stroke="#1ABC94" stroke-width="0.8" stroke-linecap="round" stroke-linejoin="round"/>
<path d="M39.379 24.9812C39.9488 25.9681 39.6107 27.2299 38.6238 27.7997C38.2949 27.9896 37.8743 27.8769 37.6843 27.548L34.3438 21.762C34.1539 21.4331 34.2666 21.0125 34.5956 20.8226C35.5824 20.2528 36.8443 20.5909 37.414 21.5778L39.379 24.9812Z" fill="white" stroke="#1ABC94" stroke-width="0.8"/>
<path d="M41.4669 18.3229C39.7453 18.2325 37.9277 19.4395 36.9474 20.6751L39.8884 25.8824H48.6133C49.3976 25.8824 49.9858 25.4149 50.1818 25.1811C51.3256 23.6783 53.6522 20.6125 53.8091 20.3721C54.0051 20.0715 54.2992 19.27 53.613 18.6689C53.064 18.188 52.4039 18.4685 52.1425 18.6689C51.2929 19.5038 49.4956 21.2738 49.1035 21.6745C48.7113 22.0753 48.2865 22.1755 48.1231 22.1755C48.4172 22.1421 49.3269 21.8541 49.3269 20.8716C49.3269 19.8891 48.5153 19.6708 48.1231 19.6708H44.2999C44.2018 19.6708 43.3336 18.421 41.4669 18.3229Z" fill="white"/>
<path d="M48.1231 22.1755C48.4172 22.1421 49.3269 21.8541 49.3269 20.8716C49.3269 19.8891 48.5153 19.6708 48.1231 19.6708H44.2999C44.2018 19.6708 43.3336 18.421 41.4669 18.3229C39.7453 18.2325 37.9277 19.4395 36.9474 20.6751L39.8884 25.8824C42.4699 25.8824 47.829 25.8824 48.6133 25.8824C49.3976 25.8824 49.9858 25.4149 50.1818 25.1811C51.3256 23.6783 53.6522 20.6125 53.8091 20.3721C54.0051 20.0715 54.2992 19.27 53.613 18.6689C53.064 18.188 52.4039 18.4685 52.1425 18.6689C51.2929 19.5038 49.4956 21.2738 49.1035 21.6745C48.7113 22.0753 48.2865 22.1755 48.1231 22.1755ZM48.1231 22.1755H44.594" stroke="#1ABC94" stroke-width="0.8" stroke-linecap="round"/>
<path d="M129.57 60.205V57.365H130.554C130.719 57.3609 130.883 57.3915 131.036 57.455C131.162 57.5073 131.271 57.5939 131.35 57.705C131.426 57.8198 131.465 57.9552 131.462 58.093C131.464 58.2194 131.432 58.344 131.368 58.453C131.303 58.5587 131.21 58.6435 131.098 58.697C131.242 58.7446 131.367 58.838 131.454 58.963C131.542 59.0932 131.587 59.2479 131.582 59.405C131.585 59.5558 131.542 59.7039 131.458 59.829C131.37 59.9534 131.248 60.0504 131.108 60.109C130.939 60.1792 130.757 60.2133 130.574 60.209L129.57 60.205ZM130.042 57.781V58.533H130.51C130.633 58.5399 130.754 58.5046 130.854 58.433C130.894 58.399 130.926 58.356 130.947 58.3073C130.968 58.2587 130.977 58.2058 130.974 58.153C130.976 58.1007 130.967 58.0485 130.945 58.0006C130.924 57.9527 130.892 57.9104 130.852 57.877C130.753 57.8048 130.632 57.7694 130.51 57.777L130.042 57.781ZM130.042 59.789H130.554C130.696 59.7989 130.838 59.7585 130.954 59.675C130.999 59.6368 131.035 59.5885 131.059 59.534C131.082 59.4795 131.093 59.4203 131.09 59.361C131.093 59.3004 131.082 59.2399 131.058 59.1843C131.034 59.1287 130.997 59.0796 130.95 59.041C130.833 58.9588 130.692 58.9192 130.55 58.929H130.042V59.789ZM132.978 60.265C132.833 60.2664 132.69 60.2385 132.556 60.183C132.428 60.1297 132.313 60.0507 132.218 59.951C132.119 59.8498 132.042 59.7302 131.99 59.599C131.935 59.4581 131.908 59.3081 131.91 59.157C131.908 59.0072 131.936 58.8586 131.99 58.719C132.041 58.5878 132.118 58.4681 132.216 58.367C132.313 58.2669 132.43 58.1879 132.56 58.135C132.696 58.0795 132.842 58.0516 132.99 58.053C133.135 58.0516 133.278 58.0795 133.412 58.135C133.539 58.1883 133.654 58.2673 133.75 58.367C133.846 58.468 133.923 58.5869 133.974 58.717C134.028 58.8572 134.056 59.0066 134.054 59.157C134.055 59.3081 134.028 59.4581 133.974 59.599C133.923 59.7302 133.846 59.8499 133.748 59.951C133.65 60.0511 133.533 60.1301 133.404 60.183C133.269 60.238 133.124 60.2659 132.978 60.265ZM132.99 59.849C133.096 59.8489 133.201 59.8177 133.29 59.759C133.382 59.6975 133.456 59.6126 133.504 59.513C133.56 59.4028 133.59 59.2808 133.59 59.157C133.591 59.0348 133.563 58.9142 133.508 58.805C133.458 58.705 133.383 58.62 133.29 58.559C133.198 58.4988 133.091 58.4675 132.982 58.469C132.872 58.4675 132.765 58.4988 132.674 58.559C132.582 58.62 132.508 58.7042 132.46 58.803C132.406 58.9132 132.379 59.0345 132.382 59.157C132.38 59.2801 132.406 59.4021 132.46 59.513C132.508 59.6126 132.582 59.6975 132.674 59.759C132.767 59.8207 132.878 59.8522 132.99 59.849ZM135.454 60.265C135.309 60.2664 135.166 60.2385 135.032 60.183C134.903 60.1301 134.787 60.0511 134.69 59.951C134.594 59.8491 134.52 59.7295 134.47 59.599C134.415 59.4581 134.388 59.3081 134.39 59.157C134.388 59.0072 134.416 58.8586 134.47 58.719C134.521 58.5878 134.598 58.4681 134.696 58.367C134.793 58.2669 134.91 58.1879 135.04 58.135C135.176 58.0795 135.322 58.0516 135.47 58.053C135.614 58.0519 135.757 58.0797 135.89 58.135C136.017 58.1883 136.132 58.2673 136.228 58.367C136.324 58.468 136.401 58.5869 136.452 58.717C136.506 58.8572 136.534 59.0066 136.532 59.157C136.533 59.3081 136.506 59.4581 136.452 59.599C136.401 59.7302 136.324 59.8499 136.226 59.951C136.128 60.0511 136.011 60.1301 135.882 60.183C135.746 60.2383 135.601 60.2661 135.454 60.265ZM135.462 59.849C135.571 59.8505 135.678 59.8192 135.77 59.759C135.862 59.6975 135.936 59.6126 135.984 59.513C136.037 59.4021 136.064 59.2801 136.062 59.157C136.064 59.0352 136.037 58.9145 135.984 58.805C135.935 58.7062 135.861 58.622 135.77 58.561C135.678 58.5008 135.571 58.4695 135.462 58.471C135.352 58.4695 135.245 58.5008 135.154 58.561C135.062 58.622 134.988 58.7062 134.94 58.805C134.886 58.9152 134.859 59.0365 134.862 59.159C134.86 59.2821 134.886 59.4041 134.94 59.515C134.988 59.6146 135.062 59.6995 135.154 59.761C135.245 59.8205 135.353 59.8511 135.462 59.849ZM136.938 60.205V57.229H137.398V58.977L138.254 58.113H138.814L137.874 59.041L138.91 60.205H138.31L137.398 59.149V60.205H136.938Z" fill="#1ABC94"/>
<path d="M39.548 50.056C38.89 50.056 38.3907 49.8857 38.05 49.545C37.7093 49.2043 37.539 48.7027 37.539 48.04V45.394C37.539 45.282 37.5717 45.1933 37.637 45.128C37.7023 45.0627 37.7887 45.03 37.896 45.03C38.0033 45.03 38.0897 45.0627 38.155 45.128C38.2203 45.1933 38.253 45.282 38.253 45.394V48.089C38.253 48.5417 38.3603 48.8847 38.575 49.118C38.7943 49.3513 39.1187 49.468 39.548 49.468C39.9727 49.468 40.2947 49.3513 40.514 49.118C40.7333 48.8847 40.843 48.5417 40.843 48.089V45.394C40.843 45.2867 40.8757 45.2003 40.941 45.135C41.0063 45.065 41.0927 45.03 41.2 45.03C41.3073 45.03 41.3937 45.0627 41.459 45.128C41.5243 45.1933 41.557 45.282 41.557 45.394V48.04C41.557 48.698 41.3843 49.1997 41.039 49.545C40.6983 49.8857 40.2013 50.056 39.548 50.056ZM44.4238 46.5C45.2404 46.5 45.6488 46.9597 45.6488 47.879V49.699C45.6488 49.8063 45.6161 49.8903 45.5508 49.951C45.4901 50.007 45.4038 50.035 45.2918 50.035C45.1844 50.035 45.0981 50.0047 45.0328 49.944C44.9721 49.8833 44.9418 49.8017 44.9418 49.699V47.914C44.9418 47.6247 44.8834 47.4123 44.7668 47.277C44.6548 47.1417 44.4774 47.074 44.2348 47.074C43.9501 47.074 43.7214 47.1627 43.5488 47.34C43.3761 47.5173 43.2898 47.7553 43.2898 48.054V49.699C43.2898 49.8017 43.2571 49.8833 43.1918 49.944C43.1311 50.0047 43.0471 50.035 42.9398 50.035C42.8324 50.035 42.7461 50.0047 42.6808 49.944C42.6154 49.8833 42.5828 49.8017 42.5828 49.699V46.85C42.5828 46.752 42.6154 46.6727 42.6808 46.612C42.7508 46.5467 42.8371 46.514 42.9398 46.514C43.0424 46.514 43.1241 46.5443 43.1848 46.605C43.2454 46.6657 43.2758 46.745 43.2758 46.843V47.13C43.3878 46.9247 43.5441 46.7683 43.7448 46.661C43.9454 46.5537 44.1718 46.5 44.4238 46.5ZM46.973 50.035C46.8703 50.035 46.784 50.007 46.714 49.951C46.6486 49.895 46.616 49.811 46.616 49.699V46.857C46.616 46.745 46.6486 46.661 46.714 46.605C46.784 46.5443 46.8703 46.514 46.973 46.514C47.0756 46.514 47.1596 46.5443 47.225 46.605C47.2903 46.661 47.323 46.745 47.323 46.857V49.699C47.323 49.811 47.2903 49.895 47.225 49.951C47.1596 50.007 47.0756 50.035 46.973 50.035ZM46.973 45.828C46.8376 45.828 46.7303 45.7907 46.651 45.716C46.5716 45.6413 46.532 45.5433 46.532 45.422C46.532 45.3007 46.5716 45.205 46.651 45.135C46.7303 45.0603 46.8376 45.023 46.973 45.023C47.1036 45.023 47.2086 45.0603 47.288 45.135C47.372 45.205 47.414 45.3007 47.414 45.422C47.414 45.5433 47.3743 45.6413 47.295 45.716C47.2156 45.7907 47.1083 45.828 46.973 45.828ZM50.7403 46.724C50.7683 46.654 50.808 46.6027 50.8593 46.57C50.9153 46.5373 50.9736 46.521 51.0343 46.521C51.123 46.521 51.2 46.5513 51.2653 46.612C51.3353 46.6727 51.3703 46.745 51.3703 46.829C51.3703 46.8757 51.361 46.92 51.3423 46.962L50.0053 49.797C49.9726 49.8717 49.9213 49.93 49.8513 49.972C49.786 50.0093 49.716 50.028 49.6413 50.028C49.5666 50.028 49.4943 50.0093 49.4243 49.972C49.359 49.93 49.31 49.8717 49.2773 49.797L47.9403 46.962C47.9216 46.9247 47.9123 46.8803 47.9123 46.829C47.9123 46.745 47.9496 46.6727 48.0243 46.612C48.099 46.5513 48.183 46.521 48.2763 46.521C48.4116 46.521 48.512 46.5863 48.5773 46.717L49.6623 49.125L50.7403 46.724ZM54.5742 49.139C54.6395 49.139 54.6932 49.1647 54.7352 49.216C54.7772 49.2673 54.7982 49.3327 54.7982 49.412C54.7982 49.5473 54.7142 49.6617 54.5462 49.755C54.3828 49.8483 54.2032 49.9207 54.0072 49.972C53.8158 50.0233 53.6315 50.049 53.4542 50.049C52.9128 50.049 52.4858 49.8927 52.1732 49.58C51.8605 49.2627 51.7042 48.831 51.7042 48.285C51.7042 47.935 51.7718 47.6247 51.9072 47.354C52.0472 47.0833 52.2408 46.8733 52.4882 46.724C52.7402 46.5747 53.0248 46.5 53.3422 46.5C53.7995 46.5 54.1612 46.647 54.4272 46.941C54.6932 47.235 54.8262 47.6317 54.8262 48.131C54.8262 48.3177 54.7422 48.411 54.5742 48.411H52.4112C52.4578 49.1343 52.8055 49.496 53.4542 49.496C53.6268 49.496 53.7762 49.4727 53.9022 49.426C54.0282 49.3793 54.1612 49.3187 54.3012 49.244C54.3152 49.2347 54.3525 49.216 54.4132 49.188C54.4785 49.1553 54.5322 49.139 54.5742 49.139ZM53.3562 47.018C53.0855 47.018 52.8685 47.1043 52.7052 47.277C52.5418 47.4497 52.4438 47.6923 52.4112 48.005H54.2172C54.2032 47.6877 54.1215 47.445 53.9722 47.277C53.8275 47.1043 53.6222 47.018 53.3562 47.018ZM57.3972 46.514C57.6212 46.5 57.7332 46.5957 57.7332 46.801C57.7332 46.9037 57.7076 46.9807 57.6562 47.032C57.6049 47.0833 57.5162 47.1137 57.3902 47.123L57.1802 47.144C56.8862 47.172 56.6669 47.2747 56.5222 47.452C56.3822 47.6293 56.3122 47.844 56.3122 48.096V49.699C56.3122 49.811 56.2796 49.895 56.2142 49.951C56.1489 50.007 56.0649 50.035 55.9622 50.035C55.8596 50.035 55.7732 50.007 55.7032 49.951C55.6379 49.895 55.6052 49.811 55.6052 49.699V46.85C55.6052 46.7427 55.6379 46.661 55.7032 46.605C55.7732 46.5443 55.8596 46.514 55.9622 46.514C56.0556 46.514 56.1326 46.5443 56.1932 46.605C56.2586 46.661 56.2912 46.7403 56.2912 46.843V47.179C56.3846 46.9737 56.5199 46.8173 56.6972 46.71C56.8746 46.6027 57.0752 46.5397 57.2992 46.521L57.3972 46.514ZM59.3245 50.049C58.8485 50.049 58.4589 49.951 58.1555 49.755C58.0715 49.7037 58.0109 49.65 57.9735 49.594C57.9409 49.538 57.9245 49.475 57.9245 49.405C57.9245 49.3303 57.9455 49.2673 57.9875 49.216C58.0295 49.1647 58.0832 49.139 58.1485 49.139C58.2092 49.139 58.3049 49.1763 58.4355 49.251C58.5755 49.3257 58.7109 49.3863 58.8415 49.433C58.9769 49.4797 59.1449 49.503 59.3455 49.503C59.5695 49.503 59.7445 49.4633 59.8705 49.384C59.9965 49.3047 60.0595 49.1927 60.0595 49.048C60.0595 48.9547 60.0339 48.88 59.9825 48.824C59.9359 48.768 59.8519 48.719 59.7305 48.677C59.6092 48.6303 59.4295 48.5813 59.1915 48.53C58.7809 48.4413 58.4845 48.3223 58.3025 48.173C58.1252 48.019 58.0365 47.8113 58.0365 47.55C58.0365 47.3493 58.0949 47.1697 58.2115 47.011C58.3282 46.8477 58.4892 46.7217 58.6945 46.633C58.8999 46.5443 59.1332 46.5 59.3945 46.5C59.5812 46.5 59.7632 46.5257 59.9405 46.577C60.1179 46.6237 60.2742 46.6937 60.4095 46.787C60.5635 46.8897 60.6405 47.0087 60.6405 47.144C60.6405 47.2187 60.6172 47.2817 60.5705 47.333C60.5285 47.3843 60.4772 47.41 60.4165 47.41C60.3745 47.41 60.3325 47.4007 60.2905 47.382C60.2485 47.3633 60.1925 47.333 60.1225 47.291C59.9965 47.2163 59.8775 47.158 59.7655 47.116C59.6582 47.074 59.5229 47.053 59.3595 47.053C59.1635 47.053 59.0049 47.095 58.8835 47.179C58.7669 47.263 58.7085 47.3773 58.7085 47.522C58.7085 47.6527 58.7622 47.7553 58.8695 47.83C58.9815 47.9 59.1892 47.9677 59.4925 48.033C59.8052 48.0983 60.0502 48.173 60.2275 48.257C60.4049 48.341 60.5309 48.446 60.6055 48.572C60.6849 48.6933 60.7245 48.8497 60.7245 49.041C60.7245 49.3443 60.5962 49.5893 60.3395 49.776C60.0875 49.958 59.7492 50.049 59.3245 50.049ZM62.9465 46.5C63.3992 46.5 63.7352 46.6143 63.9545 46.843C64.1785 47.0717 64.2905 47.4193 64.2905 47.886V49.699C64.2905 49.8063 64.2602 49.8903 64.1995 49.951C64.1388 50.007 64.0548 50.035 63.9475 50.035C63.8448 50.035 63.7632 50.0047 63.7025 49.944C63.6418 49.8833 63.6115 49.8017 63.6115 49.699V49.44C63.5228 49.636 63.3898 49.7877 63.2125 49.895C63.0398 49.9977 62.8368 50.049 62.6035 50.049C62.3795 50.049 62.1742 50.0047 61.9875 49.916C61.8055 49.8227 61.6608 49.6967 61.5535 49.538C61.4462 49.3793 61.3925 49.1997 61.3925 48.999C61.3878 48.747 61.4508 48.551 61.5815 48.411C61.7122 48.2663 61.9245 48.1637 62.2185 48.103C62.5125 48.0377 62.9208 48.005 63.4435 48.005H63.6045V47.802C63.6045 47.5407 63.5508 47.3517 63.4435 47.235C63.3362 47.1183 63.1635 47.06 62.9255 47.06C62.7622 47.06 62.6082 47.081 62.4635 47.123C62.3188 47.165 62.1602 47.2257 61.9875 47.305C61.8615 47.375 61.7728 47.41 61.7215 47.41C61.6515 47.41 61.5932 47.3843 61.5465 47.333C61.5045 47.2817 61.4835 47.2163 61.4835 47.137C61.4835 47.067 61.5022 47.0063 61.5395 46.955C61.5815 46.899 61.6468 46.8453 61.7355 46.794C61.8988 46.7053 62.0902 46.6353 62.3095 46.584C62.5288 46.528 62.7412 46.5 62.9465 46.5ZM62.7295 49.524C62.9862 49.524 63.1962 49.4377 63.3595 49.265C63.5228 49.0877 63.6045 48.8613 63.6045 48.586V48.404H63.4785C63.1145 48.404 62.8345 48.4203 62.6385 48.453C62.4425 48.4857 62.3025 48.5417 62.2185 48.621C62.1345 48.6957 62.0925 48.8053 62.0925 48.95C62.0925 49.118 62.1532 49.2557 62.2745 49.363C62.3958 49.4703 62.5475 49.524 62.7295 49.524ZM65.6146 50.035C65.5119 50.035 65.4256 50.007 65.3556 49.951C65.2902 49.895 65.2576 49.811 65.2576 49.699V45.373C65.2576 45.261 65.2902 45.177 65.3556 45.121C65.4256 45.0603 65.5119 45.03 65.6146 45.03C65.7172 45.03 65.8012 45.0603 65.8666 45.121C65.9319 45.177 65.9646 45.261 65.9646 45.373V49.699C65.9646 49.811 65.9319 49.895 65.8666 49.951C65.8012 50.007 65.7172 50.035 65.6146 50.035Z" fill="#B8C0CC"/>
<path d="M41.403 81.03C41.5103 81.03 41.5967 81.065 41.662 81.135C41.7273 81.2003 41.76 81.2867 41.76 81.394V85.671C41.76 85.7783 41.7273 85.867 41.662 85.937C41.5967 86.0023 41.5103 86.035 41.403 86.035C41.2957 86.035 41.2093 86.0023 41.144 85.937C41.0787 85.8717 41.046 85.783 41.046 85.671V83.788H38.288V85.671C38.288 85.7783 38.2553 85.867 38.19 85.937C38.1247 86.0023 38.0383 86.035 37.931 86.035C37.8237 86.035 37.7373 86.0023 37.672 85.937C37.6067 85.8717 37.574 85.783 37.574 85.671V81.394C37.574 81.2867 37.6067 81.2003 37.672 81.135C37.7373 81.065 37.8237 81.03 37.931 81.03C38.0383 81.03 38.1247 81.065 38.19 81.135C38.2553 81.2003 38.288 81.2867 38.288 81.394V83.2H41.046V81.394C41.046 81.2867 41.0787 81.2003 41.144 81.135C41.2093 81.065 41.2957 81.03 41.403 81.03ZM45.496 85.139C45.5614 85.139 45.615 85.1647 45.657 85.216C45.699 85.2673 45.72 85.3327 45.72 85.412C45.72 85.5473 45.636 85.6617 45.468 85.755C45.3047 85.8483 45.125 85.9207 44.929 85.972C44.7377 86.0233 44.5534 86.049 44.376 86.049C43.8347 86.049 43.4077 85.8927 43.095 85.58C42.7824 85.2627 42.626 84.831 42.626 84.285C42.626 83.935 42.6937 83.6247 42.829 83.354C42.969 83.0833 43.1627 82.8733 43.41 82.724C43.662 82.5747 43.9467 82.5 44.264 82.5C44.7214 82.5 45.083 82.647 45.349 82.941C45.615 83.235 45.748 83.6317 45.748 84.131C45.748 84.3177 45.664 84.411 45.496 84.411H43.333C43.3797 85.1343 43.7274 85.496 44.376 85.496C44.5487 85.496 44.698 85.4727 44.824 85.426C44.95 85.3793 45.083 85.3187 45.223 85.244C45.237 85.2347 45.2744 85.216 45.335 85.188C45.4004 85.1553 45.454 85.139 45.496 85.139ZM44.278 83.018C44.0074 83.018 43.7904 83.1043 43.627 83.277C43.4637 83.4497 43.3657 83.6923 43.333 84.005H45.139C45.125 83.6877 45.0434 83.445 44.894 83.277C44.7494 83.1043 44.544 83.018 44.278 83.018ZM46.8841 86.035C46.7814 86.035 46.6951 86.007 46.6251 85.951C46.5598 85.895 46.5271 85.811 46.5271 85.699V81.373C46.5271 81.261 46.5598 81.177 46.6251 81.121C46.6951 81.0603 46.7814 81.03 46.8841 81.03C46.9868 81.03 47.0708 81.0603 47.1361 81.121C47.2014 81.177 47.2341 81.261 47.2341 81.373V85.699C47.2341 85.811 47.2014 85.895 47.1361 85.951C47.0708 86.007 46.9868 86.035 46.8841 86.035ZM50.0564 82.5C50.3504 82.5 50.6118 82.5747 50.8404 82.724C51.0738 82.8733 51.2534 83.0833 51.3794 83.354C51.5101 83.6247 51.5754 83.9373 51.5754 84.292C51.5754 84.642 51.5124 84.95 51.3864 85.216C51.2604 85.482 51.0808 85.6873 50.8474 85.832C50.6188 85.9767 50.3551 86.049 50.0564 86.049C49.7998 86.049 49.5734 85.9953 49.3774 85.888C49.1814 85.776 49.0321 85.6173 48.9294 85.412V86.973C48.9294 87.071 48.8968 87.148 48.8314 87.204C48.7708 87.2647 48.6891 87.295 48.5864 87.295C48.4791 87.295 48.3904 87.2647 48.3204 87.204C48.2551 87.1433 48.2224 87.0617 48.2224 86.959V82.857C48.2224 82.7543 48.2551 82.6727 48.3204 82.612C48.3858 82.5467 48.4721 82.514 48.5794 82.514C48.6821 82.514 48.7661 82.5467 48.8314 82.612C48.8968 82.6727 48.9294 82.7543 48.9294 82.857V83.144C49.0321 82.9387 49.1814 82.78 49.3774 82.668C49.5734 82.556 49.7998 82.5 50.0564 82.5ZM49.8884 85.489C50.1964 85.489 50.4344 85.3863 50.6024 85.181C50.7704 84.971 50.8544 84.6747 50.8544 84.292C50.8544 83.9047 50.7681 83.6037 50.5954 83.389C50.4274 83.1743 50.1918 83.067 49.8884 83.067C49.5804 83.067 49.3424 83.172 49.1744 83.382C49.0111 83.592 48.9294 83.8907 48.9294 84.278C48.9294 84.6653 49.0111 84.964 49.1744 85.174C49.3424 85.384 49.5804 85.489 49.8884 85.489ZM52.7152 86.035C52.6125 86.035 52.5262 86.007 52.4562 85.951C52.3908 85.895 52.3582 85.811 52.3582 85.699V82.857C52.3582 82.745 52.3908 82.661 52.4562 82.605C52.5262 82.5443 52.6125 82.514 52.7152 82.514C52.8178 82.514 52.9018 82.5443 52.9672 82.605C53.0325 82.661 53.0652 82.745 53.0652 82.857V85.699C53.0652 85.811 53.0325 85.895 52.9672 85.951C52.9018 86.007 52.8178 86.035 52.7152 86.035ZM52.7152 81.828C52.5798 81.828 52.4725 81.7907 52.3932 81.716C52.3138 81.6413 52.2742 81.5433 52.2742 81.422C52.2742 81.3007 52.3138 81.205 52.3932 81.135C52.4725 81.0603 52.5798 81.023 52.7152 81.023C52.8458 81.023 52.9508 81.0603 53.0302 81.135C53.1142 81.205 53.1562 81.3007 53.1562 81.422C53.1562 81.5433 53.1165 81.6413 53.0372 81.716C52.9578 81.7907 52.8505 81.828 52.7152 81.828ZM55.8945 82.5C56.7111 82.5 57.1195 82.9597 57.1195 83.879V85.699C57.1195 85.8063 57.0868 85.8903 57.0215 85.951C56.9608 86.007 56.8745 86.035 56.7625 86.035C56.6551 86.035 56.5688 86.0047 56.5035 85.944C56.4428 85.8833 56.4125 85.8017 56.4125 85.699V83.914C56.4125 83.6247 56.3541 83.4123 56.2375 83.277C56.1255 83.1417 55.9481 83.074 55.7055 83.074C55.4208 83.074 55.1921 83.1627 55.0195 83.34C54.8468 83.5173 54.7605 83.7553 54.7605 84.054V85.699C54.7605 85.8017 54.7278 85.8833 54.6625 85.944C54.6018 86.0047 54.5178 86.035 54.4105 86.035C54.3031 86.035 54.2168 86.0047 54.1515 85.944C54.0861 85.8833 54.0535 85.8017 54.0535 85.699V82.85C54.0535 82.752 54.0861 82.6727 54.1515 82.612C54.2215 82.5467 54.3078 82.514 54.4105 82.514C54.5131 82.514 54.5948 82.5443 54.6555 82.605C54.7161 82.6657 54.7465 82.745 54.7465 82.843V83.13C54.8585 82.9247 55.0148 82.7683 55.2155 82.661C55.4161 82.5537 55.6425 82.5 55.8945 82.5ZM60.9147 82.514C61.022 82.514 61.106 82.5467 61.1667 82.612C61.232 82.6727 61.2647 82.7543 61.2647 82.857V85.727C61.2647 86.2497 61.1247 86.644 60.8447 86.91C60.5693 87.176 60.161 87.309 59.6197 87.309C59.1157 87.309 58.6957 87.2133 58.3597 87.022C58.187 86.924 58.1007 86.8073 58.1007 86.672C58.1007 86.5927 58.1217 86.5273 58.1637 86.476C58.2103 86.4247 58.2663 86.399 58.3317 86.399C58.3923 86.399 58.488 86.434 58.6187 86.504C58.7867 86.5833 58.943 86.644 59.0877 86.686C59.2323 86.7327 59.405 86.756 59.6057 86.756C60.2497 86.756 60.5717 86.4317 60.5717 85.783V85.244C60.4737 85.4493 60.3243 85.6103 60.1237 85.727C59.923 85.839 59.6897 85.895 59.4237 85.895C59.125 85.895 58.859 85.825 58.6257 85.685C58.3923 85.545 58.2103 85.3467 58.0797 85.09C57.9537 84.8333 57.8907 84.537 57.8907 84.201C57.8907 83.865 57.956 83.5687 58.0867 83.312C58.2173 83.0553 58.397 82.857 58.6257 82.717C58.859 82.5723 59.125 82.5 59.4237 82.5C59.685 82.5 59.9137 82.556 60.1097 82.668C60.3103 82.78 60.462 82.9387 60.5647 83.144V82.85C60.5647 82.7473 60.595 82.6657 60.6557 82.605C60.721 82.5443 60.8073 82.514 60.9147 82.514ZM59.5917 85.335C59.895 85.335 60.133 85.2347 60.3057 85.034C60.4783 84.8333 60.5647 84.5557 60.5647 84.201C60.5647 83.851 60.4783 83.5757 60.3057 83.375C60.1377 83.1697 59.8997 83.067 59.5917 83.067C59.2837 83.067 59.041 83.1673 58.8637 83.368C58.691 83.5687 58.6047 83.8463 58.6047 84.201C58.6047 84.5557 58.6933 84.8333 58.8707 85.034C59.048 85.2347 59.2883 85.335 59.5917 85.335ZM68.0085 81.03C68.1158 81.03 68.2021 81.065 68.2675 81.135C68.3328 81.2003 68.3655 81.2867 68.3655 81.394V85.671C68.3655 85.7783 68.3328 85.867 68.2675 85.937C68.2021 86.0023 68.1158 86.035 68.0085 86.035C67.9011 86.035 67.8148 86.0023 67.7495 85.937C67.6841 85.8717 67.6515 85.783 67.6515 85.671V83.788H64.8935V85.671C64.8935 85.7783 64.8608 85.867 64.7955 85.937C64.7301 86.0023 64.6438 86.035 64.5365 86.035C64.4291 86.035 64.3428 86.0023 64.2775 85.937C64.2121 85.8717 64.1795 85.783 64.1795 85.671V81.394C64.1795 81.2867 64.2121 81.2003 64.2775 81.135C64.3428 81.065 64.4291 81.03 64.5365 81.03C64.6438 81.03 64.7301 81.065 64.7955 81.135C64.8608 81.2003 64.8935 81.2867 64.8935 81.394V83.2H67.6515V81.394C67.6515 81.2867 67.6841 81.2003 67.7495 81.135C67.8148 81.065 67.9011 81.03 68.0085 81.03ZM70.8625 82.5C71.3152 82.5 71.6512 82.6143 71.8705 82.843C72.0945 83.0717 72.2065 83.4193 72.2065 83.886V85.699C72.2065 85.8063 72.1762 85.8903 72.1155 85.951C72.0548 86.007 71.9708 86.035 71.8635 86.035C71.7608 86.035 71.6792 86.0047 71.6185 85.944C71.5578 85.8833 71.5275 85.8017 71.5275 85.699V85.44C71.4388 85.636 71.3058 85.7877 71.1285 85.895C70.9558 85.9977 70.7528 86.049 70.5195 86.049C70.2955 86.049 70.0902 86.0047 69.9035 85.916C69.7215 85.8227 69.5768 85.6967 69.4695 85.538C69.3622 85.3793 69.3085 85.1997 69.3085 84.999C69.3038 84.747 69.3668 84.551 69.4975 84.411C69.6282 84.2663 69.8405 84.1637 70.1345 84.103C70.4285 84.0377 70.8368 84.005 71.3595 84.005H71.5205V83.802C71.5205 83.5407 71.4668 83.3517 71.3595 83.235C71.2522 83.1183 71.0795 83.06 70.8415 83.06C70.6782 83.06 70.5242 83.081 70.3795 83.123C70.2348 83.165 70.0762 83.2257 69.9035 83.305C69.7775 83.375 69.6888 83.41 69.6375 83.41C69.5675 83.41 69.5092 83.3843 69.4625 83.333C69.4205 83.2817 69.3995 83.2163 69.3995 83.137C69.3995 83.067 69.4182 83.0063 69.4555 82.955C69.4975 82.899 69.5628 82.8453 69.6515 82.794C69.8148 82.7053 70.0062 82.6353 70.2255 82.584C70.4448 82.528 70.6572 82.5 70.8625 82.5ZM70.6455 85.524C70.9022 85.524 71.1122 85.4377 71.2755 85.265C71.4388 85.0877 71.5205 84.8613 71.5205 84.586V84.404H71.3945C71.0305 84.404 70.7505 84.4203 70.5545 84.453C70.3585 84.4857 70.2185 84.5417 70.1345 84.621C70.0505 84.6957 70.0085 84.8053 70.0085 84.95C70.0085 85.118 70.0692 85.2557 70.1905 85.363C70.3118 85.4703 70.4635 85.524 70.6455 85.524ZM75.0146 82.5C75.8313 82.5 76.2396 82.9597 76.2396 83.879V85.699C76.2396 85.8063 76.2069 85.8903 76.1416 85.951C76.0809 86.007 75.9946 86.035 75.8826 86.035C75.7753 86.035 75.6889 86.0047 75.6236 85.944C75.5629 85.8833 75.5326 85.8017 75.5326 85.699V83.914C75.5326 83.6247 75.4743 83.4123 75.3576 83.277C75.2456 83.1417 75.0683 83.074 74.8256 83.074C74.5409 83.074 74.3123 83.1627 74.1396 83.34C73.9669 83.5173 73.8806 83.7553 73.8806 84.054V85.699C73.8806 85.8017 73.8479 85.8833 73.7826 85.944C73.7219 86.0047 73.6379 86.035 73.5306 86.035C73.4233 86.035 73.3369 86.0047 73.2716 85.944C73.2063 85.8833 73.1736 85.8017 73.1736 85.699V82.85C73.1736 82.752 73.2063 82.6727 73.2716 82.612C73.3416 82.5467 73.4279 82.514 73.5306 82.514C73.6333 82.514 73.7149 82.5443 73.7756 82.605C73.8363 82.6657 73.8666 82.745 73.8666 82.843V83.13C73.9786 82.9247 74.1349 82.7683 74.3356 82.661C74.5363 82.5537 74.7626 82.5 75.0146 82.5ZM79.9998 81.03C80.1071 81.03 80.1935 81.0603 80.2588 81.121C80.3241 81.1817 80.3568 81.2633 80.3568 81.366V85.692C80.3568 85.7993 80.3241 85.8833 80.2588 85.944C80.1981 86.0047 80.1141 86.035 80.0068 86.035C79.8995 86.035 79.8131 86.0047 79.7478 85.944C79.6871 85.8833 79.6568 85.7993 79.6568 85.692V85.412C79.5541 85.6173 79.4048 85.776 79.2088 85.888C79.0128 85.9953 78.7865 86.049 78.5298 86.049C78.2358 86.049 77.9721 85.9743 77.7388 85.825C77.5101 85.6757 77.3305 85.4657 77.1998 85.195C77.0738 84.9243 77.0108 84.614 77.0108 84.264C77.0108 83.9093 77.0738 83.599 77.1998 83.333C77.3305 83.067 77.5101 82.8617 77.7388 82.717C77.9675 82.5723 78.2311 82.5 78.5298 82.5C78.7865 82.5 79.0105 82.556 79.2018 82.668C79.3978 82.7753 79.5471 82.9293 79.6498 83.13V81.352C79.6498 81.254 79.6801 81.177 79.7408 81.121C79.8061 81.0603 79.8925 81.03 79.9998 81.03ZM78.6978 85.489C79.0011 85.489 79.2368 85.384 79.4048 85.174C79.5728 84.964 79.6568 84.6653 79.6568 84.278C79.6568 83.8907 79.5728 83.592 79.4048 83.382C79.2415 83.172 79.0058 83.067 78.6978 83.067C78.3898 83.067 78.1495 83.172 77.9768 83.382C77.8088 83.5873 77.7248 83.8813 77.7248 84.264C77.7248 84.6467 77.8111 84.9477 77.9838 85.167C78.1565 85.3817 78.3945 85.489 78.6978 85.489ZM82.5325 86.049C82.0565 86.049 81.6669 85.951 81.3635 85.755C81.2795 85.7037 81.2189 85.65 81.1815 85.594C81.1489 85.538 81.1325 85.475 81.1325 85.405C81.1325 85.3303 81.1535 85.2673 81.1955 85.216C81.2375 85.1647 81.2912 85.139 81.3565 85.139C81.4172 85.139 81.5129 85.1763 81.6435 85.251C81.7835 85.3257 81.9189 85.3863 82.0495 85.433C82.1849 85.4797 82.3529 85.503 82.5535 85.503C82.7775 85.503 82.9525 85.4633 83.0785 85.384C83.2045 85.3047 83.2675 85.1927 83.2675 85.048C83.2675 84.9547 83.2419 84.88 83.1905 84.824C83.1439 84.768 83.0599 84.719 82.9385 84.677C82.8172 84.6303 82.6375 84.5813 82.3995 84.53C81.9889 84.4413 81.6925 84.3223 81.5105 84.173C81.3332 84.019 81.2445 83.8113 81.2445 83.55C81.2445 83.3493 81.3029 83.1697 81.4195 83.011C81.5362 82.8477 81.6972 82.7217 81.9025 82.633C82.1079 82.5443 82.3412 82.5 82.6025 82.5C82.7892 82.5 82.9712 82.5257 83.1485 82.577C83.3259 82.6237 83.4822 82.6937 83.6175 82.787C83.7715 82.8897 83.8485 83.0087 83.8485 83.144C83.8485 83.2187 83.8252 83.2817 83.7785 83.333C83.7365 83.3843 83.6852 83.41 83.6245 83.41C83.5825 83.41 83.5405 83.4007 83.4985 83.382C83.4565 83.3633 83.4005 83.333 83.3305 83.291C83.2045 83.2163 83.0855 83.158 82.9735 83.116C82.8662 83.074 82.7309 83.053 82.5675 83.053C82.3715 83.053 82.2129 83.095 82.0915 83.179C81.9749 83.263 81.9165 83.3773 81.9165 83.522C81.9165 83.6527 81.9702 83.7553 82.0775 83.83C82.1895 83.9 82.3972 83.9677 82.7005 84.033C83.0132 84.0983 83.2582 84.173 83.4355 84.257C83.6129 84.341 83.7389 84.446 83.8135 84.572C83.8929 84.6933 83.9325 84.8497 83.9325 85.041C83.9325 85.3443 83.8042 85.5893 83.5475 85.776C83.2955 85.958 82.9572 86.049 82.5325 86.049Z" fill="#B8C0CC"/>
<path d="M39.114 120.035C39.0067 120.035 38.918 120.002 38.848 119.937C38.7827 119.867 38.75 119.778 38.75 119.671V115.667H37.35C37.126 115.667 37.014 115.567 37.014 115.366C37.014 115.268 37.042 115.193 37.098 115.142C37.1587 115.091 37.2427 115.065 37.35 115.065H40.878C40.9853 115.065 41.067 115.091 41.123 115.142C41.1837 115.193 41.214 115.268 41.214 115.366C41.214 115.567 41.102 115.667 40.878 115.667H39.478V119.671C39.478 119.778 39.4453 119.867 39.38 119.937C39.3147 120.002 39.226 120.035 39.114 120.035ZM43.9591 116.5C44.7711 116.5 45.1771 116.96 45.1771 117.879V119.699C45.1771 119.802 45.1444 119.883 45.0791 119.944C45.0138 120.005 44.9274 120.035 44.8201 120.035C44.7128 120.035 44.6264 120.005 44.5611 119.944C44.5004 119.883 44.4701 119.802 44.4701 119.699V117.886C44.4701 117.606 44.4118 117.401 44.2951 117.27C44.1831 117.139 44.0058 117.074 43.7631 117.074C43.4784 117.074 43.2498 117.163 43.0771 117.34C42.9044 117.517 42.8181 117.755 42.8181 118.054V119.699C42.8181 119.802 42.7854 119.883 42.7201 119.944C42.6594 120.005 42.5754 120.035 42.4681 120.035C42.3608 120.035 42.2744 120.005 42.2091 119.944C42.1438 119.883 42.1111 119.802 42.1111 119.699V115.366C42.1111 115.263 42.1438 115.182 42.2091 115.121C42.2791 115.06 42.3678 115.03 42.4751 115.03C42.5778 115.03 42.6594 115.06 42.7201 115.121C42.7854 115.177 42.8181 115.254 42.8181 115.352V117.102C42.9348 116.906 43.0911 116.757 43.2871 116.654C43.4831 116.551 43.7071 116.5 43.9591 116.5ZM48.8183 119.139C48.8836 119.139 48.9373 119.165 48.9793 119.216C49.0213 119.267 49.0423 119.333 49.0423 119.412C49.0423 119.547 48.9583 119.662 48.7903 119.755C48.627 119.848 48.4473 119.921 48.2513 119.972C48.06 120.023 47.8756 120.049 47.6983 120.049C47.157 120.049 46.73 119.893 46.4173 119.58C46.1046 119.263 45.9483 118.831 45.9483 118.285C45.9483 117.935 46.016 117.625 46.1513 117.354C46.2913 117.083 46.485 116.873 46.7323 116.724C46.9843 116.575 47.269 116.5 47.5863 116.5C48.0436 116.5 48.4053 116.647 48.6713 116.941C48.9373 117.235 49.0703 117.632 49.0703 118.131C49.0703 118.318 48.9863 118.411 48.8183 118.411H46.6553C46.702 119.134 47.0496 119.496 47.6983 119.496C47.871 119.496 48.0203 119.473 48.1463 119.426C48.2723 119.379 48.4053 119.319 48.5453 119.244C48.5593 119.235 48.5966 119.216 48.6573 119.188C48.7226 119.155 48.7763 119.139 48.8183 119.139ZM47.6003 117.018C47.3296 117.018 47.1126 117.104 46.9493 117.277C46.786 117.45 46.688 117.692 46.6553 118.005H48.4613C48.4473 117.688 48.3656 117.445 48.2163 117.277C48.0716 117.104 47.8663 117.018 47.6003 117.018ZM55.6081 115.03C55.7154 115.03 55.8017 115.065 55.8671 115.135C55.9324 115.2 55.9651 115.287 55.9651 115.394V119.671C55.9651 119.778 55.9324 119.867 55.8671 119.937C55.8017 120.002 55.7154 120.035 55.6081 120.035C55.5007 120.035 55.4144 120.002 55.3491 119.937C55.2837 119.872 55.2511 119.783 55.2511 119.671V117.788H52.4931V119.671C52.4931 119.778 52.4604 119.867 52.3951 119.937C52.3297 120.002 52.2434 120.035 52.1361 120.035C52.0287 120.035 51.9424 120.002 51.8771 119.937C51.8117 119.872 51.7791 119.783 51.7791 119.671V115.394C51.7791 115.287 51.8117 115.2 51.8771 115.135C51.9424 115.065 52.0287 115.03 52.1361 115.03C52.2434 115.03 52.3297 115.065 52.3951 115.135C52.4604 115.2 52.4931 115.287 52.4931 115.394V117.2H55.2511V115.394C55.2511 115.287 55.2837 115.2 55.3491 115.135C55.4144 115.065 55.5007 115.03 55.6081 115.03ZM59.7011 119.139C59.7664 119.139 59.8201 119.165 59.8621 119.216C59.9041 119.267 59.9251 119.333 59.9251 119.412C59.9251 119.547 59.8411 119.662 59.6731 119.755C59.5098 119.848 59.3301 119.921 59.1341 119.972C58.9428 120.023 58.7584 120.049 58.5811 120.049C58.0398 120.049 57.6128 119.893 57.3001 119.58C56.9874 119.263 56.8311 118.831 56.8311 118.285C56.8311 117.935 56.8988 117.625 57.0341 117.354C57.1741 117.083 57.3678 116.873 57.6151 116.724C57.8671 116.575 58.1518 116.5 58.4691 116.5C58.9264 116.5 59.2881 116.647 59.5541 116.941C59.8201 117.235 59.9531 117.632 59.9531 118.131C59.9531 118.318 59.8691 118.411 59.7011 118.411H57.5381C57.5848 119.134 57.9324 119.496 58.5811 119.496C58.7538 119.496 58.9031 119.473 59.0291 119.426C59.1551 119.379 59.2881 119.319 59.4281 119.244C59.4421 119.235 59.4794 119.216 59.5401 119.188C59.6054 119.155 59.6591 119.139 59.7011 119.139ZM58.4831 117.018C58.2124 117.018 57.9954 117.104 57.8321 117.277C57.6688 117.45 57.5708 117.692 57.5381 118.005H59.3441C59.3301 117.688 59.2484 117.445 59.0991 117.277C58.9544 117.104 58.7491 117.018 58.4831 117.018ZM62.1672 116.5C62.6199 116.5 62.9559 116.614 63.1752 116.843C63.3992 117.072 63.5112 117.419 63.5112 117.886V119.699C63.5112 119.806 63.4809 119.89 63.4202 119.951C63.3595 120.007 63.2755 120.035 63.1682 120.035C63.0655 120.035 62.9839 120.005 62.9232 119.944C62.8625 119.883 62.8322 119.802 62.8322 119.699V119.44C62.7435 119.636 62.6105 119.788 62.4332 119.895C62.2605 119.998 62.0575 120.049 61.8242 120.049C61.6002 120.049 61.3949 120.005 61.2082 119.916C61.0262 119.823 60.8815 119.697 60.7742 119.538C60.6669 119.379 60.6132 119.2 60.6132 118.999C60.6085 118.747 60.6715 118.551 60.8022 118.411C60.9329 118.266 61.1452 118.164 61.4392 118.103C61.7332 118.038 62.1415 118.005 62.6642 118.005H62.8252V117.802C62.8252 117.541 62.7715 117.352 62.6642 117.235C62.5569 117.118 62.3842 117.06 62.1462 117.06C61.9829 117.06 61.8289 117.081 61.6842 117.123C61.5395 117.165 61.3809 117.226 61.2082 117.305C61.0822 117.375 60.9935 117.41 60.9422 117.41C60.8722 117.41 60.8139 117.384 60.7672 117.333C60.7252 117.282 60.7042 117.216 60.7042 117.137C60.7042 117.067 60.7229 117.006 60.7602 116.955C60.8022 116.899 60.8675 116.845 60.9562 116.794C61.1195 116.705 61.3109 116.635 61.5302 116.584C61.7495 116.528 61.9619 116.5 62.1672 116.5ZM61.9502 119.524C62.2069 119.524 62.4169 119.438 62.5802 119.265C62.7435 119.088 62.8252 118.861 62.8252 118.586V118.404H62.6992C62.3352 118.404 62.0552 118.42 61.8592 118.453C61.6632 118.486 61.5232 118.542 61.4392 118.621C61.3552 118.696 61.3132 118.805 61.3132 118.95C61.3132 119.118 61.3739 119.256 61.4952 119.363C61.6165 119.47 61.7682 119.524 61.9502 119.524ZM64.8353 120.035C64.7326 120.035 64.6463 120.007 64.5763 119.951C64.5109 119.895 64.4783 119.811 64.4783 119.699V115.373C64.4783 115.261 64.5109 115.177 64.5763 115.121C64.6463 115.06 64.7326 115.03 64.8353 115.03C64.9379 115.03 65.0219 115.06 65.0873 115.121C65.1526 115.177 65.1853 115.261 65.1853 115.373V119.699C65.1853 119.811 65.1526 119.895 65.0873 119.951C65.0219 120.007 64.9379 120.035 64.8353 120.035ZM66.5306 120.035C66.4279 120.035 66.3416 120.007 66.2716 119.951C66.2063 119.895 66.1736 119.811 66.1736 119.699V116.857C66.1736 116.745 66.2063 116.661 66.2716 116.605C66.3416 116.544 66.4279 116.514 66.5306 116.514C66.6333 116.514 66.7173 116.544 66.7826 116.605C66.8479 116.661 66.8806 116.745 66.8806 116.857V119.699C66.8806 119.811 66.8479 119.895 66.7826 119.951C66.7173 120.007 66.6333 120.035 66.5306 120.035ZM66.5306 115.828C66.3953 115.828 66.2879 115.791 66.2086 115.716C66.1293 115.641 66.0896 115.543 66.0896 115.422C66.0896 115.301 66.1293 115.205 66.2086 115.135C66.2879 115.06 66.3953 115.023 66.5306 115.023C66.6613 115.023 66.7663 115.06 66.8456 115.135C66.9296 115.205 66.9716 115.301 66.9716 115.422C66.9716 115.543 66.9319 115.641 66.8526 115.716C66.7733 115.791 66.6659 115.828 66.5306 115.828ZM69.7099 116.5C70.5266 116.5 70.9349 116.96 70.9349 117.879V119.699C70.9349 119.806 70.9022 119.89 70.8369 119.951C70.7762 120.007 70.6899 120.035 70.5779 120.035C70.4706 120.035 70.3842 120.005 70.3189 119.944C70.2582 119.883 70.2279 119.802 70.2279 119.699V117.914C70.2279 117.625 70.1696 117.412 70.0529 117.277C69.9409 117.142 69.7636 117.074 69.5209 117.074C69.2362 117.074 69.0076 117.163 68.8349 117.34C68.6622 117.517 68.5759 117.755 68.5759 118.054V119.699C68.5759 119.802 68.5432 119.883 68.4779 119.944C68.4172 120.005 68.3332 120.035 68.2259 120.035C68.1186 120.035 68.0322 120.005 67.9669 119.944C67.9016 119.883 67.8689 119.802 67.8689 119.699V116.85C67.8689 116.752 67.9016 116.673 67.9669 116.612C68.0369 116.547 68.1232 116.514 68.2259 116.514C68.3286 116.514 68.4102 116.544 68.4709 116.605C68.5316 116.666 68.5619 116.745 68.5619 116.843V117.13C68.6739 116.925 68.8302 116.768 69.0309 116.661C69.2316 116.554 69.4579 116.5 69.7099 116.5ZM74.7301 116.514C74.8374 116.514 74.9214 116.547 74.9821 116.612C75.0474 116.673 75.0801 116.754 75.0801 116.857V119.727C75.0801 120.25 74.9401 120.644 74.6601 120.91C74.3848 121.176 73.9764 121.309 73.4351 121.309C72.9311 121.309 72.5111 121.213 72.1751 121.022C72.0024 120.924 71.9161 120.807 71.9161 120.672C71.9161 120.593 71.9371 120.527 71.9791 120.476C72.0258 120.425 72.0818 120.399 72.1471 120.399C72.2078 120.399 72.3034 120.434 72.4341 120.504C72.6021 120.583 72.7584 120.644 72.9031 120.686C73.0478 120.733 73.2204 120.756 73.4211 120.756C74.0651 120.756 74.3871 120.432 74.3871 119.783V119.244C74.2891 119.449 74.1398 119.61 73.9391 119.727C73.7384 119.839 73.5051 119.895 73.2391 119.895C72.9404 119.895 72.6744 119.825 72.4411 119.685C72.2078 119.545 72.0258 119.347 71.8951 119.09C71.7691 118.833 71.7061 118.537 71.7061 118.201C71.7061 117.865 71.7714 117.569 71.9021 117.312C72.0328 117.055 72.2124 116.857 72.4411 116.717C72.6744 116.572 72.9404 116.5 73.2391 116.5C73.5004 116.5 73.7291 116.556 73.9251 116.668C74.1258 116.78 74.2774 116.939 74.3801 117.144V116.85C74.3801 116.747 74.4104 116.666 74.4711 116.605C74.5364 116.544 74.6228 116.514 74.7301 116.514ZM73.4071 119.335C73.7104 119.335 73.9484 119.235 74.1211 119.034C74.2938 118.833 74.3801 118.556 74.3801 118.201C74.3801 117.851 74.2938 117.576 74.1211 117.375C73.9531 117.17 73.7151 117.067 73.4071 117.067C73.0991 117.067 72.8564 117.167 72.6791 117.368C72.5064 117.569 72.4201 117.846 72.4201 118.201C72.4201 118.556 72.5088 118.833 72.6861 119.034C72.8634 119.235 73.1038 119.335 73.4071 119.335Z" fill="#B8C0CC"/>
<path d="M26.7799 36.7959H152.302" stroke="#F2F2F2" stroke-miterlimit="10"/>
<path d="M26.7799 71.823H152.302" stroke="#F2F2F2" stroke-miterlimit="10"/>
<path d="M98.0709 56.3809H38.3979C37.4237 56.3809 36.6339 57.1706 36.6339 58.1449V58.8069C36.6339 59.7811 37.4237 60.5709 38.3979 60.5709H98.0709C99.0451 60.5709 99.8349 59.7811 99.8349 58.8069V58.1449C99.8349 57.1706 99.0451 56.3809 98.0709 56.3809Z" fill="#EAEFF4"/>
<path d="M137.465 45.2701H136.981V44.2991H136.01V45.2701H131.156V44.2991H130.186V45.2701H129.7C129.443 45.2709 129.196 45.3733 129.015 45.555C128.833 45.7367 128.73 45.983 128.729 46.2401V54.0061C128.73 54.2633 128.832 54.5097 129.014 54.6914C129.196 54.8732 129.443 54.9755 129.7 54.9761H137.465C137.722 54.9755 137.969 54.8732 138.151 54.6914C138.332 54.5097 138.435 54.2633 138.436 54.0061V46.2421C138.435 45.9846 138.333 45.7378 138.151 45.5557C137.969 45.3736 137.722 45.2709 137.465 45.2701ZM137.465 54.0071H129.7V47.6971H137.465V54.0071Z" fill="#1ABC94"/>
<path d="M132.498 48.917H131.056V50.359H132.498V48.917Z" fill="#1ABC94"/>
<path d="M129.57 94.3788V91.5388H130.554C130.719 91.5347 130.883 91.5654 131.036 91.6288C131.162 91.6811 131.271 91.7677 131.35 91.8788C131.426 91.9936 131.465 92.1291 131.462 92.2668C131.464 92.3932 131.432 92.5178 131.368 92.6268C131.303 92.7325 131.21 92.8173 131.098 92.8708C131.242 92.9185 131.367 93.0119 131.454 93.1368C131.542 93.267 131.587 93.4217 131.582 93.5788C131.585 93.7296 131.542 93.8777 131.458 94.0028C131.37 94.1272 131.248 94.2242 131.108 94.2828C130.939 94.3531 130.757 94.3871 130.574 94.3828L129.57 94.3788ZM130.042 91.9548V92.7068H130.51C130.633 92.7137 130.754 92.6784 130.854 92.6068C130.894 92.5729 130.926 92.5298 130.947 92.4812C130.968 92.4325 130.977 92.3796 130.974 92.3268C130.976 92.2745 130.967 92.2223 130.945 92.1744C130.924 92.1265 130.892 92.0842 130.852 92.0508C130.753 91.9786 130.632 91.9433 130.51 91.9508L130.042 91.9548ZM130.042 93.9628H130.554C130.696 93.9727 130.838 93.9324 130.954 93.8488C130.999 93.8106 131.035 93.7624 131.059 93.7079C131.082 93.6534 131.093 93.5941 131.09 93.5348C131.093 93.4742 131.082 93.4137 131.058 93.3581C131.034 93.3025 130.997 93.2534 130.95 93.2148C130.833 93.1326 130.692 93.0931 130.55 93.1028H130.042V93.9628ZM132.978 94.4388C132.833 94.4402 132.69 94.4124 132.556 94.3568C132.428 94.3035 132.313 94.2245 132.218 94.1248C132.119 94.0236 132.042 93.904 131.99 93.7728C131.935 93.6319 131.908 93.4819 131.91 93.3308C131.908 93.1811 131.936 93.0324 131.99 92.8928C132.041 92.7616 132.118 92.6419 132.216 92.5408C132.313 92.4407 132.43 92.3617 132.56 92.3088C132.696 92.2533 132.842 92.2254 132.99 92.2268C133.135 92.2254 133.278 92.2533 133.412 92.3088C133.539 92.3622 133.654 92.4411 133.75 92.5408C133.846 92.6419 133.923 92.7607 133.974 92.8908C134.028 93.031 134.056 93.1804 134.054 93.3308C134.055 93.4819 134.028 93.6319 133.974 93.7728C133.923 93.9041 133.846 94.0237 133.748 94.1248C133.65 94.225 133.533 94.3039 133.404 94.3568C133.269 94.4118 133.124 94.4397 132.978 94.4388ZM132.99 94.0228C133.096 94.0228 133.201 93.9915 133.29 93.9328C133.382 93.8714 133.456 93.7864 133.504 93.6868C133.56 93.5766 133.59 93.4546 133.59 93.3308C133.591 93.2087 133.563 93.088 133.508 92.9788C133.458 92.8788 133.383 92.7939 133.29 92.7328C133.198 92.6727 133.091 92.6413 132.982 92.6428C132.872 92.6413 132.765 92.6727 132.674 92.7328C132.582 92.7939 132.508 92.878 132.46 92.9768C132.406 93.087 132.379 93.2083 132.382 93.3308C132.38 93.454 132.406 93.5759 132.46 93.6868C132.508 93.7864 132.582 93.8714 132.674 93.9328C132.767 93.9946 132.878 94.026 132.99 94.0228ZM135.454 94.4388C135.309 94.4402 135.166 94.4124 135.032 94.3568C134.903 94.304 134.787 94.225 134.69 94.1248C134.594 94.0229 134.52 93.9034 134.47 93.7728C134.415 93.6319 134.388 93.4819 134.39 93.3308C134.388 93.1811 134.416 93.0324 134.47 92.8928C134.521 92.7616 134.598 92.6419 134.696 92.5408C134.793 92.4407 134.91 92.3617 135.04 92.3088C135.176 92.2533 135.322 92.2254 135.47 92.2268C135.614 92.2257 135.757 92.2536 135.89 92.3088C136.017 92.3622 136.132 92.4411 136.228 92.5408C136.324 92.6419 136.401 92.7607 136.452 92.8908C136.506 93.031 136.534 93.1804 136.532 93.3308C136.533 93.4819 136.506 93.6319 136.452 93.7728C136.401 93.9041 136.324 94.0237 136.226 94.1248C136.128 94.225 136.011 94.3039 135.882 94.3568C135.746 94.4121 135.601 94.44 135.454 94.4388ZM135.462 94.0228C135.571 94.0244 135.678 93.993 135.77 93.9328C135.862 93.8714 135.936 93.7864 135.984 93.6868C136.037 93.5759 136.064 93.454 136.062 93.3308C136.064 93.209 136.037 93.0884 135.984 92.9788C135.935 92.88 135.861 92.7959 135.77 92.7348C135.678 92.6747 135.571 92.6433 135.462 92.6448C135.352 92.6433 135.245 92.6747 135.154 92.7348C135.062 92.7959 134.988 92.88 134.94 92.9788C134.886 93.089 134.859 93.2103 134.862 93.3328C134.86 93.456 134.886 93.5779 134.94 93.6888C134.988 93.7884 135.062 93.8734 135.154 93.9348C135.245 93.9943 135.353 94.025 135.462 94.0228ZM136.938 94.3788V91.4028H137.398V93.1508L138.254 92.2868H138.814L137.874 93.2148L138.91 94.3788H138.31L137.398 93.3228V94.3788H136.938Z" fill="#1ABC94"/>
<path d="M26.7799 105.998H152.302" stroke="#F2F2F2" stroke-miterlimit="10"/>
<path d="M98.0709 91.3198H38.3979C37.4237 91.3198 36.6339 92.1096 36.6339 93.0838V93.7458C36.6339 94.7201 37.4237 95.5098 38.3979 95.5098H98.0709C99.0451 95.5098 99.8349 94.7201 99.8349 93.7458V93.0838C99.8349 92.1096 99.0451 91.3198 98.0709 91.3198Z" fill="#EAEFF4"/>
<path d="M98.0709 124.887H38.3979C37.4237 124.887 36.6339 125.677 36.6339 126.651V127.313C36.6339 128.287 37.4237 129.077 38.3979 129.077H98.0709C99.0451 129.077 99.8349 128.287 99.8349 127.313V126.651C99.8349 125.677 99.0451 124.887 98.0709 124.887Z" fill="#EAEFF4"/>
<path d="M41.0579 154.774C41.0995 154.832 41.1216 154.902 41.1209 154.974C41.1214 155.015 41.1126 155.055 41.0953 155.092C41.078 155.129 41.0526 155.162 41.0209 155.188C40.9565 155.245 40.8731 155.277 40.7869 155.276C40.7237 155.277 40.6615 155.261 40.6063 155.23C40.5511 155.199 40.5047 155.155 40.4719 155.101L39.5339 153.64C39.4503 153.496 39.3325 153.374 39.1909 153.286C39.0432 153.213 38.8794 153.178 38.7149 153.186H37.9219V154.893C37.9244 154.941 37.9173 154.99 37.901 155.035C37.8847 155.081 37.8595 155.123 37.8269 155.159C37.7924 155.193 37.7512 155.22 37.7059 155.237C37.6606 155.254 37.6123 155.262 37.5639 155.259C37.5162 155.261 37.4686 155.253 37.424 155.236C37.3795 155.219 37.3389 155.192 37.3049 155.159C37.271 155.124 37.2446 155.082 37.2274 155.036C37.2102 154.991 37.2026 154.942 37.2049 154.893V150.637C37.203 150.59 37.2107 150.543 37.2276 150.499C37.2444 150.456 37.27 150.416 37.3029 150.382C37.3379 150.349 37.3791 150.324 37.4242 150.308C37.4692 150.291 37.517 150.284 37.5649 150.287H39.3079C39.7542 150.256 40.1968 150.385 40.5569 150.651C40.7045 150.784 40.82 150.949 40.8946 151.133C40.9693 151.318 41.0011 151.517 40.9879 151.715C41.0034 152.06 40.8855 152.397 40.6589 152.657C40.4083 152.913 40.077 153.075 39.7209 153.116C39.8423 153.149 39.9548 153.209 40.0499 153.291C40.1625 153.393 40.2593 153.511 40.3369 153.641L41.0579 154.774ZM39.2239 152.604C39.5103 152.626 39.7959 152.551 40.0339 152.39C40.1255 152.307 40.1969 152.205 40.2423 152.09C40.2878 151.976 40.3061 151.852 40.2959 151.729C40.3062 151.607 40.2879 151.484 40.2424 151.37C40.1969 151.257 40.1255 151.155 40.0339 151.074C39.7935 150.917 39.508 150.844 39.2219 150.867H37.9149V152.603L39.2239 152.604ZM43.4339 155.271C43.1249 155.278 42.8197 155.203 42.5489 155.054C42.2956 154.91 42.0909 154.695 41.9609 154.434C41.8181 154.144 41.7471 153.823 41.7539 153.5C41.7464 153.174 41.8174 152.851 41.9609 152.558C42.091 152.298 42.2957 152.082 42.5489 151.939C42.8197 151.79 43.1249 151.715 43.4339 151.722C43.7428 151.715 44.048 151.79 44.3189 151.939C44.572 152.082 44.7767 152.298 44.9069 152.558C45.0503 152.851 45.1213 153.174 45.1139 153.5C45.1207 153.823 45.0497 154.144 44.9069 154.434C44.7769 154.695 44.5722 154.91 44.3189 155.054C44.048 155.203 43.7428 155.278 43.4339 155.271ZM43.4339 154.711C43.5693 154.719 43.7048 154.696 43.8295 154.642C43.9542 154.589 44.0646 154.507 44.1519 154.403C44.3342 154.14 44.4216 153.822 44.3999 153.503C44.4214 153.183 44.3325 152.865 44.1479 152.603C44.0617 152.498 43.9522 152.416 43.8282 152.361C43.7042 152.307 43.5691 152.282 43.4339 152.289C43.2988 152.282 43.1638 152.306 43.0398 152.36C42.9158 152.414 42.8062 152.497 42.7199 152.601C42.5353 152.863 42.4463 153.181 42.4679 153.501C42.4464 153.821 42.5342 154.138 42.7169 154.401C42.8038 154.505 42.914 154.587 43.0385 154.641C43.163 154.695 43.2984 154.719 43.4339 154.711ZM48.2779 151.946C48.3004 151.883 48.3433 151.828 48.3999 151.792C48.4515 151.76 48.5111 151.743 48.5719 151.743C48.6586 151.742 48.7423 151.775 48.8059 151.834C48.8374 151.861 48.8627 151.894 48.88 151.931C48.8973 151.969 48.9061 152.01 48.9059 152.051C48.906 152.097 48.8965 152.142 48.8779 152.184L46.9339 156.314C46.9094 156.375 46.8668 156.428 46.8119 156.465C46.7611 156.499 46.7012 156.518 46.6399 156.518C46.5566 156.518 46.476 156.488 46.4129 156.434C46.3812 156.409 46.3556 156.377 46.3383 156.341C46.3209 156.304 46.3122 156.264 46.3129 156.224C46.3155 156.176 46.3274 156.128 46.3479 156.084L46.8339 155.054L45.4819 152.184C45.4628 152.145 45.4532 152.102 45.4539 152.058C45.4537 152.014 45.4638 151.972 45.4832 151.933C45.5027 151.894 45.531 151.86 45.5659 151.834C45.6364 151.775 45.7257 151.743 45.8179 151.743C45.8825 151.741 45.9461 151.759 45.9999 151.795C46.0537 151.831 46.095 151.883 46.1179 151.943L47.2039 154.347L48.2779 151.946ZM50.8679 151.722C51.051 151.707 51.2352 151.73 51.4093 151.789C51.5833 151.848 51.7434 151.942 51.8799 152.065C52.1228 152.356 52.242 152.73 52.2119 153.108V154.922C52.2147 154.967 52.208 155.013 52.1924 155.056C52.1767 155.098 52.1524 155.137 52.1209 155.17C52.0518 155.232 51.9612 155.263 51.8689 155.258C51.824 155.26 51.7791 155.253 51.737 155.238C51.6949 155.222 51.6564 155.198 51.6239 155.167C51.593 155.134 51.5692 155.096 51.5537 155.054C51.5382 155.012 51.5315 154.967 51.5339 154.922V154.662C51.4511 154.851 51.3112 155.009 51.1339 155.114C50.948 155.222 50.7359 155.277 50.5209 155.272C50.3077 155.274 50.0969 155.227 49.9049 155.135C49.7264 155.051 49.5751 154.919 49.4679 154.753C49.3632 154.59 49.3086 154.4 49.3109 154.207C49.2992 153.995 49.3681 153.786 49.5039 153.623C49.6795 153.459 49.9024 153.354 50.1409 153.323C50.546 153.25 50.9572 153.216 51.3689 153.222H51.5339V153.022C51.552 152.82 51.4947 152.618 51.3729 152.455C51.3035 152.391 51.2216 152.343 51.1324 152.313C51.0432 152.282 50.9486 152.271 50.8549 152.28C50.6987 152.279 50.5431 152.3 50.3929 152.343C50.23 152.392 50.0709 152.453 49.9169 152.525C49.8366 152.578 49.7459 152.614 49.6509 152.63C49.6182 152.631 49.5858 152.625 49.556 152.611C49.5262 152.598 49.4999 152.578 49.4789 152.553C49.4325 152.497 49.4089 152.426 49.4129 152.353C49.4115 152.286 49.4322 152.221 49.4719 152.168C49.525 152.103 49.5906 152.049 49.6649 152.01C49.845 151.917 50.0362 151.847 50.2339 151.802C50.4426 151.75 50.6568 151.723 50.8719 151.722H50.8679ZM50.6549 154.746C50.7726 154.75 50.8897 154.728 50.9984 154.683C51.1071 154.638 51.2048 154.569 51.2849 154.483C51.4517 154.299 51.5397 154.056 51.5299 153.808V153.622H51.4039C51.123 153.617 50.8422 153.633 50.5639 153.671C50.4112 153.686 50.2658 153.743 50.1439 153.836C50.1003 153.879 50.0666 153.931 50.0448 153.988C50.0231 154.046 50.0139 154.107 50.0179 154.168C50.0157 154.246 50.0308 154.324 50.0623 154.395C50.0938 154.466 50.1408 154.53 50.1999 154.581C50.3253 154.691 50.4878 154.75 50.6549 154.746ZM53.5389 155.257C53.4462 155.261 53.3554 155.231 53.2829 155.173C53.2481 155.141 53.221 155.102 53.2037 155.059C53.1863 155.015 53.1792 154.968 53.1829 154.921V150.595C53.1794 150.548 53.1866 150.5 53.2039 150.456C53.2212 150.411 53.2482 150.372 53.2829 150.339C53.3544 150.279 53.4456 150.248 53.5389 150.251C53.631 150.247 53.721 150.279 53.7909 150.339C53.8252 150.372 53.852 150.412 53.8693 150.456C53.8865 150.5 53.8939 150.548 53.8909 150.595V154.922C53.8941 154.969 53.8868 155.016 53.8695 155.059C53.8522 155.103 53.8253 155.142 53.7909 155.174C53.7198 155.232 53.6302 155.261 53.5389 155.257ZM58.4389 155.278C58.0964 155.28 57.7556 155.23 57.4279 155.131C57.1453 155.053 56.8835 154.913 56.6609 154.722C56.6182 154.688 56.584 154.644 56.561 154.594C56.5379 154.544 56.5266 154.49 56.5279 154.435C56.5257 154.358 56.5505 154.283 56.5979 154.222C56.6171 154.195 56.6423 154.174 56.6715 154.158C56.7007 154.143 56.733 154.135 56.7659 154.135C56.8521 154.143 56.9346 154.174 57.0039 154.226C57.4138 154.532 57.9133 154.695 58.4249 154.688C58.7265 154.706 59.0266 154.633 59.2859 154.478C59.3828 154.412 59.4612 154.322 59.5137 154.217C59.5662 154.112 59.591 153.995 59.5859 153.878C59.5883 153.782 59.5633 153.688 59.5136 153.606C59.464 153.524 59.3919 153.458 59.3059 153.416C59.0198 153.28 58.7173 153.181 58.4059 153.122C58.0756 153.057 57.7522 152.961 57.4399 152.835C57.208 152.743 57.0041 152.592 56.8479 152.398C56.7003 152.195 56.6253 151.949 56.6349 151.698C56.6311 151.427 56.7133 151.161 56.8699 150.939C57.036 150.709 57.2623 150.53 57.5239 150.421C57.827 150.293 58.1537 150.229 58.4829 150.235C58.7941 150.232 59.1038 150.279 59.3999 150.375C59.6649 150.46 59.9084 150.6 60.1139 150.788C60.1575 150.822 60.1928 150.866 60.217 150.915C60.2413 150.965 60.2539 151.02 60.2539 151.075C60.255 151.151 60.2291 151.226 60.1809 151.285C60.1614 151.312 60.1358 151.335 60.1061 151.351C60.0765 151.367 60.0435 151.375 60.0099 151.376C59.926 151.367 59.846 151.336 59.7789 151.285C59.5948 151.139 59.3912 151.02 59.1739 150.931C58.9547 150.854 58.7232 150.817 58.4909 150.823C58.1946 150.805 57.9005 150.882 57.6509 151.043C57.554 151.112 57.4759 151.204 57.4235 151.311C57.3711 151.418 57.3462 151.536 57.3509 151.655C57.3458 151.756 57.3679 151.856 57.4146 151.945C57.4614 152.035 57.5312 152.11 57.6169 152.163C57.8834 152.311 58.1716 152.417 58.4709 152.475C58.8109 152.547 59.1451 152.644 59.4709 152.765C59.7044 152.851 59.9135 152.993 60.0799 153.178C60.2365 153.367 60.3174 153.608 60.3069 153.854C60.3111 154.121 60.2291 154.383 60.0729 154.6C59.9043 154.825 59.6764 154.998 59.4149 155.1C59.1047 155.224 58.7728 155.284 58.4389 155.278ZM62.9609 151.722C63.7729 151.722 64.1789 152.182 64.1789 153.101V154.922C64.1808 154.968 64.1728 155.013 64.1556 155.055C64.1383 155.098 64.1122 155.136 64.0789 155.167C64.0077 155.23 63.9148 155.263 63.8199 155.258C63.7735 155.26 63.7271 155.254 63.6833 155.238C63.6395 155.222 63.5993 155.198 63.5649 155.167C63.5332 155.135 63.5085 155.096 63.4925 155.054C63.4765 155.012 63.4695 154.967 63.4719 154.922V153.108C63.49 152.889 63.4289 152.67 63.2999 152.492C63.2307 152.422 63.147 152.367 63.0546 152.333C62.9621 152.298 62.8632 152.284 62.7649 152.292C62.6383 152.286 62.512 152.307 62.3939 152.353C62.2758 152.399 62.1685 152.469 62.0789 152.558C61.9904 152.654 61.9219 152.766 61.8774 152.889C61.8329 153.011 61.8134 153.142 61.8199 153.272V154.922C61.8222 154.967 61.815 155.012 61.7988 155.054C61.7826 155.097 61.7578 155.135 61.7259 155.167C61.6913 155.198 61.6509 155.222 61.607 155.238C61.563 155.254 61.5164 155.26 61.4699 155.258C61.375 155.263 61.2821 155.23 61.2109 155.167C61.1776 155.136 61.1514 155.098 61.1342 155.055C61.1169 155.013 61.109 154.968 61.1109 154.922V150.588C61.1086 150.542 61.1164 150.497 61.1337 150.454C61.151 150.412 61.1773 150.374 61.2109 150.343C61.2838 150.28 61.3778 150.248 61.4739 150.252C61.5652 150.248 61.6545 150.279 61.7229 150.34C61.7546 150.37 61.7794 150.406 61.7957 150.447C61.8119 150.487 61.8191 150.53 61.8169 150.574V152.322C61.9278 152.131 62.0904 151.976 62.2859 151.874C62.495 151.769 62.7268 151.717 62.9609 151.722ZM66.5799 151.722C66.763 151.707 66.9472 151.73 67.1213 151.789C67.2953 151.848 67.4554 151.942 67.5919 152.065C67.8352 152.356 67.9548 152.73 67.9249 153.108V154.922C67.9277 154.967 67.921 155.013 67.9054 155.056C67.8897 155.098 67.8654 155.137 67.8339 155.17C67.7648 155.232 67.6742 155.263 67.5819 155.258C67.5364 155.261 67.491 155.254 67.4483 155.238C67.4056 155.222 67.3667 155.198 67.3339 155.166C67.3034 155.133 67.2797 155.095 67.2644 155.053C67.2491 155.011 67.2425 154.967 67.2449 154.922V154.662C67.1621 154.851 67.0222 155.009 66.8449 155.114C66.6595 155.221 66.4481 155.276 66.2339 155.271C66.0207 155.273 65.8099 155.226 65.6179 155.134C65.4394 155.05 65.2881 154.918 65.1809 154.752C65.0762 154.589 65.0216 154.399 65.0239 154.206C65.0119 153.994 65.0805 153.785 65.2159 153.622C65.3915 153.458 65.6144 153.353 65.8529 153.322C66.2567 153.249 66.6666 153.216 67.0769 153.222H67.2339V153.022C67.252 152.82 67.1947 152.618 67.0729 152.455C67.0035 152.391 66.9216 152.343 66.8324 152.313C66.7432 152.282 66.6486 152.271 66.5549 152.28C66.3987 152.279 66.2431 152.3 66.0929 152.343C65.93 152.392 65.7709 152.453 65.6169 152.525C65.5366 152.578 65.4459 152.614 65.3509 152.63C65.3182 152.631 65.2858 152.625 65.256 152.611C65.2262 152.598 65.1999 152.578 65.1789 152.553C65.1325 152.497 65.1089 152.426 65.1129 152.353C65.1115 152.286 65.1322 152.221 65.1719 152.168C65.225 152.103 65.2906 152.049 65.3649 152.01C65.5463 151.915 65.7392 151.843 65.9389 151.797C66.1487 151.746 66.364 151.721 66.5799 151.722ZM66.3629 154.746C66.4806 154.75 66.5977 154.728 66.7064 154.683C66.8151 154.638 66.9128 154.569 66.9929 154.483C67.1597 154.299 67.2477 154.056 67.2379 153.808V153.622H67.1119C66.831 153.617 66.5502 153.633 66.2719 153.671C66.1192 153.686 65.9738 153.743 65.8519 153.836C65.8083 153.879 65.7746 153.931 65.7528 153.988C65.7311 154.046 65.7219 154.107 65.7259 154.168C65.7237 154.246 65.7388 154.324 65.7703 154.395C65.8018 154.466 65.8488 154.53 65.9079 154.581C66.0333 154.691 66.1958 154.75 66.3629 154.746ZM71.3189 151.946C71.3417 151.882 71.385 151.828 71.4419 151.792C71.4932 151.76 71.5524 151.743 71.6129 151.743C71.6999 151.742 71.784 151.775 71.8479 151.834C71.8794 151.861 71.9047 151.894 71.922 151.931C71.9393 151.969 71.9481 152.01 71.9479 152.051C71.948 152.097 71.9385 152.142 71.9199 152.184L70.5839 155.022C70.5535 155.094 70.5005 155.155 70.4329 155.194C70.3686 155.233 70.295 155.254 70.2199 155.254C70.1444 155.254 70.0704 155.233 70.0059 155.194C69.9386 155.154 69.886 155.094 69.8559 155.022L68.5189 152.184C68.4993 152.142 68.4897 152.097 68.4909 152.051C68.4913 152.009 68.5017 151.967 68.5211 151.929C68.5406 151.892 68.5686 151.859 68.6029 151.834C68.6734 151.775 68.7627 151.743 68.8549 151.743C68.9192 151.742 68.9823 151.761 69.0358 151.797C69.0894 151.832 69.1309 151.883 69.1549 151.943L70.2409 154.347L71.3189 151.946ZM75.1549 154.361C75.1858 154.36 75.2165 154.367 75.2444 154.381C75.2724 154.394 75.2968 154.414 75.3159 154.438C75.3602 154.495 75.3826 154.566 75.3789 154.638C75.3734 154.713 75.3469 154.785 75.3023 154.846C75.2577 154.906 75.1969 154.953 75.1269 154.981C74.9587 155.076 74.7789 155.149 74.5919 155.198C74.4098 155.246 74.2223 155.271 74.0339 155.271C73.7996 155.283 73.5652 155.248 73.3451 155.167C73.125 155.085 72.9238 154.96 72.7539 154.798C72.5927 154.625 72.4681 154.422 72.3875 154.2C72.3069 153.978 72.272 153.742 72.2849 153.506C72.2788 153.184 72.3498 152.864 72.4919 152.575C72.621 152.314 72.8227 152.095 73.0729 151.945C73.3302 151.794 73.6243 151.716 73.9229 151.721C74.1249 151.711 74.3267 151.745 74.5141 151.822C74.7015 151.898 74.87 152.014 75.0079 152.162C75.2875 152.493 75.4305 152.919 75.4079 153.352C75.4079 153.539 75.3239 153.632 75.1559 153.632H72.9919C73.0385 154.359 73.3859 154.722 74.0339 154.722C74.1862 154.725 74.3378 154.702 74.4819 154.652C74.6191 154.6 74.7528 154.54 74.8819 154.47C74.8959 154.461 74.9345 154.441 74.9979 154.411C75.0459 154.383 75.0995 154.366 75.1549 154.361ZM73.9339 152.24C73.8132 152.235 73.6928 152.255 73.5806 152.3C73.4684 152.344 73.3669 152.412 73.2829 152.499C73.1088 152.701 73.0065 152.955 72.9919 153.222H74.7979C74.802 152.958 74.7167 152.7 74.5559 152.491C74.4777 152.405 74.3811 152.338 74.2735 152.295C74.1658 152.251 74.0497 152.232 73.9339 152.24Z" fill="#B8C0CC"/>
<path d="M98.0709 160.549H38.3979C37.4237 160.549 36.6339 161.339 36.6339 162.313V162.975C36.6339 163.949 37.4237 164.739 38.3979 164.739H98.0709C99.0451 164.739 99.8349 163.949 99.8349 162.975V162.313C99.8349 161.339 99.0451 160.549 98.0709 160.549Z" fill="#EAEFF4"/>
<path d="M137.465 79.7442H136.981V78.7742H136.01V79.7442H131.156V78.7742H130.186V79.7442H129.7C129.443 79.745 129.196 79.8475 129.014 80.0294C128.832 80.2114 128.73 80.4579 128.729 80.7152V88.4822C128.73 88.7393 128.833 88.9855 129.015 89.1673C129.196 89.349 129.443 89.4514 129.7 89.4522H137.465C137.722 89.4514 137.968 89.349 138.15 89.1673C138.332 88.9855 138.435 88.7393 138.436 88.4822V80.7162C138.435 80.4587 138.333 80.2119 138.151 80.0298C137.969 79.8477 137.722 79.745 137.465 79.7442ZM137.465 88.4822H129.7V82.1712H137.465V88.4822Z" fill="#1ABC94"/>
<path d="M132.498 83.3921H131.056V84.8341H132.498V83.3921Z" fill="#1ABC94"/>
<path d="M129.57 128.813V125.973H130.554C130.719 125.969 130.883 125.999 131.036 126.063C131.162 126.115 131.271 126.202 131.35 126.313C131.426 126.428 131.465 126.563 131.462 126.701C131.464 126.827 131.432 126.952 131.368 127.061C131.303 127.167 131.21 127.251 131.098 127.305C131.242 127.353 131.367 127.446 131.454 127.571C131.542 127.701 131.587 127.856 131.582 128.013C131.585 128.164 131.542 128.312 131.458 128.437C131.37 128.561 131.248 128.658 131.108 128.717C130.939 128.787 130.757 128.821 130.574 128.817L129.57 128.813ZM130.042 126.389V127.141H130.51C130.633 127.148 130.754 127.112 130.854 127.041C130.894 127.007 130.926 126.964 130.947 126.915C130.968 126.867 130.977 126.814 130.974 126.761C130.976 126.709 130.967 126.656 130.945 126.608C130.924 126.561 130.892 126.518 130.852 126.485C130.753 126.413 130.632 126.377 130.51 126.385L130.042 126.389ZM130.042 128.397H130.554C130.696 128.407 130.838 128.366 130.954 128.283C130.999 128.245 131.035 128.196 131.059 128.142C131.082 128.087 131.093 128.028 131.09 127.969C131.093 127.908 131.082 127.848 131.058 127.792C131.034 127.737 130.997 127.687 130.95 127.649C130.833 127.567 130.692 127.527 130.55 127.537H130.042V128.397ZM132.978 128.873C132.833 128.874 132.69 128.846 132.556 128.791C132.428 128.738 132.313 128.659 132.218 128.559C132.119 128.458 132.042 128.338 131.99 128.207C131.935 128.066 131.908 127.916 131.91 127.765C131.908 127.615 131.936 127.467 131.99 127.327C132.041 127.196 132.118 127.076 132.216 126.975C132.313 126.875 132.43 126.796 132.56 126.743C132.696 126.687 132.842 126.66 132.99 126.661C133.135 126.66 133.278 126.687 133.412 126.743C133.539 126.796 133.654 126.875 133.75 126.975C133.846 127.076 133.923 127.195 133.974 127.325C134.028 127.465 134.056 127.614 134.054 127.765C134.055 127.916 134.028 128.066 133.974 128.207C133.923 128.338 133.846 128.458 133.748 128.559C133.65 128.659 133.533 128.738 133.404 128.791C133.269 128.846 133.124 128.874 132.978 128.873ZM132.99 128.457C133.096 128.457 133.201 128.426 133.29 128.367C133.382 128.305 133.456 128.221 133.504 128.121C133.56 128.011 133.59 127.889 133.59 127.765C133.591 127.643 133.563 127.522 133.508 127.413C133.458 127.313 133.383 127.228 133.29 127.167C133.198 127.107 133.091 127.075 132.982 127.077C132.872 127.075 132.765 127.107 132.674 127.167C132.582 127.228 132.508 127.312 132.46 127.411C132.406 127.521 132.379 127.642 132.382 127.765C132.38 127.888 132.406 128.01 132.46 128.121C132.508 128.221 132.582 128.305 132.674 128.367C132.767 128.429 132.878 128.46 132.99 128.457ZM135.454 128.873C135.309 128.874 135.166 128.846 135.032 128.791C134.903 128.738 134.787 128.659 134.69 128.559C134.594 128.457 134.52 128.337 134.47 128.207C134.415 128.066 134.388 127.916 134.39 127.765C134.388 127.615 134.416 127.467 134.47 127.327C134.521 127.196 134.598 127.076 134.696 126.975C134.793 126.875 134.91 126.796 135.04 126.743C135.176 126.687 135.322 126.66 135.47 126.661C135.614 126.66 135.757 126.688 135.89 126.743C136.017 126.796 136.132 126.875 136.228 126.975C136.324 127.076 136.401 127.195 136.452 127.325C136.506 127.465 136.534 127.614 136.532 127.765C136.533 127.916 136.506 128.066 136.452 128.207C136.401 128.338 136.324 128.458 136.226 128.559C136.128 128.659 136.011 128.738 135.882 128.791C135.746 128.846 135.601 128.874 135.454 128.873ZM135.462 128.457C135.571 128.458 135.678 128.427 135.77 128.367C135.862 128.305 135.936 128.221 135.984 128.121C136.037 128.01 136.064 127.888 136.062 127.765C136.064 127.643 136.037 127.522 135.984 127.413C135.935 127.314 135.861 127.23 135.77 127.169C135.678 127.109 135.571 127.077 135.462 127.079C135.352 127.077 135.245 127.109 135.154 127.169C135.062 127.23 134.988 127.314 134.94 127.413C134.886 127.523 134.859 127.644 134.862 127.767C134.86 127.89 134.886 128.012 134.94 128.123C134.988 128.223 135.062 128.307 135.154 128.369C135.245 128.428 135.353 128.459 135.462 128.457ZM136.938 128.813V125.837H137.398V127.585L138.254 126.721H138.814L137.874 127.649L138.91 128.813H138.31L137.398 127.757V128.813H136.938Z" fill="#1ABC94"/>
<path d="M26.7799 140.431H152.302" stroke="#F2F2F2" stroke-miterlimit="10"/>
<path d="M137.465 114.525H136.981V113.555H136.01V114.525H131.156V113.555H130.186V114.525H129.7C129.443 114.526 129.196 114.628 129.014 114.81C128.832 114.992 128.73 115.239 128.729 115.496V123.263C128.73 123.52 128.833 123.766 129.015 123.948C129.196 124.13 129.443 124.232 129.7 124.233H137.465C137.722 124.232 137.968 124.13 138.15 123.948C138.332 123.766 138.435 123.52 138.436 123.263V115.496C138.435 115.239 138.333 114.992 138.151 114.81C137.969 114.628 137.722 114.526 137.465 114.525ZM137.465 123.263H129.7V116.952H137.465V123.263Z" fill="#1ABC94"/>
<path d="M132.498 118.173H131.056V119.615H132.498V118.173Z" fill="#1ABC94"/>
<path d="M129.57 164.339V161.499H130.554C130.719 161.495 130.883 161.526 131.036 161.589C131.162 161.641 131.271 161.728 131.35 161.839C131.426 161.954 131.465 162.089 131.462 162.227C131.464 162.353 131.432 162.478 131.368 162.587C131.303 162.693 131.21 162.777 131.098 162.831C131.242 162.879 131.367 162.972 131.454 163.097C131.542 163.227 131.587 163.382 131.582 163.539C131.585 163.69 131.542 163.838 131.458 163.963C131.37 164.087 131.248 164.184 131.108 164.243C130.939 164.313 130.757 164.347 130.574 164.343L129.57 164.339ZM130.042 161.915V162.667H130.51C130.633 162.674 130.754 162.639 130.854 162.567C130.894 162.533 130.926 162.49 130.947 162.441C130.968 162.393 130.977 162.34 130.974 162.287C130.976 162.235 130.967 162.183 130.945 162.135C130.924 162.087 130.892 162.044 130.852 162.011C130.753 161.939 130.632 161.903 130.51 161.911L130.042 161.915ZM130.042 163.923H130.554C130.696 163.933 130.838 163.893 130.954 163.809C130.999 163.771 131.035 163.723 131.059 163.668C131.082 163.614 131.093 163.554 131.09 163.495C131.093 163.434 131.082 163.374 131.058 163.318C131.034 163.263 130.997 163.214 130.95 163.175C130.833 163.093 130.692 163.053 130.55 163.063H130.042V163.923ZM132.978 164.399C132.833 164.4 132.69 164.373 132.556 164.317C132.428 164.264 132.313 164.185 132.218 164.085C132.119 163.984 132.042 163.864 131.99 163.733C131.935 163.592 131.908 163.442 131.91 163.291C131.908 163.141 131.936 162.993 131.99 162.853C132.041 162.722 132.118 162.602 132.216 162.501C132.313 162.401 132.43 162.322 132.56 162.269C132.696 162.214 132.842 162.186 132.99 162.187C133.135 162.186 133.278 162.214 133.412 162.269C133.539 162.322 133.654 162.401 133.75 162.501C133.846 162.602 133.923 162.721 133.974 162.851C134.028 162.991 134.056 163.141 134.054 163.291C134.055 163.442 134.028 163.592 133.974 163.733C133.923 163.864 133.846 163.984 133.748 164.085C133.65 164.185 133.533 164.264 133.404 164.317C133.269 164.372 133.124 164.4 132.978 164.399ZM132.99 163.983C133.096 163.983 133.201 163.952 133.29 163.893C133.382 163.832 133.456 163.747 133.504 163.647C133.56 163.537 133.59 163.415 133.59 163.291C133.591 163.169 133.563 163.048 133.508 162.939C133.458 162.839 133.383 162.754 133.29 162.693C133.198 162.633 133.091 162.602 132.982 162.603C132.872 162.602 132.765 162.633 132.674 162.693C132.582 162.754 132.508 162.838 132.46 162.937C132.406 163.047 132.379 163.169 132.382 163.291C132.38 163.414 132.406 163.536 132.46 163.647C132.508 163.747 132.582 163.832 132.674 163.893C132.767 163.955 132.878 163.986 132.99 163.983ZM135.454 164.399C135.309 164.4 135.166 164.373 135.032 164.317C134.903 164.264 134.787 164.185 134.69 164.085C134.594 163.983 134.52 163.864 134.47 163.733C134.415 163.592 134.388 163.442 134.39 163.291C134.388 163.141 134.416 162.993 134.47 162.853C134.521 162.722 134.598 162.602 134.696 162.501C134.793 162.401 134.91 162.322 135.04 162.269C135.176 162.214 135.322 162.186 135.47 162.187C135.614 162.186 135.757 162.214 135.89 162.269C136.017 162.322 136.132 162.401 136.228 162.501C136.324 162.602 136.401 162.721 136.452 162.851C136.506 162.991 136.534 163.141 136.532 163.291C136.533 163.442 136.506 163.592 136.452 163.733C136.401 163.864 136.324 163.984 136.226 164.085C136.128 164.185 136.011 164.264 135.882 164.317C135.746 164.372 135.601 164.4 135.454 164.399ZM135.462 163.983C135.571 163.985 135.678 163.953 135.77 163.893C135.862 163.832 135.936 163.747 135.984 163.647C136.037 163.536 136.064 163.414 136.062 163.291C136.064 163.169 136.037 163.049 135.984 162.939C135.935 162.84 135.861 162.756 135.77 162.695C135.678 162.635 135.571 162.604 135.462 162.605C135.352 162.604 135.245 162.635 135.154 162.695C135.062 162.756 134.988 162.84 134.94 162.939C134.886 163.049 134.859 163.171 134.862 163.293C134.86 163.416 134.886 163.538 134.94 163.649C134.988 163.749 135.062 163.834 135.154 163.895C135.245 163.955 135.353 163.985 135.462 163.983ZM136.938 164.339V161.363H137.398V163.111L138.254 162.247H138.814L137.874 163.175L138.91 164.339H138.31L137.398 163.283V164.339H136.938Z" fill="#1ABC94"/>
<path d="M29.0659 175.958H150.017" stroke="#F2F2F2" stroke-miterlimit="10"/>
<path d="M137.465 150.052H136.981V149.082H136.01V150.052H131.156V149.082H130.186V150.052H129.7C129.443 150.053 129.196 150.155 129.014 150.337C128.832 150.519 128.73 150.766 128.729 151.023V158.788C128.73 159.045 128.832 159.292 129.014 159.474C129.196 159.656 129.443 159.758 129.7 159.759H137.465C137.722 159.758 137.969 159.656 138.151 159.474C138.333 159.292 138.435 159.045 138.436 158.788V151.023C138.435 150.766 138.333 150.519 138.151 150.337C137.969 150.155 137.722 150.053 137.465 150.052ZM137.465 158.789H129.7V152.476H137.465V158.789Z" fill="#1ABC94"/>
<path d="M132.498 153.7H131.056V155.142H132.498V153.7Z" fill="#1ABC94"/>
<path d="M37.8139 131.817C47.1588 131.817 56.1209 135.529 62.7288 142.137C69.3366 148.745 73.0489 157.707 73.0489 167.052C73.0489 176.397 69.3366 185.359 62.7288 191.967C56.1209 198.575 47.1588 202.287 37.8139 202.287H12.6458C11.3235 202.287 10.0141 202.027 8.79253 201.521C7.57091 201.014 6.46098 200.273 5.52612 199.337C4.59127 198.402 3.84982 197.292 3.34412 196.07C2.83842 194.848 2.57838 193.539 2.57886 192.217V167.052C2.57886 157.707 6.29111 148.745 12.899 142.137C19.5068 135.529 28.469 131.817 37.8139 131.817V131.817Z" fill="white"/>
<path d="M54.3009 148.164C53.6958 145.864 52.04 144.307 50.6026 144.685C49.1652 145.063 48.4905 147.234 49.0957 149.534C49.7008 151.834 51.3566 153.392 52.794 153.013C54.2314 152.635 54.9061 150.464 54.3009 148.164Z" fill="#B8C0CC"/>
<path d="M37.4955 131.872C39.3244 131.872 41.1504 132.015 42.9568 132.301C28.5905 131.965 9.06536 142.578 9.06536 166.942V197.174C9.06951 198.489 9.59369 199.749 10.5235 200.679C11.4533 201.609 12.7131 202.133 14.028 202.137H7.38895C6.07404 202.133 4.81417 201.609 3.88439 200.679C2.95461 199.749 2.43042 198.489 2.42627 197.174V166.941C2.45341 157.648 6.1569 148.744 12.7278 142.173C19.2987 135.602 28.2029 131.899 37.4955 131.872Z" fill="#EAEFF4"/>
<path d="M36.9811 131.817C46.326 131.817 55.2882 135.529 61.896 142.137C68.5039 148.745 72.2161 157.707 72.2161 167.052C72.2161 176.397 68.5039 185.359 61.896 191.967C55.2882 198.575 46.326 202.287 36.9811 202.287H8.45781C6.67796 202.287 4.971 201.58 3.71234 200.322C2.45368 199.063 1.74641 197.357 1.74609 195.577L1.74609 167.052C1.74609 157.707 5.45834 148.745 12.0662 142.137C18.674 135.529 27.6362 131.817 36.9811 131.817V131.817Z" stroke="#B8C0CC" stroke-width="1.88" stroke-miterlimit="10"/>
</svg>
