<svg width="106" height="107" viewBox="0 0 106 107" fill="none" xmlns="http://www.w3.org/2000/svg">
<path d="M53.001 106.02C82.2721 106.02 106.001 82.2911 106.001 53.02C106.001 23.7489 82.2721 0.0200195 53.001 0.0200195C23.7299 0.0200195 0.000976562 23.7489 0.000976562 53.02C0.000976562 82.2911 23.7299 106.02 53.001 106.02Z" fill="#F0F4F7"/>
<path d="M34.2079 41.5581C37.816 41.5581 40.7409 38.6331 40.7409 35.0251C40.7409 31.417 37.816 28.4921 34.2079 28.4921C30.5999 28.4921 27.6749 31.417 27.6749 35.0251C27.6749 38.6331 30.5999 41.5581 34.2079 41.5581Z" fill="#FCFDFF" stroke="#1ABC94" stroke-width="2"/>
<path d="M42.1169 55.5641C42.4067 55.5667 42.6934 55.5041 42.9558 55.3811C43.2182 55.2581 43.4496 55.0777 43.6329 54.8533C43.8163 54.6288 43.9469 54.3661 44.0151 54.0845C44.0833 53.8028 44.0873 53.5095 44.027 53.2261C43.5003 51.0182 42.2449 49.0523 40.4634 47.6458C38.6819 46.2392 36.4783 45.4742 34.2085 45.4742C31.9387 45.4742 29.7351 46.2392 27.9536 47.6458C26.1721 49.0523 24.9167 51.0182 24.39 53.2261C24.3296 53.5095 24.3337 53.8028 24.4019 54.0845C24.47 54.3661 24.6007 54.6288 24.7841 54.8533C24.9674 55.0777 25.1988 55.2581 25.4612 55.3811C25.7236 55.5041 26.0101 55.5667 26.2999 55.5641H42.1169Z" fill="#FCFDFF" stroke="#1ABC94" stroke-width="2"/>
<path d="M29.1769 70.0281H40.6629C41.1706 70.0281 41.6574 70.2297 42.0163 70.5887C42.3753 70.9476 42.5769 71.4345 42.5769 71.9421V85.3421H27.2629V71.9421C27.2629 71.4345 27.4646 70.9476 27.8235 70.5887C28.1825 70.2297 28.6693 70.0281 29.1769 70.0281V70.0281Z" fill="white" stroke="#B8C0CC" stroke-width="2" stroke-miterlimit="10" stroke-linecap="round"/>
<path d="M57.277 52.8561H67.015C67.7544 52.8561 68.4636 53.1498 68.9864 53.6727C69.5093 54.1955 69.803 54.9047 69.803 55.6441V85.3441H54.489V55.6441C54.489 54.9047 54.7827 54.1955 55.3056 53.6727C55.8285 53.1498 56.5376 52.8561 57.277 52.8561V52.8561Z" fill="white" stroke="#B8C0CC" stroke-width="2" stroke-miterlimit="10" stroke-linecap="round"/>
<path d="M85.148 36.053H93.594C94.5047 36.053 95.3782 36.4148 96.0222 37.0588C96.6662 37.7028 97.028 38.5762 97.028 39.487V85.343H81.714V39.487C81.714 38.5762 82.0758 37.7028 82.7198 37.0588C83.3638 36.4148 84.2372 36.053 85.148 36.053V36.053Z" fill="white" stroke="#B8C0CC" stroke-width="2" stroke-miterlimit="10" stroke-linecap="round"/>
<path d="M18.806 85.343H104.719" stroke="#B8C0CC" stroke-width="2" stroke-miterlimit="10" stroke-linecap="round"/>
</svg>
