<svg width="67" height="74" viewBox="0 0 67 74" fill="none" xmlns="http://www.w3.org/2000/svg">
<mask id="path-1-inside-1" fill="white">
<path fill-rule="evenodd" clip-rule="evenodd" d="M51.3841 14.3057L51.3841 14.3196C55.3868 15.7316 58.2547 19.5415 58.2547 24.02C58.2547 29.7007 53.6406 34.3058 47.9489 34.3058C47.9488 34.3058 47.9488 34.3058 47.9488 34.3058L19.3215 34.3057C12.9973 34.3057 7.87061 29.189 7.87061 22.8772C7.87061 18.5845 10.2419 14.8446 13.7484 12.8911C13.6486 12.426 13.5961 11.9434 13.5961 11.4486C13.5961 7.6615 16.6722 4.59145 20.4667 4.59145C22.2691 4.59145 23.9094 5.28418 25.135 6.41744C27.6983 2.56188 32.0869 0.0200195 37.0704 0.0200195C44.9756 0.0200195 51.3841 6.41595 51.3841 14.3057Z"/>
</mask>
<path d="M51.3841 14.3196L49.3841 14.3185C49.3836 15.167 49.9186 15.9234 50.7187 16.2057L51.3841 14.3196ZM51.3841 14.3057L53.3841 14.3068V14.3057H51.3841ZM47.9488 34.3058V36.3058V34.3058ZM19.3215 34.3057L19.3215 32.3057H19.3215V34.3057ZM13.7484 12.8911L14.7218 14.6383C15.4898 14.2104 15.8883 13.3312 15.7039 12.4716L13.7484 12.8911ZM25.135 6.41744L23.7771 7.88585C24.2073 8.28367 24.7904 8.47282 25.3722 8.40332C25.954 8.33382 26.4761 8.01268 26.8005 7.52472L25.135 6.41744ZM53.3841 14.3207L53.3841 14.3068L49.3841 14.3046L49.3841 14.3185L53.3841 14.3207ZM60.2547 24.02C60.2547 18.6651 56.8249 14.1181 52.0494 12.4335L50.7187 16.2057C53.9488 17.3451 56.2547 20.4179 56.2547 24.02H60.2547ZM47.9489 36.3058C54.7415 36.3058 60.2547 30.8089 60.2547 24.02H56.2547C56.2547 28.5924 52.5397 32.3058 47.9489 32.3058V36.3058ZM47.9488 36.3058C47.9488 36.3058 47.9488 36.3058 47.9488 36.3058C47.9488 36.3058 47.9488 36.3058 47.9488 36.3058C47.9488 36.3058 47.9488 36.3058 47.9488 36.3058C47.9488 36.3058 47.9488 36.3058 47.9488 36.3058C47.9488 36.3058 47.9488 36.3058 47.9488 36.3058C47.9488 36.3058 47.9488 36.3058 47.9488 36.3058H47.9488H47.9488H47.9488H47.9488H47.9488C47.9488 36.3058 47.9488 36.3058 47.9488 36.3058C47.9488 36.3058 47.9488 36.3058 47.9488 36.3058C47.9488 36.3058 47.9488 36.3058 47.9488 36.3058C47.9488 36.3058 47.9488 36.3058 47.9488 36.3058C47.9488 36.3058 47.9488 36.3058 47.9488 36.3058C47.9488 36.3058 47.9488 36.3058 47.9488 36.3058C47.9488 36.3058 47.9488 36.3058 47.9488 36.3058C47.9488 36.3058 47.9488 36.3058 47.9488 36.3058C47.9488 36.3058 47.9488 36.3058 47.9488 36.3058C47.9488 36.3058 47.9488 36.3058 47.9488 36.3058H47.9488H47.9488H47.9488H47.9488H47.9489C47.9489 36.3058 47.9489 36.3058 47.9489 36.3058C47.9489 36.3058 47.9489 36.3058 47.9489 36.3058C47.9489 36.3058 47.9489 36.3058 47.9489 36.3058C47.9489 36.3058 47.9489 36.3058 47.9489 36.3058V32.3058C47.9489 32.3058 47.9489 32.3058 47.9489 32.3058C47.9489 32.3058 47.9489 32.3058 47.9489 32.3058C47.9489 32.3058 47.9489 32.3058 47.9489 32.3058C47.9489 32.3058 47.9489 32.3058 47.9489 32.3058H47.9488H47.9488H47.9488H47.9488H47.9488C47.9488 32.3058 47.9488 32.3058 47.9488 32.3058C47.9488 32.3058 47.9488 32.3058 47.9488 32.3058C47.9488 32.3058 47.9488 32.3058 47.9488 32.3058C47.9488 32.3058 47.9488 32.3058 47.9488 32.3058C47.9488 32.3058 47.9488 32.3058 47.9488 32.3058C47.9488 32.3058 47.9488 32.3058 47.9488 32.3058C47.9488 32.3058 47.9488 32.3058 47.9488 32.3058C47.9488 32.3058 47.9488 32.3058 47.9488 32.3058C47.9488 32.3058 47.9488 32.3058 47.9488 32.3058C47.9488 32.3058 47.9488 32.3058 47.9488 32.3058H47.9488H47.9488H47.9488H47.9488H47.9488C47.9488 32.3058 47.9488 32.3058 47.9488 32.3058C47.9488 32.3058 47.9488 32.3058 47.9488 32.3058C47.9488 32.3058 47.9488 32.3058 47.9488 32.3058C47.9488 32.3058 47.9488 32.3058 47.9488 32.3058C47.9488 32.3058 47.9488 32.3058 47.9488 32.3058C47.9488 32.3058 47.9488 32.3058 47.9488 32.3058V36.3058ZM47.9488 32.3058L19.3215 32.3057L19.3215 36.3057L47.9488 36.3058L47.9488 32.3058ZM5.87061 22.8772C5.87061 30.2972 11.8965 36.3057 19.3215 36.3057V32.3057C14.0982 32.3057 9.87061 28.0807 9.87061 22.8772H5.87061ZM12.7751 11.144C8.6617 13.4355 5.87061 17.8287 5.87061 22.8772H9.87061C9.87061 19.3403 11.8221 16.2537 14.7218 14.6383L12.7751 11.144ZM11.5961 11.4486C11.5961 12.0853 11.6637 12.7085 11.7929 13.3106L15.7039 12.4716C15.6335 12.1435 15.5961 11.8015 15.5961 11.4486H11.5961ZM20.4667 2.59145C15.5713 2.59145 11.5961 6.55325 11.5961 11.4486H15.5961C15.5961 8.76975 17.7731 6.59145 20.4667 6.59145V2.59145ZM26.4928 4.94902C24.9119 3.48716 22.7915 2.59145 20.4667 2.59145V6.59145C21.7467 6.59145 22.907 7.0812 23.7771 7.88585L26.4928 4.94902ZM37.0704 -1.97998C31.3904 -1.97998 26.3883 0.919771 23.4695 5.31016L26.8005 7.52472C29.0082 4.20398 32.7835 2.02002 37.0704 2.02002V-1.97998ZM53.3841 14.3057C53.3841 5.30771 46.0765 -1.97998 37.0704 -1.97998V2.02002C43.8748 2.02002 49.3841 7.5242 49.3841 14.3057H53.3841Z" fill="#B8C0CC" mask="url(#path-1-inside-1)"/>
<rect x="1" y="29.7344" width="64.125" height="36.5714" rx="3" fill="white" stroke="#1ABC94" stroke-width="2"/>
<path d="M26.9341 66.388L26.1919 72.0199H39.8919L39.1936 66.3057" stroke="#1ABC94" stroke-width="2" stroke-miterlimit="10" stroke-linecap="round" stroke-linejoin="round"/>
<path d="M29.6272 19.4485V38.3056L25.6194 34.3056" stroke="#1ABC94" stroke-width="2" stroke-linecap="round" stroke-linejoin="round"/>
<path d="M36.4978 38.3057L36.4978 19.4485L40.5056 23.4485" stroke="#1ABC94" stroke-width="2" stroke-linecap="round" stroke-linejoin="round"/>
<path d="M1 60.5916L65.125 60.5916" stroke="#1ABC94" stroke-width="2"/>
</svg>
