<svg width="20" height="21" viewBox="0 0 20 21" fill="none" xmlns="http://www.w3.org/2000/svg">
<g clip-path="url(#clip0)">
<path d="M17.5436 5.04004H2.45644C1.56005 5.04004 0.833374 5.89565 0.833374 6.9511V17.2956C0.833374 18.3511 1.56005 19.2067 2.45644 19.2067H17.5436C18.44 19.2067 19.1667 18.3511 19.1667 17.2956V6.9511C19.1667 5.89565 18.44 5.04004 17.5436 5.04004Z" stroke="#1ABC94" stroke-width="1.5" stroke-miterlimit="10"/>
<path d="M4.58333 5.04002C5.73393 5.04002 6.66667 4.10728 6.66667 2.95669C6.66667 1.80609 5.73393 0.873352 4.58333 0.873352C3.43274 0.873352 2.5 1.80609 2.5 2.95669C2.5 4.10728 3.43274 5.04002 4.58333 5.04002Z" stroke="#1ABC94" stroke-width="1.5" stroke-miterlimit="10"/>
<path d="M8.74996 5.04002C9.90055 5.04002 10.8333 4.10728 10.8333 2.95669C10.8333 1.80609 9.90055 0.873352 8.74996 0.873352C7.59937 0.873352 6.66663 1.80609 6.66663 2.95669C6.66663 4.10728 7.59937 5.04002 8.74996 5.04002Z" stroke="#1ABC94" stroke-width="1.5" stroke-miterlimit="10"/>
<path d="M6.66663 4.20673L6.66663 19.2067" stroke="#1ABC94" stroke-width="1.5" stroke-miterlimit="10"/>
<path d="M0.833374 14.2067H19.1667" stroke="#1ABC94" stroke-width="1.5" stroke-miterlimit="10"/>
</g>
<defs>
<clipPath id="clip0">
<rect width="20" height="20" fill="white" transform="translate(0 0.0400391)"/>
</clipPath>
</defs>
</svg>
