<svg width="77" height="62" viewBox="0 0 77 62" fill="none" xmlns="http://www.w3.org/2000/svg">
<path d="M41.1631 33.7383C43.3533 35.9856 45.0781 38.6504 46.2368 41.5771C46.9759 43.9431 48.5554 49.727 46.9347 53.9345C45.3141 58.142 3.83498 58.6943 1.69813 53.9345C0.0956573 50.365 1.63209 43.4173 2.52695 41.5771C3.68566 38.6504 5.41041 35.9856 7.60064 33.7383C9.79086 31.491 12.4029 29.706 15.284 28.4876C18.1652 27.2692 21.2578 26.6418 24.3818 26.6418C27.5059 26.6418 30.5988 27.2692 33.4799 28.4876C36.3611 29.706 38.9729 31.491 41.1631 33.7383Z" fill="white" stroke="#B8C0CC" stroke-width="1.88" stroke-linecap="round" stroke-linejoin="round"/>
<path d="M24.3657 37.3259L24.3657 45.8732" stroke="#B8C0CC" stroke-width="1.88" stroke-linecap="round"/>
<path d="M24.572 37.7175L17.7246 27.7102L21.4642 26.6418L24.572 26.3601L27.8747 26.6418L31.614 27.7102L24.572 37.7175Z" stroke="#B8C0CC" stroke-width="1.88" stroke-linejoin="round"/>
<path d="M25.2038 26.6419C32.2846 26.6419 38.0247 20.9018 38.0247 13.821C38.0247 6.74014 32.2846 1 25.2038 1C18.123 1 12.3828 6.74014 12.3828 13.821C12.3828 20.9018 18.123 26.6419 25.2038 26.6419Z" fill="white" stroke="#B8C0CC" stroke-width="1.88" stroke-linecap="round" stroke-linejoin="round"/>
<path d="M62.9222 26.5767C60.8181 26.5767 58.889 27.2472 57.1886 28.5696C55.5584 29.8374 54.4731 31.4521 53.8341 32.6263C53.1952 31.4521 52.1098 29.8374 50.4797 28.5696C48.7793 27.2472 46.8502 26.5767 44.7461 26.5767C38.8743 26.5767 34.4463 31.4064 34.4463 37.811C34.4463 44.7302 39.9705 49.4643 48.3335 56.631C49.7537 57.848 51.3634 59.2276 53.0365 60.6988C53.257 60.8931 53.5403 61 53.8341 61C54.128 61 54.4112 60.8931 54.6318 60.6989C56.305 59.2274 57.9147 57.848 59.3357 56.6302C67.6977 49.4643 73.222 44.7302 73.222 37.811C73.222 31.4064 68.794 26.5767 62.9222 26.5767Z" fill="white"/>
<path d="M35.3488 42.4035C34.7593 40.9454 34.4463 39.4264 34.4463 37.7845C34.4463 31.6256 38.7934 26.5767 44.7461 26.5767C48.8769 26.5767 51.9421 29.1391 53.8341 32.774C55.726 29.1393 58.7912 26.5767 62.9222 26.5767C68.8755 26.5767 73.222 31.6266 73.222 37.7845C73.222 39.1319 73.0114 40.3963 72.6103 41.6121M37.4138 46.0078C40.6244 50.3676 46.2173 54.6454 53.086 60.7161C53.5144 61.0946 54.1538 61.0946 54.5822 60.716C61.1664 54.8969 66.5731 50.7282 69.8371 46.558" stroke="#B8C0CC" stroke-width="2" stroke-linecap="round"/>
<path d="M31.6765 44.1038H46.8624L49.6877 37.2598L52.8661 49.9212L56.3977 39.313L59.9293 48.5524L62.7546 44.1038H75.7727" stroke="#1ABC94" stroke-width="2" stroke-linecap="round" stroke-linejoin="round"/>
</svg>
