<svg width="50" height="62" viewBox="0 0 50 62" fill="none" xmlns="http://www.w3.org/2000/svg">
<path d="M41.9429 38.4142H26.2186C22.4266 38.4142 19.3473 35.3343 19.3473 31.5416C19.3473 27.7488 22.4266 24.6689 26.2186 24.6689H41.9429C45.7349 24.6689 48.8142 27.7488 48.8142 31.5416C48.8142 35.3343 45.7492 38.4142 41.9429 38.4142Z" fill="#1ABC94"/>
<path d="M30.7663 56.5799V61.0001H1V20.406L30.7663 15.5581V24.6693" stroke="#B8C0CC" stroke-width="1.5" stroke-miterlimit="10"/>
<path d="M15.8832 17.9818V12.1216" stroke="#B8C0CC" stroke-width="1.5" stroke-miterlimit="10"/>
<path d="M20.445 9.69771C20.445 7.15969 16.767 1 15.8404 1C14.9137 1 11.2357 7.15969 11.2357 9.69771C11.2357 12.2357 13.2886 14.3032 15.8404 14.3032C18.3922 14.3032 20.445 12.2357 20.445 9.69771Z" fill="white" stroke="#B8C0CC" stroke-width="1.5" stroke-miterlimit="10"/>
<path d="M49.0709 52.0454H14.814V56.5796H49.0709V52.0454Z" stroke="#B8C0CC" stroke-width="1.5" stroke-miterlimit="10"/>
<path d="M41.8289 52.0455H21.6283C17.8647 52.0455 14.814 48.9941 14.814 45.2299C14.814 41.4656 17.8647 38.4143 21.6283 38.4143H41.8289C45.5924 38.4143 48.6432 41.4656 48.6432 45.2299C48.6432 48.9941 45.5924 52.0455 41.8289 52.0455Z" stroke="#B8C0CC" stroke-width="1.5" stroke-miterlimit="10"/>
<path d="M38.5244 23C40.9923 23 43 25.243 43 28C43 30.757 40.9923 33 38.5244 33H28.2765H27.2448C26.0039 33 25 31.8785 25 30.4922C25 29.1059 26.0039 27.9844 27.2448 27.9844H33.8536" stroke="#FCFDFF" stroke-width="1.5" stroke-miterlimit="10"/>
<path d="M36.5684 38.4143C39.0917 38.4143 41.1446 40.4675 41.1446 42.9913C41.1446 45.5151 39.0917 47.5683 36.5684 47.5683H26.0904H25.0354C23.7667 47.5683 22.7402 46.5417 22.7402 45.2727C22.7402 44.0037 23.7667 42.977 25.0354 42.977H31.7927" stroke="#B8C0CC" stroke-width="1.5" stroke-miterlimit="10"/>
<path d="M16.9808 56.5798V61" stroke="#B8C0CC" stroke-width="1.5" stroke-miterlimit="10"/>
<path d="M21.6426 61L23.7952 56.5798" stroke="#B8C0CC" stroke-width="1.5" stroke-miterlimit="10"/>
<path d="M46.7614 56.5798V61H42.0998L39.9329 56.5798" stroke="#B8C0CC" stroke-width="1.5" stroke-miterlimit="10"/>
<path d="M5.6189 24.6689V31.2707" stroke="#B8C0CC" stroke-width="1.5" stroke-miterlimit="10"/>
</svg>
