<svg width="62" height="62" viewBox="0 0 62 62" fill="none" xmlns="http://www.w3.org/2000/svg">
<path d="M44.7418 55.1432C52.905 50.0718 58.3351 41.0157 58.3351 30.6917C58.3351 30.0034 58.3111 29.3272 58.2629 28.6631H1.07224C1.02408 29.3393 1 30.0155 1 30.7037C1 41.0398 6.4301 50.0959 14.5933 55.1553" stroke="#B8C0CC" stroke-width="1.88" stroke-miterlimit="10"/>
<path d="M6.14127 28.6395C6.14127 28.6395 0.458319 25.005 1.50581 13.4856C1.50581 13.4856 6.29779 17.2167 11.8483 19.2936C17.8924 21.5637 17.7118 28.2652 17.7118 28.6516" stroke="#B8C0CC" stroke-width="1.88" stroke-miterlimit="10"/>
<path d="M44.7419 55.144H14.6055V61.0003H44.7419V55.144Z" stroke="#B8C0CC" stroke-width="1.88" stroke-miterlimit="10"/>
<path d="M8.24805 24.2563L13.7022 28.6395" stroke="#B8C0CC" stroke-width="1.88" stroke-miterlimit="10"/>
<path d="M23.4909 28.6391C23.4909 28.6391 32.6173 24.2438 30.7391 9.71777C30.7391 9.71777 26.236 13.4489 17.832 16.9627C16.1946 17.651 14.4487 19.595 14.0273 20.4644" stroke="#B8C0CC" stroke-width="1.88" stroke-miterlimit="10"/>
<path d="M22.2989 21.1533L17.4949 26.4904" stroke="#B8C0CC" stroke-width="1.88" stroke-miterlimit="10"/>
<path d="M54.7897 14.3911L50.3108 28.6515H35L48 11L54.7897 14.3911Z" stroke="#B8C0CC" stroke-width="1.88" stroke-miterlimit="10"/>
<path d="M30.25 35.05V46.4499" stroke="#1ABC94" stroke-width="3" stroke-linecap="round"/>
<path d="M35.95 40.75L24.5501 40.75" stroke="#1ABC94" stroke-width="3" stroke-linecap="round"/>
<path d="M53.4227 14.4514C57.1265 14.4514 60.129 11.4402 60.129 7.72569C60.129 4.01119 57.1265 1 53.4227 1C49.7188 1 46.7163 4.01119 46.7163 7.72569C46.7163 11.4402 49.7188 14.4514 53.4227 14.4514Z" fill="white" stroke="#B8C0CC" stroke-width="1.88" stroke-miterlimit="10"/>
</svg>
