<svg width="70" height="75" viewBox="0 0 70 75" fill="none" xmlns="http://www.w3.org/2000/svg">
<path d="M68.625 73.02H1.125L4.61721 37.02H65.2355L68.625 73.02Z" stroke="#B8C0CC" stroke-width="2" stroke-miterlimit="10" stroke-linejoin="round"/>
<path d="M48.414 48.27L32.4478 25.9678L31.5 16.4419L34.561 8.65521L38.8471 4.27059L43.2095 2.15405L48.2487 1.02002L51.8571 1.77573L59.0509 4.95101L63.337 10.4697L65.25 17.1985L64.2276 28.2253L48.414 48.27Z" fill="white"/>
<path d="M65.25 18.975C65.25 31.7325 48.1373 48.27 48.1373 48.27C48.1373 48.27 31.5 31.7325 31.5 18.975C31.5 9.84161 37.6796 1.02002 48.1373 1.02002C58.5951 1.02002 65.25 9.84161 65.25 18.975Z" stroke="#1ABC94" stroke-width="2"/>
<circle cx="48.375" cy="17.895" r="5.625" stroke="#1ABC94" stroke-width="2"/>
<path d="M26.9047 59.8361L8.06675 33.1986L6.94849 21.8211L10.5601 12.5207L15.6171 7.28381L20.7641 4.75584L26.7097 3.40137L30.967 4.30398L39.4547 8.09649L44.5117 14.6879L46.7688 22.7248L45.5625 35.895L26.9047 59.8361Z" fill="white"/>
<path d="M47.25 25.2075C47.25 40.395 26.7148 60.0825 26.7148 60.0825C26.7148 60.0825 6.75 40.395 6.75 25.2075C6.75 14.3344 14.1655 3.83252 26.7148 3.83252C39.2641 3.83252 47.25 14.3344 47.25 25.2075Z" stroke="#1ABC94" stroke-width="2"/>
<circle cx="27" cy="23.52" r="6.75" stroke="#1ABC94" stroke-width="2"/>
</svg>
