<svg width="75" height="62" viewBox="0 0 75 62" fill="none" xmlns="http://www.w3.org/2000/svg">
<path d="M28.448 16.9099C28.138 16.4519 27.5092 16.3359 27.0846 16.6901C23.6088 19.5898 10.2854 32.4717 23.2777 50.3517C23.5986 50.7934 24.2226 50.8923 24.6356 50.5353C27.9719 47.6518 40.642 34.9274 28.448 16.9099Z" fill="#1ABC94"/>
<path d="M3.5323 18.7497C2.97263 18.5519 2.35422 18.8359 2.20473 19.4104C0.794991 24.8277 -4.14975 50.4101 25.152 59.6798C25.7109 59.8566 26.314 59.5623 26.4519 58.9926C27.7338 53.6959 32.0637 28.8344 3.5323 18.7497Z" fill="white"/>
<path d="M25.152 59.6798L25.4356 58.7836L25.152 59.6798ZM26.4519 58.9926L27.3655 59.2137L26.4519 58.9926ZM2.20473 19.4104L3.11443 19.6471L2.20473 19.4104ZM3.5323 18.7497L3.21904 19.636L3.5323 18.7497ZM24.8602 59.4917C25.139 59.9297 25.72 60.0588 26.1579 59.7801C26.5959 59.5014 26.725 58.9204 26.4463 58.4824L24.8602 59.4917ZM18.8216 46.5007C18.5429 46.0627 17.9619 45.9336 17.5239 46.2123C17.0859 46.491 16.9568 47.072 17.2355 47.51L18.8216 46.5007ZM1.29502 19.1736C0.573711 21.9455 -1.05904 29.8844 1.25483 38.3483C3.58908 46.8868 9.91238 55.8446 24.8685 60.576L25.4356 58.7836C11.0899 54.2453 5.23468 45.777 3.06829 37.8526C0.881521 29.8536 2.42601 22.2926 3.11443 19.6471L1.29502 19.1736ZM27.3655 59.2137C28.0229 56.4974 29.4642 48.7726 27.076 40.4086C24.6696 31.9809 18.4012 23.0083 3.84556 17.8634L3.21904 19.636C17.1948 24.5758 23.0272 33.0763 25.2682 40.9247C27.5274 48.8368 26.1628 56.1911 25.5383 58.7715L27.3655 59.2137ZM24.8685 60.576C25.8801 60.896 27.0837 60.3782 27.3655 59.2137L25.5383 58.7715C25.5368 58.7774 25.5361 58.7769 25.5376 58.7749C25.5384 58.774 25.5365 58.7768 25.529 58.7807C25.5123 58.7893 25.4786 58.7972 25.4356 58.7836L24.8685 60.576ZM3.11443 19.6471C3.11621 19.6403 3.11731 19.6403 3.1159 19.642C3.11532 19.6427 3.11745 19.6398 3.12521 19.636C3.14214 19.6278 3.17599 19.6207 3.21904 19.636L3.84556 17.8634C2.83111 17.5049 1.59985 18.0022 1.29502 19.1736L3.11443 19.6471ZM26.4463 58.4824L18.8216 46.5007L17.2355 47.51L24.8602 59.4917L26.4463 58.4824Z" fill="#B8C0CC"/>
<path d="M66.8949 37.8991C69.291 40.2665 71.1778 43.0736 72.4454 46.1568C73.254 48.6492 75.1037 56.6551 73.209 59.1745C71.3143 61.6939 23.3053 61.6939 22.7949 58.6206C21.9117 53.3018 23.6484 48.0953 24.6274 46.1568C25.895 43.0736 27.7819 40.2665 30.178 37.8991C32.574 35.5316 35.4315 33.6512 38.5835 32.3677C41.7354 31.0842 45.1187 30.4233 48.5364 30.4233C51.9541 30.4233 55.3376 31.0842 58.4896 32.3677C61.6415 33.6512 64.4988 35.5316 66.8949 37.8991Z" fill="white" stroke="#B8C0CC" stroke-width="1.88" stroke-linecap="round" stroke-linejoin="round"/>
<path d="M48.4906 42.4055L41.3518 31.6973L44.5643 30.2695L48.4906 30.6265H52.417L55.9864 31.6973L48.4906 42.4055Z" stroke="#B8C0CC" stroke-width="1.88" stroke-linejoin="round"/>
<path d="M48.5917 30.9182C56.8534 30.9182 63.5508 24.2208 63.5508 15.9591C63.5508 7.69742 56.8534 1 48.5917 1C40.33 1 33.6326 7.69742 33.6326 15.9591C33.6326 24.2208 40.33 30.9182 48.5917 30.9182Z" fill="#FCFDFF" stroke="#B8C0CC" stroke-width="1.88" stroke-linecap="round" stroke-linejoin="round"/>
<path d="M60.2263 45.3235L60.2263 54.1881" stroke="#B8C0CC" stroke-width="1.88" stroke-linecap="round"/>
<path d="M55.7942 49.7554L64.6589 49.7554" stroke="#B8C0CC" stroke-width="1.88" stroke-linecap="round"/>
</svg>
