<svg width="510" height="574" viewBox="0 0 510 574" fill="none" xmlns="http://www.w3.org/2000/svg">
<path d="M370.072 134.181C394.93 134.181 415.082 113.999 415.082 89.1037C415.082 64.2084 394.93 44.0269 370.072 44.0269C345.213 44.0269 325.061 64.2084 325.061 89.1037C325.061 113.999 345.213 134.181 370.072 134.181Z" fill="white" stroke="#D1DAE5" stroke-width="1.8833" stroke-miterlimit="10" stroke-linecap="round" stroke-linejoin="round"/>
<path d="M386.528 89.5402C386.528 88.3396 386.419 87.2482 386.201 86.1567H370.399V92.7054H379.444C379.008 94.7792 377.809 96.6346 376.066 97.8352V101.983H381.515C384.675 98.9267 386.528 94.67 386.528 89.5402Z" fill="#4285F4"/>
<path d="M370.399 106.021C374.976 106.021 378.79 104.493 381.515 101.983L376.066 97.8354C374.322 98.9268 372.36 99.4726 370.29 99.4726C368.219 99.4726 366.148 98.8177 364.404 97.508C362.661 96.1982 361.462 94.4519 360.808 92.4873H355.25V96.8531C356.667 99.6909 358.846 101.983 361.462 103.62C364.186 105.148 367.238 106.021 370.399 106.021Z" fill="#34A853"/>
<path d="M360.917 92.3781C360.263 90.3043 360.263 88.0123 360.917 85.9385V81.5727H355.359C354.16 83.9739 353.506 86.4843 353.506 89.1037C353.506 91.7232 354.16 94.3427 355.359 96.6347L360.917 92.3781Z" fill="#FBBC04"/>
<path d="M370.399 78.9532C371.598 78.9532 372.797 79.1715 373.886 79.6081C374.976 80.0447 375.957 80.6996 376.829 81.5727L381.624 76.7703C378.573 73.9326 374.54 72.2954 370.399 72.4045C367.238 72.4045 364.187 73.2777 361.571 74.9149C358.956 76.5521 356.776 78.9532 355.359 81.6819L360.917 86.0477C361.571 83.9739 362.77 82.2276 364.514 80.9179C366.149 79.6081 368.219 78.9532 370.399 78.9532Z" fill="#EA4335"/>
<path d="M232.192 97.1747C257.051 97.1747 277.203 76.9931 277.203 52.0978C277.203 27.2026 257.051 7.021 232.192 7.021C207.334 7.021 187.182 27.2026 187.182 52.0978C187.182 76.9931 207.334 97.1747 232.192 97.1747Z" fill="white" stroke="#D1DAE5" stroke-width="1.8833" stroke-miterlimit="10" stroke-linecap="round" stroke-linejoin="round"/>
<path d="M229.032 61.8116L224.672 66.1774C223.8 67.0506 222.602 67.4872 221.403 67.4872C220.204 67.4872 219.005 66.9414 218.133 66.1774C217.261 65.3043 216.825 64.1037 216.825 62.9031C216.825 61.7025 217.261 60.5019 218.133 59.6287L226.743 51.0063C227.615 50.1331 228.814 49.6965 230.013 49.6965C231.211 49.6965 232.41 50.1331 233.282 51.0063C233.609 51.3337 233.936 51.4429 234.372 51.4429C234.808 51.4429 235.135 51.3337 235.462 51.0063C235.789 50.6788 235.898 50.3514 235.898 49.9148C235.898 49.4783 235.789 49.1508 235.462 48.8234C234.808 48.0594 233.936 47.5136 232.955 47.1862C231.974 46.7496 230.993 46.6405 230.013 46.6405C229.032 46.6405 228.051 46.8588 227.07 47.1862C226.089 47.6228 225.326 48.1685 224.563 48.8234L215.954 57.4458C214.537 58.8647 213.665 60.8293 213.665 62.9031C213.665 64.9768 214.428 66.8323 215.954 68.3603C217.37 69.7792 219.332 70.6524 221.403 70.6524C223.473 70.6524 225.326 69.8884 226.852 68.3603L231.211 63.9945C231.538 63.6671 231.647 63.3397 231.647 62.9031C231.647 62.4665 231.538 62.1391 231.211 61.8116C231.102 61.7025 230.884 61.5933 230.666 61.4842C230.448 61.3751 230.231 61.3751 230.122 61.3751C229.904 61.3751 229.686 61.4842 229.577 61.4842C229.359 61.4842 229.25 61.5933 229.032 61.8116Z" fill="#1ABC94"/>
<path d="M248.431 35.9444C247.777 35.1804 246.905 34.6346 245.924 34.3072C244.943 33.8706 243.963 33.7615 242.982 33.7615C242.001 33.7615 241.02 33.9798 240.039 34.3072C239.058 34.7438 238.295 35.2895 237.533 35.9444L232.301 41.1833C232.192 41.2925 232.083 41.5108 231.974 41.729C231.865 41.9473 231.865 42.1656 231.865 42.2748C231.865 42.4931 231.865 42.7114 231.974 42.8205C232.083 43.0388 232.192 43.1479 232.301 43.3662C232.41 43.4754 232.628 43.5845 232.846 43.6937C233.064 43.8028 233.282 43.8028 233.391 43.8028C233.5 43.8028 233.827 43.8028 233.936 43.6937C234.154 43.5845 234.263 43.4754 234.481 43.3662L239.712 38.1273C240.584 37.2541 241.783 36.8175 242.982 36.8175C244.181 36.8175 245.379 37.3633 246.251 38.1273C247.123 39.0004 247.559 40.201 247.559 41.4016C247.559 42.6022 247.123 43.8028 246.251 44.676L236.552 54.1716C235.68 55.0447 234.481 55.4813 233.282 55.4813C232.083 55.4813 230.884 55.0447 230.013 54.1716C229.686 53.8441 229.359 53.735 228.923 53.735C228.487 53.735 228.16 53.8441 227.833 54.1716C227.506 54.499 227.397 54.8264 227.397 55.263C227.397 55.6996 227.506 56.027 227.833 56.3545C228.487 57.1185 229.359 57.6642 230.34 57.9916C231.32 58.4282 232.301 58.5374 233.282 58.5374C234.263 58.5374 235.244 58.3191 236.225 57.9916C237.206 57.5551 237.968 57.0093 238.731 56.3545L248.322 46.7497C249.085 46.0948 249.63 45.2217 249.957 44.2394C250.393 43.3662 250.502 42.2748 250.611 41.2925C250.611 40.3102 250.393 39.3279 250.066 38.3456C249.63 37.4724 249.085 36.7084 248.431 35.9444Z" fill="#1ABC94"/>
<path d="M463.99 227.195C488.848 227.195 509 207.014 509 182.118C509 157.223 488.848 137.041 463.99 137.041C439.131 137.041 418.979 157.223 418.979 182.118C418.979 207.014 439.131 227.195 463.99 227.195Z" fill="white" stroke="#D1DAE5" stroke-width="1.8833" stroke-miterlimit="10" stroke-linecap="round" stroke-linejoin="round"/>
<path d="M469.112 168.366H474.234C474.343 168.366 474.452 168.366 474.561 168.257C474.67 168.257 474.779 168.148 474.888 168.038C474.997 167.929 474.997 167.82 475.106 167.711C475.106 167.602 475.215 167.493 475.215 167.384V162.254C475.215 162.145 475.215 162.035 475.106 161.926C475.106 161.817 474.997 161.708 474.888 161.599C474.779 161.49 474.67 161.49 474.561 161.381C474.452 161.381 474.343 161.271 474.234 161.271H469.112C466.605 161.271 464.208 162.254 462.464 164C460.72 165.746 459.739 168.148 459.739 170.658V176.661H453.745C453.636 176.661 453.527 176.661 453.418 176.77C453.309 176.77 453.2 176.879 453.091 176.988C452.982 177.097 452.982 177.207 452.873 177.316C452.873 177.425 452.764 177.534 452.764 177.643V182.773C452.764 182.882 452.764 182.991 452.873 183.1C452.873 183.21 452.982 183.319 453.091 183.428C453.2 183.537 453.309 183.537 453.418 183.646C453.527 183.646 453.636 183.755 453.745 183.755H459.739V201.873C459.739 201.983 459.739 202.092 459.848 202.201C459.957 202.31 459.957 202.419 460.066 202.528C460.175 202.637 460.284 202.637 460.393 202.747C460.502 202.747 460.611 202.856 460.72 202.856H465.842C465.951 202.856 466.06 202.856 466.169 202.747C466.278 202.747 466.387 202.637 466.496 202.528C466.605 202.419 466.605 202.31 466.714 202.201C466.714 202.092 466.823 201.983 466.823 201.873V183.755H472.817C473.035 183.755 473.144 183.755 473.362 183.646C473.471 183.537 473.58 183.428 473.689 183.21L475.433 178.08C475.433 177.971 475.542 177.861 475.542 177.752C475.542 177.643 475.542 177.534 475.433 177.425C475.324 177.316 475.324 177.207 475.215 177.207C475.106 177.097 474.997 177.097 474.888 177.097H466.823V171.094C466.823 170.44 467.15 169.785 467.586 169.239C467.695 168.584 468.349 168.366 469.112 168.366Z" fill="#2196F3"/>
<path d="M92.3147 91.1737C117.173 91.1737 137.325 70.9921 137.325 46.0969C137.325 21.2016 117.173 1.02002 92.3147 1.02002C67.4561 1.02002 47.3042 21.2016 47.3042 46.0969C47.3042 70.9921 67.4561 91.1737 92.3147 91.1737Z" fill="white" stroke="#D1DAE5" stroke-width="1.8833" stroke-miterlimit="10" stroke-linecap="round" stroke-linejoin="round"/>
<path d="M109.752 38.784C109.752 37.3652 109.425 35.8371 108.88 34.5274C108.444 33.3268 107.79 32.2354 106.81 31.3622C105.938 30.489 104.848 29.725 103.649 29.2884C102.232 28.7427 100.815 28.5244 99.3987 28.5244C97.5459 28.4153 96.892 28.4153 92.0967 28.4153C87.3014 28.4153 86.7565 28.4153 84.7948 28.5244C83.378 28.5244 81.8522 28.8519 80.5444 29.3976C79.3456 29.8342 78.2557 30.489 77.3839 31.4713C76.512 32.3445 75.7491 33.436 75.3132 34.6365C74.7682 36.0554 74.5503 37.4743 74.5503 38.8932C74.4413 40.7487 74.4413 41.4035 74.4413 46.2059C74.4413 51.0083 74.4413 51.554 74.5503 53.5186C74.5503 54.9375 74.8772 56.4655 75.4221 57.7753C75.8581 58.9759 76.512 60.0673 77.4928 60.9405C78.3647 61.8136 79.4546 62.5776 80.6534 63.0142C82.0702 63.5599 83.487 63.7782 84.9038 63.8874C86.7565 63.9965 87.4104 63.9965 92.2057 63.9965C97.001 63.9965 97.5459 63.9965 99.5077 63.8874C100.924 63.8874 102.45 63.5599 103.758 63.0142C104.957 62.5776 105.938 61.9228 106.919 60.9405C107.899 59.9582 108.444 58.9759 108.989 57.7753C109.534 56.3564 109.752 54.9375 109.861 53.5186C109.97 51.6631 109.97 51.0083 109.97 46.2059C109.97 41.4035 109.861 40.7487 109.752 38.784ZM106.592 53.1912C106.592 54.2826 106.374 55.3741 105.938 56.4655C105.611 57.2295 105.175 57.8844 104.63 58.5393C104.085 59.085 103.322 59.5216 102.559 59.849C101.469 60.2856 100.38 60.3947 99.2897 60.5039C97.437 60.613 96.892 60.613 92.2057 60.613C87.5194 60.613 86.9745 60.613 85.1217 60.5039C84.0319 60.5039 82.9421 60.2856 81.8522 59.849C81.0893 59.5216 80.4354 59.085 79.7815 58.5393C79.2366 57.9936 78.8007 57.2295 78.4737 56.4655C78.0378 55.3741 77.9288 54.2826 77.8198 53.1912C77.7108 51.3357 77.7108 50.79 77.7108 46.0968C77.7108 41.4035 77.7108 40.8578 77.8198 39.0023C77.8198 37.9109 78.0378 36.8194 78.4737 35.728C78.8007 34.964 79.2366 34.3091 79.7815 33.6542C80.3264 33.1085 81.0893 32.6719 81.8522 32.3445C82.9421 31.9079 84.0319 31.7988 85.1217 31.6896C86.9745 31.5805 87.5194 31.5805 92.2057 31.5805C96.892 31.5805 97.437 31.5805 99.2897 31.6896C100.38 31.6896 101.469 31.9079 102.559 32.3445C103.322 32.6719 103.976 33.1085 104.63 33.6542C105.175 34.2 105.611 34.964 105.938 35.728C106.374 36.8194 106.483 37.9109 106.592 39.0023C106.701 40.8578 106.701 41.4035 106.701 46.0968C106.701 50.79 106.701 51.3357 106.592 53.1912Z" fill="url(#paint0_linear)"/>
<path d="M92.3147 37.0378C90.571 37.0378 88.8272 37.5836 87.3014 38.5659C85.7756 39.5482 84.6858 40.9671 83.9229 42.6042C83.269 44.2414 83.051 46.0969 83.378 47.8432C83.7049 49.5895 84.5768 51.2267 85.8846 52.4273C87.1924 53.737 88.7182 54.6102 90.462 54.9376C92.2057 55.2651 94.0585 55.1559 95.6932 54.3919C97.328 53.737 98.7448 52.5364 99.7256 51.0084C100.707 49.4804 101.251 47.7341 101.251 45.9877C101.251 43.5865 100.271 41.2945 98.6358 39.5482C97.001 38.0202 94.7124 37.0378 92.3147 37.0378ZM92.3147 51.9907C91.1159 51.9907 90.026 51.6633 89.0452 51.0084C88.0643 50.3535 87.3014 49.4804 86.8655 48.3889C86.4296 47.2975 86.3206 46.0969 86.5385 45.0054C86.7565 43.914 87.3014 42.8225 88.1733 41.9494C89.0452 41.0762 90.026 40.5305 91.2249 40.3122C92.3147 40.0939 93.5135 40.203 94.6034 40.6396C95.6932 41.0762 96.5651 41.8402 97.219 42.8225C97.8729 43.8048 98.1999 44.8963 98.1999 46.0969C98.1999 46.8609 98.0909 47.6249 97.7639 48.3889C97.437 49.1529 97.001 49.6987 96.4561 50.2444C95.9112 50.7901 95.2573 51.2267 94.6034 51.5541C93.8405 51.7724 93.0776 51.9907 92.3147 51.9907Z" fill="url(#paint1_linear)"/>
<path d="M103.759 36.7101C103.759 37.1467 103.65 37.5832 103.432 37.9105C103.214 38.2379 102.887 38.5653 102.451 38.6744C102.015 38.7836 101.688 38.8927 101.252 38.7836C100.816 38.6744 100.489 38.4562 100.162 38.2379C99.8347 37.9105 99.6167 37.5832 99.6167 37.1466C99.6167 36.7101 99.6167 36.2736 99.7257 35.9462C99.8347 35.5097 100.162 35.1824 100.489 34.9641C100.816 34.7458 101.252 34.6367 101.688 34.6367C102.233 34.6367 102.778 34.855 103.214 35.2915C103.541 35.6189 103.759 36.1645 103.759 36.7101Z" fill="url(#paint2_linear)"/>
<path fill-rule="evenodd" clip-rule="evenodd" d="M401.953 345.038C373.508 322.445 354.109 352.679 358.251 382.366C362.065 410.525 395.196 506.682 391.382 547.611L402.607 547.284C427.783 494.239 438.354 373.962 401.953 345.038Z" fill="#EAEFF4"/>
<path fill-rule="evenodd" clip-rule="evenodd" d="M459.933 427.334C487.615 416.31 493.173 442.723 481.512 463.897C473.665 478.304 444.566 515.304 425.276 546.629L401.844 547.284C408.056 500.57 431.27 438.794 459.933 427.334Z" fill="#EAEFF4"/>
<path d="M411.762 547.066C411.762 547.066 423.968 500.133 473.774 435.083" stroke="#D1DAE5" stroke-width="1.8833" stroke-miterlimit="10" stroke-linecap="round" stroke-linejoin="round"/>
<path d="M396.722 547.502C396.722 547.502 421.134 482.561 381.355 349.95" stroke="#D1DAE5" stroke-width="1.8833" stroke-miterlimit="10" stroke-linecap="round" stroke-linejoin="round"/>
<path fill-rule="evenodd" clip-rule="evenodd" d="M333.184 398.956C303.649 386.95 297.437 415.109 309.644 437.92C319.779 456.803 363.482 512.357 380.592 548.375L395.305 547.939C394.651 497.623 368.059 413.145 333.184 398.956Z" fill="#EAEFF4"/>
<path d="M318.362 407.251C318.362 407.251 375.797 479.832 388.766 548.157" stroke="#D1DAE5" stroke-width="1.8833" stroke-miterlimit="10" stroke-linecap="round" stroke-linejoin="round"/>
<path d="M1 547.611H472.684" stroke="#B8C0CC" stroke-width="1.8833" stroke-miterlimit="10" stroke-linecap="round" stroke-linejoin="round"/>
<path d="M275.75 572.169H101.484C87.9696 572.169 76.9622 561.145 76.9622 547.611V185.578C76.9622 172.044 87.9696 161.02 101.484 161.02H275.75C289.264 161.02 300.271 172.044 300.271 185.578V547.611C300.271 561.254 289.264 572.169 275.75 572.169Z" fill="white" stroke="#B8C0CC" stroke-width="1.8833" stroke-miterlimit="10" stroke-linecap="round" stroke-linejoin="round"/>
<path d="M290.244 572.169H116.087C102.573 572.169 91.5659 561.145 91.5659 547.611V185.687C91.5659 172.153 102.573 161.129 116.087 161.129H290.244C303.758 161.129 314.766 172.153 314.766 185.687V547.611C314.875 561.145 303.867 572.169 290.244 572.169Z" fill="#EAEFF4"/>
<path d="M288.392 559.617H119.684C110.747 559.617 103.445 552.414 103.445 543.355V188.961C103.445 180.011 110.638 172.699 119.684 172.699H288.501C297.437 172.699 304.739 179.902 304.739 188.961V543.464C304.63 552.414 297.328 559.617 288.392 559.617Z" fill="white"/>
<path d="M290.353 572.169H116.087C102.573 572.169 91.5659 561.145 91.5659 547.611V185.578C91.5659 172.044 102.573 161.02 116.087 161.02H290.353C303.867 161.02 314.875 172.044 314.875 185.578V547.611C314.875 561.254 303.867 572.169 290.353 572.169Z" stroke="#B8C0CC" stroke-width="1.8833" stroke-miterlimit="10" stroke-linecap="round" stroke-linejoin="round"/>
<path d="M139.41 546.629C146.031 546.629 151.398 541.254 151.398 534.623C151.398 527.992 146.031 522.617 139.41 522.617C132.789 522.617 127.422 527.992 127.422 534.623C127.422 541.254 132.789 546.629 139.41 546.629Z" fill="#EAEFF4"/>
<path d="M204.038 546.629C210.659 546.629 216.026 541.254 216.026 534.623C216.026 527.992 210.659 522.617 204.038 522.617C197.417 522.617 192.05 527.992 192.05 534.623C192.05 541.254 197.417 546.629 204.038 546.629Z" fill="#EAEFF4"/>
<path d="M266.05 546.629C272.671 546.629 278.038 541.254 278.038 534.623C278.038 527.992 272.671 522.617 266.05 522.617C259.429 522.617 254.062 527.992 254.062 534.623C254.062 541.254 259.429 546.629 266.05 546.629Z" fill="#EAEFF4"/>
<path fill-rule="evenodd" clip-rule="evenodd" d="M310.08 515.632H141.045C128.512 515.632 118.376 505.481 118.376 492.93V241.678C118.376 229.127 128.512 218.976 141.045 218.976H287.411C299.944 218.976 310.08 229.127 310.08 241.678V515.632Z" fill="#EAEFF4"/>
<path d="M279.891 184.377H291.007" stroke="#B8C0CC" stroke-width="1.8833" stroke-miterlimit="10" stroke-linecap="round" stroke-linejoin="round"/>
<path d="M279.891 189.507H291.007" stroke="#B8C0CC" stroke-width="1.8833" stroke-miterlimit="10" stroke-linecap="round" stroke-linejoin="round"/>
<path d="M279.891 194.637H291.007" stroke="#B8C0CC" stroke-width="1.8833" stroke-miterlimit="10" stroke-linecap="round" stroke-linejoin="round"/>
<path d="M236.624 188.197H171.56C165.675 188.197 160.771 183.395 160.771 177.392V173.026C160.771 167.132 165.566 162.221 171.56 162.221H236.624C242.509 162.221 247.414 167.023 247.414 173.026V177.392C247.305 183.395 242.509 188.197 236.624 188.197Z" fill="#EAEFF4"/>
<path d="M135.923 194.964H123.28C120.229 194.964 117.722 192.454 117.722 189.398C117.722 186.342 120.229 183.832 123.28 183.832H135.923C138.974 183.832 141.481 186.342 141.481 189.398C141.481 192.454 138.974 194.964 135.923 194.964Z" fill="#EAEFF4"/>
<path fill-rule="evenodd" clip-rule="evenodd" d="M361.193 503.626H144.75C136.794 503.626 130.364 497.186 130.364 489.219V221.377C130.364 213.41 136.794 206.97 144.75 206.97H361.084C369.04 206.97 375.47 213.41 375.47 221.377V489.11C375.579 497.186 369.149 503.626 361.193 503.626Z" fill="white" stroke="#B8C0CC" stroke-width="1.8833" stroke-miterlimit="10" stroke-linecap="round" stroke-linejoin="round"/>
<path d="M375.579 450.691H130.364" stroke="#B8C0CC" stroke-width="1.8833" stroke-miterlimit="10" stroke-linecap="round" stroke-linejoin="round"/>
<path d="M154.341 233.82C158.795 233.82 162.406 230.204 162.406 225.743C162.406 221.283 158.795 217.667 154.341 217.667C149.887 217.667 146.276 221.283 146.276 225.743C146.276 230.204 149.887 233.82 154.341 233.82Z" fill="#EAEFF4"/>
<path fill-rule="evenodd" clip-rule="evenodd" d="M361.193 503.626H144.75C136.794 503.626 130.364 497.186 130.364 489.219V221.377C130.364 213.41 136.794 206.97 144.75 206.97H361.084C369.04 206.97 375.47 213.41 375.47 221.377V489.11C375.579 497.186 369.149 503.626 361.193 503.626Z" fill="white"/>
<path opacity="0.12" d="M375.579 256.194H130.364V442.614H375.579V256.194Z" fill="#B8C0CC"/>
<path d="M308.479 361.759V353.963C308.479 349.953 311.729 346.703 315.739 346.703C319.749 346.703 323 349.953 323 353.963V361.759C323 365.769 319.749 369.02 315.739 369.02C311.729 369.02 308.479 365.769 308.479 361.759Z" fill="white" stroke="#B8C0CC" stroke-width="1.88" stroke-miterlimit="10" stroke-linecap="round" stroke-linejoin="round"/>
<path d="M312 340.02H319V347.02H312V340.02Z" fill="white" stroke="#B8C0CC" stroke-width="1.88" stroke-miterlimit="10" stroke-linecap="round" stroke-linejoin="round"/>
<path d="M302 363.02L293 363.02L290 340.02L305 340.02L302 363.02Z" fill="white" stroke="#B8C0CC" stroke-width="1.88" stroke-miterlimit="10" stroke-linecap="round" stroke-linejoin="round"/>
<path d="M302 369.02L293 369.02L293 363.02L302 363.02L302 369.02Z" fill="white" stroke="#B8C0CC" stroke-width="1.88" stroke-miterlimit="10" stroke-linecap="round" stroke-linejoin="round"/>
<path d="M355.111 365.816C360.357 362.557 363.847 356.737 363.847 350.102C363.847 349.659 363.832 349.225 363.801 348.798H327.046C327.015 349.233 327 349.667 327 350.11C327 356.752 330.49 362.572 335.736 365.824" stroke="#B8C0CC" stroke-width="1.88" stroke-miterlimit="10"/>
<path d="M330.304 348.783C330.304 348.783 326.652 346.447 327.325 339.044C327.325 339.044 330.405 341.442 333.972 342.777C337.856 344.236 337.74 348.542 337.74 348.791" stroke="#B8C0CC" stroke-width="1.88" stroke-miterlimit="10"/>
<path d="M355.111 365.816H335.744V369.58H355.111V365.816Z" stroke="#B8C0CC" stroke-width="1.88" stroke-miterlimit="10"/>
<path d="M331.658 345.966L335.163 348.783" stroke="#B8C0CC" stroke-width="1.88" stroke-miterlimit="10"/>
<path d="M341.454 348.783C341.454 348.783 347.319 345.958 346.112 336.623C346.112 336.623 343.218 339.02 337.817 341.279C336.765 341.721 335.643 342.97 335.372 343.529" stroke="#B8C0CC" stroke-width="1.88" stroke-miterlimit="10"/>
<path d="M340.688 343.972L337.601 347.402" stroke="#B8C0CC" stroke-width="1.88" stroke-miterlimit="10"/>
<path d="M361.569 339.626L358.69 348.791H348.85L357.205 337.447L361.569 339.626Z" stroke="#B8C0CC" stroke-width="1.88" stroke-miterlimit="10"/>
<path d="M345.798 352.903V360.229" stroke="#B8C0CC" stroke-width="3" stroke-linecap="round"/>
<path d="M349.461 356.566L342.135 356.566" stroke="#B8C0CC" stroke-width="3" stroke-linecap="round"/>
<path d="M360.5 340.02C362.985 340.02 365 338.005 365 335.52C365 333.035 362.985 331.02 360.5 331.02C358.015 331.02 356 333.035 356 335.52C356 338.005 358.015 340.02 360.5 340.02Z" fill="#B8C0CC"/>
<path d="M286 370.02H361C362.657 370.02 364 371.363 364 373.02V439.02C364 440.677 362.657 442.02 361 442.02H286C284.343 442.02 283 440.677 283 439.02V373.02C283 371.363 284.343 370.02 286 370.02Z" fill="#E9E9E9" stroke="#B8C0CC" stroke-width="1.88" stroke-miterlimit="10" stroke-linecap="round" stroke-linejoin="round"/>
<path d="M151 331.02C151 308.376 169.356 290.02 192 290.02C214.644 290.02 233 308.376 233 331.02V442.578H151V331.02Z" fill="white" stroke="#B8C0CC" stroke-width="1.88"/>
<path fill-rule="evenodd" clip-rule="evenodd" d="M192 290.02C169.356 290.02 151 308.376 151 331.02V442.578H164.349V331.02C164.349 310.649 179.206 293.748 198.675 290.561C196.503 290.205 194.273 290.02 192 290.02Z" fill="#E9E9E9"/>
<path d="M151 442.578H150.06V443.518H151V442.578ZM164.349 442.578V443.518H165.289V442.578H164.349ZM198.675 290.561L198.827 291.488L198.827 289.633L198.675 290.561ZM151.94 331.02C151.94 308.895 169.875 290.96 192 290.96V289.08C168.837 289.08 150.06 307.857 150.06 331.02H151.94ZM151.94 442.578V331.02H150.06V442.578H151.94ZM164.349 441.638H151V443.518H164.349V441.638ZM165.289 442.578V331.02H163.409V442.578H165.289ZM165.289 331.02C165.289 311.117 179.805 294.602 198.827 291.488L198.523 289.633C178.607 292.893 163.409 310.181 163.409 331.02H165.289ZM192 290.96C194.222 290.96 196.401 291.141 198.523 291.488L198.827 289.633C196.605 289.269 194.324 289.08 192 289.08V290.96Z" fill="#B8C0CC"/>
<path fill-rule="evenodd" clip-rule="evenodd" d="M361.193 503.626H144.75C136.794 503.626 130.364 497.186 130.364 489.219V221.377C130.364 213.41 136.794 206.97 144.75 206.97H361.084C369.04 206.97 375.47 213.41 375.47 221.377V489.11C375.579 497.186 369.149 503.626 361.193 503.626Z" stroke="#B8C0CC" stroke-width="1.8833" stroke-miterlimit="10" stroke-linecap="round" stroke-linejoin="round"/>
<path d="M131 256.02L375 256.02" stroke="#B8C0CC" stroke-width="1.8833" stroke-miterlimit="10" stroke-linecap="round" stroke-linejoin="round"/>
<path d="M130.364 442.505H375.579" stroke="#B8C0CC" stroke-width="1.8833" stroke-miterlimit="10" stroke-linecap="round" stroke-linejoin="round"/>
<path d="M158.918 243.315C165.961 243.315 171.669 237.598 171.669 230.545C171.669 223.493 165.961 217.775 158.918 217.775C151.876 217.775 146.167 223.493 146.167 230.545C146.167 237.598 151.876 243.315 158.918 243.315Z" fill="#EAEFF4"/>
<path d="M183.113 225.088H305.72" stroke="#D1DAE5" stroke-width="1.8833" stroke-miterlimit="10" stroke-linecap="round" stroke-linejoin="round"/>
<path d="M183.113 236.221H254.715" stroke="#D1DAE5" stroke-width="1.8833" stroke-miterlimit="10" stroke-linecap="round" stroke-linejoin="round"/>
<path d="M358.796 462.478H147.148" stroke="#D1DAE5" stroke-width="1.8833" stroke-miterlimit="10" stroke-linecap="round" stroke-linejoin="round"/>
<path d="M358.796 474.593H147.148" stroke="#D1DAE5" stroke-width="1.8833" stroke-miterlimit="10" stroke-linecap="round" stroke-linejoin="round"/>
<path d="M147.148 486.599H218.751" stroke="#D1DAE5" stroke-width="1.8833" stroke-miterlimit="10" stroke-linecap="round" stroke-linejoin="round"/>
<path d="M326.202 405.5L328 442.5L306.687 442.342L306 405.5" fill="#F1F2F5"/>
<path d="M326.202 405.5L328 442.5L306.687 442.342L306 405.5" stroke="#B8C0CC" stroke-width="2" stroke-miterlimit="10" stroke-linecap="round" stroke-linejoin="round"/>
<path d="M192.263 405.5L190 442.5H213L212.368 405.5" fill="#F1F2F5"/>
<path d="M192.263 405.5L190 442.5H213L212.368 405.5" stroke="#B8C0CC" stroke-width="2" stroke-miterlimit="10" stroke-linecap="round" stroke-linejoin="round"/>
<path d="M346.947 400.5H176V396.396C176 394.266 177.807 392.5 179.987 392.5H343.013C345.193 392.5 347 394.266 347 396.396V400.5H346.947Z" fill="white" stroke="#B8C0CC" stroke-width="1.8833" stroke-miterlimit="10" stroke-linecap="round" stroke-linejoin="round"/>
<path d="M347.901 405.5H175.099C172.863 405.5 171 403.734 171 401.5C171 399.318 172.81 397.5 175.099 397.5H347.901C350.137 397.5 352 399.266 352 401.5C352 403.734 350.137 405.5 347.901 405.5Z" fill="white" stroke="#B8C0CC" stroke-width="1.8833" stroke-miterlimit="10" stroke-linecap="round" stroke-linejoin="round"/>
<path d="M209 397.5V405.5" stroke="#B8C0CC" stroke-width="1.8833" stroke-miterlimit="10" stroke-linecap="round" stroke-linejoin="round"/>
<path d="M212 397.5C212 397.5 211.955 393.578 215 392.5L212 397.5Z" fill="white"/>
<path d="M212 397.5C212 397.5 211.955 393.578 215 392.5" stroke="#B8C0CC" stroke-width="1.8833" stroke-miterlimit="10" stroke-linecap="round" stroke-linejoin="round"/>
<path d="M199 415.5L198 433.5" stroke="#DAE1E5" stroke-width="2" stroke-miterlimit="10" stroke-linecap="round"/>
<path d="M214 406.095C214 406.095 223.696 420.02 230.914 420.02C238.204 420.02 274 406.02 274 406.02L214 406.095Z" fill="#F1F2F5" stroke="#B8C0CC" stroke-width="2" stroke-miterlimit="10" stroke-linecap="round" stroke-linejoin="round"/>
<path d="M218 392.031C218 392.031 219.824 389.066 223.253 389.066C226.901 389.066 324.451 388.705 337 390.006C337 390.006 309.056 426.02 300.519 426.02C291.983 426.02 268.927 392.031 268.927 392.031H218Z" fill="#F1F2F5" stroke="#B8C0CC" stroke-width="2" stroke-miterlimit="10" stroke-linecap="round" stroke-linejoin="round"/>
<path d="M104.94 290.02C104.94 285.016 108.996 280.96 114 280.96H167C172.004 280.96 176.06 285.016 176.06 290.02V321.12C176.06 326.124 172.004 330.18 167 330.18H155.08C153.74 330.18 152.458 330.725 151.527 331.689L143.463 340.041C142.288 341.257 140.35 341.29 139.134 340.115L130.293 331.568C129.371 330.678 128.14 330.18 126.859 330.18H114C108.996 330.18 104.94 326.124 104.94 321.12V290.02Z" fill="white" stroke="#1ABC94" stroke-width="1.88"/>
<path d="M139.535 322.872C139.921 323.206 140.416 323.391 140.929 323.391C141.443 323.391 141.938 323.206 142.324 322.872C143.784 321.608 145.191 320.42 146.433 319.373L146.433 319.372C150.067 316.306 153.204 313.659 155.387 311.05C157.828 308.134 158.965 305.369 158.965 302.348C158.965 299.413 157.949 296.706 156.104 294.724C154.236 292.719 151.674 291.614 148.888 291.614C146.806 291.614 144.899 292.266 143.221 293.551C142.374 294.2 141.606 294.994 140.929 295.92C140.253 294.994 139.485 294.2 138.638 293.551C136.96 292.266 135.053 291.614 132.971 291.614C130.185 291.614 127.623 292.719 125.756 294.724C123.91 296.706 122.894 299.413 122.894 302.348C122.894 305.369 124.031 308.134 126.472 311.05C128.655 313.659 131.793 316.307 135.427 319.373L135.434 319.379C136.673 320.424 138.078 321.61 139.535 322.872Z" fill="#F93C3C"/>
<path d="M260 308.02V256.02H291V308.02" stroke="#B8C0CC" stroke-width="1.88" stroke-linecap="round" stroke-linejoin="round"/>
<path d="M291 309.019H260C261.396 310.685 266.487 314.019 275.68 314.019C284.872 314.019 289.723 310.685 291 309.019Z" fill="white" stroke="#B8C0CC" stroke-width="1.88" stroke-miterlimit="10" stroke-linecap="round" stroke-linejoin="round"/>
<path d="M275.729 306.243C274.161 304.768 270.112 302.703 267 306.243C268.206 307.888 271.749 310.191 275.729 306.243Z" fill="white" stroke="#B8C0CC" stroke-width="1.5" stroke-linejoin="round"/>
<path d="M284 306.243C282.515 304.768 278.678 302.703 275.73 306.243C276.873 307.888 280.229 310.191 284 306.243Z" fill="white" stroke="#B8C0CC" stroke-width="1.5" stroke-linejoin="round"/>
<path d="M275.604 296.019C273.965 297.587 271.671 301.636 275.604 304.748C277.432 303.542 279.991 299.999 275.604 296.019Z" fill="white" stroke="#B8C0CC" stroke-width="1.5" stroke-linejoin="round"/>
<path d="M275.616 305.901C275.616 303.728 274.331 299.401 269.567 299.852C269.191 301.899 269.95 306.051 275.616 305.901Z" fill="white" stroke="#B8C0CC" stroke-width="1.5" stroke-linejoin="round"/>
<path d="M281.657 299.851C279.484 299.851 275.156 301.136 275.608 305.9C277.655 306.276 281.807 305.518 281.657 299.851Z" fill="white" stroke="#B8C0CC" stroke-width="1.5" stroke-linejoin="round"/>
<defs>
<linearGradient id="paint0_linear" x1="77.6108" y1="60.7545" x2="106.955" y2="31.4543" gradientUnits="userSpaceOnUse">
<stop stop-color="#FFD600"/>
<stop offset="0.5" stop-color="#FF0100"/>
<stop offset="1" stop-color="#D800B9"/>
</linearGradient>
<linearGradient id="paint1_linear" x1="85.8671" y1="52.4856" x2="98.6867" y2="39.6847" gradientUnits="userSpaceOnUse">
<stop stop-color="#FF6400"/>
<stop offset="0.5" stop-color="#FF0100"/>
<stop offset="1" stop-color="#FD0056"/>
</linearGradient>
<linearGradient id="paint2_linear" x1="100.167" y1="38.1683" x2="103.163" y2="35.176" gradientUnits="userSpaceOnUse">
<stop stop-color="#F30072"/>
<stop offset="1" stop-color="#E50097"/>
</linearGradient>
</defs>
</svg>
