<svg width="20" height="21" viewBox="0 0 20 21" fill="none" xmlns="http://www.w3.org/2000/svg">
<g clip-path="url(#clip0)">
<path d="M9.55163 1.78188C9.73504 1.41025 10.265 1.41025 10.4484 1.78188L12.8226 6.59258C12.8954 6.74015 13.0362 6.84243 13.1991 6.8661L18.508 7.63753C18.9181 7.69712 19.0818 8.20111 18.7851 8.49037L14.9435 12.235C14.8257 12.3499 14.7719 12.5154 14.7997 12.6775L15.7066 17.965C15.7766 18.3735 15.3479 18.685 14.9811 18.4921L10.2327 15.9957C10.087 15.9191 9.91299 15.9191 9.76733 15.9957L5.01888 18.4921C4.65207 18.685 4.22335 18.3735 4.29341 17.965L5.20028 12.6775C5.2281 12.5154 5.17433 12.3499 5.05648 12.235L1.21491 8.49037C0.918151 8.20111 1.08191 7.69712 1.49202 7.63753L6.80094 6.8661C6.9638 6.84243 7.10458 6.74015 7.17741 6.59258L9.55163 1.78188Z" stroke="#1ABC94" stroke-width="1.5"/>
</g>
<defs>
<clipPath id="clip0">
<rect width="20" height="20" fill="white" transform="translate(0 0.0400391)"/>
</clipPath>
</defs>
</svg>
