<svg width="106" height="107" viewBox="0 0 106 107" fill="none" xmlns="http://www.w3.org/2000/svg">
<path d="M53 106.02C82.2711 106.02 106 82.2911 106 53.02C106 23.7489 82.2711 0.0200195 53 0.0200195C23.7289 0.0200195 0 23.7489 0 53.02C0 82.2911 23.7289 106.02 53 106.02Z" fill="#F0F4F7"/>
<path d="M86.6177 83.5522V100.342C86.614 101.581 86.1199 102.769 85.2431 103.646C84.3663 104.523 83.178 105.017 81.9381 105.02H46.9911C45.751 105.018 44.5623 104.524 43.6854 103.647C42.8086 102.77 42.3149 101.582 42.3125 100.342V30.3275C42.3162 29.0877 42.8103 27.8998 43.6869 27.0231C44.5635 26.1463 45.7513 25.6519 46.9911 25.6479H81.9381C83.1781 25.6516 84.3663 26.1459 85.2431 27.0227C86.1199 27.8995 86.614 29.0876 86.6177 30.3275V44.7372" fill="white"/>
<path d="M86.6177 83.5522V100.342C86.614 101.581 86.1199 102.769 85.2431 103.646C84.3663 104.523 83.178 105.017 81.9381 105.02H46.9911C45.751 105.018 44.5623 104.524 43.6854 103.647C42.8086 102.77 42.3149 101.582 42.3125 100.342V30.3275C42.3162 29.0877 42.8103 27.8998 43.6869 27.0231C44.5635 26.1463 45.7513 25.6519 46.9911 25.6479H81.9381C83.1781 25.6516 84.3663 26.1459 85.2431 27.0227C86.1199 27.8995 86.614 29.0876 86.6177 30.3275V44.7372" stroke="#B8C0CC" stroke-width="1.88" stroke-miterlimit="10" stroke-linecap="round"/>
<path d="M63.8463 47.8839H19.8482C18.6524 47.8839 17.683 48.8533 17.683 50.0492V77.2598C17.683 78.4557 18.6524 79.4251 19.8482 79.4251H63.8463C65.0421 79.4251 66.0115 78.4557 66.0115 77.2598V50.0492C66.0115 48.8533 65.0421 47.8839 63.8463 47.8839Z" fill="white" stroke="#1ABC94" stroke-width="2" stroke-miterlimit="10" stroke-linecap="round"/>
<path d="M23.4575 71.9609H48.883" stroke="#1ABC94" stroke-width="2" stroke-miterlimit="10" stroke-linecap="round"/>
<path d="M64.5246 99.6104C66.626 99.6104 68.3295 97.9069 68.3295 95.8055C68.3295 93.7041 66.626 92.0006 64.5246 92.0006C62.4232 92.0006 60.7197 93.7041 60.7197 95.8055C60.7197 97.9069 62.4232 99.6104 64.5246 99.6104Z" fill="#B8C0CC"/>
<path d="M58.6013 31.9872H70.5067" stroke="#B8C0CC" stroke-width="2" stroke-miterlimit="10" stroke-linecap="round"/>
<path d="M75.8455 52.9475H101.777" stroke="#B8C0CC" stroke-width="1.88" stroke-linecap="round" stroke-linejoin="round"/>
<path d="M97.3809 47.4021L102.623 52.6442L97.3809 57.8863" stroke="#B8C0CC" stroke-width="1.88" stroke-linecap="round" stroke-linejoin="round"/>
<path d="M84.9073 77.9999C85.2654 77.9999 85.6089 77.8576 85.8621 77.6044C86.1154 77.3511 86.2577 77.0077 86.2577 76.6495V75.8306C87.4255 75.7605 88.5227 75.2476 89.3253 74.3963C90.128 73.5451 90.5758 72.4198 90.5772 71.2498V71.1151C90.5754 69.8989 90.0914 68.7331 89.2315 67.8731C88.3715 67.0132 87.2055 66.5292 85.9893 66.5274H83.6955C83.218 66.4926 82.7712 66.2785 82.4452 65.9279C82.1191 65.5773 81.9379 65.1162 81.9379 64.6374C81.9379 64.1586 82.1191 63.6976 82.4452 63.347C82.7712 62.9964 83.218 62.7821 83.6955 62.7474H87.0446C87.2419 62.7476 87.4309 62.8262 87.5703 62.9657C87.7098 63.1051 87.7884 63.2942 87.7886 63.4915V63.5234C87.786 63.8712 87.9178 64.2065 88.1564 64.4595C88.3951 64.7125 88.7223 64.8635 89.0697 64.8811C89.417 64.8987 89.7577 64.7816 90.0207 64.5541C90.2838 64.3266 90.4488 64.0062 90.4814 63.66V63.639C90.5012 63.1871 90.4319 62.7358 90.2771 62.3108C90.1224 61.8857 89.8854 61.4953 89.5798 61.1619C89.2741 60.8284 88.9058 60.5585 88.4957 60.3675C88.0857 60.1764 87.6422 60.0681 87.1903 60.0486H87.0426H86.2586V59.2387C86.2636 59.0584 86.2322 58.8789 86.1666 58.7109C86.101 58.5428 86.0023 58.3896 85.8765 58.2603C85.7506 58.131 85.6003 58.0281 85.4341 57.958C85.2678 57.8878 85.0891 57.8517 84.9087 57.8517C84.7283 57.8517 84.5497 57.8878 84.3835 57.958C84.2173 58.0281 84.0668 58.131 83.941 58.2603C83.8151 58.3896 83.7165 58.5428 83.6508 58.7109C83.5852 58.8789 83.5539 59.0584 83.5588 59.2387V60.0515C82.9563 60.0604 82.3616 60.1879 81.8083 60.4266C81.2551 60.6654 80.7542 61.0107 80.3345 61.443C79.9147 61.8752 79.5842 62.3859 79.3618 62.9459C79.1394 63.5059 79.0295 64.1043 79.0383 64.7068C79.0472 65.3092 79.1746 65.904 79.4133 66.4572C79.652 67.0105 79.9974 67.5113 80.4297 67.9311C80.8619 68.3509 81.3727 68.6813 81.9327 68.9037C82.4927 69.1261 83.091 69.2361 83.6934 69.2272H85.9874C86.2362 69.2272 86.4826 69.2763 86.7125 69.3715C86.9424 69.4667 87.1514 69.6063 87.3273 69.7823C87.5033 69.9582 87.6429 70.167 87.7381 70.397C87.8333 70.6269 87.8824 70.8734 87.8824 71.1222V71.2578C87.8808 71.7594 87.6805 72.2398 87.3253 72.5939C86.9701 72.948 86.4889 73.1467 85.9874 73.1467H82.5845C82.4868 73.1469 82.3901 73.1278 82.2998 73.0905C82.2095 73.0532 82.1275 72.9985 82.0584 72.9295C81.9893 72.8605 81.9345 72.7786 81.8971 72.6884C81.8597 72.5981 81.8405 72.5014 81.8405 72.4037V72.3908V72.2512C81.8399 71.8977 81.7008 71.5585 81.4529 71.3064C81.2051 71.0543 80.8684 70.9095 80.515 70.9029C80.1616 70.8964 79.8197 71.0287 79.5627 71.2715C79.3057 71.5142 79.1542 71.848 79.1406 72.2012V72.3419C79.1323 72.794 79.2131 73.2433 79.3785 73.6642C79.5439 74.085 79.7906 74.4691 80.1045 74.7946C80.4184 75.12 80.7933 75.3805 81.2079 75.561C81.6224 75.7415 82.0686 75.8385 82.5207 75.8466H83.5559V76.6564C83.5561 77.0144 83.6986 77.3577 83.9518 77.6107C84.205 77.8637 84.5483 78.0059 84.9063 78.0059L84.9073 77.9999Z" fill="#B8C0CC"/>
<path opacity="0.8" d="M27.1856 62.4691C29.2446 62.4691 30.9137 60.8 30.9137 58.741C30.9137 56.6821 29.2446 55.0129 27.1856 55.0129C25.1266 55.0129 23.4575 56.6821 23.4575 58.741C23.4575 60.8 25.1266 62.4691 27.1856 62.4691Z" fill="#1ABC94"/>
<path opacity="0.5" d="M33.129 62.4691C35.1879 62.4691 36.8571 60.8 36.8571 58.741C36.8571 56.6821 35.1879 55.0129 33.129 55.0129C31.07 55.0129 29.4009 56.6821 29.4009 58.741C29.4009 60.8 31.07 62.4691 33.129 62.4691Z" fill="#1ABC94"/>
</svg>
