<svg width="54" height="53" viewBox="0 0 54 53" fill="none" xmlns="http://www.w3.org/2000/svg">
<path d="M0 52.115L2.35403e-06 25.188C3.82075e-06 8.41068 6.13334 0.0213518 18.4 0.0200195C19.754 0.0200196 21.828 0.109018 24.622 0.287018V10.711C16.1387 10.711 11.8997 14.633 11.905 22.477L12.044 27.212H20.835L20.835 52.115H0ZM50.9 27.215H42.113L41.978 22.477C41.9773 15.0844 45.8557 11.163 53.613 10.713V0.289024C51.1803 0.11569 49.4673 0.0283556 48.474 0.0270221C36.2073 0.0270211 30.074 8.41635 30.074 25.195L30.074 52.12L50.913 52.12L50.913 27.22L50.9 27.215Z" fill="url(#paint0_linear)"/>
<defs>
<linearGradient id="paint0_linear" x1="-6.42093e-07" y1="25.5792" x2="44.355" y2="45.8274" gradientUnits="userSpaceOnUse">
<stop stop-color="#0A9FBF"/>
<stop offset="1" stop-color="#28D744"/>
</linearGradient>
</defs>
</svg>
