<svg width="89" height="61" viewBox="0 0 89 61" fill="none" xmlns="http://www.w3.org/2000/svg">
<path d="M24.7294 25.2847C24.7294 20.1882 28.8609 16.0566 33.9575 16.0566C39.054 16.0566 43.1856 20.1882 43.1856 25.2847V48.5747H24.7294V25.2847Z" fill="white" stroke="#B8C0CC" stroke-width="1.88"/>
<path d="M25.1936 42.5806H42.613" stroke="#B8C0CC" stroke-width="1.88"/>
<circle cx="34.0711" cy="7.90981" r="7.90981" fill="#1ABC94"/>
<path d="M21.214 60C17.8163 60 15.0619 57.2456 15.0619 53.8479C15.0619 50.4502 17.8163 47.6959 21.214 47.6959L42.3068 47.6959L42.3068 60L21.214 60Z" fill="white" stroke="#B8C0CC" stroke-width="1.88"/>
<path fill-rule="evenodd" clip-rule="evenodd" d="M44.3068 33.634C43.2022 33.634 42.3068 34.5295 42.3068 35.634V42.4227H42.3068L42.3068 51.2114H51.0955V42.4227H64.2785C66.7054 42.4227 68.6728 40.4553 68.6728 38.0284C68.6728 35.6014 66.7054 33.634 64.2785 33.634H44.3068Z" fill="white"/>
<path d="M42.3068 42.4227H41.3668V43.3627H42.3068V42.4227ZM42.3068 42.4227H43.2468V41.4827H42.3068V42.4227ZM42.3068 51.2114H41.3668V52.1514H42.3068V51.2114ZM51.0955 51.2114V52.1514H52.0355V51.2114H51.0955ZM51.0955 42.4227V41.4827H50.1555V42.4227H51.0955ZM43.2468 35.634C43.2468 35.0486 43.7213 34.574 44.3068 34.574V32.694C42.683 32.694 41.3668 34.0103 41.3668 35.634H43.2468ZM43.2468 42.4227V35.634H41.3668V42.4227H43.2468ZM42.3068 41.4827H42.3068V43.3627H42.3068V41.4827ZM43.2468 51.2114L43.2468 42.4227H41.3668L41.3668 51.2114H43.2468ZM51.0955 50.2714H42.3068V52.1514H51.0955V50.2714ZM50.1555 42.4227V51.2114H52.0355V42.4227H50.1555ZM64.2785 41.4827H51.0955V43.3627H64.2785V41.4827ZM67.7328 38.0284C67.7328 39.9361 66.1862 41.4827 64.2785 41.4827V43.3627C67.2245 43.3627 69.6128 40.9744 69.6128 38.0284H67.7328ZM64.2785 34.574C66.1862 34.574 67.7328 36.1206 67.7328 38.0284H69.6128C69.6128 35.0823 67.2245 32.694 64.2785 32.694V34.574ZM44.3068 34.574H64.2785V32.694H44.3068V34.574Z" fill="#B8C0CC"/>
<path d="M42.3068 60L42.3068 51.2113L82.7347 51.2113C85.1616 51.2113 87.129 53.1787 87.129 55.6057C87.129 58.0326 85.1616 60 82.7347 60L42.3068 60Z" fill="white" stroke="#B8C0CC" stroke-width="1.88"/>
<circle cx="8.47038" cy="49.0141" r="7.47037" fill="white" stroke="#B8C0CC" stroke-width="1.88"/>
<path d="M51.9743 34.0733L41.4279 19.1326L34.397 24.4058L47.1406 38.0282C50.656 41.9831 55.0504 38.0282 51.9743 34.0733Z" fill="white"/>
<path d="M40.549 18.6931L51 34C54.076 37.9549 50.576 40.5155 47.5 37L34.397 24.4058" stroke="#B8C0CC" stroke-width="1.88" stroke-linecap="round"/>
</svg>
