<svg width="76" height="62" viewBox="0 0 76 62" fill="none" xmlns="http://www.w3.org/2000/svg">
<path d="M43.8022 35.8897C46.1364 38.2847 47.9745 41.1245 49.2093 44.2436C49.997 46.7651 51.6802 52.929 49.9531 57.413C48.226 61.8969 4.02126 62.4855 1.744 57.413C0.0362324 53.6089 1.67363 46.2046 2.62728 44.2436C3.86213 41.1245 5.70022 38.2847 8.03437 35.8897C10.3685 33.4947 13.1521 31.5924 16.2226 30.2939C19.2931 28.9955 22.5889 28.3269 25.9183 28.3269C29.2476 28.3269 32.5437 28.9955 35.6142 30.2939C38.6847 31.5924 41.4681 33.4947 43.8022 35.8897Z" fill="white" stroke="#B8C0CC" stroke-width="1.88" stroke-linecap="round" stroke-linejoin="round"/>
<path d="M26.1212 40.1301L18.8239 29.4651L22.8092 28.3266L26.1212 28.0264L29.6409 28.3266L33.6259 29.4651L26.1212 40.1301Z" stroke="#B8C0CC" stroke-width="1.88" stroke-linejoin="round"/>
<path d="M26.7942 28.3269C34.3403 28.3269 40.4576 22.2095 40.4576 14.6634C40.4576 7.11732 34.3403 1 26.7942 1C19.2481 1 13.1307 7.11732 13.1307 14.6634C13.1307 22.2095 19.2481 28.3269 26.7942 28.3269Z" fill="white" stroke="#B8C0CC" stroke-width="1.88" stroke-linecap="round" stroke-linejoin="round"/>
<rect x="42.94" y="14.7786" width="32.12" height="45.2813" rx="1.06" fill="white" stroke="#B8C0CC" stroke-width="1.88"/>
<path d="M58.866 25.6289V39.0096" stroke="#1ABC94" stroke-width="1.88" stroke-linecap="round" stroke-linejoin="round"/>
<path d="M66.2996 25.6294C64.6777 25.6294 64.2723 26.6206 64.2723 27.1161C64.2723 29.3462 62.1097 33.0631 58.8659 33.0631C54.8112 33.0631 53.4596 29.3462 53.4596 27.1161C53.4596 26.6206 53.0541 25.6294 51.4323 25.6294" stroke="#1ABC94" stroke-width="1.88" stroke-linecap="round"/>
<path d="M50.8002 14.7786H66.9987V17.6268C66.9987 18.4884 66.3003 19.1868 65.4387 19.1868H52.3602C51.4987 19.1868 50.8002 18.4884 50.8002 17.6268V14.7786Z" stroke="#B8C0CC" stroke-width="1.88"/>
<path d="M49.6774 43.4514H69.4193" stroke="#B8C0CC" stroke-width="1.88" stroke-linecap="round" stroke-linejoin="round"/>
<path d="M49.6774 48.9355H69.4193" stroke="#B8C0CC" stroke-width="1.88" stroke-linecap="round" stroke-linejoin="round"/>
<path d="M49.6774 54.4194H58.4516" stroke="#B8C0CC" stroke-width="1.88" stroke-linecap="round" stroke-linejoin="round"/>
</svg>
