<svg width="106" height="107" viewBox="0 0 106 107" fill="none" xmlns="http://www.w3.org/2000/svg">
<path d="M53.001 106.02C82.2721 106.02 106.001 82.2911 106.001 53.02C106.001 23.7489 82.2721 0.0200195 53.001 0.0200195C23.7299 0.0200195 0.000976562 23.7489 0.000976562 53.02C0.000976562 82.2911 23.7299 106.02 53.001 106.02Z" fill="#F0F4F7"/>
<path d="M48.8608 86.4131C48.8632 86.8872 49.0525 87.3412 49.3877 87.6765C49.7228 88.0118 50.1768 88.2014 50.6509 88.204H94.3818C94.8559 88.2014 95.3099 88.0118 95.645 87.6765C95.9802 87.3412 96.1695 86.8872 96.1719 86.4131V32.213L82.7529 18.744H50.6528C50.1789 18.7466 49.7251 18.9361 49.39 19.2712C49.0549 19.6064 48.8655 20.0601 48.8629 20.5341V23.7941" fill="white"/>
<path d="M48.8608 86.4131C48.8632 86.8872 49.0525 87.3412 49.3877 87.6765C49.7228 88.0119 50.1768 88.2014 50.6509 88.204H94.3818C94.8559 88.2014 95.3099 88.0119 95.645 87.6765C95.9802 87.3412 96.1695 86.8872 96.1719 86.4131V32.213L82.7529 18.744H50.6528C50.1789 18.7466 49.7251 18.9361 49.39 19.2712C49.0549 19.6064 48.8655 20.0601 48.8629 20.5341V23.7941" stroke="#B8C0CC" stroke-width="1.88" stroke-miterlimit="10" stroke-linecap="round"/>
<path d="M71.2721 56.652C71.2721 61.3954 69.8655 66.0323 67.2303 69.9763C64.595 73.9203 60.8494 76.9942 56.4671 78.8094C52.0847 80.6247 47.2625 81.0996 42.6103 80.1742C37.958 79.2488 33.6847 76.9647 30.3306 73.6106C26.9765 70.2565 24.6924 65.9832 23.767 61.3309C22.8416 56.6787 23.3165 51.8564 25.1317 47.4741C26.947 43.0918 30.0209 39.3462 33.9649 36.7109C37.9089 34.0757 42.5457 32.6691 47.2891 32.6691V56.652H71.2721Z" fill="white" stroke="#B8C0CC" stroke-width="1.88" stroke-miterlimit="10" stroke-linecap="round"/>
<path d="M55.24 24.7151C61.6005 24.7154 67.7004 27.2422 72.1979 31.7399C76.6953 36.2375 79.222 42.3375 79.222 48.698H55.24V24.7151Z" stroke="#1ABC94" stroke-width="1.88" stroke-miterlimit="10" stroke-linecap="round"/>
<path d="M82.7529 18.746V29.333C82.7529 30.078 83.0488 30.7925 83.5756 31.3193C84.1024 31.8461 84.8169 32.142 85.5619 32.142H96.1719" stroke="#B8C0CC" stroke-width="1.88" stroke-miterlimit="10" stroke-linecap="round"/>
<path d="M83.873 39.053H91.338" stroke="#B8C0CC" stroke-width="1.88" stroke-miterlimit="10" stroke-linecap="round"/>
<path d="M83.873 46.24H91.338" stroke="#B8C0CC" stroke-width="1.88" stroke-miterlimit="10" stroke-linecap="round"/>
<path d="M83.873 53.474H91.338" stroke="#B8C0CC" stroke-width="1.88" stroke-miterlimit="10" stroke-linecap="round"/>
<path d="M89.283 72.572C89.2367 72.4284 89.1492 72.3015 89.0313 72.2073C88.9134 72.113 88.7704 72.0555 88.62 72.042L84.433 71.662L82.778 67.787C82.7186 67.6481 82.6198 67.5297 82.4938 67.4465C82.3678 67.3633 82.22 67.319 82.069 67.319C81.918 67.319 81.7702 67.3633 81.6442 67.4465C81.5181 67.5297 81.4194 67.6481 81.36 67.787L79.704 71.661L75.517 72.041C75.3667 72.0549 75.2238 72.1125 75.106 72.2068C74.9881 72.301 74.9005 72.4278 74.8539 72.5713C74.8073 72.7148 74.8038 72.8689 74.8438 73.0144C74.8838 73.1599 74.9656 73.2905 75.079 73.39L78.244 76.165L77.3111 80.276C77.2768 80.4232 77.2866 80.5773 77.3394 80.719C77.3922 80.8607 77.4855 80.9836 77.6078 81.0725C77.7301 81.1614 77.8758 81.2123 78.0269 81.2188C78.1779 81.2252 78.3276 81.1871 78.4571 81.109L82.069 78.9501L85.679 81.109C85.8086 81.1864 85.9581 81.2241 86.1089 81.2173C86.2597 81.2105 86.4051 81.1595 86.5272 81.0708C86.6494 80.9821 86.7428 80.8596 86.7959 80.7183C86.849 80.577 86.8596 80.4232 86.8261 80.276L85.893 76.165L89.057 73.39C89.1708 73.2909 89.2529 73.1605 89.2931 73.015C89.3333 72.8696 89.3297 72.7155 89.283 72.572Z" fill="#1ABC94"/>
</svg>
