<svg width="125" height="106" viewBox="0 0 125 106" fill="none" xmlns="http://www.w3.org/2000/svg">
<path d="M52.86 105.74C82.0538 105.74 105.72 82.0738 105.72 52.88C105.72 23.6862 82.0538 0.0200195 52.86 0.0200195C23.6662 0.0200195 0 23.6862 0 52.88C0 82.0738 23.6662 105.74 52.86 105.74Z" fill="#F0F4F7"/>
<path d="M78.2484 71.1599H36.2725C30.6195 71.1599 26 66.5267 26 60.8569C26 55.187 30.6195 50.5538 36.2725 50.5538H78.2484" stroke="#B8C0CC" stroke-width="2" stroke-miterlimit="10"/>
<path d="M68.1868 61.005H118.706C121.49 61.005 123.768 63.2898 123.768 66.0824C123.768 68.875 121.49 71.1599 118.706 71.1599H108.686H66.7102C61.0572 71.1599 56.4377 66.5267 56.4377 60.8569C56.4377 55.187 61.0572 50.5538 66.7102 50.5538H108.686H118.558C121.427 50.5538 123.768 52.9022 123.768 55.7794C123.768 58.6566 121.427 61.005 118.558 61.005H66.4571" fill="white"/>
<path d="M68.1868 61.005H118.706C121.49 61.005 123.768 63.2898 123.768 66.0824C123.768 68.875 121.49 71.1599 118.706 71.1599H108.686H66.7102C61.0572 71.1599 56.4377 66.5267 56.4377 60.8569C56.4377 55.187 61.0572 50.5538 66.7102 50.5538H108.686H118.558C121.427 50.5538 123.768 52.9022 123.768 55.7794C123.768 58.6566 121.427 61.005 118.558 61.005H66.4571" stroke="#B8C0CC" stroke-width="2" stroke-miterlimit="10" stroke-linecap="round"/>
<path d="M68.1868 81.6323H118.706C121.49 81.6323 123.768 83.9172 123.768 86.7098C123.768 89.5024 121.49 91.7872 118.706 91.7872H108.686H66.7102C61.0572 91.7872 56.4377 87.154 56.4377 81.4842C56.4377 75.8143 61.0572 71.1812 66.7102 71.1812H108.686H118.558C121.427 71.1812 123.768 73.5295 123.768 76.4067C123.768 79.284 121.427 81.6323 118.558 81.6323H66.4571" fill="white"/>
<path d="M68.1868 81.6323H118.706C121.49 81.6323 123.768 83.9172 123.768 86.7098C123.768 89.5024 121.49 91.7872 118.706 91.7872H108.686H66.7102C61.0572 91.7872 56.4377 87.154 56.4377 81.4842C56.4377 75.8143 61.0572 71.1812 66.7102 71.1812H108.686H118.558C121.427 71.1812 123.768 73.5295 123.768 76.4067C123.768 79.284 121.427 81.6323 118.558 81.6323H66.4571" stroke="#B8C0CC" stroke-width="2" stroke-miterlimit="10" stroke-linecap="round"/>
<path d="M78.2484 91.7872H36.2725C30.6195 91.7872 26 87.154 26 81.4842C26 75.8143 30.6195 71.1812 36.2725 71.1812H78.2484" stroke="#B8C0CC" stroke-width="2" stroke-miterlimit="10"/>
<path d="M64.2634 39.1085C64.2634 39.1085 55.2354 27.6207 46.2285 39.1085C46.2285 39.1085 55.2143 50.6597 64.2634 39.1085Z" fill="white" stroke="#B8C0CC" stroke-width="2" stroke-miterlimit="10"/>
<path d="M46.2285 57.1969C46.2285 57.1969 57.6823 48.1421 46.2285 39.1084C46.2285 39.1084 34.7115 48.1209 46.2285 57.1969Z" fill="white" stroke="#B8C0CC" stroke-width="2" stroke-miterlimit="10"/>
<path d="M28.1937 39.1085C28.1937 39.1085 37.2217 50.5963 46.2286 39.1085C46.2286 39.1085 37.2428 27.5572 28.1937 39.1085Z" fill="white" stroke="#B8C0CC" stroke-width="2" stroke-miterlimit="10"/>
<path d="M46.2285 21.02C46.2285 21.02 34.7748 30.0748 46.2285 39.1085C46.2285 39.1085 57.7455 30.1172 46.2285 21.02Z" fill="white" stroke="#B8C0CC" stroke-width="2" stroke-miterlimit="10"/>
<path d="M58.9901 26.3302C58.9901 26.3302 44.4989 24.6166 46.2286 39.1297C46.2286 39.1086 60.7198 40.9068 58.9901 26.3302Z" fill="white" stroke="#B8C0CC" stroke-width="2" stroke-miterlimit="10"/>
<path d="M33.4671 26.3302C33.4671 26.3302 31.7586 40.8644 46.2287 39.1296C46.2287 39.1085 48.0216 24.5742 33.4671 26.3302Z" fill="white" stroke="#B8C0CC" stroke-width="2" stroke-miterlimit="10"/>
<path d="M33.4671 51.9078C33.4671 51.9078 47.9583 53.6215 46.2286 39.1084C46.2286 39.1084 31.7374 37.3101 33.4671 51.9078Z" fill="white" stroke="#B8C0CC" stroke-width="2" stroke-miterlimit="10"/>
<path d="M58.99 51.908C58.99 51.908 60.6986 37.3737 46.2285 39.1085C46.2285 39.1085 44.4356 53.6639 58.99 51.908Z" fill="white" stroke="#B8C0CC" stroke-width="2" stroke-miterlimit="10"/>
<path d="M46.1232 44.2494C48.9191 44.2494 51.1856 41.9762 51.1856 39.172C51.1856 36.3677 48.9191 34.0945 46.1232 34.0945C43.3273 34.0945 41.0608 36.3677 41.0608 39.172C41.0608 41.9762 43.3273 44.2494 46.1232 44.2494Z" fill="white" stroke="#1ABC94" stroke-width="2" stroke-miterlimit="10"/>
</svg>
