<svg width="68" height="75" viewBox="0 0 68 75" fill="none" xmlns="http://www.w3.org/2000/svg">
<path d="M33.9145 33.6809C32.5889 33.6809 31.5144 34.7554 31.5144 36.081C31.5143 37.0393 32.0775 37.8641 32.8896 38.2488V41.1664C32.8896 41.7322 33.3483 42.1911 33.9143 42.1911C34.4803 42.1911 34.939 41.7324 34.939 41.1664V38.2488C35.7513 37.8641 36.3145 37.0393 36.3145 36.081C36.3145 34.7554 35.24 33.6809 33.9145 33.6809Z" fill="#B8C0CC"/>
<path d="M1.28096 13.2136C8.25517 13.2136 14.6482 7.98776 14.6482 1.02002H53.0891C53.0891 7.98776 59.4882 13.2136 66.469 13.2136C66.469 30.6329 68.7637 55.6007 33.8595 73.02C-1.01156 55.6007 1.28096 30.6329 1.28096 13.2136Z" stroke="#B8C0CC" stroke-width="2" stroke-linejoin="round"/>
<path d="M42.875 26.895V21.27C42.875 16.2995 38.8456 12.27 33.875 12.27C28.9044 12.27 24.875 16.2995 24.875 21.27V26.895" stroke="#1ABC94" stroke-width="2"/>
<rect x="20.25" y="27.895" width="27.25" height="20.5" rx="2" stroke="#1ABC94" stroke-width="2"/>
</svg>
