<svg width="88" height="62" viewBox="0 0 88 62" fill="none" xmlns="http://www.w3.org/2000/svg">
<path d="M26.6815 36.5377C28.082 37.9747 29.1848 39.6786 29.9257 41.5501C30.3983 43.063 31.4083 46.7613 30.372 49.4517C29.3358 52.1421 2.81277 52.4953 1.4464 49.4517C0.421736 47.1693 1.40418 42.7267 1.97637 41.5501C2.71729 39.6786 3.82015 37.9747 5.22064 36.5377C6.62114 35.1007 8.29133 33.9593 10.1336 33.1802C11.9759 32.4011 13.9534 32 15.9511 32C17.9487 32 19.9263 32.4011 21.7686 33.1802C23.6109 33.9593 25.281 35.1007 26.6815 36.5377Z" fill="white" stroke="#B8C0CC" stroke-width="1.88" stroke-linecap="round" stroke-linejoin="round"/>
<path d="M16 39V46" stroke="#B8C0CC" stroke-width="1.88" stroke-linecap="round"/>
<path d="M21 33L16 38.5L11.5 33" stroke="#B8C0CC" stroke-width="1.88" stroke-linecap="round" stroke-linejoin="round"/>
<path d="M16.4767 31.3962C21.0044 31.3962 24.6748 27.7258 24.6748 23.1981C24.6748 18.6704 21.0044 15 16.4767 15C11.949 15 8.27856 18.6704 8.27856 23.1981C8.27856 27.7258 11.949 31.3962 16.4767 31.3962Z" stroke="#B8C0CC" stroke-width="1.88" stroke-linecap="round" stroke-linejoin="round"/>
<path fill-rule="evenodd" clip-rule="evenodd" d="M27 3C27 1.34314 28.3431 0 30 0H54.7762C56.4331 0 57.7762 1.34315 57.7762 3V17.5175C57.7762 18.7695 57.0093 19.8423 55.9196 20.2919C55.7858 20.3471 55.698 20.4818 55.7162 20.6254L56.105 23.7007C56.1377 23.9591 55.8482 24.1335 55.6351 23.9839L50.7728 20.5719C50.7223 20.5365 50.6621 20.5175 50.6005 20.5175H34.6783C34.6166 20.5175 34.5564 20.5365 34.506 20.5719L29.6437 23.9839C29.4305 24.1335 29.1411 23.959 29.1737 23.7007L29.5428 20.782C29.5634 20.6192 29.4487 20.4715 29.2892 20.4328C27.9754 20.1136 27 18.9295 27 17.5175V3Z" fill="#1ABC94"/>
<path d="M81.8618 41.9715C83.5994 43.7543 84.9676 45.8683 85.8868 48.1901C86.4732 50.0671 87.7262 54.6555 86.4406 57.9934C85.1549 61.3312 52.249 61.7693 50.5538 57.9934C49.2826 55.1617 50.5014 49.6499 51.2113 48.1901C52.1306 45.8683 53.4988 43.7543 55.2364 41.9715C56.9739 40.1887 59.046 38.7726 61.3317 37.806C63.6173 36.8395 66.0707 36.3418 68.5491 36.3418C71.0274 36.3418 73.481 36.8395 75.7667 37.806C78.0523 38.7726 80.1243 40.1887 81.8618 41.9715Z" fill="white" stroke="#B8C0CC" stroke-width="1.88" stroke-linecap="round" stroke-linejoin="round"/>
<path d="M69.2012 36.342C74.8185 36.342 79.3722 31.7883 79.3722 26.171C79.3722 20.5537 74.8185 16 69.2012 16C63.5839 16 59.0302 20.5537 59.0302 26.171C59.0302 31.7883 63.5839 36.342 69.2012 36.342Z" fill="white" stroke="#B8C0CC" stroke-width="1.88" stroke-linecap="round" stroke-linejoin="round"/>
</svg>
