<svg width="86" height="75" viewBox="0 0 86 75" fill="none" xmlns="http://www.w3.org/2000/svg">
<path d="M15.6549 1.02002H68.9451L84.125 17.9832L43.5922 73.02L2 19.1695L15.6549 1.02002Z" stroke="#B8C0CC" stroke-width="2" stroke-miterlimit="10"/>
<path d="M24.5 28.645C24.5 26.4359 26.2909 24.645 28.5 24.645H32.375V35.895H28.5C26.2909 35.895 24.5 34.1042 24.5 31.895V28.645Z" stroke="#1ABC94" stroke-width="2"/>
<path d="M61.625 28.645C61.625 26.4359 59.8341 24.645 57.625 24.645H53.75V35.895H57.625C59.8341 35.895 61.625 34.1042 61.625 31.895V28.645Z" stroke="#1ABC94" stroke-width="2"/>
<path d="M56 24.645V18.77C56 12.6949 51.0751 7.77002 45 7.77002H41.125C35.0499 7.77002 30.125 12.6949 30.125 18.77V24.645" stroke="#1ABC94" stroke-width="2"/>
<path d="M56 35.895V39.02C56 42.886 52.866 46.02 49 46.02H48.125" stroke="#1ABC94" stroke-width="2"/>
<rect x="40.25" y="43.77" width="7.875" height="4.5" rx="2.25" stroke="#1ABC94" stroke-width="2"/>
</svg>
