<svg width="119" height="108" viewBox="0 0 119 108" fill="none" xmlns="http://www.w3.org/2000/svg">
<path d="M97.5909 106.02C107.01 98.1486 113.774 87.0602 116.958 75.1865C120.143 63.3128 119.591 50.7426 115.38 39.195C111.169 27.6474 103.504 17.6863 93.4322 10.6742C83.3607 3.6622 71.3751 -0.0583764 59.1147 0.0212721C46.8542 0.100921 34.9176 3.97688 24.9376 11.1192C14.9575 18.2615 7.42123 28.3214 3.35962 39.9227C-0.701997 51.5241 -1.09065 64.1004 2.24678 75.9317C5.58421 87.763 12.4848 98.2716 22.0047 106.02" fill="#F0F4F7"/>
<path d="M81.9897 83.5304L80.2344 79.3496L81.9897 74.9614C83.3061 74.3031 86.9264 72.2187 87.5846 71.7799C88.1332 71.4508 88.572 70.7926 88.572 70.1343L88.4623 66.0752C88.4623 65.417 88.1332 64.8685 87.4749 64.4296C87.0361 64.2102 83.4158 61.9064 81.8799 61.2482L80.1247 56.8599C80.6732 55.4338 81.6605 51.3747 81.8799 50.7164C82.0994 50.0582 81.8799 49.4 81.4411 48.9611L78.5888 46.1088C78.15 45.67 77.4917 45.4506 76.7238 45.5603C76.1753 45.67 72.0064 46.767 70.5803 47.3156L66.192 45.5603C65.5338 44.2438 63.4494 40.6235 63.0106 39.9653C62.6815 39.4168 62.0232 38.9779 61.365 38.9779L57.5253 39.0876C56.8671 39.0876 56.2088 39.307 55.77 39.9653C55.5506 40.4041 53.2468 44.0244 52.5885 45.5603L48.2003 47.3156C46.7741 46.767 42.715 45.7797 42.0568 45.5603C41.5083 45.4506 40.85 45.67 40.4112 46.1088L37.5589 48.9611C37.1201 49.4 36.9006 50.0582 37.0103 50.8261C37.1201 51.3747 38.2171 55.5435 38.7656 56.9697L37.0103 61.3579C35.6939 62.0161 32.0736 64.1005 31.4154 64.5393C30.8668 64.8685 30.428 65.5267 30.428 66.1849L30.428 70.1343C30.428 70.7926 30.7571 71.3411 31.4154 71.7799C31.8542 71.9993 35.4745 74.3031 37.0103 74.9614L38.7656 79.3496L37.0103 83.5304" stroke="#B8C0CC" stroke-width="1.88" stroke-linecap="round"/>
<path d="M82.9032 86.841C87.0015 86.841 90.3238 83.5187 90.3238 79.4204C90.3238 75.3222 87.0015 71.9999 82.9032 71.9999C78.805 71.9999 75.4827 75.3222 75.4827 79.4204C75.4827 83.5187 78.805 86.841 82.9032 86.841Z" fill="white" stroke="#B8C0CC" stroke-width="1.88" stroke-miterlimit="10" stroke-linecap="round"/>
<path d="M36.0967 86.841C40.195 86.841 43.5172 83.5187 43.5172 79.4204C43.5172 75.3222 40.195 71.9999 36.0967 71.9999C31.9984 71.9999 28.6761 75.3222 28.6761 79.4204C28.6761 83.5187 31.9984 86.841 36.0967 86.841Z" fill="white" stroke="#B8C0CC" stroke-width="1.88" stroke-miterlimit="10" stroke-linecap="round"/>
<path d="M95.03 105.107C95.5823 105.107 96.03 104.659 96.03 104.107V99.5145C96.0595 97.8604 95.7418 96.2172 95.0954 94.6808C94.449 93.1445 93.4868 91.7457 92.2649 90.566C91.0431 89.3863 89.586 88.4493 87.9787 87.8097C86.3714 87.1701 84.646 86.8408 82.9031 86.8408C81.1603 86.8408 79.435 87.1701 77.8277 87.8097C76.2204 88.4493 74.7632 89.3863 73.5414 90.566C72.3195 91.7457 71.3573 93.1445 70.7109 94.6808C70.0645 96.2172 69.7469 97.8604 69.7764 99.5145V104.107" fill="white"/>
<path d="M96.03 99.5145V104.107C96.03 104.659 95.5823 105.107 95.03 105.107H70.7764C70.2241 105.107 69.7764 104.659 69.7764 104.107V99.5145C69.7469 97.8604 70.0645 96.2172 70.7109 94.6808C71.3573 93.1445 72.3195 91.7457 73.5414 90.566C74.7632 89.3863 76.2204 88.4493 77.8277 87.8097C79.435 87.1701 81.1603 86.8408 82.9031 86.8408C84.646 86.8408 86.3714 87.1701 87.9787 87.8097C89.586 88.4493 91.0431 89.3863 92.2649 90.566C93.4868 91.7457 94.449 93.1445 95.0954 94.6808C95.7418 96.2172 96.0595 97.8604 96.03 99.5145Z" stroke="#B8C0CC" stroke-width="1.88" stroke-miterlimit="10" stroke-linecap="round"/>
<path d="M48.2235 105.107C48.7757 105.107 49.2235 104.659 49.2235 104.107V99.5145C49.253 97.8604 48.9353 96.2172 48.2889 94.6808C47.6425 93.1445 46.6803 91.7457 45.4584 90.566C44.2365 89.3863 42.7795 88.4493 41.1722 87.8097C39.5649 87.1701 37.8395 86.8408 36.0966 86.8408C34.3538 86.8408 32.6285 87.1701 31.0212 87.8097C29.4139 88.4493 27.9567 89.3863 26.7348 90.566C25.513 91.7457 24.5508 93.1445 23.9044 94.6808C23.258 96.2172 22.9403 97.8604 22.9699 99.5145V104.107" fill="white"/>
<path d="M49.2235 99.5145V104.107C49.2235 104.659 48.7757 105.107 48.2235 105.107H23.9699C23.4176 105.107 22.9699 104.659 22.9699 104.107V99.5145C22.9403 97.8604 23.258 96.2172 23.9044 94.6808C24.5508 93.1445 25.513 91.7457 26.7348 90.566C27.9567 89.3863 29.4139 88.4493 31.0212 87.8097C32.6285 87.1701 34.3538 86.8408 36.0966 86.8408C37.8395 86.8408 39.5649 87.1701 41.1722 87.8097C42.7795 88.4493 44.2365 89.3863 45.4584 90.566C46.6803 91.7457 47.6425 93.1445 48.2889 94.6808C48.9353 96.2172 49.253 97.8604 49.2235 99.5145Z" stroke="#B8C0CC" stroke-width="1.88" stroke-miterlimit="10" stroke-linecap="round"/>
<path d="M59.4999 78.8496C65.1745 78.8496 69.7746 74.2495 69.7746 68.575C69.7746 62.9005 65.1745 58.3004 59.4999 58.3004C53.8254 58.3004 49.2253 62.9005 49.2253 68.575C49.2253 74.2495 53.8254 78.8496 59.4999 78.8496Z" fill="white" stroke="#1ABC94" stroke-width="1.88" stroke-miterlimit="10" stroke-linecap="round"/>
<path d="M77.7632 105.107V97.0679C77.8043 94.6901 77.3623 92.328 76.4629 90.1195C75.5636 87.911 74.2249 85.9002 72.5249 84.2044C70.8249 82.5086 68.7977 81.1616 66.5614 80.2423C64.3252 79.3229 61.9246 78.8495 59.4998 78.8495C57.075 78.8495 54.6746 79.3229 52.4383 80.2423C50.202 81.1616 48.1747 82.5086 46.4747 84.2044C44.7747 85.9002 43.436 87.911 42.5366 90.1195C41.6373 92.328 41.1954 94.6901 41.2365 97.0679V105.107" fill="#FCFDFF"/>
<path d="M77.7632 105.107V97.0679C77.8043 94.6901 77.3623 92.328 76.4629 90.1195C75.5636 87.911 74.2249 85.9002 72.5249 84.2044C70.8249 82.5086 68.7977 81.1616 66.5614 80.2423C64.3252 79.3229 61.9246 78.8495 59.4998 78.8495C57.075 78.8495 54.6746 79.3229 52.4383 80.2423C50.202 81.1616 48.1747 82.5086 46.4747 84.2044C44.7747 85.9002 43.436 87.911 42.5366 90.1195C41.6373 92.328 41.1954 94.6901 41.2365 97.0679V105.107H77.7632Z" stroke="#1ABC94" stroke-width="1.88" stroke-miterlimit="10" stroke-linecap="round"/>
</svg>
