<svg width="232" height="149" viewBox="0 0 232 149" fill="none" xmlns="http://www.w3.org/2000/svg">
<path d="M63.5759 13.5C70.0144 13.4999 76.3899 14.7679 82.3384 17.2317C88.2868 19.6956 93.6918 23.3069 98.2445 27.8596C102.797 32.4123 106.409 37.8172 108.873 43.7656C111.337 49.714 112.605 56.0895 112.605 62.528C112.605 69.0104 111.328 75.4293 108.848 81.4183C106.367 87.4073 102.731 92.8491 98.1474 97.4329C93.5637 102.017 88.1221 105.653 82.1331 108.133C76.1442 110.614 69.7253 111.891 63.2429 111.891H22.1619C21.1181 111.891 20.0846 111.685 19.1203 111.286C18.156 110.887 17.2798 110.301 16.5418 109.563C15.8037 108.825 15.2183 107.949 14.8189 106.985C14.4194 106.02 14.2139 104.987 14.2139 103.943V62.862C14.2139 49.7704 19.4145 37.215 28.6717 27.9578C37.9288 18.7006 50.4842 13.5 63.5759 13.5V13.5Z" fill="white"/>
<path d="M62.964 13.5769C65.5174 13.5771 68.0669 13.7778 70.589 14.1769C50.531 13.7059 23.271 28.5249 23.271 62.5419V104.752C23.2763 106.589 24.0083 108.349 25.3072 109.648C26.6061 110.947 28.3661 111.679 30.203 111.684H20.931C19.0943 111.678 17.3345 110.946 16.0358 109.647C14.7372 108.349 14.0053 106.589 14 104.752V62.5419C14.0377 49.5674 19.2085 37.135 28.3828 27.9604C37.5571 18.7859 49.9894 13.6149 62.964 13.5769Z" fill="#EAEFF4"/>
<path d="M63.5759 13.5C70.0144 13.4999 76.3899 14.7679 82.3384 17.2317C88.2868 19.6956 93.6918 23.3069 98.2445 27.8596C102.797 32.4123 106.409 37.8171 108.873 43.7656C111.337 49.714 112.605 56.0895 112.605 62.528V62.528C112.605 69.0104 111.328 75.4293 108.848 81.4183C106.367 87.4073 102.731 92.8491 98.1474 97.4329C93.5637 102.017 88.1221 105.653 82.1331 108.133C76.1442 110.614 69.7253 111.891 63.2429 111.891H22.1619C21.1181 111.891 20.0846 111.685 19.1203 111.286C18.156 110.887 17.2798 110.301 16.5418 109.563C15.8037 108.825 15.2183 107.949 14.8189 106.985C14.4194 106.02 14.2139 104.987 14.2139 103.943V62.862C14.2139 49.7704 19.4145 37.215 28.6717 27.9578C37.9288 18.7006 50.4843 13.5 63.5759 13.5V13.5Z" stroke="#B8C0CC" stroke-width="1.88" stroke-linecap="round" stroke-linejoin="round"/>
<path d="M66.3291 53.1909C66.3291 51.9728 66.813 50.8045 67.6744 49.9432C68.5357 49.0818 69.704 48.5979 70.9221 48.5979C72.1403 48.5979 73.3085 49.0818 74.1699 49.9432C75.0312 50.8045 75.5151 51.9728 75.5151 53.1909" stroke="#B8C0CC" stroke-width="1.88" stroke-linecap="round" stroke-linejoin="round"/>
<path d="M87.6821 53.1909C87.6821 51.9728 88.1661 50.8045 89.0274 49.9432C89.8888 49.0818 91.057 48.5979 92.2751 48.5979C93.4933 48.5979 94.6615 49.0818 95.5229 49.9432C96.3842 50.8045 96.8681 51.9728 96.8681 53.1909" stroke="#B8C0CC" stroke-width="1.88" stroke-linecap="round" stroke-linejoin="round"/>
<path d="M8.30285 46.2426C7.7628 46.3612 7.44018 46.9101 7.63225 47.4286C8.79915 50.5787 13.5044 60.3046 26.2727 57.048C26.8017 56.9131 27.1067 56.3633 26.9078 55.8548C25.7162 52.8075 20.9663 43.461 8.30285 46.2426Z" fill="white" stroke="#B8C0CC" stroke-width="1.88" stroke-miterlimit="10"/>
<path d="M21.1534 21.0021C20.7151 20.665 20.0837 20.7473 19.7904 21.216C17.3093 25.1804 8.04101 42.6242 27.1304 56.3161C27.5741 56.6343 28.1954 56.5375 28.4769 56.0698C30.8261 52.1669 39.4851 35.1007 21.1534 21.0021Z" fill="white" stroke="#B8C0CC" stroke-width="1.88" stroke-miterlimit="10"/>
<path d="M134.929 62.5H50.0708C46.1657 62.5 43 64.722 43 67.4629V117.537C43 120.278 46.1657 122.5 50.0708 122.5H134.929C138.834 122.5 142 120.278 142 117.537V67.4629C142 64.722 138.834 62.5 134.929 62.5Z" fill="white" stroke="#B8C0CC" stroke-width="1.88" stroke-linecap="round" stroke-linejoin="round"/>
<path d="M223.103 147.974H182.174C169.131 147.974 156.622 142.793 147.399 133.57C138.176 124.347 132.995 111.838 132.995 98.795C132.995 92.3803 134.258 86.0284 136.713 80.1019C139.168 74.1755 142.766 68.7906 147.302 64.2547C151.838 59.7188 157.222 56.1207 163.149 53.666C169.075 51.2112 175.427 49.9479 181.842 49.948C194.885 49.948 207.394 55.1293 216.617 64.3522C225.84 73.5751 231.021 86.0839 231.021 99.127V140.056C231.021 142.156 230.187 144.17 228.702 145.655C227.217 147.14 225.203 147.974 223.103 147.974Z" fill="white"/>
<path opacity="0.6" d="M182.453 50.0239C179.908 50.025 177.367 50.2256 174.853 50.6239C194.837 50.1549 221.995 64.9189 221.995 98.8099V140.864C221.99 142.693 221.261 144.445 219.969 145.739C218.676 147.033 216.924 147.762 215.095 147.769H224.331C226.161 147.764 227.914 147.034 229.208 145.741C230.502 144.447 231.231 142.694 231.237 140.864V98.8069C231.199 85.8803 226.047 73.4939 216.907 64.3535C207.766 55.213 195.38 50.0614 182.453 50.0239Z" fill="#89EED5"/>
<path d="M223.103 147.974H182.174C169.131 147.974 156.622 142.793 147.399 133.57C138.176 124.347 132.995 111.838 132.995 98.795V98.795C132.995 92.3803 134.258 86.0284 136.713 80.1019C139.168 74.1755 142.766 68.7906 147.302 64.2547C151.838 59.7188 157.222 56.1207 163.149 53.666C169.075 51.2112 175.427 49.9479 181.842 49.948V49.948C194.885 49.948 207.394 55.1293 216.617 64.3522C225.84 73.575 231.021 86.0839 231.021 99.127V140.056C231.021 142.156 230.187 144.17 228.702 145.655C227.217 147.14 225.203 147.974 223.103 147.974V147.974Z" stroke="#1ABC94" stroke-width="1.88" stroke-linecap="round" stroke-linejoin="round"/>
<path d="M158.405 84.346C158.632 81.5423 157.395 79.1546 155.643 79.0128C153.891 78.8711 152.287 81.0289 152.06 83.8325C151.833 86.6362 153.069 89.0239 154.822 89.1656C156.574 89.3074 158.178 87.1496 158.405 84.346Z" fill="#1ABC94"/>
<path d="M57.919 74.69C58.0877 74.69 58.2233 74.745 58.326 74.855C58.4287 74.9577 58.48 75.0933 58.48 75.262V81.983C58.48 82.1517 58.4287 82.291 58.326 82.401C58.2233 82.5037 58.0877 82.555 57.919 82.555C57.7503 82.555 57.6147 82.5037 57.512 82.401C57.4093 82.2983 57.358 82.159 57.358 81.983V79.024H53.024V81.983C53.024 82.1517 52.9727 82.291 52.87 82.401C52.7673 82.5037 52.6317 82.555 52.463 82.555C52.2943 82.555 52.1587 82.5037 52.056 82.401C51.9533 82.2983 51.902 82.159 51.902 81.983V75.262C51.902 75.0933 51.9533 74.9577 52.056 74.855C52.1587 74.745 52.2943 74.69 52.463 74.69C52.6317 74.69 52.7673 74.745 52.87 74.855C52.9727 74.9577 53.024 75.0933 53.024 75.262V78.1H57.358V75.262C57.358 75.0933 57.4093 74.9577 57.512 74.855C57.6147 74.745 57.7503 74.69 57.919 74.69ZM64.3509 81.147C64.4536 81.147 64.5379 81.1873 64.6039 81.268C64.6699 81.3487 64.7029 81.4513 64.7029 81.576C64.7029 81.7887 64.5709 81.9683 64.3069 82.115C64.0502 82.2617 63.7679 82.3753 63.4599 82.456C63.1592 82.5367 62.8696 82.577 62.5909 82.577C61.7402 82.577 61.0692 82.3313 60.5779 81.84C60.0866 81.3413 59.8409 80.663 59.8409 79.805C59.8409 79.255 59.9472 78.7673 60.1599 78.342C60.3799 77.9167 60.6842 77.5867 61.0729 77.352C61.4689 77.1173 61.9162 77 62.4149 77C63.1336 77 63.7019 77.231 64.1199 77.693C64.5379 78.155 64.7469 78.7783 64.7469 79.563C64.7469 79.8563 64.6149 80.003 64.3509 80.003H60.9519C61.0252 81.1397 61.5716 81.708 62.5909 81.708C62.8622 81.708 63.0969 81.6713 63.2949 81.598C63.4929 81.5247 63.7019 81.4293 63.9219 81.312C63.9439 81.2973 64.0026 81.268 64.0979 81.224C64.2006 81.1727 64.2849 81.147 64.3509 81.147ZM62.4369 77.814C62.0116 77.814 61.6706 77.9497 61.4139 78.221C61.1572 78.4923 61.0032 78.8737 60.9519 79.365H63.7899C63.7679 78.8663 63.6396 78.485 63.4049 78.221C63.1776 77.9497 62.8549 77.814 62.4369 77.814ZM68.2262 77C68.9375 77 69.4655 77.1797 69.8102 77.539C70.1622 77.8983 70.3382 78.4447 70.3382 79.178V82.027C70.3382 82.1957 70.2905 82.3277 70.1952 82.423C70.0998 82.511 69.9678 82.555 69.7992 82.555C69.6378 82.555 69.5095 82.5073 69.4142 82.412C69.3188 82.3167 69.2712 82.1883 69.2712 82.027V81.62C69.1318 81.928 68.9228 82.1663 68.6442 82.335C68.3728 82.4963 68.0538 82.577 67.6872 82.577C67.3352 82.577 67.0125 82.5073 66.7192 82.368C66.4332 82.2213 66.2058 82.0233 66.0372 81.774C65.8685 81.5247 65.7842 81.2423 65.7842 80.927C65.7768 80.531 65.8758 80.223 66.0812 80.003C66.2865 79.7757 66.6202 79.6143 67.0822 79.519C67.5442 79.4163 68.1858 79.365 69.0072 79.365H69.2602V79.046C69.2602 78.6353 69.1758 78.3383 69.0072 78.155C68.8385 77.9717 68.5672 77.88 68.1932 77.88C67.9365 77.88 67.6945 77.913 67.4672 77.979C67.2398 78.045 66.9905 78.1403 66.7192 78.265C66.5212 78.375 66.3818 78.43 66.3012 78.43C66.1912 78.43 66.0995 78.3897 66.0262 78.309C65.9602 78.2283 65.9272 78.1257 65.9272 78.001C65.9272 77.891 65.9565 77.7957 66.0152 77.715C66.0812 77.627 66.1838 77.5427 66.3232 77.462C66.5798 77.3227 66.8805 77.2127 67.2252 77.132C67.5698 77.044 67.9035 77 68.2262 77ZM67.8852 81.752C68.2885 81.752 68.6185 81.6163 68.8752 81.345C69.1318 81.0663 69.2602 80.7107 69.2602 80.278V79.992H69.0622C68.4902 79.992 68.0502 80.0177 67.7422 80.069C67.4342 80.1203 67.2142 80.2083 67.0822 80.333C66.9502 80.4503 66.8842 80.6227 66.8842 80.85C66.8842 81.114 66.9795 81.3303 67.1702 81.499C67.3608 81.6677 67.5992 81.752 67.8852 81.752ZM72.4189 82.555C72.2576 82.555 72.1219 82.511 72.0119 82.423C71.9092 82.335 71.8579 82.203 71.8579 82.027V75.229C71.8579 75.053 71.9092 74.921 72.0119 74.833C72.1219 74.7377 72.2576 74.69 72.4189 74.69C72.5802 74.69 72.7122 74.7377 72.8149 74.833C72.9176 74.921 72.9689 75.053 72.9689 75.229V82.027C72.9689 82.203 72.9176 82.335 72.8149 82.423C72.7122 82.511 72.5802 82.555 72.4189 82.555ZM77.3013 81.708C77.4627 81.7227 77.5763 81.7667 77.6423 81.84C77.7157 81.906 77.7523 82.0013 77.7523 82.126C77.7523 82.2727 77.6937 82.3863 77.5763 82.467C77.4663 82.5403 77.3013 82.5697 77.0813 82.555L76.7843 82.533C76.1903 82.489 75.7467 82.3093 75.4533 81.994C75.16 81.6713 75.0133 81.1983 75.0133 80.575V77.99H74.3533C74.0307 77.99 73.8693 77.847 73.8693 77.561C73.8693 77.429 73.9097 77.3263 73.9903 77.253C74.0783 77.1723 74.1993 77.132 74.3533 77.132H75.0133V75.999C75.0133 75.8303 75.061 75.6983 75.1563 75.603C75.259 75.5077 75.3947 75.46 75.5633 75.46C75.732 75.46 75.8677 75.5077 75.9703 75.603C76.073 75.6983 76.1243 75.8303 76.1243 75.999V77.132H77.2133C77.3673 77.132 77.4847 77.1723 77.5653 77.253C77.6533 77.3263 77.6973 77.429 77.6973 77.561C77.6973 77.7003 77.6533 77.8067 77.5653 77.88C77.4847 77.9533 77.3673 77.99 77.2133 77.99H76.1243V80.652C76.1243 80.9967 76.194 81.2497 76.3333 81.411C76.48 81.5723 76.7 81.664 76.9933 81.686L77.3013 81.708ZM81.4543 77C82.7303 77 83.3683 77.7223 83.3683 79.167V82.027C83.3683 82.1883 83.3169 82.3167 83.2143 82.412C83.1116 82.5073 82.9759 82.555 82.8073 82.555C82.6386 82.555 82.5029 82.5073 82.4003 82.412C82.3049 82.3167 82.2573 82.1883 82.2573 82.027V79.178C82.2573 78.738 82.1656 78.4153 81.9823 78.21C81.8063 78.0047 81.5276 77.902 81.1463 77.902C80.6989 77.902 80.3396 78.0413 80.0683 78.32C79.7969 78.5987 79.6613 78.9727 79.6613 79.442V82.027C79.6613 82.1883 79.6099 82.3167 79.5073 82.412C79.4119 82.5073 79.2799 82.555 79.1113 82.555C78.9426 82.555 78.8069 82.5073 78.7043 82.412C78.6016 82.3167 78.5503 82.1883 78.5503 82.027V75.218C78.5503 75.0567 78.6016 74.9283 78.7043 74.833C78.8143 74.7377 78.9536 74.69 79.1223 74.69C79.2836 74.69 79.4119 74.7377 79.5073 74.833C79.6099 74.921 79.6613 75.042 79.6613 75.196V77.946C79.8446 77.638 80.0903 77.4033 80.3983 77.242C80.7063 77.0807 81.0583 77 81.4543 77ZM88.3276 78.441C88.1296 78.441 87.9609 78.375 87.8216 78.243C87.6896 78.111 87.6236 77.9423 87.6236 77.737C87.6236 77.5317 87.6896 77.363 87.8216 77.231C87.9609 77.0917 88.1296 77.022 88.3276 77.022C88.5256 77.022 88.6906 77.0917 88.8226 77.231C88.9546 77.363 89.0206 77.5317 89.0206 77.737C89.0206 77.9423 88.9546 78.111 88.8226 78.243C88.6906 78.375 88.5256 78.441 88.3276 78.441ZM88.3276 82.555C88.1296 82.555 87.9609 82.489 87.8216 82.357C87.6896 82.225 87.6236 82.0563 87.6236 81.851C87.6236 81.6457 87.6896 81.477 87.8216 81.345C87.9609 81.2057 88.1296 81.136 88.3276 81.136C88.5256 81.136 88.6906 81.2057 88.8226 81.345C88.9546 81.477 89.0206 81.6457 89.0206 81.851C89.0206 82.0563 88.9546 82.225 88.8226 82.357C88.6906 82.489 88.5256 82.555 88.3276 82.555ZM58.744 96.84C58.7807 96.928 58.799 97.0013 58.799 97.06C58.799 97.1993 58.7403 97.3167 58.623 97.412C58.513 97.5073 58.3883 97.555 58.249 97.555C58.1537 97.555 58.062 97.5293 57.974 97.478C57.8933 97.4193 57.831 97.3387 57.787 97.236L57.061 95.586H53.035L52.309 97.236C52.265 97.3387 52.199 97.4193 52.111 97.478C52.023 97.5293 51.9313 97.555 51.836 97.555C51.6893 97.555 51.5573 97.5073 51.44 97.412C51.33 97.3167 51.275 97.1993 51.275 97.06C51.275 97.0013 51.2933 96.928 51.33 96.84L54.432 90.053C54.4833 89.9357 54.564 89.844 54.674 89.778C54.7913 89.712 54.9123 89.679 55.037 89.679C55.1617 89.679 55.279 89.712 55.389 89.778C55.5063 89.844 55.5907 89.9357 55.642 90.053L58.744 96.84ZM53.442 94.684H56.665L55.048 91.043L53.442 94.684ZM60.4091 97.555C60.2478 97.555 60.1121 97.511 60.0021 97.423C59.8995 97.335 59.8481 97.203 59.8481 97.027V90.229C59.8481 90.053 59.8995 89.921 60.0021 89.833C60.1121 89.7377 60.2478 89.69 60.4091 89.69C60.5705 89.69 60.7025 89.7377 60.8051 89.833C60.9078 89.921 60.9591 90.053 60.9591 90.229V97.027C60.9591 97.203 60.9078 97.335 60.8051 97.423C60.7025 97.511 60.5705 97.555 60.4091 97.555ZM63.0732 97.555C62.9119 97.555 62.7762 97.511 62.6662 97.423C62.5635 97.335 62.5122 97.203 62.5122 97.027V90.229C62.5122 90.053 62.5635 89.921 62.6662 89.833C62.7762 89.7377 62.9119 89.69 63.0732 89.69C63.2345 89.69 63.3665 89.7377 63.4692 89.833C63.5719 89.921 63.6232 90.053 63.6232 90.229V97.027C63.6232 97.203 63.5719 97.335 63.4692 97.423C63.3665 97.511 63.2345 97.555 63.0732 97.555ZM69.3783 96.147C69.4809 96.147 69.5653 96.1873 69.6313 96.268C69.6973 96.3487 69.7303 96.4513 69.7303 96.576C69.7303 96.7887 69.5983 96.9683 69.3343 97.115C69.0776 97.2617 68.7953 97.3753 68.4873 97.456C68.1866 97.5367 67.8969 97.577 67.6183 97.577C66.7676 97.577 66.0966 97.3313 65.6053 96.84C65.1139 96.3413 64.8683 95.663 64.8683 94.805C64.8683 94.255 64.9746 93.7673 65.1873 93.342C65.4073 92.9167 65.7116 92.5867 66.1003 92.352C66.4963 92.1173 66.9436 92 67.4423 92C68.1609 92 68.7293 92.231 69.1473 92.693C69.5653 93.155 69.7743 93.7783 69.7743 94.563C69.7743 94.8563 69.6423 95.003 69.3783 95.003H65.9793C66.0526 96.1397 66.5989 96.708 67.6183 96.708C67.8896 96.708 68.1243 96.6713 68.3223 96.598C68.5203 96.5247 68.7293 96.4293 68.9493 96.312C68.9713 96.2973 69.0299 96.268 69.1253 96.224C69.2279 96.1727 69.3123 96.147 69.3783 96.147ZM67.4643 92.814C67.0389 92.814 66.6979 92.9497 66.4413 93.221C66.1846 93.4923 66.0306 93.8737 65.9793 94.365H68.8173C68.7953 93.8663 68.6669 93.485 68.4323 93.221C68.2049 92.9497 67.8823 92.814 67.4643 92.814ZM73.8145 92.022C74.1665 92 74.3425 92.1503 74.3425 92.473C74.3425 92.6343 74.3022 92.7553 74.2215 92.836C74.1408 92.9167 74.0015 92.9643 73.8035 92.979L73.4735 93.012C73.0115 93.056 72.6668 93.2173 72.4395 93.496C72.2195 93.7747 72.1095 94.112 72.1095 94.508V97.027C72.1095 97.203 72.0582 97.335 71.9555 97.423C71.8528 97.511 71.7208 97.555 71.5595 97.555C71.3982 97.555 71.2625 97.511 71.1525 97.423C71.0498 97.335 70.9985 97.203 70.9985 97.027V92.55C70.9985 92.3813 71.0498 92.253 71.1525 92.165C71.2625 92.0697 71.3982 92.022 71.5595 92.022C71.7062 92.022 71.8272 92.0697 71.9225 92.165C72.0252 92.253 72.0765 92.3777 72.0765 92.539V93.067C72.2232 92.7443 72.4358 92.4987 72.7145 92.33C72.9932 92.1613 73.3085 92.0623 73.6605 92.033L73.8145 92.022ZM79.3634 92.022C79.5321 92.022 79.6641 92.0733 79.7594 92.176C79.8621 92.2713 79.9134 92.3997 79.9134 92.561V97.071C79.9134 97.8923 79.6934 98.512 79.2534 98.93C78.8207 99.348 78.1791 99.557 77.3284 99.557C76.5364 99.557 75.8764 99.4067 75.3484 99.106C75.0771 98.952 74.9414 98.7687 74.9414 98.556C74.9414 98.4313 74.9744 98.3287 75.0404 98.248C75.1137 98.1673 75.2017 98.127 75.3044 98.127C75.3997 98.127 75.5501 98.182 75.7554 98.292C76.0194 98.4167 76.2651 98.512 76.4924 98.578C76.7197 98.6513 76.9911 98.688 77.3064 98.688C78.3184 98.688 78.8244 98.1783 78.8244 97.159V96.312C78.6704 96.6347 78.4357 96.8877 78.1204 97.071C77.8051 97.247 77.4384 97.335 77.0204 97.335C76.5511 97.335 76.1331 97.225 75.7664 97.005C75.3997 96.785 75.1137 96.4733 74.9084 96.07C74.7104 95.6667 74.6114 95.201 74.6114 94.673C74.6114 94.145 74.7141 93.6793 74.9194 93.276C75.1247 92.8727 75.4071 92.561 75.7664 92.341C76.1331 92.1137 76.5511 92 77.0204 92C77.4311 92 77.7904 92.088 78.0984 92.264C78.4137 92.44 78.6521 92.6893 78.8134 93.012V92.55C78.8134 92.3887 78.8611 92.2603 78.9564 92.165C79.0591 92.0697 79.1947 92.022 79.3634 92.022ZM77.2844 96.455C77.7611 96.455 78.1351 96.2973 78.4064 95.982C78.6777 95.6667 78.8134 95.2303 78.8134 94.673C78.8134 94.123 78.6777 93.6903 78.4064 93.375C78.1424 93.0523 77.7684 92.891 77.2844 92.891C76.8004 92.891 76.4191 93.0487 76.1404 93.364C75.8691 93.6793 75.7334 94.1157 75.7334 94.673C75.7334 95.2303 75.8727 95.6667 76.1514 95.982C76.4301 96.2973 76.8077 96.455 77.2844 96.455ZM82.0224 97.555C81.8611 97.555 81.7254 97.511 81.6154 97.423C81.5127 97.335 81.4614 97.203 81.4614 97.027V92.561C81.4614 92.385 81.5127 92.253 81.6154 92.165C81.7254 92.0697 81.8611 92.022 82.0224 92.022C82.1837 92.022 82.3157 92.0697 82.4184 92.165C82.5211 92.253 82.5724 92.385 82.5724 92.561V97.027C82.5724 97.203 82.5211 97.335 82.4184 97.423C82.3157 97.511 82.1837 97.555 82.0224 97.555ZM82.0224 90.944C81.8097 90.944 81.6411 90.8853 81.5164 90.768C81.3917 90.6507 81.3294 90.4967 81.3294 90.306C81.3294 90.1153 81.3917 89.965 81.5164 89.855C81.6411 89.7377 81.8097 89.679 82.0224 89.679C82.2277 89.679 82.3927 89.7377 82.5174 89.855C82.6494 89.965 82.7154 90.1153 82.7154 90.306C82.7154 90.4967 82.6531 90.6507 82.5284 90.768C82.4037 90.8853 82.2351 90.944 82.0224 90.944ZM88.3275 96.147C88.4301 96.147 88.5145 96.1873 88.5805 96.268C88.6465 96.3487 88.6795 96.4513 88.6795 96.576C88.6795 96.7887 88.5475 96.9683 88.2835 97.115C88.0268 97.2617 87.7445 97.3753 87.4365 97.456C87.1358 97.5367 86.8461 97.577 86.5675 97.577C85.7168 97.577 85.0458 97.3313 84.5545 96.84C84.0631 96.3413 83.8175 95.663 83.8175 94.805C83.8175 94.255 83.9238 93.7673 84.1365 93.342C84.3565 92.9167 84.6608 92.5867 85.0495 92.352C85.4455 92.1173 85.8928 92 86.3915 92C87.1101 92 87.6785 92.231 88.0965 92.693C88.5145 93.155 88.7235 93.7783 88.7235 94.563C88.7235 94.8563 88.5915 95.003 88.3275 95.003H84.9285C85.0018 96.1397 85.5481 96.708 86.5675 96.708C86.8388 96.708 87.0735 96.6713 87.2715 96.598C87.4695 96.5247 87.6785 96.4293 87.8985 96.312C87.9205 96.2973 87.9791 96.268 88.0745 96.224C88.1771 96.1727 88.2615 96.147 88.3275 96.147ZM86.4135 92.814C85.9881 92.814 85.6471 92.9497 85.3905 93.221C85.1338 93.4923 84.9798 93.8737 84.9285 94.365H87.7665C87.7445 93.8663 87.6161 93.485 87.3815 93.221C87.1541 92.9497 86.8315 92.814 86.4135 92.814ZM91.8177 97.577C91.0697 97.577 90.4574 97.423 89.9807 97.115C89.8487 97.0343 89.7534 96.95 89.6947 96.862C89.6434 96.774 89.6177 96.675 89.6177 96.565C89.6177 96.4477 89.6507 96.3487 89.7167 96.268C89.7827 96.1873 89.8671 96.147 89.9697 96.147C90.0651 96.147 90.2154 96.2057 90.4207 96.323C90.6407 96.4403 90.8534 96.5357 91.0587 96.609C91.2714 96.6823 91.5354 96.719 91.8507 96.719C92.2027 96.719 92.4777 96.6567 92.6757 96.532C92.8737 96.4073 92.9727 96.2313 92.9727 96.004C92.9727 95.8573 92.9324 95.74 92.8517 95.652C92.7784 95.564 92.6464 95.487 92.4557 95.421C92.2651 95.3477 91.9827 95.2707 91.6087 95.19C90.9634 95.0507 90.4977 94.8637 90.2117 94.629C89.9331 94.387 89.7937 94.0607 89.7937 93.65C89.7937 93.3347 89.8854 93.0523 90.0687 92.803C90.2521 92.5463 90.5051 92.3483 90.8277 92.209C91.1504 92.0697 91.5171 92 91.9277 92C92.2211 92 92.5071 92.0403 92.7857 92.121C93.0644 92.1943 93.3101 92.3043 93.5227 92.451C93.7647 92.6123 93.8857 92.7993 93.8857 93.012C93.8857 93.1293 93.8491 93.2283 93.7757 93.309C93.7097 93.3897 93.6291 93.43 93.5337 93.43C93.4677 93.43 93.4017 93.4153 93.3357 93.386C93.2697 93.3567 93.1817 93.309 93.0717 93.243C92.8737 93.1257 92.6867 93.034 92.5107 92.968C92.3421 92.902 92.1294 92.869 91.8727 92.869C91.5647 92.869 91.3154 92.935 91.1247 93.067C90.9414 93.199 90.8497 93.3787 90.8497 93.606C90.8497 93.8113 90.9341 93.9727 91.1027 94.09C91.2787 94.2 91.6051 94.3063 92.0817 94.409C92.5731 94.5117 92.9581 94.629 93.2367 94.761C93.5154 94.893 93.7134 95.058 93.8307 95.256C93.9554 95.4467 94.0177 95.6923 94.0177 95.993C94.0177 96.4697 93.8161 96.8547 93.4127 97.148C93.0167 97.434 92.4851 97.577 91.8177 97.577ZM98.6938 93.441C98.4958 93.441 98.3271 93.375 98.1878 93.243C98.0558 93.111 97.9898 92.9423 97.9898 92.737C97.9898 92.5317 98.0558 92.363 98.1878 92.231C98.3271 92.0917 98.4958 92.022 98.6938 92.022C98.8918 92.022 99.0568 92.0917 99.1888 92.231C99.3208 92.363 99.3868 92.5317 99.3868 92.737C99.3868 92.9423 99.3208 93.111 99.1888 93.243C99.0568 93.375 98.8918 93.441 98.6938 93.441ZM98.6938 97.555C98.4958 97.555 98.3271 97.489 98.1878 97.357C98.0558 97.225 97.9898 97.0563 97.9898 96.851C97.9898 96.6457 98.0558 96.477 98.1878 96.345C98.3271 96.2057 98.4958 96.136 98.6938 96.136C98.8918 96.136 99.0568 96.2057 99.1888 96.345C99.3208 96.477 99.3868 96.6457 99.3868 96.851C99.3868 97.0563 99.3208 97.225 99.1888 97.357C99.0568 97.489 98.8918 97.555 98.6938 97.555ZM57.919 104.69C58.0877 104.69 58.2233 104.745 58.326 104.855C58.4287 104.958 58.48 105.093 58.48 105.262V111.983C58.48 112.152 58.4287 112.291 58.326 112.401C58.2233 112.504 58.0877 112.555 57.919 112.555C57.7503 112.555 57.6147 112.504 57.512 112.401C57.4093 112.298 57.358 112.159 57.358 111.983V109.024H53.024V111.983C53.024 112.152 52.9727 112.291 52.87 112.401C52.7673 112.504 52.6317 112.555 52.463 112.555C52.2943 112.555 52.1587 112.504 52.056 112.401C51.9533 112.298 51.902 112.159 51.902 111.983V105.262C51.902 105.093 51.9533 104.958 52.056 104.855C52.1587 104.745 52.2943 104.69 52.463 104.69C52.6317 104.69 52.7673 104.745 52.87 104.855C52.9727 104.958 53.024 105.093 53.024 105.262V108.1H57.358V105.262C57.358 105.093 57.4093 104.958 57.512 104.855C57.6147 104.745 57.7503 104.69 57.919 104.69ZM60.7099 112.555C60.5486 112.555 60.4129 112.511 60.3029 112.423C60.2002 112.335 60.1489 112.203 60.1489 112.027V107.561C60.1489 107.385 60.2002 107.253 60.3029 107.165C60.4129 107.07 60.5486 107.022 60.7099 107.022C60.8712 107.022 61.0032 107.07 61.1059 107.165C61.2086 107.253 61.2599 107.385 61.2599 107.561V112.027C61.2599 112.203 61.2086 112.335 61.1059 112.423C61.0032 112.511 60.8712 112.555 60.7099 112.555ZM60.7099 105.944C60.4972 105.944 60.3286 105.885 60.2039 105.768C60.0792 105.651 60.0169 105.497 60.0169 105.306C60.0169 105.115 60.0792 104.965 60.2039 104.855C60.3286 104.738 60.4972 104.679 60.7099 104.679C60.9152 104.679 61.0802 104.738 61.2049 104.855C61.3369 104.965 61.4029 105.115 61.4029 105.306C61.4029 105.497 61.3406 105.651 61.2159 105.768C61.0912 105.885 60.9226 105.944 60.7099 105.944ZM64.683 112.577C63.935 112.577 63.3226 112.423 62.846 112.115C62.714 112.034 62.6186 111.95 62.56 111.862C62.5086 111.774 62.483 111.675 62.483 111.565C62.483 111.448 62.516 111.349 62.582 111.268C62.648 111.187 62.7323 111.147 62.835 111.147C62.9303 111.147 63.0806 111.206 63.286 111.323C63.506 111.44 63.7186 111.536 63.924 111.609C64.1366 111.682 64.4006 111.719 64.716 111.719C65.068 111.719 65.343 111.657 65.541 111.532C65.739 111.407 65.838 111.231 65.838 111.004C65.838 110.857 65.7976 110.74 65.717 110.652C65.6436 110.564 65.5116 110.487 65.321 110.421C65.1303 110.348 64.848 110.271 64.474 110.19C63.8286 110.051 63.363 109.864 63.077 109.629C62.7983 109.387 62.659 109.061 62.659 108.65C62.659 108.335 62.7506 108.052 62.934 107.803C63.1173 107.546 63.3703 107.348 63.693 107.209C64.0156 107.07 64.3823 107 64.793 107C65.0863 107 65.3723 107.04 65.651 107.121C65.9296 107.194 66.1753 107.304 66.388 107.451C66.63 107.612 66.751 107.799 66.751 108.012C66.751 108.129 66.7143 108.228 66.641 108.309C66.575 108.39 66.4943 108.43 66.399 108.43C66.333 108.43 66.267 108.415 66.201 108.386C66.135 108.357 66.047 108.309 65.937 108.243C65.739 108.126 65.552 108.034 65.376 107.968C65.2073 107.902 64.9946 107.869 64.738 107.869C64.43 107.869 64.1806 107.935 63.99 108.067C63.8066 108.199 63.715 108.379 63.715 108.606C63.715 108.811 63.7993 108.973 63.968 109.09C64.144 109.2 64.4703 109.306 64.947 109.409C65.4383 109.512 65.8233 109.629 66.102 109.761C66.3806 109.893 66.5786 110.058 66.696 110.256C66.8206 110.447 66.883 110.692 66.883 110.993C66.883 111.47 66.6813 111.855 66.278 112.148C65.882 112.434 65.3503 112.577 64.683 112.577ZM70.6949 111.708C70.8562 111.723 70.9699 111.767 71.0359 111.84C71.1092 111.906 71.1459 112.001 71.1459 112.126C71.1459 112.273 71.0872 112.386 70.9699 112.467C70.8599 112.54 70.6949 112.57 70.4749 112.555L70.1779 112.533C69.5839 112.489 69.1402 112.309 68.8469 111.994C68.5536 111.671 68.4069 111.198 68.4069 110.575V107.99H67.7469C67.4242 107.99 67.2629 107.847 67.2629 107.561C67.2629 107.429 67.3032 107.326 67.3839 107.253C67.4719 107.172 67.5929 107.132 67.7469 107.132H68.4069V105.999C68.4069 105.83 68.4546 105.698 68.5499 105.603C68.6526 105.508 68.7882 105.46 68.9569 105.46C69.1256 105.46 69.2612 105.508 69.3639 105.603C69.4666 105.698 69.5179 105.83 69.5179 105.999V107.132H70.6069C70.7609 107.132 70.8782 107.172 70.9589 107.253C71.0469 107.326 71.0909 107.429 71.0909 107.561C71.0909 107.7 71.0469 107.807 70.9589 107.88C70.8782 107.953 70.7609 107.99 70.6069 107.99H69.5179V110.652C69.5179 110.997 69.5876 111.25 69.7269 111.411C69.8736 111.572 70.0936 111.664 70.3869 111.686L70.6949 111.708ZM74.2758 112.577C73.7478 112.577 73.2822 112.463 72.8788 112.236C72.4828 112.009 72.1748 111.686 71.9548 111.268C71.7422 110.843 71.6358 110.351 71.6358 109.794C71.6358 109.229 71.7422 108.738 71.9548 108.32C72.1748 107.895 72.4828 107.568 72.8788 107.341C73.2822 107.114 73.7478 107 74.2758 107C74.8038 107 75.2658 107.114 75.6618 107.341C76.0652 107.568 76.3732 107.895 76.5858 108.32C76.8058 108.738 76.9158 109.229 76.9158 109.794C76.9158 110.351 76.8058 110.843 76.5858 111.268C76.3732 111.686 76.0652 112.009 75.6618 112.236C75.2658 112.463 74.8038 112.577 74.2758 112.577ZM74.2758 111.697C74.7672 111.697 75.1412 111.536 75.3978 111.213C75.6618 110.89 75.7938 110.417 75.7938 109.794C75.7938 109.178 75.6618 108.709 75.3978 108.386C75.1338 108.056 74.7598 107.891 74.2758 107.891C73.7918 107.891 73.4178 108.056 73.1538 108.386C72.8898 108.709 72.7578 109.178 72.7578 109.794C72.7578 110.417 72.8862 110.89 73.1428 111.213C73.4068 111.536 73.7845 111.697 74.2758 111.697ZM80.9688 107.022C81.3208 107 81.4968 107.15 81.4968 107.473C81.4968 107.634 81.4565 107.755 81.3758 107.836C81.2951 107.917 81.1558 107.964 80.9578 107.979L80.6278 108.012C80.1658 108.056 79.8211 108.217 79.5938 108.496C79.3738 108.775 79.2638 109.112 79.2638 109.508V112.027C79.2638 112.203 79.2125 112.335 79.1098 112.423C79.0071 112.511 78.8751 112.555 78.7138 112.555C78.5525 112.555 78.4168 112.511 78.3068 112.423C78.2041 112.335 78.1528 112.203 78.1528 112.027V107.55C78.1528 107.381 78.2041 107.253 78.3068 107.165C78.4168 107.07 78.5525 107.022 78.7138 107.022C78.8605 107.022 78.9815 107.07 79.0768 107.165C79.1795 107.253 79.2308 107.378 79.2308 107.539V108.067C79.3775 107.744 79.5901 107.499 79.8688 107.33C80.1475 107.161 80.4628 107.062 80.8148 107.033L80.9688 107.022ZM86.3311 107.352C86.3751 107.242 86.4375 107.161 86.5181 107.11C86.6061 107.059 86.6978 107.033 86.7931 107.033C86.9325 107.033 87.0535 107.081 87.1561 107.176C87.2661 107.271 87.3211 107.385 87.3211 107.517C87.3211 107.59 87.3065 107.66 87.2771 107.726L84.2191 114.216C84.1751 114.319 84.1091 114.396 84.0211 114.447C83.9405 114.506 83.8525 114.535 83.7571 114.535C83.6251 114.535 83.5041 114.491 83.3941 114.403C83.2915 114.315 83.2401 114.205 83.2401 114.073C83.2401 114.014 83.2585 113.941 83.2951 113.853L84.0541 112.236L81.9311 107.726C81.9018 107.667 81.8871 107.601 81.8871 107.528C81.8871 107.389 81.9458 107.271 82.0631 107.176C82.1805 107.081 82.3125 107.033 82.4591 107.033C82.6791 107.033 82.8368 107.136 82.9321 107.341L84.6371 111.125L86.3311 107.352ZM91.6684 108.441C91.4704 108.441 91.3017 108.375 91.1624 108.243C91.0304 108.111 90.9644 107.942 90.9644 107.737C90.9644 107.532 91.0304 107.363 91.1624 107.231C91.3017 107.092 91.4704 107.022 91.6684 107.022C91.8664 107.022 92.0314 107.092 92.1634 107.231C92.2954 107.363 92.3614 107.532 92.3614 107.737C92.3614 107.942 92.2954 108.111 92.1634 108.243C92.0314 108.375 91.8664 108.441 91.6684 108.441ZM91.6684 112.555C91.4704 112.555 91.3017 112.489 91.1624 112.357C91.0304 112.225 90.9644 112.056 90.9644 111.851C90.9644 111.646 91.0304 111.477 91.1624 111.345C91.3017 111.206 91.4704 111.136 91.6684 111.136C91.8664 111.136 92.0314 111.206 92.1634 111.345C92.2954 111.477 92.3614 111.646 92.3614 111.851C92.3614 112.056 92.2954 112.225 92.1634 112.357C92.0314 112.489 91.8664 112.555 91.6684 112.555Z" fill="#B2B9C5"/>
<path d="M140.736 11.531C140.78 11.4137 140.846 11.3257 140.934 11.267C141.022 11.2083 141.121 11.179 141.231 11.179C141.37 11.179 141.491 11.2267 141.594 11.322C141.704 11.41 141.759 11.5273 141.759 11.674C141.759 11.7547 141.744 11.828 141.715 11.894L139.284 18.692C139.233 18.8167 139.152 18.912 139.042 18.978C138.932 19.044 138.811 19.077 138.679 19.077C138.554 19.077 138.437 19.044 138.327 18.978C138.217 18.912 138.14 18.8167 138.096 18.692L136.094 13.016L134.048 18.692C134.004 18.8167 133.927 18.912 133.817 18.978C133.707 19.044 133.59 19.077 133.465 19.077C133.333 19.077 133.212 19.044 133.102 18.978C132.999 18.912 132.922 18.8167 132.871 18.692L130.44 11.894C130.411 11.828 130.396 11.7547 130.396 11.674C130.396 11.5273 130.451 11.41 130.561 11.322C130.671 11.2267 130.803 11.179 130.957 11.179C131.067 11.179 131.166 11.2083 131.254 11.267C131.349 11.3257 131.419 11.4137 131.463 11.531L133.498 17.383L135.566 11.586C135.61 11.4613 135.68 11.366 135.775 11.3C135.878 11.234 135.988 11.201 136.105 11.201C136.222 11.201 136.329 11.2377 136.424 11.311C136.519 11.377 136.593 11.4723 136.644 11.597L138.668 17.438L140.736 11.531ZM146.509 17.647C146.612 17.647 146.696 17.6873 146.762 17.768C146.828 17.8487 146.861 17.9513 146.861 18.076C146.861 18.2887 146.729 18.4683 146.465 18.615C146.208 18.7617 145.926 18.8753 145.618 18.956C145.317 19.0367 145.028 19.077 144.749 19.077C143.898 19.077 143.227 18.8313 142.736 18.34C142.245 17.8413 141.999 17.163 141.999 16.305C141.999 15.755 142.105 15.2673 142.318 14.842C142.538 14.4167 142.842 14.0867 143.231 13.852C143.627 13.6173 144.074 13.5 144.573 13.5C145.292 13.5 145.86 13.731 146.278 14.193C146.696 14.655 146.905 15.2783 146.905 16.063C146.905 16.3563 146.773 16.503 146.509 16.503H143.11C143.183 17.6397 143.73 18.208 144.749 18.208C145.02 18.208 145.255 18.1713 145.453 18.098C145.651 18.0247 145.86 17.9293 146.08 17.812C146.102 17.7973 146.161 17.768 146.256 17.724C146.359 17.6727 146.443 17.647 146.509 17.647ZM144.595 14.314C144.17 14.314 143.829 14.4497 143.572 14.721C143.315 14.9923 143.161 15.3737 143.11 15.865H145.948C145.926 15.3663 145.798 14.985 145.563 14.721C145.336 14.4497 145.013 14.314 144.595 14.314ZM148.69 19.055C148.529 19.055 148.393 19.011 148.283 18.923C148.181 18.835 148.129 18.703 148.129 18.527V11.729C148.129 11.553 148.181 11.421 148.283 11.333C148.393 11.2377 148.529 11.19 148.69 11.19C148.852 11.19 148.984 11.2377 149.086 11.333C149.189 11.421 149.24 11.553 149.24 11.729V18.527C149.24 18.703 149.189 18.835 149.086 18.923C148.984 19.011 148.852 19.055 148.69 19.055ZM153.092 19.077C152.572 19.077 152.113 18.9633 151.717 18.736C151.329 18.5087 151.024 18.186 150.804 17.768C150.592 17.35 150.485 16.866 150.485 16.316C150.485 15.7587 150.595 15.2673 150.815 14.842C151.043 14.4167 151.358 14.0867 151.761 13.852C152.165 13.6173 152.627 13.5 153.147 13.5C153.426 13.5 153.705 13.5403 153.983 13.621C154.269 13.7017 154.522 13.8117 154.742 13.951C154.977 14.1123 155.094 14.2993 155.094 14.512C155.094 14.6367 155.061 14.743 154.995 14.831C154.929 14.9117 154.845 14.952 154.742 14.952C154.676 14.952 154.61 14.9373 154.544 14.908C154.478 14.8713 154.394 14.82 154.291 14.754C154.108 14.6367 153.936 14.5487 153.774 14.49C153.62 14.424 153.433 14.391 153.213 14.391C152.715 14.391 152.326 14.5597 152.047 14.897C151.776 15.2343 151.64 15.7037 151.64 16.305C151.64 16.9063 151.776 17.372 152.047 17.702C152.319 18.0247 152.704 18.186 153.202 18.186C153.422 18.186 153.617 18.153 153.785 18.087C153.954 18.021 154.126 17.933 154.302 17.823C154.383 17.7717 154.464 17.7277 154.544 17.691C154.625 17.6543 154.698 17.636 154.764 17.636C154.867 17.636 154.951 17.68 155.017 17.768C155.083 17.8487 155.116 17.9513 155.116 18.076C155.116 18.1787 155.087 18.274 155.028 18.362C154.977 18.4427 154.885 18.527 154.753 18.615C154.533 18.7617 154.277 18.8753 153.983 18.956C153.69 19.0367 153.393 19.077 153.092 19.077ZM158.443 19.077C157.915 19.077 157.449 18.9633 157.046 18.736C156.65 18.5087 156.342 18.186 156.122 17.768C155.909 17.3427 155.803 16.8513 155.803 16.294C155.803 15.7293 155.909 15.238 156.122 14.82C156.342 14.3947 156.65 14.0683 157.046 13.841C157.449 13.6137 157.915 13.5 158.443 13.5C158.971 13.5 159.433 13.6137 159.829 13.841C160.232 14.0683 160.54 14.3947 160.753 14.82C160.973 15.238 161.083 15.7293 161.083 16.294C161.083 16.8513 160.973 17.3427 160.753 17.768C160.54 18.186 160.232 18.5087 159.829 18.736C159.433 18.9633 158.971 19.077 158.443 19.077ZM158.443 18.197C158.934 18.197 159.308 18.0357 159.565 17.713C159.829 17.3903 159.961 16.9173 159.961 16.294C159.961 15.678 159.829 15.2087 159.565 14.886C159.301 14.556 158.927 14.391 158.443 14.391C157.959 14.391 157.585 14.556 157.321 14.886C157.057 15.2087 156.925 15.678 156.925 16.294C156.925 16.9173 157.053 17.3903 157.31 17.713C157.574 18.0357 157.951 18.197 158.443 18.197ZM168.48 13.5C169.682 13.5 170.284 14.2223 170.284 15.667V18.527C170.284 18.6957 170.232 18.8277 170.13 18.923C170.027 19.011 169.891 19.055 169.723 19.055C169.561 19.055 169.429 19.011 169.327 18.923C169.224 18.8277 169.173 18.6957 169.173 18.527V15.678C169.173 15.2307 169.092 14.908 168.931 14.71C168.769 14.5047 168.516 14.402 168.172 14.402C167.768 14.402 167.449 14.5413 167.215 14.82C166.98 15.0913 166.863 15.4653 166.863 15.942V18.527C166.863 18.6957 166.811 18.8277 166.709 18.923C166.606 19.011 166.47 19.055 166.302 19.055C166.14 19.055 166.008 19.011 165.906 18.923C165.803 18.8277 165.752 18.6957 165.752 18.527V15.678C165.752 15.2307 165.671 14.908 165.51 14.71C165.348 14.5047 165.095 14.402 164.751 14.402C164.347 14.402 164.025 14.5413 163.783 14.82C163.548 15.0913 163.431 15.4653 163.431 15.942V18.527C163.431 18.6957 163.379 18.8277 163.277 18.923C163.174 19.011 163.042 19.055 162.881 19.055C162.719 19.055 162.584 19.011 162.474 18.923C162.371 18.8277 162.32 18.6957 162.32 18.527V14.05C162.32 13.8887 162.375 13.7603 162.485 13.665C162.595 13.5697 162.727 13.522 162.881 13.522C163.035 13.522 163.159 13.5697 163.255 13.665C163.357 13.753 163.409 13.8777 163.409 14.039V14.446C163.57 14.138 163.794 13.9033 164.08 13.742C164.366 13.5807 164.696 13.5 165.07 13.5C165.48 13.5 165.818 13.5843 166.082 13.753C166.353 13.9217 166.555 14.182 166.687 14.534C166.848 14.2187 167.086 13.9693 167.402 13.786C167.717 13.5953 168.076 13.5 168.48 13.5ZM176.007 17.647C176.11 17.647 176.194 17.6873 176.26 17.768C176.326 17.8487 176.359 17.9513 176.359 18.076C176.359 18.2887 176.227 18.4683 175.963 18.615C175.706 18.7617 175.424 18.8753 175.116 18.956C174.815 19.0367 174.526 19.077 174.247 19.077C173.396 19.077 172.725 18.8313 172.234 18.34C171.743 17.8413 171.497 17.163 171.497 16.305C171.497 15.755 171.603 15.2673 171.816 14.842C172.036 14.4167 172.34 14.0867 172.729 13.852C173.125 13.6173 173.572 13.5 174.071 13.5C174.79 13.5 175.358 13.731 175.776 14.193C176.194 14.655 176.403 15.2783 176.403 16.063C176.403 16.3563 176.271 16.503 176.007 16.503H172.608C172.681 17.6397 173.228 18.208 174.247 18.208C174.518 18.208 174.753 18.1713 174.951 18.098C175.149 18.0247 175.358 17.9293 175.578 17.812C175.6 17.7973 175.659 17.768 175.754 17.724C175.857 17.6727 175.941 17.647 176.007 17.647ZM174.093 14.314C173.668 14.314 173.327 14.4497 173.07 14.721C172.813 14.9923 172.659 15.3737 172.608 15.865H175.446C175.424 15.3663 175.296 14.985 175.061 14.721C174.834 14.4497 174.511 14.314 174.093 14.314ZM183.223 19.088C182.665 19.088 182.134 19.011 181.628 18.857C181.129 18.703 180.729 18.4903 180.429 18.219C180.289 18.1017 180.22 17.9513 180.22 17.768C180.22 17.636 180.256 17.526 180.33 17.438C180.403 17.3427 180.491 17.295 180.594 17.295C180.696 17.295 180.821 17.3427 180.968 17.438C181.62 17.922 182.365 18.164 183.201 18.164C183.787 18.164 184.238 18.054 184.554 17.834C184.869 17.614 185.027 17.2987 185.027 16.888C185.027 16.5653 184.88 16.3233 184.587 16.162C184.293 16.0007 183.824 15.8467 183.179 15.7C182.563 15.568 182.057 15.4177 181.661 15.249C181.265 15.0803 180.953 14.853 180.726 14.567C180.506 14.2737 180.396 13.9033 180.396 13.456C180.396 13.0087 180.517 12.6127 180.759 12.268C181.008 11.916 181.353 11.6447 181.793 11.454C182.233 11.256 182.735 11.157 183.3 11.157C183.82 11.157 184.301 11.2303 184.741 11.377C185.181 11.5237 185.555 11.74 185.863 12.026C186.009 12.1507 186.083 12.301 186.083 12.477C186.083 12.6017 186.042 12.7117 185.962 12.807C185.888 12.9023 185.8 12.95 185.698 12.95C185.602 12.95 185.481 12.9023 185.335 12.807C184.997 12.5503 184.678 12.367 184.378 12.257C184.084 12.1397 183.729 12.081 183.311 12.081C182.746 12.081 182.306 12.1983 181.991 12.433C181.675 12.6603 181.518 12.9793 181.518 13.39C181.518 13.742 181.657 14.0097 181.936 14.193C182.214 14.369 182.662 14.5303 183.278 14.677C183.923 14.8237 184.444 14.9777 184.84 15.139C185.243 15.293 185.562 15.5093 185.797 15.788C186.039 16.0593 186.16 16.4113 186.16 16.844C186.16 17.284 186.035 17.6763 185.786 18.021C185.544 18.3583 185.199 18.6223 184.752 18.813C184.312 18.9963 183.802 19.088 183.223 19.088ZM189.679 13.5C190.391 13.5 190.919 13.6797 191.263 14.039C191.615 14.3983 191.791 14.9447 191.791 15.678V18.527C191.791 18.6957 191.744 18.8277 191.648 18.923C191.553 19.011 191.421 19.055 191.252 19.055C191.091 19.055 190.963 19.0073 190.867 18.912C190.772 18.8167 190.724 18.6883 190.724 18.527V18.12C190.585 18.428 190.376 18.6663 190.097 18.835C189.826 18.9963 189.507 19.077 189.14 19.077C188.788 19.077 188.466 19.0073 188.172 18.868C187.886 18.7213 187.659 18.5233 187.49 18.274C187.322 18.0247 187.237 17.7423 187.237 17.427C187.23 17.031 187.329 16.723 187.534 16.503C187.74 16.2757 188.073 16.1143 188.535 16.019C188.997 15.9163 189.639 15.865 190.46 15.865H190.713V15.546C190.713 15.1353 190.629 14.8383 190.46 14.655C190.292 14.4717 190.02 14.38 189.646 14.38C189.39 14.38 189.148 14.413 188.92 14.479C188.693 14.545 188.444 14.6403 188.172 14.765C187.974 14.875 187.835 14.93 187.754 14.93C187.644 14.93 187.553 14.8897 187.479 14.809C187.413 14.7283 187.38 14.6257 187.38 14.501C187.38 14.391 187.41 14.2957 187.468 14.215C187.534 14.127 187.637 14.0427 187.776 13.962C188.033 13.8227 188.334 13.7127 188.678 13.632C189.023 13.544 189.357 13.5 189.679 13.5ZM189.338 18.252C189.742 18.252 190.072 18.1163 190.328 17.845C190.585 17.5663 190.713 17.2107 190.713 16.778V16.492H190.515C189.943 16.492 189.503 16.5177 189.195 16.569C188.887 16.6203 188.667 16.7083 188.535 16.833C188.403 16.9503 188.337 17.1227 188.337 17.35C188.337 17.614 188.433 17.8303 188.623 17.999C188.814 18.1677 189.052 18.252 189.338 18.252ZM199.471 13.5C200.674 13.5 201.275 14.2223 201.275 15.667V18.527C201.275 18.6957 201.224 18.8277 201.121 18.923C201.018 19.011 200.883 19.055 200.714 19.055C200.553 19.055 200.421 19.011 200.318 18.923C200.215 18.8277 200.164 18.6957 200.164 18.527V15.678C200.164 15.2307 200.083 14.908 199.922 14.71C199.761 14.5047 199.508 14.402 199.163 14.402C198.76 14.402 198.441 14.5413 198.206 14.82C197.971 15.0913 197.854 15.4653 197.854 15.942V18.527C197.854 18.6957 197.803 18.8277 197.7 18.923C197.597 19.011 197.462 19.055 197.293 19.055C197.132 19.055 197 19.011 196.897 18.923C196.794 18.8277 196.743 18.6957 196.743 18.527V15.678C196.743 15.2307 196.662 14.908 196.501 14.71C196.34 14.5047 196.087 14.402 195.742 14.402C195.339 14.402 195.016 14.5413 194.774 14.82C194.539 15.0913 194.422 15.4653 194.422 15.942V18.527C194.422 18.6957 194.371 18.8277 194.268 18.923C194.165 19.011 194.033 19.055 193.872 19.055C193.711 19.055 193.575 19.011 193.465 18.923C193.362 18.8277 193.311 18.6957 193.311 18.527V14.05C193.311 13.8887 193.366 13.7603 193.476 13.665C193.586 13.5697 193.718 13.522 193.872 13.522C194.026 13.522 194.151 13.5697 194.246 13.665C194.349 13.753 194.4 13.8777 194.4 14.039V14.446C194.561 14.138 194.785 13.9033 195.071 13.742C195.357 13.5807 195.687 13.5 196.061 13.5C196.472 13.5 196.809 13.5843 197.073 13.753C197.344 13.9217 197.546 14.182 197.678 14.534C197.839 14.2187 198.078 13.9693 198.393 13.786C198.708 13.5953 199.068 13.5 199.471 13.5Z" fill="#B2B9C5"/>
<path d="M209 44V29.5V17.75V1H124.5V29.5H198L209 44Z" stroke="#B8C0CC" stroke-width="1.88" stroke-linecap="round" stroke-linejoin="round"/>
</svg>
