<svg width="106" height="113" viewBox="0 0 106 113" fill="none" xmlns="http://www.w3.org/2000/svg">
<path d="M53 106.02C82.2711 106.02 106 82.2911 106 53.02C106 23.7489 82.2711 0.0200195 53 0.0200195C23.7289 0.0200195 0 23.7489 0 53.02C0 82.2911 23.7289 106.02 53 106.02Z" fill="#F0F4F7"/>
<path d="M69.5061 17.0211H36.8124C31.946 17.0211 28.001 20.9661 28.001 25.8325V103.209C28.001 108.075 31.946 112.02 36.8124 112.02H69.5061C74.3725 112.02 78.3175 108.075 78.3175 103.209V25.8325C78.3175 20.9661 74.3725 17.0211 69.5061 17.0211Z" fill="white" stroke="#B8C0CC" stroke-width="1.88" stroke-miterlimit="10"/>
<path d="M63.4204 71.1039V60.8557C63.4204 55.1568 58.7835 50.5204 53.0841 50.5204C47.4337 50.5204 42.8368 55.1172 42.8368 60.7675C42.8368 66.467 47.4733 71.1039 53.1723 71.1039H63.4204ZM63.8552 73.6057H53.1723C46.0824 73.6057 40.335 67.8584 40.335 60.7675C40.335 53.7267 46.0431 48.0186 53.0841 48.0186C60.1749 48.0186 65.9222 53.7659 65.9222 60.8557V71.5385C65.9222 72.68 64.9964 73.6057 63.8552 73.6057Z" fill="#1ABC94"/>
<path d="M37.3247 17.02L39.8775 21.9556C40.0976 22.3812 40.4305 22.7381 40.8398 22.9871C41.2491 23.2362 41.7191 23.3678 42.1982 23.3676H63.958C64.4256 23.3677 64.8846 23.2423 65.2871 23.0045C65.6897 22.7667 66.0211 22.4252 66.2467 22.0157L68.9987 17.0211" fill="#B8C0CC"/>
<path d="M28 95.9803H78.2824" stroke="#B8C0CC" stroke-width="1.88"/>
<path d="M53.1282 107.098C55.1339 107.098 56.7599 105.472 56.7599 103.467C56.7599 101.461 55.1339 99.8351 53.1282 99.8351C51.1225 99.8351 49.4966 101.461 49.4966 103.467C49.4966 105.472 51.1225 107.098 53.1282 107.098Z" fill="#B8C0CC"/>
</svg>
