<svg width="217" height="175" viewBox="0 0 217 175" fill="none" xmlns="http://www.w3.org/2000/svg">
<path d="M56.0971 36.6156C61.7624 36.6155 67.3721 37.7312 72.6062 39.8991C77.8402 42.067 82.5959 45.2447 86.6019 49.2505C90.6079 53.2564 93.7856 58.0121 95.9536 63.2461C98.1216 68.4801 99.2374 74.0898 99.2374 79.755C99.2376 85.4589 98.1142 91.1068 95.9315 96.3765C93.7489 101.646 90.5496 106.434 86.5164 110.468C82.4833 114.501 77.6952 117.7 72.4255 119.883C67.1559 122.066 61.5079 123.189 55.8041 123.189H19.6572C18.7388 123.189 17.8294 123.008 16.981 122.657C16.1325 122.305 15.3615 121.79 14.7121 121.141C14.0627 120.492 13.5476 119.721 13.1962 118.872C12.8447 118.024 12.6638 117.114 12.6638 116.196V80.0489C12.6638 68.5297 17.2398 57.4823 25.3851 49.3369C33.5305 41.1916 44.5779 36.6156 56.0971 36.6156V36.6156Z" fill="white"/>
<path d="M55.5587 36.6832C57.8055 36.6834 60.0487 36.86 62.2679 37.2112C44.619 36.7968 20.6331 49.8359 20.6331 79.7673V116.908C20.6377 118.524 21.2819 120.073 22.4247 121.215C23.5676 122.358 25.1163 123.002 26.7325 123.007H18.5742C16.9581 123.002 15.4096 122.358 14.2669 121.215C13.1242 120.072 12.4802 118.524 12.4756 116.908V79.7673C12.5088 68.351 17.0585 57.4118 25.1309 49.3392C33.2034 41.2666 44.1425 36.7167 55.5587 36.6832Z" fill="#EAEFF4"/>
<path d="M56.0971 36.6156C61.7624 36.6155 67.3721 37.7312 72.6062 39.8991C77.8402 42.067 82.5959 45.2447 86.6019 49.2505C90.6079 53.2564 93.7856 58.0121 95.9536 63.2461C98.1216 68.4801 99.2375 74.0898 99.2375 79.755V79.755C99.2376 85.4589 98.1142 91.1068 95.9315 96.3765C93.7489 101.646 90.5496 106.434 86.5164 110.468C82.4833 114.501 77.6952 117.7 72.4255 119.883C67.1559 122.066 61.508 123.189 55.8041 123.189H19.6572C18.7388 123.189 17.8294 123.008 16.981 122.657C16.1325 122.305 15.3615 121.79 14.7121 121.141C14.0627 120.492 13.5476 119.721 13.1962 118.872C12.8447 118.024 12.6638 117.114 12.6638 116.196V80.0489C12.6638 68.5297 17.2398 57.4823 25.3851 49.3369C33.5305 41.1916 44.5779 36.6156 56.0971 36.6156V36.6156Z" stroke="#B8C0CC" stroke-width="1.88" stroke-linecap="round" stroke-linejoin="round"/>
<path d="M58.5195 71.5394C58.5195 70.4676 58.9453 69.4396 59.7032 68.6817C60.4611 67.9238 61.4891 67.498 62.5609 67.498C63.6327 67.498 64.6607 67.9238 65.4186 68.6817C66.1765 69.4396 66.6023 70.4676 66.6023 71.5394" stroke="#B8C0CC" stroke-width="1.88" stroke-linecap="round" stroke-linejoin="round"/>
<path d="M77.3079 71.5394C77.3079 70.4676 77.7337 69.4396 78.4916 68.6817C79.2495 67.9238 80.2774 67.498 81.3492 67.498C82.4211 67.498 83.449 67.9238 84.2069 68.6817C84.9648 69.4396 85.3905 70.4676 85.3905 71.5394" stroke="#B8C0CC" stroke-width="1.88" stroke-linecap="round" stroke-linejoin="round"/>
<path d="M7.59439 64.483C7.05408 64.6004 6.73511 65.1465 6.93297 65.6628C8.03127 68.5288 12.21 76.7733 23.2076 73.9938C23.7369 73.86 24.0389 73.3147 23.8344 72.8085C22.7149 70.0382 18.5013 62.1126 7.59439 64.483Z" fill="white" stroke="#B8C0CC" stroke-width="1.88" stroke-miterlimit="10"/>
<path d="M18.8045 42.6491C18.3663 42.3119 17.7326 42.4041 17.4438 42.8756C15.1994 46.5403 7.54265 61.5199 23.909 73.264C24.3526 73.5823 24.9746 73.4778 25.2516 73.0074C27.3733 69.4036 34.5219 54.7431 18.8045 42.6491Z" fill="white" stroke="#B8C0CC" stroke-width="1.88" stroke-miterlimit="10"/>
<path d="M122.288 88.13H63.1463C60.4246 88.13 58.2183 90.3363 58.2183 93.058V142.78C58.2183 145.502 60.4246 147.708 63.1463 147.708H122.288C125.01 147.708 127.216 145.502 127.216 142.78V93.058C127.216 90.3363 125.01 88.13 122.288 88.13Z" fill="white" stroke="#B8C0CC" stroke-width="1.88" stroke-linecap="round" stroke-linejoin="round"/>
<path d="M79.3864 111.238H76.4674C73.9672 111.238 71.9404 113.265 71.9404 115.765V118.684C71.9404 121.184 73.9672 123.211 76.4674 123.211H79.3864C81.8866 123.211 83.9134 121.184 83.9134 118.684V115.765C83.9134 113.265 81.8866 111.238 79.3864 111.238Z" fill="#EAEFF4"/>
<path d="M79.3864 125.782H76.4674C73.9672 125.782 71.9404 127.809 71.9404 130.309V133.228C71.9404 135.728 73.9672 137.755 76.4674 137.755H79.3864C81.8866 137.755 83.9134 135.728 83.9134 133.228V130.309C83.9134 127.809 81.8866 125.782 79.3864 125.782Z" fill="#EAEFF4"/>
<path d="M94.8244 111.238H91.9054C89.4052 111.238 87.3784 113.265 87.3784 115.765V118.684C87.3784 121.184 89.4052 123.211 91.9054 123.211H94.8244C97.3246 123.211 99.3514 121.184 99.3514 118.684V115.765C99.3514 113.265 97.3246 111.238 94.8244 111.238Z" fill="#EAEFF4"/>
<path d="M94.8244 125.782H91.9054C89.4052 125.782 87.3784 127.809 87.3784 130.309V133.228C87.3784 135.728 89.4052 137.755 91.9054 137.755H94.8244C97.3246 137.755 99.3514 135.728 99.3514 133.228V130.309C99.3514 127.809 97.3246 125.782 94.8244 125.782Z" fill="#EAEFF4"/>
<path d="M111.929 111.238H109.01C106.51 111.238 104.483 113.265 104.483 115.765V118.684C104.483 121.184 106.51 123.211 109.01 123.211H111.929C114.43 123.211 116.456 121.184 116.456 118.684V115.765C116.456 113.265 114.43 111.238 111.929 111.238Z" fill="#EAEFF4"/>
<path d="M111.929 125.782H109.01C106.51 125.782 104.483 127.809 104.483 130.309V133.228C104.483 135.728 106.51 137.755 109.01 137.755H111.929C114.43 137.755 116.456 135.728 116.456 133.228V130.309C116.456 127.809 114.43 125.782 111.929 125.782Z" fill="#EAEFF4"/>
<path d="M61.0993 110.465L74.3933 110.484C74.7674 110.484 75.1261 110.634 75.3904 110.898C75.6548 111.163 75.8033 111.522 75.8033 111.896L75.7773 131.107C75.777 131.292 75.7403 131.475 75.6692 131.646C75.5981 131.817 75.494 131.973 75.3629 132.103C75.2318 132.234 75.0762 132.338 74.905 132.408C74.7339 132.479 74.5505 132.515 74.3653 132.515L61.0713 132.497" fill="#6BBEA1"/>
<path d="M68.1009 110.476L68.0713 132.508L71.9113 132.513L71.9409 110.481L68.1009 110.476Z" fill="#498679"/>
<path opacity="0.5" d="M62.4042 123.627C63.167 123.674 63.883 124.011 64.406 124.568C64.929 125.125 65.2197 125.861 65.2187 126.625C65.2177 127.389 64.925 128.125 64.4005 128.68C63.876 129.236 63.1591 129.571 62.3962 129.616" fill="#498679"/>
<path opacity="0.5" d="M62.4084 120.747C63.1711 120.794 63.8871 121.131 64.4102 121.688C64.9332 122.245 65.2239 122.981 65.2228 123.745C65.2218 124.509 64.9292 125.244 64.4047 125.8C63.8801 126.356 63.1633 126.691 62.4004 126.736" fill="#498679"/>
<path d="M99.0712 147.708H85.6582C84.7376 147.708 83.9912 148.454 83.9912 149.375V153.975C83.9912 154.896 84.7376 155.642 85.6582 155.642H99.0712C99.9919 155.642 100.738 154.896 100.738 153.975V149.375C100.738 148.454 99.9919 147.708 99.0712 147.708Z" fill="white" stroke="#B8C0CC" stroke-width="1.88" stroke-linecap="round" stroke-linejoin="round"/>
<path d="M58.9133 106.638H57.5233C56.3321 106.638 55.3663 107.604 55.3663 108.795V133.216C55.3663 134.407 56.3321 135.373 57.5233 135.373H58.9133C60.1046 135.373 61.0703 134.407 61.0703 133.216V108.795C61.0703 107.604 60.1046 106.638 58.9133 106.638Z" fill="white" stroke="#B8C0CC" stroke-width="1.88" stroke-linecap="round" stroke-linejoin="round"/>
<path d="M79.8584 155.643H105.081" stroke="#B8C0CC" stroke-width="1.88" stroke-linecap="round" stroke-linejoin="round"/>
<path d="M208.103 173.474H167.174C154.131 173.474 141.623 168.293 132.4 159.07C123.177 149.847 117.995 137.338 117.995 124.295C117.995 117.88 119.259 111.528 121.713 105.602C124.168 99.6755 127.766 94.2906 132.302 89.7547C136.838 85.2188 142.223 81.6207 148.149 79.166C154.076 76.7112 160.428 75.4479 166.842 75.448C179.886 75.448 192.394 80.6293 201.617 89.8522C210.84 99.0751 216.021 111.584 216.021 124.627V165.556C216.021 167.656 215.187 169.67 213.702 171.155C212.217 172.64 210.203 173.474 208.103 173.474V173.474Z" fill="white"/>
<path opacity="0.6" d="M167.453 75.5239C164.908 75.525 162.367 75.7256 159.854 76.1239C179.838 75.6549 206.995 90.4189 206.995 124.31V166.364C206.99 168.193 206.262 169.945 204.969 171.239C203.676 172.533 201.924 173.262 200.096 173.269H209.331C211.161 173.264 212.915 172.534 214.209 171.241C215.503 169.947 216.232 168.194 216.237 166.364V124.307C216.2 111.38 211.048 98.9939 201.907 89.8535C192.767 80.713 180.38 75.5614 167.453 75.5239Z" fill="#89EED5"/>
<path d="M208.103 173.474H167.174C154.131 173.474 141.623 168.293 132.4 159.07C123.177 149.847 117.995 137.338 117.995 124.295C117.995 117.88 119.259 111.528 121.713 105.602C124.168 99.6755 127.766 94.2906 132.302 89.7547C136.838 85.2188 142.223 81.6207 148.149 79.166C154.076 76.7112 160.428 75.4479 166.842 75.448C179.886 75.448 192.394 80.6293 201.617 89.8522C210.84 99.075 216.021 111.584 216.021 124.627V165.556C216.021 167.656 215.187 169.67 213.702 171.155C212.217 172.64 210.203 173.474 208.103 173.474Z" stroke="#1ABC94" stroke-width="1.88" stroke-linecap="round" stroke-linejoin="round"/>
<path d="M143.405 109.846C143.632 107.042 142.396 104.655 140.644 104.513C138.891 104.371 137.287 106.529 137.06 109.333C136.833 112.136 138.07 114.524 139.822 114.666C141.574 114.807 143.179 112.65 143.405 109.846Z" fill="#1ABC94"/>
<path d="M77.6503 112.343C78.5432 112.343 79.4162 112.608 80.1587 113.104C80.9011 113.6 81.4798 114.305 81.8216 115.13C82.1633 115.955 82.2527 116.863 82.0785 117.739C81.9043 118.615 81.4743 119.419 80.8428 120.05C80.2114 120.682 79.4069 121.112 78.5311 121.286C77.6553 121.46 76.7474 121.371 75.9224 121.029C75.0974 120.687 74.3923 120.109 73.8962 119.366C73.4001 118.624 73.1353 117.751 73.1353 116.858C73.1353 115.66 73.6109 114.512 74.4577 113.665C75.3044 112.819 76.4528 112.343 77.6503 112.343V112.343Z" fill="#1ABC94"/>
<path d="M77.6504 116.858C77.6504 116.858 106.65 148.958 156.075 138.596" stroke="#1ABC94" stroke-width="1.88" stroke-linecap="round" stroke-linejoin="round"/>
<path d="M67.1502 101.08C66.6436 101.08 66.1602 101.01 65.7002 100.87C65.2469 100.73 64.8836 100.537 64.6102 100.29C64.4836 100.183 64.4202 100.047 64.4202 99.88C64.4202 99.76 64.4536 99.66 64.5202 99.58C64.5869 99.4933 64.6669 99.45 64.7602 99.45C64.8536 99.45 64.9669 99.4933 65.1002 99.58C65.6936 100.02 66.3702 100.24 67.1302 100.24C67.6636 100.24 68.0736 100.14 68.3602 99.94C68.6469 99.74 68.7902 99.4533 68.7902 99.08C68.7902 98.7867 68.6569 98.5667 68.3902 98.42C68.1236 98.2733 67.6969 98.1333 67.1102 98C66.5502 97.88 66.0902 97.7433 65.7302 97.59C65.3702 97.4367 65.0869 97.23 64.8802 96.97C64.6802 96.7033 64.5802 96.3667 64.5802 95.96C64.5802 95.5533 64.6902 95.1933 64.9102 94.88C65.1369 94.56 65.4502 94.3133 65.8502 94.14C66.2502 93.96 66.7069 93.87 67.2202 93.87C67.6936 93.87 68.1302 93.9367 68.5302 94.07C68.9302 94.2033 69.2702 94.4 69.5502 94.66C69.6836 94.7733 69.7502 94.91 69.7502 95.07C69.7502 95.1833 69.7136 95.2833 69.6402 95.37C69.5736 95.4567 69.4936 95.5 69.4002 95.5C69.3136 95.5 69.2036 95.4567 69.0702 95.37C68.7636 95.1367 68.4736 94.97 68.2002 94.87C67.9336 94.7633 67.6102 94.71 67.2302 94.71C66.7169 94.71 66.3169 94.8167 66.0302 95.03C65.7436 95.2367 65.6002 95.5267 65.6002 95.9C65.6002 96.22 65.7269 96.4633 65.9802 96.63C66.2336 96.79 66.6402 96.9367 67.2002 97.07C67.7869 97.2033 68.2602 97.3433 68.6202 97.49C68.9869 97.63 69.2769 97.8267 69.4902 98.08C69.7102 98.3267 69.8202 98.6467 69.8202 99.04C69.8202 99.44 69.7069 99.7967 69.4802 100.11C69.2602 100.417 68.9469 100.657 68.5402 100.83C68.1402 100.997 67.6769 101.08 67.1502 101.08ZM74.7898 99.77C74.8831 99.77 74.9598 99.8067 75.0198 99.88C75.0798 99.9533 75.1098 100.047 75.1098 100.16C75.1098 100.353 74.9898 100.517 74.7498 100.65C74.5164 100.783 74.2598 100.887 73.9798 100.96C73.7064 101.033 73.4431 101.07 73.1898 101.07C72.4164 101.07 71.8064 100.847 71.3598 100.4C70.9131 99.9467 70.6898 99.33 70.6898 98.55C70.6898 98.05 70.7864 97.6067 70.9798 97.22C71.1798 96.8333 71.4564 96.5333 71.8098 96.32C72.1698 96.1067 72.5764 96 73.0298 96C73.6831 96 74.1998 96.21 74.5798 96.63C74.9598 97.05 75.1498 97.6167 75.1498 98.33C75.1498 98.5967 75.0298 98.73 74.7898 98.73H71.6998C71.7664 99.7633 72.2631 100.28 73.1898 100.28C73.4364 100.28 73.6498 100.247 73.8298 100.18C74.0098 100.113 74.1998 100.027 74.3998 99.92C74.4198 99.9067 74.4731 99.88 74.5598 99.84C74.6531 99.7933 74.7298 99.77 74.7898 99.77ZM73.0498 96.74C72.6631 96.74 72.3531 96.8633 72.1198 97.11C71.8864 97.3567 71.7464 97.7033 71.6998 98.15H74.2798C74.2598 97.6967 74.1431 97.35 73.9298 97.11C73.7231 96.8633 73.4298 96.74 73.0498 96.74ZM77.9627 101.07C77.2827 101.07 76.7261 100.93 76.2927 100.65C76.1727 100.577 76.0861 100.5 76.0327 100.42C75.9861 100.34 75.9627 100.25 75.9627 100.15C75.9627 100.043 75.9927 99.9533 76.0527 99.88C76.1127 99.8067 76.1894 99.77 76.2827 99.77C76.3694 99.77 76.5061 99.8233 76.6927 99.93C76.8927 100.037 77.0861 100.123 77.2727 100.19C77.4661 100.257 77.7061 100.29 77.9927 100.29C78.3127 100.29 78.5627 100.233 78.7427 100.12C78.9227 100.007 79.0127 99.8467 79.0127 99.64C79.0127 99.5067 78.9761 99.4 78.9027 99.32C78.8361 99.24 78.7161 99.17 78.5427 99.11C78.3694 99.0433 78.1127 98.9733 77.7727 98.9C77.1861 98.7733 76.7627 98.6033 76.5027 98.39C76.2494 98.17 76.1227 97.8733 76.1227 97.5C76.1227 97.2133 76.2061 96.9567 76.3727 96.73C76.5394 96.4967 76.7694 96.3167 77.0627 96.19C77.3561 96.0633 77.6894 96 78.0627 96C78.3294 96 78.5894 96.0367 78.8427 96.11C79.0961 96.1767 79.3194 96.2767 79.5127 96.41C79.7327 96.5567 79.8427 96.7267 79.8427 96.92C79.8427 97.0267 79.8094 97.1167 79.7427 97.19C79.6827 97.2633 79.6094 97.3 79.5227 97.3C79.4627 97.3 79.4027 97.2867 79.3427 97.26C79.2827 97.2333 79.2027 97.19 79.1027 97.13C78.9227 97.0233 78.7527 96.94 78.5927 96.88C78.4394 96.82 78.2461 96.79 78.0127 96.79C77.7327 96.79 77.5061 96.85 77.3327 96.97C77.1661 97.09 77.0827 97.2533 77.0827 97.46C77.0827 97.6467 77.1594 97.7933 77.3127 97.9C77.4727 98 77.7694 98.0967 78.2027 98.19C78.6494 98.2833 78.9994 98.39 79.2527 98.51C79.5061 98.63 79.6861 98.78 79.7927 98.96C79.9061 99.1333 79.9627 99.3567 79.9627 99.63C79.9627 100.063 79.7794 100.413 79.4127 100.68C79.0527 100.94 78.5694 101.07 77.9627 101.07ZM82.787 101.07C82.107 101.07 81.5503 100.93 81.117 100.65C80.997 100.577 80.9103 100.5 80.857 100.42C80.8103 100.34 80.787 100.25 80.787 100.15C80.787 100.043 80.817 99.9533 80.877 99.88C80.937 99.8067 81.0136 99.77 81.107 99.77C81.1936 99.77 81.3303 99.8233 81.517 99.93C81.717 100.037 81.9103 100.123 82.097 100.19C82.2903 100.257 82.5303 100.29 82.817 100.29C83.137 100.29 83.387 100.233 83.567 100.12C83.747 100.007 83.837 99.8467 83.837 99.64C83.837 99.5067 83.8003 99.4 83.727 99.32C83.6603 99.24 83.5403 99.17 83.367 99.11C83.1936 99.0433 82.937 98.9733 82.597 98.9C82.0103 98.7733 81.587 98.6033 81.327 98.39C81.0736 98.17 80.947 97.8733 80.947 97.5C80.947 97.2133 81.0303 96.9567 81.197 96.73C81.3636 96.4967 81.5936 96.3167 81.887 96.19C82.1803 96.0633 82.5136 96 82.887 96C83.1536 96 83.4136 96.0367 83.667 96.11C83.9203 96.1767 84.1436 96.2767 84.337 96.41C84.557 96.5567 84.667 96.7267 84.667 96.92C84.667 97.0267 84.6336 97.1167 84.567 97.19C84.507 97.2633 84.4336 97.3 84.347 97.3C84.287 97.3 84.227 97.2867 84.167 97.26C84.107 97.2333 84.027 97.19 83.927 97.13C83.747 97.0233 83.577 96.94 83.417 96.88C83.2636 96.82 83.0703 96.79 82.837 96.79C82.557 96.79 82.3303 96.85 82.157 96.97C81.9903 97.09 81.907 97.2533 81.907 97.46C81.907 97.6467 81.9836 97.7933 82.137 97.9C82.297 98 82.5936 98.0967 83.027 98.19C83.4736 98.2833 83.8236 98.39 84.077 98.51C84.3303 98.63 84.5103 98.78 84.617 98.96C84.7303 99.1333 84.787 99.3567 84.787 99.63C84.787 100.063 84.6036 100.413 84.237 100.68C83.877 100.94 83.3936 101.07 82.787 101.07ZM86.4212 101.05C86.2745 101.05 86.1512 101.01 86.0512 100.93C85.9578 100.85 85.9112 100.73 85.9112 100.57V96.51C85.9112 96.35 85.9578 96.23 86.0512 96.15C86.1512 96.0633 86.2745 96.02 86.4212 96.02C86.5678 96.02 86.6878 96.0633 86.7812 96.15C86.8745 96.23 86.9212 96.35 86.9212 96.51V100.57C86.9212 100.73 86.8745 100.85 86.7812 100.93C86.6878 101.01 86.5678 101.05 86.4212 101.05ZM86.4212 95.04C86.2278 95.04 86.0745 94.9867 85.9612 94.88C85.8478 94.7733 85.7912 94.6333 85.7912 94.46C85.7912 94.2867 85.8478 94.15 85.9612 94.05C86.0745 93.9433 86.2278 93.89 86.4212 93.89C86.6078 93.89 86.7578 93.9433 86.8712 94.05C86.9912 94.15 87.0512 94.2867 87.0512 94.46C87.0512 94.6333 86.9945 94.7733 86.8812 94.88C86.7678 94.9867 86.6145 95.04 86.4212 95.04ZM90.4531 101.07C89.9731 101.07 89.5497 100.967 89.1831 100.76C88.8231 100.553 88.5431 100.26 88.3431 99.88C88.1497 99.4933 88.0531 99.0467 88.0531 98.54C88.0531 98.0267 88.1497 97.58 88.3431 97.2C88.5431 96.8133 88.8231 96.5167 89.1831 96.31C89.5497 96.1033 89.9731 96 90.4531 96C90.9331 96 91.3531 96.1033 91.7131 96.31C92.0797 96.5167 92.3597 96.8133 92.5531 97.2C92.7531 97.58 92.8531 98.0267 92.8531 98.54C92.8531 99.0467 92.7531 99.4933 92.5531 99.88C92.3597 100.26 92.0797 100.553 91.7131 100.76C91.3531 100.967 90.9331 101.07 90.4531 101.07ZM90.4531 100.27C90.8997 100.27 91.2397 100.123 91.4731 99.83C91.7131 99.5367 91.8331 99.1067 91.8331 98.54C91.8331 97.98 91.7131 97.5533 91.4731 97.26C91.2331 96.96 90.8931 96.81 90.4531 96.81C90.0131 96.81 89.6731 96.96 89.4331 97.26C89.1931 97.5533 89.0731 97.98 89.0731 98.54C89.0731 99.1067 89.1897 99.5367 89.4231 99.83C89.6631 100.123 90.0064 100.27 90.4531 100.27ZM96.6076 96C97.7743 96 98.3576 96.6567 98.3576 97.97V100.57C98.3576 100.723 98.3109 100.843 98.2176 100.93C98.1309 101.01 98.0076 101.05 97.8476 101.05C97.6943 101.05 97.5709 101.007 97.4776 100.92C97.3909 100.833 97.3476 100.717 97.3476 100.57V98.02C97.3476 97.6067 97.2643 97.3033 97.0976 97.11C96.9376 96.9167 96.6843 96.82 96.3376 96.82C95.9309 96.82 95.6043 96.9467 95.3576 97.2C95.1109 97.4533 94.9876 97.7933 94.9876 98.22V100.57C94.9876 100.717 94.9409 100.833 94.8476 100.92C94.7609 101.007 94.6409 101.05 94.4876 101.05C94.3343 101.05 94.2109 101.007 94.1176 100.92C94.0243 100.833 93.9776 100.717 93.9776 100.57V96.5C93.9776 96.36 94.0243 96.2467 94.1176 96.16C94.2176 96.0667 94.3409 96.02 94.4876 96.02C94.6343 96.02 94.7509 96.0633 94.8376 96.15C94.9243 96.2367 94.9676 96.35 94.9676 96.49V96.9C95.1276 96.6067 95.3509 96.3833 95.6376 96.23C95.9243 96.0767 96.2476 96 96.6076 96ZM104.466 101.07C103.993 101.07 103.576 100.967 103.216 100.76C102.863 100.553 102.586 100.26 102.386 99.88C102.193 99.5 102.096 99.06 102.096 98.56C102.096 98.0533 102.196 97.6067 102.396 97.22C102.603 96.8333 102.889 96.5333 103.256 96.32C103.623 96.1067 104.043 96 104.516 96C104.769 96 105.023 96.0367 105.276 96.11C105.536 96.1833 105.766 96.2833 105.966 96.41C106.179 96.5567 106.286 96.7267 106.286 96.92C106.286 97.0333 106.256 97.13 106.196 97.21C106.136 97.2833 106.059 97.32 105.966 97.32C105.906 97.32 105.846 97.3067 105.786 97.28C105.726 97.2467 105.649 97.2 105.556 97.14C105.389 97.0333 105.233 96.9533 105.086 96.9C104.946 96.84 104.776 96.81 104.576 96.81C104.123 96.81 103.769 96.9633 103.516 97.27C103.269 97.5767 103.146 98.0033 103.146 98.55C103.146 99.0967 103.269 99.52 103.516 99.82C103.763 100.113 104.113 100.26 104.566 100.26C104.766 100.26 104.943 100.23 105.096 100.17C105.249 100.11 105.406 100.03 105.566 99.93C105.639 99.8833 105.713 99.8433 105.786 99.81C105.859 99.7767 105.926 99.76 105.986 99.76C106.079 99.76 106.156 99.8 106.216 99.88C106.276 99.9533 106.306 100.047 106.306 100.16C106.306 100.253 106.279 100.34 106.226 100.42C106.179 100.493 106.096 100.57 105.976 100.65C105.776 100.783 105.543 100.887 105.276 100.96C105.009 101.033 104.739 101.07 104.466 101.07ZM109.33 101.07C108.85 101.07 108.427 100.967 108.06 100.76C107.7 100.553 107.42 100.26 107.22 99.88C107.027 99.4933 106.93 99.0467 106.93 98.54C106.93 98.0267 107.027 97.58 107.22 97.2C107.42 96.8133 107.7 96.5167 108.06 96.31C108.427 96.1033 108.85 96 109.33 96C109.81 96 110.23 96.1033 110.59 96.31C110.957 96.5167 111.237 96.8133 111.43 97.2C111.63 97.58 111.73 98.0267 111.73 98.54C111.73 99.0467 111.63 99.4933 111.43 99.88C111.237 100.26 110.957 100.553 110.59 100.76C110.23 100.967 109.81 101.07 109.33 101.07ZM109.33 100.27C109.777 100.27 110.117 100.123 110.35 99.83C110.59 99.5367 110.71 99.1067 110.71 98.54C110.71 97.98 110.59 97.5533 110.35 97.26C110.11 96.96 109.77 96.81 109.33 96.81C108.89 96.81 108.55 96.96 108.31 97.26C108.07 97.5533 107.95 97.98 107.95 98.54C107.95 99.1067 108.067 99.5367 108.3 99.83C108.54 100.123 108.883 100.27 109.33 100.27ZM114.555 101.07C113.875 101.07 113.318 100.93 112.885 100.65C112.765 100.577 112.678 100.5 112.625 100.42C112.578 100.34 112.555 100.25 112.555 100.15C112.555 100.043 112.585 99.9533 112.645 99.88C112.705 99.8067 112.781 99.77 112.875 99.77C112.961 99.77 113.098 99.8233 113.285 99.93C113.485 100.037 113.678 100.123 113.865 100.19C114.058 100.257 114.298 100.29 114.585 100.29C114.905 100.29 115.155 100.233 115.335 100.12C115.515 100.007 115.605 99.8467 115.605 99.64C115.605 99.5067 115.568 99.4 115.495 99.32C115.428 99.24 115.308 99.17 115.135 99.11C114.961 99.0433 114.705 98.9733 114.365 98.9C113.778 98.7733 113.355 98.6033 113.095 98.39C112.841 98.17 112.715 97.8733 112.715 97.5C112.715 97.2133 112.798 96.9567 112.965 96.73C113.131 96.4967 113.361 96.3167 113.655 96.19C113.948 96.0633 114.281 96 114.655 96C114.921 96 115.181 96.0367 115.435 96.11C115.688 96.1767 115.911 96.2767 116.105 96.41C116.325 96.5567 116.435 96.7267 116.435 96.92C116.435 97.0267 116.401 97.1167 116.335 97.19C116.275 97.2633 116.201 97.3 116.115 97.3C116.055 97.3 115.995 97.2867 115.935 97.26C115.875 97.2333 115.795 97.19 115.695 97.13C115.515 97.0233 115.345 96.94 115.185 96.88C115.031 96.82 114.838 96.79 114.605 96.79C114.325 96.79 114.098 96.85 113.925 96.97C113.758 97.09 113.675 97.2533 113.675 97.46C113.675 97.6467 113.751 97.7933 113.905 97.9C114.065 98 114.361 98.0967 114.795 98.19C115.241 98.2833 115.591 98.39 115.845 98.51C116.098 98.63 116.278 98.78 116.385 98.96C116.498 99.1333 116.555 99.3567 116.555 99.63C116.555 100.063 116.371 100.413 116.005 100.68C115.645 100.94 115.161 101.07 114.555 101.07ZM120.02 100.28C120.167 100.293 120.27 100.333 120.33 100.4C120.397 100.46 120.43 100.547 120.43 100.66C120.43 100.793 120.377 100.897 120.27 100.97C120.17 101.037 120.02 101.063 119.82 101.05L119.55 101.03C119.01 100.99 118.607 100.827 118.34 100.54C118.073 100.247 117.94 99.8167 117.94 99.25V96.9H117.34C117.047 96.9 116.9 96.77 116.9 96.51C116.9 96.39 116.937 96.2967 117.01 96.23C117.09 96.1567 117.2 96.12 117.34 96.12H117.94V95.09C117.94 94.9367 117.983 94.8167 118.07 94.73C118.163 94.6433 118.287 94.6 118.44 94.6C118.593 94.6 118.717 94.6433 118.81 94.73C118.903 94.8167 118.95 94.9367 118.95 95.09V96.12H119.94C120.08 96.12 120.187 96.1567 120.26 96.23C120.34 96.2967 120.38 96.39 120.38 96.51C120.38 96.6367 120.34 96.7333 120.26 96.8C120.187 96.8667 120.08 96.9 119.94 96.9H118.95V99.32C118.95 99.6333 119.013 99.8633 119.14 100.01C119.273 100.157 119.473 100.24 119.74 100.26L120.02 100.28Z" fill="#B2B9C5"/>
<path d="M112.322 19.055C112.154 19.055 112.014 19.0037 111.904 18.901C111.802 18.791 111.75 18.6517 111.75 18.483V12.191H109.55C109.198 12.191 109.022 12.0333 109.022 11.718C109.022 11.564 109.066 11.4467 109.154 11.366C109.25 11.2853 109.382 11.245 109.55 11.245H115.094C115.263 11.245 115.391 11.2853 115.479 11.366C115.575 11.4467 115.622 11.564 115.622 11.718C115.622 12.0333 115.446 12.191 115.094 12.191H112.894V18.483C112.894 18.6517 112.843 18.791 112.74 18.901C112.638 19.0037 112.498 19.055 112.322 19.055ZM119.335 13.5C120.611 13.5 121.249 14.2223 121.249 15.667V18.527C121.249 18.6883 121.197 18.8167 121.095 18.912C120.992 19.0073 120.856 19.055 120.688 19.055C120.519 19.055 120.383 19.0073 120.281 18.912C120.185 18.8167 120.138 18.6883 120.138 18.527V15.678C120.138 15.238 120.046 14.9153 119.863 14.71C119.687 14.5047 119.408 14.402 119.027 14.402C118.579 14.402 118.22 14.5413 117.949 14.82C117.677 15.0987 117.542 15.4727 117.542 15.942V18.527C117.542 18.6883 117.49 18.8167 117.388 18.912C117.292 19.0073 117.16 19.055 116.992 19.055C116.823 19.055 116.687 19.0073 116.585 18.912C116.482 18.8167 116.431 18.6883 116.431 18.527V11.718C116.431 11.5567 116.482 11.4283 116.585 11.333C116.695 11.2377 116.834 11.19 117.003 11.19C117.164 11.19 117.292 11.2377 117.388 11.333C117.49 11.421 117.542 11.542 117.542 11.696V14.446C117.725 14.138 117.971 13.9033 118.279 13.742C118.587 13.5807 118.939 13.5 119.335 13.5ZM125.024 13.5C125.735 13.5 126.263 13.6797 126.608 14.039C126.96 14.3983 127.136 14.9447 127.136 15.678V18.527C127.136 18.6957 127.088 18.8277 126.993 18.923C126.897 19.011 126.765 19.055 126.597 19.055C126.435 19.055 126.307 19.0073 126.212 18.912C126.116 18.8167 126.069 18.6883 126.069 18.527V18.12C125.929 18.428 125.72 18.6663 125.442 18.835C125.17 18.9963 124.851 19.077 124.485 19.077C124.133 19.077 123.81 19.0073 123.517 18.868C123.223 18.7213 122.992 18.5197 122.824 18.263C122.662 18.0063 122.582 17.7203 122.582 17.405C122.582 17.0163 122.681 16.712 122.879 16.492C123.084 16.2647 123.418 16.1033 123.88 16.008C124.349 15.9127 124.991 15.865 125.805 15.865H126.058V15.546C126.058 15.1353 125.973 14.8383 125.805 14.655C125.636 14.4717 125.365 14.38 124.991 14.38C124.734 14.38 124.492 14.413 124.265 14.479C124.037 14.545 123.788 14.6403 123.517 14.765C123.319 14.875 123.179 14.93 123.099 14.93C122.989 14.93 122.897 14.8897 122.824 14.809C122.758 14.7283 122.725 14.6257 122.725 14.501C122.725 14.391 122.754 14.2957 122.813 14.215C122.879 14.127 122.981 14.0427 123.121 13.962C123.377 13.8227 123.678 13.7127 124.023 13.632C124.367 13.544 124.701 13.5 125.024 13.5ZM124.683 18.252C125.086 18.252 125.416 18.1163 125.673 17.845C125.929 17.5663 126.058 17.2107 126.058 16.778V16.492H125.86C125.288 16.492 124.848 16.5177 124.54 16.569C124.232 16.6203 124.012 16.7083 123.88 16.833C123.748 16.9503 123.682 17.1227 123.682 17.35C123.682 17.614 123.777 17.8303 123.968 17.999C124.158 18.1677 124.397 18.252 124.683 18.252ZM131.548 13.5C132.832 13.5 133.473 14.2223 133.473 15.667V18.527C133.473 18.6957 133.422 18.8277 133.319 18.923C133.224 19.011 133.088 19.055 132.912 19.055C132.744 19.055 132.608 19.0073 132.505 18.912C132.41 18.8167 132.362 18.6883 132.362 18.527V15.722C132.362 15.2673 132.271 14.9337 132.087 14.721C131.911 14.5083 131.633 14.402 131.251 14.402C130.804 14.402 130.445 14.5413 130.173 14.82C129.902 15.0987 129.766 15.4727 129.766 15.942V18.527C129.766 18.6883 129.715 18.8167 129.612 18.912C129.517 19.0073 129.385 19.055 129.216 19.055C129.048 19.055 128.912 19.0073 128.809 18.912C128.707 18.8167 128.655 18.6883 128.655 18.527V14.05C128.655 13.896 128.707 13.7713 128.809 13.676C128.919 13.5733 129.055 13.522 129.216 13.522C129.378 13.522 129.506 13.5697 129.601 13.665C129.697 13.7603 129.744 13.885 129.744 14.039V14.49C129.92 14.1673 130.166 13.9217 130.481 13.753C130.797 13.5843 131.152 13.5 131.548 13.5ZM139.503 18.131C139.635 18.241 139.701 18.3767 139.701 18.538C139.701 18.6773 139.653 18.7983 139.558 18.901C139.463 19.0037 139.349 19.055 139.217 19.055C139.078 19.055 138.953 19.0037 138.843 18.901L136.104 16.481V18.516C136.104 18.692 136.053 18.8277 135.95 18.923C135.847 19.011 135.715 19.055 135.554 19.055C135.393 19.055 135.257 19.011 135.147 18.923C135.044 18.8277 134.993 18.692 134.993 18.516V11.729C134.993 11.553 135.044 11.421 135.147 11.333C135.257 11.2377 135.393 11.19 135.554 11.19C135.715 11.19 135.847 11.2377 135.95 11.333C136.053 11.421 136.104 11.553 136.104 11.729V16.041L138.612 13.698C138.737 13.588 138.858 13.533 138.975 13.533C139.114 13.533 139.235 13.5843 139.338 13.687C139.441 13.7897 139.492 13.9107 139.492 14.05C139.492 14.1893 139.43 14.3177 139.305 14.435L137.347 16.228L139.503 18.131ZM142.46 19.077C141.712 19.077 141.099 18.923 140.623 18.615C140.491 18.5343 140.395 18.45 140.337 18.362C140.285 18.274 140.26 18.175 140.26 18.065C140.26 17.9477 140.293 17.8487 140.359 17.768C140.425 17.6873 140.509 17.647 140.612 17.647C140.707 17.647 140.857 17.7057 141.063 17.823C141.283 17.9403 141.495 18.0357 141.701 18.109C141.913 18.1823 142.177 18.219 142.493 18.219C142.845 18.219 143.12 18.1567 143.318 18.032C143.516 17.9073 143.615 17.7313 143.615 17.504C143.615 17.3573 143.574 17.24 143.494 17.152C143.42 17.064 143.288 16.987 143.098 16.921C142.907 16.8477 142.625 16.7707 142.251 16.69C141.605 16.5507 141.14 16.3637 140.854 16.129C140.575 15.887 140.436 15.5607 140.436 15.15C140.436 14.8347 140.527 14.5523 140.711 14.303C140.894 14.0463 141.147 13.8483 141.47 13.709C141.792 13.5697 142.159 13.5 142.57 13.5C142.863 13.5 143.149 13.5403 143.428 13.621C143.706 13.6943 143.952 13.8043 144.165 13.951C144.407 14.1123 144.528 14.2993 144.528 14.512C144.528 14.6293 144.491 14.7283 144.418 14.809C144.352 14.8897 144.271 14.93 144.176 14.93C144.11 14.93 144.044 14.9153 143.978 14.886C143.912 14.8567 143.824 14.809 143.714 14.743C143.516 14.6257 143.329 14.534 143.153 14.468C142.984 14.402 142.771 14.369 142.515 14.369C142.207 14.369 141.957 14.435 141.767 14.567C141.583 14.699 141.492 14.8787 141.492 15.106C141.492 15.3113 141.576 15.4727 141.745 15.59C141.921 15.7 142.247 15.8063 142.724 15.909C143.215 16.0117 143.6 16.129 143.879 16.261C144.157 16.393 144.355 16.558 144.473 16.756C144.597 16.9467 144.66 17.1923 144.66 17.493C144.66 17.9697 144.458 18.3547 144.055 18.648C143.659 18.934 143.127 19.077 142.46 19.077Z" fill="#B2B9C5"/>
<path d="M95.0005 44V29.5V17.75V1H159.5V29.5H106L95.0005 44Z" stroke="#B8C0CC" stroke-width="1.88" stroke-linecap="round" stroke-linejoin="round"/>
</svg>
