<svg width="60" height="61" viewBox="0 0 60 61" fill="none" xmlns="http://www.w3.org/2000/svg">
<path d="M7.51111 24.2141C7.77115 34.2858 12.2219 44.0574 12.2219 44.0574L7.51111 24.2141Z" fill="white"/>
<path d="M7.51111 24.2141C7.77115 34.2858 12.2219 44.0574 12.2219 44.0574" stroke="#B8C0CC" stroke-width="1.5" stroke-miterlimit="10" stroke-linecap="round"/>
<path d="M7.57037 14.3823C7.57037 14.3823 2.44952 19.0831 7.57037 24.494C7.57037 24.494 12.4412 19.8832 7.57037 14.3823Z" fill="white" stroke="#B8C0CC" stroke-width="1.5" stroke-miterlimit="10"/>
<path d="M13.7922 24.5139C13.7922 24.5139 7.04106 26.1742 8.93137 33.3854C8.93137 33.3754 15.4125 31.6751 13.7922 24.5139Z" fill="white" stroke="#B8C0CC" stroke-width="1.5" stroke-miterlimit="10"/>
<path d="M1 26.8744C1 26.8744 1.44007 33.8155 8.87131 33.2254C8.86131 33.2354 8.33122 26.5443 1 26.8744Z" fill="white" stroke="#B8C0CC" stroke-width="1.5" stroke-miterlimit="10"/>
<path d="M3.58044 36.066C3.58044 36.066 4.02052 43.0072 11.4518 42.4171C11.4518 42.4171 10.9117 35.736 3.58044 36.066Z" fill="white" stroke="#B8C0CC" stroke-width="1.5" stroke-miterlimit="10"/>
<path d="M16.5225 33.7854C16.5225 33.7854 9.77141 35.4457 11.6617 42.6569C11.6617 42.6469 18.1428 40.9466 16.5225 33.7854Z" fill="white" stroke="#B8C0CC" stroke-width="1.5" stroke-miterlimit="10"/>
<path d="M40.2966 41.4768C40.2966 41.4768 57.6395 41.2367 58.4497 46.4876C59.2698 51.7385 47.8279 59.9999 32.6654 59.9999C17.5028 59.9999 6.06092 51.7385 6.87106 46.4876C7.68119 41.2367 25.0241 41.4768 25.0241 41.4768" fill="white"/>
<path d="M40.2966 41.4768C40.2966 41.4768 57.6395 41.2367 58.4497 46.4876C59.2698 51.7385 47.8279 59.9999 32.6654 59.9999C17.5028 59.9999 6.06092 51.7385 6.87106 46.4876C7.68119 41.2367 25.0241 41.4768 25.0241 41.4768" stroke="#B8C0CC" stroke-width="1.5" stroke-miterlimit="10"/>
<path d="M21.5735 20.6533C21.5735 20.6533 15.2163 32.9578 9.16041 40.8465C8.51262 41.6903 9.36725 42.8496 10.3097 42.3561C14.4209 40.2031 20.616 36.1983 23.3838 30.535" fill="white"/>
<path d="M21.5735 20.6533C21.5735 20.6533 15.2163 32.9578 9.16041 40.8465C8.51262 41.6903 9.36725 42.8496 10.3097 42.3561C14.4209 40.2031 20.616 36.1983 23.3838 30.535" stroke="#B8C0CC" stroke-width="1.5" stroke-miterlimit="10"/>
<path d="M43.8572 20.6533C43.8572 20.6533 50.2144 32.9578 56.2702 40.8465C56.918 41.6903 56.0634 42.8496 55.121 42.3561C51.0098 40.2031 44.8146 36.1983 42.0469 30.535" fill="white"/>
<path d="M43.8572 20.6533C43.8572 20.6533 50.2144 32.9578 56.2702 40.8465C56.918 41.6903 56.0634 42.8496 55.121 42.3561C51.0098 40.2031 44.8146 36.1983 42.0469 30.535" stroke="#B8C0CC" stroke-width="1.5" stroke-miterlimit="10"/>
<path d="M32.6454 14.6824C36.736 14.6824 40.0566 11.3919 40.0566 7.34122C40.0566 3.28055 36.736 0 32.6454 0C28.5547 0 25.2341 3.29055 25.2341 7.34122C25.2341 11.3919 28.5547 14.6824 32.6454 14.6824Z" fill="#1ABC94"/>
<path d="M32.6653 16.9229C25.9442 16.9229 21.5735 20.6535 21.5735 20.6535C21.5735 20.6535 21.9035 24.2841 23.3838 30.5351C24.864 36.7762 25.0241 41.4669 25.0241 41.4669C25.0241 41.4669 28.2046 43.4173 32.6453 43.4173C37.0861 43.4173 40.2866 41.4669 40.2866 41.4669C40.2866 41.4669 40.4466 36.7862 41.9269 30.5351C43.4071 24.2941 43.7372 20.6535 43.7372 20.6535C43.7372 20.6535 39.3865 16.9229 32.6653 16.9229Z" fill="white" stroke="#B8C0CC" stroke-width="1.5" stroke-miterlimit="10"/>
<path d="M28.8347 17.343C28.8347 17.343 28.8347 19.7834 28.8347 20.6536C28.8347 21.5237 29.0948 24.3542 32.6454 24.3542C36.1959 24.3542 36.626 21.7538 36.626 20.6536C36.626 19.5534 36.626 17.363 36.626 17.363" stroke="#B8C0CC" stroke-width="1.5" stroke-miterlimit="10"/>
<path d="M17.8828 49.0681C23.6738 49.0681 26.3142 52.5487 32.7253 52.5487C39.1364 52.5487 42.0468 49.0681 47.4677 49.0681" stroke="#B8C0CC" stroke-width="1.5" stroke-miterlimit="10"/>
<path d="M36.8361 52.0488C37.9362 52.0488 43.8272 52.999 43.8272 58.4599" stroke="#B8C0CC" stroke-width="1.5" stroke-miterlimit="10"/>
</svg>
