<svg width="362" height="263" viewBox="0 0 362 263" fill="none" xmlns="http://www.w3.org/2000/svg">
<path d="M69 208.224C69 179.712 92.1233 156.598 120.636 156.598C149.138 156.598 172.252 179.703 172.252 208.205C172.252 236.706 149.147 259.812 120.646 259.812H88C77.5066 259.812 69 251.305 69 240.812V208.224Z" fill="white" stroke="#3DE0BF" stroke-width="2"/>
<ellipse cx="129.634" cy="193.513" rx="3.79288" ry="5.68722" fill="#B8C0CC"/>
<ellipse cx="156.184" cy="193.513" rx="3.79288" ry="5.68722" fill="#B8C0CC"/>
<path d="M150.495 210.574C150.495 213.715 147.948 216.262 144.806 216.262C141.664 216.262 139.117 213.715 139.117 210.574" stroke="#B8C0CC" stroke-width="2" stroke-linecap="round"/>
<path d="M264.434 231.755C264.434 231.826 264.471 231.891 264.532 231.927L288.633 246.215C288.766 246.294 288.935 246.198 288.935 246.043V216.152C288.935 216.082 288.897 216.016 288.836 215.98L264.735 201.727C264.602 201.649 264.434 201.745 264.434 201.9V231.755Z" fill="white" stroke="#B8C0CC" stroke-width="1.5"/>
<path d="M288.935 246.121C288.935 246.256 289.066 246.352 289.195 246.311L336.42 231.255C336.503 231.228 336.559 231.151 336.559 231.064V201.14C336.559 201.005 336.427 200.908 336.298 200.949L289.074 215.994C288.991 216.02 288.935 216.097 288.935 216.185V246.121Z" fill="white" stroke="#B8C0CC" stroke-width="1.5"/>
<path d="M288.857 215.993C288.906 216.022 288.966 216.029 289.02 216.011L336.134 201.002C336.298 200.95 336.323 200.727 336.175 200.639L312.135 186.411C312.086 186.382 312.027 186.375 311.972 186.392L264.859 201.414C264.694 201.466 264.669 201.688 264.818 201.776L288.857 215.993Z" fill="white" stroke="#B8C0CC" stroke-width="1.5"/>
<path d="M325.648 196.687H312.138C312.028 196.687 311.938 196.777 311.938 196.887V200.666C311.938 200.777 312.028 200.866 312.138 200.866H325.648C325.758 200.866 325.848 200.777 325.848 200.666V196.887C325.848 196.777 325.758 196.687 325.648 196.687Z" fill="white" stroke="#B8C0CC" stroke-width="1.5"/>
<path d="M311.938 200.866C311.938 202.591 315.053 203.992 318.887 203.992C322.733 203.992 325.836 202.591 325.836 200.866C325.836 199.142 322.721 197.741 318.887 197.741C315.053 197.753 311.938 199.154 311.938 200.866Z" fill="white" stroke="#B8C0CC" stroke-width="1.5"/>
<path d="M311.938 196.687C311.938 198.412 315.053 199.813 318.887 199.813C322.733 199.813 325.836 198.412 325.836 196.687C325.836 194.963 322.721 193.562 318.887 193.562C315.053 193.574 311.938 194.963 311.938 196.687Z" fill="white" stroke="#B8C0CC" stroke-width="1.5"/>
<path d="M313.14 188.868H299.63C299.519 188.868 299.43 188.957 299.43 189.068V192.847C299.43 192.957 299.519 193.047 299.63 193.047H313.14C313.25 193.047 313.34 192.957 313.34 192.847V189.068C313.34 188.957 313.25 188.868 313.14 188.868Z" fill="white" stroke="#B8C0CC" stroke-width="1.5"/>
<path d="M299.43 193.047C299.43 194.771 302.545 196.172 306.379 196.172C310.225 196.172 313.328 194.771 313.328 193.047C313.328 191.323 310.213 189.922 306.379 189.922C302.545 189.933 299.43 191.335 299.43 193.047Z" fill="white" stroke="#B8C0CC" stroke-width="1.5"/>
<path d="M299.43 188.868C299.43 190.592 302.545 191.993 306.379 191.993C310.225 191.993 313.328 190.592 313.328 188.868C313.328 187.143 310.213 185.742 306.379 185.742C302.545 185.754 299.43 187.155 299.43 188.868Z" fill="white" stroke="#B8C0CC" stroke-width="1.5"/>
<path d="M300.236 204.998H286.726C286.616 204.998 286.526 205.087 286.526 205.198V208.977C286.526 209.087 286.616 209.177 286.726 209.177H300.236C300.347 209.177 300.436 209.087 300.436 208.977V205.198C300.436 205.087 300.347 204.998 300.236 204.998Z" fill="white" stroke="#B8C0CC" stroke-width="1.5"/>
<path d="M286.526 209.177C286.526 210.901 289.641 212.302 293.475 212.302C297.321 212.302 300.424 210.901 300.424 209.177C300.424 207.452 297.309 206.051 293.475 206.051C289.629 206.063 286.526 207.452 286.526 209.177Z" fill="white" stroke="#B8C0CC" stroke-width="1.5"/>
<path d="M286.526 204.998C286.526 206.722 289.641 208.123 293.475 208.123C297.321 208.123 300.424 206.722 300.424 204.998C300.424 203.273 297.309 201.872 293.475 201.872C289.629 201.884 286.526 203.273 286.526 204.998Z" fill="white" stroke="#B8C0CC" stroke-width="1.5"/>
<path d="M288.183 197.717H274.674C274.563 197.717 274.474 197.807 274.474 197.917V201.696C274.474 201.807 274.563 201.896 274.674 201.896H288.183C288.294 201.896 288.383 201.807 288.383 201.696V197.917C288.383 197.807 288.294 197.717 288.183 197.717Z" fill="white" stroke="#B8C0CC" stroke-width="1.5"/>
<path d="M274.474 201.908C274.474 203.633 277.589 205.034 281.423 205.034C285.268 205.034 288.371 203.633 288.371 201.908C288.371 200.184 285.256 198.783 281.423 198.783C277.577 198.783 274.474 200.184 274.474 201.908Z" fill="white" stroke="#B8C0CC" stroke-width="1.5"/>
<path d="M274.474 197.717C274.474 199.441 277.589 200.842 281.423 200.842C285.268 200.842 288.371 199.441 288.371 197.717C288.371 195.993 285.256 194.592 281.423 194.592C277.577 194.604 274.474 196.005 274.474 197.717Z" fill="white" stroke="#B8C0CC" stroke-width="1.5"/>
<path d="M216.869 246.987C216.869 247.058 216.906 247.123 216.967 247.159L241.068 261.447C241.202 261.526 241.37 261.43 241.37 261.275V231.385C241.37 231.314 241.333 231.248 241.272 231.212L217.171 216.959C217.038 216.881 216.869 216.977 216.869 217.132V246.987Z" fill="white" stroke="#B8C0CC" stroke-width="1.5"/>
<path d="M241.37 261.353C241.37 261.488 241.502 261.584 241.631 261.543L288.855 246.487C288.938 246.46 288.994 246.383 288.994 246.296V216.36C288.994 216.225 288.863 216.128 288.734 216.169L241.509 231.226C241.426 231.252 241.37 231.329 241.37 231.416V261.353Z" fill="white" stroke="#B8C0CC" stroke-width="1.5"/>
<path d="M241.293 231.225C241.342 231.254 241.401 231.26 241.456 231.243L288.569 216.222C288.734 216.169 288.759 215.947 288.61 215.859L264.571 201.642C264.522 201.613 264.462 201.607 264.408 201.624L217.294 216.645C217.13 216.698 217.105 216.92 217.253 217.008L241.293 231.225Z" fill="white" stroke="#B8C0CC" stroke-width="1.5"/>
<path d="M265.124 212.669H277.534V216.11C277.534 216.295 277.452 216.528 277.192 216.804C276.928 217.083 276.511 217.368 275.939 217.625C274.796 218.137 273.165 218.474 271.323 218.474C269.487 218.474 267.859 218.137 266.717 217.625C266.146 217.368 265.729 217.083 265.465 216.804C265.205 216.528 265.124 216.295 265.124 216.11V212.669Z" fill="white" stroke="#B8C0CC" stroke-width="1.5"/>
<path d="M271.323 214.295C269.487 214.295 267.859 213.958 266.718 213.444C265.506 212.899 265.124 212.302 265.124 211.919C265.124 211.73 265.206 211.495 265.466 211.22C265.729 210.94 266.146 210.655 266.717 210.399C267.859 209.887 269.487 209.55 271.324 209.544C273.159 209.544 274.787 209.881 275.927 210.394C277.139 210.939 277.522 211.537 277.522 211.919C277.522 212.303 277.14 212.9 275.931 213.445C274.792 213.957 273.165 214.295 271.323 214.295Z" fill="white" stroke="#B8C0CC" stroke-width="1.5"/>
<path d="M252.616 204.862H265.025V208.291C265.025 208.672 264.645 209.267 263.431 209.809C262.289 210.32 260.657 210.654 258.814 210.654C256.978 210.654 255.35 210.32 254.209 209.81C252.996 209.267 252.616 208.672 252.616 208.291V204.862Z" fill="white" stroke="#B8C0CC" stroke-width="1.5"/>
<path d="M258.814 206.475C256.979 206.475 255.351 206.138 254.21 205.625C252.998 205.08 252.616 204.482 252.616 204.1C252.616 203.91 252.698 203.675 252.958 203.4C253.221 203.121 253.638 202.835 254.209 202.579C255.35 202.067 256.979 201.73 258.816 201.724C260.651 201.724 262.278 202.061 263.419 202.574C264.631 203.119 265.013 203.717 265.013 204.1C265.013 204.483 264.632 205.081 263.423 205.625C262.284 206.138 260.657 206.475 258.814 206.475Z" fill="white" stroke="#B8C0CC" stroke-width="1.5"/>
<path d="M239.7 220.979H252.11V224.409C252.11 224.791 251.727 225.389 250.516 225.934C249.375 226.447 247.747 226.784 245.911 226.784C244.069 226.784 242.438 226.447 241.296 225.934C240.082 225.389 239.7 224.791 239.7 224.409V220.979Z" fill="white" stroke="#B8C0CC" stroke-width="1.5"/>
<path d="M245.899 222.605C244.063 222.605 242.435 222.268 241.294 221.755C240.082 221.21 239.7 220.612 239.7 220.229C239.7 219.847 240.082 219.249 241.294 218.704C242.435 218.191 244.063 217.854 245.899 217.854C247.735 217.854 249.363 218.191 250.504 218.704C251.716 219.249 252.098 219.847 252.098 220.229C252.098 220.613 251.717 221.21 250.508 221.755C249.369 222.268 247.741 222.605 245.899 222.605Z" fill="white" stroke="#B8C0CC" stroke-width="1.5"/>
<path d="M227.647 213.711H240.057V217.14C240.057 217.521 239.676 218.116 238.464 218.659C237.323 219.169 235.695 219.503 233.858 219.503C232.015 219.503 230.384 219.169 229.241 218.659C228.028 218.116 227.647 217.521 227.647 217.14V213.711Z" fill="white" stroke="#B8C0CC" stroke-width="1.5"/>
<path d="M233.846 215.324C232.01 215.324 230.382 214.987 229.242 214.474C228.03 213.929 227.647 213.331 227.647 212.949C227.647 212.76 227.73 212.525 227.989 212.25C228.253 211.97 228.669 211.685 229.241 211.428C230.382 210.916 232.01 210.579 233.847 210.573C235.683 210.574 237.31 210.911 238.451 211.424C239.663 211.969 240.045 212.566 240.045 212.949C240.045 213.333 239.664 213.93 238.455 214.474C237.316 214.987 235.688 215.324 233.846 215.324Z" fill="white" stroke="#B8C0CC" stroke-width="1.5"/>
<path d="M234.947 224.226C234.947 224.297 234.91 224.362 234.849 224.398L210.748 238.687C210.615 238.766 210.446 238.67 210.446 238.515V208.624C210.446 208.553 210.484 208.488 210.545 208.452L234.646 194.199C234.779 194.12 234.947 194.216 234.947 194.371V224.226Z" fill="white" stroke="#53A1FF" stroke-width="1.5"/>
<path d="M210.446 238.592C210.446 238.727 210.315 238.824 210.186 238.783L162.961 223.726C162.878 223.7 162.822 223.623 162.822 223.536V193.599C162.822 193.464 162.954 193.368 163.083 193.409L210.307 208.465C210.39 208.492 210.446 208.569 210.446 208.656V238.592Z" fill="white" stroke="#53A1FF" stroke-width="1.5"/>
<path d="M210.523 208.464C210.474 208.493 210.415 208.5 210.361 208.483L163.247 193.461C163.083 193.409 163.057 193.187 163.206 193.099L187.246 178.882C187.295 178.853 187.354 178.846 187.408 178.864L234.522 193.885C234.687 193.937 234.712 194.16 234.563 194.248L210.523 208.464Z" fill="white" stroke="#53A1FF" stroke-width="1.5"/>
<path d="M186.693 189.908H174.283V193.35C174.283 193.535 174.364 193.768 174.625 194.043C174.889 194.322 175.306 194.608 175.878 194.864C177.021 195.376 178.652 195.713 180.494 195.713C182.33 195.713 183.958 195.376 185.099 194.864C185.671 194.608 186.087 194.322 186.351 194.043C186.612 193.768 186.693 193.535 186.693 193.35V189.908Z" fill="white" stroke="#53A1FF" stroke-width="1.5"/>
<path d="M180.494 191.534C182.33 191.534 183.958 191.197 185.098 190.684C186.31 190.139 186.693 189.541 186.693 189.159C186.693 188.969 186.611 188.734 186.351 188.459C186.087 188.18 185.671 187.894 185.099 187.638C183.958 187.126 182.33 186.789 180.493 186.783C178.657 186.783 177.03 187.12 175.889 187.633C174.677 188.178 174.295 188.776 174.295 189.159C174.295 189.542 174.676 190.14 175.885 190.684C177.024 191.197 178.652 191.534 180.494 191.534Z" fill="white" stroke="#53A1FF" stroke-width="1.5"/>
<path d="M199.201 182.101H186.791V185.53C186.791 185.911 187.172 186.507 188.385 187.049C189.528 187.559 191.159 187.894 193.002 187.894C194.839 187.894 196.467 187.559 197.608 187.049C198.82 186.507 199.201 185.912 199.201 185.53V182.101Z" fill="white" stroke="#53A1FF" stroke-width="1.5"/>
<path d="M193.002 183.714C194.838 183.714 196.466 183.377 197.607 182.864C198.819 182.319 199.201 181.722 199.201 181.339C199.201 181.15 199.119 180.915 198.859 180.64C198.595 180.36 198.179 180.075 197.607 179.818C196.466 179.307 194.838 178.97 193.001 178.964C191.166 178.964 189.538 179.301 188.397 179.814C187.186 180.359 186.803 180.956 186.803 181.339C186.803 181.723 187.184 182.32 188.393 182.865C189.532 183.377 191.16 183.714 193.002 183.714Z" fill="white" stroke="#53A1FF" stroke-width="1.5"/>
<path d="M212.116 198.219H199.707V201.648C199.707 202.031 200.089 202.628 201.301 203.174C202.442 203.687 204.07 204.024 205.906 204.024C207.748 204.024 209.379 203.687 210.521 203.173C211.734 202.628 212.116 202.031 212.116 201.648V198.219Z" fill="white" stroke="#53A1FF" stroke-width="1.5"/>
<path d="M205.918 199.844C207.753 199.844 209.381 199.507 210.522 198.994C211.734 198.449 212.116 197.851 212.116 197.469C212.116 197.086 211.734 196.489 210.522 195.944C209.381 195.43 207.753 195.094 205.918 195.094C204.082 195.094 202.454 195.43 201.313 195.944C200.101 196.489 199.719 197.086 199.719 197.469C199.719 197.853 200.1 198.45 201.309 198.994C202.448 199.507 204.075 199.844 205.918 199.844Z" fill="white" stroke="#53A1FF" stroke-width="1.5"/>
<path d="M224.169 190.95H211.759V194.38C211.759 194.761 212.14 195.356 213.352 195.898C214.493 196.409 216.122 196.743 217.958 196.743C219.801 196.743 221.433 196.409 222.575 195.898C223.789 195.356 224.169 194.761 224.169 194.38V190.95Z" fill="white" stroke="#53A1FF" stroke-width="1.5"/>
<path d="M217.97 192.564C219.806 192.564 221.434 192.227 222.575 191.714C223.787 191.169 224.169 190.571 224.169 190.188C224.169 189.999 224.087 189.764 223.827 189.489C223.564 189.21 223.147 188.924 222.576 188.668C221.434 188.156 219.806 187.819 217.969 187.813C216.134 187.813 214.506 188.15 213.366 188.663C212.154 189.208 211.771 189.806 211.771 190.188C211.771 190.572 212.153 191.169 213.362 191.714C214.501 192.227 216.128 192.564 217.97 192.564Z" fill="white" stroke="#53A1FF" stroke-width="1.5"/>
<ellipse cx="176.097" cy="220.053" rx="4.7411" ry="4.73935" fill="#3DE0BF"/>
<path d="M110.67 217.21C110.67 217.21 122.049 235.219 142.909 235.219C163.77 235.219 175.623 220.053 175.623 220.053" stroke="#3DE0BF" stroke-width="2" stroke-linecap="round"/>
<path d="M264.398 201.435C264.398 201.506 264.435 201.571 264.496 201.607L288.597 215.884C288.73 215.963 288.899 215.866 288.899 215.712V185.833C288.899 185.762 288.861 185.696 288.8 185.66L264.699 171.407C264.566 171.329 264.398 171.425 264.398 171.58V201.435Z" fill="white" stroke="#3DE0BF" stroke-width="1.5"/>
<path d="M288.899 215.789C288.899 215.924 289.03 216.02 289.159 215.979L336.384 200.935C336.467 200.908 336.523 200.831 336.523 200.744V170.808C336.523 170.672 336.391 170.576 336.262 170.617L289.038 185.674C288.955 185.7 288.899 185.777 288.899 185.864V215.789Z" fill="white" stroke="#3DE0BF" stroke-width="1.5"/>
<path d="M288.821 185.673C288.871 185.702 288.93 185.708 288.984 185.691L336.098 170.67C336.262 170.617 336.287 170.395 336.139 170.307L312.099 156.09C312.05 156.061 311.991 156.055 311.936 156.072L264.823 171.093C264.658 171.146 264.633 171.368 264.782 171.456L288.821 185.673Z" fill="white" stroke="#3DE0BF" stroke-width="1.5"/>
<path d="M312.652 169.796V167.117H325.062V169.796H312.652Z" fill="white" stroke="#3DE0BF" stroke-width="1.5"/>
<path d="M318.851 172.922C317.015 172.922 315.387 172.585 314.246 172.072C313.035 171.526 312.652 170.929 312.652 170.546C312.652 170.164 313.035 169.566 314.246 169.021C315.387 168.508 317.015 168.171 318.851 168.171C320.687 168.171 322.315 168.508 323.456 169.021C324.668 169.566 325.05 170.164 325.05 170.546C325.05 170.929 324.668 171.526 323.456 172.072C322.315 172.585 320.687 172.922 318.851 172.922Z" fill="white" stroke="#3DE0BF" stroke-width="1.5"/>
<path d="M318.851 168.743C317.015 168.743 315.387 168.406 314.246 167.893C313.035 167.347 312.652 166.75 312.652 166.367C312.652 165.985 313.035 165.387 314.246 164.842C315.387 164.329 317.015 163.992 318.851 163.992C320.687 163.992 322.315 164.329 323.456 164.842C324.668 165.387 325.05 165.985 325.05 166.367C325.05 166.75 324.668 167.347 323.456 167.893C322.315 168.406 320.687 168.743 318.851 168.743Z" fill="white" stroke="#3DE0BF" stroke-width="1.5"/>
<path d="M300.144 161.977V159.297H312.554V161.977H300.144Z" fill="white" stroke="#3DE0BF" stroke-width="1.5"/>
<path d="M306.343 165.102C304.507 165.102 302.879 164.765 301.738 164.252C300.526 163.707 300.144 163.109 300.144 162.727C300.144 162.343 300.525 161.746 301.734 161.201C302.873 160.688 304.501 160.351 306.343 160.351C308.179 160.351 309.807 160.688 310.947 161.201C312.159 161.746 312.542 162.344 312.542 162.727C312.542 163.11 312.161 163.708 310.952 164.252C309.813 164.765 308.185 165.102 306.343 165.102Z" fill="white" stroke="#3DE0BF" stroke-width="1.5"/>
<path d="M306.343 160.923C304.507 160.923 302.879 160.586 301.738 160.073C300.526 159.528 300.144 158.93 300.144 158.548C300.144 158.164 300.525 157.566 301.734 157.022C302.873 156.509 304.501 156.172 306.343 156.172C308.179 156.172 309.807 156.509 310.947 157.022C312.159 157.567 312.542 158.165 312.542 158.548C312.542 158.931 312.161 159.529 310.952 160.073C309.813 160.586 308.185 160.923 306.343 160.923Z" fill="white" stroke="#3DE0BF" stroke-width="1.5"/>
<path d="M287.228 175.427H299.638V178.857C299.638 179.239 299.256 179.837 298.044 180.382C296.903 180.895 295.275 181.232 293.439 181.232C291.597 181.232 289.966 180.895 288.824 180.382C287.611 179.837 287.228 179.239 287.228 178.857V175.427Z" fill="white" stroke="#3DE0BF" stroke-width="1.5"/>
<path d="M293.427 177.053C291.592 177.053 289.964 176.716 288.823 176.203C287.611 175.658 287.228 175.06 287.228 174.678C287.228 174.295 287.611 173.697 288.823 173.152C289.964 172.639 291.592 172.302 293.427 172.302C295.263 172.302 296.891 172.639 298.032 173.152C299.244 173.697 299.626 174.295 299.626 174.678C299.626 175.061 299.245 175.659 298.036 176.203C296.897 176.716 295.27 177.053 293.427 177.053Z" fill="white" stroke="#3DE0BF" stroke-width="1.5"/>
<path d="M275.176 168.147H287.586V171.576C287.586 171.959 287.203 172.556 285.991 173.101C284.85 173.614 283.222 173.951 281.387 173.951C279.544 173.951 277.914 173.614 276.771 173.101C275.558 172.556 275.176 171.958 275.176 171.576V168.147Z" fill="white" stroke="#3DE0BF" stroke-width="1.5"/>
<path d="M281.375 169.772C279.539 169.772 277.911 169.435 276.77 168.922C275.558 168.377 275.176 167.779 275.176 167.397C275.176 167.014 275.558 166.417 276.77 165.871C277.911 165.358 279.539 165.021 281.375 165.021C283.21 165.021 284.838 165.358 285.979 165.871C287.191 166.417 287.574 167.014 287.574 167.397C287.574 167.78 287.192 168.378 285.983 168.922C284.844 169.435 283.217 169.772 281.375 169.772Z" fill="white" stroke="#3DE0BF" stroke-width="1.5"/>
<path d="M288.875 163.008C288.875 163.079 288.912 163.144 288.973 163.18L313.074 177.456C313.207 177.535 313.376 177.439 313.376 177.284V147.405C313.376 147.335 313.338 147.269 313.278 147.233L289.176 132.98C289.043 132.902 288.875 132.998 288.875 133.153V163.008Z" fill="white" stroke="#B8C0CC" stroke-width="1.5"/>
<path d="M313.376 177.362C313.376 177.497 313.507 177.593 313.636 177.552L360.861 162.508C360.944 162.481 361 162.404 361 162.317V132.381C361 132.246 360.868 132.149 360.739 132.19L313.515 147.247C313.432 147.273 313.376 147.35 313.376 147.437V177.362Z" fill="white" stroke="#B8C0CC" stroke-width="1.5"/>
<path d="M313.299 147.246C313.348 147.275 313.407 147.281 313.461 147.264L360.575 132.243C360.739 132.19 360.765 131.968 360.616 131.88L336.576 117.664C336.527 117.635 336.468 117.628 336.414 117.645L289.3 132.666C289.135 132.719 289.11 132.941 289.259 133.029L313.299 147.246Z" fill="white" stroke="#B8C0CC" stroke-width="1.5"/>
<path d="M337.129 128.69H349.539V132.119C349.539 132.502 349.157 133.1 347.945 133.645C346.804 134.158 345.176 134.495 343.34 134.495C341.498 134.495 339.867 134.158 338.725 133.645C337.511 133.099 337.129 132.502 337.129 132.119V128.69Z" fill="white" stroke="#B8C0CC" stroke-width="1.5"/>
<path d="M343.328 130.316C341.492 130.316 339.864 129.979 338.724 129.466C337.512 128.92 337.129 128.323 337.129 127.94C337.129 127.558 337.512 126.96 338.724 126.415C339.864 125.902 341.492 125.565 343.328 125.565C345.164 125.565 346.792 125.902 347.933 126.415C349.145 126.96 349.527 127.558 349.527 127.94C349.527 128.324 349.146 128.921 347.937 129.466C346.798 129.979 345.17 130.316 343.328 130.316Z" fill="white" stroke="#B8C0CC" stroke-width="1.5"/>
<path d="M324.621 120.871H337.031V124.3C337.031 124.682 336.649 125.28 335.435 125.825C334.293 126.338 332.662 126.675 330.82 126.675C328.984 126.675 327.356 126.338 326.215 125.825C325.003 125.28 324.621 124.682 324.621 124.3V120.871Z" fill="white" stroke="#B8C0CC" stroke-width="1.5"/>
<path d="M330.82 122.496C328.984 122.496 327.356 122.159 326.215 121.646C325.003 121.101 324.621 120.503 324.621 120.121C324.621 119.738 325.003 119.14 326.215 118.595C327.356 118.082 328.984 117.745 330.82 117.745C332.656 117.745 334.284 118.082 335.425 118.595C336.637 119.14 337.019 119.738 337.019 120.121C337.019 120.504 336.638 121.102 335.429 121.646C334.29 122.159 332.662 122.496 330.82 122.496Z" fill="white" stroke="#B8C0CC" stroke-width="1.5"/>
<path d="M311.718 139.68V137H324.127V139.68H311.718Z" fill="white" stroke="#B8C0CC" stroke-width="1.5"/>
<path d="M317.916 142.805C316.081 142.805 314.453 142.468 313.312 141.955C312.1 141.41 311.718 140.812 311.718 140.43C311.718 140.047 312.1 139.449 313.312 138.904C314.453 138.391 316.081 138.054 317.916 138.054C319.752 138.054 321.38 138.391 322.521 138.904C323.733 139.449 324.115 140.047 324.115 140.43C324.115 140.813 323.734 141.411 322.525 141.955C321.386 142.468 319.759 142.805 317.916 142.805Z" fill="white" stroke="#B8C0CC" stroke-width="1.5"/>
<path d="M317.916 138.626C316.081 138.626 314.453 138.289 313.312 137.776C312.1 137.231 311.718 136.633 311.718 136.251C311.718 135.868 312.1 135.27 313.312 134.725C314.453 134.212 316.081 133.875 317.916 133.875C319.752 133.875 321.38 134.212 322.521 134.725C323.733 135.27 324.115 135.868 324.115 136.251C324.115 136.634 323.734 137.232 322.525 137.776C321.386 138.289 319.759 138.626 317.916 138.626Z" fill="white" stroke="#B8C0CC" stroke-width="1.5"/>
<path d="M299.665 132.399V129.72H312.075V132.399H299.665Z" fill="white" stroke="#B8C0CC" stroke-width="1.5"/>
<path d="M305.864 135.525C304.028 135.525 302.4 135.188 301.259 134.675C300.047 134.129 299.665 133.532 299.665 133.149C299.665 132.767 300.047 132.169 301.259 131.624C302.4 131.111 304.028 130.774 305.864 130.774C307.699 130.774 309.327 131.111 310.468 131.624C311.68 132.169 312.063 132.767 312.063 133.149C312.063 133.533 311.681 134.13 310.472 134.675C309.333 135.188 307.706 135.525 305.864 135.525Z" fill="white" stroke="#B8C0CC" stroke-width="1.5"/>
<path d="M305.864 131.345C304.028 131.345 302.4 131.008 301.259 130.495C300.047 129.95 299.665 129.353 299.665 128.97C299.665 128.587 300.047 127.99 301.259 127.445C302.4 126.932 304.028 126.595 305.864 126.595C307.699 126.595 309.327 126.932 310.468 127.445C311.68 127.99 312.063 128.587 312.063 128.97C312.063 129.354 311.681 129.951 310.472 130.495C309.333 131.008 307.706 131.345 305.864 131.345Z" fill="white" stroke="#B8C0CC" stroke-width="1.5"/>
<path d="M264.254 140.507C264.254 140.578 264.291 140.644 264.352 140.68L288.453 154.956C288.586 155.035 288.755 154.939 288.755 154.784V124.905C288.755 124.834 288.718 124.769 288.657 124.733L264.556 110.48C264.422 110.401 264.254 110.497 264.254 110.652V140.507Z" fill="white" stroke="#B8C0CC" stroke-width="1.5"/>
<path d="M288.755 154.861C288.755 154.997 288.887 155.093 289.016 155.052L336.24 140.007C336.323 139.981 336.379 139.904 336.379 139.817V109.88C336.379 109.745 336.247 109.649 336.118 109.69L288.894 124.746C288.811 124.773 288.755 124.85 288.755 124.937V154.861Z" fill="white" stroke="#B8C0CC" stroke-width="1.5"/>
<path d="M288.678 124.745C288.727 124.774 288.786 124.781 288.84 124.763L335.954 109.742C336.119 109.69 336.144 109.467 335.995 109.379L311.955 95.1628C311.906 95.1338 311.847 95.1271 311.793 95.1444L264.679 110.166C264.514 110.218 264.489 110.44 264.638 110.528L288.678 124.745Z" fill="white" stroke="#B8C0CC" stroke-width="1.5"/>
<path d="M312.508 106.19H324.918V109.619C324.918 110.001 324.536 110.599 323.324 111.144C322.183 111.657 320.555 111.994 318.719 111.994C316.877 111.994 315.246 111.657 314.104 111.144C312.89 110.599 312.508 110.001 312.508 109.619V106.19Z" fill="white" stroke="#B8C0CC" stroke-width="1.5"/>
<path d="M318.707 107.815C316.871 107.815 315.244 107.478 314.103 106.965C312.891 106.42 312.508 105.822 312.508 105.44C312.508 105.057 312.891 104.459 314.103 103.914C315.244 103.401 316.871 103.064 318.707 103.064C320.543 103.064 322.171 103.401 323.312 103.914C324.524 104.459 324.906 105.057 324.906 105.44C324.906 105.823 324.525 106.421 323.316 106.965C322.177 107.478 320.549 107.815 318.707 107.815Z" fill="white" stroke="#B8C0CC" stroke-width="1.5"/>
<path d="M300 98.37H312.41V101.799C312.41 102.182 312.028 102.779 310.814 103.324C309.672 103.838 308.041 104.175 306.199 104.175C304.363 104.175 302.735 103.838 301.595 103.325C300.383 102.779 300 102.182 300 101.799V98.37Z" fill="white" stroke="#B8C0CC" stroke-width="1.5"/>
<path d="M306.199 99.9954C304.363 99.9954 302.735 99.6585 301.595 99.1454C300.383 98.6003 300 98.0026 300 97.62C300 97.2375 300.383 96.6398 301.595 96.0947C302.735 95.5816 304.363 95.2446 306.199 95.2446C308.035 95.2446 309.663 95.5816 310.804 96.0947C312.016 96.6398 312.398 97.2375 312.398 97.62C312.398 98.0026 312.016 98.6003 310.804 99.1454C309.663 99.6585 308.035 99.9954 306.199 99.9954Z" fill="white" stroke="#B8C0CC" stroke-width="1.5"/>
<path d="M287.085 117.179V114.5H299.495V117.179H287.085Z" fill="white" stroke="#B8C0CC" stroke-width="1.5"/>
<path d="M293.284 120.305C291.448 120.305 289.82 119.968 288.679 119.454C287.467 118.909 287.085 118.312 287.085 117.929C287.085 117.547 287.467 116.949 288.679 116.404C289.82 115.891 291.448 115.554 293.284 115.554C295.12 115.554 296.747 115.891 297.888 116.404C299.1 116.949 299.483 117.547 299.483 117.929C299.483 118.313 299.101 118.91 297.892 119.455C296.753 119.967 295.126 120.305 293.284 120.305Z" fill="white" stroke="#B8C0CC" stroke-width="1.5"/>
<path d="M293.284 116.125C291.448 116.125 289.82 115.789 288.679 115.275C287.467 114.73 287.085 114.133 287.085 113.75C287.085 113.367 287.467 112.77 288.679 112.225C289.82 111.712 291.448 111.375 293.284 111.375C295.12 111.375 296.747 111.712 297.888 112.225C299.1 112.77 299.483 113.367 299.483 113.75C299.483 114.134 299.101 114.731 297.892 115.276C296.753 115.788 295.126 116.125 293.284 116.125Z" fill="white" stroke="#B8C0CC" stroke-width="1.5"/>
<path d="M275.032 109.899V107.219H287.442V109.899H275.032Z" fill="white" stroke="#B8C0CC" stroke-width="1.5"/>
<path d="M281.231 113.024C279.395 113.024 277.767 112.687 276.626 112.174C275.414 111.629 275.032 111.031 275.032 110.648C275.032 110.266 275.414 109.668 276.626 109.123C277.767 108.61 279.395 108.273 281.231 108.273C283.067 108.273 284.695 108.61 285.835 109.123C287.047 109.668 287.43 110.266 287.43 110.648C287.43 111.032 287.049 111.63 285.84 112.174C284.701 112.687 283.073 113.024 281.231 113.024Z" fill="white" stroke="#B8C0CC" stroke-width="1.5"/>
<path d="M281.231 108.845C279.395 108.845 277.767 108.508 276.626 107.995C275.414 107.45 275.032 106.852 275.032 106.469C275.032 106.087 275.414 105.489 276.626 104.944C277.767 104.431 279.395 104.094 281.231 104.094C283.067 104.094 284.695 104.431 285.835 104.944C287.047 105.489 287.43 106.087 287.43 106.469C287.43 106.853 287.049 107.45 285.84 107.995C284.701 108.508 283.073 108.845 281.231 108.845Z" fill="white" stroke="#B8C0CC" stroke-width="1.5"/>
<path d="M216.749 155.728C216.749 155.798 216.787 155.864 216.847 155.9L240.948 170.176C241.082 170.255 241.25 170.159 241.25 170.004V140.125C241.25 140.054 241.213 139.989 241.152 139.953L217.051 125.7C216.918 125.621 216.749 125.717 216.749 125.872V155.728Z" fill="white" stroke="#B8C0CC" stroke-width="1.5"/>
<path d="M241.25 170.081C241.25 170.217 241.382 170.313 241.511 170.272L288.735 155.227C288.818 155.201 288.875 155.124 288.875 155.037V125.1C288.875 124.965 288.743 124.869 288.614 124.91L241.39 139.966C241.307 139.993 241.25 140.07 241.25 140.157V170.081Z" fill="white" stroke="#B8C0CC" stroke-width="1.5"/>
<path d="M241.173 139.965C241.222 139.994 241.281 140.001 241.336 139.983L288.449 124.962C288.614 124.91 288.639 124.687 288.491 124.6L264.451 110.383C264.402 110.354 264.343 110.347 264.288 110.365L217.174 125.386C217.01 125.438 216.985 125.66 217.133 125.748L241.173 139.965Z" fill="white" stroke="#B8C0CC" stroke-width="1.5"/>
<path d="M265.004 124.089V121.41H277.414V124.089H265.004Z" fill="white" stroke="#B8C0CC" stroke-width="1.5"/>
<path d="M271.203 127.214C269.367 127.214 267.739 126.877 266.598 126.364C265.386 125.819 265.004 125.221 265.004 124.839C265.004 124.456 265.386 123.859 266.598 123.313C267.739 122.8 269.367 122.463 271.203 122.463C273.039 122.463 274.666 122.8 275.807 123.313C277.019 123.859 277.402 124.456 277.402 124.839C277.402 125.222 277.021 125.82 275.812 126.364C274.673 126.877 273.045 127.214 271.203 127.214Z" fill="white" stroke="#B8C0CC" stroke-width="1.5"/>
<path d="M271.203 123.035C269.367 123.035 267.739 122.698 266.598 122.185C265.386 121.64 265.004 121.042 265.004 120.66C265.004 120.277 265.386 119.679 266.598 119.134C267.739 118.621 269.367 118.284 271.203 118.284C273.039 118.284 274.666 118.621 275.807 119.134C277.019 119.679 277.402 120.277 277.402 120.66C277.402 121.043 277.021 121.641 275.812 122.185C274.673 122.698 273.045 123.035 271.203 123.035Z" fill="white" stroke="#B8C0CC" stroke-width="1.5"/>
<path d="M252.496 116.269V113.59H264.906V116.269H252.496Z" fill="white" stroke="#B8C0CC" stroke-width="1.5"/>
<path d="M258.695 119.395C256.859 119.395 255.231 119.058 254.09 118.545C252.878 117.999 252.496 117.402 252.496 117.019C252.496 116.637 252.878 116.039 254.09 115.494C255.231 114.981 256.859 114.644 258.695 114.644C260.53 114.644 262.158 114.981 263.299 115.494C264.511 116.039 264.894 116.637 264.894 117.019C264.894 117.403 264.512 118 263.303 118.545C262.164 119.058 260.537 119.395 258.695 119.395Z" fill="white" stroke="#B8C0CC" stroke-width="1.5"/>
<path d="M258.695 115.215C256.859 115.215 255.231 114.878 254.09 114.365C252.878 113.82 252.496 113.223 252.496 112.84C252.496 112.457 252.878 111.86 254.09 111.315C255.231 110.802 256.859 110.465 258.695 110.465C260.53 110.465 262.158 110.802 263.299 111.315C264.511 111.86 264.894 112.457 264.894 112.84C264.894 113.224 264.512 113.821 263.303 114.365C262.164 114.878 260.537 115.215 258.695 115.215Z" fill="white" stroke="#B8C0CC" stroke-width="1.5"/>
<path d="M239.58 129.72H251.99V133.149C251.99 133.531 251.609 134.126 250.397 134.668C249.256 135.178 247.628 135.513 245.791 135.513C243.948 135.513 242.317 135.178 241.174 134.668C239.961 134.125 239.58 133.53 239.58 133.149V129.72Z" fill="white" stroke="#B8C0CC" stroke-width="1.5"/>
<path d="M245.779 131.345C243.943 131.345 242.315 131.008 241.175 130.495C239.963 129.95 239.58 129.353 239.58 128.97C239.58 128.587 239.963 127.99 241.175 127.445C242.315 126.932 243.943 126.595 245.779 126.595C247.615 126.595 249.243 126.932 250.384 127.445C251.596 127.99 251.978 128.587 251.978 128.97C251.978 129.354 251.597 129.951 250.388 130.495C249.249 131.008 247.621 131.345 245.779 131.345Z" fill="white" stroke="#B8C0CC" stroke-width="1.5"/>
<path d="M227.527 122.439H239.937V125.869C239.937 126.251 239.555 126.849 238.343 127.394C237.202 127.907 235.574 128.244 233.738 128.244C231.896 128.244 230.265 127.907 229.123 127.394C227.91 126.849 227.527 126.251 227.527 125.869V122.439Z" fill="white" stroke="#B8C0CC" stroke-width="1.5"/>
<path d="M233.726 124.065C231.89 124.065 230.263 123.728 229.122 123.215C227.91 122.67 227.527 122.072 227.527 121.689C227.527 121.307 227.91 120.709 229.122 120.164C230.263 119.651 231.89 119.314 233.726 119.314C235.562 119.314 237.19 119.651 238.331 120.164C239.543 120.709 239.925 121.307 239.925 121.689C239.925 122.073 239.544 122.67 238.335 123.215C237.196 123.728 235.568 124.065 233.726 124.065Z" fill="white" stroke="#B8C0CC" stroke-width="1.5"/>
<path d="M237.153 119.013C237.153 119.084 237.19 119.149 237.251 119.185L261.352 133.461C261.485 133.54 261.654 133.444 261.654 133.289V103.41C261.654 103.34 261.617 103.274 261.556 103.238L237.455 88.9854C237.321 88.9065 237.153 89.0026 237.153 89.1575V119.013Z" fill="white" stroke="#53A1FF" stroke-width="1.5"/>
<path d="M261.654 133.366C261.654 133.502 261.786 133.598 261.915 133.557L309.139 118.512C309.222 118.486 309.278 118.409 309.278 118.322V88.3857C309.278 88.2503 309.146 88.1541 309.017 88.1952L261.793 103.252C261.71 103.278 261.654 103.355 261.654 103.442V133.366Z" fill="white" stroke="#53A1FF" stroke-width="1.5"/>
<path d="M261.577 103.25C261.626 103.28 261.685 103.286 261.739 103.269L308.853 88.2477C309.018 88.1952 309.043 87.9729 308.894 87.885L284.854 73.6683C284.805 73.6393 284.746 73.6326 284.692 73.6499L237.578 88.6711C237.413 88.7236 237.388 88.9459 237.537 89.0338L261.577 103.25Z" fill="white" stroke="#53A1FF" stroke-width="1.5"/>
<path d="M285.407 84.6949H297.817V88.1241C297.817 88.5067 297.435 89.1044 296.223 89.6495C295.082 90.1626 293.454 90.4995 291.618 90.4995C289.776 90.4995 288.145 90.1625 287.003 89.6493C285.79 89.1042 285.407 88.5065 285.407 88.1241V84.6949Z" fill="white" stroke="#53A1FF" stroke-width="1.5"/>
<path d="M291.606 86.3204C289.77 86.3204 288.143 85.9834 287.002 85.4703C285.79 84.9252 285.407 84.3275 285.407 83.945C285.407 83.5624 285.79 82.9648 287.002 82.4196C288.143 81.9065 289.77 81.5696 291.606 81.5696C293.442 81.5696 295.07 81.9065 296.211 82.4196C297.423 82.9648 297.805 83.5624 297.805 83.945C297.805 84.3286 297.424 84.926 296.215 85.4705C295.076 85.9834 293.448 86.3204 291.606 86.3204Z" fill="white" stroke="#53A1FF" stroke-width="1.5"/>
<path d="M272.899 76.8754H285.309V80.3046C285.309 80.6869 284.927 81.2846 283.714 81.8298C282.571 82.3429 280.94 82.68 279.098 82.68C277.262 82.68 275.635 82.343 274.494 81.8299C273.282 81.2848 272.899 80.6871 272.899 80.3046V76.8754Z" fill="white" stroke="#53A1FF" stroke-width="1.5"/>
<path d="M279.098 78.5008C277.262 78.5008 275.635 78.1639 274.494 77.6507C273.282 77.1056 272.899 76.508 272.899 76.1254C272.899 75.7418 273.28 75.1444 274.489 74.5999C275.628 74.087 277.256 73.75 279.098 73.75C280.94 73.75 282.568 74.087 283.707 74.5999C284.916 75.1444 285.297 75.7418 285.297 76.1254C285.297 76.508 284.915 77.1056 283.703 77.6507C282.562 78.1639 280.934 78.5008 279.098 78.5008Z" fill="white" stroke="#53A1FF" stroke-width="1.5"/>
<path d="M259.996 93.0054H272.394V96.4346C272.394 96.8171 272.014 97.4118 270.805 97.9534C269.666 98.4637 268.038 98.798 266.195 98.798C264.352 98.798 262.724 98.4637 261.585 97.9534C260.375 97.4118 259.996 96.8171 259.996 96.4346V93.0054Z" fill="white" stroke="#53A1FF" stroke-width="1.5"/>
<path d="M266.195 94.6187C264.359 94.6187 262.731 94.2818 261.59 93.7687C260.378 93.2236 259.996 92.6259 259.996 92.2433C259.996 92.0573 260.077 91.8239 260.336 91.5487C260.599 91.2697 261.015 90.9839 261.586 90.7268C262.726 90.2137 264.354 89.8738 266.196 89.8679C268.031 89.8681 269.659 90.205 270.799 90.718C272.011 91.2631 272.394 91.8608 272.394 92.2433C272.394 92.627 272.013 93.2244 270.803 93.7688C269.664 94.2817 268.037 94.6187 266.195 94.6187Z" fill="white" stroke="#53A1FF" stroke-width="1.5"/>
<path d="M247.943 85.7247H260.341V89.1539C260.341 89.5376 259.96 90.135 258.751 90.6794C257.612 91.1923 255.984 91.5293 254.142 91.5293C252.3 91.5293 250.672 91.1923 249.533 90.6794C248.324 90.135 247.943 89.5376 247.943 89.1539V85.7247Z" fill="white" stroke="#53A1FF" stroke-width="1.5"/>
<path d="M254.142 87.3502C252.306 87.3502 250.678 87.0132 249.537 86.5001C248.325 85.955 247.943 85.3573 247.943 84.9748C247.943 84.5911 248.324 83.9937 249.533 83.4493C250.672 82.9364 252.3 82.5994 254.142 82.5994C255.978 82.5994 257.606 82.9363 258.746 83.4494C259.958 83.9945 260.341 84.5922 260.341 84.9748C260.341 85.3584 259.96 85.9558 258.751 86.5003C257.612 87.0131 255.984 87.3502 254.142 87.3502Z" fill="white" stroke="#53A1FF" stroke-width="1.5"/>
<circle cx="207" cy="35" r="34" stroke="#B8C0CC" stroke-width="2"/>
<rect x="190" y="14" width="28" height="42" rx="3" fill="#FCFDFF" stroke="#53A1FF" stroke-width="2"/>
<rect x="195" y="20" width="6" height="6" rx="1" fill="#FCFDFF" stroke="#B8C0CC" stroke-width="2"/>
<rect x="195" y="32" width="6" height="6" rx="1" fill="#FCFDFF" stroke="#B8C0CC" stroke-width="2"/>
<rect x="195" y="43" width="6" height="6" rx="1" fill="#FCFDFF" stroke="#B8C0CC" stroke-width="2"/>
<path d="M205 21H214" stroke="#B8C0CC" stroke-width="2" stroke-linecap="round"/>
<path d="M205 33H214" stroke="#B8C0CC" stroke-width="2" stroke-linecap="round"/>
<path d="M205 44H214" stroke="#B8C0CC" stroke-width="2" stroke-linecap="round"/>
<path d="M205 25H214" stroke="#B8C0CC" stroke-width="2" stroke-linecap="round"/>
<path d="M205 37H214" stroke="#B8C0CC" stroke-width="2" stroke-linecap="round"/>
<path d="M205 48H214" stroke="#B8C0CC" stroke-width="2" stroke-linecap="round"/>
<path d="M197.001 22.7623L198.416 24.269L202.694 20" stroke="#53A1FF" stroke-width="2" stroke-linecap="round" stroke-linejoin="round"/>
<path d="M197.001 34.7623L198.416 36.269L202.694 32" stroke="#53A1FF" stroke-width="2" stroke-linecap="round" stroke-linejoin="round"/>
<path d="M227 55.4286C227 55.7442 226.744 56 226.429 56H210.571C210.256 56 210 55.7442 210 55.4286C210 50.7834 213.835 47 218.5 47C223.165 47 227 50.7834 227 55.4286Z" fill="#FCFDFF" stroke="#3DE0BF" stroke-width="2" stroke-linecap="round"/>
<path d="M221.953 39.5833C221.953 41.5897 220.38 43.1667 218.5 43.1667C216.62 43.1667 215.047 41.5897 215.047 39.5833C215.047 37.577 216.62 36 218.5 36C220.38 36 221.953 37.577 221.953 39.5833Z" fill="#FCFDFF" stroke="#3DE0BF" stroke-width="2"/>
<circle cx="111" cy="56" r="34" stroke="#B8C0CC" stroke-width="2"/>
<path d="M91 56C91 44.9543 99.9543 36 111 36C114.237 36 117.295 36.7691 120 38.1346M91 56L95 53M91 56L87 53M130.084 62C127.536 70.1142 119.955 76 111 76C109.63 76 108.292 75.8623 107 75.5999M130.084 62L125 64M130.084 62L132 67" stroke="#B8C0CC" stroke-width="2" stroke-linecap="round"/>
<path d="M98.5349 65.7906H98.9535C102.563 65.7906 105.488 68.7164 105.488 72.3255C105.488 72.4668 105.374 72.5813 105.233 72.5813H92.2558C92.1145 72.5813 92 72.4668 92 72.3255C92 68.7164 94.9258 65.7906 98.5349 65.7906Z" fill="white" stroke="#53A1FF" stroke-width="2" stroke-linecap="round"/>
<path d="M101.374 59.6628C101.374 61.1419 100.188 62.3256 98.7442 62.3256C97.3001 62.3256 96.1141 61.1419 96.1141 59.6628C96.1141 58.1837 97.3001 57 98.7442 57C100.188 57 101.374 58.1837 101.374 59.6628Z" fill="white" stroke="#53A1FF" stroke-width="2"/>
<path d="M127.045 49.7906H127.465C131.074 49.7906 134 52.7164 134 56.3255C134 56.4668 133.885 56.5813 133.744 56.5813H120.766C120.625 56.5813 120.51 56.4668 120.51 56.3255C120.51 52.7164 123.436 49.7906 127.045 49.7906Z" fill="white" stroke="#3DE0BF" stroke-width="2" stroke-linecap="round"/>
<path d="M129.885 43.6628C129.885 45.1418 128.699 46.3256 127.255 46.3256C125.811 46.3256 124.625 45.1418 124.625 43.6628C124.625 42.1838 125.811 41 127.255 41C128.699 41 129.885 42.1838 129.885 43.6628Z" fill="white" stroke="#3DE0BF" stroke-width="2"/>
<circle cx="35" cy="127" r="34" stroke="#B8C0CC" stroke-width="2"/>
<circle cx="35" cy="127" r="20" stroke="#53A1FF" stroke-width="2"/>
<path d="M40.584 130.224C40.584 131.504 40.136 132.584 39.24 133.464C38.36 134.344 37.168 134.896 35.664 135.12V136.632C35.664 137 35.552 137.296 35.328 137.52C35.104 137.76 34.808 137.88 34.44 137.88C34.072 137.88 33.776 137.76 33.552 137.52C33.328 137.296 33.216 137 33.216 136.632V135.168C32.304 135.088 31.416 134.896 30.552 134.592C29.688 134.288 28.944 133.888 28.32 133.392C28.112 133.248 27.968 133.088 27.888 132.912C27.808 132.736 27.768 132.52 27.768 132.264C27.768 131.928 27.864 131.632 28.056 131.376C28.264 131.12 28.496 130.992 28.752 130.992C28.912 130.992 29.056 131.024 29.184 131.088C29.328 131.136 29.512 131.224 29.736 131.352C30.472 131.832 31.192 132.184 31.896 132.408C32.616 132.632 33.368 132.744 34.152 132.744C35.224 132.744 36.048 132.536 36.624 132.12C37.216 131.704 37.512 131.104 37.512 130.32C37.512 129.856 37.352 129.48 37.032 129.192C36.712 128.904 36.312 128.68 35.832 128.52C35.352 128.344 34.68 128.144 33.816 127.92C32.616 127.616 31.64 127.312 30.888 127.008C30.136 126.688 29.488 126.208 28.944 125.568C28.4 124.928 28.128 124.064 28.128 122.976C28.128 121.68 28.592 120.576 29.52 119.664C30.448 118.752 31.664 118.184 33.168 117.96V116.448C33.168 116.08 33.28 115.784 33.504 115.56C33.728 115.32 34.024 115.2 34.392 115.2C34.76 115.2 35.056 115.32 35.28 115.56C35.504 115.784 35.616 116.08 35.616 116.448V117.936C37.232 118.144 38.624 118.728 39.792 119.688C40.176 119.976 40.368 120.352 40.368 120.816C40.368 121.152 40.264 121.448 40.056 121.704C39.864 121.96 39.632 122.088 39.36 122.088C39.216 122.088 39.072 122.064 38.928 122.016C38.8 121.968 38.624 121.872 38.4 121.728C37.744 121.264 37.12 120.92 36.528 120.696C35.952 120.456 35.264 120.336 34.464 120.336C33.472 120.336 32.68 120.56 32.088 121.008C31.496 121.44 31.2 122.04 31.2 122.808C31.2 123.336 31.368 123.768 31.704 124.104C32.04 124.424 32.464 124.672 32.976 124.848C33.488 125.024 34.184 125.224 35.064 125.448C36.232 125.736 37.184 126.032 37.92 126.336C38.656 126.64 39.28 127.104 39.792 127.728C40.32 128.336 40.584 129.168 40.584 130.224Z" fill="#3DE0BF"/>
</svg>
