<svg width="351" height="262" viewBox="0 0 351 262" fill="none" xmlns="http://www.w3.org/2000/svg">
<path d="M272.134 249.442L288.491 249.442C289.595 249.442 290.491 248.546 290.491 247.442V167.662C290.491 167.011 290.174 166.401 289.642 166.027L232.678 125.945C231.988 125.459 231.067 125.459 230.376 125.945L173.413 166.027C172.88 166.401 172.564 167.011 172.564 167.662V247.442C172.564 248.546 173.459 249.442 174.564 249.442L190.92 249.442" stroke="#53A1FF" stroke-width="2" stroke-linecap="round"/>
<path d="M231.527 180.382V258.076" stroke="#B8C0CC" stroke-width="2" stroke-linecap="round"/>
<path d="M198.909 258.231H264.199" stroke="#B8C0CC" stroke-width="2" stroke-linecap="round"/>
<path d="M234.291 258.231C234.291 259.76 233.053 260.998 231.527 260.998C230.002 260.998 228.764 259.76 228.764 258.231C228.764 256.702 230.002 255.464 231.527 255.464C233.053 255.464 234.291 256.702 234.291 258.231Z" fill="#FCFDFF" stroke="#B8C0CC" stroke-width="2"/>
<rect x="188.618" y="172.593" width="85.5422" height="15.8838" rx="3" fill="#FCFDFF" stroke="#B8C0CC" stroke-width="2"/>
<rect x="186.618" y="198.585" width="89.5422" height="15.2185" rx="7" stroke="#FCFDFF" stroke-width="2"/>
<rect x="188.618" y="198.253" width="85.5422" height="15.8838" rx="3" fill="#FCFDFF" stroke="#B8C0CC" stroke-width="2"/>
<rect x="188.618" y="223.134" width="85.5422" height="16.6614" rx="3" fill="#FCFDFF" stroke="#B8C0CC" stroke-width="2"/>
<path d="M265.696 204.25L265.696 208.138" stroke="#B8C0CC" stroke-width="2" stroke-linecap="round"/>
<path d="M265.696 178.591L265.696 182.479" stroke="#B8C0CC" stroke-width="2" stroke-linecap="round"/>
<path d="M265.696 229.91L265.696 233.798" stroke="#B8C0CC" stroke-width="2" stroke-linecap="round"/>
<path d="M255.444 204.25L255.444 208.138" stroke="#B8C0CC" stroke-width="2" stroke-linecap="round"/>
<path d="M255.444 178.591L255.444 182.479" stroke="#B8C0CC" stroke-width="2" stroke-linecap="round"/>
<path d="M255.444 229.91L255.444 233.798" stroke="#B8C0CC" stroke-width="2" stroke-linecap="round"/>
<path d="M245.191 204.25L245.191 208.138" stroke="#B8C0CC" stroke-width="2" stroke-linecap="round"/>
<path d="M245.191 178.591L245.191 182.479" stroke="#B8C0CC" stroke-width="2" stroke-linecap="round"/>
<path d="M245.191 229.91L245.191 233.798" stroke="#B8C0CC" stroke-width="2" stroke-linecap="round"/>
<rect x="196.505" y="177.783" width="5.46175" height="5.31234" rx="2.65617" stroke="#B8C0CC" stroke-width="2"/>
<rect x="196.505" y="203.377" width="5.46175" height="5.31234" rx="2.65617" stroke="#B8C0CC" stroke-width="2"/>
<rect x="196.505" y="228.97" width="5.46175" height="5.31234" rx="2.65617" stroke="#B8C0CC" stroke-width="2"/>
<rect x="206.765" y="177.783" width="5.46175" height="5.31234" rx="2.65617" stroke="#53A1FF" stroke-width="2"/>
<rect x="206.765" y="203.377" width="5.46175" height="5.31234" rx="2.65617" stroke="#53A1FF" stroke-width="2"/>
<rect x="206.765" y="228.97" width="5.46175" height="5.31234" rx="2.65617" stroke="#53A1FF" stroke-width="2"/>
<path d="M155 178.948L230.377 125.944C231.067 125.459 231.988 125.459 232.678 125.944L308.055 178.948" stroke="#53A1FF" stroke-width="2" stroke-linecap="round"/>
<path d="M277.789 108.87C274.344 108.346 271.485 111.393 271.93 114.758C272.825 121.522 273.064 128.534 273.301 135.512C273.369 137.518 273.438 139.521 273.521 141.515C273.894 150.397 274.574 159.073 277.003 166.693C279.523 174.595 286.221 180.774 292.822 185.198C299.449 189.64 306.137 192.42 308.873 193.467C309.928 193.871 311.072 193.871 312.127 193.467C314.863 192.42 321.551 189.64 328.178 185.198C334.779 180.774 341.477 174.595 343.997 166.693C346.426 159.073 347.106 150.397 347.479 141.515C347.562 139.521 347.631 137.518 347.699 135.512C347.936 128.534 348.175 121.522 349.07 114.758C349.515 111.393 346.656 108.346 343.211 108.87L330.202 110.852C329.902 110.898 329.598 110.898 329.298 110.852L311.253 108.103C310.754 108.027 310.246 108.027 309.747 108.103L291.702 110.852C291.402 110.898 291.098 110.898 290.798 110.852L277.789 108.87Z" fill="#FCFDFF" stroke="#FCFDFF" stroke-width="2"/>
<path d="M273.913 114.496C273.631 112.362 275.448 110.537 277.488 110.848L290.497 112.83C290.996 112.906 291.504 112.906 292.003 112.83L310.048 110.08C310.348 110.035 310.652 110.035 310.952 110.08L328.997 112.83C329.496 112.906 330.004 112.906 330.503 112.83L343.512 110.848C345.552 110.537 347.369 112.362 347.087 114.496C346.178 121.366 345.935 128.511 345.697 135.505C345.63 137.496 345.563 139.474 345.481 141.431C345.108 150.306 344.432 158.744 342.091 166.085C339.779 173.336 333.543 179.194 327.065 183.537C320.613 187.861 314.08 190.578 311.412 191.6C310.817 191.827 310.183 191.827 309.588 191.6C306.92 190.578 300.387 187.861 293.935 183.537C287.457 179.194 281.221 173.336 278.909 166.085C276.568 158.744 275.892 150.306 275.519 141.431C275.437 139.474 275.37 137.495 275.303 135.505C275.065 128.511 274.822 121.366 273.913 114.496Z" fill="#FCFDFF" stroke="#3DE0BF" stroke-width="2"/>
<path d="M325.883 151.707L322.416 148.907C322.591 147.8 322.591 146.674 322.416 145.567L325.883 142.767C326.008 142.667 326.092 142.527 326.12 142.373C326.148 142.218 326.119 142.059 326.037 141.924L322.881 136.648C322.8 136.513 322.672 136.41 322.52 136.357C322.369 136.304 322.203 136.304 322.051 136.357L317.811 137.852C316.897 137.162 315.885 136.602 314.808 136.186L314.028 131.886C314 131.733 313.917 131.594 313.793 131.494C313.67 131.394 313.513 131.339 313.352 131.339H307.039C306.878 131.339 306.722 131.394 306.598 131.494C306.475 131.594 306.392 131.733 306.364 131.886L305.584 136.186C304.506 136.602 303.495 137.163 302.58 137.852L298.341 136.357C298.189 136.303 298.023 136.303 297.871 136.356C297.719 136.409 297.591 136.513 297.511 136.648L294.355 141.924C294.273 142.059 294.243 142.218 294.271 142.373C294.3 142.527 294.384 142.667 294.509 142.767L297.975 145.567C297.801 146.674 297.801 147.8 297.975 148.907L294.509 151.707C294.384 151.807 294.3 151.947 294.271 152.101C294.243 152.256 294.273 152.415 294.355 152.55L297.511 157.826C297.592 157.961 297.719 158.064 297.871 158.117C298.023 158.171 298.189 158.171 298.341 158.117L302.58 156.622C303.495 157.312 304.506 157.873 305.584 158.289L306.364 162.588C306.392 162.742 306.475 162.881 306.598 162.981C306.722 163.081 306.878 163.136 307.039 163.136H313.352C313.513 163.136 313.67 163.081 313.793 162.981C313.917 162.881 314 162.742 314.028 162.588L314.808 158.289C315.885 157.873 316.897 157.312 317.811 156.622L322.051 158.117C322.203 158.17 322.369 158.17 322.52 158.117C322.672 158.064 322.799 157.961 322.881 157.826L326.037 152.546C326.118 152.411 326.146 152.253 326.118 152.1C326.09 151.946 326.007 151.807 325.883 151.707ZM310.196 153.434C308.927 153.434 307.687 153.071 306.632 152.391C305.577 151.711 304.755 150.744 304.27 149.613C303.784 148.481 303.657 147.237 303.905 146.036C304.152 144.835 304.763 143.732 305.66 142.866C306.557 142 307.7 141.41 308.944 141.172C310.189 140.933 311.478 141.055 312.65 141.524C313.823 141.992 314.824 142.786 315.529 143.804C316.234 144.822 316.61 146.019 316.61 147.243C316.608 148.885 315.931 150.458 314.729 151.619C313.527 152.779 311.896 153.432 310.196 153.434Z" fill="white" stroke="#3DE0BF" stroke-width="2" stroke-linecap="round" stroke-linejoin="round"/>
<mask id="path-28-outside-1" maskUnits="userSpaceOnUse" x="59.8143" y="0" width="162" height="96" fill="black">
<rect fill="white" x="59.8143" width="162" height="96"/>
<path fill-rule="evenodd" clip-rule="evenodd" d="M153.991 30.0146C153.883 30.1709 153.632 30.1051 153.613 29.9159C152.037 14.2385 138.797 2 122.697 2C105.536 2 91.6243 15.9063 91.6243 33.0606C91.6243 33.5222 91.6344 33.9814 91.6543 34.438C91.6593 34.5523 91.5683 34.6481 91.4538 34.6481H91.1973C74.9695 34.6481 61.8143 47.8034 61.8143 64.0312C61.8143 80.259 74.9695 93.4143 91.1973 93.4143H198.03C210.061 93.4143 219.814 83.6612 219.814 71.6303C219.814 59.5993 210.061 49.8463 198.03 49.8463H197.184C197.053 49.8463 196.957 49.7218 196.99 49.5945C197.472 47.6986 197.728 45.7126 197.728 43.6668C197.728 30.4175 186.983 19.6769 173.728 19.6769C165.548 19.6769 158.324 23.7678 153.991 30.0146Z"/>
</mask>
<path fill-rule="evenodd" clip-rule="evenodd" d="M153.991 30.0146C153.883 30.1709 153.632 30.1051 153.613 29.9159C152.037 14.2385 138.797 2 122.697 2C105.536 2 91.6243 15.9063 91.6243 33.0606C91.6243 33.5222 91.6344 33.9814 91.6543 34.438C91.6593 34.5523 91.5683 34.6481 91.4538 34.6481H91.1973C74.9695 34.6481 61.8143 47.8034 61.8143 64.0312C61.8143 80.259 74.9695 93.4143 91.1973 93.4143H198.03C210.061 93.4143 219.814 83.6612 219.814 71.6303C219.814 59.5993 210.061 49.8463 198.03 49.8463H197.184C197.053 49.8463 196.957 49.7218 196.99 49.5945C197.472 47.6986 197.728 45.7126 197.728 43.6668C197.728 30.4175 186.983 19.6769 173.728 19.6769C165.548 19.6769 158.324 23.7678 153.991 30.0146Z" fill="#FCFDFF"/>
<path d="M91.6543 34.438L89.6562 34.5253L91.6543 34.438ZM196.99 49.5945L195.051 49.1017L196.99 49.5945ZM153.613 29.9159L151.623 30.1161L153.613 29.9159ZM153.991 30.0146L152.348 28.8748L153.991 30.0146ZM155.603 29.7158C153.925 13.0261 139.834 0 122.697 0V4C137.76 4 150.148 15.4509 151.623 30.1161L155.603 29.7158ZM122.697 0C104.432 0 89.6243 14.801 89.6243 33.0606H93.6243C93.6243 17.0116 106.64 4 122.697 4V0ZM89.6243 33.0606C89.6243 33.5513 89.635 34.0396 89.6562 34.5253L93.6524 34.3508C93.6337 33.9232 93.6243 33.4931 93.6243 33.0606H89.6243ZM91.4538 32.6481H91.1973V36.6481H91.4538V32.6481ZM91.1973 32.6481C73.8649 32.6481 59.8143 46.6988 59.8143 64.0312H63.8143C63.8143 48.9079 76.0741 36.6481 91.1973 36.6481V32.6481ZM59.8143 64.0312C59.8143 81.3636 73.865 95.4143 91.1973 95.4143V91.4143C76.0741 91.4143 63.8143 79.1544 63.8143 64.0312H59.8143ZM91.1973 95.4143H198.03V91.4143H91.1973V95.4143ZM198.03 95.4143C211.166 95.4143 221.814 84.7658 221.814 71.6303H217.814C217.814 82.5567 208.957 91.4143 198.03 91.4143V95.4143ZM221.814 71.6303C221.814 58.4947 211.166 47.8463 198.03 47.8463V51.8463C208.957 51.8463 217.814 60.7039 217.814 71.6303H221.814ZM198.03 47.8463H197.184V51.8463H198.03V47.8463ZM195.728 43.6668C195.728 45.545 195.493 47.3655 195.051 49.1017L198.928 50.0874C199.451 48.0317 199.728 45.8802 199.728 43.6668H195.728ZM173.728 21.6769C185.879 21.6769 195.728 31.5229 195.728 43.6668H199.728C199.728 29.3122 188.087 17.6769 173.728 17.6769V21.6769ZM155.635 31.1544C159.609 25.4235 166.231 21.6769 173.728 21.6769V17.6769C164.865 17.6769 157.038 22.1121 152.348 28.8748L155.635 31.1544ZM89.6562 34.5253C89.6119 33.5107 90.4206 32.6481 91.4538 32.6481V36.6481C92.7159 36.6481 93.7067 35.594 93.6524 34.3508L89.6562 34.5253ZM197.184 47.8463C198.373 47.8463 199.213 48.9655 198.928 50.0874L195.051 49.1017C194.701 50.4781 195.733 51.8463 197.184 51.8463V47.8463ZM151.623 30.1161C151.826 32.1325 154.454 32.8564 155.635 31.1544L152.348 28.8748C153.311 27.4853 155.439 28.0778 155.603 29.7158L151.623 30.1161Z" fill="#53A1FF" mask="url(#path-28-outside-1)"/>
<path d="M145.329 69.7144V139.686" stroke="#B8C0CC" stroke-width="2" stroke-linecap="round"/>
<path d="M115.986 140.814H174.671" stroke="#B8C0CC" stroke-width="2" stroke-linecap="round"/>
<circle cx="145.329" cy="140.814" r="2.38571" fill="#FCFDFF" stroke="#B8C0CC" stroke-width="2"/>
<rect x="106.712" y="63.6819" width="76.7573" height="14.3191" rx="3" fill="#FCFDFF" stroke="#B8C0CC" stroke-width="2"/>
<rect x="104.712" y="87.2246" width="80.7573" height="14.0619" rx="7" stroke="#FCFDFF" stroke-width="2"/>
<rect x="106.712" y="87.0964" width="76.7573" height="14.3191" rx="3" fill="#FCFDFF" stroke="#B8C0CC" stroke-width="2"/>
<rect x="106.829" y="109.801" width="76.7573" height="15.0286" rx="3" fill="#FCFDFF" stroke="#B8C0CC" stroke-width="2"/>
<path d="M175.955 92.4819L175.955 96.0296" stroke="#B8C0CC" stroke-width="2" stroke-linecap="round"/>
<path d="M175.955 69.0679L175.955 72.6155" stroke="#B8C0CC" stroke-width="2" stroke-linecap="round"/>
<path d="M175.955 115.896L175.955 119.444" stroke="#B8C0CC" stroke-width="2" stroke-linecap="round"/>
<path d="M166.731 92.4819L166.731 96.0296" stroke="#B8C0CC" stroke-width="2" stroke-linecap="round"/>
<path d="M166.731 69.0679L166.731 72.6155" stroke="#B8C0CC" stroke-width="2" stroke-linecap="round"/>
<path d="M166.731 115.896L166.731 119.444" stroke="#B8C0CC" stroke-width="2" stroke-linecap="round"/>
<path d="M157.507 92.4819L157.507 96.0296" stroke="#B8C0CC" stroke-width="2" stroke-linecap="round"/>
<path d="M157.507 69.0679L157.507 72.6155" stroke="#B8C0CC" stroke-width="2" stroke-linecap="round"/>
<path d="M157.507 115.896L157.507 119.444" stroke="#B8C0CC" stroke-width="2" stroke-linecap="round"/>
<rect x="113.807" y="68.4182" width="4.71296" height="4.67255" rx="2.33628" stroke="#B8C0CC" stroke-width="2"/>
<rect x="113.807" y="91.7722" width="4.71296" height="4.67255" rx="2.33628" stroke="#B8C0CC" stroke-width="2"/>
<rect x="113.807" y="115.126" width="4.71296" height="4.67255" rx="2.33628" stroke="#B8C0CC" stroke-width="2"/>
<rect x="123.037" y="68.4182" width="4.71296" height="4.67255" rx="2.33628" stroke="#3DE0BF" stroke-width="2"/>
<rect x="123.037" y="91.7722" width="4.71296" height="4.67255" rx="2.33628" stroke="#3DE0BF" stroke-width="2"/>
<rect x="123.037" y="115.126" width="4.71296" height="4.67255" rx="2.33628" stroke="#3DE0BF" stroke-width="2"/>
<path d="M55.6971 81.564C33.7242 81.564 15.9289 99.3565 15.9289 121.282C15.9289 143.207 33.7242 161 55.6971 161C77.7068 161 95.5429 143.209 95.5429 121.282C95.5429 99.3545 77.7068 81.564 55.6971 81.564Z" fill="#FCFDFF" stroke="#FCFDFF" stroke-width="2"/>
<path d="M17.9289 121.282C17.9289 100.463 34.8271 83.564 55.6971 83.564C76.6079 83.564 93.5429 100.465 93.5429 121.282C93.5429 142.099 76.6079 159 55.6971 159C34.8271 159 17.9289 142.101 17.9289 121.282Z" fill="#FCFDFF" stroke="#3DE0BF" stroke-width="2"/>
<path d="M54.8389 102.912C54.8389 101.73 53.8814 100.773 52.7003 100.773C51.5192 100.773 50.5617 101.73 50.5617 102.912V123.863L69.4998 134.651C70.4076 135.168 71.5608 134.895 72.1399 134.026C72.7822 133.061 72.4677 131.754 71.457 131.188L54.8389 121.873V102.912Z" fill="#3DE0BF"/>
<path d="M21.15 67.7265L21.1504 67.726C22.5935 66.0344 25.3666 66.0344 26.8098 67.726L26.8102 67.7265L46.0383 90.2944C46.0386 90.2947 46.0389 90.2951 46.0392 90.2954C47.0014 91.4207 47.225 93.0154 46.6282 94.3714L46.6264 94.3753C46.0206 95.7361 44.6906 96.6224 43.2079 96.6224H35.9667V128.451C35.9667 135.532 38.3387 142.476 42.6404 148.002C42.6405 148.002 42.6406 148.002 42.6407 148.002L46.1378 152.491L46.1385 152.492C47.1093 153.742 47.221 155.48 46.4118 156.843C45.7287 157.995 44.5072 158.687 43.2062 158.687C42.9657 158.687 42.7149 158.663 42.4621 158.609C24.785 154.977 11.9883 138.925 11.9883 120.452V96.6224H4.7471C3.26588 96.6224 1.93404 95.7372 1.33284 94.3733C0.727627 93.012 0.961685 91.4168 1.92155 90.2947C1.92164 90.2946 1.92173 90.2945 1.92181 90.2944L21.15 67.7265Z" fill="#FCFDFF" stroke="#FCFDFF" stroke-width="2"/>
<path d="M3.44146 91.5947L3.44282 91.5931L22.672 69.024L3.44146 91.5947ZM3.44146 91.5947C2.98383 92.1295 2.86749 92.903 3.16081 93.5618L3.16253 93.5657C3.45111 94.2213 4.076 94.6224 4.7471 94.6224H12.9883H13.9883V95.6224V120.452C13.9883 138.012 26.1539 153.218 42.8683 156.651L42.8755 156.652C42.9856 156.676 43.0975 156.687 43.2062 156.687C43.7938 156.687 44.3648 156.374 44.6913 155.823L44.6918 155.822C45.0804 155.168 45.027 154.321 44.5593 153.72L41.0627 149.231L41.0624 149.231C36.4843 143.349 33.9667 135.972 33.9667 128.451V95.6224V94.6224H34.9667H43.2079C43.8776 94.6224 44.5043 94.2225 44.7985 93.5638C45.0898 92.8998 44.9735 92.1262 44.5187 91.5947L44.5173 91.5931M3.44146 91.5947L44.5173 91.5931M44.5173 91.5931L25.2882 69.024M44.5173 91.5931L25.2882 69.024M25.2882 69.024L25.2878 69.0236C24.6431 68.2685 23.317 68.2685 22.6724 69.0236L25.2882 69.024Z" fill="#FCFDFF" stroke="#53A1FF" stroke-width="2"/>
</svg>
