<svg width="52" height="60" viewBox="0 0 52 60" fill="none" xmlns="http://www.w3.org/2000/svg">
<path d="M28.7381 21.9356V22.2497L28.9177 22.5074L39.1778 37.2288C39.1781 37.2292 39.1783 37.2295 39.1785 37.2298C40.8151 39.5965 41.7386 42.6536 41.7499 45.8451C41.7742 53.3031 37.0123 58.9705 31.5618 59H11.1882C8.81268 58.986 6.47315 57.9051 4.60799 55.8737L4.60792 55.8736C0.25334 51.1318 -0.241289 42.7454 3.56997 37.2299C3.57027 37.2294 3.57057 37.229 3.57086 37.2286L13.8308 22.5074L14.0104 22.2497V21.9356V3V2H13.0104H11.8216C11.8113 1.99559 11.7871 1.98086 11.7528 1.93773C11.6875 1.85584 11.6207 1.7045 11.6207 1.5C11.6207 1.2955 11.6875 1.14416 11.7528 1.06227C11.7871 1.01914 11.8113 1.00441 11.8216 1H30.9269C30.9372 1.00441 30.9614 1.01914 30.9958 1.06227C31.061 1.14416 31.1278 1.2955 31.1278 1.5C31.1278 1.7045 31.061 1.85584 30.9958 1.93773C30.9614 1.98086 30.9372 1.99559 30.9269 2H29.7381H28.7381V3V21.9356ZM11.8273 2.00161C11.8272 2.00181 11.8256 2.00161 11.8226 2.0004C11.8258 2.00081 11.8273 2.00141 11.8273 2.00161ZM11.8226 0.999596C11.8256 0.998394 11.8272 0.99819 11.8273 0.998388C11.8273 0.998586 11.8258 0.999187 11.8226 0.999596ZM30.9212 0.998388C30.9213 0.99819 30.9229 0.998394 30.9259 0.999596C30.9227 0.999187 30.9212 0.998586 30.9212 0.998388ZM30.9212 2.00161C30.9212 2.00141 30.9227 2.00081 30.9259 2.0004C30.9229 2.00161 30.9213 2.00181 30.9212 2.00161Z" fill="#FCFDFF" stroke="#B8C0CC" stroke-width="2"/>
<path d="M15.7502 39.75C9.15018 37.35 3.37517 38.25 2.25017 39C1.62517 39.4999 -0.0748562 42.525 1.12514 49.125C2.32514 55.725 7.62514 58.625 10.1251 59.25H31.8751C34.5001 59.25 38.2501 57 40.1251 53.625C42.0001 50.25 42.0001 45.75 41.6251 42.375C41.3251 39.675 39.2502 36.5 37.8752 34.875C33.3752 39.75 24.0002 42.75 15.7502 39.75Z" fill="#3DE0BF"/>
<path fill-rule="evenodd" clip-rule="evenodd" d="M35.25 43.5C35.25 44.3284 34.5784 45 33.75 45C32.9216 45 32.25 44.3284 32.25 43.5C32.25 42.6716 32.9216 42 33.75 42C34.5784 42 35.25 42.6716 35.25 43.5ZM8.25 45C8.25 45.8284 7.57843 46.5 6.75 46.5C5.92157 46.5 5.25 45.8284 5.25 45C5.25 44.1716 5.92157 43.5 6.75 43.5C7.57843 43.5 8.25 44.1716 8.25 45ZM14.25 52.5C14.25 53.7426 13.2426 54.75 12 54.75C10.7574 54.75 9.75 53.7426 9.75 52.5C9.75 51.2574 10.7574 50.25 12 50.25C13.2426 50.25 14.25 51.2574 14.25 52.5ZM15.375 45.75C15.9963 45.75 16.5 45.2463 16.5 44.625C16.5 44.0037 15.9963 43.5 15.375 43.5C14.7537 43.5 14.25 44.0037 14.25 44.625C14.25 45.2463 14.7537 45.75 15.375 45.75ZM21 50.625C21 51.2463 20.4963 51.75 19.875 51.75C19.2537 51.75 18.75 51.2463 18.75 50.625C18.75 50.0037 19.2537 49.5 19.875 49.5C20.4963 49.5 21 50.0037 21 50.625ZM28.5 51.75C29.7426 51.75 30.75 50.7426 30.75 49.5C30.75 48.2574 29.7426 47.25 28.5 47.25C27.2574 47.25 26.25 48.2574 26.25 49.5C26.25 50.7426 27.2574 51.75 28.5 51.75ZM31.875 57C32.4963 57 33 56.4963 33 55.875C33 55.2537 32.4963 54.75 31.875 54.75C31.2537 54.75 30.75 55.2537 30.75 55.875C30.75 56.4963 31.2537 57 31.875 57Z" fill="#FCFDFF" fill-opacity="0.5"/>
<path d="M28.7381 21.9356V22.2497L28.9177 22.5074L39.1778 37.2288C39.1781 37.2292 39.1783 37.2295 39.1785 37.2298C40.8151 39.5965 41.7386 42.6536 41.7499 45.8451C41.7742 53.3031 37.0123 58.9705 31.5618 59H11.1882C8.81268 58.986 6.47315 57.9051 4.60799 55.8737L4.60792 55.8736C0.25334 51.1318 -0.241289 42.7454 3.56997 37.2299C3.57027 37.2294 3.57057 37.229 3.57086 37.2286L13.8308 22.5074L14.0104 22.2497V21.9356V3V2H13.0104H11.8216C11.8113 1.99559 11.7871 1.98086 11.7528 1.93773C11.6875 1.85584 11.6207 1.7045 11.6207 1.5C11.6207 1.2955 11.6875 1.14416 11.7528 1.06227C11.7871 1.01914 11.8113 1.00441 11.8216 1H30.9269C30.9372 1.00441 30.9614 1.01914 30.9958 1.06227C31.061 1.14416 31.1278 1.2955 31.1278 1.5C31.1278 1.7045 31.061 1.85584 30.9958 1.93773C30.9614 1.98086 30.9372 1.99559 30.9269 2H29.7381H28.7381V3V21.9356ZM11.8273 2.00161C11.8272 2.00181 11.8256 2.00161 11.8226 2.0004C11.8258 2.00081 11.8273 2.00141 11.8273 2.00161ZM11.8226 0.999596C11.8256 0.998394 11.8272 0.99819 11.8273 0.998388C11.8273 0.998586 11.8258 0.999187 11.8226 0.999596ZM30.9212 0.998388C30.9213 0.99819 30.9229 0.998394 30.9259 0.999596C30.9227 0.999187 30.9212 0.998586 30.9212 0.998388ZM30.9212 2.00161C30.9212 2.00141 30.9227 2.00081 30.9259 2.0004C30.9229 2.00161 30.9213 2.00181 30.9212 2.00161Z" stroke="#B8C0CC" stroke-width="2"/>
<rect x="23.9804" y="47.2598" width="30.4265" height="6.64706" rx="3.32353" transform="rotate(-45 23.9804 47.2598)" fill="#FCFDFF" stroke="#53A1FF" stroke-width="2"/>
<path d="M16 41.5961C16.0023 40.3918 17.0028 39.3838 18.2787 39.3823H18.359H18.4397H18.5203H18.6008H18.6811H18.7613H18.8413H18.9213H19.001H19.0807H19.1602H19.2396H19.3189H19.398H19.477H19.5559H19.6346H19.7132H19.7917H19.8701H19.9483H20.0264H20.1043H20.1822H20.2599H20.3374H20.4149H20.4922H20.5694H20.6465H20.7234H20.8002H20.8769H20.9534H21.0299H21.1062H21.1824H21.2584H21.3344H21.4102H21.4859H21.5614H21.6369H21.7122H21.7874H21.8625H21.9374H22.0122H22.0869H22.1615H22.236H22.3103H22.3846H22.4587H22.5327H22.6065H22.6803H22.7539H22.8274H22.9008H22.9741H23.0472H23.1203H23.1932H23.266H23.3387H23.4112H23.4837H23.556H23.6283H23.7004H23.7724H23.8442H23.916H23.9876H24.0592H24.1306H24.2019H24.2731H24.3442H24.4152H24.486H24.5568H24.6274H24.698H24.7684H24.8387H24.9089H24.979H25.049H25.1188H25.1886H25.2582H25.3278H25.3972H25.4665H25.5358H25.6049H25.6739H25.7428H25.8116H25.8802H25.9488H26.0173H26.0857H26.1539H26.2221H26.2902H26.3581H26.426H26.4937H26.5613H26.6289H26.6963H26.7637H26.8309H26.898H26.965H27.032H27.0988H27.1655H27.2322H27.2987H27.3651H27.4314H27.4977H27.5638H27.6298H27.6958H27.7616H27.8273H27.893H27.9585H28.024H28.0893H28.1546H28.2197H28.2848H28.3497H28.4146H28.4794H28.5441H28.6087H28.6732H28.7376H28.8019H28.8661H28.9302H28.9942H29.0582H29.122H29.1858H29.2494H29.313H29.3765H29.4399H29.5032H29.5664H29.6295H29.6926H29.7555H29.8184H29.8811H29.9438H30.0064H30.0689H30.1313H30.1936H30.2559H30.318H30.3801H30.4421H30.504H30.5658H30.6276H30.6892H30.7508H30.8122H30.8736H30.9349H30.9962H31.0573H31.1184H31.1794H31.2403H31.3011H31.3618H31.4225H31.483H31.5435H31.6039H31.6643H31.7245H31.7847H31.8448H31.9048H31.9648H32.0246H32.0844H32.1441H32.2037H32.2633H32.3228H32.3822H32.4415H32.5007H32.5599H32.619H32.678H32.7369H32.7958H32.8546H32.9133H32.972H33.0306H33.0891H33.1475H33.2059H33.2641H33.3224H33.3805H33.4386H33.4966H33.5545H33.6124H33.6702H33.7279H33.7855H33.8431H33.9006H33.9581H34.0154H34.0728H34.13H34.1872H34.2443H34.3013H34.3583H34.4152H34.472H34.5288H34.5855H34.6422H34.6988H34.7553H34.8117H34.8681H34.9244H34.9807H35.0369H35.093H35.1491H35.2051H35.2611H35.317H35.3728H35.4285H35.4842H35.5399H35.5955H35.651H35.7065H35.7619H35.8172H35.8725H35.9277H35.9829H36.038H36.0931H36.1481H36.203H36.2579H36.3127H36.3675H36.4222H36.4769H36.5315H36.586H36.6405H36.695H36.7494H36.8037H36.858H36.9122H36.9664H37.0205H37.0746H37.1286H37.1826H37.2365H37.2904H37.3442H37.3979H37.4517H37.5053H37.5589H37.6125H37.666H37.7195H37.7729H37.8263H37.8796H37.9329H37.9861H38.0393H38.0924H38.1455H38.1985H38.2515H38.3045H38.3574H38.4103H38.4631H38.5158H38.5686H38.6213H38.6739H38.7265H38.779H38.8316H38.884H38.9365H38.9888H39.0412H39.0935H39.1457H39.198H39.2501H39.3023H39.3544H39.4064H39.4585H39.5104H39.5624H39.6143H39.6662H39.718H39.7698H39.8215H39.8733H39.9249H39.9766H40.0282H40.0798H40.1313H40.1828H40.2343H40.2857H40.3371H40.3885H40.4398H40.4911H40.5424H40.5936H40.6448H40.696H40.7471H40.7982H40.8493H40.9004H40.9514H41.0023H41.0533H41.1042H41.1551H41.206H41.2568H41.3076H41.3584H41.4091H41.4599H41.5106H41.5612H41.6119H41.6625H41.7131H41.7636H41.8142H41.8647H41.9152H41.9656H42.0161H42.0665H42.1168H42.1672H42.2175H42.2679H42.3182H42.3684H42.4187H42.4689H42.5191H42.5693H42.6195H42.6696H42.7197H42.7698H42.8199H42.87H42.92H42.97H43.02H43.07H43.12H43.1699H43.2199H43.2698H43.3197H43.3695H43.4194H43.4693H43.5191H43.5689H43.6187H43.6685H43.7183H43.768H43.8178H43.8675H43.9172H43.9669H44.0166H44.0663H44.1159H44.1656H44.2152H44.2648H44.3145H44.3641H44.4137H44.4632H44.5128H44.5624H44.6119H44.6615H44.711H44.7606H44.8101H44.8596H44.9091H44.9586H45.0081H45.0576H45.107H45.1565H45.206H45.2554H45.3049H45.3543H45.4038H45.4532H45.5026H45.5521H45.6015H45.6509H45.7003H45.7498H45.7992H45.8486H45.898H45.9474H45.9968H46.0462H46.0956H46.145H46.1944H46.2438H46.2933H46.3427H46.3921H46.4415H46.4909H46.5403H46.5897H46.6391H46.6885H46.738H46.7874H46.8368H46.8863H46.9357H46.9851H47.0346H47.084H47.1335H47.1829H47.2324H47.2819H47.3314H47.3809H47.4304H47.4799H47.5294H47.5789H47.6284H47.6779H47.7275H47.777H47.8266H47.8762H47.9258H47.9754H48.025H48.0746H48.1242H48.1738H48.2235H48.2731H48.3228H48.3725H48.4222H48.4713C49.7474 39.3838 50.7481 40.3922 50.75 41.5968C50.7493 50.8698 44.032 59 33.375 59C22.7083 59 16.0004 51.136 16 41.5961Z" fill="#FCFDFF" stroke="#B8C0CC" stroke-width="2"/>
<path d="M37.6984 50.2719H34.4558V53.5146C34.4558 54.1117 33.9721 54.5954 33.3749 54.5954C32.7777 54.5954 32.294 54.1117 32.294 53.5146V50.2719H29.0513C28.4542 50.2719 27.9705 49.7882 27.9705 49.191C27.9705 48.5938 28.4542 48.1102 29.0513 48.1102H32.294V44.8675C32.294 44.2703 32.7777 43.7866 33.3749 43.7866C33.9721 43.7866 34.4558 44.2703 34.4558 44.8675V48.1102H37.6984C38.2956 48.1102 38.7793 48.5938 38.7793 49.191C38.7793 49.7882 38.2956 50.2719 37.6984 50.2719Z" fill="#53A1FF"/>
</svg>
