<svg width="360" height="260" viewBox="0 0 360 260" fill="none" xmlns="http://www.w3.org/2000/svg">
<path d="M41 36V101C41 106.523 45.4772 111 51 111H115.5" stroke="#D7DEE2" stroke-width="2" stroke-linecap="round" stroke-dasharray="6 6"/>
<path d="M300 36V87C300 92.5228 295.523 97 290 97H251" stroke="#D7DEE2" stroke-width="2" stroke-linecap="round" stroke-dasharray="6 6"/>
<path d="M56 195V154C56 148.477 60.4772 144 66 144H115" stroke="#D7DEE2" stroke-width="2" stroke-linecap="round" stroke-dasharray="6 6"/>
<path d="M315 159V139C315 133.477 310.523 129 305 129H256" stroke="#D7DEE2" stroke-width="2" stroke-linecap="round" stroke-dasharray="6 6"/>
<path d="M116.407 63.4575C116.004 58.3305 119.304 53.5373 124.229 52.6466L181.398 42.306C182.457 42.1144 183.543 42.1144 184.602 42.306L241.771 52.6466C246.696 53.5373 249.996 58.3306 249.593 63.4575C248.54 76.8561 250.135 90.8174 251.687 104.409C251.982 106.992 252.275 109.562 252.549 112.112C254.269 128.153 255.2 143.411 250.995 156.694C246.781 170.009 233.427 180.726 219.43 188.62C205.487 196.484 191.162 201.405 185.375 203.235C183.819 203.726 182.181 203.726 180.625 203.235C174.838 201.405 160.513 196.484 146.57 188.62C132.573 180.726 119.219 170.009 115.005 156.694C110.8 143.411 111.731 128.153 113.451 112.112C113.725 109.562 114.018 106.992 114.313 104.409C115.865 90.8173 117.46 76.8561 116.407 63.4575Z" fill="#FCFDFF" stroke="#53A1FF" stroke-width="2"/>
<path d="M207 120H202.149V110.26C202.149 100.731 194.079 93 184.765 93C175.413 93 167.851 100.769 167.851 110.26V120H163V110.26C163 97.9716 172.781 88 184.765 88C196.776 88 207 97.9982 207 110.26V120Z" fill="#FCFDFF" stroke="#B8C0CC" stroke-width="2"/>
<path d="M210.255 158H159.745C157.129 158 155 155.867 155 153.222V124.778C155 122.133 157.129 120 159.745 120H210.255C212.871 120 215 122.133 215 124.778V153.232C215 155.866 212.872 158 210.255 158Z" fill="#FCFDFF" stroke="#53A1FF" stroke-width="2"/>
<path fill-rule="evenodd" clip-rule="evenodd" d="M188 141.889C188 143.439 186.696 144.778 185 144.778C183.304 144.778 182 143.439 182 141.889C182 140.339 183.304 139 185 139C186.705 139 188 140.33 188 141.889ZM186.364 147C186.364 146.76 186.525 146.551 186.751 146.469C188.647 145.774 190 143.983 190 141.889C190 139.183 187.767 137 185 137C182.242 137 180 139.193 180 141.889C180 143.983 181.353 145.774 183.249 146.469C183.475 146.551 183.636 146.76 183.636 147V151V152.273C183.636 152.674 183.962 153 184.364 153H185.636C186.038 153 186.364 152.674 186.364 152.273V151V147Z" fill="#B8C0CC"/>
<rect x="1" y="1" width="68" height="48" rx="5" fill="#FCFDFF" stroke="#B8C0CC" stroke-width="2"/>
<path d="M49 40C49 40.5523 48.5523 41 48 41H22C21.4477 41 21 40.5523 21 40C21 32.268 27.268 26 35 26C42.732 26 49 32.268 49 40Z" fill="white" stroke="#53A1FF" stroke-width="2" stroke-linecap="round"/>
<circle cx="34.6429" cy="15.5" r="6.5" fill="white" stroke="#53A1FF" stroke-width="2"/>
<path d="M55 31H54.9149V28.8412C54.9149 25.605 52.1029 23.0588 48.9285 23.0588C45.7159 23.0588 43.0851 25.6421 43.0851 28.8412V31H43V28.8412C43 25.6345 45.6474 23 48.9285 23C52.2365 23 55 25.6606 55 28.8412V31Z" fill="#FCFDFF" stroke="#B8C0CC" stroke-width="2"/>
<path d="M55.5174 41H42.4826C42.4045 41 42.2994 40.9655 42.1941 40.8424C42.087 40.7172 42 40.5168 42 40.2665V31.7335C42 31.4832 42.087 31.2828 42.1941 31.1576C42.2994 31.0345 42.4045 31 42.4826 31H55.5174C55.5955 31 55.7006 31.0345 55.8059 31.1576C55.913 31.2828 56 31.4832 56 31.7335V40.2695C56 40.5176 55.9135 40.7172 55.8063 40.8424C55.7009 40.9654 55.5956 41 55.5174 41Z" fill="#FCFDFF" stroke="#3DE0BF" stroke-width="2"/>
<path fill-rule="evenodd" clip-rule="evenodd" d="M49.3959 37.984C49.3959 37.9441 49.4198 37.9085 49.4553 37.8903C49.7784 37.7244 50 37.3876 50 37C50 36.4466 49.5534 36 49 36C48.4485 36 48 36.4485 48 37C48 37.3876 48.2215 37.7244 48.5447 37.8903C48.5802 37.9085 48.6041 37.9441 48.6041 37.984V38.9C48.6041 38.9552 48.6489 39 48.7041 39H49.2959C49.3511 39 49.3959 38.9552 49.3959 38.9V37.984Z" fill="#B8C0CC"/>
<rect x="285" y="161" width="74" height="98" rx="9" fill="#FCFDFF" stroke="#B8C0CC" stroke-width="2"/>
<path d="M298 219H346" stroke="#B8C0CC" stroke-width="2" stroke-linecap="round"/>
<path d="M298 228H346" stroke="#53A1FF" stroke-width="2" stroke-linecap="round"/>
<path d="M298 228H346" stroke="#B8C0CC" stroke-width="2" stroke-linecap="round"/>
<path d="M298 237H346" stroke="#B8C0CC" stroke-width="2" stroke-linecap="round"/>
<path d="M298 210H346" stroke="#B8C0CC" stroke-width="2" stroke-linecap="round"/>
<path d="M298 201H346" stroke="#B8C0CC" stroke-width="2" stroke-linecap="round"/>
<path d="M298 192H346" stroke="#3DE0BF" stroke-width="2" stroke-linecap="round"/>
<path d="M298 183H339" stroke="#3DE0BF" stroke-width="2" stroke-linecap="round"/>
<circle cx="346" cy="239" r="9" fill="#53A1FF"/>
<path d="M344.52 241.428C344.131 241.812 343.506 241.812 343.116 241.428L341.425 239.762C341.164 239.505 340.745 239.505 340.484 239.762C340.218 240.024 340.218 240.454 340.484 240.716L343.116 243.309C343.506 243.692 344.131 243.692 344.52 243.309L351.516 236.418C351.782 236.155 351.782 235.725 351.516 235.463C351.255 235.206 350.836 235.206 350.575 235.463L344.52 241.428Z" fill="#FCFDFF" stroke="#FCFDFF"/>
<path d="M29 186C29 185.448 29.4477 185 30 185H44.2522C44.4933 185 44.7263 185.087 44.9083 185.245L45.5644 184.491L44.9083 185.245L52.2795 191.654C52.8254 192.128 53.5245 192.39 54.2478 192.39H62H94C94.5523 192.39 95 192.837 95 193.39V224.632C95 225.184 94.5523 225.632 94 225.632H30C29.4477 225.632 29 225.184 29 224.632V186Z" fill="white" stroke="#D7DEE2" stroke-width="2"/>
<path d="M95 191.684C95 191.132 94.5523 190.684 94 190.684H79.7478C79.5067 190.684 79.2737 190.771 79.0917 190.929L78.4356 190.175L79.0917 190.929L71.7205 197.338C71.1746 197.812 70.4755 198.074 69.7522 198.074H62H30C29.4477 198.074 29 198.521 29 199.074V230.316C29 230.868 29.4477 231.316 30 231.316H94C94.5523 231.316 95 230.868 95 230.316V191.684Z" fill="white" stroke="#53A1FF" stroke-width="2"/>
<path d="M29 197C29 196.448 29.4477 196 30 196H44.2741C44.5086 196 44.7356 196.082 44.9155 196.233L52.3016 202.408C52.8413 202.86 53.5225 203.107 54.2259 203.107H62H94C94.5523 203.107 95 203.555 95 204.107V234C95 234.552 94.5523 235 94 235H30C29.4477 235 29 234.552 29 234V197Z" fill="white" stroke="#D7DEE2" stroke-width="2"/>
<circle cx="29.5" cy="227.5" r="8.5" fill="#FCFDFF" stroke="#3DE0BF" stroke-width="2"/>
<path d="M35 220L24 235" stroke="#3DE0BF" stroke-width="2"/>
<path d="M317.052 30.7142C316.75 31.4583 316.025 32 315.167 32H291V40H294C295.105 40 296 40.8954 296 42V50H304V42C304 40.8954 304.895 40 306 40H315.167C316.025 40 316.75 40.5417 317.052 41.2858C319.13 46.3985 324.146 50 330 50C337.723 50 344 43.7227 344 36C344 28.2773 337.723 22 330 22C324.146 22 319.13 25.6015 317.052 30.7142ZM336 36C336 39.3023 333.302 42 330 42C326.698 42 324 39.3023 324 36C324 32.6977 326.698 30 330 30C333.302 30 336 32.6977 336 36Z" fill="#FCFDFF" stroke="#53A1FF" stroke-width="2"/>
</svg>
