<svg width="571" height="441" viewBox="0 0 571 441" fill="none" xmlns="http://www.w3.org/2000/svg">
<g filter="url(#filter0_d)">
<path d="M504 80.5H92V22.6C92 14.8 98.2893 8.5 106.076 8.5H489.624C497.511 8.5 504 14.9 504 22.9V80.5Z" fill="#11ABD5"/>
<path d="M92 55.5H504V340.5C504 348.232 497.732 354.5 490 354.5H106C98.268 354.5 92 348.232 92 340.5V55.5Z" fill="white"/>
<path d="M296.914 125.836C297.554 125.836 297.874 126.108 297.874 126.652C297.874 127.217 297.554 127.5 296.914 127.5H291.506C290.856 127.5 290.53 127.217 290.53 126.652C290.53 126.108 290.856 125.836 291.506 125.836H293.17V118.54L291.634 119.484C291.485 119.569 291.352 119.612 291.234 119.612C291.01 119.612 290.818 119.516 290.658 119.324C290.509 119.132 290.434 118.919 290.434 118.684C290.434 118.375 290.573 118.135 290.85 117.964L293.33 116.428C293.65 116.236 293.954 116.14 294.242 116.14C294.541 116.14 294.781 116.231 294.962 116.412C295.144 116.593 295.234 116.844 295.234 117.164V125.836H296.914ZM306.46 125.836C307.1 125.836 307.42 126.108 307.42 126.652C307.42 127.217 307.1 127.5 306.46 127.5H300.38C300.103 127.5 299.884 127.42 299.724 127.26C299.564 127.089 299.484 126.881 299.484 126.636C299.484 126.316 299.607 126.028 299.852 125.772L303.5 121.852C303.948 121.361 304.274 120.913 304.476 120.508C304.69 120.092 304.796 119.681 304.796 119.276C304.796 118.775 304.652 118.391 304.364 118.124C304.076 117.857 303.666 117.724 303.132 117.724C302.695 117.724 302.268 117.809 301.852 117.98C301.447 118.14 301.036 118.364 300.62 118.652C300.514 118.727 300.407 118.791 300.3 118.844C300.194 118.887 300.087 118.908 299.98 118.908C299.799 118.908 299.639 118.823 299.5 118.652C299.372 118.481 299.308 118.279 299.308 118.044C299.308 117.884 299.335 117.745 299.388 117.628C299.452 117.511 299.548 117.399 299.676 117.292C300.146 116.919 300.695 116.625 301.324 116.412C301.954 116.188 302.583 116.076 303.212 116.076C304.311 116.076 305.186 116.353 305.836 116.908C306.498 117.463 306.828 118.209 306.828 119.148C306.828 119.799 306.69 120.412 306.412 120.988C306.135 121.553 305.666 122.188 305.004 122.892L302.236 125.836H306.46ZM294.526 141.268C294.59 141.407 294.622 141.545 294.622 141.684C294.622 141.929 294.521 142.137 294.318 142.308C294.126 142.479 293.902 142.564 293.646 142.564C293.475 142.564 293.315 142.521 293.166 142.436C293.017 142.34 292.899 142.196 292.814 142.004L291.854 139.86H286.222L285.262 142.004C285.177 142.196 285.059 142.34 284.91 142.436C284.761 142.521 284.595 142.564 284.414 142.564C284.169 142.564 283.945 142.479 283.742 142.308C283.539 142.137 283.438 141.929 283.438 141.684C283.438 141.545 283.47 141.407 283.534 141.268L287.95 131.78C288.046 131.567 288.19 131.407 288.382 131.3C288.585 131.183 288.798 131.124 289.022 131.124C289.246 131.124 289.454 131.183 289.646 131.3C289.849 131.407 289.998 131.567 290.094 131.78L294.526 141.268ZM286.926 138.26H291.15L289.038 133.508L286.926 138.26ZM302.177 134.516C302.486 134.516 302.732 134.601 302.913 134.772C303.094 134.943 303.185 135.172 303.185 135.46V141.668C303.185 141.945 303.089 142.169 302.897 142.34C302.716 142.511 302.476 142.596 302.177 142.596C301.889 142.596 301.66 142.516 301.489 142.356C301.318 142.196 301.233 141.977 301.233 141.7V141.3C300.988 141.727 300.657 142.057 300.241 142.292C299.825 142.516 299.356 142.628 298.833 142.628C296.913 142.628 295.953 141.551 295.953 139.396V135.46C295.953 135.172 296.044 134.943 296.225 134.772C296.406 134.601 296.646 134.516 296.945 134.516C297.254 134.516 297.5 134.601 297.681 134.772C297.862 134.943 297.953 135.172 297.953 135.46V139.412C297.953 139.967 298.065 140.377 298.289 140.644C298.513 140.911 298.865 141.044 299.345 141.044C299.9 141.044 300.342 140.863 300.673 140.5C301.014 140.127 301.185 139.636 301.185 139.028V135.46C301.185 135.172 301.276 134.943 301.457 134.772C301.638 134.601 301.878 134.516 302.177 134.516ZM311.891 134.516C312.189 134.516 312.429 134.601 312.611 134.772C312.792 134.943 312.883 135.172 312.883 135.46V141.78C312.883 143.007 312.541 143.935 311.859 144.564C311.176 145.193 310.168 145.508 308.835 145.508C307.672 145.508 306.701 145.289 305.923 144.852C305.528 144.617 305.331 144.335 305.331 144.004C305.331 143.769 305.384 143.583 305.491 143.444C305.608 143.305 305.757 143.236 305.939 143.236C306.035 143.236 306.152 143.257 306.291 143.3C306.429 143.353 306.573 143.412 306.723 143.476C307.107 143.636 307.448 143.759 307.747 143.844C308.056 143.929 308.408 143.972 308.803 143.972C310.2 143.972 310.899 143.289 310.899 141.924V140.9C310.664 141.337 310.323 141.679 309.875 141.924C309.427 142.159 308.915 142.276 308.339 142.276C307.656 142.276 307.048 142.116 306.515 141.796C305.992 141.465 305.581 141.007 305.283 140.42C304.984 139.833 304.835 139.156 304.835 138.388C304.835 137.62 304.979 136.943 305.267 136.356C305.565 135.759 305.981 135.3 306.515 134.98C307.048 134.649 307.656 134.484 308.339 134.484C308.915 134.484 309.427 134.607 309.875 134.852C310.323 135.087 310.664 135.423 310.899 135.86V135.444C310.899 135.167 310.989 134.943 311.171 134.772C311.352 134.601 311.592 134.516 311.891 134.516ZM308.867 140.724C309.507 140.724 310.003 140.516 310.355 140.1C310.717 139.684 310.899 139.113 310.899 138.388C310.899 137.652 310.717 137.076 310.355 136.66C310.003 136.244 309.507 136.036 308.867 136.036C308.237 136.036 307.741 136.244 307.379 136.66C307.016 137.076 306.835 137.652 306.835 138.388C306.835 139.113 307.016 139.684 307.379 140.1C307.741 140.516 308.237 140.724 308.867 140.724Z" fill="#11ABD5"/>
<path opacity="0.16" d="M462.8 44.1999C469.925 44.1999 475.7 38.4244 475.7 31.2999C475.7 24.1754 469.925 18.3999 462.8 18.3999C455.676 18.3999 449.9 24.1754 449.9 31.2999C449.9 38.4244 455.676 44.1999 462.8 44.1999Z" fill="white"/>
<mask id="mask0" mask-type="alpha" maskUnits="userSpaceOnUse" x="449" y="18" width="27" height="27">
<path d="M462.8 44.1999C469.925 44.1999 475.7 38.4244 475.7 31.2999C475.7 24.1754 469.925 18.3999 462.8 18.3999C455.676 18.3999 449.9 24.1754 449.9 31.2999C449.9 38.4244 455.676 44.1999 462.8 44.1999Z" fill="white"/>
</mask>
<g mask="url(#mask0)">
<path d="M462.801 34.2998C465.286 34.2998 467.301 32.2851 467.301 29.7998C467.301 27.3145 465.286 25.2998 462.801 25.2998C460.315 25.2998 458.301 27.3145 458.301 29.7998C458.301 32.2851 460.315 34.2998 462.801 34.2998Z" stroke="white" stroke-miterlimit="10"/>
<path d="M471.2 41.6998C470.7 37.4998 467.1 34.2998 462.8 34.2998C458.5 34.2998 454.9 37.4998 454.4 41.6998" stroke="white" stroke-miterlimit="10"/>
</g>
<path opacity="0.16" d="M433.9 35.8H398.2C395.7 35.8 393.7 33.8 393.7 31.3C393.7 28.8 395.7 26.8 398.2 26.8H433.9C436.4 26.8 438.4 28.8 438.4 31.3C438.3 33.8 436.3 35.8 433.9 35.8Z" fill="white"/>
<path opacity="0.16" d="M378.6 35.8H342.9C340.4 35.8 338.4 33.8 338.4 31.3C338.4 28.8 340.4 26.8 342.9 26.8H378.6C381.1 26.8 383.1 28.8 383.1 31.3C383.1 33.8 381.1 35.8 378.6 35.8Z" fill="white"/>
<path opacity="0.16" d="M322.9 35.8H287.2C284.7 35.8 282.7 33.8 282.7 31.3C282.7 28.8 284.7 26.8 287.2 26.8H322.9C325.4 26.8 327.4 28.8 327.4 31.3C327.3 33.8 325.3 35.8 322.9 35.8Z" fill="white"/>
<path opacity="0.16" d="M168.3 42.0001H134.9C129 42.0001 124.2 37.2001 124.2 31.3001C124.2 25.4001 129 20.6001 134.9 20.6001H168.4C174.3 20.6001 179.1 25.4001 179.1 31.3001C179.1 37.2001 174.3 42.0001 168.3 42.0001Z" fill="white"/>
<path opacity="0.12" d="M377.2 184.5H219.5C217 184.5 215 182.5 215 180C215 177.5 217 175.5 219.5 175.5H377.2C379.7 175.5 381.7 177.5 381.7 180C381.7 182.5 379.7 184.5 377.2 184.5Z" fill="#11ABD5"/>
<rect x="263.75" y="94.25" width="68.5" height="60.5" rx="4.25" stroke="#11ABD5" stroke-width="1.5"/>
<path d="M280.043 89.1667V99.4014" stroke="#11ABD5" stroke-width="1.5" stroke-linecap="round" stroke-linejoin="round"/>
<path d="M315.291 89.1667V99.4014" stroke="#11ABD5" stroke-width="1.5" stroke-linecap="round" stroke-linejoin="round"/>
<path d="M264 106.5H332" stroke="#11ABD5" stroke-width="1.5" stroke-linecap="round" stroke-linejoin="round"/>
<rect opacity="0.12" x="253" y="192.5" width="91" height="9" rx="4.5" fill="#11ABD5"/>
<rect opacity="0.06" x="201" y="243.5" width="194" height="62" rx="4" fill="#11ABD5"/>
<path d="M229.167 281.333H226.667C226.208 281.333 225.833 281.708 225.833 282.167C225.833 282.625 226.208 283 226.667 283H229.167C230.542 283 231.667 284.125 231.667 285.5C231.667 286.875 230.542 288 229.167 288H226.667C226.208 288 225.833 288.375 225.833 288.833C225.833 289.292 226.208 289.667 226.667 289.667H229.167C231.467 289.667 233.333 287.8 233.333 285.5C233.333 283.2 231.467 281.333 229.167 281.333ZM221.667 285.5C221.667 285.958 222.042 286.333 222.5 286.333H227.5C227.958 286.333 228.333 285.958 228.333 285.5C228.333 285.042 227.958 284.667 227.5 284.667H222.5C222.042 284.667 221.667 285.042 221.667 285.5ZM223.333 288H220.833C219.458 288 218.333 286.875 218.333 285.5C218.333 284.125 219.458 283 220.833 283H223.333C223.792 283 224.167 282.625 224.167 282.167C224.167 281.708 223.792 281.333 223.333 281.333H220.833C218.533 281.333 216.667 283.2 216.667 285.5C216.667 287.8 218.533 289.667 220.833 289.667H223.333C223.792 289.667 224.167 289.292 224.167 288.833C224.167 288.375 223.792 288 223.333 288Z" fill="#11ABD5"/>
<path d="M225.333 269.167C229.383 269.167 232.667 265.883 232.667 261.833C232.667 257.783 229.383 254.5 225.333 254.5C221.283 254.5 218 257.783 218 261.833C218 265.883 221.283 269.167 225.333 269.167Z" stroke="#11ABD5" stroke-width="1.5" stroke-linecap="round" stroke-linejoin="round"/>
<path d="M225.333 257.833V262L228 264.5" stroke="#11ABD5" stroke-width="1.5" stroke-linecap="round" stroke-linejoin="round"/>
<rect opacity="0.16" x="241" y="257.5" width="139" height="9" rx="4.5" fill="#11ABD5"/>
<rect opacity="0.16" x="241" y="280.5" width="139" height="9" rx="4.5" fill="#11ABD5"/>
</g>
<g filter="url(#filter1_d)">
<rect x="24" y="104.5" width="100" height="110" rx="4" fill="white"/>
</g>
<path opacity="0.12" d="M24 108.5C24 106.291 25.7909 104.5 28 104.5H120C122.209 104.5 124 106.291 124 108.5V122.5H24V108.5Z" fill="#11ABD5"/>
<rect opacity="0.12" x="40" y="138.5" width="30" height="26" rx="4" fill="#11ABD5"/>
<rect opacity="0.12" x="78" y="138.5" width="30" height="26" rx="4" fill="#11ABD5"/>
<rect x="40" y="172.5" width="30" height="26" rx="4" fill="#11ABD5"/>
<rect opacity="0.12" x="78" y="172.5" width="30" height="26" rx="4" fill="#11ABD5"/>
<path d="M53 104.5C53 98.9772 50.0899 94.5 46.5 94.5C42.9101 94.5 40 98.9772 40 104.5C40 110.023 42.9101 114.5 46.5 114.5" stroke="#11ABD5" stroke-width="2"/>
<path d="M81 104.5C81 98.9772 78.0899 94.5 74.5 94.5C70.9101 94.5 68 98.9772 68 104.5C68 110.023 70.9101 114.5 74.5 114.5" stroke="#11ABD5" stroke-width="2"/>
<path d="M108 104.5C108 98.9772 105.09 94.5 101.5 94.5C97.9101 94.5 95 98.9772 95 104.5C95 110.023 97.9101 114.5 101.5 114.5" stroke="#11ABD5" stroke-width="2"/>
<path d="M47 187.75L50.8095 191.5L63 179.5" stroke="white" stroke-width="2" stroke-linecap="round" stroke-linejoin="round"/>
<g filter="url(#filter2_d)">
<rect x="405" y="231.5" width="142" height="172" rx="14" fill="white"/>
</g>
<rect opacity="0.06" x="405" y="265.5" width="142" height="100" fill="#11ABD5"/>
<path d="M405 245.5C405 237.768 411.268 231.5 419 231.5H533C540.732 231.5 547 237.768 547 245.5V265.5H405V245.5Z" fill="#11ABD5"/>
<g clip-path="url(#clip0)">
<path d="M468.663 243.505H468.657C465.866 243.505 463.606 245.743 463.606 248.497C463.606 251.257 465.866 253.495 468.657 253.495C471.449 253.495 473.714 251.262 473.714 248.502C473.714 245.743 471.455 243.505 468.663 243.505ZM470.799 250.619C469.611 251.788 467.693 251.783 466.51 250.614C465.333 249.445 465.333 247.549 466.51 246.38C467.693 245.206 469.611 245.206 470.799 246.375L470.805 246.38C471.993 247.549 471.987 249.45 470.799 250.619Z" fill="white"/>
<path d="M462.594 251.525L462.088 251.499H457.538L463.606 245.501L463.58 245.001C463.558 244.195 462.903 243.547 462.088 243.526L461.582 243.5H454L454.027 244C454.064 244.795 454.709 245.438 455.518 245.475L456.025 245.501H460.575L454.506 251.499L454.533 251.999C454.559 252.8 455.215 253.447 456.025 253.474L456.531 253.5H464.112L464.086 253C464.017 252.173 463.425 251.573 462.594 251.525Z" fill="white"/>
<path d="M494.951 243.505C493.789 243.505 492.686 244 491.919 244.859C490.577 243.353 488.307 243.063 486.623 244.19C486.234 243.753 485.35 243.505 484.844 243.505V253.5L485.35 253.474C486.192 253.421 486.81 252.831 486.842 251.999L486.868 251.499V248.002L486.895 247.502C486.895 247.155 486.986 246.812 487.145 246.502C487.7 245.549 488.936 245.222 489.905 245.775C490.209 245.949 490.465 246.202 490.641 246.502H490.635C490.8 246.812 490.886 247.155 490.886 247.502L490.912 248.002V251.499L490.939 251.999C490.971 252.8 491.616 253.442 492.425 253.474L492.932 253.5V248.002L492.958 247.502C492.958 247.149 493.043 246.807 493.209 246.496C493.768 245.543 495.009 245.217 495.974 245.775C496.278 245.949 496.533 246.202 496.709 246.502C496.869 246.812 496.954 247.155 496.954 247.502L496.981 248.002V251.499L497.007 251.999C497.034 252.8 497.684 253.442 498.494 253.474L499 253.5V247.502C498.995 245.296 497.183 243.505 494.951 243.505Z" fill="white"/>
<path d="M482.851 244.969C481.902 244.032 480.618 243.505 479.276 243.505C477.933 243.505 476.649 244.032 475.701 244.969C473.729 246.923 473.729 250.088 475.706 252.036C477.683 253.984 480.885 253.984 482.856 252.031C484.833 250.082 484.827 246.917 482.851 244.969ZM481.417 250.619C480.229 251.788 478.311 251.783 477.128 250.614C475.951 249.445 475.951 247.549 477.128 246.38C478.311 245.206 480.229 245.206 481.417 246.375L481.423 246.38C482.611 247.549 482.606 249.45 481.417 250.619Z" fill="white"/>
</g>
<path d="M503 380.5V388.5H493V380.5H503ZM504 378.5H492C491.45 378.5 491 378.95 491 379.5V389.5C491 390.05 491.45 390.5 492 390.5H504C504.55 390.5 505 390.05 505 389.5V386L509 390V379L505 383V379.5C505 378.95 504.55 378.5 504 378.5Z" fill="#11ABD5"/>
<path d="M457 386.333C458.521 386.333 459.75 385.105 459.75 383.583V378.083C459.75 376.562 458.521 375.333 457 375.333C455.478 375.333 454.25 376.562 454.25 378.083V383.583C454.25 385.105 455.478 386.333 457 386.333ZM456.083 378.083C456.083 377.579 456.496 377.167 457 377.167C457.504 377.167 457.916 377.579 457.916 378.083V383.583C457.916 384.087 457.504 384.5 457 384.5C456.496 384.5 456.083 384.087 456.083 383.583V378.083ZM461.583 383.583C461.583 386.113 459.53 388.167 457 388.167C454.47 388.167 452.416 386.113 452.416 383.583H450.583C450.583 386.819 452.976 389.477 456.083 389.927V392.75H457.916V389.927C461.024 389.477 463.416 386.819 463.416 383.583H461.583Z" fill="#11ABD5"/>
<path opacity="0.4" d="M490.5 316.134C491.167 316.519 491.167 317.481 490.5 317.866L470.25 329.557C469.583 329.942 468.75 329.461 468.75 328.691L468.75 305.309C468.75 304.539 469.583 304.058 470.25 304.443L490.5 316.134Z" stroke="#11ABD5" stroke-width="2"/>
<defs>
<filter id="filter0_d" x="78" y="0.5" width="440" height="374" filterUnits="userSpaceOnUse" color-interpolation-filters="sRGB">
<feFlood flood-opacity="0" result="BackgroundImageFix"/>
<feColorMatrix in="SourceAlpha" type="matrix" values="0 0 0 0 0 0 0 0 0 0 0 0 0 0 0 0 0 0 127 0"/>
<feOffset dy="6"/>
<feGaussianBlur stdDeviation="7"/>
<feColorMatrix type="matrix" values="0 0 0 0 0.183073 0 0 0 0 0.395437 0 0 0 0 0.4625 0 0 0 0.16 0"/>
<feBlend mode="normal" in2="BackgroundImageFix" result="effect1_dropShadow"/>
<feBlend mode="normal" in="SourceGraphic" in2="effect1_dropShadow" result="shape"/>
</filter>
<filter id="filter1_d" x="0" y="93.5" width="148" height="158" filterUnits="userSpaceOnUse" color-interpolation-filters="sRGB">
<feFlood flood-opacity="0" result="BackgroundImageFix"/>
<feColorMatrix in="SourceAlpha" type="matrix" values="0 0 0 0 0 0 0 0 0 0 0 0 0 0 0 0 0 0 127 0"/>
<feOffset dy="13"/>
<feGaussianBlur stdDeviation="12"/>
<feColorMatrix type="matrix" values="0 0 0 0 0.184314 0 0 0 0 0.396078 0 0 0 0 0.462745 0 0 0 0.2 0"/>
<feBlend mode="normal" in2="BackgroundImageFix" result="effect1_dropShadow"/>
<feBlend mode="normal" in="SourceGraphic" in2="effect1_dropShadow" result="shape"/>
</filter>
<filter id="filter2_d" x="381" y="220.5" width="190" height="220" filterUnits="userSpaceOnUse" color-interpolation-filters="sRGB">
<feFlood flood-opacity="0" result="BackgroundImageFix"/>
<feColorMatrix in="SourceAlpha" type="matrix" values="0 0 0 0 0 0 0 0 0 0 0 0 0 0 0 0 0 0 127 0"/>
<feOffset dy="13"/>
<feGaussianBlur stdDeviation="12"/>
<feColorMatrix type="matrix" values="0 0 0 0 0.184314 0 0 0 0 0.396078 0 0 0 0 0.462745 0 0 0 0.2 0"/>
<feBlend mode="normal" in2="BackgroundImageFix" result="effect1_dropShadow"/>
<feBlend mode="normal" in="SourceGraphic" in2="effect1_dropShadow" result="shape"/>
</filter>
<clipPath id="clip0">
<rect width="45" height="10" fill="white" transform="translate(454 243.5)"/>
</clipPath>
</defs>
</svg>
