<svg width="106" height="109" viewBox="0 0 106 109" fill="none" xmlns="http://www.w3.org/2000/svg">
<path d="M52.86 105.72C82.0538 105.72 105.72 82.0538 105.72 52.86C105.72 23.6662 82.0538 0 52.86 0C23.6662 0 0 23.6662 0 52.86C0 82.0538 23.6662 105.72 52.86 105.72Z" fill="#F5F8FA"/>
<path d="M77.2941 85.3868C76.2836 86.1627 75.6093 87.3664 75.6093 88.7067V88.717V88.7273V88.7377V88.748V88.7584V88.7687V88.779V88.7894V88.7997V88.81V88.8204V88.8307V88.8411V88.8514V88.8617V88.8721V88.8824V88.8928V88.9031V88.9134V88.9238V88.9341V88.9444V88.9548V88.9651V88.9755V88.9858V88.9961V89.0065V89.0168V89.0272V89.0375V89.0478V89.0582V89.0685V89.0788V89.0892V89.0995V89.1099V89.1202V89.1305V89.1409V89.1512V89.1616V89.1719V89.1822V89.1926V89.2029V89.2132V89.2236V89.2339V89.2443V89.2546V89.2649V89.2753V89.2856V89.296V89.3063V89.3166V89.327V89.3373V89.3476V89.358V89.3683V89.3787V89.389V89.3993V89.4097V89.42V89.4304V89.4407V89.451V89.4614V89.4717V89.4821V89.4924V89.5027V89.5131V89.5234V89.5337V89.5441V89.5544V89.5648V89.5751V89.5854V89.5958V89.6061V89.6165V89.6268V89.6371V89.6475V89.6578V89.6681V89.6785V89.6888V89.6992V89.7095V89.7198V89.7302V89.7405V89.7509V89.7612V89.7715V89.7819V89.7922V89.8025V89.8129V89.8232V89.8336V89.8439V89.8542V89.8646V89.8749V89.8853V89.8956V89.9059V89.9163V89.9266V89.9369V89.9473V89.9576V89.968V89.9783V89.9886V89.999V90.0093V90.0197V90.03V90.0403V90.0507V90.061V90.0714V90.0817V90.092V90.1024V90.1127V90.123V90.1334V90.1437V90.1541V90.1644V90.1747V90.1851V90.1954V90.2057V90.2161V90.2264V90.2368V90.2471V90.2574V90.2678V90.2781V90.2885V90.2988V90.3091V90.3195V90.3298V90.3402V90.3505V90.3608V90.3712V90.3815V90.3918V90.4022V90.4125V90.4229V90.4332V90.4435V90.4539V90.4642V90.4746V90.4849V90.4952V90.5056V90.5159V90.5262V90.5366V90.5469V90.5573V90.5676V90.5779V90.5883V90.5986V90.609V90.6193V90.6296V90.64V90.6503V90.6606V90.671V90.6813V90.6917V90.702V90.7123V90.7227V90.733V90.7434V90.7537V90.764V90.7744V90.7847V90.795V90.8054V90.8157V90.8261V90.8364V90.8467V90.8571V90.8674V90.8778V90.8881V90.8984V90.9088V90.9191V90.9295V90.9398V90.9501V90.9605V90.9708V90.9811V90.9915V91.0018V91.0122V91.0225V91.0328V91.0432V91.0535V91.0639V91.0742V91.0845V91.0949V91.1052V91.1155V91.1259V91.1362V91.1466V91.1569V91.1672V91.1776V91.1879V91.1983V91.2086V91.2189V91.2293V91.2396V91.2499V91.2603V91.2706V91.281V91.2913V91.3016V91.312V91.3223V91.3327V91.343V91.3533V91.3637V91.374V91.3843V91.3947V91.405V91.4154V91.4257V91.436V91.4464V91.4567V91.4671V91.4774V91.4877V91.4981V91.5084V91.5187V91.5291V91.5394V91.5498V91.5601V91.5704V91.5808V91.5911V91.6015V91.6118V91.6221V91.6325V91.6428V91.6531V91.6635V91.6738V91.6842V91.6945V91.7048V91.7152V91.7255V91.7359V91.7462V91.7565V91.7669V91.7772V91.7875V91.7979V91.8082V91.8186V91.8289V91.8392V91.8496V91.8599V91.8703V91.8806V91.8909V91.9013V91.9116V91.922V91.9323V91.9426V91.953V91.9633V91.9736V91.984V91.9943V92.0047V92.015V92.0253V92.0357V92.046V92.0564V92.0667V92.077V92.0874V92.0977V92.108V92.1184V92.1287V92.1391V92.1494V92.1597V92.1701V92.1804V92.1908V92.2011V92.2114V92.2218V92.2321V92.2424V92.2528V92.2631V92.2735V92.2838V92.2941V92.3045V92.3148V92.3252V92.3355V92.3458V92.3562V92.3665V92.3768V92.3872V92.3975V92.4079V92.4182V92.4285V92.4389V92.4492V92.4596V92.4699V92.4802V92.4906V92.5009V92.5112V92.5216V92.5319V92.5423V92.5526V92.5629V92.5733V92.5836V92.594V92.6043V92.6146V92.625V92.6353V92.6456V92.656V92.6663V92.6767V92.687V92.6973V92.7077V92.718V92.7284V92.7387V92.749V92.7594V92.7697V92.7801V92.7904V92.8007V92.8111V92.8214V92.8317V92.8421V92.8524V92.8628V92.8731V92.8834V92.8938V92.9041V92.9145V92.9248V92.9351V92.9455V92.9558V92.9661V92.9765V92.9868V92.9972V93.0075V93.0178V93.0282V93.0385V93.0489V93.0592V93.0695V93.0799V93.0902V93.1005V93.1109V93.1212V93.1316V93.1419V93.1522V93.1626V93.1729V93.1833V93.1936V93.2039V93.2143V93.2246V93.2349V93.2453V93.2556V93.266V93.2763V93.2866V93.297V93.3073V93.3177V93.328V93.3383V93.3487V93.359V93.3693V93.3797V93.39V93.4004V93.4107V93.421V93.4314V93.4417V93.4521V93.4624V93.4727V93.4831V93.4934V93.5037V93.5141V93.5244V93.5348V93.5451V93.5554V93.5658V93.5761V93.5865V93.5968V93.6071V93.6175V93.6278V93.6381V93.6485V93.6588V93.6692V93.6795V93.6898V93.7002V93.7105V93.7209V93.7312V93.7415V93.7519V93.7622V93.7726V93.7829V93.7932V93.8036V93.8139V93.8242V93.8346V93.8449V93.8553V93.8656V93.8759V93.8863V93.8966V93.907V93.9173V93.9276V93.938V93.9483V93.9586V93.969V93.9793V93.9897V94C75.6093 95.6569 74.2661 97 72.6093 97H51.3592C49.7023 97 48.3592 95.6569 48.3592 94V93.9896V93.9792V93.9688V93.9585V93.9481V93.9377V93.9273V93.9169V93.9065V93.8962V93.8858V93.8754V93.865V93.8546V93.8442V93.8339V93.8235V93.8131V93.8027V93.7923V93.7819V93.7715V93.7612V93.7508V93.7404V93.73V93.7196V93.7092V93.6989V93.6885V93.6781V93.6677V93.6573V93.6469V93.6366V93.6262V93.6158V93.6054V93.595V93.5846V93.5742V93.5639V93.5535V93.5431V93.5327V93.5223V93.5119V93.5016V93.4912V93.4808V93.4704V93.46V93.4496V93.4393V93.4289V93.4185V93.4081V93.3977V93.3873V93.3769V93.3666V93.3562V93.3458V93.3354V93.325V93.3146V93.3043V93.2939V93.2835V93.2731V93.2627V93.2523V93.242V93.2316V93.2212V93.2108V93.2004V93.19V93.1796V93.1693V93.1589V93.1485V93.1381V93.1277V93.1173V93.107V93.0966V93.0862V93.0758V93.0654V93.055V93.0447V93.0343V93.0239V93.0135V93.0031V92.9927V92.9823V92.972V92.9616V92.9512V92.9408V92.9304V92.92V92.9097V92.8993V92.8889V92.8785V92.8681V92.8577V92.8474V92.837V92.8266V92.8162V92.8058V92.7954V92.785V92.7747V92.7643V92.7539V92.7435V92.7331V92.7227V92.7124V92.702V92.6916V92.6812V92.6708V92.6604V92.6501V92.6397V92.6293V92.6189V92.6085V92.5981V92.5877V92.5774V92.567V92.5566V92.5462V92.5358V92.5254V92.5151V92.5047V92.4943V92.4839V92.4735V92.4631V92.4528V92.4424V92.432V92.4216V92.4112V92.4008V92.3904V92.3801V92.3697V92.3593V92.3489V92.3385V92.3281V92.3178V92.3074V92.297V92.2866V92.2762V92.2658V92.2555V92.2451V92.2347V92.2243V92.2139V92.2035V92.1931V92.1828V92.1724V92.162V92.1516V92.1412V92.1308V92.1205V92.1101V92.0997V92.0893V92.0789V92.0685V92.0582V92.0478V92.0374V92.027V92.0166V92.0062V91.9958V91.9855V91.9751V91.9647V91.9543V91.9439V91.9335V91.9232V91.9128V91.9024V91.892V91.8816V91.8712V91.8609V91.8505V91.8401V91.8297V91.8193V91.8089V91.7985V91.7882V91.7778V91.7674V91.757V91.7466V91.7362V91.7259V91.7155V91.7051V91.6947V91.6843V91.6739V91.6636V91.6532V91.6428V91.6324V91.622V91.6116V91.6012V91.5909V91.5805V91.5701V91.5597V91.5493V91.5389V91.5286V91.5182V91.5078V91.4974V91.487V91.4766V91.4663V91.4559V91.4455V91.4351V91.4247V91.4143V91.4039V91.3936V91.3832V91.3728V91.3624V91.352V91.3416V91.3313V91.3209V91.3105V91.3001V91.2897V91.2793V91.269V91.2586V91.2482V91.2378V91.2274V91.217V91.2066V91.1963V91.1859V91.1755V91.1651V91.1547V91.1443V91.134V91.1236V91.1132V91.1028V91.0924V91.082V91.0717V91.0613V91.0509V91.0405V91.0301V91.0197V91.0093V90.999V90.9886V90.9782V90.9678V90.9574V90.947V90.9367V90.9263V90.9159V90.9055V90.8951V90.8847V90.8744V90.864V90.8536V90.8432V90.8328V90.8224V90.812V90.8017V90.7913V90.7809V90.7705V90.7601V90.7497V90.7394V90.729V90.7186V90.7082V90.6978V90.6874V90.6771V90.6667V90.6563V90.6459V90.6355V90.6251V90.6147V90.6044V90.594V90.5836V90.5732V90.5628V90.5524V90.5421V90.5317V90.5213V90.5109V90.5005V90.4901V90.4798V90.4694V90.459V90.4486V90.4382V90.4278V90.4174V90.4071V90.3967V90.3863V90.3759V90.3655V90.3551V90.3448V90.3344V90.324V90.3136V90.3032V90.2928V90.2825V90.2721V90.2617V90.2513V90.2409V90.2305V90.2201V90.2098V90.1994V90.189V90.1786V90.1682V90.1578V90.1475V90.1371V90.1267V90.1163V90.1059V90.0955V90.0852V90.0748V90.0644V90.054V90.0436V90.0332V90.0228V90.0125V90.0021V89.9917V89.9813V89.9709V89.9605V89.9502V89.9398V89.9294V89.919V89.9086V89.8982V89.8879V89.8775V89.8671V89.8567V89.8463V89.8359V89.8255V89.8152V89.8048V89.7944V89.784V89.7736V89.7632V89.7529V89.7425V89.7321V89.7217V89.7113V89.7009V89.6906V89.6802V89.6698V89.6594V89.649V89.6386V89.6282V89.6179V89.6075V89.5971V89.5867V89.5763V89.5659V89.5556V89.5452V89.5348V89.5244V89.514V89.5036V89.4932V89.4829V89.4725V89.4621V89.4517V89.4413V89.4309V89.4206V89.4102V89.3998V89.3894V89.379V89.3686V89.3583V89.3479V89.3375V89.3271V89.3167V89.3063V89.2959V89.2856V89.2752V89.2648V89.2544V89.244V89.2336V89.2233V89.2129V89.2025V89.1921V89.1817V89.1713V89.161V89.1506V89.1402V89.1298V89.1194V89.109V89.0986V89.0883V89.0779V89.0675V89.0571V89.0467V89.0363V89.026V89.0156V89.0052V88.9948V88.9844V88.974V88.9637V88.9533V88.9429V88.9325V88.9221V88.9117V88.9013V88.891V88.8806V88.8702V88.8598V88.8494V88.839V88.8287V88.8183V88.8079V88.7975V88.7871V88.7767V88.7664V88.756V88.7456V88.7352V88.7248V88.7144V88.704V88.6937V88.6833C48.3592 87.3451 47.6868 86.1428 46.6788 85.3668C40.7859 80.8301 36.9995 73.7435 36.9995 65.7821C36.9995 52.1032 48.1844 41 61.9995 41C75.8146 41 86.9995 52.1032 86.9995 65.7821C86.9995 73.7552 83.202 80.851 77.2941 85.3868Z" fill="white" stroke="#B8C0CC" stroke-width="2"/>
<path d="M62 90L62 72" stroke="#11ABD5" stroke-width="2" stroke-linecap="round"/>
<path d="M52.9995 96V99C52.9995 101.209 54.7904 103 56.9995 103H66.9995C69.2087 103 70.9995 101.209 70.9995 99V96" stroke="#B8C0CC" stroke-width="2"/>
<path d="M67.9995 102C67.9995 105.314 65.5371 108 62.4995 108C59.4619 108 56.9995 105.314 56.9995 102" stroke="#B8C0CC" stroke-width="2"/>
<path d="M61.9995 30V25" stroke="#11ABD5" stroke-width="2" stroke-linecap="round"/>
<path d="M23.9999 83.448L28.918 80.6085" stroke="#11ABD5" stroke-width="2" stroke-linecap="round"/>
<path d="M99.9996 83.448L95.0815 80.6085" stroke="#11ABD5" stroke-width="2" stroke-linecap="round"/>
<path d="M93.4966 45.4738L97.5122 41.4583" stroke="#11ABD5" stroke-width="2" stroke-linecap="round"/>
<path d="M30.5024 45.4738L26.4868 41.4583" stroke="#11ABD5" stroke-width="2" stroke-linecap="round"/>
<circle cx="62" cy="68" r="4" stroke="#11ABD5" stroke-width="2"/>
</svg>
