<svg width="106" height="109" viewBox="0 0 106 109" fill="none" xmlns="http://www.w3.org/2000/svg">
<path d="M52.86 105.72C82.0538 105.72 105.72 82.0538 105.72 52.86C105.72 23.6662 82.0538 0 52.86 0C23.6662 0 0 23.6662 0 52.86C0 82.0538 23.6662 105.72 52.86 105.72Z" fill="#F5F8FA"/>
<path d="M95.0321 75.2038V60.5864C95.0321 44.7986 82.2336 32 66.4457 32C50.6579 32 37.8594 44.7985 37.8594 60.5864V75.2038C37.8594 94.9497 60.536 107.293 66.4457 107.293C68.1655 107.293 72.5 105.5 74.4494 104.351C94 100.5 91.2554 87.9035 91.2554 87.9035C93.5545 84.0035 95.0321 79.708 95.0321 75.2038Z" fill="white"/>
<path d="M74.4494 104.537C70.8619 106.706 68.1655 107.479 66.4457 107.479C60.536 107.479 37.8594 95.136 37.8594 75.3901L37.8594 60.7726C37.8594 44.9848 50.6579 32.1863 66.4457 32.1863C82.2335 32.1863 95.0321 44.9848 95.0321 60.7727V75.3901C95.0321 79.8943 93.5545 84.1898 91.2554 88.0898" stroke="#B8C0CC" stroke-width="2" stroke-linecap="round"/>
<path d="M82.2125 36.9874C82.2125 28.7101 75.1657 22 66.4732 22C57.7806 22 50.7339 28.7101 50.7339 36.9874" stroke="#B8C0CC" stroke-width="2"/>
<path d="M74.408 52.1664C74.8449 51.8285 74.9251 51.2004 74.5873 50.7636C74.2494 50.3267 73.6213 50.2465 73.1844 50.5844L74.408 52.1664ZM37.8438 68.6983C44.1607 67.7625 60.1956 63.1588 74.408 52.1664L73.1844 50.5844C59.2863 61.3337 43.5871 65.8256 37.5507 66.7199L37.8438 68.6983Z" fill="#B8C0CC"/>
<path d="M38.7164 81.2023C34.4547 81.2023 31 78.2904 31 74.6985V70.9493C31 67.3574 34.4547 64.4455 38.7164 64.4455" stroke="#B8C0CC" stroke-width="2"/>
<path d="M94.2836 81.2023C98.5453 81.2023 102 78.2904 102 74.6985V70.9493C102 67.3574 98.5453 64.4455 94.2836 64.4455" stroke="#B8C0CC" stroke-width="2"/>
<path d="M68.979 54.7691C73.6504 62.0422 80.888 67.6006 94.228 67.6006" stroke="#B8C0CC" stroke-width="2" stroke-linecap="round"/>
<path d="M48.1523 72.8757C50.2537 75.4955 55.4892 75.8216 57.8103 72.8757" stroke="#B8C0CC" stroke-width="2" stroke-linecap="round"/>
<path d="M74.8789 72.8757C76.9802 75.4955 82.2158 75.8216 84.5369 72.8757" stroke="#B8C0CC" stroke-width="2" stroke-linecap="round"/>
<path d="M80.0171 99.7869L87.8076 107.771M87.0818 94.0287L96.3723 103.416" stroke="#11ABD5" stroke-width="2" stroke-linecap="round"/>
<path d="M69.4336 95.2765L79.8791 99.9769L86.6353 93.3539L81.9807 82.527C74.2606 83.3353 69.9776 88.9396 69.4336 95.2765Z" stroke="#11ABD5" stroke-width="2" stroke-linejoin="round"/>
</svg>
