<svg width="512" height="416" viewBox="0 0 512 416" fill="none" xmlns="http://www.w3.org/2000/svg">
<g filter="url(#filter0_d)">
<path d="M447.013 107.687H14.0254V46.8371C14.0254 38.6397 20.6351 32.0188 28.8185 32.0188H431.905C440.194 32.0188 447.013 38.7448 447.013 47.1524V107.687Z" fill="#11ABD5"/>
<path d="M14.0254 81.4131H447.013V381.645C447.013 389.377 440.745 395.645 433.013 395.645H28.0254C20.2934 395.645 14.0254 389.377 14.0254 381.645V81.4131Z" fill="white"/>
<path opacity="0.1" d="M14.0254 162.335L447.013 162.335" stroke="#11ABD5" stroke-width="2" stroke-miterlimit="10"/>
<rect opacity="0.12" x="41.3501" y="107.687" width="37.8339" height="37.8339" rx="4" fill="#11ABD5"/>
<rect opacity="0.12" x="41.3501" y="179.151" width="37.8339" height="37.8339" rx="4" fill="#11ABD5"/>
<path opacity="0.06" d="M14.0254 315.773H447.013V381.644C447.013 389.376 440.745 395.644 433.013 395.644H28.0254C20.2934 395.644 14.0254 389.376 14.0254 381.644V315.773Z" fill="#11ABD5"/>
<path opacity="0.16" d="M403.714 69.5374C411.202 69.5374 417.272 63.4676 417.272 55.9802C417.272 48.4928 411.202 42.4231 403.714 42.4231C396.227 42.4231 390.157 48.4928 390.157 55.9802C390.157 63.4676 396.227 69.5374 403.714 69.5374Z" fill="white"/>
<mask id="mask0" mask-type="alpha" maskUnits="userSpaceOnUse" x="390" y="42" width="28" height="28">
<path d="M403.714 69.5374C411.202 69.5374 417.272 63.4676 417.272 55.9802C417.272 48.4928 411.202 42.4231 403.714 42.4231C396.227 42.4231 390.157 48.4928 390.157 55.9802C390.157 63.4676 396.227 69.5374 403.714 69.5374Z" fill="white"/>
</mask>
<g mask="url(#mask0)">
<path d="M403.714 59.1328C406.326 59.1328 408.443 57.0154 408.443 54.4036C408.443 51.7917 406.326 49.6743 403.714 49.6743C401.102 49.6743 398.985 51.7917 398.985 54.4036C398.985 57.0154 401.102 59.1328 403.714 59.1328Z" stroke="white" stroke-miterlimit="10"/>
<path d="M412.542 66.9098C412.017 62.4958 408.233 59.1328 403.714 59.1328C399.195 59.1328 395.412 62.4958 394.886 66.9098" stroke="white" stroke-miterlimit="10"/>
</g>
<path opacity="0.16" d="M373.343 60.7097H335.824C333.197 60.7097 331.095 58.6078 331.095 55.9805C331.095 53.3531 333.197 51.2512 335.824 51.2512H373.343C375.97 51.2512 378.072 53.3531 378.072 55.9805C377.967 58.6078 375.865 60.7097 373.343 60.7097Z" fill="white"/>
<path opacity="0.16" d="M315.225 60.7097H277.707C275.079 60.7097 272.978 58.6078 272.978 55.9805C272.978 53.3531 275.079 51.2512 277.707 51.2512H315.225C317.853 51.2512 319.955 53.3531 319.955 55.9805C319.955 58.6078 317.853 60.7097 315.225 60.7097Z" fill="white"/>
<path opacity="0.16" d="M256.688 60.7097H219.17C216.542 60.7097 214.44 58.6078 214.44 55.9805C214.44 53.3531 216.542 51.2512 219.17 51.2512H256.688C259.316 51.2512 261.418 53.3531 261.418 55.9805C261.312 58.6078 259.211 60.7097 256.688 60.7097Z" fill="white"/>
<path opacity="0.16" d="M94.2127 67.2255H59.1113C52.9107 67.2255 47.8662 62.181 47.8662 55.9804C47.8662 49.7799 52.9107 44.7354 59.1113 44.7354H94.3178C100.518 44.7354 105.563 49.7799 105.563 55.9804C105.563 62.181 100.518 67.2255 94.2127 67.2255Z" fill="white"/>
<rect opacity="0.12" x="41.3501" y="339.945" width="152.386" height="31.5282" rx="4" fill="#11ABD5"/>
<rect opacity="0.12" x="91.7949" y="111.89" width="183.915" height="10.5094" rx="5.25471" fill="#11ABD5"/>
<rect opacity="0.12" x="91.7949" y="183.354" width="183.915" height="10.5094" rx="5.25471" fill="#11ABD5"/>
<rect opacity="0.12" x="91.7949" y="130.807" width="129.266" height="10.5094" rx="5.25471" fill="#11ABD5"/>
<rect opacity="0.12" x="91.7949" y="202.271" width="129.266" height="10.5094" rx="5.25471" fill="#11ABD5"/>
<path d="M407.726 127.859C407.726 128.713 407.427 129.433 406.83 130.019C406.243 130.606 405.449 130.974 404.446 131.123V132.131C404.446 132.377 404.371 132.574 404.222 132.723C404.073 132.883 403.875 132.963 403.63 132.963C403.385 132.963 403.187 132.883 403.038 132.723C402.889 132.574 402.814 132.377 402.814 132.131V131.155C402.206 131.102 401.614 130.974 401.038 130.771C400.462 130.569 399.966 130.302 399.55 129.971C399.411 129.875 399.315 129.769 399.262 129.651C399.209 129.534 399.182 129.39 399.182 129.219C399.182 128.995 399.246 128.798 399.374 128.627C399.513 128.457 399.667 128.371 399.838 128.371C399.945 128.371 400.041 128.393 400.126 128.435C400.222 128.467 400.345 128.526 400.494 128.611C400.985 128.931 401.465 129.166 401.934 129.315C402.414 129.465 402.915 129.539 403.438 129.539C404.153 129.539 404.702 129.401 405.086 129.123C405.481 128.846 405.678 128.446 405.678 127.923C405.678 127.614 405.571 127.363 405.358 127.171C405.145 126.979 404.878 126.83 404.558 126.723C404.238 126.606 403.79 126.473 403.214 126.323C402.414 126.121 401.763 125.918 401.262 125.715C400.761 125.502 400.329 125.182 399.966 124.755C399.603 124.329 399.422 123.753 399.422 123.027C399.422 122.163 399.731 121.427 400.35 120.819C400.969 120.211 401.779 119.833 402.782 119.683V118.675C402.782 118.43 402.857 118.233 403.006 118.083C403.155 117.923 403.353 117.843 403.598 117.843C403.843 117.843 404.041 117.923 404.19 118.083C404.339 118.233 404.414 118.43 404.414 118.675V119.667C405.491 119.806 406.419 120.195 407.198 120.835C407.454 121.027 407.582 121.278 407.582 121.587C407.582 121.811 407.513 122.009 407.374 122.179C407.246 122.35 407.091 122.435 406.91 122.435C406.814 122.435 406.718 122.419 406.622 122.387C406.537 122.355 406.419 122.291 406.27 122.195C405.833 121.886 405.417 121.657 405.022 121.507C404.638 121.347 404.179 121.267 403.646 121.267C402.985 121.267 402.457 121.417 402.062 121.715C401.667 122.003 401.47 122.403 401.47 122.915C401.47 123.267 401.582 123.555 401.806 123.779C402.03 123.993 402.313 124.158 402.654 124.275C402.995 124.393 403.459 124.526 404.046 124.675C404.825 124.867 405.459 125.065 405.95 125.267C406.441 125.47 406.857 125.779 407.198 126.195C407.55 126.601 407.726 127.155 407.726 127.859Z" fill="#11ABD5"/>
<path d="M407.726 199.323C407.726 200.177 407.427 200.897 406.83 201.483C406.243 202.07 405.449 202.438 404.446 202.587V203.595C404.446 203.841 404.371 204.038 404.222 204.187C404.073 204.347 403.875 204.427 403.63 204.427C403.385 204.427 403.187 204.347 403.038 204.187C402.889 204.038 402.814 203.841 402.814 203.595V202.619C402.206 202.566 401.614 202.438 401.038 202.235C400.462 202.033 399.966 201.766 399.55 201.435C399.411 201.339 399.315 201.233 399.262 201.115C399.209 200.998 399.182 200.854 399.182 200.683C399.182 200.459 399.246 200.262 399.374 200.091C399.513 199.921 399.667 199.835 399.838 199.835C399.945 199.835 400.041 199.857 400.126 199.899C400.222 199.931 400.345 199.99 400.494 200.075C400.985 200.395 401.465 200.63 401.934 200.779C402.414 200.929 402.915 201.003 403.438 201.003C404.153 201.003 404.702 200.865 405.086 200.587C405.481 200.31 405.678 199.91 405.678 199.387C405.678 199.078 405.571 198.827 405.358 198.635C405.145 198.443 404.878 198.294 404.558 198.187C404.238 198.07 403.79 197.937 403.214 197.787C402.414 197.585 401.763 197.382 401.262 197.179C400.761 196.966 400.329 196.646 399.966 196.219C399.603 195.793 399.422 195.217 399.422 194.491C399.422 193.627 399.731 192.891 400.35 192.283C400.969 191.675 401.779 191.297 402.782 191.147V190.139C402.782 189.894 402.857 189.697 403.006 189.547C403.155 189.387 403.353 189.307 403.598 189.307C403.843 189.307 404.041 189.387 404.19 189.547C404.339 189.697 404.414 189.894 404.414 190.139V191.131C405.491 191.27 406.419 191.659 407.198 192.299C407.454 192.491 407.582 192.742 407.582 193.051C407.582 193.275 407.513 193.473 407.374 193.643C407.246 193.814 407.091 193.899 406.91 193.899C406.814 193.899 406.718 193.883 406.622 193.851C406.537 193.819 406.419 193.755 406.27 193.659C405.833 193.35 405.417 193.121 405.022 192.971C404.638 192.811 404.179 192.731 403.646 192.731C402.985 192.731 402.457 192.881 402.062 193.179C401.667 193.467 401.47 193.867 401.47 194.379C401.47 194.731 401.582 195.019 401.806 195.243C402.03 195.457 402.313 195.622 402.654 195.739C402.995 195.857 403.459 195.99 404.046 196.139C404.825 196.331 405.459 196.529 405.95 196.731C406.441 196.934 406.857 197.243 407.198 197.659C407.55 198.065 407.726 198.619 407.726 199.323Z" fill="#11ABD5"/>
<path d="M408.525 371.337H335.441C330.282 371.337 326.155 367.21 326.155 362.051V345.027C326.155 339.868 330.282 335.741 335.441 335.741H408.525C413.684 335.741 417.811 339.868 417.811 345.027V362.051C417.811 367.038 413.512 371.337 408.525 371.337Z" fill="#11ABD5"/>
<path d="M365.04 355.577L368.543 358.861L379.753 348.352" stroke="white" stroke-width="2" stroke-linecap="round" stroke-linejoin="round"/>
<path d="M51.9653 360.148C51.656 360.148 51.4107 360.063 51.2293 359.892C51.0587 359.722 50.9733 359.482 50.9733 359.172V349.844C50.9733 349.535 51.0587 349.295 51.2293 349.124C51.4107 348.954 51.656 348.868 51.9653 348.868H55.1333C56.9787 348.868 58.408 349.364 59.4213 350.356C60.4453 351.338 60.9573 352.719 60.9573 354.5C60.9573 356.292 60.4453 357.684 59.4213 358.676C58.408 359.658 56.9787 360.148 55.1333 360.148H51.9653ZM55.0053 358.468C57.5973 358.468 58.8933 357.146 58.8933 354.5C58.8933 351.866 57.5973 350.548 55.0053 350.548H53.0373V358.468H55.0053ZM63.8518 360.244C63.5638 360.244 63.3238 360.164 63.1318 360.004C62.9505 359.834 62.8598 359.594 62.8598 359.284V353.108C62.8598 352.799 62.9505 352.564 63.1318 352.404C63.3238 352.244 63.5638 352.164 63.8518 352.164C64.1398 352.164 64.3798 352.244 64.5718 352.404C64.7638 352.564 64.8598 352.799 64.8598 353.108V359.284C64.8598 359.594 64.7638 359.834 64.5718 360.004C64.3798 360.164 64.1398 360.244 63.8518 360.244ZM63.8518 350.74C63.4892 350.74 63.2012 350.644 62.9878 350.452C62.7745 350.25 62.6678 349.988 62.6678 349.668C62.6678 349.348 62.7745 349.092 62.9878 348.9C63.2012 348.708 63.4892 348.612 63.8518 348.612C64.2038 348.612 64.4865 348.708 64.6998 348.9C64.9238 349.092 65.0358 349.348 65.0358 349.668C65.0358 349.988 64.9292 350.25 64.7158 350.452C64.5025 350.644 64.2145 350.74 63.8518 350.74ZM69.7543 360.276C68.5917 360.276 67.653 360.047 66.9383 359.588C66.597 359.386 66.4263 359.098 66.4263 358.724C66.4263 358.511 66.485 358.34 66.6023 358.212C66.7197 358.074 66.8637 358.004 67.0343 358.004C67.2157 358.004 67.4663 358.09 67.7863 358.26C68.1277 358.42 68.437 358.543 68.7143 358.628C69.0023 358.714 69.365 358.756 69.8023 358.756C70.2503 358.756 70.597 358.682 70.8423 358.532C71.0983 358.383 71.2263 358.175 71.2263 357.908C71.2263 357.727 71.173 357.583 71.0663 357.476C70.9703 357.37 70.789 357.274 70.5223 357.188C70.2663 357.092 69.8717 356.986 69.3383 356.868C68.389 356.676 67.7063 356.404 67.2903 356.052C66.885 355.7 66.6823 355.215 66.6823 354.596C66.6823 354.127 66.821 353.706 67.0983 353.332C67.3757 352.948 67.7543 352.655 68.2343 352.452C68.725 352.239 69.2797 352.132 69.8983 352.132C70.3463 352.132 70.7783 352.191 71.1943 352.308C71.6103 352.415 71.9837 352.575 72.3143 352.788C72.6557 353.002 72.8263 353.284 72.8263 353.636C72.8263 353.85 72.7677 354.031 72.6503 354.18C72.533 354.319 72.389 354.388 72.2183 354.388C72.101 354.388 71.9837 354.367 71.8663 354.324C71.7597 354.271 71.621 354.196 71.4503 354.1C71.141 353.94 70.8743 353.823 70.6503 353.748C70.4263 353.663 70.149 353.62 69.8183 353.62C69.4237 353.62 69.109 353.7 68.8743 353.86C68.6503 354.02 68.5383 354.239 68.5383 354.516C68.5383 354.783 68.6557 354.986 68.8903 355.124C69.125 355.263 69.5783 355.402 70.2503 355.54C70.965 355.69 71.525 355.86 71.9303 356.052C72.3357 356.244 72.6237 356.484 72.7943 356.772C72.9757 357.06 73.0663 357.428 73.0663 357.876C73.0663 358.602 72.7623 359.183 72.1543 359.62C71.557 360.058 70.757 360.276 69.7543 360.276ZM78.1599 360.276C77.3813 360.276 76.6933 360.111 76.0959 359.78C75.5093 359.45 75.0559 358.98 74.7359 358.372C74.4159 357.764 74.2559 357.055 74.2559 356.244C74.2559 355.434 74.4213 354.719 74.7519 354.1C75.0933 353.471 75.5679 352.986 76.1759 352.644C76.7839 352.303 77.4826 352.132 78.2719 352.132C78.6879 352.132 79.1039 352.191 79.5199 352.308C79.9466 352.426 80.3199 352.586 80.6399 352.788C80.9813 353.012 81.1519 353.295 81.1519 353.636C81.1519 353.871 81.0933 354.063 80.9759 354.212C80.8693 354.351 80.7253 354.42 80.5439 354.42C80.4266 354.42 80.3039 354.394 80.1759 354.34C80.0479 354.287 79.9199 354.223 79.7919 354.148C79.5573 354.01 79.3333 353.903 79.1199 353.828C78.9066 353.743 78.6613 353.7 78.3839 353.7C77.7226 353.7 77.2106 353.919 76.8479 354.356C76.4959 354.783 76.3199 355.402 76.3199 356.212C76.3199 357.012 76.4959 357.631 76.8479 358.068C77.2106 358.495 77.7226 358.708 78.3839 358.708C78.6506 358.708 78.8853 358.671 79.0879 358.596C79.3013 358.511 79.5359 358.399 79.7919 358.26C79.9519 358.164 80.0906 358.095 80.2079 358.052C80.3253 357.999 80.4426 357.972 80.5599 357.972C80.7306 357.972 80.8746 358.047 80.9919 358.196C81.1093 358.346 81.1679 358.532 81.1679 358.756C81.1679 358.938 81.1253 359.098 81.0399 359.236C80.9653 359.364 80.8373 359.482 80.6559 359.588C80.3253 359.802 79.9413 359.972 79.5039 360.1C79.0666 360.218 78.6186 360.276 78.1599 360.276ZM86.0684 360.276C85.2684 360.276 84.5644 360.111 83.9564 359.78C83.3591 359.45 82.8951 358.975 82.5644 358.356C82.2338 357.738 82.0684 357.018 82.0684 356.196C82.0684 355.375 82.2338 354.66 82.5644 354.052C82.8951 353.434 83.3591 352.959 83.9564 352.628C84.5644 352.298 85.2684 352.132 86.0684 352.132C86.8684 352.132 87.5671 352.298 88.1644 352.628C88.7724 352.959 89.2364 353.434 89.5564 354.052C89.8871 354.66 90.0524 355.375 90.0524 356.196C90.0524 357.018 89.8871 357.738 89.5564 358.356C89.2364 358.975 88.7724 359.45 88.1644 359.78C87.5671 360.111 86.8684 360.276 86.0684 360.276ZM86.0524 358.724C86.7031 358.724 87.1991 358.511 87.5404 358.084C87.8818 357.658 88.0524 357.028 88.0524 356.196C88.0524 355.375 87.8818 354.751 87.5404 354.324C87.1991 353.887 86.7084 353.668 86.0684 353.668C85.4284 353.668 84.9324 353.887 84.5804 354.324C84.2391 354.751 84.0684 355.375 84.0684 356.196C84.0684 357.028 84.2391 357.658 84.5804 358.084C84.9218 358.511 85.4124 358.724 86.0524 358.724ZM97.8796 352.164C98.1889 352.164 98.4342 352.25 98.6156 352.42C98.7969 352.591 98.8876 352.82 98.8876 353.108V359.316C98.8876 359.594 98.7916 359.818 98.5996 359.988C98.4182 360.159 98.1782 360.244 97.8796 360.244C97.5916 360.244 97.3622 360.164 97.1916 360.004C97.0209 359.844 96.9356 359.626 96.9356 359.348V358.948C96.6902 359.375 96.3596 359.706 95.9436 359.94C95.5276 360.164 95.0582 360.276 94.5356 360.276C92.6156 360.276 91.6556 359.199 91.6556 357.044V353.108C91.6556 352.82 91.7462 352.591 91.9276 352.42C92.1089 352.25 92.3489 352.164 92.6476 352.164C92.9569 352.164 93.2022 352.25 93.3836 352.42C93.5649 352.591 93.6556 352.82 93.6556 353.108V357.06C93.6556 357.615 93.7676 358.026 93.9916 358.292C94.2156 358.559 94.5676 358.692 95.0476 358.692C95.6022 358.692 96.0449 358.511 96.3756 358.148C96.7169 357.775 96.8876 357.284 96.8876 356.676V353.108C96.8876 352.82 96.9782 352.591 97.1596 352.42C97.3409 352.25 97.5809 352.164 97.8796 352.164ZM105.513 352.132C106.452 352.132 107.151 352.399 107.609 352.932C108.068 353.466 108.297 354.271 108.297 355.348V359.284C108.297 359.583 108.207 359.818 108.025 359.988C107.855 360.159 107.615 360.244 107.305 360.244C106.996 360.244 106.751 360.159 106.569 359.988C106.388 359.818 106.297 359.583 106.297 359.284V355.46C106.297 354.852 106.18 354.41 105.945 354.132C105.721 353.855 105.364 353.716 104.873 353.716C104.297 353.716 103.833 353.898 103.481 354.26C103.14 354.623 102.969 355.108 102.969 355.716V359.284C102.969 359.583 102.879 359.818 102.697 359.988C102.516 360.159 102.271 360.244 101.961 360.244C101.652 360.244 101.407 360.159 101.225 359.988C101.055 359.818 100.969 359.583 100.969 359.284V353.092C100.969 352.815 101.06 352.591 101.241 352.42C101.423 352.25 101.668 352.164 101.977 352.164C102.255 352.164 102.479 352.25 102.649 352.42C102.831 352.58 102.921 352.794 102.921 353.06V353.492C103.188 353.055 103.545 352.719 103.993 352.484C104.441 352.25 104.948 352.132 105.513 352.132ZM114.393 358.756C114.926 358.788 115.193 359.028 115.193 359.476C115.193 359.732 115.086 359.93 114.873 360.068C114.67 360.196 114.377 360.25 113.993 360.228L113.561 360.196C111.769 360.068 110.873 359.108 110.873 357.316V353.828H110.073C109.785 353.828 109.561 353.764 109.401 353.636C109.251 353.508 109.177 353.322 109.177 353.076C109.177 352.831 109.251 352.644 109.401 352.516C109.561 352.388 109.785 352.324 110.073 352.324H110.873V350.852C110.873 350.564 110.963 350.335 111.145 350.164C111.326 349.994 111.571 349.908 111.881 349.908C112.179 349.908 112.419 349.994 112.601 350.164C112.782 350.335 112.873 350.564 112.873 350.852V352.324H114.233C114.521 352.324 114.739 352.388 114.889 352.516C115.049 352.644 115.129 352.831 115.129 353.076C115.129 353.322 115.049 353.508 114.889 353.636C114.739 353.764 114.521 353.828 114.233 353.828H112.873V357.46C112.873 358.25 113.235 358.671 113.961 358.724L114.393 358.756ZM125.795 360.292C124.707 360.292 123.752 360.058 122.931 359.588C122.12 359.119 121.496 358.447 121.059 357.572C120.621 356.698 120.403 355.674 120.403 354.5C120.403 353.327 120.621 352.308 121.059 351.444C121.496 350.57 122.12 349.898 122.931 349.428C123.752 348.959 124.707 348.724 125.795 348.724C126.499 348.724 127.16 348.831 127.779 349.044C128.397 349.247 128.947 349.546 129.427 349.94C129.565 350.047 129.661 350.159 129.715 350.276C129.768 350.394 129.795 350.538 129.795 350.708C129.795 350.943 129.731 351.14 129.603 351.3C129.475 351.46 129.32 351.54 129.139 351.54C128.925 351.54 128.707 351.466 128.483 351.316C128.024 350.975 127.597 350.74 127.203 350.612C126.808 350.474 126.371 350.404 125.891 350.404C124.781 350.404 123.939 350.751 123.363 351.444C122.797 352.138 122.515 353.156 122.515 354.5C122.515 355.855 122.797 356.879 123.363 357.572C123.939 358.266 124.781 358.612 125.891 358.612C126.349 358.612 126.771 358.543 127.155 358.404C127.549 358.266 127.992 358.031 128.483 357.7C128.589 357.636 128.696 357.583 128.803 357.54C128.909 357.498 129.021 357.476 129.139 357.476C129.32 357.476 129.475 357.556 129.603 357.716C129.731 357.876 129.795 358.074 129.795 358.308C129.795 358.468 129.768 358.612 129.715 358.74C129.661 358.858 129.565 358.97 129.427 359.076C128.947 359.471 128.397 359.775 127.779 359.988C127.16 360.191 126.499 360.292 125.795 360.292ZM134.834 360.276C134.034 360.276 133.33 360.111 132.722 359.78C132.125 359.45 131.661 358.975 131.33 358.356C130.999 357.738 130.834 357.018 130.834 356.196C130.834 355.375 130.999 354.66 131.33 354.052C131.661 353.434 132.125 352.959 132.722 352.628C133.33 352.298 134.034 352.132 134.834 352.132C135.634 352.132 136.333 352.298 136.93 352.628C137.538 352.959 138.002 353.434 138.322 354.052C138.653 354.66 138.818 355.375 138.818 356.196C138.818 357.018 138.653 357.738 138.322 358.356C138.002 358.975 137.538 359.45 136.93 359.78C136.333 360.111 135.634 360.276 134.834 360.276ZM134.818 358.724C135.469 358.724 135.965 358.511 136.306 358.084C136.647 357.658 136.818 357.028 136.818 356.196C136.818 355.375 136.647 354.751 136.306 354.324C135.965 353.887 135.474 353.668 134.834 353.668C134.194 353.668 133.698 353.887 133.346 354.324C133.005 354.751 132.834 355.375 132.834 356.196C132.834 357.028 133.005 357.658 133.346 358.084C133.687 358.511 134.178 358.724 134.818 358.724ZM146.645 352.164C146.955 352.164 147.2 352.25 147.381 352.42C147.563 352.591 147.653 352.82 147.653 353.108V359.316C147.653 359.594 147.557 359.818 147.365 359.988C147.184 360.159 146.944 360.244 146.645 360.244C146.357 360.244 146.128 360.164 145.957 360.004C145.787 359.844 145.701 359.626 145.701 359.348V358.948C145.456 359.375 145.125 359.706 144.709 359.94C144.293 360.164 143.824 360.276 143.301 360.276C141.381 360.276 140.421 359.199 140.421 357.044V353.108C140.421 352.82 140.512 352.591 140.693 352.42C140.875 352.25 141.115 352.164 141.413 352.164C141.723 352.164 141.968 352.25 142.149 352.42C142.331 352.591 142.421 352.82 142.421 353.108V357.06C142.421 357.615 142.533 358.026 142.757 358.292C142.981 358.559 143.333 358.692 143.813 358.692C144.368 358.692 144.811 358.511 145.141 358.148C145.483 357.775 145.653 357.284 145.653 356.676V353.108C145.653 352.82 145.744 352.591 145.925 352.42C146.107 352.25 146.347 352.164 146.645 352.164ZM154.231 352.132C154.903 352.132 155.5 352.303 156.023 352.644C156.556 352.986 156.967 353.471 157.255 354.1C157.553 354.719 157.703 355.434 157.703 356.244C157.703 357.055 157.553 357.764 157.255 358.372C156.967 358.98 156.561 359.45 156.039 359.78C155.516 360.111 154.913 360.276 154.231 360.276C153.676 360.276 153.18 360.159 152.743 359.924C152.305 359.69 151.969 359.364 151.735 358.948V362.212C151.735 362.49 151.644 362.708 151.463 362.868C151.281 363.028 151.041 363.108 150.743 363.108C150.444 363.108 150.199 363.023 150.007 362.852C149.825 362.682 149.735 362.458 149.735 362.18V353.108C149.735 352.82 149.82 352.591 149.991 352.42C150.172 352.25 150.412 352.164 150.711 352.164C151.009 352.164 151.249 352.25 151.431 352.42C151.612 352.591 151.703 352.82 151.703 353.108V353.508C151.937 353.071 152.273 352.735 152.711 352.5C153.159 352.255 153.665 352.132 154.231 352.132ZM153.703 358.724C154.332 358.724 154.823 358.511 155.175 358.084C155.527 357.647 155.703 357.034 155.703 356.244C155.703 355.434 155.527 354.804 155.175 354.356C154.823 353.908 154.332 353.684 153.703 353.684C153.063 353.684 152.567 353.903 152.215 354.34C151.873 354.778 151.703 355.402 151.703 356.212C151.703 357.012 151.873 357.631 152.215 358.068C152.567 358.506 153.063 358.724 153.703 358.724ZM162.912 360.276C162.112 360.276 161.408 360.111 160.8 359.78C160.203 359.45 159.739 358.975 159.408 358.356C159.078 357.738 158.912 357.018 158.912 356.196C158.912 355.375 159.078 354.66 159.408 354.052C159.739 353.434 160.203 352.959 160.8 352.628C161.408 352.298 162.112 352.132 162.912 352.132C163.712 352.132 164.411 352.298 165.008 352.628C165.616 352.959 166.08 353.434 166.4 354.052C166.731 354.66 166.896 355.375 166.896 356.196C166.896 357.018 166.731 357.738 166.4 358.356C166.08 358.975 165.616 359.45 165.008 359.78C164.411 360.111 163.712 360.276 162.912 360.276ZM162.896 358.724C163.547 358.724 164.043 358.511 164.384 358.084C164.726 357.658 164.896 357.028 164.896 356.196C164.896 355.375 164.726 354.751 164.384 354.324C164.043 353.887 163.552 353.668 162.912 353.668C162.272 353.668 161.776 353.887 161.424 354.324C161.083 354.751 160.912 355.375 160.912 356.196C160.912 357.028 161.083 357.658 161.424 358.084C161.766 358.511 162.256 358.724 162.896 358.724ZM173.091 352.132C174.03 352.132 174.729 352.399 175.187 352.932C175.646 353.466 175.875 354.271 175.875 355.348V359.284C175.875 359.583 175.785 359.818 175.603 359.988C175.433 360.159 175.193 360.244 174.883 360.244C174.574 360.244 174.329 360.159 174.147 359.988C173.966 359.818 173.875 359.583 173.875 359.284V355.46C173.875 354.852 173.758 354.41 173.523 354.132C173.299 353.855 172.942 353.716 172.451 353.716C171.875 353.716 171.411 353.898 171.059 354.26C170.718 354.623 170.547 355.108 170.547 355.716V359.284C170.547 359.583 170.457 359.818 170.275 359.988C170.094 360.159 169.849 360.244 169.539 360.244C169.23 360.244 168.985 360.159 168.803 359.988C168.633 359.818 168.547 359.583 168.547 359.284V353.092C168.547 352.815 168.638 352.591 168.819 352.42C169.001 352.25 169.246 352.164 169.555 352.164C169.833 352.164 170.057 352.25 170.227 352.42C170.409 352.58 170.499 352.794 170.499 353.06V353.492C170.766 353.055 171.123 352.719 171.571 352.484C172.019 352.25 172.526 352.132 173.091 352.132Z" fill="#11ABD5"/>
</g>
<g filter="url(#filter1_d)">
<path d="M109.661 15C109.661 12.7909 111.452 11 113.661 11H221.265C223.474 11 225.265 12.7909 225.265 15V44.8339C225.265 47.043 223.474 48.8339 221.265 48.8339H175.071C173.619 48.8339 172.28 49.6215 171.575 50.8913L168.337 56.7189C167.956 57.4047 166.97 57.4047 166.589 56.7189L163.351 50.8913C162.646 49.6215 161.307 48.8339 159.855 48.8339H113.661C111.452 48.8339 109.661 47.043 109.661 44.8339V15Z" fill="white"/>
</g>
<path d="M128.678 22.3345C128.977 21.4132 130.281 21.4132 130.58 22.3345L131.764 25.9783C131.898 26.3903 132.282 26.6693 132.715 26.6693H136.546C137.515 26.6693 137.918 27.9089 137.134 28.4783L134.035 30.7303C133.684 30.9849 133.537 31.4363 133.671 31.8483L134.855 35.4921C135.155 36.4134 134.1 37.1796 133.316 36.6102L130.217 34.3582C129.866 34.1035 129.392 34.1035 129.041 34.3582L125.942 36.6102C125.158 37.1796 124.103 36.4134 124.403 35.4921L125.587 31.8483C125.721 31.4363 125.574 30.9849 125.223 30.7303L122.124 28.4783C121.34 27.9089 121.743 26.6693 122.712 26.6693H126.543C126.976 26.6693 127.36 26.3903 127.494 25.9783L128.678 22.3345Z" fill="#FFB23F"/>
<path d="M147.595 22.3345C147.894 21.4132 149.198 21.4132 149.497 22.3345L150.681 25.9783C150.815 26.3903 151.199 26.6693 151.632 26.6693H155.463C156.432 26.6693 156.835 27.9089 156.051 28.4783L152.952 30.7303C152.601 30.9849 152.454 31.4363 152.588 31.8483L153.772 35.4921C154.072 36.4134 153.017 37.1796 152.233 36.6102L149.134 34.3582C148.783 34.1035 148.309 34.1035 147.958 34.3582L144.859 36.6102C144.075 37.1796 143.02 36.4134 143.32 35.4921L144.504 31.8483C144.638 31.4363 144.491 30.9849 144.14 30.7303L141.041 28.4783C140.257 27.9089 140.66 26.6693 141.629 26.6693H145.46C145.893 26.6693 146.277 26.3903 146.411 25.9783L147.595 22.3345Z" fill="#FFB23F"/>
<path d="M166.512 22.3345C166.811 21.4132 168.115 21.4132 168.414 22.3345L169.598 25.9783C169.732 26.3903 170.116 26.6693 170.549 26.6693H174.38C175.349 26.6693 175.752 27.9089 174.968 28.4783L171.869 30.7303C171.518 30.9849 171.371 31.4363 171.505 31.8483L172.689 35.4921C172.989 36.4134 171.934 37.1796 171.15 36.6102L168.051 34.3582C167.7 34.1035 167.226 34.1035 166.875 34.3582L163.776 36.6102C162.992 37.1796 161.937 36.4134 162.237 35.4921L163.421 31.8483C163.555 31.4363 163.408 30.9849 163.057 30.7303L159.958 28.4783C159.174 27.9089 159.577 26.6693 160.546 26.6693H164.377C164.81 26.6693 165.194 26.3903 165.328 25.9783L166.512 22.3345Z" fill="#FFB23F"/>
<path d="M185.429 22.3345C185.728 21.4132 187.032 21.4132 187.331 22.3345L188.515 25.9783C188.649 26.3903 189.033 26.6693 189.466 26.6693H193.297C194.266 26.6693 194.669 27.9089 193.885 28.4783L190.786 30.7303C190.435 30.9849 190.288 31.4363 190.422 31.8483L191.606 35.4921C191.906 36.4134 190.851 37.1796 190.067 36.6102L186.968 34.3582C186.617 34.1035 186.143 34.1035 185.792 34.3582L182.693 36.6102C181.909 37.1796 180.854 36.4134 181.154 35.4921L182.338 31.8483C182.472 31.4363 182.325 30.9849 181.974 30.7303L178.875 28.4783C178.091 27.9089 178.494 26.6693 179.463 26.6693H183.294C183.727 26.6693 184.111 26.3903 184.245 25.9783L185.429 22.3345Z" fill="#FFB23F"/>
<path d="M204.346 22.3345C204.645 21.4132 205.949 21.4132 206.248 22.3345L207.432 25.9783C207.566 26.3903 207.95 26.6693 208.383 26.6693H212.214C213.183 26.6693 213.586 27.9089 212.802 28.4783L209.703 30.7303C209.352 30.9849 209.205 31.4363 209.339 31.8483L210.523 35.4921C210.823 36.4134 209.768 37.1796 208.984 36.6102L205.885 34.3582C205.534 34.1035 205.06 34.1035 204.709 34.3582L201.61 36.6102C200.826 37.1796 199.771 36.4134 200.071 35.4921L201.255 31.8483C201.389 31.4363 201.242 30.9849 200.891 30.7303L197.792 28.4783C197.008 27.9089 197.411 26.6693 198.38 26.6693H202.211C202.644 26.6693 203.028 26.3903 203.162 25.9783L204.346 22.3345Z" fill="#FFB23F"/>
<g filter="url(#filter2_d)">
<rect x="372.396" y="247.462" width="115.604" height="75.6678" rx="14" fill="white"/>
</g>
<path d="M398.67 247.462V323.13" stroke="#11ABD5" stroke-width="2" stroke-linecap="round"/>
<path d="M488 272.685H372.396" stroke="#11ABD5" stroke-width="2" stroke-linecap="round"/>
<rect opacity="0.12" x="429.147" y="294.754" width="46.2414" height="15.7641" rx="4" fill="#11ABD5"/>
<path d="M414.434 272.685C414.434 276.167 411.611 278.99 408.128 278.99C404.646 278.99 398.67 276.167 398.67 272.685C398.67 269.202 404.646 266.379 408.128 266.379C411.611 266.379 414.434 269.202 414.434 272.685Z" fill="white" stroke="#11ABD5" stroke-width="2"/>
<path d="M382.906 272.685C382.906 269.202 385.729 266.379 389.211 266.379C392.694 266.379 398.67 269.202 398.67 272.685C398.67 276.167 392.694 278.99 389.211 278.99C385.729 278.99 382.906 276.167 382.906 272.685Z" fill="white" stroke="#11ABD5" stroke-width="2"/>
<path d="M398.67 274.787C398.67 274.787 407.077 281.618 407.077 292.127" stroke="#11ABD5" stroke-width="2" stroke-linecap="round"/>
<path d="M398.67 274.787C398.67 274.787 390.262 281.618 390.262 292.127" stroke="#11ABD5" stroke-width="2" stroke-linecap="round"/>
<defs>
<filter id="filter0_d" x="0.0253906" y="24.0188" width="460.988" height="391.626" filterUnits="userSpaceOnUse" color-interpolation-filters="sRGB">
<feFlood flood-opacity="0" result="BackgroundImageFix"/>
<feColorMatrix in="SourceAlpha" type="matrix" values="0 0 0 0 0 0 0 0 0 0 0 0 0 0 0 0 0 0 127 0"/>
<feOffset dy="6"/>
<feGaussianBlur stdDeviation="7"/>
<feColorMatrix type="matrix" values="0 0 0 0 0.183073 0 0 0 0 0.395437 0 0 0 0 0.4625 0 0 0 0.16 0"/>
<feBlend mode="normal" in2="BackgroundImageFix" result="effect1_dropShadow"/>
<feBlend mode="normal" in="SourceGraphic" in2="effect1_dropShadow" result="shape"/>
</filter>
<filter id="filter1_d" x="85.6611" y="0" width="163.604" height="94.2332" filterUnits="userSpaceOnUse" color-interpolation-filters="sRGB">
<feFlood flood-opacity="0" result="BackgroundImageFix"/>
<feColorMatrix in="SourceAlpha" type="matrix" values="0 0 0 0 0 0 0 0 0 0 0 0 0 0 0 0 0 0 127 0"/>
<feOffset dy="13"/>
<feGaussianBlur stdDeviation="12"/>
<feColorMatrix type="matrix" values="0 0 0 0 0.184314 0 0 0 0 0.396078 0 0 0 0 0.462745 0 0 0 0.2 0"/>
<feBlend mode="normal" in2="BackgroundImageFix" result="effect1_dropShadow"/>
<feBlend mode="normal" in="SourceGraphic" in2="effect1_dropShadow" result="shape"/>
</filter>
<filter id="filter2_d" x="348.396" y="236.462" width="163.604" height="123.668" filterUnits="userSpaceOnUse" color-interpolation-filters="sRGB">
<feFlood flood-opacity="0" result="BackgroundImageFix"/>
<feColorMatrix in="SourceAlpha" type="matrix" values="0 0 0 0 0 0 0 0 0 0 0 0 0 0 0 0 0 0 127 0"/>
<feOffset dy="13"/>
<feGaussianBlur stdDeviation="12"/>
<feColorMatrix type="matrix" values="0 0 0 0 0.184314 0 0 0 0 0.396078 0 0 0 0 0.462745 0 0 0 0.2 0"/>
<feBlend mode="normal" in2="BackgroundImageFix" result="effect1_dropShadow"/>
<feBlend mode="normal" in="SourceGraphic" in2="effect1_dropShadow" result="shape"/>
</filter>
</defs>
</svg>
