<svg width="20" height="20" viewBox="0 0 20 20" fill="none" xmlns="http://www.w3.org/2000/svg">
<g clip-path="url(#clip0)">
<path d="M9.55163 1.74187C9.73504 1.37024 10.265 1.37024 10.4484 1.74187L12.8226 6.55257C12.8954 6.70014 13.0362 6.80242 13.1991 6.82609L18.508 7.59752C18.9181 7.65711 19.0818 8.1611 18.7851 8.45037L14.9435 12.195C14.8257 12.3098 14.7719 12.4753 14.7997 12.6375L15.7066 17.925C15.7766 18.3335 15.3479 18.6449 14.9811 18.4521L10.2327 15.9557C10.087 15.8791 9.91299 15.8791 9.76733 15.9557L5.01888 18.4521C4.65207 18.6449 4.22335 18.3335 4.29341 17.925L5.20028 12.6375C5.2281 12.4753 5.17433 12.3098 5.05648 12.195L1.21491 8.45037C0.918151 8.1611 1.08191 7.65711 1.49202 7.59752L6.80094 6.82609C6.9638 6.80242 7.10458 6.70014 7.17741 6.55257L9.55163 1.74187Z" stroke="#11ABD5" stroke-width="1.5"/>
</g>
<defs>
<clipPath id="clip0">
<rect width="20" height="20" fill="white"/>
</clipPath>
</defs>
</svg>
