<svg width="116" height="108" viewBox="0 0 116 108" fill="none" xmlns="http://www.w3.org/2000/svg">
<path d="M52.86 105.72C82.0538 105.72 105.72 82.0538 105.72 52.86C105.72 23.6662 82.0538 0 52.86 0C23.6662 0 0 23.6662 0 52.86C0 82.0538 23.6662 105.72 52.86 105.72Z" fill="#F5F8FA"/>
<path d="M94.7045 66.4092C89.3219 66.4092 84.1596 68.5474 80.3535 72.3536C76.5474 76.1597 74.4091 81.3219 74.4091 86.7046C74.4091 92.0873 76.5474 97.2495 80.3535 101.056C84.1596 104.862 89.3219 107 94.7045 107H111.134C112.159 107 113.142 106.593 113.867 105.868C114.592 105.143 115 104.16 115 103.135V86.7046C115 81.3219 112.862 76.1597 109.056 72.3536C105.249 68.5474 100.087 66.4092 94.7045 66.4092V66.4092Z" fill="white" stroke="#B8C0CC" stroke-width="1.88" stroke-miterlimit="10"/>
<path d="M83.6154 83.5001C84.5704 83.5001 85.3446 82.3045 85.3446 80.8296C85.3446 79.3548 84.5704 78.1592 83.6154 78.1592C82.6604 78.1592 81.8862 79.3548 81.8862 80.8296C81.8862 82.3045 82.6604 83.5001 83.6154 83.5001Z" fill="#B8C0CC"/>
<path d="M42.8977 58.9319C48.7054 58.9319 54.2751 61.239 58.3818 65.3456C62.4884 69.4522 64.7955 75.022 64.7955 80.8296C64.7955 86.6373 62.4884 92.207 58.3818 96.3136C54.2751 100.42 48.7054 102.727 42.8977 102.727H25.1712C24.065 102.727 23.0042 102.288 22.222 101.506C21.4397 100.724 21.0002 99.6631 21 98.5569V80.8296C21 75.022 23.3071 69.4522 27.4137 65.3456C31.5203 61.239 37.0901 58.9319 42.8977 58.9319V58.9319Z" fill="white" stroke="#B8C0CC" stroke-width="1.88" stroke-miterlimit="10"/>
<path d="M60.5599 42.4119H57.9145C57.1264 42.4119 56.37 42.722 55.8087 43.2751L50.2946 48.7092C49.6625 49.3321 48.5926 48.8843 48.5926 47.997V43.4119C48.5926 42.8596 48.1449 42.4119 47.5926 42.4119H39.8863C37.1249 42.4119 34.8863 40.1733 34.8863 37.4119V21.2046C34.8863 18.4432 37.1249 16.2046 39.8863 16.2046H71.5454C74.3068 16.2046 76.5454 18.4432 76.5454 21.2046V22.6137" stroke="#11ABD5" stroke-width="2" stroke-linecap="round"/>
<path d="M64.7954 31.8864C64.7954 29.1249 67.034 26.8864 69.7954 26.8864H101.454C104.216 26.8864 106.455 29.1249 106.455 31.8864V48.9127C106.455 51.6741 104.216 53.9127 101.455 53.9127H88.1162C87.5639 53.9127 87.1162 54.3604 87.1162 54.9127V59.6943C87.1162 60.5891 86.031 61.0335 85.4034 60.3957L79.9056 54.8085C79.3417 54.2354 78.5713 53.9127 77.7673 53.9127H69.7954C67.034 53.9127 64.7954 51.6741 64.7954 48.9127V31.8864Z" stroke="#11ABD5" stroke-width="2"/>
<path d="M48.3654 77.0909C49.3204 77.0909 50.0946 75.8953 50.0946 74.4205C50.0946 72.9456 49.3204 71.75 48.3654 71.75C47.4104 71.75 46.6362 72.9456 46.6362 74.4205C46.6362 75.8953 47.4104 77.0909 48.3654 77.0909Z" fill="#B8C0CC"/>
<path d="M55.843 77.0909C56.798 77.0909 57.5722 75.8953 57.5722 74.4205C57.5722 72.9456 56.798 71.75 55.843 71.75C54.888 71.75 54.1138 72.9456 54.1138 74.4205C54.1138 75.8953 54.888 77.0909 55.843 77.0909Z" fill="#B8C0CC"/>
<rect x="32.6816" y="74.8865" width="5.47727" height="7.61364" rx="2" stroke="#B8C0CC" stroke-width="2"/>
<path d="M35.4204 74.4206C35.4204 65.341 43.9659 55.1933 52.5113 61.0683" stroke="#B8C0CC" stroke-width="2" stroke-linecap="round"/>
</svg>
