<svg width="20" height="20" viewBox="0 0 20 20" fill="none" xmlns="http://www.w3.org/2000/svg">
<path d="M10.0002 19.1668C15.0628 19.1668 19.1668 15.0628 19.1668 10.0002C19.1668 4.93755 15.0628 0.833496 10.0002 0.833496C4.93755 0.833496 0.833496 4.93755 0.833496 10.0002C0.833496 15.0628 4.93755 19.1668 10.0002 19.1668Z" stroke="#11ABD5" stroke-width="1.5" stroke-linecap="round" stroke-linejoin="round"/>
<path d="M10.0003 19.1668C11.8113 19.1668 13.2794 15.0628 13.2794 10.0002C13.2794 4.93755 11.8113 0.833496 10.0003 0.833496C8.18929 0.833496 6.72119 4.93755 6.72119 10.0002C6.72119 15.0628 8.18929 19.1668 10.0003 19.1668Z" stroke="#11ABD5" stroke-width="1.5" stroke-linecap="round" stroke-linejoin="round"/>
<path d="M1.66699 13.3335L18.3337 13.3335" stroke="#11ABD5" stroke-width="1.5" stroke-linecap="round" stroke-linejoin="round"/>
<path d="M1.66699 6.66699L18.3337 6.66699" stroke="#11ABD5" stroke-width="1.5" stroke-linecap="round" stroke-linejoin="round"/>
</svg>
