<svg width="419" height="377" viewBox="0 0 419 377" fill="none" xmlns="http://www.w3.org/2000/svg">
<g clip-path="url(#clip0)">
<path opacity="0.1" d="M55.0002 375.7C55.0002 375.7 7.90018 323 56.9002 272C111.3 215.4 156.7 280.1 174 269.1C200.1 252.5 213.2 179.1 287.7 189C379.4 201.2 360.2 278.2 353.2 304.2C347.2 326.4 388.5 339.7 369.7 375.7H55.0002Z" fill="#B8C0CC"/>
<path d="M101.5 375.4C101.5 375.4 59.3998 331.5 67.3998 318.6C73.5998 308.5 91.0998 322.9 93.2998 315.3C95.4998 307.7 72.4998 278.2 88.7998 267.5C105.1 256.8 114.4 282.4 115.3 289.1C116.2 295.8 113.9 316.5 120.9 317.8C127.9 319 139.7 292 152.2 297.8C164.8 303.6 153.1 344.8 125.4 375.4H101.5Z" fill="#EAEFF4"/>
<path d="M111.8 375.4C102.1 346.5 80.6997 327.2 80.6997 327.2" stroke="#D1DAE5" stroke-width="1.8833" stroke-miterlimit="10" stroke-linecap="round" stroke-linejoin="round"/>
<path d="M98 286C119.9 351.8 116.8 375.4 116.8 375.4" stroke="#D1DAE5" stroke-width="1.8833" stroke-miterlimit="10" stroke-linecap="round" stroke-linejoin="round"/>
<path d="M121.3 375.4C121.3 375.4 124.4 337 145 312.6" stroke="#D1DAE5" stroke-width="1.8833" stroke-miterlimit="10" stroke-linecap="round" stroke-linejoin="round"/>
<path d="M308.1 375.4H116.8V152.7C116.8 146.8 121.6 142 127.5 142H297.4C303.3 142 308.1 146.8 308.1 152.7V375.4Z" fill="white" stroke="#B8C0CC" stroke-width="1.8833" stroke-miterlimit="10" stroke-linecap="round" stroke-linejoin="round"/>
<path opacity="0.12" d="M308.1 182.4H116.8V152.8C116.8 146.8 121.6 142 127.6 142H297.5C303.3 142 308.1 146.7 308.1 152.6V182.4Z" fill="#B8C0CC"/>
<path d="M151.6 169.3C156.571 169.3 160.6 165.271 160.6 160.3C160.6 155.329 156.571 151.3 151.6 151.3C146.63 151.3 142.6 155.329 142.6 160.3C142.6 165.271 146.63 169.3 151.6 169.3Z" fill="#B8C0CC"/>
<path d="M181.3 250H148.8C147.7 250 146.8 249.1 146.8 248V215.5C146.8 214.4 147.7 213.5 148.8 213.5H181.3C182.4 213.5 183.3 214.4 183.3 215.5V248C183.3 249.1 182.5 250 181.3 250Z" fill="#EAEFF4"/>
<path d="M229.7 250H197.2C196.1 250 195.2 249.1 195.2 248V215.5C195.2 214.4 196.1 213.5 197.2 213.5H229.7C230.8 213.5 231.7 214.4 231.7 215.5V248C231.7 249.1 230.8 250 229.7 250Z" fill="#EAEFF4"/>
<path d="M278.1 250H245.6C244.5 250 243.6 249.1 243.6 248V215.5C243.6 214.4 244.5 213.5 245.6 213.5H278.1C279.2 213.5 280.1 214.4 280.1 215.5V248C280.1 249.1 279.2 250 278.1 250Z" fill="#EAEFF4"/>
<path d="M181.3 296H148.8C147.7 296 146.8 295.1 146.8 294V261.5C146.8 260.4 147.7 259.5 148.8 259.5H181.3C182.4 259.5 183.3 260.4 183.3 261.5V294C183.3 295.1 182.5 296 181.3 296Z" fill="#EAEFF4"/>
<path d="M278.1 296H245.6C244.5 296 243.6 295.1 243.6 294V261.5C243.6 260.4 244.5 259.5 245.6 259.5H278.1C279.2 259.5 280.1 260.4 280.1 261.5V294C280.1 295.1 279.2 296 278.1 296Z" fill="#EAEFF4"/>
<path d="M181.3 342.2H148.8C147.7 342.2 146.8 341.3 146.8 340.2V307.7C146.8 306.6 147.7 305.7 148.8 305.7H181.3C182.4 305.7 183.3 306.6 183.3 307.7V340.2C183.3 341.3 182.5 342.2 181.3 342.2Z" fill="#EAEFF4"/>
<path d="M229.7 342.2H197.2C196.1 342.2 195.2 341.3 195.2 340.2V307.7C195.2 306.6 196.1 305.7 197.2 305.7H229.7C230.8 305.7 231.7 306.6 231.7 307.7V340.2C231.7 341.3 230.8 342.2 229.7 342.2Z" fill="#EAEFF4"/>
<path d="M278.1 342.2H245.6C244.5 342.2 243.6 341.3 243.6 340.2V307.7C243.6 306.6 244.5 305.7 245.6 305.7H278.1C279.2 305.7 280.1 306.6 280.1 307.7V340.2C280.1 341.3 279.2 342.2 278.1 342.2Z" stroke="#D1DAE5" stroke-width="1.8833" stroke-miterlimit="10" stroke-linecap="round" stroke-linejoin="round"/>
<path d="M215.1 169.3C220.071 169.3 224.1 165.271 224.1 160.3C224.1 155.329 220.071 151.3 215.1 151.3C210.13 151.3 206.1 155.329 206.1 160.3C206.1 165.271 210.13 169.3 215.1 169.3Z" fill="#B8C0CC"/>
<path d="M278.6 169.3C283.571 169.3 287.6 165.271 287.6 160.3C287.6 155.329 283.571 151.3 278.6 151.3C273.63 151.3 269.6 155.329 269.6 160.3C269.6 165.271 273.63 169.3 278.6 169.3Z" fill="#B8C0CC"/>
<path d="M151.7 163.3H151.5C149.1 163.3 147.1 161.3 147.1 158.9V134.5C147.1 132.1 149.1 130.1 151.5 130.1H151.7C154.1 130.1 156.1 132.1 156.1 134.5V159C156 161.4 154.1 163.3 151.7 163.3Z" fill="white" stroke="#B8C0CC" stroke-width="1.8833" stroke-miterlimit="10" stroke-linecap="round" stroke-linejoin="round"/>
<path d="M215.2 163.3H215C212.6 163.3 210.6 161.3 210.6 158.9V134.5C210.6 132.1 212.6 130.1 215 130.1H215.2C217.6 130.1 219.6 132.1 219.6 134.5V159C219.6 161.4 217.6 163.3 215.2 163.3Z" fill="white" stroke="#B8C0CC" stroke-width="1.8833" stroke-miterlimit="10" stroke-linecap="round" stroke-linejoin="round"/>
<path d="M278.7 163.3H278.5C276.1 163.3 274.1 161.3 274.1 158.9V134.5C274.1 132.1 276.1 130.1 278.5 130.1H278.7C281.1 130.1 283.1 132.1 283.1 134.5V159C283.1 161.4 281.1 163.3 278.7 163.3Z" fill="white" stroke="#B8C0CC" stroke-width="1.8833" stroke-miterlimit="10" stroke-linecap="round" stroke-linejoin="round"/>
<path d="M45.1001 375.4H387.8" stroke="#B8C0CC" stroke-width="1.8833" stroke-miterlimit="10" stroke-linecap="round" stroke-linejoin="round"/>
<path d="M4.8999 201.8H75.7999C77.9999 201.8 79.7999 200 79.7999 197.8V139C79.7999 136.8 77.9999 135 75.7999 135H4.8999C2.6999 135 0.899902 136.8 0.899902 139V197.8C0.899902 200 2.6999 201.8 4.8999 201.8Z" fill="#F8F9FA"/>
<path d="M75.8999 201.8H4.8999C2.6999 201.8 0.899902 200 0.899902 197.8V139C0.899902 136.8 2.6999 135 4.8999 135H75.7999C77.9999 135 79.7999 136.8 79.7999 139V197.8C79.7999 200 78.0999 201.8 75.8999 201.8Z" stroke="#D1DAE5" stroke-width="1.8833" stroke-miterlimit="10" stroke-linecap="round" stroke-linejoin="round"/>
<path d="M52.1998 168.4L33.7998 179V157.8L52.1998 168.4Z" fill="white" stroke="#D1DAE5" stroke-width="1.8833" stroke-miterlimit="10" stroke-linecap="round" stroke-linejoin="round"/>
<path d="M47.8999 84.2H118.8C121 84.2 122.8 82.4 122.8 80.2V21.4C122.8 19.2 121 17.4 118.8 17.4H47.8999C45.6999 17.4 43.8999 19.2 43.8999 21.4V80.2C43.8999 82.4 45.6999 84.2 47.8999 84.2Z" fill="#F8F9FA"/>
<path d="M99.3 84.1C105.3 79.1 109 71 109 62.5C109 46.8 96.3 34 80.6 34C64.9 34 52 46.8 52 62.6V84.1H99.3Z" fill="white"/>
<path opacity="0.6" d="M57 84.1V62.4C57 42.7 73 34.1 84.6 34.4C83.2 34.2 81.8 34.1 80.3 34.1H80.4C64.7 34.1 52 46.8 52 62.4V84.1H57Z" fill="#EAEFF4"/>
<path d="M99.3 84.1C105.3 79.1 109 71 109 62.5C109 46.8 96.3 34 80.6 34C64.9 34 52 46.8 52 62.6V84.1" stroke="#D1DAE5" stroke-width="2" stroke-miterlimit="10" stroke-linecap="round" stroke-linejoin="round"/>
<path d="M100.7 58.4C101.639 58.4 102.4 57.1912 102.4 55.7C102.4 54.2088 101.639 53 100.7 53C99.7611 53 99 54.2088 99 55.7C99 57.1912 99.7611 58.4 100.7 58.4Z" fill="#B8C0CC"/>
<path d="M88.5999 58.4C89.5388 58.4 90.2999 57.1912 90.2999 55.7C90.2999 54.2088 89.5388 53 88.5999 53C87.661 53 86.8999 54.2088 86.8999 55.7C86.8999 57.1912 87.661 58.4 88.5999 58.4Z" fill="#B8C0CC"/>
<path d="M85.4 65.5C90.8676 65.5 95.3 61.0676 95.3 55.6C95.3 50.1324 90.8676 45.7 85.4 45.7C79.9324 45.7 75.5 50.1324 75.5 55.6C75.5 61.0676 79.9324 65.5 85.4 65.5Z" stroke="#D1DAE5" stroke-width="1.8833" stroke-miterlimit="10" stroke-linecap="round" stroke-linejoin="round"/>
<path d="M105.1 65.5C110.568 65.5 115 61.0676 115 55.6C115 50.1324 110.568 45.7 105.1 45.7C99.6326 45.7 95.2002 50.1324 95.2002 55.6C95.2002 61.0676 99.6326 65.5 105.1 65.5Z" stroke="#D1DAE5" stroke-width="1.8833" stroke-miterlimit="10" stroke-linecap="round" stroke-linejoin="round"/>
<path d="M47.8999 84.2H118.8C121 84.2 122.8 82.4 122.8 80.2V21.4C122.8 19.2 121 17.4 118.8 17.4H47.8999C45.6999 17.4 43.8999 19.2 43.8999 21.4V80.2C43.8999 82.4 45.6999 84.2 47.8999 84.2Z" stroke="#D1DAE5" stroke-width="1.8833" stroke-miterlimit="10" stroke-linecap="round" stroke-linejoin="round"/>
<path d="M68.2809 28.6555C68.7134 26.0961 66.9891 23.6707 64.4297 23.2382C61.8703 22.8058 59.445 24.53 59.0125 27.0894C58.5801 29.6488 60.3043 32.0742 62.8637 32.5066C65.4231 32.9391 67.8485 31.2149 68.2809 28.6555Z" fill="#D1DAE5"/>
<path d="M62.4998 64.2C62.4998 64.2 57.2998 45.8 64.1998 27.9" stroke="#D1DAE5" stroke-width="1.8833" stroke-miterlimit="10" stroke-linecap="round" stroke-linejoin="round"/>
<path d="M252.1 101.1H181.2C179 101.1 177.2 99.3 177.2 97.1V38.3C177.2 36.1 179 34.3 181.2 34.3H252.1C254.3 34.3 256.1 36.1 256.1 38.3V97.1C256.1 99.3 254.3 101.1 252.1 101.1Z" fill="#F8F9FA"/>
<path d="M193.721 54.8692C193.899 52.2797 191.945 50.0361 189.355 49.858C186.766 49.68 184.522 51.6348 184.344 54.2243C184.166 56.8138 186.121 59.0574 188.71 59.2355C191.3 59.4135 193.543 57.4587 193.721 54.8692Z" fill="#D1DAE5"/>
<path d="M204.7 83.4C204.7 83.4 186.5 77 189.5 54.5" stroke="#D1DAE5" stroke-width="1.8833" stroke-miterlimit="10" stroke-linecap="round" stroke-linejoin="round"/>
<path d="M203.1 100.9H250V79.3C250 63.6 237.3 50.9 221.6 50.9H221.7C206.1 50.9 193.3 63.6 193.3 79.2V79.3C193.2 87.9 197.1 95.9 203.1 100.9Z" fill="white"/>
<path opacity="0.6" d="M245 79.1V100.9H250V79.1C250 63.5 237.5 50.9 221.8 50.9H221.9C220.4 50.9 218.9 50.9 217.5 51.2C229.2 50.9 245 59.4 245 79.1Z" fill="#EAEFF4"/>
<path d="M250 100.9V79.3C250 63.6 237.3 50.9 221.6 50.9H221.7C206.1 50.9 193.3 63.6 193.3 79.2V79.3C193.3 87.9 197.1 95.9 203.1 100.9" stroke="#D1DAE5" stroke-width="2" stroke-miterlimit="10" stroke-linecap="round" stroke-linejoin="round"/>
<path d="M215.3 74.9C216.239 74.9 217 73.6912 217 72.2C217 70.7088 216.239 69.5 215.3 69.5C214.361 69.5 213.6 70.7088 213.6 72.2C213.6 73.6912 214.361 74.9 215.3 74.9Z" fill="#B8C0CC"/>
<path d="M206.2 74.9C207.139 74.9 207.9 73.6912 207.9 72.2C207.9 70.7088 207.139 69.5 206.2 69.5C205.261 69.5 204.5 70.7088 204.5 72.2C204.5 73.6912 205.261 74.9 206.2 74.9Z" fill="#B8C0CC"/>
<path d="M252.1 101.1H181.2C179 101.1 177.2 99.3 177.2 97.1V38.3C177.2 36.1 179 34.3 181.2 34.3H252.1C254.3 34.3 256.1 36.1 256.1 38.3V97.1C256.1 99.3 254.3 101.1 252.1 101.1Z" stroke="#D1DAE5" stroke-width="1.8833" stroke-miterlimit="10" stroke-linecap="round" stroke-linejoin="round"/>
<path d="M378.1 67.7H307.2C305 67.7 303.2 65.9 303.2 63.7V4.9C303.2 2.7 305 0.9 307.2 0.9H378.1C380.3 0.9 382.1 2.7 382.1 4.9V63.7C382.1 65.9 380.3 67.7 378.1 67.7Z" fill="#F8F9FA"/>
<path d="M326.8 67.3H374V46.3C374 30.6 361.1 17.3 345.4 17.3C329.8 17.3 317 30.3 317 45.9V45.8C316.9 54.5 320.8 62.3 326.8 67.3Z" fill="white"/>
<path opacity="0.6" d="M369 46.2V67.3H374V46.2C374 30.6 361.3 17.3 345.7 17.3C344.2 17.3 342.9 17.6 341.4 17.9C353 17.6 369 26.5 369 46.2Z" fill="#EAEFF4"/>
<path d="M374 67.3V46.3C374 30.6 361.1 17.3 345.4 17.3C329.8 17.3 317 30.3 317 45.9V45.8C317 54.4 320.8 62.3 326.8 67.3" stroke="#D1DAE5" stroke-width="2" stroke-miterlimit="10" stroke-linecap="round" stroke-linejoin="round"/>
<path d="M325.4 41.9C326.339 41.9 327.1 40.6912 327.1 39.2C327.1 37.7088 326.339 36.5 325.4 36.5C324.461 36.5 323.7 37.7088 323.7 39.2C323.7 40.6912 324.461 41.9 325.4 41.9Z" fill="#B8C0CC"/>
<path d="M337.5 41.9C338.439 41.9 339.2 40.6912 339.2 39.2C339.2 37.7088 338.439 36.5 337.5 36.5C336.561 36.5 335.8 37.7088 335.8 39.2C335.8 40.6912 336.561 41.9 337.5 41.9Z" fill="#B8C0CC"/>
<path d="M378.1 67.7H307.2C305 67.7 303.2 65.9 303.2 63.7V4.9C303.2 2.7 305 0.9 307.2 0.9H378.1C380.3 0.9 382.1 2.7 382.1 4.9V63.7C382.1 65.9 380.3 67.7 378.1 67.7Z" stroke="#D1DAE5" stroke-width="1.8833" stroke-miterlimit="10" stroke-linecap="round" stroke-linejoin="round"/>
<path d="M363.271 16.013C365.83 15.5806 367.554 13.1552 367.122 10.5958C366.689 8.03638 364.264 6.31215 361.705 6.7446C359.145 7.17705 357.421 9.60242 357.853 12.1618C358.286 14.7212 360.711 16.4455 363.271 16.013Z" fill="#D1DAE5"/>
<path d="M363.6 47.8C363.6 47.8 368.8 29.4 361.9 11.5" stroke="#D1DAE5" stroke-width="1.8833" stroke-miterlimit="10" stroke-linecap="round" stroke-linejoin="round"/>
<path d="M329.1 47.3H313.7C312.5 47.3 311.6 46.3 311.6 45.2V33C311.6 31.8 312.6 30.9 313.7 30.9H329.1C330.3 30.9 331.2 31.9 331.2 33V45.1C331.3 46.3 330.3 47.3 329.1 47.3Z" stroke="#D1DAE5" stroke-width="1.8833" stroke-miterlimit="10" stroke-linecap="round" stroke-linejoin="round"/>
<path d="M348.8 47.3H333.4C332.2 47.3 331.3 46.3 331.3 45.2V33C331.3 31.8 332.3 30.9 333.4 30.9H348.8C350 30.9 350.9 31.9 350.9 33V45.1C351 46.3 350 47.3 348.8 47.3Z" stroke="#D1DAE5" stroke-width="1.8833" stroke-miterlimit="10" stroke-linecap="round" stroke-linejoin="round"/>
<path d="M342.3 226.4H413.2C415.4 226.4 417.2 224.6 417.2 222.4V163.6C417.2 161.4 415.4 159.6 413.2 159.6H342.3C340.1 159.6 338.3 161.4 338.3 163.6V222.4C338.4 224.6 340.1 226.4 342.3 226.4Z" fill="#F8F9FA"/>
<path d="M355.692 180.312C355.87 177.722 353.915 175.479 351.326 175.3C348.736 175.122 346.493 177.077 346.315 179.667C346.137 182.256 348.091 184.5 350.681 184.678C353.27 184.856 355.514 182.901 355.692 180.312Z" fill="#D1DAE5"/>
<path d="M366.7 208.9C366.7 208.9 348.5 202.5 351.5 180" stroke="#D1DAE5" stroke-width="1.8833" stroke-miterlimit="10" stroke-linecap="round" stroke-linejoin="round"/>
<path d="M365.1 226.3H412V204.7C412 189 399.3 176.3 383.6 176.3H383.7C368.1 176.3 355.3 189 355.3 204.6V204.7C355.3 213.3 359.1 221.3 365.1 226.3Z" fill="white"/>
<path opacity="0.6" d="M407 204.6V226.4H412V204.6C412 189 399.5 176.4 383.8 176.4H383.9C382.4 176.4 380.9 176.4 379.5 176.7C391.2 176.3 407 184.8 407 204.6Z" fill="#EAEFF4"/>
<path d="M412 226.3V204.7C412 189 399.3 176.3 383.6 176.3H383.7C368.1 176.3 355.3 189 355.3 204.6V204.7C355.3 213.3 359.1 221.3 365.1 226.3" stroke="#D1DAE5" stroke-width="2" stroke-miterlimit="10" stroke-linecap="round" stroke-linejoin="round"/>
<path d="M377.3 200.3C378.238 200.3 379 199.091 379 197.6C379 196.109 378.238 194.9 377.3 194.9C376.361 194.9 375.6 196.109 375.6 197.6C375.6 199.091 376.361 200.3 377.3 200.3Z" fill="#B8C0CC"/>
<path d="M368.2 200.3C369.139 200.3 369.9 199.091 369.9 197.6C369.9 196.109 369.139 194.9 368.2 194.9C367.261 194.9 366.5 196.109 366.5 197.6C366.5 199.091 367.261 200.3 368.2 200.3Z" fill="#B8C0CC"/>
<path d="M413.3 226.4H342.4C340.2 226.4 338.4 224.6 338.4 222.4V163.6C338.4 161.4 340.2 159.6 342.4 159.6H413.3C415.5 159.6 417.3 161.4 417.3 163.6V222.4C417.3 224.6 415.5 226.4 413.3 226.4Z" stroke="#D1DAE5" stroke-width="1.8833" stroke-miterlimit="10" stroke-linecap="round" stroke-linejoin="round"/>
<path d="M394.8 206.6C392.9 206.6 391.3 205 391.3 203.1V200.6C391.3 198.7 392.9 197.1 394.8 197.1C396.7 197.1 398.3 198.7 398.3 200.6V203.1C398.3 205 396.7 206.6 394.8 206.6Z" stroke="#D1DAE5" stroke-width="1.8833" stroke-miterlimit="10" stroke-linecap="round" stroke-linejoin="round"/>
<path d="M394.8 197C394.8 183.4 379 168.6 371.9 178.9" stroke="#D1DAE5" stroke-width="1.8833" stroke-miterlimit="10" stroke-linecap="round" stroke-linejoin="round"/>
<path d="M229.7 296H197.2C196.1 296 195.2 295.1 195.2 294V261.5C195.2 260.4 196.1 259.5 197.2 259.5H229.7C230.8 259.5 231.7 260.4 231.7 261.5V294C231.7 295.1 230.8 296 229.7 296Z" fill="#EAEFF4"/>
<path d="M337.9 304.3H247.4C244.1 304.3 241.4 307 241.4 310.3V369.4C241.4 372.7 244.1 375.4 247.4 375.4H337.9C341.2 375.4 343.9 372.7 343.9 369.4V310.3C343.9 307 341.2 304.3 337.9 304.3Z" fill="white" stroke="#B8C0CC" stroke-width="1.8833" stroke-miterlimit="10" stroke-linecap="round" stroke-linejoin="round"/>
<path d="M322.9 364.8C327.208 364.8 330.7 361.308 330.7 357C330.7 352.692 327.208 349.2 322.9 349.2C318.592 349.2 315.1 352.692 315.1 357C315.1 361.308 318.592 364.8 322.9 364.8Z" fill="#FFC861"/>
<path d="M313.8 364.8C318.108 364.8 321.6 361.308 321.6 357C321.6 352.692 318.108 349.2 313.8 349.2C309.492 349.2 306 352.692 306 357C306 361.308 309.492 364.8 313.8 364.8Z" fill="#EF6356"/>
<path d="M252.9 360.3H280.7" stroke="#B8C0CC" stroke-width="1.8833" stroke-miterlimit="10" stroke-linecap="round" stroke-linejoin="round"/>
<path d="M252.9 354.6H264.9" stroke="#B8C0CC" stroke-width="1.8833" stroke-miterlimit="10" stroke-linecap="round" stroke-linejoin="round"/>
<path d="M253.5 341.3C252.6 341.3 251.9 340.6 251.9 339.7V337.6C251.9 336.7 252.6 336 253.5 336C254.4 336 255.1 336.7 255.1 337.6V339.7C255.1 340.6 254.4 341.3 253.5 341.3Z" fill="#B8C0CC"/>
<path d="M262.9 329.5H254.2C252.4 329.5 250.9 328 250.9 326.2V317.5C250.9 315.7 252.4 314.2 254.2 314.2H262.9C264.7 314.2 266.2 315.7 266.2 317.5V326.2C266.2 328 264.7 329.5 262.9 329.5Z" fill="#EAEFF4"/>
<path d="M259.4 341.3C258.5 341.3 257.8 340.6 257.8 339.7V337.6C257.8 336.7 258.5 336 259.4 336C260.3 336 261 336.7 261 337.6V339.7C260.9 340.6 260.2 341.3 259.4 341.3Z" fill="#B8C0CC"/>
<path d="M265.3 341.3C264.4 341.3 263.7 340.6 263.7 339.7V337.6C263.7 336.7 264.4 336 265.3 336C266.2 336 266.9 336.7 266.9 337.6V339.7C266.9 340.6 266.2 341.3 265.3 341.3Z" fill="#B8C0CC"/>
<path d="M271.3 341.3C270.4 341.3 269.7 340.6 269.7 339.7V337.6C269.7 336.7 270.4 336 271.3 336C272.2 336 272.9 336.7 272.9 337.6V339.7C272.9 340.6 272.2 341.3 271.3 341.3Z" fill="#B8C0CC"/>
<path d="M282.1 341.3C281.2 341.3 280.5 340.6 280.5 339.7V337.6C280.5 336.7 281.2 336 282.1 336C283 336 283.7 336.7 283.7 337.6V339.7C283.6 340.6 282.9 341.3 282.1 341.3Z" fill="#B8C0CC"/>
<path d="M287.9 341.3C287 341.3 286.3 340.6 286.3 339.7V337.6C286.3 336.7 287 336 287.9 336C288.8 336 289.5 336.7 289.5 337.6V339.7C289.5 340.6 288.8 341.3 287.9 341.3Z" fill="#B8C0CC"/>
<path d="M293.9 341.3C293 341.3 292.3 340.6 292.3 339.7V337.6C292.3 336.7 293 336 293.9 336C294.8 336 295.5 336.7 295.5 337.6V339.7C295.5 340.6 294.8 341.3 293.9 341.3Z" fill="#B8C0CC"/>
<path d="M299.9 341.3C299 341.3 298.3 340.6 298.3 339.7V337.6C298.3 336.7 299 336 299.9 336C300.8 336 301.5 336.7 301.5 337.6V339.7C301.5 340.6 300.8 341.3 299.9 341.3Z" fill="#B8C0CC"/>
<path d="M310.2 341.3C309.3 341.3 308.6 340.6 308.6 339.7V337.6C308.6 336.7 309.3 336 310.2 336C311.1 336 311.8 336.7 311.8 337.6V339.7C311.8 340.6 311.1 341.3 310.2 341.3Z" fill="#B8C0CC"/>
<path d="M316.1 341.3C315.2 341.3 314.5 340.6 314.5 339.7V337.6C314.5 336.7 315.2 336 316.1 336C317 336 317.7 336.7 317.7 337.6V339.7C317.6 340.6 316.9 341.3 316.1 341.3Z" fill="#B8C0CC"/>
<path d="M322 341.3C321.1 341.3 320.4 340.6 320.4 339.7V337.6C320.4 336.7 321.1 336 322 336C322.9 336 323.6 336.7 323.6 337.6V339.7C323.6 340.6 322.9 341.3 322 341.3Z" fill="#B8C0CC"/>
<path d="M328 341.3C327.1 341.3 326.4 340.6 326.4 339.7V337.6C326.4 336.7 327.1 336 328 336C328.9 336 329.6 336.7 329.6 337.6V339.7C329.6 340.6 328.9 341.3 328 341.3Z" fill="#B8C0CC"/>
</g>
<defs>
<clipPath id="clip0">
<rect width="418.2" height="376.3" fill="white"/>
</clipPath>
</defs>
</svg>
