<svg width="20" height="20" viewBox="0 0 20 20" fill="none" xmlns="http://www.w3.org/2000/svg">
<path d="M15.0002 5.4165V1.6665H0.833496V14.9998H8.3335" stroke="#11ABD5" stroke-width="1.5" stroke-linecap="round" stroke-linejoin="round"/>
<path d="M14.5832 13.3333C16.194 13.3333 17.4998 12.0275 17.4998 10.4167C17.4998 8.80584 16.194 7.5 14.5832 7.5C12.9723 7.5 11.6665 8.80584 11.6665 10.4167C11.6665 12.0275 12.9723 13.3333 14.5832 13.3333Z" stroke="#11ABD5" stroke-width="1.5" stroke-linecap="round" stroke-linejoin="round"/>
<path d="M19.166 18.3335V17.8435C19.1763 17.2548 19.0654 16.6701 18.8397 16.1234C18.6141 15.5767 18.2782 15.0789 17.8516 14.6591C17.425 14.2393 16.9164 13.9059 16.3552 13.6783C15.7941 13.4507 15.1917 13.3335 14.5833 13.3335C13.9749 13.3335 13.3726 13.4507 12.8114 13.6783C12.2503 13.9059 11.7416 14.2393 11.315 14.6591C10.8885 15.0789 10.5526 15.5767 10.3269 16.1234C10.1012 16.6701 9.99034 17.2548 10.0007 17.8435V18.3335" stroke="#11ABD5" stroke-width="1.5" stroke-linecap="round" stroke-linejoin="round"/>
</svg>
