<svg width="20" height="20" viewBox="0 0 20 20" fill="none" xmlns="http://www.w3.org/2000/svg">
<path d="M18.6139 12.5772L16.7104 10.9626C16.8064 10.3244 16.8064 9.67515 16.7104 9.03694L18.6139 7.42231C18.6825 7.36459 18.7287 7.28407 18.7443 7.19505C18.7598 7.10603 18.7436 7.01431 18.6986 6.93625L16.9654 3.89419C16.9209 3.81657 16.8509 3.75727 16.7676 3.72662C16.6844 3.69597 16.5931 3.69594 16.5098 3.72652L14.1818 4.58847C13.6795 4.19099 13.1243 3.86753 12.5326 3.62768L12.1041 1.14867C12.0888 1.06026 12.0432 0.980161 11.9754 0.922501C11.9075 0.864841 11.8217 0.8333 11.7332 0.833497H8.26683C8.17827 0.8333 8.09249 0.864841 8.02462 0.922501C7.95675 0.980161 7.91117 1.06026 7.8959 1.14867L7.4674 3.62768C6.87585 3.86786 6.32066 4.19129 5.81818 4.58847L3.49024 3.72652C3.40698 3.69545 3.31553 3.69523 3.23212 3.72593C3.14872 3.75662 3.07875 3.81622 3.03456 3.89419L1.30137 6.93625C1.25638 7.01431 1.24023 7.10603 1.25574 7.19505C1.27126 7.28407 1.31747 7.36459 1.38612 7.42231L3.28955 9.03694C3.19372 9.67516 3.19372 10.3244 3.28955 10.9626L1.38612 12.5772C1.31747 12.6349 1.27126 12.7155 1.25574 12.8045C1.24023 12.8935 1.25638 12.9852 1.30137 13.0633L3.03456 16.1053C3.07898 16.1831 3.149 16.2425 3.23232 16.2732C3.31564 16.3038 3.40695 16.3038 3.49024 16.2731L5.81818 15.4111C6.32046 15.8085 6.87569 16.1321 7.4674 16.3719L7.8959 18.8509C7.91115 18.9394 7.95672 19.0196 8.02457 19.0774C8.09242 19.1352 8.1782 19.1668 8.26683 19.1668H11.7332C11.8218 19.1668 11.9076 19.1352 11.9755 19.0774C12.0433 19.0196 12.0889 18.9394 12.1041 18.8509L12.5326 16.3719C13.1243 16.1321 13.6795 15.8085 14.1818 15.4111L16.5098 16.2731C16.5931 16.3035 16.6843 16.3034 16.7675 16.2727C16.8508 16.2421 16.9208 16.1828 16.9654 16.1053L18.6986 13.0609C18.743 12.983 18.7588 12.8919 18.7433 12.8034C18.7278 12.7149 18.6819 12.6348 18.6139 12.5772ZM10 13.5729C9.30338 13.5729 8.62235 13.3635 8.04311 12.9713C7.46387 12.5791 7.01244 12.0216 6.74584 11.3694C6.47925 10.7172 6.40949 9.99947 6.5454 9.30707C6.68131 8.61466 7.01676 7.97862 7.50936 7.47942C8.00196 6.98023 8.62961 6.64028 9.31287 6.50255C9.99612 6.36483 10.7043 6.43552 11.3479 6.70568C11.9916 6.97584 12.5417 7.43333 12.9287 8.02032C13.3157 8.60731 13.5223 9.29746 13.5223 10.0034C13.5211 10.9497 13.1496 11.8569 12.4893 12.526C11.829 13.1951 10.9338 13.5716 10 13.5729V13.5729Z" stroke="#11ABD5" stroke-width="1.5" stroke-linecap="round" stroke-linejoin="round"/>
</svg>
