<svg width="118" height="109" viewBox="0 0 118 109" fill="none" xmlns="http://www.w3.org/2000/svg">
<path d="M52.86 105.72C82.0538 105.72 105.72 82.0538 105.72 52.86C105.72 23.6662 82.0538 0 52.86 0C23.6662 0 0 23.6662 0 52.86C0 82.0538 23.6662 105.72 52.86 105.72Z" fill="#F5F8FA"/>
<path d="M88.7322 32C84.1037 32 79.8603 33.4749 76.1199 36.3838C72.5339 39.1727 70.1465 42.7247 68.7409 45.3077C67.3354 42.7246 64.9479 39.1727 61.362 36.3838C57.6216 33.4749 53.3781 32 48.7496 32C35.8332 32 26.0928 42.6241 26.0928 56.7126C26.0928 71.9331 38.2447 82.3467 56.641 98.1115C59.765 100.789 63.3059 103.823 66.9864 107.06C67.4715 107.487 68.0945 107.722 68.7409 107.722C69.3873 107.722 70.0104 107.487 70.4955 107.06C74.1762 103.823 77.717 100.789 80.8428 98.1099C99.2372 82.3467 111.389 71.9331 111.389 56.7126C111.389 42.6241 101.649 32 88.7322 32Z" fill="white"/>
<path d="M28.078 66.8148C26.7813 63.6074 26.0928 60.266 26.0928 56.6543C26.0928 43.1063 35.6553 32 48.7496 32C57.8363 32 64.5789 37.6366 68.7409 45.6325C72.9026 37.6371 79.6452 32 88.7322 32C101.828 32 111.389 43.1085 111.389 56.6543C111.389 59.6182 110.926 62.3996 110.044 65.0741M32.6206 74.7434C39.6829 84.3339 51.9859 93.7438 67.0953 107.098C68.0376 107.93 69.4441 107.93 70.3865 107.098C84.8699 94.297 96.7633 85.1271 103.943 75.9537" stroke="#B8C0CC" stroke-width="2" stroke-linecap="round"/>
<path d="M20 70.5551H53.405L59.6198 55.5L66.6116 83.3519L74.3802 60.0165L82.1488 80.3408L88.3636 70.5551H117" stroke="#11ABD5" stroke-width="2" stroke-linecap="round" stroke-linejoin="round"/>
</svg>
