<svg width="539" height="454" viewBox="0 0 539 454" fill="none" xmlns="http://www.w3.org/2000/svg">
<g filter="url(#filter0_d)">
<path d="M371.273 434H179.938C174.505 434 170 429.495 170 424.062V17.9378C170 12.5051 174.505 8 179.938 8H371.406C376.839 8 381.344 12.5051 381.344 17.9378V424.062C381.211 429.495 376.839 434 371.273 434Z" fill="white"/>
</g>
<path d="M352.856 406.572H293.229C287.929 406.572 283.556 402.199 283.556 396.899V367.351C283.556 362.05 287.929 357.678 293.229 357.678H352.856C358.156 357.678 362.528 362.05 362.528 367.351V396.899C362.528 402.199 358.156 406.572 352.856 406.572Z" fill="#11ABD5"/>
<path d="M381.211 79.6846H170V17.9378C170 12.5051 174.505 8 179.938 8H371.406C376.839 8 381.344 12.5051 381.344 17.9378V79.6846H381.211Z" fill="#11ABD5"/>
<path d="M206.836 22.708C195.573 22.708 186.43 31.8508 186.43 43.1136C186.43 54.3764 195.573 63.5192 206.836 63.5192C218.099 63.5192 227.241 54.3764 227.241 43.1136C227.241 31.8508 218.099 22.708 206.836 22.708Z" fill="white"/>
<rect opacity="0.12" x="188" y="103" width="112" height="10" rx="5" fill="#11ABD5"/>
<rect opacity="0.12" x="188" y="131" width="112" height="10" rx="5" fill="#11ABD5"/>
<rect opacity="0.12" x="188" y="159" width="112" height="10" rx="5" fill="#11ABD5"/>
<path opacity="0.12" d="M359.878 225.969H327.68C325.162 225.969 323.042 223.849 323.042 221.331V220.801C323.042 218.284 325.162 216.164 327.68 216.164H359.746C362.263 216.164 364.383 218.284 364.383 220.801V221.331C364.516 223.849 362.396 225.969 359.878 225.969Z" fill="#11ABD5"/>
<path opacity="0.1" d="M257.055 406.572H197.428C192.128 406.572 187.755 402.199 187.755 396.899V367.351C187.755 362.05 192.128 357.678 197.428 357.678H257.055C262.355 357.678 266.728 362.05 266.728 367.351V396.899C266.728 402.199 262.355 406.572 257.055 406.572Z" stroke="#11ABD5" stroke-width="2" stroke-miterlimit="10"/>
<path opacity="0.1" d="M257.055 336.875H197.428C192.128 336.875 187.755 332.502 187.755 327.202V297.654C187.755 292.353 192.128 287.981 197.428 287.981H257.055C262.355 287.981 266.728 292.353 266.728 297.654V327.202C266.728 332.502 262.355 336.875 257.055 336.875Z" stroke="#11ABD5" stroke-width="2" stroke-miterlimit="10"/>
<path opacity="0.1" d="M352.856 336.875H293.229C287.929 336.875 283.556 332.502 283.556 327.202V297.654C283.556 292.353 287.929 287.981 293.229 287.981H352.856C358.156 287.981 362.528 292.353 362.528 297.654V327.202C362.528 332.502 358.156 336.875 352.856 336.875Z" stroke="#11ABD5" stroke-width="2" stroke-miterlimit="10"/>
<path opacity="0.5" d="M342.785 37.9459H247.912C245.262 37.9459 243.01 35.6933 243.01 33.0433C243.01 30.3932 245.262 28.1406 247.912 28.1406H342.785C345.435 28.1406 347.688 30.3932 347.688 33.0433C347.688 35.6933 345.435 37.9459 342.785 37.9459Z" fill="white"/>
<path opacity="0.5" d="M303.299 58.8815H247.912C245.262 58.8815 243.01 56.6289 243.01 53.9788C243.01 51.3287 245.262 49.0762 247.912 49.0762H303.299C305.949 49.0762 308.202 51.3287 308.202 53.9788C308.202 56.7614 305.949 58.8815 303.299 58.8815Z" fill="white"/>
<path d="M226.58 378.083C226.58 381.264 226.58 384.311 226.58 387.491C227.772 387.491 228.832 387.491 229.892 387.491C229.892 384.311 229.892 381.131 229.892 378.083C228.832 378.083 227.64 378.083 226.58 378.083Z" fill="#6772E5"/>
<path d="M225.387 377.951C224.327 377.686 223.664 377.951 223.134 378.878C223.002 378.613 222.869 378.481 222.737 378.216C222.604 378.083 222.604 377.951 222.339 377.951C221.544 377.951 220.882 377.951 220.087 377.951C219.954 377.951 219.954 377.951 219.822 377.951C219.822 381.131 219.822 384.311 219.822 387.359C221.014 387.359 222.074 387.359 223.134 387.359C223.134 387.226 223.134 387.094 223.134 386.961C223.134 385.106 223.134 383.251 223.134 381.396C223.134 380.733 223.267 380.601 223.929 380.468C224.062 380.468 224.327 380.468 224.459 380.468C224.857 380.468 225.122 380.601 225.519 380.601C225.519 379.806 225.519 378.878 225.519 378.083C225.784 378.083 225.652 377.951 225.387 377.951Z" fill="#6772E5"/>
<path d="M211.341 382.191C211.076 381.926 210.679 381.794 210.281 381.661C210.016 381.529 209.751 381.396 209.486 381.264C209.354 381.131 209.221 380.866 209.221 380.734C209.221 380.601 209.486 380.469 209.619 380.336C209.884 380.336 210.149 380.336 210.281 380.336C210.811 380.469 211.474 380.469 212.004 380.601C212.004 379.939 212.004 379.276 212.004 378.481C212.004 378.216 211.871 378.216 211.739 378.084C210.546 377.686 209.486 377.554 208.294 377.819C207.234 378.084 206.306 378.614 206.041 379.806C205.909 380.071 205.909 380.336 205.909 380.601C205.909 380.734 205.909 380.999 205.909 381.131C205.909 381.264 205.909 381.264 205.909 381.396C206.041 382.191 206.306 382.721 206.969 383.119C207.234 383.384 207.631 383.516 207.896 383.649C208.161 383.781 208.426 383.914 208.824 384.179C209.089 384.311 209.089 384.576 209.089 384.709C208.956 384.841 208.824 384.974 208.691 385.106C208.426 385.106 208.029 385.106 207.764 385.106C207.234 384.974 206.704 384.841 206.174 384.841C206.174 385.636 206.174 386.431 206.174 387.094C206.174 387.226 206.306 387.226 206.439 387.359C207.499 387.624 208.559 387.756 209.751 387.756C211.474 387.624 212.401 386.696 212.534 384.974C212.534 383.781 212.269 382.854 211.341 382.191Z" fill="#6772E5"/>
<path d="M217.437 384.576C217.437 384.444 217.437 384.311 217.437 384.311C217.437 383.119 217.437 381.794 217.437 380.601C217.437 380.469 217.437 380.469 217.437 380.336C217.834 380.336 218.364 380.336 218.762 380.336C218.894 379.673 219.027 378.878 219.16 378.216C218.497 378.216 217.967 378.216 217.304 378.216C217.304 377.288 217.304 376.361 217.304 375.433C216.377 375.698 215.449 375.831 214.654 376.096C214.389 376.096 214.389 376.228 214.389 376.493C214.257 377.156 214.124 377.686 213.992 378.348C213.594 378.348 213.197 378.348 212.799 378.348C212.799 379.143 212.799 379.806 212.799 380.469C213.197 380.469 213.594 380.469 213.992 380.469C213.992 380.601 213.992 380.734 213.992 380.866C213.992 382.456 213.992 383.914 213.992 385.504C213.992 386.829 214.522 387.624 215.582 387.889C216.774 388.154 217.967 387.889 219.16 387.756C219.16 386.961 219.16 386.166 219.16 385.371C218.762 385.371 218.364 385.504 217.967 385.504C217.702 385.106 217.437 384.974 217.437 384.576Z" fill="#6772E5"/>
<path d="M228.435 373.446C228.302 373.446 228.17 373.446 228.037 373.446C227.242 373.578 226.58 374.241 226.58 375.168C226.58 375.698 226.845 376.096 227.11 376.361C227.375 376.626 227.64 376.758 227.905 376.758C228.037 376.758 228.17 376.758 228.302 376.758C229.23 376.758 230.025 375.963 230.025 375.036C229.892 374.241 229.23 373.578 228.435 373.446Z" fill="#6772E5"/>
<path d="M244.865 385.106C244.202 384.974 243.937 384.576 244.07 383.914C245.527 383.914 247.117 383.914 248.707 383.914C248.575 382.854 248.575 381.926 248.442 380.999C248.31 380.204 248.045 379.409 247.382 378.746C246.587 377.951 245.66 377.819 244.6 377.951C242.612 378.084 241.419 378.879 240.889 380.734C240.492 382.191 240.492 383.649 240.889 385.106C241.287 386.431 242.082 387.359 243.54 387.624C244.865 387.889 246.057 387.889 247.382 387.491C248.045 387.359 248.045 387.359 248.045 386.564C248.045 386.034 248.045 385.371 248.045 384.841C247.78 384.841 247.515 384.974 247.25 384.974C246.455 384.974 245.66 385.239 244.865 385.106ZM244.07 380.469C244.07 380.336 244.202 380.204 244.202 380.071C244.467 379.674 245.13 379.806 245.13 380.204C245.262 380.734 245.262 381.396 245.395 381.926C244.865 381.926 244.335 381.926 243.937 381.926C243.937 381.529 244.07 380.999 244.07 380.469Z" fill="#6772E5"/>
<path d="M239.565 381.263C239.565 380.601 239.432 379.806 239.035 379.143C238.77 378.481 238.372 378.083 237.71 377.951C236.65 377.686 235.722 377.818 234.795 378.348C234.662 378.348 234.662 378.481 234.53 378.481C234.265 377.818 233.735 377.818 233.205 377.818C233.072 377.818 233.072 377.818 232.94 377.818C232.41 377.818 231.88 377.818 231.35 377.818C231.35 377.951 231.35 378.083 231.35 378.216C231.35 382.323 231.35 386.299 231.35 390.406C231.35 390.539 231.35 390.671 231.35 390.671C232.542 390.671 233.602 390.671 234.795 390.671C234.795 389.479 234.795 388.419 234.795 387.359C235.325 387.359 235.722 387.491 236.252 387.491C237.842 387.491 238.902 386.696 239.3 385.106C239.3 384.974 239.3 384.974 239.3 384.841C239.697 383.914 239.697 382.589 239.565 381.263ZM236.12 384.444C235.987 385.239 235.457 385.371 234.795 385.106C234.795 384.841 234.795 384.709 234.795 384.444C234.795 383.251 234.795 382.058 234.795 380.733C234.795 380.468 234.927 380.468 235.06 380.336C235.192 380.336 235.325 380.203 235.325 380.203C235.855 380.071 236.12 380.203 236.12 380.733C236.385 382.058 236.385 383.251 236.12 384.444Z" fill="#6772E5"/>
<path d="M234.132 306.796C234 306.664 233.867 306.664 233.734 306.796C233.602 306.929 233.469 306.929 233.469 307.194C233.469 307.326 233.469 307.459 233.337 307.591C232.542 311.434 230.819 313.289 228.037 313.289H224.062C223.797 313.289 223.664 313.422 223.664 313.687L222.339 319.782L222.074 321.372C221.942 322.034 222.472 322.829 223.134 322.962C223.267 322.962 223.267 322.962 223.399 322.962H226.049C226.712 322.962 227.242 322.564 227.374 322.034L228.434 317.794H230.687C233.337 317.794 235.192 315.674 235.855 311.699C236.517 309.711 235.722 307.856 234.132 306.796Z" fill="#03A9F4"/>
<path d="M233.337 303.484C232.41 302.556 231.217 301.894 229.892 301.894H222.604C221.544 301.894 220.617 302.689 220.484 303.749L218.232 318.722C218.099 319.384 218.629 320.047 219.292 320.179H219.424H223.002C223.267 320.179 223.4 320.047 223.4 319.782L224.592 314.084H228.17C231.217 314.084 233.337 311.964 234.265 307.591C234.265 307.459 234.397 307.194 234.397 307.061C234.662 305.869 234.265 304.544 233.337 303.484Z" fill="#283593"/>
<path d="M329.667 322.034H316.417C314.826 322.034 313.501 320.709 313.501 319.119V305.869C313.501 304.279 314.826 302.954 316.417 302.954H329.667C331.257 302.954 332.582 304.279 332.582 305.869V319.119C332.582 320.709 331.257 322.034 329.667 322.034Z" stroke="black" stroke-width="2" stroke-miterlimit="10"/>
<path d="M325.559 315.939H320.657C319.994 315.939 319.597 315.409 319.597 314.879V309.977C319.597 309.314 320.127 308.917 320.657 308.917H325.559C326.222 308.917 326.619 309.447 326.619 309.977V314.879C326.619 315.542 326.089 315.939 325.559 315.939Z" fill="black"/>
<path opacity="0.1" d="M181.925 197.216H369.286" stroke="#11ABD5" stroke-width="2" stroke-miterlimit="10"/>
<path d="M360.056 109.816C360.056 110.669 359.757 111.389 359.16 111.976C358.573 112.563 357.779 112.931 356.776 113.08V114.088C356.776 114.333 356.701 114.531 356.552 114.68C356.403 114.84 356.205 114.92 355.96 114.92C355.715 114.92 355.517 114.84 355.368 114.68C355.219 114.531 355.144 114.333 355.144 114.088V113.112C354.536 113.059 353.944 112.931 353.368 112.728C352.792 112.525 352.296 112.259 351.88 111.928C351.741 111.832 351.645 111.725 351.592 111.608C351.539 111.491 351.512 111.347 351.512 111.176C351.512 110.952 351.576 110.755 351.704 110.584C351.843 110.413 351.997 110.328 352.168 110.328C352.275 110.328 352.371 110.349 352.456 110.392C352.552 110.424 352.675 110.483 352.824 110.568C353.315 110.888 353.795 111.123 354.264 111.272C354.744 111.421 355.245 111.496 355.768 111.496C356.483 111.496 357.032 111.357 357.416 111.08C357.811 110.803 358.008 110.403 358.008 109.88C358.008 109.571 357.901 109.32 357.688 109.128C357.475 108.936 357.208 108.787 356.888 108.68C356.568 108.563 356.12 108.429 355.544 108.28C354.744 108.077 354.093 107.875 353.592 107.672C353.091 107.459 352.659 107.139 352.296 106.712C351.933 106.285 351.752 105.709 351.752 104.984C351.752 104.12 352.061 103.384 352.68 102.776C353.299 102.168 354.109 101.789 355.112 101.64V100.632C355.112 100.387 355.187 100.189 355.336 100.04C355.485 99.88 355.683 99.8 355.928 99.8C356.173 99.8 356.371 99.88 356.52 100.04C356.669 100.189 356.744 100.387 356.744 100.632V101.624C357.821 101.763 358.749 102.152 359.528 102.792C359.784 102.984 359.912 103.235 359.912 103.544C359.912 103.768 359.843 103.965 359.704 104.136C359.576 104.307 359.421 104.392 359.24 104.392C359.144 104.392 359.048 104.376 358.952 104.344C358.867 104.312 358.749 104.248 358.6 104.152C358.163 103.843 357.747 103.613 357.352 103.464C356.968 103.304 356.509 103.224 355.976 103.224C355.315 103.224 354.787 103.373 354.392 103.672C353.997 103.96 353.8 104.36 353.8 104.872C353.8 105.224 353.912 105.512 354.136 105.736C354.36 105.949 354.643 106.115 354.984 106.232C355.325 106.349 355.789 106.483 356.376 106.632C357.155 106.824 357.789 107.021 358.28 107.224C358.771 107.427 359.187 107.736 359.528 108.152C359.88 108.557 360.056 109.112 360.056 109.816Z" fill="#11ABD5"/>
<path d="M360.056 137.816C360.056 138.669 359.757 139.389 359.16 139.976C358.573 140.563 357.779 140.931 356.776 141.08V142.088C356.776 142.333 356.701 142.531 356.552 142.68C356.403 142.84 356.205 142.92 355.96 142.92C355.715 142.92 355.517 142.84 355.368 142.68C355.219 142.531 355.144 142.333 355.144 142.088V141.112C354.536 141.059 353.944 140.931 353.368 140.728C352.792 140.525 352.296 140.259 351.88 139.928C351.741 139.832 351.645 139.725 351.592 139.608C351.539 139.491 351.512 139.347 351.512 139.176C351.512 138.952 351.576 138.755 351.704 138.584C351.843 138.413 351.997 138.328 352.168 138.328C352.275 138.328 352.371 138.349 352.456 138.392C352.552 138.424 352.675 138.483 352.824 138.568C353.315 138.888 353.795 139.123 354.264 139.272C354.744 139.421 355.245 139.496 355.768 139.496C356.483 139.496 357.032 139.357 357.416 139.08C357.811 138.803 358.008 138.403 358.008 137.88C358.008 137.571 357.901 137.32 357.688 137.128C357.475 136.936 357.208 136.787 356.888 136.68C356.568 136.563 356.12 136.429 355.544 136.28C354.744 136.077 354.093 135.875 353.592 135.672C353.091 135.459 352.659 135.139 352.296 134.712C351.933 134.285 351.752 133.709 351.752 132.984C351.752 132.12 352.061 131.384 352.68 130.776C353.299 130.168 354.109 129.789 355.112 129.64V128.632C355.112 128.387 355.187 128.189 355.336 128.04C355.485 127.88 355.683 127.8 355.928 127.8C356.173 127.8 356.371 127.88 356.52 128.04C356.669 128.189 356.744 128.387 356.744 128.632V129.624C357.821 129.763 358.749 130.152 359.528 130.792C359.784 130.984 359.912 131.235 359.912 131.544C359.912 131.768 359.843 131.965 359.704 132.136C359.576 132.307 359.421 132.392 359.24 132.392C359.144 132.392 359.048 132.376 358.952 132.344C358.867 132.312 358.749 132.248 358.6 132.152C358.163 131.843 357.747 131.613 357.352 131.464C356.968 131.304 356.509 131.224 355.976 131.224C355.315 131.224 354.787 131.373 354.392 131.672C353.997 131.96 353.8 132.36 353.8 132.872C353.8 133.224 353.912 133.512 354.136 133.736C354.36 133.949 354.643 134.115 354.984 134.232C355.325 134.349 355.789 134.483 356.376 134.632C357.155 134.824 357.789 135.021 358.28 135.224C358.771 135.427 359.187 135.736 359.528 136.152C359.88 136.557 360.056 137.112 360.056 137.816Z" fill="#11ABD5"/>
<path d="M360.056 165.816C360.056 166.669 359.757 167.389 359.16 167.976C358.573 168.563 357.779 168.931 356.776 169.08V170.088C356.776 170.333 356.701 170.531 356.552 170.68C356.403 170.84 356.205 170.92 355.96 170.92C355.715 170.92 355.517 170.84 355.368 170.68C355.219 170.531 355.144 170.333 355.144 170.088V169.112C354.536 169.059 353.944 168.931 353.368 168.728C352.792 168.525 352.296 168.259 351.88 167.928C351.741 167.832 351.645 167.725 351.592 167.608C351.539 167.491 351.512 167.347 351.512 167.176C351.512 166.952 351.576 166.755 351.704 166.584C351.843 166.413 351.997 166.328 352.168 166.328C352.275 166.328 352.371 166.349 352.456 166.392C352.552 166.424 352.675 166.483 352.824 166.568C353.315 166.888 353.795 167.123 354.264 167.272C354.744 167.421 355.245 167.496 355.768 167.496C356.483 167.496 357.032 167.357 357.416 167.08C357.811 166.803 358.008 166.403 358.008 165.88C358.008 165.571 357.901 165.32 357.688 165.128C357.475 164.936 357.208 164.787 356.888 164.68C356.568 164.563 356.12 164.429 355.544 164.28C354.744 164.077 354.093 163.875 353.592 163.672C353.091 163.459 352.659 163.139 352.296 162.712C351.933 162.285 351.752 161.709 351.752 160.984C351.752 160.12 352.061 159.384 352.68 158.776C353.299 158.168 354.109 157.789 355.112 157.64V156.632C355.112 156.387 355.187 156.189 355.336 156.04C355.485 155.88 355.683 155.8 355.928 155.8C356.173 155.8 356.371 155.88 356.52 156.04C356.669 156.189 356.744 156.387 356.744 156.632V157.624C357.821 157.763 358.749 158.152 359.528 158.792C359.784 158.984 359.912 159.235 359.912 159.544C359.912 159.768 359.843 159.965 359.704 160.136C359.576 160.307 359.421 160.392 359.24 160.392C359.144 160.392 359.048 160.376 358.952 160.344C358.867 160.312 358.749 160.248 358.6 160.152C358.163 159.843 357.747 159.613 357.352 159.464C356.968 159.304 356.509 159.224 355.976 159.224C355.315 159.224 354.787 159.373 354.392 159.672C353.997 159.96 353.8 160.36 353.8 160.872C353.8 161.224 353.912 161.512 354.136 161.736C354.36 161.949 354.643 162.115 354.984 162.232C355.325 162.349 355.789 162.483 356.376 162.632C357.155 162.824 357.789 163.021 358.28 163.224C358.771 163.427 359.187 163.736 359.528 164.152C359.88 164.557 360.056 165.112 360.056 165.816Z" fill="#11ABD5"/>
<path d="M311.924 223.214C311.924 223.961 311.663 224.591 311.14 225.104C310.627 225.617 309.931 225.939 309.054 226.07V226.952C309.054 227.167 308.989 227.339 308.858 227.47C308.727 227.61 308.555 227.68 308.34 227.68C308.125 227.68 307.953 227.61 307.822 227.47C307.691 227.339 307.626 227.167 307.626 226.952V226.098C307.094 226.051 306.576 225.939 306.072 225.762C305.568 225.585 305.134 225.351 304.77 225.062C304.649 224.978 304.565 224.885 304.518 224.782C304.471 224.679 304.448 224.553 304.448 224.404C304.448 224.208 304.504 224.035 304.616 223.886C304.737 223.737 304.873 223.662 305.022 223.662C305.115 223.662 305.199 223.681 305.274 223.718C305.358 223.746 305.465 223.797 305.596 223.872C306.025 224.152 306.445 224.357 306.856 224.488C307.276 224.619 307.715 224.684 308.172 224.684C308.797 224.684 309.278 224.563 309.614 224.32C309.959 224.077 310.132 223.727 310.132 223.27C310.132 222.999 310.039 222.78 309.852 222.612C309.665 222.444 309.432 222.313 309.152 222.22C308.872 222.117 308.48 222.001 307.976 221.87C307.276 221.693 306.707 221.515 306.268 221.338C305.829 221.151 305.451 220.871 305.134 220.498C304.817 220.125 304.658 219.621 304.658 218.986C304.658 218.23 304.929 217.586 305.47 217.054C306.011 216.522 306.721 216.191 307.598 216.06V215.178C307.598 214.963 307.663 214.791 307.794 214.66C307.925 214.52 308.097 214.45 308.312 214.45C308.527 214.45 308.699 214.52 308.83 214.66C308.961 214.791 309.026 214.963 309.026 215.178V216.046C309.969 216.167 310.781 216.508 311.462 217.068C311.686 217.236 311.798 217.455 311.798 217.726C311.798 217.922 311.737 218.095 311.616 218.244C311.504 218.393 311.369 218.468 311.21 218.468C311.126 218.468 311.042 218.454 310.958 218.426C310.883 218.398 310.781 218.342 310.65 218.258C310.267 217.987 309.903 217.787 309.558 217.656C309.222 217.516 308.821 217.446 308.354 217.446C307.775 217.446 307.313 217.577 306.968 217.838C306.623 218.09 306.45 218.44 306.45 218.888C306.45 219.196 306.548 219.448 306.744 219.644C306.94 219.831 307.187 219.975 307.486 220.078C307.785 220.181 308.191 220.297 308.704 220.428C309.385 220.596 309.941 220.769 310.37 220.946C310.799 221.123 311.163 221.394 311.462 221.758C311.77 222.113 311.924 222.598 311.924 223.214Z" fill="#11ABD5"/>
<path d="M328.584 385.224C328.584 386.504 328.136 387.584 327.24 388.464C326.36 389.344 325.168 389.896 323.664 390.12V391.632C323.664 392 323.552 392.296 323.328 392.52C323.104 392.76 322.808 392.88 322.44 392.88C322.072 392.88 321.776 392.76 321.552 392.52C321.328 392.296 321.216 392 321.216 391.632V390.168C320.304 390.088 319.416 389.896 318.552 389.592C317.688 389.288 316.944 388.888 316.32 388.392C316.112 388.248 315.968 388.088 315.888 387.912C315.808 387.736 315.768 387.52 315.768 387.264C315.768 386.928 315.864 386.632 316.056 386.376C316.264 386.12 316.496 385.992 316.752 385.992C316.912 385.992 317.056 386.024 317.184 386.088C317.328 386.136 317.512 386.224 317.736 386.352C318.472 386.832 319.192 387.184 319.896 387.408C320.616 387.632 321.368 387.744 322.152 387.744C323.224 387.744 324.048 387.536 324.624 387.12C325.216 386.704 325.512 386.104 325.512 385.32C325.512 384.856 325.352 384.48 325.032 384.192C324.712 383.904 324.312 383.68 323.832 383.52C323.352 383.344 322.68 383.144 321.816 382.92C320.616 382.616 319.64 382.312 318.888 382.008C318.136 381.688 317.488 381.208 316.944 380.568C316.4 379.928 316.128 379.064 316.128 377.976C316.128 376.68 316.592 375.576 317.52 374.664C318.448 373.752 319.664 373.184 321.168 372.96V371.448C321.168 371.08 321.28 370.784 321.504 370.56C321.728 370.32 322.024 370.2 322.392 370.2C322.76 370.2 323.056 370.32 323.28 370.56C323.504 370.784 323.616 371.08 323.616 371.448V372.936C325.232 373.144 326.624 373.728 327.792 374.688C328.176 374.976 328.368 375.352 328.368 375.816C328.368 376.152 328.264 376.448 328.056 376.704C327.864 376.96 327.632 377.088 327.36 377.088C327.216 377.088 327.072 377.064 326.928 377.016C326.8 376.968 326.624 376.872 326.4 376.728C325.744 376.264 325.12 375.92 324.528 375.696C323.952 375.456 323.264 375.336 322.464 375.336C321.472 375.336 320.68 375.56 320.088 376.008C319.496 376.44 319.2 377.04 319.2 377.808C319.2 378.336 319.368 378.768 319.704 379.104C320.04 379.424 320.464 379.672 320.976 379.848C321.488 380.024 322.184 380.224 323.064 380.448C324.232 380.736 325.184 381.032 325.92 381.336C326.656 381.64 327.28 382.104 327.792 382.728C328.32 383.336 328.584 384.168 328.584 385.224Z" fill="white"/>
<g filter="url(#filter1_d)">
<rect x="24" y="122" width="253" height="154" rx="10" fill="white"/>
</g>
<path d="M65.256 244.144C64.168 244.144 63.2133 243.909 62.392 243.44C61.5813 242.971 60.9573 242.299 60.52 241.424C60.0827 240.549 59.864 239.525 59.864 238.352C59.864 237.179 60.0827 236.16 60.52 235.296C60.9573 234.421 61.5813 233.749 62.392 233.28C63.2133 232.811 64.168 232.576 65.256 232.576C65.96 232.576 66.6213 232.683 67.24 232.896C67.8587 233.099 68.408 233.397 68.888 233.792C69.0267 233.899 69.1227 234.011 69.176 234.128C69.2293 234.245 69.256 234.389 69.256 234.56C69.256 234.795 69.192 234.992 69.064 235.152C68.936 235.312 68.7813 235.392 68.6 235.392C68.3867 235.392 68.168 235.317 67.944 235.168C67.4853 234.827 67.0587 234.592 66.664 234.464C66.2693 234.325 65.832 234.256 65.352 234.256C64.2427 234.256 63.4 234.603 62.824 235.296C62.2587 235.989 61.976 237.008 61.976 238.352C61.976 239.707 62.2587 240.731 62.824 241.424C63.4 242.117 64.2427 242.464 65.352 242.464C65.8107 242.464 66.232 242.395 66.616 242.256C67.0107 242.117 67.4533 241.883 67.944 241.552C68.0507 241.488 68.1573 241.435 68.264 241.392C68.3707 241.349 68.4827 241.328 68.6 241.328C68.7813 241.328 68.936 241.408 69.064 241.568C69.192 241.728 69.256 241.925 69.256 242.16C69.256 242.32 69.2293 242.464 69.176 242.592C69.1227 242.709 69.0267 242.821 68.888 242.928C68.408 243.323 67.8587 243.627 67.24 243.84C66.6213 244.043 65.96 244.144 65.256 244.144ZM74.2955 244.128C73.4955 244.128 72.7915 243.963 72.1835 243.632C71.5862 243.301 71.1222 242.827 70.7915 242.208C70.4608 241.589 70.2955 240.869 70.2955 240.048C70.2955 239.227 70.4608 238.512 70.7915 237.904C71.1222 237.285 71.5862 236.811 72.1835 236.48C72.7915 236.149 73.4955 235.984 74.2955 235.984C75.0955 235.984 75.7942 236.149 76.3915 236.48C76.9995 236.811 77.4635 237.285 77.7835 237.904C78.1142 238.512 78.2795 239.227 78.2795 240.048C78.2795 240.869 78.1142 241.589 77.7835 242.208C77.4635 242.827 76.9995 243.301 76.3915 243.632C75.7942 243.963 75.0955 244.128 74.2955 244.128ZM74.2795 242.576C74.9302 242.576 75.4262 242.363 75.7675 241.936C76.1088 241.509 76.2795 240.88 76.2795 240.048C76.2795 239.227 76.1088 238.603 75.7675 238.176C75.4262 237.739 74.9355 237.52 74.2955 237.52C73.6555 237.52 73.1595 237.739 72.8075 238.176C72.4662 238.603 72.2955 239.227 72.2955 240.048C72.2955 240.88 72.4662 241.509 72.8075 241.936C73.1488 242.363 73.6395 242.576 74.2795 242.576ZM84.4746 235.984C85.4133 235.984 86.112 236.251 86.5706 236.784C87.0293 237.317 87.2586 238.123 87.2586 239.2V243.136C87.2586 243.435 87.168 243.669 86.9866 243.84C86.816 244.011 86.576 244.096 86.2666 244.096C85.9573 244.096 85.712 244.011 85.5306 243.84C85.3493 243.669 85.2586 243.435 85.2586 243.136V239.312C85.2586 238.704 85.1413 238.261 84.9066 237.984C84.6826 237.707 84.3253 237.568 83.8346 237.568C83.2586 237.568 82.7946 237.749 82.4426 238.112C82.1013 238.475 81.9306 238.96 81.9306 239.568V243.136C81.9306 243.435 81.84 243.669 81.6586 243.84C81.4773 244.011 81.232 244.096 80.9226 244.096C80.6133 244.096 80.368 244.011 80.1866 243.84C80.016 243.669 79.9306 243.435 79.9306 243.136V236.944C79.9306 236.667 80.0213 236.443 80.2026 236.272C80.384 236.101 80.6293 236.016 80.9386 236.016C81.216 236.016 81.44 236.101 81.6106 236.272C81.792 236.432 81.8826 236.645 81.8826 236.912V237.344C82.1493 236.907 82.5066 236.571 82.9546 236.336C83.4026 236.101 83.9093 235.984 84.4746 235.984ZM96.01 234.592C95.6473 234.592 95.3593 234.496 95.146 234.304C94.9327 234.101 94.826 233.84 94.826 233.52C94.826 233.2 94.9327 232.944 95.146 232.752C95.3593 232.56 95.6473 232.464 96.01 232.464C96.362 232.464 96.6447 232.56 96.858 232.752C97.082 232.944 97.194 233.2 97.194 233.52C97.194 233.84 97.082 234.101 96.858 234.304C96.6447 234.496 96.362 234.592 96.01 234.592ZM96.106 236.176C96.7033 236.176 97.002 236.427 97.002 236.928V243.136C97.002 243.445 96.906 243.685 96.714 243.856C96.5327 244.016 96.298 244.096 96.01 244.096C95.722 244.096 95.482 244.016 95.29 243.856C95.098 243.685 95.002 243.445 95.002 243.136V237.68H91.834V243.136C91.834 243.445 91.738 243.68 91.546 243.84C91.3647 244 91.13 244.08 90.842 244.08C90.554 244.08 90.314 244 90.122 243.84C89.93 243.68 89.834 243.445 89.834 243.136V237.68H89.034C88.4367 237.68 88.138 237.429 88.138 236.928C88.138 236.427 88.4367 236.176 89.034 236.176H89.834V236.096C89.834 235.104 90.0953 234.32 90.618 233.744C91.1513 233.157 91.898 232.821 92.858 232.736L93.226 232.704C93.2793 232.693 93.3593 232.688 93.466 232.688C94.0313 232.688 94.314 232.928 94.314 233.408C94.314 233.643 94.25 233.824 94.122 233.952C93.994 234.08 93.818 234.155 93.594 234.176L93.242 234.208C92.7513 234.251 92.394 234.405 92.17 234.672C91.946 234.928 91.834 235.307 91.834 235.808V236.176H96.106ZM103.455 236.016C103.732 235.995 103.951 236.053 104.111 236.192C104.271 236.331 104.351 236.539 104.351 236.816C104.351 237.104 104.282 237.317 104.143 237.456C104.004 237.595 103.754 237.685 103.391 237.728L102.911 237.776C102.282 237.84 101.818 238.053 101.519 238.416C101.231 238.779 101.087 239.232 101.087 239.776V243.136C101.087 243.445 100.991 243.685 100.799 243.856C100.607 244.016 100.367 244.096 100.079 244.096C99.7909 244.096 99.5509 244.016 99.3589 243.856C99.1775 243.685 99.0869 243.445 99.0869 243.136V236.944C99.0869 236.645 99.1775 236.416 99.3589 236.256C99.5509 236.096 99.7855 236.016 100.063 236.016C100.34 236.016 100.564 236.096 100.735 236.256C100.906 236.405 100.991 236.624 100.991 236.912V237.552C101.194 237.083 101.492 236.72 101.887 236.464C102.292 236.208 102.74 236.064 103.231 236.032L103.455 236.016ZM114.508 235.984C115.361 235.984 116.012 236.24 116.46 236.752C116.919 237.253 117.148 238.069 117.148 239.2V243.136C117.148 243.445 117.052 243.685 116.86 243.856C116.679 244.016 116.439 244.096 116.14 244.096C115.852 244.096 115.612 244.016 115.42 243.856C115.239 243.685 115.148 243.445 115.148 243.136V239.2C115.148 238.613 115.041 238.197 114.828 237.952C114.625 237.696 114.311 237.568 113.884 237.568C113.361 237.568 112.945 237.749 112.636 238.112C112.327 238.464 112.172 238.949 112.172 239.568V243.136C112.172 243.445 112.076 243.685 111.884 243.856C111.703 244.016 111.468 244.096 111.18 244.096C110.892 244.096 110.652 244.016 110.46 243.856C110.268 243.685 110.172 243.445 110.172 243.136V239.2C110.172 238.613 110.065 238.197 109.852 237.952C109.649 237.696 109.335 237.568 108.908 237.568C108.385 237.568 107.969 237.749 107.66 238.112C107.361 238.464 107.212 238.949 107.212 239.568V243.136C107.212 243.445 107.116 243.685 106.924 243.856C106.732 244.016 106.492 244.096 106.204 244.096C105.916 244.096 105.676 244.016 105.484 243.856C105.303 243.685 105.212 243.445 105.212 243.136V236.944C105.212 236.645 105.308 236.416 105.5 236.256C105.692 236.096 105.932 236.016 106.22 236.016C106.497 236.016 106.721 236.096 106.892 236.256C107.073 236.405 107.164 236.624 107.164 236.912V237.296C107.409 236.869 107.735 236.544 108.14 236.32C108.556 236.096 109.031 235.984 109.564 235.984C110.737 235.984 111.521 236.475 111.916 237.456C112.151 237.008 112.497 236.651 112.956 236.384C113.415 236.117 113.932 235.984 114.508 235.984ZM125.373 241.856C125.554 241.856 125.698 241.925 125.805 242.064C125.922 242.203 125.981 242.389 125.981 242.624C125.981 242.955 125.783 243.232 125.389 243.456C125.026 243.659 124.615 243.824 124.157 243.952C123.698 244.069 123.261 244.128 122.845 244.128C121.586 244.128 120.589 243.765 119.853 243.04C119.117 242.315 118.749 241.323 118.749 240.064C118.749 239.264 118.909 238.555 119.229 237.936C119.549 237.317 119.997 236.837 120.573 236.496C121.159 236.155 121.821 235.984 122.557 235.984C123.261 235.984 123.874 236.139 124.397 236.448C124.919 236.757 125.325 237.195 125.613 237.76C125.901 238.325 126.045 238.992 126.045 239.76C126.045 240.219 125.842 240.448 125.437 240.448H120.717C120.781 241.184 120.989 241.728 121.341 242.08C121.693 242.421 122.205 242.592 122.877 242.592C123.218 242.592 123.517 242.549 123.773 242.464C124.039 242.379 124.338 242.261 124.669 242.112C124.989 241.941 125.223 241.856 125.373 241.856ZM122.605 237.392C122.061 237.392 121.623 237.563 121.293 237.904C120.973 238.245 120.781 238.736 120.717 239.376H124.333C124.311 238.725 124.151 238.235 123.853 237.904C123.554 237.563 123.138 237.392 122.605 237.392ZM134.209 232.64C134.507 232.64 134.753 232.725 134.945 232.896C135.137 233.067 135.233 233.291 135.233 233.568V243.136C135.233 243.424 135.142 243.653 134.961 243.824C134.779 243.995 134.539 244.08 134.241 244.08C133.942 244.08 133.702 243.995 133.521 243.824C133.339 243.653 133.249 243.424 133.249 243.136V242.736C133.014 243.173 132.673 243.515 132.225 243.76C131.787 244.005 131.286 244.128 130.721 244.128C130.049 244.128 129.446 243.957 128.913 243.616C128.39 243.275 127.979 242.795 127.681 242.176C127.393 241.547 127.249 240.827 127.249 240.016C127.249 239.205 127.393 238.496 127.681 237.888C127.979 237.28 128.39 236.811 128.913 236.48C129.435 236.149 130.038 235.984 130.721 235.984C131.286 235.984 131.787 236.101 132.225 236.336C132.662 236.571 132.998 236.901 133.233 237.328V233.536C133.233 233.269 133.318 233.056 133.489 232.896C133.67 232.725 133.91 232.64 134.209 232.64ZM131.249 242.576C131.889 242.576 132.379 242.357 132.721 241.92C133.073 241.483 133.249 240.859 133.249 240.048C133.249 239.237 133.073 238.619 132.721 238.192C132.379 237.755 131.894 237.536 131.265 237.536C130.625 237.536 130.129 237.749 129.777 238.176C129.425 238.603 129.249 239.216 129.249 240.016C129.249 240.827 129.425 241.456 129.777 241.904C130.129 242.352 130.619 242.576 131.249 242.576Z" fill="#11ABD5"/>
<path d="M137.24 169.144C136.141 169.144 135.187 168.909 134.376 168.44C133.576 167.971 132.957 167.299 132.52 166.424C132.083 165.549 131.864 164.525 131.864 163.352C131.864 162.179 132.077 161.16 132.504 160.296C132.941 159.421 133.565 158.749 134.376 158.28C135.187 157.811 136.141 157.576 137.24 157.576C138.339 157.576 139.288 157.811 140.088 158.28C140.899 158.749 141.517 159.421 141.944 160.296C142.381 161.16 142.6 162.179 142.6 163.352C142.6 164.525 142.381 165.549 141.944 166.424C141.507 167.299 140.883 167.971 140.072 168.44C139.272 168.909 138.328 169.144 137.24 169.144ZM137.24 167.496C138.275 167.496 139.08 167.139 139.656 166.424C140.243 165.709 140.536 164.685 140.536 163.352C140.536 162.019 140.243 161 139.656 160.296C139.08 159.581 138.275 159.224 137.24 159.224C136.195 159.224 135.379 159.581 134.792 160.296C134.216 161 133.928 162.019 133.928 163.352C133.928 164.685 134.216 165.709 134.792 166.424C135.379 167.139 136.195 167.496 137.24 167.496ZM149.053 160.984C149.991 160.984 150.69 161.251 151.149 161.784C151.607 162.317 151.837 163.123 151.837 164.2V168.136C151.837 168.435 151.746 168.669 151.565 168.84C151.394 169.011 151.154 169.096 150.845 169.096C150.535 169.096 150.29 169.011 150.109 168.84C149.927 168.669 149.837 168.435 149.837 168.136V164.312C149.837 163.704 149.719 163.261 149.485 162.984C149.261 162.707 148.903 162.568 148.413 162.568C147.837 162.568 147.373 162.749 147.021 163.112C146.679 163.475 146.509 163.96 146.509 164.568V168.136C146.509 168.435 146.418 168.669 146.237 168.84C146.055 169.011 145.81 169.096 145.501 169.096C145.191 169.096 144.946 169.011 144.765 168.84C144.594 168.669 144.509 168.435 144.509 168.136V161.944C144.509 161.667 144.599 161.443 144.781 161.272C144.962 161.101 145.207 161.016 145.517 161.016C145.794 161.016 146.018 161.101 146.189 161.272C146.37 161.432 146.461 161.645 146.461 161.912V162.344C146.727 161.907 147.085 161.571 147.533 161.336C147.981 161.101 148.487 160.984 149.053 160.984ZM154.86 169.096C154.572 169.096 154.332 169.016 154.14 168.856C153.959 168.685 153.868 168.445 153.868 168.136V158.584C153.868 158.275 153.959 158.04 154.14 157.88C154.332 157.72 154.572 157.64 154.86 157.64C155.148 157.64 155.388 157.72 155.58 157.88C155.772 158.04 155.868 158.275 155.868 158.584V168.136C155.868 168.445 155.772 168.685 155.58 168.856C155.388 169.016 155.148 169.096 154.86 169.096ZM158.923 169.096C158.635 169.096 158.395 169.016 158.203 168.856C158.021 168.685 157.931 168.445 157.931 168.136V161.96C157.931 161.651 158.021 161.416 158.203 161.256C158.395 161.096 158.635 161.016 158.923 161.016C159.211 161.016 159.451 161.096 159.643 161.256C159.835 161.416 159.931 161.651 159.931 161.96V168.136C159.931 168.445 159.835 168.685 159.643 168.856C159.451 169.016 159.211 169.096 158.923 169.096ZM158.923 159.592C158.56 159.592 158.272 159.496 158.059 159.304C157.845 159.101 157.739 158.84 157.739 158.52C157.739 158.2 157.845 157.944 158.059 157.752C158.272 157.56 158.56 157.464 158.923 157.464C159.275 157.464 159.557 157.56 159.771 157.752C159.995 157.944 160.107 158.2 160.107 158.52C160.107 158.84 160 159.101 159.787 159.304C159.573 159.496 159.285 159.592 158.923 159.592ZM166.537 160.984C167.476 160.984 168.174 161.251 168.633 161.784C169.092 162.317 169.321 163.123 169.321 164.2V168.136C169.321 168.435 169.23 168.669 169.049 168.84C168.878 169.011 168.638 169.096 168.329 169.096C168.02 169.096 167.774 169.011 167.593 168.84C167.412 168.669 167.321 168.435 167.321 168.136V164.312C167.321 163.704 167.204 163.261 166.969 162.984C166.745 162.707 166.388 162.568 165.897 162.568C165.321 162.568 164.857 162.749 164.505 163.112C164.164 163.475 163.993 163.96 163.993 164.568V168.136C163.993 168.435 163.902 168.669 163.721 168.84C163.54 169.011 163.294 169.096 162.985 169.096C162.676 169.096 162.43 169.011 162.249 168.84C162.078 168.669 161.993 168.435 161.993 168.136V161.944C161.993 161.667 162.084 161.443 162.265 161.272C162.446 161.101 162.692 161.016 163.001 161.016C163.278 161.016 163.502 161.101 163.673 161.272C163.854 161.432 163.945 161.645 163.945 161.912V162.344C164.212 161.907 164.569 161.571 165.017 161.336C165.465 161.101 165.972 160.984 166.537 160.984ZM177.545 166.856C177.726 166.856 177.87 166.925 177.977 167.064C178.094 167.203 178.153 167.389 178.153 167.624C178.153 167.955 177.955 168.232 177.561 168.456C177.198 168.659 176.787 168.824 176.329 168.952C175.87 169.069 175.433 169.128 175.016 169.128C173.758 169.128 172.761 168.765 172.025 168.04C171.289 167.315 170.921 166.323 170.921 165.064C170.921 164.264 171.081 163.555 171.401 162.936C171.721 162.317 172.169 161.837 172.745 161.496C173.331 161.155 173.993 160.984 174.729 160.984C175.433 160.984 176.046 161.139 176.569 161.448C177.091 161.757 177.497 162.195 177.785 162.76C178.073 163.325 178.217 163.992 178.217 164.76C178.217 165.219 178.014 165.448 177.609 165.448H172.889C172.953 166.184 173.161 166.728 173.513 167.08C173.865 167.421 174.377 167.592 175.049 167.592C175.39 167.592 175.689 167.549 175.945 167.464C176.211 167.379 176.51 167.261 176.841 167.112C177.161 166.941 177.395 166.856 177.545 166.856ZM174.777 162.392C174.233 162.392 173.795 162.563 173.465 162.904C173.145 163.245 172.953 163.736 172.889 164.376H176.505C176.483 163.725 176.323 163.235 176.025 162.904C175.726 162.563 175.31 162.392 174.777 162.392ZM185.396 169.096C185.087 169.096 184.836 169.005 184.644 168.824C184.463 168.632 184.372 168.376 184.372 168.056V158.696C184.372 158.387 184.458 158.147 184.628 157.976C184.81 157.805 185.055 157.72 185.364 157.72H189.3C190.506 157.72 191.444 158.024 192.116 158.632C192.788 159.229 193.124 160.072 193.124 161.16C193.124 162.248 192.788 163.096 192.116 163.704C191.444 164.312 190.506 164.616 189.3 164.616H186.436V168.056C186.436 168.376 186.34 168.632 186.148 168.824C185.967 169.005 185.716 169.096 185.396 169.096ZM189.044 163.032C190.463 163.032 191.172 162.413 191.172 161.176C191.172 159.939 190.463 159.32 189.044 159.32H186.436V163.032H189.044ZM195.751 169.096C195.463 169.096 195.223 169.016 195.031 168.856C194.849 168.685 194.759 168.445 194.759 168.136V161.96C194.759 161.651 194.849 161.416 195.031 161.256C195.223 161.096 195.463 161.016 195.751 161.016C196.039 161.016 196.279 161.096 196.471 161.256C196.663 161.416 196.759 161.651 196.759 161.96V168.136C196.759 168.445 196.663 168.685 196.471 168.856C196.279 169.016 196.039 169.096 195.751 169.096ZM195.751 159.592C195.388 159.592 195.1 159.496 194.887 159.304C194.673 159.101 194.567 158.84 194.567 158.52C194.567 158.2 194.673 157.944 194.887 157.752C195.1 157.56 195.388 157.464 195.751 157.464C196.103 157.464 196.385 157.56 196.599 157.752C196.823 157.944 196.935 158.2 196.935 158.52C196.935 158.84 196.828 159.101 196.615 159.304C196.401 159.496 196.113 159.592 195.751 159.592ZM199.813 169.096C199.525 169.096 199.285 169.016 199.093 168.856C198.912 168.685 198.821 168.445 198.821 168.136V158.584C198.821 158.275 198.912 158.04 199.093 157.88C199.285 157.72 199.525 157.64 199.813 157.64C200.101 157.64 200.341 157.72 200.533 157.88C200.725 158.04 200.821 158.275 200.821 158.584V168.136C200.821 168.445 200.725 168.685 200.533 168.856C200.341 169.016 200.101 169.096 199.813 169.096ZM206.276 160.984C207.364 160.984 208.169 161.256 208.692 161.8C209.225 162.333 209.492 163.149 209.492 164.248V168.152C209.492 168.44 209.406 168.669 209.236 168.84C209.065 169 208.83 169.08 208.532 169.08C208.254 169.08 208.025 168.995 207.844 168.824C207.673 168.653 207.588 168.429 207.588 168.152V167.8C207.406 168.216 207.118 168.541 206.724 168.776C206.34 169.011 205.892 169.128 205.38 169.128C204.857 169.128 204.382 169.021 203.956 168.808C203.529 168.595 203.193 168.301 202.948 167.928C202.702 167.555 202.58 167.139 202.58 166.68C202.58 166.104 202.724 165.651 203.012 165.32C203.31 164.989 203.79 164.749 204.452 164.6C205.113 164.451 206.025 164.376 207.188 164.376H207.588V164.008C207.588 163.485 207.476 163.107 207.252 162.872C207.028 162.627 206.665 162.504 206.164 162.504C205.854 162.504 205.54 162.552 205.22 162.648C204.9 162.733 204.521 162.861 204.084 163.032C203.806 163.171 203.604 163.24 203.476 163.24C203.284 163.24 203.124 163.171 202.996 163.032C202.878 162.893 202.82 162.712 202.82 162.488C202.82 162.307 202.862 162.152 202.948 162.024C203.044 161.885 203.198 161.757 203.412 161.64C203.785 161.437 204.228 161.277 204.74 161.16C205.262 161.043 205.774 160.984 206.276 160.984ZM205.78 167.688C206.313 167.688 206.745 167.512 207.076 167.16C207.417 166.797 207.588 166.333 207.588 165.768V165.432H207.3C206.585 165.432 206.03 165.464 205.636 165.528C205.241 165.592 204.958 165.704 204.788 165.864C204.617 166.024 204.532 166.243 204.532 166.52C204.532 166.861 204.649 167.144 204.884 167.368C205.129 167.581 205.428 167.688 205.78 167.688ZM215.588 167.608C216.122 167.64 216.388 167.88 216.388 168.328C216.388 168.584 216.282 168.781 216.068 168.92C215.866 169.048 215.572 169.101 215.188 169.08L214.756 169.048C212.964 168.92 212.068 167.96 212.068 166.168V162.68H211.268C210.98 162.68 210.756 162.616 210.596 162.488C210.447 162.36 210.372 162.173 210.372 161.928C210.372 161.683 210.447 161.496 210.596 161.368C210.756 161.24 210.98 161.176 211.268 161.176H212.068V159.704C212.068 159.416 212.159 159.187 212.34 159.016C212.522 158.845 212.767 158.76 213.076 158.76C213.375 158.76 213.615 158.845 213.796 159.016C213.978 159.187 214.068 159.416 214.068 159.704V161.176H215.428C215.716 161.176 215.935 161.24 216.084 161.368C216.244 161.496 216.324 161.683 216.324 161.928C216.324 162.173 216.244 162.36 216.084 162.488C215.935 162.616 215.716 162.68 215.428 162.68H214.068V166.312C214.068 167.101 214.431 167.523 215.156 167.576L215.588 167.608ZM223.623 166.856C223.804 166.856 223.948 166.925 224.055 167.064C224.172 167.203 224.231 167.389 224.231 167.624C224.231 167.955 224.033 168.232 223.639 168.456C223.276 168.659 222.865 168.824 222.407 168.952C221.948 169.069 221.511 169.128 221.095 169.128C219.836 169.128 218.839 168.765 218.103 168.04C217.367 167.315 216.999 166.323 216.999 165.064C216.999 164.264 217.159 163.555 217.479 162.936C217.799 162.317 218.247 161.837 218.823 161.496C219.409 161.155 220.071 160.984 220.807 160.984C221.511 160.984 222.124 161.139 222.647 161.448C223.169 161.757 223.575 162.195 223.863 162.76C224.151 163.325 224.295 163.992 224.295 164.76C224.295 165.219 224.092 165.448 223.687 165.448H218.967C219.031 166.184 219.239 166.728 219.591 167.08C219.943 167.421 220.455 167.592 221.127 167.592C221.468 167.592 221.767 167.549 222.023 167.464C222.289 167.379 222.588 167.261 222.919 167.112C223.239 166.941 223.473 166.856 223.623 166.856ZM220.855 162.392C220.311 162.392 219.873 162.563 219.543 162.904C219.223 163.245 219.031 163.736 218.967 164.376H222.583C222.561 163.725 222.401 163.235 222.103 162.904C221.804 162.563 221.388 162.392 220.855 162.392ZM228.763 169.128C227.6 169.128 226.661 168.899 225.947 168.44C225.605 168.237 225.435 167.949 225.435 167.576C225.435 167.363 225.493 167.192 225.611 167.064C225.728 166.925 225.872 166.856 226.043 166.856C226.224 166.856 226.475 166.941 226.795 167.112C227.136 167.272 227.445 167.395 227.723 167.48C228.011 167.565 228.373 167.608 228.811 167.608C229.259 167.608 229.605 167.533 229.851 167.384C230.107 167.235 230.235 167.027 230.235 166.76C230.235 166.579 230.181 166.435 230.075 166.328C229.979 166.221 229.797 166.125 229.531 166.04C229.275 165.944 228.88 165.837 228.347 165.72C227.397 165.528 226.715 165.256 226.299 164.904C225.893 164.552 225.691 164.067 225.691 163.448C225.691 162.979 225.829 162.557 226.107 162.184C226.384 161.8 226.763 161.507 227.243 161.304C227.733 161.091 228.288 160.984 228.907 160.984C229.355 160.984 229.787 161.043 230.203 161.16C230.619 161.267 230.992 161.427 231.323 161.64C231.664 161.853 231.835 162.136 231.835 162.488C231.835 162.701 231.776 162.883 231.659 163.032C231.541 163.171 231.397 163.24 231.227 163.24C231.109 163.24 230.992 163.219 230.875 163.176C230.768 163.123 230.629 163.048 230.459 162.952C230.149 162.792 229.883 162.675 229.659 162.6C229.435 162.515 229.157 162.472 228.827 162.472C228.432 162.472 228.117 162.552 227.883 162.712C227.659 162.872 227.547 163.091 227.547 163.368C227.547 163.635 227.664 163.837 227.899 163.976C228.133 164.115 228.587 164.253 229.259 164.392C229.973 164.541 230.533 164.712 230.939 164.904C231.344 165.096 231.632 165.336 231.803 165.624C231.984 165.912 232.075 166.28 232.075 166.728C232.075 167.453 231.771 168.035 231.163 168.472C230.565 168.909 229.765 169.128 228.763 169.128Z" fill="#11ABD5"/>
<path opacity="0.08" d="M80.0526 206.105C98.307 206.105 113.105 191.307 113.105 173.053C113.105 154.798 98.307 140 80.0526 140C61.7982 140 47 154.798 47 173.053C47 191.307 61.7982 206.105 80.0526 206.105Z" fill="#11ABD5"/>
<path opacity="0.12" d="M245.06 193.359H164.392C161.12 193.359 158.338 190.741 158.338 187.305V187.142C158.338 183.869 160.956 181.087 164.392 181.087H245.06C248.333 181.087 251.114 183.705 251.114 187.142V187.305C251.114 190.741 248.333 193.359 245.06 193.359Z" fill="#11ABD5"/>
<path d="M242.377 253.871H172.836C167.927 253.871 164 249.944 164 245.035V228.836C164 223.927 167.927 220 172.836 220H242.377C247.286 220 251.213 223.927 251.213 228.836V245.035C251.213 249.78 247.122 253.871 242.377 253.871Z" fill="#11ABD5"/>
<path d="M212.188 240.418C212.188 241.378 211.852 242.188 211.18 242.848C210.52 243.508 209.626 243.922 208.498 244.09V245.224C208.498 245.5 208.414 245.722 208.246 245.89C208.078 246.07 207.856 246.16 207.58 246.16C207.304 246.16 207.082 246.07 206.914 245.89C206.746 245.722 206.662 245.5 206.662 245.224V244.126C205.978 244.066 205.312 243.922 204.664 243.694C204.016 243.466 203.458 243.166 202.99 242.794C202.834 242.686 202.726 242.566 202.666 242.434C202.606 242.302 202.576 242.14 202.576 241.948C202.576 241.696 202.648 241.474 202.792 241.282C202.948 241.09 203.122 240.994 203.314 240.994C203.434 240.994 203.542 241.018 203.638 241.066C203.746 241.102 203.884 241.168 204.052 241.264C204.604 241.624 205.144 241.888 205.672 242.056C206.212 242.224 206.776 242.308 207.364 242.308C208.168 242.308 208.786 242.152 209.218 241.84C209.662 241.528 209.884 241.078 209.884 240.49C209.884 240.142 209.764 239.86 209.524 239.644C209.284 239.428 208.984 239.26 208.624 239.14C208.264 239.008 207.76 238.858 207.112 238.69C206.212 238.462 205.48 238.234 204.916 238.006C204.352 237.766 203.866 237.406 203.458 236.926C203.05 236.446 202.846 235.798 202.846 234.982C202.846 234.01 203.194 233.182 203.89 232.498C204.586 231.814 205.498 231.388 206.626 231.22V230.086C206.626 229.81 206.71 229.588 206.878 229.42C207.046 229.24 207.268 229.15 207.544 229.15C207.82 229.15 208.042 229.24 208.21 229.42C208.378 229.588 208.462 229.81 208.462 230.086V231.202C209.674 231.358 210.718 231.796 211.594 232.516C211.882 232.732 212.026 233.014 212.026 233.362C212.026 233.614 211.948 233.836 211.792 234.028C211.648 234.22 211.474 234.316 211.27 234.316C211.162 234.316 211.054 234.298 210.946 234.262C210.85 234.226 210.718 234.154 210.55 234.046C210.058 233.698 209.59 233.44 209.146 233.272C208.714 233.092 208.198 233.002 207.598 233.002C206.854 233.002 206.26 233.17 205.816 233.506C205.372 233.83 205.15 234.28 205.15 234.856C205.15 235.252 205.276 235.576 205.528 235.828C205.78 236.068 206.098 236.254 206.482 236.386C206.866 236.518 207.388 236.668 208.048 236.836C208.924 237.052 209.638 237.274 210.19 237.502C210.742 237.73 211.21 238.078 211.594 238.546C211.99 239.002 212.188 239.626 212.188 240.418Z" fill="white"/>
<path d="M144.266 193.996H132.485C131.503 193.996 130.685 193.178 130.685 192.196V181.724C130.685 180.742 131.503 179.924 132.485 179.924H144.266C145.248 179.924 146.066 180.742 146.066 181.724V192.196C146.066 193.178 145.248 193.996 144.266 193.996ZM132.485 180.906C131.994 180.906 131.667 181.233 131.667 181.724V192.196C131.667 192.687 131.994 193.014 132.485 193.014H144.266C144.757 193.014 145.084 192.687 145.084 192.196V181.724C145.084 181.233 144.757 180.906 144.266 180.906H132.485Z" fill="#11ABD5"/>
<path d="M145.575 184.833H131.176C130.849 184.833 130.685 184.669 130.685 184.342C130.685 184.015 130.849 183.851 131.176 183.851H145.575C145.902 183.851 146.066 184.015 146.066 184.342C146.066 184.506 145.902 184.833 145.575 184.833Z" fill="#11ABD5"/>
<path d="M134.448 182.542C134.121 182.542 133.958 182.378 133.958 182.051V179.269C133.958 178.942 134.121 178.779 134.448 178.779C134.776 178.779 134.939 178.942 134.939 179.269V182.215C134.939 182.378 134.612 182.542 134.448 182.542Z" fill="#11ABD5"/>
<path d="M142.466 182.542C142.139 182.542 141.975 182.378 141.975 182.051V179.269C141.975 178.942 142.139 178.779 142.466 178.779C142.793 178.779 142.957 178.942 142.957 179.269V182.215C142.793 182.378 142.63 182.542 142.466 182.542Z" fill="#11ABD5"/>
<g filter="url(#filter2_d)">
<path d="M482.555 314H361.313C355.628 314 351 309.149 351 303.19V273.81C351 267.851 355.628 263 361.313 263H482.687C488.372 263 493 267.851 493 273.81V303.19C493 309.149 488.24 314 482.555 314Z" fill="white"/>
</g>
<path opacity="0.1" d="M380.5 306C390.165 306 398 298.165 398 288.5C398 278.835 390.165 271 380.5 271C370.835 271 363 278.835 363 288.5C363 298.165 370.835 306 380.5 306Z" fill="#11ABD5"/>
<mask id="mask0" mask-type="alpha" maskUnits="userSpaceOnUse" x="363" y="271" width="35" height="35">
<path d="M380.5 306C390.165 306 398 298.165 398 288.5C398 278.835 390.165 271 380.5 271C370.835 271 363 278.835 363 288.5C363 298.165 370.835 306 380.5 306Z" fill="#11ABD5"/>
</mask>
<g mask="url(#mask0)">
<path d="M380.6 291.7C384.521 291.7 387.7 288.521 387.7 284.6C387.7 280.679 384.521 277.5 380.6 277.5C376.679 277.5 373.5 280.679 373.5 284.6C373.5 288.521 376.679 291.7 380.6 291.7Z" stroke="#11ABD5" stroke-width="2" stroke-miterlimit="10"/>
<path d="M393.7 303.2C392.9 296.7 387.3 291.7 380.6 291.7C373.9 291.7 368.3 296.7 367.5 303.2" stroke="#11ABD5" stroke-width="2" stroke-miterlimit="10"/>
</g>
<path d="M422.068 285.684C422.152 285.468 422.272 285.306 422.428 285.198C422.596 285.09 422.776 285.036 422.968 285.036C423.244 285.036 423.49 285.132 423.706 285.324C423.934 285.504 424.048 285.732 424.048 286.008C424.048 286.164 424.018 286.302 423.958 286.422L420.988 293.388C420.892 293.616 420.742 293.79 420.538 293.91C420.346 294.03 420.13 294.09 419.89 294.09C419.662 294.09 419.446 294.03 419.242 293.91C419.05 293.79 418.906 293.616 418.81 293.388L416.668 288.24L414.598 293.388C414.502 293.616 414.352 293.79 414.148 293.91C413.956 294.03 413.74 294.09 413.5 294.09C413.272 294.09 413.056 294.03 412.852 293.91C412.648 293.79 412.498 293.616 412.402 293.388L409.45 286.422C409.39 286.266 409.36 286.134 409.36 286.026C409.36 285.75 409.48 285.516 409.72 285.324C409.96 285.12 410.224 285.018 410.512 285.018C410.716 285.018 410.902 285.072 411.07 285.18C411.238 285.288 411.364 285.45 411.448 285.666L413.572 291.156L415.75 285.72C415.846 285.492 415.984 285.324 416.164 285.216C416.344 285.096 416.542 285.036 416.758 285.036C416.974 285.036 417.172 285.096 417.352 285.216C417.532 285.324 417.67 285.492 417.766 285.72L419.962 291.174L422.068 285.684ZM426.702 294.108C426.378 294.108 426.108 294.018 425.892 293.838C425.688 293.646 425.586 293.376 425.586 293.028V286.08C425.586 285.732 425.688 285.468 425.892 285.288C426.108 285.108 426.378 285.018 426.702 285.018C427.026 285.018 427.296 285.108 427.512 285.288C427.728 285.468 427.836 285.732 427.836 286.08V293.028C427.836 293.376 427.728 293.646 427.512 293.838C427.296 294.018 427.026 294.108 426.702 294.108ZM426.702 283.416C426.294 283.416 425.97 283.308 425.73 283.092C425.49 282.864 425.37 282.57 425.37 282.21C425.37 281.85 425.49 281.562 425.73 281.346C425.97 281.13 426.294 281.022 426.702 281.022C427.098 281.022 427.416 281.13 427.656 281.346C427.908 281.562 428.034 281.85 428.034 282.21C428.034 282.57 427.914 282.864 427.674 283.092C427.434 283.308 427.11 283.416 426.702 283.416ZM434.728 292.434C435.328 292.47 435.628 292.74 435.628 293.244C435.628 293.532 435.508 293.754 435.268 293.91C435.04 294.054 434.71 294.114 434.278 294.09L433.792 294.054C431.776 293.91 430.768 292.83 430.768 290.814V286.89H429.868C429.544 286.89 429.292 286.818 429.112 286.674C428.944 286.53 428.86 286.32 428.86 286.044C428.86 285.768 428.944 285.558 429.112 285.414C429.292 285.27 429.544 285.198 429.868 285.198H430.768V283.542C430.768 283.218 430.87 282.96 431.074 282.768C431.278 282.576 431.554 282.48 431.902 282.48C432.238 282.48 432.508 282.576 432.712 282.768C432.916 282.96 433.018 283.218 433.018 283.542V285.198H434.548C434.872 285.198 435.118 285.27 435.286 285.414C435.466 285.558 435.556 285.768 435.556 286.044C435.556 286.32 435.466 286.53 435.286 286.674C435.118 286.818 434.872 286.89 434.548 286.89H433.018V290.976C433.018 291.864 433.426 292.338 434.242 292.398L434.728 292.434ZM441.949 284.982C444.013 284.982 445.045 286.188 445.045 288.6V293.028C445.045 293.364 444.943 293.628 444.739 293.82C444.547 294.012 444.277 294.108 443.929 294.108C443.581 294.108 443.305 294.012 443.101 293.82C442.897 293.628 442.795 293.364 442.795 293.028V288.6C442.795 287.964 442.663 287.502 442.399 287.214C442.147 286.914 441.745 286.764 441.193 286.764C440.545 286.764 440.023 286.968 439.627 287.376C439.243 287.784 439.051 288.33 439.051 289.014V293.028C439.051 293.364 438.949 293.628 438.745 293.82C438.541 294.012 438.265 294.108 437.917 294.108C437.569 294.108 437.293 294.012 437.089 293.82C436.897 293.628 436.801 293.364 436.801 293.028V282.264C436.801 281.952 436.903 281.7 437.107 281.508C437.323 281.316 437.599 281.22 437.935 281.22C438.271 281.22 438.541 281.31 438.745 281.49C438.949 281.67 439.051 281.916 439.051 282.228V286.422C439.351 285.954 439.747 285.6 440.239 285.36C440.743 285.108 441.313 284.982 441.949 284.982ZM452.181 294.108C451.257 294.144 450.795 293.826 450.795 293.154C450.795 292.866 450.873 292.65 451.029 292.506C451.173 292.35 451.407 292.26 451.731 292.236L452.307 292.2C452.799 292.176 453.171 292.02 453.423 291.732C453.675 291.444 453.801 291.006 453.801 290.418V282.372C453.801 282.024 453.903 281.748 454.107 281.544C454.323 281.328 454.605 281.22 454.953 281.22C455.313 281.22 455.595 281.328 455.799 281.544C456.015 281.748 456.123 282.024 456.123 282.372V290.418C456.123 292.686 455.001 293.904 452.757 294.072L452.181 294.108ZM462.682 294.144C461.782 294.144 460.99 293.958 460.306 293.586C459.634 293.214 459.112 292.68 458.74 291.984C458.368 291.288 458.182 290.478 458.182 289.554C458.182 288.63 458.368 287.826 458.74 287.142C459.112 286.446 459.634 285.912 460.306 285.54C460.99 285.168 461.782 284.982 462.682 284.982C463.582 284.982 464.368 285.168 465.04 285.54C465.724 285.912 466.246 286.446 466.606 287.142C466.978 287.826 467.164 288.63 467.164 289.554C467.164 290.478 466.978 291.288 466.606 291.984C466.246 292.68 465.724 293.214 465.04 293.586C464.368 293.958 463.582 294.144 462.682 294.144ZM462.664 292.398C463.396 292.398 463.954 292.158 464.338 291.678C464.722 291.198 464.914 290.49 464.914 289.554C464.914 288.63 464.722 287.928 464.338 287.448C463.954 286.956 463.402 286.71 462.682 286.71C461.962 286.71 461.404 286.956 461.008 287.448C460.624 287.928 460.432 288.63 460.432 289.554C460.432 290.49 460.624 291.198 461.008 291.678C461.392 292.158 461.944 292.398 462.664 292.398ZM475.988 291.588C476.192 291.588 476.354 291.666 476.474 291.822C476.606 291.978 476.672 292.188 476.672 292.452C476.672 292.824 476.45 293.136 476.006 293.388C475.598 293.616 475.136 293.802 474.62 293.946C474.104 294.078 473.612 294.144 473.144 294.144C471.728 294.144 470.606 293.736 469.778 292.92C468.95 292.104 468.536 290.988 468.536 289.572C468.536 288.672 468.716 287.874 469.076 287.178C469.436 286.482 469.94 285.942 470.588 285.558C471.248 285.174 471.992 284.982 472.82 284.982C473.612 284.982 474.302 285.156 474.89 285.504C475.478 285.852 475.934 286.344 476.258 286.98C476.582 287.616 476.744 288.366 476.744 289.23C476.744 289.746 476.516 290.004 476.06 290.004H470.75C470.822 290.832 471.056 291.444 471.452 291.84C471.848 292.224 472.424 292.416 473.18 292.416C473.564 292.416 473.9 292.368 474.188 292.272C474.488 292.176 474.824 292.044 475.196 291.876C475.556 291.684 475.82 291.588 475.988 291.588ZM472.874 286.566C472.262 286.566 471.77 286.758 471.398 287.142C471.038 287.526 470.822 288.078 470.75 288.798H474.818C474.794 288.066 474.614 287.514 474.278 287.142C473.942 286.758 473.474 286.566 472.874 286.566Z" fill="#11ABD5"/>
<g filter="url(#filter3_d)">
<rect x="418" y="73" width="81" height="81" rx="10" fill="#11ABD5"/>
</g>
<path d="M479.575 124.37C475.757 132.053 467.828 137.333 458.667 137.333C445.78 137.333 435.333 126.887 435.333 114C435.333 101.113 445.78 90.6667 458.667 90.6667C471.553 90.6667 482 101.113 482 114L482 115.5" stroke="white" stroke-width="2" stroke-linecap="round" stroke-linejoin="round"/>
<path d="M458.667 100V114.583L465.667 123.333" stroke="white" stroke-width="2" stroke-linecap="round" stroke-linejoin="round"/>
<path d="M486.667 111.667L482 116.333L477.333 111.667" stroke="white" stroke-width="2" stroke-linecap="round" stroke-linejoin="round"/>
<g clip-path="url(#clip0)">
<path d="M99.2109 192.242L95.4531 192.257L94.0156 189.652L93.9922 182.531C93.9844 180.853 92.9297 179.39 91.3594 178.903L85.3594 177.024L85.3359 170.535C85.3359 169.935 85.1562 169.368 84.8516 168.888C86.5469 168.281 87.7656 166.626 87.7656 164.684C87.7578 162.375 86.0078 160.472 83.7969 160.281L83.7812 156.988C83.7656 154.782 82 152.992 79.8438 153C79.4141 153 79.0625 153.359 79.0625 153.799L79.0859 160.177H79.0781C78.3984 160.169 77.7578 160.425 77.2734 160.912C76.7891 161.4 76.5156 162.047 76.5 162.742C76.4766 164.173 77.6016 165.364 79.0078 165.38H79.0547C78.9219 166.69 78.5469 167.977 77.9531 169.168C77.7422 169.592 77.625 170.071 77.6328 170.551L77.6562 177.424L75.7891 180.901L65.7266 187.438C64.7734 188.062 64.2031 189.125 64.2031 190.283L64.2109 192.393L60.7812 192.401C60.3516 192.401 60 192.761 60 193.201C60 193.64 60.3516 194 60.7812 194L99.2188 193.848C99.6484 193.848 100 193.488 100 193.049C99.9922 192.601 99.6406 192.242 99.2109 192.242ZM86.1875 164.684C86.1953 166.115 85.1562 167.306 83.8125 167.506L83.7891 161.887C85.1406 162.071 86.1875 163.254 86.1875 164.684ZM80.6328 154.734C81.5469 155.062 82.2031 155.949 82.2109 156.996L82.2578 168.441C82.2578 168.792 82.4844 169.096 82.8047 169.2C83.375 169.384 83.7656 169.919 83.7656 170.535L83.7891 176.817L79.2188 176.833L79.1953 170.551C79.1953 170.319 79.2422 170.103 79.3438 169.903C80.2188 168.161 80.6797 166.219 80.6719 164.293L80.6328 154.734ZM78.3438 163.478C78.1641 163.286 78.0625 163.03 78.0703 162.766C78.0703 162.495 78.1797 162.247 78.3672 162.063C78.5469 161.879 78.7891 161.783 79.0469 161.783C79.0547 161.783 79.0703 161.783 79.0781 161.783C79.0859 161.783 79.0938 161.783 79.1016 161.783L79.1094 163.789H79.0312C78.7734 163.781 78.5234 163.669 78.3438 163.478ZM71.8047 188.877C71.6094 188.485 71.1406 188.317 70.7578 188.517L67.3047 190.267C67.25 190.291 67.2031 190.323 67.1562 190.363L65.7734 191.506L65.7656 190.267C65.7656 189.66 66.0625 189.109 66.5625 188.781L76.7891 182.147C76.8984 182.075 76.9922 181.972 77.0547 181.86L78.8984 178.431L83.1172 178.415L80.875 181.892C79.9375 183.338 78.6406 184.513 77.1172 185.288L75.5 186.111C75.1172 186.311 74.9531 186.791 75.1484 187.182C75.3438 187.574 75.8125 187.742 76.1953 187.542L77.8125 186.727C79.5781 185.832 81.0938 184.465 82.1797 182.779L82.7891 181.836L89.1875 184.217L89.2188 191.602C89.2188 191.842 89.2578 192.074 89.3203 192.289L67.2188 192.377L68.0781 191.666L71.4531 189.956C71.8359 189.756 71.9922 189.276 71.8047 188.877ZM91.4453 192.273C91.0781 192.273 90.7734 191.97 90.7734 191.586L90.7422 183.642C90.7422 183.306 90.5391 183.011 90.2266 182.891L83.6719 180.461L84.5156 179.15L84.8984 178.551L90.8906 180.429C91.8047 180.717 92.4219 181.564 92.4219 182.539L92.4531 189.868C92.4531 190.004 92.4922 190.14 92.5547 190.259L93.6641 192.265L91.4453 192.273Z" fill="#11ABD5"/>
</g>
<defs>
<filter id="filter0_d" x="156" y="0" width="239.344" height="454" filterUnits="userSpaceOnUse" color-interpolation-filters="sRGB">
<feFlood flood-opacity="0" result="BackgroundImageFix"/>
<feColorMatrix in="SourceAlpha" type="matrix" values="0 0 0 0 0 0 0 0 0 0 0 0 0 0 0 0 0 0 127 0"/>
<feOffset dy="6"/>
<feGaussianBlur stdDeviation="7"/>
<feColorMatrix type="matrix" values="0 0 0 0 0.183073 0 0 0 0 0.395437 0 0 0 0 0.4625 0 0 0 0.16 0"/>
<feBlend mode="normal" in2="BackgroundImageFix" result="effect1_dropShadow"/>
<feBlend mode="normal" in="SourceGraphic" in2="effect1_dropShadow" result="shape"/>
</filter>
<filter id="filter1_d" x="0" y="111" width="301" height="202" filterUnits="userSpaceOnUse" color-interpolation-filters="sRGB">
<feFlood flood-opacity="0" result="BackgroundImageFix"/>
<feColorMatrix in="SourceAlpha" type="matrix" values="0 0 0 0 0 0 0 0 0 0 0 0 0 0 0 0 0 0 127 0"/>
<feOffset dy="13"/>
<feGaussianBlur stdDeviation="12"/>
<feColorMatrix type="matrix" values="0 0 0 0 0.184314 0 0 0 0 0.396078 0 0 0 0 0.462745 0 0 0 0.2 0"/>
<feBlend mode="normal" in2="BackgroundImageFix" result="effect1_dropShadow"/>
<feBlend mode="normal" in="SourceGraphic" in2="effect1_dropShadow" result="shape"/>
</filter>
<filter id="filter2_d" x="327" y="252" width="190" height="99" filterUnits="userSpaceOnUse" color-interpolation-filters="sRGB">
<feFlood flood-opacity="0" result="BackgroundImageFix"/>
<feColorMatrix in="SourceAlpha" type="matrix" values="0 0 0 0 0 0 0 0 0 0 0 0 0 0 0 0 0 0 127 0"/>
<feOffset dy="13"/>
<feGaussianBlur stdDeviation="12"/>
<feColorMatrix type="matrix" values="0 0 0 0 0.184314 0 0 0 0 0.396078 0 0 0 0 0.462745 0 0 0 0.2 0"/>
<feBlend mode="normal" in2="BackgroundImageFix" result="effect1_dropShadow"/>
<feBlend mode="normal" in="SourceGraphic" in2="effect1_dropShadow" result="shape"/>
</filter>
<filter id="filter3_d" x="378" y="73" width="161" height="161" filterUnits="userSpaceOnUse" color-interpolation-filters="sRGB">
<feFlood flood-opacity="0" result="BackgroundImageFix"/>
<feColorMatrix in="SourceAlpha" type="matrix" values="0 0 0 0 0 0 0 0 0 0 0 0 0 0 0 0 0 0 127 0"/>
<feOffset dy="40"/>
<feGaussianBlur stdDeviation="20"/>
<feColorMatrix type="matrix" values="0 0 0 0 0.184314 0 0 0 0 0.396078 0 0 0 0 0.462745 0 0 0 0.32 0"/>
<feBlend mode="normal" in2="BackgroundImageFix" result="effect1_dropShadow"/>
<feBlend mode="normal" in="SourceGraphic" in2="effect1_dropShadow" result="shape"/>
</filter>
<clipPath id="clip0">
<rect width="40" height="41" fill="white" transform="translate(60 153)"/>
</clipPath>
</defs>
</svg>
