<svg width="20" height="20" viewBox="0 0 20 20" fill="none" xmlns="http://www.w3.org/2000/svg">
<path d="M10.0002 19.1667C15.0628 19.1667 19.1668 15.0626 19.1668 10C19.1668 4.93743 15.0628 0.833374 10.0002 0.833374C4.93755 0.833374 0.833496 4.93743 0.833496 10C0.833496 15.0626 4.93755 19.1667 10.0002 19.1667Z" stroke="#11ABD5" stroke-width="1.5" stroke-linecap="round" stroke-linejoin="round"/>
<path d="M10.0003 19.1667C11.8113 19.1667 13.2794 15.0626 13.2794 10C13.2794 4.93743 11.8113 0.833374 10.0003 0.833374C8.18929 0.833374 6.72119 4.93743 6.72119 10C6.72119 15.0626 8.18929 19.1667 10.0003 19.1667Z" stroke="#11ABD5" stroke-width="1.5" stroke-linecap="round" stroke-linejoin="round"/>
<path d="M0.833496 10H19.1668" stroke="#11ABD5" stroke-width="1.5" stroke-linecap="round" stroke-linejoin="round"/>
<path d="M2.4043 5.61108H17.5951" stroke="#11ABD5" stroke-width="1.5" stroke-linecap="round" stroke-linejoin="round"/>
<path d="M2.4043 14.4364H17.5951" stroke="#11ABD5" stroke-width="1.5" stroke-linecap="round" stroke-linejoin="round"/>
</svg>
