<svg width="20" height="20" viewBox="0 0 20 20" fill="none" xmlns="http://www.w3.org/2000/svg">
<path d="M13.9507 0.833496H6.04966C5.23992 0.833496 4.5835 1.4947 4.5835 2.31034V17.69C4.5835 18.5056 5.23992 19.1668 6.04966 19.1668H13.9507C14.7604 19.1668 15.4168 18.5056 15.4168 17.69V2.31034C15.4168 1.4947 14.7604 0.833496 13.9507 0.833496Z" fill="white" stroke="#11ABD5" stroke-width="1.5" stroke-linecap="round" stroke-linejoin="round"/>
<path d="M8.3335 3.3335H11.6668" stroke="#11ABD5" stroke-width="1.5" stroke-linecap="round"/>
<path d="M10.0003 17.5002C10.4606 17.5002 10.8337 17.1271 10.8337 16.6668C10.8337 16.2066 10.4606 15.8335 10.0003 15.8335C9.54009 15.8335 9.16699 16.2066 9.16699 16.6668C9.16699 17.1271 9.54009 17.5002 10.0003 17.5002Z" fill="#11ABD5"/>
</svg>
