<svg width="122" height="106" viewBox="0 0 122 106" fill="none" xmlns="http://www.w3.org/2000/svg">
<path d="M52.86 105.72C82.0538 105.72 105.72 82.0538 105.72 52.86C105.72 23.6662 82.0538 0 52.86 0C23.6662 0 0 23.6662 0 52.86C0 82.0538 23.6662 105.72 52.86 105.72Z" fill="#F5F8FA"/>
<rect x="25.6851" y="28" width="79.0685" height="57.6986" rx="4" stroke="#B8C0CC" stroke-width="2"/>
<rect x="31.0273" y="37.6165" width="68.3836" height="42.7397" rx="2" fill="white"/>
<path d="M70.6278 57.767C72.012 58.5263 72.012 60.5149 70.6278 61.2741L63.8387 64.9978C62.5058 65.7288 60.8769 64.7644 60.8769 63.2442L60.8769 55.7969C60.8769 54.2767 62.5058 53.3123 63.8387 54.0433L70.6278 57.767Z" stroke="#11ABD5" stroke-width="2"/>
<path d="M27.2875 79.3562C24.0286 79.3562 20.9032 80.7071 18.5988 83.1117C16.2944 85.5162 14.9999 88.7775 14.9999 92.1781C14.9999 95.5787 16.2944 98.84 18.5988 101.245C20.9032 103.649 24.0286 105 27.2875 105H37.2346C37.8553 105 38.4506 104.743 38.8895 104.285C39.3284 103.827 39.5751 103.206 39.5752 102.558V92.1781C39.5752 88.7775 38.2806 85.5162 35.9762 83.1117C33.6718 80.7071 30.5464 79.3562 27.2875 79.3562V79.3562Z" fill="white" stroke="#B8C0CC" stroke-width="1.88" stroke-miterlimit="10"/>
<path d="M67.3563 79.3562C63.9557 79.3562 60.6944 80.7071 58.2898 83.1117C55.8853 85.5162 54.5344 88.7775 54.5344 92.1781C54.5344 95.5787 55.8853 98.84 58.2898 101.245C60.6944 103.649 63.9557 105 67.3563 105H77.7358C78.3835 105 79.0047 104.743 79.4627 104.285C79.9207 103.827 80.1781 103.206 80.1782 102.558V92.1781C80.1782 88.7775 78.8273 85.5162 76.4228 83.1117C74.0182 80.7071 70.7569 79.3562 67.3563 79.3562V79.3562Z" fill="white" stroke="#B8C0CC" stroke-width="1.88" stroke-miterlimit="10"/>
<path d="M108.493 79.3562C105.234 79.3562 102.109 80.7071 99.8044 83.1117C97.5 85.5162 96.2054 88.7775 96.2054 92.1781C96.2054 95.5787 97.5 98.84 99.8044 101.245C102.109 103.649 105.234 105 108.493 105H118.44C119.061 105 119.656 104.743 120.095 104.285C120.534 103.827 120.781 103.206 120.781 102.558V92.1781C120.781 88.7775 119.486 85.5162 117.182 83.1117C114.877 80.7071 111.752 79.3562 108.493 79.3562V79.3562Z" fill="white" stroke="#B8C0CC" stroke-width="1.88" stroke-miterlimit="10"/>
<circle cx="65.219" cy="33.3424" r="2.13699" fill="#B8C0CC"/>
</svg>
