<svg width="115" height="163" viewBox="0 0 115 163" fill="none" xmlns="http://www.w3.org/2000/svg">
<path d="M18.5655 11.0326H72.3944C78.0606 11.0326 82.6085 15.6513 82.683 21.3128V139.461C82.683 145.123 78.0606 149.667 72.3944 149.741H18.5655C12.8993 149.741 8.35141 145.123 8.27686 139.461V21.3128C8.35141 15.6513 12.9738 11.0326 18.5655 11.0326Z" fill="#B8C0CC"/>
<path d="M25.8719 4.62604L25.6482 5.37099H24.9026C24.3808 4.47705 24.3808 3.35963 24.9026 2.4657L25.5737 2.54019L25.9464 3.21064C25.8719 3.43413 25.8719 3.7321 25.8719 3.95559C25.7973 4.17907 25.8719 4.47705 25.8719 4.62604Z" fill="#B8C0CC"/>
<path d="M30.6434 3.4342C30.7925 4.55162 30.4197 5.66904 29.525 6.41398L28.7049 6.33949L28.6304 5.59454C29.0031 5.37106 29.3014 5.07308 29.3759 4.62611H27.7357V3.4342H30.6434Z" fill="#B8C0CC"/>
<path d="M29.5251 6.41397C28.1831 7.45689 26.2447 7.2334 25.2009 5.8925C25.1264 5.74351 25.0518 5.59453 24.8281 5.44554L25.8719 4.6261C26.1701 5.59453 27.2139 6.04149 28.1831 5.74352C28.2577 5.74352 28.3322 5.66902 28.4068 5.59453L29.5251 6.41397Z" fill="#B8C0CC"/>
<path d="M29.5251 1.64631L28.4813 2.46574C27.6612 1.94428 26.5429 2.24226 26.021 3.0617C25.9464 3.1362 25.8719 3.28519 25.8719 3.43418L24.8281 2.61474C25.5737 1.12485 27.363 0.528888 28.8541 1.27383C28.9287 1.27383 28.9287 1.34833 29.0032 1.34833C29.2269 1.42282 29.376 1.57181 29.5251 1.64631Z" fill="#B8C0CC"/>
<path d="M19.0128 2.98719H17.8199V2.16775C17.8199 1.94426 17.969 1.79527 18.1927 1.72078H18.7146V0.677856H17.8945C17.2235 0.677856 16.7016 1.12482 16.7016 1.79527V1.86977V2.91269H15.8815V3.95561H16.7016V7.30786H17.8945V3.95561H18.7891L19.0128 2.98719Z" fill="#B8C0CC"/>
<path d="M42.945 2.61475C42.945 2.31677 42.8704 2.01879 42.7959 1.7953C42.6467 1.27384 42.274 0.901375 41.7521 0.752386C41.4539 0.677891 41.1556 0.603394 40.932 0.603394H38.0243C37.7261 0.603394 37.4279 0.677891 37.2042 0.752386C36.7569 0.975869 36.4587 1.34834 36.1604 1.7953C36.0859 2.09328 36.0114 2.39126 36.0114 2.68924V5.59453C36.0114 5.8925 36.0859 6.19048 36.1604 6.41396C36.3841 6.86093 36.7569 7.15891 37.2042 7.45689C37.5024 7.53138 37.8007 7.60588 38.0243 7.60588H40.932C41.2302 7.60588 41.5284 7.53138 41.7521 7.45689C42.274 7.3079 42.6467 6.93543 42.7959 6.41396C42.8704 6.11599 42.945 5.81801 42.945 5.59453V2.61475ZM42.1249 5.29655C42.1249 5.52003 42.1249 5.66902 42.0503 5.8925C41.9758 6.19048 41.7521 6.41396 41.4539 6.48846C41.2302 6.56295 41.0811 6.56295 40.8574 6.56295H38.3225C38.0989 6.56295 37.9498 6.56295 37.7261 6.48846C37.577 6.41396 37.5024 6.33947 37.3533 6.26497C37.2788 6.19048 37.2042 6.04149 37.1297 5.8925C37.0551 5.66902 37.0551 5.52003 37.0551 5.29655V2.76373C37.0551 2.54025 37.0551 2.39126 37.1297 2.16778C37.2042 2.01879 37.2788 1.94429 37.3533 1.7953C37.4279 1.72081 37.577 1.64632 37.7261 1.57182C37.9498 1.49733 38.0989 1.49733 38.3225 1.49733H40.8574C41.0811 1.49733 41.2302 1.49733 41.4539 1.57182C41.603 1.64632 41.6775 1.72081 41.8266 1.7953C41.9012 1.8698 41.9758 2.01879 42.0503 2.16778C42.1249 2.39126 42.1249 2.54025 42.1249 2.76373V5.29655Z" fill="#B8C0CC"/>
<path d="M39.5154 2.54028C38.6953 2.54028 37.9497 3.21074 37.9497 4.10467C37.9497 4.92411 38.6207 5.66906 39.5154 5.66906C40.3355 5.66906 41.081 4.99861 41.081 4.10467C41.081 3.21074 40.41 2.54028 39.5154 2.54028ZM39.5154 4.92411C39.068 4.92411 38.6953 4.55164 38.6953 4.10467C38.6953 3.65771 39.068 3.28523 39.5154 3.28523C39.9627 3.28523 40.3355 3.65771 40.3355 4.10467C40.3355 4.55164 40.0373 4.92411 39.5899 4.92411H39.5154Z" fill="#B8C0CC"/>
<path d="M17.7454 14.2358H71.7234C75.9731 14.2358 79.4026 17.6626 79.4026 21.8343V132.608C79.4026 136.854 75.9731 140.281 71.798 140.281H19.311C15.0614 140.281 11.6318 136.854 11.6318 132.682V20.4189C11.6318 16.9921 14.3158 14.2358 17.7454 14.2358Z" fill="white"/>
<path d="M43.616 25.7825C43.616 27.1234 42.5723 28.1663 41.2303 28.1663C39.8883 28.1663 38.8445 27.1234 38.8445 25.7825C38.8445 24.4416 39.8883 23.3987 41.2303 23.3987C42.5723 23.4732 43.616 24.5161 43.616 25.7825ZM42.4977 25.7825C42.4231 25.0376 41.8267 24.4416 41.0811 24.5161C40.3356 24.5906 39.7391 25.1866 39.8137 25.9315C39.8882 26.6019 40.4847 27.1979 41.1557 27.1979C41.8267 27.2724 42.4977 26.6764 42.4977 26.006V25.9315C42.4977 25.857 42.4977 25.857 42.4977 25.7825Z" fill="#EA4335"/>
<path d="M48.7603 25.7825C48.7603 27.1234 47.7165 28.1663 46.3745 28.1663C45.0326 28.1663 43.9888 27.1234 43.9888 25.7825C43.9888 24.4416 45.0326 23.3987 46.3745 23.3987C47.642 23.4732 48.7603 24.5161 48.7603 25.7825ZM47.7165 25.7825C47.642 25.0376 47.0455 24.4416 46.3 24.5161C45.5544 24.5906 44.958 25.1866 45.0325 25.9315C45.1071 26.6019 45.7035 27.1979 46.3745 27.1979C47.1201 27.1979 47.7165 26.6019 47.7165 25.7825Z" fill="#FBBC05"/>
<path d="M53.6809 23.6223V27.8684C53.6809 29.6563 52.6372 30.3268 51.4443 30.3268C50.5496 30.3268 49.655 29.8053 49.2822 28.9859L50.2514 28.6134C50.4005 29.1348 50.9224 29.4328 51.4443 29.4328C52.1153 29.4328 52.7117 28.9114 52.7117 28.2409V27.7195C52.3389 28.0919 51.8916 28.2409 51.4443 28.2409C50.1768 28.1664 49.1331 27.049 49.1331 25.7826C49.2822 24.5907 50.2514 23.6223 51.4443 23.4733C51.8916 23.4733 52.4135 23.6223 52.7117 23.9947V23.6223H53.6809ZM52.7863 25.7826C52.8608 25.1121 52.4135 24.4417 51.6679 24.3672H51.5934H51.5188C50.7733 24.4417 50.1768 25.1121 50.2514 25.9316C50.3259 26.602 50.8478 27.1235 51.5188 27.198C52.1898 27.198 52.7863 26.602 52.7863 25.9316V25.7826Z" fill="#4285F4"/>
<path d="M55.3212 21.0894V28.0918H54.2775V21.0894H55.3212Z" fill="#34A853"/>
<path d="M59.2726 26.6019L60.0181 27.1234C59.5708 27.7939 58.8252 28.1663 58.0797 28.1663C56.8122 28.1663 55.7685 27.1234 55.6939 25.857V25.7825C55.6194 24.5906 56.514 23.4732 57.7815 23.3987H57.9306C58.8998 23.3987 59.7199 23.9946 60.0181 24.9631L60.0927 25.1866L56.9613 26.453C57.185 26.8999 57.6323 27.1979 58.0797 27.1234C58.4525 27.2724 58.9743 27.0489 59.2726 26.6019ZM56.8122 25.708L58.9743 24.8886C58.8252 24.5906 58.4525 24.3671 58.1542 24.3671C57.4832 24.3671 56.8868 24.9631 56.8868 25.6335V25.708H56.8122Z" fill="#EA4335"/>
<path d="M34.9676 25.1866V24.1437H38.3971C38.3971 24.2927 38.4717 24.5906 38.4717 24.7396C38.4717 25.6336 38.1734 26.453 37.6516 27.1234C36.9806 27.7939 36.0859 28.1664 35.1167 28.1664C33.0291 28.1664 31.3889 26.5275 31.3889 24.4416C31.3889 22.4303 33.0291 20.7914 35.0421 20.7169H35.1167C36.0859 20.7169 36.9806 21.0894 37.6516 21.7598L36.9806 22.4303C36.5332 21.9088 35.8622 21.6853 35.1912 21.7598C33.7001 21.8343 32.5818 23.0262 32.5072 24.5161C32.5072 26.006 33.7001 27.1979 35.1912 27.1979C35.8622 27.1979 36.5332 26.9 37.0551 26.453C37.4279 26.0805 37.577 25.6336 37.577 25.1866H34.9676Z" fill="#4285F4"/>
<path d="M21.6222 35.4668H69.263C71.5742 35.4668 73.5126 37.3292 73.5126 39.6385V39.713C73.5126 42.0223 71.6488 43.9592 69.3375 43.9592H21.5476C19.2364 43.9592 17.298 42.0968 17.298 39.7875V39.713C17.298 37.4037 19.1618 35.4668 21.4731 35.4668H21.6222Z" fill="#EAEFF4"/>
<path d="M17.2235 55.2079H50.7734C51.8172 55.2079 52.7118 56.0273 52.7118 57.0702V57.1447C52.7118 58.1877 51.8917 59.0816 50.8479 59.0816H17.2235C16.1797 59.0816 15.285 58.2622 15.285 57.2192V57.1447C15.285 56.1018 16.1051 55.2079 17.2235 55.2079Z" fill="#EAEFF4"/>
<path d="M79.4026 50.0677H11.5573V50.8872H79.4026V50.0677Z" fill="#F2F2F2"/>
<path d="M17.5962 62.3594L18.3418 63.7748L19.982 63.9983L18.7891 65.1902L19.0128 66.829L17.5962 66.0841L16.1797 66.829L16.4033 65.1902L15.2104 63.9983L16.8507 63.7748L17.5962 62.3594Z" fill="#FBBB00"/>
<path d="M23.4861 62.3594L24.2317 63.7748L25.8719 63.9983L24.679 65.1902L24.9027 66.829L23.4861 66.0841L22.0696 66.829L22.2932 65.1902L21.1003 63.9983L22.7406 63.7748L23.4861 62.3594Z" fill="#FBBB00"/>
<path d="M29.376 62.3594L30.1216 63.7748L31.7618 63.9983L30.5689 65.1902L30.7926 66.829L29.376 66.0841L27.9594 66.829L28.1831 65.1902L26.9902 63.9983L28.6304 63.7748L29.376 62.3594Z" fill="#FBBB00"/>
<path d="M35.2658 62.3594L36.0113 63.7748L37.6515 63.9983L36.4586 65.1902L36.6823 66.829L35.2658 66.0841L33.8492 66.829L34.0729 65.1902L32.88 63.9983L34.5202 63.7748L35.2658 62.3594Z" fill="#FBBB00"/>
<path d="M41.1557 62.3594L41.9012 63.7748L43.5414 63.9983L42.3486 65.1902L42.5722 66.829L41.1557 66.0841L39.7391 66.829L39.9628 65.1902L38.7699 63.9983L40.4101 63.7748L41.1557 62.3594Z" fill="#FBBB00"/>
<path d="M17.2235 75.3214H50.7734C51.8172 75.3214 52.7118 76.1408 52.7118 77.1838V77.2583C52.7118 78.3012 51.8917 79.1951 50.8479 79.1951H17.2235C16.1797 79.1951 15.285 78.3757 15.285 77.3328V77.2583C15.285 76.2153 16.1797 75.3214 17.2235 75.3214Z" fill="#EAEFF4"/>
<path d="M79.4026 70.1067H11.5573V70.9261H79.4026V70.1067Z" fill="#F2F2F2"/>
<path d="M17.5962 82.4728L18.3418 83.8882L19.982 84.1117L18.7891 85.3036L19.0128 86.9425L17.5962 86.1975L16.1797 86.9425L16.4033 85.3036L15.2104 84.1117L16.8507 83.8882L17.5962 82.4728Z" fill="#FBBB00"/>
<path d="M23.4861 82.4728L24.2317 83.8882L25.8719 84.1117L24.679 85.3036L24.9027 86.9425L23.4861 86.1975L22.0696 86.9425L22.2932 85.3036L21.1003 84.1117L22.7406 83.8882L23.4861 82.4728Z" fill="#FBBB00"/>
<path d="M29.376 82.4728L30.1216 83.8882L31.7618 84.1117L30.5689 85.3036L30.7926 86.9425L29.376 86.1975L27.9594 86.9425L28.1831 85.3036L26.9902 84.1117L28.6304 83.8882L29.376 82.4728Z" fill="#FBBB00"/>
<path d="M35.2658 82.4728L36.0113 83.8882L37.6515 84.1117L36.4586 85.3036L36.6823 86.9425L35.2658 86.1975L33.8492 86.9425L34.0729 85.3036L32.88 84.1117L34.5202 83.8882L35.2658 82.4728Z" fill="#FBBB00"/>
<path d="M41.1557 82.4728L41.9012 83.8882L43.5414 84.1117L42.3486 85.3036L42.5722 86.9425L41.1557 86.1975L39.7391 86.9425L39.9628 85.3036L38.7699 84.1117L40.4101 83.8882L41.1557 82.4728Z" fill="#FBBB00"/>
<path d="M17.2235 95.4348H50.7734C51.8172 95.4348 52.7118 96.2543 52.7118 97.2972V97.3717C52.7118 98.4146 51.8917 99.3085 50.8479 99.3085H17.2235C16.1797 99.3085 15.285 98.4891 15.285 97.4462V97.3717C15.285 96.3288 16.1797 95.5093 17.2235 95.4348Z" fill="#F2F2F2"/>
<path d="M79.4026 90.2202H11.5573V91.0397H79.4026V90.2202Z" fill="#F2F2F2"/>
<path d="M17.5962 102.512L18.3418 103.927L19.982 104.151L18.7891 105.343L19.0128 106.982L17.5962 106.237L16.1797 106.982L16.4033 105.343L15.2104 104.151L16.8507 103.927L17.5962 102.512Z" fill="#FBBB00"/>
<path d="M23.4861 102.512L24.2317 103.927L25.8719 104.151L24.679 105.343L24.9027 106.982L23.4861 106.237L22.0696 106.982L22.2932 105.343L21.1003 104.151L22.7406 103.927L23.4861 102.512Z" fill="#FBBB00"/>
<path d="M29.376 102.512L30.1216 103.927L31.7618 104.151L30.5689 105.343L30.7926 106.982L29.376 106.237L27.9594 106.982L28.1831 105.343L26.9902 104.151L28.6304 103.927L29.376 102.512Z" fill="#FBBB00"/>
<path d="M35.2658 102.512L36.0113 103.927L37.6515 104.151L36.4586 105.343L36.6823 106.982L35.2658 106.237L33.8492 106.982L34.0729 105.343L32.88 104.151L34.5202 103.927L35.2658 102.512Z" fill="#FBBB00"/>
<path d="M41.1557 102.512L41.9012 103.927L43.5414 104.151L42.3486 105.343L42.5722 106.982L41.1557 106.237L39.7391 106.982L39.9628 105.343L38.7699 104.151L40.4101 103.927L41.1557 102.512Z" fill="#FBBB00"/>
<path d="M17.2235 115.921H50.7734C51.8172 115.921 52.7118 116.74 52.7118 117.783V117.858C52.7118 118.901 51.8917 119.795 50.8479 119.795H17.2235C16.1797 119.795 15.285 118.975 15.285 117.932V117.858C15.285 116.815 16.1797 115.995 17.2235 115.921Z" fill="#EAEFF4"/>
<path d="M79.4026 110.706H11.5573V111.526H79.4026V110.706Z" fill="#F2F2F2"/>
<path d="M17.5962 122.998L18.3418 124.413L19.982 124.637L18.7891 125.829L19.0128 127.467L17.5962 126.723L16.1797 127.467L16.4033 125.829L15.2104 124.637L16.8507 124.413L17.5962 122.998Z" fill="#FBBB00"/>
<path d="M23.4861 122.998L24.2317 124.413L25.8719 124.637L24.679 125.829L24.9027 127.467L23.4861 126.723L22.0696 127.467L22.2932 125.829L21.1003 124.637L22.7406 124.413L23.4861 122.998Z" fill="#FBBB00"/>
<path d="M29.376 122.998L30.1216 124.413L31.7618 124.637L30.5689 125.829L30.7926 127.467L29.376 126.723L27.9594 127.467L28.1831 125.829L26.9902 124.637L28.6304 124.413L29.376 122.998Z" fill="#FBBB00"/>
<path d="M35.2658 122.998L36.0113 124.413L37.6515 124.637L36.4586 125.829L36.6823 127.467L35.2658 126.723L33.8492 127.467L34.0729 125.829L32.88 124.637L34.5202 124.413L35.2658 122.998Z" fill="#FBBB00"/>
<path d="M41.1557 122.998L41.9012 124.413L43.5414 124.637L42.3486 125.829L42.5722 127.467L41.1557 126.723L39.7391 127.467L39.9628 125.829L38.7699 124.637L40.4101 124.413L41.1557 122.998Z" fill="#FBBB00"/>
<path d="M74.7801 62.2848C74.4818 62.2848 74.109 62.2103 73.8108 62.1358C73.7363 62.1358 73.5872 62.1358 73.5872 62.2103L73.1398 62.7318C72.3943 62.2848 71.7978 61.6889 71.3505 60.9439L71.8724 60.4969C71.9469 60.4224 71.9469 60.3479 71.9469 60.2734C71.8724 59.9755 71.7978 59.6775 71.7978 59.305C71.7978 59.2305 71.7233 59.0815 71.6487 59.0815H70.605C70.4558 59.0815 70.2322 59.156 70.2322 59.305C70.2322 61.7633 72.2452 63.8492 74.7801 63.8492C74.9292 63.8492 75.0037 63.7747 75.0037 63.7002V63.6257V62.6573C75.0783 62.4338 75.0037 62.2848 74.7801 62.2848Z" fill="#5680E9"/>
<path d="M74.7801 81.2809C74.4818 81.2809 74.109 81.2064 73.8108 81.1319C73.7363 81.1319 73.5872 81.1319 73.5872 81.2064L73.1398 81.7279C72.3943 81.2809 71.7978 80.6849 71.3505 79.94L71.8724 79.493C71.9469 79.4185 71.9469 79.344 71.9469 79.2695C71.8724 78.9716 71.7978 78.6736 71.7978 78.3011C71.7978 78.2266 71.7233 78.0776 71.6487 78.0776H70.605C70.4558 78.0776 70.2322 78.1521 70.2322 78.3011C70.2322 80.7594 72.2452 82.8453 74.7801 82.8453C74.9292 82.8453 75.0037 82.7708 75.0037 82.6963V82.6218V81.6534C75.0783 81.3554 75.0037 81.2809 74.7801 81.2809Z" fill="#5680E9"/>
<path d="M74.7801 101.767C74.4818 101.767 74.109 101.692 73.8108 101.618C73.7363 101.618 73.5872 101.618 73.5872 101.692L73.1398 102.214C72.3943 101.767 71.7978 101.171 71.3505 100.426L71.8724 99.979C71.9469 99.9045 71.9469 99.83 71.9469 99.7555C71.8724 99.4575 71.7978 99.1595 71.7978 98.7871C71.7978 98.7126 71.7233 98.5636 71.6487 98.5636H70.605C70.4558 98.5636 70.2322 98.6381 70.2322 98.7871C70.2322 101.245 72.2452 103.331 74.7801 103.331C74.9292 103.331 75.0037 103.257 75.0037 103.182V103.108V102.139C75.0783 101.916 75.0037 101.767 74.7801 101.767Z" fill="#4285F4"/>
<path d="M74.7801 122.253C74.4818 122.253 74.109 122.178 73.8108 122.104C73.7363 122.104 73.5872 122.104 73.5872 122.178L73.1398 122.7C72.3943 122.253 71.7978 121.657 71.3505 120.912L71.8724 120.465C71.9469 120.391 71.9469 120.316 71.9469 120.242C71.8724 119.944 71.7978 119.646 71.7978 119.273C71.7978 119.199 71.7233 119.05 71.6487 119.05H70.605C70.4558 119.05 70.2322 119.124 70.2322 119.273C70.2322 121.731 72.2452 123.817 74.7801 123.817C74.9292 123.817 75.0037 123.743 75.0037 123.668V123.594V122.625C75.0783 122.327 75.0037 122.253 74.7801 122.253Z" fill="#4285F4"/>
<g opacity="0.4">
<path opacity="0.4" d="M26.1701 114.282C39.8816 114.282 50.997 103.176 50.997 89.4754C50.997 75.775 39.8816 64.6687 26.1701 64.6687C12.4585 64.6687 1.34314 75.775 1.34314 89.4754C1.34314 103.176 12.4585 114.282 26.1701 114.282Z" fill="white"/>
</g>
<mask id="mask0" mask-type="alpha" maskUnits="userSpaceOnUse" x="1" y="64" width="51" height="51">
<path d="M26.2446 114.803C40.162 114.803 51.4443 103.53 51.4443 89.6243C51.4443 75.7183 40.162 64.4452 26.2446 64.4452C12.3272 64.4452 1.04492 75.7183 1.04492 89.6243C1.04492 103.53 12.3272 114.803 26.2446 114.803Z" fill="#C4C4C4"/>
</mask>
<g mask="url(#mask0)">
<path d="M9.09692 -32.8446H108.405C114.071 -32.8446 118.619 -28.2259 118.693 -22.5644V180.284C118.693 185.946 114.071 190.49 108.405 190.564H9.09692C3.43072 190.564 -1.11715 185.946 -1.19171 180.284V-22.5644C-1.26626 -28.1515 3.20705 -32.7701 8.7987 -32.7701L9.09692 -32.8446Z" fill="#B8C0CC"/>
<path d="M10.2152 -27.7789H105.646C109.896 -27.7789 113.325 -24.3522 113.325 -20.1805V167.695C113.325 171.941 109.896 175.368 105.721 175.368H11.7809C7.53124 175.368 4.1017 171.941 4.1017 167.769V-21.6704C4.02714 -25.0226 6.7857 -27.7789 10.2152 -27.7789C10.1407 -27.7789 10.1407 -27.7789 10.2152 -27.7789Z" fill="white"/>
<path d="M13.0484 70.6283H67.101C68.8158 70.6283 70.2323 72.0437 70.2323 73.7571C70.2323 75.4704 68.8158 76.8858 67.101 76.8858H12.9738C11.2591 76.8858 9.84253 75.4704 9.84253 73.7571C9.84253 72.0437 11.2591 70.6283 13.0484 70.6283Z" fill="#EAEFF4"/>
<path d="M13.7193 82.1749L14.9122 84.5587L17.5962 84.9312L15.7323 86.7936L16.1797 89.4754L13.7939 88.209L11.4081 89.4754L11.8555 86.7936L9.99158 84.9312L12.6756 84.5587L13.7193 82.1749Z" fill="#FBBB00"/>
<path d="M23.1878 82.1749L24.3807 84.5587L27.0647 84.9312L25.2008 86.7936L25.6482 89.4754L23.2624 88.209L20.8766 89.4754L21.324 86.7936L19.4601 84.9312L22.1441 84.5587L23.1878 82.1749Z" fill="#FBBB00"/>
<path d="M32.6564 82.1749L33.8492 84.5587L36.5332 84.9312L34.6693 86.7936L35.1167 89.4754L32.7309 88.209L30.3451 89.4754L30.7925 86.7936L28.9286 84.9312L31.6126 84.5587L32.6564 82.1749Z" fill="#FBBB00"/>
<path d="M42.1249 82.1749L43.3177 84.5587L46.0017 84.9312L44.1379 86.7936L44.5852 89.4754L42.1994 88.209L39.8136 89.4754L40.261 86.7936L38.3971 84.9312L41.0811 84.5587L42.1249 82.1749Z" fill="#FBBB00"/>
<path d="M51.5934 82.1749L52.7863 84.5587L55.4703 84.9312L53.6064 86.7936L54.0537 89.4754L51.668 88.209L49.2822 89.4754L49.8041 86.7936L47.9402 84.9312L50.6242 84.5587L51.5934 82.1749Z" fill="#FBBB00"/>
<path d="M13.0483 102.959H67.1009C68.8156 102.959 70.2322 104.374 70.2322 106.088C70.2322 107.801 68.8156 109.216 67.1009 109.216H12.9737C11.259 109.216 9.84241 107.801 9.84241 106.088C9.91696 104.374 11.3335 103.033 13.0483 102.959Z" fill="#EAEFF4"/>
<path d="M113.4 94.839H4.10168V95.6584H113.4V94.839Z" fill="#EAEFF4"/>
</g>
<path d="M26.2446 114.803C40.162 114.803 51.4443 103.53 51.4443 89.6243C51.4443 75.7183 40.162 64.4452 26.2446 64.4452C12.3272 64.4452 1.04492 75.7183 1.04492 89.6243C1.04492 103.53 12.3272 114.803 26.2446 114.803Z" stroke="#FE7C5F" stroke-width="1.883" stroke-linecap="round" stroke-linejoin="round"/>
<path d="M41.4539 109.589L50.475 121.657" stroke="#FE7C5F" stroke-width="1.883" stroke-linecap="round" stroke-linejoin="round"/>
<path d="M103.558 161.644H80.62C63.3232 161.644 49.3068 147.639 49.3068 130.357V129.91C49.3068 112.627 63.3232 98.6219 80.62 98.6219H81.0673C98.3642 98.6219 112.381 112.627 112.381 129.91V147.49C112.306 155.312 111.387 161.644 103.558 161.644Z" fill="white"/>
<path d="M81.0785 98.6702C79.4383 98.6702 77.7981 98.8192 76.1578 99.0426C88.9814 98.7447 106.502 108.205 106.502 130.032V157.074C106.502 159.532 104.489 161.469 102.029 161.544H107.993C110.453 161.544 112.392 159.532 112.466 157.074V130.032C112.392 112.75 98.3753 98.7447 81.0785 98.6702Z" fill="#EAEFF4"/>
<path d="M107.144 161.643H81.3476C64.0508 161.643 50.0344 147.638 50.0344 130.356V129.909C50.0344 112.626 64.0508 98.621 81.3476 98.621H81.795C99.0918 98.621 113.108 112.626 113.108 129.909V155.684C113.108 158.961 110.424 161.643 107.144 161.643Z" stroke="#B8C0CC" stroke-width="1.88" stroke-miterlimit="10"/>
<path d="M62.9258 119.05C63.1947 119.964 64.2707 121.285 65.908 121.285C67.5453 121.285 68.5232 119.964 68.8902 119.05" stroke="#B8C0CC" stroke-width="1.8833" stroke-miterlimit="10" stroke-linecap="round" stroke-linejoin="round"/>
<path d="M90.9206 115.876C90.954 117.414 89.7347 118.688 88.1972 118.722C86.6597 118.755 85.3863 117.535 85.3529 115.997C85.3194 114.458 86.5387 113.184 88.0762 113.151C89.6137 113.117 90.8871 114.337 90.9206 115.876Z" fill="#B8C0CC"/>
<path d="M89.2934 134.814C89.2934 134.814 94.2391 124.637 88.4048 115.962" stroke="#B8C0CC" stroke-width="1.8833" stroke-miterlimit="10" stroke-linecap="round" stroke-linejoin="round"/>
</svg>
