<svg width="159" height="204" viewBox="0 0 159 204" fill="none" xmlns="http://www.w3.org/2000/svg">
<path d="M146.273 0.166992H32.6359C26.0085 0.166992 20.6359 5.53958 20.6359 12.167V180.985C20.6359 187.612 26.0085 192.985 32.6359 192.985H146.273C152.9 192.985 158.273 187.612 158.273 180.985V12.167C158.273 5.53958 152.9 0.166992 146.273 0.166992Z" fill="#B8C0CC"/>
<path d="M33.3359 4.55005H143.781C146.169 4.55005 148.46 5.49889 150.149 7.18785C151.838 8.8768 152.787 11.1675 152.787 13.556V170.973C152.787 173.362 151.838 175.652 150.149 177.341C148.46 179.03 146.169 179.979 143.781 179.979H35.1279C32.7394 179.979 30.4487 179.03 28.7597 177.341C27.0708 175.652 26.1219 173.362 26.1219 170.973V11.764C26.1219 9.85078 26.882 8.01587 28.2348 6.66298C29.5877 5.31009 31.4226 4.55005 33.3359 4.55005V4.55005Z" fill="white"/>
<path d="M63.8237 24.3968C63.2487 24.3968 62.7037 24.3222 62.1885 24.1728C61.6807 24.016 61.2663 23.807 60.9453 23.5456C60.7735 23.4187 60.6877 23.2395 60.6877 23.008C60.6877 22.8512 60.7325 22.7168 60.8221 22.6048C60.9191 22.4854 61.0311 22.4256 61.1581 22.4256C61.2925 22.4256 61.4455 22.4779 61.6173 22.5824C61.9383 22.8139 62.2743 22.9819 62.6253 23.0864C62.9762 23.191 63.3645 23.2432 63.7901 23.2432C64.3351 23.2432 64.7533 23.1499 65.0445 22.9632C65.3357 22.7691 65.4813 22.4891 65.4813 22.1232C65.4813 21.8395 65.3431 21.623 65.0669 21.4736C64.7981 21.3168 64.3463 21.1675 63.7117 21.0256C63.0546 20.8838 62.5207 20.7195 62.1101 20.5328C61.6994 20.3462 61.3895 20.1072 61.1805 19.816C60.9714 19.5248 60.8669 19.1552 60.8669 18.7072C60.8669 18.2443 60.9975 17.8299 61.2589 17.464C61.5202 17.0982 61.8823 16.8144 62.3453 16.6128C62.8157 16.4038 63.3421 16.2992 63.9245 16.2992C64.9922 16.2992 65.8621 16.583 66.5341 17.1504C66.6311 17.2326 66.6983 17.3147 66.7357 17.3968C66.7805 17.4715 66.8029 17.5686 66.8029 17.688C66.8029 17.8448 66.7543 17.983 66.6573 18.1024C66.5677 18.2144 66.4594 18.2704 66.3325 18.2704C66.2578 18.2704 66.1869 18.2592 66.1197 18.2368C66.0599 18.2144 65.9778 18.1734 65.8733 18.1136C65.5671 17.8896 65.2685 17.7254 64.9773 17.6208C64.6935 17.5088 64.3426 17.4528 63.9245 17.4528C63.4167 17.4528 63.0135 17.5574 62.7149 17.7664C62.4237 17.968 62.2781 18.2518 62.2781 18.6176C62.2781 18.9238 62.4087 19.159 62.6701 19.3232C62.9314 19.4875 63.3757 19.6406 64.0029 19.7824C64.6674 19.9318 65.205 20.0998 65.6157 20.2864C66.0338 20.4656 66.3511 20.6971 66.5677 20.9808C66.7917 21.2646 66.9037 21.6192 66.9037 22.0448C66.9037 22.5078 66.773 22.9184 66.5117 23.2768C66.2578 23.6278 65.8957 23.904 65.4253 24.1056C64.9623 24.2998 64.4285 24.3968 63.8237 24.3968ZM71.2571 18.6848C71.7275 18.6848 72.1456 18.8043 72.5115 19.0432C72.8848 19.2822 73.1723 19.6219 73.3739 20.0624C73.5829 20.4955 73.6875 20.9958 73.6875 21.5632C73.6875 22.1307 73.5829 22.6272 73.3739 23.0528C73.1723 23.4784 72.8885 23.807 72.5227 24.0384C72.1568 24.2699 71.7349 24.3856 71.2571 24.3856C70.8688 24.3856 70.5216 24.3035 70.2155 24.1392C69.9093 23.975 69.6741 23.7472 69.5099 23.456V25.7408C69.5099 25.935 69.4464 26.088 69.3195 26.2C69.1925 26.312 69.0245 26.368 68.8155 26.368C68.6064 26.368 68.4347 26.3083 68.3003 26.1888C68.1733 26.0694 68.1099 25.9126 68.1099 25.7184V19.368C68.1099 19.1664 68.1696 19.0059 68.2891 18.8864C68.416 18.767 68.584 18.7072 68.7931 18.7072C69.0021 18.7072 69.1701 18.767 69.2971 18.8864C69.424 19.0059 69.4875 19.1664 69.4875 19.368V19.648C69.6517 19.3419 69.8869 19.1067 70.1931 18.9424C70.5067 18.7707 70.8613 18.6848 71.2571 18.6848ZM70.8875 23.2992C71.328 23.2992 71.6715 23.1499 71.9179 22.8512C72.1643 22.5451 72.2875 22.1158 72.2875 21.5632C72.2875 20.9958 72.1643 20.5552 71.9179 20.2416C71.6715 19.928 71.328 19.7712 70.8875 19.7712C70.4395 19.7712 70.0923 19.9243 69.8459 20.2304C69.6069 20.5366 69.4875 20.9734 69.4875 21.5408C69.4875 22.1008 69.6069 22.5339 69.8459 22.84C70.0923 23.1462 70.4395 23.2992 70.8875 23.2992ZM77.2108 18.6848C77.9724 18.6848 78.5362 18.8752 78.902 19.256C79.2754 19.6294 79.462 20.2006 79.462 20.9696V23.7024C79.462 23.904 79.4023 24.0646 79.2828 24.184C79.1634 24.296 78.9991 24.352 78.79 24.352C78.5959 24.352 78.4354 24.2923 78.3084 24.1728C78.189 24.0534 78.1292 23.8966 78.1292 23.7024V23.456C78.0023 23.7472 77.8007 23.975 77.5244 24.1392C77.2556 24.3035 76.942 24.3856 76.5836 24.3856C76.2178 24.3856 75.8855 24.311 75.5868 24.1616C75.2882 24.0123 75.053 23.807 74.8812 23.5456C74.7095 23.2843 74.6236 22.9931 74.6236 22.672C74.6236 22.2688 74.7244 21.9515 74.926 21.72C75.1351 21.4886 75.4711 21.3206 75.934 21.216C76.397 21.1115 77.0354 21.0592 77.8492 21.0592H78.1292V20.8016C78.1292 20.4358 78.0508 20.1707 77.894 20.0064C77.7372 19.8347 77.4834 19.7488 77.1324 19.7488C76.9159 19.7488 76.6956 19.7824 76.4716 19.8496C76.2476 19.9094 75.9826 19.999 75.6764 20.1184C75.4823 20.2155 75.3404 20.264 75.2508 20.264C75.1164 20.264 75.0044 20.2155 74.9148 20.1184C74.8327 20.0214 74.7916 19.8944 74.7916 19.7376C74.7916 19.6107 74.8215 19.5024 74.8812 19.4128C74.9484 19.3158 75.0567 19.2262 75.206 19.144C75.4674 19.0022 75.7772 18.8902 76.1356 18.808C76.5015 18.7259 76.8599 18.6848 77.2108 18.6848ZM76.8636 23.3776C77.237 23.3776 77.5394 23.2544 77.7708 23.008C78.0098 22.7542 78.1292 22.4294 78.1292 22.0336V21.7984H77.9276C77.4274 21.7984 77.0391 21.8208 76.7628 21.8656C76.4866 21.9104 76.2887 21.9888 76.1692 22.1008C76.0498 22.2128 75.99 22.3659 75.99 22.56C75.99 22.799 76.0722 22.9968 76.2364 23.1536C76.4082 23.303 76.6172 23.3776 76.8636 23.3776Z" fill="#FE7C5F"/>
<path d="M129.57 60.205V57.365H130.554C130.719 57.3609 130.883 57.3915 131.036 57.455C131.162 57.5073 131.271 57.5939 131.35 57.705C131.426 57.8198 131.465 57.9552 131.462 58.093C131.464 58.2194 131.432 58.344 131.368 58.453C131.303 58.5587 131.21 58.6435 131.098 58.697C131.242 58.7446 131.367 58.838 131.454 58.963C131.542 59.0932 131.587 59.2479 131.582 59.405C131.585 59.5558 131.542 59.7039 131.458 59.829C131.37 59.9534 131.249 60.0504 131.108 60.109C130.939 60.1792 130.757 60.2133 130.574 60.209L129.57 60.205ZM130.042 57.781V58.533H130.51C130.633 58.5399 130.754 58.5046 130.854 58.433C130.894 58.399 130.926 58.356 130.947 58.3073C130.968 58.2587 130.977 58.2058 130.974 58.153C130.976 58.1007 130.967 58.0485 130.946 58.0006C130.924 57.9527 130.892 57.9104 130.852 57.877C130.753 57.8048 130.632 57.7694 130.51 57.777L130.042 57.781ZM130.042 59.789H130.554C130.696 59.7989 130.838 59.7585 130.954 59.675C130.999 59.6368 131.035 59.5885 131.059 59.534C131.083 59.4795 131.093 59.4203 131.09 59.361C131.093 59.3004 131.082 59.2399 131.058 59.1843C131.034 59.1287 130.997 59.0796 130.95 59.041C130.833 58.9588 130.692 58.9192 130.55 58.929H130.042V59.789ZM132.978 60.265C132.833 60.2664 132.69 60.2385 132.556 60.183C132.429 60.1297 132.313 60.0507 132.218 59.951C132.119 59.8498 132.042 59.7302 131.99 59.599C131.935 59.4581 131.908 59.3081 131.91 59.157C131.908 59.0072 131.936 58.8586 131.99 58.719C132.041 58.5878 132.118 58.4681 132.216 58.367C132.313 58.2669 132.431 58.1879 132.56 58.135C132.696 58.0795 132.843 58.0516 132.99 58.053C133.135 58.0516 133.278 58.0795 133.412 58.135C133.539 58.1883 133.654 58.2673 133.75 58.367C133.847 58.468 133.923 58.5869 133.974 58.717C134.029 58.8572 134.056 59.0066 134.054 59.157C134.056 59.3081 134.028 59.4581 133.974 59.599C133.923 59.7302 133.846 59.8499 133.748 59.951C133.65 60.0511 133.533 60.1301 133.404 60.183C133.269 60.238 133.124 60.2659 132.978 60.265ZM132.99 59.849C133.097 59.8489 133.201 59.8177 133.29 59.759C133.382 59.6975 133.456 59.6126 133.504 59.513C133.56 59.4028 133.59 59.2808 133.59 59.157C133.591 59.0348 133.563 58.9142 133.508 58.805C133.459 58.705 133.383 58.62 133.29 58.559C133.199 58.4988 133.091 58.4675 132.982 58.469C132.873 58.4675 132.765 58.4988 132.674 58.559C132.582 58.62 132.508 58.7042 132.46 58.803C132.406 58.9132 132.379 59.0345 132.382 59.157C132.38 59.2801 132.406 59.4021 132.46 59.513C132.508 59.6126 132.582 59.6975 132.674 59.759C132.767 59.8207 132.878 59.8522 132.99 59.849ZM135.454 60.265C135.309 60.2664 135.166 60.2385 135.032 60.183C134.903 60.1301 134.787 60.0511 134.69 59.951C134.594 59.8491 134.52 59.7295 134.47 59.599C134.415 59.4581 134.388 59.3081 134.39 59.157C134.388 59.0072 134.416 58.8586 134.47 58.719C134.521 58.5878 134.598 58.4681 134.696 58.367C134.793 58.2669 134.911 58.1879 135.04 58.135C135.176 58.0795 135.323 58.0516 135.47 58.053C135.614 58.0519 135.757 58.0797 135.89 58.135C136.017 58.1883 136.132 58.2673 136.228 58.367C136.325 58.468 136.401 58.5869 136.452 58.717C136.507 58.8572 136.534 59.0066 136.532 59.157C136.534 59.3081 136.506 59.4581 136.452 59.599C136.401 59.7302 136.324 59.8499 136.226 59.951C136.128 60.0511 136.011 60.1301 135.882 60.183C135.746 60.2383 135.601 60.2661 135.454 60.265ZM135.462 59.849C135.571 59.8505 135.679 59.8192 135.77 59.759C135.862 59.6975 135.936 59.6126 135.984 59.513C136.037 59.4021 136.064 59.2801 136.062 59.157C136.064 59.0352 136.037 58.9145 135.984 58.805C135.935 58.7062 135.861 58.622 135.77 58.561C135.679 58.5008 135.571 58.4695 135.462 58.471C135.353 58.4695 135.245 58.5008 135.154 58.561C135.062 58.622 134.988 58.7062 134.94 58.805C134.886 58.9152 134.859 59.0365 134.862 59.159C134.86 59.2821 134.886 59.4041 134.94 59.515C134.988 59.6146 135.062 59.6995 135.154 59.761C135.245 59.8205 135.353 59.8511 135.462 59.849ZM136.938 60.205V57.229H137.398V58.977L138.254 58.113H138.814L137.874 59.041L138.91 60.205H138.31L137.398 59.149V60.205H136.938Z" fill="#5680E9"/>
<path d="M40.1129 47.694C40.3747 47.7586 40.6074 47.9089 40.7739 48.121C40.9358 48.3443 41.0182 48.6154 41.0079 48.891C41.0177 49.0787 40.9833 49.2661 40.9073 49.438C40.8314 49.61 40.7162 49.7617 40.5709 49.881C40.2169 50.1361 39.7855 50.2612 39.3499 50.235H37.5649C37.5171 50.2376 37.4692 50.2306 37.4242 50.2143C37.3792 50.1979 37.3379 50.1727 37.3029 50.14C37.2706 50.1061 37.2455 50.0661 37.2292 50.0222C37.2129 49.9784 37.2056 49.9317 37.2079 49.885V45.65C37.2056 45.6032 37.2129 45.5565 37.2292 45.5127C37.2455 45.4689 37.2706 45.4288 37.3029 45.395C37.3379 45.3623 37.3792 45.337 37.4242 45.3207C37.4692 45.3044 37.5171 45.2973 37.5649 45.3H39.2729C39.697 45.2738 40.1175 45.3918 40.4659 45.635C40.608 45.7475 40.7213 45.8923 40.7962 46.0573C40.8712 46.2224 40.9057 46.4029 40.8969 46.584C40.9025 46.8266 40.8299 47.0647 40.6899 47.263C40.5453 47.4614 40.3442 47.6116 40.1129 47.694ZM37.9149 47.435H39.1609C39.8516 47.435 40.1969 47.1736 40.1969 46.651C40.2053 46.5406 40.1864 46.43 40.1419 46.3286C40.0975 46.2273 40.0288 46.1385 39.9419 46.07C39.708 45.9271 39.4353 45.861 39.1619 45.881H37.9149V47.435ZM39.2729 49.654C39.5513 49.6747 39.8289 49.6045 40.0639 49.454C40.1512 49.3797 40.2195 49.2857 40.2633 49.1799C40.3072 49.074 40.3252 48.9592 40.3159 48.845C40.3248 48.7278 40.3063 48.6101 40.2618 48.5013C40.2174 48.3925 40.1483 48.2955 40.0599 48.218C39.8279 48.0626 39.5503 47.99 39.2719 48.012H37.9149V49.654H39.2729ZM44.5159 46.749C44.5625 46.7465 44.6091 46.7532 44.653 46.7689C44.697 46.7845 44.7374 46.8086 44.7719 46.84C44.8042 46.8731 44.8293 46.9127 44.8455 46.9561C44.8617 46.9994 44.8686 47.0457 44.8659 47.092V49.941C44.8673 49.9855 44.8591 50.0298 44.8419 50.0709C44.8246 50.1119 44.7987 50.1488 44.7659 50.179C44.6947 50.2419 44.6018 50.2745 44.5069 50.27C44.4634 50.2718 44.4199 50.2649 44.3791 50.2498C44.3382 50.2347 44.3008 50.2117 44.2689 50.182C44.2383 50.1515 44.2143 50.1149 44.1987 50.0746C44.183 50.0343 44.1759 49.9912 44.1779 49.948V49.682C44.0768 49.8714 43.9225 50.0272 43.7339 50.13C43.539 50.2342 43.3209 50.2871 43.0999 50.284C42.2692 50.284 41.8539 49.8266 41.8539 48.912V47.092C41.8513 47.0457 41.8584 46.9993 41.8748 46.9559C41.8912 46.9125 41.9164 46.873 41.9489 46.84C41.9846 46.8082 42.0262 46.7839 42.0713 46.7683C42.1165 46.7527 42.1642 46.7461 42.2119 46.749C42.2583 46.7466 42.3047 46.7534 42.3485 46.7691C42.3922 46.7847 42.4325 46.8088 42.4669 46.84C42.4994 46.873 42.5247 46.9125 42.541 46.9559C42.5574 46.9993 42.5645 47.0457 42.5619 47.092V48.905C42.5455 49.1219 42.6065 49.3377 42.7339 49.514C42.7999 49.5838 42.8807 49.638 42.9703 49.6726C43.0599 49.7072 43.1561 49.7213 43.2519 49.714C43.3747 49.7193 43.4972 49.6983 43.6112 49.6525C43.7252 49.6066 43.8281 49.5369 43.9129 49.448C44.0854 49.2519 44.1738 48.9957 44.1589 48.735V47.092C44.1572 47.0458 44.1651 46.9997 44.1824 46.9568C44.1996 46.9139 44.2257 46.8751 44.2589 46.843C44.2935 46.8112 44.334 46.7865 44.3781 46.7704C44.4222 46.7542 44.469 46.747 44.5159 46.749ZM48.3799 49.689C48.4643 49.683 48.5479 49.709 48.6139 49.762C48.6409 49.7875 48.6621 49.8187 48.6759 49.8532C48.6897 49.8877 48.6958 49.9248 48.6939 49.962C48.6958 49.9991 48.6897 50.0362 48.6759 50.0708C48.6621 50.1053 48.6409 50.1364 48.6139 50.162C48.5479 50.2149 48.4643 50.241 48.3799 50.235H45.9859C45.9414 50.2373 45.8968 50.2308 45.8547 50.2159C45.8127 50.201 45.774 50.1779 45.7409 50.148C45.7111 50.1196 45.6875 50.0853 45.6719 50.0472C45.6562 50.0091 45.6487 49.9681 45.6499 49.927C45.6526 49.8308 45.6899 49.7389 45.7549 49.668L47.7009 47.368H45.9439C45.8617 47.3733 45.7806 47.3472 45.7169 47.295C45.689 47.2694 45.667 47.2379 45.6527 47.2028C45.6383 47.1677 45.6319 47.1298 45.6339 47.092C45.6321 47.0548 45.6384 47.0176 45.6524 46.9831C45.6664 46.9485 45.6877 46.9174 45.7149 46.892C45.7785 46.8394 45.8596 46.8129 45.9419 46.818H48.2659C48.3101 46.8164 48.3542 46.8237 48.3955 46.8393C48.4369 46.8549 48.4748 46.8786 48.5069 46.909C48.5371 46.9365 48.5611 46.97 48.5775 47.0074C48.5939 47.0448 48.6022 47.0852 48.6019 47.126C48.5992 47.2221 48.5619 47.3141 48.4969 47.385L46.5529 49.689H48.3799ZM51.9219 49.689C52.0063 49.683 52.0899 49.709 52.1559 49.762C52.1829 49.7875 52.2041 49.8187 52.2179 49.8532C52.2317 49.8877 52.2378 49.9248 52.2359 49.962C52.2378 49.9991 52.2317 50.0362 52.2179 50.0708C52.2041 50.1053 52.1829 50.1364 52.1559 50.162C52.0899 50.2149 52.0063 50.241 51.9219 50.235H49.5279C49.4834 50.2373 49.4388 50.2308 49.3967 50.2159C49.3547 50.201 49.316 50.1779 49.2829 50.148C49.2531 50.1196 49.2295 50.0853 49.2139 50.0472C49.1982 50.0091 49.1907 49.9681 49.1919 49.927C49.1946 49.8308 49.2319 49.7389 49.2969 49.668L51.2429 47.368H49.4859C49.4037 47.3733 49.3226 47.3472 49.2589 47.295C49.2317 47.2695 49.2104 47.2384 49.1964 47.2039C49.1824 47.1693 49.1761 47.1322 49.1779 47.095C49.1761 47.0578 49.1824 47.0206 49.1964 46.9861C49.2104 46.9515 49.2317 46.9204 49.2589 46.895C49.3225 46.8424 49.4036 46.8159 49.4859 46.821H51.8099C51.8541 46.8194 51.8982 46.8267 51.9395 46.8423C51.9809 46.8579 52.0188 46.8816 52.0509 46.912C52.0811 46.9395 52.1051 46.973 52.1215 47.0104C52.1379 47.0478 52.1462 47.0882 52.1459 47.129C52.1432 47.2251 52.1059 47.3171 52.0409 47.388L50.0949 49.688L51.9219 49.689ZM56.2479 50.289C55.9434 50.2956 55.6427 50.2207 55.3769 50.072C55.1275 49.9275 54.9256 49.7134 54.7959 49.456C54.6537 49.1691 54.583 48.8521 54.5899 48.532C54.583 48.2066 54.6561 47.8845 54.8029 47.594C54.9383 47.3308 55.1466 47.1121 55.4029 46.964C55.6715 46.8115 55.9761 46.7341 56.2849 46.74C56.466 46.7406 56.646 46.7665 56.8199 46.817C56.9888 46.8637 57.1501 46.9344 57.2989 47.027C57.3634 47.0627 57.4177 47.1142 57.4569 47.1766C57.4961 47.239 57.5188 47.3104 57.5229 47.384C57.5255 47.4559 57.5032 47.5265 57.4599 47.584C57.4413 47.6091 57.417 47.6296 57.3891 47.6436C57.3611 47.6577 57.3302 47.665 57.2989 47.665C57.255 47.6643 57.2118 47.6534 57.1729 47.633C57.1177 47.6044 57.0639 47.573 57.0119 47.539C56.9089 47.4717 56.7998 47.4144 56.6859 47.368C56.5707 47.3259 56.4485 47.3059 56.3259 47.309C56.1862 47.3015 56.0466 47.3267 55.9183 47.3826C55.7901 47.4385 55.6766 47.5235 55.5869 47.631C55.3969 47.8911 55.3039 48.2095 55.3239 48.531C55.3036 48.8472 55.3953 49.1606 55.5829 49.416C55.6732 49.521 55.7864 49.6038 55.9139 49.6579C56.0414 49.7121 56.1797 49.736 56.3179 49.728C56.4444 49.7303 56.5703 49.709 56.6889 49.665C56.8035 49.6192 56.9137 49.563 57.0179 49.497C57.0672 49.4654 57.1187 49.4373 57.1719 49.413C57.2156 49.3915 57.2633 49.3796 57.3119 49.378C57.3432 49.3779 57.3741 49.3852 57.4021 49.3993C57.43 49.4134 57.4543 49.4338 57.4729 49.459C57.5162 49.5164 57.5385 49.5871 57.5359 49.659C57.5364 49.7226 57.518 49.7849 57.4829 49.838C57.435 49.9041 57.3745 49.9602 57.3049 50.003C57.1543 50.1011 56.9888 50.1743 56.8149 50.22C56.6296 50.2666 56.4389 50.2882 56.2479 50.284V50.289ZM60.8119 46.754C60.8585 46.7515 60.9051 46.7582 60.949 46.7739C60.993 46.7895 61.0334 46.8136 61.0679 46.845C61.1002 46.8781 61.1253 46.9177 61.1415 46.9611C61.1577 47.0044 61.1646 47.0507 61.1619 47.097V49.941C61.1633 49.9855 61.1551 50.0298 61.1379 50.0709C61.1206 50.1119 61.0947 50.1488 61.0619 50.179C60.9907 50.2419 60.8978 50.2745 60.8029 50.27C60.7594 50.2718 60.7159 50.2649 60.6751 50.2498C60.6342 50.2347 60.5968 50.2117 60.5649 50.182C60.5343 50.1515 60.5103 50.1149 60.4947 50.0746C60.479 50.0343 60.4719 49.9912 60.4739 49.948V49.682C60.3728 49.8714 60.2185 50.0272 60.0299 50.13C59.8353 50.234 59.6175 50.287 59.3969 50.284C58.5662 50.284 58.1509 49.8266 58.1509 48.912V47.092C58.1482 47.0457 58.1552 46.9994 58.1713 46.9561C58.1875 46.9127 58.2126 46.8731 58.2449 46.84C58.2806 46.8082 58.3222 46.7839 58.3673 46.7683C58.4125 46.7527 58.4602 46.7461 58.5079 46.749C58.5545 46.7465 58.6011 46.7532 58.645 46.7689C58.689 46.7845 58.7294 46.8086 58.7639 46.84C58.7962 46.8731 58.8213 46.9127 58.8375 46.9561C58.8537 46.9994 58.8606 47.0457 58.8579 47.092V48.905C58.8404 49.1214 58.8999 49.3371 59.0259 49.514C59.0919 49.5838 59.1727 49.638 59.2623 49.6726C59.3519 49.7072 59.4481 49.7213 59.5439 49.714C59.6669 49.7195 59.7895 49.6986 59.9037 49.6527C60.0179 49.6068 60.121 49.537 60.2059 49.448C60.3776 49.2537 60.4666 49 60.4539 48.741V47.092C60.4522 47.0458 60.4601 46.9997 60.4774 46.9568C60.4946 46.9139 60.5207 46.8751 60.5539 46.843C60.5886 46.811 60.6292 46.7863 60.6735 46.7702C60.7178 46.754 60.7648 46.7468 60.8119 46.749V46.754ZM63.8219 49.735C63.9026 49.7354 63.9806 49.7637 64.0429 49.815C64.0659 49.8399 64.0836 49.8692 64.095 49.9012C64.1063 49.9332 64.1111 49.9671 64.1089 50.001C64.1109 50.043 64.102 50.0849 64.0828 50.1224C64.0637 50.16 64.0351 50.1919 63.9999 50.215C63.9033 50.2692 63.7916 50.2902 63.6819 50.275L63.4929 50.256C63.1764 50.254 62.8729 50.1296 62.6459 49.909C62.442 49.6552 62.342 49.3336 62.3659 49.009V47.365H61.9459C61.7379 47.365 61.6339 47.274 61.6339 47.092C61.632 47.0548 61.6381 47.0177 61.652 46.9832C61.6658 46.9487 61.6869 46.9175 61.7139 46.892C61.7777 46.8392 61.8593 46.8127 61.9419 46.818H62.3619V46.097C62.3592 46.0507 62.3662 46.0044 62.3823 45.9611C62.3985 45.9177 62.4236 45.8781 62.4559 45.845C62.4903 45.8138 62.5306 45.7897 62.5743 45.7741C62.6181 45.7584 62.6645 45.7516 62.7109 45.754C62.8058 45.7494 62.8987 45.7821 62.9699 45.845C63.0036 45.8774 63.03 45.9166 63.0473 45.9601C63.0645 46.0036 63.0722 46.0503 63.0699 46.097V46.818H63.7629C63.8456 46.8127 63.9271 46.8392 63.9909 46.892C64.0179 46.9175 64.0391 46.9487 64.0529 46.9832C64.0667 47.0177 64.0728 47.0548 64.0709 47.092C64.073 47.1291 64.067 47.1663 64.0532 47.2009C64.0393 47.2354 64.0181 47.2665 63.9909 47.292C63.926 47.3424 63.8449 47.3673 63.7629 47.362H63.0699V49.056C63.0557 49.2282 63.1044 49.3998 63.2069 49.539C63.3172 49.6503 63.4672 49.7132 63.6239 49.714L63.8219 49.735Z" fill="#B8C0CC"/>
<path d="M37.5649 86.028C37.5172 86.0302 37.4695 86.0225 37.4249 86.0053C37.3803 85.988 37.3398 85.9617 37.3059 85.928C37.2725 85.893 37.2465 85.8518 37.2293 85.8066C37.2121 85.7614 37.2042 85.7133 37.2059 85.665V81.408C37.2039 81.3611 37.2114 81.3143 37.2281 81.2705C37.2448 81.2266 37.2702 81.1866 37.3029 81.153C37.3379 81.1203 37.3792 81.095 37.4242 81.0787C37.4692 81.0624 37.5171 81.0553 37.5649 81.058H40.0709C40.2949 81.058 40.4069 81.156 40.4069 81.352C40.4069 81.548 40.2949 81.646 40.0709 81.646H37.9219V83.193H39.9339C40.1579 83.193 40.2699 83.291 40.2699 83.487C40.2699 83.683 40.1579 83.781 39.9339 83.781H37.9219V85.664C37.9244 85.7124 37.9173 85.7608 37.901 85.8065C37.8847 85.8521 37.8595 85.8941 37.8269 85.93C37.7924 85.9635 37.7513 85.9896 37.7062 86.0065C37.6611 86.0233 37.613 86.0307 37.5649 86.028ZM42.3809 82.493C42.5639 82.4784 42.7479 82.5013 42.9217 82.5603C43.0956 82.6193 43.2556 82.7131 43.3919 82.836C43.6349 83.1268 43.7541 83.5012 43.7239 83.879V85.693C43.7267 85.7381 43.7201 85.7834 43.7046 85.8259C43.6892 85.8684 43.6651 85.9072 43.6339 85.94C43.5649 86.0015 43.4742 86.0332 43.3819 86.028C43.3365 86.0306 43.2911 86.0239 43.2484 86.0083C43.2058 85.9926 43.1668 85.9684 43.1339 85.937C43.1036 85.9043 43.0801 85.8659 43.065 85.824C43.0499 85.782 43.0434 85.7375 43.0459 85.693V85.433C42.9632 85.6218 42.8232 85.7799 42.6459 85.885C42.4602 85.9925 42.2485 86.0469 42.0339 86.042C41.8208 86.0442 41.61 85.9974 41.4179 85.905C41.2395 85.8209 41.0881 85.6886 40.9809 85.523C40.8759 85.3604 40.8209 85.1705 40.8229 84.977C40.812 84.7645 40.8821 84.5558 41.0189 84.393C41.1946 84.2287 41.4174 84.1238 41.6559 84.093C42.0591 84.0206 42.4683 83.9871 42.8779 83.993H43.0389V83.793C43.0571 83.5906 42.9997 83.3886 42.8779 83.226C42.8086 83.1622 42.7267 83.1137 42.6374 83.0836C42.5482 83.0534 42.4537 83.0423 42.3599 83.051C42.2037 83.05 42.0481 83.0712 41.8979 83.114C41.735 83.1629 41.5759 83.2237 41.4219 83.296C41.3416 83.3493 41.251 83.385 41.1559 83.401C41.1234 83.4018 41.0912 83.3953 41.0616 83.382C41.032 83.3687 41.0058 83.3488 40.9849 83.324C40.9382 83.2681 40.9142 83.1967 40.9179 83.124C40.9168 83.0574 40.9379 82.9923 40.9779 82.939C41.031 82.8739 41.0966 82.8202 41.1709 82.781C41.3523 82.6875 41.5448 82.6176 41.7439 82.573C41.9523 82.5208 42.1661 82.494 42.3809 82.493ZM42.1639 85.517C42.2816 85.5208 42.3988 85.4992 42.5075 85.4539C42.6161 85.4085 42.7138 85.3403 42.7939 85.254C42.9607 85.0697 43.0487 84.8274 43.0389 84.579V84.393H42.9129C42.6321 84.3876 42.3512 84.404 42.0729 84.442C41.9203 84.4568 41.7748 84.514 41.6529 84.607C41.6094 84.6501 41.5756 84.702 41.5538 84.7593C41.5321 84.8166 41.5229 84.8778 41.5269 84.939C41.5247 85.017 41.5399 85.0946 41.5714 85.166C41.6028 85.2374 41.6498 85.301 41.7089 85.352C41.8343 85.4624 41.9968 85.5214 42.1639 85.517ZM47.4839 81.023C47.5788 81.0184 47.6717 81.0511 47.7429 81.114C47.7762 81.1452 47.8023 81.1833 47.8196 81.2256C47.8369 81.2679 47.8448 81.3133 47.8429 81.359V85.685C47.8455 85.7313 47.8384 85.7776 47.822 85.821C47.8057 85.8644 47.7804 85.9039 47.7479 85.937C47.7135 85.9682 47.6732 85.9923 47.6295 86.0079C47.5857 86.0235 47.5393 86.0303 47.4929 86.028C47.4458 86.0309 47.3987 86.0243 47.3542 86.0087C47.3097 85.9931 47.2688 85.9687 47.2339 85.937C47.2014 85.9039 47.1761 85.8644 47.1598 85.821C47.1434 85.7776 47.1363 85.7313 47.1389 85.685V85.405C47.0417 85.6049 46.8852 85.77 46.6909 85.878C46.4832 85.9902 46.2499 86.0467 46.0139 86.042C45.7353 86.0462 45.4615 85.9683 45.2269 85.818C44.9912 85.6632 44.8043 85.4448 44.6879 85.188C44.5552 84.8959 44.4896 84.5777 44.4959 84.257C44.4886 83.9361 44.5543 83.6178 44.6879 83.326C44.8042 83.0738 44.9902 82.8601 45.2239 82.71C45.4609 82.5631 45.7352 82.4877 46.0139 82.493C46.2494 82.4877 46.4821 82.5442 46.6889 82.657C46.8801 82.7646 47.0347 82.9268 47.1329 83.123V81.345C47.1308 81.3014 47.1382 81.2579 47.1546 81.2175C47.171 81.1771 47.196 81.1407 47.2279 81.111C47.2986 81.0495 47.3904 81.018 47.4839 81.023ZM46.1819 85.482C46.3162 85.4889 46.4503 85.4639 46.5731 85.4092C46.696 85.3544 46.8042 85.2714 46.8889 85.167C47.0735 84.9047 47.1625 84.587 47.1409 84.267C47.1623 83.9476 47.0749 83.6303 46.8929 83.367C46.8079 83.2618 46.6991 83.1784 46.5754 83.1236C46.4518 83.0688 46.3169 83.0443 46.1819 83.052C46.0464 83.0449 45.9111 83.0694 45.7867 83.1235C45.6622 83.1777 45.5521 83.26 45.4649 83.364C45.2797 83.6204 45.1896 83.9333 45.2099 84.249C45.1911 84.5697 45.2825 84.8873 45.4689 85.149C45.5528 85.2571 45.6612 85.3437 45.7852 85.4016C45.9092 85.4595 46.0452 85.487 46.1819 85.482ZM51.5019 85.132C51.5329 85.1315 51.5635 85.1382 51.5915 85.1515C51.6194 85.1649 51.6439 85.1845 51.6629 85.209C51.7073 85.2659 51.7296 85.3369 51.7259 85.409C51.7204 85.4841 51.6939 85.5561 51.6493 85.6168C51.6047 85.6774 51.5439 85.7243 51.4739 85.752C51.3058 85.8473 51.1259 85.9202 50.9389 85.969C50.7577 86.0186 50.5708 86.0445 50.3829 86.046C50.1484 86.0585 49.9139 86.023 49.6936 85.9417C49.4733 85.8604 49.272 85.7349 49.1019 85.573C48.9405 85.3999 48.8159 85.1959 48.7354 84.9733C48.655 84.7508 48.6205 84.5142 48.6339 84.278C48.6278 83.9556 48.6988 83.6364 48.8409 83.347C48.97 83.0855 49.1717 82.8668 49.4219 82.717C49.6796 82.5655 49.974 82.4879 50.2729 82.493C50.4749 82.4831 50.6767 82.5174 50.8641 82.5936C51.0515 82.6698 51.22 82.7859 51.3579 82.934C51.6376 83.2654 51.7806 83.6909 51.7579 84.124C51.7579 84.3106 51.6739 84.404 51.5059 84.404H49.3389C49.3856 85.13 49.7332 85.493 50.3819 85.493C50.5342 85.4963 50.6859 85.4726 50.8299 85.423C50.9672 85.3714 51.1008 85.3106 51.2299 85.241C51.2439 85.2316 51.2826 85.212 51.3459 85.182C51.3937 85.1542 51.4469 85.1372 51.5019 85.132ZM50.2839 83.011C50.1634 83.0058 50.0432 83.0262 49.9312 83.0708C49.8191 83.1155 49.7178 83.1834 49.6339 83.27C49.4584 83.4717 49.3546 83.726 49.3389 83.993H51.1449C51.1493 83.7291 51.0644 83.4715 50.9039 83.262C50.8259 83.1764 50.7297 83.1095 50.6224 83.066C50.5151 83.0226 50.3994 83.0038 50.2839 83.011Z" fill="#B8C0CC"/>
<path d="M26.7799 36.796H152.302" stroke="#F2F2F2" stroke-miterlimit="10"/>
<path d="M26.7799 71.823H152.302" stroke="#F2F2F2" stroke-miterlimit="10"/>
<path d="M98.0709 56.381H38.3979C37.4237 56.381 36.6339 57.1708 36.6339 58.145V58.807C36.6339 59.7812 37.4237 60.571 38.3979 60.571H98.0709C99.0451 60.571 99.8349 59.7812 99.8349 58.807V58.145C99.8349 57.1708 99.0451 56.381 98.0709 56.381Z" fill="#EAEFF4"/>
<path d="M137.465 45.27H136.981V44.299H136.01V45.27H131.156V44.299H130.186V45.27H129.7C129.443 45.2707 129.196 45.3732 129.015 45.5549C128.833 45.7366 128.73 45.9828 128.729 46.24V54.006C128.73 54.2631 128.832 54.5096 129.014 54.6913C129.196 54.8731 129.443 54.9754 129.7 54.976H137.465C137.722 54.9754 137.969 54.8731 138.151 54.6913C138.333 54.5096 138.435 54.2631 138.436 54.006V46.242C138.435 45.9845 138.333 45.7377 138.151 45.5556C137.969 45.3734 137.722 45.2707 137.465 45.27ZM137.465 54.007H129.7V47.697H137.465V54.007Z" fill="#5680E9"/>
<path d="M132.498 48.917H131.056V50.359H132.498V48.917Z" fill="#5680E9"/>
<path d="M129.57 94.379V91.539H130.554C130.719 91.5348 130.883 91.5655 131.036 91.629C131.162 91.6812 131.271 91.7678 131.35 91.879C131.426 91.9937 131.465 92.1292 131.462 92.267C131.464 92.3933 131.432 92.5179 131.368 92.627C131.303 92.7327 131.21 92.8174 131.098 92.871C131.242 92.9186 131.367 93.012 131.454 93.137C131.542 93.2671 131.587 93.4218 131.582 93.579C131.585 93.7297 131.542 93.8778 131.458 94.003C131.37 94.1273 131.249 94.2244 131.108 94.283C130.939 94.3532 130.757 94.3872 130.574 94.383L129.57 94.379ZM130.042 91.955V92.707H130.51C130.633 92.7138 130.754 92.6785 130.854 92.607C130.894 92.573 130.926 92.5299 130.947 92.4813C130.968 92.4326 130.977 92.3798 130.974 92.327C130.976 92.2746 130.967 92.2224 130.946 92.1745C130.924 92.1266 130.892 92.0843 130.852 92.051C130.753 91.9788 130.632 91.9434 130.51 91.951L130.042 91.955ZM130.042 93.963H130.554C130.696 93.9728 130.838 93.9325 130.954 93.849C130.999 93.8107 131.035 93.7625 131.059 93.708C131.083 93.6535 131.093 93.5943 131.09 93.535C131.093 93.4744 131.082 93.4138 131.058 93.3582C131.034 93.3026 130.997 93.2535 130.95 93.215C130.833 93.1327 130.692 93.0932 130.55 93.103H130.042V93.963ZM132.978 94.439C132.833 94.4404 132.69 94.4125 132.556 94.357C132.429 94.3036 132.313 94.2246 132.218 94.125C132.119 94.0238 132.042 93.9041 131.99 93.773C131.935 93.632 131.908 93.482 131.91 93.331C131.908 93.1812 131.936 93.0325 131.99 92.893C132.041 92.7617 132.118 92.642 132.216 92.541C132.313 92.4408 132.431 92.3619 132.56 92.309C132.696 92.2534 132.843 92.2256 132.99 92.227C133.135 92.2255 133.278 92.2534 133.412 92.309C133.539 92.3623 133.654 92.4413 133.75 92.541C133.847 92.642 133.923 92.7609 133.974 92.891C134.029 93.0311 134.056 93.1805 134.054 93.331C134.056 93.482 134.028 93.632 133.974 93.773C133.923 93.9042 133.846 94.0239 133.748 94.125C133.65 94.2251 133.533 94.3041 133.404 94.357C133.269 94.412 133.124 94.4398 132.978 94.439ZM132.99 94.023C133.097 94.0229 133.201 93.9916 133.29 93.933C133.382 93.8715 133.456 93.7866 133.504 93.687C133.56 93.5767 133.59 93.4547 133.59 93.331C133.591 93.2088 133.563 93.0882 133.508 92.979C133.459 92.8789 133.383 92.794 133.29 92.733C133.199 92.6728 133.091 92.6414 132.982 92.643C132.873 92.6414 132.765 92.6728 132.674 92.733C132.582 92.794 132.508 92.8782 132.46 92.977C132.406 93.0871 132.379 93.2084 132.382 93.331C132.38 93.4541 132.406 93.576 132.46 93.687C132.508 93.7866 132.582 93.8715 132.674 93.933C132.767 93.9947 132.878 94.0261 132.99 94.023ZM135.454 94.439C135.309 94.4404 135.166 94.4125 135.032 94.357C134.903 94.3041 134.787 94.2251 134.69 94.125C134.594 94.0231 134.52 93.9035 134.47 93.773C134.415 93.632 134.388 93.482 134.39 93.331C134.388 93.1812 134.416 93.0325 134.47 92.893C134.521 92.7617 134.598 92.642 134.696 92.541C134.793 92.4408 134.911 92.3619 135.04 92.309C135.176 92.2534 135.323 92.2256 135.47 92.227C135.614 92.2258 135.757 92.2537 135.89 92.309C136.017 92.3623 136.132 92.4413 136.228 92.541C136.325 92.642 136.401 92.7609 136.452 92.891C136.507 93.0311 136.534 93.1805 136.532 93.331C136.534 93.482 136.506 93.632 136.452 93.773C136.401 93.9042 136.324 94.0239 136.226 94.125C136.128 94.2251 136.011 94.3041 135.882 94.357C135.746 94.4122 135.601 94.4401 135.454 94.439ZM135.462 94.023C135.571 94.0245 135.679 93.9931 135.77 93.933C135.862 93.8715 135.936 93.7866 135.984 93.687C136.037 93.576 136.064 93.4541 136.062 93.331C136.064 93.2091 136.037 93.0885 135.984 92.979C135.935 92.8802 135.861 92.796 135.77 92.735C135.679 92.6748 135.571 92.6434 135.462 92.645C135.353 92.6434 135.245 92.6748 135.154 92.735C135.062 92.796 134.988 92.8802 134.94 92.979C134.886 93.0891 134.859 93.2104 134.862 93.333C134.86 93.4561 134.886 93.578 134.94 93.689C134.988 93.7886 135.062 93.8735 135.154 93.935C135.245 93.9944 135.353 94.0251 135.462 94.023ZM136.938 94.379V91.403H137.398V93.151L138.254 92.287H138.814L137.874 93.215L138.91 94.379H138.31L137.398 93.323V94.379H136.938Z" fill="#5680E9"/>
<path d="M26.7799 105.998H152.302" stroke="#F2F2F2" stroke-miterlimit="10"/>
<path d="M98.0709 91.3199H38.3979C37.4237 91.3199 36.6339 92.1097 36.6339 93.0839V93.7459C36.6339 94.7202 37.4237 95.5099 38.3979 95.5099H98.0709C99.0451 95.5099 99.8349 94.7202 99.8349 93.7459V93.0839C99.8349 92.1097 99.0451 91.3199 98.0709 91.3199Z" fill="#EAEFF4"/>
<path d="M38.7479 119.595C38.6997 119.597 38.6517 119.589 38.6066 119.572C38.5616 119.555 38.5205 119.529 38.4859 119.495C38.4522 119.46 38.4259 119.419 38.4087 119.374C38.3915 119.329 38.3838 119.28 38.3859 119.232V115.232H36.9839C36.7599 115.232 36.6479 115.132 36.6479 114.932C36.6441 114.89 36.6498 114.847 36.6647 114.807C36.6796 114.767 36.7032 114.731 36.7339 114.702C36.8048 114.646 36.8939 114.619 36.9839 114.625H40.5119C40.6012 114.619 40.6895 114.647 40.7599 114.702C40.7901 114.731 40.8137 114.766 40.8289 114.804C40.8441 114.843 40.8506 114.885 40.8479 114.926C40.8479 115.126 40.7359 115.226 40.5119 115.226H39.1119V119.226C39.1136 119.274 39.1057 119.322 39.0885 119.368C39.0713 119.413 39.0453 119.454 39.0119 119.489C38.9777 119.524 38.9365 119.552 38.8911 119.57C38.8456 119.588 38.7969 119.597 38.7479 119.595ZM42.6119 116.074C42.8359 116.06 42.9479 116.156 42.9479 116.361C42.9511 116.403 42.9459 116.445 42.9327 116.484C42.9195 116.524 42.8985 116.561 42.8709 116.592C42.7955 116.652 42.7015 116.685 42.6049 116.683L42.3949 116.704C42.2704 116.708 42.148 116.737 42.0353 116.79C41.9226 116.843 41.8221 116.918 41.7399 117.012C41.5957 117.195 41.52 117.423 41.5259 117.656V119.26C41.5291 119.307 41.5218 119.354 41.5045 119.397C41.4872 119.441 41.4603 119.48 41.4259 119.512C41.355 119.57 41.2654 119.6 41.1739 119.596C41.0816 119.599 40.9912 119.57 40.9189 119.512C40.8841 119.48 40.857 119.441 40.8397 119.398C40.8224 119.354 40.8153 119.307 40.8189 119.26V116.41C40.8159 116.364 40.8233 116.317 40.8406 116.274C40.8579 116.231 40.8847 116.192 40.9189 116.161C40.9903 116.102 41.0811 116.071 41.1739 116.074C41.2603 116.071 41.3442 116.103 41.4079 116.161C41.44 116.192 41.4651 116.23 41.4815 116.271C41.4979 116.313 41.5052 116.357 41.5029 116.402V116.738C41.5867 116.544 41.7285 116.38 41.9089 116.269C42.0915 116.16 42.2969 116.095 42.5089 116.08L42.6119 116.074ZM43.7389 119.595C43.6466 119.598 43.5562 119.569 43.4839 119.511C43.4491 119.479 43.422 119.44 43.4047 119.397C43.3874 119.353 43.3803 119.306 43.3839 119.259V116.417C43.3804 116.37 43.3876 116.322 43.4049 116.278C43.4222 116.233 43.4492 116.194 43.4839 116.161C43.5553 116.102 43.6461 116.071 43.7389 116.074C43.8309 116.07 43.9209 116.101 43.9909 116.161C44.0253 116.194 44.052 116.234 44.0693 116.278C44.0866 116.322 44.094 116.37 44.0909 116.417V119.26C44.0941 119.307 44.0868 119.354 44.0695 119.397C44.0522 119.441 44.0253 119.48 43.9909 119.512C43.9199 119.57 43.8302 119.599 43.7389 119.595ZM43.7389 115.388C43.6211 115.394 43.5055 115.354 43.4169 115.276C43.3773 115.238 43.3463 115.193 43.3257 115.142C43.3052 115.091 43.2957 115.037 43.2979 114.982C43.2954 114.928 43.3048 114.874 43.3254 114.823C43.3459 114.773 43.3771 114.728 43.4169 114.691C43.5064 114.615 43.6216 114.576 43.7389 114.582C43.8552 114.577 43.9691 114.616 44.0579 114.691C44.0985 114.728 44.1305 114.773 44.1516 114.823C44.1727 114.873 44.1824 114.928 44.1799 114.982C44.1821 115.037 44.1726 115.091 44.1521 115.142C44.1316 115.193 44.1005 115.238 44.0609 115.276C43.9724 115.354 43.8568 115.394 43.7389 115.388ZM48.9959 116.06C49.7612 116.06 50.1439 116.52 50.1439 117.439V119.26C50.1464 119.306 50.1387 119.352 50.1214 119.395C50.1042 119.438 50.0777 119.477 50.0439 119.508C49.9718 119.569 49.8793 119.6 49.7849 119.596C49.693 119.599 49.6033 119.567 49.5339 119.507C49.5003 119.476 49.4739 119.437 49.4566 119.395C49.4393 119.352 49.4316 119.306 49.4339 119.26V117.446C49.452 117.228 49.3979 117.011 49.2799 116.827C49.2199 116.76 49.1451 116.707 49.0612 116.673C48.9774 116.64 48.8869 116.626 48.7969 116.634C48.6821 116.629 48.5677 116.65 48.4622 116.695C48.3567 116.741 48.2629 116.81 48.1879 116.897C48.029 117.101 47.9495 117.356 47.9639 117.614V119.26C47.9664 119.306 47.9587 119.352 47.9414 119.395C47.9242 119.438 47.8977 119.477 47.8639 119.508C47.7918 119.569 47.6993 119.6 47.6049 119.596C47.5128 119.6 47.4227 119.568 47.3529 119.508C47.3191 119.477 47.2927 119.438 47.2754 119.395C47.2581 119.352 47.2504 119.306 47.2529 119.26V117.446C47.271 117.228 47.2169 117.011 47.0989 116.827C47.0389 116.76 46.9641 116.707 46.8802 116.673C46.7964 116.64 46.7059 116.626 46.6159 116.634C46.5007 116.629 46.3859 116.65 46.28 116.696C46.174 116.741 46.0797 116.81 46.0039 116.897C45.8427 117.1 45.7616 117.355 45.7759 117.614V119.26C45.7784 119.306 45.7707 119.352 45.7534 119.395C45.7362 119.438 45.7097 119.477 45.6759 119.508C45.6085 119.566 45.5225 119.596 45.4339 119.595C45.341 119.598 45.2501 119.567 45.1789 119.507C45.1448 119.476 45.1181 119.437 45.1008 119.394C45.0835 119.351 45.076 119.305 45.0789 119.259V116.41C45.0769 116.364 45.0854 116.318 45.1035 116.276C45.1217 116.233 45.1492 116.195 45.1839 116.165C45.2532 116.105 45.3422 116.073 45.4339 116.074C45.5225 116.071 45.6089 116.102 45.6749 116.161C45.7069 116.192 45.7318 116.23 45.748 116.271C45.7642 116.313 45.7713 116.357 45.7689 116.402V116.66C45.8641 116.472 46.0126 116.316 46.1959 116.212C46.3889 116.107 46.6061 116.054 46.8259 116.058C47.0525 116.05 47.2768 116.105 47.4729 116.219C47.6527 116.338 47.7872 116.514 47.8549 116.719C47.9572 116.519 48.1152 116.352 48.3099 116.239C48.518 116.118 48.7552 116.056 48.9959 116.06Z" fill="#B8C0CC"/>
<path d="M98.0709 124.887H38.3979C37.4237 124.887 36.6339 125.677 36.6339 126.651V127.313C36.6339 128.287 37.4237 129.077 38.3979 129.077H98.0709C99.0451 129.077 99.8349 128.287 99.8349 127.313V126.651C99.8349 125.677 99.0451 124.887 98.0709 124.887Z" fill="#EAEFF4"/>
<path d="M41.0579 154.774C41.0996 154.832 41.1216 154.902 41.1209 154.974C41.1214 155.015 41.1127 155.055 41.0954 155.092C41.078 155.129 41.0526 155.162 41.0209 155.188C40.9565 155.245 40.8731 155.277 40.7869 155.276C40.7238 155.277 40.6615 155.261 40.6063 155.23C40.5511 155.199 40.5048 155.155 40.4719 155.101L39.5339 153.64C39.4503 153.496 39.3325 153.374 39.1909 153.286C39.0433 153.213 38.8795 153.178 38.7149 153.186H37.9219V154.893C37.9244 154.941 37.9173 154.99 37.901 155.035C37.8847 155.081 37.8595 155.123 37.8269 155.159C37.7925 155.193 37.7513 155.22 37.706 155.237C37.6607 155.254 37.6123 155.262 37.5639 155.259C37.5162 155.261 37.4686 155.253 37.4241 155.236C37.3795 155.219 37.339 155.192 37.3049 155.159C37.271 155.124 37.2447 155.082 37.2275 155.036C37.2103 154.991 37.2026 154.942 37.2049 154.893V150.637C37.203 150.59 37.2107 150.543 37.2276 150.499C37.2445 150.456 37.2701 150.416 37.3029 150.382C37.3379 150.349 37.3792 150.324 37.4242 150.308C37.4692 150.291 37.5171 150.284 37.5649 150.287H39.3079C39.7542 150.256 40.1969 150.385 40.5569 150.651C40.7045 150.784 40.82 150.949 40.8947 151.133C40.9693 151.318 41.0012 151.517 40.9879 151.715C41.0034 152.06 40.8856 152.397 40.6589 152.657C40.4084 152.913 40.0771 153.075 39.7209 153.116C39.8424 153.149 39.9549 153.209 40.0499 153.291C40.1626 153.393 40.2593 153.511 40.3369 153.641L41.0579 154.774ZM39.2239 152.604C39.5104 152.626 39.796 152.551 40.0339 152.39C40.1256 152.307 40.1969 152.205 40.2424 152.09C40.2878 151.976 40.3062 151.852 40.2959 151.729C40.3062 151.607 40.2879 151.484 40.2424 151.37C40.1969 151.257 40.1255 151.155 40.0339 151.074C39.7935 150.917 39.508 150.844 39.2219 150.867H37.9149V152.603L39.2239 152.604ZM43.4339 155.271C43.125 155.278 42.8198 155.203 42.5489 155.054C42.2956 154.91 42.0909 154.695 41.9609 154.434C41.8181 154.144 41.7471 153.823 41.7539 153.5C41.7465 153.174 41.8175 152.851 41.9609 152.558C42.0911 152.298 42.2958 152.082 42.5489 151.939C42.8198 151.79 43.125 151.715 43.4339 151.722C43.7428 151.715 44.0481 151.79 44.3189 151.939C44.5721 152.082 44.7768 152.298 44.9069 152.558C45.0504 152.851 45.1214 153.174 45.1139 153.5C45.1207 153.823 45.0497 154.144 44.9069 154.434C44.7769 154.695 44.5722 154.91 44.3189 155.054C44.0481 155.203 43.7428 155.278 43.4339 155.271ZM43.4339 154.711C43.5693 154.719 43.7048 154.696 43.8295 154.642C43.9542 154.589 44.0646 154.507 44.1519 154.403C44.3342 154.14 44.4217 153.822 44.3999 153.503C44.4215 153.183 44.3325 152.865 44.1479 152.603C44.0618 152.498 43.9523 152.416 43.8283 152.361C43.7043 152.307 43.5692 152.282 43.4339 152.289C43.2988 152.282 43.1638 152.306 43.0398 152.36C42.9158 152.414 42.8063 152.497 42.7199 152.601C42.5353 152.863 42.4463 153.181 42.4679 153.501C42.4464 153.821 42.5342 154.138 42.7169 154.401C42.8039 154.505 42.9141 154.587 43.0386 154.641C43.1631 154.695 43.2985 154.719 43.4339 154.711ZM48.2779 151.946C48.3005 151.883 48.3434 151.828 48.3999 151.792C48.4515 151.76 48.5111 151.743 48.5719 151.743C48.6587 151.742 48.7423 151.775 48.8059 151.834C48.8375 151.861 48.8628 151.894 48.88 151.931C48.8973 151.969 48.9061 152.01 48.9059 152.051C48.9061 152.097 48.8965 152.142 48.8779 152.184L46.9339 156.314C46.9094 156.375 46.8669 156.428 46.8119 156.465C46.7611 156.499 46.7012 156.518 46.6399 156.518C46.5566 156.518 46.4761 156.488 46.4129 156.434C46.3812 156.409 46.3557 156.377 46.3383 156.341C46.321 156.304 46.3123 156.264 46.3129 156.224C46.3156 156.176 46.3274 156.128 46.3479 156.084L46.8339 155.054L45.4819 152.184C45.4628 152.145 45.4532 152.102 45.4539 152.058C45.4538 152.014 45.4638 151.972 45.4833 151.933C45.5027 151.894 45.531 151.86 45.5659 151.834C45.6365 151.775 45.7258 151.743 45.8179 151.743C45.8825 151.741 45.9462 151.759 46 151.795C46.0538 151.831 46.095 151.883 46.1179 151.943L47.2039 154.347L48.2779 151.946ZM50.8679 151.722C51.0511 151.707 51.2353 151.73 51.4093 151.789C51.5833 151.848 51.7435 151.942 51.8799 152.065C52.1229 152.356 52.2421 152.73 52.2119 153.108V154.922C52.2147 154.967 52.2081 155.013 52.1924 155.056C52.1767 155.098 52.1524 155.137 52.1209 155.17C52.0519 155.232 51.9613 155.263 51.8689 155.258C51.824 155.26 51.7792 155.253 51.7371 155.238C51.6949 155.222 51.6564 155.198 51.6239 155.167C51.5931 155.134 51.5692 155.096 51.5537 155.054C51.5383 155.012 51.5315 154.967 51.5339 154.922V154.662C51.4512 154.851 51.3113 155.009 51.1339 155.114C50.948 155.222 50.7359 155.277 50.5209 155.272C50.3078 155.274 50.097 155.227 49.9049 155.135C49.7265 155.051 49.5751 154.919 49.4679 154.753C49.3633 154.59 49.3087 154.4 49.3109 154.207C49.2992 153.995 49.3682 153.786 49.5039 153.623C49.6796 153.459 49.9024 153.354 50.1409 153.323C50.546 153.25 50.9573 153.216 51.3689 153.222H51.5339V153.022C51.5521 152.82 51.4947 152.618 51.3729 152.455C51.3036 152.391 51.2217 152.343 51.1325 152.313C51.0432 152.282 50.9487 152.271 50.8549 152.28C50.6987 152.279 50.5432 152.3 50.3929 152.343C50.23 152.392 50.0709 152.453 49.9169 152.525C49.8366 152.578 49.746 152.614 49.6509 152.63C49.6183 152.631 49.5859 152.625 49.5561 152.611C49.5263 152.598 49.4999 152.578 49.4789 152.553C49.4325 152.497 49.409 152.426 49.4129 152.353C49.4115 152.286 49.4323 152.221 49.4719 152.168C49.525 152.103 49.5907 152.049 49.6649 152.01C49.845 151.917 50.0362 151.847 50.2339 151.802C50.4426 151.75 50.6568 151.723 50.8719 151.722H50.8679ZM50.6549 154.746C50.7726 154.75 50.8898 154.728 50.9985 154.683C51.1072 154.638 51.2048 154.569 51.2849 154.483C51.4517 154.299 51.5397 154.056 51.5299 153.808V153.622H51.4039C51.1231 153.617 50.8422 153.633 50.5639 153.671C50.4113 153.686 50.2658 153.743 50.1439 153.836C50.1004 153.879 50.0666 153.931 50.0449 153.988C50.0231 154.046 50.0139 154.107 50.0179 154.168C50.0157 154.246 50.0309 154.324 50.0624 154.395C50.0938 154.466 50.1408 154.53 50.1999 154.581C50.3253 154.691 50.4879 154.75 50.6549 154.746ZM53.5389 155.257C53.4463 155.261 53.3554 155.231 53.2829 155.173C53.2481 155.141 53.221 155.102 53.2037 155.059C53.1864 155.015 53.1793 154.968 53.1829 154.921V150.595C53.1794 150.548 53.1866 150.5 53.2039 150.456C53.2212 150.411 53.2482 150.372 53.2829 150.339C53.3544 150.279 53.4456 150.248 53.5389 150.251C53.631 150.247 53.7211 150.279 53.7909 150.339C53.8253 150.372 53.852 150.412 53.8693 150.456C53.8866 150.5 53.894 150.548 53.8909 150.595V154.922C53.8941 154.969 53.8868 155.016 53.8695 155.059C53.8522 155.103 53.8253 155.142 53.7909 155.174C53.7199 155.232 53.6302 155.261 53.5389 155.257ZM58.4389 155.278C58.0965 155.28 57.7557 155.23 57.4279 155.131C57.1454 155.053 56.8835 154.913 56.6609 154.722C56.6182 154.688 56.5841 154.644 56.561 154.594C56.5379 154.544 56.5266 154.49 56.5279 154.435C56.5258 154.358 56.5505 154.283 56.5979 154.222C56.6171 154.195 56.6423 154.174 56.6715 154.158C56.7007 154.143 56.733 154.135 56.7659 154.135C56.8522 154.143 56.9346 154.174 57.0039 154.226C57.4138 154.532 57.9133 154.695 58.4249 154.688C58.7265 154.706 59.0266 154.633 59.2859 154.478C59.3828 154.412 59.4612 154.322 59.5137 154.217C59.5662 154.112 59.5911 153.995 59.5859 153.878C59.5884 153.782 59.5633 153.688 59.5137 153.606C59.464 153.524 59.3919 153.458 59.3059 153.416C59.0198 153.28 58.7173 153.181 58.4059 153.122C58.0757 153.057 57.7523 152.961 57.4399 152.835C57.2081 152.743 57.0041 152.592 56.8479 152.398C56.7003 152.195 56.6253 151.949 56.6349 151.698C56.6311 151.427 56.7134 151.161 56.8699 150.939C57.0361 150.709 57.2624 150.53 57.5239 150.421C57.827 150.293 58.1538 150.229 58.4829 150.235C58.7941 150.232 59.1038 150.279 59.3999 150.375C59.6649 150.46 59.9085 150.6 60.1139 150.788C60.1575 150.822 60.1928 150.866 60.2171 150.915C60.2413 150.965 60.2539 151.02 60.2539 151.075C60.255 151.151 60.2292 151.226 60.1809 151.285C60.1615 151.312 60.1359 151.335 60.1062 151.351C60.0765 151.367 60.0435 151.375 60.0099 151.376C59.926 151.367 59.8461 151.336 59.7789 151.285C59.5949 151.139 59.3912 151.02 59.1739 150.931C58.9547 150.854 58.7233 150.817 58.4909 150.823C58.1947 150.805 57.9005 150.882 57.6509 151.043C57.5541 151.112 57.4759 151.204 57.4235 151.311C57.3712 151.418 57.3462 151.536 57.3509 151.655C57.3459 151.756 57.3679 151.856 57.4147 151.945C57.4615 152.035 57.5313 152.11 57.6169 152.163C57.8834 152.311 58.1716 152.417 58.4709 152.475C58.8109 152.547 59.1452 152.644 59.4709 152.765C59.7045 152.851 59.9135 152.993 60.0799 153.178C60.2366 153.367 60.3175 153.608 60.3069 153.854C60.3112 154.121 60.2291 154.383 60.0729 154.6C59.9043 154.825 59.6765 154.998 59.4149 155.1C59.1047 155.224 58.7729 155.284 58.4389 155.278ZM62.9609 151.722C63.7729 151.722 64.1789 152.182 64.1789 153.101V154.922C64.1808 154.968 64.1729 155.013 64.1556 155.055C64.1384 155.098 64.1122 155.136 64.0789 155.167C64.0077 155.23 63.9148 155.263 63.8199 155.258C63.7735 155.26 63.7271 155.254 63.6833 155.238C63.6396 155.222 63.5993 155.198 63.5649 155.167C63.5332 155.135 63.5086 155.096 63.4925 155.054C63.4765 155.012 63.4695 154.967 63.4719 154.922V153.108C63.49 152.889 63.429 152.67 63.2999 152.492C63.2308 152.422 63.147 152.367 63.0546 152.333C62.9622 152.298 62.8633 152.284 62.7649 152.292C62.6384 152.286 62.5121 152.307 62.394 152.353C62.2759 152.399 62.1686 152.469 62.0789 152.558C61.9904 152.654 61.9219 152.766 61.8774 152.889C61.833 153.011 61.8134 153.142 61.8199 153.272V154.922C61.8222 154.967 61.815 155.012 61.7988 155.054C61.7826 155.097 61.7578 155.135 61.7259 155.167C61.6914 155.198 61.651 155.222 61.607 155.238C61.5631 155.254 61.5165 155.26 61.4699 155.258C61.375 155.263 61.2821 155.23 61.2109 155.167C61.1776 155.136 61.1515 155.098 61.1342 155.055C61.117 155.013 61.109 154.968 61.1109 154.922V150.588C61.1087 150.542 61.1165 150.497 61.1338 150.454C61.151 150.412 61.1774 150.374 61.2109 150.343C61.2838 150.28 61.3779 150.248 61.4739 150.252C61.5652 150.248 61.6545 150.279 61.7229 150.34C61.7546 150.37 61.7795 150.406 61.7957 150.447C61.8119 150.487 61.8192 150.53 61.8169 150.574V152.322C61.9279 152.131 62.0905 151.976 62.2859 151.874C62.495 151.769 62.7269 151.717 62.9609 151.722ZM66.5799 151.722C66.7631 151.707 66.9473 151.73 67.1213 151.789C67.2953 151.848 67.4555 151.942 67.5919 152.065C67.8352 152.356 67.9548 152.73 67.9249 153.108V154.922C67.9277 154.967 67.9211 155.013 67.9054 155.056C67.8897 155.098 67.8654 155.137 67.8339 155.17C67.7649 155.232 67.6743 155.263 67.5819 155.258C67.5365 155.261 67.491 155.254 67.4483 155.238C67.4057 155.222 67.3667 155.198 67.3339 155.166C67.3034 155.133 67.2798 155.095 67.2645 155.053C67.2492 155.011 67.2425 154.967 67.2449 154.922V154.662C67.1622 154.851 67.0223 155.009 66.8449 155.114C66.6595 155.221 66.4481 155.276 66.2339 155.271C66.0208 155.273 65.81 155.226 65.6179 155.134C65.4395 155.05 65.2881 154.918 65.1809 154.752C65.0763 154.589 65.0217 154.399 65.0239 154.206C65.0119 153.994 65.0805 153.785 65.2159 153.622C65.3916 153.458 65.6144 153.353 65.8529 153.322C66.2568 153.249 66.6667 153.216 67.0769 153.222H67.2339V153.022C67.2521 152.82 67.1947 152.618 67.0729 152.455C67.0036 152.391 66.9217 152.343 66.8325 152.313C66.7432 152.282 66.6487 152.271 66.5549 152.28C66.3987 152.279 66.2432 152.3 66.0929 152.343C65.93 152.392 65.7709 152.453 65.6169 152.525C65.5366 152.578 65.446 152.614 65.3509 152.63C65.3183 152.631 65.2859 152.625 65.2561 152.611C65.2263 152.598 65.1999 152.578 65.1789 152.553C65.1325 152.497 65.109 152.426 65.1129 152.353C65.1115 152.286 65.1323 152.221 65.1719 152.168C65.225 152.103 65.2907 152.049 65.3649 152.01C65.5463 151.915 65.7393 151.843 65.9389 151.797C66.1488 151.746 66.364 151.721 66.5799 151.722ZM66.3629 154.746C66.4806 154.75 66.5978 154.728 66.7065 154.683C66.8152 154.638 66.9128 154.569 66.9929 154.483C67.1597 154.299 67.2477 154.056 67.2379 153.808V153.622H67.1119C66.8311 153.617 66.5502 153.633 66.2719 153.671C66.1193 153.686 65.9738 153.743 65.8519 153.836C65.8084 153.879 65.7746 153.931 65.7529 153.988C65.7311 154.046 65.7219 154.107 65.7259 154.168C65.7237 154.246 65.7389 154.324 65.7704 154.395C65.8018 154.466 65.8488 154.53 65.9079 154.581C66.0333 154.691 66.1959 154.75 66.3629 154.746ZM71.3189 151.946C71.3417 151.882 71.385 151.828 71.4419 151.792C71.4932 151.76 71.5525 151.743 71.6129 151.743C71.7 151.742 71.7841 151.775 71.8479 151.834C71.8795 151.861 71.9048 151.894 71.922 151.931C71.9393 151.969 71.9481 152.01 71.9479 152.051C71.9481 152.097 71.9385 152.142 71.9199 152.184L70.5839 155.022C70.5536 155.094 70.5006 155.155 70.4329 155.194C70.3686 155.233 70.295 155.254 70.2199 155.254C70.1445 155.254 70.0705 155.233 70.0059 155.194C69.9386 155.154 69.886 155.094 69.8559 155.022L68.5189 152.184C68.4993 152.142 68.4897 152.097 68.4909 152.051C68.4914 152.009 68.5017 151.967 68.5212 151.929C68.5406 151.892 68.5686 151.859 68.6029 151.834C68.6735 151.775 68.7628 151.743 68.8549 151.743C68.9193 151.742 68.9823 151.761 69.0359 151.797C69.0894 151.832 69.1309 151.883 69.1549 151.943L70.2409 154.347L71.3189 151.946ZM75.1549 154.361C75.1859 154.36 75.2165 154.367 75.2445 154.381C75.2724 154.394 75.2969 154.414 75.3159 154.438C75.3603 154.495 75.3827 154.566 75.3789 154.638C75.3734 154.713 75.3469 154.785 75.3023 154.846C75.2577 154.906 75.1969 154.953 75.1269 154.981C74.9588 155.076 74.7789 155.149 74.5919 155.198C74.4099 155.246 74.2223 155.271 74.0339 155.271C73.7996 155.283 73.5652 155.248 73.3451 155.167C73.125 155.085 72.9239 154.96 72.7539 154.798C72.5927 154.625 72.4681 154.422 72.3875 154.2C72.3069 153.978 72.272 153.742 72.2849 153.506C72.2788 153.184 72.3498 152.864 72.4919 152.575C72.6211 152.314 72.8228 152.095 73.0729 151.945C73.3303 151.794 73.6244 151.716 73.9229 151.721C74.125 151.711 74.3267 151.745 74.5141 151.822C74.7015 151.898 74.87 152.014 75.0079 152.162C75.2876 152.493 75.4306 152.919 75.4079 153.352C75.4079 153.539 75.3239 153.632 75.1559 153.632H72.9919C73.0386 154.359 73.3859 154.722 74.0339 154.722C74.1862 154.725 74.3379 154.702 74.4819 154.652C74.6192 154.6 74.7528 154.54 74.8819 154.47C74.8959 154.461 74.9346 154.441 74.9979 154.411C75.046 154.383 75.0996 154.366 75.1549 154.361ZM73.9339 152.24C73.8133 152.235 73.6928 152.255 73.5806 152.3C73.4684 152.344 73.3669 152.412 73.2829 152.499C73.1088 152.701 73.0065 152.955 72.9919 153.222H74.7979C74.802 152.958 74.7168 152.7 74.5559 152.491C74.4777 152.405 74.3812 152.338 74.2735 152.295C74.1658 152.251 74.0498 152.232 73.9339 152.24Z" fill="#B8C0CC"/>
<path d="M98.0709 160.549H38.3979C37.4237 160.549 36.6339 161.339 36.6339 162.313V162.975C36.6339 163.949 37.4237 164.739 38.3979 164.739H98.0709C99.0451 164.739 99.8349 163.949 99.8349 162.975V162.313C99.8349 161.339 99.0451 160.549 98.0709 160.549Z" fill="#EAEFF4"/>
<path d="M137.465 79.7439H136.981V78.7739H136.01V79.7439H131.156V78.7739H130.186V79.7439H129.7C129.443 79.7447 129.196 79.8473 129.014 80.0292C128.832 80.2111 128.73 80.4576 128.729 80.7149V88.4819C128.73 88.739 128.833 88.9853 129.015 89.167C129.196 89.3487 129.443 89.4511 129.7 89.4519H137.465C137.722 89.4511 137.968 89.3487 138.15 89.167C138.332 88.9853 138.435 88.739 138.436 88.4819V80.7159C138.435 80.4585 138.333 80.2117 138.151 80.0295C137.969 79.8474 137.722 79.7447 137.465 79.7439ZM137.465 88.4819H129.7V82.1709H137.465V88.4819Z" fill="#5680E9"/>
<path d="M132.498 83.392H131.056V84.834H132.498V83.392Z" fill="#5680E9"/>
<path d="M129.57 128.813V125.973H130.554C130.719 125.969 130.883 126 131.036 126.063C131.162 126.115 131.271 126.202 131.35 126.313C131.426 126.428 131.465 126.563 131.462 126.701C131.464 126.827 131.432 126.952 131.368 127.061C131.303 127.167 131.21 127.251 131.098 127.305C131.242 127.353 131.367 127.446 131.454 127.571C131.542 127.701 131.587 127.856 131.582 128.013C131.585 128.164 131.542 128.312 131.458 128.437C131.37 128.561 131.249 128.658 131.108 128.717C130.939 128.787 130.757 128.821 130.574 128.817L129.57 128.813ZM130.042 126.389V127.141H130.51C130.633 127.148 130.754 127.113 130.854 127.041C130.894 127.007 130.926 126.964 130.947 126.915C130.968 126.867 130.977 126.814 130.974 126.761C130.976 126.709 130.967 126.657 130.946 126.609C130.924 126.561 130.892 126.518 130.852 126.485C130.753 126.413 130.632 126.377 130.51 126.385L130.042 126.389ZM130.042 128.397H130.554C130.696 128.407 130.838 128.367 130.954 128.283C130.999 128.245 131.035 128.197 131.059 128.142C131.083 128.088 131.093 128.028 131.09 127.969C131.093 127.908 131.082 127.848 131.058 127.792C131.034 127.737 130.997 127.688 130.95 127.649C130.833 127.567 130.692 127.527 130.55 127.537H130.042V128.397ZM132.978 128.873C132.833 128.874 132.69 128.847 132.556 128.791C132.429 128.738 132.313 128.659 132.218 128.559C132.119 128.458 132.042 128.338 131.99 128.207C131.935 128.066 131.908 127.916 131.91 127.765C131.908 127.615 131.936 127.467 131.99 127.327C132.041 127.196 132.118 127.076 132.216 126.975C132.313 126.875 132.431 126.796 132.56 126.743C132.696 126.688 132.843 126.66 132.99 126.661C133.135 126.66 133.278 126.688 133.412 126.743C133.539 126.796 133.654 126.875 133.75 126.975C133.847 127.076 133.923 127.195 133.974 127.325C134.029 127.465 134.056 127.615 134.054 127.765C134.056 127.916 134.028 128.066 133.974 128.207C133.923 128.338 133.846 128.458 133.748 128.559C133.65 128.659 133.533 128.738 133.404 128.791C133.269 128.846 133.124 128.874 132.978 128.873ZM132.99 128.457C133.097 128.457 133.201 128.426 133.29 128.367C133.382 128.306 133.456 128.221 133.504 128.121C133.56 128.011 133.59 127.889 133.59 127.765C133.591 127.643 133.563 127.522 133.508 127.413C133.459 127.313 133.383 127.228 133.29 127.167C133.199 127.107 133.091 127.076 132.982 127.077C132.873 127.076 132.765 127.107 132.674 127.167C132.582 127.228 132.508 127.312 132.46 127.411C132.406 127.521 132.379 127.643 132.382 127.765C132.38 127.888 132.406 128.01 132.46 128.121C132.508 128.221 132.582 128.306 132.674 128.367C132.767 128.429 132.878 128.46 132.99 128.457ZM135.454 128.873C135.309 128.874 135.166 128.847 135.032 128.791C134.903 128.738 134.787 128.659 134.69 128.559C134.594 128.457 134.52 128.338 134.47 128.207C134.415 128.066 134.388 127.916 134.39 127.765C134.388 127.615 134.416 127.467 134.47 127.327C134.521 127.196 134.598 127.076 134.696 126.975C134.793 126.875 134.911 126.796 135.04 126.743C135.176 126.688 135.323 126.66 135.47 126.661C135.614 126.66 135.757 126.688 135.89 126.743C136.017 126.796 136.132 126.875 136.228 126.975C136.325 127.076 136.401 127.195 136.452 127.325C136.507 127.465 136.534 127.615 136.532 127.765C136.534 127.916 136.506 128.066 136.452 128.207C136.401 128.338 136.324 128.458 136.226 128.559C136.128 128.659 136.011 128.738 135.882 128.791C135.746 128.846 135.601 128.874 135.454 128.873ZM135.462 128.457C135.571 128.459 135.679 128.427 135.77 128.367C135.862 128.306 135.936 128.221 135.984 128.121C136.037 128.01 136.064 127.888 136.062 127.765C136.064 127.643 136.037 127.523 135.984 127.413C135.935 127.314 135.861 127.23 135.77 127.169C135.679 127.109 135.571 127.078 135.462 127.079C135.353 127.078 135.245 127.109 135.154 127.169C135.062 127.23 134.988 127.314 134.94 127.413C134.886 127.523 134.859 127.645 134.862 127.767C134.86 127.89 134.886 128.012 134.94 128.123C134.988 128.223 135.062 128.308 135.154 128.369C135.245 128.429 135.353 128.459 135.462 128.457ZM136.938 128.813V125.837H137.398V127.585L138.254 126.721H138.814L137.874 127.649L138.91 128.813H138.31L137.398 127.757V128.813H136.938Z" fill="#5680E9"/>
<path d="M26.7799 140.431H152.302" stroke="#F2F2F2" stroke-miterlimit="10"/>
<path d="M137.465 114.525H136.981V113.555H136.01V114.525H131.156V113.555H130.186V114.525H129.7C129.443 114.526 129.196 114.628 129.014 114.81C128.832 114.992 128.73 115.239 128.729 115.496V123.263C128.73 123.52 128.833 123.766 129.015 123.948C129.196 124.13 129.443 124.232 129.7 124.233H137.465C137.722 124.232 137.968 124.13 138.15 123.948C138.332 123.766 138.435 123.52 138.436 123.263V115.496C138.435 115.239 138.333 114.992 138.151 114.81C137.969 114.628 137.722 114.526 137.465 114.525ZM137.465 123.263H129.7V116.952H137.465V123.263Z" fill="#5680E9"/>
<path d="M132.498 118.173H131.056V119.615H132.498V118.173Z" fill="#5680E9"/>
<path d="M129.57 164.339V161.499H130.554C130.719 161.495 130.883 161.526 131.036 161.589C131.162 161.641 131.271 161.728 131.35 161.839C131.426 161.954 131.465 162.089 131.462 162.227C131.464 162.353 131.432 162.478 131.368 162.587C131.303 162.693 131.21 162.777 131.098 162.831C131.242 162.879 131.367 162.972 131.454 163.097C131.542 163.227 131.587 163.382 131.582 163.539C131.585 163.69 131.542 163.838 131.458 163.963C131.37 164.087 131.249 164.184 131.108 164.243C130.939 164.313 130.757 164.347 130.574 164.343L129.57 164.339ZM130.042 161.915V162.667H130.51C130.633 162.674 130.754 162.639 130.854 162.567C130.894 162.533 130.926 162.49 130.947 162.441C130.968 162.393 130.977 162.34 130.974 162.287C130.976 162.235 130.967 162.183 130.946 162.135C130.924 162.087 130.892 162.044 130.852 162.011C130.753 161.939 130.632 161.903 130.51 161.911L130.042 161.915ZM130.042 163.923H130.554C130.696 163.933 130.838 163.893 130.954 163.809C130.999 163.771 131.035 163.723 131.059 163.668C131.083 163.614 131.093 163.554 131.09 163.495C131.093 163.434 131.082 163.374 131.058 163.318C131.034 163.263 130.997 163.214 130.95 163.175C130.833 163.093 130.692 163.053 130.55 163.063H130.042V163.923ZM132.978 164.399C132.833 164.4 132.69 164.373 132.556 164.317C132.429 164.264 132.313 164.185 132.218 164.085C132.119 163.984 132.042 163.864 131.99 163.733C131.935 163.592 131.908 163.442 131.91 163.291C131.908 163.141 131.936 162.993 131.99 162.853C132.041 162.722 132.118 162.602 132.216 162.501C132.313 162.401 132.431 162.322 132.56 162.269C132.696 162.214 132.843 162.186 132.99 162.187C133.135 162.186 133.278 162.214 133.412 162.269C133.539 162.322 133.654 162.401 133.75 162.501C133.847 162.602 133.923 162.721 133.974 162.851C134.029 162.991 134.056 163.141 134.054 163.291C134.056 163.442 134.028 163.592 133.974 163.733C133.923 163.864 133.846 163.984 133.748 164.085C133.65 164.185 133.533 164.264 133.404 164.317C133.269 164.372 133.124 164.4 132.978 164.399ZM132.99 163.983C133.097 163.983 133.201 163.952 133.29 163.893C133.382 163.832 133.456 163.747 133.504 163.647C133.56 163.537 133.59 163.415 133.59 163.291C133.591 163.169 133.563 163.048 133.508 162.939C133.459 162.839 133.383 162.754 133.29 162.693C133.199 162.633 133.091 162.602 132.982 162.603C132.873 162.602 132.765 162.633 132.674 162.693C132.582 162.754 132.508 162.838 132.46 162.937C132.406 163.047 132.379 163.169 132.382 163.291C132.38 163.414 132.406 163.536 132.46 163.647C132.508 163.747 132.582 163.832 132.674 163.893C132.767 163.955 132.878 163.986 132.99 163.983ZM135.454 164.399C135.309 164.4 135.166 164.373 135.032 164.317C134.903 164.264 134.787 164.185 134.69 164.085C134.594 163.983 134.52 163.864 134.47 163.733C134.415 163.592 134.388 163.442 134.39 163.291C134.388 163.141 134.416 162.993 134.47 162.853C134.521 162.722 134.598 162.602 134.696 162.501C134.793 162.401 134.911 162.322 135.04 162.269C135.176 162.214 135.323 162.186 135.47 162.187C135.614 162.186 135.757 162.214 135.89 162.269C136.017 162.322 136.132 162.401 136.228 162.501C136.325 162.602 136.401 162.721 136.452 162.851C136.507 162.991 136.534 163.141 136.532 163.291C136.534 163.442 136.506 163.592 136.452 163.733C136.401 163.864 136.324 163.984 136.226 164.085C136.128 164.185 136.011 164.264 135.882 164.317C135.746 164.372 135.601 164.4 135.454 164.399ZM135.462 163.983C135.571 163.985 135.679 163.953 135.77 163.893C135.862 163.832 135.936 163.747 135.984 163.647C136.037 163.536 136.064 163.414 136.062 163.291C136.064 163.169 136.037 163.049 135.984 162.939C135.935 162.84 135.861 162.756 135.77 162.695C135.679 162.635 135.571 162.604 135.462 162.605C135.353 162.604 135.245 162.635 135.154 162.695C135.062 162.756 134.988 162.84 134.94 162.939C134.886 163.049 134.859 163.171 134.862 163.293C134.86 163.416 134.886 163.538 134.94 163.649C134.988 163.749 135.062 163.834 135.154 163.895C135.245 163.955 135.353 163.985 135.462 163.983ZM136.938 164.339V161.363H137.398V163.111L138.254 162.247H138.814L137.874 163.175L138.91 164.339H138.31L137.398 163.283V164.339H136.938Z" fill="#5680E9"/>
<path d="M29.0659 175.958H150.017" stroke="#F2F2F2" stroke-miterlimit="10"/>
<path d="M137.465 150.052H136.981V149.082H136.01V150.052H131.156V149.082H130.186V150.052H129.7C129.443 150.053 129.196 150.155 129.014 150.337C128.832 150.519 128.73 150.766 128.729 151.023V158.788C128.73 159.045 128.832 159.292 129.014 159.474C129.196 159.656 129.443 159.758 129.7 159.759H137.465C137.722 159.758 137.969 159.656 138.151 159.474C138.333 159.292 138.435 159.045 138.436 158.788V151.023C138.435 150.766 138.333 150.519 138.151 150.337C137.969 150.155 137.722 150.053 137.465 150.052ZM137.465 158.789H129.7V152.476H137.465V158.789Z" fill="#5680E9"/>
<path d="M132.498 153.7H131.056V155.142H132.498V153.7Z" fill="#5680E9"/>
<path d="M53.3141 19.2586C53.6677 21.7335 51.6171 26.6125 46.243 26.3297C45.8895 21.0264 50.8392 18.905 53.3141 19.2586Z" stroke="#FE7C5F" stroke-width="1.4" stroke-linejoin="round"/>
<path d="M45.338 26.367C42.8631 26.7206 37.984 24.6699 38.2669 19.2959C43.5702 18.9424 45.6915 23.8921 45.338 26.367Z" stroke="#FE7C5F" stroke-width="1.4" stroke-linejoin="round"/>
<path d="M45.7663 13.3975C47.7663 15.3306 49.7663 21.6455 45.7663 26.285C41.7663 21.7744 43.7663 15.3306 45.7663 13.3975Z" fill="white" stroke="#FE7C5F" stroke-width="1.4" stroke-linejoin="round"/>
<path d="M37.8139 131.817C47.1588 131.817 56.1209 135.529 62.7288 142.137C69.3366 148.745 73.0489 157.707 73.0489 167.052C73.0489 176.397 69.3366 185.359 62.7288 191.967C56.1209 198.575 47.1588 202.287 37.8139 202.287H12.6458C11.3235 202.287 10.0141 202.027 8.79253 201.52C7.57091 201.014 6.46098 200.272 5.52612 199.337C4.59127 198.402 3.84982 197.292 3.34412 196.07C2.83842 194.848 2.57838 193.539 2.57886 192.216V167.052C2.57886 157.707 6.29111 148.745 12.899 142.137C19.5068 135.529 28.469 131.817 37.8139 131.817V131.817Z" fill="white"/>
<path d="M37.4955 131.871C39.3244 131.872 41.1505 132.015 42.9569 132.301C28.5905 131.965 9.06542 142.578 9.06542 166.942V197.174C9.06957 198.489 9.59375 199.749 10.5235 200.679C11.4533 201.609 12.7132 202.133 14.0281 202.137H7.38901C6.0741 202.133 4.81424 201.609 3.88445 200.679C2.95467 199.749 2.43048 198.489 2.42633 197.174V166.941C2.45347 157.648 6.15697 148.744 12.7278 142.173C19.2987 135.602 28.2029 131.899 37.4955 131.871Z" fill="#EAEFF4"/>
<path d="M36.9811 131.817C46.326 131.817 55.2882 135.529 61.896 142.137C68.5039 148.745 72.2161 157.707 72.2161 167.052C72.2161 176.397 68.5039 185.359 61.896 191.967C55.2882 198.575 46.326 202.287 36.9811 202.287H8.45781C6.67796 202.287 4.971 201.58 3.71234 200.322C2.45368 199.063 1.74641 197.356 1.74609 195.577L1.74609 167.052C1.74609 157.707 5.45834 148.745 12.0662 142.137C18.674 135.529 27.6362 131.817 36.9811 131.817V131.817Z" stroke="#B8C0CC" stroke-width="1.88" stroke-miterlimit="10"/>
<path d="M51.2361 154.734C51.5636 155.724 52.8737 157.154 54.8674 157.154C56.861 157.154 58.0517 155.724 58.4986 154.734" stroke="#B8C0CC" stroke-width="1.8833" stroke-miterlimit="10" stroke-linecap="round" stroke-linejoin="round"/>
</svg>
