<svg width="118" height="136" viewBox="0 0 118 136" fill="none" xmlns="http://www.w3.org/2000/svg">
<g clip-path="url(#clip0)">
<path d="M110.928 74.804V53.1586C110.928 24.3511 87.4074 0.795776 58.6424 0.795776C30.0364 0.795776 6.67474 24.1919 6.67474 52.8402C6.67474 61.1164 8.58181 68.9151 12.0781 75.9181L55.0667 86.7408L110.928 74.804Z" fill="white"/>
<path d="M111.166 52.8403C111.166 24.2715 87.8047 0.875366 59.2781 0.875366C56.497 0.875366 53.7953 1.1141 51.1731 1.512C72.3892 1.03452 101.313 16.7115 101.313 52.8403V62.6284" fill="#EAEFF4"/>
<path d="M11.204 73.9286C8.34344 67.4827 6.75421 60.3206 6.75421 52.7607C6.75421 24.1123 30.1158 0.716187 58.7219 0.716187C87.4869 0.716187 111.007 21.9637 111.007 50.7712" stroke="#B8C0CC" stroke-width="1.8833" stroke-miterlimit="10" stroke-linecap="round" stroke-linejoin="round"/>
<path d="M4.5293 61.7531L5.40337 122.233L109.577 136L112.835 61.8326C112.835 61.8326 82.5603 88.3323 60.9468 88.3323" fill="white"/>
<path d="M58.7219 87.6161C58.7219 87.6161 22.3286 82.1252 4.84714 65.9707L5.08552 61.8326C5.00606 61.9122 18.1172 76.7139 58.7219 87.6161Z" fill="#EAEFF4"/>
<path d="M4.5293 61.7531C4.5293 61.7531 5.40337 118.095 5.40337 122.233C5.40337 126.371 16.4485 131.862 33.6916 131.862" stroke="#B8C0CC" stroke-width="1.8833" stroke-miterlimit="10" stroke-linecap="round" stroke-linejoin="round"/>
<path d="M60.3111 87.5366C15.1771 75.0427 0.715149 59.684 0.715149 53.079C0.715149 46.474 6.99259 47.031 6.99259 47.031L6.91313 51.3283C6.91313 59.9228 31.7845 75.361 65.8734 84.1943" fill="white"/>
<path d="M60.3111 87.5366C15.1771 75.0427 0.715149 59.684 0.715149 53.079C0.715149 46.474 6.99259 47.031 6.99259 47.031L6.91313 51.3283C6.91313 59.9228 31.7845 75.361 65.8734 84.1943" stroke="#B8C0CC" stroke-width="1.8833" stroke-miterlimit="10" stroke-linecap="round" stroke-linejoin="round"/>
<path d="M34.4067 111.967C37.5057 95.3352 117.285 71.382 117.285 52.7606C117.285 45.3598 110.69 46.2352 110.69 46.2352L111.087 50.1345C111.087 63.0263 57.0532 88.0936 46.7232 95.0965C32.2613 104.964 30.9899 121.596 34.0094 133.692C97.8963 133.692 111.087 128.281 111.087 120.482C111.087 112.683 112.676 61.2755 112.676 61.2755" stroke="#B8C0CC" stroke-width="1.8833" stroke-miterlimit="10" stroke-linecap="round" stroke-linejoin="round"/>
<ellipse opacity="0.1" cx="49" cy="37" rx="30" ry="21" fill="#FE7C5F"/>
<circle cx="36" cy="36" r="8" fill="white"/>
<circle cx="60" cy="36" r="8" fill="white"/>
<path d="M31.5461 35.2534C31.5461 37.4816 33.3737 39.3119 35.5987 39.3119C37.8236 39.3119 39.6512 37.4816 39.6512 35.2534" stroke="#B8C0CC" stroke-width="1.8833" stroke-miterlimit="10" stroke-linecap="round" stroke-linejoin="round"/>
<path d="M55.5434 35.2534C55.5434 37.4816 57.371 39.3119 59.596 39.3119C61.8209 39.3119 63.6485 37.4816 63.6485 35.2534" stroke="#B8C0CC" stroke-width="1.8833" stroke-miterlimit="10" stroke-linecap="round" stroke-linejoin="round"/>
<path d="M96.6621 107.229C96.7069 105.164 95.0715 103.453 93.0093 103.409C90.9471 103.364 89.239 105.001 89.1942 107.067C89.1494 109.132 90.7848 110.843 92.847 110.887C94.9092 110.932 96.6173 109.294 96.6621 107.229Z" fill="#B8C0CC"/>
<path d="M94.4794 81.8069C94.4794 81.8069 95.5919 92.3113 93.2875 107.113" stroke="#B8C0CC" stroke-width="1.8833" stroke-miterlimit="10" stroke-linecap="round" stroke-linejoin="round"/>
</g>
<defs>
<clipPath id="clip0">
<rect width="118" height="136" fill="white"/>
</clipPath>
</defs>
</svg>
