<svg width="219" height="137" viewBox="0 0 219 137" fill="none" xmlns="http://www.w3.org/2000/svg">
<path d="M50.576 1C57.0145 0.999869 63.39 2.26792 69.3385 4.73175C75.287 7.19558 80.6919 10.8069 85.2447 15.3596C89.7974 19.9123 93.4089 25.3172 95.8729 31.2656C98.3368 37.214 99.605 43.5895 99.605 50.028C99.6051 56.5104 98.3284 62.9293 95.8478 68.9183C93.3672 74.9073 89.7312 80.3491 85.1475 84.9329C80.5638 89.5166 75.1222 93.1527 69.1332 95.6334C63.1443 98.1142 56.7254 99.391 50.243 99.391H9.16199C8.11824 99.391 7.08472 99.1854 6.12042 98.786C5.15613 98.3866 4.27994 97.8011 3.5419 97.0631C2.80386 96.3251 2.21842 95.4489 1.81899 94.4846C1.41957 93.5203 1.21399 92.4867 1.21399 91.443L1.21399 50.362C1.21399 37.2704 6.41461 24.715 15.6718 15.4578C24.929 6.20062 37.4844 1 50.576 1V1Z" fill="white"/>
<path d="M49.964 1.0769C52.5174 1.07715 55.0669 1.2778 57.589 1.67694C37.531 1.20594 10.271 16.0249 10.271 50.0419V92.2519C10.2763 94.0888 11.0083 95.8489 12.3072 97.1478C13.6061 98.4466 15.3661 99.1786 17.203 99.1839H7.93103C6.09435 99.1784 4.33447 98.4462 3.03583 97.1474C1.73718 95.8486 1.00528 94.0886 1 92.2519V50.0419C1.03773 37.0674 6.20848 24.635 15.3828 15.4604C24.5571 6.28592 36.9894 1.1149 49.964 1.0769Z" fill="#EAEFF4"/>
<path d="M50.576 1C57.0145 0.999869 63.39 2.26792 69.3385 4.73175C75.287 7.19558 80.6919 10.8069 85.2447 15.3596C89.7974 19.9123 93.4089 25.3171 95.8729 31.2656C98.3368 37.214 99.605 43.5895 99.605 50.028V50.028C99.6051 56.5104 98.3284 62.9293 95.8478 68.9183C93.3672 74.9073 89.7312 80.3491 85.1475 84.9329C80.5638 89.5166 75.1222 93.1527 69.1332 95.6334C63.1443 98.1142 56.7254 99.391 50.243 99.391H9.16199C8.11824 99.391 7.08472 99.1854 6.12042 98.786C5.15613 98.3866 4.27994 97.8011 3.5419 97.0631C2.80386 96.325 2.21842 95.4489 1.81899 94.4846C1.41957 93.5203 1.21399 92.4867 1.21399 91.443L1.21399 50.362C1.21399 37.2704 6.41461 24.715 15.6718 15.4578C24.929 6.20062 37.4844 1 50.576 1V1Z" stroke="#B8C0CC" stroke-width="1.883" stroke-linecap="round" stroke-linejoin="round"/>
<path d="M53.329 40.6909C53.329 39.4728 53.8129 38.3045 54.6743 37.4432C55.5356 36.5818 56.7039 36.0979 57.922 36.0979C59.1401 36.0979 60.3084 36.5818 61.1697 37.4432C62.0311 38.3045 62.515 39.4728 62.515 40.6909" stroke="#B8C0CC" stroke-width="1.883" stroke-linecap="round" stroke-linejoin="round"/>
<path d="M74.682 40.6909C74.682 39.4728 75.1659 38.3045 76.0273 37.4432C76.8886 36.5818 78.0569 36.0979 79.275 36.0979C80.4932 36.0979 81.6614 36.5818 82.5228 37.4432C83.3841 38.3045 83.868 39.4728 83.868 40.6909" stroke="#B8C0CC" stroke-width="1.883" stroke-linecap="round" stroke-linejoin="round"/>
<path d="M124.288 50.13H65.146C62.4244 50.13 60.218 52.3363 60.218 55.058V104.78C60.218 107.502 62.4244 109.708 65.146 109.708H124.288C127.01 109.708 129.216 107.502 129.216 104.78V55.058C129.216 52.3363 127.01 50.13 124.288 50.13Z" fill="white" stroke="#B8C0CC" stroke-width="1.883" stroke-linecap="round" stroke-linejoin="round"/>
<path d="M81.386 73.238H78.467C75.9668 73.238 73.94 75.2648 73.94 77.765V80.684C73.94 83.1842 75.9668 85.211 78.467 85.211H81.386C83.8862 85.211 85.913 83.1842 85.913 80.684V77.765C85.913 75.2648 83.8862 73.238 81.386 73.238Z" fill="#EAEFF4"/>
<path d="M81.386 87.782H78.467C75.9668 87.782 73.94 89.8088 73.94 92.309V95.228C73.94 97.7282 75.9668 99.755 78.467 99.755H81.386C83.8862 99.755 85.913 97.7282 85.913 95.228V92.309C85.913 89.8088 83.8862 87.782 81.386 87.782Z" fill="#EAEFF4"/>
<path d="M96.824 73.238H93.905C91.4048 73.238 89.378 75.2648 89.378 77.765V80.684C89.378 83.1842 91.4048 85.211 93.905 85.211H96.824C99.3242 85.211 101.351 83.1842 101.351 80.684V77.765C101.351 75.2648 99.3242 73.238 96.824 73.238Z" fill="#EAEFF4"/>
<path d="M96.824 87.782H93.905C91.4048 87.782 89.378 89.8088 89.378 92.309V95.228C89.378 97.7282 91.4048 99.755 93.905 99.755H96.824C99.3242 99.755 101.351 97.7282 101.351 95.228V92.309C101.351 89.8088 99.3242 87.782 96.824 87.782Z" fill="#EAEFF4"/>
<path d="M113.929 73.238H111.01C108.51 73.238 106.483 75.2648 106.483 77.765V80.684C106.483 83.1842 108.51 85.211 111.01 85.211H113.929C116.429 85.211 118.456 83.1842 118.456 80.684V77.765C118.456 75.2648 116.429 73.238 113.929 73.238Z" fill="#EAEFF4"/>
<path d="M113.929 87.782H111.01C108.51 87.782 106.483 89.8088 106.483 92.309V95.228C106.483 97.7282 108.51 99.755 111.01 99.755H113.929C116.429 99.755 118.456 97.7282 118.456 95.228V92.309C118.456 89.8088 116.429 87.782 113.929 87.782Z" fill="#EAEFF4"/>
<path d="M63.099 72.465L76.393 72.4839C76.7671 72.4845 77.1258 72.6335 77.3901 72.8983C77.6545 73.163 77.803 73.5219 77.803 73.896L77.777 93.107C77.7767 93.2922 77.74 93.4755 77.6689 93.6464C77.5978 93.8174 77.4937 93.9726 77.3626 94.1034C77.2315 94.2341 77.0759 94.3378 76.9047 94.4084C76.7336 94.479 76.5502 94.5152 76.365 94.515L63.071 94.4969" fill="#6BBEA1"/>
<path d="M70.1006 72.4761L70.071 94.5081L73.911 94.5132L73.9406 72.4812L70.1006 72.4761Z" fill="#498679"/>
<path opacity="0.5" d="M64.404 85.627C65.1668 85.6742 65.8827 86.0108 66.4058 86.568C66.9288 87.1252 67.2195 87.861 67.2184 88.6252C67.2174 89.3895 66.9248 90.1245 66.4003 90.6803C65.8757 91.2361 65.1589 91.5707 64.396 91.616" fill="#498679"/>
<path opacity="0.5" d="M64.408 82.7469C65.1708 82.7942 65.8868 83.1308 66.4098 83.688C66.9328 84.2452 67.2235 84.981 67.2225 85.7452C67.2215 86.5095 66.9288 87.2445 66.4043 87.8003C65.8798 88.3561 65.1629 88.6907 64.4 88.736" fill="#498679"/>
<path d="M101.071 109.708H87.658C86.7374 109.708 85.991 110.454 85.991 111.375V115.975C85.991 116.896 86.7374 117.642 87.658 117.642H101.071C101.992 117.642 102.738 116.896 102.738 115.975V111.375C102.738 110.454 101.992 109.708 101.071 109.708Z" fill="white" stroke="#B8C0CC" stroke-width="1.883" stroke-linecap="round" stroke-linejoin="round"/>
<path d="M60.913 68.6379H59.523C58.3317 68.6379 57.366 69.6037 57.366 70.7949V95.2159C57.366 96.4072 58.3317 97.3729 59.523 97.3729H60.913C62.1043 97.3729 63.07 96.4072 63.07 95.2159V70.7949C63.07 69.6037 62.1043 68.6379 60.913 68.6379Z" fill="white" stroke="#B8C0CC" stroke-width="1.883" stroke-linecap="round" stroke-linejoin="round"/>
<path d="M81.858 117.643H107.081" stroke="#B8C0CC" stroke-width="1.883" stroke-linecap="round" stroke-linejoin="round"/>
<path d="M73.599 56.8419C73.6663 56.7539 73.7528 56.6823 73.8519 56.6328C73.951 56.5832 74.0602 56.5569 74.171 56.5559C74.2747 56.5564 74.3772 56.5775 74.4727 56.618C74.5681 56.6586 74.6546 56.7177 74.727 56.7919C74.8041 56.8601 74.866 56.9438 74.9086 57.0375C74.9512 57.1313 74.9734 57.233 74.974 57.3359C74.9706 57.5282 74.8961 57.7123 74.765 57.8529L72.355 60.7139V63.5849C72.3631 63.7024 72.3456 63.8203 72.3039 63.9304C72.2621 64.0406 72.1969 64.1403 72.113 64.2229C71.9482 64.3698 71.7337 64.4485 71.513 64.4429C71.2836 64.4523 71.0592 64.3735 70.886 64.2229C70.802 64.1403 70.7369 64.0405 70.6952 63.9304C70.6534 63.8202 70.6359 63.7024 70.644 63.5849V60.7129L68.257 57.8529C68.1898 57.7848 68.1367 57.704 68.1009 57.6153C68.065 57.5266 68.047 57.4316 68.0479 57.3359C68.0552 57.131 68.14 56.9365 68.2851 56.7917C68.4303 56.6469 68.6251 56.5626 68.83 56.5559C68.9408 56.5569 69.05 56.5832 69.1491 56.6328C69.2482 56.6823 69.3347 56.7539 69.402 56.8419L71.502 59.4039L73.599 56.8419ZM77.349 64.4649C76.8256 64.476 76.3078 64.3567 75.842 64.1179C75.4199 63.8967 75.0721 63.5562 74.842 63.1389C74.6101 62.6764 74.4894 62.1663 74.4894 61.6489C74.4894 61.1316 74.6101 60.6214 74.842 60.1589C75.0714 59.7424 75.4195 59.4033 75.842 59.1849C76.3127 58.9603 76.8278 58.8436 77.3495 58.8436C77.8711 58.8436 78.3862 58.9603 78.857 59.1849C79.2794 59.4033 79.6275 59.7424 79.857 60.1589C80.0884 60.6217 80.209 61.132 80.209 61.6494C80.209 62.1668 80.0884 62.6771 79.857 63.1399C79.6268 63.5572 79.2791 63.8976 78.857 64.1189C78.391 64.358 77.8726 64.477 77.349 64.4649ZM77.349 63.1999C78.1563 63.1999 78.5597 62.6829 78.559 61.6489C78.5898 61.2359 78.4791 60.8246 78.245 60.4829C78.1353 60.3531 77.9968 60.2507 77.8406 60.1838C77.6843 60.117 77.5146 60.0875 77.345 60.0979C76.5377 60.0979 76.1343 60.6149 76.135 61.6489C76.1357 62.6829 76.5403 63.1999 77.349 63.1999ZM85.588 58.8659C85.8107 58.854 86.0293 58.9289 86.198 59.0749C86.2744 59.1485 86.3342 59.2377 86.3731 59.3364C86.4121 59.435 86.4295 59.5409 86.424 59.6469V63.6839C86.4278 63.7873 86.4085 63.8903 86.3677 63.9854C86.3269 64.0805 86.2655 64.1654 86.188 64.2339C86.0179 64.3781 85.7997 64.4528 85.577 64.4429C85.3709 64.4529 85.1693 64.381 85.016 64.2429C84.9458 64.1747 84.8909 64.0924 84.8548 64.0013C84.8188 63.9103 84.8025 63.8127 84.807 63.7149V63.6069C84.648 63.8765 84.418 64.0973 84.142 64.2449C83.7446 64.436 83.2995 64.5049 82.8629 64.4432C82.4263 64.3814 82.0178 64.1917 81.689 63.8979C81.3198 63.4074 81.142 62.7991 81.189 62.1869V59.6469C81.1835 59.5409 81.2009 59.435 81.2398 59.3364C81.2788 59.2377 81.3385 59.1485 81.415 59.0749C81.584 58.9289 81.803 58.854 82.026 58.8659C82.2455 58.8549 82.4608 58.9298 82.626 59.0749C82.7006 59.1495 82.7588 59.2391 82.7967 59.3376C82.8346 59.4361 82.8514 59.5415 82.846 59.6469V62.2209C82.8238 62.4756 82.8949 62.7297 83.046 62.9359C83.1265 63.0175 83.2239 63.0805 83.3314 63.1204C83.4389 63.1603 83.5538 63.1762 83.668 63.1669C83.8153 63.1723 83.9619 63.1455 84.0978 63.0886C84.2337 63.0316 84.3556 62.9457 84.455 62.8369C84.6629 62.5965 84.7703 62.2853 84.755 61.9679V59.6469C84.7496 59.5415 84.7663 59.4361 84.8042 59.3376C84.8421 59.2391 84.9003 59.1495 84.975 59.0749C85.0583 59.0014 85.1555 58.9452 85.2607 58.9093C85.3659 58.8734 85.4771 58.8587 85.588 58.8659ZM90.9229 58.8659C91.0155 58.854 91.1096 58.8612 91.1993 58.8868C91.2891 58.9124 91.3726 58.956 91.445 59.0149C91.5122 59.081 91.5644 59.161 91.5977 59.2492C91.631 59.3374 91.6447 59.4319 91.638 59.5259C91.6457 59.623 91.6342 59.7205 91.604 59.813C91.5738 59.9056 91.5255 59.9912 91.462 60.0649C91.2831 60.2058 91.0626 60.2832 90.835 60.2849L90.505 60.3179C90.34 60.3237 90.1777 60.362 90.0276 60.4306C89.8774 60.4992 89.7423 60.5969 89.63 60.7179C89.4432 60.9597 89.3476 61.2597 89.36 61.5649V63.6649C89.3673 63.7736 89.3499 63.8825 89.309 63.9835C89.2681 64.0845 89.2049 64.1749 89.124 64.2479C88.9584 64.3837 88.749 64.4548 88.5349 64.4479C88.3173 64.4561 88.1042 64.385 87.935 64.2479C87.8536 64.1747 87.79 64.0838 87.7491 63.9822C87.7082 63.8807 87.691 63.7711 87.6989 63.6619V59.6249C87.6931 59.5191 87.7119 59.4133 87.7539 59.3159C87.7959 59.2186 87.86 59.1323 87.941 59.0639C88.1052 58.9298 88.312 58.8589 88.524 58.8639C88.725 58.8568 88.9214 58.9257 89.0739 59.0569C89.148 59.1239 89.2062 59.2067 89.2443 59.2991C89.2824 59.3914 89.2993 59.4912 89.294 59.5909V59.8909C89.413 59.592 89.6228 59.3381 89.894 59.1649C90.1568 58.997 90.4577 58.8979 90.769 58.8769L90.9229 58.8659ZM97.776 64.4659C97.2526 64.4766 96.7347 64.357 96.269 64.1179C95.8469 63.8967 95.4991 63.5562 95.269 63.1389C95.0375 62.6761 94.917 62.1659 94.917 61.6484C94.917 61.131 95.0375 60.6207 95.269 60.1579C95.4984 59.7413 95.8465 59.4023 96.269 59.1839C96.7396 58.9594 97.2545 58.8428 97.776 58.8428C98.2974 58.8428 98.8123 58.9594 99.283 59.1839C99.7055 59.4023 100.054 59.7413 100.283 60.1579C100.514 60.6207 100.635 61.131 100.635 61.6484C100.635 62.1659 100.514 62.6761 100.283 63.1389C100.053 63.5562 99.7051 63.8967 99.283 64.1179C98.8172 64.3567 98.2993 64.476 97.776 64.4649V64.4659ZM97.776 63.2009C98.5833 63.2009 98.9867 62.6839 98.986 61.6499C99.0172 61.237 98.9068 60.8257 98.6729 60.4839C98.5633 60.354 98.4248 60.2517 98.2686 60.1848C98.1123 60.118 97.9426 60.0886 97.773 60.0989C96.9657 60.0989 96.5623 60.6159 96.563 61.6499C96.5636 62.6839 96.968 63.2006 97.776 63.1999V63.2009ZM104.876 58.8669C104.969 58.8551 105.063 58.8621 105.152 58.8878C105.242 58.9134 105.326 58.957 105.398 59.0159C105.465 59.082 105.517 59.162 105.551 59.2502C105.584 59.3384 105.598 59.4328 105.591 59.5269C105.599 59.6239 105.587 59.7215 105.557 59.814C105.527 59.9065 105.478 59.9922 105.415 60.0659C105.236 60.2068 105.016 60.2841 104.788 60.2859L104.458 60.3189C104.293 60.3246 104.131 60.3629 103.981 60.4316C103.83 60.5002 103.695 60.5979 103.583 60.7189C103.396 60.9608 103.301 61.2606 103.313 61.5659V63.6659C103.32 63.7746 103.303 63.8836 103.262 63.9846C103.221 64.0855 103.158 64.1759 103.077 64.2489C102.911 64.3848 102.702 64.4559 102.488 64.4489C102.27 64.457 102.057 64.386 101.888 64.2489C101.807 64.1759 101.744 64.0855 101.703 63.9846C101.662 63.8836 101.645 63.7746 101.652 63.6659V59.6249C101.646 59.5191 101.665 59.4133 101.707 59.3159C101.749 59.2186 101.813 59.1323 101.894 59.0639C102.058 58.9298 102.265 58.8589 102.477 58.8639C102.678 58.8568 102.874 58.9257 103.027 59.0569C103.101 59.1239 103.159 59.2067 103.197 59.2991C103.235 59.3914 103.252 59.4912 103.247 59.5909V59.8909C103.366 59.592 103.576 59.3381 103.847 59.1649C104.11 58.998 104.411 58.8997 104.722 58.8789L104.876 58.8669ZM110.563 56.5669C110.789 56.5561 111.011 56.6307 111.184 56.7759C111.262 56.8445 111.323 56.9293 111.364 57.0244C111.405 57.1195 111.424 57.2225 111.42 57.3259V63.6619C111.424 63.7669 111.407 63.8717 111.368 63.9694C111.329 64.0671 111.27 64.1555 111.195 64.2289C111.026 64.3679 110.814 64.4438 110.595 64.4438C110.376 64.4438 110.164 64.3679 109.995 64.2289C109.92 64.1555 109.861 64.0671 109.822 63.9694C109.783 63.8717 109.766 63.7669 109.77 63.6619V63.5769C109.608 63.8563 109.37 64.0836 109.083 64.2319C108.772 64.3932 108.426 64.4746 108.076 64.4689C107.637 64.4745 107.206 64.3484 106.839 64.1069C106.468 63.8598 106.175 63.5132 105.992 63.1069C105.784 62.6422 105.681 62.1371 105.692 61.6279C105.68 61.1219 105.783 60.6198 105.992 60.1589C106.17 59.7578 106.463 59.4187 106.835 59.1846C107.206 58.9504 107.638 58.8319 108.077 58.8439C108.424 58.8384 108.767 58.9176 109.077 59.0749C109.365 59.2195 109.604 59.4451 109.765 59.7239V57.2929C109.761 57.1942 109.778 57.0957 109.817 57.0045C109.855 56.9133 109.912 56.8315 109.985 56.7649C110.145 56.6299 110.349 56.5593 110.558 56.5669H110.563ZM108.563 63.1999C108.734 63.2103 108.905 63.1794 109.062 63.1097C109.218 63.0401 109.356 62.9339 109.463 62.7999C109.693 62.4622 109.803 62.0575 109.777 61.6499C109.804 61.2441 109.693 60.8412 109.463 60.5059C109.356 60.3724 109.218 60.2665 109.061 60.1969C108.905 60.1273 108.734 60.0961 108.563 60.1059C108.393 60.0968 108.223 60.1274 108.067 60.1951C107.911 60.2627 107.773 60.3657 107.663 60.4959C107.43 60.8239 107.317 61.2224 107.344 61.6239C107.319 62.0352 107.431 62.4432 107.663 62.7839C107.768 62.9206 107.905 63.0298 108.062 63.1022C108.219 63.1747 108.391 63.2081 108.563 63.1999ZM117.033 62.7709C117.102 62.7696 117.171 62.7848 117.233 62.8154C117.296 62.846 117.35 62.8911 117.391 62.9469C117.487 63.0771 117.535 63.2363 117.528 63.3979C117.528 63.5222 117.49 63.6434 117.418 63.7449C117.337 63.857 117.232 63.9491 117.11 64.0139C116.834 64.1558 116.542 64.2649 116.241 64.3389C115.943 64.4191 115.636 64.4617 115.328 64.4659C114.796 64.479 114.269 64.362 113.793 64.1249C113.368 63.9076 113.017 63.5685 112.786 63.1509C112.542 62.693 112.421 62.1796 112.434 61.6609C112.424 61.1522 112.541 60.6491 112.774 60.1969C112.99 59.7816 113.317 59.4351 113.72 59.1969C114.137 58.9551 114.613 58.8317 115.095 58.8399C115.547 58.8303 115.993 58.9426 116.387 59.1649C116.759 59.3826 117.059 59.7036 117.251 60.0889C117.464 60.5242 117.57 61.0043 117.559 61.4889C117.568 61.6218 117.527 61.7533 117.443 61.8569C117.401 61.9003 117.351 61.9341 117.295 61.956C117.239 61.9779 117.179 61.9874 117.119 61.9839H114.039C114.055 62.3354 114.197 62.6695 114.439 62.9249C114.696 63.1338 115.022 63.2378 115.352 63.2159C115.545 63.2189 115.738 63.1929 115.924 63.1389C116.115 63.0798 116.302 63.01 116.485 62.9299C116.585 62.8859 116.685 62.8479 116.785 62.8149C116.864 62.7873 116.947 62.7724 117.031 62.7709H117.033ZM115.139 59.9879C114.998 59.9817 114.858 60.0053 114.727 60.0569C114.597 60.1086 114.478 60.1873 114.38 60.2879C114.172 60.533 114.052 60.8407 114.039 61.1619H116.162C116.165 60.8443 116.062 60.5348 115.87 60.2819C115.777 60.181 115.663 60.1023 115.535 60.0514C115.408 60.0005 115.271 59.9788 115.134 59.9879H115.139ZM121.783 58.8659C121.876 58.854 121.97 58.8612 122.059 58.8868C122.149 58.9124 122.233 58.956 122.305 59.0149C122.372 59.081 122.424 59.161 122.458 59.2492C122.491 59.3374 122.505 59.4319 122.498 59.5259C122.506 59.623 122.494 59.7205 122.464 59.813C122.434 59.9056 122.386 59.9912 122.322 60.0649C122.143 60.2058 121.923 60.2832 121.695 60.2849L121.365 60.3179C121.2 60.3237 121.038 60.362 120.888 60.4306C120.737 60.4992 120.602 60.5969 120.49 60.7179C120.303 60.9597 120.208 61.2597 120.22 61.5649V63.6649C120.227 63.7736 120.21 63.8825 120.169 63.9835C120.128 64.0845 120.065 64.1749 119.984 64.2479C119.818 64.3837 119.609 64.4548 119.395 64.4479C119.177 64.4561 118.964 64.385 118.795 64.2479C118.714 64.1749 118.651 64.0845 118.61 63.9835C118.569 63.8825 118.552 63.7736 118.559 63.6649V59.6249C118.553 59.5191 118.572 59.4133 118.614 59.3159C118.656 59.2186 118.72 59.1323 118.801 59.0639C118.965 58.9298 119.172 58.8589 119.384 58.8639C119.585 58.8568 119.781 58.9257 119.934 59.0569C120.008 59.1239 120.066 59.2067 120.104 59.2991C120.142 59.3914 120.159 59.4912 120.154 59.5909V59.8909C120.273 59.592 120.483 59.3381 120.754 59.1649C121.017 58.998 121.318 58.8997 121.629 58.8789L121.783 58.8659Z" fill="#B8C0CC"/>
<path d="M210.103 135.474H169.174C156.131 135.474 143.622 130.293 134.399 121.07C125.176 111.847 119.995 99.3381 119.995 86.295C119.995 79.8803 121.258 73.5284 123.713 67.6019C126.168 61.6755 129.766 56.2906 134.302 51.7547C138.838 47.2188 144.222 43.6207 150.149 41.166C156.075 38.7112 162.427 37.4479 168.842 37.448C181.885 37.448 194.394 42.6293 203.617 51.8522C212.84 61.0751 218.021 73.5839 218.021 86.627V127.556C218.021 129.656 217.187 131.67 215.702 133.155C214.217 134.64 212.203 135.474 210.103 135.474V135.474Z" fill="white"/>
<path d="M169.453 37.5239C166.908 37.525 164.367 37.7256 161.853 38.1239C181.837 37.6549 208.995 52.4189 208.995 86.3099V128.364C208.99 130.193 208.261 131.945 206.969 133.239C205.676 134.533 203.924 135.262 202.095 135.269H211.331C213.161 135.264 214.914 134.534 216.208 133.241C217.502 131.947 218.231 130.194 218.237 128.364V86.3069C218.199 73.3803 213.047 60.9939 203.907 51.8535C194.766 42.713 182.38 37.5614 169.453 37.5239Z" fill="#8860D0" fill-opacity="0.12"/>
<path d="M210.103 135.474H169.174C156.131 135.474 143.622 130.293 134.399 121.07C125.176 111.847 119.995 99.3381 119.995 86.295V86.295C119.995 79.8803 121.258 73.5284 123.713 67.6019C126.168 61.6755 129.766 56.2906 134.302 51.7547C138.838 47.2188 144.222 43.6207 150.149 41.166C156.075 38.7112 162.427 37.4479 168.842 37.448V37.448C181.885 37.448 194.394 42.6293 203.617 51.8522C212.84 61.075 218.021 73.5839 218.021 86.627V127.556C218.021 129.656 217.187 131.67 215.702 133.155C214.217 134.64 212.203 135.474 210.103 135.474V135.474Z" stroke="#FE7C5F" stroke-width="1.883" stroke-linecap="round" stroke-linejoin="round"/>
<path d="M145.405 71.846C145.632 69.0423 144.395 66.6546 142.643 66.5128C140.891 66.3711 139.287 68.5289 139.06 71.3325C138.833 74.1362 140.069 76.5239 141.822 76.6656C143.574 76.8074 145.178 74.6496 145.405 71.846Z" fill="#FE7C5F"/>
<path d="M79.65 74.343C80.543 74.343 81.4159 74.6078 82.1584 75.1039C82.9009 75.6 83.4796 76.3052 83.8213 77.1302C84.1631 77.9552 84.2525 78.863 84.0783 79.7389C83.904 80.6147 83.474 81.4192 82.8426 82.0506C82.2112 82.682 81.4067 83.1121 80.5308 83.2863C79.655 83.4605 78.7472 83.3711 77.9222 83.0293C77.0972 82.6876 76.392 82.1089 75.8959 81.3664C75.3998 80.6239 75.135 79.751 75.135 78.858C75.135 77.6606 75.6107 76.5122 76.4574 75.6654C77.3041 74.8187 78.4526 74.343 79.65 74.343V74.343Z" fill="#FE7C5F"/>
<path d="M79.65 78.8579C79.65 78.8579 108.65 110.958 158.075 100.596" stroke="#FE7C5F" stroke-width="1.883" stroke-linecap="round" stroke-linejoin="round"/>
</svg>
