<svg width="61" height="60" viewBox="0 0 61 60" fill="none" xmlns="http://www.w3.org/2000/svg">
<path d="M31.8756 51.8149C45.946 51.8149 57.3522 40.4954 57.3522 26.5321C57.3522 12.5688 45.946 1.24927 31.8756 1.24927C17.8053 1.24927 6.39902 12.5688 6.39902 26.5321C6.39902 40.4954 17.8053 51.8149 31.8756 51.8149Z" fill="#F0F4F7"/>
<path d="M18.4584 37.6743L53.7021 46.4082C53.7021 46.4082 44.7863 47.9866 41.0102 47.25C37.2341 46.5134 27.584 44.4089 27.584 44.4089L28.1085 40.5155" fill="white"/>
<path d="M18.4584 37.6743L53.7021 46.4082C53.7021 46.4082 44.7863 47.9866 41.0102 47.25C37.2341 46.5134 27.584 44.4089 27.584 44.4089L28.1085 40.5155" stroke="#B8C0CC" stroke-width="1.88" stroke-miterlimit="10" stroke-linecap="round" stroke-linejoin="round"/>
<path d="M20.5903 46.5134L46.978 10C46.978 10 37.3588 15.6074 34.3691 19.3892C31.3793 23.1709 23.97 32.8209 23.97 32.8209L27.6097 36.081" fill="white"/>
<path d="M20.5903 46.5134L46.978 10C46.978 10 37.3588 15.6074 34.3691 19.3892C31.3793 23.1709 23.97 32.8209 23.97 32.8209L27.6097 36.081" stroke="#B8C0CC" stroke-width="1.88" stroke-miterlimit="10" stroke-linecap="round" stroke-linejoin="round"/>
<path d="M18.6771 51.4986C20.7583 51.4986 22.4454 49.8061 22.4454 47.7183C22.4454 45.6305 20.7583 43.938 18.6771 43.938C16.596 43.938 14.9089 45.6305 14.9089 47.7183C14.9089 49.8061 16.596 51.4986 18.6771 51.4986Z" fill="white" stroke="#B8C0CC" stroke-width="1.88" stroke-miterlimit="10" stroke-linecap="round" stroke-linejoin="round"/>
<path d="M16.1562 40.0577C18.2374 40.0577 19.9245 38.3652 19.9245 36.2774C19.9245 34.1896 18.2374 32.4971 16.1562 32.4971C14.0751 32.4971 12.388 34.1896 12.388 36.2774C12.388 38.3652 14.0751 40.0577 16.1562 40.0577Z" fill="white" stroke="#B8C0CC" stroke-width="1.88" stroke-miterlimit="10" stroke-linecap="round" stroke-linejoin="round"/>
<path d="M17.9594 51.5886L18.1388 54.3788" stroke="#B8C0CC" stroke-width="1.88" stroke-miterlimit="10" stroke-linecap="round" stroke-linejoin="round"/>
</svg>
