<svg width="61" height="60" viewBox="0 0 61 60" fill="none" xmlns="http://www.w3.org/2000/svg">
<path d="M31.8984 51.8149C45.9688 51.8149 57.375 40.4954 57.375 26.5321C57.375 12.5688 45.9688 1.24927 31.8984 1.24927C17.8281 1.24927 6.42184 12.5688 6.42184 26.5321C6.42184 40.4954 17.8281 51.8149 31.8984 51.8149Z" fill="#F0F4F7"/>
<path d="M25.309 42.9999C25.6175 43.0028 25.9228 42.9345 26.2023 42.8004C26.4817 42.6663 26.7281 42.4698 26.9232 42.225C27.1185 41.9803 27.2576 41.694 27.3303 41.3868C27.4028 41.0798 27.4071 40.76 27.3429 40.4509C26.7821 38.0441 25.4453 35.9007 23.5483 34.3674C21.6514 32.834 19.305 32 16.8881 32C14.4712 32 12.1248 32.834 10.2278 34.3674C8.33089 35.9007 6.9941 38.0441 6.43329 40.4509C6.36901 40.76 6.37328 41.0798 6.44589 41.3868C6.51852 41.694 6.65764 41.9803 6.85286 42.225C7.04808 42.4698 7.29448 42.6663 7.57387 42.8004C7.85326 42.9345 8.15842 43.0028 8.46697 42.9999H25.309Z" fill="white" stroke="#B8C0CC" stroke-width="1.88"/>
<path d="M17.8881 29C20.9256 29 23.3881 26.5375 23.3881 23.5C23.3881 20.4624 20.9256 18 17.8881 18C14.8506 18 12.3881 20.4624 12.3881 23.5C12.3881 26.5375 14.8506 29 17.8881 29Z" fill="white" stroke="#B8C0CC" stroke-width="1.88"/>
<path d="M52.309 34.9999C52.6175 35.0028 52.9228 34.9345 53.2023 34.8004C53.4817 34.6663 53.7281 34.4698 53.9232 34.225C54.1185 33.9803 54.2576 33.694 54.3303 33.3868C54.4028 33.0798 54.4071 32.76 54.3429 32.4509C53.7821 30.0441 52.4453 27.9007 50.5483 26.3674C48.6514 24.834 46.305 24 43.8881 24C41.4712 24 39.1248 24.834 37.2278 26.3674C35.3309 27.9007 33.9941 30.0441 33.4333 32.4509C33.369 32.76 33.3733 33.0798 33.4459 33.3868C33.5185 33.694 33.6576 33.9803 33.8529 34.225C34.0481 34.4698 34.2945 34.6663 34.5739 34.8004C34.8533 34.9345 35.1584 35.0028 35.467 34.9999H52.309Z" fill="white" stroke="#B8C0CC" stroke-width="1.88"/>
<path d="M44.8881 21C47.9256 21 50.3881 18.5375 50.3881 15.5C50.3881 12.4624 47.9256 10 44.8881 10C41.8506 10 39.3881 12.4624 39.3881 15.5C39.3881 18.5375 41.8506 21 44.8881 21Z" fill="white" stroke="#B8C0CC" stroke-width="1.88"/>
</svg>
