<svg width="61" height="60" viewBox="0 0 61 60" fill="none" xmlns="http://www.w3.org/2000/svg">
<path d="M31.6209 51.8149C45.6913 51.8149 57.0975 40.4954 57.0975 26.5321C57.0975 12.5688 45.6913 1.24927 31.6209 1.24927C17.5506 1.24927 6.14435 12.5688 6.14435 26.5321C6.14435 40.4954 17.5506 51.8149 31.6209 51.8149Z" fill="#F0F4F7"/>
<rect x="17.1181" y="42.0134" width="5.50637" height="5.50637" rx="1" fill="#EAEFF4"/>
<rect x="40.2844" y="42.0134" width="5.50637" height="5.50637" rx="1" fill="#EAEFF4"/>
<rect x="18.7266" y="29.4805" width="25.6315" height="5.39073" fill="white" stroke="#B8C0CC" stroke-width="1.88" stroke-linecap="round" stroke-linejoin="round"/>
<rect x="14.2003" y="34.8203" width="34.6839" height="17.7997" fill="white" stroke="#B8C0CC" stroke-width="1.88" stroke-linecap="round" stroke-linejoin="round"/>
<path d="M27.0285 51.9838V44.0039H36.4166V51.9838" stroke="#B8C0CC" stroke-width="1.88" stroke-linecap="round" stroke-linejoin="round"/>
<path d="M38.5013 20.7507L31.3753 24.8649L31.3753 16.6365L38.5013 20.7507Z" fill="white" stroke="#B8C0CC" stroke-width="1.88" stroke-linecap="round" stroke-linejoin="round"/>
<path d="M31.3768 17.1292V28.797" stroke="#B8C0CC" stroke-width="1.88"/>
</svg>
