<svg width="61" height="60" viewBox="0 0 61 60" fill="none" xmlns="http://www.w3.org/2000/svg">
<path d="M27.8429 52.3053C41.9133 52.3053 53.3195 40.899 53.3195 26.8287C53.3195 12.7584 41.9133 1.35211 27.8429 1.35211C13.7726 1.35211 2.36633 12.7584 2.36633 26.8287C2.36633 40.899 13.7726 52.3053 27.8429 52.3053Z" fill="#F0F4F7"/>
<rect x="12" y="15" width="31.9558" height="19.837" rx="2" fill="white" stroke="#B8C0CC" stroke-width="1.88"/>
<rect x="26.4564" y="35.7205" width="2.80839" height="4.91482" fill="#B8C0CC"/>
<rect x="21.1446" y="42.7172" width="2.32062" height="13.4318" rx="1.16031" transform="rotate(-90 21.1446 42.7172)" fill="#B8C0CC"/>
<path d="M28.0243 24.4834C29.7523 24.4834 31.1531 23.1087 31.1531 21.4128C31.1531 19.717 29.7523 18.3423 28.0243 18.3423C26.2963 18.3423 24.8954 19.717 24.8954 21.4128C24.8954 23.1087 26.2963 24.4834 28.0243 24.4834Z" fill="#FCFDFF" stroke="#EC008C" stroke-width="1.88"/>
<path d="M31.8121 31.0665C31.9509 31.0678 32.0882 31.0383 32.2139 30.9805C32.3395 30.9227 32.4504 30.838 32.5381 30.7325C32.626 30.627 32.6885 30.5035 32.7212 30.3711C32.7539 30.2387 32.7558 30.1008 32.7269 29.9676C32.4747 28.93 31.8734 28.0059 31.0201 27.3448C30.167 26.6838 29.1116 26.3242 28.0245 26.3242C26.9374 26.3242 25.882 26.6838 25.0288 27.3448C24.1756 28.0059 23.5743 28.93 23.3221 29.9676C23.2932 30.1008 23.2951 30.2387 23.3278 30.3711C23.3604 30.5035 23.423 30.627 23.5108 30.7325C23.5986 30.838 23.7094 30.9227 23.8351 30.9805C23.9608 31.0383 24.098 31.0678 24.2368 31.0665H31.8121Z" fill="#FCFDFF" stroke="#EC008C" stroke-width="1.88"/>
</svg>
