<svg width="190" height="180" viewBox="0 0 190 180" fill="none" xmlns="http://www.w3.org/2000/svg">
<path d="M146.105 9.49219H51.7951C48.0422 9.49219 45 12.8208 45 16.9269V143.238C45 147.345 48.0422 150.673 51.7951 150.673H146.105C149.858 150.673 152.9 147.345 152.9 143.238V16.9269C152.9 12.8208 149.858 9.49219 146.105 9.49219Z" fill="#B8C0CC"/>
<path d="M143.871 12.2407H54.0291C50.2763 12.2407 47.2341 15.4472 47.2341 19.4026V131.759C47.2341 135.715 50.2763 138.921 54.0291 138.921H143.871C147.624 138.921 150.666 135.715 150.666 131.759V19.4026C150.666 15.4472 147.624 12.2407 143.871 12.2407Z" fill="white"/>
<path d="M47.2217 39.5103H150.605" stroke="#EAEFF4" stroke-width="1.88" stroke-miterlimit="10"/>
<path d="M47.2217 81.709H150.605" stroke="#EAEFF4" stroke-width="1.88" stroke-miterlimit="10"/>
<path d="M47.2217 123.907H150.605" stroke="#EAEFF4" stroke-width="1.88" stroke-miterlimit="10"/>
<path d="M122.682 43.4859H187.537C188.516 43.4859 189.06 44.1415 189.06 44.6649V70.1368C189.06 70.6603 188.516 71.3159 187.537 71.3159H122.682C121.703 71.3159 121.159 70.6603 121.159 70.1368V44.6649C121.159 44.1415 121.703 43.4859 122.682 43.4859Z" fill="white" stroke="#EC008C" stroke-width="1.88"/>
<path d="M122.682 85.6841H187.537C188.516 85.6841 189.06 86.3397 189.06 86.8632V112.335C189.06 112.859 188.516 113.514 187.537 113.514H122.682C121.703 113.514 121.159 112.859 121.159 112.335V86.8632C121.159 86.3397 121.703 85.6841 122.682 85.6841Z" fill="white" stroke="#EC008C" stroke-width="1.88"/>
<path d="M64.4138 53.4319C64.5298 53.4319 64.6218 53.4679 64.6898 53.5399C64.7578 53.6079 64.7918 53.6999 64.7918 53.8159V57.3379C64.7918 57.4539 64.7558 57.5479 64.6838 57.6199C64.6158 57.6919 64.5258 57.7279 64.4138 57.7279C64.2978 57.7279 64.2058 57.6919 64.1378 57.6199C64.0698 57.5479 64.0358 57.4539 64.0358 57.3379V55.8559H61.8698V57.3379C61.8698 57.4539 61.8338 57.5479 61.7618 57.6199C61.6938 57.6919 61.6018 57.7279 61.4858 57.7279C61.3738 57.7279 61.2818 57.6919 61.2098 57.6199C61.1418 57.5479 61.1078 57.4539 61.1078 57.3379V53.8159C61.1078 53.6999 61.1418 53.6079 61.2098 53.5399C61.2778 53.4679 61.3698 53.4319 61.4858 53.4319C61.6018 53.4319 61.6938 53.4679 61.7618 53.5399C61.8338 53.6079 61.8698 53.6999 61.8698 53.8159V55.2319H64.0358V53.8159C64.0358 53.6999 64.0698 53.6079 64.1378 53.5399C64.2058 53.4679 64.2978 53.4319 64.4138 53.4319ZM67.9575 56.8879C68.0255 56.8879 68.0795 56.9139 68.1195 56.9659C68.1635 57.0179 68.1855 57.0879 68.1855 57.1759C68.1855 57.2999 68.1115 57.4039 67.9635 57.4879C67.8275 57.5639 67.6735 57.6259 67.5015 57.6739C67.3295 57.7179 67.1655 57.7399 67.0095 57.7399C66.5375 57.7399 66.1635 57.6039 65.8875 57.3319C65.6115 57.0599 65.4735 56.6879 65.4735 56.2159C65.4735 55.9159 65.5335 55.6499 65.6535 55.4179C65.7735 55.1859 65.9415 55.0059 66.1575 54.8779C66.3775 54.7499 66.6255 54.6859 66.9015 54.6859C67.1655 54.6859 67.3955 54.7439 67.5915 54.8599C67.7875 54.9759 67.9395 55.1399 68.0475 55.3519C68.1555 55.5639 68.2095 55.8139 68.2095 56.1019C68.2095 56.2739 68.1335 56.3599 67.9815 56.3599H66.2115C66.2355 56.6359 66.3135 56.8399 66.4455 56.9719C66.5775 57.0999 66.7695 57.1639 67.0215 57.1639C67.1495 57.1639 67.2615 57.1479 67.3575 57.1159C67.4575 57.0839 67.5695 57.0399 67.6935 56.9839C67.8135 56.9199 67.9015 56.8879 67.9575 56.8879ZM66.9195 55.2139C66.7155 55.2139 66.5515 55.2779 66.4275 55.4059C66.3075 55.5339 66.2355 55.7179 66.2115 55.9579H67.5675C67.5595 55.7139 67.4995 55.5299 67.3875 55.4059C67.2755 55.2779 67.1195 55.2139 66.9195 55.2139ZM70.095 54.6859C70.503 54.6859 70.805 54.7879 71.001 54.9919C71.201 55.1919 71.301 55.4979 71.301 55.9099V57.3739C71.301 57.4819 71.269 57.5679 71.205 57.6319C71.141 57.6919 71.053 57.7219 70.941 57.7219C70.837 57.7219 70.751 57.6899 70.683 57.6259C70.619 57.5619 70.587 57.4779 70.587 57.3739V57.2419C70.519 57.3979 70.411 57.5199 70.263 57.6079C70.119 57.6959 69.951 57.7399 69.759 57.7399C69.563 57.7399 69.385 57.6999 69.225 57.6199C69.065 57.5399 68.939 57.4299 68.847 57.2899C68.755 57.1499 68.709 56.9939 68.709 56.8219C68.709 56.6059 68.763 56.4359 68.871 56.3119C68.983 56.1879 69.163 56.0979 69.411 56.0419C69.659 55.9859 70.001 55.9579 70.437 55.9579H70.587V55.8199C70.587 55.6239 70.545 55.4819 70.461 55.3939C70.377 55.3019 70.241 55.2559 70.053 55.2559C69.937 55.2559 69.819 55.2739 69.699 55.3099C69.579 55.3419 69.437 55.3899 69.273 55.4539C69.169 55.5059 69.093 55.5319 69.045 55.5319C68.973 55.5319 68.913 55.5059 68.865 55.4539C68.821 55.4019 68.799 55.3339 68.799 55.2499C68.799 55.1819 68.815 55.1239 68.847 55.0759C68.883 55.0239 68.941 54.9759 69.021 54.9319C69.161 54.8559 69.327 54.7959 69.519 54.7519C69.715 54.7079 69.907 54.6859 70.095 54.6859ZM69.909 57.1999C70.109 57.1999 70.271 57.1339 70.395 57.0019C70.523 56.8659 70.587 56.6919 70.587 56.4799V56.3539H70.479C70.211 56.3539 70.003 56.3659 69.855 56.3899C69.707 56.4139 69.601 56.4559 69.537 56.5159C69.473 56.5759 69.441 56.6579 69.441 56.7619C69.441 56.8899 69.485 56.9959 69.573 57.0799C69.665 57.1599 69.777 57.1999 69.909 57.1999ZM72.4353 57.7279C72.3273 57.7279 72.2373 57.6979 72.1653 57.6379C72.0973 57.5739 72.0633 57.4839 72.0633 57.3679V53.7859C72.0633 53.6699 72.0973 53.5819 72.1653 53.5219C72.2373 53.4619 72.3273 53.4319 72.4353 53.4319C72.5433 53.4319 72.6333 53.4619 72.7053 53.5219C72.7773 53.5819 72.8133 53.6699 72.8133 53.7859V57.3679C72.8133 57.4839 72.7773 57.5739 72.7053 57.6379C72.6333 57.6979 72.5433 57.7279 72.4353 57.7279ZM75.2396 57.1699C75.4396 57.1819 75.5396 57.2719 75.5396 57.4399C75.5396 57.5359 75.4996 57.6099 75.4196 57.6619C75.3436 57.7099 75.2336 57.7299 75.0896 57.7219L74.9276 57.7099C74.2556 57.6619 73.9196 57.3019 73.9196 56.6299V55.3219H73.6196C73.5116 55.3219 73.4276 55.2979 73.3676 55.2499C73.3116 55.2019 73.2836 55.1319 73.2836 55.0399C73.2836 54.9479 73.3116 54.8779 73.3676 54.8299C73.4276 54.7819 73.5116 54.7579 73.6196 54.7579H73.9196V54.2059C73.9196 54.0979 73.9536 54.0119 74.0216 53.9479C74.0896 53.8839 74.1816 53.8519 74.2976 53.8519C74.4096 53.8519 74.4996 53.8839 74.5676 53.9479C74.6356 54.0119 74.6696 54.0979 74.6696 54.2059V54.7579H75.1796C75.2876 54.7579 75.3696 54.7819 75.4256 54.8299C75.4856 54.8779 75.5156 54.9479 75.5156 55.0399C75.5156 55.1319 75.4856 55.2019 75.4256 55.2499C75.3696 55.2979 75.2876 55.3219 75.1796 55.3219H74.6696V56.6839C74.6696 56.9799 74.8056 57.1379 75.0776 57.1579L75.2396 57.1699ZM77.6465 54.6859C78.3345 54.6859 78.6785 55.0879 78.6785 55.8919V57.3679C78.6785 57.4799 78.6445 57.5679 78.5765 57.6319C78.5125 57.6959 78.4225 57.7279 78.3065 57.7279C78.1905 57.7279 78.0985 57.6959 78.0305 57.6319C77.9625 57.5679 77.9285 57.4799 77.9285 57.3679V55.8919C77.9285 55.6799 77.8845 55.5259 77.7965 55.4299C77.7125 55.3299 77.5785 55.2799 77.3945 55.2799C77.1785 55.2799 77.0045 55.3479 76.8725 55.4839C76.7445 55.6199 76.6805 55.8019 76.6805 56.0299V57.3679C76.6805 57.4799 76.6465 57.5679 76.5785 57.6319C76.5105 57.6959 76.4185 57.7279 76.3025 57.7279C76.1865 57.7279 76.0945 57.6959 76.0265 57.6319C75.9625 57.5679 75.9305 57.4799 75.9305 57.3679V53.7799C75.9305 53.6759 75.9645 53.5919 76.0325 53.5279C76.1045 53.4639 76.1965 53.4319 76.3085 53.4319C76.4205 53.4319 76.5105 53.4619 76.5785 53.5219C76.6465 53.5819 76.6805 53.6639 76.6805 53.7679V55.1659C76.7805 55.0099 76.9125 54.8919 77.0765 54.8119C77.2445 54.7279 77.4345 54.6859 77.6465 54.6859ZM83.0251 57.7459C82.6171 57.7459 82.2591 57.6579 81.9511 57.4819C81.6471 57.3059 81.4131 57.0539 81.2491 56.7259C81.0851 56.3979 81.0031 56.0139 81.0031 55.5739C81.0031 55.1339 81.0851 54.7519 81.2491 54.4279C81.4131 54.0999 81.6471 53.8479 81.9511 53.6719C82.2591 53.4959 82.6171 53.4079 83.0251 53.4079C83.2891 53.4079 83.5371 53.4479 83.7691 53.5279C84.0011 53.6039 84.2071 53.7159 84.3871 53.8639C84.4391 53.9039 84.4751 53.9459 84.4951 53.9899C84.5151 54.0339 84.5251 54.0879 84.5251 54.1519C84.5251 54.2399 84.5011 54.3139 84.4531 54.3739C84.4051 54.4339 84.3471 54.4639 84.2791 54.4639C84.1991 54.4639 84.1171 54.4359 84.0331 54.3799C83.8611 54.2519 83.7011 54.1639 83.5531 54.1159C83.4051 54.0639 83.2411 54.0379 83.0611 54.0379C82.6451 54.0379 82.3291 54.1679 82.1131 54.4279C81.9011 54.6879 81.7951 55.0699 81.7951 55.5739C81.7951 56.0819 81.9011 56.4659 82.1131 56.7259C82.3291 56.9859 82.6451 57.1159 83.0611 57.1159C83.2331 57.1159 83.3911 57.0899 83.5351 57.0379C83.6831 56.9859 83.8491 56.8979 84.0331 56.7739C84.0731 56.7499 84.1131 56.7299 84.1531 56.7139C84.1931 56.6979 84.2351 56.6899 84.2791 56.6899C84.3471 56.6899 84.4051 56.7199 84.4531 56.7799C84.5011 56.8399 84.5251 56.9139 84.5251 57.0019C84.5251 57.0619 84.5151 57.1159 84.4951 57.1639C84.4751 57.2079 84.4391 57.2499 84.3871 57.2899C84.2071 57.4379 84.0011 57.5519 83.7691 57.6319C83.5371 57.7079 83.2891 57.7459 83.0251 57.7459ZM86.8515 54.6859C87.5395 54.6859 87.8835 55.0879 87.8835 55.8919V57.3679C87.8835 57.4799 87.8495 57.5679 87.7815 57.6319C87.7175 57.6959 87.6275 57.7279 87.5115 57.7279C87.3955 57.7279 87.3035 57.6959 87.2355 57.6319C87.1675 57.5679 87.1335 57.4799 87.1335 57.3679V55.8919C87.1335 55.6799 87.0895 55.5259 87.0015 55.4299C86.9175 55.3299 86.7835 55.2799 86.5995 55.2799C86.3835 55.2799 86.2095 55.3479 86.0775 55.4839C85.9495 55.6199 85.8855 55.8019 85.8855 56.0299V57.3679C85.8855 57.4799 85.8515 57.5679 85.7835 57.6319C85.7155 57.6959 85.6235 57.7279 85.5075 57.7279C85.3915 57.7279 85.2995 57.6959 85.2315 57.6319C85.1675 57.5679 85.1355 57.4799 85.1355 57.3679V53.7799C85.1355 53.6759 85.1695 53.5919 85.2375 53.5279C85.3095 53.4639 85.4015 53.4319 85.5135 53.4319C85.6255 53.4319 85.7155 53.4619 85.7835 53.5219C85.8515 53.5819 85.8855 53.6639 85.8855 53.7679V55.1659C85.9855 55.0099 86.1175 54.8919 86.2815 54.8119C86.4495 54.7279 86.6395 54.6859 86.8515 54.6859ZM90.9673 56.8879C91.0353 56.8879 91.0893 56.9139 91.1293 56.9659C91.1733 57.0179 91.1953 57.0879 91.1953 57.1759C91.1953 57.2999 91.1213 57.4039 90.9733 57.4879C90.8373 57.5639 90.6833 57.6259 90.5113 57.6739C90.3393 57.7179 90.1753 57.7399 90.0193 57.7399C89.5473 57.7399 89.1733 57.6039 88.8973 57.3319C88.6213 57.0599 88.4833 56.6879 88.4833 56.2159C88.4833 55.9159 88.5433 55.6499 88.6633 55.4179C88.7833 55.1859 88.9513 55.0059 89.1673 54.8779C89.3873 54.7499 89.6353 54.6859 89.9113 54.6859C90.1753 54.6859 90.4053 54.7439 90.6013 54.8599C90.7973 54.9759 90.9493 55.1399 91.0573 55.3519C91.1653 55.5639 91.2193 55.8139 91.2193 56.1019C91.2193 56.2739 91.1433 56.3599 90.9913 56.3599H89.2213C89.2453 56.6359 89.3233 56.8399 89.4553 56.9719C89.5873 57.0999 89.7793 57.1639 90.0313 57.1639C90.1593 57.1639 90.2713 57.1479 90.3673 57.1159C90.4673 57.0839 90.5793 57.0399 90.7033 56.9839C90.8233 56.9199 90.9113 56.8879 90.9673 56.8879ZM89.9293 55.2139C89.7253 55.2139 89.5613 55.2779 89.4373 55.4059C89.3173 55.5339 89.2453 55.7179 89.2213 55.9579H90.5773C90.5693 55.7139 90.5093 55.5299 90.3973 55.4059C90.2853 55.2779 90.1293 55.2139 89.9293 55.2139ZM93.1348 57.7399C92.8428 57.7399 92.5848 57.6779 92.3608 57.5539C92.1408 57.4299 91.9708 57.2539 91.8508 57.0259C91.7308 56.7979 91.6708 56.5319 91.6708 56.2279C91.6708 55.9239 91.7328 55.6559 91.8568 55.4239C91.9848 55.1879 92.1628 55.0059 92.3908 54.8779C92.6188 54.7499 92.8808 54.6859 93.1768 54.6859C93.3328 54.6859 93.4888 54.7079 93.6448 54.7519C93.8048 54.7959 93.9448 54.8559 94.0648 54.9319C94.1928 55.0159 94.2568 55.1219 94.2568 55.2499C94.2568 55.3379 94.2348 55.4099 94.1908 55.4659C94.1508 55.5179 94.0968 55.5439 94.0288 55.5439C93.9848 55.5439 93.9388 55.5339 93.8908 55.5139C93.8428 55.4939 93.7948 55.4699 93.7468 55.4419C93.6588 55.3899 93.5748 55.3499 93.4948 55.3219C93.4148 55.2899 93.3228 55.2739 93.2188 55.2739C92.9708 55.2739 92.7788 55.3559 92.6428 55.5199C92.5108 55.6799 92.4448 55.9119 92.4448 56.2159C92.4448 56.5159 92.5108 56.7479 92.6428 56.9119C92.7788 57.0719 92.9708 57.1519 93.2188 57.1519C93.3188 57.1519 93.4068 57.1379 93.4828 57.1099C93.5628 57.0779 93.6508 57.0359 93.7468 56.9839C93.8068 56.9479 93.8588 56.9219 93.9028 56.9059C93.9468 56.8859 93.9908 56.8759 94.0348 56.8759C94.0988 56.8759 94.1528 56.9039 94.1968 56.9599C94.2408 57.0159 94.2628 57.0859 94.2628 57.1699C94.2628 57.2379 94.2468 57.2979 94.2148 57.3499C94.1868 57.3979 94.1388 57.4419 94.0708 57.4819C93.9468 57.5619 93.8028 57.6259 93.6388 57.6739C93.4748 57.7179 93.3068 57.7399 93.1348 57.7399ZM97.3725 57.1099C97.4525 57.1859 97.4925 57.2719 97.4925 57.3679C97.4925 57.4599 97.4585 57.5419 97.3905 57.6139C97.3265 57.6859 97.2505 57.7219 97.1625 57.7219C97.0745 57.7219 96.9925 57.6859 96.9165 57.6139L95.5125 56.3419V57.3679C95.5125 57.4839 95.4765 57.5719 95.4045 57.6319C95.3325 57.6919 95.2425 57.7219 95.1345 57.7219C95.0265 57.7219 94.9365 57.6919 94.8645 57.6319C94.7965 57.5719 94.7625 57.4839 94.7625 57.3679V53.7859C94.7625 53.6699 94.7965 53.5819 94.8645 53.5219C94.9365 53.4619 95.0265 53.4319 95.1345 53.4319C95.2425 53.4319 95.3325 53.4619 95.4045 53.5219C95.4765 53.5819 95.5125 53.6699 95.5125 53.7859V56.0419L96.7965 54.8119C96.8685 54.7399 96.9505 54.7039 97.0425 54.7039C97.1345 54.7039 97.2145 54.7379 97.2825 54.8059C97.3505 54.8739 97.3845 54.9539 97.3845 55.0459C97.3845 55.1379 97.3465 55.2219 97.2705 55.2979L96.3285 56.1739L97.3725 57.1099ZM100.295 54.6979C100.411 54.6979 100.503 54.7299 100.571 54.7939C100.639 54.8579 100.673 54.9439 100.673 55.0519V57.3799C100.673 57.4839 100.637 57.5679 100.565 57.6319C100.497 57.6959 100.407 57.7279 100.295 57.7279C100.187 57.7279 100.101 57.6979 100.037 57.6379C99.9733 57.5779 99.9413 57.4959 99.9413 57.3919V57.2419C99.8493 57.4019 99.7253 57.5259 99.5693 57.6139C99.4133 57.6979 99.2373 57.7399 99.0413 57.7399C98.3213 57.7399 97.9613 57.3359 97.9613 56.5279V55.0519C97.9613 54.9439 97.9953 54.8579 98.0633 54.7939C98.1313 54.7299 98.2213 54.6979 98.3333 54.6979C98.4493 54.6979 98.5413 54.7299 98.6093 54.7939C98.6773 54.8579 98.7113 54.9439 98.7113 55.0519V56.5339C98.7113 56.7419 98.7533 56.8959 98.8373 56.9959C98.9213 57.0959 99.0533 57.1459 99.2333 57.1459C99.4413 57.1459 99.6073 57.0779 99.7313 56.9419C99.8593 56.8019 99.9233 56.6179 99.9233 56.3899V55.0519C99.9233 54.9439 99.9573 54.8579 100.025 54.7939C100.093 54.7299 100.183 54.6979 100.295 54.6979ZM103.14 54.6859C103.392 54.6859 103.616 54.7499 103.812 54.8779C104.012 55.0059 104.166 55.1879 104.274 55.4239C104.386 55.6559 104.442 55.9239 104.442 56.2279C104.442 56.5319 104.386 56.7979 104.274 57.0259C104.166 57.2539 104.014 57.4299 103.818 57.5539C103.622 57.6779 103.396 57.7399 103.14 57.7399C102.932 57.7399 102.746 57.6959 102.582 57.6079C102.418 57.5199 102.292 57.3979 102.204 57.2419V58.4659C102.204 58.5699 102.17 58.6519 102.102 58.7119C102.034 58.7719 101.944 58.8019 101.832 58.8019C101.72 58.8019 101.628 58.7699 101.556 58.7059C101.488 58.6419 101.454 58.5579 101.454 58.4539V55.0519C101.454 54.9439 101.486 54.8579 101.55 54.7939C101.618 54.7299 101.708 54.6979 101.82 54.6979C101.932 54.6979 102.022 54.7299 102.09 54.7939C102.158 54.8579 102.192 54.9439 102.192 55.0519V55.2019C102.28 55.0379 102.406 54.9119 102.57 54.8239C102.738 54.7319 102.928 54.6859 103.14 54.6859ZM102.942 57.1579C103.178 57.1579 103.362 57.0779 103.494 56.9179C103.626 56.7539 103.692 56.5239 103.692 56.2279C103.692 55.9239 103.626 55.6879 103.494 55.5199C103.362 55.3519 103.178 55.2679 102.942 55.2679C102.702 55.2679 102.516 55.3499 102.384 55.5139C102.256 55.6779 102.192 55.9119 102.192 56.2159C102.192 56.5159 102.256 56.7479 102.384 56.9119C102.516 57.0759 102.702 57.1579 102.942 57.1579Z" fill="#B8C0CC"/>
<path d="M61.4798 98.8506C61.3638 98.8506 61.2718 98.8186 61.2038 98.7546C61.1398 98.6906 61.1078 98.6006 61.1078 98.4846V94.9866C61.1078 94.8706 61.1398 94.7806 61.2038 94.7166C61.2718 94.6526 61.3638 94.6206 61.4798 94.6206H62.6678C63.3598 94.6206 63.8958 94.8066 64.2758 95.1786C64.6598 95.5466 64.8518 96.0646 64.8518 96.7326C64.8518 97.4046 64.6598 97.9266 64.2758 98.2986C63.8958 98.6666 63.3598 98.8506 62.6678 98.8506H61.4798ZM62.6198 98.2206C63.5918 98.2206 64.0778 97.7246 64.0778 96.7326C64.0778 95.7446 63.5918 95.2506 62.6198 95.2506H61.8818V98.2206H62.6198ZM67.8872 98.0466C67.9552 98.0466 68.0092 98.0726 68.0492 98.1246C68.0932 98.1766 68.1152 98.2466 68.1152 98.3346C68.1152 98.4586 68.0412 98.5626 67.8932 98.6466C67.7572 98.7226 67.6032 98.7846 67.4312 98.8326C67.2592 98.8766 67.0952 98.8986 66.9392 98.8986C66.4672 98.8986 66.0932 98.7626 65.8172 98.4906C65.5412 98.2186 65.4032 97.8466 65.4032 97.3746C65.4032 97.0746 65.4632 96.8086 65.5832 96.5766C65.7032 96.3446 65.8712 96.1646 66.0872 96.0366C66.3072 95.9086 66.5552 95.8446 66.8312 95.8446C67.0952 95.8446 67.3252 95.9026 67.5212 96.0186C67.7172 96.1346 67.8692 96.2986 67.9772 96.5106C68.0852 96.7226 68.1392 96.9726 68.1392 97.2606C68.1392 97.4326 68.0632 97.5186 67.9112 97.5186H66.1412C66.1652 97.7946 66.2432 97.9986 66.3752 98.1306C66.5072 98.2586 66.6992 98.3226 66.9512 98.3226C67.0792 98.3226 67.1912 98.3066 67.2872 98.2746C67.3872 98.2426 67.4992 98.1986 67.6232 98.1426C67.7432 98.0786 67.8312 98.0466 67.8872 98.0466ZM66.8492 96.3726C66.6452 96.3726 66.4812 96.4366 66.3572 96.5646C66.2372 96.6926 66.1652 96.8766 66.1412 97.1166H67.4972C67.4892 96.8726 67.4292 96.6886 67.3172 96.5646C67.2052 96.4366 67.0492 96.3726 66.8492 96.3726ZM70.4567 95.8446C70.8087 95.8446 71.0707 95.9446 71.2427 96.1446C71.4147 96.3446 71.5007 96.6466 71.5007 97.0506V98.5266C71.5007 98.6386 71.4667 98.7266 71.3987 98.7906C71.3347 98.8546 71.2447 98.8866 71.1287 98.8866C71.0127 98.8866 70.9207 98.8546 70.8527 98.7906C70.7847 98.7266 70.7507 98.6386 70.7507 98.5266V97.0926C70.7507 96.8646 70.7067 96.6986 70.6187 96.5946C70.5347 96.4906 70.4007 96.4386 70.2167 96.4386C70.0007 96.4386 69.8267 96.5066 69.6947 96.6426C69.5667 96.7786 69.5027 96.9606 69.5027 97.1886V98.5266C69.5027 98.6386 69.4687 98.7266 69.4007 98.7906C69.3327 98.8546 69.2407 98.8866 69.1247 98.8866C69.0087 98.8866 68.9167 98.8546 68.8487 98.7906C68.7847 98.7266 68.7527 98.6386 68.7527 98.5266V96.2046C68.7527 96.1006 68.7867 96.0166 68.8547 95.9526C68.9227 95.8886 69.0147 95.8566 69.1307 95.8566C69.2347 95.8566 69.3187 95.8886 69.3827 95.9526C69.4507 96.0126 69.4847 96.0926 69.4847 96.1926V96.3546C69.5847 96.1906 69.7187 96.0646 69.8867 95.9766C70.0547 95.8886 70.2447 95.8446 70.4567 95.8446ZM73.7865 98.3286C73.9865 98.3406 74.0865 98.4306 74.0865 98.5986C74.0865 98.6946 74.0465 98.7686 73.9665 98.8206C73.8905 98.8686 73.7805 98.8886 73.6365 98.8806L73.4745 98.8686C72.8025 98.8206 72.4665 98.4606 72.4665 97.7886V96.4806H72.1665C72.0585 96.4806 71.9745 96.4566 71.9145 96.4086C71.8585 96.3606 71.8305 96.2906 71.8305 96.1986C71.8305 96.1066 71.8585 96.0366 71.9145 95.9886C71.9745 95.9406 72.0585 95.9166 72.1665 95.9166H72.4665V95.3646C72.4665 95.2566 72.5005 95.1706 72.5685 95.1066C72.6365 95.0426 72.7285 95.0106 72.8445 95.0106C72.9565 95.0106 73.0465 95.0426 73.1145 95.1066C73.1825 95.1706 73.2165 95.2566 73.2165 95.3646V95.9166H73.7265C73.8345 95.9166 73.9165 95.9406 73.9725 95.9886C74.0325 96.0366 74.0625 96.1066 74.0625 96.1986C74.0625 96.2906 74.0325 96.3606 73.9725 96.4086C73.9165 96.4566 73.8345 96.4806 73.7265 96.4806H73.2165V97.8426C73.2165 98.1386 73.3525 98.2966 73.6245 98.3166L73.7865 98.3286ZM74.8493 98.8866C74.7413 98.8866 74.6513 98.8566 74.5793 98.7966C74.5113 98.7326 74.4773 98.6426 74.4773 98.5266V96.2106C74.4773 96.0946 74.5113 96.0066 74.5793 95.9466C74.6513 95.8866 74.7413 95.8566 74.8493 95.8566C74.9573 95.8566 75.0473 95.8866 75.1193 95.9466C75.1913 96.0066 75.2273 96.0946 75.2273 96.2106V98.5266C75.2273 98.6426 75.1913 98.7326 75.1193 98.7966C75.0473 98.8566 74.9573 98.8866 74.8493 98.8866ZM74.8493 95.3226C74.7133 95.3226 74.6053 95.2866 74.5253 95.2146C74.4453 95.1386 74.4053 95.0406 74.4053 94.9206C74.4053 94.8006 74.4453 94.7046 74.5253 94.6326C74.6053 94.5606 74.7133 94.5246 74.8493 94.5246C74.9813 94.5246 75.0873 94.5606 75.1673 94.6326C75.2513 94.7046 75.2933 94.8006 75.2933 94.9206C75.2933 95.0406 75.2533 95.1386 75.1733 95.2146C75.0933 95.2866 74.9853 95.3226 74.8493 95.3226ZM77.0628 98.8986C76.6268 98.8986 76.2748 98.8126 76.0068 98.6406C75.8788 98.5646 75.8148 98.4566 75.8148 98.3166C75.8148 98.2366 75.8368 98.1726 75.8808 98.1246C75.9248 98.0726 75.9788 98.0466 76.0428 98.0466C76.1108 98.0466 76.2048 98.0786 76.3248 98.1426C76.4528 98.2026 76.5688 98.2486 76.6728 98.2806C76.7808 98.3126 76.9168 98.3286 77.0808 98.3286C77.2488 98.3286 77.3788 98.3006 77.4708 98.2446C77.5668 98.1886 77.6148 98.1106 77.6148 98.0106C77.6148 97.9426 77.5948 97.8886 77.5548 97.8486C77.5188 97.8086 77.4508 97.7726 77.3508 97.7406C77.2548 97.7046 77.1068 97.6646 76.9068 97.6206C76.5508 97.5486 76.2948 97.4466 76.1388 97.3146C75.9868 97.1826 75.9108 97.0006 75.9108 96.7686C75.9108 96.5926 75.9628 96.4346 76.0668 96.2946C76.1708 96.1506 76.3128 96.0406 76.4928 95.9646C76.6768 95.8846 76.8848 95.8446 77.1168 95.8446C77.2848 95.8446 77.4468 95.8666 77.6028 95.9106C77.7588 95.9506 77.8988 96.0106 78.0228 96.0906C78.1508 96.1706 78.2148 96.2766 78.2148 96.4086C78.2148 96.4886 78.1928 96.5566 78.1488 96.6126C78.1048 96.6646 78.0508 96.6906 77.9868 96.6906C77.9428 96.6906 77.8988 96.6826 77.8548 96.6666C77.8148 96.6466 77.7628 96.6186 77.6988 96.5826C77.5828 96.5226 77.4828 96.4786 77.3988 96.4506C77.3148 96.4186 77.2108 96.4026 77.0868 96.4026C76.9388 96.4026 76.8208 96.4326 76.7328 96.4926C76.6488 96.5526 76.6068 96.6346 76.6068 96.7386C76.6068 96.8386 76.6508 96.9146 76.7388 96.9666C76.8268 97.0186 76.9968 97.0706 77.2488 97.1226C77.5168 97.1786 77.7268 97.2426 77.8788 97.3146C78.0308 97.3866 78.1388 97.4766 78.2028 97.5846C78.2708 97.6926 78.3048 97.8306 78.3048 97.9986C78.3048 98.2706 78.1908 98.4886 77.9628 98.6526C77.7388 98.8166 77.4388 98.8986 77.0628 98.8986ZM80.4076 98.3286C80.6076 98.3406 80.7076 98.4306 80.7076 98.5986C80.7076 98.6946 80.6676 98.7686 80.5876 98.8206C80.5116 98.8686 80.4016 98.8886 80.2576 98.8806L80.0956 98.8686C79.4236 98.8206 79.0876 98.4606 79.0876 97.7886V96.4806H78.7876C78.6796 96.4806 78.5956 96.4566 78.5356 96.4086C78.4796 96.3606 78.4516 96.2906 78.4516 96.1986C78.4516 96.1066 78.4796 96.0366 78.5356 95.9886C78.5956 95.9406 78.6796 95.9166 78.7876 95.9166H79.0876V95.3646C79.0876 95.2566 79.1216 95.1706 79.1896 95.1066C79.2576 95.0426 79.3496 95.0106 79.4656 95.0106C79.5776 95.0106 79.6676 95.0426 79.7356 95.1066C79.8036 95.1706 79.8376 95.2566 79.8376 95.3646V95.9166H80.3476C80.4556 95.9166 80.5376 95.9406 80.5936 95.9886C80.6536 96.0366 80.6836 96.1066 80.6836 96.1986C80.6836 96.2906 80.6536 96.3606 80.5936 96.4086C80.5376 96.4566 80.4556 96.4806 80.3476 96.4806H79.8376V97.8426C79.8376 98.1386 79.9736 98.2966 80.2456 98.3166L80.4076 98.3286ZM85.8713 94.7886C85.9353 94.6526 86.0413 94.5846 86.1893 94.5846C86.2893 94.5846 86.3793 94.6166 86.4593 94.6806C86.5393 94.7446 86.5793 94.8246 86.5793 94.9206C86.5793 94.9646 86.5673 95.0146 86.5433 95.0706L84.8813 98.6466C84.8453 98.7226 84.7893 98.7826 84.7133 98.8266C84.6413 98.8666 84.5633 98.8866 84.4793 98.8866C84.3953 98.8866 84.3153 98.8666 84.2393 98.8266C84.1673 98.7826 84.1133 98.7226 84.0773 98.6466L82.4213 95.0706C82.3973 95.0146 82.3853 94.9666 82.3853 94.9266C82.3853 94.8266 82.4253 94.7446 82.5053 94.6806C82.5893 94.6166 82.6833 94.5846 82.7873 94.5846C82.8553 94.5846 82.9173 94.6026 82.9733 94.6386C83.0333 94.6706 83.0793 94.7206 83.1113 94.7886L84.4913 97.8546L85.8713 94.7886ZM87.6579 98.8866C87.5499 98.8866 87.4599 98.8566 87.3879 98.7966C87.3199 98.7326 87.2859 98.6426 87.2859 98.5266V96.2106C87.2859 96.0946 87.3199 96.0066 87.3879 95.9466C87.4599 95.8866 87.5499 95.8566 87.6579 95.8566C87.7659 95.8566 87.8559 95.8866 87.9279 95.9466C87.9999 96.0066 88.0359 96.0946 88.0359 96.2106V98.5266C88.0359 98.6426 87.9999 98.7326 87.9279 98.7966C87.8559 98.8566 87.7659 98.8866 87.6579 98.8866ZM87.6579 95.3226C87.5219 95.3226 87.4139 95.2866 87.3339 95.2146C87.2539 95.1386 87.2139 95.0406 87.2139 94.9206C87.2139 94.8006 87.2539 94.7046 87.3339 94.6326C87.4139 94.5606 87.5219 94.5246 87.6579 94.5246C87.7899 94.5246 87.8959 94.5606 87.9759 94.6326C88.0599 94.7046 88.1019 94.8006 88.1019 94.9206C88.1019 95.0406 88.0619 95.1386 87.9819 95.2146C87.9019 95.2866 87.7939 95.3226 87.6579 95.3226ZM89.8714 98.8986C89.4354 98.8986 89.0834 98.8126 88.8154 98.6406C88.6874 98.5646 88.6234 98.4566 88.6234 98.3166C88.6234 98.2366 88.6454 98.1726 88.6894 98.1246C88.7334 98.0726 88.7874 98.0466 88.8514 98.0466C88.9194 98.0466 89.0134 98.0786 89.1334 98.1426C89.2614 98.2026 89.3774 98.2486 89.4814 98.2806C89.5894 98.3126 89.7254 98.3286 89.8894 98.3286C90.0574 98.3286 90.1874 98.3006 90.2794 98.2446C90.3754 98.1886 90.4234 98.1106 90.4234 98.0106C90.4234 97.9426 90.4034 97.8886 90.3634 97.8486C90.3274 97.8086 90.2594 97.7726 90.1594 97.7406C90.0634 97.7046 89.9154 97.6646 89.7154 97.6206C89.3594 97.5486 89.1034 97.4466 88.9474 97.3146C88.7954 97.1826 88.7194 97.0006 88.7194 96.7686C88.7194 96.5926 88.7714 96.4346 88.8754 96.2946C88.9794 96.1506 89.1214 96.0406 89.3014 95.9646C89.4854 95.8846 89.6934 95.8446 89.9254 95.8446C90.0934 95.8446 90.2554 95.8666 90.4114 95.9106C90.5674 95.9506 90.7074 96.0106 90.8314 96.0906C90.9594 96.1706 91.0234 96.2766 91.0234 96.4086C91.0234 96.4886 91.0014 96.5566 90.9574 96.6126C90.9134 96.6646 90.8594 96.6906 90.7954 96.6906C90.7514 96.6906 90.7074 96.6826 90.6634 96.6666C90.6234 96.6466 90.5714 96.6186 90.5074 96.5826C90.3914 96.5226 90.2914 96.4786 90.2074 96.4506C90.1234 96.4186 90.0194 96.4026 89.8954 96.4026C89.7474 96.4026 89.6294 96.4326 89.5414 96.4926C89.4574 96.5526 89.4154 96.6346 89.4154 96.7386C89.4154 96.8386 89.4594 96.9146 89.5474 96.9666C89.6354 97.0186 89.8054 97.0706 90.0574 97.1226C90.3254 97.1786 90.5354 97.2426 90.6874 97.3146C90.8394 97.3866 90.9474 97.4766 91.0114 97.5846C91.0794 97.6926 91.1134 97.8306 91.1134 97.9986C91.1134 98.2706 90.9994 98.4886 90.7714 98.6526C90.5474 98.8166 90.2474 98.8986 89.8714 98.8986ZM92.0935 98.8866C91.9855 98.8866 91.8955 98.8566 91.8235 98.7966C91.7555 98.7326 91.7215 98.6426 91.7215 98.5266V96.2106C91.7215 96.0946 91.7555 96.0066 91.8235 95.9466C91.8955 95.8866 91.9855 95.8566 92.0935 95.8566C92.2015 95.8566 92.2915 95.8866 92.3635 95.9466C92.4355 96.0066 92.4715 96.0946 92.4715 96.2106V98.5266C92.4715 98.6426 92.4355 98.7326 92.3635 98.7966C92.2915 98.8566 92.2015 98.8866 92.0935 98.8866ZM92.0935 95.3226C91.9575 95.3226 91.8495 95.2866 91.7695 95.2146C91.6895 95.1386 91.6495 95.0406 91.6495 94.9206C91.6495 94.8006 91.6895 94.7046 91.7695 94.6326C91.8495 94.5606 91.9575 94.5246 92.0935 94.5246C92.2255 94.5246 92.3315 94.5606 92.4115 94.6326C92.4955 94.7046 92.5375 94.8006 92.5375 94.9206C92.5375 95.0406 92.4975 95.1386 92.4175 95.2146C92.3375 95.2866 92.2295 95.3226 92.0935 95.3226ZM94.8978 98.3286C95.0978 98.3406 95.1978 98.4306 95.1978 98.5986C95.1978 98.6946 95.1578 98.7686 95.0778 98.8206C95.0018 98.8686 94.8918 98.8886 94.7478 98.8806L94.5858 98.8686C93.9138 98.8206 93.5778 98.4606 93.5778 97.7886V96.4806H93.2778C93.1698 96.4806 93.0858 96.4566 93.0258 96.4086C92.9698 96.3606 92.9418 96.2906 92.9418 96.1986C92.9418 96.1066 92.9698 96.0366 93.0258 95.9886C93.0858 95.9406 93.1698 95.9166 93.2778 95.9166H93.5778V95.3646C93.5778 95.2566 93.6118 95.1706 93.6798 95.1066C93.7478 95.0426 93.8398 95.0106 93.9558 95.0106C94.0678 95.0106 94.1578 95.0426 94.2258 95.1066C94.2938 95.1706 94.3278 95.2566 94.3278 95.3646V95.9166H94.8378C94.9458 95.9166 95.0278 95.9406 95.0838 95.9886C95.1438 96.0366 95.1738 96.1066 95.1738 96.1986C95.1738 96.2906 95.1438 96.3606 95.0838 96.4086C95.0278 96.4566 94.9458 96.4806 94.8378 96.4806H94.3278V97.8426C94.3278 98.1386 94.4638 98.2966 94.7358 98.3166L94.8978 98.3286Z" fill="#B8C0CC"/>
<path d="M63.0518 68.55C62.3851 68.55 61.8758 68.3047 61.5238 67.814C61.1718 67.318 60.9958 66.598 60.9958 65.654C60.9958 64.7154 61.1718 64.0007 61.5238 63.51C61.8758 63.014 62.3851 62.766 63.0518 62.766C63.7185 62.766 64.2278 63.014 64.5798 63.51C64.9318 64.0007 65.1078 64.7154 65.1078 65.654C65.1078 66.5927 64.9318 67.31 64.5798 67.806C64.2278 68.302 63.7185 68.55 63.0518 68.55ZM63.0518 67.742C63.4145 67.742 63.6785 67.5767 63.8438 67.246C64.0091 66.91 64.0918 66.3794 64.0918 65.654C64.0918 64.9234 64.0091 64.3954 63.8438 64.07C63.6785 63.7394 63.4145 63.574 63.0518 63.574C62.6891 63.574 62.4251 63.7394 62.2598 64.07C62.0945 64.4007 62.0118 64.9287 62.0118 65.654C62.0118 66.3794 62.0945 66.91 62.2598 67.246C62.4251 67.5767 62.6891 67.742 63.0518 67.742ZM67.6647 62.766C68.3793 62.766 68.9287 63.0087 69.3127 63.494C69.702 63.974 69.8967 64.662 69.8967 65.558C69.8967 66.1714 69.806 66.7047 69.6247 67.158C69.4433 67.606 69.182 67.95 68.8407 68.19C68.5047 68.43 68.1073 68.55 67.6487 68.55C67.3447 68.55 67.038 68.4967 66.7287 68.39C66.4247 68.278 66.166 68.1287 65.9527 67.942C65.8833 67.8834 65.8327 67.8274 65.8007 67.774C65.774 67.7154 65.7607 67.646 65.7607 67.566C65.7607 67.4487 65.7927 67.35 65.8567 67.27C65.926 67.1847 66.006 67.142 66.0967 67.142C66.15 67.142 66.2007 67.1527 66.2487 67.174C66.2967 67.19 66.3553 67.2194 66.4247 67.262C66.8673 67.5714 67.262 67.726 67.6087 67.726C67.998 67.726 68.3047 67.5474 68.5287 67.19C68.7527 66.8274 68.87 66.3207 68.8807 65.67C68.758 65.91 68.574 66.102 68.3287 66.246C68.0833 66.3847 67.8087 66.454 67.5047 66.454C67.1687 66.454 66.87 66.3794 66.6087 66.23C66.3473 66.0754 66.142 65.862 65.9927 65.59C65.8487 65.3127 65.7767 64.998 65.7767 64.646C65.7767 64.2834 65.8567 63.9607 66.0167 63.678C66.182 63.39 66.406 63.166 66.6887 63.006C66.9767 62.846 67.302 62.766 67.6647 62.766ZM67.7207 65.638C68.0193 65.638 68.2593 65.5447 68.4407 65.358C68.6273 65.166 68.7207 64.918 68.7207 64.614C68.7207 64.3047 68.6273 64.0567 68.4407 63.87C68.2593 63.678 68.0193 63.582 67.7207 63.582C67.4273 63.582 67.1927 63.678 67.0167 63.87C66.8407 64.0567 66.7527 64.3047 66.7527 64.614C66.7527 64.9234 66.8407 65.1714 67.0167 65.358C67.1927 65.5447 67.4273 65.638 67.7207 65.638ZM70.9495 68.75C70.9175 68.8514 70.8669 68.926 70.7975 68.974C70.7282 69.022 70.6509 69.046 70.5655 69.046C70.4589 69.046 70.3629 69.0087 70.2775 68.934C70.1975 68.8647 70.1575 68.774 70.1575 68.662C70.1575 68.614 70.1655 68.566 70.1815 68.518L72.0375 62.702C72.0695 62.6007 72.1202 62.526 72.1895 62.478C72.2589 62.43 72.3362 62.406 72.4215 62.406C72.5282 62.406 72.6215 62.4434 72.7015 62.518C72.7869 62.5874 72.8295 62.678 72.8295 62.79C72.8295 62.838 72.8215 62.886 72.8055 62.934L70.9495 68.75ZM76.7614 67.646C77.0814 67.646 77.2414 67.782 77.2414 68.054C77.2414 68.3367 77.0814 68.478 76.7614 68.478H74.0574C73.732 68.478 73.5694 68.3367 73.5694 68.054C73.5694 67.782 73.732 67.646 74.0574 67.646H74.8894V63.998L74.1214 64.47C74.0467 64.5127 73.98 64.534 73.9214 64.534C73.8094 64.534 73.7134 64.486 73.6334 64.39C73.5587 64.294 73.5214 64.1874 73.5214 64.07C73.5214 63.9154 73.5907 63.7954 73.7294 63.71L74.9694 62.942C75.1294 62.846 75.2814 62.798 75.4254 62.798C75.5747 62.798 75.6947 62.8434 75.7854 62.934C75.876 63.0247 75.9214 63.15 75.9214 63.31V67.646H76.7614ZM81.5582 67.646C81.8782 67.646 82.0382 67.782 82.0382 68.054C82.0382 68.3367 81.8782 68.478 81.5582 68.478H78.8542C78.5289 68.478 78.3662 68.3367 78.3662 68.054C78.3662 67.782 78.5289 67.646 78.8542 67.646H79.6862V63.998L78.9182 64.47C78.8436 64.5127 78.7769 64.534 78.7182 64.534C78.6062 64.534 78.5102 64.486 78.4302 64.39C78.3556 64.294 78.3182 64.1874 78.3182 64.07C78.3182 63.9154 78.3876 63.7954 78.5262 63.71L79.7662 62.942C79.9262 62.846 80.0782 62.798 80.2222 62.798C80.3716 62.798 80.4916 62.8434 80.5822 62.934C80.6729 63.0247 80.7182 63.15 80.7182 63.31V67.646H81.5582ZM83.0511 68.75C83.0191 68.8514 82.9684 68.926 82.8991 68.974C82.8298 69.022 82.7524 69.046 82.6671 69.046C82.5604 69.046 82.4644 69.0087 82.3791 68.934C82.2991 68.8647 82.2591 68.774 82.2591 68.662C82.2591 68.614 82.2671 68.566 82.2831 68.518L84.1391 62.702C84.1711 62.6007 84.2218 62.526 84.2911 62.478C84.3604 62.43 84.4378 62.406 84.5231 62.406C84.6298 62.406 84.7231 62.4434 84.8031 62.518C84.8884 62.5874 84.9311 62.678 84.9311 62.79C84.9311 62.838 84.9231 62.886 84.9071 62.934L83.0511 68.75ZM88.8389 67.646C89.1589 67.646 89.3189 67.782 89.3189 68.054C89.3189 68.3367 89.1589 68.478 88.8389 68.478H85.7989C85.6603 68.478 85.5509 68.438 85.4709 68.358C85.3909 68.2727 85.3509 68.1687 85.3509 68.046C85.3509 67.886 85.4123 67.742 85.5349 67.614L87.3589 65.654C87.5829 65.4087 87.7456 65.1847 87.8469 64.982C87.9536 64.774 88.0069 64.5687 88.0069 64.366C88.0069 64.1154 87.9349 63.9234 87.7909 63.79C87.6469 63.6567 87.4416 63.59 87.1749 63.59C86.9563 63.59 86.7429 63.6327 86.5349 63.718C86.3323 63.798 86.1269 63.91 85.9189 64.054C85.8656 64.0914 85.8123 64.1234 85.7589 64.15C85.7056 64.1714 85.6523 64.182 85.5989 64.182C85.5083 64.182 85.4283 64.1394 85.3589 64.054C85.2949 63.9687 85.2629 63.8674 85.2629 63.75C85.2629 63.67 85.2763 63.6007 85.3029 63.542C85.3349 63.4834 85.3829 63.4274 85.4469 63.374C85.6816 63.1874 85.9563 63.0407 86.2709 62.934C86.5856 62.822 86.9003 62.766 87.2149 62.766C87.7643 62.766 88.2016 62.9047 88.5269 63.182C88.8576 63.4594 89.0229 63.8327 89.0229 64.302C89.0229 64.6274 88.9536 64.934 88.8149 65.222C88.6763 65.5047 88.4416 65.822 88.1109 66.174L86.7269 67.646H88.8389ZM92.0596 68.55C91.3929 68.55 90.8836 68.3047 90.5316 67.814C90.1796 67.318 90.0036 66.598 90.0036 65.654C90.0036 64.7154 90.1796 64.0007 90.5316 63.51C90.8836 63.014 91.3929 62.766 92.0596 62.766C92.7263 62.766 93.2356 63.014 93.5876 63.51C93.9396 64.0007 94.1156 64.7154 94.1156 65.654C94.1156 66.5927 93.9396 67.31 93.5876 67.806C93.2356 68.302 92.7263 68.55 92.0596 68.55ZM92.0596 67.742C92.4223 67.742 92.6863 67.5767 92.8516 67.246C93.0169 66.91 93.0996 66.3794 93.0996 65.654C93.0996 64.9234 93.0169 64.3954 92.8516 64.07C92.6863 63.7394 92.4223 63.574 92.0596 63.574C91.6969 63.574 91.4329 63.7394 91.2676 64.07C91.1023 64.4007 91.0196 64.9287 91.0196 65.654C91.0196 66.3794 91.1023 66.91 91.2676 67.246C91.4329 67.5767 91.6969 67.742 92.0596 67.742ZM98.4405 67.646C98.7605 67.646 98.9205 67.782 98.9205 68.054C98.9205 68.3367 98.7605 68.478 98.4405 68.478H95.4005C95.2618 68.478 95.1525 68.438 95.0725 68.358C94.9925 68.2727 94.9525 68.1687 94.9525 68.046C94.9525 67.886 95.0138 67.742 95.1365 67.614L96.9605 65.654C97.1845 65.4087 97.3471 65.1847 97.4485 64.982C97.5551 64.774 97.6085 64.5687 97.6085 64.366C97.6085 64.1154 97.5365 63.9234 97.3925 63.79C97.2485 63.6567 97.0431 63.59 96.7765 63.59C96.5578 63.59 96.3445 63.6327 96.1365 63.718C95.9338 63.798 95.7285 63.91 95.5205 64.054C95.4671 64.0914 95.4138 64.1234 95.3605 64.15C95.3071 64.1714 95.2538 64.182 95.2005 64.182C95.1098 64.182 95.0298 64.1394 94.9605 64.054C94.8965 63.9687 94.8645 63.8674 94.8645 63.75C94.8645 63.67 94.8778 63.6007 94.9045 63.542C94.9365 63.4834 94.9845 63.4274 95.0485 63.374C95.2831 63.1874 95.5578 63.0407 95.8725 62.934C96.1871 62.822 96.5018 62.766 96.8165 62.766C97.3658 62.766 97.8031 62.9047 98.1285 63.182C98.4591 63.4594 98.6245 63.8327 98.6245 64.302C98.6245 64.6274 98.5551 64.934 98.4165 65.222C98.2778 65.5047 98.0431 65.822 97.7125 66.174L96.3285 67.646H98.4405ZM101.661 68.55C100.995 68.55 100.485 68.3047 100.133 67.814C99.7812 67.318 99.6052 66.598 99.6052 65.654C99.6052 64.7154 99.7812 64.0007 100.133 63.51C100.485 63.014 100.995 62.766 101.661 62.766C102.328 62.766 102.837 63.014 103.189 63.51C103.541 64.0007 103.717 64.7154 103.717 65.654C103.717 66.5927 103.541 67.31 103.189 67.806C102.837 68.302 102.328 68.55 101.661 68.55ZM101.661 67.742C102.024 67.742 102.288 67.5767 102.453 67.246C102.619 66.91 102.701 66.3794 102.701 65.654C102.701 64.9234 102.619 64.3954 102.453 64.07C102.288 63.7394 102.024 63.574 101.661 63.574C101.299 63.574 101.035 63.7394 100.869 64.07C100.704 64.4007 100.621 64.9287 100.621 65.654C100.621 66.3794 100.704 66.91 100.869 67.246C101.035 67.5767 101.299 67.742 101.661 67.742Z" fill="#B8C0CC"/>
<path d="M63.0518 109.709C62.3851 109.709 61.8758 109.463 61.5238 108.973C61.1718 108.477 60.9958 107.757 60.9958 106.813C60.9958 105.874 61.1718 105.159 61.5238 104.669C61.8758 104.173 62.3851 103.925 63.0518 103.925C63.7185 103.925 64.2278 104.173 64.5798 104.669C64.9318 105.159 65.1078 105.874 65.1078 106.813C65.1078 107.751 64.9318 108.469 64.5798 108.965C64.2278 109.461 63.7185 109.709 63.0518 109.709ZM63.0518 108.901C63.4145 108.901 63.6785 108.735 63.8438 108.405C64.0091 108.069 64.0918 107.538 64.0918 106.813C64.0918 106.082 64.0091 105.554 63.8438 105.229C63.6785 104.898 63.4145 104.733 63.0518 104.733C62.6891 104.733 62.4251 104.898 62.2598 105.229C62.0945 105.559 62.0118 106.087 62.0118 106.813C62.0118 107.538 62.0945 108.069 62.2598 108.405C62.4251 108.735 62.6891 108.901 63.0518 108.901ZM67.6647 103.925C68.3793 103.925 68.9287 104.167 69.3127 104.653C69.702 105.133 69.8967 105.821 69.8967 106.717C69.8967 107.33 69.806 107.863 69.6247 108.317C69.4433 108.765 69.182 109.109 68.8407 109.349C68.5047 109.589 68.1073 109.709 67.6487 109.709C67.3447 109.709 67.038 109.655 66.7287 109.549C66.4247 109.437 66.166 109.287 65.9527 109.101C65.8833 109.042 65.8327 108.986 65.8007 108.933C65.774 108.874 65.7607 108.805 65.7607 108.725C65.7607 108.607 65.7927 108.509 65.8567 108.429C65.926 108.343 66.006 108.301 66.0967 108.301C66.15 108.301 66.2007 108.311 66.2487 108.333C66.2967 108.349 66.3553 108.378 66.4247 108.421C66.8673 108.73 67.262 108.885 67.6087 108.885C67.998 108.885 68.3047 108.706 68.5287 108.349C68.7527 107.986 68.87 107.479 68.8807 106.829C68.758 107.069 68.574 107.261 68.3287 107.405C68.0833 107.543 67.8087 107.613 67.5047 107.613C67.1687 107.613 66.87 107.538 66.6087 107.389C66.3473 107.234 66.142 107.021 65.9927 106.749C65.8487 106.471 65.7767 106.157 65.7767 105.805C65.7767 105.442 65.8567 105.119 66.0167 104.837C66.182 104.549 66.406 104.325 66.6887 104.165C66.9767 104.005 67.302 103.925 67.6647 103.925ZM67.7207 106.797C68.0193 106.797 68.2593 106.703 68.4407 106.517C68.6273 106.325 68.7207 106.077 68.7207 105.773C68.7207 105.463 68.6273 105.215 68.4407 105.029C68.2593 104.837 68.0193 104.741 67.7207 104.741C67.4273 104.741 67.1927 104.837 67.0167 105.029C66.8407 105.215 66.7527 105.463 66.7527 105.773C66.7527 106.082 66.8407 106.33 67.0167 106.517C67.1927 106.703 67.4273 106.797 67.7207 106.797ZM70.9495 109.909C70.9175 110.01 70.8669 110.085 70.7975 110.133C70.7282 110.181 70.6509 110.205 70.5655 110.205C70.4589 110.205 70.3629 110.167 70.2775 110.093C70.1975 110.023 70.1575 109.933 70.1575 109.821C70.1575 109.773 70.1655 109.725 70.1815 109.677L72.0375 103.861C72.0695 103.759 72.1202 103.685 72.1895 103.637C72.2589 103.589 72.3362 103.565 72.4215 103.565C72.5282 103.565 72.6215 103.602 72.7015 103.677C72.7869 103.746 72.8295 103.837 72.8295 103.949C72.8295 103.997 72.8215 104.045 72.8055 104.093L70.9495 109.909ZM76.7614 108.805C77.0814 108.805 77.2414 108.941 77.2414 109.213C77.2414 109.495 77.0814 109.637 76.7614 109.637H74.0574C73.732 109.637 73.5694 109.495 73.5694 109.213C73.5694 108.941 73.732 108.805 74.0574 108.805H74.8894V105.157L74.1214 105.629C74.0467 105.671 73.98 105.693 73.9214 105.693C73.8094 105.693 73.7134 105.645 73.6334 105.549C73.5587 105.453 73.5214 105.346 73.5214 105.229C73.5214 105.074 73.5907 104.954 73.7294 104.869L74.9694 104.101C75.1294 104.005 75.2814 103.957 75.4254 103.957C75.5747 103.957 75.6947 104.002 75.7854 104.093C75.876 104.183 75.9214 104.309 75.9214 104.469V108.805H76.7614ZM80.2462 106.029C80.5982 106.029 80.9076 106.106 81.1742 106.261C81.4462 106.41 81.6569 106.621 81.8062 106.893C81.9556 107.165 82.0302 107.477 82.0302 107.829C82.0302 108.197 81.9449 108.522 81.7742 108.805C81.6089 109.087 81.3716 109.309 81.0622 109.469C80.7582 109.623 80.4062 109.701 80.0062 109.701C79.6756 109.701 79.3502 109.647 79.0302 109.541C78.7156 109.429 78.4462 109.279 78.2222 109.093C78.0996 108.986 78.0382 108.861 78.0382 108.717C78.0382 108.599 78.0702 108.501 78.1342 108.421C78.2036 108.335 78.2836 108.293 78.3742 108.293C78.4276 108.293 78.4782 108.303 78.5262 108.325C78.5742 108.341 78.6302 108.37 78.6942 108.413C78.9076 108.562 79.1156 108.677 79.3182 108.757C79.5209 108.837 79.7369 108.877 79.9662 108.877C80.3182 108.877 80.5876 108.789 80.7742 108.613C80.9609 108.437 81.0542 108.186 81.0542 107.861C81.0542 107.546 80.9582 107.298 80.7662 107.117C80.5796 106.93 80.3209 106.837 79.9902 106.837C79.7822 106.837 79.5956 106.866 79.4302 106.925C79.2702 106.983 79.1049 107.082 78.9342 107.221C78.8329 107.29 78.7289 107.325 78.6222 107.325C78.5156 107.325 78.4249 107.293 78.3502 107.229C78.2756 107.165 78.2382 107.079 78.2382 106.973V104.477C78.2382 104.327 78.2809 104.21 78.3662 104.125C78.4516 104.039 78.5716 103.997 78.7262 103.997H81.3902C81.7102 103.997 81.8702 104.13 81.8702 104.397C81.8702 104.663 81.7102 104.797 81.3902 104.797H79.2462V106.317C79.5182 106.125 79.8516 106.029 80.2462 106.029ZM83.0511 109.909C83.0191 110.01 82.9684 110.085 82.8991 110.133C82.8298 110.181 82.7524 110.205 82.6671 110.205C82.5604 110.205 82.4644 110.167 82.3791 110.093C82.2991 110.023 82.2591 109.933 82.2591 109.821C82.2591 109.773 82.2671 109.725 82.2831 109.677L84.1391 103.861C84.1711 103.759 84.2218 103.685 84.2911 103.637C84.3604 103.589 84.4378 103.565 84.5231 103.565C84.6298 103.565 84.7231 103.602 84.8031 103.677C84.8884 103.746 84.9311 103.837 84.9311 103.949C84.9311 103.997 84.9231 104.045 84.9071 104.093L83.0511 109.909ZM88.8389 108.805C89.1589 108.805 89.3189 108.941 89.3189 109.213C89.3189 109.495 89.1589 109.637 88.8389 109.637H85.7989C85.6603 109.637 85.5509 109.597 85.4709 109.517C85.3909 109.431 85.3509 109.327 85.3509 109.205C85.3509 109.045 85.4123 108.901 85.5349 108.773L87.3589 106.813C87.5829 106.567 87.7456 106.343 87.8469 106.141C87.9536 105.933 88.0069 105.727 88.0069 105.525C88.0069 105.274 87.9349 105.082 87.7909 104.949C87.6469 104.815 87.4416 104.749 87.1749 104.749C86.9563 104.749 86.7429 104.791 86.5349 104.877C86.3323 104.957 86.1269 105.069 85.9189 105.213C85.8656 105.25 85.8123 105.282 85.7589 105.309C85.7056 105.33 85.6523 105.341 85.5989 105.341C85.5083 105.341 85.4283 105.298 85.3589 105.213C85.2949 105.127 85.2629 105.026 85.2629 104.909C85.2629 104.829 85.2763 104.759 85.3029 104.701C85.3349 104.642 85.3829 104.586 85.4469 104.533C85.6816 104.346 85.9563 104.199 86.2709 104.093C86.5856 103.981 86.9003 103.925 87.2149 103.925C87.7643 103.925 88.2016 104.063 88.5269 104.341C88.8576 104.618 89.0229 104.991 89.0229 105.461C89.0229 105.786 88.9536 106.093 88.8149 106.381C88.6763 106.663 88.4416 106.981 88.1109 107.333L86.7269 108.805H88.8389ZM92.0596 109.709C91.3929 109.709 90.8836 109.463 90.5316 108.973C90.1796 108.477 90.0036 107.757 90.0036 106.813C90.0036 105.874 90.1796 105.159 90.5316 104.669C90.8836 104.173 91.3929 103.925 92.0596 103.925C92.7263 103.925 93.2356 104.173 93.5876 104.669C93.9396 105.159 94.1156 105.874 94.1156 106.813C94.1156 107.751 93.9396 108.469 93.5876 108.965C93.2356 109.461 92.7263 109.709 92.0596 109.709ZM92.0596 108.901C92.4223 108.901 92.6863 108.735 92.8516 108.405C93.0169 108.069 93.0996 107.538 93.0996 106.813C93.0996 106.082 93.0169 105.554 92.8516 105.229C92.6863 104.898 92.4223 104.733 92.0596 104.733C91.6969 104.733 91.4329 104.898 91.2676 105.229C91.1023 105.559 91.0196 106.087 91.0196 106.813C91.0196 107.538 91.1023 108.069 91.2676 108.405C91.4329 108.735 91.6969 108.901 92.0596 108.901ZM98.4405 108.805C98.7605 108.805 98.9205 108.941 98.9205 109.213C98.9205 109.495 98.7605 109.637 98.4405 109.637H95.4005C95.2618 109.637 95.1525 109.597 95.0725 109.517C94.9925 109.431 94.9525 109.327 94.9525 109.205C94.9525 109.045 95.0138 108.901 95.1365 108.773L96.9605 106.813C97.1845 106.567 97.3471 106.343 97.4485 106.141C97.5551 105.933 97.6085 105.727 97.6085 105.525C97.6085 105.274 97.5365 105.082 97.3925 104.949C97.2485 104.815 97.0431 104.749 96.7765 104.749C96.5578 104.749 96.3445 104.791 96.1365 104.877C95.9338 104.957 95.7285 105.069 95.5205 105.213C95.4671 105.25 95.4138 105.282 95.3605 105.309C95.3071 105.33 95.2538 105.341 95.2005 105.341C95.1098 105.341 95.0298 105.298 94.9605 105.213C94.8965 105.127 94.8645 105.026 94.8645 104.909C94.8645 104.829 94.8778 104.759 94.9045 104.701C94.9365 104.642 94.9845 104.586 95.0485 104.533C95.2831 104.346 95.5578 104.199 95.8725 104.093C96.1871 103.981 96.5018 103.925 96.8165 103.925C97.3658 103.925 97.8031 104.063 98.1285 104.341C98.4591 104.618 98.6245 104.991 98.6245 105.461C98.6245 105.786 98.5551 106.093 98.4165 106.381C98.2778 106.663 98.0431 106.981 97.7125 107.333L96.3285 108.805H98.4405ZM101.661 109.709C100.995 109.709 100.485 109.463 100.133 108.973C99.7812 108.477 99.6052 107.757 99.6052 106.813C99.6052 105.874 99.7812 105.159 100.133 104.669C100.485 104.173 100.995 103.925 101.661 103.925C102.328 103.925 102.837 104.173 103.189 104.669C103.541 105.159 103.717 105.874 103.717 106.813C103.717 107.751 103.541 108.469 103.189 108.965C102.837 109.461 102.328 109.709 101.661 109.709ZM101.661 108.901C102.024 108.901 102.288 108.735 102.453 108.405C102.619 108.069 102.701 107.538 102.701 106.813C102.701 106.082 102.619 105.554 102.453 105.229C102.288 104.898 102.024 104.733 101.661 104.733C101.299 104.733 101.035 104.898 100.869 105.229C100.704 105.559 100.621 106.087 100.621 106.813C100.621 107.538 100.704 108.069 100.869 108.405C101.035 108.735 101.299 108.901 101.661 108.901Z" fill="#B8C0CC"/>
<path d="M142.273 60.3415C141.729 60.3415 141.252 60.2242 140.841 59.9895C140.436 59.7549 140.124 59.4189 139.905 58.9815C139.686 58.5442 139.577 58.0322 139.577 57.4455C139.577 56.8589 139.686 56.3495 139.905 55.9175C140.124 55.4802 140.436 55.1442 140.841 54.9095C141.252 54.6749 141.729 54.5575 142.273 54.5575C142.625 54.5575 142.956 54.6109 143.265 54.7175C143.574 54.8189 143.849 54.9682 144.089 55.1655C144.158 55.2189 144.206 55.2749 144.233 55.3335C144.26 55.3922 144.273 55.4642 144.273 55.5495C144.273 55.6669 144.241 55.7655 144.177 55.8455C144.113 55.9255 144.036 55.9655 143.945 55.9655C143.838 55.9655 143.729 55.9282 143.617 55.8535C143.388 55.6829 143.174 55.5655 142.977 55.5015C142.78 55.4322 142.561 55.3975 142.321 55.3975C141.766 55.3975 141.345 55.5709 141.057 55.9175C140.774 56.2642 140.633 56.7735 140.633 57.4455C140.633 58.1229 140.774 58.6349 141.057 58.9815C141.345 59.3282 141.766 59.5015 142.321 59.5015C142.55 59.5015 142.761 59.4669 142.953 59.3975C143.15 59.3282 143.372 59.2109 143.617 59.0455C143.67 59.0135 143.724 58.9869 143.777 58.9655C143.83 58.9442 143.886 58.9335 143.945 58.9335C144.036 58.9335 144.113 58.9735 144.177 59.0535C144.241 59.1335 144.273 59.2322 144.273 59.3495C144.273 59.4295 144.26 59.5015 144.233 59.5655C144.206 59.6242 144.158 59.6802 144.089 59.7335C143.849 59.9309 143.574 60.0829 143.265 60.1895C142.956 60.2909 142.625 60.3415 142.273 60.3415ZM150.185 59.6535C150.217 59.7229 150.233 59.7922 150.233 59.8615C150.233 59.9842 150.183 60.0882 150.081 60.1735C149.985 60.2589 149.873 60.3015 149.745 60.3015C149.66 60.3015 149.58 60.2802 149.505 60.2375C149.431 60.1895 149.372 60.1175 149.329 60.0215L148.849 58.9495H146.033L145.553 60.0215C145.511 60.1175 145.452 60.1895 145.377 60.2375C145.303 60.2802 145.22 60.3015 145.129 60.3015C145.007 60.3015 144.895 60.2589 144.793 60.1735C144.692 60.0882 144.641 59.9842 144.641 59.8615C144.641 59.7922 144.657 59.7229 144.689 59.6535L146.897 54.9095C146.945 54.8029 147.017 54.7229 147.113 54.6695C147.215 54.6109 147.321 54.5815 147.433 54.5815C147.545 54.5815 147.649 54.6109 147.745 54.6695C147.847 54.7229 147.921 54.8029 147.969 54.9095L150.185 59.6535ZM146.385 58.1495H148.497L147.441 55.7735L146.385 58.1495ZM155.283 54.5895C155.432 54.5895 155.549 54.6375 155.635 54.7335C155.725 54.8242 155.771 54.9469 155.771 55.1015V59.7975C155.771 59.9522 155.725 60.0775 155.635 60.1735C155.544 60.2695 155.427 60.3175 155.283 60.3175C155.112 60.3175 154.981 60.2562 154.891 60.1335L151.971 56.3335V59.7975C151.971 59.9522 151.928 60.0775 151.843 60.1735C151.757 60.2695 151.64 60.3175 151.491 60.3175C151.341 60.3175 151.224 60.2695 151.139 60.1735C151.053 60.0775 151.011 59.9522 151.011 59.7975V55.1015C151.011 54.9469 151.056 54.8242 151.147 54.7335C151.237 54.6375 151.357 54.5895 151.507 54.5895C151.672 54.5895 151.8 54.6509 151.891 54.7735L154.803 58.5575V55.1015C154.803 54.9469 154.845 54.8242 154.931 54.7335C155.021 54.6375 155.139 54.5895 155.283 54.5895ZM159.507 60.3415C158.963 60.3415 158.486 60.2242 158.075 59.9895C157.67 59.7549 157.358 59.4189 157.139 58.9815C156.921 58.5442 156.811 58.0322 156.811 57.4455C156.811 56.8589 156.921 56.3495 157.139 55.9175C157.358 55.4802 157.67 55.1442 158.075 54.9095C158.486 54.6749 158.963 54.5575 159.507 54.5575C159.859 54.5575 160.19 54.6109 160.499 54.7175C160.809 54.8189 161.083 54.9682 161.323 55.1655C161.393 55.2189 161.441 55.2749 161.467 55.3335C161.494 55.3922 161.507 55.4642 161.507 55.5495C161.507 55.6669 161.475 55.7655 161.411 55.8455C161.347 55.9255 161.27 55.9655 161.179 55.9655C161.073 55.9655 160.963 55.9282 160.851 55.8535C160.622 55.6829 160.409 55.5655 160.211 55.5015C160.014 55.4322 159.795 55.3975 159.555 55.3975C159.001 55.3975 158.579 55.5709 158.291 55.9175C158.009 56.2642 157.867 56.7735 157.867 57.4455C157.867 58.1229 158.009 58.6349 158.291 58.9815C158.579 59.3282 159.001 59.5015 159.555 59.5015C159.785 59.5015 159.995 59.4669 160.187 59.3975C160.385 59.3282 160.606 59.2109 160.851 59.0455C160.905 59.0135 160.958 58.9869 161.011 58.9655C161.065 58.9442 161.121 58.9335 161.179 58.9335C161.27 58.9335 161.347 58.9735 161.411 59.0535C161.475 59.1335 161.507 59.2322 161.507 59.3495C161.507 59.4295 161.494 59.5015 161.467 59.5655C161.441 59.6242 161.393 59.6802 161.323 59.7335C161.083 59.9309 160.809 60.0829 160.499 60.1895C160.19 60.2909 159.859 60.3415 159.507 60.3415ZM162.905 60.2695C162.75 60.2695 162.628 60.2269 162.537 60.1415C162.452 60.0562 162.409 59.9362 162.409 59.7815V55.1175C162.409 54.9629 162.452 54.8429 162.537 54.7575C162.628 54.6722 162.75 54.6295 162.905 54.6295H165.793C165.948 54.6295 166.068 54.6642 166.153 54.7335C166.238 54.8029 166.281 54.9015 166.281 55.0295C166.281 55.1629 166.238 55.2669 166.153 55.3415C166.068 55.4109 165.948 55.4455 165.793 55.4455H163.417V56.9975H165.633C165.788 56.9975 165.908 57.0322 165.993 57.1015C166.078 57.1709 166.121 57.2722 166.121 57.4055C166.121 57.5335 166.078 57.6322 165.993 57.7015C165.908 57.7709 165.788 57.8055 165.633 57.8055H163.417V59.4535H165.793C165.948 59.4535 166.068 59.4909 166.153 59.5655C166.238 59.6349 166.281 59.7362 166.281 59.8695C166.281 59.9975 166.238 60.0962 166.153 60.1655C166.068 60.2349 165.948 60.2695 165.793 60.2695H162.905ZM167.608 60.2695C167.453 60.2695 167.333 60.2269 167.248 60.1415C167.163 60.0562 167.12 59.9389 167.12 59.7895V55.1015C167.12 54.9469 167.165 54.8242 167.256 54.7335C167.352 54.6375 167.477 54.5895 167.632 54.5895C167.792 54.5895 167.917 54.6375 168.008 54.7335C168.104 54.8242 168.152 54.9469 168.152 55.1015V59.4215H170.4C170.72 59.4215 170.88 59.5629 170.88 59.8455C170.88 60.1282 170.72 60.2695 170.4 60.2695H167.608Z" fill="#EC008C"/>
<path d="M133.649 102.214C133.713 102.31 133.745 102.404 133.745 102.494C133.745 102.617 133.694 102.718 133.593 102.798C133.497 102.878 133.382 102.918 133.249 102.918C133.163 102.918 133.081 102.9 133.001 102.862C132.926 102.82 132.862 102.758 132.809 102.678L131.745 101.062C131.638 100.892 131.523 100.772 131.401 100.702C131.283 100.633 131.129 100.598 130.937 100.598H130.153V102.39C130.153 102.55 130.107 102.678 130.017 102.774C129.926 102.865 129.803 102.91 129.649 102.91C129.494 102.91 129.369 102.865 129.273 102.774C129.182 102.678 129.137 102.55 129.137 102.39V97.7103C129.137 97.5556 129.179 97.4356 129.265 97.3503C129.355 97.265 129.478 97.2223 129.633 97.2223H131.633C132.273 97.2223 132.758 97.3663 133.089 97.6543C133.425 97.937 133.593 98.3476 133.593 98.8863C133.593 99.3236 133.467 99.6836 133.217 99.9663C132.971 100.244 132.622 100.422 132.169 100.502C132.323 100.54 132.459 100.606 132.577 100.702C132.694 100.798 132.809 100.932 132.921 101.102L133.649 102.214ZM131.489 99.8063C131.878 99.8063 132.163 99.7343 132.345 99.5903C132.526 99.441 132.617 99.2143 132.617 98.9103C132.617 98.601 132.526 98.377 132.345 98.2383C132.163 98.0943 131.878 98.0223 131.489 98.0223H130.145V99.8063H131.489ZM135.195 102.862C135.04 102.862 134.918 102.82 134.827 102.734C134.742 102.649 134.699 102.529 134.699 102.374V97.7103C134.699 97.5556 134.742 97.4356 134.827 97.3503C134.918 97.265 135.04 97.2223 135.195 97.2223H138.083C138.238 97.2223 138.358 97.257 138.443 97.3263C138.528 97.3956 138.571 97.4943 138.571 97.6223C138.571 97.7556 138.528 97.8596 138.443 97.9343C138.358 98.0036 138.238 98.0383 138.083 98.0383H135.707V99.5903H137.923C138.078 99.5903 138.198 99.625 138.283 99.6943C138.368 99.7636 138.411 99.865 138.411 99.9983C138.411 100.126 138.368 100.225 138.283 100.294C138.198 100.364 138.078 100.398 137.923 100.398H135.707V102.046H138.083C138.238 102.046 138.358 102.084 138.443 102.158C138.528 102.228 138.571 102.329 138.571 102.462C138.571 102.59 138.528 102.689 138.443 102.758C138.358 102.828 138.238 102.862 138.083 102.862H135.195ZM141.284 102.934C140.873 102.934 140.484 102.881 140.116 102.774C139.753 102.662 139.457 102.513 139.228 102.326C139.105 102.236 139.044 102.108 139.044 101.942C139.044 101.83 139.076 101.734 139.14 101.654C139.209 101.569 139.289 101.526 139.38 101.526C139.476 101.526 139.585 101.564 139.708 101.638C139.937 101.804 140.177 101.924 140.428 101.998C140.679 102.073 140.956 102.11 141.26 102.11C141.649 102.11 141.948 102.044 142.156 101.91C142.364 101.772 142.468 101.572 142.468 101.31C142.468 101.108 142.369 100.953 142.172 100.846C141.98 100.734 141.657 100.628 141.204 100.526C140.735 100.425 140.353 100.308 140.06 100.174C139.767 100.041 139.545 99.8703 139.396 99.6623C139.247 99.4543 139.172 99.1903 139.172 98.8703C139.172 98.5396 139.265 98.2436 139.452 97.9823C139.639 97.721 139.897 97.5183 140.228 97.3743C140.564 97.225 140.94 97.1503 141.356 97.1503C142.119 97.1503 142.74 97.353 143.22 97.7583C143.289 97.817 143.337 97.8756 143.364 97.9343C143.396 97.9876 143.412 98.057 143.412 98.1423C143.412 98.2543 143.377 98.353 143.308 98.4383C143.244 98.5183 143.167 98.5583 143.076 98.5583C143.023 98.5583 142.972 98.5503 142.924 98.5343C142.881 98.5183 142.823 98.489 142.748 98.4463C142.529 98.2863 142.316 98.169 142.108 98.0943C141.905 98.0143 141.655 97.9743 141.356 97.9743C140.993 97.9743 140.705 98.049 140.492 98.1983C140.284 98.3423 140.18 98.545 140.18 98.8063C140.18 99.025 140.273 99.193 140.46 99.3103C140.647 99.4276 140.964 99.537 141.412 99.6383C141.887 99.745 142.271 99.865 142.564 99.9983C142.863 100.126 143.089 100.292 143.244 100.494C143.404 100.697 143.484 100.95 143.484 101.254C143.484 101.585 143.391 101.878 143.204 102.134C143.023 102.385 142.764 102.582 142.428 102.726C142.097 102.865 141.716 102.934 141.284 102.934ZM146.953 102.934C146.409 102.934 145.932 102.817 145.521 102.582C145.116 102.348 144.804 102.012 144.585 101.574C144.367 101.137 144.257 100.625 144.257 100.038C144.257 99.4516 144.367 98.9423 144.585 98.5103C144.804 98.073 145.116 97.737 145.521 97.5023C145.932 97.2676 146.409 97.1503 146.953 97.1503C147.305 97.1503 147.636 97.2036 147.945 97.3103C148.255 97.4116 148.529 97.561 148.769 97.7583C148.839 97.8116 148.887 97.8676 148.913 97.9263C148.94 97.985 148.953 98.057 148.953 98.1423C148.953 98.2596 148.921 98.3583 148.857 98.4383C148.793 98.5183 148.716 98.5583 148.625 98.5583C148.519 98.5583 148.409 98.521 148.297 98.4463C148.068 98.2756 147.855 98.1583 147.657 98.0943C147.46 98.025 147.241 97.9903 147.001 97.9903C146.447 97.9903 146.025 98.1636 145.737 98.5103C145.455 98.857 145.313 99.3663 145.313 100.038C145.313 100.716 145.455 101.228 145.737 101.574C146.025 101.921 146.447 102.094 147.001 102.094C147.231 102.094 147.441 102.06 147.633 101.99C147.831 101.921 148.052 101.804 148.297 101.638C148.351 101.606 148.404 101.58 148.457 101.558C148.511 101.537 148.567 101.526 148.625 101.526C148.716 101.526 148.793 101.566 148.857 101.646C148.921 101.726 148.953 101.825 148.953 101.942C148.953 102.022 148.94 102.094 148.913 102.158C148.887 102.217 148.839 102.273 148.769 102.326C148.529 102.524 148.255 102.676 147.945 102.782C147.636 102.884 147.305 102.934 146.953 102.934ZM154.263 97.1823C154.418 97.1823 154.541 97.2303 154.631 97.3263C154.722 97.417 154.767 97.5396 154.767 97.6943V102.39C154.767 102.545 154.719 102.67 154.623 102.766C154.533 102.862 154.413 102.91 154.263 102.91C154.109 102.91 153.986 102.862 153.895 102.766C153.805 102.67 153.759 102.545 153.759 102.39V100.414H150.871V102.39C150.871 102.545 150.823 102.67 150.727 102.766C150.637 102.862 150.514 102.91 150.359 102.91C150.21 102.91 150.087 102.862 149.991 102.766C149.901 102.67 149.855 102.545 149.855 102.39V97.6943C149.855 97.5396 149.901 97.417 149.991 97.3263C150.082 97.2303 150.205 97.1823 150.359 97.1823C150.514 97.1823 150.637 97.2303 150.727 97.3263C150.823 97.417 150.871 97.5396 150.871 97.6943V99.5823H153.759V97.6943C153.759 97.5396 153.805 97.417 153.895 97.3263C153.986 97.2303 154.109 97.1823 154.263 97.1823ZM156.476 102.862C156.322 102.862 156.199 102.82 156.108 102.734C156.023 102.649 155.98 102.529 155.98 102.374V97.7103C155.98 97.5556 156.023 97.4356 156.108 97.3503C156.199 97.265 156.322 97.2223 156.476 97.2223H159.364C159.519 97.2223 159.639 97.257 159.724 97.3263C159.81 97.3956 159.852 97.4943 159.852 97.6223C159.852 97.7556 159.81 97.8596 159.724 97.9343C159.639 98.0036 159.519 98.0383 159.364 98.0383H156.988V99.5903H159.204C159.359 99.5903 159.479 99.625 159.564 99.6943C159.65 99.7636 159.692 99.865 159.692 99.9983C159.692 100.126 159.65 100.225 159.564 100.294C159.479 100.364 159.359 100.398 159.204 100.398H156.988V102.046H159.364C159.519 102.046 159.639 102.084 159.724 102.158C159.81 102.228 159.852 102.329 159.852 102.462C159.852 102.59 159.81 102.689 159.724 102.758C159.639 102.828 159.519 102.862 159.364 102.862H156.476ZM161.187 102.862C161.033 102.862 160.91 102.82 160.819 102.734C160.734 102.649 160.691 102.529 160.691 102.374V97.7103C160.691 97.5556 160.734 97.4356 160.819 97.3503C160.91 97.265 161.033 97.2223 161.187 97.2223H162.771C163.694 97.2223 164.409 97.4703 164.915 97.9663C165.427 98.457 165.683 99.1476 165.683 100.038C165.683 100.934 165.427 101.63 164.915 102.126C164.409 102.617 163.694 102.862 162.771 102.862H161.187ZM162.707 102.022C164.003 102.022 164.651 101.361 164.651 100.038C164.651 98.721 164.003 98.0623 162.707 98.0623H161.723V102.022H162.707ZM169.051 102.934C168.277 102.934 167.691 102.734 167.291 102.334C166.891 101.934 166.691 101.35 166.691 100.582V97.6943C166.691 97.5396 166.736 97.417 166.827 97.3263C166.917 97.2303 167.04 97.1823 167.195 97.1823C167.349 97.1823 167.472 97.2303 167.563 97.3263C167.653 97.417 167.699 97.5396 167.699 97.6943V100.638C167.699 101.124 167.813 101.492 168.043 101.742C168.272 101.988 168.608 102.11 169.051 102.11C169.488 102.11 169.821 101.985 170.051 101.734C170.28 101.484 170.395 101.118 170.395 100.638V97.6943C170.395 97.5396 170.44 97.417 170.531 97.3263C170.621 97.2303 170.744 97.1823 170.899 97.1823C171.053 97.1823 171.176 97.2303 171.267 97.3263C171.357 97.417 171.403 97.5396 171.403 97.6943V100.582C171.403 101.345 171.203 101.929 170.803 102.334C170.403 102.734 169.819 102.934 169.051 102.934ZM173.078 102.862C172.923 102.862 172.803 102.82 172.718 102.734C172.632 102.649 172.59 102.532 172.59 102.382V97.6943C172.59 97.5396 172.635 97.417 172.726 97.3263C172.822 97.2303 172.947 97.1823 173.102 97.1823C173.262 97.1823 173.387 97.2303 173.478 97.3263C173.574 97.417 173.622 97.5396 173.622 97.6943V102.014H175.87C176.19 102.014 176.35 102.156 176.35 102.438C176.35 102.721 176.19 102.862 175.87 102.862H173.078ZM177.523 102.862C177.369 102.862 177.246 102.82 177.155 102.734C177.07 102.649 177.027 102.529 177.027 102.374V97.7103C177.027 97.5556 177.07 97.4356 177.155 97.3503C177.246 97.265 177.369 97.2223 177.523 97.2223H180.411C180.566 97.2223 180.686 97.257 180.771 97.3263C180.857 97.3956 180.899 97.4943 180.899 97.6223C180.899 97.7556 180.857 97.8596 180.771 97.9343C180.686 98.0036 180.566 98.0383 180.411 98.0383H178.035V99.5903H180.251C180.406 99.5903 180.526 99.625 180.611 99.6943C180.697 99.7636 180.739 99.865 180.739 99.9983C180.739 100.126 180.697 100.225 180.611 100.294C180.526 100.364 180.406 100.398 180.251 100.398H178.035V102.046H180.411C180.566 102.046 180.686 102.084 180.771 102.158C180.857 102.228 180.899 102.329 180.899 102.462C180.899 102.59 180.857 102.689 180.771 102.758C180.686 102.828 180.566 102.862 180.411 102.862H177.523Z" fill="#EC008C"/>
<circle cx="100.368" cy="144.66" r="2.56388" fill="white"/>
<path d="M1.68399 164.333V146.93C1.68399 129.831 15.5151 116 32.614 116H33.07C50.169 116 64 129.831 64 146.93V147.386C64 164.485 50.169 178.316 33.07 178.316H10.4234C2.67189 178.316 1.75999 172.084 1.68399 164.333Z" fill="white"/>
<path d="M1.608 147.158V173.833C1.608 176.264 3.5838 178.24 6.0157 178.24H11.8673C9.4355 178.24 7.4596 176.264 7.4596 173.833V147.082C7.4596 125.5 24.7865 116.152 37.4017 116.456C35.8058 116.228 34.1339 116.076 32.538 116.076C15.5151 116.228 1.684 130.059 1.608 147.158Z" fill="#EAEFF4"/>
<path d="M1 172.465V147.006C1 129.907 14.8311 116.076 31.93 116.076H32.386C49.485 116.076 63.316 129.907 63.316 147.006V147.462C63.316 164.561 49.485 178.392 32.386 178.392H6.9276C3.6598 178.316 1 175.732 1 172.465Z" stroke="#B8C0CC" stroke-width="1.88" stroke-miterlimit="10"/>
<path d="M44.925 135.303C44.925 133.783 46.217 132.491 47.737 132.491C49.257 132.491 50.549 133.783 50.549 135.303C50.549 136.823 49.257 138.115 47.737 138.115C46.217 138.115 44.925 136.899 44.925 135.303Z" fill="#B8C0CC"/>
</svg>
