<svg width="146" height="126" viewBox="0 0 146 126" fill="none" xmlns="http://www.w3.org/2000/svg">
<path d="M139.994 3.76807H5.71629C4.16442 3.76807 2.90637 5.04132 2.90637 6.61195V90.5618C2.90637 92.1324 4.16442 93.4056 5.71629 93.4056H139.994C141.546 93.4056 142.804 92.1324 142.804 90.5618V6.61195C142.804 5.04132 141.546 3.76807 139.994 3.76807Z" fill="white" stroke="#B8C0CC" stroke-width="1.88"/>
<path d="M21.3605 25.0742H11.0018C10.2311 25.0742 9.60645 25.7065 9.60645 26.4864V36.9704C9.60645 37.7503 10.2311 38.3825 11.0018 38.3825H21.3605C22.1311 38.3825 22.7558 37.7503 22.7558 36.9704V26.4864C22.7558 25.7065 22.1311 25.0742 21.3605 25.0742Z" fill="#EFEFEF"/>
<path d="M40.2969 25.0742H29.9381C29.1675 25.0742 28.5428 25.7065 28.5428 26.4864V36.9704C28.5428 37.7503 29.1675 38.3825 29.9381 38.3825H40.2969C41.0675 38.3825 41.6922 37.7503 41.6922 36.9704V26.4864C41.6922 25.7065 41.0675 25.0742 40.2969 25.0742Z" fill="#EFEFEF"/>
<path d="M59.4198 25.0742H49.061C48.2904 25.0742 47.6657 25.7065 47.6657 26.4864V36.9704C47.6657 37.7503 48.2904 38.3825 49.061 38.3825H59.4198C60.1904 38.3825 60.8151 37.7503 60.8151 36.9704V26.4864C60.8151 25.7065 60.1904 25.0742 59.4198 25.0742Z" fill="#EFEFEF"/>
<path d="M78.5427 25.0742H68.1839C67.4133 25.0742 66.7886 25.7065 66.7886 26.4864V36.9704C66.7886 37.7503 67.4133 38.3825 68.1839 38.3825H78.5427C79.3133 38.3825 79.938 37.7503 79.938 36.9704V26.4864C79.938 25.7065 79.3133 25.0742 78.5427 25.0742Z" fill="#EFEFEF"/>
<path d="M97.3055 25.0742H86.9467C86.1761 25.0742 85.5514 25.7065 85.5514 26.4864V36.9704C85.5514 37.7503 86.1761 38.3825 86.9467 38.3825H97.3055C98.0761 38.3825 98.7008 37.7503 98.7008 36.9704V26.4864C98.7008 25.7065 98.0761 25.0742 97.3055 25.0742Z" fill="#EFEFEF"/>
<path d="M115.965 24.8599H105.607C104.836 24.8599 104.211 25.4921 104.211 26.272V36.756C104.211 37.5359 104.836 38.1682 105.607 38.1682H115.965C116.736 38.1682 117.361 37.5359 117.361 36.756V26.272C117.361 25.4921 116.736 24.8599 115.965 24.8599Z" fill="#EFEFEF"/>
<path d="M134.715 25.0742H124.357C123.586 25.0742 122.961 25.7065 122.961 26.4864V36.9704C122.961 37.7503 123.586 38.3825 124.357 38.3825H134.715C135.486 38.3825 136.111 37.7503 136.111 36.9704V26.4864C136.111 25.7065 135.486 25.0742 134.715 25.0742Z" fill="#EFEFEF"/>
<path d="M21.3605 45.5151H11.0018C10.2311 45.5151 9.60645 46.1474 9.60645 46.9273V57.4113C9.60645 58.1912 10.2311 58.8235 11.0018 58.8235H21.3605C22.1311 58.8235 22.7558 58.1912 22.7558 57.4113V46.9273C22.7558 46.1474 22.1311 45.5151 21.3605 45.5151Z" fill="#EFEFEF"/>
<path d="M40.2969 45.5151H29.9381C29.1675 45.5151 28.5428 46.1474 28.5428 46.9273V57.4113C28.5428 58.1912 29.1675 58.8235 29.9381 58.8235H40.2969C41.0675 58.8235 41.6922 58.1912 41.6922 57.4113V46.9273C41.6922 46.1474 41.0675 45.5151 40.2969 45.5151Z" fill="#EFEFEF"/>
<path d="M59.4198 45.5151H49.061C48.2904 45.5151 47.6657 46.1474 47.6657 46.9273V57.4113C47.6657 58.1912 48.2904 58.8235 49.061 58.8235H59.4198C60.1904 58.8235 60.8151 58.1912 60.8151 57.4113V46.9273C60.8151 46.1474 60.1904 45.5151 59.4198 45.5151Z" fill="#EFEFEF"/>
<path d="M78.5427 45.5151H68.1839C67.4133 45.5151 66.7886 46.1474 66.7886 46.9273V57.4113C66.7886 58.1912 67.4133 58.8235 68.1839 58.8235H78.5427C79.3133 58.8235 79.938 58.1912 79.938 57.4113V46.9273C79.938 46.1474 79.3133 45.5151 78.5427 45.5151Z" fill="#EFEFEF"/>
<path d="M97.3055 45.5151H86.9467C86.1761 45.5151 85.5514 46.1474 85.5514 46.9273V57.4113C85.5514 58.1912 86.1761 58.8235 86.9467 58.8235H97.3055C98.0761 58.8235 98.7008 58.1912 98.7008 57.4113V46.9273C98.7008 46.1474 98.0761 45.5151 97.3055 45.5151Z" fill="#EFEFEF"/>
<path d="M115.965 45.3003H105.607C104.836 45.3003 104.211 45.9325 104.211 46.7125V57.1964C104.211 57.9764 104.836 58.6086 105.607 58.6086H115.965C116.736 58.6086 117.361 57.9764 117.361 57.1964V46.7125C117.361 45.9325 116.736 45.3003 115.965 45.3003Z" fill="#EFEFEF"/>
<path d="M134.715 45.5151H124.357C123.586 45.5151 122.961 46.1474 122.961 46.9273V57.4113C122.961 58.1912 123.586 58.8235 124.357 58.8235H134.715C135.486 58.8235 136.111 58.1912 136.111 57.4113V46.9273C136.111 46.1474 135.486 45.5151 134.715 45.5151Z" fill="#EFEFEF"/>
<path d="M21.3605 66.1123H11.0018C10.2311 66.1123 9.60645 66.7446 9.60645 67.5245V78.0084C9.60645 78.7884 10.2311 79.4206 11.0018 79.4206H21.3605C22.1311 79.4206 22.7558 78.7884 22.7558 78.0084V67.5245C22.7558 66.7446 22.1311 66.1123 21.3605 66.1123Z" fill="#EFEFEF"/>
<path d="M40.2969 66.1123H29.9381C29.1675 66.1123 28.5428 66.7446 28.5428 67.5245V78.0084C28.5428 78.7884 29.1675 79.4206 29.9381 79.4206H40.2969C41.0675 79.4206 41.6922 78.7884 41.6922 78.0084V67.5245C41.6922 66.7446 41.0675 66.1123 40.2969 66.1123Z" fill="#EFEFEF"/>
<path d="M59.4198 66.1123H49.061C48.2904 66.1123 47.6657 66.7446 47.6657 67.5245V78.0084C47.6657 78.7884 48.2904 79.4206 49.061 79.4206H59.4198C60.1904 79.4206 60.8151 78.7884 60.8151 78.0084V67.5245C60.8151 66.7446 60.1904 66.1123 59.4198 66.1123Z" fill="#EC008C"/>
<path d="M78.5427 66.1123H68.1839C67.4133 66.1123 66.7886 66.7446 66.7886 67.5245V78.0084C66.7886 78.7884 67.4133 79.4206 68.1839 79.4206H78.5427C79.3133 79.4206 79.938 78.7884 79.938 78.0084V67.5245C79.938 66.7446 79.3133 66.1123 78.5427 66.1123Z" fill="#EFEFEF"/>
<path d="M97.3055 66.1123H86.9467C86.1761 66.1123 85.5514 66.7446 85.5514 67.5245V78.0084C85.5514 78.7884 86.1761 79.4206 86.9467 79.4206H97.3055C98.0761 79.4206 98.7008 78.7884 98.7008 78.0084V67.5245C98.7008 66.7446 98.0761 66.1123 97.3055 66.1123Z" fill="#EFEFEF"/>
<path d="M115.965 65.9038H105.607C104.836 65.9038 104.211 66.5361 104.211 67.316V77.8C104.211 78.5799 104.836 79.2121 105.607 79.2121H115.965C116.736 79.2121 117.361 78.5799 117.361 77.8V67.316C117.361 66.5361 116.736 65.9038 115.965 65.9038Z" fill="#EFEFEF"/>
<path d="M134.715 66.1123H124.357C123.586 66.1123 122.961 66.7446 122.961 67.5245V78.0084C122.961 78.7884 123.586 79.4206 124.357 79.4206H134.715C135.486 79.4206 136.111 78.7884 136.111 78.0084V67.5245C136.111 66.7446 135.486 66.1123 134.715 66.1123Z" fill="#EFEFEF"/>
<rect x="9.64828" y="11.854" width="126.443" height="5.78323" fill="#EFEFEF"/>
<g clip-path="url(#clip0)">
<path d="M130.548 112.796V98.3743C130.548 84.2048 118.845 72.7432 104.378 72.7432H103.992C89.5243 72.7432 77.8224 84.2048 77.8224 98.3743V98.7523C77.8224 112.922 89.5243 124.383 103.992 124.383H123.154C129.713 124.383 130.484 119.22 130.548 112.796Z" fill="white"/>
<path d="M130.613 98.5637V120.669C130.613 122.684 128.941 124.321 126.883 124.321H121.932C123.989 124.321 125.661 122.684 125.661 120.669V98.5004C125.661 80.6153 111.001 72.8692 100.327 73.1212C101.678 72.9326 103.092 72.8066 104.442 72.8066C118.845 72.9326 130.548 84.3943 130.613 98.5637Z" fill="#EAEFF4"/>
<path d="M131.127 119.535V98.4378C131.127 84.2683 119.424 72.8066 104.957 72.8066H104.571C90.1031 72.8066 78.4003 84.2683 78.4003 98.4378V98.8158C78.4003 112.985 90.1031 124.447 104.571 124.447H126.112C128.876 124.383 131.127 122.242 131.127 119.535Z" stroke="#B8C0CC" stroke-width="1.88" stroke-miterlimit="10"/>
<path d="M93.9609 88.7393C93.9609 87.4801 92.8679 86.4087 91.582 86.4087C90.296 86.4087 89.203 87.4801 89.203 88.7393C89.203 89.9993 90.296 91.0698 91.582 91.0698C92.8679 91.0698 93.9609 90.0627 93.9609 88.7393Z" fill="#B8C0CC"/>
</g>
<g clip-path="url(#clip1)">
<path d="M58.0353 75.8023C58.5697 75.9367 59.0519 76.2251 59.4216 76.6326C59.7914 77.0401 60.0317 77.5481 60.1126 78.0913C60.1926 78.6342 60.1107 79.189 59.8745 79.6853C59.6394 80.181 59.2619 80.5954 58.7888 80.8775C58.3169 81.1589 57.7715 81.2938 57.2217 81.2659C56.6719 81.2379 56.1422 81.0479 55.6999 80.7201C55.2575 80.3923 54.9225 79.9408 54.737 79.424C54.5515 78.9071 54.5244 78.3466 54.6584 77.8141C54.838 77.1004 55.2953 76.4875 55.9287 76.1096C56.5618 75.7326 57.3196 75.6222 58.0353 75.8023Z" fill="#B8C0CC"/>
<path d="M57.3583 78.4937C57.3583 78.4937 69.8882 101.99 100.999 103.251" stroke="#B8C0CC" stroke-width="1.88" stroke-linecap="round" stroke-linejoin="round"/>
</g>
<defs>
<clipPath id="clip0">
<rect width="55" height="54" fill="white" transform="matrix(-1 0 0 1 132 72)"/>
</clipPath>
<clipPath id="clip1">
<rect width="53" height="20" fill="white" transform="translate(54.8797 74) rotate(14.1219)"/>
</clipPath>
</defs>
</svg>
