<svg width="60" height="61" viewBox="0 0 60 61" fill="none" xmlns="http://www.w3.org/2000/svg">
<path d="M31.0763 52.2098C45.1467 52.2098 56.5529 40.8035 56.5529 26.7332C56.5529 12.6629 45.1467 1.25659 31.0763 1.25659C17.006 1.25659 5.59973 12.6629 5.59973 26.7332C5.59973 40.8035 17.006 52.2098 31.0763 52.2098Z" fill="#F0F4F7"/>
<path d="M45.9775 56.9478H14.9434C14.1014 56.9478 13.5 56.106 13.5 55.2641V53.5804C13.5 52.5983 14.1014 51.8967 14.9434 51.8967H45.9775C46.8195 51.8967 47.4209 52.5983 47.4209 53.5804V55.2641C47.4209 56.106 46.6992 56.9478 45.9775 56.9478Z" fill="white" stroke="#B8C0CC" stroke-width="1.88" stroke-miterlimit="10"/>
<path d="M22.5 32.601L22.5 51.0391C22.5 51.5394 21.6667 51.8967 20.8333 51.8967L19.1667 51.8967C18.1944 51.8967 17.5 51.5394 17.5 51.0391L17.5 32.601C17.5 32.1008 18.1944 31.7434 19.1667 31.7434L20.8333 31.7434C21.6667 31.7434 22.5 32.1722 22.5 32.601Z" fill="white" stroke="#B8C0CC" stroke-width="1.88" stroke-miterlimit="10"/>
<path d="M33.5 32.601L33.5 51.0391C33.5 51.5394 32.6667 51.8967 31.8333 51.8967L30.1667 51.8967C29.1944 51.8967 28.5 51.5394 28.5 51.0391L28.5 32.601C28.5 32.1008 29.1944 31.7434 30.1667 31.7434L31.8333 31.7434C32.6667 31.7434 33.5 32.1722 33.5 32.601Z" fill="white" stroke="#B8C0CC" stroke-width="1.88" stroke-miterlimit="10"/>
<path d="M44.5 32.601L44.5 51.0391C44.5 51.5394 43.6667 51.8967 42.8333 51.8967L41.1667 51.8967C40.1944 51.8967 39.5 51.5394 39.5 51.0391L39.5 32.601C39.5 32.1008 40.1944 31.7434 41.1667 31.7434L42.8333 31.7434C43.6667 31.7434 44.5 32.1722 44.5 32.601Z" fill="white" stroke="#B8C0CC" stroke-width="1.88" stroke-miterlimit="10"/>
<path d="M46.629 31.7562H15.5949C14.7529 31.7562 14.1515 30.9143 14.1515 30.0725V28.3888C14.1515 27.4066 14.7529 26.7051 15.5949 26.7051H46.629C47.471 26.7051 48.0724 27.4066 48.0724 28.3888V30.0725C48.0724 30.9143 47.3507 31.7562 46.629 31.7562Z" fill="white" stroke="#B8C0CC" stroke-width="1.88" stroke-miterlimit="10"/>
<path d="M51 26.5H11L31 12L51 26.5Z" fill="white" stroke="#B8C0CC" stroke-width="1.88" stroke-linejoin="round"/>
</svg>
