<svg width="105" height="108" viewBox="0 0 105 108" fill="none" xmlns="http://www.w3.org/2000/svg">
<path d="M52.5 105C81.4949 105 105 81.4949 105 52.5C105 23.5051 81.4949 0 52.5 0C23.5051 0 0 23.5051 0 52.5C0 81.4949 23.5051 105 52.5 105Z" fill="#E6E9EF"/>
<path d="M17.2421 54.777C14.4806 54.777 12.2421 57.0156 12.2421 59.777V102C12.2421 104.761 14.4806 107 17.2421 107H86.8977C89.6591 107 91.8977 104.761 91.8977 102V59.777C91.8977 57.0156 89.6591 54.777 86.8977 54.777H17.2421Z" fill="white" stroke="#B8C0CC" stroke-width="1.88" stroke-linecap="round" stroke-linejoin="round"/>
<path opacity="0.71" d="M31.1706 41.0433L26.0477 54.9229V63.75C26.0477 63.75 27.7357 68.5119 34.1399 68.5119C35.9778 68.5222 37.7878 68.0634 39.3978 67.1791C41.0078 66.2947 42.3642 65.0143 43.3382 63.4595V54.6906L44.9102 41.0438L31.1706 41.0433Z" fill="#EAEFF4"/>
<path opacity="0.71" d="M72.9761 41.0433L78.099 54.9229V63.75C78.099 63.75 76.411 68.5119 70.0068 68.5119C68.1687 68.5222 66.3587 68.0634 64.7488 67.1791C63.1388 66.2947 61.7823 65.0143 60.8085 63.4595V54.6906L59.2365 41.0438L72.9761 41.0433Z" fill="#EAEFF4"/>
<path d="M43.4232 54.7267V63.3533C43.4232 63.3533 44.6853 68.4999 51.8702 68.4999C59.0551 68.4999 60.7165 63.3533 60.7165 63.3533V54.7267H43.4232Z" fill="white" stroke="#B8C0CC" stroke-width="1.88" stroke-linecap="round" stroke-linejoin="round"/>
<path d="M60.716 54.7267V63.3533C60.716 63.3533 61.9782 68.4999 69.1631 68.4999C76.348 68.4999 78.0098 63.3533 78.0098 63.3533V54.7267H60.716Z" stroke="#B8C0CC" stroke-width="1.88" stroke-linecap="round" stroke-linejoin="round"/>
<path d="M78.0094 54.7267V63.3533C78.0094 63.3533 79.2715 68.4999 86.4564 68.4999C93.6413 68.4999 95.3027 63.3533 95.3027 63.3533V54.7267H78.0094Z" fill="white" stroke="#B8C0CC" stroke-width="1.88" stroke-linecap="round" stroke-linejoin="round"/>
<path d="M26.1294 54.7267V63.3533C26.1294 63.3533 27.3915 68.4999 34.5769 68.4999C41.7622 68.4999 43.4231 63.3533 43.4231 63.3533V54.7267H26.1294Z" stroke="#B8C0CC" stroke-width="1.88" stroke-linecap="round" stroke-linejoin="round"/>
<path d="M8.83661 54.7267V63.3533C8.83661 63.3533 10.0988 68.4999 17.2837 68.4999C24.4686 68.4999 26.1299 63.3533 26.1299 63.3533V54.7267H8.83661Z" fill="white" stroke="#B8C0CC" stroke-width="1.88" stroke-linecap="round" stroke-linejoin="round"/>
<path d="M8.83661 54.7263L17.4847 40.7083H88.4922L95.3027 54.7263" stroke="#B8C0CC" stroke-width="1.88" stroke-linecap="round" stroke-linejoin="round"/>
<path d="M43.4227 54.7265L44.8775 40.708" stroke="#B8C0CC" stroke-width="1.88" stroke-linecap="round" stroke-linejoin="round"/>
<path d="M26.1299 54.7265L31.2706 40.708" stroke="#B8C0CC" stroke-width="1.88" stroke-linecap="round" stroke-linejoin="round"/>
<path d="M60.7161 54.7265L59.2613 40.708" stroke="#B8C0CC" stroke-width="1.88" stroke-linecap="round" stroke-linejoin="round"/>
<path d="M78.0094 54.7265L72.8687 40.708" stroke="#B8C0CC" stroke-width="1.88" stroke-linecap="round" stroke-linejoin="round"/>
<g clip-path="url(#clip0)">
<path d="M49.2494 87.6235C49.2494 89.634 47.6818 91.1976 45.6664 91.1976C43.651 91.1976 42.0834 89.634 42.0834 87.6235C42.0834 85.6131 43.651 84.0494 45.6664 84.0494C47.6818 84.1611 49.2494 85.7248 49.2494 87.6235ZM47.5699 87.6235C47.4579 86.5066 46.5622 85.6131 45.4425 85.7248C44.3228 85.8365 43.4271 86.73 43.539 87.8469C43.651 88.8521 44.5467 89.7456 45.5544 89.7456C46.5622 89.8573 47.5699 88.9638 47.5699 87.9586V87.8469C47.5699 87.7352 47.5699 87.7352 47.5699 87.6235Z" fill="#EA4335"/>
<path d="M56.9752 87.6235C56.9752 89.634 55.4076 91.1976 53.3922 91.1976C51.3768 91.1976 49.8092 89.634 49.8092 87.6235C49.8092 85.6131 51.3768 84.0494 53.3922 84.0494C55.2957 84.1611 56.9752 85.7248 56.9752 87.6235ZM55.4076 87.6235C55.2957 86.5066 54.3999 85.6131 53.2802 85.7248C52.1606 85.8365 51.2648 86.73 51.3768 87.8469C51.4888 88.8521 52.3845 89.7456 53.3922 89.7456C54.5119 89.7456 55.4076 88.8521 55.4076 87.6235Z" fill="#FBBC05"/>
<path d="M64.3651 84.3845V90.7509C64.3651 93.4314 62.7975 94.4366 61.006 94.4366C59.6624 94.4366 58.3188 93.6548 57.759 92.4262L59.2146 91.8677C59.4385 92.6495 60.2223 93.0964 61.006 93.0964C62.0138 93.0964 62.9095 92.3145 62.9095 91.3093V90.5275C62.3497 91.0859 61.6779 91.3093 61.006 91.3093C59.1026 91.1976 57.535 89.5223 57.535 87.6235C57.759 85.8365 59.2146 84.3845 61.006 84.1611C61.6779 84.1611 62.4616 84.3845 62.9095 84.943V84.3845H64.3651ZM63.0215 87.6235C63.1334 86.6183 62.4616 85.6131 61.3419 85.5014H61.23H61.118C59.9983 85.6131 59.1026 86.6183 59.2146 87.8469C59.3265 88.8521 60.1103 89.634 61.118 89.7457C62.1257 89.7457 63.0215 88.8521 63.0215 87.8469V87.6235Z" fill="#4285F4"/>
<path d="M66.8284 80.587V91.0859H65.2608V80.587H66.8284Z" fill="#34A853"/>
<path d="M72.7627 88.8521L73.8824 89.634C73.2106 90.6392 72.0909 91.1976 70.9712 91.1976C69.0677 91.1976 67.5002 89.634 67.3882 87.7352V87.6235C67.2763 85.8365 68.6199 84.1611 70.5233 84.0494H70.7473C72.2028 84.0494 73.4345 84.943 73.8824 86.3949L73.9943 86.73L69.2917 88.6287C69.6276 89.2989 70.2994 89.7456 70.9712 89.634C71.531 89.8573 72.3148 89.5223 72.7627 88.8521ZM69.0677 87.5118L72.3148 86.2832C72.0909 85.8365 71.531 85.5014 71.0832 85.5014C70.0755 85.5014 69.1797 86.3949 69.1797 87.4001V87.5118H69.0677Z" fill="#EA4335"/>
<path d="M36.2615 86.7301V85.1664H41.412C41.412 85.3898 41.524 85.8366 41.524 86.06C41.524 87.4003 41.0761 88.6288 40.2924 89.6341C39.2847 90.6393 37.941 91.1977 36.4855 91.1977C33.3503 91.1977 30.8871 88.7405 30.8871 85.6132C30.8871 82.5976 33.3503 80.1404 36.3735 80.0287H36.4855C37.941 80.0287 39.2847 80.5871 40.2924 81.5924L39.2847 82.5976C38.6129 81.8157 37.6051 81.4807 36.5974 81.5924C34.3581 81.704 32.6785 83.4911 32.5666 85.7249C32.5666 87.9587 34.3581 89.7457 36.5974 89.7457C37.6051 89.7457 38.6129 89.299 39.3966 88.6288C39.9565 88.0704 40.1804 87.4003 40.1804 86.7301H36.2615Z" fill="#4285F4"/>
</g>
<rect x="28.8112" y="25.94" width="47.386" height="19.3412" rx="2.06" fill="white" stroke="#EC008C" stroke-width="1.88"/>
<path d="M43.3068 35.5741C43.8397 35.7222 44.2503 35.9924 44.5386 36.3845C44.8356 36.7767 44.9842 37.256 44.9842 37.8225C44.9842 38.6068 44.7002 39.2212 44.1324 39.6656C43.5732 40.1101 42.8001 40.3323 41.8129 40.3323H38.4319C38.1785 40.3323 37.9776 40.2626 37.8291 40.1231C37.6893 39.9837 37.6194 39.7876 37.6194 39.5349V31.9139C37.6194 31.6612 37.6893 31.4651 37.8291 31.3257C37.9776 31.1862 38.1785 31.1165 38.4319 31.1165H41.6818C42.6428 31.1165 43.3941 31.33 43.9358 31.757C44.4862 32.1753 44.7614 32.7636 44.7614 33.5218C44.7614 34.0098 44.6303 34.4324 44.3683 34.7897C44.1149 35.1471 43.7611 35.4085 43.3068 35.5741ZM39.2706 34.9989H41.4066C42.5686 34.9989 43.1495 34.5675 43.1495 33.7048C43.1495 33.269 43.0054 32.9466 42.7171 32.7374C42.4288 32.5283 41.992 32.4237 41.4066 32.4237H39.2706V34.9989ZM41.6294 39.0251C42.2409 39.0251 42.6865 38.9162 42.9661 38.6983C43.2456 38.4804 43.3854 38.1405 43.3854 37.6787C43.3854 37.2168 43.2413 36.8726 42.953 36.646C42.6734 36.4194 42.2322 36.3061 41.6294 36.3061H39.2706V39.0251H41.6294Z" fill="#EC008C"/>
<path d="M49.343 40.4369C48.6877 40.4369 48.1111 40.3018 47.6132 40.0316C47.1239 39.7615 46.7439 39.3737 46.4731 38.8682C46.2022 38.3628 46.0668 37.7745 46.0668 37.1035C46.0668 36.4325 46.2022 35.8486 46.4731 35.3518C46.7439 34.8464 47.1239 34.4586 47.6132 34.1884C48.1111 33.9183 48.6877 33.7832 49.343 33.7832C49.9982 33.7832 50.5704 33.9183 51.0597 34.1884C51.5576 34.4586 51.9377 34.8464 52.1997 35.3518C52.4706 35.8486 52.606 36.4325 52.606 37.1035C52.606 37.7745 52.4706 38.3628 52.1997 38.8682C51.9377 39.3737 51.5576 39.7615 51.0597 40.0316C50.5704 40.3018 49.9982 40.4369 49.343 40.4369ZM49.3299 39.1689C49.8628 39.1689 50.269 38.9946 50.5486 38.646C50.8281 38.2974 50.9679 37.7832 50.9679 37.1035C50.9679 36.4325 50.8281 35.9227 50.5486 35.5741C50.269 35.2168 49.8671 35.0381 49.343 35.0381C48.8188 35.0381 48.4125 35.2168 48.1242 35.5741C47.8447 35.9227 47.7049 36.4325 47.7049 37.1035C47.7049 37.7832 47.8447 38.2974 48.1242 38.646C48.4038 38.9946 48.8057 39.1689 49.3299 39.1689Z" fill="#EC008C"/>
<path d="M56.8806 40.4369C56.2254 40.4369 55.6488 40.3018 55.1508 40.0316C54.6616 39.7615 54.2816 39.3737 54.0107 38.8682C53.7399 38.3628 53.6045 37.7745 53.6045 37.1035C53.6045 36.4325 53.7399 35.8486 54.0107 35.3518C54.2816 34.8464 54.6616 34.4586 55.1508 34.1884C55.6488 33.9183 56.2254 33.7832 56.8806 33.7832C57.5359 33.7832 58.1081 33.9183 58.5973 34.1884C59.0953 34.4586 59.4753 34.8464 59.7374 35.3518C60.0082 35.8486 60.1437 36.4325 60.1437 37.1035C60.1437 37.7745 60.0082 38.3628 59.7374 38.8682C59.4753 39.3737 59.0953 39.7615 58.5973 40.0316C58.1081 40.3018 57.5359 40.4369 56.8806 40.4369ZM56.8675 39.1689C57.4004 39.1689 57.8067 38.9946 58.0862 38.646C58.3658 38.2974 58.5056 37.7832 58.5056 37.1035C58.5056 36.4325 58.3658 35.9227 58.0862 35.5741C57.8067 35.2168 57.4048 35.0381 56.8806 35.0381C56.3564 35.0381 55.9502 35.2168 55.6619 35.5741C55.3823 35.9227 55.2426 36.4325 55.2426 37.1035C55.2426 37.7832 55.3823 38.2974 55.6619 38.646C55.9415 38.9946 56.3433 39.1689 56.8675 39.1689Z" fill="#EC008C"/>
<path d="M67.1965 39.0643C67.3712 39.2299 67.4585 39.4172 67.4585 39.6264C67.4585 39.8268 67.3843 40.0055 67.2358 40.1624C67.096 40.3192 66.93 40.3977 66.7378 40.3977C66.5456 40.3977 66.3665 40.3192 66.2005 40.1624L63.134 37.3911V39.6264C63.134 39.8791 63.0554 40.0708 62.8982 40.2016C62.7409 40.3323 62.5443 40.3977 62.3085 40.3977C62.0726 40.3977 61.876 40.3323 61.7188 40.2016C61.5702 40.0708 61.496 39.8791 61.496 39.6264V31.8224C61.496 31.5697 61.5702 31.3779 61.7188 31.2472C61.876 31.1165 62.0726 31.0511 62.3085 31.0511C62.5443 31.0511 62.7409 31.1165 62.8982 31.2472C63.0554 31.3779 63.134 31.5697 63.134 31.8224V36.7375L65.9384 34.0577C66.0957 33.9009 66.2748 33.8224 66.4757 33.8224C66.6766 33.8224 66.8514 33.8965 66.9999 34.0446C67.1484 34.1928 67.2227 34.3671 67.2227 34.5675C67.2227 34.768 67.1397 34.951 66.9737 35.1165L64.9163 37.0251L67.1965 39.0643Z" fill="#EC008C"/>
<defs>
<clipPath id="clip0">
<rect width="44.7872" height="14.5197" fill="white" transform="translate(30.1028 80.0287)"/>
</clipPath>
</defs>
</svg>
