<svg width="60" height="60" viewBox="0 0 60 60" fill="none" xmlns="http://www.w3.org/2000/svg">
<path d="M30.0163 51.953C44.0867 51.953 55.4929 40.5467 55.4929 26.4764C55.4929 12.4061 44.0867 0.999817 30.0163 0.999817C15.946 0.999817 4.53973 12.4061 4.53973 26.4764C4.53973 40.5467 15.946 51.953 30.0163 51.953Z" fill="#F0F4F7"/>
<path d="M32.5542 40.0478C40.2862 40.0478 46.5542 33.7318 46.5542 25.9405C46.5542 18.1492 40.2862 11.8332 32.5542 11.8332C24.8222 11.8332 18.5542 18.1492 18.5542 25.9405C18.5542 33.7318 24.8222 40.0478 32.5542 40.0478Z" fill="white" stroke="#B8C0CC" stroke-width="1.88" stroke-miterlimit="10"/>
<path d="M44.7593 32.8133H20.3491" stroke="#B8C0CC" stroke-width="1.88" stroke-miterlimit="10"/>
<path d="M44.7593 18.8863H20.3491" stroke="#B8C0CC" stroke-width="1.88" stroke-miterlimit="10"/>
<path d="M19.0927 25.94H46.0157" stroke="#B8C0CC" stroke-width="1.88" stroke-miterlimit="10"/>
<path d="M32.5542 11.8332C32.5542 11.8332 44.2281 22.685 32.5542 39.8669" stroke="#B8C0CC" stroke-width="1.88" stroke-miterlimit="10"/>
<path d="M32.5542 11.8332C32.5542 11.8332 20.7865 22.685 32.5542 39.8669" stroke="#B8C0CC" stroke-width="1.88" stroke-miterlimit="10"/>
<path d="M30.4445 37.6167L30.5304 37.8158L30.7297 37.9038C30.9509 38.0015 31.386 38.2363 31.807 38.4732C32.2232 38.7074 32.5762 38.9159 32.6458 38.9614C32.6472 38.9629 32.6616 38.976 32.6825 39.0122C32.701 39.0444 32.719 39.0853 32.7343 39.1321V40.4914C32.7343 40.5574 32.7209 40.5887 32.7162 40.5974C32.7141 40.6015 32.7136 40.6016 32.7136 40.6016C32.7136 40.6016 32.7132 40.6023 32.708 40.6049C32.6162 40.6505 32.3884 40.7821 32.1264 40.9333C32.0154 40.9974 31.8982 41.065 31.7827 41.1311C31.3646 41.3705 30.9475 41.6024 30.7297 41.6986L30.5304 41.7866L30.4445 41.9856L29.7774 43.5317L29.6867 43.742L29.7722 43.9544C29.8671 44.1901 29.9974 44.6631 30.1178 45.1344C30.1663 45.3245 30.2113 45.5062 30.2497 45.6615C30.2575 45.693 30.2651 45.7235 30.2723 45.7527L30.2737 45.7585C30.3049 45.8842 30.336 46.0094 30.3586 46.0879C30.3689 46.1503 30.3638 46.1837 30.3605 46.1968C30.3578 46.2072 30.3542 46.216 30.34 46.2302L29.3397 47.2237C29.3397 47.2237 29.3262 47.2348 29.2925 47.2427C29.2554 47.2514 29.2203 47.2495 29.2001 47.2445L29.1873 47.2413L29.1744 47.2388C28.9237 47.189 27.5009 46.809 27.0176 46.649L26.8171 46.5826L26.6228 46.6653L25.0663 47.3279L24.8659 47.4132L24.7773 47.6111C24.679 47.8309 24.4426 48.2632 24.204 48.6814C23.9787 49.0764 23.777 49.4142 23.7196 49.5038C23.6483 49.5924 23.587 49.6024 23.562 49.6024H22.1722C22.1059 49.6024 22.0743 49.5892 22.0656 49.5845C22.0629 49.5831 22.0613 49.5819 22.0613 49.5819C22.0613 49.5819 22.0594 49.5791 22.058 49.5763C22.0121 49.4851 21.8796 49.2588 21.7274 48.9985C21.6629 48.8883 21.5948 48.7719 21.5282 48.6572C21.2873 48.2419 21.0538 47.8276 20.957 47.6111L20.8684 47.4132L20.668 47.3279L19.1115 46.6653L18.8998 46.5752L18.686 46.6601C18.4488 46.7544 17.9725 46.8838 17.4981 47.0034C17.3066 47.0517 17.1238 47.0963 16.9675 47.1345C16.9357 47.1422 16.905 47.1497 16.8756 47.1569L16.8698 47.1583C16.7432 47.1893 16.6172 47.2201 16.5381 47.2427C16.4753 47.2529 16.4418 47.2478 16.4285 47.2445C16.418 47.2419 16.4092 47.2383 16.3949 47.2241L15.3947 46.2305C15.3947 46.2305 15.3835 46.2171 15.3756 46.1836C15.3668 46.1467 15.3687 46.1119 15.3738 46.0919L15.377 46.0792L15.3796 46.0663C15.4297 45.8172 15.8122 44.4041 15.9733 43.9239L16.0401 43.7248L15.9569 43.5317L15.2898 41.9856L15.2039 41.7866L15.0046 41.6986C14.7834 41.6009 14.3482 41.3661 13.9272 41.1291C13.5295 40.9053 13.1895 40.705 13.0993 40.648C13.01 40.5772 13 40.5163 13 40.4914V39.0557C13 39.0352 13.0058 39.0089 13.0177 38.9852C13.0219 38.977 13.0256 38.9712 13.0285 38.9672C13.1407 38.9067 13.3347 38.7947 13.5523 38.6691C13.6633 38.6049 13.7805 38.5373 13.896 38.4712C14.3141 38.2319 14.7311 38 14.949 37.9038L15.1483 37.8158L15.2342 37.6167L15.9013 36.0706L15.992 35.8604L15.9065 35.648C15.8116 35.4123 15.6813 34.9393 15.5609 34.468C15.5123 34.2779 15.4674 34.0963 15.429 33.9411C15.4212 33.9095 15.4136 33.879 15.4064 33.8497L15.4049 33.8438C15.3743 33.7203 15.3438 33.5973 15.3212 33.5187C15.3185 33.494 15.3223 33.4785 15.3272 33.4655C15.3349 33.4449 15.3534 33.4129 15.3943 33.3722L15.3999 33.3666L15.4054 33.3609L16.3399 32.378C16.3434 32.3755 16.3575 32.3664 16.3863 32.3597C16.4233 32.351 16.4584 32.3529 16.4785 32.3579L16.4913 32.3611L16.5043 32.3636C16.755 32.4135 18.1777 32.7934 18.6611 32.9535L18.8616 33.0198L19.0559 32.9371L20.6124 32.2745L20.8128 32.1892L20.9014 31.9912C20.9997 31.7715 21.2361 31.3391 21.4746 30.921C21.7 30.526 21.9016 30.1882 21.9591 30.0987C22.0304 30.0099 22.0916 30 22.1167 30H23.562C23.5819 30 23.5972 30.0051 23.6058 30.01C23.6098 30.0123 23.6123 30.0144 23.6141 30.0162C23.6156 30.0178 23.618 30.0207 23.6207 30.0261C23.6666 30.1173 23.799 30.3436 23.9513 30.6038C24.0159 30.7141 24.0839 30.8305 24.1505 30.9452C24.3914 31.3605 24.6249 31.7748 24.7217 31.9912L24.8102 32.1892L25.0107 32.2745L26.5672 32.9371L26.7789 33.0272L26.9926 32.9422C27.2299 32.848 27.7061 32.7186 28.1806 32.599C28.372 32.5507 28.5548 32.5061 28.711 32.468C28.7429 32.4602 28.7736 32.4527 28.803 32.4455L28.809 32.444C28.9355 32.4131 29.0615 32.3823 29.1405 32.3597C29.2033 32.3495 29.2369 32.3546 29.2502 32.3579C29.2607 32.3605 29.2695 32.3641 29.2837 32.3783L29.289 32.3835L29.2945 32.3887L30.3401 33.3727C30.3425 33.376 30.3519 33.3899 30.3587 33.4188C30.3674 33.4557 30.3656 33.4904 30.3605 33.5104L30.3573 33.5232L30.3547 33.5361C30.3046 33.7851 29.9221 35.1983 29.7609 35.6784L29.6942 35.8777L29.7774 36.0706L30.4445 37.6167Z" fill="white" stroke="#EC008C" stroke-width="1.88" stroke-linejoin="round"/>
<circle cx="22.6983" cy="39.9204" r="3.13719" fill="white" stroke="#EC008C" stroke-width="1.88"/>
</svg>
