<svg width="61" height="60" viewBox="0 0 61 60" fill="none" xmlns="http://www.w3.org/2000/svg">
<path d="M31.4918 51.8149C45.5622 51.8149 56.9684 40.4954 56.9684 26.5321C56.9684 12.5688 45.5622 1.24927 31.4918 1.24927C17.4215 1.24927 6.01523 12.5688 6.01523 26.5321C6.01523 40.4954 17.4215 51.8149 31.4918 51.8149Z" fill="#F0F4F7"/>
<path d="M19.3881 33.7778C19.3881 27.5556 24.3637 24 27.6808 24C31.2267 24 36.3881 27.4924 36.3881 33.7778C36.3881 39.1111 30.9979 40 27.6808 40C24.3637 40 19.3881 39.1111 19.3881 33.7778Z" fill="white" stroke="#B8C0CC" stroke-width="1.88"/>
<path d="M37.5907 18.0172C37.1793 20.4618 35.1243 21.9687 33.1736 21.6404C31.2229 21.3122 29.7742 19.2158 30.1856 16.7711C30.5969 14.3265 32.6519 12.8196 34.6026 13.1479C36.5534 13.4761 38.002 15.5725 37.5907 18.0172Z" fill="white" stroke="#B8C0CC" stroke-width="1.88"/>
<path d="M26.3214 16.444C26.7328 18.9722 25.2571 21.0978 23.3139 21.4139C21.3706 21.7301 19.2972 20.1819 18.8859 17.6537C18.4746 15.1255 19.9503 12.9999 21.8935 12.6837C23.8368 12.3676 25.9101 13.9158 26.3214 16.444Z" fill="white" stroke="#B8C0CC" stroke-width="1.88"/>
<circle cx="15.3881" cy="26" r="3.06" fill="white" stroke="#B8C0CC" stroke-width="1.88"/>
<path d="M41.6698 29.1159C40.0735 29.7122 38.2874 28.8974 37.6854 27.2856C37.0833 25.6738 37.8979 23.8877 39.4943 23.2914C41.0906 22.6952 42.8767 23.5099 43.4787 25.1217C44.0807 26.7335 43.2662 28.5197 41.6698 29.1159Z" fill="white" stroke="#B8C0CC" stroke-width="1.88"/>
<path d="M48.6415 38.809L43.5402 40.7403C42.5634 41.1101 41.516 40.6379 41.1462 39.6611L40.5298 38.033C40.16 37.0562 40.6321 36.0088 41.609 35.6389L46.7103 33.7077C47.6871 33.3379 48.7346 33.81 49.1044 34.7869L49.7207 36.415C50.0905 37.3918 49.6184 38.4392 48.6415 38.809Z" fill="white" stroke="#B8C0CC" stroke-width="1.88" stroke-miterlimit="10"/>
<path d="M49.9759 35.4497L58.0077 32.409" stroke="#B8C0CC" stroke-width="1.88" stroke-miterlimit="10" stroke-linecap="round" stroke-linejoin="round"/>
<path d="M10.9018 50.2422L16.2202 48.2288" stroke="#B8C0CC" stroke-width="1.88" stroke-miterlimit="10" stroke-linecap="round" stroke-linejoin="round"/>
<path d="M8.46902 45.4551L12.1261 55.115" stroke="#B8C0CC" stroke-width="1.88" stroke-miterlimit="10" stroke-linecap="round" stroke-linejoin="round"/>
<path d="M43.8225 44.1083L22.0062 52.3675C20.0525 53.1071 17.808 52.0954 17.0684 50.1417L15.5481 46.1257C14.8084 44.172 15.8202 41.9276 17.7739 41.188L39.5902 32.9288C41.5439 32.1892 43.7883 33.2009 44.5279 35.1546L46.0483 39.1705C46.8964 41.0831 45.8847 43.3276 43.8225 44.1083Z" fill="white" stroke="#B8C0CC" stroke-width="1.88" stroke-miterlimit="10"/>
</svg>
