<svg width="102" height="108" viewBox="0 0 102 108" fill="none" xmlns="http://www.w3.org/2000/svg">
<path d="M51.3909 102C79.7732 102 102.782 79.1665 102.782 51C102.782 22.8335 79.7732 0 51.3909 0C23.0085 0 0 22.8335 0 51C0 79.1665 23.0085 102 51.3909 102Z" fill="#F0F4F7"/>
<rect x="22.4501" y="34.3869" width="50.1849" height="53.8966" rx="2.06" fill="white" stroke="#B8C0CC" stroke-width="1.88"/>
<rect x="33.1033" y="26.9499" width="50.1849" height="53.8966" rx="2.06" fill="white" stroke="#B8C0CC" stroke-width="1.88"/>
<rect x="42.9426" y="36.3897" width="12.4165" height="12.4165" rx="2" fill="#EFEFEF"/>
<rect x="42.9426" y="51.847" width="12.4165" height="12.4165" rx="2" fill="#EFEFEF"/>
<rect x="60.9337" y="36.3897" width="12.4165" height="12.4165" rx="2" fill="#EFEFEF"/>
<rect x="60.9337" y="51.847" width="12.4165" height="12.4165" rx="2" fill="#EFEFEF"/>
<path d="M88.0399 87.2133C88.0399 98.1523 78.9407 107.06 67.6665 107.06C56.3922 107.06 47.2931 98.1523 47.2931 87.2133C47.2931 76.2743 56.3922 67.3666 67.6665 67.3666C78.9407 67.3666 88.0399 76.2743 88.0399 87.2133Z" fill="white" stroke="#B8C0CC" stroke-width="1.88"/>
<path d="M78.0119 80.8672L64.0516 94.8316L57.7642 88.4357" stroke="#EC008C" stroke-width="1.88" stroke-linecap="round" stroke-linejoin="round"/>
</svg>
