<svg width="566" height="352" viewBox="0 0 566 352" fill="none" xmlns="http://www.w3.org/2000/svg">
<g filter="url(#filter0_d)">
<rect x="96" y="8" width="450" height="324" rx="12" fill="white"/>
<rect x="96.5" y="8.5" width="449" height="323" rx="11.5" stroke="#F2F4F5"/>
</g>
<path d="M96 20C96 13.3726 101.373 8 108 8H534C540.627 8 546 13.3726 546 20V48C546 54.6274 540.627 60 534 60H108C101.373 60 96 54.6274 96 48V20Z" fill="#B8C0CC"/>
<path d="M484 46C490.627 46 496 40.6274 496 34C496 27.3726 490.627 22 484 22C477.373 22 472 27.3726 472 34C472 40.6274 477.373 46 484 46Z" fill="#F2F4F5" fill-opacity="0.5"/>
<path d="M484 24C478.48 24 474 28.48 474 34C474 39.52 478.48 44 484 44C489.52 44 494 39.52 494 34C494 28.48 489.52 24 484 24ZM484 27C485.66 27 487 28.34 487 30C487 31.66 485.66 33 484 33C482.34 33 481 31.66 481 30C481 28.34 482.34 27 484 27ZM484 41.2C481.5 41.2 479.29 39.92 478 37.98C478.03 35.99 482 34.9 484 34.9C485.99 34.9 489.97 35.99 490 37.98C488.71 39.92 486.5 41.2 484 41.2Z" fill="#B8C0CC"/>
<rect x="146" y="24" width="50" height="20" rx="8" fill="#F2F4F5" fill-opacity="0.5"/>
<rect x="412" y="29" width="40" height="10" rx="5" fill="#F2F4F5" fill-opacity="0.5"/>
<rect x="347" y="29" width="40" height="10" rx="5" fill="#F2F4F5" fill-opacity="0.5"/>
<rect x="282" y="29" width="40" height="10" rx="5" fill="#F2F4F5" fill-opacity="0.5"/>
<path d="M448.701 93.3633L448.801 92.9437L449.104 92.6682C449.356 92.44 449.666 92.3092 450 92.3092C450.732 92.3092 451.336 92.9099 451.336 93.6546C451.336 94.3993 450.732 95 450 95C449.268 95 448.664 94.3993 448.664 93.6546C448.664 93.567 448.676 93.4683 448.701 93.3633ZM441.751 88.3828L441.668 88.7641L441.351 89.0588C441.09 89.302 440.76 89.4418 440.4 89.4418C439.628 89.4418 439 88.817 439 88.0321C439 87.2473 439.628 86.6225 440.4 86.6225C440.76 86.6225 441.09 86.7623 441.351 87.0055L441.668 87.3001L441.751 87.6815C441.786 87.8444 441.8 87.9467 441.8 88.0321C441.8 88.1175 441.786 88.2198 441.751 88.3828ZM449.049 83.4363L448.732 83.1416L448.649 82.7603C448.614 82.5973 448.6 82.495 448.6 82.4096C448.6 81.6248 449.228 81 450 81C450.772 81 451.4 81.6248 451.4 82.4096C451.4 83.1945 450.772 83.8193 450 83.8193C449.64 83.8193 449.31 83.6795 449.049 83.4363Z" stroke="#B8C0CC" stroke-width="2"/>
<path d="M483.999 91.2003C485.766 91.2003 487.199 89.7676 487.199 88.0003C487.199 86.233 485.766 84.8003 483.999 84.8003C482.232 84.8003 480.799 86.233 480.799 88.0003C480.799 89.7676 482.232 91.2003 483.999 91.2003Z" stroke="#B8C0CC" stroke-width="2"/>
<path d="M490.12 88.78C490.151 88.53 490.172 88.27 490.172 88C490.172 87.73 490.151 87.47 490.11 87.22L491.848 85.9C492.002 85.78 492.044 85.56 491.951 85.39L490.305 82.62C490.202 82.44 489.986 82.38 489.801 82.44L487.754 83.24C487.322 82.92 486.87 82.66 486.366 82.46L486.057 80.34C486.026 80.14 485.851 80 485.646 80H482.354C482.149 80 481.984 80.14 481.953 80.34L481.645 82.46C481.141 82.66 480.678 82.93 480.256 83.24L478.209 82.44C478.024 82.37 477.808 82.44 477.705 82.62L476.059 85.39C475.956 85.57 475.998 85.78 476.162 85.9L477.9 87.22C477.859 87.47 477.828 87.74 477.828 88C477.828 88.26 477.849 88.53 477.89 88.78L476.152 90.1C475.998 90.22 475.956 90.44 476.049 90.61L477.695 93.38C477.798 93.56 478.014 93.62 478.199 93.56L480.246 92.76C480.678 93.08 481.13 93.34 481.634 93.54L481.943 95.66C481.984 95.86 482.149 96 482.354 96H485.646C485.851 96 486.026 95.86 486.047 95.66L486.355 93.54C486.859 93.34 487.322 93.07 487.744 92.76L489.791 93.56C489.976 93.63 490.192 93.56 490.295 93.38L491.941 90.61C492.044 90.43 492.002 90.22 491.838 90.1L490.12 88.78Z" stroke="#B8C0CC" stroke-width="2" stroke-linecap="round"/>
<rect x="206" y="140" width="70" height="8" rx="4" fill="#F2F4F5"/>
<rect x="206" y="118" width="118" height="8" rx="4" fill="#F2F4F5"/>
<rect x="146" y="118" width="30" height="30" rx="4" fill="#B8C0CC" fill-opacity="0.4"/>
<rect x="206" y="200" width="70" height="8" rx="4" fill="#F2F4F5"/>
<rect x="206" y="178" width="118" height="8" rx="4" fill="#F2F4F5"/>
<rect x="146" y="178" width="30" height="30" rx="4" fill="#B8C0CC" fill-opacity="0.4"/>
<rect x="206" y="294" width="70" height="8" rx="4" fill="#F2F4F5"/>
<rect x="206" y="272" width="118" height="8" rx="4" fill="#F2F4F5"/>
<rect x="146" y="272" width="30" height="30" rx="4" fill="#B8C0CC" fill-opacity="0.4"/>
<rect x="146" y="238" width="80" height="8" rx="4" fill="#B8C0CC" fill-opacity="0.4"/>
<path d="M150.692 93.108C149.876 93.108 149.16 92.932 148.544 92.58C147.936 92.228 147.468 91.724 147.14 91.068C146.812 90.412 146.648 89.644 146.648 88.764C146.648 87.884 146.812 87.12 147.14 86.472C147.468 85.816 147.936 85.312 148.544 84.96C149.16 84.608 149.876 84.432 150.692 84.432C151.22 84.432 151.716 84.512 152.18 84.672C152.644 84.824 153.056 85.048 153.416 85.344C153.52 85.424 153.592 85.508 153.632 85.596C153.672 85.684 153.692 85.792 153.692 85.92C153.692 86.096 153.644 86.244 153.548 86.364C153.452 86.484 153.336 86.544 153.2 86.544C153.04 86.544 152.876 86.488 152.708 86.376C152.364 86.12 152.044 85.944 151.748 85.848C151.452 85.744 151.124 85.692 150.764 85.692C149.932 85.692 149.3 85.952 148.868 86.472C148.444 86.992 148.232 87.756 148.232 88.764C148.232 89.78 148.444 90.548 148.868 91.068C149.3 91.588 149.932 91.848 150.764 91.848C151.108 91.848 151.424 91.796 151.712 91.692C152.008 91.588 152.34 91.412 152.708 91.164C152.788 91.116 152.868 91.076 152.948 91.044C153.028 91.012 153.112 90.996 153.2 90.996C153.336 90.996 153.452 91.056 153.548 91.176C153.644 91.296 153.692 91.444 153.692 91.62C153.692 91.74 153.672 91.848 153.632 91.944C153.592 92.032 153.52 92.116 153.416 92.196C153.056 92.492 152.644 92.72 152.18 92.88C151.716 93.032 151.22 93.108 150.692 93.108ZM155.657 93.072C155.441 93.072 155.261 93.012 155.117 92.892C154.981 92.764 154.913 92.584 154.913 92.352V87.72C154.913 87.488 154.981 87.312 155.117 87.192C155.261 87.072 155.441 87.012 155.657 87.012C155.873 87.012 156.053 87.072 156.197 87.192C156.341 87.312 156.413 87.488 156.413 87.72V92.352C156.413 92.584 156.341 92.764 156.197 92.892C156.053 93.012 155.873 93.072 155.657 93.072ZM155.657 85.944C155.385 85.944 155.169 85.872 155.009 85.728C154.849 85.576 154.769 85.38 154.769 85.14C154.769 84.9 154.849 84.708 155.009 84.564C155.169 84.42 155.385 84.348 155.657 84.348C155.921 84.348 156.133 84.42 156.293 84.564C156.461 84.708 156.545 84.9 156.545 85.14C156.545 85.38 156.465 85.576 156.305 85.728C156.145 85.872 155.929 85.944 155.657 85.944ZM161.266 91.956C161.666 91.98 161.866 92.16 161.866 92.496C161.866 92.688 161.786 92.836 161.626 92.94C161.474 93.036 161.254 93.076 160.965 93.06L160.642 93.036C159.298 92.94 158.626 92.22 158.626 90.876V88.26H158.026C157.81 88.26 157.642 88.212 157.522 88.116C157.409 88.02 157.353 87.88 157.353 87.696C157.353 87.512 157.409 87.372 157.522 87.276C157.642 87.18 157.81 87.132 158.026 87.132H158.626V86.028C158.626 85.812 158.694 85.64 158.83 85.512C158.966 85.384 159.15 85.32 159.382 85.32C159.606 85.32 159.786 85.384 159.922 85.512C160.058 85.64 160.126 85.812 160.126 86.028V87.132H161.146C161.362 87.132 161.526 87.18 161.638 87.276C161.758 87.372 161.818 87.512 161.818 87.696C161.818 87.88 161.758 88.02 161.638 88.116C161.526 88.212 161.362 88.26 161.146 88.26H160.126V90.984C160.126 91.576 160.398 91.892 160.942 91.932L161.266 91.956ZM166.833 87.444C166.897 87.3 166.981 87.196 167.085 87.132C167.197 87.06 167.317 87.024 167.445 87.024C167.629 87.024 167.793 87.088 167.937 87.216C168.089 87.336 168.165 87.488 168.165 87.672C168.165 87.76 168.141 87.852 168.093 87.948L164.817 94.812C164.681 95.084 164.469 95.22 164.181 95.22C163.997 95.22 163.833 95.16 163.689 95.04C163.553 94.928 163.485 94.784 163.485 94.608C163.485 94.52 163.509 94.42 163.557 94.308L164.373 92.592L162.141 87.948C162.101 87.868 162.081 87.776 162.081 87.672C162.081 87.488 162.157 87.332 162.309 87.204C162.469 87.076 162.649 87.012 162.849 87.012C162.985 87.012 163.109 87.048 163.221 87.12C163.333 87.184 163.421 87.288 163.485 87.432L165.165 91.14L166.833 87.444ZM176.227 93.108C175.411 93.108 174.695 92.932 174.079 92.58C173.471 92.228 173.003 91.724 172.675 91.068C172.347 90.412 172.183 89.644 172.183 88.764C172.183 87.884 172.347 87.12 172.675 86.472C173.003 85.816 173.471 85.312 174.079 84.96C174.695 84.608 175.411 84.432 176.227 84.432C176.755 84.432 177.251 84.512 177.715 84.672C178.179 84.824 178.591 85.048 178.951 85.344C179.055 85.424 179.127 85.508 179.167 85.596C179.207 85.684 179.227 85.792 179.227 85.92C179.227 86.096 179.179 86.244 179.083 86.364C178.987 86.484 178.871 86.544 178.735 86.544C178.575 86.544 178.411 86.488 178.243 86.376C177.899 86.12 177.579 85.944 177.283 85.848C176.987 85.744 176.659 85.692 176.299 85.692C175.467 85.692 174.835 85.952 174.403 86.472C173.979 86.992 173.767 87.756 173.767 88.764C173.767 89.78 173.979 90.548 174.403 91.068C174.835 91.588 175.467 91.848 176.299 91.848C176.643 91.848 176.959 91.796 177.247 91.692C177.543 91.588 177.875 91.412 178.243 91.164C178.323 91.116 178.403 91.076 178.483 91.044C178.563 91.012 178.647 90.996 178.735 90.996C178.871 90.996 178.987 91.056 179.083 91.176C179.179 91.296 179.227 91.444 179.227 91.62C179.227 91.74 179.207 91.848 179.167 91.944C179.127 92.032 179.055 92.116 178.951 92.196C178.591 92.492 178.179 92.72 177.715 92.88C177.251 93.032 176.755 93.108 176.227 93.108ZM181.192 93.072C180.976 93.072 180.796 93.012 180.652 92.892C180.516 92.764 180.448 92.584 180.448 92.352V85.188C180.448 84.956 180.516 84.78 180.652 84.66C180.796 84.54 180.976 84.48 181.192 84.48C181.408 84.48 181.588 84.54 181.732 84.66C181.876 84.78 181.948 84.956 181.948 85.188V92.352C181.948 92.584 181.876 92.764 181.732 92.892C181.588 93.012 181.408 93.072 181.192 93.072ZM188.139 91.392C188.275 91.392 188.383 91.444 188.463 91.548C188.551 91.652 188.595 91.792 188.595 91.968C188.595 92.216 188.447 92.424 188.151 92.592C187.879 92.744 187.571 92.868 187.227 92.964C186.883 93.052 186.555 93.096 186.243 93.096C185.299 93.096 184.551 92.824 183.999 92.28C183.447 91.736 183.171 90.992 183.171 90.048C183.171 89.448 183.291 88.916 183.531 88.452C183.771 87.988 184.107 87.628 184.539 87.372C184.979 87.116 185.475 86.988 186.027 86.988C186.555 86.988 187.015 87.104 187.407 87.336C187.799 87.568 188.103 87.896 188.319 88.32C188.535 88.744 188.643 89.244 188.643 89.82C188.643 90.164 188.491 90.336 188.187 90.336H184.647C184.695 90.888 184.851 91.296 185.115 91.56C185.379 91.816 185.763 91.944 186.267 91.944C186.523 91.944 186.747 91.912 186.939 91.848C187.139 91.784 187.363 91.696 187.611 91.584C187.851 91.456 188.027 91.392 188.139 91.392ZM186.063 88.044C185.655 88.044 185.327 88.172 185.079 88.428C184.839 88.684 184.695 89.052 184.647 89.532H187.359C187.343 89.044 187.223 88.676 186.999 88.428C186.775 88.172 186.463 88.044 186.063 88.044ZM193.146 87.012C193.354 86.996 193.518 87.04 193.638 87.144C193.758 87.248 193.818 87.404 193.818 87.612C193.818 87.828 193.766 87.988 193.662 88.092C193.558 88.196 193.37 88.264 193.098 88.296L192.738 88.332C192.266 88.38 191.918 88.54 191.694 88.812C191.478 89.084 191.37 89.424 191.37 89.832V92.352C191.37 92.584 191.298 92.764 191.154 92.892C191.01 93.012 190.83 93.072 190.614 93.072C190.398 93.072 190.218 93.012 190.074 92.892C189.938 92.764 189.87 92.584 189.87 92.352V87.708C189.87 87.484 189.938 87.312 190.074 87.192C190.218 87.072 190.394 87.012 190.602 87.012C190.81 87.012 190.978 87.072 191.106 87.192C191.234 87.304 191.298 87.468 191.298 87.684V88.164C191.45 87.812 191.674 87.54 191.97 87.348C192.274 87.156 192.61 87.048 192.978 87.024L193.146 87.012ZM199.684 91.836C199.844 91.988 199.924 92.16 199.924 92.352C199.924 92.536 199.856 92.7 199.72 92.844C199.592 92.988 199.44 93.06 199.264 93.06C199.088 93.06 198.924 92.988 198.772 92.844L195.964 90.3V92.352C195.964 92.584 195.892 92.76 195.748 92.88C195.604 93 195.424 93.06 195.208 93.06C194.992 93.06 194.812 93 194.668 92.88C194.532 92.76 194.464 92.584 194.464 92.352V85.188C194.464 84.956 194.532 84.78 194.668 84.66C194.812 84.54 194.992 84.48 195.208 84.48C195.424 84.48 195.604 84.54 195.748 84.66C195.892 84.78 195.964 84.956 195.964 85.188V89.7L198.532 87.24C198.676 87.096 198.84 87.024 199.024 87.024C199.208 87.024 199.368 87.092 199.504 87.228C199.64 87.364 199.708 87.524 199.708 87.708C199.708 87.892 199.632 88.06 199.48 88.212L197.596 89.964L199.684 91.836ZM201.581 88.092C201.293 88.092 201.125 87.932 201.077 87.612L200.789 85.488C200.773 85.376 200.765 85.3 200.765 85.26C200.765 85.012 200.837 84.82 200.981 84.684C201.133 84.548 201.329 84.48 201.569 84.48C201.817 84.48 202.013 84.548 202.157 84.684C202.301 84.82 202.373 85.012 202.373 85.26C202.373 85.3 202.365 85.376 202.349 85.488L202.073 87.612C202.025 87.932 201.861 88.092 201.581 88.092ZM205.927 93.096C205.055 93.096 204.351 92.924 203.815 92.58C203.559 92.428 203.431 92.212 203.431 91.932C203.431 91.772 203.475 91.644 203.563 91.548C203.651 91.444 203.759 91.392 203.887 91.392C204.023 91.392 204.211 91.456 204.451 91.584C204.707 91.704 204.939 91.796 205.147 91.86C205.363 91.924 205.635 91.956 205.963 91.956C206.299 91.956 206.559 91.9 206.743 91.788C206.935 91.676 207.031 91.52 207.031 91.32C207.031 91.184 206.991 91.076 206.911 90.996C206.839 90.916 206.703 90.844 206.503 90.78C206.311 90.708 206.015 90.628 205.615 90.54C204.903 90.396 204.391 90.192 204.079 89.928C203.775 89.664 203.623 89.3 203.623 88.836C203.623 88.484 203.727 88.168 203.935 87.888C204.143 87.6 204.427 87.38 204.787 87.228C205.155 87.068 205.571 86.988 206.035 86.988C206.371 86.988 206.695 87.032 207.007 87.12C207.319 87.2 207.599 87.32 207.847 87.48C208.103 87.64 208.231 87.852 208.231 88.116C208.231 88.276 208.187 88.412 208.099 88.524C208.011 88.628 207.903 88.68 207.775 88.68C207.687 88.68 207.599 88.664 207.511 88.632C207.431 88.592 207.327 88.536 207.199 88.464C206.967 88.344 206.767 88.256 206.599 88.2C206.431 88.136 206.223 88.104 205.975 88.104C205.679 88.104 205.443 88.164 205.267 88.284C205.099 88.404 205.015 88.568 205.015 88.776C205.015 88.976 205.103 89.128 205.279 89.232C205.455 89.336 205.795 89.44 206.299 89.544C206.835 89.656 207.255 89.784 207.559 89.928C207.863 90.072 208.079 90.252 208.207 90.468C208.343 90.684 208.411 90.96 208.411 91.296C208.411 91.84 208.183 92.276 207.727 92.604C207.279 92.932 206.679 93.096 205.927 93.096ZM216.785 93.108C215.961 93.108 215.245 92.932 214.637 92.58C214.037 92.228 213.573 91.724 213.245 91.068C212.917 90.412 212.753 89.644 212.753 88.764C212.753 87.884 212.913 87.12 213.233 86.472C213.561 85.816 214.029 85.312 214.637 84.96C215.245 84.608 215.961 84.432 216.785 84.432C217.609 84.432 218.321 84.608 218.921 84.96C219.529 85.312 219.993 85.816 220.313 86.472C220.641 87.12 220.805 87.884 220.805 88.764C220.805 89.644 220.641 90.412 220.313 91.068C219.985 91.724 219.517 92.228 218.909 92.58C218.309 92.932 217.601 93.108 216.785 93.108ZM216.785 91.872C217.561 91.872 218.165 91.604 218.597 91.068C219.037 90.532 219.257 89.764 219.257 88.764C219.257 87.764 219.037 87 218.597 86.472C218.165 85.936 217.561 85.668 216.785 85.668C216.001 85.668 215.389 85.936 214.949 86.472C214.517 87 214.301 87.764 214.301 88.764C214.301 89.764 214.517 90.532 214.949 91.068C215.389 91.604 216.001 91.872 216.785 91.872ZM225.201 85.656C224.833 85.68 224.565 85.792 224.397 85.992C224.229 86.192 224.145 86.48 224.145 86.856V87.132H225.165C225.613 87.132 225.837 87.32 225.837 87.696C225.837 88.072 225.613 88.26 225.165 88.26H224.145V92.352C224.145 92.584 224.073 92.76 223.929 92.88C223.793 93 223.617 93.06 223.401 93.06C223.185 93.06 223.005 93 222.861 92.88C222.717 92.76 222.645 92.584 222.645 92.352V88.26H222.045C221.597 88.26 221.373 88.072 221.373 87.696C221.373 87.32 221.597 87.132 222.045 87.132H222.645V87.048C222.645 86.296 222.841 85.708 223.233 85.284C223.633 84.852 224.193 84.608 224.913 84.552L225.225 84.528C225.545 84.504 225.769 84.54 225.897 84.636C226.033 84.724 226.101 84.864 226.101 85.056C226.101 85.4 225.905 85.592 225.513 85.632L225.201 85.656ZM231.472 85.944C231.2 85.944 230.984 85.872 230.824 85.728C230.664 85.576 230.584 85.38 230.584 85.14C230.584 84.9 230.664 84.708 230.824 84.564C230.984 84.42 231.2 84.348 231.472 84.348C231.736 84.348 231.948 84.42 232.108 84.564C232.276 84.708 232.36 84.9 232.36 85.14C232.36 85.38 232.276 85.576 232.108 85.728C231.948 85.872 231.736 85.944 231.472 85.944ZM231.544 87.132C231.992 87.132 232.216 87.32 232.216 87.696V92.352C232.216 92.584 232.144 92.764 232 92.892C231.864 93.012 231.688 93.072 231.472 93.072C231.256 93.072 231.076 93.012 230.932 92.892C230.788 92.764 230.716 92.584 230.716 92.352V88.26H228.34V92.352C228.34 92.584 228.268 92.76 228.124 92.88C227.988 93 227.812 93.06 227.596 93.06C227.38 93.06 227.2 93 227.056 92.88C226.912 92.76 226.84 92.584 226.84 92.352V88.26H226.24C225.792 88.26 225.568 88.072 225.568 87.696C225.568 87.32 225.792 87.132 226.24 87.132H226.84V87.072C226.84 86.328 227.036 85.74 227.428 85.308C227.828 84.868 228.388 84.616 229.108 84.552L229.384 84.528C229.424 84.52 229.484 84.516 229.564 84.516C229.988 84.516 230.2 84.696 230.2 85.056C230.2 85.232 230.152 85.368 230.056 85.464C229.96 85.56 229.828 85.616 229.66 85.632L229.396 85.656C229.028 85.688 228.76 85.804 228.592 86.004C228.424 86.196 228.34 86.48 228.34 86.856V87.132H231.544ZM236.384 93.096C235.8 93.096 235.284 92.972 234.836 92.724C234.396 92.476 234.056 92.124 233.816 91.668C233.576 91.212 233.456 90.68 233.456 90.072C233.456 89.464 233.58 88.928 233.828 88.464C234.084 87.992 234.44 87.628 234.896 87.372C235.352 87.116 235.876 86.988 236.468 86.988C236.78 86.988 237.092 87.032 237.404 87.12C237.724 87.208 238.004 87.328 238.244 87.48C238.5 87.648 238.628 87.86 238.628 88.116C238.628 88.292 238.584 88.436 238.496 88.548C238.416 88.652 238.308 88.704 238.172 88.704C238.084 88.704 237.992 88.684 237.896 88.644C237.8 88.604 237.704 88.556 237.608 88.5C237.432 88.396 237.264 88.316 237.104 88.26C236.944 88.196 236.76 88.164 236.552 88.164C236.056 88.164 235.672 88.328 235.4 88.656C235.136 88.976 235.004 89.44 235.004 90.048C235.004 90.648 235.136 91.112 235.4 91.44C235.672 91.76 236.056 91.92 236.552 91.92C236.752 91.92 236.928 91.892 237.08 91.836C237.24 91.772 237.416 91.688 237.608 91.584C237.728 91.512 237.832 91.46 237.92 91.428C238.008 91.388 238.096 91.368 238.184 91.368C238.312 91.368 238.42 91.424 238.508 91.536C238.596 91.648 238.64 91.788 238.64 91.956C238.64 92.092 238.608 92.212 238.544 92.316C238.488 92.412 238.392 92.5 238.256 92.58C238.008 92.74 237.72 92.868 237.392 92.964C237.064 93.052 236.728 93.096 236.384 93.096ZM244.283 91.392C244.419 91.392 244.527 91.444 244.607 91.548C244.695 91.652 244.739 91.792 244.739 91.968C244.739 92.216 244.591 92.424 244.295 92.592C244.023 92.744 243.715 92.868 243.371 92.964C243.027 93.052 242.699 93.096 242.387 93.096C241.443 93.096 240.695 92.824 240.143 92.28C239.591 91.736 239.315 90.992 239.315 90.048C239.315 89.448 239.435 88.916 239.675 88.452C239.915 87.988 240.251 87.628 240.683 87.372C241.123 87.116 241.619 86.988 242.171 86.988C242.699 86.988 243.159 87.104 243.551 87.336C243.943 87.568 244.247 87.896 244.463 88.32C244.679 88.744 244.787 89.244 244.787 89.82C244.787 90.164 244.635 90.336 244.331 90.336H240.791C240.839 90.888 240.995 91.296 241.259 91.56C241.523 91.816 241.907 91.944 242.411 91.944C242.667 91.944 242.891 91.912 243.083 91.848C243.283 91.784 243.507 91.696 243.755 91.584C243.995 91.456 244.171 91.392 244.283 91.392ZM242.207 88.044C241.799 88.044 241.471 88.172 241.223 88.428C240.983 88.684 240.839 89.052 240.791 89.532H243.503C243.487 89.044 243.367 88.676 243.143 88.428C242.919 88.172 242.607 88.044 242.207 88.044Z" fill="#B8C0CC"/>
<rect x="377" y="119" width="118" height="88" rx="5" fill="white" stroke="#D7DEE2" stroke-width="2"/>
<rect x="386" y="151" width="100" height="24" rx="6" fill="#B8C0CC"/>
<path d="M418.011 141C417.779 141 417.595 140.936 417.459 140.808C417.331 140.68 417.267 140.5 417.267 140.268V133.272C417.267 133.04 417.331 132.86 417.459 132.732C417.595 132.604 417.779 132.54 418.011 132.54H422.343C422.575 132.54 422.755 132.592 422.883 132.696C423.011 132.8 423.075 132.948 423.075 133.14C423.075 133.34 423.011 133.496 422.883 133.608C422.755 133.712 422.575 133.764 422.343 133.764H418.779V136.092H422.103C422.335 136.092 422.515 136.144 422.643 136.248C422.771 136.352 422.835 136.504 422.835 136.704C422.835 136.896 422.771 137.044 422.643 137.148C422.515 137.252 422.335 137.304 422.103 137.304H418.779V139.776H422.343C422.575 139.776 422.755 139.832 422.883 139.944C423.011 140.048 423.075 140.2 423.075 140.4C423.075 140.592 423.011 140.74 422.883 140.844C422.755 140.948 422.575 141 422.343 141H418.011ZM427.61 134.988C428.314 134.988 428.838 135.188 429.182 135.588C429.526 135.988 429.698 136.592 429.698 137.4V140.352C429.698 140.576 429.63 140.752 429.494 140.88C429.366 141.008 429.186 141.072 428.954 141.072C428.722 141.072 428.538 141.008 428.402 140.88C428.266 140.752 428.198 140.576 428.198 140.352V137.484C428.198 137.028 428.11 136.696 427.934 136.488C427.766 136.28 427.498 136.176 427.13 136.176C426.698 136.176 426.35 136.312 426.086 136.584C425.83 136.856 425.702 137.22 425.702 137.676V140.352C425.702 140.576 425.634 140.752 425.498 140.88C425.362 141.008 425.178 141.072 424.946 141.072C424.714 141.072 424.53 141.008 424.394 140.88C424.266 140.752 424.202 140.576 424.202 140.352V135.708C424.202 135.5 424.27 135.332 424.406 135.204C424.542 135.076 424.726 135.012 424.958 135.012C425.166 135.012 425.334 135.076 425.462 135.204C425.598 135.324 425.666 135.484 425.666 135.684V136.008C425.866 135.68 426.134 135.428 426.47 135.252C426.806 135.076 427.186 134.988 427.61 134.988ZM436.189 135.012C436.413 135.012 436.593 135.076 436.729 135.204C436.865 135.332 436.933 135.504 436.933 135.72V140.46C436.933 141.38 436.677 142.076 436.165 142.548C435.653 143.02 434.897 143.256 433.897 143.256C433.025 143.256 432.297 143.092 431.713 142.764C431.417 142.588 431.269 142.376 431.269 142.128C431.269 141.952 431.309 141.812 431.389 141.708C431.477 141.604 431.589 141.552 431.725 141.552C431.797 141.552 431.885 141.568 431.989 141.6C432.093 141.64 432.201 141.684 432.313 141.732C432.601 141.852 432.857 141.944 433.081 142.008C433.313 142.072 433.577 142.104 433.873 142.104C434.921 142.104 435.445 141.592 435.445 140.568V139.8C435.269 140.128 435.013 140.384 434.677 140.568C434.341 140.744 433.957 140.832 433.525 140.832C433.013 140.832 432.557 140.712 432.157 140.472C431.765 140.224 431.457 139.88 431.233 139.44C431.009 139 430.897 138.492 430.897 137.916C430.897 137.34 431.005 136.832 431.221 136.392C431.445 135.944 431.757 135.6 432.157 135.36C432.557 135.112 433.013 134.988 433.525 134.988C433.957 134.988 434.341 135.08 434.677 135.264C435.013 135.44 435.269 135.692 435.445 136.02V135.708C435.445 135.5 435.513 135.332 435.649 135.204C435.785 135.076 435.965 135.012 436.189 135.012ZM433.921 139.668C434.401 139.668 434.773 139.512 435.037 139.2C435.309 138.888 435.445 138.46 435.445 137.916C435.445 137.364 435.309 136.932 435.037 136.62C434.773 136.308 434.401 136.152 433.921 136.152C433.449 136.152 433.077 136.308 432.805 136.62C432.533 136.932 432.397 137.364 432.397 137.916C432.397 138.46 432.533 138.888 432.805 139.2C433.077 139.512 433.449 139.668 433.921 139.668ZM439.231 141.072C439.015 141.072 438.835 141.012 438.691 140.892C438.555 140.764 438.487 140.584 438.487 140.352V133.188C438.487 132.956 438.555 132.78 438.691 132.66C438.835 132.54 439.015 132.48 439.231 132.48C439.447 132.48 439.627 132.54 439.771 132.66C439.915 132.78 439.987 132.956 439.987 133.188V140.352C439.987 140.584 439.915 140.764 439.771 140.892C439.627 141.012 439.447 141.072 439.231 141.072ZM442.278 141.072C442.062 141.072 441.882 141.012 441.738 140.892C441.602 140.764 441.534 140.584 441.534 140.352V135.72C441.534 135.488 441.602 135.312 441.738 135.192C441.882 135.072 442.062 135.012 442.278 135.012C442.494 135.012 442.674 135.072 442.818 135.192C442.962 135.312 443.034 135.488 443.034 135.72V140.352C443.034 140.584 442.962 140.764 442.818 140.892C442.674 141.012 442.494 141.072 442.278 141.072ZM442.278 133.944C442.006 133.944 441.79 133.872 441.63 133.728C441.47 133.576 441.39 133.38 441.39 133.14C441.39 132.9 441.47 132.708 441.63 132.564C441.79 132.42 442.006 132.348 442.278 132.348C442.542 132.348 442.754 132.42 442.914 132.564C443.082 132.708 443.166 132.9 443.166 133.14C443.166 133.38 443.086 133.576 442.926 133.728C442.766 133.872 442.55 133.944 442.278 133.944ZM446.705 141.096C445.833 141.096 445.129 140.924 444.593 140.58C444.337 140.428 444.209 140.212 444.209 139.932C444.209 139.772 444.253 139.644 444.341 139.548C444.429 139.444 444.537 139.392 444.665 139.392C444.801 139.392 444.989 139.456 445.229 139.584C445.485 139.704 445.717 139.796 445.925 139.86C446.141 139.924 446.413 139.956 446.741 139.956C447.077 139.956 447.337 139.9 447.521 139.788C447.713 139.676 447.809 139.52 447.809 139.32C447.809 139.184 447.769 139.076 447.689 138.996C447.617 138.916 447.481 138.844 447.281 138.78C447.089 138.708 446.793 138.628 446.393 138.54C445.681 138.396 445.169 138.192 444.857 137.928C444.553 137.664 444.401 137.3 444.401 136.836C444.401 136.484 444.505 136.168 444.713 135.888C444.921 135.6 445.205 135.38 445.565 135.228C445.933 135.068 446.349 134.988 446.813 134.988C447.149 134.988 447.473 135.032 447.785 135.12C448.097 135.2 448.377 135.32 448.625 135.48C448.881 135.64 449.009 135.852 449.009 136.116C449.009 136.276 448.965 136.412 448.877 136.524C448.789 136.628 448.681 136.68 448.553 136.68C448.465 136.68 448.377 136.664 448.289 136.632C448.209 136.592 448.105 136.536 447.977 136.464C447.745 136.344 447.545 136.256 447.377 136.2C447.209 136.136 447.001 136.104 446.753 136.104C446.457 136.104 446.221 136.164 446.045 136.284C445.877 136.404 445.793 136.568 445.793 136.776C445.793 136.976 445.881 137.128 446.057 137.232C446.233 137.336 446.573 137.44 447.077 137.544C447.613 137.656 448.033 137.784 448.337 137.928C448.641 138.072 448.857 138.252 448.985 138.468C449.121 138.684 449.189 138.96 449.189 139.296C449.189 139.84 448.961 140.276 448.505 140.604C448.057 140.932 447.457 141.096 446.705 141.096ZM453.837 134.988C455.213 134.988 455.901 135.792 455.901 137.4V140.352C455.901 140.576 455.833 140.752 455.697 140.88C455.569 141.008 455.389 141.072 455.157 141.072C454.925 141.072 454.741 141.008 454.605 140.88C454.469 140.752 454.401 140.576 454.401 140.352V137.4C454.401 136.976 454.313 136.668 454.137 136.476C453.969 136.276 453.701 136.176 453.333 136.176C452.901 136.176 452.553 136.312 452.289 136.584C452.033 136.856 451.905 137.22 451.905 137.676V140.352C451.905 140.576 451.837 140.752 451.701 140.88C451.565 141.008 451.381 141.072 451.149 141.072C450.917 141.072 450.733 141.008 450.597 140.88C450.469 140.752 450.405 140.576 450.405 140.352V133.176C450.405 132.968 450.473 132.8 450.609 132.672C450.753 132.544 450.937 132.48 451.161 132.48C451.385 132.48 451.565 132.54 451.701 132.66C451.837 132.78 451.905 132.944 451.905 133.152V135.948C452.105 135.636 452.369 135.4 452.697 135.24C453.033 135.072 453.413 134.988 453.837 134.988Z" fill="#B8C0CC"/>
<path d="M418.965 167.072C418.733 167.072 418.545 167 418.401 166.856C418.265 166.712 418.197 166.524 418.197 166.292V159.272C418.197 159.04 418.261 158.86 418.389 158.732C418.525 158.604 418.709 158.54 418.941 158.54H423.153C423.641 158.54 423.885 158.748 423.885 159.164C423.885 159.572 423.641 159.776 423.153 159.776H419.721V162.08H422.913C423.401 162.08 423.645 162.288 423.645 162.704C423.645 163.112 423.401 163.316 422.913 163.316H419.721V166.292C419.721 166.524 419.653 166.712 419.517 166.856C419.381 167 419.197 167.072 418.965 167.072ZM428.021 161.012C428.229 160.996 428.393 161.04 428.513 161.144C428.633 161.248 428.693 161.404 428.693 161.612C428.693 161.828 428.641 161.988 428.537 162.092C428.433 162.196 428.245 162.264 427.973 162.296L427.613 162.332C427.141 162.38 426.793 162.54 426.569 162.812C426.353 163.084 426.245 163.424 426.245 163.832V166.352C426.245 166.584 426.173 166.764 426.029 166.892C425.885 167.012 425.705 167.072 425.489 167.072C425.273 167.072 425.093 167.012 424.949 166.892C424.813 166.764 424.745 166.584 424.745 166.352V161.708C424.745 161.484 424.813 161.312 424.949 161.192C425.093 161.072 425.269 161.012 425.477 161.012C425.685 161.012 425.853 161.072 425.981 161.192C426.109 161.304 426.173 161.468 426.173 161.684V162.164C426.325 161.812 426.549 161.54 426.845 161.348C427.149 161.156 427.485 161.048 427.853 161.024L428.021 161.012ZM433.865 165.392C434.001 165.392 434.109 165.444 434.189 165.548C434.277 165.652 434.321 165.792 434.321 165.968C434.321 166.216 434.173 166.424 433.877 166.592C433.605 166.744 433.297 166.868 432.953 166.964C432.609 167.052 432.281 167.096 431.969 167.096C431.025 167.096 430.277 166.824 429.725 166.28C429.173 165.736 428.897 164.992 428.897 164.048C428.897 163.448 429.017 162.916 429.257 162.452C429.497 161.988 429.833 161.628 430.265 161.372C430.705 161.116 431.201 160.988 431.753 160.988C432.281 160.988 432.741 161.104 433.133 161.336C433.525 161.568 433.829 161.896 434.045 162.32C434.261 162.744 434.369 163.244 434.369 163.82C434.369 164.164 434.217 164.336 433.913 164.336H430.373C430.421 164.888 430.577 165.296 430.841 165.56C431.105 165.816 431.489 165.944 431.993 165.944C432.249 165.944 432.473 165.912 432.665 165.848C432.865 165.784 433.089 165.696 433.337 165.584C433.577 165.456 433.753 165.392 433.865 165.392ZM431.789 162.044C431.381 162.044 431.053 162.172 430.805 162.428C430.565 162.684 430.421 163.052 430.373 163.532H433.085C433.069 163.044 432.949 162.676 432.725 162.428C432.501 162.172 432.189 162.044 431.789 162.044ZM439.004 160.988C439.708 160.988 440.232 161.188 440.576 161.588C440.92 161.988 441.092 162.592 441.092 163.4V166.352C441.092 166.576 441.024 166.752 440.888 166.88C440.76 167.008 440.58 167.072 440.348 167.072C440.116 167.072 439.932 167.008 439.796 166.88C439.66 166.752 439.592 166.576 439.592 166.352V163.484C439.592 163.028 439.504 162.696 439.328 162.488C439.16 162.28 438.892 162.176 438.524 162.176C438.092 162.176 437.744 162.312 437.48 162.584C437.224 162.856 437.096 163.22 437.096 163.676V166.352C437.096 166.576 437.028 166.752 436.892 166.88C436.756 167.008 436.572 167.072 436.34 167.072C436.108 167.072 435.924 167.008 435.788 166.88C435.66 166.752 435.596 166.576 435.596 166.352V161.708C435.596 161.5 435.664 161.332 435.8 161.204C435.936 161.076 436.12 161.012 436.352 161.012C436.56 161.012 436.728 161.076 436.856 161.204C436.992 161.324 437.06 161.484 437.06 161.684V162.008C437.26 161.68 437.528 161.428 437.864 161.252C438.2 161.076 438.58 160.988 439.004 160.988ZM445.22 167.096C444.636 167.096 444.12 166.972 443.672 166.724C443.232 166.476 442.892 166.124 442.652 165.668C442.412 165.212 442.292 164.68 442.292 164.072C442.292 163.464 442.416 162.928 442.664 162.464C442.92 161.992 443.276 161.628 443.732 161.372C444.188 161.116 444.712 160.988 445.304 160.988C445.616 160.988 445.928 161.032 446.24 161.12C446.56 161.208 446.84 161.328 447.08 161.48C447.336 161.648 447.464 161.86 447.464 162.116C447.464 162.292 447.42 162.436 447.332 162.548C447.252 162.652 447.144 162.704 447.008 162.704C446.92 162.704 446.828 162.684 446.732 162.644C446.636 162.604 446.54 162.556 446.444 162.5C446.268 162.396 446.1 162.316 445.94 162.26C445.78 162.196 445.596 162.164 445.388 162.164C444.892 162.164 444.508 162.328 444.236 162.656C443.972 162.976 443.84 163.44 443.84 164.048C443.84 164.648 443.972 165.112 444.236 165.44C444.508 165.76 444.892 165.92 445.388 165.92C445.588 165.92 445.764 165.892 445.916 165.836C446.076 165.772 446.252 165.688 446.444 165.584C446.564 165.512 446.668 165.46 446.756 165.428C446.844 165.388 446.932 165.368 447.02 165.368C447.148 165.368 447.256 165.424 447.344 165.536C447.432 165.648 447.476 165.788 447.476 165.956C447.476 166.092 447.444 166.212 447.38 166.316C447.324 166.412 447.228 166.5 447.092 166.58C446.844 166.74 446.556 166.868 446.228 166.964C445.9 167.052 445.564 167.096 445.22 167.096ZM451.907 160.988C453.283 160.988 453.971 161.792 453.971 163.4V166.352C453.971 166.576 453.903 166.752 453.767 166.88C453.639 167.008 453.459 167.072 453.227 167.072C452.995 167.072 452.811 167.008 452.675 166.88C452.539 166.752 452.471 166.576 452.471 166.352V163.4C452.471 162.976 452.383 162.668 452.207 162.476C452.039 162.276 451.771 162.176 451.403 162.176C450.971 162.176 450.623 162.312 450.359 162.584C450.103 162.856 449.975 163.22 449.975 163.676V166.352C449.975 166.576 449.907 166.752 449.771 166.88C449.635 167.008 449.451 167.072 449.219 167.072C448.987 167.072 448.803 167.008 448.667 166.88C448.539 166.752 448.475 166.576 448.475 166.352V159.176C448.475 158.968 448.543 158.8 448.679 158.672C448.823 158.544 449.007 158.48 449.231 158.48C449.455 158.48 449.635 158.54 449.771 158.66C449.907 158.78 449.975 158.944 449.975 159.152V161.948C450.175 161.636 450.439 161.4 450.767 161.24C451.103 161.072 451.483 160.988 451.907 160.988Z" fill="white"/>
<path d="M420.905 193.072C420.673 193.072 420.485 193.004 420.341 192.868C420.205 192.724 420.137 192.532 420.137 192.292V185.272C420.137 185.04 420.201 184.86 420.329 184.732C420.465 184.604 420.649 184.54 420.881 184.54H423.833C424.737 184.54 425.441 184.768 425.945 185.224C426.449 185.672 426.701 186.304 426.701 187.12C426.701 187.936 426.449 188.572 425.945 189.028C425.441 189.484 424.737 189.712 423.833 189.712H421.685V192.292C421.685 192.532 421.613 192.724 421.469 192.868C421.333 193.004 421.145 193.072 420.905 193.072ZM423.641 188.524C424.705 188.524 425.237 188.06 425.237 187.132C425.237 186.204 424.705 185.74 423.641 185.74H421.685V188.524H423.641ZM430.392 193.096C429.792 193.096 429.264 192.972 428.808 192.724C428.36 192.476 428.012 192.12 427.764 191.656C427.516 191.192 427.392 190.652 427.392 190.036C427.392 189.42 427.516 188.884 427.764 188.428C428.012 187.964 428.36 187.608 428.808 187.36C429.264 187.112 429.792 186.988 430.392 186.988C430.992 186.988 431.516 187.112 431.964 187.36C432.42 187.608 432.768 187.964 433.008 188.428C433.256 188.884 433.38 189.42 433.38 190.036C433.38 190.652 433.256 191.192 433.008 191.656C432.768 192.12 432.42 192.476 431.964 192.724C431.516 192.972 430.992 193.096 430.392 193.096ZM430.38 191.932C430.868 191.932 431.24 191.772 431.496 191.452C431.752 191.132 431.88 190.66 431.88 190.036C431.88 189.42 431.752 188.952 431.496 188.632C431.24 188.304 430.872 188.14 430.392 188.14C429.912 188.14 429.54 188.304 429.276 188.632C429.02 188.952 428.892 189.42 428.892 190.036C428.892 190.66 429.02 191.132 429.276 191.452C429.532 191.772 429.9 191.932 430.38 191.932ZM435.362 193.072C435.146 193.072 434.966 193.012 434.822 192.892C434.686 192.764 434.618 192.584 434.618 192.352V185.188C434.618 184.956 434.686 184.78 434.822 184.66C434.966 184.54 435.146 184.48 435.362 184.48C435.578 184.48 435.758 184.54 435.902 184.66C436.046 184.78 436.118 184.956 436.118 185.188V192.352C436.118 192.584 436.046 192.764 435.902 192.892C435.758 193.012 435.578 193.072 435.362 193.072ZM438.409 193.072C438.193 193.072 438.013 193.012 437.869 192.892C437.733 192.764 437.665 192.584 437.665 192.352V187.72C437.665 187.488 437.733 187.312 437.869 187.192C438.013 187.072 438.193 187.012 438.409 187.012C438.625 187.012 438.805 187.072 438.949 187.192C439.093 187.312 439.165 187.488 439.165 187.72V192.352C439.165 192.584 439.093 192.764 438.949 192.892C438.805 193.012 438.625 193.072 438.409 193.072ZM438.409 185.944C438.137 185.944 437.921 185.872 437.761 185.728C437.601 185.576 437.521 185.38 437.521 185.14C437.521 184.9 437.601 184.708 437.761 184.564C437.921 184.42 438.137 184.348 438.409 184.348C438.673 184.348 438.885 184.42 439.045 184.564C439.213 184.708 439.297 184.9 439.297 185.14C439.297 185.38 439.217 185.576 439.057 185.728C438.897 185.872 438.681 185.944 438.409 185.944ZM442.836 193.096C441.964 193.096 441.26 192.924 440.724 192.58C440.468 192.428 440.34 192.212 440.34 191.932C440.34 191.772 440.384 191.644 440.472 191.548C440.56 191.444 440.668 191.392 440.796 191.392C440.932 191.392 441.12 191.456 441.36 191.584C441.616 191.704 441.848 191.796 442.056 191.86C442.272 191.924 442.544 191.956 442.872 191.956C443.208 191.956 443.468 191.9 443.652 191.788C443.844 191.676 443.94 191.52 443.94 191.32C443.94 191.184 443.9 191.076 443.82 190.996C443.748 190.916 443.612 190.844 443.412 190.78C443.22 190.708 442.924 190.628 442.524 190.54C441.812 190.396 441.3 190.192 440.988 189.928C440.684 189.664 440.532 189.3 440.532 188.836C440.532 188.484 440.636 188.168 440.844 187.888C441.052 187.6 441.336 187.38 441.696 187.228C442.064 187.068 442.48 186.988 442.944 186.988C443.28 186.988 443.604 187.032 443.916 187.12C444.228 187.2 444.508 187.32 444.756 187.48C445.012 187.64 445.14 187.852 445.14 188.116C445.14 188.276 445.096 188.412 445.008 188.524C444.92 188.628 444.812 188.68 444.684 188.68C444.596 188.68 444.508 188.664 444.42 188.632C444.34 188.592 444.236 188.536 444.108 188.464C443.876 188.344 443.676 188.256 443.508 188.2C443.34 188.136 443.132 188.104 442.884 188.104C442.588 188.104 442.352 188.164 442.176 188.284C442.008 188.404 441.924 188.568 441.924 188.776C441.924 188.976 442.012 189.128 442.188 189.232C442.364 189.336 442.704 189.44 443.208 189.544C443.744 189.656 444.164 189.784 444.468 189.928C444.772 190.072 444.988 190.252 445.116 190.468C445.252 190.684 445.32 190.96 445.32 191.296C445.32 191.84 445.092 192.276 444.636 192.604C444.188 192.932 443.588 193.096 442.836 193.096ZM449.968 186.988C451.344 186.988 452.032 187.792 452.032 189.4V192.352C452.032 192.576 451.964 192.752 451.828 192.88C451.7 193.008 451.52 193.072 451.288 193.072C451.056 193.072 450.872 193.008 450.736 192.88C450.6 192.752 450.532 192.576 450.532 192.352V189.4C450.532 188.976 450.444 188.668 450.268 188.476C450.1 188.276 449.832 188.176 449.464 188.176C449.032 188.176 448.684 188.312 448.42 188.584C448.164 188.856 448.036 189.22 448.036 189.676V192.352C448.036 192.576 447.968 192.752 447.832 192.88C447.696 193.008 447.512 193.072 447.28 193.072C447.048 193.072 446.864 193.008 446.728 192.88C446.6 192.752 446.536 192.576 446.536 192.352V185.176C446.536 184.968 446.604 184.8 446.74 184.672C446.884 184.544 447.068 184.48 447.292 184.48C447.516 184.48 447.696 184.54 447.832 184.66C447.968 184.78 448.036 184.944 448.036 185.152V187.948C448.236 187.636 448.5 187.4 448.828 187.24C449.164 187.072 449.544 186.988 449.968 186.988Z" fill="#B8C0CC"/>
<rect x="376" y="238" width="120" height="64" rx="6" fill="#B8C0CC" fill-opacity="0.4"/>
<rect x="386" y="248" width="100" height="8" rx="4" fill="white" fill-opacity="0.7"/>
<rect x="386" y="266" width="100" height="8" rx="4" fill="white" fill-opacity="0.7"/>
<rect x="386" y="284" width="100" height="8" rx="4" fill="white" fill-opacity="0.7"/>
<g filter="url(#filter1_d)">
<rect x="10" y="162" width="150" height="140" rx="12" fill="white"/>
<rect x="10.5" y="162.5" width="149" height="139" rx="11.5" stroke="#F2F4F5"/>
</g>
<path d="M43.9847 189.028C44.0807 189.172 44.1287 189.312 44.1287 189.448C44.1287 189.632 44.0527 189.784 43.9007 189.904C43.7567 190.024 43.5847 190.084 43.3847 190.084C43.2567 190.084 43.1327 190.056 43.0127 190C42.9007 189.936 42.8047 189.844 42.7247 189.724L41.1287 187.3C40.9687 187.044 40.7967 186.864 40.6127 186.76C40.4367 186.656 40.2047 186.604 39.9167 186.604H38.7407V189.292C38.7407 189.532 38.6727 189.724 38.5367 189.868C38.4007 190.004 38.2167 190.072 37.9847 190.072C37.7527 190.072 37.5647 190.004 37.4207 189.868C37.2847 189.724 37.2167 189.532 37.2167 189.292V182.272C37.2167 182.04 37.2807 181.86 37.4087 181.732C37.5447 181.604 37.7287 181.54 37.9607 181.54H40.9607C41.9207 181.54 42.6487 181.756 43.1447 182.188C43.6487 182.612 43.9007 183.228 43.9007 184.036C43.9007 184.692 43.7127 185.232 43.3367 185.656C42.9687 186.072 42.4447 186.34 41.7647 186.46C41.9967 186.516 42.2007 186.616 42.3767 186.76C42.5527 186.904 42.7247 187.104 42.8927 187.36L43.9847 189.028ZM40.7447 185.416C41.3287 185.416 41.7567 185.308 42.0287 185.092C42.3007 184.868 42.4367 184.528 42.4367 184.072C42.4367 183.608 42.3007 183.272 42.0287 183.064C41.7567 182.848 41.3287 182.74 40.7447 182.74H38.7287V185.416H40.7447ZM50.0724 188.392C50.2084 188.392 50.3164 188.444 50.3964 188.548C50.4844 188.652 50.5284 188.792 50.5284 188.968C50.5284 189.216 50.3804 189.424 50.0844 189.592C49.8124 189.744 49.5044 189.868 49.1604 189.964C48.8164 190.052 48.4884 190.096 48.1764 190.096C47.2324 190.096 46.4844 189.824 45.9324 189.28C45.3804 188.736 45.1044 187.992 45.1044 187.048C45.1044 186.448 45.2244 185.916 45.4644 185.452C45.7044 184.988 46.0404 184.628 46.4724 184.372C46.9124 184.116 47.4084 183.988 47.9604 183.988C48.4884 183.988 48.9484 184.104 49.3404 184.336C49.7324 184.568 50.0364 184.896 50.2524 185.32C50.4684 185.744 50.5764 186.244 50.5764 186.82C50.5764 187.164 50.4244 187.336 50.1204 187.336H46.5804C46.6284 187.888 46.7844 188.296 47.0484 188.56C47.3124 188.816 47.6964 188.944 48.2004 188.944C48.4564 188.944 48.6804 188.912 48.8724 188.848C49.0724 188.784 49.2964 188.696 49.5444 188.584C49.7844 188.456 49.9604 188.392 50.0724 188.392ZM47.9964 185.044C47.5884 185.044 47.2604 185.172 47.0124 185.428C46.7724 185.684 46.6284 186.052 46.5804 186.532H49.2924C49.2764 186.044 49.1564 185.676 48.9324 185.428C48.7084 185.172 48.3964 185.044 47.9964 185.044ZM55.2114 183.988C55.9154 183.988 56.4394 184.188 56.7834 184.588C57.1274 184.988 57.2994 185.592 57.2994 186.4V189.352C57.2994 189.576 57.2314 189.752 57.0954 189.88C56.9674 190.008 56.7874 190.072 56.5554 190.072C56.3234 190.072 56.1394 190.008 56.0034 189.88C55.8674 189.752 55.7994 189.576 55.7994 189.352V186.484C55.7994 186.028 55.7114 185.696 55.5354 185.488C55.3674 185.28 55.0994 185.176 54.7314 185.176C54.2994 185.176 53.9514 185.312 53.6874 185.584C53.4314 185.856 53.3034 186.22 53.3034 186.676V189.352C53.3034 189.576 53.2354 189.752 53.0994 189.88C52.9634 190.008 52.7794 190.072 52.5474 190.072C52.3154 190.072 52.1314 190.008 51.9954 189.88C51.8674 189.752 51.8034 189.576 51.8034 189.352V184.708C51.8034 184.5 51.8714 184.332 52.0074 184.204C52.1434 184.076 52.3274 184.012 52.5594 184.012C52.7674 184.012 52.9354 184.076 53.0634 184.204C53.1994 184.324 53.2674 184.484 53.2674 184.684V185.008C53.4674 184.68 53.7354 184.428 54.0714 184.252C54.4074 184.076 54.7874 183.988 55.2114 183.988ZM61.871 188.956C62.271 188.98 62.471 189.16 62.471 189.496C62.471 189.688 62.391 189.836 62.231 189.94C62.079 190.036 61.859 190.076 61.571 190.06L61.247 190.036C59.903 189.94 59.231 189.22 59.231 187.876V185.26H58.631C58.415 185.26 58.247 185.212 58.127 185.116C58.015 185.02 57.959 184.88 57.959 184.696C57.959 184.512 58.015 184.372 58.127 184.276C58.247 184.18 58.415 184.132 58.631 184.132H59.231V183.028C59.231 182.812 59.299 182.64 59.435 182.512C59.571 182.384 59.755 182.32 59.987 182.32C60.211 182.32 60.391 182.384 60.527 182.512C60.663 182.64 60.731 182.812 60.731 183.028V184.132H61.751C61.967 184.132 62.131 184.18 62.243 184.276C62.363 184.372 62.423 184.512 62.423 184.696C62.423 184.88 62.363 185.02 62.243 185.116C62.131 185.212 61.967 185.26 61.751 185.26H60.731V187.984C60.731 188.576 61.003 188.892 61.547 188.932L61.871 188.956ZM65.7967 183.988C66.6127 183.988 67.2167 184.192 67.6087 184.6C68.0087 185 68.2087 185.612 68.2087 186.436V189.364C68.2087 189.58 68.1447 189.752 68.0167 189.88C67.8887 190 67.7127 190.06 67.4887 190.06C67.2807 190.06 67.1087 189.996 66.9727 189.868C66.8447 189.74 66.7807 189.572 66.7807 189.364V189.1C66.6447 189.412 66.4287 189.656 66.1327 189.832C65.8447 190.008 65.5087 190.096 65.1247 190.096C64.7327 190.096 64.3767 190.016 64.0567 189.856C63.7367 189.696 63.4847 189.476 63.3007 189.196C63.1167 188.916 63.0247 188.604 63.0247 188.26C63.0247 187.828 63.1327 187.488 63.3487 187.24C63.5727 186.992 63.9327 186.812 64.4287 186.7C64.9247 186.588 65.6087 186.532 66.4807 186.532H66.7807V186.256C66.7807 185.864 66.6967 185.58 66.5287 185.404C66.3607 185.22 66.0887 185.128 65.7127 185.128C65.4807 185.128 65.2447 185.164 65.0047 185.236C64.7647 185.3 64.4807 185.396 64.1527 185.524C63.9447 185.628 63.7927 185.68 63.6967 185.68C63.5527 185.68 63.4327 185.628 63.3367 185.524C63.2487 185.42 63.2047 185.284 63.2047 185.116C63.2047 184.98 63.2367 184.864 63.3007 184.768C63.3727 184.664 63.4887 184.568 63.6487 184.48C63.9287 184.328 64.2607 184.208 64.6447 184.12C65.0367 184.032 65.4207 183.988 65.7967 183.988ZM65.4247 189.016C65.8247 189.016 66.1487 188.884 66.3967 188.62C66.6527 188.348 66.7807 188 66.7807 187.576V187.324H66.5647C66.0287 187.324 65.6127 187.348 65.3167 187.396C65.0207 187.444 64.8087 187.528 64.6807 187.648C64.5527 187.768 64.4887 187.932 64.4887 188.14C64.4887 188.396 64.5767 188.608 64.7527 188.776C64.9367 188.936 65.1607 189.016 65.4247 189.016ZM70.4771 190.072C70.2611 190.072 70.0811 190.012 69.9371 189.892C69.8011 189.764 69.7331 189.584 69.7331 189.352V182.188C69.7331 181.956 69.8011 181.78 69.9371 181.66C70.0811 181.54 70.2611 181.48 70.4771 181.48C70.6931 181.48 70.8731 181.54 71.0171 181.66C71.1611 181.78 71.2331 181.956 71.2331 182.188V189.352C71.2331 189.584 71.1611 189.764 71.0171 189.892C70.8731 190.012 70.6931 190.072 70.4771 190.072ZM83.8378 189.076C83.8858 189.18 83.9098 189.284 83.9098 189.388C83.9098 189.572 83.8338 189.728 83.6818 189.856C83.5378 189.984 83.3698 190.048 83.1778 190.048C83.0498 190.048 82.9298 190.016 82.8178 189.952C82.7058 189.88 82.6178 189.772 82.5538 189.628L81.8338 188.02H77.6098L76.8898 189.628C76.8258 189.772 76.7378 189.88 76.6258 189.952C76.5138 190.016 76.3898 190.048 76.2538 190.048C76.0698 190.048 75.9018 189.984 75.7498 189.856C75.5978 189.728 75.5218 189.572 75.5218 189.388C75.5218 189.284 75.5458 189.18 75.5938 189.076L78.9058 181.96C78.9778 181.8 79.0858 181.68 79.2298 181.6C79.3818 181.512 79.5418 181.468 79.7098 181.468C79.8778 181.468 80.0338 181.512 80.1778 181.6C80.3298 181.68 80.4418 181.8 80.5138 181.96L83.8378 189.076ZM78.1378 186.82H81.3058L79.7218 183.256L78.1378 186.82ZM86.9743 190.096C86.1023 190.096 85.3983 189.924 84.8623 189.58C84.6063 189.428 84.4783 189.212 84.4783 188.932C84.4783 188.772 84.5223 188.644 84.6103 188.548C84.6983 188.444 84.8063 188.392 84.9343 188.392C85.0703 188.392 85.2583 188.456 85.4983 188.584C85.7543 188.704 85.9863 188.796 86.1943 188.86C86.4103 188.924 86.6823 188.956 87.0103 188.956C87.3463 188.956 87.6063 188.9 87.7903 188.788C87.9823 188.676 88.0783 188.52 88.0783 188.32C88.0783 188.184 88.0383 188.076 87.9583 187.996C87.8863 187.916 87.7503 187.844 87.5503 187.78C87.3583 187.708 87.0623 187.628 86.6623 187.54C85.9503 187.396 85.4383 187.192 85.1263 186.928C84.8223 186.664 84.6703 186.3 84.6703 185.836C84.6703 185.484 84.7743 185.168 84.9823 184.888C85.1903 184.6 85.4743 184.38 85.8343 184.228C86.2023 184.068 86.6183 183.988 87.0823 183.988C87.4183 183.988 87.7423 184.032 88.0543 184.12C88.3663 184.2 88.6463 184.32 88.8943 184.48C89.1503 184.64 89.2783 184.852 89.2783 185.116C89.2783 185.276 89.2343 185.412 89.1463 185.524C89.0583 185.628 88.9503 185.68 88.8223 185.68C88.7343 185.68 88.6463 185.664 88.5583 185.632C88.4783 185.592 88.3743 185.536 88.2463 185.464C88.0143 185.344 87.8143 185.256 87.6463 185.2C87.4783 185.136 87.2703 185.104 87.0223 185.104C86.7263 185.104 86.4903 185.164 86.3143 185.284C86.1463 185.404 86.0623 185.568 86.0623 185.776C86.0623 185.976 86.1503 186.128 86.3263 186.232C86.5023 186.336 86.8423 186.44 87.3463 186.544C87.8823 186.656 88.3023 186.784 88.6063 186.928C88.9103 187.072 89.1263 187.252 89.2543 187.468C89.3903 187.684 89.4583 187.96 89.4583 188.296C89.4583 188.84 89.2303 189.276 88.7743 189.604C88.3263 189.932 87.7263 190.096 86.9743 190.096ZM92.7985 190.096C91.9265 190.096 91.2225 189.924 90.6865 189.58C90.4305 189.428 90.3025 189.212 90.3025 188.932C90.3025 188.772 90.3465 188.644 90.4345 188.548C90.5225 188.444 90.6305 188.392 90.7585 188.392C90.8945 188.392 91.0825 188.456 91.3225 188.584C91.5785 188.704 91.8105 188.796 92.0185 188.86C92.2345 188.924 92.5065 188.956 92.8345 188.956C93.1705 188.956 93.4305 188.9 93.6145 188.788C93.8065 188.676 93.9025 188.52 93.9025 188.32C93.9025 188.184 93.8625 188.076 93.7825 187.996C93.7105 187.916 93.5745 187.844 93.3745 187.78C93.1825 187.708 92.8865 187.628 92.4865 187.54C91.7745 187.396 91.2625 187.192 90.9505 186.928C90.6465 186.664 90.4945 186.3 90.4945 185.836C90.4945 185.484 90.5985 185.168 90.8065 184.888C91.0145 184.6 91.2985 184.38 91.6585 184.228C92.0265 184.068 92.4425 183.988 92.9065 183.988C93.2425 183.988 93.5665 184.032 93.8785 184.12C94.1905 184.2 94.4705 184.32 94.7185 184.48C94.9745 184.64 95.1025 184.852 95.1025 185.116C95.1025 185.276 95.0585 185.412 94.9705 185.524C94.8825 185.628 94.7745 185.68 94.6465 185.68C94.5585 185.68 94.4705 185.664 94.3825 185.632C94.3025 185.592 94.1985 185.536 94.0705 185.464C93.8385 185.344 93.6385 185.256 93.4705 185.2C93.3025 185.136 93.0945 185.104 92.8465 185.104C92.5505 185.104 92.3145 185.164 92.1385 185.284C91.9705 185.404 91.8865 185.568 91.8865 185.776C91.8865 185.976 91.9745 186.128 92.1505 186.232C92.3265 186.336 92.6665 186.44 93.1705 186.544C93.7065 186.656 94.1265 186.784 94.4305 186.928C94.7345 187.072 94.9505 187.252 95.0785 187.468C95.2145 187.684 95.2825 187.96 95.2825 188.296C95.2825 188.84 95.0545 189.276 94.5985 189.604C94.1505 189.932 93.5505 190.096 92.7985 190.096ZM97.2428 190.072C97.0268 190.072 96.8468 190.012 96.7028 189.892C96.5668 189.764 96.4988 189.584 96.4988 189.352V184.72C96.4988 184.488 96.5668 184.312 96.7028 184.192C96.8468 184.072 97.0268 184.012 97.2428 184.012C97.4588 184.012 97.6388 184.072 97.7828 184.192C97.9268 184.312 97.9988 184.488 97.9988 184.72V189.352C97.9988 189.584 97.9268 189.764 97.7828 189.892C97.6388 190.012 97.4588 190.072 97.2428 190.072ZM97.2428 182.944C96.9708 182.944 96.7548 182.872 96.5948 182.728C96.4348 182.576 96.3548 182.38 96.3548 182.14C96.3548 181.9 96.4348 181.708 96.5948 181.564C96.7548 181.42 96.9708 181.348 97.2428 181.348C97.5068 181.348 97.7188 181.42 97.8788 181.564C98.0468 181.708 98.1308 181.9 98.1308 182.14C98.1308 182.38 98.0508 182.576 97.8908 182.728C97.7308 182.872 97.5148 182.944 97.2428 182.944ZM101.67 190.096C100.798 190.096 100.094 189.924 99.5576 189.58C99.3016 189.428 99.1736 189.212 99.1736 188.932C99.1736 188.772 99.2176 188.644 99.3056 188.548C99.3936 188.444 99.5016 188.392 99.6296 188.392C99.7656 188.392 99.9536 188.456 100.194 188.584C100.45 188.704 100.682 188.796 100.89 188.86C101.106 188.924 101.378 188.956 101.706 188.956C102.042 188.956 102.302 188.9 102.486 188.788C102.678 188.676 102.774 188.52 102.774 188.32C102.774 188.184 102.734 188.076 102.654 187.996C102.582 187.916 102.446 187.844 102.246 187.78C102.054 187.708 101.758 187.628 101.358 187.54C100.646 187.396 100.134 187.192 99.8216 186.928C99.5176 186.664 99.3656 186.3 99.3656 185.836C99.3656 185.484 99.4696 185.168 99.6776 184.888C99.8856 184.6 100.17 184.38 100.53 184.228C100.898 184.068 101.314 183.988 101.778 183.988C102.114 183.988 102.438 184.032 102.75 184.12C103.062 184.2 103.342 184.32 103.59 184.48C103.846 184.64 103.974 184.852 103.974 185.116C103.974 185.276 103.93 185.412 103.842 185.524C103.754 185.628 103.646 185.68 103.518 185.68C103.43 185.68 103.342 185.664 103.254 185.632C103.174 185.592 103.07 185.536 102.942 185.464C102.71 185.344 102.51 185.256 102.342 185.2C102.174 185.136 101.966 185.104 101.718 185.104C101.422 185.104 101.186 185.164 101.01 185.284C100.842 185.404 100.758 185.568 100.758 185.776C100.758 185.976 100.846 186.128 101.022 186.232C101.198 186.336 101.538 186.44 102.042 186.544C102.578 186.656 102.998 186.784 103.302 186.928C103.606 187.072 103.822 187.252 103.95 187.468C104.086 187.684 104.154 187.96 104.154 188.296C104.154 188.84 103.926 189.276 103.47 189.604C103.022 189.932 102.422 190.096 101.67 190.096ZM108.359 188.956C108.759 188.98 108.959 189.16 108.959 189.496C108.959 189.688 108.879 189.836 108.719 189.94C108.567 190.036 108.347 190.076 108.059 190.06L107.735 190.036C106.391 189.94 105.719 189.22 105.719 187.876V185.26H105.119C104.903 185.26 104.735 185.212 104.615 185.116C104.503 185.02 104.447 184.88 104.447 184.696C104.447 184.512 104.503 184.372 104.615 184.276C104.735 184.18 104.903 184.132 105.119 184.132H105.719V183.028C105.719 182.812 105.787 182.64 105.923 182.512C106.059 182.384 106.243 182.32 106.475 182.32C106.699 182.32 106.879 182.384 107.015 182.512C107.151 182.64 107.219 182.812 107.219 183.028V184.132H108.239C108.455 184.132 108.619 184.18 108.731 184.276C108.851 184.372 108.911 184.512 108.911 184.696C108.911 184.88 108.851 185.02 108.731 185.116C108.619 185.212 108.455 185.26 108.239 185.26H107.219V187.984C107.219 188.576 107.491 188.892 108.035 188.932L108.359 188.956ZM112.285 183.988C113.101 183.988 113.705 184.192 114.097 184.6C114.497 185 114.697 185.612 114.697 186.436V189.364C114.697 189.58 114.633 189.752 114.505 189.88C114.377 190 114.201 190.06 113.977 190.06C113.769 190.06 113.597 189.996 113.461 189.868C113.333 189.74 113.269 189.572 113.269 189.364V189.1C113.133 189.412 112.917 189.656 112.621 189.832C112.333 190.008 111.997 190.096 111.613 190.096C111.221 190.096 110.865 190.016 110.545 189.856C110.225 189.696 109.973 189.476 109.789 189.196C109.605 188.916 109.513 188.604 109.513 188.26C109.513 187.828 109.621 187.488 109.837 187.24C110.061 186.992 110.421 186.812 110.917 186.7C111.413 186.588 112.097 186.532 112.969 186.532H113.269V186.256C113.269 185.864 113.185 185.58 113.017 185.404C112.849 185.22 112.577 185.128 112.201 185.128C111.969 185.128 111.733 185.164 111.493 185.236C111.253 185.3 110.969 185.396 110.641 185.524C110.433 185.628 110.281 185.68 110.185 185.68C110.041 185.68 109.921 185.628 109.825 185.524C109.737 185.42 109.693 185.284 109.693 185.116C109.693 184.98 109.725 184.864 109.789 184.768C109.861 184.664 109.977 184.568 110.137 184.48C110.417 184.328 110.749 184.208 111.133 184.12C111.525 184.032 111.909 183.988 112.285 183.988ZM111.913 189.016C112.313 189.016 112.637 188.884 112.885 188.62C113.141 188.348 113.269 188 113.269 187.576V187.324H113.053C112.517 187.324 112.101 187.348 111.805 187.396C111.509 187.444 111.297 187.528 111.169 187.648C111.041 187.768 110.977 187.932 110.977 188.14C110.977 188.396 111.065 188.608 111.241 188.776C111.425 188.936 111.649 189.016 111.913 189.016ZM119.629 183.988C120.333 183.988 120.857 184.188 121.201 184.588C121.545 184.988 121.717 185.592 121.717 186.4V189.352C121.717 189.576 121.649 189.752 121.513 189.88C121.385 190.008 121.205 190.072 120.973 190.072C120.741 190.072 120.557 190.008 120.421 189.88C120.285 189.752 120.217 189.576 120.217 189.352V186.484C120.217 186.028 120.129 185.696 119.953 185.488C119.785 185.28 119.517 185.176 119.149 185.176C118.717 185.176 118.369 185.312 118.105 185.584C117.849 185.856 117.721 186.22 117.721 186.676V189.352C117.721 189.576 117.653 189.752 117.517 189.88C117.381 190.008 117.197 190.072 116.965 190.072C116.733 190.072 116.549 190.008 116.413 189.88C116.285 189.752 116.221 189.576 116.221 189.352V184.708C116.221 184.5 116.289 184.332 116.425 184.204C116.561 184.076 116.745 184.012 116.977 184.012C117.185 184.012 117.353 184.076 117.481 184.204C117.617 184.324 117.685 184.484 117.685 184.684V185.008C117.885 184.68 118.153 184.428 118.489 184.252C118.825 184.076 119.205 183.988 119.629 183.988ZM125.845 190.096C125.261 190.096 124.745 189.972 124.297 189.724C123.857 189.476 123.517 189.124 123.277 188.668C123.037 188.212 122.917 187.68 122.917 187.072C122.917 186.464 123.041 185.928 123.289 185.464C123.545 184.992 123.901 184.628 124.357 184.372C124.813 184.116 125.337 183.988 125.929 183.988C126.241 183.988 126.553 184.032 126.865 184.12C127.185 184.208 127.465 184.328 127.705 184.48C127.961 184.648 128.089 184.86 128.089 185.116C128.089 185.292 128.045 185.436 127.957 185.548C127.877 185.652 127.769 185.704 127.633 185.704C127.545 185.704 127.453 185.684 127.357 185.644C127.261 185.604 127.165 185.556 127.069 185.5C126.893 185.396 126.725 185.316 126.565 185.26C126.405 185.196 126.221 185.164 126.013 185.164C125.517 185.164 125.133 185.328 124.861 185.656C124.597 185.976 124.465 186.44 124.465 187.048C124.465 187.648 124.597 188.112 124.861 188.44C125.133 188.76 125.517 188.92 126.013 188.92C126.213 188.92 126.389 188.892 126.541 188.836C126.701 188.772 126.877 188.688 127.069 188.584C127.189 188.512 127.293 188.46 127.381 188.428C127.469 188.388 127.557 188.368 127.645 188.368C127.773 188.368 127.881 188.424 127.969 188.536C128.057 188.648 128.101 188.788 128.101 188.956C128.101 189.092 128.069 189.212 128.005 189.316C127.949 189.412 127.853 189.5 127.717 189.58C127.469 189.74 127.181 189.868 126.853 189.964C126.525 190.052 126.189 190.096 125.845 190.096ZM133.744 188.392C133.88 188.392 133.988 188.444 134.068 188.548C134.156 188.652 134.2 188.792 134.2 188.968C134.2 189.216 134.052 189.424 133.756 189.592C133.484 189.744 133.176 189.868 132.832 189.964C132.488 190.052 132.16 190.096 131.848 190.096C130.904 190.096 130.156 189.824 129.604 189.28C129.052 188.736 128.776 187.992 128.776 187.048C128.776 186.448 128.896 185.916 129.136 185.452C129.376 184.988 129.712 184.628 130.144 184.372C130.584 184.116 131.08 183.988 131.632 183.988C132.16 183.988 132.62 184.104 133.012 184.336C133.404 184.568 133.708 184.896 133.924 185.32C134.14 185.744 134.248 186.244 134.248 186.82C134.248 187.164 134.096 187.336 133.792 187.336H130.252C130.3 187.888 130.456 188.296 130.72 188.56C130.984 188.816 131.368 188.944 131.872 188.944C132.128 188.944 132.352 188.912 132.544 188.848C132.744 188.784 132.968 188.696 133.216 188.584C133.456 188.456 133.632 188.392 133.744 188.392ZM131.668 185.044C131.26 185.044 130.932 185.172 130.684 185.428C130.444 185.684 130.3 186.052 130.252 186.532H132.964C132.948 186.044 132.828 185.676 132.604 185.428C132.38 185.172 132.068 185.044 131.668 185.044Z" fill="#B8C0CC"/>
<rect x="27" y="207" width="38" height="18" rx="5" stroke="#D7DEE2" stroke-width="2"/>
<rect x="77" y="207" width="66" height="18" rx="5" stroke="#D7DEE2" stroke-width="2"/>
<rect x="27" y="237" width="116" height="18" rx="5" stroke="#D7DEE2" stroke-width="2"/>
<rect x="26" y="266" width="118" height="20" rx="6" fill="#B8C0CC"/>
<path d="M62.2509 275.632C62.7389 275.768 63.1149 276.016 63.3789 276.376C63.6509 276.736 63.7869 277.176 63.7869 277.696C63.7869 278.416 63.5269 278.98 63.0069 279.388C62.4949 279.796 61.7869 280 60.8829 280H57.7869C57.5549 280 57.3709 279.936 57.2349 279.808C57.1069 279.68 57.0429 279.5 57.0429 279.268V272.272C57.0429 272.04 57.1069 271.86 57.2349 271.732C57.3709 271.604 57.5549 271.54 57.7869 271.54H60.7629C61.6429 271.54 62.3309 271.736 62.8269 272.128C63.3309 272.512 63.5829 273.052 63.5829 273.748C63.5829 274.196 63.4629 274.584 63.2229 274.912C62.9909 275.24 62.6669 275.48 62.2509 275.632ZM58.5549 275.104H60.5109C61.5749 275.104 62.1069 274.708 62.1069 273.916C62.1069 273.516 61.9749 273.22 61.7109 273.028C61.4469 272.836 61.0469 272.74 60.5109 272.74H58.5549V275.104ZM60.7149 278.8C61.2749 278.8 61.6829 278.7 61.9389 278.5C62.1949 278.3 62.3229 277.988 62.3229 277.564C62.3229 277.14 62.1909 276.824 61.9269 276.616C61.6709 276.408 61.2669 276.304 60.7149 276.304H58.5549V278.8H60.7149ZM67.7783 280.096C67.1783 280.096 66.6503 279.972 66.1943 279.724C65.7463 279.476 65.3983 279.12 65.1503 278.656C64.9023 278.192 64.7783 277.652 64.7783 277.036C64.7783 276.42 64.9023 275.884 65.1503 275.428C65.3983 274.964 65.7463 274.608 66.1943 274.36C66.6503 274.112 67.1783 273.988 67.7783 273.988C68.3783 273.988 68.9023 274.112 69.3503 274.36C69.8063 274.608 70.1543 274.964 70.3943 275.428C70.6423 275.884 70.7663 276.42 70.7663 277.036C70.7663 277.652 70.6423 278.192 70.3943 278.656C70.1543 279.12 69.8063 279.476 69.3503 279.724C68.9023 279.972 68.3783 280.096 67.7783 280.096ZM67.7663 278.932C68.2543 278.932 68.6263 278.772 68.8823 278.452C69.1383 278.132 69.2663 277.66 69.2663 277.036C69.2663 276.42 69.1383 275.952 68.8823 275.632C68.6263 275.304 68.2583 275.14 67.7783 275.14C67.2983 275.14 66.9263 275.304 66.6623 275.632C66.4063 275.952 66.2783 276.42 66.2783 277.036C66.2783 277.66 66.4063 278.132 66.6623 278.452C66.9183 278.772 67.2863 278.932 67.7663 278.932ZM74.6806 280.096C74.0806 280.096 73.5526 279.972 73.0966 279.724C72.6486 279.476 72.3006 279.12 72.0526 278.656C71.8046 278.192 71.6806 277.652 71.6806 277.036C71.6806 276.42 71.8046 275.884 72.0526 275.428C72.3006 274.964 72.6486 274.608 73.0966 274.36C73.5526 274.112 74.0806 273.988 74.6806 273.988C75.2806 273.988 75.8046 274.112 76.2526 274.36C76.7086 274.608 77.0566 274.964 77.2966 275.428C77.5446 275.884 77.6686 276.42 77.6686 277.036C77.6686 277.652 77.5446 278.192 77.2966 278.656C77.0566 279.12 76.7086 279.476 76.2526 279.724C75.8046 279.972 75.2806 280.096 74.6806 280.096ZM74.6686 278.932C75.1566 278.932 75.5286 278.772 75.7846 278.452C76.0406 278.132 76.1686 277.66 76.1686 277.036C76.1686 276.42 76.0406 275.952 75.7846 275.632C75.5286 275.304 75.1606 275.14 74.6806 275.14C74.2006 275.14 73.8286 275.304 73.5646 275.632C73.3086 275.952 73.1806 276.42 73.1806 277.036C73.1806 277.66 73.3086 278.132 73.5646 278.452C73.8206 278.772 74.1886 278.932 74.6686 278.932ZM84.127 278.836C84.287 278.988 84.367 279.16 84.367 279.352C84.367 279.536 84.299 279.7 84.163 279.844C84.035 279.988 83.883 280.06 83.707 280.06C83.531 280.06 83.367 279.988 83.215 279.844L80.407 277.3V279.352C80.407 279.584 80.335 279.76 80.191 279.88C80.047 280 79.867 280.06 79.651 280.06C79.435 280.06 79.255 280 79.111 279.88C78.975 279.76 78.907 279.584 78.907 279.352V272.188C78.907 271.956 78.975 271.78 79.111 271.66C79.255 271.54 79.435 271.48 79.651 271.48C79.867 271.48 80.047 271.54 80.191 271.66C80.335 271.78 80.407 271.956 80.407 272.188V276.7L82.975 274.24C83.119 274.096 83.283 274.024 83.467 274.024C83.651 274.024 83.811 274.092 83.947 274.228C84.083 274.364 84.151 274.524 84.151 274.708C84.151 274.892 84.075 275.06 83.923 275.212L82.039 276.964L84.127 278.836ZM95.1384 271.48C95.3624 271.48 95.5384 271.552 95.6664 271.696C95.8024 271.832 95.8704 272.016 95.8704 272.248V279.292C95.8704 279.524 95.8024 279.712 95.6664 279.856C95.5304 280 95.3544 280.072 95.1384 280.072C94.8824 280.072 94.6864 279.98 94.5504 279.796L90.1704 274.096V279.292C90.1704 279.524 90.1064 279.712 89.9784 279.856C89.8504 280 89.6744 280.072 89.4504 280.072C89.2264 280.072 89.0504 280 88.9224 279.856C88.7944 279.712 88.7304 279.524 88.7304 279.292V272.248C88.7304 272.016 88.7984 271.832 88.9344 271.696C89.0704 271.552 89.2504 271.48 89.4744 271.48C89.7224 271.48 89.9144 271.572 90.0504 271.756L94.4184 277.432V272.248C94.4184 272.016 94.4824 271.832 94.6104 271.696C94.7464 271.552 94.9224 271.48 95.1384 271.48ZM100.239 280.096C99.6392 280.096 99.1112 279.972 98.6552 279.724C98.2072 279.476 97.8592 279.12 97.6112 278.656C97.3632 278.192 97.2392 277.652 97.2392 277.036C97.2392 276.42 97.3632 275.884 97.6112 275.428C97.8592 274.964 98.2072 274.608 98.6552 274.36C99.1112 274.112 99.6392 273.988 100.239 273.988C100.839 273.988 101.363 274.112 101.811 274.36C102.267 274.608 102.615 274.964 102.855 275.428C103.103 275.884 103.227 276.42 103.227 277.036C103.227 277.652 103.103 278.192 102.855 278.656C102.615 279.12 102.267 279.476 101.811 279.724C101.363 279.972 100.839 280.096 100.239 280.096ZM100.227 278.932C100.715 278.932 101.087 278.772 101.343 278.452C101.599 278.132 101.727 277.66 101.727 277.036C101.727 276.42 101.599 275.952 101.343 275.632C101.087 275.304 100.719 275.14 100.239 275.14C99.7592 275.14 99.3872 275.304 99.1232 275.632C98.8672 275.952 98.7392 276.42 98.7392 277.036C98.7392 277.66 98.8672 278.132 99.1232 278.452C99.3792 278.772 99.7472 278.932 100.227 278.932ZM112.304 274.456C112.36 274.312 112.44 274.204 112.544 274.132C112.656 274.06 112.776 274.024 112.904 274.024C113.088 274.024 113.252 274.088 113.396 274.216C113.548 274.336 113.624 274.488 113.624 274.672C113.624 274.776 113.604 274.868 113.564 274.948L111.584 279.592C111.52 279.744 111.42 279.86 111.284 279.94C111.156 280.02 111.012 280.06 110.852 280.06C110.7 280.06 110.556 280.02 110.42 279.94C110.292 279.86 110.196 279.744 110.132 279.592L108.704 276.16L107.324 279.592C107.26 279.744 107.16 279.86 107.024 279.94C106.896 280.02 106.752 280.06 106.592 280.06C106.44 280.06 106.296 280.02 106.16 279.94C106.024 279.86 105.924 279.744 105.86 279.592L103.892 274.948C103.852 274.844 103.832 274.756 103.832 274.684C103.832 274.5 103.912 274.344 104.072 274.216C104.232 274.08 104.408 274.012 104.6 274.012C104.736 274.012 104.86 274.048 104.972 274.12C105.084 274.192 105.168 274.3 105.224 274.444L106.64 278.104L108.092 274.48C108.156 274.328 108.248 274.216 108.368 274.144C108.488 274.064 108.62 274.024 108.764 274.024C108.908 274.024 109.04 274.064 109.16 274.144C109.28 274.216 109.372 274.328 109.436 274.48L110.9 278.116L112.304 274.456Z" fill="white"/>
<defs>
<filter id="filter0_d" x="88" y="0" width="478" height="352" filterUnits="userSpaceOnUse" color-interpolation-filters="sRGB">
<feFlood flood-opacity="0" result="BackgroundImageFix"/>
<feColorMatrix in="SourceAlpha" type="matrix" values="0 0 0 0 0 0 0 0 0 0 0 0 0 0 0 0 0 0 127 0"/>
<feOffset dx="6" dy="6"/>
<feGaussianBlur stdDeviation="7"/>
<feColorMatrix type="matrix" values="0 0 0 0 0.721569 0 0 0 0 0.752941 0 0 0 0 0.8 0 0 0 0.16 0"/>
<feBlend mode="normal" in2="BackgroundImageFix" result="effect1_dropShadow"/>
<feBlend mode="normal" in="SourceGraphic" in2="effect1_dropShadow" result="shape"/>
</filter>
<filter id="filter1_d" x="0" y="152" width="198" height="188" filterUnits="userSpaceOnUse" color-interpolation-filters="sRGB">
<feFlood flood-opacity="0" result="BackgroundImageFix"/>
<feColorMatrix in="SourceAlpha" type="matrix" values="0 0 0 0 0 0 0 0 0 0 0 0 0 0 0 0 0 0 127 0"/>
<feOffset dx="14" dy="14"/>
<feGaussianBlur stdDeviation="12"/>
<feColorMatrix type="matrix" values="0 0 0 0 0.721569 0 0 0 0 0.752941 0 0 0 0 0.8 0 0 0 0.2 0"/>
<feBlend mode="normal" in2="BackgroundImageFix" result="effect1_dropShadow"/>
<feBlend mode="normal" in="SourceGraphic" in2="effect1_dropShadow" result="shape"/>
</filter>
</defs>
</svg>
