<svg width="399" height="482" viewBox="0 0 399 482" fill="none" xmlns="http://www.w3.org/2000/svg">
<g filter="url(#filter0_d)">
<rect x="90" y="8" width="214" height="426.08" rx="14" fill="white"/>
<rect x="90.5" y="8.5" width="213" height="425.08" rx="13.5" stroke="#F2F4F5"/>
</g>
<path d="M146.095 169.78C144.428 169.78 143.155 169.167 142.275 167.94C141.395 166.7 140.955 164.9 140.955 162.54C140.955 160.193 141.395 158.407 142.275 157.18C143.155 155.94 144.428 155.32 146.095 155.32C147.762 155.32 149.035 155.94 149.915 157.18C150.795 158.407 151.235 160.193 151.235 162.54C151.235 164.887 150.795 166.68 149.915 167.92C149.035 169.16 147.762 169.78 146.095 169.78ZM146.095 167.76C147.002 167.76 147.662 167.347 148.075 166.52C148.488 165.68 148.695 164.353 148.695 162.54C148.695 160.713 148.488 159.393 148.075 158.58C147.662 157.753 147.002 157.34 146.095 157.34C145.188 157.34 144.528 157.753 144.115 158.58C143.702 159.407 143.495 160.727 143.495 162.54C143.495 164.353 143.702 165.68 144.115 166.52C144.528 167.347 145.188 167.76 146.095 167.76ZM158.827 160.58C159.707 160.58 160.481 160.773 161.147 161.16C161.827 161.533 162.354 162.06 162.727 162.74C163.101 163.42 163.287 164.2 163.287 165.08C163.287 166 163.074 166.813 162.647 167.52C162.234 168.227 161.641 168.78 160.867 169.18C160.107 169.567 159.227 169.76 158.227 169.76C157.401 169.76 156.587 169.627 155.787 169.36C155.001 169.08 154.327 168.707 153.767 168.24C153.461 167.973 153.307 167.66 153.307 167.3C153.307 167.007 153.387 166.76 153.547 166.56C153.721 166.347 153.921 166.24 154.147 166.24C154.281 166.24 154.407 166.267 154.527 166.32C154.647 166.36 154.787 166.433 154.947 166.54C155.481 166.913 156.001 167.2 156.507 167.4C157.014 167.6 157.554 167.7 158.127 167.7C159.007 167.7 159.681 167.48 160.147 167.04C160.614 166.6 160.847 165.973 160.847 165.16C160.847 164.373 160.607 163.753 160.127 163.3C159.661 162.833 159.014 162.6 158.187 162.6C157.667 162.6 157.201 162.673 156.787 162.82C156.387 162.967 155.974 163.213 155.547 163.56C155.294 163.733 155.034 163.82 154.767 163.82C154.501 163.82 154.274 163.74 154.087 163.58C153.901 163.42 153.807 163.207 153.807 162.94V156.7C153.807 156.327 153.914 156.033 154.127 155.82C154.341 155.607 154.641 155.5 155.027 155.5H161.687C162.487 155.5 162.887 155.833 162.887 156.5C162.887 157.167 162.487 157.5 161.687 157.5H156.327V161.3C157.007 160.82 157.841 160.58 158.827 160.58ZM170.769 169.72C169.742 169.76 169.229 169.407 169.229 168.66C169.229 168.34 169.316 168.1 169.489 167.94C169.649 167.767 169.909 167.667 170.269 167.64L170.909 167.6C171.456 167.573 171.869 167.4 172.149 167.08C172.429 166.76 172.569 166.273 172.569 165.62V156.68C172.569 156.293 172.682 155.987 172.909 155.76C173.149 155.52 173.462 155.4 173.849 155.4C174.249 155.4 174.562 155.52 174.789 155.76C175.029 155.987 175.149 156.293 175.149 156.68V165.62C175.149 168.14 173.902 169.493 171.409 169.68L170.769 169.72ZM182.217 159.58C183.577 159.58 184.584 159.92 185.237 160.6C185.904 161.267 186.237 162.287 186.237 163.66V168.54C186.237 168.9 186.13 169.187 185.917 169.4C185.704 169.6 185.41 169.7 185.037 169.7C184.69 169.7 184.404 169.593 184.177 169.38C183.964 169.167 183.857 168.887 183.857 168.54V168.1C183.63 168.62 183.27 169.027 182.777 169.32C182.297 169.613 181.737 169.76 181.097 169.76C180.444 169.76 179.85 169.627 179.317 169.36C178.784 169.093 178.364 168.727 178.057 168.26C177.75 167.793 177.597 167.273 177.597 166.7C177.597 165.98 177.777 165.413 178.137 165C178.51 164.587 179.11 164.287 179.937 164.1C180.764 163.913 181.904 163.82 183.357 163.82H183.857V163.36C183.857 162.707 183.717 162.233 183.437 161.94C183.157 161.633 182.704 161.48 182.077 161.48C181.69 161.48 181.297 161.54 180.897 161.66C180.497 161.767 180.024 161.927 179.477 162.14C179.13 162.313 178.877 162.4 178.717 162.4C178.477 162.4 178.277 162.313 178.117 162.14C177.97 161.967 177.897 161.74 177.897 161.46C177.897 161.233 177.95 161.04 178.057 160.88C178.177 160.707 178.37 160.547 178.637 160.4C179.104 160.147 179.657 159.947 180.297 159.8C180.95 159.653 181.59 159.58 182.217 159.58ZM181.597 167.96C182.264 167.96 182.804 167.74 183.217 167.3C183.644 166.847 183.857 166.267 183.857 165.56V165.14H183.497C182.604 165.14 181.91 165.18 181.417 165.26C180.924 165.34 180.57 165.48 180.357 165.68C180.144 165.88 180.037 166.153 180.037 166.5C180.037 166.927 180.184 167.28 180.477 167.56C180.784 167.827 181.157 167.96 181.597 167.96ZM194.458 159.58C195.631 159.58 196.505 159.913 197.078 160.58C197.651 161.247 197.938 162.253 197.938 163.6V168.52C197.938 168.893 197.825 169.187 197.598 169.4C197.385 169.613 197.085 169.72 196.698 169.72C196.311 169.72 196.005 169.613 195.778 169.4C195.551 169.187 195.438 168.893 195.438 168.52V163.74C195.438 162.98 195.291 162.427 194.998 162.08C194.718 161.733 194.271 161.56 193.658 161.56C192.938 161.56 192.358 161.787 191.918 162.24C191.491 162.693 191.278 163.3 191.278 164.06V168.52C191.278 168.893 191.165 169.187 190.938 169.4C190.711 169.613 190.405 169.72 190.018 169.72C189.631 169.72 189.325 169.613 189.098 169.4C188.885 169.187 188.778 168.893 188.778 168.52V160.78C188.778 160.433 188.891 160.153 189.118 159.94C189.345 159.727 189.651 159.62 190.038 159.62C190.385 159.62 190.665 159.727 190.878 159.94C191.105 160.14 191.218 160.407 191.218 160.74V161.28C191.551 160.733 191.998 160.313 192.558 160.02C193.118 159.727 193.751 159.58 194.458 159.58ZM214.567 167.52C215.367 167.52 215.767 167.86 215.767 168.54C215.767 169.247 215.367 169.6 214.567 169.6H206.967C206.62 169.6 206.347 169.5 206.147 169.3C205.947 169.087 205.847 168.827 205.847 168.52C205.847 168.12 206 167.76 206.307 167.44L210.867 162.54C211.427 161.927 211.833 161.367 212.087 160.86C212.353 160.34 212.487 159.827 212.487 159.32C212.487 158.693 212.307 158.213 211.947 157.88C211.587 157.547 211.073 157.38 210.407 157.38C209.86 157.38 209.327 157.487 208.807 157.7C208.3 157.9 207.787 158.18 207.267 158.54C207.133 158.633 207 158.713 206.867 158.78C206.733 158.833 206.6 158.86 206.467 158.86C206.24 158.86 206.04 158.753 205.867 158.54C205.707 158.327 205.627 158.073 205.627 157.78C205.627 157.58 205.66 157.407 205.727 157.26C205.807 157.113 205.927 156.973 206.087 156.84C206.673 156.373 207.36 156.007 208.147 155.74C208.933 155.46 209.72 155.32 210.507 155.32C211.88 155.32 212.973 155.667 213.787 156.36C214.613 157.053 215.027 157.987 215.027 159.16C215.027 159.973 214.853 160.74 214.507 161.46C214.16 162.167 213.573 162.96 212.747 163.84L209.287 167.52H214.567ZM222.619 169.78C220.952 169.78 219.679 169.167 218.799 167.94C217.919 166.7 217.479 164.9 217.479 162.54C217.479 160.193 217.919 158.407 218.799 157.18C219.679 155.94 220.952 155.32 222.619 155.32C224.285 155.32 225.559 155.94 226.439 157.18C227.319 158.407 227.759 160.193 227.759 162.54C227.759 164.887 227.319 166.68 226.439 167.92C225.559 169.16 224.285 169.78 222.619 169.78ZM222.619 167.76C223.525 167.76 224.185 167.347 224.599 166.52C225.012 165.68 225.219 164.353 225.219 162.54C225.219 160.713 225.012 159.393 224.599 158.58C224.185 157.753 223.525 157.34 222.619 157.34C221.712 157.34 221.052 157.753 220.639 158.58C220.225 159.407 220.019 160.727 220.019 162.54C220.019 164.353 220.225 165.68 220.639 166.52C221.052 167.347 221.712 167.76 222.619 167.76ZM238.571 167.52C239.371 167.52 239.771 167.86 239.771 168.54C239.771 169.247 239.371 169.6 238.571 169.6H230.971C230.624 169.6 230.351 169.5 230.151 169.3C229.951 169.087 229.851 168.827 229.851 168.52C229.851 168.12 230.004 167.76 230.311 167.44L234.871 162.54C235.431 161.927 235.837 161.367 236.091 160.86C236.357 160.34 236.491 159.827 236.491 159.32C236.491 158.693 236.311 158.213 235.951 157.88C235.591 157.547 235.077 157.38 234.411 157.38C233.864 157.38 233.331 157.487 232.811 157.7C232.304 157.9 231.791 158.18 231.271 158.54C231.137 158.633 231.004 158.713 230.871 158.78C230.737 158.833 230.604 158.86 230.471 158.86C230.244 158.86 230.044 158.753 229.871 158.54C229.711 158.327 229.631 158.073 229.631 157.78C229.631 157.58 229.664 157.407 229.731 157.26C229.811 157.113 229.931 156.973 230.091 156.84C230.677 156.373 231.364 156.007 232.151 155.74C232.937 155.46 233.724 155.32 234.511 155.32C235.884 155.32 236.977 155.667 237.791 156.36C238.617 157.053 239.031 157.987 239.031 159.16C239.031 159.973 238.857 160.74 238.511 161.46C238.164 162.167 237.577 162.96 236.751 163.84L233.291 167.52H238.571ZM250.642 167.52C251.442 167.52 251.842 167.86 251.842 168.54C251.842 169.247 251.442 169.6 250.642 169.6H243.882C243.069 169.6 242.662 169.247 242.662 168.54C242.662 167.86 243.069 167.52 243.882 167.52H245.962V158.4L244.042 159.58C243.856 159.687 243.689 159.74 243.542 159.74C243.262 159.74 243.022 159.62 242.822 159.38C242.636 159.14 242.542 158.873 242.542 158.58C242.542 158.193 242.716 157.893 243.062 157.68L246.162 155.76C246.562 155.52 246.942 155.4 247.302 155.4C247.676 155.4 247.976 155.513 248.202 155.74C248.429 155.967 248.542 156.28 248.542 156.68V167.52H250.642Z" fill="#B8C0CC"/>
<path d="M156.353 197.27C156.073 197.27 155.849 197.19 155.681 197.032C155.522 196.864 155.443 196.644 155.443 196.374V188.814H152.895C152.335 188.814 152.055 188.566 152.055 188.072C152.055 187.577 152.335 187.33 152.895 187.33H159.797C160.357 187.33 160.637 187.577 160.637 188.072C160.637 188.566 160.357 188.814 159.797 188.814H157.249V196.374C157.249 196.644 157.165 196.864 156.997 197.032C156.838 197.19 156.623 197.27 156.353 197.27ZM165.875 190.214C166.145 190.214 166.36 190.288 166.519 190.438C166.677 190.587 166.757 190.788 166.757 191.04V196.472C166.757 196.714 166.673 196.91 166.505 197.06C166.346 197.209 166.136 197.284 165.875 197.284C165.623 197.284 165.422 197.214 165.273 197.074C165.123 196.934 165.049 196.742 165.049 196.5V196.15C164.834 196.523 164.545 196.812 164.181 197.018C163.817 197.214 163.406 197.312 162.949 197.312C161.269 197.312 160.429 196.369 160.429 194.484V191.04C160.429 190.788 160.508 190.587 160.667 190.438C160.825 190.288 161.035 190.214 161.297 190.214C161.567 190.214 161.782 190.288 161.941 190.438C162.099 190.587 162.179 190.788 162.179 191.04V194.498C162.179 194.983 162.277 195.342 162.473 195.576C162.669 195.809 162.977 195.926 163.397 195.926C163.882 195.926 164.269 195.767 164.559 195.45C164.857 195.123 165.007 194.694 165.007 194.162V191.04C165.007 190.788 165.086 190.587 165.245 190.438C165.403 190.288 165.613 190.214 165.875 190.214ZM173.996 195.324C174.155 195.324 174.281 195.384 174.374 195.506C174.477 195.627 174.528 195.79 174.528 195.996C174.528 196.285 174.355 196.528 174.01 196.724C173.693 196.901 173.333 197.046 172.932 197.158C172.531 197.26 172.148 197.312 171.784 197.312C170.683 197.312 169.81 196.994 169.166 196.36C168.522 195.725 168.2 194.857 168.2 193.756C168.2 193.056 168.34 192.435 168.62 191.894C168.9 191.352 169.292 190.932 169.796 190.634C170.309 190.335 170.888 190.186 171.532 190.186C172.148 190.186 172.685 190.321 173.142 190.592C173.599 190.862 173.954 191.245 174.206 191.74C174.458 192.234 174.584 192.818 174.584 193.49C174.584 193.891 174.407 194.092 174.052 194.092H169.922C169.978 194.736 170.16 195.212 170.468 195.52C170.776 195.818 171.224 195.968 171.812 195.968C172.111 195.968 172.372 195.93 172.596 195.856C172.829 195.781 173.091 195.678 173.38 195.548C173.66 195.398 173.865 195.324 173.996 195.324ZM171.574 191.418C171.098 191.418 170.715 191.567 170.426 191.866C170.146 192.164 169.978 192.594 169.922 193.154H173.086C173.067 192.584 172.927 192.155 172.666 191.866C172.405 191.567 172.041 191.418 171.574 191.418ZM183.106 197.326C181.94 197.326 181.048 196.896 180.432 196.038C179.816 195.17 179.508 193.91 179.508 192.258C179.508 190.615 179.816 189.364 180.432 188.506C181.048 187.638 181.94 187.204 183.106 187.204C184.273 187.204 185.164 187.638 185.78 188.506C186.396 189.364 186.704 190.615 186.704 192.258C186.704 193.9 186.396 195.156 185.78 196.024C185.164 196.892 184.273 197.326 183.106 197.326ZM183.106 195.912C183.741 195.912 184.203 195.622 184.492 195.044C184.782 194.456 184.926 193.527 184.926 192.258C184.926 190.979 184.782 190.055 184.492 189.486C184.203 188.907 183.741 188.618 183.106 188.618C182.472 188.618 182.01 188.907 181.72 189.486C181.431 190.064 181.286 190.988 181.286 192.258C181.286 193.527 181.431 194.456 181.72 195.044C182.01 195.622 182.472 195.912 183.106 195.912ZM194.315 195.744C194.875 195.744 195.155 195.982 195.155 196.458C195.155 196.952 194.875 197.2 194.315 197.2H189.583C189.013 197.2 188.729 196.952 188.729 196.458C188.729 195.982 189.013 195.744 189.583 195.744H191.039V189.36L189.695 190.186C189.564 190.26 189.447 190.298 189.345 190.298C189.149 190.298 188.981 190.214 188.841 190.046C188.71 189.878 188.645 189.691 188.645 189.486C188.645 189.215 188.766 189.005 189.009 188.856L191.179 187.512C191.459 187.344 191.725 187.26 191.977 187.26C192.238 187.26 192.448 187.339 192.607 187.498C192.765 187.656 192.845 187.876 192.845 188.156V195.744H194.315ZM197.431 192.3C197.133 192.3 196.885 192.202 196.689 192.006C196.493 191.8 196.395 191.548 196.395 191.25C196.395 190.951 196.493 190.704 196.689 190.508C196.885 190.312 197.133 190.214 197.431 190.214C197.73 190.214 197.977 190.312 198.173 190.508C198.369 190.704 198.467 190.951 198.467 191.25C198.467 191.548 198.369 191.8 198.173 192.006C197.977 192.202 197.73 192.3 197.431 192.3ZM197.431 197.284C197.133 197.284 196.885 197.186 196.689 196.99C196.493 196.784 196.395 196.532 196.395 196.234C196.395 195.935 196.493 195.688 196.689 195.492C196.885 195.286 197.133 195.184 197.431 195.184C197.73 195.184 197.977 195.286 198.173 195.492C198.369 195.688 198.467 195.935 198.467 196.234C198.467 196.532 198.369 196.784 198.173 196.99C197.977 197.186 197.73 197.284 197.431 197.284ZM203.368 197.326C202.201 197.326 201.31 196.896 200.694 196.038C200.078 195.17 199.77 193.91 199.77 192.258C199.77 190.615 200.078 189.364 200.694 188.506C201.31 187.638 202.201 187.204 203.368 187.204C204.535 187.204 205.426 187.638 206.042 188.506C206.658 189.364 206.966 190.615 206.966 192.258C206.966 193.9 206.658 195.156 206.042 196.024C205.426 196.892 204.535 197.326 203.368 197.326ZM203.368 195.912C204.003 195.912 204.465 195.622 204.754 195.044C205.043 194.456 205.188 193.527 205.188 192.258C205.188 190.979 205.043 190.055 204.754 189.486C204.465 188.907 204.003 188.618 203.368 188.618C202.733 188.618 202.271 188.907 201.982 189.486C201.693 190.064 201.548 190.988 201.548 192.258C201.548 193.527 201.693 194.456 201.982 195.044C202.271 195.622 202.733 195.912 203.368 195.912ZM211.763 197.326C210.596 197.326 209.705 196.896 209.089 196.038C208.473 195.17 208.165 193.91 208.165 192.258C208.165 190.615 208.473 189.364 209.089 188.506C209.705 187.638 210.596 187.204 211.763 187.204C212.929 187.204 213.821 187.638 214.437 188.506C215.053 189.364 215.361 190.615 215.361 192.258C215.361 193.9 215.053 195.156 214.437 196.024C213.821 196.892 212.929 197.326 211.763 197.326ZM211.763 195.912C212.397 195.912 212.859 195.622 213.149 195.044C213.438 194.456 213.583 193.527 213.583 192.258C213.583 190.979 213.438 190.055 213.149 189.486C212.859 188.907 212.397 188.618 211.763 188.618C211.128 188.618 210.666 188.907 210.377 189.486C210.087 190.064 209.943 190.988 209.943 192.258C209.943 193.527 210.087 194.456 210.377 195.044C210.666 195.622 211.128 195.912 211.763 195.912ZM224.602 190.186C225.19 190.186 225.713 190.335 226.17 190.634C226.637 190.932 226.996 191.357 227.248 191.908C227.509 192.449 227.64 193.074 227.64 193.784C227.64 194.493 227.509 195.114 227.248 195.646C226.996 196.178 226.641 196.588 226.184 196.878C225.727 197.167 225.199 197.312 224.602 197.312C224.117 197.312 223.683 197.209 223.3 197.004C222.917 196.798 222.623 196.514 222.418 196.15V199.006C222.418 199.248 222.339 199.44 222.18 199.58C222.021 199.72 221.811 199.79 221.55 199.79C221.289 199.79 221.074 199.715 220.906 199.566C220.747 199.416 220.668 199.22 220.668 198.978V191.04C220.668 190.788 220.743 190.587 220.892 190.438C221.051 190.288 221.261 190.214 221.522 190.214C221.783 190.214 221.993 190.288 222.152 190.438C222.311 190.587 222.39 190.788 222.39 191.04V191.39C222.595 191.007 222.889 190.713 223.272 190.508C223.664 190.293 224.107 190.186 224.602 190.186ZM224.14 195.954C224.691 195.954 225.12 195.767 225.428 195.394C225.736 195.011 225.89 194.474 225.89 193.784C225.89 193.074 225.736 192.524 225.428 192.132C225.12 191.74 224.691 191.544 224.14 191.544C223.58 191.544 223.146 191.735 222.838 192.118C222.539 192.5 222.39 193.046 222.39 193.756C222.39 194.456 222.539 194.997 222.838 195.38C223.146 195.762 223.58 195.954 224.14 195.954ZM237.21 190.186C237.957 190.186 238.526 190.41 238.918 190.858C239.319 191.296 239.52 192.01 239.52 193V196.444C239.52 196.714 239.436 196.924 239.268 197.074C239.109 197.214 238.899 197.284 238.638 197.284C238.386 197.284 238.176 197.214 238.008 197.074C237.849 196.924 237.77 196.714 237.77 196.444V193C237.77 192.486 237.677 192.122 237.49 191.908C237.313 191.684 237.037 191.572 236.664 191.572C236.207 191.572 235.843 191.73 235.572 192.048C235.301 192.356 235.166 192.78 235.166 193.322V196.444C235.166 196.714 235.082 196.924 234.914 197.074C234.755 197.214 234.55 197.284 234.298 197.284C234.046 197.284 233.836 197.214 233.668 197.074C233.5 196.924 233.416 196.714 233.416 196.444V193C233.416 192.486 233.323 192.122 233.136 191.908C232.959 191.684 232.683 191.572 232.31 191.572C231.853 191.572 231.489 191.73 231.218 192.048C230.957 192.356 230.826 192.78 230.826 193.322V196.444C230.826 196.714 230.742 196.924 230.574 197.074C230.406 197.214 230.196 197.284 229.944 197.284C229.692 197.284 229.482 197.214 229.314 197.074C229.155 196.924 229.076 196.714 229.076 196.444V191.026C229.076 190.764 229.16 190.564 229.328 190.424C229.496 190.284 229.706 190.214 229.958 190.214C230.201 190.214 230.397 190.284 230.546 190.424C230.705 190.554 230.784 190.746 230.784 190.998V191.334C230.999 190.96 231.283 190.676 231.638 190.48C232.002 190.284 232.417 190.186 232.884 190.186C233.911 190.186 234.597 190.615 234.942 191.474C235.147 191.082 235.451 190.769 235.852 190.536C236.253 190.302 236.706 190.186 237.21 190.186Z" fill="#B8C0CC"/>
<path d="M137.965 273.48C149.925 273.48 159.62 263.756 159.62 251.761C159.62 239.766 149.925 230.042 137.965 230.042C126.006 230.042 116.311 239.766 116.311 251.761C116.311 263.756 126.006 273.48 137.965 273.48Z" fill="#B8C0CC" fill-opacity="0.4"/>
<rect x="116.311" y="302.438" width="161.69" height="14.4793" rx="6" fill="#F2F4F5"/>
<rect x="116.311" y="331.397" width="161.69" height="14.4793" rx="6" fill="#F2F4F5"/>
<rect x="185.605" y="232.937" width="92.3941" height="11.5835" rx="5.79173" fill="#F2F4F5"/>
<rect x="185.605" y="259" width="92.3941" height="11.5835" rx="5.79173" fill="#F2F4F5"/>
<rect x="116" y="375.116" width="161.69" height="28.9587" rx="6" fill="#B8C0CC"/>
<path d="M150.291 392.987C150.355 393.125 150.387 393.264 150.387 393.403C150.387 393.648 150.285 393.856 150.083 394.027C149.891 394.197 149.667 394.283 149.411 394.283C149.24 394.283 149.08 394.24 148.931 394.155C148.781 394.059 148.664 393.915 148.579 393.723L147.619 391.579H141.987L141.027 393.723C140.941 393.915 140.824 394.059 140.675 394.155C140.525 394.24 140.36 394.283 140.179 394.283C139.933 394.283 139.709 394.197 139.507 394.027C139.304 393.856 139.203 393.648 139.203 393.403C139.203 393.264 139.235 393.125 139.299 392.987L143.715 383.499C143.811 383.285 143.955 383.125 144.147 383.019C144.349 382.901 144.563 382.843 144.787 382.843C145.011 382.843 145.219 382.901 145.411 383.019C145.613 383.125 145.763 383.285 145.859 383.499L150.291 392.987ZM142.691 389.979H146.915L144.803 385.227L142.691 389.979ZM158.294 382.859C158.592 382.859 158.838 382.944 159.03 383.115C159.222 383.285 159.318 383.509 159.318 383.787V393.355C159.318 393.643 159.227 393.872 159.046 394.043C158.864 394.213 158.624 394.299 158.326 394.299C158.027 394.299 157.787 394.213 157.606 394.043C157.424 393.872 157.334 393.643 157.334 393.355V392.955C157.099 393.392 156.758 393.733 156.31 393.979C155.872 394.224 155.371 394.347 154.806 394.347C154.134 394.347 153.531 394.176 152.998 393.835C152.475 393.493 152.064 393.013 151.766 392.395C151.478 391.765 151.334 391.045 151.334 390.235C151.334 389.424 151.478 388.715 151.766 388.107C152.064 387.499 152.475 387.029 152.998 386.699C153.52 386.368 154.123 386.203 154.806 386.203C155.371 386.203 155.872 386.32 156.31 386.555C156.747 386.789 157.083 387.12 157.318 387.547V383.755C157.318 383.488 157.403 383.275 157.574 383.115C157.755 382.944 157.995 382.859 158.294 382.859ZM155.334 392.795C155.974 392.795 156.464 392.576 156.806 392.139C157.158 391.701 157.334 391.077 157.334 390.267C157.334 389.456 157.158 388.837 156.806 388.411C156.464 387.973 155.979 387.755 155.35 387.755C154.71 387.755 154.214 387.968 153.862 388.395C153.51 388.821 153.334 389.435 153.334 390.235C153.334 391.045 153.51 391.675 153.862 392.123C154.214 392.571 154.704 392.795 155.334 392.795ZM167.903 382.859C168.202 382.859 168.447 382.944 168.639 383.115C168.831 383.285 168.927 383.509 168.927 383.787V393.355C168.927 393.643 168.837 393.872 168.655 394.043C168.474 394.213 168.234 394.299 167.935 394.299C167.637 394.299 167.397 394.213 167.215 394.043C167.034 393.872 166.943 393.643 166.943 393.355V392.955C166.709 393.392 166.367 393.733 165.919 393.979C165.482 394.224 164.981 394.347 164.415 394.347C163.743 394.347 163.141 394.176 162.607 393.835C162.085 393.493 161.674 393.013 161.375 392.395C161.087 391.765 160.943 391.045 160.943 390.235C160.943 389.424 161.087 388.715 161.375 388.107C161.674 387.499 162.085 387.029 162.607 386.699C163.13 386.368 163.733 386.203 164.415 386.203C164.981 386.203 165.482 386.32 165.919 386.555C166.357 386.789 166.693 387.12 166.927 387.547V383.755C166.927 383.488 167.013 383.275 167.183 383.115C167.365 382.944 167.605 382.859 167.903 382.859ZM164.943 392.795C165.583 392.795 166.074 392.576 166.415 392.139C166.767 391.701 166.943 391.077 166.943 390.267C166.943 389.456 166.767 388.837 166.415 388.411C166.074 387.973 165.589 387.755 164.959 387.755C164.319 387.755 163.823 387.968 163.471 388.395C163.119 388.821 162.943 389.435 162.943 390.235C162.943 391.045 163.119 391.675 163.471 392.123C163.823 392.571 164.314 392.795 164.943 392.795ZM179.392 392.827C179.926 392.859 180.192 393.099 180.192 393.547C180.192 393.803 180.086 394 179.872 394.139C179.67 394.267 179.376 394.32 178.992 394.299L178.56 394.267C176.768 394.139 175.872 393.179 175.872 391.387V387.899H175.072C174.784 387.899 174.56 387.835 174.4 387.707C174.251 387.579 174.176 387.392 174.176 387.147C174.176 386.901 174.251 386.715 174.4 386.587C174.56 386.459 174.784 386.395 175.072 386.395H175.872V384.923C175.872 384.635 175.963 384.405 176.144 384.235C176.326 384.064 176.571 383.979 176.88 383.979C177.179 383.979 177.419 384.064 177.6 384.235C177.782 384.405 177.872 384.635 177.872 384.923V386.395H179.232C179.52 386.395 179.739 386.459 179.888 386.587C180.048 386.715 180.128 386.901 180.128 387.147C180.128 387.392 180.048 387.579 179.888 387.707C179.739 387.835 179.52 387.899 179.232 387.899H177.872V391.531C177.872 392.32 178.235 392.741 178.96 392.795L179.392 392.827ZM184.803 394.347C184.003 394.347 183.299 394.181 182.691 393.851C182.093 393.52 181.629 393.045 181.299 392.427C180.968 391.808 180.803 391.088 180.803 390.267C180.803 389.445 180.968 388.731 181.299 388.123C181.629 387.504 182.093 387.029 182.691 386.699C183.299 386.368 184.003 386.203 184.803 386.203C185.603 386.203 186.301 386.368 186.899 386.699C187.507 387.029 187.971 387.504 188.291 388.123C188.621 388.731 188.787 389.445 188.787 390.267C188.787 391.088 188.621 391.808 188.291 392.427C187.971 393.045 187.507 393.52 186.899 393.851C186.301 394.181 185.603 394.347 184.803 394.347ZM184.787 392.795C185.437 392.795 185.933 392.581 186.275 392.155C186.616 391.728 186.787 391.099 186.787 390.267C186.787 389.445 186.616 388.821 186.275 388.395C185.933 387.957 185.443 387.739 184.803 387.739C184.163 387.739 183.667 387.957 183.315 388.395C182.973 388.821 182.803 389.445 182.803 390.267C182.803 391.099 182.973 391.728 183.315 392.155C183.656 392.581 184.147 392.795 184.787 392.795ZM198.253 394.347C197.475 394.347 196.787 394.181 196.189 393.851C195.603 393.52 195.149 393.051 194.829 392.443C194.509 391.835 194.349 391.125 194.349 390.315C194.349 389.504 194.515 388.789 194.845 388.171C195.187 387.541 195.661 387.056 196.269 386.715C196.877 386.373 197.576 386.203 198.365 386.203C198.781 386.203 199.197 386.261 199.613 386.379C200.04 386.496 200.413 386.656 200.733 386.859C201.075 387.083 201.245 387.365 201.245 387.707C201.245 387.941 201.187 388.133 201.069 388.283C200.963 388.421 200.819 388.491 200.637 388.491C200.52 388.491 200.397 388.464 200.269 388.411C200.141 388.357 200.013 388.293 199.885 388.219C199.651 388.08 199.427 387.973 199.213 387.899C199 387.813 198.755 387.771 198.477 387.771C197.816 387.771 197.304 387.989 196.941 388.427C196.589 388.853 196.413 389.472 196.413 390.283C196.413 391.083 196.589 391.701 196.941 392.139C197.304 392.565 197.816 392.779 198.477 392.779C198.744 392.779 198.979 392.741 199.181 392.667C199.395 392.581 199.629 392.469 199.885 392.331C200.045 392.235 200.184 392.165 200.301 392.123C200.419 392.069 200.536 392.043 200.653 392.043C200.824 392.043 200.968 392.117 201.085 392.267C201.203 392.416 201.261 392.603 201.261 392.827C201.261 393.008 201.219 393.168 201.133 393.307C201.059 393.435 200.931 393.552 200.749 393.659C200.419 393.872 200.035 394.043 199.597 394.171C199.16 394.288 198.712 394.347 198.253 394.347ZM205.986 386.203C207.074 386.203 207.879 386.475 208.402 387.019C208.935 387.552 209.202 388.368 209.202 389.467V393.371C209.202 393.659 209.117 393.888 208.946 394.059C208.775 394.219 208.541 394.299 208.242 394.299C207.965 394.299 207.735 394.213 207.554 394.043C207.383 393.872 207.298 393.648 207.298 393.371V393.019C207.117 393.435 206.829 393.76 206.434 393.995C206.05 394.229 205.602 394.347 205.09 394.347C204.567 394.347 204.093 394.24 203.666 394.027C203.239 393.813 202.903 393.52 202.658 393.147C202.413 392.773 202.29 392.357 202.29 391.899C202.29 391.323 202.434 390.869 202.722 390.539C203.021 390.208 203.501 389.968 204.162 389.819C204.823 389.669 205.735 389.595 206.898 389.595H207.298V389.227C207.298 388.704 207.186 388.325 206.962 388.091C206.738 387.845 206.375 387.723 205.874 387.723C205.565 387.723 205.25 387.771 204.93 387.867C204.61 387.952 204.231 388.08 203.794 388.251C203.517 388.389 203.314 388.459 203.186 388.459C202.994 388.459 202.834 388.389 202.706 388.251C202.589 388.112 202.53 387.931 202.53 387.707C202.53 387.525 202.573 387.371 202.658 387.243C202.754 387.104 202.909 386.976 203.122 386.859C203.495 386.656 203.938 386.496 204.45 386.379C204.973 386.261 205.485 386.203 205.986 386.203ZM205.49 392.907C206.023 392.907 206.455 392.731 206.786 392.379C207.127 392.016 207.298 391.552 207.298 390.987V390.651H207.01C206.295 390.651 205.741 390.683 205.346 390.747C204.951 390.811 204.669 390.923 204.498 391.083C204.327 391.243 204.242 391.461 204.242 391.739C204.242 392.08 204.359 392.363 204.594 392.587C204.839 392.8 205.138 392.907 205.49 392.907ZM212.227 394.315C211.939 394.315 211.699 394.235 211.507 394.075C211.325 393.904 211.235 393.664 211.235 393.355V383.803C211.235 383.493 211.325 383.259 211.507 383.099C211.699 382.939 211.939 382.859 212.227 382.859C212.515 382.859 212.755 382.939 212.947 383.099C213.139 383.259 213.235 383.493 213.235 383.803V393.355C213.235 393.664 213.139 393.904 212.947 394.075C212.755 394.235 212.515 394.315 212.227 394.315ZM221.489 392.075C221.67 392.075 221.814 392.144 221.921 392.283C222.038 392.421 222.097 392.608 222.097 392.843C222.097 393.173 221.9 393.451 221.505 393.675C221.142 393.877 220.732 394.043 220.273 394.171C219.814 394.288 219.377 394.347 218.961 394.347C217.702 394.347 216.705 393.984 215.969 393.259C215.233 392.533 214.865 391.541 214.865 390.283C214.865 389.483 215.025 388.773 215.345 388.155C215.665 387.536 216.113 387.056 216.689 386.715C217.276 386.373 217.937 386.203 218.673 386.203C219.377 386.203 219.99 386.357 220.513 386.667C221.036 386.976 221.441 387.413 221.729 387.979C222.017 388.544 222.161 389.211 222.161 389.979C222.161 390.437 221.958 390.667 221.553 390.667H216.833C216.897 391.403 217.105 391.947 217.457 392.299C217.809 392.64 218.321 392.811 218.993 392.811C219.334 392.811 219.633 392.768 219.889 392.683C220.156 392.597 220.454 392.48 220.785 392.331C221.105 392.16 221.34 392.075 221.489 392.075ZM218.721 387.611C218.177 387.611 217.74 387.781 217.409 388.123C217.089 388.464 216.897 388.955 216.833 389.595H220.449C220.428 388.944 220.268 388.453 219.969 388.123C219.67 387.781 219.254 387.611 218.721 387.611ZM228.341 386.203C229.28 386.203 229.978 386.469 230.437 387.003C230.896 387.536 231.125 388.341 231.125 389.419V393.355C231.125 393.653 231.034 393.888 230.853 394.059C230.682 394.229 230.442 394.315 230.133 394.315C229.824 394.315 229.578 394.229 229.397 394.059C229.216 393.888 229.125 393.653 229.125 393.355V389.531C229.125 388.923 229.008 388.48 228.773 388.203C228.549 387.925 228.192 387.787 227.701 387.787C227.125 387.787 226.661 387.968 226.309 388.331C225.968 388.693 225.797 389.179 225.797 389.787V393.355C225.797 393.653 225.706 393.888 225.525 394.059C225.344 394.229 225.098 394.315 224.789 394.315C224.48 394.315 224.234 394.229 224.053 394.059C223.882 393.888 223.797 393.653 223.797 393.355V387.163C223.797 386.885 223.888 386.661 224.069 386.491C224.25 386.32 224.496 386.235 224.805 386.235C225.082 386.235 225.306 386.32 225.477 386.491C225.658 386.651 225.749 386.864 225.749 387.131V387.563C226.016 387.125 226.373 386.789 226.821 386.555C227.269 386.32 227.776 386.203 228.341 386.203ZM239.684 382.859C239.983 382.859 240.228 382.944 240.42 383.115C240.612 383.285 240.708 383.509 240.708 383.787V393.355C240.708 393.643 240.618 393.872 240.436 394.043C240.255 394.213 240.015 394.299 239.716 394.299C239.418 394.299 239.178 394.213 238.996 394.043C238.815 393.872 238.724 393.643 238.724 393.355V392.955C238.49 393.392 238.148 393.733 237.7 393.979C237.263 394.224 236.762 394.347 236.196 394.347C235.524 394.347 234.922 394.176 234.388 393.835C233.866 393.493 233.455 393.013 233.156 392.395C232.868 391.765 232.724 391.045 232.724 390.235C232.724 389.424 232.868 388.715 233.156 388.107C233.455 387.499 233.866 387.029 234.388 386.699C234.911 386.368 235.514 386.203 236.196 386.203C236.762 386.203 237.263 386.32 237.7 386.555C238.138 386.789 238.474 387.12 238.708 387.547V383.755C238.708 383.488 238.794 383.275 238.964 383.115C239.146 382.944 239.386 382.859 239.684 382.859ZM236.724 392.795C237.364 392.795 237.855 392.576 238.196 392.139C238.548 391.701 238.724 391.077 238.724 390.267C238.724 389.456 238.548 388.837 238.196 388.411C237.855 387.973 237.37 387.755 236.74 387.755C236.1 387.755 235.604 387.968 235.252 388.395C234.9 388.821 234.724 389.435 234.724 390.235C234.724 391.045 234.9 391.675 235.252 392.123C235.604 392.571 236.095 392.795 236.724 392.795ZM246.158 386.203C247.246 386.203 248.051 386.475 248.574 387.019C249.107 387.552 249.374 388.368 249.374 389.467V393.371C249.374 393.659 249.288 393.888 249.118 394.059C248.947 394.219 248.712 394.299 248.414 394.299C248.136 394.299 247.907 394.213 247.726 394.043C247.555 393.872 247.47 393.648 247.47 393.371V393.019C247.288 393.435 247 393.76 246.606 393.995C246.222 394.229 245.774 394.347 245.262 394.347C244.739 394.347 244.264 394.24 243.838 394.027C243.411 393.813 243.075 393.52 242.83 393.147C242.584 392.773 242.462 392.357 242.462 391.899C242.462 391.323 242.606 390.869 242.894 390.539C243.192 390.208 243.672 389.968 244.334 389.819C244.995 389.669 245.907 389.595 247.07 389.595H247.47V389.227C247.47 388.704 247.358 388.325 247.134 388.091C246.91 387.845 246.547 387.723 246.046 387.723C245.736 387.723 245.422 387.771 245.102 387.867C244.782 387.952 244.403 388.08 243.966 388.251C243.688 388.389 243.486 388.459 243.358 388.459C243.166 388.459 243.006 388.389 242.878 388.251C242.76 388.112 242.702 387.931 242.702 387.707C242.702 387.525 242.744 387.371 242.83 387.243C242.926 387.104 243.08 386.976 243.294 386.859C243.667 386.656 244.11 386.496 244.622 386.379C245.144 386.261 245.656 386.203 246.158 386.203ZM245.662 392.907C246.195 392.907 246.627 392.731 246.958 392.379C247.299 392.016 247.47 391.552 247.47 390.987V390.651H247.182C246.467 390.651 245.912 390.683 245.518 390.747C245.123 390.811 244.84 390.923 244.67 391.083C244.499 391.243 244.414 391.461 244.414 391.739C244.414 392.08 244.531 392.363 244.766 392.587C245.011 392.8 245.31 392.907 245.662 392.907ZM255.774 386.235C256.052 386.213 256.27 386.272 256.43 386.411C256.59 386.549 256.67 386.757 256.67 387.035C256.67 387.323 256.601 387.536 256.462 387.675C256.324 387.813 256.073 387.904 255.71 387.947L255.23 387.995C254.601 388.059 254.137 388.272 253.838 388.635C253.55 388.997 253.406 389.451 253.406 389.995V393.355C253.406 393.664 253.31 393.904 253.118 394.075C252.926 394.235 252.686 394.315 252.398 394.315C252.11 394.315 251.87 394.235 251.678 394.075C251.497 393.904 251.406 393.664 251.406 393.355V387.163C251.406 386.864 251.497 386.635 251.678 386.475C251.87 386.315 252.105 386.235 252.382 386.235C252.66 386.235 252.884 386.315 253.054 386.475C253.225 386.624 253.31 386.843 253.31 387.131V387.771C253.513 387.301 253.812 386.939 254.206 386.683C254.612 386.427 255.06 386.283 255.55 386.251L255.774 386.235Z" fill="white"/>
<rect x="118.012" y="38.0059" width="30.1863" height="30.0056" rx="15" fill="#B8C0CC"/>
<path d="M128.163 109.768C128.227 109.907 128.259 110.045 128.259 110.184C128.259 110.429 128.158 110.637 127.955 110.808C127.763 110.979 127.539 111.064 127.283 111.064C127.112 111.064 126.952 111.021 126.803 110.936C126.654 110.84 126.536 110.696 126.451 110.504L125.491 108.36H119.859L118.899 110.504C118.814 110.696 118.696 110.84 118.547 110.936C118.398 111.021 118.232 111.064 118.051 111.064C117.806 111.064 117.582 110.979 117.379 110.808C117.176 110.637 117.075 110.429 117.075 110.184C117.075 110.045 117.107 109.907 117.171 109.768L121.587 100.28C121.683 100.067 121.827 99.9067 122.019 99.8C122.222 99.6827 122.435 99.624 122.659 99.624C122.883 99.624 123.091 99.6827 123.283 99.8C123.486 99.9067 123.635 100.067 123.731 100.28L128.163 109.768ZM120.563 106.76H124.787L122.675 102.008L120.563 106.76ZM134.134 102.984C134.806 102.984 135.403 103.155 135.926 103.496C136.459 103.837 136.87 104.323 137.158 104.952C137.457 105.571 137.606 106.285 137.606 107.096C137.606 107.907 137.457 108.616 137.158 109.224C136.87 109.832 136.465 110.301 135.942 110.632C135.419 110.963 134.817 111.128 134.134 111.128C133.579 111.128 133.083 111.011 132.646 110.776C132.209 110.541 131.873 110.216 131.638 109.8V113.064C131.638 113.341 131.547 113.56 131.366 113.72C131.185 113.88 130.945 113.96 130.646 113.96C130.347 113.96 130.102 113.875 129.91 113.704C129.729 113.533 129.638 113.309 129.638 113.032V103.96C129.638 103.672 129.723 103.443 129.894 103.272C130.075 103.101 130.315 103.016 130.614 103.016C130.913 103.016 131.153 103.101 131.334 103.272C131.515 103.443 131.606 103.672 131.606 103.96V104.36C131.841 103.923 132.177 103.587 132.614 103.352C133.062 103.107 133.569 102.984 134.134 102.984ZM133.606 109.576C134.235 109.576 134.726 109.363 135.078 108.936C135.43 108.499 135.606 107.885 135.606 107.096C135.606 106.285 135.43 105.656 135.078 105.208C134.726 104.76 134.235 104.536 133.606 104.536C132.966 104.536 132.47 104.755 132.118 105.192C131.777 105.629 131.606 106.253 131.606 107.064C131.606 107.864 131.777 108.483 132.118 108.92C132.47 109.357 132.966 109.576 133.606 109.576ZM143.743 102.984C144.415 102.984 145.013 103.155 145.535 103.496C146.069 103.837 146.479 104.323 146.767 104.952C147.066 105.571 147.215 106.285 147.215 107.096C147.215 107.907 147.066 108.616 146.767 109.224C146.479 109.832 146.074 110.301 145.551 110.632C145.029 110.963 144.426 111.128 143.743 111.128C143.189 111.128 142.693 111.011 142.255 110.776C141.818 110.541 141.482 110.216 141.247 109.8V113.064C141.247 113.341 141.157 113.56 140.975 113.72C140.794 113.88 140.554 113.96 140.255 113.96C139.957 113.96 139.711 113.875 139.519 113.704C139.338 113.533 139.247 113.309 139.247 113.032V103.96C139.247 103.672 139.333 103.443 139.503 103.272C139.685 103.101 139.925 103.016 140.223 103.016C140.522 103.016 140.762 103.101 140.943 103.272C141.125 103.443 141.215 103.672 141.215 103.96V104.36C141.45 103.923 141.786 103.587 142.223 103.352C142.671 103.107 143.178 102.984 143.743 102.984ZM143.215 109.576C143.845 109.576 144.335 109.363 144.687 108.936C145.039 108.499 145.215 107.885 145.215 107.096C145.215 106.285 145.039 105.656 144.687 105.208C144.335 104.76 143.845 104.536 143.215 104.536C142.575 104.536 142.079 104.755 141.727 105.192C141.386 105.629 141.215 106.253 141.215 107.064C141.215 107.864 141.386 108.483 141.727 108.92C142.079 109.357 142.575 109.576 143.215 109.576ZM152.425 111.128C151.625 111.128 150.921 110.963 150.313 110.632C149.716 110.301 149.252 109.827 148.921 109.208C148.59 108.589 148.425 107.869 148.425 107.048C148.425 106.227 148.59 105.512 148.921 104.904C149.252 104.285 149.716 103.811 150.313 103.48C150.921 103.149 151.625 102.984 152.425 102.984C153.225 102.984 153.924 103.149 154.521 103.48C155.129 103.811 155.593 104.285 155.913 104.904C156.244 105.512 156.409 106.227 156.409 107.048C156.409 107.869 156.244 108.589 155.913 109.208C155.593 109.827 155.129 110.301 154.521 110.632C153.924 110.963 153.225 111.128 152.425 111.128ZM152.409 109.576C153.06 109.576 153.556 109.363 153.897 108.936C154.238 108.509 154.409 107.88 154.409 107.048C154.409 106.227 154.238 105.603 153.897 105.176C153.556 104.739 153.065 104.52 152.425 104.52C151.785 104.52 151.289 104.739 150.937 105.176C150.596 105.603 150.425 106.227 150.425 107.048C150.425 107.88 150.596 108.509 150.937 108.936C151.278 109.363 151.769 109.576 152.409 109.576ZM159.052 111.096C158.764 111.096 158.524 111.016 158.332 110.856C158.151 110.685 158.06 110.445 158.06 110.136V103.96C158.06 103.651 158.151 103.416 158.332 103.256C158.524 103.096 158.764 103.016 159.052 103.016C159.34 103.016 159.58 103.096 159.772 103.256C159.964 103.416 160.06 103.651 160.06 103.96V110.136C160.06 110.445 159.964 110.685 159.772 110.856C159.58 111.016 159.34 111.096 159.052 111.096ZM159.052 101.592C158.689 101.592 158.401 101.496 158.188 101.304C157.975 101.101 157.868 100.84 157.868 100.52C157.868 100.2 157.975 99.944 158.188 99.752C158.401 99.56 158.689 99.464 159.052 99.464C159.404 99.464 159.687 99.56 159.9 99.752C160.124 99.944 160.236 100.2 160.236 100.52C160.236 100.84 160.129 101.101 159.916 101.304C159.703 101.496 159.415 101.592 159.052 101.592ZM166.666 102.984C167.605 102.984 168.304 103.251 168.762 103.784C169.221 104.317 169.45 105.123 169.45 106.2V110.136C169.45 110.435 169.36 110.669 169.178 110.84C169.008 111.011 168.768 111.096 168.458 111.096C168.149 111.096 167.904 111.011 167.722 110.84C167.541 110.669 167.45 110.435 167.45 110.136V106.312C167.45 105.704 167.333 105.261 167.098 104.984C166.874 104.707 166.517 104.568 166.026 104.568C165.45 104.568 164.986 104.749 164.634 105.112C164.293 105.475 164.122 105.96 164.122 106.568V110.136C164.122 110.435 164.032 110.669 163.85 110.84C163.669 111.011 163.424 111.096 163.114 111.096C162.805 111.096 162.56 111.011 162.378 110.84C162.208 110.669 162.122 110.435 162.122 110.136V103.944C162.122 103.667 162.213 103.443 162.394 103.272C162.576 103.101 162.821 103.016 163.13 103.016C163.408 103.016 163.632 103.101 163.802 103.272C163.984 103.432 164.074 103.645 164.074 103.912V104.344C164.341 103.907 164.698 103.571 165.146 103.336C165.594 103.101 166.101 102.984 166.666 102.984ZM175.546 109.608C176.079 109.64 176.346 109.88 176.346 110.328C176.346 110.584 176.239 110.781 176.026 110.92C175.823 111.048 175.53 111.101 175.146 111.08L174.714 111.048C172.922 110.92 172.026 109.96 172.026 108.168V104.68H171.226C170.938 104.68 170.714 104.616 170.554 104.488C170.405 104.36 170.33 104.173 170.33 103.928C170.33 103.683 170.405 103.496 170.554 103.368C170.714 103.24 170.938 103.176 171.226 103.176H172.026V101.704C172.026 101.416 172.117 101.187 172.298 101.016C172.479 100.845 172.725 100.76 173.034 100.76C173.333 100.76 173.573 100.845 173.754 101.016C173.935 101.187 174.026 101.416 174.026 101.704V103.176H175.386C175.674 103.176 175.893 103.24 176.042 103.368C176.202 103.496 176.282 103.683 176.282 103.928C176.282 104.173 176.202 104.36 176.042 104.488C175.893 104.616 175.674 104.68 175.386 104.68H174.026V108.312C174.026 109.101 174.389 109.523 175.114 109.576L175.546 109.608ZM186.684 102.984C187.537 102.984 188.188 103.24 188.636 103.752C189.095 104.253 189.324 105.069 189.324 106.2V110.136C189.324 110.445 189.228 110.685 189.036 110.856C188.855 111.016 188.615 111.096 188.316 111.096C188.028 111.096 187.788 111.016 187.596 110.856C187.415 110.685 187.324 110.445 187.324 110.136V106.2C187.324 105.613 187.217 105.197 187.004 104.952C186.801 104.696 186.487 104.568 186.06 104.568C185.537 104.568 185.121 104.749 184.812 105.112C184.503 105.464 184.348 105.949 184.348 106.568V110.136C184.348 110.445 184.252 110.685 184.06 110.856C183.879 111.016 183.644 111.096 183.356 111.096C183.068 111.096 182.828 111.016 182.636 110.856C182.444 110.685 182.348 110.445 182.348 110.136V106.2C182.348 105.613 182.241 105.197 182.028 104.952C181.825 104.696 181.511 104.568 181.084 104.568C180.561 104.568 180.145 104.749 179.836 105.112C179.537 105.464 179.388 105.949 179.388 106.568V110.136C179.388 110.445 179.292 110.685 179.1 110.856C178.908 111.016 178.668 111.096 178.38 111.096C178.092 111.096 177.852 111.016 177.66 110.856C177.479 110.685 177.388 110.445 177.388 110.136V103.944C177.388 103.645 177.484 103.416 177.676 103.256C177.868 103.096 178.108 103.016 178.396 103.016C178.673 103.016 178.897 103.096 179.068 103.256C179.249 103.405 179.34 103.624 179.34 103.912V104.296C179.585 103.869 179.911 103.544 180.316 103.32C180.732 103.096 181.207 102.984 181.74 102.984C182.913 102.984 183.697 103.475 184.092 104.456C184.327 104.008 184.673 103.651 185.132 103.384C185.591 103.117 186.108 102.984 186.684 102.984ZM197.549 108.856C197.73 108.856 197.874 108.925 197.981 109.064C198.098 109.203 198.157 109.389 198.157 109.624C198.157 109.955 197.96 110.232 197.565 110.456C197.202 110.659 196.792 110.824 196.333 110.952C195.874 111.069 195.437 111.128 195.021 111.128C193.762 111.128 192.765 110.765 192.029 110.04C191.293 109.315 190.925 108.323 190.925 107.064C190.925 106.264 191.085 105.555 191.405 104.936C191.725 104.317 192.173 103.837 192.749 103.496C193.336 103.155 193.997 102.984 194.733 102.984C195.437 102.984 196.05 103.139 196.573 103.448C197.096 103.757 197.501 104.195 197.789 104.76C198.077 105.325 198.221 105.992 198.221 106.76C198.221 107.219 198.018 107.448 197.613 107.448H192.893C192.957 108.184 193.165 108.728 193.517 109.08C193.869 109.421 194.381 109.592 195.053 109.592C195.394 109.592 195.693 109.549 195.949 109.464C196.216 109.379 196.514 109.261 196.845 109.112C197.165 108.941 197.4 108.856 197.549 108.856ZM194.781 104.392C194.237 104.392 193.8 104.563 193.469 104.904C193.149 105.245 192.957 105.736 192.893 106.376H196.509C196.488 105.725 196.328 105.235 196.029 104.904C195.73 104.563 195.314 104.392 194.781 104.392ZM204.401 102.984C205.34 102.984 206.038 103.251 206.497 103.784C206.956 104.317 207.185 105.123 207.185 106.2V110.136C207.185 110.435 207.094 110.669 206.913 110.84C206.742 111.011 206.502 111.096 206.193 111.096C205.884 111.096 205.638 111.011 205.457 110.84C205.276 110.669 205.185 110.435 205.185 110.136V106.312C205.185 105.704 205.068 105.261 204.833 104.984C204.609 104.707 204.252 104.568 203.761 104.568C203.185 104.568 202.721 104.749 202.369 105.112C202.028 105.475 201.857 105.96 201.857 106.568V110.136C201.857 110.435 201.766 110.669 201.585 110.84C201.404 111.011 201.158 111.096 200.849 111.096C200.54 111.096 200.294 111.011 200.113 110.84C199.942 110.669 199.857 110.435 199.857 110.136V103.944C199.857 103.667 199.948 103.443 200.129 103.272C200.31 103.101 200.556 103.016 200.865 103.016C201.142 103.016 201.366 103.101 201.537 103.272C201.718 103.432 201.809 103.645 201.809 103.912V104.344C202.076 103.907 202.433 103.571 202.881 103.336C203.329 103.101 203.836 102.984 204.401 102.984ZM213.28 109.608C213.814 109.64 214.08 109.88 214.08 110.328C214.08 110.584 213.974 110.781 213.76 110.92C213.558 111.048 213.264 111.101 212.88 111.08L212.448 111.048C210.656 110.92 209.76 109.96 209.76 108.168V104.68H208.96C208.672 104.68 208.448 104.616 208.288 104.488C208.139 104.36 208.064 104.173 208.064 103.928C208.064 103.683 208.139 103.496 208.288 103.368C208.448 103.24 208.672 103.176 208.96 103.176H209.76V101.704C209.76 101.416 209.851 101.187 210.032 101.016C210.214 100.845 210.459 100.76 210.768 100.76C211.067 100.76 211.307 100.845 211.488 101.016C211.67 101.187 211.76 101.416 211.76 101.704V103.176H213.12C213.408 103.176 213.627 103.24 213.776 103.368C213.936 103.496 214.016 103.683 214.016 103.928C214.016 104.173 213.936 104.36 213.776 104.488C213.627 104.616 213.408 104.68 213.12 104.68H211.76V108.312C211.76 109.101 212.123 109.523 212.848 109.576L213.28 109.608ZM226.586 105.176C227.237 105.357 227.738 105.688 228.09 106.168C228.453 106.648 228.634 107.235 228.634 107.928C228.634 108.888 228.288 109.64 227.594 110.184C226.912 110.728 225.968 111 224.762 111H220.634C220.325 111 220.08 110.915 219.898 110.744C219.728 110.573 219.642 110.333 219.642 110.024V100.696C219.642 100.387 219.728 100.147 219.898 99.976C220.08 99.8053 220.325 99.72 220.634 99.72H224.602C225.776 99.72 226.693 99.9813 227.354 100.504C228.026 101.016 228.362 101.736 228.362 102.664C228.362 103.261 228.202 103.779 227.882 104.216C227.573 104.653 227.141 104.973 226.586 105.176ZM221.658 104.472H224.266C225.685 104.472 226.394 103.944 226.394 102.888C226.394 102.355 226.218 101.96 225.866 101.704C225.514 101.448 224.981 101.32 224.266 101.32H221.658V104.472ZM224.538 109.4C225.285 109.4 225.829 109.267 226.17 109C226.512 108.733 226.682 108.317 226.682 107.752C226.682 107.187 226.506 106.765 226.154 106.488C225.813 106.211 225.274 106.072 224.538 106.072H221.658V109.4H224.538ZM233.956 111.128C233.156 111.128 232.452 110.963 231.844 110.632C231.247 110.301 230.783 109.827 230.452 109.208C230.121 108.589 229.956 107.869 229.956 107.048C229.956 106.227 230.121 105.512 230.452 104.904C230.783 104.285 231.247 103.811 231.844 103.48C232.452 103.149 233.156 102.984 233.956 102.984C234.756 102.984 235.455 103.149 236.052 103.48C236.66 103.811 237.124 104.285 237.444 104.904C237.775 105.512 237.94 106.227 237.94 107.048C237.94 107.869 237.775 108.589 237.444 109.208C237.124 109.827 236.66 110.301 236.052 110.632C235.455 110.963 234.756 111.128 233.956 111.128ZM233.94 109.576C234.591 109.576 235.087 109.363 235.428 108.936C235.769 108.509 235.94 107.88 235.94 107.048C235.94 106.227 235.769 105.603 235.428 105.176C235.087 104.739 234.596 104.52 233.956 104.52C233.316 104.52 232.82 104.739 232.468 105.176C232.127 105.603 231.956 106.227 231.956 107.048C231.956 107.88 232.127 108.509 232.468 108.936C232.809 109.363 233.3 109.576 233.94 109.576ZM243.159 111.128C242.359 111.128 241.655 110.963 241.047 110.632C240.45 110.301 239.986 109.827 239.655 109.208C239.325 108.589 239.159 107.869 239.159 107.048C239.159 106.227 239.325 105.512 239.655 104.904C239.986 104.285 240.45 103.811 241.047 103.48C241.655 103.149 242.359 102.984 243.159 102.984C243.959 102.984 244.658 103.149 245.255 103.48C245.863 103.811 246.327 104.285 246.647 104.904C246.978 105.512 247.143 106.227 247.143 107.048C247.143 107.869 246.978 108.589 246.647 109.208C246.327 109.827 245.863 110.301 245.255 110.632C244.658 110.963 243.959 111.128 243.159 111.128ZM243.143 109.576C243.794 109.576 244.29 109.363 244.631 108.936C244.973 108.509 245.143 107.88 245.143 107.048C245.143 106.227 244.973 105.603 244.631 105.176C244.29 104.739 243.799 104.52 243.159 104.52C242.519 104.52 242.023 104.739 241.671 105.176C241.33 105.603 241.159 106.227 241.159 107.048C241.159 107.88 241.33 108.509 241.671 108.936C242.013 109.363 242.503 109.576 243.143 109.576ZM255.754 109.448C255.968 109.651 256.074 109.88 256.074 110.136C256.074 110.381 255.984 110.6 255.802 110.792C255.632 110.984 255.429 111.08 255.194 111.08C254.96 111.08 254.741 110.984 254.538 110.792L250.794 107.4V110.136C250.794 110.445 250.698 110.68 250.506 110.84C250.314 111 250.074 111.08 249.786 111.08C249.498 111.08 249.258 111 249.066 110.84C248.885 110.68 248.794 110.445 248.794 110.136V100.584C248.794 100.275 248.885 100.04 249.066 99.88C249.258 99.72 249.498 99.64 249.786 99.64C250.074 99.64 250.314 99.72 250.506 99.88C250.698 100.04 250.794 100.275 250.794 100.584V106.6L254.218 103.32C254.41 103.128 254.629 103.032 254.874 103.032C255.12 103.032 255.333 103.123 255.514 103.304C255.696 103.485 255.786 103.699 255.786 103.944C255.786 104.189 255.685 104.413 255.482 104.616L252.97 106.952L255.754 109.448ZM263.455 108.856C263.636 108.856 263.78 108.925 263.887 109.064C264.004 109.203 264.063 109.389 264.063 109.624C264.063 109.955 263.866 110.232 263.471 110.456C263.108 110.659 262.698 110.824 262.239 110.952C261.78 111.069 261.343 111.128 260.927 111.128C259.668 111.128 258.671 110.765 257.935 110.04C257.199 109.315 256.831 108.323 256.831 107.064C256.831 106.264 256.991 105.555 257.311 104.936C257.631 104.317 258.079 103.837 258.655 103.496C259.242 103.155 259.903 102.984 260.639 102.984C261.343 102.984 261.956 103.139 262.479 103.448C263.002 103.757 263.407 104.195 263.695 104.76C263.983 105.325 264.127 105.992 264.127 106.76C264.127 107.219 263.924 107.448 263.519 107.448H258.799C258.863 108.184 259.071 108.728 259.423 109.08C259.775 109.421 260.287 109.592 260.959 109.592C261.3 109.592 261.599 109.549 261.855 109.464C262.122 109.379 262.42 109.261 262.751 109.112C263.071 108.941 263.306 108.856 263.455 108.856ZM260.687 104.392C260.143 104.392 259.706 104.563 259.375 104.904C259.055 105.245 258.863 105.736 258.799 106.376H262.415C262.394 105.725 262.234 105.235 261.935 104.904C261.636 104.563 261.22 104.392 260.687 104.392ZM272.291 99.64C272.59 99.64 272.835 99.7253 273.027 99.896C273.219 100.067 273.315 100.291 273.315 100.568V110.136C273.315 110.424 273.224 110.653 273.043 110.824C272.862 110.995 272.622 111.08 272.323 111.08C272.024 111.08 271.784 110.995 271.603 110.824C271.422 110.653 271.331 110.424 271.331 110.136V109.736C271.096 110.173 270.755 110.515 270.307 110.76C269.87 111.005 269.368 111.128 268.803 111.128C268.131 111.128 267.528 110.957 266.995 110.616C266.472 110.275 266.062 109.795 265.763 109.176C265.475 108.547 265.331 107.827 265.331 107.016C265.331 106.205 265.475 105.496 265.763 104.888C266.062 104.28 266.472 103.811 266.995 103.48C267.518 103.149 268.12 102.984 268.803 102.984C269.368 102.984 269.87 103.101 270.307 103.336C270.744 103.571 271.08 103.901 271.315 104.328V100.536C271.315 100.269 271.4 100.056 271.571 99.896C271.752 99.7253 271.992 99.64 272.291 99.64ZM269.331 109.576C269.971 109.576 270.462 109.357 270.803 108.92C271.155 108.483 271.331 107.859 271.331 107.048C271.331 106.237 271.155 105.619 270.803 105.192C270.462 104.755 269.976 104.536 269.347 104.536C268.707 104.536 268.211 104.749 267.859 105.176C267.507 105.603 267.331 106.216 267.331 107.016C267.331 107.827 267.507 108.456 267.859 108.904C268.211 109.352 268.702 109.576 269.331 109.576Z" fill="#B8C0CC"/>
<rect x="178.385" y="38.0059" width="97.6025" height="30.0056" rx="8" fill="#F2F4F5"/>
<g filter="url(#filter1_d)">
<rect x="271.908" y="131.4" width="89.0923" height="81.1994" rx="12" fill="white"/>
<rect x="272.408" y="131.9" width="88.0923" height="80.1994" rx="11.5" stroke="#F2F4F5"/>
</g>
<path d="M300.242 172.37C300.242 181.354 307.515 188.662 316.455 188.662C325.395 188.662 332.668 181.354 332.668 172.37C332.668 163.386 325.395 156.077 316.455 156.077C307.515 156.077 300.242 163.386 300.242 172.37ZM329.514 172.37C329.514 179.606 323.656 185.493 316.455 185.493C309.254 185.493 303.396 179.606 303.396 172.37C303.396 165.134 309.254 159.247 316.455 159.247C323.656 159.247 329.514 165.134 329.514 172.37Z" fill="#B8C0CC"/>
<path d="M316.68 166.02C316.68 165.336 316.126 164.782 315.442 164.782C314.759 164.782 314.205 165.336 314.205 166.02V174.84L321.836 179.491C322.404 179.838 323.146 179.655 323.488 179.084C323.829 178.517 323.646 177.782 323.079 177.44L316.68 173.583V166.02Z" fill="#B8C0CC" stroke="#B8C0CC" stroke-width="0.5"/>
<path d="M339.861 185.862C340.286 185.093 339.953 184.141 339.167 183.754C338.369 183.361 337.409 183.7 336.97 184.476C335.614 186.873 333.852 188.991 331.716 190.788C321.82 199.111 306.918 197.699 298.497 187.639C290.076 177.579 291.276 162.624 301.172 154.301C311.068 145.977 325.97 147.39 334.391 157.45C336.879 160.421 338.584 163.865 339.419 167.556L337.928 166.29C337.26 165.723 336.259 165.808 335.697 166.481C335.138 167.149 335.222 168.143 335.885 168.707L340.79 172.871C341.213 173.23 341.845 173.176 342.201 172.751L346.243 167.922C346.809 167.245 346.724 166.237 346.051 165.666C345.374 165.091 344.36 165.178 343.789 165.86L342.603 167.277C341.69 162.938 339.721 158.891 336.811 155.414C332.181 149.884 325.711 146.467 318.59 145.792C311.47 145.117 304.553 147.265 299.113 151.841C293.673 156.417 290.361 162.872 289.788 170.018C289.214 177.163 291.448 184.144 296.077 189.674C300.707 195.204 307.178 198.622 314.298 199.296C321.418 199.971 328.335 197.823 333.775 193.248C336.264 191.155 338.306 188.675 339.861 185.862Z" fill="#B8C0CC"/>
<g filter="url(#filter2_d)">
<rect x="10" y="323.601" width="131.265" height="120.399" rx="12" fill="white"/>
<rect x="10.5" y="324.101" width="130.265" height="119.399" rx="11.5" stroke="#F2F4F5"/>
</g>
<path d="M63.3233 419.101H103.34C106.654 419.101 109.34 416.415 109.34 413.101V370.165C109.34 366.851 106.654 364.165 103.34 364.165H40.8368C37.5231 364.165 34.8368 366.851 34.8368 370.165V390.534" stroke="#D7DEE2" stroke-width="2" stroke-linecap="round"/>
<path d="M50.1583 387.239C41.0865 387.239 33.7402 394.622 33.7402 403.719C33.7402 412.817 41.0865 420.2 50.1583 420.2C59.2466 420.2 66.6092 412.817 66.6092 403.719C66.6092 394.622 59.2466 387.239 50.1583 387.239ZM50.1747 416.904C42.9107 416.904 37.0271 411.004 37.0271 403.719C37.0271 396.435 42.9107 390.535 50.1747 390.535C57.4388 390.535 63.3223 396.435 63.3223 403.719C63.3223 411.004 57.4388 416.904 50.1747 416.904Z" fill="#D7DEE2"/>
<path d="M50.9964 396.711C50.9964 396.031 50.4446 395.479 49.7638 395.479C49.0831 395.479 48.5312 396.031 48.5312 396.711V405.367L56.1501 409.952C56.7083 410.287 57.4329 410.109 57.7713 409.552C58.1131 408.99 57.9307 408.257 57.3653 407.921L50.9964 404.131V396.711Z" fill="#D7DEE2" stroke="#D7DEE2" stroke-width="0.5"/>
<ellipse rx="2.73908" ry="2.74682" transform="matrix(-1 0 0 1 93.4523 380.097)" fill="#D7DEE2"/>
<ellipse rx="2.73908" ry="2.74682" transform="matrix(-1 0 0 1 93.4523 394.38)" fill="#D7DEE2"/>
<ellipse rx="2.73908" ry="2.74682" transform="matrix(-1 0 0 1 93.4523 408.664)" fill="#D7DEE2"/>
<ellipse rx="2.73908" ry="2.74682" transform="matrix(-1 0 0 1 79.2101 380.096)" fill="#D7DEE2"/>
<ellipse rx="2.73908" ry="2.74682" transform="matrix(-1 0 0 1 79.2101 394.38)" fill="#B8C0CC"/>
<ellipse rx="2.73908" ry="2.74682" transform="matrix(-1 0 0 1 79.2101 408.664)" fill="#D7DEE2"/>
<ellipse rx="2.73908" ry="2.74682" transform="matrix(-1 0 0 1 64.966 380.096)" fill="#D7DEE2"/>
<ellipse rx="2.73908" ry="2.74682" transform="matrix(-1 0 0 1 50.7219 380.096)" fill="#D7DEE2"/>
<rect width="4.38253" height="10.9873" rx="2" transform="matrix(-1 0 0 1 95.6426 357.573)" fill="#D7DEE2"/>
<rect width="4.38253" height="10.9873" rx="2" transform="matrix(-1 0 0 1 74.2793 357.573)" fill="#D7DEE2"/>
<rect width="4.38253" height="10.9873" rx="2" transform="matrix(-1 0 0 1 52.9141 357.573)" fill="#D7DEE2"/>
<g filter="url(#filter3_d)">
<ellipse cx="108.356" cy="356.563" rx="16.1526" ry="16.1619" fill="white"/>
<path d="M124.008 356.563C124.008 365.213 117 372.225 108.356 372.225C99.7113 372.225 92.7031 365.213 92.7031 356.563C92.7031 347.913 99.7113 340.901 108.356 340.901C117 340.901 124.008 347.913 124.008 356.563Z" stroke="#F2F4F5"/>
</g>
<mask id="path-38-inside-1" fill="white">
<path d="M102.491 347.975C102.936 347.559 103 346.848 102.574 346.412L102.425 346.26C102.069 345.896 101.493 345.854 101.117 346.197C99.089 348.041 97.7037 350.589 97.3314 353.467C97.2584 354.031 97.7168 354.506 98.2859 354.506H98.5086C99.0395 354.506 99.4723 354.09 99.5521 353.565C99.8871 351.364 100.951 349.412 102.491 347.975ZM116.992 353.565C117.072 354.09 117.505 354.506 118.036 354.506H118.256C118.826 354.506 119.285 354.029 119.21 353.464C118.83 350.59 117.447 348.045 115.431 346.202C115.053 345.856 114.474 345.899 114.118 346.266L113.972 346.416C113.55 346.851 113.613 347.557 114.055 347.972C115.586 349.41 116.656 351.362 116.992 353.565ZM114.91 355.072C114.91 351.597 113.096 348.688 109.932 347.918V347.149C109.932 346.209 109.191 345.451 108.272 345.451C107.354 345.451 106.613 346.209 106.613 347.149V347.918C103.438 348.688 101.634 351.586 101.634 355.072V360.732L99.6507 362.762C99.5039 362.912 99.4217 363.114 99.4217 363.324C99.4217 363.768 99.7817 364.128 100.226 364.128H116.319C116.763 364.128 117.123 363.768 117.123 363.324C117.123 363.114 117.041 362.912 116.894 362.762L114.91 360.732V355.072ZM108.272 367.524C109.313 367.524 110.193 366.748 110.418 365.756C110.479 365.486 110.25 365.26 109.974 365.26H106.553C106.275 365.26 106.045 365.489 106.107 365.76C106.336 366.767 107.214 367.524 108.272 367.524Z"/>
</mask>
<path d="M109.932 347.918H107.932V349.49L109.459 349.862L109.932 347.918ZM106.613 347.918L107.084 349.862L108.613 349.491V347.918H106.613ZM101.634 360.732L103.065 362.13L103.634 361.547V360.732H101.634ZM114.91 360.732H112.91V361.547L113.48 362.13L114.91 360.732ZM110.418 365.756L112.369 366.198L110.418 365.756ZM116.894 362.762L115.464 364.159L116.894 362.762ZM113.972 346.416L115.408 347.809L113.972 346.416ZM114.055 347.972L115.424 346.515L114.055 347.972ZM115.431 346.202L116.78 344.725L115.431 346.202ZM114.118 346.266L115.553 347.659L114.118 346.266ZM99.6507 362.762L98.2204 361.364L99.6507 362.762ZM119.21 353.464L117.227 353.726L119.21 353.464ZM116.992 353.565L118.969 353.263L116.992 353.565ZM106.107 365.76L104.157 366.204L106.107 365.76ZM102.574 346.412L101.143 347.81L102.574 346.412ZM102.491 347.975L101.126 346.513L102.491 347.975ZM104.004 345.014L103.856 344.862L100.995 347.658L101.143 347.81L104.004 345.014ZM99.7707 344.717C97.401 346.873 95.7825 349.851 95.3479 353.21L99.3149 353.723C99.6248 351.328 100.777 349.21 102.462 347.676L99.7707 344.717ZM98.2859 356.506H98.5086V352.506H98.2859V356.506ZM101.529 353.866C101.796 352.116 102.639 350.572 103.855 349.437L101.126 346.513C99.2624 348.253 97.9786 350.611 97.5749 353.264L101.529 353.866ZM118.036 356.506H118.256V352.506H118.036V356.506ZM121.193 353.202C120.75 349.851 119.136 346.879 116.78 344.725L114.081 347.678C115.758 349.211 116.91 351.329 117.227 353.726L121.193 353.202ZM112.683 344.873L112.537 345.023L115.408 347.809L115.553 347.659L112.683 344.873ZM112.686 349.43C113.899 350.569 114.748 352.118 115.015 353.867L118.969 353.263C118.563 350.607 117.273 348.251 115.424 346.515L112.686 349.43ZM116.91 355.072C116.91 350.931 114.692 347.018 110.405 345.975L109.459 349.862C111.5 350.358 112.91 352.263 112.91 355.072H116.91ZM111.932 347.918V347.149H107.932V347.918H111.932ZM111.932 347.149C111.932 345.148 110.338 343.451 108.272 343.451V347.451C108.043 347.451 107.932 347.27 107.932 347.149H111.932ZM108.272 343.451C106.207 343.451 104.613 345.148 104.613 347.149H108.613C108.613 347.27 108.502 347.451 108.272 347.451V343.451ZM104.613 347.149V347.918H108.613V347.149H104.613ZM106.142 345.975C101.84 347.017 99.6343 350.922 99.6343 355.072H103.634C103.634 352.25 105.035 350.359 107.084 349.862L106.142 345.975ZM99.6343 355.072V360.732H103.634V355.072H99.6343ZM100.204 359.334L98.2204 361.364L101.081 364.159L103.065 362.13L100.204 359.334ZM100.226 366.128H116.319V362.128H100.226V366.128ZM118.324 361.364L116.341 359.334L113.48 362.13L115.464 364.159L118.324 361.364ZM116.91 360.732V355.072H112.91V360.732H116.91ZM109.974 363.26H106.553V367.26H109.974V363.26ZM104.157 366.204C104.579 368.059 106.219 369.524 108.272 369.524V365.524C108.231 365.524 108.193 365.512 108.154 365.479C108.111 365.443 108.073 365.387 108.057 365.316L104.157 366.204ZM108.272 369.524C110.331 369.524 111.956 368.017 112.369 366.198L108.468 365.314C108.454 365.374 108.416 365.437 108.364 365.481C108.317 365.521 108.285 365.524 108.272 365.524V369.524ZM109.974 367.26C109.572 367.26 109.164 367.097 108.86 366.771C108.534 366.421 108.339 365.882 108.468 365.314L112.369 366.198C112.783 364.369 111.197 363.26 109.974 363.26V367.26ZM119.123 363.324C119.123 362.591 118.836 361.888 118.324 361.364L115.464 364.159C115.245 363.936 115.123 363.636 115.123 363.324H119.123ZM116.319 366.128C117.867 366.128 119.123 364.872 119.123 363.324H115.123C115.123 362.663 115.658 362.128 116.319 362.128V366.128ZM112.537 345.023C111.23 346.369 111.545 348.359 112.686 349.43L115.424 346.515C115.579 346.66 115.671 346.858 115.685 347.074C115.7 347.3 115.626 347.584 115.408 347.809L112.537 345.023ZM97.4217 363.324C97.4217 364.872 98.6771 366.128 100.226 366.128V362.128C100.886 362.128 101.422 362.663 101.422 363.324H97.4217ZM116.78 344.725C115.533 343.585 113.723 343.802 112.683 344.873L115.553 347.659C115.226 347.996 114.573 348.128 114.081 347.678L116.78 344.725ZM98.2204 361.364C97.7084 361.888 97.4217 362.591 97.4217 363.324H101.422C101.422 363.636 101.299 363.936 101.081 364.159L98.2204 361.364ZM118.256 356.506C119.914 356.506 121.441 355.082 121.193 353.202L117.227 353.726C117.128 352.977 117.737 352.506 118.256 352.506V356.506ZM118.036 352.506C118.609 352.506 118.918 352.931 118.969 353.263L115.015 353.867C115.226 355.249 116.401 356.506 118.036 356.506V352.506ZM98.5086 356.506C100.143 356.506 101.319 355.249 101.529 353.866L97.5749 353.264C97.6256 352.931 97.9355 352.506 98.5086 352.506V356.506ZM95.3479 353.21C95.105 355.087 96.631 356.506 98.2859 356.506V352.506C98.8026 352.506 99.4117 352.975 99.3149 353.723L95.3479 353.21ZM103.856 344.862C102.816 343.799 101.015 343.585 99.7707 344.717L102.462 347.676C101.971 348.123 101.322 347.993 100.995 347.658L103.856 344.862ZM106.553 363.26C105.317 363.26 103.742 364.382 104.157 366.204L108.057 365.316C108.186 365.881 107.993 366.419 107.669 366.768C107.366 367.095 106.957 367.26 106.553 367.26V363.26ZM101.143 347.81C100.923 347.585 100.849 347.299 100.863 347.072C100.877 346.856 100.97 346.659 101.126 346.513L103.855 349.437C105.004 348.365 105.323 346.364 104.004 345.014L101.143 347.81Z" fill="#B8C0CC" mask="url(#path-38-inside-1)"/>
<defs>
<filter id="filter0_d" x="82" y="0" width="242" height="454.08" filterUnits="userSpaceOnUse" color-interpolation-filters="sRGB">
<feFlood flood-opacity="0" result="BackgroundImageFix"/>
<feColorMatrix in="SourceAlpha" type="matrix" values="0 0 0 0 0 0 0 0 0 0 0 0 0 0 0 0 0 0 127 0"/>
<feOffset dx="6" dy="6"/>
<feGaussianBlur stdDeviation="7"/>
<feColorMatrix type="matrix" values="0 0 0 0 0.721569 0 0 0 0 0.752941 0 0 0 0 0.8 0 0 0 0.16 0"/>
<feBlend mode="normal" in2="BackgroundImageFix" result="effect1_dropShadow"/>
<feBlend mode="normal" in="SourceGraphic" in2="effect1_dropShadow" result="shape"/>
</filter>
<filter id="filter1_d" x="261.908" y="121.4" width="137.092" height="129.199" filterUnits="userSpaceOnUse" color-interpolation-filters="sRGB">
<feFlood flood-opacity="0" result="BackgroundImageFix"/>
<feColorMatrix in="SourceAlpha" type="matrix" values="0 0 0 0 0 0 0 0 0 0 0 0 0 0 0 0 0 0 127 0"/>
<feOffset dx="14" dy="14"/>
<feGaussianBlur stdDeviation="12"/>
<feColorMatrix type="matrix" values="0 0 0 0 0.721569 0 0 0 0 0.752941 0 0 0 0 0.8 0 0 0 0.2 0"/>
<feBlend mode="normal" in2="BackgroundImageFix" result="effect1_dropShadow"/>
<feBlend mode="normal" in="SourceGraphic" in2="effect1_dropShadow" result="shape"/>
</filter>
<filter id="filter2_d" x="0" y="313.601" width="179.265" height="168.399" filterUnits="userSpaceOnUse" color-interpolation-filters="sRGB">
<feFlood flood-opacity="0" result="BackgroundImageFix"/>
<feColorMatrix in="SourceAlpha" type="matrix" values="0 0 0 0 0 0 0 0 0 0 0 0 0 0 0 0 0 0 127 0"/>
<feOffset dx="14" dy="14"/>
<feGaussianBlur stdDeviation="12"/>
<feColorMatrix type="matrix" values="0 0 0 0 0.721569 0 0 0 0 0.752941 0 0 0 0 0.8 0 0 0 0.2 0"/>
<feBlend mode="normal" in2="BackgroundImageFix" result="effect1_dropShadow"/>
<feBlend mode="normal" in="SourceGraphic" in2="effect1_dropShadow" result="shape"/>
</filter>
<filter id="filter3_d" x="78.2031" y="332.401" width="60.3051" height="60.3239" filterUnits="userSpaceOnUse" color-interpolation-filters="sRGB">
<feFlood flood-opacity="0" result="BackgroundImageFix"/>
<feColorMatrix in="SourceAlpha" type="matrix" values="0 0 0 0 0 0 0 0 0 0 0 0 0 0 0 0 0 0 127 0"/>
<feOffset dy="6"/>
<feGaussianBlur stdDeviation="7"/>
<feColorMatrix type="matrix" values="0 0 0 0 0.721569 0 0 0 0 0.752941 0 0 0 0 0.8 0 0 0 0.16 0"/>
<feBlend mode="normal" in2="BackgroundImageFix" result="effect1_dropShadow"/>
<feBlend mode="normal" in="SourceGraphic" in2="effect1_dropShadow" result="shape"/>
</filter>
</defs>
</svg>
