<svg width="563" height="368" viewBox="0 0 563 368" fill="none" xmlns="http://www.w3.org/2000/svg">
<g filter="url(#filter0_d)">
<rect x="60" y="8" width="426" height="302" rx="12" fill="white"/>
<rect x="60.5" y="8.5" width="425" height="301" rx="11.5" stroke="#F2F4F5"/>
</g>
<rect x="188" y="152" width="170" height="8" rx="4" fill="#F2F4F5"/>
<rect x="219" y="172" width="108" height="8" rx="4" fill="#F2F4F5"/>
<rect x="60" y="8" width="426" height="36" rx="12" fill="#B8C0CC"/>
<rect x="168" y="210" width="210" height="60" rx="10" fill="#F2F4F5"/>
<rect x="228" y="250" width="130" height="8" rx="4" fill="#D7DEE2"/>
<rect x="228" y="226" width="130" height="8" rx="4" fill="#D7DEE2"/>
<path d="M197.992 222C193.576 222 190 225.584 190 230C190 234.416 193.576 238 197.992 238C202.416 238 206 234.416 206 230C206 225.584 202.416 222 197.992 222ZM198 236.4C194.464 236.4 191.6 233.536 191.6 230C191.6 226.464 194.464 223.6 198 223.6C201.536 223.6 204.4 226.464 204.4 230C204.4 233.536 201.536 236.4 198 236.4Z" fill="#B8C0CC"/>
<path d="M198.399 226.6C198.399 226.269 198.131 226 197.799 226C197.468 226 197.199 226.269 197.199 226.6V230.8L200.91 233.026C201.181 233.189 201.532 233.102 201.696 232.833C201.863 232.559 201.774 232.203 201.499 232.039L198.399 230.2V226.6Z" fill="#B8C0CC" stroke="#B8C0CC" stroke-width="0.5"/>
<path d="M189.9 254C189.9 252.29 191.29 250.9 193 250.9H196.05C196.575 250.9 197 250.475 197 249.95C197 249.425 196.575 249 196.05 249H193C190.24 249 188 251.24 188 254C188 256.76 190.24 259 193 259H196.05C196.575 259 197 258.575 197 258.05C197 257.525 196.575 257.1 196.05 257.1H193C191.29 257.1 189.9 255.71 189.9 254ZM194 254C194 254.552 194.448 255 195 255H201C201.552 255 202 254.552 202 254C202 253.448 201.552 253 201 253H195C194.448 253 194 253.448 194 254ZM203 249H199.95C199.425 249 199 249.425 199 249.95C199 250.475 199.425 250.9 199.95 250.9H203C204.71 250.9 206.1 252.29 206.1 254C206.1 255.71 204.71 257.1 203 257.1H199.95C199.425 257.1 199 257.525 199 258.05C199 258.575 199.425 259 199.95 259H203C205.76 259 208 256.76 208 254C208 251.24 205.76 249 203 249Z" fill="#B8C0CC"/>
<rect x="1" y="-1" width="58" height="46" rx="5" transform="matrix(1 0 0 -1 243 130)" stroke="#D7DEE2" stroke-width="2"/>
<path d="M301 96H245" stroke="#D7DEE2" stroke-width="2"/>
<path d="M259 88V80" stroke="#D7DEE2" stroke-width="2" stroke-linecap="round"/>
<path d="M287 88V80" stroke="#D7DEE2" stroke-width="2" stroke-linecap="round"/>
<path d="M269.2 112.126C268.033 112.126 267.142 111.697 266.526 110.838C265.91 109.97 265.602 108.71 265.602 107.058C265.602 105.415 265.91 104.165 266.526 103.306C267.142 102.438 268.033 102.004 269.2 102.004C270.367 102.004 271.258 102.438 271.874 103.306C272.49 104.165 272.798 105.415 272.798 107.058C272.798 108.701 272.49 109.956 271.874 110.824C271.258 111.692 270.367 112.126 269.2 112.126ZM269.2 110.712C269.835 110.712 270.297 110.423 270.586 109.844C270.875 109.256 271.02 108.327 271.02 107.058C271.02 105.779 270.875 104.855 270.586 104.286C270.297 103.707 269.835 103.418 269.2 103.418C268.565 103.418 268.103 103.707 267.814 104.286C267.525 104.865 267.38 105.789 267.38 107.058C267.38 108.327 267.525 109.256 267.814 109.844C268.103 110.423 268.565 110.712 269.2 110.712ZM280.745 108.668C281.025 108.668 281.235 108.729 281.375 108.85C281.515 108.971 281.585 109.144 281.585 109.368C281.585 109.835 281.305 110.068 280.745 110.068H280.031V111.174C280.031 111.463 279.947 111.687 279.779 111.846C279.62 112.005 279.41 112.084 279.149 112.084C278.887 112.084 278.673 112.005 278.505 111.846C278.346 111.687 278.267 111.463 278.267 111.174V110.068H274.599C274.347 110.068 274.151 109.998 274.011 109.858C273.871 109.709 273.801 109.527 273.801 109.312C273.801 109.088 273.875 108.873 274.025 108.668L278.351 102.452C278.444 102.321 278.561 102.223 278.701 102.158C278.841 102.083 278.985 102.046 279.135 102.046C279.377 102.046 279.587 102.125 279.765 102.284C279.942 102.443 280.031 102.667 280.031 102.956V108.668H280.745ZM275.663 108.668H278.267V104.902L275.663 108.668Z" fill="#B8C0CC"/>
<path d="M264.68 125.072C264.448 125.072 264.26 125 264.116 124.856C263.98 124.712 263.912 124.524 263.912 124.292V117.272C263.912 117.04 263.976 116.86 264.104 116.732C264.24 116.604 264.424 116.54 264.656 116.54H268.868C269.356 116.54 269.6 116.748 269.6 117.164C269.6 117.572 269.356 117.776 268.868 117.776H265.436V120.08H268.628C269.116 120.08 269.36 120.288 269.36 120.704C269.36 121.112 269.116 121.316 268.628 121.316H265.436V124.292C265.436 124.524 265.368 124.712 265.232 124.856C265.096 125 264.912 125.072 264.68 125.072ZM275.104 123.392C275.24 123.392 275.348 123.444 275.428 123.548C275.516 123.652 275.56 123.792 275.56 123.968C275.56 124.216 275.412 124.424 275.116 124.592C274.844 124.744 274.536 124.868 274.192 124.964C273.848 125.052 273.52 125.096 273.208 125.096C272.264 125.096 271.516 124.824 270.964 124.28C270.412 123.736 270.136 122.992 270.136 122.048C270.136 121.448 270.256 120.916 270.496 120.452C270.736 119.988 271.072 119.628 271.504 119.372C271.944 119.116 272.44 118.988 272.992 118.988C273.52 118.988 273.98 119.104 274.372 119.336C274.764 119.568 275.068 119.896 275.284 120.32C275.5 120.744 275.608 121.244 275.608 121.82C275.608 122.164 275.456 122.336 275.152 122.336H271.612C271.66 122.888 271.816 123.296 272.08 123.56C272.344 123.816 272.728 123.944 273.232 123.944C273.488 123.944 273.712 123.912 273.904 123.848C274.104 123.784 274.328 123.696 274.576 123.584C274.816 123.456 274.992 123.392 275.104 123.392ZM273.028 120.044C272.62 120.044 272.292 120.172 272.044 120.428C271.804 120.684 271.66 121.052 271.612 121.532H274.324C274.308 121.044 274.188 120.676 273.964 120.428C273.74 120.172 273.428 120.044 273.028 120.044ZM280.207 118.988C280.719 118.988 281.171 119.112 281.563 119.36C281.955 119.608 282.259 119.96 282.475 120.416C282.699 120.872 282.811 121.404 282.811 122.012C282.811 122.62 282.699 123.16 282.475 123.632C282.259 124.096 281.951 124.456 281.551 124.712C281.159 124.968 280.711 125.096 280.207 125.096C279.783 125.096 279.403 125.004 279.067 124.82C278.739 124.636 278.487 124.38 278.311 124.052V124.352C278.311 124.568 278.243 124.74 278.107 124.868C277.971 124.996 277.791 125.06 277.567 125.06C277.343 125.06 277.163 124.996 277.027 124.868C276.899 124.74 276.835 124.568 276.835 124.352V117.176C276.835 116.968 276.903 116.8 277.039 116.672C277.183 116.544 277.367 116.48 277.591 116.48C277.815 116.48 277.995 116.54 278.131 116.66C278.267 116.78 278.335 116.944 278.335 117.152V119.984C278.511 119.664 278.763 119.42 279.091 119.252C279.419 119.076 279.791 118.988 280.207 118.988ZM279.811 123.932C280.283 123.932 280.651 123.764 280.915 123.428C281.179 123.092 281.311 122.62 281.311 122.012C281.311 121.412 281.179 120.952 280.915 120.632C280.659 120.312 280.291 120.152 279.811 120.152C279.331 120.152 278.959 120.316 278.695 120.644C278.439 120.964 278.311 121.428 278.311 122.036C278.311 122.644 278.439 123.112 278.695 123.44C278.959 123.768 279.331 123.932 279.811 123.932Z" fill="#B8C0CC"/>
<path d="M436 38C442.627 38 448 32.6274 448 26C448 19.3726 442.627 14 436 14C429.373 14 424 19.3726 424 26C424 32.6274 429.373 38 436 38Z" fill="#F2F4F5" fill-opacity="0.5"/>
<path d="M436 16C430.48 16 426 20.48 426 26C426 31.52 430.48 36 436 36C441.52 36 446 31.52 446 26C446 20.48 441.52 16 436 16ZM436 19C437.66 19 439 20.34 439 22C439 23.66 437.66 25 436 25C434.34 25 433 23.66 433 22C433 20.34 434.34 19 436 19ZM436 33.2C433.5 33.2 431.29 31.92 430 29.98C430.03 27.99 434 26.9 436 26.9C437.99 26.9 441.97 27.99 442 29.98C440.71 31.92 438.5 33.2 436 33.2Z" fill="#B8C0CC"/>
<rect x="98" y="16" width="50" height="20" rx="8" fill="#F2F4F5" fill-opacity="0.5"/>
<rect x="364" y="21" width="40" height="10" rx="5" fill="#F2F4F5" fill-opacity="0.5"/>
<rect x="299" y="21" width="40" height="10" rx="5" fill="#F2F4F5" fill-opacity="0.5"/>
<rect x="234" y="21" width="40" height="10" rx="5" fill="#F2F4F5" fill-opacity="0.5"/>
<g filter="url(#filter1_d)">
<rect width="102" height="109.895" rx="6" transform="matrix(1 0 0 -1 10 250)" fill="white"/>
<rect x="0.5" y="-0.5" width="101" height="108.895" rx="5.5" transform="matrix(1 0 0 -1 10 249)" stroke="#F2F4F5"/>
</g>
<rect width="102" height="17.0947" rx="6" transform="matrix(1 0 0 -1 10 157.2)" fill="#B8C0CC" fill-opacity="0.16"/>
<rect x="63.4277" y="176.737" width="29.1429" height="24.4211" rx="4" fill="#B8C0CC" fill-opacity="0.16"/>
<rect x="29.4277" y="206.042" width="29.1429" height="24.4211" rx="4" fill="#B8C0CC"/>
<rect x="29.4277" y="176.737" width="29.1429" height="24.4211" rx="4" fill="#B8C0CC" fill-opacity="0.16"/>
<rect x="63.4277" y="206.042" width="29.1429" height="24.4211" rx="4" fill="#B8C0CC" fill-opacity="0.16"/>
<path d="M30.6423 147.211C31.1946 147.211 31.6423 146.763 31.6423 146.211C31.6423 145.658 31.1946 145.211 30.6423 145.211V147.211ZM30.6423 145.211C28.7133 145.211 26.7852 143.15 26.7852 140.105H24.7852C24.7852 143.804 27.2063 147.211 30.6423 147.211V145.211ZM26.7852 140.105C26.7852 137.06 28.7133 135 30.6423 135V133C27.2063 133 24.7852 136.407 24.7852 140.105H26.7852ZM30.6423 135C32.5713 135 34.4994 137.06 34.4994 140.105H36.4994C36.4994 136.407 34.0783 133 30.6423 133V135Z" fill="#B8C0CC"/>
<path d="M60.9997 147.211C61.552 147.211 61.9997 146.763 61.9997 146.211C61.9997 145.658 61.552 145.211 60.9997 145.211V147.211ZM60.9997 145.211C59.0707 145.211 57.1426 143.15 57.1426 140.105H55.1426C55.1426 143.804 57.5637 147.211 60.9997 147.211V145.211ZM57.1426 140.105C57.1426 137.06 59.0707 135 60.9997 135V133C57.5637 133 55.1426 136.407 55.1426 140.105H57.1426ZM60.9997 135C62.9288 135 64.8569 137.06 64.8569 140.105H66.8569C66.8569 136.407 64.4357 133 60.9997 133V135Z" fill="#B8C0CC"/>
<path d="M91.3571 147.211C91.9094 147.211 92.3571 146.763 92.3571 146.211C92.3571 145.658 91.9094 145.211 91.3571 145.211V147.211ZM91.3571 145.211C89.4281 145.211 87.5 143.15 87.5 140.105H85.5C85.5 143.804 87.9211 147.211 91.3571 147.211V145.211ZM87.5 140.105C87.5 137.06 89.4281 135 91.3571 135V133C87.9211 133 85.5 136.407 85.5 140.105H87.5ZM91.3571 135C93.2862 135 95.2143 137.06 95.2143 140.105H97.2143C97.2143 136.407 94.7932 133 91.3571 133V135Z" fill="#B8C0CC"/>
<path d="M41.2354 221.082C40.8436 221.48 40.2018 221.48 39.81 221.082L37.3935 218.627C37.0429 218.271 36.4685 218.271 36.1179 218.627C35.7751 218.975 35.7751 219.534 36.1179 219.883L39.81 223.634C40.2018 224.032 40.8436 224.032 41.2354 223.634L50.6678 214.051C51.0106 213.702 51.0106 213.143 50.6678 212.795C50.3172 212.439 49.7428 212.439 49.3922 212.795L41.2354 221.082Z" fill="white" stroke="white"/>
<g filter="url(#filter2_d)">
<rect x="415" y="200" width="110" height="130" rx="10" fill="white"/>
<rect x="415.5" y="200.5" width="109" height="129" rx="9.5" stroke="#F2F4F5"/>
</g>
<rect x="415" y="212" width="110" height="86" fill="#B8C0CC" fill-opacity="0.4"/>
<rect x="415" y="200" width="110" height="26" rx="10" fill="#B8C0CC"/>
<path d="M462.662 208.005H462.656C459.865 208.005 457.605 210.243 457.605 212.997C457.605 215.757 459.865 217.995 462.656 217.995C465.448 217.995 467.713 215.762 467.713 213.002C467.713 210.243 465.454 208.005 462.662 208.005ZM464.798 215.119C463.61 216.288 461.692 216.283 460.509 215.114C459.332 213.945 459.332 212.049 460.509 210.88C461.692 209.706 463.61 209.706 464.798 210.875L464.804 210.88C465.992 212.049 465.986 213.95 464.798 215.119Z" fill="white"/>
<path d="M456.594 216.025L456.088 215.999H451.538L457.606 210.001L457.58 209.501C457.558 208.695 456.903 208.047 456.088 208.026L455.582 208H448L448.027 208.5C448.064 209.295 448.709 209.938 449.518 209.975L450.025 210.001H454.575L448.506 215.999L448.533 216.499C448.559 217.3 449.215 217.947 450.025 217.974L450.531 218H458.112L458.086 217.5C458.017 216.673 457.425 216.073 456.594 216.025Z" fill="white"/>
<path d="M488.951 208.005C487.789 208.005 486.686 208.5 485.919 209.359C484.577 207.853 482.307 207.563 480.623 208.69C480.234 208.253 479.35 208.005 478.844 208.005V218L479.35 217.974C480.192 217.921 480.81 217.331 480.842 216.499L480.868 215.999V212.502L480.895 212.002C480.895 211.655 480.986 211.312 481.145 211.002C481.7 210.049 482.936 209.722 483.905 210.275C484.209 210.449 484.465 210.702 484.641 211.002H484.635C484.8 211.312 484.886 211.655 484.886 212.002L484.912 212.502V215.999L484.939 216.499C484.971 217.3 485.616 217.942 486.425 217.974L486.932 218V212.502L486.958 212.002C486.958 211.649 487.043 211.307 487.209 210.996C487.768 210.043 489.009 209.717 489.974 210.275C490.278 210.449 490.533 210.702 490.709 211.002C490.869 211.312 490.954 211.655 490.954 212.002L490.981 212.502V215.999L491.007 216.499C491.034 217.3 491.684 217.942 492.494 217.974L493 218V212.002C492.995 209.796 491.183 208.005 488.951 208.005Z" fill="white"/>
<path d="M476.851 209.469C475.902 208.532 474.618 208.005 473.276 208.005C471.933 208.005 470.649 208.532 469.701 209.469C467.729 211.423 467.729 214.588 469.706 216.536C471.683 218.484 474.885 218.484 476.856 216.531C478.833 214.582 478.827 211.417 476.851 209.469ZM475.417 215.119C474.229 216.288 472.311 216.283 471.128 215.114C469.951 213.945 469.951 212.049 471.128 210.88C472.311 209.706 474.229 209.706 475.417 210.875L475.423 210.88C476.611 212.049 476.606 213.95 475.417 215.119Z" fill="white"/>
<path d="M486.074 318H477.778C477.314 318 477 317.711 477 317.182V310.818C477 310.289 477.314 310 477.778 310H486.222C486.686 310 487 310.289 487 310.818V317.09C486.881 317.643 486.453 318 486.074 318Z" fill="white" stroke="#B8C0CC" stroke-width="2" stroke-miterlimit="10"/>
<mask id="path-44-inside-1" fill="white">
<path d="M487 311.997L492.25 309.14C492.906 308.783 494 309.14 494 309.854V318.068C494 318.782 492.906 319.318 492.25 318.782L487 315.925"/>
</mask>
<path d="M487 311.997L492.25 309.14C492.906 308.783 494 309.14 494 309.854V318.068C494 318.782 492.906 319.318 492.25 318.782L487 315.925" fill="white"/>
<path d="M488 315.925V311.997H486V315.925H488ZM492.25 309.14L491.294 307.383L491.294 307.383L492.25 309.14ZM492.25 318.782L493.515 317.233C493.418 317.154 493.315 317.085 493.206 317.026L492.25 318.782ZM487.956 313.754L493.206 310.897L491.294 307.383L486.044 310.24L487.956 313.754ZM493.206 310.897C493.047 310.983 492.92 310.998 492.858 311C492.794 311.002 492.733 310.992 492.666 310.967C492.605 310.944 492.464 310.879 492.317 310.711C492.152 310.524 492 310.224 492 309.854H496C496 308.321 494.831 307.508 494.076 307.224C493.292 306.929 492.232 306.873 491.294 307.383L493.206 310.897ZM492 309.854V318.068H496V309.854H492ZM492 318.068C492 317.718 492.136 317.46 492.252 317.314C492.362 317.174 492.479 317.102 492.566 317.063C492.707 317.001 493.114 316.906 493.515 317.233L490.985 320.332C492.042 321.194 493.324 321.099 494.176 320.725C494.971 320.375 496 319.49 496 318.068H492ZM493.206 317.026L487.956 314.169L486.044 317.682L491.294 320.539L493.206 317.026Z" fill="#B8C0CC" mask="url(#path-44-inside-1)"/>
<path d="M451 315.579C452.186 315.579 453.136 314.733 453.136 313.684L453.143 309.895C453.143 308.846 452.186 308 451 308C449.814 308 448.857 308.846 448.857 309.895V313.684C448.857 314.733 449.814 315.579 451 315.579ZM450.143 309.832C450.143 309.415 450.529 309.074 451 309.074C451.471 309.074 451.857 309.415 451.857 309.832L451.85 313.747C451.85 314.164 451.471 314.505 451 314.505C450.529 314.505 450.143 314.164 450.143 313.747V309.832ZM455.393 313.684C455.058 313.684 454.793 313.959 454.722 314.287C454.385 315.854 452.755 316.905 451 316.905C449.245 316.905 447.615 315.854 447.278 314.287C447.207 313.959 446.942 313.684 446.607 313.684C446.272 313.684 445.995 313.958 446.052 314.289C446.374 316.164 448.166 317.648 450.286 317.928V319.286C450.286 319.68 450.606 320 451 320C451.394 320 451.714 319.68 451.714 319.286V317.928C453.835 317.654 455.627 316.169 455.949 314.289C456.005 313.958 455.728 313.684 455.393 313.684Z" fill="#B8C0CC" stroke="#B8C0CC" stroke-width="0.5"/>
<path d="M464 257.737C464 256.938 464.89 256.462 465.555 256.905L474.949 263.168C475.543 263.564 475.543 264.436 474.949 264.832L465.555 271.095C464.89 271.538 464 271.062 464 270.263V257.737Z" stroke="white" stroke-width="2"/>
<defs>
<filter id="filter0_d" x="52" y="0" width="454" height="330" filterUnits="userSpaceOnUse" color-interpolation-filters="sRGB">
<feFlood flood-opacity="0" result="BackgroundImageFix"/>
<feColorMatrix in="SourceAlpha" type="matrix" values="0 0 0 0 0 0 0 0 0 0 0 0 0 0 0 0 0 0 127 0"/>
<feOffset dx="6" dy="6"/>
<feGaussianBlur stdDeviation="7"/>
<feColorMatrix type="matrix" values="0 0 0 0 0.721569 0 0 0 0 0.752941 0 0 0 0 0.8 0 0 0 0.16 0"/>
<feBlend mode="normal" in2="BackgroundImageFix" result="effect1_dropShadow"/>
<feBlend mode="normal" in="SourceGraphic" in2="effect1_dropShadow" result="shape"/>
</filter>
<filter id="filter1_d" x="0" y="130.105" width="150" height="157.895" filterUnits="userSpaceOnUse" color-interpolation-filters="sRGB">
<feFlood flood-opacity="0" result="BackgroundImageFix"/>
<feColorMatrix in="SourceAlpha" type="matrix" values="0 0 0 0 0 0 0 0 0 0 0 0 0 0 0 0 0 0 127 0"/>
<feOffset dx="14" dy="14"/>
<feGaussianBlur stdDeviation="12"/>
<feColorMatrix type="matrix" values="0 0 0 0 0.721569 0 0 0 0 0.752941 0 0 0 0 0.8 0 0 0 0.2 0"/>
<feBlend mode="normal" in2="BackgroundImageFix" result="effect1_dropShadow"/>
<feBlend mode="normal" in="SourceGraphic" in2="effect1_dropShadow" result="shape"/>
</filter>
<filter id="filter2_d" x="405" y="190" width="158" height="178" filterUnits="userSpaceOnUse" color-interpolation-filters="sRGB">
<feFlood flood-opacity="0" result="BackgroundImageFix"/>
<feColorMatrix in="SourceAlpha" type="matrix" values="0 0 0 0 0 0 0 0 0 0 0 0 0 0 0 0 0 0 127 0"/>
<feOffset dx="14" dy="14"/>
<feGaussianBlur stdDeviation="12"/>
<feColorMatrix type="matrix" values="0 0 0 0 0.721569 0 0 0 0 0.752941 0 0 0 0 0.8 0 0 0 0.2 0"/>
<feBlend mode="normal" in2="BackgroundImageFix" result="effect1_dropShadow"/>
<feBlend mode="normal" in="SourceGraphic" in2="effect1_dropShadow" result="shape"/>
</filter>
</defs>
</svg>
