<svg width="578" height="390" viewBox="0 0 578 390" fill="none" xmlns="http://www.w3.org/2000/svg">
<g filter="url(#filter0_d)">
<rect x="50" y="8" width="450" height="324" rx="12" fill="white"/>
<rect x="50.5" y="8.5" width="449" height="323" rx="11.5" stroke="#F2F4F5"/>
</g>
<rect x="94" y="219" width="160" height="8" rx="4" fill="#F2F4F5"/>
<rect x="94" y="265" width="160" height="27" rx="6" fill="#F2F4F5"/>
<path d="M94 241C94 238.791 95.7909 237 98 237L184 237C186.209 237 188 238.791 188 241C188 243.209 186.209 245 184 245H98C95.7909 245 94 243.209 94 241Z" fill="#F2F4F5"/>
<path d="M94 205C94 202.791 95.7909 201 98 201L184 201C186.209 201 188 202.791 188 205C188 207.209 186.209 209 184 209H98C95.7909 209 94 207.209 94 205Z" fill="#B8C0CC" fill-opacity="0.4"/>
<path d="M426.007 276.583C426.007 276.934 426.359 277.175 426.686 277.049L441.374 271.398C441.801 271.233 441.801 270.629 441.374 270.464L426.686 264.813C426.359 264.687 426.007 264.928 426.007 265.279L426.001 269.069C426 269.322 426.19 269.536 426.441 269.566L433.698 270.435C434.286 270.505 434.286 271.357 433.698 271.428L426.441 272.296C426.19 272.326 426 272.54 426.001 272.793L426.007 276.583Z" fill="#D7DEE2"/>
<path d="M308 253C308 250.791 309.791 249 312 249L440 249C442.209 249 444 250.791 444 253C444 255.209 442.209 257 440 257H312C309.791 257 308 255.209 308 253Z" fill="#F2F4F5"/>
<path d="M308 271C308 268.791 309.791 267 312 267H404C406.209 267 408 268.791 408 271C408 273.209 406.209 275 404 275H312C309.791 275 308 273.209 308 271Z" fill="#F2F4F5"/>
<rect x="297" y="235" width="158" height="54" rx="5" stroke="#F2F4F5" stroke-width="2"/>
<rect x="50" y="8" width="450" height="132" rx="12" fill="#B8C0CC" fill-opacity="0.4"/>
<rect x="50" y="8" width="450" height="52" rx="12" fill="#B8C0CC"/>
<path d="M448 46C454.627 46 460 40.6274 460 34C460 27.3726 454.627 22 448 22C441.373 22 436 27.3726 436 34C436 40.6274 441.373 46 448 46Z" fill="#F2F4F5" fill-opacity="0.5"/>
<path d="M448 24C442.48 24 438 28.48 438 34C438 39.52 442.48 44 448 44C453.52 44 458 39.52 458 34C458 28.48 453.52 24 448 24ZM448 27C449.66 27 451 28.34 451 30C451 31.66 449.66 33 448 33C446.34 33 445 31.66 445 30C445 28.34 446.34 27 448 27ZM448 41.2C445.5 41.2 443.29 39.92 442 37.98C442.03 35.99 446 34.9 448 34.9C449.99 34.9 453.97 35.99 454 37.98C452.71 39.92 450.5 41.2 448 41.2Z" fill="#B8C0CC"/>
<rect x="376" y="29" width="40" height="10" rx="5" fill="#F2F4F5" fill-opacity="0.5"/>
<rect x="314" y="29" width="40" height="10" rx="5" fill="#F2F4F5" fill-opacity="0.5"/>
<rect x="252" y="29" width="40" height="10" rx="5" fill="#F2F4F5" fill-opacity="0.5"/>
<rect x="90" y="24" width="60" height="20" rx="8" fill="#F2F4F5" fill-opacity="0.5"/>
<rect x="297" y="177" width="158" height="36" rx="5" stroke="#B8C0CC" stroke-opacity="0.4" stroke-width="2"/>
<path d="M317.247 186.316C317.398 185.857 318.047 185.857 318.197 186.316L319.904 191.524C319.972 191.729 320.163 191.868 320.38 191.868H325.894C326.38 191.868 326.58 192.49 326.187 192.774L321.733 195.982C321.556 196.109 321.482 196.336 321.55 196.543L323.253 201.739C323.403 202.199 322.878 202.583 322.485 202.301L318.014 199.081C317.84 198.955 317.605 198.955 317.43 199.081L312.959 202.301C312.566 202.583 312.041 202.199 312.192 201.739L313.895 196.543C313.963 196.336 313.889 196.109 313.712 195.982L309.258 192.774C308.864 192.49 309.065 191.868 309.55 191.868H315.065C315.281 191.868 315.473 191.729 315.54 191.524L317.247 186.316Z" fill="#B8C0CC"/>
<path d="M346.747 186.316C346.898 185.857 347.547 185.857 347.697 186.316L349.404 191.524C349.472 191.729 349.663 191.868 349.88 191.868H355.394C355.88 191.868 356.08 192.49 355.687 192.774L351.233 195.982C351.056 196.109 350.982 196.336 351.05 196.543L352.753 201.739C352.903 202.199 352.378 202.583 351.985 202.301L347.514 199.081C347.34 198.955 347.105 198.955 346.93 199.081L342.459 202.301C342.066 202.583 341.541 202.199 341.692 201.739L343.395 196.543C343.463 196.336 343.389 196.109 343.212 195.982L338.758 192.774C338.364 192.49 338.565 191.868 339.05 191.868H344.565C344.781 191.868 344.973 191.729 345.04 191.524L346.747 186.316Z" fill="#B8C0CC"/>
<path d="M375.747 186.316C375.898 185.857 376.547 185.857 376.697 186.316L378.404 191.524C378.472 191.729 378.663 191.868 378.88 191.868H384.394C384.88 191.868 385.08 192.49 384.687 192.774L380.233 195.982C380.056 196.109 379.982 196.336 380.05 196.543L381.753 201.739C381.903 202.199 381.378 202.583 380.985 202.301L376.514 199.081C376.34 198.955 376.105 198.955 375.93 199.081L371.459 202.301C371.066 202.583 370.541 202.199 370.692 201.739L372.395 196.543C372.463 196.336 372.389 196.109 372.212 195.982L367.758 192.774C367.364 192.49 367.565 191.868 368.05 191.868H373.565C373.781 191.868 373.973 191.729 374.04 191.524L375.747 186.316Z" fill="#B8C0CC"/>
<path d="M404.747 186.316C404.898 185.857 405.547 185.857 405.697 186.316L407.404 191.524C407.472 191.729 407.663 191.868 407.88 191.868H413.394C413.88 191.868 414.08 192.49 413.687 192.774L409.233 195.982C409.056 196.109 408.982 196.336 409.05 196.543L410.753 201.739C410.903 202.199 410.378 202.583 409.985 202.301L405.514 199.081C405.34 198.955 405.105 198.955 404.93 199.081L400.459 202.301C400.066 202.583 399.541 202.199 399.692 201.739L401.395 196.543C401.463 196.336 401.389 196.109 401.212 195.982L396.758 192.774C396.364 192.49 396.565 191.868 397.05 191.868H402.565C402.781 191.868 402.973 191.729 403.04 191.524L404.747 186.316Z" fill="#B8C0CC"/>
<path d="M434.222 186.472L435.929 191.68C436.064 192.09 436.447 192.368 436.88 192.368H442.394L437.94 195.576C437.587 195.831 437.439 196.285 437.574 196.699L439.278 201.895L434.807 198.675C434.458 198.423 433.987 198.423 433.638 198.675L429.167 201.895L430.87 196.699C431.006 196.285 430.858 195.831 430.504 195.576L426.05 192.368H431.565C431.997 192.368 432.381 192.09 432.515 191.68L434.222 186.472Z" stroke="#B8C0CC"/>
<rect x="95" y="113" width="57" height="57" rx="28.5" fill="white" stroke="#B8C0CC" stroke-width="2"/>
<g filter="url(#filter1_d)">
<rect x="438" y="48" width="102" height="102" rx="12" fill="white"/>
<rect x="438.5" y="48.5" width="101" height="101" rx="11.5" stroke="#F2F4F5"/>
</g>
<path d="M459.4 71.9768C459.4 71.5238 459.705 71.1273 460.143 71.0106L488.743 63.3839C488.912 63.3389 489.089 63.3389 489.258 63.3839L517.858 71.0106C518.296 71.1273 518.6 71.5238 518.6 71.9768V93.6857C518.6 112.267 506.711 128.763 489.083 134.639L489.399 135.587L489.083 134.639C489.029 134.656 488.971 134.656 488.918 134.639L488.601 135.587L488.918 134.639C471.29 128.763 459.4 112.267 459.4 93.6857V71.9768Z" stroke="#B8C0CC" stroke-width="2"/>
<rect x="468.6" y="78.6001" width="40.8" height="7.65" rx="3.825" fill="#D7DEE2"/>
<rect x="468.6" y="91.3501" width="40.8" height="7.65" rx="3.825" fill="#D7DEE2"/>
<rect x="468.6" y="104.1" width="40.8" height="7.65" rx="3.825" fill="#D7DEE2"/>
<path d="M476.76 82.425H482.88" stroke="white" stroke-width="2" stroke-linecap="round"/>
<path d="M476.76 95.175H482.88" stroke="white" stroke-width="2" stroke-linecap="round"/>
<path d="M476.76 107.925H482.88" stroke="white" stroke-width="2" stroke-linecap="round"/>
<g filter="url(#filter2_d)">
<rect x="10" y="250" width="102" height="102" rx="12" fill="white"/>
<rect x="10.5" y="250.5" width="101" height="101" rx="11.5" stroke="#F2F4F5"/>
</g>
<path d="M50 269V277C50 278.105 49.1046 279 48 279H39" stroke="#D7DEE2" stroke-width="2"/>
<path d="M44.8987 272.915L44.9021 272.912L48.0331 269.854C48.5936 269.306 49.3459 269 50.1294 269H76C77.6569 269 79 270.343 79 272V330C79 331.657 77.6569 333 76 333H42C40.3431 333 39 331.657 39 330V279.986C39 279.183 39.322 278.413 39.8938 277.85L44.8987 272.915Z" stroke="#D7DEE2" stroke-width="2"/>
<rect x="44.5" y="286.5" width="29" height="1" rx="0.5" stroke="#B8C0CC"/>
<rect x="44.5" y="292.5" width="29" height="1" rx="0.5" stroke="#D7DEE2"/>
<rect x="44.5" y="298.5" width="29" height="1" rx="0.5" stroke="#D7DEE2"/>
<rect x="56.5" y="305.5" width="11" height="1" rx="0.5" stroke="#D7DEE2"/>
<rect x="56.5" y="317.5" width="11" height="1" rx="0.5" stroke="#D7DEE2"/>
<rect x="56.5" y="309.5" width="17" height="1" rx="0.5" stroke="#D7DEE2"/>
<rect x="56.5" y="321.5" width="17" height="1" rx="0.5" stroke="#D7DEE2"/>
<rect x="45" y="305" width="6" height="6" rx="1" stroke="#B8C0CC" stroke-width="2"/>
<rect x="45" y="317" width="6" height="6" rx="1" stroke="#B8C0CC" stroke-width="2"/>
<path d="M82 308L82 324L72.4419 333.096L65.0332 325.687L82 308Z" fill="white"/>
<path d="M87.0008 313.337L85.88 314.458L83.5442 312.122L84.665 311.002L87.0008 313.337ZM73.3358 327.003H71V324.667L81.06 314.607L83.3958 316.942L73.3358 327.003Z" stroke="#B8C0CC" stroke-width="2"/>
<defs>
<filter id="filter0_d" x="42" y="0" width="478" height="352" filterUnits="userSpaceOnUse" color-interpolation-filters="sRGB">
<feFlood flood-opacity="0" result="BackgroundImageFix"/>
<feColorMatrix in="SourceAlpha" type="matrix" values="0 0 0 0 0 0 0 0 0 0 0 0 0 0 0 0 0 0 127 0"/>
<feOffset dx="6" dy="6"/>
<feGaussianBlur stdDeviation="7"/>
<feColorMatrix type="matrix" values="0 0 0 0 0.721569 0 0 0 0 0.752941 0 0 0 0 0.8 0 0 0 0.16 0"/>
<feBlend mode="normal" in2="BackgroundImageFix" result="effect1_dropShadow"/>
<feBlend mode="normal" in="SourceGraphic" in2="effect1_dropShadow" result="shape"/>
</filter>
<filter id="filter1_d" x="428" y="38" width="150" height="150" filterUnits="userSpaceOnUse" color-interpolation-filters="sRGB">
<feFlood flood-opacity="0" result="BackgroundImageFix"/>
<feColorMatrix in="SourceAlpha" type="matrix" values="0 0 0 0 0 0 0 0 0 0 0 0 0 0 0 0 0 0 127 0"/>
<feOffset dx="14" dy="14"/>
<feGaussianBlur stdDeviation="12"/>
<feColorMatrix type="matrix" values="0 0 0 0 0.721569 0 0 0 0 0.752941 0 0 0 0 0.8 0 0 0 0.2 0"/>
<feBlend mode="normal" in2="BackgroundImageFix" result="effect1_dropShadow"/>
<feBlend mode="normal" in="SourceGraphic" in2="effect1_dropShadow" result="shape"/>
</filter>
<filter id="filter2_d" x="0" y="240" width="150" height="150" filterUnits="userSpaceOnUse" color-interpolation-filters="sRGB">
<feFlood flood-opacity="0" result="BackgroundImageFix"/>
<feColorMatrix in="SourceAlpha" type="matrix" values="0 0 0 0 0 0 0 0 0 0 0 0 0 0 0 0 0 0 127 0"/>
<feOffset dx="14" dy="14"/>
<feGaussianBlur stdDeviation="12"/>
<feColorMatrix type="matrix" values="0 0 0 0 0.721569 0 0 0 0 0.752941 0 0 0 0 0.8 0 0 0 0.2 0"/>
<feBlend mode="normal" in2="BackgroundImageFix" result="effect1_dropShadow"/>
<feBlend mode="normal" in="SourceGraphic" in2="effect1_dropShadow" result="shape"/>
</filter>
</defs>
</svg>
