<svg width="104" height="104" viewBox="0 0 104 104" fill="none" xmlns="http://www.w3.org/2000/svg">
<circle cx="52" cy="52" r="52" fill="#EBEEF5"/>
<path d="M39.284 31.2231L47.0463 33.304L52.2363 34.6151L74.4771 56.5813C75.6724 58.3826 75.0943 61.9064 73.4837 63.4844C72.5403 64.4087 71.2955 64.8617 70.0547 64.8433C70.0748 66.0577 69.6112 67.2787 68.6679 68.2029C67.754 69.0983 66.5293 69.5841 65.2389 69.5644C65.2577 70.7788 64.7954 71.9985 63.8521 72.9227C62.9087 73.847 61.6626 74.2999 60.4231 74.2816C60.4432 75.496 59.9796 76.7169 59.0363 77.6412C58.1117 78.5471 56.8964 79 55.681 79C54.4898 79 53.2999 78.5642 52.382 77.6937L52.0779 77.4535C50.2371 76.1068 32.4945 60.2424 30.0704 57.4859L24.1103 49.6152L17.4668 44.0131C16.9174 43.5497 16.8424 42.7423 17.298 42.1896L29.9753 26.8066C30.4041 26.2853 31.1638 26.1632 31.74 26.523L39.284 31.2231Z" fill="#FCFDFF"/>
<path d="M60.4231 74.2816C60.4432 75.496 59.9796 76.7169 59.0363 77.6412C58.1117 78.5471 56.8964 79 55.681 79C54.4898 79 53.2999 78.5642 52.382 77.6937L52.0779 77.4535C50.2371 76.1069 32.4945 60.2424 30.0704 57.4859L24.1103 49.6152L17.4668 44.0131C16.9174 43.5497 16.8424 42.7423 17.298 42.1896L29.9753 26.8066C30.4041 26.2853 31.1638 26.1632 31.74 26.523L39.284 31.2231L47.0463 33.304L52.2363 34.6151L74.4771 56.5813C75.6724 58.3826 75.0943 61.9064 73.4837 63.4844C72.5403 64.4087 71.2955 64.8617 70.0547 64.8433M60.4231 74.2816C61.6626 74.2999 62.9087 73.847 63.8521 72.9227C64.7954 71.9985 65.2577 70.7788 65.2389 69.5644M60.4231 74.2816L54.7353 68.7264M65.2389 69.5644C66.5293 69.5841 67.754 69.0983 68.6679 68.2029C69.6112 67.2787 70.0748 66.0577 70.0547 64.8433M65.2389 69.5644L56.7345 61.2583M70.0547 64.8433L59.0363 54.0818" stroke="#53A1FF" stroke-width="2" stroke-linecap="round"/>
<path d="M29.6578 53.5134L27.1632 55.8339C25.9404 56.9714 25.9404 58.8228 27.1632 59.9622C28.386 61.0996 30.3764 61.0996 31.5992 59.9622L34.0183 57.7119C35.2513 56.565 35.3125 54.7079 34.1571 53.5723C33.5692 52.995 32.775 52.6703 31.9197 52.6589C31.8299 52.657 31.7421 52.6608 31.6523 52.6684H31.6523C31.6359 52.6684 31.6176 52.6684 31.5992 52.6703C30.9725 52.7235 30.3825 52.9438 29.8946 53.3141C29.813 53.3767 29.7333 53.4432 29.6578 53.5134Z" fill="#FCFDFF"/>
<path d="M31.2298 64.2746C31.2298 65.0551 31.5564 65.788 32.1484 66.3387C32.7404 66.8894 33.5284 67.1932 34.3654 67.1913C35.2044 67.1913 35.9924 66.8875 36.5844 66.3368L41.345 61.9105C41.8533 61.4376 42.184 60.8148 42.2799 60.1521C42.4576 58.9121 41.7716 57.6797 40.5509 57.1385C39.3668 56.6144 37.9113 56.8499 36.9845 57.712L32.1484 62.2105C31.5564 62.7631 31.2298 63.4942 31.2298 64.2746Z" fill="#FCFDFF"/>
<path d="M36.9845 70.0967C36.9845 70.8771 37.3111 71.6101 37.9032 72.1608C38.4972 72.7115 39.2852 73.0153 40.1242 73.0134C40.9632 73.0134 41.7512 72.7096 42.3432 72.1589L47.1018 67.7325C47.5978 67.2711 47.9265 66.6653 48.0306 66.0197C48.2205 64.8481 47.6407 63.6707 46.5322 63.0707C45.3196 62.4156 43.7294 62.6131 42.7393 63.534L37.9032 68.0325C37.3111 68.5851 36.9845 69.3162 36.9845 70.0967Z" fill="#FCFDFF"/>
<path d="M44.8408 72.7025C43.6179 73.84 43.6179 75.6914 44.8408 76.8288C46.0636 77.9663 48.0539 77.9682 49.2767 76.8307L51.6836 74.5919C52.8513 73.5057 52.9778 71.8062 52.0367 70.6631C51.9755 70.5852 51.9061 70.5112 51.8346 70.4409C51.2467 69.8636 50.4506 69.5389 49.5973 69.5275C49.5236 69.5275 49.4539 69.5311 49.3823 69.5348L49.3768 69.5351C49.34 69.537 49.3053 69.537 49.2686 69.5408C49.1808 69.5484 49.091 69.5598 49.0032 69.575C48.991 69.575 48.9787 69.5769 48.9665 69.5788C48.4581 69.6699 47.9825 69.875 47.5762 70.1808C47.5742 70.1808 47.5722 70.1827 47.5701 70.1845C47.4905 70.2453 47.4109 70.3118 47.3354 70.382L44.8408 72.7025Z" fill="#FCFDFF"/>
<path d="M29.6578 53.5134L27.1632 55.8339C25.9404 56.9714 25.9404 58.8228 27.1632 59.9622C28.386 61.0996 30.3764 61.0996 31.5992 59.9622L34.0183 57.7119C35.2513 56.565 35.3125 54.7079 34.1571 53.5723C33.5692 52.995 32.775 52.6703 31.9197 52.6589C31.8299 52.657 31.7421 52.6608 31.6523 52.6684H31.6523C31.6359 52.6684 31.6176 52.6684 31.5992 52.6703C30.9725 52.7235 30.3825 52.9438 29.8946 53.3141C29.813 53.3767 29.7333 53.4432 29.6578 53.5134Z" stroke="#B8C0CC" stroke-width="2"/>
<path d="M31.2298 64.2746C31.2298 65.0551 31.5564 65.788 32.1484 66.3387C32.7404 66.8894 33.5284 67.1932 34.3654 67.1913C35.2044 67.1913 35.9924 66.8875 36.5844 66.3368L41.345 61.9105C41.8533 61.4376 42.184 60.8148 42.2799 60.1521C42.4576 58.9121 41.7716 57.6797 40.5509 57.1385C39.3668 56.6144 37.9113 56.8499 36.9845 57.712L32.1484 62.2105C31.5564 62.7631 31.2298 63.4942 31.2298 64.2746Z" stroke="#B8C0CC" stroke-width="2"/>
<path d="M36.9845 70.0967C36.9845 70.8771 37.3111 71.6101 37.9032 72.1608C38.4972 72.7115 39.2852 73.0153 40.1242 73.0134C40.9632 73.0134 41.7512 72.7096 42.3432 72.1589L47.1018 67.7325C47.5978 67.2711 47.9265 66.6653 48.0306 66.0197C48.2205 64.8481 47.6407 63.6707 46.5322 63.0707C45.3196 62.4156 43.7294 62.6131 42.7393 63.534L37.9032 68.0325C37.3111 68.5851 36.9845 69.3162 36.9845 70.0967Z" stroke="#B8C0CC" stroke-width="2"/>
<path d="M44.8408 72.7025C43.6179 73.84 43.6179 75.6914 44.8408 76.8288C46.0636 77.9663 48.0539 77.9682 49.2767 76.8307L51.6836 74.5919C52.8513 73.5057 52.9778 71.8062 52.0367 70.6631C51.9755 70.5852 51.9061 70.5112 51.8346 70.4409C51.2467 69.8636 50.4506 69.5389 49.5973 69.5275C49.5236 69.5275 49.4539 69.5311 49.3823 69.5348L49.3768 69.5351C49.34 69.537 49.3053 69.537 49.2686 69.5408C49.1808 69.5484 49.091 69.5598 49.0032 69.575C48.991 69.575 48.9787 69.5769 48.9665 69.5788C48.4581 69.6699 47.9825 69.875 47.5762 70.1808C47.5742 70.1808 47.5722 70.1827 47.5701 70.1845C47.4905 70.2453 47.4109 70.3118 47.3354 70.382L44.8408 72.7025Z" stroke="#B8C0CC" stroke-width="2"/>
<path d="M74.5832 56.4172C74.3466 57.1157 73.461 57.3266 72.9351 56.8096L55.9539 40.1189C55.9223 40.0877 55.8893 40.0566 55.8548 40.0284C55.6131 39.8296 55.3129 39.7094 54.9977 39.6872L46.7721 39.11C46.2032 39.0715 45.6373 39.3697 45.3566 39.8607L41.1267 47.2388C40.8235 47.7684 40.3282 48.1497 39.7353 48.3129C39.1424 48.4761 38.5195 48.399 37.9821 48.0993C37.4462 47.7996 37.0605 47.31 36.8954 46.724C36.7302 46.1364 36.8083 45.5207 37.1115 44.9911L42.556 35.4943C42.6857 35.268 42.8988 35.1014 43.1497 35.0299L45.0459 34.49C45.0609 34.4856 45.0759 34.4796 45.0909 34.4752L53.4957 32.076C53.585 32.0505 53.6774 32.0376 53.7702 32.0376H63.5913C63.8222 32.0376 64.0459 31.9577 64.2246 31.8115L71.8008 25.6118C72.2178 25.2705 72.8302 25.321 73.1856 25.726L86.2899 40.6554C86.6731 41.0919 86.605 41.7618 86.142 42.1124L77.3586 48.7614C77.1989 48.8822 77.0792 49.0482 77.015 49.2379L74.5832 56.4172Z" fill="#FCFDFF" stroke="#B8C0CC" stroke-width="2"/>
</svg>
