<svg width="100" height="65" viewBox="0 0 100 65" fill="none" xmlns="http://www.w3.org/2000/svg">
<path d="M50.0008 35.8643H11.6074V47.5685" stroke="#B8C0CC" stroke-width="2" stroke-linecap="round" stroke-linejoin="round"/>
<path d="M50 35.8643H88.4398V47.589" stroke="#B8C0CC" stroke-width="2" stroke-linecap="round" stroke-linejoin="round"/>
<path d="M78.3624 48.5684H98.4243C98.7586 48.5684 98.9995 48.8301 98.9995 49.1163V63.452C98.9995 63.7382 98.7586 64 98.4243 64H78.3624C78.0281 64 77.7871 63.7382 77.7871 63.452V49.1163C77.7871 48.8301 78.0281 48.5684 78.3624 48.5684Z" stroke="#B8C0CC" stroke-width="2" stroke-linecap="round" stroke-linejoin="round"/>
<path d="M1.57525 48.5684H21.6372C21.9714 48.5684 22.2124 48.8301 22.2124 49.1163V63.452C22.2124 63.7382 21.9714 64 21.6372 64H1.57525C1.24099 64 1 63.7382 1 63.452V49.1163C1 48.8301 1.24099 48.5684 1.57525 48.5684Z" stroke="#B8C0CC" stroke-width="2" stroke-linecap="round" stroke-linejoin="round"/>
<path d="M50 47.3441V27.251V47.3441Z" fill="white"/>
<path d="M50 47.3441V27.251" stroke="#53A1FF" stroke-width="2" stroke-linecap="round"/>
<path d="M39.9698 48.5684H60.0317C60.366 48.5684 60.607 48.8301 60.607 49.1163V63.452C60.607 63.7382 60.366 64 60.0317 64H39.9698C39.6355 64 39.3945 63.7382 39.3945 63.452V49.1163C39.3945 48.8301 39.6355 48.5684 39.9698 48.5684Z" stroke="#B8C0CC" stroke-width="2" stroke-linecap="round" stroke-linejoin="round"/>
<path d="M65.0461 1H34.9522C33.6475 1 32.5898 2.03934 32.5898 3.32143V24.8265C32.5898 26.1085 33.6475 27.1479 34.9522 27.1479H65.0461C66.3508 27.1479 67.4085 26.1085 67.4085 24.8265V3.32143C67.4085 2.03934 66.3508 1 65.0461 1Z" stroke="#B8C0CC" stroke-width="2" stroke-linecap="round" stroke-linejoin="round"/>
</svg>
