<svg width="104" height="104" viewBox="0 0 104 104" fill="none" xmlns="http://www.w3.org/2000/svg">
<ellipse cx="52" cy="51.028" rx="52" ry="51.028" fill="#F0F4F7"/>
<path d="M42.6016 40.2552C42.6016 37.0471 44.7824 34.2496 47.8935 33.4668L70.5221 27.773C74.9427 26.6607 79.2301 30.003 79.2301 34.5614V88.044C79.2301 91.2521 77.0493 94.0496 73.9382 94.8324L51.3096 100.526C46.889 101.638 42.6016 98.2962 42.6016 93.7378V40.2552Z" fill="white" stroke="#B8C0CC" stroke-width="2"/>
<rect x="42.6016" y="35.0187" width="51.4857" height="67.9813" rx="7" fill="white" stroke="#B8C0CC" stroke-width="2"/>
<path d="M68.3418 64.1496C72.718 64.1496 76.2656 60.6683 76.2656 56.3739C76.2656 52.0795 72.718 48.5982 68.3418 48.5982C63.9656 48.5982 60.418 52.0795 60.418 56.3739C60.418 60.6683 63.9656 64.1496 68.3418 64.1496Z" stroke="#53A1FF" stroke-width="1.5" stroke-miterlimit="10"/>
<path d="M68.2831 64.1496C67.0784 62.9912 66.1492 61.5303 65.5982 59.8749C65.2364 58.79 65.0391 57.6187 65.0391 56.3998C65.0391 55.1766 65.2364 54.0096 65.5982 52.9204C66.1574 51.2391 67.1072 49.7566 68.3406 48.5982" stroke="#53A1FF" stroke-width="1.5" stroke-miterlimit="10" stroke-linecap="round"/>
<path d="M68.3418 48.5982C69.5712 49.7566 70.5209 51.2391 71.0842 52.9161C71.446 54.0053 71.6434 55.1766 71.6434 56.3998C71.6434 57.6187 71.446 58.7944 71.0842 59.8792C70.5333 61.5303 69.5999 62.9912 68.3994 64.1496" stroke="#53A1FF" stroke-width="1.5" stroke-miterlimit="10" stroke-linecap="round"/>
<path d="M76.2656 56.3738H60.418" stroke="#53A1FF" stroke-width="1.5" stroke-miterlimit="10" stroke-linecap="round"/>
<path d="M51.5059 81.6449H86.1725" stroke="#B8C0CC" stroke-width="2" stroke-linecap="round"/>
<path d="M55.4668 89.4205H81.2192" stroke="#B8C0CC" stroke-width="2" stroke-linecap="round"/>
<path d="M63.3813 100.501V101.141C63.3813 102.168 62.5491 103 61.5225 103H25.64C24.6134 103 23.7812 102.168 23.7812 101.141V100.501C23.7812 89.5657 32.646 80.701 43.5813 80.701C54.5165 80.701 63.3813 89.5657 63.3813 100.501Z" fill="white" stroke="#53A1FF" stroke-width="2" stroke-linecap="round"/>
<path d="M52.4855 65.6075C52.4855 70.6739 48.2949 74.8131 43.0855 74.8131C37.8762 74.8131 33.6855 70.6739 33.6855 65.6075C33.6855 60.5411 37.8762 56.4019 43.0855 56.4019C48.2949 56.4019 52.4855 60.5411 52.4855 65.6075Z" fill="white" stroke="#53A1FF" stroke-width="2"/>
</svg>
