<svg width="66" height="66" viewBox="0 0 66 66" fill="none" xmlns="http://www.w3.org/2000/svg">
<path d="M33 65C50.6731 65 65 50.6731 65 33C65 15.3269 50.6731 1 33 1C15.3269 1 1 15.3269 1 33C1 50.6731 15.3269 65 33 65Z" stroke="#B8C0CC" stroke-width="2" stroke-linecap="round" stroke-linejoin="round"/>
<path d="M29.7489 24.188L18.8184 41.8162H40.4158L29.7489 24.188Z" stroke="#53A1FF" stroke-width="2" stroke-linecap="round" stroke-linejoin="round"/>
<path d="M40.4158 41.816H45.7372L38.2377 29.4214L35.6387 33.6138" stroke="#53A1FF" stroke-width="2" stroke-linecap="round" stroke-linejoin="round"/>
<path d="M44.058 25.3015C45.8526 25.3015 47.3073 23.8467 47.3073 22.0521C47.3073 20.2575 45.8526 18.8027 44.058 18.8027C42.2634 18.8027 40.8086 20.2575 40.8086 22.0521C40.8086 23.8467 42.2634 25.3015 44.058 25.3015Z" stroke="#53A1FF" stroke-width="2" stroke-linecap="round" stroke-linejoin="round"/>
<path d="M17.3906 47.416H48.1416" stroke="#53A1FF" stroke-width="2" stroke-linecap="round" stroke-linejoin="round"/>
</svg>
