<svg width="102" height="66" viewBox="0 0 102 66" fill="none" xmlns="http://www.w3.org/2000/svg">
<path d="M83.0313 40.0241C88.6404 40.0241 93.1876 35.4814 93.1876 29.8778C93.1876 24.2741 88.6404 19.7314 83.0313 19.7314C77.4221 19.7314 72.875 24.2741 72.875 29.8778C72.875 35.4814 77.4221 40.0241 83.0313 40.0241Z" fill="white" stroke="#B8C0CC" stroke-width="1.88" stroke-miterlimit="10" stroke-linecap="round"/>
<path d="M18.9688 40.0241C24.5779 40.0241 29.1251 35.4814 29.1251 29.8778C29.1251 24.2741 24.5779 19.7314 18.9688 19.7314C13.3596 19.7314 8.8125 24.2741 8.8125 29.8778C8.8125 35.4814 13.3596 40.0241 18.9688 40.0241Z" fill="white" stroke="#B8C0CC" stroke-width="1.88" stroke-miterlimit="10" stroke-linecap="round"/>
<path d="M99.9975 65C100.55 65 100.998 64.5523 100.998 64V57.3535C101.038 55.0918 100.603 52.845 99.7184 50.7443C98.8337 48.6436 97.5168 46.731 95.8444 45.1179C94.1721 43.5049 92.1779 42.2237 89.978 41.3492C87.7781 40.4747 85.4166 40.0244 83.0312 40.0244C80.6459 40.0244 78.2845 40.4747 76.0846 41.3492C73.8847 42.2237 71.8904 43.5049 70.218 45.1179C68.5457 46.731 67.2288 48.6436 66.3441 50.7443C65.4593 52.845 65.0246 55.0918 65.0651 57.3535V64" fill="white"/>
<path d="M100.998 57.3535V64C100.998 64.5523 100.55 65 99.9975 65H66.0651C65.5128 65 65.0651 64.5523 65.0651 64V57.3535C65.0246 55.0918 65.4593 52.845 66.3441 50.7443C67.2288 48.6436 68.5457 46.731 70.218 45.1179C71.8904 43.5049 73.8847 42.2237 76.0846 41.3492C78.2845 40.4747 80.6459 40.0244 83.0312 40.0244C85.4166 40.0244 87.7781 40.4747 89.978 41.3492C92.1779 42.2237 94.1721 43.5049 95.8444 45.1179C97.5168 46.731 98.8337 48.6436 99.7184 50.7443C100.603 52.845 101.038 55.0918 100.998 57.3535Z" stroke="#B8C0CC" stroke-width="1.88" stroke-miterlimit="10" stroke-linecap="round"/>
<path d="M35.935 65C36.4873 65 36.935 64.5523 36.935 64V57.3535C36.9755 55.0918 36.5406 52.845 35.6559 50.7443C34.7712 48.6436 33.4543 46.731 31.7819 45.1179C30.1096 43.5049 28.1154 42.2237 25.9155 41.3492C23.7156 40.4747 21.3541 40.0244 18.9687 40.0244C16.5834 40.0244 14.222 40.4747 12.0221 41.3492C9.82224 42.2237 7.82787 43.5049 6.15554 45.1179C4.4832 46.731 3.16628 48.6436 2.28155 50.7443C1.39683 52.845 0.962126 55.0918 1.00259 57.3535V64" fill="white"/>
<path d="M36.935 57.3535V64C36.935 64.5523 36.4873 65 35.935 65H2.00259C1.4503 65 1.00259 64.5523 1.00259 64V57.3535C0.962126 55.0918 1.39683 52.845 2.28155 50.7443C3.16628 48.6436 4.4832 46.731 6.15554 45.1179C7.82787 43.5049 9.82224 42.2237 12.0221 41.3492C14.222 40.4747 16.5834 40.0244 18.9687 40.0244C21.3541 40.0244 23.7156 40.4747 25.9155 41.3492C28.1154 42.2237 30.1096 43.5049 31.7819 45.1179C33.4543 46.731 34.7712 48.6436 35.6559 50.7443C36.5406 52.845 36.9755 55.0918 36.935 57.3535Z" stroke="#B8C0CC" stroke-width="1.88" stroke-miterlimit="10" stroke-linecap="round"/>
<path d="M51 29.0975C58.7666 29.0975 65.0626 22.8077 65.0626 15.0488C65.0626 7.28984 58.7666 1 51 1C43.2335 1 36.9375 7.28984 36.9375 15.0488C36.9375 22.8077 43.2335 29.0975 51 29.0975Z" fill="white" stroke="#53A1FF" stroke-width="1.88" stroke-miterlimit="10" stroke-linecap="round"/>
<path d="M75.9966 65V54.0082C76.0528 50.757 75.4478 47.5272 74.2169 44.5075C72.986 41.4877 71.1537 38.7383 68.827 36.4196C66.5003 34.1009 63.7257 32.2591 60.665 31.002C57.6043 29.7449 54.3187 29.0977 51 29.0977C47.6812 29.0977 44.3958 29.7449 41.3351 31.002C38.2744 32.2591 35.4996 34.1009 33.1729 36.4196C30.8462 38.7383 29.014 41.4877 27.783 44.5075C26.5521 47.5272 25.9473 50.757 26.0036 54.0082V65" fill="white"/>
<path d="M75.9966 65V54.0082C76.0528 50.757 75.4478 47.5272 74.2169 44.5075C72.986 41.4877 71.1537 38.7383 68.827 36.4196C66.5003 34.1009 63.7257 32.2591 60.665 31.002C57.6043 29.7449 54.3187 29.0977 51 29.0977C47.6812 29.0977 44.3958 29.7449 41.3351 31.002C38.2744 32.2591 35.4996 34.1009 33.1729 36.4196C30.8462 38.7383 29.014 41.4877 27.783 44.5075C26.5521 47.5272 25.9473 50.757 26.0036 54.0082V65H75.9966Z" stroke="#53A1FF" stroke-width="1.88" stroke-miterlimit="10" stroke-linecap="round"/>
</svg>
