<svg width="104" height="104" viewBox="0 0 104 104" fill="none" xmlns="http://www.w3.org/2000/svg">
<circle cx="52" cy="52" r="52" fill="#EBEEF5"/>
<path d="M49 43C49 47.4183 45.4183 51 41 51C36.5817 51 33 47.4183 33 43C33 38.5817 36.5817 35 41 35C45.4183 35 49 38.5817 49 43Z" fill="white" stroke="#B8C0CC" stroke-width="2" stroke-miterlimit="10" stroke-linecap="round"/>
<path d="M23.5137 73.7873C23.5137 63.9636 31.4773 56 41.301 56C51.1246 56 59.0883 63.9636 59.0883 73.7873V76.8182C59.0883 77.4709 58.5591 78 57.9064 78H24.6955C24.0428 78 23.5137 77.4709 23.5137 76.8182V73.7873Z" fill="white" stroke="#B8C0CC" stroke-width="2"/>
<path d="M72 36C72 41.5228 67.5228 46 62 46C56.4772 46 52 41.5228 52 36C52 30.4772 56.4772 26 62 26C67.5228 26 72 30.4772 72 36Z" fill="white" stroke="#B8C0CC" stroke-width="2" stroke-miterlimit="10" stroke-linecap="round"/>
<path d="M40.5938 72.0603C40.5938 60.3502 50.0867 50.8572 61.7969 50.8572C73.5071 50.8572 83.0001 60.3502 83.0001 72.0604V76.3507C83.0001 77.2616 82.2617 78 81.3507 78H42.2431C41.3322 78 40.5938 77.2616 40.5938 76.3507V72.0603Z" fill="white" stroke="#B8C0CC" stroke-width="2"/>
<path d="M75.046 47.1552C75.0668 47.0644 75.1477 47 75.2409 47H82.7254C82.8527 47 82.9476 47.1174 82.921 47.2419L81.1199 55.647C81.0932 55.7715 81.1881 55.8889 81.3154 55.8889H90.6318C90.7904 55.8889 90.8859 56.0647 90.7995 56.1978L76.5737 78.1161C76.4534 78.3014 76.1659 78.1838 76.2099 77.9674L78.8424 65.0176C78.8676 64.8937 78.7729 64.7778 78.6464 64.7778H71.2511C71.1226 64.7778 71.0274 64.6583 71.0562 64.533L73.0408 55.8889L75.046 47.1552Z" fill="white" stroke="#53A1FF" stroke-width="2"/>
</svg>
