<svg width="105" height="105" viewBox="0 0 105 105" fill="none" xmlns="http://www.w3.org/2000/svg">
<circle cx="52.5" cy="52.5" r="52.5" fill="#F0F4F7"/>
<rect x="38" y="55.3333" width="11.3333" height="48.6667" rx="1" fill="white" stroke="#B8C0CC" stroke-width="2"/>
<rect x="80.666" y="55.3333" width="11.3333" height="48.6667" rx="1" fill="white" stroke="#B8C0CC" stroke-width="2"/>
<rect x="26" y="50" width="78" height="6" rx="3" fill="white" stroke="#B8C0CC" stroke-width="2"/>
<rect x="26" y="98" width="78" height="6" rx="3" fill="white" stroke="#B8C0CC" stroke-width="2"/>
<path d="M26 46.5418C26 44.9778 26.9116 43.5572 28.3334 42.9056L63.3334 26.8639C64.3915 26.3789 65.6085 26.3789 66.6666 26.8639L101.667 42.9056C103.088 43.5572 104 44.9778 104 46.5418V46.6667C104 48.8758 102.209 50.6667 100 50.6667H30C27.7909 50.6667 26 48.8758 26 46.6667V46.5418Z" fill="white" stroke="#B8C0CC" stroke-width="2"/>
<circle cx="65.0007" cy="79.6667" r="9.66667" fill="white" stroke="#53A1FF" stroke-width="2"/>
<path d="M65.0691 84.9968C65.3174 84.9968 65.5555 84.9214 65.7311 84.7874C65.9067 84.6534 66.0053 84.4716 66.0053 84.2821V83.8487C66.815 83.8116 67.5756 83.5401 68.1321 83.0896C68.6885 82.639 68.999 82.0435 69 81.4242V81.353C68.9987 80.7093 68.6632 80.0923 68.067 79.6371C67.4708 79.182 66.6625 78.9259 65.8193 78.9249H64.2291C63.898 78.9065 63.5883 78.7932 63.3622 78.6076C63.1362 78.422 63.0105 78.178 63.0105 77.9246C63.0105 77.6712 63.1362 77.4272 63.3622 77.2416C63.5883 77.0561 63.898 76.9427 64.2291 76.9243H66.5509C66.6877 76.9244 66.8187 76.966 66.9154 77.0398C67.0121 77.1137 67.0665 77.2137 67.0667 77.3181V77.335C67.0649 77.5191 67.1562 77.6966 67.3217 77.8305C67.4872 77.9643 67.714 78.0443 67.9548 78.0536C68.1956 78.0629 68.4318 78.0009 68.6142 77.8805C68.7966 77.7601 68.911 77.5906 68.9336 77.4073V77.3962C68.9473 77.1571 68.8992 76.9182 68.7919 76.6932C68.6847 76.4683 68.5204 76.2616 68.3085 76.0852C68.0966 75.9087 67.8412 75.7658 67.5569 75.6647C67.2727 75.5636 66.9652 75.5063 66.6519 75.496H66.5495H66.006V75.0674C66.0094 74.9719 65.9877 74.8769 65.9422 74.788C65.8967 74.699 65.8283 74.6179 65.7411 74.5495C65.6538 74.4811 65.5496 74.4266 65.4343 74.3895C65.3191 74.3524 65.1952 74.3333 65.0701 74.3333C64.9451 74.3333 64.8213 74.3524 64.706 74.3895C64.5908 74.4266 64.4865 74.4811 64.3992 74.5495C64.312 74.6179 64.2436 74.699 64.1981 74.788C64.1526 74.8769 64.1309 74.9719 64.1343 75.0674V75.4975C63.7166 75.5022 63.3043 75.5697 62.9207 75.696C62.5372 75.8224 62.1899 76.0052 61.8989 76.234C61.6079 76.4627 61.3788 76.733 61.2246 77.0294C61.0704 77.3258 60.9942 77.6425 61.0003 77.9613C61.0065 78.2802 61.0948 78.595 61.2603 78.8878C61.4258 79.1806 61.6652 79.4456 61.9649 79.6678C62.2646 79.89 62.6187 80.0649 63.007 80.1826C63.3952 80.3003 63.8099 80.3585 64.2276 80.3538H65.818C65.9905 80.3538 66.1613 80.3797 66.3207 80.4301C66.4801 80.4805 66.6249 80.5544 66.7469 80.6475C66.8689 80.7407 66.9657 80.8512 67.0317 80.9729C67.0977 81.0946 67.1317 81.225 67.1317 81.3567V81.4285C67.1306 81.6939 66.9917 81.9482 66.7455 82.1356C66.4992 82.323 66.1657 82.4282 65.818 82.4282H63.4588C63.3911 82.4283 63.324 82.4182 63.2614 82.3984C63.1989 82.3787 63.142 82.3498 63.0941 82.3132C63.0462 82.2767 63.0082 82.2333 62.9822 82.1856C62.9563 82.1379 62.943 82.0866 62.943 82.035V82.0281V81.9542C62.9426 81.7671 62.8461 81.5876 62.6743 81.4542C62.5025 81.3208 62.2691 81.2441 62.0241 81.2407C61.7791 81.2372 61.542 81.3072 61.3639 81.4357C61.1857 81.5642 61.0807 81.7408 61.0712 81.9278V82.0022C61.0655 82.2415 61.1215 82.4793 61.2362 82.702C61.3508 82.9248 61.5219 83.1281 61.7395 83.3003C61.9571 83.4726 62.217 83.6104 62.5044 83.7059C62.7918 83.8015 63.1011 83.8528 63.4146 83.8571H64.1322V84.2857C64.1324 84.4752 64.2312 84.6568 64.4067 84.7908C64.5823 84.9247 64.8203 84.9999 65.0685 84.9999L65.0691 84.9968Z" fill="#53A1FF"/>
</svg>
