<svg width="105" height="105" viewBox="0 0 105 105" fill="none" xmlns="http://www.w3.org/2000/svg">
<circle cx="52.5" cy="52.5" r="52.5" fill="#F0F4F7"/>
<rect x="26" y="26" width="78" height="52" rx="5" fill="white" stroke="#B8C0CC" stroke-width="2"/>
<path d="M65 41.2361L66.9676 47.2918C67.2354 48.1158 68.0033 48.6738 68.8697 48.6738H75.2371L70.0858 52.4164C69.3848 52.9257 69.0915 53.8284 69.3593 54.6525L71.3269 60.7082L66.1756 56.9656C65.4746 56.4563 64.5254 56.4563 63.8244 56.9656L58.6731 60.7082L60.6407 54.6525C60.9085 53.8284 60.6152 52.9257 59.9142 52.4164L54.7629 48.6738L61.1303 48.6738C61.9967 48.6738 62.7646 48.1158 63.0324 47.2918L65 41.2361Z" stroke="#53A1FF" stroke-width="2"/>
<path d="M104 101.5V102.764C104 103.447 103.447 104 102.765 104H76.2353C75.5531 104 75 103.447 75 102.764V101.5C75 93.4916 81.4919 86.9998 89.5 86.9998C97.5081 86.9998 104 93.4916 104 101.5Z" fill="white" stroke="#B8C0CC" stroke-width="2" stroke-linecap="round"/>
<circle cx="89.0398" cy="76.3054" r="6.7429" fill="white" stroke="#B8C0CC" stroke-width="2"/>
<path d="M55 101.5V102.765C55 103.447 54.4469 104 53.7647 104H27.2353C26.5531 104 26 103.447 26 102.765V101.5C26 93.4919 32.4919 87 40.5 87C48.5081 87 55 93.4919 55 101.5Z" fill="white" stroke="#B8C0CC" stroke-width="2" stroke-linecap="round"/>
<circle cx="40.4851" cy="76.3054" r="6.7429" fill="white" stroke="#B8C0CC" stroke-width="2"/>
<path d="M79 101V102.765C79 103.447 78.4469 104 77.7647 104H52.2353C51.5531 104 51 103.447 51 102.765V101C51 93.268 57.268 87 65 87C72.732 87 79 93.268 79 101Z" fill="white" stroke="#B8C0CC" stroke-width="2" stroke-linecap="round"/>
<path d="M71.6507 76.5994C71.6507 80.2504 68.7121 83.1989 65.1008 83.1989C61.4895 83.1989 58.5508 80.2504 58.5508 76.5994C58.5508 72.9485 61.4895 70 65.1008 70C68.7121 70 71.6507 72.9485 71.6507 76.5994Z" fill="white" stroke="#B8C0CC" stroke-width="2"/>
</svg>
