<svg width="56" height="56" viewBox="0 0 56 56" fill="none" xmlns="http://www.w3.org/2000/svg">
<g clip-path="url(#clip0)">
<path d="M1.05479 9.98435C6.79826 9.98435 12.0631 6.02972 12.0631 0.756836H43.7203C43.7203 6.02972 48.9902 9.98435 54.7391 9.98435C54.7391 23.1666 56.6288 42.0611 27.8842 55.2433C-0.833166 42.0611 1.05479 23.1666 1.05479 9.98435Z" fill="white" stroke="#B8C0CC" stroke-width="1.88" stroke-linejoin="round"/>
<path d="M28 27C26.8954 27 26 27.8839 26 28.9742C25.9998 29.7625 26.4692 30.4409 27.146 30.7574V33.1571C27.146 33.6226 27.5282 34 27.9999 34C28.4715 34 28.8538 33.6227 28.8538 33.1571V30.7574C29.5307 30.4409 30 29.7625 30 28.9742C30 27.8839 29.1046 27 28 27Z" fill="#53A1FF"/>
<path d="M35 21V16.7692C35 13.0307 31.866 10 28 10C24.1341 10 21 13.0307 21 16.7692V21" stroke="#53A1FF" stroke-width="1.88"/>
<path d="M37.3853 21H18.6147C17.7229 21 17 21.6989 17 22.561V35.439C17 36.3011 17.7229 37 18.6147 37H37.3853C38.2771 37 39 36.3011 39 35.439V22.561C39 21.6989 38.2771 21 37.3853 21Z" stroke="#53A1FF" stroke-width="1.88"/>
</g>
<defs>
<clipPath id="clip0">
<rect width="56" height="56" fill="white"/>
</clipPath>
</defs>
</svg>
