<svg width="60" height="56" viewBox="0 0 60 56" fill="none" xmlns="http://www.w3.org/2000/svg">
<g clip-path="url(#clip0)">
<path d="M10.3238 1.59638C10.6983 1.06363 11.3088 0.746582 11.96 0.746582H47.1657C47.7581 0.746582 48.32 1.0092 48.7 1.46366L57.7166 12.2471C58.2926 12.9359 58.3389 13.9241 57.8299 14.6638L32.021 52.1689C31.237 53.3082 29.561 53.3269 28.7517 52.2055L2.22821 15.4534C1.72924 14.762 1.72347 13.8303 2.21382 13.1328L10.3238 1.59638Z" fill="white" stroke="#B8C0CC" stroke-width="1.88" stroke-miterlimit="10"/>
<path d="M17.0938 21.3734C17.0938 19.7239 18.3431 18.3867 19.8844 18.3867H22.5879V26.7867H19.8844C18.3431 26.7867 17.0938 25.4495 17.0938 23.8001V21.3734Z" stroke="#53A1FF" stroke-width="1.88"/>
<path d="M42.9942 21.3734C42.9942 19.7239 41.7447 18.3867 40.2035 18.3867H37.5V26.7867H40.2035C41.7447 26.7867 42.9942 25.4495 42.9942 23.8001V21.3734Z" stroke="#53A1FF" stroke-width="1.88"/>
<path d="M39.0699 18.3866V14C39.0699 9.46388 35.634 5.78662 31.3955 5.78662H28.692C24.4536 5.78662 21.0176 9.46388 21.0176 14V18.3866" stroke="#53A1FF" stroke-width="1.88"/>
<path d="M39.0704 26.7866V29.12C39.0704 32.0066 36.8838 34.3466 34.1866 34.3466H33.5762" stroke="#53A1FF" stroke-width="1.88"/>
<path d="M32.0065 32.6665H29.6518C28.7848 32.6665 28.082 33.4187 28.082 34.3465C28.082 35.2743 28.7848 36.0265 29.6518 36.0265H32.0065C32.8734 36.0265 33.5762 35.2743 33.5762 34.3465C33.5762 33.4187 32.8734 32.6665 32.0065 32.6665Z" stroke="#53A1FF" stroke-width="1.88"/>
</g>
<defs>
<clipPath id="clip0">
<rect width="60" height="56" fill="white"/>
</clipPath>
</defs>
</svg>
