<svg width="66" height="66" viewBox="0 0 66 66" fill="none" xmlns="http://www.w3.org/2000/svg">
<path d="M57.3551 1H41.705C40.9029 1.0023 40.1343 1.3109 39.5671 1.85833C38.9999 2.40577 38.6802 3.1476 38.6779 3.92179V9.74884C38.6791 9.84049 38.7046 9.93034 38.7518 10.0099C38.799 10.0894 38.8663 10.1559 38.9476 10.2033C39.0289 10.2507 39.1214 10.2773 39.2163 10.2806C39.3112 10.2839 39.4055 10.2637 39.4901 10.2221C40.2931 9.86513 41.1983 9.78351 42.056 9.99079C42.9951 10.2145 43.8169 10.7624 44.3661 11.531C44.9154 12.2995 45.154 13.2356 45.037 14.1624C44.92 15.0892 44.4555 15.9426 43.7311 16.5614C43.0068 17.1802 42.0728 17.5216 41.1054 17.5212C40.5423 17.5212 39.9861 17.4019 39.476 17.1718C39.3927 17.1298 39.2997 17.1092 39.2058 17.112C39.1119 17.1147 39.0202 17.1407 38.9397 17.1874C38.8592 17.2341 38.7925 17.3001 38.7459 17.3789C38.6994 17.4576 38.6745 17.5466 38.6738 17.6373V23.4827C38.6759 24.257 38.9956 24.999 39.5628 25.5465C40.1301 26.094 40.8988 26.4024 41.701 26.4044H47.7423C47.8379 26.4054 47.9318 26.4302 48.0146 26.4764C48.0974 26.5226 48.1665 26.5886 48.2151 26.6682C48.2637 26.7477 48.2903 26.838 48.2921 26.9303C48.2939 27.0227 48.2709 27.1139 48.2255 27.1951C47.8317 27.9743 47.7307 28.8615 47.9398 29.7046C48.1623 30.617 48.7245 31.4187 49.5195 31.9571C50.3145 32.4954 51.2867 32.7329 52.2513 32.6244C53.216 32.5159 54.1057 32.0689 54.7511 31.3685C55.3965 30.6681 55.7527 29.7632 55.7518 28.8259C55.7519 28.2599 55.6176 27.7014 55.3597 27.1932C55.3146 27.1118 55.2921 27.0206 55.2943 26.9284C55.2965 26.8362 55.3232 26.7461 55.372 26.6668C55.4208 26.5875 55.49 26.5217 55.5729 26.4757C55.6557 26.4298 55.7494 26.4052 55.845 26.4044H61.9735C62.7755 26.4021 63.5439 26.0936 64.111 25.5461C64.678 24.9986 64.9975 24.2568 64.9996 23.4827V8.38328C64.9935 6.42776 64.1863 4.55395 62.7542 3.17073C61.322 1.78751 59.3812 1.00715 57.3551 1V1Z" stroke="#53A1FF" stroke-width="2" stroke-linecap="round" stroke-linejoin="round"/>
<path d="M53.6736 57.6159V42.5107C53.671 41.7369 53.3513 40.9956 52.7843 40.4485C52.2173 39.9015 51.4491 39.5931 50.6474 39.5908H44.6063C44.5113 39.5918 44.418 39.6163 44.3354 39.6618C44.2529 39.7073 44.1838 39.7723 44.1346 39.8508C44.0854 39.9293 44.0579 40.0187 44.0544 40.1103C44.051 40.202 44.0718 40.293 44.115 40.3747C44.4852 41.1497 44.5701 42.0234 44.3556 42.8513C44.123 43.7571 43.555 44.5495 42.7588 45.0789C41.9626 45.6084 40.9933 45.8384 40.0335 45.7256C39.0737 45.6127 38.1899 45.1648 37.5486 44.4663C36.9074 43.7678 36.5531 42.8671 36.5526 41.9339C36.5524 41.3903 36.6764 40.8533 36.9156 40.3612C36.9579 40.281 36.9784 40.1917 36.975 40.1018C36.9716 40.0119 36.9444 39.9243 36.8961 39.8474C36.8478 39.7704 36.7799 39.7066 36.699 39.6621C36.618 39.6175 36.5266 39.5937 36.4333 39.5928H27.3499V48.3445C27.349 48.437 27.3234 48.5276 27.2754 48.6077C27.2275 48.6878 27.159 48.7546 27.0764 48.8015C26.9939 48.8485 26.9001 48.874 26.8043 48.8757C26.7085 48.8773 26.6139 48.855 26.5297 48.811C25.7227 48.4309 24.804 48.3334 23.9308 48.5351C22.9854 48.7499 22.1548 49.2926 21.597 50.0599C21.0392 50.8272 20.7931 51.7656 20.9055 52.6967C21.018 53.6277 21.4811 54.4864 22.2068 55.1093C22.9324 55.7323 23.87 56.076 24.8412 56.0752C25.4271 56.075 26.0053 55.9459 26.5317 55.6977C26.6159 55.6541 26.7103 55.6322 26.8058 55.6341C26.9013 55.636 26.9946 55.6616 27.0769 55.7085C27.1592 55.7554 27.2275 55.822 27.2753 55.9018C27.3231 55.9816 27.3488 56.072 27.3499 56.1642V65.0001H46.025C48.0521 64.9945 49.9946 64.2147 51.4277 62.831C52.8609 61.4474 53.6684 59.5724 53.6736 57.6159V57.6159Z" stroke="#B8C0CC" stroke-width="2" stroke-linecap="round" stroke-linejoin="round"/>
<path d="M8.65057 64.9455H27.3258V56.1928C27.3245 56.1014 27.2992 56.0117 27.2522 55.9323C27.2052 55.8529 27.138 55.7863 27.057 55.7389C26.9759 55.6915 26.8836 55.6647 26.7889 55.6612C26.6942 55.6576 26.6002 55.6773 26.5156 55.7186C25.7125 56.0764 24.8067 56.1584 23.9486 55.9509C23.0094 55.7272 22.1876 55.1792 21.6384 54.4105C21.0891 53.6418 20.8505 52.7057 20.9676 51.7788C21.0847 50.8519 21.5495 49.9985 22.2741 49.3797C22.9986 48.761 23.9329 48.4198 24.9003 48.4205C25.4633 48.4208 26.0195 48.54 26.5297 48.7699C26.6127 48.8107 26.7052 48.8305 26.7983 48.8272C26.8915 48.8239 26.9822 48.7977 27.062 48.7511C27.1417 48.7044 27.2077 48.639 27.2539 48.5608C27.3001 48.4826 27.3248 48.3944 27.3258 48.3044V39.5372H18.2574C18.1619 39.536 18.0681 39.511 17.9855 39.4648C17.9028 39.4185 17.8339 39.3525 17.7853 39.273C17.7368 39.1936 17.7102 39.1034 17.7082 39.0112C17.7063 38.9189 17.729 38.8278 17.7741 38.7465C18.1678 37.9672 18.2688 37.0802 18.0599 36.237C17.8374 35.3246 17.2752 34.5229 16.4802 33.9846C15.6852 33.4462 14.7129 33.2087 13.7482 33.3172C12.7836 33.4257 11.894 33.8727 11.2486 34.5731C10.6032 35.2735 10.247 36.1784 10.2479 37.1158C10.2478 37.6817 10.3819 38.2402 10.6399 38.7484C10.6849 38.8298 10.7074 38.921 10.7053 39.0132C10.7031 39.1054 10.6764 39.1955 10.6276 39.2748C10.5788 39.3541 10.5096 39.4199 10.4267 39.4659C10.3439 39.5118 10.2502 39.5364 10.1546 39.5372H1V57.5622C1.00608 59.5188 1.81415 61.3935 3.24762 62.7769C4.68109 64.1602 6.62347 64.9399 8.65057 64.9455V64.9455Z" stroke="#B8C0CC" stroke-width="2" stroke-linecap="round" stroke-linejoin="round"/>
<path d="M1.05469 21.5029V39.5328H10.123C10.2178 39.5316 10.3107 39.5072 10.393 39.4618C10.4753 39.4164 10.5442 39.3515 10.5934 39.2733C10.6425 39.1951 10.6702 39.1061 10.6739 39.0147C10.6776 38.9233 10.657 38.8325 10.6143 38.7509C10.2436 37.9761 10.1587 37.1021 10.3737 36.2743C10.6055 35.3678 11.1731 34.5746 11.9694 34.0445C12.7657 33.5144 13.7356 33.2841 14.6958 33.397C15.6561 33.5099 16.5401 33.9583 17.1813 34.6574C17.8224 35.3566 18.1762 36.2581 18.1757 37.1917C18.1755 37.7352 18.0519 38.272 17.8137 38.7644C17.7711 38.8446 17.7504 38.934 17.7537 39.0241C17.757 39.1141 17.7842 39.2018 17.8326 39.2789C17.8809 39.356 17.9487 39.4199 18.0299 39.4645C18.111 39.5091 18.2026 39.533 18.296 39.5338H27.3795V30.7821C27.3804 30.6898 27.406 30.5993 27.4539 30.5193C27.5017 30.4393 27.5703 30.3726 27.6527 30.3257C27.7351 30.2788 27.8286 30.2532 27.9243 30.2515C28.0199 30.2497 28.1144 30.2718 28.1986 30.3156C29.0059 30.6956 29.925 30.7931 30.7986 30.5915C31.7439 30.3767 32.5744 29.834 33.1322 29.0667C33.69 28.2994 33.9362 27.361 33.8238 26.4299C33.7114 25.4989 33.2482 24.6402 32.5226 24.0173C31.7969 23.3943 30.8593 23.0506 29.8882 23.0514C29.3019 23.0517 28.7235 23.1808 28.1966 23.4289C28.1125 23.4726 28.0182 23.4945 27.9227 23.4926C27.8272 23.4907 27.7338 23.4651 27.6516 23.4182C27.5694 23.3713 27.5012 23.3047 27.4535 23.2248C27.4058 23.1449 27.3803 23.0545 27.3795 22.9623V17.0472C27.3768 16.2733 27.0569 15.5318 26.4897 14.9848C25.9226 14.4377 25.1541 14.1295 24.3523 14.1274H8.70427C6.67866 14.133 4.73747 14.9116 3.30439 16.2934C1.8713 17.6751 1.06262 19.5478 1.05469 21.5029V21.5029Z" stroke="#B8C0CC" stroke-width="2" stroke-linecap="round" stroke-linejoin="round"/>
</svg>
