<svg width="56" height="56" viewBox="0 0 56 56" fill="none" xmlns="http://www.w3.org/2000/svg">
<path d="M28 0C12.544 0 0 12.544 0 28C0 43.456 12.544 56 28 56C43.456 56 56 43.456 56 28C56 12.544 43.456 0 28 0ZM28 8.4C32.648 8.4 36.4 12.152 36.4 16.8C36.4 21.448 32.648 25.2 28 25.2C23.352 25.2 19.6 21.448 19.6 16.8C19.6 12.152 23.352 8.4 28 8.4ZM28 48.16C22.1124 48.16 16.7992 45.6246 13.11 41.5867C11.7465 40.0942 11.0407 37.8866 12.2883 36.296C15.2338 32.5409 23.4431 30.52 28 30.52C32.5344 30.52 40.7589 32.5412 43.7099 36.2968C44.959 37.8864 44.2535 40.0942 42.89 41.5867C39.2008 45.6246 33.8876 48.16 28 48.16Z" fill="#F0F4F7"/>
</svg>
