<svg width="20" height="20" viewBox="0 0 20 20" fill="none" xmlns="http://www.w3.org/2000/svg">
<path d="M17.5438 5.83325H2.45656C1.56017 5.83325 0.833496 6.5882 0.833496 7.51948V16.647C0.833496 17.5783 1.56017 18.3333 2.45656 18.3333H17.5438C18.4402 18.3333 19.1668 17.5783 19.1668 16.647V7.51948C19.1668 6.5882 18.4402 5.83325 17.5438 5.83325Z" stroke="#FE5F75" stroke-width="1.5" stroke-miterlimit="10"/>
<path d="M4.58333 5.83341C5.73393 5.83341 6.66667 4.90067 6.66667 3.75008C6.66667 2.59949 5.73393 1.66675 4.58333 1.66675C3.43274 1.66675 2.5 2.59949 2.5 3.75008C2.5 4.90067 3.43274 5.83341 4.58333 5.83341Z" stroke="#FE5F75" stroke-width="1.5" stroke-miterlimit="10"/>
<path d="M8.74984 5.83341C9.90043 5.83341 10.8332 4.90067 10.8332 3.75008C10.8332 2.59949 9.90043 1.66675 8.74984 1.66675C7.59924 1.66675 6.6665 2.59949 6.6665 3.75008C6.6665 4.90067 7.59924 5.83341 8.74984 5.83341Z" stroke="#FE5F75" stroke-width="1.5" stroke-miterlimit="10"/>
<path d="M6.6665 5L6.6665 18.3333" stroke="#FE5F75" stroke-width="1.5" stroke-miterlimit="10"/>
<path d="M0.833496 14.1667H19.1668" stroke="#FE5F75" stroke-width="1.5" stroke-miterlimit="10"/>
</svg>
