<svg width="72" height="72" viewBox="0 0 72 72" fill="none" xmlns="http://www.w3.org/2000/svg">
<path d="M64.1349 40.1574C62.0724 43.0153 58.0591 43.6945 55.1711 41.6745C52.283 39.6545 51.6137 35.7002 53.6762 32.8423L58.8646 25.653C60.343 23.6044 63.2197 23.1175 65.2898 24.5655L68.2517 26.6371C70.3219 28.0851 70.8016 30.9195 69.3233 32.968L64.1349 40.1574Z" fill="white" stroke="#B8C0CC" stroke-width="2"/>
<path d="M58.009 44.5134C56.728 46.2884 54.2355 46.7103 52.4418 45.4557C50.6481 44.2011 50.2324 41.7452 51.5134 39.9702L56.2569 33.3973C57.2009 32.0892 59.0378 31.7783 60.3596 32.7029L62.0684 33.898C63.3902 34.8226 63.6965 36.6324 62.7525 37.9405L58.009 44.5134Z" fill="white" stroke="#B8C0CC" stroke-width="2"/>
<path d="M53.6759 32.8436C51.6134 35.7015 47.6002 36.3808 44.7121 34.3608C41.824 32.3408 41.1547 28.3864 43.2172 25.5285L48.4056 18.3392C49.884 16.2907 52.7607 15.8038 54.8308 17.2518L57.7928 19.3234C59.8629 20.7714 60.3427 23.6058 58.8643 25.6543L53.6759 32.8436Z" fill="white" stroke="#B8C0CC" stroke-width="2"/>
<path d="M47.55 37.2C46.269 38.9749 43.7765 39.3968 41.9828 38.1422C40.1891 36.8876 39.7734 34.4317 41.0544 32.6567L45.798 26.0838C46.7419 24.7757 48.5788 24.4649 49.9006 25.3894L51.6094 26.5845C52.9312 27.5091 53.2376 29.319 52.2936 30.627L47.55 37.2Z" fill="white" stroke="#B8C0CC" stroke-width="2"/>
<path d="M43.2155 25.5279C41.1532 28.386 37.1401 29.0655 34.2518 27.0457C31.3636 25.026 30.694 21.0717 32.7563 18.2136L37.9441 11.0239C39.4224 8.97528 42.299 8.48818 44.3693 9.93595L47.3314 12.0074C49.4016 13.4552 49.8816 16.2896 48.4034 18.3382L43.2155 25.5279Z" fill="white" stroke="#B8C0CC" stroke-width="2"/>
<path d="M37.0906 29.8849C35.8098 31.6599 33.3173 32.082 31.5235 30.8275C29.7297 29.5731 29.3139 27.1172 30.5947 25.3421L35.3378 18.7688C36.2817 17.4607 38.1185 17.1497 39.4404 18.0741L41.1492 19.2691C42.4711 20.1936 42.7776 22.0034 41.8337 23.3115L37.0906 29.8849Z" fill="white" stroke="#B8C0CC" stroke-width="2"/>
<path d="M32.7579 18.2138C30.6954 21.0716 26.6822 21.7509 23.7941 19.7309C20.906 17.7109 20.2368 13.7566 22.2993 10.8987L27.4876 3.70935C28.966 1.66082 31.8427 1.17394 33.9129 2.62188L36.8748 4.69353C38.945 6.14147 39.4247 8.97591 37.9463 11.0244L32.7579 18.2138Z" fill="white" stroke="#B8C0CC" stroke-width="2"/>
<path d="M26.633 22.5698C25.352 24.3448 22.8595 24.7667 21.0658 23.5121C19.2721 22.2575 18.8564 19.8016 20.1374 18.0266L24.881 11.4537C25.825 10.1456 27.6618 9.83473 28.9836 10.7593L30.6924 11.9544C32.0142 12.879 32.3206 14.6888 31.3766 15.9969L26.633 22.5698Z" fill="white" stroke="#FE5F75" stroke-width="2"/>
<rect x="1.41079" y="0.0878263" width="5.98638" height="44.9257" rx="2.99319" transform="matrix(0.74935 -0.662174 0.661438 0.75 1.04357 22.8731)" stroke="#B8C0CC" stroke-width="2"/>
<path d="M27.8281 52.6198C27.4628 52.2056 27.5021 51.5733 27.916 51.2076L32.3993 47.2459C32.8132 46.8802 33.4448 46.9195 33.8101 47.3337L37.7704 51.8242L41.7328 56.3171L42.4821 55.6549L41.7328 56.3171L41.7328 56.3172L41.733 56.3174L41.7331 56.3175L41.7334 56.3178L41.7336 56.3181L41.734 56.3185L41.7343 56.3189L41.7347 56.3194L41.7352 56.3199L41.7357 56.3205L41.7363 56.3211L41.7369 56.3218L41.7375 56.3225L41.7382 56.3233L41.739 56.3242L41.7398 56.3251L41.7406 56.326L41.7415 56.3271L41.7425 56.3281L41.7435 56.3292L41.7445 56.3304L41.7456 56.3316L41.7467 56.3329L41.7479 56.3343L41.7491 56.3357L41.7504 56.3371L41.7517 56.3386L41.7531 56.3401L41.7545 56.3417L41.7559 56.3434L41.7574 56.3451L41.759 56.3468L41.7606 56.3486L41.7622 56.3505L41.7639 56.3524L41.7656 56.3543L41.7674 56.3564L41.7692 56.3584L41.7711 56.3605L41.773 56.3627L41.7749 56.3649L41.7769 56.3672L41.7789 56.3695L41.781 56.3719L41.7832 56.3743L41.7853 56.3767L41.7876 56.3792L41.7898 56.3818L41.7921 56.3844L41.7945 56.3871L41.7969 56.3898L41.7993 56.3926L41.8018 56.3954L41.8043 56.3982L41.8069 56.4012L41.8095 56.4041L41.8121 56.4071L41.8148 56.4102L41.8176 56.4133L41.8204 56.4164L41.8232 56.4196L41.8261 56.4229L41.829 56.4262L41.8319 56.4295L41.8349 56.4329L41.8379 56.4364L41.841 56.4399L41.8441 56.4434L41.8473 56.447L41.8505 56.4506L41.8537 56.4543L41.857 56.458L41.8604 56.4618L41.8637 56.4656L41.8671 56.4695L41.8706 56.4734L41.8741 56.4773L41.8776 56.4813L41.8812 56.4854L41.8848 56.4895L41.8884 56.4936L41.8921 56.4978L41.8959 56.502L41.8996 56.5063L41.9034 56.5106L41.9073 56.515L41.9112 56.5194L41.9151 56.5239L41.9191 56.5284L41.9231 56.5329L41.9271 56.5375L41.9312 56.5421L41.9353 56.5468L41.9395 56.5515L41.9437 56.5563L41.948 56.5611L41.9522 56.566L41.9566 56.5709L41.9609 56.5758L41.9653 56.5808L41.9697 56.5858L41.9742 56.5909L41.9787 56.596L41.9833 56.6012L41.9879 56.6064L41.9925 56.6116L41.9971 56.6169L42.0018 56.6222L42.0066 56.6276L42.0113 56.633L42.0161 56.6384L42.021 56.6439L42.0259 56.6495L42.0308 56.655L42.0357 56.6607L42.0407 56.6663L42.0458 56.672L42.0508 56.6778L42.0559 56.6835L42.0611 56.6894L42.0662 56.6952L42.0714 56.7011L42.0767 56.7071L42.082 56.7131L42.0873 56.7191L42.0926 56.7251L42.098 56.7313L42.1034 56.7374L42.1089 56.7436L42.1144 56.7498L42.1199 56.7561L42.1254 56.7624L42.131 56.7687L42.1367 56.7751L42.1423 56.7815L42.148 56.788L42.1537 56.7945L42.1595 56.801L42.1653 56.8076L42.1711 56.8142L42.177 56.8208L42.1829 56.8275L42.1888 56.8342L42.1948 56.841L42.2008 56.8478L42.2068 56.8546L42.2129 56.8615L42.219 56.8684L42.2251 56.8754L42.2313 56.8823L42.2374 56.8894L42.2437 56.8964L42.2499 56.9035L42.2562 56.9107L42.2625 56.9178L42.2689 56.925L42.2753 56.9323L42.2817 56.9395L42.2881 56.9469L42.2946 56.9542L42.3011 56.9616L42.3077 56.969L42.3142 56.9765L42.3208 56.9839L42.3275 56.9915L42.3341 56.999L42.3408 57.0066L42.3476 57.0142L42.3543 57.0219L42.3611 57.0296L42.3679 57.0373L42.3748 57.0451L42.3817 57.0529L42.3886 57.0607L42.3955 57.0686L42.4025 57.0765L42.4095 57.0844L42.4165 57.0924L42.4236 57.1004L42.4306 57.1084L42.4377 57.1165L42.4449 57.1246L42.4521 57.1327L42.4593 57.1409L42.4665 57.1491L42.4737 57.1573L42.481 57.1656L42.4883 57.1739L42.4957 57.1822L42.5031 57.1906L42.5105 57.1989L42.5179 57.2074L42.5253 57.2158L42.5328 57.2243L42.5403 57.2328L42.5479 57.2414L42.5554 57.2499L42.563 57.2585L42.5706 57.2672L42.5783 57.2758L42.586 57.2845L42.5937 57.2933L42.6014 57.302L42.6091 57.3108L42.6169 57.3196L42.6247 57.3285L42.6325 57.3374L42.6404 57.3463L42.6483 57.3552L42.6562 57.3642L42.6641 57.3732L42.6721 57.3822L42.6801 57.3913L42.6881 57.4003L42.6961 57.4094L42.7042 57.4186L42.7123 57.4278L42.7204 57.4369L42.7285 57.4462L42.7367 57.4554L42.7448 57.4647L42.7531 57.474L42.7613 57.4833L42.7695 57.4927L42.7778 57.5021L42.7861 57.5115L42.7945 57.521L42.8028 57.5304L42.8112 57.5399L42.8196 57.5495L42.828 57.559L42.8365 57.5686L42.8449 57.5782L42.8534 57.5878L42.8619 57.5975L42.8705 57.6072L42.879 57.6169L42.8876 57.6266L42.8962 57.6364L42.9049 57.6462L42.9135 57.656L42.9222 57.6658L42.9309 57.6757L42.9396 57.6856L42.9484 57.6955L42.9571 57.7054L42.9659 57.7154L42.9747 57.7253L42.9835 57.7354L42.9924 57.7454L43.0013 57.7554L43.0101 57.7655L43.0191 57.7756L43.028 57.7858L43.0369 57.7959L43.0459 57.8061L43.0549 57.8163L43.0639 57.8265L43.073 57.8368L43.082 57.847L43.0911 57.8573L43.1002 57.8676L43.1093 57.878L43.1184 57.8883L43.1276 57.8987L43.1368 57.9091L43.146 57.9195L43.1552 57.93L43.1644 57.9405L43.1737 57.9509L43.1829 57.9615L43.1922 57.972L43.2015 57.9825L43.2109 57.9931L43.2202 58.0037L43.2296 58.0143L43.239 58.025L43.2484 58.0356L43.2578 58.0463L43.2672 58.057L43.2767 58.0677L43.2861 58.0785L43.2956 58.0892L43.3051 58.1L43.3147 58.1108L43.3242 58.1216L43.3338 58.1325L43.3433 58.1433L43.3529 58.1542L43.3625 58.1651L43.3722 58.176L43.3818 58.187L43.3915 58.1979L43.4011 58.2089L43.4108 58.2199L43.4205 58.2309L43.4303 58.2419L43.44 58.2529L43.4498 58.264L43.4595 58.2751L43.4693 58.2862L43.4791 58.2973L43.4889 58.3084L43.4988 58.3196L43.5086 58.3308L43.5185 58.3419L43.5284 58.3531L43.5383 58.3644L43.5482 58.3756L43.5581 58.3869L43.568 58.3981L43.578 58.4094L43.588 58.4207L43.5979 58.432L43.6079 58.4434L43.6179 58.4547L43.628 58.4661L43.638 58.4774L43.648 58.4888L43.6581 58.5003L43.6682 58.5117L43.6783 58.5231L43.6884 58.5346L43.6985 58.546L43.7086 58.5575L43.7188 58.569L43.7289 58.5805L43.7391 58.5921L43.7493 58.6036L43.7595 58.6152L43.7697 58.6267L43.7799 58.6383L43.7901 58.6499L43.8004 58.6615L43.8106 58.6732L43.8209 58.6848L43.8311 58.6965L43.8414 58.7081L43.8517 58.7198L43.862 58.7315L43.8724 58.7432L43.8827 58.7549L43.893 58.7666L43.9034 58.7784L43.9137 58.7901L43.9241 58.8019L43.9345 58.8137L43.9449 58.8254L43.9553 58.8372L43.9657 58.8491L43.9761 58.8609L43.9866 58.8727L43.997 58.8846L44.0075 58.8964L44.0179 58.9083L44.0284 58.9201L44.0389 58.932L44.0494 58.9439L44.0599 58.9558L44.0704 58.9678L44.0809 58.9797L44.0915 58.9916L44.102 59.0036L44.1125 59.0155L44.1231 59.0275L44.1337 59.0395L44.1442 59.0515L44.1548 59.0635L44.1654 59.0755L44.176 59.0875L44.1866 59.0995L44.1972 59.1115L44.2078 59.1236L44.2184 59.1356L44.2291 59.1477L44.2397 59.1597L44.2504 59.1718L44.261 59.1839L44.2717 59.196L44.2823 59.2081L44.293 59.2202L44.3037 59.2323L44.3144 59.2444L44.3251 59.2565L44.3358 59.2686L44.3465 59.2808L44.3572 59.2929L44.3679 59.3051L44.3786 59.3172L44.3894 59.3294L44.4001 59.3416L44.4108 59.3538L44.4216 59.3659L44.4323 59.3781L44.4431 59.3903L44.4538 59.4025L44.4646 59.4147L44.4754 59.4269L44.4861 59.4392L44.4969 59.4514L44.5077 59.4636L44.5185 59.4758L44.5293 59.4881L44.5401 59.5003L44.5509 59.5126L44.5617 59.5248L44.5725 59.5371L44.5833 59.5493L44.5941 59.5616L44.6049 59.5738L44.6158 59.5861L44.6266 59.5984L44.6374 59.6107L44.6482 59.6229L44.6591 59.6352L44.6699 59.6475L44.6807 59.6598L44.6916 59.6721L44.7024 59.6844L44.7133 59.6967L44.7241 59.709L44.735 59.7213L44.7458 59.7336L44.7567 59.7459L44.7675 59.7582L44.7784 59.7705L44.7892 59.7828L44.8001 59.7951L44.811 59.8075L44.8218 59.8198L44.8327 59.8321L44.8435 59.8444L44.8544 59.8567L44.8653 59.869L44.8761 59.8814L44.887 59.8937L44.8979 59.906L44.9087 59.9183L44.9196 59.9307L44.9305 59.943L44.9413 59.9553L44.9522 59.9676L44.9631 59.9799L44.9739 59.9923L44.9848 60.0046L44.9957 60.0169L45.0065 60.0292L45.0174 60.0415L45.0283 60.0539L45.0391 60.0662L45.05 60.0785L45.0608 60.0908L45.0717 60.1031L45.0825 60.1154L45.0934 60.1277L45.1043 60.14L45.1151 60.1523L45.126 60.1646L45.1368 60.1769L45.1476 60.1892L45.1585 60.2015L45.1693 60.2138L45.1802 60.2261L45.191 60.2384L45.2018 60.2507L45.2127 60.2629L45.2235 60.2752L45.2343 60.2875L45.2451 60.2997L45.2559 60.312L45.2667 60.3243L45.2776 60.3365L45.2884 60.3488L45.2992 60.361L45.31 60.3733L45.3208 60.3855L45.3315 60.3977L45.3423 60.41L45.3531 60.4222L45.3639 60.4344L45.3747 60.4466L45.3854 60.4588L45.3962 60.471L45.4069 60.4832L45.4177 60.4954L45.4284 60.5076L45.4392 60.5198L45.4499 60.532L45.4606 60.5441L45.4714 60.5563L45.4821 60.5684L45.4928 60.5806L45.5035 60.5927L45.5142 60.6049L45.5249 60.617L45.5356 60.6291L45.5463 60.6412L45.557 60.6533L45.5676 60.6654L45.5783 60.6775L45.5889 60.6896L45.5996 60.7017L45.6102 60.7138L45.6209 60.7258L45.6315 60.7379L45.6421 60.7499L45.6527 60.7619L45.6633 60.774L45.6739 60.786L45.6845 60.798L45.6951 60.81L45.6996 60.815L45.704 60.8201L45.7085 60.8252L45.713 60.8303L45.7175 60.8354L45.722 60.8405L45.7266 60.8457L45.7312 60.8509L45.7357 60.856L45.7403 60.8613L45.7449 60.8665L45.7496 60.8717L45.7542 60.877L45.7588 60.8823L45.7635 60.8876L45.7682 60.8929L45.7729 60.8982L45.7776 60.9036L45.7824 60.9089L45.7871 60.9143L45.7919 60.9197L45.7966 60.9251L45.8014 60.9306L45.8062 60.936L45.8111 60.9415L45.8159 60.947L45.8208 60.9525L45.8256 60.958L45.8305 60.9635L45.8354 60.9691L45.8403 60.9746L45.8452 60.9802L45.8502 60.9858L45.8551 60.9914L45.8601 60.9971L45.8651 61.0027L45.8701 61.0084L45.8751 61.0141L45.8801 61.0198L45.8852 61.0255L45.8902 61.0312L45.8953 61.037L45.9004 61.0427L45.9055 61.0485L45.9106 61.0543L45.9157 61.0601L45.9209 61.066L45.926 61.0718L45.9312 61.0777L45.9364 61.0835L45.9416 61.0894L45.9468 61.0953L45.952 61.1013L45.9572 61.1072L45.9625 61.1132L45.9677 61.1191L45.973 61.1251L45.9783 61.1311L45.9836 61.1371L45.9889 61.1431L45.9943 61.1492L45.9996 61.1552L46.005 61.1613L46.0103 61.1674L46.0157 61.1735L46.0211 61.1796L46.0265 61.1858L46.0319 61.1919L46.0374 61.1981L46.0428 61.2042L46.0483 61.2104L46.0537 61.2166L46.0592 61.2229L46.0647 61.2291L46.0702 61.2353L46.0758 61.2416L46.0813 61.2479L46.0868 61.2542L46.0924 61.2605L46.098 61.2668L46.1036 61.2731L46.1091 61.2795L46.1148 61.2858L46.1204 61.2922L46.126 61.2986L46.1317 61.305L46.1373 61.3114L46.143 61.3178L46.1487 61.3243L46.1544 61.3307L46.1601 61.3372L46.1658 61.3437L46.1715 61.3502L46.1772 61.3567L46.183 61.3632L46.1888 61.3697L46.1945 61.3763L46.2003 61.3828L46.2061 61.3894L46.2119 61.396L46.2177 61.4026L46.2236 61.4092L46.2294 61.4158L46.2353 61.4225L46.2411 61.4291L46.247 61.4358L46.2529 61.4424L46.2588 61.4491L46.2647 61.4558L46.2706 61.4625L46.2765 61.4693L46.2825 61.476L46.2884 61.4827L46.2944 61.4895L46.3004 61.4963L46.3063 61.5031L46.3123 61.5099L46.3183 61.5167L46.3244 61.5235L46.3304 61.5303L46.3364 61.5372L46.3425 61.544L46.3485 61.5509L46.3546 61.5578L46.3606 61.5646L46.3667 61.5715L46.3728 61.5785L46.3789 61.5854L46.3851 61.5923L46.3912 61.5993L46.3973 61.6062L46.4035 61.6132L46.4096 61.6202L46.4158 61.6271L46.4219 61.6341L46.4281 61.6412L46.4343 61.6482L46.4405 61.6552L46.4467 61.6623L46.453 61.6693L46.4592 61.6764L46.4654 61.6835L46.4717 61.6905L46.4779 61.6976L46.4842 61.7047L46.4905 61.7119L46.4968 61.719L46.5031 61.7261L46.5094 61.7333L46.5157 61.7404L46.522 61.7476L46.5283 61.7548L46.5347 61.762L46.541 61.7692L46.5474 61.7764L46.5537 61.7836L46.5601 61.7908L46.5665 61.798L46.5729 61.8053L46.5793 61.8125L46.5857 61.8198L46.5921 61.8271L46.5985 61.8344L46.6049 61.8417L46.6114 61.849L46.6178 61.8563L46.6243 61.8636L46.6308 61.8709L46.6372 61.8783L46.6437 61.8856L46.6502 61.893L46.6567 61.9003L46.6632 61.9077L46.6697 61.9151L46.6762 61.9225L46.6827 61.9299L46.6893 61.9373L46.6958 61.9447L46.7024 61.9521L46.7089 61.9596L46.7155 61.967L46.7221 61.9744L46.7286 61.9819L46.7352 61.9894L46.7418 61.9968L46.7484 62.0043L46.755 62.0118L46.7616 62.0193L46.7683 62.0268L46.7749 62.0343L46.7815 62.0419L46.7882 62.0494L46.7948 62.0569L46.8015 62.0645L46.8081 62.072L46.8148 62.0796L46.8215 62.0872L46.8281 62.0947L46.8348 62.1023L46.8415 62.1099L46.8482 62.1175L46.8549 62.1251L46.8617 62.1327L46.8684 62.1403L46.8751 62.148L46.8818 62.1556L46.8886 62.1632L46.8953 62.1709L46.9021 62.1785L46.9088 62.1862L46.9156 62.1939L46.9223 62.2015L46.9291 62.2092L46.9359 62.2169L46.9427 62.2246L46.9495 62.2323L46.9563 62.24L46.9631 62.2477L46.9699 62.2554L46.9767 62.2632L46.9835 62.2709L46.9903 62.2786L46.9972 62.2864L47.004 62.2941L47.0108 62.3019L47.0177 62.3097L47.0245 62.3174L47.0314 62.3252L47.0383 62.333L47.0451 62.3408L47.052 62.3485L47.0589 62.3563L47.0657 62.3641L47.0726 62.3719L47.0795 62.3798L47.0864 62.3876L47.0933 62.3954L47.1002 62.4032L47.1071 62.4111L47.114 62.4189L47.1209 62.4267L47.1279 62.4346L47.1348 62.4424L47.1417 62.4503L47.1487 62.4582L47.1556 62.466L47.1625 62.4739L47.1695 62.4818L47.1764 62.4897L47.1834 62.4975L47.1903 62.5054L47.1973 62.5133L47.2043 62.5212L47.2112 62.5291L47.2182 62.537L47.2252 62.5449L47.2322 62.5529L47.2392 62.5608L47.2461 62.5687L47.2531 62.5766L47.2601 62.5846L47.2671 62.5925L47.2741 62.6004L47.2811 62.6084L47.2882 62.6163L47.2952 62.6243L47.3022 62.6322L47.3092 62.6402L47.3162 62.6482L47.3232 62.6561L47.3303 62.6641L47.3373 62.6721L47.3443 62.68L47.3514 62.688L47.3584 62.696L47.3654 62.704L47.3725 62.712L47.3795 62.72L47.3866 62.7279L47.3936 62.7359L47.4007 62.7439L47.4078 62.7519L47.4148 62.7599L47.4219 62.768L47.4289 62.776L47.436 62.784L47.4431 62.792L47.4501 62.8L47.4572 62.808L47.4643 62.8161L47.4714 62.8241L47.4784 62.8321L47.4855 62.8401L47.4926 62.8482L47.4997 62.8562L47.5068 62.8642L47.5139 62.8723L47.521 62.8803L47.528 62.8883L47.5351 62.8964L47.5422 62.9044L47.5493 62.9125L47.5564 62.9205L47.5635 62.9286L47.5706 62.9366L47.5777 62.9447L47.5848 62.9527L47.5919 62.9608L47.599 62.9688L47.6061 62.9769L47.6132 62.985L47.6204 62.993L47.6275 63.0011L47.6346 63.0091L47.6417 63.0172L47.6488 63.0253L47.6559 63.0333L47.663 63.0414L47.6701 63.0495L47.6772 63.0575L47.6844 63.0656L47.6915 63.0736L47.6986 63.0817L47.7057 63.0898L47.7128 63.0979L47.7199 63.1059L47.727 63.114L47.7342 63.1221L47.7413 63.1301L47.7484 63.1382L47.7555 63.1463L47.7626 63.1543L47.7697 63.1624L47.7769 63.1705L47.784 63.1785L47.7911 63.1866L47.7982 63.1947L47.8053 63.2028L47.8124 63.2108L47.8196 63.2189L47.8267 63.227L47.8338 63.235L47.8409 63.2431L47.848 63.2512L47.8551 63.2592L47.8622 63.2673L47.8694 63.2753L47.8765 63.2834L47.8836 63.2915L47.8907 63.2995L47.8978 63.3076L47.9049 63.3157L47.912 63.3237L47.9191 63.3318L47.9262 63.3398L47.9333 63.3479L47.9404 63.3559L47.9475 63.364L47.9546 63.372L47.9617 63.3801L47.9688 63.3881L47.9759 63.3962L47.983 63.4042L47.9901 63.4122L47.9972 63.4203L48.0043 63.4283L48.0113 63.4364L48.0184 63.4444L48.0255 63.4524L48.0326 63.4604L48.0397 63.4685L48.0467 63.4765L48.0538 63.4845L48.0609 63.4925L48.068 63.5006L48.075 63.5086L48.0821 63.5166L48.0892 63.5246L48.0962 63.5326L48.1033 63.5406L48.1103 63.5486L48.1174 63.5566L48.1244 63.5646L48.1315 63.5726L48.1385 63.5806L48.1456 63.5886L48.1526 63.5966L48.1597 63.6045L48.1667 63.6125L48.1737 63.6205L48.1808 63.6285L48.1878 63.6364L48.1948 63.6444L48.2018 63.6524L48.2089 63.6603L48.2159 63.6683L48.2229 63.6762L48.2299 63.6842L48.2369 63.6921L48.2439 63.7001L48.2509 63.708L48.2579 63.7159L48.2649 63.7239L48.2719 63.7318L48.2789 63.7397L48.2859 63.7476L48.2928 63.7555L48.2998 63.7634L48.3068 63.7713L48.3137 63.7792L48.3207 63.7871L48.3277 63.795L48.3346 63.8029L48.3416 63.8108L48.3485 63.8187L48.3555 63.8265L48.3624 63.8344L48.3693 63.8423L48.3763 63.8501L48.3832 63.858L48.3901 63.8658L48.397 63.8737L48.4039 63.8815L48.4108 63.8894L48.4178 63.8972L48.4247 63.905L48.4315 63.9128L48.4384 63.9206L48.4453 63.9284L48.4522 63.9362L48.4591 63.944L48.4659 63.9518L48.4728 63.9596L48.4797 63.9674L48.4865 63.9752L48.4934 63.9829L48.5002 63.9907L48.5071 63.9984L48.5139 64.0062L48.5207 64.0139L48.5276 64.0217L48.5344 64.0294L48.5412 64.0371L48.548 64.0449L48.5548 64.0526L48.5616 64.0603L48.5684 64.068L48.5752 64.0757L48.582 64.0834L48.5887 64.091L48.5955 64.0987L48.6023 64.1064L48.609 64.1141L48.6158 64.1217L48.6225 64.1294L48.6293 64.137L48.636 64.1446L48.6427 64.1523L48.6494 64.1599L48.6561 64.1675L48.6629 64.1751L48.6696 64.1827L48.6763 64.1903L48.6829 64.1979L48.6896 64.2054L48.6963 64.213L48.703 64.2206L48.7096 64.2281L48.7163 64.2357L48.7229 64.2432L48.7296 64.2508L48.7362 64.2583L48.7428 64.2658L48.7495 64.2733L48.7561 64.2808L48.7627 64.2883L48.7693 64.2958L48.7759 64.3033L48.7825 64.3107L48.789 64.3182L48.7956 64.3256L48.8022 64.3331L48.8087 64.3405L48.8153 64.3479L48.8218 64.3554L48.8284 64.3628L48.8349 64.3702L48.8414 64.3776L48.8479 64.3849L48.8544 64.3923L48.8609 64.3997L48.8674 64.407L48.8739 64.4144L48.8804 64.4217L48.8868 64.4291L48.8933 64.4364L48.8997 64.4437L48.9062 64.451L48.9126 64.4583L48.919 64.4656L48.9254 64.4729L48.9319 64.4801L48.9383 64.4874L48.9446 64.4946L48.951 64.5019L48.9574 64.5091L48.9638 64.5163L48.9701 64.5235L48.9765 64.5307L48.9828 64.5379L48.9891 64.5451L48.9955 64.5522C49.3605 64.9661 49.3213 65.5978 48.9071 65.9639L44.4237 69.9256C44.0099 70.2913 43.3782 70.252 43.0129 69.8378L27.8281 52.6198Z" fill="white" stroke="#FE5F75" stroke-width="2" stroke-linecap="round"/>
<path d="M6.55661 19.4487L5.54551 24.3391" stroke="#B8C0CC" stroke-width="0.5" stroke-linecap="round"/>
<path d="M7.87693 20.946L6.86583 25.8364" stroke="#B8C0CC" stroke-width="0.5" stroke-linecap="round"/>
<path d="M9.19821 22.4438L8.18712 27.3342" stroke="#B8C0CC" stroke-width="0.5" stroke-linecap="round"/>
<path d="M10.5195 23.9414L9.50841 28.8318" stroke="#B8C0CC" stroke-width="0.5" stroke-linecap="round"/>
<path d="M11.8408 25.4392L10.8297 30.3296" stroke="#B8C0CC" stroke-width="0.5" stroke-linecap="round"/>
<path d="M13.1611 26.937L12.15 31.8274" stroke="#B8C0CC" stroke-width="0.5" stroke-linecap="round"/>
<path d="M14.4814 28.4346L13.4703 33.3249" stroke="#B8C0CC" stroke-width="0.5" stroke-linecap="round"/>
<path d="M15.8027 29.9321L14.7916 34.8225" stroke="#B8C0CC" stroke-width="0.5" stroke-linecap="round"/>
<path d="M17.123 31.4297L16.1119 36.32" stroke="#B8C0CC" stroke-width="0.5" stroke-linecap="round"/>
<path d="M18.4443 32.9272L17.4332 37.8176" stroke="#B8C0CC" stroke-width="0.5" stroke-linecap="round"/>
<path d="M19.7636 34.425L18.7525 39.3154" stroke="#B8C0CC" stroke-width="0.5" stroke-linecap="round"/>
<path d="M21.0849 35.9226L20.0738 40.813" stroke="#B8C0CC" stroke-width="0.5" stroke-linecap="round"/>
<path d="M22.4072 37.4201L21.3961 42.3105" stroke="#B8C0CC" stroke-width="0.5" stroke-linecap="round"/>
<path d="M23.7275 38.9179L22.7164 43.8083" stroke="#B8C0CC" stroke-width="0.5" stroke-linecap="round"/>
<path d="M25.0488 40.4155L24.0377 45.3059" stroke="#B8C0CC" stroke-width="0.5" stroke-linecap="round"/>
<path d="M26.3681 41.9131L25.357 46.8034" stroke="#B8C0CC" stroke-width="0.5" stroke-linecap="round"/>
<path d="M27.6894 43.4109L26.6783 48.3012" stroke="#B8C0CC" stroke-width="0.5" stroke-linecap="round"/>
<path d="M29.0107 44.9084L27.9996 49.7988" stroke="#B8C0CC" stroke-width="0.5" stroke-linecap="round"/>
<path d="M14 15V18M14 21V18M14 18H11H17" stroke="#B8C0CC" stroke-width="2"/>
<path opacity="0.7" d="M6 7V10M6 13V10M6 10H3H9" stroke="#B8C0CC" stroke-width="2"/>
<path opacity="0.4" d="M17 0V3M17 6V3M17 3H14H20" stroke="#B8C0CC" stroke-width="2"/>
</svg>
