<svg width="74" height="74" viewBox="0 0 74 74" fill="none" xmlns="http://www.w3.org/2000/svg">
<path d="M61.6497 35.0685L54.6776 32.2303C53.1831 31.622 51.471 32.2422 50.7118 33.6671L49.5468 35.8536C49.1656 36.5688 49.0752 37.4038 49.2943 38.1842L49.8557 40.1837C50.0143 40.7489 50.0714 41.3378 50.0241 41.923L49.6764 46.2291C49.5913 47.2838 48.8284 48.1593 47.7961 48.3873L28.9066 52.5585C30.201 50.5631 30.9533 48.1828 30.9533 45.6264C30.9533 42.5172 29.8406 39.6683 27.9927 37.4558C31.0463 34.641 32.9739 30.6211 33.0203 26.1494C33.1098 17.5295 26.0944 10.4126 17.4822 10.3914C9.48497 10.3715 2.88771 16.384 1.97404 24.1382C1.97404 24.1382 -4.89726 52.8221 17.8607 71.4407C19.7768 73.0084 22.3884 73.4224 24.7059 72.5536L26.6328 71.8313C32.6682 69.5688 38.5303 66.8761 44.1744 63.7752C47.9292 61.7123 51.4415 59.235 54.6528 56.3981L55.256 55.8653C57.2297 54.1217 58.8962 52.0582 60.1858 49.7611C61.4797 47.4564 62.3757 44.9497 62.836 42.3464L63.4167 39.0622C63.998 37.472 63.2169 35.7064 61.6497 35.0685Z" fill="white" stroke="#B8C0CC" stroke-width="2"/>
<path d="M13.6426 46.1764V52.512C13.6426 52.649 13.6695 52.7845 13.7219 52.911L15.0329 56.0767C15.3879 56.934 16.6011 56.934 16.9562 56.0767L18.2672 52.911C18.3195 52.7845 18.3465 52.649 18.3465 52.512V46.1764C18.3465 45.601 17.8804 45.1345 17.3055 45.1345H14.6835C14.1086 45.1345 13.6426 45.601 13.6426 46.1764Z" fill="white" stroke="#B8C0CC"/>
<path d="M18.291 27.7314V22.832C18.291 21.5625 17.2628 20.5334 15.9946 20.5334C14.7263 20.5334 13.6982 21.5626 13.6982 22.832V27.7314H18.291Z" fill="white" stroke="#B8C0CC"/>
<path d="M19.767 33.2842C18.3157 33.2842 16.9931 33.8343 15.995 34.7375C14.9972 33.8344 13.6744 33.2842 12.2231 33.2842C9.11575 33.2842 6.59668 35.8056 6.59668 38.9159C6.59668 39.7958 6.79824 40.6285 7.15778 41.3705C8.069 43.251 12.1209 48.0071 15.995 50.2469C19.3798 47.9526 23.9892 43.2047 24.8798 41.2699C25.2095 40.5537 25.3934 39.7562 25.3934 38.9159C25.3934 35.8056 22.8743 33.2842 19.767 33.2842Z" fill="white" stroke="#FE5F75" stroke-width="2"/>
<path d="M18.3466 36.2184V30.2447L16.0163 28.9539L13.6426 30.2447V36.2184H18.3466Z" fill="white" stroke="#B8C0CC"/>
<path d="M19.1574 39.2527C18.7852 39.2527 18.4304 39.0365 18.2713 38.6736C17.875 37.7701 16.9822 37.1864 15.9969 37.1864C15.0405 37.1864 14.1587 37.7461 13.7503 38.6124C13.5223 39.0959 12.9456 39.3026 12.4628 39.0747C11.9797 38.8465 11.773 38.2695 12.001 37.786C12.7274 36.2456 14.2959 35.2502 15.997 35.2502C17.7498 35.2502 19.3378 36.2884 20.0426 37.8952C20.2573 38.3847 20.0348 38.9559 19.5457 39.1708C19.4192 39.2264 19.2872 39.2527 19.1574 39.2527Z" fill="white" stroke="#B8C0CC" stroke-width="2"/>
<path d="M19.9242 30.2447H12.0645C11.3833 30.2447 10.8311 29.692 10.8311 29.01V27.9175C10.8311 27.2356 11.3833 26.6829 12.0645 26.6829H19.9242C20.6055 26.6829 21.1577 27.2356 21.1577 27.9175V29.01C21.1577 29.6918 20.6055 30.2447 19.9242 30.2447Z" fill="white" stroke="#B8C0CC"/>
<path d="M21.6895 33.571L26.8544 28.4836" stroke="#B8C0CC" stroke-linecap="round"/>
<mask id="path-9-inside-1" fill="white">
<path fill-rule="evenodd" clip-rule="evenodd" d="M24.5924 24.898C24.199 25.2856 24.199 25.9139 24.5924 26.3015L24.8644 26.5694L24.1002 27.322C23.7839 27.6336 23.7219 28.1007 23.9141 28.4733L23.1403 29.2355C22.7468 29.623 22.7468 30.2514 23.1403 30.639L24.6668 32.1426C25.0603 32.5301 25.6983 32.5301 26.0917 32.1426L26.8652 31.3807C27.2437 31.5709 27.7187 31.5101 28.0354 31.1981L28.7996 30.4455L29.0704 30.7122C29.4638 31.0998 30.1018 31.0998 30.4952 30.7122L49.7522 11.7444C50.1456 11.3568 50.1456 10.7284 49.7522 10.3409L49.4814 10.0742L50.2469 9.32011C50.6404 8.93255 50.6404 8.30419 50.2469 7.91663L47.7366 5.44398C47.3431 5.05642 46.7052 5.05642 46.3117 5.44398L45.5462 6.19803L45.2742 5.93017C44.8808 5.54261 44.2428 5.54261 43.8493 5.93017L24.5924 24.898Z"/>
</mask>
<path fill-rule="evenodd" clip-rule="evenodd" d="M24.5924 24.898C24.199 25.2856 24.199 25.9139 24.5924 26.3015L24.8644 26.5694L24.1002 27.322C23.7839 27.6336 23.7219 28.1007 23.9141 28.4733L23.1403 29.2355C22.7468 29.623 22.7468 30.2514 23.1403 30.639L24.6668 32.1426C25.0603 32.5301 25.6983 32.5301 26.0917 32.1426L26.8652 31.3807C27.2437 31.5709 27.7187 31.5101 28.0354 31.1981L28.7996 30.4455L29.0704 30.7122C29.4638 31.0998 30.1018 31.0998 30.4952 30.7122L49.7522 11.7444C50.1456 11.3568 50.1456 10.7284 49.7522 10.3409L49.4814 10.0742L50.2469 9.32011C50.6404 8.93255 50.6404 8.30419 50.2469 7.91663L47.7366 5.44398C47.3431 5.05642 46.7052 5.05642 46.3117 5.44398L45.5462 6.19803L45.2742 5.93017C44.8808 5.54261 44.2428 5.54261 43.8493 5.93017L24.5924 24.898Z" fill="white"/>
<path d="M24.8644 26.5694L26.2892 27.9728L27.7141 26.5694L26.2892 25.1659L24.8644 26.5694ZM23.9141 28.4733L25.339 29.8768L26.373 28.8582L25.7105 27.5741L23.9141 28.4733ZM26.0917 32.1426L27.5166 33.5461L26.0917 32.1426ZM26.8652 31.3807L27.781 29.6127L26.4761 28.957L25.4403 29.9773L26.8652 31.3807ZM28.0354 31.1981L29.4603 32.6016L28.0354 31.1981ZM28.7996 30.4455L30.2244 29.042L28.7996 27.6385L27.3747 29.042L28.7996 30.4455ZM49.7522 10.3409L51.177 8.93741L49.7522 10.3409ZM49.4814 10.0742L48.0565 8.67068L46.6316 10.0742L48.0565 11.4776L49.4814 10.0742ZM50.2469 9.32011L51.6718 10.7236L50.2469 9.32011ZM50.2469 7.91663L51.6718 6.51315L50.2469 7.91663ZM47.7366 5.44398L46.3117 6.84746L47.7366 5.44398ZM45.5462 6.19803L44.1213 7.60151L45.5462 9.00499L46.971 7.60151L45.5462 6.19803ZM26.0173 24.898C26.4108 25.2856 26.4108 25.9139 26.0173 26.3015L23.1676 23.4945C21.9872 24.6572 21.9872 26.5423 23.1676 27.705L26.0173 24.898ZM26.2892 25.1659L26.0173 24.898L23.1676 27.705L23.4395 27.9728L26.2892 25.1659ZM25.5251 28.7255L26.2892 27.9728L23.4395 25.1659L22.6754 25.9185L25.5251 28.7255ZM25.7105 27.5741C25.9018 27.9448 25.8436 28.4118 25.5251 28.7255L22.6754 25.9185C21.7243 26.8553 21.542 28.2567 22.1177 29.3725L25.7105 27.5741ZM24.5652 30.639L25.339 29.8768L22.4893 27.0698L21.7154 27.832L24.5652 30.639ZM24.5652 29.2355C24.9586 29.623 24.9587 30.2514 24.5652 30.639L21.7154 27.832C20.535 28.9947 20.535 30.8798 21.7154 32.0424L24.5652 29.2355ZM26.0917 30.7391L24.5652 29.2355L21.7154 32.0424L23.242 33.5461L26.0917 30.7391ZM24.6668 30.7391C25.0603 30.3515 25.6983 30.3515 26.0917 30.7391L23.242 33.5461C24.4224 34.7087 26.3362 34.7087 27.5166 33.5461L24.6668 30.7391ZM25.4403 29.9773L24.6668 30.7391L27.5166 33.5461L28.29 32.7842L25.4403 29.9773ZM26.6106 29.7947C26.9294 29.4806 27.4044 29.4235 27.781 29.6127L25.9494 33.1487C27.0829 33.7184 28.508 33.5396 29.4603 32.6016L26.6106 29.7947ZM27.3747 29.042L26.6106 29.7947L29.4603 32.6016L30.2244 31.849L27.3747 29.042ZM30.4952 29.3087L30.2244 29.042L27.3747 31.849L27.6455 32.1157L30.4952 29.3087ZM29.0704 29.3087C29.4638 28.9212 30.1018 28.9212 30.4952 29.3087L27.6455 32.1157C28.8259 33.2784 30.7397 33.2784 31.9201 32.1157L29.0704 29.3087ZM48.3273 10.3409L29.0704 29.3087L31.9201 32.1157L51.177 13.1478L48.3273 10.3409ZM48.3273 11.7444C47.9338 11.3568 47.9338 10.7284 48.3273 10.3409L51.177 13.1478C52.3574 11.9852 52.3574 10.1001 51.177 8.93741L48.3273 11.7444ZM48.0565 11.4776L48.3273 11.7444L51.177 8.93741L50.9062 8.67068L48.0565 11.4776ZM48.822 7.91663L48.0565 8.67068L50.9062 11.4776L51.6718 10.7236L48.822 7.91663ZM48.822 9.32011C48.4286 8.93255 48.4286 8.30419 48.822 7.91663L51.6718 10.7236C52.8522 9.56091 52.8522 7.67583 51.6718 6.51315L48.822 9.32011ZM46.3117 6.84746L48.822 9.32011L51.6718 6.51315L49.1614 4.0405L46.3117 6.84746ZM47.7366 6.84746C47.3431 7.23502 46.7052 7.23502 46.3117 6.84746L49.1614 4.0405C47.981 2.87782 46.0672 2.87782 44.8868 4.0405L47.7366 6.84746ZM46.971 7.60151L47.7366 6.84746L44.8868 4.0405L44.1213 4.79455L46.971 7.60151ZM43.8493 7.33365L44.1213 7.60151L46.971 4.79455L46.6991 4.52669L43.8493 7.33365ZM45.2742 7.33365C44.8808 7.72121 44.2428 7.72121 43.8493 7.33365L46.6991 4.52669C45.5187 3.36401 43.6049 3.36401 42.4245 4.52669L45.2742 7.33365ZM26.0173 26.3015L45.2742 7.33365L42.4245 4.52669L23.1676 23.4945L26.0173 26.3015Z" fill="#B8C0CC" mask="url(#path-9-inside-1)"/>
<path d="M49 7.16149L53.3929 3.40225C55.2044 1.85197 57.5103 1 59.8947 1H63C68.5228 1 73 5.47715 73 11V12.6151C73 15.0195 71.9483 17.3037 70.1215 18.8671L68.2435 20.4741C63.0811 24.8919 66.2053 33.3478 73 33.3478V33.3478" stroke="#FE5F75"/>
</svg>
