<svg width="73" height="74" viewBox="0 0 73 74" fill="none" xmlns="http://www.w3.org/2000/svg">
<path d="M66 65V65C66 69.4183 62.4183 73 58 73H49" stroke="#B8C0CC" stroke-linecap="round"/>
<mask id="path-2-inside-1" fill="white">
<rect x="62" y="59" width="8" height="7" rx="1"/>
</mask>
<rect x="62" y="59" width="8" height="7" rx="1" fill="white" stroke="#B8C0CC" stroke-width="4" mask="url(#path-2-inside-1)"/>
<path d="M63 27C63 26.4477 63.4477 26 64 26H68C68.5523 26 69 26.4477 69 27V31.8153C69 36.0047 69.5138 40.1783 70.5299 44.2425C71.5063 48.1482 72 52.1588 72 56.1847V61C72 61.5523 71.5523 62 71 62H61C60.4477 62 60 61.5523 60 61V56.1847C60 52.1588 60.4937 48.1482 61.4701 44.2425C62.4862 40.1783 63 36.0047 63 31.8153V27Z" fill="white" stroke="#FE5F75" stroke-width="2"/>
<path d="M69 59V54" stroke="#B8C0CC" stroke-width="2" stroke-linecap="round"/>
<path d="M38.8358 62.9715C32.9453 63.3711 30.4909 59.4746 30 57.4765C30.6545 42.6566 32.6507 13.2167 35.3997 14.0159C38.8358 15.015 42.272 19.0114 42.272 21.5091C42.272 23.5073 44.2355 25.006 45.2173 25.5055L55.5257 27.0041V33.4982L58.471 34.9969L58.9619 37.9942L60.4345 39.4928L62.398 43.4892C64.3615 44.8213 67.1105 48.7844 62.398 53.9796C56.5075 60.4737 46.199 62.4719 38.8358 62.9715Z" fill="white"/>
<path d="M27.1882 11.5854C30.5457 11.9214 38.1671 14.0049 41.7932 19.6504C42.8004 22.1707 41.2896 24.187 45.8222 25.6992C50.3547 27.2114 54.1069 25.9263 55.3909 27.2114C56.3982 28.2195 54.8873 32.252 55.8946 33.7642C56.9018 35.2764 58.9163 33.7642 58.9163 35.7805C58.9163 36.8345 59.4199 37.6663 58.9163 38.8049M55.3909 42.8374C57.0734 41.1535 58.4565 39.8443 58.9163 38.8049M58.9163 38.8049C59.5878 38.8049 60.9307 39.0065 60.9307 39.813C60.9307 40.8211 60.9307 41.8293 61.938 42.8374C62.9452 43.8455 64.9597 45.3577 64.9597 47.8781C64.9597 50.3984 65.9669 52.4146 57.909 57.4553C49.8511 62.4959 40.2823 63 37.2606 63C34.2389 63 29.2027 61.4878 28.1955 52.4146C27.1882 43.3415 27.6918 25.6992 25.6774 19.1463C23.6629 12.5935 19.1303 3.52033 7.04344 3.52033M7.04344 3.52033C5.02896 2.5122 2.00724 1 1 1M7.04344 3.52033C9.39366 5.20054 14.2956 10.2748 15.1014 17.1301C16.1086 25.6992 15.1014 36.2846 14.0941 46.8699C13.0869 57.4553 15.605 60.9837 19.6339 63" stroke="#B8C0CC" stroke-width="2" stroke-linecap="round"/>
<circle cx="43" cy="43" r="6" fill="#FE5F75" fill-opacity="0.1"/>
<path d="M39.2753 25.1951C38.1002 25.1951 35.6635 25.7856 34.2391 27.2113C32.7282 28.7235 32.2246 30.7398 32.2246 32.756M41.2898 31.2438C40.7861 32.084 39.1746 34.0666 36.7572 35.2764" stroke="#B8C0CC" stroke-width="2" stroke-linecap="round"/>
</svg>
