<svg width="24" height="24" viewBox="0 0 24 24" fill="none" xmlns="http://www.w3.org/2000/svg">
<path d="M24 24V15.4273C24 11.2336 23.0437 8.0036 17.8515 8.0036C16.8769 7.96897 15.9106 8.1846 15.0555 8.62752C14.2004 9.07044 13.4886 9.72407 12.9959 10.5188H12.923V8.39544H8V23.9987H13.1263V16.2732C13.1263 14.2385 13.5343 12.2714 16.204 12.2714C18.8331 12.2714 18.8681 14.5933 18.8681 16.4029V24H24Z" fill="#414A4D"/>
<path d="M0 7.97656H4.97099V24.0001H0V7.97656Z" fill="#414A4D"/>
<path d="M2.90889 3.17741e-05C2.3351 -0.00265581 1.77345 0.165208 1.29524 0.482315C0.817027 0.799422 0.443821 1.25147 0.222997 1.78107C0.00217382 2.31068 -0.0563084 2.89395 0.0549748 3.45685C0.166258 4.01976 0.442288 4.5369 0.848024 4.94264C1.25376 5.34837 1.7709 5.6244 2.33381 5.73568C2.89671 5.84697 3.47998 5.78849 4.00959 5.56766C4.53919 5.34684 4.99124 4.97363 5.30834 4.49542C5.62545 4.01721 5.79331 3.45556 5.79063 2.88177C5.79027 2.11759 5.48654 1.38482 4.94619 0.844471C4.40584 0.304118 3.67306 0.000391978 2.90889 3.17741e-05Z" fill="#414A4D"/>
</svg>
