<svg width="74" height="74" viewBox="0 0 74 74" fill="none" xmlns="http://www.w3.org/2000/svg">
<path d="M2 73.0001H38.271C38.8232 73.0001 39.271 72.5524 39.271 72.0001V15.7507C39.271 15.1343 38.7186 14.6647 38.1102 14.7638L1.83925 20.671C1.35539 20.7498 1 21.1678 1 21.658V72.0001C1 72.5524 1.44771 73.0001 2 73.0001Z" stroke="#B8C0CC" stroke-width="2" stroke-miterlimit="10"/>
<path d="M20 17.5346V10" stroke="#B8C0CC" stroke-width="2" stroke-miterlimit="10"/>
<path d="M24 9.49946C24 7.01929 20.805 1 20 1C19.195 1 16 7.01929 16 9.49946C16 11.9796 17.7833 14 20 14C22.2167 14 24 11.9796 24 9.49946Z" fill="white" stroke="#FE5F75" stroke-width="2" stroke-miterlimit="10"/>
<path d="M64.137 61H37.863C32.968 61 29 56.9707 29 52C29 47.0293 32.968 43 37.863 43H64.137C69.032 43 73 47.0293 73 52C73 56.9707 69.032 61 64.137 61Z" fill="white" stroke="#B8C0CC" stroke-width="2" stroke-miterlimit="10"/>
<path d="M57.2812 43C60.4345 43 63 45.9159 63 49.5C63 53.0841 60.4345 56 57.2812 56H44.1867H42.8683C41.2827 56 40 54.5421 40 52.7399C40 50.9377 41.2827 49.4797 42.8683 49.4797H51.3129" stroke="#B8C0CC" stroke-width="2" stroke-miterlimit="10"/>
<path d="M59.8384 43H41.1616C36.6575 43 33 39.639 33 35.5C33 31.361 36.6575 28 41.1616 28H59.8384C64.3425 28 68 31.361 68 35.5C68 39.639 64.3595 43 59.8384 43Z" fill="white" stroke="#B8C0CC" stroke-width="2" stroke-miterlimit="10"/>
<path d="M57.2812 28C60.4345 28 63 30.243 63 33C63 35.757 60.4345 38 57.2812 38H44.1867H42.8683C41.2827 38 40 36.8785 40 35.4922C40 34.1059 41.2827 32.9844 42.8683 32.9844H51.3129" stroke="#B8C0CC" stroke-width="2" stroke-miterlimit="10"/>
<path d="M69.143 67.8572V72C69.143 72.5523 68.6953 73 68.143 73H64.5082C64.1224 73 63.771 72.7781 63.6052 72.4298L61.4287 67.8572" stroke="#B8C0CC" stroke-width="2" stroke-miterlimit="10"/>
<path d="M33.1431 67.8572V72C33.1431 72.5523 33.5909 73 34.1431 73H37.778C38.1637 73 38.5151 72.7781 38.6809 72.4298L40.8574 67.8572" stroke="#B8C0CC" stroke-width="2" stroke-miterlimit="10"/>
<path d="M72.0004 61.4285H30.2861C29.7338 61.4285 29.2861 61.8762 29.2861 62.4285V66.857C29.2861 67.4093 29.7338 67.857 30.2861 67.857H72.0004C72.5527 67.857 73.0004 67.4093 73.0004 66.857V62.4285C73.0004 61.8762 72.5527 61.4285 72.0004 61.4285Z" fill="white" stroke="#FE5F75" stroke-width="2" stroke-miterlimit="10"/>
<path d="M6.93848 26.2886V34.7765" stroke="#B8C0CC" stroke-width="2" stroke-miterlimit="10" stroke-linecap="round"/>
</svg>
