<svg width="24" height="20" viewBox="0 0 24 20" fill="none" xmlns="http://www.w3.org/2000/svg">
<path d="M24 2.3719C23.0971 2.77584 22.1421 3.0443 21.1645 3.16902C22.1946 2.54248 22.9648 1.55024 23.3292 0.380313C22.3647 0.966689 21.3094 1.3796 20.2092 1.6012C19.5354 0.861223 18.6601 0.346348 17.697 0.123585C16.7339 -0.0991773 15.7278 -0.0195136 14.8095 0.352214C13.8912 0.723941 13.1033 1.37052 12.5483 2.20778C11.9934 3.04504 11.6971 4.03421 11.698 5.04656C11.6951 5.43318 11.7344 5.81892 11.815 6.19661C9.85726 6.09732 7.94196 5.57553 6.19431 4.66533C4.44665 3.75514 2.90598 2.47702 1.67298 0.914524C1.03873 2.02425 0.842078 3.34057 1.12326 4.59409C1.40445 5.84761 2.14221 6.94354 3.18556 7.65758C2.40618 7.63631 1.64324 7.42303 0.961171 7.03574V7.09096C0.962656 8.25584 1.35541 9.38463 2.07334 10.2874C2.79126 11.1902 3.79055 11.8118 4.90302 12.0477C4.48278 12.161 4.04974 12.2167 3.61522 12.2134C3.3009 12.2194 2.98687 12.1904 2.67863 12.1269C2.99659 13.1283 3.60941 14.004 4.43274 14.6334C5.25607 15.2629 6.24943 15.6152 7.2761 15.6419C5.53436 17.0384 3.38636 17.7958 1.17541 17.7932C0.782813 17.7997 0.390208 17.7804 0 17.7356C2.24977 19.2221 4.87133 20.0085 7.54771 19.9996C9.38979 20.0129 11.2161 19.6507 12.9205 18.9342C14.625 18.2177 16.1736 17.1611 17.4765 15.8257C18.7794 14.4904 19.8106 12.903 20.5103 11.1556C21.2099 9.40818 21.564 7.53568 21.552 5.64679C21.552 5.4235 21.545 5.20862 21.5344 4.99494C22.5051 4.28166 23.3406 3.39275 24 2.3719Z" fill="#414A4D"/>
</svg>
