<svg xmlns="http://www.w3.org/2000/svg" width="105.719" height="109.527" viewBox="0 0 105.719 109.527">
  <g id="Group_670" data-name="Group 670" transform="translate(-947.166 -1529.516)">
    <circle id="Ellipse_462" data-name="Ellipse 462" cx="52.86" cy="52.86" r="52.86" transform="translate(947.166 1529.516)" fill="#f0f4f7"/>
    <g id="Group_325" data-name="Group 325">
      <path id="Path_499" data-name="Path 499" d="M1024.2,1562.23c-3.381-6.336-9.285-7.98-14.793-7.98-12.393,0-18.069,8.63-19,18.169,0,.058-.254,2.279-3.687,25.825a13.753,13.753,0,0,1-3.869,8.161l-5.746,5.746a7.321,7.321,0,0,0,5.176,12.5h54.253a7.321,7.321,0,0,0,5.176-12.5l-5.747-5.746a13.467,13.467,0,0,1-3.868-8.161c-.361-2.947-.454-3.727-.454-3.727" fill="#fff" stroke="#b8c0cc" stroke-miterlimit="10" stroke-width="2"/>
      <path id="Path_500" data-name="Path 500" d="M991.413,1551.333a19.041,19.041,0,0,0-10.338,15.072c0,.044.1-.8-1.8,14.972" fill="none" stroke="#b8c0cc" stroke-linecap="round" stroke-miterlimit="10" stroke-width="2"/>
      <path id="Path_501" data-name="Path 501" d="M997.016,1625.625a12.4,12.4,0,0,0,24.795.042v-.042" fill="#fff" stroke="#b8c0cc" stroke-miterlimit="10" stroke-width="2"/>
      <circle id="Ellipse_163" data-name="Ellipse 163" cx="16.51" cy="16.51" r="16.51" transform="translate(1011.807 1562.236)" fill="#fff" stroke="#8860d0" stroke-miterlimit="10" stroke-width="2"/>
      <circle id="Ellipse_164" data-name="Ellipse 164" cx="8.168" cy="8.168" r="8.168" transform="translate(1020.148 1570.577)" fill="rgba(136,96,208,0.3)"/>
    </g>
  </g>
</svg>
