<svg xmlns="http://www.w3.org/2000/svg" xmlns:xlink="http://www.w3.org/1999/xlink" width="560.72" height="469.905" viewBox="0 0 560.72 469.905">
  <defs>
    <clipPath id="clip-path">
      <path id="Path_13" data-name="Path 13" d="M112.6,424.2c38.2,22.8,90.7-3,159.6,10.1,66.1,12.6,128.3,75.9,206.2-4.7,79.2-81.9,95.6-147.2,72.8-213.4S464.7,131,411.1,80.9c-31.3-29.2-43.9-52.4-92.2-70.6C274.3-6.6,111-23.9,50.4,145.2a438.981,438.981,0,0,0-15.9,55.1C32.4,210.4,1.2,220.8,0,230.1c-1.2,10,27.8,19,27.6,28.1C25.8,358.9,83.7,406.9,112.6,424.2Z"/>
    </clipPath>
  </defs>
  <g id="Group_707" transform="translate(-819.311 -281.924)">
    <g id="Path_937" opacity="0.1">
      <path id="Path_1" data-name="Path 1" d="M932,706.2c38.2,22.8,90.7-3,159.6,10.1,66.1,12.6,128.3,75.9,206.2-4.7,79.2-81.9,95.6-147.2,72.8-213.4s-86.5-85.2-140.1-135.4c-31.3-29.2-43.9-52.4-92.2-70.6-44.6-16.9-207.9-34.2-268.5,134.9C805.3,607.1,893.8,683.3,932,706.2Z" fill="#b8c0cc"/>
    </g>
    <g id="Group_693" transform="translate(1144.807 452.229)">
      <g id="Rectangle_890">
        <path id="Path_2" data-name="Path 2" d="M8.2,0H89.4a8.066,8.066,0,0,1,8.1,8.1v124a8.066,8.066,0,0,1-8.1,8.1H8.2a8.066,8.066,0,0,1-8.1-8.1V8.1A8.066,8.066,0,0,1,8.2,0Z" fill="#fff"/>
        <path id="Path_3" data-name="Path 3" d="M89.4,141.3H8.2a9.133,9.133,0,0,1-9.1-9.1V8.1A9.133,9.133,0,0,1,8.2-1H89.4a9.133,9.133,0,0,1,9.1,9.1v124A9.155,9.155,0,0,1,89.4,141.3ZM8.2,1A7.127,7.127,0,0,0,1.1,8.1v124a7.127,7.127,0,0,0,7.1,7.1H89.4a7.127,7.127,0,0,0,7.1-7.1V8.1A7.127,7.127,0,0,0,89.4,1H8.2Z" fill="#b8c0cc"/>
      </g>
      <g id="Path_938" opacity="0.2">
        <path id="Path_4" data-name="Path 4" d="M49,0,0,120.7S-.6,133,2,137.3s14.3,3,14.3,3L72,0Z" fill="#b8c0cc"/>
      </g>
      <g id="Path_939" opacity="0.2">
        <path id="Path_5" data-name="Path 5" d="M27.9,0h8.3L.1,88V67.7Z" fill="#b8c0cc"/>
      </g>
    </g>
    <g id="Group_695" transform="translate(819.347 281.91)">
      <g id="Group_1" data-name="Group 1">
        <g id="Group_694" clip-path="url(#clip-path)">
          <g id="Line_268">
            <path id="Path_6" data-name="Path 6" d="M560.6,313.7H20.8a5.5,5.5,0,1,1,0-11H560.6a5.5,5.5,0,0,1,0,11Z" fill="#d3d9e0"/>
          </g>
          <g id="Path_940" opacity="0.2">
            <path id="Path_7" data-name="Path 7" d="M55,107.9H500.8V-5H53.7Z" fill="#b8c0cc"/>
          </g>
          <g id="Path_941" opacity="0.4">
            <path id="Path_8" data-name="Path 8" d="M55,114.9H500.8v-7H53.7Z" fill="#b8c0cc"/>
          </g>
          <g id="Path_942">
            <path id="Path_9" data-name="Path 9" d="M534.6,412.6c-2.8-.6-468,0-468,0" fill="#fff"/>
            <path id="Path_10" data-name="Path 10" d="M534.6,413.5h-.2c-6.3-.6-463.2,0-467.8,0h0a1,1,0,0,1,0-2c47.6-.1,465.3-.6,468.2,0a1.1,1.1,0,0,1,.8,1.2A1.053,1.053,0,0,1,534.6,413.5Z" fill="#b8c0cc"/>
          </g>
          <g id="Path_943">
            <path id="Path_11" data-name="Path 11" d="M302.9,65.6v-4c115.7-.2,385.2-.6,387.5.1l-.5,1.9-.3,2C684.3,65.1,434.4,65.4,302.9,65.6Z" fill="#b8c0cc"/>
          </g>
          <g id="Path_944">
            <path id="Path_12" data-name="Path 12" d="M390.5,485.4,291.8,329.1,116.6,373.8-.4,206.9l8.2-5.7L120.9,362.4l175.5-44.8L398.9,480Z" fill="#8860d0"/>
          </g>
        </g>
      </g>
    </g>
    <g id="Group_2" data-name="Group 2">
      <path id="Path_14" data-name="Path 14" d="M1026,322.1a.366.366,0,0,1,.4.4l5.9,28.8,5.9-28.8a.366.366,0,0,1,.4-.4h5a.366.366,0,0,1,.4.4v43.2a.366.366,0,0,1-.4.4h-5a.366.366,0,0,1-.4-.4l.4-21.7-3.3,21.7c.1.3-.1.4-.4.4h-5.1a.43.43,0,0,1-.4-.4l-3.3-21.7.3,21.7a.366.366,0,0,1-.4.4h-5a.366.366,0,0,1-.4-.4V322.5a.366.366,0,0,1,.4-.4Z" fill="#8860d0"/>
      <path id="Path_15" data-name="Path 15" d="M1058.7,322.1a.366.366,0,0,1,.4.4V326a.366.366,0,0,1-.4.4h-5.5v13.2h4a.366.366,0,0,1,.4.4v3.5a.366.366,0,0,1-.4.4h-4v17.6h5.5a.366.366,0,0,1,.4.4v3.5a.366.366,0,0,1-.4.4h-11c-.1,0-.1,0-.1-.1-.1,0-.1,0-.1-.1-.1-.1-.2-.1-.2-.3V321.9a.43.43,0,0,1,.4-.4h11Z" fill="#8860d0"/>
      <path id="Path_16" data-name="Path 16" d="M1066.3,322.1a.366.366,0,0,1,.4.4l3.2,18.1-.3-18.1a.366.366,0,0,1,.4-.4h5a.366.366,0,0,1,.4.4v43.2a.366.366,0,0,1-.4.4h-5.1a.43.43,0,0,1-.4-.4l-3.1-18.1.2,18.1a.366.366,0,0,1-.4.4h-5a.366.366,0,0,1-.4-.4V322.5a.366.366,0,0,1,.4-.4Z" fill="#8860d0"/>
      <path id="Path_17" data-name="Path 17" d="M1085.5,324.8v5.4a.42.42,0,0,1-.4.4h-5a.366.366,0,0,1-.4-.4v-5.4a1.453,1.453,0,0,0-1.4-1.5.366.366,0,0,1-.4-.4v-3.5a.43.43,0,0,1,.4-.4h1.4A5.8,5.8,0,0,1,1085.5,324.8Z" fill="#8860d0"/>
      <path id="Path_18" data-name="Path 18" d="M1096.2,322.1a5.848,5.848,0,0,1,5.9,5.9v11.3a.366.366,0,0,1-.4.4h-5a.366.366,0,0,1-.4-.4V328a1.367,1.367,0,0,0-1.4-1.4,1.453,1.453,0,0,0-1.5,1.4v10a2.564,2.564,0,0,0,.8,2.1l7.5,6.7a1.274,1.274,0,0,1,.5,1.1v12.5a5.911,5.911,0,0,1-5.9,5.9h-3a5.911,5.911,0,0,1-5.9-5.9V349a.366.366,0,0,1,.4-.4h5a.366.366,0,0,1,.4.4v11.3a1.453,1.453,0,0,0,1.5,1.4,1.367,1.367,0,0,0,1.4-1.4V349.9a1.716,1.716,0,0,0-.8-1.6l-7.4-6.6a1.746,1.746,0,0,1-.7-1.4V328a5.911,5.911,0,0,1,5.9-5.9Z" fill="#8860d0"/>
    </g>
    <g id="Group_698" transform="translate(1214.025 559.939)">
      <g id="Rectangle_891">
        <path id="Path_19" data-name="Path 19" d="M123.5,134.1H65.8A65.788,65.788,0,0,1,0,68.3V65.4A65.425,65.425,0,0,1,65.4,0h2.9a65.852,65.852,0,0,1,65.8,65.8v57.7A10.542,10.542,0,0,1,123.5,134.1Z" fill="#fff"/>
      </g>
      <g id="Path_946" opacity="0.12">
        <path id="Path_20" data-name="Path 20" d="M67.7.1h0A71.739,71.739,0,0,0,57.3.9c27.3-.6,64.5,19.6,64.5,65.9v57.5a9.389,9.389,0,0,1-9.4,9.4H125a9.389,9.389,0,0,0,9.4-9.4V66.9A66.9,66.9,0,0,0,67.7.1Z" fill="#8860d0"/>
      </g>
      <g id="Rectangle_892">
        <path id="Path_21" data-name="Path 21" d="M123.5,135.1H65.8A66.855,66.855,0,0,1-1,68.3V65.4A66.321,66.321,0,0,1,65.3-.9h2.9A66.855,66.855,0,0,1,135,65.9v57.7A11.438,11.438,0,0,1,123.5,135.1ZM65.4.9A64.529,64.529,0,0,0,.9,65.4v2.9a64.956,64.956,0,0,0,64.9,64.9h57.7a9.709,9.709,0,0,0,9.7-9.7V65.8A64.955,64.955,0,0,0,68.3.9H65.4Z" fill="#8860d0"/>
      </g>
      <g id="Path_947">
        <path id="Path_22" data-name="Path 22" d="M39,46.2a.9.9,0,0,1-.9-.9,4.3,4.3,0,1,0-8.6,0,.9.9,0,1,1-1.8,0,6.2,6.2,0,1,1,12.4,0A1.273,1.273,0,0,1,39,46.2Z" fill="#8860d0"/>
      </g>
      <g id="Path_948">
        <path id="Path_23" data-name="Path 23" d="M63.7,46.2a.9.9,0,0,1-.9-.9,4.3,4.3,0,0,0-8.6,0,.9.9,0,0,1-1.8,0,6.2,6.2,0,1,1,12.4,0A1.088,1.088,0,0,1,63.7,46.2Z" fill="#8860d0"/>
      </g>
      <g id="Group_697" transform="translate(29.328 59.44)">
        <g id="Path_949">
          <path id="Path_24" data-name="Path 24" d="M34.4,5.1,33.1,6a4.053,4.053,0,0,1-3.4.3,6.961,6.961,0,0,1-4.3-3.4A5.4,5.4,0,0,0,20.7,0a4.684,4.684,0,0,1-6.5.5L13.7,0A5.4,5.4,0,0,0,9,2.9,7.625,7.625,0,0,1,4.7,6.3,4.019,4.019,0,0,1,1.3,6L0,5.1s-.3,9.3,9.2,9.3a8.2,8.2,0,0,0,8-5.5,8.2,8.2,0,0,0,8,5.5c9.6.1,9.2-9.3,9.2-9.3Z" fill="#8860d0"/>
        </g>
        <g id="Group_696" transform="translate(4.283 1.728)">
          <g id="Path_950">
            <path id="Path_25" data-name="Path 25" d="M4.9,5a.472.472,0,0,1-.5-.5.758.758,0,0,1,.2-.4A11.984,11.984,0,0,0,6.3,2,3.454,3.454,0,0,1,9.5,0a.536.536,0,0,1,.5.5.536.536,0,0,1-.5.5h0A2.765,2.765,0,0,0,7,2.6,13.015,13.015,0,0,1,5.2,4.9a.367.367,0,0,1-.3.1Z" fill="#8860d0"/>
          </g>
          <g id="Path_951">
            <path id="Path_26" data-name="Path 26" d="M4.9,10.5a.5.5,0,0,1,0-1h0c1.6,0,3.7-.4,5-3.5a.446.446,0,0,1,.6-.3c.2.1.4.4.3.6h0C9.1,10.5,5.9,10.5,4.9,10.5Z" fill="#8860d0"/>
          </g>
          <g id="Path_952">
            <path id="Path_27" data-name="Path 27" d="M2.7,8.3A6.042,6.042,0,0,1,.3,7.8.585.585,0,0,1,0,7.1a.574.574,0,0,1,.7-.2h0a5.08,5.08,0,0,0,5.4-.8.4.4,0,0,1,.6.2.616.616,0,0,1-.1.7A6.758,6.758,0,0,1,2.7,8.3Z" fill="#8860d0"/>
          </g>
          <g id="Path_953">
            <path id="Path_28" data-name="Path 28" d="M21,5a.367.367,0,0,1-.3-.1,10.179,10.179,0,0,1-1.8-2.3C17.9,1,16.9,1,16.5,1A.472.472,0,0,1,16,.5a.472.472,0,0,1,.5-.5h0a3.486,3.486,0,0,1,3.2,2.1,8.7,8.7,0,0,0,1.7,2.1.483.483,0,0,1,0,.7h0A.756.756,0,0,1,21,5Z" fill="#8860d0"/>
          </g>
          <g id="Path_954">
            <path id="Path_29" data-name="Path 29" d="M20.9,10.5c-1,0-4.2,0-5.9-4.1a.446.446,0,0,1,.3-.6.481.481,0,0,1,.6.2c1.3,3.1,3.4,3.5,5,3.5a.5.5,0,1,1,0,1Z" fill="#8860d0"/>
          </g>
          <g id="Path_955">
            <path id="Path_30" data-name="Path 30" d="M23.2,8.3a6.708,6.708,0,0,1-4-1.4.494.494,0,0,1-.1-.7.616.616,0,0,1,.7-.1,5.525,5.525,0,0,0,5.4.8.447.447,0,1,1,.4.8,5.325,5.325,0,0,1-2.4.6Z" fill="#8860d0"/>
          </g>
          <g id="Path_956">
            <path id="Path_31" data-name="Path 31" d="M7.8,5.7a.472.472,0,0,1-.5-.5h0a.367.367,0,0,1,.1-.3A7.349,7.349,0,0,1,9.6,2.8a.446.446,0,0,1,.6.3.419.419,0,0,1-.3.6A7.369,7.369,0,0,0,8.2,5.5C8.1,5.7,8,5.7,7.8,5.7Z" fill="#8860d0"/>
          </g>
          <g id="Path_957">
            <path id="Path_32" data-name="Path 32" d="M18,5.7a.52.52,0,0,1-.4-.2,8.129,8.129,0,0,0-1.8-1.9c-.2-.1-.4-.4-.3-.6s.4-.4.6-.3h0a6.61,6.61,0,0,1,2.2,2.2.616.616,0,0,1-.1.7c0,.1-.1.1-.2.1Z" fill="#8860d0"/>
          </g>
        </g>
      </g>
    </g>
    <g id="Group_701" transform="translate(964.39 323.144)">
      <g id="Group_700">
        <g id="Group_699">
          <g id="Path_958">
            <path id="Path_33" data-name="Path 33" d="M6.8,0A6.554,6.554,0,0,0,5.2,9.1L15.8,24.2,12,29.7a7.907,7.907,0,1,0,2.9,10.8,7.969,7.969,0,0,0,.2-7.5l4.7-6.7L24.5,33a7.916,7.916,0,0,0,14.2,7,7.791,7.791,0,0,0-3.6-10.6,7.969,7.969,0,0,0-7.5.2l-3.8-5.5,10.5-15A6.576,6.576,0,0,0,32.6,0L19.7,18.4Zm5.3,36.5A4.055,4.055,0,0,1,8,40.6a4.1,4.1,0,1,1,0-8.2H8a4.054,4.054,0,0,1,4.1,4.1Zm23.5,0a4.1,4.1,0,1,1-4.1-4.1h0a4,4,0,0,1,4.1,4.1Z" fill="#8860d0"/>
          </g>
        </g>
      </g>
    </g>
    <g id="Ellipse_480">
      <circle id="Ellipse_1" data-name="Ellipse 1" cx="23.7" cy="23.7" r="23.7" transform="translate(914.4 626.3)" fill="#5680e9"/>
    </g>
    <g id="Ellipse_481">
      <circle id="Ellipse_2" data-name="Ellipse 2" cx="23.7" cy="23.7" r="23.7" transform="translate(1089.7 581.5)" fill="#5680e9"/>
    </g>
    <g id="Ellipse_482">
      <circle id="Ellipse_3" data-name="Ellipse 3" cx="12.7" cy="12.7" r="12.7" transform="translate(925.4 637.3)" fill="#fff"/>
    </g>
    <g id="Ellipse_483">
      <circle id="Ellipse_4" data-name="Ellipse 4" cx="12.7" cy="12.7" r="12.7" transform="translate(1100.7 592.5)" fill="#fff"/>
    </g>
    <g id="Group_702" transform="translate(966.922 538.175)">
      <g id="Rectangle_893">
        <rect id="Rectangle_1" data-name="Rectangle 1" width="11.3" height="49.4" transform="translate(61.1 104.5)" fill="#fff"/>
        <path id="Path_34" data-name="Path 34" d="M72.4,155H61.1a.945.945,0,0,1-1-1V104.6a.945.945,0,0,1,1-1H72.4a.945.945,0,0,1,1,1V154A1.075,1.075,0,0,1,72.4,155Zm-10.3-2h9.3V105.6H62.1V153Z" fill="#b8c0cc"/>
      </g>
      <g id="Path_959">
        <path id="Path_35" data-name="Path 35" d="M11.7,0H3.6A3.585,3.585,0,0,0,0,3.6a2.769,2.769,0,0,0,.1.9l23,91.6a8.051,8.051,0,0,0,7.9,6.1h78.3a5.8,5.8,0,0,0,5.8-5.8h0V92.7L35.8,85.6Z" fill="#fff"/>
        <path id="Path_36" data-name="Path 36" d="M109.3,103.2H31a8.99,8.99,0,0,1-8.8-6.9L-.8,4.7A2.153,2.153,0,0,1-1,3.6,4.653,4.653,0,0,1,3.6-1h8.1a1.2,1.2,0,0,1,1,.7l24,84.9,78.6,7.1a.987.987,0,0,1,.9,1v3.7A6.96,6.96,0,0,1,109.3,103.2ZM3.6,1A2.647,2.647,0,0,0,1,3.6a1.268,1.268,0,0,0,.1.6l23,91.6a7.063,7.063,0,0,0,6.9,5.4h78.3a4.8,4.8,0,0,0,4.8-4.8V93.6L35.8,86.5a.961.961,0,0,1-.9-.7L10.9,1Z" fill="#b8c0cc"/>
      </g>
      <g id="Rectangle_894">
        <path id="Path_37" data-name="Path 37" d="M48.4,102.2H85v.1a3.329,3.329,0,0,1-3.3,3.3H51.6a3.333,3.333,0,0,1-3.2-3.4Z" fill="#b8c0cc"/>
      </g>
      <g id="Rectangle_895">
        <path id="Path_38" data-name="Path 38" d="M43.3,152.8H90.2a2.326,2.326,0,0,1,2.3,2.3h0v.1H41v-.1A2.263,2.263,0,0,1,43.3,152.8Z" fill="#b8c0cc"/>
      </g>
      <g id="Path_960">
        <path id="Path_39" data-name="Path 39" d="M80.4,85.8,59.6,2.8A3.75,3.75,0,0,0,56,0H11.7A3.478,3.478,0,0,0,8.2,3.5a2.769,2.769,0,0,0,.1.9L29.2,87.5a6.935,6.935,0,0,0,6.6,5.2h79.3a6.914,6.914,0,0,0-6.9-6.9Z" fill="#f1f2f5"/>
        <path id="Path_40" data-name="Path 40" d="M115.1,93.7H35.8a7.809,7.809,0,0,1-7.6-5.9L7.3,4.6a3.75,3.75,0,0,1-.1-1.1A4.481,4.481,0,0,1,11.7-1H56a4.8,4.8,0,0,1,4.6,3.6L81.3,84.8h27a7.853,7.853,0,0,1,7.9,7.9.908.908,0,0,1-.3.7A1.136,1.136,0,0,1,115.1,93.7ZM11.7,1A2.476,2.476,0,0,0,9.2,3.5a1.268,1.268,0,0,0,.1.6L30.2,87.2a5.884,5.884,0,0,0,5.7,4.4H114a5.9,5.9,0,0,0-5.8-4.9H80.4a.974.974,0,0,1-1-.8L58.6,3A2.672,2.672,0,0,0,56,1Z" fill="#b8c0cc"/>
      </g>
      <g id="Line_269">
        <path id="Path_41" data-name="Path 41" d="M80.4,86.8H28.7a1,1,0,0,1,0-2H80.4a1,1,0,0,1,0,2Z" fill="#b8c0cc"/>
      </g>
      <g id="Line_270">
        <path id="Path_42" data-name="Path 42" d="M62.2,14.2H10.5a1,1,0,0,1,0-2H62.2a1,1,0,0,1,0,2Z" fill="#b8c0cc"/>
      </g>
      <g id="Line_271">
        <path id="Path_43" data-name="Path 43" d="M66.6,32.3H15a1,1,0,1,1,0-2H66.6a1,1,0,1,1,0,2Z" fill="#b8c0cc"/>
      </g>
      <g id="Line_272">
        <path id="Path_44" data-name="Path 44" d="M71.4,50.5H19.6a1,1,0,1,1,0-2H71.3a.945.945,0,0,1,1,1A.923.923,0,0,1,71.4,50.5Z" fill="#b8c0cc"/>
      </g>
      <g id="Line_273">
        <path id="Path_45" data-name="Path 45" d="M75.9,68.6H24.2a1,1,0,0,1,0-2H75.9a.945.945,0,0,1,1,1A1,1,0,0,1,75.9,68.6Z" fill="#b8c0cc"/>
      </g>
    </g>
    <g id="Group_703" transform="translate(1305.841 485.979)">
      <g id="Line_274">
        <path id="Path_46" data-name="Path 46" d="M34.8,11.2H0a.945.945,0,0,1-1-1,.945.945,0,0,1,1-1H34.8a.945.945,0,0,1,1,1A1,1,0,0,1,34.8,11.2Z" fill="#dae1e5"/>
      </g>
      <g id="Line_275">
        <path id="Path_47" data-name="Path 47" d="M12,11.2a.945.945,0,0,1-1-1V0a.945.945,0,0,1,1-1,.945.945,0,0,1,1,1V10.2A.945.945,0,0,1,12,11.2Z" fill="#dae1e5"/>
      </g>
      <g id="Line_276">
        <path id="Path_48" data-name="Path 48" d="M23.4,21.5a.945.945,0,0,1-1-1V10.2a1,1,0,1,1,2,0V20.4A1.1,1.1,0,0,1,23.4,21.5Z" fill="#dae1e5"/>
      </g>
    </g>
    <g id="Group_704" transform="translate(1066.014 502.529)">
      <g id="Line_277">
        <path id="Path_49" data-name="Path 49" d="M34.8,11.2H0a.945.945,0,0,1-1-1,.945.945,0,0,1,1-1H34.8a.945.945,0,0,1,1,1A1,1,0,0,1,34.8,11.2Z" fill="#dae1e5"/>
      </g>
      <g id="Line_278">
        <path id="Path_50" data-name="Path 50" d="M12,11.2a.945.945,0,0,1-1-1V0a.945.945,0,0,1,1-1,.945.945,0,0,1,1,1V10.2A.945.945,0,0,1,12,11.2Z" fill="#dae1e5"/>
      </g>
      <g id="Line_279">
        <path id="Path_51" data-name="Path 51" d="M23.4,21.5a.945.945,0,0,1-1-1V10.2a1,1,0,1,1,2,0V20.4A1.1,1.1,0,0,1,23.4,21.5Z" fill="#dae1e5"/>
      </g>
    </g>
    <g id="Group_705" transform="translate(997.923 438.568)">
      <g id="Line_280">
        <path id="Path_52" data-name="Path 52" d="M34.8,11.2H0a.945.945,0,0,1-1-1,.945.945,0,0,1,1-1H34.8a.945.945,0,0,1,1,1A1,1,0,0,1,34.8,11.2Z" fill="#dae1e5"/>
      </g>
      <g id="Line_281">
        <path id="Path_53" data-name="Path 53" d="M12,11.2a.945.945,0,0,1-1-1V0a.945.945,0,0,1,1-1,.945.945,0,0,1,1,1V10.2A.945.945,0,0,1,12,11.2Z" fill="#dae1e5"/>
      </g>
      <g id="Line_282">
        <path id="Path_54" data-name="Path 54" d="M23.4,21.5a.945.945,0,0,1-1-1V10.2a1,1,0,1,1,2,0V20.4A1.1,1.1,0,0,1,23.4,21.5Z" fill="#dae1e5"/>
      </g>
    </g>
    <g id="Rectangle_896">
      <rect id="Rectangle_2" data-name="Rectangle 2" width="61.1" height="66.4" transform="translate(903.1 428.9)" fill="#fff"/>
      <path id="Path_55" data-name="Path 55" d="M964.2,496.3H903.1a.945.945,0,0,1-1-1V428.9a.945.945,0,0,1,1-1h61.1a.945.945,0,0,1,1,1v66.4A.945.945,0,0,1,964.2,496.3Zm-60.1-2h59.1V429.9H904.1Z" fill="#b8c0cc"/>
    </g>
    <g id="Rectangle_897">
      <path id="Path_56" data-name="Path 56" d="M1006.8,650.6h4.5a2.476,2.476,0,0,1,2.5,2.5v.1a2.476,2.476,0,0,1-2.5,2.5h-4.5a2.476,2.476,0,0,1-2.5-2.5v-.1A2.416,2.416,0,0,1,1006.8,650.6Z" fill="#b8c0cc"/>
    </g>
    <g id="Path_961">
      <path id="Path_57" data-name="Path 57" d="M1017.6,654.1h-9a1,1,0,0,1,0-2h8.8l15.9-6.2a1.012,1.012,0,1,1,.7,1.9l-16.1,6.3Z" fill="#b8c0cc"/>
    </g>
    <g id="Path_962">
      <path id="Path_58" data-name="Path 58" d="M829.6,529.2l-9.9-1.4,5.8-38.4,38,5.7L862,505l-28.1-4.2Z" fill="#8860d0"/>
    </g>
    <g id="Group_706" transform="translate(923.716 442.151)">
      <g id="Path_963">
        <path id="Path_59" data-name="Path 59" d="M0,6.6H19.9V10H0Z" fill="#b8c0cc"/>
      </g>
      <g id="Path_964">
        <path id="Path_60" data-name="Path 60" d="M0,29.9H19.9v3.3H0Z" fill="#b8c0cc"/>
      </g>
      <g id="Path_965">
        <path id="Path_61" data-name="Path 61" d="M2.4,34.9a8.286,8.286,0,0,0,15.2,0Z" fill="#b8c0cc"/>
      </g>
      <g id="Path_966">
        <path id="Path_62" data-name="Path 62" d="M10,0A8.327,8.327,0,0,0,2.4,5H17.6A8.327,8.327,0,0,0,10,0Z" fill="#b8c0cc"/>
      </g>
      <g id="Path_967">
        <path id="Path_63" data-name="Path 63" d="M18.3,8.3a1.621,1.621,0,0,0-1.2-1.6L1.7,22.1v4.6L18.3,10.1V8.3Z" fill="#b8c0cc"/>
      </g>
      <g id="Path_968">
        <path id="Path_64" data-name="Path 64" d="M18.3,14.8,1.7,31.4v.1a1.685,1.685,0,0,0,1.7,1.7H4.6L18.4,19.4Z" fill="#b8c0cc"/>
      </g>
      <g id="Path_969">
        <path id="Path_65" data-name="Path 65" d="M3.3,6.6A1.685,1.685,0,0,0,1.6,8.3v9.1L12.4,6.6Z" fill="#b8c0cc"/>
      </g>
      <g id="Path_970">
        <path id="Path_66" data-name="Path 66" d="M9.2,33.2h7.4a1.685,1.685,0,0,0,1.7-1.7V24.1Z" fill="#b8c0cc"/>
      </g>
    </g>
  </g>
</svg>
