<svg xmlns="http://www.w3.org/2000/svg" width="105.719" height="107.216" viewBox="0 0 105.719 107.216">
  <g id="Group_669" data-name="Group 669" transform="translate(-1103.639 -1469.698)">
    <circle id="Ellipse_460" data-name="Ellipse 460" cx="52.86" cy="52.86" r="52.86" transform="translate(1103.639 1469.698)" fill="#f0f4f7"/>
    <g id="Group_326" data-name="Group 326" transform="translate(3.24 11.782)">
      <rect id="Rectangle_506" data-name="Rectangle 506" width="50.28" height="94.93" rx="8.805" transform="translate(1128.239 1469.201)" fill="#fff" stroke="#b8c0cc" stroke-miterlimit="10" stroke-width="2"/>
      <g id="Rectangle_505" data-name="Rectangle 505" transform="translate(-1.53 -6.844)" fill="none">
        <path d="M1165.6,1532.589h-10.675a12.828,12.828,0,0,1-12.828-12.829h0a12.74,12.74,0,0,1,12.74-12.74h0a12.828,12.828,0,0,1,12.829,12.828v10.675a2.066,2.066,0,0,1-2.066,2.066Z" stroke="none"/>
        <path d="M 1165.162719726563 1530.088623046875 L 1165.162719726563 1519.847900390625 C 1165.162719726563 1514.153076171875 1160.529174804688 1509.52001953125 1154.833862304688 1509.52001953125 C 1149.187622070313 1509.52001953125 1144.593994140625 1514.113525390625 1144.593994140625 1519.759765625 C 1144.593994140625 1525.455078125 1149.227172851563 1530.088623046875 1154.921997070313 1530.088623046875 L 1165.162719726563 1530.088623046875 M 1165.59716796875 1532.588623046875 L 1154.921997070313 1532.588623046875 C 1147.837280273438 1532.588623046875 1142.093994140625 1526.845458984375 1142.093994140625 1519.759765625 C 1142.093994140625 1512.723999023438 1147.797973632813 1507.02001953125 1154.833862304688 1507.02001953125 C 1161.919555664063 1507.02001953125 1167.662719726563 1512.76318359375 1167.662719726563 1519.847900390625 L 1167.662719726563 1530.52294921875 C 1167.662719726563 1531.66357421875 1166.737548828125 1532.588623046875 1165.59716796875 1532.588623046875 Z" stroke="none" fill="#8860d0"/>
      </g>
      <path id="Path_502" data-name="Path 502" d="M1138.712,1469.2l2.551,4.932a2.61,2.61,0,0,0,2.319,1.411h21.744a2.611,2.611,0,0,0,2.287-1.351l2.75-4.991" transform="translate(-1.156)" fill="#b8c0cc"/>
      <path id="Path_894" data-name="Path 894" d="M1128.238,1556.895h50.246" transform="translate(0 -8.792)" fill="none" stroke="#b8c0cc" stroke-width="2"/>
      <circle id="Ellipse_461" data-name="Ellipse 461" cx="3.629" cy="3.629" r="3.629" transform="translate(1149.719 1551.955)" fill="#b8c0cc"/>
    </g>
  </g>
</svg>
