<svg xmlns="http://www.w3.org/2000/svg" width="22.917" height="22.037" viewBox="0 0 22.917 22.037">
  <path id="Path_498" data-name="Path 498" d="M1122.54,894.255a1.105,1.105,0,0,0-.955-.763l-6.024-.547-2.382-5.576a1.11,1.11,0,0,0-2.041,0l-2.382,5.575-6.025.547a1.111,1.111,0,0,0-.63,1.942l4.554,3.993-1.343,5.915a1.108,1.108,0,0,0,1.65,1.2l5.2-3.106,5.194,3.106a1.109,1.109,0,0,0,1.651-1.2l-1.343-5.915,4.554-3.993A1.108,1.108,0,0,0,1122.54,894.255Z" transform="translate(-1100.7 -885.696)" fill="none" stroke="#8860d0" stroke-linecap="round" stroke-linejoin="round" stroke-width="2"/>
</svg>
