<svg xmlns="http://www.w3.org/2000/svg" width="105.719" height="105.719" viewBox="0 0 105.719 105.719">
  <g id="Group_679" data-name="Group 679" transform="translate(-1257.829 -1537.542)">
    <circle id="Ellipse_472" data-name="Ellipse 472" cx="52.86" cy="52.86" r="52.86" transform="translate(1257.829 1537.542)" fill="#f0f4f7"/>
    <path id="Path_908" data-name="Path 908" d="M1306.689,1624.935a1.8,1.8,0,0,0,1.79,1.791h43.731a1.8,1.8,0,0,0,1.79-1.791v-54.2l-13.419-13.469h-32.1a1.8,1.8,0,0,0-1.79,1.79v3.26" fill="#fff" stroke="#b8c0cc" stroke-linecap="round" stroke-miterlimit="10" stroke-width="2"/>
    <path id="Path_909" data-name="Path 909" d="M1329.1,1595.174a23.983,23.983,0,1,1-23.983-23.983v23.983Z" fill="#fff" stroke="#b8c0cc" stroke-linecap="round" stroke-miterlimit="10" stroke-width="2"/>
    <path id="Path_910" data-name="Path 910" d="M1313.068,1563.237a23.983,23.983,0,0,1,23.982,23.983h-23.982Z" fill="none" stroke="#8860d0" stroke-linecap="round" stroke-miterlimit="10" stroke-width="2"/>
    <path id="Path_911" data-name="Path 911" d="M1340.581,1557.268v10.587a2.809,2.809,0,0,0,2.809,2.809H1354" fill="none" stroke="#b8c0cc" stroke-linecap="round" stroke-miterlimit="10" stroke-width="2"/>
    <line id="Line_251" data-name="Line 251" x2="7.465" transform="translate(1341.701 1577.575)" fill="#fff" stroke="#b8c0cc" stroke-linecap="round" stroke-miterlimit="10" stroke-width="2"/>
    <line id="Line_252" data-name="Line 252" x2="7.465" transform="translate(1341.701 1584.762)" fill="#fff" stroke="#b8c0cc" stroke-linecap="round" stroke-miterlimit="10" stroke-width="2"/>
    <line id="Line_253" data-name="Line 253" x2="7.465" transform="translate(1341.701 1591.996)" fill="#fff" stroke="#b8c0cc" stroke-linecap="round" stroke-miterlimit="10" stroke-width="2"/>
    <path id="Path_912" data-name="Path 912" d="M1347.111,1611.094a.769.769,0,0,0-.663-.53l-4.187-.38-1.655-3.875a.771.771,0,0,0-1.418,0l-1.656,3.874-4.187.38a.772.772,0,0,0-.438,1.349l3.165,2.775-.933,4.111a.769.769,0,0,0,1.146.833l3.612-2.159,3.61,2.159a.771.771,0,0,0,1.147-.833l-.933-4.111,3.164-2.775A.769.769,0,0,0,1347.111,1611.094Z" fill="#b8c0cc"/>
  </g>
</svg>
