<svg xmlns="http://www.w3.org/2000/svg" width="116.657" height="144.849" viewBox="0 0 116.657 144.849">
  <g id="Group_332" data-name="Group 332" transform="translate(-2068.175 -672.896)">
    <rect id="Rectangle_538" data-name="Rectangle 538" width="70.151" height="71.799" rx="8.935" transform="translate(2069.116 745.004)" stroke-width="1.883" stroke="#b8c0cc" stroke-linecap="round" stroke-linejoin="round" fill="#fff"/>
    <line id="Line_115" data-name="Line 115" x2="36.503" transform="translate(2081.646 764.863)" fill="#fff" stroke="#b8c0cc" stroke-linecap="round" stroke-linejoin="round" stroke-width="1.883"/>
    <line id="Line_116" data-name="Line 116" x2="47.514" transform="translate(2081.646 777.082)" fill="#fff" stroke="#b8c0cc" stroke-linecap="round" stroke-linejoin="round" stroke-width="1.883"/>
    <line id="Line_117" data-name="Line 117" x2="47.514" transform="translate(2081.646 789.3)" fill="#fff" stroke="#b8c0cc" stroke-linecap="round" stroke-linejoin="round" stroke-width="1.883"/>
    <line id="Line_118" data-name="Line 118" x2="33.335" transform="translate(2081.646 801.519)" fill="#fff" stroke="#b8c0cc" stroke-linecap="round" stroke-linejoin="round" stroke-width="1.883"/>
    <path id="Path_456" data-name="Path 456" d="M2147.5,755.854a18.575,18.575,0,1,1-18.576-18.576A18.575,18.575,0,0,1,2147.5,755.854Z" transform="translate(8.523 13.052)" fill="#fff"/>
    <path id="Path_457" data-name="Path 457" d="M2131.448,770.3c-10.258,0-17.091-8.816-17.091-19.076a18.466,18.466,0,0,1,3.6-10.962,18.559,18.559,0,1,0,25.933,25.933A19.611,19.611,0,0,1,2131.448,770.3Z" transform="translate(8.523 13.669)" fill="#eaeff4"/>
    <path id="Path_458" data-name="Path 458" d="M2115.982,677.17a32.622,32.622,0,0,0-23.562,24.088" transform="translate(4.817 0.627)" fill="none" stroke="#b8c0cc" stroke-linecap="round" stroke-linejoin="round" stroke-width="1.883"/>
    <path id="Path_459" data-name="Path 459" d="M2106.441,674.135a32.7,32.7,0,0,0-16.844,16.737" transform="translate(4.234)" fill="none" stroke="#b8c0cc" stroke-linecap="round" stroke-linejoin="round" stroke-width="1.883"/>
    <path id="Path_460" data-name="Path 460" d="M2110.346,752.672l1.634,6.417H2145.6l1.893-6.417Z" transform="translate(8.523 16.234)" fill="#eaeff4"/>
    <path id="Path_461" data-name="Path 461" d="M2147.5,755.854a18.575,18.575,0,1,1-18.576-18.576A18.575,18.575,0,0,1,2147.5,755.854Z" transform="translate(8.523 13.052)" fill="none" stroke="#b8c0cc" stroke-linecap="round" stroke-linejoin="round" stroke-width="1.883"/>
    <path id="Path_462" data-name="Path 462" d="M2177.3,752.691a31.136,31.136,0,0,1-11.09-23.836V715.909a32.514,32.514,0,0,0-65.029,0v12.946a31.136,31.136,0,0,1-11.09,23.836,8.126,8.126,0,0,0,5.284,14.3h76.639a8.126,8.126,0,0,0,5.284-14.3Z" transform="translate(3.748 1.916)" fill="#fff"/>
    <path id="Path_463" data-name="Path 463" d="M2109.782,760.252a8.126,8.126,0,0,1-5.285-14.3c7.064-5.971,7.939-14.646,7.939-23.836V709.171a32.428,32.428,0,0,1,11.073-24.408,32.556,32.556,0,0,0-22.327,30.865v12.946a31.136,31.136,0,0,1-11.09,23.836,8.126,8.126,0,0,0,5.284,14.3h76.639a8.139,8.139,0,0,0,7.952-6.457" transform="translate(3.748 2.197)" fill="#eaeff4"/>
    <path id="Path_464" data-name="Path 464" d="M2177.3,752.691a31.136,31.136,0,0,1-11.09-23.836V715.909a32.514,32.514,0,0,0-65.029,0v12.946a31.136,31.136,0,0,1-11.09,23.836,8.126,8.126,0,0,0,5.284,14.3h76.639a8.126,8.126,0,0,0,5.284-14.3Z" transform="translate(3.748 1.916)" fill="none" stroke="#b8c0cc" stroke-linecap="round" stroke-linejoin="round" stroke-width="1.883"/>
    <circle id="Ellipse_276" data-name="Ellipse 276" cx="9.769" cy="9.769" r="9.769" transform="translate(2151.497 685.319)" fill="#11abd5"/>
  </g>
</svg>
