<svg width="21" height="20" viewBox="0 0 21 20" fill="none" xmlns="http://www.w3.org/2000/svg">
<g clip-path="url(#clip0)">
<path d="M15.4143 5.02246C16.5228 5.60295 17.4718 6.45349 18.171 7.49984C18.9951 8.73321 19.435 10.1832 19.435 11.6666V19.1666H11.935C10.4516 19.1666 9.00154 18.7267 7.76818 17.9026C6.98687 17.3805 6.31475 16.7191 5.78271 15.9561" stroke="#11ABD5" stroke-width="1.5" stroke-linecap="round" stroke-linejoin="round"/>
<path d="M1.10156 8.33259C1.10172 6.84929 1.54166 5.39937 2.36583 4.16612C3.19 2.93287 4.36139 1.97168 5.7318 1.40412C7.10222 0.836562 8.61012 0.688115 10.0649 0.977529C11.5197 1.26694 12.856 1.98122 13.9049 3.03007C14.9537 4.07891 15.668 5.4152 15.9574 6.86999C16.2468 8.32477 16.0984 9.83272 15.5308 11.2031C14.9633 12.5735 14.0021 13.7449 12.7688 14.5691C11.5356 15.3932 10.0856 15.8332 8.60235 15.8334H1.10156V8.33259Z" stroke="#11ABD5" stroke-width="1.5" stroke-linecap="round" stroke-linejoin="round"/>
<path d="M6.93457 6.77361C6.93457 6.42282 7.03233 6.0799 7.21547 5.78823C7.3986 5.49656 7.65887 5.26924 7.96341 5.135C8.26796 5.00075 8.6031 4.96565 8.9264 5.03408C9.2497 5.10252 9.54666 5.27144 9.77975 5.51948C10.0128 5.76752 10.1716 6.08353 10.2359 6.42758C10.3002 6.77162 10.2672 7.12827 10.141 7.45235C10.0149 7.77643 9.80128 8.0534 9.5272 8.24829C9.25312 8.44317 8.93087 8.54721 8.60123 8.54721V10" stroke="#11ABD5" stroke-width="1.5" stroke-linecap="round" stroke-linejoin="round"/>
<path d="M8.6014 13.3333C9.06164 13.3333 9.43473 12.9602 9.43473 12.5C9.43473 12.0397 9.06164 11.6666 8.6014 11.6666C8.14116 11.6666 7.76807 12.0397 7.76807 12.5C7.76807 12.9602 8.14116 13.3333 8.6014 13.3333Z" fill="#11ABD5"/>
</g>
<defs>
<clipPath id="clip0">
<rect width="20" height="20" fill="white" transform="translate(0.268066)"/>
</clipPath>
</defs>
</svg>
