<svg width="21" height="20" viewBox="0 0 21 20" fill="none" xmlns="http://www.w3.org/2000/svg">
<g clip-path="url(#clip0)">
<path d="M13.348 13.4441C13.2212 13.2697 13.0424 13.1399 12.8373 13.0734C12.6322 13.0069 12.4113 13.0072 12.2063 13.0741L10.8996 13.5049C10.6823 13.5768 10.4472 13.5744 10.2314 13.4979C10.0156 13.4214 9.83149 13.2752 9.70797 13.0824L8.1621 10.6741L6.61796 8.2641C6.49419 8.07139 6.43804 7.84297 6.45841 7.61484C6.47878 7.38671 6.57452 7.17187 6.73047 7.00413L7.66711 5.9966C7.81432 5.83794 7.9073 5.63659 7.93261 5.42164C7.95793 5.2067 7.91427 4.98928 7.80795 4.80076L6.02964 1.65659C5.99241 1.59055 5.94206 1.53281 5.88173 1.48691C5.82139 1.44101 5.75231 1.40792 5.67874 1.38966C5.60516 1.3714 5.52867 1.36839 5.45387 1.38076C5.37908 1.39313 5.30759 1.42065 5.24381 1.46163C5.24381 1.46163 2.22381 3.16495 1.87131 3.84078C1.62548 4.31078 0.41879 6.21996 4.54796 12.9116C8.90796 19.4541 11.2196 19.2674 11.7496 19.2408C12.5113 19.2016 15.318 17.1683 15.318 17.1683C15.3819 17.1274 15.4368 17.0739 15.4793 17.0111C15.5217 16.9483 15.5509 16.8774 15.5651 16.8029C15.5792 16.7284 15.578 16.6518 15.5614 16.5778C15.5448 16.5037 15.5133 16.4338 15.4688 16.3724L13.348 13.4441Z" stroke="#11ABD5" stroke-width="1.5" stroke-linecap="round" stroke-linejoin="round"/>
<path d="M14.9204 9.19072C15.2037 8.24423 15.0995 7.22398 14.6307 6.35432C14.1619 5.48465 13.3668 4.83679 12.4204 4.55322" stroke="#11ABD5" stroke-width="1.5" stroke-linecap="round" stroke-linejoin="round"/>
<path d="M18.6235 9.89763C18.8195 8.90334 18.8178 7.88016 18.6185 6.88653C18.4191 5.89289 18.026 4.94826 17.4616 4.10656C16.8971 3.26486 16.1724 2.54259 15.3288 1.98097C14.4852 1.41936 13.5392 1.02939 12.5449 0.833374" stroke="#11ABD5" stroke-width="1.5" stroke-linecap="round" stroke-linejoin="round"/>
</g>
<defs>
<clipPath id="clip0">
<rect width="20" height="20" fill="white" transform="translate(0.268066)"/>
</clipPath>
</defs>
</svg>
