<svg xmlns="http://www.w3.org/2000/svg" width="104.948" height="144.877" viewBox="0 0 104.948 144.877">
  <g id="Group_331" data-name="Group 331" transform="translate(-1762.653 -681.288)">
    <path id="Path_448" data-name="Path 448" d="M1807.466,772.078s-1.629-1.051,0-3.44h22.712l-3.588,3.485Z" transform="translate(10.25 20.683)" fill="#eaeff4"/>
    <path id="Path_449" data-name="Path 449" d="M1860.342,758.168s-17.733,24.293-25.222,27.656-50.4,1.149-50.4,1.149l3.717,7.285,45.926-.728,6.86-3.8,20.458-25.438Z" transform="translate(4.978 18.177)" fill="#eaeff4"/>
    <path id="Path_450" data-name="Path 450" d="M1767.428,764.892s15.606,35.119,26.67,29.714l.551,1.925-1.251,3.129-8.964,4.917h-1.524l-18.517-37.937Z" transform="translate(0.113 19.787)" fill="#eaeff4"/>
    <path id="Rectangle_537" data-name="Rectangle 537" d="M1.159,0H9.81a4.684,4.684,0,0,1,4.684,4.684V38.4A4.684,4.684,0,0,1,9.81,43.079H1.159A1.159,1.159,0,0,1,0,41.92V1.159A1.159,1.159,0,0,1,1.159,0Z" transform="translate(1763.92 786.526) rotate(-27.031)" fill="none" stroke="#b8c0cc" stroke-linecap="round" stroke-linejoin="round" stroke-width="1.883"/>
    <path id="Path_451" data-name="Path 451" d="M1776.284,767.3l10.02-8.994a17.087,17.087,0,0,1,10.127-3.495c4.9,0,11.265,3.583,14.54,6.349a7.1,7.1,0,0,0,4.588,1.642h15.521s7.047-.254,7.047,6.3-6.773,6.285-6.773,6.285h-15.93" transform="translate(2.96 17.372)" fill="none" stroke="#b8c0cc" stroke-linecap="round" stroke-linejoin="round" stroke-width="1.883"/>
    <path id="Path_452" data-name="Path 452" d="M1787.448,794.1h42.862a15.5,15.5,0,0,0,12.223-5.965l17.2-22.033a6.09,6.09,0,0,0-1.635-8.906c-4.436-3.191-9.75,1.868-9.75,1.868l-15.156,14.685" transform="translate(5.632 17.69)" fill="none" stroke="#b8c0cc" stroke-linecap="round" stroke-linejoin="round" stroke-width="1.883"/>
    <g id="Group_330" data-name="Group 330" transform="translate(1796.637 699.242)">
      <g id="Group_329" data-name="Group 329">
        <path id="Path_453" data-name="Path 453" d="M1835.818,716.174c-.372-.233-3.288-1.979-4.446-2.51l-1.436-3.465c.426-1.146,1.242-4.361,1.369-4.919a1.543,1.543,0,0,0-.413-1.433l-2.245-2.244a1.544,1.544,0,0,0-1.433-.413c-.423.1-3.722.923-4.919,1.37l-3.465-1.436c-.508-1.108-2.2-3.955-2.511-4.446a1.54,1.54,0,0,0-1.3-.721h-3.175a1.542,1.542,0,0,0-1.3.721c-.233.372-1.979,3.287-2.51,4.446l-3.465,1.436c-1.146-.428-4.361-1.242-4.919-1.37a1.543,1.543,0,0,0-1.433.413l-2.245,2.244a1.541,1.541,0,0,0-.413,1.433c.1.423.923,3.722,1.368,4.919l-1.435,3.465c-1.108.507-3.955,2.2-4.446,2.51a1.542,1.542,0,0,0-.721,1.305v3.175a1.542,1.542,0,0,0,.721,1.305c.372.233,3.287,1.979,4.446,2.51l1.435,3.465c-.426,1.146-1.24,4.361-1.368,4.919a1.54,1.54,0,0,0,.413,1.433l2.245,2.245a1.54,1.54,0,0,0,1.433.413c.423-.1,3.722-.923,4.919-1.37l3.465,1.436c.507,1.108,2.2,3.955,2.51,4.446a1.542,1.542,0,0,0,1.3.721h3.175a1.544,1.544,0,0,0,1.305-.721c.233-.372,1.979-3.287,2.51-4.446l3.465-1.436c1.146.428,4.362,1.242,4.919,1.37a1.54,1.54,0,0,0,1.433-.413l2.245-2.245a1.543,1.543,0,0,0,.413-1.433c-.1-.423-.923-3.722-1.369-4.919l1.436-3.465c1.108-.507,3.955-2.2,4.446-2.51a1.542,1.542,0,0,0,.721-1.305v-3.175A1.542,1.542,0,0,0,1835.818,716.174Zm-22.389,12.968a10.075,10.075,0,1,1,10.075-10.075A10.086,10.086,0,0,1,1813.428,729.141Z" transform="translate(-1790.318 -695.956)" fill="none" stroke="#b8c0cc" stroke-linecap="round" stroke-linejoin="round" stroke-width="1.883"/>
      </g>
    </g>
    <path id="Path_454" data-name="Path 454" d="M1833.392,685.85a40.128,40.128,0,0,0-43.286,66.533" transform="translate(3.033)" fill="none" stroke="#b8c0cc" stroke-linecap="round" stroke-linejoin="round" stroke-width="1.883"/>
    <path id="Path_455" data-name="Path 455" d="M1795.827,756.869a40.127,40.127,0,0,0,44.091-65.6" transform="translate(7.638 2.163)" fill="none" stroke="#b8c0cc" stroke-linecap="round" stroke-linejoin="round" stroke-width="1.883"/>
    <circle id="Ellipse_274" data-name="Ellipse 274" cx="5.389" cy="5.389" r="5.389" transform="translate(1841.266 688.047)" fill="#11abd5"/>
    <circle id="Ellipse_275" data-name="Ellipse 275" cx="5.389" cy="5.389" r="5.389" transform="translate(1787.449 747.063)" fill="#11abd5"/>
  </g>
</svg>
