<svg width="21" height="20" viewBox="0 0 21 20" fill="none" xmlns="http://www.w3.org/2000/svg">
<g clip-path="url(#clip0)">
<path d="M14.0847 1.67458C13.3048 1.70075 12.5445 1.93332 11.8764 2.35005C11.2082 2.76677 10.6546 3.35373 10.2685 4.05482C9.79374 3.15683 9.04237 2.44866 8.13375 2.04286C7.22514 1.63706 6.21142 1.55691 5.2537 1.81514C4.29598 2.07338 3.44923 2.65522 2.84797 3.46813C2.24671 4.28104 1.92547 5.27842 1.93528 6.30177C1.93528 12.9203 10.2685 18.3333 10.2685 18.3333C10.2685 18.3333 18.6017 12.9203 18.6017 6.30177C18.5831 5.07306 18.1 3.90072 17.2557 3.03585C16.4114 2.17098 15.2731 1.68233 14.0847 1.67458V1.67458Z" stroke="#11ABD5" stroke-width="1.5" stroke-linecap="round" stroke-linejoin="round"/>
<path d="M1.10156 9.5378H5.9253L7.89967 5.80103L10.0782 14.1812L13.1634 6.52968L14.8737 9.5622H19.4349" stroke="#11ABD5" stroke-width="1.5" stroke-linecap="round" stroke-linejoin="round"/>
</g>
<defs>
<clipPath id="clip0">
<rect width="20" height="20" fill="white" transform="translate(0.268066)"/>
</clipPath>
</defs>
</svg>
