<svg width="21" height="20" viewBox="0 0 21 20" fill="none" xmlns="http://www.w3.org/2000/svg">
<g clip-path="url(#clip0)">
<path d="M19.1465 9.16096L10.6644 1.06106C10.5578 0.959208 10.4158 0.902344 10.268 0.902344C10.1203 0.902344 9.97829 0.959208 9.87165 1.06106L1.38121 9.17254C1.20164 9.35178 1.09998 9.59416 1.09814 9.8474C1.09836 10.0998 1.1991 10.3418 1.37824 10.5203C1.55737 10.6987 1.80027 10.7991 2.05361 10.7993H3.3901V18.0317C3.3901 18.3346 3.51088 18.6251 3.72587 18.8393C3.94086 19.0535 4.23245 19.1738 4.53649 19.1738H7.78473C7.93658 19.1736 8.08214 19.1134 8.18951 19.0064C8.29688 18.8994 8.35729 18.7544 8.35751 18.6031V13.6534C8.35773 13.603 8.37792 13.5547 8.41368 13.5191C8.44944 13.4835 8.49787 13.4634 8.54844 13.4632H11.9868C12.0374 13.4634 12.0858 13.4835 12.1215 13.5191C12.1573 13.5547 12.1775 13.603 12.1777 13.6534V18.6007C12.1779 18.7519 12.2383 18.8969 12.3457 19.0039C12.4531 19.1109 12.5986 19.1711 12.7505 19.1713H15.9987C16.3028 19.1713 16.5944 19.051 16.8094 18.8368C17.0243 18.6226 17.1451 18.3321 17.1451 18.0292V10.7985H18.4824C18.7358 10.7983 18.9787 10.6979 19.1578 10.5194C19.337 10.341 19.4377 10.099 19.4379 9.84657C19.437 9.71882 19.4107 9.59251 19.3607 9.47486C19.3107 9.35722 19.238 9.25055 19.1465 9.16096Z" stroke="#11ABD5" stroke-width="1.5"/>
</g>
<defs>
<clipPath id="clip0">
<rect width="20" height="20" fill="white" transform="translate(0.268066)"/>
</clipPath>
</defs>
</svg>
