<svg width="60" height="62" viewBox="0 0 60 62" fill="none" xmlns="http://www.w3.org/2000/svg">
<path d="M26.1855 8.35791H14.6974V60.9997H26.1855V8.35791Z" stroke="#B8C0CC" stroke-width="1.5" stroke-miterlimit="10"/>
<path d="M55.3409 1H26.1855V60.9998H55.3409V1Z" stroke="#B8C0CC" stroke-width="1.5" stroke-miterlimit="10"/>
<path d="M5.9314 31.8848V61" stroke="#B8C0CC" stroke-width="1.5" stroke-miterlimit="10"/>
<path d="M0.96402 41.2199L11.1206 33.8813" stroke="#B8C0CC" stroke-width="1.5" stroke-miterlimit="10"/>
<path d="M0.981079 34.001L11.0865 41.4078" stroke="#B8C0CC" stroke-width="1.5" stroke-miterlimit="10"/>
<path d="M23.2665 1.00049H58.2598" stroke="#B8C0CC" stroke-width="1.5" stroke-miterlimit="10"/>
<path d="M11.6419 8.35791H14.6974" stroke="#B8C0CC" stroke-width="1.5" stroke-miterlimit="10"/>
<path d="M0 60.9995L59.1816 60.9995" stroke="#B8C0CC" stroke-width="1.5" stroke-miterlimit="10"/>
<path d="M33.2658 5.28711H30.7261V9.6561H33.2658V5.28711Z" fill="#B8C0CC"/>
<path d="M21.6071 12.9409H19.0674V17.3099H21.6071V12.9409Z" fill="#B8C0CC"/>
<path d="M21.6071 20.2461H19.0674V24.6151H21.6071V20.2461Z" fill="#B8C0CC"/>
<path d="M21.6071 27.5337H19.0674V31.9027H21.6071V27.5337Z" fill="#B8C0CC"/>
<path d="M21.6071 34.8037H19.0674V39.1727H21.6071V34.8037Z" fill="#B8C0CC"/>
<path d="M21.6071 42.0732H19.0674V46.4422H21.6071V42.0732Z" fill="#B8C0CC"/>
<path d="M33.2658 12.5659H30.7261V16.9349H33.2658V12.5659Z" fill="#B8C0CC"/>
<path d="M33.2658 19.8623H30.7261V24.2313H33.2658V19.8623Z" fill="#B8C0CC"/>
<path d="M33.2658 27.1499H30.7261V31.5189H33.2658V27.1499Z" fill="#B8C0CC"/>
<path d="M33.2658 34.4199H30.7261V38.7889H33.2658V34.4199Z" fill="#B8C0CC"/>
<path d="M33.2658 41.6982H30.7261V46.0672H33.2658V41.6982Z" fill="#B8C0CC"/>
<path d="M50.8703 5.28711H48.3306V9.6561H50.8703V5.28711Z" fill="#B8C0CC"/>
<path d="M50.8703 12.5659H48.3306V16.9349H50.8703V12.5659Z" fill="#B8C0CC"/>
<path d="M50.8703 19.8623H48.3306V24.2313H50.8703V19.8623Z" fill="#B8C0CC"/>
<path d="M50.8703 27.1499H48.3306V31.5189H50.8703V27.1499Z" fill="#B8C0CC"/>
<path d="M50.8703 34.4199H48.3306V38.7889H50.8703V34.4199Z" fill="#B8C0CC"/>
<path d="M50.8703 41.6982H48.3306V46.0672H50.8703V41.6982Z" fill="#B8C0CC"/>
<path d="M45.0021 5.28711H42.4624V9.6561H45.0021V5.28711Z" fill="#B8C0CC"/>
<path d="M45.0021 12.5659H42.4624V16.9349H45.0021V12.5659Z" fill="#B8C0CC"/>
<path d="M45.0021 19.8623H42.4624V24.2313H45.0021V19.8623Z" fill="#B8C0CC"/>
<path d="M45.0021 27.1499H42.4624V31.5189H45.0021V27.1499Z" fill="#B8C0CC"/>
<path d="M45.0021 34.4199H42.4624V38.7889H45.0021V34.4199Z" fill="#B8C0CC"/>
<path d="M45.0021 41.6982H42.4624V46.0672H45.0021V41.6982Z" fill="#B8C0CC"/>
<path d="M39.134 5.28711H36.5942V9.6561H39.134V5.28711Z" fill="#B8C0CC"/>
<path d="M39.134 12.5659H36.5942V16.9349H39.134V12.5659Z" fill="#B8C0CC"/>
<path d="M39.134 19.8623H36.5942V24.2313H39.134V19.8623Z" fill="#B8C0CC"/>
<path d="M39.134 27.1499H36.5942V31.5189H39.134V27.1499Z" fill="#B8C0CC"/>
<path d="M39.134 34.4199H36.5942V38.7889H39.134V34.4199Z" fill="#B8C0CC"/>
<path d="M39.134 41.6982H36.5942V46.0672H39.134V41.6982Z" fill="#B8C0CC"/>
<path d="M40.2145 50.936H33.628V60.2457H40.2145V50.936Z" fill="#FE7C5F"/>
<path d="M48.2054 50.936H41.6188V60.2457H48.2054V50.936Z" fill="#FE7C5F"/>
</svg>
