<svg xmlns="http://www.w3.org/2000/svg" width="80.051" height="80.635" viewBox="0 0 80.051 80.635">
  <g id="Group_609" data-name="Group 609" transform="translate(-439 -6094)">
    <circle id="Ellipse_419" data-name="Ellipse 419" cx="38.5" cy="38.5" r="38.5" transform="translate(439 6094)" fill="#f2f5fa"/>
    <g id="Group_600" data-name="Group 600" transform="translate(-209.85 4965.806)">
      <path id="Path_759" data-name="Path 759" d="M727.9,1177.1h-53.05l6.941-11.91h39.024Z" transform="translate(0)" fill="none" stroke="#56207d" stroke-linejoin="round" stroke-miterlimit="10" stroke-width="2"/>
      <path id="Path_760" data-name="Path 760" d="M674.849,1172.333a6.632,6.632,0,0,0,13.264,0" transform="translate(0 4.77)" fill="none" stroke="#56207d" stroke-linejoin="round" stroke-miterlimit="10" stroke-width="2"/>
      <path id="Path_761" data-name="Path 761" d="M682.8,1172.333a6.631,6.631,0,0,0,13.262,0" transform="translate(5.313 4.77)" fill="none" stroke="#56207d" stroke-linejoin="round" stroke-miterlimit="10" stroke-width="2"/>
      <path id="Path_762" data-name="Path 762" d="M690.75,1172.333a6.631,6.631,0,0,0,13.262,0" transform="translate(10.625 4.77)" fill="none" stroke="#56207d" stroke-linejoin="round" stroke-miterlimit="10" stroke-width="2"/>
      <path id="Path_763" data-name="Path 763" d="M698.7,1172.333a6.632,6.632,0,0,0,13.264,0" transform="translate(15.937 4.77)" fill="none" stroke="#56207d" stroke-linejoin="round" stroke-miterlimit="10" stroke-width="2"/>
      <path id="Path_764" data-name="Path 764" d="M722.881,1175.84v24.874H676.952V1175.84" transform="translate(1.405 7.114)" fill="none" stroke="#56207d" stroke-linejoin="round" stroke-miterlimit="10" stroke-width="2"/>
      <line id="Line_221" data-name="Line 221" x2="49.738" transform="translate(676.462 1207.829)" fill="none" stroke="#56207d" stroke-miterlimit="10" stroke-width="2"/>
      <rect id="Rectangle_716" data-name="Rectangle 716" width="22.956" height="16.048" transform="translate(682.626 1187.477)" fill="none" stroke="#56207d" stroke-linejoin="round" stroke-miterlimit="10" stroke-width="2"/>
      <rect id="Rectangle_717" data-name="Rectangle 717" width="10.245" height="20.352" transform="translate(709.791 1187.477)" fill="none" stroke="#56207d" stroke-linejoin="round" stroke-miterlimit="10" stroke-width="2"/>
      <line id="Line_222" data-name="Line 222" x2="10.245" transform="translate(709.791 1203.524)" fill="none" stroke="#56207d" stroke-miterlimit="10" stroke-width="2"/>
    </g>
  </g>
</svg>
