<svg width="20" height="20" viewBox="0 0 20 20" fill="none" xmlns="http://www.w3.org/2000/svg">
<path d="M18.6139 12.577L16.7104 10.9624C16.8064 10.3242 16.8064 9.67491 16.7104 9.0367L18.6139 7.42207C18.6825 7.36435 18.7287 7.28383 18.7443 7.19481C18.7598 7.10579 18.7436 7.01407 18.6986 6.93601L16.9654 3.89395C16.9209 3.81633 16.8509 3.75703 16.7676 3.72638C16.6844 3.69573 16.5931 3.6957 16.5098 3.72628L14.1818 4.58823C13.6795 4.19074 13.1243 3.86729 12.5326 3.62743L12.1041 1.14843C12.0888 1.06002 12.0432 0.979917 11.9754 0.922257C11.9075 0.864597 11.8217 0.833056 11.7332 0.833253H8.26683C8.17827 0.833056 8.09249 0.864597 8.02462 0.922257C7.95675 0.979917 7.91117 1.06002 7.8959 1.14843L7.4674 3.62743C6.87585 3.86762 6.32066 4.19105 5.81818 4.58823L3.49024 3.72628C3.40698 3.6952 3.31553 3.69499 3.23212 3.72568C3.14872 3.75638 3.07875 3.81597 3.03456 3.89395L1.30137 6.93601C1.25638 7.01407 1.24023 7.10579 1.25574 7.19481C1.27126 7.28383 1.31747 7.36435 1.38612 7.42207L3.28955 9.0367C3.19372 9.67492 3.19372 10.3242 3.28955 10.9624L1.38612 12.577C1.31747 12.6347 1.27126 12.7152 1.25574 12.8042C1.24023 12.8933 1.25638 12.985 1.30137 13.063L3.03456 16.1051C3.07898 16.1828 3.149 16.2423 3.23232 16.2729C3.31564 16.3036 3.40695 16.3036 3.49024 16.2728L5.81818 15.4108C6.32046 15.8083 6.87569 16.1318 7.4674 16.3717L7.8959 18.8507C7.91115 18.9392 7.95672 19.0193 8.02457 19.0771C8.09242 19.1349 8.1782 19.1666 8.26683 19.1666H11.7332C11.8218 19.1666 11.9076 19.1349 11.9755 19.0771C12.0433 19.0193 12.0889 18.9392 12.1041 18.8507L12.5326 16.3717C13.1243 16.1318 13.6795 15.8083 14.1818 15.4108L16.5098 16.2728C16.5931 16.3032 16.6843 16.3031 16.7675 16.2725C16.8508 16.2418 16.9208 16.1826 16.9654 16.1051L18.6986 13.0606C18.743 12.9828 18.7588 12.8916 18.7433 12.8031C18.7278 12.7147 18.6819 12.6346 18.6139 12.577ZM10 13.5726C9.30338 13.5726 8.62235 13.3633 8.04311 12.9711C7.46387 12.5789 7.01244 12.0214 6.74584 11.3691C6.47925 10.7169 6.40949 9.99923 6.5454 9.30682C6.68131 8.61442 7.01676 7.97837 7.50936 7.47918C8.00196 6.97998 8.62961 6.64004 9.31287 6.50231C9.99612 6.36458 10.7043 6.43527 11.3479 6.70544C11.9916 6.9756 12.5417 7.43308 12.9287 8.02007C13.3157 8.60707 13.5223 9.29721 13.5223 10.0032C13.5211 10.9495 13.1496 11.8566 12.4893 12.5258C11.829 13.1949 10.9338 13.5713 10 13.5726V13.5726Z" stroke="#521F85" stroke-width="1.5" stroke-linecap="round" stroke-linejoin="round"/>
</svg>
