<svg width="20" height="20" viewBox="0 0 20 20" fill="none" xmlns="http://www.w3.org/2000/svg">
<path d="M10.0002 19.1666C15.0628 19.1666 19.1668 15.0625 19.1668 9.99992C19.1668 4.93731 15.0628 0.833252 10.0002 0.833252C4.93755 0.833252 0.833496 4.93731 0.833496 9.99992C0.833496 15.0625 4.93755 19.1666 10.0002 19.1666Z" stroke="#521F85" stroke-width="1.5" stroke-linecap="round" stroke-linejoin="round"/>
<path d="M10.0003 19.1666C11.8113 19.1666 13.2794 15.0625 13.2794 9.99992C13.2794 4.93731 11.8113 0.833252 10.0003 0.833252C8.18929 0.833252 6.72119 4.93731 6.72119 9.99992C6.72119 15.0625 8.18929 19.1666 10.0003 19.1666Z" stroke="#521F85" stroke-width="1.5" stroke-linecap="round" stroke-linejoin="round"/>
<path d="M0.833496 10H19.1668" stroke="#521F85" stroke-width="1.5" stroke-linecap="round" stroke-linejoin="round"/>
<path d="M2.4043 5.61108H17.5951" stroke="#521F85" stroke-width="1.5" stroke-linecap="round" stroke-linejoin="round"/>
<path d="M2.4043 14.4363H17.5951" stroke="#521F85" stroke-width="1.5" stroke-linecap="round" stroke-linejoin="round"/>
</svg>
