<?xml version="1.0" encoding="UTF-8"?>
<svg xmlns="http://www.w3.org/2000/svg" xmlns:xlink="http://www.w3.org/1999/xlink" width="52pt" height="61pt" viewBox="0 0 52 61" version="1.1">
<g id="surface1">
<path style=" stroke:none;fill-rule:nonzero;fill:rgb(100%,100%,100%);fill-opacity:1;" d="M 27.695312 1.230469 C 15.058594 1.230469 4.734375 11.371094 4.734375 23.96875 L 4.734375 27.042969 L 1.34375 38.414062 C 1.035156 39.335938 1.5 40.257812 2.421875 40.5625 L 8.277344 42.5625 L 8.277344 50.707031 C 8.277344 51.628906 9.050781 52.394531 9.972656 52.394531 L 18.757812 52.394531 L 18.757812 58.234375 C 18.757812 59.15625 19.527344 59.925781 20.453125 59.925781 L 41.410156 59.925781 C 42.335938 59.925781 43.105469 59.15625 43.105469 58.234375 L 43.105469 40.871094 C 47.882812 36.570312 50.5 30.421875 50.5 23.96875 C 50.65625 11.371094 40.332031 1.230469 27.695312 1.230469 Z M 27.695312 1.230469 "/>
<path style=" stroke:none;fill-rule:nonzero;fill:rgb(72.156863%,75.294118%,80%);fill-opacity:1;" d="M 41.5625 61 L 20.453125 61 C 18.910156 61 17.523438 59.769531 17.523438 58.082031 L 17.523438 53.316406 L 9.972656 53.316406 C 8.433594 53.316406 7.046875 52.089844 7.046875 50.398438 L 7.046875 43.175781 L 2.113281 41.484375 C 0.574219 41.023438 -0.195312 39.488281 0.265625 37.953125 L 3.65625 26.890625 L 3.65625 24.125 C 3.65625 10.753906 14.441406 0 27.695312 0 C 40.949219 0 51.734375 10.753906 51.734375 23.96875 C 51.734375 30.578125 48.960938 36.875 44.335938 41.332031 L 44.335938 58.082031 C 44.335938 59.769531 43.105469 61 41.5625 61 Z M 27.695312 2.304688 C 15.675781 2.304688 5.96875 11.984375 5.96875 23.96875 L 5.96875 27.042969 C 5.96875 27.195312 5.96875 27.195312 5.96875 27.351562 L 2.578125 38.71875 C 2.421875 39.027344 2.578125 39.335938 2.886719 39.488281 L 8.742188 41.484375 C 9.050781 41.484375 9.359375 41.945312 9.359375 42.40625 L 9.359375 50.550781 C 9.359375 50.859375 9.664062 51.167969 9.972656 51.167969 L 18.757812 51.167969 C 19.375 51.167969 19.988281 51.628906 19.988281 52.394531 L 19.988281 58.234375 C 19.988281 58.542969 20.296875 58.847656 20.605469 58.847656 L 41.5625 58.847656 C 41.871094 58.847656 42.179688 58.542969 42.179688 58.234375 L 42.179688 40.871094 C 42.179688 40.5625 42.335938 40.257812 42.488281 39.949219 C 46.957031 35.800781 49.578125 29.960938 49.578125 23.96875 C 49.578125 11.984375 39.714844 2.304688 27.695312 2.304688 Z M 4.734375 27.042969 Z M 4.734375 27.042969 "/>
<path style=" stroke:none;fill-rule:nonzero;fill:rgb(32.54902%,12.54902%,52.156863%);fill-opacity:1;" d="M 28.621094 32.113281 C 28.003906 32.113281 27.539062 31.652344 27.539062 31.039062 C 27.539062 30.730469 27.078125 24.585938 30.929688 20.898438 C 33.089844 18.746094 36.171875 17.976562 40.023438 18.4375 C 40.484375 18.4375 40.949219 18.898438 40.949219 19.359375 C 40.949219 19.515625 41.871094 23.96875 39.097656 27.65625 C 37.25 30.269531 33.703125 31.804688 28.621094 32.113281 C 28.773438 32.113281 28.621094 32.113281 28.621094 32.113281 Z M 38.171875 20.589844 C 35.863281 20.589844 34.011719 21.203125 32.625 22.585938 C 30.46875 24.738281 30.007812 27.964844 29.851562 29.808594 C 33.398438 29.347656 35.863281 28.273438 37.402344 26.273438 C 38.945312 24.277344 38.945312 21.972656 38.945312 20.742188 C 38.636719 20.589844 38.328125 20.589844 38.171875 20.589844 Z M 38.171875 20.589844 "/>
<path style=" stroke:none;fill-rule:nonzero;fill:rgb(32.54902%,12.54902%,52.156863%);fill-opacity:1;" d="M 28.621094 32.113281 C 23.6875 31.804688 20.144531 30.269531 17.988281 27.503906 C 15.214844 23.816406 16.136719 19.515625 16.136719 19.207031 C 16.292969 18.746094 16.601562 18.4375 17.0625 18.285156 C 20.914062 17.824219 23.996094 18.746094 26.152344 20.742188 C 30.007812 24.429688 29.699219 30.578125 29.542969 30.882812 C 29.699219 31.652344 29.234375 32.113281 28.621094 32.113281 Z M 18.449219 20.589844 C 18.296875 21.820312 18.449219 24.125 19.988281 26.121094 C 21.53125 28.117188 23.996094 29.195312 27.539062 29.65625 C 27.386719 27.964844 26.925781 24.585938 24.765625 22.433594 C 23.226562 21.203125 21.070312 20.4375 18.449219 20.589844 Z M 18.449219 20.589844 "/>
<path style=" stroke:none;fill-rule:nonzero;fill:rgb(32.54902%,12.54902%,52.156863%);fill-opacity:1;" d="M 24.921875 22.28125 C 24.460938 22.28125 23.996094 21.972656 23.84375 21.359375 C 22.457031 15.828125 26.152344 11.832031 28.15625 10.449219 C 28.621094 10.140625 29.082031 10.140625 29.542969 10.449219 C 34.320312 14.289062 34.628906 18.285156 34.011719 20.898438 C 33.859375 21.511719 33.242188 21.972656 32.625 21.820312 C 32.011719 21.664062 31.546875 21.050781 31.703125 20.4375 C 32.316406 17.671875 31.394531 15.058594 28.773438 12.753906 C 27.539062 13.828125 25.074219 16.441406 26.152344 20.589844 C 26.308594 21.203125 26 21.820312 25.382812 21.972656 C 25.074219 22.28125 25.074219 22.28125 24.921875 22.28125 Z M 24.921875 22.28125 "/>
</g>
</svg>
