<?xml version="1.0" encoding="UTF-8"?>
<svg xmlns="http://www.w3.org/2000/svg" xmlns:xlink="http://www.w3.org/1999/xlink" width="52pt" height="52pt" viewBox="0 0 52 52" version="1.1">
<g id="surface1">
<path style=" stroke:none;fill-rule:nonzero;fill:rgb(100%,100%,100%);fill-opacity:1;" d="M 8.125 27.761719 L 21.800781 41.980469 L 27.894531 43.738281 L 36.5625 39.675781 L 40.761719 32.636719 L 41.300781 21.394531 L 40.761719 15.03125 L 38.457031 14.355469 L 36.019531 14.625 L 33.855469 11.375 L 30.738281 11.78125 L 27.625 8.667969 L 23.832031 11.375 L 19.90625 12.59375 L 19.5 30.738281 L 12.59375 26 C 12.59375 26 8.800781 24.917969 8.125 27.761719 Z M 8.125 27.761719 "/>
<path style=" stroke:none;fill-rule:nonzero;fill:rgb(72.156863%,75.294118%,80%);fill-opacity:1;" d="M 30.332031 23.15625 C 29.792969 23.15625 29.25 22.75 29.25 22.074219 L 29.25 11.238281 C 29.25 10.292969 28.4375 9.613281 27.625 9.613281 C 26.8125 9.613281 26 10.425781 26 11.238281 L 26 18.144531 C 26 18.6875 25.59375 19.230469 24.917969 19.230469 C 24.238281 19.230469 23.832031 18.824219 23.832031 18.144531 L 23.832031 11.375 C 23.832031 9.34375 25.457031 7.71875 27.488281 7.71875 C 29.519531 7.71875 31.144531 9.34375 31.144531 11.375 L 31.144531 22.207031 C 31.28125 22.613281 30.875 23.15625 30.332031 23.15625 Z M 30.332031 23.15625 "/>
<path style=" stroke:none;fill-rule:nonzero;fill:rgb(72.156863%,75.294118%,80%);fill-opacity:1;" d="M 35.75 25.730469 C 35.207031 25.730469 34.667969 25.324219 34.667969 24.644531 L 34.667969 13.949219 C 34.667969 13 33.855469 12.324219 33.042969 12.324219 C 32.230469 12.324219 31.417969 13.136719 31.417969 13.949219 C 31.417969 14.488281 31.011719 15.03125 30.332031 15.03125 C 29.65625 15.03125 29.25 14.625 29.25 13.949219 C 29.25 11.917969 30.875 10.292969 32.90625 10.292969 C 34.9375 10.292969 36.5625 11.917969 36.5625 13.949219 L 36.5625 24.644531 C 36.699219 25.324219 36.292969 25.730469 35.75 25.730469 Z M 35.75 25.730469 "/>
<path style=" stroke:none;fill-rule:nonzero;fill:rgb(72.156863%,75.294118%,80%);fill-opacity:1;" d="M 27.355469 44.417969 C 23.699219 44.417969 20.582031 43.0625 17.46875 39.8125 C 14.625 36.96875 7.3125 28.4375 7.042969 28.167969 C 6.90625 27.894531 6.769531 27.625 6.769531 27.355469 C 6.769531 27.082031 6.90625 26.8125 7.175781 26.675781 C 8.800781 25.324219 12.863281 23.5625 15.980469 26.8125 C 17.0625 27.894531 17.875 28.707031 18.417969 29.25 L 18.417969 13.949219 C 18.417969 11.917969 20.042969 10.292969 22.074219 10.292969 C 24.105469 10.292969 25.730469 11.917969 25.730469 13.949219 C 25.730469 14.488281 25.324219 15.03125 24.644531 15.03125 C 23.96875 15.03125 23.5625 14.625 23.5625 13.949219 C 23.5625 13 22.75 12.324219 21.9375 12.324219 C 21.125 12.324219 20.3125 13.136719 20.3125 13.949219 L 20.3125 31.6875 C 20.3125 32.09375 20.042969 32.5 19.636719 32.636719 C 19.230469 32.769531 18.824219 32.636719 18.550781 32.363281 C 18.550781 32.363281 17.605469 31.417969 14.355469 28.167969 C 12.457031 26.269531 10.292969 27.082031 9.074219 27.625 C 11.105469 29.925781 16.386719 36.019531 18.6875 38.324219 C 21.394531 41.03125 23.96875 42.25 27.082031 42.25 C 32.363281 42.25 39.8125 37.644531 39.8125 30.332031 L 39.8125 16.65625 C 39.8125 15.707031 39 15.03125 38.1875 15.03125 C 37.375 15.03125 36.5625 15.84375 36.5625 16.65625 C 36.5625 17.199219 36.15625 17.738281 35.480469 17.738281 C 34.800781 17.738281 34.394531 17.332031 34.394531 16.65625 C 34.394531 14.625 36.019531 13 38.050781 13 C 40.082031 13 41.707031 14.625 41.707031 16.65625 L 41.707031 30.332031 C 42.113281 39.136719 33.582031 44.417969 27.355469 44.417969 Z M 27.355469 44.417969 "/>
<path style=" stroke:none;fill-rule:nonzero;fill:rgb(32.54902%,12.54902%,52.156863%);fill-opacity:1;" d="M 26 52 C 11.644531 52 0 40.355469 0 26 C 0 11.644531 11.644531 0 26 0 C 40.355469 0 52 11.644531 52 26 C 52 40.355469 40.355469 52 26 52 Z M 26 2.03125 C 12.730469 2.03125 2.03125 12.730469 2.03125 26 C 2.03125 39.269531 12.730469 49.96875 26 49.96875 C 39.269531 49.96875 49.96875 39.269531 49.96875 26 C 49.96875 12.730469 39.269531 2.03125 26 2.03125 Z M 26 2.03125 "/>
<path style=" stroke:none;fill-rule:nonzero;fill:rgb(32.54902%,12.54902%,52.156863%);fill-opacity:1;" d="M 43.738281 44.550781 C 43.46875 44.550781 43.199219 44.417969 43.0625 44.28125 L 7.71875 8.9375 C 7.3125 8.53125 7.3125 7.855469 7.71875 7.449219 C 8.125 7.042969 8.800781 7.042969 9.207031 7.449219 L 44.550781 42.792969 C 44.957031 43.199219 44.957031 43.875 44.550781 44.28125 C 44.28125 44.550781 44.011719 44.550781 43.738281 44.550781 Z M 43.738281 44.550781 "/>
</g>
</svg>
