<svg xmlns="http://www.w3.org/2000/svg" width="65.512" height="53" viewBox="0 0 65.512 53">
  <g id="business-and-finance_2_" data-name="business-and-finance (2)" transform="translate(0 -36.019)">
    <g id="Group_620" data-name="Group 620" transform="translate(10.581 51.798)">
      <g id="Group_619" data-name="Group 619" transform="translate(0 0)">
        <path id="Path_789" data-name="Path 789" d="M108.026,155.948a1.052,1.052,0,0,0-1.421-.185l-10.011,7.972-12.916-5.376a.986.986,0,0,0-.927.124l-13.843,9.888a.988.988,0,0,0-.247,1.36.9.9,0,0,0,.8.433,1,1,0,0,0,.556-.185L83.43,160.4l12.978,5.376a1.112,1.112,0,0,0,.989-.124l10.444-8.281A1.052,1.052,0,0,0,108.026,155.948Z" transform="translate(-68.489 -155.569)" fill="#56207d"/>
      </g>
    </g>
    <g id="Group_622" data-name="Group 622" transform="translate(0 57.44)">
      <g id="Group_621" data-name="Group 621" transform="translate(0)">
        <path id="Path_790" data-name="Path 790" d="M64.579,215.22H60.006V186.608a.976.976,0,0,0-.989-.989H49.933a.976.976,0,0,0-.989.989V215.22H45.607V196.5a.976.976,0,0,0-.989-.989H35.472a.976.976,0,0,0-.989.989V215.22H31.146V195.012a.976.976,0,0,0-.989-.989H21.073a.976.976,0,0,0-.989.989V215.22H16.747v-14.4a.976.976,0,0,0-.989-.989H6.612a.976.976,0,0,0-.989.989v14.4H.989a.989.989,0,1,0,0,1.978H64.517a.976.976,0,0,0,.989-.989A.892.892,0,0,0,64.579,215.22Zm-49.871,0H7.6V201.81h7.107Zm14.461,0H22.062V196h7.107Zm14.4,0H36.461V197.484h7.107Zm14.461,0H50.921V187.6h7.107Z" transform="translate(0 -185.619)" fill="#ccc"/>
      </g>
    </g>
    <g id="Rectangle_726" data-name="Rectangle 726" transform="translate(48 36.019)" fill="none" stroke="#56207d" stroke-width="2">
      <path d="M7.5,0h0A7.5,7.5,0,0,1,15,7.5v5.833A1.667,1.667,0,0,1,13.333,15H7.5A7.5,7.5,0,0,1,0,7.5v0A7.5,7.5,0,0,1,7.5,0Z" stroke="none"/>
      <path d="M7.5,1h0A6.5,6.5,0,0,1,14,7.5v5.688a.813.813,0,0,1-.812.813H7.5A6.5,6.5,0,0,1,1,7.5v0A6.5,6.5,0,0,1,7.5,1Z" fill="none"/>
    </g>
  </g>
</svg>
