<svg width="20" height="20" viewBox="0 0 20 20" fill="none" xmlns="http://www.w3.org/2000/svg">
<path d="M5.8335 5.83324C9.29102 5.82501 11.5015 4.55073 13.3205 1.92575C13.5678 1.56658 14.1691 1.87187 14.1668 2.30588V15.3948C14.1668 15.8318 13.57 16.1341 13.3205 15.775C11.5015 13.1492 9.29102 11.6748 5.8335 11.6666V5.83324Z" stroke="#521F85" stroke-width="1.5" stroke-linecap="round" stroke-linejoin="round"/>
<path d="M5.83326 5.83325L3.71196 5.85421C2.94481 5.85421 2.20906 6.16149 1.66661 6.70847C1.12415 7.25545 0.819375 7.99734 0.819375 8.77088C0.819375 9.54443 1.12415 10.2863 1.66661 10.8333C2.20906 11.3802 2.94481 11.6875 3.71196 11.6875L5.83326 11.6666" stroke="#521F85" stroke-width="1.5" stroke-linecap="round" stroke-linejoin="round"/>
<path d="M4.1665 12.0833L4.62758 17.0009C4.67091 17.3708 4.84465 17.7112 5.11561 17.9569C5.38657 18.2027 5.7357 18.3365 6.09615 18.3328C6.45132 18.3415 6.79597 18.2076 7.05768 17.9593C7.31939 17.7109 7.47787 17.3674 7.49984 17.0009L7.08317 12.0833" stroke="#521F85" stroke-width="1.5" stroke-linecap="round" stroke-linejoin="round"/>
<path d="M16.7676 8.76807H19.1934" stroke="#521F85" stroke-width="1.5" stroke-linecap="round" stroke-linejoin="round"/>
<path d="M16.7676 4.60722C17.3422 4.55469 17.8857 4.32275 18.3212 3.94422C18.7567 3.5657 19.0622 3.05975 19.1942 2.49805" stroke="#521F85" stroke-width="1.5" stroke-linecap="round" stroke-linejoin="round"/>
<path d="M16.7676 12.929C17.3421 12.9814 17.8855 13.2132 18.321 13.5916C18.7565 13.97 19.062 14.4757 19.1942 15.0373" stroke="#521F85" stroke-width="1.5" stroke-linecap="round" stroke-linejoin="round"/>
</svg>
