<svg xmlns="http://www.w3.org/2000/svg" width="77.492" height="80.715" viewBox="0 0 77.492 80.715">
  <g id="Group_611" data-name="Group 611" transform="translate(-1088 -6094)">
    <circle id="Ellipse_425" data-name="Ellipse 425" cx="38.5" cy="38.5" r="38.5" transform="translate(1088 6094)" fill="#f2f5fa"/>
    <g id="Group_607" data-name="Group 607" transform="translate(406.437 4962.533)">
      <path id="Path_769" data-name="Path 769" d="M745.137,1187.581v-5.909h-5.963a9.559,9.559,0,1,0-19.118,0H714.2v5.909" transform="translate(3.822 5.046)" fill="#fff" stroke="#532085" stroke-linecap="round" stroke-linejoin="round" stroke-width="2"/>
      <path id="Path_770" data-name="Path 770" d="M724.135,1187.549H711.673a3.108,3.108,0,0,1-3.11-3.109h0a3.11,3.11,0,0,1,3.11-3.11h12.462" transform="translate(0 11.298)" fill="#fff" stroke="#532085" stroke-linecap="round" stroke-linejoin="round" stroke-width="2"/>
      <path id="Path_771" data-name="Path 771" d="M728.928,1181.33h12.207a3.109,3.109,0,0,1,3.108,3.11h0a3.108,3.108,0,0,1-3.108,3.109H728.928" transform="translate(13.811 11.298)" fill="#fff" stroke="#532085" stroke-linecap="round" stroke-linejoin="round" stroke-width="2"/>
      <path id="Path_772" data-name="Path 772" d="M736.446,1199.188h-18.6v-15.469l9.354-5.91,9.251,5.91Z" transform="translate(6.293 8.91)" fill="#fff" stroke="#532085" stroke-linecap="round" stroke-linejoin="round" stroke-width="2"/>
      <rect id="Rectangle_723" data-name="Rectangle 723" width="49.286" height="3.084" transform="translate(708.768 1208.098)" stroke-width="2" stroke="#532085" stroke-linecap="round" stroke-linejoin="round" fill="none"/>
      <line id="Line_229" data-name="Line 229" y2="9.251" transform="translate(711.672 1198.847)" fill="none" stroke="#532085" stroke-linecap="round" stroke-linejoin="round" stroke-width="2"/>
      <line id="Line_230" data-name="Line 230" y2="9.251" transform="translate(754.945 1198.847)" fill="none" stroke="#532085" stroke-linecap="round" stroke-linejoin="round" stroke-width="2"/>
      <line id="Line_231" data-name="Line 231" y1="12.283" transform="translate(730.405 1195.815)" fill="none" stroke="#532085" stroke-linecap="round" stroke-linejoin="round" stroke-width="2"/>
      <line id="Line_232" data-name="Line 232" y1="12.283" transform="translate(736.572 1195.815)" fill="none" stroke="#532085" stroke-linecap="round" stroke-linejoin="round" stroke-width="2"/>
      <rect id="Rectangle_724" data-name="Rectangle 724" width="9.251" height="6.321" transform="translate(733.489 1164.671)" stroke-width="2" stroke="#532085" stroke-linecap="round" stroke-linejoin="round" fill="none"/>
      <line id="Line_233" data-name="Line 233" y2="6.167" transform="translate(733.489 1170.992)" fill="none" stroke="#532085" stroke-linecap="round" stroke-linejoin="round" stroke-width="2"/>
    </g>
  </g>
</svg>
