<?xml version="1.0" encoding="UTF-8"?>
<svg xmlns="http://www.w3.org/2000/svg" xmlns:xlink="http://www.w3.org/1999/xlink" width="81pt" height="55pt" viewBox="0 0 81 55" version="1.1">
<g id="surface1">
<path style=" stroke:none;fill-rule:nonzero;fill:rgb(100%,100%,100%);fill-opacity:1;" d="M 16.425781 23.53125 C 8.144531 23.53125 1.265625 30.476562 1.265625 38.839844 L 1.265625 51.597656 C 1.265625 53.015625 2.386719 54.007812 3.652344 54.007812 L 16.285156 54.007812 C 24.566406 54.007812 31.445312 47.0625 31.445312 38.699219 C 31.445312 30.335938 24.707031 23.53125 16.425781 23.53125 Z M 16.425781 23.53125 "/>
<path style=" stroke:none;fill-rule:nonzero;fill:rgb(72.156863%,75.294118%,80%);fill-opacity:1;" d="M 16.285156 55 L 3.652344 55 C 1.6875 55 0.140625 53.441406 0.140625 51.457031 L 0.140625 38.699219 C 0.140625 29.769531 7.441406 22.398438 16.425781 22.398438 C 25.269531 22.398438 32.429688 29.769531 32.429688 38.699219 C 32.429688 47.769531 25.128906 55 16.285156 55 Z M 16.425781 24.523438 C 8.566406 24.523438 2.246094 30.902344 2.246094 38.839844 L 2.246094 51.597656 C 2.246094 52.308594 2.808594 53.015625 3.652344 53.015625 L 16.285156 53.015625 C 24.007812 53.015625 30.464844 46.636719 30.464844 38.699219 C 30.324219 30.902344 24.144531 24.523438 16.425781 24.523438 Z M 16.425781 24.523438 "/>
<path style=" stroke:none;fill-rule:nonzero;fill:rgb(100%,100%,100%);fill-opacity:1;" d="M 64.574219 23.53125 C 72.855469 23.53125 79.734375 30.476562 79.734375 38.839844 L 79.734375 51.597656 C 79.734375 53.015625 78.613281 54.007812 77.347656 54.007812 L 64.714844 54.007812 C 56.433594 54.007812 49.554688 47.0625 49.554688 38.699219 C 49.554688 30.335938 56.292969 23.53125 64.574219 23.53125 Z M 64.574219 23.53125 "/>
<path style=" stroke:none;fill-rule:nonzero;fill:rgb(72.156863%,75.294118%,80%);fill-opacity:1;" d="M 77.347656 55 L 64.714844 55 C 55.730469 55 48.429688 47.628906 48.429688 38.558594 C 48.429688 29.625 55.589844 22.253906 64.574219 22.253906 C 73.558594 22.253906 80.859375 29.625 80.859375 38.699219 L 80.859375 51.457031 C 80.859375 53.441406 79.3125 55 77.347656 55 Z M 64.574219 24.523438 C 56.855469 24.523438 50.535156 30.902344 50.535156 38.699219 C 50.535156 46.496094 56.855469 53.015625 64.714844 53.015625 L 77.347656 53.015625 C 78.050781 53.015625 78.753906 52.449219 78.753906 51.597656 L 78.753906 38.839844 C 78.753906 30.902344 72.433594 24.523438 64.574219 24.523438 Z M 64.574219 24.523438 "/>
<path style=" stroke:none;fill-rule:nonzero;fill:rgb(32.54902%,12.54902%,52.156863%);fill-opacity:1;" d="M 58.398438 9.496094 L 21.898438 9.496094 C 21.339844 9.496094 20.777344 9.070312 20.777344 8.363281 C 20.777344 7.65625 21.199219 7.230469 21.898438 7.230469 L 58.398438 7.230469 C 58.960938 7.230469 59.519531 7.65625 59.519531 8.363281 C 59.519531 9.070312 58.960938 9.496094 58.398438 9.496094 Z M 58.398438 9.496094 "/>
<path style=" stroke:none;fill-rule:nonzero;fill:rgb(32.54902%,12.54902%,52.156863%);fill-opacity:1;" d="M 28.496094 16.867188 C 28.21875 16.867188 27.9375 16.726562 27.796875 16.585938 L 20.496094 9.214844 C 20.074219 8.789062 20.074219 8.078125 20.496094 7.65625 L 27.9375 0.140625 C 28.359375 -0.285156 29.058594 -0.285156 29.480469 0.140625 C 29.902344 0.566406 29.902344 1.277344 29.480469 1.699219 L 22.742188 8.503906 L 29.339844 15.167969 C 29.761719 15.59375 29.761719 16.300781 29.339844 16.726562 C 29.058594 16.867188 28.777344 16.867188 28.496094 16.867188 Z M 28.496094 16.867188 "/>
<path style=" stroke:none;fill-rule:nonzero;fill:rgb(32.54902%,12.54902%,52.156863%);fill-opacity:1;" d="M 52.363281 16.867188 C 52.082031 16.867188 51.800781 16.726562 51.660156 16.585938 C 51.238281 16.160156 51.238281 15.449219 51.660156 15.027344 L 58.257812 8.363281 L 51.660156 1.699219 C 51.238281 1.277344 51.238281 0.566406 51.660156 0.140625 C 52.082031 -0.285156 52.78125 -0.285156 53.203125 0.140625 L 60.503906 7.65625 C 60.644531 7.796875 60.785156 8.078125 60.785156 8.363281 C 60.785156 8.648438 60.644531 8.929688 60.503906 9.214844 L 53.0625 16.726562 C 52.921875 16.867188 52.640625 16.867188 52.363281 16.867188 Z M 52.363281 16.867188 "/>
</g>
</svg>
