<?xml version="1.0" encoding="UTF-8"?>
<svg xmlns="http://www.w3.org/2000/svg" xmlns:xlink="http://www.w3.org/1999/xlink" width="55pt" height="54pt" viewBox="0 0 55 54" version="1.1">
<g id="surface1">
<path style=" stroke:none;fill-rule:nonzero;fill:rgb(32.54902%,12.54902%,52.156863%);fill-opacity:1;" d="M 13.546875 46.304688 L 5.769531 46.304688 C 4.234375 46.316406 2.761719 45.707031 1.675781 44.617188 C 0.59375 43.527344 -0.0117188 42.042969 0 40.5 L 0 9.449219 C -0.0117188 7.90625 0.59375 6.421875 1.675781 5.332031 C 2.761719 4.242188 4.234375 3.632812 5.769531 3.644531 L 7.242188 3.644531 C 7.53125 3.640625 7.804688 3.753906 8.007812 3.957031 C 8.210938 4.160156 8.320312 4.4375 8.316406 4.726562 C 8.316406 5 8.199219 5.261719 7.992188 5.441406 C 7.785156 5.621094 7.515625 5.707031 7.242188 5.671875 L 5.769531 5.671875 C 3.710938 5.714844 2.054688 7.382812 2.011719 9.449219 L 2.011719 40.5 C 2.054688 42.570312 3.710938 44.234375 5.769531 44.28125 L 13.546875 44.28125 C 13.835938 44.277344 14.109375 44.386719 14.3125 44.59375 C 14.515625 44.796875 14.625 45.074219 14.621094 45.359375 C 14.621094 45.632812 14.503906 45.894531 14.296875 46.074219 C 14.09375 46.257812 13.820312 46.339844 13.546875 46.304688 Z M 13.546875 46.304688 "/>
<path style=" stroke:none;fill-rule:nonzero;fill:rgb(100%,100%,100%);fill-opacity:1;" d="M 52.71875 8.371094 L 26.828125 8.371094 C 25.875 8.351562 25.101562 7.578125 25.085938 6.613281 L 25.085938 2.699219 C 25.101562 1.738281 25.875 0.960938 26.828125 0.945312 L 52.71875 0.945312 C 53.675781 0.960938 54.445312 1.738281 54.464844 2.699219 L 54.464844 6.613281 C 54.445312 7.578125 53.675781 8.351562 52.71875 8.371094 Z M 52.71875 8.371094 "/>
<path style=" stroke:none;fill-rule:nonzero;fill:rgb(72.156863%,75.294118%,80%);fill-opacity:1;" d="M 52.71875 9.316406 L 26.828125 9.316406 C 25.347656 9.3125 24.152344 8.105469 24.144531 6.613281 L 24.144531 2.699219 C 24.152344 1.210938 25.347656 0.00390625 26.828125 0 L 52.71875 0 C 54.199219 0.00390625 55.398438 1.210938 55.402344 2.699219 L 55.402344 6.613281 C 55.398438 8.105469 54.199219 9.3125 52.71875 9.316406 Z M 26.828125 2.023438 C 26.648438 2.015625 26.472656 2.082031 26.34375 2.210938 C 26.214844 2.339844 26.148438 2.519531 26.160156 2.699219 L 26.160156 6.613281 C 26.148438 6.796875 26.214844 6.976562 26.34375 7.105469 C 26.472656 7.234375 26.648438 7.300781 26.828125 7.289062 L 52.71875 7.289062 C 52.902344 7.300781 53.078125 7.234375 53.207031 7.105469 C 53.335938 6.976562 53.402344 6.796875 53.390625 6.613281 L 53.390625 2.699219 C 53.402344 2.519531 53.335938 2.339844 53.207031 2.210938 C 53.078125 2.082031 52.902344 2.015625 52.71875 2.023438 Z M 26.828125 2.023438 "/>
<path style=" stroke:none;fill-rule:nonzero;fill:rgb(100%,100%,100%);fill-opacity:1;" d="M 52.71875 28.621094 L 26.828125 28.621094 C 25.875 28.601562 25.101562 27.828125 25.085938 26.863281 L 25.085938 22.949219 C 25.101562 21.988281 25.875 21.210938 26.828125 21.195312 L 52.71875 21.195312 C 53.675781 21.210938 54.445312 21.988281 54.464844 22.949219 L 54.464844 26.863281 C 54.445312 27.828125 53.675781 28.601562 52.71875 28.621094 Z M 52.71875 28.621094 "/>
<path style=" stroke:none;fill-rule:nonzero;fill:rgb(72.156863%,75.294118%,80%);fill-opacity:1;" d="M 52.71875 29.699219 L 26.828125 29.699219 C 25.347656 29.695312 24.152344 28.488281 24.144531 27 L 24.144531 23.085938 C 24.152344 21.59375 25.347656 20.390625 26.828125 20.386719 L 52.71875 20.386719 C 54.199219 20.390625 55.398438 21.59375 55.402344 23.085938 L 55.402344 27 C 55.398438 28.488281 54.199219 29.695312 52.71875 29.699219 Z M 26.828125 22.410156 C 26.648438 22.398438 26.472656 22.464844 26.34375 22.59375 C 26.214844 22.722656 26.148438 22.902344 26.160156 23.085938 L 26.160156 27 C 26.148438 27.183594 26.214844 27.359375 26.34375 27.488281 C 26.472656 27.617188 26.648438 27.6875 26.828125 27.675781 L 52.71875 27.675781 C 52.902344 27.6875 53.078125 27.617188 53.207031 27.488281 C 53.335938 27.359375 53.402344 27.183594 53.390625 27 L 53.390625 23.085938 C 53.402344 22.902344 53.335938 22.722656 53.207031 22.59375 C 53.078125 22.464844 52.902344 22.398438 52.71875 22.410156 Z M 26.828125 22.410156 "/>
<path style=" stroke:none;fill-rule:nonzero;fill:rgb(100%,100%,100%);fill-opacity:1;" d="M 52.71875 49.003906 L 26.828125 49.003906 C 25.875 48.988281 25.101562 48.210938 25.085938 47.25 L 25.085938 43.335938 C 25.101562 42.371094 25.875 41.597656 26.828125 41.578125 L 52.71875 41.578125 C 53.675781 41.597656 54.445312 42.371094 54.464844 43.335938 L 54.464844 47.25 C 54.445312 48.210938 53.675781 48.988281 52.71875 49.003906 Z M 52.71875 49.003906 "/>
<path style=" stroke:none;fill-rule:nonzero;fill:rgb(72.156863%,75.294118%,80%);fill-opacity:1;" d="M 52.71875 49.949219 L 26.828125 49.949219 C 25.347656 49.945312 24.152344 48.738281 24.144531 47.25 L 24.144531 43.335938 C 24.152344 41.84375 25.347656 40.640625 26.828125 40.636719 L 52.71875 40.636719 C 54.199219 40.640625 55.398438 41.84375 55.402344 43.335938 L 55.402344 47.25 C 55.398438 48.738281 54.199219 49.945312 52.71875 49.949219 Z M 26.828125 42.660156 C 26.648438 42.648438 26.472656 42.714844 26.34375 42.84375 C 26.214844 42.972656 26.148438 43.152344 26.160156 43.335938 L 26.160156 47.25 C 26.148438 47.433594 26.214844 47.609375 26.34375 47.738281 C 26.472656 47.867188 26.648438 47.9375 26.828125 47.925781 L 52.71875 47.925781 C 52.902344 47.9375 53.078125 47.867188 53.207031 47.738281 C 53.335938 47.609375 53.402344 47.433594 53.390625 47.25 L 53.390625 43.335938 C 53.402344 43.152344 53.335938 42.972656 53.207031 42.84375 C 53.078125 42.714844 52.902344 42.648438 52.71875 42.660156 Z M 26.828125 42.660156 "/>
<path style=" stroke:none;fill-rule:nonzero;fill:rgb(32.54902%,12.54902%,52.156863%);fill-opacity:1;" d="M 10.0625 53.324219 C 9.8125 53.320312 9.574219 53.222656 9.390625 53.054688 C 8.988281 52.644531 8.988281 51.980469 9.390625 51.570312 L 15.5625 45.359375 L 9.390625 39.148438 C 8.996094 38.738281 9.003906 38.085938 9.40625 37.679688 C 9.808594 37.277344 10.457031 37.269531 10.867188 37.664062 L 17.707031 44.550781 C 18.109375 44.960938 18.109375 45.621094 17.707031 46.035156 L 10.730469 53.054688 C 10.546875 53.222656 10.308594 53.320312 10.0625 53.324219 Z M 10.0625 53.324219 "/>
<path style=" stroke:none;fill-rule:nonzero;fill:rgb(32.54902%,12.54902%,52.156863%);fill-opacity:1;" d="M 15.695312 5.671875 L 13.953125 5.671875 C 13.664062 5.675781 13.390625 5.5625 13.1875 5.359375 C 12.984375 5.15625 12.875 4.878906 12.878906 4.589844 C 12.851562 4.296875 12.957031 4.003906 13.164062 3.796875 C 13.371094 3.589844 13.660156 3.484375 13.953125 3.511719 L 15.695312 3.511719 C 16.289062 3.511719 16.769531 3.992188 16.769531 4.589844 C 16.769531 5.1875 16.289062 5.671875 15.695312 5.671875 Z M 15.695312 5.671875 "/>
</g>
</svg>
