<?xml version="1.0" encoding="UTF-8"?>
<svg xmlns="http://www.w3.org/2000/svg" xmlns:xlink="http://www.w3.org/1999/xlink" width="493pt" height="400pt" viewBox="0 0 493 400" version="1.1">
<defs>
<filter id="alpha" filterUnits="objectBoundingBox" x="0%" y="0%" width="100%" height="100%">
  <feColorMatrix type="matrix" in="SourceGraphic" values="0 0 0 0 1 0 0 0 0 1 0 0 0 0 1 0 0 0 1 0"/>
</filter>
<mask id="mask0">
  <g filter="url(#alpha)">
<rect x="0" y="0" width="493" height="400" style="fill:rgb(0%,0%,0%);fill-opacity:0.701961;stroke:none;"/>
  </g>
</mask>
<clipPath id="clip1">
  <rect x="0" y="0" width="493" height="400"/>
</clipPath>
<g id="surface5" clip-path="url(#clip1)">
<path style=" stroke:none;fill-rule:nonzero;fill:rgb(91.764706%,93.72549%,95.686275%);fill-opacity:1;" d="M 110.332031 129.203125 C 114.679688 130.328125 119.152344 130.898438 123.640625 130.890625 C 136.875 130.925781 149.617188 125.886719 159.257812 116.808594 C 168.945312 125.8125 181.660156 130.839844 194.875 130.890625 C 209.992188 130.925781 224.371094 124.339844 234.238281 112.863281 C 244.105469 124.339844 258.484375 130.925781 273.605469 130.890625 C 288.207031 130.871094 302.136719 124.746094 312.03125 113.992188 C 321.820312 124.664062 335.589844 130.785156 350.054688 130.890625 C 364.523438 130.996094 378.382812 125.082031 388.324219 114.554688 C 398.183594 124.960938 411.867188 130.863281 426.191406 130.890625 C 430.421875 130.878906 434.632812 130.375 438.75 129.390625 L 438.75 72.675781 L 110.332031 72.675781 Z M 110.332031 129.203125 "/>
</g>
<mask id="mask1">
  <g filter="url(#alpha)">
<rect x="0" y="0" width="493" height="400" style="fill:rgb(0%,0%,0%);fill-opacity:0.4;stroke:none;"/>
  </g>
</mask>
<clipPath id="clip2">
  <rect x="0" y="0" width="493" height="400"/>
</clipPath>
<g id="surface8" clip-path="url(#clip2)">
<path style=" stroke:none;fill-rule:nonzero;fill:rgb(72.156863%,75.294118%,80%);fill-opacity:1;" d="M 203.871094 331.644531 C 194.21875 331.640625 184.664062 329.722656 175.753906 326.007812 C 175.515625 325.898438 175.339844 325.691406 175.265625 325.4375 C 175.195312 325.1875 175.234375 324.914062 175.378906 324.695312 C 175.457031 324.429688 175.664062 324.21875 175.929688 324.144531 C 176.199219 324.066406 176.484375 324.132812 176.691406 324.320312 C 185.378906 327.875 194.671875 329.722656 204.058594 329.765625 C 204.3125 329.75 204.558594 329.84375 204.738281 330.023438 C 204.917969 330.203125 205.011719 330.449219 204.996094 330.703125 C 204.9375 331.269531 204.4375 331.6875 203.871094 331.644531 Z M 203.871094 331.644531 "/>
</g>
<mask id="mask2">
  <g filter="url(#alpha)">
<rect x="0" y="0" width="493" height="400" style="fill:rgb(0%,0%,0%);fill-opacity:0.4;stroke:none;"/>
  </g>
</mask>
<clipPath id="clip3">
  <rect x="0" y="0" width="493" height="400"/>
</clipPath>
<g id="surface11" clip-path="url(#clip3)">
<path style=" stroke:none;fill-rule:nonzero;fill:rgb(72.156863%,75.294118%,80%);fill-opacity:1;" d="M 199.183594 348.355469 C 190.003906 348.289062 180.9375 346.308594 172.566406 342.535156 C 172.328125 342.425781 172.152344 342.214844 172.082031 341.964844 C 172.007812 341.710938 172.050781 341.441406 172.191406 341.21875 C 172.269531 340.953125 172.476562 340.746094 172.746094 340.667969 C 173.011719 340.59375 173.296875 340.660156 173.503906 340.84375 C 181.6875 344.363281 190.46875 346.277344 199.371094 346.480469 C 199.625 346.464844 199.875 346.558594 200.050781 346.738281 C 200.230469 346.917969 200.324219 347.164062 200.308594 347.417969 C 200.308594 347.980469 199.558594 348.355469 199.183594 348.355469 Z M 199.183594 348.355469 "/>
</g>
</defs>
<g id="surface1">
<use xlink:href="#surface5" mask="url(#mask0)"/>
<path style=" stroke:none;fill-rule:nonzero;fill:rgb(91.764706%,93.72549%,95.686275%);fill-opacity:1;" d="M 422.816406 388.167969 L 272.667969 388.167969 C 267.800781 388.167969 263.855469 384.21875 263.855469 379.34375 L 263.855469 348.730469 C 263.855469 343.859375 267.800781 339.90625 272.667969 339.90625 L 422.816406 339.90625 C 427.683594 339.90625 431.625 343.859375 431.625 348.730469 L 431.625 379.34375 C 431.5 384.164062 427.628906 388.042969 422.816406 388.167969 Z M 422.816406 388.167969 "/>
<path style=" stroke:none;fill-rule:nonzero;fill:rgb(72.156863%,75.294118%,80%);fill-opacity:1;" d="M 438.75 315.492188 L 110.332031 315.492188 C 110.078125 315.507812 109.832031 315.414062 109.652344 315.234375 C 109.472656 315.054688 109.378906 314.808594 109.394531 314.554688 L 109.394531 70.046875 C 109.378906 69.792969 109.472656 69.546875 109.652344 69.367188 C 109.832031 69.1875 110.078125 69.09375 110.332031 69.109375 L 438.75 69.109375 C 439.003906 69.09375 439.25 69.1875 439.429688 69.367188 C 439.609375 69.546875 439.703125 69.792969 439.6875 70.046875 L 439.6875 314.554688 C 439.703125 314.808594 439.609375 315.054688 439.429688 315.234375 C 439.25 315.414062 439.003906 315.507812 438.75 315.492188 Z M 111.269531 313.613281 L 437.8125 313.613281 L 437.8125 70.984375 L 111.269531 70.984375 Z M 111.269531 313.613281 "/>
<path style=" stroke:none;fill-rule:nonzero;fill:rgb(91.764706%,93.72549%,95.686275%);fill-opacity:1;" d="M 307.34375 164.695312 L 403.507812 164.695312 L 403.507812 241.316406 L 307.34375 241.316406 Z M 307.34375 164.695312 "/>
<path style=" stroke:none;fill-rule:nonzero;fill:rgb(72.156863%,75.294118%,80%);fill-opacity:1;" d="M 312.78125 270.421875 C 308.226562 270.421875 304.535156 266.722656 304.535156 262.160156 C 304.535156 257.597656 308.226562 253.898438 312.78125 253.898438 C 317.335938 253.898438 321.027344 257.597656 321.027344 262.160156 C 320.988281 266.707031 317.320312 270.382812 312.78125 270.421875 Z M 312.78125 257.464844 C 310.191406 257.464844 308.09375 259.566406 308.09375 262.160156 C 308.09375 264.753906 310.191406 266.855469 312.78125 266.855469 C 315.371094 266.855469 317.46875 264.753906 317.46875 262.160156 C 317.480469 260.910156 316.988281 259.710938 316.109375 258.828125 C 315.226562 257.941406 314.027344 257.453125 312.78125 257.464844 Z M 312.78125 257.464844 "/>
<path style=" stroke:none;fill-rule:nonzero;fill:rgb(91.764706%,93.72549%,95.686275%);fill-opacity:1;" d="M 149.136719 162.066406 L 251.859375 162.066406 L 251.859375 252.394531 L 149.136719 252.394531 Z M 149.136719 162.066406 "/>
<path style=" stroke:none;fill-rule:nonzero;fill:rgb(100%,100%,100%);fill-opacity:1;" d="M 168.441406 260.84375 L 151.199219 260.84375 L 200.496094 153.992188 L 217.742188 153.992188 Z M 168.441406 260.84375 "/>
<path style=" stroke:none;fill-rule:nonzero;fill:rgb(100%,100%,100%);fill-opacity:1;" d="M 185.875 260.84375 L 178.191406 260.84375 L 227.492188 153.992188 L 235.363281 153.992188 Z M 185.875 260.84375 "/>
<path style=" stroke:none;fill-rule:nonzero;fill:rgb(100%,100%,100%);fill-opacity:1;" d="M 320.46875 243.945312 L 357.957031 163.003906 L 375.203125 163.003906 L 337.898438 243.945312 Z M 320.46875 243.945312 "/>
<path style=" stroke:none;fill-rule:nonzero;fill:rgb(100%,100%,100%);fill-opacity:1;" d="M 347.648438 260.84375 L 339.960938 260.84375 L 389.261719 153.992188 L 396.949219 153.992188 Z M 347.648438 260.84375 "/>
<path style=" stroke:none;fill-rule:nonzero;fill:rgb(72.156863%,75.294118%,80%);fill-opacity:1;" d="M 261.230469 261.785156 L 139.761719 261.785156 C 139.507812 261.800781 139.261719 261.707031 139.082031 261.527344 C 138.902344 261.347656 138.808594 261.097656 138.824219 260.84375 L 138.824219 153.992188 C 138.808594 153.738281 138.902344 153.488281 139.082031 153.308594 C 139.261719 153.128906 139.507812 153.035156 139.761719 153.050781 L 261.230469 153.050781 C 261.484375 153.035156 261.730469 153.128906 261.910156 153.308594 C 262.089844 153.488281 262.183594 153.738281 262.167969 153.992188 L 262.167969 260.84375 C 262.136719 261.347656 261.734375 261.75 261.230469 261.785156 Z M 140.699219 259.90625 L 260.292969 259.90625 L 260.292969 154.929688 L 140.699219 154.929688 Z M 140.699219 259.90625 "/>
<path style=" stroke:none;fill-rule:nonzero;fill:rgb(91.764706%,93.72549%,95.686275%);fill-opacity:1;" d="M 85.964844 44.695312 L 85.964844 80.1875 C 85.839844 90.285156 89.789062 100.007812 96.917969 107.148438 C 104.046875 114.289062 113.75 118.246094 123.828125 118.121094 C 133.917969 118.277344 143.636719 114.328125 150.773438 107.179688 C 157.90625 100.03125 161.847656 90.292969 161.695312 80.1875 L 161.695312 44.695312 Z M 85.964844 44.695312 "/>
<path style=" stroke:none;fill-rule:nonzero;fill:rgb(72.156863%,75.294118%,80%);fill-opacity:1;" d="M 123.828125 119.0625 C 113.503906 119.167969 103.574219 115.105469 96.273438 107.792969 C 88.972656 100.480469 84.917969 90.53125 85.027344 80.1875 L 85.027344 44.695312 C 85.011719 44.441406 85.105469 44.195312 85.285156 44.015625 C 85.464844 43.835938 85.710938 43.742188 85.964844 43.757812 L 161.507812 43.757812 C 161.761719 43.742188 162.007812 43.835938 162.1875 44.015625 C 162.367188 44.195312 162.460938 44.441406 162.445312 44.695312 L 162.445312 80.1875 C 162.5625 90.5 158.539062 100.429688 151.277344 107.738281 C 144.011719 115.046875 134.125 119.128906 123.828125 119.0625 Z M 86.902344 45.632812 L 86.902344 80.1875 C 86.902344 100.621094 103.433594 117.183594 123.828125 117.183594 C 144.222656 117.183594 160.757812 100.621094 160.757812 80.1875 L 160.757812 45.632812 Z M 86.902344 45.632812 "/>
<path style=" stroke:none;fill-rule:nonzero;fill:rgb(100%,100%,100%);fill-opacity:1;" d="M 161.507812 44.695312 L 161.507812 80.1875 C 161.507812 101.136719 178.460938 118.121094 199.371094 118.121094 C 220.285156 118.121094 237.238281 101.136719 237.238281 80.1875 L 237.238281 44.695312 Z M 161.507812 44.695312 "/>
<path style=" stroke:none;fill-rule:nonzero;fill:rgb(72.156863%,75.294118%,80%);fill-opacity:1;" d="M 199.371094 119.0625 C 189.050781 119.167969 179.117188 115.105469 171.816406 107.792969 C 164.515625 100.480469 160.464844 90.53125 160.570312 80.1875 L 160.570312 44.695312 C 160.554688 44.441406 160.648438 44.195312 160.828125 44.015625 C 161.007812 43.835938 161.253906 43.742188 161.507812 43.757812 L 237.050781 43.757812 C 237.304688 43.742188 237.550781 43.835938 237.730469 44.015625 C 237.910156 44.195312 238.003906 44.441406 237.988281 44.695312 L 237.988281 80.1875 C 238.167969 90.519531 234.164062 100.484375 226.890625 107.808594 C 219.613281 115.132812 209.6875 119.191406 199.371094 119.0625 Z M 162.445312 45.632812 L 162.445312 80.1875 C 162.445312 100.621094 178.976562 117.183594 199.371094 117.183594 C 219.765625 117.183594 236.300781 100.621094 236.300781 80.1875 L 236.300781 45.632812 Z M 162.445312 45.632812 "/>
<path style=" stroke:none;fill-rule:nonzero;fill:rgb(91.764706%,93.72549%,95.686275%);fill-opacity:1;" d="M 237.238281 44.695312 L 237.238281 80.1875 C 237.238281 101.136719 254.191406 118.121094 275.101562 118.121094 C 296.015625 118.121094 312.96875 101.136719 312.96875 80.1875 L 312.96875 44.695312 Z M 237.238281 44.695312 "/>
<path style=" stroke:none;fill-rule:nonzero;fill:rgb(72.156863%,75.294118%,80%);fill-opacity:1;" d="M 274.914062 119.0625 C 264.59375 119.167969 254.660156 115.105469 247.359375 107.792969 C 240.058594 100.480469 236.007812 90.53125 236.113281 80.1875 L 236.113281 44.695312 C 236.097656 44.441406 236.191406 44.195312 236.371094 44.015625 C 236.550781 43.835938 236.796875 43.742188 237.050781 43.757812 L 312.59375 43.757812 C 312.847656 43.742188 313.09375 43.835938 313.273438 44.015625 C 313.453125 44.195312 313.546875 44.441406 313.53125 44.695312 L 313.53125 80.1875 C 313.710938 90.519531 309.707031 100.484375 302.433594 107.808594 C 295.15625 115.132812 285.230469 119.191406 274.914062 119.0625 Z M 238.175781 45.632812 L 238.175781 80.1875 C 238.175781 100.621094 254.707031 117.183594 275.101562 117.183594 C 295.5 117.183594 312.03125 100.621094 312.03125 80.1875 L 312.03125 45.632812 Z M 238.175781 45.632812 "/>
<path style=" stroke:none;fill-rule:nonzero;fill:rgb(100%,100%,100%);fill-opacity:1;" d="M 312.78125 44.695312 L 312.78125 80.1875 C 312.78125 101.136719 329.734375 118.121094 350.648438 118.121094 C 371.558594 118.121094 388.511719 101.136719 388.511719 80.1875 L 388.511719 44.695312 Z M 312.78125 44.695312 "/>
<path style=" stroke:none;fill-rule:nonzero;fill:rgb(72.156863%,75.294118%,80%);fill-opacity:1;" d="M 350.648438 119.0625 C 340.324219 119.167969 330.390625 115.105469 323.089844 107.792969 C 315.789062 100.480469 311.738281 90.53125 311.84375 80.1875 L 311.84375 44.695312 C 311.828125 44.441406 311.921875 44.195312 312.101562 44.015625 C 312.28125 43.835938 312.527344 43.742188 312.78125 43.757812 L 388.324219 43.757812 C 388.578125 43.742188 388.824219 43.835938 389.003906 44.015625 C 389.183594 44.195312 389.277344 44.441406 389.261719 44.695312 L 389.261719 80.1875 C 389.378906 90.5 385.355469 100.429688 378.09375 107.738281 C 370.832031 115.046875 360.941406 119.128906 350.648438 119.0625 Z M 313.71875 45.632812 L 313.71875 80.1875 C 313.71875 100.621094 330.25 117.183594 350.648438 117.183594 C 371.042969 117.183594 387.574219 100.621094 387.574219 80.1875 L 387.574219 45.632812 Z M 313.71875 45.632812 "/>
<path style=" stroke:none;fill-rule:nonzero;fill:rgb(91.764706%,93.72549%,95.686275%);fill-opacity:1;" d="M 388.324219 44.695312 L 388.324219 80.1875 C 388.324219 101.136719 405.277344 118.121094 426.191406 118.121094 C 447.101562 118.121094 464.054688 101.136719 464.054688 80.1875 L 464.054688 44.695312 Z M 388.324219 44.695312 "/>
<path style=" stroke:none;fill-rule:nonzero;fill:rgb(72.156863%,75.294118%,80%);fill-opacity:1;" d="M 426.191406 119.0625 C 415.867188 119.167969 405.933594 115.105469 398.632812 107.792969 C 391.335938 100.480469 387.28125 90.53125 387.386719 80.1875 L 387.386719 44.695312 C 387.371094 44.441406 387.464844 44.195312 387.644531 44.015625 C 387.824219 43.835938 388.070312 43.742188 388.324219 43.757812 L 463.867188 43.757812 C 464.121094 43.742188 464.367188 43.835938 464.546875 44.015625 C 464.726562 44.195312 464.820312 44.441406 464.804688 44.695312 L 464.804688 80.1875 C 464.988281 90.519531 460.984375 100.484375 453.707031 107.808594 C 446.429688 115.132812 436.503906 119.191406 426.191406 119.0625 Z M 389.261719 45.632812 L 389.261719 80.1875 C 389.261719 100.621094 405.796875 117.183594 426.191406 117.183594 C 446.585938 117.183594 463.117188 100.621094 463.117188 80.1875 L 463.117188 45.632812 Z M 389.261719 45.632812 "/>
<path style=" stroke:none;fill-rule:nonzero;fill:rgb(91.764706%,93.72549%,95.686275%);fill-opacity:1;" d="M 178.003906 0.9375 L 113.519531 0.9375 L 85.964844 44.695312 L 161.507812 44.695312 Z M 178.003906 0.9375 "/>
<path style=" stroke:none;fill-rule:nonzero;fill:rgb(72.156863%,75.294118%,80%);fill-opacity:1;" d="M 161.507812 45.632812 L 85.964844 45.632812 C 85.589844 45.632812 85.402344 45.445312 85.214844 45.070312 C 85.023438 44.785156 85.023438 44.414062 85.214844 44.132812 L 112.769531 0.375 C 112.949219 0.144531 113.226562 0.00390625 113.519531 0 L 178.191406 0 C 178.484375 0.00390625 178.757812 0.144531 178.941406 0.375 C 179.109375 0.65625 179.175781 0.988281 179.128906 1.316406 L 162.445312 45.070312 C 162.265625 45.421875 161.902344 45.640625 161.507812 45.632812 Z M 87.652344 43.757812 L 160.945312 43.757812 L 176.691406 1.878906 L 114.082031 1.878906 Z M 87.652344 43.757812 "/>
<path style=" stroke:none;fill-rule:nonzero;fill:rgb(100%,100%,100%);fill-opacity:1;" d="M 242.675781 0.9375 L 178.003906 0.9375 L 161.507812 44.695312 L 237.238281 44.695312 Z M 242.675781 0.9375 "/>
<path style=" stroke:none;fill-rule:nonzero;fill:rgb(72.156863%,75.294118%,80%);fill-opacity:1;" d="M 237.238281 45.632812 L 161.507812 45.632812 C 161.214844 45.628906 160.9375 45.488281 160.757812 45.257812 C 160.585938 44.976562 160.519531 44.644531 160.570312 44.320312 L 177.066406 0.5625 C 177.441406 0.1875 177.628906 0 178.003906 0 L 242.675781 0 C 242.957031 0.046875 243.21875 0.175781 243.425781 0.375 C 243.574219 0.597656 243.640625 0.863281 243.613281 1.125 L 238.175781 44.882812 C 238.011719 45.277344 237.660156 45.5625 237.238281 45.632812 Z M 162.820312 43.757812 L 236.300781 43.757812 L 241.550781 1.878906 L 178.753906 1.878906 Z M 162.820312 43.757812 "/>
<path style=" stroke:none;fill-rule:nonzero;fill:rgb(91.764706%,93.72549%,95.686275%);fill-opacity:1;" d="M 307.34375 0.9375 L 242.675781 0.9375 L 237.238281 44.695312 L 312.78125 44.695312 Z M 307.34375 0.9375 "/>
<path style=" stroke:none;fill-rule:nonzero;fill:rgb(72.156863%,75.294118%,80%);fill-opacity:1;" d="M 312.78125 45.632812 L 237.238281 45.632812 C 236.957031 45.585938 236.695312 45.457031 236.488281 45.257812 C 236.339844 45.039062 236.273438 44.773438 236.300781 44.507812 L 241.738281 0.75 C 241.738281 0.1875 242.113281 0 242.675781 0 L 307.34375 0 C 307.808594 -0.046875 308.226562 0.289062 308.28125 0.75 L 313.71875 44.507812 C 313.746094 44.773438 313.679688 45.039062 313.53125 45.257812 C 313.382812 45.523438 313.085938 45.671875 312.78125 45.632812 Z M 238.175781 43.757812 L 311.65625 43.757812 L 306.40625 1.878906 L 243.425781 1.878906 Z M 238.175781 43.757812 "/>
<path style=" stroke:none;fill-rule:nonzero;fill:rgb(100%,100%,100%);fill-opacity:1;" d="M 371.828125 0.9375 L 307.34375 0.9375 L 312.78125 44.695312 L 388.324219 44.695312 Z M 371.828125 0.9375 "/>
<path style=" stroke:none;fill-rule:nonzero;fill:rgb(72.156863%,75.294118%,80%);fill-opacity:1;" d="M 388.324219 45.632812 L 312.78125 45.632812 C 312.316406 45.679688 311.902344 45.347656 311.84375 44.882812 L 306.40625 1.125 C 306.378906 0.863281 306.445312 0.597656 306.59375 0.375 C 306.777344 0.144531 307.050781 0.00390625 307.34375 0 L 372.015625 0 C 372.410156 -0.0078125 372.773438 0.210938 372.953125 0.5625 L 389.449219 44.320312 C 389.636719 44.695312 389.449219 44.882812 389.261719 45.257812 C 389.035156 45.539062 388.679688 45.679688 388.324219 45.632812 Z M 313.53125 43.757812 L 387.011719 43.757812 L 371.265625 1.878906 L 308.46875 1.878906 Z M 313.53125 43.757812 "/>
<path style=" stroke:none;fill-rule:nonzero;fill:rgb(91.764706%,93.72549%,95.686275%);fill-opacity:1;" d="M 436.5 0.9375 L 371.828125 0.9375 L 388.324219 44.695312 L 464.054688 44.695312 Z M 436.5 0.9375 "/>
<path style=" stroke:none;fill-rule:nonzero;fill:rgb(72.156863%,75.294118%,80%);fill-opacity:1;" d="M 464.054688 45.632812 L 388.511719 45.632812 C 388.117188 45.640625 387.753906 45.421875 387.574219 45.070312 L 371.078125 1.316406 C 370.890625 0.9375 371.078125 0.75 371.265625 0.375 C 371.445312 0.144531 371.722656 0.00390625 372.015625 0 L 436.6875 0 C 436.980469 0.00390625 437.257812 0.144531 437.4375 0.375 L 464.992188 44.132812 C 465.179688 44.417969 465.179688 44.785156 464.992188 45.070312 C 464.75 45.355469 464.421875 45.554688 464.054688 45.632812 Z M 389.074219 43.757812 L 462.367188 43.757812 L 435.9375 1.878906 L 373.140625 1.878906 Z M 389.074219 43.757812 "/>
<path style=" stroke:none;fill-rule:nonzero;fill:rgb(72.156863%,75.294118%,80%);fill-opacity:1;" d="M 491.570312 315.492188 L 0.816406 315.492188 C 0.324219 315.492188 0 315.285156 0 314.976562 C 0 314.667969 0.324219 314.460938 0.816406 314.460938 L 491.566406 314.460938 C 492.054688 314.460938 492.382812 314.667969 492.382812 314.976562 C 492.382812 315.285156 492.0625 315.492188 491.570312 315.492188 Z M 491.570312 315.492188 "/>
<path style=" stroke:none;fill-rule:nonzero;fill:rgb(100%,100%,100%);fill-opacity:1;" d="M 226.929688 346.480469 L 225.242188 345.726562 C 223.773438 345.105469 222.613281 343.925781 222.015625 342.445312 C 221.417969 340.964844 221.429688 339.308594 222.054688 337.839844 L 233.863281 309.484375 C 234.484375 308.011719 235.664062 306.851562 237.140625 306.25 C 238.617188 305.652344 240.269531 305.667969 241.738281 306.292969 L 243.425781 307.042969 C 244.890625 307.664062 246.054688 308.84375 246.652344 310.324219 C 247.25 311.804688 247.234375 313.460938 246.609375 314.929688 L 234.800781 343.285156 C 233.484375 346.320312 229.980469 347.742188 226.929688 346.480469 Z M 226.929688 346.480469 "/>
<path style=" stroke:none;fill-rule:nonzero;fill:rgb(72.156863%,75.294118%,80%);fill-opacity:1;" d="M 229.175781 347.980469 C 228.269531 347.996094 227.375 347.800781 226.554688 347.417969 L 224.867188 346.667969 C 223.191406 345.929688 221.855469 344.589844 221.117188 342.910156 C 220.367188 341.238281 220.367188 339.324219 221.117188 337.652344 L 232.925781 309.296875 C 233.605469 307.589844 234.945312 306.230469 236.636719 305.523438 C 238.332031 304.816406 240.234375 304.820312 241.925781 305.539062 L 243.613281 306.292969 C 245.316406 306.972656 246.671875 308.3125 247.378906 310.007812 C 248.082031 311.703125 248.078125 313.613281 247.359375 315.304688 L 235.550781 343.660156 C 234.539062 346.296875 231.996094 348.019531 229.175781 347.980469 Z M 227.304688 345.726562 C 229.839844 346.796875 232.761719 345.625 233.863281 343.097656 L 245.671875 314.742188 C 246.738281 312.199219 245.570312 309.273438 243.050781 308.167969 L 241.363281 307.417969 C 238.824219 306.347656 235.902344 307.519531 234.800781 310.046875 L 222.992188 338.402344 C 222.429688 339.65625 222.429688 341.09375 222.992188 342.347656 C 223.5 343.570312 224.433594 344.570312 225.617188 345.164062 Z M 227.304688 345.726562 "/>
<path style=" stroke:none;fill-rule:nonzero;fill:rgb(100%,100%,100%);fill-opacity:1;" d="M 117.082031 230.609375 C 70.652344 230.742188 33.042969 268.414062 32.914062 314.929688 L 32.914062 385.164062 C 32.898438 388.753906 34.316406 392.203125 36.851562 394.742188 C 39.386719 397.28125 42.828125 398.699219 46.410156 398.683594 L 116.519531 398.683594 C 162.949219 398.554688 200.554688 360.878906 200.683594 314.367188 C 200.578125 268.152344 163.210938 230.71875 117.082031 230.609375 Z M 117.082031 230.609375 "/>
<path style=" stroke:none;fill-rule:nonzero;fill:rgb(91.764706%,93.72549%,95.686275%);fill-opacity:1;" d="M 115.957031 230.796875 C 120.285156 230.816406 124.605469 231.128906 128.890625 231.738281 C 94.773438 230.984375 48.285156 256.148438 48.285156 314.367188 L 48.285156 386.480469 C 48.273438 389.621094 49.511719 392.636719 51.730469 394.859375 C 53.949219 397.082031 56.960938 398.324219 60.09375 398.308594 L 44.347656 398.308594 C 41.214844 398.324219 38.203125 397.082031 35.984375 394.859375 C 33.765625 392.636719 32.527344 389.621094 32.539062 386.480469 L 32.539062 314.367188 C 32.644531 268.253906 69.929688 230.902344 115.957031 230.796875 Z M 115.957031 230.796875 "/>
<path style=" stroke:none;fill-rule:nonzero;fill:rgb(72.156863%,75.294118%,80%);fill-opacity:1;" d="M 116.519531 399.4375 L 46.410156 399.4375 C 38.441406 399.4375 31.976562 392.960938 31.976562 384.976562 L 31.976562 314.742188 C 31.863281 280.320312 52.488281 249.230469 84.210938 236.007812 C 115.929688 222.78125 152.484375 230.035156 176.777344 254.375 C 201.074219 278.710938 208.3125 315.332031 195.109375 347.109375 C 181.910156 378.886719 150.875 399.550781 116.519531 399.4375 Z M 117.082031 231.550781 C 71.125 231.578125 33.878906 268.890625 33.851562 314.929688 L 33.851562 384.976562 C 33.851562 391.925781 39.476562 397.558594 46.410156 397.558594 L 116.519531 397.558594 C 162.277344 397.714844 199.5 360.679688 199.652344 314.835938 C 199.808594 268.992188 162.839844 231.703125 117.082031 231.550781 Z M 117.082031 231.550781 "/>
<path style=" stroke:none;fill-rule:nonzero;fill:rgb(72.156863%,75.294118%,80%);fill-opacity:1;" d="M 174.710938 278.8125 C 172.179688 277.886719 168.953125 280.378906 167.503906 284.375 C 166.050781 288.371094 166.925781 292.359375 169.453125 293.28125 C 171.984375 294.203125 175.210938 291.710938 176.660156 287.714844 C 178.113281 283.71875 177.238281 279.734375 174.710938 278.8125 Z M 174.710938 278.8125 "/>
<path style=" stroke:none;fill-rule:nonzero;fill:rgb(72.156863%,75.294118%,80%);fill-opacity:1;" d="M 241.175781 348.542969 C 241.175781 353.417969 237.230469 357.371094 232.363281 357.371094 C 227.5 357.371094 223.554688 353.417969 223.554688 348.542969 C 223.554688 343.671875 227.5 339.71875 232.363281 339.71875 C 237.230469 339.71875 241.175781 343.671875 241.175781 348.542969 Z M 241.175781 348.542969 "/>
<path style=" stroke:none;fill-rule:nonzero;fill:rgb(100%,100%,100%);fill-opacity:1;" d="M 204.246094 310.234375 C 181.566406 311.738281 141.636719 300.09375 141.636719 300.09375 C 139.84375 313.621094 136.578125 326.90625 131.890625 339.71875 C 163.570312 360 190.75 361.503906 190.75 361.503906 C 190.75 361.503906 208.371094 343.285156 204.246094 310.234375 Z M 204.246094 310.234375 "/>
<path style=" stroke:none;fill-rule:nonzero;fill:rgb(72.156863%,75.294118%,80%);fill-opacity:1;" d="M 190.75 362.441406 C 190.375 362.441406 162.820312 360.75 131.328125 340.65625 C 130.9375 340.429688 130.777344 339.945312 130.953125 339.53125 C 135.570312 326.761719 138.835938 313.546875 140.699219 300.09375 C 140.746094 299.8125 140.878906 299.550781 141.074219 299.34375 C 141.292969 299.191406 141.558594 299.125 141.824219 299.15625 C 142.199219 299.34375 181.941406 310.796875 204.058594 309.296875 C 204.523438 309.25 204.9375 309.582031 204.996094 310.046875 C 209.121094 343.097656 191.5 361.878906 191.3125 362.066406 C 191.3125 362.253906 190.9375 362.441406 190.75 362.441406 Z M 133.015625 339.34375 C 161.695312 357.558594 186.8125 360.1875 190.375 360.375 C 192.625 357.933594 206.683594 340.46875 203.496094 311.171875 C 182.875 312.113281 148.761719 302.910156 142.386719 301.21875 C 140.621094 314.226562 137.480469 327.003906 133.015625 339.34375 Z M 133.015625 339.34375 "/>
<use xlink:href="#surface8" mask="url(#mask1)"/>
<use xlink:href="#surface11" mask="url(#mask2)"/>
<path style=" stroke:none;fill-rule:nonzero;fill:rgb(100%,100%,100%);fill-opacity:1;" d="M 163.757812 323.757812 C 163.757812 327.695312 160.566406 330.890625 156.632812 330.890625 C 152.699219 330.890625 149.511719 327.695312 149.511719 323.757812 C 149.511719 319.816406 152.699219 316.621094 156.632812 316.621094 C 160.566406 316.621094 163.757812 319.816406 163.757812 323.757812 Z M 163.757812 323.757812 "/>
<path style=" stroke:none;fill-rule:nonzero;fill:rgb(72.156863%,75.294118%,80%);fill-opacity:1;" d="M 156.632812 331.644531 C 152.195312 331.609375 148.605469 328.015625 148.574219 323.566406 C 148.574219 319.109375 152.183594 315.492188 156.632812 315.492188 C 161.085938 315.492188 164.695312 319.109375 164.695312 323.566406 C 164.695312 328.027344 161.085938 331.644531 156.632812 331.644531 Z M 156.632812 317.558594 C 153.21875 317.558594 150.449219 320.332031 150.449219 323.757812 C 150.449219 327.179688 153.21875 329.953125 156.632812 329.953125 C 160.050781 329.953125 162.820312 327.179688 162.820312 323.757812 C 162.789062 320.34375 160.039062 317.589844 156.632812 317.558594 Z M 156.632812 317.558594 "/>
<path style=" stroke:none;fill-rule:nonzero;fill:rgb(72.156863%,75.294118%,80%);fill-opacity:1;" d="M 173.503906 386.855469 C 142.011719 386.855469 111.269531 352.488281 110.707031 331.832031 C 110.707031 331.3125 111.128906 330.890625 111.644531 330.890625 C 112.164062 330.890625 112.582031 331.3125 112.582031 331.832031 C 113.332031 351.171875 143.699219 384.976562 173.503906 384.976562 C 201.433594 384.976562 220.367188 373.707031 229.738281 351.738281 C 229.863281 351.386719 230.167969 351.132812 230.535156 351.074219 C 230.902344 351.015625 231.269531 351.164062 231.496094 351.457031 C 231.722656 351.753906 231.765625 352.148438 231.613281 352.488281 C 221.867188 375.210938 202.371094 386.855469 173.503906 386.855469 Z M 173.503906 386.855469 "/>
<path style=" stroke:none;fill-rule:nonzero;fill:rgb(72.156863%,75.294118%,80%);fill-opacity:1;" d="M 415.128906 315.492188 L 295.347656 315.492188 C 295.09375 315.507812 294.847656 315.414062 294.667969 315.234375 C 294.488281 315.054688 294.394531 314.808594 294.410156 314.554688 L 294.410156 153.238281 C 294.394531 152.984375 294.488281 152.738281 294.667969 152.558594 C 294.847656 152.378906 295.09375 152.285156 295.347656 152.300781 L 415.128906 152.300781 C 415.382812 152.285156 415.632812 152.378906 415.808594 152.558594 C 415.988281 152.738281 416.082031 152.984375 416.066406 153.238281 L 416.066406 314.554688 C 416.082031 314.808594 415.988281 315.054688 415.808594 315.234375 C 415.632812 315.414062 415.382812 315.507812 415.128906 315.492188 Z M 296.285156 313.613281 L 414.191406 313.613281 L 414.191406 154.179688 L 296.285156 154.179688 Z M 296.285156 313.613281 "/>
<path style=" stroke:none;fill-rule:nonzero;fill:rgb(32.54902%,12.54902%,52.156863%);fill-opacity:1;" d="M 284.101562 361.691406 C 284.617188 361.980469 285.015625 362.449219 285.226562 363.003906 C 285.546875 363.574219 285.675781 364.234375 285.601562 364.882812 C 285.628906 365.9375 285.222656 366.957031 284.476562 367.699219 C 283.710938 368.394531 282.691406 368.734375 281.664062 368.636719 C 280.816406 368.675781 279.972656 368.480469 279.226562 368.074219 C 278.542969 367.621094 278.019531 366.964844 277.726562 366.195312 L 279.414062 365.257812 C 279.601562 365.820312 279.789062 366.386719 280.164062 366.574219 C 280.59375 366.890625 281.132812 367.027344 281.664062 366.949219 C 282.273438 366.964844 282.871094 366.765625 283.351562 366.386719 C 283.726562 365.976562 283.929688 365.4375 283.914062 364.882812 C 284 364.261719 283.792969 363.636719 283.351562 363.191406 C 282.910156 362.75 282.285156 362.539062 281.664062 362.628906 C 280.804688 362.539062 279.957031 362.894531 279.414062 363.566406 L 277.914062 363.378906 L 278.664062 356.996094 L 285.039062 356.996094 L 285.039062 358.496094 L 279.976562 358.496094 L 279.601562 361.503906 L 279.601562 361.691406 C 280.246094 361.046875 281.132812 360.707031 282.039062 360.75 C 282.773438 360.953125 283.46875 361.269531 284.101562 361.691406 Z M 284.101562 361.691406 "/>
<path style=" stroke:none;fill-rule:nonzero;fill:rgb(32.54902%,12.54902%,52.156863%);fill-opacity:1;" d="M 300.035156 358.121094 C 300.808594 358.769531 301.226562 359.746094 301.160156 360.75 C 301.226562 361.703125 300.800781 362.625 300.035156 363.191406 C 299.226562 363.808594 298.238281 364.136719 297.222656 364.132812 L 294.785156 364.132812 L 294.785156 368.261719 L 292.910156 368.261719 L 292.910156 357.183594 L 297.222656 357.183594 C 298.246094 357.109375 299.257812 357.449219 300.035156 358.121094 Z M 298.722656 362.066406 C 299.128906 361.675781 299.335938 361.125 299.285156 360.5625 C 299.285156 359.25 298.535156 358.683594 297.035156 358.683594 L 294.785156 358.683594 L 294.785156 362.628906 L 297.035156 362.628906 C 297.652344 362.675781 298.257812 362.472656 298.722656 362.066406 Z M 298.722656 362.066406 "/>
<path style=" stroke:none;fill-rule:nonzero;fill:rgb(32.54902%,12.54902%,52.156863%);fill-opacity:1;" d="M 314.46875 368.261719 L 312.78125 368.261719 L 312.78125 361.878906 L 312.96875 358.875 L 309.59375 368.449219 L 308.09375 368.449219 L 304.722656 358.875 L 304.910156 361.878906 L 304.910156 368.261719 L 303.222656 368.261719 L 303.222656 357.183594 L 305.84375 357.183594 L 308.09375 363.566406 L 308.84375 366.195312 L 309.59375 363.566406 L 311.84375 357.183594 L 314.46875 357.183594 Z M 314.46875 368.261719 "/>
<path style=" stroke:none;fill-rule:nonzero;fill:rgb(32.54902%,12.54902%,52.156863%);fill-opacity:1;" d="M 328.714844 357.558594 C 329.464844 357.964844 330.109375 358.542969 330.589844 359.25 L 329.277344 360.5625 C 328.996094 360 328.617188 359.488281 328.152344 359.0625 C 327.582031 358.738281 326.925781 358.609375 326.277344 358.683594 C 325.636719 358.699219 325 358.828125 324.402344 359.0625 C 324.050781 359.328125 323.839844 359.746094 323.839844 360.1875 C 323.839844 360.632812 324.050781 361.046875 324.402344 361.316406 C 325.109375 361.683594 325.867188 361.9375 326.652344 362.066406 C 327.503906 362.175781 328.328125 362.429688 329.089844 362.816406 C 329.558594 363.085938 329.996094 363.398438 330.402344 363.757812 C 330.636719 364.222656 330.765625 364.734375 330.777344 365.257812 C 330.792969 365.871094 330.59375 366.46875 330.214844 366.949219 C 329.851562 367.480469 329.324219 367.875 328.714844 368.074219 C 327.988281 368.304688 327.230469 368.433594 326.464844 368.449219 C 324.605469 368.628906 322.800781 367.761719 321.777344 366.195312 L 323.089844 364.882812 C 323.371094 365.5 323.828125 366.023438 324.402344 366.386719 C 325.023438 366.769531 325.738281 366.964844 326.464844 366.949219 C 327.109375 366.953125 327.746094 366.824219 328.339844 366.574219 C 328.75 366.332031 329.027344 365.917969 329.089844 365.445312 C 329.097656 365.050781 328.878906 364.6875 328.527344 364.507812 C 327.863281 364.246094 327.171875 364.058594 326.464844 363.945312 C 325.617188 363.835938 324.792969 363.582031 324.027344 363.191406 C 323.441406 363.039062 322.957031 362.621094 322.714844 362.066406 C 322.503906 361.589844 322.378906 361.082031 322.339844 360.5625 C 322.355469 359.957031 322.550781 359.367188 322.902344 358.875 C 323.3125 358.339844 323.820312 357.894531 324.402344 357.558594 C 325.105469 357.238281 325.882812 357.109375 326.652344 357.183594 C 327.363281 357.046875 328.097656 357.179688 328.714844 357.558594 Z M 328.714844 357.558594 "/>
<path style=" stroke:none;fill-rule:nonzero;fill:rgb(32.54902%,12.54902%,52.156863%);fill-opacity:1;" d="M 334.152344 365.820312 C 334.101562 366.148438 334.167969 366.480469 334.339844 366.761719 C 334.527344 366.949219 334.714844 366.949219 335.089844 366.949219 L 335.652344 366.949219 C 335.855469 366.972656 336.0625 366.90625 336.210938 366.761719 L 336.027344 368.261719 C 335.617188 368.472656 335.171875 368.601562 334.714844 368.636719 C 334.097656 368.6875 333.488281 368.484375 333.027344 368.074219 C 332.589844 367.550781 332.386719 366.875 332.464844 366.195312 L 332.464844 356.242188 L 334.339844 356.242188 L 334.339844 365.820312 Z M 334.152344 365.820312 "/>
<path style=" stroke:none;fill-rule:nonzero;fill:rgb(32.54902%,12.54902%,52.156863%);fill-opacity:1;" d="M 344.085938 360.9375 C 345.585938 362.800781 345.585938 365.460938 344.085938 367.324219 C 342.367188 368.828125 339.804688 368.828125 338.085938 367.324219 C 336.585938 365.460938 336.585938 362.800781 338.085938 360.9375 C 339.804688 359.4375 342.367188 359.4375 344.085938 360.9375 Z M 339.210938 361.878906 C 338.460938 363.285156 338.460938 364.976562 339.210938 366.386719 C 339.644531 366.863281 340.257812 367.136719 340.898438 367.136719 C 341.542969 367.136719 342.15625 366.863281 342.585938 366.386719 C 343.335938 364.976562 343.335938 363.285156 342.585938 361.878906 C 342.199219 361.339844 341.554688 361.054688 340.898438 361.125 C 340.257812 361.140625 339.652344 361.410156 339.210938 361.878906 Z M 339.210938 361.878906 "/>
<path style=" stroke:none;fill-rule:nonzero;fill:rgb(32.54902%,12.54902%,52.156863%);fill-opacity:1;" d="M 352.332031 367.699219 C 352.046875 367.929688 351.734375 368.117188 351.398438 368.261719 C 350.980469 368.429688 350.53125 368.496094 350.085938 368.449219 C 349.414062 368.464844 348.757812 368.269531 348.210938 367.886719 C 347.636719 367.445312 347.347656 366.726562 347.460938 366.007812 L 347.460938 361.316406 L 345.773438 361.316406 L 345.773438 359.8125 L 347.460938 359.8125 L 347.460938 357.933594 L 349.335938 357.371094 L 349.335938 359.8125 L 352.332031 359.8125 L 352.332031 361.316406 L 349.335938 361.316406 L 349.335938 365.820312 C 349.328125 366.171875 349.460938 366.511719 349.710938 366.761719 C 349.957031 367.007812 350.296875 367.144531 350.648438 367.136719 C 351.144531 367.148438 351.625 366.945312 351.957031 366.574219 Z M 352.332031 367.699219 "/>
<path style=" stroke:none;fill-rule:nonzero;fill:rgb(32.54902%,12.54902%,52.156863%);fill-opacity:1;" d="M 358.894531 357.183594 L 363.207031 357.183594 C 364.203125 357.058594 365.210938 357.328125 366.019531 357.933594 C 366.625 358.527344 366.960938 359.339844 366.957031 360.1875 C 366.96875 360.742188 366.769531 361.28125 366.394531 361.691406 C 366.03125 362.15625 365.480469 362.429688 364.894531 362.441406 C 365.558594 362.519531 366.164062 362.855469 366.582031 363.378906 C 366.957031 363.859375 367.15625 364.457031 367.140625 365.070312 C 367.167969 365.960938 366.746094 366.808594 366.019531 367.324219 C 365.128906 367.902344 364.074219 368.167969 363.019531 368.074219 L 358.519531 368.074219 L 358.519531 357.183594 Z M 363.207031 362.066406 C 364.707031 362.066406 365.269531 361.503906 365.269531 360.375 C 365.269531 359.25 364.519531 358.683594 363.207031 358.683594 L 360.769531 358.683594 L 360.769531 361.878906 L 363.207031 361.878906 Z M 363.394531 366.761719 C 363.921875 366.804688 364.449219 366.671875 364.894531 366.386719 C 365.253906 366.042969 365.457031 365.566406 365.457031 365.070312 C 365.457031 364.574219 365.253906 364.097656 364.894531 363.757812 C 364.460938 363.4375 363.921875 363.300781 363.394531 363.378906 L 360.582031 363.378906 L 360.582031 366.761719 Z M 363.394531 366.761719 "/>
<path style=" stroke:none;fill-rule:nonzero;fill:rgb(32.54902%,12.54902%,52.156863%);fill-opacity:1;" d="M 376.140625 360.9375 C 377.640625 362.800781 377.640625 365.460938 376.140625 367.324219 C 374.421875 368.828125 371.859375 368.828125 370.140625 367.324219 C 368.640625 365.460938 368.640625 362.800781 370.140625 360.9375 C 371.859375 359.4375 374.421875 359.4375 376.140625 360.9375 Z M 371.265625 361.878906 C 370.515625 363.285156 370.515625 364.976562 371.265625 366.386719 C 371.699219 366.863281 372.308594 367.136719 372.953125 367.136719 C 373.597656 367.136719 374.210938 366.863281 374.640625 366.386719 C 375.390625 364.976562 375.390625 363.285156 374.640625 361.878906 C 374.253906 361.339844 373.609375 361.054688 372.953125 361.125 C 372.3125 361.140625 371.703125 361.410156 371.265625 361.878906 Z M 371.265625 361.878906 "/>
<path style=" stroke:none;fill-rule:nonzero;fill:rgb(32.54902%,12.54902%,52.156863%);fill-opacity:1;" d="M 385.886719 360.9375 C 387.386719 362.800781 387.386719 365.460938 385.886719 367.324219 C 384.167969 368.828125 381.609375 368.828125 379.890625 367.324219 C 378.390625 365.460938 378.390625 362.800781 379.890625 360.9375 C 381.609375 359.4375 384.167969 359.4375 385.886719 360.9375 Z M 381.015625 361.878906 C 380.265625 363.285156 380.265625 364.976562 381.015625 366.386719 C 381.445312 366.863281 382.058594 367.136719 382.699219 367.136719 C 383.34375 367.136719 383.957031 366.863281 384.386719 366.386719 C 385.136719 364.976562 385.136719 363.285156 384.386719 361.878906 C 384.003906 361.339844 383.359375 361.054688 382.699219 361.125 C 382.0625 361.140625 381.453125 361.410156 381.015625 361.878906 Z M 381.015625 361.878906 "/>
<path style=" stroke:none;fill-rule:nonzero;fill:rgb(32.54902%,12.54902%,52.156863%);fill-opacity:1;" d="M 392.261719 364.320312 L 390.574219 366.007812 L 390.574219 368.261719 L 388.699219 368.261719 L 388.699219 356.054688 L 390.574219 356.054688 L 390.574219 363.945312 L 394.511719 359.8125 L 396.574219 359.8125 L 393.386719 363.191406 L 396.761719 368.261719 L 394.699219 368.261719 Z M 392.261719 364.320312 "/>
<path style=" stroke:none;fill-rule:nonzero;fill:rgb(32.54902%,12.54902%,52.156863%);fill-opacity:1;" d="M 405.382812 364.695312 L 399.195312 364.695312 C 399.292969 365.316406 399.550781 365.898438 399.945312 366.386719 C 400.410156 366.792969 401.019531 366.996094 401.632812 366.949219 C 402.097656 366.9375 402.546875 366.808594 402.945312 366.574219 C 403.292969 366.351562 403.554688 366.019531 403.695312 365.632812 L 405.195312 366.195312 C 404.519531 367.511719 403.097656 368.261719 401.632812 368.074219 C 399.898438 367.996094 398.359375 366.929688 397.679688 365.324219 C 396.996094 363.722656 397.296875 361.871094 398.445312 360.5625 C 399.242188 359.78125 400.332031 359.371094 401.445312 359.4375 C 402.511719 359.332031 403.558594 359.753906 404.257812 360.5625 C 404.980469 361.386719 405.320312 362.480469 405.195312 363.566406 C 405.324219 363.929688 405.386719 364.3125 405.382812 364.695312 Z M 399.945312 361.691406 C 399.550781 362.175781 399.292969 362.761719 399.195312 363.378906 L 403.695312 363.378906 C 403.683594 362.738281 403.414062 362.128906 402.945312 361.691406 C 402.085938 360.9375 400.804688 360.9375 399.945312 361.691406 Z M 399.945312 361.691406 "/>
<path style=" stroke:none;fill-rule:nonzero;fill:rgb(32.54902%,12.54902%,52.156863%);fill-opacity:1;" d="M 414.941406 356.054688 L 414.941406 368.261719 L 413.441406 368.261719 L 413.253906 366.761719 C 413.09375 367.300781 412.671875 367.722656 412.132812 367.886719 C 411.59375 368.101562 411.023438 368.226562 410.445312 368.261719 C 409.390625 368.292969 408.375 367.882812 407.632812 367.136719 C 406.910156 366.238281 406.570312 365.089844 406.695312 363.945312 C 406.664062 362.808594 406.992188 361.6875 407.632812 360.75 C 408.355469 359.972656 409.386719 359.558594 410.445312 359.625 C 411.023438 359.660156 411.59375 359.785156 412.132812 360 C 412.695312 360.1875 412.882812 360.5625 413.253906 361.125 L 413.253906 356.054688 Z M 412.507812 366.195312 C 412.910156 365.585938 413.109375 364.863281 413.070312 364.132812 L 413.070312 363.945312 C 413.109375 363.210938 412.910156 362.488281 412.507812 361.878906 C 412.074219 361.398438 411.460938 361.125 410.820312 361.125 C 410.175781 361.125 409.5625 361.398438 409.132812 361.878906 C 408.75 362.496094 408.554688 363.214844 408.570312 363.945312 C 408.5 364.679688 408.699219 365.414062 409.132812 366.007812 C 409.515625 366.546875 410.164062 366.835938 410.820312 366.761719 C 411.117188 366.917969 411.464844 366.945312 411.78125 366.839844 C 412.101562 366.730469 412.363281 366.5 412.507812 366.195312 Z M 412.507812 366.195312 "/>
</g>
</svg>
