<svg width="20" height="20" viewBox="0 0 20 20" fill="none" xmlns="http://www.w3.org/2000/svg">
<path d="M13.9507 0.833252H6.04966C5.23992 0.833252 4.5835 1.49446 4.5835 2.3101V17.6897C4.5835 18.5054 5.23992 19.1666 6.04966 19.1666H13.9507C14.7604 19.1666 15.4168 18.5054 15.4168 17.6897V2.3101C15.4168 1.49446 14.7604 0.833252 13.9507 0.833252Z" fill="white" stroke="#521F85" stroke-width="1.5" stroke-linecap="round" stroke-linejoin="round"/>
<path d="M8.3335 3.33325H11.6668" stroke="#521F85" stroke-width="1.5" stroke-linecap="round"/>
<path d="M10.0003 17.4999C10.4606 17.4999 10.8337 17.1268 10.8337 16.6666C10.8337 16.2063 10.4606 15.8333 10.0003 15.8333C9.54009 15.8333 9.16699 16.2063 9.16699 16.6666C9.16699 17.1268 9.54009 17.4999 10.0003 17.4999Z" fill="#521F85"/>
</svg>
