<svg xmlns="http://www.w3.org/2000/svg" width="87.34" height="67.532" viewBox="0 0 87.34 67.532">
  <g id="super_support" data-name="super support" transform="translate(-450.647 -405.635)">
    <path id="Path_35" data-name="Path 35" d="M463.634,404.781h54.93l15.647,15.314-41.78,49.686-42.872-48.615Z" transform="translate(2.415 1.854)" fill="none" stroke="#000" stroke-miterlimit="10" stroke-width="2" opacity="0.2"/>
    <g id="Group_11" data-name="Group 11" transform="translate(474.678 411.879)">
      <path id="Path_36" data-name="Path 36" d="M576.247,446.862v-1.6a14.653,14.653,0,0,0-3.821-10.053A13.181,13.181,0,0,0,562.645,431h-1.324a13.181,13.181,0,0,0-9.781,4.207,14.653,14.653,0,0,0-3.821,10.053v1.6a5.756,5.756,0,0,0-5.364,5.732V455.1a5.749,5.749,0,0,0,5.741,5.741h3.234a1.055,1.055,0,0,0,1.052-1.052V447.9a1.055,1.055,0,0,0-1.052-1.052h-1.508v-1.586c0-6.933,4.943-12.157,11.491-12.157h1.324c6.556,0,11.491,5.224,11.491,12.157v1.586h-1.508a1.055,1.055,0,0,0-1.052,1.052v11.885a1.055,1.055,0,0,0,1.052,1.052h1.472c-.43,5.487-4.207,6.758-5.96,7.047a3.7,3.7,0,0,0-3.515-2.551h-2.629a3.694,3.694,0,0,0,0,7.389h2.638A3.7,3.7,0,0,0,568.184,470a9.948,9.948,0,0,0,3.567-1.218c1.9-1.113,4.155-3.383,4.452-7.958a5.748,5.748,0,0,0,5.391-5.732v-2.507A5.726,5.726,0,0,0,576.247,446.862ZM550.3,458.729h-2.183a3.639,3.639,0,0,1-3.637-3.637v-2.507a3.64,3.64,0,0,1,3.637-3.637H550.3Zm14.33,11.885h-2.638a1.587,1.587,0,0,1,0-3.173h2.638a1.587,1.587,0,0,1,0,3.173ZM579.5,455.092a3.639,3.639,0,0,1-3.637,3.637h-2.182v-9.781h2.182a3.639,3.639,0,0,1,3.637,3.637Z" transform="translate(-542.354 -430.998)" fill="#56207d"/>
    </g>
  </g>
</svg>
