<svg xmlns="http://www.w3.org/2000/svg" width="77.731" height="80.383" viewBox="0 0 77.731 80.383">
  <g id="Group_610" data-name="Group 610" transform="translate(-760 -6094)">
    <circle id="Ellipse_424" data-name="Ellipse 424" cx="38.5" cy="38.5" r="38.5" transform="translate(760 6094)" fill="#f2f5fa"/>
    <g id="Group_606" data-name="Group 606" transform="translate(164.482 4965.898)">
      <circle id="Ellipse_422" data-name="Ellipse 422" cx="3.578" cy="3.578" r="3.578" transform="translate(642.999 1200.329)" stroke-width="2" stroke="#532085" stroke-linecap="round" stroke-linejoin="round" fill="none"/>
      <circle id="Ellipse_423" data-name="Ellipse 423" cx="3.578" cy="3.578" r="3.578" transform="translate(658.487 1200.329)" stroke-width="2" stroke="#532085" stroke-linecap="round" stroke-linejoin="round" fill="none"/>
      <path id="Path_767" data-name="Path 767" d="M669.715,1200.328H642.981a3.635,3.635,0,0,1-3.6-3.147l-4.015-29.628a2.832,2.832,0,0,0-2.807-2.451h-2.038" transform="translate(0)" fill="none" stroke="#532085" stroke-linecap="round" stroke-linejoin="round" stroke-width="2"/>
      <path id="Path_768" data-name="Path 768" d="M633.915,1169.439h33.1a3.165,3.165,0,0,1,3.136,3.6l-1.994,14.423a3.7,3.7,0,0,1-3.671,3.2h-27.7" transform="translate(2.06 2.63)" fill="none" stroke="#532085" stroke-linecap="round" stroke-linejoin="round" stroke-width="2"/>
      <line id="Line_226" data-name="Line 226" x2="33.777" transform="translate(637.417 1182.715)" fill="none" stroke="#532085" stroke-linecap="round" stroke-linejoin="round" stroke-width="2"/>
      <line id="Line_227" data-name="Line 227" x2="1.402" y2="21.22" transform="translate(649.163 1172.069)" fill="none" stroke="#532085" stroke-linecap="round" stroke-linejoin="round" stroke-width="2"/>
      <line id="Line_228" data-name="Line 228" x1="1.402" y2="21.22" transform="translate(659.016 1172.069)" fill="none" stroke="#532085" stroke-linecap="round" stroke-linejoin="round" stroke-width="2"/>
    </g>
  </g>
</svg>
