<svg xmlns="http://www.w3.org/2000/svg" width="79.067" height="81.15" viewBox="0 0 79.067 81.15">
  <g id="Group_612" data-name="Group 612" transform="translate(-1392 -6094)">
    <circle id="Ellipse_426" data-name="Ellipse 426" cx="38.5" cy="38.5" r="38.5" transform="translate(1392 6094)" fill="#f2f5fa"/>
    <g id="Group_608" data-name="Group 608" transform="translate(676.166 4967.714)">
      <path id="Path_773" data-name="Path 773" d="M792.2,1175.817v20.861a2.374,2.374,0,0,1-2.373,2.373H747.99a2.373,2.373,0,0,1-2.373-2.373v-20.861" transform="translate(0.461 7.385)" fill="#fff" stroke="#532085" stroke-linecap="round" stroke-linejoin="round" stroke-width="2"/>
      <path id="Path_774" data-name="Path 774" d="M765.679,1185.271l-18.673-4.353a2.75,2.75,0,0,1-2.173-2.687v-7.919a2.75,2.75,0,0,1,2.751-2.75h43.566a2.748,2.748,0,0,1,2.749,2.75v7.919a2.748,2.748,0,0,1-2.171,2.688L773,1185.283" transform="translate(0 2.519)" fill="#fff" stroke="#532085" stroke-linecap="round" stroke-linejoin="round" stroke-width="2"/>
      <rect id="Rectangle_725" data-name="Rectangle 725" width="7.323" height="7.323" transform="translate(765.68 1185.376)" stroke-width="2" stroke="#532085" stroke-linecap="round" stroke-linejoin="round" fill="none"/>
      <path id="Path_775" data-name="Path 775" d="M754.685,1169.351v-3.671a2.393,2.393,0,0,1,2.393-2.393h12.964a2.394,2.394,0,0,1,2.393,2.393v3.671" transform="translate(5.805)" fill="none" stroke="#532085" stroke-linecap="round" stroke-linejoin="round" stroke-width="2"/>
    </g>
  </g>
</svg>
