<svg xmlns="http://www.w3.org/2000/svg" width="114.816" height="112.451" viewBox="0 0 114.816 112.451">
  <g id="group_meetings" data-name="group meetings" transform="translate(-378.388 -331.014)">
    <path id="Path_678" data-name="Path 678" d="M52.86,0a52.86,52.86,0,0,1,52.86,52.86c-.082.3-52.8,52.649-52.86,52.86A52.86,52.86,0,0,1,52.86,0Z" transform="translate(378.388 331.014)" fill="#f0f4f7"/>
    <g id="Group_540" data-name="Group 540" transform="translate(308.323 -135.311)">
      <path id="Path_674" data-name="Path 674" d="M176.477,532.161V503.953a7.731,7.731,0,0,0-7.731-7.731H102.8a7.732,7.732,0,0,0-7.731,7.731v59.221a7.732,7.732,0,0,0,7.731,7.731h33.7" fill="#fff" stroke="#b8c0cc" stroke-linecap="round" stroke-linejoin="round" stroke-width="2"/>
      <line id="Line_156" data-name="Line 156" y2="14.659" transform="translate(113.114 489.325)" fill="#fff" stroke="#b8c0cc" stroke-linecap="round" stroke-linejoin="round" stroke-width="2"/>
      <line id="Line_157" data-name="Line 157" y2="14.659" transform="translate(158.428 489.325)" fill="#fff" stroke="#b8c0cc" stroke-linecap="round" stroke-linejoin="round" stroke-width="2"/>
      <line id="Line_158" data-name="Line 158" x2="81.412" transform="translate(95.065 513.985)" fill="#fff" stroke="#b8c0cc" stroke-linecap="round" stroke-linejoin="round" stroke-width="2"/>
      <g id="Group_539" data-name="Group 539">
        <g id="Group_538" data-name="Group 538">
          <path id="Path_675" data-name="Path 675" d="M172.754,555.628l-3.586-3a11.841,11.841,0,0,0,0-3.579l3.586-3a.71.71,0,0,0,.16-.9l-3.265-5.655a.711.711,0,0,0-.858-.312l-4.386,1.6A12.748,12.748,0,0,0,161.3,539l-.807-4.607a.709.709,0,0,0-.7-.587h-6.53a.71.71,0,0,0-.7.587L151.757,539a12.748,12.748,0,0,0-3.106,1.786l-4.385-1.6a.709.709,0,0,0-.859.312l-3.264,5.655a.708.708,0,0,0,.159.9l3.586,3a11.841,11.841,0,0,0,0,3.579l-3.586,3a.708.708,0,0,0-.159.9l3.264,5.654a.711.711,0,0,0,.859.312l4.385-1.6a12.748,12.748,0,0,0,3.106,1.786l.807,4.607a.711.711,0,0,0,.7.588h6.53a.71.71,0,0,0,.7-.588l.807-4.607a12.748,12.748,0,0,0,3.106-1.786l4.386,1.6a.713.713,0,0,0,.858-.312l3.264-5.654A.708.708,0,0,0,172.754,555.628Zm-16.226,1.844a6.635,6.635,0,1,1,6.635-6.635A6.643,6.643,0,0,1,156.528,557.472Z" fill="#fff" stroke="#b8c0cc" stroke-linecap="round" stroke-linejoin="round" stroke-width="2"/>
        </g>
      </g>
      <path id="Path_676" data-name="Path 676" d="M129.239,550.837a27.289,27.289,0,0,1,27.289-27.289l-3.307,2.7-.195-2.244" fill="none" stroke="#fe5f75" stroke-linecap="round" stroke-linejoin="round" stroke-width="2"/>
      <path id="Path_677" data-name="Path 677" d="M183.881,550.487a27.289,27.289,0,0,1-27.289,27.289l3.307-2.7.194,2.245" fill="none" stroke="#fe5f75" stroke-linecap="round" stroke-linejoin="round" stroke-width="2"/>
    </g>
  </g>
</svg>
