<svg xmlns="http://www.w3.org/2000/svg" xmlns:xlink="http://www.w3.org/1999/xlink" width="150.305" height="218.308" viewBox="0 0 150.305 218.308">
  <defs>
    <clipPath id="clip-path">
      <circle id="Ellipse_477" data-name="Ellipse 477" cx="33.344" cy="33.344" r="33.344" transform="translate(222.219 126.269)" fill="none"/>
    </clipPath>
  </defs>
  <g id="Layer_2-4" data-name="Layer 2-4" transform="translate(-220.871 -40.215)">
    <g id="Layer_1-2-3" data-name="Layer 1-2-3">
      <g id="Group_312" data-name="Group 312">
        <g id="Rectangle_487" data-name="Rectangle 487">
          <path id="Path_588" data-name="Path 588" d="M245.365,54.309h72.189a13.791,13.791,0,0,1,13.75,13.75h0V226.645a13.791,13.791,0,0,1-13.75,13.75H245.365a13.791,13.791,0,0,1-13.75-13.75V68.059A13.791,13.791,0,0,1,245.365,54.309Z" fill="#b8c0cc"/>
        </g>
        <g id="Group_300" data-name="Group 300">
          <g id="Path_426" data-name="Path 426">
            <path id="Path_589" data-name="Path 589" d="M255.106,45.715l-.341,1.035h-1.034a3.938,3.938,0,0,1,0-3.9h0l.917.115.458.917a3.148,3.148,0,0,0-.115,1.031C254.991,45.142,255.106,45.485,255.106,45.715Z" fill="#b8c0cc"/>
          </g>
          <g id="Path_427" data-name="Path 427">
            <path id="Path_590" data-name="Path 590" d="M261.527,44.111a4.378,4.378,0,0,1-1.49,4.01h0l-1.15-.11-.115-1.031a2.31,2.31,0,0,0,1.031-1.26h-2.176V44.111Z" fill="#b8c0cc"/>
          </g>
          <g id="Path_428" data-name="Path 428">
            <path id="Path_591" data-name="Path 591" d="M260.031,48.121h0a4.169,4.169,0,0,1-5.844-.688,1.15,1.15,0,0,0-.458-.573l1.377-1.145a2.427,2.427,0,0,0,3.093,1.49h0c.115,0,.229-.115.344-.229Z" fill="#b8c0cc"/>
          </g>
          <g id="Path_429" data-name="Path 429">
            <path id="Path_592" data-name="Path 592" d="M260.031,41.7l-1.375,1.146a2.416,2.416,0,0,0-3.322.8h0a.6.6,0,0,0-.229.458l-1.373-1.143h0a4.046,4.046,0,0,1,5.386-1.833c.115,0,.115.115.229.115C259.575,41.361,259.8,41.59,260.031,41.7Z" fill="#b8c0cc"/>
          </g>
        </g>
        <g id="Path_430" data-name="Path 430">
          <path id="Path_593" data-name="Path 593" d="M245.938,43.538h-1.6V42.392a.524.524,0,0,1,.458-.573h.688V40.444h-1.15a1.545,1.545,0,0,0-1.6,1.486v.114h0v1.375h-1.15v1.375h1.146v4.469h1.6V44.8h1.154Z" fill="#b8c0cc"/>
        </g>
        <g id="Group_301" data-name="Group 301">
          <g id="Path_431" data-name="Path 431">
            <path id="Path_594" data-name="Path 594" d="M278.026,42.965a4.079,4.079,0,0,0-.229-1.146,2.065,2.065,0,0,0-1.375-1.375,4.079,4.079,0,0,0-1.146-.229h-3.9a4.071,4.071,0,0,0-1.15.229,3.947,3.947,0,0,0-1.371,1.371,4.071,4.071,0,0,0-.229,1.15v3.9a4.079,4.079,0,0,0,.229,1.146,3.947,3.947,0,0,0,1.371,1.371,4.079,4.079,0,0,0,1.146.229h3.9a4.079,4.079,0,0,0,1.146-.229,2.067,2.067,0,0,0,1.375-1.375,4.079,4.079,0,0,0,.229-1.146Zm-1.15,3.667a1.945,1.945,0,0,1-.115.8,1.389,1.389,0,0,1-.8.8,1.946,1.946,0,0,1-.8.115H271.72a1.946,1.946,0,0,1-.8-.115,1.575,1.575,0,0,1-.458-.344c-.115-.115-.229-.344-.344-.458a1.945,1.945,0,0,1-.115-.8V43.194a1.945,1.945,0,0,1,.115-.8,1.575,1.575,0,0,1,.344-.458c.115-.115.344-.229.458-.344a1.946,1.946,0,0,1,.8-.115h3.438a1.946,1.946,0,0,1,.8.115,1.575,1.575,0,0,1,.458.344c.115.115.229.344.344.458a1.946,1.946,0,0,1,.115.8Z" fill="#b8c0cc"/>
          </g>
          <g id="Path_432" data-name="Path 432">
            <path id="Path_595" data-name="Path 595" d="M273.439,42.85a2.063,2.063,0,1,0,2.063,2.063h0a2.055,2.055,0,0,0-2.045-2.063Zm0,3.208a1.146,1.146,0,1,1,1.146-1.146h0a1.13,1.13,0,0,1-1.031,1.146Z" fill="#b8c0cc"/>
          </g>
        </g>
        <g id="Rectangle_488" data-name="Rectangle 488">
          <path id="Path_596" data-name="Path 596" d="M244.22,58.549h72.418a10.27,10.27,0,0,1,10.313,10.227v148.7a10.27,10.27,0,0,1-10.227,10.313H246.283a10.27,10.27,0,0,1-10.313-10.227V66.914A8.388,8.388,0,0,1,244.22,58.549Z" fill="#fff"/>
        </g>
        <g id="Group_302" data-name="Group 302">
          <g id="Path_433" data-name="Path 433">
            <path id="Path_597" data-name="Path 597" d="M278.94,74.132a3.208,3.208,0,1,1-3.209-3.208h0A3.28,3.28,0,0,1,278.94,74.132Zm-1.49,0a1.837,1.837,0,0,0-3.667.229,1.957,1.957,0,0,0,1.833,1.719,1.717,1.717,0,0,0,1.829-1.6c0-.041,0-.081,0-.122C277.45,74.247,277.45,74.247,277.45,74.132Z" fill="#ea4335"/>
          </g>
          <g id="Path_434" data-name="Path 434">
            <path id="Path_598" data-name="Path 598" d="M285.815,74.132a3.208,3.208,0,1,1-3.209-3.208h0a3.279,3.279,0,0,1,3.208,3.208Zm-1.375,0a1.837,1.837,0,1,0-3.667.229,1.957,1.957,0,0,0,1.833,1.719A1.909,1.909,0,0,0,284.44,74.132Z" fill="#fbbc05"/>
          </g>
          <g id="Path_435" data-name="Path 435">
            <path id="Path_599" data-name="Path 599" d="M292.46,71.154v5.729c0,2.406-1.375,3.323-2.979,3.323a3.02,3.02,0,0,1-2.865-1.833l1.26-.458a1.722,1.722,0,0,0,1.6,1.146,1.665,1.665,0,0,0,1.719-1.6v-.688h0a2.331,2.331,0,0,1-1.719.688,3.363,3.363,0,0,1-3.089-3.328,3.424,3.424,0,0,1,3.094-3.094,2.331,2.331,0,0,1,1.719.688h0v-.573Zm-1.26,2.979a1.722,1.722,0,0,0-1.477-1.936l-.123-.012h-.115a1.913,1.913,0,0,0-1.719,2.063,1.95,1.95,0,0,0,1.719,1.719,1.762,1.762,0,0,0,1.719-1.719Z" fill="#4285f4"/>
          </g>
          <g id="Path_436" data-name="Path 436">
            <path id="Path_600" data-name="Path 600" d="M294.637,67.83v9.4h-1.375v-9.4Z" fill="#34a853"/>
          </g>
          <g id="Path_437" data-name="Path 437">
            <path id="Path_601" data-name="Path 601" d="M299.908,75.164l1.031.688a3.067,3.067,0,0,1-2.635,1.375,3.258,3.258,0,0,1-3.209-3.094v-.115a3.043,3.043,0,0,1,2.75-3.208h.229a2.82,2.82,0,0,1,2.75,2.063l.115.344-4.24,1.719a1.536,1.536,0,0,0,1.49.917,1.473,1.473,0,0,0,1.719-.688Zm-3.323-1.146,2.865-1.146a1.26,1.26,0,0,0-1.146-.688,1.762,1.762,0,0,0-1.719,1.719Z" fill="#ea4335"/>
          </g>
          <g id="Path_438" data-name="Path 438">
            <path id="Path_602" data-name="Path 602" d="M267.366,73.33V71.955h4.583c0,.229.115.573.115.8a4.8,4.8,0,0,1-1.146,3.208,4.413,4.413,0,0,1-3.438,1.375,4.985,4.985,0,0,1-.115-9.969h.115a4.851,4.851,0,0,1,3.438,1.375l-.917.917a2.7,2.7,0,0,0-2.406-.917,3.749,3.749,0,0,0-3.556,3.67,3.565,3.565,0,0,0,6.073,2.521,2.331,2.331,0,0,0,.688-1.719Z" fill="#4285f4"/>
          </g>
        </g>
        <g id="Rectangle_489" data-name="Rectangle 489">
          <path id="Path_603" data-name="Path 603" d="M249.376,87.08h63.939a5.674,5.674,0,0,1,5.732,5.615v.114h0a5.674,5.674,0,0,1-5.618,5.729H249.376a5.674,5.674,0,0,1-5.729-5.618v-.111h0a5.674,5.674,0,0,1,5.618-5.729Z" fill="#eaeff4"/>
        </g>
        <g id="Rectangle_490" data-name="Rectangle 490">
          <path id="Path_604" data-name="Path 604" d="M243.532,113.55h45.032a2.645,2.645,0,0,1,2.635,2.521v.115h0a2.645,2.645,0,0,1-2.521,2.635H243.532A2.645,2.645,0,0,1,240.9,116.3v-.115h0a2.593,2.593,0,0,1,2.55-2.635Z" fill="#eaeff4"/>
        </g>
        <g id="Line_65" data-name="Line 65">
          <rect id="Rectangle_527" data-name="Rectangle 527" width="90.981" height="1.146" transform="translate(235.97 106.674)" fill="#f2f2f2"/>
        </g>
        <g id="Path_439" data-name="Path 439">
          <path id="Path_605" data-name="Path 605" d="M243.99,123.175l1.031,1.948,2.177.344-1.6,1.6.344,2.177-1.948-1.031-1.948,1.031.336-2.169-1.6-1.6,2.177-.344Z" fill="#fbbb00"/>
        </g>
        <g id="Path_440" data-name="Path 440">
          <path id="Path_606" data-name="Path 606" d="M251.9,123.175l1.031,1.948,2.177.344-1.6,1.6.344,2.177-1.948-1.031-1.948,1.031.336-2.169-1.6-1.6,2.177-.344Z" fill="#fbbb00"/>
        </g>
        <g id="Path_441" data-name="Path 441">
          <path id="Path_607" data-name="Path 607" d="M259.8,123.175l1.031,1.948,2.177.344-1.6,1.6.344,2.177-1.948-1.031-1.948,1.031.336-2.169-1.6-1.6,2.177-.344Z" fill="#fbbb00"/>
        </g>
        <g id="Path_442" data-name="Path 442">
          <path id="Path_608" data-name="Path 608" d="M267.709,123.175l1.031,1.948,2.177.344-1.6,1.6.344,2.177-1.948-1.031-1.948,1.031.336-2.169-1.6-1.6,2.177-.344Z" fill="#fbbb00"/>
        </g>
        <g id="Path_443" data-name="Path 443">
          <path id="Path_609" data-name="Path 609" d="M275.616,123.175l1.031,1.948,2.177.344-1.6,1.6.344,2.177-1.948-1.031-1.948,1.031.336-2.169-1.6-1.6,2.177-.344Z" fill="#fbbb00"/>
        </g>
        <g id="Rectangle_491" data-name="Rectangle 491">
          <path id="Path_610" data-name="Path 610" d="M243.532,140.592h45.032a2.645,2.645,0,0,1,2.635,2.521v.115h0a2.645,2.645,0,0,1-2.521,2.635H243.532a2.645,2.645,0,0,1-2.635-2.521v-.115h0A2.664,2.664,0,0,1,243.532,140.592Z" fill="#eaeff4"/>
        </g>
        <g id="Line_66" data-name="Line 66">
          <rect id="Rectangle_528" data-name="Rectangle 528" width="90.981" height="1.146" transform="translate(235.97 133.602)" fill="#f2f2f2"/>
        </g>
        <g id="Path_444" data-name="Path 444">
          <path id="Path_611" data-name="Path 611" d="M243.99,150.217l1.031,1.948,2.177.344-1.6,1.6.344,2.177-1.948-1.031-1.948,1.031.336-2.169-1.6-1.6,2.177-.344Z" fill="#fbbb00"/>
        </g>
        <g id="Path_445" data-name="Path 445">
          <path id="Path_612" data-name="Path 612" d="M251.9,150.217l1.031,1.948,2.177.344-1.6,1.6.344,2.177-1.948-1.031-1.948,1.031.336-2.169-1.6-1.6,2.177-.344Z" fill="#fbbb00"/>
        </g>
        <g id="Path_446" data-name="Path 446">
          <path id="Path_613" data-name="Path 613" d="M259.8,150.217l1.031,1.948,2.177.344-1.6,1.6.344,2.177-1.948-1.031-1.948,1.031.336-2.169-1.6-1.6,2.177-.344Z" fill="#fbbb00"/>
        </g>
        <g id="Path_447" data-name="Path 447">
          <path id="Path_614" data-name="Path 614" d="M267.709,150.217l1.031,1.948,2.177.344-1.6,1.6.344,2.177-1.948-1.031-1.948,1.031.336-2.169-1.6-1.6,2.177-.344Z" fill="#fbbb00"/>
        </g>
        <g id="Path_448" data-name="Path 448">
          <path id="Path_615" data-name="Path 615" d="M275.616,150.217l1.031,1.948,2.177.344-1.6,1.6.344,2.177-1.948-1.031-1.948,1.031.336-2.169-1.6-1.6,2.177-.344Z" fill="#fbbb00"/>
        </g>
        <g id="Rectangle_492" data-name="Rectangle 492">
          <path id="Path_616" data-name="Path 616" d="M243.532,167.634h45.032a2.645,2.645,0,0,1,2.635,2.521v.115h0a2.645,2.645,0,0,1-2.521,2.635H243.532a2.645,2.645,0,0,1-2.635-2.521v-.115h0A2.664,2.664,0,0,1,243.532,167.634Z" fill="#f2f2f2"/>
        </g>
        <g id="Line_67" data-name="Line 67">
          <rect id="Rectangle_529" data-name="Rectangle 529" width="90.981" height="1.146" transform="translate(235.97 160.644)" fill="#f2f2f2"/>
        </g>
        <g id="Path_449" data-name="Path 449">
          <path id="Path_617" data-name="Path 617" d="M243.99,177.144l1.031,1.948,2.177.344-1.6,1.6.344,2.177-1.948-1.031-1.948,1.031.336-2.169-1.6-1.6,2.177-.344Z" fill="#fbbb00"/>
        </g>
        <g id="Path_450" data-name="Path 450">
          <path id="Path_618" data-name="Path 618" d="M251.9,177.144l1.031,1.948,2.177.344-1.6,1.6.344,2.177-1.948-1.031-1.948,1.031.336-2.169-1.6-1.6,2.177-.344Z" fill="#fbbb00"/>
        </g>
        <g id="Path_451" data-name="Path 451">
          <path id="Path_619" data-name="Path 619" d="M259.8,177.144l1.031,1.948,2.177.344-1.6,1.6.344,2.177-1.948-1.031-1.948,1.031.336-2.169-1.6-1.6,2.177-.344Z" fill="#fbbb00"/>
        </g>
        <g id="Path_452" data-name="Path 452">
          <path id="Path_620" data-name="Path 620" d="M267.709,177.144l1.031,1.948,2.177.344-1.6,1.6.344,2.177-1.948-1.031-1.948,1.031.336-2.169-1.6-1.6,2.177-.344Z" fill="#fbbb00"/>
        </g>
        <g id="Path_453" data-name="Path 453">
          <path id="Path_621" data-name="Path 621" d="M275.616,177.144l1.031,1.948,2.177.344-1.6,1.6.344,2.177-1.948-1.031-1.948,1.031.336-2.169-1.6-1.6,2.177-.344Z" fill="#fbbb00"/>
        </g>
        <g id="Rectangle_493" data-name="Rectangle 493">
          <path id="Path_622" data-name="Path 622" d="M243.532,195.134h45.032a2.645,2.645,0,0,1,2.635,2.521v.115h0a2.645,2.645,0,0,1-2.521,2.635H243.532a2.645,2.645,0,0,1-2.635-2.521v-.115h0A2.664,2.664,0,0,1,243.532,195.134Z" fill="#eaeff4"/>
        </g>
        <g id="Line_68" data-name="Line 68">
          <rect id="Rectangle_530" data-name="Rectangle 530" width="90.981" height="1.146" transform="translate(235.97 188.145)" fill="#f2f2f2"/>
        </g>
        <g id="Path_454" data-name="Path 454">
          <path id="Path_623" data-name="Path 623" d="M243.99,204.645l1.031,1.948,2.177.344-1.6,1.6.344,2.177-1.948-1.031-1.948,1.031.336-2.169-1.6-1.6,2.177-.344Z" fill="#fbbb00"/>
        </g>
        <g id="Path_455" data-name="Path 455">
          <path id="Path_624" data-name="Path 624" d="M251.9,204.645l1.031,1.948,2.177.344-1.6,1.6.344,2.177-1.948-1.031-1.948,1.031.336-2.169-1.6-1.6,2.177-.344Z" fill="#fbbb00"/>
        </g>
        <g id="Path_456" data-name="Path 456">
          <path id="Path_625" data-name="Path 625" d="M259.8,204.645l1.031,1.948,2.177.344-1.6,1.6.344,2.177-1.948-1.031-1.948,1.031.336-2.169-1.6-1.6,2.177-.344Z" fill="#fbbb00"/>
        </g>
        <g id="Path_457" data-name="Path 457">
          <path id="Path_626" data-name="Path 626" d="M267.709,204.645l1.031,1.948,2.177.344-1.6,1.6.344,2.177-1.948-1.031-1.948,1.031.336-2.169-1.6-1.6,2.177-.344Z" fill="#fbbb00"/>
        </g>
        <g id="Path_458" data-name="Path 458">
          <path id="Path_627" data-name="Path 627" d="M275.616,204.645l1.031,1.948,2.177.344-1.6,1.6.344,2.177-1.948-1.031-1.948,1.031.336-2.169-1.6-1.6,2.177-.344Z" fill="#fbbb00"/>
        </g>
        <g id="Path_459" data-name="Path 459">
          <path id="Path_628" data-name="Path 628" d="M320.763,123.06a4.911,4.911,0,0,1-1.26-.229.42.42,0,0,0-.344.115l-.573.688a6.08,6.08,0,0,1-2.406-2.406l.688-.573a.42.42,0,0,0,.115-.344,4.91,4.91,0,0,1-.229-1.26c0-.115-.115-.344-.229-.344h-1.377c-.229,0-.458.115-.458.344a6.113,6.113,0,0,0,6.073,6.073.3.3,0,0,0,.344-.248.309.309,0,0,0,0-.1h0v-1.26C321.107,123.289,320.99,123.06,320.763,123.06Z" fill="#4285f4"/>
        </g>
        <g id="Path_460" data-name="Path 460">
          <path id="Path_629" data-name="Path 629" d="M320.763,148.612a4.91,4.91,0,0,1-1.26-.229.42.42,0,0,0-.344.115l-.573.688a6.08,6.08,0,0,1-2.406-2.406l.688-.573a.42.42,0,0,0,.115-.344,4.91,4.91,0,0,1-.229-1.26c0-.115-.115-.344-.229-.344h-1.377c-.229,0-.458.115-.458.344a6.113,6.113,0,0,0,6.073,6.073.3.3,0,0,0,.344-.248.309.309,0,0,0,0-.1h0v-1.26C321.107,148.727,320.99,148.612,320.763,148.612Z" fill="#4285f4"/>
        </g>
        <g id="Path_461" data-name="Path 461">
          <path id="Path_630" data-name="Path 630" d="M320.763,176.113a4.911,4.911,0,0,1-1.26-.229.42.42,0,0,0-.344.115l-.573.688a6.08,6.08,0,0,1-2.406-2.406l.688-.573a.42.42,0,0,0,.115-.344,4.91,4.91,0,0,1-.229-1.26c0-.115-.115-.344-.229-.344h-1.377c-.229,0-.458.115-.458.344a6.113,6.113,0,0,0,6.073,6.073.3.3,0,0,0,.344-.248.309.309,0,0,0,0-.1h0v-1.26C321.107,176.342,320.99,176.113,320.763,176.113Z" fill="#4285f4"/>
        </g>
        <g id="Path_462" data-name="Path 462">
          <path id="Path_631" data-name="Path 631" d="M320.763,203.613a4.911,4.911,0,0,1-1.26-.229.42.42,0,0,0-.344.115l-.573.688a6.08,6.08,0,0,1-2.406-2.406l.688-.573a.42.42,0,0,0,.115-.344,4.91,4.91,0,0,1-.229-1.26c0-.115-.115-.344-.229-.344h-1.377c-.229,0-.458.115-.458.344a6.113,6.113,0,0,0,6.073,6.073.3.3,0,0,0,.344-.248.309.309,0,0,0,0-.1h0v-1.26C321.107,203.728,320.99,203.613,320.763,203.613Z" fill="#4285f4"/>
        </g>
        <g id="Group_308" data-name="Group 308">
          <g id="Ellipse_154" data-name="Ellipse 154" opacity="0.4">
            <circle id="Ellipse_181" data-name="Ellipse 181" cx="33.344" cy="33.344" r="33.344" transform="translate(222.219 126.269)" fill="#fff"/>
          </g>
        </g>
        <g id="Group_311" data-name="Group 311">
          <g id="Group_363" data-name="Group 363">
            <g id="Group_691" data-name="Group 691">
              <g id="Group_690" data-name="Group 690" clip-path="url(#clip-path)">
                <g id="Group_362" data-name="Group 362">
                  <g id="Group_310" data-name="Group 310">
                    <g id="Rectangle_495" data-name="Rectangle 495">
                      <path id="Path_634" data-name="Path 634" d="M232.646-4.587H365.8a13.791,13.791,0,0,1,13.75,13.75v272.25a13.791,13.791,0,0,1-13.75,13.75H232.646a13.791,13.791,0,0,1-13.75-13.75V9.163A13.6,13.6,0,0,1,232.345-4.586h.3Z" fill="#b8c0cc"/>
                    </g>
                    <g id="Rectangle_496" data-name="Rectangle 496">
                      <path id="Path_635" data-name="Path 635" d="M234.136,2.174H362.128A10.27,10.27,0,0,1,372.441,12.4V264.574a10.27,10.27,0,0,1-10.227,10.313H236.2a10.27,10.27,0,0,1-10.313-10.227V10.424a8.216,8.216,0,0,1,8.182-8.25Z" fill="#fff"/>
                    </g>
                    <g id="Group_309" data-name="Group 309">
                      <g id="Path_465" data-name="Path 465">
                        <path id="Path_636" data-name="Path 636" d="M294.981,27.153A5.156,5.156,0,1,1,289.824,22h0a5.039,5.039,0,0,1,5.155,4.921c0,.04,0,.081,0,.121Zm-2.292,0a2.771,2.771,0,0,0-2.555-2.971c-.065,0-.13-.008-.2-.008A2.872,2.872,0,0,0,286.96,26.7v.458a2.771,2.771,0,0,0,2.555,2.971c.065.005.13.008.195.008a2.872,2.872,0,0,0,2.979-2.521Z" fill="#ea4335"/>
                      </g>
                      <g id="Path_466" data-name="Path 466">
                        <path id="Path_637" data-name="Path 637" d="M306.1,27.153A5.156,5.156,0,1,1,300.938,22h0a5.039,5.039,0,0,1,5.155,4.921c0,.04,0,.081,0,.121Zm-2.292,0a2.771,2.771,0,0,0-2.555-2.971c-.065,0-.13-.008-.195-.008a2.872,2.872,0,0,0-2.979,2.523v.458a2.771,2.771,0,0,0,2.555,2.971c.065.005.13.008.2.008a2.872,2.872,0,0,0,2.979-2.521Z" fill="#fbbc05"/>
                      </g>
                      <g id="Path_467" data-name="Path 467">
                        <path id="Path_638" data-name="Path 638" d="M316.751,22.341v9.171c0,3.781-2.292,5.386-4.927,5.386a5.012,5.012,0,0,1-4.583-2.986l1.948-.8a3,3,0,0,0,2.635,1.833c1.719,0,2.75-1.031,2.75-2.979v-.688h-.115a3.557,3.557,0,0,1-2.75,1.146,5.141,5.141,0,0,1-4.929-5.345l0-.04h0a5.209,5.209,0,0,1,4.928-4.927,3.557,3.557,0,0,1,2.75,1.146h.115v-.8Zm-2.063,4.927a2.838,2.838,0,0,0-2.521-3.094h-.229a2.935,2.935,0,0,0-2.865,2.979v.229a2.938,2.938,0,0,0,2.75,3.094h.115a3.119,3.119,0,0,0,2.751-3.208Z" fill="#4285f4"/>
                      </g>
                      <g id="Path_468" data-name="Path 468">
                        <path id="Path_639" data-name="Path 639" d="M320.3,16.956V31.967h-2.292V16.956Z" fill="#34a853"/>
                      </g>
                      <g id="Path_469" data-name="Path 469">
                        <path id="Path_640" data-name="Path 640" d="M328.783,28.872l1.719,1.146a5.164,5.164,0,0,1-4.24,2.292,4.989,4.989,0,0,1-5.042-4.927h0v-.229A5.026,5.026,0,0,1,325.8,22h.229a4.538,4.538,0,0,1,4.354,3.323l.229.573-6.875,2.865a2.635,2.635,0,0,0,2.521,1.6A2.849,2.849,0,0,0,328.783,28.872ZM323.4,27.039l4.583-1.948a2.218,2.218,0,0,0-1.948-1.146,3.1,3.1,0,0,0-2.634,3.094Z" fill="#ea4335"/>
                      </g>
                      <g id="Path_470" data-name="Path 470">
                        <path id="Path_641" data-name="Path 641" d="M276.3,25.893V23.716h7.333a4.685,4.685,0,0,1,.115,1.26,6.892,6.892,0,0,1-1.833,5.042,8.021,8.021,0,1,1-5.615-13.75,8.11,8.11,0,0,1,5.5,2.177l-1.6,1.719a5.455,5.455,0,0,0-3.9-1.6,5.787,5.787,0,0,0,0,11.573,5.271,5.271,0,0,0,4.01-1.6,4,4,0,0,0,1.146-2.75Z" fill="#4285f4"/>
                      </g>
                    </g>
                    <g id="Rectangle_497" data-name="Rectangle 497">
                      <path id="Path_642" data-name="Path 642" d="M243.875,48.122H353.763a5.674,5.674,0,0,1,5.729,5.618v7.1a5.674,5.674,0,0,1-5.618,5.729h-110a5.674,5.674,0,0,1-5.729-5.618v-7.1a5.674,5.674,0,0,1,5.618-5.729Z" fill="#eaeff4"/>
                    </g>
                    <g id="Rectangle_498" data-name="Rectangle 498">
                      <path id="Path_643" data-name="Path 643" d="M236.312,90.748h75.741a2.645,2.645,0,0,1,2.635,2.521v3.323a2.645,2.645,0,0,1-2.521,2.635H236.312a2.645,2.645,0,0,1-2.635-2.521V93.383a2.593,2.593,0,0,1,2.55-2.635Z" fill="#eaeff4"/>
                    </g>
                    <g id="Line_70" data-name="Line 70">
                      <rect id="Rectangle_531" data-name="Rectangle 531" width="146.555" height="1.146" transform="translate(225.886 79.862)" fill="#eaeff4"/>
                    </g>
                    <g id="Path_471" data-name="Path 471">
                      <path id="Path_644" data-name="Path 644" d="M238.833,106.217l1.6,3.208,3.552.458-2.521,2.521.573,3.552-3.208-1.719-3.208,1.719.573-3.552-2.517-2.52,3.552-.458Z" fill="#fbbb00"/>
                    </g>
                    <g id="Path_472" data-name="Path 472">
                      <path id="Path_645" data-name="Path 645" d="M251.552,106.217l1.6,3.208,3.552.458-2.521,2.521.573,3.552-3.208-1.6-3.208,1.719.577-3.558L246.4,110l3.552-.458Z" fill="#fbbb00"/>
                    </g>
                    <g id="Path_473" data-name="Path 473">
                      <path id="Path_646" data-name="Path 646" d="M264.271,106.217l1.6,3.208,3.552.458L266.9,112.4l.573,3.552-3.208-1.719-3.208,1.719.573-3.552-2.517-2.52,3.552-.458Z" fill="#fbbb00"/>
                    </g>
                    <g id="Path_474" data-name="Path 474">
                      <path id="Path_647" data-name="Path 647" d="M276.876,106.217l1.6,3.208,3.552.458-2.521,2.521.573,3.552-3.208-1.719-3.208,1.719.573-3.552-2.517-2.52,3.552-.458Z" fill="#fbbb00"/>
                    </g>
                    <g id="Path_475" data-name="Path 475">
                      <path id="Path_648" data-name="Path 648" d="M289.6,106.217l1.6,3.208,3.552.458-2.521,2.521.573,3.552-3.208-1.719-3.208,1.719.573-3.552-2.517-2.52,3.552-.458Z" fill="#fbbb00"/>
                    </g>
                    <g id="Rectangle_499" data-name="Rectangle 499">
                      <path id="Path_649" data-name="Path 649" d="M237.917,134.29h72.532a4.23,4.23,0,0,1,4.24,4.22v.02h0a4.23,4.23,0,0,1-4.22,4.24H237.917a4.23,4.23,0,0,1-4.24-4.22v-.02h0a4.23,4.23,0,0,1,4.22-4.24Z" fill="#eaeff4"/>
                    </g>
                    <g id="Line_71" data-name="Line 71">
                      <rect id="Rectangle_532" data-name="Rectangle 532" width="146.555" height="1.146" transform="translate(225.886 123.405)" fill="#eaeff4"/>
                    </g>
                    <g id="Path_476" data-name="Path 476">
                      <path id="Path_650" data-name="Path 650" d="M238.833,149.759l1.6,3.208,3.552.458-2.521,2.521.573,3.552-3.208-1.719-3.208,1.719.573-3.552-2.517-2.52,3.552-.458Z" fill="#fbbb00"/>
                    </g>
                    <g id="Path_477" data-name="Path 477">
                      <path id="Path_651" data-name="Path 651" d="M251.552,149.759l1.6,3.208,3.552.458-2.521,2.521.573,3.552-3.208-1.719L248.34,159.5l.573-3.552-2.517-2.52,3.552-.458Z" fill="#fbbb00"/>
                    </g>
                    <g id="Path_478" data-name="Path 478">
                      <path id="Path_652" data-name="Path 652" d="M264.271,149.759l1.6,3.208,3.552.458-2.521,2.521.573,3.552-3.208-1.719-3.208,1.719.573-3.552-2.517-2.52,3.552-.458Z" fill="#fbbb00"/>
                    </g>
                    <g id="Path_479" data-name="Path 479">
                      <path id="Path_653" data-name="Path 653" d="M276.876,149.759l1.6,3.208,3.552.458-2.521,2.521.573,3.552-3.208-1.719-3.208,1.719.573-3.552-2.517-2.52,3.552-.458Z" fill="#fbbb00"/>
                    </g>
                    <g id="Path_480" data-name="Path 480">
                      <path id="Path_654" data-name="Path 654" d="M289.6,149.759l1.6,3.208,3.552.458-2.521,2.521.573,3.552-3.208-1.719-3.208,1.719.688-3.552-2.518-2.52,3.552-.458Z" fill="#fbbb00"/>
                    </g>
                    <g id="Rectangle_500" data-name="Rectangle 500">
                      <path id="Path_655" data-name="Path 655" d="M237.917,177.718h72.532a4.23,4.23,0,0,1,4.24,4.22v.02h0a4.23,4.23,0,0,1-4.22,4.24H237.917a4.23,4.23,0,0,1-4.24-4.22v-.02h0A4.305,4.305,0,0,1,237.917,177.718Z" fill="#eaeff4"/>
                    </g>
                    <g id="Rectangle_500-2" data-name="Rectangle 500">
                      <path id="Path_655-2" data-name="Path 655" d="M237.917,222.062h72.532a4.231,4.231,0,0,1,4.24,4.22v.02h0a4.229,4.229,0,0,1-4.22,4.24H237.917a4.229,4.229,0,0,1-4.24-4.219V226.3h0A4.305,4.305,0,0,1,237.917,222.062Z" fill="#eaeff4"/>
                    </g>
                    <g id="Line_72" data-name="Line 72">
                      <rect id="Rectangle_533" data-name="Rectangle 533" width="146.555" height="1.146" transform="translate(225.886 166.833)" fill="#eaeff4"/>
                    </g>
                    <g id="Path_481" data-name="Path 481">
                      <path id="Path_656" data-name="Path 656" d="M238.833,193.187l1.6,3.208,3.552.458-2.521,2.521.573,3.552-3.208-1.719-3.208,1.719.573-3.552-2.517-2.52,3.552-.458Z" fill="#fbbb00"/>
                    </g>
                    <g id="Path_482" data-name="Path 482">
                      <path id="Path_657" data-name="Path 657" d="M251.552,193.187l1.6,3.208,3.552.458-2.521,2.521.573,3.552-3.208-1.719-3.208,1.719.573-3.552-2.517-2.52,3.552-.458Z" fill="#fbbb00"/>
                    </g>
                    <g id="Path_483" data-name="Path 483">
                      <path id="Path_658" data-name="Path 658" d="M264.271,193.187l1.6,3.208,3.552.458-2.521,2.521.573,3.552-3.208-1.719-3.208,1.719.573-3.552-2.517-2.52,3.552-.458Z" fill="#fbbb00"/>
                    </g>
                    <g id="Path_484" data-name="Path 484">
                      <path id="Path_659" data-name="Path 659" d="M276.876,193.187l1.6,3.208,3.552.458-2.521,2.521.573,3.552-3.208-1.719-3.208,1.719.573-3.552-2.517-2.52,3.552-.458Z" fill="#fbbb00"/>
                    </g>
                    <g id="Path_485" data-name="Path 485">
                      <path id="Path_660" data-name="Path 660" d="M289.6,193.187l1.6,3.208,3.552.458-2.521,2.521.573,3.552-3.208-1.719-3.208,1.719.688-3.438-2.518-2.52,3.552-.458Z" fill="#fbbb00"/>
                    </g>
                    <g id="Line_73" data-name="Line 73">
                      <rect id="Rectangle_534" data-name="Rectangle 534" width="146.555" height="1.146" transform="translate(225.886 211.177)" fill="#eaeff4"/>
                    </g>
                    <g id="Path_486" data-name="Path 486">
                      <path id="Path_662" data-name="Path 662" d="M238.833,237.532l1.6,3.208,3.552.458-2.521,2.521.573,3.552-3.208-1.719-3.208,1.719.573-3.552-2.517-2.52,3.552-.458Z" fill="#fbbb00"/>
                    </g>
                    <g id="Path_487" data-name="Path 487">
                      <path id="Path_663" data-name="Path 663" d="M251.552,237.532l1.6,3.208,3.552.458-2.521,2.521.573,3.552-3.208-1.719-3.208,1.719.573-3.552L246.4,241.2l3.552-.458Z" fill="#fbbb00"/>
                    </g>
                    <g id="Path_488" data-name="Path 488">
                      <path id="Path_664" data-name="Path 664" d="M264.271,237.532l1.6,3.208,3.552.458-2.521,2.521.573,3.552-3.208-1.719-3.208,1.719.573-3.552-2.517-2.52,3.552-.458Z" fill="#fbbb00"/>
                    </g>
                    <g id="Path_489" data-name="Path 489">
                      <path id="Path_665" data-name="Path 665" d="M276.876,237.532l1.6,3.208,3.552.458-2.521,2.521.573,3.552-3.208-1.719-3.208,1.719.573-3.552-2.517-2.52,3.552-.458Z" fill="#fbbb00"/>
                    </g>
                    <g id="Path_490" data-name="Path 490">
                      <path id="Path_666" data-name="Path 666" d="M289.6,237.532l1.6,3.208,3.552.458-2.521,2.521.573,3.552-3.208-1.719-3.208,1.719.573-3.552-2.517-2.52,3.552-.458Z" fill="#fbbb00"/>
                    </g>
                  </g>
                </g>
              </g>
            </g>
          </g>
        </g>
        <circle id="Ellipse_478" data-name="Ellipse 478" cx="33.802" cy="33.802" r="33.802" transform="translate(221.813 125.981)" stroke-width="1.883" stroke="#b8c0cc" stroke-linecap="round" stroke-linejoin="round" fill="none"/>
        <line id="Line_267" data-name="Line 267" x2="12.108" y2="16.199" transform="translate(275.975 186.551)" fill="none" stroke="#b8c0cc" stroke-linecap="round" stroke-linejoin="round" stroke-width="1.883"/>
      </g>
    </g>
    <g id="Group_692" data-name="Group 692">
      <path id="Rectangle_888" data-name="Rectangle 888" d="M6.846,0H42.232a42.52,42.52,0,0,1,42.52,42.52v0A42.232,42.232,0,0,1,42.52,84.752h0A42.52,42.52,0,0,1,0,42.232V6.846A6.846,6.846,0,0,1,6.846,0Z" transform="translate(370.235 257.581) rotate(-180)" fill="#fff"/>
      <path id="Path_936" data-name="Path 936" d="M328.243,172.9h0a42.1,42.1,0,0,0-6.567.516c17.277-.4,40.758,12.359,40.758,41.661v36.359a5.988,5.988,0,0,1-5.97,5.971h7.986a5.988,5.988,0,0,0,5.97-5.971V215.072A42.3,42.3,0,0,0,328.243,172.9Z" fill="#eaeff4"/>
      <path id="Rectangle_889" data-name="Rectangle 889" d="M6.846,0H42.232a42.52,42.52,0,0,1,42.52,42.52v0A42.232,42.232,0,0,1,42.52,84.752h0A42.52,42.52,0,0,1,0,42.232V6.846A6.846,6.846,0,0,1,6.846,0Z" transform="translate(370.235 257.581) rotate(-180)" fill="none" stroke="#b8c0cc" stroke-linecap="round" stroke-linejoin="round" stroke-width="1.883"/>
      <ellipse id="Ellipse_479" data-name="Ellipse 479" cx="2.452" cy="3.87" rx="2.452" ry="3.87" transform="translate(304.329 198.794)" fill="#b8c0cc"/>
    </g>
    <ellipse id="Ellipse_185" data-name="Ellipse 185" cx="3.781" cy="3.896" rx="3.781" ry="3.896" transform="translate(319.791 194.573) rotate(-63.609)" fill="#b8c0cc"/>
    <path id="Path_670" data-name="Path 670" d="M325.69,192.843s9.625,21.427-4.24,34.032" fill="none" stroke="#b8c0cc" stroke-linecap="round" stroke-linejoin="round" stroke-width="1.883"/>
  </g>
</svg>
