<svg id="Layer_2" data-name="Layer 2" xmlns="http://www.w3.org/2000/svg" width="148.46" height="196.49" viewBox="0 0 148.46 196.49">
  <g id="Layer_1" data-name="Layer 1">
    <g id="Layer_2-3" data-name="Layer 2-3">
      <g id="Layer_1-2-2" data-name="Layer 1-2-2">
        <path id="Path_671" data-name="Path 671" d="M136.46,179.2h-72a12,12,0,0,1-12-12V12a12,12,0,0,1,12-12h72a12,12,0,0,1,12,12V167.1A12.06,12.06,0,0,1,136.46,179.2Z" fill="#b8c0cc"/>
        <path id="Path_672" data-name="Path 672" d="M135.26,167.1H65.66a9,9,0,0,1-9-9V11.3A7.17,7.17,0,0,1,63.8,4.1h71.46a9,9,0,0,1,9,9h0v145A9,9,0,0,1,135.26,167.1Z" fill="#fff"/>
        <rect id="Rectangle_535" data-name="Rectangle 535" width="87.6" height="1" transform="translate(56.66 33.5)" fill="#eaeff4"/>
        <rect id="Rectangle_536" data-name="Rectangle 536" width="87.6" height="1" transform="translate(56.66 66.1)" fill="#eaeff4"/>
        <path id="Path_673" data-name="Path 673" d="M118.16,52.2H63A1.79,1.79,0,0,0,61.16,54h0v.4a1.79,1.79,0,0,0,1.78,1.8h55.22a1.79,1.79,0,0,0,1.8-1.78h0V54A1.93,1.93,0,0,0,118.16,52.2Z" fill="#eaeff4"/>
        <path id="Path_674" data-name="Path 674" d="M135.76,41.9h-.5V41h-.9v.9h-4.5V41H129v.9h-.5a.9.9,0,0,0-.9.9h0V50a.9.9,0,0,0,.9.9h7.2a.9.9,0,0,0,.9-.9V42.8a.77.77,0,0,0-.63-.89Zm0,8.1h-7.2V44.1h7.2Z" fill="#4285f4"/>
        <path id="Path_675" data-name="Path 675" d="M126.76,40.6h10.8V51.4h-10.8Z" fill="none"/>
        <rect id="Rectangle_537" data-name="Rectangle 537" width="1.3" height="1.3" transform="translate(129.86 45.3)" fill="#4285f4"/>
        <rect id="Rectangle_538" data-name="Rectangle 538" width="87.6" height="1" transform="translate(56.66 97.8)" fill="#eaeff4"/>
        <path id="Path_676" data-name="Path 676" d="M118.16,84.7H63a1.79,1.79,0,0,0-1.8,1.78h0v.4a1.79,1.79,0,0,0,1.78,1.8H118.2A1.79,1.79,0,0,0,120,86.9h0v-.4a1.93,1.93,0,0,0-1.84-1.8Z" fill="#eaeff4"/>
        <path id="Path_677" data-name="Path 677" d="M118.16,115.9H63a1.79,1.79,0,0,0-1.8,1.78h0v.4a1.79,1.79,0,0,0,1.78,1.8H118.2a1.79,1.79,0,0,0,1.8-1.78h0v-.4A1.93,1.93,0,0,0,118.16,115.9Z" fill="#eaeff4"/>
        <path id="Path_678" data-name="Path 678" d="M118.16,149H63a1.79,1.79,0,0,0-1.8,1.78h0v.4a1.79,1.79,0,0,0,1.78,1.8H118.2a1.79,1.79,0,0,0,1.8-1.78h0v-.4A1.93,1.93,0,0,0,118.16,149Z" fill="#eaeff4"/>
        <path id="Path_679" data-name="Path 679" d="M135.76,73.9h-.5V73h-.9v.9h-4.5V73H129v.9h-.5a.9.9,0,0,0-.9.9h0V82a.9.9,0,0,0,.9.9h7.2a.9.9,0,0,0,.9-.9V74.8a.77.77,0,0,0-.63-.89Zm0,8.2h-7.2V76.2h7.2Z" fill="#4285f4"/>
        <path id="Path_680" data-name="Path 680" d="M126.76,72.6h10.8V83.4h-10.8Z" fill="none"/>
        <rect id="Rectangle_539" data-name="Rectangle 539" width="1.3" height="1.3" transform="translate(129.86 77.3)" fill="#4285f4"/>
        <rect id="Rectangle_540" data-name="Rectangle 540" width="87.6" height="1" transform="translate(56.66 129.8)" fill="#eaeff4"/>
        <path id="Path_681" data-name="Path 681" d="M135.76,106.3h-.5v-.9h-.9v.9h-4.5v-.9H129v.9h-.5a.9.9,0,0,0-.9.9h0v7.2a.9.9,0,0,0,.9.9h7.2a.9.9,0,0,0,.9-.9v-7.2a.77.77,0,0,0-.63-.89Zm0,8.1h-7.2v-5.9h7.2Z" fill="#4285f4"/>
        <path id="Path_682" data-name="Path 682" d="M126.76,104.9h10.8v10.8h-10.8Z" fill="none"/>
        <rect id="Rectangle_541" data-name="Rectangle 541" width="1.3" height="1.3" transform="translate(129.86 109.6)" fill="#4285f4"/>
        <path id="Rectangle_542" data-name="Rectangle 542" d="M58,162.8h85a9.29,9.29,0,0,1-.71,1H58.7A7.281,7.281,0,0,1,58,162.8Z" fill="#eaeff4"/>
        <path id="Path_683" data-name="Path 683" d="M135.76,139.3h-.5v-.9h-.9v.9h-4.5v-.9H129v.9h-.5a.9.9,0,0,0-.9.9v7.2a.9.9,0,0,0,.9.9h7.2a.9.9,0,0,0,.9-.9v-7.2a.77.77,0,0,0-.63-.89Zm0,8.1h-7.2v-5.9h7.2Z" fill="#4285f4"/>
        <path id="Path_684" data-name="Path 684" d="M126.76,137.9h10.8v10.8h-10.8Z" fill="none"/>
        <rect id="Rectangle_543" data-name="Rectangle 543" width="1.3" height="1.3" transform="translate(129.86 142.7)" fill="#4285f4"/>
        <path id="Path_689" data-name="Path 689" d="M69.17,16.28A.8.8,0,0,1,69.8,16a.86.86,0,0,1,.61.26.8.8,0,0,1,.27.59.85.85,0,0,1-.23.56L67.82,20.5v3.14a.89.89,0,0,1-.26.7.94.94,0,0,1-.66.24,1,1,0,0,1-.68-.24.89.89,0,0,1-.26-.7V20.5l-2.6-3.12a.79.79,0,0,1-.23-.56A.88.88,0,0,1,64,16a.8.8,0,0,1,.62.31l2.29,2.8ZM72.3,24.6a3.44,3.44,0,0,1-1.64-.38,2.65,2.65,0,0,1-1.1-1.07,3.66,3.66,0,0,1,0-3.25,2.61,2.61,0,0,1,1.1-1.06,3.81,3.81,0,0,1,3.28,0A2.61,2.61,0,0,1,75,19.9a3.63,3.63,0,0,1,0,3.25,2.65,2.65,0,0,1-1.09,1.07A3.44,3.44,0,0,1,72.3,24.6Zm0-1.38q1.32,0,1.32-1.69a2,2,0,0,0-.34-1.27,1.19,1.19,0,0,0-1-.42Q71,19.84,71,21.53t1.32,1.69Zm9-4.73a.94.94,0,0,1,.67.23.81.81,0,0,1,.25.62v4.4a.76.76,0,0,1-.26.6,1,1,0,0,1-.67.23.85.85,0,0,1-.62-.22.76.76,0,0,1-.23-.58v-.12a1.86,1.86,0,0,1-.73.7A2.43,2.43,0,0,1,77,24a2.75,2.75,0,0,1-.55-1.87V19.34a.81.81,0,0,1,.25-.62.94.94,0,0,1,.67-.23.92.92,0,0,1,.66.23.82.82,0,0,1,.24.62v2.81a1.16,1.16,0,0,0,.22.78.86.86,0,0,0,.68.25,1.11,1.11,0,0,0,.86-.36,1.35,1.35,0,0,0,.33-.95V19.34a.82.82,0,0,1,.24-.62.92.92,0,0,1,.66-.23Zm5.82,0a.75.75,0,0,1,.57.16.71.71,0,0,1,.21.56.8.8,0,0,1-.19.59A1.12,1.12,0,0,1,87,20h-.36a1.37,1.37,0,0,0-1,.42,1.41,1.41,0,0,0-.29.92v2.3a.78.78,0,0,1-.26.64,1.055,1.055,0,0,1-1.29,0,.78.78,0,0,1-.26-.64v-4.4a.75.75,0,0,1,.27-.62,1,1,0,0,1,.64-.22.88.88,0,0,1,.6.21.73.73,0,0,1,.24.58v.32a1.67,1.67,0,0,1,.65-.79,2,2,0,0,1,1-.31Zm7.84,6.12a6.7,6.7,0,0,1-1.76-.22,3.68,3.68,0,0,1-1.33-.63.84.84,0,0,1-.26-.28.88.88,0,0,1,.11-.91.54.54,0,0,1,.43-.23.81.81,0,0,1,.26,0,1.62,1.62,0,0,1,.31.15,4,4,0,0,0,1,.47,4.25,4.25,0,0,0,1.16.15,2.29,2.29,0,0,0,1.21-.26.84.84,0,0,0,.42-.76.68.68,0,0,0-.39-.6,5,5,0,0,0-1.39-.44,7.68,7.68,0,0,1-1.73-.5,2.31,2.31,0,0,1-1-.8,2.12,2.12,0,0,1-.31-1.16,2.27,2.27,0,0,1,.44-1.36,2.9,2.9,0,0,1,1.21-.95,4.28,4.28,0,0,1,1.75-.34,4.46,4.46,0,0,1,2.81.85,1,1,0,0,1,.26.29.79.79,0,0,1,.08.37A.81.81,0,0,1,98,18a.54.54,0,0,1-.43.23.81.81,0,0,1-.25,0,1.709,1.709,0,0,1-.31-.16,5,5,0,0,0-.91-.47,3,3,0,0,0-1-.16,2,2,0,0,0-1.15.28.88.88,0,0,0-.42.77.7.7,0,0,0,.16.47,1.35,1.35,0,0,0,.54.33,8.25,8.25,0,0,0,1.07.3,6,6,0,0,1,2.35.92A1.87,1.87,0,0,1,98.36,22a2.25,2.25,0,0,1-.43,1.36,2.75,2.75,0,0,1-1.2.91,4.62,4.62,0,0,1-1.78.34Zm7.27-6.14a2.6,2.6,0,0,1,1.92.63,2.64,2.64,0,0,1,.62,1.93v2.71a.82.82,0,0,1-.23.62.87.87,0,0,1-.64.22.84.84,0,0,1-.62-.23.82.82,0,0,1-.23-.61v-.08a1.41,1.41,0,0,1-.6.7,1.88,1.88,0,0,1-1,.25,2.42,2.42,0,0,1-1.09-.24,1.9,1.9,0,0,1-.77-.67,1.72,1.72,0,0,1-.28-1,1.48,1.48,0,0,1,.33-1,2,2,0,0,1,1.06-.54,9.38,9.38,0,0,1,2-.17h.3v-.22a.819.819,0,0,0-.96-.96,4.72,4.72,0,0,0-1.49.36,1.13,1.13,0,0,1-.47.13.52.52,0,0,1-.42-.19.73.73,0,0,1-.16-.49.68.68,0,0,1,.11-.4A1,1,0,0,1,100,19a3.89,3.89,0,0,1,1-.36,5.6,5.6,0,0,1,1.22-.18Zm-.36,4.88a1.1,1.1,0,0,0,.85-.35,1.31,1.31,0,0,0,.32-.92v-.2h-.2a4.1,4.1,0,0,0-1.36.16.56.56,0,0,0-.39.56.72.72,0,0,0,.22.55.78.78,0,0,0,.55.2ZM107,24.57a1,1,0,0,1-.65-.22.78.78,0,0,1-.26-.64V16.83a.78.78,0,0,1,.26-.64,1.117,1.117,0,0,1,1.29.03.78.78,0,0,1,.26.64v6.89a.78.78,0,0,1-.26.64A1,1,0,0,1,107,24.57Zm5.12,0a3.44,3.44,0,0,1-1.64-.38,2.65,2.65,0,0,1-1.09-1.07,3.63,3.63,0,0,1,0-3.25,2.61,2.61,0,0,1,1.09-1.06,3.82,3.82,0,0,1,3.29,0,2.61,2.61,0,0,1,1.09,1.06,3.63,3.63,0,0,1,0,3.25,2.65,2.65,0,0,1-1.09,1.07,3.44,3.44,0,0,1-1.61.41Zm0-1.38q1.32,0,1.32-1.69a2,2,0,0,0-.34-1.27,1.19,1.19,0,0,0-1-.42q-1.32,0-1.32,1.69t1.32,1.69Zm7.92-4.75a1.93,1.93,0,0,1,1.57.62,2.86,2.86,0,0,1,.52,1.86v2.77a.81.81,0,0,1-.25.62.94.94,0,0,1-.67.23.92.92,0,0,1-.66-.23.82.82,0,0,1-.24-.62V21a1.4,1.4,0,0,0-.22-.88.83.83,0,0,0-.69-.28,1.19,1.19,0,0,0-.91.36,1.34,1.34,0,0,0-.34,1v2.52a.82.82,0,0,1-.24.62.92.92,0,0,1-.66.23.94.94,0,0,1-.67-.23.81.81,0,0,1-.25-.62v-4.4a.76.76,0,0,1,.26-.6,1,1,0,0,1,.67-.23.84.84,0,0,1,.61.22.75.75,0,0,1,.23.57v.17a2.07,2.07,0,0,1,.81-.73,2.45,2.45,0,0,1,1.12-.26Z" fill="#b8c0cc"/>
        <path id="Path_690" data-name="Path 690" d="M63.12,47.75a1.76,1.76,0,0,1-.89-.22,1.46,1.46,0,0,1-.59-.63,2.35,2.35,0,0,1,0-1.92,1.47,1.47,0,0,1,.59-.63,1.76,1.76,0,0,1,.89-.22,1.93,1.93,0,0,1,.62.1,1.61,1.61,0,0,1,.52.28.29.29,0,0,1,.09.1.32.32,0,0,1,0,.13.29.29,0,0,1-.06.18.18.18,0,0,1-.15.08.37.37,0,0,1-.2-.07,1.48,1.48,0,0,0-.4-.22,1.27,1.27,0,0,0-.41-.06,1,1,0,0,0-.79.32,1.84,1.84,0,0,0,0,1.91,1,1,0,0,0,.79.32,1.18,1.18,0,0,0,.4-.06,1.91,1.91,0,0,0,.41-.22l.1-.05h.1a.18.18,0,0,1,.14.07.29.29,0,0,1,.06.19.33.33,0,0,1,0,.13.28.28,0,0,1-.09.11,1.61,1.61,0,0,1-.52.28,1.93,1.93,0,0,1-.61.1Zm2.77,0a1.34,1.34,0,0,1-.66-.16,1.07,1.07,0,0,1-.44-.45,1.54,1.54,0,0,1,0-1.35,1.08,1.08,0,0,1,.44-.44,1.47,1.47,0,0,1,1.31,0,1.06,1.06,0,0,1,.43.44,1.41,1.41,0,0,1,.15.67,1.43,1.43,0,0,1-.15.68,1.06,1.06,0,0,1-.43.44,1.34,1.34,0,0,1-.65.16Zm0-.48a.56.56,0,0,0,.47-.2,1.16,1.16,0,0,0,0-1.18.55.55,0,0,0-.46-.2.56.56,0,0,0-.46.2,1.16,1.16,0,0,0,0,1.18.55.55,0,0,0,.45.19Zm2.08.47a.32.32,0,0,1-.22-.08.28.28,0,0,1-.09-.22v-3a.27.27,0,0,1,.09-.22.33.33,0,0,1,.22-.07.34.34,0,0,1,.22.08.27.27,0,0,1,.09.22v3a.28.28,0,0,1-.09.22.33.33,0,0,1-.19.06Zm2.07,0a1.34,1.34,0,0,1-.66-.16,1.07,1.07,0,0,1-.44-.45,1.54,1.54,0,0,1,0-1.35,1.08,1.08,0,0,1,.44-.44,1.47,1.47,0,0,1,1.32,0,1.06,1.06,0,0,1,.44.44,1.594,1.594,0,0,1,0,1.35,1.06,1.06,0,0,1-.44.44,1.34,1.34,0,0,1-.7.17Zm0-.48a.56.56,0,0,0,.47-.2,1.16,1.16,0,0,0,0-1.18.55.55,0,0,0-.46-.2.56.56,0,0,0-.46.2,1.15,1.15,0,0,0,0,1.18.55.55,0,0,0,.41.2Zm3.13-2.06a.27.27,0,0,1,.2.06.24.24,0,0,1,.07.19.27.27,0,0,1-.06.2.4.4,0,0,1-.23.09H73a.61.61,0,0,0-.43.2.65.65,0,0,0-.14.43v1.05a.28.28,0,0,1-.09.22.33.33,0,0,1-.23.08.32.32,0,0,1-.22-.08.28.28,0,0,1-.09-.22V45.5a.27.27,0,0,1,.09-.21.32.32,0,0,1,.22-.08.3.3,0,0,1,.21.07.27.27,0,0,1,.08.21v.2a.74.74,0,0,1,.28-.34.87.87,0,0,1,.42-.13Zm.6,1.4a.32.32,0,0,1-.22-.07.23.23,0,0,1-.07-.18.24.24,0,0,1,.07-.18.31.31,0,0,1,.22-.07h1a.31.31,0,0,1,.22.07.24.24,0,0,1,.07.18.23.23,0,0,1-.07.18.32.32,0,0,1-.22.07Zm2.3,1.1a.31.31,0,0,1-.23-.08.3.3,0,0,1-.08-.23V44.48a.3.3,0,0,1,.08-.22.31.31,0,0,1,.23-.08h1a1.85,1.85,0,0,1,1.34.46,2,2,0,0,1,0,2.6A1.85,1.85,0,0,1,77,47.7Zm.95-.52a1.25,1.25,0,1,0,0-2.48H76.4v2.48Zm3.57.56a1.34,1.34,0,0,1-.66-.16,1.07,1.07,0,0,1-.44-.45,1.54,1.54,0,0,1,0-1.35,1.08,1.08,0,0,1,.44-.44,1.47,1.47,0,0,1,1.32,0,1.06,1.06,0,0,1,.43.44,1.41,1.41,0,0,1,.15.67,1.43,1.43,0,0,1-.15.68,1.06,1.06,0,0,1-.43.44,1.34,1.34,0,0,1-.66.16Zm0-.49a.56.56,0,0,0,.47-.2,1.16,1.16,0,0,0,0-1.18.55.55,0,0,0-.46-.2.56.56,0,0,0-.46.2,1.15,1.15,0,0,0,0,1.18.56.56,0,0,0,.43.21Zm3.69-2.06a.32.32,0,0,1,.23.08.28.28,0,0,1,.08.21v1.95a.27.27,0,0,1-.09.21.32.32,0,0,1-.23.08.3.3,0,0,1-.22-.08.27.27,0,0,1-.08-.2v-.13a.8.8,0,0,1-.31.31.9.9,0,0,1-.44.11q-.9,0-.9-1V45.5a.28.28,0,0,1,.08-.21.31.31,0,0,1,.23-.08.32.32,0,0,1,.23.08.28.28,0,0,1,.08.21v1.24a.59.59,0,0,0,.1.38.41.41,0,0,0,.33.13.54.54,0,0,0,.42-.17.65.65,0,0,0,.16-.46V45.5a.28.28,0,0,1,.08-.21.32.32,0,0,1,.23-.09Zm2.37,0a1,1,0,0,1,.95.6,1.51,1.51,0,0,1,.14.66,1.56,1.56,0,0,1-.14.67,1.06,1.06,0,0,1-.39.45,1.06,1.06,0,0,1-1.03.05.78.78,0,0,1-.32-.32v.12a.28.28,0,0,1-.08.22.356.356,0,0,1-.45,0,.29.29,0,0,1-.08-.22v-3a.27.27,0,0,1,.09-.21.32.32,0,0,1,.23-.08.33.33,0,0,1,.23.08.26.26,0,0,1,.08.2v1.18a.75.75,0,0,1,.32-.31,1,1,0,0,1,.47-.11Zm-.16,2.07a.55.55,0,0,0,.46-.21.93.93,0,0,0,.17-.59.89.89,0,0,0-.16-.58.63.63,0,0,0-.92,0,.91.91,0,0,0-.16.58A.92.92,0,0,0,86,47a.56.56,0,0,0,.47.26Zm2.08.47a.32.32,0,0,1-.22-.08.28.28,0,0,1-.09-.22v-3a.27.27,0,0,1,.09-.22.33.33,0,0,1,.22-.08.34.34,0,0,1,.23.08.27.27,0,0,1,.09.22v3a.28.28,0,0,1-.09.22.33.33,0,0,1-.25.08Zm2.9-.7a.17.17,0,0,1,.14.06.27.27,0,0,1,.05.18.3.3,0,0,1-.18.26,1.67,1.67,0,0,1-.39.15,1.59,1.59,0,0,1-.41.06,1.27,1.27,0,0,1-.93-.34,1.25,1.25,0,0,1-.34-.93,1.43,1.43,0,0,1,.15-.66,1.09,1.09,0,0,1,.42-.45,1.2,1.2,0,0,1,.62-.16,1.11,1.11,0,0,1,.58.14,1,1,0,0,1,.38.41,1.36,1.36,0,0,1,.14.63q0,.21-.19.22H90a.79.79,0,0,0,.19.51.66.66,0,0,0,.48.16.91.91,0,0,0,.28,0l.28-.11a.55.55,0,0,1,.22-.08Zm-.86-1.4a.54.54,0,0,0-.41.16.75.75,0,0,0-.18.46h1.13a.71.71,0,0,0-.15-.46.5.5,0,0,0-.4-.15Zm3.31,2.1a.31.31,0,0,1-.23-.09.32.32,0,0,1-.09-.24V44.48a.3.3,0,0,1,.08-.22.31.31,0,0,1,.23-.08h1.23a1.27,1.27,0,0,1,.88.28A1.16,1.16,0,0,1,96,46a1.27,1.27,0,0,1-.88.28h-.9V47.4a.31.31,0,0,1-.33.33ZM95,45.83q.67,0,.67-.58T95,44.67h-.81v1.16Zm3-.63a.27.27,0,0,1,.21.06.24.24,0,0,1,.08.19.27.27,0,0,1-.06.2.4.4,0,0,1-.24.09h-.15a.61.61,0,0,0-.43.2.65.65,0,0,0-.14.43v1.05a.28.28,0,0,1-.09.22.33.33,0,0,1-.22.08.32.32,0,0,1-.22-.08.28.28,0,0,1-.09-.22V45.5a.27.27,0,0,1,.09-.21A.32.32,0,0,1,97,45.2a.3.3,0,0,1,.21.07.27.27,0,0,1,.08.21v.2a.74.74,0,0,1,.28-.34A.87.87,0,0,1,98,45.2Zm1.57,2.54a1.35,1.35,0,0,1-.66-.16,1.07,1.07,0,0,1-.44-.45,1.54,1.54,0,0,1,0-1.35,1.08,1.08,0,0,1,.44-.44,1.47,1.47,0,0,1,1.32,0,1.06,1.06,0,0,1,.44.44,1.594,1.594,0,0,1,0,1.35,1.06,1.06,0,0,1-.44.44,1.34,1.34,0,0,1-.58.17Zm0-.49a.56.56,0,0,0,.47-.2,1.16,1.16,0,0,0,0-1.18.55.55,0,0,0-.46-.2.56.56,0,0,0-.46.2,1.15,1.15,0,0,0,0,1.18.55.55,0,0,0,.45.2Zm2.85.49a1.3,1.3,0,0,1-.64-.16,1.06,1.06,0,0,1-.43-.44,1.53,1.53,0,0,1,0-1.34,1.11,1.11,0,0,1,.44-.45,1.32,1.32,0,0,1,.65-.16,1.46,1.46,0,0,1,.39.06,1.3,1.3,0,0,1,.35.15.31.31,0,0,1,.16.27.28.28,0,0,1-.05.18.17.17,0,0,1-.14.07h-.12l-.12-.06-.21-.1a.65.65,0,0,0-.23,0,.58.58,0,0,0-.48.2.89.89,0,0,0-.17.58.88.88,0,0,0,.17.58.58.58,0,0,0,.48.2.62.62,0,0,0,.22,0l.22-.1.13-.07h.11a.17.17,0,0,1,.13.07.53.53,0,0,1,.06.33.34.34,0,0,1-.12.11,1.32,1.32,0,0,1-.36.16,1.55,1.55,0,0,1-.37-.08Zm3.29-.71a.17.17,0,0,1,.14.06.27.27,0,0,1,.05.18.3.3,0,0,1-.19.26,1.67,1.67,0,0,1-.38.15,1.59,1.59,0,0,1-.41.06,1.27,1.27,0,0,1-.94-.34,1.25,1.25,0,0,1-.35-.93,1.43,1.43,0,0,1,.15-.67,1.09,1.09,0,0,1,.42-.45,1.2,1.2,0,0,1,.62-.16,1.11,1.11,0,0,1,.58.14,1,1,0,0,1,.38.41,1.36,1.36,0,0,1,.13.63q0,.21-.19.22h-1.48a.79.79,0,0,0,.19.51.66.66,0,0,0,.48.16.91.91,0,0,0,.28,0l.28-.11a.55.55,0,0,1,.31-.15Zm-.87-1.4a.54.54,0,0,0-.41.16.76.76,0,0,0-.18.46h1.13a.71.71,0,0,0-.15-.46.5.5,0,0,0-.39-.15Zm2.47,2.11a1.61,1.61,0,0,1-.88-.22.3.3,0,0,1-.16-.27.24.24,0,0,1,.06-.16.17.17,0,0,1,.13-.06.55.55,0,0,1,.24.08l.29.12a1.19,1.19,0,0,0,.34,0,.64.64,0,0,0,.33-.07.22.22,0,0,0,.12-.19.19.19,0,0,0,0-.13.44.44,0,0,0-.17-.09l-.37-.1a1.43,1.43,0,0,1-.64-.25.57.57,0,0,1-.19-.46.66.66,0,0,1,.13-.4.84.84,0,0,1,.36-.28,1.3,1.3,0,0,1,.52-.1,1.55,1.55,0,0,1,.4.05,1.23,1.23,0,0,1,.35.15.3.3,0,0,1,.16.26.26.26,0,0,1-.06.17.17.17,0,0,1-.13.07h-.11l-.13-.07-.25-.1a.78.78,0,0,0-.26,0,.5.5,0,0,0-.29.08.24.24,0,0,0-.11.2.21.21,0,0,0,.11.19,1.58,1.58,0,0,0,.42.13,2.42,2.42,0,0,1,.53.16.61.61,0,0,1,.27.23.65.65,0,0,1,.08.35.64.64,0,0,1-.28.55,1.25,1.25,0,0,1-.73.16Zm2.42,0a1.61,1.61,0,0,1-.88-.22.3.3,0,0,1-.16-.27.24.24,0,0,1,.06-.16A.17.17,0,0,1,109,47a.55.55,0,0,1,.24.08l.29.12a1.19,1.19,0,0,0,.34,0,.64.64,0,0,0,.33-.07.22.22,0,0,0,.12-.19.19.19,0,0,0,0-.13.44.44,0,0,0-.17-.09l-.37-.1a1.43,1.43,0,0,1-.64-.25.57.57,0,0,1-.19-.46.66.66,0,0,1,.13-.4.84.84,0,0,1,.36-.28,1.3,1.3,0,0,1,.52-.1,1.55,1.55,0,0,1,.4.05,1.23,1.23,0,0,1,.35.15.3.3,0,0,1,.16.26.26.26,0,0,1-.06.17.17.17,0,0,1-.13.07h-.11l-.13-.07-.25-.1a.78.78,0,0,0-.26,0,.5.5,0,0,0-.29.08.24.24,0,0,0-.11.2.21.21,0,0,0,.11.19,1.58,1.58,0,0,0,.42.13,2.42,2.42,0,0,1,.53.16.61.61,0,0,1,.27.23.65.65,0,0,1,.08.35.64.64,0,0,1-.28.55,1.25,1.25,0,0,1-.85.19Z" fill="#b8c0cc"/>
        <path id="Path_697" data-name="Path 697" d="M128.54,55.2a.85.85,0,0,1,.47.31.9.9,0,0,1,.17.55.85.85,0,0,1-.32.7A1.4,1.4,0,0,1,128,57h-1.29a.31.31,0,0,1-.23-.08.3.3,0,0,1-.08-.23V53.8a.3.3,0,0,1,.08-.22.31.31,0,0,1,.23-.08h1.24a1.38,1.38,0,0,1,.86.24A.88.88,0,0,1,129,54.9a.84.84,0,0,1-.46.3ZM127,55h.81q.67,0,.67-.49a.43.43,0,0,0-.16-.37.85.85,0,0,0-.5-.12H127Zm.9,1.54a.83.83,0,0,0,.51-.12.46.46,0,0,0,.16-.39.48.48,0,0,0-.16-.39.81.81,0,0,0-.51-.13H127v1Zm2.95.54a1.35,1.35,0,0,1-.66-.16,1.07,1.07,0,0,1-.44-.44,1.54,1.54,0,0,1,0-1.35,1.08,1.08,0,0,1,.44-.44,1.47,1.47,0,0,1,1.31,0,1.06,1.06,0,0,1,.43.44,1.41,1.41,0,0,1,.15.67,1.43,1.43,0,0,1-.15.68,1.06,1.06,0,0,1-.43.44,1.34,1.34,0,0,1-.65.14Zm0-.48a.56.56,0,0,0,.47-.2,1.16,1.16,0,0,0,0-1.18.55.55,0,0,0-.46-.2.56.56,0,0,0-.46.2,1.16,1.16,0,0,0,0,1.18.55.55,0,0,0,.44.18Zm2.88.48a1.35,1.35,0,0,1-.66-.16,1.07,1.07,0,0,1-.44-.44,1.54,1.54,0,0,1,0-1.35,1.08,1.08,0,0,1,.44-.44,1.47,1.47,0,0,1,1.31,0,1.06,1.06,0,0,1,.44.44,1.594,1.594,0,0,1,0,1.35,1.06,1.06,0,0,1-.44.44,1.35,1.35,0,0,1-.66.14Zm0-.48a.56.56,0,0,0,.46-.2,1.16,1.16,0,0,0,0-1.18.55.55,0,0,0-.46-.2.56.56,0,0,0-.46.2,1.16,1.16,0,0,0,0,1.18.56.56,0,0,0,.45.18Zm3.94,0a.29.29,0,0,1,.1.22.3.3,0,0,1-.08.21.25.25,0,0,1-.19.09.29.29,0,0,1-.2-.09l-1.17-1.06v.85A.27.27,0,0,1,136,57a.34.34,0,0,1-.23.08.33.33,0,0,1-.22-.07.27.27,0,0,1-.09-.22v-3a.27.27,0,0,1,.09-.22.33.33,0,0,1,.22-.07.34.34,0,0,1,.23.08.27.27,0,0,1,.09.22v1.88l1.07-1a.28.28,0,0,1,.2-.09.284.284,0,0,1,.18.5l-.78.73Z" fill="#4285f4"/>
        <path id="Path_696" data-name="Path 696" d="M128.54,87.08a.85.85,0,0,1,.47.31.9.9,0,0,1,.17.55.85.85,0,0,1-.32.7,1.4,1.4,0,0,1-.89.25h-1.29a.31.31,0,0,1-.23-.08.3.3,0,0,1-.08-.23v-2.9a.3.3,0,0,1,.08-.22.31.31,0,0,1,.23-.08h1.24a1.38,1.38,0,0,1,.86.24.88.88,0,0,1,.16,1.16A.84.84,0,0,1,128.54,87.08ZM127,86.86h.81q.67,0,.67-.49a.43.43,0,0,0-.16-.37.85.85,0,0,0-.5-.12H127Zm.9,1.54a.83.83,0,0,0,.51-.12.46.46,0,0,0,.16-.39.48.48,0,0,0-.16-.39.81.81,0,0,0-.51-.13H127v1Zm2.95.54a1.35,1.35,0,0,1-.66-.16,1.07,1.07,0,0,1-.44-.44,1.54,1.54,0,0,1,0-1.35,1.08,1.08,0,0,1,.44-.44,1.47,1.47,0,0,1,1.31,0,1.06,1.06,0,0,1,.43.44,1.41,1.41,0,0,1,.15.67,1.43,1.43,0,0,1-.15.68,1.06,1.06,0,0,1-.43.44A1.34,1.34,0,0,1,130.85,88.94Zm0-.48a.56.56,0,0,0,.47-.2,1.16,1.16,0,0,0,0-1.18.55.55,0,0,0-.46-.2.56.56,0,0,0-.46.2,1.16,1.16,0,0,0,0,1.18.55.55,0,0,0,.44.2Zm2.88.48a1.34,1.34,0,0,1-.66-.16,1.07,1.07,0,0,1-.44-.44,1.54,1.54,0,0,1,0-1.35,1.08,1.08,0,0,1,.44-.44,1.47,1.47,0,0,1,1.31,0,1.06,1.06,0,0,1,.44.44,1.594,1.594,0,0,1,0,1.35,1.06,1.06,0,0,1-.44.44,1.34,1.34,0,0,1-.66.16Zm0-.48a.56.56,0,0,0,.46-.2,1.16,1.16,0,0,0,0-1.18.55.55,0,0,0-.46-.2.56.56,0,0,0-.46.2,1.16,1.16,0,0,0,0,1.18.56.56,0,0,0,.45.2Zm3.94,0a.29.29,0,0,1,.1.21.3.3,0,0,1-.08.2.25.25,0,0,1-.19.09.29.29,0,0,1-.2-.09l-1.17-1.06v.85a.27.27,0,0,1-.09.22.34.34,0,0,1-.23.08.33.33,0,0,1-.22-.08.27.27,0,0,1-.09-.22v-3a.27.27,0,0,1,.09-.22.33.33,0,0,1,.22-.07.34.34,0,0,1,.23.08.27.27,0,0,1,.09.22v1.88l1.07-1a.28.28,0,0,1,.2-.09.284.284,0,0,1,.18.5l-.78.73Z" fill="#4285f4"/>
        <path id="Path_695" data-name="Path 695" d="M128.56,119.6a.85.85,0,0,1,.47.31.9.9,0,0,1,.17.55.85.85,0,0,1-.32.7,1.4,1.4,0,0,1-.89.25H126.7a.31.31,0,0,1-.23-.08.3.3,0,0,1-.08-.22V118.2a.3.3,0,0,1,.08-.22.31.31,0,0,1,.23-.08h1.24a1.37,1.37,0,0,1,.86.24.88.88,0,0,1,.17,1.16.84.84,0,0,1-.41.3Zm-1.54-.22h.82q.67,0,.66-.49a.43.43,0,0,0-.16-.37.85.85,0,0,0-.5-.12H127Zm.9,1.54a.83.83,0,0,0,.51-.12.46.46,0,0,0,.16-.39.48.48,0,0,0-.16-.39.81.81,0,0,0-.51-.13H127v1Zm2.95.54a1.35,1.35,0,0,1-.66-.16,1.07,1.07,0,0,1-.44-.44,1.54,1.54,0,0,1,0-1.35,1.08,1.08,0,0,1,.44-.44,1.47,1.47,0,0,1,1.31,0,1.06,1.06,0,0,1,.43.44,1.571,1.571,0,0,1,0,1.34,1.06,1.06,0,0,1-.43.45A1.34,1.34,0,0,1,130.87,121.46Zm0-.48a.56.56,0,0,0,.47-.2,1.16,1.16,0,0,0,0-1.18.55.55,0,0,0-.46-.2.56.56,0,0,0-.46.2,1.16,1.16,0,0,0,0,1.18.55.55,0,0,0,.44.22Zm2.88.48a1.35,1.35,0,0,1-.66-.16,1.07,1.07,0,0,1-.44-.44,1.54,1.54,0,0,1,0-1.35,1.08,1.08,0,0,1,.44-.44,1.47,1.47,0,0,1,1.31,0,1.06,1.06,0,0,1,.44.44,1.594,1.594,0,0,1,0,1.35,1.06,1.06,0,0,1-.44.44,1.34,1.34,0,0,1-.66.16Zm0-.48a.56.56,0,0,0,.46-.2,1.16,1.16,0,0,0,0-1.18.55.55,0,0,0-.46-.2.56.56,0,0,0-.46.2,1.16,1.16,0,0,0,0,1.18.56.56,0,0,0,.45.22Zm3.94,0a.29.29,0,0,1,.1.22.3.3,0,0,1-.08.2.25.25,0,0,1-.19.09.29.29,0,0,1-.2-.09l-1.17-1.06v.85a.27.27,0,0,1-.09.22.34.34,0,0,1-.23.08.33.33,0,0,1-.22-.08.27.27,0,0,1-.09-.22v-3a.27.27,0,0,1,.09-.22.33.33,0,0,1,.22-.07.34.34,0,0,1,.23.08.27.27,0,0,1,.09.22V120l1.07-1a.28.28,0,0,1,.2-.09.277.277,0,0,1,.18.49l-.78.73Z" fill="#4285f4"/>
        <path id="Path_694" data-name="Path 694" d="M128.56,152.58a.85.85,0,0,1,.47.31.9.9,0,0,1,.17.55.85.85,0,0,1-.32.71,1.4,1.4,0,0,1-.89.25H126.7a.31.31,0,0,1-.23-.08.3.3,0,0,1-.08-.22v-2.91a.3.3,0,0,1,.08-.22.31.31,0,0,1,.23-.08h1.24a1.37,1.37,0,0,1,.86.24.88.88,0,0,1,.17,1.16A.84.84,0,0,1,128.56,152.58Zm-1.54-.22h.82q.67,0,.66-.49a.43.43,0,0,0-.16-.37.85.85,0,0,0-.5-.12H127Zm.9,1.54a.83.83,0,0,0,.51-.12.46.46,0,0,0,.16-.39.48.48,0,0,0-.16-.4.81.81,0,0,0-.51-.13H127v1Zm2.95.54a1.35,1.35,0,0,1-.66-.16,1.07,1.07,0,0,1-.44-.44,1.54,1.54,0,0,1,0-1.35,1.08,1.08,0,0,1,.44-.44,1.47,1.47,0,0,1,1.31,0,1.06,1.06,0,0,1,.43.44,1.41,1.41,0,0,1,.15.67,1.43,1.43,0,0,1-.15.68,1.06,1.06,0,0,1-.43.44,1.34,1.34,0,0,1-.65.16Zm0-.48a.56.56,0,0,0,.47-.2,1.16,1.16,0,0,0,0-1.18.55.55,0,0,0-.46-.2.56.56,0,0,0-.46.2,1.16,1.16,0,0,0,0,1.18.55.55,0,0,0,.44.24Zm2.88.48a1.34,1.34,0,0,1-.66-.16,1.07,1.07,0,0,1-.44-.44,1.54,1.54,0,0,1,0-1.35,1.08,1.08,0,0,1,.44-.44,1.47,1.47,0,0,1,1.31,0,1.06,1.06,0,0,1,.44.44,1.594,1.594,0,0,1,0,1.35,1.06,1.06,0,0,1-.44.44,1.34,1.34,0,0,1-.66.16Zm0-.48a.56.56,0,0,0,.46-.2,1.16,1.16,0,0,0,0-1.18.55.55,0,0,0-.46-.2.56.56,0,0,0-.46.2,1.16,1.16,0,0,0,0,1.18.56.56,0,0,0,.45.24Zm3.94,0a.29.29,0,0,1,.1.21.3.3,0,0,1-.08.21.25.25,0,0,1-.19.09.29.29,0,0,1-.2-.09l-1.17-1.06v.85a.27.27,0,0,1-.09.22.34.34,0,0,1-.23.08.33.33,0,0,1-.22-.08.27.27,0,0,1-.09-.22v-3a.27.27,0,0,1,.09-.22.33.33,0,0,1,.22-.07.34.34,0,0,1,.23.08.27.27,0,0,1,.09.22V153l1.07-1a.28.28,0,0,1,.2-.09.284.284,0,0,1,.18.5l-.78.73Z" fill="#4285f4"/>
        <path id="Path_691" data-name="Path 691" d="M64.3,77.42a.31.31,0,0,1,.23.09.32.32,0,0,1,.09.23v2.93a.32.32,0,0,1-.09.23.34.34,0,0,1-.46,0,.33.33,0,0,1-.09-.23V79.44h-1.8v1.23a.32.32,0,0,1-.09.24.31.31,0,0,1-.23.09.3.3,0,0,1-.23-.09.32.32,0,0,1-.09-.24V77.74a.32.32,0,0,1,.09-.23.31.31,0,0,1,.23-.09.3.3,0,0,1,.32.32v1.18H64V77.74a.32.32,0,0,1,.09-.23A.31.31,0,0,1,64.3,77.42ZM65.63,81a.32.32,0,0,1-.22-.08.28.28,0,0,1-.09-.22V78.77a.27.27,0,0,1,.09-.22.33.33,0,0,1,.22-.08.34.34,0,0,1,.22.08.27.27,0,0,1,.09.22V80.7a.28.28,0,0,1-.09.22.33.33,0,0,1-.22.08Zm0-3a.38.38,0,0,1-.27-.09.338.338,0,0,1,0-.48.45.45,0,0,1,.54,0,.3.3,0,0,1,.1.24.31.31,0,0,1-.1.24.38.38,0,0,1-.27.09Zm3,.44a.31.31,0,0,1,.22.08.28.28,0,0,1,.08.22v2a1.13,1.13,0,0,1-.32.87,1.35,1.35,0,0,1-.95.3,1.84,1.84,0,0,1-.9-.21.31.31,0,0,1-.18-.27.27.27,0,0,1,.05-.17.17.17,0,0,1,.14-.07h.11l.14.05.32.11a1.21,1.21,0,0,0,.33,0,.57.57,0,0,0,.66-.64v-.32a.76.76,0,0,1-.32.32,1,1,0,0,1-.48.11,1.06,1.06,0,0,1-.57-.15,1,1,0,0,1-.39-.43,1.38,1.38,0,0,1-.14-.63,1.42,1.42,0,0,1,.14-.64,1,1,0,0,1,.39-.43,1.07,1.07,0,0,1,.57-.15,1,1,0,0,1,.48.11.76.76,0,0,1,.32.32v-.13a.27.27,0,0,1,.09-.21.31.31,0,0,1,.22-.09Zm-.94,1.94a.58.58,0,0,0,.47-.19.94.94,0,0,0,0-1.08.65.65,0,0,0-.93,0,.8.8,0,0,0-.17.54.79.79,0,0,0,.17.54.59.59,0,0,0,.48.23Zm3.33-2q.86,0,.86,1V80.7a.29.29,0,0,1-.08.22.31.31,0,0,1-.23.08.32.32,0,0,1-.23-.08.29.29,0,0,1-.09-.22V79.47a.58.58,0,0,0-.11-.39.43.43,0,0,0-.34-.12.57.57,0,0,0-.43.17.63.63,0,0,0-.16.46V80.7a.29.29,0,0,1-.09.22.32.32,0,0,1-.23.08.31.31,0,0,1-.23-.08.29.29,0,0,1-.08-.22v-3a.27.27,0,0,1,.09-.21.32.32,0,0,1,.23-.08.33.33,0,0,1,.23.08.26.26,0,0,1,.09.2v1.16a.82.82,0,0,1,.33-.3,1.05,1.05,0,0,1,.45-.08ZM72.85,81a.32.32,0,0,1-.22-.08.28.28,0,0,1-.09-.22v-3a.27.27,0,0,1,.09-.22.33.33,0,0,1,.22-.08.34.34,0,0,1,.23.08.27.27,0,0,1,.09.22v3a.28.28,0,0,1-.09.22.33.33,0,0,1-.23.08Zm1.27,0a.32.32,0,0,1-.22-.08.28.28,0,0,1-.09-.22V78.77a.27.27,0,0,1,.09-.22.33.33,0,0,1,.22-.08.34.34,0,0,1,.23.08.27.27,0,0,1,.09.22V80.7a.28.28,0,0,1-.09.22.33.33,0,0,1-.23.08Zm0-3a.38.38,0,0,1-.27-.09.338.338,0,0,1,0-.48.45.45,0,0,1,.54,0,.3.3,0,0,1,.1.24.31.31,0,0,1-.1.24.38.38,0,0,1-.27.09Zm3,.44a.32.32,0,0,1,.22.08.28.28,0,0,1,.09.22v2a1.12,1.12,0,0,1-.32.87,1.35,1.35,0,0,1-.94.3,1.84,1.84,0,0,1-.91-.2.31.31,0,0,1-.19-.27.27.27,0,0,1,.05-.17.17.17,0,0,1,.14-.07h.11l.14.05.32.12a1.22,1.22,0,0,0,.33,0,.57.57,0,0,0,.65-.64v-.32a.76.76,0,0,1-.32.32,1,1,0,0,1-.48.11,1.06,1.06,0,0,1-.57-.15,1,1,0,0,1-.39-.43,1.38,1.38,0,0,1-.14-.63,1.42,1.42,0,0,1,.14-.64,1,1,0,0,1,.39-.43,1.07,1.07,0,0,1,.57-.15,1,1,0,0,1,.48.11.76.76,0,0,1,.32.32v-.13a.28.28,0,0,1,.09-.21.32.32,0,0,1,.23-.09Zm-.94,1.94a.58.58,0,0,0,.47-.19.94.94,0,0,0,0-1.08.65.65,0,0,0-.93,0,.8.8,0,0,0-.17.54.79.79,0,0,0,.17.54.59.59,0,0,0,.48.23Zm3.33-2q.86,0,.86,1V80.7a.29.29,0,0,1-.08.22.31.31,0,0,1-.23.08.32.32,0,0,1-.23-.08.29.29,0,0,1-.09-.22V79.47a.58.58,0,0,0-.11-.39.43.43,0,0,0-.34-.12.57.57,0,0,0-.43.17.63.63,0,0,0-.16.46V80.7a.29.29,0,0,1-.08.22.32.32,0,0,1-.23.08.31.31,0,0,1-.23-.08.29.29,0,0,1-.08-.22v-3a.27.27,0,0,1,.09-.21.32.32,0,0,1,.23-.08.33.33,0,0,1,.23.08.26.26,0,0,1,.08.2v1.16a.82.82,0,0,1,.33-.3,1.05,1.05,0,0,1,.49-.08Zm2.76,2.07q.25,0,.25.22a.2.2,0,0,1-.1.18.47.47,0,0,1-.28.05H82a.8.8,0,0,1-.84-.9V79h-.25a.32.32,0,0,1-.21-.06.25.25,0,0,1,0-.35.32.32,0,0,1,.21-.06h.25v-.46a.28.28,0,0,1,.08-.21.32.32,0,0,1,.23-.08.31.31,0,0,1,.23.08.28.28,0,0,1,.08.21v.46h.42a.32.32,0,0,1,.21.06.25.25,0,0,1,0,.35.32.32,0,0,1-.21.06h-.42v1.14a.35.35,0,0,0,.34.4Zm1.46.47a1.61,1.61,0,0,1-.88-.22.3.3,0,0,1-.16-.27.24.24,0,0,1,.06-.16.17.17,0,0,1,.14-.06.55.55,0,0,1,.24.08l.29.12a1.19,1.19,0,0,0,.34,0,.64.64,0,0,0,.33-.07.22.22,0,0,0,.12-.19.19.19,0,0,0,0-.13A.44.44,0,0,0,84,80l-.37-.1a1.43,1.43,0,0,1-.64-.25.57.57,0,0,1-.19-.46.66.66,0,0,1,.13-.4.84.84,0,0,1,.36-.28,1.3,1.3,0,0,1,.52-.1,1.55,1.55,0,0,1,.4.05,1.23,1.23,0,0,1,.35.15.3.3,0,0,1,.16.26.26.26,0,0,1-.06.17.17.17,0,0,1-.14.07h-.11l-.13-.07L84,79a.78.78,0,0,0-.26,0,.5.5,0,0,0-.29.08.24.24,0,0,0-.11.2.21.21,0,0,0,.11.19,1.58,1.58,0,0,0,.42.13,2.42,2.42,0,0,1,.52.16.62.62,0,0,1,.27.23.65.65,0,0,1,.08.35.64.64,0,0,1-.28.55,1.25,1.25,0,0,1-.7.11Zm1.79-1.13a.32.32,0,0,1-.22-.06.23.23,0,0,1-.07-.18.24.24,0,0,1,.07-.18.31.31,0,0,1,.22-.07h1a.31.31,0,0,1,.22.07.24.24,0,0,1,.07.18.23.23,0,0,1-.07.18.32.32,0,0,1-.22.07ZM87.84,81a.31.31,0,0,1-.23-.09.32.32,0,0,1-.09-.24V77.75a.3.3,0,0,1,.08-.22.31.31,0,0,1,.23-.08h1.75q.3,0,.31.26t-.31.26H88.16v1h1.33q.3,0,.31.26t-.31.25H88.16v1.23a.33.33,0,0,1-.08.23.3.3,0,0,1-.24.06Zm4.28-2.53a.32.32,0,0,1,.23.08.28.28,0,0,1,.08.21v1.95a.27.27,0,0,1-.09.21.32.32,0,0,1-.23.08.3.3,0,0,1-.22-.08.27.27,0,0,1-.08-.2V80.6a.8.8,0,0,1-.31.31.9.9,0,0,1-.44.11q-.9,0-.9-1V78.77a.28.28,0,0,1,.08-.21.31.31,0,0,1,.23-.08.32.32,0,0,1,.23.08.28.28,0,0,1,.08.21V80a.59.59,0,0,0,.1.38.41.41,0,0,0,.33.13.54.54,0,0,0,.43-.17.65.65,0,0,0,.16-.46V78.77a.28.28,0,0,1,.08-.21.31.31,0,0,1,.25-.09ZM93.4,81a.32.32,0,0,1-.22-.08.28.28,0,0,1-.09-.22v-3a.27.27,0,0,1,.09-.22.33.33,0,0,1,.22-.08.34.34,0,0,1,.22.08.27.27,0,0,1,.09.22v3a.28.28,0,0,1-.09.22.33.33,0,0,1-.22.08Zm1.27,0a.32.32,0,0,1-.22-.08.28.28,0,0,1-.09-.22v-3a.27.27,0,0,1,.09-.22.33.33,0,0,1,.22-.08.34.34,0,0,1,.22.08.27.27,0,0,1,.09.22v3a.28.28,0,0,1-.09.22.33.33,0,0,1-.22.08Zm5.13-3.58a.31.31,0,0,1,.23.09.32.32,0,0,1,.08.23v2.93a.32.32,0,0,1-.09.23.34.34,0,0,1-.46,0,.33.33,0,0,1-.08-.23V79.44h-1.8v1.23a.32.32,0,0,1-.09.23.31.31,0,0,1-.23.09.3.3,0,0,1-.23-.09.32.32,0,0,1-.09-.23V77.74a.32.32,0,0,1,.08-.23.31.31,0,0,1,.23-.09.3.3,0,0,1,.32.32v1.18h1.8V77.74a.32.32,0,0,1,.08-.23.31.31,0,0,1,.25-.09Zm3,2.88a.17.17,0,0,1,.14.06.27.27,0,0,1,.05.18.3.3,0,0,1-.19.26,1.67,1.67,0,0,1-.38.15A1.59,1.59,0,0,1,102,81a1.27,1.27,0,0,1-.94-.34,1.25,1.25,0,0,1-.35-.93,1.43,1.43,0,0,1,.15-.66,1.09,1.09,0,0,1,.42-.45,1.2,1.2,0,0,1,.62-.16,1.11,1.11,0,0,1,.58.14,1,1,0,0,1,.38.41,1.36,1.36,0,0,1,.13.63q0,.21-.19.22h-1.5a.79.79,0,0,0,.2.51.66.66,0,0,0,.48.16.91.91,0,0,0,.28,0l.28-.11a.55.55,0,0,1,.21-.12Zm-.87-1.4a.54.54,0,0,0-.41.16.76.76,0,0,0-.18.46h1.13a.71.71,0,0,0-.15-.46.5.5,0,0,0-.39-.15Zm2.65-.44a1,1,0,0,1,.76.25,1.06,1.06,0,0,1,.25.77V80.7a.28.28,0,0,1-.08.21.3.3,0,0,1-.22.08.29.29,0,0,1-.21-.08.28.28,0,0,1-.08-.21v-.11a.65.65,0,0,1-.27.3.8.8,0,0,1-.42.11,1,1,0,0,1-.44-.1.79.79,0,0,1-.31-.28.7.7,0,0,1-.12-.39.62.62,0,0,1,.14-.42.83.83,0,0,1,.45-.23,4.07,4.07,0,0,1,.85-.07h.13V79.4a.51.51,0,0,0-.1-.36.45.45,0,0,0-.34-.11,1.08,1.08,0,0,0-.29,0l-.35.12a.5.5,0,0,1-.19.07.19.19,0,0,1-.15-.07.25.25,0,0,1-.06-.17.26.26,0,0,1,0-.15.4.4,0,0,1,.14-.12,1.63,1.63,0,0,1,.42-.15,2.15,2.15,0,0,1,.47-.05Zm-.15,2.1a.53.53,0,0,0,.41-.17.61.61,0,0,0,.16-.43v-.11h-.09a3.449,3.449,0,0,0-.52,0,.5.5,0,0,0-.27.11.27.27,0,0,0-.08.2.34.34,0,0,0,.11.26.4.4,0,0,0,.23.14Zm3.83-3.14a.33.33,0,0,1,.23.08.27.27,0,0,1,.09.21v3a.28.28,0,0,1-.08.22.36.36,0,0,1-.45,0,.28.28,0,0,1-.09-.22v-.13a.78.78,0,0,1-.32.32,1.023,1.023,0,0,1-1.03-.04,1.06,1.06,0,0,1-.38-.45,1.56,1.56,0,0,1-.14-.67,1.51,1.51,0,0,1,.14-.66,1.054,1.054,0,0,1,1.42-.49.76.76,0,0,1,.31.31V77.7a.26.26,0,0,1,.08-.2.31.31,0,0,1,.17-.08Zm-.92,3.1a.56.56,0,0,0,.46-.2.92.92,0,0,0,.16-.58.91.91,0,0,0-.16-.58.55.55,0,0,0-.46-.2.57.57,0,0,0-.47.2.88.88,0,0,0-.17.58.93.93,0,0,0,.17.59.55.55,0,0,0,.42.2Z" fill="#b8c0cc"/>
        <path id="Path_692" data-name="Path 692" d="M63.12,112a1.76,1.76,0,0,1-.89-.22,1.46,1.46,0,0,1-.59-.63,2.35,2.35,0,0,1,0-1.92,1.47,1.47,0,0,1,.59-.63,1.76,1.76,0,0,1,.89-.22,1.93,1.93,0,0,1,.62.1,1.61,1.61,0,0,1,.52.28.29.29,0,0,1,.09.1.33.33,0,0,1,0,.14.29.29,0,0,1-.06.18.18.18,0,0,1-.15.08.37.37,0,0,1-.2-.07,1.48,1.48,0,0,0-.4-.22,1.27,1.27,0,0,0-.41-.06,1,1,0,0,0-.79.32,1.84,1.84,0,0,0,0,1.91,1,1,0,0,0,.79.33,1.18,1.18,0,0,0,.4-.06,1.91,1.91,0,0,0,.41-.22l.1-.05h.1a.18.18,0,0,1,.14.08.29.29,0,0,1,.06.19.33.33,0,0,1,0,.13.28.28,0,0,1-.09.11,1.61,1.61,0,0,1-.52.28A1.93,1.93,0,0,1,63.12,112Zm2.77,0a1.35,1.35,0,0,1-.66-.16,1.07,1.07,0,0,1-.44-.44,1.54,1.54,0,0,1,0-1.35,1.08,1.08,0,0,1,.44-.44,1.47,1.47,0,0,1,1.31,0,1.06,1.06,0,0,1,.43.44,1.41,1.41,0,0,1,.15.67,1.43,1.43,0,0,1-.15.67,1.06,1.06,0,0,1-.43.44,1.35,1.35,0,0,1-.65.17Zm0-.48a.56.56,0,0,0,.47-.2,1.16,1.16,0,0,0,0-1.18.55.55,0,0,0-.46-.2.56.56,0,0,0-.46.2,1.16,1.16,0,0,0,0,1.18.55.55,0,0,0,.45.22ZM68,112a.32.32,0,0,1-.22-.08.28.28,0,0,1-.09-.22v-3a.27.27,0,0,1,.09-.22.33.33,0,0,1,.22-.07.34.34,0,0,1,.22.08.27.27,0,0,1,.09.22v3a.28.28,0,0,1-.09.22A.33.33,0,0,1,68,112Zm2,0a1.35,1.35,0,0,1-.66-.16,1.07,1.07,0,0,1-.44-.44,1.54,1.54,0,0,1,0-1.35,1.08,1.08,0,0,1,.44-.44,1.47,1.47,0,0,1,1.32,0,1.06,1.06,0,0,1,.44.44,1.571,1.571,0,0,1,0,1.34,1.06,1.06,0,0,1-.44.44A1.34,1.34,0,0,1,70,112Zm0-.48a.56.56,0,0,0,.47-.2,1.16,1.16,0,0,0,0-1.18A.55.55,0,0,0,70,110a.56.56,0,0,0-.46.2,1.15,1.15,0,0,0,0,1.18.55.55,0,0,0,.46.16Zm3.13-2.05a.27.27,0,0,1,.2.05.24.24,0,0,1,.07.2.27.27,0,0,1-.06.2.4.4,0,0,1-.23.09L73,110a.61.61,0,0,0-.43.2.65.65,0,0,0-.14.43v1.05a.28.28,0,0,1-.09.22.33.33,0,0,1-.23.08.32.32,0,0,1-.22-.08.28.28,0,0,1-.09-.22v-1.94a.27.27,0,0,1,.09-.21.32.32,0,0,1,.22-.08.3.3,0,0,1,.21.07.27.27,0,0,1,.08.21v.2a.74.74,0,0,1,.28-.34.87.87,0,0,1,.42-.13Zm.6,1.4a.32.32,0,0,1-.22-.06.23.23,0,0,1-.07-.18.24.24,0,0,1,.07-.18.31.31,0,0,1,.22-.07h1a.31.31,0,0,1,.22.07.24.24,0,0,1,.07.18.23.23,0,0,1-.07.18.32.32,0,0,1-.22.06Zm3,1.14a2.52,2.52,0,0,1-.73-.1,1.6,1.6,0,0,1-.56-.28.3.3,0,0,1-.05-.42.19.19,0,0,1,.15-.08.41.41,0,0,1,.2.07,1.5,1.5,0,0,0,.45.22,1.82,1.82,0,0,0,.52.07,1,1,0,0,0,.57-.13.42.42,0,0,0,.2-.37.32.32,0,0,0-.18-.29,2.42,2.42,0,0,0-.61-.2,3.6,3.6,0,0,1-.72-.22,1,1,0,0,1-.42-.31.83.83,0,0,1-.14-.5.93.93,0,0,1,.18-.56,1.15,1.15,0,0,1,.49-.38,1.93,1.93,0,0,1,1.86.24.38.38,0,0,1,.09.11.31.31,0,0,1,0,.32.19.19,0,0,1-.15.08h-.09l-.11-.06a1.69,1.69,0,0,0-.4-.22,1.35,1.35,0,0,0-.47-.07.93.93,0,0,0-.54.14.44.44,0,0,0-.2.38.35.35,0,0,0,.18.31,2.05,2.05,0,0,0,.6.2,4,4,0,0,1,.72.22,1.07,1.07,0,0,1,.42.31.75.75,0,0,1,.15.48.91.91,0,0,1-.17.55,1.12,1.12,0,0,1-.49.37,1.82,1.82,0,0,1-.72.13ZM79,112a.32.32,0,0,1-.22-.08.28.28,0,0,1-.09-.22v-1.93a.27.27,0,0,1,.09-.22.33.33,0,0,1,.22-.08.34.34,0,0,1,.23.07.27.27,0,0,1,.09.22v1.94a.28.28,0,0,1-.09.22A.33.33,0,0,1,79,112Zm0-3a.38.38,0,0,1-.27-.09.338.338,0,0,1,0-.48.45.45,0,0,1,.54,0,.3.3,0,0,1,.1.24.31.31,0,0,1-.1.24A.38.38,0,0,1,79,109Zm2.38.43a.82.82,0,0,1,.66.25,1.13,1.13,0,0,1,.22.76v1.23a.29.29,0,0,1-.08.22.31.31,0,0,1-.23.08.32.32,0,0,1-.23-.08.29.29,0,0,1-.08-.22v-1.2a.65.65,0,0,0-.11-.41.41.41,0,0,0-.34-.13.57.57,0,0,0-.43.17.63.63,0,0,0-.16.45v1.12a.29.29,0,0,1-.08.22.32.32,0,0,1-.23.08.31.31,0,0,1-.23-.08.29.29,0,0,1-.08-.22v-1.94a.27.27,0,0,1,.08-.21.32.32,0,0,1,.23-.08.3.3,0,0,1,.21.08.27.27,0,0,1,.08.2v.13a.85.85,0,0,1,.33-.31,1,1,0,0,1,.46-.06Zm3.58,0a.31.31,0,0,1,.23.08.28.28,0,0,1,.08.21v2a1.12,1.12,0,0,1-.32.87,1.35,1.35,0,0,1-.94.3,1.84,1.84,0,0,1-.91-.2.31.31,0,0,1-.18-.27.27.27,0,0,1,.05-.17.17.17,0,0,1,.14-.07h.11l.14.05.32.11a1.22,1.22,0,0,0,.33,0,.57.57,0,0,0,.66-.64v-.32a.76.76,0,0,1-.32.32,1,1,0,0,1-.48.11,1.06,1.06,0,0,1-.57-.15,1,1,0,0,1-.39-.43,1.38,1.38,0,0,1-.14-.64,1.42,1.42,0,0,1,.14-.64,1,1,0,0,1,.39-.43,1.07,1.07,0,0,1,.57-.15,1,1,0,0,1,.48.11.76.76,0,0,1,.32.32v-.13a.27.27,0,0,1,.08-.21.32.32,0,0,1,.23-.08Zm-.96,2a.58.58,0,0,0,.47-.19.95.95,0,0,0,0-1.08.65.65,0,0,0-.93,0,.8.8,0,0,0-.17.54.79.79,0,0,0,.17.53.58.58,0,0,0,.46.2Zm2.21.59a.32.32,0,0,1-.22-.08.28.28,0,0,1-.09-.22v-3a.27.27,0,0,1,.09-.22.33.33,0,0,1,.22-.07.34.34,0,0,1,.23.07.27.27,0,0,1,.09.22v3a.28.28,0,0,1-.09.22.33.33,0,0,1-.23.06Zm2.9-.7a.17.17,0,0,1,.14.06.27.27,0,0,1,.05.18.3.3,0,0,1-.18.26,1.671,1.671,0,0,1-.39.15,1.59,1.59,0,0,1-.41.06,1.27,1.27,0,0,1-.94-.34,1.25,1.25,0,0,1-.34-.93,1.43,1.43,0,0,1,.15-.66,1.09,1.09,0,0,1,.42-.45,1.2,1.2,0,0,1,.62-.16,1.11,1.11,0,0,1,.58.15,1,1,0,0,1,.38.41,1.36,1.36,0,0,1,.14.63q0,.21-.19.22H87.65a.79.79,0,0,0,.19.51.66.66,0,0,0,.48.16.91.91,0,0,0,.28,0l.28-.11a.55.55,0,0,1,.22-.08Zm-.86-1.4a.54.54,0,0,0-.41.16.75.75,0,0,0-.18.46h1.13a.71.71,0,0,0-.15-.46.5.5,0,0,0-.39-.15Zm3.32,2.1a.31.31,0,0,1-.23-.09.32.32,0,0,1-.09-.24v-2.92a.3.3,0,0,1,.08-.22.31.31,0,0,1,.23-.08h1.23a1.27,1.27,0,0,1,.88.28,1.16,1.16,0,0,1,0,1.59,1.27,1.27,0,0,1-.88.28h-.9v1.07a.31.31,0,0,1-.32.33Zm1.14-1.9q.66,0,.66-.58T92.7,109h-.82v1.16Zm3.05-.63a.27.27,0,0,1,.21.05.24.24,0,0,1,.08.2.27.27,0,0,1-.06.2.4.4,0,0,1-.24.09H95.6a.61.61,0,0,0-.43.2.65.65,0,0,0-.14.43v1.05a.28.28,0,0,1-.09.22.33.33,0,0,1-.23.08.32.32,0,0,1-.22-.08.28.28,0,0,1-.09-.22v-1.94a.27.27,0,0,1,.09-.21.32.32,0,0,1,.22-.08.3.3,0,0,1,.21.07.27.27,0,0,1,.08.21v.2a.74.74,0,0,1,.28-.34.87.87,0,0,1,.42-.13ZM97.31,112a1.35,1.35,0,0,1-.66-.16,1.07,1.07,0,0,1-.44-.44,1.54,1.54,0,0,1,0-1.35,1.08,1.08,0,0,1,.44-.44,1.47,1.47,0,0,1,1.32,0,1.06,1.06,0,0,1,.44.44,1.571,1.571,0,0,1,0,1.34,1.06,1.06,0,0,1-.44.44,1.34,1.34,0,0,1-.66.17Zm0-.49a.56.56,0,0,0,.47-.2,1.16,1.16,0,0,0,0-1.18.55.55,0,0,0-.46-.2.56.56,0,0,0-.46.2,1.15,1.15,0,0,0,0,1.18.55.55,0,0,0,.45.2Zm2.85.49a1.3,1.3,0,0,1-.64-.16,1.06,1.06,0,0,1-.43-.44,1.53,1.53,0,0,1,0-1.34,1.11,1.11,0,0,1,.44-.45,1.32,1.32,0,0,1,.65-.16,1.46,1.46,0,0,1,.39.06,1.3,1.3,0,0,1,.35.15.31.31,0,0,1,.16.27.28.28,0,0,1-.05.18.17.17,0,0,1-.14.07h-.12l-.12-.06-.21-.1a.65.65,0,0,0-.23,0,.58.58,0,0,0-.48.2.89.89,0,0,0-.17.58.88.88,0,0,0,.17.58.58.58,0,0,0,.48.2.62.62,0,0,0,.22,0l.22-.1.13-.07h.11a.17.17,0,0,1,.13.07.27.27,0,0,1,.06.17.28.28,0,0,1,0,.15.34.34,0,0,1-.12.11,1.32,1.32,0,0,1-.36.16,1.55,1.55,0,0,1-.42.06Zm3.29-.71a.17.17,0,0,1,.14.06.27.27,0,0,1,.05.17.3.3,0,0,1-.19.26,1.67,1.67,0,0,1-.38.15,1.59,1.59,0,0,1-.41.06,1.27,1.27,0,0,1-.94-.34,1.25,1.25,0,0,1-.35-.93,1.43,1.43,0,0,1,.15-.66,1.09,1.09,0,0,1,.42-.45,1.2,1.2,0,0,1,.62-.16,1.11,1.11,0,0,1,.58.15,1,1,0,0,1,.38.41,1.36,1.36,0,0,1,.13.63q0,.21-.19.22H102a.79.79,0,0,0,.19.51.66.66,0,0,0,.48.16.91.91,0,0,0,.28,0l.28-.11a.55.55,0,0,1,.22-.08Zm-.87-1.4a.54.54,0,0,0-.41.16.76.76,0,0,0-.18.46h1.13a.71.71,0,0,0-.15-.46.5.5,0,0,0-.4-.15Zm2.47,2.11a1.61,1.61,0,0,1-.88-.22.3.3,0,0,1-.16-.27.24.24,0,0,1,.05-.16.17.17,0,0,1,.14-.06.55.55,0,0,1,.24.08l.29.12a1.19,1.19,0,0,0,.34,0,.64.64,0,0,0,.33-.07.22.22,0,0,0,.12-.19.19.19,0,0,0,0-.14.44.44,0,0,0-.17-.09l-.37-.1a1.43,1.43,0,0,1-.64-.25.57.57,0,0,1-.19-.46.66.66,0,0,1,.13-.4.84.84,0,0,1,.36-.28,1.3,1.3,0,0,1,.52-.1,1.55,1.55,0,0,1,.4.05,1.23,1.23,0,0,1,.35.15.3.3,0,0,1,.16.26.26.26,0,0,1-.06.17.17.17,0,0,1-.13.07h-.11l-.13-.07-.24-.1a.78.78,0,0,0-.26,0,.5.5,0,0,0-.29.08.24.24,0,0,0-.11.2.21.21,0,0,0,.11.19,1.58,1.58,0,0,0,.42.13,2.419,2.419,0,0,1,.53.16.61.61,0,0,1,.27.22.65.65,0,0,1,.08.34.64.64,0,0,1-.28.55,1.25,1.25,0,0,1-.82.19Zm2.42,0a1.61,1.61,0,0,1-.88-.22.3.3,0,0,1-.16-.27.24.24,0,0,1,.06-.16.17.17,0,0,1,.13-.06.55.55,0,0,1,.24.08l.29.12a1.19,1.19,0,0,0,.34,0,.64.64,0,0,0,.33-.07.22.22,0,0,0,.12-.19.19.19,0,0,0,0-.14.44.44,0,0,0-.17-.09l-.37-.1a1.43,1.43,0,0,1-.64-.25.57.57,0,0,1-.19-.46.66.66,0,0,1,.13-.4.84.84,0,0,1,.36-.28,1.3,1.3,0,0,1,.52-.1,1.55,1.55,0,0,1,.4.05,1.23,1.23,0,0,1,.35.15.3.3,0,0,1,.16.26.26.26,0,0,1-.06.17.17.17,0,0,1-.13.07h-.11l-.13-.07-.25-.1a.78.78,0,0,0-.26,0,.5.5,0,0,0-.29.08.24.24,0,0,0-.11.2.21.21,0,0,0,.11.19,1.58,1.58,0,0,0,.42.13,2.42,2.42,0,0,1,.53.16.61.61,0,0,1,.27.22.65.65,0,0,1,.08.34.64.64,0,0,1-.28.55,1.25,1.25,0,0,1-.8.19Z" fill="#b8c0cc"/>
        <path id="Path_693" data-name="Path 693" d="M63.12,145.44a1.76,1.76,0,0,1-.89-.22,1.46,1.46,0,0,1-.59-.63,2.35,2.35,0,0,1,0-1.92,1.47,1.47,0,0,1,.59-.63,1.76,1.76,0,0,1,.89-.22,1.93,1.93,0,0,1,.62.1,1.61,1.61,0,0,1,.52.28.29.29,0,0,1,.09.1.32.32,0,0,1,0,.14.29.29,0,0,1-.06.18.18.18,0,0,1-.15.08.37.37,0,0,1-.2-.07,1.481,1.481,0,0,0-.4-.22,1.27,1.27,0,0,0-.41-.06,1,1,0,0,0-.79.32,1.84,1.84,0,0,0,0,1.91,1,1,0,0,0,.79.32,1.18,1.18,0,0,0,.4-.06,1.911,1.911,0,0,0,.41-.22l.1-.05h.1a.18.18,0,0,1,.14.08.29.29,0,0,1,.06.19.33.33,0,0,1,0,.13.28.28,0,0,1-.09.11,1.61,1.61,0,0,1-.52.28A1.93,1.93,0,0,1,63.12,145.44Zm2.77,0a1.34,1.34,0,0,1-.66-.16,1.07,1.07,0,0,1-.44-.44,1.54,1.54,0,0,1,0-1.35,1.08,1.08,0,0,1,.44-.44,1.47,1.47,0,0,1,1.31,0,1.06,1.06,0,0,1,.43.44,1.41,1.41,0,0,1,.15.67,1.43,1.43,0,0,1-.15.68,1.06,1.06,0,0,1-.43.44,1.34,1.34,0,0,1-.65.16Zm0-.48a.56.56,0,0,0,.47-.2,1.16,1.16,0,0,0,0-1.18.55.55,0,0,0-.46-.2.56.56,0,0,0-.46.2,1.16,1.16,0,0,0,0,1.18.55.55,0,0,0,.45.24Zm2.08.47a.32.32,0,0,1-.22-.08.28.28,0,0,1-.09-.22v-3a.27.27,0,0,1,.09-.22.33.33,0,0,1,.22-.07.34.34,0,0,1,.22.08.27.27,0,0,1,.09.22v3a.28.28,0,0,1-.09.22.33.33,0,0,1-.19.07Zm2.07,0a1.34,1.34,0,0,1-.66-.16,1.07,1.07,0,0,1-.44-.44,1.54,1.54,0,0,1,0-1.35,1.08,1.08,0,0,1,.44-.44,1.47,1.47,0,0,1,1.32,0,1.06,1.06,0,0,1,.44.44,1.594,1.594,0,0,1,0,1.35,1.06,1.06,0,0,1-.44.44,1.35,1.35,0,0,1-.7.17Zm0-.48a.56.56,0,0,0,.47-.2,1.16,1.16,0,0,0,0-1.18.55.55,0,0,0-.46-.2.56.56,0,0,0-.46.2,1.15,1.15,0,0,0,0,1.18A.55.55,0,0,0,70,145Zm3.13-2.06a.27.27,0,0,1,.2.06.24.24,0,0,1,.07.19.27.27,0,0,1-.06.2.4.4,0,0,1-.23.09H73a.61.61,0,0,0-.43.2.65.65,0,0,0-.14.43v1.05a.28.28,0,0,1-.09.22.33.33,0,0,1-.23.08.32.32,0,0,1-.22-.08.28.28,0,0,1-.09-.22v-1.93a.27.27,0,0,1,.09-.21.32.32,0,0,1,.22-.08.3.3,0,0,1,.21.07.27.27,0,0,1,.08.21v.2a.74.74,0,0,1,.28-.34.87.87,0,0,1,.42-.13ZM76.59,145a.32.32,0,0,1,.06.17.23.23,0,0,1-.09.19.34.34,0,0,1-.22.08.29.29,0,0,1-.28-.14l-.66-1a.65.65,0,0,0-.21-.22.58.58,0,0,0-.29-.06h-.5v1.11a.33.33,0,0,1-.09.24.339.339,0,0,1-.46,0,.32.32,0,0,1-.09-.24v-2.92a.3.3,0,0,1,.08-.22.31.31,0,0,1,.23-.08h1.25a1.37,1.37,0,0,1,.91.27,1.1,1.1,0,0,1,.08,1.44,1.1,1.1,0,0,1-.66.34.63.63,0,0,1,.26.13,1.1,1.1,0,0,1,.22.25Zm-1.35-1.5a.85.85,0,0,0,.53-.14.51.51,0,0,0,.17-.42.5.5,0,0,0-.17-.42.87.87,0,0,0-.53-.13H74.4v1.11Zm3.06,1.95a1.34,1.34,0,0,1-.66-.16,1.07,1.07,0,0,1-.44-.44,1.54,1.54,0,0,1,0-1.35,1.08,1.08,0,0,1,.44-.44A1.47,1.47,0,0,1,79,143a1.06,1.06,0,0,1,.43.44,1.41,1.41,0,0,1,.15.67,1.43,1.43,0,0,1-.15.68,1.06,1.06,0,0,1-.43.44,1.34,1.34,0,0,1-.7.21Zm0-.48a.56.56,0,0,0,.47-.2,1.16,1.16,0,0,0,0-1.18.55.55,0,0,0-.46-.2.56.56,0,0,0-.46.2,1.15,1.15,0,0,0,0,1.18.56.56,0,0,0,.45.23Zm2.88.48a1.34,1.34,0,0,1-.66-.16,1.07,1.07,0,0,1-.44-.44,1.54,1.54,0,0,1,0-1.35,1.08,1.08,0,0,1,.44-.44,1.47,1.47,0,0,1,1.31,0,1.06,1.06,0,0,1,.43.44,1.41,1.41,0,0,1,.15.67,1.43,1.43,0,0,1-.15.68,1.06,1.06,0,0,1-.43.44,1.34,1.34,0,0,1-.65.15Zm0-.48a.56.56,0,0,0,.47-.2,1.16,1.16,0,0,0,0-1.18.55.55,0,0,0-.46-.2.56.56,0,0,0-.46.2,1.15,1.15,0,0,0,0,1.18.56.56,0,0,0,.44.23Zm3,0q.25,0,.25.22a.2.2,0,0,1-.1.18.47.47,0,0,1-.28.05h-.13a.8.8,0,0,1-.84-.9v-1.09h-.25a.32.32,0,0,1-.21-.06.25.25,0,0,1,0-.35.32.32,0,0,1,.21-.06h.25v-.46a.28.28,0,0,1,.08-.21.32.32,0,0,1,.23-.08.31.31,0,0,1,.23.08.28.28,0,0,1,.08.21v.5h.42a.32.32,0,0,1,.21.06.25.25,0,0,1,0,.35.32.32,0,0,1-.21.06H83.7v1.14a.35.35,0,0,0,.34.4Zm1.46.47a1.61,1.61,0,0,1-.88-.22.3.3,0,0,1-.16-.27.24.24,0,0,1,.06-.16.17.17,0,0,1,.13-.06.55.55,0,0,1,.24.08l.29.12a1.191,1.191,0,0,0,.34,0,.64.64,0,0,0,.33-.07.22.22,0,0,0,.12-.19.19.19,0,0,0-.05-.14.44.44,0,0,0-.17-.09l-.37-.1a1.43,1.43,0,0,1-.64-.25.57.57,0,0,1-.19-.46.66.66,0,0,1,.13-.4.84.84,0,0,1,.36-.28,1.3,1.3,0,0,1,.52-.1,1.551,1.551,0,0,1,.41.05,1.23,1.23,0,0,1,.35.15.3.3,0,0,1,.16.26.26.26,0,0,1-.06.17.17.17,0,0,1-.14.07h-.11l-.13-.07-.25-.1a.78.78,0,0,0-.26,0,.5.5,0,0,0-.29.08.24.24,0,0,0-.11.2.21.21,0,0,0,.11.19,1.58,1.58,0,0,0,.42.13,2.419,2.419,0,0,1,.52.16.62.62,0,0,1,.27.22.65.65,0,0,1,.08.35.64.64,0,0,1-.28.54,1.25,1.25,0,0,1-.74.19Zm5.77-.44a.32.32,0,0,1,.06.18.23.23,0,0,1-.09.19.34.34,0,0,1-.22.07.31.31,0,0,1-.27-.15l-.67-1a.65.65,0,0,0-.21-.23.58.58,0,0,0-.29-.06h-.49v1.11a.33.33,0,0,1-.08.24.339.339,0,0,1-.46,0,.32.32,0,0,1-.09-.24v-2.92a.3.3,0,0,1,.08-.22.31.31,0,0,1,.23-.08h1.25a1.37,1.37,0,0,1,.91.27,1.1,1.1,0,0,1,.08,1.44,1.1,1.1,0,0,1-.66.34.63.63,0,0,1,.25.13,1.1,1.1,0,0,1,.22.25Zm-1.35-1.5a.85.85,0,0,0,.53-.14.51.51,0,0,0,.17-.42.5.5,0,0,0-.17-.42.87.87,0,0,0-.53-.13h-.84v1.11ZM94,144.73a.17.17,0,0,1,.14.06.27.27,0,0,1,.05.17.3.3,0,0,1-.19.26,1.669,1.669,0,0,1-.38.15,1.589,1.589,0,0,1-.41.06,1.27,1.27,0,0,1-.94-.34,1.25,1.25,0,0,1-.34-.93,1.43,1.43,0,0,1,.15-.67,1.09,1.09,0,0,1,.42-.45,1.2,1.2,0,0,1,.62-.16,1.11,1.11,0,0,1,.58.14,1,1,0,0,1,.38.41,1.36,1.36,0,0,1,.13.63q0,.21-.19.22H92.5a.79.79,0,0,0,.19.51.66.66,0,0,0,.48.16.911.911,0,0,0,.28,0l.28-.11a.55.55,0,0,1,.27-.11Zm-.86-1.4a.54.54,0,0,0-.41.16.75.75,0,0,0-.18.46h1.13a.71.71,0,0,0-.15-.46.5.5,0,0,0-.4-.15ZM95.86,145q.25,0,.25.22a.2.2,0,0,1-.1.18.46.46,0,0,1-.28.05H95.6a.8.8,0,0,1-.84-.9v-1.09h-.25a.32.32,0,0,1-.21-.06.25.25,0,0,1,0-.35.32.32,0,0,1,.21-.06h.25v-.46a.28.28,0,0,1,.08-.21.32.32,0,0,1,.23-.08.31.31,0,0,1,.22.08.28.28,0,0,1,.08.21V143h.42a.32.32,0,0,1,.21,0,.25.25,0,0,1,0,.35.32.32,0,0,1-.21.06h-.42v1.14a.35.35,0,0,0,.34.4Zm1.69.47a1.35,1.35,0,0,1-.66-.16,1.07,1.07,0,0,1-.43-.44,1.54,1.54,0,0,1,0-1.35,1.08,1.08,0,0,1,.44-.44,1.47,1.47,0,0,1,1.32,0,1.06,1.06,0,0,1,.44.44,1.594,1.594,0,0,1,0,1.35,1.06,1.06,0,0,1-.44.44,1.34,1.34,0,0,1-.67.13Zm0-.48a.56.56,0,0,0,.47-.2,1.16,1.16,0,0,0,0-1.18.55.55,0,0,0-.46-.2.56.56,0,0,0-.46.2,1.15,1.15,0,0,0,0,1.18.55.55,0,0,0,.45.2Zm3.69-2.06a.32.32,0,0,1,.23.08.28.28,0,0,1,.09.22v1.94a.27.27,0,0,1-.09.21.32.32,0,0,1-.23.08.3.3,0,0,1-.22-.07.27.27,0,0,1-.08-.2V145a.8.8,0,0,1-.31.31.9.9,0,0,1-.44.11q-.9,0-.9-1V143.2a.28.28,0,0,1,.08-.21.31.31,0,0,1,.22-.08.32.32,0,0,1,.23.08.28.28,0,0,1,.08.21v1.24a.59.59,0,0,0,.1.38.41.41,0,0,0,.33.13.54.54,0,0,0,.42-.17.65.65,0,0,0,.16-.46V143.2a.28.28,0,0,1,.09-.2.31.31,0,0,1,.24-.1Zm2,2.54a1.3,1.3,0,0,1-.64-.16,1.06,1.06,0,0,1-.43-.44,1.53,1.53,0,0,1,0-1.34,1.11,1.11,0,0,1,.44-.45,1.32,1.32,0,0,1,.65-.16,1.461,1.461,0,0,1,.39.05,1.3,1.3,0,0,1,.35.15.31.31,0,0,1,.16.27.28.28,0,0,1-.05.18.17.17,0,0,1-.14.07h-.12l-.12-.06-.21-.1a.65.65,0,0,0-.23,0,.58.58,0,0,0-.48.2.89.89,0,0,0-.17.58.88.88,0,0,0,.17.58.58.58,0,0,0,.48.2.62.62,0,0,0,.22,0l.22-.1.13-.07h.11a.17.17,0,0,1,.13.07.53.53,0,0,1,.06.33.34.34,0,0,1-.12.11,1.32,1.32,0,0,1-.36.16,1.55,1.55,0,0,1-.39-.1Zm2.78-2.55q.86,0,.86,1v1.23a.29.29,0,0,1-.08.22.31.31,0,0,1-.23.08.32.32,0,0,1-.23-.08.29.29,0,0,1-.08-.22V143.9a.58.58,0,0,0-.11-.39.43.43,0,0,0-.34-.12.57.57,0,0,0-.43.17.63.63,0,0,0-.16.46v1.11a.29.29,0,0,1-.08.22.32.32,0,0,1-.23.08.31.31,0,0,1-.23-.08.29.29,0,0,1-.08-.22v-3a.27.27,0,0,1,.09-.21.32.32,0,0,1,.23-.08.33.33,0,0,1,.22.08.26.26,0,0,1,.08.2v1.17a.82.82,0,0,1,.33-.3,1.05,1.05,0,0,1,.53-.1Z" fill="#b8c0cc"/>
      </g>
      <path id="Path_770" data-name="Path 770" d="M42,113.79h0a40.76,40.76,0,0,1,40.76,40.76h0a41,41,0,0,1-41,41H7.55A6.61,6.61,0,0,1,.94,189V154.83a41,41,0,0,1,41-41Z" fill="#fff"/>
      <path id="Path_771" data-name="Path 771" d="M41.47,113.85h0a40.581,40.581,0,0,1,6.34.5C31.14,114,8.47,126.28,8.47,154.56v35.09a5.78,5.78,0,0,0,5.76,5.76H6.53a5.78,5.78,0,0,1-5.76-5.76V154.56a40.83,40.83,0,0,1,40.7-40.71Z" fill="#eaeff4"/>
      <path id="Path_772" data-name="Path 772" d="M42,113.79h0a40.76,40.76,0,0,1,40.76,40.76h0a41,41,0,0,1-41,41H7.55A6.61,6.61,0,0,1,.94,189V154.83a41,41,0,0,1,41-41Z" fill="none" stroke="#b8c0cc" stroke-linecap="round" stroke-linejoin="round" stroke-width="1.88"/>
      <ellipse id="Ellipse_202" data-name="Ellipse 202" cx="2.37" cy="3.73" rx="2.37" ry="3.73" transform="translate(58.797 139.758) rotate(-17.66)" fill="#b8c0cc"/>
      <ellipse id="Ellipse_185" data-name="Ellipse 185" cx="3.78" cy="3.9" rx="3.78" ry="3.9" transform="translate(88.497 139.724) rotate(-12.25)" fill="#b8c0cc"/>
      <path id="Path_670" data-name="Path 670" d="M93.13,143.36s-11.35,27.31-46.61,21.2" fill="none" stroke="#b8c0cc" stroke-linecap="round" stroke-linejoin="round" stroke-width="1.88"/>
    </g>
  </g>
</svg>
