<svg width="105" height="109" viewBox="0 0 105 109" fill="none" xmlns="http://www.w3.org/2000/svg">
<g clip-path="url(#clip0)">
<path d="M52.5 105.94C81.4949 105.94 105 82.4349 105 53.4399C105 24.445 81.4949 0.939941 52.5 0.939941C23.5051 0.939941 0 24.445 0 53.4399C0 82.4349 23.5051 105.94 52.5 105.94Z" fill="#E6E9EF"/>
<rect x="16" y="29.3335" width="64.367" height="40.359" rx="2" fill="#B8C0CC"/>
<rect x="20.1628" y="30.5391" width="54.4205" height="37.9444" rx="1" fill="white"/>
<path d="M41.203 53.2619V48.5684C41.203 43.9598 44.9473 40.2277 49.5708 40.2277H49.6938C54.3173 40.2277 58.0616 43.9598 58.0616 48.5684V48.6909C58.0616 53.2995 54.3173 57.0317 49.6938 57.0317H43.5668C41.4678 57.0317 41.2219 55.3447 41.203 53.2619Z" fill="white"/>
<path d="M40.8956 48.6068V55.8166C40.905 56.4764 41.4345 57.0041 42.0964 57.0136H43.6943C43.0324 57.0041 42.503 56.4764 42.4935 55.8166V48.6068C42.4935 42.7824 47.1738 40.2661 50.606 40.3415C50.1711 40.2755 49.7267 40.2472 49.2918 40.2378C44.6587 40.2661 40.9145 43.9982 40.8956 48.6068Z" fill="#EAEFF4"/>
<path d="M42.602 57.9817L42.602 57.9818H42.6119H49.5047C54.6445 57.9818 58.8125 53.8317 58.8125 48.7011V48.5786C58.8125 43.4479 54.6445 39.2978 49.5047 39.2978H49.3818C44.2419 39.2978 40.0739 43.4479 40.0739 48.5786V55.4491C40.0739 56.853 41.2101 57.9671 42.602 57.9817Z" stroke="#EC008C" stroke-width="1.88" stroke-miterlimit="10"/>
<path d="M52.918 45.43C52.918 45.0153 53.2584 44.676 53.6744 44.676C54.0904 44.676 54.4308 45.0153 54.4308 45.43C54.4308 45.8447 54.0904 46.1839 53.6744 46.1839C53.2584 46.1839 52.918 45.8447 52.918 45.43Z" fill="#EC008C"/>
<ellipse cx="77.3716" cy="50.0844" rx="1.93221" ry="1.92742" fill="white"/>
<ellipse cx="18.6962" cy="48.701" rx="0.778202" ry="0.77627" fill="white"/>
<path d="M86.0046 107.884H62.2728C60.9116 107.884 59.8449 106.817 59.8449 105.458V60.7658C59.8449 59.407 60.9116 58.3401 62.2728 58.3401H86.0046C87.3658 58.3401 88.4324 59.407 88.4324 60.7658V105.458C88.4324 106.817 87.3658 107.884 86.0046 107.884Z" fill="white" stroke="#B8C0CC" stroke-width="1.88"/>
<path d="M66.622 87.4746V82.7812C66.622 78.1726 70.3663 74.4404 74.9898 74.4404H75.1128C79.7363 74.4404 83.4806 78.1726 83.4806 82.7812V82.9037C83.4806 87.5123 79.7363 91.2445 75.1128 91.2445H68.9858C66.8868 91.2445 66.6409 89.5574 66.622 87.4746Z" fill="white"/>
<path d="M66.3146 82.8189V90.0287C66.324 90.6884 66.8535 91.2162 67.5154 91.2256H69.1133C68.4514 91.2162 67.922 90.6884 67.9125 90.0287V82.8189C67.9125 76.9945 72.5928 74.4781 76.025 74.5535C75.5901 74.4875 75.1457 74.4593 74.7107 74.4498C70.0777 74.4781 66.3335 78.2102 66.3146 82.8189Z" fill="#EAEFF4"/>
<path d="M68.0209 92.1938L68.0209 92.1938H68.0308H74.9236C80.0635 92.1938 84.2315 88.0437 84.2315 82.9131V82.7906C84.2315 77.66 80.0635 73.5098 74.9236 73.5098H74.8007C69.6609 73.5098 65.4929 77.66 65.4929 82.7906V89.6611C65.4929 91.065 66.6291 92.1791 68.0209 92.1938Z" stroke="#EC008C" stroke-width="1.88" stroke-miterlimit="10"/>
<path d="M78.337 79.6428C78.337 79.2281 78.6774 78.8888 79.0934 78.8888C79.5094 78.8888 79.8498 79.2281 79.8498 79.6428C79.8498 80.0574 79.5094 80.3967 79.0934 80.3967C78.6774 80.3967 78.337 80.0574 78.337 79.6428Z" fill="#EC008C"/>
</g>
<defs>
<clipPath id="clip0">
<rect width="105" height="108" fill="white" transform="translate(0 0.939941)"/>
</clipPath>
</defs>
</svg>
