<svg width="61" height="60" viewBox="0 0 61 60" fill="none" xmlns="http://www.w3.org/2000/svg">
<path d="M29.9845 51.8149C43.3849 51.8149 54.248 40.4954 54.248 26.5321C54.248 12.5688 43.3849 1.24927 29.9845 1.24927C16.5842 1.24927 5.72111 12.5688 5.72111 26.5321C5.72111 40.4954 16.5842 51.8149 29.9845 51.8149Z" fill="#F0F4F7"/>
<rect x="40.3881" y="17" width="9.57983" height="36.8824" rx="1" fill="white" stroke="#B8C0CC" stroke-width="1.88"/>
<rect x="10.9203" y="40.4707" width="9.83529" height="13.2467" rx="1" fill="white" stroke="#B8C0CC" stroke-width="1.88"/>
<rect x="25.8222" y="29.2942" width="9.57983" height="24.5882" rx="1" fill="white" stroke="#B8C0CC" stroke-width="1.88"/>
<line x1="2.28044" y1="54.06" x2="58.9439" y2="54.06" stroke="#B8C0CC" stroke-width="1.88" stroke-linecap="round" stroke-linejoin="round"/>
<path d="M28.06 34.8823C28.06 40.5363 23.4798 45.1188 17.8313 45.1188C12.1827 45.1188 7.60257 40.5363 7.60257 34.8823C7.60257 29.2282 12.1827 24.6458 17.8313 24.6458C23.4798 24.6458 28.06 29.2282 28.06 34.8823Z" fill="white" stroke="#B8C0CC" stroke-width="1.88"/>
<path d="M21.1569 37.3157C21.1569 38.031 20.9067 38.6345 20.4064 39.1263C19.915 39.618 19.2493 39.9265 18.4094 40.0517V40.8966C18.4094 41.1023 18.3469 41.2677 18.2218 41.3929C18.0967 41.527 17.9314 41.594 17.7259 41.594C17.5204 41.594 17.3551 41.527 17.23 41.3929C17.1049 41.2677 17.0424 41.1023 17.0424 40.8966V40.0785C16.5331 40.0338 16.0372 39.9265 15.5547 39.7566C15.0722 39.5867 14.6567 39.3632 14.3083 39.086C14.1921 39.0056 14.1117 38.9162 14.067 38.8178C14.0223 38.7195 14 38.5987 14 38.4557C14 38.2679 14.0536 38.1025 14.1608 37.9595C14.277 37.8164 14.4065 37.7449 14.5495 37.7449C14.6389 37.7449 14.7193 37.7627 14.7907 37.7985C14.8712 37.8253 14.9739 37.8745 15.099 37.946C15.51 38.2143 15.9121 38.411 16.3052 38.5362C16.7073 38.6613 17.1272 38.7239 17.5651 38.7239C18.1637 38.7239 18.6238 38.6077 18.9455 38.3752C19.2761 38.1427 19.4414 37.8075 19.4414 37.3693C19.4414 37.11 19.352 36.8999 19.1733 36.739C18.9946 36.578 18.7713 36.4529 18.5032 36.3635C18.2352 36.2651 17.8599 36.1533 17.3774 36.0282C16.7073 35.8583 16.1623 35.6884 15.7423 35.5185C15.3224 35.3397 14.9605 35.0715 14.6567 34.7138C14.3529 34.3562 14.201 33.8733 14.201 33.2653C14.201 32.5411 14.4602 31.9242 14.9784 31.4145C15.4966 30.9049 16.1757 30.5875 17.0156 30.4623V29.6173C17.0156 29.4117 17.0781 29.2463 17.2032 29.1211C17.3283 28.987 17.4936 28.9199 17.6991 28.9199C17.9046 28.9199 18.0699 28.987 18.195 29.1211C18.3201 29.2463 18.3826 29.4117 18.3826 29.6173V30.4489C19.285 30.5651 20.0624 30.8915 20.7146 31.4279C20.9291 31.5889 21.0363 31.799 21.0363 32.0583C21.0363 32.246 20.9782 32.4115 20.8621 32.5545C20.7548 32.6976 20.6253 32.7691 20.4734 32.7691C20.393 32.7691 20.3126 32.7557 20.2321 32.7289C20.1607 32.702 20.0624 32.6484 19.9373 32.5679C19.571 32.3086 19.2225 32.1164 18.8919 31.9912C18.5702 31.8571 18.186 31.79 17.7393 31.79C17.1853 31.79 16.743 31.9152 16.4124 32.1656C16.0818 32.407 15.9166 32.7423 15.9166 33.1715C15.9166 33.4665 16.0104 33.7079 16.198 33.8957C16.3856 34.0745 16.6224 34.2131 16.9083 34.3115C17.1943 34.4098 17.5829 34.5216 18.0743 34.6467C18.7266 34.8077 19.2582 34.9731 19.6692 35.143C20.0802 35.3129 20.4287 35.5722 20.7146 35.9209C21.0095 36.2606 21.1569 36.7256 21.1569 37.3157Z" fill="#B8C0CC"/>
</svg>
