<svg width="61" height="60" viewBox="0 0 61 60" fill="none" xmlns="http://www.w3.org/2000/svg">
<path d="M31.0986 51.8149C45.169 51.8149 56.5752 40.4954 56.5752 26.5321C56.5752 12.5688 45.169 1.24927 31.0986 1.24927C17.0283 1.24927 5.62204 12.5688 5.62204 26.5321C5.62204 40.4954 17.0283 51.8149 31.0986 51.8149Z" fill="#F0F4F7"/>
<path d="M14.6039 38.2366V46.9338C14.6039 50.8907 12.9976 54.4557 10.412 57.0414H35.4851C34.5448 54.8083 33.9964 52.4186 33.8397 49.8721C32.4293 50.4597 30.8622 50.7731 29.2168 50.7731C26.8609 50.7731 24.6587 50.1265 22.7778 49.0006C19.1225 46.8126 16.6802 42.8149 16.6802 38.2366H14.6039Z" fill="white" stroke="#B8C0CC" stroke-width="1.88" stroke-miterlimit="10" stroke-linecap="round" stroke-linejoin="round"/>
<path d="M37.9208 19.9999L52.6049 19.9999C52.6049 20.2998 51.5012 24.0886 50.631 26.655C50.067 28.3184 48.9391 29.1775 47.4657 29.1775L42.8568 29.1775C41.1441 29.1775 40.141 27.4959 39.8536 26.655L37.9208 19.9999Z" fill="white" stroke="#B8C0CC" stroke-width="1.88" stroke-linecap="round" stroke-linejoin="round"/>
<path d="M45.2629 29.1775L45.2629 58.0869" stroke="#B8C0CC" stroke-width="1.88" stroke-linecap="round"/>
<path d="M41.7534 38.2366C41.7534 45.1709 36.1511 50.7731 29.2168 50.7731C22.2825 50.7731 16.6803 45.1709 16.6803 38.2366H41.7534Z" fill="white" stroke="white" stroke-width="1.88" stroke-miterlimit="10" stroke-linecap="round" stroke-linejoin="round"/>
<path d="M16.8124 38.2366H41.8855C41.8855 45.1709 36.2832 50.7731 29.3489 50.7731C27.1281 50.7731 25.044 50.1985 23.2367 49.1895" stroke="#B8C0CC" stroke-width="1.88" stroke-miterlimit="10" stroke-linecap="round" stroke-linejoin="round"/>
<path d="M12.9 38.3552C11.5256 38.3552 10.3881 37.1851 10.3881 35.7712L10.3881 22.7533L20.4834 22.7533L20.4834 35.7712C20.4834 37.1851 19.3459 38.3552 17.9714 38.3552L12.9 38.3552Z" fill="white" stroke="#B8C0CC" stroke-width="1.88" stroke-miterlimit="10" stroke-linecap="round" stroke-linejoin="round"/>
</svg>
