<svg width="61" height="60" viewBox="0 0 61 60" fill="none" xmlns="http://www.w3.org/2000/svg">
<path d="M31.8756 51.8149C45.946 51.8149 57.3522 40.4954 57.3522 26.5321C57.3522 12.5688 45.946 1.24927 31.8756 1.24927C17.8053 1.24927 6.39902 12.5688 6.39902 26.5321C6.39902 40.4954 17.8053 51.8149 31.8756 51.8149Z" fill="#F0F4F7"/>
<path d="M53.1777 38.9743L34.9027 24.0014V20H28.5517V23.7432L10.0174 38.9743" fill="white"/>
<path d="M53.1777 38.9743L34.9027 24.0014V20H28.5517V23.7432L10.0174 38.9743" stroke="#B8C0CC" stroke-width="1.88" stroke-miterlimit="10" stroke-linecap="round" stroke-linejoin="round"/>
<path d="M48.3822 35.8765C48.3822 36.0055 48.3822 36.1346 48.3822 36.1346V54.9798C48.3822 56.0125 47.6045 56.7869 46.5676 56.7869H16.6276C15.5907 56.7869 14.813 56.0125 14.813 54.9798V36.1346" fill="white"/>
<path d="M48.3822 35.8765C48.3822 36.0055 48.3822 36.1346 48.3822 36.1346V54.9798C48.3822 56.0125 47.6045 56.7869 46.5676 56.7869H16.6276C15.5907 56.7869 14.813 56.0125 14.813 54.9798V36.1346" stroke="#B8C0CC" stroke-width="1.88" stroke-miterlimit="10" stroke-linecap="round" stroke-linejoin="round"/>
<path d="M26.388 37.3801C25.8689 37.3801 25.448 37.8009 25.448 38.3201C25.448 38.8392 25.8689 39.2601 26.388 39.2601V37.3801ZM37.0281 39.2601C37.5473 39.2601 37.9681 38.8392 37.9681 38.3201C37.9681 37.8009 37.5473 37.3801 37.0281 37.3801V39.2601ZM26.388 39.2601H37.0281V37.3801H26.388V39.2601Z" fill="#B8C0CC"/>
<path d="M32.6481 33C32.6481 32.4809 32.2272 32.06 31.7081 32.06C31.1889 32.06 30.7681 32.4809 30.7681 33L32.6481 33ZM30.7681 43.6401C30.7681 44.1593 31.1889 44.5801 31.7081 44.5801C32.2272 44.5801 32.6481 44.1593 32.6481 43.6401L30.7681 43.6401ZM30.7681 33L30.7681 43.6401L32.6481 43.6401L32.6481 33L30.7681 33Z" fill="#B8C0CC"/>
</svg>
