<svg width="61" height="61" viewBox="0 0 61 61" fill="none" xmlns="http://www.w3.org/2000/svg">
<path d="M30.2984 52.493C44.3688 52.493 55.775 41.0868 55.775 27.0164C55.775 12.9461 44.3688 1.53986 30.2984 1.53986C16.2281 1.53986 4.82184 12.9461 4.82184 27.0164C4.82184 41.0868 16.2281 52.493 30.2984 52.493Z" fill="#F0F4F7"/>
<path d="M38.9302 19.0175H45.0747C46.161 19.0175 47.0097 19.9318 47.0097 21.0219V39.2368C47.0097 40.362 46.1271 41.2411 45.0747 41.2411H38.9302H36.9273V46.0585L30.2056 41.2411" fill="white"/>
<path d="M38.9302 19.0175H45.0747C46.161 19.0175 47.0097 19.9318 47.0097 21.0219V39.2368C47.0097 40.362 46.1271 41.2411 45.0747 41.2411H38.9302H36.9273V46.0585L30.2056 41.2411" stroke="#B8C0CC" stroke-width="1.88" stroke-miterlimit="10" stroke-linecap="round" stroke-linejoin="round"/>
<path d="M38.8962 14.517H14.1484C13.3676 14.517 12.7226 15.1851 12.7226 15.9939V34.6659C12.7226 35.4746 13.3676 36.1428 14.1484 36.1428H22.3298V41.2415L29.1193 36.1428H38.9302C39.711 36.1428 40.356 35.4746 40.356 34.6659V15.9939C40.322 15.1851 39.677 14.517 38.8962 14.517Z" fill="white" stroke="#EC008C" stroke-width="1.88" stroke-miterlimit="10" stroke-linecap="round" stroke-linejoin="round"/>
<ellipse cx="19.308" cy="25.3097" rx="2.0705" ry="2.08637" fill="#B8C0CC"/>
<ellipse cx="26.1963" cy="25.3097" rx="2.0705" ry="2.08637" fill="#B8C0CC"/>
<ellipse cx="33.4213" cy="25.3097" rx="2.0705" ry="2.08637" fill="#B8C0CC"/>
</svg>
