<svg width="61" height="61" viewBox="0 0 61 61" fill="none" xmlns="http://www.w3.org/2000/svg">
<path d="M30.8429 52.493C44.9133 52.493 56.3195 41.0868 56.3195 27.0164C56.3195 12.9461 44.9133 1.53986 30.8429 1.53986C16.7726 1.53986 5.36633 12.9461 5.36633 27.0164C5.36633 41.0868 16.7726 52.493 30.8429 52.493Z" fill="#F0F4F7"/>
<path d="M24.598 50.6052C24.5992 50.8576 24.6986 51.0993 24.8745 51.2778C25.0505 51.4564 25.2887 51.5573 25.5375 51.5587H48.4909C48.7397 51.5573 48.978 51.4564 49.1538 51.2778C49.3298 51.0993 49.4291 50.8576 49.4304 50.6052V21.7471L42.3872 14.5758H25.5386C25.2898 14.5772 25.0517 14.6781 24.8757 14.8565C24.6998 15.035 24.6005 15.2765 24.599 15.5289V20.7957" fill="white"/>
<path d="M24.598 50.6052C24.5992 50.8576 24.6986 51.0993 24.8745 51.2778C25.0505 51.4564 25.2887 51.5573 25.5375 51.5587H48.4909C48.7397 51.5573 48.978 51.4564 49.1538 51.2778C49.3298 51.0993 49.4291 50.8576 49.4304 50.6052V21.7471L42.3872 14.5758H25.5386C25.2898 14.5772 25.0517 14.6781 24.8757 14.8565C24.6998 15.035 24.6005 15.2765 24.599 15.5289V20.7957" stroke="#B8C0CC" stroke-width="1.88"/>
<path d="M35.4285 36.0912C35.4285 38.4165 34.7487 40.6897 33.4752 42.6231C32.2017 44.5565 30.3916 46.0634 28.2738 46.9533C26.156 47.8431 23.8256 48.0759 21.5773 47.6223C19.3291 47.1687 17.2639 46.0489 15.6431 44.4047C14.0222 42.7604 12.9183 40.6656 12.4711 38.3849C12.0239 36.1043 12.2534 33.7404 13.1307 31.5921C14.0079 29.4438 15.4934 27.6076 17.3994 26.3157C19.3053 25.0238 21.5461 24.3343 23.8385 24.3343V36.0912H35.4285Z" fill="white" stroke="#EC008C" stroke-width="1.88" stroke-miterlimit="10" stroke-linecap="round"/>
<path d="M41.3474 15.802V20.992C41.3474 21.3572 41.4903 21.7074 41.7449 21.9657C41.9995 22.224 42.3447 22.369 42.7048 22.369H47.8322" stroke="#B8C0CC" stroke-width="1.88" stroke-miterlimit="10" stroke-linecap="round"/>
<path d="M45.9913 43.5242C45.9689 43.4537 45.9266 43.3915 45.8696 43.3453C45.8127 43.2992 45.7435 43.271 45.6708 43.2643L43.6475 43.078L42.8476 41.1784C42.8189 41.1103 42.7712 41.0523 42.7103 41.0116C42.6494 40.9708 42.578 40.949 42.505 40.949C42.432 40.949 42.3606 40.9708 42.2997 41.0116C42.2388 41.0523 42.1911 41.1103 42.1624 41.1784L41.3621 43.0776L39.3387 43.2639C39.2661 43.2706 39.197 43.2989 39.1401 43.3451C39.0831 43.3913 39.0407 43.4534 39.0182 43.5238C38.9957 43.5941 38.994 43.6697 39.0133 43.741C39.0327 43.8124 39.0722 43.8763 39.127 43.9251L40.6565 45.2855L40.2057 47.3008C40.1891 47.373 40.1939 47.4485 40.2194 47.518C40.2449 47.5874 40.29 47.6477 40.3491 47.6913C40.4082 47.7349 40.4786 47.7598 40.5516 47.763C40.6246 47.7661 40.6969 47.7474 40.7595 47.7092L42.505 46.6508L44.2496 47.7092C44.3122 47.7471 44.3845 47.7655 44.4573 47.7622C44.5302 47.7589 44.6005 47.7339 44.6595 47.6905C44.7185 47.647 44.7636 47.5869 44.7893 47.5176C44.815 47.4483 44.8201 47.3729 44.8039 47.3008L44.353 45.2855L45.882 43.9251C45.937 43.8765 45.9767 43.8126 45.9962 43.7413C46.0156 43.67 46.0138 43.5945 45.9913 43.5242Z" fill="#B8C0CC"/>
<path d="M31 27L43 27" stroke="#B8C0CC" stroke-width="1.88" stroke-linecap="round"/>
<path d="M31 32L43 32" stroke="#B8C0CC" stroke-width="1.88" stroke-linecap="round"/>
</svg>
