<svg width="60" height="61" viewBox="0 0 60 61" fill="none" xmlns="http://www.w3.org/2000/svg">
<g clip-path="url(#clip0)">
<path d="M31.4918 52.2195C45.5621 52.2195 56.9684 40.6054 56.9684 26.2787C56.9684 11.952 45.5621 0.337891 31.4918 0.337891C17.4214 0.337891 6.01517 11.952 6.01517 26.2787C6.01517 40.6054 17.4214 52.2195 31.4918 52.2195Z" fill="#F0F4F7"/>
<path d="M13.3881 21.3488V48.0317H32.3298V18.1848L13.3881 21.3488Z" fill="white" stroke="#B8C0CC" stroke-width="1.88" stroke-miterlimit="10" stroke-linecap="round" stroke-linejoin="round"/>
<path d="M22.8589 19.7667V15.8645" stroke="#B8C0CC" stroke-width="1.88" stroke-miterlimit="10" stroke-linecap="round" stroke-linejoin="round"/>
<path d="M26.462 12.1732C26.462 10.1693 23.3736 5.2124 22.8589 5.2124C22.2412 5.2124 19.2558 10.0638 19.2558 12.1732C19.2558 14.177 20.903 15.8645 22.8589 15.8645C24.8149 15.8645 26.462 14.2825 26.462 12.1732Z" fill="white" stroke="#B8C0CC" stroke-width="1.88" stroke-miterlimit="10" stroke-linecap="round" stroke-linejoin="round"/>
<path d="M17.7117 26.0947V31.7899" stroke="#B8C0CC" stroke-width="1.88" stroke-miterlimit="10" stroke-linecap="round" stroke-linejoin="round"/>
<path d="M48.5272 50.4436V53.8751H45L43.3604 50.4436" fill="white"/>
<path d="M48.5272 50.4436V53.8751H45L43.3604 50.4436" stroke="#B8C0CC" stroke-width="1.88" stroke-miterlimit="10"/>
<path d="M26.3482 50.4436V53.8751H29.8755L31.515 50.4436" fill="white"/>
<path d="M26.3482 50.4436V53.8751H29.8755L31.515 50.4436" stroke="#B8C0CC" stroke-width="1.88" stroke-miterlimit="10"/>
<path d="M50.2747 46.9233H24.3544V50.4434H50.2747V46.9233Z" fill="white" stroke="#B8C0CC" stroke-width="1.88" stroke-miterlimit="10"/>
<path d="M44.7951 46.9232H29.5104C26.6627 46.9232 24.3544 44.5543 24.3544 41.632C24.3544 38.7097 26.6627 36.3408 29.5104 36.3408H44.7951C47.6427 36.3408 49.9511 38.7097 49.9511 41.632C49.9511 44.5543 47.6427 46.9232 44.7951 46.9232Z" fill="white" stroke="#B8C0CC" stroke-width="1.88" stroke-miterlimit="10"/>
<path d="M44.8814 36.3408H32.9837C30.1144 36.3408 27.7845 33.9499 27.7845 31.0054C27.7845 28.0609 30.1144 25.6699 32.9837 25.6699H44.8814C47.7506 25.6699 50.0805 28.0609 50.0805 31.0054C50.0805 33.9499 47.7614 36.3408 44.8814 36.3408Z" fill="white" stroke="#B8C0CC" stroke-width="1.88" stroke-miterlimit="10"/>
<path d="M42.5514 25.6699C44.4607 25.6699 46.014 27.2639 46.014 29.2232C46.014 31.1825 44.4607 32.7765 42.5514 32.7765H34.6232H33.825C32.865 32.7765 32.0884 31.9795 32.0884 30.9943C32.0884 30.0091 32.865 29.2121 33.825 29.2121H38.9379" fill="white"/>
<path d="M42.5514 25.6699C44.4607 25.6699 46.014 27.2639 46.014 29.2232C46.014 31.1825 44.4607 32.7765 42.5514 32.7765H34.6232H33.825C32.865 32.7765 32.0884 31.9795 32.0884 30.9943C32.0884 30.0091 32.865 29.2121 33.825 29.2121H38.9379" stroke="#B8C0CC" stroke-width="1.88" stroke-miterlimit="10"/>
<path d="M40.8148 36.3408C42.724 36.3408 44.2773 37.9348 44.2773 39.8941C44.2773 41.8534 42.724 43.4474 40.8148 43.4474H32.8866H32.0884C31.1284 43.4474 30.3517 42.6504 30.3517 41.6652C30.3517 40.68 31.1284 39.883 32.0884 39.883H37.2013" fill="white"/>
<path d="M40.8148 36.3408C42.724 36.3408 44.2773 37.9348 44.2773 39.8941C44.2773 41.8534 42.724 43.4474 40.8148 43.4474H32.8866H32.0884C31.1284 43.4474 30.3517 42.6504 30.3517 41.6652C30.3517 40.68 31.1284 39.883 32.0884 39.883H37.2013" stroke="#B8C0CC" stroke-width="1.88" stroke-miterlimit="10"/>
</g>
<defs>
<clipPath id="clip0">
<rect width="60" height="60.5355" fill="white"/>
</clipPath>
</defs>
</svg>
