<svg width="54" height="53" viewBox="0 0 54 53" fill="none" xmlns="http://www.w3.org/2000/svg">
<path d="M0 52.1751L2.35403e-06 25.2481C3.82075e-06 8.47074 6.13334 0.0814104 18.4 0.0800781C19.754 0.0800782 21.828 0.169077 24.622 0.347077V10.7711C16.1387 10.7711 11.8997 14.6931 11.905 22.5371L12.044 27.2721H20.835V52.1751H0ZM50.9 27.2751H42.113L41.978 22.5371C41.9773 15.1444 45.8557 11.2231 53.613 10.7731V0.349082C51.1803 0.175749 49.4673 0.0884141 48.474 0.0870807C36.2073 0.0870797 30.074 8.47641 30.074 25.2551V52.1801H50.913V27.2801L50.9 27.2751Z" fill="url(#paint0_linear)"/>
<defs>
<linearGradient id="paint0_linear" x1="0" y1="29.6824" x2="53.613" y2="29.6824" gradientUnits="userSpaceOnUse">
<stop offset="0.0001" stop-color="#EC008C"/>
<stop offset="1" stop-color="#FC6767"/>
</linearGradient>
</defs>
</svg>
