<svg width="360" height="280" viewBox="0 0 360 280" fill="none" xmlns="http://www.w3.org/2000/svg">
<path d="M190 146L248 88M190 146L293 193.5M190 146L197.5 231.5M190 146L114.5 177M190 146L133.5 83.5" stroke="#D7DEE2" stroke-width="2" stroke-linecap="round" stroke-dasharray="6 6"/>
<circle cx="275" cy="69" r="38" fill="#FCFDFF" stroke="#B8C0CC" stroke-width="2"/>
<path d="M267.031 52.3811L272.665 53.9138L276.431 54.8796L292.574 71.0588C293.441 72.3856 293.021 74.981 291.853 76.1433C291.168 76.8241 290.264 77.1577 289.364 77.1442C289.378 78.0387 289.042 78.938 288.357 79.6188C287.694 80.2783 286.805 80.636 285.869 80.6215C285.882 81.516 285.547 82.4144 284.862 83.0951C284.177 83.7759 283.273 84.1095 282.373 84.096C282.388 84.9905 282.051 85.8898 281.367 86.5705C280.696 87.2378 279.814 87.5714 278.931 87.5714C278.067 87.5714 277.203 87.2504 276.537 86.6092L276.316 86.4323C274.98 85.4404 262.103 73.7554 260.344 71.7251L256.018 65.9279L251.196 61.8017C250.797 61.4603 250.743 60.8656 251.073 60.4585L260.274 49.1281C260.586 48.7442 261.137 48.6543 261.555 48.9193L267.031 52.3811Z" fill="#FCFDFF"/>
<path d="M282.373 84.096C282.388 84.9905 282.051 85.8898 281.367 86.5705C280.696 87.2378 279.814 87.5714 278.931 87.5714C278.067 87.5714 277.203 87.2504 276.537 86.6092L276.316 86.4323C274.98 85.4404 262.103 73.7554 260.344 71.7251L256.018 65.9279L251.196 61.8017C250.797 61.4603 250.743 60.8656 251.073 60.4585L260.274 49.1281C260.586 48.7442 261.137 48.6543 261.555 48.9193L267.031 52.3811L272.665 53.9138L276.431 54.8796L292.574 71.0588C293.441 72.3856 293.021 74.981 291.853 76.1433C291.168 76.8241 290.264 77.1577 289.364 77.1442M282.373 84.096C283.273 84.1095 284.177 83.7759 284.862 83.0951C285.547 82.4144 285.882 81.516 285.869 80.6215M282.373 84.096L278.245 80.0043M285.869 80.6215C286.805 80.636 287.694 80.2783 288.357 79.6188C289.042 78.938 289.378 78.0387 289.364 77.1442M285.869 80.6215L279.696 74.5036M289.364 77.1442L281.367 69.2178" stroke="#53A1FF" stroke-width="2" stroke-linecap="round"/>
<path d="M260.638 68.5416L258.832 70.3146C257.947 71.1837 257.947 72.5984 258.832 73.4689C259.717 74.338 261.158 74.338 262.043 73.4689L263.794 71.7496C264.686 70.8732 264.731 69.4542 263.894 68.5866C263.469 68.1455 262.894 67.8974 262.275 67.8887C262.21 67.8872 262.146 67.8901 262.081 67.8959H262.081C262.069 67.8959 262.056 67.8959 262.043 67.8974C261.589 67.938 261.162 68.1063 260.809 68.3892C260.75 68.4371 260.692 68.4879 260.638 68.5416Z" fill="#FCFDFF"/>
<path d="M261.775 76.764C261.775 77.3603 262.012 77.9204 262.44 78.3412C262.869 78.7619 263.439 78.9941 264.045 78.9926C264.653 78.9926 265.223 78.7605 265.651 78.3397L269.097 74.9576C269.465 74.5963 269.705 74.1204 269.774 73.614C269.903 72.6666 269.406 71.7249 268.523 71.3114C267.666 70.911 266.612 71.0909 265.941 71.7496L262.44 75.1868C262.012 75.6091 261.775 76.1677 261.775 76.764Z" fill="#FCFDFF"/>
<path d="M265.941 81.2125C265.941 81.8089 266.178 82.3689 266.606 82.7897C267.036 83.2105 267.606 83.4426 268.214 83.4412C268.821 83.4412 269.391 83.209 269.82 82.7882L273.265 79.4061C273.624 79.0536 273.862 78.5907 273.937 78.0974C274.074 77.2022 273.655 76.3026 272.852 75.8441C271.974 75.3435 270.823 75.4944 270.107 76.1981L266.606 79.6354C266.178 80.0576 265.941 80.6162 265.941 81.2125Z" fill="#FCFDFF"/>
<path d="M271.628 83.2036C270.743 84.0727 270.743 85.4874 271.628 86.3565C272.513 87.2256 273.954 87.227 274.839 86.3579L276.581 84.6473C277.426 83.8174 277.518 82.5188 276.837 81.6453C276.792 81.5858 276.742 81.5292 276.69 81.4756C276.265 81.0345 275.689 80.7864 275.071 80.7777C275.018 80.7777 274.967 80.7804 274.915 80.7832L274.911 80.7835C274.885 80.7849 274.86 80.7849 274.833 80.7878C274.769 80.7936 274.704 80.8023 274.641 80.8139C274.632 80.8139 274.623 80.8154 274.614 80.8168C274.246 80.8865 273.902 81.0432 273.608 81.2768C273.607 81.2768 273.605 81.2782 273.604 81.2797C273.546 81.3261 273.488 81.3769 273.434 81.4306L271.628 83.2036Z" fill="#FCFDFF"/>
<path d="M260.638 68.5416L258.832 70.3146C257.947 71.1837 257.947 72.5984 258.832 73.4689C259.717 74.338 261.158 74.338 262.043 73.4689L263.794 71.7496C264.686 70.8732 264.731 69.4542 263.894 68.5866C263.469 68.1455 262.894 67.8974 262.275 67.8887C262.21 67.8872 262.146 67.8901 262.081 67.8959H262.081C262.069 67.8959 262.056 67.8959 262.043 67.8974C261.589 67.938 261.162 68.1063 260.809 68.3892C260.75 68.4371 260.692 68.4879 260.638 68.5416Z" stroke="#3DE0BF" stroke-width="2"/>
<path d="M261.775 76.764C261.775 77.3603 262.012 77.9204 262.44 78.3412C262.869 78.7619 263.439 78.9941 264.045 78.9926C264.653 78.9926 265.223 78.7605 265.651 78.3397L269.097 74.9576C269.465 74.5963 269.705 74.1204 269.774 73.614C269.903 72.6666 269.406 71.7249 268.523 71.3114C267.666 70.911 266.612 71.0909 265.941 71.7496L262.44 75.1868C262.012 75.6091 261.775 76.1677 261.775 76.764Z" stroke="#3DE0BF" stroke-width="2"/>
<path d="M265.941 81.2125C265.941 81.8089 266.178 82.3689 266.606 82.7897C267.036 83.2105 267.606 83.4426 268.214 83.4412C268.821 83.4412 269.391 83.209 269.82 82.7882L273.265 79.4061C273.624 79.0536 273.862 78.5907 273.937 78.0974C274.074 77.2022 273.655 76.3026 272.852 75.8441C271.974 75.3435 270.823 75.4944 270.107 76.1981L266.606 79.6354C266.178 80.0576 265.941 80.6162 265.941 81.2125Z" stroke="#3DE0BF" stroke-width="2"/>
<path d="M271.628 83.2036C270.743 84.0727 270.743 85.4874 271.628 86.3565C272.513 87.2256 273.954 87.227 274.839 86.3579L276.581 84.6473C277.426 83.8174 277.518 82.5188 276.837 81.6453C276.792 81.5858 276.742 81.5292 276.69 81.4756C276.265 81.0345 275.689 80.7864 275.071 80.7777C275.018 80.7777 274.967 80.7804 274.915 80.7832L274.911 80.7835C274.885 80.7849 274.86 80.7849 274.833 80.7878C274.769 80.7936 274.704 80.8023 274.641 80.8139C274.632 80.8139 274.623 80.8154 274.614 80.8168C274.246 80.8865 273.902 81.0432 273.608 81.2768C273.607 81.2768 273.605 81.2782 273.604 81.2797C273.546 81.3261 273.488 81.3769 273.434 81.4306L271.628 83.2036Z" stroke="#3DE0BF" stroke-width="2"/>
<path d="M293.089 70.8535C292.854 71.5584 291.959 71.7699 291.433 71.2448L279.178 59.0047C279.155 58.9813 279.131 58.9579 279.105 58.9367C278.926 58.7873 278.704 58.697 278.471 58.6803L272.388 58.2466C271.967 58.2176 271.549 58.4417 271.341 58.8107L268.213 64.3553C267.989 64.7534 267.623 65.0399 267.184 65.1625C266.746 65.2852 266.285 65.2272 265.888 65.002C265.491 64.7768 265.206 64.4088 265.084 63.9684C264.962 63.5269 265.019 63.0642 265.244 62.6662L269.219 55.6199C269.348 55.3919 269.561 55.2234 269.812 55.1506L271.112 54.7747C271.123 54.7713 271.134 54.7669 271.145 54.7635L277.324 52.9713C277.414 52.945 277.508 52.9317 277.602 52.9317H284.729C284.963 52.9317 285.189 52.8499 285.369 52.7006L290.696 48.2704C291.115 47.922 291.736 47.9732 292.092 48.3856L301.446 59.2142C301.822 59.649 301.754 60.3102 301.299 60.6605L295.069 65.4525C294.911 65.574 294.793 65.7399 294.73 65.9289L293.089 70.8535Z" fill="#FCFDFF" stroke="#3DE0BF" stroke-width="2"/>
<circle cx="198" cy="243" r="36" fill="#FCFDFF" stroke="#B8C0CC" stroke-width="2"/>
<path d="M187 227.599C189.635 224.199 193.83 222 198.556 222C206.533 222 213 228.268 213 236C213 243.732 206.533 250 198.556 250C193.83 250 189.635 247.801 187 244.401" stroke="#3DE0BF" stroke-width="2" stroke-linecap="round"/>
<path d="M184.76 267.162C183.836 267.162 182.96 267.042 182.132 266.802C181.316 266.55 180.65 266.214 180.134 265.794C179.858 265.59 179.72 265.302 179.72 264.93C179.72 264.678 179.792 264.462 179.936 264.282C180.092 264.09 180.272 263.994 180.476 263.994C180.692 263.994 180.938 264.078 181.214 264.246C181.73 264.618 182.27 264.888 182.834 265.056C183.398 265.224 184.022 265.308 184.706 265.308C185.582 265.308 186.254 265.158 186.722 264.858C187.19 264.546 187.424 264.096 187.424 263.508C187.424 263.052 187.202 262.704 186.758 262.464C186.326 262.212 185.6 261.972 184.58 261.744C183.524 261.516 182.666 261.252 182.006 260.952C181.346 260.652 180.848 260.268 180.512 259.8C180.176 259.332 180.008 258.738 180.008 258.018C180.008 257.274 180.218 256.608 180.638 256.02C181.058 255.432 181.64 254.976 182.384 254.652C183.14 254.316 183.986 254.148 184.922 254.148C186.638 254.148 188.036 254.604 189.116 255.516C189.272 255.648 189.38 255.78 189.44 255.912C189.512 256.032 189.548 256.188 189.548 256.38C189.548 256.632 189.47 256.854 189.314 257.046C189.17 257.226 188.996 257.316 188.792 257.316C188.672 257.316 188.558 257.298 188.45 257.262C188.354 257.226 188.222 257.16 188.054 257.064C187.562 256.704 187.082 256.44 186.614 256.272C186.158 256.092 185.594 256.002 184.922 256.002C184.106 256.002 183.458 256.17 182.978 256.506C182.51 256.83 182.276 257.286 182.276 257.874C182.276 258.366 182.486 258.744 182.906 259.008C183.326 259.272 184.04 259.518 185.048 259.746C186.116 259.986 186.98 260.256 187.64 260.556C188.312 260.844 188.822 261.216 189.17 261.672C189.53 262.128 189.71 262.698 189.71 263.382C189.71 264.126 189.5 264.786 189.08 265.362C188.672 265.926 188.09 266.37 187.334 266.694C186.59 267.006 185.732 267.162 184.76 267.162ZM196.239 267.162C195.315 267.162 194.439 267.042 193.611 266.802C192.795 266.55 192.129 266.214 191.613 265.794C191.337 265.59 191.199 265.302 191.199 264.93C191.199 264.678 191.271 264.462 191.415 264.282C191.571 264.09 191.751 263.994 191.955 263.994C192.171 263.994 192.417 264.078 192.693 264.246C193.209 264.618 193.749 264.888 194.313 265.056C194.877 265.224 195.501 265.308 196.185 265.308C197.061 265.308 197.733 265.158 198.201 264.858C198.669 264.546 198.903 264.096 198.903 263.508C198.903 263.052 198.681 262.704 198.237 262.464C197.805 262.212 197.079 261.972 196.059 261.744C195.003 261.516 194.145 261.252 193.485 260.952C192.825 260.652 192.327 260.268 191.991 259.8C191.655 259.332 191.487 258.738 191.487 258.018C191.487 257.274 191.697 256.608 192.117 256.02C192.537 255.432 193.119 254.976 193.863 254.652C194.619 254.316 195.465 254.148 196.401 254.148C198.117 254.148 199.515 254.604 200.595 255.516C200.751 255.648 200.859 255.78 200.919 255.912C200.991 256.032 201.027 256.188 201.027 256.38C201.027 256.632 200.949 256.854 200.793 257.046C200.649 257.226 200.475 257.316 200.271 257.316C200.151 257.316 200.037 257.298 199.929 257.262C199.833 257.226 199.701 257.16 199.533 257.064C199.041 256.704 198.561 256.44 198.093 256.272C197.637 256.092 197.073 256.002 196.401 256.002C195.585 256.002 194.937 256.17 194.457 256.506C193.989 256.83 193.755 257.286 193.755 257.874C193.755 258.366 193.965 258.744 194.385 259.008C194.805 259.272 195.519 259.518 196.527 259.746C197.595 259.986 198.459 260.256 199.119 260.556C199.791 260.844 200.301 261.216 200.649 261.672C201.009 262.128 201.189 262.698 201.189 263.382C201.189 264.126 200.979 264.786 200.559 265.362C200.151 265.926 199.569 266.37 198.813 266.694C198.069 267.006 197.211 267.162 196.239 267.162ZM208.977 267.162C207.741 267.162 206.667 266.898 205.755 266.37C204.855 265.842 204.159 265.086 203.667 264.102C203.175 263.118 202.929 261.966 202.929 260.646C202.929 259.326 203.169 258.18 203.649 257.208C204.141 256.224 204.843 255.468 205.755 254.94C206.667 254.412 207.741 254.148 208.977 254.148C210.213 254.148 211.281 254.412 212.181 254.94C213.093 255.468 213.789 256.224 214.269 257.208C214.761 258.18 215.007 259.326 215.007 260.646C215.007 261.966 214.761 263.118 214.269 264.102C213.777 265.086 213.075 265.842 212.163 266.37C211.263 266.898 210.201 267.162 208.977 267.162ZM208.977 265.308C210.141 265.308 211.047 264.906 211.695 264.102C212.355 263.298 212.685 262.146 212.685 260.646C212.685 259.146 212.355 258 211.695 257.208C211.047 256.404 210.141 256.002 208.977 256.002C207.801 256.002 206.883 256.404 206.223 257.208C205.575 258 205.251 259.146 205.251 260.646C205.251 262.146 205.575 263.298 206.223 264.102C206.883 264.906 207.801 265.308 208.977 265.308Z" fill="#53A1FF"/>
<path d="M196.499 233.6C196.499 234.152 196.051 234.6 195.499 234.6H184C183.448 234.6 183 235.048 183 235.6V236.4C183 236.952 183.448 237.4 184 237.4H195.499C196.051 237.4 196.499 237.848 196.499 238.4V240.881C196.499 241.726 197.482 242.19 198.134 241.653L204.062 236.772C204.548 236.372 204.548 235.628 204.062 235.228L198.134 230.347C197.482 229.81 196.499 230.274 196.499 231.119V233.6Z" fill="#53A1FF"/>
<circle cx="191" cy="146" r="30" fill="white" stroke="#53A1FF" stroke-width="2"/>
<path d="M191 129.366C181.856 129.366 174.366 136.895 174.366 146.086C174.366 155.179 181.759 162.634 190.83 162.634H205.251C206.564 162.634 207.634 161.559 207.634 160.239V146.061C207.634 136.895 200.144 129.366 191 129.366Z" fill="url(#paint0_linear)"/>
<path d="M194.414 138.439C188.373 138.439 183.439 143.395 183.439 149.463C183.439 155.458 188.325 160.366 194.294 160.366H203.801C204.668 160.366 205.366 159.665 205.366 158.794V149.439C205.366 143.395 200.432 138.439 194.414 138.439ZM194.39 154.926C191.31 154.926 188.83 152.436 188.83 149.39C188.83 146.344 191.31 143.878 194.39 143.878C197.471 143.878 199.95 146.344 199.95 149.39C199.95 152.436 197.447 154.926 194.39 154.926Z" fill="white"/>
<circle cx="310" cy="194" r="49" fill="#FCFDFF" stroke="#B8C0CC" stroke-width="2"/>
<path d="M339.482 182.032C339.482 177.066 335.456 173.04 330.49 173.04H290.452C285.486 173.04 281.459 177.066 281.459 182.032H339.482Z" fill="#EAEFF4"/>
<rect width="12.0047" height="11.9901" rx="2" transform="matrix(-1 0 0 1 332.116 202.954)" fill="#EAEFF4"/>
<rect width="12.0047" height="11.9901" rx="2" transform="matrix(-1 0 0 1 316.531 186.443)" fill="#EAEFF4"/>
<rect width="12.0047" height="11.9901" rx="2" transform="matrix(-1 0 0 1 301.025 186.468)" fill="#EAEFF4"/>
<rect width="12.0044" height="11.9904" rx="2" transform="matrix(1 0 -0.000342896 -1 320.095 198.463)" fill="#3DE0BF"/>
<rect width="12.0047" height="11.9901" rx="2" transform="matrix(-1 0 0 1 316.531 202.954)" fill="#EAEFF4"/>
<rect width="12.0047" height="11.9901" rx="2" transform="matrix(-1 0 0 1 301.025 202.954)" fill="#EAEFF4"/>
<path d="M322.905 192.953L324.335 194.452L328.656 190.206" stroke="#FCFDFF" stroke-width="2" stroke-linecap="round" stroke-linejoin="round"/>
<path d="M297.524 172.979C297.524 170.22 296.068 167.983 294.273 167.983C292.477 167.983 291.021 170.22 291.021 172.979C291.021 175.738 292.477 177.975 294.273 177.975" stroke="#B8C0CC" stroke-width="2"/>
<path d="M313.53 172.979C313.53 170.22 312.075 167.983 310.279 167.983C308.483 167.983 307.028 170.22 307.028 172.979C307.028 175.738 308.483 177.975 310.279 177.975" stroke="#B8C0CC" stroke-width="2"/>
<path d="M330.037 172.979C330.037 170.22 328.581 167.983 326.785 167.983C324.99 167.983 323.534 170.22 323.534 172.979C323.534 175.738 324.99 177.975 326.785 177.975" stroke="#B8C0CC" stroke-width="2"/>
<ellipse cx="310.646" cy="177.993" rx="1.23953" ry="1.23802" fill="#B8C0CC"/>
<ellipse cx="327.143" cy="177.993" rx="1.23953" ry="1.23802" fill="#B8C0CC"/>
<ellipse cx="294.64" cy="177.993" rx="1.23953" ry="1.23802" fill="#B8C0CC"/>
<rect x="-1" y="1" width="56.0227" height="45.9604" rx="3" transform="matrix(-1 0 0 1 337.54 173.04)" stroke="#B8C0CC" stroke-width="2"/>
<circle cx="116" cy="58" r="57" fill="#FCFDFF" stroke="#B8C0CC" stroke-width="2"/>
<path d="M116.306 62.2451H103.571V80.7617H116.306V62.2451Z" fill="#EAEFF4"/>
<path d="M131.565 54.1906H118.83V80.7617H131.565V54.1906Z" fill="#EAEFF4"/>
<path d="M146.811 45.3931H134.076V80.7615H146.811V45.3931Z" fill="#EAEFF4"/>
<path d="M151.936 84.6801H98.1077C97.4573 84.6801 96.924 84.155 96.924 83.5148V34.3037C96.924 33.6634 97.4573 33.1384 98.1077 33.1384C98.7582 33.1384 99.2915 33.6634 99.2915 34.3037V82.3495H151.936C152.587 82.3495 153.12 82.8745 153.12 83.5148C153.12 84.155 152.587 84.6801 151.936 84.6801Z" fill="#B8C0CC"/>
<path d="M104.105 54.5362L103.051 53.4349L117.022 40.6167L125.815 47.4932L140.931 33.7274L141.972 34.8415L125.881 49.4908L117.1 42.6143L104.105 54.5362Z" fill="#53A1FF"/>
<path d="M142.882 37.108L144.704 31.3199L138.707 32.6645L142.882 37.108Z" fill="#53A1FF"/>
<path d="M90.706 69.5825L90.9922 69.8514L92.176 70.9655L92.6183 71.3881C92.7093 71.4649 92.8784 71.4265 93.0085 71.2856L93.1386 71.132L93.4248 70.8118L94.0101 70.1716L94.1662 70.0051L94.2313 69.9411L95.8964 68.0971L96.0394 67.9434L97.3403 66.5092L97.5484 66.2787C97.6395 66.1763 97.6525 66.0354 97.5874 65.9586L97.2622 65.6513L96.0785 64.5372L95.9484 64.4091C95.8703 64.3451 95.7272 64.3579 95.6232 64.4604L95.285 64.7933L94.6736 65.3823L93.854 66.1891L92.5922 67.4312L92.0849 67.9306L91.8508 68.1611L91.2394 68.7502L90.9272 69.0575L90.7841 69.1983C90.654 69.3264 90.615 69.5057 90.706 69.5825Z" fill="#8692A5"/>
<path d="M78.9335 80.6207L79.766 81.389L80.9498 82.503L81.9644 83.4507C82.0945 83.5787 82.4587 83.4122 82.7579 83.0921L92.3971 72.7838L93.1516 71.9514C93.3727 71.7081 93.4638 71.4136 93.3467 71.3112V71.2983L93.1646 71.1191L92.5662 70.5684L92.5402 70.5428L91.3694 69.4544L91.3434 69.4288L90.9402 69.0574L90.7581 68.8781L90.745 68.8653C90.628 68.7501 90.3418 68.8525 90.1076 69.083C90.1076 69.083 90.1076 69.083 90.1076 69.0958L79.2587 79.8139C78.9465 80.1341 78.7904 80.4926 78.9335 80.6207Z" fill="#3DE0BF"/>
<path d="M91.8117 67.6489L92.0979 67.9178L92.4882 68.2763L93.6849 69.3904L93.8931 69.5825L94.2573 69.9154L94.5435 70.1843C94.6345 70.274 94.8166 70.2355 94.9337 70.1075L96.1955 68.7885C96.3256 68.6605 96.3516 68.4812 96.2476 68.3916L95.9093 68.0714L95.402 67.5976L94.2183 66.4836L93.8931 66.1762L93.5548 65.8561C93.4638 65.7665 93.2817 65.8049 93.1646 65.9329L92.3451 66.7909L91.8898 67.2647C91.7467 67.3799 91.7207 67.5592 91.8117 67.6489Z" fill="#3DE0BF"/>
<g style="mix-blend-mode:screen">
<path d="M79.753 81.3891L80.9498 82.5031L92.5272 70.5429L91.3695 69.4544L91.3434 69.4288L79.753 81.3891Z" fill="#3DE0BF"/>
</g>
<path d="M93.8801 58.6722C93.841 58.5569 93.815 58.4289 93.776 58.3008C93.724 58.1087 93.6849 57.9167 93.6459 57.7118C93.6199 57.5837 93.5939 57.4429 93.5679 57.302C93.5679 57.2764 93.5549 57.238 93.5549 57.2124C93.5549 57.1996 93.5549 57.1868 93.5549 57.174C93.4378 56.4312 93.3988 55.6757 93.4508 54.9074C93.4508 54.7794 93.4638 54.6513 93.4768 54.5232C93.4898 54.3952 93.5028 54.2671 93.5158 54.1519C93.5809 53.6269 93.6719 53.1275 93.815 52.628C93.8671 52.4616 93.9061 52.2951 93.9581 52.1158C94.0232 51.9366 94.0752 51.7573 94.1402 51.578C94.2443 51.2835 94.3614 51.0018 94.5045 50.7329C94.5305 50.6816 94.5435 50.6432 94.5695 50.6048C94.6085 50.5152 94.6606 50.4255 94.6996 50.3487C94.7256 50.3103 94.7516 50.2591 94.7646 50.2206C94.9468 49.8621 95.1549 49.5291 95.389 49.1962C95.4151 49.1578 95.4411 49.1322 95.4541 49.0938C95.4931 49.0425 95.5321 48.9913 95.5581 48.9401C95.5972 48.9017 95.6232 48.8505 95.6492 48.812C95.6752 48.7736 95.7142 48.7224 95.7533 48.684C96.1956 48.0949 96.7029 47.5571 97.2492 47.0705C98.0557 46.3534 98.9663 45.7516 99.942 45.2778C101.763 44.407 103.831 43.9972 105.991 44.1765C106.589 44.2277 107.188 44.3174 107.76 44.4582C110.648 45.1497 113.067 46.904 114.641 49.2218C114.654 49.2474 114.68 49.273 114.693 49.2987C114.745 49.3883 114.797 49.4651 114.863 49.5548C114.954 49.6956 115.032 49.8365 115.123 49.9901C115.149 50.0286 115.162 50.067 115.188 50.1054C115.266 50.2462 115.344 50.3871 115.409 50.528C115.435 50.5664 115.448 50.6048 115.461 50.6432C115.552 50.8353 115.643 51.0274 115.721 51.2195C115.786 51.3859 115.851 51.5524 115.916 51.7189C116.007 51.9494 116.072 52.1927 116.15 52.436C116.424 53.3964 116.58 54.3952 116.593 55.4324C116.593 55.4452 116.593 55.458 116.593 55.4708C116.593 55.4836 116.593 55.4965 116.593 55.4965C116.593 55.5989 116.593 55.7141 116.593 55.8166C116.593 55.919 116.593 56.0343 116.58 56.1367C116.58 56.1751 116.58 56.2136 116.567 56.252C116.567 56.2904 116.567 56.3288 116.567 56.3544C116.567 56.4056 116.554 56.4569 116.554 56.5209C116.554 56.5593 116.541 56.5977 116.541 56.6361C116.502 56.9947 116.463 57.3532 116.384 57.699C116.345 57.9167 116.293 58.1472 116.228 58.3649C116.228 58.3777 116.215 58.4033 116.215 58.4161C116.085 58.9155 115.916 59.4149 115.721 59.8759C115.708 59.9143 115.682 59.9527 115.669 59.9911C115.669 59.9911 115.669 59.9911 115.669 60.0039C115.669 60.0168 115.669 60.0168 115.669 60.0168C115.63 60.1064 115.591 60.196 115.552 60.2857C115.526 60.3369 115.513 60.3881 115.487 60.4265C115.474 60.4521 115.461 60.4649 115.448 60.4905C115.357 60.6826 115.253 60.8747 115.149 61.0668C115.032 61.2845 114.902 61.4894 114.758 61.6943C114.654 61.8479 114.55 62.0016 114.433 62.1552C114.342 62.2705 114.264 62.3857 114.173 62.501C114.147 62.5266 114.134 62.5522 114.108 62.5778C114.108 62.5778 114.108 62.5906 114.095 62.5906C113.913 62.8083 113.731 63.026 113.549 63.2309C113.51 63.2693 113.471 63.3077 113.432 63.3461C113.406 63.3718 113.393 63.3974 113.367 63.4102C113.302 63.4742 113.223 63.551 113.158 63.6151C112.833 63.9352 112.482 64.2297 112.118 64.5114C111.975 64.6267 111.832 64.7291 111.675 64.8316C111.662 64.8444 111.649 64.8572 111.623 64.87C111.597 64.8956 111.558 64.9084 111.532 64.934C111.506 64.9468 111.467 64.9724 111.441 64.9852C111.181 65.1517 110.921 65.3054 110.661 65.459C110.648 65.459 110.648 65.4718 110.635 65.4718C110.583 65.4974 110.544 65.5231 110.492 65.5487C110.336 65.6383 110.167 65.7151 109.997 65.8048C109.945 65.8304 109.906 65.8432 109.854 65.8688C109.802 65.8944 109.763 65.9072 109.711 65.9328C109.451 66.0481 109.178 66.1505 108.905 66.253C108.827 66.2914 108.749 66.317 108.658 66.3426H108.645C108.566 66.3682 108.501 66.3938 108.423 66.4194C108.332 66.445 108.254 66.4707 108.163 66.4835C108.137 66.4963 108.098 66.4963 108.072 66.5091C108.033 66.5219 107.981 66.5347 107.929 66.5475C107.864 66.5603 107.812 66.5731 107.747 66.5987C107.695 66.6115 107.643 66.6243 107.604 66.6243C107.266 66.7012 106.927 66.7652 106.576 66.8036C106.563 66.8036 106.55 66.8036 106.537 66.8036H106.524C106.42 66.8164 106.316 66.8292 106.212 66.842C106.147 66.842 106.095 66.8548 106.03 66.8548C105.978 66.8548 105.939 66.8676 105.887 66.8676C105.757 66.8804 105.614 66.8804 105.47 66.8932C105.314 66.8932 105.171 66.906 105.015 66.906C104.963 66.906 104.924 66.906 104.872 66.906C104.755 66.906 104.625 66.906 104.508 66.8932C104.365 66.8932 104.235 66.8804 104.105 66.8676C104.066 66.8676 104.04 66.8676 104.001 66.8676H103.988C103.766 66.842 103.545 66.8164 103.337 66.7908C103.012 66.7396 102.7 66.6883 102.401 66.6243C102.244 66.5859 102.088 66.5475 101.932 66.5091C101.919 66.5091 101.906 66.4963 101.893 66.4963C101.659 66.4322 101.425 66.3682 101.204 66.2914C101.178 66.2786 101.139 66.2658 101.113 66.253C101.1 66.253 101.1 66.253 101.087 66.253C101.048 66.2402 100.996 66.2146 100.957 66.2017C100.918 66.1889 100.879 66.1761 100.827 66.1505C100.592 66.0609 100.358 65.9584 100.124 65.856C100.098 65.8432 100.072 65.8304 100.046 65.8176C99.994 65.792 99.942 65.7664 99.8899 65.7536C99.8509 65.7279 99.8119 65.7151 99.7728 65.7023C99.5517 65.5871 99.3436 65.4846 99.1354 65.3566C99.0574 65.3182 98.9923 65.267 98.9273 65.2285C98.8883 65.2029 98.8623 65.1901 98.8232 65.1645C98.6281 65.0365 98.433 64.9084 98.2379 64.7675C98.1988 64.7419 98.1468 64.7035 98.1078 64.6779C98.0818 64.6651 98.0557 64.6395 98.0427 64.6267C98.0167 64.6011 97.9777 64.5755 97.9517 64.5499C97.8216 64.4474 97.6915 64.345 97.5614 64.2425C97.5224 64.2041 97.4704 64.1657 97.4313 64.1273C97.4053 64.1145 97.3923 64.0889 97.3663 64.0761C97.3273 64.0376 97.2883 63.9992 97.2492 63.9736C97.2362 63.9608 97.2102 63.9352 97.1972 63.9224C97.1842 63.9096 97.1712 63.9096 97.1712 63.8968C97.0021 63.7431 96.846 63.5894 96.6899 63.423C96.6378 63.3718 96.5858 63.3077 96.5338 63.2565C96.5078 63.2309 96.4817 63.2053 96.4557 63.1669C96.2996 63.0004 96.1565 62.8339 96.0134 62.6547C95.9614 62.5906 95.9224 62.5394 95.8703 62.4754C95.8443 62.4498 95.8183 62.4114 95.8053 62.3857C95.6622 62.2065 95.5321 62.0272 95.4151 61.8351C95.389 61.7967 95.363 61.7455 95.337 61.7071C95.324 61.6814 95.311 61.6558 95.298 61.643V61.6302C95.285 61.6046 95.259 61.5662 95.2459 61.5406C95.2069 61.4894 95.1809 61.4381 95.1419 61.3869C95.0898 61.3101 95.0508 61.2333 95.0118 61.1692C94.9468 61.0668 94.8947 60.9643 94.8297 60.8619C94.7776 60.7851 94.7386 60.6954 94.6996 60.6186C94.6606 60.5546 94.6346 60.4777 94.5955 60.4009C94.4915 60.1832 94.4004 59.9783 94.3093 59.7478C94.1012 59.3765 93.9841 59.0307 93.8801 58.6722ZM94.0622 63.3461C94.4394 63.8456 94.8557 64.3322 95.298 64.7803C95.389 64.87 95.4801 64.9724 95.5712 65.0621C95.9614 65.4334 96.3777 65.792 96.82 66.1121C96.9891 66.2402 97.1712 66.3682 97.3533 66.4963C97.4574 66.5603 97.5614 66.6371 97.6785 66.7012C98.0557 66.9445 98.446 67.1621 98.8493 67.367C99.2135 67.5463 99.5907 67.7256 99.981 67.8793C100.566 68.1097 101.178 68.3018 101.815 68.4555C101.88 68.4683 101.958 68.4939 102.023 68.5067C102.127 68.5323 102.231 68.5579 102.335 68.5707C102.596 68.622 102.869 68.6604 103.129 68.6988C103.129 68.6988 103.142 68.6988 103.155 68.6988C103.311 68.7244 103.467 68.7372 103.636 68.75C103.701 68.75 103.779 68.7628 103.844 68.7628C103.883 68.7628 103.923 68.7628 103.962 68.7756C104.183 68.7884 104.391 68.8012 104.612 68.814C104.677 68.814 104.742 68.814 104.807 68.814C104.859 68.814 104.924 68.814 104.976 68.814C105.002 68.814 105.028 68.814 105.054 68.814C105.288 68.814 105.51 68.814 105.744 68.8012C105.757 68.8012 105.783 68.8012 105.796 68.8012C105.9 68.8012 105.991 68.7884 106.095 68.7756C106.121 68.7756 106.147 68.7756 106.173 68.7756C106.225 68.7756 106.277 68.7628 106.329 68.7628C106.667 68.7372 107.005 68.686 107.331 68.6348C107.344 68.6348 107.37 68.622 107.383 68.622C107.487 68.6092 107.591 68.5835 107.682 68.5707C107.734 68.5579 107.786 68.5451 107.825 68.5323C107.877 68.5195 107.916 68.5195 107.968 68.5067C107.968 68.5067 107.968 68.5067 107.981 68.5067C108.319 68.4299 108.645 68.3402 108.983 68.2506C109.035 68.2378 109.074 68.225 109.126 68.2122C109.23 68.1866 109.334 68.1482 109.438 68.1097C109.49 68.0841 109.542 68.0713 109.581 68.0585C109.711 68.0073 109.854 67.9689 109.984 67.9049C110.049 67.8792 110.101 67.8536 110.167 67.8408C110.284 67.7896 110.401 67.7384 110.505 67.7C110.765 67.5847 111.025 67.4695 111.272 67.3286C111.441 67.239 111.597 67.1621 111.754 67.0597C112.157 66.8292 112.547 66.5859 112.924 66.317C112.95 66.2914 112.976 66.2786 113.015 66.253C113.132 66.1633 113.249 66.0865 113.367 65.9969C113.731 65.7151 114.082 65.4206 114.407 65.1133C114.511 65.0236 114.602 64.9212 114.693 64.8316C114.732 64.7932 114.758 64.7675 114.797 64.7291C115.123 64.3962 115.422 64.0504 115.708 63.6919C115.825 63.5382 115.929 63.3974 116.046 63.2437C116.319 62.8595 116.58 62.4498 116.827 62.04C116.918 61.8735 117.022 61.6943 117.1 61.5278C117.334 61.0796 117.542 60.6186 117.711 60.132C117.789 59.9399 117.854 59.735 117.919 59.5301C117.972 59.3381 118.037 59.146 118.089 58.9539C118.141 58.7746 118.18 58.6082 118.219 58.4289C118.349 57.8526 118.44 57.2636 118.492 56.6617C118.57 55.7782 118.557 54.9074 118.466 54.0623C118.44 53.8318 118.414 53.6141 118.375 53.3964C118.323 53.1018 118.271 52.7945 118.193 52.5128C118.193 52.4872 118.18 52.4744 118.18 52.4616C117.972 51.578 117.659 50.7072 117.282 49.9005C116.619 48.5047 115.708 47.237 114.615 46.1485C113.783 45.329 112.846 44.6119 111.832 44.0228C110.167 43.0624 108.254 42.4478 106.199 42.2813C104.664 42.1533 103.168 42.2813 101.75 42.627C100.735 42.8704 99.7598 43.2417 98.8493 43.7027C97.0281 44.6247 95.4411 45.9436 94.2053 47.5571C93.776 48.1206 93.3988 48.7224 93.0475 49.3499C92.9044 49.606 92.7744 49.8749 92.6573 50.1438C92.6183 50.2334 92.5792 50.3359 92.5402 50.4255C92.1239 51.4115 91.8248 52.4616 91.6556 53.5628C91.6166 53.8318 91.5776 54.1135 91.5516 54.3952C91.5386 54.5232 91.5256 54.6513 91.5256 54.7794C91.5126 54.8946 91.5126 55.0098 91.5126 55.1251C91.5126 55.2788 91.4995 55.4196 91.4995 55.5733C91.4995 55.8934 91.5126 56.2264 91.5386 56.5465C91.5776 57.0331 91.6426 57.5069 91.7337 57.9807C91.8117 58.3777 91.9028 58.7746 92.0199 59.1716C92.4231 60.6698 93.1386 62.0912 94.0622 63.3461Z" fill="#8692A5"/>
<circle cx="65" cy="194" r="64" fill="#FCFDFF" stroke="#B8C0CC" stroke-width="2"/>
<rect x="21" y="163" width="88" height="62" rx="7" fill="#FCFDFF" stroke="#B8C0CC" stroke-width="2"/>
<path opacity="0.3" d="M22 170C22 166.686 24.6863 164 28 164H102C105.314 164 108 166.686 108 170V208H22V170Z" fill="#3DE0BF"/>
<path d="M59 179.737C59 178.938 59.8901 178.462 60.5547 178.905L69.9491 185.168C70.5429 185.564 70.5429 186.436 69.9492 186.832L60.5547 193.095C59.8901 193.538 59 193.062 59 192.263V179.737Z" stroke="white" stroke-width="2"/>
<mask id="path-46-inside-1" fill="white">
<path d="M76 214.798L79 213.084C79.375 212.87 80 213.084 80 213.513V218.441C80 218.869 79.375 219.191 79 218.869L76 217.155"/>
</mask>
<path d="M76 214.798L79 213.084C79.375 212.87 80 213.084 80 213.513V218.441C80 218.869 79.375 219.191 79 218.869L76 217.155" fill="#FCFDFF"/>
<path d="M76.5 217.155V214.798H75.5V217.155H76.5ZM79 213.084L78.5039 212.216V212.216L79 213.084ZM79 218.869L79.6508 218.11C79.6028 218.069 79.551 218.033 79.4961 218.001L79 218.869ZM76.4961 215.667L79.4961 213.952L78.5039 212.216L75.5039 213.93L76.4961 215.667ZM79.4961 213.952C79.4252 213.993 79.369 213.999 79.3445 214C79.3196 214.001 79.2975 213.997 79.2728 213.987C79.2501 213.978 79.1915 213.95 79.1297 213.877C79.0602 213.794 79 213.665 79 213.513H81C81 212.739 80.4327 212.295 80.0085 212.127C79.582 211.959 79.0056 211.929 78.5039 212.216L79.4961 213.952ZM79 213.513V218.441H81V213.513H79ZM79 218.441C79 218.298 79.0532 218.191 79.0984 218.131C79.1414 218.074 79.1864 218.045 79.2216 218.028C79.2784 218.002 79.4693 217.955 79.6508 218.11L78.3492 219.629C78.9057 220.106 79.5966 220.058 80.0597 219.844C80.499 219.642 81 219.16 81 218.441H79ZM79.4961 218.001L76.4961 216.287L75.5039 218.024L78.5039 219.738L79.4961 218.001Z" fill="#53A1FF" mask="url(#path-46-inside-1)"/>
<path d="M75.716 218.5H70.1852C69.7301 218.5 69.5 218.231 69.5 217.909V214.091C69.5 213.769 69.7301 213.5 70.1852 213.5H75.8148C76.2699 213.5 76.5 213.769 76.5 214.091V217.858C76.4211 218.194 76.11 218.5 75.716 218.5Z" fill="#FCFDFF" stroke="#53A1FF" stroke-miterlimit="10"/>
<path d="M53.1667 217.053C53.9176 217.053 54.5193 216.488 54.5193 215.789L54.5238 213.263C54.5238 212.564 53.9176 212 53.1667 212C52.4157 212 51.8095 212.564 51.8095 213.263V215.789C51.8095 216.488 52.4157 217.053 53.1667 217.053ZM52.6238 213.221C52.6238 212.943 52.8681 212.716 53.1667 212.716C53.4652 212.716 53.7095 212.943 53.7095 213.221L53.705 215.832C53.705 216.109 53.4652 216.337 53.1667 216.337C52.8681 216.337 52.6238 216.109 52.6238 215.832V213.221ZM55.9488 215.789C55.7364 215.789 55.5683 215.963 55.528 216.172C55.3234 217.228 54.285 217.937 53.1667 217.937C52.0484 217.937 51.0099 217.228 50.8054 216.172C50.765 215.963 50.5969 215.789 50.3845 215.789C50.1722 215.789 49.997 215.963 50.0295 216.173C50.2247 217.432 51.3647 218.431 52.7143 218.619V219.548C52.7143 219.797 52.9168 220 53.1667 220C53.4165 220 53.619 219.797 53.619 219.548V218.619C54.969 218.435 56.1092 217.436 56.304 216.173C56.3364 215.963 56.1612 215.789 55.9488 215.789Z" fill="#53A1FF"/>
<defs>
<linearGradient id="paint0_linear" x1="176.928" y1="137.199" x2="209.699" y2="157.572" gradientUnits="userSpaceOnUse">
<stop stop-color="#53A1FF"/>
<stop offset="1" stop-color="#3DE0BF"/>
</linearGradient>
</defs>
</svg>
