<svg width="360" height="260" viewBox="0 0 360 260" fill="none" xmlns="http://www.w3.org/2000/svg">
<path d="M18.0326 151.848C18.5925 151.304 19.3423 151 20.1228 151H68C70.7614 151 73 153.239 73 156V254C73 256.761 70.7614 259 68 259H6C3.23858 259 1 256.761 1 254V169.66C1 168.849 1.32819 168.073 1.9098 167.508L18.0326 151.848L17.3359 151.131L18.0326 151.848Z" fill="white" stroke="#B8C0CC" stroke-width="2"/>
<path d="M19.6144 150.891V166.721C19.6144 167.825 18.7189 168.721 17.6144 168.721H0.891479" stroke="#B8C0CC" stroke-width="2"/>
<path d="M9 194L65 194" stroke="#B8C0CC" stroke-width="2" stroke-linecap="round"/>
<path d="M9 202L65 202" stroke="#B8C0CC" stroke-width="2" stroke-linecap="round"/>
<path d="M30 226H65" stroke="#B8C0CC" stroke-width="2" stroke-linecap="round"/>
<path d="M30 248H65" stroke="#B8C0CC" stroke-width="2" stroke-linecap="round"/>
<path d="M30 220H53" stroke="#B8C0CC" stroke-width="2" stroke-linecap="round"/>
<path d="M30 242H53" stroke="#B8C0CC" stroke-width="2" stroke-linecap="round"/>
<rect x="9" y="215.831" width="13.4738" height="13.518" rx="3" stroke="#53A1FF" stroke-width="2"/>
<path d="M13.1549 223.503L14.472 224.905L18.4539 220.932" stroke="#53A1FF" stroke-width="2" stroke-linecap="round" stroke-linejoin="round"/>
<rect x="8.85529" y="238.707" width="13.4738" height="13.518" rx="3" stroke="#53A1FF" stroke-width="2"/>
<path d="M13.1549 246.458L14.472 247.861L18.4539 243.887" stroke="#53A1FF" stroke-width="2" stroke-linecap="round" stroke-linejoin="round"/>
<path d="M14.3042 185.081C13.4342 185.081 12.7742 184.856 12.3242 184.406C11.8742 183.956 11.6492 183.299 11.6492 182.435V179.186C11.6492 179.012 11.7002 178.874 11.8022 178.772C11.9042 178.664 12.0422 178.61 12.2162 178.61C12.3902 178.61 12.5282 178.664 12.6302 178.772C12.7322 178.874 12.7832 179.012 12.7832 179.186V182.498C12.7832 183.044 12.9122 183.458 13.1702 183.74C13.4282 184.016 13.8062 184.154 14.3042 184.154C14.7962 184.154 15.1712 184.013 15.4292 183.731C15.6872 183.449 15.8162 183.038 15.8162 182.498V179.186C15.8162 179.012 15.8672 178.874 15.9692 178.772C16.0712 178.664 16.2092 178.61 16.3832 178.61C16.5572 178.61 16.6952 178.664 16.7972 178.772C16.8992 178.874 16.9502 179.012 16.9502 179.186V182.435C16.9502 183.293 16.7252 183.95 16.2752 184.406C15.8252 184.856 15.1682 185.081 14.3042 185.081ZM19.7797 185.072C19.1257 185.072 18.5977 184.943 18.1957 184.685C18.0037 184.571 17.9077 184.409 17.9077 184.199C17.9077 184.079 17.9407 183.983 18.0067 183.911C18.0727 183.833 18.1537 183.794 18.2497 183.794C18.3517 183.794 18.4927 183.842 18.6727 183.938C18.8647 184.028 19.0387 184.097 19.1947 184.145C19.3567 184.193 19.5607 184.217 19.8067 184.217C20.0587 184.217 20.2537 184.175 20.3917 184.091C20.5357 184.007 20.6077 183.89 20.6077 183.74C20.6077 183.638 20.5777 183.557 20.5177 183.497C20.4637 183.437 20.3617 183.383 20.2117 183.335C20.0677 183.281 19.8457 183.221 19.5457 183.155C19.0117 183.047 18.6277 182.894 18.3937 182.696C18.1657 182.498 18.0517 182.225 18.0517 181.877C18.0517 181.613 18.1297 181.376 18.2857 181.166C18.4417 180.95 18.6547 180.785 18.9247 180.671C19.2007 180.551 19.5127 180.491 19.8607 180.491C20.1127 180.491 20.3557 180.524 20.5897 180.59C20.8237 180.65 21.0337 180.74 21.2197 180.86C21.4117 180.98 21.5077 181.139 21.5077 181.337C21.5077 181.457 21.4747 181.559 21.4087 181.643C21.3427 181.721 21.2617 181.76 21.1657 181.76C21.0997 181.76 21.0337 181.748 20.9677 181.724C20.9077 181.694 20.8297 181.652 20.7337 181.598C20.5597 181.508 20.4097 181.442 20.2837 181.4C20.1577 181.352 20.0017 181.328 19.8157 181.328C19.5937 181.328 19.4167 181.373 19.2847 181.463C19.1587 181.553 19.0957 181.676 19.0957 181.832C19.0957 181.982 19.1617 182.096 19.2937 182.174C19.4257 182.252 19.6807 182.33 20.0587 182.408C20.4607 182.492 20.7757 182.588 21.0037 182.696C21.2317 182.804 21.3937 182.939 21.4897 183.101C21.5917 183.263 21.6427 183.47 21.6427 183.722C21.6427 184.13 21.4717 184.457 21.1297 184.703C20.7937 184.949 20.3437 185.072 19.7797 185.072ZM26.0379 183.794C26.1399 183.794 26.2209 183.833 26.2809 183.911C26.3469 183.989 26.3799 184.094 26.3799 184.226C26.3799 184.412 26.2689 184.568 26.0469 184.694C25.8429 184.808 25.6119 184.901 25.3539 184.973C25.0959 185.039 24.8499 185.072 24.6159 185.072C23.9079 185.072 23.3469 184.868 22.9329 184.46C22.5189 184.052 22.3119 183.494 22.3119 182.786C22.3119 182.336 22.4019 181.937 22.5819 181.589C22.7619 181.241 23.0139 180.971 23.3379 180.779C23.6679 180.587 24.0399 180.491 24.4539 180.491C24.8499 180.491 25.1949 180.578 25.4889 180.752C25.7829 180.926 26.0109 181.172 26.1729 181.49C26.3349 181.808 26.4159 182.183 26.4159 182.615C26.4159 182.873 26.3019 183.002 26.0739 183.002H23.4189C23.4549 183.416 23.5719 183.722 23.7699 183.92C23.9679 184.112 24.2559 184.208 24.6339 184.208C24.8259 184.208 24.9939 184.184 25.1379 184.136C25.2879 184.088 25.4559 184.022 25.6419 183.938C25.8219 183.842 25.9539 183.794 26.0379 183.794ZM24.4809 181.283C24.1749 181.283 23.9289 181.379 23.7429 181.571C23.5629 181.763 23.4549 182.039 23.4189 182.399H25.4529C25.4409 182.033 25.3509 181.757 25.1829 181.571C25.0149 181.379 24.7809 181.283 24.4809 181.283ZM29.7932 180.509C29.9492 180.497 30.0722 180.53 30.1622 180.608C30.2522 180.686 30.2972 180.803 30.2972 180.959C30.2972 181.121 30.2582 181.241 30.1802 181.319C30.1022 181.397 29.9612 181.448 29.7572 181.472L29.4872 181.499C29.1332 181.535 28.8722 181.655 28.7042 181.859C28.5422 182.063 28.4612 182.318 28.4612 182.624V184.514C28.4612 184.688 28.4072 184.823 28.2992 184.919C28.1912 185.009 28.0562 185.054 27.8942 185.054C27.7322 185.054 27.5972 185.009 27.4892 184.919C27.3872 184.823 27.3362 184.688 27.3362 184.514V181.031C27.3362 180.863 27.3872 180.734 27.4892 180.644C27.5972 180.554 27.7292 180.509 27.8852 180.509C28.0412 180.509 28.1672 180.554 28.2632 180.644C28.3592 180.728 28.4072 180.851 28.4072 181.013V181.373C28.5212 181.109 28.6892 180.905 28.9112 180.761C29.1392 180.617 29.3912 180.536 29.6672 180.518L29.7932 180.509ZM38.9578 178.61C39.1258 178.61 39.2608 178.664 39.3628 178.772C39.4648 178.874 39.5158 179.012 39.5158 179.186V184.514C39.5158 184.682 39.4678 184.814 39.3718 184.91C39.2758 185.006 39.1498 185.054 38.9938 185.054C38.8378 185.054 38.7148 185.006 38.6248 184.91C38.5348 184.814 38.4898 184.682 38.4898 184.514V180.806L36.9598 183.704C36.8878 183.836 36.8098 183.935 36.7258 184.001C36.6418 184.061 36.5428 184.091 36.4288 184.091C36.3148 184.091 36.2158 184.061 36.1318 184.001C36.0478 183.941 35.9698 183.842 35.8978 183.704L34.3588 180.851V184.514C34.3588 184.676 34.3108 184.808 34.2148 184.91C34.1248 185.006 34.0018 185.054 33.8458 185.054C33.6898 185.054 33.5668 185.006 33.4768 184.91C33.3868 184.814 33.3418 184.682 33.3418 184.514V179.186C33.3418 179.012 33.3898 178.874 33.4858 178.772C33.5878 178.664 33.7228 178.61 33.8908 178.61C34.1248 178.61 34.3078 178.739 34.4398 178.997L36.4378 182.804L38.4268 178.997C38.5588 178.739 38.7358 178.61 38.9578 178.61ZM42.7002 180.491C43.3122 180.491 43.7652 180.644 44.0592 180.95C44.3592 181.25 44.5092 181.709 44.5092 182.327V184.523C44.5092 184.685 44.4612 184.814 44.3652 184.91C44.2692 185 44.1372 185.045 43.9692 185.045C43.8132 185.045 43.6842 184.997 43.5822 184.901C43.4862 184.805 43.4382 184.679 43.4382 184.523V184.325C43.3362 184.559 43.1742 184.742 42.9522 184.874C42.7362 185.006 42.4842 185.072 42.1962 185.072C41.9022 185.072 41.6352 185.012 41.3952 184.892C41.1552 184.772 40.9662 184.607 40.8282 184.397C40.6902 184.187 40.6212 183.953 40.6212 183.695C40.6212 183.371 40.7022 183.116 40.8642 182.93C41.0322 182.744 41.3022 182.609 41.6742 182.525C42.0462 182.441 42.5592 182.399 43.2132 182.399H43.4382V182.192C43.4382 181.898 43.3752 181.685 43.2492 181.553C43.1232 181.415 42.9192 181.346 42.6372 181.346C42.4632 181.346 42.2862 181.373 42.1062 181.427C41.9262 181.475 41.7132 181.547 41.4672 181.643C41.3112 181.721 41.1972 181.76 41.1252 181.76C41.0172 181.76 40.9272 181.721 40.8552 181.643C40.7892 181.565 40.7562 181.463 40.7562 181.337C40.7562 181.235 40.7802 181.148 40.8282 181.076C40.8822 180.998 40.9692 180.926 41.0892 180.86C41.2992 180.746 41.5482 180.656 41.8362 180.59C42.1302 180.524 42.4182 180.491 42.7002 180.491ZM42.4212 184.262C42.7212 184.262 42.9642 184.163 43.1502 183.965C43.3422 183.761 43.4382 183.5 43.4382 183.182V182.993H43.2762C42.8742 182.993 42.5622 183.011 42.3402 183.047C42.1182 183.083 41.9592 183.146 41.8632 183.236C41.7672 183.326 41.7192 183.449 41.7192 183.605C41.7192 183.797 41.7852 183.956 41.9172 184.082C42.0552 184.202 42.2232 184.262 42.4212 184.262ZM48.2086 180.491C48.7366 180.491 49.1296 180.641 49.3876 180.941C49.6456 181.241 49.7746 181.694 49.7746 182.3V184.514C49.7746 184.682 49.7236 184.814 49.6216 184.91C49.5256 185.006 49.3906 185.054 49.2166 185.054C49.0426 185.054 48.9046 185.006 48.8026 184.91C48.7006 184.814 48.6496 184.682 48.6496 184.514V182.363C48.6496 182.021 48.5836 181.772 48.4516 181.616C48.3256 181.46 48.1246 181.382 47.8486 181.382C47.5246 181.382 47.2636 181.484 47.0656 181.688C46.8736 181.892 46.7776 182.165 46.7776 182.507V184.514C46.7776 184.682 46.7266 184.814 46.6246 184.91C46.5226 185.006 46.3846 185.054 46.2106 185.054C46.0366 185.054 45.8986 185.006 45.7966 184.91C45.7006 184.814 45.6526 184.682 45.6526 184.514V181.031C45.6526 180.875 45.7036 180.749 45.8056 180.653C45.9076 180.557 46.0456 180.509 46.2196 180.509C46.3756 180.509 46.5016 180.557 46.5976 180.653C46.6996 180.743 46.7506 180.863 46.7506 181.013V181.256C46.9006 181.01 47.1016 180.821 47.3536 180.689C47.6056 180.557 47.8906 180.491 48.2086 180.491ZM54.3912 180.509C54.5652 180.509 54.7032 180.557 54.8052 180.653C54.9072 180.749 54.9582 180.878 54.9582 181.04V184.532C54.9582 184.688 54.9042 184.814 54.7962 184.91C54.6942 185.006 54.5592 185.054 54.3912 185.054C54.2292 185.054 54.1002 185.009 54.0042 184.919C53.9082 184.829 53.8602 184.706 53.8602 184.55V184.325C53.7222 184.565 53.5362 184.751 53.3022 184.883C53.0682 185.009 52.8042 185.072 52.5102 185.072C51.4302 185.072 50.8902 184.466 50.8902 183.254V181.04C50.8902 180.878 50.9412 180.749 51.0432 180.653C51.1452 180.557 51.2802 180.509 51.4482 180.509C51.6222 180.509 51.7602 180.557 51.8622 180.653C51.9642 180.749 52.0152 180.878 52.0152 181.04V183.263C52.0152 183.575 52.0782 183.806 52.2042 183.956C52.3302 184.106 52.5282 184.181 52.7982 184.181C53.1102 184.181 53.3592 184.079 53.5452 183.875C53.7372 183.665 53.8332 183.389 53.8332 183.047V181.04C53.8332 180.878 53.8842 180.749 53.9862 180.653C54.0882 180.557 54.2232 180.509 54.3912 180.509ZM58.0371 180.491C58.6491 180.491 59.1021 180.644 59.3961 180.95C59.6961 181.25 59.8461 181.709 59.8461 182.327V184.523C59.8461 184.685 59.7981 184.814 59.7021 184.91C59.6061 185 59.4741 185.045 59.3061 185.045C59.1501 185.045 59.0211 184.997 58.9191 184.901C58.8231 184.805 58.7751 184.679 58.7751 184.523V184.325C58.6731 184.559 58.5111 184.742 58.2891 184.874C58.0731 185.006 57.8211 185.072 57.5331 185.072C57.2391 185.072 56.9721 185.012 56.7321 184.892C56.4921 184.772 56.3031 184.607 56.1651 184.397C56.0271 184.187 55.9581 183.953 55.9581 183.695C55.9581 183.371 56.0391 183.116 56.2011 182.93C56.3691 182.744 56.6391 182.609 57.0111 182.525C57.3831 182.441 57.8961 182.399 58.5501 182.399H58.7751V182.192C58.7751 181.898 58.7121 181.685 58.5861 181.553C58.4601 181.415 58.2561 181.346 57.9741 181.346C57.8001 181.346 57.6231 181.373 57.4431 181.427C57.2631 181.475 57.0501 181.547 56.8041 181.643C56.6481 181.721 56.5341 181.76 56.4621 181.76C56.3541 181.76 56.2641 181.721 56.1921 181.643C56.1261 181.565 56.0931 181.463 56.0931 181.337C56.0931 181.235 56.1171 181.148 56.1651 181.076C56.2191 180.998 56.3061 180.926 56.4261 180.86C56.6361 180.746 56.8851 180.656 57.1731 180.59C57.4671 180.524 57.7551 180.491 58.0371 180.491ZM57.7581 184.262C58.0581 184.262 58.3011 184.163 58.4871 183.965C58.6791 183.761 58.7751 183.5 58.7751 183.182V182.993H58.6131C58.2111 182.993 57.8991 183.011 57.6771 183.047C57.4551 183.083 57.2961 183.146 57.2001 183.236C57.1041 183.326 57.0561 183.449 57.0561 183.605C57.0561 183.797 57.1221 183.956 57.2541 184.082C57.3921 184.202 57.5601 184.262 57.7581 184.262ZM61.5475 185.054C61.3855 185.054 61.2505 185.009 61.1425 184.919C61.0405 184.823 60.9895 184.688 60.9895 184.514V179.141C60.9895 178.967 61.0405 178.835 61.1425 178.745C61.2505 178.655 61.3855 178.61 61.5475 178.61C61.7095 178.61 61.8445 178.655 61.9525 178.745C62.0605 178.835 62.1145 178.967 62.1145 179.141V184.514C62.1145 184.688 62.0605 184.823 61.9525 184.919C61.8445 185.009 61.7095 185.054 61.5475 185.054Z" fill="#3DE0BF"/>
<circle cx="312" cy="122" r="47" fill="#FCFDFF" stroke="#B8C0CC" stroke-width="2"/>
<path d="M343.79 134.295L340.853 131.917C341.001 130.978 341.001 130.021 340.853 129.081L343.79 126.704C343.896 126.619 343.967 126.5 343.991 126.369C344.015 126.238 343.99 126.103 343.921 125.988L341.247 121.508C341.178 121.393 341.07 121.306 340.941 121.261C340.813 121.216 340.672 121.216 340.544 121.261L336.952 122.53C336.177 121.945 335.32 121.468 334.407 121.115L333.746 117.464C333.723 117.334 333.652 117.216 333.548 117.131C333.443 117.046 333.311 117 333.174 117H327.826C327.689 117 327.557 117.046 327.452 117.131C327.348 117.216 327.277 117.334 327.254 117.464L326.593 121.115C325.68 121.469 324.823 121.945 324.048 122.53L320.456 121.261C320.328 121.215 320.187 121.215 320.058 121.26C319.929 121.305 319.821 121.393 319.753 121.508L317.079 125.988C317.01 126.103 316.985 126.238 317.009 126.369C317.033 126.5 317.104 126.619 317.21 126.704L320.147 129.081C319.999 130.021 319.999 130.978 320.147 131.917L317.21 134.295C317.104 134.38 317.033 134.499 317.009 134.63C316.985 134.761 317.01 134.896 317.079 135.011L319.753 139.491C319.822 139.606 319.93 139.693 320.058 139.738C320.187 139.784 320.328 139.784 320.456 139.738L324.048 138.469C324.823 139.054 325.68 139.531 326.593 139.884L327.254 143.535C327.277 143.665 327.348 143.783 327.452 143.868C327.557 143.953 327.689 144 327.826 144H333.174C333.311 144 333.443 143.953 333.548 143.868C333.653 143.783 333.723 143.665 333.746 143.535L334.407 139.884C335.32 139.531 336.177 139.054 336.952 138.469L340.544 139.738C340.672 139.783 340.813 139.783 340.941 139.738C341.07 139.693 341.178 139.605 341.247 139.491L343.921 135.008C343.989 134.893 344.014 134.759 343.99 134.628C343.966 134.498 343.895 134.38 343.79 134.295ZM330.5 135.762C329.425 135.762 328.374 135.453 327.481 134.876C326.587 134.298 325.891 133.477 325.479 132.516C325.068 131.556 324.96 130.499 325.17 129.479C325.38 128.46 325.897 127.523 326.657 126.788C327.417 126.052 328.386 125.552 329.44 125.349C330.494 125.146 331.587 125.25 332.58 125.648C333.573 126.046 334.421 126.72 335.019 127.584C335.616 128.449 335.934 129.465 335.934 130.505C335.932 131.898 335.359 133.234 334.341 134.22C333.322 135.205 331.941 135.76 330.5 135.762Z" fill="white" stroke="#53A1FF" stroke-width="2" stroke-linecap="round" stroke-linejoin="round"/>
<rect x="287.385" y="146.459" width="24.1155" height="6" rx="3" transform="rotate(-56.6568 287.385 146.459)" stroke="#B8C0CC" stroke-width="2"/>
<circle cx="311" cy="116" r="19" fill="#FCFDFF" stroke="#B8C0CC" stroke-width="2"/>
<circle cx="311" cy="116" r="15" fill="#FCFDFF" stroke="#B8C0CC" stroke-width="2"/>
<path d="M310.976 120.104C310.736 120.104 310.528 120.024 310.352 119.864C310.192 119.704 310.096 119.472 310.064 119.168L309.176 109.832L309.152 109.592C309.152 109.096 309.32 108.704 309.656 108.416C310.008 108.112 310.448 107.96 310.976 107.96C311.536 107.96 311.992 108.136 312.344 108.488C312.696 108.824 312.84 109.28 312.776 109.856L311.888 119.168C311.856 119.472 311.752 119.704 311.576 119.864C311.416 120.024 311.216 120.104 310.976 120.104ZM310.976 125.144C310.464 125.144 310.04 124.976 309.704 124.64C309.368 124.288 309.2 123.856 309.2 123.344C309.2 122.832 309.368 122.408 309.704 122.072C310.04 121.72 310.464 121.544 310.976 121.544C311.488 121.544 311.912 121.72 312.248 122.072C312.584 122.408 312.752 122.832 312.752 123.344C312.752 123.856 312.584 124.288 312.248 124.64C311.912 124.976 311.488 125.144 310.976 125.144Z" fill="#3DE0BF"/>
<circle cx="214" cy="48" r="47" fill="#FCFDFF" stroke="#B8C0CC" stroke-width="2"/>
<rect x="191.75" y="16" width="43.75" height="63.25" rx="5" stroke="#B8C0CC" stroke-width="2"/>
<rect x="191.75" y="16" width="47.5" height="63.25" rx="5" stroke="#B8C0CC" stroke-width="2"/>
<rect x="191.75" y="16" width="40" height="63.25" rx="5" fill="#FCFDFF" stroke="#B8C0CC" stroke-width="2"/>
<path d="M220.631 45.2068L218.588 43.5285C218.691 42.8651 218.691 42.1903 218.588 41.5269L220.631 39.8486C220.704 39.7886 220.754 39.7049 220.771 39.6124C220.787 39.5198 220.77 39.4245 220.722 39.3434L218.862 36.1814C218.814 36.1007 218.739 36.0391 218.65 36.0072C218.56 35.9753 218.463 35.9753 218.373 36.0071L215.875 36.903C215.336 36.4899 214.741 36.1537 214.106 35.9043L213.646 33.3276C213.63 33.2357 213.581 33.1524 213.508 33.0925C213.435 33.0326 213.343 32.9998 213.248 33H209.529C209.434 32.9998 209.342 33.0326 209.269 33.0925C209.196 33.1524 209.147 33.2357 209.131 33.3276L208.671 35.9043C208.036 36.154 207.441 36.4902 206.901 36.903L204.404 36.0071C204.314 35.9748 204.216 35.9746 204.127 36.0065C204.037 36.0384 203.962 36.1003 203.915 36.1814L202.055 39.3434C202.007 39.4245 201.99 39.5198 202.006 39.6124C202.023 39.7049 202.072 39.7886 202.146 39.8486L204.188 41.5269C204.086 42.1903 204.086 42.8651 204.188 43.5285L202.146 45.2068C202.072 45.2667 202.023 45.3504 202.006 45.443C201.99 45.5355 202.007 45.6308 202.055 45.712L203.915 48.874C203.962 48.9548 204.038 49.0165 204.127 49.0484C204.216 49.0803 204.314 49.0803 204.404 49.0483L206.901 48.1523C207.44 48.5655 208.036 48.9017 208.671 49.1511L209.131 51.7278C209.147 51.8198 209.196 51.9031 209.269 51.9632C209.342 52.0233 209.434 52.0562 209.529 52.0562H213.248C213.343 52.0562 213.435 52.0233 213.508 51.9632C213.581 51.9031 213.63 51.8198 213.646 51.7278L214.106 49.1511C214.741 48.9017 215.336 48.5655 215.875 48.1523L218.373 49.0483C218.463 49.0799 218.56 49.0798 218.65 49.048C218.739 49.0161 218.814 48.9545 218.862 48.874L220.722 45.7095C220.769 45.6286 220.786 45.5338 220.77 45.4418C220.753 45.3499 220.704 45.2666 220.631 45.2068ZM211.388 46.2417C210.641 46.2417 209.91 46.0241 209.289 45.6164C208.667 45.2087 208.183 44.6292 207.897 43.9513C207.611 43.2733 207.536 42.5274 207.682 41.8077C207.828 41.088 208.187 40.4268 208.716 39.908C209.245 39.3891 209.918 39.0357 210.651 38.8926C211.384 38.7494 212.144 38.8229 212.835 39.1037C213.525 39.3845 214.115 39.86 214.531 40.4702C214.946 41.0803 215.168 41.7977 215.168 42.5315C215.166 43.5151 214.768 44.458 214.059 45.1535C213.351 45.849 212.39 46.2403 211.388 46.2417Z" fill="white" stroke="#3DE0BF" stroke-width="2" stroke-linecap="round" stroke-linejoin="round"/>
<path d="M198.202 67.054C197.622 67.054 197.182 66.904 196.882 66.604C196.582 66.304 196.432 65.866 196.432 65.29V63.124C196.432 63.008 196.466 62.916 196.534 62.848C196.602 62.776 196.694 62.74 196.81 62.74C196.926 62.74 197.018 62.776 197.086 62.848C197.154 62.916 197.188 63.008 197.188 63.124V65.332C197.188 65.696 197.274 65.972 197.446 66.16C197.618 66.344 197.87 66.436 198.202 66.436C198.53 66.436 198.78 66.342 198.952 66.154C199.124 65.966 199.21 65.692 199.21 65.332V63.124C199.21 63.008 199.244 62.916 199.312 62.848C199.38 62.776 199.472 62.74 199.588 62.74C199.704 62.74 199.796 62.776 199.864 62.848C199.932 62.916 199.966 63.008 199.966 63.124V65.29C199.966 65.862 199.816 66.3 199.516 66.604C199.216 66.904 198.778 67.054 198.202 67.054ZM201.852 67.048C201.416 67.048 201.064 66.962 200.796 66.79C200.668 66.714 200.604 66.606 200.604 66.466C200.604 66.386 200.626 66.322 200.67 66.274C200.714 66.222 200.768 66.196 200.832 66.196C200.9 66.196 200.994 66.228 201.114 66.292C201.242 66.352 201.358 66.398 201.462 66.43C201.57 66.462 201.706 66.478 201.87 66.478C202.038 66.478 202.168 66.45 202.26 66.394C202.356 66.338 202.404 66.26 202.404 66.16C202.404 66.092 202.384 66.038 202.344 65.998C202.308 65.958 202.24 65.922 202.14 65.89C202.044 65.854 201.896 65.814 201.696 65.77C201.34 65.698 201.084 65.596 200.928 65.464C200.776 65.332 200.7 65.15 200.7 64.918C200.7 64.742 200.752 64.584 200.856 64.444C200.96 64.3 201.102 64.19 201.282 64.114C201.466 64.034 201.674 63.994 201.906 63.994C202.074 63.994 202.236 64.016 202.392 64.06C202.548 64.1 202.688 64.16 202.812 64.24C202.94 64.32 203.004 64.426 203.004 64.558C203.004 64.638 202.982 64.706 202.938 64.762C202.894 64.814 202.84 64.84 202.776 64.84C202.732 64.84 202.688 64.832 202.644 64.816C202.604 64.796 202.552 64.768 202.488 64.732C202.372 64.672 202.272 64.628 202.188 64.6C202.104 64.568 202 64.552 201.876 64.552C201.728 64.552 201.61 64.582 201.522 64.642C201.438 64.702 201.396 64.784 201.396 64.888C201.396 64.988 201.44 65.064 201.528 65.116C201.616 65.168 201.786 65.22 202.038 65.272C202.306 65.328 202.516 65.392 202.668 65.464C202.82 65.536 202.928 65.626 202.992 65.734C203.06 65.842 203.094 65.98 203.094 66.148C203.094 66.42 202.98 66.638 202.752 66.802C202.528 66.966 202.228 67.048 201.852 67.048ZM206.025 66.196C206.093 66.196 206.147 66.222 206.187 66.274C206.231 66.326 206.253 66.396 206.253 66.484C206.253 66.608 206.179 66.712 206.031 66.796C205.895 66.872 205.741 66.934 205.569 66.982C205.397 67.026 205.233 67.048 205.076 67.048C204.605 67.048 204.231 66.912 203.955 66.64C203.679 66.368 203.541 65.996 203.541 65.524C203.541 65.224 203.601 64.958 203.721 64.726C203.841 64.494 204.009 64.314 204.225 64.186C204.445 64.058 204.693 63.994 204.969 63.994C205.233 63.994 205.463 64.052 205.659 64.168C205.855 64.284 206.007 64.448 206.115 64.66C206.223 64.872 206.277 65.122 206.277 65.41C206.277 65.582 206.201 65.668 206.049 65.668H204.279C204.303 65.944 204.381 66.148 204.513 66.28C204.645 66.408 204.837 66.472 205.089 66.472C205.217 66.472 205.329 66.456 205.425 66.424C205.525 66.392 205.637 66.348 205.761 66.292C205.881 66.228 205.969 66.196 206.025 66.196ZM204.987 64.522C204.783 64.522 204.619 64.586 204.495 64.714C204.375 64.842 204.303 65.026 204.279 65.266H205.635C205.627 65.022 205.567 64.838 205.455 64.714C205.343 64.586 205.187 64.522 204.987 64.522ZM208.528 64.006C208.632 63.998 208.714 64.02 208.774 64.072C208.834 64.124 208.864 64.202 208.864 64.306C208.864 64.414 208.838 64.494 208.786 64.546C208.734 64.598 208.64 64.632 208.504 64.648L208.324 64.666C208.088 64.69 207.914 64.77 207.802 64.906C207.694 65.042 207.64 65.212 207.64 65.416V66.676C207.64 66.792 207.604 66.882 207.532 66.946C207.46 67.006 207.37 67.036 207.262 67.036C207.154 67.036 207.064 67.006 206.992 66.946C206.924 66.882 206.89 66.792 206.89 66.676V64.354C206.89 64.242 206.924 64.156 206.992 64.096C207.064 64.036 207.152 64.006 207.256 64.006C207.36 64.006 207.444 64.036 207.508 64.096C207.572 64.152 207.604 64.234 207.604 64.342V64.582C207.68 64.406 207.792 64.27 207.94 64.174C208.092 64.078 208.26 64.024 208.444 64.012L208.528 64.006ZM214.104 64.714C214.196 64.714 214.27 64.742 214.326 64.798C214.382 64.85 214.41 64.92 214.41 65.008V66.298C214.41 66.482 214.386 66.612 214.338 66.688C214.29 66.764 214.192 66.826 214.044 66.874C213.884 66.93 213.698 66.974 213.486 67.006C213.274 67.038 213.07 67.054 212.874 67.054C212.438 67.054 212.06 66.968 211.74 66.796C211.42 66.624 211.174 66.376 211.002 66.052C210.834 65.724 210.75 65.334 210.75 64.882C210.75 64.438 210.834 64.054 211.002 63.73C211.174 63.402 211.416 63.152 211.728 62.98C212.04 62.804 212.408 62.716 212.832 62.716C213.396 62.716 213.858 62.868 214.218 63.172C214.266 63.216 214.3 63.26 214.32 63.304C214.344 63.348 214.356 63.4 214.356 63.46C214.356 63.548 214.332 63.622 214.284 63.682C214.236 63.742 214.178 63.772 214.11 63.772C214.066 63.772 214.026 63.766 213.99 63.754C213.954 63.738 213.912 63.714 213.864 63.682C213.688 63.558 213.524 63.472 213.372 63.424C213.22 63.372 213.048 63.346 212.856 63.346C212.42 63.346 212.09 63.476 211.866 63.736C211.646 63.992 211.536 64.374 211.536 64.882C211.536 65.922 211.992 66.442 212.904 66.442C213.176 66.442 213.448 66.404 213.72 66.328V65.266H213.042C212.946 65.266 212.87 65.242 212.814 65.194C212.762 65.146 212.736 65.078 212.736 64.99C212.736 64.902 212.762 64.834 212.814 64.786C212.87 64.738 212.946 64.714 213.042 64.714H214.104ZM217.532 64.006C217.648 64.006 217.74 64.038 217.808 64.102C217.876 64.166 217.91 64.252 217.91 64.36V66.688C217.91 66.792 217.874 66.876 217.802 66.94C217.734 67.004 217.644 67.036 217.532 67.036C217.424 67.036 217.338 67.006 217.274 66.946C217.21 66.886 217.178 66.804 217.178 66.7V66.55C217.086 66.71 216.962 66.834 216.806 66.922C216.65 67.006 216.474 67.048 216.278 67.048C215.558 67.048 215.198 66.644 215.198 65.836V64.36C215.198 64.252 215.232 64.166 215.3 64.102C215.368 64.038 215.458 64.006 215.57 64.006C215.686 64.006 215.778 64.038 215.846 64.102C215.914 64.166 215.948 64.252 215.948 64.36V65.842C215.948 66.05 215.99 66.204 216.074 66.304C216.158 66.404 216.29 66.454 216.47 66.454C216.678 66.454 216.844 66.386 216.968 66.25C217.096 66.11 217.16 65.926 217.16 65.698V64.36C217.16 64.252 217.194 64.166 217.262 64.102C217.33 64.038 217.42 64.006 217.532 64.006ZM219.063 67.036C218.955 67.036 218.865 67.006 218.793 66.946C218.725 66.882 218.691 66.792 218.691 66.676V64.36C218.691 64.244 218.725 64.156 218.793 64.096C218.865 64.036 218.955 64.006 219.063 64.006C219.171 64.006 219.261 64.036 219.333 64.096C219.405 64.156 219.441 64.244 219.441 64.36V66.676C219.441 66.792 219.405 66.882 219.333 66.946C219.261 67.006 219.171 67.036 219.063 67.036ZM219.063 63.472C218.927 63.472 218.819 63.436 218.739 63.364C218.659 63.288 218.619 63.19 218.619 63.07C218.619 62.95 218.659 62.854 218.739 62.782C218.819 62.71 218.927 62.674 219.063 62.674C219.195 62.674 219.301 62.71 219.381 62.782C219.465 62.854 219.507 62.95 219.507 63.07C219.507 63.19 219.467 63.288 219.387 63.364C219.307 63.436 219.199 63.472 219.063 63.472ZM222.662 62.74C222.774 62.74 222.866 62.772 222.938 62.836C223.01 62.9 223.046 62.984 223.046 63.088V66.676C223.046 66.784 223.012 66.87 222.944 66.934C222.876 66.998 222.786 67.03 222.674 67.03C222.562 67.03 222.472 66.998 222.404 66.934C222.336 66.87 222.302 66.784 222.302 66.676V66.526C222.214 66.69 222.086 66.818 221.918 66.91C221.754 67.002 221.566 67.048 221.354 67.048C221.102 67.048 220.876 66.984 220.676 66.856C220.48 66.728 220.326 66.548 220.214 66.316C220.106 66.08 220.052 65.81 220.052 65.506C220.052 65.202 220.106 64.936 220.214 64.708C220.326 64.48 220.48 64.304 220.676 64.18C220.872 64.056 221.098 63.994 221.354 63.994C221.566 63.994 221.754 64.038 221.918 64.126C222.082 64.214 222.208 64.338 222.296 64.498V63.076C222.296 62.976 222.328 62.896 222.392 62.836C222.46 62.772 222.55 62.74 222.662 62.74ZM221.552 66.466C221.792 66.466 221.976 66.384 222.104 66.22C222.236 66.056 222.302 65.822 222.302 65.518C222.302 65.214 222.236 64.982 222.104 64.822C221.976 64.658 221.794 64.576 221.558 64.576C221.318 64.576 221.132 64.656 221 64.816C220.868 64.976 220.802 65.206 220.802 65.506C220.802 65.81 220.868 66.046 221 66.214C221.132 66.382 221.316 66.466 221.552 66.466ZM226.14 66.196C226.208 66.196 226.262 66.222 226.302 66.274C226.346 66.326 226.368 66.396 226.368 66.484C226.368 66.608 226.294 66.712 226.146 66.796C226.01 66.872 225.856 66.934 225.684 66.982C225.512 67.026 225.348 67.048 225.192 67.048C224.72 67.048 224.346 66.912 224.07 66.64C223.794 66.368 223.656 65.996 223.656 65.524C223.656 65.224 223.716 64.958 223.836 64.726C223.956 64.494 224.124 64.314 224.34 64.186C224.56 64.058 224.808 63.994 225.084 63.994C225.348 63.994 225.578 64.052 225.774 64.168C225.97 64.284 226.122 64.448 226.23 64.66C226.338 64.872 226.392 65.122 226.392 65.41C226.392 65.582 226.316 65.668 226.164 65.668H224.394C224.418 65.944 224.496 66.148 224.628 66.28C224.76 66.408 224.952 66.472 225.204 66.472C225.332 66.472 225.444 66.456 225.54 66.424C225.64 66.392 225.752 66.348 225.876 66.292C225.996 66.228 226.084 66.196 226.14 66.196ZM225.102 64.522C224.898 64.522 224.734 64.586 224.61 64.714C224.49 64.842 224.418 65.026 224.394 65.266H225.75C225.742 65.022 225.682 64.838 225.57 64.714C225.458 64.586 225.302 64.522 225.102 64.522Z" fill="#53A1FF"/>
<path d="M271 255.275C271 257.323 269.338 259 267.306 259H194.694C192.662 259 191 257.323 191 255.275C191 233.175 208.917 215 231 215C253.083 215 271 233.175 271 255.275Z" fill="white" stroke="#B8C0CC" stroke-width="2" stroke-linecap="round"/>
<circle cx="230.59" cy="187.934" r="18.1977" fill="white" stroke="#B8C0CC" stroke-width="2"/>
<path d="M256.491 191.504V199.109C256.491 201.318 254.701 203.109 252.491 203.109H231.417" stroke="#B8C0CC" stroke-width="2" stroke-linecap="round"/>
<path d="M256.064 188.686C256.064 174.86 244.711 163.651 230.707 163.651C216.703 163.651 205.35 174.86 205.35 188.686" stroke="#B8C0CC" stroke-width="2"/>
<path d="M206.849 196.9C206.947 197.278 207.04 197.615 207.124 197.907C205.55 197.834 204.238 197.298 203.235 196.443C201.972 195.366 201.117 193.713 200.895 191.624C200.502 187.929 202.381 184.848 205.738 183.943C205.71 184.268 205.681 184.645 205.658 185.066C205.572 186.596 205.548 188.719 205.8 191.09C206.051 193.453 206.481 195.471 206.849 196.9Z" fill="#B8C0CC" stroke="#B8C0CC" stroke-width="2"/>
<path d="M260.886 191.547C261.339 187.967 258.992 184.552 255.497 183.488C255.543 183.835 255.59 184.236 255.631 184.68C255.781 186.298 255.857 188.52 255.554 190.912C255.255 193.272 254.773 195.29 254.365 196.72C254.257 197.099 254.154 197.437 254.061 197.73C257.674 197.632 260.428 195.167 260.886 191.547Z" fill="#B8C0CC" stroke="#B8C0CC" stroke-width="2"/>
<path d="M139 255.275C139 257.323 137.338 259 135.306 259H62.6939C60.6625 259 59 257.323 59 255.275C59 233.175 76.9173 215 99 215C121.083 215 139 233.175 139 255.275Z" fill="white" stroke="#B8C0CC" stroke-width="2" stroke-linecap="round"/>
<circle cx="98.9445" cy="187.934" r="18.1977" fill="white" stroke="#B8C0CC" stroke-width="2"/>
<path d="M124.846 191.504V199.109C124.846 201.318 123.055 203.109 120.846 203.109H99.7719" stroke="#B8C0CC" stroke-width="2" stroke-linecap="round"/>
<path d="M124.418 188.686C124.418 174.86 113.066 163.651 99.0615 163.651C85.0573 163.651 73.7047 174.86 73.7047 188.686" stroke="#B8C0CC" stroke-width="2"/>
<path d="M75.204 196.9C75.3013 197.278 75.3944 197.615 75.4789 197.907C73.9044 197.834 72.5929 197.298 71.5898 196.443C70.3269 195.366 69.4713 193.713 69.2494 191.624C68.8569 187.929 70.7358 184.848 74.0932 183.943C74.0643 184.268 74.036 184.645 74.0124 185.066C73.9265 186.596 73.9032 188.719 74.155 191.09C74.406 193.453 74.8361 195.471 75.204 196.9Z" fill="#B8C0CC" stroke="#B8C0CC" stroke-width="2"/>
<path d="M129.241 191.547C129.694 187.967 127.347 184.552 123.851 183.488C123.898 183.835 123.945 184.236 123.986 184.68C124.135 186.298 124.212 188.52 123.909 190.912C123.61 193.272 123.128 195.29 122.72 196.72C122.612 197.099 122.509 197.437 122.415 197.73C126.029 197.632 128.782 195.167 129.241 191.547Z" fill="#B8C0CC" stroke="#B8C0CC" stroke-width="2"/>
<path d="M217.145 259H112.623C109.476 259 106.924 256.449 106.924 253.301C106.924 221.296 132.878 195.35 164.884 195.35C196.89 195.35 222.844 221.296 222.844 253.301C222.844 256.449 220.292 259 217.145 259Z" fill="white" stroke="#B8C0CC" stroke-width="2" stroke-linecap="round"/>
<path d="M191.187 156.742C191.187 171.359 179.336 183.208 164.717 183.208C150.098 183.208 138.247 171.359 138.247 156.742C138.247 142.125 150.098 130.276 164.717 130.276C179.336 130.276 191.187 142.125 191.187 156.742Z" fill="white" stroke="#53A1FF" stroke-width="2"/>
<path d="M201.779 161.849V174.452C201.779 176.661 199.988 178.452 197.779 178.452H165.901" stroke="#B8C0CC" stroke-width="2" stroke-linecap="round"/>
<path d="M201.167 157.818C201.167 138.036 184.923 122 164.884 122C144.846 122 128.601 138.036 128.601 157.818" stroke="#B8C0CC" stroke-width="2"/>
<path d="M121.797 162.063C121.193 156.375 124.242 151.607 129.644 150.471C129.585 151.046 129.521 151.787 129.472 152.664C129.35 154.837 129.317 157.851 129.674 161.214C130.031 164.569 130.642 167.435 131.164 169.464C131.37 170.263 131.562 170.933 131.72 171.453C129.116 171.462 126.939 170.642 125.296 169.241C123.392 167.618 122.125 165.145 121.797 162.063Z" fill="#B8C0CC" stroke="#B8C0CC" stroke-width="2"/>
<path d="M208.495 161.962C209.2 156.401 205.38 151.133 199.836 149.792C199.929 150.408 200.033 151.2 200.119 152.128C200.331 154.424 200.438 157.569 200.01 160.952C199.586 164.302 198.901 167.167 198.322 169.197C198.094 169.997 197.882 170.668 197.708 171.189C203.374 171.31 207.786 167.563 208.495 161.962Z" fill="#B8C0CC" stroke="#B8C0CC" stroke-width="2"/>
</svg>
