<svg width="296" height="189" viewBox="0 0 296 189" fill="none" xmlns="http://www.w3.org/2000/svg">
<rect x="74.412" y="1" width="220.588" height="153.651" rx="9" fill="white" stroke="#B8C0CC" stroke-width="2"/>
<ellipse cx="102.046" cy="16.7541" rx="7.02341" ry="7.02591" fill="#B8C0CC"/>
<ellipse cx="126.898" cy="16.7541" rx="7.02341" ry="7.02591" fill="#B8C0CC"/>
<path d="M74.4923 32.4272H294.919" stroke="#B8C0CC" stroke-width="2" stroke-linecap="round"/>
<rect x="95.0223" y="54.0455" width="179.367" height="10.8091" rx="2" fill="#EAEFF4"/>
<rect x="95.0223" y="75.6636" width="30.2547" height="22.6991" rx="2" fill="#EAEFF4"/>
<rect x="145.727" y="76.6636" width="28.2547" height="20.6991" rx="1" fill="white" stroke="#53A1FF" stroke-width="2"/>
<rect x="194.431" y="75.6636" width="30.2547" height="22.6991" rx="2" fill="#EAEFF4"/>
<rect x="245.135" y="76.6636" width="28.2547" height="20.6991" rx="1" fill="white" stroke="#B8C0CC" stroke-width="2"/>
<rect x="95.0223" y="111.334" width="30.2547" height="22.6991" rx="2" fill="#53A1FF"/>
<rect x="144.727" y="111.334" width="30.2547" height="22.6991" rx="2" fill="#EAEFF4"/>
<rect x="195.431" y="112.334" width="28.2547" height="20.6991" rx="1" fill="white" stroke="#B8C0CC" stroke-width="2"/>
<rect x="245.135" y="112.334" width="28.2547" height="20.6991" rx="1" fill="white" stroke="#53A1FF" stroke-width="2"/>
<path d="M51.3079 189H14.5719C6.52311 189 0 182.474 0 174.421V137.668C0 111.094 21.5274 89.5565 48.0884 89.5565H51.3199C77.8808 89.5565 99.4082 111.094 99.4082 137.668V140.901C99.3962 167.462 77.8688 189 51.3079 189Z" fill="white"/>
<path opacity="0.4" d="M15.2224 139.278V173.175C15.2224 181.311 21.8836 187.919 30.1122 187.919H15.9704C7.5637 187.919 1.08055 183.595 1.08055 173.175V139.278C1.08055 109.553 23.071 90.6371 50.2028 90.6371C52.6014 90.6371 54.9643 90.8017 57.2678 91.1427C33.4963 94.5288 15.2224 114.787 15.2224 139.278Z" fill="#53A1FF" fill-opacity="0.4"/>
<path d="M51.3261 91.9602C76.5206 91.9602 97.0174 112.464 97.0174 137.668V140.901C97.0174 166.104 76.5206 186.608 51.3261 186.608H14.5856C7.86952 186.608 2.41491 181.152 2.41491 174.433V137.68C2.41491 112.476 22.9117 91.9722 48.1062 91.9722H51.3261V91.9602ZM51.3261 89.5565H48.0942C21.5301 89.5565 0 111.094 0 137.668V174.421C0 182.474 6.5239 189 14.5736 189H51.3141C77.8782 189 99.4082 167.462 99.4082 140.889V137.656C99.4202 111.094 77.8902 89.5565 51.3261 89.5565Z" fill="#53A1FF"/>
<ellipse rx="3.7802" ry="5.40453" transform="matrix(0.997562 -0.0697812 0.0676906 0.997706 80.4892 126.307)" fill="#D7DEE2"/>
<ellipse rx="3.78183" ry="5.40453" transform="matrix(0.997562 -0.0697812 0.0676906 0.997706 59.9732 126.307)" fill="#D7DEE2"/>
<path d="M34.577 147.961C43.1954 166.376 89.6755 168.543 111.294 131.712" stroke="#D7DEE2" stroke-width="2" stroke-linecap="round"/>
<ellipse cx="111.294" cy="131.712" rx="4.3221" ry="4.32363" fill="#D7DEE2"/>
</svg>
