<svg width="224" height="242" viewBox="0 0 224 242" fill="none" xmlns="http://www.w3.org/2000/svg">
<path d="M133.678 48.086C133.678 48.086 100.773 54.9364 86.7668 41.5138" stroke="#B8C0CC" stroke-width="1.883" stroke-linecap="round" stroke-linejoin="round"/>
<path d="M91.1441 1C95.4653 1 99.7442 1.85036 103.736 3.50252C107.729 5.15467 111.356 7.57628 114.412 10.6291C117.467 13.6819 119.891 17.3061 121.545 21.2947C123.198 25.2834 124.049 29.5584 124.049 33.8757C124.049 42.6538 120.558 51.0722 114.346 57.2791C108.133 63.486 99.7068 66.973 90.9209 66.973H63.3501C61.9353 66.973 60.5785 66.4115 59.5781 65.412C58.5777 64.4125 58.0157 63.0569 58.0157 61.6434V34.0988C58.0157 25.3204 61.506 16.9016 67.7188 10.6944C73.9316 4.48718 82.3579 1 91.1441 1V1Z" fill="white"/>
<path opacity="0.4" d="M90.7331 1.05274C92.4472 1.05222 94.1586 1.18636 95.8516 1.45391C82.3909 1.13818 64.0944 11.0748 64.0944 33.8836V62.1914C64.0978 63.4232 64.5892 64.6035 65.4612 65.4744C66.3331 66.3453 67.5146 66.8359 68.7475 66.8389H62.5245C61.2919 66.8355 60.1107 66.3447 59.2391 65.4739C58.3675 64.6031 57.8763 63.423 57.8729 62.1914V33.8836C57.8981 25.184 61.3683 16.848 67.5253 10.6965C73.6823 4.54501 82.0258 1.07795 90.7331 1.05274Z" fill="#53A1FF" fill-opacity="0.4"/>
<path d="M91.1441 1C95.4653 1 99.7442 1.85036 103.736 3.50252C107.729 5.15467 111.356 7.57628 114.412 10.6291C117.467 13.6819 119.891 17.3061 121.545 21.2947C123.198 25.2834 124.049 29.5584 124.049 33.8757V33.8757C124.049 42.6538 120.558 51.0722 114.346 57.2791C108.133 63.486 99.7068 66.973 90.9209 66.973H63.3501C61.9353 66.973 60.5785 66.4115 59.5781 65.412C58.5777 64.4125 58.0157 63.0569 58.0157 61.6434V34.0988C58.0157 25.3204 61.506 16.9016 67.7188 10.6944C73.9316 4.48718 82.3579 1 91.1441 1V1Z" stroke="#53A1FF" stroke-width="1.883" stroke-linecap="round" stroke-linejoin="round"/>
<path d="M111.419 32.8474C112.474 32.8474 113.329 31.4987 113.329 29.835C113.329 28.1713 112.474 26.8226 111.419 26.8226C110.364 26.8226 109.508 28.1713 109.508 29.835C109.508 31.4987 110.364 32.8474 111.419 32.8474Z" fill="#B8C0CC"/>
<path d="M101.026 32.8474C102.081 32.8474 102.936 31.4987 102.936 29.835C102.936 28.1713 102.081 26.8226 101.026 26.8226C99.9704 26.8226 99.115 28.1713 99.115 29.835C99.115 31.4987 99.9704 32.8474 101.026 32.8474Z" fill="#B8C0CC"/>
<path d="M133.675 51.6126C135.625 51.6126 137.205 50.0338 137.205 48.0861C137.205 46.1385 135.625 44.5596 133.675 44.5596C131.726 44.5596 130.146 46.1385 130.146 48.0861C130.146 50.0338 131.726 51.6126 133.675 51.6126Z" fill="#B8C0CC"/>
<path d="M209.094 66.9224H14.9057C7.2258 66.9224 1 73.1426 1 80.8156V227.107C1 234.78 7.2258 241 14.9057 241H209.094C216.774 241 223 234.78 223 227.107V80.8156C223 73.1426 216.774 66.9224 209.094 66.9224Z" fill="white" stroke="#B8C0CC" stroke-width="1.883" stroke-linecap="round" stroke-linejoin="round"/>
<path d="M15.4588 85.7178C18.0623 85.7178 20.1728 83.6092 20.1728 81.0081C20.1728 78.4069 18.0623 76.2983 15.4588 76.2983C12.8553 76.2983 10.7448 78.4069 10.7448 81.0081C10.7448 83.6092 12.8553 85.7178 15.4588 85.7178Z" fill="#B8C0CC"/>
<path d="M30.1407 85.7178C32.7442 85.7178 34.8547 83.6092 34.8547 81.0081C34.8547 78.4069 32.7442 76.2983 30.1407 76.2983C27.5373 76.2983 25.4267 78.4069 25.4267 81.0081C25.4267 83.6092 27.5373 85.7178 30.1407 85.7178Z" fill="#B8C0CC"/>
<path d="M134.554 179.522L128.27 180.624C127.857 180.697 127.434 180.687 127.025 180.597C126.616 180.506 126.229 180.335 125.886 180.095C125.543 179.855 125.25 179.549 125.025 179.196C124.801 178.843 124.647 178.449 124.575 178.036C124.502 177.624 124.512 177.202 124.603 176.793C124.694 176.384 124.864 175.997 125.105 175.655C125.345 175.312 125.651 175.02 126.005 174.795C126.358 174.57 126.753 174.417 127.165 174.345L133.451 173.243C137.617 172.511 141.322 170.156 143.751 166.696C146.179 163.235 147.132 158.952 146.4 154.79C145.668 150.627 143.311 146.925 139.847 144.499C136.384 142.072 132.097 141.12 127.931 141.851L121.647 142.955C120.813 143.101 119.956 142.911 119.263 142.426C118.57 141.94 118.098 141.2 117.952 140.367C117.805 139.534 117.996 138.677 118.482 137.985C118.968 137.293 119.709 136.822 120.542 136.675L126.828 135.573C132.661 134.55 138.662 135.883 143.511 139.28C148.36 142.677 151.66 147.86 152.684 153.687C153.709 159.515 152.374 165.511 148.974 170.356C145.574 175.2 140.387 178.497 134.554 179.521V179.522Z" fill="#53A1FF"/>
<path d="M109.416 183.935L103.132 185.037C97.2992 186.061 91.2981 184.728 86.449 181.331C81.6 177.934 78.3002 172.751 77.2756 166.923C76.2511 161.095 77.5856 155.1 80.9858 150.255C84.3859 145.41 89.5731 142.113 95.4061 141.09L101.69 139.988C102.523 139.841 103.381 140.032 104.074 140.517C104.767 141.003 105.238 141.744 105.384 142.576C105.53 143.409 105.34 144.266 104.854 144.958C104.368 145.65 103.627 146.121 102.793 146.267L96.5092 147.369C92.3428 148.101 88.6377 150.456 86.2092 153.916C83.7806 157.377 82.8275 161.66 83.5595 165.822C84.2915 169.985 86.6486 173.687 90.1124 176.113C93.5761 178.54 97.8627 179.492 102.029 178.761L108.313 177.657C109.147 177.511 110.004 177.701 110.697 178.187C111.39 178.672 111.861 179.413 112.007 180.246C112.154 181.079 111.963 181.935 111.477 182.627C110.991 183.32 110.25 183.791 109.416 183.937V183.935Z" fill="#53A1FF"/>
<path d="M124.956 161.791L106.104 165.106C105.692 165.179 105.269 165.169 104.86 165.078C104.451 164.987 104.064 164.817 103.721 164.576C103.378 164.336 103.085 164.03 102.861 163.677C102.636 163.324 102.483 162.93 102.41 162.518C102.338 162.105 102.347 161.683 102.438 161.274C102.529 160.865 102.7 160.479 102.941 160.136C103.181 159.793 103.487 159.501 103.841 159.277C104.194 159.052 104.589 158.899 105.001 158.827L123.846 155.519C124.258 155.446 124.681 155.456 125.09 155.547C125.499 155.638 125.887 155.808 126.23 156.048C126.573 156.289 126.865 156.594 127.09 156.947C127.315 157.301 127.468 157.695 127.541 158.107C127.613 158.519 127.604 158.942 127.513 159.35C127.422 159.759 127.251 160.146 127.011 160.489C126.77 160.832 126.464 161.124 126.111 161.348C125.757 161.573 125.363 161.726 124.95 161.799L124.956 161.791Z" fill="#53A1FF"/>
<path d="M1 95.8644H223" stroke="#B8C0CC" stroke-width="1.883" stroke-linecap="round" stroke-linejoin="round"/>
<path d="M133.678 51.6141V137.173" stroke="#B8C0CC" stroke-linecap="round" stroke-linejoin="round"/>
<path fill-rule="evenodd" clip-rule="evenodd" d="M181.966 50.2344L184.181 48.4813C184.063 48.4219 183.945 48.3405 183.819 48.2535C183.607 48.1067 183.371 47.9438 183.073 47.8438C182.994 47.8438 182.955 47.8039 182.915 47.7641C182.876 47.7243 182.836 47.6844 182.757 47.6844C179.699 46.1447 176.051 47.2825 174.38 50.2355L174.37 50.2345C173.263 52.1469 173.263 54.5375 174.37 56.45H174.408C174.82 57.1244 174.872 57.2554 174.924 57.3863C174.943 57.4362 174.963 57.486 175.003 57.5656C177.218 60.4344 181.333 60.9125 184.181 58.6813L184.182 58.6812C186.081 57.0875 186.872 54.6969 186.555 52.3063H180.384V54.8562H183.865C183.708 55.8047 183.084 56.4396 182.302 56.9164C181.895 57.0838 181.425 57.2469 181.333 57.2469C179.276 57.8843 177.061 56.9285 176.427 54.8576L176.428 54.8563C176.428 54.8563 176.19 54.2188 176.19 53.4219C176.19 53.0144 176.294 52.6068 176.395 52.3058L176.395 52.3062C176.585 51.8281 176.743 51.5094 176.743 51.5094C177.851 49.7563 180.225 49.1188 181.966 50.2344Z" fill="#53A1FF"/>
<path d="M162.542 51.5556H160.05V49.9384C160.05 49.4974 160.361 49.2034 160.829 49.0563H161.919V46.9982H160.206C158.804 46.9982 157.713 47.8802 157.713 49.2034V49.3504V51.4085H156V53.4667H157.713V60.0823H160.206V53.4667H162.075L162.542 51.5556Z" fill="#53A1FF"/>
<path fill-rule="evenodd" clip-rule="evenodd" d="M210.226 49.2253C210.372 49.6428 210.518 50.1996 210.518 50.7564V56.3242C210.518 56.7417 210.372 57.2983 210.226 57.855L210.226 57.8553C209.933 58.8296 209.203 59.5256 208.18 59.804C207.741 59.9432 207.156 60.0824 206.572 60.0824H200.872C200.433 60.0824 199.849 59.9432 199.264 59.804C198.387 59.2472 197.656 58.6904 197.218 57.8553C197.072 57.4377 196.925 56.8809 196.925 56.3242V50.8956C196.925 50.3388 197.072 49.782 197.218 49.2253C197.802 48.3901 198.387 47.6941 199.264 47.2766C199.702 47.1374 200.287 46.9982 200.872 46.9982H206.572C207.01 46.9982 207.595 47.1374 208.18 47.2765L208.18 47.2766C209.203 47.555 209.933 48.2509 210.226 49.2253ZM208.764 56.8809C208.91 56.4633 208.91 56.185 208.91 55.7674V51.0348C208.91 50.6172 208.91 50.3388 208.764 49.9212L208.764 49.921C208.618 49.6427 208.472 49.3644 208.326 49.2253C208.18 49.1557 208.07 49.0861 207.96 49.0165C207.851 48.9469 207.741 48.8773 207.595 48.8077C207.156 48.6685 206.864 48.6685 206.426 48.6685H206.426H201.456H201.456C201.018 48.6685 200.726 48.6685 200.287 48.8077L200.287 48.8077C199.995 48.9469 199.702 49.0861 199.556 49.2253C199.483 49.3645 199.41 49.4689 199.337 49.5733C199.264 49.6776 199.191 49.782 199.118 49.9212C198.972 50.3388 198.972 50.6172 198.972 51.0348V55.7674C198.972 56.185 198.972 56.4633 199.118 56.8809L199.118 56.8811C199.264 57.1594 199.41 57.4377 199.556 57.5769C199.702 57.6465 199.812 57.7161 199.922 57.7857C200.031 57.8553 200.141 57.9249 200.287 57.9945C200.726 58.1337 201.018 58.1337 201.456 58.1337H201.456H206.426H206.426C206.864 58.1337 207.156 58.1337 207.595 57.9945C208.18 57.8553 208.618 57.4377 208.764 56.8809ZM200.726 53.6098C200.726 51.8997 202.222 50.6171 203.868 50.6171C205.664 50.6171 207.011 51.8997 207.011 53.6098C207.011 55.3199 205.514 56.6024 203.868 56.6024C202.073 56.6024 200.726 55.1774 200.726 53.6098ZM202.222 53.6098C202.222 54.4648 202.971 55.1774 203.868 55.1774H204.018C204.916 55.1774 205.514 54.4648 205.514 53.6098C205.514 52.7547 204.766 52.0422 203.868 52.0422C202.971 52.0422 202.222 52.7547 202.222 53.6098Z" fill="#53A1FF"/>
</svg>
