<svg width="104" height="104" viewBox="0 0 104 104" fill="none" xmlns="http://www.w3.org/2000/svg">
<mask id="mask0" mask-type="alpha" maskUnits="userSpaceOnUse" x="0" y="0" width="104" height="104">
<rect width="104" height="104" fill="#C4C4C4"/>
</mask>
<g mask="url(#mask0)">
<path d="M46 81H59V95H46V81Z" fill="white" stroke="#B8C0CC" stroke-width="2"/>
<path d="M43 91C43 90.4477 43.4477 90 44 90H61C61.5523 90 62 90.4477 62 91V96C62 99.866 58.866 103 55 103H50C46.134 103 43 99.866 43 96V91Z" fill="white" stroke="#53A1FF" stroke-width="2"/>
<mask id="mask1" mask-type="alpha" maskUnits="userSpaceOnUse" x="0" y="-15" width="104" height="105">
<path d="M26 11.0217C40.3594 -3.33767 63.6406 -3.33767 78 11.0217C92.3594 25.3811 92.3594 48.6623 78 63.0217L57.6569 83.3649C54.5327 86.4891 49.4673 86.4891 46.3431 83.3649L26 63.0217C11.6406 48.6623 11.6406 25.3811 26 11.0217Z" fill="white"/>
</mask>
<g mask="url(#mask1)">
<path d="M26.7071 11.7288C40.676 -2.24004 63.324 -2.24004 77.2929 11.7288C91.2618 25.6977 91.2618 48.3457 77.2929 62.3146L56.9498 82.6578C54.2161 85.3914 49.7839 85.3914 47.0503 82.6578L26.7071 62.3146C12.7382 48.3458 12.7382 25.6977 26.7071 11.7288Z" fill="white" stroke="#B8C0CC" stroke-width="2"/>
<path d="M45.1494 5.12746C63.162 -6.91768 87.5286 -2.08012 99.5737 15.9325C111.619 33.945 106.781 58.3116 88.7687 70.3567L68.6231 83.8283C61.7367 88.4333 52.421 86.5838 47.816 79.6974L34.3444 59.5518C22.2993 41.5392 27.1369 17.1726 45.1494 5.12746Z" stroke="#53A1FF" stroke-width="2"/>
<path d="M7.81149 14.2242C21.1767 -2.83181 45.8381 -5.82378 62.8941 7.54146C79.9501 20.9067 82.9421 45.568 69.5769 62.6241L54.6289 81.6999C49.5192 88.2206 40.0908 89.3645 33.5701 84.2548L14.4943 69.3068C-2.56176 55.9416 -5.55375 31.2803 7.81149 14.2242Z" stroke="#53A1FF" stroke-width="2"/>
<path d="M52 1.17126V83.9028" stroke="#B8C0CC" stroke-width="2" stroke-linecap="round"/>
<path d="M27.2612 63.7606H76.7386V85.6608H27.2612V63.7606Z" fill="white" stroke="#B8C0CC" stroke-width="2"/>
<path d="M26.7071 11.7288C40.676 -2.24004 63.324 -2.24004 77.2929 11.7288C91.2618 25.6977 91.2618 48.3457 77.2929 62.3146L56.9498 82.6578C54.2161 85.3914 49.7839 85.3914 47.0503 82.6578L26.7071 62.3146C12.7382 48.3458 12.7382 25.6977 26.7071 11.7288Z" stroke="#B8C0CC" stroke-width="2"/>
</g>
<mask id="path-11-inside-1" fill="white">
<path fill-rule="evenodd" clip-rule="evenodd" d="M32.5 69.4546H8.65646C8.64976 69.4546 8.64307 69.4546 8.63636 69.4546C8.62966 69.4546 8.62296 69.4546 8.61627 69.4546H8V69.4315C3.52741 69.1058 0 65.374 0 60.8182C0 56.0485 3.86663 52.1819 8.63636 52.1819C9.72215 52.1819 10.7611 52.3823 11.7184 52.748C13.416 49.3408 16.9347 47 21 47C25.7688 47 29.7854 50.221 30.9928 54.6061C31.4797 54.5068 31.9837 54.4546 32.5 54.4546C36.6421 54.4546 40 57.8125 40 61.9546C40 65.9287 36.909 69.1809 33 69.4382V69.4546H32.5Z"/>
</mask>
<path fill-rule="evenodd" clip-rule="evenodd" d="M32.5 69.4546H8.65646C8.64976 69.4546 8.64307 69.4546 8.63636 69.4546C8.62966 69.4546 8.62296 69.4546 8.61627 69.4546H8V69.4315C3.52741 69.1058 0 65.374 0 60.8182C0 56.0485 3.86663 52.1819 8.63636 52.1819C9.72215 52.1819 10.7611 52.3823 11.7184 52.748C13.416 49.3408 16.9347 47 21 47C25.7688 47 29.7854 50.221 30.9928 54.6061C31.4797 54.5068 31.9837 54.4546 32.5 54.4546C36.6421 54.4546 40 57.8125 40 61.9546C40 65.9287 36.909 69.1809 33 69.4382V69.4546H32.5Z" fill="white"/>
<path d="M8.65646 69.4546V67.4546L8.65191 67.4546L8.65646 69.4546ZM8.61627 69.4546L8.62082 67.4546H8.61627V69.4546ZM8 69.4546H6V71.4546H8V69.4546ZM8 69.4315H10V67.5719L8.14528 67.4368L8 69.4315ZM11.7184 52.748L11.0045 54.6163L12.6993 55.2639L13.5085 53.64L11.7184 52.748ZM30.9928 54.6061L29.0645 55.137L29.5608 56.9394L31.3926 56.5657L30.9928 54.6061ZM33 69.4382L32.8686 67.4425L31 67.5655V69.4382H33ZM33 69.4546V71.4546H35V69.4546H33ZM32.5 67.4546H8.65646V71.4546H32.5V67.4546ZM8.65191 67.4546C8.64673 67.4546 8.64155 67.4546 8.63636 67.4546V71.4546C8.64458 71.4546 8.6528 71.4546 8.66102 71.4546L8.65191 67.4546ZM8.63636 67.4546C8.63118 67.4546 8.626 67.4546 8.62082 67.4546L8.61171 71.4546C8.61993 71.4546 8.62814 71.4546 8.63636 71.4546V67.4546ZM8.61627 67.4546H8V71.4546H8.61627V67.4546ZM10 69.4546V69.4315H6V69.4546H10ZM8.14528 67.4368C4.71044 67.1866 2 64.3181 2 60.8182H-2C-2 66.4298 2.34437 71.0249 7.85472 71.4262L8.14528 67.4368ZM2 60.8182C2 57.1531 4.9712 54.1819 8.63636 54.1819V50.1819C2.76206 50.1819 -2 54.9439 -2 60.8182H2ZM8.63636 54.1819C9.47435 54.1819 10.2716 54.3362 11.0045 54.6163L12.4323 50.8798C11.2507 50.4283 9.96995 50.1819 8.63636 50.1819V54.1819ZM13.5085 53.64C14.8809 50.8854 17.7221 49 21 49V45C16.1472 45 11.9511 47.7962 9.92826 51.8561L13.5085 53.64ZM21 49C24.8457 49 28.0899 51.5973 29.0645 55.137L32.921 54.0752C31.4808 48.8447 26.692 45 21 45V49ZM31.3926 56.5657C31.7487 56.4931 32.1188 56.4546 32.5 56.4546V52.4546C31.8487 52.4546 31.2107 52.5204 30.5929 52.6465L31.3926 56.5657ZM32.5 56.4546C35.5376 56.4546 38 58.917 38 61.9546H42C42 56.7079 37.7467 52.4546 32.5 52.4546V56.4546ZM38 61.9546C38 64.8682 35.7333 67.2539 32.8686 67.4425L33.1314 71.4339C38.0847 71.1078 42 66.9893 42 61.9546H38ZM31 69.4382V69.4546H35V69.4382H31ZM33 67.4546H32.5V71.4546H33V67.4546Z" fill="#B8C0CC" mask="url(#path-11-inside-1)"/>
<mask id="path-13-inside-2" fill="white">
<path fill-rule="evenodd" clip-rule="evenodd" d="M71.5 36.4546H95.3435C95.3502 36.4546 95.3569 36.4546 95.3636 36.4546C95.3703 36.4546 95.377 36.4546 95.3837 36.4546H96V36.4315C100.473 36.1058 104 32.374 104 27.8182C104 23.0485 100.133 19.1819 95.3636 19.1819C94.2778 19.1819 93.2389 19.3823 92.2816 19.748C90.584 16.3408 87.0653 14 83 14C78.2312 14 74.2146 17.221 73.0072 21.6061C72.5203 21.5068 72.0163 21.4546 71.5 21.4546C67.3579 21.4546 64 24.8125 64 28.9546C64 32.9287 67.091 36.1809 71 36.4382V36.4546H71.5Z"/>
</mask>
<path fill-rule="evenodd" clip-rule="evenodd" d="M71.5 36.4546H95.3435C95.3502 36.4546 95.3569 36.4546 95.3636 36.4546C95.3703 36.4546 95.377 36.4546 95.3837 36.4546H96V36.4315C100.473 36.1058 104 32.374 104 27.8182C104 23.0485 100.133 19.1819 95.3636 19.1819C94.2778 19.1819 93.2389 19.3823 92.2816 19.748C90.584 16.3408 87.0653 14 83 14C78.2312 14 74.2146 17.221 73.0072 21.6061C72.5203 21.5068 72.0163 21.4546 71.5 21.4546C67.3579 21.4546 64 24.8125 64 28.9546C64 32.9287 67.091 36.1809 71 36.4382V36.4546H71.5Z" fill="white"/>
<path d="M95.3435 36.4546V34.4546L95.3481 34.4546L95.3435 36.4546ZM95.3837 36.4546L95.3792 34.4546H95.3837V36.4546ZM96 36.4546H98V38.4546H96V36.4546ZM96 36.4315H94V34.5719L95.8547 34.4368L96 36.4315ZM92.2816 19.748L92.9955 21.6163L91.3007 22.2639L90.4915 20.64L92.2816 19.748ZM73.0072 21.6061L74.9355 22.137L74.4392 23.9394L72.6074 23.5657L73.0072 21.6061ZM71 36.4382L71.1314 34.4425L73 34.5655V36.4382H71ZM71 36.4546V38.4546H69V36.4546H71ZM71.5 34.4546H95.3435V38.4546H71.5V34.4546ZM95.3481 34.4546C95.3533 34.4546 95.3585 34.4546 95.3636 34.4546V38.4546C95.3554 38.4546 95.3472 38.4546 95.339 38.4546L95.3481 34.4546ZM95.3636 34.4546C95.3688 34.4546 95.374 34.4546 95.3792 34.4546L95.3883 38.4546C95.3801 38.4546 95.3719 38.4546 95.3636 38.4546V34.4546ZM95.3837 34.4546H96V38.4546H95.3837V34.4546ZM94 36.4546V36.4315H98V36.4546H94ZM95.8547 34.4368C99.2896 34.1866 102 31.3181 102 27.8182H106C106 33.4298 101.656 38.0249 96.1453 38.4262L95.8547 34.4368ZM102 27.8182C102 24.1531 99.0288 21.1819 95.3636 21.1819V17.1819C101.238 17.1819 106 21.9439 106 27.8182H102ZM95.3636 21.1819C94.5256 21.1819 93.7284 21.3362 92.9955 21.6163L91.5677 17.8798C92.7493 17.4283 94.03 17.1819 95.3636 17.1819V21.1819ZM90.4915 20.64C89.1191 17.8854 86.2779 16 83 16V12C87.8528 12 92.0489 14.7962 94.0717 18.8561L90.4915 20.64ZM83 16C79.1543 16 75.9101 18.5973 74.9355 22.137L71.079 21.0752C72.5192 15.8447 77.308 12 83 12V16ZM72.6074 23.5657C72.2513 23.4931 71.8812 23.4546 71.5 23.4546V19.4546C72.1513 19.4546 72.7893 19.5204 73.4071 19.6465L72.6074 23.5657ZM71.5 23.4546C68.4624 23.4546 66 25.917 66 28.9546H62C62 23.7079 66.2533 19.4546 71.5 19.4546V23.4546ZM66 28.9546C66 31.8682 68.2667 34.2539 71.1314 34.4425L70.8686 38.4339C65.9153 38.1078 62 33.9893 62 28.9546H66ZM73 36.4382V36.4546H69V36.4382H73ZM71 34.4546H71.5V38.4546H71V34.4546Z" fill="#B8C0CC" mask="url(#path-13-inside-2)"/>
</g>
</svg>
