<svg width="180" height="180" viewBox="0 0 180 180" fill="none" xmlns="http://www.w3.org/2000/svg">
<circle cx="90" cy="90" r="90" fill="#F0F4F7"/>
<path d="M29 55.9972C29 52.1316 32.1335 49 36 49H168C171.866 49 175 52.134 175 56V80.7658V162C175 165.866 171.866 169 168 169H36C32.1296 169 29 165.889 29 162.027V161.931V161.834V161.737V161.64V161.542V161.443V161.344V161.245V161.145V161.044V160.943V160.842V160.74V160.637V160.535V160.431V160.327V160.223V160.118V160.013V159.907V159.801V159.695V159.587V159.48V159.372V159.263V159.154V159.045V158.935V158.825V158.714V158.603V158.491V158.379V158.267V158.154V158.04V157.926V157.812V157.697V157.582V157.467V157.35V157.234V157.117V157V156.882V156.764V156.645V156.526V156.407V156.287V156.166V156.046V155.925V155.803V155.681V155.559V155.436V155.313V155.189V155.065V154.941V154.816V154.691V154.565V154.439V154.313V154.186V154.059V153.931V153.803V153.675V153.546V153.417V153.287V153.157V153.027V152.896V152.765V152.634V152.502V152.37V152.237V152.104V151.971V151.837V151.703V151.569V151.434V151.299V151.164V151.028V150.891V150.755V150.618V150.481V150.343V150.205V150.067V149.928V149.789V149.65V149.51V149.37V149.23V149.089V148.948V148.806V148.665V148.522V148.38V148.237V148.094V147.951V147.807V147.663V147.519V147.374V147.229V147.084V146.938V146.792V146.646V146.499V146.352V146.205V146.058V145.91V145.762V145.613V145.464V145.315V145.166V145.016V144.866V144.716V144.566V144.415V144.264V144.112V143.961V143.809V143.656V143.504V143.351V143.198V143.045V142.891V142.737V142.583V142.428V142.274V142.118V141.963V141.808V141.652V141.496V141.339V141.183V141.026V140.869V140.711V140.554V140.396V140.238V140.079V139.921V139.762V139.603V139.443V139.284V139.124V138.964V138.803V138.643V138.482V138.321V138.159V137.998V137.836V137.674V137.512V137.349V137.187V137.024V136.861V136.697V136.534V136.37V136.206V136.042V135.877V135.713V135.548V135.383V135.218V135.052V134.887V134.721V134.555V134.388V134.222V134.055V133.888V133.721V133.554V133.387V133.219V133.051V132.883V132.715V132.547V132.378V132.21V132.041V131.872V131.702V131.533V131.363V131.193V131.024V130.853V130.683V130.513V130.342V130.171V130V129.829V129.658V129.487V129.315V129.143V128.971V128.799V128.627V128.455V128.283V128.11V127.937V127.764V127.591V127.418V127.245V127.071V126.898V126.724V126.55V126.376V126.202V126.028V125.853V125.679V125.504V125.33V125.155V124.98V124.805V124.63V124.454V124.279V124.103V123.928V123.752V123.576V123.4V123.224V123.048V122.871V122.695V122.519V122.342V122.165V121.989V121.812V121.635V121.458V121.281V121.103V120.926V120.749V120.571V120.394V120.216V120.039V119.861V119.683V119.505V119.327V119.149V118.971V118.793V118.614V118.436V118.258V118.079V117.901V117.722V117.544V117.365V117.186V117.007V116.829V116.65V116.471V116.292V116.113V115.934V115.755V115.575V115.396V115.217V115.038V114.858V114.679V114.5V114.32V114.141V113.961V113.782V113.603V113.423V113.243V113.064V112.884V112.705V112.525V112.346V112.166V111.986V111.807V111.627V111.447V111.268V111.088V110.908V110.728V110.549V110.369V110.189V110.01V109.83V109.65V109.471V109.291V109.112V108.932V108.752V108.573V108.393V108.214V108.034V107.855V107.675V107.496V107.316V107.137V106.958V106.778V106.599V106.42V106.24V106.061V105.882V105.703V105.524V105.345V105.166V104.987V104.808V104.629V104.45V104.272V104.093V103.914V103.736V103.557V103.379V103.201V103.022V102.844V102.666V102.488V102.31V102.132V101.954V101.776V101.598V101.42V101.243V101.065V100.888V100.71V100.533V100.356V100.179V100.002V99.8247V99.6478V99.471V99.2944V99.1178V98.9413V98.7649V98.5886V98.4124V98.2364V98.0604V97.8845V97.7087V97.5331V97.3575V97.1821V97.0068V96.8315V96.6564V96.4815V96.3066V96.1319V95.9572V95.7827V95.6084V95.4341V95.26V95.086V94.9122V94.7384V94.5648V94.3914V94.218V94.0449V93.8718V93.6989V93.5261V93.3535V93.181V93.0087V92.8365V92.6645V92.4926V92.3209V92.1493V91.9779V91.8066V91.6355V91.4645V91.2938V91.1231V90.9527V90.7824V90.6122V90.4423V90.2725V90.1029V89.9334V89.7642V89.5951V89.4261V89.2574V89.0888V88.9205V88.7523V88.5843V88.4164V88.2488V88.0814V87.9141V87.747V87.5802V87.4135V87.247V87.0807V86.9147V86.7488V86.5831V86.4176V86.2523V86.0873V85.9224V85.7578V85.5934V85.4291V85.2651V85.1013V84.9378V84.7744V84.6113V84.4484V84.2857V84.1232V83.961V83.7989V83.6372V83.4756V83.3143V83.1532V82.9923V82.8317V82.6713V82.5112V82.3513V82.1916V82.0322V81.873V81.7141V81.5554V81.397V81.2388V81.0809V80.9232V80.7658V80.7217V80.6775V80.6333V80.589V80.5447V80.5003V80.4558V80.4112V80.3666V80.322V80.2773V80.2325V80.1877V80.1428V80.0978V80.0528V80.0078V79.9626V79.9175V79.8722V79.8269V79.7816V79.7362V79.6907V79.6452V79.5996V79.554V79.5083V79.4626V79.4168V79.3709V79.325V79.2791V79.2331V79.187V79.1409V79.0948V79.0485V79.0023V78.9559V78.9096V78.8632V78.8167V78.7702V78.7236V78.677V78.6303V78.5836V78.5368V78.49V78.4431V78.3962V78.3492V78.3022V78.2551V78.208V78.1609V78.1137V78.0664V78.0191V77.9718V77.9244V77.877V77.8295V77.782V77.7344V77.6868V77.6391V77.5914V77.5437V77.4959V77.4481V77.4002V77.3523V77.3043V77.2563V77.2083V77.1602V77.1121V77.0639V77.0157V76.9674V76.9191V76.8708V76.8224V76.774V76.7256V76.6771V76.6286V76.58V76.5314V76.4828V76.4341V76.3854V76.3366V76.2878V76.239V76.1902V76.1413V76.0923V76.0434V75.9944V75.9453V75.8963V75.8471V75.798V75.7488V75.6996V75.6504V75.6011V75.5518V75.5025V75.4531V75.4037V75.3542V75.3048V75.2553V75.2057V75.1562V75.1066V75.057V75.0073V74.9576V74.9079V74.8582V74.8084V74.7586V74.7088V74.6589V74.6091V74.5591V74.5092V74.4592V74.4093V74.3592V74.3092V74.2591V74.209V74.1589V74.1088V74.0586V74.0084V73.9582V73.9079V73.8577V73.8074V73.7571V73.7067V73.6564V73.606V73.5556V73.5051V73.4547V73.4042V73.3537V73.3032V73.2527V73.2021V73.1516V73.101V73.0504V72.9997V72.9491V72.8984V72.8477V72.797V72.7463V72.6955V72.6448V72.594V72.5432V72.4924V72.4416V72.3907V72.3399V72.289V72.2381V72.1872V72.1363V72.0853V72.0344V71.9834V71.9324V71.8815V71.8305V71.7794V71.7284V71.6774V71.6263V71.5752V71.5242V71.4731V71.422V71.3709V71.3197V71.2686V71.2175V71.1663V71.1152V71.064V71.0128V70.9616V70.9104V70.8592V70.808V70.7568V70.7055V70.6543V70.6031V70.5518V70.5006V70.4493V70.398V70.3468V70.2955V70.2442V70.1929V70.1416V70.0903V70.039V69.9877V69.9364V69.8851V69.8338V69.7825V69.7311V69.6798V69.6285V69.5772V69.5258V69.4745V69.4232V69.3718V69.3205V69.2692V69.2179V69.1665V69.1152V69.0639V69.0125V68.9612V68.9099V68.8586V68.8073V68.7559V68.7046V68.6533V68.602V68.5507V68.4994V68.4481V68.3968V68.3455V68.2943V68.243V68.1917V68.1405V68.0892V68.038V67.9867V67.9355V67.8842V67.833V67.7818V67.7306V67.6794V67.6282V67.577V67.5258V67.4747V67.4235V67.3724V67.3212V67.2701V67.219V67.1679V67.1168V67.0657V67.0147V66.9636V66.9126V66.8615V66.8105V66.7595V66.7085V66.6575V66.6066V66.5556V66.5047V66.4537V66.4028V66.3519V66.3011V66.2502V66.1994V66.1485V66.0977V66.0469V65.9961V65.9454V65.8946V65.8439V65.7932V65.7425V65.6918V65.6412V65.5905V65.5399V65.4893V65.4387V65.3882V65.3376V65.2871V65.2366V65.1861V65.1357V65.0853V65.0348V64.9845V64.9341V64.8838V64.8334V64.7831V64.7329V64.6826V64.6324V64.5822V64.532V64.4819V64.4317V64.3816V64.3316V64.2815V64.2315V64.1815V64.1315V64.0816V64.0317V63.9818V63.9319V63.8821V63.8323V63.7825V63.7328V63.683V63.6334V63.5837V63.5341V63.4845V63.4349V63.3854V63.3359V63.2864V63.2369V63.1875V63.1381V63.0888V63.0395V62.9902V62.9409V62.8917V62.8425V62.7934V62.7443V62.6952V62.6462V62.5971V62.5482V62.4992V62.4503V62.4015V62.3526V62.3038V62.2551V62.2063V62.1577V62.109V62.0604V62.0118V61.9633V61.9148V61.8663V61.8179V61.7696V61.7212V61.6729V61.6247V61.5764V61.5283V61.4801V61.432V61.384V61.336V61.288V61.2401V61.1922V61.1444V61.0966V61.0488V61.0011V60.9534V60.9058V60.8582V60.8107V60.7632V60.7158V60.6684V60.621V60.5737V60.5264V60.4792V60.4321V60.3849V60.3379V60.2908V60.2439V60.1969V60.1501V60.1032V60.0564V60.0097V59.963V59.9164V59.8698V59.8233V59.7768V59.7304V59.684V59.6376V59.5914V59.5451V59.499V59.4528V59.4068V59.3608V59.3148V59.2689V59.223V59.1772V59.1315V59.0858V59.0401V58.9945V58.949V58.9035V58.8581V58.8128V58.7675V58.7222V58.677V58.6319V58.5868V58.5418V58.4968V58.4519V58.4071V58.3623V58.3176V58.2729V58.2283V58.1837V58.1392V58.0948V58.0504V58.0061V57.9619V57.9177V57.8736V57.8295V57.7855V57.7416V57.6977V57.6539V57.6102V57.5665V57.5229V57.4793V57.4358V57.3924V57.349V57.3057V57.2625V57.2193V57.1762V57.1332V57.0902V57.0473V57.0045V56.9617V56.919V56.8764V56.8338V56.7913V56.7489V56.7065V56.6642V56.622V56.5799V56.5378V56.4958V56.4538V56.4119V56.3701V56.3284V56.2868V56.2452V56.2037V56.1622V56.1209V56.0796V56.0383V55.9972Z" fill="white" stroke="#B8C0CC" stroke-width="2"/>
<path d="M175 80.9999L29 81.0044" stroke="#B8C0CC" stroke-width="2" stroke-linecap="round"/>
<path d="M58.8462 41.5383V58.846" stroke="#B8C0CC" stroke-width="2" stroke-linecap="round"/>
<path d="M145.385 41.5383V58.846" stroke="#B8C0CC" stroke-width="2" stroke-linecap="round"/>
<circle cx="62.3077" cy="105.577" r="9.38461" fill="white" stroke="#B8C0CC" stroke-width="2"/>
<circle cx="62.3077" cy="140.192" r="10.3846" fill="#53A1FF"/>
<circle cx="102.115" cy="105.577" r="9.38461" fill="white" stroke="#B8C0CC" stroke-width="2"/>
<circle cx="102.115" cy="140.192" r="9.38461" fill="white" stroke="#B8C0CC" stroke-width="2"/>
<circle cx="141.923" cy="105.577" r="9.38461" fill="white" stroke="#B8C0CC" stroke-width="2"/>
<circle cx="141.923" cy="140.192" r="9.38461" fill="white" stroke="#B8C0CC" stroke-width="2"/>
</svg>
