<svg width="180" height="180" viewBox="0 0 180 180" fill="none" xmlns="http://www.w3.org/2000/svg">
<circle cx="90" cy="90" r="90" fill="#F0F4F7"/>
<path d="M31 51.2267C31 47.3615 34.1333 44.2312 38 44.2312H141.818C145.684 44.2312 148.818 47.3652 148.818 51.2312V69.7578V134C148.818 137.866 145.684 141 141.818 141H38C34.1308 141 31 137.882 31 134.02V133.938V133.855V133.773V133.69V133.606V133.522V133.438V133.354V133.269V133.184V133.099V133.013V132.927V132.84V132.753V132.666V132.579V132.491V132.403V132.314V132.226V132.136V132.047V131.957V131.867V131.777V131.686V131.595V131.503V131.412V131.319V131.227V131.134V131.041V130.948V130.854V130.76V130.666V130.572V130.477V130.381V130.286V130.19V130.094V129.997V129.901V129.804V129.706V129.609V129.511V129.412V129.314V129.215V129.116V129.016V128.917V128.817V128.716V128.616V128.515V128.414V128.312V128.21V128.108V128.006V127.903V127.801V127.697V127.594V127.49V127.386V127.282V127.177V127.072V126.967V126.862V126.756V126.65V126.544V126.438V126.331V126.224V126.117V126.009V125.901V125.793V125.685V125.576V125.468V125.358V125.249V125.14V125.03V124.92V124.809V124.699V124.588V124.477V124.365V124.254V124.142V124.03V123.917V123.805V123.692V123.579V123.465V123.352V123.238V123.124V123.01V122.895V122.781V122.666V122.551V122.435V122.319V122.204V122.087V121.971V121.855V121.738V121.621V121.504V121.386V121.268V121.151V121.032V120.914V120.796V120.677V120.558V120.439V120.319V120.2V120.08V119.96V119.84V119.719V119.599V119.478V119.357V119.236V119.114V118.993V118.871V118.749V118.627V118.504V118.382V118.259V118.136V118.013V117.889V117.766V117.642V117.518V117.394V117.27V117.145V117.02V116.896V116.77V116.645V116.52V116.394V116.269V116.143V116.017V115.89V115.764V115.637V115.511V115.384V115.256V115.129V115.002V114.874V114.746V114.618V114.49V114.362V114.234V114.105V113.976V113.848V113.719V113.589V113.46V113.331V113.201V113.071V112.941V112.811V112.681V112.551V112.42V112.289V112.159V112.028V111.897V111.765V111.634V111.503V111.371V111.239V111.107V110.975V110.843V110.711V110.578V110.446V110.313V110.18V110.047V109.914V109.781V109.648V109.515V109.381V109.247V109.114V108.98V108.846V108.712V108.577V108.443V108.309V108.174V108.039V107.905V107.77V107.635V107.5V107.365V107.229V107.094V106.958V106.823V106.687V106.551V106.415V106.279V106.143V106.007V105.871V105.735V105.598V105.462V105.325V105.188V105.052V104.915V104.778V104.641V104.504V104.366V104.229V104.092V103.954V103.817V103.679V103.542V103.404V103.266V103.128V102.99V102.852V102.714V102.576V102.438V102.3V102.162V102.023V101.885V101.746V101.608V101.469V101.33V101.192V101.053V100.914V100.775V100.636V100.497V100.358V100.219V100.08V99.9407V99.8015V99.6622V99.5229V99.3836V99.2442V99.1048V98.9653V98.8258V98.6862V98.5467V98.4071V98.2674V98.1277V97.988V97.8483V97.7085V97.5687V97.4289V97.2891V97.1492V97.0093V96.8694V96.7295V96.5895V96.4495V96.3095V96.1695V96.0295V95.8895V95.7494V95.6093V95.4692V95.3292V95.1891V95.049V94.9088V94.7687V94.6286V94.4885V94.3483V94.2082V94.0681V93.9279V93.7878V93.6477V93.5075V93.3674V93.2273V93.0872V92.9471V92.807V92.6669V92.5268V92.3867V92.2467V92.1066V91.9666V91.8266V91.6866V91.5466V91.4067V91.2668V91.1269V90.987V90.8471V90.7073V90.5674V90.4277V90.2879V90.1482V90.0085V89.8688V89.7292V89.5895V89.45V89.3104V89.1709V89.0315V88.8921V88.7527V88.6133V88.474V88.3348V88.1956V88.0564V87.9173V87.7782V87.6392V87.5002V87.3612V87.2224V87.0835V86.9448V86.806V86.6674V86.5288V86.3902V86.2517V86.1133V85.9749V85.8366V85.6984V85.5602V85.4221V85.284V85.146V85.0081V84.8703V84.7325V84.5948V84.4572V84.3196V84.1821V84.0447V83.9074V83.7702V83.633V83.4959V83.3589V83.2219V83.0851V82.9483V82.8117V82.6751V82.5386V82.4022V82.2658V82.1296V81.9935V81.8574V81.7214V81.5856V81.4498V81.3141V81.1786V81.0431V80.9077V80.7725V80.6373V80.5022V80.3673V80.2324V80.0977V79.963V79.8285V79.6941V79.5598V79.4256V79.2915V79.1575V79.0237V78.8899V78.7563V78.6228V78.4894V78.3562V78.223V78.09V77.9571V77.8243V77.6917V77.5592V77.4268V77.2945V77.1624V77.0304V76.8985V76.7668V76.6352V76.5037V76.3724V76.2412V76.1101V75.9792V75.8485V75.7178V75.5873V75.457V75.3268V75.1967V75.0668V74.9371V74.8075V74.678V74.5487V74.4196V74.2906V74.1617V74.033V73.9045V73.7761V73.6479V73.5198V73.3919V73.2642V73.1366V73.0092V72.882V72.7549V72.628V72.5013V72.3747V72.2483V72.1221V71.996V71.8701V71.7444V71.6189V71.4935V71.3684V71.2434V71.1185V70.9939V70.8695V70.7452V70.6211V70.4972V70.3735V70.25V70.1266V70.0035V69.8805V69.7578V69.7251V69.6924V69.6597V69.627V69.5942V69.5613V69.5284V69.4955V69.4626V69.4296V69.3965V69.3634V69.3303V69.2971V69.2639V69.2307V69.1974V69.1641V69.1307V69.0973V69.0639V69.0304V68.9969V68.9633V68.9297V68.8961V68.8624V68.8287V68.795V68.7612V68.7274V68.6935V68.6597V68.6257V68.5918V68.5578V68.5237V68.4897V68.4556V68.4214V68.3872V68.353V68.3188V68.2845V68.2502V68.2158V68.1814V68.147V68.1126V68.0781V68.0436V68.009V67.9744V67.9398V67.9051V67.8705V67.8357V67.801V67.7662V67.7314V67.6965V67.6616V67.6267V67.5918V67.5568V67.5218V67.4868V67.4517V67.4166V67.3815V67.3463V67.3111V67.2759V67.2406V67.2054V67.17V67.1347V67.0993V67.0639V67.0285V66.9931V66.9576V66.9221V66.8865V66.8509V66.8153V66.7797V66.7441V66.7084V66.6727V66.6369V66.6012V66.5654V66.5296V66.4937V66.4579V66.422V66.386V66.3501V66.3141V66.2781V66.2421V66.206V66.17V66.1339V66.0977V66.0616V66.0254V65.9892V65.953V65.9168V65.8805V65.8442V65.8079V65.7715V65.7352V65.6988V65.6624V65.626V65.5895V65.553V65.5165V65.48V65.4435V65.4069V65.3703V65.3337V65.2971V65.2605V65.2238V65.1871V65.1504V65.1137V65.0769V65.0401V65.0034V64.9665V64.9297V64.8929V64.856V64.8191V64.7822V64.7453V64.7083V64.6714V64.6344V64.5974V64.5604V64.5234V64.4863V64.4492V64.4122V64.3751V64.3379V64.3008V64.2637V64.2265V64.1893V64.1521V64.1149V64.0777V64.0404V64.0031V63.9659V63.9286V63.8913V63.8539V63.8166V63.7793V63.7419V63.7045V63.6671V63.6297V63.5923V63.5549V63.5174V63.4799V63.4425V63.405V63.3675V63.33V63.2924V63.2549V63.2174V63.1798V63.1422V63.1047V63.0671V63.0295V62.9918V62.9542V62.9166V62.8789V62.8413V62.8036V62.7659V62.7282V62.6905V62.6528V62.6151V62.5774V62.5396V62.5019V62.4641V62.4264V62.3886V62.3508V62.313V62.2753V62.2375V62.1996V62.1618V62.124V62.0862V62.0483V62.0105V61.9726V61.9348V61.8969V61.859V61.8212V61.7833V61.7454V61.7075V61.6696V61.6317V61.5938V61.5559V61.518V61.4801V61.4421V61.4042V61.3663V61.3283V61.2904V61.2524V61.2145V61.1765V61.1386V61.1006V61.0627V61.0247V60.9867V60.9488V60.9108V60.8728V60.8349V60.7969V60.7589V60.7209V60.683V60.645V60.607V60.569V60.531V60.4931V60.4551V60.4171V60.3791V60.3411V60.3032V60.2652V60.2272V60.1892V60.1513V60.1133V60.0753V60.0374V59.9994V59.9614V59.9235V59.8855V59.8475V59.8096V59.7716V59.7337V59.6957V59.6578V59.6199V59.5819V59.544V59.5061V59.4681V59.4302V59.3923V59.3544V59.3165V59.2786V59.2407V59.2028V59.1649V59.1271V59.0892V59.0513V59.0135V58.9756V58.9378V58.8999V58.8621V58.8243V58.7864V58.7486V58.7108V58.673V58.6352V58.5975V58.5597V58.5219V58.4842V58.4464V58.4087V58.3709V58.3332V58.2955V58.2578V58.2201V58.1824V58.1448V58.1071V58.0695V58.0318V57.9942V57.9566V57.919V57.8814V57.8438V57.8062V57.7686V57.7311V57.6935V57.656V57.6185V57.581V57.5435V57.506V57.4686V57.4311V57.3937V57.3562V57.3188V57.2814V57.2441V57.2067V57.1693V57.132V57.0947V57.0573V57.02V56.9828V56.9455V56.9082V56.871V56.8338V56.7966V56.7594V56.7222V56.6851V56.6479V56.6108V56.5737V56.5366V56.4995V56.4625V56.4254V56.3884V56.3514V56.3144V56.2775V56.2405V56.2036V56.1667V56.1298V56.0929V56.0561V56.0192V55.9824V55.9456V55.9088V55.8721V55.8354V55.7986V55.7619V55.7253V55.6886V55.652V55.6154V55.5788V55.5422V55.5057V55.4691V55.4326V55.3962V55.3597V55.3233V55.2868V55.2505V55.2141V55.1777V55.1414V55.1051V55.0688V55.0326V54.9964V54.9602V54.924V54.8878V54.8517V54.8156V54.7795V54.7434V54.7074V54.6714V54.6354V54.5995V54.5635V54.5276V54.4918V54.4559V54.4201V54.3843V54.3485V54.3128V54.277V54.2414V54.2057V54.1701V54.1345V54.0989V54.0633V54.0278V53.9923V53.9568V53.9214V53.886V53.8506V53.8153V53.7799V53.7447V53.7094V53.6742V53.639V53.6038V53.5687V53.5335V53.4985V53.4634V53.4284V53.3934V53.3585V53.3235V53.2886V53.2538V53.219V53.1842V53.1494V53.1147V53.08V53.0453V53.0107V52.9761V52.9415V52.907V52.8725V52.838V52.8036V52.7692V52.7348V52.7005V52.6662V52.632V52.5977V52.5635V52.5294V52.4953V52.4612V52.4271V52.3931V52.3592V52.3252V52.2913V52.2575V52.2236V52.1898V52.1561V52.1224V52.0887V52.0551V52.0215V51.9879V51.9544V51.9209V51.8874V51.854V51.8206V51.7873V51.754V51.7207V51.6875V51.6544V51.6212V51.5881V51.5551V51.522V51.4891V51.4561V51.4232V51.3904V51.3576V51.3248V51.2921V51.2594V51.2267Z" fill="white" stroke="#B8C0CC" stroke-width="2"/>
<path d="M149.008 69.9473L30.8093 69.9509" stroke="#B8C0CC" stroke-width="2" stroke-linecap="round"/>
<path d="M54.9723 38V52.012" stroke="#B8C0CC" stroke-width="2" stroke-linecap="round"/>
<path d="M125.033 38V52.012" stroke="#B8C0CC" stroke-width="2" stroke-linecap="round"/>
<circle cx="57.7745" cy="89.8442" r="7.40718" fill="white" stroke="#B8C0CC" stroke-width="2"/>
<circle cx="57.7745" cy="117.868" r="8.40718" fill="#53A1FF"/>
<circle cx="90.0022" cy="89.8442" r="7.40718" fill="white" stroke="#B8C0CC" stroke-width="2"/>
<circle cx="90.0022" cy="117.868" r="7.40718" fill="white" stroke="#B8C0CC" stroke-width="2"/>
<circle cx="122.23" cy="89.8442" r="7.40718" fill="white" stroke="#B8C0CC" stroke-width="2"/>
<circle cx="122.23" cy="117.868" r="7.40718" fill="white" stroke="#B8C0CC" stroke-width="2"/>
</svg>
