<svg width="106" height="105" viewBox="0 0 106 105" fill="none" xmlns="http://www.w3.org/2000/svg">
<path d="M73.2144 98.1295C73.6227 98.7958 73.1433 99.652 72.3617 99.652H13.6382C12.8567 99.652 12.3772 98.7958 12.7856 98.1295L42.1474 50.2234C42.5375 49.5869 43.4624 49.5869 43.8526 50.2234L73.2144 98.1295Z" fill="white" stroke="#53A1FF" stroke-width="2"/>
<mask id="path-2-inside-1" fill="white">
<path fill-rule="evenodd" clip-rule="evenodd" d="M54 84.3478V100H38V84.3478C38 79.7374 41.5817 76 46 76C50.4183 76 54 79.7374 54 84.3478Z"/>
</mask>
<path fill-rule="evenodd" clip-rule="evenodd" d="M54 84.3478V100H38V84.3478C38 79.7374 41.5817 76 46 76C50.4183 76 54 79.7374 54 84.3478Z" fill="white"/>
<path d="M54 100V102H56V100H54ZM38 100H36V102H38V100ZM52 84.3478V100H56V84.3478H52ZM54 98H38V102H54V98ZM40 100V84.3478H36V100H40ZM40 84.3478C40 80.7609 42.7657 78 46 78V74C40.3978 74 36 78.714 36 84.3478H40ZM46 78C49.2343 78 52 80.7609 52 84.3478H56C56 78.714 51.6022 74 46 74V78Z" fill="#53A1FF" mask="url(#path-2-inside-1)"/>
<path d="M19.821 99.652H11.9248L36.9295 61.7638L19.821 99.652Z" fill="white" stroke="#53A1FF" stroke-width="2"/>
<path d="M1 101C1 99.8954 1.89543 99 3 99H103C104.105 99 105 99.8954 105 101V102C105 103.105 104.105 104 103 104H3C1.89543 104 1 103.105 1 102V101Z" fill="white" stroke="#B8C0CC" stroke-width="2"/>
<path d="M37.3076 15.3815L37.3043 15.3643L37.3004 15.3473C35.8485 9.01157 39.8036 2.69799 46.1363 1.23895C46.2922 1.20798 46.4185 1.25292 46.5379 1.41295C46.6774 1.59992 46.7567 1.90414 46.6841 2.21405C46.2096 4.23926 46.1827 6.35547 46.6197 8.41209C47.6756 13.7384 51.6961 17.8558 56.7744 19.1673C57.2051 19.2785 57.546 19.5669 57.7043 19.8666C57.8464 20.1357 57.8295 20.3605 57.6696 20.5672C56.0494 22.6615 53.728 24.1493 51.0846 24.7221C44.7025 25.9422 38.5369 21.7631 37.3076 15.3815Z" fill="white" stroke="#53A1FF" stroke-width="2"/>
<path d="M38.0408 18.6687H38.0482L38.0557 18.6686C38.1181 18.6677 38.1804 18.6677 38.2428 18.6686C41.4598 18.7203 44.0259 21.3696 43.9747 24.5866C43.9234 27.8037 41.2738 30.3701 38.0567 30.3188L38.0487 30.3187H38.0408H19.4986C19.3971 30.2681 19.2863 30.2332 19.1694 30.2173L19.1694 30.2173C13.6757 29.4719 9.56472 24.7953 9.53399 19.2468C9.49999 13.0982 14.4569 8.08622 20.6055 8.05202L20.6253 8.05191L20.6452 8.05102C25.7504 7.82003 30.1958 11.2657 31.3661 16.0821C31.6981 17.4487 32.8808 18.6687 34.4765 18.6687H38.0408Z" fill="white" stroke="#B8C0CC" stroke-width="2"/>
<path d="M85 26C85 24.8954 85.8954 24 87 24C88.1046 24 89 24.8954 89 26V100C89 101.105 88.1046 102 87 102C85.8954 102 85 101.105 85 100V26Z" fill="white" stroke="#B8C0CC" stroke-width="2"/>
<path d="M99.3198 49.6097C98.5406 50.3801 97.2866 50.3801 96.5074 49.6097L88.4062 41.5996C87.627 40.8292 86.373 40.8292 85.5938 41.5996L77.4926 49.6097C76.7134 50.3801 75.4594 50.3801 74.6802 49.6097L74.4384 49.3706C73.6466 48.5877 73.6466 47.309 74.4384 46.5262L85.4568 35.6319C86.3092 34.7894 87.6908 34.7894 88.5432 35.6319L99.5616 46.5262C100.353 47.309 100.353 48.5877 99.5616 49.3706L99.3198 49.6097Z" fill="white" stroke="#B8C0CC" stroke-width="2"/>
<path d="M99.3198 36.6097C98.5406 37.3801 97.2866 37.3801 96.5074 36.6097L88.4062 28.5996C87.627 27.8292 86.373 27.8292 85.5938 28.5996L77.4926 36.6097C76.7134 37.3801 75.4594 37.3801 74.6802 36.6097L74.4384 36.3706C73.6466 35.5877 73.6466 34.309 74.4384 33.5262L85.4568 22.6319C86.3092 21.7894 87.6908 21.7894 88.5432 22.6319L99.5616 33.5262C100.353 34.309 100.353 35.5877 99.5616 36.3706L99.3198 36.6097Z" fill="white" stroke="#B8C0CC" stroke-width="2"/>
<path d="M99.3198 62.6097C98.5406 63.3801 97.2866 63.3801 96.5074 62.6097L88.4062 54.5996C87.627 53.8292 86.373 53.8292 85.5938 54.5996L77.4926 62.6097C76.7134 63.3801 75.4594 63.3801 74.6802 62.6097L74.4384 62.3706C73.6466 61.5878 73.6466 60.309 74.4384 59.5262L85.4568 48.6319C86.3092 47.7894 87.6908 47.7894 88.5432 48.6319L99.5616 59.5262C100.353 60.309 100.353 61.5878 99.5616 62.3706L99.3198 62.6097Z" fill="white" stroke="#B8C0CC" stroke-width="2"/>
<path d="M99.3622 76.4782C98.574 77.3062 97.2532 77.3062 96.465 76.4782L88.4486 68.0567C87.6604 67.2286 86.3396 67.2286 85.5514 68.0567L77.535 76.4782C76.7468 77.3062 75.426 77.3062 74.6377 76.4782L74.3126 76.1366C73.5774 75.3643 73.5774 74.151 74.3126 73.3787L85.4568 61.6714C86.3092 60.7762 87.6908 60.7762 88.5432 61.6714L99.6874 73.3787C100.423 74.151 100.423 75.3643 99.6874 76.1366L99.3622 76.4782Z" fill="white" stroke="#B8C0CC" stroke-width="2"/>
</svg>
