<svg width="104" height="104" viewBox="0 0 104 104" fill="none" xmlns="http://www.w3.org/2000/svg">
<path d="M72 36L95 68.7778V92" stroke="#B8C0CC" stroke-width="2" stroke-linecap="round"/>
<path d="M73 37L77 43" stroke="#53A1FF" stroke-width="6" stroke-linecap="round"/>
<circle cx="52" cy="20" r="19" fill="white" stroke="#53A1FF" stroke-width="2"/>
<path d="M15 86C15 65.5655 31.5655 49 52 49C72.4345 49 89 65.5655 89 86V89.6667C89 90.9553 87.9553 92 86.6667 92H17.3333C16.0447 92 15 90.9553 15 89.6667V86Z" fill="white" stroke="#53A1FF" stroke-width="2"/>
<path d="M1 99C1 98.4477 1.44772 98 2 98H102C102.552 98 103 98.4477 103 99V102C103 102.552 102.552 103 102 103H2C1.44772 103 1 102.552 1 102V99Z" fill="white" stroke="#53A1FF" stroke-width="2"/>
<path d="M11.5 38V64.5" stroke="#B8C0CC" stroke-width="2" stroke-linecap="round"/>
<circle cx="12" cy="36" r="11" fill="white" stroke="#B8C0CC" stroke-width="2"/>
<path d="M11.94 42.194H12.85V41.046C14.74 40.878 15.776 39.562 15.776 38.204C15.776 36.23 14.25 35.852 12.85 35.516V32.492C13.522 32.66 13.914 33.178 13.97 33.738H15.678C15.552 32.156 14.46 31.274 12.85 31.134V30H11.94V31.148C10.204 31.302 9 32.38 9 33.948C9 35.922 10.54 36.314 11.94 36.664V39.744C11.156 39.604 10.764 39.086 10.708 38.386H9C9 39.968 10.232 40.906 11.94 41.06V42.194ZM14.166 38.288C14.166 39.016 13.69 39.604 12.85 39.744V36.902C13.606 37.14 14.166 37.49 14.166 38.288ZM10.624 33.864C10.624 33.01 11.17 32.548 11.94 32.45V35.278C11.184 35.04 10.624 34.676 10.624 33.864Z" fill="#53A1FF"/>
</svg>
