<svg width="570" height="384" viewBox="0 0 570 384" fill="none" xmlns="http://www.w3.org/2000/svg">
<path opacity="0.1" d="M47.4994 352C38.939 352 30.7778 348.386 25.9567 341.312C8.20726 315.27 -27.6355 245.685 37.3937 177.89C128.58 82.8601 204.68 191.49 233.678 173.021C277.427 145.15 299.385 21.9132 424.263 38.5351C577.972 59.0186 545.788 188.3 534.055 231.953C524.997 265.523 580.251 286.972 568.298 335.061C565.602 345.911 554.701 352 543.521 352H47.4994Z" fill="#B8C0CC"/>
<rect x="108" y="89" width="366" height="262" rx="15" fill="white" stroke="#EAEFF4" stroke-width="2"/>
<path d="M108 104C108 95.7157 114.716 89 123 89H459C467.284 89 474 95.7157 474 104V120C474 123.866 470.866 127 467 127H115C111.134 127 108 123.866 108 120V104Z" fill="white" stroke="#EAEFF4" stroke-width="2"/>
<path opacity="0.4" d="M439 120.5C445.904 120.5 451.5 114.904 451.5 108C451.5 101.096 445.904 95.5 439 95.5C432.096 95.5 426.5 101.096 426.5 108C426.5 114.904 432.096 120.5 439 120.5Z" fill="white" stroke="#B8C0CC"/>
<path d="M439 98C433.48 98 429 102.48 429 108C429 113.52 433.48 118 439 118C444.52 118 449 113.52 449 108C449 102.48 444.52 98 439 98ZM439 101C440.66 101 442 102.34 442 104C442 105.66 440.66 107 439 107C437.34 107 436 105.66 436 104C436 102.34 437.34 101 439 101ZM439 115.2C436.5 115.2 434.29 113.92 433 111.98C433.03 109.99 437 108.9 439 108.9C440.99 108.9 444.97 109.99 445 111.98C443.71 113.92 441.5 115.2 439 115.2Z" fill="#B8C0CC"/>
<rect opacity="0.4" x="379" y="100" width="32" height="16" rx="8" fill="#B8C0CC"/>
<rect opacity="0.4" x="339" y="100" width="32" height="16" rx="8" fill="#B8C0CC"/>
<rect opacity="0.4" x="299" y="100" width="32" height="16" rx="8" fill="#B8C0CC"/>
<rect opacity="0.4" x="129" y="100" width="32" height="16" rx="8" fill="#B8C0CC"/>
<mask id="mask0" mask-type="alpha" maskUnits="userSpaceOnUse" x="179" y="208" width="97" height="96">
<rect x="180" y="209" width="94" height="94" rx="11" fill="white" stroke="#EAEFF4" stroke-width="2"/>
</mask>
<g mask="url(#mask0)">
<path d="M263.041 251.394C263.65 249.147 265.966 247.819 268.215 248.427C270.464 249.035 271.794 251.348 271.186 253.595C270.577 255.841 268.261 257.169 266.011 256.562C263.762 255.954 262.433 253.64 263.041 251.394Z" fill="#B8C0CC"/>
<path d="M245.731 272.56C245.731 272.56 263.048 272.469 267.104 252.526" stroke="#B8C0CC" stroke-width="1.8833" stroke-miterlimit="10" stroke-linecap="round" stroke-linejoin="round"/>
<path d="M210.856 230.5C216.025 230.5 221.144 231.505 225.92 233.458C230.695 235.412 235.035 238.275 238.69 241.884C242.345 245.493 245.244 249.778 247.222 254.493C249.201 259.209 250.219 264.263 250.219 269.367C250.219 274.506 249.194 279.595 247.202 284.343C245.211 289.091 242.292 293.405 238.612 297.038C234.932 300.672 230.563 303.555 225.755 305.521C220.947 307.488 215.793 308.5 210.589 308.5H177.607C176.769 308.5 175.939 308.337 175.165 308.02C174.391 307.704 173.688 307.24 173.095 306.655C172.503 306.07 172.033 305.375 171.712 304.611C171.391 303.846 171.226 303.027 171.226 302.199V269.632C171.226 259.254 175.401 249.3 182.834 241.962C190.266 234.623 200.346 230.5 210.856 230.5V230.5Z" fill="white"/>
<path opacity="0.1" d="M210.837 230.5C212.903 230.5 214.966 230.66 217.006 230.977C200.779 230.603 178.726 242.385 178.726 269.43V302.989C178.731 304.449 179.323 305.849 180.374 306.881C181.424 307.914 182.848 308.496 184.334 308.5H176.833C175.347 308.496 173.924 307.914 172.873 306.881C171.823 305.848 171.23 304.449 171.226 302.989V269.43C171.257 259.114 175.44 249.23 182.862 241.936C190.284 234.642 200.341 230.53 210.837 230.5Z" fill="#B8C0CC"/>
<path d="M217.904 261.879C217.904 260.928 218.282 260.016 218.955 259.344C219.629 258.671 220.542 258.293 221.494 258.293C222.447 258.293 223.36 258.671 224.033 259.344C224.707 260.016 225.085 260.928 225.085 261.879" stroke="#B8C0CC" stroke-width="1.883" stroke-linecap="round" stroke-linejoin="round"/>
<path d="M234.959 261.879C234.959 260.928 235.337 260.016 236.011 259.344C236.684 258.671 237.597 258.293 238.549 258.293C239.502 258.293 240.415 258.671 241.088 259.344C241.762 260.016 242.14 260.928 242.14 261.879" stroke="#B8C0CC" stroke-width="1.883" stroke-linecap="round" stroke-linejoin="round"/>
<path d="M210.856 230.5C216.025 230.5 221.144 231.505 225.92 233.458C230.695 235.412 235.035 238.275 238.69 241.884C242.345 245.493 245.244 249.778 247.222 254.493C249.201 259.209 250.219 264.263 250.219 269.367V269.367C250.219 274.506 249.194 279.595 247.202 284.343C245.211 289.091 242.292 293.405 238.612 297.038C234.932 300.672 230.563 303.555 225.755 305.521C220.947 307.488 215.793 308.5 210.589 308.5H177.607C176.769 308.5 175.939 308.337 175.165 308.02C174.391 307.704 173.688 307.24 173.095 306.655C172.503 306.07 172.033 305.375 171.712 304.61C171.391 303.846 171.226 303.027 171.226 302.199V269.632C171.226 259.254 175.401 249.3 182.834 241.962C190.266 234.623 200.346 230.5 210.856 230.5V230.5Z" stroke="#B8C0CC" stroke-width="1.883" stroke-linecap="round" stroke-linejoin="round"/>
<path d="M217.455 272.638C224.148 272.638 229.573 267.219 229.573 260.534C229.573 253.85 224.148 248.431 217.455 248.431C210.762 248.431 205.337 253.85 205.337 260.534C205.337 267.219 210.762 272.638 217.455 272.638Z" stroke="#B8C0CC" stroke-width="1.8833" stroke-miterlimit="10" stroke-linecap="round" stroke-linejoin="round"/>
<path d="M241.243 272.638C247.687 272.638 252.912 267.219 252.912 260.534C252.912 253.85 247.687 248.431 241.243 248.431C234.798 248.431 229.573 253.85 229.573 260.534C229.573 267.219 234.798 272.638 241.243 272.638Z" stroke="#B8C0CC" stroke-width="1.8833" stroke-miterlimit="10" stroke-linecap="round" stroke-linejoin="round"/>
<rect x="180" y="209" width="94" height="94" rx="11" stroke="#EAEFF4" stroke-width="2"/>
</g>
<path d="M208.521 157.31C204.993 157.31 202.221 159.956 202.221 163.718C202.221 167.48 204.993 170.108 208.521 170.108C211.923 170.108 214.389 167.606 214.677 164.492V163.232H207.927V164.564H212.931C212.679 167.048 210.987 168.632 208.521 168.632C205.875 168.632 203.895 166.724 203.895 163.718C203.895 160.694 205.875 158.786 208.521 158.786C210.285 158.786 211.653 159.632 212.337 161.09H214.299C213.363 158.678 211.167 157.31 208.521 157.31ZM216.843 170H218.481V156.68H216.843V170ZM230.633 165.05C230.633 161.936 228.455 159.974 225.647 159.974C222.857 159.974 220.661 161.936 220.661 165.05C220.661 168.182 222.785 170.162 225.575 170.162C228.383 170.162 230.633 168.182 230.633 165.05ZM222.335 165.05C222.335 162.566 223.901 161.396 225.629 161.396C227.321 161.396 228.959 162.566 228.959 165.05C228.959 167.552 227.285 168.722 225.575 168.722C223.865 168.722 222.335 167.552 222.335 165.05ZM234.425 161.972V156.68H232.787V170H234.425V168.182C235.037 169.262 236.315 170.162 238.115 170.162C240.761 170.162 242.795 168.092 242.795 165.032C242.795 161.954 240.779 159.974 238.115 159.974C236.369 159.974 235.055 160.874 234.425 161.972ZM241.121 165.032C241.121 167.354 239.591 168.722 237.773 168.722C235.991 168.722 234.425 167.372 234.425 165.05C234.425 162.764 235.991 161.396 237.773 161.396C239.591 161.396 241.121 162.71 241.121 165.032ZM244.339 165.032C244.339 168.092 246.373 170.162 249.001 170.162C250.819 170.162 252.097 169.226 252.691 168.164V170H254.347V160.136H252.691V161.936C252.115 160.91 250.855 159.974 249.019 159.974C246.373 159.974 244.339 161.954 244.339 165.032ZM252.691 165.05C252.691 167.372 251.143 168.722 249.343 168.722C247.543 168.722 246.013 167.354 246.013 165.032C246.013 162.71 247.543 161.396 249.343 161.396C251.143 161.396 252.691 162.764 252.691 165.05ZM257.115 170H258.753V156.68H257.115V170ZM265.569 158.786H269.007V170H270.645V158.786H274.065V157.454H265.569V158.786ZM280.275 161.36C281.967 161.36 283.407 162.422 283.389 164.348H277.161C277.341 162.422 278.673 161.36 280.275 161.36ZM284.883 166.958H283.119C282.759 168.02 281.823 168.776 280.347 168.776C278.673 168.776 277.269 167.678 277.143 165.68H285.027C285.063 165.338 285.081 165.05 285.081 164.69C285.081 161.99 283.209 159.974 280.347 159.974C277.467 159.974 275.469 161.936 275.469 165.05C275.469 168.182 277.539 170.162 280.347 170.162C282.795 170.162 284.379 168.758 284.883 166.958ZM286.632 165.05C286.632 168.182 288.63 170.162 291.438 170.162C293.886 170.162 295.488 168.794 295.992 166.832H294.228C293.868 168.074 292.896 168.776 291.438 168.776C289.638 168.776 288.306 167.498 288.306 165.05C288.306 162.638 289.638 161.36 291.438 161.36C292.896 161.36 293.886 162.116 294.228 163.304H295.992C295.488 161.234 293.886 159.974 291.438 159.974C288.63 159.974 286.632 161.954 286.632 165.05ZM298.177 170H299.815V164.546C299.815 162.422 300.967 161.378 302.641 161.378C304.297 161.378 305.395 162.404 305.395 164.42V170H307.015V164.186C307.015 161.36 305.269 159.956 303.073 159.956C301.687 159.956 300.463 160.514 299.815 161.558V156.68H298.177V170ZM313.878 163.718C313.878 167.48 316.632 170.108 320.142 170.108C322.86 170.108 325.02 168.758 325.956 166.346H323.994C323.31 167.84 321.978 168.686 320.142 168.686C317.514 168.686 315.552 166.778 315.552 163.718C315.552 160.64 317.514 158.732 320.142 158.732C321.978 158.732 323.31 159.578 323.994 161.09H325.956C325.02 158.66 322.86 157.292 320.142 157.292C316.632 157.292 313.878 159.956 313.878 163.718ZM337.754 165.05C337.754 161.936 335.576 159.974 332.768 159.974C329.978 159.974 327.782 161.936 327.782 165.05C327.782 168.182 329.906 170.162 332.696 170.162C335.504 170.162 337.754 168.182 337.754 165.05ZM329.456 165.05C329.456 162.566 331.022 161.396 332.75 161.396C334.442 161.396 336.08 162.566 336.08 165.05C336.08 167.552 334.406 168.722 332.696 168.722C330.986 168.722 329.456 167.552 329.456 165.05ZM347.126 170H348.746V164.186C348.746 161.36 347 159.956 344.714 159.956C343.382 159.956 342.194 160.514 341.546 161.54V160.136H339.908V170H341.546V164.546C341.546 162.422 342.698 161.378 344.372 161.378C346.028 161.378 347.126 162.404 347.126 164.42V170ZM351.727 170H353.365V161.486H355.435V160.136H353.365V159.434C353.365 158.156 353.851 157.616 355.327 157.616V156.248C352.807 156.248 351.727 157.238 351.727 159.434V160.136H350.449V161.486H351.727V170ZM357.687 161.54L359.415 157.454H357.597L356.535 161.54H357.687ZM360.815 169.856H369.473V168.488H363.281C365.603 166.598 369.095 163.844 369.095 160.604C369.095 158.192 367.511 156.752 365.063 156.752C362.723 156.752 360.977 158.192 360.869 160.964H362.453C362.525 159.326 363.389 158.156 365.081 158.156C366.845 158.156 367.475 159.236 367.475 160.676C367.475 163.34 364.235 165.932 360.815 168.686V169.856ZM371.366 163.358C371.366 167.138 372.302 170 375.902 170C379.484 170 380.42 167.138 380.42 163.358C380.42 159.632 379.484 156.788 375.902 156.788C372.302 156.788 371.366 159.632 371.366 163.358ZM378.8 163.358C378.8 166.166 378.458 168.506 375.902 168.506C373.328 168.506 372.986 166.166 372.986 163.358C372.986 160.658 373.328 158.282 375.902 158.282C378.458 158.282 378.8 160.658 378.8 163.358Z" fill="#979FA5"/>
<rect x="139" y="1" width="273" height="62" rx="7" fill="white" stroke="#EAEFF4" stroke-width="2"/>
<path d="M253.208 35.224C253.208 36.832 252.08 37.768 250.232 37.768H246.536V32.56H250.136C251.96 32.56 253.208 33.568 253.208 35.224ZM252.776 27.952C252.776 29.488 251.696 30.328 249.92 30.328H246.536V25.552H249.92C251.696 25.552 252.776 26.44 252.776 27.952ZM255.944 35.512C255.944 33.52 254.504 31.744 252.728 31.432C254.336 30.856 255.56 29.632 255.56 27.616C255.56 25.264 253.688 23.32 250.16 23.32H243.8V40H250.472C253.88 40 255.944 38.056 255.944 35.512ZM271.517 33.376C271.517 29.224 268.541 26.56 264.773 26.56C261.005 26.56 258.029 29.224 258.029 33.376C258.029 37.528 260.885 40.216 264.653 40.216C268.445 40.216 271.517 37.528 271.517 33.376ZM260.813 33.376C260.813 30.376 262.661 28.936 264.725 28.936C266.765 28.936 268.709 30.376 268.709 33.376C268.709 36.376 266.693 37.84 264.653 37.84C262.589 37.84 260.813 36.376 260.813 33.376ZM286.822 33.376C286.822 29.224 283.846 26.56 280.078 26.56C276.31 26.56 273.334 29.224 273.334 33.376C273.334 37.528 276.19 40.216 279.958 40.216C283.75 40.216 286.822 37.528 286.822 33.376ZM276.118 33.376C276.118 30.376 277.966 28.936 280.03 28.936C282.07 28.936 284.014 30.376 284.014 33.376C284.014 36.376 281.998 37.84 279.958 37.84C277.894 37.84 276.118 36.376 276.118 33.376ZM289.527 40H292.263V34.312L297.159 40H300.855L294.759 33.4L300.855 26.776H297.063L292.263 32.56V22.24H289.527V40ZM308.138 33.328C308.138 37.408 310.898 40.216 314.33 40.216C316.538 40.216 318.122 39.16 318.962 38.032V40H321.722V26.776H318.962V28.696C318.146 27.616 316.61 26.56 314.378 26.56C310.898 26.56 308.138 29.248 308.138 33.328ZM318.962 33.376C318.962 36.232 317.018 37.84 314.954 37.84C312.914 37.84 310.946 36.184 310.946 33.328C310.946 30.472 312.914 28.936 314.954 28.936C317.018 28.936 318.962 30.544 318.962 33.376ZM342.806 35.272C342.806 29.176 333.974 31.528 333.974 27.76C333.974 26.152 335.198 25.384 336.782 25.432C338.51 25.48 339.494 26.512 339.59 27.64H342.614C342.374 24.784 340.118 23.104 336.926 23.104C333.518 23.104 331.19 24.928 331.19 27.856C331.19 34 340.046 31.384 340.046 35.416C340.046 36.832 338.966 37.864 337.046 37.864C335.15 37.864 334.19 36.76 334.07 35.392H331.142C331.142 38.344 333.71 40.168 337.046 40.168C340.766 40.168 342.806 37.768 342.806 35.272ZM351.602 28.864C353.642 28.864 355.25 30.16 355.298 32.2H347.978C348.266 30.112 349.754 28.864 351.602 28.864ZM357.794 36.064H354.842C354.338 37.096 353.402 37.912 351.722 37.912C349.706 37.912 348.146 36.592 347.954 34.408H358.058C358.13 33.952 358.154 33.52 358.154 33.064C358.154 29.176 355.49 26.56 351.722 26.56C347.81 26.56 345.122 29.224 345.122 33.376C345.122 37.528 347.93 40.216 351.722 40.216C354.962 40.216 357.05 38.368 357.794 36.064ZM359.935 33.328C359.935 37.408 362.695 40.216 366.127 40.216C368.335 40.216 369.919 39.16 370.759 38.032V40H373.519V26.776H370.759V28.696C369.943 27.616 368.407 26.56 366.175 26.56C362.695 26.56 359.935 29.248 359.935 33.328ZM370.759 33.376C370.759 36.232 368.815 37.84 366.751 37.84C364.711 37.84 362.743 36.184 362.743 33.328C362.743 30.472 364.711 28.936 366.751 28.936C368.815 28.936 370.759 30.544 370.759 33.376ZM377.545 36.328C377.545 39.016 379.009 40 381.361 40H383.521V37.72H381.841C380.689 37.72 380.305 37.312 380.305 36.328V29.008H383.521V26.776H380.305V23.488H377.545V26.776H375.985V29.008H377.545V36.328Z" fill="#979FA5"/>
<rect x="163" y="9" width="46" height="46" rx="7" fill="white" stroke="#EAEFF4" stroke-width="2"/>
<path d="M181 23.3933L181 23.3933L194.525 32L181 40.6067V23.3933Z" stroke="#53A1FF" stroke-width="4"/>
<path d="M473.186 383.973H514.571C523.638 383.973 530.986 376.624 530.986 367.557V326.173C530.986 296.251 506.735 272 476.813 272H473.173C443.251 272 419 296.251 419 326.173V329.813C419.027 359.721 443.278 383.973 473.186 383.973Z" fill="white"/>
<path opacity="0.4" d="M514.882 328V367.016C514.882 376.381 507.29 383.986 497.911 383.986H514.029C523.408 383.986 531 376.381 531 367.016V328C531 297.077 505.937 272.014 475.014 272.014C472.28 272.014 469.587 272.203 466.961 272.595C494.055 276.493 514.882 299.81 514.882 328Z" fill="#53A1FF" fill-opacity="0.4"/>
<path d="M476.828 274.721C505.206 274.721 528.294 297.808 528.294 326.187V367.571C528.294 375.136 522.15 381.28 514.585 381.28H473.201C444.822 381.28 421.734 358.192 421.734 329.814V326.173C421.734 297.795 444.822 274.707 473.201 274.707H476.828V274.721ZM476.828 272.014H473.187C443.265 272.014 419.014 296.265 419.014 326.187V329.827C419.014 359.749 443.265 384 473.187 384H514.571C523.639 384 530.987 376.652 530.987 367.584V326.2C531.001 296.265 506.749 272.014 476.828 272.014Z" fill="#53A1FF"/>
<path d="M454.335 308.95C454.335 305.607 451.619 302.897 448.268 302.897C444.917 302.897 442.201 305.607 442.201 308.95" stroke="#53A1FF" stroke-width="2" stroke-linecap="round"/>
<path d="M480.6 335.84C479.911 341.542 477.154 354.9 471.64 362.72" stroke="#53A1FF" stroke-width="2" stroke-linecap="round"/>
<ellipse cx="472.2" cy="362.16" rx="5.04" ry="5.04" fill="#53A1FF"/>
<path d="M398.133 304H311.867C309.19 304 307 301.413 307 298.251V213.749C307 210.587 309.19 208 311.867 208H398.133C400.81 208 403 210.587 403 213.749V298.251C403 301.413 400.81 304 398.133 304Z" fill="white" stroke="#EAEFF4" stroke-width="1.8833" stroke-miterlimit="10" stroke-linecap="round" stroke-linejoin="round"/>
<path d="M330.928 303.57H398.128V272.621C398.128 250.125 379.931 231.928 357.435 231.928H357.578C335.226 231.928 316.886 250.125 316.886 272.478V272.621C316.886 284.943 322.331 296.406 330.928 303.57Z" fill="white"/>
<path opacity="0.6" d="M390.963 272.478V303.713H398.127V272.478C398.127 250.125 380.217 232.072 357.721 232.072H357.865C355.715 232.072 353.566 232.072 351.56 232.501C368.324 231.928 390.963 244.107 390.963 272.478Z" fill="#EAEFF4"/>
<path d="M398.128 303.57V272.621C398.128 250.125 379.931 231.928 357.435 231.928H357.578C335.226 231.928 316.886 250.125 316.886 272.478V272.621C316.886 284.943 322.331 296.406 330.928 303.57" stroke="#B8C0CC" stroke-width="2" stroke-miterlimit="10" stroke-linecap="round" stroke-linejoin="round"/>
<path d="M348.408 266.316C349.753 266.316 350.844 264.584 350.844 262.448C350.844 260.311 349.753 258.579 348.408 258.579C347.063 258.579 345.972 260.311 345.972 262.448C345.972 264.584 347.063 266.316 348.408 266.316Z" fill="#B8C0CC"/>
<path d="M335.37 266.316C336.715 266.316 337.805 264.584 337.805 262.448C337.805 260.311 336.715 258.579 335.37 258.579C334.024 258.579 332.934 260.311 332.934 262.448C332.934 264.584 334.024 266.316 335.37 266.316Z" fill="#B8C0CC"/>
<path d="M373.483 275.343C370.76 275.343 368.468 273.051 368.468 270.328V266.746C368.468 264.024 370.76 261.731 373.483 261.731C376.205 261.731 378.498 264.024 378.498 266.746V270.328C378.498 273.051 376.205 275.343 373.483 275.343Z" stroke="#B8C0CC" stroke-width="1.8833" stroke-miterlimit="10" stroke-linecap="round" stroke-linejoin="round"/>
<path d="M373.484 261.588C373.484 242.101 350.845 220.895 340.672 235.654" stroke="#B8C0CC" stroke-width="1.8833" stroke-miterlimit="10" stroke-linecap="round" stroke-linejoin="round"/>
<rect x="59.9401" y="175.94" width="78.12" height="63.12" rx="3.06" fill="white" stroke="#B8C0CC" stroke-width="1.88"/>
<path opacity="0.5" d="M59.0001 179C59.0001 176.791 60.791 175 63.0001 175H135C137.209 175 139 176.791 139 179V187H59.0001V179Z" fill="#EAEFF4"/>
<rect x="59.9401" y="175.94" width="78.12" height="63.12" rx="3.06" stroke="#EAEFF4" stroke-width="1.88"/>
<rect x="67.0001" y="217" width="16" height="16" rx="4" fill="#EAEFF4"/>
<rect x="91.0001" y="193" width="16" height="16" rx="4" fill="#EAEFF4"/>
<rect x="115" y="193" width="16" height="16" rx="4" fill="#EAEFF4"/>
<rect x="67.0001" y="193" width="16" height="16" rx="4" fill="#B8C0CC"/>
<rect x="91.0001" y="217" width="16" height="16" rx="4" fill="#EAEFF4"/>
<rect x="115" y="217" width="16" height="16" rx="4" fill="#EAEFF4"/>
<path d="M71.0001 201.882L72.9877 204L79.0001 198" stroke="white" stroke-width="2" stroke-linecap="round" stroke-linejoin="round"/>
<path d="M81.0001 174.5C81.0001 170.91 78.9854 168 76.5001 168C74.0148 168 72.0001 170.91 72.0001 174.5C72.0001 178.09 74.0148 181 76.5001 181" stroke="#B8C0CC" stroke-width="2" stroke-linecap="round"/>
<path d="M104 174.5C104 170.91 101.985 168 99.5001 168C97.0148 168 95.0001 170.91 95.0001 174.5C95.0001 178.09 97.0148 181 99.5001 181" stroke="#B8C0CC" stroke-width="2" stroke-linecap="round"/>
<path d="M126 174.5C126 170.91 123.985 168 121.5 168C119.015 168 117 170.91 117 174.5C117 178.09 119.015 181 121.5 181" stroke="#B8C0CC" stroke-width="2" stroke-linecap="round"/>
<circle cx="99.1208" cy="181.5" r="1.5" fill="#B8C0CC"/>
<circle cx="121.879" cy="181.5" r="1.5" fill="#B8C0CC"/>
<circle cx="76.5001" cy="181.5" r="1.5" fill="#B8C0CC"/>
</svg>
