<svg width="180" height="181" viewBox="0 0 180 181" fill="none" xmlns="http://www.w3.org/2000/svg">
<circle cx="90" cy="90" r="90" fill="#F0F4F7"/>
<path d="M110.769 63.9915V179.868" stroke="#B8C0CC" stroke-width="2" stroke-linecap="round"/>
<path d="M167.885 179.868H53.6539" stroke="#B8C0CC" stroke-width="2" stroke-linecap="round"/>
<rect x="-1" y="1" width="129.538" height="29.1309" rx="3" transform="matrix(-1 0 0 1 174.538 48.426)" fill="white" stroke="#B8C0CC" stroke-width="2"/>
<rect x="-1" y="1" width="129.538" height="29.1309" rx="3" transform="matrix(-1 0 0 1 174.538 89.9336)" fill="white" stroke="#B8C0CC" stroke-width="2"/>
<rect x="-1" y="1" width="129.538" height="29.1309" rx="3" transform="matrix(-1 0 0 1 174.538 131.442)" fill="white" stroke="#B8C0CC" stroke-width="2"/>
<path d="M62.3077 102.04L62.3077 108.764" stroke="#B8C0CC" stroke-width="2" stroke-linecap="round"/>
<path d="M62.3077 60.5325L62.3077 67.2564" stroke="#B8C0CC" stroke-width="2" stroke-linecap="round"/>
<path d="M62.3077 143.548L62.3077 150.272" stroke="#B8C0CC" stroke-width="2" stroke-linecap="round"/>
<path d="M79.6154 102.04L79.6154 108.764" stroke="#B8C0CC" stroke-width="2" stroke-linecap="round"/>
<path d="M79.6154 60.5325L79.6154 67.2564" stroke="#B8C0CC" stroke-width="2" stroke-linecap="round"/>
<path d="M79.6154 143.548L79.6154 150.272" stroke="#B8C0CC" stroke-width="2" stroke-linecap="round"/>
<path d="M96.9231 102.04L96.9231 108.764" stroke="#B8C0CC" stroke-width="2" stroke-linecap="round"/>
<path d="M96.9231 60.5325L96.9231 67.2564" stroke="#B8C0CC" stroke-width="2" stroke-linecap="round"/>
<path d="M96.9231 143.548L96.9231 150.272" stroke="#B8C0CC" stroke-width="2" stroke-linecap="round"/>
<rect x="-1" y="1" width="10.9146" height="10.6467" rx="5" transform="matrix(-1 0 0 1 158.962 57.4028)" fill="white" stroke="#B8C0CC" stroke-width="2"/>
<rect x="-1" y="1" width="10.9146" height="10.6467" rx="5" transform="matrix(-1 0 0 1 158.962 98.5811)" fill="white" stroke="#B8C0CC" stroke-width="2"/>
<rect x="-1" y="1" width="10.9146" height="10.6467" rx="5" transform="matrix(-1 0 0 1 158.962 140.089)" fill="white" stroke="#B8C0CC" stroke-width="2"/>
<rect x="-1" y="1" width="10.9146" height="10.6467" rx="5" transform="matrix(-1 0 0 1 141.204 57.4028)" fill="white" stroke="#53A1FF" stroke-width="2"/>
<rect x="-1" y="1" width="10.9146" height="10.6467" rx="5" transform="matrix(-1 0 0 1 141.204 98.5811)" fill="white" stroke="#53A1FF" stroke-width="2"/>
<rect x="-1" y="1" width="10.9146" height="10.6467" rx="5" transform="matrix(-1 0 0 1 141.204 140.089)" fill="white" stroke="#53A1FF" stroke-width="2"/>
<ellipse cx="69.2308" cy="138.36" rx="19.0385" ry="19.0245" fill="white"/>
<path d="M92.9891 118.897L92.9923 118.902L98.4724 128.077C98.4735 128.078 98.4746 128.08 98.4758 128.082C98.8659 128.731 99.0095 129.501 98.8723 130.252C98.7351 131.002 98.3298 131.667 97.7474 132.135C97.7461 132.136 97.7448 132.137 97.7435 132.138L92.5936 136.305C92.7301 137.671 92.7301 139.047 92.5936 140.412L97.7485 144.583C97.7486 144.583 97.7487 144.583 97.7488 144.583C98.3281 145.051 98.7316 145.713 98.8689 146.461C99.0064 147.209 98.8646 147.977 98.4779 148.624C98.4778 148.625 98.4777 148.625 98.4776 148.625L92.9926 157.815L92.9873 157.824C92.6004 158.464 92.0032 158.94 91.3113 159.182M92.9891 118.897L82.4655 154.694M92.9891 118.897C92.6026 118.254 92.0044 117.778 91.3116 117.535C90.6196 117.292 89.8642 117.291 89.1723 117.534L89.1672 117.535M92.9891 118.897L89.1672 117.535M91.3113 159.182L90.6489 157.295L91.3114 159.182C91.3113 159.182 91.3113 159.182 91.3113 159.182ZM91.3113 159.182C90.6208 159.425 89.8669 159.426 89.1756 159.185L89.1672 159.182L82.7839 156.928M82.7839 156.928C83.0843 156.722 83.3799 156.51 83.6705 156.29L82.4655 154.694M82.7839 156.928L81.7995 156.58L82.4655 154.694M82.7839 156.928C81.5984 157.738 80.3381 158.44 79.0196 159.024M82.4655 154.694C80.8759 155.894 79.1187 156.871 77.246 157.595M79.0196 159.024L79.214 157.951L77.246 157.595M79.0196 159.024L77.858 165.434M79.0196 159.024C78.6727 159.178 78.3219 159.323 77.9673 159.46L77.246 157.595M77.246 157.595L77.858 165.434M77.858 165.434L75.8899 165.078L77.8578 165.435C77.7227 166.182 77.322 166.844 76.744 167.314L75.4828 165.762L76.7439 167.314C76.167 167.783 75.4483 168.032 74.716 168.032L77.858 165.434ZM89.1672 117.535L82.7839 119.79C81.5983 118.979 80.3381 118.277 79.0196 117.694L77.8579 111.283M89.1672 117.535L77.8579 111.283M45.4705 157.818L45.4693 157.816L39.9891 148.641C39.9881 148.639 39.987 148.637 39.9859 148.636C39.5956 147.987 39.452 147.217 39.5892 146.466C39.7264 145.715 40.1316 145.051 40.7138 144.583C40.7152 144.581 40.7166 144.58 40.718 144.579L45.868 140.412C45.7317 139.047 45.7317 137.671 45.868 136.305L40.718 132.138C40.7166 132.137 40.7152 132.136 40.7138 132.135C40.1316 131.666 39.7264 131.002 39.5892 130.252C39.452 129.501 39.5956 128.731 39.986 128.082C39.987 128.08 39.9881 128.078 39.9891 128.077L45.4668 118.906C45.4673 118.905 45.4679 118.904 45.4684 118.903C45.8538 118.256 46.4537 117.777 47.1491 117.532C47.8437 117.289 48.6025 117.29 49.2961 117.536C49.2971 117.536 49.2981 117.537 49.2991 117.537L55.6782 119.79C56.8638 118.98 58.1238 118.278 59.4418 117.694L60.6036 111.283C60.6036 111.283 60.6037 111.283 60.6037 111.283C60.7391 110.535 61.141 109.872 61.7198 109.403C62.2962 108.936 63.0143 108.687 63.7472 108.688M45.4705 157.818L75.4825 110.957C75.2677 110.783 74.9962 110.687 74.716 110.688V108.688H74.7144H63.7472M45.4705 157.818C45.8567 158.462 46.4558 158.94 47.1497 159.184C47.8425 159.427 48.5994 159.427 49.2926 159.183L49.2945 159.182M45.4705 157.818L49.2945 159.182M63.7472 108.688C63.748 108.688 63.7489 108.688 63.7498 108.688L63.7456 110.688M63.7472 108.688H63.7456V110.688M63.7456 110.688C63.4653 110.687 63.1938 110.783 62.979 110.957C62.7642 111.131 62.6199 111.373 62.5716 111.639L63.7456 110.688ZM77.8579 111.283C77.8579 111.283 77.8579 111.283 77.8578 111.283L77.8579 111.283ZM49.2945 159.182L55.6776 156.928C56.8632 157.738 58.1234 158.44 59.4419 159.024L60.6035 165.434C60.6035 165.434 60.6036 165.434 60.6037 165.435C60.739 166.182 61.1402 166.845 61.7177 167.314L61.7177 167.314M49.2945 159.182L61.7177 167.314M61.7177 167.314C62.2945 167.783 63.0129 168.032 63.7456 168.032M61.7177 167.314L63.7456 168.032M78.4996 132.383L76.8544 133.521C75.8573 132.078 74.4328 130.944 72.7534 130.271C71.0735 129.599 69.2213 129.422 67.4337 129.766C65.6463 130.109 64.0135 130.956 62.7383 132.188C61.4639 133.42 60.6041 134.982 60.2565 136.671C59.909 138.359 60.0867 140.11 60.7702 141.706C61.4541 143.302 62.617 144.677 64.1226 145.649C65.6282 146.621 67.4051 147.145 69.2282 147.145L78.4996 132.383ZM78.4996 132.383L76.8544 133.521C77.8509 134.962 78.3783 136.649 78.3783 138.369M78.4996 132.383L78.3783 138.369M63.7456 168.032C63.7456 168.032 63.7456 168.032 63.7456 168.032M63.7456 168.032H63.7456M63.7456 168.032H74.7159H63.7456ZM78.3783 138.369C78.3744 140.673 77.4265 142.896 75.7189 144.547C74.0085 146.2 71.6756 147.142 69.2284 147.145L78.3783 138.369Z" fill="white" stroke="white" stroke-width="4" stroke-linecap="round" stroke-linejoin="round"/>
<path d="M96.4923 146.139L90.4682 141.265C90.7719 139.339 90.7719 137.379 90.4682 135.452L96.4923 130.578C96.7095 130.404 96.8558 130.161 96.9049 129.892C96.954 129.623 96.9029 129.346 96.7605 129.111L91.2752 119.927C91.1343 119.693 90.9128 119.514 90.6492 119.422C90.3856 119.329 90.0969 119.329 89.8332 119.421L82.4655 122.023C80.8759 120.823 79.1187 119.847 77.246 119.123L75.8899 111.639C75.8416 111.373 75.6973 111.131 75.4825 110.957C75.2677 110.783 74.9962 110.687 74.716 110.688H63.7456C63.4653 110.687 63.1938 110.783 62.979 110.957C62.7642 111.131 62.6199 111.373 62.5716 111.639L61.2155 119.123C59.3433 119.848 57.5863 120.824 55.996 122.023L48.6284 119.421C48.3649 119.328 48.0755 119.327 47.8115 119.42C47.5476 119.512 47.3261 119.692 47.1863 119.927L41.701 129.111C41.5587 129.346 41.5075 129.623 41.5566 129.892C41.6057 130.161 41.752 130.404 41.9693 130.578L47.9933 135.452C47.69 137.379 47.69 139.339 47.9933 141.265L41.9693 146.139C41.752 146.314 41.6057 146.557 41.5566 146.825C41.5075 147.094 41.5587 147.371 41.701 147.607L47.1863 156.79C47.3269 157.025 47.5485 157.204 47.8122 157.297C48.0759 157.389 48.3648 157.389 48.6284 157.296L55.996 154.694C57.5856 155.894 59.3428 156.871 61.2155 157.595L62.5716 165.078C62.6199 165.345 62.7641 165.587 62.9789 165.762C63.1936 165.936 63.465 166.032 63.7456 166.032H74.716C74.9965 166.032 75.2681 165.936 75.4828 165.762C75.6976 165.587 75.8416 165.345 75.8899 165.078L77.246 157.595C79.1187 156.871 80.8759 155.894 82.4655 154.694L89.8332 157.296C90.0969 157.388 90.3854 157.388 90.6489 157.295C90.9123 157.203 91.1339 157.024 91.2752 156.79L96.7605 147.599C96.9008 147.365 96.9509 147.089 96.9018 146.822C96.8527 146.555 96.7077 146.313 96.4923 146.139ZM69.2308 149.145C67.0261 149.145 64.8707 148.513 63.0375 147.329C61.2043 146.145 59.7756 144.462 58.9319 142.493C58.0882 140.524 57.8674 138.358 58.2975 136.268C58.7276 134.177 59.7893 132.257 61.3483 130.75C62.9073 129.243 64.8937 128.217 67.0561 127.802C69.2185 127.386 71.4598 127.599 73.4968 128.415C75.5337 129.23 77.2747 130.611 78.4996 132.383C79.7245 134.155 80.3783 136.239 80.3783 138.37C80.3743 141.226 79.1986 143.965 77.1089 145.985C75.0192 148.005 72.1861 149.141 69.2308 149.145Z" fill="white" stroke="#53A1FF" stroke-width="2" stroke-linecap="round" stroke-linejoin="round"/>
</svg>
