<svg width="180" height="180" viewBox="0 0 180 180" fill="none" xmlns="http://www.w3.org/2000/svg">
<circle cx="90" cy="90" r="90" fill="#F0F4F7"/>
<path d="M91.9618 50.3157V142" stroke="#B8C0CC" stroke-width="2" stroke-linecap="round"/>
<path d="M137.153 142H46.7705" stroke="#B8C0CC" stroke-width="2" stroke-linecap="round"/>
<rect x="-1" y="1" width="102.076" height="22.6316" rx="3" transform="matrix(-1 0 0 1 142 38)" fill="white" stroke="#B8C0CC" stroke-width="2"/>
<rect x="-1" y="1" width="102.076" height="22.6316" rx="3" transform="matrix(-1 0 0 1 142 70.8418)" fill="white" stroke="#B8C0CC" stroke-width="2"/>
<rect x="-1" y="1" width="102.076" height="22.6316" rx="3" transform="matrix(-1 0 0 1 142 103.684)" fill="white" stroke="#B8C0CC" stroke-width="2"/>
<path d="M53.6175 80.4209L53.6175 85.741" stroke="#B8C0CC" stroke-width="2" stroke-linecap="round"/>
<path d="M53.6175 47.5789L53.6175 52.899" stroke="#B8C0CC" stroke-width="2" stroke-linecap="round"/>
<path d="M53.6175 113.263L53.6175 118.583" stroke="#B8C0CC" stroke-width="2" stroke-linecap="round"/>
<path d="M67.3121 80.4209L67.3121 85.741" stroke="#B8C0CC" stroke-width="2" stroke-linecap="round"/>
<path d="M67.3121 47.5789L67.3121 52.899" stroke="#B8C0CC" stroke-width="2" stroke-linecap="round"/>
<path d="M67.3121 113.263L67.3121 118.583" stroke="#B8C0CC" stroke-width="2" stroke-linecap="round"/>
<path d="M81.0063 80.4209L81.0063 85.741" stroke="#B8C0CC" stroke-width="2" stroke-linecap="round"/>
<path d="M81.0063 47.5789L81.0063 52.899" stroke="#B8C0CC" stroke-width="2" stroke-linecap="round"/>
<path d="M81.0063 113.263L81.0063 118.583" stroke="#B8C0CC" stroke-width="2" stroke-linecap="round"/>
<rect x="-1" y="1" width="8.21832" height="8.00636" rx="4.00318" transform="matrix(-1 0 0 1 129.675 45.1028)" fill="white" stroke="#B8C0CC" stroke-width="2"/>
<rect x="-1" y="1" width="8.21832" height="8.00636" rx="4.00318" transform="matrix(-1 0 0 1 129.675 77.6838)" fill="white" stroke="#B8C0CC" stroke-width="2"/>
<rect x="-1" y="1" width="8.21832" height="8.00636" rx="4.00318" transform="matrix(-1 0 0 1 129.675 110.526)" fill="white" stroke="#B8C0CC" stroke-width="2"/>
<rect x="-1" y="1" width="8.21832" height="8.00636" rx="4.00318" transform="matrix(-1 0 0 1 115.625 45.1028)" fill="white" stroke="#53A1FF" stroke-width="2"/>
<rect x="-1" y="1" width="8.21832" height="8.00636" rx="4.00318" transform="matrix(-1 0 0 1 115.625 77.6838)" fill="white" stroke="#53A1FF" stroke-width="2"/>
<rect x="-1" y="1" width="8.21832" height="8.00636" rx="4.00318" transform="matrix(-1 0 0 1 115.625 110.526)" fill="white" stroke="#53A1FF" stroke-width="2"/>
<ellipse cx="59.0953" cy="109.158" rx="15.0637" ry="15.0526" fill="white"/>
<path d="M78.2514 93.5429L78.2545 93.5481L82.5894 100.806C82.5905 100.807 82.5916 100.809 82.5927 100.811C82.9532 101.411 83.0862 102.123 82.9592 102.817C82.8323 103.512 82.4575 104.126 81.9205 104.558C81.9192 104.559 81.9179 104.56 81.9165 104.561L78.0171 107.716C78.0999 108.675 78.0999 109.639 78.0171 110.598L81.9216 113.757C82.4561 114.189 82.8293 114.8 82.9565 115.492C83.0837 116.185 82.9523 116.895 82.5946 117.494L78.2549 124.765L78.2496 124.774C77.8922 125.366 77.3412 125.804 76.7044 126.027L76.0419 124.14L76.7044 126.027C76.0688 126.25 75.3751 126.251 74.7389 126.03L74.7305 126.027L69.8783 124.313C69.0322 124.878 68.1405 125.375 67.2122 125.798L66.3324 130.654C66.3324 130.654 66.3323 130.654 66.3323 130.654C66.3323 130.654 66.3322 130.654 66.3322 130.655C66.2071 131.346 65.8365 131.958 65.3033 132.391C64.7711 132.824 64.1092 133.053 63.4354 133.053L78.2514 93.5429ZM78.2514 93.5429C77.8942 92.9491 77.3424 92.5102 76.7046 92.2863C76.0676 92.0627 75.3725 92.0626 74.7356 92.2856L74.7305 92.2874M78.2514 93.5429L74.7305 92.2874M74.7305 92.2874L69.8783 94.001C69.0322 93.4362 68.1405 92.9395 67.2122 92.5155L66.3322 87.6598C66.2069 86.9676 65.8352 86.3548 65.3011 85.9219C64.7695 85.4912 64.1081 85.2624 63.4338 85.2632M74.7305 92.2874L63.4354 87.2632M39.9375 124.768L39.9362 124.766L35.6013 117.508C35.6002 117.507 35.5991 117.505 35.598 117.503C35.2375 116.903 35.1045 116.191 35.2315 115.496C35.3584 114.802 35.7331 114.188 36.27 113.756C36.2714 113.755 36.2728 113.754 36.2741 113.753L40.1737 110.598C40.0911 109.639 40.0911 108.675 40.1737 107.716L36.2742 104.561C36.2727 104.56 36.2712 104.559 36.2698 104.557C35.733 104.125 35.3584 103.512 35.2315 102.817C35.1045 102.123 35.2374 101.411 35.5979 100.811L39.9337 93.5522C39.9343 93.5513 39.9348 93.5504 39.9354 93.5495C40.2915 92.9514 40.8452 92.5095 41.4855 92.2847C42.1251 92.0602 42.8235 92.0614 43.4621 92.288C43.4631 92.2884 43.464 92.2887 43.465 92.289L48.3129 94.0012C49.159 93.4368 50.0505 92.9402 50.9784 92.5161L51.8585 87.6598C51.8585 87.6596 51.8585 87.6595 51.8585 87.6594C51.9839 86.9673 52.3556 86.3547 52.8896 85.9219C53.4212 85.4912 54.0826 85.2624 54.7568 85.2632M39.9375 124.768L63.4354 87.2632M39.9375 124.768C40.2943 125.364 40.8471 125.804 41.486 126.028C42.1237 126.252 42.8203 126.252 43.4584 126.027L43.4604 126.027M39.9375 124.768L43.4604 126.027M54.7568 85.2632C54.7578 85.2632 54.7587 85.2632 54.7596 85.2632L54.7553 87.2632V85.2632H54.7568ZM54.7568 85.2632H63.4338M63.4338 85.2632C63.4329 85.2632 63.432 85.2632 63.4311 85.2632L63.4354 87.2632M63.4338 85.2632H63.4354V87.2632M43.4604 126.027L48.3124 124.313C49.1585 124.878 50.0502 125.375 50.9785 125.798L51.8583 130.654C51.8584 130.654 51.8585 130.654 51.8585 130.655C51.9838 131.346 52.3549 131.958 52.8875 132.391L54.1487 130.839M43.4604 126.027L54.1487 130.839M54.1487 130.839L52.8875 132.391C53.4195 132.823 54.0813 133.053 54.7553 133.053C54.7553 133.053 54.7554 133.053 54.7554 133.053H63.4353L54.1487 130.839ZM59.0942 115.691C57.7309 115.691 56.4035 115.3 55.2802 114.574C54.1573 113.849 53.2927 112.825 52.7849 111.641C52.2775 110.457 52.146 109.158 52.4036 107.906C52.6614 106.653 53.2996 105.492 54.2486 104.575C55.1982 103.657 56.4164 103.025 57.7523 102.768C59.0885 102.511 60.4727 102.643 61.7273 103.146C62.9815 103.648 64.0425 104.494 64.7839 105.566C65.5244 106.638 65.9153 107.89 65.9156 109.164C65.9128 110.872 65.2103 112.524 63.9387 113.753C62.6649 114.984 60.9239 115.689 59.0942 115.691Z" fill="white" stroke="white" stroke-width="4" stroke-linecap="round" stroke-linejoin="round"/>
<path d="M80.6653 115.313L75.899 111.457C76.1393 109.932 76.1393 108.382 75.899 106.857L80.6653 103.001C80.8373 102.863 80.9529 102.67 80.9918 102.458C81.0307 102.245 80.9902 102.026 80.8776 101.84L76.5375 94.5737C76.426 94.3883 76.2507 94.2467 76.0421 94.1735C75.8336 94.1002 75.6051 94.1002 75.3965 94.1732L69.567 96.232C68.3093 95.2826 66.9189 94.51 65.4372 93.9371L64.3642 88.016C64.326 87.8048 64.2118 87.6135 64.0419 87.4758C63.8719 87.3381 63.6571 87.2627 63.4354 87.2632H54.7553C54.5336 87.2627 54.3188 87.3381 54.1488 87.4758C53.9789 87.6135 53.8647 87.8048 53.8265 88.016L52.7535 93.9371C51.2722 94.5108 49.8819 95.2833 48.6237 96.232L42.7943 94.1732C42.5858 94.099 42.3568 94.0985 42.1479 94.1718C41.9391 94.2451 41.7639 94.3875 41.6532 94.5737L37.3131 101.84C37.2005 102.026 37.16 102.245 37.1989 102.458C37.2378 102.67 37.3535 102.863 37.5254 103.001L42.2917 106.857C42.0518 108.382 42.0518 109.932 42.2917 111.457L37.5254 115.313C37.3535 115.451 37.2378 115.643 37.1989 115.856C37.16 116.069 37.2005 116.288 37.3131 116.474L41.6532 123.74C41.7644 123.926 41.9398 124.068 42.1484 124.141C42.3571 124.214 42.5857 124.214 42.7943 124.141L48.6237 122.082C49.8814 123.031 51.2718 123.804 52.7535 124.377L53.8265 130.298C53.8647 130.509 53.9788 130.701 54.1487 130.839C54.3186 130.977 54.5334 131.053 54.7553 131.053H63.4354C63.6573 131.053 63.8722 130.977 64.0421 130.839C64.212 130.701 64.326 130.509 64.3642 130.298L65.4372 124.377C66.9189 123.804 68.3093 123.031 69.567 122.082L75.3965 124.141C75.6052 124.213 75.8335 124.213 76.0419 124.14C76.2504 124.067 76.4257 123.925 76.5375 123.74L80.8776 116.468C80.9886 116.283 81.0282 116.065 80.9894 115.853C80.9505 115.642 80.8358 115.451 80.6653 115.313ZM59.0954 117.691C57.3509 117.691 55.6456 117.191 54.1951 116.255C52.7446 115.318 51.6142 113.986 50.9466 112.428C50.279 110.87 50.1044 109.156 50.4447 107.502C50.785 105.849 51.625 104.329 52.8585 103.137C54.0921 101.945 55.6638 101.133 57.3747 100.804C59.0856 100.475 60.8591 100.644 62.4707 101.289C64.0824 101.934 65.4599 103.027 66.4291 104.429C67.3983 105.831 67.9156 107.479 67.9156 109.166C67.9124 111.426 66.9821 113.593 65.3287 115.191C63.6753 116.789 61.4337 117.688 59.0954 117.691Z" fill="white" stroke="#53A1FF" stroke-width="2" stroke-linecap="round" stroke-linejoin="round"/>
</svg>
