<svg width="64" height="64" viewBox="0 0 64 64" fill="none" xmlns="http://www.w3.org/2000/svg">
<circle cx="32" cy="32" r="32" fill="#F0F4F7"/>
<path d="M35 13.6925L37.6832 17.3563C38.2711 18.1591 39.3598 18.4076 40.2378 17.9394L44.245 15.8026L45.0728 20.2678C45.2542 21.2462 46.1272 21.9424 47.1214 21.9015L51.6589 21.715L50.4673 26.0972C50.2063 27.0573 50.6908 28.0634 51.6043 28.458L55.7733 30.2586L52.7984 33.6898C52.1466 34.4417 52.1466 35.5583 52.7984 36.3102L55.7733 39.7414L51.6043 41.542C50.6908 41.9366 50.2063 42.9427 50.4673 43.9028L51.6589 48.285L47.1214 48.0985C46.1272 48.0576 45.2542 48.7538 45.0728 49.7322L44.245 54.1974L40.2378 52.0606C39.3598 51.5924 38.2711 51.8409 37.6832 52.6437L35 56.3075L32.3168 52.6437C31.7289 51.8409 30.6402 51.5924 29.7622 52.0606L25.755 54.1974L24.9272 49.7322C24.7458 48.7538 23.8728 48.0576 22.8786 48.0985L18.3411 48.285L19.5327 43.9028C19.7937 42.9427 19.3092 41.9366 18.3957 41.542L14.2267 39.7414L17.2016 36.3102C17.8534 35.5583 17.8534 34.4417 17.2016 33.6898L14.2267 30.2586L18.3957 28.458C19.3092 28.0634 19.7937 27.0573 19.5327 26.0972L18.3411 21.715L22.8786 21.9015C23.8728 21.9424 24.7458 21.2462 24.9272 20.2678L25.755 15.8026L29.7622 17.9394C30.6402 18.4076 31.7289 18.1591 32.3168 17.3563L35 13.6925Z" fill="white" stroke="#B8C0CC" stroke-width="2"/>
<path d="M26.0081 30.7279C26.0081 33.1279 27.5681 34.4959 29.6561 34.4959C31.7441 34.4959 33.3041 33.1279 33.3041 30.7279C33.3041 28.3519 31.7441 26.9839 29.6561 26.9839C27.5681 26.9839 26.0081 28.3519 26.0081 30.7279ZM29.6561 28.6399C30.5681 28.6399 31.1681 29.2399 31.1681 30.7279C31.1681 32.2159 30.5681 32.8399 29.6561 32.8399C28.7201 32.8399 28.1441 32.2159 28.1441 30.7279C28.1441 29.2399 28.7201 28.6399 29.6561 28.6399ZM28.3841 43.9999H31.0721L40.6481 27.2959H37.9601L28.3841 43.9999ZM35.7761 40.5439C35.7761 42.9439 37.3361 44.3119 39.4241 44.3119C41.4881 44.3119 43.0481 42.9439 43.0481 40.5439C43.0481 38.1439 41.4881 36.7999 39.4241 36.7999C37.3361 36.7999 35.7761 38.1439 35.7761 40.5439ZM39.4001 38.4559C40.3121 38.4559 40.9121 39.0559 40.9121 40.5439C40.9121 42.0319 40.3121 42.6319 39.4001 42.6319C38.4881 42.6319 37.8881 42.0319 37.8881 40.5439C37.8881 39.0559 38.4881 38.4559 39.4001 38.4559Z" fill="#53A1FF"/>
</svg>
