<svg width="180" height="180" viewBox="0 0 180 180" fill="none" xmlns="http://www.w3.org/2000/svg">
<path d="M90 180C139.706 180 180 139.706 180 90C180 40.2944 139.706 0 90 0C40.2944 0 0 40.2944 0 90C0 139.706 40.2944 180 90 180Z" fill="#F0F4F7"/>
<rect x="91" y="38" width="31" height="41" rx="15.5" fill="white" stroke="#B8C0CC" stroke-width="2"/>
<path d="M91 156.615C91 156.276 91.2755 156 91.6154 156H122.385C122.724 156 123 156.276 123 156.615C123 165.112 116.112 172 107.615 172H106.385C97.8879 172 91 165.112 91 156.615Z" fill="white" stroke="#B8C0CC" stroke-width="2" stroke-linecap="round"/>
<path d="M62.3842 96.961C62.3842 73.2345 81.6184 54.0002 105.345 54.0002C129.072 54.0002 148.306 73.2344 148.306 96.961V108.509V131.6C148.306 134.215 149.561 136.67 151.679 138.202L152.04 138.462C157.049 142.084 154.487 150 148.306 150H62.3842C56.5495 150 53.9353 142.682 58.4494 138.985L59.3496 138.248C61.2704 136.675 62.3842 134.323 62.3842 131.841V108.509V96.961Z" fill="white" stroke="#B8C0CC" stroke-width="2" stroke-linecap="round"/>
<path d="M113.383 96.7241L103.309 108.271C102.947 108.685 102.32 108.73 101.903 108.371L98.5558 105.493" stroke="#53A1FF" stroke-width="2" stroke-linecap="round"/>
<circle cx="107" cy="101" r="16" stroke="#53A1FF" stroke-width="2"/>
</svg>
