<svg width="304" height="211" viewBox="0 0 304 211" fill="none" xmlns="http://www.w3.org/2000/svg">
<rect x="30" y="28" width="239" height="181" rx="9" fill="white" stroke="#B8C0CC" stroke-width="2"/>
<rect x="30" y="28" width="239" height="33" rx="9" stroke="#B8C0CC" stroke-width="2"/>
<rect x="230.626" y="18.0236" width="6.14723" height="18.3125" rx="3" fill="white" stroke="#B8C0CC" stroke-width="2"/>
<rect x="240.81" y="18.0236" width="6.14723" height="18.3125" rx="3" fill="white" stroke="#B8C0CC" stroke-width="2"/>
<rect x="52.4049" y="18.0236" width="6.14723" height="18.3125" rx="3" fill="white" stroke="#B8C0CC" stroke-width="2"/>
<rect x="62.5889" y="18.0236" width="6.14723" height="18.3125" rx="3" fill="white" stroke="#B8C0CC" stroke-width="2"/>
<rect x="231.644" y="121.621" width="18.3681" height="14.25" rx="7.125" stroke="#D7DEE2" stroke-width="2"/>
<rect x="186.834" y="121.621" width="18.3681" height="14.25" rx="7.125" stroke="#D7DEE2" stroke-width="2"/>
<rect x="142.024" y="121.621" width="18.3681" height="14.25" rx="7.125" stroke="#D7DEE2" stroke-width="2"/>
<rect x="97.2147" y="121.621" width="18.3681" height="14.25" rx="7.125" stroke="#53A1FF" stroke-width="2"/>
<rect x="52.4049" y="121.621" width="18.3681" height="14.25" rx="7.125" stroke="#D7DEE2" stroke-width="2"/>
<rect x="231.644" y="158.185" width="18.3681" height="14.25" rx="7.125" stroke="#D7DEE2" stroke-width="2"/>
<rect x="186.834" y="158.185" width="18.3681" height="14.25" rx="7.125" fill="#53A1FF" stroke="#53A1FF" stroke-width="2"/>
<rect x="142.024" y="158.185" width="18.3681" height="14.25" rx="7.125" stroke="#D7DEE2" stroke-width="2"/>
<rect x="97.2147" y="158.185" width="18.3681" height="14.25" rx="7.125" stroke="#D7DEE2" stroke-width="2"/>
<rect x="52.4049" y="158.185" width="18.3681" height="14.25" rx="7.125" stroke="#D7DEE2" stroke-width="2"/>
<rect x="231.644" y="85.0575" width="18.3681" height="14.25" rx="7.125" stroke="#D7DEE2" stroke-width="2"/>
<rect x="186.834" y="85.0575" width="18.3681" height="14.25" rx="7.125" fill="#53A1FF" stroke="#53A1FF" stroke-width="2"/>
<rect x="142.024" y="85.0575" width="18.3681" height="14.25" rx="7.125" stroke="#D7DEE2" stroke-width="2"/>
<rect x="97.2147" y="85.0575" width="18.3681" height="14.25" rx="7.125" stroke="#D7DEE2" stroke-width="2"/>
<rect x="52.4049" y="85.0575" width="18.3681" height="14.25" rx="7.125" fill="#53A1FF" stroke="#53A1FF" stroke-width="2"/>
<path d="M302.113 191.727V169.552C302.113 147.764 284.176 130.14 262.002 130.14H261.411C239.236 130.14 221.301 147.764 221.301 169.552V170.133C221.301 191.921 239.236 209.545 261.411 209.545H290.78C300.833 209.545 302.014 201.606 302.113 191.727Z" fill="white"/>
<path opacity="0.4" d="M302.212 169.844V203.833C302.212 206.932 299.65 209.449 296.496 209.449H288.908C292.06 209.449 294.623 206.932 294.623 203.833V169.746C294.623 142.245 272.154 130.334 255.794 130.722C257.864 130.432 260.031 130.238 262.101 130.238C284.176 130.432 302.113 148.056 302.212 169.844Z" fill="#53A1FF" fill-opacity="0.4"/>
<path d="M303 202.09V169.65C303 147.862 285.063 130.238 262.889 130.238H262.298C240.123 130.238 222.187 147.862 222.187 169.65V170.231C222.187 192.019 240.123 209.643 262.298 209.643H295.313C299.55 209.545 303 206.253 303 202.09Z" stroke="#53A1FF" stroke-width="1.88" stroke-miterlimit="10"/>
<path d="M246.036 154.736C246.036 152.8 244.361 151.153 242.39 151.153C240.419 151.153 238.744 152.8 238.744 154.736C238.744 156.674 240.419 158.32 242.39 158.32C244.361 158.32 246.036 156.771 246.036 154.736Z" fill="#B8C0CC"/>
<path d="M191.766 163.987C192.593 163.817 193.451 163.896 194.232 164.214C195.013 164.533 195.682 165.077 196.155 165.776C196.626 166.475 196.881 167.298 196.884 168.144C196.888 168.987 196.642 169.813 196.175 170.519C195.71 171.223 195.046 171.773 194.268 172.1C193.49 172.428 192.632 172.517 191.803 172.358C190.975 172.198 190.212 171.795 189.613 171.202C189.014 170.61 188.604 169.851 188.436 169.024C188.21 167.915 188.435 166.761 189.059 165.815C189.684 164.871 190.657 164.214 191.766 163.987Z" fill="#53A1FF"/>
<path d="M192.616 168.168C192.616 168.168 219.276 192.1 253.067 175.69" stroke="#53A1FF" stroke-width="1.88" stroke-linecap="round" stroke-linejoin="round"/>
<rect x="1" y="1" width="99" height="105" rx="5" fill="white" stroke="#B8C0CC" stroke-width="2"/>
<path d="M31.9904 29H33.0824V22.796L35.8544 29H36.6224L39.3824 22.808V29H40.4744V20.696H39.3104L36.2384 27.56L33.1664 20.696H31.9904V29ZM41.9183 25.688C41.9183 27.728 43.2743 29.108 45.0263 29.108C46.2383 29.108 47.0903 28.484 47.4863 27.776V29H48.5903V22.424H47.4863V23.624C47.1023 22.94 46.2623 22.316 45.0383 22.316C43.2743 22.316 41.9183 23.636 41.9183 25.688ZM47.4863 25.7C47.4863 27.248 46.4543 28.148 45.2543 28.148C44.0543 28.148 43.0343 27.236 43.0343 25.688C43.0343 24.14 44.0543 23.264 45.2543 23.264C46.4543 23.264 47.4863 24.176 47.4863 25.7ZM52.9317 27.752L50.8677 22.424H49.6557L52.3077 28.928L51.0117 32.096H52.1397L56.0997 22.424H54.9717L52.9317 27.752ZM61.0807 29H62.1847V20.324H59.9287V21.32H61.0807V29ZM69.9044 22.388C69.7604 21.176 68.9204 20.144 67.2644 20.144C65.0684 20.144 64.1924 21.824 64.1924 24.548C64.1924 27.176 64.8044 29.024 67.3724 29.024C69.2684 29.024 70.2044 27.728 70.2044 26.144C70.2044 24.32 69.1124 23.252 67.4924 23.252C66.4604 23.252 65.5124 23.732 65.1404 24.584C65.1284 22.004 65.8724 21.056 67.2524 21.056C68.2364 21.056 68.7284 21.548 68.8964 22.388H69.9044ZM67.2644 24.176C68.5124 24.176 69.1484 24.956 69.1484 26.18C69.1484 27.356 68.4404 28.112 67.3124 28.112C65.9444 28.112 65.2724 27.212 65.2724 26.06C65.2724 24.764 66.2684 24.176 67.2644 24.176Z" fill="#B8C0CC"/>
<rect x="17" y="43" width="68" height="20" rx="3" fill="white" stroke="#53A1FF" stroke-width="2"/>
<rect x="16" y="69" width="70" height="22" rx="4" fill="white"/>
<rect x="17" y="70" width="68" height="20" rx="3" stroke="#53A1FF" stroke-opacity="0.4" stroke-width="2"/>
<path d="M34.4213 56H35.2493V49.493H33.5573V50.24H34.4213V56ZM36.6561 52.679C36.6561 54.569 37.1241 56 38.9241 56C40.7151 56 41.1831 54.569 41.1831 52.679C41.1831 50.816 40.7151 49.394 38.9241 49.394C37.1241 49.394 36.6561 50.816 36.6561 52.679ZM40.3731 52.679C40.3731 54.083 40.2021 55.253 38.9241 55.253C37.6371 55.253 37.4661 54.083 37.4661 52.679C37.4661 51.329 37.6371 50.141 38.9241 50.141C40.2021 50.141 40.3731 51.329 40.3731 52.679ZM43.2435 55.496C43.2435 55.181 43.0005 54.938 42.7035 54.938C42.3885 54.938 42.1455 55.181 42.1455 55.496C42.1455 55.811 42.3885 56.054 42.7035 56.054C43.0005 56.054 43.2435 55.811 43.2435 55.496ZM43.2435 51.644C43.2435 51.329 43.0005 51.086 42.7035 51.086C42.3885 51.086 42.1455 51.329 42.1455 51.644C42.1455 51.959 42.3885 52.202 42.7035 52.202C43.0005 52.202 43.2435 51.959 43.2435 51.644ZM44.2235 52.679C44.2235 54.569 44.6915 56 46.4915 56C48.2825 56 48.7505 54.569 48.7505 52.679C48.7505 50.816 48.2825 49.394 46.4915 49.394C44.6915 49.394 44.2235 50.816 44.2235 52.679ZM47.9405 52.679C47.9405 54.083 47.7695 55.253 46.4915 55.253C45.2045 55.253 45.0335 54.083 45.0335 52.679C45.0335 51.329 45.2045 50.141 46.4915 50.141C47.7695 50.141 47.9405 51.329 47.9405 52.679ZM49.8749 52.679C49.8749 54.569 50.3429 56 52.1429 56C53.9339 56 54.4019 54.569 54.4019 52.679C54.4019 50.816 53.9339 49.394 52.1429 49.394C50.3429 49.394 49.8749 50.816 49.8749 52.679ZM53.5919 52.679C53.5919 54.083 53.4209 55.253 52.1429 55.253C50.8559 55.253 50.6849 54.083 50.6849 52.679C50.6849 51.329 50.8559 50.141 52.1429 50.141C53.4209 50.141 53.5919 51.329 53.5919 52.679ZM59.8733 56H60.7373L58.4783 49.763H57.5333L55.2653 56H56.1293L56.6333 54.605H59.3693L59.8733 56ZM59.1353 53.939H56.8673L58.0013 50.771L59.1353 53.939ZM61.7257 56H62.5447V51.347L64.6237 56H65.1997L67.2697 51.356V56H68.0887V49.772H67.2157L64.9117 54.92L62.6077 49.772H61.7257V56Z" fill="#53A1FF"/>
<path d="M35.3056 83H36.1336V76.493H34.4416V77.24H35.3056V83ZM38.1884 83H39.0164V76.493H37.3244V77.24H38.1884V83ZM41.3592 82.496C41.3592 82.181 41.1162 81.938 40.8192 81.938C40.5042 81.938 40.2612 82.181 40.2612 82.496C40.2612 82.811 40.5042 83.054 40.8192 83.054C41.1162 83.054 41.3592 82.811 41.3592 82.496ZM41.3592 78.644C41.3592 78.329 41.1162 78.086 40.8192 78.086C40.5042 78.086 40.2612 78.329 40.2612 78.644C40.2612 78.959 40.5042 79.202 40.8192 79.202C41.1162 79.202 41.3592 78.959 41.3592 78.644ZM42.3393 79.679C42.3393 81.569 42.8073 83 44.6073 83C46.3983 83 46.8662 81.569 46.8662 79.679C46.8662 77.816 46.3983 76.394 44.6073 76.394C42.8073 76.394 42.3393 77.816 42.3393 79.679ZM46.0563 79.679C46.0563 81.083 45.8853 82.253 44.6073 82.253C43.3203 82.253 43.1493 81.083 43.1493 79.679C43.1493 78.329 43.3203 77.141 44.6073 77.141C45.8853 77.141 46.0563 78.329 46.0563 79.679ZM47.9906 79.679C47.9906 81.569 48.4586 83 50.2586 83C52.0496 83 52.5176 81.569 52.5176 79.679C52.5176 77.816 52.0496 76.394 50.2586 76.394C48.4586 76.394 47.9906 77.816 47.9906 79.679ZM51.7076 79.679C51.7076 81.083 51.5366 82.253 50.2586 82.253C48.9716 82.253 48.8006 81.083 48.8006 79.679C48.8006 78.329 48.9716 77.141 50.2586 77.141C51.5366 77.141 51.7076 78.329 51.7076 79.679ZM57.989 83H58.853L56.594 76.763H55.649L53.381 83H54.245L54.749 81.605H57.485L57.989 83ZM57.251 80.939H54.983L56.117 77.771L57.251 80.939ZM59.8414 83H60.6604V78.347L62.7394 83H63.3154L65.3854 78.356V83H66.2044V76.772H65.3314L63.0274 81.92L60.7234 76.772H59.8414V83Z" fill="#53A1FF" fill-opacity="0.4"/>
</svg>
