<svg width="180" height="180" viewBox="0 0 180 180" fill="none" xmlns="http://www.w3.org/2000/svg">
<path d="M90 180C139.706 180 180 139.706 180 90C180 40.2944 139.706 0 90 0C40.2944 0 0 40.2944 0 90C0 139.706 40.2944 180 90 180Z" fill="#F0F4F7"/>
<rect x="77.9918" y="38" width="24.2553" height="31.8209" rx="12.1277" fill="white" stroke="#B8C0CC" stroke-width="2"/>
<path d="M77.9918 130.06C77.9918 129.796 78.2057 129.582 78.4694 129.582H102.552C102.816 129.582 103.03 129.796 103.03 130.06C103.03 136.654 97.6837 142 91.0893 142H89.9321C83.3377 142 77.9918 136.654 77.9918 130.06Z" fill="white" stroke="#B8C0CC" stroke-width="2" stroke-linecap="round"/>
<path d="M55.6019 84.032C55.6019 65.4676 70.6513 50.4182 89.2157 50.4182C107.78 50.4182 122.829 65.4676 122.829 84.032V92.7233V110.633C122.829 112.668 123.811 114.579 125.465 115.766L125.716 115.946C129.629 118.752 127.644 124.926 122.829 124.926H55.6019C51.0556 124.926 49.0286 119.216 52.5573 116.349L53.2298 115.803C54.7306 114.584 55.6019 112.753 55.6019 110.82V92.7233V84.032Z" fill="white" stroke="#B8C0CC" stroke-width="2" stroke-linecap="round"/>
<path d="M95.5051 83.5769L87.7675 92.3735C87.4046 92.7861 86.7745 92.8314 86.3565 92.4748L83.9037 90.3827" stroke="#53A1FF" stroke-width="2" stroke-linecap="round"/>
<ellipse cx="90.5107" cy="86.8954" rx="12.5189" ry="12.4179" stroke="#53A1FF" stroke-width="2"/>
</svg>
