<svg width="64" height="64" viewBox="0 0 64 64" fill="none" xmlns="http://www.w3.org/2000/svg">
<circle cx="32" cy="32" r="32" fill="#F0F4F7"/>
<rect x="21" y="11" width="34" height="50" rx="3" fill="white" stroke="#B8C0CC" stroke-width="2"/>
<rect x="29.5" y="54.5" width="17" height="3" rx="0.5" stroke="#53A1FF"/>
<circle cx="21.5" cy="30.5" r="4.5" fill="white" stroke="#53A1FF" stroke-width="2"/>
<path d="M32.8648 49.1532C32.9223 49.5418 32.5998 50 32 50H11C10.4002 50 10.0777 49.5418 10.1352 49.1532C10.9903 43.3734 15.7801 39 21.5 39C27.2199 39 32.0097 43.3734 32.8648 49.1532Z" fill="white" stroke="#53A1FF" stroke-width="2"/>
<path d="M47.9386 19.9141C47.9386 19.5153 47.8466 19.0859 47.6933 18.7178C47.5706 18.3804 47.3865 18.0736 47.1104 17.8282C46.865 17.5828 46.5583 17.3681 46.2209 17.2454C45.8221 17.092 45.4233 17.0307 45.0245 17.0307C44.5031 17 44.319 17 42.9693 17C41.6196 17 41.4663 17 40.9141 17.0307C40.5153 17.0307 40.0859 17.1227 39.7178 17.2761C39.3804 17.3988 39.0736 17.5828 38.8282 17.8589C38.5828 18.1043 38.3681 18.411 38.2454 18.7485C38.092 19.1472 38.0307 19.546 38.0307 19.9448C38 20.4663 38 20.6503 38 22C38 23.3497 38 23.5031 38.0307 24.0552C38.0307 24.454 38.1227 24.8834 38.2761 25.2515C38.3988 25.589 38.5828 25.8957 38.8589 26.1411C39.1043 26.3865 39.411 26.6012 39.7485 26.7239C40.1472 26.8773 40.546 26.9386 40.9448 26.9693C41.4663 27 41.6503 27 43 27C44.3497 27 44.5031 27 45.0552 26.9693C45.454 26.9693 45.8834 26.8773 46.2515 26.7239C46.589 26.6012 46.865 26.4172 47.1411 26.1411C47.4172 25.865 47.5706 25.589 47.7239 25.2515C47.8773 24.8528 47.9386 24.454 47.9693 24.0552C48 23.5337 48 23.3497 48 22C48 20.6503 47.9693 20.4663 47.9386 19.9141ZM47.0491 23.9632C47.0491 24.2699 46.9877 24.5767 46.865 24.8834C46.773 25.0982 46.6503 25.2822 46.4969 25.4663C46.3436 25.6196 46.1288 25.7423 45.9141 25.8344C45.6074 25.9571 45.3006 25.9877 44.9939 26.0184C44.4724 26.0491 44.319 26.0491 43 26.0491C41.681 26.0491 41.5276 26.0491 41.0061 26.0184C40.6994 26.0184 40.3926 25.9571 40.0859 25.8344C39.8712 25.7423 39.6871 25.6196 39.5031 25.4663C39.3497 25.3129 39.227 25.0982 39.135 24.8834C39.0123 24.5767 38.9816 24.2699 38.9509 23.9632C38.9202 23.4417 38.9202 23.2883 38.9202 21.9693C38.9202 20.6503 38.9202 20.4969 38.9509 19.9755C38.9509 19.6687 39.0123 19.362 39.135 19.0552C39.227 18.8405 39.3497 18.6564 39.5031 18.4724C39.6564 18.319 39.8712 18.1963 40.0859 18.1043C40.3926 17.9816 40.6994 17.9509 41.0061 17.9202C41.5276 17.8896 41.681 17.8896 43 17.8896C44.319 17.8896 44.4724 17.8896 44.9939 17.9202C45.3006 17.9202 45.6074 17.9816 45.9141 18.1043C46.1288 18.1963 46.3129 18.319 46.4969 18.4724C46.6503 18.6258 46.773 18.8405 46.865 19.0552C46.9877 19.362 47.0184 19.6687 47.0491 19.9755C47.0798 20.4969 47.0798 20.6503 47.0798 21.9693C47.0798 23.2883 47.0798 23.4417 47.0491 23.9632Z" fill="url(#paint0_linear)"/>
<path d="M43.0307 19.4233C42.5399 19.4233 42.0491 19.5767 41.6196 19.8528C41.1902 20.1289 40.8834 20.5276 40.6687 20.9878C40.4847 21.4479 40.4233 21.9694 40.5153 22.4602C40.6074 22.9509 40.8528 23.4111 41.2209 23.7485C41.589 24.1166 42.0184 24.362 42.5092 24.454C43 24.546 43.5215 24.5154 43.9816 24.3006C44.4417 24.1166 44.8405 23.7792 45.1166 23.3497C45.3926 22.9203 45.546 22.4295 45.546 21.9387C45.546 21.2638 45.2699 20.6197 44.8098 20.1289C44.3497 19.6994 43.7055 19.4233 43.0307 19.4233ZM43.0307 23.6258C42.6932 23.6258 42.3865 23.5338 42.1104 23.3497C41.8344 23.1657 41.6196 22.9203 41.4969 22.6135C41.3742 22.3068 41.3436 21.9694 41.4049 21.6626C41.4663 21.3559 41.6196 21.0491 41.865 20.8037C42.1104 20.5583 42.3865 20.4049 42.7239 20.3436C43.0307 20.2822 43.3681 20.3129 43.6748 20.4356C43.9816 20.5583 44.227 20.773 44.411 21.0491C44.5951 21.3252 44.6871 21.6319 44.6871 21.9694C44.6871 22.1841 44.6564 22.3988 44.5644 22.6135C44.4724 22.8283 44.3497 22.9816 44.1963 23.135C44.0429 23.2884 43.8589 23.4111 43.6748 23.5031C43.4601 23.5644 43.2454 23.6258 43.0307 23.6258Z" fill="url(#paint1_linear)"/>
<path d="M46.2518 19.3313C46.2518 19.4539 46.2211 19.5766 46.1598 19.6686C46.0984 19.7606 46.0063 19.8527 45.8836 19.8833C45.7609 19.914 45.6689 19.9447 45.5461 19.914C45.4234 19.8833 45.3314 19.822 45.2393 19.7606C45.1473 19.6686 45.0859 19.5766 45.0859 19.4539C45.0859 19.3313 45.0859 19.2086 45.1166 19.1166C45.1473 18.9939 45.2393 18.9019 45.3314 18.8405C45.4234 18.7792 45.5461 18.7485 45.6689 18.7485C45.8223 18.7485 45.9757 18.8099 46.0984 18.9326C46.1904 19.0246 46.2518 19.1779 46.2518 19.3313Z" fill="url(#paint2_linear)"/>
<path d="M46.75 31H39.25C38.5606 31 38 31.5606 38 32.25V39.75C38 40.4394 38.5606 41 39.25 41H46.75C47.4394 41 48 40.4394 48 39.75V32.25C48 31.5606 47.4394 31 46.75 31Z" fill="#1976D2"/>
<path d="M46.4375 36H44.875V34.75C44.875 34.405 45.155 34.4375 45.5 34.4375H46.125V32.875H44.875C43.8394 32.875 43 33.7144 43 34.75V36H41.75V37.5625H43V41H44.875V37.5625H45.8125L46.4375 36Z" fill="#FAFAFA"/>
<circle cx="33" cy="46" r="5" fill="white"/>
<path d="M33.5 43.5H32.5V45.5H30.5V46.5H32.5V48.5H33.5V46.5H35.5V45.5H33.5V43.5ZM33 41C30.24 41 28 43.24 28 46C28 48.76 30.24 51 33 51C35.76 51 38 48.76 38 46C38 43.24 35.76 41 33 41ZM33 50C30.795 50 29 48.205 29 46C29 43.795 30.795 42 33 42C35.205 42 37 43.795 37 46C37 48.205 35.205 50 33 50Z" fill="#B8C0CC"/>
<defs>
<linearGradient id="paint0_linear" x1="38.8921" y1="26.0888" x2="47.1392" y2="17.842" gradientUnits="userSpaceOnUse">
<stop stop-color="#FFD600"/>
<stop offset="0.5" stop-color="#FF0100"/>
<stop offset="1" stop-color="#D800B9"/>
</linearGradient>
<linearGradient id="paint1_linear" x1="41.2159" y1="23.7649" x2="44.8188" y2="20.1619" gradientUnits="userSpaceOnUse">
<stop stop-color="#FF6400"/>
<stop offset="0.5" stop-color="#FF0100"/>
<stop offset="1" stop-color="#FD0056"/>
</linearGradient>
<linearGradient id="paint2_linear" x1="45.2408" y1="19.7411" x2="46.0827" y2="18.8989" gradientUnits="userSpaceOnUse">
<stop stop-color="#F30072"/>
<stop offset="1" stop-color="#E50097"/>
</linearGradient>
</defs>
</svg>
