<svg width="104" height="104" viewBox="0 0 104 104" fill="none" xmlns="http://www.w3.org/2000/svg">
<path d="M76.9322 50.07C76.9659 50.5477 76.5713 51 76 51H28C27.4287 51 27.0341 50.5477 27.0678 50.07C28.0191 36.5801 38.8488 26 52 26C65.1512 26 75.9809 36.5801 76.9322 50.07Z" fill="white" stroke="#53A1FF" stroke-width="2"/>
<path d="M17.7029 57.2788C17.5172 56.6391 17.9971 56 18.6632 56H85.3368C86.0029 56 86.4828 56.6391 86.2971 57.2788L87.2575 57.5576L86.2971 57.2788L83.9745 65.2788C83.8505 65.7061 83.4591 66 83.0142 66H20.9858C20.5409 66 20.1495 65.7061 20.0255 65.2788L17.7029 57.2788Z" fill="white" stroke="#B8C0CC" stroke-width="2"/>
<circle cx="16.5" cy="77.5" r="7.5" fill="white" stroke="#53A1FF" stroke-width="2"/>
<path d="M31.881 102.132C31.9339 102.543 31.5917 103 31 103H2C1.40829 103 1.06613 102.543 1.11897 102.132C2.06571 94.7531 8.56981 89 16.5 89C24.4302 89 30.9343 94.7531 31.881 102.132Z" fill="white" stroke="#53A1FF" stroke-width="2"/>
<path d="M67.381 102.132C67.4339 102.543 67.0917 103 66.5 103H37.5C36.9083 103 36.5661 102.543 36.619 102.132C37.5657 94.7531 44.0698 89 52 89C59.9302 89 66.4343 94.7531 67.381 102.132Z" fill="white" stroke="#53A1FF" stroke-width="2"/>
<path d="M102.881 102.132C102.934 102.543 102.592 103 102 103H73C72.4083 103 72.0661 102.543 72.119 102.132C73.0657 94.7531 79.5698 89 87.5 89C95.4302 89 101.934 94.7531 102.881 102.132Z" fill="white" stroke="#53A1FF" stroke-width="2"/>
<circle cx="52" cy="77.5" r="7.5" fill="white" stroke="#53A1FF" stroke-width="2"/>
<circle cx="87.5" cy="77.5" r="7.5" fill="white" stroke="#53A1FF" stroke-width="2"/>
<circle cx="52" cy="11" r="10" fill="white" stroke="#53A1FF" stroke-width="2"/>
</svg>
