<svg width="180" height="181" viewBox="0 0 180 181" fill="none" xmlns="http://www.w3.org/2000/svg">
<path d="M90 180C139.706 180 180 139.706 180 90C180 40.2944 139.706 0 90 0C40.2944 0 0 40.2944 0 90C0 139.706 40.2944 180 90 180Z" fill="#F0F4F7"/>
<path d="M135.866 38H87.134C79.8803 38 74 43.8968 74 51.1709V166.829C74 174.103 79.8803 180 87.134 180H135.866C143.12 180 149 174.103 149 166.829V51.1709C149 43.8968 143.12 38 135.866 38Z" fill="white" stroke="#B8C0CC" stroke-width="2" stroke-miterlimit="10"/>
<path d="M127.089 121.089V105.068C127.089 96.1591 119.84 88.911 110.93 88.911C102.097 88.911 94.911 96.0972 94.911 104.93C94.911 113.84 102.159 121.089 111.068 121.089H127.089ZM127.769 125H111.068C99.9849 125 91 116.015 91 104.93C91 93.9234 99.9234 85 110.93 85C122.015 85 131 93.9847 131 105.068V121.768C131 123.553 129.553 125 127.769 125Z" fill="#53A1FF"/>
<path d="M87.9535 38L91.7489 46.0789C92.0762 46.7755 92.5712 47.3597 93.1798 47.7674C93.7884 48.175 94.4871 48.3905 95.1995 48.3902H127.552C128.247 48.3903 128.93 48.185 129.528 47.7958C130.127 47.4065 130.619 46.8476 130.955 46.1773L135.047 38.0018" fill="#B8C0CC"/>
<path d="M74 157.488H149" stroke="#B8C0CC" stroke-width="2"/>
<path d="M111.5 173.073C114.872 173.073 117.605 170.747 117.605 167.878C117.605 165.009 114.872 162.683 111.5 162.683C108.129 162.683 105.395 165.009 105.395 167.878C105.395 170.747 108.129 173.073 111.5 173.073Z" fill="#B8C0CC"/>
</svg>
