<svg width="180" height="180" viewBox="0 0 180 180" fill="none" xmlns="http://www.w3.org/2000/svg">
<path d="M90 180C139.706 180 180 139.706 180 90C180 40.2944 139.706 0 90 0C40.2944 0 0 40.2944 0 90C0 139.706 40.2944 180 90 180Z" fill="#F0F4F7"/>
<path d="M107.914 38H71.7475C66.3641 38 62 42.3188 62 47.6463V132.354C62 137.681 66.3641 142 71.7475 142H107.914C113.298 142 117.662 137.681 117.662 132.354V47.6463C117.662 42.3188 113.298 38 107.914 38Z" fill="white" stroke="#B8C0CC" stroke-width="2" stroke-miterlimit="10"/>
<path d="M101.615 98.854V87.1204C101.615 80.5955 96.3058 75.287 89.7803 75.287C83.311 75.287 78.0478 80.5501 78.0478 87.0194C78.0478 93.545 83.3563 98.854 89.8812 98.854H101.615ZM102.112 101.718H89.8812C81.7638 101.718 75.1833 95.138 75.1833 87.0194C75.1833 78.9581 81.7188 72.4226 89.7803 72.4226C97.8988 72.4226 104.479 79.003 104.479 87.1204V99.3516C104.479 100.658 103.419 101.718 102.112 101.718Z" fill="#53A1FF"/>
<path d="M72.2535 38L75.0868 43.6947C75.3311 44.1858 75.7007 44.5975 76.155 44.8849C76.6093 45.1722 77.1309 45.3241 77.6627 45.3239H101.814C102.333 45.324 102.842 45.1793 103.289 44.9049C103.736 44.6305 104.104 44.2366 104.354 43.7641L107.408 38.0013" fill="#B8C0CC"/>
<path d="M62 125.512H117.662" stroke="#B8C0CC" stroke-width="2"/>
<path d="M89.831 137.606C92.258 137.606 94.2254 135.638 94.2254 133.211C94.2254 130.784 92.258 128.817 89.831 128.817C87.4041 128.817 85.4366 130.784 85.4366 133.211C85.4366 135.638 87.4041 137.606 89.831 137.606Z" fill="#B8C0CC"/>
</svg>
