<svg width="69" height="72" viewBox="0 0 69 72" fill="none" xmlns="http://www.w3.org/2000/svg">
<g clip-path="url(#clip0)">
<path d="M67.6284 71.027H1.10863L4.55012 36H64.2881L67.6284 71.027Z" stroke="#B8C0CC" stroke-width="1.88" stroke-miterlimit="10" stroke-linejoin="round"/>
<path d="M47.7109 46.9461L31.9766 25.2466L31.0425 15.9782L34.0591 8.40198L38.2829 4.13587L42.582 2.07653L47.548 0.973145L51.1039 1.70843L58.1932 4.79789L62.4171 10.1673L64.3024 16.7144L63.2948 27.4432L47.7109 46.9461Z" fill="white"/>
<path d="M64.3024 18.4429C64.3024 30.8556 47.4382 46.9461 47.4382 46.9461C47.4382 46.9461 31.0425 30.8556 31.0425 18.4429C31.0425 9.55631 37.1323 0.973145 47.4382 0.973145C57.744 0.973145 64.3024 9.55631 64.3024 18.4429Z" stroke="#53A1FF" stroke-width="1.88"/>
<path d="M47.6725 22.8649C50.734 22.8649 53.2158 20.4146 53.2158 17.3919C53.2158 14.3693 50.734 11.9189 47.6725 11.9189C44.611 11.9189 42.1292 14.3693 42.1292 17.3919C42.1292 20.4146 44.611 22.8649 47.6725 22.8649Z" stroke="#53A1FF" stroke-width="1.88"/>
<path d="M26.514 58.1995L7.94956 32.282L6.84754 21.2119L10.4066 12.1629L15.3903 7.06755L20.4624 4.6079L26.3217 3.29004L30.5173 4.16825L38.8816 7.85826L43.8653 14.2715L46.0896 22.0911L44.9008 34.9055L26.514 58.1995Z" fill="white"/>
<path d="M46.5638 24.5068C46.5638 39.2838 26.3268 58.4392 26.3268 58.4392C26.3268 58.4392 6.65195 39.2838 6.65195 24.5068C6.65195 13.9275 13.9598 3.70947 26.3268 3.70947C38.6939 3.70947 46.5638 13.9275 46.5638 24.5068Z" stroke="#53A1FF" stroke-width="1.88"/>
<path d="M26.6079 29.4325C30.2817 29.4325 33.2599 26.4921 33.2599 22.8649C33.2599 19.2378 30.2817 16.2974 26.6079 16.2974C22.9341 16.2974 19.9559 19.2378 19.9559 22.8649C19.9559 26.4921 22.9341 29.4325 26.6079 29.4325Z" stroke="#53A1FF" stroke-width="1.88"/>
</g>
<defs>
<clipPath id="clip0">
<rect width="68.9834" height="72" fill="white"/>
</clipPath>
</defs>
</svg>
