<svg width="106" height="106" viewBox="0 0 106 106" fill="none" xmlns="http://www.w3.org/2000/svg">
<path d="M58.7701 44.4974C55.2723 44.5013 53.8429 47.3197 53.7359 47.4434C53.331 47.9073 52.7928 48.0026 52.2466 47.4328C49.3063 42.2594 41.4519 44.43 41.4576 50.2861C41.4643 56.7418 47.1569 61.8388 52.7495 64.4784C52.8332 64.5179 52.9234 64.5378 53.0136 64.5378C53.1042 64.5378 53.195 64.5179 53.2788 64.478C54.1681 64.0561 56.4868 62.8642 58.8063 60.9152C62.6163 57.7136 64.5462 54.1296 64.5423 50.2625C64.5387 47.0836 61.9496 44.4974 58.7701 44.4974Z" fill="white" stroke="#53A1FF" stroke-width="2"/>
<path d="M70.7208 69.3127L57 75C57.1682 74.5015 57.4308 74.0263 57.7947 73.6036L65.6757 64.4495C67.1838 62.698 69.8187 62.507 71.561 64.023C72.8948 65.1836 73.3153 67.0071 72.7643 68.5848C71.6959 68.7803 70.865 69.2406 70.7208 69.3127Z" fill="white" stroke="#B8C0CC" stroke-width="2"/>
<path d="M33.5174 87.3636C31.9303 87.581 30.4375 88.2607 29.2253 89.3246L27.3164 91L16 77.6778C18.8019 75.2384 21.8094 73.0516 25.007 71.1809C28.5829 69.0888 30.0203 68.874 37.6411 68.0439L37.6415 68.0441C40.1357 67.8213 41.3777 68.3728 51.6243 71.3273C55.3215 72.393 54.5065 76.0178 54.5065 76.0178L71.1051 69.061C71.4307 68.8966 75.2844 66.7125 77.4167 70.2477C79.2857 73.5825 76.1213 75.9966 75.4858 76.4174L54.338 88.7228C54.338 88.7228 54.3368 88.7234 54.3353 88.7244C51.203 90.7972 47.9374 90.3764 46.5 90.0367L38.2894 87.6693C36.3632 87.1141 35.0795 87.1498 33.5174 87.3636Z" fill="white" stroke="#B8C0CC" stroke-width="2"/>
<path d="M1.39376 87.488L15.358 104.413C15.9424 105.121 16.9651 105.2 17.6419 104.588L28.4742 94.7995C29.1121 94.2229 29.179 93.2128 28.6231 92.5496L14.3468 75.523C13.8399 74.9186 12.9529 74.8147 12.3661 75.334C12.3617 75.338 12.3573 75.342 12.3529 75.346L1.5613 85.0979C0.884117 85.7097 0.809164 86.7798 1.39376 87.488Z" fill="white" stroke="#B8C0CC" stroke-width="2"/>
<path d="M26.5 96.5L28.6208 94.6863C29.2625 94.129 29.0592 92.641 28.5 92L14.2604 75.5055C13.7506 74.9213 12.8583 74.8209 12.2681 75.3229C12.2636 75.3267 12.2592 75.3306 12.2548 75.3342L9.99997 77.292L26.5 96.5Z" fill="white" stroke="#53A1FF" stroke-width="2"/>
<path d="M49 31C48.6498 32.0381 48.9644 31.5147 40.3243 41.5505C38.8162 43.302 36.1812 43.493 34.439 41.977C33.1052 40.8164 32.6847 38.9929 33.2357 37.4152C34.0212 37.2714 32.4553 37.8579 49 31Z" fill="white" stroke="#B8C0CC" stroke-width="2"/>
<path d="M76.7747 16.6754L78.6836 15L90 28.3222C87.1981 30.7616 84.1906 32.9484 80.993 34.8191C77.4171 36.9112 75.9797 37.126 68.3589 37.9561L68.3585 37.9559C65.8643 38.1787 64.6223 37.6272 54.3757 34.6727C50.6785 33.607 51.4935 29.9822 51.4935 29.9822L34.8949 36.939C34.5693 37.1034 30.7156 39.2875 28.5833 35.7523C26.7143 32.4175 29.8787 30.0034 30.5142 29.5826L51.662 17.2772C51.662 17.2772 51.6632 17.2766 51.6647 17.2756C54.797 15.2028 58.0626 15.6236 59.5 15.9633L67.7106 18.3307C70.8584 19.238 74.3266 18.8243 76.7747 16.6754Z" fill="white" stroke="#B8C0CC" stroke-width="2"/>
<path d="M77.3938 13.4879L91.3581 30.4129C91.9425 31.1212 92.9651 31.1996 93.6419 30.5881L104.474 20.7994C105.112 20.2228 105.179 19.2127 104.623 18.5495L90.3464 1.52302C89.8396 0.918557 88.9528 0.814736 88.3658 1.33405C88.3614 1.33803 88.3569 1.34202 88.3525 1.346L77.5609 11.098C76.8842 11.7096 76.8092 12.7796 77.3938 13.4879Z" fill="white" stroke="#B8C0CC" stroke-width="2"/>
<path d="M79.7592 9L77.5665 10.9741C76.883 11.5895 76.8073 12.6662 77.3975 13.3791L91.5006 30.4093C92.0908 31.122 93.1235 31.2009 93.8072 30.5855L96 28.6112L79.7592 9Z" fill="white" stroke="#53A1FF" stroke-width="2"/>
</svg>
