<svg width="180" height="180" viewBox="0 0 180 180" fill="none" xmlns="http://www.w3.org/2000/svg">
<path d="M90 180C139.706 180 180 139.706 180 90C180 40.2944 139.706 0 90 0C40.2944 0 0 40.2944 0 90C0 139.706 40.2944 180 90 180Z" fill="#F0F4F7"/>
<path d="M124.324 113.871V135.87C124.319 137.494 123.672 139.051 122.523 140.2C121.374 141.348 119.817 141.996 118.193 142H72.402C70.7771 141.997 69.2196 141.35 68.0707 140.201C66.9217 139.052 66.2748 137.495 66.2717 135.87V44.1316C66.2766 42.5071 66.924 40.9506 68.0726 39.8018C69.2211 38.653 70.7776 38.0052 72.402 38H118.193C119.817 38.0048 121.374 38.6525 122.523 39.8013C123.672 40.9502 124.319 42.5069 124.324 44.1316V63.0124" fill="white"/>
<path d="M124.324 113.871V135.87C124.319 137.494 123.672 139.051 122.523 140.2C121.374 141.348 119.817 141.996 118.193 142H72.402C70.7771 141.997 69.2196 141.35 68.0707 140.201C66.9217 139.052 66.2748 137.495 66.2717 135.87V44.1316C66.2766 42.5071 66.924 40.9506 68.0726 39.8018C69.2211 38.653 70.7776 38.0052 72.402 38H118.193C119.817 38.0048 121.374 38.6525 122.523 39.8013C123.672 40.9502 124.319 42.5069 124.324 44.1316V63.0124" stroke="#B8C0CC" stroke-width="2" stroke-miterlimit="10" stroke-linecap="round"/>
<path d="M94.4871 68.4419H36.8371C35.2702 68.4419 34 69.7121 34 71.279V106.933C34 108.5 35.2702 109.77 36.8371 109.77H94.4871C96.054 109.77 97.3242 108.5 97.3242 106.933V71.279C97.3242 69.7121 96.054 68.4419 94.4871 68.4419Z" fill="white" stroke="#53A1FF" stroke-width="2" stroke-miterlimit="10" stroke-linecap="round"/>
<path d="M41.5663 99.9897H74.8808" stroke="#53A1FF" stroke-width="2" stroke-miterlimit="10" stroke-linecap="round"/>
<path d="M95.3757 136.219C98.1292 136.219 100.361 133.987 100.361 131.234C100.361 128.48 98.1292 126.248 95.3757 126.248C92.6223 126.248 90.3903 128.48 90.3903 131.234C90.3903 133.987 92.6223 136.219 95.3757 136.219Z" fill="#B8C0CC"/>
<path d="M87.6144 47.6128H103.214" stroke="#B8C0CC" stroke-width="2" stroke-miterlimit="10" stroke-linecap="round"/>
<path d="M110.076 73.3723H141.935" stroke="#B8C0CC" stroke-width="2" stroke-linecap="round" stroke-linejoin="round"/>
<path d="M138.427 66.5037L145.296 73.3722L138.427 80.241" stroke="#B8C0CC" stroke-width="2" stroke-linecap="round" stroke-linejoin="round"/>
<path d="M122.083 106.595C122.552 106.595 123.002 106.409 123.334 106.077C123.666 105.745 123.852 105.295 123.852 104.826V103.753C125.382 103.661 126.82 102.989 127.872 101.874C128.923 100.758 129.51 99.2836 129.512 97.7506V97.5742C129.51 95.9807 128.876 94.4531 127.749 93.3263C126.622 92.1995 125.094 91.5653 123.501 91.5629H120.495C119.869 91.5174 119.284 91.2368 118.857 90.7774C118.43 90.318 118.192 89.7138 118.192 89.0865C118.192 88.4591 118.43 87.8551 118.857 87.3957C119.284 86.9363 119.869 86.6555 120.495 86.61H124.883C125.142 86.6104 125.389 86.7133 125.572 86.8961C125.755 87.0788 125.858 87.3266 125.858 87.5851V87.6268C125.855 88.0825 126.027 88.5219 126.34 88.8534C126.653 89.1849 127.082 89.3828 127.537 89.4058C127.992 89.4289 128.438 89.2755 128.783 88.9774C129.128 88.6793 129.344 88.2595 129.387 87.8058V87.7784C129.413 87.1863 129.322 86.5949 129.119 86.038C128.916 85.4811 128.606 84.9695 128.205 84.5326C127.805 84.0957 127.322 83.742 126.785 83.4917C126.248 83.2414 125.666 83.0994 125.074 83.0739H124.881H123.854V82.0128C123.86 81.7764 123.819 81.5413 123.733 81.3211C123.647 81.1009 123.518 80.9001 123.353 80.7307C123.188 80.5612 122.991 80.4265 122.773 80.3346C122.555 80.2426 122.321 80.1953 122.085 80.1953C121.848 80.1953 121.614 80.2426 121.397 80.3346C121.179 80.4265 120.982 80.5612 120.817 80.7307C120.652 80.9001 120.523 81.1009 120.437 81.3211C120.351 81.5413 120.31 81.7764 120.316 82.0128V83.0777C119.527 83.0893 118.747 83.2564 118.022 83.5692C117.297 83.882 116.641 84.3345 116.091 84.9009C115.541 85.4673 115.108 86.1365 114.817 86.8702C114.525 87.604 114.381 88.388 114.393 89.1774C114.404 89.9668 114.571 90.7461 114.884 91.471C115.197 92.1959 115.649 92.8522 116.216 93.4022C116.782 93.9522 117.452 94.3852 118.185 94.6766C118.919 94.968 119.703 95.1121 120.492 95.1005H123.498C123.824 95.1005 124.147 95.1648 124.448 95.2895C124.749 95.4143 125.023 95.5972 125.254 95.8278C125.484 96.0583 125.667 96.3319 125.792 96.6332C125.917 96.9344 125.981 97.2574 125.981 97.5835V97.7612C125.979 98.4183 125.717 99.0478 125.251 99.5118C124.786 99.9757 124.155 100.236 123.498 100.236H119.039C118.911 100.236 118.785 100.211 118.666 100.162C118.548 100.114 118.441 100.042 118.35 99.9516C118.259 99.8612 118.188 99.7538 118.139 99.6356C118.09 99.5174 118.064 99.3906 118.064 99.2626V99.2457V99.0627C118.064 98.5996 117.881 98.1551 117.557 97.8248C117.232 97.4945 116.791 97.3047 116.328 97.2962C115.865 97.2876 115.417 97.461 115.08 97.779C114.743 98.0971 114.545 98.5345 114.527 98.9973V99.1816C114.516 99.7739 114.622 100.363 114.839 100.914C115.055 101.466 115.379 101.969 115.79 102.395C116.201 102.822 116.692 103.163 117.236 103.4C117.779 103.636 118.363 103.763 118.956 103.774H120.312V104.835C120.312 105.304 120.499 105.754 120.831 106.085C121.163 106.417 121.612 106.603 122.082 106.603L122.083 106.595Z" fill="#B8C0CC"/>
<path opacity="0.8" d="M46.4511 87.5527C49.149 87.5527 51.336 85.3657 51.336 82.6678C51.336 79.97 49.149 77.783 46.4511 77.783C43.7533 77.783 41.5663 79.97 41.5663 82.6678C41.5663 85.3657 43.7533 87.5527 46.4511 87.5527Z" fill="#53A1FF"/>
<path opacity="0.5" d="M54.2386 87.5527C56.9365 87.5527 59.1235 85.3657 59.1235 82.6678C59.1235 79.97 56.9365 77.783 54.2386 77.783C51.5408 77.783 49.3538 79.97 49.3538 82.6678C49.3538 85.3657 51.5408 87.5527 54.2386 87.5527Z" fill="#53A1FF"/>
</svg>
