<svg width="180" height="180" viewBox="0 0 180 180" fill="none" xmlns="http://www.w3.org/2000/svg">
<path d="M90 180C139.706 180 180 139.706 180 90C180 40.2944 139.706 0 90 0C40.2944 0 0 40.2944 0 90C0 139.706 40.2944 180 90 180Z" fill="#F0F4F7"/>
<path d="M74.0596 139.319C74.0631 140.028 74.3451 140.708 74.8442 141.21C75.3434 141.712 76.0194 141.996 76.7255 142H141.856C142.562 141.996 143.238 141.712 143.737 141.21C144.236 140.708 144.518 140.028 144.522 139.319V58.1667L124.536 38H76.7285C76.0226 38.0039 75.3468 38.2876 74.8477 38.7894C74.3486 39.2912 74.0666 39.9706 74.0627 40.6802V45.5613" fill="white"/>
<path d="M74.0596 139.319C74.0631 140.028 74.3451 140.708 74.8442 141.21C75.3434 141.712 76.0194 141.996 76.7255 142H141.856C142.562 141.996 143.238 141.712 143.737 141.21C144.236 140.708 144.518 140.028 144.522 139.319V58.1667L124.536 38H76.7285C76.0226 38.0039 75.3468 38.2876 74.8477 38.7894C74.3486 39.2912 74.0666 39.9706 74.0627 40.6802V45.5613" stroke="#B8C0CC" stroke-width="1.88" stroke-miterlimit="10" stroke-linecap="round"/>
<path d="M107.438 94.7582C107.438 101.86 105.343 108.803 101.418 114.708C97.493 120.613 91.9146 125.216 85.3878 127.934C78.8611 130.652 71.6791 131.363 64.7504 129.977C57.8216 128.592 51.4571 125.172 46.4618 120.15C41.4664 115.128 38.0646 108.729 36.6864 101.764C35.3081 94.7981 36.0154 87.578 38.7189 81.0165C41.4224 74.455 46.0005 68.8468 51.8744 64.9011C57.7484 60.9554 64.6542 58.8494 71.7187 58.8494V94.7582H107.438Z" fill="white" stroke="#B8C0CC" stroke-width="1.88" stroke-miterlimit="10" stroke-linecap="round"/>
<path d="M83.5603 46.9404C93.0333 46.9408 102.118 50.7242 108.816 57.4584C115.515 64.1926 119.278 73.3258 119.278 82.8492H83.5603V46.9404Z" stroke="#53A1FF" stroke-width="1.88" stroke-miterlimit="10" stroke-linecap="round"/>
<path d="M124.537 38.0029V53.8545C124.537 54.97 124.977 56.0398 125.762 56.8286C126.546 57.6173 127.611 58.0603 128.72 58.0603H144.522" stroke="#B8C0CC" stroke-width="1.88" stroke-miterlimit="10" stroke-linecap="round"/>
<path d="M126.205 68.4075H137.323" stroke="#B8C0CC" stroke-width="1.88" stroke-miterlimit="10" stroke-linecap="round"/>
<path d="M126.205 79.1699H137.323" stroke="#B8C0CC" stroke-width="1.88" stroke-miterlimit="10" stroke-linecap="round"/>
<path d="M126.205 90H137.323" stroke="#B8C0CC" stroke-width="1.88" stroke-miterlimit="10" stroke-linecap="round"/>
<path d="M134.262 118.593C134.193 118.378 134.063 118.188 133.887 118.047C133.711 117.906 133.498 117.82 133.274 117.8L127.039 117.231L124.574 111.429C124.485 111.221 124.338 111.044 124.15 110.919C123.963 110.795 123.743 110.728 123.518 110.728C123.293 110.728 123.073 110.795 122.885 110.919C122.697 111.044 122.55 111.221 122.462 111.429L119.995 117.229L113.76 117.798C113.536 117.819 113.323 117.906 113.147 118.047C112.972 118.188 112.841 118.377 112.772 118.592C112.703 118.807 112.697 119.038 112.757 119.256C112.817 119.474 112.938 119.669 113.107 119.818L117.821 123.973L116.432 130.128C116.381 130.349 116.395 130.58 116.474 130.792C116.552 131.004 116.691 131.188 116.874 131.321C117.056 131.454 117.273 131.53 117.498 131.54C117.723 131.55 117.946 131.492 118.138 131.376L123.518 128.143L128.894 131.376C129.087 131.491 129.31 131.548 129.535 131.538C129.759 131.528 129.976 131.451 130.158 131.318C130.339 131.186 130.479 131.002 130.558 130.791C130.637 130.579 130.653 130.349 130.603 130.128L129.213 123.973L133.925 119.818C134.095 119.67 134.217 119.475 134.277 119.257C134.337 119.039 134.331 118.808 134.262 118.593Z" fill="#53A1FF"/>
</svg>
