<svg width="180" height="180" viewBox="0 0 180 180" fill="none" xmlns="http://www.w3.org/2000/svg">
<path d="M90 180C139.706 180 180 139.706 180 90C180 40.2944 139.706 0 90 0C40.2944 0 0 40.2944 0 90C0 139.706 40.2944 180 90 180Z" fill="#F0F4F7"/>
<path d="M84.438 161.536C84.442 162.344 84.7627 163.117 85.3305 163.688C85.8983 164.259 86.6673 164.582 87.4704 164.586H161.554C162.357 164.582 163.126 164.259 163.694 163.688C164.262 163.117 164.582 162.344 164.586 161.536V69.2289L141.854 46.29H87.4738C86.6709 46.2945 85.9022 46.6172 85.3344 47.1879C84.7667 47.7587 84.446 48.5315 84.4415 49.3386V54.8907" fill="white"/>
<path d="M84.438 161.536C84.442 162.344 84.7627 163.117 85.3305 163.688C85.8983 164.259 86.6673 164.582 87.4704 164.586H161.554C162.357 164.582 163.126 164.259 163.694 163.688C164.262 163.117 164.582 162.344 164.586 161.536V69.2289L141.854 46.29H87.4738C86.6709 46.2945 85.9022 46.6172 85.3344 47.1879C84.7667 47.7587 84.446 48.5315 84.4415 49.3386V54.8907" stroke="#B8C0CC" stroke-width="1.88" stroke-miterlimit="10" stroke-linecap="round"/>
<path d="M122.404 110.851C122.404 118.929 120.021 126.826 115.557 133.543C111.093 140.26 104.747 145.495 97.3235 148.587C89.8995 151.678 81.7303 152.487 73.849 150.911C65.9678 149.335 58.7285 145.445 53.0464 139.733C47.3643 134.02 43.4949 126.742 41.9272 118.819C40.3595 110.896 41.1641 102.683 44.2392 95.2199C47.3143 87.7565 52.5217 81.3774 59.2031 76.8893C65.8845 72.4012 73.7397 70.0056 81.7753 70.0056V110.851H122.404Z" fill="white" stroke="#B8C0CC" stroke-width="1.88" stroke-miterlimit="10" stroke-linecap="round"/>
<path d="M95.2446 56.4595C106.02 56.4599 116.353 60.7634 123.973 68.4233C131.592 76.0832 135.872 86.472 135.872 97.3045H95.2446V56.4595Z" stroke="#53A1FF" stroke-width="1.88" stroke-miterlimit="10" stroke-linecap="round"/>
<path d="M141.854 46.2935V64.3241C141.854 65.5929 142.355 66.8098 143.247 67.707C144.14 68.6042 145.35 69.108 146.612 69.108H164.586" stroke="#B8C0CC" stroke-width="1.88" stroke-miterlimit="10" stroke-linecap="round"/>
<path d="M143.751 80.8774H156.397" stroke="#B8C0CC" stroke-width="1.88" stroke-miterlimit="10" stroke-linecap="round"/>
<path d="M143.751 93.1194H156.397" stroke="#B8C0CC" stroke-width="1.88" stroke-miterlimit="10" stroke-linecap="round"/>
<path d="M143.751 105.438H156.397" stroke="#B8C0CC" stroke-width="1.88" stroke-miterlimit="10" stroke-linecap="round"/>
<path d="M152.916 137.962C152.838 137.718 152.689 137.502 152.49 137.341C152.29 137.181 152.048 137.083 151.793 137.06L144.7 136.412L141.896 129.813C141.796 129.576 141.628 129.375 141.415 129.233C141.201 129.091 140.951 129.016 140.695 129.016C140.439 129.016 140.189 129.091 139.975 129.233C139.762 129.375 139.594 129.576 139.494 129.813L136.689 136.411L129.595 137.058C129.341 137.082 129.099 137.18 128.899 137.34C128.7 137.501 128.551 137.717 128.472 137.961C128.393 138.205 128.387 138.468 128.455 138.716C128.523 138.964 128.661 139.186 128.853 139.355L134.215 144.082L132.635 151.083C132.577 151.334 132.593 151.596 132.683 151.837C132.772 152.079 132.93 152.288 133.137 152.439C133.345 152.591 133.592 152.677 133.847 152.688C134.103 152.699 134.357 152.634 134.576 152.502L140.695 148.825L146.811 152.502C147.03 152.633 147.283 152.697 147.539 152.686C147.794 152.674 148.041 152.588 148.248 152.436C148.455 152.285 148.613 152.077 148.703 151.836C148.793 151.595 148.811 151.334 148.754 151.083L147.173 144.082L152.533 139.355C152.726 139.187 152.865 138.964 152.933 138.717C153.001 138.469 152.995 138.207 152.916 137.962Z" fill="#53A1FF"/>
</svg>
