<svg width="64" height="64" viewBox="0 0 64 64" fill="none" xmlns="http://www.w3.org/2000/svg">
<circle cx="32" cy="32" r="32" fill="#F0F4F7"/>
<rect x="20" y="10" width="32" height="44" rx="4" fill="white" stroke="#B8C0CC" stroke-width="2"/>
<path d="M42 22.1178C42 21.6893 41.9604 21.2997 41.8812 20.9102H36.1387V23.2475H39.4258C39.2674 23.9876 38.8317 24.6498 38.1981 25.0783V26.5586H40.1782C41.3267 25.4679 42 23.9486 42 22.1178Z" fill="#4285F4"/>
<path d="M36.1386 27.9994C37.802 27.9994 39.1881 27.454 40.1782 26.558L38.198 25.0777C37.5644 25.4673 36.8515 25.6621 36.099 25.6621C35.3466 25.6621 34.5941 25.4283 33.9604 24.9609C33.3268 24.4934 32.8911 23.8701 32.6535 23.1689H30.6337V24.7271C31.1486 25.74 31.9406 26.558 32.8911 27.1424C33.8812 27.6877 34.9901 27.9994 36.1386 27.9994Z" fill="#34A853"/>
<path d="M32.6931 23.131C32.4555 22.3908 32.4555 21.5728 32.6931 20.8326V19.2744H30.6733C30.2377 20.1314 30.0001 21.0274 30.0001 21.9623C30.0001 22.8972 30.2377 23.8321 30.6733 24.6502L32.6931 23.131Z" fill="#FBBC04"/>
<path d="M36.1387 18.3391C36.5744 18.3391 37.01 18.417 37.406 18.5729C37.8021 18.7287 38.1585 18.9624 38.4753 19.2741L40.2179 17.56C39.109 16.5472 37.6437 15.9629 36.1387 16.0018C34.9902 16.0018 33.8813 16.3135 32.9308 16.8978C31.9803 17.4821 31.1882 18.3391 30.6734 19.313L32.6932 20.8712C32.9308 20.1311 33.3665 19.5078 34.0001 19.0403C34.5942 18.5729 35.3466 18.3391 36.1387 18.3391Z" fill="#EA4335"/>
<path d="M25 34H41" stroke="#B8C0CC" stroke-width="2" stroke-linecap="round"/>
<path d="M25 40H41" stroke="#B8C0CC" stroke-width="2" stroke-linecap="round"/>
<path d="M25 46H41" stroke="#B8C0CC" stroke-width="2" stroke-linecap="round"/>
<rect x="44.5" y="32.5" width="3" height="3" rx="0.5" fill="white" stroke="#B8C0CC"/>
<rect x="44.5" y="38.5" width="3" height="3" rx="0.5" fill="white" stroke="#B8C0CC"/>
<rect x="44.5" y="44.5" width="3" height="3" rx="0.5" fill="white" stroke="#B8C0CC"/>
<path d="M45 33.6L46.2727 35L49 32" stroke="#53A1FF" stroke-linecap="round" stroke-linejoin="round"/>
<path d="M45 39.6L46.2727 41L49 38" stroke="#53A1FF" stroke-linecap="round" stroke-linejoin="round"/>
</svg>
