<svg width="180" height="180" viewBox="0 0 180 180" fill="none" xmlns="http://www.w3.org/2000/svg">
<path d="M90 180C139.706 180 180 139.706 180 90C180 40.2944 139.706 0 90 0C40.2944 0 0 40.2944 0 90C0 139.706 40.2944 180 90 180Z" fill="#F0F4F7"/>
<path d="M90.5701 80.7735L90.5701 80.7735C90.4373 81.5008 90.0449 82.1445 89.4813 82.5983C89.48 82.5994 89.4787 82.6004 89.4773 82.6015L84.8425 86.3544C84.9565 87.5544 84.9565 88.762 84.8425 89.962L89.4824 93.7189L90.5701 80.7735ZM90.5701 80.7735C90.703 80.0461 90.5639 79.3001 90.1861 78.6713C90.1851 78.6696 90.184 78.6678 90.1829 78.666L85.1748 70.2753L85.1716 70.2701M90.5701 80.7735L85.1716 70.2701M85.1716 70.2701C84.7974 69.6474 84.2185 69.1862 83.5481 68.9507C82.8785 68.7155 82.1476 68.7154 81.4781 68.9499L81.473 68.9517M85.1716 70.2701L81.473 68.9517M81.473 68.9517L75.7217 70.9844L81.473 68.9517ZM41.4458 106.043L41.4445 106.041L36.4364 97.6503C36.4352 97.6484 36.4341 97.6465 36.433 97.6447C36.0553 97.016 35.9163 96.2701 36.0492 95.5428C36.182 94.8156 36.5742 94.1721 37.1376 93.7183C37.139 93.7172 37.1405 93.716 37.1419 93.7148L41.7769 89.9619C41.6631 88.762 41.6631 87.5544 41.7769 86.3545L37.142 82.6015C37.1406 82.6004 37.1393 82.5993 37.1379 82.5983C36.5744 82.1444 36.182 81.5008 36.0492 80.7735C35.9163 80.0461 36.0553 79.3001 36.4331 78.6714L41.4421 70.2794C41.4426 70.2786 41.4431 70.2777 41.4437 70.2768C41.8168 69.6497 42.3975 69.1852 43.0705 68.9488C43.7427 68.7127 44.4769 68.714 45.1481 68.9523C45.1491 68.9527 45.1501 68.953 45.1511 68.9534L50.8982 70.9846C51.9442 70.2754 53.0524 69.6579 54.2096 69.1389L55.2554 63.3639C55.3865 62.6391 55.7756 61.9964 56.336 61.542L57.5958 63.0954L56.3361 61.542C56.8939 61.0895 57.5889 60.8487 58.298 60.8496M41.4458 106.043L68.3229 62.8496V60.8496H68.3213H58.298M41.4458 106.043C41.8197 106.668 42.3996 107.13 43.071 107.366L43.7339 105.479M41.4458 106.043L43.7339 105.479M58.298 60.8496C58.2989 60.8496 58.2998 60.8496 58.3006 60.8496L58.2964 62.8496V60.8496H58.298ZM43.7339 105.479L43.0711 107.366C43.7414 107.602 44.4738 107.602 45.1445 107.365L45.1465 107.365M43.7339 105.479L45.1465 107.365M45.1465 107.365L50.8976 105.332C51.9436 106.042 53.0521 106.659 54.2097 107.178L55.2553 112.952C55.3861 113.677 55.7747 114.319 56.3339 114.774L56.334 114.774M45.1465 107.365L56.334 114.774M56.334 114.774C56.8922 115.228 57.5875 115.469 58.2964 115.469C58.2964 115.469 58.2965 115.469 58.2965 115.469H68.3228L56.334 114.774ZM70.5099 95.1332L69.1194 93.6957C70.6473 92.2177 71.4945 90.2285 71.4981 88.1679C71.498 86.6294 71.0267 85.1197 70.1354 83.8295C69.2436 82.5383 67.9687 81.5222 66.4648 80.9195C64.9603 80.3167 63.3012 80.1581 61.7 80.4662C60.0989 80.7742 58.637 81.533 57.4959 82.6369C56.3555 83.74 55.5868 85.1374 55.2761 86.6484C54.9655 88.1589 55.1243 89.7253 55.7354 91.1525C56.3469 92.5806 57.3871 93.8119 58.7349 94.6831C60.0828 95.5542 61.674 96.0232 63.3071 96.0237L70.5099 95.1332ZM70.5099 95.1332L69.1194 93.6957C67.5887 95.1764 65.4998 96.0208 63.3073 96.0237L70.5099 95.1332ZM68.3229 115.469C69.0315 115.469 69.727 115.228 70.2855 114.774C70.8453 114.319 71.2333 113.676 71.364 112.952L72.4095 107.178C73.5672 106.659 74.6757 106.042 75.7217 105.332L81.473 107.365L81.4814 107.368C82.1503 107.601 82.8797 107.6 83.5478 107.365C83.5478 107.365 83.5478 107.365 83.5478 107.365L82.885 105.478L68.3229 115.469ZM90.1881 97.6349C90.1882 97.6348 90.1883 97.6346 90.1884 97.6344C90.5628 97.0068 90.7001 96.2633 90.567 95.5381C90.567 95.5381 90.567 95.538 90.567 95.538L88.5999 95.8991L90.1881 97.6349Z" fill="white" stroke="white" stroke-width="4" stroke-linecap="round" stroke-linejoin="round"/>
<path d="M63.4867 98.2436C61.4575 98.2436 59.4739 97.662 57.7867 96.5723C56.0995 95.4826 54.7846 93.9338 54.0081 92.1216C53.2315 90.3095 53.0283 88.3156 53.4242 86.3919C53.8201 84.4682 54.7972 82.701 56.232 81.3141C57.6668 79.9272 59.495 78.9827 61.4852 78.6C63.4754 78.2174 65.5382 78.4138 67.4129 79.1644C69.2876 79.915 70.8899 81.186 72.0172 82.8169C73.1446 84.4477 73.7463 86.3652 73.7463 88.3266M56.7338 109.464L56.1098 106.02C54.3863 105.354 52.769 104.455 51.306 103.351L44.5253 105.746C44.2827 105.831 44.0167 105.831 43.774 105.746C43.5313 105.661 43.3274 105.496 43.198 105.28L38.1496 96.8278C38.0186 96.6109 37.9715 96.3561 38.0167 96.1088C38.0619 95.8615 38.1965 95.6378 38.3965 95.4774L43.9407 90.9916C43.6616 89.2184 43.6616 87.4146 43.9407 85.6414L38.3965 81.1554C38.1965 80.9951 38.0619 80.7713 38.0167 80.524C37.9715 80.2767 38.0186 80.0219 38.1496 79.805L43.198 71.3532C43.3267 71.1366 43.5305 70.971 43.7734 70.8857C44.0164 70.8004 44.2828 70.801 44.5253 70.8873L51.306 73.2821C52.7696 72.1786 54.3867 71.28 56.1098 70.6127L57.3579 63.7253C57.4024 63.4796 57.5351 63.2571 57.7328 63.0969C57.9305 62.9367 58.1804 62.8491 58.4383 62.8496H68.5349C68.7929 62.8491 69.0428 62.9367 69.2404 63.0969C69.4381 63.2571 69.5709 63.4796 69.6154 63.7253L70.8635 70.6127C72.587 71.2791 74.2043 72.1778 75.6673 73.2821L79.0577 72.0847" stroke="#53A1FF" stroke-width="2" stroke-linecap="round" stroke-linejoin="round"/>
<circle cx="100.124" cy="51.3451" r="12.3451" fill="white" stroke="#53A1FF" stroke-width="2"/>
<path d="M76.7344 94.6891C76.7344 81.7669 87.2108 71.2124 100.124 71.2124C113.037 71.2124 123.513 81.7669 123.513 94.6891C123.513 94.8531 123.379 94.9822 123.224 94.9822H77.0229C76.8682 94.9822 76.7344 94.8531 76.7344 94.6891Z" fill="white" stroke="#53A1FF" stroke-width="2"/>
<path d="M90.2413 101.605C87.4528 100.358 84.4816 99.7254 81.4084 99.7254C72.8342 99.7254 65.9409 103.734 62.2672 110.782L77.9857 126.857L79.6908 125.174C81.5676 123.319 84.0418 122.297 86.6555 122.297H113.328C116.975 122.297 120.425 120.877 123.053 118.297L141.049 96.2954C142.483 94.5596 142.269 91.9652 140.579 90.5036C138.89 89.0476 136.352 89.2664 134.922 90.9926C129.869 97.158 118.496 109.985 118.496 109.985H113.83C116.043 109.985 117.843 108.145 117.843 105.881C117.843 103.592 116.005 101.778 113.83 101.778H91.0457C90.7689 101.778 90.4953 101.719 90.2413 101.605Z" fill="white"/>
<path d="M97.4601 109.985H113.83C116.043 109.985 117.843 108.145 117.843 105.881C117.843 103.592 116.005 101.778 113.83 101.778H91.0457C90.7689 101.778 90.4953 101.719 90.2413 101.605C87.4528 100.358 84.4816 99.7254 81.4084 99.7254C72.8342 99.7254 65.9409 103.734 62.2672 110.782L77.9857 126.857L79.6908 125.174C81.5676 123.319 84.0418 122.297 86.6555 122.297H113.328C116.975 122.297 120.425 120.877 123.053 118.297L141.049 96.2954C142.483 94.5596 142.269 91.9652 140.579 90.5036C138.89 89.0476 136.352 89.2664 134.922 90.9926C129.869 97.158 118.496 109.985 118.496 109.985H113.91" stroke="#B8C0CC" stroke-width="2" stroke-linecap="round"/>
<path d="M67.8103 140.572L49.518 121.699L56.959 114.058L57.0218 113.994L57.072 113.919C57.1734 113.769 57.3516 113.614 57.5064 113.565C57.5658 113.546 57.6157 113.544 57.6712 113.558C57.7298 113.573 57.8518 113.621 58.0274 113.791L58.0279 113.792C58.0311 113.795 58.0486 113.812 58.0881 113.852L58.2543 114.02C58.395 114.163 58.593 114.364 58.8402 114.616C59.3347 115.119 60.0248 115.822 60.8449 116.658C62.4849 118.33 64.6438 120.531 66.7935 122.724C68.9431 124.917 71.0834 127.101 72.6863 128.737L74.6216 130.712L75.1631 131.265L75.3058 131.41L75.3423 131.448L75.3516 131.457L75.3535 131.459C75.3536 131.459 75.3537 131.459 75.3537 131.459C75.7639 131.879 75.7416 132.563 75.3667 132.949C75.3659 132.95 75.3652 132.951 75.3645 132.952L67.8103 140.572Z" fill="white" stroke="#B8C0CC" stroke-width="2"/>
</svg>
