<svg width="180" height="180" viewBox="0 0 180 180" fill="none" xmlns="http://www.w3.org/2000/svg">
<path d="M90 180C139.706 180 180 139.706 180 90C180 40.2944 139.706 0 90 0C40.2944 0 0 40.2944 0 90C0 139.706 40.2944 180 90 180Z" fill="#F0F4F7"/>
<mask id="path-2-outside-1" maskUnits="userSpaceOnUse" x="36" y="67.5398" width="73" height="73" fill="black">
<rect fill="white" x="36" y="67.5398" width="73" height="73"/>
<path d="M103.748 112.695L96.7598 107.036C97.1121 104.8 97.1121 102.525 96.7598 100.288L103.748 94.6297C104 94.4275 104.169 94.1453 104.226 93.8333C104.283 93.5214 104.224 93.1999 104.059 92.9264L97.6959 82.2657C97.5324 81.9937 97.2755 81.7859 96.9697 81.6785C96.664 81.5711 96.329 81.571 96.0232 81.6781L87.4765 84.6988C85.6324 83.3058 83.594 82.1723 81.4217 81.3318L79.8485 72.6443C79.7925 72.3345 79.6251 72.0538 79.376 71.8517C79.1268 71.6496 78.8119 71.5391 78.4867 71.5398H65.7608C65.4357 71.5391 65.1208 71.6496 64.8716 71.8517C64.6224 72.0538 64.4551 72.3345 64.399 72.6443L62.8259 81.3318C60.6541 82.1735 58.6159 83.3069 56.7711 84.6988L48.2246 81.6781C47.9189 81.5693 47.5831 81.5685 47.277 81.6761C46.9708 81.7836 46.7139 81.9925 46.5516 82.2657L40.1886 92.9264C40.0234 93.1999 39.9641 93.5214 40.0211 93.8333C40.0781 94.1453 40.2477 94.4275 40.4997 94.6297L47.4878 100.288C47.1359 102.525 47.1359 104.8 47.4878 107.036L40.4997 112.695C40.2477 112.897 40.0781 113.179 40.0211 113.491C39.9641 113.803 40.0234 114.124 40.1886 114.398L46.5516 125.059C46.7147 125.331 46.9718 125.539 47.2777 125.647C47.5836 125.754 47.9188 125.754 48.2246 125.646L56.7711 122.626C58.6151 124.019 60.6535 125.152 62.8259 125.993L64.399 134.68C64.455 134.99 64.6223 135.271 64.8714 135.474C65.1205 135.676 65.4354 135.787 65.7608 135.787H78.4867C78.8122 135.787 79.1272 135.676 79.3763 135.474C79.6254 135.271 79.7926 134.99 79.8485 134.68L81.4217 125.993C83.594 125.152 85.6324 124.019 87.4765 122.626L96.0232 125.646C96.3291 125.753 96.6638 125.753 96.9694 125.645C97.275 125.538 97.532 125.33 97.6959 125.059L104.059 114.39C104.222 114.117 104.28 113.797 104.223 113.487C104.166 113.177 103.998 112.897 103.748 112.695ZM72.1239 116.184C69.5663 116.184 67.066 115.45 64.9395 114.076C62.8129 112.701 61.1556 110.748 60.1768 108.462C59.1981 106.176 58.942 103.661 59.4409 101.235C59.9399 98.8082 61.1714 96.5793 62.9799 94.8299C64.7884 93.0805 67.0927 91.8892 69.6011 91.4065C72.1096 90.9239 74.7096 91.1716 77.0725 92.1184C79.4354 93.0651 81.455 94.6683 82.8759 96.7254C84.2968 98.7825 85.0553 101.201 85.0553 103.675C85.0506 106.991 83.6867 110.17 81.2626 112.515C78.8385 114.86 75.5521 116.179 72.1239 116.184Z"/>
</mask>
<path d="M103.748 112.695L96.7598 107.036C97.1121 104.8 97.1121 102.525 96.7598 100.288L103.748 94.6297C104 94.4275 104.169 94.1453 104.226 93.8333C104.283 93.5214 104.224 93.1999 104.059 92.9264L97.6959 82.2657C97.5324 81.9937 97.2755 81.7859 96.9697 81.6785C96.664 81.5711 96.329 81.571 96.0232 81.6781L87.4765 84.6988C85.6324 83.3058 83.594 82.1723 81.4217 81.3318L79.8485 72.6443C79.7925 72.3345 79.6251 72.0538 79.376 71.8517C79.1268 71.6496 78.8119 71.5391 78.4867 71.5398H65.7608C65.4357 71.5391 65.1208 71.6496 64.8716 71.8517C64.6224 72.0538 64.4551 72.3345 64.399 72.6443L62.8259 81.3318C60.6541 82.1735 58.6159 83.3069 56.7711 84.6988L48.2246 81.6781C47.9189 81.5693 47.5831 81.5685 47.277 81.6761C46.9708 81.7836 46.7139 81.9925 46.5516 82.2657L40.1886 92.9264C40.0234 93.1999 39.9641 93.5214 40.0211 93.8333C40.0781 94.1453 40.2477 94.4275 40.4997 94.6297L47.4878 100.288C47.1359 102.525 47.1359 104.8 47.4878 107.036L40.4997 112.695C40.2477 112.897 40.0781 113.179 40.0211 113.491C39.9641 113.803 40.0234 114.124 40.1886 114.398L46.5516 125.059C46.7147 125.331 46.9718 125.539 47.2777 125.647C47.5836 125.754 47.9188 125.754 48.2246 125.646L56.7711 122.626C58.6151 124.019 60.6535 125.152 62.8259 125.993L64.399 134.68C64.455 134.99 64.6223 135.271 64.8714 135.474C65.1205 135.676 65.4354 135.787 65.7608 135.787H78.4867C78.8122 135.787 79.1272 135.676 79.3763 135.474C79.6254 135.271 79.7926 134.99 79.8485 134.68L81.4217 125.993C83.594 125.152 85.6324 124.019 87.4765 122.626L96.0232 125.646C96.3291 125.753 96.6638 125.753 96.9694 125.645C97.275 125.538 97.532 125.33 97.6959 125.059L104.059 114.39C104.222 114.117 104.28 113.797 104.223 113.487C104.166 113.177 103.998 112.897 103.748 112.695ZM72.1239 116.184C69.5663 116.184 67.066 115.45 64.9395 114.076C62.8129 112.701 61.1556 110.748 60.1768 108.462C59.1981 106.176 58.942 103.661 59.4409 101.235C59.9399 98.8082 61.1714 96.5793 62.9799 94.8299C64.7884 93.0805 67.0927 91.8892 69.6011 91.4065C72.1096 90.9239 74.7096 91.1716 77.0725 92.1184C79.4354 93.0651 81.455 94.6683 82.8759 96.7254C84.2968 98.7825 85.0553 101.201 85.0553 103.675C85.0506 106.991 83.6867 110.17 81.2626 112.515C78.8385 114.86 75.5521 116.179 72.1239 116.184Z" fill="white"/>
<path d="M103.748 112.695L101.231 115.803L101.234 115.806L103.748 112.695ZM96.7598 107.036L92.8085 106.414C92.5863 107.825 93.1329 109.247 94.2427 110.145L96.7598 107.036ZM96.7598 100.288L94.2426 97.1794C93.1329 98.0779 92.5863 99.4999 92.8085 100.91L96.7598 100.288ZM103.748 94.6297L101.244 91.5101C101.24 91.5137 101.235 91.5174 101.231 91.521L103.748 94.6297ZM104.226 93.8333L108.161 94.552L108.161 94.552L104.226 93.8333ZM104.059 92.9264L100.624 94.9764C100.628 94.9822 100.631 94.9879 100.635 94.9936L104.059 92.9264ZM97.6959 82.2657L101.131 80.2157L101.124 80.2053L97.6959 82.2657ZM96.9697 81.6785L95.644 85.4524L95.644 85.4524L96.9697 81.6785ZM96.0232 81.6781L94.7005 77.9031L94.6903 77.9068L96.0232 81.6781ZM87.4765 84.6988L85.0654 87.8905C86.137 88.6999 87.5432 88.9177 88.8094 88.4702L87.4765 84.6988ZM81.4217 81.3318L77.4857 82.0445C77.7341 83.416 78.6784 84.5593 79.9782 85.0622L81.4217 81.3318ZM79.8485 72.6443L75.9124 73.3562L75.9125 73.357L79.8485 72.6443ZM78.4867 71.5398V75.5398L78.4952 75.5398L78.4867 71.5398ZM65.7608 71.5398L65.7523 75.5398H65.7608V71.5398ZM64.399 72.6443L68.335 73.357L68.3352 73.3562L64.399 72.6443ZM62.8259 81.3318L64.2714 85.0614C65.5702 84.558 66.5136 83.4152 66.7619 82.0445L62.8259 81.3318ZM56.7711 84.6988L55.4382 88.4702C56.7036 88.9174 58.1089 88.7002 59.1803 87.8919L56.7711 84.6988ZM48.2246 81.6781L46.8823 85.4462L46.8916 85.4495L48.2246 81.6781ZM47.277 81.6761L45.9512 77.9022L45.9512 77.9022L47.277 81.6761ZM46.5516 82.2657L49.9863 84.3158L49.9912 84.3076L46.5516 82.2657ZM40.1886 92.9264L43.613 94.9936C43.6164 94.9879 43.6199 94.9822 43.6233 94.9764L40.1886 92.9264ZM40.0211 93.8333L43.956 93.1147L43.956 93.1147L40.0211 93.8333ZM40.4997 94.6297L43.0169 91.521C43.0124 91.5174 43.0078 91.5137 43.0033 91.5101L40.4997 94.6297ZM47.4878 100.288L51.4392 100.91C51.6611 99.4994 51.1145 98.0778 50.0049 97.1794L47.4878 100.288ZM47.4878 107.036L50.0049 110.145C51.1144 109.247 51.6611 107.825 51.4392 106.415L47.4878 107.036ZM40.4997 112.695L43.0033 115.814C43.0078 115.811 43.0123 115.807 43.0168 115.803L40.4997 112.695ZM40.0211 113.491L43.956 114.21L43.956 114.21L40.0211 113.491ZM40.1886 114.398L43.6233 112.348C43.6199 112.342 43.6165 112.337 43.613 112.331L40.1886 114.398ZM46.5516 125.059L43.1169 127.109L43.1195 127.113L46.5516 125.059ZM48.2246 125.646L49.5537 129.419L49.5576 129.418L48.2246 125.646ZM56.7711 122.626L59.1821 119.434C58.1105 118.624 56.7043 118.407 55.4381 118.854L56.7711 122.626ZM62.8259 125.993L66.7619 125.28C66.5135 123.909 65.5692 122.765 64.2693 122.262L62.8259 125.993ZM64.399 134.68L68.3354 133.97L68.335 133.968L64.399 134.68ZM64.8714 135.474L62.348 138.577L62.348 138.578L64.8714 135.474ZM65.7608 135.787V131.787H65.7607L65.7608 135.787ZM78.4867 135.787L78.4869 131.787H78.4867V135.787ZM79.3763 135.474L81.8997 138.578L81.8997 138.578L79.3763 135.474ZM79.8485 134.68L75.9125 133.968L75.9121 133.97L79.8485 134.68ZM81.4217 125.993L79.9782 122.262C78.6784 122.765 77.7341 123.909 77.4857 125.28L81.4217 125.993ZM87.4765 122.626L88.8094 118.854C87.5433 118.407 86.137 118.624 85.0654 119.434L87.4765 122.626ZM96.0232 125.646L94.6902 129.418C94.6958 129.42 94.7014 129.422 94.707 129.424L96.0232 125.646ZM96.9694 125.645L95.6436 121.871L95.6436 121.871L96.9694 125.645ZM97.6959 125.059L101.121 127.125C101.124 127.119 101.128 127.113 101.131 127.108L97.6959 125.059ZM104.059 114.39L100.624 112.34L100.624 112.341L104.059 114.39ZM72.1239 116.184V120.184L72.1291 120.184L72.1239 116.184ZM60.1768 108.462L63.8539 106.887H63.8539L60.1768 108.462ZM62.9799 94.8299L60.1989 91.9548L60.1989 91.9549L62.9799 94.8299ZM69.6011 91.4065L68.8453 87.4786H68.8453L69.6011 91.4065ZM77.0725 92.1184L78.5602 88.4053L78.5602 88.4053L77.0725 92.1184ZM82.8759 96.7254L79.5847 98.9988L79.5847 98.9988L82.8759 96.7254ZM85.0553 103.675L89.0553 103.681V103.675H85.0553ZM81.2626 112.515L78.4816 109.64L78.4816 109.64L81.2626 112.515ZM106.265 109.586L99.2769 103.928L94.2427 110.145L101.231 115.803L106.265 109.586ZM100.711 107.659C101.128 105.01 101.128 102.315 100.711 99.6656L92.8085 100.91C93.0958 102.735 93.0958 104.59 92.8085 106.414L100.711 107.659ZM99.2769 103.397L106.265 97.7384L101.231 91.521L94.2426 97.1794L99.2769 103.397ZM106.251 97.7494C107.238 96.9578 107.928 95.8304 108.161 94.552L100.292 93.1146C100.411 92.4602 100.762 91.8971 101.244 91.5101L106.251 97.7494ZM108.161 94.552C108.395 93.2726 108.149 91.9613 107.483 90.8592L100.635 94.9936C100.299 94.4385 100.172 93.7702 100.292 93.1147L108.161 94.552ZM107.494 90.8763L101.131 80.2157L94.2612 84.3158L100.624 94.9764L107.494 90.8763ZM101.124 80.2053C100.47 79.1165 99.4601 78.3137 98.2954 77.9046L95.644 85.4524C95.0908 85.2581 94.5948 84.8709 94.2674 84.3262L101.124 80.2053ZM98.2955 77.9046C97.1323 77.496 95.8633 77.4957 94.7006 77.9031L97.3458 85.4532C96.7947 85.6462 96.1956 85.6462 95.644 85.4524L98.2955 77.9046ZM94.6903 77.9068L86.1435 80.9274L88.8094 88.4702L97.3561 85.4495L94.6903 77.9068ZM89.8875 81.5071C87.7451 79.8887 85.3806 78.5746 82.8651 77.6013L79.9782 85.0622C81.8074 85.77 83.5198 86.7229 85.0654 87.8905L89.8875 81.5071ZM85.3577 80.619L83.7845 71.9315L75.9125 73.357L77.4857 82.0445L85.3577 80.619ZM83.7847 71.9324C83.5548 70.6612 82.8729 69.5376 81.8955 68.7449L76.8565 74.9585C76.3774 74.57 76.0302 74.0078 75.9124 73.3562L83.7847 71.9324ZM81.8955 68.7449C80.9217 67.9553 79.7111 67.5372 78.4782 67.5398L78.4952 75.5398C77.9127 75.541 77.3319 75.344 76.8565 74.9585L81.8955 68.7449ZM78.4867 67.5398H65.7608V75.5398H78.4867V67.5398ZM65.7693 67.5398C64.5365 67.5372 63.3258 67.9553 62.3521 68.7449L67.3911 74.9585C66.9157 75.344 66.3349 75.541 65.7523 75.5398L65.7693 67.5398ZM62.3521 68.7449C61.3747 69.5375 60.6928 70.6612 60.4629 71.9324L68.3352 73.3562C68.2173 74.0078 67.8701 74.57 67.3911 74.9585L62.3521 68.7449ZM60.463 71.9316L58.8899 80.619L66.7619 82.0445L68.335 73.357L60.463 71.9316ZM61.3803 77.6021C58.8669 78.5762 56.504 79.8895 54.3619 81.5057L59.1803 87.8919C60.7278 86.7243 62.4413 85.7707 64.2714 85.0614L61.3803 77.6021ZM58.104 80.9274L49.5575 77.9068L46.8916 85.4495L55.4382 88.4702L58.104 80.9274ZM49.5669 77.9101C48.3987 77.494 47.1213 77.4911 45.9512 77.9022L48.6027 85.45C48.045 85.6459 47.439 85.6445 46.8823 85.4462L49.5669 77.9101ZM45.9512 77.9022C44.7796 78.3137 43.7648 79.1243 43.112 80.2239L49.9912 84.3076C49.6629 84.8606 49.1619 85.2535 48.6027 85.45L45.9512 77.9022ZM43.1169 80.2157L36.7539 90.8763L43.6233 94.9764L49.9863 84.3158L43.1169 80.2157ZM36.7642 90.8592C36.0988 91.9614 35.8525 93.2726 36.0862 94.552L43.956 93.1147C44.0757 93.7701 43.9481 94.4385 43.613 94.9936L36.7642 90.8592ZM36.0862 94.552C36.3197 95.8304 37.0099 96.9578 37.9962 97.7494L43.0033 91.5101C43.4855 91.8971 43.8365 92.4601 43.956 93.1147L36.0862 94.552ZM37.9826 97.7384L44.9706 103.397L50.0049 97.1794L43.0169 91.521L37.9826 97.7384ZM43.5364 99.6664C43.1197 102.315 43.1197 105.01 43.5364 107.658L51.4392 106.415C51.1521 104.59 51.1521 102.734 51.4392 100.91L43.5364 99.6664ZM44.9707 103.928L37.9826 109.586L43.0168 115.803L50.0049 110.145L44.9707 103.928ZM37.9962 109.575C37.0099 110.367 36.3197 111.494 36.0862 112.772L43.956 114.21C43.8365 114.864 43.4855 115.427 43.0033 115.814L37.9962 109.575ZM36.0862 112.772C35.8525 114.052 36.0988 115.363 36.7641 116.465L43.613 112.331C43.9481 112.886 44.0757 113.554 43.956 114.21L36.0862 112.772ZM36.7539 116.448L43.1169 127.109L49.9863 123.009L43.6233 112.348L36.7539 116.448ZM43.1195 127.113C43.7734 128.205 44.7851 129.011 45.9519 129.421L48.6034 121.873C49.1584 122.068 49.656 122.457 49.9838 123.004L43.1195 127.113ZM45.9519 129.421C47.1165 129.83 48.3882 129.83 49.5537 129.419L46.8954 121.874C47.4493 121.679 48.0507 121.679 48.6034 121.873L45.9519 129.421ZM49.5576 129.418L58.1041 126.397L55.4381 118.854L46.8916 121.875L49.5576 129.418ZM54.3601 125.817C56.5024 127.436 58.8668 128.75 61.3824 129.723L64.2693 122.262C62.4403 121.555 60.7279 120.602 59.1821 119.434L54.3601 125.817ZM58.8899 126.706L60.463 135.393L68.335 133.968L66.7619 125.28L58.8899 126.706ZM60.4626 135.391C60.692 136.662 61.3729 137.785 62.348 138.577L67.3948 132.37C67.8717 132.758 68.218 133.319 68.3354 133.97L60.4626 135.391ZM62.348 138.578C63.3212 139.369 64.5305 139.787 65.761 139.787L65.7607 131.787C66.3403 131.787 66.9198 131.984 67.3948 132.37L62.348 138.578ZM65.7608 139.787H78.4867V131.787H65.7608V139.787ZM78.4866 139.787C79.7166 139.787 80.9262 139.369 81.8997 138.578L76.8529 132.37C77.3283 131.984 77.9077 131.787 78.4869 131.787L78.4866 139.787ZM81.8997 138.578C82.8759 137.784 83.5558 136.66 83.7849 135.391L75.9121 133.97C76.0293 133.32 76.3749 132.759 76.8529 132.37L81.8997 138.578ZM83.7845 135.393L85.3577 126.706L77.4857 125.28L75.9125 133.968L83.7845 135.393ZM82.8651 129.723C85.3807 128.75 87.7452 127.436 89.8875 125.817L85.0654 119.434C83.5197 120.602 81.8073 121.555 79.9782 122.262L82.8651 129.723ZM86.1435 126.397L94.6902 129.418L97.3561 121.875L88.8094 118.854L86.1435 126.397ZM94.707 129.424C95.8686 129.828 97.1348 129.827 98.2951 129.419L95.6436 121.871C96.1927 121.678 96.7895 121.678 97.3393 121.869L94.707 129.424ZM98.2951 129.419C99.458 129.011 100.466 128.21 101.121 127.125L94.2711 122.992C94.5979 122.45 95.092 122.065 95.6436 121.871L98.2951 129.419ZM101.131 127.108L107.494 116.438L100.624 112.341L94.2605 123.01L101.131 127.108ZM107.494 116.439C108.149 115.341 108.391 114.037 108.157 112.765L100.289 114.209C100.169 113.557 100.294 112.893 100.624 112.34L107.494 116.439ZM108.157 112.765C107.924 111.494 107.239 110.373 106.261 109.583L101.234 115.806C100.756 115.42 100.408 114.86 100.289 114.209L108.157 112.765ZM72.1239 112.184C70.3284 112.184 68.5835 111.668 67.1108 110.716L62.7682 117.435C65.5486 119.232 68.8042 120.184 72.1239 120.184V112.184ZM67.1108 110.716C65.6395 109.765 64.5134 108.428 63.8539 106.887L56.4998 110.036C57.7978 113.068 59.9863 115.637 62.7682 117.435L67.1108 110.716ZM63.8539 106.887C63.1951 105.349 63.025 103.664 63.359 102.04L55.5229 100.429C54.8589 103.658 55.201 107.004 56.4998 110.036L63.8539 106.887ZM63.359 102.04C63.6931 100.415 64.5215 98.9039 65.761 97.7049L60.1989 91.9549C57.8214 94.2546 56.1867 97.2011 55.5229 100.429L63.359 102.04ZM65.761 97.7049C67.0019 96.5045 68.5991 95.6727 70.3569 95.3345L68.8453 87.4786C65.5863 88.1056 62.5749 89.6565 60.1989 91.9548L65.761 97.7049ZM70.3569 95.3345C72.1152 94.9962 73.9363 95.1709 75.5847 95.8314L78.5602 88.4053C75.4829 87.1723 72.104 86.8516 68.8453 87.4786L70.3569 95.3345ZM75.5847 95.8314C77.2323 96.4915 78.6191 97.6008 79.5847 98.9988L86.1671 94.452C84.2909 91.7359 81.6385 89.6387 78.5602 88.4053L75.5847 95.8314ZM79.5847 98.9988C80.5493 100.395 81.0553 102.022 81.0553 103.675H89.0553C89.0553 100.38 88.0444 97.1698 86.1671 94.452L79.5847 98.9988ZM81.0553 103.669C81.0522 105.883 80.1429 108.033 78.4816 109.64L84.0437 115.39C87.2305 112.307 89.0491 108.099 89.0553 103.681L81.0553 103.669ZM78.4816 109.64C76.8157 111.252 74.5298 112.181 72.1186 112.184L72.1291 120.184C76.5743 120.178 80.8613 118.469 84.0437 115.39L78.4816 109.64Z" fill="white" mask="url(#path-2-outside-1)"/>
<path d="M72.3485 116.463C69.773 116.463 67.2553 115.725 65.1139 114.342C62.9725 112.959 61.3035 110.993 60.3179 108.693C59.3323 106.393 59.0744 103.862 59.5769 101.42C60.0793 98.9787 61.3195 96.7358 63.1406 94.9755C64.9618 93.2152 67.2821 92.0164 69.8081 91.5307C72.3341 91.0451 74.9523 91.2943 77.3317 92.247C79.7111 93.1997 81.7449 94.8129 83.1757 96.8829C84.6066 98.9528 85.3703 101.386 85.3703 103.876M63.7776 130.704L62.9855 126.333C60.798 125.487 58.7453 124.347 56.8884 122.945L48.2821 125.985C47.9742 126.093 47.6366 126.093 47.3286 125.985C47.0205 125.877 46.7617 125.667 46.5974 125.393L40.1899 114.666C40.0236 114.391 39.9639 114.067 40.0212 113.753C40.0786 113.439 40.2494 113.156 40.5032 112.952L47.5402 107.258C47.1858 105.008 47.1858 102.718 47.5402 100.468L40.5032 94.7741C40.2494 94.5706 40.0786 94.2866 40.0212 93.9727C39.9639 93.6588 40.0236 93.3354 40.1899 93.0601L46.5974 82.3328C46.7608 82.0578 47.0195 81.8477 47.3278 81.7394C47.6362 81.6312 47.9743 81.632 48.2821 81.7415L56.8884 84.7811C58.746 83.3805 60.7986 82.24 62.9855 81.393L64.5697 72.6512C64.6261 72.3395 64.7946 72.057 65.0455 71.8537C65.2964 71.6503 65.6135 71.5391 65.941 71.5398H78.7559C79.0833 71.5391 79.4004 71.6503 79.6513 71.8537C79.9022 72.057 80.0708 72.3395 80.1272 72.6512L81.7114 81.393C83.8989 82.2388 85.9516 83.3794 87.8085 84.7811L92.1117 83.2613" stroke="#53A1FF" stroke-width="2" stroke-linecap="round" stroke-linejoin="round"/>
<circle cx="118.849" cy="56.938" r="15.938" fill="white" stroke="#53A1FF" stroke-width="2"/>
<path d="M88.8937 111.952C88.8937 95.4029 102.31 81.885 118.849 81.885C135.389 81.885 148.805 95.4029 148.805 111.952C148.805 112.307 148.516 112.593 148.17 112.593H89.5291C89.1828 112.593 88.8937 112.307 88.8937 111.952Z" fill="white" stroke="#53A1FF" stroke-width="2"/>
<path d="M106.306 120.73C102.767 119.147 98.9958 118.344 95.0953 118.344C84.2127 118.344 75.4634 123.432 70.8007 132.378L90.751 152.78L92.9152 150.644C95.2973 148.29 98.4376 146.993 101.755 146.993H135.609C140.238 146.993 144.617 145.19 147.952 141.916L170.793 113.99C172.613 111.787 172.341 108.494 170.196 106.639C168.053 104.791 164.831 105.069 163.016 107.26C156.603 115.085 142.168 131.366 142.168 131.366H136.246C139.055 131.366 141.339 129.03 141.339 126.157C141.339 123.252 139.007 120.949 136.246 120.949H107.327C106.976 120.949 106.629 120.875 106.306 120.73Z" fill="white"/>
<path d="M115.469 131.366H136.246C139.055 131.366 141.339 129.03 141.339 126.157C141.339 123.252 139.007 120.949 136.246 120.949H107.327C106.976 120.949 106.629 120.875 106.306 120.73C102.767 119.147 98.9958 118.344 95.0953 118.344C84.2127 118.344 75.4634 123.432 70.8007 132.378L90.751 152.78L92.9152 150.644C95.2973 148.29 98.4376 146.993 101.755 146.993H135.609C140.238 146.993 144.617 145.19 147.952 141.916L170.793 113.99C172.613 111.787 172.341 108.494 170.196 106.639C168.053 104.791 164.831 105.069 163.016 107.26C156.603 115.085 142.168 131.366 142.168 131.366H136.347" stroke="#B8C0CC" stroke-width="2" stroke-linecap="round"/>
<path d="M77.8339 170.572L54.2436 146.233L63.8704 136.348L63.9332 136.283L63.9834 136.209C64.134 135.985 64.4045 135.739 64.6767 135.653C64.7948 135.615 64.9096 135.608 65.034 135.64C65.1614 135.672 65.3563 135.761 65.6063 136.003C65.6056 136.002 65.611 136.007 65.627 136.023L65.6877 136.084C65.7388 136.136 65.8096 136.208 65.8991 136.298C66.0778 136.48 66.3292 136.735 66.6431 137.055C67.2707 137.693 68.1467 138.586 69.1876 139.647C71.2692 141.768 74.0094 144.563 76.7378 147.346C79.4661 150.13 82.1827 152.902 84.2171 154.978L86.6735 157.484L87.3609 158.186L87.5419 158.371L87.5883 158.418L87.6 158.43L87.6028 158.433L87.603 158.433L87.6034 158.433C88.2287 159.074 88.1947 160.109 87.619 160.701C87.6183 160.702 87.6175 160.703 87.6167 160.704L77.8339 170.572Z" fill="white" stroke="#B8C0CC" stroke-width="2"/>
</svg>
