<svg width="82" height="72" viewBox="0 0 82 72" fill="none" xmlns="http://www.w3.org/2000/svg">
<path d="M14.8378 0.959961H65.3463L79.7338 17.2446L41.3168 70.08L1.89563 18.3835L14.8378 0.959961Z" stroke="#B8C0CC" stroke-width="1.88" stroke-miterlimit="10"/>
<path d="M23.2212 27.4801C23.2212 25.3594 24.9185 23.6401 27.0124 23.6401H30.6852V34.4401H27.0124C24.9185 34.4401 23.2212 32.7209 23.2212 30.6001V27.4801Z" stroke="#53A1FF" stroke-width="1.88"/>
<path d="M58.4083 27.4801C58.4083 25.3594 56.7109 23.6401 54.6171 23.6401H50.9443V34.4401H54.6171C56.7109 34.4401 58.4083 32.7209 58.4083 30.6001V27.4801Z" stroke="#53A1FF" stroke-width="1.88"/>
<path d="M53.0769 23.6399V17.9999C53.0769 12.1678 48.4092 7.43994 42.6511 7.43994H38.9783C33.2203 7.43994 28.5525 12.1678 28.5525 17.9999V23.6399" stroke="#53A1FF" stroke-width="1.88"/>
<path d="M53.077 34.4399V37.4399C53.077 41.1513 50.1066 44.1599 46.4424 44.1599H45.613" stroke="#53A1FF" stroke-width="1.88"/>
<path d="M43.4804 42H40.2816C39.1038 42 38.149 42.9671 38.149 44.16C38.149 45.3529 39.1038 46.32 40.2816 46.32H43.4804C44.6582 46.32 45.613 45.3529 45.613 44.16C45.613 42.9671 44.6582 42 43.4804 42Z" stroke="#53A1FF" stroke-width="1.88"/>
</svg>
