<svg width="199" height="180" viewBox="0 0 199 180" fill="none" xmlns="http://www.w3.org/2000/svg">
<path d="M90 180C139.706 180 180 139.706 180 90C180 40.2944 139.706 0 90 0C40.2944 0 0 40.2944 0 90C0 139.706 40.2944 180 90 180Z" fill="#F0F4F7"/>
<path d="M167.885 126.346C175.532 126.346 181.731 120.147 181.731 112.5C181.731 104.853 175.532 98.6538 167.885 98.6538C160.238 98.6538 154.038 104.853 154.038 112.5C154.038 120.147 160.238 126.346 167.885 126.346Z" fill="white" stroke="#B8C0CC" stroke-width="2" stroke-miterlimit="10" stroke-linecap="round"/>
<path d="M62.3077 126.346C69.9547 126.346 76.1539 120.147 76.1539 112.5C76.1539 104.853 69.9547 98.6538 62.3077 98.6538C54.6607 98.6538 48.4615 104.853 48.4615 112.5C48.4615 120.147 54.6607 126.346 62.3077 126.346Z" fill="white" stroke="#B8C0CC" stroke-width="2" stroke-miterlimit="10" stroke-linecap="round"/>
<path d="M196.303 166.154C196.856 166.154 197.303 165.706 197.303 165.154V162.09C197.37 158.329 196.658 154.592 195.209 151.098C193.76 147.604 191.604 144.423 188.865 141.741C186.127 139.058 182.862 136.927 179.259 135.473C175.657 134.018 171.79 133.269 167.884 133.269C163.979 133.269 160.112 134.018 156.51 135.473C152.908 136.927 149.642 139.058 146.903 141.741C144.165 144.423 142.009 147.604 140.56 151.098C139.111 154.592 138.4 158.329 138.466 162.09V165.154" fill="white"/>
<path d="M197.303 162.09V165.154C197.303 165.706 196.856 166.154 196.303 166.154H139.466C138.913 166.154 138.466 165.706 138.466 165.154V162.09C138.4 158.329 139.111 154.592 140.56 151.098C142.009 147.604 144.165 144.423 146.903 141.741C149.642 139.058 152.908 136.927 156.51 135.473C160.112 134.018 163.979 133.269 167.884 133.269C171.79 133.269 175.657 134.018 179.259 135.473C182.862 136.927 186.127 139.058 188.865 141.741C191.604 144.423 193.76 147.604 195.209 151.098C196.658 154.592 197.37 158.329 197.303 162.09Z" stroke="#B8C0CC" stroke-width="2" stroke-miterlimit="10" stroke-linecap="round"/>
<path d="M90.7266 166.154C91.2788 166.154 91.7266 165.706 91.7266 165.154V162.09C91.7928 158.329 91.0807 154.592 89.632 151.098C88.1834 147.604 86.027 144.423 83.2886 141.741C80.5502 139.058 77.2848 136.927 73.6826 135.473C70.0804 134.018 66.2135 133.269 62.3076 133.269C58.4017 133.269 54.5351 134.018 50.9329 135.473C47.3306 136.927 44.065 139.058 41.3266 141.741C38.5882 144.423 36.4318 147.604 34.9831 151.098C33.5344 154.592 32.8226 158.329 32.8889 162.09V165.154" fill="white"/>
<path d="M91.7266 162.09V165.154C91.7266 165.706 91.2788 166.154 90.7266 166.154H33.8889C33.3366 166.154 32.8889 165.706 32.8889 165.154V162.09C32.8226 158.329 33.5344 154.592 34.9831 151.098C36.4318 147.604 38.5882 144.423 41.3266 141.741C44.065 139.058 47.3306 136.927 50.9329 135.473C54.5351 134.018 58.4017 133.269 62.3076 133.269C66.2135 133.269 70.0804 134.018 73.6826 135.473C77.2848 136.927 80.5502 139.058 83.2886 141.741C86.027 144.423 88.1834 147.604 89.632 151.098C91.0807 154.592 91.7928 158.329 91.7266 162.09Z" stroke="#B8C0CC" stroke-width="2" stroke-miterlimit="10" stroke-linecap="round"/>
<path d="M115.962 110.769C135.079 110.769 150.577 95.2715 150.577 76.154C150.577 57.0364 135.079 41.5386 115.962 41.5386C96.844 41.5386 81.3461 57.0364 81.3461 76.154C81.3461 95.2715 96.844 110.769 115.962 110.769Z" fill="white" stroke="#B8C0CC" stroke-width="2" stroke-miterlimit="10"/>
<path d="M70.9615 60.493C77.2419 41.4457 95.004 27.6924 115.948 27.6924C136.919 27.6924 154.709 41.4737 160.962 60.577" stroke="#B8C0CC" stroke-width="2" stroke-miterlimit="10"/>
<path d="M70.0961 90C67.7176 90 65.7692 87.8004 65.7692 85.1152V65.4617C65.7692 62.7765 67.7176 60.5769 70.0961 60.5769C72.4747 60.5769 74.4231 62.7765 74.4231 65.4617V85.1152C74.4231 87.8004 72.4747 90 70.0961 90Z" fill="white" stroke="#B8C0CC" stroke-width="2" stroke-miterlimit="10"/>
<path d="M161.827 90C159.448 90 157.5 87.8004 157.5 85.1152V65.4617C157.5 62.7765 159.448 60.5769 161.827 60.5769C164.205 60.5769 166.154 62.7765 166.154 65.4617V85.1152C166.154 87.8004 164.205 90 161.827 90Z" fill="white" stroke="#B8C0CC" stroke-width="2" stroke-miterlimit="10"/>
<path d="M165.758 166.154C165.917 166.154 166.046 166.025 166.046 165.866C166.046 141.217 146.064 121.245 121.416 121.264C117.743 121.267 114.071 121.269 110.399 121.271C85.7696 121.283 65.7692 141.235 65.7692 165.865C65.7692 166.024 65.8986 166.154 66.0583 166.154H165.758Z" fill="white" stroke="#B8C0CC" stroke-width="2" stroke-miterlimit="10"/>
<path d="M148.678 104.362C148.678 104.362 162.583 103.829 162.583 90.0166" stroke="#B8C0CC" stroke-width="2" stroke-miterlimit="10"/>
<path d="M148.678 101.976V106.749C148.678 109.388 146.524 111.55 143.894 111.55H128.785C126.155 111.55 124.001 109.388 124.001 106.749V101.976C124.001 99.3375 126.155 97.1758 128.785 97.1758H143.894C146.524 97.1758 148.678 99.3375 148.678 101.976Z" fill="white" stroke="#53A1FF" stroke-width="2" stroke-miterlimit="10"/>
</svg>
