<svg width="180" height="180" viewBox="0 0 180 180" fill="none" xmlns="http://www.w3.org/2000/svg">
<path d="M90 180C139.706 180 180 139.706 180 90C180 40.2944 139.706 0 90 0C40.2944 0 0 40.2944 0 90C0 139.706 40.2944 180 90 180Z" fill="#F0F4F7"/>
<path d="M129.4 112.1C135.144 112.1 139.8 107.444 139.8 101.7C139.8 95.9563 135.144 91.3 129.4 91.3C123.656 91.3 119 95.9563 119 101.7C119 107.444 123.656 112.1 129.4 112.1Z" fill="white" stroke="#B8C0CC" stroke-width="2" stroke-miterlimit="10" stroke-linecap="round"/>
<path d="M50.0998 112.1C55.8436 112.1 60.4998 107.444 60.4998 101.7C60.4998 95.9563 55.8436 91.3 50.0998 91.3C44.3561 91.3 39.6998 95.9563 39.6998 101.7C39.6998 107.444 44.3561 112.1 50.0998 112.1Z" fill="white" stroke="#B8C0CC" stroke-width="2" stroke-miterlimit="10" stroke-linecap="round"/>
<path d="M150.497 142C151.049 142 151.497 141.552 151.497 141V138.948C151.546 136.123 151.012 133.316 149.923 130.692C148.835 128.067 147.216 125.678 145.159 123.663C143.102 121.648 140.649 120.047 137.944 118.955C135.238 117.863 132.333 117.3 129.4 117.3C126.466 117.3 123.562 117.863 120.856 118.955C118.15 120.047 115.697 121.648 113.641 123.663C111.584 125.678 109.964 128.067 108.876 130.692C107.788 133.316 107.253 136.123 107.303 138.948V141" fill="white"/>
<path d="M151.497 138.948V141C151.497 141.552 151.049 142 150.497 142H108.303C107.751 142 107.303 141.552 107.303 141V138.948C107.253 136.123 107.788 133.316 108.876 130.692C109.964 128.067 111.584 125.678 113.641 123.663C115.697 121.648 118.15 120.047 120.856 118.955C123.562 117.863 126.466 117.3 129.4 117.3C132.333 117.3 135.238 117.863 137.944 118.955C140.649 120.047 143.102 121.648 145.159 123.663C147.216 125.678 148.835 128.067 149.923 130.692C151.012 133.316 151.546 136.123 151.497 138.948Z" stroke="#B8C0CC" stroke-width="2" stroke-miterlimit="10" stroke-linecap="round"/>
<path d="M71.1969 142C71.7491 142 72.1969 141.552 72.1969 141V138.948C72.2466 136.123 71.7118 133.316 70.6236 130.692C69.5355 128.067 67.9158 125.678 65.859 123.663C63.8022 121.648 61.3495 120.047 58.6438 118.955C55.9381 117.863 53.0337 117.3 50.0999 117.3C47.1662 117.3 44.2619 117.863 41.5562 118.955C38.8506 120.047 36.3977 121.648 34.3408 123.663C32.284 125.678 30.6643 128.067 29.5762 130.692C28.4881 133.316 27.9534 136.123 28.0032 138.948V141" fill="white"/>
<path d="M72.1969 138.948V141C72.1969 141.552 71.7491 142 71.1969 142H29.0032C28.4509 142 28.0032 141.552 28.0032 141V138.948C27.9534 136.123 28.4881 133.316 29.5762 130.692C30.6643 128.067 32.284 125.678 34.3408 123.663C36.3977 121.648 38.8506 120.047 41.5562 118.955C44.2619 117.863 47.1662 117.3 50.0999 117.3C53.0337 117.3 55.9381 117.863 58.6438 118.955C61.3495 120.047 63.8022 121.648 65.859 123.663C67.9158 125.678 69.5355 128.067 70.6236 130.692C71.7118 133.316 72.2466 136.123 72.1969 138.948Z" stroke="#B8C0CC" stroke-width="2" stroke-miterlimit="10" stroke-linecap="round"/>
<path d="M90.4003 100.4C104.76 100.4 116.4 88.7596 116.4 74.4002C116.4 60.0408 104.76 48.4001 90.4003 48.4001C76.0409 48.4001 64.4003 60.0408 64.4003 74.4002C64.4003 88.7596 76.0409 100.4 90.4003 100.4Z" fill="white" stroke="#B8C0CC" stroke-width="2" stroke-miterlimit="10"/>
<path d="M56.6002 62.6369C61.3174 48.3302 74.6587 38 90.3898 38C106.142 38 119.504 48.3513 124.2 62.7" stroke="#B8C0CC" stroke-width="2" stroke-miterlimit="10"/>
<path d="M55.9501 84.8C54.1635 84.8 52.7001 83.1478 52.7001 81.1309V66.369C52.7001 64.3521 54.1635 62.7 55.9501 62.7C57.7366 62.7 59.2001 64.3521 59.2001 66.369V81.1309C59.2001 83.1478 57.7366 84.8 55.9501 84.8Z" fill="white" stroke="#B8C0CC" stroke-width="2" stroke-miterlimit="10"/>
<path d="M124.85 84.8C123.063 84.8 121.6 83.1478 121.6 81.1309V66.369C121.6 64.3521 123.063 62.7 124.85 62.7C126.636 62.7 128.1 64.3521 128.1 66.369V81.1309C128.1 83.1478 126.636 84.8 124.85 84.8Z" fill="white" stroke="#B8C0CC" stroke-width="2" stroke-miterlimit="10"/>
<path d="M127.803 142C127.922 142 128.019 141.903 128.019 141.784C128.019 123.27 113.011 108.268 94.4967 108.283C91.7385 108.285 88.9803 108.287 86.2222 108.288C67.7226 108.297 52.7001 123.283 52.7001 141.783C52.7001 141.903 52.7973 142 52.9172 142H127.803Z" fill="white" stroke="#B8C0CC" stroke-width="2" stroke-miterlimit="10"/>
<path d="M114.974 95.5878C114.974 95.5878 125.418 95.1872 125.418 84.8125" stroke="#B8C0CC" stroke-width="2" stroke-miterlimit="10"/>
<path d="M114.974 93.7955V97.3803C114.974 99.3624 113.356 100.986 111.38 100.986H100.032C98.0566 100.986 96.4384 99.3624 96.4384 97.3803V93.7955C96.4384 91.8134 98.0566 90.1897 100.032 90.1897H111.38C113.356 90.1897 114.974 91.8134 114.974 93.7955Z" fill="white" stroke="#53A1FF" stroke-width="2" stroke-miterlimit="10"/>
</svg>
