<svg width="180" height="180" viewBox="0 0 180 180" fill="none" xmlns="http://www.w3.org/2000/svg">
<path d="M90 180C139.706 180 180 139.706 180 90C180 40.2944 139.706 0 90 0C40.2944 0 0 40.2944 0 90C0 139.706 40.2944 180 90 180Z" fill="#F0F4F7"/>
<path d="M81.5611 125.381C81.7587 124.459 82.5736 123.8 83.5167 123.8H95.8831C96.8261 123.8 97.6411 124.459 97.8387 125.381L100.882 139.581C101.148 140.826 100.199 142 98.9259 142H80.4739C79.2006 142 78.2515 140.826 78.5182 139.581L81.5611 125.381Z" fill="white" stroke="#B8C0CC" stroke-width="2"/>
<rect x="39" y="58.7998" width="101.4" height="64.9999" rx="4" fill="white" stroke="#B8C0CC" stroke-width="2"/>
<path d="M39 62.7998C39 60.5907 40.7909 58.7998 43 58.7998H136.4C138.609 58.7998 140.4 60.5907 140.4 62.7998V110.8H39V62.7998Z" fill="white" stroke="#53A1FF" stroke-width="2"/>
<path d="M62.9072 142H116.538" stroke="#B8C0CC" stroke-width="2" stroke-linecap="round"/>
<rect x="44.1998" y="38" width="91" height="71.5" rx="2" fill="white"/>
<path d="M135.2 109.5V40C135.2 38.8954 134.304 38 133.2 38H89.6998M44.1998 109.5V74.4M89.6998 109.5V74.4M89.6998 38H46.1998C45.0953 38 44.1998 38.8954 44.1998 40V74.4M89.6998 38V74.4M89.6998 74.4H44.1998" stroke="#B8C0CC" stroke-width="2"/>
<circle cx="67.5999" cy="48.3999" r="5.5" fill="white" stroke="#53A1FF" stroke-width="2"/>
<circle cx="67.5999" cy="83.5" r="5.5" fill="white" stroke="#53A1FF" stroke-width="2"/>
<path d="M80.7474 68.6757C80.809 69.0399 80.5079 69.5 79.9001 69.5H55.3001C54.6922 69.5 54.3911 69.0399 54.4527 68.6757C55.4154 62.9812 60.8727 58.5 67.6 58.5C74.3274 58.5 79.7847 62.9812 80.7474 68.6757Z" fill="white" stroke="#B8C0CC" stroke-width="2"/>
<path d="M80.7474 103.776C80.809 104.14 80.5079 104.6 79.9001 104.6H55.3001C54.6922 104.6 54.3911 104.14 54.4527 103.776C55.4154 98.0811 60.8727 93.5999 67.6 93.5999C74.3274 93.5999 79.7847 98.0811 80.7474 103.776Z" fill="white" stroke="#B8C0CC" stroke-width="2"/>
<path d="M97.2 84.2C97.2 83.6477 97.6477 83.2 98.2 83.2H126.7C127.252 83.2 127.7 83.6477 127.7 84.2V101.7V104.486L124.793 101.579C124.23 101.016 123.467 100.7 122.672 100.7H98.2C97.6477 100.7 97.2 100.252 97.2 99.7V84.2Z" fill="white" stroke="#B8C0CC" stroke-width="2"/>
<path d="M102.7 88.7H122.2" stroke="#53A1FF" stroke-width="2" stroke-linecap="round"/>
<path d="M102.7 93.8999H111.8" stroke="#53A1FF" stroke-width="2" stroke-linecap="round"/>
<path d="M127.7 59.5C127.7 58.9477 127.252 58.5 126.7 58.5H98.1998C97.6475 58.5 97.1998 58.9477 97.1998 59.5V73.1V75.8858L100.107 72.9787C100.67 72.4161 101.433 72.1 102.228 72.1H126.7C127.252 72.1 127.7 71.6523 127.7 71.1V59.5Z" fill="white" stroke="#B8C0CC" stroke-width="2"/>
<path d="M102.7 65.2998H122.2" stroke="#53A1FF" stroke-width="2" stroke-linecap="round"/>
</svg>
