<svg width="97" height="82" viewBox="0 0 97 82" fill="none" xmlns="http://www.w3.org/2000/svg">
<path d="M79 60C83.9706 60 88 55.9706 88 51C88 46.0294 83.9706 42 79 42C74.0294 42 70 46.0294 70 51C70 55.9706 74.0294 60 79 60Z" fill="white" stroke="#B8C0CC" stroke-width="2" stroke-miterlimit="10" stroke-linecap="round"/>
<path d="M18 60C22.9706 60 27 55.9706 27 51C27 46.0294 22.9706 42 18 42C13.0294 42 9 46.0294 9 51C9 55.9706 13.0294 60 18 60Z" fill="white" stroke="#B8C0CC" stroke-width="2" stroke-miterlimit="10" stroke-linecap="round"/>
<path d="M94.9976 81C95.5498 81 95.9976 80.5523 95.9976 80V78.6522C96.0358 76.4788 95.6244 74.3198 94.7874 72.3011C93.9504 70.2825 92.7044 68.4446 91.1223 66.8946C89.5401 65.3446 87.6534 64.1134 85.5721 63.273C83.4909 62.4327 81.2567 62 78.9999 62C76.7432 62 74.5091 62.4327 72.4279 63.273C70.3466 64.1134 68.4597 65.3446 66.8776 66.8946C65.2954 68.4446 64.0495 70.2825 63.2125 72.3011C62.3754 74.3198 61.9642 76.4788 62.0024 78.6522V80" fill="white"/>
<path d="M95.9976 78.6522V80C95.9976 80.5523 95.5498 81 94.9976 81H63.0024C62.4502 81 62.0024 80.5523 62.0024 80V78.6522C61.9642 76.4788 62.3754 74.3198 63.2125 72.3011C64.0495 70.2825 65.2954 68.4446 66.8776 66.8946C68.4597 65.3446 70.3466 64.1134 72.4279 63.273C74.5091 62.4327 76.7432 62 78.9999 62C81.2567 62 83.4909 62.4327 85.5721 63.273C87.6534 64.1134 89.5401 65.3446 91.1223 66.8946C92.7044 68.4446 93.9504 70.2825 94.7874 72.3011C95.6244 74.3198 96.0358 76.4788 95.9976 78.6522Z" stroke="#B8C0CC" stroke-width="2" stroke-miterlimit="10" stroke-linecap="round"/>
<path d="M33.9976 81C34.5498 81 34.9976 80.5523 34.9976 80V78.6522C35.0358 76.4788 34.6244 74.3198 33.7874 72.3011C32.9504 70.2825 31.7044 68.4446 30.1223 66.8946C28.5401 65.3446 26.6534 64.1134 24.5721 63.273C22.4909 62.4327 20.2567 62 17.9999 62C15.7432 62 13.5091 62.4327 11.4279 63.273C9.34658 64.1134 7.45974 65.3446 5.87757 66.8946C4.2954 68.4446 3.04948 70.2825 2.21246 72.3011C1.37543 74.3198 0.964168 76.4788 1.00245 78.6522V80" fill="white"/>
<path d="M34.9976 78.6522V80C34.9976 80.5523 34.5498 81 33.9976 81H2.00245C1.45016 81 1.00245 80.5523 1.00245 80V78.6522C0.964168 76.4788 1.37543 74.3198 2.21246 72.3011C3.04948 70.2825 4.2954 68.4446 5.87757 66.8946C7.45974 65.3446 9.34658 64.1134 11.4279 63.273C13.5091 62.4327 15.7432 62 17.9999 62C20.2567 62 22.4909 62.4327 24.5721 63.273C26.6534 64.1134 28.5401 65.3446 30.1223 66.8946C31.7044 68.4446 32.9504 70.2825 33.7874 72.3011C34.6244 74.3198 35.0358 76.4788 34.9976 78.6522Z" stroke="#B8C0CC" stroke-width="2" stroke-miterlimit="10" stroke-linecap="round"/>
<path d="M48.2626 49.6293C59.7352 49.6293 69.0355 40.2974 69.0355 28.7859C69.0355 17.2744 59.7352 7.9425 48.2626 7.9425C36.7901 7.9425 27.4897 17.2744 27.4897 28.7859C27.4897 40.2974 36.7901 49.6293 48.2626 49.6293Z" fill="#FCFDFF" stroke="#B8C0CC" stroke-width="2" stroke-miterlimit="10"/>
<path d="M21.9783 19.9943C25.6479 8.96429 36.0262 1 48.2636 1C60.5172 1 70.9117 8.98051 74.5652 20.0429" stroke="#B8C0CC" stroke-width="2" stroke-miterlimit="10"/>
<path d="M20.7643 37.0098C19.2448 37.0098 18 35.7608 18 34.2361V23.0763C18 21.5516 19.2448 20.3026 20.7643 20.3026C22.2839 20.3026 23.5287 21.5516 23.5287 23.0763V34.2361C23.5287 35.7608 22.2839 37.0098 20.7643 37.0098Z" stroke="#B8C0CC" stroke-width="2" stroke-miterlimit="10"/>
<path d="M75.9379 37.0098C74.4183 37.0098 73.1736 35.7608 73.1736 34.2361V23.0763C73.1736 21.5516 74.4183 20.3026 75.9379 20.3026C77.4575 20.3026 78.7022 21.5516 78.7022 23.0763V34.2361C78.7022 35.7608 77.4575 37.0098 75.9379 37.0098Z" stroke="#B8C0CC" stroke-width="2" stroke-miterlimit="10"/>
<path d="M77.1459 81C77.2378 81 77.3122 80.9255 77.3122 80.8336C77.3122 66.5921 65.7672 55.0527 51.5257 55.0636C49.404 55.0652 47.2824 55.0666 45.1607 55.0676C30.9303 55.0744 19.3745 66.6025 19.3745 80.833C19.3745 80.9252 19.4493 81 19.5415 81H77.1459Z" fill="#FCFDFF" stroke="#B8C0CC" stroke-width="2" stroke-miterlimit="10"/>
<path d="M67.9028 45.2981C67.9028 45.2981 75.9372 44.9899 75.9372 37.0094" stroke="#B8C0CC" stroke-width="2" stroke-miterlimit="10"/>
<path d="M67.9029 43.9197V46.6772C67.9029 48.2019 66.6581 49.4509 65.1386 49.4509H56.4091C54.8895 49.4509 53.6448 48.2019 53.6448 46.6772V43.9197C53.6448 42.395 54.8895 41.146 56.4091 41.146H65.1386C66.6581 41.146 67.9029 42.395 67.9029 43.9197Z" fill="white" stroke="#53A1FF" stroke-width="2" stroke-miterlimit="10"/>
</svg>
