<svg width="189" height="39" viewBox="0 0 189 39" fill="none" xmlns="http://www.w3.org/2000/svg">
<path d="M18 1.78891C8.10526 1.78891 0 9.93586 0 19.8815C0 29.7213 8 37.7889 17.8158 37.7889H33.4211C34.8421 37.7889 36 36.6251 36 35.1967V19.855C36 9.93586 27.8947 1.78891 18 1.78891Z" fill="url(#paint0_linear)"/>
<path d="M19.0154 7C11.3008 7 5 13.3286 5 21.0772C5 28.7332 11.2393 35 18.8617 35H31.0022C32.1087 35 33 34.1047 33 32.9934V21.0463C33 13.3286 26.6992 7 19.0154 7ZM18.9846 28.054C15.0505 28.054 11.8847 24.8743 11.8847 20.9846C11.8847 17.0948 15.0505 13.946 18.9846 13.946C22.9188 13.946 26.0845 17.0948 26.0845 20.9846C26.0845 24.8743 22.888 28.054 18.9846 28.054Z" fill="white"/>
<path d="M58.1321 30.2109C56.9719 30.2109 55.8762 29.9941 54.845 29.5605C53.8137 29.1152 52.9055 28.4941 52.1204 27.6973C51.3352 26.9121 50.72 25.998 50.2747 24.9551C49.8411 23.9121 49.6243 22.8047 49.6243 21.6328C49.6243 20.4609 49.8411 19.3535 50.2747 18.3105C50.72 17.2676 51.3352 16.3477 52.1204 15.5508C52.9055 14.7539 53.8137 14.1387 54.845 13.7051C55.8762 13.2598 56.9719 13.0371 58.1321 13.0371C59.2922 13.0371 60.3821 13.2539 61.4016 13.6875C62.4329 14.1211 63.3411 14.7305 64.1262 15.5156C64.8997 16.3008 65.5032 17.209 65.9368 18.2402C66.3821 19.2715 66.6165 20.3672 66.6399 21.5273V28.5234C66.6399 28.9688 66.4875 29.3496 66.1829 29.666C65.8782 29.9707 65.5032 30.123 65.0579 30.123C64.6125 30.123 64.2493 29.9707 63.968 29.666C63.6868 29.3613 63.5461 28.9805 63.5461 28.5234L63.5286 28.2773C62.7786 28.8984 61.9407 29.3789 61.0149 29.7188C60.1008 30.0469 59.1399 30.2109 58.1321 30.2109ZM58.1321 27.0996C58.8938 27.0996 59.6028 26.959 60.259 26.6777C60.9153 26.3965 61.4954 25.998 61.9993 25.4824C62.4915 24.9785 62.8723 24.3984 63.1418 23.7422C63.4114 23.0742 63.5461 22.3711 63.5461 21.6328C63.5461 20.8945 63.4114 20.1973 63.1418 19.541C62.8723 18.873 62.4915 18.2871 61.9993 17.7832C61.4954 17.2793 60.9094 16.8867 60.2415 16.6055C59.5852 16.3242 58.8821 16.1836 58.1321 16.1836C57.3821 16.1836 56.679 16.3242 56.0227 16.6055C55.3665 16.8867 54.7922 17.2793 54.3 17.7832C53.8079 18.2871 53.4211 18.873 53.1399 19.541C52.8704 20.1973 52.7356 20.8945 52.7356 21.6328C52.7356 22.3711 52.8704 23.0742 53.1399 23.7422C53.4211 24.3984 53.8079 24.9785 54.3 25.4824C54.7922 25.998 55.3665 26.3965 56.0227 26.6777C56.679 26.959 57.3821 27.0996 58.1321 27.0996ZM71.4387 36.0996C71.0051 36.0996 70.6301 35.9414 70.3137 35.625C70.009 35.3203 69.8567 34.9395 69.8567 34.4824V21.6328C69.8567 20.4727 70.0793 19.3711 70.5247 18.3281C70.97 17.2734 71.5911 16.3477 72.3879 15.5508C73.1731 14.7656 74.0872 14.1504 75.1301 13.7051C76.1848 13.2598 77.2922 13.0371 78.4524 13.0371C79.6125 13.0371 80.7141 13.2598 81.7571 13.7051C82.8118 14.1504 83.7317 14.7656 84.5168 15.5508C85.302 16.3477 85.9114 17.2676 86.345 18.3105C86.7903 19.3535 87.0129 20.4609 87.0129 21.6328C87.0129 22.8047 86.7903 23.9121 86.345 24.9551C85.9114 25.998 85.302 26.9121 84.5168 27.6973C83.7317 28.4824 82.8118 29.0977 81.7571 29.543C80.7141 29.9883 79.6125 30.2109 78.4524 30.2109C77.3977 30.2109 76.4075 30.041 75.4817 29.7012C74.5559 29.3613 73.7122 28.8691 72.9504 28.2246V34.4824C72.9504 34.9395 72.8098 35.3203 72.5286 35.625C72.2473 35.9414 71.884 36.0996 71.4387 36.0996ZM78.4524 27.0996C79.2024 27.0996 79.9114 26.959 80.5793 26.6777C81.2473 26.3965 81.8333 25.998 82.3372 25.4824C82.8411 24.9785 83.2278 24.3984 83.4973 23.7422C83.7786 23.0742 83.9192 22.3711 83.9192 21.6328C83.9192 20.8945 83.7786 20.1973 83.4973 19.541C83.2278 18.873 82.8411 18.2871 82.3372 17.7832C81.8333 17.2793 81.2473 16.8867 80.5793 16.6055C79.9114 16.3242 79.2024 16.1836 78.4524 16.1836C77.7024 16.1836 76.9934 16.3242 76.3254 16.6055C75.6575 16.8867 75.0715 17.2793 74.5676 17.7832C74.0637 18.2871 73.6711 18.873 73.3899 19.541C73.1086 20.1973 72.968 20.8945 72.968 21.6328C72.968 22.3711 73.1086 23.0742 73.3899 23.7422C73.6711 24.3984 74.0637 24.9785 74.5676 25.4824C75.0715 25.998 75.6575 26.3965 76.3254 26.6777C76.9934 26.959 77.7024 27.0996 78.4524 27.0996ZM90.9504 36.0996C90.5168 36.0996 90.1418 35.9414 89.8254 35.625C89.5208 35.3203 89.3684 34.9395 89.3684 34.4824V21.6328C89.3684 20.4727 89.5911 19.3711 90.0364 18.3281C90.4817 17.2734 91.1028 16.3477 91.8997 15.5508C92.6848 14.7656 93.5989 14.1504 94.6418 13.7051C95.6965 13.2598 96.804 13.0371 97.9641 13.0371C99.1243 13.0371 100.226 13.2598 101.269 13.7051C102.323 14.1504 103.243 14.7656 104.029 15.5508C104.814 16.3477 105.423 17.2676 105.857 18.3105C106.302 19.3535 106.525 20.4609 106.525 21.6328C106.525 22.8047 106.302 23.9121 105.857 24.9551C105.423 25.998 104.814 26.9121 104.029 27.6973C103.243 28.4824 102.323 29.0977 101.269 29.543C100.226 29.9883 99.1243 30.2109 97.9641 30.2109C96.9094 30.2109 95.9192 30.041 94.9934 29.7012C94.0676 29.3613 93.2239 28.8691 92.4622 28.2246V34.4824C92.4622 34.9395 92.3215 35.3203 92.0403 35.625C91.759 35.9414 91.3958 36.0996 90.9504 36.0996ZM97.9641 27.0996C98.7141 27.0996 99.4231 26.959 100.091 26.6777C100.759 26.3965 101.345 25.998 101.849 25.4824C102.353 24.9785 102.74 24.3984 103.009 23.7422C103.29 23.0742 103.431 22.3711 103.431 21.6328C103.431 20.8945 103.29 20.1973 103.009 19.541C102.74 18.873 102.353 18.2871 101.849 17.7832C101.345 17.2793 100.759 16.8867 100.091 16.6055C99.4231 16.3242 98.7141 16.1836 97.9641 16.1836C97.2141 16.1836 96.5051 16.3242 95.8372 16.6055C95.1692 16.8867 94.5833 17.2793 94.0793 17.7832C93.5754 18.2871 93.1829 18.873 92.9016 19.541C92.6204 20.1973 92.4797 20.8945 92.4797 21.6328C92.4797 22.3711 92.6204 23.0742 92.9016 23.7422C93.1829 24.3984 93.5754 24.9785 94.0793 25.4824C94.5833 25.998 95.1692 26.3965 95.8372 26.6777C96.5051 26.959 97.2141 27.0996 97.9641 27.0996ZM116.667 30.2109C115.507 30.2109 114.406 29.9941 113.363 29.5605C112.331 29.1152 111.417 28.4941 110.62 27.6973C109.823 26.9121 109.202 25.998 108.757 24.9551C108.312 23.9004 108.089 22.793 108.089 21.6328C108.089 20.4727 108.312 19.3711 108.757 18.3281C109.202 17.2734 109.823 16.3477 110.62 15.5508C111.417 14.7539 112.331 14.1387 113.363 13.7051C114.406 13.2598 115.507 13.0371 116.667 13.0371C117.839 13.0371 118.947 13.2598 119.99 13.7051C121.044 14.1504 121.964 14.7656 122.749 15.5508C123.534 16.3477 124.144 17.2676 124.577 18.3105C125.023 19.3535 125.245 20.4609 125.245 21.6328C125.245 22.8047 125.023 23.9121 124.577 24.9551C124.144 25.998 123.534 26.9121 122.749 27.6973C121.964 28.4824 121.044 29.0977 119.99 29.543C118.947 29.9883 117.839 30.2109 116.667 30.2109ZM116.667 27.0996C117.429 27.0996 118.138 26.959 118.794 26.6777C119.462 26.3965 120.048 25.998 120.552 25.4824C121.056 24.9785 121.443 24.3984 121.712 23.7422C121.993 23.0742 122.134 22.3711 122.134 21.6328C122.134 20.8945 121.993 20.1973 121.712 19.541C121.443 18.873 121.056 18.2871 120.552 17.7832C120.048 17.2793 119.462 16.8867 118.794 16.6055C118.138 16.3242 117.429 16.1836 116.667 16.1836C115.917 16.1836 115.208 16.3242 114.54 16.6055C113.884 16.8867 113.304 17.2793 112.8 17.7832C112.296 18.2871 111.904 18.873 111.622 19.541C111.341 20.1973 111.2 20.8945 111.2 21.6328C111.2 22.3711 111.341 23.0742 111.622 23.7422C111.904 24.3984 112.296 24.9785 112.8 25.4824C113.304 25.998 113.884 26.3965 114.54 26.6777C115.208 26.959 115.917 27.0996 116.667 27.0996ZM129.394 10.9629C128.913 10.9629 128.497 10.7871 128.146 10.4355C127.794 10.084 127.618 9.67383 127.618 9.20508C127.618 8.72461 127.794 8.30859 128.146 7.95703C128.486 7.61719 128.902 7.44727 129.394 7.44727C129.863 7.44727 130.279 7.61719 130.642 7.95703C130.993 8.28516 131.169 8.70117 131.169 9.20508C131.169 9.69727 130.993 10.1074 130.642 10.4355C130.267 10.7871 129.851 10.9629 129.394 10.9629ZM129.394 30.123C128.96 30.123 128.585 29.9766 128.269 29.6836C127.964 29.3789 127.812 29.0098 127.812 28.5762V14.6016C127.812 14.1562 127.97 13.7871 128.286 13.4941C128.591 13.1895 128.966 13.0371 129.411 13.0371C129.833 13.0371 130.191 13.1895 130.484 13.4941C130.777 13.7988 130.923 14.168 130.923 14.6016V28.5762C130.923 29.0098 130.771 29.3789 130.466 29.6836C130.173 29.9766 129.816 30.123 129.394 30.123ZM135.581 30C135.136 30 134.767 29.8535 134.474 29.5605C134.146 29.2676 133.982 28.9043 133.982 28.4707V21.3164C133.982 20.1914 134.187 19.125 134.597 18.1172C135.007 17.1094 135.581 16.2246 136.32 15.4629C137.07 14.7012 137.937 14.1094 138.921 13.6875C139.906 13.2539 140.954 13.0371 142.068 13.0371C143.193 13.0371 144.247 13.2539 145.232 13.6875C146.228 14.1094 147.107 14.7012 147.868 15.4629C148.607 16.2246 149.181 17.1094 149.591 18.1172C150.001 19.125 150.206 20.1914 150.206 21.3164V28.4707C150.206 28.916 150.06 29.2852 149.767 29.5781C149.474 29.8594 149.111 30 148.677 30C148.243 30 147.874 29.8594 147.57 29.5781C147.265 29.2852 147.113 28.916 147.113 28.4707V21.3516C147.101 20.6484 146.966 19.9805 146.708 19.3477C146.462 18.7148 146.111 18.1641 145.654 17.6953C145.185 17.2148 144.64 16.8398 144.019 16.5703C143.409 16.3008 142.759 16.166 142.068 16.166C141.365 16.166 140.708 16.2949 140.099 16.5527C139.501 16.8105 138.974 17.1797 138.517 17.6602C138.06 18.1289 137.708 18.6797 137.462 19.3125C137.216 19.9453 137.093 20.6133 137.093 21.3164V28.4707C137.093 28.916 136.947 29.2852 136.654 29.5781C136.372 29.8594 136.015 30 135.581 30ZM162.072 30.2109C160.888 30.2109 159.775 30 158.732 29.5781C157.689 29.1445 156.775 28.541 155.99 27.7676C155.193 26.9824 154.572 26.0742 154.126 25.043C153.681 24.0117 153.458 22.9102 153.458 21.7383V9.52148C153.458 9.08789 153.616 8.71289 153.933 8.39648C154.238 8.0918 154.601 7.93945 155.023 7.93945C155.234 7.93945 155.439 7.98047 155.638 8.0625C155.837 8.14453 156.013 8.25586 156.165 8.39648C156.482 8.71289 156.64 9.08789 156.64 9.52148V12.9668H163.618C164.052 12.9668 164.421 13.125 164.726 13.4414C165.031 13.7461 165.183 14.1152 165.183 14.5488C165.183 14.9707 165.031 15.3281 164.726 15.6211C164.433 15.9023 164.064 16.043 163.618 16.043H156.64V21.7734C156.64 22.5117 156.775 23.209 157.044 23.8652C157.325 24.5098 157.718 25.0781 158.222 25.5703C158.714 26.0625 159.288 26.4434 159.945 26.7129C160.613 26.9824 161.322 27.1172 162.072 27.1172C163.501 27.1172 164.673 26.6953 165.587 25.8516C165.962 25.5 166.355 25.3242 166.765 25.3242C167.128 25.3242 167.456 25.459 167.749 25.7285C168.031 26.0098 168.171 26.3555 168.171 26.7656C168.171 27 168.118 27.2402 168.013 27.4863C167.919 27.7207 167.784 27.9258 167.609 28.1016C166.132 29.5078 164.286 30.2109 162.072 30.2109ZM185.468 35.3086C185.034 35.3086 184.671 35.1562 184.378 34.8516C184.085 34.5586 183.939 34.1895 183.939 33.7441V27.5742C183.2 28.3125 182.374 28.8867 181.46 29.2969C180.558 29.707 179.591 29.9121 178.56 29.9121C177.4 29.9121 176.298 29.6953 175.255 29.2617C174.212 28.8164 173.298 28.2012 172.513 27.416C171.728 26.6309 171.113 25.7168 170.667 24.6738C170.234 23.6309 170.017 22.5293 170.017 21.3691V14.6016C170.017 14.1562 170.169 13.7812 170.474 13.4766C170.779 13.1719 171.154 13.0195 171.599 13.0195C171.81 13.0195 172.009 13.0605 172.197 13.1426C172.396 13.2246 172.566 13.3359 172.706 13.4766C173.011 13.7812 173.163 14.1562 173.163 14.6016V21.4395C173.163 22.1543 173.304 22.834 173.585 23.4785C173.866 24.123 174.259 24.6914 174.763 25.1836C175.267 25.6875 175.841 26.0801 176.486 26.3613C177.142 26.6309 177.833 26.7656 178.56 26.7656C179.263 26.7656 179.937 26.6309 180.581 26.3613C181.238 26.0801 181.818 25.6875 182.322 25.1836C182.825 24.6914 183.218 24.123 183.499 23.4785C183.792 22.834 183.939 22.1543 183.939 21.4395V14.6016C183.939 14.1562 184.091 13.7812 184.396 13.4766C184.536 13.3359 184.7 13.2246 184.888 13.1426C185.087 13.0605 185.292 13.0195 185.503 13.0195C185.913 13.0195 186.282 13.1719 186.611 13.4766C186.915 13.7812 187.068 14.1562 187.068 14.6016V33.7441C187.068 34.1895 186.909 34.5586 186.593 34.8516C186.288 35.1562 185.913 35.3086 185.468 35.3086Z" fill="black"/>
<defs>
<linearGradient id="paint0_linear" x1="2.77261" y1="10.2657" x2="38.2342" y2="32.3112" gradientUnits="userSpaceOnUse">
<stop stop-color="#56207D"/>
<stop offset="1" stop-color="#A60069"/>
</linearGradient>
</defs>
</svg>
