<svg width="94" height="81" viewBox="0 0 94 81" fill="none" xmlns="http://www.w3.org/2000/svg">
<path d="M48 46L48 79" stroke="#B8C0CC" stroke-width="2" stroke-linecap="round"/>
<path d="M22 78H73" stroke="#B8C0CC" stroke-width="2" stroke-linecap="round"/>
<circle cx="48" cy="78" r="2" fill="#FCFDFF" stroke="#B8C0CC" stroke-width="2"/>
<rect x="24" y="42" width="46" height="8" rx="2" fill="#FCFDFF" stroke="#B8C0CC" stroke-width="2"/>
<rect x="24" y="57" width="46" height="8" rx="2" fill="#FCFDFF" stroke="#B8C0CC" stroke-width="2"/>
<path d="M31 61H43" stroke="#B8C0CC" stroke-width="2" stroke-linecap="round"/>
<path d="M31 46H43" stroke="#B8C0CC" stroke-width="2" stroke-linecap="round"/>
<circle cx="63" cy="61" r="1" fill="#FCFDFF" stroke="#B8C0CC" stroke-width="2"/>
<circle cx="55" cy="61" r="1" fill="#FCFDFF" stroke="#B8C0CC" stroke-width="2"/>
<circle cx="63" cy="46" r="1" fill="#FCFDFF" stroke="#B8C0CC" stroke-width="2"/>
<circle cx="55" cy="46" r="1" fill="#FCFDFF" stroke="#B8C0CC" stroke-width="2"/>
<path d="M71.4083 72C74.2415 72 78.119 71.9999 80.4428 71.9999C81.5474 71.9999 82.4424 71.1045 82.4424 69.9999V26.7425C82.4424 26.0883 82.1225 25.4756 81.5858 25.1016L48.1432 1.79683C47.4561 1.31801 46.5434 1.31801 45.8563 1.79683L12.4137 25.1016C11.877 25.4756 11.5571 26.0883 11.5571 26.7425V69.9999C11.5571 71.1045 12.4525 71.9999 13.5571 71.9999L22.5912 72" stroke="#53A1FF" stroke-width="2" stroke-linecap="round"/>
<path d="M1 33.0347L45.857 1.79596C46.5439 1.3176 47.4561 1.31761 48.143 1.79597L93 33.0347" stroke="#53A1FF" stroke-width="2" stroke-linecap="round"/>
</svg>
