<svg width="462" height="253" viewBox="0 0 462 253" fill="none" xmlns="http://www.w3.org/2000/svg">
<path d="M458.917 27.8689L447.473 27.8249C445.718 27.8184 443.981 27.4662 442.362 26.7884C440.743 26.1106 439.273 25.1205 438.037 23.8747C436.801 22.6289 435.822 21.1517 435.157 19.5276C434.491 17.9034 434.152 16.1641 434.159 14.4089C434.173 10.8767 435.589 7.49453 438.096 5.00651C440.604 2.51848 443.997 1.12839 447.529 1.14194C449.284 1.14863 451.021 1.50096 452.64 2.17881C454.258 2.85666 455.728 3.84676 456.964 5.09257C458.2 6.33837 459.179 7.81547 459.845 9.43955C460.51 11.0636 460.849 12.8028 460.842 14.5579L460.798 26.0029C460.797 26.249 460.748 26.4924 460.653 26.7194C460.558 26.9464 460.419 27.1524 460.244 27.3257C460.069 27.4989 459.862 27.6361 459.635 27.7293C459.407 27.8226 459.163 27.87 458.917 27.8689Z" fill="white"/>
<path d="M447.673 1.16292C446.98 1.16053 446.289 1.21232 445.604 1.31789C447.322 1.29336 449.027 1.62008 450.614 2.27797C452.201 2.93586 453.637 3.9111 454.834 5.14382C456.031 6.37654 456.963 7.84074 457.574 9.44667C458.185 11.0526 458.461 12.7664 458.386 14.4829L458.342 25.9309C458.339 26.4291 458.139 26.9058 457.785 27.2567C457.432 27.6075 456.953 27.804 456.455 27.8029L458.971 27.8129C459.469 27.8134 459.947 27.6167 460.301 27.2658C460.655 26.9148 460.855 26.4381 460.858 25.9399L460.902 14.4929C460.905 10.9741 459.516 7.59692 457.037 5.09926C454.558 2.6016 451.192 1.18644 447.673 1.16292Z" fill="#EAEFF4"/>
<path d="M459.167 27.8699L447.311 27.8249C445.577 27.8186 443.861 27.4708 442.262 26.8013C440.662 26.1317 439.21 25.1535 437.989 23.9227C436.768 22.6919 435.801 21.2325 435.144 19.6279C434.486 18.0232 434.152 16.3049 434.159 14.5709V14.5709C434.166 12.8007 434.521 11.0492 435.204 9.41624C435.888 7.78333 436.886 6.30107 438.143 5.05412C439.4 3.80717 440.889 2.81993 442.527 2.14885C444.166 1.47776 445.92 1.13595 447.69 1.14293V1.14293C449.424 1.14909 451.14 1.49681 452.739 2.16624C454.339 2.83568 455.791 3.81374 457.012 5.04448C458.234 6.27521 459.201 7.73454 459.858 9.33909C460.515 10.9437 460.85 12.662 460.843 14.3959L460.797 26.251C460.796 26.4643 460.754 26.6755 460.672 26.8724C460.589 27.0693 460.469 27.2481 460.318 27.3985C460.166 27.5489 459.987 27.6679 459.789 27.7488C459.592 27.8297 459.38 27.8708 459.167 27.8699V27.8699Z" stroke="#B8C0CC" stroke-width="1.883" stroke-linecap="round" stroke-linejoin="round"/>
<path d="M440.613 11.335C441.061 11.335 441.424 10.7539 441.424 10.037C441.424 9.32015 441.061 8.73901 440.613 8.73901C440.165 8.73901 439.802 9.32015 439.802 10.037C439.802 10.7539 440.165 11.335 440.613 11.335Z" fill="#B8C0CC"/>
<path d="M444.732 11.335C445.18 11.335 445.543 10.7539 445.543 10.037C445.543 9.32015 445.18 8.73901 444.732 8.73901C444.284 8.73901 443.921 9.32015 443.921 10.037C443.921 10.7539 444.284 11.335 444.732 11.335Z" fill="#B8C0CC"/>
<path d="M420.5 27.888L409.056 27.844C407.301 27.8373 405.564 27.485 403.945 26.8072C402.326 26.1293 400.857 25.1392 399.62 23.8934C398.384 22.6476 397.405 21.1705 396.74 19.5464C396.074 17.9223 395.735 16.1831 395.742 14.428C395.749 12.6789 396.1 10.9483 396.775 9.33488C397.451 7.7215 398.438 6.25699 399.679 5.02494C400.921 3.79289 402.393 2.81742 404.011 2.15427C405.63 1.49112 407.363 1.1533 409.112 1.16001C412.656 1.17377 416.05 2.59491 418.547 5.11088C421.044 7.62684 422.439 11.0315 422.425 14.576L422.381 26.021C422.38 26.2671 422.331 26.5106 422.236 26.7376C422.141 26.9646 422.002 27.1707 421.827 27.344C421.652 27.5174 421.445 27.6547 421.218 27.748C420.99 27.8413 420.746 27.8889 420.5 27.888Z" fill="white"/>
<path d="M409.255 1.18096C408.562 1.17905 407.871 1.23084 407.186 1.33593C408.904 1.31154 410.609 1.63838 412.196 2.29638C413.784 2.95437 415.22 3.92968 416.417 5.16247C417.613 6.39525 418.546 7.85951 419.157 9.4655C419.768 11.0715 420.044 12.7853 419.969 14.5019L419.924 25.949C419.921 26.4472 419.721 26.9238 419.367 27.2748C419.013 27.6257 418.535 27.8225 418.037 27.822L420.553 27.8309C421.051 27.8315 421.529 27.6349 421.883 27.2842C422.236 26.9334 422.437 26.4569 422.44 25.9589L422.484 14.512C422.488 10.9929 421.098 7.61548 418.619 5.1176C416.141 2.61973 412.774 1.20447 409.255 1.18096Z" fill="#EAEFF4"/>
<path d="M420.749 27.888L408.893 27.842C407.159 27.8357 405.443 27.4878 403.844 26.8183C402.244 26.1487 400.792 25.1706 399.571 23.9397C398.35 22.7089 397.383 21.2495 396.726 19.6449C396.068 18.0403 395.734 16.322 395.741 14.588V14.588C395.748 12.8178 396.103 11.0662 396.786 9.43327C397.47 7.80036 398.468 6.3181 399.725 5.07115C400.981 3.8242 402.471 2.83702 404.109 2.16594C405.748 1.49485 407.502 1.15304 409.272 1.16002V1.16002C411.006 1.16618 412.722 1.51389 414.321 2.18339C415.921 2.85289 417.373 3.83103 418.595 5.06187C419.816 6.29271 420.783 7.75218 421.44 9.35686C422.097 10.9615 422.432 12.6799 422.425 14.414L422.379 26.269C422.378 26.4824 422.336 26.6935 422.253 26.8903C422.171 27.0871 422.051 27.2659 421.899 27.4162C421.748 27.5666 421.569 27.6856 421.371 27.7666C421.174 27.8475 420.962 27.8888 420.749 27.888V27.888Z" stroke="#B8C0CC" stroke-width="1.883" stroke-linecap="round" stroke-linejoin="round"/>
<path d="M402.195 11.3531C402.643 11.3531 403.006 10.7719 403.006 10.0551C403.006 9.33821 402.643 8.75708 402.195 8.75708C401.747 8.75708 401.384 9.33821 401.384 10.0551C401.384 10.7719 401.747 11.3531 402.195 11.3531Z" fill="#B8C0CC"/>
<path d="M406.314 11.3531C406.762 11.3531 407.125 10.7719 407.125 10.0551C407.125 9.33821 406.762 8.75708 406.314 8.75708C405.866 8.75708 405.503 9.33821 405.503 10.0551C405.503 10.7719 405.866 11.3531 406.314 11.3531Z" fill="#B8C0CC"/>
<path d="M321.916 27.728L310.472 27.684C306.927 27.6702 303.534 26.2491 301.037 23.7331C298.54 21.2172 297.145 17.8125 297.158 14.268C297.172 10.7356 298.588 7.35339 301.095 4.86521C303.603 2.37703 306.996 0.986686 310.528 0.999972C314.072 1.01374 317.466 2.43494 319.963 4.9509C322.46 7.46687 323.855 10.8715 323.841 14.416L323.797 25.861C323.796 26.1071 323.747 26.3507 323.652 26.5777C323.557 26.8048 323.418 27.011 323.243 27.1844C323.069 27.3578 322.862 27.495 322.634 27.5883C322.406 27.6816 322.162 27.7291 321.916 27.728Z" fill="white"/>
<path d="M310.672 1.02105C309.979 1.01914 309.288 1.07099 308.603 1.17608C310.321 1.15169 312.026 1.47853 313.613 2.13653C315.201 2.79452 316.637 3.76977 317.834 5.00255C319.031 6.23533 319.963 7.6996 320.574 9.30559C321.185 10.9116 321.461 12.6255 321.386 14.3421L321.341 25.7891C321.338 26.2871 321.138 26.7636 320.784 27.1146C320.431 27.4655 319.953 27.6623 319.455 27.662L321.97 27.6711C322.468 27.6716 322.946 27.475 323.3 27.1243C323.653 26.7735 323.854 26.2971 323.857 25.7991L323.901 14.352C323.905 10.833 322.515 7.45563 320.036 4.95775C317.558 2.45988 314.191 1.04456 310.672 1.02105Z" fill="#EAEFF4"/>
<path d="M322.166 27.729L310.31 27.683C308.576 27.6767 306.86 27.3289 305.261 26.6593C303.661 25.9898 302.209 25.0116 300.988 23.7808C299.767 22.55 298.8 21.0906 298.143 19.486C297.486 17.8814 297.151 16.163 297.158 14.4291C297.165 12.6588 297.52 10.9073 298.203 9.27434C298.887 7.64142 299.886 6.15916 301.142 4.91221C302.399 3.66527 303.888 2.67809 305.526 2.007C307.165 1.33592 308.919 0.994108 310.689 1.00108V1.00108C312.423 1.00724 314.139 1.35496 315.738 2.02446C317.338 2.69396 318.79 3.67209 320.012 4.90294C321.233 6.13378 322.2 7.59325 322.857 9.19792C323.514 10.8026 323.849 12.521 323.842 14.255V14.255L323.797 26.11C323.795 26.5409 323.622 26.9535 323.317 27.2571C323.011 27.5606 322.597 27.7304 322.166 27.729V27.729Z" stroke="#B8C0CC" stroke-width="1.883" stroke-linecap="round" stroke-linejoin="round"/>
<path d="M303.612 11.1929C304.06 11.1929 304.423 10.6118 304.423 9.89492C304.423 9.17806 304.06 8.59692 303.612 8.59692C303.164 8.59692 302.801 9.17806 302.801 9.89492C302.801 10.6118 303.164 11.1929 303.612 11.1929Z" fill="#B8C0CC"/>
<path d="M307.731 11.1929C308.179 11.1929 308.542 10.6118 308.542 9.89492C308.542 9.17806 308.179 8.59692 307.731 8.59692C307.283 8.59692 306.92 9.17806 306.92 9.89492C306.92 10.6118 307.283 11.1929 307.731 11.1929Z" fill="#B8C0CC"/>
<path d="M373.012 27.888L361.567 27.844C359.812 27.8373 358.075 27.485 356.456 26.8071C354.838 26.1293 353.368 25.1392 352.132 23.8933C350.896 22.6475 349.917 21.1704 349.251 19.5464C348.586 17.9223 348.247 16.1831 348.254 14.428C348.268 10.8958 349.684 7.51363 352.191 5.02561C354.699 2.53759 358.092 1.14743 361.624 1.16099C365.168 1.17475 368.562 2.59595 371.059 5.11191C373.556 7.62788 374.951 11.0325 374.937 14.577L374.893 26.022C374.892 26.2681 374.843 26.5115 374.748 26.7384C374.653 26.9654 374.514 27.1714 374.339 27.3447C374.164 27.518 373.957 27.6552 373.73 27.7484C373.502 27.8416 373.258 27.889 373.012 27.888Z" fill="white"/>
<path d="M361.767 1.18099C361.075 1.1786 360.383 1.23039 359.699 1.33596C361.417 1.31142 363.122 1.63815 364.709 2.29604C366.296 2.95393 367.732 3.92916 368.929 5.16188C370.126 6.3946 371.058 7.8588 371.669 9.46474C372.28 11.0707 372.556 12.7845 372.481 14.501L372.437 25.949C372.434 26.447 372.233 26.9234 371.88 27.2742C371.526 27.6249 371.048 27.8215 370.55 27.8209L373.066 27.8309C373.564 27.8312 374.042 27.6344 374.396 27.2835C374.749 26.9326 374.95 26.4561 374.953 25.958L374.997 14.5109C375 10.992 373.61 7.6149 371.131 5.11727C368.652 2.61964 365.286 1.2045 361.767 1.18099Z" fill="#EAEFF4"/>
<path d="M373.261 27.888L361.406 27.843C359.672 27.8368 357.956 27.4891 356.356 26.8196C354.757 26.1501 353.305 25.172 352.083 23.9411C350.862 22.7103 349.895 21.2508 349.238 19.6462C348.581 18.0415 348.246 16.323 348.253 14.589V14.589C348.267 11.014 349.7 7.59094 352.238 5.07273C354.775 2.55451 358.209 1.14743 361.784 1.16099V1.16099C363.518 1.16701 365.234 1.51468 366.834 2.18406C368.433 2.85343 369.885 3.83142 371.107 5.06217C372.328 6.29292 373.295 7.75229 373.953 9.35691C374.61 10.9615 374.945 12.6799 374.938 14.414V14.414L374.892 26.269C374.891 26.4825 374.849 26.6936 374.766 26.8905C374.684 27.0875 374.564 27.2662 374.412 27.4166C374.261 27.567 374.081 27.686 373.883 27.7669C373.686 27.8478 373.474 27.8889 373.261 27.888V27.888Z" stroke="#B8C0CC" stroke-width="1.883" stroke-linecap="round" stroke-linejoin="round"/>
<path d="M354.708 11.3531C355.156 11.3531 355.519 10.7719 355.519 10.0551C355.519 9.33821 355.156 8.75708 354.708 8.75708C354.26 8.75708 353.897 9.33821 353.897 10.0551C353.897 10.7719 354.26 11.3531 354.708 11.3531Z" fill="#B8C0CC"/>
<path d="M358.827 11.3531C359.275 11.3531 359.638 10.7719 359.638 10.0551C359.638 9.33821 359.275 8.75708 358.827 8.75708C358.379 8.75708 358.016 9.33821 358.016 10.0551C358.016 10.7719 358.379 11.3531 358.827 11.3531Z" fill="#B8C0CC"/>
<path d="M276.414 91.7941L256.769 91.719C253.756 91.7075 250.776 91.1028 247.997 89.9393C245.218 88.7757 242.696 87.0763 240.574 84.9379C238.452 82.7996 236.772 80.2641 235.629 77.4765C234.487 74.6888 233.905 71.7036 233.917 68.6911C233.94 62.6279 236.371 56.8222 240.675 52.5513C244.979 48.2804 250.803 45.8939 256.866 45.917C262.95 45.9406 268.775 48.38 273.061 52.6985C277.347 57.0171 279.741 62.8611 279.718 68.9451L279.643 88.59C279.641 89.0124 279.557 89.4305 279.393 89.8201C279.23 90.2098 278.992 90.5635 278.692 90.861C278.392 91.1585 278.037 91.394 277.646 91.5541C277.255 91.7142 276.836 91.7958 276.414 91.7941Z" fill="white"/>
<path d="M257.112 45.953C255.924 45.949 254.737 46.038 253.562 46.219C262.9 46.035 275.562 52.983 275.503 68.819L275.427 88.469C275.421 89.324 275.078 90.1421 274.471 90.7444C273.864 91.3466 273.043 91.6841 272.188 91.683L276.506 91.7001C277.361 91.7006 278.182 91.3627 278.788 90.7604C279.395 90.158 279.739 89.34 279.745 88.485L279.821 68.8361C279.827 62.7955 277.441 56.9981 273.186 52.7105C268.931 48.4228 263.152 45.9934 257.112 45.953Z" fill="#EAEFF4"/>
<path d="M276.842 91.7961L256.492 91.7181C250.481 91.6948 244.726 89.2847 240.492 85.0181C236.258 80.7515 233.893 74.9778 233.916 68.9671V68.9671C233.94 62.8307 236.4 56.9549 240.755 52.6324C245.111 48.3099 251.006 45.8946 257.142 45.918V45.918C260.118 45.9293 263.063 46.5268 265.808 47.6762C268.554 48.8256 271.046 50.5044 273.142 52.617C275.239 54.7295 276.899 57.2344 278.027 59.9884C279.156 62.7425 279.73 65.6918 279.719 68.668L279.641 89.017C279.64 89.3833 279.566 89.7458 279.425 90.0837C279.283 90.4215 279.077 90.7282 278.817 90.9863C278.557 91.2443 278.249 91.4486 277.91 91.5876C277.571 91.7265 277.208 91.7974 276.842 91.7961Z" stroke="#B8C0CC" stroke-width="1.883" stroke-linecap="round" stroke-linejoin="round"/>
<path d="M244.994 63.413C245.762 63.413 246.385 62.4155 246.385 61.185C246.385 59.9545 245.762 58.957 244.994 58.957C244.226 58.957 243.603 59.9545 243.603 61.185C243.603 62.4155 244.226 63.413 244.994 63.413Z" fill="#B8C0CC"/>
<path d="M252.064 63.413C252.832 63.413 253.455 62.4155 253.455 61.185C253.455 59.9545 252.832 58.957 252.064 58.957C251.296 58.957 250.673 59.9545 250.673 61.185C250.673 62.4155 251.296 63.413 252.064 63.413Z" fill="#B8C0CC"/>
<path d="M299.388 39.9101L286.034 39.8591C281.898 39.8429 277.939 38.1846 275.026 35.249C272.113 32.3133 270.485 28.3407 270.501 24.2051C270.509 22.1643 270.919 20.1451 271.707 18.2627C272.495 16.3803 273.646 14.6716 275.095 13.2342C276.544 11.7967 278.261 10.6587 280.15 9.885C282.038 9.11133 284.06 8.7172 286.101 8.72509C290.237 8.74097 294.197 10.399 297.11 13.3345C300.023 16.27 301.651 20.2424 301.635 24.378L301.584 37.7321C301.583 38.0193 301.525 38.3034 301.414 38.5683C301.303 38.8332 301.141 39.0737 300.937 39.2759C300.733 39.4782 300.491 39.6382 300.226 39.747C299.96 39.8558 299.675 39.9113 299.388 39.9101Z" fill="white"/>
<path d="M286.268 8.75011C285.46 8.74705 284.653 8.80722 283.854 8.9301C290.202 8.8061 298.81 13.5301 298.769 24.2921L298.717 37.6482C298.713 38.2291 298.48 38.7847 298.067 39.1941C297.655 39.6034 297.098 39.8331 296.517 39.8331L299.453 39.8441C300.034 39.8441 300.591 39.6144 301.003 39.2051C301.416 38.7957 301.649 38.24 301.653 37.6592L301.704 24.3032C301.708 20.1974 300.086 16.257 297.194 13.3429C294.302 10.4287 290.374 8.77759 286.268 8.75011Z" fill="#EAEFF4"/>
<path d="M299.679 39.9111L285.846 39.8581C283.822 39.8504 281.82 39.444 279.954 38.6623C278.087 37.8806 276.393 36.7388 274.968 35.3022C273.543 33.8656 272.415 32.1624 271.648 30.2897C270.882 28.417 270.491 26.4116 270.5 24.3881V24.3881C270.516 20.2169 272.189 16.223 275.149 13.2849C278.11 10.3468 282.117 8.70512 286.288 8.72106V8.72106C290.374 8.73668 294.286 10.3747 297.164 13.2747C300.042 16.1748 301.65 20.0993 301.635 24.1851V24.1851L301.582 38.0181C301.58 38.5213 301.379 39.0032 301.022 39.3581C300.665 39.713 300.182 39.9119 299.679 39.9111V39.9111Z" stroke="#B8C0CC" stroke-width="1.883" stroke-linecap="round" stroke-linejoin="round"/>
<path d="M278.031 20.6191C278.553 20.6191 278.977 19.9408 278.977 19.1041C278.977 18.2674 278.553 17.5891 278.031 17.5891C277.509 17.5891 277.085 18.2674 277.085 19.1041C277.085 19.9408 277.509 20.6191 278.031 20.6191Z" fill="#B8C0CC"/>
<path d="M282.837 20.6191C283.359 20.6191 283.783 19.9408 283.783 19.1041C283.783 18.2674 283.359 17.5891 282.837 17.5891C282.315 17.5891 281.891 18.2674 281.891 19.1041C281.891 19.9408 282.315 20.6191 282.837 20.6191Z" fill="#B8C0CC"/>
<path d="M349.779 38.6599L336.744 38.6099C332.707 38.5942 328.841 36.9756 325.997 34.1099C323.154 31.2441 321.565 27.3661 321.58 23.3289C321.596 19.3057 323.209 15.4535 326.065 12.6197C328.92 9.78584 332.785 8.20247 336.808 8.21788C340.845 8.2335 344.711 9.85208 347.554 12.7176C350.398 15.5831 351.987 19.4608 351.972 23.4979L351.922 36.5339C351.919 37.0998 351.692 37.6417 351.29 38.0403C350.889 38.4389 350.345 38.6618 349.779 38.6599Z" fill="white"/>
<path d="M336.972 8.24193C336.183 8.23897 335.396 8.29784 334.616 8.41795C340.816 8.29695 349.216 12.907 349.174 23.418L349.124 36.4559C349.12 37.0232 348.892 37.5659 348.489 37.9654C348.087 38.3649 347.542 38.5887 346.975 38.5879L349.841 38.5999C350.408 38.6004 350.953 38.3764 351.356 37.9767C351.758 37.5771 351.986 37.0343 351.99 36.467L352.04 23.4289C352.045 19.4203 350.462 15.5727 347.639 12.727C344.816 9.88135 340.981 8.26888 336.972 8.24193Z" fill="#EAEFF4"/>
<path d="M350.063 38.6609L336.563 38.6089C334.588 38.6013 332.634 38.2047 330.812 37.4417C328.99 36.6787 327.336 35.5643 325.945 34.162C324.554 32.7598 323.453 31.0973 322.704 29.2694C321.956 27.4415 321.575 25.4841 321.583 23.509V23.509C321.591 21.4928 321.995 19.4979 322.774 17.6382C323.552 15.7784 324.69 14.0902 326.121 12.67C327.552 11.2498 329.249 10.1254 331.114 9.36101C332.98 8.59661 334.978 8.20719 336.994 8.21496V8.21496C338.969 8.2223 340.924 8.61874 342.746 9.38164C344.568 10.1446 346.222 11.259 347.613 12.6612C349.004 14.0635 350.105 15.7261 350.854 17.5541C351.602 19.3821 351.983 21.3397 351.975 23.3149V23.3149L351.924 36.8149C351.923 37.0584 351.875 37.2995 351.781 37.5241C351.687 37.7488 351.549 37.9526 351.377 38.1241C351.204 38.2956 350.999 38.4312 350.773 38.5234C350.548 38.6155 350.306 38.6623 350.063 38.6609V38.6609Z" stroke="#B8C0CC" stroke-width="1.883" stroke-linecap="round" stroke-linejoin="round"/>
<path d="M328.93 19.827C329.44 19.827 329.853 19.1652 329.853 18.349C329.853 17.5327 329.44 16.871 328.93 16.871C328.42 16.871 328.007 17.5327 328.007 18.349C328.007 19.1652 328.42 19.827 328.93 19.827Z" fill="#B8C0CC"/>
<path d="M333.622 19.827C334.132 19.827 334.545 19.1652 334.545 18.349C334.545 17.5327 334.132 16.871 333.622 16.871C333.112 16.871 332.699 17.5327 332.699 18.349C332.699 19.1652 333.112 19.827 333.622 19.827Z" fill="#B8C0CC"/>
<path d="M400.334 38.704L387.299 38.6541C383.262 38.6385 379.396 37.0199 376.553 34.1543C373.709 31.2888 372.12 27.4111 372.135 23.3741C372.143 21.3819 372.542 19.4108 373.312 17.5732C374.081 15.7356 375.205 14.0675 376.619 12.6642C378.033 11.261 379.71 10.1499 381.553 9.39458C383.397 8.63926 385.371 8.25444 387.363 8.26207C389.362 8.26981 391.34 8.67116 393.184 9.44329C395.028 10.2154 396.701 11.3432 398.109 12.7622C399.517 14.1812 400.632 15.8636 401.39 17.7134C402.148 19.5632 402.534 21.5441 402.526 23.5431L402.476 36.5781C402.475 36.8583 402.419 37.1356 402.311 37.3942C402.203 37.6528 402.044 37.8876 401.846 38.085C401.647 38.2825 401.411 38.4387 401.151 38.545C400.892 38.6512 400.614 38.7052 400.334 38.704Z" fill="white"/>
<path d="M387.526 8.28794C386.737 8.28507 385.95 8.34388 385.17 8.46391C391.37 8.34191 399.77 12.9519 399.729 23.4589L399.679 36.4969C399.675 37.0643 399.447 37.6071 399.044 38.0068C398.642 38.4064 398.097 38.6305 397.53 38.6299L400.395 38.6409C400.962 38.6414 401.507 38.4174 401.91 38.0177C402.312 37.6181 402.54 37.0752 402.544 36.5079L402.594 23.4699C402.598 19.4619 401.015 15.6152 398.192 12.7704C395.369 9.92565 391.534 8.3141 387.526 8.28794Z" fill="#EAEFF4"/>
<path d="M400.618 38.7049L387.118 38.6529C385.143 38.6453 383.188 38.2488 381.367 37.4858C379.545 36.7228 377.891 35.6084 376.5 34.2062C375.109 32.804 374.007 31.1414 373.259 29.3135C372.51 27.4856 372.129 25.5282 372.137 23.553V23.553C372.153 19.4812 373.786 15.5825 376.676 12.7143C379.566 9.84621 383.477 8.24361 387.549 8.25902V8.25902C389.524 8.26662 391.479 8.66326 393.3 9.42626C395.122 10.1893 396.776 11.3037 398.167 12.7059C399.558 14.1081 400.66 15.7706 401.408 17.5985C402.157 19.4264 402.538 21.3838 402.53 23.359V23.359L402.478 36.859C402.478 37.1024 402.429 37.3435 402.335 37.5681C402.241 37.7927 402.104 37.9966 401.931 38.1681C401.758 38.3396 401.553 38.4754 401.328 38.5675C401.103 38.6596 400.861 38.7063 400.618 38.7049V38.7049Z" stroke="#B8C0CC" stroke-width="1.883" stroke-linecap="round" stroke-linejoin="round"/>
<path d="M379.485 19.871C379.995 19.871 380.408 19.2093 380.408 18.393C380.408 17.5768 379.995 16.915 379.485 16.915C378.975 16.915 378.562 17.5768 378.562 18.393C378.562 19.2093 378.975 19.871 379.485 19.871Z" fill="#B8C0CC"/>
<path d="M384.176 19.871C384.686 19.871 385.099 19.2093 385.099 18.393C385.099 17.5768 384.686 16.915 384.176 16.915C383.666 16.915 383.253 17.5768 383.253 18.393C383.253 19.2093 383.666 19.871 384.176 19.871Z" fill="#B8C0CC"/>
<path d="M444.362 38.6389L431.327 38.5889C429.328 38.5814 427.35 38.1803 425.506 37.4083C423.662 36.6363 421.988 35.5086 420.58 34.0897C419.172 32.6708 418.058 30.9884 417.3 29.1386C416.542 27.2888 416.156 25.3079 416.164 23.3089C416.171 21.3168 416.571 19.3457 417.341 17.5082C418.11 15.6706 419.234 14.0026 420.648 12.5994C422.062 11.1962 423.738 10.0853 425.581 9.33007C427.425 8.57485 429.399 8.19011 431.391 8.19787C433.39 8.20547 435.368 8.60677 437.212 9.37878C439.056 10.1508 440.73 11.2784 442.138 12.6973C443.546 14.1161 444.661 15.7985 445.419 17.6482C446.176 19.498 446.563 21.4789 446.555 23.4779L446.505 36.5129C446.504 36.7932 446.448 37.0705 446.339 37.3291C446.231 37.5877 446.073 37.8225 445.874 38.0199C445.675 38.2173 445.439 38.3736 445.18 38.4799C444.92 38.5861 444.642 38.6401 444.362 38.6389Z" fill="white"/>
<path d="M431.555 8.22191C430.766 8.21895 429.979 8.27783 429.199 8.39793C435.399 8.27593 443.799 12.8859 443.758 23.3929L443.707 36.431C443.703 36.9983 443.475 37.541 443.073 37.9407C442.67 38.3404 442.125 38.5644 441.558 38.5639L444.424 38.575C444.991 38.5755 445.536 38.3514 445.939 37.9517C446.341 37.552 446.569 37.0093 446.573 36.4419L446.623 23.4039C446.627 19.396 445.044 15.5497 442.22 12.705C439.397 9.86034 435.563 8.24859 431.555 8.22191Z" fill="#EAEFF4"/>
<path d="M444.646 38.6399L431.146 38.5889C429.171 38.5812 427.217 38.1845 425.395 37.4214C423.573 36.6584 421.919 35.5439 420.528 34.1417C419.137 32.7395 418.036 31.0771 417.288 29.2493C416.539 27.4214 416.158 25.4641 416.166 23.4889V23.4889C416.174 21.4728 416.579 19.4778 417.357 17.6181C418.136 15.7583 419.273 14.0701 420.704 12.65C422.136 11.2298 423.832 10.1054 425.698 9.341C427.564 8.5766 429.562 8.18718 431.578 8.19494V8.19494C433.553 8.20267 435.508 8.59937 437.329 9.36242C439.151 10.1255 440.805 11.2399 442.196 12.6421C443.587 14.0443 444.688 15.7068 445.437 17.5346C446.186 19.3624 446.567 21.3197 446.559 23.2949V23.2949L446.507 36.7949C446.506 37.0383 446.457 37.2792 446.363 37.5037C446.269 37.7283 446.132 37.9321 445.959 38.1034C445.786 38.2748 445.581 38.4104 445.356 38.5025C445.131 38.5946 444.889 38.6413 444.646 38.6399V38.6399Z" stroke="#B8C0CC" stroke-width="1.883" stroke-linecap="round" stroke-linejoin="round"/>
<path d="M423.513 19.806C424.023 19.806 424.436 19.1443 424.436 18.328C424.436 17.5117 424.023 16.85 423.513 16.85C423.003 16.85 422.59 17.5117 422.59 18.328C422.59 19.1443 423.003 19.806 423.513 19.806Z" fill="#B8C0CC"/>
<path d="M428.205 19.806C428.715 19.806 429.128 19.1443 429.128 18.328C429.128 17.5117 428.715 16.85 428.205 16.85C427.695 16.85 427.282 17.5117 427.282 18.328C427.282 19.1443 427.695 19.806 428.205 19.806Z" fill="#B8C0CC"/>
<path d="M325.509 53.755L311.131 53.7001C308.926 53.6918 306.744 53.2492 304.71 52.3977C302.677 51.5462 300.83 50.3025 299.277 48.7374C297.724 47.1724 296.494 45.3167 295.658 43.2764C294.822 41.236 294.396 39.051 294.405 36.846C294.414 34.6484 294.855 32.474 295.704 30.4469C296.553 28.4198 297.793 26.5798 299.353 25.0319C300.913 23.4841 302.762 22.2586 304.796 21.4256C306.83 20.5926 309.007 20.1683 311.205 20.177C313.41 20.1855 315.592 20.6283 317.625 21.4799C319.659 22.3316 321.505 23.5755 323.058 25.1406C324.611 26.7058 325.841 28.5615 326.677 30.6018C327.513 32.6421 327.939 34.8271 327.93 37.032L327.875 51.41C327.874 51.7194 327.812 52.0256 327.692 52.3109C327.573 52.5963 327.398 52.8552 327.178 53.073C326.958 53.2908 326.698 53.4631 326.411 53.5801C326.125 53.6971 325.818 53.7566 325.509 53.755Z" fill="white"/>
<path d="M311.382 20.204C310.512 20.2009 309.642 20.2658 308.782 20.3979C315.617 20.2639 324.882 25.3489 324.841 36.9379L324.786 51.32C324.782 51.9458 324.53 52.5446 324.086 52.9854C323.642 53.4262 323.041 53.673 322.415 53.6719L325.576 53.685C326.202 53.6855 326.802 53.4383 327.246 52.9974C327.691 52.5564 327.942 51.9577 327.946 51.3319L328.001 36.9509C328.005 32.5301 326.26 28.2874 323.146 25.1495C320.032 22.0115 315.803 20.2335 311.382 20.204Z" fill="#EAEFF4"/>
<path d="M325.822 53.757L310.928 53.699C308.749 53.6912 306.594 53.2542 304.584 52.4131C302.574 51.5721 300.75 50.3433 299.215 48.7971C297.68 47.2508 296.465 45.4175 295.639 43.4016C294.813 41.3856 294.392 39.2267 294.4 37.0481V37.0481C294.417 32.5567 296.218 28.2562 299.406 25.0925C302.594 21.9288 306.909 20.1611 311.4 20.1781C315.799 20.195 320.012 21.9588 323.11 25.0815C326.209 28.2041 327.941 32.4299 327.924 36.8291V36.8291L327.867 51.7231C327.865 52.2639 327.649 52.7818 327.265 53.1631C326.882 53.5445 326.363 53.7581 325.822 53.757Z" stroke="#B8C0CC" stroke-width="1.883" stroke-linecap="round" stroke-linejoin="round"/>
<path d="M302.512 32.9839C303.074 32.9839 303.53 32.2537 303.53 31.3529C303.53 30.4521 303.074 29.7219 302.512 29.7219C301.95 29.7219 301.494 30.4521 301.494 31.3529C301.494 32.2537 301.95 32.9839 302.512 32.9839Z" fill="#B8C0CC"/>
<path d="M307.687 32.9839C308.249 32.9839 308.705 32.2537 308.705 31.3529C308.705 30.4521 308.249 29.7219 307.687 29.7219C307.125 29.7219 306.669 30.4521 306.669 31.3529C306.669 32.2537 307.125 32.9839 307.687 32.9839Z" fill="#B8C0CC"/>
<path d="M379.826 51.733L365.448 51.678C360.995 51.6608 356.731 49.8754 353.594 46.7145C350.458 43.5536 348.705 39.2761 348.722 34.823C348.731 32.6254 349.172 30.451 350.021 28.424C350.87 26.397 352.11 24.5571 353.67 23.0093C355.23 21.4615 357.079 20.2362 359.113 19.4033C361.147 18.5704 363.324 18.1462 365.522 18.155C367.727 18.1634 369.909 18.606 371.942 19.4575C373.976 20.3091 375.822 21.5529 377.376 23.1179C378.929 24.683 380.158 26.5386 380.994 28.5789C381.83 30.6192 382.256 32.8041 382.248 35.009L382.193 49.3881C382.192 49.6975 382.13 50.0037 382.01 50.2891C381.89 50.5745 381.716 50.8336 381.496 51.0514C381.276 51.2692 381.015 51.4415 380.729 51.5585C380.442 51.6755 380.135 51.7348 379.826 51.733Z" fill="white"/>
<path d="M365.7 18.1811C364.829 18.1795 363.96 18.2464 363.1 18.3811C369.934 18.2461 379.2 23.331 379.158 34.921L379.103 49.302C379.099 49.9279 378.847 50.5267 378.403 50.9676C377.959 51.4084 377.358 51.6556 376.732 51.6551L379.893 51.667C380.519 51.6676 381.12 51.4204 381.564 50.9795C382.008 50.5386 382.26 49.9399 382.264 49.314L382.319 34.933C382.324 30.5115 380.579 26.2678 377.465 23.1289C374.351 19.99 370.121 18.2112 365.7 18.1811Z" fill="#EAEFF4"/>
<path d="M380.14 51.734L365.246 51.677C363.068 51.6688 360.912 51.2315 358.903 50.3901C356.893 49.5488 355.069 48.3199 353.535 46.7736C352 45.2273 350.786 43.3939 349.96 41.3781C349.134 39.3622 348.713 37.2034 348.722 35.025V35.025C348.731 32.8011 349.177 30.6007 350.036 28.5494C350.895 26.4981 352.15 24.636 353.728 23.0695C355.307 21.5031 357.178 20.2629 359.236 19.4199C361.294 18.5768 363.498 18.1473 365.722 18.156V18.156C370.121 18.1727 374.334 19.9362 377.433 23.0587C380.532 26.1811 382.263 30.4068 382.247 34.806V34.806L382.189 49.7001C382.188 49.9682 382.135 50.2336 382.031 50.481C381.928 50.7284 381.776 50.9529 381.586 51.1419C381.396 51.3308 381.17 51.4803 380.922 51.5819C380.674 51.6835 380.408 51.7352 380.14 51.734Z" stroke="#B8C0CC" stroke-width="1.883" stroke-linecap="round" stroke-linejoin="round"/>
<path d="M356.829 30.961C357.391 30.961 357.847 30.2308 357.847 29.33C357.847 28.4292 357.391 27.699 356.829 27.699C356.267 27.699 355.811 28.4292 355.811 29.33C355.811 30.2308 356.267 30.961 356.829 30.961Z" fill="#B8C0CC"/>
<path d="M362.004 30.961C362.566 30.961 363.022 30.2308 363.022 29.33C363.022 28.4292 362.566 27.699 362.004 27.699C361.442 27.699 360.986 28.4292 360.986 29.33C360.986 30.2308 361.442 30.961 362.004 30.961Z" fill="#B8C0CC"/>
<path d="M428.7 53.406L414.322 53.351C409.869 53.3338 405.605 51.5484 402.468 48.3875C399.332 45.2266 397.579 40.9491 397.596 36.496C397.605 34.2985 398.046 32.1241 398.895 30.0971C399.744 28.07 400.984 26.2301 402.544 24.6823C404.104 23.1345 405.953 21.9091 407.987 21.0762C410.021 20.2433 412.198 19.8192 414.396 19.828C418.849 19.8452 423.113 21.6307 426.25 24.7916C429.386 27.9525 431.139 32.2299 431.122 36.683L431.067 51.061C431.066 51.3705 431.004 51.6766 430.884 51.962C430.764 52.2475 430.59 52.5066 430.37 52.7244C430.15 52.9422 429.889 53.1145 429.603 53.2315C429.316 53.3484 429.009 53.4077 428.7 53.406Z" fill="white"/>
<path d="M414.577 19.855C413.707 19.851 412.837 19.9158 411.977 20.049C418.811 19.915 428.077 24.999 428.035 36.589L427.98 50.9711C427.976 51.5968 427.724 52.1954 427.28 52.6361C426.835 53.0768 426.235 53.3238 425.609 53.323L428.77 53.335C429.396 53.3355 429.996 53.0885 430.44 52.6478C430.885 52.2072 431.137 51.6087 431.141 50.983L431.196 36.601C431.2 32.1805 429.454 27.9381 426.34 24.8004C423.226 21.6628 418.997 19.8849 414.577 19.855Z" fill="#EAEFF4"/>
<path d="M429.018 53.4069L414.124 53.3499C411.946 53.3418 409.79 52.9047 407.781 52.0634C405.771 51.2222 403.947 49.9934 402.413 48.4472C400.879 46.901 399.664 45.0676 398.838 43.0518C398.012 41.0361 397.591 38.8773 397.6 36.699V36.699C397.608 34.475 398.055 32.2744 398.914 30.223C399.773 28.1715 401.027 26.3094 402.606 24.7428C404.184 23.1763 406.056 21.936 408.114 21.0929C410.172 20.2498 412.376 19.8203 414.6 19.829V19.829C418.999 19.8459 423.212 21.6096 426.311 24.7322C429.41 27.8549 431.141 32.0806 431.125 36.48L431.067 51.374C431.066 51.642 431.012 51.9073 430.909 52.1546C430.805 52.4019 430.654 52.6263 430.464 52.8151C430.274 53.0039 430.048 53.1534 429.8 53.255C429.552 53.3565 429.286 53.4081 429.018 53.4069Z" stroke="#B8C0CC" stroke-width="1.883" stroke-linecap="round" stroke-linejoin="round"/>
<path d="M405.707 32.6341C406.269 32.6341 406.725 31.9038 406.725 31.0031C406.725 30.1023 406.269 29.3721 405.707 29.3721C405.145 29.3721 404.689 30.1023 404.689 31.0031C404.689 31.9038 405.145 32.6341 405.707 32.6341Z" fill="#B8C0CC"/>
<path d="M410.882 32.6341C411.444 32.6341 411.9 31.9038 411.9 31.0031C411.9 30.1023 411.444 29.3721 410.882 29.3721C410.32 29.3721 409.864 30.1023 409.864 31.0031C409.864 31.9038 410.32 32.6341 410.882 32.6341Z" fill="#B8C0CC"/>
<path d="M275.558 54.4L260.841 54.3439C258.584 54.3353 256.35 53.882 254.268 53.0101C252.186 52.1381 250.297 50.8646 248.707 49.2622C247.117 47.6597 245.859 45.7598 245.003 43.671C244.148 41.5821 243.713 39.3451 243.722 37.088C243.731 34.8389 244.182 32.6136 245.051 30.5391C245.92 28.4646 247.188 26.5815 248.785 24.9973C250.381 23.4131 252.274 22.1589 254.355 21.3063C256.436 20.4536 258.665 20.0193 260.914 20.028C263.171 20.0366 265.404 20.4897 267.485 21.3613C269.567 22.233 271.457 23.5061 273.046 25.108C274.636 26.7099 275.895 28.6092 276.75 30.6975C277.606 32.7858 278.042 35.0222 278.033 37.279L277.976 51.9959C277.975 52.3126 277.912 52.6261 277.79 52.9184C277.668 53.2107 277.49 53.476 277.265 53.6993C277.041 53.9226 276.774 54.0994 276.482 54.2197C276.189 54.3399 275.875 54.4011 275.558 54.4Z" fill="white"/>
<path d="M261.1 20.0589C260.209 20.056 259.32 20.1229 258.44 20.2589C265.44 20.1219 274.922 25.3259 274.877 37.1879L274.82 51.909C274.816 52.5493 274.558 53.1619 274.104 53.6129C273.649 54.064 273.034 54.3168 272.394 54.3159L275.629 54.3289C276.269 54.3294 276.884 54.0765 277.339 53.6253C277.793 53.1741 278.051 52.5614 278.055 51.9209L278.112 37.201C278.116 32.6758 276.329 28.3328 273.142 25.1208C269.954 21.9089 265.625 20.089 261.1 20.0589Z" fill="#EAEFF4"/>
<path d="M275.878 54.4009L260.634 54.343C258.404 54.3344 256.198 53.8868 254.142 53.0257C252.085 52.1646 250.218 50.9069 248.648 49.3243C247.077 47.7417 245.834 45.8652 244.988 43.8021C244.143 41.7389 243.712 39.5296 243.721 37.3V37.3C243.73 35.0237 244.187 32.7714 245.066 30.6717C245.945 28.572 247.229 26.666 248.845 25.0626C250.46 23.4592 252.376 22.1898 254.483 21.3268C256.589 20.4638 258.845 20.0242 261.121 20.033V20.033C265.624 20.0502 269.936 21.8554 273.108 25.0516C276.28 28.2477 278.052 32.573 278.035 37.0759V37.0759L277.976 52.321C277.975 52.5954 277.92 52.8668 277.814 53.1198C277.708 53.3729 277.553 53.6026 277.358 53.7957C277.163 53.9889 276.932 54.1418 276.678 54.2457C276.424 54.3495 276.152 54.4023 275.878 54.4009Z" stroke="#B8C0CC" stroke-width="1.883" stroke-linecap="round" stroke-linejoin="round"/>
<path d="M252.019 33.139C252.594 33.139 253.061 32.3918 253.061 31.47C253.061 30.5483 252.594 29.801 252.019 29.801C251.444 29.801 250.977 30.5483 250.977 31.47C250.977 32.3918 251.444 33.139 252.019 33.139Z" fill="#B8C0CC"/>
<path d="M257.316 33.139C257.891 33.139 258.358 32.3918 258.358 31.47C258.358 30.5483 257.891 29.801 257.316 29.801C256.741 29.801 256.274 30.5483 256.274 31.47C256.274 32.3918 256.741 33.139 257.316 33.139Z" fill="#B8C0CC"/>
<path d="M302.731 70.824L286.048 70.76C283.49 70.7503 280.958 70.2368 278.599 69.2488C276.239 68.2608 274.097 66.8177 272.295 65.0018C270.493 63.186 269.066 61.0329 268.096 58.6657C267.126 56.2984 266.632 53.7632 266.642 51.205C266.662 46.056 268.727 41.126 272.381 37.4992C276.036 33.8723 280.982 31.8456 286.131 31.865C288.689 31.8748 291.221 32.3885 293.58 33.3766C295.94 34.3647 298.082 35.808 299.884 37.6239C301.686 39.4399 303.113 41.5929 304.083 43.9602C305.053 46.3275 305.547 48.8627 305.537 51.421L305.473 68.103C305.47 68.8274 305.18 69.521 304.665 70.0313C304.151 70.5415 303.455 70.8266 302.731 70.824Z" fill="white"/>
<path d="M286.34 31.896C285.331 31.8924 284.323 31.9677 283.325 32.121C291.255 31.966 302.009 37.865 301.957 51.312L301.893 67.999C301.888 68.7251 301.596 69.4199 301.081 69.9313C300.565 70.4427 299.868 70.7291 299.142 70.728L302.81 70.7421C303.536 70.7429 304.233 70.4562 304.748 69.9448C305.263 69.4335 305.555 68.739 305.56 68.0131L305.624 51.327C305.629 46.1976 303.603 41.2748 299.99 37.634C296.377 33.9932 291.469 31.9303 286.34 31.896Z" fill="#EAEFF4"/>
<path d="M303.095 70.8261L285.814 70.7591C283.287 70.7495 280.786 70.2422 278.454 69.2661C276.123 68.29 274.006 66.8642 272.226 65.0701C270.446 63.2761 269.036 61.149 268.078 58.8101C267.119 56.4713 266.631 53.9666 266.641 51.439C266.661 46.228 268.751 41.2386 272.45 37.5681C276.149 33.8975 281.154 31.8464 286.365 31.8661V31.8661C291.469 31.8857 296.357 33.932 299.952 37.555C303.548 41.178 305.557 46.0808 305.538 51.1851L305.471 68.4661C305.47 68.7771 305.408 69.0848 305.288 69.3717C305.168 69.6586 304.992 69.919 304.772 70.1381C304.551 70.3573 304.29 70.5309 304.002 70.6489C303.714 70.7669 303.406 70.8272 303.095 70.8261V70.8261Z" stroke="#B8C0CC" stroke-width="1.883" stroke-linecap="round" stroke-linejoin="round"/>
<path d="M276.049 46.723C276.702 46.723 277.231 45.8759 277.231 44.831C277.231 43.786 276.702 42.939 276.049 42.939C275.396 42.939 274.867 43.786 274.867 44.831C274.867 45.8759 275.396 46.723 276.049 46.723Z" fill="#B8C0CC"/>
<path d="M282.054 46.723C282.707 46.723 283.236 45.8759 283.236 44.831C283.236 43.786 282.707 42.939 282.054 42.939C281.401 42.939 280.872 43.786 280.872 44.831C280.872 45.8759 281.401 46.723 282.054 46.723Z" fill="#B8C0CC"/>
<path d="M354.329 69.574L337.646 69.51C335.088 69.5003 332.557 68.9868 330.197 67.9988C327.837 67.0108 325.695 65.5677 323.893 63.7519C322.091 61.936 320.664 59.7829 319.694 57.4157C318.724 55.0484 318.23 52.5132 318.24 49.955C318.26 44.806 320.324 39.8758 323.979 36.2489C327.634 32.6219 332.58 30.5953 337.729 30.615C340.287 30.6248 342.819 31.1385 345.178 32.1266C347.538 33.1147 349.68 34.5579 351.482 36.3739C353.284 38.1898 354.711 40.3429 355.681 42.7102C356.651 45.0775 357.145 47.6128 357.135 50.171L357.071 66.853C357.068 67.5774 356.778 68.271 356.263 68.7813C355.749 69.2915 355.053 69.5767 354.329 69.574Z" fill="white"/>
<path d="M337.938 30.646C336.929 30.6423 335.921 30.7176 334.923 30.871C342.853 30.716 353.606 36.615 353.555 50.062L353.491 66.749C353.486 67.4751 353.194 68.1699 352.679 68.6813C352.163 69.1927 351.466 69.4791 350.74 69.478L354.407 69.4921C355.133 69.4931 355.83 69.2066 356.346 68.6952C356.861 68.1838 357.153 67.4892 357.158 66.7631L357.222 50.077C357.227 44.9475 355.201 40.0246 351.588 36.3837C347.975 32.7429 343.067 30.6801 337.938 30.646Z" fill="#EAEFF4"/>
<path d="M354.692 69.5761L337.411 69.5091C334.884 69.4995 332.383 68.9922 330.051 68.0161C327.72 67.0399 325.604 65.6141 323.823 63.82C322.043 62.026 320.634 59.8988 319.675 57.56C318.717 55.2212 318.229 52.7165 318.239 50.189C318.259 44.978 320.349 39.9883 324.047 36.3177C327.746 32.6471 332.752 30.5962 337.963 30.6161C343.067 30.6357 347.955 32.682 351.55 36.305C355.146 39.928 357.155 44.8309 357.136 49.9351L357.069 67.2161C357.068 67.5272 357.006 67.8349 356.886 68.1219C356.766 68.4089 356.59 68.6694 356.369 68.8885C356.149 69.1077 355.887 69.2813 355.599 69.3993C355.311 69.5172 355.003 69.5773 354.692 69.5761Z" stroke="#B8C0CC" stroke-width="1.883" stroke-linecap="round" stroke-linejoin="round"/>
<path d="M327.647 45.473C328.3 45.473 328.829 44.6259 328.829 43.581C328.829 42.536 328.3 41.689 327.647 41.689C326.994 41.689 326.465 42.536 326.465 43.581C326.465 44.6259 326.994 45.473 327.647 45.473Z" fill="#B8C0CC"/>
<path d="M333.651 45.473C334.304 45.473 334.833 44.6259 334.833 43.581C334.833 42.536 334.304 41.689 333.651 41.689C332.998 41.689 332.469 42.536 332.469 43.581C332.469 44.6259 332.998 45.473 333.651 45.473Z" fill="#B8C0CC"/>
<path d="M439.157 62.0821L427.713 62.038C424.169 62.0245 420.775 60.6036 418.278 58.0878C415.781 55.572 414.386 52.1675 414.399 48.6231C414.413 45.0907 415.829 41.7084 418.336 39.2202C420.844 36.7321 424.237 35.3418 427.769 35.3551C429.524 35.3618 431.261 35.714 432.879 36.3919C434.498 37.0697 435.968 38.0599 437.204 39.3057C438.44 40.5515 439.419 42.0285 440.085 43.6526C440.75 45.2767 441.089 47.016 441.082 48.771L441.038 60.2161C441.037 60.4621 440.988 60.7056 440.893 60.9325C440.798 61.1595 440.659 61.3654 440.484 61.5387C440.309 61.712 440.102 61.8492 439.875 61.9424C439.647 62.0356 439.403 62.0831 439.157 62.0821Z" fill="white"/>
<path d="M427.913 35.3761C427.22 35.3736 426.529 35.4254 425.844 35.531C427.562 35.5065 429.267 35.8332 430.854 36.4911C432.441 37.149 433.878 38.1241 435.075 39.3568C436.271 40.5895 437.204 42.0537 437.815 43.6597C438.426 45.2656 438.702 46.9795 438.627 48.6961L438.582 60.1441C438.579 60.6421 438.379 61.1187 438.026 61.4695C437.672 61.8203 437.194 62.0168 436.696 62.016L439.211 62.026C439.709 62.0263 440.187 61.8295 440.541 61.4785C440.894 61.1276 441.095 60.6511 441.098 60.153L441.142 48.7061C441.145 45.1872 439.756 41.8101 437.277 39.3124C434.798 36.8147 431.432 35.3996 427.913 35.3761Z" fill="#EAEFF4"/>
<path d="M439.407 62.083L427.551 62.0379C425.817 62.0315 424.102 61.6838 422.503 61.0144C420.904 60.345 419.452 59.3672 418.231 58.1368C417.01 56.9064 416.043 55.4476 415.386 53.8435C414.728 52.2394 414.393 50.5215 414.4 48.7879V48.7879C414.407 47.0177 414.762 45.2662 415.445 43.6333C416.129 42.0004 417.127 40.5182 418.384 39.2712C419.641 38.0243 421.13 37.037 422.768 36.3659C424.406 35.6949 426.161 35.353 427.931 35.36V35.36C429.665 35.3661 431.381 35.7139 432.98 36.3833C434.58 37.0528 436.032 38.0307 437.253 39.2615C438.475 40.4922 439.442 41.9516 440.099 43.5561C440.756 45.1607 441.091 46.8791 441.084 48.613V48.613L441.039 60.468C441.036 60.8985 440.863 61.3102 440.557 61.613C440.251 61.9158 439.837 62.0849 439.407 62.083V62.083Z" stroke="#B8C0CC" stroke-width="1.883" stroke-linecap="round" stroke-linejoin="round"/>
<path d="M420.853 45.5481C421.301 45.5481 421.664 44.967 421.664 44.2501C421.664 43.5333 421.301 42.9521 420.853 42.9521C420.405 42.9521 420.042 43.5333 420.042 44.2501C420.042 44.967 420.405 45.5481 420.853 45.5481Z" fill="#B8C0CC"/>
<path d="M424.972 45.5481C425.42 45.5481 425.783 44.967 425.783 44.2501C425.783 43.5333 425.42 42.9521 424.972 42.9521C424.524 42.9521 424.161 43.5333 424.161 44.2501C424.161 44.967 424.524 45.5481 424.972 45.5481Z" fill="#B8C0CC"/>
<path d="M404.006 71.213L387.323 71.1491C384.765 71.1392 382.233 70.6256 379.874 69.6375C377.514 68.6494 375.372 67.2061 373.57 65.3902C371.768 63.5742 370.341 61.4212 369.371 59.0539C368.401 56.6865 367.907 54.1513 367.917 51.593C367.927 49.0436 368.438 46.521 369.423 44.1693C370.408 41.8177 371.846 39.683 373.656 37.8872C375.465 36.0914 377.611 34.6697 379.97 33.7031C382.329 32.7366 384.856 32.2442 387.405 32.2541C392.572 32.2739 397.519 34.3454 401.159 38.0128C404.798 41.6803 406.832 46.6433 406.812 51.8101L406.748 68.4921C406.745 69.2165 406.455 69.9101 405.94 70.4203C405.426 70.9306 404.73 71.2157 404.006 71.213Z" fill="white"/>
<path d="M387.615 32.288C386.606 32.2838 385.598 32.359 384.6 32.513C392.53 32.357 403.283 38.257 403.232 51.704L403.167 68.39C403.162 69.1161 402.871 69.8109 402.355 70.3225C401.84 70.8341 401.143 71.1208 400.417 71.12L404.084 71.134C404.81 71.1348 405.507 70.8481 406.023 70.3365C406.538 69.825 406.83 69.1302 406.835 68.404L406.899 51.718C406.904 46.5887 404.878 41.666 401.265 38.0254C397.651 34.3847 392.744 32.3221 387.615 32.288Z" fill="#EAEFF4"/>
<path d="M404.369 71.214L387.088 71.1481C381.984 71.1282 377.096 69.0816 373.501 65.4584C369.906 61.8352 367.897 56.9323 367.916 51.828C367.936 46.6169 370.025 41.6273 373.724 37.9567C377.423 34.2861 382.429 32.2351 387.64 32.255V32.255C390.167 32.2646 392.668 32.7719 394.999 33.7479C397.331 34.724 399.447 36.1498 401.227 37.9437C403.008 39.7377 404.417 41.8647 405.375 44.2034C406.334 46.5421 406.822 49.0466 406.812 51.574V51.574L406.746 68.855C406.745 69.166 406.682 69.4737 406.562 69.7605C406.442 70.0474 406.267 70.3078 406.046 70.5269C405.825 70.7459 405.564 70.9193 405.276 71.0373C404.988 71.1552 404.68 71.2152 404.369 71.214Z" stroke="#B8C0CC" stroke-width="1.883" stroke-linecap="round" stroke-linejoin="round"/>
<path d="M377.324 47.112C377.977 47.112 378.506 46.2649 378.506 45.22C378.506 44.1751 377.977 43.328 377.324 43.328C376.671 43.328 376.142 44.1751 376.142 45.22C376.142 46.2649 376.671 47.112 377.324 47.112Z" fill="#B8C0CC"/>
<path d="M383.328 47.112C383.981 47.112 384.51 46.2649 384.51 45.22C384.51 44.1751 383.981 43.328 383.328 43.328C382.675 43.328 382.146 44.1751 382.146 45.22C382.146 46.2649 382.675 47.112 383.328 47.112Z" fill="#B8C0CC"/>
<path d="M251.848 70.824L235.165 70.76C232.607 70.7503 230.075 70.2368 227.716 69.2488C225.356 68.2608 223.214 66.8177 221.412 65.0019C219.61 63.186 218.183 61.0329 217.213 58.6657C216.243 56.2984 215.749 53.7632 215.759 51.205C215.779 46.056 217.843 41.1257 221.498 37.4988C225.153 33.8719 230.099 31.8453 235.248 31.865C237.806 31.8748 240.338 32.3885 242.697 33.3766C245.057 34.3647 247.199 35.808 249.001 37.6239C250.803 39.4399 252.23 41.5929 253.2 43.9602C254.17 46.3275 254.664 48.8628 254.654 51.421L254.59 68.103C254.587 68.8274 254.297 69.521 253.782 70.0313C253.268 70.5415 252.572 70.8267 251.848 70.824Z" fill="white"/>
<path d="M235.457 31.896C234.448 31.8923 233.44 31.9676 232.442 32.121C240.372 31.966 251.125 37.865 251.074 51.312L251.01 67.999C251.005 68.7251 250.713 69.4199 250.198 69.9313C249.682 70.4427 248.985 70.7291 248.259 70.728L251.926 70.7421C252.652 70.7431 253.349 70.4566 253.865 69.9452C254.38 69.4338 254.672 68.7392 254.677 68.0131L254.741 51.327C254.746 46.1975 252.72 41.2746 249.107 37.6338C245.494 33.9929 240.586 31.9301 235.457 31.896Z" fill="#EAEFF4"/>
<path d="M252.211 70.8261L234.93 70.7591C232.403 70.7495 229.902 70.2422 227.57 69.2661C225.239 68.2899 223.123 66.8641 221.342 65.07C219.562 63.276 218.153 61.1488 217.194 58.81C216.236 56.4712 215.748 53.9665 215.758 51.439C215.778 46.228 217.867 41.2383 221.566 37.5677C225.265 33.8971 230.271 31.8462 235.482 31.8661V31.8661C240.586 31.8857 245.474 33.932 249.069 37.555C252.665 41.178 254.674 46.0809 254.655 51.1851L254.588 68.4661C254.587 68.7772 254.525 69.0849 254.405 69.3719C254.285 69.6589 254.109 69.9194 253.888 70.1385C253.668 70.3577 253.406 70.5313 253.118 70.6493C252.83 70.7672 252.522 70.8273 252.211 70.8261Z" stroke="#B8C0CC" stroke-width="1.883" stroke-linecap="round" stroke-linejoin="round"/>
<path d="M225.166 46.723C225.819 46.723 226.348 45.8759 226.348 44.831C226.348 43.786 225.819 42.939 225.166 42.939C224.513 42.939 223.984 43.786 223.984 44.831C223.984 45.8759 224.513 46.723 225.166 46.723Z" fill="#B8C0CC"/>
<path d="M231.17 46.723C231.823 46.723 232.352 45.8759 232.352 44.831C232.352 43.786 231.823 42.939 231.17 42.939C230.517 42.939 229.988 43.786 229.988 44.831C229.988 45.8759 230.517 46.723 231.17 46.723Z" fill="#B8C0CC"/>
<path d="M276.363 92.0031L256.718 91.928C250.634 91.9045 244.809 89.4652 240.523 85.1467C236.237 80.8281 233.843 74.9841 233.866 68.9001C233.889 62.8368 236.32 57.0312 240.624 52.7603C244.928 48.4894 250.752 46.1029 256.815 46.126C259.828 46.1376 262.808 46.7424 265.587 47.9059C268.366 49.0694 270.888 50.7688 273.01 52.9071C275.132 55.0455 276.812 57.5809 277.955 60.3686C279.097 63.1562 279.679 66.1416 279.667 69.1541L279.592 88.7991C279.59 89.2215 279.506 89.6395 279.343 90.0291C279.179 90.4187 278.941 90.7725 278.641 91.07C278.341 91.3675 277.986 91.603 277.595 91.7631C277.204 91.9232 276.785 92.0048 276.363 92.0031Z" fill="white"/>
<path d="M257.062 46.163C255.873 46.1583 254.686 46.2469 253.511 46.428C262.849 46.245 275.511 53.192 275.452 69.028L275.376 88.678C275.37 89.5331 275.027 90.3512 274.42 90.9534C273.813 91.5557 272.992 91.8931 272.137 91.892L276.456 91.9091C277.311 91.9097 278.132 91.5718 278.738 90.9694C279.345 90.3671 279.689 89.5491 279.695 88.694L279.77 69.0451C279.776 63.0046 277.391 57.2072 273.136 52.9196C268.881 48.6321 263.102 46.2029 257.062 46.163Z" fill="#EAEFF4"/>
<path d="M276.791 92.0051L256.442 91.927C253.466 91.9156 250.521 91.3181 247.775 90.1686C245.03 89.0191 242.538 87.3401 240.442 85.2275C238.345 83.1148 236.685 80.61 235.557 77.8559C234.428 75.1018 233.854 72.1524 233.865 69.1761V69.1761C233.889 63.0397 236.349 57.1639 240.705 52.8414C245.06 48.5188 250.955 46.1036 257.091 46.127V46.127C260.067 46.1383 263.012 46.7358 265.757 47.8852C268.503 49.0346 270.995 50.7134 273.091 52.826C275.188 54.9385 276.848 57.4434 277.976 60.1974C279.105 62.9515 279.679 65.9008 279.668 68.877L279.59 89.226C279.589 89.5923 279.515 89.9548 279.374 90.2926C279.233 90.6305 279.026 90.9372 278.766 91.1952C278.506 91.4533 278.198 91.6576 277.859 91.7966C277.52 91.9355 277.157 92.0064 276.791 92.0051Z" stroke="#B8C0CC" stroke-width="1.883" stroke-linecap="round" stroke-linejoin="round"/>
<path d="M244.943 63.622C245.711 63.622 246.334 62.6245 246.334 61.394C246.334 60.1635 245.711 59.166 244.943 59.166C244.175 59.166 243.552 60.1635 243.552 61.394C243.552 62.6245 244.175 63.622 244.943 63.622Z" fill="#B8C0CC"/>
<path d="M252.013 63.622C252.781 63.622 253.404 62.6245 253.404 61.394C253.404 60.1635 252.781 59.166 252.013 59.166C251.245 59.166 250.622 60.1635 250.622 61.394C250.622 62.6245 251.245 63.622 252.013 63.622Z" fill="#B8C0CC"/>
<path d="M332.815 91.241L312.967 91.1651C309.923 91.1534 306.911 90.5423 304.104 89.3667C301.296 88.1911 298.748 86.4741 296.604 84.3135C294.46 82.153 292.762 79.5913 291.608 76.7747C290.454 73.9581 289.866 70.9419 289.878 67.8981C289.902 61.7723 292.358 55.9069 296.707 51.592C301.055 47.277 306.939 44.866 313.065 44.8891C316.109 44.9007 319.12 45.5118 321.928 46.6874C324.736 47.863 327.284 49.5801 329.428 51.7406C331.572 53.9012 333.27 56.4629 334.424 59.2795C335.578 62.096 336.166 65.1123 336.154 68.156L336.077 88.0041C336.076 88.4309 335.99 88.8532 335.825 89.2469C335.66 89.6406 335.42 89.998 335.117 90.2986C334.814 90.5993 334.455 90.8372 334.06 90.9989C333.665 91.1607 333.242 91.2429 332.815 91.241Z" fill="white"/>
<path d="M313.314 44.9261C312.113 44.9213 310.914 45.0108 309.727 45.194C319.161 45.009 331.956 52.028 331.895 68.027L331.818 87.8801C331.812 88.7438 331.465 89.57 330.852 90.1784C330.239 90.7868 329.41 91.1278 328.546 91.127L332.909 91.1441C333.773 91.1447 334.602 90.8033 335.215 90.1948C335.828 89.5862 336.175 88.7598 336.181 87.8961L336.257 68.0441C336.262 61.9416 333.852 56.0851 329.553 51.7536C325.254 47.4221 319.416 44.9676 313.314 44.9261Z" fill="#EAEFF4"/>
<path d="M333.248 91.2431L312.687 91.1641C306.614 91.1403 300.8 88.7052 296.522 84.3946C292.244 80.084 289.854 74.2508 289.877 68.178V68.178C289.901 61.978 292.387 56.0413 296.787 51.674C301.188 47.3067 307.144 44.8664 313.344 44.8901V44.8901C319.417 44.9136 325.232 47.3485 329.51 51.6591C333.787 55.9697 336.178 61.8031 336.155 67.876V67.876L336.076 88.4371C336.075 88.807 336 89.173 335.857 89.5142C335.714 89.8554 335.506 90.1651 335.243 90.4257C334.981 90.6863 334.669 90.8927 334.327 91.0329C333.984 91.1731 333.618 91.2445 333.248 91.2431V91.2431Z" stroke="#B8C0CC" stroke-width="1.883" stroke-linecap="round" stroke-linejoin="round"/>
<path d="M301.07 62.566C301.847 62.566 302.476 61.5582 302.476 60.315C302.476 59.0718 301.847 58.064 301.07 58.064C300.293 58.064 299.664 59.0718 299.664 60.315C299.664 61.5582 300.293 62.566 301.07 62.566Z" fill="#B8C0CC"/>
<path d="M308.214 62.566C308.99 62.566 309.62 61.5582 309.62 60.315C309.62 59.0718 308.99 58.064 308.214 58.064C307.437 58.064 306.808 59.0718 306.808 60.315C306.808 61.5582 307.437 62.566 308.214 62.566Z" fill="#B8C0CC"/>
<path d="M375.4 91.5881L355.551 91.512C352.507 91.5003 349.496 90.8893 346.688 89.7137C343.88 88.5381 341.332 86.821 339.188 84.6604C337.044 82.4999 335.346 79.9383 334.192 77.1217C333.038 74.3052 332.45 71.2888 332.462 68.245C332.486 62.1192 334.942 56.2538 339.291 51.9389C343.639 47.624 349.523 45.2129 355.649 45.236C358.693 45.2477 361.704 45.8588 364.512 47.0343C367.32 48.2099 369.868 49.927 372.012 52.0876C374.156 54.2481 375.854 56.8098 377.008 59.6264C378.162 62.443 378.75 65.4593 378.738 68.5031L378.662 88.351C378.659 89.2128 378.313 90.0379 377.701 90.6449C377.09 91.252 376.262 91.5912 375.4 91.5881Z" fill="white"/>
<path d="M355.893 45.272C354.692 45.2672 353.493 45.3569 352.306 45.5401C361.741 45.3551 374.535 52.3741 374.474 68.3731L374.397 88.225C374.391 89.0889 374.044 89.9155 373.431 90.5241C372.818 91.1327 371.989 91.4739 371.125 91.4731L375.488 91.4901C376.352 91.4903 377.181 91.1491 377.794 90.5406C378.407 89.9321 378.755 89.1059 378.761 88.2421L378.836 68.3901C378.841 62.2876 376.431 56.431 372.132 52.0995C367.833 47.7681 361.995 45.3135 355.893 45.272Z" fill="#EAEFF4"/>
<path d="M375.827 91.5881L355.267 91.5091C349.194 91.4855 343.379 89.0507 339.101 84.74C334.823 80.4294 332.433 74.5961 332.456 68.5231V68.5231C332.48 62.323 334.966 56.3863 339.366 52.019C343.767 47.6516 349.723 45.2114 355.923 45.235V45.235C361.996 45.2586 367.811 47.6934 372.089 52.0041C376.366 56.3147 378.757 62.1482 378.734 68.2211L378.655 88.782C378.654 89.152 378.579 89.5181 378.436 89.8593C378.293 90.2005 378.085 90.5102 377.822 90.7708C377.56 91.0314 377.248 91.2376 376.906 91.3779C376.564 91.5181 376.197 91.5895 375.827 91.5881Z" stroke="#B8C0CC" stroke-width="1.883" stroke-linecap="round" stroke-linejoin="round"/>
<path d="M343.649 62.912C344.425 62.912 345.055 61.9042 345.055 60.661C345.055 59.4178 344.425 58.41 343.649 58.41C342.872 58.41 342.243 59.4178 342.243 60.661C342.243 61.9042 342.872 62.912 343.649 62.912Z" fill="#B8C0CC"/>
<path d="M350.793 62.912C351.57 62.912 352.199 61.9042 352.199 60.661C352.199 59.4178 351.57 58.41 350.793 58.41C350.017 58.41 349.387 59.4178 349.387 60.661C349.387 61.9042 350.017 62.912 350.793 62.912Z" fill="#B8C0CC"/>
<path d="M307.191 110.765L287.342 110.689C281.195 110.665 275.309 108.201 270.979 103.837C266.65 99.4738 264.23 93.5691 264.254 87.422C264.278 81.2964 266.734 75.4311 271.082 71.1163C275.43 66.8014 281.314 64.3901 287.44 64.413C290.484 64.4247 293.495 65.0357 296.303 66.2113C299.111 67.3869 301.659 69.104 303.803 71.2646C305.947 73.4251 307.645 75.9868 308.799 78.8034C309.953 81.62 310.541 84.6363 310.529 87.6801L310.453 107.528C310.451 107.955 310.366 108.377 310.201 108.771C310.036 109.164 309.795 109.522 309.493 109.822C309.19 110.123 308.83 110.361 308.436 110.523C308.041 110.684 307.618 110.767 307.191 110.765Z" fill="white"/>
<path d="M287.689 64.4501C286.488 64.4453 285.289 64.5349 284.102 64.7181C293.537 64.5331 306.331 71.5521 306.27 87.5511L306.194 107.404C306.188 108.268 305.84 109.094 305.227 109.703C304.614 110.311 303.785 110.652 302.921 110.651L307.284 110.668C308.148 110.669 308.977 110.328 309.59 109.719C310.204 109.111 310.551 108.284 310.557 107.42L310.633 87.5681C310.638 81.4654 308.228 75.6087 303.929 71.2772C299.63 66.9456 293.792 64.4913 287.689 64.4501Z" fill="#EAEFF4"/>
<path d="M307.623 110.767L287.063 110.688C280.99 110.664 275.176 108.229 270.898 103.919C266.62 99.608 264.23 93.7749 264.253 87.7021V87.7021C264.265 84.6322 264.881 81.5946 266.066 78.7629C267.252 75.9311 268.984 73.3605 271.163 71.198C273.342 69.0356 275.926 67.3235 278.766 66.1595C281.607 64.9955 284.649 64.4024 287.719 64.4141V64.4141C293.792 64.4377 299.607 66.8725 303.885 71.1832C308.162 75.4938 310.553 81.3271 310.53 87.4001L310.451 107.961C310.45 108.331 310.375 108.697 310.232 109.038C310.089 109.379 309.881 109.689 309.618 109.95C309.356 110.21 309.044 110.417 308.702 110.557C308.36 110.697 307.993 110.768 307.623 110.767V110.767Z" stroke="#B8C0CC" stroke-width="1.883" stroke-linecap="round" stroke-linejoin="round"/>
<path d="M275.446 82.09C276.222 82.09 276.852 81.0822 276.852 79.839C276.852 78.5958 276.222 77.588 275.446 77.588C274.669 77.588 274.04 78.5958 274.04 79.839C274.04 81.0822 274.669 82.09 275.446 82.09Z" fill="#B8C0CC"/>
<path d="M282.589 82.09C283.365 82.09 283.995 81.0822 283.995 79.839C283.995 78.5958 283.365 77.588 282.589 77.588C281.812 77.588 281.183 78.5958 281.183 79.839C281.183 81.0822 281.812 82.09 282.589 82.09Z" fill="#B8C0CC"/>
<path d="M427.859 93.318L408.011 93.2421C401.864 93.2183 395.978 90.7535 391.648 86.3902C387.318 82.0268 384.899 76.1221 384.922 69.975C384.946 63.8492 387.402 57.9838 391.751 53.6689C396.099 49.3539 401.983 46.943 408.109 46.9661C414.256 46.9897 420.142 49.4541 424.472 53.8173C428.802 58.1805 431.221 64.0851 431.198 70.2321L431.121 90.0811C431.118 90.9429 430.772 91.768 430.16 92.375C429.549 92.9821 428.721 93.3212 427.859 93.318Z" fill="white"/>
<path d="M408.358 47.0019C407.157 46.9982 405.957 47.0878 404.77 47.27C414.205 47.085 427 54.104 426.938 70.103L426.862 89.956C426.856 90.8199 426.509 91.6463 425.895 92.2548C425.282 92.8632 424.453 93.2041 423.589 93.203L427.953 93.22C428.817 93.2208 429.646 92.8796 430.259 92.271C430.872 91.6624 431.219 90.8359 431.225 89.972L431.301 70.12C431.306 64.0175 428.896 58.161 424.597 53.8295C420.298 49.498 414.46 47.0434 408.358 47.0019Z" fill="#EAEFF4"/>
<path d="M428.292 93.319L407.731 93.241C401.658 93.2172 395.843 90.7821 391.566 86.4712C387.288 82.1604 384.898 76.327 384.921 70.2541V70.2541C384.933 67.1842 385.549 64.1466 386.735 61.3149C387.921 58.4832 389.652 55.9127 391.832 53.7503C394.011 51.5879 396.594 49.876 399.435 48.7121C402.276 47.5482 405.318 46.9553 408.388 46.9671V46.9671C414.461 46.9907 420.275 49.4254 424.553 53.7358C428.831 58.0462 431.222 63.8793 431.199 69.9521L431.12 90.512C431.119 90.882 431.044 91.2482 430.902 91.5895C430.759 91.9309 430.55 92.2407 430.287 92.5014C430.025 92.7621 429.713 92.9684 429.371 93.1087C429.029 93.249 428.662 93.3205 428.292 93.319V93.319Z" stroke="#B8C0CC" stroke-width="1.883" stroke-linecap="round" stroke-linejoin="round"/>
<path d="M396.114 64.643C396.891 64.643 397.52 63.6352 397.52 62.392C397.52 61.1488 396.891 60.141 396.114 60.141C395.337 60.141 394.708 61.1488 394.708 62.392C394.708 63.6352 395.337 64.643 396.114 64.643Z" fill="#B8C0CC"/>
<path d="M403.258 64.643C404.035 64.643 404.664 63.6352 404.664 62.392C404.664 61.1488 404.035 60.141 403.258 60.141C402.481 60.141 401.852 61.1488 401.852 62.392C401.852 63.6352 402.481 64.643 403.258 64.643Z" fill="#B8C0CC"/>
<path d="M401.557 111.259L381.709 111.182C375.562 111.158 369.676 108.694 365.346 104.331C361.016 99.9677 358.597 94.0631 358.62 87.9161C358.644 81.7901 361.1 75.9244 365.448 71.6093C369.797 67.2942 375.681 64.8829 381.807 64.906C384.851 64.9177 387.862 65.5288 390.67 66.7044C393.478 67.88 396.026 69.5971 398.17 71.7576C400.314 73.9182 402.012 76.4799 403.166 79.2964C404.32 82.113 404.908 85.1292 404.896 88.173L404.82 108.021C404.817 108.883 404.471 109.708 403.859 110.316C403.247 110.923 402.419 111.262 401.557 111.259Z" fill="white"/>
<path d="M382.056 64.943C380.855 64.9387 379.656 65.0283 378.469 65.2111C387.903 65.0261 400.698 72.0451 400.637 88.0441L400.56 107.897C400.554 108.761 400.207 109.587 399.594 110.195C398.981 110.804 398.152 111.145 397.288 111.144L401.651 111.161C402.515 111.162 403.344 110.82 403.957 110.212C404.57 109.603 404.917 108.777 404.923 107.913L404.999 88.0611C405.004 81.9586 402.594 76.102 398.295 71.7705C393.996 67.439 388.158 64.9845 382.056 64.943Z" fill="#EAEFF4"/>
<path d="M401.99 111.26L381.43 111.181C375.357 111.158 369.542 108.723 365.264 104.412C360.987 100.101 358.596 94.2681 358.619 88.1951V88.1951C358.643 81.995 361.129 76.0583 365.529 71.691C369.93 67.3236 375.886 64.8834 382.086 64.907V64.907C388.159 64.9306 393.974 67.3656 398.252 71.6762C402.529 75.9868 404.92 81.8202 404.897 87.8931V87.8931L404.818 108.454C404.817 108.824 404.742 109.19 404.599 109.531C404.456 109.873 404.248 110.182 403.985 110.443C403.723 110.703 403.411 110.91 403.069 111.05C402.727 111.19 402.36 111.262 401.99 111.26Z" stroke="#B8C0CC" stroke-width="1.883" stroke-linecap="round" stroke-linejoin="round"/>
<path d="M369.812 82.584C370.589 82.584 371.218 81.5762 371.218 80.333C371.218 79.0898 370.589 78.082 369.812 78.082C369.035 78.082 368.406 79.0898 368.406 80.333C368.406 81.5762 369.035 82.584 369.812 82.584Z" fill="#B8C0CC"/>
<path d="M376.956 82.584C377.733 82.584 378.362 81.5762 378.362 80.333C378.362 79.0898 377.733 78.082 376.956 78.082C376.179 78.082 375.55 79.0898 375.55 80.333C375.55 81.5762 376.179 82.584 376.956 82.584Z" fill="#B8C0CC"/>
<path d="M244.488 106.426L224.843 106.351C218.759 106.327 212.933 103.888 208.648 99.5693C204.362 95.2505 201.968 89.4062 201.991 83.3221C202.003 80.3199 202.605 77.3495 203.765 74.5802C204.924 71.811 206.618 69.2973 208.749 67.1827C210.88 65.068 213.407 63.3937 216.185 62.2555C218.963 61.1174 221.938 60.5375 224.94 60.5491C231.024 60.5724 236.85 63.0116 241.136 67.3301C245.421 71.6487 247.816 77.4929 247.793 83.5771L247.717 103.222C247.715 103.645 247.631 104.062 247.468 104.452C247.304 104.842 247.066 105.195 246.766 105.493C246.466 105.791 246.111 106.026 245.72 106.186C245.329 106.346 244.91 106.428 244.488 106.426Z" fill="white"/>
<path d="M225.187 60.588C223.998 60.5841 222.811 60.6731 221.636 60.854C230.974 60.67 243.636 67.617 243.577 83.454L243.501 103.104C243.495 103.959 243.152 104.777 242.545 105.379C241.938 105.982 241.117 106.319 240.262 106.318L244.581 106.334C245.436 106.335 246.257 105.998 246.864 105.395C247.471 104.793 247.814 103.975 247.82 103.12L247.895 83.4711C247.901 77.4305 245.516 71.6329 241.261 67.3452C237.006 63.0575 231.227 60.6282 225.187 60.588Z" fill="#EAEFF4"/>
<path d="M244.916 106.428L224.567 106.349C221.591 106.338 218.646 105.74 215.901 104.591C213.155 103.442 210.663 101.763 208.567 99.6501C206.47 97.5375 204.81 95.0328 203.682 92.2787C202.553 89.5247 201.979 86.5753 201.99 83.599V83.599C202.014 77.4626 204.474 71.587 208.83 67.2645C213.185 62.9419 219.08 60.5267 225.216 60.5501V60.5501C231.227 60.5731 236.982 62.9828 241.216 67.2492C245.451 71.5156 247.817 77.2893 247.794 83.3001V83.3001L247.715 103.65C247.714 104.016 247.64 104.379 247.499 104.716C247.358 105.054 247.151 105.361 246.891 105.619C246.631 105.877 246.323 106.081 245.984 106.22C245.645 106.359 245.282 106.429 244.916 106.428V106.428Z" stroke="#B8C0CC" stroke-width="1.883" stroke-linecap="round" stroke-linejoin="round"/>
<path d="M213.068 78.045C213.836 78.045 214.459 77.0475 214.459 75.817C214.459 74.5865 213.836 73.589 213.068 73.589C212.3 73.589 211.677 74.5865 211.677 75.817C211.677 77.0475 212.3 78.045 213.068 78.045Z" fill="#B8C0CC"/>
<path d="M220.138 78.045C220.906 78.045 221.529 77.0475 221.529 75.817C221.529 74.5865 220.906 73.589 220.138 73.589C219.37 73.589 218.747 74.5865 218.747 75.817C218.747 77.0475 219.37 78.045 220.138 78.045Z" fill="#B8C0CC"/>
<path d="M279.406 148.121L248.018 148.001C238.297 147.963 228.989 144.066 222.142 137.166C215.295 130.266 211.469 120.928 211.506 111.207C211.543 101.52 215.427 92.2438 222.304 85.4201C229.18 78.5964 238.486 74.7839 248.173 74.8211C252.986 74.8394 257.749 75.8056 262.189 77.6646C266.629 79.5235 270.659 82.2389 274.049 85.6554C277.44 89.072 280.124 93.1229 281.949 97.5769C283.774 102.031 284.704 106.801 284.685 111.614L284.565 143.002C284.562 143.677 284.427 144.345 284.166 144.967C283.906 145.59 283.525 146.155 283.046 146.63C282.567 147.105 281.999 147.482 281.374 147.738C280.75 147.993 280.081 148.124 279.406 148.121Z" fill="white"/>
<path d="M248.567 74.879C246.668 74.8722 244.771 75.0139 242.894 75.303C257.814 75.01 278.047 86.11 277.95 111.41L277.829 142.81C277.82 144.176 277.271 145.483 276.301 146.445C275.331 147.407 274.02 147.947 272.654 147.945L279.554 147.972C280.92 147.973 282.231 147.434 283.201 146.471C284.17 145.509 284.72 144.202 284.729 142.836L284.849 111.442C284.859 101.79 281.049 92.5269 274.251 85.6759C267.452 78.8249 258.218 74.9432 248.567 74.879Z" fill="#EAEFF4"/>
<path d="M280.09 148.124L247.576 147.999C237.972 147.962 228.777 144.111 222.012 137.294C215.248 130.478 211.468 121.253 211.505 111.649V111.649C211.543 101.845 215.473 92.4566 222.433 85.5502C229.392 78.6438 238.81 74.7848 248.614 74.822C258.218 74.8588 267.413 78.7091 274.178 85.5258C280.943 92.3425 284.723 101.567 284.687 111.171L284.562 143.685C284.558 144.867 284.084 145.998 283.245 146.831C282.407 147.663 281.272 148.128 280.09 148.124Z" stroke="#B8C0CC" stroke-width="1.883" stroke-linecap="round" stroke-linejoin="round"/>
<path d="M229.205 102.776C230.433 102.776 231.428 101.182 231.428 99.216C231.428 97.2499 230.433 95.656 229.205 95.656C227.977 95.656 226.982 97.2499 226.982 99.216C226.982 101.182 227.977 102.776 229.205 102.776Z" fill="#B8C0CC"/>
<path d="M240.501 102.776C241.729 102.776 242.724 101.182 242.724 99.216C242.724 97.2499 241.729 95.656 240.501 95.656C239.273 95.656 238.278 97.2499 238.278 99.216C238.278 101.182 239.273 102.776 240.501 102.776Z" fill="#B8C0CC"/>
<path d="M367.933 148.119L336.545 147.998C326.824 147.961 317.516 144.063 310.669 137.163C303.822 130.263 299.996 120.926 300.033 111.205C300.051 106.408 301.014 101.662 302.867 97.2373C304.72 92.8127 307.426 88.7964 310.83 85.4175C314.235 82.0387 318.272 79.3635 322.711 77.5448C327.15 75.7262 331.903 74.7996 336.7 74.818C341.513 74.8365 346.276 75.8029 350.716 77.662C355.156 79.5211 359.186 82.2365 362.576 85.6531C365.967 89.0697 368.651 93.1207 370.476 97.5747C372.301 102.029 373.231 106.799 373.212 111.612L373.091 142.999C373.089 143.674 372.953 144.342 372.693 144.964C372.432 145.587 372.051 146.152 371.572 146.627C371.093 147.103 370.526 147.479 369.901 147.735C369.277 147.991 368.608 148.122 367.933 148.119Z" fill="white"/>
<path d="M337.094 74.876C335.195 74.8691 333.298 75.0109 331.421 75.3C346.341 75.007 366.574 86.107 366.477 111.407L366.356 142.807C366.347 144.173 365.798 145.48 364.828 146.442C363.858 147.404 362.547 147.944 361.181 147.942L368.081 147.969C369.447 147.97 370.758 147.431 371.728 146.468C372.697 145.506 373.247 144.199 373.256 142.833L373.376 111.439C373.386 101.787 369.576 92.5242 362.777 85.6732C355.979 78.8222 346.745 74.9404 337.094 74.876Z" fill="#EAEFF4"/>
<path d="M368.617 148.121L336.103 147.996C331.348 147.978 326.643 147.023 322.256 145.187C317.87 143.35 313.888 140.668 310.539 137.293C307.189 133.917 304.537 129.915 302.734 125.515C300.931 121.115 300.013 116.402 300.031 111.647V111.647C300.069 101.842 303.999 92.4543 310.959 85.5479C317.918 78.6415 327.336 74.7826 337.141 74.8201C341.896 74.8382 346.602 75.7927 350.988 77.6292C355.374 79.4657 359.356 82.1481 362.706 85.5235C366.055 88.8988 368.708 92.9009 370.511 97.3012C372.314 101.701 373.232 106.414 373.214 111.169V111.169L373.089 143.682C373.087 144.267 372.97 144.846 372.744 145.386C372.518 145.926 372.188 146.416 371.773 146.828C371.357 147.24 370.865 147.566 370.323 147.788C369.782 148.01 369.202 148.123 368.617 148.121Z" stroke="#B8C0CC" stroke-width="1.883" stroke-linecap="round" stroke-linejoin="round"/>
<path d="M317.731 102.773C318.959 102.773 319.954 101.179 319.954 99.213C319.954 97.2468 318.959 95.653 317.731 95.653C316.503 95.653 315.508 97.2468 315.508 99.213C315.508 101.179 316.503 102.773 317.731 102.773Z" fill="#B8C0CC"/>
<path d="M329.028 102.773C330.256 102.773 331.251 101.179 331.251 99.213C331.251 97.2468 330.256 95.653 329.028 95.653C327.8 95.653 326.805 97.2468 326.805 99.213C326.805 101.179 327.8 102.773 329.028 102.773Z" fill="#B8C0CC"/>
<path d="M320.094 180.988L288.706 180.867C278.985 180.83 269.677 176.932 262.83 170.032C255.983 163.132 252.157 153.795 252.194 144.074C252.231 134.386 256.115 125.111 262.992 118.287C269.868 111.463 279.174 107.65 288.861 107.687C293.674 107.706 298.437 108.672 302.877 110.531C307.317 112.39 311.347 115.105 314.737 118.522C318.128 121.939 320.812 125.99 322.637 130.444C324.462 134.898 325.392 139.668 325.373 144.481L325.253 175.869C325.25 176.544 325.115 177.212 324.854 177.834C324.593 178.457 324.213 179.022 323.734 179.497C323.255 179.972 322.687 180.349 322.062 180.605C321.438 180.86 320.769 180.991 320.094 180.988Z" fill="white"/>
<path d="M289.255 107.741C287.356 107.734 285.459 107.875 283.582 108.165C298.502 107.872 318.735 118.972 318.638 144.272L318.517 175.672C318.508 177.038 317.958 178.345 316.989 179.307C316.019 180.269 314.708 180.808 313.342 180.807L320.242 180.834C321.608 180.835 322.919 180.296 323.889 179.333C324.858 178.371 325.408 177.064 325.417 175.698L325.537 144.304C325.548 134.652 321.737 125.389 314.939 118.538C308.14 111.687 298.907 107.805 289.255 107.741Z" fill="#EAEFF4"/>
<path d="M320.778 180.988L288.264 180.863C278.66 180.826 269.465 176.975 262.7 170.158C255.936 163.342 252.156 154.117 252.193 144.513V144.513C252.231 134.709 256.161 125.322 263.12 118.416C270.079 111.51 279.496 107.651 289.3 107.688V107.688C294.055 107.706 298.761 108.661 303.147 110.497C307.533 112.334 311.515 115.016 314.865 118.391C318.214 121.767 320.866 125.769 322.669 130.169C324.473 134.569 325.391 139.282 325.373 144.037V144.037L325.248 176.551C325.243 177.732 324.77 178.863 323.932 179.695C323.093 180.527 321.959 180.992 320.778 180.988Z" stroke="#B8C0CC" stroke-width="1.883" stroke-linecap="round" stroke-linejoin="round"/>
<path d="M269.893 135.638C271.121 135.638 272.116 134.044 272.116 132.078C272.116 130.112 271.121 128.518 269.893 128.518C268.665 128.518 267.67 130.112 267.67 132.078C267.67 134.044 268.665 135.638 269.893 135.638Z" fill="#B8C0CC"/>
<path d="M281.189 135.638C282.417 135.638 283.412 134.044 283.412 132.078C283.412 130.112 282.417 128.518 281.189 128.518C279.961 128.518 278.966 130.112 278.966 132.078C278.966 134.044 279.961 135.638 281.189 135.638Z" fill="#B8C0CC"/>
<path d="M8.285 93.62V251.076H178.685V93.62H8.285Z" stroke="#B8C0CC" stroke-width="1.883" stroke-linecap="round" stroke-linejoin="round"/>
<path opacity="0.71" d="M48.777 64.167L37.818 93.932V112.862C37.818 112.862 41.429 123.074 55.129 123.074C59.0607 123.096 62.9326 122.112 66.3767 120.216C69.8208 118.319 72.7226 115.573 74.806 112.239V93.434L78.169 64.168L48.777 64.167Z" fill="#EAEFF4"/>
<path opacity="0.71" d="M138.208 64.167L149.167 93.932V112.862C149.167 112.862 145.556 123.074 131.856 123.074C127.924 123.096 124.052 122.112 120.608 120.216C117.164 118.319 114.262 115.573 112.179 112.239V93.434L108.816 64.168L138.208 64.167Z" fill="#EAEFF4"/>
<path d="M161.894 196.937H118.711V251.076H161.894V196.937Z" stroke="#B8C0CC" stroke-width="1.883" stroke-linecap="round" stroke-linejoin="round"/>
<path d="M74.988 93.5131V112.013C74.988 112.013 77.688 123.05 93.058 123.05C108.428 123.05 111.982 112.013 111.982 112.013V93.5131H74.988Z" fill="white" stroke="#B8C0CC" stroke-width="1.883" stroke-linecap="round" stroke-linejoin="round"/>
<path d="M111.981 93.5131V112.013C111.981 112.013 114.681 123.05 130.051 123.05C145.421 123.05 148.976 112.013 148.976 112.013V93.5131H111.981Z" stroke="#B8C0CC" stroke-width="1.883" stroke-linecap="round" stroke-linejoin="round"/>
<path d="M148.975 93.5131V112.013C148.975 112.013 151.675 123.05 167.045 123.05C182.415 123.05 185.969 112.013 185.969 112.013V93.5131H148.975Z" fill="white" stroke="#B8C0CC" stroke-width="1.883" stroke-linecap="round" stroke-linejoin="round"/>
<path d="M37.993 93.5131V112.013C37.993 112.013 40.693 123.05 56.064 123.05C71.435 123.05 74.988 112.013 74.988 112.013V93.5131H37.993Z" stroke="#B8C0CC" stroke-width="1.883" stroke-linecap="round" stroke-linejoin="round"/>
<path d="M1 93.5131V112.013C1 112.013 3.70001 123.05 19.07 123.05C34.44 123.05 37.994 112.013 37.994 112.013V93.5131H1Z" fill="white" stroke="#B8C0CC" stroke-width="1.883" stroke-linecap="round" stroke-linejoin="round"/>
<path d="M127.209 224.611C128.504 224.611 129.553 223.561 129.553 222.267C129.553 220.972 128.504 219.923 127.209 219.923C125.914 219.923 124.865 220.972 124.865 222.267C124.865 223.561 125.914 224.611 127.209 224.611Z" fill="#B8C0CC"/>
<path d="M1 93.5131L19.5 63.451H171.4L185.969 93.5131" stroke="#B8C0CC" stroke-width="1.883" stroke-linecap="round" stroke-linejoin="round"/>
<path d="M74.987 93.5131L78.099 63.4501" stroke="#B8C0CC" stroke-width="1.883" stroke-linecap="round" stroke-linejoin="round"/>
<path d="M37.994 93.5131L48.991 63.4501" stroke="#B8C0CC" stroke-width="1.883" stroke-linecap="round" stroke-linejoin="round"/>
<path d="M111.981 93.5131L108.869 63.4501" stroke="#B8C0CC" stroke-width="1.883" stroke-linecap="round" stroke-linejoin="round"/>
<path d="M148.975 93.5131L137.978 63.4501" stroke="#B8C0CC" stroke-width="1.883" stroke-linecap="round" stroke-linejoin="round"/>
<path d="M179.963 201.601C183.201 201.601 186.407 202.239 189.398 203.478C192.389 204.717 195.107 206.533 197.396 208.822C199.685 211.111 201.501 213.829 202.74 216.82C203.979 219.812 204.617 223.017 204.617 226.255C204.617 232.838 202.002 239.151 197.347 243.806C192.692 248.461 186.379 251.076 179.796 251.076H159.142C158.081 251.076 157.064 250.655 156.314 249.905C155.563 249.154 155.142 248.137 155.142 247.076V226.422C155.142 219.839 157.757 213.526 162.412 208.871C167.067 204.216 173.38 201.601 179.963 201.601V201.601Z" fill="white"/>
<path d="M179.655 201.639C180.939 201.639 182.221 201.739 183.489 201.939C173.403 201.702 159.696 209.153 159.696 226.258V247.488C159.7 248.411 160.068 249.295 160.721 249.948C161.374 250.601 162.258 250.969 163.181 250.973H158.519C157.596 250.969 156.712 250.601 156.059 249.948C155.406 249.295 155.038 248.411 155.034 247.488V226.262C155.053 219.738 157.653 213.486 162.266 208.872C166.879 204.259 173.131 201.658 179.655 201.639Z" fill="#EAEFF4"/>
<path d="M179.963 201.601C183.201 201.601 186.407 202.239 189.398 203.478C192.389 204.717 195.107 206.533 197.396 208.822C199.685 211.111 201.501 213.829 202.74 216.82C203.979 219.812 204.617 223.017 204.617 226.255V226.255C204.617 232.838 202.002 239.151 197.347 243.806C192.692 248.461 186.379 251.076 179.796 251.076H159.142C158.081 251.076 157.064 250.655 156.314 249.905C155.563 249.154 155.142 248.137 155.142 247.076V226.422C155.142 219.839 157.757 213.526 162.412 208.871C167.067 204.216 173.38 201.601 179.963 201.601V201.601Z" stroke="#B8C0CC" stroke-width="1.883" stroke-linecap="round" stroke-linejoin="round"/>
<path d="M189.93 226.706C189.131 227.329 188.152 227.676 187.139 227.697C186.122 227.697 185.136 227.347 184.346 226.706" stroke="#B8C0CC" stroke-width="1.883" stroke-linecap="round" stroke-linejoin="round"/>
<path d="M180.911 221.454C181.838 220.205 182.436 218.743 182.647 217.202C182.674 216.932 182.647 216.66 182.568 216.4C182.49 216.141 182.361 215.899 182.189 215.689C182.017 215.48 181.805 215.306 181.566 215.178C181.327 215.05 181.065 214.971 180.795 214.944C180.769 214.944 180.743 214.939 180.717 214.938C180.297 215.564 179.692 216.042 178.986 216.306C178.28 216.569 177.509 216.605 176.782 216.407C176.392 216.79 176.171 217.313 176.166 217.86C176.162 218.407 176.375 218.933 176.758 219.323C176.776 219.342 176.796 219.36 176.815 219.379C177.983 220.406 179.392 221.12 180.911 221.454Z" fill="#E64C3C"/>
<path d="M191.626 221.578C193.081 221.028 194.374 220.12 195.384 218.937C195.552 218.724 195.677 218.481 195.751 218.22C195.825 217.959 195.847 217.686 195.815 217.417C195.784 217.147 195.699 216.887 195.567 216.65C195.435 216.413 195.257 216.205 195.044 216.037C195.025 216.021 195.004 216.006 194.984 215.991C194.292 216.289 193.524 216.364 192.788 216.205C192.051 216.046 191.382 215.661 190.875 215.104C190.609 215.159 190.357 215.266 190.133 215.419C189.909 215.571 189.717 215.767 189.568 215.994C189.42 216.221 189.317 216.475 189.267 216.741C189.217 217.008 189.219 217.282 189.275 217.547C189.28 217.573 189.286 217.598 189.292 217.623C189.723 219.118 190.526 220.478 191.626 221.578Z" fill="#E64C3C"/>
<path d="M40.2 149.72C41.0133 149.947 41.64 150.36 42.08 150.96C42.5333 151.56 42.76 152.293 42.76 153.16C42.76 154.36 42.3267 155.3 41.46 155.98C40.6067 156.66 39.4267 157 37.92 157H32.76C32.3733 157 32.0667 156.893 31.84 156.68C31.6267 156.467 31.52 156.167 31.52 155.78V144.12C31.52 143.733 31.6267 143.433 31.84 143.22C32.0667 143.007 32.3733 142.9 32.76 142.9H37.72C39.1867 142.9 40.3333 143.227 41.16 143.88C42 144.52 42.42 145.42 42.42 146.58C42.42 147.327 42.22 147.973 41.82 148.52C41.4333 149.067 40.8933 149.467 40.2 149.72ZM34.04 148.84H37.3C39.0733 148.84 39.96 148.18 39.96 146.86C39.96 146.193 39.74 145.7 39.3 145.38C38.86 145.06 38.1933 144.9 37.3 144.9H34.04V148.84ZM37.64 155C38.5733 155 39.2533 154.833 39.68 154.5C40.1067 154.167 40.32 153.647 40.32 152.94C40.32 152.233 40.1 151.707 39.66 151.36C39.2333 151.013 38.56 150.84 37.64 150.84H34.04V155H37.64ZM49.3923 146.98C50.7523 146.98 51.759 147.32 52.4123 148C53.079 148.667 53.4123 149.687 53.4123 151.06V155.94C53.4123 156.3 53.3057 156.587 53.0923 156.8C52.879 157 52.5857 157.1 52.2123 157.1C51.8657 157.1 51.579 156.993 51.3523 156.78C51.139 156.567 51.0323 156.287 51.0323 155.94V155.5C50.8057 156.02 50.4457 156.427 49.9523 156.72C49.4723 157.013 48.9123 157.16 48.2723 157.16C47.619 157.16 47.0257 157.027 46.4923 156.76C45.959 156.493 45.539 156.127 45.2323 155.66C44.9257 155.193 44.7723 154.673 44.7723 154.1C44.7723 153.38 44.9523 152.813 45.3123 152.4C45.6857 151.987 46.2857 151.687 47.1123 151.5C47.939 151.313 49.079 151.22 50.5323 151.22H51.0323V150.76C51.0323 150.107 50.8923 149.633 50.6123 149.34C50.3323 149.033 49.879 148.88 49.2523 148.88C48.8657 148.88 48.4723 148.94 48.0723 149.06C47.6723 149.167 47.199 149.327 46.6523 149.54C46.3057 149.713 46.0523 149.8 45.8923 149.8C45.6523 149.8 45.4523 149.713 45.2923 149.54C45.1457 149.367 45.0723 149.14 45.0723 148.86C45.0723 148.633 45.1257 148.44 45.2323 148.28C45.3523 148.107 45.5457 147.947 45.8123 147.8C46.279 147.547 46.8323 147.347 47.4723 147.2C48.1257 147.053 48.7657 146.98 49.3923 146.98ZM48.7723 155.36C49.439 155.36 49.979 155.14 50.3923 154.7C50.819 154.247 51.0323 153.667 51.0323 152.96V152.54H50.6723C49.779 152.54 49.0857 152.58 48.5923 152.66C48.099 152.74 47.7457 152.88 47.5323 153.08C47.319 153.28 47.2123 153.553 47.2123 153.9C47.2123 154.327 47.359 154.68 47.6523 154.96C47.959 155.227 48.3323 155.36 48.7723 155.36ZM61.6131 147.02C61.9598 146.993 62.2331 147.067 62.4331 147.24C62.6331 147.413 62.7331 147.673 62.7331 148.02C62.7331 148.38 62.6465 148.647 62.4731 148.82C62.2998 148.993 61.9865 149.107 61.5331 149.16L60.9331 149.22C60.1465 149.3 59.5665 149.567 59.1931 150.02C58.8331 150.473 58.6531 151.04 58.6531 151.72V155.92C58.6531 156.307 58.5331 156.607 58.2931 156.82C58.0531 157.02 57.7531 157.12 57.3931 157.12C57.0331 157.12 56.7331 157.02 56.4931 156.82C56.2665 156.607 56.1531 156.307 56.1531 155.92V148.18C56.1531 147.807 56.2665 147.52 56.4931 147.32C56.7331 147.12 57.0265 147.02 57.3731 147.02C57.7198 147.02 57.9998 147.12 58.2131 147.32C58.4265 147.507 58.5331 147.78 58.5331 148.14V148.94C58.7865 148.353 59.1598 147.9 59.6531 147.58C60.1598 147.26 60.7198 147.08 61.3331 147.04L61.6131 147.02ZM69.6294 146.98C70.4827 146.98 71.236 147.187 71.8894 147.6C72.5427 148.013 73.0494 148.6 73.4094 149.36C73.7827 150.12 73.9694 151.007 73.9694 152.02C73.9694 153.033 73.7827 153.933 73.4094 154.72C73.0494 155.493 72.536 156.093 71.8694 156.52C71.216 156.947 70.4694 157.16 69.6294 157.16C68.9227 157.16 68.2894 157.007 67.7294 156.7C67.1827 156.393 66.7627 155.967 66.4694 155.42V155.92C66.4694 156.28 66.356 156.567 66.1294 156.78C65.9027 156.993 65.6027 157.1 65.2294 157.1C64.856 157.1 64.556 156.993 64.3294 156.78C64.116 156.567 64.0094 156.28 64.0094 155.92V143.96C64.0094 143.613 64.1227 143.333 64.3494 143.12C64.5894 142.907 64.896 142.8 65.2694 142.8C65.6427 142.8 65.9427 142.9 66.1694 143.1C66.396 143.3 66.5094 143.573 66.5094 143.92V148.64C66.8027 148.107 67.2227 147.7 67.7694 147.42C68.316 147.127 68.936 146.98 69.6294 146.98ZM68.9694 155.22C69.756 155.22 70.3694 154.94 70.8094 154.38C71.2494 153.82 71.4694 153.033 71.4694 152.02C71.4694 151.02 71.2494 150.253 70.8094 149.72C70.3827 149.187 69.7694 148.92 68.9694 148.92C68.1694 148.92 67.5494 149.193 67.1094 149.74C66.6827 150.273 66.4694 151.047 66.4694 152.06C66.4694 153.073 66.6827 153.853 67.1094 154.4C67.5494 154.947 68.1694 155.22 68.9694 155.22ZM83.9611 154.32C84.1878 154.32 84.3678 154.407 84.5011 154.58C84.6478 154.753 84.7211 154.987 84.7211 155.28C84.7211 155.693 84.4744 156.04 83.9811 156.32C83.5278 156.573 83.0144 156.78 82.4411 156.94C81.8678 157.087 81.3211 157.16 80.8011 157.16C79.2278 157.16 77.9811 156.707 77.0611 155.8C76.1411 154.893 75.6811 153.653 75.6811 152.08C75.6811 151.08 75.8811 150.193 76.2811 149.42C76.6811 148.647 77.2411 148.047 77.9611 147.62C78.6944 147.193 79.5211 146.98 80.4411 146.98C81.3211 146.98 82.0878 147.173 82.7411 147.56C83.3944 147.947 83.9011 148.493 84.2611 149.2C84.6211 149.907 84.8011 150.74 84.8011 151.7C84.8011 152.273 84.5478 152.56 84.0411 152.56H78.1411C78.2211 153.48 78.4811 154.16 78.9211 154.6C79.3611 155.027 80.0011 155.24 80.8411 155.24C81.2678 155.24 81.6411 155.187 81.9611 155.08C82.2944 154.973 82.6678 154.827 83.0811 154.64C83.4811 154.427 83.7744 154.32 83.9611 154.32ZM80.5011 148.74C79.8211 148.74 79.2744 148.953 78.8611 149.38C78.4611 149.807 78.2211 150.42 78.1411 151.22H82.6611C82.6344 150.407 82.4344 149.793 82.0611 149.38C81.6878 148.953 81.1678 148.74 80.5011 148.74ZM92.5061 147.02C92.8528 146.993 93.1261 147.067 93.3261 147.24C93.5261 147.413 93.6261 147.673 93.6261 148.02C93.6261 148.38 93.5394 148.647 93.3661 148.82C93.1928 148.993 92.8794 149.107 92.4261 149.16L91.8261 149.22C91.0394 149.3 90.4594 149.567 90.0861 150.02C89.7261 150.473 89.5461 151.04 89.5461 151.72V155.92C89.5461 156.307 89.4261 156.607 89.1861 156.82C88.9461 157.02 88.6461 157.12 88.2861 157.12C87.9261 157.12 87.6261 157.02 87.3861 156.82C87.1594 156.607 87.0461 156.307 87.0461 155.92V148.18C87.0461 147.807 87.1594 147.52 87.3861 147.32C87.6261 147.12 87.9194 147.02 88.2661 147.02C88.6128 147.02 88.8928 147.12 89.1061 147.32C89.3194 147.507 89.4261 147.78 89.4261 148.14V148.94C89.6794 148.353 90.0528 147.9 90.5461 147.58C91.0528 147.26 91.6128 147.08 92.2261 147.04L92.5061 147.02Z" fill="#FE7C5F"/>
</svg>
