<svg width="62" height="61" viewBox="0 0 62 61" fill="none" xmlns="http://www.w3.org/2000/svg">
<path d="M58.8809 23.0999C57.1268 21.8921 54.768 22.345 53.5583 24.0662L42.0664 40.7044H5.7157C3.59877 40.7044 1.87498 42.4256 1.87498 44.5393C1.87498 46.653 3.59877 48.3742 5.7157 48.3742H44.0624C44.1228 48.3742 44.1531 48.3742 44.2136 48.3742C44.274 48.3742 44.3648 48.3742 44.4253 48.3742C44.4857 48.3742 44.5765 48.344 44.637 48.344C44.6974 48.344 44.7277 48.344 44.7882 48.3138C44.8789 48.3138 44.9394 48.2837 44.9999 48.2535C45.0603 48.2535 45.0906 48.2233 45.1208 48.2233C45.1813 48.1931 45.272 48.1629 45.3325 48.1629C45.393 48.1327 45.4232 48.1327 45.4837 48.1025C45.5442 48.0723 45.6047 48.0421 45.6652 48.0119C45.7257 47.9817 45.7559 47.9515 45.8164 47.9515C45.8769 47.9213 45.9071 47.8911 45.9676 47.8609C46.0281 47.8307 46.0886 47.8005 46.149 47.7703C46.1793 47.7401 46.2398 47.7099 46.27 47.6797C46.3305 47.6495 46.391 47.5891 46.4515 47.5589C46.4817 47.5287 46.5119 47.4985 46.5724 47.4683C46.6329 47.408 46.6934 47.3778 46.7236 47.3174C46.7539 47.2872 46.8144 47.2268 46.8446 47.1966C46.9051 47.1362 46.9353 47.106 46.9656 47.0456C47.0261 46.9852 47.0563 46.9248 47.1168 46.8644C47.147 46.8342 47.1773 46.804 47.2075 46.7738L59.8184 28.5051C61.0583 26.6933 60.6046 24.3078 58.8809 23.0999Z" stroke="#B8C0CC" stroke-width="1.5" stroke-miterlimit="10"/>
<path d="M29.0019 40.7048L38.1652 13.4375" stroke="#B8C0CC" stroke-width="1.5" stroke-miterlimit="10"/>
<path d="M28.639 9.57225C30.5745 4.19731 36.5321 1.38906 41.9454 3.32162C47.3587 5.25418 50.141 11.2029 48.2055 16.608L28.639 9.57225Z" stroke="#B8C0CC" stroke-width="1.5" stroke-miterlimit="10"/>
<path d="M9.55642 48.374L7.01611 59.9996H12.127L15.0302 48.374H9.55642Z" stroke="#B8C0CC" stroke-width="1.5" stroke-miterlimit="10"/>
<path d="M43.6087 48.374L46.1188 59.9996H41.0382L38.1047 48.374H43.6087Z" stroke="#B8C0CC" stroke-width="1.5" stroke-miterlimit="10"/>
<path d="M10.9778 15.8229C13.9174 15.8229 16.3004 13.4435 16.3004 10.5084C16.3004 7.57325 13.9174 5.19385 10.9778 5.19385C8.03822 5.19385 5.65523 7.57325 5.65523 10.5084C5.65523 13.4435 8.03822 15.8229 10.9778 15.8229Z" fill="#FE7C5F"/>
<path d="M10.9778 0V1.81178" stroke="#B8C0CC" stroke-width="1.5" stroke-miterlimit="10"/>
<path d="M10.9778 19.6577V21.4695" stroke="#B8C0CC" stroke-width="1.5" stroke-miterlimit="10"/>
<path d="M4.56652 17.0308L3.26612 18.3292" stroke="#B8C0CC" stroke-width="1.5" stroke-miterlimit="10"/>
<path d="M1.81451 10.5083H0" stroke="#B8C0CC" stroke-width="1.5" stroke-miterlimit="10"/>
<path d="M4.32458 4.19752L2.99394 2.95947" stroke="#B8C0CC" stroke-width="1.5" stroke-miterlimit="10"/>
<path d="M17.5705 4.10662L18.8709 2.83838" stroke="#B8C0CC" stroke-width="1.5" stroke-miterlimit="10"/>
<path d="M20.1713 10.5083H21.9858" stroke="#B8C0CC" stroke-width="1.5" stroke-miterlimit="10"/>
<path d="M17.3891 17.0908L18.629 18.3893" stroke="#B8C0CC" stroke-width="1.5" stroke-miterlimit="10"/>
</svg>
