<svg xmlns="http://www.w3.org/2000/svg" width="106" height="109" viewBox="0 0 106 109">
  <g id="Group_1" data-name="Group 1" transform="translate(-714 -457)">
    <path id="Path_65" data-name="Path 65" d="M53,105c29.271,0,53-23.505,53-52.5S82.271,0,53,0,0,23.505,0,52.5,23.729,105,53,105Z" transform="translate(714 457)" fill="#f2f5fa"/>
    <rect id="Rectangle_6" data-name="Rectangle 6" width="49.12" height="78.12" rx="3.06" transform="translate(744.94 486.94)" fill="#fff" stroke="#b8c0cc" stroke-width="1.88"/>
    <rect id="Rectangle_8" data-name="Rectangle 8" width="43" height="9" rx="2" transform="translate(748 491)" fill="#efefef"/>
    <rect id="Rectangle_9" data-name="Rectangle 9" width="19" height="20" rx="2" transform="translate(748 513)" fill="#efefef"/>
    <path id="Path_67" data-name="Path 67" d="M42.469,31.881q.631,0,.631.566,0,.588-.631.588h-4a.566.566,0,0,1-.431-.166.628.628,0,0,1-.158-.433.868.868,0,0,1,.242-.6l2.4-2.718a4.279,4.279,0,0,0,.642-.932,1.941,1.941,0,0,0,.21-.854,1.066,1.066,0,0,0-.284-.8,1.112,1.112,0,0,0-.81-.277,2.1,2.1,0,0,0-.842.177,3.973,3.973,0,0,0-.81.466,1.654,1.654,0,0,1-.21.133.538.538,0,0,1-.21.044.394.394,0,0,1-.316-.177.708.708,0,0,1-.126-.422.725.725,0,0,1,.053-.288.81.81,0,0,1,.189-.233,3.848,3.848,0,0,1,2.326-.843,2.485,2.485,0,0,1,1.726.577,1.969,1.969,0,0,1,.652,1.553,3.034,3.034,0,0,1-.274,1.276,5.686,5.686,0,0,1-.926,1.32l-1.82,2.041Zm6.6-1.486a.682.682,0,0,1,.474.144.528.528,0,0,1,.158.41q0,.555-.631.555h-.537v.876a.718.718,0,0,1-.189.532.622.622,0,0,1-.474.189.657.657,0,0,1-.484-.189.743.743,0,0,1-.179-.532V31.5H44.453a.58.58,0,0,1-.442-.166.628.628,0,0,1-.158-.433.885.885,0,0,1,.168-.51l3.252-4.925a.675.675,0,0,1,.263-.233.657.657,0,0,1,.326-.089.667.667,0,0,1,.474.189.7.7,0,0,1,.2.532v4.526Zm-3.82,0H47.21V27.41Zm5.531,3.017a.572.572,0,0,1-.2.311.505.505,0,0,1-.305.1.545.545,0,0,1-.379-.155.487.487,0,0,1-.158-.377.659.659,0,0,1,.032-.2l2.441-8.065a.572.572,0,0,1,.2-.311.515.515,0,0,1,.673.055.473.473,0,0,1,.168.377.659.659,0,0,1-.032.2Zm7.666-8.2a.533.533,0,0,1,.421.166.572.572,0,0,1,.147.41,1.135,1.135,0,0,1-.147.532l-3.357,6.423a.642.642,0,0,1-.579.377.663.663,0,0,1-.452-.177.618.618,0,0,1-.189-.455.768.768,0,0,1,.105-.377l3.02-5.746H54.24q-.631,0-.631-.566,0-.588.631-.588Z" transform="translate(721.235 449.476)" fill="#b8c0cc"/>
    <rect id="Rectangle_10" data-name="Rectangle 10" width="43" height="3" rx="1.5" transform="translate(748 505)" fill="#efefef"/>
    <rect id="Rectangle_11" data-name="Rectangle 11" width="18" height="20" rx="2" transform="translate(773 513)" fill="#efefef"/>
    <rect id="Rectangle_12" data-name="Rectangle 12" width="40" height="3" rx="1.5" transform="translate(748 537)" fill="#efefef"/>
    <path id="Path_66" data-name="Path 66" d="M69.829,86.49,69,56.545,89.258,77.317l-10.912.3Z" transform="translate(707 458)" fill="#fff" stroke="#5f45ff" stroke-linejoin="round" stroke-width="2"/>
  </g>
</svg>
