<svg width="62" height="60" viewBox="0 0 62 60" fill="none" xmlns="http://www.w3.org/2000/svg">
<path d="M48.6001 35L53.6001 25" stroke="#5F45FF" stroke-width="1.3893" stroke-miterlimit="10" stroke-linecap="round" stroke-linejoin="round"/>
<path d="M14.75 24.8906C14.75 23.8909 14.9917 22.9322 15.3722 22.0908L15.4808 22.0638L24.5764 19.8035C26.2778 20.9016 27.25 22.7115 27.25 24.8906C27.25 28.4484 24.4748 31.25 21 31.25C17.5251 31.25 14.75 28.4484 14.75 24.8906Z" stroke="#B7BFCB" stroke-width="1.5"/>
<path d="M31.5 36.9001C21.6 29.0001 10.9 36.5001 10.9 36.5001C13.2 42.2001 14.5 58.5001 14.5 58.5001H27.4L31.5 36.9001Z" stroke="#B7BFCB" stroke-width="1.3893" stroke-miterlimit="10" stroke-linejoin="round"/>
<path d="M12.9 45.4001C5 48.3001 3.5 58 3.5 58C-3.4 44.9 11.4 36.3 11.4 36.3" stroke="#B7BFCB" stroke-width="1.3893" stroke-miterlimit="10" stroke-linejoin="round"/>
<path d="M29.7 45.4001C33.1 45.8001 46.1 46.6001 49.1 34.1001C49.1 34.1001 41.6 40.5001 33.7 37.4001L30.9 36.3001L30.8 36.2001" stroke="#B7BFCB" stroke-width="1.3893" stroke-miterlimit="10" stroke-linejoin="round"/>
<path d="M25 33.7V35.9C25 37 24.6 37.8999 23.9 38.5999C23.2 39.2999 22.3 39.7 21.2 39.7C19.1 39.7 17.4 38 17.4 35.9V33.9" stroke="#B7BFCB" stroke-width="1.3893" stroke-miterlimit="10" stroke-linejoin="round"/>
<path d="M53.7969 25.2C52.1969 24.4 51.4969 22.4 52.3969 20.8L55.3969 15L61.1969 18L58.1969 23.8C57.3969 25.4 55.3969 26.1 53.7969 25.2Z" fill="#5F45FF"/>
<path d="M22.3412 12.1316L24.3113 19.5316L15.4928 21.8316L13.6165 14.6316C13.2412 14.7316 12.7722 14.8316 12.3969 14.8316C9.86393 14.8316 7.80002 12.6316 7.80002 9.93164C7.80002 7.43164 9.58249 5.33164 11.9278 5.13164C12.3969 3.03164 14.1794 1.43164 16.3371 1.43164C17.6505 1.43164 18.8701 2.03164 19.6206 2.93164C20.1835 2.63164 20.8402 2.43164 21.4031 2.43164C23.9361 2.43164 26 4.63164 26 7.33164C26 9.73164 24.4051 11.6316 22.3412 12.1316Z" stroke="#B7BFCB" stroke-width="1.3893" stroke-miterlimit="10"/>
<path d="M20.934 6.5317C20.934 6.0317 20.934 5.4317 20.7463 4.9317C20.0896 2.3317 17.6505 0.831695 15.2113 1.4317C12.7721 2.0317 11.3649 4.7317 11.9278 7.3317C12.1154 7.9317 12.3969 8.53169 12.7721 9.03169" stroke="#B7BFCB" stroke-width="1.3893" stroke-miterlimit="10"/>
<path d="M23.1856 15.6316L14.4609 18.0316" stroke="#B7BFCB" stroke-width="1.3893" stroke-miterlimit="10"/>
</svg>
