<svg width="52" height="51" viewBox="0 0 52 51" fill="none" xmlns="http://www.w3.org/2000/svg">
<path d="M26.0164 50.7736C40.0867 50.7736 51.493 39.4541 51.493 25.4908C51.493 11.5275 40.0867 0.208008 26.0164 0.208008C11.9461 0.208008 0.539795 11.5275 0.539795 25.4908C0.539795 39.4541 11.9461 50.7736 26.0164 50.7736Z" fill="#F0F4F7"/>
<rect x="10" y="14" width="31.9558" height="19.837" rx="2" fill="white" stroke="#B8C0CC" stroke-width="1.88"/>
<rect x="24.4563" y="34.7205" width="2.80839" height="4.91482" fill="#B8C0CC"/>
<rect x="19.1445" y="41.7172" width="2.32062" height="13.4318" rx="1.16031" transform="rotate(-90 19.1445 41.7172)" fill="#B8C0CC"/>
<path d="M18.7226 23.4834C20.4506 23.4834 21.8515 22.1087 21.8515 20.4128C21.8515 18.717 20.4506 17.3423 18.7226 17.3423C16.9946 17.3423 15.5938 18.717 15.5938 20.4128C15.5938 22.1087 16.9946 23.4834 18.7226 23.4834Z" stroke="#B8C0CC"/>
<path d="M22.5103 30.0665C22.6491 30.0678 22.7864 30.0383 22.9121 29.9805C23.0378 29.9227 23.1486 29.838 23.2364 29.7325C23.3242 29.627 23.3868 29.5035 23.4195 29.3711C23.4521 29.2387 23.454 29.1008 23.4252 28.9676C23.1729 27.93 22.5716 27.0059 21.7184 26.3448C20.8652 25.6838 19.8098 25.3242 18.7227 25.3242C17.6357 25.3242 16.5803 25.6838 15.7271 26.3448C14.8739 27.0059 14.2726 27.93 14.0203 28.9676C13.9914 29.1008 13.9934 29.2387 14.026 29.3711C14.0587 29.5035 14.1213 29.627 14.2091 29.7325C14.2969 29.838 14.4077 29.9227 14.5334 29.9805C14.659 30.0383 14.7963 30.0678 14.9351 30.0665H22.5103Z" stroke="#B8C0CC"/>
<path d="M37 24.5C37 25.5878 36.6774 26.6512 36.0731 27.5556C35.4687 28.4601 34.6098 29.1651 33.6048 29.5813C32.5998 29.9976 31.4939 30.1065 30.427 29.8943C29.3601 29.6821 28.3801 29.1583 27.6109 28.3891C26.8417 27.6199 26.3179 26.6399 26.1057 25.573C25.8935 24.5061 26.0024 23.4002 26.4187 22.3952C26.8349 21.3902 27.5399 20.5313 28.4444 19.9269C29.3488 19.3226 30.4122 19 31.5 19V24.5H37Z" fill="white" stroke="#B8C0CC" stroke-miterlimit="10" stroke-linecap="round"/>
<path d="M33 17C34.5913 17.0001 36.1174 17.6322 37.2426 18.7574C38.3679 19.8827 39 21.4087 39 23H33V17Z" stroke="#5F45FF" stroke-miterlimit="10" stroke-linecap="round"/>
</svg>
