<svg width="106" height="105" viewBox="0 0 106 105" fill="none" xmlns="http://www.w3.org/2000/svg">
<path d="M52.8636 105C81.8585 105 105.364 81.4949 105.364 52.5C105.364 23.5051 81.8585 0 52.8636 0C23.8686 0 0.363586 23.5051 0.363586 52.5C0.363586 81.4949 23.8686 105 52.8636 105Z" fill="#F2F5FA"/>
<g clip-path="url(#clip0)">
<path d="M28.0216 27.3999H77.3578C80.1317 27.3999 82.3112 29.5999 82.3112 32.3999V82.1999C82.3112 84.9999 80.1317 87.1999 77.3578 87.1999H28.0216C25.2477 87.1999 23.0681 84.9999 23.0681 82.1999V32.3999C23.0681 29.6999 25.2477 27.3999 28.0216 27.3999Z" fill="#B8C0CC"/>
<path d="M28.2897 38.3999H77.0897C78.8897 38.3999 80.2897 39.5999 80.2897 41.0999V81.8999C80.2897 83.3999 78.8897 84.5999 77.0897 84.5999H28.2897C26.4897 84.5999 25.0897 83.3999 25.0897 81.8999V41.0999C25.0897 39.5999 26.5897 38.3999 28.2897 38.3999Z" fill="white"/>
<path d="M36.6897 53.6001H30.1897C29.3897 53.6001 28.6897 52.9001 28.6897 52.1001V45.6001C28.6897 44.8001 29.3897 44.1001 30.1897 44.1001H36.6897C37.4897 44.1001 38.1897 44.8001 38.1897 45.6001V52.0001C38.1897 52.9001 37.5897 53.6001 36.6897 53.6001Z" fill="#EFEFEF"/>
<path d="M49.6897 53.6001H43.1897C42.3897 53.6001 41.6897 52.9001 41.6897 52.1001V45.6001C41.6897 44.8001 42.3897 44.1001 43.1897 44.1001H49.6897C50.4897 44.1001 51.1897 44.8001 51.1897 45.6001V52.0001C51.1897 52.9001 50.4897 53.6001 49.6897 53.6001Z" fill="#EFEFEF"/>
<path d="M36.6897 66.8999H30.1897C29.3897 66.8999 28.6897 66.1999 28.6897 65.3999V58.8999C28.6897 58.0999 29.3897 57.3999 30.1897 57.3999H36.6897C37.4897 57.3999 38.1897 58.0999 38.1897 58.8999V65.3999C38.1897 66.1999 37.5897 66.8999 36.6897 66.8999Z" fill="#EFEFEF"/>
<path d="M49.6897 66.8999H43.1897C42.3897 66.8999 41.6897 66.1999 41.6897 65.3999V58.8999C41.6897 58.0999 42.3897 57.3999 43.1897 57.3999H49.6897C50.4897 57.3999 51.1897 58.0999 51.1897 58.8999V65.3999C51.1897 66.1999 50.4897 66.8999 49.6897 66.8999Z" fill="#EFEFEF"/>
<path d="M36.6897 80.3H30.1897C29.3897 80.3 28.6897 79.6 28.6897 78.8V72.3C28.6897 71.5 29.3897 70.8 30.1897 70.8H36.6897C37.4897 70.8 38.1897 71.5 38.1897 72.3V78.8C38.1897 79.6 37.5897 80.3 36.6897 80.3Z" fill="#EFEFEF"/>
<path d="M49.6897 80.3H43.1897C42.3897 80.3 41.6897 79.6 41.6897 78.8V72.3C41.6897 71.5 42.3897 70.8 43.1897 70.8H49.6897C50.4897 70.8 51.1897 71.5 51.1897 72.3V78.8C51.1897 79.6 50.4897 80.3 49.6897 80.3Z" fill="#EFEFEF"/>
<path d="M62.5897 66.8999H56.0897C55.2897 66.8999 54.5897 66.1999 54.5897 65.3999V58.8999C54.5897 58.0999 55.2897 57.3999 56.0897 57.3999H62.5897C63.3897 57.3999 64.0897 58.0999 64.0897 58.8999V65.3999C64.0897 66.1999 63.3897 66.8999 62.5897 66.8999Z" fill="#EFEFEF"/>
<path d="M62.5897 80.3H56.0897C55.2897 80.3 54.5897 79.6 54.5897 78.8V72.3C54.5897 71.5 55.2897 70.8 56.0897 70.8H62.5897C63.3897 70.8 64.0897 71.5 64.0897 72.3V78.8C64.0897 79.6 63.3897 80.3 62.5897 80.3Z" fill="#EFEFEF"/>
<path d="M62.7897 53.6001H56.2897C55.4897 53.6001 54.7897 52.9001 54.7897 52.1001V45.6001C54.7897 44.8001 55.4897 44.1001 56.2897 44.1001H62.7897C63.5897 44.1001 64.2897 44.8001 64.2897 45.6001V52.0001C64.2897 52.9001 63.5897 53.6001 62.7897 53.6001Z" fill="#EFEFEF"/>
<path d="M75.6897 53.6001H69.1897C68.3897 53.6001 67.6897 52.9001 67.6897 52.1001V45.6001C67.6897 44.8001 68.3897 44.1001 69.1897 44.1001H75.6897C76.4897 44.1001 77.1897 44.8001 77.1897 45.6001V52.0001C77.1897 52.9001 76.5897 53.6001 75.6897 53.6001Z" fill="#5F45FF"/>
<path d="M68.1314 86.4641V56.4641L87.8314 77.7641H76.8314L68.1314 86.4641Z" fill="white" stroke="#5F45FF" stroke-width="2" stroke-linejoin="round"/>
<path d="M34.4897 29.4H33.9897C32.8897 29.4 31.9897 28.5 31.9897 27.4V22C31.9897 20.9 32.8897 20 33.9897 20H34.4897C35.5897 20 36.4897 20.9 36.4897 22V27.4C36.4897 28.5 35.5897 29.4 34.4897 29.4Z" fill="#B8C0CC"/>
<path d="M71.9897 29.4H71.4897C70.3897 29.4 69.4897 28.5 69.4897 27.4V22C69.4897 20.9 70.3897 20 71.4897 20H71.9897C73.0897 20 73.9897 20.9 73.9897 22V27.4C73.9897 28.5 73.0897 29.4 71.9897 29.4Z" fill="#B8C0CC"/>
</g>
<defs>
<clipPath id="clip0">
<rect width="66.8" height="67.8" fill="white" transform="translate(22.7897 20)"/>
</clipPath>
</defs>
</svg>
