<svg width="106" height="105" viewBox="0 0 106 105" fill="none" xmlns="http://www.w3.org/2000/svg">
<path d="M52.7524 104.702C81.8868 104.702 105.505 81.264 105.505 52.3512C105.505 23.4384 81.8868 0 52.7524 0C23.6181 0 0 23.4384 0 52.3512C0 81.264 23.6181 104.702 52.7524 104.702Z" fill="#F2F5FA"/>
<path d="M41.5547 85.3931C41.5571 85.8672 41.7464 86.3212 42.0815 86.6565C42.4167 86.9918 42.8706 87.1813 43.3447 87.184H87.0757C87.5498 87.1813 88.0037 86.9918 88.3389 86.6565C88.674 86.3212 88.8634 85.8672 88.8657 85.3931V31.193L75.4468 17.724H43.3467C42.8728 17.7266 42.419 17.9161 42.0839 18.2512C41.7487 18.5863 41.5594 19.0401 41.5568 19.514V22.774" fill="white"/>
<path d="M41.5547 85.3931C41.5571 85.8672 41.7464 86.3212 42.0815 86.6565C42.4167 86.9918 42.8706 87.1813 43.3447 87.184H87.0757C87.5498 87.1813 88.0037 86.9918 88.3389 86.6565C88.674 86.3212 88.8634 85.8672 88.8657 85.3931V31.193L75.4468 17.724H43.3467C42.8728 17.7266 42.419 17.9161 42.0839 18.2512C41.7487 18.5863 41.5594 19.0401 41.5568 19.514V22.774" stroke="#B8C0CC" stroke-width="2" stroke-miterlimit="10" stroke-linecap="round"/>
<path d="M63.966 55.632C63.966 60.3753 62.5594 65.0123 59.9241 68.9563C57.2888 72.9003 53.5432 75.9742 49.1609 77.7894C44.7786 79.6046 39.9564 80.0796 35.3041 79.1542C30.6519 78.2288 26.3785 75.9447 23.0244 72.5906C19.6704 69.2365 17.3862 64.9632 16.4608 60.3109C15.5355 55.6587 16.0104 50.8364 17.8256 46.4541C19.6408 42.0718 22.7147 38.3262 26.6587 35.6909C30.6027 33.0556 35.2395 31.649 39.9829 31.649V55.632H63.966Z" fill="white" stroke="#B8C0CC" stroke-width="2" stroke-miterlimit="10" stroke-linecap="round"/>
<path d="M47.9341 23.6951C54.2946 23.6953 60.3945 26.2222 64.892 30.7198C69.3894 35.2175 71.9161 41.3175 71.9161 47.678H47.9341V23.6951Z" stroke="#5F45FF" stroke-width="2" stroke-miterlimit="10" stroke-linecap="round"/>
<path d="M75.4468 17.726V28.313C75.4468 29.058 75.7426 29.7725 76.2694 30.2993C76.7962 30.8261 77.5107 31.1219 78.2557 31.1219H88.8657" stroke="#B8C0CC" stroke-width="2" stroke-miterlimit="10" stroke-linecap="round"/>
<path d="M76.5669 38.033H84.0319" stroke="#B8C0CC" stroke-width="2" stroke-miterlimit="10" stroke-linecap="round"/>
<path d="M76.5669 45.22H84.0319" stroke="#B8C0CC" stroke-width="2" stroke-miterlimit="10" stroke-linecap="round"/>
<path d="M76.5669 52.454H84.0319" stroke="#B8C0CC" stroke-width="2" stroke-miterlimit="10" stroke-linecap="round"/>
<path d="M81.9771 71.552C81.9308 71.4083 81.8433 71.2815 81.7254 71.1873C81.6075 71.093 81.4644 71.0355 81.3141 71.022L77.1271 70.642L75.4721 66.767C75.4127 66.6281 75.3139 66.5097 75.1879 66.4265C75.0618 66.3433 74.9141 66.299 74.7631 66.299C74.6121 66.299 74.4643 66.3433 74.3383 66.4265C74.2122 66.5097 74.1134 66.6281 74.0541 66.767L72.3981 70.641L68.2111 71.021C68.0608 71.0349 67.9179 71.0925 67.8001 71.1868C67.6822 71.281 67.5946 71.4077 67.548 71.5513C67.5014 71.6948 67.4979 71.8489 67.5379 71.9944C67.5779 72.1399 67.6597 72.2705 67.7731 72.37L70.9381 75.145L70.0052 79.256C69.9709 79.4032 69.9807 79.5573 70.0335 79.699C70.0863 79.8406 70.1796 79.9636 70.3019 80.0525C70.4242 80.1414 70.5699 80.1922 70.721 80.1987C70.872 80.2052 71.0217 80.167 71.1511 80.089L74.7631 77.9301L78.3731 80.089C78.5027 80.1664 78.6522 80.2041 78.803 80.1973C78.9538 80.1905 79.0992 80.1395 79.2213 80.0508C79.3435 79.9621 79.4369 79.8395 79.49 79.6982C79.5431 79.557 79.5536 79.4032 79.5202 79.256L78.5871 75.145L81.7511 72.37C81.8649 72.2709 81.947 72.1404 81.9872 71.995C82.0274 71.8495 82.0238 71.6955 81.9771 71.552Z" fill="#5F45FF"/>
</svg>
