<svg width="52" height="51" viewBox="0 0 52 51" fill="none" xmlns="http://www.w3.org/2000/svg">
<path d="M26.4539 50.799C40.5242 50.799 51.9305 39.4795 51.9305 25.5162C51.9305 11.5529 40.5242 0.233398 26.4539 0.233398C12.3836 0.233398 0.977295 11.5529 0.977295 25.5162C0.977295 39.4795 12.3836 50.799 26.4539 50.799Z" fill="#F0F4F7"/>
<path d="M38.3153 13.6233L35.8809 20.497L43 22.1336L37.231 26.5933L42.3249 31.8099L35.0626 32.444L36.5355 39.5836L30.071 36.2082L27.4525 43L23.852 36.6582L17.9603 40.9543L18.349 33.6919L11.0866 34.1215L15.3622 28.2094L9 24.6498L15.7918 21.9904L12.3755 15.5463L19.515 16.9783L20.1288 9.716L25.3658 14.7894L29.8051 9L31.4621 16.0987L38.3153 13.6233Z" fill="white" stroke="#B8C0CC" stroke-width="1.5" stroke-miterlimit="10" stroke-linecap="round" stroke-linejoin="round"/>
<path d="M30.4183 18.6863L21.3972 33.7214" stroke="#5F45FF" stroke-width="1.5" stroke-miterlimit="10" stroke-linecap="round" stroke-linejoin="round"/>
<path d="M25.1733 22.6828C25.6954 21.7785 25.5711 20.7292 24.8956 20.3392C24.2201 19.9492 23.2492 20.3661 22.7271 21.2704C22.2049 22.1747 22.3293 23.224 23.0048 23.614C23.6803 24.004 24.6512 23.5871 25.1733 22.6828Z" stroke="#5F45FF" stroke-width="1.5" stroke-miterlimit="10" stroke-linecap="round" stroke-linejoin="round"/>
<path d="M29.3932 30.1008C29.9153 29.1965 29.791 28.1472 29.1155 27.7572C28.4399 27.3672 27.4691 27.7841 26.9469 28.6884C26.4248 29.5927 26.5492 30.642 27.2247 31.032C27.9002 31.422 28.8711 31.0051 29.3932 30.1008Z" stroke="#5F45FF" stroke-width="1.5" stroke-miterlimit="10" stroke-linecap="round" stroke-linejoin="round"/>
</svg>
