<svg width="36" height="61" viewBox="0 0 36 61" fill="none" xmlns="http://www.w3.org/2000/svg">
<path d="M27.2263 18.0062C27.2263 22.7918 23.3977 26.74 18.4925 26.74C13.5872 26.74 9.75867 22.9115 9.75867 18.0062C9.75867 15.8526 10.5962 13.9384 11.7926 12.3831L18.4925 15.9723L24.9531 12.5027C26.3888 13.9384 27.2263 15.9723 27.2263 18.0062Z" stroke="#B7BFCB" stroke-width="1.44" stroke-miterlimit="10" stroke-linejoin="round"/>
<path d="M5.21228 33.32C5.21228 33.32 18.971 23.5094 31.294 33.32" stroke="#B7BFCB" stroke-width="1.44" stroke-miterlimit="10" stroke-linejoin="round"/>
<path d="M9.39972 53.7786C9.87828 57.3678 10.1176 59.9999 10.1176 59.9999H26.1495L27.2262 54.4964" stroke="#B7BFCB" stroke-width="1.44" stroke-miterlimit="10" stroke-linejoin="round"/>
<path d="M23.1584 29.1328V31.8846C23.1584 33.2006 22.6799 34.397 21.7228 35.2345C20.8853 36.072 19.6889 36.6702 18.3728 36.6702C15.7407 36.6702 13.5872 34.5167 13.5872 31.8846V29.3721" stroke="#B7BFCB" stroke-width="1.44" stroke-miterlimit="10" stroke-linejoin="round"/>
<path d="M5.21223 33.3201C0.306943 37.6271 -0.889467 47.4377 4.73366 51.7448C8.68182 54.7358 15.3817 54.7358 20.0477 54.3769L23.7566 53.7787C23.7566 53.7787 12.63 48.1556 8.9211 48.1556C8.68182 48.1556 8.08361 43.1306 7.96397 42.7717C7.48541 39.5414 7.36577 35.9522 5.21223 33.3201Z" stroke="#B7BFCB" stroke-width="1.44" stroke-miterlimit="10" stroke-linejoin="round"/>
<path d="M31.2939 33.3201C31.2939 33.3201 33.2082 36.3111 33.4475 37.0289C34.1653 38.5843 34.6439 40.1396 34.8832 41.8146C35.1225 44.2074 34.7635 46.6002 34.0457 48.8734C33.4475 50.668 32.3707 53.3001 30.5761 54.1376C27.3458 55.6929 23.1584 53.0608 20.287 51.8644C17.2959 50.668 13.5871 48.2752 10.2371 48.2752C10.2371 48.2752 20.1673 43.3699 28.7815 47.0788C28.7815 46.9592 31.2939 33.3201 31.2939 33.3201Z" stroke="#B7BFCB" stroke-width="1.44" stroke-miterlimit="10" stroke-linejoin="round"/>
<path d="M7.72455 6.40088V16.3311" stroke="#5F45FF" stroke-width="1.534" stroke-miterlimit="10" stroke-linecap="round" stroke-linejoin="round"/>
<path d="M29.2599 6.04187L25.3118 8.07577V11.665L18.6119 15.2542L11.6727 11.665V8.67398L11.4334 8.55434L9.87807 7.83649L7.72453 6.75972C7.12633 6.4008 7.12633 5.56331 7.72453 5.20439L18.3726 0.179462C18.8512 -0.0598205 19.3297 -0.0598205 19.8083 0.179462L29.2599 4.60618C29.9778 4.84546 29.9778 5.80259 29.2599 6.04187Z" fill="#5F45FF"/>
</svg>
