<svg width="59" height="61" viewBox="0 0 59 61" fill="none" xmlns="http://www.w3.org/2000/svg">
<path d="M49.7435 16.6755C54.3483 16.6755 58.0813 12.9425 58.0813 8.33774C58.0813 3.73293 54.3483 0 49.7435 0C45.1387 0 41.4058 3.73293 41.4058 8.33774C41.4058 12.9425 45.1387 16.6755 49.7435 16.6755Z" fill="#5F45FF"/>
<path d="M34.6715 19.1767C34.6715 19.1767 45.2307 17.7842 56.6374 24.3802C57.7144 25.003 58.2274 26.2616 57.9009 27.4622C56.6501 32.0609 52.9571 43.5234 45.703 50.4753C45.703 50.4753 38.2631 43.8051 31.9778 43.0355C31.9778 43.0355 36.4673 23.6662 34.6715 19.1767Z" stroke="#B8C0CC" stroke-width="1.5" stroke-miterlimit="10" stroke-linejoin="round"/>
<path d="M34.7865 19.3067H33.7704L28.6554 20.6392C13.8142 23.474 1.03821 12.8787 1.03821 12.8787C4.57854 31.3756 28.4501 32.7738 34.7355 32.8123" stroke="#B8C0CC" stroke-width="1.5" stroke-miterlimit="10" stroke-linejoin="round"/>
<path d="M45.7673 50.4114C45.7673 50.4114 14.3404 88.5084 1 12.8274C1 12.8274 19.2148 56.825 32.0421 42.9715" stroke="#B8C0CC" stroke-width="1.5" stroke-miterlimit="10" stroke-linejoin="round"/>
</svg>
