<svg width="52" height="58" viewBox="0 0 52 58" fill="none" xmlns="http://www.w3.org/2000/svg">
<path d="M26.0164 50.7736C40.0867 50.7736 51.493 39.4541 51.493 25.4908C51.493 11.5275 40.0867 0.208008 26.0164 0.208008C11.9461 0.208008 0.539795 11.5275 0.539795 25.4908C0.539795 39.4541 11.9461 50.7736 26.0164 50.7736Z" fill="#F0F4F7"/>
<rect x="18.4199" y="20.7969" width="19.6448" height="29.8546" rx="2" fill="white" stroke="#B8C0CC" stroke-width="2"/>
<rect x="11.6569" y="26.6304" width="19.6448" height="29.8546" rx="2" fill="white" stroke="#B8C0CC" stroke-width="2"/>
<rect x="15.2728" y="31.1084" width="3.97199" height="3.97199" rx="1" fill="#5F45FF"/>
<rect x="15.2728" y="49.5024" width="12.7226" height="1.54386" rx="0.771931" fill="#EAEFF4"/>
<rect x="20.5365" y="32.2388" width="7.45892" height="1.54386" rx="0.771931" fill="#EAEFF4"/>
<rect x="20.5365" y="38.417" width="7.45892" height="1.54386" rx="0.771931" fill="#EAEFF4"/>
<rect x="20.5365" y="44.9414" width="7.45892" height="1.54386" rx="0.771931" fill="#EAEFF4"/>
<rect x="15.2728" y="37.2285" width="3.97199" height="3.97199" rx="1" fill="#5F45FF"/>
<rect x="15.2728" y="43.5317" width="3.97199" height="3.97199" rx="1" fill="#5F45FF"/>
</svg>
