<svg width="106" height="105" viewBox="0 0 106 105" fill="none" xmlns="http://www.w3.org/2000/svg">
<path d="M52.8174 104.702C81.9518 104.702 105.57 81.264 105.57 52.3512C105.57 23.4384 81.9518 0 52.8174 0C23.683 0 0.0649719 23.4384 0.0649719 52.3512C0.0649719 81.264 23.683 104.702 52.8174 104.702Z" fill="#F2F5FA"/>
<rect x="19.3884" y="35.1902" width="66.4282" height="41.484" rx="2" fill="white" stroke="#B8C0CC" stroke-width="2"/>
<circle cx="30.5612" cy="45.94" r="3.20122" fill="white" stroke="#EAEFF4" stroke-width="2"/>
<circle cx="30.5612" cy="56.9048" r="3.20122" fill="white" stroke="#EAEFF4" stroke-width="2"/>
<circle cx="45.0809" cy="56.9048" r="3.20122" fill="white" stroke="#EAEFF4" stroke-width="2"/>
<circle cx="45.1758" cy="67.5398" r="3.20122" fill="white" stroke="#EAEFF4" stroke-width="2"/>
<circle cx="30.5612" cy="67.4395" r="3.20122" fill="white" stroke="#EAEFF4" stroke-width="2"/>
<circle cx="45.0995" cy="45.94" r="3.20122" fill="white" stroke="#EAEFF4" stroke-width="2"/>
<circle cx="60.5156" cy="45.94" r="3.20122" fill="white" stroke="#EAEFF4" stroke-width="2"/>
<path d="M68.3742 93.0629C81.2609 93.0629 91.7075 82.4823 91.7075 69.4305C91.7075 56.3787 81.2609 45.7981 68.3742 45.7981C55.4876 45.7981 45.0409 56.3787 45.0409 69.4305C45.0409 82.4823 55.4876 93.0629 68.3742 93.0629Z" fill="white" stroke="#B8C0CC" stroke-width="2"/>
<path d="M68.536 53.0454V70.8484L78.336 81.3255" stroke="#5F45FF" stroke-width="2" stroke-linecap="round"/>
</svg>
