<svg width="45" height="62" viewBox="0 0 45 62" fill="none" xmlns="http://www.w3.org/2000/svg">
<path d="M4 61V27H2.5H1V61H4Z" fill="#5F45FF"/>
<path d="M20.3711 16.237C23.3739 16.237 25.8114 13.7985 25.8114 10.7967C25.8114 7.78753 23.3739 5.35645 20.3711 5.35645C17.3683 5.35645 14.9308 7.79494 14.9308 10.7967C14.9308 13.8059 17.3683 16.237 20.3711 16.237Z" stroke="#B8C0CC" stroke-width="1.5" stroke-miterlimit="10"/>
<path d="M25.7771 1C25.7771 1 36.1512 7.73534 29.6044 16.5818C29.6044 16.5818 28.7707 18.112 26.9857 17.8663C25.2008 17.6149 20.3103 17.453 16.2424 21.4797C12.1744 25.5064 5.80464 27.2714 2.49989 27.5C2.49989 27.5 6.59009 31.3258 17.3111 27.8408L20.3886 34.4756C20.3886 34.4756 26.1464 37.4244 29.3023 33.1353C29.3023 33.1353 31.1152 26.2324 31.451 24.2889C31.7867 22.3453 37.7627 12.9628 35.6812 8.00341C33.5996 3.04406 29.9066 1.30158 25.7771 1Z" stroke="#B8C0CC" stroke-width="1.5" stroke-miterlimit="10"/>
<path d="M20.5899 18.637C20.5899 18.637 21.6871 21.2011 23.5001 21C25.313 20.7989 25.5755 17.7546 25.5755 17.7546" stroke="#B8C0CC" stroke-width="1.5" stroke-miterlimit="10"/>
<path d="M27.3381 17.8887C27.1646 18.1232 27.5227 23.6634 31.4508 24.2889" stroke="#B8C0CC" stroke-width="1.5" stroke-miterlimit="10"/>
<path d="M19.3254 19.2122C19.3254 19.2122 21.5076 25.819 17.311 27.8408" stroke="#B8C0CC" stroke-width="1.5" stroke-miterlimit="10"/>
<path d="M20.3885 34.4754C20.3885 34.4754 11.8441 39.9709 9.42688 44.5951C7.00961 49.2194 15.2686 54.7149 15.6043 55.05C15.9401 55.3851 14.4318 58.3848 11.6788 60.2613C11.6788 60.2613 13.9592 60.2104 15.1007 60.3444C16.2422 60.4785 19.4652 57.1611 19.4652 55.8207C19.4652 54.4803 16.8801 49.8952 15.705 47.4099C14.53 44.9246 22.6043 40.5573 23.1079 40.306C23.6115 40.0546 25.4245 38.8483 28.2446 40.0546C31.0647 41.261 38.7698 43.925 37.0072 46.9408C35.2446 49.9566 33.6834 54.3798 34.187 56.4406C34.6906 58.5014 37.4101 61.6017 40.3309 60.898C40.3309 60.898 37.5108 59.4062 37.4604 56.6417C37.4101 53.8772 42.5467 48.8508 43.2014 47.8455C43.8561 46.8402 44.4101 43.6736 42.1439 41.5626C39.8777 39.4515 29.3022 33.135 29.3022 33.135L28.6969 33.7518C27.0536 35.4264 24.585 35.9895 22.3781 35.1932L20.3885 34.4754Z" stroke="#B8C0CC" stroke-width="1.5" stroke-miterlimit="10"/>
</svg>
