<svg width="91" height="61" viewBox="0 0 91 61" fill="none" xmlns="http://www.w3.org/2000/svg">
<path d="M29.8689 18.0855C34.8631 18.0855 38.9116 14.037 38.9116 9.04277C38.9116 4.04859 34.8631 0 29.8689 0C24.8747 0 20.8261 4.04859 20.8261 9.04277C20.8261 14.037 24.8747 18.0855 29.8689 18.0855Z" fill="#5F45FF"/>
<path d="M44.4106 26.7617C29.9911 15.275 14.3495 26.2729 14.3495 26.2729C17.6489 34.5825 19.6041 60 19.6041 60H38.3006L44.4106 26.7617Z" stroke="#B7BFCB" stroke-width="1.88" stroke-miterlimit="10"/>
<path d="M17.4046 39.1039C5.79564 43.3809 3.71824 57.5561 3.71824 57.5561C-6.42432 38.4929 15.0828 26.0286 15.0828 26.0286" stroke="#B7BFCB" stroke-width="1.88" stroke-miterlimit="10"/>
<path d="M42.3333 39.2261C47.3434 39.8371 66.1622 41.0591 70.5614 22.8513C70.5614 22.8513 59.5634 32.1385 48.1988 27.6171L44.655 26.3951L42.3333 39.2261Z" stroke="#B7BFCB" stroke-width="1.88" stroke-miterlimit="10"/>
<path d="M34.8794 22.1182V25.2954C34.8794 26.8839 34.2684 28.2281 33.2908 29.2057C32.3132 30.1833 30.8468 30.7943 29.3804 30.7943C26.3254 30.7943 23.8814 28.3503 23.8814 25.2954V22.3626" stroke="#B7BFCB" stroke-width="1.88" stroke-miterlimit="10"/>
<path d="M69.584 24.7433L89.5026 1.52539" stroke="#B7BFCB" stroke-width="1.88" stroke-miterlimit="10" stroke-linecap="round" stroke-linejoin="round"/>
</svg>
