<svg width="52" height="52" viewBox="0 0 52 52" fill="none" xmlns="http://www.w3.org/2000/svg">
<path d="M26.0163 51.5519C40.0866 51.5519 51.4929 40.2324 51.4929 26.2691C51.4929 12.3058 40.0866 0.986328 26.0163 0.986328C11.9459 0.986328 0.539673 12.3058 0.539673 26.2691C0.539673 40.2324 11.9459 51.5519 26.0163 51.5519Z" fill="#F0F4F7"/>
<path d="M36.8574 38.8313C36.8574 40.3931 35.6456 41.6546 34.1558 41.6546H15.7016C14.2117 41.6546 13 40.3931 13 38.8313V14.8233C13 13.2615 14.2117 12 15.7016 12H34.1558C35.6456 12 36.8574 13.2615 36.8574 14.8233V23.0128" fill="white"/>
<path d="M36.8574 38.8313C36.8574 40.3931 35.6456 41.6546 34.1558 41.6546H15.7016C14.2117 41.6546 13 40.3931 13 38.8313V14.8233C13 13.2615 14.2117 12 15.7016 12H34.1558C35.6456 12 36.8574 13.2615 36.8574 14.8233V23.0128" stroke="#B8C0CC" stroke-width="1.5" stroke-miterlimit="10"/>
<path d="M44.6441 42.8961L39.976 36.869L42.4789 34.9067L47.1471 40.9338C47.6834 41.6346 47.5642 42.6358 46.869 43.1764C46.1737 43.717 45.1805 43.5969 44.6441 42.8961Z" fill="#5F45FF"/>
<path d="M17.7877 36.4485H32.2888" stroke="#B8C0CC" stroke-width="1.5" stroke-miterlimit="10" stroke-linecap="round" stroke-linejoin="round"/>
<path d="M17.7877 27.1376H28.3159" stroke="#B8C0CC" stroke-width="1.5" stroke-miterlimit="10" stroke-linecap="round" stroke-linejoin="round"/>
<path d="M17.7877 31.7831H28.3159" stroke="#B8C0CC" stroke-width="1.5" stroke-miterlimit="10" stroke-linecap="round" stroke-linejoin="round"/>
<path d="M36.8576 35.8478C39.8198 35.8478 42.2211 33.4273 42.2211 30.4415C42.2211 27.4557 39.8198 25.0352 36.8576 25.0352C33.8955 25.0352 31.4942 27.4557 31.4942 30.4415C31.4942 33.4273 33.8955 35.8478 36.8576 35.8478Z" fill="white" stroke="#5F45FF" stroke-width="1.5" stroke-miterlimit="10"/>
<path d="M26 19.6717C26 19.3444 25.9703 19.047 25.9109 18.7495H21.6039V20.5343H24.0693C23.9505 21.0995 23.6237 21.6052 23.1485 21.9324V23.0628H24.6336C25.495 22.2299 26 21.0698 26 19.6717Z" fill="#4285F4"/>
<path d="M21.6042 24.1634C22.8517 24.1634 23.8913 23.7469 24.6339 23.0628L23.1487 21.9324C22.6735 22.2299 22.1388 22.3786 21.5745 22.3786C21.0101 22.3786 20.4458 22.2001 19.9705 21.8431C19.4953 21.4862 19.1685 21.0102 18.9903 20.4748H17.4755V21.6647C17.8616 22.4381 18.4557 23.0628 19.1685 23.509C19.9111 23.9254 20.7428 24.1634 21.6042 24.1634Z" fill="#34A853"/>
<path d="M19.0198 20.4451C18.8416 19.8799 18.8416 19.2552 19.0198 18.6901V17.5002H17.5049C17.1782 18.1546 17 18.8388 17 19.5527C17 20.2666 17.1782 20.9806 17.5049 21.6052L19.0198 20.4451Z" fill="#FBBC04"/>
<path d="M21.6039 16.7862C21.9306 16.7862 22.2574 16.8457 22.5544 16.9647C22.8514 17.0837 23.1187 17.2622 23.3564 17.5001L24.6633 16.1913C23.8316 15.4179 22.7326 14.9717 21.6039 15.0014C20.7425 15.0014 19.9108 15.2394 19.198 15.6856C18.4851 16.1318 17.891 16.7862 17.5049 17.5299L19.0197 18.7197C19.198 18.1546 19.5247 17.6786 19.9999 17.3216C20.4455 16.9647 21.0098 16.7862 21.6039 16.7862Z" fill="#EA4335"/>
</svg>
