<svg width="52" height="52" viewBox="0 0 52 52" fill="none" xmlns="http://www.w3.org/2000/svg">
<path d="M26.0163 51.1935C40.0866 51.1935 51.4929 39.874 51.4929 25.9107C51.4929 11.9474 40.0866 0.62793 26.0163 0.62793C11.9459 0.62793 0.539673 11.9474 0.539673 25.9107C0.539673 39.874 11.9459 51.1935 26.0163 51.1935Z" fill="#F0F4F7"/>
<path d="M50.9163 9.85842V20.5566C50.9163 22.0972 49.6941 23.3296 48.2041 23.3296H44.9728C44.638 23.3296 44.3032 23.4665 44.0688 23.7233L42.4615 25.435C41.9593 25.9656 41.1222 25.9656 40.6367 25.4179L39.1299 23.7575C38.8955 23.5008 38.5606 23.3467 38.209 23.3467H29.5115H20.814C19.3072 23.3467 18.1018 22.0972 18.1018 20.5737V9.85842C18.1018 8.31788 19.324 7.08545 20.814 7.08545H48.1873C49.6941 7.08545 50.9163 8.335 50.9163 9.85842Z" fill="white"/>
<path d="M34.5 23.2613H38.209C38.5606 23.2613 38.8955 23.4153 39.1299 23.6721L40.6367 25.3324C41.1222 25.8802 41.9593 25.8802 42.4615 25.3495L44.0688 23.6378C44.3032 23.3811 44.638 23.2441 44.9728 23.2441H48.2041C49.6941 23.2441 50.9163 22.0117 50.9163 20.4712V9.77297C50.9163 8.24955 49.6941 7 48.1873 7H20.814C19.324 7 18.1018 8.23243 18.1018 9.77297V20.4883C18.1018 22.0117 19.3072 23.2613 20.814 23.2613H22.5" stroke="#B8C0CC" stroke-miterlimit="10"/>
<path d="M21.5841 29.8341L25.351 27.7972C25.7529 27.5747 26.0542 27.2152 26.2049 26.7873L28.1972 21.3098C28.4148 20.7107 29.1515 20.5053 29.637 20.899L30.2397 21.3954C31.6963 22.5765 32.2488 24.5449 31.6628 26.3422C31.2443 27.5575 32.1483 28.8413 33.404 28.8413H38.0248C39.0461 28.8413 39.8664 29.6801 39.8664 30.7242C39.8664 31.7683 39.0461 32.6071 38.0248 32.6071H33.5044H40.5361C41.5574 32.6071 42.3777 33.4458 42.3777 34.49V34.8323C42.3777 35.8765 41.5574 36.7152 40.5361 36.7152H33.5044H38.5271C39.5483 36.7152 40.3687 37.5539 40.3687 38.5981V38.7692C40.3687 39.8134 39.5483 40.6521 38.5271 40.6521H33.5044H36.518C37.5393 40.6521 38.3596 41.4909 38.3596 42.535V43.0485C38.3596 44.0927 37.5393 44.9314 36.518 44.9314H29.051C26.9081 44.9314 24.7818 44.4864 22.8062 43.6476L21.7348 43.1855C21.0483 42.8945 20.613 42.2098 20.613 41.4566V31.5116C20.613 30.7927 20.9814 30.1593 21.5841 29.8341Z" fill="white" stroke="#B8C0CC" stroke-miterlimit="10"/>
<path d="M11.5 29C11.5 28.1716 12.1716 27.5 13 27.5H19C19.8284 27.5 20.5 28.1716 20.5 29V43C20.5 43.8284 19.8284 44.5 19 44.5H13C12.1716 44.5 11.5 43.8284 11.5 43V29Z" fill="white" stroke="#B8C0CC"/>
<path d="M18.4367 27.1395L18.2693 38.0945" stroke="#B8C0CC" stroke-miterlimit="10"/>
<path d="M24.2638 11.6819C24.3414 11.4577 24.6586 11.4577 24.7362 11.6819L25.4992 13.8845C25.5341 13.9851 25.6289 14.0526 25.7355 14.0526H28.1869C28.4331 14.0526 28.531 14.3711 28.3273 14.5094L26.3696 15.839C26.2756 15.9029 26.2364 16.0221 26.2743 16.1292L27.0359 18.2818C27.1164 18.5094 26.8595 18.7076 26.6598 18.572L24.6405 17.2006C24.5557 17.1431 24.4443 17.1431 24.3595 17.2006L22.3402 18.572C22.1405 18.7076 21.8836 18.5094 21.9641 18.2818L22.7257 16.1292C22.7636 16.0221 22.7244 15.9029 22.6304 15.839L20.6727 14.5094C20.469 14.3711 20.5669 14.0526 20.8131 14.0526H23.2645C23.3711 14.0526 23.4659 13.9851 23.5008 13.8845L24.2638 11.6819Z" stroke="#5F45FF" stroke-miterlimit="10"/>
<path d="M34.7611 11.7759C34.8335 11.5407 35.1665 11.5407 35.2389 11.7759L35.8857 13.8762C35.918 13.9811 36.0149 14.0526 36.1246 14.0526H38.261C38.5001 14.0526 38.6028 14.3561 38.4128 14.5013L36.6593 15.8409C36.5757 15.9048 36.541 16.0142 36.5726 16.1146L37.2433 18.2473C37.3165 18.4802 37.047 18.6692 36.853 18.521L35.1518 17.2212C35.0622 17.1528 34.9378 17.1528 34.8482 17.2212L33.147 18.521C32.953 18.6692 32.6835 18.4802 32.7567 18.2473L33.4274 16.1146C33.459 16.0142 33.4243 15.9048 33.3407 15.8409L31.5872 14.5013C31.3972 14.3561 31.4999 14.0526 31.739 14.0526H33.8754C33.9851 14.0526 34.082 13.9811 34.1143 13.8762L34.7611 11.7759Z" stroke="#5F45FF" stroke-miterlimit="10"/>
<path d="M44.2638 11.6819C44.3414 11.4577 44.6586 11.4577 44.7362 11.6819L45.4992 13.8845C45.5341 13.9851 45.6289 14.0526 45.7355 14.0526H48.1869C48.4331 14.0526 48.531 14.3711 48.3273 14.5094L46.3696 15.839C46.2756 15.9029 46.2364 16.0221 46.2743 16.1292L47.0359 18.2818C47.1164 18.5094 46.8595 18.7076 46.6598 18.572L44.6405 17.2006C44.5557 17.1431 44.4443 17.1431 44.3595 17.2006L42.3402 18.572C42.1405 18.7076 41.8836 18.5094 41.9641 18.2818L42.7257 16.1292C42.7636 16.0221 42.7244 15.9029 42.6304 15.839L40.6727 14.5094C40.469 14.3711 40.5669 14.0526 40.8131 14.0526H43.2645C43.3711 14.0526 43.4659 13.9851 43.5008 13.8845L44.2638 11.6819Z" stroke="#5F45FF" stroke-miterlimit="10"/>
</svg>
