<svg width="106" height="109" viewBox="0 0 106 109" fill="none" xmlns="http://www.w3.org/2000/svg">
<path d="M52.8196 104.702C81.9539 104.702 105.572 81.264 105.572 52.3512C105.572 23.4384 81.9539 0 52.8196 0C23.6852 0 0.0671387 23.4384 0.0671387 52.3512C0.0671387 81.264 23.6852 104.702 52.8196 104.702Z" fill="#F2F5FA"/>
<path d="M67.954 39.0154C72.038 39.0154 75.3488 35.8881 75.3488 32.0304C75.3488 28.1727 72.038 25.0454 67.954 25.0454C63.8699 25.0454 60.559 28.1727 60.559 32.0304C60.559 35.8881 63.8699 39.0154 67.954 39.0154Z" fill="#FCFDFF" stroke="#B8C0CC" stroke-width="2"/>
<path d="M36.7548 46.3278C41.846 46.3278 45.9733 42.4292 45.9733 37.6201C45.9733 32.8111 41.846 28.9126 36.7548 28.9126C31.6635 28.9126 27.5361 32.8111 27.5361 37.6201C27.5361 42.4292 31.6635 46.3278 36.7548 46.3278Z" fill="#FCFDFF" stroke="#B8C0CC" stroke-width="2"/>
<path d="M49.9556 65.7561C50.4393 65.7603 50.9178 65.6616 51.3557 65.4676C51.7938 65.2737 52.1799 64.9895 52.4857 64.6356C52.7917 64.2817 53.0098 63.8677 53.1238 63.4234C53.2375 62.9794 53.2441 62.5169 53.1436 62.07C52.2644 58.5895 50.169 55.49 47.1955 53.2726C44.2223 51.0552 40.5443 49.8491 36.7559 49.8491C32.9675 49.8491 29.2895 51.0552 26.3161 53.2726C23.3427 55.49 21.2473 58.5895 20.3683 62.07C20.2675 62.5169 20.2742 62.9794 20.388 63.4234C20.5019 63.8677 20.7199 64.2817 21.0259 64.6356C21.3319 64.9895 21.7182 65.2737 22.1561 65.4676C22.594 65.6616 23.0724 65.7603 23.556 65.7561H49.9556Z" fill="#FCFDFF" stroke="#B8C0CC" stroke-width="2"/>
<path d="M76.9066 52.995C77.2346 52.9978 77.5591 52.9308 77.8561 52.7993C78.1532 52.6678 78.415 52.475 78.6225 52.235C78.83 51.995 78.9779 51.7142 79.0552 51.413C79.1323 51.1118 79.1368 50.7982 79.0686 50.4951C78.4724 48.1346 77.0513 46.0326 75.0347 44.5288C73.0183 43.025 70.5239 42.207 67.9547 42.207C65.3854 42.207 62.8911 43.025 60.8745 44.5288C58.858 46.0326 57.437 48.1346 56.8408 50.4951C56.7725 50.7982 56.777 51.1118 56.8542 51.413C56.9314 51.7142 57.0793 51.995 57.2868 52.235C57.4944 52.475 57.7563 52.6678 58.0533 52.7993C58.3503 52.9308 58.6747 52.9978 59.0027 52.995H76.9066Z" fill="#FCFDFF" stroke="#B8C0CC" stroke-width="2"/>
<g clip-path="url(#clip0)">
<path d="M72.805 107.495C85.1671 107.495 95.1886 97.7034 95.1886 85.6253C95.1886 73.5471 85.1671 63.7559 72.805 63.7559C60.4429 63.7559 50.4215 73.5471 50.4215 85.6253C50.4215 97.7034 60.4429 107.495 72.805 107.495Z" fill="white" stroke="#5F45FF" stroke-width="2"/>
<path d="M82.9119 78.96L69.2735 92.6023L63.1311 86.3539" stroke="#5F45FF" stroke-width="2" stroke-linecap="round" stroke-linejoin="round"/>
</g>
<defs>
<clipPath id="clip0">
<rect width="48" height="47" fill="white" transform="translate(48.7585 62)"/>
</clipPath>
</defs>
</svg>
