<svg width="319" height="134" viewBox="0 0 319 134" fill="none" xmlns="http://www.w3.org/2000/svg">
<path d="M317.4 132.002H1.59961" stroke="#B8C0CC" stroke-width="2" stroke-miterlimit="10" stroke-linecap="round"/>
<path d="M271.255 20.6563L286.943 124.679C287.065 125.594 286.99 126.525 286.722 127.409C286.454 128.292 285.999 129.109 285.389 129.803C284.778 130.497 284.025 131.052 283.182 131.431C282.338 131.811 281.422 132.006 280.497 132.003H234.633L270.21 14.6958L271.255 20.6563Z" fill="white" stroke="#B8C0CC" stroke-width="2" stroke-miterlimit="10" stroke-linecap="round"/>
<path d="M111.416 132.002H243.567C245.165 132.002 246.712 131.442 247.938 130.42C249.165 129.399 249.994 127.98 250.28 126.412L270.392 16.7066C270.609 15.5368 270.564 14.3339 270.263 13.1831C269.961 12.0323 269.409 10.9618 268.646 10.0476C267.883 9.13336 266.928 8.39781 265.848 7.89307C264.769 7.38833 263.591 7.12677 262.398 7.12695H131.804C130.204 7.12703 128.655 7.68757 127.427 8.71074C126.2 9.73391 125.371 11.1547 125.086 12.7252L104.695 123.942C104.512 124.926 104.549 125.938 104.802 126.907C105.056 127.875 105.52 128.775 106.161 129.545C106.803 130.314 107.606 130.933 108.514 131.358C109.423 131.782 110.413 132.002 111.416 132.002Z" fill="white" stroke="#B8C0CC" stroke-width="2" stroke-miterlimit="10" stroke-linecap="round"/>
<path d="M247.412 7.22022C247.411 7.76601 247.482 8.30956 247.622 8.83704C247.897 9.86668 248.427 10.8106 249.165 11.5814C249.902 12.3523 250.822 12.9251 251.84 13.2469C252.365 13.4149 252.91 13.5115 253.461 13.5339V12.3213C252.988 12.2947 252.522 12.2021 252.075 12.0464C251.188 11.7393 250.402 11.1944 249.805 10.4714C249.207 9.74847 248.82 8.87538 248.687 7.94779C248.554 7.0202 248.679 6.07391 249.049 5.21258C249.419 4.35126 250.019 3.60814 250.785 3.06465C251.55 2.52115 252.45 2.19824 253.387 2.1313C254.324 2.06435 255.261 2.25596 256.096 2.68512C256.931 3.11429 257.631 3.76445 258.121 4.56438C258.61 5.36431 258.869 6.28315 258.87 7.22022H260.085C260.085 5.54358 259.417 3.93561 258.229 2.75004C257.041 1.56448 255.429 0.898438 253.748 0.898438C252.068 0.898438 250.456 1.56448 249.268 2.75004C248.079 3.93561 247.412 5.54358 247.412 7.22022Z" fill="#B8C0CC"/>
<path d="M251.791 12.883C251.791 13.006 251.807 13.1284 251.84 13.2468C251.932 13.5852 252.15 13.876 252.449 14.0602C252.748 14.2444 253.106 14.3083 253.451 14.2389C253.796 14.1695 254.101 13.9721 254.305 13.6866C254.509 13.401 254.597 13.0488 254.55 12.7012C254.504 12.3535 254.327 12.0365 254.055 11.8143C253.783 11.5921 253.436 11.4814 253.086 11.5045C252.735 11.5276 252.406 11.6829 252.166 11.9388C251.925 12.1948 251.792 12.5323 251.791 12.883Z" fill="#B8C0CC"/>
<path d="M224.703 7.22053C224.703 7.76603 224.772 8.30932 224.909 8.83736C225.184 9.86699 225.714 10.8109 226.451 11.5817C227.189 12.3526 228.109 12.9254 229.127 13.2472C229.652 13.4153 230.197 13.5118 230.748 13.5342V12.3216C230.276 12.295 229.811 12.2024 229.366 12.0468C228.625 11.7905 227.953 11.3678 227.401 10.8114C226.85 10.255 226.434 9.57957 226.186 8.83736C226.009 8.31667 225.92 7.7703 225.922 7.22053C225.96 5.89091 226.515 4.62829 227.471 3.70105C228.427 2.77381 229.708 2.25506 231.041 2.25506C232.375 2.25506 233.655 2.77381 234.611 3.70105C235.567 4.62829 236.123 5.89091 236.161 7.22053H237.376C237.334 5.5721 236.648 4.0052 235.465 2.85404C234.282 1.70288 232.694 1.05859 231.041 1.05859C229.389 1.05859 227.801 1.70288 226.618 2.85404C225.434 4.0052 224.748 5.5721 224.707 7.22053H224.703Z" fill="#B8C0CC"/>
<path d="M229.078 12.883C229.078 13.006 229.094 13.1284 229.127 13.2468C229.219 13.5852 229.437 13.876 229.736 14.0602C230.035 14.2444 230.394 14.3083 230.738 14.2389C231.083 14.1695 231.388 13.9721 231.592 13.6866C231.796 13.401 231.884 13.0488 231.838 12.7012C231.791 12.3535 231.614 12.0365 231.342 11.8143C231.07 11.5921 230.723 11.4814 230.373 11.5045C230.022 11.5276 229.693 11.6829 229.453 11.9388C229.212 12.1948 229.079 12.5323 229.078 12.883Z" fill="#B8C0CC"/>
<path d="M201.985 7.22053C201.985 7.76633 202.055 8.30987 202.196 8.83736C202.471 9.86699 203.001 10.8109 203.738 11.5817C204.475 12.3526 205.396 12.9254 206.414 13.2472C206.938 13.4153 207.484 13.5118 208.034 13.5342V12.3216C207.563 12.295 207.098 12.2024 206.653 12.0468C205.765 11.7403 204.979 11.1958 204.38 10.4731C203.782 9.75037 203.395 8.87729 203.261 7.94953C203.127 7.02178 203.252 6.07517 203.622 5.21347C203.991 4.35178 204.592 3.60825 205.357 3.0644C206.122 2.52054 207.023 2.19736 207.96 2.13026C208.897 2.06317 209.834 2.25476 210.67 2.68403C211.505 3.1133 212.205 3.76368 212.695 4.56389C213.184 5.36409 213.443 6.28322 213.443 7.22053H214.659C214.617 5.5721 213.931 4.0052 212.748 2.85404C211.564 1.70288 209.977 1.05859 208.324 1.05859C206.671 1.05859 205.084 1.70288 203.9 2.85404C202.717 4.0052 202.031 5.5721 201.989 7.22053H201.985Z" fill="#B8C0CC"/>
<path d="M206.361 12.8833C206.362 13.0064 206.38 13.1288 206.414 13.2471C206.508 13.5738 206.723 13.8525 207.016 14.0269C207.308 14.2014 207.656 14.2586 207.989 14.1871C208.323 14.1155 208.616 13.9204 208.811 13.6413C209.005 13.3622 209.086 13.0198 209.037 12.6833C208.989 12.3468 208.814 12.0414 208.548 11.8286C208.282 11.6158 207.946 11.5116 207.606 11.537C207.266 11.5623 206.948 11.7155 206.717 11.9654C206.486 12.2153 206.359 12.5434 206.361 12.8833Z" fill="#B8C0CC"/>
<path d="M179.272 7.22053C179.272 7.76633 179.342 8.30987 179.483 8.83736C179.757 9.86699 180.288 10.8109 181.025 11.5817C181.762 12.3526 182.683 12.9254 183.701 13.2472C184.225 13.4158 184.77 13.5123 185.321 13.5342V12.3216C184.85 12.295 184.385 12.2024 183.94 12.0468C183.051 11.7416 182.263 11.198 181.664 10.4758C181.064 9.75354 180.676 8.88048 180.541 7.9524C180.406 7.02432 180.53 6.07709 180.899 5.21464C181.268 4.35219 181.868 3.60784 182.633 3.06328C183.399 2.51871 184.299 2.19497 185.237 2.12758C186.175 2.06018 187.113 2.25174 187.948 2.68122C188.784 3.1107 189.485 3.76152 189.974 4.56227C190.463 5.36301 190.722 6.28274 190.722 7.22053H191.937C191.896 5.5721 191.21 4.0052 190.026 2.85404C188.843 1.70288 187.256 1.05859 185.603 1.05859C183.95 1.05859 182.363 1.70288 181.179 2.85404C179.996 4.0052 179.31 5.5721 179.268 7.22053H179.272Z" fill="#B8C0CC"/>
<path d="M183.652 12.883C183.651 13.006 183.668 13.1284 183.701 13.2468C183.793 13.5852 184.011 13.876 184.31 14.0602C184.609 14.2444 184.967 14.3083 185.312 14.2389C185.656 14.1695 185.962 13.9721 186.166 13.6866C186.37 13.401 186.458 13.0488 186.411 12.7012C186.365 12.3535 186.188 12.0365 185.916 11.8143C185.644 11.5921 185.297 11.4814 184.946 11.5045C184.596 11.5276 184.267 11.6829 184.026 11.9388C183.786 12.1948 183.652 12.5323 183.652 12.883Z" fill="#B8C0CC"/>
<path d="M156.559 7.22053C156.558 7.76633 156.629 8.30987 156.77 8.83736C157.044 9.86653 157.574 10.8101 158.31 11.5809C159.047 12.3517 159.966 12.9248 160.983 13.2472C161.508 13.4153 162.053 13.5118 162.604 13.5342V12.3216C162.133 12.2953 161.668 12.2028 161.222 12.0468C160.337 11.7369 159.554 11.1902 158.959 10.4663C158.364 9.74248 157.98 8.86935 157.849 7.94242C157.718 7.01549 157.845 6.07046 158.216 5.21065C158.587 4.35084 159.188 3.60935 159.953 3.06728C160.718 2.5252 161.617 2.20339 162.553 2.13705C163.489 2.0707 164.426 2.26238 165.26 2.69111C166.094 3.11984 166.794 3.76912 167.283 4.56795C167.772 5.36679 168.032 6.28443 168.033 7.22053H169.249C169.207 5.5721 168.521 4.0052 167.338 2.85404C166.154 1.70288 164.567 1.05859 162.914 1.05859C161.261 1.05859 159.674 1.70288 158.49 2.85404C157.307 4.0052 156.621 5.5721 156.579 7.22053H156.559Z" fill="#B8C0CC"/>
<path d="M160.935 12.8834C160.936 13.0061 160.953 13.1283 160.984 13.2471C161.067 13.545 161.248 13.8062 161.499 13.9883C161.75 14.1705 162.054 14.263 162.364 14.251C162.674 14.2389 162.97 14.123 163.206 13.9219C163.442 13.7208 163.602 13.4464 163.662 13.1429C163.722 12.8395 163.677 12.5247 163.536 12.2497C163.394 11.9746 163.163 11.7552 162.881 11.627C162.599 11.4988 162.282 11.4693 161.981 11.5433C161.68 11.6172 161.413 11.7903 161.223 12.0345C161.033 12.2767 160.931 12.576 160.935 12.8834Z" fill="#B8C0CC"/>
<path d="M133.846 7.22053C133.845 7.76633 133.916 8.30987 134.056 8.83736C134.331 9.86653 134.86 10.8101 135.597 11.5809C136.333 12.3517 137.253 12.9248 138.27 13.2472C138.795 13.4153 139.34 13.5118 139.891 13.5342V12.3216C139.42 12.295 138.954 12.2024 138.509 12.0468C137.621 11.7403 136.835 11.1958 136.237 10.4731C135.639 9.75037 135.251 8.87729 135.117 7.94953C134.984 7.02178 135.108 6.07517 135.478 5.21347C135.848 4.35178 136.448 3.60825 137.213 3.0644C137.979 2.52054 138.879 2.19736 139.816 2.13026C140.753 2.06317 141.691 2.25476 142.526 2.68403C143.361 3.1133 144.062 3.76368 144.551 4.56389C145.04 5.36409 145.299 6.28322 145.3 7.22053H146.515C146.473 5.5721 145.788 4.0052 144.604 2.85404C143.421 1.70288 141.833 1.05859 140.18 1.05859C138.528 1.05859 136.94 1.70288 135.757 2.85404C134.573 4.0052 133.888 5.5721 133.846 7.22053Z" fill="#B8C0CC"/>
<path d="M138.222 12.8834C138.221 13.0063 138.237 13.1287 138.27 13.2471C138.354 13.545 138.535 13.8062 138.786 13.9883C139.036 14.1705 139.341 14.263 139.651 14.251C139.961 14.2389 140.257 14.123 140.493 13.9219C140.728 13.7208 140.889 13.4464 140.949 13.1429C141.009 12.8395 140.964 12.5247 140.822 12.2497C140.681 11.9746 140.45 11.7552 140.168 11.627C139.886 11.4988 139.569 11.4693 139.268 11.5433C138.967 11.6172 138.699 11.7903 138.509 12.0345C138.32 12.2767 138.218 12.576 138.222 12.8834Z" fill="#B8C0CC"/>
<path d="M183.275 69.8645H190.661C191.098 69.8476 191.517 69.6864 191.852 69.4062C192.187 69.126 192.42 68.7427 192.513 68.3164L193.939 60.9477C193.986 60.7607 193.989 60.5653 193.947 60.3769C193.906 60.1885 193.821 60.0123 193.7 59.8622C193.578 59.712 193.424 59.5921 193.248 59.5119C193.072 59.4316 192.88 59.3932 192.687 59.3996H185.297C184.86 59.4179 184.442 59.5796 184.107 59.8596C183.772 60.1395 183.54 60.5221 183.445 60.9477L182.023 68.3164C181.975 68.5035 181.971 68.6992 182.013 68.888C182.054 69.0768 182.138 69.2533 182.26 69.4037C182.381 69.554 182.537 69.674 182.713 69.754C182.889 69.834 183.082 69.8718 183.275 69.8645Z" fill="#EFEFEF"/>
<path d="M164.634 69.8642H172.02C172.457 69.8468 172.876 69.6855 173.212 69.4055C173.548 69.1254 173.781 68.7424 173.876 68.3161L175.298 60.9474C175.346 60.7603 175.349 60.5646 175.308 60.3758C175.267 60.1871 175.182 60.0105 175.061 59.8602C174.939 59.7098 174.784 59.5899 174.608 59.5099C174.432 59.4299 174.239 59.392 174.046 59.3993H166.66C166.223 59.4162 165.804 59.5774 165.469 59.8576C165.134 60.1378 164.901 60.5212 164.808 60.9474L163.382 68.3161C163.334 68.5032 163.33 68.699 163.371 68.8877C163.413 69.0765 163.497 69.253 163.619 69.4034C163.74 69.5537 163.896 69.6737 164.072 69.7537C164.248 69.8337 164.44 69.8715 164.634 69.8642Z" fill="#EFEFEF"/>
<path d="M145.993 69.8642H153.383C153.819 69.846 154.237 69.6843 154.572 69.4043C154.907 69.1243 155.14 68.7417 155.234 68.3161L156.656 60.9474C156.704 60.7603 156.708 60.5646 156.667 60.3758C156.626 60.1871 156.541 60.0105 156.419 59.8602C156.298 59.7098 156.143 59.5899 155.967 59.5099C155.79 59.4299 155.598 59.392 155.404 59.3993H148.018C147.582 59.4169 147.163 59.5783 146.828 59.8584C146.493 60.1385 146.26 60.5215 146.167 60.9474L144.741 68.3161C144.693 68.5032 144.69 68.6986 144.732 68.887C144.773 69.0754 144.858 69.2516 144.979 69.4017C145.101 69.5518 145.256 69.6717 145.431 69.752C145.607 69.8323 145.799 69.8707 145.993 69.8642Z" fill="#EFEFEF"/>
<path d="M239.195 69.8642H246.581C247.018 69.8473 247.437 69.6861 247.772 69.4059C248.107 69.1257 248.34 68.7424 248.433 68.3161L249.875 60.9474C249.923 60.7603 249.927 60.5646 249.886 60.3758C249.844 60.1871 249.76 60.0105 249.638 59.8602C249.517 59.7098 249.362 59.5899 249.185 59.5099C249.009 59.4299 248.817 59.392 248.623 59.3993H241.221C240.784 59.4167 240.364 59.578 240.029 59.8581C239.693 60.1381 239.46 60.5212 239.365 60.9474L237.943 68.3161C237.895 68.5032 237.891 68.699 237.933 68.8877C237.974 69.0765 238.058 69.253 238.18 69.4034C238.302 69.5537 238.457 69.6737 238.633 69.7537C238.809 69.8337 239.002 69.8715 239.195 69.8642Z" fill="#EFEFEF"/>
<path d="M247.29 47.7419H250.467C250.657 47.7365 250.84 47.668 250.986 47.5472C251.133 47.4264 251.235 47.2602 251.277 47.0749L251.889 43.9059C251.909 43.8256 251.91 43.7417 251.892 43.6609C251.874 43.58 251.838 43.5045 251.785 43.4402C251.733 43.3758 251.666 43.3246 251.591 43.2903C251.515 43.2561 251.433 43.2399 251.35 43.2431H248.177C247.988 43.2482 247.805 43.3161 247.658 43.4361C247.512 43.5561 247.409 43.7214 247.367 43.9059L246.755 47.0749C246.735 47.1551 246.734 47.2388 246.752 47.3195C246.77 47.4002 246.806 47.4757 246.857 47.5402C246.909 47.6047 246.975 47.6565 247.05 47.6915C247.125 47.7264 247.207 47.7437 247.29 47.7419Z" fill="#EFEFEF"/>
<path d="M220.554 69.8642H227.944C228.38 69.846 228.798 69.6843 229.133 69.4043C229.468 69.1243 229.701 68.7417 229.795 68.3161L231.238 60.9474C231.286 60.7603 231.289 60.5646 231.248 60.3758C231.207 60.1871 231.122 60.0105 231.001 59.8602C230.879 59.7098 230.724 59.5899 230.548 59.5099C230.372 59.4299 230.179 59.392 229.986 59.3993H222.579C222.142 59.4162 221.723 59.5774 221.388 59.8576C221.053 60.1378 220.821 60.5212 220.728 60.9474L219.302 68.3161C219.254 68.5032 219.251 68.6986 219.293 68.887C219.334 69.0754 219.419 69.2516 219.541 69.4017C219.662 69.5518 219.817 69.6717 219.992 69.752C220.168 69.8323 220.36 69.8707 220.554 69.8642Z" fill="#EFEFEF"/>
<path d="M201.916 69.8642H209.302C209.739 69.8466 210.158 69.6852 210.493 69.4051C210.828 69.125 211.06 68.742 211.154 68.3161L212.6 60.9474C212.648 60.76 212.651 60.5642 212.609 60.3755C212.567 60.1868 212.482 60.0103 212.36 59.8601C212.238 59.7099 212.083 59.5901 211.907 59.5101C211.731 59.4301 211.538 59.3922 211.344 59.3993H203.938C203.501 59.4168 203.083 59.5783 202.748 59.8584C202.413 60.1385 202.18 60.5214 202.087 60.9474L200.66 68.3161C200.613 68.5035 200.61 68.6993 200.652 68.888C200.694 69.0767 200.779 69.2531 200.901 69.4033C201.022 69.5535 201.178 69.6734 201.354 69.7533C201.53 69.8333 201.723 69.8713 201.916 69.8642Z" fill="#EFEFEF"/>
<path d="M127.355 69.8642H134.741C135.178 69.8466 135.597 69.6852 135.932 69.4051C136.267 69.125 136.499 68.742 136.593 68.3161L138.019 60.9474C138.066 60.76 138.069 60.5642 138.027 60.3755C137.986 60.1868 137.901 60.0103 137.779 59.8601C137.657 59.7099 137.502 59.5901 137.325 59.5101C137.149 59.4301 136.957 59.3922 136.763 59.3993H129.377C128.94 59.4175 128.522 59.5792 128.187 59.8592C127.852 60.1392 127.62 60.5218 127.525 60.9474L126.099 68.3161C126.052 68.5035 126.049 68.6993 126.091 68.888C126.132 69.0767 126.217 69.2531 126.339 69.4033C126.461 69.5535 126.616 69.6734 126.793 69.7533C126.969 69.8333 127.162 69.8713 127.355 69.8642Z" fill="#EFEFEF"/>
<path d="M186.371 53.8573H193.757C194.193 53.8398 194.612 53.6783 194.947 53.3982C195.282 53.1181 195.515 52.7352 195.608 52.3092L197.034 44.9406C197.082 44.7532 197.085 44.5574 197.043 44.3687C197.001 44.1799 196.916 44.0035 196.794 43.8533C196.672 43.7031 196.517 43.5833 196.341 43.5033C196.165 43.4233 195.972 43.3853 195.778 43.3924H188.392C187.956 43.41 187.537 43.5715 187.202 43.8516C186.867 44.1317 186.635 44.5146 186.541 44.9406L185.115 52.3092C185.067 52.4966 185.064 52.6924 185.106 52.8811C185.148 53.0698 185.233 53.2463 185.355 53.3965C185.477 53.5467 185.632 53.6665 185.808 53.7465C185.985 53.8265 186.177 53.8644 186.371 53.8573Z" fill="#EFEFEF"/>
<path d="M167.729 53.8574H175.115C175.552 53.8405 175.971 53.6793 176.306 53.3991C176.642 53.1189 176.874 52.7355 176.967 52.3093L178.393 44.9406C178.441 44.7535 178.445 44.5578 178.404 44.369C178.363 44.1802 178.278 44.0037 178.156 43.8533C178.035 43.703 177.88 43.5831 177.703 43.503C177.527 43.423 177.335 43.3852 177.141 43.3925H169.755C169.318 43.4099 168.899 43.5712 168.563 43.8512C168.227 44.1313 167.994 44.5143 167.9 44.9406L166.477 52.3093C166.429 52.4964 166.426 52.6921 166.467 52.8809C166.508 53.0696 166.593 53.2462 166.714 53.3965C166.836 53.5469 166.991 53.6668 167.167 53.7468C167.343 53.8268 167.536 53.8647 167.729 53.8574Z" fill="#EFEFEF"/>
<path d="M149.088 53.8574H156.474C156.911 53.84 157.33 53.6787 157.666 53.3986C158.002 53.1186 158.235 52.7355 158.33 52.3093L159.752 44.9406C159.8 44.7535 159.803 44.5578 159.762 44.369C159.721 44.1802 159.636 44.0037 159.515 43.8533C159.393 43.703 159.238 43.5831 159.062 43.503C158.886 43.423 158.693 43.3852 158.5 43.3925H151.114C150.677 43.4094 150.258 43.5706 149.923 43.8508C149.588 44.131 149.355 44.5143 149.262 44.9406L147.836 52.3093C147.789 52.4963 147.786 52.6917 147.827 52.8801C147.869 53.0685 147.954 53.2447 148.075 53.3948C148.196 53.545 148.351 53.6649 148.527 53.7451C148.703 53.8254 148.895 53.8638 149.088 53.8574Z" fill="#EFEFEF"/>
<path d="M130.451 53.8573H137.837C138.273 53.8398 138.692 53.6783 139.027 53.3982C139.362 53.1181 139.595 52.7352 139.688 52.3092L141.114 44.9406C141.162 44.7532 141.165 44.5574 141.123 44.3687C141.081 44.1799 140.996 44.0035 140.874 43.8533C140.752 43.7031 140.597 43.5833 140.421 43.5033C140.245 43.4233 140.052 43.3853 139.858 43.3924H132.472C132.036 43.41 131.617 43.5715 131.282 43.8516C130.947 44.1317 130.714 44.5146 130.621 44.9406L129.195 52.3092C129.147 52.4966 129.144 52.6924 129.186 52.8811C129.228 53.0698 129.313 53.2463 129.435 53.3965C129.557 53.5467 129.712 53.6665 129.888 53.7465C130.065 53.8265 130.257 53.8644 130.451 53.8573Z" fill="#EFEFEF"/>
<path d="M179.993 86.8286H187.383C187.82 86.8103 188.238 86.6486 188.573 86.3686C188.908 86.0887 189.141 85.7061 189.235 85.2805L190.657 77.9118C190.705 77.7247 190.709 77.529 190.668 77.3402C190.626 77.1514 190.542 76.9749 190.42 76.8245C190.299 76.6742 190.144 76.5542 189.967 76.4742C189.791 76.3942 189.599 76.3564 189.405 76.3637H182.019C181.582 76.3806 181.163 76.5418 180.828 76.822C180.493 77.1022 180.261 77.4855 180.167 77.9118L178.741 85.2805C178.694 85.4675 178.691 85.6629 178.733 85.8513C178.774 86.0397 178.859 86.2159 178.98 86.366C179.102 86.5162 179.256 86.6361 179.432 86.7163C179.608 86.7966 179.8 86.835 179.993 86.8286Z" fill="#EFEFEF"/>
<path d="M161.356 86.8285H168.742C169.179 86.811 169.597 86.6495 169.932 86.3694C170.267 86.0893 170.5 85.7064 170.594 85.2804L172.02 77.9117C172.067 77.7244 172.07 77.5286 172.028 77.3399C171.987 77.1511 171.901 76.9747 171.78 76.8245C171.658 76.6743 171.502 76.5545 171.326 76.4745C171.15 76.3945 170.957 76.3565 170.764 76.3636H163.378C162.941 76.3812 162.522 76.5427 162.187 76.8228C161.852 77.1029 161.62 77.4858 161.526 77.9117L160.1 85.2804C160.053 85.4678 160.05 85.6636 160.091 85.8523C160.133 86.041 160.218 86.2175 160.34 86.3677C160.462 86.5179 160.617 86.6377 160.793 86.7177C160.97 86.7977 161.162 86.8356 161.356 86.8285Z" fill="#EFEFEF"/>
<path d="M142.715 86.8289H150.101C150.538 86.812 150.957 86.6508 151.292 86.3706C151.627 86.0904 151.859 85.707 151.952 85.2808L153.378 77.9121C153.426 77.725 153.429 77.5296 153.387 77.3412C153.346 77.1528 153.261 76.9766 153.139 76.8265C153.018 76.6764 152.863 76.5565 152.688 76.4762C152.512 76.3959 152.32 76.3575 152.126 76.364H144.736C144.3 76.3822 143.882 76.5439 143.547 76.8239C143.212 77.1039 142.979 77.4865 142.885 77.9121L141.463 85.2808C141.415 85.4679 141.411 85.6636 141.452 85.8524C141.493 86.0411 141.578 86.2177 141.7 86.368C141.821 86.5184 141.976 86.6383 142.152 86.7183C142.329 86.7983 142.521 86.8362 142.715 86.8289Z" fill="#5F45FF"/>
<path d="M235.913 86.8286H243.303C243.74 86.8103 244.158 86.6486 244.493 86.3686C244.828 86.0887 245.061 85.7061 245.155 85.2805L246.577 77.9118C246.625 77.7247 246.629 77.529 246.588 77.3402C246.547 77.1514 246.462 76.9749 246.34 76.8245C246.219 76.6742 246.064 76.5542 245.887 76.4742C245.711 76.3942 245.519 76.3564 245.325 76.3637H237.939C237.502 76.3806 237.083 76.5418 236.748 76.822C236.413 77.1022 236.181 77.4855 236.087 77.9118L234.661 85.2805C234.614 85.4675 234.611 85.6629 234.653 85.8513C234.694 86.0397 234.779 86.2159 234.9 86.366C235.022 86.5162 235.176 86.6361 235.352 86.7163C235.528 86.7966 235.72 86.835 235.913 86.8286Z" fill="#EFEFEF"/>
<path d="M217.276 86.8285H224.662C225.099 86.811 225.517 86.6495 225.852 86.3694C226.187 86.0893 226.42 85.7064 226.514 85.2804L227.94 77.9117C227.987 77.7244 227.99 77.5286 227.948 77.3399C227.907 77.1511 227.821 76.9747 227.7 76.8245C227.578 76.6743 227.423 76.5545 227.246 76.4745C227.07 76.3945 226.877 76.3565 226.684 76.3636H219.298C218.861 76.3812 218.442 76.5427 218.107 76.8228C217.772 77.1029 217.54 77.4858 217.446 77.9117L216.02 85.2804C215.973 85.4678 215.97 85.6636 216.011 85.8523C216.053 86.041 216.138 86.2175 216.26 86.3677C216.382 86.5179 216.537 86.6377 216.714 86.7177C216.89 86.7977 217.082 86.8356 217.276 86.8285Z" fill="#EFEFEF"/>
<path d="M198.635 86.8289H206.021C206.458 86.812 206.877 86.6508 207.212 86.3706C207.547 86.0904 207.779 85.707 207.872 85.2808L209.298 77.9121C209.346 77.725 209.349 77.5296 209.307 77.3412C209.266 77.1528 209.181 76.9766 209.06 76.8265C208.938 76.6764 208.783 76.5565 208.608 76.4762C208.432 76.3959 208.24 76.3575 208.047 76.364H200.661C200.223 76.3814 199.804 76.5427 199.468 76.8227C199.133 77.1028 198.899 77.4858 198.805 77.9121L197.383 85.2808C197.335 85.4679 197.331 85.6636 197.372 85.8524C197.413 86.0411 197.498 86.2177 197.62 86.368C197.741 86.5184 197.896 86.6383 198.072 86.7183C198.249 86.7983 198.441 86.8362 198.635 86.8289Z" fill="#EFEFEF"/>
<path d="M124.073 86.8286H131.459C131.897 86.8112 132.316 86.6499 132.651 86.3698C132.987 86.0898 133.22 85.7067 133.315 85.2805L134.737 77.9118C134.785 77.7247 134.789 77.5289 134.748 77.3402C134.706 77.1514 134.622 76.9749 134.5 76.8245C134.379 76.6742 134.224 76.5542 134.047 76.4742C133.871 76.3942 133.679 76.3564 133.485 76.3637H126.099C125.662 76.3806 125.243 76.5418 124.908 76.822C124.573 77.1022 124.341 77.4855 124.247 77.9118L122.821 85.2805C122.773 85.4676 122.77 85.6633 122.811 85.852C122.852 86.0408 122.937 86.2174 123.058 86.3677C123.18 86.5181 123.335 86.638 123.511 86.718C123.687 86.798 123.88 86.8359 124.073 86.8286Z" fill="#EFEFEF"/>
<path d="M176.716 103.793H184.102C184.538 103.775 184.957 103.614 185.292 103.334C185.627 103.054 185.86 102.671 185.953 102.245L187.379 94.8761C187.427 94.6887 187.43 94.4929 187.388 94.3042C187.346 94.1155 187.261 93.9391 187.139 93.7889C187.017 93.6387 186.862 93.5188 186.686 93.4388C186.51 93.3588 186.317 93.3209 186.123 93.328H178.737C178.301 93.3456 177.882 93.507 177.547 93.7871C177.212 94.0672 176.979 94.4502 176.886 94.8761L175.46 102.245C175.412 102.432 175.409 102.628 175.451 102.817C175.493 103.005 175.578 103.182 175.7 103.332C175.822 103.482 175.977 103.602 176.153 103.682C176.329 103.762 176.522 103.8 176.716 103.793Z" fill="#EFEFEF"/>
<path d="M158.074 103.793H165.46C165.897 103.776 166.316 103.615 166.651 103.335C166.987 103.054 167.219 102.671 167.312 102.245L168.738 94.8761C168.786 94.689 168.79 94.4933 168.749 94.3045C168.708 94.1158 168.623 93.9392 168.501 93.7889C168.38 93.6385 168.225 93.5186 168.048 93.4386C167.872 93.3586 167.68 93.3207 167.486 93.328H160.1C159.663 93.3454 159.244 93.5067 158.908 93.7868C158.572 94.0668 158.339 94.4499 158.245 94.8761L156.822 102.245C156.774 102.432 156.771 102.628 156.812 102.816C156.853 103.005 156.938 103.182 157.059 103.332C157.181 103.482 157.336 103.602 157.512 103.682C157.688 103.762 157.881 103.8 158.074 103.793Z" fill="#EFEFEF"/>
<path d="M139.433 103.793H146.819C147.257 103.776 147.676 103.614 148.011 103.334C148.347 103.054 148.58 102.671 148.675 102.245L150.097 94.8761C150.145 94.689 150.149 94.4933 150.108 94.3045C150.067 94.1158 149.982 93.9392 149.86 93.7889C149.739 93.6385 149.584 93.5186 149.407 93.4386C149.231 93.3586 149.039 93.3207 148.845 93.328H141.459C141.022 93.3449 140.603 93.5061 140.268 93.7863C139.933 94.0666 139.701 94.4499 139.608 94.8761L138.181 102.245C138.134 102.432 138.131 102.627 138.173 102.816C138.214 103.004 138.299 103.18 138.42 103.33C138.542 103.481 138.696 103.6 138.872 103.681C139.048 103.761 139.24 103.799 139.433 103.793Z" fill="#EFEFEF"/>
<path d="M232.636 103.793H240.022C240.458 103.776 240.877 103.614 241.212 103.334C241.547 103.054 241.78 102.671 241.873 102.245L243.299 94.8764C243.347 94.6894 243.35 94.494 243.308 94.3056C243.267 94.1172 243.182 93.941 243.06 93.7909C242.939 93.6408 242.784 93.5208 242.609 93.4406C242.433 93.3603 242.241 93.3219 242.047 93.3283H234.657C234.221 93.3466 233.803 93.5083 233.468 93.7883C233.133 94.0683 232.9 94.4508 232.806 94.8764L231.384 102.245C231.336 102.432 231.332 102.628 231.373 102.817C231.414 103.005 231.499 103.182 231.621 103.332C231.742 103.483 231.897 103.603 232.073 103.683C232.25 103.763 232.442 103.801 232.636 103.793Z" fill="#EFEFEF"/>
<path d="M213.994 103.793H221.38C221.817 103.776 222.236 103.615 222.571 103.335C222.906 103.054 223.139 102.671 223.232 102.245L224.658 94.8761C224.706 94.689 224.71 94.4933 224.669 94.3045C224.627 94.1158 224.543 93.9392 224.421 93.7889C224.3 93.6385 224.145 93.5186 223.968 93.4386C223.792 93.3586 223.6 93.3207 223.406 93.328H216.02C215.583 93.3449 215.164 93.5061 214.829 93.7863C214.494 94.0666 214.261 94.4499 214.168 94.8761L212.742 102.245C212.694 102.432 212.691 102.628 212.732 102.816C212.773 103.005 212.858 103.182 212.979 103.332C213.101 103.482 213.256 103.602 213.432 103.682C213.608 103.762 213.801 103.8 213.994 103.793Z" fill="#EFEFEF"/>
<path d="M195.353 103.793H202.743C203.18 103.775 203.598 103.613 203.933 103.333C204.268 103.053 204.5 102.67 204.595 102.245L206.017 94.8761C206.065 94.689 206.068 94.4933 206.027 94.3045C205.986 94.1158 205.901 93.9392 205.78 93.7889C205.658 93.6385 205.503 93.5186 205.327 93.4386C205.151 93.3586 204.958 93.3207 204.765 93.328H197.379C196.942 93.3449 196.523 93.5061 196.188 93.7863C195.853 94.0666 195.62 94.4499 195.527 94.8761L194.101 102.245C194.054 102.432 194.051 102.627 194.092 102.816C194.134 103.004 194.219 103.18 194.34 103.33C194.461 103.481 194.616 103.6 194.792 103.681C194.968 103.761 195.16 103.799 195.353 103.793Z" fill="#EFEFEF"/>
<path d="M120.796 103.793H128.182C128.618 103.775 129.037 103.614 129.372 103.334C129.707 103.054 129.939 102.671 130.033 102.245L131.459 94.8761C131.507 94.6887 131.51 94.4929 131.468 94.3042C131.426 94.1155 131.341 93.9391 131.219 93.7889C131.097 93.6387 130.942 93.5188 130.766 93.4388C130.589 93.3588 130.397 93.3209 130.203 93.328H122.817C122.381 93.3456 121.962 93.507 121.627 93.7871C121.292 94.0672 121.059 94.4502 120.966 94.8761L119.54 102.245C119.492 102.432 119.489 102.628 119.531 102.817C119.573 103.005 119.658 103.182 119.78 103.332C119.902 103.482 120.057 103.602 120.233 103.682C120.409 103.762 120.602 103.8 120.796 103.793Z" fill="#EFEFEF"/>
<path d="M173.62 119.8H180.998C181.435 119.783 181.854 119.622 182.189 119.341C182.524 119.061 182.757 118.678 182.85 118.251L184.276 110.883C184.323 110.696 184.326 110.5 184.285 110.312C184.243 110.124 184.158 109.947 184.037 109.797C183.916 109.647 183.761 109.527 183.585 109.447C183.409 109.367 183.217 109.328 183.024 109.335H175.642C175.206 109.353 174.787 109.515 174.452 109.795C174.118 110.075 173.885 110.457 173.791 110.883L172.368 118.251C172.32 118.439 172.317 118.634 172.358 118.823C172.399 119.012 172.484 119.188 172.605 119.339C172.727 119.489 172.882 119.609 173.058 119.689C173.234 119.769 173.427 119.807 173.62 119.8Z" fill="#EFEFEF"/>
<path d="M154.979 119.8H162.361C162.798 119.783 163.217 119.622 163.552 119.341C163.887 119.061 164.119 118.678 164.212 118.252L165.639 110.883C165.687 110.696 165.69 110.5 165.649 110.311C165.608 110.123 165.523 109.946 165.402 109.796C165.28 109.645 165.125 109.525 164.949 109.445C164.773 109.365 164.58 109.328 164.387 109.335H157.005C156.568 109.352 156.149 109.513 155.814 109.793C155.479 110.073 155.246 110.457 155.153 110.883L153.727 118.252C153.679 118.439 153.675 118.635 153.716 118.823C153.758 119.012 153.842 119.189 153.964 119.339C154.085 119.489 154.24 119.609 154.417 119.689C154.593 119.769 154.785 119.807 154.979 119.8Z" fill="#EFEFEF"/>
<path d="M136.338 119.8H143.724C144.16 119.782 144.579 119.62 144.914 119.34C145.248 119.06 145.481 118.677 145.575 118.252L146.998 110.883C147.046 110.696 147.049 110.5 147.008 110.311C146.967 110.123 146.882 109.946 146.761 109.796C146.639 109.645 146.484 109.525 146.308 109.445C146.132 109.365 145.939 109.328 145.746 109.335H138.364C137.927 109.352 137.508 109.513 137.173 109.793C136.837 110.073 136.605 110.457 136.512 110.883L135.086 118.252C135.039 118.439 135.036 118.634 135.077 118.823C135.119 119.011 135.203 119.187 135.325 119.337C135.446 119.487 135.601 119.607 135.777 119.688C135.953 119.768 136.145 119.806 136.338 119.8Z" fill="#EFEFEF"/>
<path d="M229.54 119.8H236.91C237.347 119.783 237.766 119.622 238.101 119.341C238.436 119.061 238.669 118.678 238.762 118.251L240.188 110.883C240.235 110.696 240.238 110.5 240.196 110.312C240.155 110.124 240.07 109.947 239.949 109.797C239.827 109.647 239.673 109.527 239.497 109.447C239.321 109.367 239.129 109.328 238.936 109.335H231.566C231.129 109.352 230.71 109.513 230.374 109.793C230.038 110.073 229.805 110.457 229.71 110.883L228.288 118.251C228.24 118.439 228.237 118.634 228.278 118.823C228.319 119.012 228.404 119.188 228.525 119.339C228.647 119.489 228.802 119.609 228.978 119.689C229.154 119.769 229.347 119.807 229.54 119.8Z" fill="#EFEFEF"/>
<path d="M210.899 119.8H218.273C218.71 119.782 219.129 119.621 219.465 119.341C219.8 119.061 220.034 118.678 220.128 118.252L221.55 110.883C221.598 110.696 221.602 110.5 221.561 110.311C221.52 110.123 221.435 109.946 221.314 109.796C221.192 109.645 221.037 109.525 220.861 109.445C220.684 109.365 220.492 109.328 220.298 109.335H212.925C212.488 109.352 212.069 109.513 211.734 109.793C211.398 110.073 211.166 110.457 211.073 110.883L209.647 118.252C209.599 118.439 209.595 118.635 209.636 118.823C209.677 119.012 209.762 119.189 209.884 119.339C210.005 119.489 210.16 119.609 210.337 119.689C210.513 119.769 210.705 119.807 210.899 119.8Z" fill="#EFEFEF"/>
<path d="M192.262 119.8H199.635C200.072 119.782 200.491 119.621 200.826 119.341C201.161 119.06 201.393 118.678 201.487 118.252L202.913 110.883C202.96 110.696 202.963 110.5 202.922 110.311C202.88 110.122 202.795 109.946 202.673 109.796C202.551 109.645 202.396 109.526 202.22 109.446C202.043 109.366 201.851 109.328 201.657 109.335H194.283C193.847 109.352 193.428 109.514 193.093 109.794C192.758 110.074 192.525 110.457 192.432 110.883L191.006 118.252C190.958 118.439 190.955 118.635 190.997 118.824C191.039 119.012 191.124 119.189 191.246 119.339C191.368 119.489 191.523 119.609 191.699 119.689C191.875 119.769 192.068 119.807 192.262 119.8Z" fill="#EFEFEF"/>
<path d="M224.901 44.8314H244.47C244.54 44.8336 244.61 44.8218 244.675 44.7969C244.74 44.772 244.8 44.7343 244.85 44.6862C244.901 44.638 244.941 44.5803 244.969 44.5164C244.997 44.4525 245.012 44.3837 245.013 44.314C245.013 44.1747 244.958 44.041 244.859 43.9425C244.76 43.8439 244.626 43.7886 244.487 43.7886H224.917C224.778 43.7896 224.645 43.8455 224.548 43.9439C224.45 44.0423 224.395 44.1754 224.395 44.314C224.396 44.4489 224.449 44.5781 224.543 44.6746C224.638 44.771 224.766 44.8272 224.901 44.8314Z" fill="#EFEFEF"/>
<path d="M224.306 47.1963H243.875C244.014 47.1963 244.147 47.1415 244.246 47.0438C244.344 46.9462 244.4 46.8135 244.401 46.6749C244.401 46.5355 244.346 46.4019 244.247 46.3033C244.148 46.2048 244.014 46.1494 243.875 46.1494H224.306C224.167 46.1505 224.034 46.2063 223.936 46.3047C223.838 46.4032 223.783 46.5362 223.783 46.6749C223.783 46.7434 223.796 46.8112 223.823 46.8744C223.849 46.9377 223.887 46.9952 223.936 47.0436C223.985 47.092 224.042 47.1304 224.106 47.1566C224.169 47.1828 224.237 47.1963 224.306 47.1963Z" fill="#EFEFEF"/>
<path d="M38 114.472V92.0517C37.9982 86.8134 39.0309 81.6261 41.039 76.786C43.0471 71.9459 45.9913 67.5479 49.7035 63.8432C53.4156 60.1385 57.823 57.1998 62.6738 55.1947C67.5246 53.1897 72.7238 52.1577 77.9745 52.1577H78.5526C83.8022 52.1577 89.0005 53.1894 93.8505 55.194C98.7004 57.1985 103.107 60.1365 106.819 63.8403C110.53 67.5441 113.474 71.941 115.483 76.7801C117.491 81.6191 118.524 86.8054 118.522 92.0427V92.624C118.523 97.8615 117.489 103.048 115.48 107.887C113.471 112.725 110.526 117.122 106.814 120.825C103.101 124.528 98.6935 127.465 93.8428 129.468C88.9921 131.472 83.7934 132.502 78.5435 132.5H49.2638C39.2691 132.518 38.0948 124.444 38 114.472Z" fill="white"/>
<path d="M38.596 92.0695V126.543C38.6207 128.049 39.2336 129.485 40.3041 130.546C41.3746 131.607 42.8182 132.21 44.3273 132.225H51.9239C50.4148 132.205 48.9732 131.598 47.906 130.533C46.8389 129.469 46.2305 128.031 46.2107 126.525V92.0695C46.2107 64.2419 68.5848 52.18 84.9567 52.5585C82.8755 52.2643 80.7764 52.1137 78.6744 52.1079C68.06 52.1565 57.8941 56.3847 50.3885 63.8727C42.8829 71.3606 38.6448 81.5026 38.596 92.092V92.0695Z" fill="#EAEFF4"/>
<path d="M38.1309 124.773V91.8805C38.1333 81.305 42.345 71.1634 49.8402 63.685C57.3354 56.2066 67.5005 52.0036 78.1008 52H78.6835C83.9335 52 89.1322 53.0319 93.9824 55.0367C98.8327 57.0415 103.24 59.9799 106.951 63.6842C110.663 67.3884 113.607 71.7859 115.615 76.6255C117.623 81.465 118.655 86.6518 118.653 91.8895V92.4708C118.655 97.7095 117.621 102.897 115.612 107.737C113.603 112.577 110.658 116.975 106.945 120.68C103.232 124.384 98.8239 127.322 93.9723 129.326C89.1208 131.33 83.9209 132.361 78.6699 132.36H45.7455C43.7289 132.351 41.7976 131.547 40.3717 130.125C38.9457 128.702 38.1404 126.775 38.1309 124.764V124.773Z" stroke="#B8C0CC" stroke-width="2" stroke-miterlimit="10"/>
<path d="M95.0148 76.8631C95.0196 76.0297 95.3138 75.2237 95.8472 74.5823C96.3805 73.9409 97.1202 73.5037 97.9404 73.3452C98.7605 73.1866 99.6103 73.3164 100.345 73.7126C101.08 74.1087 101.655 74.7467 101.971 75.5179C102.288 76.2892 102.327 77.1461 102.082 77.9427C101.836 78.7393 101.322 79.4265 100.626 79.8874C99.9296 80.3482 99.095 80.5541 98.2639 80.4702C97.4327 80.3862 96.6564 80.0175 96.0671 79.4269C95.391 78.7443 95.0127 77.8227 95.0148 76.8631Z" fill="#B8C0CC"/>
<path d="M147.315 84.9208C147.824 85.4266 148.142 86.0934 148.213 86.8068C148.283 87.5203 148.103 88.2362 147.703 88.8318C147.361 89.3408 146.876 89.7374 146.308 89.9718C145.739 90.2063 145.112 90.2676 144.508 90.1482C143.904 90.0287 143.348 89.7338 142.912 89.3004C142.478 88.8669 142.183 88.3151 142.063 87.7144C141.938 87.1096 142 86.4816 142.239 85.9121C142.436 85.4412 142.746 85.0259 143.141 84.7028C143.537 84.3797 144.007 84.1587 144.508 84.0594C145.01 83.9601 145.528 83.9856 146.018 84.1334C146.507 84.2813 146.953 84.5471 147.315 84.9073V84.9208Z" fill="#B8C0CC"/>
<path d="M91.1172 96.0447C122.5 105.5 144.5 87.5 144.5 87.5" stroke="#B8C0CC" stroke-width="1.88" stroke-linecap="round" stroke-linejoin="round"/>
</svg>
