<svg width="234" height="222" viewBox="0 0 234 222" fill="none" xmlns="http://www.w3.org/2000/svg">
<g clip-path="url(#clip0)">
<path d="M179.94 11.6904H63.7897C59.1678 11.6904 55.4211 15.7899 55.4211 20.8468V176.41C55.4211 181.466 59.1678 185.566 63.7897 185.566H179.94C184.562 185.566 188.308 181.466 188.308 176.41V20.8468C188.308 15.7899 184.562 11.6904 179.94 11.6904Z" fill="#B8C0CC"/>
<path d="M177.188 15.0757H66.5412C61.9193 15.0757 58.1725 19.0247 58.1725 23.8962V162.272C58.1725 167.143 61.9193 171.092 66.5412 171.092H177.188C181.81 171.092 185.557 167.143 185.557 162.272V23.8962C185.557 19.0247 181.81 15.0757 177.188 15.0757Z" fill="white"/>
<path d="M58.1572 48.6602H185.482" stroke="#EAEFF4" stroke-width="2" stroke-miterlimit="10"/>
<path d="M58.1572 100.631H185.482" stroke="#EAEFF4" stroke-width="2" stroke-miterlimit="10"/>
<path d="M58.1572 152.602H185.482" stroke="#EAEFF4" stroke-width="2" stroke-miterlimit="10"/>
<path d="M151.092 53.3984H230.967C232.236 53.3984 233 54.255 233 55.0082V86.3789C233 87.132 232.236 87.9886 230.967 87.9886H151.092C149.823 87.9886 149.059 87.132 149.059 86.3789V55.0082C149.059 54.255 149.823 53.3984 151.092 53.3984Z" fill="white" stroke="#5F45FF" stroke-width="2"/>
<path d="M151.092 105.369H230.967C232.236 105.369 233 106.226 233 106.979V138.35C233 139.103 232.236 139.959 230.967 139.959H151.092C149.823 139.959 149.059 139.103 149.059 138.35V106.979C149.059 106.226 149.823 105.369 151.092 105.369Z" fill="white" stroke="#5F45FF" stroke-width="2"/>
<path d="M78.9875 69.2006C79.0115 69.2526 79.0235 69.3046 79.0235 69.3566C79.0235 69.4486 78.9855 69.5266 78.9095 69.5906C78.8375 69.6546 78.7535 69.6866 78.6575 69.6866C78.5935 69.6866 78.5335 69.6706 78.4775 69.6386C78.4215 69.6026 78.3775 69.5486 78.3455 69.4766L77.9855 68.6726H75.8735L75.5135 69.4766C75.4815 69.5486 75.4375 69.6026 75.3815 69.6386C75.3255 69.6706 75.2635 69.6866 75.1955 69.6866C75.1035 69.6866 75.0195 69.6546 74.9435 69.5906C74.8675 69.5266 74.8295 69.4486 74.8295 69.3566C74.8295 69.3046 74.8415 69.2526 74.8655 69.2006L76.5215 65.6426C76.5575 65.5626 76.6115 65.5026 76.6835 65.4626C76.7595 65.4186 76.8395 65.3966 76.9235 65.3966C77.0075 65.3966 77.0855 65.4186 77.1575 65.4626C77.2335 65.5026 77.2895 65.5626 77.3255 65.6426L78.9875 69.2006ZM76.1375 68.0726H77.7215L76.9295 66.2906L76.1375 68.0726ZM81.1786 66.6686C81.2826 66.6606 81.3646 66.6826 81.4246 66.7346C81.4846 66.7866 81.5146 66.8646 81.5146 66.9686C81.5146 67.0766 81.4886 67.1566 81.4366 67.2086C81.3846 67.2606 81.2906 67.2946 81.1546 67.3106L80.9746 67.3286C80.7386 67.3526 80.5646 67.4326 80.4526 67.5686C80.3446 67.7046 80.2906 67.8746 80.2906 68.0786V69.3386C80.2906 69.4546 80.2546 69.5446 80.1826 69.6086C80.1106 69.6686 80.0206 69.6986 79.9126 69.6986C79.8046 69.6986 79.7146 69.6686 79.6426 69.6086C79.5746 69.5446 79.5406 69.4546 79.5406 69.3386V67.0166C79.5406 66.9046 79.5746 66.8186 79.6426 66.7586C79.7146 66.6986 79.8026 66.6686 79.9066 66.6686C80.0106 66.6686 80.0946 66.6986 80.1586 66.7586C80.2226 66.8146 80.2546 66.8966 80.2546 67.0046V67.2446C80.3306 67.0686 80.4426 66.9326 80.5906 66.8366C80.7426 66.7406 80.9106 66.6866 81.0946 66.6746L81.1786 66.6686ZM83.631 69.1406C83.831 69.1526 83.931 69.2426 83.931 69.4106C83.931 69.5066 83.891 69.5806 83.811 69.6326C83.735 69.6806 83.625 69.7006 83.481 69.6926L83.319 69.6806C82.647 69.6326 82.311 69.2726 82.311 68.6006V67.2926H82.011C81.903 67.2926 81.819 67.2686 81.759 67.2206C81.703 67.1726 81.675 67.1026 81.675 67.0106C81.675 66.9186 81.703 66.8486 81.759 66.8006C81.819 66.7526 81.903 66.7286 82.011 66.7286H82.311V66.1766C82.311 66.0686 82.345 65.9826 82.413 65.9186C82.481 65.8546 82.573 65.8226 82.689 65.8226C82.801 65.8226 82.891 65.8546 82.959 65.9186C83.027 65.9826 83.061 66.0686 83.061 66.1766V66.7286H83.571C83.679 66.7286 83.761 66.7526 83.817 66.8006C83.877 66.8486 83.907 66.9186 83.907 67.0106C83.907 67.1026 83.877 67.1726 83.817 67.2206C83.761 67.2686 83.679 67.2926 83.571 67.2926H83.061V68.6546C83.061 68.9506 83.197 69.1086 83.469 69.1286L83.631 69.1406ZM87.9068 69.7166C87.4988 69.7166 87.1408 69.6286 86.8328 69.4526C86.5288 69.2766 86.2948 69.0246 86.1308 68.6966C85.9668 68.3686 85.8848 67.9846 85.8848 67.5446C85.8848 67.1046 85.9668 66.7226 86.1308 66.3986C86.2948 66.0706 86.5288 65.8186 86.8328 65.6426C87.1408 65.4666 87.4988 65.3786 87.9068 65.3786C88.1708 65.3786 88.4188 65.4186 88.6508 65.4986C88.8828 65.5746 89.0888 65.6866 89.2688 65.8346C89.3208 65.8746 89.3568 65.9166 89.3768 65.9606C89.3968 66.0046 89.4068 66.0586 89.4068 66.1226C89.4068 66.2106 89.3828 66.2846 89.3348 66.3446C89.2868 66.4046 89.2288 66.4346 89.1608 66.4346C89.0808 66.4346 88.9988 66.4066 88.9148 66.3506C88.7428 66.2226 88.5828 66.1346 88.4348 66.0866C88.2868 66.0346 88.1228 66.0086 87.9428 66.0086C87.5268 66.0086 87.2108 66.1386 86.9948 66.3986C86.7828 66.6586 86.6768 67.0406 86.6768 67.5446C86.6768 68.0526 86.7828 68.4366 86.9948 68.6966C87.2108 68.9566 87.5268 69.0866 87.9428 69.0866C88.1148 69.0866 88.2728 69.0606 88.4168 69.0086C88.5648 68.9566 88.7308 68.8686 88.9148 68.7446C88.9548 68.7206 88.9948 68.7006 89.0348 68.6846C89.0748 68.6686 89.1168 68.6606 89.1608 68.6606C89.2288 68.6606 89.2868 68.6906 89.3348 68.7506C89.3828 68.8106 89.4068 68.8846 89.4068 68.9726C89.4068 69.0326 89.3968 69.0866 89.3768 69.1346C89.3568 69.1786 89.3208 69.2206 89.2688 69.2606C89.0888 69.4086 88.8828 69.5226 88.6508 69.6026C88.4188 69.6786 88.1708 69.7166 87.9068 69.7166ZM90.3892 69.6986C90.2812 69.6986 90.1912 69.6686 90.1192 69.6086C90.0512 69.5446 90.0172 69.4546 90.0172 69.3386V65.7566C90.0172 65.6406 90.0512 65.5526 90.1192 65.4926C90.1912 65.4326 90.2812 65.4026 90.3892 65.4026C90.4972 65.4026 90.5872 65.4326 90.6592 65.4926C90.7312 65.5526 90.7672 65.6406 90.7672 65.7566V69.3386C90.7672 69.4546 90.7312 69.5446 90.6592 69.6086C90.5872 69.6686 90.4972 69.6986 90.3892 69.6986ZM92.8126 66.6566C93.2206 66.6566 93.5226 66.7586 93.7186 66.9626C93.9186 67.1626 94.0186 67.4686 94.0186 67.8806V69.3446C94.0186 69.4526 93.9866 69.5386 93.9226 69.6026C93.8586 69.6626 93.7706 69.6926 93.6586 69.6926C93.5546 69.6926 93.4686 69.6606 93.4006 69.5966C93.3366 69.5326 93.3046 69.4486 93.3046 69.3446V69.2126C93.2366 69.3686 93.1286 69.4906 92.9806 69.5786C92.8366 69.6666 92.6686 69.7106 92.4766 69.7106C92.2806 69.7106 92.1026 69.6706 91.9426 69.5906C91.7826 69.5106 91.6566 69.4006 91.5646 69.2606C91.4726 69.1206 91.4266 68.9646 91.4266 68.7926C91.4266 68.5766 91.4806 68.4066 91.5886 68.2826C91.7006 68.1586 91.8806 68.0686 92.1286 68.0126C92.3766 67.9566 92.7186 67.9286 93.1546 67.9286H93.3046V67.7906C93.3046 67.5946 93.2626 67.4526 93.1786 67.3646C93.0946 67.2726 92.9586 67.2266 92.7706 67.2266C92.6546 67.2266 92.5366 67.2446 92.4166 67.2806C92.2966 67.3126 92.1546 67.3606 91.9906 67.4246C91.8866 67.4766 91.8106 67.5026 91.7626 67.5026C91.6906 67.5026 91.6306 67.4766 91.5826 67.4246C91.5386 67.3726 91.5166 67.3046 91.5166 67.2206C91.5166 67.1526 91.5326 67.0946 91.5646 67.0466C91.6006 66.9946 91.6586 66.9466 91.7386 66.9026C91.8786 66.8266 92.0446 66.7666 92.2366 66.7226C92.4326 66.6786 92.6246 66.6566 92.8126 66.6566ZM92.6266 69.1706C92.8266 69.1706 92.9886 69.1046 93.1126 68.9726C93.2406 68.8366 93.3046 68.6626 93.3046 68.4506V68.3246H93.1966C92.9286 68.3246 92.7206 68.3366 92.5726 68.3606C92.4246 68.3846 92.3186 68.4266 92.2546 68.4866C92.1906 68.5466 92.1586 68.6286 92.1586 68.7326C92.1586 68.8606 92.2026 68.9666 92.2906 69.0506C92.3826 69.1306 92.4946 69.1706 92.6266 69.1706ZM95.8429 69.7106C95.4069 69.7106 95.0549 69.6246 94.7869 69.4526C94.6589 69.3766 94.5949 69.2686 94.5949 69.1286C94.5949 69.0486 94.6169 68.9846 94.6609 68.9366C94.7049 68.8846 94.7589 68.8586 94.8229 68.8586C94.8909 68.8586 94.9849 68.8906 95.1049 68.9546C95.2329 69.0146 95.3489 69.0606 95.4529 69.0926C95.5609 69.1246 95.6969 69.1406 95.8609 69.1406C96.0289 69.1406 96.1589 69.1126 96.2509 69.0566C96.3469 69.0006 96.3949 68.9226 96.3949 68.8226C96.3949 68.7546 96.3749 68.7006 96.3349 68.6606C96.2989 68.6206 96.2309 68.5846 96.1309 68.5526C96.0349 68.5166 95.8869 68.4766 95.6869 68.4326C95.3309 68.3606 95.0749 68.2586 94.9189 68.1266C94.7669 67.9946 94.6909 67.8126 94.6909 67.5806C94.6909 67.4046 94.7429 67.2466 94.8469 67.1066C94.9509 66.9626 95.0929 66.8526 95.2729 66.7766C95.4569 66.6966 95.6649 66.6566 95.8969 66.6566C96.0649 66.6566 96.2269 66.6786 96.3829 66.7226C96.5389 66.7626 96.6789 66.8226 96.8029 66.9026C96.9309 66.9826 96.9949 67.0886 96.9949 67.2206C96.9949 67.3006 96.9729 67.3686 96.9289 67.4246C96.8849 67.4766 96.8309 67.5026 96.7669 67.5026C96.7229 67.5026 96.6789 67.4946 96.6349 67.4786C96.5949 67.4586 96.5429 67.4306 96.4789 67.3946C96.3629 67.3346 96.2629 67.2906 96.1789 67.2626C96.0949 67.2306 95.9909 67.2146 95.8669 67.2146C95.7189 67.2146 95.6009 67.2446 95.5129 67.3046C95.4289 67.3646 95.3869 67.4466 95.3869 67.5506C95.3869 67.6506 95.4309 67.7266 95.5189 67.7786C95.6069 67.8306 95.7769 67.8826 96.0289 67.9346C96.2969 67.9906 96.5069 68.0546 96.6589 68.1266C96.8109 68.1986 96.9189 68.2886 96.9829 68.3966C97.0509 68.5046 97.0849 68.6426 97.0849 68.8106C97.0849 69.0826 96.9709 69.3006 96.7429 69.4646C96.5189 69.6286 96.2189 69.7106 95.8429 69.7106ZM98.755 69.7106C98.319 69.7106 97.967 69.6246 97.699 69.4526C97.571 69.3766 97.507 69.2686 97.507 69.1286C97.507 69.0486 97.529 68.9846 97.573 68.9366C97.617 68.8846 97.671 68.8586 97.735 68.8586C97.803 68.8586 97.897 68.8906 98.017 68.9546C98.145 69.0146 98.261 69.0606 98.365 69.0926C98.473 69.1246 98.609 69.1406 98.773 69.1406C98.941 69.1406 99.071 69.1126 99.163 69.0566C99.259 69.0006 99.307 68.9226 99.307 68.8226C99.307 68.7546 99.287 68.7006 99.247 68.6606C99.211 68.6206 99.143 68.5846 99.043 68.5526C98.947 68.5166 98.799 68.4766 98.599 68.4326C98.243 68.3606 97.987 68.2586 97.831 68.1266C97.679 67.9946 97.603 67.8126 97.603 67.5806C97.603 67.4046 97.655 67.2466 97.759 67.1066C97.863 66.9626 98.005 66.8526 98.185 66.7766C98.369 66.6966 98.577 66.6566 98.809 66.6566C98.977 66.6566 99.139 66.6786 99.295 66.7226C99.451 66.7626 99.591 66.8226 99.715 66.9026C99.843 66.9826 99.907 67.0886 99.907 67.2206C99.907 67.3006 99.885 67.3686 99.841 67.4246C99.797 67.4766 99.743 67.5026 99.679 67.5026C99.635 67.5026 99.591 67.4946 99.547 67.4786C99.507 67.4586 99.455 67.4306 99.391 67.3946C99.275 67.3346 99.175 67.2906 99.091 67.2626C99.007 67.2306 98.903 67.2146 98.779 67.2146C98.631 67.2146 98.513 67.2446 98.425 67.3046C98.341 67.3646 98.299 67.4466 98.299 67.5506C98.299 67.6506 98.343 67.7266 98.431 67.7786C98.519 67.8306 98.689 67.8826 98.941 67.9346C99.209 67.9906 99.419 68.0546 99.571 68.1266C99.723 68.1986 99.831 68.2886 99.895 68.3966C99.963 68.5046 99.997 68.6426 99.997 68.8106C99.997 69.0826 99.883 69.3006 99.655 69.4646C99.431 69.6286 99.131 69.7106 98.755 69.7106Z" fill="#B8C0CC"/>
<path d="M77.0435 120.407C76.6355 120.407 76.2775 120.319 75.9695 120.143C75.6655 119.967 75.4315 119.715 75.2675 119.387C75.1035 119.059 75.0215 118.675 75.0215 118.235C75.0215 117.795 75.1035 117.413 75.2675 117.089C75.4315 116.761 75.6655 116.509 75.9695 116.333C76.2775 116.157 76.6355 116.069 77.0435 116.069C77.3075 116.069 77.5555 116.109 77.7875 116.189C78.0195 116.265 78.2255 116.377 78.4055 116.525C78.4575 116.565 78.4935 116.607 78.5135 116.651C78.5335 116.695 78.5435 116.749 78.5435 116.813C78.5435 116.901 78.5195 116.975 78.4715 117.035C78.4235 117.095 78.3655 117.125 78.2975 117.125C78.2175 117.125 78.1355 117.097 78.0515 117.041C77.8795 116.913 77.7195 116.825 77.5715 116.777C77.4235 116.725 77.2595 116.699 77.0795 116.699C76.6635 116.699 76.3475 116.829 76.1315 117.089C75.9195 117.349 75.8135 117.731 75.8135 118.235C75.8135 118.743 75.9195 119.127 76.1315 119.387C76.3475 119.647 76.6635 119.777 77.0795 119.777C77.2515 119.777 77.4095 119.751 77.5535 119.699C77.7015 119.647 77.8675 119.559 78.0515 119.435C78.0915 119.411 78.1315 119.391 78.1715 119.375C78.2115 119.359 78.2535 119.351 78.2975 119.351C78.3655 119.351 78.4235 119.381 78.4715 119.441C78.5195 119.501 78.5435 119.575 78.5435 119.663C78.5435 119.723 78.5335 119.777 78.5135 119.825C78.4935 119.869 78.4575 119.911 78.4055 119.951C78.2255 120.099 78.0195 120.213 77.7875 120.293C77.5555 120.369 77.3075 120.407 77.0435 120.407ZM80.4333 120.401C80.1333 120.401 79.8693 120.339 79.6413 120.215C79.4173 120.091 79.2433 119.913 79.1193 119.681C78.9953 119.449 78.9333 119.179 78.9333 118.871C78.9333 118.563 78.9953 118.295 79.1193 118.067C79.2433 117.835 79.4173 117.657 79.6413 117.533C79.8693 117.409 80.1333 117.347 80.4333 117.347C80.7333 117.347 80.9953 117.409 81.2193 117.533C81.4473 117.657 81.6213 117.835 81.7413 118.067C81.8653 118.295 81.9273 118.563 81.9273 118.871C81.9273 119.179 81.8653 119.449 81.7413 119.681C81.6213 119.913 81.4473 120.091 81.2193 120.215C80.9953 120.339 80.7333 120.401 80.4333 120.401ZM80.4273 119.819C80.6713 119.819 80.8573 119.739 80.9853 119.579C81.1133 119.419 81.1773 119.183 81.1773 118.871C81.1773 118.563 81.1133 118.329 80.9853 118.169C80.8573 118.005 80.6733 117.923 80.4333 117.923C80.1933 117.923 80.0073 118.005 79.8753 118.169C79.7473 118.329 79.6833 118.563 79.6833 118.871C79.6833 119.183 79.7473 119.419 79.8753 119.579C80.0033 119.739 80.1873 119.819 80.4273 119.819ZM83.8845 120.401C83.5845 120.401 83.3205 120.339 83.0925 120.215C82.8685 120.091 82.6945 119.913 82.5705 119.681C82.4465 119.449 82.3845 119.179 82.3845 118.871C82.3845 118.563 82.4465 118.295 82.5705 118.067C82.6945 117.835 82.8685 117.657 83.0925 117.533C83.3205 117.409 83.5845 117.347 83.8845 117.347C84.1845 117.347 84.4465 117.409 84.6705 117.533C84.8985 117.657 85.0725 117.835 85.1925 118.067C85.3165 118.295 85.3785 118.563 85.3785 118.871C85.3785 119.179 85.3165 119.449 85.1925 119.681C85.0725 119.913 84.8985 120.091 84.6705 120.215C84.4465 120.339 84.1845 120.401 83.8845 120.401ZM83.8785 119.819C84.1225 119.819 84.3085 119.739 84.4365 119.579C84.5645 119.419 84.6285 119.183 84.6285 118.871C84.6285 118.563 84.5645 118.329 84.4365 118.169C84.3085 118.005 84.1245 117.923 83.8845 117.923C83.6445 117.923 83.4585 118.005 83.3265 118.169C83.1985 118.329 83.1345 118.563 83.1345 118.871C83.1345 119.183 83.1985 119.419 83.3265 119.579C83.4545 119.739 83.6385 119.819 83.8785 119.819ZM88.6077 119.771C88.6877 119.847 88.7277 119.933 88.7277 120.029C88.7277 120.121 88.6937 120.203 88.6257 120.275C88.5617 120.347 88.4857 120.383 88.3977 120.383C88.3097 120.383 88.2277 120.347 88.1517 120.275L86.7477 119.003V120.029C86.7477 120.145 86.7117 120.233 86.6397 120.293C86.5677 120.353 86.4777 120.383 86.3697 120.383C86.2617 120.383 86.1717 120.353 86.0997 120.293C86.0317 120.233 85.9977 120.145 85.9977 120.029V116.447C85.9977 116.331 86.0317 116.243 86.0997 116.183C86.1717 116.123 86.2617 116.093 86.3697 116.093C86.4777 116.093 86.5677 116.123 86.6397 116.183C86.7117 116.243 86.7477 116.331 86.7477 116.447V118.703L88.0317 117.473C88.1037 117.401 88.1857 117.365 88.2777 117.365C88.3697 117.365 88.4497 117.399 88.5177 117.467C88.5857 117.535 88.6197 117.615 88.6197 117.707C88.6197 117.799 88.5817 117.883 88.5057 117.959L87.5637 118.835L88.6077 119.771ZM89.5865 120.389C89.4785 120.389 89.3885 120.359 89.3165 120.299C89.2485 120.235 89.2145 120.145 89.2145 120.029V117.713C89.2145 117.597 89.2485 117.509 89.3165 117.449C89.3885 117.389 89.4785 117.359 89.5865 117.359C89.6945 117.359 89.7845 117.389 89.8565 117.449C89.9285 117.509 89.9645 117.597 89.9645 117.713V120.029C89.9645 120.145 89.9285 120.235 89.8565 120.299C89.7845 120.359 89.6945 120.389 89.5865 120.389ZM89.5865 116.825C89.4505 116.825 89.3425 116.789 89.2625 116.717C89.1825 116.641 89.1425 116.543 89.1425 116.423C89.1425 116.303 89.1825 116.207 89.2625 116.135C89.3425 116.063 89.4505 116.027 89.5865 116.027C89.7185 116.027 89.8245 116.063 89.9045 116.135C89.9885 116.207 90.0305 116.303 90.0305 116.423C90.0305 116.543 89.9905 116.641 89.9105 116.717C89.8305 116.789 89.7225 116.825 89.5865 116.825ZM92.4419 117.347C92.7939 117.347 93.0559 117.447 93.2279 117.647C93.3999 117.847 93.4859 118.149 93.4859 118.553V120.029C93.4859 120.141 93.4519 120.229 93.3839 120.293C93.3199 120.357 93.2299 120.389 93.1139 120.389C92.9979 120.389 92.9059 120.357 92.8379 120.293C92.7699 120.229 92.7359 120.141 92.7359 120.029V118.595C92.7359 118.367 92.6919 118.201 92.6039 118.097C92.5199 117.993 92.3859 117.941 92.2019 117.941C91.9859 117.941 91.8119 118.009 91.6799 118.145C91.5519 118.281 91.4879 118.463 91.4879 118.691V120.029C91.4879 120.141 91.4539 120.229 91.3859 120.293C91.3179 120.357 91.2259 120.389 91.1099 120.389C90.9939 120.389 90.9019 120.357 90.8339 120.293C90.7699 120.229 90.7379 120.141 90.7379 120.029V117.707C90.7379 117.603 90.7719 117.519 90.8399 117.455C90.9079 117.391 90.9999 117.359 91.1159 117.359C91.2199 117.359 91.3039 117.391 91.3679 117.455C91.4359 117.515 91.4699 117.595 91.4699 117.695V117.857C91.5699 117.693 91.7039 117.567 91.8719 117.479C92.0399 117.391 92.2299 117.347 92.4419 117.347ZM96.7317 117.359C96.8437 117.359 96.9337 117.391 97.0017 117.455C97.0697 117.519 97.1037 117.605 97.1037 117.713V120.083C97.1037 120.543 96.9757 120.891 96.7197 121.127C96.4637 121.363 96.0857 121.481 95.5857 121.481C95.1497 121.481 94.7857 121.399 94.4937 121.235C94.3457 121.147 94.2717 121.041 94.2717 120.917C94.2717 120.829 94.2917 120.759 94.3317 120.707C94.3757 120.655 94.4317 120.629 94.4997 120.629C94.5357 120.629 94.5797 120.637 94.6317 120.653C94.6837 120.673 94.7377 120.695 94.7937 120.719C94.9377 120.779 95.0657 120.825 95.1777 120.857C95.2937 120.889 95.4257 120.905 95.5737 120.905C96.0977 120.905 96.3597 120.649 96.3597 120.137V119.753C96.2717 119.917 96.1437 120.045 95.9757 120.137C95.8077 120.225 95.6157 120.269 95.3997 120.269C95.1437 120.269 94.9157 120.209 94.7157 120.089C94.5197 119.965 94.3657 119.793 94.2537 119.573C94.1417 119.353 94.0857 119.099 94.0857 118.811C94.0857 118.523 94.1397 118.269 94.2477 118.049C94.3597 117.825 94.5157 117.653 94.7157 117.533C94.9157 117.409 95.1437 117.347 95.3997 117.347C95.6157 117.347 95.8077 117.393 95.9757 117.485C96.1437 117.573 96.2717 117.699 96.3597 117.863V117.707C96.3597 117.603 96.3937 117.519 96.4617 117.455C96.5297 117.391 96.6197 117.359 96.7317 117.359ZM95.5977 119.687C95.8377 119.687 96.0237 119.609 96.1557 119.453C96.2917 119.297 96.3597 119.083 96.3597 118.811C96.3597 118.535 96.2917 118.319 96.1557 118.163C96.0237 118.007 95.8377 117.929 95.5977 117.929C95.3617 117.929 95.1757 118.007 95.0397 118.163C94.9037 118.319 94.8357 118.535 94.8357 118.811C94.8357 119.083 94.9037 119.297 95.0397 119.453C95.1757 119.609 95.3617 119.687 95.5977 119.687ZM101.465 120.407C101.057 120.407 100.699 120.319 100.391 120.143C100.087 119.967 99.8534 119.715 99.6894 119.387C99.5254 119.059 99.4434 118.675 99.4434 118.235C99.4434 117.795 99.5254 117.413 99.6894 117.089C99.8534 116.761 100.087 116.509 100.391 116.333C100.699 116.157 101.057 116.069 101.465 116.069C101.729 116.069 101.977 116.109 102.209 116.189C102.441 116.265 102.647 116.377 102.827 116.525C102.879 116.565 102.915 116.607 102.935 116.651C102.955 116.695 102.965 116.749 102.965 116.813C102.965 116.901 102.941 116.975 102.893 117.035C102.845 117.095 102.787 117.125 102.719 117.125C102.639 117.125 102.557 117.097 102.473 117.041C102.301 116.913 102.141 116.825 101.993 116.777C101.845 116.725 101.681 116.699 101.501 116.699C101.085 116.699 100.769 116.829 100.553 117.089C100.341 117.349 100.235 117.731 100.235 118.235C100.235 118.743 100.341 119.127 100.553 119.387C100.769 119.647 101.085 119.777 101.501 119.777C101.673 119.777 101.831 119.751 101.975 119.699C102.123 119.647 102.289 119.559 102.473 119.435C102.513 119.411 102.553 119.391 102.593 119.375C102.633 119.359 102.675 119.351 102.719 119.351C102.787 119.351 102.845 119.381 102.893 119.441C102.941 119.501 102.965 119.575 102.965 119.663C102.965 119.723 102.955 119.777 102.935 119.825C102.915 119.869 102.879 119.911 102.827 119.951C102.647 120.099 102.441 120.213 102.209 120.293C101.977 120.369 101.729 120.407 101.465 120.407ZM103.948 120.389C103.84 120.389 103.75 120.359 103.678 120.299C103.61 120.235 103.576 120.145 103.576 120.029V116.447C103.576 116.331 103.61 116.243 103.678 116.183C103.75 116.123 103.84 116.093 103.948 116.093C104.056 116.093 104.146 116.123 104.218 116.183C104.29 116.243 104.326 116.331 104.326 116.447V120.029C104.326 120.145 104.29 120.235 104.218 120.299C104.146 120.359 104.056 120.389 103.948 120.389ZM106.371 117.347C106.779 117.347 107.081 117.449 107.277 117.653C107.477 117.853 107.577 118.159 107.577 118.571V120.035C107.577 120.143 107.545 120.229 107.481 120.293C107.417 120.353 107.329 120.383 107.217 120.383C107.113 120.383 107.027 120.351 106.959 120.287C106.895 120.223 106.863 120.139 106.863 120.035V119.903C106.795 120.059 106.687 120.181 106.539 120.269C106.395 120.357 106.227 120.401 106.035 120.401C105.839 120.401 105.661 120.361 105.501 120.281C105.341 120.201 105.215 120.091 105.123 119.951C105.031 119.811 104.985 119.655 104.985 119.483C104.985 119.267 105.039 119.097 105.147 118.973C105.259 118.849 105.439 118.759 105.687 118.703C105.935 118.647 106.277 118.619 106.713 118.619H106.863V118.481C106.863 118.285 106.821 118.143 106.737 118.055C106.653 117.963 106.517 117.917 106.329 117.917C106.213 117.917 106.095 117.935 105.975 117.971C105.855 118.003 105.713 118.051 105.549 118.115C105.445 118.167 105.369 118.193 105.321 118.193C105.249 118.193 105.189 118.167 105.141 118.115C105.097 118.063 105.075 117.995 105.075 117.911C105.075 117.843 105.091 117.785 105.123 117.737C105.159 117.685 105.217 117.637 105.297 117.593C105.437 117.517 105.603 117.457 105.795 117.413C105.991 117.369 106.183 117.347 106.371 117.347ZM106.185 119.861C106.385 119.861 106.547 119.795 106.671 119.663C106.799 119.527 106.863 119.353 106.863 119.141V119.015H106.755C106.487 119.015 106.279 119.027 106.131 119.051C105.983 119.075 105.877 119.117 105.813 119.177C105.749 119.237 105.717 119.319 105.717 119.423C105.717 119.551 105.761 119.657 105.849 119.741C105.941 119.821 106.053 119.861 106.185 119.861ZM109.401 120.401C108.965 120.401 108.613 120.315 108.345 120.143C108.217 120.067 108.153 119.959 108.153 119.819C108.153 119.739 108.175 119.675 108.219 119.627C108.263 119.575 108.317 119.549 108.381 119.549C108.449 119.549 108.543 119.581 108.663 119.645C108.791 119.705 108.907 119.751 109.011 119.783C109.119 119.815 109.255 119.831 109.419 119.831C109.587 119.831 109.717 119.803 109.809 119.747C109.905 119.691 109.953 119.613 109.953 119.513C109.953 119.445 109.933 119.391 109.893 119.351C109.857 119.311 109.789 119.275 109.689 119.243C109.593 119.207 109.445 119.167 109.245 119.123C108.889 119.051 108.633 118.949 108.477 118.817C108.325 118.685 108.249 118.503 108.249 118.271C108.249 118.095 108.301 117.937 108.405 117.797C108.509 117.653 108.651 117.543 108.831 117.467C109.015 117.387 109.223 117.347 109.455 117.347C109.623 117.347 109.785 117.369 109.941 117.413C110.097 117.453 110.237 117.513 110.361 117.593C110.489 117.673 110.553 117.779 110.553 117.911C110.553 117.991 110.531 118.059 110.487 118.115C110.443 118.167 110.389 118.193 110.325 118.193C110.281 118.193 110.237 118.185 110.193 118.169C110.153 118.149 110.101 118.121 110.037 118.085C109.921 118.025 109.821 117.981 109.737 117.953C109.653 117.921 109.549 117.905 109.425 117.905C109.277 117.905 109.159 117.935 109.071 117.995C108.987 118.055 108.945 118.137 108.945 118.241C108.945 118.341 108.989 118.417 109.077 118.469C109.165 118.521 109.335 118.573 109.587 118.625C109.855 118.681 110.065 118.745 110.217 118.817C110.369 118.889 110.477 118.979 110.541 119.087C110.609 119.195 110.643 119.333 110.643 119.501C110.643 119.773 110.529 119.991 110.301 120.155C110.077 120.319 109.777 120.401 109.401 120.401ZM112.314 120.401C111.878 120.401 111.526 120.315 111.258 120.143C111.13 120.067 111.066 119.959 111.066 119.819C111.066 119.739 111.088 119.675 111.132 119.627C111.176 119.575 111.23 119.549 111.294 119.549C111.362 119.549 111.456 119.581 111.576 119.645C111.704 119.705 111.82 119.751 111.924 119.783C112.032 119.815 112.168 119.831 112.332 119.831C112.5 119.831 112.63 119.803 112.722 119.747C112.818 119.691 112.866 119.613 112.866 119.513C112.866 119.445 112.846 119.391 112.806 119.351C112.77 119.311 112.702 119.275 112.602 119.243C112.506 119.207 112.358 119.167 112.158 119.123C111.802 119.051 111.546 118.949 111.39 118.817C111.238 118.685 111.162 118.503 111.162 118.271C111.162 118.095 111.214 117.937 111.318 117.797C111.422 117.653 111.564 117.543 111.744 117.467C111.928 117.387 112.136 117.347 112.368 117.347C112.536 117.347 112.698 117.369 112.854 117.413C113.01 117.453 113.15 117.513 113.274 117.593C113.402 117.673 113.466 117.779 113.466 117.911C113.466 117.991 113.444 118.059 113.4 118.115C113.356 118.167 113.302 118.193 113.238 118.193C113.194 118.193 113.15 118.185 113.106 118.169C113.066 118.149 113.014 118.121 112.95 118.085C112.834 118.025 112.734 117.981 112.65 117.953C112.566 117.921 112.462 117.905 112.338 117.905C112.19 117.905 112.072 117.935 111.984 117.995C111.9 118.055 111.858 118.137 111.858 118.241C111.858 118.341 111.902 118.417 111.99 118.469C112.078 118.521 112.248 118.573 112.5 118.625C112.768 118.681 112.978 118.745 113.13 118.817C113.282 118.889 113.39 118.979 113.454 119.087C113.522 119.195 113.556 119.333 113.556 119.501C113.556 119.773 113.442 119.991 113.214 120.155C112.99 120.319 112.69 120.401 112.314 120.401Z" fill="#B8C0CC"/>
<path d="M77.0975 82.5554C76.4308 82.5554 75.9215 82.3101 75.5695 81.8194C75.2175 81.3234 75.0415 80.6034 75.0415 79.6594C75.0415 78.7207 75.2175 78.0061 75.5695 77.5154C75.9215 77.0194 76.4308 76.7714 77.0975 76.7714C77.7642 76.7714 78.2735 77.0194 78.6255 77.5154C78.9775 78.0061 79.1535 78.7207 79.1535 79.6594C79.1535 80.5981 78.9775 81.3154 78.6255 81.8114C78.2735 82.3074 77.7642 82.5554 77.0975 82.5554ZM77.0975 81.7474C77.4602 81.7474 77.7242 81.5821 77.8895 81.2514C78.0548 80.9154 78.1375 80.3847 78.1375 79.6594C78.1375 78.9287 78.0548 78.4007 77.8895 78.0754C77.7242 77.7447 77.4602 77.5794 77.0975 77.5794C76.7348 77.5794 76.4708 77.7447 76.3055 78.0754C76.1402 78.4061 76.0575 78.9341 76.0575 79.6594C76.0575 80.3847 76.1402 80.9154 76.3055 81.2514C76.4708 81.5821 76.7348 81.7474 77.0975 81.7474ZM81.7104 76.7714C82.425 76.7714 82.9744 77.0141 83.3584 77.4994C83.7477 77.9794 83.9424 78.6674 83.9424 79.5634C83.9424 80.1767 83.8517 80.7101 83.6704 81.1634C83.489 81.6114 83.2277 81.9554 82.8864 82.1954C82.5504 82.4354 82.153 82.5554 81.6944 82.5554C81.3904 82.5554 81.0837 82.5021 80.7744 82.3954C80.4704 82.2834 80.2117 82.1341 79.9984 81.9474C79.929 81.8887 79.8784 81.8327 79.8464 81.7794C79.8197 81.7207 79.8064 81.6514 79.8064 81.5714C79.8064 81.4541 79.8384 81.3554 79.9024 81.2754C79.9717 81.1901 80.0517 81.1474 80.1424 81.1474C80.1957 81.1474 80.2464 81.1581 80.2944 81.1794C80.3424 81.1954 80.401 81.2247 80.4704 81.2674C80.913 81.5767 81.3077 81.7314 81.6544 81.7314C82.0437 81.7314 82.3504 81.5527 82.5744 81.1954C82.7984 80.8327 82.9157 80.3261 82.9264 79.6754C82.8037 79.9154 82.6197 80.1074 82.3744 80.2514C82.129 80.3901 81.8544 80.4594 81.5504 80.4594C81.2144 80.4594 80.9157 80.3847 80.6544 80.2354C80.393 80.0807 80.1877 79.8674 80.0384 79.5954C79.8944 79.3181 79.8224 79.0034 79.8224 78.6514C79.8224 78.2887 79.9024 77.9661 80.0624 77.6834C80.2277 77.3954 80.4517 77.1714 80.7344 77.0114C81.0224 76.8514 81.3477 76.7714 81.7104 76.7714ZM81.7664 79.6434C82.065 79.6434 82.305 79.5501 82.4864 79.3634C82.673 79.1714 82.7664 78.9234 82.7664 78.6194C82.7664 78.3101 82.673 78.0621 82.4864 77.8754C82.305 77.6834 82.065 77.5874 81.7664 77.5874C81.473 77.5874 81.2384 77.6834 81.0624 77.8754C80.8864 78.0621 80.7984 78.3101 80.7984 78.6194C80.7984 78.9287 80.8864 79.1767 81.0624 79.3634C81.2384 79.5501 81.473 79.6434 81.7664 79.6434ZM84.9953 82.7554C84.9633 82.8567 84.9126 82.9314 84.8433 82.9794C84.7739 83.0274 84.6966 83.0514 84.6113 83.0514C84.5046 83.0514 84.4086 83.0141 84.3233 82.9394C84.2433 82.8701 84.2033 82.7794 84.2033 82.6674C84.2033 82.6194 84.2113 82.5714 84.2273 82.5234L86.0833 76.7074C86.1153 76.6061 86.1659 76.5314 86.2353 76.4834C86.3046 76.4354 86.3819 76.4114 86.4673 76.4114C86.5739 76.4114 86.6673 76.4487 86.7473 76.5234C86.8326 76.5927 86.8753 76.6834 86.8753 76.7954C86.8753 76.8434 86.8673 76.8914 86.8513 76.9394L84.9953 82.7554ZM90.8071 81.6514C91.1271 81.6514 91.2871 81.7874 91.2871 82.0594C91.2871 82.3421 91.1271 82.4834 90.8071 82.4834H88.1031C87.7777 82.4834 87.6151 82.3421 87.6151 82.0594C87.6151 81.7874 87.7777 81.6514 88.1031 81.6514H88.9351V78.0034L88.1671 78.4754C88.0924 78.5181 88.0257 78.5394 87.9671 78.5394C87.8551 78.5394 87.7591 78.4914 87.6791 78.3954C87.6044 78.2994 87.5671 78.1927 87.5671 78.0754C87.5671 77.9207 87.6364 77.8007 87.7751 77.7154L89.0151 76.9474C89.1751 76.8514 89.3271 76.8034 89.4711 76.8034C89.6204 76.8034 89.7404 76.8487 89.8311 76.9394C89.9217 77.0301 89.9671 77.1554 89.9671 77.3154V81.6514H90.8071ZM95.6039 81.6514C95.9239 81.6514 96.0839 81.7874 96.0839 82.0594C96.0839 82.3421 95.9239 82.4834 95.6039 82.4834H92.8999C92.5746 82.4834 92.4119 82.3421 92.4119 82.0594C92.4119 81.7874 92.5746 81.6514 92.8999 81.6514H93.7319V78.0034L92.9639 78.4754C92.8893 78.5181 92.8226 78.5394 92.7639 78.5394C92.6519 78.5394 92.5559 78.4914 92.4759 78.3954C92.4013 78.2994 92.3639 78.1927 92.3639 78.0754C92.3639 77.9207 92.4333 77.8007 92.5719 77.7154L93.8119 76.9474C93.9719 76.8514 94.1239 76.8034 94.2679 76.8034C94.4173 76.8034 94.5373 76.8487 94.6279 76.9394C94.7186 77.0301 94.7639 77.1554 94.7639 77.3154V81.6514H95.6039ZM97.0968 82.7554C97.0648 82.8567 97.0141 82.9314 96.9448 82.9794C96.8755 83.0274 96.7981 83.0514 96.7128 83.0514C96.6061 83.0514 96.5101 83.0141 96.4248 82.9394C96.3448 82.8701 96.3048 82.7794 96.3048 82.6674C96.3048 82.6194 96.3128 82.5714 96.3288 82.5234L98.1848 76.7074C98.2168 76.6061 98.2675 76.5314 98.3368 76.4834C98.4061 76.4354 98.4835 76.4114 98.5688 76.4114C98.6755 76.4114 98.7688 76.4487 98.8488 76.5234C98.9341 76.5927 98.9768 76.6834 98.9768 76.7954C98.9768 76.8434 98.9688 76.8914 98.9528 76.9394L97.0968 82.7554ZM102.885 81.6514C103.205 81.6514 103.365 81.7874 103.365 82.0594C103.365 82.3421 103.205 82.4834 102.885 82.4834H99.8446C99.706 82.4834 99.5966 82.4434 99.5166 82.3634C99.4366 82.2781 99.3966 82.1741 99.3966 82.0514C99.3966 81.8914 99.458 81.7474 99.5806 81.6194L101.405 79.6594C101.629 79.4141 101.791 79.1901 101.893 78.9874C101.999 78.7794 102.053 78.5741 102.053 78.3714C102.053 78.1207 101.981 77.9287 101.837 77.7954C101.693 77.6621 101.487 77.5954 101.221 77.5954C101.002 77.5954 100.789 77.6381 100.581 77.7234C100.378 77.8034 100.173 77.9154 99.9646 78.0594C99.9113 78.0967 99.858 78.1287 99.8046 78.1554C99.7513 78.1767 99.698 78.1874 99.6446 78.1874C99.554 78.1874 99.474 78.1447 99.4046 78.0594C99.3406 77.9741 99.3086 77.8727 99.3086 77.7554C99.3086 77.6754 99.322 77.6061 99.3486 77.5474C99.3806 77.4887 99.4286 77.4327 99.4926 77.3794C99.7273 77.1927 100.002 77.0461 100.317 76.9394C100.631 76.8274 100.946 76.7714 101.261 76.7714C101.81 76.7714 102.247 76.9101 102.573 77.1874C102.903 77.4647 103.069 77.8381 103.069 78.3074C103.069 78.6327 102.999 78.9394 102.861 79.2274C102.722 79.5101 102.487 79.8274 102.157 80.1794L100.773 81.6514H102.885ZM106.105 82.5554C105.439 82.5554 104.929 82.3101 104.577 81.8194C104.225 81.3234 104.049 80.6034 104.049 79.6594C104.049 78.7207 104.225 78.0061 104.577 77.5154C104.929 77.0194 105.439 76.7714 106.105 76.7714C106.772 76.7714 107.281 77.0194 107.633 77.5154C107.985 78.0061 108.161 78.7207 108.161 79.6594C108.161 80.5981 107.985 81.3154 107.633 81.8114C107.281 82.3074 106.772 82.5554 106.105 82.5554ZM106.105 81.7474C106.468 81.7474 106.732 81.5821 106.897 81.2514C107.063 80.9154 107.145 80.3847 107.145 79.6594C107.145 78.9287 107.063 78.4007 106.897 78.0754C106.732 77.7447 106.468 77.5794 106.105 77.5794C105.743 77.5794 105.479 77.7447 105.313 78.0754C105.148 78.4061 105.065 78.9341 105.065 79.6594C105.065 80.3847 105.148 80.9154 105.313 81.2514C105.479 81.5821 105.743 81.7474 106.105 81.7474ZM112.486 81.6514C112.806 81.6514 112.966 81.7874 112.966 82.0594C112.966 82.3421 112.806 82.4834 112.486 82.4834H109.446C109.308 82.4834 109.198 82.4434 109.118 82.3634C109.038 82.2781 108.998 82.1741 108.998 82.0514C108.998 81.8914 109.06 81.7474 109.182 81.6194L111.006 79.6594C111.23 79.4141 111.393 79.1901 111.494 78.9874C111.601 78.7794 111.654 78.5741 111.654 78.3714C111.654 78.1207 111.582 77.9287 111.438 77.7954C111.294 77.6621 111.089 77.5954 110.822 77.5954C110.604 77.5954 110.39 77.6381 110.182 77.7234C109.98 77.8034 109.774 77.9154 109.566 78.0594C109.513 78.0967 109.46 78.1287 109.406 78.1554C109.353 78.1767 109.3 78.1874 109.246 78.1874C109.156 78.1874 109.076 78.1447 109.006 78.0594C108.942 77.9741 108.91 77.8727 108.91 77.7554C108.91 77.6754 108.924 77.6061 108.95 77.5474C108.982 77.4887 109.03 77.4327 109.094 77.3794C109.329 77.1927 109.604 77.0461 109.918 76.9394C110.233 76.8274 110.548 76.7714 110.862 76.7714C111.412 76.7714 111.849 76.9101 112.174 77.1874C112.505 77.4647 112.67 77.8381 112.67 78.3074C112.67 78.6327 112.601 78.9394 112.462 79.2274C112.324 79.5101 112.089 79.8274 111.758 80.1794L110.374 81.6514H112.486ZM115.707 82.5554C115.04 82.5554 114.531 82.3101 114.179 81.8194C113.827 81.3234 113.651 80.6034 113.651 79.6594C113.651 78.7207 113.827 78.0061 114.179 77.5154C114.531 77.0194 115.04 76.7714 115.707 76.7714C116.374 76.7714 116.883 77.0194 117.235 77.5154C117.587 78.0061 117.763 78.7207 117.763 79.6594C117.763 80.5981 117.587 81.3154 117.235 81.8114C116.883 82.3074 116.374 82.5554 115.707 82.5554ZM115.707 81.7474C116.07 81.7474 116.334 81.5821 116.499 81.2514C116.664 80.9154 116.747 80.3847 116.747 79.6594C116.747 78.9287 116.664 78.4007 116.499 78.0754C116.334 77.7447 116.07 77.5794 115.707 77.5794C115.344 77.5794 115.08 77.7447 114.915 78.0754C114.75 78.4061 114.667 78.9341 114.667 79.6594C114.667 80.3847 114.75 80.9154 114.915 81.2514C115.08 81.5821 115.344 81.7474 115.707 81.7474Z" fill="#B8C0CC"/>
<path d="M77.0975 133.246C76.4308 133.246 75.9215 133 75.5695 132.51C75.2175 132.014 75.0415 131.294 75.0415 130.35C75.0415 129.411 75.2175 128.696 75.5695 128.206C75.9215 127.71 76.4308 127.462 77.0975 127.462C77.7642 127.462 78.2735 127.71 78.6255 128.206C78.9775 128.696 79.1535 129.411 79.1535 130.35C79.1535 131.288 78.9775 132.006 78.6255 132.502C78.2735 132.998 77.7642 133.246 77.0975 133.246ZM77.0975 132.438C77.4602 132.438 77.7242 132.272 77.8895 131.942C78.0548 131.606 78.1375 131.075 78.1375 130.35C78.1375 129.619 78.0548 129.091 77.8895 128.766C77.7242 128.435 77.4602 128.27 77.0975 128.27C76.7348 128.27 76.4708 128.435 76.3055 128.766C76.1402 129.096 76.0575 129.624 76.0575 130.35C76.0575 131.075 76.1402 131.606 76.3055 131.942C76.4708 132.272 76.7348 132.438 77.0975 132.438ZM81.7104 127.462C82.425 127.462 82.9744 127.704 83.3584 128.19C83.7477 128.67 83.9424 129.358 83.9424 130.254C83.9424 130.867 83.8517 131.4 83.6704 131.854C83.489 132.302 83.2277 132.646 82.8864 132.886C82.5504 133.126 82.153 133.246 81.6944 133.246C81.3904 133.246 81.0837 133.192 80.7744 133.086C80.4704 132.974 80.2117 132.824 79.9984 132.638C79.929 132.579 79.8784 132.523 79.8464 132.47C79.8197 132.411 79.8064 132.342 79.8064 132.262C79.8064 132.144 79.8384 132.046 79.9024 131.966C79.9717 131.88 80.0517 131.838 80.1424 131.838C80.1957 131.838 80.2464 131.848 80.2944 131.87C80.3424 131.886 80.401 131.915 80.4704 131.958C80.913 132.267 81.3077 132.422 81.6544 132.422C82.0437 132.422 82.3504 132.243 82.5744 131.886C82.7984 131.523 82.9157 131.016 82.9264 130.366C82.8037 130.606 82.6197 130.798 82.3744 130.942C82.129 131.08 81.8544 131.15 81.5504 131.15C81.2144 131.15 80.9157 131.075 80.6544 130.926C80.393 130.771 80.1877 130.558 80.0384 130.286C79.8944 130.008 79.8224 129.694 79.8224 129.342C79.8224 128.979 79.9024 128.656 80.0624 128.374C80.2277 128.086 80.4517 127.862 80.7344 127.702C81.0224 127.542 81.3477 127.462 81.7104 127.462ZM81.7664 130.334C82.065 130.334 82.305 130.24 82.4864 130.054C82.673 129.862 82.7664 129.614 82.7664 129.31C82.7664 129 82.673 128.752 82.4864 128.566C82.305 128.374 82.065 128.278 81.7664 128.278C81.473 128.278 81.2384 128.374 81.0624 128.566C80.8864 128.752 80.7984 129 80.7984 129.31C80.7984 129.619 80.8864 129.867 81.0624 130.054C81.2384 130.24 81.473 130.334 81.7664 130.334ZM84.9953 133.446C84.9633 133.547 84.9126 133.622 84.8433 133.67C84.7739 133.718 84.6966 133.742 84.6113 133.742C84.5046 133.742 84.4086 133.704 84.3233 133.63C84.2433 133.56 84.2033 133.47 84.2033 133.358C84.2033 133.31 84.2113 133.262 84.2273 133.214L86.0833 127.398C86.1153 127.296 86.1659 127.222 86.2353 127.174C86.3046 127.126 86.3819 127.102 86.4673 127.102C86.5739 127.102 86.6673 127.139 86.7473 127.214C86.8326 127.283 86.8753 127.374 86.8753 127.486C86.8753 127.534 86.8673 127.582 86.8513 127.63L84.9953 133.446ZM90.8071 132.342C91.1271 132.342 91.2871 132.478 91.2871 132.75C91.2871 133.032 91.1271 133.174 90.8071 133.174H88.1031C87.7777 133.174 87.6151 133.032 87.6151 132.75C87.6151 132.478 87.7777 132.342 88.1031 132.342H88.9351V128.694L88.1671 129.166C88.0924 129.208 88.0257 129.23 87.9671 129.23C87.8551 129.23 87.7591 129.182 87.6791 129.086C87.6044 128.99 87.5671 128.883 87.5671 128.766C87.5671 128.611 87.6364 128.491 87.7751 128.406L89.0151 127.638C89.1751 127.542 89.3271 127.494 89.4711 127.494C89.6204 127.494 89.7404 127.539 89.8311 127.63C89.9217 127.72 89.9671 127.846 89.9671 128.006V132.342H90.8071ZM94.2919 129.566C94.6439 129.566 94.9533 129.643 95.2199 129.798C95.4919 129.947 95.7026 130.158 95.8519 130.43C96.0013 130.702 96.0759 131.014 96.0759 131.366C96.0759 131.734 95.9906 132.059 95.8199 132.342C95.6546 132.624 95.4173 132.846 95.1079 133.006C94.8039 133.16 94.4519 133.238 94.0519 133.238C93.7213 133.238 93.3959 133.184 93.0759 133.078C92.7613 132.966 92.4919 132.816 92.2679 132.63C92.1453 132.523 92.0839 132.398 92.0839 132.254C92.0839 132.136 92.1159 132.038 92.1799 131.958C92.2493 131.872 92.3293 131.83 92.4199 131.83C92.4733 131.83 92.5239 131.84 92.5719 131.862C92.6199 131.878 92.6759 131.907 92.7399 131.95C92.9533 132.099 93.1613 132.214 93.3639 132.294C93.5666 132.374 93.7826 132.414 94.0119 132.414C94.3639 132.414 94.6333 132.326 94.8199 132.15C95.0066 131.974 95.0999 131.723 95.0999 131.398C95.0999 131.083 95.0039 130.835 94.8119 130.654C94.6253 130.467 94.3666 130.374 94.0359 130.374C93.8279 130.374 93.6413 130.403 93.4759 130.462C93.3159 130.52 93.1506 130.619 92.9799 130.758C92.8786 130.827 92.7746 130.862 92.6679 130.862C92.5613 130.862 92.4706 130.83 92.3959 130.766C92.3213 130.702 92.2839 130.616 92.2839 130.51V128.014C92.2839 127.864 92.3266 127.747 92.4119 127.662C92.4973 127.576 92.6173 127.534 92.7719 127.534H95.4359C95.7559 127.534 95.9159 127.667 95.9159 127.934C95.9159 128.2 95.7559 128.334 95.4359 128.334H93.2919V129.854C93.5639 129.662 93.8973 129.566 94.2919 129.566ZM97.0968 133.446C97.0648 133.547 97.0141 133.622 96.9448 133.67C96.8755 133.718 96.7981 133.742 96.7128 133.742C96.6061 133.742 96.5101 133.704 96.4248 133.63C96.3448 133.56 96.3048 133.47 96.3048 133.358C96.3048 133.31 96.3128 133.262 96.3288 133.214L98.1848 127.398C98.2168 127.296 98.2675 127.222 98.3368 127.174C98.4061 127.126 98.4835 127.102 98.5688 127.102C98.6755 127.102 98.7688 127.139 98.8488 127.214C98.9341 127.283 98.9768 127.374 98.9768 127.486C98.9768 127.534 98.9688 127.582 98.9528 127.63L97.0968 133.446ZM102.885 132.342C103.205 132.342 103.365 132.478 103.365 132.75C103.365 133.032 103.205 133.174 102.885 133.174H99.8446C99.706 133.174 99.5966 133.134 99.5166 133.054C99.4366 132.968 99.3966 132.864 99.3966 132.742C99.3966 132.582 99.458 132.438 99.5806 132.31L101.405 130.35C101.629 130.104 101.791 129.88 101.893 129.678C101.999 129.47 102.053 129.264 102.053 129.062C102.053 128.811 101.981 128.619 101.837 128.486C101.693 128.352 101.487 128.286 101.221 128.286C101.002 128.286 100.789 128.328 100.581 128.414C100.378 128.494 100.173 128.606 99.9646 128.75C99.9113 128.787 99.858 128.819 99.8046 128.846C99.7513 128.867 99.698 128.878 99.6446 128.878C99.554 128.878 99.474 128.835 99.4046 128.75C99.3406 128.664 99.3086 128.563 99.3086 128.446C99.3086 128.366 99.322 128.296 99.3486 128.238C99.3806 128.179 99.4286 128.123 99.4926 128.07C99.7273 127.883 100.002 127.736 100.317 127.63C100.631 127.518 100.946 127.462 101.261 127.462C101.81 127.462 102.247 127.6 102.573 127.878C102.903 128.155 103.069 128.528 103.069 128.998C103.069 129.323 102.999 129.63 102.861 129.918C102.722 130.2 102.487 130.518 102.157 130.87L100.773 132.342H102.885ZM106.105 133.246C105.439 133.246 104.929 133 104.577 132.51C104.225 132.014 104.049 131.294 104.049 130.35C104.049 129.411 104.225 128.696 104.577 128.206C104.929 127.71 105.439 127.462 106.105 127.462C106.772 127.462 107.281 127.71 107.633 128.206C107.985 128.696 108.161 129.411 108.161 130.35C108.161 131.288 107.985 132.006 107.633 132.502C107.281 132.998 106.772 133.246 106.105 133.246ZM106.105 132.438C106.468 132.438 106.732 132.272 106.897 131.942C107.063 131.606 107.145 131.075 107.145 130.35C107.145 129.619 107.063 129.091 106.897 128.766C106.732 128.435 106.468 128.27 106.105 128.27C105.743 128.27 105.479 128.435 105.313 128.766C105.148 129.096 105.065 129.624 105.065 130.35C105.065 131.075 105.148 131.606 105.313 131.942C105.479 132.272 105.743 132.438 106.105 132.438ZM112.486 132.342C112.806 132.342 112.966 132.478 112.966 132.75C112.966 133.032 112.806 133.174 112.486 133.174H109.446C109.308 133.174 109.198 133.134 109.118 133.054C109.038 132.968 108.998 132.864 108.998 132.742C108.998 132.582 109.06 132.438 109.182 132.31L111.006 130.35C111.23 130.104 111.393 129.88 111.494 129.678C111.601 129.47 111.654 129.264 111.654 129.062C111.654 128.811 111.582 128.619 111.438 128.486C111.294 128.352 111.089 128.286 110.822 128.286C110.604 128.286 110.39 128.328 110.182 128.414C109.98 128.494 109.774 128.606 109.566 128.75C109.513 128.787 109.46 128.819 109.406 128.846C109.353 128.867 109.3 128.878 109.246 128.878C109.156 128.878 109.076 128.835 109.006 128.75C108.942 128.664 108.91 128.563 108.91 128.446C108.91 128.366 108.924 128.296 108.95 128.238C108.982 128.179 109.03 128.123 109.094 128.07C109.329 127.883 109.604 127.736 109.918 127.63C110.233 127.518 110.548 127.462 110.862 127.462C111.412 127.462 111.849 127.6 112.174 127.878C112.505 128.155 112.67 128.528 112.67 128.998C112.67 129.323 112.601 129.63 112.462 129.918C112.324 130.2 112.089 130.518 111.758 130.87L110.374 132.342H112.486ZM115.707 133.246C115.04 133.246 114.531 133 114.179 132.51C113.827 132.014 113.651 131.294 113.651 130.35C113.651 129.411 113.827 128.696 114.179 128.206C114.531 127.71 115.04 127.462 115.707 127.462C116.374 127.462 116.883 127.71 117.235 128.206C117.587 128.696 117.763 129.411 117.763 130.35C117.763 131.288 117.587 132.006 117.235 132.502C116.883 132.998 116.374 133.246 115.707 133.246ZM115.707 132.438C116.07 132.438 116.334 132.272 116.499 131.942C116.664 131.606 116.747 131.075 116.747 130.35C116.747 129.619 116.664 129.091 116.499 128.766C116.334 128.435 116.07 128.27 115.707 128.27C115.344 128.27 115.08 128.435 114.915 128.766C114.75 129.096 114.667 129.624 114.667 130.35C114.667 131.075 114.75 131.606 114.915 131.942C115.08 132.272 115.344 132.438 115.707 132.438Z" fill="#B8C0CC"/>
<path d="M179.456 74.438C178.922 74.438 178.461 74.3234 178.072 74.094C177.682 73.8594 177.381 73.526 177.168 73.094C176.96 72.6567 176.856 72.142 176.856 71.55C176.856 70.9634 176.96 70.454 177.168 70.022C177.381 69.5847 177.682 69.2514 178.072 69.022C178.461 68.7874 178.922 68.67 179.456 68.67C179.813 68.67 180.149 68.7287 180.464 68.846C180.784 68.958 181.061 69.1207 181.296 69.334C181.381 69.414 181.424 69.5074 181.424 69.614C181.424 69.6887 181.402 69.7554 181.36 69.814C181.317 69.8674 181.266 69.894 181.208 69.894C181.144 69.894 181.066 69.8647 180.976 69.806C180.704 69.5927 180.456 69.4434 180.232 69.358C180.013 69.2727 179.76 69.23 179.472 69.23C178.853 69.23 178.376 69.4327 178.04 69.838C177.709 70.238 177.544 70.8087 177.544 71.55C177.544 72.2967 177.709 72.8727 178.04 73.278C178.376 73.678 178.853 73.878 179.472 73.878C179.754 73.878 180.008 73.8354 180.232 73.75C180.456 73.6647 180.704 73.5154 180.976 73.302C181.066 73.2434 181.144 73.214 181.208 73.214C181.266 73.214 181.317 73.2407 181.36 73.294C181.402 73.3474 181.424 73.414 181.424 73.494C181.424 73.6007 181.381 73.694 181.296 73.774C181.061 73.9874 180.784 74.1527 180.464 74.27C180.149 74.382 179.813 74.438 179.456 74.438ZM187.201 73.998C187.222 74.0407 187.233 74.086 187.233 74.134C187.233 74.214 187.201 74.2807 187.137 74.334C187.078 74.3874 187.006 74.414 186.921 74.414C186.788 74.414 186.694 74.35 186.641 74.222L186.073 72.926H183.057L182.481 74.222C182.428 74.35 182.334 74.414 182.201 74.414C182.116 74.414 182.041 74.3874 181.977 74.334C181.913 74.2754 181.881 74.206 181.881 74.126C181.881 74.0834 181.892 74.0407 181.913 73.998L184.201 68.91C184.233 68.8354 184.281 68.7794 184.345 68.742C184.409 68.7047 184.478 68.686 184.553 68.686C184.633 68.686 184.705 68.7074 184.769 68.75C184.833 68.7874 184.881 68.8407 184.913 68.91L187.201 73.998ZM183.297 72.382H185.833L184.561 69.51L183.297 72.382ZM192.374 68.694C192.47 68.694 192.544 68.726 192.598 68.79C192.651 68.8487 192.678 68.9287 192.678 69.03V74.078C192.678 74.1794 192.648 74.262 192.59 74.326C192.536 74.3847 192.459 74.414 192.358 74.414C192.256 74.414 192.168 74.3687 192.094 74.278L188.774 69.838V74.078C188.774 74.1794 188.744 74.262 188.686 74.326C188.632 74.3847 188.558 74.414 188.462 74.414C188.366 74.414 188.291 74.3847 188.238 74.326C188.184 74.262 188.158 74.1794 188.158 74.078V69.03C188.158 68.9287 188.184 68.8487 188.238 68.79C188.296 68.726 188.376 68.694 188.478 68.694C188.584 68.694 188.675 68.7394 188.75 68.83L192.062 73.27V69.03C192.062 68.9287 192.088 68.8487 192.142 68.79C192.2 68.726 192.278 68.694 192.374 68.694ZM196.464 74.438C195.93 74.438 195.469 74.3234 195.08 74.094C194.69 73.8594 194.389 73.526 194.176 73.094C193.968 72.6567 193.864 72.142 193.864 71.55C193.864 70.9634 193.968 70.454 194.176 70.022C194.389 69.5847 194.69 69.2514 195.08 69.022C195.469 68.7874 195.93 68.67 196.464 68.67C196.821 68.67 197.157 68.7287 197.472 68.846C197.792 68.958 198.069 69.1207 198.304 69.334C198.389 69.414 198.432 69.5074 198.432 69.614C198.432 69.6887 198.41 69.7554 198.368 69.814C198.325 69.8674 198.274 69.894 198.216 69.894C198.152 69.894 198.074 69.8647 197.984 69.806C197.712 69.5927 197.464 69.4434 197.24 69.358C197.021 69.2727 196.768 69.23 196.48 69.23C195.861 69.23 195.384 69.4327 195.048 69.838C194.717 70.238 194.552 70.8087 194.552 71.55C194.552 72.2967 194.717 72.8727 195.048 73.278C195.384 73.678 195.861 73.878 196.48 73.878C196.762 73.878 197.016 73.8354 197.24 73.75C197.464 73.6647 197.712 73.5154 197.984 73.302C198.074 73.2434 198.152 73.214 198.216 73.214C198.274 73.214 198.325 73.2407 198.368 73.294C198.41 73.3474 198.432 73.414 198.432 73.494C198.432 73.6007 198.389 73.694 198.304 73.774C198.069 73.9874 197.792 74.1527 197.472 74.27C197.157 74.382 196.821 74.438 196.464 74.438ZM199.822 74.374C199.72 74.374 199.638 74.3447 199.574 74.286C199.515 74.2274 199.486 74.15 199.486 74.054V69.054C199.486 68.958 199.515 68.8807 199.574 68.822C199.638 68.7634 199.72 68.734 199.822 68.734H202.814C202.91 68.734 202.984 68.758 203.038 68.806C203.091 68.854 203.118 68.9207 203.118 69.006C203.118 69.0914 203.091 69.158 203.038 69.206C202.984 69.254 202.91 69.278 202.814 69.278H200.134V71.238H202.654C202.75 71.238 202.824 71.262 202.878 71.31C202.931 71.358 202.958 71.4247 202.958 71.51C202.958 71.5954 202.931 71.662 202.878 71.71C202.824 71.758 202.75 71.782 202.654 71.782H200.134V73.83H202.814C202.91 73.83 202.984 73.854 203.038 73.902C203.091 73.9447 203.118 74.0114 203.118 74.102C203.118 74.1874 203.091 74.254 203.038 74.302C202.984 74.35 202.91 74.374 202.814 74.374H199.822ZM204.462 74.374C204.371 74.374 204.294 74.3474 204.23 74.294C204.171 74.2354 204.142 74.1607 204.142 74.07V69.03C204.142 68.9287 204.171 68.8487 204.23 68.79C204.289 68.726 204.369 68.694 204.47 68.694C204.571 68.694 204.651 68.726 204.71 68.79C204.769 68.8487 204.798 68.9287 204.798 69.03V73.814H207.382C207.478 73.814 207.553 73.838 207.606 73.886C207.659 73.934 207.686 74.0034 207.686 74.094C207.686 74.1847 207.659 74.254 207.606 74.302C207.553 74.35 207.478 74.374 207.382 74.374H204.462Z" fill="#5F45FF"/>
<path d="M168.293 126.423C168.33 126.481 168.349 126.543 168.349 126.607C168.349 126.687 168.317 126.753 168.253 126.807C168.194 126.855 168.125 126.879 168.045 126.879C167.922 126.879 167.826 126.825 167.757 126.719L166.685 125.023C166.546 124.804 166.402 124.655 166.253 124.575C166.104 124.489 165.901 124.447 165.645 124.447H164.637V126.535C164.637 126.636 164.608 126.719 164.549 126.783C164.49 126.841 164.413 126.871 164.317 126.871C164.216 126.871 164.136 126.841 164.077 126.783C164.018 126.719 163.989 126.636 163.989 126.535V121.511C163.989 121.415 164.018 121.337 164.077 121.279C164.141 121.22 164.224 121.191 164.325 121.191H166.309C166.922 121.191 167.389 121.327 167.709 121.599C168.034 121.871 168.197 122.271 168.197 122.799C168.197 123.247 168.066 123.607 167.805 123.879C167.549 124.151 167.181 124.316 166.701 124.375C166.834 124.417 166.954 124.487 167.061 124.583C167.168 124.679 167.274 124.812 167.381 124.983L168.293 126.423ZM166.253 123.903C166.69 123.903 167.016 123.812 167.229 123.631C167.448 123.449 167.557 123.175 167.557 122.807C167.557 122.444 167.45 122.175 167.237 121.999C167.024 121.823 166.696 121.735 166.253 121.735H164.637V123.903H166.253ZM169.809 126.831C169.708 126.831 169.625 126.801 169.561 126.743C169.503 126.684 169.473 126.607 169.473 126.511V121.511C169.473 121.415 169.503 121.337 169.561 121.279C169.625 121.22 169.708 121.191 169.809 121.191H172.801C172.897 121.191 172.972 121.215 173.025 121.263C173.079 121.311 173.105 121.377 173.105 121.463C173.105 121.548 173.079 121.615 173.025 121.663C172.972 121.711 172.897 121.735 172.801 121.735H170.121V123.695H172.641C172.737 123.695 172.812 123.719 172.865 123.767C172.919 123.815 172.945 123.881 172.945 123.967C172.945 124.052 172.919 124.119 172.865 124.167C172.812 124.215 172.737 124.239 172.641 124.239H170.121V126.287H172.801C172.897 126.287 172.972 126.311 173.025 126.359C173.079 126.401 173.105 126.468 173.105 126.559C173.105 126.644 173.079 126.711 173.025 126.759C172.972 126.807 172.897 126.831 172.801 126.831H169.809ZM175.852 126.895C175.452 126.895 175.068 126.836 174.7 126.719C174.337 126.596 174.046 126.433 173.828 126.231C173.748 126.156 173.708 126.063 173.708 125.951C173.708 125.876 173.729 125.812 173.772 125.759C173.814 125.7 173.865 125.671 173.924 125.671C173.993 125.671 174.068 125.7 174.148 125.759C174.644 126.143 175.209 126.335 175.844 126.335C176.302 126.335 176.654 126.247 176.9 126.071C177.145 125.895 177.268 125.644 177.268 125.319C177.268 125.132 177.209 124.983 177.092 124.871C176.974 124.753 176.82 124.66 176.628 124.591C176.436 124.521 176.177 124.449 175.852 124.375C175.414 124.273 175.054 124.167 174.772 124.055C174.494 123.943 174.268 123.783 174.092 123.575C173.921 123.367 173.836 123.095 173.836 122.759C173.836 122.439 173.921 122.156 174.092 121.911C174.268 121.66 174.51 121.468 174.82 121.335C175.134 121.196 175.492 121.127 175.892 121.127C176.265 121.127 176.612 121.185 176.932 121.303C177.257 121.415 177.529 121.577 177.748 121.791C177.833 121.876 177.876 121.969 177.876 122.071C177.876 122.145 177.854 122.212 177.812 122.271C177.769 122.324 177.718 122.351 177.66 122.351C177.601 122.351 177.524 122.321 177.428 122.263C177.166 122.049 176.924 121.9 176.7 121.815C176.476 121.729 176.206 121.687 175.892 121.687C175.449 121.687 175.105 121.78 174.86 121.967C174.614 122.148 174.492 122.404 174.492 122.735C174.492 123.017 174.598 123.231 174.812 123.375C175.03 123.513 175.364 123.636 175.812 123.743C176.297 123.86 176.678 123.969 176.956 124.071C177.233 124.167 177.462 124.313 177.644 124.511C177.83 124.708 177.924 124.972 177.924 125.303C177.924 125.617 177.836 125.895 177.66 126.135C177.489 126.375 177.246 126.561 176.932 126.695C176.617 126.828 176.257 126.895 175.852 126.895ZM181.381 126.895C180.848 126.895 180.386 126.78 179.997 126.551C179.608 126.316 179.306 125.983 179.093 125.551C178.885 125.113 178.781 124.599 178.781 124.007C178.781 123.42 178.885 122.911 179.093 122.479C179.306 122.041 179.608 121.708 179.997 121.479C180.386 121.244 180.848 121.127 181.381 121.127C181.738 121.127 182.074 121.185 182.389 121.303C182.709 121.415 182.986 121.577 183.221 121.791C183.306 121.871 183.349 121.964 183.349 122.071C183.349 122.145 183.328 122.212 183.285 122.271C183.242 122.324 183.192 122.351 183.133 122.351C183.069 122.351 182.992 122.321 182.901 122.263C182.629 122.049 182.381 121.9 182.157 121.815C181.938 121.729 181.685 121.687 181.397 121.687C180.778 121.687 180.301 121.889 179.965 122.295C179.634 122.695 179.469 123.265 179.469 124.007C179.469 124.753 179.634 125.329 179.965 125.735C180.301 126.135 180.778 126.335 181.397 126.335C181.68 126.335 181.933 126.292 182.157 126.207C182.381 126.121 182.629 125.972 182.901 125.759C182.992 125.7 183.069 125.671 183.133 125.671C183.192 125.671 183.242 125.697 183.285 125.751C183.328 125.804 183.349 125.871 183.349 125.951C183.349 126.057 183.306 126.151 183.221 126.231C182.986 126.444 182.709 126.609 182.389 126.727C182.074 126.839 181.738 126.895 181.381 126.895ZM188.755 121.151C188.857 121.151 188.934 121.183 188.987 121.247C189.046 121.305 189.075 121.385 189.075 121.487V126.535C189.075 126.636 189.046 126.719 188.987 126.783C188.934 126.841 188.857 126.871 188.755 126.871C188.654 126.871 188.574 126.841 188.515 126.783C188.457 126.719 188.427 126.636 188.427 126.535V124.247H185.051V126.535C185.051 126.636 185.022 126.719 184.963 126.783C184.905 126.841 184.825 126.871 184.723 126.871C184.622 126.871 184.542 126.841 184.483 126.783C184.43 126.719 184.403 126.636 184.403 126.535V121.487C184.403 121.385 184.43 121.305 184.483 121.247C184.542 121.183 184.622 121.151 184.723 121.151C184.825 121.151 184.905 121.183 184.963 121.247C185.022 121.305 185.051 121.385 185.051 121.487V123.687H188.427V121.487C188.427 121.385 188.457 121.305 188.515 121.247C188.574 121.183 188.654 121.151 188.755 121.151ZM190.802 126.831C190.7 126.831 190.618 126.801 190.554 126.743C190.495 126.684 190.466 126.607 190.466 126.511V121.511C190.466 121.415 190.495 121.337 190.554 121.279C190.618 121.22 190.7 121.191 190.802 121.191H193.794C193.89 121.191 193.964 121.215 194.018 121.263C194.071 121.311 194.098 121.377 194.098 121.463C194.098 121.548 194.071 121.615 194.018 121.663C193.964 121.711 193.89 121.735 193.794 121.735H191.114V123.695H193.634C193.73 123.695 193.804 123.719 193.858 123.767C193.911 123.815 193.938 123.881 193.938 123.967C193.938 124.052 193.911 124.119 193.858 124.167C193.804 124.215 193.73 124.239 193.634 124.239H191.114V126.287H193.794C193.89 126.287 193.964 126.311 194.018 126.359C194.071 126.401 194.098 126.468 194.098 126.559C194.098 126.644 194.071 126.711 194.018 126.759C193.964 126.807 193.89 126.831 193.794 126.831H190.802ZM195.458 126.831C195.357 126.831 195.274 126.801 195.21 126.743C195.151 126.684 195.122 126.607 195.122 126.511V121.511C195.122 121.415 195.151 121.337 195.21 121.279C195.274 121.22 195.357 121.191 195.458 121.191H197.018C197.919 121.191 198.615 121.436 199.106 121.927C199.602 122.412 199.85 123.105 199.85 124.007C199.85 124.908 199.602 125.604 199.106 126.095C198.61 126.585 197.914 126.831 197.018 126.831H195.458ZM196.978 126.271C198.439 126.271 199.17 125.516 199.17 124.007C199.17 122.503 198.439 121.751 196.978 121.751H195.778V126.271H196.978ZM203.236 126.895C202.5 126.895 201.943 126.703 201.564 126.319C201.185 125.935 200.996 125.369 200.996 124.623V121.487C200.996 121.385 201.025 121.305 201.084 121.247C201.143 121.183 201.223 121.151 201.324 121.151C201.42 121.151 201.497 121.183 201.556 121.247C201.615 121.305 201.644 121.385 201.644 121.487V124.679C201.644 125.228 201.777 125.641 202.044 125.919C202.316 126.196 202.713 126.335 203.236 126.335C203.759 126.335 204.153 126.196 204.42 125.919C204.687 125.641 204.82 125.228 204.82 124.679V121.487C204.82 121.385 204.849 121.305 204.908 121.247C204.972 121.183 205.052 121.151 205.148 121.151C205.249 121.151 205.329 121.183 205.388 121.247C205.447 121.305 205.476 121.385 205.476 121.487V124.623C205.476 125.364 205.284 125.929 204.9 126.319C204.521 126.703 203.967 126.895 203.236 126.895ZM207.145 126.831C207.054 126.831 206.977 126.804 206.913 126.751C206.854 126.692 206.825 126.617 206.825 126.527V121.487C206.825 121.385 206.854 121.305 206.913 121.247C206.972 121.183 207.052 121.151 207.153 121.151C207.254 121.151 207.334 121.183 207.393 121.247C207.452 121.305 207.481 121.385 207.481 121.487V126.271H210.065C210.161 126.271 210.236 126.295 210.289 126.343C210.342 126.391 210.369 126.46 210.369 126.551C210.369 126.641 210.342 126.711 210.289 126.759C210.236 126.807 210.161 126.831 210.065 126.831H207.145ZM211.481 126.831C211.38 126.831 211.297 126.801 211.233 126.743C211.175 126.684 211.145 126.607 211.145 126.511V121.511C211.145 121.415 211.175 121.337 211.233 121.279C211.297 121.22 211.38 121.191 211.481 121.191H214.473C214.569 121.191 214.644 121.215 214.697 121.263C214.751 121.311 214.777 121.377 214.777 121.463C214.777 121.548 214.751 121.615 214.697 121.663C214.644 121.711 214.569 121.735 214.473 121.735H211.793V123.695H214.313C214.409 123.695 214.484 123.719 214.537 123.767C214.591 123.815 214.617 123.881 214.617 123.967C214.617 124.052 214.591 124.119 214.537 124.167C214.484 124.215 214.409 124.239 214.313 124.239H211.793V126.287H214.473C214.569 126.287 214.644 126.311 214.697 126.359C214.751 126.401 214.777 126.468 214.777 126.559C214.777 126.644 214.751 126.711 214.697 126.759C214.644 126.807 214.569 126.831 214.473 126.831H211.481Z" fill="#5F45FF"/>
<ellipse cx="123.611" cy="178.16" rx="3.15763" ry="3.15763" fill="white"/>
</g>
<g clip-path="url(#clip1)">
<path d="M2.07399 202.389V180.956C2.07399 159.897 19.1081 142.863 40.1667 142.863H40.7283C61.7871 142.863 78.8211 159.897 78.8211 180.956V181.517C78.8211 202.576 61.7871 219.61 40.7283 219.61H12.8373C3.29067 219.61 2.16759 211.935 2.07399 202.389Z" fill="white"/>
<path d="M1.98036 181.237V214.089C1.98036 217.083 4.41371 219.516 7.40879 219.516H14.6155C11.6205 219.516 9.18707 217.083 9.18707 214.089V181.143C9.18707 154.563 30.5265 143.05 46.0631 143.425C44.0976 143.144 42.0386 142.957 40.0731 142.957C19.108 143.144 2.07396 160.178 1.98036 181.237Z" fill="#EAEFF4"/>
<path d="M1.23158 212.404V181.049C1.23158 159.99 18.2657 142.957 39.3243 142.957H39.8859C60.9447 142.957 77.9787 159.99 77.9787 181.049V181.611C77.9787 202.67 60.9447 219.704 39.8859 219.704H8.53189C4.50733 219.61 1.23158 216.428 1.23158 212.404Z" stroke="#B8C0CC" stroke-width="2" stroke-miterlimit="10"/>
<path d="M55.3287 166.636C55.3287 164.764 56.9199 163.173 58.7919 163.173C60.6639 163.173 62.2551 164.764 62.2551 166.636C62.2551 168.508 60.6639 170.099 58.7919 170.099C56.9199 170.099 55.3287 168.602 55.3287 166.636Z" fill="#B8C0CC"/>
</g>
<defs>
<clipPath id="clip0">
<rect width="178.579" height="193.358" fill="white" transform="translate(55.4211)"/>
</clipPath>
<clipPath id="clip1">
<rect width="80.0526" height="80.0526" fill="white" transform="translate(0 141.631)"/>
</clipPath>
</defs>
</svg>
