<svg width="82" height="73" viewBox="0 0 82 73" fill="none" xmlns="http://www.w3.org/2000/svg">
<g clip-path="url(#clip0)">
<path d="M15.404 1.94531H65.5286L79.8068 18.1062L41.6818 70.5398L2.5603 19.2364L15.404 1.94531Z" stroke="#B8C0CC" stroke-width="2" stroke-miterlimit="10"/>
<path d="M23.7241 28.2638C23.7241 26.1592 25.4085 24.453 27.4864 24.453H31.1313V35.1709H27.4864C25.4085 35.1709 23.7241 33.4647 23.7241 31.3601V28.2638Z" stroke="#5F45FF" stroke-width="2"/>
<path d="M58.6435 28.2638C58.6435 26.1592 56.9589 24.453 54.8811 24.453H51.2363V35.1709H54.8811C56.9589 35.1709 58.6435 33.4647 58.6435 31.3601V28.2638Z" stroke="#5F45FF" stroke-width="2"/>
<path d="M53.3525 24.4531V18.8559C53.3525 13.0682 48.7203 8.37622 43.006 8.37622H39.3611C33.6469 8.37622 29.0146 13.0682 29.0146 18.8559V24.4531" stroke="#5F45FF" stroke-width="2"/>
<path d="M53.3524 35.1709V38.1481C53.3524 41.8312 50.4046 44.817 46.7683 44.817H45.9453" stroke="#5F45FF" stroke-width="2"/>
<path d="M43.8289 42.6733H40.6544C39.4855 42.6733 38.538 43.6331 38.538 44.8169C38.538 46.0008 39.4855 46.9605 40.6544 46.9605H43.8289C44.9977 46.9605 45.9452 46.0008 45.9452 44.8169C45.9452 43.6331 44.9977 42.6733 43.8289 42.6733Z" stroke="#5F45FF" stroke-width="2"/>
</g>
<defs>
<clipPath id="clip0">
<rect width="80.8913" height="71.4526" fill="white" transform="translate(0.679138 0.992676)"/>
</clipPath>
</defs>
</svg>
