<svg width="337" height="146" viewBox="0 0 337 146" fill="none" xmlns="http://www.w3.org/2000/svg">
<g clip-path="url(#clip0)">
<path d="M122.654 82.5635H104.618C103.658 82.5635 102.88 83.3416 102.88 84.3016V117.096C102.88 118.056 103.658 118.834 104.618 118.834H122.654C123.614 118.834 124.393 118.056 124.393 117.096V84.3016C124.393 83.3416 123.614 82.5635 122.654 82.5635Z" fill="white" stroke="#B8C0CC" stroke-width="1.88"/>
<path d="M113.636 113.816C114.994 113.816 116.096 112.715 116.096 111.357C116.096 109.998 114.994 108.897 113.636 108.897C112.278 108.897 111.177 109.998 111.177 111.357C111.177 112.715 112.278 113.816 113.636 113.816Z" fill="#B8C0CC"/>
</g>
<path d="M166 33.0574C166 15.3483 151.483 1 133.435 1C115.386 1 101 15.3483 101 33.0574C101 46.5009 109.37 58.0054 121.272 62.7881L116.302 73L143.767 63.5637C144.159 63.4345 144.551 63.3052 144.944 63.1759H145.074C157.237 58.5224 166 46.8887 166 33.0574Z" fill="white" stroke="#5F45FF" stroke-width="2" stroke-linecap="round" stroke-linejoin="round"/>
<path d="M135.985 40.772L136.362 40.9653L136.614 40.6244C137.52 39.4004 138.956 38.6016 140.582 38.6016C143.311 38.6016 145.531 40.822 145.531 43.5508C145.531 46.2795 143.311 48.5 140.582 48.5C137.853 48.5 135.633 46.2795 135.633 43.5508C135.633 43.0562 135.729 42.578 135.877 42.0996L136.002 41.6982L135.628 41.5066L127.068 37.1233L126.685 36.9271L126.434 37.2771C125.532 38.5345 124.071 39.3574 122.418 39.3574C119.689 39.3574 117.469 37.1369 117.469 34.4082C117.469 31.6795 119.689 29.459 122.418 29.459C123.894 29.459 125.209 30.123 126.121 31.1626L126.397 31.4767L126.755 31.2612L135.77 25.8368L136.13 25.6199L135.978 25.2276C135.761 24.6677 135.633 24.0721 135.633 23.4492C135.633 20.7205 137.853 18.5 140.582 18.5C143.311 18.5 145.531 20.7205 145.531 23.4492C145.531 26.178 143.311 28.3984 140.582 28.3984C139.081 28.3984 137.746 27.7105 136.832 26.6388L136.557 26.3161L136.194 26.5347L127.206 31.9432L126.84 32.1635L127.001 32.5594C127.234 33.1347 127.367 33.7565 127.367 34.4082C127.367 34.8766 127.279 35.3307 127.145 35.7886L127.028 36.1858L127.396 36.3744L135.985 40.772Z" fill="#5F45FF" stroke="#5F45FF"/>
<path d="M3.20752 126.103V104.992C3.20752 84.2586 20.0583 67.4077 40.7913 67.4077H41.3589C62.0918 67.4077 78.9441 84.2586 78.9441 104.992V105.559C78.9441 126.292 62.0918 143.143 41.3589 143.143H13.8099C4.4386 143.143 3.3019 135.475 3.20752 126.103Z" fill="white"/>
<path d="M3.11328 105.087V137.559C3.11328 140.493 5.57408 142.86 8.50956 142.955H15.7045C12.7691 142.955 10.4027 140.493 10.3083 137.559V105.087C10.3083 78.8629 31.3243 67.5027 46.7553 67.7873C44.7678 67.5027 42.7803 67.314 40.8858 67.314C20.0585 67.5027 3.20766 84.3536 3.11328 105.087Z" fill="#EAEFF4"/>
<path d="M2.35532 135.948V104.992C2.35532 84.2586 19.2062 67.4077 39.9391 67.4077H40.5081C61.2397 67.4077 78.0919 84.2586 78.0919 104.992V105.559C78.0919 126.292 61.2397 143.143 40.5081 143.143H9.55034C5.57391 143.143 2.35532 139.924 2.35532 135.948Z" stroke="#B8C0CC" stroke-width="2" stroke-miterlimit="10"/>
<path d="M55.8435 90.7905C55.8435 88.8974 57.3591 87.3833 59.2523 87.3833C61.1454 87.3833 62.661 88.8974 62.661 90.7905C62.661 92.6851 61.1454 94.1993 59.2523 94.1993C57.3591 94.1993 55.8435 92.6851 55.8435 90.7905Z" fill="#B8C0CC"/>
<path d="M51.0162 110.294C51.0162 108.399 52.5305 106.885 54.4236 106.885C56.3181 106.885 57.8324 108.399 57.8324 110.294C57.8324 112.187 56.3181 113.701 54.4236 113.701C52.5305 113.701 51.0162 112.187 51.0162 110.294Z" fill="#B8C0CC"/>
<path d="M25.645 108.968C25.645 108.968 37.8573 123.263 53.477 110.671" stroke="#B8C0CC" stroke-width="2" stroke-linecap="round"/>
<path d="M254.765 100.269H227.159C206.315 100.269 189.454 83.4083 189.454 62.5655V62.0087C189.454 41.1659 206.315 24.3052 227.159 24.3052H227.715C248.559 24.3052 265.418 41.1659 265.418 62.0087V83.2231C265.326 92.6725 264.215 100.269 254.765 100.269Z" fill="white"/>
<path d="M227.715 24.3052C225.769 24.3052 223.731 24.4903 221.786 24.7681C237.257 24.3978 258.378 35.7925 258.378 62.1012V94.7104C258.378 97.6755 255.969 100.084 253.005 100.084H260.231C263.195 100.084 265.603 97.6755 265.603 94.7104V62.1012C265.418 41.2584 248.559 24.3978 227.715 24.3052Z" fill="#EAEFF4"/>
<path d="M259.119 100.269H228.085C207.241 100.269 190.381 83.4083 190.381 62.5655V62.0087C190.381 41.1659 207.241 24.3052 228.085 24.3052H228.64C249.485 24.3052 266.345 41.1659 266.345 62.0087V93.0428C266.253 97.0262 263.01 100.269 259.119 100.269Z" stroke="#B8C0CC" stroke-width="2" stroke-miterlimit="10"/>
<path d="M211.031 50.7604C211.219 48.4487 210.196 46.4791 208.746 46.3624C207.297 46.2456 205.969 48.0247 205.781 50.3364C205.593 52.6494 206.617 54.6176 208.066 54.7357C209.516 54.8524 210.843 53.072 211.031 50.7604Z" fill="#B8C0CC"/>
<path d="M323.148 110.431H295.542C274.697 110.431 257.837 93.5699 257.837 72.7271V72.1703C257.837 51.3275 274.697 34.4668 295.542 34.4668H296.097C316.941 34.4668 333.801 51.3275 333.801 72.1703V93.3847C333.708 102.834 332.597 110.431 323.148 110.431Z" fill="white"/>
<path d="M296.097 34.4668C294.152 34.4668 292.114 34.6519 290.168 34.9297C305.639 34.5594 326.761 45.9541 326.761 72.2629V104.872C326.761 107.837 324.351 110.245 321.387 110.245H328.614C331.577 110.245 333.986 107.837 333.986 104.872V72.2629C333.801 51.4201 316.941 34.5594 296.097 34.4668Z" fill="#EAEFF4"/>
<path d="M327.501 110.431H296.467C275.623 110.431 258.764 93.5699 258.764 72.7271V72.1703C258.764 51.3275 275.623 34.4668 296.467 34.4668H297.023C317.867 34.4668 334.728 51.3275 334.728 72.1703V103.204C334.635 107.188 331.392 110.431 327.501 110.431Z" stroke="#B8C0CC" stroke-width="2" stroke-miterlimit="10"/>
<path d="M279.413 60.922C279.601 58.6103 278.579 56.6407 277.128 56.524C275.679 56.4073 274.351 58.1863 274.163 60.498C273.976 62.811 274.999 64.7793 276.448 64.8973C277.899 65.0141 279.226 63.2337 279.413 60.922Z" fill="#B8C0CC"/>
<path d="M287.56 142.901H259.954C239.11 142.901 222.249 126.041 222.249 105.198V104.641C222.249 83.7982 239.11 66.9375 259.954 66.9375H260.509C281.353 66.9375 298.213 83.7982 298.213 104.641V125.855C298.12 135.305 297.009 142.901 287.56 142.901Z" fill="white"/>
<path d="M260.509 66.9375C258.564 66.9375 256.526 67.1227 254.58 67.4004C270.051 67.0301 291.173 78.4248 291.173 104.734V137.343C291.173 140.308 288.763 142.716 285.8 142.716H293.026C295.989 142.716 298.398 140.308 298.398 137.343V104.734C298.213 83.8908 281.353 67.0301 260.509 66.9375Z" fill="#EAEFF4"/>
<path d="M291.913 142.901H260.879C240.035 142.901 223.176 126.041 223.176 105.198V104.641C223.176 83.7982 240.035 66.9375 260.879 66.9375H261.435C282.279 66.9375 299.14 83.7982 299.14 104.641V135.675C299.047 139.658 295.804 142.901 291.913 142.901Z" stroke="#B8C0CC" stroke-width="2" stroke-miterlimit="10"/>
<path d="M243.825 93.3927C244.013 91.081 242.991 89.1114 241.541 88.9947C240.092 88.878 238.763 90.657 238.576 92.9687C238.388 95.2817 239.411 97.25 240.86 97.368C242.311 97.4848 243.638 95.7044 243.825 93.3927Z" fill="#B8C0CC"/>
<defs>
<clipPath id="clip0">
<rect width="24.5956" height="39.3529" fill="white" transform="translate(101.338 81.022)"/>
</clipPath>
</defs>
</svg>
